<svg xmlns="http://www.w3.org/2000/svg" xmlns:xlink="http://www.w3.org/1999/xlink" width="3715" height="2212" viewBox="0 0 3715 2212"><defs><radialGradient id="a" cx="0.5" cy="0.5" r="0.5" gradientUnits="objectBoundingBox"><stop offset="0" stop-color="#e7eff3"/><stop offset="1" stop-color="#d9e9f0"/></radialGradient><clipPath id="c"><path d="M0 0h3715v2212H0z"/></clipPath></defs><g id="b" clip-path="url(#c)"><path fill="url(#a)" d="M0 0h3715v2212H0z"/><g transform="translate(449.164 452)"><rect width="2947" height="129" fill="#bed2df" rx="39" transform="translate(-.164 1173)"/><rect width="2477" height="130" fill="#bed2df" rx="39" transform="translate(-.164 1026)"/><rect width="2396" height="129" fill="#bed2df" rx="39" transform="translate(-.164 880)"/><rect width="2158" height="130" fill="#bed2df" rx="39" transform="translate(-.164 733)"/><rect width="1809" height="130" fill="#bed2df" rx="39" transform="translate(-.164 586)"/><rect width="1114" height="129" fill="#bed2df" rx="39" transform="translate(-.164 440)"/><rect width="1013" height="130" fill="#bed2df" rx="39" transform="translate(-.164 293)"/><rect width="634" height="129" fill="#bed2df" rx="39" transform="translate(-.164 147)"/><rect width="306" height="130" fill="#eafaea" rx="39" transform="translate(-.164)"/></g><g transform="translate(490.333 473.105)"><g transform="translate(0 756.143)"><path fill="#417da5" d="m29.4 35.16-16.33-3.3a3.3 3.3 0 0 1-2.68-2.97V12.65a3.3 3.3 0 0 1 2.68-2.98l16.34-3.28L31.16 0H12.12C5.46 0 .05 4.96 0 11.1v19.27C.03 36.53 5.45 41.5 12.12 41.5h19.04Zm13.9 0 16.35-3.3a3.3 3.3 0 0 0 2.67-2.97V12.65a3.3 3.3 0 0 0-2.67-2.98L43.3 6.39 41.56 0h19.03c6.66 0 12.08 4.96 12.12 11.1v19.27C72.7 36.53 67.27 41.5 60.6 41.5h-19Z"/><path fill="#417da5" d="M29.4 19.98h13.9v1.6H29.4Zm311.98 20.65h-4.31c-5.41 0-9.8-4.05-9.8-9.05V19.9a8.7 8.7 0 0 1 2.86-6.41 10.2 10.2 0 0 1 6.94-2.66h4.32c5.4 0 9.8 4.05 9.8 9.04v11.7c.01 5-4.38 9.07-9.8 9.07m-4.32-24.6a4.04 4.04 0 0 0-4.18 3.85v11.7a4.03 4.03 0 0 0 4.18 3.85h4.32a4.03 4.03 0 0 0 4.18-3.86v-11.7a4.04 4.04 0 0 0-4.18-3.86ZM125.6.96h5.62v38.99h-5.62Zm12.2 10.53h5.63v28.46h-5.63ZM140.6.97a3.8 3.8 0 0 0-3.52 2.14 3.3 3.3 0 0 0 .8 3.84 4 4 0 0 0 4.14.77 3.5 3.5 0 0 0 2.36-3.24A3.66 3.66 0 0 0 140.6.97m-35.19 0h-6.84c-2.6 4.23-8.78 15.84-15.13 38.98h5.85c1-3.5 1.97-6.78 2.94-9.75h20.53q1.43 4.45 2.92 9.75h5.85C115.21 16.81 109.02 5.2 106.42.97Zm-11.4 23.97a134 134 0 0 1 7.96-18.7h1.08a131 131 0 0 1 7.96 18.7Zm222.43-24h5.6v39.01h-5.6ZM150 .97h5.61v38.99H150Z"/><path fill="#417da5" d="M162.88 40.64a53 53 0 0 1-10.46-1.24l1.32-5.05c8.76 1.95 12.8.88 13.93.07s1.2-2.2 1.2-3.77v-8.83h5.63v8.8c0 1.76 0 5.42-3.35 7.86q-2.94 2.16-8.23 2.15"/><path fill="#417da5" d="M174.48 29.19h-5.61v-8.82c0-1.5-.08-2.7-1.06-3.41-.87-.64-3.9-1.89-13.21.19l-1.32-5.05c8.73-1.95 14.62-1.69 18.02.78 3.2 2.34 3.16 5.85 3.16 7.5Zm135.23 4.52a36 36 0 0 1-18.08 1.04c-3.59-.83-3.86-3.4-3.86-3.87v-20.2c0-.48.27-3.05 3.86-3.87a36 36 0 0 1 18.23 1.1l1.38-5.06A41 41 0 0 0 298.5.93a38 38 0 0 0-8.24.85c-6.45 1.47-8.14 6.47-8.13 8.91v20.18c0 2.44 1.68 7.44 8.13 8.91a38 38 0 0 0 8.23.85 42 42 0 0 0 12.6-1.85Zm64-22.21h5.62v28.45h-5.62Z"/><path fill="#417da5" d="M367.46 40.63q-5.34 0-8.23-2.15c-3.37-2.44-3.36-6.1-3.36-7.85V11.46h5.63v19.18c0 1.58.08 2.96 1.2 3.77s4.3 1.89 13.06-.07l1.32 5.04a45 45 0 0 1-9.62 1.25M401.74.97h5.62v38.98h-5.62Z"/><path fill="#417da5" d="M395.6 40.64q-5.34 0-8.23-2.14c-3.36-2.45-3.35-6.11-3.35-7.87v-8.81h5.63v8.82c0 1.58.08 2.96 1.2 3.77s4.3 1.89 13.06-.07l1.31 5.05a45 45 0 0 1-9.62 1.24"/><path fill="#417da5" d="M389.62 29.19H384v-8.81c0-1.67 0-5.16 3.17-7.5 3.4-2.47 9.3-2.72 18.01-.78l-1.31 5.05c-9.31-2.07-12.35-.82-13.22-.19-.98.72-1.05 1.92-1.05 3.4Zm-190.2-16.5c-5.57-3.67-15.95-.94-18.47-.2l1.38 5.04c3.27-1.03 10.93-2.53 13.8-.62a2.7 2.7 0 0 1 1.14 2.52v20.52h5.61V19.44a7.7 7.7 0 0 0-3.47-6.75"/><path fill="#417da5" d="M189.22 40.64c-5.7 0-9.55-2.48-10.54-6.78a8 8 0 0 1 1.22-6.77c1.54-2.1 4.16-3.44 7.77-4a30 30 0 0 1 12.93.76l-1.86 4.89a25 25 0 0 0-10.13-.52c-1.4.2-3.24.7-4.06 1.8a3.4 3.4 0 0 0-.36 2.76c.17.73.64 2.66 5.07 2.66a46 46 0 0 0 9.38-1.02l1.81 4.9a51 51 0 0 1-11.23 1.32m69.68-27.95c-5.55-3.67-15.94-.94-18.46-.2l1.38 5.05c3.27-1.03 10.93-2.53 13.8-.63a2.7 2.7 0 0 1 1.13 2.53v20.51h5.62V19.44a7.7 7.7 0 0 0-3.47-6.75"/><path fill="#417da5" d="M248.69 40.63c-5.7 0-9.55-2.47-10.54-6.78a8 8 0 0 1 1.22-6.77c1.54-2.1 4.17-3.43 7.78-3.99a30 30 0 0 1 12.92.75l-1.86 4.9a25 25 0 0 0-10.13-.53c-1.4.21-3.25.7-4.06 1.8a3.4 3.4 0 0 0-.36 2.77c.17.73.64 2.65 5.04 2.65a46 46 0 0 0 9.38-1.01l1.81 4.9a50 50 0 0 1-11.2 1.3M209.49.98h5.62v38.98h-5.62Z"/><path fill="#417da5" d="M222.36 40.64a53 53 0 0 1-10.46-1.24l1.32-5.05c8.76 1.95 12.8.88 13.93.07s1.22-2.2 1.22-3.77v-8.83h5.62v8.8c0 1.76 0 5.42-3.35 7.86q-2.93 2.16-8.23 2.15"/><path fill="#417da5" d="M233.97 29.19h-5.63v-8.82c0-1.5-.07-2.7-1.05-3.41-.87-.64-3.9-1.89-13.21.19l-1.32-5.05c8.73-1.95 14.62-1.69 18.01.78 3.2 2.34 3.17 5.85 3.17 7.5Z"/></g><g transform="translate(0 1192.961)"><path fill="#417da5" d="M30.99 22.04a10 10 0 0 0 .4 3 17 17 0 0 0 1.17 2.43 1.4 1.4 0 0 1 .25.78 1.3 1.3 0 0 1-.69 1.01l-2.3 1.42a2 2 0 0 1-.95.3 1.8 1.8 0 0 1-1.1-.47 11 11 0 0 1-1.32-1.59q-.54-.84-1.13-1.99a14 14 0 0 1-10.75 4.67 10.5 10.5 0 0 1-7.32-2.43 8.3 8.3 0 0 1-2.7-6.49 8.4 8.4 0 0 1 3.32-6.95c2.24-1.75 5.2-2.63 8.97-2.63a31 31 0 0 1 3.87.27q2.02.27 4.2.74v-2.46q0-3.85-1.71-5.4-1.75-1.57-5.96-1.56a18 18 0 0 0-3.95.44 31 31 0 0 0-3.95 1.15 11 11 0 0 1-1.28.44 2 2 0 0 1-.59.1q-.75 0-.76-1.05V4.12a2 2 0 0 1 .25-1.18A3 3 0 0 1 8 2.23 22 22 0 0 1 12.59.7a24 24 0 0 1 5.7-.64q6.53 0 9.59 2.73 3.03 2.74 3.04 8.3v10.94Zm-14.85 5.13a13 13 0 0 0 3.77-.6 8 8 0 0 0 3.47-2.16 5 5 0 0 0 1.24-2.17 11 11 0 0 0 .37-2.93v-1.42a33 33 0 0 0-3.36-.57 30 30 0 0 0-3.44-.2q-3.66 0-5.45 1.35a4.6 4.6 0 0 0-1.8 3.88 4.5 4.5 0 0 0 1.36 3.58 5.3 5.3 0 0 0 3.84 1.24m29.37 3.65a2.2 2.2 0 0 1-1.4-.34 2.7 2.7 0 0 1-.76-1.31l-8.6-26.1a6 6 0 0 1-.32-1.35.77.77 0 0 1 .87-.84h3.59a2.2 2.2 0 0 1 1.43.34 2.7 2.7 0 0 1 .73 1.31l6.14 22.35 5.7-22.35a2.3 2.3 0 0 1 .7-1.31 2.7 2.7 0 0 1 1.47-.34h2.92a2.3 2.3 0 0 1 1.47.33 2.2 2.2 0 0 1 .7 1.32l5.77 22.62 6.33-22.62a3 3 0 0 1 .73-1.31A2.5 2.5 0 0 1 74.4.88h3.4q.9 0 .92.84a3 3 0 0 1-.07.54 5 5 0 0 1-.26.85L69.57 29.2a2.5 2.5 0 0 1-.76 1.32 2.5 2.5 0 0 1-1.4.33h-3.14a2.3 2.3 0 0 1-1.46-.33 2.3 2.3 0 0 1-.7-1.35L56.45 7.39l-5.63 21.74a2.6 2.6 0 0 1-.7 1.35 2.4 2.4 0 0 1-1.46.34Zm47 .91a26 26 0 0 1-5.63-.6 18 18 0 0 1-4.2-1.36 2.6 2.6 0 0 1-1.14-.94 2 2 0 0 1-.22-.95v-1.72q.02-1.05.84-1.04a2 2 0 0 1 .66.1c.22.06.55.2.91.33a21 21 0 0 0 4.02 1.19 24 24 0 0 0 4.35.4 10.5 10.5 0 0 0 5.35-1.11 3.6 3.6 0 0 0 1.9-3.21 3.2 3.2 0 0 0-.99-2.36 9.5 9.5 0 0 0-3.7-1.76l-5.3-1.52a11.3 11.3 0 0 1-5.85-3.44 7.7 7.7 0 0 1-1.82-4.9 7 7 0 0 1 .98-3.74 9 9 0 0 1 2.63-2.77A12 12 0 0 1 89.1.58 17 17 0 0 1 93.7 0a20 20 0 0 1 2.46.14c.84.1 1.6.23 2.38.37q1.1.25 2.08.54a8 8 0 0 1 1.54.6 3 3 0 0 1 1.1.85 1.7 1.7 0 0 1 .32 1.12V5.2q0 1.06-.84 1.08a4 4 0 0 1-1.39-.4 18 18 0 0 0-7.02-1.32 10 10 0 0 0-4.86.94 3.2 3.2 0 0 0-1.72 3 3 3 0 0 0 1.1 2.4 11 11 0 0 0 4.02 1.86l5.2 1.52a11.3 11.3 0 0 1 5.66 3.24 7.3 7.3 0 0 1 1.68 4.72 8 8 0 0 1-.95 3.92 9 9 0 0 1-2.67 2.97 12 12 0 0 1-4.06 1.89 19 19 0 0 1-5.22.71"/><g transform="translate(0 37.84)"><path fill="#417da5" fill-rule="evenodd" d="M99.42 10.3C87.38 18.5 69.9 22.86 54.87 22.86 33.8 22.86 14.82 15.66.5 3.72-.65 2.77.38 1.49 1.73 2.23a117 117 0 0 0 54.42 13.34 117 117 0 0 0 41.51-7.84c2.01-.84 3.73 1.22 1.76 2.57"/><path fill="#417da5" fill-rule="evenodd" d="M104.43 5.03c-1.54-1.82-10.17-.87-14.08-.44-1.17.14-1.36-.8-.3-1.51 6.88-4.46 18.18-3.18 19.5-1.7 1.31 1.53-.37 11.96-6.8 16.95-.99.78-1.94.37-1.5-.64 1.46-3.34 4.72-10.87 3.18-12.66"/></g></g><g transform="translate(0 1044.961)"><path fill="#417da5" d="M41.54 13.4h2l5.7-5.26.28-2.23A27.2 27.2 0 0 0 25.24 1 24.6 24.6 0 0 0 7.9 17.43a3.3 3.3 0 0 1 2-.11l11.38-1.73s.58-.89.88-.83a15.06 15.06 0 0 1 19.43-1.37Z"/><path fill="#417da5" d="M57.34 17.43a23.5 23.5 0 0 0-7.73-11.5l-7.99 7.37a12.7 12.7 0 0 1 5.22 10.4v1.31a6.85 6.85 0 0 1 7.1 6.56 6.85 6.85 0 0 1-7.1 6.56H32.62l-1.42 1.32v7.87l1.42 1.31h14.22c8.15.06 15.38-4.81 17.8-12s-.55-14.98-7.3-19.2"/><path fill="#417da5" d="M18.38 48.56H32.6v-10.5H18.38a8 8 0 0 1-2.93-.6l-2 .58-5.73 5.25-.5 1.84a19.4 19.4 0 0 0 11.16 3.43"/><path fill="#417da5" d="M18.38 14.48c-7.9.04-14.9 4.71-17.41 11.62a16.3 16.3 0 0 0 6.25 18.98l8.25-7.61a6.5 6.5 0 0 1-4.12-6.9A6.9 6.9 0 0 1 17.4 25a7.2 7.2 0 0 1 7.48 3.8l8.25-7.62a19 19 0 0 0-14.74-6.7m84.94 26.74a19 19 0 0 1-13.18-5 15.82 15.82 0 0 1 0-24.02 19 19 0 0 1 13.18-5.1 18.5 18.5 0 0 1 12.64 4.7l-3.56 3.34a13.4 13.4 0 0 0-9.08-3.31 13.2 13.2 0 0 0-9.39 3.68 11.75 11.75 0 0 0 0 17.4 14.2 14.2 0 0 0 18.7.2 9.5 9.5 0 0 0 2.73-5.73h-11.98v-4.72h16.95a14 14 0 0 1 .2 2.88 14.1 14.1 0 0 1-4.38 10.87 17.8 17.8 0 0 1-12.84 4.81Zm39.41-3.13a13 13 0 0 1-16.91 0 10.1 10.1 0 0 1-3.45-7.83 10.1 10.1 0 0 1 3.45-7.84 13 13 0 0 1 16.91 0 10.1 10.1 0 0 1 3.45 7.84 10.1 10.1 0 0 1-3.47 7.83Zm-13.18-3.08a6.85 6.85 0 0 0 9.45 0 6.3 6.3 0 0 0 2-4.75 6.3 6.3 0 0 0-2-4.78 6.96 6.96 0 0 0-9.49 0 6.3 6.3 0 0 0-2 4.78 6.3 6.3 0 0 0 2.02 4.75Zm39.18 3.08a13 13 0 0 1-16.91 0 10.1 10.1 0 0 1-3.46-7.83 10.1 10.1 0 0 1 3.46-7.84 13 13 0 0 1 16.91 0 10.1 10.1 0 0 1 3.45 7.84 10.1 10.1 0 0 1-3.45 7.83m-13.18-3.08a6.85 6.85 0 0 0 9.45 0 6.3 6.3 0 0 0 2-4.75 6.3 6.3 0 0 0-2-4.78 6.96 6.96 0 0 0-9.49 0 6.3 6.3 0 0 0-2 4.78 6.3 6.3 0 0 0 2.02 4.75Zm30.27 16.06a11 11 0 0 1-6.64-1.96 11.5 11.5 0 0 1-3.88-4.53l4.55-1.75a7 7 0 0 0 2.26 2.74 6 6 0 0 0 3.73 1.16 6.3 6.3 0 0 0 4.66-1.66 6.4 6.4 0 0 0 1.65-4.79V38.7h-.18a8 8 0 0 1-6.25 2.49 11.3 11.3 0 0 1-7.98-3.21 10.5 10.5 0 0 1 0-15.5 11.3 11.3 0 0 1 7.98-3.23 9 9 0 0 1 3.68.76 7 7 0 0 1 2.6 1.75h.18v-1.75h4.95v19.63a11 11 0 0 1-3.17 8.57 11.7 11.7 0 0 1-8.13 2.86Zm.36-14.16a6 6 0 0 0 4.52-1.85 6.5 6.5 0 0 0 1.81-4.71 6.6 6.6 0 0 0-1.81-4.82 6 6 0 0 0-4.52-1.83 6.56 6.56 0 0 0-6.66 6.61 6.3 6.3 0 0 0 2 4.72 6.4 6.4 0 0 0 4.66 1.88m19.75-28.57v32.22h-5.21V8.34Zm14.3 32.88a12 12 0 0 1-8.4-3.15 10.3 10.3 0 0 1-3.38-7.81 10.4 10.4 0 0 1 3.26-7.9 11.2 11.2 0 0 1 7.98-3.07 11 11 0 0 1 4 .72 10 10 0 0 1 3.05 1.84 13 13 0 0 1 2 2.23 13 13 0 0 1 1.18 2.16l.54 1.25-15.98 6.07a6 6 0 0 0 5.75 3.31 7 7 0 0 0 5.85-3.04l4 2.5a13 13 0 0 1-3.84 3.35 11.6 11.6 0 0 1-6.01 1.54m-6.67-11.3 10.63-4.07a3.5 3.5 0 0 0-1.66-1.68 6 6 0 0 0-2.74-.64 6.4 6.4 0 0 0-4.3 1.75 5.6 5.6 0 0 0-1.93 4.64m44.19 11.3a17.2 17.2 0 0 1-11.95-4.47 14.6 14.6 0 0 1-4.78-11.06 14.6 14.6 0 0 1 4.78-11.06 17.2 17.2 0 0 1 11.95-4.48 15.5 15.5 0 0 1 11.84 4.87l-2.87 2.58a11.3 11.3 0 0 0-8.95-3.78 12.8 12.8 0 0 0-8.89 3.27 11 11 0 0 0-3.61 8.6 11 11 0 0 0 3.61 8.58 12.8 12.8 0 0 0 8.89 3.28 13.2 13.2 0 0 0 9.98-4.3l2.88 2.64a16 16 0 0 1-5.53 3.9 18 18 0 0 1-7.35 1.43m20.61-.66h-4.14V10.79h4.14Zm6.75-17.91a12.26 12.26 0 0 1 16.29 0 10.3 10.3 0 0 1 3.2 7.74 10.3 10.3 0 0 1-3.2 7.74 12.26 12.26 0 0 1-16.3 0 10.3 10.3 0 0 1-3.19-7.74 10.3 10.3 0 0 1 3.2-7.74m3.07 13.08a7.4 7.4 0 0 0 10.12 0 7 7 0 0 0 2.14-5.34 7 7 0 0 0-2.14-5.35 7.4 7.4 0 0 0-10.12 0 7 7 0 0 0-2.14 5.35 7 7 0 0 0 2.16 5.32Zm39.31 4.83h-3.99v-2.82h-.12a7.5 7.5 0 0 1-2.91 2.54 9 9 0 0 1-4.1 1.02 8 8 0 0 1-6.26-2.32 8.8 8.8 0 0 1-2.14-6.23V20.2h4.13v11.84q0 5.7 5.45 5.7a5.2 5.2 0 0 0 4.2-1.85 6.6 6.6 0 0 0 1.61-4.4V20.2h4.14Zm14.05.66a10 10 0 0 1-7.4-3.11 10.6 10.6 0 0 1-3.1-7.73 10.6 10.6 0 0 1 3.1-7.72 10.5 10.5 0 0 1 11.9-2.12 7.5 7.5 0 0 1 3 2.49h.19l-.18-2.82v-9.42h4.13v29.77h-4v-2.82h-.17a7.5 7.5 0 0 1-3 2.49 10 10 0 0 1-4.48 1Zm.67-3.48a7 7 0 0 0 4.97-2 7 7 0 0 0 2-5.36 7 7 0 0 0-2-5.36 7 7 0 0 0-11.97 5.35 7 7 0 0 0 2 5.34 7 7 0 0 0 5 2.03"/></g><path fill="#417da5" d="m39.72 948.06 20.24-3.31.19-.04-10.41-11.43a1706 1706 0 0 1-10.42-11.49c0-.05 10.75-27.38 10.81-27.48.02-.03 7.34 11.63 17.74 28.27l17.85 28.54.13.21H19.67zm126.9-2.77q-7.57-.45-8.75-7.9c-.2-1.32-.2-1.35-.23-9.9l-.02-8.3h4.46l.02 8.02c.02 7.22.03 8.07.1 8.57a7.3 7.3 0 0 0 1.94 4.45 5.7 5.7 0 0 0 3.12 1.5 13 13 0 0 0 3 0 7 7 0 0 0 3.39-1.7 8 8 0 0 0 2.28-4.04l.14-.54.01-8.08.02-8.08h4.55v25.4h-4.5v-2.03a14 14 0 0 0-.06-2 2 2 0 0 0-.26.37 9 9 0 0 1-3.48 3.22 10.5 10.5 0 0 1-5.73 1.03Zm51.12-.02a12.5 12.5 0 0 1-5.18-1.56q-4.84-2.78-5.69-9.05a20 20 0 0 1-.06-4.62 14.4 14.4 0 0 1 3.2-7.36 16 16 0 0 1 1.93-1.78 12.5 12.5 0 0 1 4.92-2.17 17 17 0 0 1 4-.22 10.8 10.8 0 0 1 7.07 3.36 12.2 12.2 0 0 1 2.86 7.97c.01.52.02 1.44 0 2.04l-.02 1.08h-9.76l-9.75.02v.4a9 9 0 0 0 .88 3.8 8 8 0 0 0 1.97 2.69 9 9 0 0 0 4.95 1.93 21 21 0 0 0 3.23-.12 14 14 0 0 0 6.1-2.32l.43-.29a7 7 0 0 1 .06 1.88v1.9l-.46.27a17 17 0 0 1-6.54 2.1 41 41 0 0 1-4.13.05Zm8.5-16.13a7.8 7.8 0 0 0-2.26-5.5 6.4 6.4 0 0 0-3.45-1.54 11 11 0 0 0-2.67.07 7 7 0 0 0-3.65 1.8 9 9 0 0 0-2.41 3.57 11 11 0 0 0-.47 1.75l-.03.21h14.94ZM93.88 944.65l7.37-17.86 7.34-17.8h4.72l.2.46c.6 1.42 14.7 35.2 14.7 35.23s-1.13.02-2.51.02h-2.51l-2.03-5-2.04-4.99h-16.37l-.07.17-1.93 5-1.86 4.82h-2.51a15 15 0 0 1-2.5-.06m23.75-13.75-3.04-7.6c-3.13-7.81-3.3-8.28-3.55-9.54q-.16-.87-.25-.06a12 12 0 0 1-.42 1.71l-3.13 7.93-2.98 7.54a786 786 0 0 0 13.37.02m12.1 13.15v-.65l8.15-10.35 8.15-10.34-7.38-.02-7.38-.03-.01-1.73-.02-1.73h21.35v1.18l-8.15 10.4c-4.48 5.72-8.15 10.4-8.15 10.42s3.62.02 8.05.02h8.06v3.48h-22.68Zm59.82.62c-.02-.02-.03-5.75-.03-12.75V919.2h4.45v2.62c0 1.44.02 2.62.04 2.62a2 2 0 0 0 .25-.52 9 9 0 0 1 2.49-3.54 6.7 6.7 0 0 1 3.52-1.62 8 8 0 0 1 1.46-.05 7 7 0 0 1 2.05.27l.18.05v4.27l-.52-.24a6 6 0 0 0-2.95-.55 6 6 0 0 0-1.77.32 5.5 5.5 0 0 0-2.8 2.12 12 12 0 0 0-1.87 4.94c-.04.3-.06 2.77-.07 7.62v7.18h-2.2c-1.21 0-2.22-.01-2.24-.03ZM0 944.56s4.9-7.87 10.9-17.46l10.9-17.44 12.72-9.84 12.74-9.86a2 2 0 0 1-.2.48l-13.8 27.31-13.55 26.83H9.85c-5.42.01-9.85 0-9.85-.01Zm0-294.38v-3.8h5.78V616H0v-3.81h16.51v3.8h-5.78v30.38h5.78v3.8Zm25.54-38h16.92c6.78 0 10.97 3.87 10.97 9.8 0 5.66-3.95 7.68-6.66 8.06v.33a8.6 8.6 0 0 1 8.08 8.8c0 6.27-4.55 11-10.62 11h-18.7Zm4.95 16.44h11.38c3.9 0 6.25-1.9 6.25-5.28v-1.84c0-3.37-2.36-5.28-6.25-5.28H30.5Zm0 17.53h12.2c4.25 0 6.85-2.07 6.85-5.88v-1.85c0-3.81-2.6-5.88-6.84-5.88H30.49Zm65.58-27.98h-.3l-3.48 6.37-9.84 16.55-9.8-16.55-3.47-6.31h-.3v31.95h-4.84v-38h6.5l11.79 20.47h.24l11.85-20.45h6.49v38h-4.84Zm24.83 13.29c0-12.85 7.13-19.93 18.22-19.93 7.55 0 12.39 2.83 15.4 8.93l-7.73 3.7c-1.06-3.16-3.25-5.28-7.67-5.28-5.25 0-8.73 3.27-8.73 9.25v6.1c0 6 3.48 9.26 8.73 9.26a8.4 8.4 0 0 0 8.2-5.66l7.31 3.92c-3.06 5.77-7.96 9.09-15.5 9.09-11.1 0-18.23-6.54-18.23-19.38m48.18 18.72c-5.96 0-8.67-2.77-8.67-7.84V609.9h8.73v34.02h3.9v6.26Zm7.25-14.32c0-9.2 5.43-14.91 14.51-14.91s14.5 5.72 14.5 14.9-5.42 14.98-14.5 14.98-14.5-5.77-14.5-14.97m19.94 2.94v-5.82c0-3.6-2-5.66-5.43-5.66s-5.42 2.07-5.42 5.66v5.82c0 3.6 2 5.67 5.42 5.67s5.43-2.07 5.43-5.67m33.55 6.6h-.3c-1.05 2.88-3.6 5.43-8.66 5.43-6.31 0-9.67-4.08-9.67-11.26V621.6h8.72v17.26c0 3.48 1.24 5.44 4.42 5.44 2.72 0 5.49-1.42 5.49-4.14V621.6h8.73v28.58h-8.73Zm35.86 0h-.3c-.88 3.1-4.3 5.43-8.31 5.43-7.85 0-11.91-5.28-11.91-14.97s4.06-14.91 11.9-14.91c4.02 0 7.44 2.29 8.32 5.44h.3v-16.5h8.73v40.29h-8.73Zm0-5.3v-8.43c0-2.61-2.42-4.2-5.72-4.2a5.56 5.56 0 0 0-5.72 5.95v4.95a5.56 5.56 0 0 0 5.72 5.93c3.3 0 5.72-1.58 5.72-4.2M108.31 342.42h16.51l-8.72-13-16.03 23.48h-7.3l19.5-28.17a4.88 4.88 0 0 1 7.6-.05l19.55 28.22h-7.3l-3.43-5.25H112l-3.64-5.23m75.76 5.23v-24.47h-6.2v26.88a2.7 2.7 0 0 0 .92 2 3.3 3.3 0 0 0 2.25.87h28.17l3.67-5.25h-28.85m-102.42-4.4c6.01 0 10.89-4.5 10.89-10.05s-4.88-10.05-10.89-10.05H54.57v29.72h6.18v-24.46h20.52a5 5 0 0 1 5.21 4.81 5 5 0 0 1-5.2 4.81H63.81L82.3 352.9h8.98l-12.42-9.62zm-65.13 9.62h18.7c8.73-.2 15.69-6.8 15.69-14.85s-6.96-14.65-15.68-14.86H16.52a16.4 16.4 0 0 0-14.3 7.31 13.9 13.9 0 0 0 0 15.08 16.4 16.4 0 0 0 14.3 7.32m18.28-5.23H16.93c-5.62-.17-10.09-4.42-10.09-9.62s4.47-9.44 10.09-9.61H34.8a10.7 10.7 0 0 1 9.3 4.72 9 9 0 0 1 0 9.8 10.7 10.7 0 0 1-9.3 4.71m117.54 5.23h19.1l3.62-5.23h-22.3a10.7 10.7 0 0 1-9.3-4.72 9 9 0 0 1 0-9.8 10.7 10.7 0 0 1 9.3-4.71h18.15l3.66-5.25h-22.23a16.4 16.4 0 0 0-14.29 7.31 13.9 13.9 0 0 0 0 15.08 16.4 16.4 0 0 0 14.3 7.32m75.7-5.23a10.3 10.3 0 0 1-10.04-7h26.46l3.64-5.24H218a10.3 10.3 0 0 1 10.03-7h18.16l3.63-5.25h-22.21c-8.73.2-15.69 6.8-15.69 14.85s6.96 14.65 15.69 14.86h19.1l3.63-5.23h-22.32m-12.06-152.59a13 13 0 0 0 5.62-2.3 6.7 6.7 0 0 0 2.08-5.47 8.3 8.3 0 0 0-1.41-4.65 8.2 8.2 0 0 0-6.55-3.66h-1.35l-3.17-.1h-14.32c-.87 0-1.24.34-1.24 1.16v23.15c0 .8.36 1.15 1.24 1.15h3.72c.87 0 1.25-.34 1.25-1.15v-7.67h4.55a4.5 4.5 0 0 1 2.7 1.04l7.21 6.7a4 4 0 0 0 2.49 1.06h5.54c.87 0 1.08-.47.47-1.05Zm-.94-4.92H201.8v-5.85h13.22a2.5 2.5 0 0 1 2.32 2.46v.9a2.5 2.5 0 0 1-2.32 2.47Zm-25.18 8.81h-20.5v-4.78h16.36c.87 0 1.24-.33 1.24-1.15v-2.78c0-.8-.36-1.14-1.24-1.14h-16.38v-4.77h20.52c.87 0 1.24-.33 1.24-1.14v-3.15c0-.8-.36-1.15-1.24-1.15h-25.58c-.87 0-1.24.33-1.24 1.15v23.18c0 .8.35 1.14 1.24 1.14h25.58c.87 0 1.24-.33 1.24-1.14v-3.13c0-.8-.4-1.13-1.24-1.13m-31.35-11.72a8 8 0 0 0-1.4-4.58 8.3 8.3 0 0 0-6.66-3.77h-18.8c-.89 0-1.25.33-1.25 1.15v23.15c0 .8.36 1.15 1.24 1.15h4.05c.87 0 1.24-.33 1.24-1.15v-18.88h10.9c2.31 0 4.57 1.42 4.57 3.56v15.35c0 .8.36 1.14 1.24 1.14h3.66c.88 0 1.24-.34 1.24-1.15Zm-33.83 11.56h-17.68l17.72-14.37a3 3 0 0 0 1.24-2.1v-2.3c0-.8-.37-1.14-1.24-1.14H99.05c-.87 0-1.24.33-1.24 1.15v3.17c0 .8.36 1.14 1.24 1.14h16.44L99 198.64a3 3 0 0 0-1.24 2.1v2.5c0 .8.36 1.14 1.24 1.14h25.63c.86 0 1.24-.33 1.24-1.14v-3.3c.02-.8-.34-1.12-1.2-1.12M92.05 178.9h-25.6c-.89 0-1.25.32-1.25 1.15v3.15c0 .8.35 1.14 1.24 1.14h9.66v18.88c0 .8.36 1.14 1.24 1.14h4.1c.86 0 1.23-.34 1.23-1.15v-18.87h9.4c.87 0 1.24-.33 1.24-1.14v-3.15c-.03-.78-.39-1.16-1.26-1.16m-32.6 20.08H38.97v-4.78h16.37c.87 0 1.24-.33 1.24-1.15v-2.78c0-.8-.35-1.14-1.24-1.14H38.97v-4.78h20.48c.86 0 1.24-.33 1.24-1.14v-3.15c0-.8-.36-1.15-1.24-1.15H33.9c-.87 0-1.24.33-1.24 1.15v23.18c0 .8.36 1.14 1.24 1.14h25.54c.86 0 1.24-.33 1.24-1.14v-3.13c-.02-.8-.37-1.13-1.24-1.13m-32.6-20.07h-3.86c-.87 0-1.24.33-1.24 1.15v9H6.37v-9c0-.81-.37-1.16-1.25-1.16H1.24c-.88 0-1.24.34-1.24 1.16v23.19c0 .8.36 1.14 1.24 1.14h3.88c.87 0 1.24-.32 1.24-1.14v-9.16h15.4v9.16c0 .8.35 1.14 1.23 1.14h3.86c.87 0 1.24-.33 1.24-1.14v-23.2c-.02-.77-.38-1.14-1.25-1.14"/><path fill="#25ad25" d="M70.18 18.38C68.92 7.92 59.34 0 47.93 0S26.95 7.92 25.7 18.38C13.9 19.58 5.16 29.1 5.81 40.05s10.47 19.52 22.35 19.52h19.77c6.9 0 12.5-5.16 12.5-11.53s-5.6-11.53-12.5-11.53a7.2 7.2 0 0 1-7.04-5 6.5 6.5 0 0 1 3.42-7.57 7.75 7.75 0 0 1 8.8 1.1 2.76 2.76 0 0 0 3.68 0 2.27 2.27 0 0 0 0-3.39 13.3 13.3 0 0 0-15.07-1.86 11.2 11.2 0 0 0-5.84 12.97 12.4 12.4 0 0 0 12.06 8.55 7.03 7.03 0 0 1 7.3 6.73 7.03 7.03 0 0 1-7.3 6.73H28.16c-9.5 0-17.18-7.1-17.18-15.86s7.69-15.85 17.17-15.85a2.5 2.5 0 0 0 2.6-2.4c0-8.76 7.7-15.86 17.18-15.86s17.18 7.1 17.18 15.86a2.3 2.3 0 0 0 .77 1.7 2.7 2.7 0 0 0 1.84.7c9.49 0 17.18 7.1 17.18 15.85s-7.7 15.86-17.18 15.86a2.4 2.4 0 1 0 0 4.8c11.88-.01 21.68-8.58 22.33-19.53S81.98 19.6 70.18 18.38M6.41 77.99c-.47-.17-.9-.3-1.5-.5-1.1-.32-2.18-.7-2.18-1.54s.7-1.28 1.79-1.28a4.3 4.3 0 0 1 2.82 1.11l.94-1.28a5 5 0 0 0-3.8-1.35C2.49 73.16.7 74.2.7 76.11a2.7 2.7 0 0 0 1.77 2.47 9 9 0 0 0 1.52.54c.75.24 2.52.58 2.52 1.71s-1.11 1.48-2.14 1.48a4.7 4.7 0 0 1-3.3-1.48L0 82.04a5.5 5.5 0 0 0 4.35 1.85 5 5 0 0 0 3.1-.92 2.8 2.8 0 0 0 1.15-2.34 2.5 2.5 0 0 0-.9-1.9 4 4 0 0 0-1.29-.74m8.17-4.83a9 9 0 0 0-4.18 1.04l.68 1.39a7 7 0 0 1 3.36-.9c1.62 0 2.77.79 2.77 2.35v.4l-2.98.12c-2.6.1-4.37 1.12-4.37 3.14s1.78 3.19 3.85 3.19a4.7 4.7 0 0 0 3.55-1.54l.02 1.3h2.18v-5.99a4 4 0 0 0-1.2-3.34 5 5 0 0 0-3.68-1.16m2.65 7.76a3.6 3.6 0 0 1-2.84 1.5c-1.45 0-2.3-.8-2.3-1.78s.73-1.7 2.54-1.78l2.6-.15Zm15.32-7.76c-3.1 0-5.66 2.08-5.66 5.33s2.28 5.4 5.59 5.4a7 7 0 0 0 4.9-1.63l-.94-1.2a6.5 6.5 0 0 1-3.68 1.2 3.3 3.3 0 0 1-3.6-3.27h8.6a8 8 0 0 0 .07-.91c0-2.89-2.18-4.92-5.28-4.92m-3.36 4.44a3.16 3.16 0 0 1 3.3-2.95 3.1 3.1 0 0 1 3.2 2.95Zm15.86.39c-.47-.17-.9-.3-1.5-.5-1.1-.32-2.18-.7-2.18-1.54s.7-1.28 1.78-1.28a4.3 4.3 0 0 1 2.82 1.11l.94-1.28a5 5 0 0 0-3.8-1.35c-1.97 0-3.76 1.04-3.76 2.95a2.7 2.7 0 0 0 1.76 2.48 9 9 0 0 0 1.53.54c.75.24 2.52.58 2.52 1.71s-1.1 1.47-2.14 1.47a4.7 4.7 0 0 1-3.3-1.47l-1.07 1.21a5.5 5.5 0 0 0 4.34 1.85 5 5 0 0 0 3.1-.92 2.8 2.8 0 0 0 1.15-2.34 2.5 2.5 0 0 0-.9-1.9 4 4 0 0 0-1.29-.74m9.62-4.83a4.9 4.9 0 0 0-3.96 1.82h-.05v-1.62H48.5v14.22h2.26v-5.56l.02.02a4.4 4.4 0 0 0 3.85 1.85 5.2 5.2 0 0 0 5.43-5.4 5.1 5.1 0 0 0-5.39-5.33m-.47 8.95a3.63 3.63 0 1 1 3.55-3.64 3.4 3.4 0 0 1-3.55 3.64m15-8.76h2.25v10.3H69.2zm9.86-.19a3.8 3.8 0 0 0-3.4 1.82h-.08l.03-1.63h-2.26v10.3h2.25v-5.18c0-1.97.78-3.6 2.87-3.6 2 0 2.32 1.3 2.32 3.04v5.74h2.26v-6.1c0-2.46-.82-4.4-4-4.4m14.58.22.03 1.62h-.07a4.6 4.6 0 0 0-3.9-1.82 5.19 5.19 0 1 0 0 10.36 4.6 4.6 0 0 0 3.9-1.84h.05v.4a4.4 4.4 0 0 1-.85 2.9 4 4 0 0 1-3.06 1.12 7.5 7.5 0 0 1-4-1.3l-1.05 1.45a9 9 0 0 0 4.98 1.54 6.1 6.1 0 0 0 4.98-1.97c.82-.94 1.22-2.17 1.22-4.45v-8.01Zm-3.47 8.46a3.5 3.5 0 1 1 3.55-3.5 3.32 3.32 0 0 1-3.55 3.5M22.1 69.58a4 4 0 0 0-.75 2.75v11.32h2.23v-8.61h2.66v-1.66H23.6v-1.15c0-1.17.24-2.2 1.72-2.2a5 5 0 0 1 .94.12v-1.57a8 8 0 0 0-1.46-.13 3.5 3.5 0 0 0-2.69 1.13m41.51 5.35h-.07l.02-1.58h-2.26v10.3h2.26v-5.14a4.3 4.3 0 0 1 .68-2.6 2.4 2.4 0 0 1 1.83-.86 3 3 0 0 1 1.22.21v-2a4 4 0 0 0-.94-.1 2.9 2.9 0 0 0-2.74 1.77"/><ellipse cx="1.467" cy="1.354" fill="#25ad25" rx="1.467" ry="1.354" transform="translate(68.847 68.452)"/><g transform="translate(0 461.05)"><path fill="#417da5" d="M23.67 43.69v-8.47c9.72 0 17.26-8.9 13.53-18.33A13.3 13.3 0 0 0 29 9.36C18.8 5.94 9.15 12.88 9.15 21.84H0C0 7.54 14.98-3.6 31.21 1.08a22.1 22.1 0 0 1 14.95 13.8c5.07 14.99-7 28.81-22.49 28.81"/><path fill="#417da5" fill-rule="evenodd" d="M23.7 35.27h-9.15v-8.45h9.15Zm-9.16 6.46h-7v-6.46h7Zm-7-6.46H1.66v-5.43h5.88Z"/><path fill="#417da5" d="M85.66 11.05a20 20 0 0 0-11.03-2.86h-9.41v27.6h9.48a19 19 0 0 0 11.03-3.03 11 11 0 0 0 3.83-4.4 15 15 0 0 0 1.34-6.52 15 15 0 0 0-1.34-6.45 10.3 10.3 0 0 0-3.9-4.35m-14.93 1.8h2.96a16 16 0 0 1 8.07 1.8q3.43 1.98 3.43 7.2c0 3.6-1.14 6.15-3.43 7.52a15.5 15.5 0 0 1-8 1.8h-3.03Zm26.69-5.02a3.5 3.5 0 0 0-2.35.87 2.8 2.8 0 0 0-.94 2.1 3 3 0 0 0 .94 2.18 3.4 3.4 0 0 0 2.36.86 3.6 3.6 0 0 0 2.35-.87 3 3 0 0 0 .94-2.17 2.8 2.8 0 0 0-.94-2.1 3.6 3.6 0 0 0-2.35-.87m-2.69 8.5h5.3V35.8h-5.3zm24.61 1.62a8.4 8.4 0 0 0-5.32-2.11 10 10 0 0 0-7.26 2.8 9.4 9.4 0 0 0-2.89 7 9.5 9.5 0 0 0 2.83 6.96 10.2 10.2 0 0 0 7.26 2.72 8.6 8.6 0 0 0 5.24-1.55v.44a4.8 4.8 0 0 1-1.4 3.71 5.4 5.4 0 0 1-3.84 1.3c-2.42 0-3.97-.86-5.85-3.22l-3.63 3.23.06.12a13 13 0 0 0 3.57 2.92 11.4 11.4 0 0 0 5.9 1.44 10.6 10.6 0 0 0 7.6-2.68 9.3 9.3 0 0 0 2.83-7.08V16.27h-5.25v1.68Zm-1.43 11.54a4.7 4.7 0 0 1-3.63 1.43 5 5 0 0 1-3.63-1.43 5.2 5.2 0 0 1-1.33-3.78 5.6 5.6 0 0 1 1.34-3.85 4.6 4.6 0 0 1 3.63-1.44 5 5 0 0 1 3.63 1.43 5.4 5.4 0 0 1 1.43 3.86 5.3 5.3 0 0 1-1.42 3.78m11.16-13.15h5.3V35.8h-5.3zm2.69-8.51a3.5 3.5 0 0 0-2.37.88 2.8 2.8 0 0 0-.94 2.1 3 3 0 0 0 .94 2.17 3.4 3.4 0 0 0 2.36.87 3.6 3.6 0 0 0 2.35-.87 3 3 0 0 0 .94-2.17 2.8 2.8 0 0 0-.94-2.1 3.5 3.5 0 0 0-2.36-.87m14.27 3.22h-5.25v5.28h-3.02v4.46h3.03v8.07q0 3.82 1.6 5.4c1.09 1.06 3.04 1.55 5.72 1.55q1.33.01 2.56-.07h.27v-4.47l-1.82.07a3.4 3.4 0 0 1-2.48-.62 4 4 0 0 1-.61-2.6v-7.4h4.98v-4.45h-4.98Zm29.85-2.93h5.31v27.69h-5.3zm58.97 20.74a14 14 0 0 1-2.7 2.3 5.4 5.4 0 0 1-2.75.69 4.9 4.9 0 0 1-3.83-1.62 5.8 5.8 0 0 1-1.55-4.1 5.7 5.7 0 0 1 1.55-4.1 5 5 0 0 1 3.83-1.62 7.3 7.3 0 0 1 5.04 2.67l3.5-3.1a11.27 11.27 0 0 0-16.2-1.12 9.4 9.4 0 0 0-3.1 7.26 9.7 9.7 0 0 0 3.1 7.26 10.7 10.7 0 0 0 7.53 2.92 11 11 0 0 0 9.08-4.33Zm21.86-9.8a7.3 7.3 0 0 0-3.03-2.3 11 11 0 0 0-4.37-.88 9.3 9.3 0 0 0-7.2 2.98 10.7 10.7 0 0 0-2.69 7.32 9.8 9.8 0 0 0 2.9 7.26 10.6 10.6 0 0 0 7.66 2.8 11 11 0 0 0 8.74-3.98l.13-.11-3.5-3.1c-.33.37-.8.74-1.2 1.12a8 8 0 0 1-1.55 1.05 6 6 0 0 1-2.7.56 5.4 5.4 0 0 1-3.62-1.18 4.4 4.4 0 0 1-1.55-2.98h14.05l.07-1.8a13 13 0 0 0-.54-3.6 10 10 0 0 0-1.6-3.16m-11.64 4.59a4.6 4.6 0 0 1 1.41-2.3 4 4 0 0 1 2.76-1 4 4 0 0 1 2.96 1 3.6 3.6 0 0 1 1.07 2.3Zm32.01-5.83a10.6 10.6 0 0 0-6.6-1.94 12 12 0 0 0-4.9 1.06 8.5 8.5 0 0 0-3.63 3.1l.07.06 3.42 2.98a5.6 5.6 0 0 1 5.05-2.8 4.3 4.3 0 0 1 2.75.81 2.7 2.7 0 0 1 1.08 2.11v.93a15 15 0 0 0-3.9-.56 11 11 0 0 0-6.39 1.68 5.6 5.6 0 0 0-2.42 4.9 5.3 5.3 0 0 0 2.09 4.4 8.3 8.3 0 0 0 5.1 1.62 9.4 9.4 0 0 0 5.65-2.05v1.62h5.25V23.21a7.3 7.3 0 0 0-2.62-5.4m-9.42 10.56a5 5 0 0 1 2.56-.57 14 14 0 0 1 4.03.68v1.92a6.8 6.8 0 0 1-4.57 1.5 3.6 3.6 0 0 1-2.15-.56 1.7 1.7 0 0 1-.74-1.42 1.7 1.7 0 0 1 .87-1.56m32.28-10.17a8.2 8.2 0 0 0-6.19-2.3 7.6 7.6 0 0 0-5.11 1.67v-1.18h-5.18v19.43h5.31V25.07a5 5 0 0 1 1.15-3.48 4 4 0 0 1 3.16-1.24 3.5 3.5 0 0 1 2.75 1.12 4.4 4.4 0 0 1 1.01 3.05v11.3h5.32v-11.3a8.7 8.7 0 0 0-2.22-6.34m-130.71-.37a10.6 10.6 0 0 0-6.6-1.93 12 12 0 0 0-4.9 1.06 8.5 8.5 0 0 0-3.63 3.1l.07.06 3.42 2.98a5.6 5.6 0 0 1 5.05-2.8 4.3 4.3 0 0 1 2.75.81 2.7 2.7 0 0 1 1.08 2.11v.93a15 15 0 0 0-3.9-.56 11 11 0 0 0-6.39 1.68 5.6 5.6 0 0 0-2.42 4.9 5.3 5.3 0 0 0 2.09 4.4 8.3 8.3 0 0 0 5.1 1.62 9.4 9.4 0 0 0 5.65-2.05v1.62h5.25V23.21a7.3 7.3 0 0 0-2.62-5.4m-9.42 10.56a5 5 0 0 1 2.56-.56 14 14 0 0 1 4.03.68v1.92a6.8 6.8 0 0 1-4.57 1.5 3.6 3.6 0 0 1-2.15-.57 1.7 1.7 0 0 1-.74-1.42 1.7 1.7 0 0 1 .87-1.56m40.68 7.88c-8.54 0-15.46-6.4-15.46-14.28S191.96 7.7 200.5 7.7s15.47 6.4 15.47 14.27-6.93 14.28-15.47 14.28m0-23.52c-5.51 0-10.02 4.15-10.02 9.23s4.5 9.25 10.02 9.25 10.02-4.16 10.02-9.25-4.5-9.24-10.02-9.24"/></g></g><g transform="translate(-1 -10)"><path fill="#195f8c" d="M3138.56 1732.04v-62.98h6.7v62.98Zm2.41-7.24a38 38 0 0 1-10.79-1.5 25 25 0 0 1-8.3-3.92l3.68-8.18a27 27 0 0 0 7.14 3.52 26 26 0 0 0 8.34 1.37 17 17 0 0 0 5.2-.63 6 6 0 0 0 2.9-1.78 4 4 0 0 0 .95-2.61 3.5 3.5 0 0 0-1.48-2.98 12 12 0 0 0-3.88-1.81q-2.42-.7-5.33-1.34t-5.83-1.58a25 25 0 0 1-5.32-2.4 12 12 0 0 1-3.92-3.9 11.5 11.5 0 0 1-1.52-6.16 13 13 0 0 1 2.18-7.34 15 15 0 0 1 6.57-5.29 27 27 0 0 1 11.02-1.97 37 37 0 0 1 8.7 1.04 25 25 0 0 1 7.58 3.11l-3.35 8.24a29 29 0 0 0-6.57-2.78 24 24 0 0 0-6.43-.9 15 15 0 0 0-5.16.74 6 6 0 0 0-2.88 1.9 4.4 4.4 0 0 0-.87 2.72 3.5 3.5 0 0 0 1.48 2.92 12 12 0 0 0 3.88 1.77q2.41.67 5.33 1.34t5.83 1.54a23 23 0 0 1 5.32 2.35 12 12 0 0 1 3.92 3.88 11.3 11.3 0 0 1 1.51 6.1 12.7 12.7 0 0 1-2.21 7.23 15.5 15.5 0 0 1-6.6 5.3 27 27 0 0 1-11.09 2m24.52-10.65v-7.3l22.11-29.75h11.39l-21.64 29.75-5.3-1.54h36.93v8.84Zm25.26 9.85v-9.85l.34-8.84v-8.78h10.25V1724Zm55.61.8a37 37 0 0 1-9.71-1.3 25 25 0 0 1-8.18-3.72l4.22-8.3a22 22 0 0 0 6.23 3.07 23 23 0 0 0 7.17 1.14 11 11 0 0 0 6.44-1.6 5.1 5.1 0 0 0 2.34-4.43 5 5 0 0 0-2.08-4.22q-2.07-1.54-6.7-1.54h-4.95v-7.17l13.06-14.8 1.2 3.88h-24.58v-8.71h32.83v7.04l-13 14.8-5.5-3.15h3.15q8.64 0 13.07 3.89a12.7 12.7 0 0 1 4.42 9.98 14 14 0 0 1-2.08 7.4 15 15 0 0 1-6.36 5.6 24.6 24.6 0 0 1-10.99 2.14m44.56 0a19 19 0 0 1-10.32-2.84 19.4 19.4 0 0 1-7.17-8.28 30 30 0 0 1-2.61-13.13 30 30 0 0 1 2.61-13.13 19.4 19.4 0 0 1 7.17-8.27 19 19 0 0 1 10.32-2.85 19 19 0 0 1 10.35 2.85 19.4 19.4 0 0 1 7.13 8.27 30 30 0 0 1 2.62 13.13 30 30 0 0 1-2.62 13.13 19.4 19.4 0 0 1-7.13 8.28 19 19 0 0 1-10.35 2.84m0-9.18a7.7 7.7 0 0 0 4.79-1.54 10 10 0 0 0 3.21-4.9 27 27 0 0 0 1.18-8.63 27 27 0 0 0-1.17-8.64 10 10 0 0 0-3.22-4.9 7.7 7.7 0 0 0-4.79-1.54 7.6 7.6 0 0 0-4.72 1.55 10 10 0 0 0-3.22 4.89 27 27 0 0 0-1.18 8.64 27 27 0 0 0 1.17 8.64 10 10 0 0 0 3.22 4.9 7.6 7.6 0 0 0 4.73 1.54Zm45.49 9.18a19 19 0 0 1-10.32-2.85 19.4 19.4 0 0 1-7.17-8.27 30 30 0 0 1-2.61-13.13 30 30 0 0 1 2.61-13.13 19.4 19.4 0 0 1 7.17-8.28 19 19 0 0 1 10.32-2.84 19 19 0 0 1 10.35 2.85 19.4 19.4 0 0 1 7.14 8.27 30 30 0 0 1 2.61 13.13 30 30 0 0 1-2.61 13.13 19.4 19.4 0 0 1-7.13 8.28 19 19 0 0 1-10.36 2.84m0-9.18a7.7 7.7 0 0 0 4.79-1.54 10 10 0 0 0 3.22-4.9 27 27 0 0 0 1.17-8.63 27 27 0 0 0-1.17-8.65 10 10 0 0 0-3.22-4.89 7.7 7.7 0 0 0-4.79-1.54 7.6 7.6 0 0 0-4.72 1.54 10 10 0 0 0-3.22 4.9 27 27 0 0 0-1.17 8.64 27 27 0 0 0 1.17 8.64 10 10 0 0 0 3.22 4.9 7.6 7.6 0 0 0 4.72 1.54Zm-983.85-424.58v-62.98h6.7v62.98Zm2.41-7.24a38 38 0 0 1-10.79-1.5 25 25 0 0 1-8.3-3.92l3.68-8.18a27 27 0 0 0 7.14 3.52 26 26 0 0 0 8.34 1.37 17 17 0 0 0 5.2-.63 6 6 0 0 0 2.9-1.78 4 4 0 0 0 .95-2.61 3.5 3.5 0 0 0-1.48-2.98 12 12 0 0 0-3.88-1.81q-2.42-.7-5.33-1.34t-5.83-1.58a25 25 0 0 1-5.32-2.4 12 12 0 0 1-3.92-3.9 11.5 11.5 0 0 1-1.52-6.16 13 13 0 0 1 2.18-7.34 15 15 0 0 1 6.57-5.29 27 27 0 0 1 11.02-1.97 37 37 0 0 1 8.7 1.04 25 25 0 0 1 7.58 3.11l-3.35 8.24a29 29 0 0 0-6.57-2.78 24 24 0 0 0-6.43-.9 15 15 0 0 0-5.16.74 6 6 0 0 0-2.88 1.9 4.4 4.4 0 0 0-.87 2.72 3.5 3.5 0 0 0 1.48 2.92 12 12 0 0 0 3.88 1.77q2.41.67 5.33 1.34t5.83 1.54a23 23 0 0 1 5.32 2.35 12 12 0 0 1 3.92 3.88 11.3 11.3 0 0 1 1.51 6.1 12.7 12.7 0 0 1-2.21 7.23 15.5 15.5 0 0 1-6.6 5.3 27 27 0 0 1-11.09 2m39.33 0a37 37 0 0 1-9.72-1.3 25 25 0 0 1-8.17-3.72l4.22-8.3a22 22 0 0 0 6.23 3.07 23 23 0 0 0 7.17 1.14 11 11 0 0 0 6.43-1.6 5.1 5.1 0 0 0 2.35-4.43 5 5 0 0 0-2.08-4.22q-2.08-1.54-6.7-1.54h-4.96v-7.17l13.07-14.8 1.2 3.88h-24.58v-8.71h32.83v7.04l-13 14.8-5.5-3.15h3.15q8.64 0 13.07 3.89a12.7 12.7 0 0 1 4.42 9.98 14 14 0 0 1-2.08 7.4 15 15 0 0 1-6.36 5.6 24.6 24.6 0 0 1-10.99 2.14m63.52 0a19 19 0 0 1-10.32-2.84 19.4 19.4 0 0 1-7.17-8.28 30 30 0 0 1-2.61-13.13 30 30 0 0 1 2.61-13.13 19.4 19.4 0 0 1 7.17-8.27 19 19 0 0 1 10.32-2.85 19 19 0 0 1 10.35 2.85 19.4 19.4 0 0 1 7.13 8.27 30 30 0 0 1 2.62 13.13 30 30 0 0 1-2.62 13.13 19.4 19.4 0 0 1-7.13 8.28 19 19 0 0 1-10.35 2.84m0-9.18a7.7 7.7 0 0 0 4.79-1.54 10 10 0 0 0 3.21-4.9 27 27 0 0 0 1.17-8.63 27 27 0 0 0-1.17-8.65 10 10 0 0 0-3.21-4.89 7.7 7.7 0 0 0-4.8-1.54 7.6 7.6 0 0 0-4.72 1.54 10 10 0 0 0-3.21 4.9 27 27 0 0 0-1.18 8.64 27 27 0 0 0 1.17 8.64 10 10 0 0 0 3.22 4.9 7.6 7.6 0 0 0 4.73 1.54Zm41.87-39.32a22 22 0 0 1 11.19 2.68 18 18 0 0 1 7.24 7.8 28.6 28.6 0 0 1 2.54 12.77 28.5 28.5 0 0 1-3.05 13.73 21 21 0 0 1-8.41 8.58 25.5 25.5 0 0 1-12.46 2.94 31 31 0 0 1-7.1-.8 19 19 0 0 1-5.9-2.41l4.02-7.97a12 12 0 0 0 4.16 1.84 21 21 0 0 0 4.62.5 12.8 12.8 0 0 0 9.62-3.69q3.58-3.68 3.58-10.92 0-1.2-.07-2.68a22 22 0 0 0-.33-2.95l2.95 2.82a12 12 0 0 1-3.22 4.39 14 14 0 0 1-4.82 2.68 20 20 0 0 1-6.17.9 18 18 0 0 1-8.14-1.81 14.7 14.7 0 0 1-5.83-5.1 13.6 13.6 0 0 1-2.18-7.7 14.4 14.4 0 0 1 2.38-8.3 15.7 15.7 0 0 1 6.43-5.4 21 21 0 0 1 8.95-1.9m.67 8.1a9 9 0 0 0-4.09.84 6.6 6.6 0 0 0-2.74 2.42 7 7 0 0 0-1 3.72 6.5 6.5 0 0 0 2.17 5.12 8.5 8.5 0 0 0 5.8 1.91 9.4 9.4 0 0 0 4.19-.9 7 7 0 0 0 2.85-2.51 6.7 6.7 0 0 0 1-3.62 6.7 6.7 0 0 0-.97-3.58 6.7 6.7 0 0 0-2.79-2.48 10 10 0 0 0-4.42-.92m45.63 40.4a19 19 0 0 1-10.32-2.84 19.4 19.4 0 0 1-7.17-8.28 30 30 0 0 1-2.61-13.13 30 30 0 0 1 2.61-13.13 19.4 19.4 0 0 1 7.17-8.28 19 19 0 0 1 10.32-2.84 19 19 0 0 1 10.35 2.85 19.4 19.4 0 0 1 7.13 8.27 30 30 0 0 1 2.62 13.13 30 30 0 0 1-2.62 13.14 19.4 19.4 0 0 1-7.13 8.27 19 19 0 0 1-10.35 2.84m0-9.18a7.7 7.7 0 0 0 4.79-1.54 10 10 0 0 0 3.21-4.9 27 27 0 0 0 1.18-8.63 27 27 0 0 0-1.18-8.65 10 10 0 0 0-3.21-4.89 7.7 7.7 0 0 0-4.8-1.54 7.6 7.6 0 0 0-4.72 1.54 10 10 0 0 0-3.21 4.9 27 27 0 0 0-1.17 8.64 27 27 0 0 0 1.17 8.64 10 10 0 0 0 3.21 4.89 7.6 7.6 0 0 0 4.73 1.55Zm127.57 310.42v-62.98h6.7v62.98Zm2.41-7.24a38 38 0 0 1-10.79-1.5 25 25 0 0 1-8.3-3.92l3.68-8.18a27 27 0 0 0 7.14 3.52 26 26 0 0 0 8.34 1.37 17 17 0 0 0 5.2-.63 6 6 0 0 0 2.9-1.78 4 4 0 0 0 .95-2.61 3.5 3.5 0 0 0-1.48-2.98 12 12 0 0 0-3.88-1.81q-2.42-.7-5.33-1.34t-5.83-1.58a25 25 0 0 1-5.32-2.4 12 12 0 0 1-3.92-3.9 11.5 11.5 0 0 1-1.52-6.16 13 13 0 0 1 2.18-7.34 15 15 0 0 1 6.57-5.29 27 27 0 0 1 11.02-1.97 37 37 0 0 1 8.7 1.04 25 25 0 0 1 7.58 3.11l-3.35 8.24a29 29 0 0 0-6.57-2.78 24 24 0 0 0-6.43-.9 15 15 0 0 0-5.16.74 6 6 0 0 0-2.88 1.9 4.4 4.4 0 0 0-.87 2.72 3.5 3.5 0 0 0 1.48 2.92 12 12 0 0 0 3.88 1.77q2.41.67 5.33 1.34t5.83 1.54a23 23 0 0 1 5.32 2.35 12 12 0 0 1 3.92 3.88 11.3 11.3 0 0 1 1.51 6.1 12.7 12.7 0 0 1-2.21 7.23 15.5 15.5 0 0 1-6.6 5.3 27 27 0 0 1-11.09 2m39.33 0a37 37 0 0 1-9.72-1.3 25 25 0 0 1-8.17-3.72l4.22-8.3a22 22 0 0 0 6.23 3.07 23 23 0 0 0 7.17 1.14 11 11 0 0 0 6.43-1.6 5.1 5.1 0 0 0 2.35-4.43 5 5 0 0 0-2.08-4.22q-2.08-1.54-6.7-1.54h-4.96v-7.17l13.07-14.8 1.2 3.88h-24.58v-8.71h32.83v7.04l-13 14.8-5.5-3.15h3.15q8.64 0 13.07 3.89a12.7 12.7 0 0 1 4.42 9.98 14 14 0 0 1-2.08 7.4 15 15 0 0 1-6.36 5.6 24.6 24.6 0 0 1-10.99 2.14m42.88-10.65v-7.3l22.11-29.75h11.39l-21.64 29.75-5.3-1.54h36.92v8.84Zm25.26 9.85v-9.85l.33-8.84v-8.78h10.25V1577Zm37.38.8a37 37 0 0 1-9.68-1.3 26 26 0 0 1-8.2-3.72l4.28-8.3a22 22 0 0 0 6.2 3.07 23 23 0 0 0 7.14 1.14 11 11 0 0 0 6.43-1.6 5.1 5.1 0 0 0 2.35-4.5 5.7 5.7 0 0 0-.94-3.2 6 6 0 0 0-3.32-2.15 24 24 0 0 0-6.67-.74h-11.99l2.41-26.4h28.61v8.71h-24.72l5.63-4.96-1.68 18.83-5.63-4.96h9.92a28 28 0 0 1 11.22 1.91 13 13 0 0 1 6.2 5.2 14.3 14.3 0 0 1 1.94 7.43 15 15 0 0 1-2.07 7.67 15 15 0 0 1-6.4 5.7 24.5 24.5 0 0 1-11.03 2.17m44.02 0a19 19 0 0 1-10.31-2.85 19.4 19.4 0 0 1-7.17-8.27 30 30 0 0 1-2.62-13.13 30 30 0 0 1 2.62-13.13 19.4 19.4 0 0 1 7.17-8.28 19 19 0 0 1 10.31-2.84 19 19 0 0 1 10.36 2.84 19.4 19.4 0 0 1 7.14 8.28 30 30 0 0 1 2.6 13.13 30 30 0 0 1-2.6 13.13 19.4 19.4 0 0 1-7.14 8.28 19 19 0 0 1-10.36 2.84m0-9.18a7.7 7.7 0 0 0 4.8-1.54 10 10 0 0 0 3.21-4.9 27 27 0 0 0 1.17-8.63 27 27 0 0 0-1.17-8.65 10 10 0 0 0-3.22-4.89 7.7 7.7 0 0 0-4.79-1.54 7.6 7.6 0 0 0-4.72 1.54 10 10 0 0 0-3.22 4.9 27 27 0 0 0-1.17 8.64 27 27 0 0 0 1.17 8.64 10 10 0 0 0 3.22 4.89 7.6 7.6 0 0 0 4.72 1.55Zm-262.28-130.58v-62.98h6.7v62.98Zm2.41-7.24a38 38 0 0 1-10.79-1.5 25 25 0 0 1-8.3-3.92l3.68-8.18a27 27 0 0 0 7.14 3.52 26 26 0 0 0 8.34 1.37 17 17 0 0 0 5.2-.63 6 6 0 0 0 2.9-1.78 4 4 0 0 0 .95-2.61 3.5 3.5 0 0 0-1.48-2.98 12 12 0 0 0-3.88-1.81q-2.42-.7-5.33-1.34t-5.83-1.58a25 25 0 0 1-5.32-2.4 12 12 0 0 1-3.92-3.9 11.5 11.5 0 0 1-1.52-6.16 13 13 0 0 1 2.18-7.34 15 15 0 0 1 6.57-5.29 27 27 0 0 1 11.02-1.97 37 37 0 0 1 8.7 1.04 25 25 0 0 1 7.58 3.11l-3.35 8.24a29 29 0 0 0-6.57-2.78 24 24 0 0 0-6.43-.9 15 15 0 0 0-5.16.74 6 6 0 0 0-2.88 1.9 4.4 4.4 0 0 0-.87 2.72 3.5 3.5 0 0 0 1.48 2.92 12 12 0 0 0 3.88 1.77q2.41.67 5.33 1.34t5.83 1.54a23 23 0 0 1 5.32 2.35 12 12 0 0 1 3.92 3.88 11.3 11.3 0 0 1 1.51 6.1 12.7 12.7 0 0 1-2.21 7.23 15.5 15.5 0 0 1-6.6 5.3 27 27 0 0 1-11.09 2m39.33 0a37 37 0 0 1-9.72-1.3 25 25 0 0 1-8.17-3.72l4.22-8.3a22 22 0 0 0 6.23 3.07 23 23 0 0 0 7.17 1.14 11 11 0 0 0 6.43-1.6 5.1 5.1 0 0 0 2.35-4.43 5 5 0 0 0-2.08-4.22q-2.08-1.54-6.7-1.54h-4.96v-7.17l13.07-14.8 1.2 3.88h-24.58v-8.71h32.83v7.04l-13 14.8-5.5-3.15h3.15q8.64 0 13.07 3.89a12.7 12.7 0 0 1 4.42 9.98 14 14 0 0 1-2.08 7.4 15 15 0 0 1-6.36 5.6 24.6 24.6 0 0 1-10.99 2.14m58.63 0a37 37 0 0 1-9.72-1.3 25 25 0 0 1-8.17-3.72l4.22-8.3a22 22 0 0 0 6.23 3.07 23 23 0 0 0 7.17 1.14 11 11 0 0 0 6.43-1.6 5.1 5.1 0 0 0 2.34-4.43 5 5 0 0 0-2.07-4.22q-2.08-1.54-6.7-1.54h-4.96v-7.17l13.07-14.8 1.2 3.88h-24.59v-8.71h32.83v7.04l-13 14.8-5.5-3.15h3.16q8.64 0 13.06 3.89a12.7 12.7 0 0 1 4.42 9.98 14 14 0 0 1-2.07 7.4 15 15 0 0 1-6.37 5.6 24.6 24.6 0 0 1-10.98 2.14m40.93-48.5a22 22 0 0 1 11.2 2.68 18 18 0 0 1 7.23 7.8 28.6 28.6 0 0 1 2.54 12.77 28.5 28.5 0 0 1-3.05 13.73 21 21 0 0 1-8.4 8.58 25.5 25.5 0 0 1-12.47 2.94 31 31 0 0 1-7.1-.8 19 19 0 0 1-5.9-2.41l4.02-7.97a12 12 0 0 0 4.16 1.84 21 21 0 0 0 4.62.5 12.8 12.8 0 0 0 9.62-3.69q3.58-3.68 3.58-10.92 0-1.2-.07-2.68a22 22 0 0 0-.33-2.95l2.95 2.82a12 12 0 0 1-3.22 4.39 14 14 0 0 1-4.82 2.68 20 20 0 0 1-6.17.9 18 18 0 0 1-8.14-1.81 14.7 14.7 0 0 1-5.83-5.1 13.6 13.6 0 0 1-2.18-7.7 14.4 14.4 0 0 1 2.38-8.3 15.7 15.7 0 0 1 6.44-5.4 21 21 0 0 1 8.94-1.9m.67 8.1a9 9 0 0 0-4.09.84 6.6 6.6 0 0 0-2.74 2.42 7 7 0 0 0-1 3.72 6.5 6.5 0 0 0 2.17 5.12 8.5 8.5 0 0 0 5.8 1.91 9.4 9.4 0 0 0 4.19-.9 7 7 0 0 0 2.85-2.51 6.7 6.7 0 0 0 1-3.62 6.7 6.7 0 0 0-.97-3.58 6.7 6.7 0 0 0-2.79-2.48 10 10 0 0 0-4.42-.92m24.86 39.6v-7.04l18.09-17.08a19 19 0 0 0 3.15-3.48 11 11 0 0 0 1.37-2.82 9 9 0 0 0 .37-2.34 5.2 5.2 0 0 0-1.91-4.32 9 9 0 0 0-5.6-1.51 13 13 0 0 0-5.46 1.14 10.6 10.6 0 0 0-4.25 3.55l-7.9-5.1a18.5 18.5 0 0 1 7.5-6.36 25 25 0 0 1 11.12-2.34 23 23 0 0 1 9.15 1.7 14 14 0 0 1 6.1 4.8 12.4 12.4 0 0 1 2.17 7.36 18 18 0 0 1-.57 4.52 15 15 0 0 1-2.27 4.73 36 36 0 0 1-5 5.56l-15 14.14-2.08-3.95h26.46v8.84Zm-763.83-286.96v-62.98h6.7v62.98Zm2.41-7.24a38 38 0 0 1-10.79-1.5 25 25 0 0 1-8.3-3.92l3.68-8.18a27 27 0 0 0 7.14 3.52 26 26 0 0 0 8.34 1.37 17 17 0 0 0 5.2-.63 6 6 0 0 0 2.9-1.78 4 4 0 0 0 .95-2.61 3.5 3.5 0 0 0-1.48-2.98 12 12 0 0 0-3.88-1.81q-2.41-.7-5.33-1.34t-5.83-1.58a25 25 0 0 1-5.32-2.4 12 12 0 0 1-3.92-3.9 11.5 11.5 0 0 1-1.52-6.16 13 13 0 0 1 2.18-7.34 15 15 0 0 1 6.57-5.29 27 27 0 0 1 11.02-1.97 37 37 0 0 1 8.7 1.04 25 25 0 0 1 7.58 3.11l-3.35 8.24a29 29 0 0 0-6.57-2.78 24 24 0 0 0-6.43-.9 15 15 0 0 0-5.16.74 6 6 0 0 0-2.88 1.9 4.4 4.4 0 0 0-.87 2.72 3.5 3.5 0 0 0 1.47 2.92 12 12 0 0 0 3.9 1.77q2.4.67 5.32 1.34t5.83 1.54a23 23 0 0 1 5.32 2.35 12 12 0 0 1 3.92 3.88 11.3 11.3 0 0 1 1.51 6.1 12.7 12.7 0 0 1-2.21 7.23 15.5 15.5 0 0 1-6.6 5.3 27 27 0 0 1-11.09 2m23.99-.8v-7.04l18.09-17.08a19 19 0 0 0 3.15-3.48 11 11 0 0 0 1.37-2.81 9 9 0 0 0 .37-2.35 5.2 5.2 0 0 0-1.9-4.32 9 9 0 0 0-5.6-1.5 13 13 0 0 0-5.46 1.13 10.6 10.6 0 0 0-4.26 3.55l-7.9-5.1a18.5 18.5 0 0 1 7.5-6.36 25 25 0 0 1 11.12-2.34 23 23 0 0 1 9.14 1.7 14 14 0 0 1 6.1 4.8 12.4 12.4 0 0 1 2.18 7.36 18 18 0 0 1-.57 4.52 15 15 0 0 1-2.28 4.73 36 36 0 0 1-4.99 5.56l-15 14.14-2.09-3.95h26.47v8.84Zm78.99.8a19 19 0 0 1-10.32-2.85 19.4 19.4 0 0 1-7.17-8.27 30 30 0 0 1-2.61-13.13 30 30 0 0 1 2.61-13.13 19.4 19.4 0 0 1 7.17-8.28 19 19 0 0 1 10.32-2.84 19 19 0 0 1 10.35 2.84 19.4 19.4 0 0 1 7.14 8.28 30 30 0 0 1 2.61 13.13 30 30 0 0 1-2.61 13.13 19.4 19.4 0 0 1-7.14 8.28 19 19 0 0 1-10.35 2.84m0-9.18a7.7 7.7 0 0 0 4.79-1.54 10 10 0 0 0 3.22-4.9 27 27 0 0 0 1.17-8.63 27 27 0 0 0-1.17-8.65 10 10 0 0 0-3.22-4.89 7.7 7.7 0 0 0-4.79-1.54 7.6 7.6 0 0 0-4.72 1.54 10 10 0 0 0-3.22 4.9 27 27 0 0 0-1.17 8.64 27 27 0 0 0 1.17 8.64 10 10 0 0 0 3.22 4.89 7.6 7.6 0 0 0 4.72 1.55Zm45.5 9.18a19 19 0 0 1-10.32-2.85 19.4 19.4 0 0 1-7.17-8.27 30 30 0 0 1-2.62-13.13 30 30 0 0 1 2.62-13.13 19.4 19.4 0 0 1 7.17-8.28 19 19 0 0 1 10.31-2.84 19 19 0 0 1 10.36 2.85 19.4 19.4 0 0 1 7.13 8.27 30 30 0 0 1 2.61 13.13 30 30 0 0 1-2.61 13.14 19.4 19.4 0 0 1-7.13 8.27 19 19 0 0 1-10.36 2.84m0-9.18a7.7 7.7 0 0 0 4.78-1.54 10 10 0 0 0 3.22-4.9 27 27 0 0 0 1.17-8.63 27 27 0 0 0-1.17-8.65 10 10 0 0 0-3.22-4.89 7.7 7.7 0 0 0-4.79-1.54 7.6 7.6 0 0 0-4.72 1.54 10 10 0 0 0-3.22 4.9 27 27 0 0 0-1.17 8.64 27 27 0 0 0 1.17 8.64 10 10 0 0 0 3.22 4.89 7.6 7.6 0 0 0 4.72 1.55Zm45.49 9.18a19 19 0 0 1-10.32-2.85 19.4 19.4 0 0 1-7.17-8.27 30 30 0 0 1-2.61-13.13 30 30 0 0 1 2.6-13.13 19.4 19.4 0 0 1 7.18-8.28 19 19 0 0 1 10.32-2.84 19 19 0 0 1 10.35 2.85 19.4 19.4 0 0 1 7.13 8.27 30 30 0 0 1 2.62 13.13 30 30 0 0 1-2.62 13.14 19.4 19.4 0 0 1-7.13 8.27 19 19 0 0 1-10.35 2.84m0-9.18a7.7 7.7 0 0 0 4.79-1.54 10 10 0 0 0 3.21-4.9 27 27 0 0 0 1.17-8.63 27 27 0 0 0-1.17-8.65 10 10 0 0 0-3.21-4.89 7.7 7.7 0 0 0-4.8-1.54 7.6 7.6 0 0 0-4.72 1.54 10 10 0 0 0-3.21 4.9 27 27 0 0 0-1.17 8.64 27 27 0 0 0 1.17 8.64 10 10 0 0 0 3.22 4.9 7.6 7.6 0 0 0 4.72 1.54Zm-835.37-130.58v-62.98h6.7v62.98Zm2.41-7.24a38 38 0 0 1-10.79-1.5 25 25 0 0 1-8.3-3.92l3.68-8.18a27 27 0 0 0 7.14 3.52 26 26 0 0 0 8.34 1.37 17 17 0 0 0 5.2-.63 6 6 0 0 0 2.9-1.78 4 4 0 0 0 .95-2.61 3.5 3.5 0 0 0-1.48-2.98 12 12 0 0 0-3.88-1.81q-2.41-.7-5.33-1.34t-5.83-1.58a25 25 0 0 1-5.32-2.4 12 12 0 0 1-3.92-3.9 11.5 11.5 0 0 1-1.52-6.16 13 13 0 0 1 2.18-7.34 15 15 0 0 1 6.57-5.29 27 27 0 0 1 11.02-1.97 37 37 0 0 1 8.7 1.04 25 25 0 0 1 7.58 3.11l-3.35 8.24a29 29 0 0 0-6.57-2.78 24 24 0 0 0-6.43-.9 15 15 0 0 0-5.16.74 6 6 0 0 0-2.88 1.9 4.4 4.4 0 0 0-.87 2.72 3.5 3.5 0 0 0 1.47 2.92 12 12 0 0 0 3.9 1.77q2.4.67 5.32 1.34t5.83 1.54a23 23 0 0 1 5.32 2.35 12 12 0 0 1 3.92 3.88 11.3 11.3 0 0 1 1.51 6.1 12.7 12.7 0 0 1-2.21 7.23 15.5 15.5 0 0 1-6.6 5.3 27 27 0 0 1-11.09 2m24.52-10.65v-7.3l22.11-29.75h11.39l-21.64 29.75-5.3-1.54h36.93v8.84Zm25.26 9.85v-9.85l.34-8.84v-8.78h10.25V988Zm41.54.8a19 19 0 0 1-10.32-2.85 19.4 19.4 0 0 1-7.17-8.27 30 30 0 0 1-2.6-13.13 30 30 0 0 1 2.6-13.13 19.4 19.4 0 0 1 7.17-8.28 19 19 0 0 1 10.32-2.84 19 19 0 0 1 10.35 2.85 19.4 19.4 0 0 1 7.14 8.27 30 30 0 0 1 2.61 13.13 30 30 0 0 1-2.61 13.14 19.4 19.4 0 0 1-7.14 8.27 19 19 0 0 1-10.35 2.84m0-9.18a7.7 7.7 0 0 0 4.8-1.54 10 10 0 0 0 3.2-4.9 27 27 0 0 0 1.18-8.63 27 27 0 0 0-1.17-8.65 10 10 0 0 0-3.22-4.89 7.7 7.7 0 0 0-4.79-1.54 7.6 7.6 0 0 0-4.72 1.54 10 10 0 0 0-3.22 4.9 27 27 0 0 0-1.17 8.64 27 27 0 0 0 1.17 8.64 10 10 0 0 0 3.22 4.89 7.6 7.6 0 0 0 4.72 1.54m45.5 9.18a19 19 0 0 1-10.32-2.85 19.4 19.4 0 0 1-7.17-8.27 30 30 0 0 1-2.61-13.13 30 30 0 0 1 2.61-13.13 19.4 19.4 0 0 1 7.17-8.28 19 19 0 0 1 10.32-2.84 19 19 0 0 1 10.35 2.85 19.4 19.4 0 0 1 7.13 8.27 30 30 0 0 1 2.62 13.13 30 30 0 0 1-2.62 13.14 19.4 19.4 0 0 1-7.13 8.27 19 19 0 0 1-10.36 2.84m0-9.18a7.7 7.7 0 0 0 4.79-1.54 10 10 0 0 0 3.21-4.9 27 27 0 0 0 1.17-8.63 27 27 0 0 0-1.17-8.65 10 10 0 0 0-3.22-4.89 7.7 7.7 0 0 0-4.78-1.54 7.6 7.6 0 0 0-4.73 1.54 10 10 0 0 0-3.21 4.9 27 27 0 0 0-1.18 8.64 27 27 0 0 0 1.18 8.64 10 10 0 0 0 3.21 4.89 7.6 7.6 0 0 0 4.73 1.54m-235.22-128.58v-62.98h6.7v62.98Zm2.41-7.24a38 38 0 0 1-10.79-1.5 25 25 0 0 1-8.3-3.92l3.68-8.18a27 27 0 0 0 7.14 3.52 26 26 0 0 0 8.34 1.37 17 17 0 0 0 5.2-.63 6 6 0 0 0 2.9-1.78 4 4 0 0 0 .95-2.61 3.5 3.5 0 0 0-1.48-2.98 12 12 0 0 0-3.88-1.81q-2.41-.7-5.33-1.34t-5.83-1.58a25 25 0 0 1-5.32-2.4 12 12 0 0 1-3.92-3.9 11.5 11.5 0 0 1-1.52-6.16 13 13 0 0 1 2.18-7.34 15 15 0 0 1 6.57-5.29 27 27 0 0 1 11.02-1.97 37 37 0 0 1 8.7 1.04 25 25 0 0 1 7.58 3.11l-3.35 8.24a29 29 0 0 0-6.57-2.78 24 24 0 0 0-6.43-.9 15 15 0 0 0-5.16.74 6 6 0 0 0-2.88 1.9 4.4 4.4 0 0 0-.87 2.72 3.5 3.5 0 0 0 1.47 2.92 12 12 0 0 0 3.9 1.77q2.4.67 5.32 1.34t5.83 1.54a23 23 0 0 1 5.32 2.35 12 12 0 0 1 3.92 3.88 11.3 11.3 0 0 1 1.51 6.1 12.7 12.7 0 0 1-2.21 7.23 15.5 15.5 0 0 1-6.6 5.3 27 27 0 0 1-11.09 2m39.33 0a37 37 0 0 1-9.71-1.3 25 25 0 0 1-8.18-3.72l4.22-8.3a22 22 0 0 0 6.23 3.07 23 23 0 0 0 7.17 1.14 11 11 0 0 0 6.43-1.6 5.1 5.1 0 0 0 2.35-4.43 5 5 0 0 0-2.08-4.22q-2.07-1.54-6.7-1.54h-4.96v-7.17l13.07-14.8 1.2 3.88h-24.58v-8.71h32.83v7.04l-13 14.8-5.5-3.15h3.15q8.64 0 13.07 3.89a12.7 12.7 0 0 1 4.42 9.98 14 14 0 0 1-2.08 7.4 15 15 0 0 1-6.36 5.6 24.6 24.6 0 0 1-10.99 2.14m23.92-10.65v-7.3l22.1-29.75h11.4l-21.64 29.75-5.3-1.54h36.92v8.84Zm25.26 9.85v-9.85l.33-8.84v-8.78h10.25V843Zm41.54.8a19 19 0 0 1-10.32-2.84 19.4 19.4 0 0 1-7.17-8.28 30 30 0 0 1-2.61-13.13 30 30 0 0 1 2.61-13.13 19.4 19.4 0 0 1 7.17-8.27 19 19 0 0 1 10.32-2.85 19 19 0 0 1 10.35 2.85 19.4 19.4 0 0 1 7.14 8.27 30 30 0 0 1 2.6 13.13 30 30 0 0 1-2.61 13.13 19.4 19.4 0 0 1-7.13 8.28 19 19 0 0 1-10.35 2.84m0-9.18a7.7 7.7 0 0 0 4.79-1.54 10 10 0 0 0 3.21-4.9 27 27 0 0 0 1.18-8.63 27 27 0 0 0-1.17-8.64 10 10 0 0 0-3.22-4.9 7.7 7.7 0 0 0-4.79-1.54 7.6 7.6 0 0 0-4.72 1.55 10 10 0 0 0-3.22 4.89 27 27 0 0 0-1.17 8.64 27 27 0 0 0 1.17 8.64 10 10 0 0 0 3.22 4.9 7.6 7.6 0 0 0 4.72 1.53M937.56 706.04v-62.98h6.7v62.98Zm2.41-7.24a38 38 0 0 1-10.79-1.5 25 25 0 0 1-8.3-3.92l3.68-8.18a27 27 0 0 0 7.14 3.52 26 26 0 0 0 8.34 1.37 17 17 0 0 0 5.2-.63 6 6 0 0 0 2.9-1.78 4 4 0 0 0 .95-2.61 3.5 3.5 0 0 0-1.48-2.98 12 12 0 0 0-3.88-1.81q-2.42-.7-5.33-1.34t-5.83-1.58a25 25 0 0 1-5.32-2.4 12 12 0 0 1-3.92-3.9 11.5 11.5 0 0 1-1.52-6.16 13 13 0 0 1 2.18-7.34 15 15 0 0 1 6.57-5.29 27 27 0 0 1 11.02-1.97 37 37 0 0 1 8.7 1.04 25 25 0 0 1 7.58 3.11l-3.35 8.24a29 29 0 0 0-6.57-2.78 24 24 0 0 0-6.43-.9 15 15 0 0 0-5.16.74 6 6 0 0 0-2.88 1.9 4.4 4.4 0 0 0-.87 2.72 3.5 3.5 0 0 0 1.47 2.92 12 12 0 0 0 3.9 1.77q2.4.67 5.32 1.34t5.83 1.54a23 23 0 0 1 5.32 2.35 12 12 0 0 1 3.92 3.88 11.3 11.3 0 0 1 1.51 6.1 12.7 12.7 0 0 1-2.21 7.23 15.5 15.5 0 0 1-6.6 5.3 27 27 0 0 1-11.09 2m39.33 0a37 37 0 0 1-9.71-1.3 25 25 0 0 1-8.18-3.72l4.22-8.3a22 22 0 0 0 6.23 3.07 23 23 0 0 0 7.17 1.14 11 11 0 0 0 6.43-1.6 5.1 5.1 0 0 0 2.35-4.43 5 5 0 0 0-2.08-4.22q-2.07-1.54-6.7-1.54h-4.96v-7.17l13.07-14.8 1.2 3.88h-24.58v-8.71h32.83v7.04l-13 14.8-5.5-3.15h3.15q8.64 0 13.07 3.89a12.7 12.7 0 0 1 4.42 9.98 14 14 0 0 1-2.08 7.4 15 15 0 0 1-6.36 5.6 24.6 24.6 0 0 1-10.99 2.14m45.43 0a22 22 0 0 1-11.16-2.68 18 18 0 0 1-7.27-7.84 28.6 28.6 0 0 1-2.55-12.73 28.5 28.5 0 0 1 3.05-13.73 21 21 0 0 1 8.44-8.58 25.5 25.5 0 0 1 12.43-2.94 31 31 0 0 1 7.17.8 19 19 0 0 1 5.9 2.41l-4.02 7.97a12 12 0 0 0-4.15-1.84 21 21 0 0 0-4.62-.5q-6.1 0-9.65 3.69t-3.56 10.92q0 1.2.04 2.68a15 15 0 0 0 .36 2.94l-3.01-2.81a14 14 0 0 1 3.28-4.39 13 13 0 0 1 4.8-2.68 20 20 0 0 1 6.13-.9 18 18 0 0 1 8.17 1.81 15 15 0 0 1 5.8 5.1 13.6 13.6 0 0 1 2.18 7.7 14.4 14.4 0 0 1-2.39 8.27 15.7 15.7 0 0 1-6.36 5.42 20.6 20.6 0 0 1-9.01 1.91m-.6-8.1a9.4 9.4 0 0 0 4.05-.85 6.4 6.4 0 0 0 2.78-2.44 7 7 0 0 0 1-3.69 6.5 6.5 0 0 0-2.18-5.12 8.5 8.5 0 0 0-5.8-1.91 9 9 0 0 0-4.22.9 7 7 0 0 0-2.84 2.48 6.5 6.5 0 0 0-1.04 3.65 6.5 6.5 0 0 0 1 3.58 7 7 0 0 0 2.82 2.5 10 10 0 0 0 4.42.9Z"/><path fill="#32cd32" d="M643.56 559.04v-62.98h6.7v62.98Zm2.41-7.24a38 38 0 0 1-10.79-1.5 25 25 0 0 1-8.3-3.92l3.68-8.18a27 27 0 0 0 7.14 3.52 26 26 0 0 0 8.34 1.37 17 17 0 0 0 5.2-.63 6 6 0 0 0 2.9-1.78 4 4 0 0 0 .95-2.61 3.5 3.5 0 0 0-1.48-2.98 12 12 0 0 0-3.88-1.81q-2.42-.7-5.33-1.34t-5.83-1.58a25 25 0 0 1-5.32-2.4 12 12 0 0 1-3.92-3.9 11.5 11.5 0 0 1-1.52-6.16 13 13 0 0 1 2.18-7.34 15 15 0 0 1 6.57-5.29 27 27 0 0 1 11.02-1.97 37 37 0 0 1 8.7 1.04 25 25 0 0 1 7.58 3.11l-3.35 8.24a29 29 0 0 0-6.57-2.78 24 24 0 0 0-6.43-.9 15 15 0 0 0-5.16.74 6 6 0 0 0-2.88 1.9 4.4 4.4 0 0 0-.87 2.72 3.5 3.5 0 0 0 1.47 2.92 12 12 0 0 0 3.9 1.77q2.4.67 5.32 1.34t5.83 1.54a23 23 0 0 1 5.32 2.35 12 12 0 0 1 3.92 3.88 11.3 11.3 0 0 1 1.51 6.1 12.7 12.7 0 0 1-2.21 7.23 15.5 15.5 0 0 1-6.6 5.3 27 27 0 0 1-11.09 2m44.49 0a19 19 0 0 1-10.32-2.84 19.4 19.4 0 0 1-7.17-8.28 30 30 0 0 1-2.61-13.13 30 30 0 0 1 2.61-13.13 19.4 19.4 0 0 1 7.17-8.28 19 19 0 0 1 10.32-2.84 19 19 0 0 1 10.35 2.85 19.4 19.4 0 0 1 7.14 8.27 30 30 0 0 1 2.6 13.13 30 30 0 0 1-2.6 13.13 19.4 19.4 0 0 1-7.14 8.28 19 19 0 0 1-10.35 2.84m0-9.18a7.7 7.7 0 0 0 4.79-1.54 10 10 0 0 0 3.22-4.9 27 27 0 0 0 1.17-8.63 27 27 0 0 0-1.17-8.65 10 10 0 0 0-3.22-4.89 7.7 7.7 0 0 0-4.8-1.54 7.6 7.6 0 0 0-4.71 1.54 10 10 0 0 0-3.22 4.9 27 27 0 0 0-1.17 8.64 27 27 0 0 0 1.17 8.64 10 10 0 0 0 3.22 4.89 7.6 7.6 0 0 0 4.72 1.54"/><path fill="#3c9bcd" d="M2354.9 390.7h49.39v9.3h-59.49V290.14h58.52v9.29h-48.42v41.07h42.7v9.3h-42.7Zm98.62-2.11q9.29 0 16.95-7.25t7.66-22.25q0-17.12-7.34-25.35t-16.46-8.23a21.4 21.4 0 0 0-18.26 9.13q-6.68 9.13-6.68 23.63 0 14.84 7.5 22.58t16.63 7.74m24.6-71.23h9.95v76.28q0 18.75-10.1 28.12t-26.09 9.37q-14.18 0-24.12-4.72v-9.78a51.5 51.5 0 0 0 23.31 5.05q12.39 0 19.72-6.77t7.34-21.27V382.9q-8.32 15.15-24.78 15.15a32.3 32.3 0 0 1-24.37-10.6q-10.02-10.6-10.02-28.68 0-18.58 9.2-30.64t24.21-12.07q17.77 0 25.76 15.82Zm43.7 0v14.02q6.84-15 23.14-15 1.14 0 4.07.32v10.1a23 23 0 0 0-6.52-.97q-8.8 0-14.75 8.72a33.5 33.5 0 0 0-5.95 19.32V400h-9.94v-82.64Zm95.35 36.67v-3.74q0-11.25-6.28-17.94t-16.87-6.68a23 23 0 0 0-17.44 7.34q-7 7.33-8.15 21.02Zm5.05 31.79v10.1q-9.78 4.9-22.82 4.9-18.42 0-29.91-11.5T2558 359.1q0-19.89 10.1-31.3t26.25-11.41q15.16 0 24.12 9.94t8.97 28.04a47 47 0 0 1-.65 8.8h-58.36q1.14 13.69 9.46 20.94t22 7.25q14.02.01 22.33-5.53Zm68.62-65.53v9.95q-7.66-4.4-20.7-4.4-7.17 0-11.32 3.34a10.7 10.7 0 0 0-4.16 8.72 12.6 12.6 0 0 0 1.22 5.7 12 12 0 0 0 4.24 4.49 38 38 0 0 0 5.14 3.01q2.11.98 6.84 2.94 11.41 4.56 17.52 10.02t6.12 14.75q0 10.27-7.1 16.22t-19.47 5.95q-15 0-24.13-4.9v-10.26a47 47 0 0 0 23.48 6.2q8.3 0 12.63-3.43a10.9 10.9 0 0 0 4.32-8.96q0-6.52-4.48-10.11t-14.76-7.66q-9.94-3.91-15.8-9.13t-5.88-14.34a19.4 19.4 0 0 1 7.34-15.9q7.33-5.95 18.42-5.95 13.36 0 20.54 3.75Zm66.18 0v9.95q-7.66-4.4-20.7-4.4-7.17 0-11.33 3.34a10.7 10.7 0 0 0-4.15 8.72 12.6 12.6 0 0 0 1.22 5.7 12 12 0 0 0 4.24 4.48 38 38 0 0 0 5.13 3.02q2.12.98 6.85 2.93 11.4 4.57 17.52 10.03t6.11 14.75q0 10.27-7.09 16.22t-19.47 5.95q-15 0-24.13-4.9v-10.26a47 47 0 0 0 23.47 6.2q8.32 0 12.64-3.43a10.9 10.9 0 0 0 4.32-8.96q0-6.52-4.49-10.11t-14.75-7.66q-9.94-3.91-15.81-9.13t-5.87-14.34a19.4 19.4 0 0 1 7.34-15.9q7.33-5.95 18.42-5.95 13.36 0 20.53 3.75m67.8 38.8q0 14.02 8.65 23.63t24.61 9.62a27.6 27.6 0 0 0 16.95-5.22v10.1q-7 4.74-18.09 4.74-20.05 0-31.3-12.64t-11.25-30.4a44 44 0 0 1 11.5-30.15q11.49-12.88 31.05-12.88a37 37 0 0 1 18.09 4.4v10.11a30 30 0 0 0-17.12-4.89q-15.16 0-24.12 9.86a34 34 0 0 0-8.96 23.72Zm104.5 42.38q-17.45 0-27.72-12.07t-10.27-30.31q0-18.1 10.6-30.48t27.39-12.4q18.42 0 28.6 12.15t10.2 30.73q0 18.42-10.36 30.4t-28.45 11.98Zm0-75.8q-12.89 0-20.22 9.78t-7.33 23.63q0 13.53 7.57 23.23a24.1 24.1 0 0 0 19.97 9.7q13.53 0 20.95-9.54t7.41-23.39q0-14.34-7-23.88t-21.36-9.53Zm101.7-5.38v9.94q-7.66-4.4-20.7-4.4-7.17 0-11.32 3.34a10.7 10.7 0 0 0-4.16 8.72 12.6 12.6 0 0 0 1.22 5.7 12 12 0 0 0 4.24 4.49 38 38 0 0 0 5.13 3.02q2.12.97 6.85 2.93 11.41 4.56 17.52 10.02t6.11 14.75q0 10.27-7.08 16.22t-19.48 5.96q-15 0-24.13-4.9v-10.26a47 47 0 0 0 23.48 6.2q8.31 0 12.63-3.43a10.9 10.9 0 0 0 4.32-8.96q0-6.52-4.48-10.11t-14.75-7.66q-9.95-3.91-15.81-9.13t-5.87-14.34a19.4 19.4 0 0 1 7.33-15.9q7.34-5.95 18.42-5.95 13.37 0 20.54 3.75Zm38.3 5.54v51.35q0 14.18 13.2 14.18a17 17 0 0 0 11.09-3.75v10.1a19.5 19.5 0 0 1-10.91 3.1q-23.47 0-23.47-24.12v-50.86h-13.53v-8.47h13.53v-20.7h10.1v20.7h23.64v8.47Zm120.13-40.91v9.78a20 20 0 0 0-7.17-1.3 11 11 0 0 0-8.4 3.83q-3.5 3.83-3.5 11.49v8.64h18.92v8.47h-18.9V400h-9.95v-74.17h-15.16v-8.47h15.16v-8.8q0-11.25 5.87-17.93t16.46-6.68a26 26 0 0 1 6.68.97Zm49.24 116.55q-17.44 0-27.71-12.07t-10.27-30.31q0-18.1 10.6-30.48t27.38-12.4q18.42 0 28.6 12.15t10.2 30.73q0 18.42-10.36 30.4t-28.44 11.98m0-75.8q-12.88 0-20.21 9.78t-7.34 23.63q0 13.53 7.58 23.23a24.1 24.1 0 0 0 19.97 9.7q13.53 0 20.94-9.54t7.42-23.39q0-14.34-7-23.88t-21.36-9.53m68.46-8.32v14.02q6.84-15 23.14-15 1.15 0 4.08.33v10.1a23 23 0 0 0-6.52-.97q-8.8 0-14.75 8.72a33.5 33.5 0 0 0-5.95 19.31V400h-9.94v-82.64Zm-815.98 156v35.55a66 66 0 0 1 14.18-1.8q15.81 0 25.43 8.48t9.62 22.82q0 15.65-10.1 24.78t-27.56 9.13q-15.64 0-27.05-5.38v-10.11q10.43 6.03 25.42 6.03 28.85 0 28.85-24.94 0-10.27-6.84-15.81t-17.28-5.54a61 61 0 0 0-24.77 5.7V464.4h51.83v8.97ZM2566 557.3q-10.1-15.16-10.1-39.94t10.26-39.36 26.24-14.58q16.63 0 26.98 14.5t10.35 39.45q0 24.78-9.78 39.86t-27.55 15.07q-16.3 0-26.4-15m.16-39.94q0 21.2 7.66 33.18t18.58 11.98q12.23 0 19.65-11.74t7.41-33.42q0-21.35-7.74-32.76t-19.32-11.4q-10.43 0-18.33 11.57t-7.9 32.6Zm144.26-56.23v9.29h-30.48V571h-10.11V470.43h-30.32v-9.3Zm25.59 100.9h28.04q10.6 0 16.54-5.3t5.95-15.24q0-10.26-6.77-15.89t-18.82-5.62H2736Zm0-91.93v40.92h19.72q14.18 0 20.87-6.12a20.2 20.2 0 0 0 6.68-15.56 17.4 17.4 0 0 0-6.44-13.7q-6.44-5.54-19.15-5.54Zm-10.1-8.96h30.64q16.62 0 26.97 7.58t10.35 20.94a26 26 0 0 1-5.46 16.71 23.5 23.5 0 0 1-14.1 8.72 26.6 26.6 0 0 1 16.06 7.99q6.76 6.84 6.76 18.74 0 13.2-8.56 21.2t-24.53 7.98h-38.14Zm163.32 111.33q-17.44 0-27.71-12.07t-10.27-30.31q0-18.1 10.6-30.48t27.38-12.4q18.42 0 28.61 12.15t10.19 30.73q0 18.42-10.35 30.4t-28.45 11.98m0-75.8q-12.88 0-20.21 9.78t-7.34 23.64q0 13.53 7.58 23.22a24.1 24.1 0 0 0 19.97 9.7q13.53 0 20.94-9.53t7.42-23.4q0-14.34-7-23.87t-21.36-9.54m95.2-40.75v9.78a20 20 0 0 0-7.18-1.3 11 11 0 0 0-8.4 3.83q-3.5 3.83-3.5 11.5v8.63h18.91v8.48h-18.9V571h-9.95v-74.17h-15.16v-8.47h15.16v-8.8q0-11.25 5.87-17.93t16.46-6.68a26 26 0 0 1 6.68.97Zm67.96 97.96q7.01 8.97 17.6 8.97a24.8 24.8 0 0 0 18.26-7.74q7.66-7.75 7.66-25.84a45 45 0 0 0-2.53-15.9 25 25 0 0 0-6.52-10.26 27 27 0 0 0-7.98-5.05 22 22 0 0 0-7.9-1.55 22.5 22.5 0 0 0-18.27 8.88q-7.17 8.88-7.17 25.35 0 14.18 6.85 23.14m43.52-98.12h9.94V571h-9.94v-12.06q-8.64 13.36-25.59 13.36-16.63 0-25.92-12.14t-9.29-29.59q0-19.23 9.94-31.38a31.6 31.6 0 0 1 25.6-12.14q16.13 0 25.26 13.7Zm80.2 75.96h-16.14q-11.57 0-17.28 4.48a13.7 13.7 0 0 0-5.7 11.16 14.6 14.6 0 0 0 4.48 11.09q4.48 4.24 13.12 4.24 9.78 0 15.65-5.38a17.8 17.8 0 0 0 5.87-13.7Zm-43.68-28.2v-10.76q9.45-5.7 23.3-5.7 30.32 0 30.32 31.78V571h-9.94v-9.62q-6.85 10.44-23.8 10.44-11.41 0-18.66-6.77t-7.26-17.36q0-11.9 9.21-18.5t24.37-6.6h16.14v-3.75q0-11.08-4.73-16.7t-15.8-5.63a40 40 0 0 0-23.16 7Zm92.74-6.69v51.35q0 14.18 13.2 14.18a17 17 0 0 0 11.09-3.75v10.1a19.5 19.5 0 0 1-10.92 3.1q-23.48 0-23.48-24.12v-50.86h-13.53v-8.47h13.53v-20.7h10.11v20.7h23.64v8.47Zm89.49 34.89h-16.14q-11.57 0-17.28 4.48a13.7 13.7 0 0 0-5.7 11.16 14.6 14.6 0 0 0 4.48 11.09q4.49 4.24 13.13 4.24 9.78 0 15.64-5.38a17.8 17.8 0 0 0 5.87-13.7Zm-43.68-28.2v-10.76q9.45-5.7 23.3-5.7 30.32 0 30.32 31.78V571h-9.94v-9.62q-6.85 10.44-23.8 10.44-11.41 0-18.66-6.77t-7.26-17.36q0-11.9 9.21-18.5t24.37-6.6h16.14v-3.75q0-11.08-4.73-16.7t-15.81-5.63a40 40 0 0 0-23.15 7Z"/><path fill="#195f8c" d="M2548.08 650.7h4.87V685h-4.87Zm-19.74 34.3h-4.87v-34.3h4.87Zm20.15-15.3h-20.6v-4.24h20.6Zm25.17 15.57a14 14 0 0 1-6.93-1.7 12.6 12.6 0 0 1-4.8-4.7 13.3 13.3 0 0 1-1.77-6.85 13 13 0 0 1 1.77-6.87 13 13 0 0 1 4.8-4.67 14 14 0 0 1 6.93-1.7 14 14 0 0 1 6.96 1.7 12.5 12.5 0 0 1 4.8 4.67 13.3 13.3 0 0 1 1.74 6.87 13.4 13.4 0 0 1-1.73 6.85 12.4 12.4 0 0 1-4.81 4.7 14 14 0 0 1-6.96 1.7m0-4.12a9 9 0 0 0 4.5-1.12 8 8 0 0 0 3.12-3.2 10 10 0 0 0 1.13-4.82 10 10 0 0 0-1.13-4.82 8 8 0 0 0-3.12-3.18 9 9 0 0 0-4.48-1.12 9 9 0 0 0-4.48 1.12 8.3 8.3 0 0 0-3.13 3.18 9.6 9.6 0 0 0-1.16 4.82 10 10 0 0 0 1.16 4.82 8.3 8.3 0 0 0 3.13 3.2 9 9 0 0 0 4.46 1.12m24.8 3.85-9.67-25.95h4.46l8.57 23.49h-2.09l8.89-23.5h4l8.71 23.5h-2.09l8.78-23.5h4.22l-9.71 25.96h-4.48l-8.19-21.46h1.38l-8.3 21.46Zm84.17-26.22a12 12 0 0 1 5.55 1.22 8.7 8.7 0 0 1 3.74 3.72 13 13 0 0 1 1.35 6.34V685h-4.7v-14.4q0-3.8-1.75-5.71a6.4 6.4 0 0 0-4.96-1.92 8 8 0 0 0-4.1 1 6.7 6.7 0 0 0-2.72 2.9 10.5 10.5 0 0 0-.96 4.73V685h-4.7v-14.4q0-3.8-1.75-5.71a6.4 6.4 0 0 0-4.96-1.92 8 8 0 0 0-4.1 1 6.7 6.7 0 0 0-2.73 2.9 10.5 10.5 0 0 0-.95 4.73V685h-4.7v-25.95h4.5v6.9l-.77-1.76a9 9 0 0 1 3.8-4 12 12 0 0 1 5.94-1.42 11 11 0 0 1 6.4 1.84 8.8 8.8 0 0 1 3.54 5.56l-1.93-.76a10 10 0 0 1 4.12-4.8 12.7 12.7 0 0 1 6.84-1.84m30.26 26.5a13 13 0 0 1-5.87-1.23 9 9 0 0 1-3.91-3.74 13 13 0 0 1-1.4-6.32v-14.94h4.7v14.4q0 3.8 1.83 5.7a6.8 6.8 0 0 0 5.17 1.92 9 9 0 0 0 4.25-1 7 7 0 0 0 2.8-2.93 10 10 0 0 0 1-4.7v-13.4h4.7V685h-4.5v-6.99l.76 1.84a9 9 0 0 1-3.83 4 11.5 11.5 0 0 1-5.7 1.42m33.51 0a14.4 14.4 0 0 1-7.06-1.7 12.5 12.5 0 0 1-4.86-4.7 13 13 0 0 1-1.77-6.86 13 13 0 0 1 1.77-6.87 12.5 12.5 0 0 1 4.86-4.67 14.5 14.5 0 0 1 7.06-1.7 14 14 0 0 1 6.3 1.4 10 10 0 0 1 4.3 4.16l-3.58 2.27a8 8 0 0 0-3.1-2.8 9 9 0 0 0-3.97-.92 9 9 0 0 0-4.55 1.12 8 8 0 0 0-3.19 3.18 9.6 9.6 0 0 0-1.16 4.83 9.6 9.6 0 0 0 1.16 4.83 8 8 0 0 0 3.19 3.18 9 9 0 0 0 4.56 1.12 9 9 0 0 0 3.96-.9 8 8 0 0 0 3.1-2.81l3.58 2.27a10 10 0 0 1-4.3 4.14 13.6 13.6 0 0 1-6.3 1.42Zm30.23-26.5a12 12 0 0 1 5.6 1.22 9 9 0 0 1 3.82 3.71 13 13 0 0 1 1.4 6.34V685h-4.7v-14.4q0-3.8-1.85-5.71a7 7 0 0 0-5.2-1.92 9 9 0 0 0-4.33 1 7 7 0 0 0-2.86 2.9 10 10 0 0 0-1 4.73V685h-4.7v-36.36h4.7v17.4l-.97-1.84a9 9 0 0 1 3.93-4 13 13 0 0 1 6.16-1.43m32.65 26.22v-25.97h4.7V685Zm2.35-30.97a3 3 0 0 1-2.28-.88 3 3 0 0 1-.9-2.16 3 3 0 0 1 .9-2.2 3 3 0 0 1 2.28-.88 3.2 3.2 0 0 1 2.28.86 2.8 2.8 0 0 1 .9 2.13 3 3 0 0 1-.87 2.23 3 3 0 0 1-2.3.9m20.24 31.24a8.4 8.4 0 0 1-6.08-2.09 8 8 0 0 1-2.15-6.03v-23.8h4.7v23.63a4.5 4.5 0 0 0 1.06 3.2 4 4 0 0 0 3.02 1.14 5.5 5.5 0 0 0 3.64-1.2l1.47 3.38a7 7 0 0 1-2.56 1.33 11 11 0 0 1-3.1.44m-12.68-22.35v-3.87h16.61v3.87Zm42.7 22.09-9.67-25.95h4.46l8.57 23.49h-2.09l8.89-23.5h3.99l8.72 23.5h-2.09l8.78-23.5h4.22l-9.71 25.96h-4.48l-8.19-21.46h1.38l-8.3 21.46Zm38.53 0v-25.97h4.7V685Zm2.36-30.97a3 3 0 0 1-2.28-.88 3 3 0 0 1-.9-2.16 3 3 0 0 1 .9-2.2 3 3 0 0 1 2.28-.88 3.2 3.2 0 0 1 2.28.86 2.8 2.8 0 0 1 .9 2.13 3 3 0 0 1-.88 2.23 3 3 0 0 1-2.3.9M2914.1 685v-36.36h4.7V685Zm13.66 0v-36.36h4.7V685Zm38.1.27a14.4 14.4 0 0 1-7.06-1.7 12.5 12.5 0 0 1-4.87-4.7 13 13 0 0 1-1.76-6.85 13 13 0 0 1 1.76-6.87 12.5 12.5 0 0 1 4.87-4.67 14.5 14.5 0 0 1 7.06-1.7 14 14 0 0 1 6.3 1.4 10 10 0 0 1 4.3 4.16l-3.59 2.26a8 8 0 0 0-3.1-2.8 9 9 0 0 0-3.96-.9 9 9 0 0 0-4.56 1.11 8 8 0 0 0-3.18 3.17 9.6 9.6 0 0 0-1.16 4.84 9.6 9.6 0 0 0 1.16 4.83 8 8 0 0 0 3.18 3.18 9 9 0 0 0 4.56 1.12 9 9 0 0 0 3.96-.9 8 8 0 0 0 3.1-2.81l3.59 2.26a10 10 0 0 1-4.3 4.14 13.6 13.6 0 0 1-6.3 1.43m27.39 0a14 14 0 0 1-6.93-1.7 12.6 12.6 0 0 1-4.8-4.7 13.3 13.3 0 0 1-1.77-6.85 13 13 0 0 1 1.77-6.87 13 13 0 0 1 4.8-4.67 14 14 0 0 1 6.93-1.7 14 14 0 0 1 6.96 1.7 12.5 12.5 0 0 1 4.8 4.67 13.3 13.3 0 0 1 1.74 6.87 13.4 13.4 0 0 1-1.74 6.85 12.4 12.4 0 0 1-4.8 4.7 14 14 0 0 1-6.96 1.7m0-4.12a9 9 0 0 0 4.5-1.12 8 8 0 0 0 3.11-3.2 10 10 0 0 0 1.14-4.82 10 10 0 0 0-1.14-4.82 8 8 0 0 0-3.11-3.18 9 9 0 0 0-4.48-1.12 9 9 0 0 0-4.48 1.12 8.3 8.3 0 0 0-3.13 3.18 9.6 9.6 0 0 0-1.17 4.82 10 10 0 0 0 1.17 4.82 8.3 8.3 0 0 0 3.13 3.2 9 9 0 0 0 4.45 1.12Zm27.48 4.12a21 21 0 0 1-6.17-.88 15 15 0 0 1-4.6-2.14l2-3.73a15 15 0 0 0 4.11 1.94 16 16 0 0 0 5 .78 9 9 0 0 0 4.72-.95 2.9 2.9 0 0 0 1.47-2.58 2.3 2.3 0 0 0-.9-1.91 6 6 0 0 0-2.34-1.04q-1.46-.36-3.22-.62t-3.52-.67a13 13 0 0 1-3.22-1.18 6 6 0 0 1-2.35-2.13 6.4 6.4 0 0 1-.89-3.58 6.6 6.6 0 0 1 1.33-4.1 8.5 8.5 0 0 1 3.74-2.74 15 15 0 0 1 5.76-.97 22 22 0 0 1 5.17.63 14 14 0 0 1 4.29 1.72l-2 3.72a12 12 0 0 0-3.68-1.59 17 17 0 0 0-3.82-.44 8.5 8.5 0 0 0-4.6 1 3 3 0 0 0-1.52 2.56 2.5 2.5 0 0 0 .9 2.03 7 7 0 0 0 2.34 1.11 27 27 0 0 0 3.22.67q1.76.26 3.51.67a14 14 0 0 1 3.22 1.16 6 6 0 0 1 2.35 2.07 6 6 0 0 1 .89 3.51 6.4 6.4 0 0 1-1.36 4.09 8.6 8.6 0 0 1-3.86 2.66 17 17 0 0 1-5.97.93m26.02 0a8.4 8.4 0 0 1-6.08-2.09 8 8 0 0 1-2.15-6.03v-23.8h4.7v23.63a4.5 4.5 0 0 0 1.05 3.2 4 4 0 0 0 3.02 1.14 5.5 5.5 0 0 0 3.64-1.2l1.47 3.38a7 7 0 0 1-2.56 1.33 11 11 0 0 1-3.09.44m-12.68-22.35v-3.87h16.6v3.87Zm46.14 22.35a8.4 8.4 0 0 1-6.1-2.09 8 8 0 0 1-2.14-6.03v-23.8h4.7v23.63a4.5 4.5 0 0 0 1.06 3.2 4 4 0 0 0 3.02 1.14 5.5 5.5 0 0 0 3.63-1.2l1.48 3.38a7 7 0 0 1-2.56 1.33 11 11 0 0 1-3.1.44m-12.68-22.35v-3.87h16.6v3.87Zm34.25 22.35a14 14 0 0 1-6.93-1.7 12.6 12.6 0 0 1-4.81-4.7 13.3 13.3 0 0 1-1.76-6.85 13 13 0 0 1 1.77-6.87 13 13 0 0 1 4.8-4.67 14 14 0 0 1 6.93-1.7 14 14 0 0 1 6.95 1.7 12.5 12.5 0 0 1 4.8 4.67 13.3 13.3 0 0 1 1.75 6.87 13.4 13.4 0 0 1-1.74 6.85 12.4 12.4 0 0 1-4.8 4.7 14 14 0 0 1-6.96 1.7m0-4.12a9 9 0 0 0 4.5-1.12 8 8 0 0 0 3.1-3.2 10 10 0 0 0 1.15-4.82 10 10 0 0 0-1.14-4.82 8 8 0 0 0-3.11-3.18 9 9 0 0 0-4.48-1.12 9 9 0 0 0-4.48 1.12 8.3 8.3 0 0 0-3.13 3.18 9.6 9.6 0 0 0-1.17 4.82 10 10 0 0 0 1.17 4.82 8.3 8.3 0 0 0 3.13 3.2 9 9 0 0 0 4.46 1.12m42.12 4.12a8.4 8.4 0 0 1-6.1-2.09 8 8 0 0 1-2.14-6.03v-23.8h4.7v23.63a4.5 4.5 0 0 0 1.06 3.2 4 4 0 0 0 3.02 1.14 5.5 5.5 0 0 0 3.63-1.2l1.48 3.38a7 7 0 0 1-2.56 1.33 11 11 0 0 1-3.1.44m-12.68-22.35v-3.87h16.6v3.87Zm24.05 22.08v-25.95h4.5v7.04l-.47-1.76a8.2 8.2 0 0 1 3.65-4.13 13 13 0 0 1 6.27-1.43v4.58l-.55-.06q-.25-.02-.52-.02a8 8 0 0 0-5.97 2.26q-2.2 2.25-2.2 6.55V685Zm33.94 0v-5.49l-.2-1.04v-9.37a6 6 0 0 0-1.76-4.61 7.4 7.4 0 0 0-5.2-1.64 14 14 0 0 0-4.54.75 12 12 0 0 0-3.73 2.03l-1.97-3.5a14 14 0 0 1 4.85-2.5 20 20 0 0 1 5.91-.86q5.32 0 8.23 2.6t2.9 7.96V685Zm-8.5.27a12.5 12.5 0 0 1-5.1-.96 7.7 7.7 0 0 1-3.35-2.71 7 7 0 0 1-1.17-3.97 7.4 7.4 0 0 1 1-3.81 7 7 0 0 1 3.3-2.75 15 15 0 0 1 6.12-1.04h8.24v3.42h-8.04q-3.48 0-4.72 1.16a3.8 3.8 0 0 0-1.24 2.84 3.6 3.6 0 0 0 1.53 3.07 7 7 0 0 0 4.22 1.13 9 9 0 0 0 4.63-1.17 6.7 6.7 0 0 0 2.87-3.44l.9 3.25a7.3 7.3 0 0 1-3.29 3.66 12 12 0 0 1-5.9 1.32m35.54-26.5a12 12 0 0 1 5.6 1.22 9 9 0 0 1 3.82 3.72 13 13 0 0 1 1.4 6.34V685h-4.7v-14.4q0-3.8-1.85-5.71a7 7 0 0 0-5.2-1.92 9 9 0 0 0-4.33 1 7 7 0 0 0-2.86 2.9 10 10 0 0 0-1 4.73V685h-4.7v-25.95h4.5v7l-.76-1.85a9 9 0 0 1 3.93-4 13 13 0 0 1 6.15-1.43m26.96 26.5a21 21 0 0 1-6.18-.88 15 15 0 0 1-4.6-2.14l2-3.73a15 15 0 0 0 4.12 1.94 16 16 0 0 0 4.99.78 9 9 0 0 0 4.73-.95 2.9 2.9 0 0 0 1.46-2.58 2.3 2.3 0 0 0-.89-1.91 6 6 0 0 0-2.35-1.04q-1.46-.36-3.22-.62t-3.52-.67a13 13 0 0 1-3.22-1.18 6 6 0 0 1-2.34-2.13 6.4 6.4 0 0 1-.9-3.58 6.6 6.6 0 0 1 1.33-4.1 8.5 8.5 0 0 1 3.74-2.74 15 15 0 0 1 5.76-.97 22 22 0 0 1 5.18.63 14 14 0 0 1 4.28 1.72l-2 3.72a12 12 0 0 0-3.68-1.59 17 17 0 0 0-3.82-.44 8.5 8.5 0 0 0-4.6 1 3 3 0 0 0-1.51 2.56 2.5 2.5 0 0 0 .89 2.03 7 7 0 0 0 2.35 1.11 27 27 0 0 0 3.21.67q1.76.26 3.52.67a14 14 0 0 1 3.21 1.16 6 6 0 0 1 2.35 2.07 6 6 0 0 1 .9 3.51 6.4 6.4 0 0 1-1.37 4.09 8.6 8.6 0 0 1-3.85 2.66 17 17 0 0 1-5.97.93M3261 685v-28.3a8.3 8.3 0 0 1 2.21-6.06 8.5 8.5 0 0 1 6.36-2.27 12 12 0 0 1 2.92.35 6 6 0 0 1 2.36 1.13l-1.43 3.58a5 5 0 0 0-1.64-.89 6 6 0 0 0-1.96-.3 4 4 0 0 0-3.16 1.15 4.8 4.8 0 0 0-1.08 3.39v3.48l.13 2.16V685Zm-4.44-22.08v-3.87h16.6v3.87Zm32.22 22.35a15 15 0 0 1-7.33-1.7 12.3 12.3 0 0 1-4.9-4.7 13.4 13.4 0 0 1-1.74-6.85 13.7 13.7 0 0 1 1.69-6.85 12.3 12.3 0 0 1 4.64-4.7 13 13 0 0 1 6.71-1.7 13 13 0 0 1 6.64 1.68 12 12 0 0 1 4.55 4.68 14.4 14.4 0 0 1 1.64 7.02l-.02.7q-.02.4-.06.75h-22.1v-3.42h19.62l-1.88 1.2a8.6 8.6 0 0 0-1.05-4.46 8 8 0 0 0-2.98-3.04 8.5 8.5 0 0 0-4.36-1.1 8.6 8.6 0 0 0-4.38 1.1 7.7 7.7 0 0 0-2.98 3.06 9.4 9.4 0 0 0-1.06 4.55v.78a9 9 0 0 0 1.18 4.62 8 8 0 0 0 3.34 3.14 10.5 10.5 0 0 0 4.95 1.12 11 11 0 0 0 4.2-.77 9 9 0 0 0 3.3-2.36l2.6 3.05a11 11 0 0 1-4.37 3.13 15 15 0 0 1-5.85 1.07m18.44-.27v-25.95h4.5v7.04l-.47-1.76a8.2 8.2 0 0 1 3.64-4.13 13 13 0 0 1 6.28-1.42v4.58l-.56-.07q-.26-.03-.52-.02a8 8 0 0 0-5.97 2.26q-2.2 2.25-2.2 6.55V685Zm-826 51.27a13.6 13.6 0 0 1-6.75-1.66 12 12 0 0 1-4.68-4.64 14 14 0 0 1-1.7-6.95 14 14 0 0 1 1.7-6.95 12 12 0 0 1 4.68-4.63 13.6 13.6 0 0 1 6.75-1.67 12 12 0 0 1 5.93 1.48 11 11 0 0 1 4.26 4.4 15 15 0 0 1 1.59 7.37 16 16 0 0 1-1.55 7.34 10.5 10.5 0 0 1-4.21 4.44 12 12 0 0 1-6.02 1.47m.37-4.12a9 9 0 0 0 4.46-1.12 8 8 0 0 0 3.14-3.2 10 10 0 0 0 1.16-4.81 9.7 9.7 0 0 0-1.16-4.83 8 8 0 0 0-3.14-3.18 9 9 0 0 0-4.46-1.12 9 9 0 0 0-4.45 1.12 8.3 8.3 0 0 0-3.14 3.18 9.6 9.6 0 0 0-1.16 4.83 10 10 0 0 0 1.16 4.8 8.3 8.3 0 0 0 3.13 3.2 9 9 0 0 0 4.46 1.13m8.88 3.85v-7l.28-6.03-.49-6.04v-17.29h4.7V736Zm29.54 0v-5.49l-.21-1.04v-9.37a6 6 0 0 0-1.75-4.61 7.4 7.4 0 0 0-5.21-1.64 14 14 0 0 0-4.53.75 12 12 0 0 0-3.73 2.03l-1.97-3.5a14 14 0 0 1 4.84-2.5 20 20 0 0 1 5.92-.86q5.32 0 8.23 2.6t2.9 7.96V736Zm-8.5.27a12.5 12.5 0 0 1-5.1-.96 7.7 7.7 0 0 1-3.35-2.71 7 7 0 0 1-1.18-3.97 7.4 7.4 0 0 1 1-3.81 7 7 0 0 1 3.3-2.75 15 15 0 0 1 6.12-1.04h8.24v3.41h-8.04q-3.48 0-4.72 1.17a3.8 3.8 0 0 0-1.24 2.84 3.6 3.6 0 0 0 1.53 3.07 7 7 0 0 0 4.23 1.13 9 9 0 0 0 4.62-1.17 6.7 6.7 0 0 0 2.88-3.44l.9 3.25a7.3 7.3 0 0 1-3.29 3.66 12 12 0 0 1-5.9 1.32m30.61 0a8.4 8.4 0 0 1-6.09-2.09 8 8 0 0 1-2.15-6.03v-23.8h4.7v23.63a4.5 4.5 0 0 0 1.06 3.2 4 4 0 0 0 3.02 1.14 5.5 5.5 0 0 0 3.64-1.2l1.47 3.38a7 7 0 0 1-2.56 1.33 11 11 0 0 1-3.09.44m-12.68-22.35v-3.87h16.6v3.87Zm40.15 22.08v-5.49l-.21-1.04v-9.37a6 6 0 0 0-1.75-4.61 7.4 7.4 0 0 0-5.21-1.64 14 14 0 0 0-4.53.75 12 12 0 0 0-3.73 2.03l-1.97-3.5a14 14 0 0 1 4.84-2.5 20 20 0 0 1 5.92-.86q5.32 0 8.23 2.6t2.9 7.96V736Zm-8.5.27a12.5 12.5 0 0 1-5.1-.96 7.7 7.7 0 0 1-3.35-2.71 7 7 0 0 1-1.18-3.97 7.4 7.4 0 0 1 1-3.81 7 7 0 0 1 3.3-2.75 15 15 0 0 1 6.12-1.04h8.24v3.41h-8.04q-3.48 0-4.72 1.17a3.8 3.8 0 0 0-1.24 2.84 3.6 3.6 0 0 0 1.53 3.07 7 7 0 0 0 4.23 1.13 9 9 0 0 0 4.62-1.17 6.7 6.7 0 0 0 2.88-3.44l.9 3.25a7.3 7.3 0 0 1-3.3 3.66 12 12 0 0 1-5.89 1.32m45.94 0a14 14 0 0 1-6.93-1.7 12.6 12.6 0 0 1-4.8-4.7 13.3 13.3 0 0 1-1.77-6.85 13 13 0 0 1 1.77-6.87 13 13 0 0 1 4.8-4.67 14 14 0 0 1 6.93-1.7 14 14 0 0 1 6.96 1.7 12.5 12.5 0 0 1 4.8 4.67 13.3 13.3 0 0 1 1.74 6.87 13.4 13.4 0 0 1-1.73 6.85 12.4 12.4 0 0 1-4.81 4.7 14 14 0 0 1-6.96 1.7m0-4.12a9 9 0 0 0 4.5-1.12 8 8 0 0 0 3.12-3.2 10 10 0 0 0 1.14-4.82 10 10 0 0 0-1.14-4.82 8 8 0 0 0-3.12-3.18 9 9 0 0 0-4.48-1.12 9 9 0 0 0-4.48 1.12 8.3 8.3 0 0 0-3.13 3.18 9.6 9.6 0 0 0-1.16 4.82 10 10 0 0 0 1.16 4.82 8.3 8.3 0 0 0 3.13 3.2 9 9 0 0 0 4.46 1.12m30.97 4.12a13 13 0 0 1-5.87-1.22 9 9 0 0 1-3.91-3.74 13 13 0 0 1-1.4-6.32v-14.94h4.7v14.4q0 3.8 1.83 5.7a6.8 6.8 0 0 0 5.18 1.92 9 9 0 0 0 4.24-1 7 7 0 0 0 2.8-2.93 10 10 0 0 0 1-4.7v-13.4h4.7V736h-4.5v-6.99l.76 1.84a9 9 0 0 1-3.82 4 11.5 11.5 0 0 1-5.71 1.42m31.15 0a8.4 8.4 0 0 1-6.09-2.09 8 8 0 0 1-2.14-6.03v-23.8h4.7v23.63a4.5 4.5 0 0 0 1.05 3.2 4 4 0 0 0 3.03 1.14 5.5 5.5 0 0 0 3.63-1.2l1.47 3.38a7 7 0 0 1-2.56 1.33 11 11 0 0 1-3.1.44Zm-12.68-22.35v-3.87h16.6v3.87Zm48.31 22.35a14 14 0 0 1-6.93-1.7 12.6 12.6 0 0 1-4.8-4.7 13.3 13.3 0 0 1-1.77-6.85 13 13 0 0 1 1.77-6.87 13 13 0 0 1 4.8-4.67 14 14 0 0 1 6.93-1.7 14 14 0 0 1 6.96 1.7 12.5 12.5 0 0 1 4.8 4.67 13.3 13.3 0 0 1 1.74 6.87 13.4 13.4 0 0 1-1.74 6.85 12.4 12.4 0 0 1-4.8 4.7 14 14 0 0 1-6.96 1.7m0-4.12a9 9 0 0 0 4.5-1.12 8 8 0 0 0 3.11-3.2 10 10 0 0 0 1.14-4.82 10 10 0 0 0-1.14-4.82 8 8 0 0 0-3.11-3.18 9 9 0 0 0-4.48-1.12 9 9 0 0 0-4.48 1.12 8.3 8.3 0 0 0-3.13 3.18 9.6 9.6 0 0 0-1.17 4.82 10 10 0 0 0 1.17 4.82 8.3 8.3 0 0 0 3.13 3.2 9 9 0 0 0 4.46 1.12m20.72 3.85v-28.3a8.3 8.3 0 0 1 2.21-6.06 8.5 8.5 0 0 1 6.36-2.27 12 12 0 0 1 2.92.35 6 6 0 0 1 2.36 1.13l-1.43 3.58a5 5 0 0 0-1.64-.89 6 6 0 0 0-1.96-.3 4 4 0 0 0-3.16 1.15 4.8 4.8 0 0 0-1.08 3.39v3.49l.13 2.15V736Zm-4.44-22.08v-3.87h16.6v3.87Zm43.14 22.35a8.4 8.4 0 0 1-6.09-2.09 8 8 0 0 1-2.15-6.03v-23.8h4.7v23.63a4.5 4.5 0 0 0 1.06 3.2 4 4 0 0 0 3.02 1.14 5.5 5.5 0 0 0 3.64-1.2l1.47 3.38a7 7 0 0 1-2.56 1.33 11 11 0 0 1-3.09.44m-12.68-22.35v-3.87h16.6v3.87Zm37.9-4.15a12 12 0 0 1 5.6 1.23 9 9 0 0 1 3.81 3.71 13 13 0 0 1 1.4 6.34V736h-4.7v-14.4q0-3.8-1.84-5.71a7 7 0 0 0-5.2-1.92 9 9 0 0 0-4.33 1 7 7 0 0 0-2.87 2.9 10 10 0 0 0-1 4.73V736h-4.7v-36.36h4.7v17.4l-.97-1.84a9 9 0 0 1 3.94-4 13 13 0 0 1 6.17-1.43Zm31.06 26.5a15 15 0 0 1-7.32-1.7 12.3 12.3 0 0 1-4.9-4.7 13.4 13.4 0 0 1-1.75-6.84 13.7 13.7 0 0 1 1.69-6.85 12.3 12.3 0 0 1 4.64-4.7 13 13 0 0 1 6.7-1.7 13 13 0 0 1 6.66 1.67 12 12 0 0 1 4.55 4.68 14.4 14.4 0 0 1 1.64 7.02l-.02.7q-.02.4-.06.75h-22.1v-3.42h19.62l-1.88 1.19a8.6 8.6 0 0 0-1.05-4.45 8 8 0 0 0-2.98-3.05 8.5 8.5 0 0 0-4.36-1.1 8.6 8.6 0 0 0-4.38 1.1 7.7 7.7 0 0 0-2.98 3.07 9.4 9.4 0 0 0-1.06 4.55v.78a9 9 0 0 0 1.19 4.62 8 8 0 0 0 3.33 3.14 10.5 10.5 0 0 0 4.95 1.12 11 11 0 0 0 4.21-.77 9 9 0 0 0 3.3-2.36l2.59 3.04a11 11 0 0 1-4.36 3.14 15 15 0 0 1-5.86 1.07Zm32.3-.27v-28.3a8.3 8.3 0 0 1 2.2-6.06 8.5 8.5 0 0 1 6.36-2.27 12 12 0 0 1 2.92.35 6 6 0 0 1 2.36 1.13l-1.43 3.58a5 5 0 0 0-1.64-.89 6 6 0 0 0-1.96-.3 4 4 0 0 0-3.16 1.15 4.8 4.8 0 0 0-1.08 3.39v3.49l.13 2.15V736Zm-4.45-22.08v-3.87h16.6v3.87Zm31.75 22.36a14 14 0 0 1-6.93-1.7 12.6 12.6 0 0 1-4.8-4.71 13.3 13.3 0 0 1-1.77-6.85 13 13 0 0 1 1.77-6.86 13 13 0 0 1 4.8-4.67 14 14 0 0 1 6.93-1.7 14 14 0 0 1 6.96 1.7 12.5 12.5 0 0 1 4.8 4.66 13.3 13.3 0 0 1 1.74 6.87 13.4 13.4 0 0 1-1.74 6.86 12.4 12.4 0 0 1-4.8 4.7 14 14 0 0 1-6.95 1.7Zm0-4.12a9 9 0 0 0 4.5-1.13 8 8 0 0 0 3.11-3.2 10 10 0 0 0 1.14-4.81 10 10 0 0 0-1.14-4.83 8 8 0 0 0-3.1-3.17 9 9 0 0 0-4.5-1.12 9 9 0 0 0-4.47 1.12 8.3 8.3 0 0 0-3.13 3.17 9.6 9.6 0 0 0-1.16 4.83 10 10 0 0 0 1.16 4.81 8.3 8.3 0 0 0 3.13 3.2 9 9 0 0 0 4.47 1.12Zm20.05 3.84v-36.36h4.7V736Zm13.66 0v-36.36h4.7V736Zm24.75.27a14 14 0 0 1-6.93-1.7 12.6 12.6 0 0 1-4.81-4.7 13.3 13.3 0 0 1-1.77-6.85 13 13 0 0 1 1.77-6.87 13 13 0 0 1 4.8-4.67 14 14 0 0 1 6.94-1.7 14 14 0 0 1 6.95 1.7 12.5 12.5 0 0 1 4.8 4.67 13.3 13.3 0 0 1 1.74 6.87 13.4 13.4 0 0 1-1.73 6.85 12.4 12.4 0 0 1-4.81 4.7 14 14 0 0 1-6.95 1.7m0-4.12a9 9 0 0 0 4.5-1.12 8 8 0 0 0 3.1-3.2 10 10 0 0 0 1.15-4.82 10 10 0 0 0-1.14-4.82 8 8 0 0 0-3.11-3.18 9 9 0 0 0-4.49-1.12 9 9 0 0 0-4.48 1.12 8.3 8.3 0 0 0-3.13 3.18 9.6 9.6 0 0 0-1.16 4.82 10 10 0 0 0 1.16 4.82 8.3 8.3 0 0 0 3.13 3.2 9 9 0 0 0 4.47 1.12m24.8 3.85-9.67-25.95h4.45l8.58 23.48h-2.1l8.89-23.48h3.99l8.72 23.48h-2.1l8.79-23.48h4.21l-9.7 25.95h-4.48l-8.18-21.46h1.37l-8.3 21.46Zm38.53 0v-25.97h4.7V736Zm2.35-30.97a3 3 0 0 1-2.28-.88 3 3 0 0 1-.9-2.16 3 3 0 0 1 .9-2.2 3 3 0 0 1 2.28-.88 3.2 3.2 0 0 1 2.28.86 2.8 2.8 0 0 1 .9 2.13 3 3 0 0 1-.88 2.23 3 3 0 0 1-2.3.9m25.17 4.74a12 12 0 0 1 5.6 1.23 9 9 0 0 1 3.82 3.71 13 13 0 0 1 1.39 6.34V736h-4.7v-14.4q0-3.8-1.84-5.71a7 7 0 0 0-5.2-1.92 9 9 0 0 0-4.33 1 7 7 0 0 0-2.87 2.9 10 10 0 0 0-1 4.73V736h-4.7v-25.95h4.5v7l-.76-1.85a9 9 0 0 1 3.94-4 13 13 0 0 1 6.15-1.43m30.86 36a25 25 0 0 1-6.92-.98 14 14 0 0 1-5.5-2.86l2.3-3.62a13 13 0 0 0 4.45 2.44 17 17 0 0 0 5.5.9q4.62 0 6.79-2.14t2.16-6.53v-5.52l.5-5.14-.29-5.17v-7.1h4.5v22.41q0 6.87-3.43 10.1t-10.07 3.22Zm-.57-10.85a14 14 0 0 1-6.76-1.6 12 12 0 0 1-4.7-4.42 12.4 12.4 0 0 1-1.73-6.58 12.4 12.4 0 0 1 1.72-6.58 12 12 0 0 1 4.7-4.4 14 14 0 0 1 6.77-1.57 13.4 13.4 0 0 1 6.05 1.36 10.5 10.5 0 0 1 4.39 4.15 13.6 13.6 0 0 1 1.65 7.04 13.6 13.6 0 0 1-1.65 7.03 10.6 10.6 0 0 1-4.39 4.18 13 13 0 0 1-6.05 1.39m.5-4.12a10 10 0 0 0 4.64-1.07 8 8 0 0 0 3.16-3 8.5 8.5 0 0 0 1.14-4.41 8.4 8.4 0 0 0-1.15-4.42 8 8 0 0 0-3.16-2.96 10 10 0 0 0-4.64-1.05 10 10 0 0 0-4.62 1.05 8 8 0 0 0-3.18 2.96 8.4 8.4 0 0 0-1.14 4.42 8.5 8.5 0 0 0 1.14 4.42 8 8 0 0 0 3.18 2.98 10 10 0 0 0 4.62 1.08Zm49.42 5.47a12 12 0 0 1-5.91-1.48 10.7 10.7 0 0 1-4.28-4.43 15 15 0 0 1-1.59-7.33 16 16 0 0 1 1.55-7.37 10.5 10.5 0 0 1 4.24-4.41 12 12 0 0 1 6-1.48 13.6 13.6 0 0 1 6.76 1.66 12 12 0 0 1 4.66 4.64 14 14 0 0 1 1.7 6.95 14 14 0 0 1-1.7 6.95 12 12 0 0 1-4.66 4.64 13.6 13.6 0 0 1-6.78 1.66Zm-13.75 9.23v-35.45h4.5v6.99l-.28 6.04.49 6.03v16.4Zm13.38-13.35a9 9 0 0 0 4.46-1.12 8 8 0 0 0 3.13-3.2 10 10 0 0 0 1.16-4.8 9.7 9.7 0 0 0-1.16-4.84 8.3 8.3 0 0 0-3.13-3.18 9 9 0 0 0-4.46-1.12 9 9 0 0 0-4.46 1.12 8.3 8.3 0 0 0-3.14 3.18 9.7 9.7 0 0 0-1.16 4.83 10 10 0 0 0 1.16 4.8 8 8 0 0 0 3.14 3.2 9 9 0 0 0 4.45 1.13Zm20.03 3.85v-25.95h4.5v7.04l-.47-1.76a8.2 8.2 0 0 1 3.65-4.13 13 13 0 0 1 6.27-1.43v4.58l-.55-.06q-.25-.02-.52-.02a8 8 0 0 0-5.97 2.26q-2.2 2.25-2.2 6.55V736Zm30.62.27a14 14 0 0 1-6.93-1.7 12.6 12.6 0 0 1-4.81-4.7 13.3 13.3 0 0 1-1.76-6.85 13 13 0 0 1 1.77-6.87 13 13 0 0 1 4.8-4.67 14 14 0 0 1 6.93-1.7 14 14 0 0 1 6.95 1.7 12.5 12.5 0 0 1 4.8 4.67 13.3 13.3 0 0 1 1.75 6.87 13.4 13.4 0 0 1-1.74 6.85 12.4 12.4 0 0 1-4.81 4.7 14 14 0 0 1-6.95 1.7m0-4.12a9 9 0 0 0 4.5-1.12 8 8 0 0 0 3.1-3.2 10 10 0 0 0 1.15-4.82 10 10 0 0 0-1.14-4.82 8 8 0 0 0-3.11-3.18 9 9 0 0 0-4.49-1.12 9 9 0 0 0-4.48 1.12 8.3 8.3 0 0 0-3.13 3.18 9.6 9.6 0 0 0-1.16 4.82 10 10 0 0 0 1.16 4.82 8.3 8.3 0 0 0 3.13 3.2 9 9 0 0 0 4.47 1.12m26.08 3.85-11.33-25.95h4.9l10.1 23.49h-2.39l10.31-23.5h4.6L3190.8 736Zm20.58 0v-25.97h4.7V736Zm2.35-30.97a3 3 0 0 1-2.28-.88 3 3 0 0 1-.9-2.16 3 3 0 0 1 .9-2.2 3 3 0 0 1 2.28-.88 3.2 3.2 0 0 1 2.28.86 2.8 2.8 0 0 1 .9 2.13 3 3 0 0 1-.87 2.23 3 3 0 0 1-2.3.9m22.04 31.24a13.6 13.6 0 0 1-6.75-1.66 12 12 0 0 1-4.67-4.64 14 14 0 0 1-1.7-6.95 14 14 0 0 1 1.7-6.95 12 12 0 0 1 4.67-4.63 13.6 13.6 0 0 1 6.75-1.67 12 12 0 0 1 5.94 1.48 11 11 0 0 1 4.25 4.4 15 15 0 0 1 1.6 7.36 16 16 0 0 1-1.56 7.35 10.5 10.5 0 0 1-4.21 4.44 12 12 0 0 1-6.02 1.47m.37-4.12a9 9 0 0 0 4.46-1.12 8 8 0 0 0 3.14-3.2 10 10 0 0 0 1.16-4.81 9.7 9.7 0 0 0-1.16-4.83 8 8 0 0 0-3.14-3.18 9 9 0 0 0-4.46-1.12 9 9 0 0 0-4.45 1.12 8.3 8.3 0 0 0-3.14 3.18 9.6 9.6 0 0 0-1.16 4.83 10 10 0 0 0 1.16 4.8 8.3 8.3 0 0 0 3.14 3.2 9 9 0 0 0 4.45 1.13m8.88 3.85v-7l.28-6.03-.49-6.04v-17.29h4.7V736Zm24.54.27a14 14 0 0 1-6.93-1.7 12.6 12.6 0 0 1-4.8-4.7 13.3 13.3 0 0 1-1.77-6.85 13 13 0 0 1 1.77-6.87 13 13 0 0 1 4.8-4.67 14 14 0 0 1 6.93-1.7 14 14 0 0 1 6.96 1.7 12.5 12.5 0 0 1 4.8 4.67 13.3 13.3 0 0 1 1.74 6.87 13.4 13.4 0 0 1-1.74 6.85 12.4 12.4 0 0 1-4.8 4.7 14 14 0 0 1-6.96 1.7m0-4.12a9 9 0 0 0 4.5-1.12 8 8 0 0 0 3.11-3.2 10 10 0 0 0 1.14-4.82 10 10 0 0 0-1.14-4.82 8 8 0 0 0-3.1-3.18 9 9 0 0 0-4.49-1.12 9 9 0 0 0-4.48 1.12 8.3 8.3 0 0 0-3.13 3.18 9.6 9.6 0 0 0-1.16 4.82 10 10 0 0 0 1.16 4.82 8.3 8.3 0 0 0 3.13 3.2 9 9 0 0 0 4.46 1.12m20.04 3.85v-25.95h4.5v7.04l-.47-1.76a8.2 8.2 0 0 1 3.64-4.13 13 13 0 0 1 6.28-1.42v4.58l-.56-.07q-.26-.03-.52-.02a8 8 0 0 0-5.97 2.26q-2.2 2.25-2.2 6.55V736Zm27.5.27a21 21 0 0 1-6.17-.88 15 15 0 0 1-4.6-2.14l2-3.73a15 15 0 0 0 4.11 1.94 16 16 0 0 0 5 .78 9 9 0 0 0 4.72-.95 2.9 2.9 0 0 0 1.46-2.58 2.3 2.3 0 0 0-.88-1.91 6 6 0 0 0-2.35-1.04q-1.46-.36-3.22-.62t-3.52-.67a13 13 0 0 1-3.21-1.18 6 6 0 0 1-2.35-2.13 6.4 6.4 0 0 1-.9-3.58 6.6 6.6 0 0 1 1.33-4.1 8.5 8.5 0 0 1 3.74-2.73 15 15 0 0 1 5.76-.98 22 22 0 0 1 5.18.63 14 14 0 0 1 4.28 1.72l-2 3.73a12 12 0 0 0-3.68-1.6 17 17 0 0 0-3.82-.44 8.5 8.5 0 0 0-4.6 1 3 3 0 0 0-1.51 2.56 2.5 2.5 0 0 0 .89 2.04 7 7 0 0 0 2.35 1.1 27 27 0 0 0 3.21.67q1.76.26 3.52.67a14 14 0 0 1 3.21 1.16 6 6 0 0 1 2.35 2.08 6 6 0 0 1 .9 3.5 6.4 6.4 0 0 1-1.37 4.09 8.6 8.6 0 0 1-3.85 2.66 17 17 0 0 1-5.98.93m18.2 0a3.2 3.2 0 0 1-2.33-.95 3.2 3.2 0 0 1-.97-2.4 3.2 3.2 0 0 1 .97-2.4 3.3 3.3 0 0 1 2.33-.94 3.2 3.2 0 0 1 2.3.93 3.2 3.2 0 0 1 .96 2.42 3.2 3.2 0 0 1-.96 2.39 3.2 3.2 0 0 1-2.3.95M820.17 2060l15.56-34.3h4.83l15.59 34.3h-5.14l-13.88-31.57h1.98L825.23 2060Zm6.61-8.56 1.36-3.95h19.29l1.4 3.95Zm39.26 8.56-11.33-25.95h4.9l10.1 23.49h-2.39l10.31-23.5h4.6L870.87 2060Zm31.42.27a15 15 0 0 1-7.33-1.7 12.3 12.3 0 0 1-4.9-4.7 13.4 13.4 0 0 1-1.74-6.84 13.7 13.7 0 0 1 1.69-6.85 12.3 12.3 0 0 1 4.64-4.7 13 13 0 0 1 6.7-1.7 13 13 0 0 1 6.65 1.68 12 12 0 0 1 4.55 4.68 14.4 14.4 0 0 1 1.64 7.02l-.02.7q-.02.4-.06.74h-22.1v-3.41h19.62l-1.88 1.19a8.6 8.6 0 0 0-1.05-4.45 8 8 0 0 0-2.98-3.04 8.5 8.5 0 0 0-4.36-1.11 8.6 8.6 0 0 0-4.38 1.1 7.7 7.7 0 0 0-2.98 3.07 9.4 9.4 0 0 0-1.06 4.55v.78a9 9 0 0 0 1.19 4.62 8 8 0 0 0 3.33 3.14 10.5 10.5 0 0 0 4.96 1.13 11 11 0 0 0 4.2-.78 9 9 0 0 0 3.3-2.36l2.59 3.05a11 11 0 0 1-4.36 3.12 15 15 0 0 1-5.86 1.07m18.45-.27v-25.95h4.5v7.04l-.47-1.76a8.2 8.2 0 0 1 3.64-4.13 13 13 0 0 1 6.28-1.43v4.58l-.56-.06-.52-.02a8 8 0 0 0-5.97 2.26q-2.2 2.25-2.2 6.55V2060Zm33.93 0v-5.49l-.2-1.04v-9.37a6 6 0 0 0-1.75-4.61 7.4 7.4 0 0 0-5.21-1.64 14 14 0 0 0-4.54.75 12 12 0 0 0-3.72 2.03l-1.97-3.5a14 14 0 0 1 4.84-2.5 20 20 0 0 1 5.92-.86q5.32 0 8.22 2.6t2.9 7.96V2060Zm-8.5.27a12.5 12.5 0 0 1-5.1-.96 7.7 7.7 0 0 1-3.34-2.71 7 7 0 0 1-1.18-3.97 7.4 7.4 0 0 1 1-3.81 7 7 0 0 1 3.3-2.75 15 15 0 0 1 6.12-1.04h8.24v3.41h-8.04q-3.48 0-4.72 1.17a3.8 3.8 0 0 0-1.24 2.84 3.6 3.6 0 0 0 1.53 3.07 7 7 0 0 0 4.23 1.13 9 9 0 0 0 4.62-1.17 6.7 6.7 0 0 0 2.88-3.44l.9 3.25a7.3 7.3 0 0 1-3.3 3.66 12 12 0 0 1-5.9 1.32m33.05 9.5a25 25 0 0 1-6.92-.97 14 14 0 0 1-5.5-2.86l2.3-3.63a13 13 0 0 0 4.45 2.45 17 17 0 0 0 5.5.9q4.62 0 6.79-2.15t2.17-6.53v-5.52l.49-5.14-.29-5.17v-7.1h4.5v22.41q0 6.87-3.43 10.1t-10.06 3.22m-.57-10.85a14 14 0 0 1-6.76-1.6 12 12 0 0 1-4.7-4.42 12.4 12.4 0 0 1-1.73-6.58 12.4 12.4 0 0 1 1.72-6.58 12 12 0 0 1 4.71-4.4 14 14 0 0 1 6.76-1.57 13.4 13.4 0 0 1 6.06 1.37 10.5 10.5 0 0 1 4.38 4.15 13.6 13.6 0 0 1 1.65 7.03 13.6 13.6 0 0 1-1.65 7.03 10.6 10.6 0 0 1-4.38 4.18 13 13 0 0 1-6.06 1.39m.5-4.12a10 10 0 0 0 4.64-1.07 8 8 0 0 0 3.16-2.99 8.5 8.5 0 0 0 1.14-4.42 8.4 8.4 0 0 0-1.14-4.42 8 8 0 0 0-3.16-2.96 10 10 0 0 0-4.64-1.05 10 10 0 0 0-4.62 1.05 8 8 0 0 0-3.18 2.96 8.4 8.4 0 0 0-1.14 4.42 8.5 8.5 0 0 0 1.14 4.42 8 8 0 0 0 3.18 2.99 10 10 0 0 0 4.62 1.07m34.07 5.47a15 15 0 0 1-7.32-1.7 12.3 12.3 0 0 1-4.9-4.7 13.4 13.4 0 0 1-1.75-6.84 13.7 13.7 0 0 1 1.69-6.85 12.3 12.3 0 0 1 4.64-4.7 13 13 0 0 1 6.7-1.7 13 13 0 0 1 6.65 1.67 12 12 0 0 1 4.55 4.68 14.4 14.4 0 0 1 1.64 7.02l-.02.7q-.02.4-.06.75h-22.1v-3.42h19.62l-1.88 1.2a8.6 8.6 0 0 0-1.05-4.46 8 8 0 0 0-2.98-3.04 8.5 8.5 0 0 0-4.36-1.1 8.6 8.6 0 0 0-4.38 1.1 7.7 7.7 0 0 0-2.98 3.06 9.4 9.4 0 0 0-1.06 4.55v.78a9 9 0 0 0 1.19 4.62 8 8 0 0 0 3.33 3.14 10.5 10.5 0 0 0 4.96 1.13 11 11 0 0 0 4.2-.78 9 9 0 0 0 3.3-2.36l2.59 3.05a11 11 0 0 1-4.36 3.13 15 15 0 0 1-5.86 1.07m43.17 0a15 15 0 0 1-7.33-1.7 12.3 12.3 0 0 1-4.9-4.7 13.4 13.4 0 0 1-1.74-6.84 13.7 13.7 0 0 1 1.68-6.85 12.3 12.3 0 0 1 4.65-4.7 13 13 0 0 1 6.7-1.7 13 13 0 0 1 6.65 1.68 12 12 0 0 1 4.54 4.68 14.4 14.4 0 0 1 1.65 7.02l-.02.7q-.02.4-.07.74h-22.1v-3.41h19.63l-1.89 1.19a8.6 8.6 0 0 0-1.04-4.45 8 8 0 0 0-2.98-3.04 8.5 8.5 0 0 0-4.36-1.11 8.6 8.6 0 0 0-4.38 1.1 7.7 7.7 0 0 0-2.98 3.07 9.4 9.4 0 0 0-1.06 4.55v.78a9 9 0 0 0 1.18 4.62 8 8 0 0 0 3.34 3.14 10.5 10.5 0 0 0 4.95 1.13 11 11 0 0 0 4.2-.78 9 9 0 0 0 3.3-2.36l2.6 3.05a11 11 0 0 1-4.37 3.12 15 15 0 0 1-5.86 1.07m29.8 9.5a25 25 0 0 1-6.92-.97 14 14 0 0 1-5.5-2.86l2.3-3.63a13 13 0 0 0 4.44 2.45 17 17 0 0 0 5.51.9q4.62 0 6.79-2.15t2.16-6.53v-5.52l.5-5.14-.3-5.17v-7.1h4.5v22.41q0 6.87-3.42 10.1t-10.07 3.22Zm-.57-10.85a14 14 0 0 1-6.76-1.6 12 12 0 0 1-4.71-4.42 12.4 12.4 0 0 1-1.73-6.58 12.4 12.4 0 0 1 1.73-6.58 12 12 0 0 1 4.7-4.4 14 14 0 0 1 6.76-1.57 13.4 13.4 0 0 1 6.06 1.37 10.5 10.5 0 0 1 4.38 4.15 13.6 13.6 0 0 1 1.66 7.03 13.6 13.6 0 0 1-1.66 7.03 10.6 10.6 0 0 1-4.38 4.18 13 13 0 0 1-6.06 1.39m.5-4.12a10 10 0 0 0 4.64-1.07 8 8 0 0 0 3.15-2.99 8.5 8.5 0 0 0 1.15-4.42 8.4 8.4 0 0 0-1.15-4.42 8 8 0 0 0-3.16-2.96 10 10 0 0 0-4.64-1.05 10 10 0 0 0-4.62 1.05 8 8 0 0 0-3.18 2.96 8.4 8.4 0 0 0-1.14 4.42 8.5 8.5 0 0 0 1.14 4.42 8 8 0 0 0 3.18 2.98 10 10 0 0 0 4.62 1.08Zm22.51 5.2v-25.95h4.5v7.04l-.47-1.76a8.2 8.2 0 0 1 3.64-4.13 13 13 0 0 1 6.28-1.43v4.58l-.56-.06-.52-.02a8 8 0 0 0-5.97 2.26q-2.2 2.25-2.2 6.55V2060Zm31.08.27a15 15 0 0 1-7.33-1.7 12.3 12.3 0 0 1-4.9-4.7 13.4 13.4 0 0 1-1.74-6.84 13.7 13.7 0 0 1 1.68-6.85 12.3 12.3 0 0 1 4.65-4.7 13 13 0 0 1 6.7-1.7 13 13 0 0 1 6.65 1.68 12 12 0 0 1 4.54 4.68 14.4 14.4 0 0 1 1.65 7.02l-.02.7q-.02.4-.06.74h-22.1v-3.41h19.62l-1.88 1.19a8.6 8.6 0 0 0-1.05-4.45 8 8 0 0 0-2.98-3.04 8.5 8.5 0 0 0-4.36-1.11 8.6 8.6 0 0 0-4.38 1.1 7.7 7.7 0 0 0-2.98 3.07 9.4 9.4 0 0 0-1.06 4.55v.78a9 9 0 0 0 1.18 4.61 8 8 0 0 0 3.34 3.14 10.5 10.5 0 0 0 4.95 1.12 11 11 0 0 0 4.2-.77 9 9 0 0 0 3.3-2.36l2.6 3.04a11 11 0 0 1-4.37 3.14 15 15 0 0 1-5.86 1.07Zm25.9 0a21 21 0 0 1-6.19-.88 15 15 0 0 1-4.59-2.14l2-3.72a15 15 0 0 0 4.11 1.93 16 16 0 0 0 5 .78 9 9 0 0 0 4.72-.95 2.9 2.9 0 0 0 1.47-2.58 2.3 2.3 0 0 0-.9-1.91 6 6 0 0 0-2.35-1.04q-1.46-.36-3.22-.62t-3.52-.67a13 13 0 0 1-3.21-1.18 6 6 0 0 1-2.35-2.13 6.4 6.4 0 0 1-.9-3.58 6.6 6.6 0 0 1 1.33-4.1 8.5 8.5 0 0 1 3.74-2.73 15 15 0 0 1 5.76-.98 22 22 0 0 1 5.18.63 14 14 0 0 1 4.28 1.72l-2 3.73a12 12 0 0 0-3.68-1.6 17 17 0 0 0-3.82-.44 8.5 8.5 0 0 0-4.6 1 3 3 0 0 0-1.51 2.56 2.5 2.5 0 0 0 .89 2.04 7 7 0 0 0 2.35 1.1 27 27 0 0 0 3.22.67q1.75.26 3.5.67a14 14 0 0 1 3.22 1.16 6 6 0 0 1 2.35 2.08 6 6 0 0 1 .9 3.5 6.4 6.4 0 0 1-1.37 4.09 8.6 8.6 0 0 1-3.85 2.66 17 17 0 0 1-5.97.93Zm24.54 0a21 21 0 0 1-6.18-.88 15 15 0 0 1-4.59-2.14l2-3.72a15 15 0 0 0 4.1 1.93 16 16 0 0 0 5 .78 9 9 0 0 0 4.73-.95 2.9 2.9 0 0 0 1.46-2.58 2.3 2.3 0 0 0-.89-1.91 6 6 0 0 0-2.35-1.04q-1.46-.36-3.21-.62t-3.52-.67a13 13 0 0 1-3.22-1.18 6 6 0 0 1-2.35-2.13 6.4 6.4 0 0 1-.9-3.58 6.6 6.6 0 0 1 1.33-4.1 8.5 8.5 0 0 1 3.75-2.74 15 15 0 0 1 5.76-.97 22 22 0 0 1 5.17.63 14 14 0 0 1 4.28 1.72l-2 3.72a12 12 0 0 0-3.68-1.59 17 17 0 0 0-3.82-.44 8.5 8.5 0 0 0-4.6 1 3 3 0 0 0-1.51 2.56 2.5 2.5 0 0 0 .89 2.03 7 7 0 0 0 2.35 1.11 27 27 0 0 0 3.22.67q1.76.26 3.51.67a14 14 0 0 1 3.22 1.16 6 6 0 0 1 2.35 2.07 6 6 0 0 1 .89 3.51 6.4 6.4 0 0 1-1.36 4.09 8.6 8.6 0 0 1-3.86 2.66 17 17 0 0 1-5.97.93m44.01 0a12 12 0 0 1-5.91-1.47 10.7 10.7 0 0 1-4.28-4.43 15 15 0 0 1-1.6-7.34 16 16 0 0 1 1.56-7.37 10.5 10.5 0 0 1 4.23-4.4 12 12 0 0 1 6-1.48 13.6 13.6 0 0 1 6.77 1.66 12 12 0 0 1 4.65 4.63 14 14 0 0 1 1.7 6.96 14 14 0 0 1-1.7 6.94 12 12 0 0 1-4.65 4.64 13.6 13.6 0 0 1-6.77 1.66m-13.75 9.24v-35.46h4.5v6.99l-.28 6.04.5 6.03v16.4Zm13.38-13.36a9 9 0 0 0 4.46-1.12 8 8 0 0 0 3.13-3.2 10 10 0 0 0 1.16-4.8 9.7 9.7 0 0 0-1.16-4.84 8.3 8.3 0 0 0-3.13-3.17 9 9 0 0 0-4.46-1.13 9 9 0 0 0-4.46 1.13 8.3 8.3 0 0 0-3.14 3.17 9.7 9.7 0 0 0-1.16 4.83 10 10 0 0 0 1.16 4.81 8 8 0 0 0 3.14 3.2 9 9 0 0 0 4.46 1.12M1249 2060v-25.95h4.5v7.04l-.47-1.76a8.2 8.2 0 0 1 3.64-4.13 13 13 0 0 1 6.28-1.43v4.58l-.56-.06-.52-.02a8 8 0 0 0-5.97 2.26q-2.2 2.25-2.2 6.55V2060Zm19.75 0v-25.97h4.7V2060Zm2.35-30.97a3 3 0 0 1-2.28-.88 3 3 0 0 1-.9-2.16 3 3 0 0 1 .9-2.2 3 3 0 0 1 2.28-.88 3.2 3.2 0 0 1 2.28.85 2.8 2.8 0 0 1 .9 2.14 3 3 0 0 1-.88 2.23 3 3 0 0 1-2.3.9m22.6 31.24a14.4 14.4 0 0 1-7.06-1.7 12.5 12.5 0 0 1-4.87-4.7 13 13 0 0 1-1.76-6.85 13 13 0 0 1 1.76-6.87 12.5 12.5 0 0 1 4.87-4.67 14.5 14.5 0 0 1 7.06-1.7 14 14 0 0 1 6.3 1.4 10 10 0 0 1 4.3 4.16l-3.58 2.27a8 8 0 0 0-3.1-2.8 9 9 0 0 0-3.97-.92 9 9 0 0 0-4.56 1.12 8 8 0 0 0-3.18 3.18 9.6 9.6 0 0 0-1.16 4.83 9.6 9.6 0 0 0 1.16 4.83 8 8 0 0 0 3.19 3.18 9 9 0 0 0 4.56 1.12 9 9 0 0 0 3.96-.9 8 8 0 0 0 3.1-2.81l3.58 2.26a10 10 0 0 1-4.3 4.15 13.6 13.6 0 0 1-6.3 1.42m27.86 0a15 15 0 0 1-7.32-1.7 12.3 12.3 0 0 1-4.9-4.7 13.4 13.4 0 0 1-1.75-6.84 13.7 13.7 0 0 1 1.69-6.85 12.3 12.3 0 0 1 4.64-4.7 13 13 0 0 1 6.7-1.7 13 13 0 0 1 6.65 1.68 12 12 0 0 1 4.54 4.68 14.4 14.4 0 0 1 1.65 7.02l-.02.7q-.02.4-.06.74h-22.1v-3.41h19.62l-1.88 1.19a8.6 8.6 0 0 0-1.05-4.45 8 8 0 0 0-2.98-3.04 8.5 8.5 0 0 0-4.36-1.11 8.6 8.6 0 0 0-4.38 1.1 7.7 7.7 0 0 0-2.98 3.07 9.4 9.4 0 0 0-1.06 4.55v.78a9 9 0 0 0 1.19 4.62 8 8 0 0 0 3.33 3.14 10.5 10.5 0 0 0 4.95 1.13 11 11 0 0 0 4.21-.78 9 9 0 0 0 3.3-2.36l2.59 3.05a11 11 0 0 1-4.37 3.12 15 15 0 0 1-5.85 1.07m25.9 0a21 21 0 0 1-6.18-.88 15 15 0 0 1-4.6-2.14l2-3.72a15 15 0 0 0 4.11 1.93 16 16 0 0 0 5 .78 9 9 0 0 0 4.72-.95 2.9 2.9 0 0 0 1.47-2.58 2.3 2.3 0 0 0-.9-1.91 6 6 0 0 0-2.34-1.04q-1.46-.36-3.22-.62t-3.52-.67a13 13 0 0 1-3.22-1.18 6 6 0 0 1-2.35-2.13 6.4 6.4 0 0 1-.89-3.58 6.6 6.6 0 0 1 1.32-4.1 8.5 8.5 0 0 1 3.75-2.74 15 15 0 0 1 5.76-.97 22 22 0 0 1 5.17.63 14 14 0 0 1 4.29 1.72l-2 3.72a12 12 0 0 0-3.68-1.59 17 17 0 0 0-3.82-.44 8.5 8.5 0 0 0-4.6 1 3 3 0 0 0-1.52 2.56 2.5 2.5 0 0 0 .9 2.03 7 7 0 0 0 2.34 1.11 27 27 0 0 0 3.22.67q1.76.26 3.51.67a14 14 0 0 1 3.22 1.16 6 6 0 0 1 2.35 2.07 6 6 0 0 1 .89 3.51 6.4 6.4 0 0 1-1.36 4.09 8.6 8.6 0 0 1-3.86 2.66 17 17 0 0 1-5.97.93m46.34-.27v-5.49l-.2-1.04v-9.37a6 6 0 0 0-1.75-4.61 7.4 7.4 0 0 0-5.22-1.64 14 14 0 0 0-4.53.75 12 12 0 0 0-3.73 2.03l-1.97-3.5a14 14 0 0 1 4.85-2.5 20 20 0 0 1 5.91-.86q5.32 0 8.23 2.6t2.9 7.96V2060Zm-8.5.27a12.5 12.5 0 0 1-5.1-.96 7.7 7.7 0 0 1-3.34-2.71 7 7 0 0 1-1.18-3.97 7.4 7.4 0 0 1 1-3.81 7 7 0 0 1 3.3-2.75 15 15 0 0 1 6.12-1.04h8.24v3.41h-8.04q-3.48 0-4.72 1.17a3.8 3.8 0 0 0-1.24 2.84 3.6 3.6 0 0 0 1.53 3.07 7 7 0 0 0 4.23 1.13 9 9 0 0 0 4.62-1.17 6.7 6.7 0 0 0 2.88-3.44l.9 3.25a7.3 7.3 0 0 1-3.3 3.66 12 12 0 0 1-5.9 1.32m29.14 0a21 21 0 0 1-6.17-.88 15 15 0 0 1-4.6-2.14l2-3.72a15 15 0 0 0 4.11 1.93 16 16 0 0 0 5 .78 9 9 0 0 0 4.72-.95 2.9 2.9 0 0 0 1.47-2.58 2.3 2.3 0 0 0-.9-1.91 6 6 0 0 0-2.34-1.04q-1.46-.36-3.22-.62t-3.52-.67a13 13 0 0 1-3.22-1.18 6 6 0 0 1-2.35-2.13 6.4 6.4 0 0 1-.89-3.58 6.6 6.6 0 0 1 1.32-4.1 8.5 8.5 0 0 1 3.75-2.74 15 15 0 0 1 5.76-.97 22 22 0 0 1 5.17.63 14 14 0 0 1 4.28 1.72l-2 3.72a12 12 0 0 0-3.68-1.59 17 17 0 0 0-3.82-.44 8.5 8.5 0 0 0-4.6 1 3 3 0 0 0-1.5 2.56 2.5 2.5 0 0 0 .88 2.03 7 7 0 0 0 2.35 1.11 27 27 0 0 0 3.22.67q1.76.26 3.51.67a14 14 0 0 1 3.22 1.16 6 6 0 0 1 2.35 2.07 6 6 0 0 1 .89 3.51 6.4 6.4 0 0 1-1.36 4.09 8.6 8.6 0 0 1-3.86 2.66 17 17 0 0 1-5.96.93Zm41.36 0a14 14 0 0 1-6.93-1.7 12.6 12.6 0 0 1-4.81-4.7 13.3 13.3 0 0 1-1.76-6.85 13 13 0 0 1 1.77-6.86 13 13 0 0 1 4.8-4.68 14 14 0 0 1 6.93-1.7 14 14 0 0 1 6.95 1.7 12.5 12.5 0 0 1 4.8 4.67 13.3 13.3 0 0 1 1.75 6.87 13.4 13.4 0 0 1-1.74 6.85 12.4 12.4 0 0 1-4.81 4.7 14 14 0 0 1-6.95 1.7m0-4.12a9 9 0 0 0 4.5-1.12 8 8 0 0 0 3.1-3.2 10 10 0 0 0 1.15-4.82 10 10 0 0 0-1.14-4.82 8 8 0 0 0-3.11-3.18 9 9 0 0 0-4.49-1.12 9 9 0 0 0-4.47 1.12 8.3 8.3 0 0 0-3.14 3.18 9.6 9.6 0 0 0-1.16 4.82 10 10 0 0 0 1.16 4.82 8.3 8.3 0 0 0 3.13 3.2 9 9 0 0 0 4.47 1.12m20.72 3.85v-28.3a8.3 8.3 0 0 1 2.22-6.06 8.5 8.5 0 0 1 6.35-2.27 12 12 0 0 1 2.93.35 6 6 0 0 1 2.35 1.13l-1.43 3.58a5 5 0 0 0-1.64-.89 6 6 0 0 0-1.95-.3 4 4 0 0 0-3.17 1.15 4.8 4.8 0 0 0-1.07 3.39v3.48l.12 2.16V2060Zm-4.44-22.08v-3.87h16.6v3.87Zm29.7 22.08 15.55-34.3h4.83l15.6 34.3h-5.15l-13.88-31.57h1.98l-13.87 31.57Zm6.6-8.56 1.37-3.95h19.28l1.4 3.95Zm47.54 8.83a12 12 0 0 1-5.91-1.47 10.7 10.7 0 0 1-4.27-4.43 15 15 0 0 1-1.6-7.34 16 16 0 0 1 1.55-7.37 10.5 10.5 0 0 1 4.24-4.4 12 12 0 0 1 6-1.48 13.6 13.6 0 0 1 6.76 1.66 12 12 0 0 1 4.66 4.64 14 14 0 0 1 1.7 6.95 14 14 0 0 1-1.7 6.95 12 12 0 0 1-4.66 4.63 13.6 13.6 0 0 1-6.77 1.66m-13.75 9.24v-35.46h4.5v6.99l-.28 6.04.5 6.03v16.4Zm13.38-13.36a9 9 0 0 0 4.46-1.12 8 8 0 0 0 3.13-3.2 10 10 0 0 0 1.16-4.8 9.7 9.7 0 0 0-1.16-4.84 8.3 8.3 0 0 0-3.13-3.17 9 9 0 0 0-4.46-1.13 9 9 0 0 0-4.46 1.13 8.3 8.3 0 0 0-3.13 3.17 9.7 9.7 0 0 0-1.17 4.83 10 10 0 0 0 1.16 4.81 8 8 0 0 0 3.14 3.2 9 9 0 0 0 4.46 1.12m20.04 3.85v-25.95h4.5v7.04l-.47-1.76a8.2 8.2 0 0 1 3.64-4.13 13 13 0 0 1 6.28-1.43v4.58l-.56-.06-.52-.02a8 8 0 0 0-5.97 2.26q-2.2 2.25-2.2 6.55V2060Zm19.75 0v-25.97h4.7V2060Zm2.35-30.97a3 3 0 0 1-2.28-.88 3 3 0 0 1-.9-2.16 3 3 0 0 1 .9-2.2 3 3 0 0 1 2.28-.88 3.2 3.2 0 0 1 2.28.85 2.8 2.8 0 0 1 .9 2.14 3 3 0 0 1-.87 2.22 3 3 0 0 1-2.3.91m11.32 30.97v-36.36h4.7V2060Zm24.16 0v-3.34l13.98-13.47a20 20 0 0 0 2.75-3.1 9 9 0 0 0 1.23-2.52 9 9 0 0 0 .31-2.2 5.1 5.1 0 0 0-1.85-4.18 8.4 8.4 0 0 0-5.43-1.52 13 13 0 0 0-4.98.9 10 10 0 0 0-3.82 2.8l-3.34-2.87a13 13 0 0 1 5.3-3.85 19 19 0 0 1 7.26-1.35 15.5 15.5 0 0 1 6.25 1.16 9 9 0 0 1 4.08 3.3 9 9 0 0 1 1.44 5.1 12 12 0 0 1-.44 3.28 12 12 0 0 1-1.66 3.44 26 26 0 0 1-3.56 4.06l-12.42 12-1.17-1.88h20.7v4.24Zm42.64.4a13 13 0 0 1-7.17-2.07 14 14 0 0 1-5-5.98 22 22 0 0 1-1.82-9.5 22 22 0 0 1 1.82-9.48 14 14 0 0 1 5-6 13 13 0 0 1 7.17-2.06 13 13 0 0 1 7.17 2.07 14 14 0 0 1 5 5.99 22 22 0 0 1 1.83 9.49 22 22 0 0 1-1.83 9.49 14 14 0 0 1-5 5.98 13 13 0 0 1-7.17 2.07m0-4.37a8 8 0 0 0 4.75-1.47 9.5 9.5 0 0 0 3.19-4.4 20 20 0 0 0 1.14-7.3 20 20 0 0 0-1.14-7.32 9.5 9.5 0 0 0-3.19-4.4 8 8 0 0 0-4.75-1.47 8 8 0 0 0-4.73 1.47 9.5 9.5 0 0 0-3.2 4.4 20 20 0 0 0-1.15 7.32 20 20 0 0 0 1.14 7.3 9.4 9.4 0 0 0 3.21 4.4 8 8 0 0 0 4.73 1.47m18.16 3.97v-3.34l13.98-13.47a20 20 0 0 0 2.75-3.1 9 9 0 0 0 1.23-2.52 9 9 0 0 0 .31-2.2 5.1 5.1 0 0 0-1.85-4.18 8.4 8.4 0 0 0-5.43-1.52 13 13 0 0 0-4.98.9 10 10 0 0 0-3.82 2.8l-3.33-2.87a13 13 0 0 1 5.28-3.85 19 19 0 0 1 7.27-1.35 15.5 15.5 0 0 1 6.25 1.16 9 9 0 0 1 4.09 3.3 9 9 0 0 1 1.43 5.1 12 12 0 0 1-.44 3.28 12 12 0 0 1-1.66 3.44 26 26 0 0 1-3.56 4.06l-12.42 12-1.16-1.88h20.7v4.24Zm39.2.4a22 22 0 0 1-7.06-1.12 16 16 0 0 1-5.58-3.07l2.25-3.86a14 14 0 0 0 4.5 2.65 16 16 0 0 0 5.84 1.03 9.6 9.6 0 0 0 5.98-1.65 5.3 5.3 0 0 0 2.12-4.4 5.3 5.3 0 0 0-2.03-4.35q-2.03-1.63-6.42-1.63h-2.76v-3.47l10.17-12.5.72 1.92h-18.8v-4.25h22.67v3.34l-10.16 12.5-2.54-1.54h1.6q6.24 0 9.35 2.8a9.2 9.2 0 0 1 3.11 7.13 10 10 0 0 1-1.42 5.27 10 10 0 0 1-4.3 3.8 16.5 16.5 0 0 1-7.25 1.4m32.8-.4v-25.97h4.7V2060Zm2.36-30.97a3 3 0 0 1-2.28-.88 3 3 0 0 1-.9-2.16 3 3 0 0 1 .9-2.2 3 3 0 0 1 2.28-.88 3.2 3.2 0 0 1 2.28.85 2.8 2.8 0 0 1 .9 2.14 3 3 0 0 1-.88 2.23 3 3 0 0 1-2.3.9m25.17 4.74a12 12 0 0 1 5.6 1.23 9 9 0 0 1 3.8 3.72 13 13 0 0 1 1.4 6.34V2060h-4.7v-14.4q0-3.8-1.84-5.71a7 7 0 0 0-5.2-1.91 9 9 0 0 0-4.33 1 7 7 0 0 0-2.87 2.9 10 10 0 0 0-1 4.72v13.4h-4.7v-25.95h4.5v7l-.76-1.85a9 9 0 0 1 3.94-4 13 13 0 0 1 6.16-1.42Zm37.8 6.73h17.63v4.16h-17.63Zm.41 15.26h20.03v4.24h-24.9v-34.3h24.21v4.24h-19.34Zm37.87 4.51a13 13 0 0 1-5.88-1.22 9 9 0 0 1-3.9-3.74 13 13 0 0 1-1.4-6.32v-14.94h4.7v14.4q0 3.8 1.83 5.7a6.8 6.8 0 0 0 5.17 1.92 9 9 0 0 0 4.25-1 7 7 0 0 0 2.8-2.93 10 10 0 0 0 1-4.7v-13.4h4.7V2060h-4.5v-6.99l.76 1.84a9 9 0 0 1-3.83 4 11.5 11.5 0 0 1-5.7 1.42m22.23-.27v-25.95h4.5v7.04l-.47-1.76a8.2 8.2 0 0 1 3.64-4.13 13 13 0 0 1 6.28-1.42v4.58l-.56-.07q-.26-.03-.52-.02a8 8 0 0 0-5.97 2.26q-2.2 2.25-2.2 6.55V2060Zm30.61.27a14 14 0 0 1-6.93-1.7 12.6 12.6 0 0 1-4.8-4.7 13.3 13.3 0 0 1-1.77-6.85 13 13 0 0 1 1.77-6.86 13 13 0 0 1 4.8-4.68 14 14 0 0 1 6.93-1.7 14 14 0 0 1 6.96 1.7 12.5 12.5 0 0 1 4.8 4.67 13.3 13.3 0 0 1 1.74 6.87 13.4 13.4 0 0 1-1.74 6.85 12.4 12.4 0 0 1-4.8 4.7 14 14 0 0 1-6.96 1.7m0-4.12a9 9 0 0 0 4.5-1.12 8 8 0 0 0 3.11-3.2 10 10 0 0 0 1.14-4.82 10 10 0 0 0-1.14-4.82 8 8 0 0 0-3.1-3.18 9 9 0 0 0-4.5-1.12 9 9 0 0 0-4.47 1.12 8.3 8.3 0 0 0-3.13 3.18 9.6 9.6 0 0 0-1.16 4.82 10 10 0 0 0 1.16 4.82 8.3 8.3 0 0 0 3.13 3.2 9 9 0 0 0 4.46 1.12m33.79 4.12a12 12 0 0 1-5.91-1.47 10.7 10.7 0 0 1-4.27-4.43 15 15 0 0 1-1.6-7.34 16 16 0 0 1 1.55-7.37 10.5 10.5 0 0 1 4.24-4.4 12 12 0 0 1 6-1.48 13.6 13.6 0 0 1 6.76 1.66 12 12 0 0 1 4.66 4.64 14 14 0 0 1 1.7 6.95 14 14 0 0 1-1.7 6.95 12 12 0 0 1-4.66 4.63 13.6 13.6 0 0 1-6.77 1.66m-13.75 9.24v-35.46h4.5v6.99l-.28 6.04.49 6.03v16.4Zm13.38-13.36a9 9 0 0 0 4.46-1.12 8 8 0 0 0 3.13-3.2 10 10 0 0 0 1.16-4.8 9.7 9.7 0 0 0-1.16-4.84 8.3 8.3 0 0 0-3.13-3.17 9 9 0 0 0-4.46-1.13 9 9 0 0 0-4.46 1.13 8.3 8.3 0 0 0-3.14 3.17 9.7 9.7 0 0 0-1.16 4.83 10 10 0 0 0 1.16 4.81 8 8 0 0 0 3.14 3.2 9 9 0 0 0 4.46 1.12m31.6 4.12a15 15 0 0 1-7.33-1.7 12.3 12.3 0 0 1-4.9-4.7 13.4 13.4 0 0 1-1.74-6.84 13.7 13.7 0 0 1 1.68-6.85 12.3 12.3 0 0 1 4.65-4.7 13 13 0 0 1 6.7-1.7 13 13 0 0 1 6.65 1.68 12 12 0 0 1 4.54 4.68 14.4 14.4 0 0 1 1.65 7.02l-.02.7q-.02.4-.06.74h-22.1v-3.41h19.62l-1.88 1.19a8.6 8.6 0 0 0-1.05-4.45 8 8 0 0 0-2.98-3.05 8.5 8.5 0 0 0-4.36-1.1 8.6 8.6 0 0 0-4.38 1.1 7.7 7.7 0 0 0-2.98 3.07 9.4 9.4 0 0 0-1.06 4.55v.78a9 9 0 0 0 1.19 4.62 8 8 0 0 0 3.33 3.14 10.5 10.5 0 0 0 4.95 1.12 11 11 0 0 0 4.21-.77 9 9 0 0 0 3.3-2.36l2.59 3.05a11 11 0 0 1-4.37 3.12 15 15 0 0 1-5.85 1.07m42.7 0a14 14 0 0 1-6.93-1.7 12.6 12.6 0 0 1-4.81-4.71 13.3 13.3 0 0 1-1.76-6.85 13 13 0 0 1 1.77-6.86 13 13 0 0 1 4.8-4.67 14 14 0 0 1 6.93-1.7 14 14 0 0 1 6.96 1.7 12.5 12.5 0 0 1 4.8 4.66 13.3 13.3 0 0 1 1.74 6.87 13.4 13.4 0 0 1-1.74 6.86 12.4 12.4 0 0 1-4.8 4.7 14 14 0 0 1-6.97 1.7Zm0-4.12a9 9 0 0 0 4.5-1.12 8 8 0 0 0 3.1-3.2 10 10 0 0 0 1.15-4.82 10 10 0 0 0-1.14-4.82 8 8 0 0 0-3.11-3.18 9 9 0 0 0-4.48-1.12 9 9 0 0 0-4.48 1.12 8.3 8.3 0 0 0-3.14 3.18 9.6 9.6 0 0 0-1.16 4.82 10 10 0 0 0 1.16 4.82 8.3 8.3 0 0 0 3.13 3.2 9 9 0 0 0 4.46 1.12Zm20.04 3.85v-25.95h4.5v7.04l-.47-1.76a8.2 8.2 0 0 1 3.64-4.13 13 13 0 0 1 6.28-1.43v4.58l-.56-.06-.52-.02a8 8 0 0 0-5.97 2.26q-2.2 2.25-2.2 6.55V2060Zm33.92 0v-34.3h4.02l22.66 28.17h-2.07v-28.17h4.87v34.3h-4.02l-22.66-28.17h2.07V2060Zm50.2.27a14 14 0 0 1-6.94-1.7 12.6 12.6 0 0 1-4.8-4.7 13.3 13.3 0 0 1-1.77-6.85 13 13 0 0 1 1.77-6.86 13 13 0 0 1 4.8-4.68 14 14 0 0 1 6.93-1.7 14 14 0 0 1 6.96 1.7 12.5 12.5 0 0 1 4.8 4.67 13.3 13.3 0 0 1 1.74 6.87 13.4 13.4 0 0 1-1.74 6.85 12.4 12.4 0 0 1-4.8 4.7 14 14 0 0 1-6.96 1.7Zm0-4.12a9 9 0 0 0 4.5-1.12 8 8 0 0 0 3.1-3.2 10 10 0 0 0 1.14-4.82 10 10 0 0 0-1.14-4.82 8 8 0 0 0-3.1-3.18 9 9 0 0 0-4.49-1.12 9 9 0 0 0-4.48 1.12 8.3 8.3 0 0 0-3.13 3.18 9.6 9.6 0 0 0-1.16 4.82 10 10 0 0 0 1.16 4.82 8.3 8.3 0 0 0 3.13 3.2 9 9 0 0 0 4.46 1.12Zm20.04 3.85v-25.95h4.5v7.04l-.47-1.76a8.2 8.2 0 0 1 3.64-4.13 13 13 0 0 1 6.28-1.43v4.58l-.56-.06-.52-.02a8 8 0 0 0-5.97 2.26q-2.2 2.25-2.2 6.55V2060Zm29.74.27a8.4 8.4 0 0 1-6.09-2.09 8 8 0 0 1-2.15-6.03v-23.8h4.7v23.63a4.5 4.5 0 0 0 1.06 3.2 4 4 0 0 0 3.02 1.14 5.5 5.5 0 0 0 3.64-1.2l1.47 3.38a7 7 0 0 1-2.56 1.33 11 11 0 0 1-3.1.44m-12.68-22.35v-3.87h16.6v3.87Zm37.9-4.15a12 12 0 0 1 5.6 1.23 9 9 0 0 1 3.81 3.72 13 13 0 0 1 1.4 6.34V2060h-4.7v-14.4q0-3.8-1.84-5.71a7 7 0 0 0-5.2-1.91 9 9 0 0 0-4.33 1 7 7 0 0 0-2.87 2.9 10 10 0 0 0-1 4.72v13.4h-4.7v-36.36h4.7v17.4l-.97-1.84a9 9 0 0 1 3.94-4 13 13 0 0 1 6.16-1.42m28.14 26.23 15.55-34.3h4.83l15.6 34.3h-5.15l-13.88-31.57h1.98L2242.5 2060Zm6.6-8.56 1.37-3.95h19.28l1.4 3.95Zm66.25-17.66a12 12 0 0 1 5.56 1.22 8.7 8.7 0 0 1 3.73 3.72 13 13 0 0 1 1.35 6.34V2060h-4.7v-14.4q0-3.8-1.75-5.71a6.4 6.4 0 0 0-4.96-1.91 8 8 0 0 0-4.1 1 6.7 6.7 0 0 0-2.72 2.9 10.5 10.5 0 0 0-.96 4.72v13.4h-4.7v-14.4q0-3.8-1.75-5.71a6.4 6.4 0 0 0-4.96-1.91 8 8 0 0 0-4.1 1 6.7 6.7 0 0 0-2.72 2.9 10.5 10.5 0 0 0-.96 4.72v13.4h-4.7v-25.95h4.5v6.9l-.76-1.76a9 9 0 0 1 3.8-4 12 12 0 0 1 5.93-1.42 11 11 0 0 1 6.4 1.84 8.8 8.8 0 0 1 3.54 5.56l-1.92-.76a10 10 0 0 1 4.11-4.8 12.7 12.7 0 0 1 6.84-1.83m30.9 26.5a15 15 0 0 1-7.33-1.7 12.3 12.3 0 0 1-4.9-4.7 13.4 13.4 0 0 1-1.74-6.85 13.7 13.7 0 0 1 1.68-6.85 12.3 12.3 0 0 1 4.65-4.7 13 13 0 0 1 6.7-1.7 13 13 0 0 1 6.65 1.67 12 12 0 0 1 4.55 4.68 14.4 14.4 0 0 1 1.64 7.02l-.02.7q-.02.4-.06.75h-22.11v-3.42h19.62l-1.88 1.2a8.6 8.6 0 0 0-1.05-4.46 8 8 0 0 0-2.98-3.04 8.5 8.5 0 0 0-4.36-1.1 8.6 8.6 0 0 0-4.38 1.1 7.7 7.7 0 0 0-2.97 3.06 9.4 9.4 0 0 0-1.07 4.55v.78a9 9 0 0 0 1.19 4.62 8 8 0 0 0 3.34 3.14 10.5 10.5 0 0 0 4.95 1.13 11 11 0 0 0 4.2-.78 9 9 0 0 0 3.3-2.36l2.6 3.05a11 11 0 0 1-4.37 3.13 15 15 0 0 1-5.86 1.07m18.44-.28v-25.95h4.5v7.04l-.47-1.76a8.2 8.2 0 0 1 3.64-4.13 13 13 0 0 1 6.28-1.42v4.58l-.56-.07q-.26-.03-.52-.02a8 8 0 0 0-5.97 2.26q-2.2 2.25-2.2 6.55V2060Zm19.75 0v-25.97h4.7V2060Zm2.35-30.97a3 3 0 0 1-2.28-.88 3 3 0 0 1-.9-2.16 3 3 0 0 1 .9-2.2 3 3 0 0 1 2.28-.88 3.2 3.2 0 0 1 2.28.85 2.8 2.8 0 0 1 .9 2.14 3 3 0 0 1-.87 2.23 3 3 0 0 1-2.3.9m22.6 31.24a14.4 14.4 0 0 1-7.05-1.7 12.5 12.5 0 0 1-4.87-4.7 13 13 0 0 1-1.76-6.85 13 13 0 0 1 1.76-6.87 12.5 12.5 0 0 1 4.87-4.67 14.5 14.5 0 0 1 7.05-1.7 14 14 0 0 1 6.3 1.4 10 10 0 0 1 4.3 4.16l-3.58 2.27a8 8 0 0 0-3.1-2.8 9 9 0 0 0-3.96-.92 9 9 0 0 0-4.56 1.12 8 8 0 0 0-3.18 3.18 9.6 9.6 0 0 0-1.16 4.83 9.6 9.6 0 0 0 1.16 4.83 8 8 0 0 0 3.18 3.18 9 9 0 0 0 4.56 1.12 9 9 0 0 0 3.96-.9 8 8 0 0 0 3.1-2.81l3.58 2.26a10 10 0 0 1-4.3 4.14 13.6 13.6 0 0 1-6.3 1.43m32.8-.27v-5.49l-.2-1.04v-9.37a6 6 0 0 0-1.75-4.61 7.4 7.4 0 0 0-5.21-1.64 14 14 0 0 0-4.54.75 12 12 0 0 0-3.72 2.03l-1.97-3.5a14 14 0 0 1 4.84-2.5 20 20 0 0 1 5.92-.86q5.31 0 8.22 2.6t2.9 7.96V2060Zm-8.5.27a12.5 12.5 0 0 1-5.1-.96 7.7 7.7 0 0 1-3.35-2.71 7 7 0 0 1-1.17-3.97 7.4 7.4 0 0 1 1-3.81 7 7 0 0 1 3.3-2.75 15 15 0 0 1 6.12-1.04h8.24v3.41h-8.04q-3.48 0-4.72 1.17a3.8 3.8 0 0 0-1.24 2.84 3.6 3.6 0 0 0 1.53 3.07 7 7 0 0 0 4.22 1.13 9 9 0 0 0 4.63-1.17 6.7 6.7 0 0 0 2.88-3.44l.9 3.25a7.3 7.3 0 0 1-3.3 3.66 12 12 0 0 1-5.9 1.32m22.8 0a3.2 3.2 0 0 1-2.33-.95 3.2 3.2 0 0 1-.97-2.4 3.2 3.2 0 0 1 .97-2.4 3.3 3.3 0 0 1 2.33-.93 3.2 3.2 0 0 1 2.3.92 3.2 3.2 0 0 1 .96 2.42 3.2 3.2 0 0 1-.97 2.39 3.2 3.2 0 0 1-2.3.95m23.85-.27v-34.3h14.43a21 21 0 0 1 9.7 2.17 16 16 0 0 1 6.5 6.02 17 17 0 0 1 2.34 8.96 17 17 0 0 1-2.34 8.97 16 16 0 0 1-6.51 6.01 21 21 0 0 1-9.7 2.17Zm4.86-4.24h9.3a15.6 15.6 0 0 0 7.36-1.63 12 12 0 0 0 4.82-4.54 13 13 0 0 0 1.71-6.74 13 13 0 0 0-1.71-6.76 12 12 0 0 0-4.82-4.52 15.6 15.6 0 0 0-7.35-1.63h-9.3Zm51.02 4.24v-5.49l-.2-1.04v-9.37a6 6 0 0 0-1.75-4.61 7.4 7.4 0 0 0-5.22-1.64 14 14 0 0 0-4.53.75 12 12 0 0 0-3.73 2.03l-1.96-3.5a14 14 0 0 1 4.84-2.5 20 20 0 0 1 5.91-.86q5.32 0 8.23 2.6t2.9 7.96V2060Zm-8.5.27a12.5 12.5 0 0 1-5.1-.96 7.7 7.7 0 0 1-3.34-2.71 7 7 0 0 1-1.18-3.97 7.4 7.4 0 0 1 1-3.81 7 7 0 0 1 3.3-2.75 15 15 0 0 1 6.12-1.04h8.24v3.41h-8.04q-3.48 0-4.72 1.17a3.8 3.8 0 0 0-1.24 2.84 3.6 3.6 0 0 0 1.53 3.07 7 7 0 0 0 4.22 1.13 9 9 0 0 0 4.63-1.17 6.7 6.7 0 0 0 2.87-3.43l.9 3.24a7.3 7.3 0 0 1-3.29 3.66 12 12 0 0 1-5.9 1.32m30.62 0a8.4 8.4 0 0 1-6.1-2.09 8 8 0 0 1-2.14-6.03v-23.8h4.7v23.63a4.5 4.5 0 0 0 1.06 3.2 4 4 0 0 0 3.02 1.14 5.5 5.5 0 0 0 3.64-1.2l1.47 3.38a7 7 0 0 1-2.56 1.33 11 11 0 0 1-3.1.44m-12.68-22.35v-3.87h16.6v3.87Zm40.14 22.08v-5.49l-.2-1.04v-9.37a6 6 0 0 0-1.75-4.61 7.4 7.4 0 0 0-5.22-1.64 14 14 0 0 0-4.53.75 12 12 0 0 0-3.73 2.03l-1.97-3.5a14 14 0 0 1 4.85-2.5 20 20 0 0 1 5.91-.86q5.32 0 8.23 2.6t2.9 7.96V2060Zm-8.5.27a12.5 12.5 0 0 1-5.1-.96 7.7 7.7 0 0 1-3.34-2.71 7 7 0 0 1-1.18-3.97 7.4 7.4 0 0 1 1-3.81 7 7 0 0 1 3.3-2.75 15 15 0 0 1 6.12-1.04h8.24v3.41h-8.04q-3.48 0-4.72 1.17a3.8 3.8 0 0 0-1.24 2.84 3.6 3.6 0 0 0 1.53 3.07 7 7 0 0 0 4.22 1.13 9 9 0 0 0 4.63-1.17 6.7 6.7 0 0 0 2.87-3.44l.9 3.25a7.3 7.3 0 0 1-3.29 3.66 12 12 0 0 1-5.9 1.32m35.54-.27v-28.3a8.3 8.3 0 0 1 2.21-6.06 8.5 8.5 0 0 1 6.36-2.27 12 12 0 0 1 2.92.35 6 6 0 0 1 2.36 1.13l-1.43 3.59a5 5 0 0 0-1.64-.9 6 6 0 0 0-1.95-.3 4 4 0 0 0-3.17 1.15 4.8 4.8 0 0 0-1.07 3.4v3.48l.12 2.15V2060Zm-4.44-22.08v-3.87h16.6v3.87Zm21.07 22.08v-25.95h4.5v7.04l-.47-1.76a8.2 8.2 0 0 1 3.64-4.13 13 13 0 0 1 6.28-1.43v4.58l-.56-.06-.52-.02a8 8 0 0 0-5.97 2.26q-2.2 2.25-2.2 6.55V2060Zm30.6.27a14 14 0 0 1-6.92-1.7 12.6 12.6 0 0 1-4.81-4.7 13.3 13.3 0 0 1-1.76-6.85 13 13 0 0 1 1.77-6.86 13 13 0 0 1 4.8-4.68 14 14 0 0 1 6.93-1.7 14 14 0 0 1 6.95 1.7 12.5 12.5 0 0 1 4.8 4.67 13.3 13.3 0 0 1 1.75 6.87 13.4 13.4 0 0 1-1.74 6.85 12.4 12.4 0 0 1-4.8 4.7 14 14 0 0 1-6.96 1.7m0-4.12a9 9 0 0 0 4.5-1.12 8 8 0 0 0 3.12-3.2 10 10 0 0 0 1.14-4.82 10 10 0 0 0-1.14-4.82 8 8 0 0 0-3.11-3.18 9 9 0 0 0-4.48-1.12 9 9 0 0 0-4.48 1.12 8.3 8.3 0 0 0-3.13 3.18 9.6 9.6 0 0 0-1.17 4.82 10 10 0 0 0 1.16 4.82 8.3 8.3 0 0 0 3.13 3.2 9 9 0 0 0 4.47 1.12m52.5-22.37a12 12 0 0 1 5.56 1.22 8.7 8.7 0 0 1 3.74 3.72 13 13 0 0 1 1.35 6.34V2060h-4.7v-14.4q0-3.8-1.75-5.71a6.4 6.4 0 0 0-4.96-1.91 8 8 0 0 0-4.1 1 6.7 6.7 0 0 0-2.73 2.9 10.5 10.5 0 0 0-.96 4.72v13.4h-4.7v-14.4q0-3.8-1.74-5.71a6.4 6.4 0 0 0-4.97-1.91 8 8 0 0 0-4.09 1 6.7 6.7 0 0 0-2.73 2.9 10.5 10.5 0 0 0-.96 4.72v13.4h-4.7v-25.95h4.5v6.9l-.76-1.76a9 9 0 0 1 3.8-4 12 12 0 0 1 5.94-1.42 11 11 0 0 1 6.4 1.84 8.8 8.8 0 0 1 3.54 5.56l-1.93-.76a10 10 0 0 1 4.12-4.8 12.7 12.7 0 0 1 6.84-1.83Zm57.78-8.08h4.87v34.3h-4.87Zm-19.73 34.3h-4.87v-34.3h4.87Zm20.14-15.3h-20.6v-4.24h20.6Zm25.18 15.57a14 14 0 0 1-6.93-1.7 12.6 12.6 0 0 1-4.8-4.7 13.3 13.3 0 0 1-1.77-6.85 13 13 0 0 1 1.77-6.86 13 13 0 0 1 4.8-4.68 14 14 0 0 1 6.93-1.7 14 14 0 0 1 6.96 1.7 12.5 12.5 0 0 1 4.8 4.67 13.3 13.3 0 0 1 1.74 6.87 13.4 13.4 0 0 1-1.74 6.85 12.4 12.4 0 0 1-4.8 4.7 14 14 0 0 1-6.96 1.7m0-4.12a9 9 0 0 0 4.5-1.12 8 8 0 0 0 3.11-3.2 10 10 0 0 0 1.14-4.82 10 10 0 0 0-1.14-4.82 8 8 0 0 0-3.1-3.18 9 9 0 0 0-4.5-1.12 9 9 0 0 0-4.47 1.12 8.3 8.3 0 0 0-3.13 3.18 9.6 9.6 0 0 0-1.16 4.82 10 10 0 0 0 1.16 4.82 8.3 8.3 0 0 0 3.13 3.2 9 9 0 0 0 4.46 1.12m20.04 3.85v-36.36h4.7V2060Zm24.75.27a14 14 0 0 1-6.93-1.7 12.6 12.6 0 0 1-4.8-4.7 13.3 13.3 0 0 1-1.77-6.85 13 13 0 0 1 1.77-6.86 13 13 0 0 1 4.8-4.68 14 14 0 0 1 6.93-1.7 14 14 0 0 1 6.96 1.7 12.5 12.5 0 0 1 4.8 4.67 13.3 13.3 0 0 1 1.74 6.87 13.4 13.4 0 0 1-1.74 6.85 12.4 12.4 0 0 1-4.8 4.7 14 14 0 0 1-6.96 1.7m0-4.12a9 9 0 0 0 4.5-1.12 8 8 0 0 0 3.11-3.2 10 10 0 0 0 1.14-4.82 10 10 0 0 0-1.14-4.82 8 8 0 0 0-3.11-3.18 9 9 0 0 0-4.48-1.12 9 9 0 0 0-4.48 1.12 8.3 8.3 0 0 0-3.13 3.18 9.6 9.6 0 0 0-1.17 4.82 10 10 0 0 0 1.17 4.82 8.3 8.3 0 0 0 3.13 3.2 9 9 0 0 0 4.46 1.12m20.04 3.85v-25.95h4.5v7.04l-.47-1.76a8.2 8.2 0 0 1 3.64-4.13 13 13 0 0 1 6.28-1.43v4.58l-.56-.06q-.25-.02-.52-.02a8 8 0 0 0-5.97 2.26q-2.2 2.25-2.2 6.55V2060Zm19.75 0v-25.97h4.7V2060Zm2.35-30.97a3 3 0 0 1-2.28-.88 3 3 0 0 1-.9-2.16 3 3 0 0 1 .9-2.2 3 3 0 0 1 2.28-.88 3.2 3.2 0 0 1 2.28.85 2.8 2.8 0 0 1 .91 2.14 3 3 0 0 1-.88 2.23 3 3 0 0 1-2.3.9m12.42 31.24a3.2 3.2 0 0 1-2.33-.95 3.2 3.2 0 0 1-.97-2.4 3.2 3.2 0 0 1 .97-2.4 3.3 3.3 0 0 1 2.33-.93 3.2 3.2 0 0 1 2.3.92 3.2 3.2 0 0 1 .97 2.42 3.2 3.2 0 0 1-.97 2.39 3.2 3.2 0 0 1-2.3.95"/></g></g></svg>