<svg xmlns="http://www.w3.org/2000/svg" width="340" height="178" viewBox="0 0 340 178">
  <g id="safespring-green-web" transform="translate(-804 -462)">
    <rect id="Rectangle_357" data-name="Rectangle 357" width="340" height="178" transform="translate(804 462)" fill="#f3fcf3"/>
    <g id="Group_610" data-name="Group 610" transform="translate(9.407 -30)">
      <g id="c" transform="translate(959.18 546.753)">
        <g id="Group_609" data-name="Group 609" transform="translate(0 0)">
          <path id="Path_5616" data-name="Path 5616" d="M266.061,339.008q.006-5.144.014-10.287a1.431,1.431,0,1,1,2.836.01c0,5.51-.011,11.021.017,16.53a2.176,2.176,0,0,1-.73,1.539c-.112.017-.226.034-.277.158h-1.136c-.261-.436-.579-.829-.8-1.295q-2.464-5.066-4.97-10.112c-.067-.136-.094-.4-.27-.353-.155.04-.061.287-.061.439-.006,3.073-.031,6.146.011,9.22a2.208,2.208,0,0,1-1.005,2.1H258.41c-.754-.925-.571-2.026-.572-3.089q-.006-7.544,0-15.089c0-1.049.275-1.427,1.177-1.637.6-.139,1.187.236,1.573,1.028q2.481,5.089,4.956,10.179a1.541,1.541,0,0,0,.4.656c.038.084.077.1.116,0Z" transform="translate(-221.635 -280.809)" fill="#d9d4d4"/>
          <path id="Path_5617" data-name="Path 5617" d="M725.458,346.914c-.744-.984-.568-2.131-.568-3.244q0-7.45,0-14.9a1.65,1.65,0,0,1,1.162-1.706,1.734,1.734,0,0,1,1.662,1.087q2.35,4.846,4.7,9.689c.082.17.173.336.26.5.058.114.146.2.277.17s.162-.156.166-.278c0-.166,0-.331,0-.5,0-2.933.017-5.865-.011-8.8a1.63,1.63,0,0,1,.911-1.747,1.312,1.312,0,0,1,1.743.639c.028.043.129.038.2.057v12.066a.646.646,0,0,0,0,1.135v.284q-.662.356,0,.71v2.129a.833.833,0,0,0,0,1.278v.568c-.417.185-.6.637-.994.852h-1.136a12.306,12.306,0,0,0-.869-1.425c-1.573-3.3-3.184-6.585-4.792-9.87-.106-.217-.123-.507-.4-.619-.014.228-.041.457-.041.684,0,3.048-.038,6.1.02,9.141a2.177,2.177,0,0,1-1.014,2.087h-1.277Zm7.633-7.963c-.011-.017-.024-.033-.036-.05-.014.014-.042.037-.041.041a.475.475,0,0,0,.057.064c.006-.018.013-.037.018-.055Z" transform="translate(-622.39 -280.764)" fill="#d9d4d4"/>
          <path id="Path_5618" data-name="Path 5618" d="M356.937,347.66c0-.024.007-.061,0-.07-1.06-.713-1-1.781-1-2.886.027-4.99.011-9.979.013-14.97,0-1.262.544-1.827,1.813-1.8a26.59,26.59,0,0,1,4.17.122,5.028,5.028,0,0,1,3.966,4.707c-.055,3.239-.03,6.48-.01,9.719a4.815,4.815,0,0,1-2.82,4.537c-.348.187-.839.17-1.018.633H361.2a2.4,2.4,0,0,0-1.495-.125,7.006,7.006,0,0,0-2.48.125h-.284Zm3.975-16.881c-.531,0-1.062-.014-1.593-.009-.211,0-.5-.088-.515.281-.006,4.354-.006,8.706-.023,13.059,0,.427.126.6.566.575.518-.03,1.042.011,1.561-.011a2.033,2.033,0,0,0,2.134-2.213q0-4.648,0-9.3a2.094,2.094,0,0,0-2.129-2.385Z" transform="translate(-305.822 -281.511)" fill="#d9d4d4"/>
          <path id="Path_5619" data-name="Path 5619" d="M98.033,1A1.957,1.957,0,0,1,98.9,2.865c-.034,5.414-.017,10.829-.018,16.243,0,1.072-.485,1.625-1.414,1.627-.913,0-1.421-.578-1.422-1.642-.006-2.128-.014-4.256.007-6.383,0-.483-.125-.673-.634-.656-.992.035-1.987.041-2.978,0-.561-.024-.666.2-.66.7.023,2.152.011,4.3.009,6.454,0,.845-.43,1.442-1.072,1.519a1.4,1.4,0,0,1-1.73-1.248,3.644,3.644,0,0,1-.034-.705c0-5.225.016-10.45-.017-15.675a2.2,2.2,0,0,1,1-2.1h.994a1.913,1.913,0,0,1,.876,1.861c-.055,1.913-.007,3.828-.026,5.743,0,.436.089.646.583.632,1.039-.031,2.08-.027,3.12,0,.44.01.572-.15.566-.576-.02-1.394-.011-2.789-.006-4.183,0-1.2-.21-2.454.705-3.473h1.278Z" transform="translate(-76.727 -0.999)" fill="#d9d4d4"/>
          <path id="Path_5620" data-name="Path 5620" d="M640.5,347.371c.016-.315-.27-.287-.442-.368a4.949,4.949,0,0,1-3.113-4.865c.026-3.265.034-6.53,0-9.794a4.985,4.985,0,0,1,9.962.407c-.084,3.144-.007,6.293-.023,9.44a4.982,4.982,0,0,1-3.036,4.784c-.187.091-.512.044-.505.4h-.284l-.142-.131-.142.131h-1.845c-.047-.112-.1-.116-.142,0H640.5Zm3.547-9.88c0-1.608.007-3.217,0-4.825a2.214,2.214,0,0,0-2.176-2.315,2.365,2.365,0,0,0-2.105,2.331c.072,3.168.026,6.338.027,9.508a2.124,2.124,0,0,0,2.114,2.339,2.253,2.253,0,0,0,2.141-2.353c.007-1.562,0-3.122,0-4.683Z" transform="translate(-546.938 -281.221)" fill="#d9d4d4"/>
          <path id="Path_5621" data-name="Path 5621" d="M86.3,347.319c.014-.315-.229-.351-.447-.454a4.677,4.677,0,0,1-2.965-4.493c0-3.4.04-6.8-.011-10.206a4.992,4.992,0,1,1,9.958.731c-.057,3,.007,6-.024,9a5.411,5.411,0,0,1-.507,2.531,5.173,5.173,0,0,1-2.354,2.355c-.248.122-.637.121-.67.532h-.426c-.047-.118-.1-.108-.142,0H86.868c-.047-.109-.1-.118-.142,0H86.3Zm-.571-9.917v4.964a1.9,1.9,0,0,0,.138.829,2.141,2.141,0,0,0,4.1-.917c.034-3.262.054-6.525-.007-9.786a2.126,2.126,0,1,0-4.241.16c.033,1.583.007,3.167.008,4.751Z" transform="translate(-71.526 -281.169)" fill="#d9d4d4"/>
          <path id="Path_5622" data-name="Path 5622" d="M172.419,346.94c.014-.315-.27-.287-.441-.368a4.955,4.955,0,0,1-3.113-4.862c.024-4.281.038-8.562-.016-12.842a1.47,1.47,0,1,1,2.883-.03c-.052,4.328-.023,8.656-.021,12.984a2.11,2.11,0,0,0,3.8,1.384,2.541,2.541,0,0,0,.451-1.672V328.764a1.591,1.591,0,0,1,1.341-1.685,1.574,1.574,0,0,1,1.5,1.709q0,6.635,0,13.268a4.982,4.982,0,0,1-2.988,4.443c-.229.092-.538.085-.556.441h-.284c-.1-.16-.189-.15-.284,0h-1.7c-.1-.149-.189-.162-.284,0h-.284Z" transform="translate(-145.293 -280.791)" fill="#d9d4d4"/>
          <path id="Path_5623" data-name="Path 5623" d="M433.519,347.634a.42.42,0,0,0-.084-.4c-.653-.534-.532-1.2-.338-1.878.7-2.443,1.4-4.883,2.082-7.329.732-2.63,1.442-5.266,2.162-7.9a12.519,12.519,0,0,1,.353-1.287,1.254,1.254,0,0,1,1.253-.951c.823.017,1.272.25,1.5,1.009.48,1.6.914,3.214,1.364,4.823q.95,3.394,1.9,6.791c.44,1.586.83,3.187,1.33,4.754a2.67,2.67,0,0,1-.447,2.371h-1.278a2.479,2.479,0,0,1-1.042-1.605c-.126-.667-.37-1.31-.541-1.97a.63.63,0,0,0-.738-.554c-1.014.035-2.028.011-3.043.011-1.394,0-1.358.01-1.766,1.385-.292.985-.315,2.133-1.388,2.732h-.852c-.047-.1-.1-.118-.142,0h-.284Zm5.57-6.956c.378,0,.758-.02,1.134.006.424.028.528-.1.406-.524-.454-1.583-.873-3.177-1.324-4.762-.045-.16-.03-.45-.247-.451s-.2.291-.248.451c-.373,1.313-.723,2.633-1.082,3.95-.433,1.581-.348,1.316,1.005,1.329h.355Z" transform="translate(-371.9 -281.485)" fill="#d9d4d4"/>
          <path id="Path_5624" data-name="Path 5624" d="M187.906,1a.465.465,0,0,0,.213.423,1.4,1.4,0,0,1,.407,1.671,1.508,1.508,0,0,1-1.563.879c-1.16.011-2.319.024-3.478-.006-.5-.013-.725.091-.708.657.04,1.323.033,2.65,0,3.975-.011.5.16.654.652.64,1.063-.03,2.129-.017,3.194-.006a1.325,1.325,0,0,1,1.422,1.263,1.357,1.357,0,0,1-1.239,1.452,17.328,17.328,0,0,1-3.322.106c-.5,0-.723.1-.708.66.037,1.513.03,3.028,0,4.542-.009.5.156.653.649.643,1.278-.028,2.555-.016,3.833-.007a1.354,1.354,0,1,1-.021,2.707q-2.981.009-5.962,0a1.247,1.247,0,0,1-1.324-1.322q-.006-8.34-.006-16.679a1.424,1.424,0,0,1,1-1.458c.156,0,.326.043.426-.136h5.82c.1.153.189.156.284,0h.426Z" transform="translate(-154.819 -0.999)" fill="#d9d4d4"/>
          <path id="Path_5625" data-name="Path 5625" d="M11.958,347.738c0-.024.007-.061,0-.07-1.1-.731-1-1.845-.991-2.96.018-4.873.01-9.745,0-14.618a2.922,2.922,0,0,1,.16-1.113,1.359,1.359,0,0,1,1.339-.968c1.939,0,3.879-.009,5.818.006a1.5,1.5,0,0,1,1.478,1.421,1.407,1.407,0,0,1-1.466,1.4c-1.278.017-2.555.021-3.831,0-.47-.009-.677.1-.664.625.033,1.347.028,2.7,0,4.044-.009.473.158.613.615.6,1.063-.027,2.129-.014,3.192-.007a1.427,1.427,0,1,1-.018,2.835c-1.04.007-2.082.031-3.121-.01-.549-.021-.679.179-.67.694.028,1.655.014,3.312.01,4.967,0,1.126.229,2.319-.857,3.153h-.426c-.047-.115-.1-.115-.142,0Z" transform="translate(-9.816 -281.589)" fill="#d9d4d4"/>
          <path id="Path_5626" data-name="Path 5626" d="M12.715.991c-.031.223.123.346.261.474a1.3,1.3,0,0,1,.348,1.547,1.489,1.489,0,0,1-1.381.945,9.366,9.366,0,0,1-1.559,0c-.7-.082-.8.236-.8.846.021,4.8.013,9.6.01,14.4a1.334,1.334,0,0,1-1.375,1.525c-.944.014-1.458-.531-1.461-1.591-.007-2.791,0-5.58,0-8.371,0-2.034-.021-4.068.013-6.1.01-.578-.179-.751-.728-.705-.493.041-.992.011-1.489.007A1.618,1.618,0,0,1,2.932,2.759,1.448,1.448,0,0,1,4.055,1.122L4.2.99h7.949c.047.111.1.114.142,0h.426Z" transform="translate(-2.908 -0.99)" fill="#d9d4d4"/>
          <path id="Path_5627" data-name="Path 5627" d="M518.649,331.279c0,4.6-.017,9.207,0,13.809a3.26,3.26,0,0,1-.72,2.656H516.79c-.053-.123-.165-.141-.278-.156a2.319,2.319,0,0,1-.73-1.956c.026-4.832.009-9.664.006-14.494-.03-.363-.309-.28-.525-.281-.674,0-1.348,0-2.021.007a1.489,1.489,0,0,1-1.271-1.588,1.581,1.581,0,0,1,1.569-1.253q3.682-.008,7.362,0a1.407,1.407,0,0,1,1.567,1.358c.023.887-.454,1.387-1.419,1.483-.65,0-1.3,0-1.949-.013C518.79,330.843,518.6,330.924,518.649,331.279Z" transform="translate(-439.7 -281.595)" fill="#d9d4d4"/>
          <path id="Path_5628" data-name="Path 5628" d="M598.967,347.535a2.544,2.544,0,0,1-1-2.4c.026-5.13.014-10.26.009-15.39a3.079,3.079,0,0,1,.162-1.113,1.345,1.345,0,0,1,1.676-.828,1.134,1.134,0,0,1,1,1.251c.006,5.7-.008,11.394.02,17.092,0,.595-.491.889-.592,1.39h-1.278Z" transform="translate(-513.501 -281.385)" fill="#d9d4d4"/>
          <path id="Path_5629" data-name="Path 5629" d="M473.495,171.966q-1.3,5.332-2.6,10.662a1.428,1.428,0,0,1-2.8.009q-2.042-8.357-4.073-16.719a1.453,1.453,0,0,1,1.049-1.871,1.424,1.424,0,0,1,1.708,1.205q1.309,5.329,2.6,10.662c-.007.106-.028.243.124.241s.132-.136.122-.244q1.288-5.325,2.578-10.65a1.426,1.426,0,0,1,2.828.009q1.284,5.217,2.562,10.436c.034.136.088.267.132.4.115.129.135.054.136-.062.879-3.648,1.745-7.3,2.645-10.943a1.358,1.358,0,0,1,1.672-1.052,1.4,1.4,0,0,1,1.046,1.8q-2.033,8.4-4.084,16.788a1.324,1.324,0,0,1-1.4,1.147,1.351,1.351,0,0,1-1.4-1.16q-1.3-5.332-2.584-10.666c0-.108.033-.253-.128-.25s-.139.142-.129.256Z" transform="translate(-398.515 -140.865)" fill="#70ba2b"/>
          <path id="Path_5630" data-name="Path 5630" d="M340.611,175.835c0-3.405,0-6.811.013-10.217a1.319,1.319,0,0,1,1.006-1.442,1.354,1.354,0,0,1,1.519.488,1.8,1.8,0,0,1,.311,1.211q0,2.732,0,5.464,0,5.393,0,10.785a1.584,1.584,0,0,1-.8,1.613,1.429,1.429,0,0,1-1.984-.792q-2.491-5.089-4.971-10.183a1.7,1.7,0,0,0-.094-.19c-.1-.16-.112-.481-.336-.437-.159.031-.091.336-.092.52q-.006,4.329,0,8.656c0,.4.013.8-.01,1.205a1.327,1.327,0,0,1-1.343,1.356,1.361,1.361,0,0,1-1.465-1.241,3.971,3.971,0,0,1-.02-.566V165.956c0-.118,0-.237,0-.355a1.422,1.422,0,0,1,2.733-.619c.654,1.309,1.278,2.633,1.919,3.949q1.693,3.469,3.391,6.936c.013.138.084.311.2.284.163-.038.06-.2.027-.317Zm-5.385-3.99-.027-.026-.007.038Z" transform="translate(-285.578 -140.949)" fill="#70ba2b"/>
          <path id="Path_5631" data-name="Path 5631" d="M689.1,174.645q0-4.009,0-8.019c0-1.28.484-1.793,1.746-1.769a24.828,24.828,0,0,1,4.247.121,4.935,4.935,0,0,1,3.935,4.672,5.764,5.764,0,0,1-1.275,4.433c-.288.312-.04.467.129.636,1.591,1.58,1.429,6.118.268,7.573a5.2,5.2,0,0,1-4.067,2.111c-1.134.037-2.271.023-3.407,0a1.435,1.435,0,0,1-1.573-1.6c-.01-2.72,0-5.441,0-8.161Zm2.84,3.975c0,.826.013,1.654-.006,2.48-.009.353.081.518.471.5.565-.028,1.134.013,1.7-.016a2.1,2.1,0,0,0,2.075-2.158c.011-.566.024-1.136-.007-1.7a2.04,2.04,0,0,0-1.962-1.956c-.589-.031-1.182.01-1.77-.023-.42-.023-.521.152-.508.537.024.779.007,1.559.007,2.338Zm0-8.327c0,.211-.014.426,0,.636.05.65-.3,1.536.145,1.885.413.325,1.26.123,1.916.112a2.125,2.125,0,0,0,2.158-1.769c.294-1.736-.189-2.921-1.373-3.35a1.825,1.825,0,0,0-.548-.116c-.613-.016-1.226.01-1.838-.018-.389-.018-.478.143-.468.5.021.707.006,1.414.006,2.122Z" transform="translate(-591.698 -141.569)" fill="#70ba2b"/>
          <path id="Path_5632" data-name="Path 5632" d="M95.944,174.628q0-4.041,0-8.084c0-1.229.49-1.739,1.713-1.715a24.2,24.2,0,0,1,4.243.116,4.816,4.816,0,0,1,3.935,4.432,11.726,11.726,0,0,1-.058,2.829,4.549,4.549,0,0,1-2.088,3.229c-.423.268-.426.5-.267.913.772,2,1.517,4.016,2.268,6.027a1.414,1.414,0,0,1-.71,2.006,1.456,1.456,0,0,1-1.953-1.019c-.835-2.18-1.652-4.368-2.48-6.552a1.525,1.525,0,0,0-1.675-.454c-.179.162-.088.4-.088.608-.006,2.009,0,4.019,0,6.027a1.332,1.332,0,0,1-.965,1.407,1.376,1.376,0,0,1-1.591-.471,1.717,1.717,0,0,1-.284-1.141q.006-4.077,0-8.155Zm2.839-4.054c0,.284,0,.566,0,.85.013.657-.226,1.561.111,1.909.427.44,1.334.146,2.033.138a2.077,2.077,0,0,0,2.087-2,13.492,13.492,0,0,0,0-1.84,2.074,2.074,0,0,0-2.1-1.979c-.566-.014-1.134.014-1.7-.01-.345-.014-.446.116-.439.449C98.8,168.921,98.783,169.747,98.783,170.573Z" transform="translate(-82.734 -141.541)" fill="#70ba2b"/>
          <path id="Path_5633" data-name="Path 5633" d="M11.717,174.212c0,1.584-.007,3.168,0,4.752a2.119,2.119,0,1,0,4.23.062c.024-.874-.018-1.75.016-2.623.017-.454-.156-.578-.573-.545a6.485,6.485,0,0,1-1.063,0,1.387,1.387,0,0,1-1.322-1.469,1.36,1.36,0,0,1,1.375-1.339q1.525-.038,3.049,0a1.3,1.3,0,0,1,1.333,1.225,34.759,34.759,0,0,1-.077,5.664A4.811,4.811,0,0,1,13.392,184a4.852,4.852,0,0,1-4.5-4.794q-.043-5.072,0-10.142a4.768,4.768,0,0,1,3.488-4.568,4.955,4.955,0,0,1,5.567,1.915,1.5,1.5,0,0,1-.265,2.192,1.459,1.459,0,0,1-2.024-.512,2.135,2.135,0,0,0-3.932,1.295c-.006,1.608,0,3.215,0,4.823Z" transform="translate(-8.021 -141.101)" fill="#70ba2b"/>
          <path id="Path_5634" data-name="Path 5634" d="M181.173,174.784q0-3.973,0-7.945c0-1.378.468-1.851,1.82-1.852q2.625,0,5.249,0c1.046,0,1.682.538,1.688,1.4s-.653,1.419-1.674,1.425c-1.229.007-2.459.018-3.688-.007-.427-.009-.575.111-.566.554q.04,2.057,0,4.114c-.009.454.111.62.591.6,1.063-.035,2.128-.017,3.191-.008a1.415,1.415,0,0,1,1.559,1.383,1.434,1.434,0,0,1-1.526,1.429c-1.063.02-2.129.031-3.191-.006-.514-.018-.633.166-.625.647q.04,2.3,0,4.611c-.007.454.111.616.59.6,1.252-.033,2.505-.017,3.759-.01a1.407,1.407,0,0,1,1.577,1.358,1.439,1.439,0,0,1-1.573,1.455q-2.766.023-5.533,0a1.469,1.469,0,0,1-1.649-1.674c-.008-2.7,0-5.391,0-8.087Z" transform="translate(-155.863 -141.705)" fill="#70ba2b"/>
          <path id="Path_5635" data-name="Path 5635" d="M616.733,181.692c1.371.007,2.742.011,4.114.023.971.009,1.549.505,1.574,1.344a1.39,1.39,0,0,1-1.541,1.468q-2.8.028-5.606,0a1.4,1.4,0,0,1-1.556-1.6q-.01-8.2,0-16.391a1.384,1.384,0,0,1,1.576-1.566q2.768-.013,5.534,0c1,0,1.593.535,1.593,1.408s-.6,1.408-1.593,1.417q-1.88.017-3.76,0c-.325,0-.529.03-.521.446.031,1.56.031,3.12.043,4.68,0,.1.054.126.143.109,1.18.007,2.358.011,3.537.024a1.4,1.4,0,0,1,1.573,1.35,1.424,1.424,0,0,1-1.55,1.464q-1.627.025-3.255,0c-.365-.006-.5.106-.49.481.027,1.745.03,3.489.041,5.234,0,.1.054.126.143.109Z" transform="translate(-527.009 -141.692)" fill="#70ba2b"/>
          <path id="Path_5636" data-name="Path 5636" d="M259.9,173.02c1.182.007,2.363.011,3.546.023,1.006.01,1.587.529,1.584,1.405s-.595,1.4-1.6,1.41c-1.063.01-2.128.013-3.192,0-.351-.006-.505.077-.5.467.027,1.749.026,3.5.036,5.246-.011.094.033.129.122.109,1.394.007,2.788.011,4.182.023a1.4,1.4,0,1,1,.028,2.8q-2.836.043-5.672.014a1.394,1.394,0,0,1-1.525-1.556q-.009-8.225,0-16.45a1.379,1.379,0,0,1,1.529-1.543q2.8-.017,5.6,0c.994,0,1.58.547,1.571,1.424s-.595,1.393-1.6,1.4c-1.229.01-2.459.024-3.686-.009-.471-.013-.6.138-.586.595.036,1.512.028,3.023.037,4.535-.011.094.033.129.122.109Z" transform="translate(-220.855 -141.679)" fill="#70ba2b"/>
          <path id="Path_5637" data-name="Path 5637" d="M502.334,247.89c.01.108.027.243-.122.244s-.131-.135-.123-.241Z" transform="translate(-431.226 -212.843)" fill="#bbde9a"/>
          <path id="Path_5638" data-name="Path 5638" d="M531.092,218.545c-.009-.114-.021-.253.129-.255s.131.141.128.25Z" transform="translate(-456.113 -187.444)" fill="#bbde9a"/>
          <path id="Path_5639" data-name="Path 5639" d="M389.227,246.76c.033.114.138.278-.027.317-.115.027-.187-.146-.2-.284l.226-.033Z" transform="translate(-334.195 -211.873)" fill="#bbde9a"/>
          <path id="Path_5640" data-name="Path 5640" d="M634.123,282.119c-.089.017-.146-.006-.143-.109Z" transform="translate(-544.399 -242.12)" fill="#efeded"/>
          <path id="Path_5641" data-name="Path 5641" d="M277.241,282.119c-.091.018-.133-.016-.122-.109C277.16,282.047,277.2,282.082,277.241,282.119Z" transform="translate(-238.194 -242.12)" fill="#efeded"/>
          <path id="Path_5642" data-name="Path 5642" d="M561.056,248.83c0,.118-.021.192-.136.062Z" transform="translate(-481.711 -213.649)" fill="#9ccf6d"/>
          <path id="Path_5643" data-name="Path 5643" d="M634.123,221.119c-.089.017-.146-.006-.143-.109Z" transform="translate(-544.399 -189.778)" fill="#efeded"/>
          <path id="Path_5644" data-name="Path 5644" d="M277.241,221.119c-.091.018-.133-.016-.122-.109C277.16,221.047,277.2,221.082,277.241,221.119Z" transform="translate(-238.194 -189.778)" fill="#efeded"/>
          <path id="Path_5645" data-name="Path 5645" d="M352.454,218.5l-.034.014.007-.038Z" transform="translate(-302.807 -187.608)" fill="#bbde9a"/>
        </g>
      </g>
      <g id="green-web-smiley-good-1" transform="translate(865.593 544)">
        <path id="Path_5646" data-name="Path 5646" d="M44.612,25.68a3.681,3.681,0,1,1-3.682,3.682,3.681,3.681,0,0,1,3.682-3.682Zm-15.38,0a3.681,3.681,0,1,1-3.682,3.682,3.681,3.681,0,0,1,3.682-3.682ZM22.913,38.7c0-.84.373-1.145.723-1.145s1,.279,1,1.329c0,2.021,4.542,9.549,12.282,9.549S49.2,40.9,49.2,38.88c0-1.05.653-1.329,1-1.329s.723.305.723,1.145c0,5.432-5.793,13.007-14.008,13.007S22.913,44.128,22.913,38.7ZM36.921,57.763A20.842,20.842,0,1,1,57.763,36.921,20.842,20.842,0,0,1,36.921,57.763Zm0-44.874A24.032,24.032,0,1,0,60.953,36.921,24.032,24.032,0,0,0,36.921,12.889Zm0,54.172a30.14,30.14,0,1,1,30.14-30.14,30.14,30.14,0,0,1-30.14,30.14ZM36.921,0A36.921,36.921,0,1,0,73.842,36.921,36.921,36.921,0,0,0,36.921,0Z" fill="#6abe4c" fill-rule="evenodd"/>
      </g>
    </g>
  </g>
</svg>
