<svg xmlns="http://www.w3.org/2000/svg" width="585" height="585.001" viewBox="0 0 585 585.001"><g transform="translate(-701 -498.999)"><path fill="#c8102d" d="M993.5 499c161.54 0 292.5 130.96 292.5 292.5S1155.04 1084 993.5 1084 701 953.04 701 791.5 831.96 499 993.5 499"/><path fill="#fff" d="M865 1054.33V856.65H708.28a295 295 0 0 1 .4-132H865V528.67A291 291 0 0 1 993.5 499q2.26 0 4.5.04v225.61h280.33a295 295 0 0 1 .39 132H998v227.32l-4.5.03a291 291 0 0 1-128.5-29.67m114 28.96a291 291 0 0 1-95-20.83 291 291 0 0 0 95 20.83M704.68 837.65a295 295 0 0 1-3.68-46.5 295 295 0 0 0 3.68 46.5"/></g></svg>