<svg xmlns="http://www.w3.org/2000/svg" viewBox="0 0 306.7 306.7"><g transform="translate(-205 -590)"><circle cx="153.35" cy="153.35" r="153.35" fill="#0b3693" transform="translate(205 590)"/><path fill="#f8cc46" d="m358.3 625.08 7.09 22.63 23.7-.26-19.31 13.73 7.57 22.47-19.03-14.15-19.03 14.14 7.57-22.46-19.34-13.73 23.7.26Zm77.59 43.52 7.08 22.64 23.7-.26-19.31 13.73 7.57 22.47-19.03-14.15-19.03 14.14 7.57-22.46-19.34-13.73 23.7.26Zm-155.17 0 7.08 22.64 23.7-.26-19.3 13.73 7.56 22.47-19.03-14.15-19.03 14.14 7.57-22.46-19.34-13.73 23.7.26Zm0 89.14 7.08 22.63 23.7-.26-19.3 13.73 7.56 22.47-19.03-14.15-19.03 14.14 7.57-22.46-19.34-13.73 23.7.26Zm77.58 45.78 7.09 22.63 23.7-.26-19.31 13.73 7.57 22.47-19.03-14.15-19.03 14.14 7.57-22.46-19.34-13.73 23.7.26Zm77.59-45.78 7.08 22.63 23.7-.26-19.31 13.73 7.57 22.47-19.03-14.15-19.03 14.14 7.57-22.46-19.34-13.73 23.7.26Z"/></g></svg>