<svg xmlns="http://www.w3.org/2000/svg" width="48.543" height="30.985" viewBox="0 0 48.543 30.985"><g transform="translate(-338.728 -730.236)"><path d="M3,0H45.543a3,3,0,0,1,3,3V27.985a3,3,0,0,1-3,3H3a3,3,0,0,1-3-3V3A3,3,0,0,1,3,0Z" transform="translate(338.729 730.236)" fill="#ba0c2f"/><path d="M-1574.926,956h6v12.493h27.469v6h-27.469v12.493h-6V974.492H-1590v-6h15.075Z" transform="translate(1928.729 -225.764)" fill="#fff"/><path d="M-1573.426,956h3v13.993h28.969v3h-28.969v13.993h-3V972.992H-1590v-3h16.575Z" transform="translate(1928.729 -225.764)" fill="#00205b"/></g></svg>