<svg xmlns="http://www.w3.org/2000/svg" viewBox="0 0 585 585"><path fill="#ba0b2f" d="M292.5 0C454.04 0 585 130.96 585 292.5S454.04 585 292.5 585 0 454.04 0 292.5 130.96 0 292.5 0"/><path fill="#fff" d="M164 555.34V357.65H7.28a295 295 0 0 1 .4-132H164V29.67A291 291 0 0 1 292.5 0q2.26 0 4.5.04v225.61h280.33a295 295 0 0 1 .39 132H297v227.32l-4.5.03A291 291 0 0 1 164 555.34m114 28.95a291 291 0 0 1-95-20.83 291 291 0 0 0 95 20.84M3.68 338.65A295 295 0 0 1 0 292.15a295 295 0 0 0 3.68 46.5"/><path fill="#00205b" d="M200.5 570.24V323H1.57A296 296 0 0 1 0 292.5q0-14.93 1.47-29.5H200.5V14.76a291 291 0 0 1 60-13.03V263h323.03q1.46 14.55 1.47 29.5a296 296 0 0 1-1.57 30.5H260.5v260.28a291 291 0 0 1-60-13.03"/></svg>