<svg xmlns="http://www.w3.org/2000/svg" width="585" height="585.001" viewBox="0 0 585 585.001"><g transform="translate(-704 -514.999)"><path fill="#ba0b2f" d="M996.5 515c161.54 0 292.5 130.96 292.5 292.5S1158.04 1100 996.5 1100 704 969.04 704 807.5 834.96 515 996.5 515"/><path fill="#fff" d="M868 1070.34V872.65H711.28a295 295 0 0 1 .4-132H868V544.67A291 291 0 0 1 996.5 515q2.26 0 4.5.04v225.61h280.33a295 295 0 0 1 .39 132H1001v227.32l-4.5.03a291 291 0 0 1-128.5-29.66m114 28.95a291 291 0 0 1-95-20.83 291 291 0 0 0 95 20.84M707.68 853.65a295 295 0 0 1-3.68-46.5 295 295 0 0 0 3.68 46.5"/><path fill="#00205b" d="M904.5 1085.24V837.99H705.57a296 296 0 0 1-1.57-30.5q0-14.93 1.47-29.5H904.5V529.76a291 291 0 0 1 60-13.03v261.26h323.03q1.46 14.55 1.47 29.5a296 296 0 0 1-1.57 30.5H964.5v260.28a291 291 0 0 1-60-13.03"/></g></svg>