<svg xmlns="http://www.w3.org/2000/svg" width="585" height="585.001" viewBox="0 0 585 585.001"><g transform="translate(-704 -514.999)"><path d="M292.5,0C454.043,0,585,130.957,585,292.5S454.043,585,292.5,585,0,454.043,0,292.5,130.957,0,292.5,0Z" transform="translate(704 514.999)" fill="#ba0b2f"/><path d="M9376,11281.284V11083.6H9219.28a295.016,295.016,0,0,1,.393-132H9376v-195.985a291.277,291.277,0,0,1,128.5-29.664c1.5,0,3.008.012,4.5.034V10951.6h280.323a295.035,295.035,0,0,1,.394,132H9509v227.318c-1.494.022-3,.034-4.5.034A291.277,291.277,0,0,1,9376,11281.284Zm114,28.959a291.091,291.091,0,0,1-95-20.835A291.091,291.091,0,0,0,9490,11310.243ZM9215.678,11064.6h0a294.55,294.55,0,0,1-3.677-46.5A294.55,294.55,0,0,0,9215.678,11064.6Z" transform="translate(-8507.998 -10210.948)" fill="#fff"/><path d="M7790.5,11363.236v-247.249h-198.93a295.981,295.981,0,0,1-1.57-30.488q0-14.938,1.47-29.512H7790.5v-248.227a290.915,290.915,0,0,1,60-13.03v261.257h323.028q1.458,14.553,1.471,29.512a296.118,296.118,0,0,1-1.57,30.488H7850.5v260.28A290.917,290.917,0,0,1,7790.5,11363.236Z" transform="translate(-6886 -10278.001)" fill="#00205b"/></g></svg>