<svg xmlns="http://www.w3.org/2000/svg" width="585.001" height="585" viewBox="0 0 585.001 585"><g transform="translate(-668.999 -505)"><circle cx="292.5" cy="292.5" r="292.5" transform="translate(669 505)" fill="#005293"/><path d="M9376,11281.284V11083.6H9219.28a295.016,295.016,0,0,1,.393-132H9376v-195.985a291.277,291.277,0,0,1,128.5-29.664c1.5,0,3.008.012,4.5.034V10951.6h280.323a295.035,295.035,0,0,1,.394,132H9509v227.318c-1.494.022-3,.034-4.5.034A291.277,291.277,0,0,1,9376,11281.284Zm114,28.959a291.091,291.091,0,0,1-95-20.835A291.091,291.091,0,0,0,9490,11310.243ZM9215.678,11064.6h0a294.55,294.55,0,0,1-3.677-46.5A294.55,294.55,0,0,0,9215.678,11064.6Z" transform="translate(-8542.999 -10220.948)" fill="#fecb02"/></g></svg>