<svg xmlns="http://www.w3.org/2000/svg" width="585.001" height="585" viewBox="0 0 585.001 585"><g transform="translate(-668.999 -505)"><circle cx="292.5" cy="292.5" r="292.5" fill="#005293" transform="translate(669 505)"/><path fill="#fecb02" d="M833 1060.34V862.65H676.28a295 295 0 0 1 .4-132H833V534.67A291 291 0 0 1 961.5 505q2.25 0 4.5.04v225.61h280.32a295 295 0 0 1 .4 132H966v227.32l-4.5.03a291 291 0 0 1-128.5-29.66m114 28.95a291 291 0 0 1-95-20.83 291 291 0 0 0 95 20.84M672.68 843.65a295 295 0 0 1-3.68-46.5 295 295 0 0 0 3.68 46.5"/></g></svg>