<svg xmlns="http://www.w3.org/2000/svg" xmlns:xlink="http://www.w3.org/1999/xlink" width="1920" height="1080" viewBox="0 0 1920 1080"><defs><radialGradient id="a" cx="0.5" cy="0.5" r="0.526" gradientUnits="objectBoundingBox"><stop offset="0" stop-color="#195f8c"/><stop offset="1" stop-color="#e7eff3" stop-opacity="0"/></radialGradient><clipPath id="d"><rect width="1920" height="1080"/></clipPath></defs><g id="c" clip-path="url(#d)"><rect width="1920" height="1080" fill="#e7eff3"/><circle cx="1591" cy="1591" r="1591" transform="translate(261 -1523)" opacity="0.106" fill="url(#a)"/><circle cx="1591" cy="1591" r="1591" transform="translate(-1610 -651)" opacity="0.106" fill="url(#a)"/><g transform="translate(184.688 276.58)"><path d="M741.17,498.971a21.346,21.346,0,0,0-42.441,0,21.346,21.346,0,0,0,2.348,42.6H719.94a11.917,11.917,0,0,0,0-23.834,6.953,6.953,0,1,1,4.922-11.886,2.482,2.482,0,1,0,3.519-3.5,11.917,11.917,0,1,0-8.435,20.315,6.953,6.953,0,1,1,0,13.905H701.077a16.387,16.387,0,1,1,0-32.774,2.476,2.476,0,0,0,2.476-2.476,16.387,16.387,0,1,1,32.774,0,2.482,2.482,0,0,0,2.482,2.476,16.387,16.387,0,1,1,0,32.774,2.482,2.482,0,1,0,0,4.964,21.345,21.345,0,0,0,2.354-42.569Z" transform="translate(-680 -480)" fill="#417da5"/><path d="M848.951,546.192c-1.22-.488-2.317-.854-3.9-1.4-2.86-.915-5.66-1.952-5.66-4.33s1.83-3.592,4.629-3.592a10.606,10.606,0,0,1,7.318,3.11l2.44-3.6c-1.83-1.945-4.751-3.775-9.868-3.775s-9.758,2.927-9.758,8.282a7.462,7.462,0,0,0,4.568,6.946,21.378,21.378,0,0,0,3.958,1.525c1.952.671,6.526,1.641,6.526,4.83s-2.866,4.141-5.544,4.141a11.893,11.893,0,0,1-8.538-4.141l-2.8,3.409a13.87,13.87,0,0,0,11.27,5.178,12.333,12.333,0,0,0,8.038-2.562,8.214,8.214,0,0,0,2.982-6.574,7.142,7.142,0,0,0-2.311-5.361A11.12,11.12,0,0,0,848.951,546.192Z" transform="translate(-739.693 -500.551)" fill="#417da5"/><path d="M886.49,532.61a22.278,22.278,0,0,0-10.844,2.927l1.769,3.9a17.752,17.752,0,0,1,8.709-2.5c4.2,0,7.19,2.2,7.19,6.58v1.159l-7.739.3c-6.709.3-11.325,3.165-11.325,8.831s4.629,8.953,9.984,8.953a11.84,11.84,0,0,0,9.2-4.3l.061,3.659h5.66V545.277c0-4.934-1.153-7.367-3.1-9.38S891.3,532.61,886.49,532.61Zm6.885,21.809a9.1,9.1,0,0,1-7.373,4.2c-3.775,0-5.971-2.256-5.971-4.995s1.891-4.751,6.581-4.995l6.764-.427Z" transform="translate(-756.051 -500.551)" fill="#417da5"/><path d="M961.34,532.61c-8.038,0-14.68,5.849-14.68,14.984s5.91,15.167,14.5,15.167,12.362-4.269,12.728-4.568l-2.439-3.354a16,16,0,0,1-9.563,3.354c-5.361,0-9.014-3.47-9.319-9.2h22.3a25.205,25.205,0,0,0,.183-2.561C975.043,538.337,969.378,532.61,961.34,532.61Zm-8.709,12.49c.183-3.476,2.738-8.288,8.538-8.288s8.282,5.056,8.343,8.288Z" transform="translate(-784.3 -500.551)" fill="#417da5"/><path d="M1013.254,546.192c-1.22-.488-2.318-.854-3.9-1.4-2.866-.915-5.666-1.952-5.666-4.33s1.83-3.592,4.629-3.592a10.618,10.618,0,0,1,7.318,3.11l2.439-3.6c-1.83-1.945-4.751-3.775-9.868-3.775s-9.758,2.927-9.758,8.282a7.463,7.463,0,0,0,4.568,6.946,21.735,21.735,0,0,0,3.958,1.525c1.946.671,6.52,1.641,6.52,4.812s-2.86,4.141-5.544,4.141a11.88,11.88,0,0,1-8.538-4.141l-2.805,3.409a13.87,13.87,0,0,0,11.271,5.178,12.32,12.32,0,0,0,8.038-2.561,8.221,8.221,0,0,0,2.988-6.574,7.142,7.142,0,0,0-2.317-5.361A11.053,11.053,0,0,0,1013.254,546.192Z" transform="translate(-803.787 -500.551)" fill="#417da5"/><path d="M1054.6,532.608a12.271,12.271,0,0,0-10.264,5.117h-.122v-4.568h-5.6V573.1h5.849V557.521l.061.061a11.242,11.242,0,0,0,9.99,5.178c8.587,0,14.07-6.58,14.07-15.167S1063.127,532.608,1054.6,532.608Zm-1.22,25.157c-5.787,0-9.2-4.446-9.2-10.234s3.409-10.173,9.2-10.173,9.2,4.385,9.2,10.173S1059.169,557.765,1053.381,557.765Z" transform="translate(-820.172 -500.549)" fill="#417da5"/><rect width="5.849" height="28.932" transform="translate(272.1 32.608)" fill="#417da5"/><path d="M1159.03,532.608a9.758,9.758,0,0,0-8.849,5.117H1150l.061-4.568h-5.849v28.963h5.849V547.531c0-5.544,2.012-10.112,7.434-10.112,5.172,0,6.025,3.659,6.025,8.538v16.161h5.849V544.976C1169.385,538.029,1167.257,532.608,1159.03,532.608Z" transform="translate(-861.37 -500.548)" fill="#417da5"/><path d="M1215.041,533.159l.061,4.568h-.183a11.565,11.565,0,0,0-10.111-5.117c-7.428,0-13.948,5.361-13.948,14.558s6.519,14.558,13.948,14.558a11.582,11.582,0,0,0,10.111-5.178h.122v1.14c0,3.964-1.037,6.709-2.19,8.105s-3.6,3.165-7.928,3.165a18.378,18.378,0,0,1-10.368-3.659l-2.738,4.08a22.225,22.225,0,0,0,12.911,4.324c7.191,0,10.783-2.921,12.917-5.544s3.165-6.1,3.165-12.484V533.159Zm-9.014,23.785c-5.91,0-9.2-4.324-9.2-9.807s3.287-9.868,9.2-9.868,9.2,4.385,9.2,9.868-3.226,9.837-9.2,9.837Z" transform="translate(-879.57 -500.551)" fill="#417da5"/><path d="M925.1,514.1c-1.22,1.525-1.952,3.958-1.952,7.739v31.823h5.788V529.454h6.879v-4.69h-6.879v-3.226c0-3.293.61-6.154,4.446-6.154a11.115,11.115,0,0,1,2.439.311V511.28a18.811,18.811,0,0,0-3.775-.342A8.764,8.764,0,0,0,925.1,514.1Z" transform="translate(-775.128 -492.095)" fill="#417da5"/><path d="M1099.041,537.6h-.183l.061-4.446h-5.848v28.963h5.848V547.648c0-4.269,1.22-6.52,1.763-7.318a6.1,6.1,0,0,1,4.751-2.439,7.665,7.665,0,0,1,3.171.61v-5.617a9.622,9.622,0,0,0-2.439-.293A7.585,7.585,0,0,0,1099.041,537.6Z" transform="translate(-841.419 -500.543)" fill="#417da5"/><circle cx="3.806" cy="3.806" r="3.806" transform="translate(271.185 18.843)" fill="#417da5"/></g><path d="M20.412-26.136H48.6L46.98-30.78l-12.312-36.4q-1.4,4.32-12.636,36.5ZM57.456,0,50.544-20.2H18.36L11.34,0H4.1l25.7-72.792h9.72L64.692,0ZM83.592-54.756v9.4q5.076-10.26,17.388-10.26,7.884,0,12.636,4.86a17.165,17.165,0,0,1,4.752,12.528V0H111.78V-36.18q0-6.372-3.24-9.72a11.333,11.333,0,0,0-8.532-3.348,15.386,15.386,0,0,0-11.556,5.13q-4.86,5.13-4.86,13.878V0H77V-54.756ZM134.568,0V-76.356h6.588V0ZM193.86-30.456V-32.94q0-7.452-4.158-11.88t-11.178-4.428a15.332,15.332,0,0,0-11.556,4.86q-4.644,4.86-5.4,13.932ZM197.208-9.4v6.7A33.4,33.4,0,0,1,182.088.54q-12.2,0-19.818-7.614t-7.614-20.034q0-13.176,6.7-20.736T178.74-55.4q10.044,0,15.984,6.588t5.94,18.576a31.088,31.088,0,0,1-.432,5.832H161.568q.756,9.072,6.264,13.878t14.58,4.806Q191.7-5.724,197.208-9.4Zm24.948-1.944A14.236,14.236,0,0,0,233.82-5.4a16.43,16.43,0,0,0,12.1-5.13q5.076-5.13,5.076-17.118a30.061,30.061,0,0,0-1.674-10.53,16.56,16.56,0,0,0-4.32-6.8,17.986,17.986,0,0,0-5.292-3.348,14.412,14.412,0,0,0-5.238-1.026,14.881,14.881,0,0,0-12.1,5.886q-4.752,5.886-4.752,16.794Q217.62-17.28,222.156-11.34Zm28.836-65.016h6.588V0h-6.588V-7.992Q245.268.864,234.036.864q-11.016,0-17.172-8.046t-6.156-19.6q0-12.744,6.588-20.79a20.923,20.923,0,0,1,16.956-8.046q10.692,0,16.74,9.072Zm29.592,21.6v9.4q5.076-10.26,17.388-10.26,7.884,0,12.636,4.86a17.165,17.165,0,0,1,4.752,12.528V0h-6.588V-36.18q0-6.372-3.24-9.72A11.333,11.333,0,0,0,297-49.248a15.386,15.386,0,0,0-11.556,5.13q-4.86,5.13-4.86,13.878V0H274V-54.756ZM331.56,0V-54.756h6.588V0Zm0-69.012a4.4,4.4,0,0,1-1.3-3.24,4.579,4.579,0,0,1,1.3-3.294,4.306,4.306,0,0,1,3.24-1.35,4.482,4.482,0,0,1,3.294,1.35,4.482,4.482,0,0,1,1.35,3.294,4.306,4.306,0,0,1-1.35,3.24,4.579,4.579,0,0,1-3.294,1.3A4.4,4.4,0,0,1,331.56-69.012Zm30.024,14.256v9.4q5.076-10.26,17.388-10.26,7.884,0,12.636,4.86a17.165,17.165,0,0,1,4.752,12.528V0h-6.588V-36.18q0-6.372-3.24-9.72A11.333,11.333,0,0,0,378-49.248a15.386,15.386,0,0,0-11.556,5.13q-4.86,5.13-4.86,13.878V0H355V-54.756Zm70.092,47.2a15.994,15.994,0,0,0,11.232-4.806q5.076-4.806,5.076-14.742,0-11.34-4.86-16.794t-10.908-5.454a14.19,14.19,0,0,0-12.1,6.048q-4.428,6.048-4.428,15.66,0,9.828,4.968,14.958T431.676-7.56Zm16.308-47.2h6.588V-4.212q0,12.42-6.7,18.63t-17.28,6.21A37,37,0,0,1,414.612,17.5v-6.48a34.094,34.094,0,0,0,15.444,3.348q8.208,0,13.068-4.482t4.86-14.094V-11.34Q442.476-1.3,431.568-1.3a21.4,21.4,0,0,1-16.146-7.02q-6.642-7.02-6.642-19.008,0-12.312,6.1-20.3A19.222,19.222,0,0,1,430.92-55.62q11.772,0,17.064,10.476Zm58.212,24.3V-32.94q0-7.452-4.158-11.88T490.86-49.248a15.332,15.332,0,0,0-11.556,4.86q-4.644,4.86-5.4,13.932ZM509.544-9.4v6.7A33.4,33.4,0,0,1,494.424.54q-12.2,0-19.818-7.614t-7.614-20.034q0-13.176,6.7-20.736t17.388-7.56q10.044,0,15.984,6.588T513-30.24a31.085,31.085,0,0,1-.432,5.832H473.9q.756,9.072,6.264,13.878t14.58,4.806Q504.036-5.724,509.544-9.4Zm23.436-45.36v9.4q5.076-10.26,17.388-10.26,7.884,0,12.636,4.86a17.165,17.165,0,0,1,4.752,12.528V0h-6.588V-36.18q0-6.372-3.24-9.72a11.333,11.333,0,0,0-8.532-3.348,15.386,15.386,0,0,0-11.556,5.13q-4.86,5.13-4.86,13.878V0h-6.588V-54.756Zm86.832,5.616v34.02q0,9.4,8.748,9.4A11.194,11.194,0,0,0,635.9-8.208v6.7A12.9,12.9,0,0,1,628.668.54q-15.552,0-15.552-15.984v-33.7h-8.964v-5.616h8.964V-68.472h6.7v13.716h15.66v5.616ZM649.4,0V-54.756h6.588V0Zm0-69.012a4.4,4.4,0,0,1-1.3-3.24,4.579,4.579,0,0,1,1.3-3.294,4.306,4.306,0,0,1,3.24-1.35,4.482,4.482,0,0,1,3.294,1.35,4.482,4.482,0,0,1,1.35,3.294,4.306,4.306,0,0,1-1.35,3.24,4.579,4.579,0,0,1-3.294,1.3A4.4,4.4,0,0,1,649.4-69.012ZM673.272,0V-76.356h6.588V0ZM697.14,0V-76.356h6.588V0Zm-675,108L3.24,53.244h6.912l7.668,23,8.748,26.46q1.08-4,8.964-26.46l7.992-23h6.912L31,108ZM92.016,81.972H81.324q-7.668,0-11.448,2.97a9.063,9.063,0,0,0-3.78,7.4,9.643,9.643,0,0,0,2.97,7.344q2.97,2.808,8.694,2.808,6.48,0,10.368-3.564a11.765,11.765,0,0,0,3.888-9.072ZM63.072,63.288V56.16q6.264-3.78,15.444-3.78Q98.6,52.38,98.6,73.44V108H92.016v-6.372q-4.536,6.912-15.768,6.912-7.56,0-12.366-4.482a15.025,15.025,0,0,1-4.806-11.5,14.217,14.217,0,0,1,6.1-12.258q6.1-4.374,16.146-4.374H92.016V73.44q0-7.344-3.132-11.07T78.408,58.644A26.575,26.575,0,0,0,63.072,63.288ZM120.96,53.244v9.288Q125.5,52.6,136.3,52.6q.756,0,2.7.216v6.7a14.967,14.967,0,0,0-4.32-.648q-5.832,0-9.774,5.778a22.212,22.212,0,0,0-3.942,12.8V108h-6.588V53.244Zm51.624-21.492v6.48a13.235,13.235,0,0,0-4.752-.864,7.282,7.282,0,0,0-5.562,2.538q-2.322,2.538-2.322,7.614v5.724h12.528V58.86H159.948V108H153.36V58.86H143.316V53.244H153.36V47.412q0-7.452,3.888-11.88T168.156,31.1A16.889,16.889,0,0,1,172.584,31.752ZM191.7,39.42a4.441,4.441,0,0,1,4.644-4.644,4.579,4.579,0,0,1,3.294,1.3,4.434,4.434,0,0,1,1.35,3.348,4.61,4.61,0,0,1-4.644,4.644A4.434,4.434,0,0,1,193,42.714,4.579,4.579,0,0,1,191.7,39.42Zm19.872,0a4.434,4.434,0,0,1,1.35-3.348,4.579,4.579,0,0,1,3.294-1.3,4.441,4.441,0,0,1,4.644,4.644,4.579,4.579,0,0,1-1.3,3.294,4.434,4.434,0,0,1-3.348,1.35,4.61,4.61,0,0,1-4.644-4.644ZM205.2,108.972q-11.556,0-18.36-7.992t-6.8-20.088q0-11.988,7.02-20.2A22.768,22.768,0,0,1,205.2,52.488q12.2,0,18.954,8.046t6.75,20.358q0,12.2-6.858,20.142T205.2,108.972Zm0-50.22a15.816,15.816,0,0,0-13.392,6.48,25.354,25.354,0,0,0-4.86,15.66,24.241,24.241,0,0,0,5.022,15.39,15.977,15.977,0,0,0,13.23,6.426q8.964,0,13.878-6.318a24.478,24.478,0,0,0,4.914-15.5q0-9.5-4.644-15.822T205.2,58.752Zm45.36-5.508v9.288Q255.1,52.6,265.9,52.6q.756,0,2.7.216v6.7a14.967,14.967,0,0,0-4.32-.648q-5.832,0-9.774,5.778a22.212,22.212,0,0,0-3.942,12.8V108h-6.588V53.244Zm83.592,28.728H323.46q-7.668,0-11.448,2.97a9.063,9.063,0,0,0-3.78,7.4,9.643,9.643,0,0,0,2.97,7.344q2.97,2.808,8.694,2.808,6.48,0,10.368-3.564a11.765,11.765,0,0,0,3.888-9.072ZM305.208,63.288V56.16q6.264-3.78,15.444-3.78,20.088,0,20.088,21.06V108h-6.588v-6.372q-4.536,6.912-15.768,6.912-7.56,0-12.366-4.482a15.025,15.025,0,0,1-4.806-11.5,14.217,14.217,0,0,1,6.1-12.258q6.1-4.374,16.146-4.374h10.692V73.44q0-7.344-3.132-11.07t-10.476-3.726A26.575,26.575,0,0,0,305.208,63.288ZM363.1,53.244v8.964q4.644-9.828,15.336-9.828,13.176,0,16.2,10.8,5.076-10.8,16.2-10.8,8.64,0,12.852,4.806T427.9,69.768V108h-6.588V71.82q0-13.068-11.448-13.068-5.616,0-9.99,5.184T395.5,77.76V108h-6.588V71.82q0-13.068-11.448-13.068-5.616,0-9.99,5.184T363.1,77.76V108h-6.588V53.244Zm116.424,24.3V75.06q0-7.452-4.158-11.88t-11.178-4.428a15.332,15.332,0,0,0-11.556,4.86q-4.644,4.86-5.4,13.932Zm3.348,21.06v6.7a33.4,33.4,0,0,1-15.12,3.24q-12.2,0-19.818-7.614t-7.614-20.034q0-13.176,6.7-20.736T464.4,52.6q10.044,0,15.984,6.588t5.94,18.576a31.087,31.087,0,0,1-.432,5.832H447.228q.756,9.072,6.264,13.878t14.58,4.806Q477.36,102.276,482.868,98.6ZM506.3,53.244v9.288Q510.84,52.6,521.64,52.6q.756,0,2.7.216v6.7a14.967,14.967,0,0,0-4.32-.648q-5.832,0-9.774,5.778a22.211,22.211,0,0,0-3.942,12.8V108h-6.588V53.244ZM534.06,108V53.244h6.588V108Zm0-69.012a4.4,4.4,0,0,1-1.3-3.24,4.579,4.579,0,0,1,1.3-3.294,4.306,4.306,0,0,1,3.24-1.35,4.61,4.61,0,0,1,4.644,4.644,4.306,4.306,0,0,1-1.35,3.24,4.579,4.579,0,0,1-3.294,1.3A4.4,4.4,0,0,1,534.06,38.988ZM557.5,108V31.644h6.588V108Zm16.2-28.728L596.808,108H588.6L565.7,79.272l22.248-26.028h8.1Zm63.828,2.7H626.832q-7.668,0-11.448,2.97a9.063,9.063,0,0,0-3.78,7.4,9.642,9.642,0,0,0,2.97,7.344q2.97,2.808,8.694,2.808,6.48,0,10.368-3.564a11.766,11.766,0,0,0,3.888-9.072ZM608.58,63.288V56.16q6.264-3.78,15.444-3.78,20.088,0,20.088,21.06V108h-6.588v-6.372q-4.536,6.912-15.768,6.912-7.56,0-12.366-4.482a15.026,15.026,0,0,1-4.806-11.5,14.217,14.217,0,0,1,6.1-12.258q6.1-4.374,16.146-4.374h10.692V73.44q0-7.344-3.132-11.07t-10.476-3.726A26.575,26.575,0,0,0,608.58,63.288Zm57.888-10.044v9.4q5.076-10.26,17.388-10.26,7.884,0,12.636,4.86a17.165,17.165,0,0,1,4.752,12.528V108h-6.588V71.82q0-6.372-3.24-9.72a11.333,11.333,0,0,0-8.532-3.348,15.386,15.386,0,0,0-11.556,5.13q-4.86,5.13-4.86,13.878V108H659.88V53.244Zm79.164,1.944v6.588q-5.076-2.916-13.716-2.916a11.651,11.651,0,0,0-7.506,2.214,7.063,7.063,0,0,0-2.754,5.778,8.351,8.351,0,0,0,.81,3.78,8.051,8.051,0,0,0,2.808,2.97,25.288,25.288,0,0,0,3.4,2q1.4.648,4.536,1.944a39.476,39.476,0,0,1,11.61,6.642,12.449,12.449,0,0,1,4.05,9.774,13.287,13.287,0,0,1-4.7,10.746q-4.7,3.942-12.906,3.942-9.936,0-15.984-3.24V98.6a31.012,31.012,0,0,0,15.552,4.1q5.508,0,8.37-2.268a7.217,7.217,0,0,0,2.862-5.94,8.086,8.086,0,0,0-2.97-6.7,40.123,40.123,0,0,0-9.774-5.076,34.918,34.918,0,0,1-10.476-6.048q-3.888-3.456-3.888-9.5a12.867,12.867,0,0,1,4.86-10.53,18.746,18.746,0,0,1,12.2-3.942Q740.88,52.7,745.632,55.188ZM760.86,108V31.644h6.588V108Zm16.2-28.728L800.172,108h-8.208l-22.9-28.728,22.248-26.028h8.1Zm63.828,2.7H830.2q-7.668,0-11.448,2.97a9.063,9.063,0,0,0-3.78,7.4,9.642,9.642,0,0,0,2.97,7.344q2.97,2.808,8.694,2.808,6.48,0,10.368-3.564a11.766,11.766,0,0,0,3.888-9.072ZM811.944,63.288V56.16q6.264-3.78,15.444-3.78,20.088,0,20.088,21.06V108h-6.588v-6.372q-4.536,6.912-15.768,6.912-7.56,0-12.366-4.482a15.026,15.026,0,0,1-4.806-11.5,14.217,14.217,0,0,1,6.1-12.258q6.1-4.374,16.146-4.374h10.692V73.44q0-7.344-3.132-11.07T827.28,58.644A26.575,26.575,0,0,0,811.944,63.288ZM14.8,161.244v8.964q4.644-9.828,15.336-9.828,13.176,0,16.2,10.8,5.076-10.8,16.2-10.8,8.64,0,12.852,4.806T79.6,177.768V216H73.008V179.82q0-13.068-11.448-13.068-5.616,0-9.99,5.184T47.2,185.76V216H40.608V179.82q0-13.068-11.448-13.068-5.616,0-9.99,5.184T14.8,185.76V216H8.208V161.244ZM117.18,216.972q-11.556,0-18.36-7.992t-6.8-20.088q0-11.988,7.02-20.2a22.768,22.768,0,0,1,18.144-8.208q12.2,0,18.954,8.046t6.75,20.358q0,12.2-6.858,20.142T117.18,216.972Zm0-50.22a15.816,15.816,0,0,0-13.392,6.48,25.355,25.355,0,0,0-4.86,15.66,24.241,24.241,0,0,0,5.022,15.39,15.977,15.977,0,0,0,13.23,6.426q8.964,0,13.878-6.318a24.478,24.478,0,0,0,4.914-15.5q0-9.5-4.644-15.822T117.18,166.752ZM156.384,216V139.644h6.588V216Zm30.024-54.756v9.4q5.076-10.26,17.388-10.26,7.884,0,12.636,4.86a17.165,17.165,0,0,1,4.752,12.528V216H214.6V179.82q0-6.372-3.24-9.72a11.333,11.333,0,0,0-8.532-3.348,15.386,15.386,0,0,0-11.556,5.13q-4.86,5.13-4.86,13.878V216H179.82V161.244Zm60.7,5.616v34.02q0,9.4,8.748,9.4a11.194,11.194,0,0,0,7.344-2.484v6.7a12.9,12.9,0,0,1-7.236,2.052q-15.552,0-15.552-15.984v-33.7h-8.964v-5.616h8.964V147.528h6.7v13.716h15.66v5.616Zm15.876,68.58v-6.48a18.05,18.05,0,0,0,7.56,1.728q6.156,0,6.156-7.992V161.244h6.588v61.668q0,6.7-3.4,10.368t-9.45,3.672A20.54,20.54,0,0,1,262.98,235.44Zm13.608-88.452a4.4,4.4,0,0,1-1.3-3.24,4.579,4.579,0,0,1,1.3-3.294,4.306,4.306,0,0,1,3.24-1.35,4.61,4.61,0,0,1,4.644,4.644,4.306,4.306,0,0,1-1.35,3.24,4.579,4.579,0,0,1-3.294,1.3A4.4,4.4,0,0,1,276.588,146.988Zm51.624,5.184a4.61,4.61,0,0,1-4.644-4.644,4.434,4.434,0,0,1,1.35-3.348,4.579,4.579,0,0,1,3.294-1.3,4.441,4.441,0,0,1,4.644,4.644,4.579,4.579,0,0,1-1.3,3.294A4.434,4.434,0,0,1,328.212,152.172Zm-19.872,0a4.434,4.434,0,0,1-3.348-1.35,4.579,4.579,0,0,1-1.3-3.294,4.441,4.441,0,0,1,4.644-4.644,4.579,4.579,0,0,1,3.294,1.3,4.434,4.434,0,0,1,1.35,3.348,4.61,4.61,0,0,1-4.644,4.644Zm21.384,37.8H319.032q-7.668,0-11.448,2.97a9.063,9.063,0,0,0-3.78,7.4,9.643,9.643,0,0,0,2.97,7.344q2.97,2.808,8.694,2.808,6.48,0,10.368-3.564a11.765,11.765,0,0,0,3.888-9.072ZM300.78,171.288V164.16q6.264-3.78,15.444-3.78,20.088,0,20.088,21.06V216h-6.588v-6.372q-4.536,6.912-15.768,6.912-7.56,0-12.366-4.482a15.025,15.025,0,0,1-4.806-11.5,14.217,14.217,0,0,1,6.1-12.258q6.1-4.374,16.146-4.374h10.692V181.44q0-7.344-3.132-11.07t-10.476-3.726A26.575,26.575,0,0,0,300.78,171.288Zm57.888-10.044v9.4q5.076-10.26,17.388-10.26,7.884,0,12.636,4.86a17.165,17.165,0,0,1,4.752,12.528V216h-6.588V179.82q0-6.372-3.24-9.72a11.333,11.333,0,0,0-8.532-3.348,15.386,15.386,0,0,0-11.556,5.13q-4.86,5.13-4.86,13.878V216H352.08V161.244Zm79.164,1.944v6.588q-5.076-2.916-13.716-2.916a11.652,11.652,0,0,0-7.506,2.214,7.063,7.063,0,0,0-2.754,5.778,8.351,8.351,0,0,0,.81,3.78,8.051,8.051,0,0,0,2.808,2.97,25.288,25.288,0,0,0,3.4,2q1.4.648,4.536,1.944a39.476,39.476,0,0,1,11.61,6.642,12.449,12.449,0,0,1,4.05,9.774,13.287,13.287,0,0,1-4.7,10.746q-4.7,3.942-12.906,3.942-9.936,0-15.984-3.24v-6.8a31.012,31.012,0,0,0,15.552,4.1q5.508,0,8.37-2.268a7.218,7.218,0,0,0,2.862-5.94,8.086,8.086,0,0,0-2.97-6.7,40.121,40.121,0,0,0-9.774-5.076,34.918,34.918,0,0,1-10.476-6.048q-3.888-3.456-3.888-9.5a12.867,12.867,0,0,1,4.86-10.53,18.746,18.746,0,0,1,12.2-3.942Q433.08,160.7,437.832,163.188Zm25.38,3.672v34.02q0,9.4,8.748,9.4a11.194,11.194,0,0,0,7.344-2.484v6.7a12.9,12.9,0,0,1-7.236,2.052q-15.552,0-15.552-15.984v-33.7h-8.964v-5.616h8.964V147.528h6.7v13.716h15.66v5.616Zm65.016,18.684V183.06q0-7.452-4.158-11.88t-11.178-4.428a15.332,15.332,0,0,0-11.556,4.86q-4.644,4.86-5.4,13.932Zm3.348,21.06v6.7a33.4,33.4,0,0,1-15.12,3.24q-12.2,0-19.818-7.614t-7.614-20.034q0-13.176,6.7-20.736t17.388-7.56q10.044,0,15.984,6.588t5.94,18.576a31.085,31.085,0,0,1-.432,5.832H495.936q.756,9.072,6.264,13.878t14.58,4.806Q526.068,210.276,531.576,206.6Zm23.436-45.36v9.288q4.536-9.936,15.336-9.936.756,0,2.7.216v6.7a14.967,14.967,0,0,0-4.32-.648q-5.832,0-9.774,5.778a22.212,22.212,0,0,0-3.942,12.8V216h-6.588V161.244ZM608.9,216V161.244h6.588V216Zm0-69.012a4.4,4.4,0,0,1-1.3-3.24,4.579,4.579,0,0,1,1.3-3.294,4.306,4.306,0,0,1,3.24-1.35,4.61,4.61,0,0,1,4.644,4.644,4.306,4.306,0,0,1-1.35,3.24,4.579,4.579,0,0,1-3.294,1.3A4.4,4.4,0,0,1,608.9,146.988Zm30.024,14.256v9.4q5.076-10.26,17.388-10.26,7.884,0,12.636,4.86a17.165,17.165,0,0,1,4.752,12.528V216h-6.588V179.82q0-6.372-3.24-9.72a11.333,11.333,0,0,0-8.532-3.348,15.386,15.386,0,0,0-11.556,5.13q-4.86,5.13-4.86,13.878V216H632.34V161.244Zm60.7,5.616v34.02q0,9.4,8.748,9.4a11.194,11.194,0,0,0,7.344-2.484v6.7a12.9,12.9,0,0,1-7.236,2.052q-15.552,0-15.552-15.984v-33.7h-8.964v-5.616h8.964V147.528h6.7v13.716h15.66v5.616Zm65.016,18.684V183.06q0-7.452-4.158-11.88T749.3,166.752a15.332,15.332,0,0,0-11.556,4.86q-4.644,4.86-5.4,13.932Zm3.348,21.06v6.7a33.4,33.4,0,0,1-15.12,3.24q-12.2,0-19.818-7.614t-7.614-20.034q0-13.176,6.7-20.736t17.388-7.56q10.044,0,15.984,6.588t5.94,18.576a31.085,31.085,0,0,1-.432,5.832H732.348q.756,9.072,6.264,13.878t14.58,4.806Q762.48,210.276,767.988,206.6Zm55.08-1.08a16.515,16.515,0,0,0,12.1,5.076,14.092,14.092,0,0,0,11.61-5.94q4.59-5.94,4.59-15.336,0-10.908-4.752-16.794a14.881,14.881,0,0,0-12.1-5.886,14.412,14.412,0,0,0-5.238,1.026,17.985,17.985,0,0,0-5.292,3.348,16.561,16.561,0,0,0-4.32,6.8,30.062,30.062,0,0,0-1.674,10.53Q817.992,200.34,823.068,205.524Zm-5.076-65.88v29.808q6.048-9.072,16.74-9.072a20.923,20.923,0,0,1,16.956,8.046q6.588,8.046,6.588,20.79,0,11.556-6.156,19.6t-17.172,8.046q-11.232,0-16.956-8.856V216H811.4V139.644Zm61.668,7.776a4.441,4.441,0,0,1,4.644-4.644,4.579,4.579,0,0,1,3.294,1.3,4.434,4.434,0,0,1,1.35,3.348,4.61,4.61,0,0,1-4.644,4.644,4.434,4.434,0,0,1-3.348-1.35A4.579,4.579,0,0,1,879.66,147.42Zm19.872,0a4.435,4.435,0,0,1,1.35-3.348,4.579,4.579,0,0,1,3.294-1.3,4.441,4.441,0,0,1,4.644,4.644,4.579,4.579,0,0,1-1.3,3.294,4.435,4.435,0,0,1-3.348,1.35,4.61,4.61,0,0,1-4.644-4.644Zm-6.372,69.552q-11.556,0-18.36-7.992T868,188.892q0-11.988,7.02-20.2a22.768,22.768,0,0,1,18.144-8.208q12.2,0,18.954,8.046t6.75,20.358q0,12.2-6.858,20.142T893.16,216.972Zm0-50.22a15.815,15.815,0,0,0-13.392,6.48,25.354,25.354,0,0,0-4.86,15.66,24.241,24.241,0,0,0,5.022,15.39,15.977,15.977,0,0,0,13.23,6.426q8.964,0,13.878-6.318a24.478,24.478,0,0,0,4.914-15.5q0-9.5-4.644-15.822T893.16,166.752Zm45.36-5.508v9.288q4.536-9.936,15.336-9.936.756,0,2.7.216v6.7a14.967,14.967,0,0,0-4.32-.648q-5.832,0-9.774,5.778a22.212,22.212,0,0,0-3.942,12.8V216h-6.588V161.244ZM22.14,324,3.24,269.244h6.912l7.668,23,8.748,26.46q1.08-4,8.964-26.46l7.992-23h6.912L31,324Zm69.876-26.028H81.324q-7.668,0-11.448,2.97a9.063,9.063,0,0,0-3.78,7.4,9.643,9.643,0,0,0,2.97,7.344q2.97,2.808,8.694,2.808,6.48,0,10.368-3.564a11.765,11.765,0,0,0,3.888-9.072ZM63.072,279.288V272.16q6.264-3.78,15.444-3.78,20.088,0,20.088,21.06V324H92.016v-6.372q-4.536,6.912-15.768,6.912-7.56,0-12.366-4.482a15.026,15.026,0,0,1-4.806-11.5,14.217,14.217,0,0,1,6.1-12.258q6.1-4.374,16.146-4.374H92.016V289.44q0-7.344-3.132-11.07t-10.476-3.726A26.575,26.575,0,0,0,63.072,279.288Zm57.888-10.044v9.288Q125.5,268.6,136.3,268.6q.756,0,2.7.216v6.7a14.967,14.967,0,0,0-4.32-.648q-5.832,0-9.774,5.778a22.212,22.212,0,0,0-3.942,12.8V324h-6.588V269.244Zm57.456,28.728H167.724q-7.668,0-11.448,2.97a9.063,9.063,0,0,0-3.78,7.4,9.643,9.643,0,0,0,2.97,7.344q2.97,2.808,8.694,2.808,6.48,0,10.368-3.564a11.766,11.766,0,0,0,3.888-9.072Zm-28.944-18.684V272.16q6.264-3.78,15.444-3.78Q185,268.38,185,289.44V324h-6.588v-6.372q-4.536,6.912-15.768,6.912-7.56,0-12.366-4.482a15.026,15.026,0,0,1-4.806-11.5,14.217,14.217,0,0,1,6.1-12.258q6.1-4.374,16.146-4.374h10.692V289.44q0-7.344-3.132-11.07t-10.476-3.726A26.575,26.575,0,0,0,149.472,279.288Zm113.292,14.256V291.06q0-7.452-4.158-11.88t-11.178-4.428a15.332,15.332,0,0,0-11.556,4.86q-4.644,4.86-5.4,13.932Zm3.348,21.06v6.7a33.4,33.4,0,0,1-15.12,3.24q-12.2,0-19.818-7.614t-7.614-20.034q0-13.176,6.7-20.736t17.388-7.56q10.044,0,15.984,6.588t5.94,18.576a31.087,31.087,0,0,1-.432,5.832H230.472q.756,9.072,6.264,13.878t14.58,4.806Q260.6,318.276,266.112,314.6Zm23.436-45.36v9.288q4.536-9.936,15.336-9.936.756,0,2.7.216v6.7a14.967,14.967,0,0,0-4.32-.648q-5.832,0-9.774,5.778a22.212,22.212,0,0,0-3.942,12.8V324H282.96V269.244Zm37.476,5.616v34.02q0,9.4,8.748,9.4a11.194,11.194,0,0,0,7.344-2.484v6.7a12.9,12.9,0,0,1-7.236,2.052q-15.552,0-15.552-15.984v-33.7h-8.964v-5.616h8.964V255.528h6.7v13.716h15.66v5.616Zm91.152,18.684V291.06q0-7.452-4.158-11.88t-11.178-4.428a15.332,15.332,0,0,0-11.556,4.86q-4.644,4.86-5.4,13.932Zm3.348,21.06v6.7a33.4,33.4,0,0,1-15.12,3.24q-12.2,0-19.818-7.614t-7.614-20.034q0-13.176,6.7-20.736t17.388-7.56q10.044,0,15.984,6.588t5.94,18.576a31.087,31.087,0,0,1-.432,5.832H385.884q.756,9.072,6.264,13.878t14.58,4.806Q416.016,318.276,421.524,314.6Zm23.436-45.36v9.4q5.076-10.26,17.388-10.26,7.884,0,12.636,4.86a17.165,17.165,0,0,1,4.752,12.528V324h-6.588V287.82q0-6.372-3.24-9.72a11.333,11.333,0,0,0-8.532-3.348,15.386,15.386,0,0,0-11.556,5.13q-4.86,5.13-4.86,13.878V324h-6.588V269.244ZM503.6,312.66a14.236,14.236,0,0,0,11.664,5.94,16.43,16.43,0,0,0,12.1-5.13q5.076-5.13,5.076-17.118a30.061,30.061,0,0,0-1.674-10.53,16.561,16.561,0,0,0-4.32-6.8,17.985,17.985,0,0,0-5.292-3.348,14.412,14.412,0,0,0-5.238-1.026,14.881,14.881,0,0,0-12.1,5.886q-4.752,5.886-4.752,16.794Q499.068,306.72,503.6,312.66Zm28.836-65.016h6.588V324H532.44v-7.992q-5.724,8.856-16.956,8.856-11.016,0-17.172-8.046t-6.156-19.6q0-12.744,6.588-20.79A20.923,20.923,0,0,1,515.7,268.38q10.692,0,16.74,9.072Zm53.136,50.328H574.884q-7.668,0-11.448,2.97a9.063,9.063,0,0,0-3.78,7.4,9.642,9.642,0,0,0,2.97,7.344q2.97,2.808,8.694,2.808,6.48,0,10.368-3.564a11.766,11.766,0,0,0,3.888-9.072Zm-28.944-18.684V272.16q6.264-3.78,15.444-3.78,20.088,0,20.088,21.06V324h-6.588v-6.372q-4.536,6.912-15.768,6.912-7.56,0-12.366-4.482a15.026,15.026,0,0,1-4.806-11.5,14.217,14.217,0,0,1,6.1-12.258q6.1-4.374,16.146-4.374h10.692V289.44q0-7.344-3.132-11.07t-10.476-3.726A26.575,26.575,0,0,0,556.632,279.288ZM664.2,297.972H653.508q-7.668,0-11.448,2.97a9.063,9.063,0,0,0-3.78,7.4,9.642,9.642,0,0,0,2.97,7.344q2.97,2.808,8.694,2.808,6.48,0,10.368-3.564a11.766,11.766,0,0,0,3.888-9.072Zm-28.944-18.684V272.16q6.264-3.78,15.444-3.78,20.088,0,20.088,21.06V324H664.2v-6.372q-4.536,6.912-15.768,6.912-7.56,0-12.366-4.482a15.026,15.026,0,0,1-4.806-11.5,14.217,14.217,0,0,1,6.1-12.258q6.1-4.374,16.146-4.374H664.2V289.44q0-7.344-3.132-11.07t-10.476-3.726A26.575,26.575,0,0,0,635.256,279.288ZM686.556,324V247.644h6.588V324Zm16.2-28.728L725.868,324H717.66l-22.9-28.728,22.248-26.028h8.1ZM746.6,274.86v34.02q0,9.4,8.748,9.4a11.194,11.194,0,0,0,7.344-2.484v6.7a12.9,12.9,0,0,1-7.236,2.052q-15.552,0-15.552-15.984v-33.7h-8.964v-5.616h8.964V255.528h6.7v13.716h15.66v5.616Zm65.016,18.684V291.06q0-7.452-4.158-11.88t-11.178-4.428a15.332,15.332,0,0,0-11.556,4.86q-4.644,4.86-5.4,13.932Zm3.348,21.06v6.7a33.4,33.4,0,0,1-15.12,3.24q-12.2,0-19.818-7.614t-7.614-20.034q0-13.176,6.7-20.736T796.5,268.6q10.044,0,15.984,6.588t5.94,18.576a31.085,31.085,0,0,1-.432,5.832H779.328q.756,9.072,6.264,13.878t14.58,4.806Q809.46,318.276,814.968,314.6Zm23.436-45.36v9.288q4.536-9.936,15.336-9.936.756,0,2.7.216v6.7a14.966,14.966,0,0,0-4.32-.648q-5.832,0-9.774,5.778a22.212,22.212,0,0,0-3.942,12.8V324h-6.588V269.244Zm33.912,0v9.4q5.076-10.26,17.388-10.26,7.884,0,12.636,4.86a17.165,17.165,0,0,1,4.752,12.528V324H900.5V287.82q0-6.372-3.24-9.72a11.333,11.333,0,0,0-8.532-3.348,15.386,15.386,0,0,0-11.556,5.13q-4.86,5.13-4.86,13.878V324h-6.588V269.244Zm80.676,28.728H942.3q-7.668,0-11.448,2.97a9.063,9.063,0,0,0-3.78,7.4,9.642,9.642,0,0,0,2.97,7.344q2.97,2.808,8.694,2.808,6.48,0,10.368-3.564a11.766,11.766,0,0,0,3.888-9.072Zm-28.944-18.684V272.16q6.264-3.78,15.444-3.78,20.088,0,20.088,21.06V324h-6.588v-6.372q-4.536,6.912-15.768,6.912-7.56,0-12.366-4.482a15.026,15.026,0,0,1-4.806-11.5,14.217,14.217,0,0,1,6.1-12.258q6.1-4.374,16.146-4.374h10.692V289.44q0-7.344-3.132-11.07t-10.476-3.726A26.575,26.575,0,0,0,924.048,279.288ZM985.5,274.86v34.02q0,9.4,8.748,9.4a11.194,11.194,0,0,0,7.344-2.484v6.7a12.9,12.9,0,0,1-7.236,2.052q-15.552,0-15.552-15.984v-33.7H969.84v-5.616H978.8V255.528h6.7v13.716h15.66v5.616ZM1015.092,324V269.244h6.588V324Zm0-69.012a4.4,4.4,0,0,1-1.3-3.24,4.579,4.579,0,0,1,1.3-3.294,4.306,4.306,0,0,1,3.24-1.35,4.61,4.61,0,0,1,4.644,4.644,4.306,4.306,0,0,1-1.35,3.24,4.579,4.579,0,0,1-3.294,1.3A4.4,4.4,0,0,1,1015.092,254.988ZM1052.46,324l-18.9-54.756h6.912l7.668,23,8.748,26.46q1.08-4,8.964-26.46l7.992-23h6.912L1061.316,324Z" transform="translate(184 557)" fill="#417da5" opacity="0.822"/></g></svg>