<svg xmlns="http://www.w3.org/2000/svg" width="898" height="538" viewBox="0 0 898 538"><g id="Group_523" transform="translate(-242 -147)"><g id="Rectangle_276" fill="none" stroke="#195f8c" stroke-dasharray="9 9" stroke-width="1" transform="translate(242 147)"><rect width="898" height="538" stroke="none" rx="17"/><rect width="897" height="537" x="0.5" y="0.5" rx="16.5"/></g><path id="Path_433" fill="#323232" d="M-150.94-23.8-161.65 0h-.68l-10.71-23.8h.78L-162-.92l10.27-22.88Zm3.4 6.22h.68V0h-.68Zm.34-4.86a.8.8 0 0 1-.63-.27 1 1 0 0 1-.26-.61 1 1 0 0 1 .26-.63 1 1 0 0 1 .63-.26 1 1 0 0 1 .6.26.8.8 0 0 1 .28.63 1 1 0 0 1-.27.6 1 1 0 0 1-.61.28m23.15-2.79V0h-.68v-5.37a8 8 0 0 1-3 4A8.3 8.3 0 0 1-132.57.1a8.5 8.5 0 0 1-4.34-1.14A8 8 0 0 1-140-4.22a9.4 9.4 0 0 1-1.12-4.59 9 9 0 0 1 1.12-4.57 8 8 0 0 1 3.08-3.16 8.5 8.5 0 0 1 4.33-1.14 8.3 8.3 0 0 1 4.85 1.48 8 8 0 0 1 3 3.96v-12.99Zm-8.53 24.69a8 8 0 0 0 4-1.06 7.4 7.4 0 0 0 2.83-2.94 9 9 0 0 0 1.02-4.27 9 9 0 0 0-1.02-4.26 7.3 7.3 0 0 0-2.82-2.93 8 8 0 0 0-4.01-1.04A8 8 0 0 0-136.6-16a7.3 7.3 0 0 0-2.82 2.92 9 9 0 0 0-1.02 4.27 9 9 0 0 0 1.02 4.27 7.4 7.4 0 0 0 2.82 2.94 8 8 0 0 0 4.02 1.06m30.56-8.27h-15.64a8.6 8.6 0 0 0 1.06 4.27 7.6 7.6 0 0 0 2.9 2.94 8 8 0 0 0 4.17 1.05 8 8 0 0 0 3.38-.7 6.6 6.6 0 0 0 2.6-2.02l.47.48a8 8 0 0 1-2.85 2.14 9 9 0 0 1-3.6.75 9 9 0 0 1-4.5-1.14 8 8 0 0 1-3.13-3.18 9 9 0 0 1-1.14-4.6 10 10 0 0 1 1.05-4.56 8 8 0 0 1 2.9-3.17 8 8 0 0 1 4.17-1.13 8 8 0 0 1 4.15 1.12 8 8 0 0 1 2.94 3.1 9 9 0 0 1 1.07 4.48Zm-8.16-8.22a7 7 0 0 0-3.7.98 7.4 7.4 0 0 0-2.67 2.72 8.4 8.4 0 0 0-1.1 3.88h15a8 8 0 0 0-1.13-3.88 7.5 7.5 0 0 0-2.69-2.72 7 7 0 0 0-3.7-.98M-89.8.1a8.5 8.5 0 0 1-4.37-1.14 8 8 0 0 1-3.06-3.18 9.5 9.5 0 0 1-1.1-4.59 9.4 9.4 0 0 1 1.1-4.57 8 8 0 0 1 3.06-3.16 8.5 8.5 0 0 1 4.37-1.14 8.5 8.5 0 0 1 4.37 1.14 8 8 0 0 1 3.06 3.16 9.4 9.4 0 0 1 1.1 4.57 9.5 9.5 0 0 1-1.1 4.6 8 8 0 0 1-3.06 3.17A8.5 8.5 0 0 1-89.81.1m0-.65A8 8 0 0 0-85.8-1.6a7.4 7.4 0 0 0 2.82-2.94 9 9 0 0 0 1.02-4.27 9 9 0 0 0-1.02-4.26A7.3 7.3 0 0 0-85.8-16a8 8 0 0 0-4.01-1.04A8 8 0 0 0-93.82-16a7.3 7.3 0 0 0-2.82 2.92 9 9 0 0 0-1.02 4.27 9 9 0 0 0 1.02 4.27 7.4 7.4 0 0 0 2.82 2.94 8 8 0 0 0 4 1.06Zm31.31-17.13a8.5 8.5 0 0 1 4.34 1.14 8 8 0 0 1 3.07 3.16 9 9 0 0 1 1.12 4.57 9.4 9.4 0 0 1-1.12 4.6 8 8 0 0 1-3.07 3.17A8.5 8.5 0 0 1-58.5.1a8.3 8.3 0 0 1-4.86-1.48 8 8 0 0 1-3-4V0h-.67v-25.23h.68v12.99a8 8 0 0 1 3-3.96 8.3 8.3 0 0 1 4.85-1.48m0 17.14a8 8 0 0 0 4.02-1.06 7.4 7.4 0 0 0 2.82-2.94 9 9 0 0 0 1.02-4.27 9 9 0 0 0-1.02-4.26A7.3 7.3 0 0 0-54.5-16a8 8 0 0 0-4.01-1.03 8 8 0 0 0-4 1.03 7.3 7.3 0 0 0-2.83 2.92 9 9 0 0 0-1.02 4.27 9 9 0 0 0 1.02 4.27 7.4 7.4 0 0 0 2.82 2.94A8 8 0 0 0-58.5-.54M-30-8.81h-15.64a8.6 8.6 0 0 0 1.05 4.27 7.6 7.6 0 0 0 2.9 2.94 8 8 0 0 0 4.17 1.06 8 8 0 0 0 3.38-.7 6.6 6.6 0 0 0 2.6-2.03l.48.48a8 8 0 0 1-2.86 2.14 9 9 0 0 1-3.6.75 9 9 0 0 1-4.5-1.14 8 8 0 0 1-3.13-3.18 9 9 0 0 1-1.14-4.59 10 10 0 0 1 1.06-4.57 8 8 0 0 1 2.9-3.16 8 8 0 0 1 4.17-1.14 8 8 0 0 1 4.15 1.12 8 8 0 0 1 2.94 3.1A9 9 0 0 1-30-8.98Zm-8.16-8.22a7 7 0 0 0-3.7.98 7.4 7.4 0 0 0-2.67 2.72 8.4 8.4 0 0 0-1.1 3.88h14.99a8 8 0 0 0-1.12-3.88 7.5 7.5 0 0 0-2.69-2.72 7 7 0 0 0-3.71-.98m19-.65a6.4 6.4 0 0 1 4.68 1.58 6 6 0 0 1 1.61 4.57V0h-.68v-3.74a6.4 6.4 0 0 1-2.57 2.82A8 8 0 0 1-20.25.1a7 7 0 0 1-4.57-1.34 4.4 4.4 0 0 1-1.65-3.59 4.4 4.4 0 0 1 1.48-3.41q1.48-1.31 4.78-1.31h6.66v-1.94a5.6 5.6 0 0 0-1.41-4.15 5.7 5.7 0 0 0-4.16-1.4 9 9 0 0 0-3.56.67 9 9 0 0 0-2.84 1.78l-.47-.47a9 9 0 0 1 3.06-1.92 10 10 0 0 1 3.77-.7M-20.24-.54a6.64 6.64 0 0 0 6.7-4.5V-8.9h-6.7a6.6 6.6 0 0 0-4.2 1.09 3.6 3.6 0 0 0-1.34 2.96 3.8 3.8 0 0 0 1.46 3.16 6.4 6.4 0 0 0 4.08 1.16m15.68-12.48a6.5 6.5 0 0 1 2.51-3.45 7.6 7.6 0 0 1 4.39-1.21v.68h-.2a6.2 6.2 0 0 0-4.93 2.02 8 8 0 0 0-1.77 5.53V0h-.68v-17.58h.68Zm20.53-4.66a8.5 8.5 0 0 1 4.34 1.14 8 8 0 0 1 3.08 3.16A9 9 0 0 1 24.5-8.8a9.4 9.4 0 0 1-1.12 4.6 8 8 0 0 1-3.08 3.17A8.5 8.5 0 0 1 15.96.1a8.3 8.3 0 0 1-4.86-1.48 8 8 0 0 1-3-4V0h-.67v-25.23h.68v12.99a8 8 0 0 1 3-3.96 8.3 8.3 0 0 1 4.85-1.48m0 17.14a8 8 0 0 0 4.02-1.06 7.4 7.4 0 0 0 2.82-2.94 9 9 0 0 0 1.02-4.27 9 9 0 0 0-1.02-4.26A7.3 7.3 0 0 0 19.98-16a8 8 0 0 0-4.02-1.04 8 8 0 0 0-4 1.04 7.3 7.3 0 0 0-2.83 2.92A9 9 0 0 0 8.1-8.8a9 9 0 0 0 1.02 4.27 7.4 7.4 0 0 0 2.82 2.94 8 8 0 0 0 4.01 1.06m28.5-8.27H28.82a8.6 8.6 0 0 0 1.05 4.27 7.6 7.6 0 0 0 2.9 2.94 8 8 0 0 0 4.17 1.06 8 8 0 0 0 3.38-.7 6.6 6.6 0 0 0 2.6-2.03l.48.48a8 8 0 0 1-2.85 2.14 9 9 0 0 1-3.6.75 9 9 0 0 1-4.51-1.14 8 8 0 0 1-3.13-3.18 9 9 0 0 1-1.14-4.59 10 10 0 0 1 1.06-4.57 8 8 0 0 1 2.9-3.16 8 8 0 0 1 4.17-1.14 8 8 0 0 1 4.15 1.12 8 8 0 0 1 2.94 3.1 9 9 0 0 1 1.07 4.48Zm-8.16-8.22a7 7 0 0 0-3.7.98 7.4 7.4 0 0 0-2.68 2.72 8.4 8.4 0 0 0-1.1 3.88H43.8a8 8 0 0 0-1.12-3.88A7.5 7.5 0 0 0 40-16.05a7 7 0 0 0-3.7-.98M58.16-1.16a4 4 0 0 1-1.52.94 6 6 0 0 1-1.92.32 4 4 0 0 1-3.14-1.17 4.4 4.4 0 0 1-1.1-3.15v-12.71h-3.4v-.65h3.4v-3.84h.68v3.84h5.94v.65h-5.95V-4.4a4 4 0 0 0 .92 2.86 3.5 3.5 0 0 0 2.68.99 4 4 0 0 0 2.93-1.1ZM69-17.68a6.4 6.4 0 0 1 4.68 1.58 6 6 0 0 1 1.61 4.57V0h-.68v-3.74a6.4 6.4 0 0 1-2.56 2.82A8 8 0 0 1 67.92.1a7 7 0 0 1-4.58-1.34 4.4 4.4 0 0 1-1.65-3.59 4.4 4.4 0 0 1 1.48-3.42q1.48-1.3 4.78-1.3h6.66v-1.94a5.6 5.6 0 0 0-1.41-4.15 5.7 5.7 0 0 0-4.16-1.4 9 9 0 0 0-3.56.67 9 9 0 0 0-2.84 1.78l-.47-.47a9 9 0 0 1 3.06-1.92 10 10 0 0 1 3.77-.7M67.92-.54a6.64 6.64 0 0 0 6.7-4.5V-8.9h-6.7a6.6 6.6 0 0 0-4.2 1.09 3.6 3.6 0 0 0-1.35 2.96 3.8 3.8 0 0 0 1.47 3.16 6.4 6.4 0 0 0 4.08 1.16M86.95.1a12 12 0 0 1-3.97-.68 7.5 7.5 0 0 1-2.9-1.73l.42-.55a8 8 0 0 0 2.73 1.65 10 10 0 0 0 3.72.66 7.6 7.6 0 0 0 4.42-1.03 3.4 3.4 0 0 0 1.43-2.87 2.8 2.8 0 0 0-.76-2.1 4.6 4.6 0 0 0-1.88-1.12 27 27 0 0 0-3.03-.73 25 25 0 0 1-3.35-.8 5 5 0 0 1-2.15-1.36 3.7 3.7 0 0 1-.86-2.6 4 4 0 0 1 1.58-3.21 7 7 0 0 1 4.64-1.31 11 11 0 0 1 3.23.5 8 8 0 0 1 2.58 1.3l-.4.55a7 7 0 0 0-2.46-1.26 10 10 0 0 0-2.95-.44 6.7 6.7 0 0 0-4.13 1.07 3.4 3.4 0 0 0-1.38 2.8 3 3 0 0 0 .78 2.2A5 5 0 0 0 84.2-9.8a24 24 0 0 0 3.06.71 28 28 0 0 1 3.3.82 5 5 0 0 1 2.07 1.3 3.5 3.5 0 0 1 .85 2.5 4 4 0 0 1-1.66 3.32A8 8 0 0 1 86.96.1m26.66 0a8.5 8.5 0 0 1-4.37-1.14 8 8 0 0 1-3.06-3.18 9.5 9.5 0 0 1-1.1-4.59 9.4 9.4 0 0 1 1.1-4.57 8 8 0 0 1 3.06-3.16 8.5 8.5 0 0 1 4.37-1.14 8.5 8.5 0 0 1 4.37 1.14 8 8 0 0 1 3.06 3.16 9.4 9.4 0 0 1 1.1 4.57 9.5 9.5 0 0 1-1.1 4.6 8 8 0 0 1-3.06 3.17A8.5 8.5 0 0 1 113.61.1m0-.65a8 8 0 0 0 4.01-1.05 7.4 7.4 0 0 0 2.83-2.94 9 9 0 0 0 1.02-4.27 9 9 0 0 0-1.02-4.26 7.3 7.3 0 0 0-2.83-2.93 8 8 0 0 0-4-1.04A8 8 0 0 0 109.6-16a7.3 7.3 0 0 0-2.82 2.92 9 9 0 0 0-1.02 4.27 9 9 0 0 0 1.02 4.27 7.4 7.4 0 0 0 2.82 2.94 8 8 0 0 0 4.01 1.06Zm20.84.65A9 9 0 0 1 130-1.04a8 8 0 0 1-3.08-3.16 9.5 9.5 0 0 1-1.1-4.6 9.5 9.5 0 0 1 1.1-4.61 8 8 0 0 1 3.08-3.15 9 9 0 0 1 4.45-1.12 9 9 0 0 1 3.6.73 7 7 0 0 1 2.73 2.13l-.48.5a6 6 0 0 0-2.51-2.03 8 8 0 0 0-3.34-.68 8 8 0 0 0-4.1 1.03 7.3 7.3 0 0 0-2.83 2.93 9 9 0 0 0-1.02 4.26 9 9 0 0 0 1.02 4.29 7.4 7.4 0 0 0 2.84 2.92 8 8 0 0 0 4.1 1.05 8 8 0 0 0 3.33-.68 6 6 0 0 0 2.51-2.04l.48.51a7 7 0 0 1-2.74 2.13 9 9 0 0 1-3.59.73m19.69-17.78a7 7 0 0 1 5.17 1.89 7.4 7.4 0 0 1 1.87 5.42V0h-.68v-10.37a7 7 0 0 0-1.65-4.95 6.2 6.2 0 0 0-4.68-1.71 7.2 7.2 0 0 0-5.42 2.05 7.5 7.5 0 0 0-1.99 5.43V0h-.68v-25.23h.68v12.34a7 7 0 0 1 2.72-3.52 8 8 0 0 1 4.66-1.27m-338.59 40a6.4 6.4 0 0 1 4.68 1.58 6 6 0 0 1 1.61 4.57V40h-.68v-3.74a6.4 6.4 0 0 1-2.57 2.82 8 8 0 0 1-4.13 1.02 7 7 0 0 1-4.57-1.34 4.4 4.4 0 0 1-1.65-3.59 4.4 4.4 0 0 1 1.48-3.42q1.48-1.3 4.78-1.3h6.66V28.5a5.6 5.6 0 0 0-1.41-4.15 5.7 5.7 0 0 0-4.17-1.4 9 9 0 0 0-3.55.67 9 9 0 0 0-2.84 1.78l-.47-.47a9 9 0 0 1 3.06-1.92 10 10 0 0 1 3.77-.7m-1.09 17.14a6.64 6.64 0 0 0 6.7-4.5V31.1h-6.7a6.6 6.6 0 0 0-4.2 1.09 3.6 3.6 0 0 0-1.34 2.96 3.8 3.8 0 0 0 1.46 3.16 6.4 6.4 0 0 0 4.08 1.16m-1.94-21.25a.8.8 0 0 1-.62-.28 1 1 0 0 1-.26-.6 1 1 0 0 1 .26-.64 1 1 0 0 1 .62-.25 1 1 0 0 1 .62.25.8.8 0 0 1 .27.63 1 1 0 0 1-.27.61 1 1 0 0 1-.62.28m5.58 0a.8.8 0 0 1-.63-.28 1 1 0 0 1-.25-.6 1 1 0 0 1 .25-.64 1 1 0 0 1 .63-.25 1 1 0 0 1 .61.25.8.8 0 0 1 .27.63 1 1 0 0 1-.27.61 1 1 0 0 1-.61.28m12.04 8.77a6.5 6.5 0 0 1 2.51-3.45 7.6 7.6 0 0 1 4.39-1.21V23h-.2a6.2 6.2 0 0 0-4.93 2.02 8 8 0 0 0-1.77 5.53V40h-.68V22.42h.68Zm28.8 11.86a4 4 0 0 1-1.52.94 6 6 0 0 1-1.92.32 4 4 0 0 1-3.14-1.17 4.4 4.4 0 0 1-1.1-3.15V23.07h-3.4v-.65h3.4v-3.84h.68v3.84h5.95v.65h-5.95V35.6a4 4 0 0 0 .92 2.86 3.5 3.5 0 0 0 2.68.99 4 4 0 0 0 2.93-1.1Zm5.23-16.42h.68V40h-.68Zm.34-4.86a.8.8 0 0 1-.63-.27 1 1 0 0 1-.25-.61 1 1 0 0 1 .25-.63 1 1 0 0 1 .63-.26 1 1 0 0 1 .61.26.8.8 0 0 1 .28.63 1 1 0 0 1-.28.6 1 1 0 0 1-.61.28m8.16-2.79h.68V40h-.68Zm8.5 0h.68V40h-.68Zm23.7 7.65v16.02q0 4.21-2 6.24t-6.12 2.02a13 13 0 0 1-4.47-.78 8.6 8.6 0 0 1-3.32-2.15l.48-.47a9 9 0 0 0 3.23 2.04 11 11 0 0 0 4.08.71q3.8 0 5.62-1.82t1.82-5.7v-4.42a8 8 0 0 1-3.04 3.86 8.5 8.5 0 0 1-4.91 1.45 9 9 0 0 1-4.42-1.1 8 8 0 0 1-3.1-3.06 8.7 8.7 0 0 1-1.12-4.4 8.7 8.7 0 0 1 1.12-4.4 8 8 0 0 1 3.1-3.05 9 9 0 0 1 4.42-1.08 8.6 8.6 0 0 1 4.9 1.42 8 8 0 0 1 3.05 3.81v-5.14Zm-8.63 16.36a8.3 8.3 0 0 0 4.1-1 7 7 0 0 0 2.84-2.83 8 8 0 0 0 1.02-4.1 8 8 0 0 0-1.02-4.08 7 7 0 0 0-2.84-2.8 8.3 8.3 0 0 0-4.1-1 8.3 8.3 0 0 0-4.1 1 7 7 0 0 0-2.84 2.8 8 8 0 0 0-1.02 4.08 8 8 0 0 0 1.02 4.1 7 7 0 0 0 2.84 2.83 8.3 8.3 0 0 0 4.1 1m22.06-16.46a6.4 6.4 0 0 1 4.67 1.58 6 6 0 0 1 1.62 4.57V40h-.68v-3.74a6.4 6.4 0 0 1-2.57 2.82 8 8 0 0 1-4.13 1.02 7 7 0 0 1-4.57-1.34 4.4 4.4 0 0 1-1.65-3.59 4.4 4.4 0 0 1 1.48-3.42q1.48-1.3 4.77-1.3h6.67V28.5a5.6 5.6 0 0 0-1.41-4.15 5.7 5.7 0 0 0-4.16-1.4 9 9 0 0 0-3.56.67 9 9 0 0 0-2.84 1.78l-.47-.47a9 9 0 0 1 3.06-1.92 10 10 0 0 1 3.77-.7m-1.09 17.14a6.64 6.64 0 0 0 6.7-4.5V31.1h-6.7a6.6 6.6 0 0 0-4.2 1.09 3.6 3.6 0 0 0-1.34 2.96 3.8 3.8 0 0 0 1.46 3.16 6.4 6.4 0 0 0 4.08 1.16m-1.94-21.25a.8.8 0 0 1-.63-.28 1 1 0 0 1-.25-.6 1 1 0 0 1 .25-.64 1 1 0 0 1 .63-.25 1 1 0 0 1 .61.25.8.8 0 0 1 .28.63 1 1 0 0 1-.28.61 1 1 0 0 1-.6.28m5.58 0a.8.8 0 0 1-.63-.28 1 1 0 0 1-.26-.6 1 1 0 0 1 .26-.64 1 1 0 0 1 .63-.25 1 1 0 0 1 .61.25.8.8 0 0 1 .27.63 1 1 0 0 1-.27.61 1 1 0 0 1-.61.28m19.41 4.11a7 7 0 0 1 5.17 1.89 7.4 7.4 0 0 1 1.87 5.42V40h-.68V29.63a7 7 0 0 0-1.65-4.95 6.2 6.2 0 0 0-4.67-1.71 7.2 7.2 0 0 0-5.42 2.05 7.5 7.5 0 0 0-2 5.43V40h-.67V22.42h.68v4.7a7 7 0 0 1 2.71-3.52 8 8 0 0 1 4.66-1.28m29.85.1v16.02q0 4.21-2 6.24T-38 46.7a13 13 0 0 1-4.47-.78 8.6 8.6 0 0 1-3.32-2.15l.48-.47a9 9 0 0 0 3.23 2.04 11 11 0 0 0 4.08.71q3.8 0 5.62-1.82t1.82-5.7v-4.42a8 8 0 0 1-3.04 3.86 8.5 8.5 0 0 1-4.91 1.45 9 9 0 0 1-4.42-1.1 8 8 0 0 1-3.1-3.06 8.7 8.7 0 0 1-1.12-4.4 8.7 8.7 0 0 1 1.12-4.4 8 8 0 0 1 3.1-3.05 9 9 0 0 1 4.42-1.08 8.6 8.6 0 0 1 4.9 1.42 8 8 0 0 1 3.05 3.81v-5.14Zm-8.63 16.35a8.3 8.3 0 0 0 4.1-1 7 7 0 0 0 2.84-2.82 8 8 0 0 0 1.02-4.1 8 8 0 0 0-1.02-4.08 7 7 0 0 0-2.84-2.8 8.3 8.3 0 0 0-4.1-1 8.3 8.3 0 0 0-4.1 1 7 7 0 0 0-2.84 2.8 8 8 0 0 0-1.02 4.08 8 8 0 0 0 1.02 4.1 7 7 0 0 0 2.84 2.82 8.3 8.3 0 0 0 4.1 1m16.45-24h.68V40h-.68Zm8.5 7.65h.68V40h-.68Zm.34-4.86a.8.8 0 0 1-.63-.27 1 1 0 0 1-.25-.61 1 1 0 0 1 .25-.63 1 1 0 0 1 .63-.26 1 1 0 0 1 .62.26.8.8 0 0 1 .27.63 1 1 0 0 1-.27.61 1 1 0 0 1-.62.27m23.36 4.86v16.02q0 4.21-2 6.24T2 46.7a13 13 0 0 1-4.47-.78 8.6 8.6 0 0 1-3.32-2.15l.48-.47a9 9 0 0 0 3.23 2.04 11 11 0 0 0 4.08.71q3.8 0 5.63-1.82t1.82-5.7v-4.42a8 8 0 0 1-3.05 3.86 8.5 8.5 0 0 1-4.91 1.45 9 9 0 0 1-4.42-1.1 8 8 0 0 1-3.1-3.06 9.2 9.2 0 0 1 0-8.8 8 8 0 0 1 3.1-3.05 9 9 0 0 1 4.42-1.09 8.6 8.6 0 0 1 4.91 1.43 8 8 0 0 1 3.05 3.8v-5.13ZM1.5 38.78a8.3 8.3 0 0 0 4.1-1 7 7 0 0 0 2.84-2.83 8 8 0 0 0 1.02-4.1 8 8 0 0 0-1.02-4.08 7 7 0 0 0-2.84-2.8 8.3 8.3 0 0 0-4.1-1 8.3 8.3 0 0 0-4.1 1 7 7 0 0 0-2.84 2.8 8 8 0 0 0-1.02 4.08 8 8 0 0 0 1.02 4.1 7 7 0 0 0 2.84 2.82 8.3 8.3 0 0 0 4.1 1m24.95-16.36h.68V40h-.68Zm.34-4.86a.8.8 0 0 1-.63-.27 1 1 0 0 1-.25-.61.87.87 0 0 1 .88-.89 1 1 0 0 1 .61.26.8.8 0 0 1 .28.63.93.93 0 0 1-.89.88m16.22 4.76a7 7 0 0 1 5.17 1.89 7.4 7.4 0 0 1 1.87 5.42V40h-.68V29.63a7 7 0 0 0-1.65-4.95 6.2 6.2 0 0 0-4.68-1.71 7.2 7.2 0 0 0-5.42 2.05 7.5 7.5 0 0 0-1.99 5.43V40h-.68V22.42h.68v4.7a7 7 0 0 1 2.72-3.53 8 8 0 0 1 4.66-1.27M64.12 40.1a8.5 8.5 0 0 1-4.37-1.14 8 8 0 0 1-3.06-3.18 9.5 9.5 0 0 1-1.1-4.59 9.4 9.4 0 0 1 1.1-4.57 8 8 0 0 1 3.06-3.16 9 9 0 0 1 8.74 0 8 8 0 0 1 3.06 3.16 9.4 9.4 0 0 1 1.1 4.57 9.5 9.5 0 0 1-1.1 4.6 8 8 0 0 1-3.06 3.17 8.5 8.5 0 0 1-4.37 1.14m0-.65a8 8 0 0 0 4.02-1.05 7.4 7.4 0 0 0 2.82-2.94 9.4 9.4 0 0 0 0-8.54A7.3 7.3 0 0 0 68.14 24a8.3 8.3 0 0 0-8.03 0 7.3 7.3 0 0 0-2.82 2.92 9.4 9.4 0 0 0 0 8.54 7.4 7.4 0 0 0 2.82 2.94 8 8 0 0 0 4.01 1.06Zm36.15-17.13a6.6 6.6 0 0 1 5.01 1.89 7.5 7.5 0 0 1 1.82 5.42V40h-.68V29.63a7 7 0 0 0-1.6-4.95 6 6 0 0 0-4.52-1.71 7 7 0 0 0-5.27 2.05 7.6 7.6 0 0 0-1.94 5.43V40h-.68V29.63a7 7 0 0 0-1.6-4.95 6 6 0 0 0-4.52-1.71 7 7 0 0 0-5.27 2.05 7.6 7.6 0 0 0-1.94 5.43V40h-.68V22.42h.68v4.66a6.8 6.8 0 0 1 2.65-3.5 8 8 0 0 1 4.52-1.26 7 7 0 0 1 4.42 1.34 6.3 6.3 0 0 1 2.25 3.9 7 7 0 0 1 2.6-3.83 7.8 7.8 0 0 1 4.75-1.41m28.83 7.51-5.2 4.73V40h-.68V14.77h.68v18.97l12.41-11.32h.99l-7.65 7L138.07 40h-.88Zm19.28 10.27a8.5 8.5 0 0 1-4.37-1.14 8 8 0 0 1-3.06-3.18 9.5 9.5 0 0 1-1.1-4.59 9.4 9.4 0 0 1 1.1-4.57 8 8 0 0 1 3.06-3.16 9 9 0 0 1 8.74 0 8 8 0 0 1 3.06 3.16 9.4 9.4 0 0 1 1.1 4.57 9.5 9.5 0 0 1-1.1 4.6 8 8 0 0 1-3.06 3.17 8.5 8.5 0 0 1-4.37 1.14m0-.65a8 8 0 0 0 4-1.05 7.4 7.4 0 0 0 2.83-2.94 9.4 9.4 0 0 0 0-8.54 7.3 7.3 0 0 0-2.82-2.92 8.3 8.3 0 0 0-8.03 0 7.3 7.3 0 0 0-2.82 2.92 9.4 9.4 0 0 0 0 8.54 7.4 7.4 0 0 0 2.82 2.94 8 8 0 0 0 4.02 1.06Zm14.96-12.47a6.5 6.5 0 0 1 2.51-3.46 7.6 7.6 0 0 1 4.39-1.2V23h-.2a6.2 6.2 0 0 0-4.93 2.02 8 8 0 0 0-1.77 5.53V40h-.68V22.42h.68Zm20.8 11.86a4 4 0 0 1-1.5.94 6 6 0 0 1-1.93.32 4 4 0 0 1-3.14-1.17 4.4 4.4 0 0 1-1.1-3.15V23.07h-3.4v-.65h3.4v-3.84h.68v3.84h5.95v.65h-5.95V35.6a4 4 0 0 0 .91 2.86 3.5 3.5 0 0 0 2.69.99 4 4 0 0 0 2.92-1.1Z" transform="translate(691 408)"/></g></svg>