<svg xmlns="http://www.w3.org/2000/svg" id="Lager_1" viewBox="0 0 600 300"><defs><style>.cls-1{fill:#e8eff3}.cls-2{fill:none}.cls-3{fill:#e30613}</style></defs><path d="M0 0h600v300H0z" class="cls-1"/><g id="GMV"><path d="M126.5 50h347v200h-347z" class="cls-2"/><path d="M399.7 106.4c-4.2 4.2-26.9 41-31.6 41-3.3 0-8.3-9.6-11.2-14.5-10.1-16.9-21-33.1-39.7-33.1-8.9 0-18.1 4.7-24 11.5-5.1-7.1-10.8-11.5-23.7-11.5-12 0-23.3 5.9-27.2 16.2-1.2-7.4-3.7-14.5-17.1-15.8-23.7-2.3-39.6 16.3-44.1 37.2-2.8 13.2 5.7 28.6 23.6 28.6 10.6 0 18.9-4.3 21.6-9.7 0 0-2.3 26.3-25.3 26.3-13.2 0-22.2-8.7-22.2-8.7l-2.2 9.1c-2.1 8.8 8.9 16.2 21.8 16.2 18.8 0 35.2-12 40.2-23.8s12.5-43.6 12.5-43.6c2.4-10.1 9.1-15.8 16.2-15.8 8.1 0 12.5 5.2 9.6 17.4l-6.8 28.5c-2.1 8.8 2.2 13.4 10.2 13.4h4.9l10.4-44c2.4-10.1 8.7-15.3 16.1-15.3 8.1 0 12.3 5.2 9.4 17.4l-6.8 28.5c-1.9 7.9 1.4 13.4 11.4 13.4h2.2s2.4-38.1 11.4-38.1c7.5 0 15.7 27 24.2 36.6 0 0 3.1 3 6.1 0 2.5-2.6 48.2-65.1 53.4-69.4-4.5-3.7-15.3-5.9-23.3 2m-168.2 26.9c-2.8 11.8-11 18.6-20.2 18.6-8.8 0-13-7.1-10.7-16.7 2.6-11.1 11.6-19 21.1-19 8.1-.1 12.6 5.6 9.8 17.1M431 101a4.8 4.8 0 1 1-4.8 4.8 4.87 4.87 0 0 1 4.8-4.8m0 8.8a4 4 0 1 0-4-4 4.1 4.1 0 0 0 4 4m-1.8-6.8h2.1c1.3 0 1.9.6 1.9 1.7a1.4 1.4 0 0 1-1.3 1.5l1.4 2.3h-1.1l-1.4-2.2h-.7v2.2h-1V103Zm1 2.4h.7c.6 0 1.3 0 1.3-.8s-.7-.8-1.3-.8h-.7Z" class="cls-3"/><path d="M247.2 190.1h1.6l.1 9.1h-1.6Zm4.4 0h2.2l4.5 6.8-.1-6.8h1.6l.1 9.1h-2.1l-4.6-7 .1 7h-1.6Zm11-.1h2.2l4.5 6.8-.1-6.8h1.6l.1 9.1h-2.1l-4.6-7 .1 7h-1.6zm15.4-.4a4.47 4.47 0 0 1 4.9 4.7 4.7 4.7 0 0 1-4.8 4.9 4.8 4.8 0 1 1-.1-9.6m.1 8.1a3.13 3.13 0 0 0 3.1-3.4 3 3 0 0 0-3.2-3.2 3.3 3.3 0 0 0 .1 6.6m5.6-7.9h1.9l2.6 6.9 2.5-6.9h1.8l-3.6 9.2h-1.4Zm12.6-.1h1.4l4 9.1h-1.9l-.9-2.1h-4l-.8 2.1h-1.8Zm2.1 5.6-1.4-3.7-1.4 3.7Zm6-4.3h-2.8v-1.5l7.2-.1v1.5H306l.1 7.7h-1.6zm6.3-1.5h1.6l.1 9.1h-1.6Zm4.4 0h2.2l4.5 6.8-.1-6.8h1.6l.1 9.1h-2.1l-4.6-7 .1 7h-1.6zm19.2 8.3a8 8 0 0 1-3.8.9 4.8 4.8 0 1 1-.1-9.6 5.3 5.3 0 0 1 3.6 1.1l-1.2 1.2a3.4 3.4 0 0 0-2.4-.9 3.1 3.1 0 0 0-3.1 3.3 3.15 3.15 0 0 0 3.2 3.4 4.3 4.3 0 0 0 2.1-.5v-2.2h-1.9V193h3.5zm11.5-6.7a2 2 0 0 0-1.6-.7c-.8 0-1.5.4-1.5 1.2 0 1.8 4.4.7 4.4 4 0 2-1.5 2.9-3.3 3a3.7 3.7 0 0 1-3-1.2l1.2-1.2a2.1 2.1 0 0 0 1.8.9c.8 0 1.6-.4 1.6-1.3 0-2-4.3-.8-4.4-4.1 0-1.9 1.7-2.8 3.3-2.8a4 4 0 0 1 2.6.9zm7.8-2.3a4.47 4.47 0 0 1 4.9 4.7 4.7 4.7 0 0 1-4.8 4.9 4.6 4.6 0 0 1-4.9-4.7 4.7 4.7 0 0 1 4.8-4.9m.1 8.2a3.13 3.13 0 0 0 3.1-3.4 3 3 0 0 0-3.2-3.2 3.1 3.1 0 0 0-3.1 3.3 3.2 3.2 0 0 0 3.2 3.3m7.1-8h1.6l.1 7.7h3.9v1.5l-5.5.1Zm14.6 5.7a3.65 3.65 0 0 1-7.3 0l-.1-5.8h1.6l.1 5.7a2 2 0 0 0 2.1 2.1 1.9 1.9 0 0 0 2-2.1l-.1-5.7h1.6zm4.6-4.4h-2.8v-1.5l7.2-.1v1.5h-2.8l.1 7.7h-1.6zm6.2-1.5h1.6l.1 9.1h-1.6Zm8.7-.4a4.47 4.47 0 0 1 4.9 4.7 4.7 4.7 0 0 1-4.8 4.9 4.6 4.6 0 0 1-4.9-4.7 4.7 4.7 0 0 1 4.8-4.9m.1 8.2a3.13 3.13 0 0 0 3.1-3.4 3 3 0 0 0-3.2-3.2 3.1 3.1 0 0 0-3.1 3.3 3.24 3.24 0 0 0 3.2 3.3m7.1-8h2.2l4.5 6.8-.1-6.8h1.6l.1 9.1h-2.1l-4.6-7 .1 7h-1.6Zm15.5 1.8a2 2 0 0 0-1.6-.7c-.8 0-1.5.4-1.5 1.2 0 1.8 4.4.7 4.4 4 0 2-1.5 2.9-3.3 3a3.7 3.7 0 0 1-3-1.2l1.2-1.2a2.1 2.1 0 0 0 1.8.9c.8 0 1.6-.4 1.6-1.3 0-2-4.3-.8-4.4-4.1 0-1.9 1.7-2.8 3.3-2.8a4 4 0 0 1 2.6.9z"/></g></svg>