<svg xmlns="http://www.w3.org/2000/svg" id="Lager_1" viewBox="0 0 600 300"><defs><style>.cls-1{fill:#e7eef2}.cls-2{fill:#005aa3}</style></defs><path d="M0 0h600v300H0z" class="cls-1"/><path d="M125.81 97.52a56 56 0 0 1 22.28-4.46 55 55 0 0 1 22.11 4.46Zm22.12 3.14v2.14h-32s-1.49 1-3.14 2.15c-1.65 1.32-3.3 2.8-3.3 2.8h76.91s-2.31-2-4.79-3.79a54 54 0 0 0-5-3.14h-28.68Zm0 10.23V113h-43.74s-1.15 1.32-2 2.48a26 26 0 0 0-1.65 2.31h94.89s-1-1.49-2.64-3.47c-1.32-1.65-3-3.46-3-3.46Zm0 10.23v2.15H97.26s-.66 1.15-1.32 2.47a20 20 0 0 0-1.15 2.48h106.27s-.49-1.16-1.65-3.63a36 36 0 0 0-2-3.47Zm0 10.23v2.15H92.81a14 14 0 0 0-.66 2.47c-.33 1.16-.66 2.48-.66 2.48h113s-.49-1.82-.82-3.47l-1.16-3.46h-54.58Zm0 10.23v2H90.5s-.17 1.32-.33 2.31a22 22 0 0 0-.17 2.48h115.69s0-1.82-.17-3.47c-.16-1.48-.49-3.46-.49-3.46h-57.1Zm0 10.07v2H90.17a18 18 0 0 0 .16 2.31c.17 1 .33 2.48.33 2.48h114.7a26 26 0 0 0 .33-3.47c.16-1.81.16-3.3.16-3.3Zm0 10.23v2l-56.44.12a20 20 0 0 0 .66 2.31c.33 1.15.82 2.47.82 2.47h110.08s.66-2 1-3.13c.49-2 .82-3.8.82-3.8Zm0 10.23v2.15H95s.66 1.48 1.16 2.47l1.32 2.32h71.78a12.3 12.3 0 0 1 9.25-4.3 11.9 11.9 0 0 1 9.24 4.3h10.89s.82-1.49 1.65-3.14 1.65-3.8 1.65-3.8Zm41.75 10.24a12 12 0 0 1 .82 3.3 14 14 0 0 1-.16 3.63h1A35 35 0 0 0 194 186a44 44 0 0 0 2.64-3.8h-6.93Zm-22.61 0h-19.14v2h-47.2a20 20 0 0 0 2 2.47 21 21 0 0 0 2 2.31h61.72a14 14 0 0 1-.17-3.63 12 12 0 0 1 .83-3.13Zm.49 10.23h-19.63v2H110s1.65 1.32 3.13 2.64a34 34 0 0 0 3.3 2.31h62.88l.66-.5a11.7 11.7 0 0 1-7.76-1.48 12.7 12.7 0 0 1-4.62-4.95Zm-19.63 10.23v2h-21.29a56 56 0 0 0 21.29 4.13 56 56 0 0 0 25.74-6.11Zm146.21-33c0 22.78 15 39.12 33 39.12 17.82 0 33-16.51 33-39.12 0-10.56-3.79-21.45-10.39-28.22a31.45 31.45 0 0 0-46.54 1.49c-5.78 6.76-9.08 16.67-9.08 26.73Zm55.62 1.19c0 15.84-8.09 34.82-22.45 34.82-15 0-23.43-20.46-23.43-36.8 0-17 8.25-33.83 22.77-33.83 15.68-.17 23.11 19 23.11 35.81m68.81 16v-48.72c0-1.81.66-4.12-1.48-4.12h-15.35c-1 0-1.81-.33-1.81 1.15 0 2.15 2.47 2.15 3.79 2.15 7.1 0 5.78 6.27 5.78 13.2v31.69c0 4.62.49 8.41-2.31 12.21-3.8 5.11-8.42 7.42-14.2 7.42-4.95 0-10.56-2.14-13.2-7.59-2.31-4.78-2.31-13-2.31-18.65V140.1c0-2.48.66-5.94-2.14-5.94h-14.86c-1 0-1.65-.33-1.65 1 0 2.31 2.31 2.31 3.63 2.31 7.26 0 5.94 6.27 5.94 13.2v25.25c0 8.09-.33 16.67 4 23.43 3.79 6.27 9.24 9.58 15.67 9.58 12 0 18.32-11.56 20.3-11.56 1.65 0 1 5.94 1 6.77v4c0 .83 0 1.32.66 1.32.33 0 1.16-.82 1.49-1 3.79-3.63 8.58-5.45 13.2-7.1.82-.33 2.81-.66 2.81-2.14 0-1.16-1-1.32-1.66-1.32l-1.65.16c-6.6.66-5.61-4.62-5.61-11.05Zm26.08 3V93.23c0-1.32.16-2.64-1.16-2.64-1 0-2.14 1.15-2.8 1.81-3.14 2.65-8.25 4.3-11.88 5.12-.83.17-1.82.66-1.82 1.82 0 2.14 2.31 1.65 3.47 1.65 6.43 0 5.11 7.26 5.11 13.36v75.59c0 7.09 1.16 12.7-5.94 13.53-1.48.16-3.8-.17-3.8 2.31a1.6 1.6 0 0 0 1.82 1.65c4.13 0 8.42-.66 12.54-.66 4 0 8.25.66 12.54.66 1 0 1.66-.49 1.66-1.82 0-2.14-2.32-2-3.8-2.14-7.26-.66-5.94-6.27-5.94-13.53Zm23.6-28.22h40.1c1.32 0 1.65-1.49 1.65-2.81a36 36 0 0 0-4.62-16.83 22.3 22.3 0 0 0-19.14-10.23c-9.08 0-17.33 3.79-23.93 11.05-7.1 7.6-9.58 16.51-9.58 27.73 0 20.79 12.88 38.12 30.21 38.12 8.25 0 14.68-2.64 20.95-9.24 1-1 5.12-5.45 5.12-7.43 0-.66-.33-1.32-1-1.32-1.65 0-6.6 10.73-19.64 10.73-16 0-25.74-16.17-25.74-34.66.16-5.44 1.48-5.11 5.61-5.11Zm10.89-4h-10.73c-1.48 0-4.45.49-4.45-2.15s2.14-7.76 3.3-9.57c4-6.93 10.56-11.06 17.33-11.06 4.29 0 8.58 1.32 11.55 5.12a18 18 0 0 1 3.46 9.73c0 4-2 5.78-5 6.61-4 1.15-11.55 1.32-15.51 1.32Zm-253.49-36.66v68.16c0 10.56.5 14.19-8.74 14.19-1.16 0-3.3-.5-3.3 1.65 0 1.82 1 2.48 2.31 2.48 2.8 0 5.77-.66 8.41-.66 10.9 0 21.46.66 32.35.66 7.76 0 14.69-.66 21.45-6.44 6.11-4.95 10.4-13.7 10.4-23.27 0-16.83-11.88-27.56-23.76-29.38 9.07-2.31 18.48-9.57 18.48-22.77A23.6 23.6 0 0 0 270.71 105c-7.76-4.13-18-4.13-26.24-4.13-8.09.17-19.15.5-26.57 2.15-1.49.33-6.11 1.15-6.11 4a1.38 1.38 0 0 0 1.49 1.48c1.65 0 3.79-1.32 6.43-1.32 6.77 0 5.94 7.43 5.94 14Zm10.4 19v-23.46c0-2.8-.33-7.26 1.32-9.4 2.15-3 8.09-3 10.89-3 11.56 0 22.61 5.94 22.61 22.61 0 5.77-1.65 11.38-4.95 15.34-4.45 5.28-10.56 5.94-16.17 5.94h-7.1c-5.94-.16-6.6-.49-6.6-8.08Zm0 45.55v-26.76c0-9.08 1.16-7.59 9.08-7.59 7.42 0 14.52 0 21.12 4.79 6.77 4.62 10.23 12.7 10.23 22.44 0 6.93-2.47 14.36-6.6 19.14-4.95 5.61-10.72 6.6-17.16 6.6-3.47 0-9.9-.16-12.71-2.47-4.29-3.14-4-10.89-4-16.17Z" class="cls-2"/></svg>