<svg id="Lager_1" data-name="Lager 1" xmlns="http://www.w3.org/2000/svg" viewBox="0 0 600 300"><defs><style>.cls-1{fill:#e8eff3;}.cls-2{fill:#e05f2e;fill-rule:evenodd;}</style></defs><rect class="cls-1" width="600" height="300"/><path class="cls-2" d="M271.58,187V110.3h25.25V187Zm116.76,0V71.29H413.6V187ZM226.16,108.47a38.43,38.43,0,0,0-14.5,2.65h-.21c-1,.43-1.94.88-2.89,1.36h-.24l-1.83-4.24H186.4V229h25.26V186.23a39.67,39.67,0,0,0,14.5,2.65,40.33,40.33,0,0,0,40-40,38.89,38.89,0,0,0-11.93-28.52,38.17,38.17,0,0,0-28.06-11.9M236.41,159a14.35,14.35,0,0,1-20.31.06L216,159a14.7,14.7,0,0,1,0-20.65,14.19,14.19,0,0,1,20.05-.33l.33.33a14.5,14.5,0,0,1,.15,20.5Zm47.76-88a13.88,13.88,0,0,1,10.2,4.32,14.5,14.5,0,0,1,0,20.65A14.39,14.39,0,0,1,274,96L274,96a14.82,14.82,0,0,1-.1-20.65A13.87,13.87,0,0,1,284.17,71Zm58,37.47a38.17,38.17,0,0,0-28.06,11.9,38.61,38.61,0,0,0-11.69,28.52,38.45,38.45,0,0,0,11.69,28.3,38.88,38.88,0,0,0,15.55,9.75V229H354.9V186.86a40.87,40.87,0,0,0,27.24-38,38.85,38.85,0,0,0-11.93-28.52,38.17,38.17,0,0,0-28.06-11.9M352.41,159a14.44,14.44,0,0,1-24.62-10.28,14.57,14.57,0,0,1,24.42-10.7l.33.33a14.45,14.45,0,0,1,.22,20.43l-.22.22"/></svg>