<svg xmlns="http://www.w3.org/2000/svg" id="Lager_1" viewBox="0 0 600 300"><defs><style>.cls-1{fill:#e8eff3}.cls-2{fill:#e05f2e;fill-rule:evenodd}</style></defs><path d="M0 0h600v300H0z" class="cls-1"/><path d="M271.58 187v-76.7h25.25V187Zm116.76 0V71.29h25.26V187Zm-162.18-78.53a38 38 0 0 0-14.5 2.65h-.21q-1.48.64-2.89 1.36h-.24l-1.83-4.24H186.4V229h25.26v-42.77a40 40 0 0 0 14.5 2.65 40.33 40.33 0 0 0 40-40 39 39 0 0 0-11.93-28.52 38.2 38.2 0 0 0-28.06-11.9M236.41 159a14.35 14.35 0 0 1-20.31.06l-.1-.06a14.7 14.7 0 0 1 0-20.65 14.2 14.2 0 0 1 20.05-.33l.33.33a14.5 14.5 0 0 1 .15 20.5Zm47.76-88a14 14 0 0 1 10.2 4.32 14.5 14.5 0 0 1 0 20.65A14.4 14.4 0 0 1 274 96a14.8 14.8 0 0 1-.1-20.65A14 14 0 0 1 284.17 71m58 37.47a38.2 38.2 0 0 0-28.06 11.9 38.6 38.6 0 0 0-11.69 28.52 38.5 38.5 0 0 0 11.69 28.3 39 39 0 0 0 15.55 9.75V229h25.24v-42.14a40.9 40.9 0 0 0 27.24-38 39 39 0 0 0-11.93-28.52 38.2 38.2 0 0 0-28.06-11.9M352.41 159a14.44 14.44 0 0 1-24.62-10.28 14.57 14.57 0 0 1 24.42-10.7l.33.33a14.45 14.45 0 0 1 .22 20.43l-.22.22" class="cls-2"/></svg>