<svg xmlns="http://www.w3.org/2000/svg" xmlns:xlink="http://www.w3.org/1999/xlink" width="600" height="300" viewBox="0 0 600 300"><defs><clipPath id="clip-Logo"><path d="M0 0h600v300H0z"/></clipPath></defs><g id="Logo" clip-path="url(#clip-Logo)"><path fill="#e8eff3" d="M0 0h600v300H0z"/><g id="_6415d71c62883958aa17d864_logo_navbar" transform="translate(107.285 122.001)"><path id="Path_1441" fill="#151515" d="M66.47 45.46a19.5 19.5 0 0 1-10.82-2.76A11.7 11.7 0 0 1 50.4 35l4.13-.7a8.8 8.8 0 0 0 4.13 5.36 15 15 0 0 0 7.98 2 12.5 12.5 0 0 0 7.46-2 6.4 6.4 0 0 0 2.77-5.46 5 5 0 0 0-.88-3.09 7.3 7.3 0 0 0-3.36-2.24 74 74 0 0 0-7.5-2.38 51 51 0 0 1-8.22-2.8 10 10 0 0 1-4.16-3.19 7.7 7.7 0 0 1-1.2-4.38 8.8 8.8 0 0 1 1.8-5.46 11.7 11.7 0 0 1 4.96-3.7 19 19 0 0 1 7.42-1.34 20 20 0 0 1 7.57 1.4 13.5 13.5 0 0 1 5.42 3.85 10 10 0 0 1 2.38 5.7l-4.13.78a8.3 8.3 0 0 0-3.67-5.74 13.4 13.4 0 0 0-7.7-2.17 12.4 12.4 0 0 0-7.14 1.75 5.4 5.4 0 0 0-2.77 4.73 4.5 4.5 0 0 0 .95 2.87 9 9 0 0 0 3.43 2.13 57 57 0 0 0 6.93 2.1 47 47 0 0 1 8.5 2.88 10 10 0 0 1 4.34 3.46 9 9 0 0 1 1.26 4.87 9.9 9.9 0 0 1-3.92 8.26q-3.88 2.97-10.71 2.97" transform="translate(62.494 6.976)"/><path id="Path_1442" fill="#151515" d="M84.18 45.53a17 17 0 0 1-9.56-2.52 16 16 0 0 1-5.92-7.03 26 26 0 0 1-2.06-10.4 26 26 0 0 1 2.1-10.47 16 16 0 0 1 5.95-7 17.3 17.3 0 0 1 9.52-2.49 17.6 17.6 0 0 1 9.66 2.66 13.6 13.6 0 0 1 5.81 7.25l-3.92 1.44a11.2 11.2 0 0 0-4.51-5.47 13 13 0 0 0-7.07-1.96 12.4 12.4 0 0 0-7.39 2.07 12 12 0 0 0-4.34 5.64 23 23 0 0 0-1.5 8.33q.1 7.24 3.4 11.65 3.32 4.38 9.83 4.38a13 13 0 0 0 6.97-1.86 12 12 0 0 0 4.55-5.38l4 1.36a16.7 16.7 0 0 1-6.17 7.32 17 17 0 0 1-9.35 2.48" transform="translate(82.629 6.976)"/><path id="Path_1443" fill="#151515" d="M96.7 45.53A15.4 15.4 0 0 1 89.4 44a10.5 10.5 0 0 1-4.3-4.06 11 11 0 0 1-1.44-5.53 10 10 0 0 1 1.34-5.4 10.6 10.6 0 0 1 3.6-3.5 19 19 0 0 1 5.01-2q3.12-.7 6.72-1.19 3.6-.52 6.86-.91 3.3-.38 5.36-.66l-1.47.87q.14-6.13-2.31-9.1-2.41-3.01-8.54-3.01a12 12 0 0 0-7.1 1.96 10.3 10.3 0 0 0-3.9 5.99l-4.12-1.16a13.3 13.3 0 0 1 5.21-7.91 17 17 0 0 1 10.05-2.76 17.3 17.3 0 0 1 8.75 2.03 11 11 0 0 1 4.97 5.7 13 13 0 0 1 .81 3.54 38 38 0 0 1 .21 4.03v23.55h-3.68v-9.94l1.37.35a14.6 14.6 0 0 1-5.99 7.88 18 18 0 0 1-10.12 2.76m.2-3.7a16 16 0 0 0 6.76-1.37 12 12 0 0 0 4.7-3.89 13 13 0 0 0 2.3-5.92 25 25 0 0 0 .39-4.1l.03-3.25 1.75 1.12q-2.27.28-5.46.6-3.15.3-6.44.76a51 51 0 0 0-5.95 1.16 17 17 0 0 0-3.33 1.33 8 8 0 0 0-2.76 2.34 6.4 6.4 0 0 0-1.09 3.83 8 8 0 0 0 .84 3.43 7 7 0 0 0 2.87 2.83 11 11 0 0 0 5.39 1.12Z" transform="translate(103.748 6.976)"/><path id="Path_1444" fill="#151515" d="M102.08 51.46V0h4.02v51.46Z" transform="translate(126.569)"/><path id="Path_1445" fill="#151515" d="M125.31 45.53a17.7 17.7 0 0 1-9.38-2.41 16.3 16.3 0 0 1-6.13-6.9 24 24 0 0 1-2.17-10.57 24.6 24.6 0 0 1 2.14-10.68 16 16 0 0 1 6.1-6.93 17.7 17.7 0 0 1 9.37-2.42 17 17 0 0 1 9.39 2.52 15.5 15.5 0 0 1 5.95 7.21 27 27 0 0 1 1.96 11.38h-4.2v-1.4q-.18-7.77-3.5-11.83t-9.53-4.06q-6.4 0-9.9 4.23-3.47 4.2-3.47 11.9 0 7.63 3.47 11.84 3.5 4.2 9.83 4.2a14 14 0 0 0 7.63-2.03 14.4 14.4 0 0 0 5.22-5.89l3.64 1.61a17 17 0 0 1-6.58 7.57 18.3 18.3 0 0 1-9.84 2.66m-14.91-18.8V23.1h29.86v3.65Z" transform="translate(133.458 6.976)"/><path id="Path_1446" fill="#151515" d="M143.34 45.53a17 17 0 0 1-9.55-2.55 16.3 16.3 0 0 1-6-7.07 25 25 0 0 1-2.06-10.4 24 24 0 0 1 2.1-10.4 16 16 0 0 1 6.03-7 17.5 17.5 0 0 1 9.48-2.49 17 17 0 0 1 9.56 2.56 16 16 0 0 1 5.99 7 24 24 0 0 1 2.06 10.33 25 25 0 0 1-2.06 10.5 16 16 0 0 1-6.03 7 17.4 17.4 0 0 1-9.52 2.52m0-3.92q6.69 0 9.98-4.48 3.33-4.48 3.33-11.62 0-7.28-3.33-11.62t-9.98-4.34a12.7 12.7 0 0 0-7.45 2.06 12.3 12.3 0 0 0-4.41 5.64 22 22 0 0 0-1.44 8.26q0 7.28 3.36 11.69 3.4 4.41 9.94 4.41" transform="translate(155.902 6.976)"/><path id="Path_1447" fill="#151515" d="M159.8 44.78a16 16 0 0 1-5.6-.91 13 13 0 0 1-4.26-2.56 15 15 0 0 1-3.01-3.92 20 20 0 0 1-1.79-4.97 28 28 0 0 1-.56-5.64V6.1h4.06v19.67a26 26 0 0 0 .7 6.37 14 14 0 0 0 2.17 4.76 9.6 9.6 0 0 0 3.65 2.98 12 12 0 0 0 5.18 1.01 12.4 12.4 0 0 0 5.32-1.05 10 10 0 0 0 3.7-3 13 13 0 0 0 2.18-4.56 22 22 0 0 0 .73-5.78l3.19.39a21.6 21.6 0 0 1-2.1 10.12 13.7 13.7 0 0 1-5.6 5.88 16.6 16.6 0 0 1-7.95 1.89m12.86-.88v-8.5h-.39V6.1h4.06v37.8Z" transform="translate(179.272 7.557)"/><path id="Path_1448" fill="#151515" d="M185.5 49.72a22 22 0 0 1-5.95.49 13 13 0 0 1-5.25-1.3 7.7 7.7 0 0 1-3.43-3.65 11 11 0 0 1-1.05-4.02q-.1-2.03-.1-4.66V1.41h4.05v35.1q0 2.39.04 3.96a7 7 0 0 0 .73 2.84 5.4 5.4 0 0 0 4 2.94 22 22 0 0 0 6.96-.17Zm-24.26-34.14v-3.67h24.26v3.67Z" transform="translate(199.929 1.744)"/><path id="Path_1449" fill="#151515" d="M65.86 40.93a17.4 17.4 0 0 1-12.34-5.1l2.15-2.14a14.4 14.4 0 0 0 10.2 4.23 14 14 0 0 0 10.18-4.23A14.4 14.4 0 0 0 80.3 23.5a14 14 0 0 0-4.24-10.19 14.4 14.4 0 0 0-10.19-4.24 14 14 0 0 0-10.19 4.24L33.14 35.84a17.5 17.5 0 0 1-24.67 0 17.5 17.5 0 0 1 0-24.68 17.5 17.5 0 0 1 24.67 0L31 13.3a14.4 14.4 0 0 0-10.2-4.23 14 14 0 0 0-10.19 4.24A14.4 14.4 0 0 0 6.38 23.5a14 14 0 0 0 4.23 10.19 14.4 14.4 0 0 0 10.19 4.23 14 14 0 0 0 10.19-4.23l22.53-22.53a17.45 17.45 0 1 1 12.34 29.77" transform="translate(4.179 7.518)"/><path id="Path_1450" fill="#151515" d="M61.68 52.66A25 25 0 0 1 44 45.36l2.15-2.15A21.96 21.96 0 1 0 77.2 12.15a21.93 21.93 0 0 0-31.06 0L23.62 34.67a9.88 9.88 0 1 1 0-14l-2.14 2.15a6.88 6.88 0 1 0 0 9.7L44 10a24.98 24.98 0 0 1 42.67 17.68 24.94 24.94 0 0 1-24.99 24.98" transform="translate(8.359 3.338)"/><path id="Path_1451" fill="#151515" d="M24.98 52.66A24.94 24.94 0 0 1 0 27.68 24.94 24.94 0 0 1 24.98 2.69 24.8 24.8 0 0 1 42.66 10l-2.15 2.15A21.96 21.96 0 0 0 9.45 43.2a21.93 21.93 0 0 0 31.06 0l22.53-22.53a9.88 9.88 0 1 1 0 14l2.15-2.15a6.88 6.88 0 1 0 0-9.7L42.66 45.36a24.8 24.8 0 0 1-17.68 7.3" transform="translate(0 3.338)"/></g></g></svg>