<svg xmlns="http://www.w3.org/2000/svg" id="Lager_1" viewBox="0 0 600 300"><defs><style>.cls-1{fill:#e8eff3}.cls-2{fill:#262362}.cls-3{fill:#272362}.cls-4{fill:#272463}.cls-5{fill:#262262}.cls-6{fill:#060606}.cls-7{fill:#040404}.cls-8{fill:#050505}.cls-9{fill:#070707}.cls-10{fill:#030303}.cls-11{fill:#080808}.cls-12{fill:#020202}.cls-13{fill:#0a0a0a}</style></defs><path d="M0 0h600v300H0z" class="cls-1"/><g id="Olmia"><path d="M213.74 102.9c19.16-.26 32.07 14.23 35.22 26 3.64 13.65 1 25.86-9.06 36.09a36 36 0 0 1-21.56 10.65 37.2 37.2 0 0 1-37.11-18.2 36 36 0 0 1-4.5-17.29 33.6 33.6 0 0 1 5.7-20.34c5.76-8.4 13.44-14.13 23.57-16.17 2.54-.51 5.14-.66 7.72-1Zm24.91 35.85a27 27 0 0 0-.85-6.29 25.08 25.08 0 0 0-43.85-9 24.5 24.5 0 0 0-5.38 16.81 24.2 24.2 0 0 0 5.55 15.35c8 9.5 19.2 11.35 29.06 7.47 7.43-2.95 15.58-11.09 15.47-24.34" class="cls-2"/><path d="M319.86 174.7h-11.43v-24.57a24 24 0 0 0-.74-6.51l-.12-.38c-.9-2.77-2.45-4.13-5-4.31a6.2 6.2 0 0 0-6.34 3.61 18 18 0 0 0-1.44 7.53c-.06 7.92 0 15.85 0 23.77v.84h-11.32v-44.87h11.3v2.86l.13.17a12.5 12.5 0 0 1 11.1-4.25 14 14 0 0 1 10.39 5.93q.53-.59 1.05-1.13a15.8 15.8 0 0 1 12.1-4.84 17 17 0 0 1 6.38 1.14c4.08 1.63 6.42 4.77 7.67 8.85a27 27 0 0 1 1.09 7.82v28.32h-11.4v-26.16a19 19 0 0 0-.88-6.08A4.8 4.8 0 0 0 328 139a6.2 6.2 0 0 0-7.14 4.54 23 23 0 0 0-1 7.48v22.84Zm91.47-40.79v-4.09h11.38v44.86h-11.35v-3.76l-.94.73a19 19 0 0 1-13.9 4.24 20 20 0 0 1-15.18-8.89 27.7 27.7 0 0 1-1.25-27.6c3.17-5.49 7.68-9.28 14.05-10.5a18.7 18.7 0 0 1 16.56 4.46Zm.6 18.44a15 15 0 0 0-1.13-6.23c-1.92-4.38-5.17-7-10.05-7.17a10.4 10.4 0 0 0-10.37 6 15.4 15.4 0 0 0 .5 15.64 10 10 0 0 0 8.78 5.09 10.9 10.9 0 0 0 10.78-6.35 15 15 0 0 0 1.49-6.98" class="cls-3"/><path d="M271.75 174.69h-11.29V97.74h11.29Z" class="cls-4"/><path d="M356.13 129.8h11.28v44.88h-11.28Z" class="cls-5"/><path d="M361.75 119.52a7.22 7.22 0 1 1 7.24-7.19 7.2 7.2 0 0 1-7.24 7.19" class="cls-3"/><path d="M314.69 198.46h2.18a2.5 2.5 0 0 0 3.09 1.8c1.39-.29 1.86-1.33 1.72-3.85l-.28.15a4.2 4.2 0 0 1-4.48.6 4.3 4.3 0 0 1-2.62-3.72 5.4 5.4 0 0 1 .79-3.66 4.3 4.3 0 0 1 6.24-1l.33.25.08-.86h2.19v9.41c0 2.3-1 3.83-2.89 4.43a5.5 5.5 0 0 1-4-.17 3.9 3.9 0 0 1-2.35-3.38m7.13-5.79a2.7 2.7 0 0 0-2.34-2.87 2.53 2.53 0 0 0-2.87 2.12 3 3 0 0 0 1.6 3.53 2.68 2.68 0 0 0 3.61-2.78" class="cls-6"/><path d="M186.23 195.18h6v2h-8.29v-14.36h8.27v2h-6v3.44h5.83v2.09h-5.85Z" class="cls-7"/><path d="m274.74 185-1.82 1-.36-.47a2.45 2.45 0 0 0-3.3-.56 1.46 1.46 0 0 0-.07 2.59 13 13 0 0 0 1.82.84q.96.41 1.89.86c3.19 1.65 2.76 5.85.19 7.49a4.92 4.92 0 0 1-7.56-2.93l-.07-.57 2.27-.49q.1.5.21.94a2.4 2.4 0 0 0 3.06 1.68 2.35 2.35 0 0 0 1.74-2.89 2.2 2.2 0 0 0-1.21-1.45c-.7-.35-1.44-.61-2.14-.95a11 11 0 0 1-1.83-1 3.42 3.42 0 0 1-.07-5.58 4.87 4.87 0 0 1 7.25 1.49" class="cls-6"/><path d="m343.76 193.23 2.24-.47q.12.56.27 1a2.3 2.3 0 0 0 2.4 1.65 2.4 2.4 0 0 0 2.33-1.69 2.16 2.16 0 0 0-1.06-2.64c-.71-.41-1.51-.68-2.25-1a11 11 0 0 1-1.83-1 3.4 3.4 0 0 1-.2-5.49A4.83 4.83 0 0 1 353 185l-1.85 1a2.26 2.26 0 0 0-2.45-1.41 3 3 0 0 0-1.44.61 1.33 1.33 0 0 0 0 2.15 6 6 0 0 0 1.27.73c.81.37 1.67.65 2.46 1.06a4 4 0 0 1 2.38 4.58 4.6 4.6 0 0 1-4 3.74c-3.02.4-5.37-1.36-5.61-4.23" class="cls-8"/><path d="m309.74 189 .08-.84H312v9h-2.16l-.06-.81a4.5 4.5 0 0 1-4.37.91 4.2 4.2 0 0 1-2.28-1.78 5.3 5.3 0 0 1 .58-6.4c1.54-1.55 3.58-1.6 6.03-.08m-2.47.81a2.67 2.67 0 0 0-2.69 2.81 2.7 2.7 0 0 0 2.58 3 2.91 2.91 0 0 0 .11-5.8Z" class="cls-7"/><path d="M257.13 193.18h-6.68a2.3 2.3 0 0 0 1.42 2.25c1.64.58 2.69-.23 3.53-1.6l1.84 1a5 5 0 0 1-5.91 2.53 4.56 4.56 0 0 1-3.3-4.92c.23-4.1 3.55-5.12 6.15-4.37a4.4 4.4 0 0 1 2.95 5.11m-2.31-1.76a2 2 0 0 0-2.39-1.62 1.9 1.9 0 0 0-1.8 1.62Z" class="cls-6"/><path d="M335.49 193.19h-6.79a2.35 2.35 0 0 0 1.52 2.26c1.28.46 2 .11 3.51-1.59l1.8 1a5 5 0 0 1-5.93 2.52 4.5 4.5 0 0 1-3.28-4.86c.09-1.87.76-3.45 2.57-4.21a4.7 4.7 0 0 1 5.07.59c1.34 1.04 1.56 2.58 1.53 4.29m-2.37-1.77a2 2 0 0 0-2.12-1.62 2 2 0 0 0-2.08 1.62Zm-118.47 2.43 1.93 1a14 14 0 0 1-1.45 1.6 5.3 5.3 0 0 1-5.69.42 4.9 4.9 0 0 1-2.13-5.07c.59-4 4.32-4.55 6.62-3.59 1.74.73 2.67 2.6 2.45 4.91h-6.67a2.2 2.2 0 0 0 1.35 2.27c1.31.61 2.28.15 3.59-1.54m-.59-2.43a2 2 0 0 0-2.4-1.62 1.9 1.9 0 0 0-1.8 1.62Z" class="cls-8"/><path d="M287.94 197.52a4.85 4.85 0 1 1 5.14-4.79 4.9 4.9 0 0 1-5.14 4.79m2.85-4.83a2.65 2.65 0 0 0-2.79-2.89 2.9 2.9 0 0 0 0 5.8 2.67 2.67 0 0 0 2.79-2.91m69.52 4.83a4.84 4.84 0 1 1 0-9.68 4.85 4.85 0 1 1 0 9.68m0-7.72a2.9 2.9 0 1 0 2.83 2.89 2.7 2.7 0 0 0-2.81-2.89Zm38.32 7.72a4.84 4.84 0 1 1 0-9.68 4.85 4.85 0 1 1 0 9.68m.07-7.72a2.9 2.9 0 1 0 2.79 2.93 2.72 2.72 0 0 0-2.79-2.93" class="cls-6"/><path d="M406.13 188.13h2.13l.09.73a4 4 0 0 1 3.09-1c1.65.23 2.65 1 2.76 2.69.14 2.2 0 4.42 0 6.64h-2.15v-3.58q.02-1.18-.07-2.35a1.4 1.4 0 0 0-1.42-1.47c-1.12-.1-1.82.27-2 1.2a11 11 0 0 0-.24 2.12v4.07h-2.17Z" class="cls-8"/><path d="M197.18 197.2h-2.27v-7.08h-.75v-2l.74-.06v-2c0-.89 0-1.79.1-2.68.26-2.21 2.83-2.61 4.31-2a.5.5 0 0 1 .22.42v1.8a8 8 0 0 0-1-.36c-.84-.24-1.34.06-1.38.94v3.86h2.31v2h-2.32Z" class="cls-9"/><path d="M203.81 197.21h-2.22v-7.06l-.79-.09v-1.91l.76-.1v-3.38a8 8 0 0 1 .18-1.66c.46-1.85 2.87-2.18 4.24-1.58.11 0 .18.29.19.44v1.75c-.34-.13-.64-.26-1-.35-.82-.22-1.31 0-1.36.88-.08 1.29 0 2.58 0 3.93h2.28v2h-2.32Z" class="cls-10"/><path d="M372.72 188.13h2.18v5.77a1.82 1.82 0 0 0 3.63 0v-5.67h2.24v4.91a11 11 0 0 1-.11 1.6 3 3 0 0 1-1.27 2.06 4.8 4.8 0 0 1-5.42 0 2.9 2.9 0 0 1-1.29-2.26c.02-2.19.04-4.27.04-6.41" class="cls-11"/><path d="M226.2 194.09v2.46a.6.6 0 0 1-.3.44 5.7 5.7 0 0 1-5.88-.66 4.5 4.5 0 0 1-1.5-5 4.8 4.8 0 0 1 3.93-3.42 5.7 5.7 0 0 1 3.3.33.6.6 0 0 1 .48.67v2.42c-1-1.15-2-1.85-3.31-1.51a3.6 3.6 0 0 0-1.67 1 3 3 0 0 0 .26 4c1.24 1.18 2.79.99 4.69-.73" class="cls-9"/><path d="m416.5 195.24 1.84-.82.45.62a1.3 1.3 0 0 0 1.42.52 1.2 1.2 0 0 0 .72-.58 1 1 0 0 0-.2-.9 3 3 0 0 0-1-.66q-.74-.38-1.51-.73c-1.84-.92-1.44-3.34-.23-4.22a3.08 3.08 0 0 1 4.68 1.21l-1.79.92a6 6 0 0 0-.49-.56.78.78 0 0 0-1.18 0c-.36.51 0 .82.37 1 .78.42 1.61.78 2.4 1.19a2.1 2.1 0 0 1 1.29 2 4 4 0 0 1-.66 2 3.63 3.63 0 0 1-6.11-.99m-174.08 2.67-4.93-9.81h2.23c.18 0 .41.29.51.5l2.21 4.56c.63-1.29 1.3-2.46 1.76-3.7s1-1.62 2.21-1.39a5 5 0 0 0 1 0Z" class="cls-6"/><path d="M369.93 197.21h-2.12v-15.78h2.12Z" class="cls-12"/><path d="M230.67 197.21h-2.2v-7.07l-.94-.07v-1.94l.89-.06v-3.28h2.22v3.29h1.7v2h-1.67Z" class="cls-11"/><path d="M385.91 197.2h-2.22v-7.07l-.93-.06v-1.95h.89v-3.32h2.25v3.28h1.67v2h-1.66Z" class="cls-9"/><path d="M280 188.11h1.72v2H280v7.11h-2.18v-7.06l-.93-.07v-1.93l.88-.07v-3.28H280Z" class="cls-10"/><path d="m297.58 188.15.09.66a3 3 0 0 1 4-.4l-1 1.92-.51-.24a1.62 1.62 0 0 0-2.37 1.2 12 12 0 0 0-.15 2.13v3.78h-2.18v-9Z" class="cls-7"/><path d="M236 197.21h-2.16v-9.07H236Z" class="cls-13"/><path d="M391.31 197.21h-2.14v-9.07h2.14Z" class="cls-12"/><path d="M390.24 185.71a1.4 1.4 0 0 1-1.46-1.35 1.46 1.46 0 1 1 1.46 1.35m-153.91-1.36a1.44 1.44 0 0 1-2.88-.06 1.44 1.44 0 0 1 2.88.06" class="cls-9"/></g></svg>