<svg xmlns="http://www.w3.org/2000/svg" width="223" height="112" viewBox="0 0 223 112"><g transform="translate(-306 -184)"><path fill="#e8eff3" d="M306 184h223v112H306z"/><g transform="translate(345.009 218.01)"><path fill="#4a67ce" d="M32.01 12.58a6.33 6.33 0 0 0-6.33-6.33h-7.74v5.63a7.04 7.04 0 0 0 7.03 7.03h.7a6.33 6.33 0 0 0 6.34-6.33"/><path fill="#4a67ce" d="M25.68 19.9h-.7a8.04 8.04 0 0 1-8.03-8.03V5.26h8.73a7.32 7.32 0 0 1 0 14.64M18.93 7.24v4.64a6.05 6.05 0 0 0 6.04 6.04h.7a5.34 5.34 0 0 0 0-10.68ZM15.07.99h-3.92A10.16 10.16 0 0 0 .99 11.15v7.76h3.92A10.16 10.16 0 0 0 15.06 8.75Z"/><path fill="#4a67ce" d="M11.15 0h4.9v8.75A11.15 11.15 0 0 1 4.91 19.9H0v-8.75A11.15 11.15 0 0 1 11.15 0m2.93 1.98h-2.93a9.2 9.2 0 0 0-9.17 9.17v6.77h2.93a9.2 9.2 0 0 0 9.16-9.17Zm17.93 28.7a7.7 7.7 0 0 1-7.7 7.7h-6.53V30.1a7.12 7.12 0 0 1 14.23 0Z"/><path fill="#4a67ce" d="M24.32 39.37h-7.53V30.1a8.1 8.1 0 0 1 16.21 0v.58a8.7 8.7 0 0 1-8.68 8.69m-5.55-1.98h5.55a6.7 6.7 0 0 0 6.7-6.7v-.59a6.13 6.13 0 0 0-12.25 0ZM1 22.77h4.17a9.9 9.9 0 1 1 0 19.8H1Z"/><path fill="#4a67ce" d="M0 21.78h5.17a10.89 10.89 0 0 1 0 21.78H.01Zm5.17 19.8a8.91 8.91 0 1 0 0-17.82H2v17.82Z"/><path fill="#1b1a1a" d="M62.3 36.9h.44V16.41h-3.8v2.29a9.3 9.3 0 0 0-6.78-2.8 10.2 10.2 0 0 0-7.59 3.2 10.5 10.5 0 0 0-3.11 7.6 10.7 10.7 0 0 0 3.07 7.65 10 10 0 0 0 7.48 3.2 10 10 0 0 0 6.93-2.89v2.24zm-5.2-15.17a7 7 0 0 1 2 5.09 6.8 6.8 0 0 1-2.04 5.04 6.6 6.6 0 0 1-4.83 2.04 6.5 6.5 0 0 1-4.86-2.1 7.2 7.2 0 0 1-.04-10 6.4 6.4 0 0 1 4.86-2.13 6.5 6.5 0 0 1 4.9 2.06"/><path fill="#1b1a1a" d="M52.01 38a10.6 10.6 0 0 1-7.79-3.32v-.01a11.2 11.2 0 0 1-3.2-7.95 11 11 0 0 1 3.24-7.93 10.7 10.7 0 0 1 7.9-3.32 9.7 9.7 0 0 1 6.34 2.24v-1.74h4.69v21.38H58.5v-1.7A10 10 0 0 1 52.01 38m-7.15-3.94A9.7 9.7 0 0 0 52 37.1a9.5 9.5 0 0 0 6.63-2.76l.75-.7v2.82h2.91v-19.6h-2.91v2.9l-.76-.74a9 9 0 0 0-6.47-2.66 9.8 9.8 0 0 0-7.27 3.05 10 10 0 0 0-2.98 7.3 10.3 10.3 0 0 0 2.95 7.34Zm7.37.28a7 7 0 0 1-5.18-2.23 7.65 7.65 0 0 1-.04-10.6 7 7 0 0 1 5.18-2.27 7 7 0 0 1 5.22 2.2 7.4 7.4 0 0 1 2.12 5.38 7.3 7.3 0 0 1-2.16 5.36 7 7 0 0 1-5.14 2.16m-.04-14.22a6 6 0 0 0-4.53 1.98 6.76 6.76 0 0 0 .04 9.4 6 6 0 0 0 4.54 1.95 6 6 0 0 0 4.51-1.9 6.4 6.4 0 0 0 1.9-4.73 6.5 6.5 0 0 0-1.86-4.78h-.01a6 6 0 0 0-4.59-1.92m15.03 15.32-.15.35.32.2a13 13 0 0 0 3.33 1.5 15 15 0 0 0 4.14.52 9.4 9.4 0 0 0 5.97-1.78 6 6 0 0 0 2.31-4.94 5.2 5.2 0 0 0-1-3.29 6.6 6.6 0 0 0-2.3-1.96 29 29 0 0 0-3.34-1.4 15 15 0 0 1-3.39-1.52 2 2 0 0 1-.95-1.78 2 2 0 0 1 .88-1.85 4.5 4.5 0 0 1 2.58-.65 8.8 8.8 0 0 1 5.18 1.64l.46.32.2-.52 1-2.49.14-.33-.3-.2a12 12 0 0 0-6.75-1.95 9 9 0 0 0-5.47 1.62 5.5 5.5 0 0 0-2.17 4.68 5 5 0 0 0 .97 3.18 7 7 0 0 0 2.29 1.88 35 35 0 0 0 3.34 1.36 23 23 0 0 1 2.47 1.05H77a4 4 0 0 1 1.39 1v.01a1.8 1.8 0 0 1 .5 1.3 2.6 2.6 0 0 1-1.08 2.24 4.8 4.8 0 0 1-2.95.83 10 10 0 0 1-5.95-1.71l-.45-.32-.21.5Z"/><path fill="#1b1a1a" d="M74.86 38.45a16 16 0 0 1-4.27-.53 13 13 0 0 1-3.44-1.56l-.63-.4 1.74-4.2.9.64a9.7 9.7 0 0 0 5.7 1.64 4.4 4.4 0 0 0 2.67-.74l.01-.01a2.1 2.1 0 0 0 .9-1.88 1.4 1.4 0 0 0-.37-1l-.13-.15a4 4 0 0 0-1.12-.77l-.04-.02a23 23 0 0 0-2.42-1.02 35 35 0 0 1-3.37-1.38l-.57-.27.02-.03a7 7 0 0 1-1.9-1.7l-.27-.33.02-.02a5.7 5.7 0 0 1-.83-3.11 6 6 0 0 1 2.35-5.03 9.3 9.3 0 0 1 5.73-1.71 12.4 12.4 0 0 1 7 2.02l.6.4-1.68 4.2-.92-.64a8.3 8.3 0 0 0-4.92-1.57 4 4 0 0 0-2.33.58 1.6 1.6 0 0 0-.69 1.48 1.6 1.6 0 0 0 .76 1.4 15 15 0 0 0 3.28 1.47 29 29 0 0 1 3.4 1.43 7 7 0 0 1 2.45 2.08 5.7 5.7 0 0 1 1.1 3.56 6.5 6.5 0 0 1-2.47 5.29h-.01a10 10 0 0 1-6.25 1.88m-7.23-2.84a12 12 0 0 0 3.2 1.46 15 15 0 0 0 4.03.5 9 9 0 0 0 5.7-1.69 5.6 5.6 0 0 0 2.14-4.6 4.8 4.8 0 0 0-.92-3.01 6 6 0 0 0-2.14-1.84 28 28 0 0 0-3.29-1.38 16 16 0 0 1-3.48-1.56 2.4 2.4 0 0 1-1.15-2.15 2.5 2.5 0 0 1 1.07-2.22 5 5 0 0 1 2.83-.72 9.3 9.3 0 0 1 5.44 1.72l.99-2.49a11.6 11.6 0 0 0-6.5-1.87 8.4 8.4 0 0 0-5.2 1.53 5.1 5.1 0 0 0-1.99 4.32 4.7 4.7 0 0 0 .88 2.9 7 7 0 0 0 2.14 1.76 35 35 0 0 0 3.29 1.34 24 24 0 0 1 2.52 1.07 5 5 0 0 1 1.53 1.12l.1.1.18.21-.02.02a2.3 2.3 0 0 1 .35 1.28 3 3 0 0 1-1.26 2.6 5.3 5.3 0 0 1-3.21.91 10.6 10.6 0 0 1-6.2-1.8Zm67.16 1.57h.44V25.52a7.4 7.4 0 0 1 1.38-4.43 6 6 0 0 1 3.39-2.32 12 12 0 0 1 3-.5h.45v-2.96h-2.88a6.6 6.6 0 0 0-3.74 1.05 6 6 0 0 0-1.6 1.59v-2.43h-4.15v21.66z"/><path fill="#1b1a1a" d="M135.67 37.63h-5.04V15.08h5.04v1.66a6 6 0 0 1 .9-.74 7 7 0 0 1 4-1.13h3.32v3.85H143a11 11 0 0 0-2.87.48 5.5 5.5 0 0 0-3.16 2.15 7 7 0 0 0-1.3 4.17Zm-4.15-.9h3.26v-11.2a8 8 0 0 1 1.47-4.7 6.4 6.4 0 0 1 3.6-2.48 12 12 0 0 1 3.15-.52v-2.07h-2.43a6 6 0 0 0-3.5.97 6 6 0 0 0-1.48 1.47l-.8 1.14v-3.38h-3.27Zm-44.39 1.05V6h5.07v17.52l6.46-8.76h5.76l-7.09 10.3 9.31 12.72h-6.2L92.2 26.73v11.05Zm30.27-.05a11.4 11.4 0 0 1-5.76-1.38 9.4 9.4 0 0 1-3.7-3.95 13 13 0 0 1-1.3-6.04 13 13 0 0 1 1.3-6 10 10 0 0 1 3.66-4.04 10.3 10.3 0 0 1 5.53-1.46 11 11 0 0 1 3.86.67 9 9 0 0 1 3.23 2.02 9.5 9.5 0 0 1 2.22 3.48 14 14 0 0 1 .8 5.02v1.6H109.1v-3.51h13.15a5.6 5.6 0 0 0-.65-2.67 4.7 4.7 0 0 0-1.77-1.86 5 5 0 0 0-2.63-.68 5 5 0 0 0-2.8.78 5.4 5.4 0 0 0-1.9 2.02 6 6 0 0 0-.67 2.72v3.07a7 7 0 0 0 .7 3.32 5 5 0 0 0 1.98 2.1 6 6 0 0 0 2.97.72 6 6 0 0 0 2.06-.32 5 5 0 0 0 1.6-.96 4 4 0 0 0 1.02-1.57l4.87.54a7.6 7.6 0 0 1-1.76 3.38 8.6 8.6 0 0 1-3.28 2.22 13 13 0 0 1-4.59.78"/></g></g></svg>