<svg xmlns="http://www.w3.org/2000/svg" id="Lager_1" viewBox="0 0 600 300"><defs><style>.cls-1{fill:#e8eff3}.cls-2{fill:#494949}.cls-3{fill:#e07032}.cls-4{fill:#3297a5}.cls-5{fill:#e36f32}</style></defs><path d="M0 0h600v300H0z" class="cls-1"/><g id="_2021"><path d="M192.41 174.37c9.66 0 16.72 4.48 16.72 13.36 0 8-6.71 12.8-13.15 16.64-6.15 3.64-12 6.58-12 11.33l25.53-.07v7.2H175v-3.63c0-11.61 8.6-16 15.81-20.28 5.52-3.22 10.35-5.67 10.35-11 0-4.13-3.57-6.3-9.45-6.3a26 26 0 0 0-15.1 5.32v-7.74a27.4 27.4 0 0 1 15.8-4.83m45.18 0c14.75 0 21.33 10.77 21.33 24.69s-6.58 24.69-21.33 24.69-21.33-10.75-21.33-24.69 6.57-24.69 21.33-24.69m0 7.27c-9.16 0-13.29 6.37-13.29 17.42s4.13 17.41 13.29 17.41 13.29-6.36 13.29-17.41-4.2-17.42-13.29-17.42m45.1-7.27c9.65 0 16.72 4.48 16.72 13.36 0 8-6.72 12.8-13.15 16.64-6.16 3.64-12 6.58-12 11.33l25.53-.07v7.2h-34.51v-3.63c0-11.61 8.6-16 15.8-20.28 5.53-3.22 10.35-5.67 10.35-11 0-4.13-3.56-6.3-9.44-6.3a26 26 0 0 0-15.1 5.32v-7.74a27.4 27.4 0 0 1 15.8-4.83m46.44.91v40.35h8.46v7.2h-25.88v-7.2h9.51v-32.17l-9.51 3.54v-7.34l11.54-4.41Z" class="cls-2"/><path d="M348.87 223.61c-2.52 0-4.76-1.47-4.76-4.62s2.24-4.48 4.76-4.48 4.68 1.47 4.68 4.48a4.34 4.34 0 0 1-4.68 4.62" class="cls-3"/><path d="m360.59 222.83 20.7-49H390l20.63 49h-8.39l-4.34-10.56h-24.51l-4.34 10.56Zm15.53-17.55h19l-8.6-20.91c-.28-.77-.56-1.54-.91-2.73-.35 1.19-.63 2-.91 2.73Zm48.88-31.4v49h-8v-49Zm-108.4-48.36c5.57-2.13 10.15-4.94 13.7-9.8 4.13-5.64 6.14-11.39 12.17-15.56l-8.13 1.28c10.75 9.27 14.42 24.37 24.57 34.28 9.24 9 25.2 14.65 37.94 14.9 3 0 10.26-4.43 3.9-4.55-12.32-.23-27.31-7.36-35.51-16.42-8.64-9.55-12.17-23.14-22.05-31.66-2-1.71-6.36.06-8.13 1.28-9.08 6.29-11.53 19.29-21.95 23.27-6.25 2.39-.42 4.47 3.49 3Z" class="cls-2"/><path d="M251.39 124.12c13-13.94 23.92-27.65 29.87-46l-9.12 2.45c5.7 7.9 8 17.46 15.18 24.31 3.13 3 7 4.16 9.57 7.71 3.32 4.55 5.65 10 8.38 14.9 4.82 8.65 11.53 15.35 18.33 22.47 6.54 6.85 13.62 10 23.12 9.51 3-.16 10.2-5 3.88-4.62-11.32.61-17.55-7.7-24.59-15.24-6.88-7.36-11.52-15.11-16.33-23.94a69 69 0 0 0-4.78-7.72c-2.53-3.45-7.22-5.11-10.35-8.08-6.33-6-8.49-15.74-13.56-22.78-1.53-2.12-8.43.3-9.13 2.45-5.81 17.92-16.46 31.24-29.16 44.84-2.43 2.6 6.9 1.69 8.69-.24Z" class="cls-4"/><path d="M204.92 151c14.51-9.36 20.15-25.66 32.59-37l-8.73 2c15.33 12.29 25.57 29.36 39.52 43 1.65 1.61 10.13-2 8.94-3.12-13.95-13.66-24.17-30.72-39.52-43-1.74-1.4-7.33.75-8.72 2-11.92 10.82-17.45 27.14-31.25 36-3.83 2.47 5.63 1 7.17 0Z" class="cls-5"/></g></svg>