<svg xmlns="http://www.w3.org/2000/svg" id="Lager_1" viewBox="0 0 600 300"><defs><style>.cls-1{fill:#e8eff3}.cls-2{fill:#1d9443}.cls-3{fill:#27984b}.cls-4{fill:#239748}.cls-5{fill:#2a9a4e}.cls-6{fill:#138f3b}.cls-7{fill:#dbede1}</style></defs><path d="M0 0h600v300H0z" class="cls-1"/><path d="M203.78 147.67a44.5 44.5 0 0 1-9.55 28.79c-2.13 2.8-1.66 4.2.63 6.25 3.47 3.12 6.69 6.52 10 9.78 1.44 1.41 2.57 2.71.61 4.64s-2.91.17-4-.86c-3.38-3.22-6.81-6.42-10-9.85-2.14-2.33-3.66-2.71-6.34-.5-11.23 9.27-24.3 12.38-38.72 11-23.35-2.22-43.21-23.37-44.58-46.64A50.74 50.74 0 0 1 151 96.54c31-1.1 53.71 24.11 52.78 51.13m-50.49-46.06c-21.51-.75-46.24 15.62-46.38 45.17-.13 28 22.1 45.47 46 45.68 25 .23 46.2-20.29 46.15-45a45.4 45.4 0 0 0-45.77-45.85" class="cls-2"/><path d="M337.07 193c-.21 0-.47-.07-.62 0-8 4.85-14.2 4.79-19-.21s-5.5-15.28-1.56-21.48c3.5-5.49 11.91-8.93 18.27-4.12 1.55 1.17 2.37 2.32 3.87-.48.87-1.6 3.5-1.16 3.5 1.77 0 9.74.22 19.5-.22 29.23-.29 6.37-4.4 10.32-10.42 11.4-6.49 1.16-12.94-1.23-15.33-5.86-.44-.87-.19-2.09-.26-3.14 1.18.26 2.54.24 3.51.85 2 1.29 3.71 3.71 5.88 4.24 8.71 2.13 12.87-2.2 12.38-12.2m.34-14a25 25 0 0 0-1.78-5.62c-3.14-6-10.89-6.61-15.24-1.47-3.88 4.57-4 13.85.14 18.09a10.5 10.5 0 0 0 5.39 2.81c6.97 1.26 11.6-3.76 11.49-13.81" class="cls-3"/><path d="M360.77 96c12.54 0 20.37 8.62 20.32 22.35-.06 13.08-8.2 22.12-20 22.22-12.16.1-20.75-9.1-20.85-22.27s8.96-23.13 20.53-22.3m16 22.24c0-9.21-4.28-16-11.37-18-10.06-2.85-17.94 2.34-20.36 13.4s3.37 21.46 12.6 23c.46.07.94.07 1.4.11 10.72.79 17.75-6.54 17.76-18.51Z" class="cls-4"/><path d="M231.72 175.15c0-5.82.07-11.64 0-17.46-.05-2.61.77-3.88 3.62-3.69 5.61.37 11.28.16 16.82.91 7.19 1 12.17 5.32 13.37 12.45a48 48 0 0 1 .13 15.78c-1.49 8.36-7.12 13-15.57 13.55-5.6.4-11.25.08-16.88.08-3.05-5.11-.82-10.7-1.43-16a50 50 0 0 1-.06-5.62m12.14-17.67v.25h-2.8c-4.94.09-5 .09-5 4.85-.06 7.19-.12 14.38 0 21.57.19 10.28-2.08 9.11 9.32 9 12.47-.15 17.3-5.26 17.18-17.61a42 42 0 0 0-.91-6.85c-1-5.69-4.59-9-10.13-10.17-2.52-.52-5.13-.71-7.66-1.04" class="cls-2"/><path d="M330.6 112c0-4.67-.15-8.58.1-12.46.06-1 1.36-1.94 2.1-2.9.63 1 1.8 2.07 1.81 3.12.13 12.32.08 24.64.09 37 0 1.9-1.32 4-2.59 2.41-2.37-3-3.78-1.44-6-.34-9.14 4.47-18.33-.34-19.77-10.43a30 30 0 0 1 .15-9.66c1.82-9.44 11.41-13.83 20-9.39 1.18.57 2.25 1.42 4.11 2.65m0 11.88c0-6.83-2.89-11.31-7.86-12.38-6.25-1.34-11 1.85-12.24 8.27-1.78 8.89 1.43 16 7.7 17 .23 0 .47.05.7.07 7.2.76 11.72-4.25 11.66-12.97Zm-35.73 41.04c8.71-.12 12.65 3.56 12.81 11.25.09 4.19-.15 8.39.1 12.57.1 1.65 1.08 3.27 1.72 4.88.31.79.75 1.52 1.13 2.27a11 11 0 0 1-3.07.9 3.2 3.2 0 0 1-2.43-1.07c-1.73-2.74-3.19-1.32-5-.09a12.8 12.8 0 0 1-11.38 1.8c-4.44-1.35-6.36-3.62-6.62-7.9-.27-4.56 1.58-7.73 6-9a63 63 0 0 1 10.37-1.76c2.5-.3 4.69-.62 5-3.74s-1.4-5.3-4.56-6.09c-5-1.26-8.43.2-11.2 4.46-.62 1-1.91 1.51-2.89 2.25-.24-1.42-1.09-3.1-.6-4.22 2.12-4.93 6.54-6.29 10.62-6.51m5.1 16.32c-3.58.93-7.33 1.48-10.67 2.94a6 6 0 0 0-2.83 4.78 6.6 6.6 0 0 0 3.25 4.68c6.25 3 13.62-2 13.83-8.92.08-2.6-.55-4.07-3.55-3.48Z" class="cls-5"/><path d="M231.71 117.86c0-5.59.1-11.18-.05-16.76-.09-3 .46-4.76 4.18-4.61 6.79.26 13.6 0 20.4.16 1.07 0 2.11 1.21 3.17 1.85-1 .63-2.05 1.77-3.11 1.81q-8.09.27-16.18 0c-2.76-.07-4.11.44-4.23 3.72-.42 11.59-.56 11.59 11.06 11.59 2.58 0 5.17-.07 7.74.11.7 0 1.36.89 2 1.37-.67.74-1.3 2.08-2 2.13-3.26.25-6.56.15-9.84.16-1.88 0-3.76.1-5.63 0-2.43-.14-3.3.94-3.25 3.28q.15 6.97-.05 14c0 .93-.68 2.42-1.38 2.65-2.12.69-2.86-.61-2.85-2.62.05-6.27.02-12.56.02-18.84" class="cls-4"/><path d="M409.79 181.4c-.89 3.06-1.41 6.3-2.77 9.14-2 4.23-5.84 6.55-10.47 7.31a14.4 14.4 0 0 1-14.8-7.16c-3.68-6.3-2.89-15.66 1.75-20.87a14.3 14.3 0 0 1 15.93-3.89c6.16 2.19 9.74 7.78 10.36 15.47m-4.74.48c.09-7.12-3.39-12.25-8.89-13.1-6.38-1-11.37 3.16-12.33 10.26-1.1 8.11 3 14.68 9.48 15.2 6.91.56 11.69-4.41 11.74-12.36M425.84 198c-5.75 0-10.56-2.65-12-6.91-.38-1.15.46-2.7.75-4.07 1 .74 2.25 1.29 2.89 2.25 3.12 4.69 8.4 6.64 13.15 4.16 1.61-.84 3.48-3 3.49-4.53s-1.86-3.7-3.46-4.48c-2.68-1.3-5.82-1.64-8.72-2.52-5.77-1.73-8.18-4.26-8.05-8.27s3.45-7.24 9-8.39c6-1.24 11.64 1.08 13.63 5.94.45 1.11-.34 2.72-.56 4.1-1-.72-2.24-1.25-2.91-2.2-2.86-4-6.38-5.57-10.71-4-1.52.55-3.61 2.3-3.64 3.54a6.6 6.6 0 0 0 2.75 4.86c2.09 1.31 4.8 1.7 7.28 2.32 7.21 1.8 10.33 4.81 9.85 9.65s-5.4 8.32-12 8.57Zm44.84-16.43c.57-11.88 10.41-19.48 20.58-15.69 3.5 1.3 6 3.53 7 7.19a8 8 0 0 1-.1 2.44c-1.06-.15-2.28 0-3.13-.52-.69-.4-.86-1.6-1.4-2.35a9.4 9.4 0 0 0-15-.67c-4 4.68-4.37 13.2-.68 18.23 4.21 5.71 12 5.51 15.82-.44.61-1 .76-2.27 1.48-3.12.47-.56 2-1 2.31-.76a3.3 3.3 0 0 1 1.07 2.59 12.5 12.5 0 0 1-10.92 9.45c-5.65.66-11.54-2.11-14.09-7.21-1.4-2.84-1.98-6.08-2.94-9.14" class="cls-5"/><path d="M348.57 181.17c0-4.17.06-8.35 0-12.52 0-2.2 1.87-3.56 2.84-2.32 2.24 2.88 3.5 1.22 5.65.16 8.74-4.29 17.81.86 17.08 10-.45 5.76 0 11.59-.16 17.38 0 1-1.19 2-1.82 3-.73-.94-2.05-1.85-2.1-2.83-.24-4.39-.11-8.8-.11-13.21v-3.48c-.26-6-2.08-8.35-6.79-8.67-5.54-.38-9.65 2.67-10.19 8.21-.45 4.6 0 9.28-.31 13.9-.15 2.09 2 6-2.3 5.84-3.36-.15-1.48-3.71-1.67-5.71-.34-3.23-.12-6.5-.12-9.75m63.5-56.9c0 4.18.12 8.37 0 12.54-.12 3.1-.84 3.28-3.73 1.43a3.4 3.4 0 0 0-2.41-.63c-2.17.76-4.16 2.22-6.37 2.7-6.74 1.43-12.34-2.56-12.77-9.4-.42-6.48-.22-13-.05-19.5 0-.91 1.38-1.78 2.12-2.67.64 1 1.79 2 1.83 3.08.19 5.8 0 11.61.14 17.42.06 3.46 1.07 6.45 5 7.44 4.37 1.11 8.41-.21 10.33-3.89a18 18 0 0 0 1.73-6.62c.28-3.7.1-7.43.12-11.14a16 16 0 0 1 .13-4.16c.24-.84 1.36-1.43 2.09-2.14q.96 1.14 1.86 2.31c.12.15 0 .45 0 .68Zm-137.27-.59c0-4.18-.13-8.36.12-12.52.05-.82 1.59-1.55 2.45-2.33 2.6 3.19 4.89.44 7.24-.4 8-2.88 14.83 1 15.54 9.46a173 173 0 0 1 .09 18.77c0 1-1.36 1.88-2.1 2.81-.62-1-1.73-2-1.77-3-.19-5.09 0-10.2-.13-15.3-.23-6.89-2.33-9.57-7.33-9.85-5.76-.33-9.87 3.32-10.34 9.81-.36 5.08 0 10.21-.2 15.3 0 1-1.18 2-1.81 3-.59-1.06-1.63-2.09-1.68-3.17-.2-4.26-.08-8.41-.08-12.58" class="cls-3"/><path d="M453.58 197.09c-5.82 0-7.42-1.48-7.59-6.76-.19-5.57-.08-11.15 0-16.72 0-2.44.14-4.77-3.47-4.59-.56 0-1.17-1.05-1.76-1.62.45-.41.94-1.21 1.37-1.18 3.75.27 4.15-1.95 3.87-4.82a5 5 0 0 1 .12-2.74 5 5 0 0 1 2.29-1.9c.24-.1 1.3 1 1.55 1.74a7 7 0 0 1 .12 2.76c-.36 3.28.35 5.43 4.4 4.86.55-.07 1.25 1 1.87 1.48-.65.51-1.38 1.54-2 1.46-4.29-.59-4.4 2-4.33 5.07.13 5.1.05 10.21 0 15.32 0 2.23.3 4.12 3.15 4.55 1.09.17 2.05 1.13 3.08 1.73Z" class="cls-4"/><path d="M421.61 124.52v-7c0-3 .71-6.38-4.21-6-.32 0-.84-.88-1-1.43-.1-.26.39-1 .58-1 5.6.27 4.63-3.63 4.74-7 0-.9.94-1.78 1.45-2.67a15 15 0 0 1 2.22 2.86 6 6 0 0 1 .08 2.75c-.21 2.57.67 3.91 3.53 3.8.82 0 1.68 1 2.52 1.5-.66.47-1.35 1.39-2 1.34-3.71-.3-4.21 1.76-4.12 4.74.15 4.64 0 9.29 0 13.94 0 3.36-.2 6.82 4.86 6.52.36 0 1.09.88 1.08 1.34a1.9 1.9 0 0 1-1.17 1.31c-5.46 1.43-8.38-.81-8.59-6.6-.06-2.82.03-5.61.03-8.4" class="cls-6"/><path d="M272.52 180.8c0-4.17-.1-8.35.09-12.51 0-.76 1.22-1.47 1.88-2.2.7.71 2 1.42 2 2.15q.21 13.2 0 26.41c0 .74-1.28 1.47-2 2.21-.67-.72-1.9-1.42-1.93-2.16-.13-4.63-.04-9.27-.04-13.9" class="cls-4"/><path d="M465.66 181.43c0 4.4.09 8.8-.09 13.18 0 .78-1.2 1.51-1.84 2.25-.71-.72-2-1.44-2-2.18q-.22-13.17 0-26.36c0-.76 1.28-1.5 2-2.25.66.73 1.87 1.43 1.9 2.19.12 4.38.02 8.74.03 13.17" class="cls-5"/><path d="M263.83 123.44c0-4.15-.1-8.31.08-12.45 0-.72 1.27-1.39 1.94-2.09.47.68 1.33 1.35 1.34 2q.15 13.15 0 26.29c0 .71-1.27 1.4-2 2.09-.46-.68-1.3-1.35-1.32-2-.1-4.61-.04-9.22-.04-13.84" class="cls-6"/><path d="m268.64 100.33-3.18 2.67c-.68-1.18-1.84-2.33-1.9-3.54 0-.91 1.33-1.89 2.06-2.84Zm197.96 56.74-2.7 3.3c-.78-1.08-2-2.1-2.18-3.27-.12-.92 1.09-2 1.71-3Zm-191.81-4.98c1 2.95 1.83 4.26 1.73 5.5-.08 1-1.22 2.6-2 2.68-2.5.26-2.11-1.93-1.95-3.36.1-1.09.91-2.1 2.22-4.82" class="cls-5"/><path d="M175.36 154.32c-.74 9.69-4.19 17.36-13.05 21.86-7.64 3.89-15 3.09-21.76-1.83-7.81-5.72-10.8-13.65-9.39-23.17 1.59-10.78 7.84-19.18 14.38-27.39 2.15-2.69 4.7-5.08 7.07-7.61 2.58 2.55 5.36 4.92 7.68 7.68 6.32 7.52 11.88 15.51 14.09 25.3.4 1.84.69 3.62.98 5.16m-7 0-2.32-2.66c-.61 1.08-1.69 2.14-1.76 3.25-.25 4.42-2.21 7.86-5.26 10.92-.67.66-.84 1.82-1.24 2.74 1.26 0 2.92.45 3.69-.17 4.12-3.32 6.53-7.7 6.9-14.06Z" class="cls-6"/><path d="M168.37 154.34c-.42 6.36-2.78 10.74-6.89 14.08-.77.62-2.43.14-3.69.17.4-.92.57-2.08 1.24-2.74 3.05-3.06 5-6.5 5.26-10.92.07-1.11 1.15-2.17 1.76-3.25Z" class="cls-7"/></svg>