<svg id="Lager_1" data-name="Lager 1" xmlns="http://www.w3.org/2000/svg" viewBox="0 0 600 300"><defs><style>.cls-1{fill:#e8eff3;}.cls-2{fill:#6732ba;}</style></defs><rect class="cls-1" width="600" height="300"/><g id="Artvise"><path class="cls-2" d="M448.88,147.52c-.48,8.72,4,17.91,14.4,19.19a20.92,20.92,0,0,0,16.17-4.19q.24-.18.48-.33l4.07,6.94a45.49,45.49,0,0,1-4.19,2.51,33.7,33.7,0,0,1-22.14,2.51,22.82,22.82,0,0,1-16.07-13.36,31.82,31.82,0,0,1,1-29.12,23.25,23.25,0,0,1,17.59-12.79c8.54-1.2,16.5.26,22.83,6.74a20.64,20.64,0,0,1,5.58,12,26.92,26.92,0,0,1-.2,8.82c-.15.83-.48,1.13-1.41,1.13H448.88Zm15.38-6.81h14.16c.81,0,1.18-.25,1-1.05a27.6,27.6,0,0,0-1.25-5.3,13.44,13.44,0,0,0-11.63-7.94,15.58,15.58,0,0,0-17.44,13c-.15,1.16.23,1.26,1.16,1.26Z"/><path class="cls-2" d="M426.75,122.1,424,130.84c-.91-.6-1.69-1.18-2.52-1.66a15.68,15.68,0,0,0-12.15-2.51,5.92,5.92,0,0,0-5,7.54,7.58,7.58,0,0,0,3.52,4.6c1.78,1.05,3.69,1.93,5.58,2.81a59.8,59.8,0,0,1,9.87,5.32,15.36,15.36,0,0,1-6.06,27.21,32.4,32.4,0,0,1-23-3.19l-.33-.28,3.29-9.09,1.59,1a27.27,27.27,0,0,0,9.79,4.09,12.79,12.79,0,0,0,6.68-.7,7.31,7.31,0,0,0,3.34-9.79,7.38,7.38,0,0,0-1.55-2.09,32.2,32.2,0,0,0-5.6-3.82c-2.69-1.51-5.58-2.66-8.29-4.17a15.93,15.93,0,0,1-8.27-9.29,13.09,13.09,0,0,1,7.88-16.75c.29-.11.59-.2.89-.29a25.93,25.93,0,0,1,16.65,0C422.5,120.54,424.51,121.4,426.75,122.1Z"/><path class="cls-2" d="M380.75,104.67a5.8,5.8,0,0,1-5.7,5.9h-.28A5.9,5.9,0,0,1,374,98.79a5,5,0,0,1,.77,0A6,6,0,0,1,380.75,104.67Z"/><path class="cls-2" d="M379.12,146.52v25.82c0,1.46,0,1.48-1.51,1.48h-6.48c-1.51,0-1.51,0-1.51-1.55V128.93c0-1.4,0-1.4-1.4-1.4h-5c-.67,0-1-.18-1-.91v-6.15c0-.63.23-.88.88-.88h15.08c1.05,0,.9.68.9,1.3Z"/><path class="cls-2" d="M305,119.34h9.85c.3,0,.7.62.85,1q4.06,10.65,8.09,21.37,2.76,7.24,5.45,14.45c.15.38.33.73.58,1.31.25-.58.45-1,.6-1.39q6.93-17.85,13.79-35.72a1.43,1.43,0,0,1,1.64-1.1h8.69l-.73,1.83q-11.31,26.25-22.61,52.55a1.56,1.56,0,0,1-1.73,1.16,1.61,1.61,0,0,1-1.74-1.18Q316.58,147,305.34,120.34C305.21,120,305.14,119.74,305,119.34Z"/><path class="cls-2" d="M280,104.44v13.77c0,1,.33,1.25,1.28,1.25h12.56c.93,0,1.19.28,1.16,1.18v5c0,.9-.25,1.18-1.16,1.18H280v27.76a25,25,0,0,0,.63,5.45,8,8,0,0,0,8.42,6.71,22.86,22.86,0,0,0,4.29-.43,42.1,42.1,0,0,0,4.15-1.23l.9,5,.23,1.48c.3,1.74.53,1.46-1.36,1.86a43,43,0,0,1-12.89,1.06,14.32,14.32,0,0,1-12.56-9.37,16.48,16.48,0,0,1-1.33-6.18c-.15-10,0-20.33,0-30.47,0-1.94.28-1.84-1.91-1.86H265.1c-.63,0-.93-.25-.91-.88V120c0-.65.33-.78.91-.78h4.32c.88,0,1.2-.3,1.18-1.18v-9.29a1.31,1.31,0,0,1,1-1.44c2.51-.88,4.85-1.83,7.26-2.76A2.17,2.17,0,0,0,280,104.44Z"/><path class="cls-2" d="M257.31,119.34l-3.82,8.89a40.84,40.84,0,0,0-5.2-1.66,9.62,9.62,0,0,0-8.52,2.71,16.47,16.47,0,0,0-5.65,12.56v30.7c0,1.06-.3,1.38-1.33,1.36h-7.16c-.88,0-1.1-.28-1.1-1.11V121c0-1.55,0-1.55,1.6-1.55h8v8.26l.27.13L235,127a16.79,16.79,0,0,1,11.33-8.12A30.16,30.16,0,0,1,257.31,119.34Z"/><path class="cls-2" d="M489,193.27v7.94H162.43a57.21,57.21,0,0,1-20.58-3.27C126.2,192,116,181,112.34,164.58a54.06,54.06,0,0,1,25.29-58.51,48.73,48.73,0,0,1,20.43-6.48,50.81,50.81,0,0,1,29.94,6,45.22,45.22,0,0,1,22.61,30.14,48.18,48.18,0,0,1-.2,24.12,28.44,28.44,0,0,1-3.75,8.24,16.48,16.48,0,0,1-19.49,6.1,18.51,18.51,0,0,1-8.62-8c-1.3-2.16-2.51-4.37-3.71-6.6a2.15,2.15,0,0,0-2.34-1.34c-5.3.23-10.6.28-15.9.41-2,0-3.9.15-5.85.15-.73,0-1,.4-1.26,1L143.66,172l-.53,1.08-8.69-4.88a4.26,4.26,0,0,1,.28-.7l25-45.45.6-1c1-1.65,2.51-1.65,3.42,0,6.81,12,13.59,24.12,20.45,36.1a44,44,0,0,0,5.25,7.54c3.49,3.87,8.24,3,10.52-1.71a24,24,0,0,0,2-8.26,46.63,46.63,0,0,0-.63-14.72c-3.37-15.08-11.93-25.8-26.71-30.8A39.21,39.21,0,0,0,129,125.92a48.46,48.46,0,0,0-7.34,23.64A42.77,42.77,0,0,0,128,175.23a37.2,37.2,0,0,0,26.2,17.38,47.72,47.72,0,0,0,8.27.66ZM161.75,134,153.11,151h17.58Z"/></g></svg>