<svg id="Lager_1" data-name="Lager 1" xmlns="http://www.w3.org/2000/svg" viewBox="0 0 600 300"><defs><style>.cls-1{fill:#e7eef2;}.cls-2{fill:#575756;}.cls-3{fill:#212121;}.cls-4{fill:#fff;}</style></defs><rect class="cls-1" width="600" height="300"/><g id="Arkivit"><polygon class="cls-2" points="488 138.68 408.95 96.03 405.47 96.03 405.47 199.97 408.95 203.97 488 203.97 488 138.68"/><rect class="cls-3" x="112" y="96.02" width="296.95" height="107.95"/><path class="cls-4" d="M152.74,128.32l-15.67,45.19h17.41l1.31-5.66h12.36l1.39,5.66h17.33l-15.93-45.19Zm5.92,28.91,3.14-13.76h.26l3.13,13.76Z"/><path class="cls-4" d="M205.15,146v-4.27H189.74v31.78h15.41V160c0-3.22,3.22-5.13,6-5.13a8.25,8.25,0,0,1,4.79,1.65V141.12c-3.4,0-5.92.44-7.75,1.57A11.48,11.48,0,0,0,205.15,146Z"/><polygon class="cls-4" points="259.56 141.73 241.37 141.73 235.45 153.4 235.1 153.4 235.1 124.84 219.6 124.84 219.6 173.5 235.1 173.5 235.1 161.75 235.45 161.75 241.89 173.5 260.08 173.5 247.81 157.31 259.56 141.73"/><rect class="cls-4" x="263.65" y="141.73" width="15.5" height="31.78"/><path class="cls-4" d="M271.49,124.41c-4.7,0-8.45,3-8.45,7.4s3.14,7.39,8.45,7.39c5.05,0,8.44-2.69,8.44-7.39C280,127.28,276.19,124.41,271.49,124.41Z"/><polygon class="cls-4" points="302.57 156.79 302.13 156.79 298.13 141.73 281.41 141.73 295.43 173.5 309.45 173.5 323.2 141.73 306.49 141.73 302.57 156.79"/><rect class="cls-4" x="325.73" y="128.32" width="16.54" height="45.1"/><polygon class="cls-4" points="345.4 128.32 345.4 142.95 354.37 142.95 354.37 173.5 370.91 173.5 370.91 142.95 379.88 142.95 379.88 128.32 345.4 128.32"/></g></svg>