<svg xmlns="http://www.w3.org/2000/svg" id="Lager_1" viewBox="0 0 600 300"><defs><style>.cls-1{fill:#e8eff3}.cls-2{fill:#3d8bb3}.cls-3{fill:#eef4f8}.cls-4{fill:#438fb6}.cls-5{fill:#1475a6}.cls-6{fill:#e5edf4}.cls-7{fill:#e0f3fc}.cls-8{fill:#b4cedf}.cls-9{fill:#b2e2fb}.cls-10{fill:#61c7f2}.cls-11{fill:#1f659f}.cls-12{fill:#a5dcf8}.cls-13{fill:#0c5897}.cls-14{fill:#e7f6fc}.cls-15{fill:#6fa9c6}.cls-16{fill:#568ab6}.cls-17{fill:#94b4d0}.cls-18{fill:#7fb1cb}.cls-19{fill:#bfe6fb}</style></defs><path d="M0 0h600v300H0z" class="cls-1"/><g id="_9GoYMf.tif"><path d="M341.8 218.82c-2.84-3.61-.5-8.28-2.52-12.16 1.51-.82 2.66-.76 2.87 1.22s.22 4.09.35 6.14c.1 1.61.44 3 2.51 3.08s3.5-.89 3.65-3c.19-2.61.65-5.36-1.67-7.35 1.15-1.24 2.2-.91 3.33-.59a4 4 0 0 1 .44 1.08c.07 1.23 0 2.46.06 3.69 0 2.76-.45 5.63 1.74 7.91Z" class="cls-2"/><path d="M386.1 207.24h-.06c1.55 1.46 3.64.11 5.3 1 1.61 3.4.47 7 1 10.54h-5c-1.88-2.69-1.4-5.77-1.46-8.76-.04-.9.61-1.8.22-2.78" class="cls-3"/><path d="M413.81 218.82a9.4 9.4 0 0 1-2-6.82c.06-1.71.52-3.63-1.78-4.67l2.9-4.25c1.77 1.17 2.21 3.92 4.87 2.95-.26 2.59-2.15 1.5-3 2.41-.58.79-.57 4.21.07 7.93.87 1.26 2.36.27 3.5 1l-.41 1.46Z" class="cls-4"/><path d="M377.4 209.31a2.4 2.4 0 0 0 1.67-1.18c4.71-.33 4.69-.19 5 4.42.14 2.39-.75 4.28-1.66 6.27h-3.31c-1.9-2.37-1.47-5.18-1.52-7.9q-.1-.8-.18-1.61" class="cls-3"/><path d="M363.6 207a5.3 5.3 0 0 1 2 5.54c-2.91 1-6-.12-8.91.72 1 4.29 1.17 4.34 8.71 2.44.44 1.8-1.84 1.77-2.08 3.08h-5.79c-4.22-4.47-4.55-6.41-1.83-10.85a1.6 1.6 0 0 1 1.19 1.16 2 2 0 0 0 .15 2 22 22 0 0 0 6.11-.09 2.5 2.5 0 0 0-.76-2.82 1.7 1.7 0 0 1 1.21-1.18" class="cls-2"/><path d="m309.52 218.82-3.11-8.25 1.86-.12c1.37 1.06 1 3 2.4 4.35 2.26-2.3 1.88-5.86 4.1-8.05l1.05 1c-.81 2.55-1.66 5.1-2.43 7.67-.33 1.1-1.32 2.13-.56 3.41Z" class="cls-4"/><path d="M422.09 218.82a14 14 0 0 1-1.57-7.69c.09-1.15.41-2.45-.69-3.4l-.4-1.38c1.49-.28.7-2.39 2.4-2.73.78 1.38 1.56 3 4.44 2.86-6 2.59-2.78 6.74-3.53 9.68 1.23 1.61 2.66.57 3.81 1.18l-.33 1.48Z" class="cls-5"/><path d="M332.68 217.16c.37-.16 1-.23 1.09-.49.84-2.4.1-13.11-1.07-15.86 2.29-1 3.34-.25 3.33 2.19v7c0 3-.5 6.17 1.62 8.82h-5q.04-.82.03-1.66" class="cls-2"/><path d="M399.74 206.47c6-1.32 8.08.16 8.16 5.94 0 2.31-.37 4.7 1.77 6.41h-2.48l-.94-1.43-.6-1.61c.67-2.78.67-2.78-2.55-3l-.06-1.33c1-.33 2.73.38 2.75-1.52s-1.33-2.13-2.8-2.12c-1.07 0-2.14.08-3.22.12Z" class="cls-5"/><path d="M382.36 218.82c.91-2 1.8-3.88 1.66-6.27-.28-4.61-.26-4.75-5-4.42v-1.7c2.6-1.89 4.73.42 7.07.81.39 1-.26 1.88-.24 2.82.06 3-.42 6.07 1.46 8.76Z" class="cls-2"/><path d="M320.09 212.86c2.05-2.06 4.89-1.18 7.14-1.69a2.8 2.8 0 0 0 .07-2.63l.93-.94c2.06 1.91.76 4.38 1.12 6.58.2 1.2-.63 2.9 1.57 3.08l.12 1.56h-3.31c.37-1.22.18-1.85-1.25-1.15l-.73-.88c1.11-.95 2.62-1.72 1.65-3.67a9.7 9.7 0 0 0-6.45.58Z" class="cls-5"/><path d="M441.12 218.82c2.24-3.66 2.15-3.66 2.21-7.7a4.9 4.9 0 0 0-1.83-4.31c1.91-.93 3.1-1 3.67 1a1.6 1.6 0 0 0 1.22 1.26c-2.13 3.37-1.59 6.61.53 9.76Zm20.11-4.97c1.24 2-.42 3.38-1.07 5h-8.28c.23-1.68-.94-3.6.85-5 .65 1 .85 2.28 2.1 2.85a4.4 4.4 0 0 0 3.89.16c1.24-.64.77-1.82.4-2.85Zm-30.04 4.97c-.54-1.3-2.6-1.5-2.43-3.31l.94-1c2.62 3.88 6 2.51 9.24 1 .74 2.29-1.71 2.09-2 3.39Z" class="cls-2"/><path d="M392.29 218.82c-.48-3.5.66-7.14-1-10.54a1.7 1.7 0 0 1 1.1-1.1c1.34 1.17 1.5 2.71 1.5 4.35 0 2.55-.45 5.22 1.66 7.29Z" class="cls-5"/><path d="M377.4 209.31c0 .54.12 1.07.13 1.61.05 2.72-.38 5.53 1.52 7.9h-5.8a7.9 7.9 0 0 0 2.35-6.95c-.09-1.12-.53-2.93 1.8-2.56m20.68 9.51c-.52-1.92-2.26-3.83-.08-5.79a1.5 1.5 0 0 1 1 1.08c.43 3.06.43 3.06 4.45 2.9a1.6 1.6 0 0 1 1.17.81l-.77 1Z" class="cls-2"/><path d="M320.28 218.82c.18-.54-.3-.83-.5-1.23l1.09-1c1.59.94 3.24.65 4.88.2l.73.88-1.24 1.15h-5Z" class="cls-5"/><path d="M464.3 218.82c.17-.83-.24-2.08 1.05-2.22 1.67-.17 1.21 1.31 1.43 2.22Z" class="cls-4"/><path d="m403.88 218.82.77-1 1.6-.43.94 1.43Zm-78.64 0 1.24-1.15c1.43-.7 1.62-.07 1.25 1.15Z" class="cls-6"/><path d="M519.75 135.58H519c0-1.12-.07-2.24-.1-3.35h.88Z" class="cls-7"/><path d="m331 218.82-.12-1.56 1.76-.1v1.66Z" class="cls-8"/><path d="M519.75 132.28h-.88a4 4 0 0 1-.1-.57l1-.22Z" class="cls-9"/><path d="M211.28 185.71v-43.56c1-1.1 2.16-.74 3.21-.74 5.78 0 11.58-.27 17.34.05 9.63.53 17.06 5.24 19.86 14.44 2.73 8.95 1.36 17.34-5.68 24.16a19.6 19.6 0 0 1-12.53 5.54c-7.25.4-14.48.11-22.2.11m11-9.72c2.76 0 5.49.13 8.19 0 5.74-.33 9.62-3.22 10.81-8.41 1.13-4.93.53-11.39-4.71-14.59-4-2.46-8.32-2.5-12.73-2.35-1.93.07-2 1.51-2 2.95v16.45c.1 1.85-.23 3.78.48 5.96Zm245.28-12.33c.26 12.23-9.26 22.79-23.51 22.74-13.51-.05-23.5-9.32-23.53-22.74s10-22.84 23.78-23 23.7 10.71 23.26 23m-11.42.16c.72-7-4.4-13-12-13.21-6.48-.2-12.81 6.34-12.81 13 0 7.16 5.28 12.16 12.56 12.52 6.97.34 12.92-5.29 12.25-12.31m-295.63-.45c-.51-12.27 10.35-22.9 23.65-22.66 13.61.24 23.64 9.56 23.43 23.27-.2 13.44-10.17 22.31-23.42 22.42-13.96.11-24.25-10.4-23.66-23.03m23.49 12.7c8.59.21 12.83-6.24 12.68-12.2-.22-8.16-4.91-13-12.44-13.13s-12.37 5.13-12.71 13.26c-.33 6.81 5.32 12 12.47 12.07M149.64 172l9.05 13.71h-11c-1.44 0-2.11-1.13-2.82-2.15-1.87-2.7-3.92-5.29-5.55-8.13-1.17-2-2.78-2.08-4.56-1.73-2.13.42-1.57 2.27-1.6 3.69-.06 2.59 0 5.18 0 7.91-3.62.84-7 .29-10.55.4v-44.35c8.1.62 16.2-1.39 24.08 1.38a15.93 15.93 0 0 1 7.24 25c-1.19 1.5-3.25 2.06-4.29 4.27m-16.32-7.85a23 23 0 0 0 6.78.17 7.2 7.2 0 0 0 6.22-6.16c.22-2.62-2.08-5.86-4.89-6.86a13 13 0 0 0-8.11-.36Zm162.98 21.62c-3.26 0-6-.15-8.73 0-2.38.18-3.47-.89-4.26-2.94-1.77-4.65-1.83-4.63-6.66-4.63-2.89 0-5.8.18-8.67-.05-2.52-.2-3.87.8-4.6 3.07-1.7 5.37-1.77 4.46-6.74 4.48a23 23 0 0 1-6.53-.33c1.62-3.68 3.14-7.28 4.79-10.82 4.67-10 9.35-20.06 13.52-30.31.8-2 1.85-3.08 4.26-3s4.09.25 5.21 2.84c4.92 11.44 10.05 22.79 15.11 34.17 1 2.4 2.07 4.75 3.3 7.52m-18.49-17.39c-1.5-3.62-2.54-7.22-4.82-11-1.57 3.93-3.32 7.1-4.11 11Zm75.05-26.85h6.73l19.49 43.91c-3.61.6-6.86.25-10.09.3-1.3 0-1.89-.83-2.3-2-.64-1.78-1-3.69-2.47-5.51h-14.61a2.6 2.6 0 0 0-2.9 2.3c-1 4.37-3.67 6-8 5.27a40 40 0 0 0-5.53 0c6.26-15.35 13.05-29.8 19.68-44.27m3.49 15.62a54 54 0 0 0-4.65 11.2 31 31 0 0 0 9.19-.1ZM94 185.55H83.7v-44.08c7.5.22 14.91-1.05 22.19.79 6.81 1.71 10.75 6.35 12 13.16 1.06 5.92-1.1 10.78-5.67 14.52-3 2.41-6.62 3.26-10.35 3.59-2.3.21-4.64 0-7.16 0-.99 4.05-.08 7.91-.71 12.02m.58-34.72v13.42c3.08.22 5.78.44 8.41-.76 2.47-1.13 4.2-2.94 4.19-5.58a6.5 6.5 0 0 0-4.18-6.06 13.6 13.6 0 0 0-8.43-1.02ZM394.07 174c-.73 3.84.3 7.59-.7 11.39-3.31.79-6.54.36-9.71.3-.73-3.29-1-38-.27-44.26 5 0 10 .09 15.08 0a23 23 0 0 1 8.85 1.57c6.53 2.47 9.85 7.5 10.28 14.08A14.2 14.2 0 0 1 410 171a22 22 0 0 1-9.43 2.57c-2.06.14-4.13-.22-6.5.43m-.78-9.76c3.32.24 6.16.64 8.91-.59 2.54-1.14 4.3-2.65 4.25-5.82s-1.77-5-4.34-6.34c-2-1-4.25-.91-6.45-.88-1.77 0-2.4.94-2.38 2.59.03 3.49.01 7.03.01 11Zm-61.46-18.79a48 48 0 0 1-4.59 8.26 23 23 0 0 0-6.65-2.31c-5-.88-9.71-.1-13.18 4-3.34 3.9-3.51 8.43-2 13.15 1.88 5.86 9 8.1 14.22 7.3a29 29 0 0 0 7.54-2.28c2.2 2.46 3.16 5.45 4.65 8.08-8.15 7.37-25.08 6-32.52-2.42s-7.77-23.14.29-31.6c7.41-7.83 23.87-9.44 32.24-2.18" class="cls-10"/><path d="m514.11 120.77.7.66c-2.44.59-3.8 2.07-3.33 4.62.5 2.72 2.59 3.08 4.93 2.83v1.06c-2.45.14-4.35 1.33-4.59 3.74s1.63 3.5 3.84 3.89v1.12c-3.73.56-4.55 1.48-4.22 4.32s2.47 2.37 4.22 2.74l-.25 1.66c-5.4-1.43-7 .4-5.56 6.49-4.57 2.49-5.46 3.41-2.49 8v.06c-5.78-.17-6.77.82-5.75 5.77-5.25.17-5.25.17-6.35 5.71-1.51.51-2.79-1.13-4.31-.53l-.16-1.19 1.26-4.61c4.66.88 6.23-.84 5-5.25q-.21-.79-.39-1.57c.66.18 1.32.33 2 .55a3.3 3.3 0 0 0 3.75-.9 3.8 3.8 0 0 0 .6-4.22 10 10 0 0 0-1.34-2 11 11 0 0 1 1.65 0c2.24.3 3.27-1.07 3.9-2.87.7-2.06-1-3-2.2-4-1.36-1.15-2.71-.27-3.7.61-1.54 1.38-1.57 3.08-.4 4.8a14 14 0 0 1 .77 1.45c-4.27.07-5.67 1.12-5.6 4.31a10 10 0 0 0 .63 2.28c-2 .25-4.58-.92-5.07 2.39-1 .25-2.16.45-.74 1.73-.08.63.07 1.47-.93 1.45-5.06-.09-5.39.2-5.67 5.12-1.62-1.85-4-1.46-6.05-2.08a7.3 7.3 0 0 0 1.14-5.4l-.08.07c.66-.08.87.51 1.26.84a3.36 3.36 0 0 0 4.78.08c1.54-1.31 1.93-2.9.53-4.62a5 5 0 0 1 1.21 0c1.77.39 3.5.68 4.84-1s1-3.52-.15-5.23v-1c1.92.85 3.81 1 5.21-.84 1.69-2.25.14-4.09-1.41-6.09 2.41-.19 4.52-.32 5.16-2.84.6-2.36-1.23-3.59-2.81-5.24 2.56-.55 3.88-1.77 3.86-4 0-2.59-2.19-3.23-4.13-4 3.24-2.68 3.78-4.75 2-6.82-1.29-1.49-3-1-4.62-1.19 1.37-1.57 3.3-2.91 2.18-5.44-1.24-2.8-3.65-2.14-5.9-1.93h-.4c2-2 1.86-4.14.68-6.43a8.7 8.7 0 0 1 4.78.11c-.62 4.53.6 5.95 5.35 6.27-2.67 4-2.25 5.34 2.41 7.44a4 4 0 0 1-.18 1.14c-.24.48-.71.85-.93 1.33-.9 1.9-.42 3.64 1.33 4.52s3.47.28 4.7-1.21a2.7 2.7 0 0 0-.43-4.26c-.91-.75-1.8-1.52-2.64-2.23.21-1.68 1.87-2.74 1-4.69-1.21-2.57-3.27-2-5.24-2q.13-.37.3-.74c2.38-4.7 1.65-6.06-3.68-6.84-.22 0-.4-.33-.63-.52-.23-1.69.21-3.53-1-5.07a1.5 1.5 0 0 1 1.08-1c1.66.29 3.08-1.07 4.75-.71-2.48 4.88-1.38 6.62 4.14 6.53a8 8 0 0 1 .82.07c-2.87 4.43-1.94 6.53 3.25 7.41l.06.08c-2.94 5.15-2.11 6.94 3.26 7.31m-7.53 9.83c-2.14 0-3.31 1.13-3.36 3.2a3.4 3.4 0 0 0 3.75 3.43 3.56 3.56 0 0 0 3.49-3.3c.01-1.87-1.7-3.34-3.88-3.33m3.06 11.6a3.64 3.64 0 0 0-3.39-3.36 3.35 3.35 0 1 0-.08 6.63 3.6 3.6 0 0 0 3.47-3.27" class="cls-6"/><path d="M474.91 140.41c.48-2 2.58-1.72 4.13-2.8a3.8 3.8 0 0 1-2.38-3.7c.06-1.68.62-2.92 3.26-4-5 .06-5.45-2.87-6-6-2.81.34-4.86-.72-5.88-3.26-4.61 1.27-6.84.79-7.69-1.58a4 4 0 0 1 1.85-4.58c2.12-1.11 4.07-.27 6.54 3 1.7-.36 3.17-2.43 5.47-.86 2.1 1.43 1.33 3.38 1.77 5.49 2-.66 4.07-.72 5.19 1.46s.55 4-1 5.71c1.52 1.35 3.82 2 3.91 4.44.1 2.61-2.07 3.23-4.2 4.19 1.31 1.83 2.74 3.67 1.27 5.92-1.05 1.59-2.6 1.88-4.36 1.48a5.8 5.8 0 0 1-1.88-4.91" class="cls-10"/><path d="M494.87 121.61c1.6.15 3.33-.3 4.62 1.19 1.78 2.07 1.24 4.14-2 6.82 1.94.82 4.09 1.46 4.13 4 0 2.27-1.3 3.49-3.86 4 1.58 1.65 3.41 2.88 2.81 5.24-.64 2.52-2.75 2.65-5.16 2.84 1.55 2 3.1 3.84 1.41 6.09-1.4 1.86-3.29 1.69-5.21.84a2.6 2.6 0 0 0-1.39-1.64c-.94-3.4 1.37-4.66 3.93-5.6-1.74-4.65-1.61-5 3.43-8.1-3 .35-2.66-3.13-4.91-3.47v.18c2.25-.55 1.84-3.52 4.74-4-3.24-1.66-5.55-3.15-4.06-6.55.73-.45 1.51-.85 1.61-1.84Z" class="cls-11"/><path d="M502.4 99.29c-1.67-.36-3.09 1-4.75.71-2.18-1.52-2-3.93-2.09-6.64-2.32 1.21-4.4 1.49-6.37.08-1-1.25-.67-2.85-1-4.56-1.82 1.8-3.68 2.59-5.75.87-1.24-1-2-2.33-1.29-4s2.16-2.18 4-2.19c2.9 0 3.09 2.13 3.49 4.18 1.93.13 3.64-1.24 5.6 0s1.09 3.29 2.24 4.57c5.67.54 6.1.9 6.28 5.22a1.6 1.6 0 0 0-.42 1.74Z" class="cls-10"/><path d="M471.05 100.55c1-1.85 2.37-3 4.61-2.4 1.6.44 2.34 1.84 2.82 5.08 1.75-.21 2.89-2.63 5-1.47.57.78 1.21 1.39 2.3.94h-.06l.09 4.91.07-.08c-.66 0-.85.36-.91.9l.07-.07a1.05 1.05 0 0 0-1.08.74c-4.38.1-4.89-.31-5.89-4.75-4 2.2-4.41 2.13-7-1.2Z" class="cls-11"/><path d="M490.9 172.92c1.52-.6 2.8 1 4.31.53 1.1-5.54 1.1-5.54 6.35-5.71 0 .58.31.84.86.86a1.7 1.7 0 0 0 .69 1.89c-.78 4.13-1.27 4.53-5.63 4.64-.27-.43-.63-.83-1.17-.61-.78.32-.5 1-.34 1.54-.74 4.85-2.39 5.77-6.63 3.7-1.79-2.86-.68-4.98 1.56-6.84m16.45-11.01c-3-4.6-2.08-5.52 2.49-8-1.41-6.09.16-7.92 5.56-6.49 1.81 4.47 1.36 5.59-3.14 7.58.42 1.82 1.66 3.71 0 5.64-1.37 1.63-3.18 1.17-4.91 1.27" class="cls-10"/><path d="M478.09 169c2 .62 4.43.23 6.05 2.08-.22 4.27-.56 4.63-5 5.1l-2.59-1-1.83 4.25c-4.64-.43-5.93-1.62-5.54-5 .18-1.58.87-2.5 2.54-2.53q.83 1.4 1.64 0l2.29.17c.31.54-.19 1.46 1.05 1.89v-2.06l.85-1.61a1 1 0 0 0 .68-1.06Z" class="cls-12"/><path d="M469.24 143.76c-3.82 1.13-6 .32-6.4-2.41-.18-1.39-.07-2.79 1.32-3.58a4.3 4.3 0 0 1 4.65 0 3.24 3.24 0 0 1 1.47 3.88 16 16 0 0 1-1.07 2.16Z" class="cls-11"/><path d="M466.78 188.38a3.67 3.67 0 0 1-3.81-3.45 4.5 4.5 0 0 1 4.46-3.92 3.47 3.47 0 0 1 3.37 3.81c-.07 2.32-1.56 3.64-4.02 3.56" class="cls-10"/><path d="M486.44 153.84c-1.37-.05-2.75 0-4.09-.16a3.72 3.72 0 0 1-.52-7.24 3.3 3.3 0 0 1 4.31 2.09c.64 1.51.3 3.27 1.33 4.65-.16.5-.57.62-1.03.66" class="cls-12"/><path d="M469.22 102.5a3.45 3.45 0 0 1-3.9 1.54 3.6 3.6 0 0 1-2.86-3.09 3.4 3.4 0 0 1 1.54-3.54 3.6 3.6 0 0 1 4.22-.22 3 3 0 0 1 1.74 3c-.96.56-.65 1.5-.74 2.31m17.22 51.34c.46 0 .87-.16 1-.66a3.6 3.6 0 0 1 2.49-.25c.32.74 1 .81 1.66.77 1.13 1.71 1.58 3.43.15 5.23s-3.07 1.4-4.84 1a5 5 0 0 0-1.21 0c-.47-.47-1.34-.44-1.54-1.24 1.76-1.17.62-3.69 2.29-4.85m4.31-39.65h.4c2.25-.21 4.66-.87 5.9 1.93 1.12 2.53-.81 3.87-2.18 5.44l.09-.07-1.67-.07c-3.91-.78-3.2-3.87-3.3-6.54h-.08q1.17.3.9-.86Z" class="cls-11"/><path d="M469.21 143.79c1.62.59 3.4-.36 5 .52.07.86.63 1.16 1.41 1.18a8 8 0 0 1-.6 5.73 25 25 0 0 1-2.87.08c-2.82-.23-4.07-2-3.33-4.78.24-.91.83-1.74.4-2.74Z" class="cls-10"/><path d="M479.23 163.56a7.3 7.3 0 0 1-1.14 5.4l.18.23a.7.7 0 0 0-.59-.18 4.7 4.7 0 0 1-2.79.26 3.63 3.63 0 0 1-2.47-4.75 3.42 3.42 0 0 1 4.81-2.21 15 15 0 0 1 2 1.25" class="cls-13"/><path d="M474.76 179.39a4.2 4.2 0 0 1 3.27 1.47c1.26 1.29 2.71 2.51 1.13 4.53-1.18 1.52-2.5 2.61-4.54 1.76-1.67-.69-2.48-2.86-2-4.9.24-1.25 1.38-1.94 2.14-2.86" class="cls-10"/><path d="M485 121.58c1.75.14 3.55-.34 5.25.38.85 1.11.62 2.38.59 3.57-.06 2.86-.95 3.63-3.76 3.43-2.35-.16-3.17-1.18-2.89-3.89a24 24 0 0 1 .85-3.52Z" class="cls-12"/><path d="M479.15 176.14c4.43-.47 4.77-.83 5-5.1 2.05 1.42 4.2 2.07 6.56.73l.16 1.19c-2.24 1.86-3.35 4-1.62 6.77-.15.95-.19 2-1.53 2.08-.69-4.63-2.23-5.35-6.82-3.2-.29-1.05-1.9-1.14-1.75-2.47" class="cls-14"/><path d="M487.35 138.84a3.76 3.76 0 0 1 4.16 3.52c.07 1.46-2.1 3.6-3.8 3.74s-4.1-2.16-4.15-3.85c-.05-1.86 1.62-3.36 3.79-3.41m5.32-4.84v-.06c-1.06 3.56-3 4.71-5.38 3.22a3.9 3.9 0 0 1-2.09-4.16 4.1 4.1 0 0 1 3.66-2.93 3.3 3.3 0 0 1 3.53 2.27 9 9 0 0 1 .28 1.66" class="cls-12"/><path d="M491.43 107.76c1.18 2.29 1.31 4.47-.68 6.43l.06-.09c-.49.09-1.16 0-.9.86h.08a2.65 2.65 0 0 0-3.05-.18l-.13.06c.15-1.34-1.18-1.63-1.75-2.46v-3.16c.05-.1.16-.21.15-.29a4 4 0 0 0-.2-.55l-.07.07c.85.26 1-.23.91-.9l-.07.08a18 18 0 0 1 5.72.07Z" class="cls-13"/><path d="M514.11 120.77c-5.37-.37-6.2-2.16-3.44-7.39h.41c2.12-.18 4.19 0 5.11 2.27s-.33 3.84-2.08 5.12m1.53 16.8c-2.21-.39-4.08-1.5-3.84-3.89s2.14-3.6 4.59-3.74c1.2 0 1.69 1 2.38 1.73a4 4 0 0 0 .1.57q.02 1.67.1 3.35c-.66 1.41-2.03 1.63-3.33 1.98" class="cls-10"/><path d="M485 121.55c-1.07-.06-2.27.35-3.17-.38-1.22-1-2.94-1.9-2.44-3.83s1.51-3.53 4-3.19c.53.07 1.08.07 1.62.11.41.8 1.07.81 1.82.55l.13-.06c-.53 2.32.15 5-2 6.83Z" class="cls-12"/><path d="M510.61 113.3c-5.19-.88-6.12-3-3.25-7.41l.86-.1c2-.11 3.89.27 4.7 2.36.87 2.38-.92 3.7-2.31 5.15m-3.25-7.41a8 8 0 0 0-.82-.07c-5.52.09-6.62-1.65-4.14-6.53.65 0 1.32 0 1.69-.73 3.94.79 4.13 1.05 4.06 5.56a1.5 1.5 0 0 0-.79 1.76Zm-5.8 61.85c-1-5 0-5.94 5.75-5.77.32 1.38 1.66 2.38 1.14 4.1-.86 2.83-3 2.63-5.23 2.59l-.86-.13a.93.93 0 0 0-.86-.86Z" class="cls-10"/><path d="M485.09 101.77c-1.84-4.56-.69-6.63 4-7.26 1.11 2.33 2.86 4.58.8 7.25-1.25.95-2.76.73-4.18.93h.06a.9.9 0 0 0-.68-.92" class="cls-12"/><path d="M516.41 128.88c-2.34.25-4.43-.11-4.93-2.83-.47-2.55.89-4 3.33-4.62 4 1.47 4.48 3.74 1.6 7.45m-35.48 49.69c4.59-2.15 6.13-1.43 6.82 3.2-1.07 1.5-1.93 3.4-4.32 2.73a3.14 3.14 0 0 1-2.63-3.13c-.01-.94.08-1.87.13-2.8m34.72-32.82c-1.75-.37-3.9 0-4.22-2.74s.49-3.76 4.22-4.32c3.65 2.19 3.65 4.82 0 7.06" class="cls-10"/><path d="M478.31 152.91c1.16 1.2 2.3 2.37 1.09 4.22-1.51 2.33-3.72 3-5.51 1.56s-1.82-3.4.25-5.86Z" class="cls-12"/><path d="M489.89 101.76c2.06-2.67.31-4.92-.8-7.25l.1-1.07c2 1.41 4.05 1.13 6.37-.08.08 2.71-.09 5.12 2.09 6.64a1.5 1.5 0 0 0-1.08 1c-2.11-1.15-3.94-.27-5.73.83Z" class="cls-7"/><path d="M484.18 158.69c.2.8 1.07.77 1.54 1.24 1.4 1.72 1 3.31-.53 4.62a3.36 3.36 0 0 1-4.78-.08c-.39-.33-.6-.92-1.26-.84.26-4.5 1.07-5.29 5.03-4.94" class="cls-13"/><path d="m308.27 210.45-1.86.12-1.05-2.63c-1-2.52-1.55-5.3-4.71-7 2.54-1.17 4.38-.58 6.81-.16-1.91 1.72-1.68 3.42-.78 5.09a15 15 0 0 1 1.59 4.58" class="cls-2"/><path d="m461.23 213.85-2.11.11-5-1.16c-3.08-3.1-3-4.13.25-6.44l.07 1.89c-.41 2 .95 2.5 2.44 3.07s3.59.49 4.35 2.53" class="cls-4"/><path d="m429.7 214.48-.94 1a6.6 6.6 0 0 1-.28-5.88l1.34.18c0 .26-.1.68 0 .78 1.86 1.41 6 1.08 7.74-.58l1-1.06c1 1.05.58 2.26.54 4-2.7 0-5.27.07-7.84 0-1.19-.07-1.76.28-1.56 1.56" class="cls-5"/><path d="m454.41 208.25-.07-1.89c2.21-1.23 4.42-.07 6.54-.23a4.1 4.1 0 0 1 0 4.38c-1.88-1.64-3.7-3.57-6.47-2.26" class="cls-2"/><path d="m454.09 212.8 5 1.16c.37 1 .84 2.21-.4 2.85a4.4 4.4 0 0 1-3.89-.16c-1.25-.57-1.45-1.86-2.1-2.85a1.9 1.9 0 0 1 1.39-1" class="cls-3"/><path d="M314.77 206.75c.21-1.93 1.52-3.9-.67-5.79a9 9 0 0 1 6.86 0c-3.66 1.39-3.36 4.73-5.14 6.79Z" class="cls-4"/><path d="M356.89 209.13a1.6 1.6 0 0 0-1.19-1.13c2.72-2.9 4.69-3.13 7.9-.93a1.7 1.7 0 0 0-1.21 1.21c-1.92-.28-3.85-.6-5.5.85" class="cls-15"/><path d="m429.82 209.81-1.34-.18c2-3.68 3.54-4.3 7.68-3.18v1.77c-2.43-.61-4.64-.54-6.34 1.59" class="cls-2"/><path d="M321.13 206.48c2.54-.71 5.06-1.33 7.1 1.12l-.93.94c-1.68-1.12-3.56-.64-5.38-.64Z" class="cls-5"/><path d="M446.39 209.06a1.6 1.6 0 0 1-1.22-1.26c1.76-1 3.34-2.86 5.9-1.2-1.13 2.13-3.52 1.12-4.68 2.46m-53.95-1.88a1.7 1.7 0 0 0-1.1 1.1c-1.66-.9-3.75.45-5.3-1 2.66-2.04 3.84-2.06 6.4-.1m6.56 6.93a1.5 1.5 0 0 0-1-1.08 4.5 4.5 0 0 1 5-1.56l.06 1.33a11 11 0 0 0-4.06 1.31" class="cls-4"/><path d="M475.61 145.49c-.78 0-1.34-.32-1.41-1.18.2-1.31-2.17-3.07.71-3.9a5.8 5.8 0 0 0 1.89 4.93Z" class="cls-9"/><path d="m321.13 206.48.79 1.42a1.8 1.8 0 0 1-2.81.51c-.11-1.47.75-1.92 2.02-1.93" class="cls-15"/><path d="M436.12 208.22v-1.77a2.7 2.7 0 0 1 2.46 2.5q-.53.53-1 1.06Z" class="cls-4"/><path d="M379 206.43v1.7a2.4 2.4 0 0 1-1.67 1.18V209a.74.74 0 0 0-.85-.82c0-.62.09-1.23.14-1.85Z" class="cls-15"/><path d="m478.31 152.91-4.17-.08.9-1.63c1.33.08 2.73.06 3.27 1.71" class="cls-9"/><path d="m319.78 217.59-.68-1c.3-.72.44-1.41-.36-1.93a1.9 1.9 0 0 1 1.35-1.85l.86.84a2.7 2.7 0 0 0-.08 2.89Z" class="cls-5"/><path d="M469.22 102.5c.09-.81-.21-1.75.69-2.32l1.14.37v2.59Z" class="cls-16"/><path d="m376.62 206.35-.14 1.85c-1.36.57-1.82-.42-2.47-1.14.79-1.17 1.7-.96 2.61-.71" class="cls-2"/><path d="M486.81 114.81c-.75.26-1.41.25-1.82-.55l.07-1.91c.57.83 1.94 1.12 1.75 2.46" class="cls-6"/><path d="M491.62 153.7c-.7 0-1.34 0-1.66-.77l.26-1.85a2.6 2.6 0 0 1 1.39 1.64Z" class="cls-17"/><path d="M504.05 98.6c-.37.68-1 .69-1.69.73a1.6 1.6 0 0 1 .42-1.74 1.4 1.4 0 0 1 1.27 1.01m-8.14 77.4c-.16-.57-.44-1.22.34-1.54.54-.22.9.18 1.17.61-.22.74-.83.93-1.51.93" class="cls-6"/><path d="M318.74 214.71c.8.52.66 1.21.36 1.93-.82-.51-1.59-1.03-.36-1.93" class="cls-15"/><path d="M473.4 171.86q-.81 1.42-1.64 0 .81-1.41 1.64 0" class="cls-9"/><path d="M485.09 101.77a.9.9 0 0 1 .68.93c-1.09.45-1.73-.16-2.3-.94Z" class="cls-6"/><path d="M399.74 206.47v1.48c-.57.37-1.38.76-1.57-.1s.7-1.3 1.57-1.38" class="cls-2"/><path d="M476.74 171.86v2.06c-1.24-.43-.74-1.35-1.05-1.89Zm16.55-50.39 1.67.07c-.1 1-.88 1.39-1.61 1.84Z" class="cls-6"/><path d="m419.43 206.35.4 1.38a.65.65 0 0 1-.91-.26c-.25-.47-.01-.91.51-1.12" class="cls-18"/><path d="M507.32 105.92a1.5 1.5 0 0 1 .79-1.76c0 .56.05 1.11.07 1.66Zm-4.96 62.61.86.13-.17 1.76a1.7 1.7 0 0 1-.69-1.89" class="cls-6"/><path d="M376.49 208.18a.74.74 0 0 1 .85.82c-.77.23-1.05 0-.85-.82" class="cls-2"/><path d="M477.68 169a.7.7 0 0 1 .59.18 1 1 0 0 1-.68 1.06Zm7.32-60.65a4 4 0 0 1 .2.55c0 .08-.1.19-.15.29l-1.13-.1a1.05 1.05 0 0 1 1.08-.74" class="cls-6"/><path d="M356.89 209.13c1.65-1.45 3.58-1.16 5.5-.88a2.5 2.5 0 0 1 .76 2.82 22 22 0 0 1-6.11.09 2 2 0 0 1-.15-2.03m42.11 4.98a11 11 0 0 1 4.07-1.31c3.22.2 3.22.2 2.55 3l-2.14 1.2c-4.02.17-4.02.17-4.48-2.89" class="cls-3"/><path d="m403.48 217 2.17-1.23.6 1.61-1.6.43a1.6 1.6 0 0 0-1.17-.81" class="cls-4"/><path d="M320.87 216.59a2.7 2.7 0 0 1 .08-2.89 9.7 9.7 0 0 1 6.45-.58c1 1.95-.54 2.72-1.65 3.67-1.64.45-3.29.74-4.88-.2" class="cls-3"/><path d="M490.84 101.81c1.79-1.1 3.62-2 5.73-.83 1.17 1.54.73 3.38 1 5.07.23.19.41.48.63.52 5.33.78 6.06 2.14 3.68 6.84l-.3.74c-4.75-.32-6-1.74-5.35-6.27a8.7 8.7 0 0 0-4.78-.11l.09-.09c-.27-1.96-1.13-3.85-.7-5.87" class="cls-12"/><path d="M501.54 114.15c2 .07 4-.54 5.24 2 .91 1.95-.75 3-1 4.69.84.71 1.73 1.48 2.64 2.23a2.7 2.7 0 0 1 .43 4.26c-1.23 1.49-2.83 2.16-4.7 1.21s-2.23-2.62-1.33-4.52c.22-.48.69-.85.93-1.33a4 4 0 0 0 .18-1.14c-4.66-2.1-5.08-3.42-2.41-7.44Zm-10.8 57.58c-2.36 1.34-4.51.69-6.56-.73.28-4.92.61-5.21 5.67-5.12 1 0 .85-.82.93-1.45.84-.33.83-1 .74-1.73.49-3.31 3.11-2.14 5.07-2.39l.39 1.57c1.27 4.41-.3 6.13-5 5.25Zm5.85-11.42A10 10 0 0 1 496 158c-.07-3.19 1.33-4.24 5.6-4.31a10 10 0 0 1 1.34 2 3.8 3.8 0 0 1-.6 4.22 3.3 3.3 0 0 1-3.75.9c-.64-.22-1.3-.37-2-.55Z" class="cls-12"/><path d="M501.56 153.72a14 14 0 0 0-.77-1.45c-1.17-1.72-1.14-3.42.4-4.8 1-.88 2.34-1.76 3.7-.61 1.2 1 2.9 1.92 2.2 4-.63 1.8-1.66 3.17-3.9 2.87a11 11 0 0 0-1.65 0Zm5.02-23.12c2.18 0 3.89 1.46 3.88 3.33a3.56 3.56 0 0 1-3.49 3.3 3.4 3.4 0 0 1-3.75-3.43c.05-2.07 1.22-3.19 3.36-3.2m3.06 11.6a3.6 3.6 0 0 1-3.47 3.27 3.35 3.35 0 1 1 .08-6.63 3.64 3.64 0 0 1 3.39 3.36" class="cls-12"/><path d="M491.52 162.7c.09.72.1 1.4-.74 1.73-1.42-1.28-.29-1.43.74-1.73" class="cls-19"/><path d="M490.84 101.81c-.43 2 .43 3.91.68 5.86a18 18 0 0 0-5.72-.07l-.09-4.91c1.42-.2 2.93 0 4.18-.93Z" class="cls-6"/><path d="M485.87 107.52c.06.67-.06 1.16-.91.9.04-.54.25-.95.91-.9m15.66 60.18a.93.93 0 0 1 .86.86c-.55-.02-.87-.28-.86-.86M489.91 115c-.26-.86.41-.77.9-.86q.28 1.1-.9.86m-53.79 93.22 1.47 1.79c-1.72 1.66-5.88 2-7.74.58-.13-.1 0-.52 0-.78 1.67-2.13 3.88-2.2 6.27-1.59" class="cls-6"/></g></svg>