<svg xmlns="http://www.w3.org/2000/svg" id="Lager_1" viewBox="0 0 600 300"><defs><style>.cls-1{fill:#e8eff3}.cls-2{fill:#d1492e}.cls-3{fill:#252525}</style></defs><path d="M0 0h600v300H0z" class="cls-1"/><g id="MindMore"><path d="m338.25 219.73-13.48 19.29-5.59-2.2.91-7.44-.66-.32c-.61.8-1.19 1.63-1.84 2.41a67 67 0 0 1-5.75 6.74c-4.68 4.31-9.85 3-11.71-3.05-.86-2.78-.92-5.81-1.23-8.73-.15-1.41 0-2.84 0-5-1.08 1.43-1.78 2.44-2.56 3.38-2.89 3.45-5.59 7.08-8.75 10.25-6.15 6.19-9.82 5.61-14-1.75-1.63 1.56-3.21 3.21-4.94 4.7-5.61 4.85-12.89 3-15.09-4.15-1.1-3.58-1.15-7.48-1.74-11.75-1.58 2.26-3 4.34-4.48 6.44a67 67 0 0 0-5.11 7.65c-1.65 3.27-3.76 3.19-6.25 1.5a3.8 3.8 0 0 1-1.42-2.61 31 31 0 0 1 .58-5.06l-.86-.45a40 40 0 0 1-2.74 2.91c-2.39 2.08-4.66 4.4-7.35 6-5.35 3.23-10.08.76-11-5.42-.12-.81-.16-1.64-.16-1.67-2 1.67-4.29 3.52-6.54 5.39-6.24 5.21-13.62 3.55-16.89-4-2.61-6-2.69-12.36-2.64-18.74 0-1.17-.15-2.35-.23-3.52l.47-.12-.1-.3-.32.49c-2.87 4.62-5.79 9.21-8.6 13.87-3.35 5.52-6.61 11.1-9.85 16.57-.38.07-.6.18-.79.13-5.36-1.37-5.42-1.37-5.07-6.87.57-9.09 1.24-18.16 1.83-27.25a17 17 0 0 0-.43-5.17c-1.59 3.78-3 7.67-4.82 11.33-3.36 6.63-6.73 13.29-10.66 19.59a25 25 0 0 1-7.64 7.5c-5.86 3.67-13 .37-14.73-6.31-1.23-4.87-.17-9.5 1.46-14.36l5.55 2a73 73 0 0 0-.93 8.92c0 1.42.91 3.72 1.91 4a6 6 0 0 0 5-.94c2.52-2.38 5.07-5.07 6.52-8.15a898 898 0 0 0 15.41-34.78c2.2-5.24 3.7-10.76 5.63-16.5l6.18 1-3.22 49.9.6.2L190 192l5.6 2.15c-.64 5.54-1.66 10.94-1.8 16.36a170 170 0 0 0 .89 17.32 8.4 8.4 0 0 0 1.5 3.59c1.57 2.42 3.74 2.9 5.78.85a62 62 0 0 0 7.31-8.83c2.86-4.25 5.29-8.79 8-13.45l5.39 1.73c-1.46 7.23-4.14 14.05-2.81 22.37 8.91-6.57 14.46-14.75 19.77-23.79l5.42.95-1.66 10.56.49.27 12.41-18.18 5.31 2.52c-.93 5.56-2.05 10.8-2.61 16.11a29 29 0 0 0 .59 9.1c.65 3 3 3.56 5.09 1.31 4.09-4.36 8.42-8.53 9.33-15a27 27 0 0 1 3.2-8.57c3.72-7 9.69-8.93 16.92-5.62 1.87.86 3.59 2.07 5.76 3.34l7.8-23.33 6.33 1.76c-3.27 15.63-9.42 30.69-6.91 47.2 7.5-6.19 11.94-14.47 16.83-22.78l5.59.91-1.58 10.15.59.38a20 20 0 0 0 2-2.17c2.8-4.06 5.75-8 8.24-12.29 1.67-2.85 3.44-3.6 6.26-1.91a15 15 0 0 0 1.87.77l-1.92 17.55.52.18 9.33-14.23 5.24 2.07v15.44a5 5 0 0 0 .28 2.26c.95 1.66 1.77 3.93 3.25 4.59s5.17-3.94 5.12-6.12c-.22-11.79 6.08-21.25 15.89-23.72a42 42 0 0 1 4.83-.61l.56 7c-1.27.31-2.42.55-3.54.87-7 2-11.88 10.15-10.31 17.29.69 3.08 2.44 5.11 5.64 5.66 3.42.57 5.57-1.21 7.24-3.89a42 42 0 0 1-4-3.08 8.26 8.26 0 0 1-1.5-10.25c1.9-3.39 5.4-5.09 8.8-4.28s5.91 4.18 6.06 8.43c.06 1.51 0 3 0 5.76 2.23-1.3 4.3-1.89 5.37-3.26 2.28-2.92 4-6.25 6-9.4a50 50 0 0 1 2.88-4.39c2.86-3.62 7-2.91 8.55 1.48A16 16 0 0 1 422 215a12 12 0 0 0 .66 4l9.45-21.59 5.43 2.56c-.82 5.82-.06 6.95 5.65 8.36 3.18.78 6.13 1.36 9.32-.87 3.57-2.49 8.81-1.65 11.66 1 2.66 2.47 3.17 6.67 1.13 11a21.8 21.8 0 0 1-12.9 11.44c-.8.29-1.63.52-2.51.81 4 4.73 10.37 3 19.62-5.22l5 3.58c-5.49 6.52-11.9 10.74-20.44 10.47-7.91-.25-12.85-6.56-11.88-14.95.37-3.22 1.35-6.37 2.06-9.62l-11.09-4.87-12.36 28.35c-7.33-1.25-6.14-.13-5.95-6.71.17-5.67.62-11.34.67-17.13-4.86 7.16-6.9 17.43-18.83 16.06-5.84 10.8-16.18 13.06-25.3 4.58-3.36 2.61-6.77 5.85-11.45 3.33-6.07-3.26-6-9.44-6.7-16.1-2 3.1-3.72 5.65-5.39 8.21l-5.13 7.87-5.72-2.06 1.73-17.39c0-.38.08-.75.13-1.13Zm-57.14 11.71c6.29-5.64 11.23-12.14 16.05-19.15-1.81-1-3.16-2.2-4.68-2.46-2.11-.36-4.84-.81-6.43.18-4.71 2.99-7.52 15.64-4.94 21.43m167.64-6.55c4.92-.63 9.82-4.83 11.15-9.21.68-2.23-.12-3.34-2.26-3.05a7.7 7.7 0 0 0-4 1.8c-2.97 2.78-4.35 6.4-4.89 10.46m-58.25-.17 1.66-.47-1.13-5-2.2.79zm-138.17-3 .09-.18h-.14Z" class="cls-2"/><path d="M256.74 118.06c-5-2.36-9.76-4.58-14.5-6.84a5.54 5.54 0 0 1-2.65-7.85 4 4 0 0 0 .33-.57C244 91.77 251.49 84 261.65 78c9.15-5.37 17.57-12 26.49-17.76a13.7 13.7 0 0 1 7.29-2.13c12.13.22 24.05 1.82 35.28 6.84 19.09 8.55 28.65 23.79 30.67 44.05a90 90 0 0 1-3.76 35.41 8.5 8.5 0 0 1-2.16 3.93c-23.54 20-50.28 28.83-80.89 21.2-15.37-3.84-25.41-13.88-28.07-30a10.4 10.4 0 0 1 1.17-6.18c2.73-5.13 5.89-10.01 9.07-15.3m27.47-46.5c-8.09 5.44-15.91 11.33-24.35 16.15-7.23 4.12-9.86 11-13.29 17.79l30.24 14.25-3 6.27-10.73-4.93c-2.93 4.88-5.87 9.49-8.47 14.29a8 8 0 0 0-.8 5.15c3.26 13.93 13.2 20.8 26.38 23.27 26.13 4.89 48.93-2.85 69.15-19.34a5 5 0 0 0 1.7-2.65c1.27-7.31 2.39-14.64 3.55-22-.14-3.93 0-7.89-.47-11.77-2-15.9-9.28-28.34-24.08-35.63-11.16-5.49-23.12-7.2-35.4-7.29a4.5 4.5 0 0 0-2.45.72c-2.68 1.86-5.32 3.81-7.98 5.72" class="cls-3"/><path d="m222.43 194.72 5.55 3-2.48 5.9-6-2.11c1.01-2.41 1.95-4.51 2.93-6.79m132.19-74.88a4 4 0 0 0-.92.35c-7.17 4.83-14.53 4-21.89.57a6.8 6.8 0 0 1-3.32-2.74c-3.71-8.42-11-13.11-18.32-17.65-5.49-3.37-11.23-6.37-16.75-9.71a7.5 7.5 0 0 1-2.85-3.3c-2.25-5.21-4.26-10.52-6.36-15.8 2.66-1.91 5.3-3.86 8-5.69a4.5 4.5 0 0 1 2.45-.72c12.28.09 24.24 1.8 35.4 7.29 14.8 7.29 22.09 19.73 24.08 35.63.5 3.93.34 7.84.48 11.77M331.3 89.29l-1.09-.13 2.56-4.23-4.3-3.11 1.06-.25-.47-5.71-5.81 1.66.22 1-4.41-2.62-2.73 4.1 1.06-.07c.59 1.84 2.18 4.13 1.59 5.41-1.55 3.33-4 .32-6.1-.18L310 89.41l13.5 9 3.23-4.28c2 .9 4.12 3.33 5.72.55.72-1.18-.69-3.56-1.15-5.39m-1.3 14.27 3.49 3.69-1.15.18-.33 5.15 5.62-.54V111l3.83 3.07 3.17-3.52-1-.07c-.29-1.8-1.43-4.19-.68-5.29 1.91-2.8 3.67.33 5.66 1.07l3.25-3.51-11.3-10.45-3.42 3.7 1.16.12c.25 1.71 1.33 4 .61 5-1.9 2.61-3.75.16-5.61-1.08Zm-34.56-35.24-3.45 12.75 12.57 3.39 1.44-3.84.41.61 4.23-1.85-2.68-4-.67.33.75-3.9Z" class="cls-2"/><path d="m263.07 141 4.19-5.2c14 8.31 20.45 8 28.93-1.34l5.34 3.48c-6.15 12.83-24.72 14.32-38.46 3.06m43.36-32.48 2.1 5.06c-7.95 4.17-20 1.13-22.58-11.72l5.7-1.51c2 2.49 3.31 5.46 5.61 6.75s5.57.95 9.17 1.42" class="cls-3"/></g></svg>