<svg xmlns="http://www.w3.org/2000/svg" id="Lager_1" viewBox="0 0 600 300"><defs><style>.cls-1{fill:#e8eff3}.cls-2{fill:#020202}.cls-3{fill:#030303}.cls-4{fill:#308a71}.cls-5{fill:#060606}.cls-6{fill:#080808}.cls-7{fill:#9da429}.cls-8{fill:#839e3c}.cls-9{fill:#d5791b}.cls-10{fill:#d46a1f}.cls-11{fill:#bcac18}.cls-12{fill:#499164}.cls-13{fill:#889f37}.cls-14{fill:#111}.cls-15{fill:#d24327}.cls-16{fill:#d58315}.cls-17{fill:#d7572d}.cls-18{fill:#d37e14}.cls-19{fill:#d34b23}.cls-20{fill:#070707}.cls-21{fill:#338c73}.cls-22{fill:#bcab15}.cls-23{fill:#d7b013}.cls-24{fill:#ccb211}.cls-25{fill:#131313}.cls-26{fill:#b6ad23}.cls-27{fill:#42906c}.cls-28{fill:#e0402a}.cls-29{fill:#d6b80d}.cls-30{fill:#e57a18}.cls-31{fill:#da9629}.cls-32{fill:#d35920}</style></defs><path d="M0 0h600v300H0z" class="cls-1"/><g id="Pwelt"><path d="m343.14 123.29 10.36.55-15.75 50.55h-9.66l-11-32.83-10.79 32.94H297c-.25-1.11-.85-2.14-.6-2.9 5.18-15.88 10.45-31.73 15.78-47.8H322l10.81 32.57c3.6-11.65 6.85-21.98 10.33-33.08" class="cls-2"/><path d="M247.72 157.65v15.89H238c-.59-8.08-.31-16.07-.16-24.6 2.35-.26 4.21-.62 6.07-.65 5.43-.08 10.86.09 16.29-.07 6.22-.17 8.94-2.5 9.08-7.39s-2.52-7.31-8.78-7.48c-5.42-.14-10.85 0-16.28-.06-1.89 0-3.78-.36-6.07-.59v-8.63a46 46 0 0 1 5.2-.64c6.67-.05 13.35-.31 20 .11 10 .64 16.1 7.67 15.89 17.7-.2 9.64-6.33 15.88-16.36 16.37-4.7.22-9.38.04-15.16.04" class="cls-3"/><path d="M136.64 180.83c-.89 1.35-2.08 2.6-2.57 4.08s-.08 2.94-.09 4.42c0 8.15-1.78 11.23-6.3 11.08s-5.93-2.93-6-11.47V182c-6.25-1.39-7.38-5.88-7.08-11.26.12-2.21-.32-4.51.11-6.64.61-3 1.09-6.51 5.33-6.86h12.16c1.1 2.57 2.53 4.68 2.86 7 .8 5.47 1.08 11.05 1.58 16.59" class="cls-4"/><path d="M485.88 124.8c1.35 2.62 1.78 5.19-.43 7.61-4.28-.07-8.57-.24-12.86-.13-.84 0-1.65 1.12-2.48 1.73.05 12 .13 24 .08 36 0 1.3-.75 2.6-1.15 3.9l-7.75-.26-.1-.11q0-24.34-.07-48.69h24.76Z" class="cls-3"/><path d="M406.86 123.83h8.6c1.38 5.78 1.78 35.39.69 49.74l-9.29.48Z" class="cls-5"/><path d="M394.52 144.38v9.21c-11.61.88-23 .28-34.94.42v-9.63Z" class="cls-6"/><path d="M359.39 173.81v-7.94c5.29-1.54 27.34-1.91 38-.64v8.58Z" class="cls-2"/><path d="M157.4 157.41c3.21-2.31 6.69-1.17 10.11-.77l-3.61 1.47c.82.9 2 1.62 2.27 2.59q1.73 6.19 3.05 12.48c.62 3 .54 6.17 3.43 8.17l-.39 12.29c-.14 3.86-1.62 6.51-6 6.52-.37-2.61-.62-5.23-1.12-7.81q-1.56-8.1-3.36-16.15c-1.37-6.28-2.9-12.53-4.38-18.79" class="cls-7"/><path d="m397.19 124.81-.15 7.35-36.73.08c0-2.56-.09-5.12-.13-7.67Z" class="cls-3"/><path d="M157.4 157.41c1.48 6.26 3 12.51 4.41 18.79q1.8 8 3.36 16.15c.5 2.58.75 5.2 1.12 7.81l-6.11-2v-14.31c-2.73-2.83-6.22-4.78-6.7-7.3-.92-4.93-.44-10.2.09-15.27.14-1.41 2.49-2.58 3.83-3.87" class="cls-8"/><path d="M193.24 158.93c.89-.72 1.69-1.93 2.66-2.1 5.48-.91 11-1.6 16.41.43l-3.06.23h-5.93c-5.86.71-7 2.35-5.57 8.07 2.27 8.84 4.68 17.63 5.68 26.76.32 2.89 1.57 5.78 5.59 5.07-1.42 3.64-4.51 3.52-7.3 2.68s-4-3.54-4.15-6.37c-.27-4.14-.34-8.29-.49-12.43.38-.24 1.12-.57 1.09-.72-1.6-7.22-3.27-14.42-4.93-21.62" class="cls-9"/><path d="M209 197.38c-4 .71-5.27-2.18-5.59-5.07-1-9.13-3.41-17.92-5.68-26.76-1.48-5.72-.29-7.36 5.57-8.07a9.9 9.9 0 0 0-1.07 8.28c1 3.9 1.59 7.9 2.63 11.78.72 2.66 1.91 5.2 3.09 8.33l2.7-4.86.25.33c-.12 3.33-.08 6.68-.41 10a42 42 0 0 1-1.49 6.04" class="cls-10"/><path d="M172.65 181.35c-2.89-2-2.81-5.2-3.43-8.17-.89-4.19-1.88-8.36-3.05-12.48-.28-1-1.45-1.69-2.27-2.59l3.61-1.47c3.45-.87 6.71-1 9.1 2.31-.41 1.1-1.23 2.23-1.16 3.3.23 3.57.69 7.14 1.25 10.69a18 18 0 0 0 1.39 3.69c-.09 3.55-2.4 4.57-5.44 4.72" class="cls-11"/><path d="M296.08 140.76H286l-4.68-15.62c3.24-2.79 6.19-1.37 9.39-1.75a63 63 0 0 1 5.37 17.37" class="cls-6"/><path d="M420.8 164.9h20.62l.4 8.6c-6.91 1-13.39.53-20.57.38-.14-2.88-.25-5.48-.45-8.98" class="cls-3"/><path d="M136.64 180.83c-.5-5.54-.78-11.12-1.58-16.62-.33-2.27-1.76-4.38-2.86-7h-12.11c5-.35 10-1.25 14.94-.79 2 .2 5.13 3.12 5.4 5.12a62 62 0 0 1-.26 15.2c-.17 1.51-2.3 2.75-3.53 4.09" class="cls-12"/><path d="M150.26 130.38c-6.3.64-8.23 0-9.14-3.25a6.6 6.6 0 0 1 3-7.59 5.66 5.66 0 0 1 7.31 1.26c2.48 2.66 2.25 4.65-1.17 9.58" class="cls-13"/><path d="M455.11 133.15h-9.8c-2.85-2.77-1.51-5.8-1.14-9.3h10.94Z" class="cls-14"/><path d="m209.25 157.49 3.06-.23c3.12 1.58 4.74 3.88 4.43 7.61-.29 3.42 0 6.9-.1 10.34-.06 2-.37 4-2.95 4.29-1-4.33-2.09-8.64-3-13-.61-2.97-.97-6-1.44-9.01" class="cls-15"/><path d="M193.24 158.93q2.51 10.8 4.93 21.61c0 .15-.71.48-1.09.72-3.13-.14-5.27-2.08-5.44-4.82a152 152 0 0 1 .29-15.83c.07-.61.86-1.12 1.31-1.68" class="cls-16"/><path d="M207.35 148.41c-4.83 2.49-7 1.94-9-2.21-1.85-3.95-.6-6 5-8.1.5 1.84 1.31 3.66 1.4 5.51.08 2.17.57 3.82 2.6 4.8" class="cls-17"/><path d="M187 130.53c-2.15.37-4.39 1.31-6-1.1 0-3.77-.25-7.6 3.05-10.39l3 .24 2.7 5.38c-.98 2.06-1.85 3.96-2.75 5.87" class="cls-18"/><path d="M209.25 157.49c.47 3 .83 6 1.45 9 .9 4.35 2 8.66 3 13l-2.77 1.84-.25-.33c-.19-1.4 0-3-.64-4.16-3.07-6.13-3.82-12.65-3.74-19.36Z" class="cls-19"/><path d="M461.12 124.81q0 24.34.07 48.69c-.41-.77-1.17-1.55-1.17-2.32q-.12-22 0-44c-.02-.77.72-1.57 1.1-2.37" class="cls-20"/><path d="M127.78 149.81c-4 .06-6-2.2-5.94-5.86s1.85-6 5.92-5.86c.7 3.91 3.1 7.81.02 11.72" class="cls-21"/><path d="M163.4 138.44c3.93-1.58 6.68.74 8.36 3.51 1.42 2.34.7 5.21-2.36 6.62l-3.78-.31z" class="cls-22"/><path d="M163.24 100.93c3.3-2.61 6.21-1.24 7.83 1.71a9.3 9.3 0 0 1 .25 6.75c-.93 2.69-4 3.15-8 2 2.35-1.69 5.72-2.48 5.67-6.11Z" class="cls-23"/><path d="m163.24 100.93 5.78 4.3c0 3.63-3.32 4.42-5.67 6.11-4.52-4.12-4.54-6.09-.11-10.41" class="cls-24"/><path d="m397.19 124.81-37-.18c.79-.43 1.57-1.22 2.36-1.22q16.25-.12 32.51 0c.69.02 1.41.92 2.13 1.4m-36.88 7.43 36.73-.08c-.75.45-1.49 1.27-2.24 1.28q-16.08.12-32.16 0c-.78 0-1.55-.78-2.33-1.2" class="cls-25"/><path d="m163.4 138.44 2.22 9.82 3.78.31c-4.05 1.68-7.3 1.39-8.55-1.16a7.2 7.2 0 0 1-.57-4.82c.48-1.59 2.04-2.78 3.12-4.15" class="cls-26"/><path d="M127.78 149.81c3.08-3.91.68-7.82 0-11.72 5.08 1 6 1.8 6.18 5.32.11 3.72-1.04 4.92-6.18 6.4" class="cls-27"/><path d="M207.35 148.41c-2-1-2.52-2.63-2.63-4.8-.09-1.85-.9-3.67-1.4-5.51 3.61-.7 4.37 3.35 8.34 4Z" class="cls-28"/><path d="M485.88 124.8h-24.75c.25-.38.5-1.09.76-1.09q11.6-.08 23.2 0c.27.04.53.72.79 1.09" class="cls-20"/><path d="M178.09 176.63a18 18 0 0 1-1.39-3.69q-.86-5.33-1.25-10.69c-.07-1.07.75-2.2 1.16-3.3.58 1.15 1.64 2.29 1.66 3.45.11 4.74-.09 9.49-.18 14.23" class="cls-29"/><path d="m187 130.53 2.69-5.87-2.7-5.38c6.19 4.48 6.19 6.72.01 11.25" class="cls-30"/><path d="M184.06 119c-3.3 2.79-3.09 6.62-3.05 10.39-3.76-5.94-3.22-7.77 3.05-10.39" class="cls-31"/><path d="M470.11 134c.83-.61 1.64-1.71 2.48-1.73 4.29-.11 8.58.06 12.86.13-2.26.36-4.52.83-6.79 1.06-2.84.29-5.66.38-8.55.54" class="cls-20"/><path d="M360.2 124.59c0 2.55.09 5.11.13 7.67-2.33-2.52-2.07-5.08-.13-7.67" class="cls-25"/><path d="m461.29 173.61 7.75.26c-2.64 1.44-5.24 1.99-7.75-.26" class="cls-20"/><path d="M206.29 157.49c-.08 6.71.67 13.23 3.74 19.36.6 1.19.45 2.76.64 4.16l-2.7 4.86c-1.18-3.13-2.37-5.67-3.09-8.33-1-3.88-1.65-7.88-2.63-11.78a9.9 9.9 0 0 1 1.07-8.28Z" class="cls-32"/></g></svg>