<svg id="Lager_1" data-name="Lager 1" xmlns="http://www.w3.org/2000/svg" viewBox="0 0 600 300"><defs><style>.cls-1{fill:#e8eff3;}.cls-2{fill:#020202;}.cls-3{fill:#030303;}.cls-4{fill:#308a71;}.cls-5{fill:#060606;}.cls-6{fill:#080808;}.cls-7{fill:#9da429;}.cls-8{fill:#839e3c;}.cls-9{fill:#d5791b;}.cls-10{fill:#d46a1f;}.cls-11{fill:#bcac18;}.cls-12{fill:#499164;}.cls-13{fill:#889f37;}.cls-14{fill:#111;}.cls-15{fill:#d24327;}.cls-16{fill:#d58315;}.cls-17{fill:#d7572d;}.cls-18{fill:#d37e14;}.cls-19{fill:#d34b23;}.cls-20{fill:#070707;}.cls-21{fill:#338c73;}.cls-22{fill:#bcab15;}.cls-23{fill:#d7b013;}.cls-24{fill:#ccb211;}.cls-25{fill:#131313;}.cls-26{fill:#b6ad23;}.cls-27{fill:#42906c;}.cls-28{fill:#e0402a;}.cls-29{fill:#d6b80d;}.cls-30{fill:#e57a18;}.cls-31{fill:#da9629;}.cls-32{fill:#d35920;}</style></defs><rect class="cls-1" width="600" height="300"/><g id="Pwelt"><path class="cls-2" d="M343.14,123.29l10.36.55c-5.44,17.47-10.53,33.8-15.75,50.55h-9.66l-11-32.83c-3.91,11.93-7.31,22.33-10.79,32.94H297c-.25-1.11-.85-2.14-.6-2.9,5.18-15.88,10.45-31.73,15.78-47.8H322c3.43,10.32,6.89,20.77,10.81,32.57C336.41,144.72,339.66,134.39,343.14,123.29Z"/><path class="cls-3" d="M247.72,157.65v15.89H238c-.59-8.08-.31-16.07-.16-24.6,2.35-.26,4.21-.62,6.07-.65,5.43-.08,10.86.09,16.29-.07,6.22-.17,8.94-2.5,9.08-7.39s-2.52-7.31-8.78-7.48c-5.42-.14-10.85,0-16.28-.06-1.89,0-3.78-.36-6.07-.59v-8.63a45.6,45.6,0,0,1,5.2-.64c6.67-.05,13.35-.31,20,.11,10,.64,16.1,7.67,15.89,17.7-.2,9.64-6.33,15.88-16.36,16.37C258.18,157.83,253.5,157.65,247.72,157.65Z"/><path class="cls-4" d="M136.64,180.83c-.89,1.35-2.08,2.6-2.57,4.08s-.08,2.94-.09,4.42c0,8.15-1.78,11.23-6.3,11.08s-5.93-2.93-6-11.47V182c-6.25-1.39-7.38-5.88-7.08-11.26.12-2.21-.32-4.51.11-6.64.61-3,1.09-6.51,5.33-6.86H132.2c1.1,2.57,2.53,4.68,2.86,7C135.86,169.71,136.14,175.29,136.64,180.83Z"/><path class="cls-3" d="M485.88,124.8c1.35,2.62,1.78,5.19-.43,7.61-4.28-.07-8.57-.24-12.86-.13-.84,0-1.65,1.12-2.48,1.73.05,12,.13,24,.08,36,0,1.3-.75,2.6-1.15,3.9l-7.75-.26-.1-.11q0-24.34-.07-48.69h24.76Z"/><path class="cls-5" d="M406.86,123.83h8.6c1.38,5.78,1.78,35.39.69,49.74l-9.29.48Z"/><path class="cls-6" d="M394.52,144.38v9.21c-11.61.88-23,.28-34.94.42v-9.63Z"/><path class="cls-2" d="M359.39,173.81v-7.94c5.29-1.54,27.34-1.91,38-.64v8.58Z"/><path class="cls-7" d="M157.4,157.41c3.21-2.31,6.69-1.17,10.11-.77l-3.61,1.47c.82.9,2,1.62,2.27,2.59,1.17,4.12,2.16,8.29,3.05,12.48.62,3,.54,6.17,3.43,8.17-.13,4.1-.25,8.19-.39,12.29-.14,3.86-1.62,6.51-6,6.52-.37-2.61-.62-5.23-1.12-7.81q-1.56-8.1-3.36-16.15C160.41,169.92,158.88,163.67,157.4,157.41Z"/><path class="cls-3" d="M397.19,124.81l-.15,7.35-36.73.08,0,0c0-2.56-.09-5.12-.13-7.67l0,0Z"/><path class="cls-8" d="M157.4,157.41c1.48,6.26,3,12.51,4.41,18.79q1.8,8,3.36,16.15c.5,2.58.75,5.2,1.12,7.81l-6.11-2V183.85c-2.73-2.83-6.22-4.78-6.7-7.3-.92-4.93-.44-10.2.09-15.27C153.71,159.87,156.06,158.7,157.4,157.41Z"/><path class="cls-9" d="M193.24,158.93c.89-.72,1.69-1.93,2.66-2.1,5.48-.91,11-1.6,16.41.43l-3.06.23h-5.93c-5.86.71-7,2.35-5.57,8.07,2.27,8.84,4.68,17.63,5.68,26.76.32,2.89,1.57,5.78,5.59,5.07-1.42,3.64-4.51,3.52-7.3,2.68s-4-3.54-4.15-6.37c-.27-4.14-.34-8.29-.49-12.43.38-.24,1.12-.57,1.09-.72C196.57,173.33,194.9,166.13,193.24,158.93Z"/><path class="cls-10" d="M209,197.38c-4,.71-5.27-2.18-5.59-5.07-1-9.13-3.41-17.92-5.68-26.76-1.48-5.72-.29-7.36,5.57-8.07a9.85,9.85,0,0,0-1.07,8.28c1,3.9,1.59,7.9,2.63,11.78.72,2.66,1.91,5.2,3.09,8.33l2.7-4.86.25.33c-.12,3.33-.08,6.68-.41,10A41.92,41.92,0,0,1,209,197.38Z"/><path class="cls-11" d="M172.65,181.35c-2.89-2-2.81-5.2-3.43-8.17-.89-4.19-1.88-8.36-3.05-12.48-.28-1-1.45-1.69-2.27-2.59l3.61-1.47c3.45-.87,6.71-1,9.1,2.31-.41,1.1-1.23,2.23-1.16,3.3.23,3.57.69,7.14,1.25,10.69a18.2,18.2,0,0,0,1.39,3.69C178,180.18,175.69,181.2,172.65,181.35Z"/><path class="cls-6" d="M296.08,140.76H286c-1.6-5.32-3.17-10.57-4.68-15.62,3.24-2.79,6.19-1.37,9.39-1.75A62.61,62.61,0,0,1,296.08,140.76Z"/><path class="cls-3" d="M420.8,164.9h20.62c.13,2.75.25,5.3.4,8.6-6.91,1-13.39.53-20.57.38C421.11,171,421,168.4,420.8,164.9Z"/><path class="cls-12" d="M136.64,180.83c-.5-5.54-.78-11.12-1.58-16.62-.33-2.27-1.76-4.38-2.86-7H120.09c5-.35,10-1.25,14.94-.79,2,.2,5.13,3.12,5.4,5.12a62.42,62.42,0,0,1-.26,15.2C140,178.25,137.87,179.49,136.64,180.83Z"/><path class="cls-13" d="M150.26,130.38c-6.3.64-8.23,0-9.14-3.25a6.57,6.57,0,0,1,3-7.59,5.66,5.66,0,0,1,7.31,1.26C153.91,123.46,153.68,125.45,150.26,130.38Z"/><path class="cls-14" d="M455.11,133.15h-9.8c-2.85-2.77-1.51-5.8-1.14-9.3h10.94Z"/><path class="cls-15" d="M209.25,157.49l3.06-.23c3.12,1.58,4.74,3.88,4.43,7.61-.29,3.42,0,6.9-.1,10.34-.06,2-.37,4-2.95,4.29-1-4.33-2.09-8.64-3-13C210.08,163.53,209.72,160.5,209.25,157.49Z"/><path class="cls-16" d="M193.24,158.93c1.66,7.2,3.33,14.4,4.93,21.61,0,.15-.71.48-1.09.72-3.13-.14-5.27-2.08-5.44-4.82a152.1,152.1,0,0,1,.29-15.83C192,160,192.79,159.49,193.24,158.93Z"/><path class="cls-17" d="M207.35,148.41c-4.83,2.49-7,1.94-9-2.21-1.85-3.95-.6-6,5-8.1.5,1.84,1.31,3.66,1.4,5.51C204.83,145.78,205.32,147.43,207.35,148.41Z"/><path class="cls-18" d="M187,130.53c-2.15.37-4.39,1.31-6-1.1,0-3.77-.25-7.6,3.05-10.39l3,.24,2.7,5.38C188.77,126.72,187.9,128.62,187,130.53Z"/><path class="cls-19" d="M209.25,157.49c.47,3,.83,6,1.45,9,.9,4.35,2,8.66,3,13l-2.77,1.84-.25-.33c-.19-1.4,0-3-.64-4.16-3.07-6.13-3.82-12.65-3.74-19.36Z"/><path class="cls-20" d="M461.12,124.81q0,24.34.07,48.69c-.41-.77-1.17-1.55-1.17-2.32q-.12-22,0-44C460,126.41,460.74,125.61,461.12,124.81Z"/><path class="cls-21" d="M127.78,149.81c-4,.06-6-2.2-5.94-5.86s1.85-6,5.92-5.86C128.46,142,130.86,145.9,127.78,149.81Z"/><path class="cls-22" d="M163.4,138.44c3.93-1.58,6.68.74,8.36,3.51,1.42,2.34.7,5.21-2.36,6.62l-3.78-.31C164.81,144.68,164.11,141.56,163.4,138.44Z"/><path class="cls-23" d="M163.24,100.93c3.3-2.61,6.21-1.24,7.83,1.71a9.27,9.27,0,0,1,.25,6.75c-.93,2.69-4,3.15-8,2,2.35-1.69,5.72-2.48,5.67-6.11Z"/><path class="cls-24" d="M163.24,100.93l5.78,4.3c0,3.63-3.32,4.42-5.67,6.11C158.83,107.22,158.81,105.25,163.24,100.93Z"/><path class="cls-25" d="M397.19,124.81l-37-.18c.79-.43,1.57-1.22,2.36-1.22q16.25-.12,32.51,0C395.75,123.43,396.47,124.33,397.19,124.81Z"/><path class="cls-25" d="M360.31,132.24l36.73-.08c-.75.45-1.49,1.27-2.24,1.28q-16.08.12-32.16,0C361.86,133.44,361.09,132.66,360.31,132.24Z"/><path class="cls-26" d="M163.4,138.44c.71,3.12,1.41,6.24,2.22,9.82l3.78.31c-4.05,1.68-7.3,1.39-8.55-1.16a7.24,7.24,0,0,1-.57-4.82C160.76,141,162.32,139.81,163.4,138.44Z"/><path class="cls-27" d="M127.78,149.81c3.08-3.91.68-7.82,0-11.72,5.08,1,6,1.8,6.18,5.32C134.07,147.13,132.92,148.33,127.78,149.81Z"/><path class="cls-28" d="M207.35,148.41c-2-1-2.52-2.63-2.63-4.8-.09-1.85-.9-3.67-1.4-5.51,3.61-.7,4.37,3.35,8.34,4Z"/><path class="cls-20" d="M485.88,124.8H461.13c.25-.38.5-1.09.76-1.09q11.6-.08,23.2,0C485.36,123.75,485.62,124.43,485.88,124.8Z"/><path class="cls-29" d="M178.09,176.63a18.2,18.2,0,0,1-1.39-3.69c-.56-3.55-1-7.12-1.25-10.69-.07-1.07.75-2.2,1.16-3.3.58,1.15,1.64,2.29,1.66,3.45C178.38,167.14,178.18,171.89,178.09,176.63Z"/><path class="cls-30" d="M187,130.53c.87-1.91,1.74-3.81,2.69-5.87l-2.7-5.38C193.18,123.76,193.18,126,187,130.53Z"/><path class="cls-31" d="M184.06,119c-3.3,2.79-3.09,6.62-3.05,10.39C177.25,123.45,177.79,121.62,184.06,119Z"/><path class="cls-20" d="M470.11,134c.83-.61,1.64-1.71,2.48-1.73,4.29-.11,8.58.06,12.86.13-2.26.36-4.52.83-6.79,1.06C475.82,133.75,473,133.84,470.11,134Z"/><path class="cls-25" d="M360.2,124.59c0,2.55.09,5.11.13,7.67C358,129.74,358.26,127.18,360.2,124.59Z"/><path class="cls-20" d="M461.29,173.61l7.75.26C466.4,175.31,463.8,175.86,461.29,173.61Z"/><path class="cls-32" d="M206.29,157.49c-.08,6.71.67,13.23,3.74,19.36.6,1.19.45,2.76.64,4.16l-2.7,4.86c-1.18-3.13-2.37-5.67-3.09-8.33-1-3.88-1.65-7.88-2.63-11.78a9.85,9.85,0,0,1,1.07-8.28Z"/></g></svg>