<svg xmlns="http://www.w3.org/2000/svg" width="90" height="45" viewBox="0 0 90 45"><defs><style>.a{fill:#e8eff3;}.b{fill:#503c6e;}.c{fill:#614e7d;}.d{fill:#807195;}.e{fill:#c8c6cf;}.f{fill:#513d6e;}.g{fill:#523e6e;}.h{fill:#513b6e;}.i{fill:#513c6e;}.j{fill:#523771;}.k{fill:#594675;}.l{fill:#523e6f;}.m{fill:#533f6f;}.n{fill:#544070;}.o{fill:#aaa2b6;}.p{fill:#523870;}.q{fill:#533970;}.r{fill:#533e70;}.s{fill:#e6e4e9;}.t{fill:#d4cfda;}</style></defs><g transform="translate(-325 -212)"><g transform="translate(325.253 212)"><rect class="a" width="90" height="45" transform="translate(-0.253)"/></g><g transform="translate(341 229.01)"><path class="b" d="M1201.312.085l.06-.027.12-.02a.151.151,0,0,0,.159-.039h.04c0,.032,0,.059.046.06s.071-.014.074-.06h8.87c.005.045.028.066.074.053l.076-.022,0,0,.022.044.032-.038h.1l.2.06c0,.052.04.074.081.091a1.775,1.775,0,0,1,.465.329c.062.053.117.114.173.173a.179.179,0,0,1,.03.051c.028.06.052.121.082.18a1.217,1.217,0,0,1,.126.459c0,.042.014.071.061.074,0,.039,0,.078,0,.117l-.1.122c-.092-.055-.075-.163-.116-.243a.289.289,0,0,1-.041-.141.447.447,0,0,0-.1-.322.205.205,0,0,1-.018-.035.446.446,0,0,0-.144-.206c-.028-.018-.039-.06-.063-.087-.037-.043-.046-.114-.12-.122-.015-.014-.027-.035-.045-.043a.482.482,0,0,1-.224-.133.081.081,0,0,0-.061-.022.139.139,0,0,1-.117-.061A.372.372,0,0,0,1211,.24c-.016,0-.041,0-.046.01-.036.063-.085.047-.136.027q-.116-.048-.23-.1c-.048-.022-.067-.008-.086.063-.138,0-.277,0-.415,0a.14.14,0,0,0-.12.051,1.382,1.382,0,0,1-.139.124c-.052-.031-.1-.059-.142-.085-.03-.016-.06-.03-.06-.07a.308.308,0,0,0,.141-.018l-.118-.1c-.01.051-.017.083-.024.114a1.388,1.388,0,0,0-.166-.019h-4.112c-.02,0-.04,0-.06,0a.115.115,0,0,0-.1.041c-.047.049-.1.092-.145.134-.056-.033-.106-.059-.152-.09a.3.3,0,0,1-.053-.064.309.309,0,0,0,.142-.018l-.118-.1c-.01.051-.017.083-.024.114a1.389,1.389,0,0,0-.166-.019h-1.918c-.271,0-.543,0-.815,0a.254.254,0,0,0-.1.024c-.045.02-.084.051-.128.075-.1.051-.107.073-.08.18-.049-.01-.107.024-.147-.033a.117.117,0,0,0-.16-.032c-.037.015-.072.034-.108.052a.08.08,0,0,1-.1-.013.42.42,0,0,0-.049-.034A1.06,1.06,0,0,0,1200.8.7c.073.022.1.062.077.113.028.03.069.056.066.075a.188.188,0,0,1-.059.107.08.08,0,0,1-.116,0,.413.413,0,0,0-.092-.057.053.053,0,0,0-.078.016c-.034.049-.072.1-.1.146a.145.145,0,0,0-.027.148.073.073,0,0,1-.009.065.254.254,0,0,0-.055.237.155.155,0,0,1-.005.057,1.044,1.044,0,0,0-.026.154q0,2.022,0,4.045V9.984a.251.251,0,0,0,.008.108.441.441,0,0,1,.018.289.177.177,0,0,0,.012.123.256.256,0,0,1,.043.158.667.667,0,0,0,.116.389.145.145,0,0,1,.034.06.125.125,0,0,0,.073.088.221.221,0,0,1,.12.149c0,.011.016.019.024.029l.092-.035c-.005.1.086.1.13.146l-.009.083c.078.025.14.1.227.05a.163.163,0,0,1,.023.013c.067.065.137.114.235.055.015-.009.047,0,.069.014a.172.172,0,0,1,.042.035c.059-.013.122-.047.159.016s.09.065.152.065h6.038c.285,0,.571,0,.857,0s.575.006.862,0,.584,0,.877,0a.438.438,0,0,0,.228-.051.317.317,0,0,1,.183-.048.233.233,0,0,0,.046-.012.331.331,0,0,0,0-.053c-.014-.076,0-.09.067-.114s.163-.014.216-.09c.006-.008.034-.008.047,0,.055.027.087,0,.115-.043.01-.016.029-.037.042-.037.055,0,.077-.041.113-.067a.563.563,0,0,0,.156-.212c.04-.075.124-.13.119-.23,0-.075,0-.149,0-.223.107-.024.105-.024.109-.13a.644.644,0,0,1,.02-.146.078.078,0,0,1,.05-.049.077.077,0,0,1,.057.039c.016.031.026.061.069.055-.006.073-.013.146-.02.219-.071.03-.079.1-.1.161-.03.107-.043.218-.066.327a.071.071,0,0,1-.033.045.355.355,0,0,0-.165.214c-.01.024-.021.055-.041.064a2.867,2.867,0,0,0-.324.241.69.69,0,0,1-.4.163.067.067,0,0,0-.078.059c0,.023-.012.045-.017.067a.008.008,0,0,1-.01.006l-.03-.016-.026-.033-.034.034-.1,0-.043.039h-9.01c-.008-.049-.049-.035-.08-.04,0-.035-.027-.04-.057-.04h-.18c-.024-.022-.048-.062-.081-.073a.766.766,0,0,0-.175-.022c-.009,0-.02.015-.029.024l-.078-.042c-.01-.027-.013-.063-.032-.078a.356.356,0,0,0-.244-.108l-.04-.02v-.016c.022-.1.02-.1-.082-.1h-.019l-.111-.141c.024,0,.033-.017.022-.042-.056-.138-.11-.276-.167-.413a.484.484,0,0,1-.042-.192c0-.065-.011-.131-.016-.2-.007-.082-.017-.164-.018-.246,0-.062.016-.124.016-.187q0-4.13,0-8.259c0-.132.012-.264.018-.4a.175.175,0,0,0,0-.059.341.341,0,0,1,.037-.228,2.549,2.549,0,0,1,.188-.37.6.6,0,0,1,.1-.132,2.879,2.879,0,0,1,.242-.22c.077-.06.165-.108.247-.161.027.016.055.033.083.049a.073.073,0,0,0,.1-.028.086.086,0,0,0-.025-.121V.084Zm8.543.181c.018-.019.037-.031.039-.045s-.021-.024-.033-.036a.148.148,0,0,0-.033.041C1209.825.234,1209.842.249,1209.854.267Zm-4.732-.05c-.019-.014-.038-.032-.041-.03a.231.231,0,0,0-.039.045c.011.008.026.024.034.022s.027-.021.046-.037Z" transform="translate(-1152.449 -0.01)"/><path class="c" d="M1499.19,39.942v8.77h-.019c0-.014,0-.028,0-.041,0-.043,0-.086,0-.13V40.07c0-.043,0-.086,0-.13l.018,0Z" transform="translate(-1439.405 -38.357)"/><path class="d" d="M1498.672,260h.019v.279h-.023l-.018-.019c.006-.073.013-.146.02-.219C1498.67,260.027,1498.671,260.014,1498.672,260Z" transform="translate(-1438.905 -249.645)"/><path class="e" d="M1230.339,0a.15.15,0,0,1-.159.039V0Z" transform="translate(-1181.138 -0.01)"/><path class="d" d="M1230.752,300c.031,0,.071-.01.08.04h-.2l-.023-.037.142,0Z" transform="translate(-1181.551 -288.05)"/><path class="f" d="M1460.83.021l-.076.022c-.046.013-.069-.008-.074-.053h.16l-.01.03Z" transform="translate(-1402.449)"/><path class="d" d="M1463.38,299.936l-.01.027h-.179c0-.013,0-.026,0-.039l.1,0h.06Z" transform="translate(-1404.859 -287.973)"/><path class="f" d="M1235.3,0c0,.046-.031.06-.074.06s-.047-.028-.046-.06Z" transform="translate(-1185.937 -0.01)"/><path class="d" d="M1498.73,35.689l-.018,0-.017-.02c0-.039,0-.078,0-.117l.018-.039h.021v.179Z" transform="translate(-1438.944 -34.104)"/><path class="e" d="M1464.324.03l.01-.03h.06l.008.019.012-.019h.1l-.039.038h-.1l-.055-.006Z" transform="translate(-1405.944 -0.01)"/><path class="e" d="M1229.208,300.07l.023.037h-.08c0-.011,0-.023,0-.034l.059,0Z" transform="translate(-1180.149 -288.117)"/><path class="f" d="M1462.233,300.03c0,.013,0,.026,0,.039h-.04Z" transform="translate(-1403.899 -288.079)"/><path class="f" d="M1466.2,0l-.011.019L1466.18,0Z" transform="translate(-1407.73 -0.01)"/><path class="g" d="M1198.074,12.7V3.818a1.983,1.983,0,0,1,.033-.5,1.492,1.492,0,0,1,.18-.456.182.182,0,0,0,.014-.037c.021-.029.045-.057.064-.087a1.155,1.155,0,0,1,.292-.325,1.355,1.355,0,0,1,.517-.269v.054c-.034.01-.068.019-.1.031s-.059.029-.059.068c-.083.053-.17.1-.247.161a2.861,2.861,0,0,0-.242.22.6.6,0,0,0-.1.132,2.482,2.482,0,0,0-.189.37.339.339,0,0,0-.037.228.172.172,0,0,1,0,.059c-.006.132-.018.264-.018.4q0,4.13,0,8.259c0,.062-.016.125-.016.187,0,.082.011.164.018.246.006.066.017.131.016.2a.488.488,0,0,0,.042.192c.057.137.111.275.167.413.01.025,0,.037-.022.042a1.373,1.373,0,0,1-.263-.537l-.045-.161Z" transform="translate(-1150.31 -2.064)"/><path class="b" d="M1214,14.45c0,.013,0,.026,0,.039-.043.006-.053-.024-.069-.055a.077.077,0,0,0-.057-.039.076.076,0,0,0-.05.049.644.644,0,0,0-.02.146c0,.105,0,.105-.109.13,0,.074,0,.149,0,.223,0,.1-.079.154-.119.23a.57.57,0,0,1-.156.212c-.036.026-.058.07-.113.067-.014,0-.032.022-.042.037-.028.044-.059.071-.115.043-.013-.006-.041-.006-.047,0-.053.077-.143.063-.216.09s-.08.039-.067.114a.333.333,0,0,1,0,.053.23.23,0,0,1-.046.012.317.317,0,0,0-.183.048.442.442,0,0,1-.228.051c-.292.006-.584,0-.877,0s-.575,0-.862,0-.571,0-.857,0h-5.171c-.289,0-.578,0-.867,0-.061,0-.114,0-.152-.065s-.1-.03-.159-.016a.185.185,0,0,0-.042-.035c-.022-.01-.054-.023-.069-.014-.1.059-.168.01-.235-.055a.117.117,0,0,0-.023-.013c-.087.052-.148-.025-.227-.05l.009-.083c-.043-.046-.135-.047-.13-.146l-.092.035c-.008-.01-.022-.018-.024-.029a.22.22,0,0,0-.12-.149.123.123,0,0,1-.073-.088.154.154,0,0,0-.034-.06.667.667,0,0,1-.116-.389.257.257,0,0,0-.043-.158.181.181,0,0,1-.012-.123.438.438,0,0,0-.018-.289.246.246,0,0,1-.008-.108V9.885c0-1.395,0-2.7,0-4.045a.943.943,0,0,1,.026-.154.167.167,0,0,0,.005-.057.253.253,0,0,1,.055-.237.074.074,0,0,0,.009-.065.144.144,0,0,1,.027-.148c.031-.051.069-.1.1-.146a.053.053,0,0,1,.078-.016.411.411,0,0,1,.093.057.08.08,0,0,0,.116,0,.188.188,0,0,0,.059-.107c0-.018-.038-.045-.066-.075.022-.051,0-.091-.077-.113a1.05,1.05,0,0,1,.265-.238.377.377,0,0,1,.049.034.081.081,0,0,0,.1.013c.036-.018.071-.037.108-.052a.118.118,0,0,1,.159.032c.04.057.1.023.147.033l.03,0c.111.012.222.029.333.035.062,0,.124-.016.187-.016.82,0,1.64,0,2.46,0,.132,0,.264-.012.4-.018a.343.343,0,0,1,.049,0,1.334,1.334,0,0,0,.137.014h4.441c.091,0,.181-.013.274-.006.214.016.431.006.647,0,.045,0,.1-.01.106-.055s-.026-.07-.042-.1a.042.042,0,0,0-.021-.02c-.062-.019-.088-.076-.127-.119.019-.071.038-.084.086-.063.077.034.153.067.23.1.05.021.1.035.136-.027.005-.009.03-.007.046-.01a.452.452,0,0,0-.016.354c.012.037.046.092.075.094a.22.22,0,0,0,.165-.037.141.141,0,0,1,.166-.041c.066.018.09,0,.109-.073.073.008.083.079.12.122.023.028.035.07.063.087a.444.444,0,0,1,.144.206.205.205,0,0,0,.018.035.449.449,0,0,1,.1.322.29.29,0,0,0,.041.141c.041.08.024.188.116.243q0,1.419,0,2.838c0,.082.013.164.018.246a.691.691,0,0,1,0,.1c0,.062-.016.124-.016.187q0,2.121,0,4.242c0,.085.012.171.018.256a.321.321,0,0,1,0,.089,2.313,2.313,0,0,0-.016.5.177.177,0,0,0,.117.177c0,.014,0,.028,0,.041Zm-9.33-8.513c-.012-.013-.024-.036-.037-.037-.089,0-.178,0-.267,0a.053.053,0,0,0-.054.059c0,.125,0,.25,0,.376,0,.037.017.064.068.054.006-.026.009-.055.018-.082.014-.045.039-.076.092-.07a.09.09,0,0,0,.01.017c.045.053.067.1.006.163a.139.139,0,0,0-.027.14.356.356,0,0,1,.011.108c0,.256,0,.511,0,.767V8.579c0,.1,0,.1-.1.092-.044,0-.072.01-.075.057a.269.269,0,0,0,0,.069.069.069,0,0,0,.123.04c.012-.01.025-.018.051-.036a.328.328,0,0,1,.021.08c0,.092-.011.184-.017.277,0,.033.01.073,0,.1a.26.26,0,0,0,.021.245c.031.073.064.144.1.214.116.017.229.032.342.051a.209.209,0,0,1,.082.031c.057.039.053.088-.008.121l-.043.024c.02.072.1.1.092.179s-.009.128-.014.2l.057-.008a1.109,1.109,0,0,1,.184-.014c.131.01.13.012.162-.1,0,0,0,0,0,0l.2-.012c.09.119.021.271.032.432a.555.555,0,0,1,.372-.036q.035-.1.116-.08v1.252c0,.146,0,.292,0,.439s-.006.3-.005.444a.659.659,0,0,0,.083.312,1.451,1.451,0,0,0,.153.206c.009.011.028.014.043.021.035.017.072.032.106.051a.3.3,0,0,0,.136.054.819.819,0,0,1,.142.031c-.008.019-.01.03-.017.035s-.059.018-.032.054c0,.006.037-.009.057-.013a.153.153,0,0,1,.027,0,.178.178,0,0,1-.063.206.239.239,0,0,0,.217.081c.157-.019.152-.023.143-.148.072-.033.12.006.163.057s.086.086.161.057a.139.139,0,0,1,.1.021.609.609,0,0,1,.094.08l-.008.019c-.041.083-.03.105.057.117a.172.172,0,0,1,.058.012.159.159,0,0,0,.219-.03c.025.016.044.029.064.04a.718.718,0,0,0,.317.147.15.15,0,0,1,.115.223c-.028.063-.016.077.061.079a.647.647,0,0,0,.074-.128.083.083,0,0,1,.106-.063c.062.008.123.024.185.03a.1.1,0,0,0,.068-.022c.091-.078.178-.162.27-.239.055-.046.064-.07.024-.13a.237.237,0,0,1-.036-.205.663.663,0,0,0,.035-.24q0-1.1,0-2.2a1.651,1.651,0,0,0-.028-.264.571.571,0,0,1,0-.333l-.081-.094a1.184,1.184,0,0,0-.352-.228.037.037,0,0,0-.02,0,.393.393,0,0,1-.211-.078.263.263,0,0,0-.1-.04.317.317,0,0,1-.179-.077.187.187,0,0,0-.087-.043.4.4,0,0,1-.2-.087.093.093,0,0,0-.1-.024c-.018.007-.048-.01-.069-.022a.678.678,0,0,0-.273-.133.075.075,0,0,1-.065-.077c-.007-.1-.011-.2-.021-.306-.017-.181.013-.361.006-.543-.017-.431-.008-.863,0-1.3,0-.079.023-.155-.036-.224-.01-.012,0-.038-.007-.058a.323.323,0,0,0-.135-.264,1.047,1.047,0,0,0-.281-.116.2.2,0,0,1-.182-.215V4.8a.418.418,0,0,0,0-.089c0-.016-.024-.028-.036-.043l-.02.009v.107q0,.692,0,1.385c0,.049-.011.1-.016.147-.009.1-.052.2.011.3.01.015-.006.047-.012.081a1.136,1.136,0,0,1-.171-.047.342.342,0,0,0-.186-.056c-.024,0-.051-.023-.076-.039l-.236-.154s-.006,0-.015,0l-.051.082c-.025-.023-.059-.039-.062-.059-.012-.084-.079-.088-.138-.106-.043-.014-.088-.027-.13-.044-.09-.037-.179-.078-.27-.115a.452.452,0,0,0-.12-.039.173.173,0,0,1-.133-.073.173.173,0,0,0-.212-.043.807.807,0,0,1-.184.03c-.013,0-.035-.02-.042-.035a.094.094,0,0,0-.112-.061Zm5.257,4.723a.2.2,0,0,1,.067.017c.1.074.239.091.338.181a.415.415,0,0,0,.193.07,1.394,1.394,0,0,1,.264.115c-.078.089-.009.152.043.221a.216.216,0,0,0-.112.188c.03.037.063.027.1.013a.321.321,0,0,1,.131-.042.384.384,0,0,0,.2-.067c.039-.018.043-.046.025-.082l-.048-.093c.039-.033.069-.012.1-.006s.084.008.1-.049a.287.287,0,0,1,.052-.071c.039-.053.1-.1.111-.161a.4.4,0,0,0-.021-.21.391.391,0,0,1-.024-.134c0-.445,0-.89,0-1.335,0-.078.037-.156,0-.234a.024.024,0,0,1,0-.019.392.392,0,0,0,.018-.288c-.008-.059-.034-.083-.088-.085a.138.138,0,0,1-.113-.068.171.171,0,0,0-.1-.069.219.219,0,0,1-.194-.107c-.057.055-.1.033-.162,0-.115-.061-.238-.108-.358-.161a.436.436,0,0,0-.116-.053.237.237,0,0,1-.134-.053.44.44,0,0,0-.124-.063,1.443,1.443,0,0,0-.143-.038.154.154,0,0,1-.157.005.175.175,0,0,0-.162.011.388.388,0,0,0-.2.3,2.608,2.608,0,0,0-.023.34.306.306,0,0,0,0,.069,1.337,1.337,0,0,1,0,.444,1.61,1.61,0,0,0-.022.276c0,.1.032.2.025.311a1.95,1.95,0,0,0,.038.355c-.049.039-.051.042-.039.1a.311.311,0,0,1,.013.078.131.131,0,0,0,.051.113.21.21,0,0,1,.045.052.209.209,0,0,0,.161.1.2.2,0,0,1,.163.15c.01.031.014.065.065.069l.029-.1Zm-3.073,4.964c-.069.065-.067.122,0,.176Zm1.809-1.3c-.011.012-.022.022-.02.025a.122.122,0,0,0,.026.031s.02-.012.018-.015a.279.279,0,0,0-.024-.041Zm-2.006-.862c-.005,0-.012-.008-.016-.006s-.005.01-.008.016.012.008.016.006S1206.65,13.473,1206.652,13.468Zm.019-.12-.017-.007c0,.006-.008.012-.006.016s.01.005.016.008l.007-.017Z" transform="translate(-1154.229 -4.094)"/><path class="h" d="M1242.229,5.961c.039.043.065.1.127.119a.041.041,0,0,1,.021.02c.016.035.048.073.042.1s-.061.055-.106.055c-.216,0-.432.011-.647,0-.094-.007-.183.006-.274.006h-4.441a1.328,1.328,0,0,1-.137-.014.345.345,0,0,0-.049,0c-.132.006-.264.018-.4.018-.82,0-1.64,0-2.46,0-.062,0-.125.019-.187.016-.112-.006-.222-.023-.333-.035l-.03,0c-.027-.107-.017-.129.08-.18.043-.023.083-.054.128-.075a.261.261,0,0,1,.1-.024c.271,0,.543,0,.815,0h1.918a1.388,1.388,0,0,1,.166.019h0a.286.286,0,0,0,.053.064c.045.032.1.057.152.09.046-.042.1-.086.145-.134a.115.115,0,0,1,.1-.041c.02,0,.04,0,.06,0h4.112a1.388,1.388,0,0,1,.166.019h0c0,.041.03.054.06.07.046.026.09.053.142.085a1.292,1.292,0,0,0,.139-.124.14.14,0,0,1,.12-.051c.138,0,.277,0,.415,0Z" transform="translate(-1184.177 -5.731)"/><path class="f" d="M1496.221,48.193a.178.178,0,0,1-.117-.177,2.321,2.321,0,0,1,.016-.5.331.331,0,0,0,0-.089c-.006-.085-.018-.171-.018-.256q0-2.121,0-4.242c0-.062.012-.124.016-.187a.77.77,0,0,0,0-.1c-.005-.082-.018-.164-.018-.246q0-1.419,0-2.838l.1-.122.017.02c0,.043,0,.086,0,.13v8.474c0,.043,0,.086,0,.13Z" transform="translate(-1436.455 -37.877)"/><path class="f" d="M1469.4,266.5l.018.019a.919.919,0,0,1-.095.383,1.543,1.543,0,0,1-1.041.921c-.031.009-.065.012-.1.018.006-.022.013-.044.017-.067a.067.067,0,0,1,.078-.059.691.691,0,0,0,.4-.163,2.818,2.818,0,0,1,.324-.241c.02-.01.031-.041.041-.064a.351.351,0,0,1,.165-.214.07.07,0,0,0,.033-.045c.023-.109.036-.22.066-.327C1469.325,266.6,1469.334,266.53,1469.4,266.5Z" transform="translate(-1409.659 -255.885)"/><path class="i" d="M1468.11,6.3c-.02.071-.043.09-.109.073a.141.141,0,0,0-.166.041.22.22,0,0,1-.165.037c-.028,0-.062-.057-.074-.094a.455.455,0,0,1,.016-.354.364.364,0,0,1,.052.04.139.139,0,0,0,.117.061.08.08,0,0,1,.061.022.484.484,0,0,0,.224.133C1468.083,6.264,1468.095,6.285,1468.11,6.3Z" transform="translate(-1409.061 -5.77)"/><path class="f" d="M1474.215,3.778l-.018.039c-.047,0-.057-.033-.061-.074a1.23,1.23,0,0,0-.125-.459c-.03-.059-.054-.12-.082-.18a.192.192,0,0,0-.03-.051c-.057-.059-.112-.12-.173-.173a1.756,1.756,0,0,0-.465-.329c-.04-.016-.078-.039-.08-.091a1.411,1.411,0,0,1,.571.35,1.5,1.5,0,0,1,.373.556,1.109,1.109,0,0,1,.091.412Z" transform="translate(-1414.451 -2.372)"/><path class="g" d="M1221.479,296.748l-.059,0a.982.982,0,0,1-.32-.118c.01-.008.02-.024.029-.024a.768.768,0,0,1,.175.022c.033.011.057.05.081.073h.18c.029,0,.053.005.057.04l-.142,0Z" transform="translate(-1172.42 -284.795)"/><path class="h" d="M1221.68,3.6c0-.039.027-.057.059-.068s.067-.021.1-.031a.086.086,0,0,1,.025.121.073.073,0,0,1-.1.028C1221.734,3.633,1221.708,3.616,1221.68,3.6Z" transform="translate(-1172.977 -3.37)"/><path class="g" d="M1212.467,291.672l-.277-.185a.356.356,0,0,1,.244.108c.019.015.022.051.032.078Z" transform="translate(-1163.865 -279.876)"/><path class="b" d="M1434.18,3.744c.007-.032.013-.064.024-.114l.118.1a.309.309,0,0,1-.141.018Z" transform="translate(-1377.005 -3.495)"/><path class="b" d="M1314.18,3.744c.007-.032.013-.064.024-.114l.118.1a.31.31,0,0,1-.142.018Z" transform="translate(-1261.789 -3.495)"/><path class="g" d="M1208.721,288.11l-.1-.1h.019C1208.741,288.01,1208.743,288.012,1208.721,288.11Z" transform="translate(-1160.438 -276.535)"/><path class="b" d="M1439.321,4.751c-.013-.018-.029-.032-.027-.04s.021-.027.033-.041c.012.012.034.025.033.036S1439.339,4.732,1439.321,4.751Z" transform="translate(-1381.916 -4.493)"/><path class="b" d="M1319.35,4.715c-.019.016-.031.032-.046.037s-.023-.014-.034-.022a.28.28,0,0,1,.039-.045s.022.016.041.03Z" transform="translate(-1266.676 -4.508)"/><path class="f" d="M1465.74,299.113h-.06l.034-.034.026.033Z" transform="translate(-1407.25 -287.167)"/><path class="f" d="M1464.31.81l.055.006-.032.038L1464.31.81Z" transform="translate(-1405.934 -0.787)"/><path class="b" d="M8.169,67.684c-.023.1-.046.136-.136.114.026-.1-.079-.087-.117-.134.047-.087.152-.125.172-.222-.026-.058-.072-.058-.12-.058H7.1c-.018-.086-.029-.1-.106-.1-.04,0-.08,0-.12,0a.18.18,0,0,1-.172-.17.147.147,0,0,0-.057-.12c-.042-.035-.094-.079-.075-.14a.133.133,0,0,0-.075-.172.248.248,0,0,1-.066-.06.14.14,0,0,1-.023-.061.391.391,0,0,0-.013-.1c-.043-.084-.094-.164-.146-.253l.031-.06c-.026-.034-.065-.063-.071-.1-.022-.12-.129-.205-.13-.332a.031.031,0,0,0-.018-.021c-.037-.013-.036-.042-.038-.073,0-.016,0-.038-.016-.044-.045-.028-.044-.07-.044-.114a.068.068,0,0,0-.014-.045.34.34,0,0,1-.077-.217c.1,0,.093-.083.122-.138l.085-.026c0-.019,0-.032,0-.045,0-.043,0-.087,0-.13,0-.092-.034-.115-.125-.1a.21.21,0,0,1-.163-.012c-.033-.021-.067-.039-.106-.061,0-.02.006-.045.01-.073a.289.289,0,0,1-.04-.029,1.154,1.154,0,0,1-.148-.158c-.053-.081-.057-.189-.132-.262a.072.072,0,0,1-.011-.047.258.258,0,0,0-.12-.227c.008-.044.041-.093-.024-.121-.11-.048-.11-.151-.124-.248a.148.148,0,0,0-.008-.026l-.071-.036c-.019-.1-.039-.183-.052-.271a.257.257,0,0,0-.1-.185.117.117,0,0,1-.058-.095,1.11,1.11,0,0,0-.042-.189c0-.017-.028-.027-.039-.043-.032-.052-.087-.09-.078-.165a.211.211,0,0,0-.113-.213c.025-.076.025-.137-.065-.17-.025-.009-.042-.049-.056-.078-.021-.044-.036-.091-.056-.144.006-.061.125-.116.025-.2-.032-.01-.079.035-.1-.018-.015-.033-.012-.065.041-.09a.58.58,0,0,1,.092.067c.027.028.057.045.086.023a.139.139,0,0,0,.049-.079c.01-.045-.024-.071-.06-.093-.052-.033-.1-.07-.066-.146a.074.074,0,0,0-.055-.1c-.093-.028-.177-.092-.283-.073-.008,0-.017-.008-.031-.015,0-.035.009-.069.013-.1-.026-.017-.06-.027-.072-.049a.144.144,0,0,0-.086-.075.1.1,0,0,1-.053-.055.183.183,0,0,0-.1-.106.164.164,0,0,1-.085-.147c0-.061.005-.069.079-.085a.241.241,0,0,0,.088.238.051.051,0,0,1,.019.022c.024.1.1.1.179.1.29,0,.58,0,.871,0l.179-.08c0,.031-.029.059,0,.093.071.081.047.207.133.283a.025.025,0,0,1,0,.019.162.162,0,0,0,.053.133.119.119,0,0,1,.026.063.317.317,0,0,0,.1.2.145.145,0,0,1,.038.086.829.829,0,0,0,.106.315.69.69,0,0,1,.072.159.247.247,0,0,0,.068.148.352.352,0,0,1,.055.1.686.686,0,0,1,.021.076,1.887,1.887,0,0,1,.123.315c.012.1.106.173.109.28,0,.008.014.014.018.023a.65.65,0,0,1,.029.071,1.165,1.165,0,0,0,.035.113c.054.119.111.236.166.355.024.053.043.108.069.161a3.69,3.69,0,0,1,.165.385.617.617,0,0,0,.1.2.455.455,0,0,1,.049.146.182.182,0,0,0,.024.064,1.248,1.248,0,0,1,.134.294c.066.132.1.279.175.409a.442.442,0,0,1,.025.075c.016.043.03.087.05.128.035.073.075.144.108.218s.07.179.112.264a.175.175,0,0,0,.239.089c.011.067.044.13,0,.2a.122.122,0,0,0-.007.077.077.077,0,0,0,.031.046.273.273,0,0,0,.176-.038.1.1,0,0,0,.018-.1.289.289,0,0,1,0-.09l.08.007c.026.044-.036.088.022.13a.27.27,0,0,0,.039-.193c-.012-.083-.077-.1-.146-.056-.016.011-.032.02-.048.03-.036-.055-.04-.057-.026-.091a.732.732,0,0,1,.082-.179.551.551,0,0,0,.11-.282.079.079,0,0,1,.024-.051.16.16,0,0,0,.061-.12c.006-.035,0-.081.025-.1a.459.459,0,0,0,.109-.211,1.162,1.162,0,0,1,.078-.179c.009-.021.012-.044.023-.064.058-.115.12-.228.175-.345a.441.441,0,0,0,.041-.152c0-.061,0-.118.067-.152.017-.009.024-.039.033-.06.029-.067.057-.134.083-.2.014-.037.025-.075.038-.112a.4.4,0,0,1,.034-.09,1.617,1.617,0,0,0,.222-.5.285.285,0,0,1,.02-.056c.042-.093.086-.185.128-.278q.08-.176.157-.354c.078-.177.155-.355.216-.54a.319.319,0,0,1,.086-.174c.009-.007.01-.024.015-.036.043-.12.084-.241.128-.361.028-.074.062-.145.09-.219a.529.529,0,0,1,.187-.292s0-.012.006-.018H9.846l-.019-.194c0-.061,0-.122.06-.159.033.035.015.072.007.111a.207.207,0,0,0,.054.218.239.239,0,0,0,.166.049c.218,0,.437,0,.655,0a.359.359,0,0,0,.3-.077s.013,0,.019,0a.3.3,0,0,1-.041.088.423.423,0,0,0-.1.179c-.044.151-.156.272-.189.429a.434.434,0,0,1-.072.118c-.01.017-.03.033-.03.05a.7.7,0,0,1-.1.3c-.09.19-.173.384-.252.58-.086.214-.213.41-.287.63-.04.118-.092.232-.14.347a1.573,1.573,0,0,1-.137.294,1.341,1.341,0,0,0-.14.326c-.008.021-.015.043-.024.063-.018.042-.039.083-.057.124s-.021.055-.032.083a1.908,1.908,0,0,0-.181.378,1.373,1.373,0,0,1-.107.264c-.046.106-.092.212-.139.319-.055.124-.111.247-.165.371-.04.093-.079.187-.118.28a1.59,1.59,0,0,0-.186.4.11.11,0,0,1-.031.062.34.34,0,0,0-.073.169.987.987,0,0,1-.046.13c-.06.136-.114.276-.186.4s-.066.248-.125.364c-.02.04,0,.079.049.087Z" transform="translate(-3.521 -58.146)"/><path class="b" d="M1.283,58.984c-.074.016-.083.024-.079.085a.163.163,0,0,0,.085.147.181.181,0,0,1,.1.106.1.1,0,0,0,.053.055.145.145,0,0,1,.086.075c.012.022.045.031.072.049,0,.033-.009.068-.013.1.014.007.023.016.031.015.105-.019.189.045.283.073a.074.074,0,0,1,.055.1c-.03.076.014.112.066.146.035.023.07.048.06.093a.142.142,0,0,1-.049.079c-.03.021-.059,0-.086-.023a.58.58,0,0,0-.092-.067c-.053.025-.057.056-.041.09.024.053.071.009.1.018.1.086-.019.14-.025.2.02.053.035.1.056.144s.031.069.056.078c.09.033.09.094.065.17a.212.212,0,0,1,.113.213c-.009.075.046.113.078.165.01.016.034.027.039.043a1.118,1.118,0,0,1,.042.189.117.117,0,0,0,.058.095.257.257,0,0,1,.1.185c.013.088.033.174.052.271l.071.036a.194.194,0,0,1,.008.026c.014.1.014.2.124.248.064.028.031.077.024.121a.258.258,0,0,1,.12.227.069.069,0,0,0,.011.047c.075.073.079.18.132.262a1.154,1.154,0,0,0,.148.158.26.26,0,0,0,.04.029c0,.028-.007.053-.01.073.039.022.073.04.106.061a.21.21,0,0,0,.163.012c.091-.018.122.006.125.1,0,.043,0,.087,0,.13,0,.013,0,.026,0,.045l-.085.026c-.029.055-.024.142-.122.138a.343.343,0,0,0,.077.217.072.072,0,0,1,.014.045c0,.044,0,.086.044.114.01.007.014.029.016.044,0,.031,0,.06.038.073a.03.03,0,0,1,.018.021c0,.127.108.212.13.332.006.034.045.063.071.1l-.031.06c.052.089.1.169.146.253a.391.391,0,0,1,.013.1.144.144,0,0,0,.023.061.254.254,0,0,0,.066.06.132.132,0,0,1,.075.172c-.019.06.033.1.075.14a.148.148,0,0,1,.057.12.179.179,0,0,0,.172.17c.04,0,.08,0,.12,0,.077,0,.089.014.106.1-.093,0-.186,0-.279,0-.071,0-.075.016-.07.083a.213.213,0,0,0,.108.193l-.038.138q-.085,0-.12-.1c.033-.086.026-.1-.062-.139l-.059-.119L4.1,65.839c0-.013,0-.026,0-.04s.02-.024.017-.031c-.026-.073-.052-.146-.084-.216-.007-.015-.037-.02-.056-.029l-.017-.041a.18.18,0,0,0-.1-.22l-.069-.156c.038-.051.034-.061-.034-.082l-.079-.18c.063-.071-.014-.121-.03-.178-.012-.042-.024-.1-.092-.1l-.045-.1c.009-.022.03-.049.024-.065a1.047,1.047,0,0,0-.081-.166c-.009-.016-.037-.021-.056-.03l-.018-.041c.035-.047,0-.065-.036-.08L3.213,63.8a.794.794,0,0,0,0-.087.122.122,0,0,0-.1-.122l-.05-.116c.041-.069.034-.085-.053-.122l-.1-.234a.1.1,0,0,0,.009-.092c-.035-.089-.121-.157-.114-.264,0-.008-.012-.016-.016-.024-.02-.045-.035-.091-.058-.134a.293.293,0,0,0-.115-.15l-.043-.1c.033-.047,0-.066-.037-.08l-.024-.059c.035-.083.011-.138-.079-.18l-.059-.119-.016-.021c0-.013,0-.027,0-.04s.024-.06.014-.081a1.83,1.83,0,0,0-.108-.2c-.007-.011-.028-.014-.042-.021l-.007-.028a.232.232,0,0,0,0-.068c-.016-.057-.02-.125-.1-.143l-.061-.14c.028,0,.045-.018.033-.045a1.22,1.22,0,0,0-.077-.155c-.011-.018-.04-.026-.061-.038l-.078-.18c.005-.024.021-.051.014-.07-.028-.076-.063-.149-.095-.224-.017-.039-.035-.078-.053-.117a.064.064,0,0,0-.068-.046l-.045-.1c.036-.055.027-.077-.051-.123l-.088-.2c.034-.034.029-.045-.027-.063l-.024-.059c.014-.056,0-.079-.055-.12l-.033-.076c.008-.006.02-.011.022-.018.02-.084-.065-.13-.077-.2,0-.016-.038-.026-.058-.039l-.1-.205-.025-.075-.02-.057.025-.064h.159v.083Z" transform="translate(-1.056 -56.562)"/><path class="f" d="M115.2,65.764a.057.057,0,0,1-.049-.087c.058-.116.059-.249.125-.364a4.427,4.427,0,0,0,.186-.4,1.007,1.007,0,0,0,.046-.13.335.335,0,0,1,.073-.169.11.11,0,0,0,.031-.062,1.6,1.6,0,0,1,.186-.4c.039-.093.077-.187.118-.28.054-.124.11-.247.165-.371.047-.106.093-.212.139-.319a1.358,1.358,0,0,0,.107-.264,1.908,1.908,0,0,1,.181-.378c.012-.027.02-.055.032-.083s.038-.083.057-.124c.009-.021.016-.042.024-.063a1.367,1.367,0,0,1,.14-.326,1.547,1.547,0,0,0,.137-.294c.049-.115.1-.229.14-.347.074-.22.2-.415.287-.63.079-.2.161-.389.252-.58a.7.7,0,0,0,.1-.3c0-.017.02-.033.03-.05a.422.422,0,0,0,.072-.118c.033-.157.145-.278.189-.429a.419.419,0,0,1,.1-.179.31.31,0,0,0,.041-.088.328.328,0,0,0,.08-.219c.05-.047.048-.055-.02-.08l-.02-.063.14-.014.068,0c-.014.039-.027.078-.043.116q-.182.427-.365.854l-.016.02c-.037.089-.072.177-.11.265q-.213.486-.427.97c-.055.126-.11.253-.164.379l-.016.021c-.049.116-.1.233-.147.348q-.371.841-.743,1.682c-.2.451-.393.9-.592,1.354-.17.387-.344.772-.516,1.158-.007.015-.016.029-.024.043Z" transform="translate(-110.549 -56.225)"/><path class="j" d="M80.963,232.393l.038-.138a.215.215,0,0,1-.108-.193c-.005-.067,0-.082.07-.083.093,0,.186,0,.279,0h.873c.048,0,.094,0,.12.058-.02.1-.126.135-.172.222.038.047.142.037.117.134-.1,0-.2.005-.3,0Z" transform="translate(-77.667 -222.739)"/><path class="k" d="M39.25,148a.3.3,0,0,1,.115.15c.022.043.038.089.058.134,0,.009.016.017.016.024-.007.107.079.175.114.264a.1.1,0,0,1-.009.092c-.01-.009-.023-.017-.028-.028q-.132-.308-.263-.617a.077.077,0,0,1,0-.02Z" transform="translate(-37.685 -142.109)"/><path class="k" d="M15.57,94.042a.064.064,0,0,1,.068.046c.017.039.035.078.053.117.033.074.067.148.095.224.007.019-.009.047-.014.07Z" transform="translate(-14.949 -90.302)"/><path class="k" d="M29.26,125.5c.014.007.035.01.042.021a1.83,1.83,0,0,1,.108.2c.009.021-.009.053-.014.081Z" transform="translate(-28.094 -120.506)"/><path class="k" d="M62.56,201.049c.069,0,.08.058.092.1s.094.107.03.178l-.122-.278Z" transform="translate(-60.066 -193.043)"/><path class="k" d="M4.58,69.03c.02.013.056.024.058.039.012.075.1.12.077.2,0,.007-.014.012-.022.018a.918.918,0,0,1-.113-.262Z" transform="translate(-4.397 -66.288)"/><path class="k" d="M58.6,192.03c.019.01.047.015.056.03a1.031,1.031,0,0,1,.081.166c.006.016-.015.043-.024.065Z" transform="translate(-56.264 -184.384)"/><path class="k" d="M73.09,225.03c.019.01.049.014.056.029.032.071.058.144.084.216,0,.008-.011.021-.017.031l-.122-.278Z" transform="translate(-70.176 -216.069)"/><path class="k" d="M22.59,110.04c.021.012.05.02.061.038a1.22,1.22,0,0,1,.077.155c.012.027-.006.042-.033.045Z" transform="translate(-21.689 -105.663)"/><path class="k" d="M70.2,218.49a.18.18,0,0,1,.1.22A.711.711,0,0,1,70.2,218.49Z" transform="translate(-67.401 -209.789)"/><path class="k" d="M51.75,176.5a.123.123,0,0,1,.1.122.7.7,0,0,1,0,.087A.6.6,0,0,1,51.75,176.5Z" transform="translate(-49.687 -169.473)"/><path class="k" d="M34.67,137.51c.09.042.114.1.079.18Z" transform="translate(-33.288 -132.038)"/><path class="k" d="M26.72,119.5c.076.018.08.086.1.143a.22.22,0,0,1,0,.068l-.094-.211Z" transform="translate(-25.655 -114.746)"/><path class="k" d="M78.14,236.52c.087.035.1.053.062.139Z" transform="translate(-75.025 -227.101)"/><path class="k" d="M49.14,170.51c.087.037.094.053.053.122C49.173,170.593,49.132,170.562,49.14,170.51Z" transform="translate(-47.18 -163.722)"/><path class="k" d="M13.15,88.51c.079.046.087.068.051.123Z" transform="translate(-12.626 -84.991)"/><path class="k" d="M8.26,77.5c.059.041.07.065.055.12Z" transform="translate(-7.931 -74.42)"/><path class="k" d="M67.62,212.53c.068.021.073.031.034.082Z" transform="translate(-64.924 -204.067)"/><path class="k" d="M57.26,189c.039.015.071.033.036.08Z" transform="translate(-54.977 -181.475)"/><path class="k" d="M.067,58.652l-.025.064-.035-.022L0,58.653l.047-.013Z" transform="translate(0 -56.312)"/><path class="k" d="M37.26,143.5c.039.014.07.033.037.08Z" transform="translate(-35.775 -137.789)"/><path class="k" d="M10.26,82c.056.018.061.03.027.063Z" transform="translate(-9.851 -78.741)"/><path class="k" d="M1.417,61.99l.025.075C1.418,62.045,1.4,62.023,1.417,61.99Z" transform="translate(-1.355 -59.528)"/><path class="k" d="M76.28,233.01l.016.021Z" transform="translate(-73.239 -223.73)"/><path class="k" d="M32.78,134.01l.016.021Z" transform="translate(-31.473 -128.677)"/><path class="l" d="M40.289,59.53l.012.037.117.259.018.041c.008.025.014.051.024.075.09.212.182.424.271.637s.166.4.249.6L41,61.2l.081.178.018.042.177.417c.072.175.142.35.216.523q.432,1.022.865,2.044a.137.137,0,0,0,.016.024.109.109,0,0,1,0,.019c-.051.01-.066-.034-.093-.06l-.06-.12c.036-.034,0-.045-.02-.06.011-.06-.034-.1-.06-.14-.02-.062-.037-.124-.06-.185-.006-.014-.026-.024-.039-.035l-.02-.06-.02-.04v-.04l-.04-.08-.06-.14-.02-.04-.02-.06-.02-.04-.08-.2a.153.153,0,0,0-.08-.12V63c0-.029,0-.058-.04-.06l.02-.04-.02-.04-.02-.04c0-.043-.008-.077-.06-.08l-.02-.1c-.01-.034-.019-.068-.031-.1s-.029-.059-.068-.059V62.4l-.04-.08-.02-.06-.04-.04V62.2c-.025-.044,0-.11-.06-.14l-.04-.1-.04-.06v-.02c0-.068,0-.131-.08-.159V61.7l-.04-.06v-.02a.3.3,0,0,0,0-.075c0-.017-.025-.03-.038-.044L41,61.4l-.04-.06-.02-.14-.04-.06-.02-.06-.04-.06c.009-.065-.034-.11-.061-.161a1.043,1.043,0,0,1-.039-.1l-.02-.04c-.01-.02-.021-.039-.029-.06s-.02-.053-.03-.08l-.02-.04-.02-.08-.04-.04-.02-.08c-.016-.048-.03-.1-.048-.143,0-.008-.021-.011-.031-.017l-.06-.14c.036-.034,0-.045-.02-.06.011-.06-.034-.1-.06-.14l-.02-.04v-.04c-.02-.05-.01-.118-.08-.14l-.06-.2-.1-.179c-.008-.049-.018-.1-.024-.146a.545.545,0,0,1,0-.072c.023.041.049.082.069.125.056.124.11.25.164.375Z" transform="translate(-38.458 -56.686)"/><path class="h" d="M34.769,58.594l.041-.014.1.018a.545.545,0,0,0,0,.072c.006.049.016.1.024.146l-.04.04-.02.1-.179.08c.006-.015.008-.035.019-.044a.211.211,0,0,0,.081-.2c-.005-.065-.013-.131-.02-.2Z" transform="translate(-33.307 -56.254)"/><path class="g" d="M233.306,65.9c0-.032,0-.063-.007-.1v-.029q0-3.412,0-6.823c0-.083-.006-.165-.009-.248,0-.038,0-.077,0-.115l.014-.013.117-.008.04.014v.043c-.047,0-.06.033-.06.075,0,.089,0,.177,0,.265q0,3.2,0,6.4a1.219,1.219,0,0,1-.019.156.247.247,0,0,0,.042.175.14.14,0,0,1,.017.073c0,.042,0,.085,0,.126l-.14,0Z" transform="translate(-223.99 -56.245)"/><path class="m" d="M310.932,65.863c-.031-.073-.061-.146-.092-.219l-.342-.781-.388-.883-.346-.79-.731-1.664-1.278-2.909a.139.139,0,0,1,0-.026l.039-.022h.139l.06.014c0,.043-.036.041-.061.054-.064.033-.066.044-.034.106a1.15,1.15,0,0,1,.051.118c.017.043.029.089.048.13.077.168.157.335.235.5q.08.17.156.342c.048.108.094.218.14.327.032.075.066.15.1.227a.477.477,0,0,1,.069.193.2.2,0,0,0,.031.083c.055.112.12.221.165.337a2.684,2.684,0,0,1,.244.635.016.016,0,0,0,0,.009c.058.077.077.176.129.254.1.155.137.343.243.5a.1.1,0,0,1,.016.036c.04.2.173.356.23.547a2.57,2.57,0,0,0,.121.269c.061.139.12.279.18.418a1.734,1.734,0,0,0,.187.382s0,.013.005.019l.272.629c.018.043.035.086.054.128.067.155.134.309.2.464.024.057.045.117.069.175a1.129,1.129,0,0,0,.073.159c.049.078.106.15.158.226a.122.122,0,0,1,.008.048l-.1.009-.044-.045Z" transform="translate(-295.481 -56.245)"/><path class="l" d="M99.162,64.108c.059-.133.118-.266.176-.4s.112-.268.168-.4c.128-.3.258-.6.386-.906q.65-1.532,1.3-3.064c.049-.116.094-.234.14-.351.03-.077.063-.152.09-.23a.079.079,0,0,1,.1-.06l.057.008v.043a.062.062,0,0,0-.07.041c-.063.14-.127.279-.189.419-.017.038-.027.079-.04.118v.02l-.04.06v.02c-.012.011-.028.02-.034.033q-.1.232-.2.466a.139.139,0,0,0,0,.039v.02c-.01.008-.026.015-.029.025a2.082,2.082,0,0,0-.15.433.1.1,0,0,0-.06.1.637.637,0,0,0-.039.073c-.016.043-.025.088-.043.13s-.045.073-.063.111q-.068.151-.13.3c-.018.045-.029.093-.043.14a.335.335,0,0,0-.08.179v.02a.178.178,0,0,0-.037.043,1.29,1.29,0,0,1-.072.19,1.426,1.426,0,0,0-.13.325c-.047.02-.039.061-.04.1a.361.361,0,0,0-.039.063,3.39,3.39,0,0,1-.144.354c-.039.073-.067.148-.1.223-.02.045-.043.089-.061.135-.052.127-.1.254-.155.382l-.04.08c-.071.156-.144.312-.211.469a1.364,1.364,0,0,0-.066.2c-.019.076-.016.077-.1.083,0-.013,0-.026,0-.039Z" transform="translate(-95.207 -56.363)"/><path class="n" d="M763.26,226.009c0-.141,0-.282,0-.423,0-.045.006-.091.008-.137.055.009.061.052.062.1s0,.1,0,.146a.39.39,0,0,0-.018.1c.009.11.025.22.038.33l-.083,0-.014-.121Z" transform="translate(-732.832 -216.472)"/><path class="o" d="M232.934,239.39v.029l-.024-.014Z" transform="translate(-223.625 -229.856)"/><path class="b" d="M1256.509,15.881a.094.094,0,0,1,.112.061c.006.016.028.037.041.035a.808.808,0,0,0,.184-.03.173.173,0,0,1,.212.043.173.173,0,0,0,.133.073.459.459,0,0,1,.12.039c.09.037.179.078.269.115.042.018.087.03.13.044.059.019.126.023.138.106,0,.02.036.036.062.059l.052-.082c.008,0,.013,0,.015,0l.236.154c.024.016.052.041.076.039a.342.342,0,0,1,.186.056,1.043,1.043,0,0,0,.171.047c.006-.034.021-.065.012-.081-.063-.1-.02-.2-.011-.3,0-.049.015-.1.016-.147q0-.692,0-1.385v-.107l.02-.009c.012.014.032.026.036.043a.41.41,0,0,1,0,.089v1.823a.2.2,0,0,0,.182.215,1.04,1.04,0,0,1,.281.116.325.325,0,0,1,.135.264c0,.02,0,.046.007.058.059.069.037.144.036.224-.006.432-.014.864,0,1.3.007.182-.024.362-.006.543.01.1.014.2.021.306a.074.074,0,0,0,.065.077.676.676,0,0,1,.274.133c.021.012.051.029.069.022a.092.092,0,0,1,.1.024.405.405,0,0,0,.2.087.191.191,0,0,1,.087.043.324.324,0,0,0,.179.077.27.27,0,0,1,.1.04.393.393,0,0,0,.211.078.041.041,0,0,1,.02,0,1.183,1.183,0,0,1,.352.228l.081.094a.574.574,0,0,0,0,.333,1.679,1.679,0,0,1,.028.264q0,1.1,0,2.2a.669.669,0,0,1-.035.24.239.239,0,0,0,.036.205c.04.06.031.083-.024.13-.092.077-.179.161-.27.239a.1.1,0,0,1-.068.022c-.062-.006-.123-.022-.185-.03a.084.084,0,0,0-.106.063.646.646,0,0,1-.074.128c-.077,0-.089-.016-.061-.079a.15.15,0,0,0-.114-.223.72.72,0,0,1-.317-.147c-.02-.011-.039-.024-.064-.04a.159.159,0,0,1-.219.03.171.171,0,0,0-.058-.012c-.087-.012-.1-.034-.057-.117l.008-.019a.572.572,0,0,0-.094-.08.139.139,0,0,0-.1-.021c-.075.03-.119-.006-.161-.057s-.09-.089-.163-.057c.009.124.014.128-.143.148a.317.317,0,0,1-.135-.02.321.321,0,0,1-.081-.061.178.178,0,0,0,.063-.206.154.154,0,0,0-.027,0c-.02,0-.052.019-.057.013-.027-.036.013-.039.032-.054s.008-.017.017-.035a.821.821,0,0,0-.142-.031.3.3,0,0,1-.136-.054c-.034-.019-.071-.034-.106-.051-.015-.007-.034-.01-.043-.021a1.406,1.406,0,0,1-.153-.206.66.66,0,0,1-.083-.312c0-.148.01-.3.005-.444s0-.292,0-.439V20.44q-.081-.016-.116.08a.555.555,0,0,0-.372.036c-.011-.161.057-.313-.032-.432l-.2.012s0,0,0,0c-.032.112-.03.11-.162.1a1.11,1.11,0,0,0-.184.014l-.057.008c.005-.071.011-.135.014-.2s-.073-.108-.093-.179l.043-.024c.061-.033.065-.081.008-.121a.206.206,0,0,0-.082-.031c-.113-.018-.226-.034-.342-.051-.031-.07-.065-.141-.1-.214a.261.261,0,0,1-.021-.245c.014-.026,0-.065,0-.1.005-.092.013-.184.017-.277a.334.334,0,0,0-.021-.08c-.026.018-.039.026-.051.036a.07.07,0,0,1-.123-.04.269.269,0,0,1,0-.069c0-.047.031-.061.075-.057.1.01.1.01.1-.092q0-.573,0-1.146,0-.384,0-.767a.349.349,0,0,0-.011-.108.139.139,0,0,1,.027-.14c.06-.063.039-.111-.006-.163a.1.1,0,0,1-.01-.017c.012-.022.023-.045.036-.066l.143-.233Zm2.569,1.3c.019-.072-.047-.088-.083-.12a.278.278,0,0,0-.236-.04l-.077-.031c-.022-.09-.061-.108-.12-.054l-.122-.053c-.028-.1-.093-.124-.157-.066l-.2-.085c0-.019,0-.048-.015-.054a1.664,1.664,0,0,0-.178-.076s-.017.022-.027.033l-.06-.024c0-.054-.025-.092-.08-.092a.232.232,0,0,1-.165-.075c-.056-.051-.089-.049-.155-.007l-.159-.065c.005-.061-.04-.076-.084-.093a.825.825,0,0,1-.115-.052c-.049-.028-.092-.065-.142-.089a.162.162,0,0,0-.237.1.062.062,0,0,0,0,.015c-.065.017-.084.078-.118.124a.08.08,0,0,0-.091.072.427.427,0,0,0-.007.1v2.56a.639.639,0,0,1,0,.1.194.194,0,0,0,.149.238l.051.03v.012c-.041.057.009.079.044.1.074.037.152.065.226.1.186.092.391.137.573.243.079.046.172.069.254.12a1.932,1.932,0,0,0,.288.128.2.2,0,0,1,.152.224q0,1.081,0,2.161a.541.541,0,0,0,.015.127.493.493,0,0,0,.368.354,1.523,1.523,0,0,1,.172.07c.048.022.1.044.145.064.07.03.142.055.211.087.132.059.258.133.394.18a4.4,4.4,0,0,1,.443.2,2.514,2.514,0,0,0,.271.123,1.177,1.177,0,0,1,.317.159.179.179,0,0,0,.294-.127l.018-.023c.039,0,.042-.027.043-.055l.021-.043a.081.081,0,0,0,.091-.073.368.368,0,0,0,.006-.089V20.829a.169.169,0,0,0,0-.059.755.755,0,0,0-.07-.14c-.012-.016-.046-.017-.07-.025l-.061-.051c-.008-.02-.01-.048-.024-.059-.046-.035-.1-.065-.146-.1a.176.176,0,0,0-.193-.01h-.032l-.04-.028c-.012-.062-.018-.065-.063-.027l-.1-.044c0-.03-.009-.056-.041-.017l-.057-.026a.166.166,0,0,0-.221-.094l-.058-.025c-.035-.1-.084-.123-.181-.077l-.4-.182-.058-.1c.02-.015.049-.025.057-.045a.33.33,0,0,0,.023-.115c0-.129,0-.258,0-.387s-.015-.25-.017-.375c0-.062.017-.124.017-.186q0-.6,0-1.193a.43.43,0,0,0-.084-.239c-.019-.028-.042-.043-.073-.015h-.012l-.012-.031Zm-1.9,2.777c.034.04.051.078.095.06a.065.065,0,0,0,.03-.054c0-.017-.027-.047-.039-.045A.31.31,0,0,0,1257.178,19.96Z" transform="translate(-1206.071 -14.037)"/><path class="b" d="M1383.782,100.172l-.029.1c-.05,0-.055-.038-.065-.069a.2.2,0,0,0-.163-.15.208.208,0,0,1-.161-.1.2.2,0,0,0-.046-.052.133.133,0,0,1-.051-.113.335.335,0,0,0-.013-.078c-.012-.058-.01-.061.039-.1a1.921,1.921,0,0,1-.038-.355c.008-.108-.022-.208-.025-.311a1.551,1.551,0,0,1,.022-.276,1.337,1.337,0,0,0,0-.444.321.321,0,0,1,0-.069,2.673,2.673,0,0,1,.023-.34.387.387,0,0,1,.2-.3.174.174,0,0,1,.162-.011.153.153,0,0,0,.157-.005,1.474,1.474,0,0,1,.143.038.441.441,0,0,1,.124.063.239.239,0,0,0,.134.053.453.453,0,0,1,.116.053c.12.053.243.1.358.161.059.031.1.053.162,0a.221.221,0,0,0,.194.107.168.168,0,0,1,.1.069.139.139,0,0,0,.113.068c.053,0,.079.027.088.085a.4.4,0,0,1-.018.288.026.026,0,0,0,0,.019c.034.079,0,.156,0,.234,0,.445,0,.89,0,1.335a.4.4,0,0,0,.024.134.4.4,0,0,1,.022.21c-.014.059-.072.108-.111.161a.3.3,0,0,0-.052.071c-.018.057-.059.058-.1.049s-.061-.027-.1.006l.048.093c.018.035.014.064-.025.082a.379.379,0,0,1-.2.067.321.321,0,0,0-.131.042c-.036.014-.069.024-.1-.013a.216.216,0,0,1,.112-.188c-.052-.07-.121-.133-.043-.221a1.407,1.407,0,0,0-.264-.115.415.415,0,0,1-.193-.07c-.1-.089-.233-.106-.338-.181a.216.216,0,0,0-.067-.017Zm-.294-2.431-.054.042.047.039.009,0c0,.046-.008.092-.008.138,0,.509,0,1.019,0,1.528,0,.036,0,.073,0,.109-.049,0-.061.033-.067.07a.154.154,0,0,0,.06.159.921.921,0,0,0,.334.169.271.271,0,0,1,.058.011c.151.073.3.149.451.222.042.02.087.033.13.049a.536.536,0,0,1,.075.027c.106.057.21.119.318.174a.811.811,0,0,0,.149.052.1.1,0,0,0,.1-.028c.046-.045.069-.109.109-.15.079-.08.041-.175.061-.26a.818.818,0,0,0-.012-.176q0-.538,0-1.075c0-.046.012-.091.014-.137,0-.089.007-.179,0-.268a.166.166,0,0,0-.043-.1,1.687,1.687,0,0,0-.181-.153.292.292,0,0,0-.09-.039.062.062,0,0,0-.082.036l-.081-.037c-.02-.069-.03-.074-.082-.035l-.057-.025c-.005-.043-.023-.056-.059-.024l-.041-.017a.056.056,0,0,0-.059-.063c-.039-.117-.061-.134-.171-.14a.407.407,0,0,1-.086-.018c-.117-.032-.2-.138-.324-.156,0,0-.005,0-.008-.006-.055-.071-.138-.068-.215-.077-.049-.006-.1-.01-.119.058,0,.011-.03.014-.038.026a.54.54,0,0,0-.036.075Z" transform="translate(-1328.088 -93.605)"/><path class="i" d="M1256.546,45.56l-.143.233c-.013.022-.024.044-.036.066-.053-.006-.079.025-.093.07-.008.027-.012.056-.018.082-.051.009-.068-.017-.068-.054,0-.125,0-.25,0-.376a.053.053,0,0,1,.054-.059c.089,0,.178,0,.267,0,.013,0,.025.024.037.037Z" transform="translate(-1206.108 -43.716)"/><path class="b" d="M1318.732,289.48v.176C1318.665,289.6,1318.664,289.545,1318.732,289.48Z" transform="translate(-1266.111 -277.949)"/><path class="b" d="M1364.837,256.98a.3.3,0,0,1,.024.041s-.017.016-.018.015a.112.112,0,0,1-.026-.031s.01-.012.02-.025Z" transform="translate(-1310.407 -246.745)"/><path class="b" d="M1314.424,235.21c0,.006,0,.014-.007.016s-.011,0-.016-.006,0-.014.008-.016S1314.418,235.207,1314.424,235.21Z" transform="translate(-1262 -225.836)"/><path class="b" d="M1314.916,232.187l-.007.017c-.006,0-.014,0-.016-.008s0-.011.006-.016l.017.007Z" transform="translate(-1262.474 -222.934)"/><path class="b" d="M43.38,64.919V64.9c.047,0,.053-.046.067-.077.022-.048.034-.1.057-.147.031-.062.048-.135.115-.175l.019.194h.014c0,.006,0,.015-.006.018a.524.524,0,0,0-.187.292c-.028.074-.063.145-.09.219-.045.12-.086.24-.128.361,0,.012-.006.029-.015.036a.315.315,0,0,0-.086.174c-.061.184-.138.362-.216.54-.052.118-.1.236-.157.354-.042.093-.085.185-.128.278a.313.313,0,0,0-.02.056,1.608,1.608,0,0,1-.222.5.42.42,0,0,0-.034.09c-.013.037-.024.076-.038.112-.027.068-.055.135-.083.2-.009.021-.016.051-.033.06-.065.035-.063.091-.067.152a.433.433,0,0,1-.041.152c-.055.116-.117.23-.175.345-.01.02-.014.043-.023.064a1.179,1.179,0,0,0-.078.179.453.453,0,0,1-.109.211c-.021.023-.019.069-.025.1a.16.16,0,0,1-.061.12.079.079,0,0,0-.024.051.551.551,0,0,1-.11.282.7.7,0,0,0-.082.179c-.014.035-.01.036.026.091.016-.01.032-.019.048-.03.069-.048.134-.027.146.056a.27.27,0,0,1-.039.193c-.058-.041,0-.086-.022-.13L41.494,70a.29.29,0,0,0,0,.09.1.1,0,0,1-.018.1.269.269,0,0,1-.176.038.077.077,0,0,1-.031-.046.122.122,0,0,1,.007-.077c.045-.069.013-.132,0-.2a.175.175,0,0,1-.239-.089c-.042-.086-.073-.177-.112-.264s-.074-.145-.108-.218c-.02-.041-.034-.085-.05-.128a.442.442,0,0,0-.025-.075c-.076-.129-.11-.276-.175-.409a1.24,1.24,0,0,0-.134-.294.182.182,0,0,1-.024-.064.437.437,0,0,0-.049-.146.617.617,0,0,1-.1-.2,3.827,3.827,0,0,0-.165-.385c-.025-.053-.044-.108-.069-.161-.055-.118-.112-.236-.166-.355-.016-.036-.022-.076-.035-.113s-.018-.048-.029-.071-.018-.016-.018-.023c0-.107-.1-.18-.109-.28a1.873,1.873,0,0,0-.123-.315.686.686,0,0,0-.021-.076.353.353,0,0,0-.055-.1.249.249,0,0,1-.068-.148.651.651,0,0,0-.072-.159.842.842,0,0,1-.106-.315.145.145,0,0,0-.038-.086.317.317,0,0,1-.1-.2.119.119,0,0,0-.026-.063.161.161,0,0,1-.053-.133.026.026,0,0,0,0-.019c-.086-.075-.062-.2-.133-.283-.03-.034,0-.062,0-.093l.02-.1c.014.014.029.028.043.043.03.034.035.093.1.1l.06.2c.02.05.01.118.08.14v.04c-.03.032-.005.036.02.04.026.044.071.08.06.14l.02.06.06.14c.014.06,0,.131.08.159l.02.08.04.04.02.08c-.03.032-.005.036.02.04.01.027.019.053.03.08s.02.04.029.06c-.03.032-.005.036.02.04a.946.946,0,0,0,.039.1c.027.051.07.1.061.161-.035.053.01.051.04.06l.02.06c0,.029,0,.058.04.06l.02.14c-.035.053.01.051.04.06l.04.1a.3.3,0,0,0,0,.075c0,.017.025.03.038.044v.02c0,.029,0,.058.04.06v.02c.016.048.03.1.048.143,0,.008.021.011.031.017v.02c0,.029,0,.058.04.06l.04.1a.132.132,0,0,0,.06.14v.02l.04.04.02.06c-.032.049,0,.067.04.08v.08a.346.346,0,0,0,.1.159l.02.1c.008.036.012.074.06.08l.02.04c-.03.032-.005.036.02.04l-.02.04c0,.029,0,.058.04.06v.04a.116.116,0,0,0,.08.12l.08.2c-.03.032-.005.036.02.04l.02.06c-.03.032-.005.036.02.04l.06.14c-.032.049,0,.067.04.08V69c-.03.032-.005.036.02.04l.02.06a.284.284,0,0,0,.1.219c.026.044.071.08.06.14-.036.034,0,.045.02.06l.06.12c0,.011-.015.025-.012.033a.2.2,0,0,0,.2.1c.063-.008.078-.061.1-.112.035-.1.071-.2.11-.3s.093-.224.137-.338c.006-.017,0-.04-.008-.061l.04-.08a.152.152,0,0,0,.095-.118,5.151,5.151,0,0,1,.215-.52c.046-.116.1-.23.147-.346.018-.043.034-.086.048-.13,0-.012,0-.028-.007-.043,0-.038-.007-.08.04-.1s.074-.041.081-.094a.277.277,0,0,1,.045-.136.705.705,0,0,0,.113-.327v-.02c.087-.033.081-.108.08-.179.018-.017.042-.03.053-.051.032-.061.06-.125.087-.189.065-.155.129-.31.191-.466.006-.014-.008-.034-.012-.052a.1.1,0,0,1,.06-.1c.041,0,.051-.028.062-.064.025-.085.059-.167.085-.252.015-.046.022-.095.032-.142v-.02c.006,0,.016,0,.019,0,.039-.058.1-.1.1-.183a.145.145,0,0,1,.031-.071A.565.565,0,0,0,43.34,65v-.02c.04,0,.04-.031.04-.06Z" transform="translate(-37.314 -61.938)"/><path class="p" d="M159.647,58.8c.06,0,.119,0,.179,0h.957c.033,0,.066,0,.1.005l.02.063.02.08a.328.328,0,0,1-.08.219c-.006,0-.016,0-.019,0a.359.359,0,0,1-.295.077c-.218,0-.437,0-.655,0a.241.241,0,0,1-.166-.049.207.207,0,0,1-.054-.218c.008-.039.027-.076-.007-.111V58.8Z" transform="translate(-153.28 -56.458)"/><path class="p" d="M6.851,58.788c.007.065.014.131.02.2a.211.211,0,0,1-.081.2c-.011.008-.013.029-.019.044-.29,0-.58,0-.871,0-.08,0-.154,0-.179-.1a.048.048,0,0,0-.019-.022.24.24,0,0,1-.088-.238v-.083c.046,0,.092-.005.138-.005h1C6.785,58.783,6.818,58.786,6.851,58.788Z" transform="translate(-5.389 -56.449)"/><path class="f" d="M152.479,59.988v.02c-.062.037-.061.1-.06.159-.066.039-.083.112-.115.175-.024.047-.036.1-.057.147-.014.031-.02.073-.067.077.013-.039.024-.08.04-.118.062-.14.126-.279.189-.419A.063.063,0,0,1,152.479,59.988Z" transform="translate(-146.113 -57.606)"/><path class="b" d="M191.2,60.58l-.02-.08C191.248,60.525,191.25,60.533,191.2,60.58Z" transform="translate(-183.558 -58.098)"/><path class="f" d="M95.9,176.5c0,.02.014.044.008.061-.044.113-.093.224-.137.338s-.075.2-.11.3c-.018.051-.032.1-.1.112a.2.2,0,0,1-.2-.1c0-.009.008-.022.012-.033.028.026.043.07.093.06l.045.02c.086-.006.083-.007.1-.083a1.364,1.364,0,0,1,.066-.2c.067-.157.14-.313.211-.469Z" transform="translate(-91.564 -169.473)"/><path class="f" d="M89.78,180.219a.284.284,0,0,1-.1-.219c.014.012.034.02.039.035C89.742,180.1,89.76,180.157,89.78,180.219Z" transform="translate(-86.105 -172.834)"/><path class="f" d="M39.82,64.679c-.061,0-.066-.063-.1-.1-.014-.015-.029-.029-.043-.043l.04-.04Z" transform="translate(-38.098 -61.938)"/><path class="f" d="M66.76,126.659c-.011-.005-.028-.008-.031-.017-.018-.047-.032-.1-.048-.143C66.757,126.528,66.763,126.591,66.76,126.659Z" transform="translate(-64.022 -121.467)"/><path class="f" d="M74.78,145.659a.346.346,0,0,1-.1-.159c.039,0,.057.027.068.059S74.769,145.626,74.78,145.659Z" transform="translate(-71.703 -139.709)"/><path class="f" d="M50.76,88.159c-.076-.029-.066-.1-.08-.159.011.005.028.008.031.017C50.729,88.064,50.744,88.112,50.76,88.159Z" transform="translate(-48.66 -84.501)"/><path class="f" d="M44.76,74.14c-.07-.022-.059-.09-.08-.14C44.75,74.022,44.739,74.09,44.76,74.14Z" transform="translate(-42.899 -71.06)"/><path class="f" d="M70.684,135.14a.132.132,0,0,1-.06-.14C70.684,135.029,70.659,135.1,70.684,135.14Z" transform="translate(-67.807 -129.628)"/><path class="f" d="M80.76,159.62a.116.116,0,0,1-.08-.12A.153.153,0,0,1,80.76,159.62Z" transform="translate(-77.464 -153.151)"/><path class="f" d="M64.68,121.12c-.013-.014-.033-.027-.038-.044a.279.279,0,0,1,0-.075c.013.014.033.027.038.044A.279.279,0,0,1,64.68,121.12Z" transform="translate(-62.062 -116.186)"/><path class="f" d="M77.74,152.08c-.048-.006-.052-.044-.06-.08C77.732,152,77.742,152.037,77.74,152.08Z" transform="translate(-74.583 -145.95)"/><path class="f" d="M87.4,174.58c-.042-.012-.072-.031-.04-.08Z" transform="translate(-83.861 -167.553)"/><path class="f" d="M73.4,141.58c-.042-.012-.072-.031-.04-.08Z" transform="translate(-70.419 -135.869)"/><path class="f" d="M93.324,189.06c-.022-.015-.056-.026-.02-.06C93.326,189.015,93.36,189.026,93.324,189.06Z" transform="translate(-89.569 -181.475)"/><path class="f" d="M59.409,109.06c-.03-.009-.075-.007-.04-.06Z" transform="translate(-56.99 -104.664)"/><path class="f" d="M62.409,117.06c-.029-.009-.075-.007-.04-.06Z" transform="translate(-59.871 -112.345)"/><path class="f" d="M79.718,157.06c-.04,0-.04-.031-.04-.06C79.719,157,79.719,157.031,79.718,157.06Z" transform="translate(-76.502 -150.751)"/><path class="f" d="M48.7,83.06,48.68,83C48.7,83.015,48.736,83.026,48.7,83.06Z" transform="translate(-46.739 -79.701)"/><path class="f" d="M65.718,124.56c-.04,0-.04-.031-.04-.06Z" transform="translate(-63.06 -119.546)"/><path class="f" d="M61.218,112.06c-.04,0-.04-.031-.04-.06Z" transform="translate(-58.739 -107.545)"/><path class="f" d="M68.718,131.06c-.04,0-.04-.031-.04-.06Z" transform="translate(-65.94 -125.787)"/><path class="f" d="M85.366,170.04c-.025,0-.05-.008-.02-.04Z" transform="translate(-81.93 -163.232)"/><path class="f" d="M84.366,167.54c-.025,0-.05-.008-.02-.04Z" transform="translate(-80.97 -160.832)"/><path class="f" d="M56.366,101.54c-.025,0-.05-.008-.02-.04Z" transform="translate(-54.086 -97.463)"/><path class="f" d="M72.22,139.04l-.04-.04Z" transform="translate(-69.302 -133.468)"/><path class="f" d="M54.366,97.04c-.025,0-.05-.008-.02-.04Z" transform="translate(-52.166 -93.143)"/><path class="f" d="M53.22,94.04,53.18,94Z" transform="translate(-51.06 -90.262)"/><path class="f" d="M46.366,78.54c-.025,0-.05-.008-.02-.04Z" transform="translate(-44.485 -75.38)"/><path class="f" d="M88.366,177.54c-.025,0-.05-.008-.02-.04Z" transform="translate(-84.81 -170.433)"/><path class="f" d="M79.366,155.04c-.025,0-.05-.008-.02-.04Z" transform="translate(-76.169 -148.83)"/><path class="b" d="M862.021,57.563l.127-.006c.018.2,0,.394.011.587l-.014.08a.287.287,0,0,1-.184,0c-.1-.017-.149,0-.175.1a.907.907,0,0,0-.023.225.214.214,0,0,0,.228.232c.077,0,.153,0,.229,0a.223.223,0,0,0,.155-.057.668.668,0,0,1,0-.3.068.068,0,0,0-.032-.076,1.376,1.376,0,0,1-.1-.1c.007-.031.014-.062.02-.092l.059-.047a.177.177,0,0,0,.057-.011c.117-.067.231-.139.349-.205s.254-.142.384-.206a.168.168,0,0,1,.231.071.245.245,0,0,0,.034.048.077.077,0,0,0,.116-.029l-.013-.083a.794.794,0,0,1,.092-.084.446.446,0,0,1,.263-.1c.139,0,.136.087.114.174,0,.012-.016.022-.021.033a.156.156,0,0,0,.139.211c.093,0,.185,0,.278,0a.159.159,0,0,0,.132-.055c.012-.015.039-.017.06-.025l-.128.131c.1.032.171-.025.252-.053a.076.076,0,0,0,.051-.1c-.008-.033-.01-.068-.017-.12l.189.025c.09.012.091.012.091.1s0,.186,0,.279c0,.041.014.074.06.075.128,0,.257,0,.382,0,.033-.064-.014-.153.068-.17.123.02.066.126.109.193l.115-.109.039.081c.1.017.1.018.125.112.011.044.019.1.071.11.125.016.182.107.245.2a1.3,1.3,0,0,0,.165.2.177.177,0,0,0,.226.045.129.129,0,0,1,.067-.015.116.116,0,0,0,.1-.051c.032-.042.061-.086.091-.13a.859.859,0,0,1,.111-.163,2.684,2.684,0,0,1,.252-.191.072.072,0,0,1,.055-.016.064.064,0,0,0,.1-.039.1.1,0,0,0-.025-.132c-.021-.016-.027-.05-.04-.076a1.186,1.186,0,0,1,.333-.226c.079-.035.161-.061.236-.1a.411.411,0,0,1,.188-.051.679.679,0,0,1,.02.082c.008.065.035.09.111.1.133.011.192-.011.208-.078,0-.006,0-.013,0-.02.013-.067.026-.134.039-.2l.1-.009a.729.729,0,0,1,.158-.008c.085.012.149.05.148.108s.041.13,0,.2,0,.1.072.1.14-.006.209,0a.23.23,0,0,0,.215-.095.112.112,0,0,0,.023-.128c-.015-.037-.031-.073-.043-.111s.006-.069.054-.067h.04c.028.056.055.112.085.167a.094.094,0,0,0,.047.031.526.526,0,0,0,.12.039.67.67,0,0,0,.128-.008l.031.083.24-.014c0,.11.072.139.148.16a.224.224,0,0,1,.12.081c.065.078.139.148.21.223.071-.042.14-.068.2-.013a2.515,2.515,0,0,1,.184.191c.042.046.079.1.118.146.062.077.125.153.187.23a.23.23,0,0,1,.014.036c.032.064.063.129.1.192a.415.415,0,0,1,.083.209.166.166,0,0,0,.016.057.971.971,0,0,1,.082.362.085.085,0,0,0,0,.039c.058.1.029.214.054.32a.488.488,0,0,1,0,.185.512.512,0,0,0,.014.321.039.039,0,0,1,0,.029c-.024.061.017.131-.027.191-.008.011,0,.041.009.056a.29.29,0,0,1,.027.164v3.067a.479.479,0,0,1-.03.2c-.036.082,0,.13.083.152.029.008.058.012.087.018a.277.277,0,0,1,.029.243c-.011.064-.019.128-.029.192h-.12c.014-.075-.074-.084-.091-.128.055-.1.183-.121.208-.233a.161.161,0,0,0-.141-.054h-.7a.47.47,0,0,1-.138,0,.356.356,0,0,0-.259.023l.02-.14c.112-.037.12-.047.12-.161V60.758a.25.25,0,0,0,0-.069.472.472,0,0,1,0-.3.071.071,0,0,0,0-.039,1.757,1.757,0,0,1-.04-.431.512.512,0,0,0-.046-.159c-.044-.106-.092-.21-.14-.315a.464.464,0,0,0-.1-.168.42.42,0,0,1-.088-.1.769.769,0,0,0-.333-.388c-.011,0-.019-.018-.029-.026-.026-.02-.053-.037-.077-.058a.314.314,0,0,0-.2-.089c-.009,0-.018-.008-.027-.013-.086-.046-.091-.044-.129.041-.006.015-.015.028-.023.042l-.06-.02a.532.532,0,0,0,.039-.28.154.154,0,0,0-.031-.079.308.308,0,0,0-.3-.142,1.815,1.815,0,0,1-.268,0,.247.247,0,0,1-.088-.006.678.678,0,0,0-.407,0c-.047.01-.092.024-.14.036,0,.033.016.058.008.07-.057.085-.018.173-.011.26,0,.039.012.078.019.116a.551.551,0,0,0-.221.076.13.13,0,0,1-.075.022c-.149,0-.226.126-.333.2-.02.013-.018.059-.026.09l-.02.014a.125.125,0,0,0-.108.033.72.72,0,0,1-.122.1.234.234,0,0,0-.111.187l-.019.021a.145.145,0,0,0-.144.069.408.408,0,0,0-.1.263c0,.026-.006.053-.006.079,0,.085,0,.17,0,.256a.522.522,0,0,1-.014.193.43.43,0,0,0-.039.181q0,1.927,0,3.854c0,.02,0,.04,0,.06a.08.08,0,0,0,.055.093.1.1,0,0,1,.06.069,1.652,1.652,0,0,1-.013.226c-.005.052-.015.1-.022.156h-.08c.019-.068-.047-.092-.067-.121a1.707,1.707,0,0,0,.135-.176.076.076,0,0,0-.063-.116.525.525,0,0,0-.079,0h-.913a.37.37,0,0,0-.28.059s-.006,0-.01,0v-.08c.014-.012.036-.022.039-.036a.417.417,0,0,0,0-.089q0-1.783,0-3.566c0-.056.009-.112.014-.167s0-.08-.056-.089l-.013-.041-.008-.139.009,0,.074-.061.037.117c.094-.093.1-.152.045-.246a.089.089,0,0,1-.014-.063.589.589,0,0,0,0-.22.286.286,0,0,0-.1-.213s0-.012,0-.025l.044-.009c.056-.013.08-.039.061-.089a.426.426,0,0,1-.022-.183.248.248,0,0,1-.226-.144.1.1,0,0,0-.054-.04.109.109,0,0,1-.077-.083.1.1,0,0,0-.108-.081.113.113,0,0,1-.108-.1.254.254,0,0,0-.031-.08.378.378,0,0,0-.224-.136.457.457,0,0,1-.239-.12.125.125,0,0,0-.084.137l-.1-.02a.085.085,0,0,1,.041-.083.125.125,0,0,0,.055-.075,1.109,1.109,0,0,0-.014-.236c-.018-.1-.03-.1-.134-.105s-.224-.018-.335-.015a.267.267,0,0,0-.165.05.156.156,0,0,1-.162.039.29.29,0,0,0-.145.005c-.045.009-.091.013-.136.02s-.1.014-.146.026-.059.036-.047.09c.022.1.1.135.182.163l.109.033-.04.122-.06.007c-.008-.057-.057-.051-.092-.051-.069,0-.138.007-.207.011,0-.038.047-.082-.02-.116a.23.23,0,0,0-.065.034.2.2,0,0,1-.21.053c-.043-.013-.06.013-.079.041l-.082.123c-.113-.021-.13-.016-.2.053s-.155.165-.241.238-.109.185-.2.25a.075.075,0,0,0-.022.044,1.292,1.292,0,0,0-.061.278q0,2.311,0,4.622a.293.293,0,0,0,0,.079.115.115,0,0,0,.043.059.27.27,0,0,0,.075.024.448.448,0,0,1-.016.322.468.468,0,0,0-.023.113h-.12c.014-.075-.073-.085-.094-.133.052-.044.1-.082.146-.125s.085-.058.062-.113-.083-.043-.131-.043c-.314,0-.628,0-.942,0a1.224,1.224,0,0,0-.156.019,1.315,1.315,0,0,0,.019-.167c-.012-2.21.026-4.421-.019-6.63.011.006.029.009.032.018.019.053.035.106.05.159.03.109.069.14.182.142h.288c.169,0,.338,0,.506,0a.2.2,0,0,0,.134-.043.361.361,0,0,0,.082-.3.562.562,0,0,0-.038-.1Zm3.747,2.85q-.061.03-.028.082Zm5.09,4c.006,0,.012.008.016.006s.005-.01.008-.016-.012-.008-.016-.006S870.862,64.4,870.859,64.408Z" transform="translate(-826.474 -55.223)"/><path class="b" d="M1078.993,64.906c-.029-.006-.058-.011-.087-.018-.087-.023-.119-.071-.083-.152a.475.475,0,0,0,.03-.2V61.465a.293.293,0,0,0-.027-.164c-.01-.015-.017-.045-.009-.056.044-.06,0-.13.027-.191a.042.042,0,0,0,0-.029.512.512,0,0,1-.014-.321.482.482,0,0,0,0-.185c-.025-.106,0-.22-.054-.32a.08.08,0,0,1,0-.039.972.972,0,0,0-.082-.362.158.158,0,0,1-.016-.057.416.416,0,0,0-.083-.209c-.035-.063-.066-.128-.1-.192-.006-.012-.006-.027-.014-.036-.062-.077-.124-.153-.187-.23-.04-.049-.076-.1-.118-.146a2.366,2.366,0,0,0-.184-.191c-.062-.055-.13-.029-.2.013-.071-.075-.145-.145-.21-.223a.226.226,0,0,0-.12-.081c-.075-.02-.146-.05-.147-.16l-.24.014-.031-.083a.669.669,0,0,1-.128.008.535.535,0,0,1-.12-.039.1.1,0,0,1-.047-.031c-.031-.054-.057-.111-.085-.167a.145.145,0,0,1,.113.04.08.08,0,0,0,.126-.02h.04a.5.5,0,0,0,.068.056c.021.012.053.026.071.018a.19.19,0,0,1,.151.018c.032.011.069.05.108.008h.04c.009.012.015.032.026.035.037.011.075.016.113.024l.04.02c0,.009,0,.024.009.027.077.041.154.083.233.121.033.016.036-.016.04-.037l.038.026a.426.426,0,0,0,.24.215s.013-.012.02-.018l.236.227a.158.158,0,0,0,.045.115c.069.09.13.187.195.282,0,.043,0,.089.06.1a.16.16,0,0,0,.08.14l.02.04c-.006.011-.019.025-.016.032a1.767,1.767,0,0,0,.074.179.329.329,0,0,0,.062.068l.02.08a.274.274,0,0,0-.012.072,1.577,1.577,0,0,1,.055.305.1.1,0,0,0,.077.1v.06c-.059.018-.046.068-.046.11,0,0,.017.006.026.01v.04a.258.258,0,0,0-.036.2c.005.052.016.1.016.157q0,2.035,0,4.069Z" transform="translate(-1033.738 -55.687)"/><path class="b" d="M954.358,57.965c.013.026.02.061.04.076a.1.1,0,0,1,.025.132.064.064,0,0,1-.1.039.072.072,0,0,0-.055.016,2.693,2.693,0,0,0-.252.191.872.872,0,0,0-.111.163c-.029.044-.058.088-.09.13a.114.114,0,0,1-.1.051.125.125,0,0,0-.067.015.177.177,0,0,1-.226-.045,1.256,1.256,0,0,1-.165-.2c-.064-.09-.12-.181-.245-.2-.052-.007-.06-.066-.071-.11-.023-.094-.021-.094-.125-.112l-.039-.081-.115.109c-.043-.067.014-.173-.109-.193-.082.017-.035.106-.068.17-.125,0-.254,0-.382,0-.047,0-.061-.033-.06-.075,0-.093,0-.186,0-.279s0-.092-.091-.1l-.189-.025c.007.052.01.087.017.12a.076.076,0,0,1-.051.1c-.081.028-.157.086-.252.053l.128-.131v-.02c.013-.012.037-.024.037-.036a.171.171,0,0,0-.02-.083.9.9,0,0,0-.077-.1c.008-.02.011-.051.025-.059a.208.208,0,0,1,.2-.028.22.22,0,0,0,.183.009.134.134,0,0,0,.15.045c.051-.016.1.058.167.025a.089.089,0,0,0,.015-.013l.219.087c.01.019.015.045.031.056.043.03.091.053.137.08a1.6,1.6,0,0,1,.293.178c.039.035.067.088.111.109a.49.49,0,0,1,.167.15.239.239,0,0,0,.045.053.625.625,0,0,1,.174.223c.03.05.065.1.135.1l.03-.018.057-.061c.1.008.132-.075.187-.127s.127-.122.191-.183a.7.7,0,0,0,.108-.1.244.244,0,0,1,.188-.11Z" transform="translate(-913.548 -55.164)"/><path class="f" d="M858.251,58.985c.045,2.21.008,4.42.019,6.63a1.4,1.4,0,0,1-.019.167.438.438,0,0,0,.017.163.216.216,0,0,1,.024.183.152.152,0,0,0,0,.049l-.1.01-.039-.007c0-.113,0-.226,0-.338V58.994c0-.03,0-.059,0-.089.031,0,.059,0,.057-.045l.061,0-.02.122Z" transform="translate(-823.939 -56.523)"/><path class="g" d="M1012.253,109.968c.008-.052.017-.1.022-.156a1.665,1.665,0,0,0,.013-.226.1.1,0,0,0-.06-.069.08.08,0,0,1-.055-.093c0-.02,0-.04,0-.06v-3.854a.43.43,0,0,1,.039-.181.52.52,0,0,0,.014-.193c0-.085,0-.17,0-.256,0-.026.008-.053.006-.079a.408.408,0,0,1,.1-.263.144.144,0,0,1,.144-.069c-.047.063-.091.127-.141.187a.192.192,0,0,0-.041.168,3.408,3.408,0,0,1,.045.484q.005,2.3,0,4.6a.328.328,0,0,1,0,.039l-.02.017h-.06Z" transform="translate(-971.822 -100.314)"/><path class="i" d="M1073.711,86.5l.06.02a1.425,1.425,0,0,1,.256.182c.015.018.049.019.071.031a.553.553,0,0,1,.14.089q.176.194.339.4a.492.492,0,0,1,.111.271.126.126,0,0,0,.021.065,1.039,1.039,0,0,1,.114.385.957.957,0,0,0,.036.171.485.485,0,0,1,.022.175.908.908,0,0,1,0,.118c0,.033-.01.065-.011.1q0,1.784,0,3.567a.587.587,0,0,0,.019.106c-.007.047-.013.093-.02.14-.028.047-.055.1,0,.143a.268.268,0,0,1,.083.252l-.06.01-.137-.01V92.6q0-1.846,0-3.692a5.2,5.2,0,0,0-.045-1.017l-.019-.1-.1-.3-.1-.2-.037-.061-.1-.14-.033-.04-.2-.2h0a.888.888,0,0,0-.3-.191l-.159-.071a.092.092,0,0,1,.06-.094Z" transform="translate(-1030.849 -83.061)"/><path class="g" d="M892.776,86.236c.069,0,.138-.012.206-.011.036,0,.084-.005.093.051-.067.019-.135.034-.2.056a2.02,2.02,0,0,0-.922.613c-.011.013-.02.026-.032.038a.463.463,0,0,0-.108.363q.005,2.455,0,4.909c0,.053,0,.106.006.159,0,.037-.033.041-.061.045l-.08-.009a.448.448,0,0,1,.023-.113.445.445,0,0,0,.016-.322,1.236,1.236,0,0,1-.019-.157q0-1.973,0-3.945c0-.039.007-.079.008-.118,0-.155.011-.311.006-.466,0-.089-.008-.1.076-.151-.043-.049-.034-.092.01-.139a.53.53,0,0,0,.079-.126.746.746,0,0,1,.271-.254c.053-.038.109-.072.162-.11s.1-.077.146-.115l.04-.04.06-.02a.3.3,0,0,0,.075,0c.017,0,.029-.025.044-.038a.438.438,0,0,0,.06-.044.4.4,0,0,0,.039-.056Z" transform="translate(-856.133 -82.797)"/><path class="q" d="M1045.937,73.572a.093.093,0,0,0-.06.094l-.1-.018-.041-.013-.179-.024-.12-.019a.949.949,0,0,0-.339,0l-.122.012-.137.023a.084.084,0,0,0-.08-.077c-.006-.039-.015-.077-.019-.116-.008-.087-.045-.174.011-.26.008-.012,0-.037-.008-.07.048-.013.094-.027.14-.036a.679.679,0,0,1,.407,0,.248.248,0,0,0,.088.006,1.814,1.814,0,0,0,.267,0,.307.307,0,0,1,.3.142.154.154,0,0,1,.031.079.533.533,0,0,1-.039.28Z" transform="translate(-1003.074 -70.133)"/><path class="f" d="M1134.686,124.935q0-2.035,0-4.069c0-.052-.011-.1-.016-.157a.256.256,0,0,1,.036-.2c.029.025.023.086.082.08,0,.059.014.118.014.178q0,2.25,0,4.5v.1l-.076.013-.04-.009c.01-.064.018-.128.029-.192a.276.276,0,0,0-.029-.243Z" transform="translate(-1089.432 -115.715)"/><path class="q" d="M922.016,74.159l.04-.122L921.948,74c-.085-.028-.16-.064-.182-.163-.012-.054,0-.077.047-.09s.1-.018.146-.026.091-.011.136-.02a.286.286,0,0,1,.145-.005.156.156,0,0,0,.162-.039.265.265,0,0,1,.165-.05c.112,0,.224.011.335.015s.116.006.134.105a1.112,1.112,0,0,1,.014.236.12.12,0,0,1-.055.075.085.085,0,0,0-.041.083c-.026.033-.053,0-.081,0s-.094-.031-.118.033a2.381,2.381,0,0,0-.583-.02l-.154.017Z" transform="translate(-885.014 -70.686)"/><path class="j" d="M980.063,232.022s.008,0,.01,0a.37.37,0,0,1,.28-.059h.913a.525.525,0,0,1,.079,0,.076.076,0,0,1,.063.116,1.8,1.8,0,0,1-.135.176c.02.028.086.053.067.121-.171,0-.343,0-.514,0l-.742,0-.024-.017,0-.339Z" transform="translate(-940.989 -222.723)"/><path class="p" d="M860.67,58.92c.007-.041.013-.082.02-.122.049,0,.1-.005.148-.005h.96c.036,0,.072,0,.108.006a.531.531,0,0,1,.038.1.363.363,0,0,1-.082.3.2.2,0,0,1-.134.043c-.169,0-.337,0-.506,0h-.288c-.113,0-.152-.033-.182-.142-.015-.054-.031-.107-.05-.159,0-.009-.021-.012-.032-.018Z" transform="translate(-826.359 -56.458)"/><path class="r" d="M901.345,55.361v.02c-.02.008-.047.01-.06.025a.157.157,0,0,1-.132.055c-.093,0-.185,0-.278,0a.156.156,0,0,1-.139-.211c0-.012.018-.022.021-.033.022-.086.026-.169-.114-.174a.444.444,0,0,0-.263.1.9.9,0,0,0-.092.084l.013.083a.077.077,0,0,1-.116.029.218.218,0,0,1-.034-.048.168.168,0,0,0-.231-.071c-.13.064-.257.135-.384.206s-.232.138-.349.205a.178.178,0,0,1-.057.011,2.117,2.117,0,0,1,.163-.149,2.709,2.709,0,0,1,.88-.423c.129-.037.262-.061.393-.09a.132.132,0,0,0,.12-.016l.339-.02h.06l.339.022.057.009a.349.349,0,0,0,.12.03,1.155,1.155,0,0,1,.421.12.09.09,0,0,1-.015.013c-.063.033-.116-.041-.167-.025a.134.134,0,0,1-.15-.045.22.22,0,0,1-.183-.009.207.207,0,0,0-.2.028c-.015.008-.017.038-.025.059a.187.187,0,0,0,.025.142.477.477,0,0,1,.035.077Z" transform="translate(-863.286 -52.759)"/><path class="b" d="M954.151,83.7a.125.125,0,0,1,.084-.137.459.459,0,0,0,.239.12.378.378,0,0,1,.224.136.261.261,0,0,1,.031.08.112.112,0,0,0,.108.1.1.1,0,0,1,.108.081.109.109,0,0,0,.077.083.1.1,0,0,1,.054.04.248.248,0,0,0,.226.144.426.426,0,0,0,.022.183c.02.051,0,.076-.061.089l-.044.009c0,.012,0,.022,0,.025a.284.284,0,0,1,.1.213.589.589,0,0,1,0,.22.092.092,0,0,0,.014.063c.057.094.049.153-.045.246l-.037-.117v-.04l.031-.015-.031-.025c0-.02,0-.039-.01-.058a2.63,2.63,0,0,1-.067-.267.567.567,0,0,0-.081-.221.235.235,0,0,1-.037-.069.842.842,0,0,0-.23-.376.3.3,0,0,0-.073-.045c-.039-.068-.061-.073-.1-.023l-.042-.056c.024-.059.018-.09-.025-.111s-.065-.019-.073.029l-.043-.032c.023-.077.014-.089-.077-.106l-.02-.04c0-.044-.009-.082-.063-.077s-.032.047-.036.077c0,.01,0,.021,0,.031l-.1-.046-.018-.1Z" transform="translate(-916.112 -80.238)"/><path class="r" d="M1048.078,55.111h-.04a.3.3,0,0,0-.232-.058c-.017,0-.031.025-.047.038-.049,0-.069.02-.054.067s.028.074.043.111a.114.114,0,0,1-.023.128.23.23,0,0,1-.215.095c-.069-.008-.14,0-.209,0s-.1-.042-.072-.1,0-.136,0-.2-.063-.1-.148-.108a.729.729,0,0,0-.158.008l-.1.009c-.058,0-.116.012-.174.014-.016,0-.032-.013-.049-.021a.9.9,0,0,1,.3-.057l.022-.016.5-.042h.06l.359.022.057.009c.163.037.326.071.487.114a2,2,0,0,1,.234.095h-.14a.244.244,0,0,0-.053-.038.827.827,0,0,0-.1-.029c-.066-.017-.132-.035-.2-.05-.012,0-.028.011-.043.018Z" transform="translate(-1004.877 -52.788)"/><path class="l" d="M979.938,136.447c0-.039-.005-.079-.005-.119v-3.719c0-.03,0-.059,0-.089l.009-.02c.051.009.06.045.056.089s-.014.112-.014.167q0,1.783,0,3.566a.418.418,0,0,1,0,.089c0,.014-.025.024-.039.036Z" transform="translate(-940.864 -127.227)"/><path class="r" d="M1007.463,58.585a.244.244,0,0,0-.188.11.7.7,0,0,1-.108.1c-.064.061-.126.123-.191.183s-.09.136-.187.127a.335.335,0,0,1,.037-.067c.07-.078.139-.158.214-.23s.143-.121.215-.181a1.259,1.259,0,0,1,.137-.113,3.4,3.4,0,0,1,.909-.418c.012,0,.026,0,.039-.006,0,.044-.038.053-.068.071a.346.346,0,0,0-.051.045.411.411,0,0,0-.188.051c-.075.04-.158.067-.236.1A1.186,1.186,0,0,0,1007.463,58.585Z" transform="translate(-966.654 -55.784)"/><path class="l" d="M968.191,98.49a.307.307,0,0,1,.073.045.843.843,0,0,1,.23.376.255.255,0,0,0,.037.069.568.568,0,0,1,.081.221,2.6,2.6,0,0,0,.067.267c0,.019.006.039.01.058v.08l-.074.061c-.014-.1-.025-.2-.045-.294a2.1,2.1,0,0,0-.154-.452,2.172,2.172,0,0,0-.267-.41l.041-.022Z" transform="translate(-929.554 -94.573)"/><path class="h" d="M1042.68,57.956a.374.374,0,0,1,.051-.045c.03-.018.067-.027.068-.071l.037-.01c.016.007.033.021.049.021.058,0,.116-.009.174-.014-.013.067-.026.134-.039.2,0,.006,0,.013,0,.02-.016.067-.075.089-.208.078-.076-.006-.1-.031-.111-.1a.634.634,0,0,0-.02-.082Z" transform="translate(-1001.113 -55.534)"/><path class="r" d="M1119.884,77.447c-.065-.094-.126-.191-.195-.282a.156.156,0,0,1-.045-.115,2.2,2.2,0,0,1,.4.541,2.848,2.848,0,0,1,.253.674.722.722,0,0,1,.011.1l.016.023c0,.032,0,.064,0,.1-.053-.006-.052-.045-.057-.086-.013-.092-.032-.183-.051-.274,0-.014-.018-.026-.027-.039l-.02-.08c-.028-.082-.056-.165-.086-.246,0-.013-.022-.022-.033-.033l-.02-.04c-.014-.054-.02-.112-.08-.14a.1.1,0,0,0-.06-.1Z" transform="translate(-1075.008 -73.988)"/><path class="r" d="M978.282,62.64c-.071,0-.1-.052-.135-.1a.625.625,0,0,0-.174-.223.24.24,0,0,1-.045-.053.5.5,0,0,0-.167-.15c-.044-.022-.072-.074-.111-.109a1.616,1.616,0,0,0-.293-.178c-.046-.026-.093-.05-.137-.08-.016-.011-.021-.037-.031-.056l.365.2c.032.018.062.037.093.056l.361.316.235.311a.392.392,0,0,1,.024.042h0a.027.027,0,0,0,.015.01.126.126,0,0,0,0,.018Z" transform="translate(-938.234 -59.24)"/><path class="g" d="M1029.9,86a.083.083,0,0,1,.08.077l-.161.04a1.311,1.311,0,0,0-.481.221l-.094.048c.008-.031.006-.077.026-.09.107-.072.185-.195.333-.2a.13.13,0,0,0,.075-.022A.555.555,0,0,1,1029.9,86Z" transform="translate(-988.209 -82.581)"/><path class="f" d="M1132.866,103c.01.013.025.025.027.039.019.091.038.182.051.274.006.041,0,.08.057.086l.02.081h-.036a.1.1,0,0,1-.077-.1,1.529,1.529,0,0,0-.055-.305.287.287,0,0,1,.012-.072Z" transform="translate(-1087.691 -98.903)"/><path class="g" d="M1020.17,96.319a.236.236,0,0,1,.111-.187.706.706,0,0,0,.122-.1.124.124,0,0,1,.108-.033l-.342.317Z" transform="translate(-979.5 -92.183)"/><path class="l" d="M946.979,86.427l.018.1-.317-.088c.024-.065.077-.033.118-.033s.055.03.081,0Z" transform="translate(-908.94 -82.969)"/><path class="i" d="M1099.462,63.1c0,.022-.007.053-.04.037-.079-.038-.156-.08-.233-.121-.006,0-.006-.018-.009-.027h.081Z" transform="translate(-1055.36 -60.488)"/><path class="r" d="M1135.7,114.971h.036l.008,0,.012.083q0,.109.006.218c-.059.006-.053-.055-.082-.08v-.04l.02-.12Z" transform="translate(-1090.405 -110.396)"/><path class="r" d="M1107.48,66.617c-.007.006-.016.02-.02.018a.425.425,0,0,1-.24-.215l.26.2Z" transform="translate(-1063.08 -63.782)"/><path class="b" d="M963.19,93.529c.008-.049.041-.044.073-.029s.049.052.025.111l-.1-.081Z" transform="translate(-924.792 -89.772)"/><path class="l" d="M957.09,90.031c0-.01,0-.021,0-.031h.1l.02.04V90.1l-.123-.065Z" transform="translate(-918.935 -86.422)"/><path class="b" d="M960.19,91.057V91c.091.017.1.029.077.106l-.077-.05Z" transform="translate(-921.911 -87.382)"/><path class="i" d="M1094.68,61h.1l.04.02v.041c-.038-.008-.077-.013-.113-.024-.011,0-.018-.023-.026-.035Z" transform="translate(-1051.04 -58.578)"/><path class="b" d="M966.8,97.143l-.041.022-.058-.044C966.738,97.07,966.759,97.074,966.8,97.143Z" transform="translate(-928.162 -93.225)"/><path class="r" d="M1098.17,61.521V61.48l.12.06h-.081l-.04-.02Z" transform="translate(-1054.391 -59.039)"/><path class="r" d="M895.23,73.686l.086-.086.012,0c-.007.031-.014.062-.02.092l-.078-.01Z" transform="translate(-859.541 -70.675)"/><path class="c" d="M858.247,58.769c0,.041-.025.046-.057.045C858.181,58.763,858.208,58.759,858.247,58.769Z" transform="translate(-823.976 -56.431)"/><path class="b" d="M1004.23,84.83h0Z" transform="translate(-964.196 -81.458)"/><path class="s" d="M1004.58,85.1V85.08h.03l-.03.018Z" transform="translate(-964.532 -81.698)"/><path class="c" d="M979.95,242.031l0-.021.024.017Z" transform="translate(-940.884 -232.372)"/><path class="c" d="M1015.69,242.017l.02-.017Z" transform="translate(-975.199 -232.362)"/><path class="b" d="M635.595,65.579l-.142-.157c-.005-.114-.019-.132-.11-.14l-.026-.035a.033.033,0,0,0,.023-.053c-.037-.081-.072-.162-.11-.242-.055-.112-.114-.223-.167-.336a.485.485,0,0,1-.075-.2.211.211,0,0,0-.05-.132.217.217,0,0,0-.014-.189c-.019-.039-.047-.086-.018-.132.05-.081.006-.153-.019-.225-.008-.024-.049-.037-.074-.055,0-.073-.012-.145-.012-.218q0-2.014,0-4.028c0-.033,0-.066,0-.1a.682.682,0,0,0,.151.038c.318,0,.637,0,.955,0a.251.251,0,0,0,.208-.1.487.487,0,0,1,.071-.063q0,2.047,0,4.094a.82.82,0,0,0,.05.351.093.093,0,0,1,.01.038,1.015,1.015,0,0,0,.11.4,2.107,2.107,0,0,0,.3.509.405.405,0,0,0,.271.185l.059.04c.026.1.122.113.191.157s.149.064.221.1a.3.3,0,0,0,.139.043.742.742,0,0,1,.215.026,3.028,3.028,0,0,0,.431.051c0,.013,0,.027,0,.04-.008.1-.033.123-.137.1a.465.465,0,0,1-.059,0,.453.453,0,0,1-.095-.043.435.435,0,0,1-.057-.055.17.17,0,0,0-.252.05.485.485,0,0,0-.035.183.2.2,0,0,0,.185.2,2.5,2.5,0,0,0,.447,0,2.954,2.954,0,0,1,.393-.033.249.249,0,0,0,.269-.2,1.359,1.359,0,0,0,.019-.236.233.233,0,0,0,.191-.017c.079-.033.156-.072.236-.106.052-.022.106-.037.12-.1,0-.014.029-.022.045-.033.082-.053.2-.057.229-.181,0-.008.014-.014.022-.02.051-.036.1-.071.154-.108a.217.217,0,0,0,.059-.05c.056-.089.108-.179.161-.269a.25.25,0,0,0,.035-.171.914.914,0,0,1-.016-.147q0-2.246,0-4.492c0-.075-.013-.151-.02-.226,0-.049-.039-.056-.078-.055a.4.4,0,0,1,.059-.293s0-.006,0-.01h.039a.98.98,0,0,0,.033.333.138.138,0,0,0,.137.107c.291,0,.582,0,.874,0a.134.134,0,0,0,.129-.077c.024-.05.041-.1.067-.152.008-.015.035-.02.054-.029v.259a1.081,1.081,0,0,0-.128.043.1.1,0,0,0-.047.055.259.259,0,0,0,0,.079q0,.761,0,1.523a.935.935,0,0,0,.029.255.184.184,0,0,1,0,.125.325.325,0,0,0-.029.173v4a.189.189,0,0,0,.178.2v.279c-.071.023-.055.083-.058.136h-.12a.085.085,0,0,0-.08-.1c-.027,0-.053-.009-.051-.039l.153-.133c.034-.029.054-.07.029-.1s-.06-.031-.093-.041a.21.21,0,0,0-.059,0h-.8c-.012-.013-.02-.031-.035-.038-.071-.031-.137,0-.2.018a.406.406,0,0,0,0-.263.368.368,0,0,1-.017-.106c0-.1-.027-.126-.131-.129a.411.411,0,0,0-.281.1c-.081.068-.163.134-.244.2-.042.035-.081.072-.128.112a.151.151,0,0,0-.172-.12c-.081.009-.11.043-.1.126l.012.071-.1-.009a.322.322,0,0,1-.016.078c-.012.025-.038.067-.051.064-.085-.018-.151.058-.24.036a.167.167,0,0,0-.143-.085c-.073-.01-.109.037-.089.109.009.031.017.062.026.1a1.029,1.029,0,0,1-.524.113l.045.171-.279.006c-.013-.079-.086-.088-.137-.091-.125-.008-.248-.031-.372-.044a1.434,1.434,0,0,1-.555-.124.121.121,0,0,0-.155.009,2.222,2.222,0,0,1-.617-.378c0-.045-.025-.049-.059-.047l-.041-.034c-.01-.091-.016-.1-.115-.107Zm.988-.772c-.014-.04-.024-.068-.034-.1a.453.453,0,0,0-.036-.082.589.589,0,0,0-.094-.123.09.09,0,0,0-.153.045.768.768,0,0,0-.005.448.093.093,0,0,0,.087.081.125.125,0,0,1,.116.1.132.132,0,0,0,.053.077.37.37,0,0,0,.344,0,.1.1,0,0,0,.046-.057.161.161,0,0,0-.09-.2.185.185,0,0,1-.108-.164.46.46,0,0,0-.023-.08l-.1.044Z" transform="translate(-609.493 -56.6)"/><path class="f" d="M795.8,76.449a.189.189,0,0,1-.178-.2v-4a.324.324,0,0,1,.029-.173.186.186,0,0,0,0-.125.935.935,0,0,1-.029-.255c0-.507,0-1.015,0-1.523a.246.246,0,0,1,0-.079.1.1,0,0,1,.047-.055,1.079,1.079,0,0,1,.128-.043c0,.036,0,.073,0,.109v6.24c0,.036,0,.073,0,.109Z" transform="translate(-763.906 -67.209)"/><path class="p" d="M768.973,58.98c-.019.01-.046.014-.054.029-.026.049-.044.1-.067.152a.133.133,0,0,1-.129.077c-.291,0-.582,0-.874,0a.137.137,0,0,1-.137-.107,1,1,0,0,1-.033-.333c.043,0,.085-.005.128-.005h1.019c.03,0,.059,0,.089,0a.057.057,0,0,0,.058.063v.12Z" transform="translate(-737.075 -56.458)"/><path class="n" d="M759.422,58.6s0,.008,0,.01a.4.4,0,0,0-.059.293c0,.594,0,1.189,0,1.784,0,.089.013.178.018.267a.838.838,0,0,1,0,.109c0,.043-.014.085-.014.128q0,1.141,0,2.282a.685.685,0,0,0,.014.128.452.452,0,0,1-.191.469.172.172,0,0,1-.065.016c.041-.055.083-.108.122-.164.028-.039.061-.079.043-.133,0-.026,0-.053,0-.079V58.785c0-.039,0-.079-.006-.119,0-.018,0-.037.005-.055l.017-.014.075-.007.041.014Z" transform="translate(-728.857 -56.264)"/><path class="j" d="M767.164,231.961h.8a.211.211,0,0,1,.059,0c.033.01.076.017.093.041s0,.076-.029.1l-.153.133c0,.03.024.035.051.039a.085.085,0,0,1,.08.1l-.829,0c-.069,0-.138,0-.207,0a.27.27,0,0,0-.076-.243.1.1,0,0,1-.021-.033c-.034-.076,0-.13.079-.138.052,0,.105,0,.157,0Z" transform="translate(-736.341 -222.721)"/><path class="h" d="M765.049,230.785c-.053,0-.106,0-.157,0-.083.007-.113.061-.079.138a.1.1,0,0,0,.021.033.268.268,0,0,1,.076.243h-.159c-.013-.11-.029-.22-.038-.33a.427.427,0,0,1,.018-.1h.08c.067-.014.134-.049.2-.018.014.006.023.025.035.038Z" transform="translate(-734.225 -221.546)"/><path class="f" d="M798.68,239.136c0-.053-.013-.112.058-.136v.12l-.018.016Z" transform="translate(-766.84 -229.482)"/><path class="f" d="M798.738,58.971a.057.057,0,0,1-.058-.063Q798.743,58.9,798.738,58.971Z" transform="translate(-766.84 -56.568)"/><path class="c" d="M799.69,242.016l.018-.016Z" transform="translate(-767.81 -232.362)"/><path class="b" d="M736.154,71.669a.175.175,0,0,0,.065-.016.451.451,0,0,0,.191-.469.685.685,0,0,1-.014-.128q0-1.141,0-2.282c0-.043.01-.085.014-.128a.769.769,0,0,0,0-.109c0-.089-.017-.178-.018-.267,0-.594,0-1.189,0-1.784.04,0,.074.007.078.055.007.075.02.151.02.226q0,2.246,0,4.492a.965.965,0,0,0,.016.147.25.25,0,0,1-.035.171c-.053.09-.106.181-.161.269a.205.205,0,0,1-.059.05l-.154.108c-.008.006-.02.012-.022.02-.027.124-.147.128-.229.181-.016.01-.043.019-.045.033-.014.068-.068.083-.12.1-.079.033-.156.073-.236.106a.232.232,0,0,1-.191.017c.014-.053-.045-.063-.06-.1.062-.031.123-.062.185-.092.092-.044.186-.086.277-.13a.091.091,0,0,0,.056-.1h.049a.144.144,0,0,0,.149-.143l.125-.115c.085-.021.1-.039.114-.123h0Z" transform="translate(-705.891 -63.846)"/><path class="h" d="M704.993,213.539c.014.037.074.046.06.1a1.4,1.4,0,0,1-.019.236.249.249,0,0,1-.269.2,2.958,2.958,0,0,0-.393.033,2.533,2.533,0,0,1-.447,0,.206.206,0,0,1-.185-.2.488.488,0,0,1,.035-.183.17.17,0,0,1,.252-.05.435.435,0,0,0,.057.055.453.453,0,0,0,.095.043.476.476,0,0,0,.059,0c.1.019.128,0,.137-.1,0-.013,0-.027,0-.04a.815.815,0,0,1,.1-.019c.04,0,.072-.01.077-.057l.24-.042.2.019Z" transform="translate(-675.684 -205.017)"/><path class="n" d="M668.979,64.428a.4.4,0,0,1-.271-.185,2.107,2.107,0,0,1-.3-.509,1.024,1.024,0,0,1-.11-.4.094.094,0,0,0-.01-.038.82.82,0,0,1-.05-.351q0-2.047,0-4.094a.363.363,0,0,0-.059-.273s0-.006,0-.01l.1-.015.022.016.015.023c0,.1,0,.2,0,.3q0,2.067,0,4.134a1.777,1.777,0,0,0,.331,1.058.911.911,0,0,0,.238.258.535.535,0,0,1,.089.091Z" transform="translate(-641.542 -56.225)"/><path class="n" d="M691.056,207.293c-.005.047-.037.055-.077.057a.838.838,0,0,0-.1.019,2.97,2.97,0,0,1-.431-.051.743.743,0,0,0-.215-.026.3.3,0,0,1-.139-.043c-.072-.038-.154-.059-.221-.1s-.165-.059-.191-.157c.126.061.25.132.38.181a2.38,2.38,0,0,0,.365.1,2.452,2.452,0,0,0,.5.021c.043,0,.086,0,.128,0Z" transform="translate(-662.185 -198.748)"/><path class="n" d="M730.389,206.319l-.2-.019c.146-.052.293-.1.437-.158a2.43,2.43,0,0,0,.228-.12c.017-.009.035-.015.053-.022a.092.092,0,0,1-.056.1c-.092.045-.185.086-.277.13-.062.029-.124.061-.185.092Z" transform="translate(-701.08 -197.797)"/><path class="n" d="M748.388,202.4a.144.144,0,0,1-.149.143h-.049l.2-.143Z" transform="translate(-718.363 -194.341)"/><path class="n" d="M756.4,196.45c-.012.083-.029.1-.114.123Z" transform="translate(-726.14 -188.628)"/><path class="d" d="M671.225,58.963l-.015-.023.021,0-.006.021Z" transform="translate(-644.452 -56.6)"/><path class="b" d="M317.011,58.881h.019c-.006.065-.013.131-.019.2-.012.137.029.252.212.247.248-.006.5,0,.745,0a.238.238,0,0,0,.2-.077c.011-.013.034-.016.052-.024a1.709,1.709,0,0,1-.059.166c-.051.111-.108.219-.162.328a.177.177,0,0,0-.016.047,2.158,2.158,0,0,1-.186.478c-.06.142-.141.276-.2.417-.088.2-.168.4-.252.593-.027.063-.061.124-.089.188s-.043.11-.065.165-.039.091-.057.138c-.047.119-.093.239-.141.358a.335.335,0,0,1-.026.042c-.033.057-.069.113-.1.173-.041.09-.074.184-.112.275-.083.194-.168.387-.252.582-.045.1-.087.207-.134.309-.067.147-.137.292-.2.44s-.115.281-.177.419c-.106.234-.213.468-.3.712a.52.52,0,0,1-.034.071c-.08.159-.163.317-.24.478-.047.1-.087.2-.13.3-.009-.024-.016-.048-.027-.07a.085.085,0,0,0-.112-.049H314.02c-.023,0-.047,0-.07,0-.056,0-.083.031-.067.084a.341.341,0,0,0,.065.106c.011.014.035.018.052.029.06.037.062.049.034.118a.4.4,0,0,0-.014.077h-.04a.119.119,0,0,0-.008-.048c-.052-.076-.109-.149-.158-.226a1.092,1.092,0,0,1-.073-.159c-.024-.058-.044-.117-.069-.175-.066-.155-.133-.309-.2-.464-.018-.043-.035-.086-.054-.128l-.272-.629c0-.006,0-.014-.005-.019a1.724,1.724,0,0,1-.187-.382c-.06-.14-.119-.279-.18-.418a2.5,2.5,0,0,1-.121-.269c-.058-.191-.191-.35-.23-.547a.092.092,0,0,0-.016-.036c-.107-.152-.14-.34-.243-.5-.052-.078-.071-.177-.129-.254a.019.019,0,0,1,0-.009,2.692,2.692,0,0,0-.244-.635c-.045-.116-.11-.225-.165-.337a.2.2,0,0,1-.031-.083.489.489,0,0,0-.069-.193c-.03-.077-.063-.151-.1-.227-.047-.109-.092-.219-.14-.327s-.1-.229-.156-.342c-.078-.168-.158-.335-.235-.5-.019-.042-.031-.087-.048-.13a1.236,1.236,0,0,0-.051-.118c-.032-.062-.03-.072.034-.106.025-.013.062-.011.061-.054h.04a.554.554,0,0,0,.047.324.191.191,0,0,0,.2.117q.362,0,.725,0c.159,0,.2-.078.206-.2a1.826,1.826,0,0,0-.018-.246h.079a.466.466,0,0,1,.065.082c.043.088.082.178.12.269.064.151.124.3.188.455.042.1.087.2.13.3.076.175.155.348.228.524.054.131.1.263.163.391.082.173.147.353.221.529.043.1.1.2.132.3.028.087.065.17.1.254.049.115.1.229.148.344.063.149.126.3.189.446s.127.3.189.446c.049.119.094.239.144.358.059.142.121.283.183.424.04.091.082.181.125.27a.142.142,0,0,0,.1.092l.007-.054.012-.038h.01c.051.025.062-.018.076-.049.029-.063.053-.127.08-.191.053-.124.108-.247.161-.372.045-.109.086-.22.132-.328.089-.208.182-.415.27-.623.1-.23.191-.462.287-.692.077-.184.157-.368.235-.551l.26-.6c.052-.12.11-.238.155-.361a.713.713,0,0,1,.09-.194.024.024,0,0,0,0-.009,3.416,3.416,0,0,1,.178-.455c.043-.13.115-.251.171-.377s.094-.238.15-.352a.6.6,0,0,1,.143-.233Z" transform="translate(-298.386 -56.542)"/><path class="n" d="M409.64,58.87a.613.613,0,0,0-.143.233c-.056.114-.1.235-.15.352s-.128.247-.171.377a3.311,3.311,0,0,0-.178.455.019.019,0,0,1,0,.009.7.7,0,0,0-.09.194c-.045.123-.1.241-.155.361l-.26.6c-.079.183-.158.367-.235.551-.1.23-.19.462-.287.692-.088.208-.181.415-.27.623-.046.108-.087.219-.132.328-.052.124-.107.248-.161.372-.027.063-.051.128-.08.191-.014.03-.025.073-.076.049.028-.074.053-.149.085-.222q.415-.979.832-1.958.454-1.069.908-2.139c.023-.054.041-.109.063-.163.059-.148.119-.3.18-.445.017-.041.04-.081.06-.121l.042-.1.059-.14c.005-.008.012-.016.016-.025a.13.13,0,0,1,.147-.079Z" transform="translate(-391.015 -56.531)"/><path class="n" d="M348.1,64.011l-.007.054a.141.141,0,0,1-.1-.092c-.043-.09-.085-.18-.125-.27-.062-.141-.124-.282-.183-.424-.05-.119-.095-.239-.144-.358-.062-.149-.126-.3-.189-.446s-.126-.3-.189-.446c-.049-.115-.1-.229-.148-.344-.035-.084-.073-.166-.1-.254-.033-.1-.09-.2-.132-.3-.075-.176-.14-.357-.221-.529-.061-.128-.11-.261-.163-.391-.072-.176-.151-.35-.228-.524-.043-.1-.088-.2-.13-.3-.063-.151-.124-.3-.188-.455-.038-.09-.077-.181-.12-.269a.467.467,0,0,0-.065-.082l.04-.014a.088.088,0,0,1,.076.063c.015.045.035.089.054.134l.393.934q.178.422.355.843c.118.278.238.555.356.833l.379.889.712,1.673c.005.012.013.023.019.035,0,.031.023.039.05.039Z" transform="translate(-331.89 -56.245)"/><path class="m" d="M423.2,65.652c.043-.1.083-.2.13-.3.077-.16.16-.319.24-.478a.574.574,0,0,0,.034-.071,7.7,7.7,0,0,1,.3-.712c.062-.138.116-.281.177-.419s.136-.293.2-.44c.046-.1.089-.206.134-.309.084-.194.169-.387.252-.582.039-.091.072-.185.112-.275.027-.06.063-.115.1-.173a.389.389,0,0,0,.026-.042c.047-.119.094-.238.141-.358.018-.046.039-.091.057-.138s.041-.111.065-.165.061-.124.089-.188c.085-.2.164-.4.252-.593.063-.141.144-.275.2-.417a2.158,2.158,0,0,0,.186-.478.167.167,0,0,1,.016-.047c.054-.11.111-.218.162-.328a1.718,1.718,0,0,0,.059-.166.317.317,0,0,0,.021-.266c-.009-.025-.014-.051-.021-.076l.239-.011-.057.148-.321.729-.2.453-.016.02-.332.767c-.069.161-.139.321-.209.481-.18.409-.363.817-.541,1.227-.11.252-.212.509-.323.761s-.224.481-.332.724c-.065.147-.12.3-.185.446-.092.21-.193.416-.281.627a1.834,1.834,0,0,0-.122.31,1.255,1.255,0,0,1-.118.234c-.023.049-.031.106-.055.156s-.064.112-.1.168c-.032-.03-.02-.064-.011-.1s.02-.081.031-.121Z" transform="translate(-406.29 -56.293)"/><path class="j" d="M388.785,232.406a.344.344,0,0,1,.014-.077c.028-.069.026-.081-.034-.118-.017-.01-.041-.014-.052-.029a.346.346,0,0,1-.065-.106c-.015-.053.011-.079.067-.084.023,0,.047,0,.07,0h1.136c.042.069.043.081-.006.134-.024.026-.055.045-.082.07s-.048.048-.08.08a.7.7,0,0,0,.085.036.076.076,0,0,1,.062.094l-.85,0C388.962,232.41,388.873,232.407,388.785,232.406Z" transform="translate(-373.15 -222.752)"/><path class="h" d="M416.627,232.278a.076.076,0,0,0-.062-.094.822.822,0,0,1-.085-.036c.032-.032.055-.057.08-.08s.057-.043.082-.07c.05-.054.049-.066.006-.134a.085.085,0,0,1,.112.049c.011.022.018.047.028.07-.01.04-.02.081-.031.121s-.021.069.011.1q-.021.085-.14.076Z" transform="translate(-399.877 -222.624)"/><path class="b" d="M714.257,219.5h-.08c0-.049,0-.1,0-.146s-.007-.086-.062-.1H714.1c-.018-.047-.03-.018-.043,0a2.926,2.926,0,0,1-.712.5c-.079.04-.163.068-.245.1a.332.332,0,0,0-.283.055.146.146,0,0,0-.016.045.139.139,0,0,1-.12.033c-.027-.061-.079-.033-.12-.03-.088.008-.175.024-.264.035-.043.006-.089.006-.092.066l-.1.007-.045-.171a1.033,1.033,0,0,0,.524-.113c-.01-.035-.018-.065-.026-.1-.02-.072.016-.119.089-.109a.168.168,0,0,1,.143.085c.089.022.156-.054.24-.036.012,0,.038-.039.051-.064a.328.328,0,0,0,.016-.078l.1.009-.012-.071c-.014-.082.016-.117.1-.126a.151.151,0,0,1,.172.12c.046-.041.086-.078.128-.112l.244-.2a.41.41,0,0,1,.281-.1c.1,0,.127.027.131.129a.364.364,0,0,0,.017.106.4.4,0,0,1,0,.263Z" transform="translate(-683.673 -210.285)"/><path class="j" d="M635.977,58.788s0,.008,0,.01a.362.362,0,0,1,.059.273.516.516,0,0,0-.071.063.25.25,0,0,1-.208.1c-.318,0-.637,0-.955,0a.636.636,0,0,1-.151-.038c0-.113-.008-.226-.011-.339l.006-.039.014-.025c.066,0,.132,0,.2,0h1.011c.036,0,.072,0,.108.005Z" transform="translate(-609.34 -56.449)"/><path class="m" d="M635.03,178.14c0-.047,0-.093,0-.14.026.018.066.031.074.055.025.072.069.144.019.225-.029.046,0,.092.018.132a.217.217,0,0,1,.014.189.213.213,0,0,1,.05.132.485.485,0,0,0,.075.2c.053.113.112.223.167.336.039.08.073.161.11.242.013.028,0,.044-.023.053a2.252,2.252,0,0,1-.4-.763,2.385,2.385,0,0,1-.081-.406c-.01-.085-.021-.169-.031-.254Z" transform="translate(-609.714 -170.913)"/><path class="m" d="M675.61,238.893a.121.121,0,0,1,.155-.009,1.432,1.432,0,0,0,.555.124c.124.014.246.037.372.044.051,0,.124.012.137.091a2.7,2.7,0,0,1-.86-.114C675.846,238.993,675.729,238.939,675.61,238.893Z" transform="translate(-648.676 -229.348)"/><path class="n" d="M715.74,243c0-.061.049-.061.092-.066.088-.012.175-.027.263-.035.042,0,.093-.031.12.03A1.648,1.648,0,0,1,715.74,243Z" transform="translate(-687.206 -233.218)"/><path class="n" d="M730.7,240.353a.139.139,0,0,1,.016-.045.333.333,0,0,1,.283-.055Z" transform="translate(-701.57 -230.673)"/><path class="m" d="M648.42,218.05c.091.008.1.025.11.14Z" transform="translate(-622.57 -209.367)"/><path class="m" d="M654.74,225.48c.1.01.106.016.115.107Z" transform="translate(-628.638 -216.501)"/><path class="m" d="M658.64,229.013c.034,0,.063,0,.059.047Z" transform="translate(-632.383 -219.893)"/><path class="d" d="M634.8,58.9l-.014.025Z" transform="translate(-609.484 -56.562)"/><path class="f" d="M541.03,58.6l.026-.014h.1l.06.014-.02.043c-.013.018-.038.036-.037.053a1.479,1.479,0,0,0,0,.364.517.517,0,0,1,.018.147q0,.762,0,1.524c0,.033,0,.066,0,.1l-.014.381s0,.006,0,.01a1.428,1.428,0,0,1,.014.147q0,1.918,0,3.835c0,.1-.012.2-.019.3-.054.049-.049.119-.059.182a.128.128,0,0,0,.045.134.1.1,0,0,1,.034.1l-.04.009-.08-.008-.019-.017a.073.073,0,0,1-.007-.018v-.043c0-.03,0-.06,0-.089V58.7c0-.033,0-.066,0-.1Z" transform="translate(-519.461 -56.264)"/><path class="f" d="M571.521,58.6v7.176c0,.04,0,.079,0,.119l-.059.006-.1-.009a.1.1,0,0,0-.048-.09c-.061-.048-.061-.049-.018-.114.016-.024.039-.044.053-.07s.036-.081.053-.122a.732.732,0,0,0,.019-.116c0-.2,0-.391,0-.587q0-2.818,0-5.635a1.238,1.238,0,0,0-.038-.22.61.61,0,0,1,.045-.107c.056-.086.073-.165-.021-.236,0,0,0-.012,0-.019l.08-.015.043.038Z" transform="translate(-548.488 -56.235)"/><path class="t" d="M540.19,240.5l.034-.041v.043Z" transform="translate(-518.655 -230.883)"/><path class="c" d="M541.21,242l.019.017Z" transform="translate(-519.634 -232.362)"/><path class="b" d="M237.036,67.282h-.159a.087.087,0,0,0-.079-.1.551.551,0,0,1-.085-.034c.073-.061.134-.11.192-.164.016-.015.031-.051.024-.067a.128.128,0,0,0-.067-.051.208.208,0,0,0-.069,0h-.883a.375.375,0,0,0-.228.04,1.239,1.239,0,0,0,.019-.156q0-3.2,0-6.4c0-.089,0-.177,0-.265,0-.042.013-.072.06-.075.021.1.036.2.063.3s.053.1.146.1c.258,0,.516,0,.774,0a.24.24,0,0,0,.243-.163.413.413,0,0,1,.025-.064.17.17,0,0,1,.044-.033v.2a.179.179,0,0,0-.1.185q0,2.283,0,4.565c0,.545,0,1.09,0,1.634a.174.174,0,0,0,.1.175q0,.179,0,.359l-.019.016Z" transform="translate(-226.284 -57.627)"/><path class="b" d="M267.75,75.048a.173.173,0,0,1-.1-.175c0-.545,0-1.09,0-1.634q0-2.283,0-4.565a.179.179,0,0,1,.1-.185c0,.036,0,.073,0,.109v6.34C267.755,74.975,267.752,75.012,267.75,75.048Z" transform="translate(-256.98 -65.769)"/><path class="p" d="M238.975,58.776a.172.172,0,0,0-.044.033.457.457,0,0,0-.025.064.24.24,0,0,1-.243.163c-.258-.006-.516,0-.774,0-.092,0-.122-.016-.146-.1s-.043-.2-.063-.3v-.043c.036,0,.072-.005.108-.005h1.01c.039,0,.079-.005.118-.008l.06.013Z" transform="translate(-228.205 -56.254)"/><path class="c" d="M269.69,242.016l.019-.016c0,.007,0,.013,0,.02Z" transform="translate(-258.939 -232.362)"/><path class="j" d="M235.671,232a.375.375,0,0,1,.228-.04h.883a.189.189,0,0,1,.069,0,.129.129,0,0,1,.067.051c.008.015-.008.051-.024.067-.057.054-.119.1-.192.164a.542.542,0,0,0,.085.034.087.087,0,0,1,.079.1c-.194,0-.389,0-.583,0s-.369,0-.553,0c0-.042,0-.085,0-.126a.139.139,0,0,0-.017-.073.246.246,0,0,1-.042-.175Z" transform="translate(-226.275 -222.717)"/><path class="o" d="M233.342,58.707c0-.006,0-.012,0-.017l.016,0Z" transform="translate(-224.038 -56.36)"/><path class="q" d="M468.391,58.774c.007.026.012.051.021.076a.317.317,0,0,1-.021.266c-.018.008-.041.011-.052.024a.238.238,0,0,1-.2.077c-.248,0-.5-.006-.745,0-.183,0-.224-.11-.212-.247.006-.065.012-.131.019-.2.082,0,.165,0,.247-.005h.851c.033,0,.065,0,.1.005Z" transform="translate(-448.551 -56.435)"/><path class="f" d="M110.178,145.49c0,.014.011.03.007.043a1.374,1.374,0,0,1-.048.13c-.049.116-.1.229-.148.346a5.155,5.155,0,0,0-.215.52.152.152,0,0,1-.095.118c.051-.127.1-.255.155-.382.019-.045.042-.089.061-.135.032-.075.059-.15.1-.223a3.356,3.356,0,0,0,.144-.354.414.414,0,0,1,.039-.063Z" transform="translate(-105.308 -139.7)"/><path class="f" d="M131.5,105c0,.018.017.038.012.052-.062.156-.126.311-.191.466-.027.064-.055.128-.087.189-.011.021-.035.034-.053.051.014-.047.025-.094.043-.14.041-.1.085-.2.13-.3.018-.039.046-.072.063-.111s.027-.087.043-.13A.534.534,0,0,1,131.5,105Z" transform="translate(-125.95 -100.824)"/><path class="f" d="M123.419,129a.7.7,0,0,1-.113.327.278.278,0,0,0-.045.136c-.007.053-.026.087-.081.094a1.426,1.426,0,0,1,.13-.325,1.291,1.291,0,0,0,.072-.19C123.388,129.026,123.406,129.014,123.419,129Z" transform="translate(-118.269 -123.867)"/><path class="f" d="M145.419,77a.561.561,0,0,1-.087.279.153.153,0,0,0-.031.071c0,.08-.065.125-.1.183,0,0-.012,0-.019,0a.138.138,0,0,1,0-.039q.1-.233.2-.466C145.391,77.02,145.408,77.011,145.419,77Z" transform="translate(-139.392 -73.94)"/><path class="f" d="M140.859,91c-.01.047-.018.1-.032.142-.027.085-.061.167-.085.252-.01.036-.021.062-.062.064a2.036,2.036,0,0,1,.15-.433C140.833,91.015,140.849,91.008,140.859,91Z" transform="translate(-135.072 -87.382)"/><path class="f" d="M129.26,124c0,.072.008.147-.08.179A.335.335,0,0,1,129.26,124Z" transform="translate(-124.03 -119.066)"/><path class="f" d="M151.22,75c0,.029,0,.058-.04.06Z" transform="translate(-145.153 -72.02)"/><path class="o" d="M763.387,58.74l-.017.014Z" transform="translate(-732.938 -56.408)"/><path class="l" d="M1268.262,137.03c.274.124.548.248.823.37.163.072.329.138.493.208.061.026.12.056.179.085a.812.812,0,0,1,.12.167.605.605,0,0,1,.029.213c0,.686,0,1.371,0,2.057a1.245,1.245,0,0,0,.012.127.2.2,0,0,0,.106.169,1.77,1.77,0,0,0,.195.092l1.711.755.02.016c.064.026.128.054.193.078a.221.221,0,0,0,.25-.023c.008-.008.024-.007.037-.01a.179.179,0,0,1-.294.127,1.177,1.177,0,0,0-.317-.159,2.479,2.479,0,0,1-.271-.123,4.384,4.384,0,0,0-.443-.2c-.136-.047-.263-.121-.394-.18-.069-.031-.141-.057-.211-.087-.049-.02-.1-.042-.145-.064a1.44,1.44,0,0,0-.171-.07.493.493,0,0,1-.368-.354.547.547,0,0,1-.015-.127q0-1.081,0-2.161a.2.2,0,0,0-.152-.224,1.932,1.932,0,0,1-.288-.128c-.082-.052-.175-.075-.254-.12-.182-.106-.387-.151-.573-.243-.074-.037-.153-.064-.226-.1-.035-.018-.085-.04-.044-.1Z" transform="translate(-1217.688 -131.577)"/><path class="l" d="M1330.288,82.093a1.454,1.454,0,0,1-.027-.193q0-1.056,0-2.112a.453.453,0,0,0-.051-.25c.031-.029.055-.013.073.015a.433.433,0,0,1,.085.239q0,.6,0,1.193c0,.062-.018.124-.017.186,0,.125.014.25.018.375s0,.258,0,.387a.325.325,0,0,1-.023.115c-.008.02-.037.03-.057.045Z" transform="translate(-1277.18 -76.361)"/><path class="l" d="M1263.585,58.972c-.005.059-.016.117-.016.175q0,1.325,0,2.651a.269.269,0,0,0,.051.206l.012.035a.194.194,0,0,1-.149-.238.639.639,0,0,0,0-.1v-2.56a.425.425,0,0,1,.007-.1.08.08,0,0,1,.091-.072Z" transform="translate(-1213.109 -56.629)"/><path class="l" d="M1374.183,168.09c0-.014,0-.027-.005-.041l.016-.06c0-.03,0-.059,0-.089q0-1.322,0-2.644a.416.416,0,0,0-.06-.236c.024.008.059.008.07.025a.756.756,0,0,1,.07.14.161.161,0,0,1,0,.059v2.685a.363.363,0,0,1-.006.089c-.012.045-.037.078-.091.073Z" transform="translate(-1319.359 -158.451)"/><path class="l" d="M1269.758,52.718c-.112-.045-.223-.1-.337-.135a.717.717,0,0,0-.162-.018l-.08.018a.161.161,0,0,1,.237-.1c.05.024.094.061.142.089a.822.822,0,0,0,.115.052c.045.017.09.032.084.093Z" transform="translate(-1218.583 -50.381)"/><path class="l" d="M1288.079,59.912l-.4-.174c.066-.043.1-.045.155.007a.232.232,0,0,0,.165.075C1288.054,59.819,1288.079,59.857,1288.079,59.912Z" transform="translate(-1236.346 -57.335)"/><path class="l" d="M1363.863,159.181l-.037-.009-.04-.019-.279-.121a.129.129,0,0,1-.007-.016.176.176,0,0,1,.193.01c.049.031.1.061.146.1.014.011.016.039.024.059Z" transform="translate(-1309.143 -152.663)"/><path class="l" d="M1321.9,75.019l-.172-.088-.112-.056a.276.276,0,0,1,.236.04c.037.032.1.047.083.12l-.034-.016Z" transform="translate(-1268.933 -71.889)"/><path class="l" d="M1299.409,64.759l-.219-.1c.009-.012.022-.035.027-.033a1.667,1.667,0,0,1,.178.076c.011.006.01.035.015.054Z" transform="translate(-1247.397 -62.061)"/><path class="l" d="M1349.851,153.386l-.221-.094A.166.166,0,0,1,1349.851,153.386Z" transform="translate(-1295.826 -147.175)"/><path class="b" d="M1281.96,147.848a.32.32,0,0,1,.085-.039c.012,0,.038.028.039.045a.066.066,0,0,1-.03.054C1282.011,147.926,1281.993,147.888,1281.96,147.848Z" transform="translate(-1230.854 -141.926)"/><path class="l" d="M1343.831,150.606l-.181-.077C1343.747,150.483,1343.8,150.5,1343.831,150.606Z" transform="translate(-1290.084 -144.515)"/><path class="l" d="M1309.837,69.356l-.157-.066C1309.744,69.232,1309.81,69.259,1309.837,69.356Z" transform="translate(-1257.469 -66.508)"/><path class="l" d="M1316.8,72.333l-.12-.054C1316.739,72.225,1316.778,72.243,1316.8,72.333Z" transform="translate(-1264.189 -69.378)"/><path class="l" d="M1360.173,157.626l-.063-.027C1360.155,157.562,1360.161,157.565,1360.173,157.626Z" transform="translate(-1305.888 -151.303)"/><path class="l" d="M1373.65,243.155l.043-.055C1373.692,243.129,1373.689,243.156,1373.65,243.155Z" transform="translate(-1318.888 -233.418)"/><path class="l" d="M1356.661,156.206l-.041-.017C1356.652,156.15,1356.657,156.177,1356.661,156.206Z" transform="translate(-1302.537 -149.953)"/><path class="g" d="M1387.808,115.681c.111.051.221.1.333.154l.783.344.02.016c.071.028.141.058.212.085a.163.163,0,0,0,.2-.044.108.108,0,0,0,.027-.051,1.763,1.763,0,0,0,.017-.206c0-.537,0-1.075,0-1.613a.226.226,0,0,0-.166-.248,1.369,1.369,0,0,1-.151-.071.062.062,0,0,1,.082-.036.288.288,0,0,1,.09.039,1.759,1.759,0,0,1,.181.153.16.16,0,0,1,.043.1c0,.089,0,.179,0,.268,0,.046-.014.091-.014.137q0,.538,0,1.075a.833.833,0,0,1,.012.176c-.02.085.018.18-.061.26-.04.041-.063.105-.109.15a.1.1,0,0,1-.1.028.81.81,0,0,1-.15-.052c-.107-.055-.211-.117-.318-.174a.6.6,0,0,0-.075-.027c-.043-.016-.089-.029-.13-.049-.151-.073-.3-.149-.451-.222a.245.245,0,0,0-.058-.011.923.923,0,0,1-.334-.169.154.154,0,0,1-.06-.159c.006-.037.018-.073.067-.07,0,.026.005.053.008.079-.025.015-.025.029,0,.041a.137.137,0,0,0,.1.1Z" transform="translate(-1332.308 -109.471)"/><path class="b" d="M1389.909,100.083l-.04-.019c0-.028-.012-.058-.044-.049-.016,0-.022.039-.032.06l-.077.052-.026,0a.54.54,0,0,1,.036-.075c.008-.012.036-.015.038-.026.018-.068.071-.064.119-.058.077.009.16.006.215.077,0,0,0,.006.008.006.124.018.207.123.324.156a.407.407,0,0,0,.086.018c.11.007.132.024.171.14a.536.536,0,0,1-.055-.018l-.318-.148c-.026-.012-.05-.018-.067.014l-.057-.012-.041-.031c-.005-.069-.064-.082-.113-.1-.01,0-.03.022-.045.034l-.079-.02Z" transform="translate(-1334.289 -95.988)"/><path class="g" d="M1403.63,105.6c.017-.031.041-.026.067-.014l.319.148a.492.492,0,0,0,.055.018.056.056,0,0,1,.059.063l-.135-.044-.124-.055-.059-.024-.182-.092Z" transform="translate(-1347.673 -101.375)"/><path class="g" d="M1388.384,104l.026,0-.033.079-.047-.039Z" transform="translate(-1332.983 -99.864)"/><path class="g" d="M1420.182,112.663l-.082-.035C1420.151,112.589,1420.162,112.593,1420.182,112.663Z" transform="translate(-1363.486 -108.124)"/><path class="g" d="M1417.249,111.573l-.059-.024C1417.226,111.517,1417.243,111.53,1417.249,111.573Z" transform="translate(-1360.693 -107.095)"/><path class="b" d="M1077.815,89.916a.587.587,0,0,1-.019-.106q0-1.784,0-3.567c0-.033.008-.065.011-.1a.911.911,0,0,0,0-.118.49.49,0,0,0-.022-.175.957.957,0,0,1-.036-.171,1.044,1.044,0,0,0-.114-.385.126.126,0,0,1-.021-.065.489.489,0,0,0-.111-.271q-.162-.206-.339-.4a.553.553,0,0,0-.14-.089c-.023-.013-.057-.014-.071-.031a1.421,1.421,0,0,0-.256-.182c.008-.014.016-.028.023-.042.038-.086.043-.088.129-.041a.072.072,0,0,0,.027.013.313.313,0,0,1,.2.089c.024.021.051.039.077.058s.018.021.029.026a.768.768,0,0,1,.333.388.435.435,0,0,0,.088.1.462.462,0,0,1,.1.168c.047.1.1.209.139.315a.484.484,0,0,1,.046.159,1.743,1.743,0,0,0,.04.431.069.069,0,0,1,0,.039.471.471,0,0,0,0,.3.252.252,0,0,1,0,.069v3.426c0,.114-.008.123-.12.161Z" transform="translate(-1033.776 -80.797)"/><path class="b" d="M890.593,83.826l-.06.02-.04.04c-.049.039-.1.079-.146.115s-.109.072-.162.11a.743.743,0,0,0-.271.254.522.522,0,0,1-.079.126c-.044.047-.053.09-.01.139-.083.049-.079.061-.076.151.006.155,0,.311-.006.466,0,.039-.008.079-.008.118q0,1.973,0,3.945a1.236,1.236,0,0,0,.019.157.262.262,0,0,1-.075-.024.115.115,0,0,1-.043-.059.293.293,0,0,1,0-.079q0-2.311,0-4.622a1.27,1.27,0,0,1,.061-.278.078.078,0,0,1,.022-.044c.088-.066.114-.179.2-.25s.161-.159.241-.238.087-.073.2-.053l.082-.123c.019-.028.036-.054.079-.041a.2.2,0,0,0,.21-.053.241.241,0,0,1,.065-.034c.067.034.019.078.02.116a.352.352,0,0,1-.039.056.479.479,0,0,1-.06.044c-.084-.03-.089-.029-.12.04Z" transform="translate(-854.169 -80.248)"/><path class="j" d="M861.787,232.4l-.681,0c-.132,0-.263,0-.4,0a.163.163,0,0,1,0-.049.215.215,0,0,0-.024-.183.447.447,0,0,1-.017-.163,1.3,1.3,0,0,1,.156-.019c.314,0,.628,0,.942,0,.049,0,.107-.012.131.043s-.03.082-.062.113-.094.081-.146.125c.021.048.108.058.094.133Z" transform="translate(-826.359 -222.744)"/><path class="j" d="M1104.513,231.978h-1.036a.269.269,0,0,0-.083-.252c-.052-.043-.025-.1,0-.143a.358.358,0,0,1,.259-.023.47.47,0,0,0,.138,0h.7a.162.162,0,0,1,.141.054c-.026.112-.153.135-.208.233.018.043.106.052.091.128Z" transform="translate(-1059.378 -222.324)"/><path class="h" d="M885.619,75.369l.078.01a1.375,1.375,0,0,0,.1.1.068.068,0,0,1,.032.076.658.658,0,0,0,0,.3.221.221,0,0,1-.155.057c-.076,0-.153,0-.229,0a.214.214,0,0,1-.228-.232.885.885,0,0,1,.023-.225c.026-.1.073-.118.175-.1a.287.287,0,0,0,.184,0Z" transform="translate(-849.93 -72.358)"/><path class="i" d="M1075.68,56.972c.016-.013.03-.035.047-.038a.3.3,0,0,1,.232.058.08.08,0,0,1-.126.02.147.147,0,0,0-.113-.04Z" transform="translate(-1032.797 -54.669)"/><path class="b" d="M984.732,130.41l-.028.082Q984.672,130.44,984.732,130.41Z" transform="translate(-945.437 -125.221)"/><path class="b" d="M1113.37,230.249c0-.006,0-.014.008-.016s.011,0,.016.006,0,.014-.008.016S1113.375,230.251,1113.37,230.249Z" transform="translate(-1068.985 -221.064)"/><path class="i" d="M1083.68,58.069c.014-.006.03-.02.043-.018.067.014.133.032.2.05a.894.894,0,0,1,.1.029.268.268,0,0,1,.053.038c-.039.043-.076,0-.108-.008a.19.19,0,0,0-.151-.018c-.018.008-.05-.006-.071-.018A.48.48,0,0,1,1083.68,58.069Z" transform="translate(-1040.478 -55.746)"/><path class="f" d="M1129.277,94c.012.011.029.02.034.033.03.081.058.164.086.246a.329.329,0,0,1-.062-.068,1.687,1.687,0,0,1-.074-.179C1129.258,94.025,1129.271,94.011,1129.277,94Z" transform="translate(-1084.242 -90.262)"/><path class="f" d="M1127.18,89.5c.059.028.066.086.08.14A.16.16,0,0,1,1127.18,89.5Z" transform="translate(-1082.244 -85.942)"/><path class="f" d="M1135.05,116.5l-.02.12c-.009,0-.026-.006-.026-.01C1135,116.568,1134.991,116.518,1135.05,116.5Z" transform="translate(-1089.755 -111.865)"/><path class="f" d="M1125.68,87a.1.1,0,0,1,.06.1C1125.683,87.089,1125.683,87.043,1125.68,87Z" transform="translate(-1080.804 -83.541)"/><path class="b" d="M953.149,60.219a.467.467,0,0,0-.035-.077.185.185,0,0,1-.025-.142.9.9,0,0,1,.077.1.17.17,0,0,1,.02.083C953.186,60.2,953.162,60.207,953.149,60.219Z" transform="translate(-915.09 -57.618)"/><path class="b" d="M913.68,88.584c.031-.069.036-.07.12-.04-.014.013-.027.033-.044.038A.279.279,0,0,1,913.68,88.584Z" transform="translate(-877.255 -85.006)"/><path class="b" d="M911.18,90.54l.04-.04Z" transform="translate(-874.855 -86.902)"/><path class="b" d="M957.28,88.137h-.1c0-.03-.014-.073.036-.077S957.28,88.093,957.28,88.137Z" transform="translate(-919.021 -84.559)"/><path class="b" d="M981.68,124.54v-.04l.031.025Z" transform="translate(-942.545 -119.546)"/><path class="h" d="M671,198.188l.1-.044a.5.5,0,0,1,.023.08.184.184,0,0,0,.108.164.162.162,0,0,1,.09.2.1.1,0,0,1-.046.057.37.37,0,0,1-.344,0,.132.132,0,0,1-.053-.077.125.125,0,0,0-.116-.1.092.092,0,0,1-.087-.081.768.768,0,0,1,.005-.448.09.09,0,0,1,.154-.045.6.6,0,0,1,.094.123.426.426,0,0,1,.036.082c.011.028.02.055.034.1Z" transform="translate(-643.908 -189.981)"/><path class="p" d="M314.55,58.788c.059,0,.118-.005.177-.006h.88c.033,0,.065,0,.1.006a1.888,1.888,0,0,1,.018.246c-.006.119-.047.2-.206.2q-.362,0-.725,0a.191.191,0,0,1-.2-.117.554.554,0,0,1-.047-.324Z" transform="translate(-302.005 -56.449)"/><path class="b" d="M545.062,60.3a1.291,1.291,0,0,1,.038.22q0,2.818,0,5.635c0,.2,0,.391,0,.587a.679.679,0,0,1-.019.116,1.461,1.461,0,0,0-.165-.019c-.35,0-.7,0-1.05,0,.007-.1.019-.2.019-.3q0-1.918,0-3.835c0-.049-.01-.1-.014-.147,0,0,0-.006,0-.01l.014-.381c0-.033,0-.066,0-.1q0-.762,0-1.524a.519.519,0,0,0-.018-.147,1.479,1.479,0,0,1,0-.364c0-.017.024-.035.037-.053a1.2,1.2,0,0,0,0,.169c.026.173.087.239.233.232.228-.01.458-.006.686,0a.321.321,0,0,0,.236-.081Z" transform="translate(-522.172 -57.598)"/><path class="p" d="M546.271,59.156a.321.321,0,0,1-.236.081c-.229,0-.458-.009-.686,0-.145.007-.207-.059-.233-.232a1.191,1.191,0,0,1,0-.169l.02-.043c.036,0,.072-.005.108-.005h.811c.079,0,.158,0,.237.005,0,.006,0,.016,0,.019.094.071.077.15.021.236a.644.644,0,0,0-.045.107Z" transform="translate(-523.381 -56.454)"/><path class="j" d="M542.694,232c.35,0,.7,0,1.05,0a1.366,1.366,0,0,1,.165.019c-.018.041-.032.083-.053.122s-.037.045-.053.07c-.043.065-.043.066.018.114a.1.1,0,0,1,.048.09c-.227,0-.454,0-.682,0-.158,0-.316,0-.474,0a.1.1,0,0,0-.033-.1.128.128,0,0,1-.045-.134C542.645,232.114,542.639,232.045,542.694,232Z" transform="translate(-521 -222.756)"/><path class="g" d="M1397.18,102.616c.016-.012.036-.038.045-.034.049.018.108.03.113.1l-.138-.044-.02-.022Z" transform="translate(-1341.48 -98.502)"/><path class="g" d="M1392.27,101.264c.01-.021.017-.055.032-.06.032-.01.041.021.044.049Z" transform="translate(-1336.766 -97.177)"/></g></g></svg>