<svg xmlns="http://www.w3.org/2000/svg" id="Lager_1" viewBox="0 0 600 300"><defs><style>.cls-1{fill:#e8eff3}.cls-2{fill:#6732ba}</style></defs><path d="M0 0h600v300H0z" class="cls-1"/><g id="Artvise"><path d="M448.88 147.52c-.48 8.72 4 17.91 14.4 19.19a21 21 0 0 0 16.17-4.19q.24-.18.48-.33l4.07 6.94a46 46 0 0 1-4.19 2.51 33.7 33.7 0 0 1-22.14 2.51 22.8 22.8 0 0 1-16.07-13.36 31.8 31.8 0 0 1 1-29.12 23.3 23.3 0 0 1 17.59-12.79c8.54-1.2 16.5.26 22.83 6.74a20.6 20.6 0 0 1 5.58 12 27 27 0 0 1-.2 8.82c-.15.83-.48 1.13-1.41 1.13h-38.11Zm15.38-6.81h14.16c.81 0 1.18-.25 1-1.05a28 28 0 0 0-1.25-5.3 13.4 13.4 0 0 0-11.63-7.94 15.6 15.6 0 0 0-17.44 13c-.15 1.16.23 1.26 1.16 1.26Zm-37.51-18.61-2.75 8.74c-.91-.6-1.69-1.18-2.52-1.66a15.7 15.7 0 0 0-12.15-2.51 5.92 5.92 0 0 0-5 7.54 7.6 7.6 0 0 0 3.52 4.6c1.78 1.05 3.69 1.93 5.58 2.81a60 60 0 0 1 9.87 5.32 15.36 15.36 0 0 1-6.06 27.21 32.4 32.4 0 0 1-23-3.19l-.33-.28 3.29-9.09 1.59 1a27 27 0 0 0 9.79 4.09 13 13 0 0 0 6.68-.7 7.3 7.3 0 0 0 3.34-9.79 7 7 0 0 0-1.55-2.09 32 32 0 0 0-5.6-3.82c-2.69-1.51-5.58-2.66-8.29-4.17a16 16 0 0 1-8.27-9.29 13.1 13.1 0 0 1 7.88-16.75q.44-.16.89-.29a26 26 0 0 1 16.65 0c2.19.76 4.2 1.62 6.44 2.32m-46-17.43a5.8 5.8 0 0 1-5.7 5.9h-.28a5.9 5.9 0 0 1-.77-11.78 5 5 0 0 1 .77 0 6 6 0 0 1 5.98 5.88m-1.63 41.85v25.82c0 1.46 0 1.48-1.51 1.48h-6.48c-1.51 0-1.51 0-1.51-1.55v-43.34c0-1.4 0-1.4-1.4-1.4h-5c-.67 0-1-.18-1-.91v-6.15c0-.63.23-.88.88-.88h15.08c1.05 0 .9.68.9 1.3ZM305 119.34h9.85c.3 0 .7.62.85 1q4.06 10.65 8.09 21.37 2.76 7.24 5.45 14.45c.15.38.33.73.58 1.31.25-.58.45-1 .6-1.39q6.93-17.85 13.79-35.72a1.43 1.43 0 0 1 1.64-1.1h8.69l-.73 1.83q-11.31 26.25-22.61 52.55a1.56 1.56 0 0 1-1.73 1.16 1.6 1.6 0 0 1-1.74-1.18q-11.15-26.62-22.39-53.28c-.13-.34-.2-.6-.34-1m-25-14.9v13.77c0 1 .33 1.25 1.28 1.25h12.56c.93 0 1.19.28 1.16 1.18v5c0 .9-.25 1.18-1.16 1.18H280v27.76a25 25 0 0 0 .63 5.45 8 8 0 0 0 8.42 6.71 23 23 0 0 0 4.29-.43 42 42 0 0 0 4.15-1.23l.9 5 .23 1.48c.3 1.74.53 1.46-1.36 1.86a43 43 0 0 1-12.89 1.06 14.3 14.3 0 0 1-12.56-9.37 17 17 0 0 1-1.33-6.18c-.15-10 0-20.33 0-30.47 0-1.94.28-1.84-1.91-1.86h-3.47c-.63 0-.93-.25-.91-.88V120c0-.65.33-.78.91-.78h4.32c.88 0 1.2-.3 1.18-1.18v-9.29a1.3 1.3 0 0 1 1-1.44c2.51-.88 4.85-1.83 7.26-2.76a2 2 0 0 0 1.14-.11m-22.69 14.9-3.82 8.89a41 41 0 0 0-5.2-1.66 9.6 9.6 0 0 0-8.52 2.71 16.5 16.5 0 0 0-5.65 12.56v30.7c0 1.06-.3 1.38-1.33 1.36h-7.16c-.88 0-1.1-.28-1.1-1.11V121c0-1.55 0-1.55 1.6-1.55h8v8.26l.27.13.6-.84a16.8 16.8 0 0 1 11.33-8.12 30 30 0 0 1 10.98.46" class="cls-2"/><path d="M489 193.27v7.94H162.43a57 57 0 0 1-20.58-3.27C126.2 192 116 181 112.34 164.58a54.1 54.1 0 0 1 25.29-58.51 49 49 0 0 1 20.43-6.48 51 51 0 0 1 29.94 6 45.2 45.2 0 0 1 22.61 30.14 48 48 0 0 1-.2 24.12 28 28 0 0 1-3.75 8.24 16.5 16.5 0 0 1-19.49 6.1 18.5 18.5 0 0 1-8.62-8c-1.3-2.16-2.51-4.37-3.71-6.6a2.15 2.15 0 0 0-2.34-1.34c-5.3.23-10.6.28-15.9.41-2 0-3.9.15-5.85.15-.73 0-1 .4-1.26 1L143.66 172l-.53 1.08-8.69-4.88a4 4 0 0 1 .28-.7l25-45.45.6-1c1-1.65 2.51-1.65 3.42 0 6.81 12 13.59 24.12 20.45 36.1a44 44 0 0 0 5.25 7.54c3.49 3.87 8.24 3 10.52-1.71a24 24 0 0 0 2-8.26 47 47 0 0 0-.63-14.72c-3.37-15.08-11.93-25.8-26.71-30.8A39.2 39.2 0 0 0 129 125.92a48.5 48.5 0 0 0-7.34 23.64 42.8 42.8 0 0 0 6.34 25.67 37.2 37.2 0 0 0 26.2 17.38 48 48 0 0 0 8.27.66ZM161.75 134l-8.64 17h17.58Z" class="cls-2"/></g></svg>