<svg xmlns="http://www.w3.org/2000/svg" xmlns:xlink="http://www.w3.org/1999/xlink" id="Lager_1" viewBox="0 0 600 300"><defs><style>.cls-1{fill:none}.cls-2{fill:#e8eff3}.cls-3{clip-path:url(#clip-path)}.cls-4{fill:#35c6ed}.cls-5{fill:#bf8cff}.cls-6{fill:#47dda7}</style><clipPath id="clip-path"><path d="M94 99.12h412v101.76H94z" class="cls-1"/></clipPath></defs><path d="M0 0h600v300H0z" class="cls-2"/><g id="Logex" class="cls-3"><path d="M103.6 123a9.53 9.53 0 1 1-9.6 9.5 9.5 9.5 0 0 1 9.6-9.5m0-23.88a9.53 9.53 0 1 1-9.6 9.53 9.5 9.5 0 0 1 9.6-9.53" class="cls-4"/><path d="M127.65 99.12a9.53 9.53 0 1 1-9.6 9.53 9.5 9.5 0 0 1 9.6-9.53" class="cls-5"/><path d="M151.61 99.12a9.53 9.53 0 1 1-9.52 9.53 9.46 9.46 0 0 1 9.52-9.53" class="cls-6"/><path d="M127.65 123a9.53 9.53 0 1 1-9.6 9.53 9.53 9.53 0 0 1 9.6-9.53" class="cls-5"/><path d="M103.6 165.79a9.53 9.53 0 1 0-9.6-9.52 9.55 9.55 0 0 0 9.6 9.52" class="cls-4"/><path d="M127.65 165.79a9.53 9.53 0 1 0-9.6-9.52 9.56 9.56 0 0 0 9.6 9.52" class="cls-5"/><path d="M151.61 123a9.53 9.53 0 1 1-9.6 9.53 9.6 9.6 0 0 1 9.6-9.53m0 42.79a9.53 9.53 0 1 0-9.6-9.52 9.56 9.56 0 0 0 9.6 9.52" class="cls-6"/><path d="M266.19 165.87a33.38 33.38 0 1 1 33.65-33.37 33.55 33.55 0 0 1-33.65 33.37m0-54.54c-11.33 0-20.52 9.53-20.52 21.17s9.19 21.16 20.52 21.16 20.51-9.52 20.51-21.16-9.19-21.17-20.51-21.17m147.07 54.54a33.38 33.38 0 1 1 0-66.75c19.45 0 34.55 17.58 30.28 39h-50.39c2.63 10.51 11.82 15.47 20.11 15.47a22.7 22.7 0 0 0 14.74-5.14l9 7.66a34.3 34.3 0 0 1-23.74 9.76m0-54.54c-8.29 0-17.65 4.23-20.11 15.47h39.23c-1.38-10.91-10.91-15.47-19.12-15.47m-72.47 54.54a33.55 33.55 0 0 1-33.65-33.37 36 36 0 0 1 .74-7.17 33.7 33.7 0 0 1 32.83-26.21 34 34 0 0 1 23.72 9.69l-9 7.57a23.7 23.7 0 0 0-14.69-5.13 20.4 20.4 0 0 0-18.88 12.94 22 22 0 0 0-1.64 8.23c0 11.64 9.19 21.16 20.52 21.16a20.8 20.8 0 0 0 20.19-15.47h-18.5V126.8h29.3c4.19 23.77-12.88 39.07-30.94 39.07m-155.53-1.38v-64h13.87v51.05h31.11v12.94Z"/><path d="M506 100.5h-15.35l-15.34 22.23-15.93-22.23H444.2l22.9 32-22.9 32h15.18l15.84-22.31 15 22.31h15.43l-22.57-32Zm-130.82 94.36h-6.9l-2 5.61h-2.46l6.73-18h2.62l6.65 18h-2.54Zm-.82-2.37-2.55-7h-.08l-2.54 7Zm8.94-10.01h2.3l9.68 13.84v-13.84h2.39v18h-2.39l-9.68-13.84v13.84h-2.3Zm29.3 12.38h-6.89l-2 5.61h-2.47l6.73-18h2.63l6.65 18h-2.55Zm-.9-2.37-2.54-7-2.55 7Zm8.94-10.01h2.47v15.71h9v2.36h-11.5ZM438 193.31l-6.64-10.83h2.87l5.17 8.47 5.09-8.47h2.79l-6.73 10.75v7.16H438Zm17-8.63h-5.58v-2.2h13.63v2.2h-5.5v15.79h-2.46v-15.79Zm11.36-2.2h2.46v18h-2.46Zm26.26 12.38H495c0 2.6 1.64 3.82 4.43 3.82s4.11-.89 4.11-2.85c0-2.11-1.89-2.68-4.52-3.5-3.2-.89-5.9-2-5.9-5.29 0-3.5 3.11-5 6.15-5 3.28 0 6.4 1.47 6.57 5.62h-2.38c-.09-2.52-2.06-3.42-4.11-3.42-1.89 0-3.69.49-3.69 2.52 0 1.71.9 2.2 4.51 3.34 3.2 1 5.91 2 5.91 5.29s-2.71 5.38-6.56 5.38c-4.35.11-6.9-1.77-6.9-5.91m-5 0a6.2 6.2 0 0 1-5.83 3.66 7.09 7.09 0 0 1 0-14.17 6.45 6.45 0 0 1 6.15 4.24h2.55a9 9 0 0 0-8.62-6.52 9.45 9.45 0 1 0 0 18.89 8.7 8.7 0 0 0 8.37-6ZM185.26 182.4h2.47v7.65h8.94v-7.65h2.55v18h-2.55v-8.06h-8.94v8.06h-2.47Zm19.37 0h12v2.2h-9.52v5.53h8.79v2.2h-8.79v5.86h9.61v2.2h-12.17v-18Zm26.43 12.37h-6.89l-2.06 5.62h-2.46l6.73-18H229l6.65 18h-2.55Zm-.82-2.36-2.55-7h-.08l-2.54 7Zm8.95-10.01h2.46v15.71h9v2.36H239.1V182.4Zm16.57 2.28h-5.58v-2.2h13.63v2.2h-5.58v15.79h-2.47Zm11.58-2.28h2.46v7.65h8.94v-7.65h2.55v18h-2.55v-8.06h-8.94v8.06h-2.46Zm48.09 12.37h-6.89l-2.06 5.62H304l6.73-18h2.63l6.65 18h-2.55Zm-.9-2.36-2.55-7h-.08l-2.54 7Zm19.69 8.06-4.76-7.65H326v7.65h-2.47v-18h7c3.37 0 5.5 1.87 5.58 5a5.1 5.1 0 0 1-3.94 5.21l5 7.73h-3Zm-8.2-9.93h4.59a2.73 2.73 0 0 0 3-3 2.64 2.64 0 0 0-2.79-2.69H326Zm14.52-8.14h12v2.2H343v5.53h8.78v2.2H343v5.86h9.6v2.2h-12.14v-18ZM300 194.86a6.2 6.2 0 0 1-5.83 3.66 7.09 7.09 0 0 1 0-14.17 6.5 6.5 0 0 1 6.16 4.24h2.54a9 9 0 0 0-8.61-6.52 9.45 9.45 0 1 0 0 18.89 8.7 8.7 0 0 0 8.37-6Z"/></g></svg>