<svg id="Lager_1" data-name="Lager 1" xmlns="http://www.w3.org/2000/svg" viewBox="0 0 600 300"><defs><style>.cls-1{fill:#e8eff3;}.cls-2{fill:#040404;}.cls-3{fill:#f7ec81;}.cls-4{fill:#060606;}.cls-5{fill:#f17765;}.cls-6{fill:#f08936;}.cls-7{fill:#f8b467;}.cls-8{fill:#ee5937;}.cls-9{fill:#fbbf73;}.cls-10{fill:#9c944b;}.cls-11{fill:#966443;}.cls-12{fill:#f5ec71;}.cls-13{fill:#f7aa5d;}.cls-14{fill:#f59c4a;}.cls-15{fill:#f06649;}.cls-16{fill:#f06a4f;}.cls-17{fill:#eb8d42;}.cls-18{fill:#732f33;}.cls-19{fill:#f4ec60;}.cls-20{fill:#f1705b;}.cls-21{fill:#f2ec3a;}.cls-22{fill:#eb8f45;}.cls-23{fill:#f4ec4d;}.cls-24{fill:#e8e35a;}.cls-25{fill:#faeaa2;}.cls-26{fill:#f8eb8f;}.cls-27{fill:#b0433d;}</style></defs><rect class="cls-1" width="600" height="300"/><path class="cls-2" d="M379.29,143.56a22.82,22.82,0,0,1-1.71,8.87c-2.39,5.37-6.6,8.24-12.37,8.84a17.83,17.83,0,0,1-8.93-1.14,14.36,14.36,0,0,1-8.6-10.2,25.1,25.1,0,0,1,.15-13.24,14.56,14.56,0,0,1,13.74-11c4.05-.23,7.88.44,11.23,2.89,3.76,2.77,5.55,6.67,6.17,11.18C379.14,141,379.19,142.29,379.29,143.56Zm-6.27.91c-.11-3.34-.31-5.59-1.16-7.74a8.93,8.93,0,0,0-8.27-5.84c-4.15-.12-7.35,1.52-9,5.38a18.12,18.12,0,0,0-.22,13.87,9.35,9.35,0,0,0,17.66-.51A41.82,41.82,0,0,0,373,144.47Z"/><path class="cls-2" d="M390.34,157.6l-.06,11V170h-5.86v-34h5.36v4.19l.46.31a2.48,2.48,0,0,1,.2-.67,8.88,8.88,0,0,1,8.9-4.41,9.23,9.23,0,0,1,7.87,5.84,17,17,0,0,1-.34,14.7,9.55,9.55,0,0,1-11,5,10.15,10.15,0,0,1-4.38-2.81l-.92-.94-.27-.1Zm12.4-9.34a31.83,31.83,0,0,0-1-4.61A5.7,5.7,0,0,0,391.3,143a11.62,11.62,0,0,0,.38,11,5.6,5.6,0,0,0,10.24-1.27A40.33,40.33,0,0,0,402.74,148.26Z"/><path class="cls-2" d="M495,148.41c-.14,5.3-2.28,9.48-7.19,11.72s-9.92,1.57-14.3-1.74a9.47,9.47,0,0,1-2.66-3.32,14.34,14.34,0,0,1-.92-10.92c1.52-5,5-7.79,10.13-8.59a12.7,12.7,0,0,1,13.33,6.19A13.08,13.08,0,0,1,495,148.41Zm-19.64.64a28.08,28.08,0,0,0,.67,3.19,6.43,6.43,0,0,0,5.89,4.49,6.25,6.25,0,0,0,6.12-3.95,10.94,10.94,0,0,0,0-8.83,6.36,6.36,0,0,0-11-1.33C475.65,144.35,475.4,146.4,475.31,149.05Z"/><path class="cls-3" d="M130.82,112l1,.47a3.37,3.37,0,0,0,3.37,1.43h0a3.11,3.11,0,0,0,2.39,1h0c.14.83.78.38,1.21.48a.39.39,0,0,1,.21,0,2,2,0,0,0,2.16.94h0c.07.79.54,1,1.28,1,.4,0,1-.28,1.12.46,0,.44.06.87-.53,1.06-.08,0,0,.47-.06.72a2.77,2.77,0,0,0,.64-.26,2.26,2.26,0,0,0,.4-.51l1,.67-.65.47.26,0c.06.88.1,1.77.18,2.65,0,.42,0,1,.29,1.19.71.42.67,1,.66,1.65,0,1,0,2.07,0,3.11,0,.87,0,1.74-.13,2.6-.15,1.14-.46,2.25-.57,3.38-.14,1.44-.08,1.45-1.54,1.95a.86.86,0,0,0-.58,1.22,1,1,0,0,0,.82.58c1.43-.24,2.85-.57,4.26-.89a8.46,8.46,0,0,0,3.73-1.45h0l.48-.47h1l2.25-.47.12.26c-.2.21-.37.5-.61.61-1.09.49-2.42.45-3.27,1.47,0,.07-.23.06-.35.05-.78-.09-.82.41-.78,1l-2.37.76c-.06-.14-.1-.4-.17-.41a4.28,4.28,0,0,0-3.32.32,2.51,2.51,0,0,1-.88.26c-.8.16-1.61.28-2.4.46a9.76,9.76,0,0,1-1.78.47,8.32,8.32,0,0,0-4.14,1.28,1.37,1.37,0,0,1-.79.17,6,6,0,0,1-1.07-.34,5.42,5.42,0,0,1,.71-.85,11.28,11.28,0,0,1,1.14-.61c2-1.17,3-3.39,4.77-4.79a.72.72,0,0,0,.22-.42c.17-1.33.42-2.66.48-4,.08-1.83,0-3.67,0-5.5,0-.31,0-.76-.16-.9-1.07-.83-.83-1.85-.6-2.93.2-.92-.32-1.45-1.25-1.53a1.31,1.31,0,0,1-.78-.44c-1-1.08-1.94-2.18-2.92-3.28.44-.35,1.09-.6.26-1.16a4,4,0,0,1-.56.39,1.57,1.57,0,0,1-2.09-.18,6.39,6.39,0,0,0-2.9-1.4,26,26,0,0,0-4.15-.29c-.64,0-1.27,0-1.91,0-1.38,0-2.76,0-4.14,0a5.42,5.42,0,0,0-1,.25c.23.22.48.42.7.65a6.13,6.13,0,0,1,.42.58c-.18.12-.35.32-.54.34a2.54,2.54,0,0,1-2.14-.49,1.56,1.56,0,0,0-1.87-.25l1.87,1.65a6,6,0,0,0-1.08.09,2.1,2.1,0,0,0-1.06.47c-.74.82-1.36,1.74-2.09,2.57a6.42,6.42,0,0,1-1.1.79c-.27.19-.75.39-.76.61a13.4,13.4,0,0,1-.7,4.12A10.48,10.48,0,0,0,110,129c.13,2,.45,3.93.74,5.89a.77.77,0,0,0,.53.52c.77.07.84.54.87,1.16.11,2,.82,2.66,2.78,2.71a1.47,1.47,0,0,1,.47,0,1.33,1.33,0,0,1,.54.35,6,6,0,0,1,.77,1.12c.09.21,0,.53-.09.79a2.7,2.7,0,0,1-.63-.26c-.22-.16-.36-.48-.6-.57-.83-.33-1.81-.28-2.43-1.1-.08-.11-.38-.11-.56-.07a3.56,3.56,0,0,1-3.08-.91,1.61,1.61,0,0,0-.61-.31,24.08,24.08,0,0,1-3.09-.58,1,1,0,0,0-1.4.57l-.54,0-.64-.1-.26-.18-.93-.32-.55-.37-.64-.09-.06-.24V137l-.16-.48-.28.4-1.2-.49c.12-.77-.21-1.08-1-1a5.45,5.45,0,0,1-.7,0l-.51,0h0c-.1-.8.27-1.08,1-1,.35,0,.72,0,1.07,0,.7.08,1.64-.38,1.9.8,0,.08.27.11.42.15.82.17,1.65.32,2.47.53.13,0,.21.28.31.43l-.69.56c.16.13.4.4.48.36a2.3,2.3,0,0,0,.68-.57c.06-.06,0-.23,0-.35.67-.06,1.45.21,1.93-.59-.32-.37-.8-.68-.89-1.08a32.93,32.93,0,0,1-.77-4.4,22.43,22.43,0,0,1,0-3.93,4.73,4.73,0,0,1,.66-2.42c.5-.66.83-1.1.58-2a3.42,3.42,0,0,1,.07-2.1c.12-.27,1.07-.16,1.63-.29.22,0,.4-.27.6-.41-.21-.17-.42-.5-.62-.5-1.06,0-2.12.13-3.18.21l-.72-.24c.14-.15.29-.44.44-.44a7.47,7.47,0,0,0,3.34-.52,5.29,5.29,0,0,0,.74-.53,3.83,3.83,0,0,0-.84-.41,8.16,8.16,0,0,0-1.31,0c0-.11.06-.29.14-.32,1.83-.69,3.67-1.36,5.5-2a1.42,1.42,0,0,1,.36,0l2-.44a16.15,16.15,0,0,1,2.25-.49c.67-.06,1.07-.24,1-1a.9.9,0,0,1,.23,0,21.77,21.77,0,0,0,3.51-.9c1-.43,2.33-.27,3-1.43.06-.1.37,0,.57,0h1.54c.14.79.77.38,1.18.49h0c.16.75.77.36,1.19.47h0l1,.45h0C129.77,112.3,130.41,111.88,130.82,112Zm-6.93,0c.79,0,1.49,0,2.18,0a.54.54,0,0,0,.39-.34.59.59,0,0,0-.17-.5C125.77,110.73,124.39,111.16,123.89,112Zm3.72.12v.23h1.16v-.23Zm-12.71,4.12v-.34l-.72.05v.26Zm7.9-4.15v.23h.71v-.23Z"/><path class="cls-2" d="M190,160.73V126.35h24v3.19H193.69v11.74h19v3.24h-19v12.95h21.05v3.26Z"/><path class="cls-2" d="M505.78,140.31c.35-.42.68-.84,1-1.25a10,10,0,0,1,11.92-2.73,6.33,6.33,0,0,1,3.7,5,18.85,18.85,0,0,1,.25,3.09c0,5.23,0,10.46,0,15.68,0,.2,0,.39,0,.66h-5.87v-1.28q0-6.94-.07-13.88a13.29,13.29,0,0,0-.18-1.9,4.39,4.39,0,0,0-5.77-3.78,5.36,5.36,0,0,0-4.38,4.65,41.83,41.83,0,0,0-.33,4.89c0,3.35,0,6.7,0,10.05v1.25h-5.83V136.1h5.33v4.15Z"/><path class="cls-4" d="M288.65,163h3.28c.72,3,2.24,4.31,5.35,4.49a14.86,14.86,0,0,0,3.33-.17,5.83,5.83,0,0,0,5.11-5.11,44.29,44.29,0,0,0,.35-5.17l-.28-.07c-.31.34-.63.67-.93,1-3.64,4.19-10.78,3.33-13.78-.21a14.64,14.64,0,0,1-3.26-11.16,15.05,15.05,0,0,1,2.24-6.86c3.18-5.06,11.53-6.18,15.59-.8.18.24.38.47.74.92V136.1h3.1c0,.26.06.49.06.72,0,7.46,0,14.92,0,22.38a18.16,18.16,0,0,1-.32,3.45,8.61,8.61,0,0,1-6.63,7.08,14.42,14.42,0,0,1-9.94-.57A6.28,6.28,0,0,1,288.65,163Zm2.53-15.23c.23,1.61.33,3,.65,4.44a7.11,7.11,0,0,0,6.66,5.85,6.92,6.92,0,0,0,6.9-4.37,14.73,14.73,0,0,0,0-11,7,7,0,0,0-13.37.65C291.6,144.87,291.44,146.43,291.18,147.8Z"/><path class="cls-2" d="M465.58,143.85c-1.75,0-3.5,0-5.24,0a.86.86,0,0,1-.61-.54,4.73,4.73,0,0,0-5-3.39,5.24,5.24,0,0,0-5.24,3.78,14.68,14.68,0,0,0,.21,9.51c1.31,3.53,6,4.8,8.68,2.31a17,17,0,0,0,2.23-3.52H466a8.86,8.86,0,0,1-2.05,5.6,10,10,0,0,1-5.28,3.31,15.08,15.08,0,0,1-7.34.11,10.36,10.36,0,0,1-7.82-7.33,17.31,17.31,0,0,1-.11-10.13,10.72,10.72,0,0,1,10-8.05,14.87,14.87,0,0,1,6.92.94A8.16,8.16,0,0,1,465.58,143.85Z"/><path class="cls-5" d="M108.31,158.73l7.51,3c3,1.23,5.94,2.5,8.94,3.69a2.13,2.13,0,0,0,1.35-.13c3.51-1.29,7-2.62,10.51-3.93.37-.14.76-.23,1.14-.34-.2,1,.55.89,1.15.89-.33.54-.91,1.05-.83,1.44.33,1.7-.91,3.06-.85,4.68a9.75,9.75,0,0,1-.35,1.94h-2.34l-.07.36,1.66.56a4,4,0,0,1-.94.78q-4.83,2-9.7,3.87a1.52,1.52,0,0,1-1,0c-.85-.31-1.66-.74-2.51-1.07-1.51-.58-3-1.11-4.55-1.66l-.21-.05a5.93,5.93,0,0,0-3.37-1.42h0a7,7,0,0,0-1-.69c-1.48-.67-3-1.29-4.46-1.93h2.32c.68-1.12-1-1.95-.49-3.28.41-1.06.17-2.36.23-3.68a7.43,7.43,0,0,1-1.23,0,2.8,2.8,0,0,1-.8-.45c.22-.16.44-.31.65-.49s.46-.45.7-.68c-.27-.27-.23-.87-.85-.76a3.09,3.09,0,0,1-.6,0Z"/><path class="cls-4" d="M267.75,149.14H248.51c-.27,4.49,2.32,8.38,6.14,9.32a7.2,7.2,0,0,0,8.66-4l.49-1,3.57.45a9.7,9.7,0,0,1-6.48,6.83,13.74,13.74,0,0,1-8.71-.06,10.05,10.05,0,0,1-6.76-7.31,18,18,0,0,1,.1-9.92c1.57-5.36,6-8.34,11.83-8a10.68,10.68,0,0,1,10,9.33C267.56,146.18,267.61,147.57,267.75,149.14Zm-3.83-2.77c0-5-3.35-8.46-7.83-8.23a7.65,7.65,0,0,0-7.31,8.23Z"/><path class="cls-2" d="M412.12,136h3v-7.41h6V136h4.62v4.49h-4.47a5,5,0,0,0-.11.75c0,4.15,0,8.3,0,12.44,0,2.49,1.18,3.34,3.63,2.76l1-.24.49,4.35a14.09,14.09,0,0,1-2.47.59,18.85,18.85,0,0,1-4.38,0c-2.72-.47-4-1.92-4.1-4.66s-.16-5.5-.19-8.25c0-2.51,0-5,0-7.64h-3.06Z"/><path class="cls-4" d="M316.45,169.8v-3c1.07,0,2.11.07,3.13,0a3.48,3.48,0,0,0,2.87-1.91,21.63,21.63,0,0,0,1.32-3.44c.1-.32-.14-.76-.28-1.12q-4.39-11.61-8.81-23.22l-.4-1.1c1.14,0,2.17,0,3.19,0a1,1,0,0,1,.73.55q3.35,9.4,6.63,18.81a2.06,2.06,0,0,0,.12.46,8.21,8.21,0,0,0,.58.6c.2-.19.48-.35.57-.58,2.14-6,4.25-12,6.38-18,.66-1.86.67-1.86,2.6-1.87h1.45c-.27.78-.48,1.44-.73,2.09q-4.79,12.81-9.61,25.6a20.86,20.86,0,0,1-1.64,3.44C322.74,170.11,319.77,171,316.45,169.8Z"/><path class="cls-2" d="M223.09,160.76h-3.35V136.09h2.9v4.17l.25.06c.27-.36.54-.72.8-1.09a9.77,9.77,0,0,1,13.44-2,6.59,6.59,0,0,1,2.44,5.24c.1,3.51.09,7,.11,10.53,0,2.54,0,5.09,0,7.71h-3.47v-1q0-7.06,0-14.12c0-.72-.07-1.43-.12-2.15-.24-4-3.68-5.53-7-5a6.49,6.49,0,0,0-5.81,6.18,43.26,43.26,0,0,0-.21,4.41c0,3.51,0,7,0,10.53Z"/><path class="cls-4" d="M437.29,160.73h-5.8V136.06h5.8Z"/><path class="cls-6" d="M77.67,141.55c1.35-.54,2.68-1.11,4-1.62,2.49-.92,5-1.83,7.51-2.71a1.72,1.72,0,0,1,1.12,0c1.7.67,3.37,1.42,5,2.14l.6.36.59.15a3.78,3.78,0,0,0,1.28,2.6l-.75.27a21.66,21.66,0,0,0-.22,2.53,7.71,7.71,0,0,0,.35,2c.18.62.74,1.2-.21,1.7-.18.09-.15.57-.22.86-1.46-.57-2.93-1.11-4.38-1.71-3.18-1.32-6.34-2.68-9.51-4-1.63-.68-3.26-1.33-4.88-2C77.86,142,77.79,141.73,77.67,141.55Z"/><path class="cls-7" d="M138.26,147l1.66-.53-2,2.12c1.3.58,1.44.79,1.27,2a13.71,13.71,0,0,0-.39,2.32c.08,1.7-1.31,2.29-2.25,3.18-.5.48-.72.88-.42,1.51-.72.3-1.44.64-2.18.92-2.69,1-5.4,1.95-8.09,2.94-.57.21-1.09.3-1.47-.3l-.52,0-10.78-4.53c.13-.28.28-.56.39-.85.18-.46.15-.92-.39-1.06-.92-.24-1-.89-1-1.65,0-1.81,0-3.61,0-5.41l1.21-.67,3.58,1.46.13.64-1.07.82,1.3.74a5.35,5.35,0,0,0,1.73,5.27,1.53,1.53,0,0,0,.7.41,6,6,0,0,1,3.24,2,.86.86,0,0,0,.57.31c1.27-.11,2.54-.26,3.81-.39,1.8-.19,3-1.59,4.6-2.23.35-.14.61-.61.83-1a15.13,15.13,0,0,0,2.36-5.16l.87-.13-.18-.4-.69.53c-.58,0-1.11,0-1.07-.78.07-.5,1.11.28.82-.67a.26.26,0,0,1,.17,0A3.08,3.08,0,0,0,138.26,147ZM115,156.92c.06,0,.16,0,.18-.09s0-.12-.06-.19l-.24.12Z"/><path class="cls-8" d="M154.12,155l.2-.14.7-.24a.25.25,0,0,1,.18-.05l.3.06.19.37.28-.39.26-.45c1.55-.6,3.09-1.21,4.65-1.79a1.47,1.47,0,0,1,.92-.07c3.62,1.28,7.23,2.6,10.84,3.9l.59.64-5.92,2.38c-1.7.68-3.42,1.34-5.12,2-.8.32-1.58.69-2.36,1l-.48.23-.23,0-1.43.2-.55.12.28.11-.72.23-.47.05-.49.42-1.2-1.21c-.1-1.18.14-2.58-.39-3.55s-1.83-1.53-2.82-2.29a10.41,10.41,0,0,0,1.32-.62c.21-.13.31-.45.45-.68h0C154.07,155.57,154.07,155.57,154.12,155Zm-1,1.52.06.48,1-.18a1.4,1.4,0,0,0-.08-.4C153.82,156.42,153.49,156.47,153.17,156.51Z"/><path class="cls-6" d="M173.16,143.31l.32.29,0,.49c-1.15.37-2.3.73-3.44,1.11-.07,0-.08.2-.12.31h0a4.94,4.94,0,0,0-3.82,1.43h0l-5.36,1.72c-.05,0-.07.13-.11.2l-3.39,1c-.17-.14-.38-.43-.52-.4-.76.16-1.49.4-2.24.62l-.2-.43a10.84,10.84,0,0,0,1.26-.81,5.41,5.41,0,0,0,.71-.86l-.8-.55a2.25,2.25,0,0,0-.32-.19c.13-.4.27-.77.36-1.15.48-2,0-2.78-1.61-3,0,0-.08-.12,0-.07l.53-1-1.22-.3.55-.26h.12l.07-.09c2.22-.83,4.46-1.62,6.67-2.51a2.6,2.6,0,0,1,2.15.14l10.53,4.39Zm-17.54-.59V143h.95v-.23Z"/><path class="cls-2" d="M285.84,136.57l-1.17,3.17c-.54-.17-1.05-.36-1.57-.49a4.64,4.64,0,0,0-5.93,3.23,23.41,23.41,0,0,0-.84,5.52c-.12,3.82,0,7.65,0,11.47v1.27h-3.38V136.09h3c0,.93,0,1.8,0,2.66,0,.29.29.55.44.82a2.89,2.89,0,0,0,.7-.48c.3-.36.52-.79.8-1.18,1.69-2.36,3.59-3,6.34-2C284.72,136.05,285.25,136.31,285.84,136.57Z"/><path class="cls-8" d="M94.37,152.94l2.71,1.15-1.59.76c-.21,1-.35,2.16-.68,3.23-.51,1.6-.87,3.14.58,4.61l-1.23.06c-1.28-.48-2.57-.92-3.83-1.44-2.82-1.15-5.62-2.35-8.45-3.49-.82-.34-1.7-.54-2.56-.8h0l-1.2-.46h0l-.45-.26,0-.57c3-1.17,6.07-2.17,9-3.58a6.34,6.34,0,0,1,6.6.27,5.77,5.77,0,0,0,.76.35Zm-.67,1.48s-.07,0-.08.06,0,.05,0,.08l.12-.1Z"/><path class="cls-9" d="M134.89,148.37c.29.95-.75.17-.82.67,0,.77.49.81,1.07.78h0a15.13,15.13,0,0,1-2.36,5.16c-.22.37-.48.84-.83,1-1.59.64-2.8,2-4.6,2.23-1.27.13-2.54.28-3.81.39a.86.86,0,0,1-.57-.31,6,6,0,0,0-3.24-2,1.53,1.53,0,0,1-.7-.41,5.35,5.35,0,0,1-1.73-5.27l-1.3-.74,1.07-.82-.13-.64c.48.17,1,.33,1.43.52,2.11.86,4.21,1.74,6.33,2.58a1.73,1.73,0,0,0,1.1,0c2.65-1,5.28-2,7.92-2.95A5.59,5.59,0,0,1,134.89,148.37Z"/><path class="cls-10" d="M99,136.43l1.2.49.44.08v.08l.06.24.64.09.55.37.93.32.26.18.64.1.56.4,1.12.33,2,.91.91.29.54.38.65.11.56.37.71.27,1,.44c3.93,1.61,7.87,3.2,11.79,4.85a3.73,3.73,0,0,0,2.85.27q3.63-1.33,7.28-2.62c2.35-.84,4.71-1.65,7.06-2.47l.82-.43.85-.13,2.5-1.06.88-.14.21-.15.25,0,.57-.39,1.37-.46,2.37-.76,1.92-.54.25-.2,1.69-.66,1-.48,1.44-.48,1.63-.51h.09l.09,0,1.48-.69h0a14,14,0,0,0,1.73-.36c1.94-.67,3.87-1.37,5.8-2.08s3.89-1.46,5.83-2.2l.37.54c-.29.28-.53.69-.87.82q-17.94,6.44-35.9,12.83c-3.68,1.32-7.34,2.66-11,3.93a2.45,2.45,0,0,1-1.58-.06q-13.86-5.74-27.68-11.53l-18.53-7.74c-.49-.2-1.17-.29-.86-1.12a1.85,1.85,0,0,1,.58,0c2.53,1.05,5,2.13,7.57,3.17,2.72,1.1,5.45,2.17,8.17,3.26l.88.27,2,.93h.21l.53.39.44.1.26.19h0l.71.25Z"/><path class="cls-11" d="M157.18,149.84l3.39-1a18.36,18.36,0,0,0,2.22-.52c1.1-.41,2.17-.93,3.25-1.4h0c1.49.12,2.57-.9,3.82-1.43h0c1-.26,1.9-.5,2.83-.82.28-.09.49-.39.73-.6l0-.49.57,1.28-7.55,2.79-19.74,7.21c-.26.09-.53.16-.8.24l-.51.19-13.1,4.84c-2.09.77-4.19,1.51-6.27,2.31a2.14,2.14,0,0,1-1.7-.05q-12.34-5.15-24.7-10.25l-.45-.19-.75-.3-.41-.19-.79-.31-.74-.35c-2.69-1.08-5.37-2.15-8.05-3.25q-5-2.06-10-4.15c-1.13-.47-1.15-.53-.82-1.87.12.18.19.47.36.54,1.62.7,3.25,1.35,4.88,2,3.17,1.32,6.33,2.68,9.51,4,1.45.6,2.92,1.14,4.38,1.71h0a7.79,7.79,0,0,0,1.32.85c1.3.54,2.64,1,4,1.49l.23.05,1,.46a.78.78,0,0,0,.22,0l.73.42,1.66.55.28.18,0,0,.21.18.74.29.22.18.76.28,2.1.75.23,0,.74.43,1.9.55,10.78,4.53.52,0c.38.6.9.51,1.47.3,2.69-1,5.4-2,8.09-2.94.74-.28,1.46-.62,2.18-.92l2.43-.9,11.42-4.2c.45-.14.9-.26,1.34-.42C153.29,151.32,155.23,150.58,157.18,149.84Z"/><path class="cls-12" d="M151.67,135.93a8.46,8.46,0,0,1-3.73,1.45c-1.41.32-2.83.65-4.26.89a1,1,0,0,1-.82-.58.86.86,0,0,1,.58-1.22c1.46-.5,1.4-.51,1.54-1.95.11-1.13.42-2.24.57-3.38.1-.86.11-1.73.13-2.6,0-1,0-2.07,0-3.11,0-.64,0-1.23-.66-1.65-.25-.15-.25-.77-.29-1.19-.08-.88-.12-1.77-.18-2.65l-.26,0,.65-.47-1-.67a2.26,2.26,0,0,1-.4.51,2.77,2.77,0,0,1-.64.26c0-.25,0-.69.06-.72.59-.19.53-.62.53-1.06a6.3,6.3,0,0,1,1,.26,3.85,3.85,0,0,0,2.39.69L150,120.1c-.73.12-.54.69-.5,1.12s.31.9.93.83c.12,1,.11,1,1.07.64a4.06,4.06,0,0,1,1.22-.09c-.67.64-1.62.94-1.9,1.54a6.68,6.68,0,0,0-.15,2.59c0,.52,0,1,0,1.55a7.52,7.52,0,0,1-.1,2.61c-.4,1-.31,1.6.47,2.06l-1.16,3ZM147,120v-.37l-1.42.11,0,.26Z"/><path class="cls-13" d="M150,152.47l-11.42,4.2-2.43.9c-.3-.63-.08-1,.42-1.51.94-.89,2.33-1.48,2.25-3.18a13.71,13.71,0,0,1,.39-2.32c.17-1.21,0-1.42-1.27-2l2-2.12c1.73-.66,3.46-1.34,5.2-2,1.29-.48,2.6-.91,3.91-1.36a1,1,0,0,1-.93,1,18.67,18.67,0,0,0-2.26.7c.92.27,1.66.45,2.36.71.29.11.72.39.73.61.07,1.65.41,3.32-.32,5a6.29,6.29,0,0,1,.94.61A2.51,2.51,0,0,1,150,152.47Z"/><path class="cls-14" d="M103.51,152.7a.78.78,0,0,1-.22,0l-1-.46-.23-.05a8.57,8.57,0,0,0-1.07-.66c-1.4-.58-2.81-1.12-4.22-1.68h0c.07-.29,0-.77.22-.86,1-.5.39-1.08.21-1.7a7.71,7.71,0,0,1-.35-2,21.66,21.66,0,0,1,.22-2.53l.75-.27a3.78,3.78,0,0,1-1.28-2.6c1.75.7,3.51,1.37,5.24,2.1,1.55.66,3.07,1.39,4.61,2.09,0,.18,0,.45.15.51.53.26,1.08.47,1.67.71-1.14.41-1.31.38-3.28-.47l.27-.19-.27.19c-.41.05-.66.33-.29.6a21.74,21.74,0,0,0,2.13,1.24c-.21.43-.42.88-.65,1.33a2.71,2.71,0,0,1-.49.78,1.41,1.41,0,0,0-.28,1.84c.5.88,1.13,1.68,1.66,2.44l-.88.62-.26,0-1.66-.55Z"/><path class="cls-15" d="M153.1,155.34c-.14.23-.24.55-.45.68a10.41,10.41,0,0,1-1.32.62c1,.76,2.29,1.31,2.82,2.29s.29,2.37.39,3.55l1.2,1.21c-3.08,1.19-6.16,2.39-9.24,3.57a10.35,10.35,0,0,1-1.25.3c-.49-.4-1.28-.55-1.12-1.47a19.77,19.77,0,0,0,.34-2.55c.06-1.55.11-1.66,1.59-2.24.23-.09.37-.38.55-.58-.29-.11-.73-.39-.85-.29-.82.67-1.75.34-2.63.38-.25,0-.51-.23-.77-.35a4.72,4.72,0,0,1,.67-.6c.62-.4,1.62-.33,1.7-1.4Z"/><path class="cls-16" d="M108.31,158.73l-.07.63a3.09,3.09,0,0,0,.6,0c.62-.11.58.49.85.76-.24.23-.46.46-.7.68s-.43.33-.65.49a2.8,2.8,0,0,0,.8.45,7.43,7.43,0,0,0,1.23,0c-.06,1.32.18,2.62-.23,3.68-.5,1.33,1.17,2.16.49,3.28h-2.32c-2.23-.89-4.47-1.76-6.68-2.69-.93-.39-1.8-.91-2.69-1.38l1.61.37v-.37c0-1-.4-2.14.92-2.73.12,0,.13-.43.13-.67,0-.59,0-1.19,0-1.79a1,1,0,0,0-.67-1.1,16.29,16.29,0,0,1-2-1.17l1.49-.68c.54,1.26,1.48,1.55,3.83,1.26l-3.43-1.41.52-.56,6.48,2.67.43.2Z"/><path class="cls-17" d="M297.82,179.66l-3.72,9.16a3.28,3.28,0,0,1-.28.66c-.15.2-.4.53-.54.5a1.09,1.09,0,0,1-.66-.53c-.6-1.38-1.17-2.78-1.74-4.18-.71-1.75-1.41-3.51-2.31-5.25-.29,3.3-.19,6.59-.24,9.93H287V177l.84-.22a1.17,1.17,0,0,1,1.55.86c1.08,2.83,2.21,5.63,3.33,8.44.14.36.3.71.58,1.33l.6-1.5,3.3-8.44c.38-1,1.21-.57,1.86-.57s.46.58.46,1l.09,11.59a2.39,2.39,0,0,1-.11.42h-1.35V179.66Z"/><path class="cls-18" d="M77.64,155.71l0,.57.45.26h0c.18.73.78.36,1.2.46h0c.17.19.3.49.51.58,1.53.63,3.08,1.21,4.6,1.85,2.84,1.17,5.65,2.41,8.49,3.55,1.18.48,2.43.8,3.65,1.19h0c.07.1.12.25.21.29,2.26,1,4.51,2.06,6.8,3s4.83,1.93,7.25,2.86c1,.38,2,.69,3,1h0a5.56,5.56,0,0,0,3.37,1.42l.21.05c.12.14.2.36.35.42,1.77.79,3.52,1.63,5.33,2.31a4.55,4.55,0,0,0,2.74.46c3-1,6-2.3,8.91-3.5s5.66-2.35,8.51-3.49c2.6-1,5.23-2,7.85-3,2.17-.85,4.35-1.7,6.51-2.59a13,13,0,0,0,1.52-.88l.23,0,.48-.23c.78-.35,1.56-.72,2.36-1,1.7-.7,3.42-1.36,5.12-2l5.92-2.38-.59-.64.81.39.17.63c.25.74-.4.78-.79.93-5.26,2.09-10.52,4.15-15.79,6.22l-30.9,12.16a2.31,2.31,0,0,1-1.91.07q-19.7-8.19-39.4-16.32l-.6-.27-5.91-2.41C77.25,157.15,77.19,156.94,77.64,155.71Z"/><path class="cls-19" d="M94.18,121.08a14.34,14.34,0,0,1,1.43-.67c1.26-.44,2.53-.84,3.8-1.26.42.17,1.09-.32,1.24.5l-.65.19.19.3.46-.49h2.4l-1.21.87a3.36,3.36,0,0,1,0,1c-.16.66-.27,1.72-.66,1.87-1,.35-1,1-1,1.77,0,1.66,0,3.33,0,5,0,.9-.4,1.82.4,2.65.19.19,0,.73,0,1.23-1.08-.05-2,.17-3-.37a22.1,22.1,0,0,0-3.28-1.08c-.14,0-.21-.29-.32-.44a5.19,5.19,0,0,0,1.31,0c.23-.06.59-.48.55-.64a16.46,16.46,0,0,1-.18-4.8c0-.83,0-1.66,0-2.49l1.17-.38a15.4,15.4,0,0,1-1.87-.76c-.21-.12-.29-.49-.42-.74a3.58,3.58,0,0,1,1-.09,9.33,9.33,0,0,1,1.33.48A2.13,2.13,0,0,0,94.18,121.08Z"/><path class="cls-20" d="M144.73,158.46c-.08,1.07-1.08,1-1.7,1.4a4.72,4.72,0,0,0-.67.6c.26.12.52.36.77.35.88,0,1.81.29,2.63-.38.12-.1.56.18.85.29-.18.2-.32.49-.55.58-1.48.58-1.53.69-1.59,2.24a19.77,19.77,0,0,1-.34,2.55c-.16.92.63,1.07,1.12,1.47l-1.24.7c-.45,0-1.23-.76-1.2.48l-4.31,1.67-.72.26-.48.22c-.44-.69-.79-.69-1.18,0v0l-1.66-.56.07-.36h2.34a9.75,9.75,0,0,0,.35-1.94c-.06-1.62,1.18-3,.85-4.68-.08-.39.5-.9.83-1.44-.6,0-1.35.1-1.15-.89h0l.23-.13Z"/><path class="cls-13" d="M105,144.79c2,.85,2.14.88,3.28.47-.59-.24-1.14-.45-1.67-.71-.11-.06-.1-.33-.15-.51,1.83.71,3.67,1.41,5.5,2.14.5.2,1,.49,1.44.74l-1.21.67c0,1.8,0,3.6,0,5.41,0,.76,0,1.41,1,1.65.54.14.57.6.39,1.06-.11.29-.26.57-.39.85l-1.9-.55-.74-.43-.23,0c-.47-.89-1.34-.67-2.1-.75l-.76-.28-.22-.18-.74-.29-.21-.18,0,0c0-.07,0-.14,0-.21L107,153c-.53-.76-1.16-1.56-1.66-2.44a1.41,1.41,0,0,1,.28-1.84,2.71,2.71,0,0,0,.49-.78c.23-.45.44-.9.65-1.33a21.74,21.74,0,0,1-2.13-1.24c-.37-.27-.12-.55.29-.6Z"/><path class="cls-14" d="M150,152.47a2.51,2.51,0,0,0-.44-.71,6.29,6.29,0,0,0-.94-.61c.73-1.69.39-3.36.32-5,0-.22-.44-.5-.73-.61-.7-.26-1.44-.44-2.36-.71a18.67,18.67,0,0,1,2.26-.7,1,1,0,0,0,.93-1l4.05-1.46,1.22.3-.53,1c0-.05,0,.06,0,.07,1.66.25,2.09,1.05,1.61,3-.09.38-.23.75-.36,1.15a2.25,2.25,0,0,1,.32.19l.8.55a5.41,5.41,0,0,1-.71.86,10.84,10.84,0,0,1-1.26.81l.2.43c.75-.22,1.48-.46,2.24-.62.14,0,.35.26.52.4-2,.74-3.89,1.48-5.85,2.21C150.89,152.21,150.44,152.33,150,152.47Z"/><path class="cls-15" d="M101.36,155.83l-.52.56,3.43,1.41c-2.35.29-3.29,0-3.83-1.26l-1.49.68a16.29,16.29,0,0,0,2,1.17,1,1,0,0,1,.67,1.1c0,.6,0,1.2,0,1.79,0,.24,0,.62-.13.67-1.32.59-.9,1.73-.92,2.73v.37l-1.61-.37-.92-.25-.28-.23H96.57c-.1-.15-.17-.36-.31-.43-.69-.36-1.4-.68-2.1-1l1.23-.06c-1.45-1.47-1.09-3-.58-4.61.33-1.07.47-2.21.68-3.23l1.59-.76Z"/><path class="cls-19" d="M150.46,121.9c-.61.22-.86-.17-.92-.68s-.23-1,.5-1.12l.43.07,1,.43,2.86,1.23-1.06,1.67,1.91-.44a5.1,5.1,0,0,0-.44,1.43c.06,1.82.25,3.63.29,5.44a10.15,10.15,0,0,1-.43,2.08c.45.26,1.26.57.05,1.28-.26.14-.22.79-.31,1.2l-1.2,1h-1l-.48.47h-1.75l1.16-3c-.78-.46-.87-1.08-.47-2.06a7.52,7.52,0,0,0,.1-2.61c0-.51,0-1,0-1.55a6.68,6.68,0,0,1,.15-2.59c.28-.6,1.23-.9,1.9-1.54a4.06,4.06,0,0,0-1.22.09c-1,.37-.95.41-1.08-.79a.77.77,0,0,1,0,.2l.85-.22-.08-.3A1.87,1.87,0,0,0,150.46,121.9Z"/><path class="cls-17" d="M251.09,176.62a6.84,6.84,0,0,1-.12,13.67c-3.82,0-6.5-2.82-6.56-6.82C244.36,179.67,247.38,176.39,251.09,176.62Zm0,12.47a5.64,5.64,0,0,0-.1-11.25c-2.74,0-5.11,2.17-5.14,5.62A5.25,5.25,0,0,0,251.11,189.09Z"/><path class="cls-21" d="M163,125.39c1.44.56,2.9,1.1,4.33,1.69.88.36,1.73.8,2.59,1.21l.5,1a19.18,19.18,0,0,0-2.31.47c-1.07.37-2.09.91-3.16,1.28a25,25,0,0,1-2.45.59,3,3,0,0,0-2.16,1h-.24c-.39-.05-1,.17-.93-.56.1-1.52.24-3,.36-4.6a3.88,3.88,0,0,0-.49-.1c-.38,0-.92.06-.78-.55,0-.19.51-.34.81-.4a13.74,13.74,0,0,1,1.44-.1l.07-.4c-.4-.15-.79-.33-1.19-.47s-1.19.32-1.11-.56c0-.17.82-.28,1.27-.39a1.29,1.29,0,0,1,.46.09l1.8.36.44.08Z"/><path class="cls-17" d="M430.5,184l3.39,5.81c-1.48.44-1.51.4-2.15-.76q-1.29-2.36-2.63-4.68c-.45-.79-1.23-.36-1.85-.34-.16,0-.42.6-.43.93-.05,1.16,0,2.31,0,3.47v1.5c-1.47.17-1.47.15-1.47-1.06,0-3.63,0-7.26,0-10.89,0-1.06.11-1.14,1.14-1.09,1.2,0,2.4,0,3.59.07a3.35,3.35,0,0,1,3.46,3.94,3,3,0,0,1-1.47,2.34A14.42,14.42,0,0,1,430.5,184Zm-3.78-1.05a39.58,39.58,0,0,0,4.2-.6,1.7,1.7,0,0,0,1.25-1.92c-.05-.91-.35-1.72-1.3-1.9a25.81,25.81,0,0,0-3.62-.36c-.17,0-.49.41-.5.65C426.7,180.08,426.72,181.37,426.72,182.92Z"/><path class="cls-22" d="M374.89,189.89c-1.39.19-1.39.19-1.39-.95,0-3.63,0-7.26,0-10.89,0-.88.23-1.24,1.13-1.17,1.51.12,3,.1,4.52.27a2.75,2.75,0,0,1,2.47,2.54,3.06,3.06,0,0,1-1.32,3.44c-.5.31-1,.57-1.66.91l3.44,5.79a1.53,1.53,0,0,1-2.23-.85c-.81-1.51-1.73-2.95-2.54-4.45-.48-.9-1.25-.56-1.88-.49-.22,0-.48.73-.5,1.13C374.85,186.72,374.89,188.27,374.89,189.89Zm0-7.23c1.18,0,2.14.05,3.09,0a2.29,2.29,0,0,0,2.36-2.22,2.33,2.33,0,0,0-2.23-2.24,16.5,16.5,0,0,0-2.63-.05.8.8,0,0,0-.56.55C374.86,180,374.88,181.28,374.88,182.66Z"/><path class="cls-23" d="M161.76,124.9l-1.8-.36a1.29,1.29,0,0,0-.46-.09c-.45.11-1.26.22-1.27.39-.08.88.69.42,1.11.56s.79.32,1.19.47l-.07.4a13.74,13.74,0,0,0-1.44.1c-.3.06-.77.21-.81.4-.14.61.4.51.78.55a3.88,3.88,0,0,1,.49.1c-.12,1.56-.26,3.08-.36,4.6-.05.73.54.51.93.56v.47h-.24c-.37.05-.89-.18-.95.48h-1c-.48.17-1.2-.41-1.44.47h-.24l-.72.47h-1.19c.09-.41.05-1.06.31-1.2,1.21-.71.4-1-.05-1.28a10.15,10.15,0,0,0,.43-2.08c0-1.81-.23-3.62-.29-5.44a5.1,5.1,0,0,1,.44-1.43l-1.91.44,1.06-1.67,4.92,1.84c.72.27,1.44.54,2.16.85C161.53,124.58,161.64,124.77,161.76,124.9Z"/><path class="cls-17" d="M403.43,179c1.51,2.24,3,4.49,4.52,6.72.41.61.86,1.19,1.47,2V177.08c1.44-.3,1.39-.29,1.39,1,0,3.58,0,7.17,0,10.75,0,.39-.14,1-.34,1.09-.57.16-1.24.32-1.69-.41-.69-1.12-1.47-2.17-2.18-3.27-1.08-1.67-2.12-3.36-3.18-5l-.48-.74h0l-.31-.45-.14-.28c0-.18.06-.4,0-.53a3.8,3.8,0,0,0-.58-.63c-.12.25-.35.5-.35.76,0,3.06,0,6.13,0,9.2,0,.78-.23,1.12-1,1h0l0-.35,0-7.78v-1.05l0-2.82c.45-.65,1.12-.49,1.75-.47h0l.4.49.12.37Z"/><path class="cls-21" d="M83.65,124.93l3.82-1.45A17.83,17.83,0,0,1,90,123c.7,0,1-.31,1.12-1l.67-.06,1.14.77-1.63.8a11.78,11.78,0,0,1,.28,1.42c.1,1.26.14,2.52.22,3.78a1.32,1.32,0,0,1-1.17,1.38,13.66,13.66,0,0,1-1.43,0h0l-.73-.47a2.06,2.06,0,0,1-.57-.11,13.92,13.92,0,0,0-6.42-2.41c.81-.56.08-.8-.07-1Z"/><path class="cls-17" d="M326.81,190h-7.36c-.7,0-.74-.45-.74-1,0-1.32,0-2.63,0-3.95v-7.18c0-.48-.07-1,.65-1h7.32v1.31c-1.85,0-3.64.05-5.42,0-.85,0-1.15.2-1.1,1.06s0,1.59-.05,2.38c0,.57.22.87.86.86,1.43,0,2.87,0,4.3,0,.86,0,1.19.33.87,1.3h-6c0,1.55,0,3,0,4.38,0,.19.55.5.86.51,1.59,0,3.19,0,4.78,0C326.91,188.71,326.91,188.72,326.81,190Zm-3.29-6.8,0-.36-1.39.12,0,.24Zm1.61-.37c-.07.1-.19.21-.17.27s.2.19.24.17a1.41,1.41,0,0,0,.26-.28Zm-3.86.08c-.06,0-.15.06-.17.11s0,.12.07.19l.23-.15Z"/><path class="cls-22" d="M414.49,176.91h7c.47,0,1-.07,1,.68s-.62.6-1.05.6c-1.51,0-3,.06-4.54,0-.86,0-1.13.25-1,1.09a12.86,12.86,0,0,1,0,2.15c-.07.86.29,1.1,1.11,1.06,1.23-.06,2.47,0,3.7,0,.53,0,1.34-.31,1.38.65s-.82.65-1.32.66c-1.55.05-3.1,0-4.76,0v4.85h6.56l.12,1.35h-6.06c-2.11,0-2.11,0-2.11-2.15v-9.8C414.44,177.69,414.48,177.3,414.49,176.91Z"/><path class="cls-17" d="M389.43,190c0-4.3,0-8.4,0-12.5a.86.86,0,0,1,.61-.6c2.23,0,4.47,0,6.7,0,.21,0,.59.43.57.62a.9.9,0,0,1-.61.64c-1.07.06-2.15,0-3.22,0-2.63,0-2.63,0-2.66,2.64a5.77,5.77,0,0,1,0,.72c-.08.73.24,1,1,.94,1.39-.05,2.79,0,4.18,0,.51,0,1,0,1,.74s-.53.57-.95.57c-1.39,0-2.79.05-4.18,0-.83,0-1,.26-1,1a29.82,29.82,0,0,1,0,3c0,.65.24.91.92.89,1.64,0,3.27,0,4.91,0a1.29,1.29,0,0,1,.85.27.63.63,0,0,1-.48,1C394.54,190,392,190,389.43,190Z"/><path class="cls-17" d="M314.12,178.2h-5.24c-.32,0-.64,0-1,0-.52,0-.79-.25-.68-.71a.9.9,0,0,1,.67-.56c1.47-.06,2.95,0,4.42,0,.88,0,1.76,0,2.63,0,.39,0,1.06.06,1.12.25a1.76,1.76,0,0,1-.14,1.35c-1.56,2.3-3.19,4.54-4.79,6.82-.72,1-1.4,2.08-2.27,3.38h4.4c.75,0,1.51,0,2.27,0,.51,0,.81.21.73.68a.93.93,0,0,1-.64.6c-2.67,0-5.34,0-8,0-.65,0-.89-.59-.46-1.32.62-1,1.35-2,2-2.95q2.4-3.48,4.79-7A2.41,2.41,0,0,0,314.12,178.2Z"/><path class="cls-17" d="M369.86,181.8c0,1.47.1,2.95,0,4.42a4,4,0,0,1-2.56,3.74,5.05,5.05,0,0,1-5.21-.61,4.42,4.42,0,0,1-1.66-3.33c-.07-2.83-.06-5.66-.09-8.49,0-.49.19-.78.71-.72s.74.23.72.84c-.05,2.31-.09,4.63,0,6.94a7.1,7.1,0,0,0,.75,3.07,3.14,3.14,0,0,0,5.48-.27,5.83,5.83,0,0,0,.5-2.3c.07-2.23,0-4.47,0-6.7a2.24,2.24,0,0,1,.06-.94,1.16,1.16,0,0,1,.72-.59c.42,0,.68.19.66.75-.06,1.39,0,2.79,0,4.18Z"/><path class="cls-23" d="M89.16,130.18a13.66,13.66,0,0,0,1.43,0,1.32,1.32,0,0,0,1.17-1.38c-.08-1.26-.12-2.52-.22-3.78a11.78,11.78,0,0,0-.28-1.42l1.63-.8L91.75,122l2.43-.94a2.13,2.13,0,0,1,2.62,1.57,9.33,9.33,0,0,0-1.33-.48,3.58,3.58,0,0,0-1,.09c.13.25.21.62.42.74a15.4,15.4,0,0,0,1.87.76l-1.17.38c0,.83,0,1.66,0,2.49a16.46,16.46,0,0,0,.18,4.8c0,.16-.32.58-.55.64a5.19,5.19,0,0,1-1.31,0l-2.39-.48c-.12-.81-.67-1-1.38-1C89.79,130.65,89.24,130.87,89.16,130.18Z"/><path class="cls-17" d="M437.94,180.35a8.28,8.28,0,0,0-.57,4.09c.37,3.59,4.14,5.83,7.94,4.05.14-.07.35-.19.36-.29,0-1.18.06-2.36,0-3.54,0-.09-.38-.22-.6-.24a6.76,6.76,0,0,0-1.19,0c-.84.06-1.2-.27-.9-1.32,1.17,0,2.39,0,3.61,0,.21,0,.56.43.57.68.05,1.59.06,3.19,0,4.78a1.24,1.24,0,0,1-.66.86c-3.09,1.36-7.92,1.61-10-2.72-1.53-3.16-.5-7.92,2.55-9.16l1.16.09-.62.92h0C438.53,178.67,438.13,179.42,437.94,180.35Z"/><path class="cls-22" d="M262.08,184.08c0,1.68,0,3.34,0,5,0,.41.14.9-.56,1-.88.06-.83-.5-.83-1.08q0-4.85,0-9.69c0-.6,0-1.19,0-1.79s.26-.7.76-.68c1.27.06,2.55,0,3.82.13a3.41,3.41,0,0,1,3.44,3.41,3.22,3.22,0,0,1-2.8,3.45C264.69,184,263.45,184,262.08,184.08Zm.06-1.33H265a2.53,2.53,0,0,0,.7-.16,2.28,2.28,0,0,0,1.63-2.12,1.87,1.87,0,0,0-1.37-2c-1.2-.27-2.46-.33-3.79-.49Z"/><path class="cls-24" d="M89.16,130.18c.08.69.63.47,1,.47.71,0,1.26.16,1.38,1l-.87.14V132a3.17,3.17,0,0,1,3,2.25c-2.72-1.09-5.45-2.16-8.17-3.26-2.53-1-5-2.12-7.57-3.17a1.85,1.85,0,0,0-.58,0c.12-.31.17-.8.39-.89,1.62-.69,3.28-1.3,4.93-1.91a3.7,3.7,0,0,1,1-.08l-2.28,1.24c.15.22.88.46.07,1a13.92,13.92,0,0,1,6.42,2.41,2.06,2.06,0,0,0,.57.11l.73.47Z"/><path class="cls-17" d="M338,183.09c1.16-1.89,2.25-3.59,3.24-5.34.49-.87,1.09-1,2.09-.69l-2.73,4.31-.08.09a7.86,7.86,0,0,0-1.86,6.3,9.32,9.32,0,0,1,0,1.67.57.57,0,0,1-.83.56,1,1,0,0,1-.58-.67,6.71,6.71,0,0,1,0-1.79,8,8,0,0,0-1.85-6.07c-1-1.37-1.86-2.85-2.79-4.29,1.19-.48,1.48-.43,2.07.53.84,1.35,1.62,2.74,2.44,4.1C337.3,182.17,337.56,182.52,338,183.09Z"/><path class="cls-22" d="M448.31,177.1c1.4-.52,1.53-.46,2.17.63,1,1.73,2.06,3.45,3.22,5.39,1.2-2,2.29-3.69,3.35-5.45.55-.92.81-1,2-.52-1,1.51-1.84,3.07-2.91,4.47a7.87,7.87,0,0,0-1.77,5.86c.05.47,0,1,0,1.43,0,1.16,0,1.16-1.39,1,0-1.4.06-2.83,0-4.24a4.61,4.61,0,0,0-.56-2c-1.2-2-2.49-4-3.75-5.94Z"/><path class="cls-4" d="M431.47,133.9v-5.29h5.81v5.29Z"/><path class="cls-22" d="M275.49,178.22c0,1.47,0,2.82,0,4.16,0,2.24,0,4.47,0,6.71,0,.43.08.89-.6.94s-.82-.36-.82-.95c0-3.19,0-6.39,0-9.58,0-1.31,0-1.31-1.33-1.31a21.49,21.49,0,0,1-2.27,0c-.24,0-.62-.41-.61-.61a1,1,0,0,1,.6-.67,4.59,4.59,0,0,1,1.17,0c2.2,0,4.39,0,6.58-.07a1.48,1.48,0,0,1,.36,0c.5.1,1.23-.11,1.19.79s-.72.59-1.17.61C277.62,178.25,276.63,178.22,275.49,178.22Z"/><path class="cls-24" d="M160.05,133.05v-.47h.24c.88.06,1.71,0,2.16-1a25,25,0,0,0,2.45-.59c1.07-.37,2.09-.91,3.16-1.28a19.18,19.18,0,0,1,2.31-.47l-.5-1,3.6,1.41v.44c-1.94.74-3.88,1.48-5.83,2.2s-3.86,1.41-5.8,2.08a14,14,0,0,1-1.73.36,7.25,7.25,0,0,0,.23-1.2C160.35,133.41,160.16,133.23,160.05,133.05Z"/><path class="cls-22" d="M354.3,177.61a5.49,5.49,0,0,1,2.89,3.74c.92,3.47-.28,6.93-3.38,8.33a6.35,6.35,0,0,1-6.88-.61H348l-.41-1a1.61,1.61,0,0,1,.33.12A5.19,5.19,0,0,0,356,183.8a5.92,5.92,0,0,0-3.18-5.68l.07-.07C353.41,178,354,178.26,354.3,177.61Z"/><path class="cls-6" d="M282,189.92c0-.43-.08-.78-.08-1.14V177.91c0-.45-.12-1,.65-1s.7.51.7,1.05c0,3.66,0,7.33,0,11C283.3,190,283.3,190,282,189.92Z"/><path class="cls-17" d="M304.51,183.34c0,1.91,0,3.81,0,5.72,0,.47.1,1-.67,1s-.71-.48-.71-1c0-3.73,0-7.47,0-11.21,0-.51,0-1,.7-1s.68.48.68,1c0,1.83,0,3.66,0,5.49Z"/><path class="cls-17" d="M347.62,188.11l.41,1h-1.1c-3.37-2-3.69-8.2-.8-10.53l1.45-1h0l1.48-.44.23.47-.24.47a6.37,6.37,0,0,0-3.18,3.36c-.1.05-.29.08-.31.15a6.68,6.68,0,0,0,.58,5.23c.09.17.36.24.55.36l.2.26c-.05.55.2.77.74.69Z"/><path class="cls-22" d="M439.6,178.59l.62-.92-1.16-.09a6.88,6.88,0,0,1,7.47.23c.3.26.67.59.22,1-.24.2-.8.38-1,.25C443.8,177.52,441.73,177.72,439.6,178.59Z"/><path class="cls-12" d="M100.65,119.65c-.15-.82-.82-.33-1.24-.5,1.09-.47,2.17-1,3.27-1.39a15.3,15.3,0,0,1,1.79-.51c.56-.16,1.34.44,1.68-.49h0a8.16,8.16,0,0,1,1.31,0,3.83,3.83,0,0,1,.84.41,5.29,5.29,0,0,1-.74.53,7.47,7.47,0,0,1-3.34.52c-.15,0-.3.29-.44.44l-.72,1h-2.4Z"/><path class="cls-25" d="M126.28,110.07h-1.54c-.2,0-.51,0-.57,0-.68,1.16-2,1-3,1.43a21.77,21.77,0,0,1-3.51.9,6.32,6.32,0,0,1,1.25-.91c1.59-.63,3.23-1.16,4.83-1.78A2.74,2.74,0,0,1,126.28,110.07Z"/><path class="cls-22" d="M349.05,177.12l-1.48.44a7,7,0,0,1,1.86-.84,19.62,19.62,0,0,1,3,0,2.08,2.08,0,0,1,1.72.85c-.39.2-1.08-.33-1.22.49l-.07.07-3.79-.06.24-.47H352v-.47Z"/><path class="cls-22" d="M400.5,189.59c.78.08,1-.26,1-1,0-3.07,0-6.14,0-9.2,0-.26.23-.51.35-.76a3.8,3.8,0,0,1,.58.63c.08.13,0,.35,0,.53l-.72-.51v11Z"/><path class="cls-26" d="M146.89,118.69a3.85,3.85,0,0,1-2.39-.69,6.3,6.3,0,0,0-1-.26c-.13-.74-.72-.48-1.12-.46-.74,0-1.21-.18-1.28-1a22.48,22.48,0,0,1,2.45.61c1,.39,2,.91,3.07,1.39C146.76,118.36,146.81,118.56,146.89,118.69Z"/><path class="cls-25" d="M117.42,112.48c0,.73-.35.91-1,1a16.15,16.15,0,0,0-2.25.49l-2,.44a10.74,10.74,0,0,1,1.35-.69C114.78,113.21,116,112.41,117.42,112.48Z"/><path class="cls-25" d="M135.16,113.89a3.37,3.37,0,0,1-3.37-1.43A4.15,4.15,0,0,1,135.16,113.89Z"/><path class="cls-19" d="M91.08,122.08c-.1.64-.42.91-1.12,1a17.83,17.83,0,0,0-2.49.45A7.09,7.09,0,0,1,91.08,122.08Z"/><path class="cls-9" d="M138.26,147a3.08,3.08,0,0,1-3.2,1.37A5.6,5.6,0,0,1,138.26,147Z"/><path class="cls-25" d="M141.13,116.3a2,2,0,0,1-2.16-.94A2,2,0,0,1,141.13,116.3Z"/><path class="cls-25" d="M137.55,114.85a3.11,3.11,0,0,1-2.39-1A2.61,2.61,0,0,1,137.55,114.85Z"/><path class="cls-9" d="M402.19,177.13c-.63,0-1.3-.18-1.75.47.09-.28.18-.8.27-.8C401.21,176.8,401.87,176.3,402.19,177.13Z"/><path class="cls-22" d="M437.94,180.35c.19-.93.59-1.68,1.67-1.77Z"/><path class="cls-3" d="M106.15,116.76c-.34.93-1.12.33-1.68.49C104.85,116.47,105.58,116.89,106.15,116.76Z"/><path class="cls-22" d="M347.58,177.55l-1.45,1Z"/><path class="cls-6" d="M352.9,178.05c.14-.82.83-.29,1.22-.49a.2.2,0,0,1,.18.05C354,178.26,353.41,178,352.9,178.05Z"/><path class="cls-25" d="M138.76,115.33c-.43-.1-1.07.35-1.21-.48C138,114.94,138.57,114.63,138.76,115.33Z"/><path class="cls-25" d="M128.66,111c-.42-.11-1,.28-1.19-.47C127.89,110.67,128.51,110.26,128.66,111Z"/><path class="cls-25" d="M130.82,112c-.41-.11-1,.31-1.18-.49Z"/><path class="cls-25" d="M127.46,110.56c-.41-.11-1,.3-1.18-.49Z"/><path class="cls-15" d="M154.12,155c-.05.58-.05.58-1,.34Z"/><path class="cls-25" d="M173.47,130.14v-.44c.54.17.91.41.37,1Z"/><path class="cls-25" d="M129.64,111.5l-1-.45Z"/><path class="cls-5" d="M156.23,154.15l-.26.45-.47,0-.3-.06Z"/><path class="cls-14" d="M403.43,179l-.71-1Z"/><path class="cls-12" d="M151.44,120.6l-1-.43Z"/><path class="cls-23" d="M163,125.39l-.75-.41Z"/><path class="cls-22" d="M402.92,180.47l.48.74Z"/><path class="cls-9" d="M400.47,180.42v0Z"/><path class="cls-9" d="M402.6,177.63l-.4-.49Z"/><path class="cls-10" d="M96.54,150.82l.74.35Z"/><path class="cls-10" d="M173.62,157.21l-.17-.63Z"/><path class="cls-14" d="M96,139.7l-.6-.36Z"/><path class="cls-11" d="M84.23,160l.6.27Z"/><path class="cls-5" d="M155,154.61l-.7.24Z"/><polygon class="cls-11" points="173.16 143.31 173.17 143.32 173.24 143.28 173.16 143.31"/><path class="cls-10" d="M98.07,151.48l.41.19Z"/><path class="cls-10" d="M145.45,155.31l.51-.19Z"/><path class="cls-15" d="M94.37,152.94l-.42-.19Z"/><path class="cls-13" d="M402.6,180l.31.45Z"/><path class="cls-5" d="M108.27,158.7l-.43-.2Z"/><path class="cls-10" d="M99.23,152l.45.19Z"/><path class="cls-14" d="M153.82,141.3l-.07.09h-.12A.13.13,0,0,1,153.82,141.3Z"/><path class="cls-5" d="M138,160.93l-.23.13Z"/><path class="cls-9" d="M400.44,189.25l0,.35Z"/><path class="cls-26" d="M105.37,139.11l-1.12-.33,0-.45a1,1,0,0,1,1.4-.57,24.08,24.08,0,0,0,3.09.58,1.61,1.61,0,0,1,.61.31,3.56,3.56,0,0,0,3.08.91c.18,0,.48,0,.56.07.62.82,1.6.77,2.43,1.1.24.09.38.41.6.57a2.7,2.7,0,0,0,.63.26c0-.26.18-.58.09-.79a6,6,0,0,0-.77-1.12,1.33,1.33,0,0,0-.54-.35,1.47,1.47,0,0,0-.47,0c-2-.05-2.67-.71-2.78-2.71,0-.62-.1-1.09-.87-1.16a.77.77,0,0,1-.53-.52c-.29-2-.61-3.92-.74-5.89a10.48,10.48,0,0,1,.29-4.12,13.4,13.4,0,0,0,.7-4.12c0-.22.49-.42.76-.61a6.42,6.42,0,0,0,1.1-.79c.73-.83,1.35-1.75,2.09-2.57a2.1,2.1,0,0,1,1.06-.47,6,6,0,0,1,1.08-.09l-1.87-1.65a1.56,1.56,0,0,1,1.87.25,2.54,2.54,0,0,0,2.14.49c.19,0,.36-.22.54-.34a6.13,6.13,0,0,0-.42-.58c-.22-.23-.47-.43-.7-.65a5.42,5.42,0,0,1,1-.25c1.38,0,2.76,0,4.14,0,.64,0,1.27-.07,1.91,0a26,26,0,0,1,4.15.29,6.39,6.39,0,0,1,2.9,1.4,1.57,1.57,0,0,0,2.09.18,4,4,0,0,0,.56-.39c.83.56.18.81-.26,1.16,1,1.1,1.93,2.2,2.92,3.28a1.31,1.31,0,0,0,.78.44c.93.08,1.45.61,1.25,1.53-.23,1.08-.47,2.1.6,2.93.18.14.16.59.16.9,0,1.83.07,3.67,0,5.5-.06,1.34-.31,2.67-.48,4a.72.72,0,0,1-.22.42c-1.79,1.4-2.75,3.62-4.77,4.79a11.28,11.28,0,0,0-1.14.61,5.42,5.42,0,0,0-.71.85,6,6,0,0,0,1.07.34,1.37,1.37,0,0,0,.79-.17,8.32,8.32,0,0,1,4.14-1.28,9.76,9.76,0,0,0,1.78-.47c.79-.18,1.6-.3,2.4-.46a2.51,2.51,0,0,0,.88-.26,4.28,4.28,0,0,1,3.32-.32c.07,0,.11.27.17.41l-1.37.46-.57.39-.25,0-.21.15-.88.14c-1-.15-2.06-.21-2.5,1.06l-.85.13-.82.43c-2.35.82-4.71,1.63-7.06,2.47s-4.86,1.73-7.28,2.62a3.73,3.73,0,0,1-2.85-.27c-3.92-1.65-7.86-3.24-11.79-4.85l-1-.44-.71-.27-.56-.37-.65-.11-.54-.38-.91-.29c-.17-.24-.29-.61-.51-.69A7,7,0,0,0,105.37,139.11Zm22.68-19c-.44-1.49-1.62-1.54-2.86-1.39s-2.63.42-4,.59a1.48,1.48,0,0,0-1.46,1.09,2.19,2.19,0,0,1-1,1,4.6,4.6,0,0,0-2.34,4.58c.06,2.06-.13,4.13-.2,6.19,0,.19,0,.48.08.57,1.27,1,1.77,2.9,3.74,3.06a1.84,1.84,0,0,1,.94.66,12.59,12.59,0,0,0,1.12,1.37c.35.29,1,.61,1.31.45a4.36,4.36,0,0,1,3.37-.3c1.58.4,2.39-.37,3.25-1.36.27-.32.63-.77,1-.78,1.05,0,1.56-.72,2.23-1.37,1.09-1.07,1.84-2,1.5-3.77a30,30,0,0,1-.08-5.37c0-1.41-.31-2.68-1.71-3.42a3.71,3.71,0,0,1-1.12-.88C130.83,119.73,129.54,119.71,128.05,120.09Z"/><path class="cls-12" d="M93.7,134.28a3.17,3.17,0,0,0-3-2.25v-.27l.87-.14,2.39.48c.11.15.18.39.32.44a22.1,22.1,0,0,1,3.28,1.08c1,.54,2,.32,3,.37,0-.5.16-1,0-1.23-.8-.83-.41-1.75-.4-2.65,0-1.67,0-3.34,0-5,0-.73,0-1.42,1-1.77.39-.15.5-1.21.66-1.87a3.36,3.36,0,0,0,0-1l1.21-.87h.72l.3.43.41-.43v-.73c1.06-.08,2.12-.18,3.18-.21.2,0,.41.33.62.5-.2.14-.38.36-.6.41-.56.13-1.51,0-1.63.29A3.42,3.42,0,0,0,106,122c.25.87-.08,1.31-.58,2a4.73,4.73,0,0,0-.66,2.42,22.43,22.43,0,0,0,0,3.93,32.93,32.93,0,0,0,.77,4.4c.09.4.57.71.89,1.08-.48.8-1.26.53-1.93.59H104c-.1-.15-.18-.4-.31-.43-.82-.21-1.65-.36-2.47-.53-.15,0-.4-.07-.42-.15-.26-1.18-1.2-.72-1.9-.8-.35,0-.72,0-1.07,0-.76-.09-1.13.19-1,1h-.22l-2-.93Z"/><path class="cls-12" d="M160.05,133.05c.11.18.3.36.29.53a7.25,7.25,0,0,1-.23,1.2h0c-.52.19-1.23-.06-1.48.69l-.09,0h-.09c-.52,0-1,0-1.55,0s-.42.28-.08.51l-1.44.48-1,.48-1.69.66-.25.2-1.92.54c0-.57,0-1.07.78-1,.12,0,.3,0,.35-.05.85-1,2.18-1,3.27-1.47.24-.11.41-.4.61-.61l-.12-.26-2.25.47,1.2-1h1.19l.72-.47h1.92l.71-.47h0c.37-.06.88.18.95-.48Z"/><path class="cls-26" d="M123.89,112c.5-.82,1.88-1.25,2.4-.86a.59.59,0,0,1,.17.5.54.54,0,0,1-.39.34C125.38,112,124.68,112,123.89,112Z"/><path class="cls-26" d="M104,136.41h.48c0,.12,0,.29,0,.35a2.3,2.3,0,0,1-.68.57c-.08,0-.32-.23-.48-.36Z"/><path class="cls-19" d="M103.77,119.66h-.72l.72-1,.72.24v.73Z"/><path class="cls-12" d="M97.76,136l-.44-.1,0-.42a5.45,5.45,0,0,0,.7,0c.76-.1,1.09.21,1,1h-.24l-.71-.25h0l-.09-.32Z"/><path class="cls-26" d="M127.61,112.1h1.17v.23h-1.16Z"/><path class="cls-26" d="M114.9,116.22l-.72,0v-.26l.72-.05Z"/><path class="cls-26" d="M122.8,112.07h.71v.23h-.71Z"/><path class="cls-12" d="M151.67,135.93l.48-.47Z"/><path class="cls-12" d="M100.61,137l-.44-.08.28-.4Z"/><path class="cls-24" d="M101.86,137.78l-.55-.37Z"/><path class="cls-24" d="M104.23,138.33l0,.45-.56-.4Z"/><path class="cls-24" d="M97.3,135.45l0,.42-.53-.39Z"/><path class="cls-24" d="M100.67,137.32l-.06-.24Z"/><path class="cls-24" d="M103.05,138.28l-.26-.18Z"/><path class="cls-27" d="M144,168.26l1.24-.7a10.35,10.35,0,0,0,1.25-.3c3.08-1.18,6.16-2.38,9.24-3.57l.49-.42.47-.05.72-.23.27-.23,1.43-.2a13,13,0,0,1-1.52.88c-2.16.89-4.34,1.74-6.51,2.59-2.62,1-5.25,2-7.85,3-2.85,1.14-5.67,2.34-8.51,3.49s-5.9,2.47-8.91,3.5a4.55,4.55,0,0,1-2.74-.46c-1.81-.68-3.56-1.52-5.33-2.31-.15-.06-.23-.28-.35-.42,1.52.55,3,1.08,4.55,1.66.85.33,1.66.76,2.51,1.07a1.52,1.52,0,0,0,1,0q4.86-1.89,9.7-3.87a4,4,0,0,0,.94-.78v0l1.18,0,.48-.22.72-.26,4.31-1.67Z"/><path class="cls-27" d="M98,164.43l.92.25c.89.47,1.76,1,2.69,1.38,2.21.93,4.45,1.8,6.68,2.69,1.49.64,3,1.26,4.46,1.93a7,7,0,0,1,1,.69c-1-.33-2-.64-3-1-2.42-.93-4.85-1.86-7.25-2.86s-4.54-2-6.8-3c-.09,0-.14-.19-.21-.29h1.17Z"/><path class="cls-27" d="M117.19,172.79a5.56,5.56,0,0,1-3.37-1.42A5.93,5.93,0,0,1,117.19,172.79Z"/><path class="cls-9" d="M135.14,149.82l.69-.53.18.4-.87.13Z"/><path class="cls-13" d="M115,156.92l-.12-.16.24-.12c0,.07.08.14.06.19S115.05,156.89,115,156.92Z"/><path class="cls-9" d="M124.4,161.13l-.52,0Z"/><path class="cls-15" d="M153.17,156.51c.32,0,.65-.09,1-.1a1.4,1.4,0,0,1,.08.4l-1,.18Z"/><path class="cls-15" d="M155.5,154.62l.47,0-.28.39Z"/><path class="cls-15" d="M157.69,162.76l-.27.23-.28-.11Z"/><path class="cls-27" d="M159.83,162.29l-.48.23Z"/><path class="cls-15" d="M156.7,163.22l-.47.05Z"/><path class="cls-27" d="M166,147c-1.08.47-2.15,1-3.25,1.4a18.36,18.36,0,0,1-2.22.52c0-.07.06-.18.11-.2Z"/><path class="cls-27" d="M169.87,145.52c-1.25.53-2.33,1.55-3.82,1.43A4.94,4.94,0,0,1,169.87,145.52Z"/><path class="cls-27" d="M173.45,144.09c-.24.21-.45.51-.73.6-.93.32-1.88.56-2.83.82,0-.11.05-.29.12-.31C171.15,144.82,172.3,144.46,173.45,144.09Z"/><path class="cls-14" d="M155.62,142.72h.95V143h-.95Z"/><path class="cls-27" d="M94.16,162.75c.7.33,1.41.65,2.1,1,.14.07.21.28.31.43-1.22-.39-2.47-.71-3.65-1.19-2.84-1.14-5.65-2.38-8.49-3.55-1.52-.64-3.07-1.22-4.6-1.85-.21-.09-.34-.39-.51-.58.86.26,1.74.46,2.56.8,2.83,1.14,5.63,2.34,8.45,3.49C91.59,161.83,92.88,162.27,94.16,162.75Z"/><path class="cls-27" d="M79.32,157c-.42-.1-1,.27-1.2-.46Z"/><path class="cls-27" d="M78.11,156.54l-.45-.26Z"/><path class="cls-15" d="M93.7,154.42l.08,0-.12.1s0-.06,0-.08S93.67,154.44,93.7,154.42Z"/><path class="cls-12" d="M142.32,141.35c.44-1.27,1.45-1.21,2.5-1.06Z"/><path class="cls-24" d="M105.37,139.11a7,7,0,0,1,1.46.22c.22.08.34.45.51.69Z"/><path class="cls-24" d="M94.58,134.55l2,.93Z"/><path class="cls-24" d="M156.8,136c-.34-.23-.37-.46.08-.51s1,0,1.55,0Z"/><path class="cls-24" d="M158.61,135.46c.25-.75,1-.5,1.48-.69Z"/><path class="cls-24" d="M110.71,141.44l1,.44Z"/><path class="cls-24" d="M154.33,137l1-.48Z"/><path class="cls-12" d="M140.65,141.91l.82-.43Z"/><path class="cls-12" d="M146.16,140l.57-.39Z"/><path class="cls-24" d="M108.25,140.31l.54.38Z"/><path class="cls-24" d="M109.44,140.8l.56.37Z"/><path class="cls-24" d="M98,136.17l.71.25Z"/><path class="cls-24" d="M97.76,136l.17-.13.09.32Z"/><path class="cls-24" d="M152.39,137.81l.25-.2Z"/><path class="cls-12" d="M145.7,140.15l.21-.15Z"/><path class="cls-17" d="M96.8,149.83c1.41.56,2.82,1.1,4.22,1.68a8.57,8.57,0,0,1,1.07.66c-1.33-.49-2.67-.95-4-1.49A7.79,7.79,0,0,1,96.8,149.83Z"/><path class="cls-17" d="M108.13,154.81c.76.08,1.63-.14,2.1.75Z"/><path class="cls-17" d="M102.32,152.22l1,.46Z"/><path class="cls-17" d="M103.51,152.7l.73.42Z"/><path class="cls-17" d="M110.46,155.58l.74.43Z"/><path class="cls-17" d="M106.16,153.64c0,.07,0,.14,0,.21l-.28-.18Z"/><path class="cls-17" d="M106.2,153.88l.21.18Z"/><path class="cls-17" d="M107.15,154.35l.22.18Z"/><path class="cls-3" d="M147,120h-1.41l0-.26,1.42-.11Z"/><path class="cls-13" d="M105,144.79l.27-.19-.27.19Z"/><path class="cls-12" d="M100.65,119.65l-.46.49-.19-.3.65-.19Z"/><path class="cls-5" d="M137.3,170.89l-1.18,0C136.51,170.2,136.86,170.2,137.3,170.89Z"/><path class="cls-15" d="M144,168.26l-1.2.48C142.78,167.5,143.56,168.3,144,168.26Z"/><path class="cls-5" d="M138.5,170.41l-.72.26Z"/><path class="cls-16" d="M98,164.43l-.28-.23Z"/><path class="cls-12" d="M150.45,121.75l.81-.17.08.3-.85.22Z"/><path class="cls-23" d="M162.45,131.63c-.45.93-1.28,1-2.16,1A3,3,0,0,1,162.45,131.63Z"/><path class="cls-19" d="M158.14,134h-1.68c.24-.88,1-.3,1.44-.47Z"/><path class="cls-24" d="M159.81,133.06c-.07.66-.58.42-.95.48C158.92,132.88,159.44,133.11,159.81,133.06Z"/><path class="cls-24" d="M158.14,134l-.24-.47h.95Z"/><path class="cls-19" d="M156.22,134l-.72.47Z"/><path class="cls-23" d="M89.16,130.18l-.73-.47Z"/><path class="cls-6" d="M323.52,183.23h-1.39l0-.24,1.39-.12Z"/><path class="cls-6" d="M325.13,182.86l.33.16a1.41,1.41,0,0,1-.26.28s-.21-.09-.24-.17S325.06,183,325.13,182.86Z"/><path class="cls-6" d="M321.27,182.94l.13.15-.23.15c0-.07-.08-.14-.07-.19S321.21,183,321.27,182.94Z"/><path class="cls-22" d="M345.86,181.42a7.5,7.5,0,0,0,.82,5.74c-.19-.12-.46-.19-.55-.36a6.68,6.68,0,0,1-.58-5.23C345.57,181.5,345.76,181.47,345.86,181.42Z"/><path class="cls-6" d="M349.05,177.12h3v.47h-2.74Z"/><path class="cls-22" d="M346.88,187.42l.74.69C347.08,188.19,346.83,188,346.88,187.42Z"/><path class="cls-25" d="M128.05,120.09c1.49-.38,2.78-.36,3.78.89a3.71,3.71,0,0,0,1.12.88c1.4.74,1.69,2,1.71,3.42a30,30,0,0,0,.08,5.37c.34,1.76-.41,2.7-1.5,3.77-.67.65-1.18,1.33-2.23,1.37-.34,0-.7.46-1,.78-.86,1-1.67,1.76-3.25,1.36a4.36,4.36,0,0,0-3.37.3c-.26.16-1-.16-1.31-.45a12.59,12.59,0,0,1-1.12-1.37,1.84,1.84,0,0,0-.94-.66c-2-.16-2.47-2.07-3.74-3.06-.11-.09-.09-.38-.08-.57.07-2.06.26-4.13.2-6.19a4.6,4.6,0,0,1,2.34-4.58,2.19,2.19,0,0,0,1-1,1.48,1.48,0,0,1,1.46-1.09c1.33-.17,2.64-.42,4-.59S127.61,118.6,128.05,120.09Z"/><path class="cls-26" d="M103.77,119.66h.71l-.41.43Z"/></svg>