<svg xmlns="http://www.w3.org/2000/svg" xmlns:xlink="http://www.w3.org/1999/xlink" width="89" height="45" viewBox="0 0 89 45"><defs><clipPath id="a"><path fill="#fff" d="M15.21 13h59v20h-59z"/></clipPath></defs><g transform="translate(-.213)"><path fill="#e7eef2" d="M.21 0h89v45h-89z"/><g clip-path="url(#a)"><g transform="translate(15.213 14.348)"><path fill="#d6e2e8" d="M59 8.1a2.1 2.1 0 0 0-1.11-1.86L46.4.05a.45.45 0 0 0-.66.4v15.83a1.03 1.03 0 0 0 1.03 1.02h10.12A2.1 2.1 0 0 0 59 15.2Z"/><path fill="#393d52" d="M45.6 0H2.11A2.1 2.1 0 0 0 0 2.11v13.08a2.1 2.1 0 0 0 2.11 2.11H45.6a2.1 2.1 0 0 0 2.11-2.11V2.11A2.1 2.1 0 0 0 45.6 0"/><path fill="#fff" d="m6.55 5.18-2.52 7.24h2.8l.2-.9h2l.22.9h2.78L9.47 5.18ZM7.5 9.8 8 7.6h.04l.5 2.2Zm7.47-1.79v-.68h-2.48v5.09h2.48v-2.16a.9.9 0 0 1 .96-.83 1.3 1.3 0 0 1 .77.27V7.23a2.4 2.4 0 0 0-1.25.25 2 2 0 0 0-.48.53m8.73-.68h-2.9l-.96 1.87h-.05V4.62h-2.5v7.8h2.5v-1.88h.05l1.04 1.88h2.92l-1.97-2.6Zm3.16 0h-2.5v5.09h2.5Zm-1.23-2.78a1.24 1.24 0 0 0-1.36 1.19c0 .7.5 1.18 1.36 1.18.8 0 1.35-.43 1.35-1.18a1.23 1.23 0 0 0-1.36-1.2m5 5.2h-.07l-.64-2.41h-2.69l2.25 5.09h2.25l2.21-5.1h-2.68ZM37 5.18h-2.66v7.23H37Zm.5 0v2.34h1.44v4.9h2.66v-4.9h1.44V5.18Z"/></g></g></g></svg>