<svg id="Lager_1" data-name="Lager 1" xmlns="http://www.w3.org/2000/svg" viewBox="0 0 600 300"><defs><style>.cls-1{fill:#e8eff3;}.cls-2{fill:#262362;}.cls-3{fill:#272362;}.cls-4{fill:#272463;}.cls-5{fill:#262262;}.cls-6{fill:#060606;}.cls-7{fill:#040404;}.cls-8{fill:#050505;}.cls-9{fill:#070707;}.cls-10{fill:#030303;}.cls-11{fill:#080808;}.cls-12{fill:#020202;}.cls-13{fill:#0a0a0a;}</style></defs><rect class="cls-1" width="600" height="300"/><g id="Olmia"><path class="cls-2" d="M213.74,102.9c19.16-.26,32.07,14.23,35.22,26,3.64,13.65,1,25.86-9.06,36.09a36,36,0,0,1-21.56,10.65,37.17,37.17,0,0,1-37.11-18.2,36.17,36.17,0,0,1-4.5-17.29,33.58,33.58,0,0,1,5.7-20.34c5.76-8.4,13.44-14.13,23.57-16.17,2.54-.51,5.14-.66,7.72-1Zm24.91,35.85a26.55,26.55,0,0,0-.85-6.29,25.08,25.08,0,0,0-43.85-9,24.53,24.53,0,0,0-5.38,16.81,24.16,24.16,0,0,0,5.55,15.35c8,9.5,19.2,11.35,29.06,7.47C230.61,160.14,238.76,152,238.65,138.75Z"/><path class="cls-3" d="M319.86,174.7H308.43V150.13a23.85,23.85,0,0,0-.74-6.51l-.12-.38c-.9-2.77-2.45-4.13-5-4.31a6.17,6.17,0,0,0-6.34,3.61,17.73,17.73,0,0,0-1.44,7.53c-.06,7.92,0,15.85,0,23.77v.84H283.47V129.81h11.3v2.86l.13.17a12.49,12.49,0,0,1,11.1-4.25,14,14,0,0,1,10.39,5.93c.36-.39.7-.77,1.05-1.13a15.77,15.77,0,0,1,12.1-4.84,17.39,17.39,0,0,1,6.38,1.14c4.08,1.63,6.42,4.77,7.67,8.85a26.91,26.91,0,0,1,1.09,7.82q0,13.9,0,27.81c0,.16,0,.31,0,.51h-11.4v-.83c0-8.44,0-16.88,0-25.33a18.74,18.74,0,0,0-.88-6.08A4.79,4.79,0,0,0,328,139a6.21,6.21,0,0,0-7.14,4.54,23.39,23.39,0,0,0-1,7.48q0,11.41,0,22.84Z"/><path class="cls-3" d="M411.33,133.91v-4.09h11.38v44.86H411.36v-3.76l-.94.73a19.14,19.14,0,0,1-13.9,4.24A19.93,19.93,0,0,1,381.34,167a27.7,27.7,0,0,1-1.25-27.6c3.17-5.49,7.68-9.28,14.05-10.5a18.74,18.74,0,0,1,16.56,4.46Zm.6,18.44a15.1,15.1,0,0,0-1.13-6.23c-1.92-4.38-5.17-7-10.05-7.17a10.43,10.43,0,0,0-10.37,6,15.38,15.38,0,0,0,.5,15.64,10,10,0,0,0,8.78,5.09,10.9,10.9,0,0,0,10.78-6.35A15,15,0,0,0,411.93,152.35Z"/><path class="cls-4" d="M271.75,174.69H260.46V97.74h11.29Z"/><path class="cls-5" d="M356.13,129.8h11.28v44.88H356.13Z"/><path class="cls-3" d="M361.75,119.52a7.22,7.22,0,1,1,7.24-7.19A7.2,7.2,0,0,1,361.75,119.52Z"/><path class="cls-6" d="M314.69,198.46h2.18a2.49,2.49,0,0,0,3.09,1.8c1.39-.29,1.86-1.33,1.72-3.85a2.37,2.37,0,0,0-.28.15,4.2,4.2,0,0,1-4.48.6,4.34,4.34,0,0,1-2.62-3.72,5.37,5.37,0,0,1,.79-3.66,4.3,4.3,0,0,1,6.24-1l.33.25.08-.86h2.19c0,.21,0,.38,0,.55,0,3,0,5.91,0,8.86,0,2.3-1,3.83-2.89,4.43a5.53,5.53,0,0,1-4-.17A3.91,3.91,0,0,1,314.69,198.46Zm7.13-5.79a2.68,2.68,0,0,0-2.34-2.87,2.53,2.53,0,0,0-2.87,2.12,3,3,0,0,0,1.6,3.53A2.68,2.68,0,0,0,321.82,192.67Z"/><path class="cls-7" d="M186.23,195.18h6v2h-8.29V182.82h8.27v2h-6v3.44h5.83v2.09h-5.85Z"/><path class="cls-6" d="M274.74,185l-1.82,1c-.13-.16-.25-.31-.36-.47a2.45,2.45,0,0,0-3.3-.56,1.46,1.46,0,0,0-.07,2.59,13.06,13.06,0,0,0,1.82.84c.63.29,1.28.55,1.89.86,3.19,1.65,2.76,5.85.19,7.49a4.92,4.92,0,0,1-7.56-2.93,4.23,4.23,0,0,1-.07-.57l2.27-.49c.08.34.13.65.21.94a2.42,2.42,0,0,0,3.06,1.68,2.35,2.35,0,0,0,1.74-2.89,2.16,2.16,0,0,0-1.21-1.45c-.7-.35-1.44-.61-2.14-.95a10.73,10.73,0,0,1-1.83-1,3.42,3.42,0,0,1-.07-5.58A4.87,4.87,0,0,1,274.74,185Z"/><path class="cls-8" d="M343.76,193.23l2.24-.47c.09.37.16.71.27,1a2.3,2.3,0,0,0,2.4,1.65,2.4,2.4,0,0,0,2.33-1.69,2.16,2.16,0,0,0-1.06-2.64c-.71-.41-1.51-.68-2.25-1a11.43,11.43,0,0,1-1.83-1,3.41,3.41,0,0,1-.2-5.49A4.83,4.83,0,0,1,353,185L351.15,186a2.26,2.26,0,0,0-2.45-1.41,3.3,3.3,0,0,0-1.44.61,1.33,1.33,0,0,0,0,2.15,5.67,5.67,0,0,0,1.27.73c.81.37,1.67.65,2.46,1.06a4,4,0,0,1,2.38,4.58,4.63,4.63,0,0,1-4,3.74C346.35,197.86,344,196.1,343.76,193.23Z"/><path class="cls-7" d="M309.74,189l.08-.84H312v9h-2.16l-.06-.81a4.48,4.48,0,0,1-4.37.91,4.24,4.24,0,0,1-2.28-1.78,5.32,5.32,0,0,1,.58-6.4C305.25,187.53,307.29,187.48,309.74,189Zm-2.47.81a2.67,2.67,0,0,0-2.69,2.81,2.71,2.71,0,0,0,2.58,3,2.91,2.91,0,0,0,.11-5.8Z"/><path class="cls-6" d="M257.13,193.18h-6.68a2.26,2.26,0,0,0,1.42,2.25c1.64.58,2.69-.23,3.53-1.6l1.84,1a5,5,0,0,1-5.91,2.53,4.56,4.56,0,0,1-3.3-4.92c.23-4.1,3.55-5.12,6.15-4.37A4.4,4.4,0,0,1,257.13,193.18Zm-2.31-1.76a2,2,0,0,0-2.39-1.62,1.93,1.93,0,0,0-1.8,1.62Z"/><path class="cls-8" d="M335.49,193.19H328.7a2.35,2.35,0,0,0,1.52,2.26c1.28.46,2,.11,3.51-1.59l1.8,1a5,5,0,0,1-5.93,2.52,4.53,4.53,0,0,1-3.28-4.86c.09-1.87.76-3.45,2.57-4.21a4.7,4.7,0,0,1,5.07.59C335.3,189.94,335.52,191.48,335.49,193.19Zm-2.37-1.77A2,2,0,0,0,331,189.8a2,2,0,0,0-2.08,1.62Z"/><path class="cls-8" d="M214.65,193.85l1.93,1a14.29,14.29,0,0,1-1.45,1.6,5.33,5.33,0,0,1-5.69.42,4.91,4.91,0,0,1-2.13-5.07c.59-4,4.32-4.55,6.62-3.59,1.74.73,2.67,2.6,2.45,4.91h-6.67a2.2,2.2,0,0,0,1.35,2.27C212.37,196,213.34,195.54,214.65,193.85Zm-.59-2.43a2,2,0,0,0-2.4-1.62,1.9,1.9,0,0,0-1.8,1.62Z"/><path class="cls-6" d="M287.94,197.52a4.85,4.85,0,1,1,5.14-4.79A4.88,4.88,0,0,1,287.94,197.52Zm2.85-4.83A2.65,2.65,0,0,0,288,189.8a2.9,2.9,0,0,0,0,5.8A2.67,2.67,0,0,0,290.79,192.69Z"/><path class="cls-6" d="M360.31,197.52a4.84,4.84,0,1,1,0-9.68,4.85,4.85,0,1,1,0,9.68Zm0-7.72a2.9,2.9,0,1,0,2.83,2.89A2.7,2.7,0,0,0,360.33,189.8Z"/><path class="cls-6" d="M398.63,197.52a4.84,4.84,0,1,1,0-9.68,4.85,4.85,0,1,1,0,9.68Zm.07-7.72a2.9,2.9,0,1,0,2.79,2.93A2.72,2.72,0,0,0,398.7,189.8Z"/><path class="cls-8" d="M406.13,188.13h2.13l.09.73a3.93,3.93,0,0,1,3.09-1c1.65.23,2.65,1,2.76,2.69.14,2.2,0,4.42,0,6.64h-2.15v-3.58c0-.78,0-1.57-.07-2.35a1.38,1.38,0,0,0-1.42-1.47c-1.12-.1-1.82.27-2,1.2a10.76,10.76,0,0,0-.24,2.12c0,1.34,0,2.69,0,4.07h-2.17Z"/><path class="cls-9" d="M197.18,197.2h-2.27v-7.08l-.75,0v-2l.74-.06c0-.65,0-1.32,0-2,0-.89,0-1.79.1-2.68.26-2.21,2.83-2.61,4.31-2a.52.52,0,0,1,.22.42c0,.57,0,1.15,0,1.8a7.79,7.79,0,0,0-1-.36c-.84-.24-1.34.06-1.38.94,0,1.26,0,2.54,0,3.86h2.31v2h-2.32Z"/><path class="cls-10" d="M203.81,197.21h-2.22v-7.06l-.79-.09v-1.91l.76-.1c0-1.12,0-2.25,0-3.38a7.61,7.61,0,0,1,.18-1.66c.46-1.85,2.87-2.18,4.24-1.58.11,0,.18.29.19.44,0,.56,0,1.12,0,1.75-.34-.13-.64-.26-1-.35-.82-.22-1.31,0-1.36.88-.08,1.29,0,2.58,0,3.93h2.28v2h-2.32Z"/><path class="cls-11" d="M372.72,188.13h2.18V190c0,1.3,0,2.6,0,3.9a1.82,1.82,0,0,0,3.63,0c0-1.63,0-3.27,0-4.9v-.77h2.24c0,1.65,0,3.28,0,4.91a10.76,10.76,0,0,1-.11,1.6,3,3,0,0,1-1.27,2.06,4.83,4.83,0,0,1-5.42,0,2.91,2.91,0,0,1-1.29-2.26C372.7,192.35,372.72,190.27,372.72,188.13Z"/><path class="cls-9" d="M226.2,194.09c0,.91,0,1.68,0,2.46a.64.64,0,0,1-.3.44,5.65,5.65,0,0,1-5.88-.66,4.46,4.46,0,0,1-1.5-5,4.76,4.76,0,0,1,3.93-3.42,5.66,5.66,0,0,1,3.3.33.6.6,0,0,1,.48.67c0,.73,0,1.46,0,2.42-1-1.15-2-1.85-3.31-1.51a3.56,3.56,0,0,0-1.67,1,3,3,0,0,0,.26,4C222.75,196,224.3,195.81,226.2,194.09Z"/><path class="cls-6" d="M416.5,195.24l1.84-.82c.17.23.3.43.45.62a1.28,1.28,0,0,0,1.42.52,1.15,1.15,0,0,0,.72-.58,1.06,1.06,0,0,0-.2-.9,3.43,3.43,0,0,0-1-.66c-.49-.26-1-.49-1.51-.73-1.84-.92-1.44-3.34-.23-4.22a3.08,3.08,0,0,1,4.68,1.21l-1.79.92a5.45,5.45,0,0,0-.49-.56.78.78,0,0,0-1.18,0c-.36.51,0,.82.37,1,.78.42,1.61.78,2.4,1.19a2.1,2.1,0,0,1,1.29,2,4,4,0,0,1-.66,2A3.63,3.63,0,0,1,416.5,195.24Z"/><path class="cls-6" d="M242.42,197.91c-1.67-3.31-3.28-6.52-4.93-9.81.81,0,1.52,0,2.23,0,.18,0,.41.29.51.5.73,1.48,1.44,3,2.21,4.56.63-1.29,1.3-2.46,1.76-3.7s1-1.62,2.21-1.39a5.29,5.29,0,0,0,1,0Z"/><path class="cls-12" d="M369.93,197.21h-2.12V181.43h2.12Z"/><path class="cls-11" d="M230.67,197.21h-2.2v-7.07l-.94-.07v-1.94l.89-.06v-3.28h2.22v3.29h1.7v2h-1.67Z"/><path class="cls-9" d="M385.91,197.2h-2.22v-7.07l-.93-.06v-1.95h.89V184.8h2.25v3.28h1.67v2h-1.66Z"/><path class="cls-10" d="M280,188.11h1.72v2H280v7.11h-2.18v-7.06l-.93-.07v-1.93l.88-.07v-3.28H280Z"/><path class="cls-7" d="M297.58,188.15l.09.66a3,3,0,0,1,4-.4l-1,1.92-.51-.24a1.62,1.62,0,0,0-2.37,1.2,11.62,11.62,0,0,0-.15,2.13c0,1.25,0,2.5,0,3.78h-2.18v-9Z"/><path class="cls-13" d="M236,197.21h-2.16v-9.07H236Z"/><path class="cls-12" d="M391.31,197.21h-2.14v-9.07h2.14Z"/><path class="cls-9" d="M390.24,185.71a1.38,1.38,0,0,1-1.46-1.35,1.46,1.46,0,1,1,1.46,1.35Z"/><path class="cls-9" d="M236.33,184.35a1.44,1.44,0,0,1-2.88-.06,1.44,1.44,0,0,1,2.88.06Z"/></g></svg>