<svg id="Lager_1" data-name="Lager 1" xmlns="http://www.w3.org/2000/svg" xmlns:xlink="http://www.w3.org/1999/xlink" viewBox="0 0 600 300"><defs><style>.cls-1{fill:none;}.cls-2{fill:#e8eff3;}.cls-3{clip-path:url(#clip-path);}.cls-4{clip-path:url(#clip-path-2);}.cls-5{fill:#001a70;}.cls-6{fill:#0083ca;}.cls-7{fill:#6c8cc7;}</style><clipPath id="clip-path"><rect class="cls-1" x="84" y="42" width="432" height="216"/></clipPath><clipPath id="clip-path-2"><rect class="cls-1" x="102" y="85.31" width="396" height="129.38"/></clipPath></defs><rect class="cls-2" width="600" height="300"/><g id="Layer_2" data-name="Layer 2"><g id="Layer_1-2" data-name="Layer 1-2"><g id="Logo_Color_Horizontal" data-name="Logo Color Horizontal"><g class="cls-3"><g class="cls-4"><path class="cls-5" d="M268.1,170.63v-.83l9.9-3.38c6.66-2.27,10.3-5,10.3-11.88,0-5.58-4.36-9.36-11.45-9.36-8.6,0-14.4,4.71-15.26,11.16l-1.69,12.31a21.8,21.8,0,0,0-.22,2.91c0,5.8,3.78,9.4,12,9.4H283l1.08-7.2H272.75c-3.13,0-4.65-1-4.65-3M269.9,157c.44-3.17,2.7-4.5,6.23-4.5,2.31,0,4.21.83,4.21,2.77s-.64,3-3,3.6l-8.1,2.81Z"/><polygon class="cls-5" points="307.02 131.82 293.41 131.82 292.33 139.13 297.48 139.13 292.73 173.65 286.75 173.65 285.71 180.96 306.01 180.96 307.09 173.65 301.19 173.65 307.02 131.82"/><polygon class="cls-5" points="410.81 130.85 402.38 130.85 401.09 140.03 409.51 140.03 410.81 130.85"/><polygon class="cls-5" points="408.83 145.18 395.15 145.18 394.07 152.45 399.29 152.45 396.37 173.65 390.4 173.65 389.35 180.96 409.73 180.96 410.81 173.65 404.8 173.65 408.83 145.18"/><path class="cls-5" d="M430.14,145.18h0c-8.06,0-14.4,3.6-14.4,10.8,0,10.36,14.4,9.07,14.4,14.4,0,3-3,3.34-5.54,3.34H413.8l-1.05,7.2h10.73c9.43,0,15-4.71,15-11.73,0-10.8-14.4-9.76-14.4-14.4,0-1.59,1.66-2.52,5.22-2.52h9.58l1-7.2Z"/><path class="cls-5" d="M355.87,145.14h0c-8.06,0-14.58,3.6-14.58,10.8,0,10.37,14.4,9.11,14.4,14.4,0,3-3,3.35-5.54,3.35h-10.8l-1.08,7.2h11.12c9.43,0,15.05-4.72,15.05-11.74,0-10.8-14.4-9.75-14.4-14.4,0-1.58,1.66-2.52,5.22-2.52h9.54l1-7.2Z"/><path class="cls-5" d="M488.1,145.18h0c-8.06,0-14.4,3.6-14.4,10.8,0,10.36,14.4,9.07,14.4,14.4,0,3-3,3.34-5.58,3.34h-10.8l-1,7.2H481.8c9.43,0,15-4.71,15-11.73,0-10.8-14.4-9.76-14.4-14.4,0-1.59,1.62-2.52,5.22-2.52h9.58l1-7.2Z"/><polygon class="cls-5" points="466.03 145.18 455.23 167.78 450.8 145.18 441.84 145.18 449.44 178.87 441.91 193.85 450.41 193.85 475 145.18 466.03 145.18"/><path class="cls-5" d="M332,145.18l-.72,2.77a9.91,9.91,0,0,0-7.2-2.81,13.11,13.11,0,0,0-13.32,11.63L309,169.37a15.22,15.22,0,0,0,0,1.91A9.32,9.32,0,0,0,318,181a8.53,8.53,0,0,0,1.24,0,11.46,11.46,0,0,0,7.95-3v3h7.56l4.9-35.78Zm-2.59,12.45-1.69,12a5.58,5.58,0,0,1-5.87,4c-2.67,0-4.54-1.29-4.54-3.6a21.45,21.45,0,0,1,.29-2.88l1.66-10.8a5.25,5.25,0,0,1,5.9-4c2.59,0,4.5,1.33,4.5,3.6a16.64,16.64,0,0,1,0,1.73"/><path class="cls-5" d="M379.2,171.6c0-.71.11-1.42.22-2.12l2.41-17.18h6.69l1.08-7.2h-6.55l1.08-7.81H375.6l-1.08,7.81h-6.37l-1,7.2h6.48l-2.48,18a27.25,27.25,0,0,0-.29,3c0,5.15,3,7.6,10.3,7.6h5.76l1-7.2h-4.36c-3.38,0-4.14-.58-4.14-1.95"/><path class="cls-6" d="M102,214.8c2.09-13.79,11.81-62.6,45.32-62.6a35,35,0,0,1,6.05.5c10.59,2.27,17.28,9.65,17,18.79C170,186,151.75,206,102,214.8"/><path class="cls-7" d="M151.61,204c16.92-9.9,24-21.92,24.26-32.4.33-11.92-8.06-21.6-21.42-24.34h0a48,48,0,0,0-7-.57c-18,0-29.7,11.41-37.41,25.2,9.87-23.44,26.61-46.08,54.51-46.08a58.42,58.42,0,0,1,9,.72c16,3.6,26.07,14.65,25.71,28.51-.58,15.19-14,34.56-47.63,49"/><path class="cls-5" d="M241.39,128.4c-.65,23.08-21.27,52.09-73.08,73.26a112.14,112.14,0,0,0,10-6.37c16.52-11.88,25.85-26.21,26.24-40.43.47-16.63-11.34-30-30.09-34.06h0a63.17,63.17,0,0,0-9.9-.82c-26,0-46.8,17.82-60.48,51.51,1.73-5.43,3.6-11,5.94-16.56C128.5,108.78,155.6,85.2,190.45,85.2a82.33,82.33,0,0,1,13.11,1.08c23.54,5.08,38.41,21.6,37.83,42.12"/></g></g></g></g></g></svg>