<svg id="Lager_1" data-name="Lager 1" xmlns="http://www.w3.org/2000/svg" viewBox="0 0 600 300"><defs><style>.cls-1{fill:#e8eff3;}.cls-2{fill:#02313d;}.cls-3{fill:#01313c;}.cls-4{fill:#f4a801;}.cls-5{fill:#80c6bb;}.cls-6{fill:#01313d;}</style></defs><rect class="cls-1" width="600" height="300"/><path class="cls-2" d="M92.63,134.92a11.61,11.61,0,0,1,6.52-4.57,19.48,19.48,0,0,1,18.07,3.84,18.84,18.84,0,0,1,7,13.73c.55,6.54-.89,12.55-5.21,17.66-5.1,6-13.8,8.39-20.78,5.62a38.37,38.37,0,0,1-3.74-1.95V170c0,3.7.05,7.4,0,11.09a5.8,5.8,0,0,0,2,4.62,7.9,7.9,0,0,1,1.27,1.44A1.74,1.74,0,0,1,96.19,190q-7.84,0-15.71,0c-1.71,0-2.45-1.42-1.55-2.9a9.29,9.29,0,0,1,1.28-1.52,5.83,5.83,0,0,0,1.73-4.29q-.06-18.84,0-37.68a4.22,4.22,0,0,0-1.67-3.53c-.36-.29-.7-.6-1.08-.86a2.41,2.41,0,0,1,.46-4.36c2.93-1.4,5.84-2.86,8.75-4.29a15.83,15.83,0,0,1,1.68-.77c1.55-.53,2.45.12,2.48,1.76,0,1.1,0,2.21,0,3.31C92.53,134.86,92.56,134.87,92.63,134.92Zm1.83,14.24c0,2.57,0,5.14,0,7.7a13.31,13.31,0,0,0,3.8,9.54,7.07,7.07,0,0,0,11.15-1.15,14.94,14.94,0,0,0,2.21-7.43,42.21,42.21,0,0,0-1.24-13.43,19.86,19.86,0,0,0-4.13-8.65,6.24,6.24,0,0,0-5.79-2.36,7.28,7.28,0,0,0-6,7.15C94.44,143.41,94.46,146.29,94.46,149.16Z"/><path class="cls-3" d="M300.45,136.12a13.69,13.69,0,0,1,5.68-5.07c5-2.38,12.77-2.07,17.51,2.44a16.49,16.49,0,0,1,4.85,8.91,75.31,75.31,0,0,1,1.09,8.61c.35,4.07.55,8.14.82,12.21a7,7,0,0,0,1.89,4.13,3.55,3.55,0,0,1,1.18,2.5A1.5,1.5,0,0,1,332,171.5a5.62,5.62,0,0,1-.92,0H316.91c-.79,0-1.61,0-2-.86a2.27,2.27,0,0,1,.41-2.45c.36-.46.76-.9,1.15-1.34a5.43,5.43,0,0,0,1.34-4.12c-.26-4.2-.46-8.4-.69-12.6a43.68,43.68,0,0,0-1.09-9.54,16.26,16.26,0,0,0-1.15-2.92c-2.25-4.41-8.15-3.93-10.54-.75a10.74,10.74,0,0,0-2,6.58c0,6.57,0,13.15,0,19.73a5.35,5.35,0,0,0,2,3.93,11.64,11.64,0,0,1,1.32,1.4,1.94,1.94,0,0,1,.23,2,1.65,1.65,0,0,1-1.67.89H288a1.69,1.69,0,0,1-1.69-.86,2,2,0,0,1,.25-2.11c.57-.69,1.23-1.31,1.85-1.95a5,5,0,0,0,1.43-3.7c0-6.39,0-12.79,0-19.19a4.68,4.68,0,0,0-1.87-3.93c-.53-.42-1.07-.81-1.55-1.27-1.25-1.15-1.12-2.57.37-3.32q5.49-2.77,11-5.41c1.47-.7,2.55.09,2.6,1.79,0,.77,0,1.54,0,2.31Z"/><path class="cls-4" d="M485.6,135.76V149.4c0,1.26-.69,2.06-1.78,2s-1.73-.77-1.77-2a13.57,13.57,0,0,0-.18-1.91,4.48,4.48,0,0,0-4.29-3.93c-.84-.08-1.69-.12-2.54-.13-3.67,0-7.34,0-11-.06a22,22,0,0,1-4.56-.66,8.66,8.66,0,0,1-6.81-7.4,36.84,36.84,0,0,1-.57-6.11c-.08-4.83,0-9.66,0-14.49a28.76,28.76,0,0,1,.2-3.07,1.68,1.68,0,0,1,1.57-1.54A7.25,7.25,0,0,1,455,110c6.19,0,12.38,0,18.57,0a21.11,21.11,0,0,1,4.18.56c4.23.88,6.63,3.59,7.38,7.77a31.8,31.8,0,0,1,.47,5C485.65,127.49,485.6,131.63,485.6,135.76Z"/><path class="cls-5" d="M488.53,135.68c0-4.6-.09-9.2,0-13.79a21.26,21.26,0,0,1,.95-5.42c1.09-3.53,3.81-5.31,7.29-6a29.27,29.27,0,0,1,5-.48c5.57,0,11.14,0,16.72,0,2.78,0,3.41.62,3.41,3.38,0,5.75.06,11.51,0,17.26a25.47,25.47,0,0,1-.77,5.69c-.95,3.81-3.61,5.92-7.38,6.63a30.4,30.4,0,0,1-5,.48c-3.49.08-7,0-10.48,0a12.74,12.74,0,0,0-2.81.37,4.1,4.1,0,0,0-3.22,3.69c-.12.7-.13,1.42-.18,2.14a1.9,1.9,0,0,1-1.27,1.67,1.6,1.6,0,0,1-1.86-.54,2.18,2.18,0,0,1-.4-1.27c0-4.62,0-9.25,0-13.87Z"/><path class="cls-6" d="M363.05,167.54c-2.71,3.51-6.41,4.62-10.55,4.74A20.12,20.12,0,0,1,341.73,170c-4.42-2.49-6.25-6.43-6-11.37.27-5.59,3.32-9.21,8.46-11a18.9,18.9,0,0,1,15,.6c.39.19.75.42,1.26.69-.18-1.51-.26-2.93-.52-4.32-.45-2.36-.91-4.73-1.57-7a5.55,5.55,0,0,0-3.18-3.85c-2.26-.92-5.05-.69-6.61,1.91-.78,1.31-1.33,2.76-2,4.12a19.09,19.09,0,0,1-1.76,3c-1.21,1.52-3.31,1.88-5.43,1.11a4.43,4.43,0,0,1-3-4.17,7.58,7.58,0,0,1,3.48-6.58A18.14,18.14,0,0,1,348,130a24.68,24.68,0,0,1,12.67.95c6.32,2.35,10.07,7,11.46,13.49.65,3,.88,6.14,1.27,9.22.42,3.31.79,6.62,1.22,9.93a5.15,5.15,0,0,0,3.09,4.36c.68.3,1.28.72,1.24,1.59a1.7,1.7,0,0,1-1.4,1.55,17.79,17.79,0,0,1-3.52.74,44.28,44.28,0,0,1-5.76,0C365.11,171.62,364,170.62,363.05,167.54Zm-1.47-6.3c-.09-1.11-.16-2.06-.24-3a11.38,11.38,0,0,0-1.32-4.7A6.1,6.1,0,0,0,348.7,155a12.28,12.28,0,0,0-.13,5.12,12,12,0,0,0,2.84,6.53,5.43,5.43,0,0,0,8.22.06A7.58,7.58,0,0,0,361.58,161.24Z"/><path class="cls-6" d="M435.72,148.91c-.19-1.59-.33-3-.53-4.52a27.42,27.42,0,0,0-1.86-7.66,5.49,5.49,0,0,0-6.81-3.28,4.21,4.21,0,0,0-2.65,2.1c-.71,1.27-1.29,2.61-1.94,3.92-.41.82-.78,1.67-1.27,2.45a4.8,4.8,0,0,1-6.21,1.81,4.72,4.72,0,0,1-2.77-5.29c.41-2.84,2.16-4.69,4.5-6.09a20.38,20.38,0,0,1,8.16-2.54,24.56,24.56,0,0,1,11.1.94c6.51,2.26,10.43,6.9,11.9,13.55.65,2.94.88,6,1.26,9,.43,3.41.8,6.83,1.24,10.24a5.14,5.14,0,0,0,3.08,4.38,3.11,3.11,0,0,1,.4.22c1.15.7,1.23,2,0,2.63a8.44,8.44,0,0,1-3.13.92,50.57,50.57,0,0,1-7.28.08c-2.76-.21-3.9-1.41-4.6-4.22-.33.38-.61.73-.92,1.06a11.61,11.61,0,0,1-6.9,3.42,22.24,22.24,0,0,1-11.73-1.13c-5.36-2.09-8.07-6.4-7.8-12.39a10.78,10.78,0,0,1,5.11-9.17c5.82-3.64,12-3.86,18.24-1.19.23.1.45.25.67.37Zm1.07,11.87c0-.33,0-.66-.07-1a15,15,0,0,0-1.33-6,6.16,6.16,0,0,0-6-3.45A6,6,0,0,0,424,155a13.47,13.47,0,0,0,.28,7.07,9.93,9.93,0,0,0,3,5.16,5.37,5.37,0,0,0,7.45-.33A7.67,7.67,0,0,0,436.79,160.78Z"/><path class="cls-6" d="M162.28,150.84A20.87,20.87,0,0,1,179,130.22c7.82-1.65,15-.21,21.19,5.05a20.06,20.06,0,0,1,7.18,16.26,20.27,20.27,0,0,1-6.2,14.77,20.83,20.83,0,0,1-13,5.87,24.42,24.42,0,0,1-16.62-4,20.44,20.44,0,0,1-9.25-16.55Zm32.28,5.3a38.43,38.43,0,0,0-2.44-12.93,20,20,0,0,0-4.77-7.8,6.65,6.65,0,0,0-10.88,1.92,17.35,17.35,0,0,0-1.59,7.76,35.65,35.65,0,0,0,3.2,15.15,16.47,16.47,0,0,0,4.81,6.67c3.77,2.92,8.18,1.82,10.17-2.51A20.07,20.07,0,0,0,194.56,156.14Z"/><path class="cls-6" d="M259.34,156a12.19,12.19,0,0,0,19.24,4.39,12.68,12.68,0,0,0,1.55-1.8,1.87,1.87,0,0,1,2.22-.76,1.64,1.64,0,0,1,.77,2,14.71,14.71,0,0,1-6.83,9.55c-9,6-26.4,3.55-30.36-12.37-1.49-6-1.13-11.91,2.13-17.33,4.15-6.91,10.45-10.11,18.43-10.06a18.66,18.66,0,0,1,9.11,2.19,11.59,11.59,0,0,1,6.28,8.53c.56,3.39-.68,5.7-3.82,7.14L260,155.7Zm-1.5-4,.36-.11c3.59-1.81,7.18-3.61,10.76-5.43a3.61,3.61,0,0,0,2.06-3,10.48,10.48,0,0,0-2.93-8.3,5.38,5.38,0,0,0-7.84,0,9.55,9.55,0,0,0-2.31,3.85,21.94,21.94,0,0,0-.7,9.29C257.37,149.46,257.63,150.71,257.84,152Z"/><path class="cls-6" d="M382.45,135.45h-3.88a1.65,1.65,0,0,1-1.87-1.83,13.2,13.2,0,0,1,0-1.54,1.51,1.51,0,0,1,1.6-1.6c1-.06,1.95,0,2.92-.06,3.72-.3,6.12-2.38,7.54-5.7a15.13,15.13,0,0,0,.79-2.64c.37-1.57,1-2.12,2.61-2.12,2.65,0,3,.38,3,3v7.47h9.33c1.66,0,2.27.63,2.28,2.28v.77a1.76,1.76,0,0,1-2,2h-9.52v.73q0,10.83,0,21.65a7.29,7.29,0,0,0,.21,1.75c.68,2.78,2.86,4.06,5.74,3.4a5.49,5.49,0,0,0,4-3.28,2.32,2.32,0,0,1,.55-.82,1.69,1.69,0,0,1,1.92-.35,1.44,1.44,0,0,1,.8,1.6c-.25,4.42-2.08,8-5.93,10.27a14,14,0,0,1-13,.75c-3.77-1.59-5.74-4.76-6.58-8.64a21.08,21.08,0,0,1-.5-4.34c-.05-7.27,0-14.54,0-21.8Z"/><path class="cls-2" d="M142,137.49c.31-.63.6-1.28.93-1.9a11.54,11.54,0,0,1,12.89-5.71,7,7,0,0,1,5.45,6.24,10.62,10.62,0,0,1-.38,4.48,5,5,0,0,1-5.38,3.56,4.61,4.61,0,0,1-4.46-3.37,20.78,20.78,0,0,0-.81-2.16,2.89,2.89,0,0,0-4.87-.88,7.57,7.57,0,0,0-1.94,4.43,26.9,26.9,0,0,0-.32,3.91c0,5.52,0,11,0,16.56a4.93,4.93,0,0,0,1.94,4.14,10,10,0,0,1,1.61,1.42,3.63,3.63,0,0,1,.69,1.7c.1.86-.37,1.32-1.23,1.48a4,4,0,0,1-.69.05H129.51c-2,0-2.15-1.52-1.61-2.7a4.66,4.66,0,0,1,1.08-1.38,6.25,6.25,0,0,0,2-4.94c-.08-6.32,0-12.64,0-18.95a4.4,4.4,0,0,0-1.68-3.63c-.43-.36-.88-.7-1.31-1.07-1.42-1.25-1.3-2.87.37-3.77,1.39-.76,2.86-1.37,4.3-2.05l6.26-2.92c.21-.1.42-.2.63-.28,1.38-.47,2.25.07,2.28,1.54.06,2.05,0,4.11,0,6.16Z"/><path class="cls-6" d="M224.66,137.47a15.46,15.46,0,0,1,3.29-4.82A11.44,11.44,0,0,1,239,130c3.4.88,5.42,4.17,5.15,7.9-.14,1.85-.44,3.62-1.87,5a5.3,5.3,0,0,1-8.22-1.61c-.35-.79-.62-1.62-.93-2.44-1-2.8-4.08-2.4-5.34-.69a9.66,9.66,0,0,0-1.73,5.27c-.15,2.58-.15,5.18-.17,7.77,0,3.85,0,7.7,0,11.55a4.82,4.82,0,0,0,1.82,4c.6.51,1.23,1,1.8,1.56a2,2,0,0,1,.53,2.32c-.33.78-1.08.86-1.83.86H212.45c-.74,0-1.48-.07-1.84-.84a2.08,2.08,0,0,1,.26-2.18,10,10,0,0,1,1.21-1.39,5.72,5.72,0,0,0,1.74-4.29q0-9.47,0-19a4.84,4.84,0,0,0-2-4.18c-.41-.31-.81-.64-1.19-1a2.06,2.06,0,0,1,.32-3.49c1.28-.74,2.65-1.33,4-2,2.27-1.07,4.55-2.12,6.82-3.17a5.68,5.68,0,0,1,.63-.27c1.34-.45,2.2.09,2.24,1.52.06,1.87,0,3.75,0,5.62Z"/></svg>