<svg xmlns="http://www.w3.org/2000/svg" width="90" height="45" viewBox="0 0 90 45"><g id="saas_elastisys" transform="translate(.253)"><path id="Rectangle_262" fill="#e8eff3" d="M0 0h90v45H0z" transform="translate(-.253)"/><g id="Lager_1-2" transform="translate(13.747 14)"><path id="Path_6279" fill="#3d516e" d="M30.99.1a7 7 0 0 0-1.23-.1c-3.43 0-7.2 2.47-9.38 8.05q.27-.4.56-.77a7 7 0 0 1 5.46-2.95 6 6 0 0 1 .92.07 5 5 0 0 1 4.09 2.89c.6 1.52.2 3.32-1.12 5.05a7 7 0 0 1-1.76 1.57c2.53-.97 4.9-2.26 6.18-3.94 3.63-4.76 1.32-8.96-3.72-9.86" transform="translate(-18.618)"/><path id="Path_6280" fill="#3d516e" d="M27.5 65.54c2.52-3.28.97-6.15-2.49-6.73a5 5 0 0 0-.8-.07c-2.21 0-4.66 1.51-6.23 4.9l.12-.16a5.4 5.4 0 0 1 4.07-2.16l.53.03a3.5 3.5 0 0 1 2.93 1.98c.27.66.5 2.02-.88 3.81a5 5 0 0 1-.93.9 9 9 0 0 0 3.68-2.5" transform="translate(-16.426 -53.663)"/><path id="Path_6281" fill="#3d516e" d="M7.73 101.87c1.8-2.33.8-4.26-1.56-4.58l-.43-.03c-2.3 0-5.08 2.39-5.74 7.97 0 0 5.92-1.04 7.73-3.36" transform="translate(0 -88.853)"/><path id="Path_6282" fill="#3d516e" d="M235.94 67.36c.08-.55.48-.8 1.1-.8.4 0 .74.16.74.5s-.11.51-.53.65l-1.42.5zm-.31 2.41v-.15l1.73-.59c1.17-.4 1.82-.88 1.82-2.09 0-.98-.77-1.64-2.02-1.64a2.46 2.46 0 0 0-2.68 1.96l-.3 2.16-.04.52c0 1.02.67 1.65 2.12 1.65h1.99l.19-1.29h-2q-.82 0-.81-.53m6.84-6.82h-2.4l-.19 1.29h.91l-.84 6.07h-1.04l-.19 1.28h3.58l.19-1.28h-1.04zm18.27-.17h-1.48l-.23 1.61h1.49zm-.35 2.52h-2.4l-.2 1.28h.92l-.51 3.73h-1.05l-.19 1.28h3.6l.18-1.28h-1.06zm3.75 0c-1.42 0-2.57.64-2.57 1.88 0 1.83 2.5 1.6 2.5 2.53 0 .53-.52.6-.97.6h-1.9l-.18 1.28h1.95c1.67 0 2.65-.83 2.65-2.07 0-1.87-2.52-1.7-2.52-2.51q-.01-.43.92-.44h1.68l.19-1.27zm-13.07 0c-1.42 0-2.57.64-2.57 1.89 0 1.82 2.5 1.6 2.5 2.53 0 .52-.52.59-.97.59h-1.9l-.18 1.28h1.95c1.66 0 2.65-.83 2.65-2.06 0-1.88-2.52-1.71-2.52-2.52q-.01-.43.92-.44h1.68l.19-1.27zm23.27 0c-1.42 0-2.57.64-2.57 1.88 0 1.83 2.5 1.6 2.5 2.53 0 .53-.52.6-.97.6h-1.9l-.19 1.28h1.96c1.67 0 2.65-.83 2.65-2.07 0-1.87-2.52-1.7-2.52-2.51q-.01-.43.92-.44h1.68l.19-1.27zm-3.88 0-1.9 3.97-.78-3.97h-1.58l1.34 5.92-1.33 2.63h1.5l4.32-8.55Zm-24.04 2.19-.3 2.11a1 1 0 0 1-1.03.7c-.47 0-.8-.23-.8-.62l.06-.5.29-1.9a.93.93 0 0 1 1.02-.71c.45 0 .8.24.8.61zm.46-2.2-.13.5a1.7 1.7 0 0 0-1.27-.5 2.3 2.3 0 0 0-2.32 2.04l-.31 2.22-.03.34a1.64 1.64 0 0 0 1.79 1.7 2 2 0 0 0 1.4-.52l-.03.52h1.34l.9-6.3zm8.32 4.67.04-.37.43-3.02h1.17l.2-1.27h-1.19l.2-1.38h-1.48l-.19 1.38h-1.15l-.18 1.27h1.14l-.44 3.16-.05.53c0 .9.53 1.33 1.81 1.33h1.01l.18-1.29h-.77c-.59 0-.73-.1-.73-.34" transform="translate(-213.902 -57.353)"/></g></g></svg>