<svg xmlns="http://www.w3.org/2000/svg" width="90" height="45" viewBox="0 0 90 45"><defs><style>.a{fill:#e8eff3}.b{fill:#503c6e}.c{fill:#614e7d}.d{fill:#807195}.e{fill:#c8c6cf}.f{fill:#513d6e}.g{fill:#523e6e}.h{fill:#513b6e}.i{fill:#513c6e}.j{fill:#523771}.k{fill:#594675}.l{fill:#523e6f}.m{fill:#533f6f}.n{fill:#544070}.o{fill:#aaa2b6}.p{fill:#523870}.q{fill:#533970}.r{fill:#533e70}.s{fill:#e6e4e9}.t{fill:#d4cfda}</style></defs><g transform="translate(-325 -212)"><path d="M325 212h90v45h-90z" class="a"/><g transform="translate(341 229.01)"><path d="m48.86.08.06-.03.12-.02a.2.2 0 0 0 .16-.04h.04q-.01.05.05.06.08 0 .07-.06h8.87q0 .07.08.05l.07-.02.02.04.04-.03h.1l.2.06q.01.07.08.09a2 2 0 0 1 .46.33l.17.17.03.05.09.18a1 1 0 0 1 .12.46q0 .06.06.07v.12l-.1.12c-.09-.05-.07-.16-.11-.24l-.04-.14a.5.5 0 0 0-.1-.32l-.02-.04-.15-.2-.06-.1c-.04-.03-.04-.1-.12-.11l-.04-.05-.23-.13-.06-.02a.1.1 0 0 1-.12-.06l-.05-.04-.05.01q-.05.07-.13.03l-.23-.1q-.07-.04-.09.06h-.41a.1.1 0 0 0-.12.05l-.14.13-.14-.09q-.05-.02-.06-.07l.14-.02-.12-.1-.02.12L57 .23h-4.17a.1.1 0 0 0-.1.04l-.15.13-.15-.09-.05-.06.14-.02-.12-.1-.02.11-.17-.01H49.5l-.1.02-.13.07c-.1.06-.1.08-.08.18-.05 0-.1.03-.15-.03a.12.12 0 0 0-.16-.03l-.1.05a.1.1 0 0 1-.1-.01l-.05-.04a1 1 0 0 0-.27.25q.1.03.08.11.06.05.06.08l-.06.1a.1.1 0 0 1-.11 0l-.1-.05-.07.01-.1.15a.14.14 0 0 0-.03.15v.06a.3.3 0 0 0-.06.24v.06l-.03.15v8.33a.4.4 0 0 1 .02.3l.01.11a.3.3 0 0 1 .05.16 1 1 0 0 0 .11.4l.04.05a.1.1 0 0 0 .07.09.2.2 0 0 1 .12.15l.02.03.1-.04c0 .1.08.1.13.15l-.01.08c.08.03.14.1.22.05l.03.01c.06.07.13.12.23.06q.03-.01.07.01l.04.04c.06-.02.13-.05.16.01s.1.07.15.07h8.64a.4.4 0 0 0 .23-.05.3.3 0 0 1 .18-.05l.05-.01v-.06q-.03-.1.06-.1.15.01.22-.1h.05q.07.03.11-.04l.04-.04q.08-.01.12-.07l.15-.2c.04-.08.13-.14.12-.24v-.22c.1-.03.1-.03.11-.13l.02-.15.05-.05.06.04q0 .05.07.06l-.02.22c-.08.03-.08.1-.1.16l-.07.32-.03.05a.4.4 0 0 0-.17.21q0 .05-.04.07l-.32.24a.7.7 0 0 1-.4.16.1.1 0 0 0-.08.06l-.02.07-.04-.01-.02-.04-.04.04h-.1l-.04.04h-9.01q-.02-.06-.08-.04 0-.05-.06-.04h-.18l-.08-.08-.17-.02-.03.03-.08-.05q0-.04-.03-.07a.4.4 0 0 0-.25-.11l-.04-.02v-.02c.02-.1.02-.1-.08-.1h-.02l-.1-.14q.02 0 .01-.04l-.16-.41-.05-.2-.01-.2-.02-.24.02-.19V1.8l.01-.4v-.06a.3.3 0 0 1 .04-.22l.19-.37.1-.14.24-.22.25-.16.08.05a.1.1 0 0 0 .1-.03.1.1 0 0 0-.02-.12zm8.55.18.03-.05-.03-.03-.03.04zM52.67.2q-.03-.04-.04-.03l-.04.04.04.02q.02 0 .04-.03" class="b"/><path d="M59.79 1.59v8.77h-.02V1.57z" class="c"/><path d="M59.77 10.35h.02v.28h-.03l-.01-.02.02-.21z" class="d"/><path d="M49.2-.01a.2.2 0 0 1-.16.04v-.04Z" class="e"/><path d="M49.2 11.95q.06-.02.08.04h-.2l-.02-.04z" class="d"/><path d="m58.38.02-.08.02q-.06.03-.07-.05h.16z" class="f"/><path d="M58.52 11.96V12h-.19v-.04h.16Z" class="d"/><path d="M49.36-.01q0 .07-.07.06c-.07-.01-.05-.03-.05-.06Z" class="f"/><path d="M59.79 1.59h-.02l-.02-.02v-.12l.02-.04h.02z" class="d"/><path d="m58.38.02.01-.03h.06v.02l.02-.02h.1l-.04.04h-.15Zm-9.32 11.93.02.04H49v-.03z" class="e"/><path d="M58.33 11.95V12h-.04Zm.14-11.96-.01.02-.01-.02Z" class="f"/><path d="M47.76 10.64V1.75a2 2 0 0 1 .04-.5 2 2 0 0 1 .18-.45l.01-.04.07-.09a1 1 0 0 1 .29-.32 1.4 1.4 0 0 1 .51-.27v.05l-.1.03q-.05.01-.05.07l-.25.16-.24.22-.1.14-.2.37a.3.3 0 0 0-.03.22v.06l-.02.4v8.26l-.01.19.01.24.02.2.04.2.17.41q0 .04-.02.04a1.4 1.4 0 0 1-.27-.54z" class="g"/><path d="M59.77 10.36v.03q-.05 0-.07-.05l-.06-.04-.05.05-.02.15c0 .1 0 .1-.1.13v.22c0 .1-.08.15-.12.23l-.16.21q-.05.06-.11.07-.03 0-.04.04-.04.07-.12.04h-.05c-.05.08-.14.06-.21.09s-.08.04-.07.11v.06h-.05a.3.3 0 0 0-.18.06.4.4 0 0 1-.23.05H49.5q-.09.02-.15-.07c-.06-.09-.1-.03-.16-.01l-.04-.04q-.05-.02-.07-.01c-.1.06-.17 0-.24-.06l-.02-.01c-.09.05-.15-.03-.23-.05l.01-.08c-.04-.05-.13-.05-.13-.15l-.09.03-.02-.02a.2.2 0 0 0-.12-.15.1.1 0 0 1-.08-.1l-.03-.05a1 1 0 0 1-.12-.4.3.3 0 0 0-.04-.15l-.01-.12a.4.4 0 0 0-.02-.3V1.76l.02-.16v-.06a.3.3 0 0 1 .06-.23v-.07a.14.14 0 0 1 .03-.15l.1-.14a.05.05 0 0 1 .08-.02l.1.06a.1.1 0 0 0 .11 0l.06-.1q-.01-.04-.07-.08.04-.08-.07-.12a1 1 0 0 1 .26-.23l.05.03a.1.1 0 0 0 .1.01l.1-.05a.12.12 0 0 1 .17.03c.04.06.1.03.15.04h.03l.33.03.19-.01h2.46l.4-.02h.04l.14.01h5.36q.09 0 .1-.06c.02-.06-.02-.07-.03-.1l-.02-.02q-.1-.05-.13-.12.02-.1.09-.06l.23.1q.08.05.13-.03h.05a.5.5 0 0 0-.02.35c.01.03.05.09.08.09a.2.2 0 0 0 .16-.04.14.14 0 0 1 .17-.04q.09.03.1-.07c.08 0 .09.08.13.12q.02.05.06.09a.4.4 0 0 1 .14.2l.02.04a.5.5 0 0 1 .1.32l.04.14c.04.08.03.19.12.24v2.84l.02.25v.1l-.02.19V9.3l.02.25v.1a2 2 0 0 0-.02.5.2.2 0 0 0 .12.17zm-9.33-8.52-.04-.03h-.26a.05.05 0 0 0-.06.05v.38q0 .06.07.05l.02-.08q.01-.07.1-.07v.02q.09.07 0 .16a.14.14 0 0 0-.02.14l.01.11V4.5c0 .1 0 .1-.1.09q-.07-.01-.07.05v.07a.07.07 0 0 0 .12.04l.05-.03.02.08-.02.27v.1a.3.3 0 0 0 .02.25l.1.21.35.05.08.04q.08.05 0 .12l-.05.02c.02.07.1.1.09.18l-.01.2h.05l.19-.02c.13 0 .13 0 .16-.1l.2-.01c.09.11.02.27.03.43a.6.6 0 0 1 .37-.04q.04-.1.12-.08v2.14a1 1 0 0 0 .08.3l.15.21.04.03.1.05.14.05.15.03-.02.04c-.01 0-.06.01-.03.05l.05-.01h.03a.2.2 0 0 1-.06.2.2.2 0 0 0 .22.08c.15-.01.15-.02.14-.14q.1-.04.16.05c.06.1.09.09.16.06l.1.02.1.08-.01.02q-.07.1.06.12h.05a.16.16 0 0 0 .22-.02l.07.04a1 1 0 0 0 .31.15.15.15 0 0 1 .12.22q-.05.09.06.08l.07-.13a.1.1 0 0 1 .11-.06l.18.03.07-.02.27-.24q.09-.06.03-.13a.2.2 0 0 1-.04-.2l.04-.25v-2.2l-.03-.26a.6.6 0 0 1 0-.34l-.08-.09a1 1 0 0 0-.36-.23h-.02a.4.4 0 0 1-.2-.08l-.1-.04a.3.3 0 0 1-.19-.07l-.08-.05a.4.4 0 0 1-.2-.08.1.1 0 0 0-.1-.03q-.03.01-.07-.02a1 1 0 0 0-.27-.13.1.1 0 0 1-.07-.08l-.02-.3c-.02-.19.01-.37 0-.55v-1.3c0-.08.03-.15-.03-.22v-.06a.3.3 0 0 0-.14-.26 1 1 0 0 0-.28-.12.2.2 0 0 1-.19-.21V.6l-.03-.04-.02.01v1.49l-.02.15c0 .1-.05.2.01.3v.08l-.18-.04a.3.3 0 0 0-.18-.06q-.05 0-.08-.04l-.24-.15h-.01l-.05.08q-.05-.03-.06-.06-.04-.1-.14-.1l-.13-.05-.27-.12-.12-.03a.2.2 0 0 1-.14-.08.2.2 0 0 0-.2-.04l-.2.03q-.02 0-.03-.04a.1.1 0 0 0-.12-.06Zm5.26 4.73.06.01c.1.08.24.1.34.18a.4.4 0 0 0 .2.07l.26.12c-.08.09 0 .15.04.22a.2.2 0 0 0-.1.19q.03.04.1.01l.12-.04a.4.4 0 0 0 .2-.07q.05-.02.03-.08l-.05-.1c.04-.03.07 0 .1 0s.08 0 .1-.05l.05-.07q.08-.07.11-.16a.4.4 0 0 0-.02-.21l-.02-.13V5.12c0-.08.03-.16 0-.23v-.02a.4.4 0 0 0 .01-.29q0-.08-.08-.09a.1.1 0 0 1-.12-.06l-.1-.07a.2.2 0 0 1-.19-.1c-.06.05-.1.02-.16 0q-.18-.1-.36-.17l-.12-.05a.2.2 0 0 1-.13-.06l-.12-.06-.15-.04a.2.2 0 0 1-.15 0 .2.2 0 0 0-.17.02.4.4 0 0 0-.2.3l-.02.34v.07a1 1 0 0 1 0 .44l-.02.28.02.3.04.36q-.06.04-.04.1l.02.08a.1.1 0 0 0 .05.11l.04.06a.2.2 0 0 0 .16.1.2.2 0 0 1 .17.15q0 .05.06.07zm-3.08 4.96q-.09.09 0 .18Zm1.81-1.3-.02.02.03.04.02-.02zm-2-.86h-.02l.01.01Zm.02-.12h-.02l.01.01z" class="b"/><path d="M58.05.23q.05.07.13.12l.02.02q.04.05.04.1-.02.06-.1.05-.33.02-.65 0l-.27.01h-4.45l-.13-.01h-.05l-.4.01h-2.46l-.19.02-.33-.03h-.03c-.03-.11-.02-.13.08-.18l.13-.08.1-.02h2.73l.17.02.05.06.15.09.15-.13a.1.1 0 0 1 .1-.05H57l.17.02q0 .06.06.07l.15.09.13-.13a.1.1 0 0 1 .12-.05z" class="h"/><path d="M59.77 10.32a.2.2 0 0 1-.12-.18 2 2 0 0 1 .02-.5v-.09l-.02-.26V5.05l.01-.19v-.1l-.01-.24V1.68l.1-.12.01.02zm-.03.3.02.01a1 1 0 0 1-.1.39 1.5 1.5 0 0 1-1.04.92l-.1.02.02-.07a.1.1 0 0 1 .08-.06.7.7 0 0 0 .4-.16l.32-.24q.03-.02.04-.07a.4.4 0 0 1 .17-.21l.03-.05.07-.32c.02-.06.02-.14.1-.16" class="f"/><path d="M59.05.53q-.02.1-.11.07a.14.14 0 0 0-.17.04.2.2 0 0 1-.16.04c-.03 0-.06-.06-.08-.1a.5.5 0 0 1 .02-.35l.05.04a.1.1 0 0 0 .12.06l.06.03.22.13q.03.01.05.04" class="i"/><path d="m59.76 1.4-.01.05q-.07-.01-.07-.08a1 1 0 0 0-.12-.46l-.08-.18-.03-.05q-.08-.1-.18-.17a2 2 0 0 0-.46-.33q-.07-.02-.08-.1a1.4 1.4 0 0 1 .57.36 2 2 0 0 1 .37.55 1 1 0 0 1 .1.42" class="f"/><path d="M49.06 11.95H49a1 1 0 0 1-.32-.12l.03-.02.17.02q.06.03.08.08h.18q.05-.01.06.04z" class="g"/><path d="M48.7.23q0-.06.06-.07.07 0 .1-.03a.1.1 0 0 1 .03.12.1.1 0 0 1-.1.03z" class="h"/><path d="m48.6 11.8-.27-.19a.4.4 0 0 1 .24.1z" class="g"/><path d="m57.17.25.03-.11.12.1zm-4.77 0 .02-.11.11.1z" class="b"/><path d="m48.28 11.57-.1-.1h.02c.1 0 .1 0 .08.1" class="g"/><path d="m57.4.26-.02-.04.03-.04.03.03zM52.67.2l-.04.04-.04-.02.04-.04z" class="b"/><path d="M58.49 11.95h-.06l.03-.04zM58.38.02h.05l-.03.05z" class="f"/><path d="M4.65 9.54q-.02.14-.14.11c.03-.1-.08-.09-.11-.13.04-.09.15-.13.17-.22q-.05-.08-.12-.06h-.87q-.01-.12-.1-.1h-.13a.2.2 0 0 1-.17-.17.2.2 0 0 0-.06-.12q-.08-.05-.07-.14a.13.13 0 0 0-.08-.17l-.06-.06-.03-.07v-.1l-.15-.25.03-.06q-.06-.04-.07-.1c-.03-.12-.13-.2-.13-.33l-.02-.02q-.05-.02-.04-.07 0-.03-.02-.05-.05-.05-.04-.11l-.01-.05a.3.3 0 0 1-.08-.21c.1 0 .1-.09.12-.14l.09-.03v-.17q0-.14-.13-.1a.2.2 0 0 1-.16-.01l-.1-.07v-.07l-.04-.03-.15-.16c-.05-.08-.05-.18-.13-.26v-.04a.3.3 0 0 0-.13-.23c0-.05.04-.1-.02-.12-.11-.05-.11-.15-.13-.25v-.03l-.08-.03-.05-.27a.3.3 0 0 0-.1-.19.1.1 0 0 1-.06-.1l-.04-.18-.04-.05q-.07-.06-.07-.16A.2.2 0 0 0 1 4.16q.06-.12-.06-.17Q.9 3.97.89 3.9l-.05-.15c0-.06.12-.11.02-.2-.03 0-.08.04-.1-.01q-.02-.06.04-.1l.1.07q.03.05.08.03l.05-.08q0-.06-.06-.1-.1-.04-.07-.14a.07.07 0 0 0-.05-.1c-.1-.03-.18-.1-.29-.07l-.03-.02.02-.1-.08-.05a.1.1 0 0 0-.08-.07l-.05-.06a.2.2 0 0 0-.1-.1.2.2 0 0 1-.09-.15c0-.06 0-.07.08-.09a.2.2 0 0 0 .09.24l.02.02c.02.1.1.1.18.1h.87l.18-.08c0 .03-.03.06 0 .1.07.08.04.2.13.28v.02a.2.2 0 0 0 .05.13l.03.06a.3.3 0 0 0 .1.2l.04.09a1 1 0 0 0 .1.32l.07.15a.3.3 0 0 0 .07.15l.06.1.02.08.12.31c.01.1.1.18.1.28L2.5 5l.03.07.03.11.17.36.07.16.16.38.1.2.05.15.02.06a1 1 0 0 1 .14.3l.17.4.03.08.05.13.1.22.12.26a.2.2 0 0 0 .24.09c0 .07.04.13 0 .2l-.01.08.03.04a.3.3 0 0 0 .18-.04.1.1 0 0 0 .01-.1v-.09l.08.01c.03.04-.03.09.03.13a.3.3 0 0 0 .04-.2q-.04-.12-.15-.05l-.05.03q-.05-.06-.02-.09l.08-.18a1 1 0 0 0 .1-.28l.03-.05a.2.2 0 0 0 .06-.12q0-.06.03-.1l.1-.21.09-.18.02-.07.17-.34.04-.15q-.02-.1.07-.15.03-.02.03-.06l.09-.2.04-.12.03-.09a2 2 0 0 0 .22-.5l.02-.05.13-.28.16-.35.21-.54a.3.3 0 0 1 .09-.18l.01-.03.13-.37.1-.21a.5.5 0 0 1 .18-.3s0 0 0-.01h-.01l-.02-.2q-.02-.1.06-.16.03.05 0 .11a.2.2 0 0 0 .06.22.2.2 0 0 0 .16.05h.66a.4.4 0 0 0 .3-.08s.01 0 .02 0l-.04.1a.4.4 0 0 0-.1.17c-.05.15-.16.27-.2.43l-.07.12-.03.05a1 1 0 0 1-.1.3l-.25.58c-.08.21-.21.4-.28.63l-.14.34-.14.3a1 1 0 0 0-.14.32l-.02.07-.06.12-.03.08a2 2 0 0 0-.18.38l-.11.27q-.08.15-.14.32l-.17.37-.11.28a2 2 0 0 0-.19.4l-.03.06a.3.3 0 0 0-.07.17l-.05.13q-.08.2-.19.4c-.1.2-.06.25-.12.36q-.03.07.05.09Z" class="b"/><path d="M.23 2.42q-.1.02-.08.09a.2.2 0 0 0 .08.14.2.2 0 0 1 .1.11l.06.06a.1.1 0 0 1 .08.07l.07.05v.1l.02.01c.1-.01.2.05.28.08a.07.07 0 0 1 .06.1q-.03.1.07.14.06.03.06.1l-.05.08q-.05.02-.09-.03l-.1-.06q-.06.03-.03.09c.02.05.07 0 .1.01.1.09-.02.14-.03.2l.06.15q.03.07.05.08.13.05.07.17a.2.2 0 0 1 .11.2q.02.1.08.17l.04.05.04.19a.1.1 0 0 0 .06.09.3.3 0 0 1 .1.19l.05.27.07.03.01.03c.01.1.01.2.12.25.07.02.04.07.03.12a.3.3 0 0 1 .12.22l.01.05c.07.07.08.18.13.26l.15.16.04.03-.01.07.1.06a.2.2 0 0 0 .17.02q.13-.04.12.1v.17l-.08.03c-.03.05-.03.14-.12.14a.3.3 0 0 0 .07.21l.02.05q-.01.06.04.11l.02.05q-.01.05.04.07l.01.02c0 .13.11.21.13.33l.07.1-.03.06.15.25.01.1.03.07.06.06a.13.13 0 0 1 .08.17c-.02.06.03.1.07.14a.2.2 0 0 1 .06.12.2.2 0 0 0 .17.17h.12q.1-.02.1.1H3.3q-.1-.01-.07.08a.2.2 0 0 0 .1.2l-.03.13q-.09 0-.12-.1.05-.1-.06-.14l-.06-.12-.02-.01v-.04l.02-.03-.08-.22-.06-.03-.02-.04a.2.2 0 0 0-.1-.22l-.07-.16q.07-.06-.03-.08l-.08-.18c.06-.07-.01-.12-.03-.18q0-.08-.09-.1l-.05-.1.03-.06-.08-.17-.06-.03-.02-.04c.04-.05 0-.06-.03-.08l-.13-.28v-.09a.1.1 0 0 0-.1-.12L2 6.9c.04-.07.03-.08-.06-.12l-.1-.23a.1.1 0 0 0 .01-.1c-.03-.08-.12-.15-.11-.26l-.02-.02q-.02-.08-.06-.14a.3.3 0 0 0-.11-.15l-.04-.1q.03-.05-.04-.08l-.02-.06q.04-.11-.08-.18l-.06-.11-.02-.03V5.3l.02-.08-.11-.2L1.17 5l-.01-.03V4.9c-.02-.06-.02-.13-.1-.15L1 4.61q.05 0 .03-.04L.95 4.4.9 4.38.82 4.2q.02-.05 0-.07Q.8 4 .74 3.9l-.05-.12-.07-.04-.04-.1q.06-.08-.05-.12l-.1-.2Q.5 3.27.4 3.25L.38 3.2q.02-.07-.06-.12L.3 3l.02-.02c.02-.08-.06-.13-.08-.2q-.01-.03-.05-.04l-.1-.2-.03-.08-.02-.06.03-.06h.16z" class="b"/><path d="M4.65 9.54a.06.06 0 0 1-.05-.09c.06-.11.06-.25.13-.36l.18-.4.05-.13a.3.3 0 0 1 .07-.17l.03-.06a2 2 0 0 1 .19-.4l.12-.28.16-.37.14-.32.1-.27a2 2 0 0 1 .19-.38l.03-.08.06-.12.02-.07a1 1 0 0 1 .14-.32l.14-.3.14-.34c.07-.22.2-.42.29-.63q.11-.3.25-.58a1 1 0 0 0 .1-.3q0-.03.03-.05l.07-.12c.03-.16.14-.28.19-.43a.4.4 0 0 1 .1-.18l.04-.09a.3.3 0 0 0 .08-.22q.08-.05-.02-.08l-.02-.06.14-.01h.07l-.05.11-.36.86-.02.02-.1.26-.43.97-.17.38-.01.02-.15.35-.74 1.68-.6 1.36-.51 1.15q0 .02-.03.05Z" class="f"/><path d="m3.3 9.65.03-.13a.2.2 0 0 1-.1-.2q-.02-.09.07-.08h1.15q.08-.01.12.06c-.02.1-.13.13-.17.22.03.05.14.04.11.13h-.3Z" class="j"/><path d="M1.56 5.9a.3.3 0 0 1 .12.14l.06.13.01.03c0 .1.08.17.12.26a.1.1 0 0 1-.01.1l-.03-.03zv-.02ZM.62 3.74l.07.05.05.11.1.23-.02.07ZM1.17 5h.03l.1.2v.09ZM2.5 8q.07.02.09.1c.02.09.09.11.03.18zM.18 2.74l.06.04c.01.08.1.12.08.2L.3 3a1 1 0 0 1-.12-.26m2.16 4.91q.02 0 .05.03l.08.16-.02.07Zm.57 1.31.06.03.08.22-.01.03zM.9 4.38q.04 0 .06.04l.08.15q.02.04-.03.05ZM2.8 8.7a.2.2 0 0 1 .1.22zm-.74-1.67a.1.1 0 0 1 .1.12v.09zm-.68-1.56q.15.06.08.18Zm-.32-.72c.08.02.08.09.1.15v.07zm2.05 4.67q.13.02.07.14ZM1.96 6.79q.13.03.05.12-.05-.05-.05-.12M.52 3.52q.12.06.06.12Zm-.19-.44q.08.04.05.12ZM2.7 8.46q.09.02.03.08Zm-.42-.93q.07.01.04.08ZM.07 2.34l-.03.06-.03-.02L0 2.34l.05-.01Zm1.41 3.37q.07.02.04.08ZM.4 3.26q.09.02.04.06Zm-.34-.8.03.08q-.05-.02-.03-.08m2.98 6.82.02.02ZM1.3 5.33l.02.02Z" class="k"/><path d="m1.83 2.84.01.04.12.26.02.04.02.08q.14.3.27.63l.25.6.02.02.08.18.02.04.18.42.21.52.87 2.05.02.02v.02q-.07 0-.1-.06l-.06-.12c.04-.03 0-.04-.02-.06q0-.08-.06-.14l-.06-.18q0-.03-.04-.04l-.02-.06-.02-.04v-.04l-.04-.08-.06-.14-.02-.04-.02-.06-.02-.04-.08-.2a.2.2 0 0 0-.08-.12v-.03q.01-.04-.04-.06l.02-.04-.02-.04-.02-.04q.02-.06-.06-.08l-.02-.1-.03-.1q0-.05-.07-.05v-.1l-.04-.08-.02-.06-.04-.04V5.5c-.02-.04 0-.1-.06-.14l-.04-.1-.04-.06c0-.06 0-.13-.08-.15V5l-.04-.06v-.09q0-.03-.03-.04l-.05-.1-.04-.07-.02-.14-.04-.06-.02-.06-.04-.06q0-.08-.06-.16l-.04-.1-.02-.04-.03-.06-.03-.08-.02-.04-.02-.08-.04-.04-.02-.08-.04-.14-.04-.02-.06-.14c.04-.03 0-.04-.02-.06.02-.06-.03-.1-.06-.14l-.02-.04v-.04c-.02-.05 0-.11-.08-.14l-.06-.2-.1-.18-.02-.14v-.07l.07.12z" class="l"/><path d="m1.46 2.34.04-.01.1.01v.08q0 .08.03.14l-.04.04-.02.1-.18.08.02-.04a.2.2 0 0 0 .08-.2z" class="h"/><path d="m9.32 9.66-.01-.1V2.7l-.01-.24v-.12l.01-.01.12-.01.04.01v.05q-.07 0-.06.07v6.67l-.02.15a.3.3 0 0 0 .04.18l.02.07v.13h-.14Z" class="g"/><path d="m15.45 9.62-.1-.22-.33-.78-.4-.88-.34-.8-.73-1.66-1.28-2.9v-.03l.04-.03h.14l.06.02q0 .05-.06.05-.08.04-.03.1l.05.13.05.13.23.5.16.34.14.33.1.22.07.2.03.08q.09.16.16.34a3 3 0 0 1 .25.63q.06.15.13.26c.1.16.13.35.24.5l.01.04c.04.2.18.36.23.55l.13.27.18.41a2 2 0 0 0 .18.39s0 0 0 .01l.28.63.05.13.2.47.07.17.08.16.15.23.01.04-.1.01z" class="m"/><path d="m3.96 7.75.17-.4.17-.4.39-.91 1.3-3.06.14-.36.09-.23a.1.1 0 0 1 .1-.06l.05.01v.05l-.07.04-.19.42-.04.11v.02l-.04.06v.02L6 3.1l-.2.46v.06l-.03.03a2 2 0 0 0-.15.43.1.1 0 0 0-.06.1l-.04.07-.04.13-.06.11-.13.3-.05.14a.3.3 0 0 0-.08.18v.02l-.03.05-.08.19a1 1 0 0 0-.13.32q-.05.03-.04.1l-.04.06-.14.36-.1.22-.06.14-.16.38-.04.08-.2.47-.07.2c-.02.07-.02.07-.1.08z" class="l"/><path d="M30.43 9.54v-.56q.08.01.07.1c-.01.09 0 .1 0 .14l-.02.1q0 .16.04.33h-.09z" class="n"/><path d="M9.3 9.53v.03l-.02-.01Z" class="o"/><path d="M50.44 1.84a.1.1 0 0 1 .11.06q.01.04.04.04l.19-.03a.2.2 0 0 1 .2.04.2.2 0 0 0 .14.08l.12.03.27.12.13.04c.06.02.13.03.14.11q0 .03.06.06l.05-.08h.02l.23.15q.04.04.08.04a.3.3 0 0 1 .18.06l.18.04q.02-.05 0-.08c-.06-.1-.01-.2 0-.3l.01-.14V.59l.02-.02.04.05v1.91a.2.2 0 0 0 .18.21 1 1 0 0 1 .28.12.3.3 0 0 1 .14.26v.06c.06.07.04.15.04.23v1.3q-.02.27 0 .54l.01.3a.1.1 0 0 0 .07.08 1 1 0 0 1 .27.14l.07.02a.1.1 0 0 1 .1.02.4.4 0 0 0 .2.09l.09.04a.3.3 0 0 0 .18.08l.1.04a.4.4 0 0 0 .2.08h.03a1 1 0 0 1 .35.22l.08.1a1 1 0 0 0 0 .33l.03.27v2.2l-.03.24a.2.2 0 0 0 .03.2q.06.07-.02.13l-.27.24-.07.02-.19-.03a.1.1 0 0 0-.1.06l-.08.13q-.1.01-.06-.08a.15.15 0 0 0-.11-.22 1 1 0 0 1-.32-.15q-.03 0-.06-.04a.16.16 0 0 1-.22.03h-.06q-.13-.01-.06-.13l.01-.01-.1-.08a.1.1 0 0 0-.1-.03q-.1.04-.15-.05-.07-.13-.17-.06c.01.12.02.13-.14.15l-.13-.02-.08-.06a.2.2 0 0 0 .06-.2h-.09c-.02-.03.02-.03.04-.05l.01-.03-.14-.04-.13-.05-.11-.05-.04-.02-.16-.2a1 1 0 0 1-.08-.32V6.4q-.08-.01-.11.08a.6.6 0 0 0-.37.04c-.01-.16.05-.31-.03-.43h-.2c-.04.12-.03.12-.17.1l-.18.02-.06.01.02-.2c0-.07-.08-.1-.1-.18l.05-.02q.09-.06 0-.12l-.08-.03-.34-.06-.1-.2a.3.3 0 0 1-.02-.25v-.1l.02-.28-.02-.08-.06.03a.07.07 0 0 1-.12-.04v-.06q0-.08.08-.06c.1 0 .1 0 .1-.1v-1.9l-.01-.1a.14.14 0 0 1 .02-.14q.08-.1 0-.17l-.01-.01q0-.04.03-.07zM53 3.14c.02-.07-.05-.08-.09-.12a.3.3 0 0 0-.23-.04l-.08-.03q-.03-.13-.12-.05l-.12-.05q-.06-.16-.16-.07l-.2-.09-.01-.05-.18-.08-.03.04-.06-.03q0-.08-.08-.09a.2.2 0 0 1-.16-.07q-.08-.07-.16-.01l-.16-.07q-.01-.07-.08-.09l-.12-.05-.14-.09a.16.16 0 0 0-.23.1v.02q-.09.03-.12.12a.1.1 0 0 0-.1.07v2.76a.2.2 0 0 0 .15.24l.05.03v.01q-.04.08.04.1l.23.1c.19.1.39.14.57.24l.26.12.28.13a.2.2 0 0 1 .16.23v2.16l.01.12a.5.5 0 0 0 .37.36l.17.07.15.06.2.09.4.18.44.2.28.12a1 1 0 0 1 .31.16.18.18 0 0 0 .3-.13l.01-.02q.06-.01.05-.05l.02-.05a.1.1 0 0 0 .09-.07V6.73l-.07-.14-.07-.02-.06-.05q0-.04-.02-.06l-.15-.1a.2.2 0 0 0-.19-.01h-.03l-.04-.03q0-.08-.06-.03l-.1-.04q0-.06-.05-.02l-.05-.02a.2.2 0 0 0-.22-.1l-.06-.02q-.05-.15-.18-.08l-.4-.18-.06-.1.06-.05.02-.11v-.39l-.02-.37.02-.19v-1.2a.4.4 0 0 0-.08-.23q-.03-.05-.08-.02zm-1.9 2.78q.03.08.1.06l.02-.05q0-.04-.04-.05zm4.6.65-.04.1q-.06-.01-.06-.07a.2.2 0 0 0-.16-.15.2.2 0 0 1-.16-.1l-.05-.05a.1.1 0 0 1-.05-.12l-.01-.08q-.03-.06.03-.1l-.03-.35-.03-.31.02-.28a1 1 0 0 0 0-.44v-.07l.03-.34a.4.4 0 0 1 .2-.3.2.2 0 0 1 .16-.01.2.2 0 0 0 .16 0l.14.03.12.06a.2.2 0 0 0 .14.06l.11.05q.19.07.36.16.08.06.16 0a.2.2 0 0 0 .2.1.2.2 0 0 1 .1.08.1.1 0 0 0 .11.07q.07 0 .09.08a.4.4 0 0 1-.02.29v.02c.03.08 0 .15 0 .23v1.34l.02.13a.4.4 0 0 1 .03.21l-.12.16-.05.07q-.04.08-.1.05c-.06-.03-.06-.03-.1 0l.05.1q.03.05-.02.08a.4.4 0 0 1-.2.07l-.14.04q-.04.04-.1-.01a.2.2 0 0 1 .12-.19c-.06-.07-.12-.13-.05-.22l-.26-.12a.4.4 0 0 1-.2-.07c-.1-.08-.23-.1-.33-.18zm-.3-2.43-.05.04.04.04h.01v1.77q-.08 0-.07.07a.2.2 0 0 0 .06.16 1 1 0 0 0 .33.17l.06.01.45.22.13.05.07.03.32.17.15.05a.1.1 0 0 0 .1-.02l.11-.15c.08-.08.04-.18.06-.26l-.01-.18V5.24l.01-.14v-.27l-.04-.1-.18-.15-.09-.04-.08.03-.08-.03q-.02-.1-.09-.04l-.05-.02q0-.08-.06-.03l-.04-.01a.06.06 0 0 0-.06-.07c-.04-.11-.06-.13-.17-.14l-.09-.01c-.12-.04-.2-.14-.32-.16h-.01c-.06-.08-.14-.07-.22-.08q-.08-.02-.11.05l-.04.03z" class="b"/><path d="m50.44 1.84-.14.24-.04.06q-.07 0-.1.07l-.01.09q-.07 0-.07-.06v-.37a.05.05 0 0 1 .05-.06h.27z" class="i"/><path d="M52.62 11.53v.18q-.1-.08 0-.18m1.81-1.29.02.04-.01.01-.03-.03zm-2.01-.87v.02h-.02v-.02zm.02-.12v.02h-.02v-.02zM6.07 2.98v-.02q.05-.01.06-.07l.06-.15q.03-.1.12-.18l.01.2h.02v.02a.5.5 0 0 0-.2.29l-.08.22q-.08.18-.13.36l-.02.03a.3.3 0 0 0-.08.18l-.22.54-.16.35-.12.28-.02.06a2 2 0 0 1-.23.5l-.03.09-.04.1-.08.2-.03.07q-.09.05-.07.15l-.04.15-.18.35-.02.06-.08.18-.1.21q-.04.04-.03.1a.2.2 0 0 1-.06.12l-.03.05a1 1 0 0 1-.1.28l-.09.18c-.01.04-.01.04.03.1l.04-.04q.12-.06.15.06a.3.3 0 0 1-.04.2c-.06-.05 0-.1-.02-.14h-.08v.1a.1.1 0 0 1-.02.1.3.3 0 0 1-.17.03l-.04-.05.01-.07c.05-.07.01-.14 0-.2a.2.2 0 0 1-.24-.1l-.1-.26-.12-.21-.05-.13-.02-.08c-.08-.13-.11-.27-.18-.4a1 1 0 0 0-.13-.3l-.02-.06-.05-.15-.1-.2-.17-.39-.07-.16-.16-.35-.04-.11q0-.04-.03-.08l-.02-.02c0-.1-.1-.18-.1-.28l-.13-.31-.02-.08-.05-.1a.3.3 0 0 1-.07-.15l-.07-.16a1 1 0 0 1-.11-.31l-.04-.09a.3.3 0 0 1-.1-.2l-.02-.06a.2.2 0 0 1-.06-.13v-.02c-.08-.08-.06-.2-.13-.29-.03-.03 0-.06 0-.09l.02-.1.04.04c.03.04.04.1.1.1l.06.2c.02.05.01.12.08.14v.04q-.03.05.02.04.06.06.06.14l.02.06.06.14c.02.06 0 .14.08.16l.02.08.04.04.02.08q-.03.05.02.04l.03.08.03.06q-.03.05.02.04l.04.1q.06.07.06.16-.02.08.04.06l.02.06q-.01.05.04.06l.02.14q-.02.07.04.06l.04.1v.08q.01.03.04.04v.02q-.01.05.04.06v.02l.05.15.03.01v.02q-.01.05.04.06l.04.1a.13.13 0 0 0 .06.14v.02l.04.04.02.06q-.03.07.04.08v.08a.4.4 0 0 0 .1.16l.02.1q0 .07.06.08l.02.04q-.03.04.02.04l-.02.04q-.01.05.04.06v.04a.1.1 0 0 0 .08.12l.08.2q-.03.04.02.04l.02.06q-.03.04.02.04l.06.14q-.03.07.04.08v.02q-.03.04.02.04l.02.06a.3.3 0 0 0 .1.22q.06.05.06.14c-.04.03 0 .05.02.06l.06.12-.01.03a.2.2 0 0 0 .2.1c.06 0 .08-.06.1-.1l.1-.3.14-.35v-.06l.04-.08a.2.2 0 0 0 .1-.12l.2-.52.15-.34.05-.13v-.04q-.01-.06.03-.1.07-.04.09-.1l.04-.13a1 1 0 0 0 .11-.33V5.1c.09-.03.08-.1.08-.18l.06-.05.08-.19.2-.47-.02-.05a.1.1 0 0 1 .06-.1q.05 0 .06-.06l.09-.25.03-.15h.02q.08-.07.1-.18l.03-.07a1 1 0 0 0 .08-.28v-.02q.05 0 .04-.06Z" class="b"/><path d="M6.37 2.34H7.6l.02.07.02.08a.3.3 0 0 1-.08.22h-.02a.4.4 0 0 1-.3.08H6.6a.2.2 0 0 1-.16-.05.2.2 0 0 1-.06-.22q.03-.06 0-.11zm-4.91 0 .02.2a.2.2 0 0 1-.08.2l-.02.04H.51c-.08 0-.15 0-.18-.1l-.02-.02a.2.2 0 0 1-.09-.24v-.08z" class="p"/><path d="M6.37 2.38v.02c-.07.04-.06.1-.06.16q-.09.07-.12.18l-.06.14q0 .06-.06.08l.04-.12.19-.42z" class="f"/><path d="m7.64 2.48-.02-.08q.1.03.02.08" class="b"/><path d="M4.34 7.03v.06l-.13.34-.11.3q-.01.09-.1.1a.2.2 0 0 1-.2-.1V7.7q.04.06.1.06l.05.02c.08 0 .08 0 .1-.08l.06-.2.21-.47Zm-.67.35a.3.3 0 0 1-.1-.21q.04 0 .04.03zM1.72 2.74c-.06 0-.06-.06-.1-.1l-.04-.04.04-.04ZM2.74 5.2l-.03-.02-.05-.15q.1.06.08.16m.34.76a.4.4 0 0 1-.1-.16q.05 0 .06.06zM2.1 3.66c-.08-.03-.07-.1-.08-.16q.02 0 .03.02zm-.24-.58c-.07-.02-.06-.09-.08-.14.07.02.06.09.08.14m1.02 2.43a.13.13 0 0 1-.06-.14c.06.03.03.1.06.14m.42.96a.1.1 0 0 1-.08-.12.2.2 0 0 1 .08.12m-.68-1.54-.04-.04v-.08l.04.05zm.54 1.2q-.07-.01-.06-.08.07.01.06.08m.38.9q-.07-.01-.04-.08Zm-.56-1.32q-.07-.01-.04-.08Zm.77 1.88q-.05-.02-.02-.06.06 0 .02.06M2.42 4.4c-.03-.01-.08-.01-.04-.06Zm.12.32c-.03-.01-.08-.01-.04-.06Zm.68 1.58q-.05 0-.04-.05.05 0 .04.06M1.96 3.36l-.02-.06c.02.01.06.03.02.06m.7 1.65q-.05 0-.04-.06Zm-.18-.49q-.05-.02-.04-.06Zm.3.75q-.05 0-.04-.06Zm.66 1.53q-.05 0-.02-.03Zm-.04-.1q-.05 0-.02-.03ZM2.28 4.08q-.05 0-.02-.04Zm.64 1.49-.04-.04ZM2.2 3.9q-.05 0-.02-.04Zm-.04-.12-.04-.04Zm-.28-.62q-.05.01-.02-.04ZM3.56 7.1q-.05 0-.02-.03Zm-.36-.89q-.05.01-.02-.04Z" class="f"/><path d="M35.55 2.34h.12l.01.58V3a.3.3 0 0 1-.2 0q-.14-.04-.17.1l-.02.23a.2.2 0 0 0 .23.23h.23a.2.2 0 0 0 .15-.06 1 1 0 0 1 0-.3l-.03-.07-.1-.1.02-.1.06-.04.05-.01.35-.21.39-.2a.2.2 0 0 1 .23.07l.03.04a.1.1 0 0 0 .12-.03L37 2.47l.09-.08a.5.5 0 0 1 .26-.1c.14 0 .14.08.11.17l-.02.03a.16.16 0 0 0 .14.22h.28a.2.2 0 0 0 .13-.06l.06-.02-.13.13c.1.03.18-.03.26-.06a.1.1 0 0 0 .05-.1l-.02-.12.19.03c.09.01.1.01.1.1v.28q-.01.06.05.07h.38c.04-.06-.01-.15.07-.17.12.02.07.13.11.2l.11-.11.04.08c.1.01.1.02.13.1q0 .08.07.12.16.04.24.2l.17.2a.2.2 0 0 0 .23.04l.06-.01a.1.1 0 0 0 .1-.05l.1-.13.1-.16.26-.2.05-.01a.06.06 0 0 0 .1-.04.1.1 0 0 0-.02-.13l-.04-.08a1 1 0 0 1 .33-.22l.24-.1a.4.4 0 0 1 .18-.06l.02.09q.01.09.11.1.2.01.21-.08v-.02l.04-.2.1-.01h.16q.13 0 .15.1c.02.1.04.13 0 .2s0 .1.07.1h.2a.2.2 0 0 0 .22-.1.1.1 0 0 0 .03-.12l-.05-.11q-.02-.06.06-.07h.04l.08.17.05.03.12.04.13-.01.03.08.24-.01q.02.14.15.16a.2.2 0 0 1 .12.08l.2.22q.12-.08.2-.01l.2.19.1.14.2.23.01.04.1.2a.4.4 0 0 1 .08.2l.02.06a1 1 0 0 1 .08.36v.04c.06.1.03.21.05.32v.18a.5.5 0 0 0 .02.33v.02c-.03.07.02.14-.03.2l.01.05a.3.3 0 0 1 .03.17v3.06l-.03.2q-.05.12.08.15l.09.02a.3.3 0 0 1 .03.25l-.03.19h-.12c.01-.08-.08-.09-.1-.13.06-.1.19-.12.21-.23a.2.2 0 0 0-.14-.06h-.83a.4.4 0 0 0-.26.03l.02-.14c.1-.04.12-.05.12-.17V5.47a.5.5 0 0 1 0-.3v-.04a2 2 0 0 1-.04-.43l-.05-.16-.14-.32-.1-.17-.09-.1a1 1 0 0 0-.33-.38l-.03-.03-.08-.06a.3.3 0 0 0-.2-.09l-.02-.01c-.09-.05-.1-.04-.13.04q0 .03-.03.04l-.06-.02a1 1 0 0 0 .04-.28l-.03-.08a.3.3 0 0 0-.3-.14h-.35a1 1 0 0 0-.41 0q-.08 0-.14.03.02.06 0 .07c-.05.09-.01.18 0 .26l.02.12-.23.07-.07.03c-.15 0-.23.12-.33.2-.02 0-.02.06-.03.09l-.02.01a.1.1 0 0 0-.1.03l-.13.1a.2.2 0 0 0-.11.19l-.02.02a.14.14 0 0 0-.14.07.4.4 0 0 0-.1.26v.34l-.02.2-.04.17v3.92a.1.1 0 0 0 .05.09.1.1 0 0 1 .06.07l-.01.22-.02.16h-.08c.02-.07-.05-.1-.07-.12l.14-.18a.1.1 0 0 0-.07-.11h-.98a.4.4 0 0 0-.29.06v-.08l.03-.04V5.54l.01-.17q.02-.07-.05-.1l-.02-.03V5.1l.08-.06.04.12q.14-.13.04-.25l-.01-.06v-.22a.3.3 0 0 0-.1-.22s0 0 0-.02l.04-.01q.09-.01.06-.09l-.02-.18a.3.3 0 0 1-.23-.15l-.05-.04a.1.1 0 0 1-.08-.08.1.1 0 0 0-.1-.08.1.1 0 0 1-.11-.1l-.03-.08a.4.4 0 0 0-.23-.14l-.24-.12a.13.13 0 0 0-.08.14l-.1-.02a.1.1 0 0 1 .04-.08l.06-.08-.02-.23c-.02-.1-.03-.1-.13-.1l-.34-.02a.3.3 0 0 0-.16.05.2.2 0 0 1-.16.04h-.15l-.14.02q-.08 0-.14.03c-.06.03-.06.03-.05.09q.05.13.18.16l.11.03-.04.12-.06.01q-.02-.07-.09-.05l-.2.01c0-.04.04-.08-.03-.11l-.06.03a.2.2 0 0 1-.21.05q-.05 0-.08.04l-.08.13c-.12-.02-.13-.02-.2.05l-.24.24c-.08.08-.11.18-.2.25l-.03.04-.06.28v4.7l.05.06.07.02a.5.5 0 0 1-.01.33l-.03.1h-.12c.02-.07-.07-.08-.1-.13l.15-.12q.09-.05.07-.11-.05-.07-.13-.05h-.95l-.15.02.02-.16c-.02-2.21.02-4.42-.02-6.63l.03.01.05.16q.03.15.18.14h.79a.2.2 0 0 0 .14-.04.4.4 0 0 0 .08-.3l-.04-.1Zm3.74 2.85q-.06.03-.02.08Zm5.1 4" class="b"/><path d="m45.25 9.22-.08-.02q-.13-.03-.09-.15l.03-.2V5.78a.3.3 0 0 0-.02-.17q-.02-.03-.01-.05c.04-.06 0-.13.03-.2v-.02a.5.5 0 0 1-.02-.32v-.19c-.02-.1 0-.22-.05-.32v-.04a1 1 0 0 0-.08-.36l-.02-.06a.4.4 0 0 0-.08-.2l-.1-.2-.02-.03-.18-.23-.12-.15-.19-.19q-.1-.06-.2.01l-.2-.22a.2.2 0 0 0-.13-.08q-.12-.01-.14-.16l-.24.01-.03-.08h-.13l-.12-.03-.05-.03-.08-.17a.1.1 0 0 1 .1.04.1.1 0 0 0 .13-.02h.04l.07.06.07.02a.2.2 0 0 1 .15.01c.04.01.07.05.11.01h.04l.03.04.11.02.04.02.01.03.23.12q.05 0 .04-.04l.04.03a.4.4 0 0 0 .24.21s.01-.01.02-.02l.24.23a.2.2 0 0 0 .04.12l.2.28q-.01.07.06.1a.2.2 0 0 0 .08.14l.02.04-.02.03.08.18.06.07.02.08-.01.07.05.3a.1.1 0 0 0 .08.1v.06c-.06.02-.05.07-.05.11l.03.01v.04a.3.3 0 0 0-.04.2l.02.16zM40.81 2.8l.04.08a.1.1 0 0 1 .02.13.06.06 0 0 1-.1.04l-.05.01-.25.2-.11.16-.1.13a.1.1 0 0 1-.1.05l-.06.01a.2.2 0 0 1-.23-.04l-.16-.2c-.07-.1-.12-.18-.25-.2-.05 0-.06-.07-.07-.11-.02-.1-.02-.1-.12-.11l-.04-.08-.12.1c-.04-.06.02-.17-.1-.19-.09.02-.04.1-.07.17h-.39q-.06 0-.06-.07V2.6c0-.1 0-.1-.09-.1l-.19-.03.02.12a.1.1 0 0 1-.05.1c-.08.03-.16.09-.25.06l.13-.13V2.6l.03-.04-.02-.08-.07-.1q0-.04.02-.06a.2.2 0 0 1 .2-.03.2.2 0 0 0 .18 0 .13.13 0 0 0 .15.05c.06-.01.1.06.17.03l.02-.01.22.08q0 .04.03.06l.13.08.3.18.1.1.17.16.05.05.17.22q.04.09.14.1l.03-.02.06-.06c.1.01.13-.07.18-.12l.2-.19.1-.1a.2.2 0 0 1 .19-.1" class="b"/><path d="M34.31 2.46c.05 2.21.01 4.42.02 6.63l-.02.17.02.16a.2.2 0 0 1 .02.18v.05l-.1.01h-.04V2.38q.06.01.06-.04h.06z" class="f"/><path d="m40.43 9.65.02-.15.02-.23a.1.1 0 0 0-.06-.07.1.1 0 0 1-.06-.09V5.2a.4.4 0 0 1 .04-.18l.01-.2v-.25l.01-.08a.4.4 0 0 1 .1-.27.14.14 0 0 1 .14-.06l-.14.18a.2.2 0 0 0-.04.17l.05.48v4.64l-.02.02z" class="g"/><path d="m42.86 3.44.06.02.26.18.07.03.14.1q.18.18.34.4a.5.5 0 0 1 .1.26l.03.07a1 1 0 0 1 .11.38l.04.17.02.18V9l.01.1-.02.15q-.06.08 0 .14a.3.3 0 0 1 .08.25l-.06.01h-.13V5.83a5 5 0 0 0-.05-1.01l-.02-.1-.1-.3-.1-.2-.03-.06-.1-.14-.04-.04-.2-.2a1 1 0 0 0-.3-.2l-.16-.06a.1.1 0 0 1 .06-.1Z" class="i"/><path d="m36.64 3.44.2-.01q.08-.01.1.05l-.2.06a2 2 0 0 0-.92.6l-.03.05a.5.5 0 0 0-.11.36v5.07q0 .04-.06.04h-.08l.03-.12a.5.5 0 0 0 .01-.32l-.02-.16V5.12l.01-.12v-.47c0-.09 0-.1.08-.15q-.05-.08.01-.14l.08-.12a1 1 0 0 1 .27-.26l.17-.1.14-.12.04-.04.06-.02h.08l.04-.04.06-.04z" class="g"/><path d="M42.86 3.44a.1.1 0 0 0-.06.1l-.1-.02-.04-.02-.18-.02-.12-.02a1 1 0 0 0-.34 0l-.12.01-.14.02a.1.1 0 0 0-.08-.07l-.01-.12c-.01-.09-.05-.17 0-.26v-.07l.14-.03a1 1 0 0 1 .4 0h.36a.3.3 0 0 1 .3.14l.03.08a1 1 0 0 1-.04.28" class="q"/><path d="M45.25 9.22V5.15L45.24 5a.3.3 0 0 1 .03-.2c.03.03.03.09.09.08l.01.18v4.6l-.08.01h-.04l.03-.2a.3.3 0 0 0-.03-.24" class="f"/><path d="m37 3.47.04-.12-.1-.04q-.16-.02-.19-.16-.02-.07.05-.09l.14-.03.14-.02h.15a.2.2 0 0 0 .16-.04.3.3 0 0 1 .16-.05l.34.02c.1 0 .11 0 .13.1l.02.24-.06.07a.1.1 0 0 0-.04.08c-.03.04-.05 0-.08 0s-.1-.03-.12.04a2 2 0 0 0-.58-.02z" class="q"/><path d="M39.07 9.3a.4.4 0 0 1 .28-.06h1a.08.08 0 0 1 .06.12l-.14.17c.02.03.09.05.07.12H39.1l-.02-.01z" class="j"/><path d="m34.31 2.46.02-.12h1.21l.04.1a.4.4 0 0 1-.08.3.2.2 0 0 1-.13.04h-.8q-.14.01-.18-.14l-.05-.16z" class="p"/><path d="M38.06 2.6v.02q-.04 0-.06.03a.2.2 0 0 1-.13.05h-.28a.16.16 0 0 1-.14-.2l.02-.04c.02-.09.03-.17-.11-.18a.4.4 0 0 0-.27.1l-.09.09.02.08a.1.1 0 0 1-.12.03l-.03-.05a.17.17 0 0 0-.24-.07l-.38.2-.35.21-.06.01.17-.15a3 3 0 0 1 .88-.42l.39-.09a.1.1 0 0 0 .12-.02l.34-.02h.06l.34.03h.06l.12.04a1 1 0 0 1 .42.12h-.02c-.06.04-.11-.03-.17-.02a.13.13 0 0 1-.15-.04.2.2 0 0 1-.18-.01.2.2 0 0 0-.2.03l-.02.06a.2.2 0 0 0 .02.14z" class="r"/><path d="M38.04 3.46a.13.13 0 0 1 .08-.13l.24.12a.4.4 0 0 1 .23.13l.03.08a.1.1 0 0 0 .1.1.1.1 0 0 1 .11.08.1.1 0 0 0 .08.09l.05.04a.3.3 0 0 0 .23.14l.02.18q.03.07-.06.1h-.04v.03a.3.3 0 0 1 .1.2v.23l.01.06c.06.1.05.15-.04.25l-.04-.12V5l.03-.01-.03-.03-.01-.06-.07-.26-.08-.23-.04-.06a1 1 0 0 0-.23-.38l-.07-.05q-.05-.1-.1-.02l-.04-.05q.04-.09-.03-.12c-.07-.03-.06-.01-.07.03l-.04-.03q.04-.1-.08-.1l-.02-.04q.02-.08-.06-.08c-.08 0-.03.05-.04.08v.03l-.1-.05-.02-.1Z" class="b"/><path d="M43.2 2.32h-.04a.3.3 0 0 0-.23-.05q-.03 0-.05.03-.08 0-.05.07l.04.11a.1.1 0 0 1-.02.13.2.2 0 0 1-.22.1h-.2q-.1-.01-.08-.1c.02-.1 0-.14 0-.2s-.06-.1-.15-.11h-.15l-.1.01-.18.02-.05-.02a1 1 0 0 1 .3-.06l.03-.02.5-.04h.06l.35.02.06.01.49.12.23.1h-.14l-.05-.05-.1-.03-.2-.05-.04.02Z" class="r"/><path d="M39.07 9.22V5.27q.08.02.06.1t-.01.16v3.66l-.04.03Z" class="l"/><path d="M40.8 2.8a.2.2 0 0 0-.18.11l-.1.1-.2.18c-.07.06-.09.14-.19.13l.04-.07.22-.23.21-.18.14-.11a3 3 0 0 1 .9-.42h.05q-.01.05-.07.07l-.05.04a.4.4 0 0 0-.2.05l-.23.1a1 1 0 0 0-.33.23" class="r"/><path d="m38.64 3.92.07.04a1 1 0 0 1 .23.38l.04.07.08.22.07.27v.13l-.07.06-.04-.29a2 2 0 0 0-.16-.45 2 2 0 0 0-.26-.41z" class="l"/><path d="m41.57 2.42.05-.04q.06-.02.07-.07l.03-.01.05.02.18-.02-.04.2v.02q-.02.1-.21.08-.1 0-.11-.1z" class="h"/><path d="M44.88 3.46q-.1-.16-.2-.28a.2.2 0 0 1-.04-.12 2 2 0 0 1 .4.54 3 3 0 0 1 .25.68l.01.1.02.02v.1q-.08 0-.06-.09l-.05-.27-.03-.04-.02-.08-.09-.24q0-.03-.03-.04l-.02-.04q0-.08-.08-.14a.1.1 0 0 0-.06-.1m-4.83-.06q-.1-.01-.14-.1l-.17-.22-.05-.06-.16-.15q-.07-.04-.11-.1l-.3-.18L39 2.5l-.03-.06.36.2.1.06.35.31.24.31.02.05h.02z" class="r"/><path d="M41.7 3.42a.1.1 0 0 1 .07.08l-.16.04a1 1 0 0 0-.48.22l-.1.04q0-.05.03-.09c.1-.07.19-.19.33-.2l.08-.02z" class="g"/><path d="m45.17 4.1.03.04.05.27q-.02.07.06.09l.02.08h-.04a.1.1 0 0 1-.07-.1l-.06-.3z" class="f"/><path d="M40.67 4.14a.2.2 0 0 1 .11-.2l.12-.1a.1.1 0 0 1 .11-.02z" class="g"/><path d="m38.04 3.46.02.1-.32-.09c.02-.06.08-.03.12-.03s.05.03.08 0Z" class="l"/><path d="M44.1 2.61q.01.05-.04.04l-.23-.12-.01-.03h.08Z" class="i"/><path d="M45.3 4.58h.03l.02.08v.22c-.05 0-.05-.06-.07-.08v-.04l.02-.12Zm-.9-1.74-.02.01a.4.4 0 0 1-.24-.21z" class="r"/><path d="M38.4 3.76q.01-.07.07-.03.07.04.03.1z" class="b"/><path d="M38.16 3.6v-.02h.1l.02.04v.06l-.13-.07Z" class="l"/><path d="M38.28 3.67v-.05q.12 0 .08.1z" class="b"/><path d="M43.64 2.42h.1l.04.02v.04l-.11-.02z" class="i"/><path d="m38.64 3.92-.04.02-.06-.04q.05-.09.1.02" class="b"/><path d="M43.78 2.48v-.04l.12.06h-.08zm-8.09.53.08-.08h.02l-.02.09z" class="r"/><path d="M34.27 2.34q0 .05-.06.04 0-.06.06-.04" class="c"/><path d="M40.05 3.4v-.02h.03z" class="s"/><path d="M39.07 9.66v-.02l.02.01Zm1.43 0 .01-.02Z" class="c"/><path d="m26.1 8.98-.14-.16q.01-.14-.11-.14l-.03-.03a.03.03 0 0 0 .03-.06l-.11-.24-.17-.33-.08-.2a.2.2 0 0 0-.05-.14.2.2 0 0 0 0-.19q-.06-.05-.03-.13c.05-.08 0-.15-.02-.22 0-.03-.05-.04-.07-.06l-.01-.22V2.74l.15.03h.95a.3.3 0 0 0 .21-.1l.07-.06v4.1a1 1 0 0 0 .05.35l.01.03a1 1 0 0 0 .11.4 2 2 0 0 0 .3.51.4.4 0 0 0 .27.19l.06.04c.03.1.12.11.2.16s.14.06.21.1l.14.04.22.02.43.06v.04q.01.14-.14.1h-.06l-.1-.05-.05-.05a.17.17 0 0 0-.25.05l-.04.18a.2.2 0 0 0 .19.2h.45l.39-.03a.25.25 0 0 0 .27-.2l.02-.24a.2.2 0 0 0 .19-.02l.23-.1q.1-.02.12-.1.01-.02.05-.03c.08-.06.2-.06.23-.19l.02-.02.15-.1.06-.05.16-.27a.3.3 0 0 0 .04-.17l-.02-.15v-4.5l-.02-.22q-.01-.06-.07-.05a.4.4 0 0 1 .05-.3h.04a1 1 0 0 0 .04.33.14.14 0 0 0 .13.1h.88a.1.1 0 0 0 .13-.07l.06-.16.06-.02v.25l-.13.05-.05.05v1.6l.03.26v.12a.3.3 0 0 0-.03.18v4a.2.2 0 0 0 .18.2v.28c-.07.02-.05.08-.06.13h-.12a.1.1 0 0 0-.08-.1q-.04.01-.05-.04l.15-.13q.07-.05.03-.1c-.04-.05-.06-.03-.09-.04h-.86l-.03-.04q-.1-.03-.2.02a.4.4 0 0 0 0-.26l-.02-.1q.01-.15-.13-.14a.4.4 0 0 0-.28.1l-.25.2-.12.11A.15.15 0 0 0 29.6 9q-.11.01-.1.13l.02.07h-.1l-.02.07c-.01.02-.04.07-.05.06-.09-.01-.15.06-.24.04a.2.2 0 0 0-.14-.09q-.12 0-.1.11l.03.1a1 1 0 0 1-.52.12l.04.17h-.28c0-.08-.08-.08-.13-.09q-.2-.01-.37-.04a1.4 1.4 0 0 1-.56-.13.1.1 0 0 0-.15.01 2 2 0 0 1-.62-.37q0-.06-.06-.05l-.04-.04c-.01-.09-.02-.1-.12-.1Zm.99-.77-.03-.1-.04-.09-.1-.12a.1.1 0 0 0-.15.05 1 1 0 0 0 0 .44.1.1 0 0 0 .08.09.13.13 0 0 1 .12.1l.05.07a.4.4 0 0 0 .35 0l.04-.05a.16.16 0 0 0-.09-.2.2.2 0 0 1-.1-.17l-.03-.08z" class="b"/><path d="M31.9 9.24a.2.2 0 0 1-.18-.2v-4a.3.3 0 0 1 .03-.17.2.2 0 0 0 0-.13l-.03-.25V2.88l.04-.05.13-.04v6.45Z" class="f"/><path d="m31.9 2.52-.06.03-.06.15a.13.13 0 0 1-.13.08h-.88a.14.14 0 0 1-.13-.1 1 1 0 0 1-.04-.34h1.24l.06.06z" class="p"/><path d="M30.57 2.34a.4.4 0 0 0-.06.3v1.78l.01.27v.1l-.01.14V7.2l.01.13a.5.5 0 0 1-.19.47l-.06.01.12-.16q.06-.05.04-.14V2.35l.02-.02h.07z" class="n"/><path d="M30.82 9.24h.86q.06.01.1.04.03.06-.03.1l-.16.13q.01.04.05.04a.1.1 0 0 1 .08.1H30.7a.3.3 0 0 0-.08-.24l-.02-.03q-.04-.12.08-.14z" class="j"/><path d="M30.82 9.24h-.15q-.14.01-.08.14l.02.03a.3.3 0 0 1 .07.24h-.15l-.04-.33.02-.1h.08c.06-.01.13-.05.2-.01z" class="h"/><path d="M31.84 9.65c0-.05-.01-.1.06-.13v.12l-.02.01Zm.06-7.25-.06-.06q.06 0 .06.06" class="f"/><path d="m31.88 9.65.02-.01Z" class="c"/><path d="m30.26 7.82.07-.01a.5.5 0 0 0 .19-.47l-.01-.13V2.64q.06-.01.07.05l.02.23v4.5l.02.14a.3.3 0 0 1-.04.17l-.16.27-.06.05-.15.1-.03.03c-.02.12-.14.13-.22.18q-.04 0-.05.03-.03.09-.12.1l-.24.1a.2.2 0 0 1-.19.02c.02-.05-.04-.06-.06-.1l.19-.09.28-.13a.1.1 0 0 0 .05-.1h.05a.14.14 0 0 0 .15-.14l.12-.12c.09-.02.1-.03.12-.12Z" class="b"/><path d="M29.3 8.52c.02.04.08.05.07.1l-.02.24a.25.25 0 0 1-.27.2l-.4.03h-.44a.2.2 0 0 1-.18-.2l.03-.18a.17.17 0 0 1 .25-.05l.06.05.1.05h.05q.14.03.14-.1v-.04l.1-.02q.06 0 .08-.06l.24-.04z" class="h"/><path d="M27.44 8.2a.4.4 0 0 1-.27-.18 2 2 0 0 1-.3-.51 1 1 0 0 1-.11-.4l-.01-.04a1 1 0 0 1-.05-.35v-4.1a.4.4 0 0 0-.06-.27l.1-.02.02.01.01.03V6.8a2 2 0 0 0 .34 1.06 1 1 0 0 0 .23.26zm1.43.35q-.01.05-.08.05l-.1.02-.43-.05-.21-.03-.14-.04-.22-.1c-.07-.04-.17-.06-.2-.16q.2.11.39.19l.36.1a3 3 0 0 0 .5.02zm.43-.03-.2-.02.45-.16.22-.12.06-.02a.1.1 0 0 1-.06.1l-.28.13zm.72-.46a.14.14 0 0 1-.14.14h-.05zm.24-.24c-.01.09-.03.1-.11.13Z" class="n"/><path d="m26.77 2.36-.01-.02h.02z" class="d"/><path d="M18.63 2.34h.01l-.02.2c0 .14.03.25.22.25h.74a.2.2 0 0 0 .2-.08l.05-.03-.05.17-.17.33-.01.05a2 2 0 0 1-.19.47l-.2.42-.25.6-.09.18-.06.17-.06.13-.14.36-.03.04-.1.18-.11.27-.25.58-.14.31-.2.44q-.1.21-.17.42-.17.35-.3.71l-.04.08-.24.47-.13.3-.02-.07a.1.1 0 0 0-.12-.05h-1.2q-.08 0-.06.09l.06.1.05.03c.06.04.07.05.04.12l-.02.08h-.04V9.6l-.16-.23-.08-.15-.06-.18-.2-.46-.06-.13-.27-.63V7.8a2 2 0 0 1-.2-.38L14.4 7l-.12-.27c-.06-.19-.2-.35-.23-.55l-.02-.03c-.1-.15-.14-.34-.24-.5l-.13-.26a3 3 0 0 0-.25-.64q-.06-.17-.16-.34l-.03-.08-.07-.2-.1-.22-.14-.33-.16-.34-.23-.5-.05-.13-.05-.12q-.05-.07.03-.1c.03-.02.07-.01.06-.06h.04a1 1 0 0 0 .05.33.2.2 0 0 0 .2.11h.73c.16 0 .2-.07.2-.2l-.02-.24h.08l.07.08.12.27.19.45.13.3.22.53.17.39.22.53.13.3.1.25.15.35.19.44.19.45.14.36.18.42.13.27a.14.14 0 0 0 .1.1v-.06l.02-.04c.06.03.07-.02.08-.05l.08-.19.16-.37.14-.33.27-.62.28-.7.24-.55.26-.6.15-.36.1-.19.17-.46.17-.38c.1-.18.1-.24.15-.35a1 1 0 0 1 .15-.24Z" class="b"/><path d="m18.63 2.34-.15.23-.15.35q-.1.17-.17.38l-.18.46-.09.2-.15.36-.26.6-.24.55-.28.7q-.15.3-.27.62l-.14.32-.16.38-.08.19q0 .06-.07.05l.08-.23.83-1.95.91-2.14.07-.17.18-.44.06-.12.04-.1.06-.14.01-.03a.13.13 0 0 1 .15-.08Zm-2.42 5.43v.05a.14.14 0 0 1-.1-.1q-.08-.12-.13-.26-.1-.2-.18-.43l-.15-.35-.19-.45-.19-.45-.14-.34q-.06-.12-.1-.25l-.14-.3-.22-.53-.16-.4-.23-.52-.13-.3-.19-.45-.12-.27-.06-.08.04-.02a.1.1 0 0 1 .07.06l.06.14.4.93.35.85.35.83.38.89.71 1.67.02.04q.01.04.05.03Z" class="n"/><path d="m16.91 9.36.13-.3.24-.48.03-.07.3-.71.18-.42.2-.44.13-.31.26-.58.1-.28.1-.17.03-.04.15-.36.05-.14.07-.16.09-.2.25-.58.2-.42a2 2 0 0 0 .18-.48l.02-.05.16-.32.06-.17a.3.3 0 0 0 .02-.27l-.02-.07.24-.01-.06.15-.32.72-.2.46-.01.02-.34.76-.2.49-.55 1.22q-.14.38-.32.76l-.33.73-.19.44-.28.63-.12.31-.12.23-.05.16-.1.17q-.04-.05-.01-.1.03-.07.03-.12" class="m"/><path d="M15.64 9.65v-.07c.04-.07.04-.08-.02-.12l-.06-.03-.06-.1q-.03-.09.07-.09h1.2c.04.07.04.08 0 .13l-.09.07-.08.08.09.04a.1.1 0 0 1 .06.1h-1.11" class="j"/><path d="M16.75 9.65a.1.1 0 0 0-.06-.09l-.09-.04.08-.08.08-.07c.05-.05.05-.06.01-.13a.1.1 0 0 1 .11.05l.03.07-.03.12q-.03.06.01.1-.02.08-.14.08Z" class="h"/><path d="M30.58 9.22h-.08v-.15q.02-.08-.06-.1h-.01c-.02-.05-.03-.02-.05 0a3 3 0 0 1-.7.5l-.25.1a.3.3 0 0 0-.29.05l-.01.05a.1.1 0 0 1-.12.03c-.03-.06-.08-.03-.12-.03l-.27.04q-.07-.02-.09.06l-.1.01-.04-.17a1 1 0 0 0 .52-.11l-.02-.1q-.03-.12.08-.11a.2.2 0 0 1 .15.08c.09.02.15-.05.24-.03l.05-.07.01-.08.1.01v-.07q-.04-.11.1-.12a.15.15 0 0 1 .16.12l.13-.12.25-.2a.4.4 0 0 1 .28-.1q.13-.01.13.13l.02.1a.4.4 0 0 1 0 .27Z" class="b"/><path d="M26.64 2.34a.4.4 0 0 1 .06.28l-.08.06a.3.3 0 0 1-.2.1h-.96l-.15-.03-.01-.34v-.04l.02-.03h1.31Z" class="j"/><path d="M25.32 7.23v-.14l.07.05c.02.07.07.15.02.23q-.03.06.02.13a.2.2 0 0 1 .01.19.2.2 0 0 1 .05.13l.08.2.16.34.11.24q.02.04-.02.05a2 2 0 0 1-.4-.76l-.08-.4zm1.61 2.31a.1.1 0 0 1 .16 0 1.4 1.4 0 0 0 .55.12l.38.04q.1-.01.13.1a3 3 0 0 1-.86-.12z" class="m"/><path d="M28.53 9.78q.01-.07.1-.06l.26-.04c.04 0 .1-.03.12.03a2 2 0 0 1-.48.07m.6-.1.02-.04a.3.3 0 0 1 .28-.06Z" class="n"/><path d="M25.85 8.68c.1.01.1.03.11.14Zm.25.3c.1 0 .1.01.12.1Zm.16.14q.05-.01.06.05Z" class="m"/><path d="m25.32 2.34-.02.02Z" class="d"/><path d="m21.57 2.34.02-.02h.1l.06.02-.02.04-.03.05v.37l.02.14v1.63l-.02.38.02.15v3.84l-.02.3c-.06.05-.05.12-.06.18a.1.1 0 0 0 .04.14.1.1 0 0 1 .04.1h-.12l-.02-.02zm1.46.03v7.29h-.16a.1.1 0 0 0-.04-.1c-.07-.04-.07-.04-.02-.1l.05-.08.05-.12.02-.11V2.92l-.04-.22.05-.1q.1-.14-.02-.24v-.02l.08-.01.04.03Z" class="f"/><path d="m21.54 9.62.03-.04v.04Z" class="t"/><path d="m21.58 9.64.02.02Z" class="c"/><path d="M10.75 9.65h-.16a.1.1 0 0 0-.08-.1l-.08-.03.2-.16.02-.07-.07-.05h-.95a.4.4 0 0 0-.23.04l.02-.16V2.46q0-.06.06-.08l.06.3c.03.1.05.1.15.1h.77a.24.24 0 0 0 .24-.16l.03-.06.04-.04v.2a.2.2 0 0 0-.1.19v6.2a.2.2 0 0 0 .1.17v.36z" class="b"/><path d="M10.77 9.28a.2.2 0 0 1-.1-.18V2.9a.2.2 0 0 1 .1-.18z" class="b"/><path d="m10.77 2.52-.04.04-.03.06a.24.24 0 0 1-.24.16h-.78q-.12.02-.14-.1l-.07-.3v-.04h1.12l.12-.01h.06Z" class="p"/><path d="m10.75 9.65.02-.01v.02Z" class="c"/><path d="M9.4 9.28a.4.4 0 0 1 .22-.04h.96l.06.05q.01.04-.02.07l-.2.16.1.04a.1.1 0 0 1 .07.1H9.45v-.13l-.01-.07a.3.3 0 0 1-.04-.18" class="j"/><path d="M9.3 2.35v-.02h.02Z" class="o"/><path d="m19.84 2.34.02.07a.3.3 0 0 1-.02.27l-.05.02a.2.2 0 0 1-.2.08h-.75q-.25-.01-.2-.25l.01-.2h1.2Z" class="q"/><path d="M4.87 5.79v.04l-.04.13-.15.35-.21.52a.2.2 0 0 1-.1.12l.16-.38q.02-.08.06-.14l.1-.22.14-.36zm.68-1.61.01.05-.28.65q-.01.03-.05.05l.04-.14.13-.3.07-.1.04-.14zm-.4.95a1 1 0 0 1-.11.33l-.05.14q0 .08-.08.09a1 1 0 0 1 .13-.33l.07-.19zm.88-2.07a1 1 0 0 1-.09.28l-.03.07c0 .08-.07.13-.1.18h-.02v-.04l.2-.46zm-.24.56-.03.14-.09.25q0 .06-.06.07a2 2 0 0 1 .15-.44zm-.56 1.31c0 .08 0 .15-.08.18a.3.3 0 0 1 .08-.18m.84-1.95q.01.05-.04.06Z" class="f"/><path d="m30.45 2.33-.02.02Z" class="o"/><path d="m50.57 5.45.83.37.49.21.18.09.12.16.03.22v2.05l.01.13a.2.2 0 0 0 .1.17l.2.1 1.71.75.02.01.2.08a.2.2 0 0 0 .24-.02l.04-.01a.18.18 0 0 1-.3.12 1 1 0 0 0-.3-.15l-.28-.13-.44-.2q-.2-.07-.4-.18l-.2-.08-.15-.07L52.5 9a.5.5 0 0 1-.37-.35l-.02-.13V6.36a.2.2 0 0 0-.15-.22L51.67 6q-.12-.07-.25-.12c-.18-.1-.39-.15-.57-.25l-.23-.1c-.04-.01-.09-.04-.04-.1Zm2.53.28-.02-.2v-2.1l-.05-.25q.04-.04.07.01a.4.4 0 0 1 .09.24v1.2l-.02.18.02.38v.38l-.02.12q-.02.03-.06.04m-2.63-3.39-.02.18v2.65a.3.3 0 0 0 .05.2l.01.04a.2.2 0 0 1-.15-.24V2.51l.01-.1a.1.1 0 0 1 .1-.07m4.34 7.3V9.6l.02-.06V6.8a.4.4 0 0 0-.06-.24q.04 0 .07.02l.07.14v2.75l-.01.09q-.01.07-.1.07Zm-3.65-7.3-.33-.14-.16-.02-.08.02a.16.16 0 0 1 .23-.1l.14.1.12.04q.08.02.08.1m.56.24-.4-.18q.09-.06.16.01a.2.2 0 0 0 .16.07q.08 0 .08.1m2.99 3.94-.04-.01-.04-.02-.28-.12v-.02a.2.2 0 0 1 .19.01l.15.1zm-1.75-3.39-.17-.09-.12-.05a.3.3 0 0 1 .24.04c.04.03.1.04.08.12zm-.96-.43-.22-.1.03-.03.18.07zm2.02 3.51-.23-.1a.17.17 0 0 1 .23.1" class="l"/><path d="m51.1 5.92.1-.04.03.05-.03.05q-.05.02-.1-.06" class="b"/><path d="m53.75 6.1-.18-.1q.14-.06.18.08m-1.38-3.23-.16-.07q.1-.08.16.07m.24.1-.12-.05q.09-.08.12.05m1.68 3.37-.07-.02q.06-.06.07.02m.47 3.42.05-.06q.01.05-.05.06m-.64-3.49-.04-.01q.05-.05.04.01" class="l"/><path d="m55.5 6.21.33.15.79.35.02.01.2.09a.2.2 0 0 0 .2-.05l.04-.05.01-.2V4.89a.23.23 0 0 0-.16-.24l-.15-.07a.1.1 0 0 1 .08-.04l.09.04.18.15.04.1v.27l-.01.14v1.25c-.01.08.03.18-.05.26L57 6.9a.1.1 0 0 1-.1.03l-.15-.06-.32-.17-.07-.03-.13-.05-.45-.22h-.06a1 1 0 0 1-.34-.18.2.2 0 0 1-.06-.16q0-.06.07-.07v.08q-.03.03 0 .04a.14.14 0 0 0 .1.1Z" class="g"/><path d="m55.62 4.1-.04-.02q0-.05-.04-.05-.03.02-.04.06l-.07.05h-.03l.04-.08.04-.02q.03-.09.11-.06.12-.02.22.08c.13.02.21.13.33.16l.09.02c.1 0 .13.02.17.14l-.06-.02-.31-.15q-.04-.02-.07.01h-.06l-.04-.04q-.02-.09-.11-.1l-.05.04z" class="b"/><path d="M55.96 4.22q.02-.04.06 0l.32.14.06.02.06.06-.14-.04-.12-.06-.06-.02zm-.56-.08h.03l-.04.07-.04-.03Zm1.3.4-.09-.04q.07-.05.09.04m-.14-.06-.06-.03q.05-.04.06.03" class="g"/><path d="m44.04 9.12-.02-.1V5.44l.01-.1v-.12l-.02-.18-.04-.17a1 1 0 0 0-.11-.38l-.02-.07a.5.5 0 0 0-.11-.27l-.34-.4-.14-.09q-.05 0-.07-.03l-.26-.18.02-.04c.04-.09.05-.1.13-.04h.03a.3.3 0 0 1 .2.1l.08.06c.03.02.01.02.03.02a1 1 0 0 1 .33.39l.09.1.1.17.14.31.04.16a2 2 0 0 0 .04.43v.04a.5.5 0 0 0 0 .3v3.5c0 .11 0 .12-.12.16Zm-7.62-5.54-.06.02-.04.04-.14.11-.16.11a1 1 0 0 0-.28.26l-.07.12q-.08.08-.01.14c-.09.05-.08.06-.08.15V5l-.01.12v3.94l.01.16-.07-.03-.04-.05V4.43l.06-.27.02-.05c.09-.06.11-.18.2-.25s.16-.16.24-.24.09-.07.2-.05l.08-.12q.03-.06.08-.04a.2.2 0 0 0 .21-.06l.07-.03c.06.03.02.08.02.12l-.04.05-.06.05c-.09-.03-.1-.03-.12.04Z" class="b"/><path d="M35.43 9.66h-1.08V9.6a.2.2 0 0 0-.03-.19l-.01-.16.15-.02h.94q.09-.02.13.05c.04.07-.03.08-.06.1l-.14.13c.02.05.1.06.1.14Zm9.7-.01H44.1a.3.3 0 0 0-.08-.25c-.06-.04-.03-.1 0-.14a.4.4 0 0 1 .25-.02h.84a.2.2 0 0 1 .14.05c-.02.11-.15.13-.2.23.01.05.1.05.09.13Z" class="j"/><path d="m35.69 3.01.08.01.1.1.03.08a1 1 0 0 0 0 .3.2.2 0 0 1-.16.05h-.22a.2.2 0 0 1-.23-.23l.02-.22q.03-.14.18-.1a.3.3 0 0 0 .18 0Z" class="h"/><path d="m42.88 2.3.05-.03a.3.3 0 0 1 .23.05.1.1 0 0 1-.12.02.2.2 0 0 0-.12-.04Z" class="i"/><path d="m39.3 5.19-.03.08q-.03-.05.02-.08m5.09 4 .01-.02h.02v.02z" class="b"/><path d="m43.2 2.32.04-.01q.1.01.2.05l.1.02.06.04c-.04.05-.08 0-.11 0a.2.2 0 0 0-.15-.02l-.07-.02z" class="i"/><path d="m45.04 3.74.03.03.09.25-.07-.07-.07-.18zm-.1-.18q.07.05.08.14a.2.2 0 0 1-.08-.14m.36 1.08-.03.12-.02-.01q-.02-.08.04-.11m-.41-1.18a.1.1 0 0 1 .06.1q-.08-.03-.06-.1" class="f"/><path d="m38.06 2.6-.04-.08a.2.2 0 0 1-.02-.14l.08.1.02.08q-.01.03-.04.04m-1.64.98c.04-.07.04-.07.12-.04l-.04.04zm-.1.06.04-.04Zm1.94-.06h-.1q-.02-.05.04-.08c.06-.03.06.03.06.08M39.13 5v-.05l.04.03Z" class="b"/><path d="m27.1 8.2.1-.04.01.08a.2.2 0 0 0 .11.17.16.16 0 0 1 .1.2l-.05.05a.4.4 0 0 1-.35 0l-.05-.07a.13.13 0 0 0-.12-.1.1.1 0 0 1-.08-.08 1 1 0 0 1 0-.45.09.09 0 0 1 .16-.05l.09.13.04.08.03.1Z" class="h"/><path d="M12.55 2.34h1.15l.02.24q.01.19-.2.2h-.73a.2.2 0 0 1-.2-.11 1 1 0 0 1-.05-.33Z" class="p"/><path d="m22.89 2.7.04.22v6.22l-.02.12-.17-.02H21.7l.02-.3V5.11l-.01-.15v-.01l.01-.38V2.94l-.02-.14v-.37l.04-.05v.17q.03.25.23.23h.7a.3.3 0 0 0 .23-.08Z" class="b"/><path d="M22.89 2.7a.3.3 0 0 1-.24.08h-.68c-.15.01-.2-.06-.24-.23v-.17l.02-.04h1.16v.02c.1.07.08.15.02.23z" class="p"/><path d="M21.7 9.24h1.04l.17.02-.05.13-.06.06c-.04.07-.04.07.02.12a.1.1 0 0 1 .05.09H21.7a.1.1 0 0 0-.03-.1.1.1 0 0 1-.05-.13c.01-.07 0-.14.06-.19" class="j"/><path d="m55.7 4.11.05-.03q.08.01.1.1l-.13-.04zm-.2-.02q.01-.04.04-.06.04 0 .04.05Z" class="g"/></g></g></svg>