<svg xmlns="http://www.w3.org/2000/svg" id="Lager_1" viewBox="0 0 600 300"><defs><style>.cls-1{fill:#e8eff3}.cls-2{fill:#535352}.cls-3{fill:#05688a}</style></defs><path d="M0 0h600v300H0z" class="cls-1"/><g id="e-avrol"><path d="M121.8 117.22a36 36 0 0 0-9.9 6.2 35 35 0 0 0-7.16 9.39 39 39 0 0 0-4 11.63 37 37 0 0 0-.26 13.7 22 22 0 0 0 4.14 10 20 20 0 0 0 7.92 6.12 28 28 0 0 0 11 2.07 43 43 0 0 0 6.64-.52 49 49 0 0 0 6.71-1.63 42 42 0 0 0 6.29-2.85 23 23 0 0 0 5.34-4.13l-2.23-3.79a1.9 1.9 0 0 0-1.81-1 6 6 0 0 0-2.59.95c-1 .6-2.32 1.29-3.79 2a39 39 0 0 1-5.25 2 24 24 0 0 1-7 .95 18 18 0 0 1-7.41-1.38 12 12 0 0 1-5.17-4.22 17 17 0 0 1-2.67-7 35 35 0 0 1 .17-9.82h39.72a2.5 2.5 0 0 0 2.15-.86 7.4 7.4 0 0 0 1.12-3.27 32 32 0 0 0 .17-11.38 19 19 0 0 0-3.7-8.35 18 18 0 0 0-6.89-5.17 24 24 0 0 0-9.57-1.81 33 33 0 0 0-11.97 2.17m17.2 6.63a10 10 0 0 1 4.13 3.45 11.3 11.3 0 0 1 2 5.25 20 20 0 0 1-.17 6.72h-32.55a25.7 25.7 0 0 1 7.59-12.14 19 19 0 0 1 12.75-4.4 14 14 0 0 1 6.25 1.12m28.38 21.8h24.12v-9.13h-24.12Zm120.43 31.87h9.82l25.07-61.59h-8.44a3.5 3.5 0 0 0-2.07.6 4 4 0 0 0-1.2 1.64l-15.77 39.63a30 30 0 0 0-1.38 4.39l-1 4.31c-.26-1.38-.6-2.85-.95-4.31a28 28 0 0 0-1.38-4.39l-15.59-39.63a4 4 0 0 0-1.21-1.55 3.6 3.6 0 0 0-2.15-.69h-8.87Zm55.74 0v-39.19a25 25 0 0 1 6.38-9.57 14 14 0 0 1 9.47-3.27 15 15 0 0 1 4.91.6 12 12 0 0 0 2.59.61 1.84 1.84 0 0 0 1.89-1.55l1.38-8.1a18 18 0 0 0-3.79-1.64 19 19 0 0 0-4.65-.6 17.4 17.4 0 0 0-10.94 3.62 29 29 0 0 0-7.79 10.08l-.69-9.57a3.6 3.6 0 0 0-.95-2.32 3.5 3.5 0 0 0-2.41-.69h-6.2v61.59Zm50.92-60.3a26 26 0 0 0-9.31 6.38 28 28 0 0 0-5.86 10 42.7 42.7 0 0 0 0 26.19 30 30 0 0 0 5.86 10 26 26 0 0 0 9.31 6.38 34 34 0 0 0 24.29 0 25 25 0 0 0 9.22-6.38 30 30 0 0 0 5.86-10 42.7 42.7 0 0 0 0-26.19 28 28 0 0 0-5.86-10 25 25 0 0 0-9.22-6.38 34 34 0 0 0-24.29 0m4.22 51.09a15.5 15.5 0 0 1-5.69-4.57 20 20 0 0 1-3.44-7.24 37 37 0 0 1-1.12-9.82 38 38 0 0 1 1.12-9.82 20 20 0 0 1 3.44-7.32 15.5 15.5 0 0 1 5.69-4.57 19 19 0 0 1 8-1.55c6.12 0 10.6 2.07 13.61 6.12s4.48 9.82 4.48 17.14-1.46 13-4.48 17.06-7.58 6.12-13.61 6.12a18 18 0 0 1-8-1.55M445.73 115v83.39h10.85v-27.24a21 21 0 0 0 7.15 5.34 22 22 0 0 0 9.74 1.9 24.5 24.5 0 0 0 19.47-9.22 31 31 0 0 0 5.25-10.17 42 42 0 0 0 1.81-12.66 49 49 0 0 0-1.64-13.53 30 30 0 0 0-4.65-9.9 20.4 20.4 0 0 0-7.32-6 22 22 0 0 0-9.56-2.07 23 23 0 0 0-11.72 2.93 33 33 0 0 0-9.05 7.75l-.34-8.44a2.2 2.2 0 0 0-2.15-2.07Zm34 9.91a12 12 0 0 1 4.92 4 21 21 0 0 1 3.1 7.06 45 45 0 0 1 1 10.34c0 7.58-1.55 13.44-4.65 17.49s-7.5 6.11-13.18 6.11a18 18 0 0 1-7.93-1.63 17.6 17.6 0 0 1-6.55-5.69V132.9a27 27 0 0 1 7.33-6.89 17.4 17.4 0 0 1 9.3-2.41 16 16 0 0 1 6.68 1.29Z" class="cls-2"/><path id="new_copy" d="m190.64 177.52 33.77-82.61h14l44.88 110.18h-11.2a6.7 6.7 0 0 1-6.29-4.22l-35.06-86.06-24.29 59.27a6 6 0 0 1-5.34 3.44Z" class="cls-3"/></g></svg>