<svg id="Lager_1" data-name="Lager 1" xmlns="http://www.w3.org/2000/svg" viewBox="0 0 600 300"><defs><style>.cls-1{fill:#e8eff3;}.cls-2{fill:#1f1f1f;}.cls-3{fill:#191919;}.cls-4{fill:#141414;}.cls-5{fill:#0753fe;}</style></defs><rect class="cls-1" width="600" height="300"/><g id="Scaleout"><path class="cls-2" d="M177.56,113.81v72.38H101.39V113.81Zm-72.36,3.83v64.64h68.52V117.64Z"/><path class="cls-3" d="M384.45,150.33C384.5,140,393,131.92,403.75,132c10.59.1,18.93,8.18,19,18.41.06,10.44-8.53,18.7-19.37,18.62S384.39,160.79,384.45,150.33Zm19.06,14.12a13.93,13.93,0,1,0-14.07-14.14A14,14,0,0,0,403.51,164.45Z"/><path class="cls-3" d="M313,168.66h-5.28c-1.64-2.7-2.51-5.78-4.09-8.74H286.5a4.35,4.35,0,0,0-2.16.27q-1.81,4.11-3.69,8.39h-5.26l16.07-36.06a23.77,23.77,0,0,1,5.35-.15ZM294,137.75c-2.58,6-5,11.65-7.52,17.45h15.16C299.1,149.37,296.64,143.74,294,137.75Z"/><path class="cls-3" d="M228.18,135.52c-.71,1.48-1.33,2.8-2.05,4.3a28,28,0,0,0-7.86-2.87,12.31,12.31,0,0,0-6.23.39c-3.75,1.36-4.38,5.19-1.29,7.74a11.78,11.78,0,0,0,3.72,1.89c2.73.95,5.5,1.83,8.18,2.9,3.87,1.54,6.19,4.23,6.23,8.6s-2.24,7.33-6.09,9.11c-6.69,3.11-16.44,1-21.61-4.52.3-.58.63-1.19.95-1.8l1-1.82c1.15-.15,1.61.79,2.3,1.27a17.56,17.56,0,0,0,11.22,3.51,9.17,9.17,0,0,0,4.54-1.37,4.56,4.56,0,0,0,.63-7.41A12.42,12.42,0,0,0,217,153a63.49,63.49,0,0,1-8.47-3c-4.2-2.09-6-5.55-5.13-10.07.66-3.46,2.91-5.58,6.08-6.82a19.72,19.72,0,0,1,13-.26A18.61,18.61,0,0,1,228.18,135.52Z"/><path class="cls-3" d="M431.62,132.48a19.36,19.36,0,0,1,4.74.1,6.68,6.68,0,0,1,.25,3c0,5.58,0,11.17,0,16.76a29,29,0,0,0,.26,4.17,9,9,0,0,0,8.24,7.82,14.79,14.79,0,0,0,5.39-.26c4.12-1.11,6.74-4.62,6.85-9.46.12-5.38,0-10.77.05-16.16v-5.85a15.9,15.9,0,0,1,4.65-.12c.68.79.4,1.63.39,2.39-.07,7,.31,14-.18,20.94-.52,7.46-5.26,12.28-12.76,13.1a23.5,23.5,0,0,1-5.1,0c-7.42-.86-12.45-5.83-12.74-13.18C431.38,148.08,431.62,140.41,431.62,132.48Z"/><path class="cls-4" d="M350.28,132.55h25.05v4.17H355.27V148h17.88a13.92,13.92,0,0,1-.16,4.61H355.22v11.51h20.72v4.06c-2.06.55-21.35.7-25.66.17Z"/><path class="cls-3" d="M266.92,160.16l2.77,3a19.07,19.07,0,0,1-27.06.55,18.41,18.41,0,0,1-.4-25.88c8.29-8.46,21.31-6.87,27.3-.35-.12.81-.82,1.28-1.28,1.89a19.63,19.63,0,0,1-1.37,1.51c-8.08-5.76-15.76-5.66-21.08.22a14,14,0,0,0-.25,18.34C250.9,165.61,258.42,165.91,266.92,160.16Z"/><path class="cls-2" d="M341.23,164.14v4.39H320.44V132.61a9.32,9.32,0,0,1,5.05,0v31.5Z"/><path class="cls-4" d="M486.92,168.49H482V137H470.47a11.14,11.14,0,0,1-.26-4.42h28.4v4.12c-3.77.47-7.64,0-11.69.3Z"/><path class="cls-5" d="M156.85,154.6c4.57-.36,9.16,3.82,9.2,9a9.39,9.39,0,0,1-9.42,9.19,9.57,9.57,0,0,1-9.07-9.26C147.62,159.13,151.66,154.25,156.85,154.6Z"/><path class="cls-3" d="M119,171.59c-.63-.83-1-1.39-1.47-1.94-.31-.38-.63-.75-1.14-1.35l42.15-40.19c1.32.65,1.94,1.82,3.15,2.76Z"/><path class="cls-2" d="M128.67,133.45c-1,.7-2,.19-2.84.39-.83-.33-.84-1-1.11-1.51a1.75,1.75,0,0,0-2-1,1.7,1.7,0,0,0-1.36,1.43,1.83,1.83,0,0,0,1,2c.58.37,1.26.59,1.88.91a18.91,18.91,0,0,1,2.61,1.45,4.83,4.83,0,0,1,1.69,5.34,4.58,4.58,0,0,1-4.2,3.31c-3.94.45-6.7-1.36-7.07-4.68a2.5,2.5,0,0,1,.19-.83,4.83,4.83,0,0,1,2.58-.2c1,.38.72,1.43,1.24,2a2.33,2.33,0,0,0,3.21.31,2.06,2.06,0,0,0-.26-2.93,8.26,8.26,0,0,0-1.83-1c-.54-.27-1.11-.46-1.64-.73-2.41-1.24-3.58-3.12-3.24-5.19a5.13,5.13,0,0,1,4.23-4.12A5.79,5.79,0,0,1,128,131,3.81,3.81,0,0,1,128.67,133.45Z"/></g></svg>