<svg id="Lager_1" data-name="Lager 1" xmlns="http://www.w3.org/2000/svg" viewBox="0 0 600 300"><defs><style>.cls-1{fill:#e8eff3;}.cls-2{fill:#ff4069;}.cls-3{fill:#fff;fill-rule:evenodd;}</style></defs><rect class="cls-1" width="600" height="300"/><g id="Internetstifelsen"><path d="M148.33,182.21a21.27,21.27,0,0,0-8-3.7l-6.63-1.84c-4.7-1.3-6.21-2.8-6.21-6.14s3-5.33,7.93-5.33c5.27,0,8.15,2.22,8.57,6.57v.57h7l-.05-.63c-.71-8.12-6.33-12.74-15.48-12.74-8.56,0-14.76,4.86-14.76,11.56,0,6.34,3.3,10.21,10.4,12.19l8.13,2.27c4.17,1.17,5.87,2.93,5.87,6,0,4.53-4.94,6.13-9.17,6.13-4,0-9-1.28-9.63-7.39l-.07-.46h-7l.06.63c.64,8.33,7,13.51,16.72,13.51,9.27,0,16-5.24,16-12.46A10.85,10.85,0,0,0,148.33,182.21Z"/><polygon points="154.16 166.23 166.5 166.23 166.5 202.51 173.47 202.51 173.47 166.23 185.85 166.23 185.85 159.91 154.16 159.91 154.16 166.23"/><polygon points="228.21 202.51 235.16 202.51 235.16 183.96 253.34 183.96 253.34 177.6 235.16 177.6 235.16 166.23 254.78 166.23 254.78 159.91 228.21 159.91 228.21 202.51"/><polygon points="260.56 166.23 272.9 166.23 272.9 202.51 279.87 202.51 279.87 166.23 292.21 166.23 292.21 159.91 260.56 159.91 260.56 166.23"/><polygon points="297.52 202.51 326.19 202.51 326.19 196.15 304.49 196.15 304.49 183.96 323.38 183.96 323.38 177.6 304.49 177.6 304.49 166.23 326.19 166.23 326.19 159.91 297.52 159.91 297.52 202.51"/><polygon points="339.69 159.91 332.74 159.91 332.74 202.51 358.45 202.51 358.45 196.15 339.69 196.15 339.69 159.91"/><path d="M381.58,178.51,375,176.67c-4.71-1.3-6.22-2.8-6.22-6.14s3-5.33,7.93-5.33c5.31,0,8.19,2.22,8.57,6.58l.06.56h7l-.06-.63c-.69-8.09-6.35-12.74-15.53-12.74-8.55,0-14.76,4.86-14.76,11.56,0,6.33,3.3,10.2,10.4,12.19l8.12,2.27c4.15,1.17,5.84,2.92,5.84,6,0,4.53-4.94,6.13-9.17,6.13-4,0-9-1.28-9.64-7.39l-.06-.51h-7l.06.63c.69,8.33,7.1,13.51,16.73,13.51,9.26,0,16-5.24,16-12.46C393.23,182.74,387.33,180.05,381.58,178.51Z"/><polygon points="399.42 202.51 428.08 202.51 428.08 196.15 406.38 196.15 406.38 183.96 425.26 183.96 425.26 177.6 406.38 177.6 406.38 166.23 428.08 166.23 428.08 159.91 399.42 159.91 399.42 202.51"/><polygon points="460.99 159.91 460.99 192.89 444.61 159.99 444.56 159.91 435.48 159.91 435.48 202.51 442.23 202.51 442.23 169.33 458.62 202.43 458.65 202.51 467.77 202.51 467.77 159.91 460.99 159.91"/><polygon points="192.22 166.27 203.15 166.27 203.15 196.11 192.22 196.11 192.22 202.51 220.9 202.51 220.9 196.11 210.15 196.11 210.15 166.27 220.9 166.27 220.9 159.91 192.22 159.91 192.22 166.27"/><polygon points="183.97 136.69 167.63 103.79 167.59 103.71 158.47 103.71 158.47 146.31 165.25 146.31 165.25 113.13 181.59 146.23 181.63 146.31 190.76 146.31 190.76 103.71 183.97 103.71 183.97 136.69"/><polygon points="196.41 110.03 208.75 110.03 208.75 146.31 215.72 146.31 215.72 110.03 228.12 110.03 228.12 103.71 196.41 103.71 196.41 110.03"/><polygon points="262.38 139.95 240.72 139.95 240.72 127.76 259.61 127.76 259.61 121.4 240.72 121.4 240.72 110.03 262.38 110.03 262.38 103.71 233.75 103.71 233.75 146.31 262.38 146.31 262.38 139.95"/><path d="M289.37,128.41l.42-.09a10.66,10.66,0,0,0,6.08-3.09c2.11-2.11,3.14-5.08,3.14-9.13,0-4.21-1.08-7.27-3.27-9.29s-5.68-3.1-10.25-3.1H269.36v42.6h6.71V128.67h6.16l.08.17L292,146.31h7.71Zm-13.3-5.59v-13h11.58c2.71,0,4.34,1.55,4.34,4.13v4.56a4.11,4.11,0,0,1-3.84,4.35,4.17,4.17,0,0,1-.5,0Z"/><polygon points="339.21 103.72 332.43 103.72 332.43 136.69 316.07 103.8 316.04 103.72 306.92 103.72 306.92 146.31 313.7 146.31 313.7 113.13 330.05 146.23 330.08 146.31 339.21 146.31 339.21 103.72"/><polygon points="375.05 139.95 353.38 139.95 353.38 127.77 372.27 127.77 372.27 121.41 353.38 121.41 353.38 110.03 375.05 110.03 375.05 103.72 346.43 103.72 346.43 146.31 375.05 146.31 375.05 139.95"/><polygon points="400.08 146.31 400.08 110.03 412.44 110.03 412.44 103.72 380.73 103.72 380.73 110.03 393.13 110.03 393.13 146.31 400.08 146.31"/><polygon points="150.54 139.94 139.79 139.94 139.79 110.04 150.54 110.04 150.54 103.71 121.97 103.71 121.97 110.04 132.81 110.04 132.81 139.94 121.97 139.94 121.97 146.31 150.54 146.31 150.54 139.94"/><polygon class="cls-2" points="480.77 103.67 480.77 117.87 474.37 117.87 474.37 124.95 467.94 124.95 467.94 132.03 461.52 132.03 461.52 139.12 455.11 139.12 455.11 146.2 448.15 146.2 448.15 139.12 441.74 139.12 441.74 132.03 435.31 132.03 435.31 124.95 428.9 124.95 428.9 117.87 422.49 117.87 422.49 103.67 428.9 103.67 428.9 96.59 448.15 96.59 448.15 103.67 455.11 103.67 455.11 96.59 474.37 96.59 474.37 103.67 480.77 103.67"/><polygon class="cls-3" points="473.69 108.3 473.69 112.93 464.79 112.93 464.79 103.53 469.32 103.53 469.32 108.3 473.69 108.3"/></g></svg>