<svg id="Lager_1" data-name="Lager 1" xmlns="http://www.w3.org/2000/svg" viewBox="0 0 600 300"><defs><style>.cls-1{fill:#e8eff3;}.cls-2{fill:#a2a19b;}.cls-3{fill:#84827a;}.cls-4{fill:#989790;}.cls-5{fill:#f39a29;}.cls-6{fill:#343123;}.cls-7{fill:#343124;}.cls-8{fill:#f39a2a;}.cls-9{fill:#343224;}.cls-10{fill:#adaca6;}.cls-11{fill:#76746a;}.cls-12{fill:#5b594d;}.cls-13{fill:#706e64;}.cls-14{fill:#f0981a;}.cls-15{fill:#5f5d52;}.cls-16{fill:#4d4b40;}.cls-17{fill:#d1ceca;}.cls-18{fill:#dedbd8;}.cls-19{fill:#d2ceca;}.cls-20{fill:#dad7d3;}.cls-21{fill:#e1dfdd;}.cls-22{fill:#e9e7e5;}.cls-23{fill:#dad8d5;}.cls-24{fill:#4b483c;}.cls-25{fill:#626056;}.cls-26{fill:#f09514;}</style></defs><rect class="cls-1" width="600" height="300"/><path class="cls-2" d="M78.06,167.28a19.94,19.94,0,0,1-8.33-4.48,23.18,23.18,0,0,1-8.19-15,1.54,1.54,0,0,0-.21-.4V142.1a5.15,5.15,0,0,0,.24-.76,23,23,0,0,1,6.32-13,23.34,23.34,0,0,1,19.75-7.24,35.06,35.06,0,0,1,5.59,1.44,7.09,7.09,0,0,1-.55.87c-4.41,5.19-6.63,11.1-5.89,18l-.11.67a2.94,2.94,0,0,0-.84.39c-6.5,5.76-9.35,12.91-8.23,21.56Z"/><path class="cls-3" d="M112.9,115.55a50.15,50.15,0,0,1,5.61,1.45c8.23,3.16,13.4,9,15.24,17.69-1.43.08-2.86.1-4.28.24a22,22,0,0,0-9.12,2.93,6,6,0,0,1-1.22.41l1.94-3.27A20.47,20.47,0,0,0,105,130.87h-.71a15.6,15.6,0,0,0-1.16-1.75,24.43,24.43,0,0,0-9.43-6.65,23,23,0,0,1,12-6.45c.72-.15,1.44-.32,2.15-.48Z"/><path class="cls-4" d="M134,134.94a21.46,21.46,0,0,1,12.46,4.65,23.56,23.56,0,0,1,2.44,35.72,22.89,22.89,0,0,1-20.84,6.58,20.74,20.74,0,0,1-9.88-4.21,6.19,6.19,0,0,1,.79-1.29,22.1,22.1,0,0,0,4.91-8.52,19.06,19.06,0,0,0,.53-3.05l.5-.85c2.16-2.32,3.07-5.25,4-8.33h5.58L131.33,151a.78.78,0,0,1,0-.22A24.17,24.17,0,0,0,134.24,138C134.18,137,134.08,136,134,134.94Z"/><path class="cls-5" d="M409.75,139.71c4.12,0,8.23,0,12.35,0a10.93,10.93,0,0,1,1.9.19,4.67,4.67,0,0,1,4.35,4.36,14.17,14.17,0,0,1,.2,2.26c0,5.58,0,11.16,0,16.74a9.4,9.4,0,0,1,0,1.19c-.46,3.92-2.11,5.55-6.09,5.58q-12.72.12-25.43,0c-4.14,0-6-2.08-6.07-6.21,0-6-.06-12,0-17.94a9,9,0,0,1,1-3.87c1-2,3.08-2.27,5.08-2.29C401.27,139.67,405.51,139.71,409.75,139.71Zm-11.62,24.76h23.21v-19.2H398.13Z"/><path class="cls-6" d="M202.89,147.25l-6.19,1.44v-3.4H176.85v6.45h1.31c5.68,0,11.36,0,17,0,1.08,0,2.16.07,3.23.17,2.76.26,4.39,1.51,4.67,4.25a46.74,46.74,0,0,1,.08,9.16c-.33,3.33-2.2,4.63-5.93,4.74-2.2.07-4.4,0-6.6,0H176.49c-5.54,0-7.42-2-7.2-7.49,0-.08,0-.15.09-.35L175.5,161v3.53h21.56v-7.15h-1.32c-6,0-11.91,0-17.86,0a23.35,23.35,0,0,1-3.33-.34,4.15,4.15,0,0,1-3.78-4,55.47,55.47,0,0,1,0-8.93c.24-2.77,2.09-4.22,5.31-4.26,7-.11,14.07-.14,21.11,0C201.56,139.85,203.38,142.4,202.89,147.25Z"/><path class="cls-7" d="M284.78,160.66V139.78H291v30.3c-1.56,0-3.07,0-4.57,0a1.57,1.57,0,0,1-.81-.43q-11.37-9.56-22.71-19.12c-.5-.42-1-.9-1.48-1.39V170h-6.24V139.7c1.49,0,3,0,4.5,0a1.72,1.72,0,0,1,.91.48q11,9.13,22,18.32C283.35,159.15,284,159.9,284.78,160.66Z"/><path class="cls-5" d="M449.64,149.33V170H443.5v-30.3c1.53,0,3.07,0,4.61,0,.3,0,.62.32.89.55q10.71,8.91,21.42,17.85c.91.76,1.73,1.63,2.65,2.5V139.78h6.09v30.29c-1.48,0-3,0-4.48,0a1.47,1.47,0,0,1-.81-.45q-11.37-9.54-22.72-19.11c-.48-.4-.95-.83-1.42-1.25l-.13-.14Z"/><path class="cls-8" d="M516.05,151.61c0,1.65,0,3.08,0,4.51,0,.83-.54.73-1.06.73H502.07v7.65h24.21V170h-31.4V139.79H526v5.06h-23.9v6.76Z"/><path class="cls-9" d="M306.63,170V139.76h7v12.56c1.22-.9,2.27-1.64,3.3-2.42,4.27-3.2,8.53-6.43,12.83-9.61a3.3,3.3,0,0,1,1.73-.57c3-.05,6,0,9.33,0L320.67,154l22.69,16.09H341a40.25,40.25,0,0,0-4.79,0c-3.07.38-5.45-.73-7.83-2.6-4.7-3.68-9.61-7.1-14.61-10.77V170Z"/><path class="cls-5" d="M370.15,145.2h-18.7v-5.4H382a4.44,4.44,0,0,1-1.25,4.15c-6.46,6.39-12.79,12.92-19.18,19.39a5.47,5.47,0,0,1-1.21.75l.34.46H382V170H349.32a4.91,4.91,0,0,1,1.42-4.8c6.25-6.15,12.34-12.47,18.5-18.72a10.9,10.9,0,0,1,1.14-.89Z"/><path class="cls-10" d="M118,177.63a26.25,26.25,0,0,1-9,5.47c-8.53,2.76-16.27,1.25-23.21-4.36a22.62,22.62,0,0,1-6.7-9.3,13.42,13.42,0,0,1-.46-1.71,9.11,9.11,0,0,1,1,.11,23.68,23.68,0,0,0,11.68-.18c1.9-.53,3.7-1.39,5.55-2.11-.43.78-.86,1.56-1.32,2.41,5.09,3.63,10.53,5.24,16.65,4l.55-.14a5.11,5.11,0,0,0,.67,1.41C114.88,174.75,116.44,176.18,118,177.63Z"/><path class="cls-6" d="M231.11,170.05h-7.05c0-.38-.06-.73-.06-1.07,0-3.83,0-7.66,0-11.48a3,3,0,0,0-.73-1.86c-4.65-5-9.36-9.93-14-14.89-.27-.28-.53-.57-1-1.05,2.42,0,4.64.13,6.84,0a4.7,4.7,0,0,1,4.36,1.93c2.75,3.3,5.71,6.43,8.67,9.74l5.48-6.07c1.5-1.66,3-3.33,4.5-5a1.6,1.6,0,0,1,1-.56c2.54,0,5.09,0,7.89,0-2.53,2.68-4.89,5.19-7.26,7.69-2.63,2.78-5.29,5.54-7.88,8.36a2.72,2.72,0,0,0-.64,1.66C231.09,161.59,231.11,165.77,231.11,170.05Z"/><path class="cls-11" d="M96.84,165.55c-1.85.72-3.65,1.58-5.55,2.11a23.68,23.68,0,0,1-11.68.18,9.11,9.11,0,0,0-1-.11l-.5-.45L77.61,164c-1.12-8.65,1.73-15.8,8.23-21.56a2.94,2.94,0,0,1,.84-.39c.2,1,.36,2.09.62,3.12a3.76,3.76,0,0,0,.65,1c-.09.38-.19.77-.29,1.16H82.1l8.32,12.43L93.16,156a6.2,6.2,0,0,1,.67.47,26.35,26.35,0,0,0,8.07,5.08l-2.23,1.69-.83-.52-1.1,1.87Z"/><path class="cls-12" d="M134,134.94c.07,1,.17,2.05.23,3.08a24.17,24.17,0,0,1-2.87,12.74c-.61-.84-1.23-1.65-1.81-2.5-1.14-1.66-2.25-3.34-3.46-5.13l-4.26,6.25a5.16,5.16,0,0,0-.64-1.49c-1.85-2.13-3.77-4.21-5.66-6.3l1.44-1.68c.36-.08.8-.07,1-.28a9.15,9.15,0,0,0,1.11-1.36,6,6,0,0,0,1.22-.41,22,22,0,0,1,9.12-2.93c1.42-.14,2.85-.16,4.28-.24Z"/><path class="cls-13" d="M118,177.63c-1.53-1.45-3.09-2.88-4.58-4.38a5.11,5.11,0,0,1-.67-1.41,20.57,20.57,0,0,0,11.7-7,19.06,19.06,0,0,1-.53,3.05,22.1,22.1,0,0,1-4.91,8.52,6.19,6.19,0,0,0-.79,1.29A.42.42,0,0,1,118,177.63Z"/><path class="cls-14" d="M533.43,127.08a5.19,5.19,0,1,1,.09,10.38,5.19,5.19,0,1,1-.09-10.38Zm-2.9,7.86,0,0c0,.11,0,.25.06.32a4.15,4.15,0,1,0,5.33-6.34,4.22,4.22,0,0,0-6,1.16C529.06,131.43,529,134.05,530.53,134.94Z"/><path class="cls-15" d="M93.23,122.55l.46-.07a24.43,24.43,0,0,1,9.43,6.65,15.6,15.6,0,0,1,1.16,1.75,21.68,21.68,0,0,0-13,8.36,7.32,7.32,0,0,0-1.22.42c-1.09.55-2.15,1.15-3.22,1.73-.74-6.87,1.48-12.78,5.89-18A7.09,7.09,0,0,0,93.23,122.55Z"/><path class="cls-16" d="M86.79,141.39c1.07-.58,2.13-1.18,3.22-1.73a7.32,7.32,0,0,1,1.22-.42L88,146.17a3.76,3.76,0,0,1-.65-1c-.26-1-.42-2.08-.62-3.12C86.71,141.84,86.75,141.61,86.79,141.39Z"/><path class="cls-17" d="M88,146.17l3.28-6.93a21.68,21.68,0,0,1,13-8.36H105c.31.75.64,1.5.94,2.25.5,1.23,1,2.47,1.46,3.7-.39.07-.78.17-1.18.22a14.08,14.08,0,0,0-10.65,7.26,32.81,32.81,0,0,0-1.38,3.07h4.65l-5.57,8.14a5.92,5.92,0,0,1-.48-.35,20.32,20.32,0,0,1-4.35-6.7,7,7,0,0,0-.77-1.13Z"/><path class="cls-18" d="M107.39,136.82c-.49-1.23-1-2.47-1.46-3.7-.3-.75-.63-1.5-.94-2.25A20.47,20.47,0,0,1,121.07,135l-1.94,3.27a9.15,9.15,0,0,1-1.11,1.36c-.24.21-.68.2-1,.28a13.14,13.14,0,0,0-9.38-3Z"/><path class="cls-19" d="M121.84,149.38l4.26-6.25c1.21,1.79,2.32,3.47,3.46,5.13.58.85,1.2,1.66,1.81,2.5a.78.78,0,0,0,0,.22,4.07,4.07,0,0,0-.42.41c-1.4,1.76-2.77,3.54-4.21,5.27a19.45,19.45,0,0,1-1.81,1.7c-.47.27-.92.58-1.41.81-1.4.69-2.81,1.35-4.21,2a15,15,0,0,0,2.91-5.56h-4.43Z"/><path class="cls-20" d="M119.27,161.19c1.4-.67,2.81-1.33,4.21-2,.49-.23.94-.54,1.41-.81l0,5.61-.5.85a20.57,20.57,0,0,1-11.7,7l-.55.14c-.16-.4-.3-.81-.48-1.2-.71-1.57-1.44-3.15-2.15-4.72a13.72,13.72,0,0,0,9-4.29Z"/><path class="cls-21" d="M124.92,164l0-5.61a19.45,19.45,0,0,0,1.81-1.7c1.44-1.73,2.81-3.51,4.21-5.27a4.07,4.07,0,0,1,.42-.41l3.17,4.66h-5.58C128,158.72,127.08,161.65,124.92,164Z"/><path class="cls-22" d="M109.54,166.06c.71,1.57,1.44,3.15,2.15,4.72.18.39.32.8.48,1.2-6.12,1.22-11.56-.39-16.65-4,.46-.85.89-1.63,1.32-2.41l.9-1,2-1.14c.31.16.63.32.93.5a13.59,13.59,0,0,0,8.72,2A.69.69,0,0,1,109.54,166.06Z"/><path class="cls-16" d="M107.39,136.82l.21.06.51,1.15c0,.27.08.55.15.81a22.57,22.57,0,0,1-1.92,16.71,52,52,0,0,1-4.24,6l-.2,0a26.35,26.35,0,0,1-8.07-5.08,6.2,6.2,0,0,0-.67-.47c0-.16.06-.31.1-.46l5.57-8.14H94.18a32.81,32.81,0,0,1,1.38-3.07A14.08,14.08,0,0,1,106.21,137C106.61,137,107,136.89,107.39,136.82Z"/><path class="cls-23" d="M93.26,155.51c0,.15-.07.3-.1.46l-2.74,3.79L82.1,147.33h5.56a7,7,0,0,1,.77,1.13,20.32,20.32,0,0,0,4.35,6.7A5.92,5.92,0,0,0,93.26,155.51Z"/><path class="cls-10" d="M101.9,161.52l.2,0,6.47,1.39.25.22.53,2.81a13.59,13.59,0,0,1-8.72-2c-.3-.18-.62-.34-.93-.5l0-.21Z"/><path class="cls-20" d="M99.67,163.21l0,.21-2,1.14,1.1-1.87Z"/><path class="cls-24" d="M108.82,163.15l-.25-.22c0-.32,0-.64,0-1a22.66,22.66,0,0,1,2.79-15,56.22,56.22,0,0,1,4-5.33l.24,0c1.89,2.09,3.81,4.17,5.66,6.3a5.16,5.16,0,0,1,.64,1.49l-4.09,6.25h4.43a15,15,0,0,1-2.91,5.56l-.77.58A32.7,32.7,0,0,1,108.82,163.15Z"/><path class="cls-3" d="M115.54,141.59l-.24,0a19.6,19.6,0,0,0-7.19-3.58l-.51-1.15a13.14,13.14,0,0,1,9.38,3Z"/><path class="cls-13" d="M108.82,163.15a32.7,32.7,0,0,0,9.68-1.38,13.72,13.72,0,0,1-9,4.29.69.69,0,0,0-.19-.1C109.17,165,109,164.09,108.82,163.15Z"/><path class="cls-25" d="M108.11,138a19.6,19.6,0,0,1,7.19,3.58,56.22,56.22,0,0,0-4,5.33,22.66,22.66,0,0,0-2.79,15c0,.31,0,.63,0,1l-6.47-1.39a52,52,0,0,0,4.24-6,22.57,22.57,0,0,0,1.92-16.71C108.19,138.58,108.16,138.3,108.11,138Z"/><path class="cls-26" d="M530.53,134.94a20.06,20.06,0,0,1,1.46-2c.68-.72,1.46-1.34,2.22-2-1-.88-2.59.41-3.42-1.23h5.46l.22.26-3.87,4a21.37,21.37,0,0,1,2.3,0c.54.07,1.58-.49,1.37,1h-5.76Z"/></svg>