<svg xmlns="http://www.w3.org/2000/svg" id="Lager_1" viewBox="0 0 600 300"><defs><style>.cls-1{fill:#e8eff3}.cls-2{fill:#7ac042}.cls-3{fill:#7ac143}</style></defs><path d="M0 0h600v300H0z" class="cls-1"/><path d="M430 126.41V79.65h10.63v69.97a33 33 0 0 1-3 14.66c-5.06 10.36-13.29 16.63-24.71 18.52a30 30 0 0 1-7.47.36 32.8 32.8 0 0 1-29.76-27.53 26 26 0 0 1-.41-6.74c1.06-12.08 6.75-21.25 17.41-27.19A30 30 0 0 1 405 118a32.4 32.4 0 0 1 24.51 8Zm0 24.24a22 22 0 1 0-21.2 21.94 22 22 0 0 0 21.2-21.94m-258.18 24.19v45.51H161v-.85c0-23.11-.07-46.22 0-69.33a32.8 32.8 0 0 1 27-31.81 31.8 31.8 0 0 1 26.09 6.58 31.3 31.3 0 0 1 11.73 19.22 32.7 32.7 0 0 1-26.92 38.59 30 30 0 0 1-6.22.43 32.5 32.5 0 0 1-20.52-8.18l-.21-.15s-.04-.03-.13-.01m0-23.23c.1 10.71 9.53 20.84 21.66 20.93a22.1 22.1 0 0 0 22.27-23.74 22 22 0 0 0-21.61-20.34 22 22 0 0 0-22.32 23.15m122.31 3.12h-51.8c2 8.27 6.8 14.1 14.86 16.68 9.15 2.93 17 .36 23.69-6.53l8 6.85-.59.69a32.6 32.6 0 0 1-19.75 10.44 30 30 0 0 1-7.79.19 33 33 0 0 1-28.94-26.9 29 29 0 0 1-.4-8 32.4 32.4 0 0 1 10.38-21.52 31 31 0 0 1 15.09-7.94 44 44 0 0 1 4.87-.66 28 28 0 0 1 3.57-.13c6.39.19 12.28 1.87 17.33 6a28 28 0 0 1 8.35 11.78 40 40 0 0 1 2.75 11.87c.16 2.26.26 4.52.38 6.78zm-11.56-10.79c-.33-1.13-.6-2.2-1-3.24-1.55-4.44-4.07-8.12-8.39-10.28a20 20 0 0 0-11.79-1.81 21.7 21.7 0 0 0-15.9 9.89 20 20 0 0 0-2.55 5.44ZM152.48 181.2h-10.61v-6.55c-.66.51-1.24.94-1.79 1.39a32 32 0 0 1-8.65 5 30 30 0 0 1-8.56 2 35 35 0 0 1-7.66-.2 32 32 0 0 1-16.51-7.43 32.7 32.7 0 0 1-10-14.87 26 26 0 0 1-1.43-7.54 44 44 0 0 1 0-6 32 32 0 0 1 4-12.47 33 33 0 0 1 6.36-8.09 33 33 0 0 1 10.61-6.55 32 32 0 0 1 7.93-1.9 33 33 0 0 1 8.4.18 33 33 0 0 1 10 3.18 31 31 0 0 1 6.32 4.26 33 33 0 0 1 7.5 9.14 30 30 0 0 1 3.28 9 30 30 0 0 1 .64 5.36c.09 10.56.1 21.12.14 31.68zm-32.69-8.66a22 22 0 0 0 22.06-21.41A22.1 22.1 0 0 0 118 128.54a22 22 0 0 0 1.81 44Z" class="cls-2"/><path d="M512.81 150.51a32.67 32.67 0 1 1-31.55-32.67 32.65 32.65 0 0 1 31.55 32.67m-32.63 22a22 22 0 1 0-22.08-22.1 22 22 0 0 0 22.08 22.13Z" class="cls-3"/><path d="M367.27 181.21h-10.56c0-.71-.09-1.41-.09-2.12v-25.63a49 49 0 0 0-.31-6.43 21 21 0 0 0-5.46-11.38A21.7 21.7 0 0 0 339.6 129a22.06 22.06 0 0 0-26.66 17 23 23 0 0 0-.49 4.83v9.52l.06 20v.79h-10.6v-.6c0-10.35-.11-20.7 0-31.05a31 31 0 0 1 7.82-20.28 32 32 0 0 1 18.41-10.82 31 31 0 0 1 7.83-.59 32.74 32.74 0 0 1 30.47 25.42 34 34 0 0 1 .82 7.51v29.61Z" class="cls-2"/></svg>