<svg xmlns="http://www.w3.org/2000/svg" width="223" height="112" viewBox="0 0 223 112"><g transform="translate(-306 -184)"><rect width="223" height="112" transform="translate(306 184)" fill="#e8eff3"/><g transform="translate(345.009 218.01)"><path d="M32.01,12.579a6.332,6.332,0,0,0-6.332-6.332H17.937v5.628a7.037,7.037,0,0,0,7.037,7.037h.7A6.332,6.332,0,0,0,32.01,12.579Z" fill="#4a67ce"/><path d="M25.678,19.9h-.7a8.036,8.036,0,0,1-8.027-8.027V5.257h8.731a7.322,7.322,0,0,1,0,14.645ZM18.927,7.237v4.638a6.054,6.054,0,0,0,6.047,6.047h.7a5.342,5.342,0,0,0,0-10.685Z" fill="#4a67ce"/><path d="M15.065.99H11.149A10.158,10.158,0,0,0,.991,11.148v7.763H4.907A10.158,10.158,0,0,0,15.065,8.753Z" fill="#4a67ce"/><path d="M11.15,0h4.905V8.753A11.148,11.148,0,0,1,4.907,19.9H0V11.148A11.148,11.148,0,0,1,11.15,0Zm2.925,1.98H11.15a9.179,9.179,0,0,0-9.168,9.168v6.773H4.907a9.179,9.179,0,0,0,9.168-9.168Z" fill="#4a67ce"/><path d="M32.01,30.683a7.694,7.694,0,0,1-7.694,7.694H17.78V30.1a7.115,7.115,0,0,1,14.23,0Z" fill="#4a67ce"/><path d="M24.316,39.367H16.79V30.1A8.1,8.1,0,0,1,33,30.1v.579A8.694,8.694,0,0,1,24.316,39.367Zm-5.546-1.98h5.546a6.711,6.711,0,0,0,6.7-6.7V30.1a6.125,6.125,0,0,0-12.25,0Z" fill="#4a67ce"/><path d="M1,22.769H5.172a9.9,9.9,0,1,1,0,19.8H1Z" fill="#4a67ce"/><path d="M.008,21.779H5.172a10.89,10.89,0,0,1,0,21.779H.008Zm5.164,19.8a8.91,8.91,0,1,0,0-17.819H1.988V41.578Z" fill="#4a67ce"/><path d="M62.3,36.9h.443V16.413h-3.8V18.7a9.333,9.333,0,0,0-6.787-2.795,10.216,10.216,0,0,0-7.583,3.19,10.452,10.452,0,0,0-3.113,7.613,10.717,10.717,0,0,0,3.072,7.644h0l0,0a10.094,10.094,0,0,0,7.476,3.191,9.858,9.858,0,0,0,6.931-2.883V36.9H62.3ZM57.092,21.733h0l0,0a6.943,6.943,0,0,1,2,5.085,6.835,6.835,0,0,1-2.028,5.046A6.581,6.581,0,0,1,52.23,33.9,6.51,6.51,0,0,1,47.37,31.8a7.2,7.2,0,0,1-.035-10h0l0,0a6.385,6.385,0,0,1,4.856-2.126A6.53,6.53,0,0,1,57.092,21.733Z" fill="#1b1a1a"/><path d="M52.014,38a10.55,10.55,0,0,1-7.793-3.325l-.008-.009a11.177,11.177,0,0,1-3.194-7.949,10.911,10.911,0,0,1,3.241-7.925,10.671,10.671,0,0,1,7.9-3.322A9.728,9.728,0,0,1,58.5,17.708V15.97h4.687V37.348H58.5v-1.7A10.117,10.117,0,0,1,52.014,38Zm-7.156-3.942a9.692,9.692,0,0,0,7.156,3.055,9.458,9.458,0,0,0,6.627-2.763l.747-.7v2.819H62.3v-19.6H59.389v2.909l-.755-.745a8.93,8.93,0,0,0-6.476-2.667,9.815,9.815,0,0,0-7.265,3.057,10.054,10.054,0,0,0-2.987,7.3,10.318,10.318,0,0,0,2.95,7.338Zm7.372.286a6.982,6.982,0,0,1-5.179-2.229,7.647,7.647,0,0,1-.04-10.611l0,0a6.857,6.857,0,0,1,5.18-2.266,7,7,0,0,1,5.216,2.194l0,0a7.418,7.418,0,0,1,2.118,5.391,7.309,7.309,0,0,1-2.158,5.36A7.054,7.054,0,0,1,52.23,34.339Zm-.036-14.222A5.925,5.925,0,0,0,47.662,22.1l0,.005a6.76,6.76,0,0,0,.035,9.388,6.045,6.045,0,0,0,4.539,1.956,6.117,6.117,0,0,0,4.517-1.9,6.369,6.369,0,0,0,1.9-4.733,6.476,6.476,0,0,0-1.868-4.774l-.009-.009A6.068,6.068,0,0,0,52.194,20.117Z" fill="#1b1a1a"/><path d="M67.215,35.443l-.142.343.313.2a12.634,12.634,0,0,0,3.33,1.507,14.976,14.976,0,0,0,4.141.515,9.41,9.41,0,0,0,5.975-1.778h0l0,0a6.033,6.033,0,0,0,2.308-4.937A5.235,5.235,0,0,0,82.136,28a6.6,6.6,0,0,0-2.293-1.963,28.454,28.454,0,0,0-3.344-1.4h0l-.005,0a15.44,15.44,0,0,1-3.38-1.518,1.992,1.992,0,0,1-.95-1.774,2.058,2.058,0,0,1,.877-1.852,4.524,4.524,0,0,1,2.583-.65A8.79,8.79,0,0,1,80.8,20.479l.458.323.208-.521.995-2.487.134-.335-.3-.2a11.953,11.953,0,0,0-6.749-1.949,8.842,8.842,0,0,0-5.47,1.62,5.515,5.515,0,0,0-2.167,4.678,5.081,5.081,0,0,0,.972,3.178h0l0,.006a6.952,6.952,0,0,0,2.287,1.879h0l.01,0a34.709,34.709,0,0,0,3.332,1.357,22.945,22.945,0,0,1,2.473,1.048l.01.005.01,0a4.109,4.109,0,0,1,1.384,1h0l.009.009a1.813,1.813,0,0,1,.492,1.3,2.586,2.586,0,0,1-1.08,2.243h0l-.005,0a4.785,4.785,0,0,1-2.948.83,10.078,10.078,0,0,1-5.944-1.718l-.452-.317-.212.51Z" fill="#1b1a1a"/><path d="M74.857,38.451a15.482,15.482,0,0,1-4.264-.532,13.133,13.133,0,0,1-3.447-1.559l-.625-.4,1.742-4.193.9.635a9.7,9.7,0,0,0,5.689,1.637,4.393,4.393,0,0,0,2.682-.741l.01-.008a2.143,2.143,0,0,0,.9-1.885,1.37,1.37,0,0,0-.371-1l-.135-.145a3.766,3.766,0,0,0-1.119-.767l-.04-.02a22.632,22.632,0,0,0-2.42-1.025,35.293,35.293,0,0,1-3.373-1.374l-.571-.276.029-.029a7.408,7.408,0,0,1-1.909-1.7l-.261-.331.017-.016a5.68,5.68,0,0,1-.828-3.112,5.938,5.938,0,0,1,2.344-5.033,9.3,9.3,0,0,1,5.736-1.708A12.433,12.433,0,0,1,82.54,16.89l.6.4-1.679,4.2-.917-.645a8.293,8.293,0,0,0-4.923-1.56,4.131,4.131,0,0,0-2.334.574,1.632,1.632,0,0,0-.682,1.485,1.546,1.546,0,0,0,.753,1.4,15.111,15.111,0,0,0,3.279,1.468l.011,0a29.019,29.019,0,0,1,3.4,1.424,7.059,7.059,0,0,1,2.443,2.089,5.679,5.679,0,0,1,1.1,3.558,6.463,6.463,0,0,1-2.474,5.283l-.007.006A9.868,9.868,0,0,1,74.857,38.451Zm-7.232-2.838h0a12.246,12.246,0,0,0,3.214,1.454,14.606,14.606,0,0,0,4.018.5,9.012,9.012,0,0,0,5.7-1.684A5.615,5.615,0,0,0,82.7,31.289a4.816,4.816,0,0,0-.916-3.019l-.005-.007a6.181,6.181,0,0,0-2.14-1.833,28.146,28.146,0,0,0-3.287-1.376h0a15.93,15.93,0,0,1-3.484-1.569,2.444,2.444,0,0,1-1.148-2.143,2.508,2.508,0,0,1,1.071-2.219,4.981,4.981,0,0,1,2.831-.727,9.275,9.275,0,0,1,5.433,1.722l.995-2.487a11.562,11.562,0,0,0-6.5-1.875,8.44,8.44,0,0,0-5.2,1.53,5.1,5.1,0,0,0-1.99,4.324,4.661,4.661,0,0,0,.88,2.908l0,0a6.537,6.537,0,0,0,2.139,1.755,34.449,34.449,0,0,0,3.288,1.338l0,0a23.467,23.467,0,0,1,2.523,1.07h0A4.568,4.568,0,0,1,78.721,29.8h0q.047.05.09.1l.187.21-.019.019a2.322,2.322,0,0,1,.353,1.276,3.04,3.04,0,0,1-1.26,2.6l0,0a5.246,5.246,0,0,1-3.214.919,10.567,10.567,0,0,1-6.2-1.8Z" fill="#1b1a1a"/><path d="M134.785,37.183h.444V25.524a7.389,7.389,0,0,1,1.383-4.438A5.963,5.963,0,0,1,140,18.774a11.54,11.54,0,0,1,3.005-.5h.443V15.311h-2.874a6.55,6.55,0,0,0-3.749,1.053,6.2,6.2,0,0,0-1.593,1.582V15.519h-4.157V37.183h3.713Z" fill="#1b1a1a"/><path d="M135.672,37.626h-5.044V15.076h5.044v1.661a6.328,6.328,0,0,1,.9-.74,7,7,0,0,1,4-1.129h3.317V18.72H143a11.212,11.212,0,0,0-2.866.475,5.526,5.526,0,0,0-3.164,2.15,6.9,6.9,0,0,0-1.3,4.179Zm-4.157-.887h3.27V25.524a7.867,7.867,0,0,1,1.467-4.7,6.374,6.374,0,0,1,3.606-2.473,11.85,11.85,0,0,1,3.144-.52V15.755h-2.431a6.136,6.136,0,0,0-3.5.977,5.788,5.788,0,0,0-1.479,1.47l-.806,1.14V15.963h-3.27Z" fill="#1b1a1a"/><path d="M87.133,37.783V6H92.2V23.52l6.457-8.76h5.764L97.331,25.066l9.311,12.717h-6.206L92.2,26.732V37.783Z" fill="#1b1a1a"/><path d="M117.394,37.731a11.4,11.4,0,0,1-5.751-1.384,9.373,9.373,0,0,1-3.7-3.95,13.227,13.227,0,0,1-1.3-6.04,13.182,13.182,0,0,1,1.3-6,9.816,9.816,0,0,1,3.661-4.036,10.271,10.271,0,0,1,5.522-1.456,11.178,11.178,0,0,1,3.863.663,8.733,8.733,0,0,1,3.229,2.018,9.458,9.458,0,0,1,2.22,3.489,14.012,14.012,0,0,1,.807,5.016v1.6H109.091V24.137h13.147a5.616,5.616,0,0,0-.649-2.667,4.719,4.719,0,0,0-1.773-1.86,4.982,4.982,0,0,0-2.623-.677,5.083,5.083,0,0,0-2.811.778,5.362,5.362,0,0,0-1.889,2.018,5.8,5.8,0,0,0-.677,2.725v3.07a7.214,7.214,0,0,0,.706,3.316,5.039,5.039,0,0,0,1.975,2.1,5.912,5.912,0,0,0,2.97.721,6.312,6.312,0,0,0,2.061-.317,4.577,4.577,0,0,0,1.6-.966,4.011,4.011,0,0,0,1.023-1.571l4.873.548a7.6,7.6,0,0,1-1.759,3.373,8.575,8.575,0,0,1-3.286,2.22A12.594,12.594,0,0,1,117.394,37.731Z" fill="#1b1a1a"/></g></g></svg>