<?xml version="1.0" encoding="utf-8"?>
<!-- Generator: Adobe Illustrator 26.0.3, SVG Export Plug-In . SVG Version: 6.00 Build 0)  -->
<svg version="1.1" id="Lager_1" xmlns="http://www.w3.org/2000/svg" xmlns:xlink="http://www.w3.org/1999/xlink" x="0px" y="0px"
	 viewBox="0 0 600 300" style="enable-background:new 0 0 600 300;" xml:space="preserve">
<style type="text/css">
	.st0{fill:#E8EFF3;}
	.st1{fill:#A7B1BF;}
	.st2{fill:#334768;}
	.st3{fill:#253349;}
</style>
<rect class="st0" width="600" height="300"/>
<g>
	<path class="st1" d="M96,215.9c2.1-14,12.1-63.7,46.5-63.7c2,0,4.1,0.2,6.2,0.5c10.9,2.3,17.7,9.9,17.5,19.1
		C165.7,186.7,147,207,96,215.9z"/>
	<path class="st2" d="M146.9,204.9c17.4-10.1,24.6-22.3,24.9-33c0.3-12.1-8.3-21.9-22-24.8l-0.2,0c-2.4-0.4-4.8-0.6-7.1-0.6
		c-18.4,0-30.5,11.6-38.4,25.5c10.1-23.9,27.3-46.9,55.9-46.9c3,0,6.1,0.3,9.2,0.7c16.4,3.5,26.7,14.9,26.3,29
		C195.1,170.6,181.3,190.2,146.9,204.9z"/>
	<path class="st3" d="M239,128.1c-0.6,23.5-21.8,53-75,74.6c3.5-2,7-4.2,10.3-6.5c17-12.1,26.5-26.7,26.9-41.1
		c0.5-17-11.7-30.6-30.9-34.7l-0.2,0c-3.5-0.5-6.9-0.8-10.2-0.8c-26.7,0-48.2,18.1-62.1,52.4c1.8-5.5,3.8-11.2,6.1-16.9
		c19.1-47.1,46.9-71,82.7-71c4.4,0,8.9,0.4,13.4,1.1C224.3,90.4,239.6,107.2,239,128.1z"/>
	<path d="M267.8,157.3c0.4-3.2,2.8-4.7,6.5-4.7c2.4,0,4.4,0.9,4.4,2.9c0,1.9-0.7,3-3.1,3.8l-8.4,2.9L267.8,157.3L267.8,157.3z
		 M265.9,171.5v-0.9l10.2-3.5c6.9-2.4,10.7-5.2,10.7-12.3c0-5.8-4.5-9.7-11.9-9.7c-8.9,0-14.8,4.9-15.8,11.5l-1.8,12.7
		c-0.1,1-0.2,2-0.2,3c0,6,3.9,9.7,12.5,9.7h11.7l1.1-7.5c0,0-7,0-11.7,0C267.5,174.6,265.9,173.6,265.9,171.5L265.9,171.5z
		 M306.2,131.5h-14.1L291,139h5.4l-4.9,35.6h-6.2l-1.1,7.5h21.1l1.1-7.5h-6.1L306.2,131.5z M413.7,130.5H405l-1.3,9.5h8.7
		L413.7,130.5L413.7,130.5z M411.6,145.2h-14.2l-1.1,7.5h5.4l-3,21.9h-6.2l-1.1,7.5h21.1l1.1-7.5h-6.2L411.6,145.2L411.6,145.2z
		 M433.7,145.2L433.7,145.2c-8.4,0-15.1,3.8-15.1,11.1c0,10.7,14.8,9.4,14.8,14.8c0,3.1-3.1,3.5-5.8,3.5c-5.8,0-11.1,0-11.1,0
		l-1.1,7.5c0,0,5.1,0,11.5,0c9.8,0,15.6-4.9,15.6-12.1c0-11-14.8-10-14.8-14.8c0-1.6,1.7-2.6,5.4-2.6c4.2,0,9.9,0,9.9,0l1.1-7.4
		H433.7L433.7,145.2z M356.8,145.2L356.8,145.2c-8.4,0-15.1,3.8-15.1,11.1c0,10.7,14.8,9.4,14.8,14.8c0,3.1-3.1,3.5-5.8,3.5
		c-5.8,0-11.1,0-11.1,0l-1.1,7.5c0,0,5.1,0,11.5,0c9.8,0,15.6-4.9,15.6-12.1c0-11-14.8-10-14.8-14.8c0-1.6,1.7-2.6,5.4-2.6
		c4.2,0,9.9,0,9.9,0l1.1-7.4C367.1,145.2,362.5,145.2,356.8,145.2L356.8,145.2L356.8,145.2z M493.7,145.2L493.7,145.2
		c-8.4,0-15.1,3.8-15.1,11.1c0,10.7,14.8,9.4,14.8,14.8c0,3.1-3.1,3.5-5.8,3.5c-5.8,0-11.1,0-11.1,0l-1.1,7.5c0,0,5.1,0,11.5,0
		c9.8,0,15.6-4.9,15.6-12.1c0-11-14.8-10-14.8-14.8c0-1.6,1.7-2.6,5.4-2.6c4.2,0,9.9,0,9.9,0l1.1-7.4H493.7L493.7,145.2z
		 M470.9,145.2l-11.2,23.3l-4.6-23.3h-9.3l7.9,34.8l-7.8,15.4h8.8l25.4-50.2L470.9,145.2L470.9,145.2z M329.5,158.1l-1.8,12.4
		c-0.4,2.5-3.1,4.1-6.1,4.1c-2.7,0-4.7-1.3-4.7-3.6c0-0.9,0.1-1.9,0.3-3l1.7-11.2c0.4-2.8,3-4.2,6-4.2c2.7,0,4.7,1.4,4.7,3.6
		C329.6,156.9,329.5,157.4,329.5,158.1L329.5,158.1z M332.1,145.2l-0.7,2.9c0,0-2.5-2.9-7.5-2.9c-7.2,0-12.7,5-13.6,12l-1.9,13
		c-0.1,0.7-0.1,1.4-0.1,2c0,6.1,4.2,10,10.5,10c5.3,0,8.2-3,8.2-3l-0.1,3h7.9l5.3-36.9H332.1z M381.1,172.6c0-0.5,0.1-1.7,0.2-2.2
		l2.5-17.7h6.9l1.1-7.5H385l1.1-8.1h-8.7l-1.1,8.1h-6.7l-1.1,7.5h6.7l-2.6,18.5c-0.1,1.1-0.3,2.4-0.3,3.1c0,5.3,3.1,7.8,10.7,7.8
		c5.6,0,5.9,0,5.9,0l1-7.5h-4.5C381.9,174.6,381.1,174,381.1,172.6z"/>
</g>
</svg>
