<svg id="Lager_1" data-name="Lager 1" xmlns="http://www.w3.org/2000/svg" viewBox="0 0 600 300"><defs><style>.cls-1{fill:#e8eff3;}.cls-2{fill:#24bde9;}.cls-3{fill:#050505;}.cls-4{fill:#090909;}.cls-5{fill:#070707;}.cls-6{fill:#040404;}.cls-7{fill:#1cbbe8;}.cls-8{fill:#030303;}.cls-9{fill:#020202;}.cls-10{fill:#0b0b0b;}.cls-11{fill:#0e0e0e;}.cls-12{fill:#111;}.cls-13{fill:#0d0d0d;}.cls-14{fill:#0a0a0a;}.cls-15{fill:#101010;}.cls-16{fill:#181818;}.cls-17{fill:#ececec;}</style></defs><rect class="cls-1" width="600" height="300"/><path class="cls-2" d="M81.47,197.2H75.92V103.82h5.55Z"/><path class="cls-3" d="M141.36,158.34v-36.4c5.9.17,11.8-.09,17.58.62,6.53.8,9.73,7,7.22,12.76-.68,1.59-1.39,2.32-4.07,4.21a9,9,0,0,1,4.84,4.68c2.55,5.76-.66,12-7,13.6a25.78,25.78,0,0,1-3.15.49,12,12,0,0,1-1.47,0Zm4.46-16.71v12.46c3.75,0,7.43.12,11.1,0,3.3-.13,5.49-1.95,6-4.63.81-3.91-1.44-7.41-5.43-7.73S149.75,141.63,145.82,141.63Zm0-15.44v11.16c4.07,0,8.05.1,12-.06a5.12,5.12,0,0,0,2.91-1.39c1.78-1.64,2-3.83,1.24-6a5.31,5.31,0,0,0-5.21-3.65C153.15,126.07,149.52,126.19,145.82,126.19Z"/><path class="cls-3" d="M479.59,157.09c-3.62-2.09-4.14-6.6.42-9.47a9.24,9.24,0,0,1-2.8-7.2c.29-4.92,3.92-8.28,9.26-8.61a11.87,11.87,0,0,1,6.38,1.29,23.72,23.72,0,0,1,3.54-2.9c.92-.51,2.17-.43,3.41-.63v3.69c-.56,0-1.12,0-1.67.11-1.92.29-2.61,1.66-1.73,3.33,2.43,4.6.71,12.42-7.36,13.38a23.46,23.46,0,0,1-5.52-.4,2.67,2.67,0,0,0-2.63,1.57,1.89,1.89,0,0,0,1,2.55,11.79,11.79,0,0,0,3.24.57c2.65.15,5.35,0,8,.36a10.4,10.4,0,0,1,4.78,2.05,7.13,7.13,0,0,1-1.45,11.82c-3.6,1.91-7.51,2-11.43,1.62a16.81,16.81,0,0,1-3.87-.88c-2.74-1-4.68-2.74-5-5.76C475.77,160.74,477,158.61,479.59,157.09Zm8.11.85v.13h-3.46a4.25,4.25,0,0,0-4.18,3.36,3.76,3.76,0,0,0,2.59,4.4,16.09,16.09,0,0,0,11.05-.14,3.66,3.66,0,0,0,2.38-4.14,3.37,3.37,0,0,0-3.09-3.14C491.24,158.12,489.46,158.09,487.7,157.94Zm5.43-16.9c0-3.39-2.26-5.66-5.78-5.73a5.63,5.63,0,0,0-6,5.58,5.89,5.89,0,0,0,11.77.15Z"/><path class="cls-4" d="M349.48,121.43h4.24v14.28a9.51,9.51,0,0,1,9.64-3.73c3.82.65,6.33,3.1,6.74,7a73.58,73.58,0,0,1,.25,7.43c0,3.94,0,7.88,0,11.89h-4.42V142.44c0-.31,0-.62,0-.93-.08-3-1.17-4.77-3.35-5.45-2.83-.88-5.63-.1-7.1,2.41a11.46,11.46,0,0,0-1.57,5c-.24,4.42-.14,8.86-.18,13.29v1.53h-4.26Z"/><path class="cls-5" d="M315.44,146.84H297.17c-.38,3.49,2,7.25,5.06,8,3.88,1,6.76-.39,8.48-4.18h4.08a9.79,9.79,0,0,1-9.29,8.21c-7,.5-12.36-4.24-12.95-11.51a17.93,17.93,0,0,1,1.09-8.61,11.32,11.32,0,0,1,11.85-7,11.07,11.07,0,0,1,9.7,10C315.38,143.41,315.36,145,315.44,146.84ZM310.9,143c-.08-4.68-2.66-7.51-6.74-7.49s-7,3.13-7,7.49Z"/><path class="cls-5" d="M177.68,146.75c-.25,3.87,2.16,7.48,5.29,8.17,4,.9,6.75-.48,8.25-4.19h4.05c-.21,3.66-3.49,7-7.59,7.93-7.54,1.65-14-3.34-14.6-11.3-.27-3.59,0-7.09,2-10.26a11.33,11.33,0,0,1,12.21-5,11.17,11.17,0,0,1,8.44,9.67c.21,1.61.18,3.25.27,5ZM191.35,143c.36-4-2.36-7.34-6.13-7.49-4.35-.17-7.48,2.93-7.48,7.49Z"/><path class="cls-6" d="M202.15,139.92a7.56,7.56,0,0,1,5.37-7.33,13.83,13.83,0,0,1,8.51-.29,7.93,7.93,0,0,1,6.12,8c0,4.08,0,8.16,0,12.24,0,2.24.19,2.42,2.6,2.4,0,.91.05,1.82,0,2.71,0,.27-.46.59-.78.7-3.05,1.07-5.15-.15-5.89-3.49-2.59,3.55-6.19,4.53-10.25,3.95a7.76,7.76,0,0,1-7-7.74c0-4,2.72-7.2,7.07-7.83,3.24-.48,6.54-.57,9.82-.83.85-3.65-.55-6.4-3.55-6.92-4.49-.78-7.38.83-7.83,4.42Zm15.93,5.88c-3,.21-5.58.35-8.17.61a7.06,7.06,0,0,0-2.49.84,3.94,3.94,0,0,0-2.12,4.21,3.9,3.9,0,0,0,2.88,3.57,7.18,7.18,0,0,0,9.16-4.6A33.53,33.53,0,0,0,218.08,145.8Z"/><path class="cls-7" d="M66.34,178.7H60.87V122.62h5.47Z"/><path class="cls-6" d="M516,152.83l7.25-20.29h4.55c-1.15,3.06-2.27,6.05-3.39,9.05q-4.08,10.92-8.17,21.85a9,9,0,0,1-3.07,4.55c-2.06,1.45-4.37,1.19-6.68.94a12.55,12.55,0,0,1-1.23-.29V165c1,.1,1.92.25,2.87.28a3.78,3.78,0,0,0,4.09-2.72.61.61,0,0,1,.05-.12c1.54-2.69,1.27-5.23,0-8.09-3.1-7.13-5.85-14.42-8.83-21.84,1.55,0,3-.07,4.44,0,.33,0,.73.65.89,1.08C511.14,139.9,513.48,146.19,516,152.83Z"/><path class="cls-6" d="M406,145.39a16.15,16.15,0,0,1,2-8.32,11,11,0,0,1,11.13-5.18,10.77,10.77,0,0,1,9.38,8.38A19.48,19.48,0,0,1,428,152c-1.88,4.87-6.41,7.41-12,6.86a11,11,0,0,1-9.61-9.43C406.19,148.13,406.13,146.75,406,145.39Zm19,0a50,50,0,0,0-1.62-6.27c-1-2.52-3.22-3.58-5.86-3.56a5.85,5.85,0,0,0-5.81,3.69,15.56,15.56,0,0,0,0,12.39,5.88,5.88,0,0,0,5.86,3.61c2.69,0,4.83-1.13,5.82-3.63A49.75,49.75,0,0,0,425,145.37Z"/><path class="cls-6" d="M471.35,145.4a15.31,15.31,0,0,1-2.35,8.87c-2.59,3.79-6.37,5.1-10.78,4.6a10.1,10.1,0,0,1-8.81-6.74,18.56,18.56,0,0,1,0-13.52,10.84,10.84,0,0,1,11.37-6.79,11,11,0,0,1,10.1,9.36C471.15,142.57,471.21,144,471.35,145.4Zm-18.89-.1a51.72,51.72,0,0,0,1.16,5.62,5.92,5.92,0,0,0,5.65,4.29c3,.17,5.33-1,6.42-3.74a15.52,15.52,0,0,0-.07-12.27,6.52,6.52,0,0,0-11.91.41A45.62,45.62,0,0,0,452.46,145.3Z"/><path class="cls-8" d="M382.92,158.27h-4.27v-25.7h3.67l.38,3.54A8.91,8.91,0,0,1,389,132c4.63-.74,10,1,10.37,7.78.33,6.14.07,12.3.07,18.52h-4.21c0-.44-.06-.87-.06-1.3,0-4.83,0-9.65,0-14.48,0-.62,0-1.24-.1-1.86-.24-2.18-1.1-3.94-3.38-4.59a6,6,0,0,0-6.56,1.73,9.34,9.34,0,0,0-2.16,6.52c-.06,4.21,0,8.42,0,12.63Z"/><path class="cls-8" d="M293.47,122.18v4.15H282.72v31.93h-4.57V126.43H267.37v-4.25Z"/><path class="cls-3" d="M338.45,149.67h4.19c.14,4.54-4.08,8.89-8.95,9.24-7.39.54-12.51-3.85-12.86-11.28a26.52,26.52,0,0,1,.6-7.76,10.15,10.15,0,0,1,9.23-8c4.38-.52,8.14.78,10.53,4.69a27.31,27.31,0,0,1,1.78,4.55h-4.62a2.1,2.1,0,0,1-.18-.46c-.6-3-2.39-4.74-5.33-5.06a6.48,6.48,0,0,0-6.68,3.84A16.25,16.25,0,0,0,326,151a6.44,6.44,0,0,0,6.74,4.15c2.74-.17,4.69-1.9,5.45-4.82C338.28,150.15,338.36,149.94,338.45,149.67Z"/><path class="cls-2" d="M106,169.24v-37.4h5.55v37.4Z"/><path class="cls-8" d="M232.25,136.23H227.3v-3.71h4.88v-6.6l4.34-1v7.56h7.69v3.77h-7.63V138c0,4.35,0,8.69,0,13,0,2.71,1,3.72,3.72,3.65,1.37,0,2.73-.22,4.17-.35v3.63a14.23,14.23,0,0,1-8.05.31c-2.58-.77-4.11-3-4.14-6-.06-4.87,0-9.75,0-14.62Z"/><path class="cls-9" d="M436,121.44h4.24v29.83c0,3,.39,3.4,3.47,3.4l.59,0v3.63c-.48.08-.95.18-1.43.24-4.61.53-6.88-1.3-6.93-5.92-.09-10.28,0-20.56,0-30.83A2.72,2.72,0,0,1,436,121.44Z"/><path class="cls-7" d="M96.48,159.7H91V141.47h5.46Z"/><path class="cls-10" d="M293.45,172c-.54,1.76-1.12,3.51-1.61,5.28a1.11,1.11,0,0,1-1.28,1c-.82,0-.9-.44-1-1.06-.56-2.9-1.17-5.79-1.78-8.74h1.71c.43,2.06.85,4.09,1.26,6.12l.25.08,1.9-6.08h1.48c.6,2,1.22,4,1.84,6l.26,0,1.27-6.1h1.62c-.59,3.06-1.16,6.09-1.81,9.11a1.07,1.07,0,0,1-.92.58,1.52,1.52,0,0,1-1.14-.65c-.65-1.81-1.17-3.67-1.74-5.52Z"/><path class="cls-11" d="M368.36,174.51v-6h1.7v9.64a1.91,1.91,0,0,1-2.55-1.06c-1-1.76-2.14-3.43-3.43-5.47v6.57h-1.74v-9.62a2,2,0,0,1,2.67,1.12c.91,1.69,2,3.26,3.07,4.89Z"/><path class="cls-11" d="M269.81,168.51v1.55h-5.12v2.22h4.49V174h-4.46v2.67h5.08v1.59h-6.88v-9.7Z"/><path class="cls-12" d="M334.07,168.5h1.69v3.7h4v-3.68h1.81v9.66h-1.73v-4.07h-4.07v4.09h-1.71Z"/><path class="cls-11" d="M181.32,178.23h-6.84v-9.72h6.86v1.57h-5.06v2.2h4.44l.08,1.62h-4.49v2.71h5Z"/><path class="cls-10" d="M253.86,171.28c-.82.09-1.54.31-2.07-.75-.43-.88-2.24-1-3-.29a1.5,1.5,0,0,0-.46,1.14,1.39,1.39,0,0,0,.89.81,14.55,14.55,0,0,0,2.1.3,2.89,2.89,0,0,1,2.78,2.71,3,3,0,0,1-2.42,3.07c-2.77.75-5-.51-5.47-3.07h1.6c.9,1.48,1.89,2,3.28,1.51a1.85,1.85,0,0,0,1.08-1.25c0-.37-.62-1-1.09-1.15a8.28,8.28,0,0,0-2-.28,2.83,2.83,0,0,1-2.69-2.65,3,3,0,0,1,2.3-2.9C251.31,167.66,253.68,168.94,253.86,171.28Z"/><path class="cls-13" d="M163.18,168.51H165v9.68h-1.72V174.1h-4v4.08h-1.82v-9.64h1.74v3.65h4Z"/><path class="cls-14" d="M221.64,168.51h1.8c0,2.21.08,4.38,0,6.54s-1.62,3.39-3.84,3.38-3.72-1.26-3.81-3.4,0-4.32,0-6.52h1.81c0,2,0,4,0,5.9,0,1.64.65,2.37,2,2.37s2-.75,2-2.36C221.66,172.47,221.64,170.53,221.64,168.51Z"/><path class="cls-14" d="M202,174.85v3.36h-1.66v-9.7c1.53,0,3.12-.11,4.68,0a3.1,3.1,0,0,1,0,6.09C204.07,174.77,203.1,174.77,202,174.85Zm.05-1.28a20.87,20.87,0,0,0,3.46-1.16,2.14,2.14,0,0,0-.09-1.73,19.68,19.68,0,0,0-3.37-.91Z"/><path class="cls-9" d="M322.71,170v8.18h-1.66v-8.09h-2.87v-1.61h7.4l.09,1.52Z"/><path class="cls-4" d="M146.12,170v8.18h-1.74v-8.05h-2.95l-.08-1.61H149l.07,1.48Z"/><path class="cls-15" d="M232.59,178.19V168.5h1.79v8h4.46v1.71Z"/><path class="cls-15" d="M352.8,178.22h-1.7v-9.71h1.7Z"/><path class="cls-8" d="M308.06,168.5h1.57v9.7l-1.57.08Z"/><path class="cls-16" d="M539.75,127.66a3.87,3.87,0,1,1-3.8-3.93A3.82,3.82,0,0,1,539.75,127.66Zm-.77,0a3,3,0,0,0-3.11-3.23,3.24,3.24,0,1,0,3.11,3.23Z"/><path class="cls-17" d="M202.05,173.57v-3.8a19.68,19.68,0,0,1,3.37.91,2.14,2.14,0,0,1,.09,1.73A20.87,20.87,0,0,1,202.05,173.57Z"/><path class="cls-16" d="M537.06,129.63l-1.64-1.87c-.12.86-.18,1.35-.25,1.87-.74-.37-.84-1.16-.55-4a10.82,10.82,0,0,1,1.8,0c.91.16,1.21.76,1,1.67C537.26,128,537.19,128.74,537.06,129.63Zm-1.79-1.79,1.49-1-1.49-.95Z"/><path class="cls-17" d="M535.27,127.84V125.9l1.49.95Z"/></svg>