<svg xmlns="http://www.w3.org/2000/svg" id="Lager_1" viewBox="0 0 600 300"><defs><style>.cls-1{fill:#e8eff3}.cls-2{fill:none}.cls-3{fill:#802528}.cls-4{fill:#5b7f71}</style></defs><path d="M0 0h600v300H0z" class="cls-1"/><g id="Scandidos"><path d="M101 86.81h398V213.2H101z" class="cls-2"/><path d="M188.89 170.63a22 22 0 0 0 11.52 3.27c6.62 0 10.49-3.42 10.49-8.55 0-4.61-2.68-7.36-9.45-9.89-8.18-3-13.23-7.28-13.23-14.28 0-7.8 6.47-13.61 16.21-13.61a22.4 22.4 0 0 1 11 2.46l-1.79 5.28a18.5 18.5 0 0 0-9.44-2.38c-6.84 0-9.44 4.09-9.44 7.51 0 4.68 3.05 7 10 9.66 8.48 3.35 12.72 7.37 12.72 14.73 0 7.73-5.65 14.5-17.47 14.5-4.83 0-10.11-1.49-12.79-3.27Zm61.62 6.61a25 25 0 0 1-10.34 2.09c-10.85 0-17.91-7.36-17.91-18.44s7.58-19.19 19.33-19.19a20.5 20.5 0 0 1 9.07 1.94l-1.49 5a16 16 0 0 0-7.58-1.71c-8.25 0-12.71 6.17-12.71 13.68 0 8.33 5.35 13.46 12.49 13.46a19 19 0 0 0 8-1.71Zm32.76-7.35a61 61 0 0 0 .52 8.62h-5.87l-.6-4.54h-.22a13.3 13.3 0 0 1-11 5.36c-7.28 0-11-5.13-11-10.34 0-8.7 7.73-13.46 21.64-13.38v-.75c0-3-.82-8.4-8.18-8.32a17 17 0 0 0-9.44 2.68l-1.49-4.39a23.3 23.3 0 0 1 11.89-3.13c11.08 0 13.76 7.52 13.76 14.73zm-6.39-9.75c-7.14-.14-15.25 1.12-15.25 8.11 0 4.31 2.83 6.24 6.1 6.24a9.1 9.1 0 0 0 8.85-6 7 7 0 0 0 .3-2.07Zm12.59-7.88c0-3.79-.08-6.76-.3-9.74H295l.37 5.88h.15a13.3 13.3 0 0 1 11.9-6.7c5 0 12.71 3 12.71 15.32v21.49h-6.54v-20.75c0-5.79-2.16-10.7-8.33-10.7a9.45 9.45 0 0 0-8.78 6.69 10 10 0 0 0-.44 3.05v21.71h-6.55Zm69.59-26.54v43.49c0 3.2.08 6.85.3 9.3h-5.88l-.29-6.24H353c-2 4-6.33 7.06-12.2 7.06-8.7 0-15.47-7.36-15.47-18.29-.08-12 7.44-19.34 16.14-19.34 5.58 0 9.29 2.61 10.86 5.43h.15v-21.41Zm-6.54 31.45a12 12 0 0 0-.3-2.82 9.64 9.64 0 0 0-9.45-7.51c-6.76 0-10.78 5.95-10.78 13.83 0 7.36 3.64 13.38 10.64 13.38a9.9 9.9 0 0 0 9.59-7.8 12 12 0 0 0 .29-2.83zm16.26-21.27a4.28 4.28 0 1 1 .07 0Zm-3.12 42.61v-36h6.54v36Z" class="cls-3"/><path d="M378.75 129.06a94 94 0 0 1 13.83-1c9.29 0 15.91 2.08 20.3 6.17 4.54 4.09 7.14 10 7.14 18.07s-2.6 14.87-7.22 19.48-12.49 7.22-22.24 7.22a92 92 0 0 1-11.82-.6v-49.3Zm6.54 44.39a42 42 0 0 0 6.54.3c13.84.07 21.35-7.74 21.35-21.27.07-12-6.62-19.33-20.31-19.33a37 37 0 0 0-7.58.67zm56.17 5.88c-9.67 0-17.25-7.14-17.25-18.51 0-12 8-19.12 17.84-19.12 10.34 0 17.32 7.52 17.32 18.44 0 13.39-9.29 19.19-17.84 19.19Zm.22-4.91c6.24 0 10.93-5.87 10.93-14 0-6.1-3.05-13.76-10.78-13.76s-11 7.14-11 14c0 7.88 4.46 13.83 10.78 13.83Zm22.57-2.53a18.5 18.5 0 0 0 8.7 2.53c4.68 0 6.91-2.31 6.91-5.35s-1.85-4.84-6.62-6.62c-6.54-2.38-9.59-5.87-9.59-10.19 0-5.8 4.76-10.56 12.42-10.56a16.7 16.7 0 0 1 8.77 2.23l-1.56 4.69a14.7 14.7 0 0 0-7.36-2.08c-3.86 0-5.94 2.23-5.94 4.91 0 3.05 2.07 4.38 6.76 6.17 6.17 2.3 9.44 5.43 9.44 10.85 0 6.4-5 10.86-13.38 10.86a20.6 20.6 0 0 1-10.11-2.53Zm-345.17-69.12 26.04 51 2.13-1.05-26.04-51z" class="cls-4"/><path d="M146.54 133.3a20 20 0 1 1-16.68 7l-2.26-1.92-2.27-1.92a26 26 0 1 0 21.63-9.1l-.21 3Zm24.55 48.54h-52.06v5.94h52.06z" class="cls-4"/></g></svg>