<svg xmlns="http://www.w3.org/2000/svg" id="Lager_1" viewBox="0 0 600 300"><defs><style>.cls-1{fill:#e8eff3}.cls-2{fill:#040404}.cls-3{fill:#f7ec81}.cls-4{fill:#060606}.cls-5{fill:#f17765}.cls-6{fill:#f08936}.cls-7{fill:#f8b467}.cls-8{fill:#ee5937}.cls-9{fill:#fbbf73}.cls-10{fill:#9c944b}.cls-11{fill:#966443}.cls-12{fill:#f5ec71}.cls-13{fill:#f7aa5d}.cls-14{fill:#f59c4a}.cls-15{fill:#f06649}.cls-16{fill:#f06a4f}.cls-17{fill:#eb8d42}.cls-18{fill:#732f33}.cls-19{fill:#f4ec60}.cls-20{fill:#f1705b}.cls-21{fill:#f2ec3a}.cls-22{fill:#eb8f45}.cls-23{fill:#f4ec4d}.cls-24{fill:#e8e35a}.cls-25{fill:#faeaa2}.cls-26{fill:#f8eb8f}.cls-27{fill:#b0433d}</style></defs><path d="M0 0h600v300H0z" class="cls-1"/><path d="M379.29 143.56a23 23 0 0 1-1.71 8.87c-2.39 5.37-6.6 8.24-12.37 8.84a18 18 0 0 1-8.93-1.14 14.4 14.4 0 0 1-8.6-10.2 25 25 0 0 1 .15-13.24 14.56 14.56 0 0 1 13.74-11c4.05-.23 7.88.44 11.23 2.89 3.76 2.77 5.55 6.67 6.17 11.18.17 1.24.22 2.53.32 3.8m-6.27.91c-.11-3.34-.31-5.59-1.16-7.74a8.9 8.9 0 0 0-8.27-5.84c-4.15-.12-7.35 1.52-9 5.38a18 18 0 0 0-.22 13.87 9.35 9.35 0 0 0 17.66-.51 42 42 0 0 0 .97-5.16Zm17.32 13.13-.06 11v1.4h-5.86v-34h5.36v4.19l.46.31a3 3 0 0 1 .2-.67 8.9 8.9 0 0 1 8.9-4.41 9.2 9.2 0 0 1 7.87 5.84 17 17 0 0 1-.34 14.7 9.55 9.55 0 0 1-11 5 10 10 0 0 1-4.38-2.81l-.92-.94-.27-.1Zm12.4-9.34a32 32 0 0 0-1-4.61 5.7 5.7 0 0 0-10.44-.65 11.6 11.6 0 0 0 .38 11 5.6 5.6 0 0 0 10.24-1.27 40 40 0 0 0 .82-4.47m92.26.15c-.14 5.3-2.28 9.48-7.19 11.72s-9.92 1.57-14.3-1.74a9.5 9.5 0 0 1-2.66-3.32 14.3 14.3 0 0 1-.92-10.92c1.52-5 5-7.79 10.13-8.59a12.7 12.7 0 0 1 13.33 6.19 13 13 0 0 1 1.61 6.66m-19.64.64a28 28 0 0 0 .67 3.19 6.4 6.4 0 0 0 5.89 4.49 6.25 6.25 0 0 0 6.12-3.95 11 11 0 0 0 0-8.83 6.36 6.36 0 0 0-11-1.33c-1.39 1.73-1.64 3.78-1.73 6.43Z" class="cls-2"/><path d="m130.82 112 1 .47a3.4 3.4 0 0 0 3.37 1.43 3.1 3.1 0 0 0 2.39 1c.14.83.78.38 1.21.48a.4.4 0 0 1 .21 0 2 2 0 0 0 2.16.94c.07.79.54 1 1.28 1 .4 0 1-.28 1.12.46 0 .44.06.87-.53 1.06-.08 0 0 .47-.06.72a3 3 0 0 0 .64-.26 2 2 0 0 0 .4-.51l1 .67-.65.47h.26q.07 1.32.18 2.65c0 .42 0 1 .29 1.19.71.42.67 1 .66 1.65v3.11c0 .87 0 1.74-.13 2.6-.15 1.14-.46 2.25-.57 3.38-.14 1.44-.08 1.45-1.54 1.95a.86.86 0 0 0-.58 1.22 1 1 0 0 0 .82.58c1.43-.24 2.85-.57 4.26-.89a8.5 8.5 0 0 0 3.73-1.45l.48-.47h1l2.25-.47.12.26c-.2.21-.37.5-.61.61-1.09.49-2.42.45-3.27 1.47 0 .07-.23.06-.35.05-.78-.09-.82.41-.78 1l-2.37.76c-.06-.14-.1-.4-.17-.41a4.3 4.3 0 0 0-3.32.32 3 3 0 0 1-.88.26c-.8.16-1.61.28-2.4.46a10 10 0 0 1-1.78.47 8.3 8.3 0 0 0-4.14 1.28 1.4 1.4 0 0 1-.79.17 6 6 0 0 1-1.07-.34 5 5 0 0 1 .71-.85 11 11 0 0 1 1.14-.61c2-1.17 3-3.39 4.77-4.79a.7.7 0 0 0 .22-.42c.17-1.33.42-2.66.48-4 .08-1.83 0-3.67 0-5.5 0-.31 0-.76-.16-.9-1.07-.83-.83-1.85-.6-2.93.2-.92-.32-1.45-1.25-1.53a1.3 1.3 0 0 1-.78-.44c-1-1.08-1.94-2.18-2.92-3.28.44-.35 1.09-.6.26-1.16a4 4 0 0 1-.56.39 1.57 1.57 0 0 1-2.09-.18 6.4 6.4 0 0 0-2.9-1.4 26 26 0 0 0-4.15-.29h-6.05a5 5 0 0 0-1 .25q.36.32.7.65a6 6 0 0 1 .42.58c-.18.12-.35.32-.54.34a2.5 2.5 0 0 1-2.14-.49 1.6 1.6 0 0 0-1.87-.25l1.87 1.65a6 6 0 0 0-1.08.09 2 2 0 0 0-1.06.47c-.74.82-1.36 1.74-2.09 2.57a6 6 0 0 1-1.1.79c-.27.19-.75.39-.76.61a13 13 0 0 1-.7 4.12A11 11 0 0 0 110 129c.13 2 .45 3.93.74 5.89a.8.8 0 0 0 .53.52c.77.07.84.54.87 1.16.11 2 .82 2.66 2.78 2.71a2 2 0 0 1 .47 0 1.3 1.3 0 0 1 .54.35 6 6 0 0 1 .77 1.12c.09.21 0 .53-.09.79a3 3 0 0 1-.63-.26c-.22-.16-.36-.48-.6-.57-.83-.33-1.81-.28-2.43-1.1-.08-.11-.38-.11-.56-.07a3.6 3.6 0 0 1-3.08-.91 2 2 0 0 0-.61-.31 24 24 0 0 1-3.09-.58 1 1 0 0 0-1.4.57h-.54l-.64-.1-.26-.18-.93-.32-.55-.37-.64-.09-.06-.24V137l-.16-.48-.28.4-1.2-.49q.18-1.14-1-1a6 6 0 0 1-.7 0h-.51c-.1-.8.27-1.08 1-1h1.07c.7.08 1.64-.38 1.9.8 0 .08.27.11.42.15q1.24.23 2.47.53c.13 0 .21.28.31.43l-.69.56c.16.13.4.4.48.36a2 2 0 0 0 .68-.57c.06-.06 0-.23 0-.35.67-.06 1.45.21 1.93-.59-.32-.37-.8-.68-.89-1.08a33 33 0 0 1-.77-4.4 22 22 0 0 1 0-3.93 5 5 0 0 1 .66-2.42c.5-.66.83-1.1.58-2a3.4 3.4 0 0 1 .07-2.1c.12-.27 1.07-.16 1.63-.29.22 0 .4-.27.6-.41-.21-.17-.42-.5-.62-.5-1.06 0-2.12.13-3.18.21l-.72-.24c.14-.15.29-.44.44-.44a7.5 7.5 0 0 0 3.34-.52 5 5 0 0 0 .74-.53 4 4 0 0 0-.84-.41 8 8 0 0 0-1.31 0c0-.11.06-.29.14-.32q2.75-1.04 5.5-2a1 1 0 0 1 .36 0l2-.44a16 16 0 0 1 2.25-.49c.67-.06 1.07-.24 1-1h.23a22 22 0 0 0 3.51-.9c1-.43 2.33-.27 3-1.43.06-.1.37 0 .57 0h1.54c.14.79.77.38 1.18.49.16.75.77.36 1.19.47l1 .45c.26.78.9.36 1.31.48m-6.93 0h2.18a.5.5 0 0 0 .39-.34.6.6 0 0 0-.17-.5c-.52-.43-1.9 0-2.4.84m3.72.12v.23h1.16v-.23Zm-12.71 4.12v-.34l-.72.05v.26Zm7.9-4.15v.23h.71v-.23Z" class="cls-3"/><path d="M190 160.73v-34.38h24v3.19h-20.31v11.74h19v3.24h-19v12.95h21.05v3.26Zm315.78-20.42q.52-.63 1-1.25a10 10 0 0 1 11.92-2.73 6.3 6.3 0 0 1 3.7 5 19 19 0 0 1 .25 3.09v16.34h-5.87v-1.28q0-6.94-.07-13.88a13 13 0 0 0-.18-1.9 4.4 4.4 0 0 0-5.77-3.78 5.4 5.4 0 0 0-4.38 4.65 42 42 0 0 0-.33 4.89v11.3h-5.83V136.1h5.33v4.15Z" class="cls-2"/><path d="M288.65 163h3.28c.72 3 2.24 4.31 5.35 4.49a15 15 0 0 0 3.33-.17 5.8 5.8 0 0 0 5.11-5.11 44 44 0 0 0 .35-5.17l-.28-.07-.93 1c-3.64 4.19-10.78 3.33-13.78-.21a14.6 14.6 0 0 1-3.26-11.16 15 15 0 0 1 2.24-6.86c3.18-5.06 11.53-6.18 15.59-.8.18.24.38.47.74.92v-3.76h3.1c0 .26.06.49.06.72v22.38a18 18 0 0 1-.32 3.45 8.6 8.6 0 0 1-6.63 7.08 14.4 14.4 0 0 1-9.94-.57 6.3 6.3 0 0 1-4.01-6.16m2.53-15.23c.23 1.61.33 3 .65 4.44a7.1 7.1 0 0 0 6.66 5.85 6.9 6.9 0 0 0 6.9-4.37 14.7 14.7 0 0 0 0-11 7 7 0 0 0-13.37.65c-.42 1.53-.58 3.09-.84 4.46Z" class="cls-4"/><path d="M465.58 143.85h-5.24a.9.9 0 0 1-.61-.54 4.7 4.7 0 0 0-5-3.39 5.24 5.24 0 0 0-5.24 3.78 14.7 14.7 0 0 0 .21 9.51c1.31 3.53 6 4.8 8.68 2.31a17 17 0 0 0 2.23-3.52H466a9 9 0 0 1-2.05 5.6 10 10 0 0 1-5.28 3.31 15 15 0 0 1-7.34.11 10.4 10.4 0 0 1-7.82-7.33 17.3 17.3 0 0 1-.11-10.13 10.7 10.7 0 0 1 10-8.05 15 15 0 0 1 6.92.94 8.2 8.2 0 0 1 5.26 7.4" class="cls-2"/><path d="m108.31 158.73 7.51 3c3 1.23 5.94 2.5 8.94 3.69a2 2 0 0 0 1.35-.13q5.26-1.95 10.51-3.93.56-.2 1.14-.34c-.2 1 .55.89 1.15.89-.33.54-.91 1.05-.83 1.44.33 1.7-.91 3.06-.85 4.68a10 10 0 0 1-.35 1.94h-2.34l-.07.36 1.66.56a4 4 0 0 1-.94.78q-4.83 2-9.7 3.87a1.5 1.5 0 0 1-1 0c-.85-.31-1.66-.74-2.51-1.07q-2.25-.85-4.55-1.66l-.21-.05a6 6 0 0 0-3.37-1.42 7 7 0 0 0-1-.69c-1.48-.67-3-1.29-4.46-1.93h2.32c.68-1.12-1-1.95-.49-3.28.41-1.06.17-2.36.23-3.68a7 7 0 0 1-1.23 0 3 3 0 0 1-.8-.45q.33-.23.65-.49c.32-.26.46-.45.7-.68-.27-.27-.23-.87-.85-.76a3 3 0 0 1-.6 0Z" class="cls-5"/><path d="M267.75 149.14h-19.24c-.27 4.49 2.32 8.38 6.14 9.32a7.2 7.2 0 0 0 8.66-4l.49-1 3.57.45a9.7 9.7 0 0 1-6.48 6.83 13.7 13.7 0 0 1-8.71-.06 10 10 0 0 1-6.76-7.31 18 18 0 0 1 .1-9.92c1.57-5.36 6-8.34 11.83-8a10.7 10.7 0 0 1 10 9.33c.21 1.4.26 2.79.4 4.36m-3.83-2.77c0-5-3.35-8.46-7.83-8.23a7.65 7.65 0 0 0-7.31 8.23Z" class="cls-4"/><path d="M412.12 136h3v-7.41h6V136h4.62v4.49h-4.47a5 5 0 0 0-.11.75v12.44c0 2.49 1.18 3.34 3.63 2.76l1-.24.49 4.35a14 14 0 0 1-2.47.59 19 19 0 0 1-4.38 0c-2.72-.47-4-1.92-4.1-4.66s-.16-5.5-.19-8.25v-7.64h-3.06Z" class="cls-2"/><path d="M316.45 169.8v-3c1.07 0 2.11.07 3.13 0a3.5 3.5 0 0 0 2.87-1.91 22 22 0 0 0 1.32-3.44c.1-.32-.14-.76-.28-1.12q-4.39-11.61-8.81-23.22l-.4-1.1h3.19a1 1 0 0 1 .73.55q3.35 9.4 6.63 18.81a2 2 0 0 0 .12.46 8 8 0 0 0 .58.6c.2-.19.48-.35.57-.58l6.38-18c.66-1.86.67-1.86 2.6-1.87h1.45c-.27.78-.48 1.44-.73 2.09q-4.79 12.81-9.61 25.6a21 21 0 0 1-1.64 3.44c-1.81 3-4.78 3.89-8.1 2.69" class="cls-4"/><path d="M223.09 160.76h-3.35v-24.67h2.9v4.17l.25.06.8-1.09a9.77 9.77 0 0 1 13.44-2 6.6 6.6 0 0 1 2.44 5.24c.1 3.51.09 7 .11 10.53v7.71h-3.47v-15.12c0-.72-.07-1.43-.12-2.15-.24-4-3.68-5.53-7-5a6.5 6.5 0 0 0-5.81 6.18 43 43 0 0 0-.21 4.41v10.53Z" class="cls-2"/><path d="M437.29 160.73h-5.8v-24.67h5.8Z" class="cls-4"/><path d="M77.67 141.55c1.35-.54 2.68-1.11 4-1.62q3.74-1.38 7.51-2.71a1.7 1.7 0 0 1 1.12 0c1.7.67 3.37 1.42 5 2.14l.6.36.59.15a3.8 3.8 0 0 0 1.28 2.6l-.75.27a22 22 0 0 0-.22 2.53 8 8 0 0 0 .35 2c.18.62.74 1.2-.21 1.7-.18.09-.15.57-.22.86-1.46-.57-2.93-1.11-4.38-1.71-3.18-1.32-6.34-2.68-9.51-4l-4.88-2c-.09-.12-.16-.39-.28-.57" class="cls-6"/><path d="m138.26 147 1.66-.53-2 2.12c1.3.58 1.44.79 1.27 2a14 14 0 0 0-.39 2.32c.08 1.7-1.31 2.29-2.25 3.18-.5.48-.72.88-.42 1.51-.72.3-1.44.64-2.18.92-2.69 1-5.4 1.95-8.09 2.94-.57.21-1.09.3-1.47-.3h-.52l-10.78-4.53q.21-.42.39-.85c.18-.46.15-.92-.39-1.06-.92-.24-1-.89-1-1.65v-5.41l1.21-.67 3.58 1.46.13.64-1.07.82 1.3.74a5.4 5.4 0 0 0 1.73 5.27 1.5 1.5 0 0 0 .7.41 6 6 0 0 1 3.24 2 1 1 0 0 0 .57.31q1.9-.18 3.81-.39c1.8-.19 3-1.59 4.6-2.23.35-.14.61-.61.83-1a15 15 0 0 0 2.36-5.16l.87-.13-.18-.4-.69.53c-.58 0-1.11 0-1.07-.78.07-.5 1.11.28.82-.67a.3.3 0 0 1 .17 0 3.1 3.1 0 0 0 3.26-1.41M115 156.92c.06 0 .16 0 .18-.09s0-.12-.06-.19l-.24.12Z" class="cls-7"/><path d="m154.12 155 .2-.14.7-.24a.3.3 0 0 1 .18-.05l.3.06.19.37.28-.39.26-.45q2.32-.91 4.65-1.79a1.5 1.5 0 0 1 .92-.07q5.43 1.93 10.84 3.9l.59.64-5.92 2.38-5.12 2c-.8.32-1.58.69-2.36 1l-.48.23h-.23l-1.43.2-.55.12.28.11-.72.23-.47.05-.49.42-1.2-1.21c-.1-1.18.14-2.58-.39-3.55s-1.83-1.53-2.82-2.29a10 10 0 0 0 1.32-.62c.21-.13.31-.45.45-.68.97.34.97.34 1.02-.23m-1 1.52.06.48 1-.18a1 1 0 0 0-.08-.4q-.44.02-.93.09Z" class="cls-8"/><path d="m173.16 143.31.32.29v.49l-3.44 1.11c-.07 0-.08.2-.12.31a5 5 0 0 0-3.82 1.43l-5.36 1.72c-.05 0-.07.13-.11.2l-3.39 1c-.17-.14-.38-.43-.52-.4-.76.16-1.49.4-2.24.62l-.2-.43a11 11 0 0 0 1.26-.81 5 5 0 0 0 .71-.86l-.8-.55-.32-.19q.21-.59.36-1.15c.48-2 0-2.78-1.61-3 0 0-.08-.12 0-.07l.53-1-1.22-.3.55-.26h.12l.07-.09c2.22-.83 4.46-1.62 6.67-2.51a2.6 2.6 0 0 1 2.15.14l10.53 4.39Zm-17.54-.59v.28h.95v-.23Z" class="cls-6"/><path d="m285.84 136.57-1.17 3.17c-.54-.17-1.05-.36-1.57-.49a4.64 4.64 0 0 0-5.93 3.23 23 23 0 0 0-.84 5.52c-.12 3.82 0 7.65 0 11.47v1.27h-3.38v-24.65h3v2.66c0 .29.29.55.44.82a3 3 0 0 0 .7-.48c.3-.36.52-.79.8-1.18 1.69-2.36 3.59-3 6.34-2 .49.14 1.02.4 1.61.66" class="cls-2"/><path d="m94.37 152.94 2.71 1.15-1.59.76c-.21 1-.35 2.16-.68 3.23-.51 1.6-.87 3.14.58 4.61l-1.23.06c-1.28-.48-2.57-.92-3.83-1.44-2.82-1.15-5.62-2.35-8.45-3.49-.82-.34-1.7-.54-2.56-.8l-1.2-.46-.45-.26v-.57c3-1.17 6.07-2.17 9-3.58a6.3 6.3 0 0 1 6.6.27 6 6 0 0 0 .76.35Zm-.67 1.48s-.07 0-.08.06v.08l.12-.1Z" class="cls-8"/><path d="M134.89 148.37c.29.95-.75.17-.82.67 0 .77.49.81 1.07.78a15 15 0 0 1-2.36 5.16c-.22.37-.48.84-.83 1-1.59.64-2.8 2-4.6 2.23q-1.9.21-3.81.39a1 1 0 0 1-.57-.31 6 6 0 0 0-3.24-2 1.5 1.5 0 0 1-.7-.41 5.4 5.4 0 0 1-1.73-5.27l-1.3-.74 1.07-.82-.13-.64c.48.17 1 .33 1.43.52q3.16 1.3 6.33 2.58a1.7 1.7 0 0 0 1.1 0q3.97-1.51 7.92-2.95a6 6 0 0 1 1.17-.19" class="cls-9"/><path d="m99 136.43 1.2.49.44.08v.08l.06.24.64.09.55.37.93.32.26.18.64.1.56.4 1.12.33 2 .91.91.29.54.38.65.11.56.37.71.27 1 .44q5.9 2.4 11.79 4.85a3.7 3.7 0 0 0 2.85.27q3.63-1.33 7.28-2.62 3.53-1.25 7.06-2.47l.82-.43.85-.13 2.5-1.06.88-.14.21-.15h.25l.57-.39 1.37-.46 2.37-.76 1.92-.54.25-.2 1.69-.66 1-.48 1.44-.48 1.63-.51h.18l1.48-.69a14 14 0 0 0 1.73-.36q2.9-1.01 5.8-2.08c2.9-1.07 3.89-1.46 5.83-2.2l.37.54c-.29.28-.53.69-.87.82q-17.94 6.44-35.9 12.83c-3.68 1.32-7.34 2.66-11 3.93a2.5 2.5 0 0 1-1.58-.06q-13.86-5.74-27.68-11.53l-18.53-7.74c-.49-.2-1.17-.29-.86-1.12a2 2 0 0 1 .58 0c2.53 1.05 5 2.13 7.57 3.17q4.08 1.64 8.17 3.26l.88.27 2 .93h.21l.53.39.44.1.26.19.71.25Z" class="cls-10"/><path d="m157.18 149.84 3.39-1a18 18 0 0 0 2.22-.52c1.1-.41 2.17-.93 3.25-1.4 1.49.12 2.57-.9 3.82-1.43 1-.26 1.9-.5 2.83-.82.28-.09.49-.39.73-.6v-.49l.57 1.28-7.55 2.79-19.74 7.21-.8.24-.51.19-13.1 4.84c-2.09.77-4.19 1.51-6.27 2.31a2 2 0 0 1-1.7-.05q-12.34-5.15-24.7-10.25l-.45-.19-.75-.3-.41-.19-.79-.31-.74-.35q-4.03-1.61-8.05-3.25-5-2.06-10-4.15c-1.13-.47-1.15-.53-.82-1.87.12.18.19.47.36.54q2.43 1.04 4.88 2c3.17 1.32 6.33 2.68 9.51 4 1.45.6 2.92 1.14 4.38 1.71a8 8 0 0 0 1.32.85c1.3.54 2.64 1 4 1.49l.23.05 1 .46h.22l.73.42 1.66.55.28.18.21.18.74.29.22.18.76.28 2.1.75h.23l.74.43 1.9.55 10.78 4.53h.52c.38.6.9.51 1.47.3q4.05-1.51 8.09-2.94c.74-.28 1.46-.62 2.18-.92l2.43-.9 11.42-4.2q.68-.2 1.34-.42c1.98-.57 3.92-1.31 5.87-2.05" class="cls-11"/><path d="M151.67 135.93a8.5 8.5 0 0 1-3.73 1.45c-1.41.32-2.83.65-4.26.89a1 1 0 0 1-.82-.58.86.86 0 0 1 .58-1.22c1.46-.5 1.4-.51 1.54-1.95.11-1.13.42-2.24.57-3.38.1-.86.11-1.73.13-2.6v-3.11c0-.64 0-1.23-.66-1.65-.25-.15-.25-.77-.29-1.19q-.1-1.32-.18-2.65h-.26l.65-.47-1-.67a2 2 0 0 1-.4.51 3 3 0 0 1-.64.26c0-.25 0-.69.06-.72.59-.19.53-.62.53-1.06a6 6 0 0 1 1 .26 4 4 0 0 0 2.39.69l3.12 1.36c-.73.12-.54.69-.5 1.12s.31.9.93.83c.12 1 .11 1 1.07.64a4 4 0 0 1 1.22-.09c-.67.64-1.62.94-1.9 1.54a7 7 0 0 0-.15 2.59v1.55a8 8 0 0 1-.1 2.61c-.4 1-.31 1.6.47 2.06l-1.16 3ZM147 120v-.37l-1.42.11v.26Z" class="cls-12"/><path d="m150 152.47-11.42 4.2-2.43.9c-.3-.63-.08-1 .42-1.51.94-.89 2.33-1.48 2.25-3.18a14 14 0 0 1 .39-2.32c.17-1.21 0-1.42-1.27-2l2-2.12 5.2-2q1.94-.7 3.91-1.36a1 1 0 0 1-.93 1 19 19 0 0 0-2.26.7c.92.27 1.66.45 2.36.71.29.11.72.39.73.61.07 1.65.41 3.32-.32 5a6 6 0 0 1 .94.61 3 3 0 0 1 .43.76" class="cls-13"/><path d="M103.51 152.7h-.22l-1-.46-.23-.05a9 9 0 0 0-1.07-.66q-2.1-.86-4.22-1.68c.07-.29 0-.77.22-.86 1-.5.39-1.08.21-1.7a8 8 0 0 1-.35-2 22 22 0 0 1 .22-2.53l.75-.27a3.8 3.8 0 0 1-1.28-2.6c1.75.7 3.51 1.37 5.24 2.1 1.55.66 3.07 1.39 4.61 2.09 0 .18 0 .45.15.51.53.26 1.08.47 1.67.71-1.14.41-1.31.38-3.28-.47l.27-.19-.27.19c-.41.05-.66.33-.29.6a22 22 0 0 0 2.13 1.24l-.65 1.33a3 3 0 0 1-.49.78 1.4 1.4 0 0 0-.28 1.84c.5.88 1.13 1.68 1.66 2.44l-.88.62h-.26l-1.66-.55Z" class="cls-14"/><path d="M153.1 155.34c-.14.23-.24.55-.45.68a10 10 0 0 1-1.32.62c1 .76 2.29 1.31 2.82 2.29s.29 2.37.39 3.55l1.2 1.21-9.24 3.57a10 10 0 0 1-1.25.3c-.49-.4-1.28-.55-1.12-1.47a20 20 0 0 0 .34-2.55c.06-1.55.11-1.66 1.59-2.24.23-.09.37-.38.55-.58-.29-.11-.73-.39-.85-.29-.82.67-1.75.34-2.63.38-.25 0-.51-.23-.77-.35a5 5 0 0 1 .67-.6c.62-.4 1.62-.33 1.7-1.4Z" class="cls-15"/><path d="m108.31 158.73-.07.63a3 3 0 0 0 .6 0c.62-.11.58.49.85.76l-.7.68c-.24.22-.43.33-.65.49a3 3 0 0 0 .8.45 7 7 0 0 0 1.23 0c-.06 1.32.18 2.62-.23 3.68-.5 1.33 1.17 2.16.49 3.28h-2.32q-3.36-1.31-6.68-2.69c-.93-.39-1.8-.91-2.69-1.38l1.61.37v-.37c0-1-.4-2.14.92-2.73.12 0 .13-.43.13-.67v-1.79a1 1 0 0 0-.67-1.1 16 16 0 0 1-2-1.17l1.49-.68c.54 1.26 1.48 1.55 3.83 1.26l-3.43-1.41.52-.56 6.48 2.67.43.2Z" class="cls-16"/><path d="m297.82 179.66-3.72 9.16a3 3 0 0 1-.28.66c-.15.2-.4.53-.54.5a1 1 0 0 1-.66-.53q-.9-2.07-1.74-4.18c-.71-1.75-1.41-3.51-2.31-5.25-.29 3.3-.19 6.59-.24 9.93H287V177l.84-.22a1.17 1.17 0 0 1 1.55.86q1.63 4.24 3.33 8.44c.14.36.3.71.58 1.33l.6-1.5 3.3-8.44c.38-1 1.21-.57 1.86-.57s.46.58.46 1l.09 11.59-.11.42h-1.35v-10.25Z" class="cls-17"/><path d="M77.64 155.71v.57l.45.26c.18.73.78.36 1.2.46.17.19.3.49.51.58 1.53.63 3.08 1.21 4.6 1.85 2.84 1.17 5.65 2.41 8.49 3.55 1.18.48 2.43.8 3.65 1.19.07.1.12.25.21.29 2.26 1 4.51 2.06 6.8 3s4.83 1.93 7.25 2.86q1.5.55 3 1a5.6 5.6 0 0 0 3.37 1.42l.21.05c.12.14.2.36.35.42 1.77.79 3.52 1.63 5.33 2.31a4.6 4.6 0 0 0 2.74.46c3-1 6-2.3 8.91-3.5s5.66-2.35 8.51-3.49l7.85-3q3.26-1.26 6.51-2.59a13 13 0 0 0 1.52-.88h.23l.48-.23c.78-.35 1.56-.72 2.36-1q2.56-1.05 5.12-2l5.92-2.38-.59-.64.81.39.17.63c.25.74-.4.78-.79.93q-7.89 3.13-15.79 6.22l-30.9 12.16a2.3 2.3 0 0 1-1.91.07q-19.7-8.19-39.4-16.32l-.6-.27-5.91-2.41c-1.05-.52-1.11-.73-.66-1.96" class="cls-18"/><path d="M94.18 121.08a14 14 0 0 1 1.43-.67q1.9-.65 3.8-1.26c.42.17 1.09-.32 1.24.5l-.65.19.19.3.46-.49h2.4l-1.21.87a3 3 0 0 1 0 1c-.16.66-.27 1.72-.66 1.87-1 .35-1 1-1 1.77v5c0 .9-.4 1.82.4 2.65.19.19 0 .73 0 1.23-1.08-.05-2 .17-3-.37a22 22 0 0 0-3.28-1.08c-.14 0-.21-.29-.32-.44a5 5 0 0 0 1.31 0c.23-.06.59-.48.55-.64a17 17 0 0 1-.18-4.8v-2.49l1.17-.38a15 15 0 0 1-1.87-.76c-.21-.12-.29-.49-.42-.74a4 4 0 0 1 1-.09 9 9 0 0 1 1.33.48 2.13 2.13 0 0 0-2.69-1.65" class="cls-19"/><path d="M144.73 158.46c-.08 1.07-1.08 1-1.7 1.4a5 5 0 0 0-.67.6c.26.12.52.36.77.35.88 0 1.81.29 2.63-.38.12-.1.56.18.85.29-.18.2-.32.49-.55.58-1.48.58-1.53.69-1.59 2.24a20 20 0 0 1-.34 2.55c-.16.92.63 1.07 1.12 1.47l-1.24.7c-.45 0-1.23-.76-1.2.48l-4.31 1.67-.72.26-.48.22c-.44-.69-.79-.69-1.18 0l-1.66-.56.07-.36h2.34a10 10 0 0 0 .35-1.94c-.06-1.62 1.18-3 .85-4.68-.08-.39.5-.9.83-1.44-.6 0-1.35.1-1.15-.89l.23-.13Z" class="cls-20"/><path d="M105 144.79c2 .85 2.14.88 3.28.47-.59-.24-1.14-.45-1.67-.71-.11-.06-.1-.33-.15-.51l5.5 2.14c.5.2 1 .49 1.44.74l-1.21.67V153c0 .76 0 1.41 1 1.65.54.14.57.6.39 1.06q-.18.43-.39.85l-1.9-.55-.74-.43h-.23c-.47-.89-1.34-.67-2.1-.75l-.76-.28-.22-.18-.74-.29-.21-.18v-.21l.71-.69c-.53-.76-1.16-1.56-1.66-2.44a1.4 1.4 0 0 1 .28-1.84 3 3 0 0 0 .49-.78l.65-1.33a22 22 0 0 1-2.13-1.24c-.37-.27-.12-.55.29-.6Z" class="cls-13"/><path d="M150 152.47a3 3 0 0 0-.44-.71 6 6 0 0 0-.94-.61c.73-1.69.39-3.36.32-5 0-.22-.44-.5-.73-.61-.7-.26-1.44-.44-2.36-.71a19 19 0 0 1 2.26-.7 1 1 0 0 0 .93-1l4.05-1.46 1.22.3-.53 1v.07c1.66.25 2.09 1.05 1.61 3q-.15.56-.36 1.15l.32.19.8.55a5 5 0 0 1-.71.86 11 11 0 0 1-1.26.81l.2.43c.75-.22 1.48-.46 2.24-.62.14 0 .35.26.52.4-2 .74-3.89 1.48-5.85 2.21-.4.19-.85.31-1.29.45" class="cls-14"/><path d="m101.36 155.83-.52.56 3.43 1.41c-2.35.29-3.29 0-3.83-1.26l-1.49.68a16 16 0 0 0 2 1.17 1 1 0 0 1 .67 1.1v1.79c0 .24 0 .62-.13.67-1.32.59-.9 1.73-.92 2.73v.37l-1.61-.37-.92-.25-.28-.23h-1.19c-.1-.15-.17-.36-.31-.43q-1.04-.53-2.1-1l1.23-.06c-1.45-1.47-1.09-3-.58-4.61.33-1.07.47-2.21.68-3.23l1.59-.76Z" class="cls-15"/><path d="M150.46 121.9c-.61.22-.86-.17-.92-.68s-.23-1 .5-1.12l.43.07 1 .43 2.86 1.23-1.06 1.67 1.91-.44a5 5 0 0 0-.44 1.43c.06 1.82.25 3.63.29 5.44a10 10 0 0 1-.43 2.08c.45.26 1.26.57.05 1.28-.26.14-.22.79-.31 1.2l-1.2 1h-1l-.48.47h-1.75l1.16-3c-.78-.46-.87-1.08-.47-2.06a8 8 0 0 0 .1-2.61v-1.55a7 7 0 0 1 .15-2.59c.28-.6 1.23-.9 1.9-1.54a4 4 0 0 0-1.22.09c-1 .37-.95.41-1.08-.79v.2l.85-.22-.08-.3a2 2 0 0 0-.76.31" class="cls-19"/><path d="M251.09 176.62a6.84 6.84 0 0 1-.12 13.67c-3.82 0-6.5-2.82-6.56-6.82-.05-3.8 2.97-7.08 6.68-6.85m0 12.47a5.64 5.64 0 0 0-.1-11.25c-2.74 0-5.11 2.17-5.14 5.62a5.25 5.25 0 0 0 5.26 5.63Z" class="cls-17"/><path d="M163 125.39q2.17.82 4.33 1.69c.88.36 1.73.8 2.59 1.21l.5 1a19 19 0 0 0-2.31.47c-1.07.37-2.09.91-3.16 1.28a25 25 0 0 1-2.45.59 3 3 0 0 0-2.16 1h-.24c-.39-.05-1 .17-.93-.56.1-1.52.24-3 .36-4.6l-.49-.1c-.38 0-.92.06-.78-.55 0-.19.51-.34.81-.4a14 14 0 0 1 1.44-.1l.07-.4-1.19-.47c-.59-.23-1.19.32-1.11-.56 0-.17.82-.28 1.27-.39a1 1 0 0 1 .46.09l1.8.36.44.08Z" class="cls-21"/><path d="m430.5 184 3.39 5.81c-1.48.44-1.51.4-2.15-.76q-1.29-2.36-2.63-4.68c-.45-.79-1.23-.36-1.85-.34-.16 0-.42.6-.43.93-.05 1.16 0 2.31 0 3.47v1.5c-1.47.17-1.47.15-1.47-1.06v-10.89c0-1.06.11-1.14 1.14-1.09q1.8-.02 3.59.07a3.35 3.35 0 0 1 3.46 3.94 3 3 0 0 1-1.47 2.34 14 14 0 0 1-1.58.76m-3.78-1.05a40 40 0 0 0 4.2-.6 1.7 1.7 0 0 0 1.25-1.92c-.05-.91-.35-1.72-1.3-1.9a26 26 0 0 0-3.62-.36c-.17 0-.49.41-.5.65-.05 1.26-.03 2.55-.03 4.1Z" class="cls-17"/><path d="M374.89 189.89c-1.39.19-1.39.19-1.39-.95v-10.89c0-.88.23-1.24 1.13-1.17 1.51.12 3 .1 4.52.27a2.75 2.75 0 0 1 2.47 2.54 3.1 3.1 0 0 1-1.32 3.44c-.5.31-1 .57-1.66.91l3.44 5.79a1.53 1.53 0 0 1-2.23-.85c-.81-1.51-1.73-2.95-2.54-4.45-.48-.9-1.25-.56-1.88-.49-.22 0-.48.73-.5 1.13-.08 1.55-.04 3.1-.04 4.72m0-7.23c1.18 0 2.14.05 3.09 0a2.3 2.3 0 0 0 2.36-2.22 2.33 2.33 0 0 0-2.23-2.24 17 17 0 0 0-2.63-.05.8.8 0 0 0-.56.55c-.06 1.3-.04 2.58-.04 3.96Z" class="cls-22"/><path d="m161.76 124.9-1.8-.36a1 1 0 0 0-.46-.09c-.45.11-1.26.22-1.27.39-.08.88.69.42 1.11.56s.79.32 1.19.47l-.07.4a14 14 0 0 0-1.44.1c-.3.06-.77.21-.81.4-.14.61.4.51.78.55l.49.1q-.2 2.33-.36 4.6c-.05.73.54.51.93.56v.47h-.24c-.37.05-.89-.18-.95.48h-1c-.48.17-1.2-.41-1.44.47h-.24l-.72.47h-1.19c.09-.41.05-1.06.31-1.2 1.21-.71.4-1-.05-1.28a10 10 0 0 0 .43-2.08c0-1.81-.23-3.62-.29-5.44a5 5 0 0 1 .44-1.43l-1.91.44 1.06-1.67 4.92 1.84q1.08.4 2.16.85c.19.08.3.27.42.4" class="cls-23"/><path d="M403.43 179q2.25 3.37 4.52 6.72c.41.61.86 1.19 1.47 2v-10.64c1.44-.3 1.39-.29 1.39 1v10.75c0 .39-.14 1-.34 1.09-.57.16-1.24.32-1.69-.41-.69-1.12-1.47-2.17-2.18-3.27l-3.18-5-.48-.74-.31-.45-.14-.28c0-.18.06-.4 0-.53a4 4 0 0 0-.58-.63c-.12.25-.35.5-.35.76v9.2c0 .78-.23 1.12-1 1v-12c.45-.65 1.12-.49 1.75-.47l.4.49.12.37Z" class="cls-17"/><path d="m83.65 124.93 3.82-1.45A18 18 0 0 1 90 123c.7 0 1-.31 1.12-1l.67-.06 1.14.77-1.63.8a12 12 0 0 1 .28 1.42c.1 1.26.14 2.52.22 3.78a1.3 1.3 0 0 1-1.17 1.38 14 14 0 0 1-1.43 0l-.73-.47a2 2 0 0 1-.57-.11 14 14 0 0 0-6.42-2.41c.81-.56.08-.8-.07-1Z" class="cls-21"/><path d="M326.81 190h-7.36c-.7 0-.74-.45-.74-1v-11.13c0-.48-.07-1 .65-1h7.32v1.31c-1.85 0-3.64.05-5.42 0-.85 0-1.15.2-1.1 1.06s0 1.59-.05 2.38c0 .57.22.87.86.86h4.3c.86 0 1.19.33.87 1.3h-6v4.38c0 .19.55.5.86.51h4.78c1.13.04 1.13.05 1.03 1.33m-3.29-6.8v-.36l-1.39.12v.24Zm1.61-.37c-.07.1-.19.21-.17.27s.2.19.24.17a1 1 0 0 0 .26-.28Zm-3.86.08c-.06 0-.15.06-.17.11s0 .12.07.19l.23-.15Z" class="cls-17"/><path d="M414.49 176.91h7c.47 0 1-.07 1 .68s-.62.6-1.05.6c-1.51 0-3 .06-4.54 0-.86 0-1.13.25-1 1.09a13 13 0 0 1 0 2.15c-.07.86.29 1.1 1.11 1.06 1.23-.06 2.47 0 3.7 0 .53 0 1.34-.31 1.38.65s-.82.65-1.32.66c-1.55.05-3.1 0-4.76 0v4.85h6.56l.12 1.35h-6.06c-2.11 0-2.11 0-2.11-2.15v-9.8c-.08-.36-.04-.75-.03-1.14" class="cls-22"/><path d="M389.43 190v-12.5a.9.9 0 0 1 .61-.6h6.7c.21 0 .59.43.57.62a.9.9 0 0 1-.61.64c-1.07.06-2.15 0-3.22 0-2.63 0-2.63 0-2.66 2.64a6 6 0 0 1 0 .72c-.08.73.24 1 1 .94 1.39-.05 2.79 0 4.18 0 .51 0 1 0 1 .74s-.53.57-.95.57c-1.39 0-2.79.05-4.18 0-.83 0-1 .26-1 1a30 30 0 0 1 0 3c0 .65.24.91.92.89h4.91a1.3 1.3 0 0 1 .85.27.63.63 0 0 1-.48 1q-3.79.09-7.64.07m-75.31-11.8h-6.24c-.52 0-.79-.25-.68-.71a.9.9 0 0 1 .67-.56c1.47-.06 2.95 0 4.42 0h2.63c.39 0 1.06.06 1.12.25a1.8 1.8 0 0 1-.14 1.35c-1.56 2.3-3.19 4.54-4.79 6.82-.72 1-1.4 2.08-2.27 3.38h6.67c.51 0 .81.21.73.68a1 1 0 0 1-.64.6h-8c-.65 0-.89-.59-.46-1.32.62-1 1.35-2 2-2.95q2.4-3.48 4.79-7a2 2 0 0 0 .19-.54m55.74 3.6c0 1.47.1 2.95 0 4.42a4 4 0 0 1-2.56 3.74 5 5 0 0 1-5.21-.61 4.4 4.4 0 0 1-1.66-3.33c-.07-2.83-.06-5.66-.09-8.49 0-.49.19-.78.71-.72s.74.23.72.84a115 115 0 0 0 0 6.94 7 7 0 0 0 .75 3.07 3.14 3.14 0 0 0 5.48-.27 6 6 0 0 0 .5-2.3c.07-2.23 0-4.47 0-6.7a2 2 0 0 1 .06-.94 1.2 1.2 0 0 1 .72-.59c.42 0 .68.19.66.75-.06 1.39 0 2.79 0 4.18Z" class="cls-17"/><path d="M89.16 130.18a14 14 0 0 0 1.43 0 1.3 1.3 0 0 0 1.17-1.38c-.08-1.26-.12-2.52-.22-3.78a12 12 0 0 0-.28-1.42l1.63-.8-1.14-.8 2.43-.94a2.13 2.13 0 0 1 2.62 1.57 9 9 0 0 0-1.33-.48 4 4 0 0 0-1 .09c.13.25.21.62.42.74a15 15 0 0 0 1.87.76l-1.17.38v2.49a17 17 0 0 0 .18 4.8c0 .16-.32.58-.55.64a5 5 0 0 1-1.31 0l-2.39-.48c-.12-.81-.67-1-1.38-1-.35.08-.9.3-.98-.39" class="cls-23"/><path d="M437.94 180.35a8 8 0 0 0-.57 4.09c.37 3.59 4.14 5.83 7.94 4.05.14-.07.35-.19.36-.29 0-1.18.06-2.36 0-3.54 0-.09-.38-.22-.6-.24a7 7 0 0 0-1.19 0c-.84.06-1.2-.27-.9-1.32h3.61c.21 0 .56.43.57.68q.08 2.39 0 4.78a1.2 1.2 0 0 1-.66.86c-3.09 1.36-7.92 1.61-10-2.72-1.53-3.16-.5-7.92 2.55-9.16l1.16.09-.62.92c-1.06.12-1.46.87-1.65 1.8" class="cls-17"/><path d="M262.08 184.08v5c0 .41.14.9-.56 1-.88.06-.83-.5-.83-1.08v-11.48c0-.6.26-.7.76-.68 1.27.06 2.55 0 3.82.13a3.4 3.4 0 0 1 3.44 3.41 3.2 3.2 0 0 1-2.8 3.45c-1.22.17-2.46.17-3.83.25m.06-1.33H265a3 3 0 0 0 .7-.16 2.3 2.3 0 0 0 1.63-2.12 1.9 1.9 0 0 0-1.37-2c-1.2-.27-2.46-.33-3.79-.49Z" class="cls-22"/><path d="M89.16 130.18c.08.69.63.47 1 .47.71 0 1.26.16 1.38 1l-.87.14v.21a3.2 3.2 0 0 1 3 2.25q-4.09-1.62-8.17-3.26c-2.53-1-5-2.12-7.57-3.17a2 2 0 0 0-.58 0c.12-.31.17-.8.39-.89 1.62-.69 3.28-1.3 4.93-1.91a4 4 0 0 1 1-.08l-2.28 1.24c.15.22.88.46.07 1a14 14 0 0 1 6.42 2.41 2 2 0 0 0 .57.11l.73.47Z" class="cls-24"/><path d="M338 183.09c1.16-1.89 2.25-3.59 3.24-5.34.49-.87 1.09-1 2.09-.69l-2.73 4.31-.08.09a8 8 0 0 0-1.86 6.3 9 9 0 0 1 0 1.67.57.57 0 0 1-.83.56 1 1 0 0 1-.58-.67 7 7 0 0 1 0-1.79 8 8 0 0 0-1.85-6.07c-1-1.37-1.86-2.85-2.79-4.29 1.19-.48 1.48-.43 2.07.53.84 1.35 1.62 2.74 2.44 4.1.18.37.44.72.88 1.29" class="cls-17"/><path d="M448.31 177.1c1.4-.52 1.53-.46 2.17.63 1 1.73 2.06 3.45 3.22 5.39 1.2-2 2.29-3.69 3.35-5.45.55-.92.81-1 2-.52-1 1.51-1.84 3.07-2.91 4.47a8 8 0 0 0-1.77 5.86c.05.47 0 1 0 1.43 0 1.16 0 1.16-1.39 1 0-1.4.06-2.83 0-4.24a5 5 0 0 0-.56-2c-1.2-2-2.49-4-3.75-5.94Z" class="cls-22"/><path d="M431.47 133.9v-5.29h5.81v5.29Z" class="cls-4"/><path d="M275.49 178.22v10.87c0 .43.08.89-.6.94s-.82-.36-.82-.95v-9.58c0-1.31 0-1.31-1.33-1.31a22 22 0 0 1-2.27 0c-.24 0-.62-.41-.61-.61a1 1 0 0 1 .6-.67 5 5 0 0 1 1.17 0q3.3.02 6.58-.07h.36c.5.1 1.23-.11 1.19.79s-.72.59-1.17.61c-.97.01-1.96-.02-3.1-.02" class="cls-22"/><path d="M160.05 133.05v-.47h.24c.88.06 1.71 0 2.16-1a25 25 0 0 0 2.45-.59c1.07-.37 2.09-.91 3.16-1.28a19 19 0 0 1 2.31-.47l-.5-1 3.6 1.41v.44q-2.9 1.11-5.83 2.2c-2.93 1.09-3.86 1.41-5.8 2.08a14 14 0 0 1-1.73.36 7 7 0 0 0 .23-1.2c.01-.12-.18-.3-.29-.48" class="cls-24"/><path d="M354.3 177.61a5.5 5.5 0 0 1 2.89 3.74c.92 3.47-.28 6.93-3.38 8.33a6.4 6.4 0 0 1-6.88-.61H348l-.41-1 .33.12a5.19 5.19 0 0 0 8.08-4.39 5.9 5.9 0 0 0-3.18-5.68l.07-.07c.52-.05 1.11.21 1.41-.44" class="cls-22"/><path d="M282 189.92c0-.43-.08-.78-.08-1.14v-10.87c0-.45-.12-1 .65-1s.7.51.7 1.05v11c.03 1.04.03 1.04-1.27.96" class="cls-6"/><path d="M304.51 183.34v5.72c0 .47.1 1-.67 1s-.71-.48-.71-1v-11.21c0-.51 0-1 .7-1s.68.48.68 1zm43.11 4.77.41 1h-1.1c-3.37-2-3.69-8.2-.8-10.53l1.45-1 1.48-.44.23.47-.24.47a6.4 6.4 0 0 0-3.18 3.36c-.1.05-.29.08-.31.15a6.7 6.7 0 0 0 .58 5.23c.09.17.36.24.55.36l.2.26q-.07.82.74.69Z" class="cls-17"/><path d="m439.6 178.59.62-.92-1.16-.09a6.9 6.9 0 0 1 7.47.23c.3.26.67.59.22 1-.24.2-.8.38-1 .25-1.95-1.54-4.02-1.34-6.15-.47" class="cls-22"/><path d="M100.65 119.65c-.15-.82-.82-.33-1.24-.5 1.09-.47 2.17-1 3.27-1.39a15 15 0 0 1 1.79-.51c.56-.16 1.34.44 1.68-.49a8 8 0 0 1 1.31 0 4 4 0 0 1 .84.41 5 5 0 0 1-.74.53 7.5 7.5 0 0 1-3.34.52c-.15 0-.3.29-.44.44l-.72 1h-2.4Z" class="cls-12"/><path d="M126.28 110.07h-2.11c-.68 1.16-2 1-3 1.43a22 22 0 0 1-3.51.9 6 6 0 0 1 1.25-.91c1.59-.63 3.23-1.16 4.83-1.78a2.7 2.7 0 0 1 2.54.36" class="cls-25"/><path d="m349.05 177.12-1.48.44a7 7 0 0 1 1.86-.84 20 20 0 0 1 3 0 2.1 2.1 0 0 1 1.72.85c-.39.2-1.08-.33-1.22.49l-.07.07-3.79-.06.24-.47H352v-.47Zm51.45 12.47c.78.08 1-.26 1-1v-9.2c0-.26.23-.51.35-.76a4 4 0 0 1 .58.63c.08.13 0 .35 0 .53l-.72-.51v11Z" class="cls-22"/><path d="M146.89 118.69a4 4 0 0 1-2.39-.69 6 6 0 0 0-1-.26c-.13-.74-.72-.48-1.12-.46-.74 0-1.21-.18-1.28-1a23 23 0 0 1 2.45.61c1 .39 2 .91 3.07 1.39.14.08.19.28.27.41" class="cls-26"/><path d="M117.42 112.48c0 .73-.35.91-1 1a16 16 0 0 0-2.25.49l-2 .44a11 11 0 0 1 1.35-.69c1.26-.51 2.48-1.31 3.9-1.24m17.74 1.41a3.4 3.4 0 0 1-3.37-1.43 4.2 4.2 0 0 1 3.37 1.43" class="cls-25"/><path d="M91.08 122.08c-.1.64-.42.91-1.12 1a18 18 0 0 0-2.49.45 7 7 0 0 1 3.61-1.45" class="cls-19"/><path d="M138.26 147a3.1 3.1 0 0 1-3.2 1.37 5.6 5.6 0 0 1 3.2-1.37" class="cls-9"/><path d="M141.13 116.3a2 2 0 0 1-2.16-.94 2 2 0 0 1 2.16.94m-3.58-1.45a3.1 3.1 0 0 1-2.39-1 2.6 2.6 0 0 1 2.39 1" class="cls-25"/><path d="M402.19 177.13c-.63 0-1.3-.18-1.75.47.09-.28.18-.8.27-.8.5 0 1.16-.5 1.48.33" class="cls-9"/><path d="M437.94 180.35c.19-.93.59-1.68 1.67-1.77Z" class="cls-22"/><path d="M106.15 116.76c-.34.93-1.12.33-1.68.49.38-.78 1.11-.36 1.68-.49" class="cls-3"/><path d="m347.58 177.55-1.45 1Z" class="cls-22"/><path d="M352.9 178.05c.14-.82.83-.29 1.22-.49a.2.2 0 0 1 .18.05c-.3.65-.89.39-1.4.44" class="cls-6"/><path d="M138.76 115.33c-.43-.1-1.07.35-1.21-.48.45.09 1.02-.22 1.21.48m-10.1-4.33c-.42-.11-1 .28-1.19-.47.42.14 1.04-.27 1.19.47m2.16 1c-.41-.11-1 .31-1.18-.49Zm-3.36-1.44c-.41-.11-1 .3-1.18-.49Z" class="cls-25"/><path d="M154.12 155c-.05.58-.05.58-1 .34Z" class="cls-15"/><path d="M173.47 130.14v-.44c.54.17.91.41.37 1Zm-43.83-18.64-1-.45Z" class="cls-25"/><path d="m156.23 154.15-.26.45h-.47l-.3-.06Z" class="cls-5"/><path d="m403.43 179-.71-1Z" class="cls-14"/><path d="m151.44 120.6-1-.43Z" class="cls-12"/><path d="m163 125.39-.75-.41Z" class="cls-23"/><path d="m402.92 180.47.48.74Z" class="cls-22"/><path d="m402.6 177.63-.4-.49Z" class="cls-9"/><path d="m96.54 150.82.74.35Zm77.08 6.39-.17-.63Z" class="cls-10"/><path d="m96 139.7-.6-.36Z" class="cls-14"/><path d="m84.23 160 .6.27Z" class="cls-11"/><path d="m155 154.61-.7.24Z" class="cls-5"/><path d="m173.16 143.31.07-.04z" class="cls-11"/><path d="m98.07 151.48.41.19Zm47.38 3.83.51-.19Z" class="cls-10"/><path d="m94.37 152.94-.42-.19Z" class="cls-15"/><path d="m402.6 180 .31.45Z" class="cls-13"/><path d="m108.27 158.7-.43-.2Z" class="cls-5"/><path d="m99.23 152 .45.19Z" class="cls-10"/><path d="m153.82 141.3-.07.09h-.12a.13.13 0 0 1 .19-.09" class="cls-14"/><path d="m138 160.93-.23.13Z" class="cls-5"/><path d="M400.44 189.25v.35Z" class="cls-9"/><path d="m105.37 139.11-1.12-.33v-.45a1 1 0 0 1 1.4-.57 24 24 0 0 0 3.09.58 2 2 0 0 1 .61.31 3.6 3.6 0 0 0 3.08.91c.18 0 .48 0 .56.07.62.82 1.6.77 2.43 1.1.24.09.38.41.6.57a3 3 0 0 0 .63.26c0-.26.18-.58.09-.79a6 6 0 0 0-.77-1.12 1.3 1.3 0 0 0-.54-.35 2 2 0 0 0-.47 0c-2-.05-2.67-.71-2.78-2.71 0-.62-.1-1.09-.87-1.16a.8.8 0 0 1-.53-.52c-.29-2-.61-3.92-.74-5.89a11 11 0 0 1 .29-4.12 13 13 0 0 0 .7-4.12c0-.22.49-.42.76-.61a6 6 0 0 0 1.1-.79c.73-.83 1.35-1.75 2.09-2.57a2 2 0 0 1 1.06-.47 6 6 0 0 1 1.08-.09l-1.87-1.65a1.6 1.6 0 0 1 1.87.25 2.5 2.5 0 0 0 2.14.49c.19 0 .36-.22.54-.34a6 6 0 0 0-.42-.58q-.34-.33-.7-.65a5 5 0 0 1 1-.25h4.14c.64 0 1.27-.07 1.91 0a26 26 0 0 1 4.15.29 6.4 6.4 0 0 1 2.9 1.4 1.57 1.57 0 0 0 2.09.18 4 4 0 0 0 .56-.39c.83.56.18.81-.26 1.16 1 1.1 1.93 2.2 2.92 3.28a1.3 1.3 0 0 0 .78.44c.93.08 1.45.61 1.25 1.53-.23 1.08-.47 2.1.6 2.93.18.14.16.59.16.9 0 1.83.07 3.67 0 5.5-.06 1.34-.31 2.67-.48 4a.7.7 0 0 1-.22.42c-1.79 1.4-2.75 3.62-4.77 4.79a11 11 0 0 0-1.14.61 5 5 0 0 0-.71.85 6 6 0 0 0 1.07.34 1.4 1.4 0 0 0 .79-.17 8.3 8.3 0 0 1 4.14-1.28 10 10 0 0 0 1.78-.47c.79-.18 1.6-.3 2.4-.46a3 3 0 0 0 .88-.26 4.3 4.3 0 0 1 3.32-.32c.07 0 .11.27.17.41l-1.37.46-.57.39h-.25l-.21.15-.88.14c-1-.15-2.06-.21-2.5 1.06l-.85.13-.82.43q-3.53 1.22-7.06 2.47a530 530 0 0 0-7.28 2.62 3.7 3.7 0 0 1-2.85-.27q-5.89-2.46-11.79-4.85l-1-.44-.71-.27-.56-.37-.65-.11-.54-.38-.91-.29c-.17-.24-.29-.61-.51-.69a7 7 0 0 0-1.43-.27m22.68-19c-.44-1.49-1.62-1.54-2.86-1.39s-2.63.42-4 .59a1.5 1.5 0 0 0-1.46 1.09 2.2 2.2 0 0 1-1 1 4.6 4.6 0 0 0-2.34 4.58c.06 2.06-.13 4.13-.2 6.19 0 .19 0 .48.08.57 1.27 1 1.77 2.9 3.74 3.06a2 2 0 0 1 .94.66 13 13 0 0 0 1.12 1.37c.35.29 1 .61 1.31.45a4.4 4.4 0 0 1 3.37-.3c1.58.4 2.39-.37 3.25-1.36.27-.32.63-.77 1-.78 1.05 0 1.56-.72 2.23-1.37 1.09-1.07 1.84-2 1.5-3.77a30 30 0 0 1-.08-5.37c0-1.41-.31-2.68-1.71-3.42a4 4 0 0 1-1.12-.88c-.99-1.3-2.28-1.32-3.77-.94Z" class="cls-26"/><path d="M93.7 134.28a3.2 3.2 0 0 0-3-2.25v-.27l.87-.14 2.39.48c.11.15.18.39.32.44a22 22 0 0 1 3.28 1.08c1 .54 2 .32 3 .37 0-.5.16-1 0-1.23-.8-.83-.41-1.75-.4-2.65v-5c0-.73 0-1.42 1-1.77.39-.15.5-1.21.66-1.87a3 3 0 0 0 0-1l1.21-.87h.72l.3.43.41-.43v-.73c1.06-.08 2.12-.18 3.18-.21.2 0 .41.33.62.5-.2.14-.38.36-.6.41-.56.13-1.51 0-1.63.29A3.4 3.4 0 0 0 106 122c.25.87-.08 1.31-.58 2a5 5 0 0 0-.66 2.42 22 22 0 0 0 0 3.93 33 33 0 0 0 .77 4.4c.09.4.57.71.89 1.08-.48.8-1.26.53-1.93.59H104c-.1-.15-.18-.4-.31-.43q-1.23-.3-2.47-.53c-.15 0-.4-.07-.42-.15-.26-1.18-1.2-.72-1.9-.8h-1.07c-.76-.09-1.13.19-1 1h-.22l-2-.93Zm66.35-1.23c.11.18.3.36.29.53a7 7 0 0 1-.23 1.2c-.52.19-1.23-.06-1.48.69h-1.73c-.55 0-.42.28-.08.51l-1.44.48-1 .48-1.69.66-.25.2-1.92.54c0-.57 0-1.07.78-1 .12 0 .3 0 .35-.05.85-1 2.18-1 3.27-1.47.24-.11.41-.4.61-.61l-.12-.26-2.25.47 1.2-1h1.19l.72-.47h1.92l.71-.47c.37-.06.88.18.95-.48Z" class="cls-12"/><path d="M123.89 112c.5-.82 1.88-1.25 2.4-.86a.6.6 0 0 1 .17.5.5.5 0 0 1-.39.34q-1.01.02-2.18.02M104 136.41h.48v.35a2 2 0 0 1-.68.57c-.08 0-.32-.23-.48-.36Z" class="cls-26"/><path d="M103.77 119.66h-.72l.72-1 .72.24v.73Z" class="cls-19"/><path d="m97.76 136-.44-.1v-.42a6 6 0 0 0 .7 0q1.14-.17 1 1h-.24l-.71-.25-.09-.32Z" class="cls-12"/><path d="M127.61 112.1h1.17v.23h-1.16Zm-12.71 4.12h-.72v-.26l.72-.05Zm7.9-4.15h.71v.23h-.71Z" class="cls-26"/><path d="m151.67 135.93.48-.47ZM100.61 137l-.44-.08.28-.4Z" class="cls-12"/><path d="m101.86 137.78-.55-.37Zm2.37.55v.45l-.56-.4Zm-6.93-2.88v.42l-.53-.39Zm3.37 1.87-.06-.24Zm2.38.96-.26-.18Z" class="cls-24"/><path d="m144 168.26 1.24-.7a10 10 0 0 0 1.25-.3l9.24-3.57.49-.42.47-.05.72-.23.27-.23 1.43-.2a13 13 0 0 1-1.52.88q-3.25 1.32-6.51 2.59l-7.85 3c-2.85 1.14-5.67 2.34-8.51 3.49s-5.9 2.47-8.91 3.5a4.6 4.6 0 0 1-2.74-.46c-1.81-.68-3.56-1.52-5.33-2.31-.15-.06-.23-.28-.35-.42 1.52.55 3 1.08 4.55 1.66.85.33 1.66.76 2.51 1.07a1.5 1.5 0 0 0 1 0q4.86-1.89 9.7-3.87a4 4 0 0 0 .94-.78h1.18l.48-.22.72-.26 4.31-1.67Zm-46-3.83.92.25c.89.47 1.76 1 2.69 1.38q3.33 1.38 6.68 2.69 2.25.94 4.46 1.93a7 7 0 0 1 1 .69q-1.5-.48-3-1-3.64-1.38-7.25-2.86c-3.61-1.48-4.54-2-6.8-3-.09 0-.14-.19-.21-.29h1.17Zm19.19 8.36a5.6 5.6 0 0 1-3.37-1.42 6 6 0 0 1 3.37 1.42" class="cls-27"/><path d="m135.14 149.82.69-.53.18.4z" class="cls-9"/><path d="m115 156.92-.12-.16.24-.12c0 .07.08.14.06.19s-.13.06-.18.09" class="cls-13"/><path d="M124.4 161.13h-.52Z" class="cls-9"/><path d="M153.17 156.51c.32 0 .65-.09 1-.1a1 1 0 0 1 .08.4l-1 .18Zm2.33-1.89h.47l-.28.39Zm2.19 8.14-.27.23-.28-.11Z" class="cls-15"/><path d="m159.83 162.29-.48.23Z" class="cls-27"/><path d="m156.7 163.22-.47.05Z" class="cls-15"/><path d="M166 147c-1.08.47-2.15 1-3.25 1.4a18 18 0 0 1-2.22.52c0-.07.06-.18.11-.2Zm3.87-1.48c-1.25.53-2.33 1.55-3.82 1.43a5 5 0 0 1 3.82-1.43m3.58-1.43c-.24.21-.45.51-.73.6-.93.32-1.88.56-2.83.82 0-.11.05-.29.12-.31z" class="cls-27"/><path d="M155.62 142.72h.95v.28h-.95Z" class="cls-14"/><path d="M94.16 162.75q1.06.49 2.1 1c.14.07.21.28.31.43-1.22-.39-2.47-.71-3.65-1.19-2.84-1.14-5.65-2.38-8.49-3.55-1.52-.64-3.07-1.22-4.6-1.85-.21-.09-.34-.39-.51-.58.86.26 1.74.46 2.56.8 2.83 1.14 5.63 2.34 8.45 3.49 1.26.53 2.55.97 3.83 1.45M79.32 157c-.42-.1-1 .27-1.2-.46Zm-1.21-.46-.45-.26Z" class="cls-27"/><path d="M93.7 154.42h.08l-.12.1v-.08c0-.02.01 0 .04-.02" class="cls-15"/><path d="M142.32 141.35c.44-1.27 1.45-1.21 2.5-1.06Z" class="cls-12"/><path d="M105.37 139.11a7 7 0 0 1 1.46.22c.22.08.34.45.51.69Zm-10.79-4.56 2 .93ZM156.8 136c-.34-.23-.37-.46.08-.51s1 0 1.55 0Zm1.81-.54c.25-.75 1-.5 1.48-.69Zm-47.9 5.98 1 .44Zm43.62-4.44 1-.48Z" class="cls-24"/><path d="m140.65 141.91.82-.43Zm5.51-1.91.57-.39Z" class="cls-12"/><path d="m108.25 140.31.54.38Zm1.19.49.56.37ZM98 136.17l.71.25Zm-.24-.17.17-.13.09.32Zm54.63 1.81.25-.2Z" class="cls-24"/><path d="m145.7 140.15.21-.15Z" class="cls-12"/><path d="M96.8 149.83q2.12.82 4.22 1.68a9 9 0 0 1 1.07.66c-1.33-.49-2.67-.95-4-1.49a8 8 0 0 1-1.29-.85m11.33 4.98c.76.08 1.63-.14 2.1.75Zm-5.81-2.59 1 .46Zm1.19.48.73.42Zm6.95 2.88.74.43Zm-4.3-1.94v.21l-.28-.18Zm.04.24.21.18Zm.95.47.22.18Z" class="cls-17"/><path d="M147 120h-1.41v-.26l1.42-.11Z" class="cls-3"/><path d="m105 144.79.27-.19z" class="cls-13"/><path d="m100.65 119.65-.46.49-.19-.3z" class="cls-12"/><path d="M137.3 170.89h-1.18c.39-.69.74-.69 1.18 0" class="cls-5"/><path d="m144 168.26-1.2.48c-.02-1.24.76-.44 1.2-.48" class="cls-15"/><path d="m138.5 170.41-.72.26Z" class="cls-5"/><path d="m98 164.43-.28-.23Z" class="cls-16"/><path d="m150.45 121.75.81-.17.08.3-.85.22Z" class="cls-12"/><path d="M162.45 131.63c-.45.93-1.28 1-2.16 1a3 3 0 0 1 2.16-1" class="cls-23"/><path d="M158.14 134h-1.68c.24-.88 1-.3 1.44-.47Z" class="cls-19"/><path d="M159.81 133.06c-.07.66-.58.42-.95.48.06-.66.58-.43.95-.48m-1.67.94-.24-.47h.95Z" class="cls-24"/><path d="m156.22 134-.72.47Z" class="cls-19"/><path d="m89.16 130.18-.73-.47Z" class="cls-23"/><path d="M323.52 183.23h-1.39v-.24l1.39-.12Zm1.61-.37.33.16a1 1 0 0 1-.26.28s-.21-.09-.24-.17.1-.13.17-.27m-3.86.08.13.15-.23.15c0-.07-.08-.14-.07-.19s.11-.05.17-.11" class="cls-6"/><path d="M345.86 181.42a7.5 7.5 0 0 0 .82 5.74c-.19-.12-.46-.19-.55-.36a6.7 6.7 0 0 1-.58-5.23c.02-.07.21-.1.31-.15" class="cls-22"/><path d="M349.05 177.12h3v.47h-2.74Z" class="cls-6"/><path d="m346.88 187.42.74.69c-.54.08-.79-.11-.74-.69" class="cls-22"/><path d="M128.05 120.09c1.49-.38 2.78-.36 3.78.89a4 4 0 0 0 1.12.88c1.4.74 1.69 2 1.71 3.42a30 30 0 0 0 .08 5.37c.34 1.76-.41 2.7-1.5 3.77-.67.65-1.18 1.33-2.23 1.37-.34 0-.7.46-1 .78-.86 1-1.67 1.76-3.25 1.36a4.4 4.4 0 0 0-3.37.3c-.26.16-1-.16-1.31-.45a13 13 0 0 1-1.12-1.37 2 2 0 0 0-.94-.66c-2-.16-2.47-2.07-3.74-3.06-.11-.09-.09-.38-.08-.57.07-2.06.26-4.13.2-6.19a4.6 4.6 0 0 1 2.34-4.58 2.2 2.2 0 0 0 1-1 1.5 1.5 0 0 1 1.46-1.09c1.33-.17 2.64-.42 4-.59s2.41-.07 2.85 1.42" class="cls-25"/><path d="M103.77 119.66h.71l-.41.43Z" class="cls-26"/></svg>