<svg id="Lager_1" data-name="Lager 1" xmlns="http://www.w3.org/2000/svg" viewBox="0 0 684.11 574.34"><title>Safespring_compute_symbol</title><g id="STORAGE"><path d="M566.68,476.72c-.21,4.75.61,9.86-1.68,14.84-2.12,4.63-5.7,8.09-10,11.14-5,3.56-10.89,5.78-16.47,8.46a56.11,56.11,0,0,1-7.4,2.47A251.12,251.12,0,0,1,488.32,523a521.71,521.71,0,0,1-57.68,4.46c-17.78.35-35.46-1-53.08-2.77-9.71-1-19.41-2.34-29-4.14-10.36-2-20.64-4.23-30.52-7.85-5.84-2.14-11.7-4.27-16.78-7.48-5.82-3.69-12.27-7.06-14.79-13.63a12.43,12.43,0,0,1-.93-3.86c-.35-7.78-.82-15.59.17-23.32.87-6.85,6.57-11.1,12.32-15.08,5.32-3.68,11.57-6,17.74-8.23a148.45,148.45,0,0,1,18.24-5.6c6-1.33,12.06-3.07,18.15-3.9,16.2-2.2,32.32-5.13,48.86-5.11,7.55,0,15.1-1.23,22.65-1.24,8.49,0,17,.66,25.48,1.17,7,.42,14,0,21,1,9.94,1.44,20.06,2.16,29.87,4.07,10.84,2.11,21.68,4.35,32.09,8,7.74,2.75,15.33,5.67,22,10.07,7.39,4.91,12.89,11,12.65,19.84C566.63,471.7,566.68,474,566.68,476.72Z" transform="translate(-83.14 -137.96)" style="fill:#407da5"/><path d="M285.27,658.23c0-3.86,0-7.73,0-11.59,0-.81.1-1.58,1-1.92s1.42.37,2.05.77A96.44,96.44,0,0,0,304,653.23a215.67,215.67,0,0,0,26.13,8.31c5.57,1.44,11.35,2.25,17,3.33,9.8,1.87,19.73,3,29.66,4.1a452.88,452.88,0,0,0,75.46,1.94c14.79-.85,29.56-2.53,44.22-4.55a208,208,0,0,0,32.73-6.75c8.52-2.62,16.82-5.82,25.06-9.09,3.42-1.36,6.41-3.54,9.57-5.37a2.47,2.47,0,0,1,2.39-.43,1.68,1.68,0,0,1,1,1.76c-.14,8.55.21,17.13-.55,25.63-.58,6.46-5.23,11.35-11,15.23a94.19,94.19,0,0,1-21,10.15c-5.12,1.82-10.34,3.48-15.65,4.79-7.26,1.8-14.59,3.55-22,4.68-9.65,1.46-19.49,2-29.11,3.5-6.11,1-12.2,1-18.3,1.3a551.66,551.66,0,0,1-57.83-.49c-9-.56-18-1.91-27-3.13-6.76-.92-13.55-1.78-20.14-3.26-9.44-2.13-18.92-4.17-27.87-7.87-6.76-2.8-13.47-5.56-19.5-9.47-7.05-4.56-12-10.17-11.91-18.29,0-3.67,0-7.35,0-11Z" transform="translate(-83.14 -137.96)" style="fill:#407da5"/><path d="M566.89,528.79c0,6.33.27,12.67-.07,19-.39,7-5.11,12.14-11.12,16.17-7.67,5.14-16.32,8.68-25.47,11.57a278.1,278.1,0,0,1-32.92,8.09c-8.65,1.61-17.59,1.95-26.32,3.11-16.17,2.16-32.4,1.7-48.61,2a278.93,278.93,0,0,1-34.17-1.18c-9-.93-18-2.06-27-3.21-6.36-.81-12.61-2-18.79-3.31a200,200,0,0,1-20.12-5.48A112.59,112.59,0,0,1,303.61,568c-8.23-4.34-16.62-9.14-17.62-18.36-1-9-.41-18.09-.44-27.14,0-1,.74-1.62,1.89-.8,9.23,6.62,20.16,10,31.28,13.36a289.86,289.86,0,0,0,36.84,8,419.83,419.83,0,0,0,54,4.69c12.87.4,25.74.45,38.57-.15,14.17-.66,28.3-1.82,42.36-3.82q15.06-2.14,29.8-5.4a166.36,166.36,0,0,0,34.29-11.19c3.4-1.59,6.5-3.68,9.71-5.57.62-.36,1.17-.81,1.95-.46a1.69,1.69,0,0,1,1,1.74c0,2,0,3.93,0,5.89Z" transform="translate(-83.14 -137.96)" style="fill:#407da5"/><path d="M285.27,597.51q0-5.51,0-11c0-1.08-.2-2.38,1-2.92s2.56.33,3.5,1c5.41,3.77,11.73,6,18,8.38a177.17,177.17,0,0,0,27.35,8c7.2,1.53,14.48,2.73,21.81,3.77,14.17,2,28.37,3.47,42.71,4.25,13.51.73,27,.93,40.51.49,11.17-.37,22.39-.26,33.49-1.58,10.84-1.29,21.77-2.27,32.42-4.35,7.64-1.49,15.47-2.69,22.8-5.41,3.36-1.24,7-1.8,10.41-3,7.92-2.86,16-5.56,22.83-10.2,1.12-.76,2.46-1.51,3.73-1.16,1.43.4,1.22,1.86,1.2,3-.11,7.53.06,15.08-.45,22.6-.39,5.68-3.65,10.33-8.46,14.21-7,5.63-15.34,9.1-24,12.3-7.32,2.72-14.93,4.47-22.52,6.39-13.84,3.49-28.16,4.61-42.32,6.41-7.83,1-15.82.95-23.74,1.44-10.67.66-21.33,1.19-32,.4-15-1.11-30-1.55-45-3.48-10.15-1.31-20.18-3-30.08-5.15a140.48,140.48,0,0,1-30.91-10.19c-6-2.86-11.65-6-16.3-10.26a17,17,0,0,1-5.93-12.64q0-5.61,0-11.21Z" transform="translate(-83.14 -137.96)" style="fill:#407da5"/></g><path id="MOLN" d="M615.89,658.32a3.61,3.61,0,0,1-1.54-3.38c0-12.22,0-24.43,0-36.65,0-2.5,1-3.43,3.45-4.11,12-3.29,23.7-7.39,34.66-13.59a141.25,141.25,0,0,0,30.78-22.87,134.66,134.66,0,0,0,23.92-31.84,151.75,151.75,0,0,0,13.56-35.5c4.16-17,4.22-34.23,2-51.38a113.57,113.57,0,0,0-6.62-26A183.81,183.81,0,0,0,707,412.9c-4.47-8.48-10.15-16.09-16.19-23.48C683.4,380.32,674.52,372.76,665,366A135.84,135.84,0,0,0,641.69,353a142.2,142.2,0,0,0-36.06-10.53,93.62,93.62,0,0,0-14.68-.83c-8.17,0-15.61-1.65-21.44-7.86-4.15-4.42-5.54-10-6.07-15.76-.66-7.17.07-14.46-1.44-21.55-2.34-11-5.24-21.76-9.75-32.17a141.51,141.51,0,0,0-24.6-38.11,139.69,139.69,0,0,0-24.55-21.25A134.85,134.85,0,0,0,478,191.08a141.56,141.56,0,0,0-22.87-7.15c-10.95-2.54-22-3-33.17-3.06a122.69,122.69,0,0,0-32.16,4.36,135.27,135.27,0,0,0-49,24.06c-10.08,7.88-19.29,16.55-26.8,26.81a142.1,142.1,0,0,0-18.69,34.21c-5.75,15.34-8.29,31-8.79,47.36-.47,15.35-9.72,23.53-25,23.74-11.33.15-22.49,1.22-33.29,4.29a140.54,140.54,0,0,0-36.48,16,149.53,149.53,0,0,0-39.11,35c-6.38,8.21-11.24,17.44-15.7,26.92-5.54,11.77-8.49,24.24-10.46,36.83-1.63,10.41-1,21.12-.55,31.74S129.45,513,132.59,523a125.58,125.58,0,0,0,13.07,28.16,131.76,131.76,0,0,0,21.6,27.06c9.18,8.67,19,16.46,30.36,22.38,10.94,5.68,22.13,10.6,34,13.13,6.18,1.31,7.26,3.79,7.12,9.14-.28,10.54-.09,21.1-.08,31.65,0,1.46,0,2.88-1.74,4.06-4.19-.58-8.71-.59-13.16-2.1-5.34-1.82-11-2.76-16.34-4.56a179,179,0,0,1-24.09-10.09,192.07,192.07,0,0,1-21.09-12.39,176.13,176.13,0,0,1-33.92-29.69,186.31,186.31,0,0,1-18.65-24.94,199.09,199.09,0,0,1-10-18.59c-2.95-6.18-5.89-12.47-7.49-19-2.25-9.14-5.1-18.16-6.55-27.53a196.77,196.77,0,0,1-2.45-35.45,182.17,182.17,0,0,1,7.75-47,171.18,171.18,0,0,1,15.81-37.08A182.75,182.75,0,0,1,147,341.5,186.8,186.8,0,0,1,184.15,317a182,182,0,0,1,24.92-10c10.71-3.52,21.72-5.37,32.7-7.52a3.42,3.42,0,0,0,2.91-3c2.2-11.8,4.13-23.69,8.25-35A198.43,198.43,0,0,1,269,227a184.57,184.57,0,0,1,63.58-63.62,188.77,188.77,0,0,1,43.39-18.69c8.54-2.54,17.39-3.91,26.23-5.21a161.68,161.68,0,0,1,37.64-.87,181.45,181.45,0,0,1,36.64,6.9,194.8,194.8,0,0,1,26.31,9.93,176.14,176.14,0,0,1,27.11,16,180,180,0,0,1,26.79,22.91,194.16,194.16,0,0,1,24.17,31.75A177.11,177.11,0,0,1,599.47,268c2.74,8.95,4.1,18.33,5.94,27.54.45,2.25,1.36,3.49,3.72,3.86,12.1,1.91,24.12,4.32,35.66,8.46a206.66,206.66,0,0,1,34,16c11.85,6.89,22.41,15.38,32.42,24.53,9.45,8.64,17.26,18.8,24.57,29.35a168.43,168.43,0,0,1,15.77,28.12A179.25,179.25,0,0,1,759.34,532,168,168,0,0,1,752,552.9a180,180,0,0,1-15.87,28.22,182.6,182.6,0,0,1-25,29.53A174.56,174.56,0,0,1,678,635.72c-12.56,7.2-25.46,13.37-39.46,17.31C631,655.17,623.58,657.8,615.89,658.32Z" transform="translate(-83.14 -137.96)" style="fill:#407da5"/></svg>