<svg id="Lager_1" data-name="Lager 1" xmlns="http://www.w3.org/2000/svg" viewBox="0 0 684.11 574.98"><title>Safespring_Tjänster_symbol</title><g id="COMPUTE"><path d="M582.6,555.72a4,4,0,0,1,1.36,1.34,7.28,7.28,0,0,1,.07.75q0,31,0,62.06a4.7,4.7,0,0,1-2.23,4.44H270.1c-1.58-1.15-1.7-2.91-1.72-4.61-.06-5.1,0-10.21,0-15.31q0-22.65,0-45.31c0-1.27,0-2.52,1.39-3.36ZM469.34,579H294.09a6.54,6.54,0,0,0-1.44,4c.07,4.76,0,9.51,0,14.27A2.78,2.78,0,0,0,293,599c1,1.1,2.37.92,3.67.92H467.71c2-.05,2.52-.52,2.53-2.61,0-5,0-9.93,0-14.89A7,7,0,0,0,469.34,579Zm65.47,17.6a6.66,6.66,0,0,1,2,2.76c.91,2,2.88,2.85,4.52,4.08a13.86,13.86,0,0,0,9.34,2.41,16,16,0,0,0,9-3c2.86-2.17,5.11-4.87,5.9-8.14,1.14-4.74,1.21-9.52-1.85-14a16.25,16.25,0,0,0-9-6.89c-9.19-2.54-16.23,2.08-20.19,9.69a5.21,5.21,0,0,0-.42,1.58A27,27,0,0,0,534.81,596.61Z" transform="translate(-83.14 -137.96)" style="fill:#407da5"/><path d="M582.19,465.84c1.22,1,1.31,2.45,1.31,3.92q0,11.17,0,22.34,0,18.93,0,37.86v2.28a2.13,2.13,0,0,1-2.25,1.44c-.41,0-.83,0-1.24,0H270.31c-1.44-.54-1.47-1.56-1.47-2.64,0-5.31,0-10.62,0-15.93q0-22.45,0-44.9a12.37,12.37,0,0,1,.78-4.38Zm-112,25.23c-.75-1.8-2.09-1.54-3.31-1.54H297.28c-1.59,0-3.17,0-4.51,1.21v17.42a4.69,4.69,0,0,0,1.55,1.51H469.17a3.35,3.35,0,0,0,1.06-2.37C470.23,501.8,470.23,496.29,470.23,491.07Zm96.2,8.82c.12-11-8-15.76-16.49-17.15-9.3,1.64-16.45,6.4-16.44,17.42,0,9.52,7.9,16.22,16.64,16.35C557.85,516.63,567,509.27,566.43,499.89Z" transform="translate(-83.14 -137.96)" style="fill:#407da5"/><path d="M269.11,712c0-21,0-42.2,0-63.41,0-.65.06-.65.9-1.9h311.9c1.21.53,1.33,1.58,1.33,2.74,0,5.59,0,11.17,0,16.76q0,21.72,0,43.45c0,3-.23,3.27-3.32,3.27H273.5A7.35,7.35,0,0,1,269.11,712Zm22.4-22.36c1.36,1.45,3,1.36,4.55,1.36H467.33a7,7,0,0,0,2.46-.17,3.11,3.11,0,0,0,1.24-1.33V669.78c-.9-1.52-2.26-1.54-3.68-1.53H292.93a6.34,6.34,0,0,0-1.84,2C291.34,676.62,290.67,683.23,291.5,689.68ZM545,694.74c5.31,2,9.52.35,13.61-1.94a16.58,16.58,0,0,0,1.45-1.14c2.44-1.72,3.34-4.64,5.3-6.73a47.37,47.37,0,0,0,.5-5.12c0-1.91.25-4.09-.73-5.64-1.51-2.39-2.56-5.17-4.84-7-2.53-1-4.54-2.87-7.51-3.1-4.85-.38-9.35.17-13.11,3.29-2.74,2.27-4.84,5.23-5.13,9-.3,3.91-1,8,2.11,11.29a2,2,0,0,1,.36.5c1.15,2.5,3.39,3.9,5.59,5.2A19.73,19.73,0,0,1,545,694.74Z" transform="translate(-83.14 -137.96)" style="fill:#407da5"/></g><path id="MOLN" d="M615.89,658.32a3.61,3.61,0,0,1-1.54-3.38c0-12.22,0-24.43,0-36.65,0-2.5,1-3.43,3.45-4.11,12-3.29,23.7-7.39,34.66-13.59a141.25,141.25,0,0,0,30.78-22.87,134.66,134.66,0,0,0,23.92-31.84,151.75,151.75,0,0,0,13.56-35.5c4.16-17,4.22-34.23,2-51.38a113.57,113.57,0,0,0-6.62-26A183.81,183.81,0,0,0,707,412.9c-4.47-8.48-10.15-16.09-16.19-23.48C683.4,380.32,674.52,372.76,665,366A135.84,135.84,0,0,0,641.69,353a142.2,142.2,0,0,0-36.06-10.53,93.62,93.62,0,0,0-14.68-.83c-8.17,0-15.61-1.65-21.44-7.86-4.15-4.42-5.54-10-6.07-15.76-.66-7.17.07-14.46-1.44-21.55-2.34-11-5.24-21.76-9.75-32.17a141.51,141.51,0,0,0-24.6-38.11,139.69,139.69,0,0,0-24.55-21.25A134.85,134.85,0,0,0,478,191.08a141.56,141.56,0,0,0-22.87-7.15c-10.95-2.54-22-3-33.17-3.06a122.69,122.69,0,0,0-32.16,4.36,135.27,135.27,0,0,0-49,24.06c-10.08,7.88-19.29,16.55-26.8,26.81a142.1,142.1,0,0,0-18.69,34.21c-5.75,15.34-8.29,31-8.79,47.36-.47,15.35-9.72,23.53-25,23.74-11.33.15-22.49,1.22-33.29,4.29a140.54,140.54,0,0,0-36.48,16,149.53,149.53,0,0,0-39.11,35c-6.38,8.21-11.24,17.44-15.7,26.92-5.54,11.77-8.49,24.24-10.46,36.83-1.63,10.41-1,21.12-.55,31.74S129.45,513,132.59,523a125.58,125.58,0,0,0,13.07,28.16,131.76,131.76,0,0,0,21.6,27.06c9.18,8.67,19,16.46,30.36,22.38,10.94,5.68,22.13,10.6,34,13.13,6.18,1.31,7.26,3.79,7.12,9.14-.28,10.54-.09,21.1-.08,31.65,0,1.46,0,2.88-1.74,4.06-4.19-.58-8.71-.59-13.16-2.1-5.34-1.82-11-2.76-16.34-4.56a179,179,0,0,1-24.09-10.09,192.07,192.07,0,0,1-21.09-12.39,176.13,176.13,0,0,1-33.92-29.69,186.31,186.31,0,0,1-18.65-24.94,199.09,199.09,0,0,1-10-18.59c-2.95-6.18-5.89-12.47-7.49-19-2.25-9.14-5.1-18.16-6.55-27.53a196.77,196.77,0,0,1-2.45-35.45,182.17,182.17,0,0,1,7.75-47,171.18,171.18,0,0,1,15.81-37.08A182.75,182.75,0,0,1,147,341.5,186.8,186.8,0,0,1,184.15,317a182,182,0,0,1,24.92-10c10.71-3.52,21.72-5.37,32.7-7.52a3.42,3.42,0,0,0,2.91-3c2.2-11.8,4.13-23.69,8.25-35A198.43,198.43,0,0,1,269,227a184.57,184.57,0,0,1,63.58-63.62,188.77,188.77,0,0,1,43.39-18.69c8.54-2.54,17.39-3.91,26.23-5.21a161.68,161.68,0,0,1,37.64-.87,181.45,181.45,0,0,1,36.64,6.9,194.8,194.8,0,0,1,26.31,9.93,176.14,176.14,0,0,1,27.11,16,180,180,0,0,1,26.79,22.91,194.16,194.16,0,0,1,24.17,31.75A177.11,177.11,0,0,1,599.47,268c2.74,8.95,4.1,18.33,5.94,27.54.45,2.25,1.36,3.49,3.72,3.86,12.1,1.91,24.12,4.32,35.66,8.46a206.66,206.66,0,0,1,34,16c11.85,6.89,22.41,15.38,32.42,24.53,9.45,8.64,17.26,18.8,24.57,29.35a168.43,168.43,0,0,1,15.77,28.12A179.25,179.25,0,0,1,759.34,532,168,168,0,0,1,752,552.9a180,180,0,0,1-15.87,28.22,182.6,182.6,0,0,1-25,29.53A174.56,174.56,0,0,1,678,635.72c-12.56,7.2-25.46,13.37-39.46,17.31C631,655.17,623.58,657.8,615.89,658.32Z" transform="translate(-83.14 -137.96)" style="fill:#407da5"/></svg>