<?xml version="1.0" standalone="no"?>
<!DOCTYPE svg PUBLIC "-//W3C//DTD SVG 20010904//EN"
 "http://www.w3.org/TR/2001/REC-SVG-20010904/DTD/svg10.dtd">
<svg version="1.0" xmlns="http://www.w3.org/2000/svg"
 width="1200.000000pt" height="1200.000000pt" viewBox="0 0 1200.000000 1200.000000"
 preserveAspectRatio="xMidYMid meet">
<metadata>
Created by potrace 1.11, written by Peter Selinger 2001-2013
</metadata>
<g transform="translate(0.000000,1200.000000) scale(0.100000,-0.100000)"
fill="#000000" stroke="none">
<path d="M5818 9795 c-2 -1 -37 -5 -78 -9 -41 -3 -86 -8 -100 -10 -14 -3 -41
-7 -60 -10 -19 -3 -47 -8 -62 -11 -16 -3 -38 -7 -50 -9 -48 -8 -196 -48 -273
-72 -253 -81 -541 -228 -745 -378 -380 -282 -686 -661 -860 -1066 -18 -41 -38
-88 -45 -105 -30 -67 -97 -288 -112 -364 -2 -14 -6 -27 -8 -30 -4 -7 -34 -182
-38 -226 -5 -46 -12 -52 -74 -59 -72 -8 -106 -13 -163 -26 -25 -6 -54 -12 -65
-14 -93 -19 -232 -61 -360 -111 -672 -259 -1208 -782 -1487 -1450 -68 -162
-131 -370 -153 -505 -3 -19 -8 -42 -10 -50 -2 -8 -7 -39 -10 -69 -3 -30 -8
-57 -10 -60 -6 -11 -18 -221 -18 -321 0 -97 10 -267 19 -330 31 -215 72 -388
124 -531 17 -46 32 -88 34 -94 1 -5 10 -27 19 -49 9 -21 17 -40 17 -43 0 -11
118 -238 163 -313 370 -616 981 -1058 1682 -1215 286 -64 252 -63 1745 -61
l1355 2 95 22 c298 68 535 195 737 393 228 224 388 535 430 837 10 75 10 362
0 432 -33 217 -131 457 -264 643 -133 185 -377 389 -563 469 -141 62 -223 88
-345 114 -74 16 -153 23 -290 29 -143 6 -201 17 -305 57 -285 112 -501 383
-537 678 -41 330 92 633 365 828 85 61 252 126 357 139 123 16 264 5 370 -27
94 -29 237 -102 275 -140 3 -3 35 -31 72 -63 91 -78 144 -101 234 -100 169 2
298 126 303 291 3 102 -25 168 -105 247 -217 214 -512 359 -821 404 -67 10
-378 8 -419 -2 -12 -3 -39 -8 -60 -11 -109 -18 -331 -96 -406 -143 -21 -12
-40 -23 -43 -23 -13 0 -147 -93 -205 -141 -179 -148 -297 -300 -395 -504 -111
-233 -146 -399 -140 -665 4 -185 6 -207 41 -338 107 -411 386 -758 761 -945
129 -64 277 -115 388 -133 21 -3 47 -8 59 -10 23 -4 126 -12 251 -18 359 -19
659 -244 776 -583 11 -32 22 -71 25 -88 3 -16 9 -46 13 -65 11 -53 5 -216 -12
-296 -45 -212 -181 -412 -363 -533 -69 -46 -194 -105 -244 -115 -14 -2 -50
-10 -80 -17 -43 -10 -331 -13 -1300 -13 -1133 0 -1386 4 -1460 19 -13 2 -42 7
-65 11 -22 3 -67 12 -100 20 -33 8 -71 17 -83 20 -136 29 -435 166 -589 270
-338 229 -571 512 -746 905 -55 122 -119 360 -142 529 -13 90 -12 376 1 485
85 692 514 1286 1148 1589 120 57 302 119 426 145 144 30 212 39 379 46 93 4
137 11 169 25 93 42 158 115 180 205 6 22 13 99 16 170 3 72 8 141 11 155 3
14 7 44 10 68 3 24 14 83 25 132 129 581 534 1096 1068 1360 234 116 467 182
722 207 128 12 380 6 471 -12 22 -5 68 -13 113 -21 43 -8 215 -55 266 -73 392
-139 743 -407 984 -751 73 -103 181 -297 210 -375 8 -22 24 -65 36 -95 41
-109 70 -224 105 -425 3 -16 7 -84 10 -150 3 -66 8 -138 11 -159 15 -116 112
-222 229 -250 17 -4 79 -10 140 -12 60 -2 123 -6 140 -8 16 -3 55 -8 85 -11
30 -3 75 -11 100 -16 25 -6 54 -12 64 -15 50 -10 201 -57 275 -85 134 -51 356
-171 446 -241 6 -5 39 -31 75 -59 87 -67 237 -214 311 -305 241 -295 406 -688
446 -1059 14 -133 8 -424 -11 -520 -2 -11 -7 -40 -11 -65 -4 -25 -13 -66 -20
-93 -8 -26 -12 -47 -10 -47 11 0 -92 -276 -138 -370 -197 -405 -514 -727 -912
-927 -156 -78 -373 -154 -510 -179 -124 -22 -215 -32 -363 -38 -137 -7 -207
-36 -271 -113 -126 -152 -73 -386 107 -474 43 -21 60 -24 187 -23 124 0 229 7
305 19 14 2 45 7 70 10 112 15 339 76 490 132 871 323 1526 1114 1675 2023 22
136 24 153 31 246 73 962 -387 1887 -1201 2415 -119 78 -313 179 -420 220 -27
11 -59 24 -70 29 -84 38 -295 97 -450 126 -49 9 -97 18 -105 19 -8 2 -30 4
-48 4 -37 1 -46 16 -55 96 -20 178 -84 412 -171 623 -293 716 -907 1279 -1649
1511 -79 25 -108 33 -162 47 -18 4 -64 14 -92 19 -16 3 -39 8 -53 10 -64 13
-78 15 -120 20 -146 18 -222 22 -372 22 -92 0 -169 -1 -170 -2z"/>
</g>
</svg>
