<svg xmlns="http://www.w3.org/2000/svg" width="306.697" height="306.697" viewBox="0 0 306.697 306.697"><g id="eu" transform="translate(-205 -590)"><circle id="flag" cx="153.348" cy="153.348" r="153.348" fill="#0b3693" transform="translate(205 590)"/><g id="stars" transform="translate(2.934 13.82)"><path id="Polygon_20" fill="#f8cc46" d="m30.79 0 7.08 22.63 23.7-.26L42.26 36.1l7.57 22.47L30.8 44.42 11.77 58.56l7.57-22.46L0 22.37l23.7.26Z" transform="translate(324.582 611.258)"/><path id="Polygon_22" fill="#f8cc46" d="m30.79 0 7.08 22.63 23.7-.26L42.26 36.1l7.57 22.47L30.8 44.42 11.77 58.56l7.57-22.46L0 22.37l23.7.26Z" transform="translate(402.163 654.788)"/><path id="Polygon_23" fill="#f8cc46" d="m30.79 0 7.08 22.63 23.7-.26L42.26 36.1l7.57 22.47L30.8 44.42 11.77 58.56l7.57-22.46L0 22.37l23.7.26Z" transform="translate(247 654.788)"/><path id="Polygon_25" fill="#f8cc46" d="m30.79 0 7.08 22.63 23.7-.26L42.26 36.1l7.57 22.47L30.8 44.42 11.77 58.56l7.57-22.46L0 22.37l23.7.26Z" transform="translate(247 743.924)"/><path id="Polygon_27" fill="#f8cc46" d="m30.79 0 7.08 22.63 23.7-.26L42.26 36.1l7.57 22.47L30.8 44.42 11.77 58.56l7.57-22.46L0 22.37l23.7.26Z" transform="translate(324.582 789.696)"/><path id="Polygon_29" fill="#f8cc46" d="m30.79 0 7.08 22.63 23.7-.26L42.26 36.1l7.57 22.47L30.8 44.42 11.77 58.56l7.57-22.46L0 22.37l23.7.26Z" transform="translate(402.163 743.924)"/></g></g></svg>