<svg xmlns="http://www.w3.org/2000/svg" width="306.697" height="306.697" viewBox="0 0 306.697 306.697">
  <g id="eu" transform="translate(-205 -590)">
    <circle id="flag" cx="153.348" cy="153.348" r="153.348" transform="translate(205 590)" fill="#0b3693"/>
    <g id="stars" transform="translate(2.934 13.82)">
      <path id="Polygon_20" data-name="Polygon 20" d="M30.789,0l7.082,22.627,23.708-.257L42.247,36.1l7.571,22.468L30.789,44.421,11.76,58.564,19.331,36.1,0,22.37l23.708.257Z" transform="translate(324.582 611.258)" fill="#f8cc46"/>
      <path id="Polygon_22" data-name="Polygon 22" d="M30.789,0l7.082,22.627,23.708-.257L42.247,36.1l7.571,22.468L30.789,44.421,11.76,58.564,19.331,36.1,0,22.37l23.708.257Z" transform="translate(402.163 654.788)" fill="#f8cc46"/>
      <path id="Polygon_23" data-name="Polygon 23" d="M30.789,0l7.082,22.627,23.708-.257L42.247,36.1l7.571,22.468L30.789,44.421,11.76,58.564,19.331,36.1,0,22.37l23.708.257Z" transform="translate(247 654.788)" fill="#f8cc46"/>
      <path id="Polygon_25" data-name="Polygon 25" d="M30.789,0l7.082,22.627,23.708-.257L42.247,36.1l7.571,22.468L30.789,44.421,11.76,58.564,19.331,36.1,0,22.37l23.708.257Z" transform="translate(247 743.924)" fill="#f8cc46"/>
      <path id="Polygon_27" data-name="Polygon 27" d="M30.789,0l7.082,22.627,23.708-.257L42.247,36.1l7.571,22.468L30.789,44.421,11.76,58.564,19.331,36.1,0,22.37l23.708.257Z" transform="translate(324.582 789.696)" fill="#f8cc46"/>
      <path id="Polygon_29" data-name="Polygon 29" d="M30.789,0l7.082,22.627,23.708-.257L42.247,36.1l7.571,22.468L30.789,44.421,11.76,58.564,19.331,36.1,0,22.37l23.708.257Z" transform="translate(402.163 743.924)" fill="#f8cc46"/>
    </g>
  </g>
</svg>
