<svg xmlns="http://www.w3.org/2000/svg" viewBox="0 0 640 512"><!--! Font Awesome Pro 6.3.0 by @fontawesome - https://fontawesome.com License - https://fontawesome.com/license (Commercial License) Copyright 2023 Fonticons, Inc.--><path d="m69.3 4 48 32c11 7.4 14 22.3 6.7 33.3s-22.3 14-33.3 6.7l-48-32c-11-7.4-14-22.3-6.7-33.3S58.3-3.3 69.3 4m528 40-48 32c-11 7.4-25.9 4.4-33.3-6.7s-4.4-25.9 6.7-33.3l48-32c11-7.4 25.9-4.4 33.3 6.7s4.4 25.9-6.7 33.3M24 160h64c13.3 0 24 10.7 24 24s-10.7 24-24 24H24c-13.3 0-24-10.7-24-24s10.7-24 24-24m528 0h64c13.3 0 24 10.7 24 24s-10.7 24-24 24h-64c-13.3 0-24-10.7-24-24s10.7-24 24-24M117.3 332l-48 32c-11 7.4-25.9 4.4-33.3-6.7s-4.4-25.9 6.7-33.3l48-32c11-7.4 25.9-4.4 33.3 6.7s4.4 25.9-6.7 33.3m432-39.9 48 32c11 7.4 14 22.3 6.7 33.3s-22.3 14-33.3 6.7l-48-32c-11-7.4-14-22.3-6.7-33.3s22.3-14 33.3-6.7m-100.1 5.7c-19.8 27.1-39.7 54.4-49.2 86.2H240c-9.6-31.9-29.5-59.1-49.2-86.2-5.2-7.1-10.4-14.2-15.4-21.4A175.4 175.4 0 0 1 144 176C144 78.8 222.8 0 320 0s176 78.8 176 176c0 37.3-11.6 71.9-31.4 100.3-5 7.2-10.2 14.3-15.4 21.4zM400 432c0 44.2-35.8 80-80 80s-80-35.8-80-80v-16h160zM320 96c8.8 0 16-7.2 16-16s-7.2-16-16-16c-61.9 0-112 50.1-112 112 0 8.8 7.2 16 16 16s16-7.2 16-16c0-44.2 35.8-80 80-80"/></svg>