<svg xmlns="http://www.w3.org/2000/svg" xmlns:xlink="http://www.w3.org/1999/xlink" xml:space="preserve" id="Layer_1" x="0px" y="0px" version="1.1" viewBox="0 0 512 512"><circle cx="256" cy="256" r="256" fill="#F0F0F0"/><path fill="#D80027" d="M8.82 322.78a256.2 256.2 0 0 0 91.35 136.33V322.77zm224.92 188.25q11.01.96 22.26.97c118.28 0 217.8-80.22 247.18-189.22H233.74zm269.44-321.81C473.81 80.22 374.28 0 256 0q-11.25.01-22.26.97v188.25zM100.17 52.9A256.2 256.2 0 0 0 8.82 189.22h91.35z"/><path fill="#0052B4" d="M509.83 222.6H200.35V6.1a254 254 0 0 0-66.79 25.04V222.6H2.16a258 258 0 0 0 0 66.78h131.4v191.48a254 254 0 0 0 66.79 25.04V289.4h309.48a259 259 0 0 0 0-66.78"/></svg>