<svg xmlns="http://www.w3.org/2000/svg" xmlns:xlink="http://www.w3.org/1999/xlink" width="430" height="300" viewBox="0 0 430 300">
  <defs>
    <filter id="Rectangle_327" x="0" y="0" width="430" height="300" filterUnits="userSpaceOnUse">
      <feOffset dy="3" input="SourceAlpha"/>
      <feGaussianBlur stdDeviation="3" result="blur"/>
      <feFlood flood-opacity="0.161"/>
      <feComposite operator="in" in2="blur"/>
      <feComposite in="SourceGraphic"/>
    </filter>
  </defs>
  <g id="safespring-compute-central-blocklagring" transform="translate(-40 -377)">
    <g transform="matrix(1, 0, 0, 1, 40, 377)" filter="url(#Rectangle_327)">
      <rect id="Rectangle_327-2" data-name="Rectangle 327" width="412" height="282" rx="7" transform="translate(9 6)" fill="#fff"/>
    </g>
    <rect id="Rectangle_328" data-name="Rectangle 328" width="336" height="114" rx="15" transform="translate(87 514)" fill="#e7eff3"/>
    <rect id="Rectangle_329" data-name="Rectangle 329" width="160" height="104" rx="12" transform="translate(93 519)" fill="rgba(65,125,165,0.29)"/>
    <g id="Group_592" data-name="Group 592" transform="translate(0 -1)">
      <path id="rabbit-running-solid" d="M55.995,32.257l-.115-.109a.975.975,0,0,0-.932-.245.955.955,0,0,0-.682.677l-.042.151a7.846,7.846,0,0,0-.286,1.854,9.23,9.23,0,0,1,2.776,4.1,5.741,5.741,0,0,0-1.3-.151h-.089a7.964,7.964,0,0,0-5.4-4.651l-.177-.047a1.3,1.3,0,0,0-.964.135A1.334,1.334,0,0,0,48.2,35.6a8.6,8.6,0,0,0,4.24,4.672,3.384,3.384,0,0,0-.4,1.135l-5.479-3.125a10.686,10.686,0,0,0-5.286-1.4,4.8,4.8,0,0,0-4.109,2.312,2.918,2.918,0,1,0-2.255,4.771,2.882,2.882,0,0,0,1.594-.474,5.17,5.17,0,0,0,1.479,2.391L45.4,52.669a3.332,3.332,0,0,0,2.25.875h6.021a1.667,1.667,0,0,0,0-3.333h-5V47.945a5,5,0,0,0-3.625-4.807l-1.6-.458a.834.834,0,1,1,.458-1.6l1.6.458a6.661,6.661,0,0,1,4.833,6.411v.818l2.917-1.687.333-.193h5.276a3.139,3.139,0,0,0,1.984-5.573l-1.8-1.469a5.724,5.724,0,0,0-.755-.521A8.015,8.015,0,0,0,56,32.262Zm-16.589,19.9a1.668,1.668,0,1,0,1.849,2.776l2.4-1.6L41.12,51.012l-1.714,1.146Zm19.26-9.443a.833.833,0,1,1-.833-.833A.836.836,0,0,1,58.667,42.71Z" transform="translate(126 509.13)" fill="#fff"/>
      <path id="Path_5559" data-name="Path 5559" d="M3.96-6.547H9.678v2.216H3.96ZM4.171,0H1.41V-11.9H10.4v2.216H4.171Zm6.05,0,5.3-11.9h2.723L23.563,0H20.687L16.322-10.5h1.092L13.049,0Zm2.663-2.546.722-2.09h6.131l.733,2.09ZM28.728.2a9.761,9.761,0,0,1-2.736-.381,6.46,6.46,0,0,1-2.11-.987l.933-2.083a6.691,6.691,0,0,0,1.808.893,6.687,6.687,0,0,0,2.119.349,4.377,4.377,0,0,0,1.325-.164,1.54,1.54,0,0,0,.736-.452,1.009,1.009,0,0,0,.235-.656.905.905,0,0,0-.378-.761,3.066,3.066,0,0,0-.99-.463q-.612-.179-1.35-.339t-1.479-.393a6.031,6.031,0,0,1-1.353-.608,2.96,2.96,0,0,1-.99-.993,2.965,2.965,0,0,1-.377-1.569,3.307,3.307,0,0,1,.549-1.85A3.772,3.772,0,0,1,26.332-11.6a6.838,6.838,0,0,1,2.807-.5,9.3,9.3,0,0,1,2.206.265,6.559,6.559,0,0,1,1.923.782L32.41-8.966a6.97,6.97,0,0,0-1.662-.7,6.265,6.265,0,0,0-1.632-.226,3.881,3.881,0,0,0-1.308.184,1.542,1.542,0,0,0-.731.487,1.111,1.111,0,0,0-.227.682.89.89,0,0,0,.378.751,2.992,2.992,0,0,0,.99.451q.612.17,1.353.332t1.479.389a6.031,6.031,0,0,1,1.35.6,2.925,2.925,0,0,1,.99.984,2.91,2.91,0,0,1,.378,1.549,3.257,3.257,0,0,1-.554,1.833,3.829,3.829,0,0,1-1.67,1.344A6.829,6.829,0,0,1,28.728.2ZM37.946,0V-9.651h-3.8V-11.9H44.51v2.249h-3.8V0Z" transform="translate(151 585)" fill="#fff"/>
      <path id="Path_5560" data-name="Path 5560" d="M6.336.052A2.994,2.994,0,0,1,4.827-.326,2.776,2.776,0,0,1,3.779-1.372a2.993,2.993,0,0,1-.385-1.522A2.96,2.96,0,0,1,3.78-4.418,2.808,2.808,0,0,1,4.827-5.455a2.987,2.987,0,0,1,1.509-.378,3.022,3.022,0,0,1,1.515.377A2.751,2.751,0,0,1,8.9-4.419a3,3,0,0,1,.38,1.526A3.025,3.025,0,0,1,8.9-1.371,2.728,2.728,0,0,1,7.85-.326,3.025,3.025,0,0,1,6.336.052Zm0-.689A2.171,2.171,0,0,0,7.443-.919a2.013,2.013,0,0,0,.767-.793,2.419,2.419,0,0,0,.28-1.181,2.408,2.408,0,0,0-.28-1.185,2.005,2.005,0,0,0-.767-.785,2.179,2.179,0,0,0-1.1-.279,2.166,2.166,0,0,0-1.1.279,2.049,2.049,0,0,0-.77.785,2.37,2.37,0,0,0-.286,1.185,2.381,2.381,0,0,0,.286,1.181,2.057,2.057,0,0,0,.77.793A2.145,2.145,0,0,0,6.336-.637Zm7.518.689A2.692,2.692,0,0,1,12.5-.292a2.479,2.479,0,0,1-.964-1,3.3,3.3,0,0,1-.358-1.594,3.353,3.353,0,0,1,.351-1.6,2.443,2.443,0,0,1,.958-1,2.716,2.716,0,0,1,1.363-.344,2.941,2.941,0,0,1,1.483.372,2.7,2.7,0,0,1,1.027,1.033,3.066,3.066,0,0,1,.375,1.54,3.056,3.056,0,0,1-.375,1.535A2.7,2.7,0,0,1,15.337-.32,2.941,2.941,0,0,1,13.854.052ZM10.875,2.134V-5.78h.75V-4.04l-.079,1.163.11,1.163V2.134ZM13.8-.637a2.173,2.173,0,0,0,1.1-.279,2.017,2.017,0,0,0,.77-.791,2.4,2.4,0,0,0,.283-1.18,2.388,2.388,0,0,0-.283-1.186,2.044,2.044,0,0,0-.77-.788,2.158,2.158,0,0,0-1.1-.282,2.158,2.158,0,0,0-1.1.282,2.044,2.044,0,0,0-.77.788,2.388,2.388,0,0,0-.283,1.186,2.4,2.4,0,0,0,.283,1.18,2.017,2.017,0,0,0,.77.791A2.173,2.173,0,0,0,13.8-.637Zm6.364.689a1.692,1.692,0,0,1-1.254-.441,1.684,1.684,0,0,1-.439-1.243V-7.048h.781v5.374a1.112,1.112,0,0,0,.257.787.964.964,0,0,0,.741.275,1.268,1.268,0,0,0,.859-.3l.272.559a1.411,1.411,0,0,1-.55.3A2.291,2.291,0,0,1,20.161.052ZM17.437-5.129V-5.78h3.569v.652ZM22.8,0V-5.775h.781V0Zm.4-7.051a.553.553,0,0,1-.407-.165.54.54,0,0,1-.165-.4A.522.522,0,0,1,22.785-8a.563.563,0,0,1,.407-.159.574.574,0,0,1,.407.154.5.5,0,0,1,.165.385.563.563,0,0,1-.16.407A.548.548,0,0,1,23.192-7.051Zm9.784,1.219A2.612,2.612,0,0,1,34.2-5.56a1.906,1.906,0,0,1,.814.822,2.932,2.932,0,0,1,.291,1.382V0h-.781V-3.274a1.973,1.973,0,0,0-.435-1.388,1.591,1.591,0,0,0-1.227-.469,2.041,2.041,0,0,0-1.027.25,1.676,1.676,0,0,0-.675.716,2.474,2.474,0,0,0-.237,1.13V0h-.781V-3.274a1.973,1.973,0,0,0-.435-1.388,1.591,1.591,0,0,0-1.227-.469,2.041,2.041,0,0,0-1.027.25,1.677,1.677,0,0,0-.675.716,2.473,2.473,0,0,0-.237,1.13V0H25.76V-5.78h.75v1.569l-.122-.276a2.08,2.08,0,0,1,.85-.988,2.607,2.607,0,0,1,1.387-.357,2.419,2.419,0,0,1,1.443.424,1.976,1.976,0,0,1,.768,1.273l-.3-.117A2.244,2.244,0,0,1,31.427-5.4,2.7,2.7,0,0,1,32.976-5.832Zm6.9,5.884A3.226,3.226,0,0,1,38.3-.326a2.732,2.732,0,0,1-1.069-1.045,2.993,2.993,0,0,1-.384-1.522,3.094,3.094,0,0,1,.366-1.522,2.7,2.7,0,0,1,1.009-1.04,2.815,2.815,0,0,1,1.454-.378,2.811,2.811,0,0,1,1.444.37,2.63,2.63,0,0,1,1,1.033,3.157,3.157,0,0,1,.362,1.538q0,.048,0,.112t-.009.123H37.438v-.583h4.61l-.312.234a2.216,2.216,0,0,0-.263-1.111,2.007,2.007,0,0,0-.733-.767,2.031,2.031,0,0,0-1.068-.279,2.051,2.051,0,0,0-1.068.279,1.95,1.95,0,0,0-.733.77,2.345,2.345,0,0,0-.264,1.127v.131A2.255,2.255,0,0,0,37.9-1.7a2.045,2.045,0,0,0,.81.784A2.457,2.457,0,0,0,39.9-.637a2.559,2.559,0,0,0,.99-.189,2.005,2.005,0,0,0,.778-.573l.441.509a2.473,2.473,0,0,1-.961.7A3.259,3.259,0,0,1,39.881.052ZM44.071,0V-5.78h.75V-4.2l-.078-.276a1.93,1.93,0,0,1,.815-1,2.675,2.675,0,0,1,1.422-.35v.762l-.093-.009q-.045,0-.091,0a1.855,1.855,0,0,0-1.424.555,2.219,2.219,0,0,0-.519,1.576V0Zm7.511,0V-1.272l-.031-.218V-3.618a1.494,1.494,0,0,0-.415-1.136,1.716,1.716,0,0,0-1.227-.395,3.054,3.054,0,0,0-1.066.186,2.742,2.742,0,0,0-.858.494l-.347-.578a3.148,3.148,0,0,1,1.056-.579,4.055,4.055,0,0,1,1.293-.206,2.479,2.479,0,0,1,1.737.559,2.179,2.179,0,0,1,.61,1.688V0ZM49.589.052a2.768,2.768,0,0,1-1.126-.21,1.66,1.66,0,0,1-.731-.592,1.535,1.535,0,0,1-.255-.873,1.615,1.615,0,0,1,.214-.822,1.51,1.51,0,0,1,.7-.6,3.177,3.177,0,0,1,1.317-.227H51.7v.583H49.739a1.737,1.737,0,0,0-1.165.3.963.963,0,0,0-.322.738.951.951,0,0,0,.386.8,1.724,1.724,0,0,0,1.071.3,2.087,2.087,0,0,0,1.143-.3,1.769,1.769,0,0,0,.7-.87l.172.536a1.806,1.806,0,0,1-.762.913A2.562,2.562,0,0,1,49.589.052Zm6.688,0a1.692,1.692,0,0,1-1.254-.441,1.684,1.684,0,0,1-.439-1.243V-7.048h.781v5.374a1.112,1.112,0,0,0,.257.787.964.964,0,0,0,.741.275,1.268,1.268,0,0,0,.859-.3l.272.559a1.411,1.411,0,0,1-.55.3A2.291,2.291,0,0,1,56.277.052ZM53.553-5.129V-5.78h3.569v.652ZM64.78.052a2.692,2.692,0,0,1-1.35-.344,2.479,2.479,0,0,1-.964-1,3.3,3.3,0,0,1-.358-1.594,3.353,3.353,0,0,1,.351-1.6,2.443,2.443,0,0,1,.958-1,2.716,2.716,0,0,1,1.363-.344,2.941,2.941,0,0,1,1.483.372,2.7,2.7,0,0,1,1.027,1.033,3.066,3.066,0,0,1,.375,1.54,3.056,3.056,0,0,1-.375,1.535A2.7,2.7,0,0,1,66.263-.32,2.941,2.941,0,0,1,64.78.052ZM61.8,2.134V-5.78h.75V-4.04l-.079,1.163.11,1.163V2.134ZM64.724-.637a2.173,2.173,0,0,0,1.1-.279,2.017,2.017,0,0,0,.77-.791,2.4,2.4,0,0,0,.283-1.18A2.388,2.388,0,0,0,66.6-4.074a2.044,2.044,0,0,0-.77-.788,2.158,2.158,0,0,0-1.1-.282,2.158,2.158,0,0,0-1.1.282,2.044,2.044,0,0,0-.77.788,2.388,2.388,0,0,0-.283,1.186,2.4,2.4,0,0,0,.283,1.18,2.017,2.017,0,0,0,.77.791A2.173,2.173,0,0,0,64.724-.637ZM72.843,0V-1.276l-.033-.209V-3.619A1.5,1.5,0,0,0,72.4-4.752a1.707,1.707,0,0,0-1.226-.4,3.053,3.053,0,0,0-1.067.187,2.718,2.718,0,0,0-.858.495l-.352-.583a3.121,3.121,0,0,1,1.056-.578,4.111,4.111,0,0,1,1.3-.2,2.484,2.484,0,0,1,1.732.556,2.172,2.172,0,0,1,.611,1.688V0ZM70.852.055A2.737,2.737,0,0,1,69.725-.16a1.674,1.674,0,0,1-.731-.594,1.54,1.54,0,0,1-.253-.875,1.6,1.6,0,0,1,.215-.819,1.51,1.51,0,0,1,.7-.594,3.185,3.185,0,0,1,1.314-.226h1.991v.583H71a1.732,1.732,0,0,0-1.16.3.959.959,0,0,0-.325.737.95.95,0,0,0,.385.792,1.729,1.729,0,0,0,1.078.3,2.086,2.086,0,0,0,1.139-.3,1.737,1.737,0,0,0,.7-.875l.176.539a1.835,1.835,0,0,1-.764.913A2.537,2.537,0,0,1,70.852.055Zm.407-6.6a1.128,1.128,0,0,1-.589-.154,1.139,1.139,0,0,1-.407-.407,1.088,1.088,0,0,1-.148-.561,1.116,1.116,0,0,1,.154-.572,1.2,1.2,0,0,1,.412-.424,1.078,1.078,0,0,1,.577-.159,1.1,1.1,0,0,1,.589.159,1.2,1.2,0,0,1,.412.424,1.116,1.116,0,0,1,.154.572,1.058,1.058,0,0,1-.154.561,1.185,1.185,0,0,1-.412.407A1.128,1.128,0,0,1,71.259-6.545Zm0-.385a.719.719,0,0,0,.539-.215.721.721,0,0,0,.209-.523.772.772,0,0,0-.209-.544.7.7,0,0,0-.539-.226.7.7,0,0,0-.528.22.767.767,0,0,0-.209.55.726.726,0,0,0,.2.528A.711.711,0,0,0,71.259-6.93ZM81.581.052a2.692,2.692,0,0,1-1.35-.344,2.479,2.479,0,0,1-.964-1,3.3,3.3,0,0,1-.357-1.594,3.353,3.353,0,0,1,.351-1.6,2.443,2.443,0,0,1,.958-1,2.716,2.716,0,0,1,1.363-.344,2.941,2.941,0,0,1,1.483.372,2.7,2.7,0,0,1,1.027,1.033,3.066,3.066,0,0,1,.375,1.54,3.056,3.056,0,0,1-.375,1.535A2.7,2.7,0,0,1,83.063-.32,2.941,2.941,0,0,1,81.581.052ZM78.6,2.134V-5.78h.75V-4.04l-.079,1.163.11,1.163V2.134ZM81.524-.637a2.173,2.173,0,0,0,1.1-.279,2.017,2.017,0,0,0,.77-.791,2.4,2.4,0,0,0,.283-1.18A2.388,2.388,0,0,0,83.4-4.074a2.044,2.044,0,0,0-.77-.788,2.158,2.158,0,0,0-1.1-.282,2.158,2.158,0,0,0-1.1.282,2.044,2.044,0,0,0-.77.788,2.388,2.388,0,0,0-.283,1.186,2.4,2.4,0,0,0,.283,1.18,2.017,2.017,0,0,0,.77.791A2.173,2.173,0,0,0,81.524-.637ZM86.064,0V-5.78h.75V-4.2l-.078-.276a1.93,1.93,0,0,1,.815-1,2.675,2.675,0,0,1,1.422-.35v.762l-.093-.009q-.045,0-.091,0a1.855,1.855,0,0,0-1.424.555,2.22,2.22,0,0,0-.519,1.576V0ZM92.79.052a3.226,3.226,0,0,1-1.585-.378,2.732,2.732,0,0,1-1.069-1.045,2.993,2.993,0,0,1-.384-1.522,3.094,3.094,0,0,1,.366-1.522,2.7,2.7,0,0,1,1.009-1.04,2.815,2.815,0,0,1,1.454-.378,2.811,2.811,0,0,1,1.444.37,2.63,2.63,0,0,1,1,1.033,3.157,3.157,0,0,1,.362,1.538q0,.048,0,.112t-.009.123H90.347v-.583h4.61l-.312.234a2.216,2.216,0,0,0-.263-1.111,2.007,2.007,0,0,0-.733-.767,2.031,2.031,0,0,0-1.068-.279,2.051,2.051,0,0,0-1.068.279,1.95,1.95,0,0,0-.733.77,2.345,2.345,0,0,0-.264,1.127v.131A2.255,2.255,0,0,0,90.807-1.7a2.045,2.045,0,0,0,.81.784,2.457,2.457,0,0,0,1.191.282,2.559,2.559,0,0,0,.99-.189,2.005,2.005,0,0,0,.778-.573l.441.509a2.473,2.473,0,0,1-.961.7A3.259,3.259,0,0,1,92.79.052Zm5.742,0a4.429,4.429,0,0,1-1.357-.2,2.885,2.885,0,0,1-1-.508l.344-.619a3.166,3.166,0,0,0,.9.463,3.5,3.5,0,0,0,1.157.191,2.109,2.109,0,0,0,1.19-.258.8.8,0,0,0,.365-.689.635.635,0,0,0-.2-.5,1.354,1.354,0,0,0-.537-.276,6.367,6.367,0,0,0-.736-.16q-.4-.065-.8-.156a3.189,3.189,0,0,1-.736-.26,1.406,1.406,0,0,1-.537-.465,1.372,1.372,0,0,1-.2-.788,1.424,1.424,0,0,1,.268-.852,1.779,1.779,0,0,1,.779-.589,3.209,3.209,0,0,1,1.246-.215,4.435,4.435,0,0,1,1.123.147,2.824,2.824,0,0,1,.92.4l-.344.618a2.521,2.521,0,0,0-.818-.375,3.566,3.566,0,0,0-.887-.113,1.938,1.938,0,0,0-1.14.27.813.813,0,0,0-.367.679.682.682,0,0,0,.2.525,1.376,1.376,0,0,0,.537.292,5.321,5.321,0,0,0,.736.168q.4.065.8.156a3.366,3.366,0,0,1,.734.254,1.388,1.388,0,0,1,.537.452,1.312,1.312,0,0,1,.2.769,1.393,1.393,0,0,1-.281.867,1.788,1.788,0,0,1-.811.572A3.618,3.618,0,0,1,98.532.052Zm5.646,0a1.692,1.692,0,0,1-1.254-.441,1.684,1.684,0,0,1-.439-1.243V-7.048h.781v5.374a1.112,1.112,0,0,0,.257.787.964.964,0,0,0,.741.275,1.268,1.268,0,0,0,.859-.3l.272.559a1.41,1.41,0,0,1-.55.3A2.291,2.291,0,0,1,104.178.052Zm-2.724-5.181V-5.78h3.569v.652ZM110.432,0V-1.272L110.4-1.49V-3.618a1.494,1.494,0,0,0-.415-1.136,1.716,1.716,0,0,0-1.227-.395,3.054,3.054,0,0,0-1.066.186,2.742,2.742,0,0,0-.858.494l-.347-.578a3.148,3.148,0,0,1,1.056-.579,4.055,4.055,0,0,1,1.293-.206,2.479,2.479,0,0,1,1.737.559,2.179,2.179,0,0,1,.61,1.688V0ZM108.44.052a2.768,2.768,0,0,1-1.126-.21,1.66,1.66,0,0,1-.731-.592,1.535,1.535,0,0,1-.255-.873,1.615,1.615,0,0,1,.214-.822,1.51,1.51,0,0,1,.7-.6,3.177,3.177,0,0,1,1.317-.227h1.99v.583h-1.964a1.737,1.737,0,0,0-1.165.3.963.963,0,0,0-.322.738.951.951,0,0,0,.386.8,1.724,1.724,0,0,0,1.071.3,2.087,2.087,0,0,0,1.143-.3,1.769,1.769,0,0,0,.7-.87l.172.536a1.806,1.806,0,0,1-.762.913A2.562,2.562,0,0,1,108.44.052Zm7.807-5.884a2.682,2.682,0,0,1,1.241.273,1.959,1.959,0,0,1,.833.822,2.843,2.843,0,0,1,.3,1.382V0h-.781V-3.274a1.918,1.918,0,0,0-.455-1.388,1.7,1.7,0,0,0-1.279-.469,2.213,2.213,0,0,0-1.075.25,1.7,1.7,0,0,0-.7.716,2.4,2.4,0,0,0-.246,1.13V0H113.3V-5.78h.75v1.586l-.122-.289a2.112,2.112,0,0,1,.878-.992A2.764,2.764,0,0,1,116.247-5.832Zm6.8,5.884a2.946,2.946,0,0,1-1.48-.372,2.689,2.689,0,0,1-1.031-1.035,3.069,3.069,0,0,1-.375-1.537,3.052,3.052,0,0,1,.375-1.537,2.7,2.7,0,0,1,1.031-1.031,2.946,2.946,0,0,1,1.48-.372,2.687,2.687,0,0,1,1.353.344,2.494,2.494,0,0,1,.961,1,3.291,3.291,0,0,1,.357,1.6,3.362,3.362,0,0,1-.351,1.6,2.441,2.441,0,0,1-.955,1A2.711,2.711,0,0,1,123.047.052Zm.056-.689a2.158,2.158,0,0,0,1.1-.282,2.034,2.034,0,0,0,.77-.793,2.4,2.4,0,0,0,.283-1.18,2.388,2.388,0,0,0-.283-1.186,2.027,2.027,0,0,0-.77-.785,2.173,2.173,0,0,0-1.1-.279,2.16,2.16,0,0,0-1.1.279,2.049,2.049,0,0,0-.77.785,2.372,2.372,0,0,0-.286,1.186,2.38,2.38,0,0,0,.286,1.18,2.056,2.056,0,0,0,.77.793A2.145,2.145,0,0,0,123.1-.637ZM125.276,0V-1.741l.079-1.163-.11-1.163v-4.1h.781V0Zm6.548,0V-1.272l-.031-.218V-3.618a1.494,1.494,0,0,0-.415-1.136,1.716,1.716,0,0,0-1.227-.395,3.054,3.054,0,0,0-1.066.186,2.742,2.742,0,0,0-.858.494l-.347-.578a3.148,3.148,0,0,1,1.056-.579,4.055,4.055,0,0,1,1.293-.206,2.479,2.479,0,0,1,1.737.559,2.179,2.179,0,0,1,.61,1.688V0Zm-1.993.052a2.768,2.768,0,0,1-1.126-.21,1.66,1.66,0,0,1-.731-.592,1.535,1.535,0,0,1-.255-.873,1.615,1.615,0,0,1,.214-.822,1.511,1.511,0,0,1,.7-.6,3.177,3.177,0,0,1,1.317-.227h1.99v.583h-1.964a1.737,1.737,0,0,0-1.165.3.963.963,0,0,0-.322.738.951.951,0,0,0,.386.8,1.724,1.724,0,0,0,1.071.3,2.087,2.087,0,0,0,1.143-.3,1.769,1.769,0,0,0,.7-.87l.172.536a1.806,1.806,0,0,1-.762.913A2.562,2.562,0,0,1,129.832.052Z" transform="translate(106 600)" fill="#fff"/>
    </g>
    <rect id="Rectangle_330" data-name="Rectangle 330" width="160" height="104" rx="12" transform="translate(258 519)" fill="rgba(65,125,165,0.29)"/>
    <g id="Group_591" data-name="Group 591" transform="translate(0 -1)">
      <path id="boxes-stacked-solid" d="M11.305,0H9.482A2.189,2.189,0,0,0,7.294,2.188V7.294a2.92,2.92,0,0,0,2.918,2.918h5.835a2.92,2.92,0,0,0,2.917-2.918V2.188A2.189,2.189,0,0,0,16.776,0H14.952V3.647a.732.732,0,0,1-.729.729H12.035a.732.732,0,0,1-.729-.729ZM2.918,11.67A2.92,2.92,0,0,0,0,14.587v5.835A2.92,2.92,0,0,0,2.918,23.34h7.294a2.92,2.92,0,0,0,2.917-2.917V14.587a2.92,2.92,0,0,0-2.917-2.917H8.388v3.647a.732.732,0,0,1-.729.729H5.47a.732.732,0,0,1-.729-.729V11.67ZM16.046,23.34H23.34a2.92,2.92,0,0,0,2.917-2.917V14.587A2.92,2.92,0,0,0,23.34,11.67H21.517v3.647a.732.732,0,0,1-.729.729H18.6a.732.732,0,0,1-.729-.729V11.67H16.046a2.888,2.888,0,0,0-1.81.629,3.652,3.652,0,0,1,.351,1.559v7.294a3.652,3.652,0,0,1-.351,1.559A2.888,2.888,0,0,0,16.046,23.34Z" transform="translate(325 541)" fill="#fff"/>
      <path id="Path_5561" data-name="Path 5561" d="M1.41,0V-11.9h2.76v9.651h5.957V0Zm8.772,0,5.3-11.9H18.21L23.525,0H20.649L16.284-10.5h1.092L13.011,0Zm2.663-2.546.722-2.09H19.7l.733,2.09ZM24.776,0V-11.9H29.92a6.732,6.732,0,0,1,2.764.518A4.014,4.014,0,0,1,34.47-9.893,4.156,4.156,0,0,1,35.1-7.587,4.079,4.079,0,0,1,34.47-5.3a4,4,0,0,1-1.786,1.47,6.81,6.81,0,0,1-2.764.512H26.306l1.231-1.2V0ZM32.35,0,29.365-4.325h2.947L35.322,0ZM27.537-4.219l-1.231-1.3h3.473a2.841,2.841,0,0,0,1.9-.548,1.9,1.9,0,0,0,.636-1.523,1.9,1.9,0,0,0-.636-1.528,2.859,2.859,0,0,0-1.9-.543H26.306l1.231-1.306ZM43.017.2a7.226,7.226,0,0,1-2.589-.45,6.1,6.1,0,0,1-2.057-1.278A5.838,5.838,0,0,1,37.017-3.48a6.193,6.193,0,0,1-.483-2.47,6.193,6.193,0,0,1,.483-2.47,5.78,5.78,0,0,1,1.363-1.952,6.177,6.177,0,0,1,2.072-1.278,7.35,7.35,0,0,1,2.619-.45,7.408,7.408,0,0,1,2.851.523,5.547,5.547,0,0,1,2.128,1.525L46.293-8.416a4.357,4.357,0,0,0-1.416-1.019A4.153,4.153,0,0,0,43.2-9.766a4.335,4.335,0,0,0-1.573.276,3.564,3.564,0,0,0-1.233.785A3.508,3.508,0,0,0,39.6-7.5a4.113,4.113,0,0,0-.281,1.549A4.073,4.073,0,0,0,39.6-4.422a3.555,3.555,0,0,0,.8,1.215,3.592,3.592,0,0,0,1.221.793,4.177,4.177,0,0,0,1.554.279A4.847,4.847,0,0,0,44.766-2.4a4.713,4.713,0,0,0,1.51-.9l1.557,1.985A7.052,7.052,0,0,1,45.577-.186,8.833,8.833,0,0,1,43.017.2Zm2.305-1.869V-6.14h2.51v4.827Zm7.592-5.442h5.735V-4.97H52.914Zm.2,4.9H59.6V0H50.381V-11.9h8.986v2.216H53.114Z" transform="translate(308 585)" fill="#fff"/>
      <path id="Path_5562" data-name="Path 5562" d="M6.336.052A2.994,2.994,0,0,1,4.827-.326,2.776,2.776,0,0,1,3.779-1.372a2.993,2.993,0,0,1-.385-1.522A2.96,2.96,0,0,1,3.78-4.418,2.808,2.808,0,0,1,4.827-5.455a2.987,2.987,0,0,1,1.509-.378,3.022,3.022,0,0,1,1.515.377A2.751,2.751,0,0,1,8.9-4.419a3,3,0,0,1,.38,1.526A3.025,3.025,0,0,1,8.9-1.371,2.728,2.728,0,0,1,7.85-.326,3.025,3.025,0,0,1,6.336.052Zm0-.689A2.171,2.171,0,0,0,7.443-.919a2.013,2.013,0,0,0,.767-.793,2.419,2.419,0,0,0,.28-1.181,2.408,2.408,0,0,0-.28-1.185,2.005,2.005,0,0,0-.767-.785,2.179,2.179,0,0,0-1.1-.279,2.166,2.166,0,0,0-1.1.279,2.049,2.049,0,0,0-.77.785,2.37,2.37,0,0,0-.286,1.185,2.381,2.381,0,0,0,.286,1.181,2.057,2.057,0,0,0,.77.793A2.145,2.145,0,0,0,6.336-.637Zm7.518.689A2.692,2.692,0,0,1,12.5-.292a2.479,2.479,0,0,1-.964-1,3.3,3.3,0,0,1-.358-1.594,3.353,3.353,0,0,1,.351-1.6,2.443,2.443,0,0,1,.958-1,2.716,2.716,0,0,1,1.363-.344,2.941,2.941,0,0,1,1.483.372,2.7,2.7,0,0,1,1.027,1.033,3.066,3.066,0,0,1,.375,1.54,3.056,3.056,0,0,1-.375,1.535A2.7,2.7,0,0,1,15.337-.32,2.941,2.941,0,0,1,13.854.052ZM10.875,2.134V-5.78h.75V-4.04l-.079,1.163.11,1.163V2.134ZM13.8-.637a2.173,2.173,0,0,0,1.1-.279,2.017,2.017,0,0,0,.77-.791,2.4,2.4,0,0,0,.283-1.18,2.388,2.388,0,0,0-.283-1.186,2.044,2.044,0,0,0-.77-.788,2.158,2.158,0,0,0-1.1-.282,2.158,2.158,0,0,0-1.1.282,2.044,2.044,0,0,0-.77.788,2.388,2.388,0,0,0-.283,1.186,2.4,2.4,0,0,0,.283,1.18,2.017,2.017,0,0,0,.77.791A2.173,2.173,0,0,0,13.8-.637Zm6.364.689a1.692,1.692,0,0,1-1.254-.441,1.684,1.684,0,0,1-.439-1.243V-7.048h.781v5.374a1.112,1.112,0,0,0,.257.787.964.964,0,0,0,.741.275,1.268,1.268,0,0,0,.859-.3l.272.559a1.411,1.411,0,0,1-.55.3A2.291,2.291,0,0,1,20.161.052ZM17.437-5.129V-5.78h3.569v.652ZM22.8,0V-5.775h.781V0Zm.4-7.051a.553.553,0,0,1-.407-.165.54.54,0,0,1-.165-.4A.522.522,0,0,1,22.785-8a.563.563,0,0,1,.407-.159.574.574,0,0,1,.407.154.5.5,0,0,1,.165.385.563.563,0,0,1-.16.407A.548.548,0,0,1,23.192-7.051Zm9.784,1.219A2.612,2.612,0,0,1,34.2-5.56a1.906,1.906,0,0,1,.814.822,2.932,2.932,0,0,1,.291,1.382V0h-.781V-3.274a1.973,1.973,0,0,0-.435-1.388,1.591,1.591,0,0,0-1.227-.469,2.041,2.041,0,0,0-1.027.25,1.676,1.676,0,0,0-.675.716,2.474,2.474,0,0,0-.237,1.13V0h-.781V-3.274a1.973,1.973,0,0,0-.435-1.388,1.591,1.591,0,0,0-1.227-.469,2.041,2.041,0,0,0-1.027.25,1.677,1.677,0,0,0-.675.716,2.473,2.473,0,0,0-.237,1.13V0H25.76V-5.78h.75v1.569l-.122-.276a2.08,2.08,0,0,1,.85-.988,2.607,2.607,0,0,1,1.387-.357,2.419,2.419,0,0,1,1.443.424,1.976,1.976,0,0,1,.768,1.273l-.3-.117A2.244,2.244,0,0,1,31.427-5.4,2.7,2.7,0,0,1,32.976-5.832Zm6.9,5.884A3.226,3.226,0,0,1,38.3-.326a2.732,2.732,0,0,1-1.069-1.045,2.993,2.993,0,0,1-.384-1.522,3.094,3.094,0,0,1,.366-1.522,2.7,2.7,0,0,1,1.009-1.04,2.815,2.815,0,0,1,1.454-.378,2.811,2.811,0,0,1,1.444.37,2.63,2.63,0,0,1,1,1.033,3.157,3.157,0,0,1,.362,1.538q0,.048,0,.112t-.009.123H37.438v-.583h4.61l-.312.234a2.216,2.216,0,0,0-.263-1.111,2.007,2.007,0,0,0-.733-.767,2.031,2.031,0,0,0-1.068-.279,2.051,2.051,0,0,0-1.068.279,1.95,1.95,0,0,0-.733.77,2.345,2.345,0,0,0-.264,1.127v.131A2.255,2.255,0,0,0,37.9-1.7a2.045,2.045,0,0,0,.81.784A2.457,2.457,0,0,0,39.9-.637a2.559,2.559,0,0,0,.99-.189,2.005,2.005,0,0,0,.778-.573l.441.509a2.473,2.473,0,0,1-.961.7A3.259,3.259,0,0,1,39.881.052ZM44.071,0V-5.78h.75V-4.2l-.078-.276a1.93,1.93,0,0,1,.815-1,2.675,2.675,0,0,1,1.422-.35v.762l-.093-.009q-.045,0-.091,0a1.855,1.855,0,0,0-1.424.555,2.219,2.219,0,0,0-.519,1.576V0Zm7.511,0V-1.272l-.031-.218V-3.618a1.494,1.494,0,0,0-.415-1.136,1.716,1.716,0,0,0-1.227-.395,3.054,3.054,0,0,0-1.066.186,2.742,2.742,0,0,0-.858.494l-.347-.578a3.148,3.148,0,0,1,1.056-.579,4.055,4.055,0,0,1,1.293-.206,2.479,2.479,0,0,1,1.737.559,2.179,2.179,0,0,1,.61,1.688V0ZM49.589.052a2.768,2.768,0,0,1-1.126-.21,1.66,1.66,0,0,1-.731-.592,1.535,1.535,0,0,1-.255-.873,1.615,1.615,0,0,1,.214-.822,1.51,1.51,0,0,1,.7-.6,3.177,3.177,0,0,1,1.317-.227H51.7v.583H49.739a1.737,1.737,0,0,0-1.165.3.963.963,0,0,0-.322.738.951.951,0,0,0,.386.8,1.724,1.724,0,0,0,1.071.3,2.087,2.087,0,0,0,1.143-.3,1.769,1.769,0,0,0,.7-.87l.172.536a1.806,1.806,0,0,1-.762.913A2.562,2.562,0,0,1,49.589.052Zm6.688,0a1.692,1.692,0,0,1-1.254-.441,1.684,1.684,0,0,1-.439-1.243V-7.048h.781v5.374a1.112,1.112,0,0,0,.257.787.964.964,0,0,0,.741.275,1.268,1.268,0,0,0,.859-.3l.272.559a1.411,1.411,0,0,1-.55.3A2.291,2.291,0,0,1,56.277.052ZM53.553-5.129V-5.78h3.569v.652ZM64.78.052a2.692,2.692,0,0,1-1.35-.344,2.479,2.479,0,0,1-.964-1,3.3,3.3,0,0,1-.358-1.594,3.353,3.353,0,0,1,.351-1.6,2.443,2.443,0,0,1,.958-1,2.716,2.716,0,0,1,1.363-.344,2.941,2.941,0,0,1,1.483.372,2.7,2.7,0,0,1,1.027,1.033,3.066,3.066,0,0,1,.375,1.54,3.056,3.056,0,0,1-.375,1.535A2.7,2.7,0,0,1,66.263-.32,2.941,2.941,0,0,1,64.78.052ZM61.8,2.134V-5.78h.75V-4.04l-.079,1.163.11,1.163V2.134ZM64.724-.637a2.173,2.173,0,0,0,1.1-.279,2.017,2.017,0,0,0,.77-.791,2.4,2.4,0,0,0,.283-1.18A2.388,2.388,0,0,0,66.6-4.074a2.044,2.044,0,0,0-.77-.788,2.158,2.158,0,0,0-1.1-.282,2.158,2.158,0,0,0-1.1.282,2.044,2.044,0,0,0-.77.788,2.388,2.388,0,0,0-.283,1.186,2.4,2.4,0,0,0,.283,1.18,2.017,2.017,0,0,0,.77.791A2.173,2.173,0,0,0,64.724-.637ZM72.843,0V-1.276l-.033-.209V-3.619A1.5,1.5,0,0,0,72.4-4.752a1.707,1.707,0,0,0-1.226-.4,3.053,3.053,0,0,0-1.067.187,2.718,2.718,0,0,0-.858.495l-.352-.583a3.121,3.121,0,0,1,1.056-.578,4.111,4.111,0,0,1,1.3-.2,2.484,2.484,0,0,1,1.732.556,2.172,2.172,0,0,1,.611,1.688V0ZM70.852.055A2.737,2.737,0,0,1,69.725-.16a1.674,1.674,0,0,1-.731-.594,1.54,1.54,0,0,1-.253-.875,1.6,1.6,0,0,1,.215-.819,1.51,1.51,0,0,1,.7-.594,3.185,3.185,0,0,1,1.314-.226h1.991v.583H71a1.732,1.732,0,0,0-1.16.3.959.959,0,0,0-.325.737.95.95,0,0,0,.385.792,1.729,1.729,0,0,0,1.078.3,2.086,2.086,0,0,0,1.139-.3,1.737,1.737,0,0,0,.7-.875l.176.539a1.835,1.835,0,0,1-.764.913A2.537,2.537,0,0,1,70.852.055Zm.407-6.6a1.128,1.128,0,0,1-.589-.154,1.139,1.139,0,0,1-.407-.407,1.088,1.088,0,0,1-.148-.561,1.116,1.116,0,0,1,.154-.572,1.2,1.2,0,0,1,.412-.424,1.078,1.078,0,0,1,.577-.159,1.1,1.1,0,0,1,.589.159,1.2,1.2,0,0,1,.412.424,1.116,1.116,0,0,1,.154.572,1.058,1.058,0,0,1-.154.561,1.185,1.185,0,0,1-.412.407A1.128,1.128,0,0,1,71.259-6.545Zm0-.385a.719.719,0,0,0,.539-.215.721.721,0,0,0,.209-.523.772.772,0,0,0-.209-.544.7.7,0,0,0-.539-.226.7.7,0,0,0-.528.22.767.767,0,0,0-.209.55.726.726,0,0,0,.2.528A.711.711,0,0,0,71.259-6.93ZM81.581.052a2.692,2.692,0,0,1-1.35-.344,2.479,2.479,0,0,1-.964-1,3.3,3.3,0,0,1-.357-1.594,3.353,3.353,0,0,1,.351-1.6,2.443,2.443,0,0,1,.958-1,2.716,2.716,0,0,1,1.363-.344,2.941,2.941,0,0,1,1.483.372,2.7,2.7,0,0,1,1.027,1.033,3.066,3.066,0,0,1,.375,1.54,3.056,3.056,0,0,1-.375,1.535A2.7,2.7,0,0,1,83.063-.32,2.941,2.941,0,0,1,81.581.052ZM78.6,2.134V-5.78h.75V-4.04l-.079,1.163.11,1.163V2.134ZM81.524-.637a2.173,2.173,0,0,0,1.1-.279,2.017,2.017,0,0,0,.77-.791,2.4,2.4,0,0,0,.283-1.18A2.388,2.388,0,0,0,83.4-4.074a2.044,2.044,0,0,0-.77-.788,2.158,2.158,0,0,0-1.1-.282,2.158,2.158,0,0,0-1.1.282,2.044,2.044,0,0,0-.77.788,2.388,2.388,0,0,0-.283,1.186,2.4,2.4,0,0,0,.283,1.18,2.017,2.017,0,0,0,.77.791A2.173,2.173,0,0,0,81.524-.637ZM86.064,0V-5.78h.75V-4.2l-.078-.276a1.93,1.93,0,0,1,.815-1,2.675,2.675,0,0,1,1.422-.35v.762l-.093-.009q-.045,0-.091,0a1.855,1.855,0,0,0-1.424.555,2.22,2.22,0,0,0-.519,1.576V0Zm4.326,0V-5.775h.781V0Zm.4-7.051a.553.553,0,0,1-.407-.165.54.54,0,0,1-.165-.4A.522.522,0,0,1,90.378-8a.563.563,0,0,1,.407-.159.574.574,0,0,1,.407.154.5.5,0,0,1,.165.385.563.563,0,0,1-.16.407A.548.548,0,0,1,90.785-7.051ZM94.9.052a4.429,4.429,0,0,1-1.357-.2,2.885,2.885,0,0,1-1-.508l.344-.619a3.166,3.166,0,0,0,.9.463,3.5,3.5,0,0,0,1.157.191,2.109,2.109,0,0,0,1.19-.258.8.8,0,0,0,.365-.689.635.635,0,0,0-.2-.5,1.354,1.354,0,0,0-.537-.276,6.367,6.367,0,0,0-.736-.16q-.4-.065-.8-.156a3.189,3.189,0,0,1-.736-.26,1.406,1.406,0,0,1-.537-.465,1.372,1.372,0,0,1-.2-.788,1.424,1.424,0,0,1,.268-.852,1.779,1.779,0,0,1,.779-.589,3.209,3.209,0,0,1,1.246-.215,4.435,4.435,0,0,1,1.123.147,2.824,2.824,0,0,1,.92.4l-.344.618a2.521,2.521,0,0,0-.818-.375,3.566,3.566,0,0,0-.887-.113,1.938,1.938,0,0,0-1.14.27.813.813,0,0,0-.367.679.682.682,0,0,0,.2.525,1.376,1.376,0,0,0,.537.292,5.321,5.321,0,0,0,.736.168q.4.065.8.156a3.366,3.366,0,0,1,.734.254,1.388,1.388,0,0,1,.537.452,1.312,1.312,0,0,1,.2.769A1.393,1.393,0,0,1,97-.723a1.788,1.788,0,0,1-.811.572A3.618,3.618,0,0,1,94.9.052Z" transform="translate(289 600)" fill="#fff"/>
    </g>
    <path id="Path_5556" data-name="Path 5556" d="M.658,0V-4.9h.91V-.77H4.13V0ZM4.165,0l2.2-4.9h.9L9.478,0H8.526l-1.9-4.417h.364L5.1,0ZM5.18-1.134l.245-.714H8.071l.245.714ZM12.32.07a2.9,2.9,0,0,1-1.053-.186,2.518,2.518,0,0,1-.837-.525,2.371,2.371,0,0,1-.553-.8,2.554,2.554,0,0,1-.2-1.008,2.554,2.554,0,0,1,.2-1.008,2.348,2.348,0,0,1,.557-.8,2.549,2.549,0,0,1,.844-.525,2.925,2.925,0,0,1,1.057-.185,2.965,2.965,0,0,1,1.124.2,2.2,2.2,0,0,1,.844.6l-.574.56a1.9,1.9,0,0,0-.62-.424,1.908,1.908,0,0,0-.731-.136,1.98,1.98,0,0,0-.714.126,1.651,1.651,0,0,0-.567.357,1.6,1.6,0,0,0-.368.546,1.806,1.806,0,0,0-.129.693,1.787,1.787,0,0,0,.129.686,1.636,1.636,0,0,0,.368.55,1.639,1.639,0,0,0,.56.36,1.944,1.944,0,0,0,.714.126,2.169,2.169,0,0,0,.7-.115,1.9,1.9,0,0,0,.648-.388l.518.679a2.688,2.688,0,0,1-.892.466A3.442,3.442,0,0,1,12.32.07Zm1.057-.742V-2.506h.861V-.553ZM15.435,0V-4.9h2.016a2.7,2.7,0,0,1,1.117.21,1.619,1.619,0,0,1,.717.6,1.684,1.684,0,0,1,.252.931,1.667,1.667,0,0,1-.252.928,1.605,1.605,0,0,1-.717.6,2.741,2.741,0,0,1-1.117.207H15.939l.406-.413V0Zm3.206,0L17.4-1.778h.973L19.621,0Zm-2.3-1.743-.406-.434h1.47a1.369,1.369,0,0,0,.906-.259.9.9,0,0,0,.3-.721.883.883,0,0,0-.3-.721,1.4,1.4,0,0,0-.906-.252h-1.47l.406-.448ZM20.552,0V-4.9h.91V0Zm2.233,0V-4.9h.749l3.073,3.773h-.371V-4.9h.9V0H26.39L23.317-3.773h.371V0Zm7.959.07a2.9,2.9,0,0,1-1.054-.186,2.518,2.518,0,0,1-.837-.525,2.371,2.371,0,0,1-.553-.8,2.554,2.554,0,0,1-.2-1.008,2.554,2.554,0,0,1,.2-1.008,2.348,2.348,0,0,1,.556-.8,2.549,2.549,0,0,1,.844-.525,2.925,2.925,0,0,1,1.057-.185,2.965,2.965,0,0,1,1.123.2,2.2,2.2,0,0,1,.844.6l-.574.56a1.9,1.9,0,0,0-.619-.424,1.908,1.908,0,0,0-.732-.136,1.98,1.98,0,0,0-.714.126,1.651,1.651,0,0,0-.567.357,1.6,1.6,0,0,0-.368.546,1.806,1.806,0,0,0-.129.693,1.787,1.787,0,0,0,.129.686,1.636,1.636,0,0,0,.368.55,1.639,1.639,0,0,0,.56.36,1.944,1.944,0,0,0,.714.126,2.169,2.169,0,0,0,.7-.115,1.9,1.9,0,0,0,.647-.388l.518.679a2.688,2.688,0,0,1-.893.466A3.442,3.442,0,0,1,30.744.07ZM31.8-.672V-2.506h.861V-.553Z" transform="translate(87 430)" fill="#32cd32"/>
    <path id="Path_5557" data-name="Path 5557" d="M11.7-13.587v1.365a8.662,8.662,0,0,0-1.638-.682,7.665,7.665,0,0,0-1.974-.2,5.478,5.478,0,0,0-4.064,1.649A5.85,5.85,0,0,0,2.394-7.161,6.1,6.1,0,0,0,4-2.73,5.676,5.676,0,0,0,8.274-1.071a5.426,5.426,0,0,0,3.465-1.092V-.735a6.036,6.036,0,0,1-3.528.9A7.055,7.055,0,0,1,3.024-1.785,7.221,7.221,0,0,1,1.05-7.161a6.939,6.939,0,0,1,2.037-5.187,6.921,6.921,0,0,1,5.04-2A7.812,7.812,0,0,1,11.7-13.587Zm9.45,7.665v-.483a3.238,3.238,0,0,0-.808-2.31,2.839,2.839,0,0,0-2.174-.861,2.981,2.981,0,0,0-2.247.945,4.314,4.314,0,0,0-1.05,2.709Zm.651,4.1v1.3a6.5,6.5,0,0,1-2.94.63A5.213,5.213,0,0,1,15-1.375a5.267,5.267,0,0,1-1.481-3.9,5.867,5.867,0,0,1,1.3-4.032,4.305,4.305,0,0,1,3.381-1.47,3.977,3.977,0,0,1,3.108,1.281A5.207,5.207,0,0,1,22.47-5.88a6.045,6.045,0,0,1-.084,1.134H14.868a3.838,3.838,0,0,0,1.218,2.7,4.158,4.158,0,0,0,2.835.934A5.118,5.118,0,0,0,21.8-1.827Zm4.557-8.82V-8.82a3.469,3.469,0,0,1,3.381-1.995,3.28,3.28,0,0,1,2.457.945,3.338,3.338,0,0,1,.924,2.436V0H31.836V-7.035a2.611,2.611,0,0,0-.63-1.89,2.2,2.2,0,0,0-1.659-.651,2.992,2.992,0,0,0-2.247,1,3.763,3.763,0,0,0-.945,2.7V0H25.074V-10.647Zm11.8,1.092V-2.94q0,1.827,1.7,1.827A2.177,2.177,0,0,0,41.286-1.6v1.3a2.509,2.509,0,0,1-1.407.4Q36.855.1,36.855-3V-9.555H35.112v-1.092h1.743v-2.667h1.3v2.667H41.2v1.092Zm6.951-1.092v1.806a3.05,3.05,0,0,1,2.982-1.932q.147,0,.525.042v1.3a2.91,2.91,0,0,0-.84-.126,2.25,2.25,0,0,0-1.9,1.124,4.319,4.319,0,0,0-.767,2.488V0H43.827V-10.647ZM56.28-5.061H54.2a3.57,3.57,0,0,0-2.226.577,1.762,1.762,0,0,0-.735,1.439,1.875,1.875,0,0,0,.577,1.428,2.372,2.372,0,0,0,1.69.546,2.867,2.867,0,0,0,2.016-.693,2.288,2.288,0,0,0,.756-1.764ZM50.652-8.694V-10.08a5.717,5.717,0,0,1,3-.735q3.906,0,3.906,4.095V0H56.28V-1.239A3.388,3.388,0,0,1,53.214.1a3.385,3.385,0,0,1-2.4-.871A2.922,2.922,0,0,1,49.875-3a2.764,2.764,0,0,1,1.187-2.384,5.276,5.276,0,0,1,3.139-.85H56.28V-6.72a3.276,3.276,0,0,0-.609-2.153A2.529,2.529,0,0,0,53.634-9.6,5.167,5.167,0,0,0,50.652-8.694ZM60.711,0V-14.847h1.281V0ZM72.7-2.037a3.211,3.211,0,0,0,2.352.987A2.74,2.74,0,0,0,77.312-2.2,4.738,4.738,0,0,0,78.2-5.187a5.082,5.082,0,0,0-.924-3.266A2.893,2.893,0,0,0,74.928-9.6a2.8,2.8,0,0,0-1.018.2,3.5,3.5,0,0,0-1.029.651,3.22,3.22,0,0,0-.84,1.323,5.845,5.845,0,0,0-.326,2.047A4.666,4.666,0,0,0,72.7-2.037Zm-.987-12.81v5.8a3.707,3.707,0,0,1,3.255-1.764,4.068,4.068,0,0,1,3.3,1.564,6.175,6.175,0,0,1,1.281,4.043,6.087,6.087,0,0,1-1.2,3.811A3.965,3.965,0,0,1,75.012.168a3.672,3.672,0,0,1-3.3-1.722V0H70.434V-14.847ZM82.173,0V-14.847h1.281V0Zm8.8.189A4.447,4.447,0,0,1,87.4-1.365a5.815,5.815,0,0,1-1.323-3.906A5.833,5.833,0,0,1,87.444-9.2a4.427,4.427,0,0,1,3.528-1.6,4.546,4.546,0,0,1,3.686,1.564A5.949,5.949,0,0,1,95.97-5.271a5.777,5.777,0,0,1-1.333,3.916A4.588,4.588,0,0,1,90.972.189Zm0-9.765a3.075,3.075,0,0,0-2.6,1.26,4.93,4.93,0,0,0-.945,3.045A4.713,4.713,0,0,0,88.4-2.278a3.107,3.107,0,0,0,2.572,1.249,3.22,3.22,0,0,0,2.7-1.229,4.76,4.76,0,0,0,.955-3.013,5.055,5.055,0,0,0-.9-3.076A3.19,3.19,0,0,0,90.972-9.576ZM99.2-5.271a4.391,4.391,0,0,0,1.113,3.045,4.042,4.042,0,0,0,3.171,1.239,3.555,3.555,0,0,0,2.184-.672v1.3a4.09,4.09,0,0,1-2.331.609,5.119,5.119,0,0,1-4.032-1.627A5.687,5.687,0,0,1,97.86-5.292a5.65,5.65,0,0,1,1.48-3.885,5.093,5.093,0,0,1,4-1.659,4.749,4.749,0,0,1,2.331.567v1.3a3.882,3.882,0,0,0-2.2-.63,3.994,3.994,0,0,0-3.108,1.271A4.384,4.384,0,0,0,99.2-5.271ZM108.423,0V-14.847H109.7V0Zm3.15-5.586L116.067,0h-1.6l-4.452-5.586,4.326-5.061h1.575ZM118.209,0V-14.847h1.281V0Zm10.416-5.061h-2.079a3.57,3.57,0,0,0-2.226.577,1.762,1.762,0,0,0-.735,1.439,1.875,1.875,0,0,0,.577,1.428,2.372,2.372,0,0,0,1.69.546,2.867,2.867,0,0,0,2.016-.693,2.288,2.288,0,0,0,.756-1.764ZM123-8.694V-10.08a5.717,5.717,0,0,1,3-.735q3.906,0,3.906,4.095V0h-1.281V-1.239A3.388,3.388,0,0,1,125.559.1a3.385,3.385,0,0,1-2.4-.871A2.922,2.922,0,0,1,122.22-3a2.764,2.764,0,0,1,1.187-2.384,5.276,5.276,0,0,1,3.139-.85h2.079V-6.72a3.276,3.276,0,0,0-.609-2.153,2.529,2.529,0,0,0-2.037-.724A5.167,5.167,0,0,0,123-8.694ZM136.773-1.47a3.11,3.11,0,0,0,2.184-.934,3.775,3.775,0,0,0,.987-2.866A4.8,4.8,0,0,0,139-8.536,2.8,2.8,0,0,0,136.878-9.6a2.759,2.759,0,0,0-2.352,1.176,5.028,5.028,0,0,0-.861,3.045,4.019,4.019,0,0,0,.966,2.909A2.929,2.929,0,0,0,136.773-1.47Zm3.171-9.177h1.281V-.819a4.705,4.705,0,0,1-1.3,3.622,4.745,4.745,0,0,1-3.36,1.208,7.2,7.2,0,0,1-3.108-.609V2.142a6.629,6.629,0,0,0,3,.651A3.6,3.6,0,0,0,139,1.921a3.563,3.563,0,0,0,.945-2.74V-2.2a3.439,3.439,0,0,1-3.192,1.953,4.16,4.16,0,0,1-3.14-1.365,5.158,5.158,0,0,1-1.291-3.7,6.32,6.32,0,0,1,1.186-3.948,3.738,3.738,0,0,1,3.118-1.554,3.464,3.464,0,0,1,3.318,2.037Zm5.628,0v1.806a3.05,3.05,0,0,1,2.982-1.932q.147,0,.525.042v1.3a2.91,2.91,0,0,0-.84-.126,2.25,2.25,0,0,0-1.9,1.124,4.319,4.319,0,0,0-.766,2.488V0h-1.281V-10.647ZM150.969,0V-10.647h1.281V0Zm0-13.419a.855.855,0,0,1-.252-.63.89.89,0,0,1,.252-.641.837.837,0,0,1,.63-.262.871.871,0,0,1,.641.262.871.871,0,0,1,.262.641.837.837,0,0,1-.262.63.89.89,0,0,1-.641.252A.855.855,0,0,1,150.969-13.419Zm5.838,2.772V-8.82a3.469,3.469,0,0,1,3.381-1.995,3.28,3.28,0,0,1,2.457.945,3.338,3.338,0,0,1,.924,2.436V0h-1.281V-7.035a2.611,2.611,0,0,0-.63-1.89A2.2,2.2,0,0,0,160-9.576a2.992,2.992,0,0,0-2.247,1,3.763,3.763,0,0,0-.945,2.7V0h-1.281V-10.647ZM170.436-1.47A3.11,3.11,0,0,0,172.62-2.4a3.775,3.775,0,0,0,.987-2.866,4.8,4.8,0,0,0-.945-3.266A2.8,2.8,0,0,0,170.541-9.6a2.759,2.759,0,0,0-2.352,1.176,5.028,5.028,0,0,0-.861,3.045,4.019,4.019,0,0,0,.966,2.909A2.929,2.929,0,0,0,170.436-1.47Zm3.171-9.177h1.281V-.819a4.705,4.705,0,0,1-1.3,3.622,4.745,4.745,0,0,1-3.36,1.208,7.2,7.2,0,0,1-3.108-.609V2.142a6.629,6.629,0,0,0,3,.651,3.6,3.6,0,0,0,2.541-.872,3.563,3.563,0,0,0,.945-2.74V-2.2a3.439,3.439,0,0,1-3.192,1.953,4.16,4.16,0,0,1-3.14-1.365,5.158,5.158,0,0,1-1.291-3.7,6.32,6.32,0,0,1,1.186-3.948,3.738,3.738,0,0,1,3.118-1.554,3.464,3.464,0,0,1,3.318,2.037Z" transform="translate(87 458)" fill="#195f8c"/>
    <path id="Path_5558" data-name="Path 5558" d="M1.138,9.379V2.562h2.7A3.962,3.962,0,0,1,5.735,3,3.187,3.187,0,0,1,7.006,4.208a3.41,3.41,0,0,1,.453,1.763,3.41,3.41,0,0,1-.453,1.763A3.187,3.187,0,0,1,5.735,8.941a3.962,3.962,0,0,1-1.9.438Zm.5-.448H3.8a3.505,3.505,0,0,0,1.675-.38A2.738,2.738,0,0,0,6.572,7.5a2.985,2.985,0,0,0,.39-1.534,2.985,2.985,0,0,0-.39-1.534,2.738,2.738,0,0,0-1.1-1.047A3.505,3.505,0,0,0,3.8,3.01H1.634Zm9.457.487a2.726,2.726,0,0,1-1.359-.331,2.41,2.41,0,0,1-.925-.916,2.628,2.628,0,0,1-.336-1.334A2.749,2.749,0,0,1,8.788,5.5a2.352,2.352,0,0,1,.872-.911,2.387,2.387,0,0,1,1.247-.331,2.416,2.416,0,0,1,1.242.321,2.293,2.293,0,0,1,.867.9,2.749,2.749,0,0,1,.317,1.339.45.45,0,0,1,0,.063.517.517,0,0,0,0,.073H8.832v-.38h4.227l-.195.185a2.113,2.113,0,0,0-.248-1.066,1.937,1.937,0,0,0-.7-.74,1.933,1.933,0,0,0-2.717.74,2.242,2.242,0,0,0-.253,1.076v.088a2.175,2.175,0,0,0,.278,1.105,1.952,1.952,0,0,0,.765.75,2.266,2.266,0,0,0,1.11.268,2.358,2.358,0,0,0,.911-.175,1.79,1.79,0,0,0,.716-.536l.282.321a2.087,2.087,0,0,1-.833.618A2.79,2.79,0,0,1,11.092,9.418Zm6.233-5.162a2.339,2.339,0,0,1,1.086.239,1.679,1.679,0,0,1,.721.721,2.5,2.5,0,0,1,.258,1.193V9.379H18.9V6.448a1.8,1.8,0,0,0-.433-1.305,1.608,1.608,0,0,0-1.213-.448,2.092,2.092,0,0,0-1.032.243,1.627,1.627,0,0,0-.667.682,2.246,2.246,0,0,0-.229,1.052V9.379h-.487V4.3h.467V5.708l-.068-.156a1.931,1.931,0,0,1,.769-.95A2.375,2.375,0,0,1,17.325,4.256ZM23.9,9.379V2.153h.487V9.379Zm5.746,0V8.22l-.019-.175V6.136a1.432,1.432,0,0,0-.385-1.081,1.561,1.561,0,0,0-1.125-.37,2.675,2.675,0,0,0-1.753.643l-.243-.351a2.706,2.706,0,0,1,.916-.531,3.327,3.327,0,0,1,1.12-.19,2.037,2.037,0,0,1,1.451.477,1.863,1.863,0,0,1,.506,1.422V9.379Zm-1.831.039a2.439,2.439,0,0,1-.979-.18,1.409,1.409,0,0,1-.633-.511,1.345,1.345,0,0,1-.219-.76,1.4,1.4,0,0,1,.18-.706,1.3,1.3,0,0,1,.6-.516,2.631,2.631,0,0,1,1.12-.2h1.87v.38h-1.86a1.629,1.629,0,0,0-1.105.292.953.953,0,0,0-.317.73.942.942,0,0,0,.37.779,1.645,1.645,0,0,0,1.042.292,1.93,1.93,0,0,0,1.086-.292,1.723,1.723,0,0,0,.657-.847l.136.331a1.764,1.764,0,0,1-.7.881A2.22,2.22,0,0,1,27.814,9.418Zm6.418,1.889a4.016,4.016,0,0,1-1.315-.214A2.667,2.667,0,0,1,31.9,10.5l.263-.37a2.692,2.692,0,0,0,.911.545,3.3,3.3,0,0,0,1.144.195,2.067,2.067,0,0,0,1.5-.477,2.036,2.036,0,0,0,.482-1.5V7.48l.1-.76-.078-.76V4.3H36.7V8.834a2.509,2.509,0,0,1-.618,1.875A2.556,2.556,0,0,1,34.232,11.308ZM34.1,9.194a2.612,2.612,0,0,1-1.29-.317A2.4,2.4,0,0,1,31.9,8a2.441,2.441,0,0,1-.336-1.281A2.434,2.434,0,0,1,31.9,5.435a2.371,2.371,0,0,1,.906-.867,2.645,2.645,0,0,1,1.29-.312,2.572,2.572,0,0,1,1.242.3,2.209,2.209,0,0,1,.872.847,2.573,2.573,0,0,1,.321,1.32,2.579,2.579,0,0,1-.321,1.315,2.234,2.234,0,0,1-.872.857A2.538,2.538,0,0,1,34.1,9.194Zm.039-.438A2.2,2.2,0,0,0,35.216,8.5a1.89,1.89,0,0,0,.735-.721,2.07,2.07,0,0,0,.268-1.057,2.063,2.063,0,0,0-.268-1.062,1.866,1.866,0,0,0-.735-.711,2.4,2.4,0,0,0-2.148,0,1.857,1.857,0,0,0-.74.711,2.063,2.063,0,0,0-.268,1.062,2.07,2.07,0,0,0,.268,1.057,1.881,1.881,0,0,0,.74.721A2.187,2.187,0,0,0,34.135,8.756Zm4.626.623V4.3h.467V5.688l-.049-.156a1.8,1.8,0,0,1,.721-.945,2.268,2.268,0,0,1,1.266-.331v.477a.355.355,0,0,1-.058,0,.355.355,0,0,0-.058,0,1.69,1.69,0,0,0-1.325.531,2.129,2.129,0,0,0-.477,1.476V9.379Zm3.75,0V4.3H43V9.379Zm.243-6.321a.385.385,0,0,1-.282-.117.374.374,0,0,1-.117-.273.4.4,0,0,1,.4-.4.389.389,0,0,1,.287.112.377.377,0,0,1,.112.278.393.393,0,0,1-.112.282A.38.38,0,0,1,42.754,3.058Zm4.782,1.2a2.339,2.339,0,0,1,1.086.239,1.679,1.679,0,0,1,.721.721A2.5,2.5,0,0,1,49.6,6.409V9.379h-.487V6.448a1.8,1.8,0,0,0-.433-1.305,1.608,1.608,0,0,0-1.213-.448,2.093,2.093,0,0,0-1.032.243,1.627,1.627,0,0,0-.667.682,2.246,2.246,0,0,0-.229,1.052V9.379h-.487V4.3h.467V5.708l-.068-.156a1.931,1.931,0,0,1,.769-.95A2.375,2.375,0,0,1,47.537,4.256Zm6.185,7.051a4.016,4.016,0,0,1-1.315-.214,2.667,2.667,0,0,1-1.013-.594l.263-.37a2.692,2.692,0,0,0,.911.545,3.3,3.3,0,0,0,1.144.195,2.067,2.067,0,0,0,1.5-.477,2.036,2.036,0,0,0,.482-1.5V7.48l.1-.76-.078-.76V4.3h.467V8.834a2.509,2.509,0,0,1-.618,1.875A2.556,2.556,0,0,1,53.721,11.308Zm-.136-2.113a2.612,2.612,0,0,1-1.29-.317A2.4,2.4,0,0,1,51.389,8a2.441,2.441,0,0,1-.336-1.281,2.434,2.434,0,0,1,.336-1.286,2.371,2.371,0,0,1,.906-.867,2.645,2.645,0,0,1,1.29-.312,2.572,2.572,0,0,1,1.242.3A2.209,2.209,0,0,1,55.7,5.4a2.573,2.573,0,0,1,.321,1.32A2.579,2.579,0,0,1,55.7,8.035a2.234,2.234,0,0,1-.872.857A2.538,2.538,0,0,1,53.585,9.194Zm.039-.438A2.2,2.2,0,0,0,54.7,8.5a1.89,1.89,0,0,0,.735-.721,2.07,2.07,0,0,0,.268-1.057,2.063,2.063,0,0,0-.268-1.062,1.866,1.866,0,0,0-.735-.711,2.4,2.4,0,0,0-2.148,0,1.857,1.857,0,0,0-.74.711,2.063,2.063,0,0,0-.268,1.062,2.07,2.07,0,0,0,.268,1.057,1.881,1.881,0,0,0,.74.721A2.187,2.187,0,0,0,53.624,8.756Zm8.415.662a3.689,3.689,0,0,1-1.183-.185A2.314,2.314,0,0,1,60,8.766l.224-.39a2.513,2.513,0,0,0,.779.433,3.008,3.008,0,0,0,1.052.18,1.947,1.947,0,0,0,1.149-.263.824.824,0,0,0,.351-.692.665.665,0,0,0-.18-.492,1.181,1.181,0,0,0-.482-.278,4.95,4.95,0,0,0-.662-.161q-.36-.063-.721-.141a2.942,2.942,0,0,1-.662-.224,1.226,1.226,0,0,1-.482-.4,1.178,1.178,0,0,1-.18-.687,1.209,1.209,0,0,1,.214-.7,1.483,1.483,0,0,1,.643-.5,2.649,2.649,0,0,1,1.071-.19,3.512,3.512,0,0,1,.959.136,2.41,2.41,0,0,1,.784.36l-.224.39a2.069,2.069,0,0,0-.721-.351,3.107,3.107,0,0,0-.808-.107,1.751,1.751,0,0,0-1.086.273.835.835,0,0,0-.346.682.712.712,0,0,0,.18.511,1.165,1.165,0,0,0,.482.292A4.485,4.485,0,0,0,62,6.609q.36.063.721.141a3.109,3.109,0,0,1,.662.219,1.221,1.221,0,0,1,.482.39,1.113,1.113,0,0,1,.18.667,1.2,1.2,0,0,1-.229.73,1.482,1.482,0,0,1-.677.487A3.032,3.032,0,0,1,62.039,9.418Zm5.357,0a2.54,2.54,0,0,1-1.3-.331,2.452,2.452,0,0,1-.906-.916,2.628,2.628,0,0,1-.336-1.334A2.621,2.621,0,0,1,65.189,5.5a2.462,2.462,0,0,1,.906-.911,2.54,2.54,0,0,1,1.3-.331,2.566,2.566,0,0,1,1.305.331,2.415,2.415,0,0,1,.906.911,2.652,2.652,0,0,1,.331,1.339,2.659,2.659,0,0,1-.331,1.334,2.4,2.4,0,0,1-.906.916A2.566,2.566,0,0,1,67.4,9.418Zm0-.438a2.078,2.078,0,0,0,1.052-.268,1.88,1.88,0,0,0,.73-.755,2.32,2.32,0,0,0,.263-1.12,2.313,2.313,0,0,0-.263-1.125,1.888,1.888,0,0,0-.73-.75A2.078,2.078,0,0,0,67.4,4.695a2.051,2.051,0,0,0-1.047.268,1.932,1.932,0,0,0-.73.75,2.279,2.279,0,0,0-.268,1.125,2.286,2.286,0,0,0,.268,1.12,1.923,1.923,0,0,0,.73.755A2.051,2.051,0,0,0,67.4,8.98ZM77.778,4.256a2.257,2.257,0,0,1,1.066.239,1.665,1.665,0,0,1,.706.721A2.544,2.544,0,0,1,79.8,6.409V9.379h-.487V6.448A1.844,1.844,0,0,0,78.9,5.143a1.521,1.521,0,0,0-1.169-.448,1.942,1.942,0,0,0-.993.243,1.629,1.629,0,0,0-.643.682,2.287,2.287,0,0,0-.224,1.052V9.379h-.487V6.448a1.844,1.844,0,0,0-.419-1.305,1.521,1.521,0,0,0-1.169-.448,1.942,1.942,0,0,0-.993.243,1.629,1.629,0,0,0-.643.682,2.287,2.287,0,0,0-.224,1.052V9.379h-.487V4.3h.467V5.7l-.068-.156a1.9,1.9,0,0,1,.75-.94,2.253,2.253,0,0,1,1.266-.346,2.1,2.1,0,0,1,1.281.385A1.735,1.735,0,0,1,75.8,5.786l-.166-.068A2.007,2.007,0,0,1,76.4,4.661,2.3,2.3,0,0,1,77.778,4.256Zm9.087,5.162a2.383,2.383,0,0,1-1.213-.312,2.237,2.237,0,0,1-.857-.9,2.841,2.841,0,0,1-.317-1.373,2.827,2.827,0,0,1,.317-1.383,2.253,2.253,0,0,1,.857-.886,2.383,2.383,0,0,1,1.213-.312,2.55,2.55,0,0,1,1.29.326,2.355,2.355,0,0,1,.9.906,2.7,2.7,0,0,1,.326,1.349,2.71,2.71,0,0,1-.326,1.344,2.346,2.346,0,0,1-.9.911A2.55,2.55,0,0,1,86.865,9.418Zm-2.552-.039V2.153H84.8V5.941l-.1.886.078.886V9.379Zm2.523-.4a2.078,2.078,0,0,0,1.052-.268,1.913,1.913,0,0,0,.735-.755,2.286,2.286,0,0,0,.268-1.12,2.279,2.279,0,0,0-.268-1.125,1.922,1.922,0,0,0-.735-.75,2.078,2.078,0,0,0-1.052-.268,2.051,2.051,0,0,0-1.047.268,1.932,1.932,0,0,0-.73.75,2.279,2.279,0,0,0-.268,1.125,2.286,2.286,0,0,0,.268,1.12,1.923,1.923,0,0,0,.73.755A2.051,2.051,0,0,0,86.835,8.98Zm6.116.438a2.726,2.726,0,0,1-1.359-.331,2.41,2.41,0,0,1-.925-.916,2.628,2.628,0,0,1-.336-1.334A2.749,2.749,0,0,1,90.648,5.5a2.352,2.352,0,0,1,.872-.911,2.387,2.387,0,0,1,1.247-.331,2.416,2.416,0,0,1,1.242.321,2.293,2.293,0,0,1,.867.9,2.749,2.749,0,0,1,.317,1.339.449.449,0,0,1,0,.063.518.518,0,0,0,0,.073h-4.49v-.38h4.227l-.195.185a2.113,2.113,0,0,0-.248-1.066,1.937,1.937,0,0,0-.7-.74,1.933,1.933,0,0,0-2.717.74,2.242,2.242,0,0,0-.253,1.076v.088a2.175,2.175,0,0,0,.278,1.105,1.952,1.952,0,0,0,.765.75,2.266,2.266,0,0,0,1.11.268,2.358,2.358,0,0,0,.911-.175,1.79,1.79,0,0,0,.716-.536l.282.321a2.087,2.087,0,0,1-.833.618A2.79,2.79,0,0,1,92.952,9.418Zm6.233-5.162a2.339,2.339,0,0,1,1.086.239,1.679,1.679,0,0,1,.721.721,2.5,2.5,0,0,1,.258,1.193V9.379h-.487V6.448a1.8,1.8,0,0,0-.433-1.305,1.608,1.608,0,0,0-1.213-.448,2.093,2.093,0,0,0-1.032.243,1.627,1.627,0,0,0-.667.682,2.246,2.246,0,0,0-.229,1.052V9.379H96.7V2.153h.487V5.708L97.1,5.552a1.931,1.931,0,0,1,.769-.95A2.375,2.375,0,0,1,99.185,4.256Zm6.058,5.162a2.54,2.54,0,0,1-1.3-.331,2.452,2.452,0,0,1-.906-.916,2.628,2.628,0,0,1-.336-1.334,2.621,2.621,0,0,1,.336-1.339,2.462,2.462,0,0,1,.906-.911,2.54,2.54,0,0,1,1.3-.331,2.566,2.566,0,0,1,1.305.331,2.415,2.415,0,0,1,.906.911,2.652,2.652,0,0,1,.331,1.339,2.659,2.659,0,0,1-.331,1.334,2.4,2.4,0,0,1-.906.916A2.566,2.566,0,0,1,105.243,9.418Zm0-.438a2.078,2.078,0,0,0,1.052-.268,1.88,1.88,0,0,0,.73-.755,2.32,2.32,0,0,0,.263-1.12,2.313,2.313,0,0,0-.263-1.125,1.888,1.888,0,0,0-.73-.75,2.078,2.078,0,0,0-1.052-.268,2.051,2.051,0,0,0-1.047.268,1.932,1.932,0,0,0-.73.75,2.279,2.279,0,0,0-.268,1.125,2.286,2.286,0,0,0,.268,1.12,1.923,1.923,0,0,0,.73.755A2.051,2.051,0,0,0,105.243,8.98ZM106.08,3.2a.343.343,0,0,1-.243-.1.331.331,0,0,1-.107-.248.326.326,0,0,1,.107-.253.352.352,0,0,1,.243-.1.347.347,0,0,1,.248.1.334.334,0,0,1,.1.253.349.349,0,0,1-.351.351Zm-1.675,0a.349.349,0,0,1-.351-.351.334.334,0,0,1,.1-.253.365.365,0,0,1,.5,0,.334.334,0,0,1,.1.253.349.349,0,0,1-.351.351Zm6.029,6.175L108.145,4.3h.516L110.8,9.107h-.234L112.733,4.3h.5l-2.3,5.084Zm5.084.039a3.689,3.689,0,0,1-1.183-.185,2.314,2.314,0,0,1-.852-.467l.224-.39a2.513,2.513,0,0,0,.779.433,3.008,3.008,0,0,0,1.052.18,1.947,1.947,0,0,0,1.149-.263.824.824,0,0,0,.351-.692.665.665,0,0,0-.18-.492,1.181,1.181,0,0,0-.482-.278,4.95,4.95,0,0,0-.662-.161q-.36-.063-.721-.141a2.943,2.943,0,0,1-.662-.224,1.227,1.227,0,0,1-.482-.4,1.178,1.178,0,0,1-.18-.687,1.209,1.209,0,0,1,.214-.7,1.483,1.483,0,0,1,.643-.5,2.649,2.649,0,0,1,1.071-.19,3.512,3.512,0,0,1,.959.136,2.41,2.41,0,0,1,.784.36l-.224.39a2.069,2.069,0,0,0-.721-.351,3.107,3.107,0,0,0-.808-.107,1.751,1.751,0,0,0-1.086.273.835.835,0,0,0-.346.682.712.712,0,0,0,.18.511,1.165,1.165,0,0,0,.482.292,4.485,4.485,0,0,0,.662.166q.36.063.721.141a3.109,3.109,0,0,1,.662.219,1.221,1.221,0,0,1,.482.39,1.113,1.113,0,0,1,.18.667,1.2,1.2,0,0,1-.229.73,1.482,1.482,0,0,1-.677.487A3.032,3.032,0,0,1,115.518,9.418Zm7.353,0a1.359,1.359,0,0,1-1.028-.37,1.4,1.4,0,0,1-.355-1.013V3.185h.487v4.8a1.064,1.064,0,0,0,.243.75.908.908,0,0,0,.7.263,1.13,1.13,0,0,0,.789-.282l.2.341a1.2,1.2,0,0,1-.472.273A1.881,1.881,0,0,1,122.871,9.418Zm-2.318-4.7V4.3h3.039v.419Zm4.714,4.665V4.3h.487V9.379Zm.243-6.321a.385.385,0,0,1-.282-.117.374.374,0,0,1-.117-.273.4.4,0,0,1,.4-.4.389.389,0,0,1,.287.112.377.377,0,0,1,.112.278.393.393,0,0,1-.112.282A.38.38,0,0,1,125.511,3.058Zm2.3,6.321V2.153h.487V9.379Zm2.542,0V2.153h.487V9.379Zm5.045,0V4.3h.487V9.379Zm.243-6.321a.385.385,0,0,1-.282-.117.374.374,0,0,1-.117-.273.4.4,0,0,1,.4-.4.389.389,0,0,1,.287.112.377.377,0,0,1,.112.278.393.393,0,0,1-.112.282A.38.38,0,0,1,135.64,3.058Zm4.782,1.2a2.339,2.339,0,0,1,1.086.239,1.679,1.679,0,0,1,.721.721,2.5,2.5,0,0,1,.258,1.193V9.379H142V6.448a1.8,1.8,0,0,0-.433-1.305,1.608,1.608,0,0,0-1.213-.448,2.092,2.092,0,0,0-1.032.243,1.627,1.627,0,0,0-.667.682,2.246,2.246,0,0,0-.229,1.052V9.379h-.487V4.3h.467V5.708l-.068-.156a1.931,1.931,0,0,1,.769-.95A2.375,2.375,0,0,1,140.422,4.256Zm5.357,5.162a3.689,3.689,0,0,1-1.183-.185,2.314,2.314,0,0,1-.852-.467l.224-.39a2.513,2.513,0,0,0,.779.433,3.008,3.008,0,0,0,1.052.18,1.947,1.947,0,0,0,1.149-.263.824.824,0,0,0,.351-.692.665.665,0,0,0-.18-.492,1.181,1.181,0,0,0-.482-.278,4.951,4.951,0,0,0-.662-.161q-.36-.063-.721-.141a2.943,2.943,0,0,1-.662-.224,1.227,1.227,0,0,1-.482-.4,1.178,1.178,0,0,1-.18-.687,1.209,1.209,0,0,1,.214-.7,1.483,1.483,0,0,1,.643-.5,2.649,2.649,0,0,1,1.071-.19,3.512,3.512,0,0,1,.959.136,2.41,2.41,0,0,1,.784.36l-.224.39a2.069,2.069,0,0,0-.721-.351,3.107,3.107,0,0,0-.808-.107,1.751,1.751,0,0,0-1.086.273.835.835,0,0,0-.346.682.712.712,0,0,0,.18.511,1.165,1.165,0,0,0,.482.292,4.485,4.485,0,0,0,.662.166q.36.063.721.141a3.109,3.109,0,0,1,.662.219,1.221,1.221,0,0,1,.482.39,1.113,1.113,0,0,1,.18.667,1.2,1.2,0,0,1-.229.73,1.482,1.482,0,0,1-.677.487A3.032,3.032,0,0,1,145.779,9.418Zm4.85,0a1.359,1.359,0,0,1-1.028-.37,1.4,1.4,0,0,1-.355-1.013V3.185h.487v4.8a1.064,1.064,0,0,0,.243.75.908.908,0,0,0,.7.263,1.13,1.13,0,0,0,.789-.282l.2.341a1.2,1.2,0,0,1-.472.273A1.881,1.881,0,0,1,150.629,9.418Zm-2.318-4.7V4.3h3.039v.419Zm7.918,4.665V8.22l-.019-.175V6.136a1.432,1.432,0,0,0-.385-1.081,1.561,1.561,0,0,0-1.125-.37,2.675,2.675,0,0,0-1.753.643l-.243-.351a2.706,2.706,0,0,1,.916-.531,3.327,3.327,0,0,1,1.12-.19,2.037,2.037,0,0,1,1.451.477,1.863,1.863,0,0,1,.506,1.422V9.379Zm-1.831.039a2.439,2.439,0,0,1-.979-.18,1.409,1.409,0,0,1-.633-.511,1.345,1.345,0,0,1-.219-.76,1.4,1.4,0,0,1,.18-.706,1.3,1.3,0,0,1,.6-.516,2.631,2.631,0,0,1,1.12-.2h1.87v.38h-1.86a1.629,1.629,0,0,0-1.105.292.953.953,0,0,0-.317.73.942.942,0,0,0,.37.779,1.645,1.645,0,0,0,1.042.292,1.93,1.93,0,0,0,1.086-.292,1.723,1.723,0,0,0,.657-.847l.136.331a1.764,1.764,0,0,1-.7.881A2.22,2.22,0,0,1,154.4,9.418Zm6.788-5.162a2.339,2.339,0,0,1,1.086.239,1.679,1.679,0,0,1,.721.721,2.5,2.5,0,0,1,.258,1.193V9.379h-.487V6.448a1.8,1.8,0,0,0-.433-1.305,1.608,1.608,0,0,0-1.213-.448,2.093,2.093,0,0,0-1.032.243,1.627,1.627,0,0,0-.667.682,2.246,2.246,0,0,0-.229,1.052V9.379H158.7V4.3h.467V5.708l-.068-.156a1.931,1.931,0,0,1,.769-.95A2.375,2.375,0,0,1,161.186,4.256Zm5.357,5.162a3.689,3.689,0,0,1-1.183-.185,2.314,2.314,0,0,1-.852-.467l.224-.39a2.513,2.513,0,0,0,.779.433,3.008,3.008,0,0,0,1.052.18,1.947,1.947,0,0,0,1.149-.263.824.824,0,0,0,.351-.692.665.665,0,0,0-.18-.492,1.181,1.181,0,0,0-.482-.278,4.95,4.95,0,0,0-.662-.161q-.36-.063-.721-.141a2.942,2.942,0,0,1-.662-.224,1.227,1.227,0,0,1-.482-.4,1.178,1.178,0,0,1-.18-.687,1.209,1.209,0,0,1,.214-.7,1.483,1.483,0,0,1,.643-.5,2.649,2.649,0,0,1,1.071-.19,3.512,3.512,0,0,1,.959.136,2.41,2.41,0,0,1,.784.36l-.224.39a2.069,2.069,0,0,0-.721-.351,3.106,3.106,0,0,0-.808-.107,1.751,1.751,0,0,0-1.086.273.835.835,0,0,0-.346.682.712.712,0,0,0,.18.511,1.165,1.165,0,0,0,.482.292,4.485,4.485,0,0,0,.662.166q.36.063.721.141a3.109,3.109,0,0,1,.662.219,1.221,1.221,0,0,1,.482.39,1.113,1.113,0,0,1,.18.667,1.2,1.2,0,0,1-.229.73,1.482,1.482,0,0,1-.677.487A3.032,3.032,0,0,1,166.543,9.418Zm5.435,0a2.726,2.726,0,0,1-1.359-.331,2.41,2.41,0,0,1-.925-.916,2.628,2.628,0,0,1-.336-1.334,2.749,2.749,0,0,1,.317-1.339,2.352,2.352,0,0,1,.872-.911,2.387,2.387,0,0,1,1.247-.331,2.416,2.416,0,0,1,1.242.321,2.293,2.293,0,0,1,.867.9,2.749,2.749,0,0,1,.317,1.339.449.449,0,0,1,0,.063.517.517,0,0,0,0,.073h-4.49v-.38h4.227l-.195.185a2.113,2.113,0,0,0-.248-1.066,1.937,1.937,0,0,0-.7-.74,1.933,1.933,0,0,0-2.717.74,2.242,2.242,0,0,0-.253,1.076v.088a2.175,2.175,0,0,0,.278,1.105,1.952,1.952,0,0,0,.765.75,2.266,2.266,0,0,0,1.11.268A2.358,2.358,0,0,0,172.9,8.8a1.79,1.79,0,0,0,.716-.536l.282.321a2.086,2.086,0,0,1-.833.618A2.79,2.79,0,0,1,171.978,9.418Zm3.75-.039V4.3h.467V5.688l-.049-.156a1.8,1.8,0,0,1,.721-.945,2.268,2.268,0,0,1,1.266-.331v.477a.355.355,0,0,1-.058,0,.355.355,0,0,0-.058,0,1.69,1.69,0,0,0-1.325.531,2.128,2.128,0,0,0-.477,1.476V9.379Zm6.233-5.123a2.339,2.339,0,0,1,1.086.239,1.679,1.679,0,0,1,.721.721,2.5,2.5,0,0,1,.258,1.193V9.379h-.487V6.448a1.8,1.8,0,0,0-.433-1.305,1.608,1.608,0,0,0-1.213-.448,2.093,2.093,0,0,0-1.032.243,1.627,1.627,0,0,0-.667.682,2.246,2.246,0,0,0-.229,1.052V9.379h-.487V4.3h.467V5.708l-.068-.156a1.931,1.931,0,0,1,.769-.95A2.375,2.375,0,0,1,181.961,4.256Zm7.275,5.123V8.22l-.019-.175V6.136a1.432,1.432,0,0,0-.385-1.081,1.561,1.561,0,0,0-1.125-.37,2.675,2.675,0,0,0-1.753.643l-.243-.351a2.706,2.706,0,0,1,.916-.531,3.327,3.327,0,0,1,1.12-.19,2.037,2.037,0,0,1,1.451.477,1.863,1.863,0,0,1,.506,1.422V9.379Zm-1.831.039a2.439,2.439,0,0,1-.979-.18,1.409,1.409,0,0,1-.633-.511,1.345,1.345,0,0,1-.219-.76,1.4,1.4,0,0,1,.18-.706,1.3,1.3,0,0,1,.6-.516,2.631,2.631,0,0,1,1.12-.2h1.87v.38h-1.86a1.629,1.629,0,0,0-1.105.292.953.953,0,0,0-.317.73.942.942,0,0,0,.37.779,1.645,1.645,0,0,0,1.042.292,1.93,1.93,0,0,0,1.086-.292,1.723,1.723,0,0,0,.657-.847l.136.331a1.764,1.764,0,0,1-.7.881A2.22,2.22,0,0,1,187.4,9.418Zm10.012-.039V8.22l-.019-.175V6.136a1.432,1.432,0,0,0-.385-1.081,1.561,1.561,0,0,0-1.125-.37,2.675,2.675,0,0,0-1.753.643l-.243-.351a2.706,2.706,0,0,1,.916-.531,3.327,3.327,0,0,1,1.12-.19,2.037,2.037,0,0,1,1.451.477,1.863,1.863,0,0,1,.506,1.422V9.379Zm-1.831.039a2.439,2.439,0,0,1-.979-.18,1.409,1.409,0,0,1-.633-.511,1.345,1.345,0,0,1-.219-.76,1.4,1.4,0,0,1,.18-.706,1.3,1.3,0,0,1,.6-.516,2.631,2.631,0,0,1,1.12-.2h1.87v.38h-1.86a1.629,1.629,0,0,0-1.105.292.953.953,0,0,0-.317.73.942.942,0,0,0,.37.779,1.645,1.645,0,0,0,1.042.292,1.93,1.93,0,0,0,1.086-.292,1.723,1.723,0,0,0,.657-.847l.136.331a1.764,1.764,0,0,1-.7.881A2.22,2.22,0,0,1,195.586,9.418ZM196.745,3.2a.343.343,0,0,1-.243-.1.331.331,0,0,1-.107-.248A.326.326,0,0,1,196.5,2.6a.352.352,0,0,1,.243-.1.347.347,0,0,1,.248.1.334.334,0,0,1,.1.253.349.349,0,0,1-.351.351Zm-1.675,0a.349.349,0,0,1-.351-.351.334.334,0,0,1,.1-.253.365.365,0,0,1,.5,0,.334.334,0,0,1,.1.253.349.349,0,0,1-.351.351Zm4.821,6.175V4.3h.467V5.688l-.049-.156a1.8,1.8,0,0,1,.721-.945,2.268,2.268,0,0,1,1.266-.331v.477a.355.355,0,0,1-.058,0,.355.355,0,0,0-.058,0,1.69,1.69,0,0,0-1.325.531,2.128,2.128,0,0,0-.477,1.476V9.379Zm7.626.039a3.689,3.689,0,0,1-1.183-.185,2.314,2.314,0,0,1-.852-.467l.224-.39a2.513,2.513,0,0,0,.779.433,3.008,3.008,0,0,0,1.052.18,1.947,1.947,0,0,0,1.149-.263.824.824,0,0,0,.351-.692.665.665,0,0,0-.18-.492,1.181,1.181,0,0,0-.482-.278,4.95,4.95,0,0,0-.662-.161q-.36-.063-.721-.141a2.942,2.942,0,0,1-.662-.224,1.227,1.227,0,0,1-.482-.4,1.178,1.178,0,0,1-.18-.687,1.209,1.209,0,0,1,.214-.7,1.483,1.483,0,0,1,.643-.5,2.648,2.648,0,0,1,1.071-.19,3.512,3.512,0,0,1,.959.136,2.41,2.41,0,0,1,.784.36l-.224.39a2.069,2.069,0,0,0-.721-.351,3.106,3.106,0,0,0-.808-.107,1.751,1.751,0,0,0-1.086.273.835.835,0,0,0-.346.682.712.712,0,0,0,.18.511,1.165,1.165,0,0,0,.482.292,4.484,4.484,0,0,0,.662.166q.36.063.721.141a3.109,3.109,0,0,1,.662.219,1.221,1.221,0,0,1,.482.39,1.113,1.113,0,0,1,.18.667,1.2,1.2,0,0,1-.229.73,1.482,1.482,0,0,1-.677.487A3.032,3.032,0,0,1,207.517,9.418Zm5.435,0a2.726,2.726,0,0,1-1.359-.331,2.41,2.41,0,0,1-.925-.916,2.628,2.628,0,0,1-.336-1.334,2.749,2.749,0,0,1,.317-1.339,2.352,2.352,0,0,1,.872-.911,2.387,2.387,0,0,1,1.247-.331,2.416,2.416,0,0,1,1.242.321,2.293,2.293,0,0,1,.867.9,2.749,2.749,0,0,1,.317,1.339.449.449,0,0,1,0,.063.517.517,0,0,0,0,.073h-4.49v-.38h4.227l-.195.185a2.113,2.113,0,0,0-.248-1.066,1.937,1.937,0,0,0-.7-.74,1.933,1.933,0,0,0-2.717.74,2.242,2.242,0,0,0-.253,1.076v.088a2.176,2.176,0,0,0,.278,1.105,1.952,1.952,0,0,0,.765.75,2.266,2.266,0,0,0,1.11.268,2.358,2.358,0,0,0,.911-.175,1.79,1.79,0,0,0,.716-.536l.282.321a2.086,2.086,0,0,1-.833.618A2.79,2.79,0,0,1,212.952,9.418Zm6.3,0a2.383,2.383,0,0,1-1.213-.312,2.245,2.245,0,0,1-.857-.891,2.834,2.834,0,0,1-.317-1.378,2.834,2.834,0,0,1,.317-1.378,2.245,2.245,0,0,1,.857-.891,2.383,2.383,0,0,1,1.213-.312,2.55,2.55,0,0,1,1.29.326,2.346,2.346,0,0,1,.9.911,2.71,2.71,0,0,1,.326,1.344,2.71,2.71,0,0,1-.326,1.344,2.346,2.346,0,0,1-.9.911A2.55,2.55,0,0,1,219.253,9.418Zm-2.552,1.85V4.3h.467V5.961l-.078.886.1.886v3.535Zm2.523-2.289a2.078,2.078,0,0,0,1.052-.268,1.913,1.913,0,0,0,.735-.755,2.286,2.286,0,0,0,.268-1.12,2.279,2.279,0,0,0-.268-1.125,1.922,1.922,0,0,0-.735-.75,2.078,2.078,0,0,0-1.052-.268,2.051,2.051,0,0,0-1.047.268,1.932,1.932,0,0,0-.73.75,2.279,2.279,0,0,0-.268,1.125,2.286,2.286,0,0,0,.268,1.12,1.923,1.923,0,0,0,.73.755A2.051,2.051,0,0,0,219.224,8.98Zm7.236.4V8.22l-.019-.175V6.136a1.432,1.432,0,0,0-.385-1.081,1.561,1.561,0,0,0-1.125-.37,2.675,2.675,0,0,0-1.753.643l-.243-.351a2.706,2.706,0,0,1,.916-.531,3.327,3.327,0,0,1,1.12-.19,2.036,2.036,0,0,1,1.451.477,1.863,1.863,0,0,1,.506,1.422V9.379Zm-1.831.039a2.439,2.439,0,0,1-.979-.18,1.409,1.409,0,0,1-.633-.511,1.345,1.345,0,0,1-.219-.76,1.4,1.4,0,0,1,.18-.706,1.3,1.3,0,0,1,.6-.516,2.631,2.631,0,0,1,1.12-.2h1.87v.38h-1.86a1.629,1.629,0,0,0-1.105.292.953.953,0,0,0-.317.73.942.942,0,0,0,.37.779,1.645,1.645,0,0,0,1.042.292,1.93,1.93,0,0,0,1.086-.292,1.723,1.723,0,0,0,.657-.847l.136.331a1.763,1.763,0,0,1-.7.881A2.22,2.22,0,0,1,224.629,9.418Zm4.3-.039V4.3h.467V5.688l-.049-.156a1.8,1.8,0,0,1,.721-.945,2.268,2.268,0,0,1,1.266-.331v.477a.355.355,0,0,1-.058,0,.355.355,0,0,0-.058,0,1.69,1.69,0,0,0-1.325.531,2.128,2.128,0,0,0-.477,1.476V9.379Zm5.766.039a2.726,2.726,0,0,1-1.359-.331,2.41,2.41,0,0,1-.925-.916,2.628,2.628,0,0,1-.336-1.334A2.749,2.749,0,0,1,232.4,5.5a2.352,2.352,0,0,1,.872-.911,2.387,2.387,0,0,1,1.247-.331,2.416,2.416,0,0,1,1.242.321,2.293,2.293,0,0,1,.867.9,2.749,2.749,0,0,1,.317,1.339.449.449,0,0,1,0,.063.517.517,0,0,0,0,.073h-4.49v-.38h4.227l-.195.185a2.113,2.113,0,0,0-.248-1.066,1.937,1.937,0,0,0-.7-.74,1.933,1.933,0,0,0-2.717.74,2.242,2.242,0,0,0-.253,1.076v.088a2.175,2.175,0,0,0,.278,1.105,1.952,1.952,0,0,0,.765.75,2.266,2.266,0,0,0,1.11.268,2.358,2.358,0,0,0,.911-.175,1.79,1.79,0,0,0,.716-.536l.282.321a2.086,2.086,0,0,1-.833.618A2.79,2.79,0,0,1,234.7,9.418Zm3.75-.039V4.3h.467V5.688l-.049-.156a1.8,1.8,0,0,1,.721-.945,2.268,2.268,0,0,1,1.266-.331v.477a.355.355,0,0,1-.058,0,.355.355,0,0,0-.058,0,1.69,1.69,0,0,0-1.325.531,2.128,2.128,0,0,0-.477,1.476V9.379Zm6.574,0V8.22L245,8.045V6.136a1.432,1.432,0,0,0-.385-1.081,1.561,1.561,0,0,0-1.125-.37,2.675,2.675,0,0,0-1.753.643l-.243-.351a2.706,2.706,0,0,1,.915-.531,3.327,3.327,0,0,1,1.12-.19,2.037,2.037,0,0,1,1.451.477,1.863,1.863,0,0,1,.506,1.422V9.379Zm-1.831.039a2.439,2.439,0,0,1-.979-.18,1.409,1.409,0,0,1-.633-.511,1.345,1.345,0,0,1-.219-.76,1.4,1.4,0,0,1,.18-.706,1.305,1.305,0,0,1,.6-.516,2.631,2.631,0,0,1,1.12-.2h1.87v.38h-1.86a1.629,1.629,0,0,0-1.105.292.953.953,0,0,0-.317.73.942.942,0,0,0,.37.779,1.645,1.645,0,0,0,1.042.292,1.93,1.93,0,0,0,1.086-.292A1.723,1.723,0,0,0,245,7.88l.136.331a1.764,1.764,0,0,1-.7.881A2.22,2.22,0,0,1,243.193,9.418Zm6.262,0a2.531,2.531,0,0,1-1.281-.326,2.38,2.38,0,0,1-.9-.911,2.679,2.679,0,0,1-.331-1.344,2.671,2.671,0,0,1,.331-1.349,2.39,2.39,0,0,1,.9-.906,2.531,2.531,0,0,1,1.281-.326,2.383,2.383,0,0,1,1.213.312,2.253,2.253,0,0,1,.857.886,2.827,2.827,0,0,1,.317,1.383,2.877,2.877,0,0,1-.312,1.373,2.2,2.2,0,0,1-.852.9A2.4,2.4,0,0,1,249.455,9.418Zm.029-.438a2.051,2.051,0,0,0,1.047-.268,1.923,1.923,0,0,0,.73-.755,2.286,2.286,0,0,0,.268-1.12,2.279,2.279,0,0,0-.268-1.125,1.932,1.932,0,0,0-.73-.75,2.18,2.18,0,0,0-2.094,0,1.932,1.932,0,0,0-.73.75,2.279,2.279,0,0,0-.268,1.125,2.286,2.286,0,0,0,.268,1.12,1.923,1.923,0,0,0,.73.755A2.051,2.051,0,0,0,249.484,8.98Zm2.055.4V7.714l.088-.886-.1-.886V2.153h.487V9.379Zm5.133,0V3.516a1.417,1.417,0,0,1,.365-1.018,1.375,1.375,0,0,1,1.047-.385,1.9,1.9,0,0,1,.555.083,1.109,1.109,0,0,1,.448.248l-.195.37a.883.883,0,0,0-.351-.214,1.377,1.377,0,0,0-.438-.068.931.931,0,0,0-.711.258,1.076,1.076,0,0,0-.243.765v.857l.01.234V9.379Zm-.935-4.665V4.3h3.039v.419Zm4.032,4.665V4.3h.467V5.688l-.049-.156a1.8,1.8,0,0,1,.721-.945,2.267,2.267,0,0,1,1.266-.331v.477a.355.355,0,0,1-.058,0,.355.355,0,0,0-.058,0,1.69,1.69,0,0,0-1.325.531,2.129,2.129,0,0,0-.477,1.476V9.379Zm6.574,0V8.22l-.019-.175V6.136a1.432,1.432,0,0,0-.385-1.081,1.561,1.561,0,0,0-1.125-.37,2.675,2.675,0,0,0-1.753.643l-.243-.351a2.706,2.706,0,0,1,.915-.531,3.327,3.327,0,0,1,1.12-.19,2.036,2.036,0,0,1,1.451.477,1.863,1.863,0,0,1,.506,1.422V9.379Zm-1.831.039a2.439,2.439,0,0,1-.979-.18,1.409,1.409,0,0,1-.633-.511,1.345,1.345,0,0,1-.219-.76,1.4,1.4,0,0,1,.18-.706,1.3,1.3,0,0,1,.6-.516,2.631,2.631,0,0,1,1.12-.2h1.87v.38h-1.86a1.629,1.629,0,0,0-1.105.292.953.953,0,0,0-.317.73.942.942,0,0,0,.37.779,1.645,1.645,0,0,0,1.042.292,1.93,1.93,0,0,0,1.086-.292,1.723,1.723,0,0,0,.657-.847l.136.331a1.764,1.764,0,0,1-.7.881A2.22,2.22,0,0,1,264.512,9.418Zm.312-5.844a.93.93,0,0,1-.5-.131.993.993,0,0,1-.341-.346.9.9,0,0,1-.127-.467.946.946,0,0,1,.127-.482,1.007,1.007,0,0,1,.346-.355.912.912,0,0,1,.492-.136.93.93,0,0,1,.5.136,1.006,1.006,0,0,1,.346.355.946.946,0,0,1,.127.482.9.9,0,0,1-.127.467.979.979,0,0,1-.346.346A.956.956,0,0,1,264.824,3.575Zm0-.273a.658.658,0,0,0,.682-.672.691.691,0,0,0-.19-.487.688.688,0,0,0-.974,0,.686.686,0,0,0-.19.492.667.667,0,0,0,.185.477A.641.641,0,0,0,264.824,3.3Zm6.477.954a2.339,2.339,0,0,1,1.086.239,1.679,1.679,0,0,1,.721.721,2.5,2.5,0,0,1,.258,1.193V9.379h-.487V6.448a1.8,1.8,0,0,0-.433-1.305,1.609,1.609,0,0,0-1.213-.448,2.092,2.092,0,0,0-1.032.243,1.627,1.627,0,0,0-.667.682,2.246,2.246,0,0,0-.229,1.052V9.379h-.487V4.3h.467V5.708l-.068-.156a1.93,1.93,0,0,1,.769-.95A2.375,2.375,0,0,1,271.3,4.256Zm9.058,0a2.339,2.339,0,0,1,1.086.239,1.679,1.679,0,0,1,.721.721,2.5,2.5,0,0,1,.258,1.193V9.379h-.487V6.448a1.8,1.8,0,0,0-.433-1.305,1.608,1.608,0,0,0-1.213-.448,2.092,2.092,0,0,0-1.032.243,1.627,1.627,0,0,0-.667.682,2.246,2.246,0,0,0-.229,1.052V9.379h-.487V4.3h.467V5.708l-.068-.156a1.931,1.931,0,0,1,.769-.95A2.375,2.375,0,0,1,280.358,4.256Zm6.058,5.162a2.54,2.54,0,0,1-1.3-.331,2.452,2.452,0,0,1-.906-.916,2.628,2.628,0,0,1-.336-1.334A2.621,2.621,0,0,1,284.21,5.5a2.462,2.462,0,0,1,.906-.911,2.54,2.54,0,0,1,1.3-.331,2.566,2.566,0,0,1,1.305.331,2.415,2.415,0,0,1,.906.911,2.652,2.652,0,0,1,.331,1.339,2.659,2.659,0,0,1-.331,1.334,2.4,2.4,0,0,1-.906.916A2.566,2.566,0,0,1,286.416,9.418Zm0-.438a2.078,2.078,0,0,0,1.052-.268,1.88,1.88,0,0,0,.73-.755,2.32,2.32,0,0,0,.263-1.12,2.313,2.313,0,0,0-.263-1.125,1.888,1.888,0,0,0-.73-.75,2.078,2.078,0,0,0-1.052-.268,2.051,2.051,0,0,0-1.047.268,1.932,1.932,0,0,0-.73.75,2.279,2.279,0,0,0-.268,1.125,2.286,2.286,0,0,0,.268,1.12,1.923,1.923,0,0,0,.73.755A2.051,2.051,0,0,0,286.416,8.98Zm6.009.438a2.531,2.531,0,0,1-1.281-.326,2.38,2.38,0,0,1-.9-.911,2.679,2.679,0,0,1-.331-1.344,2.671,2.671,0,0,1,.331-1.349,2.39,2.39,0,0,1,.9-.906,2.531,2.531,0,0,1,1.281-.326,2.383,2.383,0,0,1,1.213.312,2.253,2.253,0,0,1,.857.886,2.827,2.827,0,0,1,.317,1.383,2.877,2.877,0,0,1-.312,1.373,2.2,2.2,0,0,1-.852.9A2.4,2.4,0,0,1,292.426,9.418Zm.029-.438a2.051,2.051,0,0,0,1.047-.268,1.923,1.923,0,0,0,.73-.755,2.286,2.286,0,0,0,.268-1.12,2.279,2.279,0,0,0-.268-1.125,1.932,1.932,0,0,0-.73-.75,2.18,2.18,0,0,0-2.094,0,1.932,1.932,0,0,0-.73.75,2.279,2.279,0,0,0-.268,1.125,2.286,2.286,0,0,0,.268,1.12,1.923,1.923,0,0,0,.73.755A2.051,2.051,0,0,0,292.455,8.98Zm2.055.4V7.714l.088-.886-.1-.886V2.153h.487V9.379Zm4.6.039a2.726,2.726,0,0,1-1.359-.331,2.41,2.41,0,0,1-.925-.916,2.628,2.628,0,0,1-.336-1.334A2.749,2.749,0,0,1,296.8,5.5a2.352,2.352,0,0,1,.872-.911,2.387,2.387,0,0,1,1.247-.331,2.416,2.416,0,0,1,1.242.321,2.293,2.293,0,0,1,.867.9,2.749,2.749,0,0,1,.317,1.339.447.447,0,0,1,0,.063.519.519,0,0,0,0,.073h-4.49v-.38h4.227l-.195.185a2.113,2.113,0,0,0-.248-1.066,1.937,1.937,0,0,0-.7-.74,1.933,1.933,0,0,0-2.717.74,2.242,2.242,0,0,0-.253,1.076v.088a2.175,2.175,0,0,0,.278,1.105,1.952,1.952,0,0,0,.765.75,2.266,2.266,0,0,0,1.11.268,2.358,2.358,0,0,0,.911-.175,1.79,1.79,0,0,0,.716-.536l.282.321a2.086,2.086,0,0,1-.833.618A2.791,2.791,0,0,1,299.107,9.418Zm3.75-.039V4.3h.467V5.688l-.049-.156A1.8,1.8,0,0,1,304,4.588a2.267,2.267,0,0,1,1.266-.331v.477a.355.355,0,0,1-.058,0,.355.355,0,0,0-.058,0,1.69,1.69,0,0,0-1.325.531,2.129,2.129,0,0,0-.477,1.476V9.379Zm6.233-5.123a2.339,2.339,0,0,1,1.086.239,1.679,1.679,0,0,1,.721.721,2.5,2.5,0,0,1,.258,1.193V9.379h-.487V6.448a1.8,1.8,0,0,0-.433-1.305,1.608,1.608,0,0,0-1.213-.448,2.093,2.093,0,0,0-1.032.243,1.627,1.627,0,0,0-.667.682,2.246,2.246,0,0,0-.229,1.052V9.379h-.487V4.3h.467V5.708l-.068-.156a1.931,1.931,0,0,1,.769-.95A2.375,2.375,0,0,1,309.09,4.256Zm7.275,5.123V8.22l-.02-.175V6.136a1.432,1.432,0,0,0-.385-1.081,1.561,1.561,0,0,0-1.125-.37,2.675,2.675,0,0,0-1.753.643l-.243-.351a2.706,2.706,0,0,1,.915-.531,3.327,3.327,0,0,1,1.12-.19,2.036,2.036,0,0,1,1.451.477,1.863,1.863,0,0,1,.506,1.422V9.379Zm-1.831.039a2.439,2.439,0,0,1-.979-.18,1.409,1.409,0,0,1-.633-.511,1.345,1.345,0,0,1-.219-.76,1.4,1.4,0,0,1,.18-.706,1.3,1.3,0,0,1,.6-.516,2.631,2.631,0,0,1,1.12-.2h1.87v.38h-1.86a1.629,1.629,0,0,0-1.105.292.953.953,0,0,0-.316.73.942.942,0,0,0,.37.779,1.645,1.645,0,0,0,1.042.292,1.93,1.93,0,0,0,1.086-.292,1.723,1.723,0,0,0,.657-.847l.136.331a1.764,1.764,0,0,1-.7.881A2.22,2.22,0,0,1,314.534,9.418Zm8.766,0a2.531,2.531,0,0,1-1.281-.326,2.38,2.38,0,0,1-.9-.911,2.679,2.679,0,0,1-.331-1.344,2.671,2.671,0,0,1,.331-1.349,2.39,2.39,0,0,1,.9-.906,2.531,2.531,0,0,1,1.281-.326,2.383,2.383,0,0,1,1.213.312,2.253,2.253,0,0,1,.857.886,2.827,2.827,0,0,1,.316,1.383,2.877,2.877,0,0,1-.312,1.373,2.2,2.2,0,0,1-.852.9A2.4,2.4,0,0,1,323.3,9.418Zm.029-.438a2.051,2.051,0,0,0,1.047-.268,1.923,1.923,0,0,0,.73-.755,2.286,2.286,0,0,0,.268-1.12,2.279,2.279,0,0,0-.268-1.125,1.932,1.932,0,0,0-.73-.75,2.18,2.18,0,0,0-2.094,0,1.932,1.932,0,0,0-.73.75,2.279,2.279,0,0,0-.268,1.125,2.286,2.286,0,0,0,.268,1.12,1.923,1.923,0,0,0,.73.755A2.051,2.051,0,0,0,323.329,8.98Zm2.055.4V7.714l.088-.886-.1-.886V2.153h.487V9.379Zm5.737,0V8.22l-.02-.175V6.136a1.432,1.432,0,0,0-.385-1.081,1.561,1.561,0,0,0-1.125-.37,2.675,2.675,0,0,0-1.753.643l-.243-.351a2.706,2.706,0,0,1,.915-.531,3.327,3.327,0,0,1,1.12-.19,2.036,2.036,0,0,1,1.451.477,1.863,1.863,0,0,1,.507,1.422V9.379Zm-1.831.039a2.439,2.439,0,0,1-.979-.18,1.409,1.409,0,0,1-.633-.511,1.345,1.345,0,0,1-.219-.76,1.4,1.4,0,0,1,.18-.706,1.3,1.3,0,0,1,.6-.516,2.631,2.631,0,0,1,1.12-.2h1.87v.38h-1.86a1.629,1.629,0,0,0-1.105.292.953.953,0,0,0-.316.73.942.942,0,0,0,.37.779,1.645,1.645,0,0,0,1.042.292,1.93,1.93,0,0,0,1.086-.292,1.723,1.723,0,0,0,.657-.847l.136.331a1.764,1.764,0,0,1-.7.881A2.22,2.22,0,0,1,329.29,9.418ZM330.449,3.2a.343.343,0,0,1-.243-.1.331.331,0,0,1-.107-.248.326.326,0,0,1,.107-.253.352.352,0,0,1,.243-.1.347.347,0,0,1,.248.1.334.334,0,0,1,.1.253.349.349,0,0,1-.351.351Zm-1.675,0a.349.349,0,0,1-.351-.351.334.334,0,0,1,.1-.253.365.365,0,0,1,.5,0,.334.334,0,0,1,.1.253.349.349,0,0,1-.351.351Zm4.821,6.175V4.3h.467V5.688l-.049-.156a1.8,1.8,0,0,1,.721-.945A2.268,2.268,0,0,1,336,4.256v.477a.355.355,0,0,1-.058,0,.355.355,0,0,0-.058,0,1.69,1.69,0,0,0-1.325.531,2.128,2.128,0,0,0-.477,1.476V9.379ZM2.268,21.593a3.689,3.689,0,0,1-1.183-.185,2.314,2.314,0,0,1-.852-.467l.224-.39a2.513,2.513,0,0,0,.779.433,3.008,3.008,0,0,0,1.052.18A1.947,1.947,0,0,0,3.436,20.9a.824.824,0,0,0,.351-.692.665.665,0,0,0-.18-.492,1.181,1.181,0,0,0-.482-.278,4.95,4.95,0,0,0-.662-.161q-.36-.063-.721-.141a2.943,2.943,0,0,1-.662-.224,1.227,1.227,0,0,1-.482-.4,1.178,1.178,0,0,1-.18-.687,1.209,1.209,0,0,1,.214-.7,1.483,1.483,0,0,1,.643-.5,2.649,2.649,0,0,1,1.071-.19,3.512,3.512,0,0,1,.959.136,2.41,2.41,0,0,1,.784.36l-.224.39a2.069,2.069,0,0,0-.721-.351,3.107,3.107,0,0,0-.808-.107,1.751,1.751,0,0,0-1.086.273.835.835,0,0,0-.346.682.712.712,0,0,0,.18.511,1.165,1.165,0,0,0,.482.292,4.485,4.485,0,0,0,.662.166q.36.063.721.141a3.109,3.109,0,0,1,.662.219,1.221,1.221,0,0,1,.482.39,1.113,1.113,0,0,1,.18.667,1.2,1.2,0,0,1-.229.73,1.482,1.482,0,0,1-.677.487A3.032,3.032,0,0,1,2.268,21.593ZM4.8,23.482a2.067,2.067,0,0,1-.584-.083,1.128,1.128,0,0,1-.467-.258l.195-.36a1.208,1.208,0,0,0,.828.282.867.867,0,0,0,.677-.263,1.093,1.093,0,0,0,.239-.76V16.47h.487v5.59a1.472,1.472,0,0,1-.355,1.032A1.308,1.308,0,0,1,4.8,23.482Zm1.13-8.249a.385.385,0,0,1-.282-.117.374.374,0,0,1-.117-.273.4.4,0,0,1,.4-.4.389.389,0,0,1,.287.112.377.377,0,0,1,.112.278.393.393,0,0,1-.112.282A.38.38,0,0,1,5.93,15.233Zm5.5,6.321V20.395l-.019-.175V18.31a1.432,1.432,0,0,0-.385-1.081,1.561,1.561,0,0,0-1.125-.37A2.675,2.675,0,0,0,8.15,17.5l-.243-.351a2.706,2.706,0,0,1,.916-.531,3.327,3.327,0,0,1,1.12-.19,2.037,2.037,0,0,1,1.451.477A1.863,1.863,0,0,1,11.9,18.33v3.224ZM9.6,21.593a2.439,2.439,0,0,1-.979-.18,1.409,1.409,0,0,1-.633-.511,1.345,1.345,0,0,1-.219-.76,1.4,1.4,0,0,1,.18-.706,1.3,1.3,0,0,1,.6-.516,2.631,2.631,0,0,1,1.12-.2h1.87v.38H9.679a1.629,1.629,0,0,0-1.105.292.953.953,0,0,0-.317.73.942.942,0,0,0,.37.779,1.645,1.645,0,0,0,1.042.292,1.93,1.93,0,0,0,1.086-.292,1.723,1.723,0,0,0,.657-.847l.136.331a1.763,1.763,0,0,1-.7.881A2.22,2.22,0,0,1,9.6,21.593Zm1.159-6.214a.343.343,0,0,1-.243-.1.331.331,0,0,1-.107-.248.326.326,0,0,1,.107-.253.352.352,0,0,1,.243-.1.347.347,0,0,1,.248.1.334.334,0,0,1,.1.253.349.349,0,0,1-.351.351Zm-1.675,0a.349.349,0,0,1-.351-.351.334.334,0,0,1,.1-.253.365.365,0,0,1,.5,0,.334.334,0,0,1,.1.253.349.349,0,0,1-.351.351Zm4.821,6.175V14.327h.487v7.227Zm3.828,0L15.445,16.47h.516L18.1,21.281H17.87l2.162-4.811h.5l-2.3,5.084Zm6.905,0V20.395l-.019-.175V18.31a1.432,1.432,0,0,0-.385-1.081,1.561,1.561,0,0,0-1.125-.37,2.675,2.675,0,0,0-1.753.643l-.243-.351a2.706,2.706,0,0,1,.916-.531,3.327,3.327,0,0,1,1.12-.19,2.037,2.037,0,0,1,1.451.477,1.863,1.863,0,0,1,.506,1.422v3.224Zm-1.831.039a2.439,2.439,0,0,1-.979-.18A1.409,1.409,0,0,1,21.2,20.9a1.345,1.345,0,0,1-.219-.76,1.4,1.4,0,0,1,.18-.706,1.3,1.3,0,0,1,.6-.516,2.631,2.631,0,0,1,1.12-.2h1.87v.38h-1.86a1.629,1.629,0,0,0-1.105.292.953.953,0,0,0-.317.73.942.942,0,0,0,.37.779,1.645,1.645,0,0,0,1.042.292,1.93,1.93,0,0,0,1.086-.292,1.723,1.723,0,0,0,.657-.847l.136.331a1.763,1.763,0,0,1-.7.881A2.22,2.22,0,0,1,22.808,21.593Zm6.808-.039V16.47H30.1v5.084Zm.243-6.321a.385.385,0,0,1-.282-.117.374.374,0,0,1-.117-.273.4.4,0,0,1,.4-.4.389.389,0,0,1,.287.112.377.377,0,0,1,.112.278.393.393,0,0,1-.112.282A.38.38,0,0,1,29.859,15.233Zm4.782,1.2a2.339,2.339,0,0,1,1.086.239,1.679,1.679,0,0,1,.721.721,2.5,2.5,0,0,1,.258,1.193v2.971h-.487V18.622a1.8,1.8,0,0,0-.433-1.305,1.608,1.608,0,0,0-1.213-.448,2.092,2.092,0,0,0-1.032.243,1.627,1.627,0,0,0-.667.682,2.246,2.246,0,0,0-.229,1.052v2.708h-.487V16.47h.467v1.412l-.068-.156a1.931,1.931,0,0,1,.769-.95A2.375,2.375,0,0,1,34.642,16.431ZM40,21.593a3.689,3.689,0,0,1-1.183-.185,2.314,2.314,0,0,1-.852-.467l.224-.39a2.513,2.513,0,0,0,.779.433,3.008,3.008,0,0,0,1.052.18,1.947,1.947,0,0,0,1.149-.263.824.824,0,0,0,.351-.692.665.665,0,0,0-.18-.492,1.181,1.181,0,0,0-.482-.278,4.95,4.95,0,0,0-.662-.161q-.36-.063-.721-.141a2.943,2.943,0,0,1-.662-.224,1.227,1.227,0,0,1-.482-.4,1.178,1.178,0,0,1-.18-.687,1.209,1.209,0,0,1,.214-.7,1.483,1.483,0,0,1,.643-.5,2.649,2.649,0,0,1,1.071-.19,3.512,3.512,0,0,1,.959.136,2.41,2.41,0,0,1,.784.36l-.224.39a2.069,2.069,0,0,0-.721-.351,3.107,3.107,0,0,0-.808-.107,1.751,1.751,0,0,0-1.086.273.835.835,0,0,0-.346.682.712.712,0,0,0,.18.511,1.165,1.165,0,0,0,.482.292,4.485,4.485,0,0,0,.662.166q.36.063.721.141a3.109,3.109,0,0,1,.662.219,1.221,1.221,0,0,1,.482.39A1.113,1.113,0,0,1,42,20.2a1.2,1.2,0,0,1-.229.73,1.482,1.482,0,0,1-.677.487A3.032,3.032,0,0,1,40,21.593Zm4.85,0a1.359,1.359,0,0,1-1.028-.37,1.4,1.4,0,0,1-.355-1.013v-4.85h.487v4.8a1.064,1.064,0,0,0,.243.75.908.908,0,0,0,.7.263,1.13,1.13,0,0,0,.789-.282l.2.341a1.2,1.2,0,0,1-.472.273A1.881,1.881,0,0,1,44.848,21.593Zm-2.318-4.7V16.47h3.039v.419Zm7.918,4.665V20.395l-.019-.175V18.31a1.432,1.432,0,0,0-.385-1.081,1.561,1.561,0,0,0-1.125-.37,2.675,2.675,0,0,0-1.753.643l-.243-.351a2.706,2.706,0,0,1,.916-.531,3.327,3.327,0,0,1,1.12-.19,2.037,2.037,0,0,1,1.451.477,1.863,1.863,0,0,1,.506,1.422v3.224Zm-1.831.039a2.439,2.439,0,0,1-.979-.18,1.409,1.409,0,0,1-.633-.511,1.345,1.345,0,0,1-.219-.76,1.4,1.4,0,0,1,.18-.706,1.3,1.3,0,0,1,.6-.516,2.631,2.631,0,0,1,1.12-.2h1.87v.38H48.7a1.629,1.629,0,0,0-1.105.292.953.953,0,0,0-.317.73.942.942,0,0,0,.37.779,1.645,1.645,0,0,0,1.042.292,1.93,1.93,0,0,0,1.086-.292,1.723,1.723,0,0,0,.657-.847l.136.331a1.763,1.763,0,0,1-.7.881A2.22,2.22,0,0,1,48.618,21.593Zm6.788-5.162a2.339,2.339,0,0,1,1.086.239,1.679,1.679,0,0,1,.721.721,2.5,2.5,0,0,1,.258,1.193v2.971h-.487V18.622a1.8,1.8,0,0,0-.433-1.305,1.608,1.608,0,0,0-1.213-.448,2.092,2.092,0,0,0-1.032.243,1.627,1.627,0,0,0-.667.682,2.246,2.246,0,0,0-.229,1.052v2.708h-.487V16.47h.467v1.412l-.068-.156a1.931,1.931,0,0,1,.769-.95A2.375,2.375,0,0,1,55.406,16.431Zm5.357,5.162a3.689,3.689,0,0,1-1.183-.185,2.314,2.314,0,0,1-.852-.467l.224-.39a2.513,2.513,0,0,0,.779.433,3.008,3.008,0,0,0,1.052.18,1.947,1.947,0,0,0,1.149-.263.824.824,0,0,0,.351-.692.665.665,0,0,0-.18-.492,1.181,1.181,0,0,0-.482-.278,4.95,4.95,0,0,0-.662-.161q-.36-.063-.721-.141a2.943,2.943,0,0,1-.662-.224,1.227,1.227,0,0,1-.482-.4,1.178,1.178,0,0,1-.18-.687,1.209,1.209,0,0,1,.214-.7,1.483,1.483,0,0,1,.643-.5,2.649,2.649,0,0,1,1.071-.19,3.512,3.512,0,0,1,.959.136,2.41,2.41,0,0,1,.784.36l-.224.39a2.069,2.069,0,0,0-.721-.351,3.107,3.107,0,0,0-.808-.107,1.751,1.751,0,0,0-1.086.273.835.835,0,0,0-.346.682.712.712,0,0,0,.18.511,1.165,1.165,0,0,0,.482.292,4.485,4.485,0,0,0,.662.166q.36.063.721.141a3.109,3.109,0,0,1,.662.219,1.221,1.221,0,0,1,.482.39,1.113,1.113,0,0,1,.18.667,1.2,1.2,0,0,1-.229.73,1.482,1.482,0,0,1-.677.487A3.032,3.032,0,0,1,60.763,21.593Zm5.435,0a2.726,2.726,0,0,1-1.359-.331,2.41,2.41,0,0,1-.925-.916,2.628,2.628,0,0,1-.336-1.334,2.749,2.749,0,0,1,.317-1.339,2.352,2.352,0,0,1,.872-.911,2.387,2.387,0,0,1,1.247-.331,2.416,2.416,0,0,1,1.242.321,2.293,2.293,0,0,1,.867.9,2.749,2.749,0,0,1,.317,1.339.45.45,0,0,1,0,.063.517.517,0,0,0,0,.073h-4.49v-.38h4.227l-.195.185a2.113,2.113,0,0,0-.248-1.066,1.937,1.937,0,0,0-.7-.74,1.933,1.933,0,0,0-2.717.74,2.242,2.242,0,0,0-.253,1.076v.088a2.175,2.175,0,0,0,.278,1.105,1.952,1.952,0,0,0,.765.75,2.266,2.266,0,0,0,1.11.268,2.358,2.358,0,0,0,.911-.175,1.79,1.79,0,0,0,.716-.536l.282.321a2.087,2.087,0,0,1-.833.618A2.79,2.79,0,0,1,66.2,21.593Zm3.75-.039V16.47h.467v1.393l-.049-.156a1.8,1.8,0,0,1,.721-.945,2.268,2.268,0,0,1,1.266-.331v.477a.355.355,0,0,1-.058,0,.355.355,0,0,0-.058,0,1.69,1.69,0,0,0-1.325.531,2.129,2.129,0,0,0-.477,1.476v2.649Zm6.233-5.123a2.339,2.339,0,0,1,1.086.239,1.679,1.679,0,0,1,.721.721,2.5,2.5,0,0,1,.258,1.193v2.971h-.487V18.622a1.8,1.8,0,0,0-.433-1.305,1.608,1.608,0,0,0-1.213-.448,2.092,2.092,0,0,0-1.032.243,1.627,1.627,0,0,0-.667.682,2.246,2.246,0,0,0-.229,1.052v2.708H73.7V16.47h.467v1.412l-.068-.156a1.931,1.931,0,0,1,.769-.95A2.375,2.375,0,0,1,76.18,16.431Zm7.275,5.123V20.395l-.019-.175V18.31a1.432,1.432,0,0,0-.385-1.081,1.561,1.561,0,0,0-1.125-.37,2.675,2.675,0,0,0-1.753.643l-.243-.351a2.706,2.706,0,0,1,.916-.531,3.327,3.327,0,0,1,1.12-.19,2.037,2.037,0,0,1,1.451.477,1.863,1.863,0,0,1,.506,1.422v3.224Zm-1.831.039a2.439,2.439,0,0,1-.979-.18,1.409,1.409,0,0,1-.633-.511,1.345,1.345,0,0,1-.219-.76,1.4,1.4,0,0,1,.18-.706,1.3,1.3,0,0,1,.6-.516,2.631,2.631,0,0,1,1.12-.2h1.87v.38H81.7a1.629,1.629,0,0,0-1.105.292.953.953,0,0,0-.317.73.942.942,0,0,0,.37.779,1.645,1.645,0,0,0,1.042.292,1.93,1.93,0,0,0,1.086-.292,1.723,1.723,0,0,0,.657-.847l.136.331a1.763,1.763,0,0,1-.7.881A2.22,2.22,0,0,1,81.625,21.593ZM88.8,20.151l.01-.614,3.36-3.068H92.8l-2.23,2.094-.292.243Zm-.37,1.4V14.327h.487v7.227Zm3.974,0-2.221-2.785.331-.36,2.493,3.146Zm3.535.039a2.54,2.54,0,0,1-1.3-.331,2.452,2.452,0,0,1-.906-.916,2.827,2.827,0,0,1,0-2.673,2.462,2.462,0,0,1,.906-.911,2.54,2.54,0,0,1,1.3-.331,2.566,2.566,0,0,1,1.305.331,2.415,2.415,0,0,1,.906.911,2.864,2.864,0,0,1,0,2.673,2.4,2.4,0,0,1-.906.916A2.566,2.566,0,0,1,95.942,21.593Zm0-.438a2.078,2.078,0,0,0,1.052-.268,1.88,1.88,0,0,0,.73-.755,2.527,2.527,0,0,0,0-2.245,1.888,1.888,0,0,0-.73-.75,2.078,2.078,0,0,0-1.052-.268,2.051,2.051,0,0,0-1.047.268,1.932,1.932,0,0,0-.73.75,2.486,2.486,0,0,0,0,2.245,1.923,1.923,0,0,0,.73.755A2.051,2.051,0,0,0,95.942,21.154Zm.838-5.776a.343.343,0,0,1-.243-.1.331.331,0,0,1-.107-.248.326.326,0,0,1,.107-.253.352.352,0,0,1,.243-.1.347.347,0,0,1,.248.1.334.334,0,0,1,.1.253.349.349,0,0,1-.351.351Zm-1.675,0a.349.349,0,0,1-.351-.351.334.334,0,0,1,.1-.253.365.365,0,0,1,.5,0,.334.334,0,0,1,.1.253.349.349,0,0,1-.351.351Zm4.889,6.175V16.47h.467v1.393l-.049-.156a1.8,1.8,0,0,1,.721-.945,2.268,2.268,0,0,1,1.266-.331v.477a.355.355,0,0,1-.058,0,.355.355,0,0,0-.058,0,1.69,1.69,0,0,0-1.325.531,2.129,2.129,0,0,0-.477,1.476v2.649Zm6.34,0V16.47h.487v5.084Zm.243-6.321a.385.385,0,0,1-.282-.117.374.374,0,0,1-.117-.273.4.4,0,0,1,.4-.4.389.389,0,0,1,.287.112.377.377,0,0,1,.112.278.393.393,0,0,1-.112.282A.38.38,0,0,1,106.577,15.233Zm6.866,6.36a2.726,2.726,0,0,1-1.359-.331,2.41,2.41,0,0,1-.925-.916,2.628,2.628,0,0,1-.336-1.334,2.749,2.749,0,0,1,.317-1.339,2.352,2.352,0,0,1,.872-.911,2.387,2.387,0,0,1,1.247-.331,2.416,2.416,0,0,1,1.242.321,2.293,2.293,0,0,1,.867.9,2.749,2.749,0,0,1,.317,1.339.449.449,0,0,1,0,.063.518.518,0,0,0,0,.073h-4.49v-.38h4.227l-.195.185a2.113,2.113,0,0,0-.248-1.066,1.937,1.937,0,0,0-.7-.74,1.933,1.933,0,0,0-2.717.74,2.242,2.242,0,0,0-.253,1.076v.088a2.175,2.175,0,0,0,.278,1.105,1.952,1.952,0,0,0,.765.75,2.266,2.266,0,0,0,1.11.268,2.358,2.358,0,0,0,.911-.175,1.789,1.789,0,0,0,.716-.536l.282.321a2.087,2.087,0,0,1-.833.618A2.79,2.79,0,0,1,113.444,21.593Zm5.23,0a1.359,1.359,0,0,1-1.028-.37,1.4,1.4,0,0,1-.355-1.013v-4.85h.487v4.8a1.064,1.064,0,0,0,.243.75.908.908,0,0,0,.7.263,1.13,1.13,0,0,0,.789-.282l.2.341a1.2,1.2,0,0,1-.472.273A1.881,1.881,0,0,1,118.674,21.593Zm-2.318-4.7V16.47h3.039v.419Zm6.058,4.7a1.359,1.359,0,0,1-1.028-.37,1.4,1.4,0,0,1-.355-1.013v-4.85h.487v4.8a1.064,1.064,0,0,0,.243.75.908.908,0,0,0,.7.263,1.13,1.13,0,0,0,.789-.282l.2.341a1.2,1.2,0,0,1-.472.273A1.881,1.881,0,0,1,122.414,21.593Zm-2.318-4.7V16.47h3.039v.419ZM130.351,21.6a3.767,3.767,0,0,1-1.407-.258,3.372,3.372,0,0,1-1.125-.726,3.3,3.3,0,0,1-.74-1.1,3.743,3.743,0,0,1,0-2.756,3.266,3.266,0,0,1,.745-1.1,3.438,3.438,0,0,1,1.125-.726,3.73,3.73,0,0,1,1.4-.258,3.837,3.837,0,0,1,1.349.234,2.788,2.788,0,0,1,1.076.711l-.312.321a2.664,2.664,0,0,0-.969-.618,3.314,3.314,0,0,0-1.125-.19,3.235,3.235,0,0,0-1.213.224,2.9,2.9,0,0,0-1.617,1.588,3.2,3.2,0,0,0,0,2.376,2.9,2.9,0,0,0,1.617,1.588,3.235,3.235,0,0,0,1.213.224,3.314,3.314,0,0,0,1.125-.19,2.608,2.608,0,0,0,.969-.628l.312.321a2.836,2.836,0,0,1-1.076.716A3.767,3.767,0,0,1,130.351,21.6Zm5.766-.01a2.726,2.726,0,0,1-1.359-.331,2.41,2.41,0,0,1-.925-.916,2.628,2.628,0,0,1-.336-1.334,2.749,2.749,0,0,1,.317-1.339,2.352,2.352,0,0,1,.872-.911,2.387,2.387,0,0,1,1.247-.331,2.416,2.416,0,0,1,1.242.321,2.293,2.293,0,0,1,.867.9,2.749,2.749,0,0,1,.317,1.339.449.449,0,0,1,0,.063.519.519,0,0,0,0,.073h-4.49v-.38h4.227l-.195.185a2.113,2.113,0,0,0-.248-1.066,1.937,1.937,0,0,0-.7-.74,1.933,1.933,0,0,0-2.717.74,2.242,2.242,0,0,0-.253,1.076v.088a2.175,2.175,0,0,0,.278,1.105,1.952,1.952,0,0,0,.765.75,2.266,2.266,0,0,0,1.11.268,2.358,2.358,0,0,0,.911-.175,1.79,1.79,0,0,0,.716-.536l.282.321a2.087,2.087,0,0,1-.833.618A2.79,2.79,0,0,1,136.117,21.593Zm6.3,0a2.383,2.383,0,0,1-1.213-.312,2.245,2.245,0,0,1-.857-.891,3.158,3.158,0,0,1,0-2.756,2.245,2.245,0,0,1,.857-.891,2.383,2.383,0,0,1,1.213-.312,2.55,2.55,0,0,1,1.29.326,2.346,2.346,0,0,1,.9.911,2.931,2.931,0,0,1,0,2.688,2.346,2.346,0,0,1-.9.911A2.55,2.55,0,0,1,142.418,21.593Zm-2.552,1.85V16.47h.467v1.665l-.078.886.1.886v3.535Zm2.523-2.289a2.078,2.078,0,0,0,1.052-.268,1.913,1.913,0,0,0,.735-.755,2.486,2.486,0,0,0,0-2.245,1.922,1.922,0,0,0-.735-.75,2.078,2.078,0,0,0-1.052-.268,2.051,2.051,0,0,0-1.047.268,1.932,1.932,0,0,0-.73.75,2.486,2.486,0,0,0,0,2.245,1.923,1.923,0,0,0,.73.755A2.051,2.051,0,0,0,142.389,21.154Zm6.535-4.724a2.339,2.339,0,0,1,1.086.239,1.679,1.679,0,0,1,.721.721,2.5,2.5,0,0,1,.258,1.193v2.971H150.5V18.622a1.8,1.8,0,0,0-.433-1.305,1.608,1.608,0,0,0-1.213-.448,2.092,2.092,0,0,0-1.032.243,1.627,1.627,0,0,0-.667.682,2.246,2.246,0,0,0-.229,1.052v2.708h-.487V14.327h.487v3.555l-.088-.156a1.931,1.931,0,0,1,.769-.95A2.375,2.375,0,0,1,148.924,16.431Zm3.643,2.727V18.72h2.5v.438Zm4.509.993.01-.614,3.36-3.068h.623l-2.23,2.094-.292.243Zm-.37,1.4V14.327h.487v7.227Zm3.974,0-2.221-2.785.331-.36,2.493,3.146Zm1.753,0V14.327h.487v7.227Zm4.607.039a2.5,2.5,0,0,1-1.13-.239,1.661,1.661,0,0,1-.735-.721,2.5,2.5,0,0,1-.258-1.193V16.47h.487V19.4a1.792,1.792,0,0,0,.438,1.305,1.652,1.652,0,0,0,1.237.448,1.942,1.942,0,0,0,.993-.243,1.622,1.622,0,0,0,.643-.687,2.294,2.294,0,0,0,.224-1.047V16.47h.487v5.084h-.467V20.142l.068.166a1.906,1.906,0,0,1-.745.94A2.194,2.194,0,0,1,167.04,21.593Zm5.737,0a3.689,3.689,0,0,1-1.183-.185,2.314,2.314,0,0,1-.852-.467l.224-.39a2.513,2.513,0,0,0,.779.433,3.008,3.008,0,0,0,1.052.18,1.947,1.947,0,0,0,1.149-.263.824.824,0,0,0,.351-.692.665.665,0,0,0-.18-.492,1.181,1.181,0,0,0-.482-.278,4.95,4.95,0,0,0-.662-.161q-.36-.063-.721-.141a2.942,2.942,0,0,1-.662-.224,1.227,1.227,0,0,1-.482-.4,1.178,1.178,0,0,1-.18-.687,1.209,1.209,0,0,1,.214-.7,1.483,1.483,0,0,1,.643-.5,2.649,2.649,0,0,1,1.071-.19,3.511,3.511,0,0,1,.959.136,2.41,2.41,0,0,1,.784.36l-.224.39a2.069,2.069,0,0,0-.721-.351,3.106,3.106,0,0,0-.808-.107,1.751,1.751,0,0,0-1.086.273.835.835,0,0,0-.346.682.712.712,0,0,0,.18.511,1.165,1.165,0,0,0,.482.292,4.485,4.485,0,0,0,.662.166q.36.063.721.141a3.109,3.109,0,0,1,.662.219,1.221,1.221,0,0,1,.482.39,1.113,1.113,0,0,1,.18.667,1.2,1.2,0,0,1-.229.73,1.482,1.482,0,0,1-.677.487A3.032,3.032,0,0,1,172.776,21.593Zm4.85,0a1.359,1.359,0,0,1-1.027-.37,1.4,1.4,0,0,1-.355-1.013v-4.85h.487v4.8a1.064,1.064,0,0,0,.243.75.908.908,0,0,0,.7.263,1.13,1.13,0,0,0,.789-.282l.2.341a1.2,1.2,0,0,1-.472.273A1.881,1.881,0,0,1,177.627,21.593Zm-2.318-4.7V16.47h3.039v.419Zm6.594,4.7a2.726,2.726,0,0,1-1.359-.331,2.41,2.41,0,0,1-.925-.916,2.628,2.628,0,0,1-.336-1.334,2.749,2.749,0,0,1,.317-1.339,2.352,2.352,0,0,1,.872-.911,2.387,2.387,0,0,1,1.247-.331,2.416,2.416,0,0,1,1.242.321,2.293,2.293,0,0,1,.867.9,2.749,2.749,0,0,1,.317,1.339.449.449,0,0,1,0,.063.517.517,0,0,0,0,.073h-4.49v-.38h4.227l-.195.185a2.113,2.113,0,0,0-.248-1.066,1.937,1.937,0,0,0-.7-.74,1.933,1.933,0,0,0-2.717.74,2.242,2.242,0,0,0-.253,1.076v.088a2.175,2.175,0,0,0,.278,1.105,1.952,1.952,0,0,0,.765.75,2.266,2.266,0,0,0,1.11.268,2.358,2.358,0,0,0,.911-.175,1.79,1.79,0,0,0,.716-.536l.282.321a2.086,2.086,0,0,1-.833.618A2.79,2.79,0,0,1,181.9,21.593Zm3.75-.039V16.47h.467v1.393l-.049-.156a1.8,1.8,0,0,1,.721-.945,2.268,2.268,0,0,1,1.266-.331v.477a.355.355,0,0,1-.058,0,.355.355,0,0,0-.058,0,1.69,1.69,0,0,0-1.325.531,2.128,2.128,0,0,0-.477,1.476v2.649Zm8.327.039a2.54,2.54,0,0,1-1.3-.331,2.452,2.452,0,0,1-.906-.916,2.827,2.827,0,0,1,0-2.673,2.462,2.462,0,0,1,.906-.911,2.54,2.54,0,0,1,1.3-.331,2.566,2.566,0,0,1,1.305.331,2.415,2.415,0,0,1,.906.911,2.864,2.864,0,0,1,0,2.673,2.4,2.4,0,0,1-.906.916A2.566,2.566,0,0,1,193.979,21.593Zm0-.438a2.078,2.078,0,0,0,1.052-.268,1.88,1.88,0,0,0,.73-.755,2.527,2.527,0,0,0,0-2.245,1.888,1.888,0,0,0-.73-.75,2.078,2.078,0,0,0-1.052-.268,2.051,2.051,0,0,0-1.047.268,1.932,1.932,0,0,0-.73.75,2.486,2.486,0,0,0,0,2.245,1.923,1.923,0,0,0,.73.755A2.051,2.051,0,0,0,193.979,21.154Zm6.068.438a2.612,2.612,0,0,1-1.32-.331,2.43,2.43,0,0,1-.916-.916,2.837,2.837,0,0,1,0-2.678,2.4,2.4,0,0,1,.916-.911,2.643,2.643,0,0,1,1.32-.326,2.608,2.608,0,0,1,1.115.234,1.953,1.953,0,0,1,.813.7l-.36.263a1.658,1.658,0,0,0-.682-.575,2.238,2.238,0,0,0-1.953.083,1.912,1.912,0,0,0-.74.75,2.5,2.5,0,0,0,0,2.25,1.912,1.912,0,0,0,.74.75,2.238,2.238,0,0,0,1.953.083,1.658,1.658,0,0,0,.682-.575l.36.263a1.953,1.953,0,0,1-.813.7A2.608,2.608,0,0,1,200.047,21.593Zm5.785-5.162a2.339,2.339,0,0,1,1.086.239,1.679,1.679,0,0,1,.721.721,2.5,2.5,0,0,1,.258,1.193v2.971h-.487V18.622a1.8,1.8,0,0,0-.433-1.305,1.608,1.608,0,0,0-1.213-.448,2.093,2.093,0,0,0-1.032.243,1.627,1.627,0,0,0-.667.682,2.246,2.246,0,0,0-.229,1.052v2.708h-.487V14.327h.487v3.555l-.088-.156a1.931,1.931,0,0,1,.769-.95A2.375,2.375,0,0,1,205.832,16.431Zm6.944,3.72.01-.614,3.36-3.068h.623l-2.23,2.094-.292.243Zm-.37,1.4V14.327h.487v7.227Zm3.974,0-2.221-2.785.331-.36,2.493,3.146Zm4.86,0V20.395l-.019-.175V18.31a1.432,1.432,0,0,0-.385-1.081,1.561,1.561,0,0,0-1.125-.37,2.675,2.675,0,0,0-1.753.643l-.243-.351a2.706,2.706,0,0,1,.915-.531,3.327,3.327,0,0,1,1.12-.19,2.037,2.037,0,0,1,1.451.477,1.863,1.863,0,0,1,.506,1.422v3.224Zm-1.831.039a2.439,2.439,0,0,1-.979-.18,1.409,1.409,0,0,1-.633-.511,1.345,1.345,0,0,1-.219-.76,1.4,1.4,0,0,1,.18-.706,1.3,1.3,0,0,1,.6-.516,2.631,2.631,0,0,1,1.12-.2h1.87v.38h-1.86a1.629,1.629,0,0,0-1.105.292.953.953,0,0,0-.317.73.942.942,0,0,0,.37.779,1.645,1.645,0,0,0,1.042.292,1.93,1.93,0,0,0,1.086-.292,1.723,1.723,0,0,0,.657-.847l.136.331a1.763,1.763,0,0,1-.7.881A2.22,2.22,0,0,1,219.409,21.593Zm6.788-5.162a2.339,2.339,0,0,1,1.086.239,1.679,1.679,0,0,1,.721.721,2.5,2.5,0,0,1,.258,1.193v2.971h-.487V18.622a1.8,1.8,0,0,0-.433-1.305,1.608,1.608,0,0,0-1.213-.448,2.093,2.093,0,0,0-1.032.243,1.627,1.627,0,0,0-.667.682,2.246,2.246,0,0,0-.229,1.052v2.708h-.487V16.47h.467v1.412l-.068-.156a1.931,1.931,0,0,1,.769-.95A2.375,2.375,0,0,1,226.2,16.431Zm6.672,5.123V15.691a1.417,1.417,0,0,1,.365-1.018,1.375,1.375,0,0,1,1.047-.385,1.9,1.9,0,0,1,.555.083,1.11,1.11,0,0,1,.448.248l-.195.37a.883.883,0,0,0-.351-.214,1.377,1.377,0,0,0-.438-.068.931.931,0,0,0-.711.258,1.076,1.076,0,0,0-.243.765v.857l.01.234v4.733Zm-.935-4.665V16.47h3.039v.419Zm7.139,4.665V20.395l-.019-.175V18.31a1.432,1.432,0,0,0-.385-1.081,1.561,1.561,0,0,0-1.125-.37,2.675,2.675,0,0,0-1.753.643l-.243-.351a2.706,2.706,0,0,1,.916-.531,3.327,3.327,0,0,1,1.12-.19,2.037,2.037,0,0,1,1.451.477,1.863,1.863,0,0,1,.506,1.422v3.224Zm-1.831.039a2.439,2.439,0,0,1-.979-.18,1.409,1.409,0,0,1-.633-.511,1.345,1.345,0,0,1-.219-.76,1.4,1.4,0,0,1,.18-.706,1.3,1.3,0,0,1,.6-.516,2.631,2.631,0,0,1,1.12-.2h1.87v.38h-1.86a1.629,1.629,0,0,0-1.105.292.953.953,0,0,0-.317.73.942.942,0,0,0,.37.779,1.645,1.645,0,0,0,1.042.292A1.93,1.93,0,0,0,238.4,20.9a1.723,1.723,0,0,0,.657-.847l.136.331a1.763,1.763,0,0,1-.7.881A2.22,2.22,0,0,1,237.242,21.593Zm.312-5.844a.93.93,0,0,1-.5-.131.993.993,0,0,1-.341-.346.9.9,0,0,1-.127-.467.946.946,0,0,1,.127-.482,1.007,1.007,0,0,1,.346-.355.912.912,0,0,1,.492-.136.93.93,0,0,1,.5.136,1.007,1.007,0,0,1,.346.355.946.946,0,0,1,.127.482.9.9,0,0,1-.127.467.98.98,0,0,1-.346.346A.956.956,0,0,1,237.553,15.749Zm0-.273a.658.658,0,0,0,.682-.672.691.691,0,0,0-.19-.487.688.688,0,0,0-.974,0,.686.686,0,0,0-.19.492.667.667,0,0,0,.185.477A.641.641,0,0,0,237.553,15.476Zm5.279,6.116a3.689,3.689,0,0,1-1.183-.185,2.314,2.314,0,0,1-.852-.467l.224-.39a2.513,2.513,0,0,0,.779.433,3.008,3.008,0,0,0,1.052.18A1.947,1.947,0,0,0,244,20.9a.824.824,0,0,0,.351-.692.665.665,0,0,0-.18-.492,1.181,1.181,0,0,0-.482-.278,4.95,4.95,0,0,0-.662-.161q-.36-.063-.721-.141a2.942,2.942,0,0,1-.662-.224,1.227,1.227,0,0,1-.482-.4,1.178,1.178,0,0,1-.18-.687,1.209,1.209,0,0,1,.214-.7,1.483,1.483,0,0,1,.643-.5,2.649,2.649,0,0,1,1.071-.19,3.512,3.512,0,0,1,.959.136,2.41,2.41,0,0,1,.784.36l-.224.39a2.069,2.069,0,0,0-.721-.351,3.106,3.106,0,0,0-.808-.107,1.751,1.751,0,0,0-1.086.273.835.835,0,0,0-.346.682.712.712,0,0,0,.18.511,1.165,1.165,0,0,0,.482.292,4.485,4.485,0,0,0,.662.166q.36.063.721.141a3.109,3.109,0,0,1,.662.219,1.221,1.221,0,0,1,.482.39,1.113,1.113,0,0,1,.18.667,1.2,1.2,0,0,1-.229.73,1.482,1.482,0,0,1-.677.487A3.032,3.032,0,0,1,242.832,21.593Zm5.873-.039V16.47h.487v5.084Zm.243-6.321a.385.385,0,0,1-.282-.117.374.374,0,0,1-.117-.273.4.4,0,0,1,.4-.4.389.389,0,0,1,.287.112.377.377,0,0,1,.112.278.393.393,0,0,1-.112.282A.38.38,0,0,1,248.949,15.233Zm6.282,6.36a1.359,1.359,0,0,1-1.028-.37,1.4,1.4,0,0,1-.355-1.013v-4.85h.487v4.8a1.064,1.064,0,0,0,.243.75.908.908,0,0,0,.7.263,1.13,1.13,0,0,0,.789-.282l.2.341a1.2,1.2,0,0,1-.472.273A1.881,1.881,0,0,1,255.231,21.593Zm-2.318-4.7V16.47h3.039v.419Zm5.9,4.665-2.289-5.084h.516l2.143,4.811h-.234l2.162-4.811h.5l-2.3,5.084Zm6.905,0V20.395l-.019-.175V18.31a1.432,1.432,0,0,0-.385-1.081,1.561,1.561,0,0,0-1.125-.37,2.675,2.675,0,0,0-1.753.643l-.243-.351a2.706,2.706,0,0,1,.915-.531,3.327,3.327,0,0,1,1.12-.19,2.036,2.036,0,0,1,1.451.477,1.863,1.863,0,0,1,.506,1.422v3.224Zm-1.831.039a2.439,2.439,0,0,1-.979-.18,1.409,1.409,0,0,1-.633-.511,1.345,1.345,0,0,1-.219-.76,1.4,1.4,0,0,1,.18-.706,1.305,1.305,0,0,1,.6-.516,2.631,2.631,0,0,1,1.12-.2h1.87v.38h-1.86a1.629,1.629,0,0,0-1.105.292.953.953,0,0,0-.317.73.942.942,0,0,0,.37.779,1.645,1.645,0,0,0,1.042.292,1.93,1.93,0,0,0,1.086-.292,1.723,1.723,0,0,0,.657-.847l.136.331a1.764,1.764,0,0,1-.7.881A2.22,2.22,0,0,1,263.889,21.593Zm.312-5.844a.93.93,0,0,1-.5-.131.993.993,0,0,1-.341-.346.9.9,0,0,1-.127-.467.946.946,0,0,1,.127-.482,1.007,1.007,0,0,1,.346-.355.912.912,0,0,1,.492-.136.93.93,0,0,1,.5.136,1.007,1.007,0,0,1,.346.355.946.946,0,0,1,.127.482.9.9,0,0,1-.127.467.98.98,0,0,1-.346.346A.956.956,0,0,1,264.2,15.749Zm0-.273a.658.658,0,0,0,.682-.672.691.691,0,0,0-.19-.487.688.688,0,0,0-.974,0,.686.686,0,0,0-.19.492.667.667,0,0,0,.185.477A.641.641,0,0,0,264.2,15.476Zm7.782,6.077-2.289-5.084h.516l2.143,4.811h-.234l2.162-4.811h.5l-2.3,5.084Zm6.905,0V20.395l-.019-.175V18.31a1.432,1.432,0,0,0-.385-1.081,1.561,1.561,0,0,0-1.125-.37,2.675,2.675,0,0,0-1.753.643l-.243-.351a2.706,2.706,0,0,1,.915-.531,3.327,3.327,0,0,1,1.12-.19,2.037,2.037,0,0,1,1.451.477,1.863,1.863,0,0,1,.506,1.422v3.224Zm-1.831.039a2.439,2.439,0,0,1-.979-.18,1.409,1.409,0,0,1-.633-.511,1.345,1.345,0,0,1-.219-.76,1.4,1.4,0,0,1,.18-.706,1.3,1.3,0,0,1,.6-.516,2.631,2.631,0,0,1,1.12-.2h1.87v.38h-1.86a1.629,1.629,0,0,0-1.105.292.953.953,0,0,0-.317.73.942.942,0,0,0,.37.779,1.645,1.645,0,0,0,1.042.292,1.93,1.93,0,0,0,1.086-.292,1.723,1.723,0,0,0,.657-.847l.136.331a1.763,1.763,0,0,1-.7.881A2.22,2.22,0,0,1,277.057,21.593Zm4.3-.039V16.47h.467v1.393l-.049-.156a1.8,1.8,0,0,1,.721-.945,2.268,2.268,0,0,1,1.266-.331v.477a.355.355,0,0,1-.058,0,.355.355,0,0,0-.058,0,1.69,1.69,0,0,0-1.325.531,2.128,2.128,0,0,0-.477,1.476v2.649Zm3.75,0V16.47h.487v5.084Zm.243-6.321a.385.385,0,0,1-.282-.117.374.374,0,0,1-.117-.273.4.4,0,0,1,.4-.4.389.389,0,0,1,.287.112.377.377,0,0,1,.112.278.393.393,0,0,1-.112.282A.38.38,0,0,1,285.355,15.233Zm5.5,6.321V20.395l-.019-.175V18.31a1.432,1.432,0,0,0-.385-1.081,1.561,1.561,0,0,0-1.125-.37,2.675,2.675,0,0,0-1.753.643l-.243-.351a2.706,2.706,0,0,1,.916-.531,3.327,3.327,0,0,1,1.12-.19,2.036,2.036,0,0,1,1.451.477,1.863,1.863,0,0,1,.506,1.422v3.224Zm-1.831.039a2.439,2.439,0,0,1-.979-.18,1.409,1.409,0,0,1-.633-.511,1.345,1.345,0,0,1-.219-.76,1.4,1.4,0,0,1,.18-.706,1.3,1.3,0,0,1,.6-.516,2.631,2.631,0,0,1,1.12-.2h1.87v.38H289.1a1.629,1.629,0,0,0-1.105.292.953.953,0,0,0-.317.73.942.942,0,0,0,.37.779,1.645,1.645,0,0,0,1.042.292,1.93,1.93,0,0,0,1.086-.292,1.723,1.723,0,0,0,.657-.847l.136.331a1.764,1.764,0,0,1-.7.881A2.22,2.22,0,0,1,289.027,21.593Zm6.788-5.162a2.339,2.339,0,0,1,1.086.239,1.679,1.679,0,0,1,.721.721,2.5,2.5,0,0,1,.258,1.193v2.971h-.487V18.622a1.8,1.8,0,0,0-.433-1.305,1.608,1.608,0,0,0-1.213-.448,2.093,2.093,0,0,0-1.032.243,1.627,1.627,0,0,0-.667.682,2.246,2.246,0,0,0-.229,1.052v2.708h-.487V16.47h.467v1.412l-.068-.156a1.93,1.93,0,0,1,.769-.95A2.375,2.375,0,0,1,295.815,16.431Zm5.551,5.162a1.359,1.359,0,0,1-1.027-.37,1.4,1.4,0,0,1-.355-1.013v-4.85h.487v4.8a1.064,1.064,0,0,0,.243.75.908.908,0,0,0,.7.263,1.13,1.13,0,0,0,.789-.282l.2.341a1.2,1.2,0,0,1-.472.273A1.881,1.881,0,0,1,301.366,21.593Zm-2.318-4.7V16.47h3.039v.419Zm6.594,4.7a2.726,2.726,0,0,1-1.359-.331,2.41,2.41,0,0,1-.925-.916,2.628,2.628,0,0,1-.336-1.334,2.749,2.749,0,0,1,.317-1.339,2.352,2.352,0,0,1,.872-.911,2.387,2.387,0,0,1,1.247-.331,2.416,2.416,0,0,1,1.242.321,2.293,2.293,0,0,1,.867.9,2.749,2.749,0,0,1,.317,1.339.447.447,0,0,1,0,.063.519.519,0,0,0,0,.073h-4.49v-.38h4.227l-.195.185a2.113,2.113,0,0,0-.248-1.066,1.937,1.937,0,0,0-.7-.74,1.933,1.933,0,0,0-2.717.74,2.242,2.242,0,0,0-.253,1.076v.088a2.176,2.176,0,0,0,.278,1.105,1.952,1.952,0,0,0,.765.75,2.266,2.266,0,0,0,1.11.268,2.358,2.358,0,0,0,.911-.175,1.79,1.79,0,0,0,.716-.536l.282.321a2.086,2.086,0,0,1-.833.618A2.79,2.79,0,0,1,305.642,21.593Zm3.75-.039V16.47h.467v1.393l-.049-.156a1.8,1.8,0,0,1,.721-.945,2.268,2.268,0,0,1,1.266-.331v.477a.355.355,0,0,1-.058,0,.355.355,0,0,0-.058,0,1.69,1.69,0,0,0-1.325.531,2.128,2.128,0,0,0-.477,1.476v2.649Zm3.681.039a.393.393,0,0,1-.287-.122.4.4,0,0,1-.122-.3.388.388,0,0,1,.122-.292.412.412,0,0,1,.575,0,.388.388,0,0,1,.122.292.4.4,0,0,1-.122.3A.393.393,0,0,1,313.073,21.593Z" transform="translate(87 471)" fill="#707070"/>
  </g>
</svg>
