<svg xmlns="http://www.w3.org/2000/svg" xmlns:xlink="http://www.w3.org/1999/xlink" width="430" height="300" viewBox="0 0 430 300"><defs><filter id="Rectangle_327" width="430" height="300" x="0" y="0" filterUnits="userSpaceOnUse"><feOffset dy="3"/><feGaussianBlur result="blur" stdDeviation="3"/><feFlood flood-opacity="0.161"/><feComposite in2="blur" operator="in"/><feComposite in="SourceGraphic"/></filter></defs><g id="safespring-compute-central-blocklagring" transform="translate(-40 -377)"><g filter="url(#Rectangle_327)" transform="translate(40 377)"><rect id="Rectangle_327-2" width="412" height="282" fill="#fff" rx="7" transform="translate(9 6)"/></g><rect id="Rectangle_328" width="336" height="114" fill="#e7eff3" rx="15" transform="translate(87 514)"/><rect id="Rectangle_329" width="160" height="104" fill="rgba(65,125,165,0.29)" rx="12" transform="translate(93 519)"/><g id="Group_592" transform="translate(0 -1)"><path id="rabbit-running-solid" fill="#fff" d="m56 32.26-.12-.11a1 1 0 0 0-.93-.25 1 1 0 0 0-.68.68l-.05.15a8 8 0 0 0-.28 1.86 9 9 0 0 1 2.77 4.1 6 6 0 0 0-1.3-.16h-.09a8 8 0 0 0-5.4-4.65l-.17-.04a1.3 1.3 0 0 0-.97.13 1.3 1.3 0 0 0-.58 1.63 8.6 8.6 0 0 0 4.24 4.67 3 3 0 0 0-.4 1.14l-5.48-3.13a11 11 0 0 0-5.28-1.4 4.8 4.8 0 0 0-4.11 2.31 2.92 2.92 0 1 0-2.26 4.77 3 3 0 0 0 1.6-.47 5 5 0 0 0 1.47 2.4l7.42 6.78a3.3 3.3 0 0 0 2.25.87h6.02a1.67 1.67 0 0 0 0-3.33h-5v-2.27a5 5 0 0 0-3.62-4.8l-1.6-.46a.83.83 0 1 1 .45-1.6l1.6.46a6.66 6.66 0 0 1 4.84 6.4v.83l2.91-1.69.34-.2h5.27a3.14 3.14 0 0 0 1.99-5.57l-1.8-1.47a6 6 0 0 0-.76-.52A8 8 0 0 0 56 32.26m-16.6 19.9a1.67 1.67 0 1 0 1.86 2.77l2.4-1.6-2.54-2.32zm19.27-9.45a.83.83 0 1 1-.84-.83.84.84 0 0 1 .84.83" transform="translate(126 509.13)"/><path id="Path_5559" fill="#fff" d="M3.96-6.55h5.72v2.22H3.96ZM4.17 0H1.41v-11.9h8.99v2.22H4.17Zm6.05 0 5.3-11.9h2.72L23.56 0H20.7l-4.37-10.5h1.1L13.04 0Zm2.66-2.55.73-2.09h6.13l.73 2.1ZM28.73.2a10 10 0 0 1-2.74-.38 7 7 0 0 1-2.1-.99l.93-2.08a7 7 0 0 0 1.8.9 7 7 0 0 0 2.12.34 4 4 0 0 0 1.33-.16 1.5 1.5 0 0 0 .73-.45 1 1 0 0 0 .24-.66.9.9 0 0 0-.38-.76 3 3 0 0 0-.99-.46q-.61-.18-1.35-.34t-1.48-.4a6 6 0 0 1-1.35-.6 3 3 0 0 1-1-1 3 3 0 0 1-.37-1.57 3.3 3.3 0 0 1 .55-1.85 4 4 0 0 1 1.66-1.34 7 7 0 0 1 2.8-.5 9 9 0 0 1 2.22.27 7 7 0 0 1 1.92.78l-.86 2.08a7 7 0 0 0-1.66-.7 6 6 0 0 0-1.63-.22 4 4 0 0 0-1.31.18 1.5 1.5 0 0 0-.73.49 1 1 0 0 0-.23.68.9.9 0 0 0 .38.75 3 3 0 0 0 .99.45q.61.17 1.35.34t1.48.38a6 6 0 0 1 1.35.6 3 3 0 0 1 .99.99 3 3 0 0 1 .38 1.55 3.3 3.3 0 0 1-.56 1.83 4 4 0 0 1-1.67 1.34 7 7 0 0 1-2.81.51m9.22-.2v-9.65h-3.8v-2.25H44.5v2.25h-3.8V0Z" transform="translate(151 585)"/><path id="Path_5560" fill="#fff" d="M6.34.05a3 3 0 0 1-1.51-.38 3 3 0 0 1-1.05-1.04 3 3 0 0 1-.39-1.52 3 3 0 0 1 .39-1.53 3 3 0 0 1 1.05-1.04 3 3 0 0 1 1.5-.37 3 3 0 0 1 1.52.37A3 3 0 0 1 8.9-4.42a3 3 0 0 1 .38 1.53 3 3 0 0 1-.38 1.52A3 3 0 0 1 7.85-.33a3 3 0 0 1-1.51.38m0-.69a2 2 0 0 0 1.1-.28 2 2 0 0 0 .77-.8 2.4 2.4 0 0 0 .28-1.17 2.4 2.4 0 0 0-.28-1.19 2 2 0 0 0-.77-.78 2 2 0 0 0-1.1-.28 2 2 0 0 0-1.1.28 2 2 0 0 0-.77.78 2.4 2.4 0 0 0-.28 1.19 2.4 2.4 0 0 0 .28 1.18 2 2 0 0 0 .77.8 2 2 0 0 0 1.1.27m7.51.7A3 3 0 0 1 12.5-.3a2.5 2.5 0 0 1-.96-1 3.3 3.3 0 0 1-.36-1.6 3.4 3.4 0 0 1 .35-1.6 2.4 2.4 0 0 1 .96-1 3 3 0 0 1 1.36-.34 3 3 0 0 1 1.48.37 2.7 2.7 0 0 1 1.03 1.03 3 3 0 0 1 .38 1.54 3 3 0 0 1-.38 1.54 2.7 2.7 0 0 1-1.02 1.03 3 3 0 0 1-1.49.37m-2.97 2.07V-5.8h.74v1.74l-.07 1.16.1 1.17v3.84ZM13.8-.64a2 2 0 0 0 1.1-.28 2 2 0 0 0 .77-.79 2.4 2.4 0 0 0 .28-1.18 2.4 2.4 0 0 0-.28-1.18 2 2 0 0 0-.77-.8 2 2 0 0 0-1.1-.27 2 2 0 0 0-1.1.28 2 2 0 0 0-.77.79 2.4 2.4 0 0 0-.28 1.18 2.4 2.4 0 0 0 .28 1.18 2 2 0 0 0 .77.8 2 2 0 0 0 1.1.27m6.36.7a1.7 1.7 0 0 1-1.25-.45 1.7 1.7 0 0 1-.44-1.24v-5.42h.78v5.38a1 1 0 0 0 .26.78 1 1 0 0 0 .74.28 1.3 1.3 0 0 0 .86-.3l.27.56a1.4 1.4 0 0 1-.55.3 2 2 0 0 1-.67.1Zm-2.72-5.19v-.65H21v.65ZM22.8 0v-5.77h.78V0Zm.4-7.05a.6.6 0 0 1-.4-.17.5.5 0 0 1-.17-.4.5.5 0 0 1 .16-.38.6.6 0 0 1 .4-.16.6.6 0 0 1 .4.15.5.5 0 0 1 .17.39.6.6 0 0 1-.16.4.6.6 0 0 1-.4.17m9.78 1.22a2.6 2.6 0 0 1 1.22.27 2 2 0 0 1 .81.82 3 3 0 0 1 .3 1.38V0h-.79v-3.27a2 2 0 0 0-.43-1.4 1.6 1.6 0 0 0-1.23-.46 2 2 0 0 0-1.02.25 1.7 1.7 0 0 0-.68.71 2.5 2.5 0 0 0-.24 1.13V0h-.78v-3.27a2 2 0 0 0-.43-1.4 1.6 1.6 0 0 0-1.23-.46 2 2 0 0 0-1.03.25 1.7 1.7 0 0 0-.67.71 2.5 2.5 0 0 0-.24 1.13V0h-.78v-5.78h.75v1.57l-.12-.28a2 2 0 0 1 .85-.98 2.6 2.6 0 0 1 1.39-.36 2.4 2.4 0 0 1 1.44.42 2 2 0 0 1 .77 1.28l-.3-.12a2.2 2.2 0 0 1 .89-1.15 2.7 2.7 0 0 1 1.55-.43m6.9 5.88a3 3 0 0 1-1.58-.38 3 3 0 0 1-1.07-1.04 3 3 0 0 1-.38-1.52 3 3 0 0 1 .36-1.52 2.7 2.7 0 0 1 1.01-1.04 3 3 0 0 1 1.46-.38 3 3 0 0 1 1.44.37 2.6 2.6 0 0 1 1 1.03 3 3 0 0 1 .36 1.54v.23h-5.04v-.58h4.6l-.3.23a2 2 0 0 0-.27-1.1 2 2 0 0 0-.73-.77 2 2 0 0 0-1.07-.28 2 2 0 0 0-1.07.28 2 2 0 0 0-.73.77A2.4 2.4 0 0 0 37.61-3v.13a2.3 2.3 0 0 0 .29 1.16 2 2 0 0 0 .81.78 2.5 2.5 0 0 0 1.19.28 3 3 0 0 0 .99-.19 2 2 0 0 0 .78-.57l.44.51a2.5 2.5 0 0 1-.96.7 3 3 0 0 1-1.27.24Zm4.2-.05v-5.78h.74v1.58l-.08-.28a2 2 0 0 1 .82-1 2.7 2.7 0 0 1 1.42-.35v.77l-.1-.01h-.08a2 2 0 0 0-1.43.55 2.2 2.2 0 0 0-.52 1.58V0Zm7.5 0v-1.27l-.03-.22v-2.13a1.5 1.5 0 0 0-.41-1.13 1.7 1.7 0 0 0-1.23-.4 3 3 0 0 0-1.07.19 3 3 0 0 0-.85.5l-.35-.59a3 3 0 0 1 1.05-.58 4 4 0 0 1 1.3-.2 2.5 2.5 0 0 1 1.73.56 2.2 2.2 0 0 1 .61 1.68V0Zm-2 .05a3 3 0 0 1-1.12-.2 1.7 1.7 0 0 1-.73-.6 1.5 1.5 0 0 1-.25-.87 1.6 1.6 0 0 1 .21-.82 1.5 1.5 0 0 1 .7-.6 3 3 0 0 1 1.32-.23h1.99v.58h-1.96a1.7 1.7 0 0 0-1.17.3 1 1 0 0 0-.32.74 1 1 0 0 0 .39.8 1.7 1.7 0 0 0 1.07.3 2 2 0 0 0 1.14-.3 2 2 0 0 0 .7-.87l.17.53a1.8 1.8 0 0 1-.76.92 2.6 2.6 0 0 1-1.37.32m6.7 0a1.7 1.7 0 0 1-1.26-.44 1.7 1.7 0 0 1-.44-1.24v-5.42h.79v5.38a1 1 0 0 0 .25.78 1 1 0 0 0 .74.28 1.3 1.3 0 0 0 .86-.3l.27.56a1.4 1.4 0 0 1-.55.3 2 2 0 0 1-.66.1m-2.73-5.18v-.65h3.57v.65ZM64.78.05a3 3 0 0 1-1.35-.34 2.5 2.5 0 0 1-.96-1 3.3 3.3 0 0 1-.36-1.6 3.4 3.4 0 0 1 .35-1.6 2.4 2.4 0 0 1 .96-1 3 3 0 0 1 1.36-.34 3 3 0 0 1 1.48.37 2.7 2.7 0 0 1 1.03 1.03 3 3 0 0 1 .38 1.54 3 3 0 0 1-.38 1.54 2.7 2.7 0 0 1-1.03 1.03 3 3 0 0 1-1.48.37M61.8 2.13v-7.91h.75v1.74l-.08 1.16.11 1.17v3.84Zm2.92-2.77a2 2 0 0 0 1.1-.28 2 2 0 0 0 .77-.79 2.4 2.4 0 0 0 .29-1.18 2.4 2.4 0 0 0-.28-1.18 2 2 0 0 0-.77-.8 2 2 0 0 0-1.1-.27 2 2 0 0 0-1.1.28 2 2 0 0 0-.77.79 2.4 2.4 0 0 0-.28 1.18 2.4 2.4 0 0 0 .28 1.18 2 2 0 0 0 .77.8 2 2 0 0 0 1.1.27m8.12.64v-1.28l-.03-.2v-2.14a1.5 1.5 0 0 0-.41-1.13 1.7 1.7 0 0 0-1.23-.4 3 3 0 0 0-1.06.19 3 3 0 0 0-.86.49l-.35-.58a3 3 0 0 1 1.05-.58 4 4 0 0 1 1.3-.2 2.5 2.5 0 0 1 1.74.55 2.2 2.2 0 0 1 .6 1.7V0Zm-1.99.06a3 3 0 0 1-1.12-.22 1.7 1.7 0 0 1-.74-.6 1.5 1.5 0 0 1-.25-.87 1.6 1.6 0 0 1 .22-.82 1.5 1.5 0 0 1 .7-.6 3 3 0 0 1 1.31-.22h2v.59H71a1.7 1.7 0 0 0-1.16.3 1 1 0 0 0-.32.73 1 1 0 0 0 .38.8 1.7 1.7 0 0 0 1.08.3 2 2 0 0 0 1.14-.3 1.7 1.7 0 0 0 .7-.88l.17.54a2 2 0 0 1-.76.91 2.5 2.5 0 0 1-1.38.34m.4-6.6a1 1 0 0 1-.58-.16 1 1 0 0 1-.4-.4 1 1 0 0 1-.15-.57 1 1 0 0 1 .15-.57 1 1 0 0 1 .41-.42 1 1 0 0 1 .58-.16 1 1 0 0 1 .59.16 1 1 0 0 1 .4.42 1 1 0 0 1 .16.57 1 1 0 0 1-.15.56 1 1 0 0 1-.41.41 1 1 0 0 1-.6.16m0-.39a.7.7 0 0 0 .55-.21.7.7 0 0 0 .2-.53.8.8 0 0 0-.2-.54.7.7 0 0 0-.54-.23.7.7 0 0 0-.53.22.8.8 0 0 0-.2.55.7.7 0 0 0 .2.53.7.7 0 0 0 .53.21M81.59.05a3 3 0 0 1-1.35-.34 2.5 2.5 0 0 1-.96-1 3.3 3.3 0 0 1-.36-1.6 3.4 3.4 0 0 1 .35-1.6 2.4 2.4 0 0 1 .96-1 3 3 0 0 1 1.36-.34 3 3 0 0 1 1.49.37 2.7 2.7 0 0 1 1.02 1.03 3 3 0 0 1 .38 1.54 3 3 0 0 1-.38 1.54 2.7 2.7 0 0 1-1.03 1.03 3 3 0 0 1-1.48.37M78.6 2.13v-7.91h.75v1.74l-.08 1.16.11 1.17v3.84Zm2.92-2.77a2 2 0 0 0 1.1-.28 2 2 0 0 0 .77-.79 2.4 2.4 0 0 0 .29-1.18 2.4 2.4 0 0 0-.28-1.18 2 2 0 0 0-.77-.8 2 2 0 0 0-1.1-.27 2 2 0 0 0-1.1.28 2 2 0 0 0-.77.79 2.4 2.4 0 0 0-.28 1.18 2.4 2.4 0 0 0 .28 1.18 2 2 0 0 0 .77.8 2 2 0 0 0 1.1.27m4.54.64v-5.78h.75v1.58l-.07-.28a2 2 0 0 1 .81-1 2.7 2.7 0 0 1 1.42-.35v.77l-.09-.01h-.1a2 2 0 0 0-1.42.55 2.2 2.2 0 0 0-.51 1.58V0Zm6.73.05a3 3 0 0 1-1.58-.38 3 3 0 0 1-1.07-1.04 3 3 0 0 1-.39-1.52 3 3 0 0 1 .37-1.52 2.7 2.7 0 0 1 1-1.04 3 3 0 0 1 1.46-.38 3 3 0 0 1 1.45.37 2.6 2.6 0 0 1 1 1.03 3 3 0 0 1 .36 1.54v.11l-.01.12h-5.03v-.58h4.6l-.3.23a2 2 0 0 0-.27-1.1 2 2 0 0 0-.73-.77 2 2 0 0 0-1.07-.28 2 2 0 0 0-1.07.28 2 2 0 0 0-.73.77A2.4 2.4 0 0 0 90.52-3v.13a2.3 2.3 0 0 0 .29 1.16 2 2 0 0 0 .8.78 2.5 2.5 0 0 0 1.2.29 3 3 0 0 0 .99-.2 2 2 0 0 0 .78-.57l.44.51a2.5 2.5 0 0 1-.96.7 3 3 0 0 1-1.27.24m5.74 0a4 4 0 0 1-1.35-.2 3 3 0 0 1-1-.5l.34-.62a3 3 0 0 0 .9.46 4 4 0 0 0 1.16.19 2 2 0 0 0 1.19-.26.8.8 0 0 0 .36-.69.6.6 0 0 0-.2-.5 1.4 1.4 0 0 0-.54-.27 6 6 0 0 0-.73-.16l-.8-.16a3 3 0 0 1-.74-.26 1.4 1.4 0 0 1-.54-.46 1.4 1.4 0 0 1-.2-.8 1.4 1.4 0 0 1 .27-.85 2 2 0 0 1 .78-.58 3 3 0 0 1 1.25-.22 4 4 0 0 1 1.12.15 3 3 0 0 1 .92.4l-.34.62a3 3 0 0 0-.82-.38 4 4 0 0 0-.89-.11 2 2 0 0 0-1.14.27.8.8 0 0 0-.37.68.7.7 0 0 0 .2.52 1.4 1.4 0 0 0 .54.3 5 5 0 0 0 .74.16l.8.16a3 3 0 0 1 .73.25 1.4 1.4 0 0 1 .54.45 1.3 1.3 0 0 1 .2.77 1.4 1.4 0 0 1-.28.87 2 2 0 0 1-.81.57 4 4 0 0 1-1.29.2m5.65 0a1.7 1.7 0 0 1-1.26-.44 1.7 1.7 0 0 1-.43-1.24v-5.42h.78v5.38a1 1 0 0 0 .25.78 1 1 0 0 0 .74.28 1.3 1.3 0 0 0 .86-.3l.28.56a1.4 1.4 0 0 1-.55.3 2 2 0 0 1-.67.1m-2.73-5.18v-.65h3.57v.65ZM110.43 0v-1.27l-.03-.22v-2.13a1.5 1.5 0 0 0-.41-1.13 1.7 1.7 0 0 0-1.23-.4 3 3 0 0 0-1.07.19 3 3 0 0 0-.86.5l-.34-.59a3 3 0 0 1 1.05-.58 4 4 0 0 1 1.3-.2 2.5 2.5 0 0 1 1.73.56 2.2 2.2 0 0 1 .61 1.68V0Zm-1.99.05a3 3 0 0 1-1.13-.2 1.7 1.7 0 0 1-.73-.6 1.5 1.5 0 0 1-.25-.87 1.6 1.6 0 0 1 .21-.82 1.5 1.5 0 0 1 .7-.6 3 3 0 0 1 1.32-.23h1.99v.58h-1.97a1.7 1.7 0 0 0-1.16.3 1 1 0 0 0-.32.74 1 1 0 0 0 .38.8 1.7 1.7 0 0 0 1.07.3 2 2 0 0 0 1.15-.3 2 2 0 0 0 .7-.87l.17.53a1.8 1.8 0 0 1-.76.92 2.6 2.6 0 0 1-1.37.32m7.8-5.88a3 3 0 0 1 1.25.27 2 2 0 0 1 .83.82 3 3 0 0 1 .3 1.38V0h-.78v-3.27a2 2 0 0 0-.46-1.4 1.7 1.7 0 0 0-1.27-.46 2 2 0 0 0-1.08.25 1.7 1.7 0 0 0-.7.71 2.4 2.4 0 0 0-.25 1.13V0h-.78v-5.78h.75v1.59l-.12-.3a2 2 0 0 1 .88-.98 3 3 0 0 1 1.44-.36m6.8 5.88a3 3 0 0 1-1.47-.37 2.7 2.7 0 0 1-1.03-1.04 3 3 0 0 1-.38-1.53 3 3 0 0 1 .38-1.54 2.7 2.7 0 0 1 1.03-1.03 3 3 0 0 1 1.48-.37 3 3 0 0 1 1.35.34 2.5 2.5 0 0 1 .96 1 3.3 3.3 0 0 1 .36 1.6 3.4 3.4 0 0 1-.35 1.6 2.4 2.4 0 0 1-.96 1 3 3 0 0 1-1.36.34m.06-.69a2 2 0 0 0 1.1-.28 2 2 0 0 0 .77-.8 2.4 2.4 0 0 0 .29-1.17 2.4 2.4 0 0 0-.29-1.19 2 2 0 0 0-.77-.78 2 2 0 0 0-1.1-.28 2 2 0 0 0-1.1.28 2 2 0 0 0-.77.78 2.4 2.4 0 0 0-.28 1.19 2.4 2.4 0 0 0 .28 1.18 2 2 0 0 0 .77.8 2 2 0 0 0 1.1.27m2.18.64v-1.74l.07-1.16-.1-1.17v-4.1h.78V0Zm6.54 0v-1.27l-.03-.22v-2.13a1.5 1.5 0 0 0-.41-1.13 1.7 1.7 0 0 0-1.23-.4 3 3 0 0 0-1.07.19 3 3 0 0 0-.85.5l-.35-.59a3 3 0 0 1 1.06-.58 4 4 0 0 1 1.29-.2 2.5 2.5 0 0 1 1.74.56 2.2 2.2 0 0 1 .6 1.68V0Zm-1.99.05a3 3 0 0 1-1.13-.2 1.7 1.7 0 0 1-.73-.6 1.5 1.5 0 0 1-.25-.87 1.6 1.6 0 0 1 .21-.82 1.5 1.5 0 0 1 .7-.6 3 3 0 0 1 1.32-.23h1.99v.58H130a1.7 1.7 0 0 0-1.17.3 1 1 0 0 0-.32.74 1 1 0 0 0 .38.8 1.7 1.7 0 0 0 1.08.3 2 2 0 0 0 1.14-.3 2 2 0 0 0 .7-.87l.17.53a1.8 1.8 0 0 1-.76.92 2.6 2.6 0 0 1-1.37.32" transform="translate(106 600)"/></g><rect id="Rectangle_330" width="160" height="104" fill="rgba(65,125,165,0.29)" rx="12" transform="translate(258 519)"/><g id="Group_591" transform="translate(0 -1)"><path id="boxes-stacked-solid" fill="#fff" d="M11.3 0H9.49A2.2 2.2 0 0 0 7.3 2.19v5.1a2.9 2.9 0 0 0 2.92 2.92h5.84a2.9 2.9 0 0 0 2.91-2.92V2.2A2.2 2.2 0 0 0 16.78 0h-1.83v3.65a.73.73 0 0 1-.73.73h-2.19a.73.73 0 0 1-.72-.73ZM2.92 11.67A2.9 2.9 0 0 0 0 14.59v5.83a2.9 2.9 0 0 0 2.92 2.92h7.3a2.9 2.9 0 0 0 2.9-2.92V14.6a2.9 2.9 0 0 0-2.9-2.92H8.38v3.65a.73.73 0 0 1-.73.73H5.47a.73.73 0 0 1-.73-.73v-3.65Zm13.13 11.67h7.29a2.9 2.9 0 0 0 2.92-2.92V14.6a2.9 2.9 0 0 0-2.92-2.92h-1.82v3.65a.73.73 0 0 1-.73.73H18.6a.73.73 0 0 1-.73-.73v-3.65h-1.82a3 3 0 0 0-1.81.63 4 4 0 0 1 .35 1.56v7.3a4 4 0 0 1-.35 1.55 3 3 0 0 0 1.8.63" transform="translate(325 541)"/><path id="Path_5561" fill="#fff" d="M1.41 0v-11.9h2.76v9.65h5.96V0Zm8.77 0 5.3-11.9h2.73L23.52 0h-2.87l-4.37-10.5h1.1L13 0Zm2.67-2.55.72-2.09h6.13l.73 2.1ZM24.78 0v-11.9h5.14a7 7 0 0 1 2.76.52 4 4 0 0 1 1.79 1.49 4 4 0 0 1 .63 2.3 4 4 0 0 1-.63 2.29 4 4 0 0 1-1.79 1.47 7 7 0 0 1-2.76.51h-3.61l1.23-1.2V0Zm7.57 0-2.99-4.32h2.95L35.32 0Zm-4.81-4.22-1.23-1.3h3.47a2.8 2.8 0 0 0 1.9-.55 1.9 1.9 0 0 0 .63-1.52 1.9 1.9 0 0 0-.63-1.53 3 3 0 0 0-1.9-.54H26.3l1.23-1.3ZM43.02.2a7 7 0 0 1-2.6-.45 6 6 0 0 1-2.05-1.28 6 6 0 0 1-1.35-1.95 6 6 0 0 1-.49-2.47 6 6 0 0 1 .49-2.47 6 6 0 0 1 1.36-1.95 6 6 0 0 1 2.07-1.28 7 7 0 0 1 2.62-.45 7 7 0 0 1 2.85.52 5.6 5.6 0 0 1 2.13 1.53l-1.76 1.63a4 4 0 0 0-1.41-1.02 4 4 0 0 0-1.68-.33 4 4 0 0 0-1.57.28 4 4 0 0 0-1.24.79 4 4 0 0 0-.79 1.2 4 4 0 0 0-.28 1.55 4 4 0 0 0 .28 1.53 4 4 0 0 0 .8 1.21 4 4 0 0 0 1.22.8 4 4 0 0 0 1.55.28 5 5 0 0 0 1.6-.27 5 5 0 0 0 1.5-.9l1.56 1.99A7 7 0 0 1 45.58-.2a9 9 0 0 1-2.56.39m2.3-1.87v-4.47h2.51v4.83Zm7.6-5.44h5.73v2.14H52.9Zm.2 4.9h6.48V0h-9.22v-11.9h8.99v2.22H53.1Z" transform="translate(308 585)"/><path id="Path_5562" fill="#fff" d="M6.34.05a3 3 0 0 1-1.51-.38 3 3 0 0 1-1.05-1.04 3 3 0 0 1-.39-1.52 3 3 0 0 1 .39-1.53 3 3 0 0 1 1.05-1.04 3 3 0 0 1 1.5-.37 3 3 0 0 1 1.52.37A3 3 0 0 1 8.9-4.42a3 3 0 0 1 .38 1.53 3 3 0 0 1-.38 1.52A3 3 0 0 1 7.85-.33a3 3 0 0 1-1.51.38m0-.69a2 2 0 0 0 1.1-.28 2 2 0 0 0 .77-.8 2.4 2.4 0 0 0 .28-1.17 2.4 2.4 0 0 0-.28-1.19 2 2 0 0 0-.77-.78 2 2 0 0 0-1.1-.28 2 2 0 0 0-1.1.28 2 2 0 0 0-.77.78 2.4 2.4 0 0 0-.28 1.19 2.4 2.4 0 0 0 .28 1.18 2 2 0 0 0 .77.8 2 2 0 0 0 1.1.27m7.51.7A3 3 0 0 1 12.5-.3a2.5 2.5 0 0 1-.96-1 3.3 3.3 0 0 1-.36-1.6 3.4 3.4 0 0 1 .35-1.6 2.4 2.4 0 0 1 .96-1 3 3 0 0 1 1.36-.34 3 3 0 0 1 1.48.37 2.7 2.7 0 0 1 1.03 1.03 3 3 0 0 1 .38 1.54 3 3 0 0 1-.38 1.54 2.7 2.7 0 0 1-1.02 1.03 3 3 0 0 1-1.49.37m-2.97 2.07V-5.8h.74v1.74l-.07 1.16.1 1.17v3.84ZM13.8-.64a2 2 0 0 0 1.1-.28 2 2 0 0 0 .77-.79 2.4 2.4 0 0 0 .28-1.18 2.4 2.4 0 0 0-.28-1.18 2 2 0 0 0-.77-.8 2 2 0 0 0-1.1-.27 2 2 0 0 0-1.1.28 2 2 0 0 0-.77.79 2.4 2.4 0 0 0-.28 1.18 2.4 2.4 0 0 0 .28 1.18 2 2 0 0 0 .77.8 2 2 0 0 0 1.1.27m6.36.7a1.7 1.7 0 0 1-1.25-.45 1.7 1.7 0 0 1-.44-1.24v-5.42h.78v5.38a1 1 0 0 0 .26.78 1 1 0 0 0 .74.28 1.3 1.3 0 0 0 .86-.3l.27.56a1.4 1.4 0 0 1-.55.3 2 2 0 0 1-.67.1Zm-2.72-5.19v-.65H21v.65ZM22.8 0v-5.77h.78V0Zm.4-7.05a.6.6 0 0 1-.4-.17.5.5 0 0 1-.17-.4.5.5 0 0 1 .16-.38.6.6 0 0 1 .4-.16.6.6 0 0 1 .4.15.5.5 0 0 1 .17.39.6.6 0 0 1-.16.4.6.6 0 0 1-.4.17m9.78 1.22a2.6 2.6 0 0 1 1.22.27 2 2 0 0 1 .81.82 3 3 0 0 1 .3 1.38V0h-.79v-3.27a2 2 0 0 0-.43-1.4 1.6 1.6 0 0 0-1.23-.46 2 2 0 0 0-1.02.25 1.7 1.7 0 0 0-.68.71 2.5 2.5 0 0 0-.24 1.13V0h-.78v-3.27a2 2 0 0 0-.43-1.4 1.6 1.6 0 0 0-1.23-.46 2 2 0 0 0-1.03.25 1.7 1.7 0 0 0-.67.71 2.5 2.5 0 0 0-.24 1.13V0h-.78v-5.78h.75v1.57l-.12-.28a2 2 0 0 1 .85-.98 2.6 2.6 0 0 1 1.39-.36 2.4 2.4 0 0 1 1.44.42 2 2 0 0 1 .77 1.28l-.3-.12a2.2 2.2 0 0 1 .89-1.15 2.7 2.7 0 0 1 1.55-.43m6.9 5.88a3 3 0 0 1-1.58-.38 3 3 0 0 1-1.07-1.04 3 3 0 0 1-.38-1.52 3 3 0 0 1 .36-1.52 2.7 2.7 0 0 1 1.01-1.04 3 3 0 0 1 1.46-.38 3 3 0 0 1 1.44.37 2.6 2.6 0 0 1 1 1.03 3 3 0 0 1 .36 1.54v.23h-5.04v-.58h4.6l-.3.23a2 2 0 0 0-.27-1.1 2 2 0 0 0-.73-.77 2 2 0 0 0-1.07-.28 2 2 0 0 0-1.07.28 2 2 0 0 0-.73.77A2.4 2.4 0 0 0 37.61-3v.13a2.3 2.3 0 0 0 .29 1.16 2 2 0 0 0 .81.78 2.5 2.5 0 0 0 1.19.28 3 3 0 0 0 .99-.19 2 2 0 0 0 .78-.57l.44.51a2.5 2.5 0 0 1-.96.7 3 3 0 0 1-1.27.24Zm4.2-.05v-5.78h.74v1.58l-.08-.28a2 2 0 0 1 .82-1 2.7 2.7 0 0 1 1.42-.35v.77l-.1-.01h-.08a2 2 0 0 0-1.43.55 2.2 2.2 0 0 0-.52 1.58V0Zm7.5 0v-1.27l-.03-.22v-2.13a1.5 1.5 0 0 0-.41-1.13 1.7 1.7 0 0 0-1.23-.4 3 3 0 0 0-1.07.19 3 3 0 0 0-.85.5l-.35-.59a3 3 0 0 1 1.05-.58 4 4 0 0 1 1.3-.2 2.5 2.5 0 0 1 1.73.56 2.2 2.2 0 0 1 .61 1.68V0Zm-2 .05a3 3 0 0 1-1.12-.2 1.7 1.7 0 0 1-.73-.6 1.5 1.5 0 0 1-.25-.87 1.6 1.6 0 0 1 .21-.82 1.5 1.5 0 0 1 .7-.6 3 3 0 0 1 1.32-.23h1.99v.58h-1.96a1.7 1.7 0 0 0-1.17.3 1 1 0 0 0-.32.74 1 1 0 0 0 .39.8 1.7 1.7 0 0 0 1.07.3 2 2 0 0 0 1.14-.3 2 2 0 0 0 .7-.87l.17.53a1.8 1.8 0 0 1-.76.92 2.6 2.6 0 0 1-1.37.32m6.7 0a1.7 1.7 0 0 1-1.26-.44 1.7 1.7 0 0 1-.44-1.24v-5.42h.79v5.38a1 1 0 0 0 .25.78 1 1 0 0 0 .74.28 1.3 1.3 0 0 0 .86-.3l.27.56a1.4 1.4 0 0 1-.55.3 2 2 0 0 1-.66.1m-2.73-5.18v-.65h3.57v.65ZM64.78.05a3 3 0 0 1-1.35-.34 2.5 2.5 0 0 1-.96-1 3.3 3.3 0 0 1-.36-1.6 3.4 3.4 0 0 1 .35-1.6 2.4 2.4 0 0 1 .96-1 3 3 0 0 1 1.36-.34 3 3 0 0 1 1.48.37 2.7 2.7 0 0 1 1.03 1.03 3 3 0 0 1 .38 1.54 3 3 0 0 1-.38 1.54 2.7 2.7 0 0 1-1.03 1.03 3 3 0 0 1-1.48.37M61.8 2.13v-7.91h.75v1.74l-.08 1.16.11 1.17v3.84Zm2.92-2.77a2 2 0 0 0 1.1-.28 2 2 0 0 0 .77-.79 2.4 2.4 0 0 0 .29-1.18 2.4 2.4 0 0 0-.28-1.18 2 2 0 0 0-.77-.8 2 2 0 0 0-1.1-.27 2 2 0 0 0-1.1.28 2 2 0 0 0-.77.79 2.4 2.4 0 0 0-.28 1.18 2.4 2.4 0 0 0 .28 1.18 2 2 0 0 0 .77.8 2 2 0 0 0 1.1.27m8.12.64v-1.28l-.03-.2v-2.14a1.5 1.5 0 0 0-.41-1.13 1.7 1.7 0 0 0-1.23-.4 3 3 0 0 0-1.06.19 3 3 0 0 0-.86.49l-.35-.58a3 3 0 0 1 1.05-.58 4 4 0 0 1 1.3-.2 2.5 2.5 0 0 1 1.74.55 2.2 2.2 0 0 1 .6 1.7V0Zm-1.99.06a3 3 0 0 1-1.12-.22 1.7 1.7 0 0 1-.74-.6 1.5 1.5 0 0 1-.25-.87 1.6 1.6 0 0 1 .22-.82 1.5 1.5 0 0 1 .7-.6 3 3 0 0 1 1.31-.22h2v.59H71a1.7 1.7 0 0 0-1.16.3 1 1 0 0 0-.32.73 1 1 0 0 0 .38.8 1.7 1.7 0 0 0 1.08.3 2 2 0 0 0 1.14-.3 1.7 1.7 0 0 0 .7-.88l.17.54a2 2 0 0 1-.76.91 2.5 2.5 0 0 1-1.38.34m.4-6.6a1 1 0 0 1-.58-.16 1 1 0 0 1-.4-.4 1 1 0 0 1-.15-.57 1 1 0 0 1 .15-.57 1 1 0 0 1 .41-.42 1 1 0 0 1 .58-.16 1 1 0 0 1 .59.16 1 1 0 0 1 .4.42 1 1 0 0 1 .16.57 1 1 0 0 1-.15.56 1 1 0 0 1-.41.41 1 1 0 0 1-.6.16m0-.39a.7.7 0 0 0 .55-.21.7.7 0 0 0 .2-.53.8.8 0 0 0-.2-.54.7.7 0 0 0-.54-.23.7.7 0 0 0-.53.22.8.8 0 0 0-.2.55.7.7 0 0 0 .2.53.7.7 0 0 0 .53.21M81.59.05a3 3 0 0 1-1.35-.34 2.5 2.5 0 0 1-.96-1 3.3 3.3 0 0 1-.36-1.6 3.4 3.4 0 0 1 .35-1.6 2.4 2.4 0 0 1 .96-1 3 3 0 0 1 1.36-.34 3 3 0 0 1 1.49.37 2.7 2.7 0 0 1 1.02 1.03 3 3 0 0 1 .38 1.54 3 3 0 0 1-.38 1.54 2.7 2.7 0 0 1-1.03 1.03 3 3 0 0 1-1.48.37M78.6 2.13v-7.91h.75v1.74l-.08 1.16.11 1.17v3.84Zm2.92-2.77a2 2 0 0 0 1.1-.28 2 2 0 0 0 .77-.79 2.4 2.4 0 0 0 .29-1.18 2.4 2.4 0 0 0-.28-1.18 2 2 0 0 0-.77-.8 2 2 0 0 0-1.1-.27 2 2 0 0 0-1.1.28 2 2 0 0 0-.77.79 2.4 2.4 0 0 0-.28 1.18 2.4 2.4 0 0 0 .28 1.18 2 2 0 0 0 .77.8 2 2 0 0 0 1.1.27m4.54.64v-5.78h.75v1.58l-.07-.28a2 2 0 0 1 .81-1 2.7 2.7 0 0 1 1.42-.35v.77l-.09-.01h-.1a2 2 0 0 0-1.42.55 2.2 2.2 0 0 0-.51 1.58V0Zm4.33 0v-5.77h.78V0Zm.4-7.05a.6.6 0 0 1-.4-.17.5.5 0 0 1-.17-.4.5.5 0 0 1 .16-.38.6.6 0 0 1 .4-.16.6.6 0 0 1 .41.15.5.5 0 0 1 .17.39.6.6 0 0 1-.16.4.6.6 0 0 1-.42.17Zm4.1 7.1a4 4 0 0 1-1.36-.2 3 3 0 0 1-1-.5l.35-.63a3 3 0 0 0 .9.47 4 4 0 0 0 1.15.19 2 2 0 0 0 1.2-.26.8.8 0 0 0 .36-.69.6.6 0 0 0-.2-.5 1.4 1.4 0 0 0-.54-.27 6 6 0 0 0-.73-.16l-.8-.16a3 3 0 0 1-.74-.26 1.4 1.4 0 0 1-.54-.47 1.4 1.4 0 0 1-.2-.78 1.4 1.4 0 0 1 .27-.86 2 2 0 0 1 .78-.58 3 3 0 0 1 1.25-.22 4 4 0 0 1 1.12.15 3 3 0 0 1 .92.4l-.35.62a3 3 0 0 0-.81-.38 4 4 0 0 0-.89-.11 2 2 0 0 0-1.14.27.8.8 0 0 0-.37.68.7.7 0 0 0 .2.52 1.4 1.4 0 0 0 .54.3 5 5 0 0 0 .74.16l.8.16a3 3 0 0 1 .73.25 1.4 1.4 0 0 1 .54.45 1.3 1.3 0 0 1 .2.77 1.4 1.4 0 0 1-.28.87 2 2 0 0 1-.81.57 4 4 0 0 1-1.29.2" transform="translate(289 600)"/></g><path id="Path_5556" fill="#32cd32" d="M.66 0v-4.9h.9v4.13h2.57V0Zm3.5 0 2.2-4.9h.9L9.49 0h-.95l-1.9-4.42H7L5.1 0Zm1.02-1.13.25-.72h2.64l.25.72Zm7.14 1.2a3 3 0 0 1-1.05-.19 3 3 0 0 1-.84-.52 2 2 0 0 1-.55-.8 3 3 0 0 1-.2-1 3 3 0 0 1 .2-1.02 2 2 0 0 1 .55-.8 3 3 0 0 1 .85-.52 3 3 0 0 1 1.05-.19 3 3 0 0 1 1.13.2 2 2 0 0 1 .84.6l-.57.56a2 2 0 0 0-.62-.42 2 2 0 0 0-.73-.14 2 2 0 0 0-.72.13 2 2 0 0 0-.56.36 2 2 0 0 0-.37.54 2 2 0 0 0-.13.7 2 2 0 0 0 .13.68 2 2 0 0 0 .37.55 2 2 0 0 0 .56.36 2 2 0 0 0 .71.13 2 2 0 0 0 .7-.12 2 2 0 0 0 .65-.39l.52.68a3 3 0 0 1-.9.47 3 3 0 0 1-1.02.15m1.06-.74v-1.84h.86v1.96Zm2.05.67v-4.9h2.02a3 3 0 0 1 1.12.21 1.6 1.6 0 0 1 .72.6 1.7 1.7 0 0 1 .25.93 1.7 1.7 0 0 1-.26.93 1.6 1.6 0 0 1-.71.6 3 3 0 0 1-1.12.2h-1.51l.4-.4V0Zm3.21 0L17.4-1.78h.97L19.62 0Zm-2.3-1.74-.4-.44h1.47a1.4 1.4 0 0 0 .9-.26 1 1 0 0 0 .3-.72 1 1 0 0 0-.3-.72 1.4 1.4 0 0 0-.9-.25h-1.47l.4-.45ZM20.55 0v-4.9h.91V0Zm2.23 0v-4.9h.75l3.08 3.77h-.37V-4.9h.9V0h-.75l-3.07-3.77h.37V0Zm7.96.07a3 3 0 0 1-1.05-.19 3 3 0 0 1-.84-.52 2 2 0 0 1-.55-.8 3 3 0 0 1-.2-1 3 3 0 0 1 .2-1.02 2 2 0 0 1 .56-.8 3 3 0 0 1 .84-.52 3 3 0 0 1 1.06-.19 3 3 0 0 1 1.12.2 2 2 0 0 1 .84.6l-.57.56a2 2 0 0 0-.62-.42 2 2 0 0 0-.73-.14 2 2 0 0 0-.71.13 2 2 0 0 0-.57.36 2 2 0 0 0-.37.54 2 2 0 0 0-.13.7 2 2 0 0 0 .13.68 2 2 0 0 0 .37.55 2 2 0 0 0 .56.36 2 2 0 0 0 .71.13 2 2 0 0 0 .7-.12 2 2 0 0 0 .65-.39l.52.68a3 3 0 0 1-.9.47 3 3 0 0 1-1.02.15m1.06-.74v-1.84h.86v1.96Z" transform="translate(87 430)"/><path id="Path_5557" fill="#195f8c" d="M11.7-13.59v1.37a9 9 0 0 0-1.64-.68 8 8 0 0 0-1.97-.2 5.5 5.5 0 0 0-4.07 1.65A6 6 0 0 0 2.4-7.16 6 6 0 0 0 4-2.73a5.7 5.7 0 0 0 4.27 1.66 5.4 5.4 0 0 0 3.47-1.1v1.44a6 6 0 0 1-3.53.9 7 7 0 0 1-5.19-1.95 7.2 7.2 0 0 1-1.97-5.38 7 7 0 0 1 2.04-5.19 7 7 0 0 1 5.04-2 8 8 0 0 1 3.57.76m9.45 7.67v-.48a3.2 3.2 0 0 0-.8-2.31 2.8 2.8 0 0 0-2.18-.87 3 3 0 0 0-2.25.95 4.3 4.3 0 0 0-1.05 2.7Zm.65 4.1v1.3a6.5 6.5 0 0 1-2.94.63A5.2 5.2 0 0 1 15-1.37a5.3 5.3 0 0 1-1.48-3.9 6 6 0 0 1 1.3-4.04 4.3 4.3 0 0 1 3.38-1.47 4 4 0 0 1 3.1 1.28 5.2 5.2 0 0 1 1.17 3.62 6 6 0 0 1-.08 1.13h-7.52a3.8 3.8 0 0 0 1.22 2.7 4.2 4.2 0 0 0 2.83.94 5 5 0 0 0 2.88-.72Zm4.56-8.82v1.82a3.5 3.5 0 0 1 3.38-2 3.3 3.3 0 0 1 2.46.95 3.3 3.3 0 0 1 .92 2.44V0h-1.28v-7.03a2.6 2.6 0 0 0-.63-1.9 2.2 2.2 0 0 0-1.66-.65 3 3 0 0 0-2.25 1 3.8 3.8 0 0 0-.94 2.7V0h-1.29v-10.65Zm11.8 1.09v6.61q0 1.83 1.7 1.83a2.2 2.2 0 0 0 1.43-.49v1.3a2.5 2.5 0 0 1-1.41.4Q36.85.1 36.85-3v-6.55h-1.74v-1.1h1.75v-2.66h1.3v2.66h3.04v1.1Zm6.95-1.1v1.81a3.05 3.05 0 0 1 2.98-1.93q.15 0 .53.04v1.3a3 3 0 0 0-.84-.12 2.3 2.3 0 0 0-1.9 1.12 4.3 4.3 0 0 0-.77 2.49V0h-1.28v-10.65Zm11.17 5.59H54.2a3.6 3.6 0 0 0-2.23.58 1.8 1.8 0 0 0-.73 1.44 2 2 0 0 0 .58 1.42 2.4 2.4 0 0 0 1.69.55 3 3 0 0 0 2.01-.7 2.3 2.3 0 0 0 .76-1.76ZM50.65-8.7v-1.39a5.7 5.7 0 0 1 3-.73q3.9 0 3.9 4.09V0h-1.27v-1.24A3.4 3.4 0 0 1 53.21.1a3.4 3.4 0 0 1-2.4-.87A3 3 0 0 1 49.87-3a2.8 2.8 0 0 1 1.2-2.38 5.3 5.3 0 0 1 3.13-.85h2.08v-.49a3.3 3.3 0 0 0-.6-2.15 2.5 2.5 0 0 0-2.05-.73 5 5 0 0 0-2.98.9M60.71 0v-14.85H62V0ZM72.7-2.04a3.2 3.2 0 0 0 2.35.99 2.7 2.7 0 0 0 2.26-1.15 4.7 4.7 0 0 0 .89-2.99 5 5 0 0 0-.92-3.26 2.9 2.9 0 0 0-2.35-1.15 3 3 0 0 0-1.02.2 4 4 0 0 0-1.03.65 3 3 0 0 0-.84 1.32 6 6 0 0 0-.33 2.05 4.7 4.7 0 0 0 .99 3.34m-.99-12.8v5.8a3.7 3.7 0 0 1 3.26-1.77 4 4 0 0 1 3.3 1.56 6.2 6.2 0 0 1 1.28 4.05 6 6 0 0 1-1.2 3.8A4 4 0 0 1 75 .18a3.7 3.7 0 0 1-3.3-1.72V0h-1.28v-14.85ZM82.17 0v-14.85h1.28V0Zm8.8.19a4.5 4.5 0 0 1-3.57-1.56 5.8 5.8 0 0 1-1.32-3.9 5.8 5.8 0 0 1 1.36-3.93 4.4 4.4 0 0 1 3.53-1.6 4.6 4.6 0 0 1 3.69 1.56 6 6 0 0 1 1.31 3.97 5.8 5.8 0 0 1-1.33 3.91A4.6 4.6 0 0 1 90.97.2Zm0-9.77a3.1 3.1 0 0 0-2.6 1.26 5 5 0 0 0-.94 3.05 4.7 4.7 0 0 0 .97 3 3.1 3.1 0 0 0 2.57 1.24 3.2 3.2 0 0 0 2.7-1.23 4.8 4.8 0 0 0 .96-3.01 5 5 0 0 0-.9-3.08 3.2 3.2 0 0 0-2.76-1.23m8.23 4.3a4.4 4.4 0 0 0 1.11 3.05 4 4 0 0 0 3.17 1.24 3.6 3.6 0 0 0 2.19-.67v1.3a4 4 0 0 1-2.33.61 5.1 5.1 0 0 1-4.03-1.63 5.7 5.7 0 0 1-1.45-3.91 5.7 5.7 0 0 1 1.48-3.89 5.1 5.1 0 0 1 4-1.66 5 5 0 0 1 2.33.57v1.3a4 4 0 0 0-2.2-.63 4 4 0 0 0-3.1 1.27 4.4 4.4 0 0 0-1.17 3.06M108.42 0v-14.85h1.28V0Zm3.15-5.59 4.5 5.59h-1.6l-4.45-5.59 4.32-5.06h1.58ZM118.21 0v-14.85h1.28V0Zm10.42-5.06h-2.08a3.6 3.6 0 0 0-2.23.58 1.8 1.8 0 0 0-.73 1.44 2 2 0 0 0 .57 1.42 2.4 2.4 0 0 0 1.7.55 3 3 0 0 0 2-.7 2.3 2.3 0 0 0 .76-1.76ZM123-8.7v-1.39a5.7 5.7 0 0 1 3-.73q3.9 0 3.9 4.09V0h-1.27v-1.24A3.4 3.4 0 0 1 125.56.1a3.4 3.4 0 0 1-2.4-.87 3 3 0 0 1-.94-2.23 2.8 2.8 0 0 1 1.19-2.38 5.3 5.3 0 0 1 3.14-.85h2.07v-.49a3.3 3.3 0 0 0-.6-2.15 2.5 2.5 0 0 0-2.04-.73 5 5 0 0 0-2.98.9m13.77 7.22a3 3 0 0 0 2.19-.93 3.8 3.8 0 0 0 .98-2.87 4.8 4.8 0 0 0-.94-3.27 2.8 2.8 0 0 0-2.12-1.06 2.8 2.8 0 0 0-2.35 1.18 5 5 0 0 0-.87 3.04 4 4 0 0 0 .97 2.91 3 3 0 0 0 2.14 1m3.17-9.18h1.28v9.83a4.7 4.7 0 0 1-1.3 3.62A4.8 4.8 0 0 1 136.56 4a7 7 0 0 1-3.1-.6V2.13a7 7 0 0 0 3 .65 3.6 3.6 0 0 0 2.54-.87 3.6 3.6 0 0 0 .95-2.74V-2.2a3.4 3.4 0 0 1-3.2 1.95 4.2 4.2 0 0 1-3.14-1.36 5.2 5.2 0 0 1-1.29-3.7 6.3 6.3 0 0 1 1.19-3.95 3.7 3.7 0 0 1 3.12-1.55 3.5 3.5 0 0 1 3.31 2.03Zm5.63 0v1.8a3.05 3.05 0 0 1 2.98-1.92q.15 0 .53.04v1.3a3 3 0 0 0-.84-.13 2.3 2.3 0 0 0-1.9 1.13 4.3 4.3 0 0 0-.77 2.49V0h-1.28v-10.65ZM150.97 0v-10.65h1.28V0Zm0-13.42a1 1 0 0 1-.25-.63 1 1 0 0 1 .25-.64.8.8 0 0 1 .63-.26 1 1 0 0 1 .64.26 1 1 0 0 1 .26.64.8.8 0 0 1-.26.63 1 1 0 0 1-.64.25 1 1 0 0 1-.63-.25m5.84 2.77v1.83a3.5 3.5 0 0 1 3.38-2 3.3 3.3 0 0 1 2.45.95 3.3 3.3 0 0 1 .93 2.44V0h-1.28v-7.03a2.6 2.6 0 0 0-.63-1.9 2.2 2.2 0 0 0-1.66-.65 3 3 0 0 0-2.25 1 3.8 3.8 0 0 0-.94 2.7V0h-1.28v-10.65Zm13.63 9.18a3 3 0 0 0 2.18-.93 3.8 3.8 0 0 0 .99-2.87 4.8 4.8 0 0 0-.95-3.26 2.8 2.8 0 0 0-2.12-1.07 2.8 2.8 0 0 0-2.35 1.18 5 5 0 0 0-.86 3.04 4 4 0 0 0 .96 2.91 3 3 0 0 0 2.15 1m3.17-9.18h1.28v9.83a4.7 4.7 0 0 1-1.3 3.62 4.8 4.8 0 0 1-3.36 1.21 7 7 0 0 1-3.11-.6V2.13a7 7 0 0 0 3 .65 3.6 3.6 0 0 0 2.54-.87 3.6 3.6 0 0 0 .95-2.74V-2.2a3.4 3.4 0 0 1-3.2 1.95 4.2 4.2 0 0 1-3.14-1.36 5.2 5.2 0 0 1-1.29-3.7 6.3 6.3 0 0 1 1.19-3.95 3.7 3.7 0 0 1 3.12-1.55 3.5 3.5 0 0 1 3.31 2.03Z" transform="translate(87 458)"/><path id="Path_5558" fill="#707070" d="M1.14 9.38V2.56h2.7a4 4 0 0 1 1.9.44A3 3 0 0 1 7 4.2a3.4 3.4 0 0 1 .45 1.77A3.4 3.4 0 0 1 7 7.73a3 3 0 0 1-1.27 1.21 4 4 0 0 1-1.9.44Zm.5-.45H3.8a3.5 3.5 0 0 0 1.68-.38 3 3 0 0 0 1.1-1.05 3 3 0 0 0 .38-1.53 3 3 0 0 0-.39-1.54 3 3 0 0 0-1.1-1.04A3.5 3.5 0 0 0 3.8 3H1.63Zm9.46.49a3 3 0 0 1-1.36-.33 2.4 2.4 0 0 1-.93-.92 2.6 2.6 0 0 1-.34-1.33A3 3 0 0 1 8.8 5.5a2.4 2.4 0 0 1 .87-.91 2.4 2.4 0 0 1 1.25-.33 2.4 2.4 0 0 1 1.24.32 2.3 2.3 0 0 1 .87.9 3 3 0 0 1 .31 1.34v.13h-4.5v-.38h4.23l-.2.19a2 2 0 0 0-.24-1.07 2 2 0 0 0-.7-.74 1.93 1.93 0 0 0-2.72.74 2 2 0 0 0-.25 1.08v.09a2 2 0 0 0 .27 1.1 2 2 0 0 0 .77.75 2.3 2.3 0 0 0 1.1.27 2 2 0 0 0 .92-.17 2 2 0 0 0 .72-.54l.28.32a2 2 0 0 1-.83.62 3 3 0 0 1-1.09.2Zm6.23-5.16a2.3 2.3 0 0 1 1.08.23 1.7 1.7 0 0 1 .72.73 2.5 2.5 0 0 1 .26 1.19v2.97h-.49V6.45a1.8 1.8 0 0 0-.43-1.3 1.6 1.6 0 0 0-1.22-.45 2 2 0 0 0-1.03.24 1.6 1.6 0 0 0-.67.68 2 2 0 0 0-.22 1.05v2.7h-.5V4.3h.48v1.4l-.07-.15A2 2 0 0 1 16 4.6a2.4 2.4 0 0 1 1.31-.34Zm6.57 5.12V2.15h.49v7.23Zm5.75 0V8.22l-.02-.17V6.14a1.4 1.4 0 0 0-.39-1.08 1.6 1.6 0 0 0-1.12-.37 2.7 2.7 0 0 0-1.76.64l-.24-.35a3 3 0 0 1 .92-.53 3 3 0 0 1 1.12-.2 2 2 0 0 1 1.45.48 2 2 0 0 1 .5 1.42v3.23Zm-1.83.04a2.4 2.4 0 0 1-.98-.18 1.4 1.4 0 0 1-.64-.51 1.4 1.4 0 0 1-.22-.76 1.4 1.4 0 0 1 .18-.7 1.3 1.3 0 0 1 .6-.52 3 3 0 0 1 1.12-.2h1.87v.38H27.9a1.6 1.6 0 0 0-1.1.29 1 1 0 0 0-.32.73 1 1 0 0 0 .37.78 1.7 1.7 0 0 0 1.04.29 2 2 0 0 0 1.09-.3 1.7 1.7 0 0 0 .66-.84l.13.33a2 2 0 0 1-.7.88 2.2 2.2 0 0 1-1.25.33m6.41 1.89a4 4 0 0 1-1.31-.22 3 3 0 0 1-1.02-.59l.26-.37a3 3 0 0 0 .91.55 3 3 0 0 0 1.15.19 2 2 0 0 0 1.5-.48 2 2 0 0 0 .48-1.5V7.48l.1-.76-.08-.76V4.3h.48v4.53a2.5 2.5 0 0 1-.62 1.88 2.6 2.6 0 0 1-1.85.6m-.13-2.12a2.6 2.6 0 0 1-1.29-.31A2.4 2.4 0 0 1 31.9 8a2.4 2.4 0 0 1-.34-1.28 2.4 2.4 0 0 1 .34-1.28 2.4 2.4 0 0 1 .9-.87 3 3 0 0 1 1.3-.31 2.6 2.6 0 0 1 1.24.3 2 2 0 0 1 .87.84 2.6 2.6 0 0 1 .32 1.32 2.6 2.6 0 0 1-.32 1.32 2 2 0 0 1-.87.85 2.5 2.5 0 0 1-1.24.3m.04-.43a2 2 0 0 0 1.08-.26 2 2 0 0 0 .73-.72 2 2 0 0 0 .27-1.06 2 2 0 0 0-.27-1.06 2 2 0 0 0-.73-.71 2.4 2.4 0 0 0-2.15 0 2 2 0 0 0-.74.71 2 2 0 0 0-.27 1.06 2 2 0 0 0 .27 1.06 2 2 0 0 0 .74.72 2 2 0 0 0 1.06.26Zm4.63.62V4.3h.46v1.39l-.05-.16a1.8 1.8 0 0 1 .72-.94 2.3 2.3 0 0 1 1.27-.33v.47h-.12a1.7 1.7 0 0 0-1.32.53 2 2 0 0 0-.48 1.48v2.64Zm3.74 0V4.3H43v5.08Zm.25-6.32a.4.4 0 0 1-.28-.12.4.4 0 0 1-.12-.27.4.4 0 0 1 .4-.4.4.4 0 0 1 .29.11.4.4 0 0 1 .1.28.4.4 0 0 1-.1.28.4.4 0 0 1-.3.12Zm4.78 1.2a2.3 2.3 0 0 1 1.09.24 1.7 1.7 0 0 1 .72.72 2.5 2.5 0 0 1 .25 1.19v2.97h-.49V6.45a1.8 1.8 0 0 0-.43-1.3 1.6 1.6 0 0 0-1.21-.45 2 2 0 0 0-1.04.24 1.6 1.6 0 0 0-.66.68 2 2 0 0 0-.23 1.05v2.7h-.49V4.3h.47v1.4l-.07-.15a2 2 0 0 1 .77-.95 2.4 2.4 0 0 1 1.32-.34m6.19 7.05a4 4 0 0 1-1.32-.21 3 3 0 0 1-1.01-.6l.26-.37a3 3 0 0 0 .91.55 3 3 0 0 0 1.15.2 2 2 0 0 0 1.5-.49 2 2 0 0 0 .48-1.5V7.48l.1-.76-.08-.76V4.3h.47v4.53a2.5 2.5 0 0 1-.62 1.88 2.6 2.6 0 0 1-1.85.6Zm-.14-2.11a2.6 2.6 0 0 1-1.3-.32 2.4 2.4 0 0 1-.9-.88 2.4 2.4 0 0 1-.34-1.28 2.4 2.4 0 0 1 .34-1.29 2.4 2.4 0 0 1 .9-.86 3 3 0 0 1 1.3-.32 2.6 2.6 0 0 1 1.24.3 2 2 0 0 1 .87.85 2.6 2.6 0 0 1 .32 1.32 2.6 2.6 0 0 1-.32 1.32 2 2 0 0 1-.87.85 2.5 2.5 0 0 1-1.24.3Zm.04-.44a2 2 0 0 0 1.07-.26 2 2 0 0 0 .74-.72 2 2 0 0 0 .26-1.06 2 2 0 0 0-.26-1.06 2 2 0 0 0-.74-.71 2.4 2.4 0 0 0-2.15 0 2 2 0 0 0-.74.71 2 2 0 0 0-.27 1.06 2 2 0 0 0 .27 1.06 2 2 0 0 0 .74.72 2 2 0 0 0 1.07.26Zm8.41.66a4 4 0 0 1-1.18-.18 2 2 0 0 1-.86-.47l.22-.4a3 3 0 0 0 .78.44 3 3 0 0 0 1.06.18 2 2 0 0 0 1.14-.26.8.8 0 0 0 .35-.7.7.7 0 0 0-.17-.49 1 1 0 0 0-.49-.28 5 5 0 0 0-.66-.16l-.72-.14a3 3 0 0 1-.66-.22 1 1 0 0 1-.48-.4 1.2 1.2 0 0 1-.18-.69 1.2 1.2 0 0 1 .21-.7 1.5 1.5 0 0 1 .64-.5 3 3 0 0 1 1.07-.19 4 4 0 0 1 .96.14 2 2 0 0 1 .79.36l-.23.39a2 2 0 0 0-.72-.35 3 3 0 0 0-.8-.11 2 2 0 0 0-1.1.27.8.8 0 0 0-.34.68.7.7 0 0 0 .18.51 1 1 0 0 0 .48.3 5 5 0 0 0 .67.16l.72.14a3 3 0 0 1 .66.22 1 1 0 0 1 .48.39 1 1 0 0 1 .18.67 1.2 1.2 0 0 1-.22.73 1.5 1.5 0 0 1-.68.48 3 3 0 0 1-1.1.18m5.36 0a2.5 2.5 0 0 1-1.3-.33 2.5 2.5 0 0 1-.9-.92 2.6 2.6 0 0 1-.34-1.33 2.6 2.6 0 0 1 .33-1.34 2.5 2.5 0 0 1 .9-.91 2.5 2.5 0 0 1 1.3-.33 2.6 2.6 0 0 1 1.31.33 2.4 2.4 0 0 1 .9.91 3 3 0 0 1 .34 1.34 3 3 0 0 1-.33 1.33 2.4 2.4 0 0 1-.91.92 2.6 2.6 0 0 1-1.3.33m0-.44a2 2 0 0 0 1.05-.27 2 2 0 0 0 .73-.75 2.3 2.3 0 0 0 .27-1.12 2.3 2.3 0 0 0-.27-1.13 2 2 0 0 0-.73-.75 2 2 0 0 0-1.05-.26 2 2 0 0 0-1.05.26 2 2 0 0 0-.73.75 2.3 2.3 0 0 0-.26 1.13 2.3 2.3 0 0 0 .26 1.12 2 2 0 0 0 .73.75 2 2 0 0 0 1.05.27m10.38-4.72a2 2 0 0 1 1.06.24 1.7 1.7 0 0 1 .71.72 2.5 2.5 0 0 1 .25 1.19v2.97h-.49V6.45a1.8 1.8 0 0 0-.41-1.3 1.5 1.5 0 0 0-1.17-.46 2 2 0 0 0-1 .25 1.6 1.6 0 0 0-.63.68 2 2 0 0 0-.23 1.05v2.7h-.49V6.46a1.8 1.8 0 0 0-.41-1.3 1.5 1.5 0 0 0-1.17-.45 2 2 0 0 0-1 .24 1.6 1.6 0 0 0-.64.68 2 2 0 0 0-.22 1.05v2.7h-.5V4.3h.48v1.4l-.07-.16a2 2 0 0 1 .75-.94 2.3 2.3 0 0 1 1.26-.34 2 2 0 0 1 1.29.38 1.7 1.7 0 0 1 .65 1.15l-.17-.07a2 2 0 0 1 .77-1.06 2.3 2.3 0 0 1 1.38-.4m9.09 5.16a2.4 2.4 0 0 1-1.22-.31 2 2 0 0 1-.85-.9 3 3 0 0 1-.32-1.38 3 3 0 0 1 .32-1.38 2.3 2.3 0 0 1 .85-.89 2.4 2.4 0 0 1 1.22-.3 2.6 2.6 0 0 1 1.29.32 2.4 2.4 0 0 1 .9.9 3 3 0 0 1 .32 1.35 3 3 0 0 1-.32 1.35 2.4 2.4 0 0 1-.9.9 2.6 2.6 0 0 1-1.3.34m-2.56-.04V2.15h.49v3.8l-.1.88.08.88v1.67Zm2.53-.4a2 2 0 0 0 1.05-.27 2 2 0 0 0 .73-.75 2.3 2.3 0 0 0 .27-1.12 2.3 2.3 0 0 0-.27-1.13 2 2 0 0 0-.73-.75 2 2 0 0 0-1.05-.27 2 2 0 0 0-1.05.27 2 2 0 0 0-.73.75 2.3 2.3 0 0 0-.27 1.13 2.3 2.3 0 0 0 .27 1.12 2 2 0 0 0 .73.75 2 2 0 0 0 1.04.27Zm6.11.44a3 3 0 0 1-1.36-.33 2.4 2.4 0 0 1-.92-.92 2.6 2.6 0 0 1-.34-1.33 3 3 0 0 1 .32-1.34 2.4 2.4 0 0 1 .87-.91 2.4 2.4 0 0 1 1.25-.33 2.4 2.4 0 0 1 1.24.32 2.3 2.3 0 0 1 .87.9 3 3 0 0 1 .31 1.34v.13H90.7v-.38h4.23l-.2.19a2 2 0 0 0-.24-1.07 2 2 0 0 0-.7-.74 1.93 1.93 0 0 0-2.72.74 2 2 0 0 0-.25 1.08v.09a2 2 0 0 0 .28 1.1 2 2 0 0 0 .76.75 2.3 2.3 0 0 0 1.11.27 2 2 0 0 0 .91-.17 2 2 0 0 0 .72-.54l.28.32a2 2 0 0 1-.83.62 3 3 0 0 1-1.1.2m6.23-5.16a2.3 2.3 0 0 1 1.1.23 1.7 1.7 0 0 1 .71.72 2.5 2.5 0 0 1 .26 1.2v2.97h-.49V6.45a1.8 1.8 0 0 0-.43-1.3 1.6 1.6 0 0 0-1.21-.45 2 2 0 0 0-1.04.24 1.6 1.6 0 0 0-.66.68 2 2 0 0 0-.23 1.05v2.7h-.49V2.16h.49v3.56l-.09-.16a2 2 0 0 1 .77-.95 2.4 2.4 0 0 1 1.31-.34Zm6.06 5.16a2.5 2.5 0 0 1-1.3-.33 2.5 2.5 0 0 1-.9-.92 2.6 2.6 0 0 1-.34-1.33 2.6 2.6 0 0 1 .34-1.34 2.5 2.5 0 0 1 .9-.91 2.5 2.5 0 0 1 1.3-.33 2.6 2.6 0 0 1 1.3.33 2.4 2.4 0 0 1 .91.9 3 3 0 0 1 .34 1.35 3 3 0 0 1-.34 1.33 2.4 2.4 0 0 1-.9.92 2.6 2.6 0 0 1-1.3.33m0-.44a2 2 0 0 0 1.06-.27 2 2 0 0 0 .73-.75 2.3 2.3 0 0 0 .26-1.12 2.3 2.3 0 0 0-.26-1.13 2 2 0 0 0-.73-.75 2 2 0 0 0-1.06-.27 2 2 0 0 0-1.04.27 2 2 0 0 0-.73.75 2.3 2.3 0 0 0-.27 1.13 2.3 2.3 0 0 0 .27 1.12 2 2 0 0 0 .73.75 2 2 0 0 0 1.04.27m.84-5.78a.3.3 0 0 1-.24-.1.3.3 0 0 1-.11-.25.3.3 0 0 1 .1-.25.4.4 0 0 1 .25-.1.4.4 0 0 1 .25.1.3.3 0 0 1 .1.25.35.35 0 0 1-.35.35m-1.67 0a.35.35 0 0 1-.36-.35.3.3 0 0 1 .1-.25.4.4 0 0 1 .5 0 .3.3 0 0 1 .1.25.35.35 0 0 1-.35.35Zm6.02 6.18-2.29-5.08h.52l2.14 4.8h-.23l2.16-4.8h.5l-2.3 5.08Zm5.09.03a4 4 0 0 1-1.18-.18 2 2 0 0 1-.86-.47l.23-.39a3 3 0 0 0 .78.43 3 3 0 0 0 1.05.18 2 2 0 0 0 1.15-.26.8.8 0 0 0 .35-.69.7.7 0 0 0-.18-.5 1 1 0 0 0-.48-.27 5 5 0 0 0-.67-.16l-.72-.14a3 3 0 0 1-.66-.23 1 1 0 0 1-.48-.4 1.2 1.2 0 0 1-.18-.68 1.2 1.2 0 0 1 .21-.7 1.5 1.5 0 0 1 .65-.5 3 3 0 0 1 1.07-.2 4 4 0 0 1 .96.14 2 2 0 0 1 .78.36l-.22.4a2 2 0 0 0-.73-.36 3 3 0 0 0-.8-.1 2 2 0 0 0-1.09.27.8.8 0 0 0-.35.68.7.7 0 0 0 .18.51 1 1 0 0 0 .49.3 5 5 0 0 0 .66.16l.72.14a3 3 0 0 1 .66.22 1 1 0 0 1 .48.39 1 1 0 0 1 .18.67 1.2 1.2 0 0 1-.23.73 1.5 1.5 0 0 1-.67.48 3 3 0 0 1-1.1.18Zm7.35 0a1.4 1.4 0 0 1-1.03-.37 1.4 1.4 0 0 1-.35-1V3.18h.48v4.8a1 1 0 0 0 .25.75 1 1 0 0 0 .7.26 1 1 0 0 0 .79-.28l.2.34a1 1 0 0 1-.48.27 2 2 0 0 1-.56.09Zm-2.32-4.7v-.4h3.04v.42Zm4.72 4.67V4.3h.48v5.08Zm.24-6.32a.4.4 0 0 1-.28-.12.4.4 0 0 1-.12-.27.4.4 0 0 1 .4-.4.4.4 0 0 1 .29.11.4.4 0 0 1 .11.28.4.4 0 0 1-.11.28.4.4 0 0 1-.29.12m2.3 6.32V2.15h.49v7.23Zm2.54 0V2.15h.49v7.23Zm5.05 0V4.3h.48v5.08Zm.24-6.32a.4.4 0 0 1-.28-.12.4.4 0 0 1-.12-.27.4.4 0 0 1 .4-.4.4.4 0 0 1 .29.11.4.4 0 0 1 .11.28.4.4 0 0 1-.11.28.4.4 0 0 1-.29.12m4.78 1.2a2.3 2.3 0 0 1 1.09.24 1.7 1.7 0 0 1 .72.72 2.5 2.5 0 0 1 .26 1.2v2.96h-.5V6.45a1.8 1.8 0 0 0-.43-1.3 1.6 1.6 0 0 0-1.22-.45 2 2 0 0 0-1.03.24 1.6 1.6 0 0 0-.66.68 2 2 0 0 0-.23 1.05v2.7h-.5V4.3h.48v1.4l-.07-.15a2 2 0 0 1 .77-.95 2.4 2.4 0 0 1 1.31-.34Zm5.36 5.16a4 4 0 0 1-1.18-.18 2 2 0 0 1-.86-.47l.23-.4a3 3 0 0 0 .78.44 3 3 0 0 0 1.05.18 2 2 0 0 0 1.15-.26.8.8 0 0 0 .35-.7.7.7 0 0 0-.18-.49 1 1 0 0 0-.48-.27 5 5 0 0 0-.67-.17l-.72-.14a3 3 0 0 1-.66-.22 1 1 0 0 1-.48-.4 1.2 1.2 0 0 1-.18-.69 1.2 1.2 0 0 1 .21-.7 1.5 1.5 0 0 1 .65-.5 3 3 0 0 1 1.07-.19 4 4 0 0 1 .96.14 2 2 0 0 1 .78.36l-.22.39a2 2 0 0 0-.72-.35 3 3 0 0 0-.81-.1 2 2 0 0 0-1.09.26.8.8 0 0 0-.34.69.7.7 0 0 0 .18.5 1 1 0 0 0 .48.3 5 5 0 0 0 .66.16l.72.15a3 3 0 0 1 .66.21 1 1 0 0 1 .48.4 1 1 0 0 1 .18.66 1.2 1.2 0 0 1-.22.73 1.5 1.5 0 0 1-.68.49 3 3 0 0 1-1.1.17m4.85 0a1.4 1.4 0 0 1-1.03-.37 1.4 1.4 0 0 1-.35-1.01V3.19h.48v4.8a1 1 0 0 0 .25.75 1 1 0 0 0 .7.26 1 1 0 0 0 .78-.28l.2.34a1 1 0 0 1-.47.27 2 2 0 0 1-.56.09Zm-2.32-4.7V4.3h3.04v.42Zm7.92 4.67V8.22l-.02-.17V6.14a1.4 1.4 0 0 0-.39-1.08 1.6 1.6 0 0 0-1.12-.37 2.7 2.7 0 0 0-1.75.64l-.25-.35a3 3 0 0 1 .92-.53 3 3 0 0 1 1.12-.2 2 2 0 0 1 1.45.48 2 2 0 0 1 .5 1.42v3.23Zm-1.83.03a2.4 2.4 0 0 1-.98-.18 1.4 1.4 0 0 1-.63-.5 1.4 1.4 0 0 1-.22-.77 1.4 1.4 0 0 1 .18-.7 1.3 1.3 0 0 1 .6-.52 3 3 0 0 1 1.12-.2h1.87v.38h-1.86a1.6 1.6 0 0 0-1.1.3 1 1 0 0 0-.33.72 1 1 0 0 0 .37.78 1.7 1.7 0 0 0 1.05.3 2 2 0 0 0 1.08-.3 1.7 1.7 0 0 0 .66-.84l.14.33a2 2 0 0 1-.7.88 2.2 2.2 0 0 1-1.25.32m6.79-5.16a2.3 2.3 0 0 1 1.08.24 1.7 1.7 0 0 1 .72.72 2.5 2.5 0 0 1 .26 1.2v2.96h-.49V6.45a1.8 1.8 0 0 0-.43-1.3 1.6 1.6 0 0 0-1.21-.45 2 2 0 0 0-1.03.24 1.6 1.6 0 0 0-.67.68 2 2 0 0 0-.23 1.05v2.7h-.49V4.3h.47v1.4l-.07-.15a2 2 0 0 1 .77-.95 2.4 2.4 0 0 1 1.32-.34Zm5.35 5.16a4 4 0 0 1-1.18-.18 2 2 0 0 1-.85-.47l.22-.39a3 3 0 0 0 .78.43 3 3 0 0 0 1.05.18 2 2 0 0 0 1.15-.26.8.8 0 0 0 .35-.69.7.7 0 0 0-.18-.5 1 1 0 0 0-.48-.27 5 5 0 0 0-.66-.16l-.72-.14a3 3 0 0 1-.66-.23 1 1 0 0 1-.49-.4 1.2 1.2 0 0 1-.18-.68 1.2 1.2 0 0 1 .22-.7 1.5 1.5 0 0 1 .64-.5 3 3 0 0 1 1.07-.2 4 4 0 0 1 .96.14 2 2 0 0 1 .78.36l-.22.4a2 2 0 0 0-.72-.36 3 3 0 0 0-.8-.1 2 2 0 0 0-1.1.27.8.8 0 0 0-.34.68.7.7 0 0 0 .18.51 1 1 0 0 0 .48.3 5 5 0 0 0 .66.16l.72.14a3 3 0 0 1 .67.22 1 1 0 0 1 .48.39 1 1 0 0 1 .18.67 1.2 1.2 0 0 1-.23.73 1.5 1.5 0 0 1-.68.48 3 3 0 0 1-1.1.17m5.44 0a3 3 0 0 1-1.36-.33 2.4 2.4 0 0 1-.93-.91 2.6 2.6 0 0 1-.33-1.34 3 3 0 0 1 .31-1.34 2.4 2.4 0 0 1 .88-.9 2.4 2.4 0 0 1 1.24-.34 2.4 2.4 0 0 1 1.25.32 2.3 2.3 0 0 1 .86.9 3 3 0 0 1 .32 1.34v.14h-4.49v-.38h4.23l-.2.18a2 2 0 0 0-.25-1.06 2 2 0 0 0-.7-.74 1.93 1.93 0 0 0-2.71.74 2 2 0 0 0-.26 1.07v.1a2 2 0 0 0 .28 1.1 2 2 0 0 0 .77.75 2.3 2.3 0 0 0 1.1.26 2 2 0 0 0 .91-.18 2 2 0 0 0 .72-.54l.28.33a2 2 0 0 1-.83.61 3 3 0 0 1-1.1.22Zm3.75-.04V4.3h.46v1.39l-.04-.16a1.8 1.8 0 0 1 .72-.94 2.3 2.3 0 0 1 1.26-.33v.47h-.11a1.7 1.7 0 0 0-1.33.53 2 2 0 0 0-.47 1.48v2.64Zm6.23-5.12a2.3 2.3 0 0 1 1.09.24 1.7 1.7 0 0 1 .72.72 2.5 2.5 0 0 1 .26 1.2v2.96h-.5V6.45a1.8 1.8 0 0 0-.42-1.3 1.6 1.6 0 0 0-1.22-.45 2 2 0 0 0-1.03.24 1.6 1.6 0 0 0-.67.68 2 2 0 0 0-.22 1.05v2.7h-.5V4.3h.48v1.4l-.07-.15a2 2 0 0 1 .77-.95 2.4 2.4 0 0 1 1.31-.34Zm7.28 5.13V8.22l-.02-.17V6.14a1.4 1.4 0 0 0-.39-1.08 1.6 1.6 0 0 0-1.12-.37 2.7 2.7 0 0 0-1.76.64l-.24-.35a3 3 0 0 1 .92-.53 3 3 0 0 1 1.12-.2 2 2 0 0 1 1.45.48 2 2 0 0 1 .5 1.42v3.23Zm-1.84.03a2.4 2.4 0 0 1-.97-.18 1.4 1.4 0 0 1-.64-.5 1.4 1.4 0 0 1-.22-.77 1.4 1.4 0 0 1 .18-.7 1.3 1.3 0 0 1 .6-.52 3 3 0 0 1 1.12-.2h1.87v.38h-1.86a1.6 1.6 0 0 0-1.1.3 1 1 0 0 0-.32.72 1 1 0 0 0 .37.78 1.7 1.7 0 0 0 1.04.3 2 2 0 0 0 1.09-.3 1.7 1.7 0 0 0 .66-.84l.13.33a2 2 0 0 1-.7.88 2.2 2.2 0 0 1-1.25.32m10.02-.04V8.23l-.02-.17V6.14a1.4 1.4 0 0 0-.39-1.08 1.6 1.6 0 0 0-1.12-.37 2.7 2.7 0 0 0-1.75.64l-.25-.35a3 3 0 0 1 .92-.53 3 3 0 0 1 1.12-.2 2 2 0 0 1 1.45.48 2 2 0 0 1 .5 1.42v3.23Zm-1.83.04a2.4 2.4 0 0 1-.98-.18 1.4 1.4 0 0 1-.64-.5 1.4 1.4 0 0 1-.22-.77 1.4 1.4 0 0 1 .18-.7 1.3 1.3 0 0 1 .6-.52 3 3 0 0 1 1.12-.2h1.87v.38h-1.86a1.6 1.6 0 0 0-1.1.3 1 1 0 0 0-.32.72 1 1 0 0 0 .37.78 1.7 1.7 0 0 0 1.04.3 2 2 0 0 0 1.1-.3 1.7 1.7 0 0 0 .65-.84l.13.33a2 2 0 0 1-.7.88 2.2 2.2 0 0 1-1.24.32m1.16-6.22a.3.3 0 0 1-.25-.1.3.3 0 0 1-.1-.25.3.3 0 0 1 .1-.25.4.4 0 0 1 .24-.1.4.4 0 0 1 .25.1.3.3 0 0 1 .1.25.35.35 0 0 1-.35.35Zm-1.68 0a.35.35 0 0 1-.35-.35.3.3 0 0 1 .1-.25.4.4 0 0 1 .5 0 .3.3 0 0 1 .1.25.35.35 0 0 1-.35.35m4.82 6.18V4.3h.47v1.39l-.05-.16a1.8 1.8 0 0 1 .72-.94 2.3 2.3 0 0 1 1.27-.33v.47h-.12a1.7 1.7 0 0 0-1.32.53 2 2 0 0 0-.48 1.48v2.64Zm7.63.03a4 4 0 0 1-1.19-.18 2 2 0 0 1-.85-.47l.23-.39a3 3 0 0 0 .77.43 3 3 0 0 0 1.06.18 2 2 0 0 0 1.15-.26.8.8 0 0 0 .35-.69.7.7 0 0 0-.18-.5 1 1 0 0 0-.49-.27 5 5 0 0 0-.66-.16l-.72-.14a3 3 0 0 1-.66-.23 1 1 0 0 1-.48-.4 1.2 1.2 0 0 1-.18-.68 1.2 1.2 0 0 1 .21-.7 1.5 1.5 0 0 1 .64-.5 3 3 0 0 1 1.08-.2 4 4 0 0 1 .95.14 2 2 0 0 1 .79.36l-.23.4a2 2 0 0 0-.72-.36 3 3 0 0 0-.8-.1 2 2 0 0 0-1.09.27.8.8 0 0 0-.35.68.7.7 0 0 0 .18.51 1 1 0 0 0 .49.3 5 5 0 0 0 .66.16l.72.14a3 3 0 0 1 .66.22 1 1 0 0 1 .48.39 1 1 0 0 1 .18.67 1.2 1.2 0 0 1-.23.73 1.5 1.5 0 0 1-.67.48 3 3 0 0 1-1.1.18Zm5.43 0a3 3 0 0 1-1.36-.33 2.4 2.4 0 0 1-.92-.91 2.6 2.6 0 0 1-.34-1.34 3 3 0 0 1 .32-1.34 2.4 2.4 0 0 1 .87-.9 2.4 2.4 0 0 1 1.25-.34 2.4 2.4 0 0 1 1.24.32 2.3 2.3 0 0 1 .87.9 3 3 0 0 1 .31 1.34v.14h-4.49v-.38h4.23l-.2.18a2 2 0 0 0-.24-1.06 2 2 0 0 0-.7-.74 1.93 1.93 0 0 0-2.72.74 2 2 0 0 0-.25 1.07v.1a2 2 0 0 0 .28 1.1 2 2 0 0 0 .76.75 2.3 2.3 0 0 0 1.11.26 2 2 0 0 0 .91-.17 2 2 0 0 0 .72-.54l.28.32a2 2 0 0 1-.83.62 3 3 0 0 1-1.1.22Zm6.3 0a2.4 2.4 0 0 1-1.21-.3 2.3 2.3 0 0 1-.86-.9 3 3 0 0 1-.31-1.38 3 3 0 0 1 .31-1.37 2.3 2.3 0 0 1 .86-.9 2.4 2.4 0 0 1 1.21-.3 2.6 2.6 0 0 1 1.3.32 2.4 2.4 0 0 1 .9.9 3 3 0 0 1 .32 1.35 3 3 0 0 1-.33 1.35 2.4 2.4 0 0 1-.9.9 2.6 2.6 0 0 1-1.29.34Zm-2.55 1.85V4.3h.47v1.66l-.08.89.1.88v3.54Zm2.52-2.29a2 2 0 0 0 1.06-.26 2 2 0 0 0 .73-.76 2.3 2.3 0 0 0 .27-1.12 2.3 2.3 0 0 0-.27-1.12 2 2 0 0 0-.73-.75 2 2 0 0 0-1.06-.27 2 2 0 0 0-1.04.27 2 2 0 0 0-.73.75 2.3 2.3 0 0 0-.27 1.12 2.3 2.3 0 0 0 .27 1.12 2 2 0 0 0 .73.76 2 2 0 0 0 1.04.27Zm7.24.4V8.23l-.02-.17V6.14a1.4 1.4 0 0 0-.38-1.08 1.6 1.6 0 0 0-1.13-.37 2.7 2.7 0 0 0-1.75.64l-.25-.35a3 3 0 0 1 .92-.53 3 3 0 0 1 1.12-.2 2 2 0 0 1 1.45.48 2 2 0 0 1 .5 1.42v3.23Zm-1.83.04a2.4 2.4 0 0 1-.98-.18 1.4 1.4 0 0 1-.63-.5 1.4 1.4 0 0 1-.22-.77 1.4 1.4 0 0 1 .18-.7 1.3 1.3 0 0 1 .6-.52 3 3 0 0 1 1.12-.2h1.87v.38h-1.86a1.6 1.6 0 0 0-1.1.3 1 1 0 0 0-.33.72 1 1 0 0 0 .37.78 1.7 1.7 0 0 0 1.05.3 2 2 0 0 0 1.08-.3 1.7 1.7 0 0 0 .66-.84l.14.33a2 2 0 0 1-.7.88 2.2 2.2 0 0 1-1.25.33Zm4.3-.04V4.3h.47v1.39l-.05-.16a1.8 1.8 0 0 1 .72-.94 2.3 2.3 0 0 1 1.26-.33v.47h-.11a1.7 1.7 0 0 0-1.33.53 2 2 0 0 0-.47 1.48v2.64Zm5.76.04a3 3 0 0 1-1.35-.33 2.4 2.4 0 0 1-.93-.91 2.6 2.6 0 0 1-.34-1.34 3 3 0 0 1 .33-1.33 2.4 2.4 0 0 1 .87-.91 2.4 2.4 0 0 1 1.25-.33 2.4 2.4 0 0 1 1.24.32 2.3 2.3 0 0 1 .87.9 3 3 0 0 1 .32 1.34v.13h-4.5v-.38h4.23l-.2.19a2 2 0 0 0-.24-1.07 2 2 0 0 0-.7-.74 1.93 1.93 0 0 0-2.72.74 2 2 0 0 0-.25 1.08v.09a2 2 0 0 0 .28 1.1 2 2 0 0 0 .76.75 2.3 2.3 0 0 0 1.11.27 2 2 0 0 0 .91-.17 2 2 0 0 0 .72-.54l.28.32a2 2 0 0 1-.83.62 3 3 0 0 1-1.1.2Zm3.75-.04V4.3h.47v1.39l-.05-.16a1.8 1.8 0 0 1 .72-.94 2.3 2.3 0 0 1 1.27-.33v.47h-.12a1.7 1.7 0 0 0-1.32.53 2 2 0 0 0-.48 1.48v2.64Zm6.58 0V8.23l-.02-.18v-1.9a1.4 1.4 0 0 0-.38-1.08 1.6 1.6 0 0 0-1.13-.37 2.7 2.7 0 0 0-1.75.64l-.25-.35a3 3 0 0 1 .92-.53 3 3 0 0 1 1.12-.2 2 2 0 0 1 1.45.48 2 2 0 0 1 .5 1.42v3.23Zm-1.83.04a2.4 2.4 0 0 1-.98-.18 1.4 1.4 0 0 1-.63-.5 1.4 1.4 0 0 1-.22-.77 1.4 1.4 0 0 1 .18-.7 1.3 1.3 0 0 1 .6-.52 3 3 0 0 1 1.12-.2h1.87v.38h-1.86a1.6 1.6 0 0 0-1.1.3 1 1 0 0 0-.33.72 1 1 0 0 0 .37.78 1.7 1.7 0 0 0 1.05.3 2 2 0 0 0 1.08-.3 1.7 1.7 0 0 0 .66-.84l.14.33a2 2 0 0 1-.7.88 2.2 2.2 0 0 1-1.25.33Zm6.26 0a2.5 2.5 0 0 1-1.28-.32 2.4 2.4 0 0 1-.9-.91 3 3 0 0 1-.33-1.35 3 3 0 0 1 .33-1.35 2.4 2.4 0 0 1 .9-.9 2.5 2.5 0 0 1 1.28-.33 2.4 2.4 0 0 1 1.21.31 2.3 2.3 0 0 1 .86.89 3 3 0 0 1 .32 1.38 3 3 0 0 1-.32 1.38 2 2 0 0 1-.85.9 2.4 2.4 0 0 1-1.21.3Zm.03-.43a2 2 0 0 0 1.05-.27 2 2 0 0 0 .73-.76 2.3 2.3 0 0 0 .26-1.12 2.3 2.3 0 0 0-.26-1.12 2 2 0 0 0-.73-.75 2.2 2.2 0 0 0-2.1 0 2 2 0 0 0-.73.75 2.3 2.3 0 0 0-.27 1.12 2.3 2.3 0 0 0 .27 1.12 2 2 0 0 0 .73.76 2 2 0 0 0 1.05.27m2.05.4V7.7l.1-.88-.1-.89V2.15h.48v7.23Zm5.14 0V3.52a1.4 1.4 0 0 1 .36-1.02 1.4 1.4 0 0 1 1.05-.39 2 2 0 0 1 .55.09 1 1 0 0 1 .45.24l-.2.37a1 1 0 0 0-.34-.21 1 1 0 0 0-.44-.07 1 1 0 0 0-.71.26 1 1 0 0 0-.25.77v.85l.01.24v4.73Zm-.94-4.67v-.4h3.04v.42Zm4.03 4.67V4.3h.47v1.39l-.05-.16a1.8 1.8 0 0 1 .72-.94 2.3 2.3 0 0 1 1.27-.33v.47h-.12a1.7 1.7 0 0 0-1.32.53 2 2 0 0 0-.48 1.48v2.64Zm6.58 0V8.22l-.02-.17V6.14a1.4 1.4 0 0 0-.39-1.08 1.6 1.6 0 0 0-1.12-.37 2.7 2.7 0 0 0-1.75.64l-.25-.35a3 3 0 0 1 .92-.53 3 3 0 0 1 1.12-.2 2 2 0 0 1 1.45.48 2 2 0 0 1 .5 1.42v3.23Zm-1.83.03a2.4 2.4 0 0 1-.98-.18 1.4 1.4 0 0 1-.64-.5 1.4 1.4 0 0 1-.21-.77 1.4 1.4 0 0 1 .18-.7 1.3 1.3 0 0 1 .6-.52 3 3 0 0 1 1.12-.2h1.87v.38h-1.86a1.6 1.6 0 0 0-1.11.3 1 1 0 0 0-.32.72 1 1 0 0 0 .37.78 1.7 1.7 0 0 0 1.05.3 2 2 0 0 0 1.08-.3 1.7 1.7 0 0 0 .66-.84l.13.33a2 2 0 0 1-.7.88 2.2 2.2 0 0 1-1.24.33Zm.3-5.84a1 1 0 0 1-.5-.13 1 1 0 0 1-.33-.35 1 1 0 0 1-.13-.46 1 1 0 0 1 .13-.49 1 1 0 0 1 .34-.35 1 1 0 0 1 .5-.14 1 1 0 0 1 .5.14 1 1 0 0 1 .34.35 1 1 0 0 1 .13.49 1 1 0 0 1-.13.46 1 1 0 0 1-.34.35 1 1 0 0 1-.5.14Zm0-.27a.66.66 0 0 0 .69-.67.7.7 0 0 0-.19-.5.7.7 0 0 0-.97 0 .7.7 0 0 0-.2.5.7.7 0 0 0 .2.48.6.6 0 0 0 .48.19Zm6.49.95a2.3 2.3 0 0 1 1.08.24 1.7 1.7 0 0 1 .72.72 2.5 2.5 0 0 1 .26 1.2v2.97h-.49V6.45a1.8 1.8 0 0 0-.43-1.3 1.6 1.6 0 0 0-1.21-.45 2 2 0 0 0-1.04.24 1.6 1.6 0 0 0-.66.68 2 2 0 0 0-.23 1.05v2.7h-.49V4.3h.47v1.4l-.07-.15a2 2 0 0 1 .77-.95 2.4 2.4 0 0 1 1.32-.34Zm9.05 0a2.3 2.3 0 0 1 1.09.24 1.7 1.7 0 0 1 .72.72 2.5 2.5 0 0 1 .26 1.2v2.97h-.49V6.45a1.8 1.8 0 0 0-.43-1.3 1.6 1.6 0 0 0-1.22-.45 2 2 0 0 0-1.03.24 1.6 1.6 0 0 0-.66.68 2 2 0 0 0-.23 1.05v2.7h-.49V4.3h.47v1.4l-.07-.15a2 2 0 0 1 .77-.95 2.4 2.4 0 0 1 1.32-.34Zm6.06 5.16a2.5 2.5 0 0 1-1.3-.33 2.5 2.5 0 0 1-.9-.91 2.6 2.6 0 0 1-.34-1.34 2.6 2.6 0 0 1 .34-1.33 2.5 2.5 0 0 1 .9-.91 2.5 2.5 0 0 1 1.3-.33 2.6 2.6 0 0 1 1.31.33 2.4 2.4 0 0 1 .9.91 3 3 0 0 1 .34 1.34 3 3 0 0 1-.33 1.33 2.4 2.4 0 0 1-.9.92 2.6 2.6 0 0 1-1.31.33Zm0-.43a2 2 0 0 0 1.05-.27 2 2 0 0 0 .73-.76 2.3 2.3 0 0 0 .27-1.12 2.3 2.3 0 0 0-.27-1.12 2 2 0 0 0-.73-.75 2 2 0 0 0-1.05-.27 2 2 0 0 0-1.05.27 2 2 0 0 0-.73.75 2.3 2.3 0 0 0-.26 1.12 2.3 2.3 0 0 0 .26 1.12 2 2 0 0 0 .73.76 2 2 0 0 0 1.06.27Zm6.01.43a2.5 2.5 0 0 1-1.28-.32 2.4 2.4 0 0 1-.9-.91 3 3 0 0 1-.33-1.35 3 3 0 0 1 .33-1.35 2.4 2.4 0 0 1 .9-.9 2.5 2.5 0 0 1 1.28-.33 2.4 2.4 0 0 1 1.21.31 2.3 2.3 0 0 1 .86.89 3 3 0 0 1 .32 1.38 3 3 0 0 1-.31 1.38 2 2 0 0 1-.86.9 2.4 2.4 0 0 1-1.21.3Zm.03-.43a2 2 0 0 0 1.05-.27 2 2 0 0 0 .73-.76 2.3 2.3 0 0 0 .26-1.12 2.3 2.3 0 0 0-.26-1.12 2 2 0 0 0-.73-.75 2.2 2.2 0 0 0-2.1 0 2 2 0 0 0-.73.75 2.3 2.3 0 0 0-.27 1.12 2.3 2.3 0 0 0 .27 1.12 2 2 0 0 0 .73.76 2 2 0 0 0 1.06.27Zm2.05.4V7.7l.1-.88-.1-.89V2.15h.48v7.23Zm4.6.03a3 3 0 0 1-1.35-.33 2.4 2.4 0 0 1-.93-.91 2.6 2.6 0 0 1-.34-1.34 3 3 0 0 1 .32-1.33 2.4 2.4 0 0 1 .87-.91 2.4 2.4 0 0 1 1.25-.33 2.4 2.4 0 0 1 1.24.32 2.3 2.3 0 0 1 .87.9 3 3 0 0 1 .32 1.34v.13h-4.5v-.38h4.23l-.2.19a2 2 0 0 0-.24-1.07 2 2 0 0 0-.7-.74 1.93 1.93 0 0 0-2.72.74 2 2 0 0 0-.25 1.08v.09a2 2 0 0 0 .28 1.1 2 2 0 0 0 .76.75 2.3 2.3 0 0 0 1.11.27 2 2 0 0 0 .91-.17 2 2 0 0 0 .72-.54l.28.32a2 2 0 0 1-.83.62 3 3 0 0 1-1.1.2m3.75-.03V4.3h.47v1.39l-.05-.16a1.8 1.8 0 0 1 .73-.94 2.3 2.3 0 0 1 1.27-.33v.47h-.12a1.7 1.7 0 0 0-1.32.53 2 2 0 0 0-.48 1.48v2.64Zm6.24-5.13a2.3 2.3 0 0 1 1.08.24 1.7 1.7 0 0 1 .72.72 2.5 2.5 0 0 1 .26 1.2v2.97h-.48V6.45a1.8 1.8 0 0 0-.44-1.3 1.6 1.6 0 0 0-1.21-.45 2 2 0 0 0-1.03.24 1.6 1.6 0 0 0-.67.68 2 2 0 0 0-.23 1.05v2.7h-.49V4.3h.47v1.4l-.07-.15a2 2 0 0 1 .77-.95 2.4 2.4 0 0 1 1.32-.34Zm7.27 5.13V8.22l-.02-.17V6.14a1.4 1.4 0 0 0-.38-1.08 1.6 1.6 0 0 0-1.13-.37 2.7 2.7 0 0 0-1.75.64l-.24-.35a3 3 0 0 1 .91-.53 3 3 0 0 1 1.12-.2 2 2 0 0 1 1.45.48 2 2 0 0 1 .5 1.42v3.23Zm-1.83.03a2.4 2.4 0 0 1-.98-.18 1.4 1.4 0 0 1-.63-.5 1.4 1.4 0 0 1-.22-.77 1.4 1.4 0 0 1 .18-.7 1.3 1.3 0 0 1 .6-.52 3 3 0 0 1 1.12-.2h1.87v.38h-1.86a1.6 1.6 0 0 0-1.1.3 1 1 0 0 0-.32.72 1 1 0 0 0 .37.78 1.7 1.7 0 0 0 1.04.3 2 2 0 0 0 1.09-.3 1.7 1.7 0 0 0 .65-.84l.14.33a2 2 0 0 1-.7.88 2.2 2.2 0 0 1-1.25.33Zm8.77 0a2.5 2.5 0 0 1-1.28-.32 2.4 2.4 0 0 1-.9-.91 3 3 0 0 1-.33-1.35 3 3 0 0 1 .33-1.35 2.4 2.4 0 0 1 .9-.9 2.5 2.5 0 0 1 1.28-.33 2.4 2.4 0 0 1 1.21.31 2.3 2.3 0 0 1 .86.9 3 3 0 0 1 .31 1.37 3 3 0 0 1-.3 1.38 2 2 0 0 1-.86.9 2.4 2.4 0 0 1-1.22.3m.03-.43a2 2 0 0 0 1.04-.27 2 2 0 0 0 .73-.76 2.3 2.3 0 0 0 .27-1.12 2.3 2.3 0 0 0-.27-1.12 2 2 0 0 0-.73-.75 2.2 2.2 0 0 0-2.1 0 2 2 0 0 0-.72.75 2.3 2.3 0 0 0-.27 1.12 2.3 2.3 0 0 0 .27 1.12 2 2 0 0 0 .73.76 2 2 0 0 0 1.05.27m2.05.4V7.7l.09-.88-.1-.89V2.15h.49v7.23Zm5.74 0V8.22l-.02-.17V6.14a1.4 1.4 0 0 0-.39-1.08 1.6 1.6 0 0 0-1.12-.37 2.7 2.7 0 0 0-1.75.64l-.25-.35a3 3 0 0 1 .92-.53 3 3 0 0 1 1.12-.2 2 2 0 0 1 1.45.48 2 2 0 0 1 .5 1.42v3.23Zm-1.83.04a2.4 2.4 0 0 1-.98-.18 1.4 1.4 0 0 1-.63-.52 1.4 1.4 0 0 1-.22-.76 1.4 1.4 0 0 1 .18-.7 1.3 1.3 0 0 1 .6-.52 3 3 0 0 1 1.12-.2h1.87v.38h-1.86a1.6 1.6 0 0 0-1.1.3 1 1 0 0 0-.32.72 1 1 0 0 0 .37.78 1.7 1.7 0 0 0 1.04.3 2 2 0 0 0 1.08-.3 1.7 1.7 0 0 0 .66-.84l.14.33a2 2 0 0 1-.7.88 2.2 2.2 0 0 1-1.25.33m1.16-6.22a.3.3 0 0 1-.24-.1.3.3 0 0 1-.11-.25.3.3 0 0 1 .1-.25.4.4 0 0 1 .25-.1.4.4 0 0 1 .25.1.3.3 0 0 1 .1.25.35.35 0 0 1-.35.35m-1.68 0a.35.35 0 0 1-.35-.35.3.3 0 0 1 .1-.25.4.4 0 0 1 .5 0 .3.3 0 0 1 .1.25.35.35 0 0 1-.35.35m4.83 6.18V4.3h.46v1.39l-.05-.16a1.8 1.8 0 0 1 .72-.94 2.3 2.3 0 0 1 1.27-.33v.47h-.12a1.7 1.7 0 0 0-1.32.53 2 2 0 0 0-.48 1.48v2.64ZM2.27 21.59a4 4 0 0 1-1.19-.18 2 2 0 0 1-.85-.47l.23-.39a3 3 0 0 0 .78.43 3 3 0 0 0 1.05.18 2 2 0 0 0 1.15-.26.8.8 0 0 0 .35-.7.7.7 0 0 0-.18-.48 1 1 0 0 0-.49-.28 5 5 0 0 0-.66-.16l-.72-.14a3 3 0 0 1-.66-.23 1 1 0 0 1-.48-.4 1.2 1.2 0 0 1-.18-.69 1.2 1.2 0 0 1 .21-.7 1.5 1.5 0 0 1 .65-.5 3 3 0 0 1 1.07-.19 4 4 0 0 1 .96.14 2 2 0 0 1 .78.36l-.22.4a2 2 0 0 0-.73-.36 3 3 0 0 0-.8-.1 2 2 0 0 0-1.09.27.8.8 0 0 0-.35.68.7.7 0 0 0 .18.5 1 1 0 0 0 .49.3 5 5 0 0 0 .66.17l.72.14a3 3 0 0 1 .66.22 1 1 0 0 1 .48.39 1 1 0 0 1 .18.66 1.2 1.2 0 0 1-.23.73 1.5 1.5 0 0 1-.67.5 3 3 0 0 1-1.1.16m2.53 1.9a2 2 0 0 1-.58-.1 1 1 0 0 1-.47-.25l.2-.36a1.2 1.2 0 0 0 .82.28 1 1 0 0 0 .68-.26 1 1 0 0 0 .24-.76v-5.57h.48v5.59a1.5 1.5 0 0 1-.35 1.03 1.3 1.3 0 0 1-1.02.4m1.13-8.26a.4.4 0 0 1-.28-.11.4.4 0 0 1-.12-.28.4.4 0 0 1 .4-.4.4.4 0 0 1 .29.11.4.4 0 0 1 .11.28.4.4 0 0 1-.11.28.4.4 0 0 1-.29.12m5.5 6.32V20.4l-.02-.17v-1.91a1.4 1.4 0 0 0-.38-1.08 1.6 1.6 0 0 0-1.13-.37 2.7 2.7 0 0 0-1.75.64l-.24-.35a3 3 0 0 1 .91-.53 3 3 0 0 1 1.12-.2 2 2 0 0 1 1.45.48 2 2 0 0 1 .51 1.43v3.22Zm-1.83.04a2.4 2.4 0 0 1-.98-.18 1.4 1.4 0 0 1-.63-.5 1.4 1.4 0 0 1-.22-.77 1.4 1.4 0 0 1 .18-.7 1.3 1.3 0 0 1 .6-.52 3 3 0 0 1 1.12-.2h1.87v.38H9.68a1.6 1.6 0 0 0-1.1.3 1 1 0 0 0-.32.72 1 1 0 0 0 .37.78 1.7 1.7 0 0 0 1.04.3 2 2 0 0 0 1.08-.3 1.7 1.7 0 0 0 .66-.85l.14.34a2 2 0 0 1-.7.88 2.2 2.2 0 0 1-1.25.32m1.16-6.21a.3.3 0 0 1-.24-.1.3.3 0 0 1-.11-.25.3.3 0 0 1 .1-.25.4.4 0 0 1 .25-.1.4.4 0 0 1 .25.1.3.3 0 0 1 .1.25.35.35 0 0 1-.35.35m-1.68 0a.35.35 0 0 1-.35-.35.3.3 0 0 1 .1-.26.4.4 0 0 1 .5 0 .3.3 0 0 1 .1.26.35.35 0 0 1-.35.35m4.82 6.17v-7.22h.5v7.22Zm3.83 0-2.28-5.08h.51l2.14 4.81h-.23l2.16-4.81h.5l-2.3 5.08Zm6.9 0V20.4l-.01-.17v-1.91a1.4 1.4 0 0 0-.39-1.08 1.6 1.6 0 0 0-1.12-.37 2.7 2.7 0 0 0-1.75.64l-.25-.35a3 3 0 0 1 .92-.53 3 3 0 0 1 1.12-.19 2 2 0 0 1 1.45.48 2 2 0 0 1 .5 1.42v3.22Zm-1.82.04a2.4 2.4 0 0 1-.98-.18 1.4 1.4 0 0 1-.63-.51 1.4 1.4 0 0 1-.22-.76 1.4 1.4 0 0 1 .18-.7 1.3 1.3 0 0 1 .6-.52 3 3 0 0 1 1.12-.2h1.87v.38H22.9a1.6 1.6 0 0 0-1.1.29 1 1 0 0 0-.32.73 1 1 0 0 0 .37.78 1.7 1.7 0 0 0 1.04.3 2 2 0 0 0 1.09-.3 1.7 1.7 0 0 0 .65-.85l.14.33a2 2 0 0 1-.7.88 2.2 2.2 0 0 1-1.25.33m6.8-.04v-5.08h.49v5.08Zm.25-6.32a.4.4 0 0 1-.28-.11.4.4 0 0 1-.12-.28.4.4 0 0 1 .4-.4.4.4 0 0 1 .29.11.4.4 0 0 1 .1.28.4.4 0 0 1-.1.28.4.4 0 0 1-.3.12Zm4.78 1.2a2.3 2.3 0 0 1 1.09.24 1.7 1.7 0 0 1 .72.72 2.5 2.5 0 0 1 .25 1.2v2.97h-.48v-2.94a1.8 1.8 0 0 0-.44-1.3 1.6 1.6 0 0 0-1.2-.45 2 2 0 0 0-1.04.24 1.6 1.6 0 0 0-.67.68 2 2 0 0 0-.23 1.06v2.7h-.48v-5.08h.46v1.41l-.06-.15a2 2 0 0 1 .76-.95 2.4 2.4 0 0 1 1.32-.35M40 21.6a4 4 0 0 1-1.18-.18 2 2 0 0 1-.86-.47l.23-.39a3 3 0 0 0 .78.43 3 3 0 0 0 1.05.18 2 2 0 0 0 1.15-.26.8.8 0 0 0 .35-.7.7.7 0 0 0-.18-.48 1 1 0 0 0-.48-.28 5 5 0 0 0-.66-.16l-.72-.14a3 3 0 0 1-.67-.23 1 1 0 0 1-.48-.4 1.2 1.2 0 0 1-.18-.68 1.2 1.2 0 0 1 .22-.7 1.5 1.5 0 0 1 .64-.5 3 3 0 0 1 1.07-.2 4 4 0 0 1 .96.14 2 2 0 0 1 .78.36l-.22.4a2 2 0 0 0-.72-.36 3 3 0 0 0-.81-.1 2 2 0 0 0-1.09.27.8.8 0 0 0-.34.68.7.7 0 0 0 .18.51 1 1 0 0 0 .48.3 5 5 0 0 0 .66.16l.72.14a3 3 0 0 1 .66.22 1 1 0 0 1 .49.39 1 1 0 0 1 .17.66 1.2 1.2 0 0 1-.23.73 1.5 1.5 0 0 1-.68.49 3 3 0 0 1-1.09.17m4.85 0a1.4 1.4 0 0 1-1.03-.37 1.4 1.4 0 0 1-.35-1.01v-4.85h.48v4.8a1 1 0 0 0 .25.75 1 1 0 0 0 .7.26 1 1 0 0 0 .79-.28l.2.34a1 1 0 0 1-.48.28 2 2 0 0 1-.56.08m-2.32-4.7v-.42h3.04v.42Zm7.92 4.67V20.4l-.02-.18v-1.91a1.4 1.4 0 0 0-.38-1.08 1.6 1.6 0 0 0-1.13-.37 2.7 2.7 0 0 0-1.75.64l-.24-.35a3 3 0 0 1 .91-.53 3 3 0 0 1 1.12-.19 2 2 0 0 1 1.45.48 2 2 0 0 1 .5 1.42v3.22Zm-1.83.04a2.4 2.4 0 0 1-.98-.18 1.4 1.4 0 0 1-.63-.51 1.4 1.4 0 0 1-.22-.76 1.4 1.4 0 0 1 .18-.71 1.3 1.3 0 0 1 .6-.52 3 3 0 0 1 1.12-.2h1.87v.38H48.7a1.6 1.6 0 0 0-1.1.3 1 1 0 0 0-.32.73 1 1 0 0 0 .37.78 1.7 1.7 0 0 0 1.04.29 2 2 0 0 0 1.09-.3 1.7 1.7 0 0 0 .65-.84l.14.33a2 2 0 0 1-.7.88 2.2 2.2 0 0 1-1.25.32Zm6.79-5.16a2.3 2.3 0 0 1 1.08.23 1.7 1.7 0 0 1 .72.73 2.5 2.5 0 0 1 .26 1.19v2.97h-.49v-2.94a1.8 1.8 0 0 0-.43-1.3 1.6 1.6 0 0 0-1.21-.45 2 2 0 0 0-1.03.24 1.6 1.6 0 0 0-.67.68 2 2 0 0 0-.23 1.06v2.7h-.49v-5.08h.47v1.41l-.07-.15a2 2 0 0 1 .77-.95 2.4 2.4 0 0 1 1.32-.35Zm5.35 5.16a4 4 0 0 1-1.18-.19 2 2 0 0 1-.85-.46l.22-.4a3 3 0 0 0 .78.44 3 3 0 0 0 1.05.18 2 2 0 0 0 1.15-.26.8.8 0 0 0 .35-.7.7.7 0 0 0-.18-.49 1 1 0 0 0-.48-.28 5 5 0 0 0-.66-.16l-.72-.14a3 3 0 0 1-.66-.22 1 1 0 0 1-.48-.4 1.2 1.2 0 0 1-.18-.69 1.2 1.2 0 0 1 .2-.7 1.5 1.5 0 0 1 .65-.5 3 3 0 0 1 1.07-.19 4 4 0 0 1 .96.14 2 2 0 0 1 .79.36l-.23.39a2 2 0 0 0-.72-.35 3 3 0 0 0-.8-.11 2 2 0 0 0-1.1.27.8.8 0 0 0-.34.68.7.7 0 0 0 .18.51 1 1 0 0 0 .48.3 5 5 0 0 0 .67.16l.72.14a3 3 0 0 1 .66.22 1 1 0 0 1 .48.4 1 1 0 0 1 .18.66 1.2 1.2 0 0 1-.23.73 1.5 1.5 0 0 1-.68.49 3 3 0 0 1-1.1.16Zm5.44 0a3 3 0 0 1-1.36-.33 2.4 2.4 0 0 1-.92-.92 2.6 2.6 0 0 1-.34-1.33 3 3 0 0 1 .32-1.34 2.4 2.4 0 0 1 .87-.91 2.4 2.4 0 0 1 1.25-.33 2.4 2.4 0 0 1 1.24.32 2.3 2.3 0 0 1 .86.9 3 3 0 0 1 .32 1.34v.13h-4.49v-.38h4.23l-.2.19a2 2 0 0 0-.24-1.07 2 2 0 0 0-.7-.74 1.93 1.93 0 0 0-2.72.74 2 2 0 0 0-.25 1.08v.08a2 2 0 0 0 .27 1.1 2 2 0 0 0 .77.76 2.3 2.3 0 0 0 1.1.27 2 2 0 0 0 .92-.18 2 2 0 0 0 .72-.53l.28.32a2 2 0 0 1-.84.62 3 3 0 0 1-1.09.2Zm3.75-.04v-5.09h.47v1.4l-.05-.16a1.8 1.8 0 0 1 .72-.95 2.3 2.3 0 0 1 1.26-.33v.48h-.11a1.7 1.7 0 0 0-1.33.53 2 2 0 0 0-.47 1.47v2.65Zm6.23-5.12a2.3 2.3 0 0 1 1.09.23 1.7 1.7 0 0 1 .72.72 2.5 2.5 0 0 1 .26 1.2v2.97h-.49v-2.94a1.8 1.8 0 0 0-.43-1.3 1.6 1.6 0 0 0-1.22-.45 2 2 0 0 0-1.03.24 1.6 1.6 0 0 0-.66.68 2 2 0 0 0-.23 1.06v2.7h-.49v-5.08h.47v1.41l-.07-.15a2 2 0 0 1 .77-.95 2.4 2.4 0 0 1 1.31-.35Zm7.28 5.12V20.4l-.02-.18v-1.91a1.4 1.4 0 0 0-.39-1.08 1.6 1.6 0 0 0-1.12-.37 2.7 2.7 0 0 0-1.76.64l-.24-.35a3 3 0 0 1 .92-.53 3 3 0 0 1 1.12-.19 2 2 0 0 1 1.45.48 2 2 0 0 1 .5 1.42v3.22Zm-1.83.04a2.4 2.4 0 0 1-.98-.18 1.4 1.4 0 0 1-.64-.51 1.4 1.4 0 0 1-.21-.76 1.4 1.4 0 0 1 .18-.71 1.3 1.3 0 0 1 .6-.52 3 3 0 0 1 1.12-.2h1.87v.38H81.7a1.6 1.6 0 0 0-1.1.3 1 1 0 0 0-.32.73 1 1 0 0 0 .37.78 1.7 1.7 0 0 0 1.04.29 2 2 0 0 0 1.09-.3 1.7 1.7 0 0 0 .65-.84l.14.33a2 2 0 0 1-.7.88 2.2 2.2 0 0 1-1.25.32Zm7.17-1.45.01-.61 3.36-3.07h.63l-2.23 2.1-.3.24Zm-.37 1.4v-7.22h.49v7.22Zm3.97 0-2.22-2.78.33-.36 2.5 3.14Zm3.54.04a2.5 2.5 0 0 1-1.3-.33 2.5 2.5 0 0 1-.9-.92 2.8 2.8 0 0 1 0-2.67 2.5 2.5 0 0 1 .9-.91 2.5 2.5 0 0 1 1.3-.33 2.6 2.6 0 0 1 1.3.33 2.4 2.4 0 0 1 .91.91 2.9 2.9 0 0 1 0 2.67 2.4 2.4 0 0 1-.9.92 2.6 2.6 0 0 1-1.3.33Zm0-.44a2 2 0 0 0 1.05-.27 2 2 0 0 0 .73-.75 2.5 2.5 0 0 0 0-2.25 2 2 0 0 0-.73-.75 2 2 0 0 0-1.05-.26 2 2 0 0 0-1.05.26 2 2 0 0 0-.73.75 2.5 2.5 0 0 0 0 2.25 2 2 0 0 0 .73.75 2 2 0 0 0 1.05.27m.84-5.77a.3.3 0 0 1-.25-.1.3.3 0 0 1-.1-.25.3.3 0 0 1 .1-.25.4.4 0 0 1 .25-.1.4.4 0 0 1 .24.1.3.3 0 0 1 .1.25.35.35 0 0 1-.35.35Zm-1.68 0a.35.35 0 0 1-.35-.35.3.3 0 0 1 .1-.26.4.4 0 0 1 .5 0 .3.3 0 0 1 .1.26.35.35 0 0 1-.35.35m4.9 6.17v-5.08h.46v1.4l-.05-.16a1.8 1.8 0 0 1 .72-.95 2.3 2.3 0 0 1 1.27-.33v.48h-.12a1.7 1.7 0 0 0-1.33.53 2 2 0 0 0-.47 1.47v2.65Zm6.33 0v-5.08h.49v5.08Zm.24-6.32a.4.4 0 0 1-.28-.12.4.4 0 0 1-.12-.27.4.4 0 0 1 .4-.4.4.4 0 0 1 .3.11.4.4 0 0 1 .1.28.4.4 0 0 1-.1.28.4.4 0 0 1-.3.12m6.87 6.36a3 3 0 0 1-1.36-.33 2.4 2.4 0 0 1-.92-.92 2.6 2.6 0 0 1-.34-1.33 3 3 0 0 1 .32-1.34 2.4 2.4 0 0 1 .87-.91 2.4 2.4 0 0 1 1.25-.33 2.4 2.4 0 0 1 1.24.32 2.3 2.3 0 0 1 .86.9 3 3 0 0 1 .32 1.34v.13h-4.49v-.38h4.23l-.2.19a2 2 0 0 0-.24-1.07 2 2 0 0 0-.7-.74 1.93 1.93 0 0 0-2.72.74 2 2 0 0 0-.25 1.08v.09a2 2 0 0 0 .27 1.1 2 2 0 0 0 .77.75 2.3 2.3 0 0 0 1.1.27 2 2 0 0 0 .92-.17 2 2 0 0 0 .72-.54l.28.32a2 2 0 0 1-.84.62 3 3 0 0 1-1.09.21m5.23 0a1.4 1.4 0 0 1-1.03-.37 1.4 1.4 0 0 1-.35-1.01v-4.85h.48v4.8a1 1 0 0 0 .25.75 1 1 0 0 0 .7.26 1 1 0 0 0 .79-.28l.2.34a1 1 0 0 1-.48.27 2 2 0 0 1-.56.1Zm-2.32-4.7v-.42h3.04v.42Zm6.06 4.7a1.4 1.4 0 0 1-1.03-.37 1.4 1.4 0 0 1-.35-1.01v-4.85h.48v4.8a1 1 0 0 0 .25.75 1 1 0 0 0 .7.26 1 1 0 0 0 .79-.28l.2.34a1 1 0 0 1-.48.27 2 2 0 0 1-.56.1Zm-2.32-4.7v-.42h3.04v.42Zm10.26 4.71a4 4 0 0 1-1.4-.26 3 3 0 0 1-1.13-.72 3 3 0 0 1-.74-1.1 3.7 3.7 0 0 1 0-2.76 3 3 0 0 1 .74-1.1 3 3 0 0 1 1.13-.73 4 4 0 0 1 1.4-.25 4 4 0 0 1 1.35.23 3 3 0 0 1 1.07.71l-.3.32a3 3 0 0 0-.98-.62 3 3 0 0 0-1.12-.19 3 3 0 0 0-1.22.23 3 3 0 0 0-1.61 1.59 3.2 3.2 0 0 0 0 2.37 3 3 0 0 0 1.61 1.59 3 3 0 0 0 1.22.22 3 3 0 0 0 1.12-.19 3 3 0 0 0 .97-.62l.31.32a3 3 0 0 1-1.07.71 4 4 0 0 1-1.35.25m5.77-.01a3 3 0 0 1-1.36-.33 2.4 2.4 0 0 1-.93-.92 2.6 2.6 0 0 1-.33-1.33 3 3 0 0 1 .31-1.34 2.4 2.4 0 0 1 .88-.91 2.4 2.4 0 0 1 1.24-.33 2.4 2.4 0 0 1 1.24.32 2.3 2.3 0 0 1 .87.9 3 3 0 0 1 .32 1.34v.13h-4.5v-.38h4.24l-.2.19a2 2 0 0 0-.25-1.07 2 2 0 0 0-.7-.74 1.93 1.93 0 0 0-2.71.74 2 2 0 0 0-.26 1.08v.09a2 2 0 0 0 .28 1.1 2 2 0 0 0 .77.75 2.3 2.3 0 0 0 1.1.27 2 2 0 0 0 .92-.17 2 2 0 0 0 .71-.54l.29.32a2 2 0 0 1-.84.62 3 3 0 0 1-1.1.21Zm6.3 0a2.4 2.4 0 0 1-1.22-.31 2.3 2.3 0 0 1-.85-.9 3.2 3.2 0 0 1 0-2.75 2.3 2.3 0 0 1 .85-.89 2.4 2.4 0 0 1 1.22-.31 2.6 2.6 0 0 1 1.29.32 2.4 2.4 0 0 1 .9.92 3 3 0 0 1 0 2.68 2.4 2.4 0 0 1-.9.91 2.6 2.6 0 0 1-1.3.33Zm-2.55 1.85v-6.97h.46v1.67l-.08.88.1.89v3.53Zm2.52-2.29a2 2 0 0 0 1.05-.27 2 2 0 0 0 .74-.75 2.5 2.5 0 0 0 0-2.25 2 2 0 0 0-.74-.75 2 2 0 0 0-1.05-.26 2 2 0 0 0-1.05.26 2 2 0 0 0-.73.75 2.5 2.5 0 0 0 0 2.25 2 2 0 0 0 .73.75 2 2 0 0 0 1.05.27m6.53-4.72a2.3 2.3 0 0 1 1.09.24 1.7 1.7 0 0 1 .72.72 2.5 2.5 0 0 1 .26 1.19v2.97h-.49v-2.93a1.8 1.8 0 0 0-.43-1.3 1.6 1.6 0 0 0-1.22-.45 2 2 0 0 0-1.03.24 1.6 1.6 0 0 0-.66.68 2 2 0 0 0-.23 1.06v2.7h-.5v-7.22h.5v3.55l-.1-.15a2 2 0 0 1 .78-.95 2.4 2.4 0 0 1 1.31-.35m3.65 2.72v-.43h2.5v.44Zm4.5 1 .01-.62 3.36-3.07h.63l-2.23 2.1-.3.24Zm-.37 1.4v-7.22h.5v7.22Zm3.98 0-2.22-2.79.33-.36 2.5 3.15Zm1.75 0v-7.22h.49v7.22Zm4.6.04a2.5 2.5 0 0 1-1.12-.24 1.7 1.7 0 0 1-.74-.72 2.5 2.5 0 0 1-.25-1.2v-2.96h.48v2.93a1.8 1.8 0 0 0 .44 1.3 1.7 1.7 0 0 0 1.24.45 2 2 0 0 0 1-.24 1.6 1.6 0 0 0 .63-.69 2 2 0 0 0 .23-1.04v-2.71h.48v5.08h-.46v-1.4l.07.16a2 2 0 0 1-.75.94 2.2 2.2 0 0 1-1.24.34Zm5.75 0a4 4 0 0 1-1.19-.19 2 2 0 0 1-.85-.47l.22-.39a3 3 0 0 0 .78.44 3 3 0 0 0 1.06.18 2 2 0 0 0 1.14-.27.8.8 0 0 0 .36-.69.7.7 0 0 0-.18-.49 1 1 0 0 0-.49-.28 5 5 0 0 0-.66-.16l-.72-.14a3 3 0 0 1-.66-.22 1 1 0 0 1-.48-.4 1.2 1.2 0 0 1-.18-.7 1.2 1.2 0 0 1 .21-.7 1.5 1.5 0 0 1 .64-.5 3 3 0 0 1 1.07-.18 4 4 0 0 1 .96.13 2 2 0 0 1 .79.36l-.23.4a2 2 0 0 0-.72-.36 3 3 0 0 0-.8-.1 2 2 0 0 0-1.1.27.8.8 0 0 0-.34.68.7.7 0 0 0 .18.51 1 1 0 0 0 .48.3 5 5 0 0 0 .67.16l.72.14a3 3 0 0 1 .66.22 1 1 0 0 1 .48.4 1 1 0 0 1 .18.66 1.2 1.2 0 0 1-.23.73 1.5 1.5 0 0 1-.67.49 3 3 0 0 1-1.1.17m4.85 0a1.4 1.4 0 0 1-1.03-.37 1.4 1.4 0 0 1-.36-1.02v-4.85h.5v4.8a1 1 0 0 0 .23.75 1 1 0 0 0 .7.27 1 1 0 0 0 .8-.29l.2.34a1 1 0 0 1-.48.28 2 2 0 0 1-.56.1Zm-2.32-4.7v-.42h3.04v.42Zm6.6 4.7a3 3 0 0 1-1.37-.34 2.4 2.4 0 0 1-.92-.91 2.6 2.6 0 0 1-.34-1.34 3 3 0 0 1 .32-1.33 2.4 2.4 0 0 1 .87-.92 2.4 2.4 0 0 1 1.25-.33 2.4 2.4 0 0 1 1.24.32 2.3 2.3 0 0 1 .87.9 3 3 0 0 1 .31 1.34v.14h-4.49v-.38h4.23l-.2.19a2 2 0 0 0-.24-1.07 2 2 0 0 0-.7-.74 1.93 1.93 0 0 0-2.72.74 2 2 0 0 0-.25 1.07v.1a2 2 0 0 0 .28 1.1 2 2 0 0 0 .76.75 2.3 2.3 0 0 0 1.11.27 2 2 0 0 0 .91-.18 2 2 0 0 0 .72-.53l.28.32a2 2 0 0 1-.83.61 3 3 0 0 1-1.1.22Zm3.74-.04v-5.08h.47v1.4l-.05-.16a1.8 1.8 0 0 1 .72-.95 2.3 2.3 0 0 1 1.27-.33v.48h-.12a1.7 1.7 0 0 0-1.32.53 2 2 0 0 0-.48 1.47v2.65Zm8.33.04a2.5 2.5 0 0 1-1.3-.34 2.5 2.5 0 0 1-.9-.91 2.8 2.8 0 0 1 0-2.67 2.5 2.5 0 0 1 .9-.92 2.5 2.5 0 0 1 1.3-.33 2.6 2.6 0 0 1 1.3.33 2.4 2.4 0 0 1 .91.92 2.9 2.9 0 0 1 0 2.67 2.4 2.4 0 0 1-.9.91 2.6 2.6 0 0 1-1.31.34m0-.44a2 2 0 0 0 1.05-.27 2 2 0 0 0 .73-.75 2.5 2.5 0 0 0 0-2.25 2 2 0 0 0-.73-.75 2 2 0 0 0-1.05-.27 2 2 0 0 0-1.05.27 2 2 0 0 0-.73.75 2.5 2.5 0 0 0 0 2.25 2 2 0 0 0 .73.75 2 2 0 0 0 1.05.27m6.07.44a2.6 2.6 0 0 1-1.32-.34 2.4 2.4 0 0 1-.92-.91 2.8 2.8 0 0 1 0-2.68 2.4 2.4 0 0 1 .92-.91 2.6 2.6 0 0 1 1.32-.33 3 3 0 0 1 1.11.24 2 2 0 0 1 .81.7l-.36.26a2 2 0 0 0-.68-.57 2.2 2.2 0 0 0-1.95.08 2 2 0 0 0-.74.75 2.5 2.5 0 0 0 0 2.25 2 2 0 0 0 .74.75 2.2 2.2 0 0 0 1.95.08 2 2 0 0 0 .68-.57l.36.26a2 2 0 0 1-.8.7 3 3 0 0 1-1.12.24m5.78-5.17a2.3 2.3 0 0 1 1.09.24 1.7 1.7 0 0 1 .72.72 2.5 2.5 0 0 1 .26 1.2v2.97h-.49v-2.93a1.8 1.8 0 0 0-.43-1.3 1.6 1.6 0 0 0-1.22-.45 2 2 0 0 0-1.03.24 1.6 1.6 0 0 0-.67.68 2 2 0 0 0-.22 1.06v2.7h-.5v-7.22h.5v3.55l-.1-.15a2 2 0 0 1 .78-.95 2.4 2.4 0 0 1 1.31-.35Zm6.95 3.72v-.61l3.37-3.07h.62l-2.23 2.1-.3.24Zm-.37 1.4v-7.21h.48v7.22Zm3.97 0-2.22-2.78.33-.36 2.5 3.14Zm4.86 0V20.4l-.02-.18v-1.91a1.4 1.4 0 0 0-.38-1.08 1.6 1.6 0 0 0-1.13-.37 2.7 2.7 0 0 0-1.75.64l-.25-.35a3 3 0 0 1 .92-.53 3 3 0 0 1 1.12-.19 2 2 0 0 1 1.45.48 2 2 0 0 1 .5 1.42v3.22Zm-1.83.04a2.4 2.4 0 0 1-.98-.18 1.4 1.4 0 0 1-.63-.5 1.4 1.4 0 0 1-.22-.77 1.4 1.4 0 0 1 .18-.7 1.3 1.3 0 0 1 .6-.52 3 3 0 0 1 1.12-.2h1.87v.38h-1.86a1.6 1.6 0 0 0-1.1.3 1 1 0 0 0-.32.72 1 1 0 0 0 .37.78 1.7 1.7 0 0 0 1.04.3 2 2 0 0 0 1.08-.3 1.7 1.7 0 0 0 .66-.85l.14.33a2 2 0 0 1-.7.89 2.2 2.2 0 0 1-1.25.33Zm6.79-5.16a2.3 2.3 0 0 1 1.08.24 1.7 1.7 0 0 1 .72.72 2.5 2.5 0 0 1 .26 1.2v2.97h-.49v-2.93a1.8 1.8 0 0 0-.43-1.3 1.6 1.6 0 0 0-1.21-.45 2 2 0 0 0-1.03.24 1.6 1.6 0 0 0-.67.68 2 2 0 0 0-.23 1.06v2.7h-.49v-5.08h.47v1.41l-.07-.15a2 2 0 0 1 .77-.95 2.4 2.4 0 0 1 1.32-.35Zm6.67 5.12V15.7a1.4 1.4 0 0 1 .36-1.02 1.4 1.4 0 0 1 1.05-.38 2 2 0 0 1 .56.08 1 1 0 0 1 .44.25l-.2.37a1 1 0 0 0-.34-.22 1 1 0 0 0-.44-.06 1 1 0 0 0-.71.25 1 1 0 0 0-.24.77v5.82Zm-.94-4.66v-.41h3.04v.42Zm7.14 4.66V20.4l-.02-.18v-1.91a1.4 1.4 0 0 0-.38-1.08 1.6 1.6 0 0 0-1.13-.37 2.7 2.7 0 0 0-1.75.64l-.24-.35a3 3 0 0 1 .91-.53 3 3 0 0 1 1.12-.19 2 2 0 0 1 1.45.48 2 2 0 0 1 .51 1.42v3.22Zm-1.83.04a2.4 2.4 0 0 1-.98-.18 1.4 1.4 0 0 1-.63-.5 1.4 1.4 0 0 1-.22-.77 1.4 1.4 0 0 1 .18-.7 1.3 1.3 0 0 1 .6-.52 3 3 0 0 1 1.12-.2h1.87v.38h-1.86a1.6 1.6 0 0 0-1.1.3 1 1 0 0 0-.32.72 1 1 0 0 0 .37.78 1.7 1.7 0 0 0 1.04.3 2 2 0 0 0 1.09-.29 1.7 1.7 0 0 0 .66-.85l.13.33a2 2 0 0 1-.7.88 2.2 2.2 0 0 1-1.25.33Zm.31-5.84a1 1 0 0 1-.5-.13 1 1 0 0 1-.34-.35 1 1 0 0 1-.12-.46 1 1 0 0 1 .12-.49 1 1 0 0 1 .35-.35 1 1 0 0 1 .5-.14 1 1 0 0 1 .5.14 1 1 0 0 1 .34.35 1 1 0 0 1 .12.49 1 1 0 0 1-.12.46 1 1 0 0 1-.35.35 1 1 0 0 1-.5.14Zm0-.27a.66.66 0 0 0 .69-.68.7.7 0 0 0-.2-.48.7.7 0 0 0-.97 0 .7.7 0 0 0-.19.49.7.7 0 0 0 .19.48.6.6 0 0 0 .48.2Zm5.28 6.11a4 4 0 0 1-1.18-.18 2 2 0 0 1-.85-.47l.22-.39a3 3 0 0 0 .78.43 3 3 0 0 0 1.05.18 2 2 0 0 0 1.15-.25.8.8 0 0 0 .35-.7.7.7 0 0 0-.18-.48 1 1 0 0 0-.48-.28 5 5 0 0 0-.66-.16l-.72-.14a3 3 0 0 1-.67-.23 1 1 0 0 1-.48-.4 1.2 1.2 0 0 1-.18-.69 1.2 1.2 0 0 1 .22-.7 1.5 1.5 0 0 1 .64-.5 3 3 0 0 1 1.07-.19 4 4 0 0 1 .96.14 2 2 0 0 1 .78.36l-.22.4a2 2 0 0 0-.72-.36 3 3 0 0 0-.81-.1 2 2 0 0 0-1.09.27.8.8 0 0 0-.34.68.7.7 0 0 0 .18.5 1 1 0 0 0 .48.3 5 5 0 0 0 .66.17l.72.14a3 3 0 0 1 .66.22 1 1 0 0 1 .49.39 1 1 0 0 1 .18.66 1.2 1.2 0 0 1-.23.73 1.5 1.5 0 0 1-.68.5 3 3 0 0 1-1.1.16Zm5.88-.04v-5.07h.48v5.08Zm.24-6.32a.4.4 0 0 1-.28-.12.4.4 0 0 1-.12-.27.4.4 0 0 1 .4-.4.4.4 0 0 1 .29.11.4.4 0 0 1 .1.28.4.4 0 0 1-.1.28.4.4 0 0 1-.3.13Zm6.28 6.36a1.4 1.4 0 0 1-1.03-.37 1.4 1.4 0 0 1-.35-1.01v-4.85h.48v4.8a1 1 0 0 0 .25.75 1 1 0 0 0 .7.26 1 1 0 0 0 .79-.28l.2.34a1 1 0 0 1-.48.27 2 2 0 0 1-.56.1Zm-2.32-4.7v-.41h3.04v.42Zm5.9 4.67-2.29-5.09h.52l2.14 4.81h-.23l2.16-4.8h.5l-2.3 5.08Zm6.9 0V20.4l-.01-.17v-1.91a1.4 1.4 0 0 0-.39-1.08 1.6 1.6 0 0 0-1.12-.37 2.7 2.7 0 0 0-1.75.64l-.25-.35a3 3 0 0 1 .92-.53 3 3 0 0 1 1.12-.19 2 2 0 0 1 1.45.48 2 2 0 0 1 .5 1.42v3.22Zm-1.82.04a2.4 2.4 0 0 1-.98-.18 1.4 1.4 0 0 1-.64-.51 1.4 1.4 0 0 1-.21-.76 1.4 1.4 0 0 1 .18-.71 1.3 1.3 0 0 1 .6-.52 3 3 0 0 1 1.12-.2h1.87v.38h-1.86a1.6 1.6 0 0 0-1.1.3 1 1 0 0 0-.33.73 1 1 0 0 0 .37.77 1.7 1.7 0 0 0 1.05.3 2 2 0 0 0 1.08-.3 1.7 1.7 0 0 0 .66-.84l.13.33a2 2 0 0 1-.7.88 2.2 2.2 0 0 1-1.24.33m.3-5.85a1 1 0 0 1-.5-.13 1 1 0 0 1-.33-.34 1 1 0 0 1-.13-.47 1 1 0 0 1 .13-.48 1 1 0 0 1 .34-.36 1 1 0 0 1 .5-.14 1 1 0 0 1 .5.14 1 1 0 0 1 .34.36 1 1 0 0 1 .13.48 1 1 0 0 1-.13.46 1 1 0 0 1-.34.35 1 1 0 0 1-.5.14Zm0-.27a.66.66 0 0 0 .7-.67.7.7 0 0 0-.2-.49.7.7 0 0 0-.97 0 .7.7 0 0 0-.2.5.7.7 0 0 0 .2.47.6.6 0 0 0 .48.2Zm7.8 6.08-2.3-5.09h.52l2.14 4.81h-.23l2.16-4.8h.5l-2.3 5.08Zm6.9 0V20.4l-.02-.17v-1.91a1.4 1.4 0 0 0-.39-1.08 1.6 1.6 0 0 0-1.12-.37 2.7 2.7 0 0 0-1.76.64l-.24-.35a3 3 0 0 1 .92-.53 3 3 0 0 1 1.12-.19 2 2 0 0 1 1.45.48 2 2 0 0 1 .5 1.42v3.22Zm-1.84.03a2.4 2.4 0 0 1-.97-.17 1.4 1.4 0 0 1-.64-.52 1.4 1.4 0 0 1-.22-.76 1.4 1.4 0 0 1 .18-.7 1.3 1.3 0 0 1 .6-.52 3 3 0 0 1 1.12-.2H279v.38h-1.86a1.6 1.6 0 0 0-1.1.3 1 1 0 0 0-.32.72 1 1 0 0 0 .37.78 1.7 1.7 0 0 0 1.04.3 2 2 0 0 0 1.09-.3 1.7 1.7 0 0 0 .66-.84l.13.33a2 2 0 0 1-.7.88 2.2 2.2 0 0 1-1.24.33Zm4.3-.03v-5.08h.47v1.4l-.05-.16a1.8 1.8 0 0 1 .72-.95 2.3 2.3 0 0 1 1.27-.33v.48h-.12a1.7 1.7 0 0 0-1.32.53 2 2 0 0 0-.48 1.47v2.65Zm3.75 0v-5.08h.5v5.08Zm.25-6.33a.4.4 0 0 1-.28-.11.4.4 0 0 1-.12-.28.4.4 0 0 1 .4-.4.4.4 0 0 1 .29.12.4.4 0 0 1 .1.27.4.4 0 0 1-.1.29.4.4 0 0 1-.28.12Zm5.5 6.33V20.4l-.02-.17v-1.91a1.4 1.4 0 0 0-.39-1.08 1.6 1.6 0 0 0-1.12-.37 2.7 2.7 0 0 0-1.75.64l-.25-.35a3 3 0 0 1 .92-.53 3 3 0 0 1 1.12-.19 2 2 0 0 1 1.45.48 2 2 0 0 1 .5 1.42v3.22Zm-1.83.03a2.4 2.4 0 0 1-.98-.17 1.4 1.4 0 0 1-.64-.52 1.4 1.4 0 0 1-.21-.76 1.4 1.4 0 0 1 .18-.7 1.3 1.3 0 0 1 .6-.52 3 3 0 0 1 1.12-.2h1.87v.38h-1.86a1.6 1.6 0 0 0-1.1.3 1 1 0 0 0-.32.72 1 1 0 0 0 .37.78 1.7 1.7 0 0 0 1.04.3 2 2 0 0 0 1.09-.3 1.7 1.7 0 0 0 .65-.84l.14.33a2 2 0 0 1-.7.88 2.2 2.2 0 0 1-1.24.33Zm6.78-5.16a2.3 2.3 0 0 1 1.1.24 1.7 1.7 0 0 1 .71.72 2.5 2.5 0 0 1 .26 1.2v2.97h-.49v-2.93a1.8 1.8 0 0 0-.43-1.3 1.6 1.6 0 0 0-1.21-.45 2 2 0 0 0-1.04.24 1.6 1.6 0 0 0-.66.68 2 2 0 0 0-.23 1.06v2.7h-.49v-5.08h.47v1.41l-.07-.15a2 2 0 0 1 .77-.95 2.4 2.4 0 0 1 1.32-.35Zm5.56 5.17a1.4 1.4 0 0 1-1.03-.37 1.4 1.4 0 0 1-.36-1.02v-4.85h.5v4.8a1 1 0 0 0 .23.75 1 1 0 0 0 .7.26 1 1 0 0 0 .8-.28l.2.34a1 1 0 0 1-.48.28 2 2 0 0 1-.55.1Zm-2.32-4.7v-.42h3.04v.42Zm6.6 4.7a3 3 0 0 1-1.37-.34 2.4 2.4 0 0 1-.92-.91A2.6 2.6 0 0 1 303 19a3 3 0 0 1 .32-1.33 2.4 2.4 0 0 1 .87-.92 2.4 2.4 0 0 1 1.25-.33 2.4 2.4 0 0 1 1.24.32 2.3 2.3 0 0 1 .87.9 3 3 0 0 1 .31 1.34v.14h-4.49v-.38h4.23l-.2.18a2 2 0 0 0-.24-1.06 2 2 0 0 0-.7-.74 1.93 1.93 0 0 0-2.72.74 2 2 0 0 0-.25 1.07v.1a2 2 0 0 0 .28 1.1 2 2 0 0 0 .76.75 2.3 2.3 0 0 0 1.11.27 2 2 0 0 0 .91-.18 2 2 0 0 0 .72-.54l.28.33a2 2 0 0 1-.83.61 3 3 0 0 1-1.09.22Zm3.74-.04v-5.08h.47v1.4l-.05-.16a1.8 1.8 0 0 1 .72-.95 2.3 2.3 0 0 1 1.27-.33v.48h-.12a1.7 1.7 0 0 0-1.32.53 2 2 0 0 0-.48 1.47v2.65Zm3.68.03a.4.4 0 0 1-.28-.12.4.4 0 0 1-.13-.3.4.4 0 0 1 .13-.29.4.4 0 0 1 .57 0 .4.4 0 0 1 .12.3.4.4 0 0 1-.12.3.4.4 0 0 1-.28.12Z" transform="translate(87 471)"/></g></svg>