<svg xmlns="http://www.w3.org/2000/svg" viewBox="0 0 382.51 101.18"><defs><style>.a{fill:#fbfdfe}.b{fill:none}</style></defs><path d="M318.76 69.48h.33l1 3 1-3h.42l-1.27 3.61h-.34l-1-2.88-1 2.88h-.33l-1.27-3.58h.46l1 3Zm4.16 3.28a1.1 1.1 0 0 0 .83-.37l.24.22a1.39 1.39 0 1 1-1.13-2.25 1.24 1.24 0 0 1 1.22 1.27v.25H322a.93.93 0 0 0 .92.88m.76-1.17a.86.86 0 0 0-.82-.9.9.9 0 0 0-.86.9Zm2.61-.67-.12-.32a2 2 0 0 1 1-.22 1 1 0 0 1 1.1.88v1.83h-.37v-.39a1.2 1.2 0 0 1-1 .45.9.9 0 0 1-1-.75v-.07c0-.56.46-.86 1.12-.86a3 3 0 0 1 .81.12v-.1q-.02-.7-.79-.71a2 2 0 0 0-.75.14m0 1.34c0 .34.31.53.66.53a.8.8 0 0 0 .87-.69v-.27a3 3 0 0 0-.77-.12c-.45 0-.73.22-.73.55Zm4.81.83v-.52a1.2 1.2 0 0 1-1 .58 1.38 1.38 0 0 1 0-2.74 1.2 1.2 0 0 1 1 .56v-1.58h.4v3.7Zm-.93-2.33a.93.93 0 0 0-.93.93v.07a.93.93 0 0 0 .87 1h.05a1 1 0 0 0 0-2Zm2.27.16-.11-.32a2 2 0 0 1 1-.22 1 1 0 0 1 1.11.87v1.84h-.38v-.39a1.2 1.2 0 0 1-1 .45.9.9 0 0 1-1-.77c0-.56.46-.86 1.13-.86a2 2 0 0 1 .8.12v-.1c0-.47-.29-.71-.78-.71a2 2 0 0 0-.77.09m0 1.34c0 .34.3.53.66.53a.8.8 0 0 0 .87-.69v-.27a3 3 0 0 0-.77-.12c-.45 0-.72.22-.72.55Zm4.11.83a1.2 1.2 0 0 1-1-.56v1.31h-.4v-3.43h.4v.53a1.1 1.1 0 0 1 1-.59 1.38 1.38 0 0 1 0 2.74m-.07-2.39a1 1 0 0 0 0 2 .94.94 0 0 0 .92-.94v-.06a1 1 0 0 0-.89-1Zm2.52 1.6c0 .32.17.43.44.43a1 1 0 0 0 .38-.09V73a1 1 0 0 1-.47.11.67.67 0 0 1-.74-.6v-1.75h-.37v-.34h.37v-.79h.39v.79h.83v.34H339Zm1.38.79v-.53h.46v.53Zm3.62 0h-.4v-1.4l-1.48-2.15h.49l1.19 1.78 1.2-1.78h.47L344 71.68Zm2.61 0a1.37 1.37 0 1 1 1.39-1.37 1.37 1.37 0 0 1-1.35 1.37Zm0-2.39a1 1 0 0 0 0 2 1 1 0 1 0 0-2m3.86-.28h.39v2.67h-.39v-.45a1 1 0 0 1-.9.51 1 1 0 0 1-1-1v-1.63h.43v1.53a.7.7 0 0 0 .6.78h.13a.8.8 0 0 0 .78-.76v-1.65Zm3.53 2.67a2 2 0 0 1-1.08-.38l.2-.28a1.6 1.6 0 0 0 .91.33c.31 0 .54-.16.54-.41 0-.27-.31-.37-.66-.46s-.86-.26-.86-.75a.8.8 0 0 1 .81-.77h.08a2 2 0 0 1 .94.29l-.17.3a1.5 1.5 0 0 0-.78-.26c-.31 0-.51.17-.51.38 0 .25.33.35.68.46s.84.28.84.75c-.03.51-.44.8-.94.8m3.42-2.67h.39v2.67h-.39v-.45a1 1 0 0 1-.9.51 1 1 0 0 1-1-1v-1.63h.39v1.53a.7.7 0 0 0 .58.78h.14a.8.8 0 0 0 .79-.77zm2.34 2.67a1.37 1.37 0 1 1 0-2.74 1.4 1.4 0 0 1 1 .47l-.26.27a1 1 0 0 0-.79-.39 1 1 0 0 0 0 2 1 1 0 0 0 .8-.39l.25.24a1.4 1.4 0 0 1-1 .54m2.78 0a1.37 1.37 0 0 1 0-2.74 1.3 1.3 0 0 1 1 .47l-.26.27a1 1 0 0 0-.8-.39 1 1 0 0 0 .06 2 1 1 0 0 0 .8-.39l.25.24a1.4 1.4 0 0 1-1.05.54m2.72-.33a1.1 1.1 0 0 0 .83-.37l.24.22a1.39 1.39 0 1 1-1.13-2.25 1.24 1.24 0 0 1 1.22 1.27v.25h-2.09a.93.93 0 0 0 .93.88m.76-1.17a.86.86 0 0 0-.82-.9.9.9 0 0 0-.86.9Zm2.17 1.17a1 1 0 0 0 .82-.37l.25.22a1.38 1.38 0 1 1-1.08-2.25 1.24 1.24 0 0 1 1.22 1.27v.25h-2.14a.93.93 0 0 0 .93.88m.76-1.17a.86.86 0 0 0-.82-.9.9.9 0 0 0-.86.9Zm3.11 1.5v-.52a1.2 1.2 0 0 1-1 .58 1.38 1.38 0 0 1 0-2.74 1.2 1.2 0 0 1 1 .56v-1.58h.39v3.7Zm-.93-2.33a.93.93 0 0 0-.93.93v.07a.93.93 0 0 0 .87 1h.05a1 1 0 0 0 0-2Zm2.08 2.33v-.53h.46v.53Zm-10.02-11.77a4.9 4.9 0 0 1-5 4.79h-9.46v-3.52h9.4a1.3 1.3 0 0 0 1.28-1.27q0-1.22-1.51-1.46l-5.8-.84a4.89 4.89 0 0 1 .68-9.75h9.38v3.51h-9.43a1.3 1.3 0 0 0-1.28 1.28q0 1.22 1.51 1.46l5.8.84a4.87 4.87 0 0 1 4.43 4.96m-20.12-12.06v10a3.79 3.79 0 0 1-7.57.39V49.26h-3.65v9.83a7.46 7.46 0 0 0 14.91 0v-9.81ZM382.51 65a1.16 1.16 0 1 0-1.17 1.15 1.16 1.16 0 0 0 1.17-1.15m-.24 0a.92.92 0 1 1-1.84 0 .92.92 0 0 1 1.84 0m-.42-.22q-.02-.34-.44-.36h-.49v1.1h.24v-.39h.2l.23.36h.29l-.27-.39a.4.4 0 0 0 .24-.36Zm-.25 0q0 .15-.19.16h-.25v-.32h.24q.2 0 .2.18Zm-5.1-12a3 3 0 0 0 2.86-3.13v-.38h-10.18a4.86 4.86 0 0 0-5 4.73v7.26a4.86 4.86 0 0 0 4.94 4.79h10.24v-.31a3 3 0 0 0-2.79-3.2h-7.41a1.27 1.27 0 0 1-1.28-1.27 1.4 1.4 0 0 1 1.33-1.47h3.36a4.85 4.85 0 0 0 4.92-3.69h-7.65a2.2 2.2 0 0 0-2 1.09v-3.11a1.3 1.3 0 0 1 1.28-1.28Zm-49.92 3.58-5.81-.84q-1.5-.24-1.5-1.46a1.3 1.3 0 0 1 1.28-1.28H330v-3.55h-9.38a4.89 4.89 0 0 0-.68 9.75l5.8.84q1.5.24 1.51 1.46a1.3 1.3 0 0 1-1.28 1.27H319a3 3 0 0 0-2.86 3.14v.4h9.71a4.89 4.89 0 0 0 .68-9.75Z" class="a"/><path d="M336 29.45v1.48a40 40 0 0 0-9.89-1.93 26 26 0 0 0-16.35 4.2l-.22.13a17 17 0 0 0-7.08 7.89 9 9 0 0 0-.39 5.22 7.7 7.7 0 0 0 6.93 5.9c3.25.29 5.71-1.17 6.59-3.9a5.4 5.4 0 0 0-2.31-6.07 4.8 4.8 0 0 0-5.07-.11 3.4 3.4 0 0 0-1.58 2.83 3.15 3.15 0 0 0 3 3.12 4 4 0 0 0 1.16-.2 2 2 0 0 0 .44-.19 1 1 0 0 0 .47-.85v-.29a1 1 0 0 0-1.19-.73h-.31c-.19 0-.37.06-.55.08a1 1 0 0 1-.88-1 1 1 0 0 1 .18-.61 1.8 1.8 0 0 1 1.68-.63 2.9 2.9 0 0 1 2.37 1.77 3 3 0 0 1-.33 3.09c-.68.89-1.9 1.26-3.52 1.09a4.9 4.9 0 0 1-4.33-5.45 5 5 0 0 1 .45-1.55c1.65-3.12 4.76-3.09 6.47-2.79 2.43.42 6.11 2.6 7.49 7.64h3.37c-.42-1.29-.66-5 3.12-5 4.15 0 4.67 2.92 5.85 5h3.56a6 6 0 0 1-1.39-4.09c.31-1.85 1.78-1.68 3.82-1.45.67.07 1.43.16 2.21.18a14 14 0 0 0 5.63-1 8 8 0 0 0 1.92-1 1 1 0 0 0 .28-.49v-.13c.06-.16.14-.5.19-.68.09-.37-.24-.17-.24-.17a8.6 8.6 0 0 1-3.72 1.14c-1.86 0-5.59-1.86-6-2.06v-.05l-.77-1.82q4.04 2.66 6.61 2.89a6.2 6.2 0 0 0 4-1.3c.06-.05.31-.22.25-.42-.24-.86-1.1-3.75-1.8-4.49a3 3 0 0 0-.71-.61c-2.72-1.58-9.16-2.54-9.46-2.58.15-.07.05-.09.05-.01m4.42 5.32a2.76 2.76 0 1 1 4.64 2.12 2.8 2.8 0 0 1-2 .73 2.76 2.76 0 0 1-2.61-2.85Z" class="a"/><path d="M343.28 32.93a2 2 0 0 0-1.38.51 1.92 1.92 0 1 0 1.4-.51Zm.31 2.1c-.47 0-.85-.26-.85-.57s.38-.57.85-.57.86.26.86.57-.39.54-.86.54ZM39.3 38.32a13.67 13.67 0 0 0-27.18 0 13.68 13.68 0 0 0 1.5 27.27h12.14a7.63 7.63 0 0 0 0-15.26 4.46 4.46 0 1 1 3.16-7.6 1.59 1.59 0 1 0 2.37-2.12l-.12-.12a7.63 7.63 0 1 0-5.41 13 4.45 4.45 0 0 1 0 8.9H13.62a10.5 10.5 0 0 1 0-21 1.6 1.6 0 0 0 1.59-1.59 10.5 10.5 0 0 1 21 0 1.6 1.6 0 0 0 1.59 1.59 10.5 10.5 0 0 1 0 21 1.59 1.59 0 1 0 0 3.18 13.68 13.68 0 0 0 1.5-27.27Zm30.81 17.09c-.78-.31-1.48-.55-2.5-.9-1.83-.58-3.61-1.25-3.61-2.77s1.17-2.3 3-2.3a6.8 6.8 0 0 1 4.68 2l1.56-2.3a8.1 8.1 0 0 0-6.32-2.42c-3.28 0-6.24 1.87-6.24 5.3a4.75 4.75 0 0 0 2.92 4.45 14 14 0 0 0 2.54 1c1.25.43 4.18 1.05 4.18 3.08s-1.84 2.65-3.56 2.65a7.6 7.6 0 0 1-5.46-2.65l-1.79 2.18a8.9 8.9 0 0 0 7.22 3.32 8 8 0 0 0 5.15-1.64 5.3 5.3 0 0 0 1.91-4.21 4.6 4.6 0 0 0-1.48-3.44 7 7 0 0 0-2.2-1.35m13.57-8.7a14 14 0 0 0-7 1.87l1.14 2.5a11.3 11.3 0 0 1 5.58-1.6c2.69 0 4.6 1.4 4.6 4.21v.74l-5 .2c-4.29.19-7.25 2-7.25 5.66S78.8 66 82.2 66a7.7 7.7 0 0 0 5.89-2.77v2.34h3.67V54.82c0-3.16-.75-4.72-2-6s-3-2.11-6.08-2.11m4.41 14a5.9 5.9 0 0 1-4.72 2.69c-2.46 0-3.83-1.45-3.83-3.2s1.21-3 4.22-3.2l4.33-.27Zm25.44-14a9.2 9.2 0 0 0-9.41 9v.64c0 5.89 3.78 9.71 9.28 9.71s7.93-2.73 8.16-2.92L120 61a10.3 10.3 0 0 1-6.13 2.15c-3.43 0-5.77-2.23-6-5.9h14.28q.09-.82.12-1.64a8.47 8.47 0 0 0-8.06-8.85Zm-5.58 8a5.46 5.46 0 0 1 5.46-5.31 5.36 5.36 0 0 1 5.35 5.31Zm26.35.7c-.78-.31-1.48-.55-2.49-.9-1.84-.58-3.63-1.25-3.63-2.77s1.17-2.3 3-2.3a6.8 6.8 0 0 1 4.69 2l1.56-2.3a8.1 8.1 0 0 0-6.32-2.42c-3.28 0-6.25 1.87-6.25 5.3a4.8 4.8 0 0 0 2.93 4.45 14 14 0 0 0 2.54 1c1.24.43 4.17 1.05 4.17 3.08s-1.83 2.65-3.5 2.65a7.6 7.6 0 0 1-5.46-2.65l-1.8 2.18a8.9 8.9 0 0 0 7.22 3.32 8 8 0 0 0 5.15-1.64A5.3 5.3 0 0 0 138 60.2a4.6 4.6 0 0 0-1.48-3.44 7 7 0 0 0-2.22-1.35m15.99-8.7A7.8 7.8 0 0 0 143.7 50h-.08v-2.91H140v25.58h3.73v-10a7.2 7.2 0 0 0 6.4 3.32c5.5 0 9-4.21 9-9.71s-3.37-9.57-8.84-9.57m-.78 16.11c-3.7 0-5.89-2.85-5.89-6.55s2.19-6.52 5.89-6.52 5.9 2.81 5.9 6.52-2.19 6.55-5.9 6.55m24.92-15.76h3.75v18.53h-3.75zm16.33-.35A6.3 6.3 0 0 0 185.1 50h-.1v-2.94h-3.75v18.53H185v-9.32c0-3.55 1.28-6.48 4.76-6.48 3.31 0 3.86 2.34 3.86 5.46v10.34h3.75v-11c.07-4.41-1.3-7.88-6.61-7.88m24.24.38V50h-.11a7.4 7.4 0 0 0-6.48-3.27c-4.76 0-8.94 3.43-8.94 9.32s4.18 9.33 8.94 9.33a7.5 7.5 0 0 0 6.48-3.32h.11v.73a8.4 8.4 0 0 1-1.41 5.21c-.74.94-2.3 2-5.07 2a12 12 0 0 1-6.64-2.34l-1.75 2.61A14.3 14.3 0 0 0 208.4 73c4.61 0 6.91-1.87 8.27-3.55s2-3.9 2-8V47.09Zm-5.78 15.25c-3.78 0-5.89-2.77-5.89-6.28s2.11-6.32 5.89-6.32 5.89 2.81 5.89 6.32-2.07 6.25-5.89 6.25ZM96.19 40.27c-.78 1-1.25 2.54-1.25 4.95v20.37h3.71v-15.5h4.41v-3h-4.41V45c0-2.11.39-3.94 2.85-3.94a6 6 0 0 1 1.56.2v-2.81a12 12 0 0 0-2.42-.22 5.6 5.6 0 0 0-4.45 2.04m68.96 9.64H165v-2.85h-3.7v18.53h3.7v-9.25a8 8 0 0 1 1.14-4.68 3.9 3.9 0 0 1 3-1.56 5 5 0 0 1 2 .39v-3.6a6 6 0 0 0-1.56-.18 4.8 4.8 0 0 0-4.43 3.2" class="a"/><circle cx="176.28" cy="40.68" r="2.44" class="a"/><path d="m243.26 100.59 36.85-100" class="b"/><path d="m243.87 100.76 32.21-87.41L280.76.76c.28-.76-.93-1.08-1.2-.33l-32.21 87.41-4.64 12.59c-.28.75.93 1.08 1.21.33Z" class="a"/></svg>