<svg xmlns="http://www.w3.org/2000/svg" width="486" height="328.194" viewBox="0 0 486 328.194">
  <g id="Underleverantörer" transform="translate(-720 -80.5)">
    <g id="Circle" transform="translate(-95 38)">
      <circle id="Circle-2" data-name="Circle" cx="11.5" cy="11.5" r="11.5" transform="translate(1105 205)" fill="#32cd32"/>
      <path id="Check_mark" data-name="Check mark" d="M3.222,72.032.139,68.95a.474.474,0,0,1,0-.671l.671-.671a.474.474,0,0,1,.671,0l2.076,2.076L8,65.237a.474.474,0,0,1,.671,0l.671.671a.474.474,0,0,1,0,.671l-5.45,5.453a.474.474,0,0,1-.671,0Z" transform="translate(1111.758 147.865)" fill="#fff"/>
    </g>
    <path id="Path_239" data-name="Path 239" d="M.83-7H2.45v5.68H5.96V0H.83ZM9.28.08A3.226,3.226,0,0,1,7.755-.275,2.639,2.639,0,0,1,6.7-1.26a2.714,2.714,0,0,1-.38-1.43A2.714,2.714,0,0,1,6.7-4.12a2.639,2.639,0,0,1,1.055-.985A3.226,3.226,0,0,1,9.28-5.46,3.2,3.2,0,0,1,10.8-5.1a2.647,2.647,0,0,1,1.05.985,2.714,2.714,0,0,1,.38,1.43,2.714,2.714,0,0,1-.38,1.43,2.647,2.647,0,0,1-1.05.985A3.2,3.2,0,0,1,9.28.08Zm0-1.28a1.3,1.3,0,0,0,.985-.405A1.51,1.51,0,0,0,10.65-2.69a1.51,1.51,0,0,0-.385-1.085,1.3,1.3,0,0,0-.985-.4,1.315,1.315,0,0,0-.99.4A1.5,1.5,0,0,0,7.9-2.69a1.5,1.5,0,0,0,.39,1.085,1.315,1.315,0,0,0,.99.405Zm6.3-.91-.75.74V0H13.27V-7.42h1.56v4.2l2.28-2.16h1.86L16.73-3.1,19.17,0H17.28Zm6.36-3.35a2.8,2.8,0,0,1,1.92.6,2.277,2.277,0,0,1,.67,1.795V0H23.07V-.67a1.738,1.738,0,0,1-1.64.75,2.545,2.545,0,0,1-1.075-.21,1.6,1.6,0,0,1-.695-.58,1.51,1.51,0,0,1-.24-.84,1.4,1.4,0,0,1,.565-1.18,2.879,2.879,0,0,1,1.745-.43h1.24a.994.994,0,0,0-.31-.785,1.365,1.365,0,0,0-.93-.275,2.714,2.714,0,0,0-.845.135,2.236,2.236,0,0,0-.7.365l-.56-1.09a3.379,3.379,0,0,1,1.055-.48,4.726,4.726,0,0,1,1.26-.17ZM21.82-.97a1.359,1.359,0,0,0,.71-.185,1.012,1.012,0,0,0,.44-.545v-.55H21.9q-.96,0-.96.63a.561.561,0,0,0,.235.475,1.059,1.059,0,0,0,.645.175Zm4.12-6.45H27.5V0H25.94Zm9.02,1.96a2.742,2.742,0,0,1,1.365.345,2.477,2.477,0,0,1,.965.97,2.928,2.928,0,0,1,.35,1.455,2.928,2.928,0,0,1-.35,1.455,2.477,2.477,0,0,1-.965.97A2.742,2.742,0,0,1,34.96.08a2.078,2.078,0,0,1-1.62-.65V1.94H31.78V-5.38h1.49v.62a2.069,2.069,0,0,1,1.69-.7ZM34.69-1.2a1.3,1.3,0,0,0,.985-.405A1.51,1.51,0,0,0,36.06-2.69a1.51,1.51,0,0,0-.385-1.085,1.3,1.3,0,0,0-.985-.405,1.3,1.3,0,0,0-.985.4A1.51,1.51,0,0,0,33.32-2.69a1.51,1.51,0,0,0,.38,1.085,1.3,1.3,0,0,0,.99.405Zm9.26-1.47q0,.03-.03.42H39.85a1.268,1.268,0,0,0,.52.79,1.722,1.722,0,0,0,1.02.29,2.065,2.065,0,0,0,.745-.125,1.8,1.8,0,0,0,.6-.395l.83.9a2.789,2.789,0,0,1-2.22.87,3.512,3.512,0,0,1-1.61-.355,2.6,2.6,0,0,1-1.08-.985,2.714,2.714,0,0,1-.38-1.43,2.749,2.749,0,0,1,.375-1.425,2.627,2.627,0,0,1,1.03-.99,3.024,3.024,0,0,1,1.47-.355,3,3,0,0,1,1.43.34,2.482,2.482,0,0,1,1.005.975A2.907,2.907,0,0,1,43.95-2.67ZM41.16-4.28a1.343,1.343,0,0,0-.89.3,1.277,1.277,0,0,0-.44.82h2.65a1.29,1.29,0,0,0-.44-.815A1.315,1.315,0,0,0,41.16-4.28Zm5.32-.39a1.735,1.735,0,0,1,.755-.59,2.8,2.8,0,0,1,1.1-.2v1.44q-.26-.02-.35-.02a1.43,1.43,0,0,0-1.05.375,1.516,1.516,0,0,0-.38,1.125V0H44.99V-5.38h1.49ZM51.09.08a5.226,5.226,0,0,1-1.31-.165A3.423,3.423,0,0,1,48.76-.5l.52-1.12a3.273,3.273,0,0,0,.87.375,3.646,3.646,0,0,0,1,.145q.99,0,.99-.49a.347.347,0,0,0-.27-.33,4,4,0,0,0-.83-.17,8.007,8.007,0,0,1-1.09-.23,1.691,1.691,0,0,1-.745-.46,1.308,1.308,0,0,1-.315-.94,1.472,1.472,0,0,1,.295-.9,1.9,1.9,0,0,1,.86-.615,3.673,3.673,0,0,1,1.335-.22,5.239,5.239,0,0,1,1.135.125,3.173,3.173,0,0,1,.935.345l-.52,1.11a3.1,3.1,0,0,0-1.55-.4,1.577,1.577,0,0,0-.75.14.412.412,0,0,0-.25.36.357.357,0,0,0,.27.35,4.78,4.78,0,0,0,.86.19A9.206,9.206,0,0,1,52.59-3a1.622,1.622,0,0,1,.73.455,1.291,1.291,0,0,1,.31.92,1.421,1.421,0,0,1-.3.89,1.915,1.915,0,0,1-.875.605A3.9,3.9,0,0,1,51.09.08Zm6.06,0a3.226,3.226,0,0,1-1.525-.355A2.639,2.639,0,0,1,54.57-1.26a2.714,2.714,0,0,1-.38-1.43,2.714,2.714,0,0,1,.38-1.43,2.639,2.639,0,0,1,1.055-.985A3.226,3.226,0,0,1,57.15-5.46a3.2,3.2,0,0,1,1.52.355,2.647,2.647,0,0,1,1.05.985,2.714,2.714,0,0,1,.38,1.43,2.714,2.714,0,0,1-.38,1.43,2.647,2.647,0,0,1-1.05.985A3.2,3.2,0,0,1,57.15.08Zm0-1.28a1.3,1.3,0,0,0,.985-.405A1.51,1.51,0,0,0,58.52-2.69a1.51,1.51,0,0,0-.385-1.085,1.3,1.3,0,0,0-.985-.405,1.315,1.315,0,0,0-.99.4,1.5,1.5,0,0,0-.39,1.085A1.5,1.5,0,0,0,56.16-1.6a1.315,1.315,0,0,0,.99.4Zm7.26-4.26a2.214,2.214,0,0,1,1.615.6,2.379,2.379,0,0,1,.615,1.78V0H65.08V-2.84a1.4,1.4,0,0,0-.28-.96,1.027,1.027,0,0,0-.81-.315,1.241,1.241,0,0,0-.94.365,1.511,1.511,0,0,0-.35,1.09V0H61.14V-5.38h1.49v.63a2.069,2.069,0,0,1,.77-.525,2.683,2.683,0,0,1,1.01-.185Zm5.81,0a2.8,2.8,0,0,1,1.92.6,2.277,2.277,0,0,1,.67,1.795V0H71.35V-.67a1.738,1.738,0,0,1-1.64.75,2.545,2.545,0,0,1-1.075-.21,1.6,1.6,0,0,1-.695-.58,1.51,1.51,0,0,1-.24-.84,1.4,1.4,0,0,1,.565-1.18,2.879,2.879,0,0,1,1.745-.43h1.24a.994.994,0,0,0-.31-.785,1.365,1.365,0,0,0-.93-.275,2.714,2.714,0,0,0-.845.135,2.236,2.236,0,0,0-.705.365L67.9-4.81a3.379,3.379,0,0,1,1.055-.48A4.726,4.726,0,0,1,70.22-5.46ZM70.1-.97a1.359,1.359,0,0,0,.71-.185,1.012,1.012,0,0,0,.44-.545v-.55H70.18q-.96,0-.96.63a.561.561,0,0,0,.235.475A1.059,1.059,0,0,0,70.1-.97Zm4.12-6.45h1.56V0H74.22Z" transform="translate(1045 258)" fill="#195f8c"/>
    <path id="Path_240" data-name="Path 240" d="M5,0H196a5,5,0,0,1,5,5V27a5,5,0,0,1-5,5H5a5,5,0,0,1-5-5V5A5,5,0,0,1,5,0Z" transform="translate(1005 272)" fill="rgba(25,95,140,0.07)"/>
    <g id="Circle-3" data-name="Circle" transform="translate(-95 72)">
      <circle id="Circle-4" data-name="Circle" cx="11.5" cy="11.5" r="11.5" transform="translate(1105 205)" fill="#32cd32"/>
      <path id="Check_mark-2" data-name="Check mark" d="M3.222,72.032.139,68.95a.474.474,0,0,1,0-.671l.671-.671a.474.474,0,0,1,.671,0l2.076,2.076L8,65.237a.474.474,0,0,1,.671,0l.671.671a.474.474,0,0,1,0,.671l-5.45,5.453a.474.474,0,0,1-.671,0Z" transform="translate(1111.758 147.865)" fill="#fff"/>
    </g>
    <path id="Path_241" data-name="Path 241" d="M3.13.12a5.727,5.727,0,0,1-1.6-.22A3.764,3.764,0,0,1,.28-.69L.83-1.91a3.732,3.732,0,0,0,1.07.53,4.019,4.019,0,0,0,1.24.2,1.981,1.981,0,0,0,1.02-.2.619.619,0,0,0,.33-.545.521.521,0,0,0-.19-.42,1.478,1.478,0,0,0-.5-.265q-.305-.1-.825-.22a11.4,11.4,0,0,1-1.31-.38A2.128,2.128,0,0,1,.79-3.82,1.647,1.647,0,0,1,.42-4.94,1.948,1.948,0,0,1,.75-6.045a2.22,2.22,0,0,1,1-.785,4.06,4.06,0,0,1,1.62-.29,5.381,5.381,0,0,1,1.31.16A3.87,3.87,0,0,1,5.8-6.5L5.3-5.27a3.9,3.9,0,0,0-1.94-.55,1.819,1.819,0,0,0-1,.22.672.672,0,0,0-.325.58.567.567,0,0,0,.375.535,5.888,5.888,0,0,0,1.14.345,11.4,11.4,0,0,1,1.31.38,2.169,2.169,0,0,1,.875.6A1.609,1.609,0,0,1,6.1-2.05,1.911,1.911,0,0,1,5.765-.955a2.251,2.251,0,0,1-1,.785A4.1,4.1,0,0,1,3.13.12Zm9.21-5.5L10.07,0H8.46L6.2-5.38H7.81L9.3-1.72l1.54-3.66ZM18.1-2.67q0,.03-.03.42H14a1.268,1.268,0,0,0,.52.79,1.722,1.722,0,0,0,1.02.29,2.065,2.065,0,0,0,.745-.125,1.8,1.8,0,0,0,.6-.4l.83.9A2.789,2.789,0,0,1,15.5.08a3.512,3.512,0,0,1-1.61-.355,2.6,2.6,0,0,1-1.08-.985,2.714,2.714,0,0,1-.38-1.43,2.749,2.749,0,0,1,.37-1.425,2.627,2.627,0,0,1,1.03-.99A3.024,3.024,0,0,1,15.3-5.46a3,3,0,0,1,1.43.34,2.482,2.482,0,0,1,1,.975A2.907,2.907,0,0,1,18.1-2.67ZM15.31-4.28a1.343,1.343,0,0,0-.89.3,1.277,1.277,0,0,0-.44.82h2.65a1.29,1.29,0,0,0-.44-.815A1.315,1.315,0,0,0,15.31-4.28Zm7.1-1.18a2.214,2.214,0,0,1,1.615.6,2.379,2.379,0,0,1,.615,1.78V0H23.08V-2.84a1.4,1.4,0,0,0-.28-.96,1.027,1.027,0,0,0-.81-.315,1.241,1.241,0,0,0-.94.365,1.511,1.511,0,0,0-.35,1.09V0H19.14V-5.38h1.49v.63a2.069,2.069,0,0,1,.77-.525A2.683,2.683,0,0,1,22.41-5.46ZM27.86.08a5.226,5.226,0,0,1-1.31-.165A3.423,3.423,0,0,1,25.53-.5l.52-1.12a3.273,3.273,0,0,0,.87.375,3.646,3.646,0,0,0,1,.145q.99,0,.99-.49a.347.347,0,0,0-.27-.33,4,4,0,0,0-.83-.17,8.007,8.007,0,0,1-1.09-.23,1.691,1.691,0,0,1-.745-.46,1.308,1.308,0,0,1-.315-.94,1.472,1.472,0,0,1,.3-.9,1.9,1.9,0,0,1,.86-.615,3.673,3.673,0,0,1,1.335-.22,5.239,5.239,0,0,1,1.135.125,3.173,3.173,0,0,1,.935.345L29.7-3.88a3.1,3.1,0,0,0-1.55-.4,1.577,1.577,0,0,0-.75.14.412.412,0,0,0-.25.36.357.357,0,0,0,.27.35,4.78,4.78,0,0,0,.86.19,9.206,9.206,0,0,1,1.08.235,1.622,1.622,0,0,1,.73.455,1.291,1.291,0,0,1,.31.92,1.421,1.421,0,0,1-.3.89,1.915,1.915,0,0,1-.875.6A3.9,3.9,0,0,1,27.86.08Zm5.81-2.19-.75.74V0H31.36V-7.42h1.56v4.2L35.2-5.38h1.86L34.82-3.1,37.26,0H35.37Zm6.36-3.35a2.8,2.8,0,0,1,1.92.6,2.277,2.277,0,0,1,.67,1.795V0H41.16V-.67a1.738,1.738,0,0,1-1.64.75,2.545,2.545,0,0,1-1.075-.21,1.6,1.6,0,0,1-.695-.58,1.51,1.51,0,0,1-.24-.84,1.4,1.4,0,0,1,.565-1.18,2.879,2.879,0,0,1,1.745-.43h1.24a.994.994,0,0,0-.31-.785,1.365,1.365,0,0,0-.93-.275,2.714,2.714,0,0,0-.845.135,2.236,2.236,0,0,0-.7.365l-.56-1.09a3.379,3.379,0,0,1,1.055-.48A4.726,4.726,0,0,1,40.03-5.46ZM39.91-.97a1.359,1.359,0,0,0,.71-.185,1.012,1.012,0,0,0,.44-.545v-.55H39.99q-.96,0-.96.63a.561.561,0,0,0,.235.475,1.059,1.059,0,0,0,.645.175ZM52.34-7.42V0H50.85V-.62a2.057,2.057,0,0,1-1.68.7A2.794,2.794,0,0,1,47.8-.26a2.434,2.434,0,0,1-.965-.97,2.957,2.957,0,0,1-.35-1.46,2.957,2.957,0,0,1,.35-1.46,2.434,2.434,0,0,1,.965-.97,2.794,2.794,0,0,1,1.375-.34,2.046,2.046,0,0,1,1.61.65V-7.42ZM49.44-1.2a1.3,1.3,0,0,0,.98-.405,1.5,1.5,0,0,0,.39-1.085,1.5,1.5,0,0,0-.39-1.085,1.3,1.3,0,0,0-.98-.405,1.315,1.315,0,0,0-.99.4,1.5,1.5,0,0,0-.39,1.085,1.5,1.5,0,0,0,.39,1.085,1.315,1.315,0,0,0,.99.4Zm6.51-4.26a2.8,2.8,0,0,1,1.92.6,2.277,2.277,0,0,1,.67,1.795V0H57.08V-.67a1.738,1.738,0,0,1-1.64.75,2.545,2.545,0,0,1-1.075-.21,1.6,1.6,0,0,1-.695-.58,1.51,1.51,0,0,1-.24-.84A1.4,1.4,0,0,1,54-2.73a2.879,2.879,0,0,1,1.745-.43h1.24a.994.994,0,0,0-.31-.785,1.365,1.365,0,0,0-.93-.275,2.714,2.714,0,0,0-.845.135,2.236,2.236,0,0,0-.7.365l-.56-1.09a3.379,3.379,0,0,1,1.055-.48,4.726,4.726,0,0,1,1.255-.17ZM55.83-.97a1.359,1.359,0,0,0,.71-.185,1.012,1.012,0,0,0,.44-.545v-.55H55.91q-.96,0-.96.63a.561.561,0,0,0,.235.475,1.059,1.059,0,0,0,.645.175Zm7.59.71a1.6,1.6,0,0,1-.565.255,2.857,2.857,0,0,1-.7.085A2.094,2.094,0,0,1,60.67-.41a1.875,1.875,0,0,1-.525-1.44V-4.06h-.83v-1.2h.83V-6.57H61.7v1.31h1.34v1.2H61.7v2.19a.734.734,0,0,0,.175.525.649.649,0,0,0,.495.185,1,1,0,0,0,.63-.2Zm3.05-5.2a2.8,2.8,0,0,1,1.92.6,2.277,2.277,0,0,1,.67,1.795V0H67.6V-.67a1.738,1.738,0,0,1-1.64.75,2.545,2.545,0,0,1-1.075-.21,1.6,1.6,0,0,1-.695-.58,1.51,1.51,0,0,1-.24-.84,1.4,1.4,0,0,1,.565-1.18,2.879,2.879,0,0,1,1.745-.43H67.5a.994.994,0,0,0-.31-.785,1.365,1.365,0,0,0-.93-.275,2.714,2.714,0,0,0-.845.135,2.236,2.236,0,0,0-.705.365l-.56-1.09a3.379,3.379,0,0,1,1.055-.48,4.726,4.726,0,0,1,1.265-.17ZM66.35-.97a1.359,1.359,0,0,0,.71-.185A1.012,1.012,0,0,0,67.5-1.7v-.55H66.43q-.96,0-.96.63a.561.561,0,0,0,.235.475,1.059,1.059,0,0,0,.645.175ZM73.13.08a3.308,3.308,0,0,1-1.545-.355,2.658,2.658,0,0,1-1.07-.985,2.687,2.687,0,0,1-.385-1.43,2.687,2.687,0,0,1,.385-1.43,2.658,2.658,0,0,1,1.07-.985A3.308,3.308,0,0,1,73.13-5.46a2.994,2.994,0,0,1,1.485.355A2.1,2.1,0,0,1,75.54-4.09l-1.21.65a1.323,1.323,0,0,0-1.21-.74,1.369,1.369,0,0,0-1.01.4,1.473,1.473,0,0,0-.4,1.09,1.473,1.473,0,0,0,.4,1.09,1.369,1.369,0,0,0,1.01.4,1.309,1.309,0,0,0,1.21-.74l1.21.66a2.148,2.148,0,0,1-.925,1A2.96,2.96,0,0,1,73.13.08Zm8.51-2.75q0,.03-.03.42H77.54a1.268,1.268,0,0,0,.52.79,1.722,1.722,0,0,0,1.02.29,2.065,2.065,0,0,0,.745-.125,1.8,1.8,0,0,0,.6-.4l.83.9a2.789,2.789,0,0,1-2.22.87,3.512,3.512,0,0,1-1.61-.355,2.6,2.6,0,0,1-1.08-.985,2.714,2.714,0,0,1-.38-1.43,2.749,2.749,0,0,1,.375-1.425,2.627,2.627,0,0,1,1.03-.99,3.024,3.024,0,0,1,1.47-.355,3,3,0,0,1,1.43.34,2.482,2.482,0,0,1,1,.975A2.907,2.907,0,0,1,81.64-2.67ZM78.85-4.28a1.343,1.343,0,0,0-.89.3,1.277,1.277,0,0,0-.44.82h2.65a1.29,1.29,0,0,0-.44-.815,1.315,1.315,0,0,0-.88-.3Zm7.1-1.18a2.214,2.214,0,0,1,1.615.6,2.379,2.379,0,0,1,.615,1.78V0H86.62V-2.84a1.4,1.4,0,0,0-.28-.955,1.027,1.027,0,0,0-.81-.315,1.241,1.241,0,0,0-.94.365,1.511,1.511,0,0,0-.35,1.085V0H82.68V-5.38h1.49v.63a2.069,2.069,0,0,1,.77-.525,2.683,2.683,0,0,1,1.01-.185Zm7.11,5.2A1.6,1.6,0,0,1,92.495,0a2.857,2.857,0,0,1-.7.085,2.094,2.094,0,0,1-1.485-.49,1.875,1.875,0,0,1-.525-1.44V-4.06h-.83v-1.2h.83V-6.57h1.56v1.31h1.34v1.2H91.34v2.19a.734.734,0,0,0,.175.525.649.649,0,0,0,.5.185,1,1,0,0,0,.63-.2Zm5.98-2.41q0,.03-.03.42H94.94a1.268,1.268,0,0,0,.52.79,1.722,1.722,0,0,0,1.02.29,2.065,2.065,0,0,0,.745-.125,1.8,1.8,0,0,0,.6-.395l.83.9a2.789,2.789,0,0,1-2.22.87,3.512,3.512,0,0,1-1.61-.355,2.6,2.6,0,0,1-1.08-.985,2.714,2.714,0,0,1-.38-1.43,2.749,2.749,0,0,1,.375-1.425,2.627,2.627,0,0,1,1.03-.99,3.024,3.024,0,0,1,1.47-.355,3,3,0,0,1,1.43.34,2.482,2.482,0,0,1,1,.975,2.907,2.907,0,0,1,.37,1.475ZM96.25-4.28a1.343,1.343,0,0,0-.89.3,1.277,1.277,0,0,0-.44.82h2.65a1.29,1.29,0,0,0-.44-.815,1.315,1.315,0,0,0-.88-.3Zm5.32-.39a1.735,1.735,0,0,1,.755-.59,2.8,2.8,0,0,1,1.1-.2v1.44q-.26-.02-.35-.02a1.43,1.43,0,0,0-1.05.375,1.516,1.516,0,0,0-.38,1.125V0h-1.56V-5.38h1.49Z" transform="translate(1045 292)" fill="#195f8c"/>
    <path id="Path_242" data-name="Path 242" d="M5,0H196a5,5,0,0,1,5,5V27a5,5,0,0,1-5,5H5a5,5,0,0,1-5-5V5A5,5,0,0,1,5,0Z" transform="translate(1005 205)" fill="rgba(25,95,140,0.07)"/>
    <g id="Circle-5" data-name="Circle" transform="translate(-95 5)">
      <circle id="Circle-6" data-name="Circle" cx="11.5" cy="11.5" r="11.5" transform="translate(1105 205)" fill="#32cd32"/>
      <path id="Check_mark-3" data-name="Check mark" d="M3.222,72.032.139,68.95a.474.474,0,0,1,0-.671l.671-.671a.474.474,0,0,1,.671,0l2.076,2.076L8,65.237a.474.474,0,0,1,.671,0l.671.671a.474.474,0,0,1,0,.671l-5.45,5.453a.474.474,0,0,1-.671,0Z" transform="translate(1111.758 147.865)" fill="#fff"/>
    </g>
    <path id="Path_243" data-name="Path 243" d="M4.18.12A4.021,4.021,0,0,1,2.245-.345a3.47,3.47,0,0,1-1.36-1.29A3.554,3.554,0,0,1,.39-3.5,3.554,3.554,0,0,1,.885-5.365a3.47,3.47,0,0,1,1.36-1.29A4.042,4.042,0,0,1,4.19-7.12a4.08,4.08,0,0,1,1.645.32,3.3,3.3,0,0,1,1.235.92l-1.04.96a2.236,2.236,0,0,0-1.76-.82,2.337,2.337,0,0,0-1.16.285,2.026,2.026,0,0,0-.795.8A2.337,2.337,0,0,0,2.03-3.5a2.337,2.337,0,0,0,.285,1.16,2.026,2.026,0,0,0,.8.795,2.337,2.337,0,0,0,1.16.285,2.225,2.225,0,0,0,1.76-.83l1.04.96A3.242,3.242,0,0,1,5.83-.2,4.116,4.116,0,0,1,4.18.12ZM10.42.08A3.226,3.226,0,0,1,8.9-.275,2.639,2.639,0,0,1,7.84-1.26a2.714,2.714,0,0,1-.38-1.43,2.714,2.714,0,0,1,.38-1.43A2.639,2.639,0,0,1,8.9-5.105a3.226,3.226,0,0,1,1.52-.355,3.2,3.2,0,0,1,1.52.355,2.647,2.647,0,0,1,1.05.985,2.714,2.714,0,0,1,.38,1.43,2.714,2.714,0,0,1-.38,1.43,2.647,2.647,0,0,1-1.05.985A3.2,3.2,0,0,1,10.42.08Zm0-1.28a1.3,1.3,0,0,0,.985-.4A1.51,1.51,0,0,0,11.79-2.69a1.51,1.51,0,0,0-.39-1.085,1.3,1.3,0,0,0-.985-.4,1.315,1.315,0,0,0-.99.4A1.5,1.5,0,0,0,9.04-2.69a1.5,1.5,0,0,0,.39,1.085,1.315,1.315,0,0,0,.99.4ZM21.3-5.46a2.169,2.169,0,0,1,1.6.6,2.424,2.424,0,0,1,.6,1.785V0H21.94V-2.84a1.458,1.458,0,0,0-.265-.955.932.932,0,0,0-.755-.315,1.113,1.113,0,0,0-.87.355A1.53,1.53,0,0,0,19.73-2.7V0H18.17V-2.84q0-1.27-1.02-1.27a1.1,1.1,0,0,0-.86.355A1.53,1.53,0,0,0,15.97-2.7V0H14.41V-5.38H15.9v.62a1.969,1.969,0,0,1,.735-.52,2.474,2.474,0,0,1,.955-.18,2.313,2.313,0,0,1,1.03.225,1.824,1.824,0,0,1,.74.655,2.207,2.207,0,0,1,.835-.65A2.634,2.634,0,0,1,21.3-5.46Zm6.78,0a2.742,2.742,0,0,1,1.365.345,2.477,2.477,0,0,1,.965.97,2.928,2.928,0,0,1,.35,1.455,2.928,2.928,0,0,1-.35,1.455,2.477,2.477,0,0,1-.965.97A2.742,2.742,0,0,1,28.08.08a2.078,2.078,0,0,1-1.62-.65V1.94H24.9V-5.38h1.49v.62A2.069,2.069,0,0,1,28.08-5.46ZM27.81-1.2a1.3,1.3,0,0,0,.985-.405A1.51,1.51,0,0,0,29.18-2.69a1.51,1.51,0,0,0-.38-1.085,1.3,1.3,0,0,0-.985-.405,1.3,1.3,0,0,0-.985.405,1.51,1.51,0,0,0-.39,1.085A1.51,1.51,0,0,0,26.825-1.6a1.3,1.3,0,0,0,.985.4ZM31.8-7.42h1.56V0H31.8Zm3.01,2.04h1.56V0H34.81Zm.78-.75a.989.989,0,0,1-.7-.25A.811.811,0,0,1,34.62-7a.811.811,0,0,1,.27-.62.989.989,0,0,1,.7-.25,1.014,1.014,0,0,1,.7.24.77.77,0,0,1,.27.6.849.849,0,0,1-.27.645.978.978,0,0,1-.7.255Zm4.4.67a2.8,2.8,0,0,1,1.92.6,2.277,2.277,0,0,1,.67,1.8V0H41.12V-.67a1.738,1.738,0,0,1-1.64.75A2.545,2.545,0,0,1,38.4-.13a1.6,1.6,0,0,1-.695-.58,1.51,1.51,0,0,1-.24-.84,1.4,1.4,0,0,1,.565-1.18,2.879,2.879,0,0,1,1.745-.43h1.24a.994.994,0,0,0-.31-.785,1.365,1.365,0,0,0-.93-.275,2.714,2.714,0,0,0-.845.135,2.236,2.236,0,0,0-.7.365l-.56-1.09a3.379,3.379,0,0,1,1.055-.48,4.726,4.726,0,0,1,1.265-.17ZM39.87-.97a1.359,1.359,0,0,0,.71-.185,1.012,1.012,0,0,0,.44-.545v-.55H39.95q-.96,0-.96.63a.561.561,0,0,0,.235.475,1.059,1.059,0,0,0,.645.175Zm7.39-4.49a2.214,2.214,0,0,1,1.615.6,2.379,2.379,0,0,1,.615,1.78V0H47.93V-2.84a1.4,1.4,0,0,0-.28-.955,1.027,1.027,0,0,0-.81-.315,1.241,1.241,0,0,0-.94.365,1.511,1.511,0,0,0-.35,1.085V0H43.99V-5.38h1.49v.63a2.069,2.069,0,0,1,.77-.525,2.683,2.683,0,0,1,1.01-.185Zm7.11,5.2A1.6,1.6,0,0,1,53.805,0,2.857,2.857,0,0,1,53.1.08a2.094,2.094,0,0,1-1.485-.49,1.875,1.875,0,0,1-.525-1.44V-4.06h-.83v-1.2h.83V-6.57h1.56v1.31h1.34v1.2H52.65v2.19a.734.734,0,0,0,.175.525.649.649,0,0,0,.495.185,1,1,0,0,0,.63-.2Zm3.71-7.16h1.56V0H58.08Zm8.28,4.75q0,.03-.03.42H62.26a1.268,1.268,0,0,0,.52.79,1.722,1.722,0,0,0,1.02.29,2.065,2.065,0,0,0,.745-.125,1.8,1.8,0,0,0,.605-.4l.83.9a2.789,2.789,0,0,1-2.22.87,3.512,3.512,0,0,1-1.61-.355,2.6,2.6,0,0,1-1.08-.985,2.714,2.714,0,0,1-.38-1.43,2.749,2.749,0,0,1,.375-1.425A2.627,2.627,0,0,1,62.1-5.1,3.024,3.024,0,0,1,63.56-5.46a3,3,0,0,1,1.43.34,2.482,2.482,0,0,1,1,.975A2.907,2.907,0,0,1,66.36-2.67ZM63.57-4.28a1.343,1.343,0,0,0-.89.3,1.277,1.277,0,0,0-.44.82h2.65a1.29,1.29,0,0,0-.44-.815,1.315,1.315,0,0,0-.88-.3Zm9.07-1.1L70.37,0H68.76L66.5-5.38h1.61L69.6-1.72l1.54-3.66ZM78.4-2.67q0,.03-.03.42H74.3a1.268,1.268,0,0,0,.52.79,1.722,1.722,0,0,0,1.02.29,2.065,2.065,0,0,0,.745-.125,1.8,1.8,0,0,0,.6-.395l.83.9A2.789,2.789,0,0,1,75.8.08a3.512,3.512,0,0,1-1.61-.355,2.6,2.6,0,0,1-1.08-.985,2.714,2.714,0,0,1-.38-1.43,2.749,2.749,0,0,1,.375-1.425,2.627,2.627,0,0,1,1.03-.99A3.024,3.024,0,0,1,75.6-5.46a3,3,0,0,1,1.43.34,2.482,2.482,0,0,1,1,.975A2.907,2.907,0,0,1,78.4-2.67ZM75.61-4.28a1.343,1.343,0,0,0-.89.3,1.277,1.277,0,0,0-.44.82h2.65a1.29,1.29,0,0,0-.44-.815A1.315,1.315,0,0,0,75.61-4.28Zm5.32-.39a1.735,1.735,0,0,1,.755-.59,2.8,2.8,0,0,1,1.1-.2v1.44q-.26-.02-.35-.02a1.43,1.43,0,0,0-1.05.375A1.516,1.516,0,0,0,81-2.54V0H79.44V-5.38h1.49Zm4.92-.79a2.8,2.8,0,0,1,1.92.6,2.277,2.277,0,0,1,.67,1.795V0H86.98V-.67a1.738,1.738,0,0,1-1.64.75,2.545,2.545,0,0,1-1.075-.21,1.6,1.6,0,0,1-.695-.58,1.51,1.51,0,0,1-.24-.84A1.4,1.4,0,0,1,83.9-2.73a2.879,2.879,0,0,1,1.745-.43h1.24a.994.994,0,0,0-.31-.785,1.365,1.365,0,0,0-.93-.275,2.714,2.714,0,0,0-.845.135,2.236,2.236,0,0,0-.705.365l-.56-1.09a3.379,3.379,0,0,1,1.055-.48A4.726,4.726,0,0,1,85.85-5.46ZM85.73-.97a1.359,1.359,0,0,0,.71-.185,1.012,1.012,0,0,0,.44-.545v-.55H85.81q-.96,0-.96.63a.561.561,0,0,0,.235.475,1.059,1.059,0,0,0,.645.175Zm7.39-4.49a2.214,2.214,0,0,1,1.615.6,2.379,2.379,0,0,1,.615,1.78V0H93.79V-2.84a1.4,1.4,0,0,0-.28-.955,1.027,1.027,0,0,0-.81-.315,1.241,1.241,0,0,0-.94.365,1.511,1.511,0,0,0-.35,1.085V0H89.85V-5.38h1.49v.63a2.069,2.069,0,0,1,.77-.525,2.683,2.683,0,0,1,1.01-.185Zm7.11,5.2A1.6,1.6,0,0,1,99.665,0,2.857,2.857,0,0,1,98.96.08a2.094,2.094,0,0,1-1.485-.49,1.875,1.875,0,0,1-.525-1.44V-4.06h-.83v-1.2h.83V-6.57h1.56v1.31h1.34v1.2H98.51v2.19a.734.734,0,0,0,.175.525.649.649,0,0,0,.5.185,1,1,0,0,0,.63-.2Zm3.27.34a3.226,3.226,0,0,1-1.525-.355,2.639,2.639,0,0,1-1.055-.985,2.714,2.714,0,0,1-.38-1.43,2.714,2.714,0,0,1,.38-1.43,2.639,2.639,0,0,1,1.055-.985A3.226,3.226,0,0,1,103.5-5.46a3.2,3.2,0,0,1,1.52.355,2.647,2.647,0,0,1,1.05.985,2.714,2.714,0,0,1,.38,1.43,2.714,2.714,0,0,1-.38,1.43,2.647,2.647,0,0,1-1.05.985A3.2,3.2,0,0,1,103.5.08Zm0-1.28a1.3,1.3,0,0,0,.985-.4,1.51,1.51,0,0,0,.385-1.085,1.51,1.51,0,0,0-.385-1.085,1.3,1.3,0,0,0-.985-.4,1.315,1.315,0,0,0-.99.4,1.5,1.5,0,0,0-.39,1.085,1.5,1.5,0,0,0,.39,1.085,1.315,1.315,0,0,0,.99.405Zm-1.03-4.92a.688.688,0,0,1-.5-.2.662.662,0,0,1-.2-.495.662.662,0,0,1,.2-.5.688.688,0,0,1,.5-.2.671.671,0,0,1,.5.2.671.671,0,0,1,.195.5.671.671,0,0,1-.195.495A.671.671,0,0,1,102.47-6.12Zm2.02,0a.671.671,0,0,1-.5-.2.671.671,0,0,1-.195-.495A.671.671,0,0,1,104-7.3a.671.671,0,0,1,.5-.2.688.688,0,0,1,.5.2.662.662,0,0,1,.2.5.662.662,0,0,1-.2.5.688.688,0,0,1-.5.19Zm4.49,1.45a1.735,1.735,0,0,1,.755-.59,2.8,2.8,0,0,1,1.1-.2v1.44q-.26-.02-.35-.02a1.43,1.43,0,0,0-1.05.375,1.516,1.516,0,0,0-.38,1.125V0h-1.56V-5.38h1.49ZM113.59.08a5.226,5.226,0,0,1-1.31-.165A3.423,3.423,0,0,1,111.26-.5l.52-1.12a3.273,3.273,0,0,0,.87.375,3.646,3.646,0,0,0,1,.145q.99,0,.99-.49a.347.347,0,0,0-.27-.33,4,4,0,0,0-.83-.17,8.007,8.007,0,0,1-1.09-.23,1.691,1.691,0,0,1-.745-.46,1.308,1.308,0,0,1-.315-.94,1.473,1.473,0,0,1,.3-.9,1.9,1.9,0,0,1,.86-.615,3.673,3.673,0,0,1,1.335-.22,5.24,5.24,0,0,1,1.135.125,3.173,3.173,0,0,1,.935.345l-.52,1.11a3.1,3.1,0,0,0-1.55-.4,1.577,1.577,0,0,0-.75.14.412.412,0,0,0-.25.36.357.357,0,0,0,.27.35,4.78,4.78,0,0,0,.86.19A9.206,9.206,0,0,1,115.09-3a1.623,1.623,0,0,1,.73.455,1.291,1.291,0,0,1,.31.92,1.421,1.421,0,0,1-.3.89,1.915,1.915,0,0,1-.875.605,3.9,3.9,0,0,1-1.365.21Zm5.81-2.19-.75.74V0h-1.56V-7.42h1.56v4.2l2.28-2.16h1.86L120.55-3.1,122.99,0H121.1Zm9.33-.56q0,.03-.03.42h-4.07a1.268,1.268,0,0,0,.52.79,1.722,1.722,0,0,0,1.02.29,2.065,2.065,0,0,0,.745-.125,1.8,1.8,0,0,0,.6-.395l.83.9a2.789,2.789,0,0,1-2.22.87,3.512,3.512,0,0,1-1.61-.355,2.6,2.6,0,0,1-1.08-.985,2.714,2.714,0,0,1-.38-1.43,2.749,2.749,0,0,1,.375-1.425,2.627,2.627,0,0,1,1.03-.99,3.024,3.024,0,0,1,1.465-.355,3,3,0,0,1,1.43.34,2.482,2.482,0,0,1,1,.975,2.907,2.907,0,0,1,.375,1.475Zm-2.79-1.61a1.343,1.343,0,0,0-.89.3,1.277,1.277,0,0,0-.44.82h2.65a1.29,1.29,0,0,0-.44-.815,1.315,1.315,0,0,0-.88-.3Zm9.31-3.14V0h-1.49V-.62a2.057,2.057,0,0,1-1.68.7,2.794,2.794,0,0,1-1.375-.34,2.434,2.434,0,0,1-.965-.97,2.957,2.957,0,0,1-.35-1.46,2.957,2.957,0,0,1,.35-1.46,2.434,2.434,0,0,1,.965-.97,2.794,2.794,0,0,1,1.375-.34,2.046,2.046,0,0,1,1.61.65V-7.42Zm-2.9,6.22a1.3,1.3,0,0,0,.98-.405,1.5,1.5,0,0,0,.39-1.085,1.5,1.5,0,0,0-.39-1.085,1.3,1.3,0,0,0-.98-.4,1.315,1.315,0,0,0-.99.4,1.5,1.5,0,0,0-.39,1.085,1.5,1.5,0,0,0,.39,1.085A1.315,1.315,0,0,0,132.35-1.2Zm3.94,3.22a2.177,2.177,0,0,1-1.25-.3l.42-1.13a1.118,1.118,0,0,0,.66.19.591.591,0,0,0,.47-.2.869.869,0,0,0,.17-.58V-5.38h1.56V-.01a2.028,2.028,0,0,1-.535,1.485,2,2,0,0,1-1.5.545Zm1.25-8.15a.989.989,0,0,1-.7-.25.811.811,0,0,1-.27-.62.811.811,0,0,1,.27-.62.989.989,0,0,1,.7-.25,1.014,1.014,0,0,1,.7.24.77.77,0,0,1,.27.6.849.849,0,0,1-.27.645.978.978,0,0,1-.7.255Zm4.39.67a2.8,2.8,0,0,1,1.92.6,2.277,2.277,0,0,1,.67,1.8V0h-1.46V-.67a1.738,1.738,0,0,1-1.64.75,2.545,2.545,0,0,1-1.075-.21,1.6,1.6,0,0,1-.695-.58,1.51,1.51,0,0,1-.24-.84,1.4,1.4,0,0,1,.565-1.18,2.879,2.879,0,0,1,1.745-.43h1.24a.994.994,0,0,0-.31-.785,1.365,1.365,0,0,0-.93-.275,2.714,2.714,0,0,0-.845.135,2.235,2.235,0,0,0-.705.365l-.56-1.09a3.379,3.379,0,0,1,1.055-.48,4.726,4.726,0,0,1,1.265-.17Zm-.12,4.49a1.359,1.359,0,0,0,.71-.185,1.012,1.012,0,0,0,.44-.545v-.55h-1.07q-.96,0-.96.63a.561.561,0,0,0,.235.475,1.059,1.059,0,0,0,.645.175Z" transform="translate(1045 225)" fill="#195f8c"/>
    <g id="Circle-7" data-name="Circle" transform="translate(-95 105)">
      <circle id="Circle-8" data-name="Circle" cx="11.5" cy="11.5" r="11.5" transform="translate(1105 205)" fill="#32cd32"/>
      <path id="Check_mark-4" data-name="Check mark" d="M3.222,72.032.139,68.95a.474.474,0,0,1,0-.671l.671-.671a.474.474,0,0,1,.671,0l2.076,2.076L8,65.237a.474.474,0,0,1,.671,0l.671.671a.474.474,0,0,1,0,.671l-5.45,5.453a.474.474,0,0,1-.671,0Z" transform="translate(1111.758 147.865)" fill="#fff"/>
    </g>
    <path id="Path_244" data-name="Path 244" d="M2.45-5.7v1.85H5.69v1.3H2.45V0H.83V-7H6.12v1.3Zm9.94.32V0H10.91V-.64a2.069,2.069,0,0,1-.74.535A2.328,2.328,0,0,1,9.24.08,2.291,2.291,0,0,1,7.56-.53a2.432,2.432,0,0,1-.62-1.81V-5.38H8.5v2.81q0,1.3,1.09,1.3a1.172,1.172,0,0,0,.9-.365,1.54,1.54,0,0,0,.34-1.085V-5.38Zm1.45-2.04H15.4V0H13.84Zm3.01,0h1.56V0H16.85ZM25-2.11l-.75.74V0H22.69V-7.42h1.56v4.2l2.28-2.16h1.86L26.15-3.1,28.59,0H26.7ZM31.62.08A3.226,3.226,0,0,1,30.1-.275a2.639,2.639,0,0,1-1.06-.985,2.714,2.714,0,0,1-.38-1.43,2.714,2.714,0,0,1,.38-1.43,2.639,2.639,0,0,1,1.06-.985,3.226,3.226,0,0,1,1.52-.355,3.2,3.2,0,0,1,1.52.355,2.647,2.647,0,0,1,1.05.985,2.714,2.714,0,0,1,.38,1.43,2.714,2.714,0,0,1-.38,1.43,2.647,2.647,0,0,1-1.05.985A3.2,3.2,0,0,1,31.62.08Zm0-1.28a1.3,1.3,0,0,0,.985-.405A1.51,1.51,0,0,0,32.99-2.69a1.51,1.51,0,0,0-.39-1.085,1.3,1.3,0,0,0-.985-.4,1.315,1.315,0,0,0-.99.405,1.5,1.5,0,0,0-.39,1.085,1.5,1.5,0,0,0,.39,1.085,1.315,1.315,0,0,0,1,.405Zm7.26-4.26a2.214,2.214,0,0,1,1.615.6,2.379,2.379,0,0,1,.615,1.78V0H39.55V-2.84a1.4,1.4,0,0,0-.28-.955,1.027,1.027,0,0,0-.81-.315,1.241,1.241,0,0,0-.94.365,1.511,1.511,0,0,0-.35,1.085V0H35.61V-5.38H37.1v.63a2.069,2.069,0,0,1,.77-.525,2.683,2.683,0,0,1,1.01-.185Zm7.11,5.2a1.6,1.6,0,0,1-.565.255,2.857,2.857,0,0,1-.7.085A2.094,2.094,0,0,1,43.24-.41a1.875,1.875,0,0,1-.525-1.44V-4.06h-.83v-1.2h.83V-6.57h1.56v1.31h1.34v1.2H44.27v2.19a.734.734,0,0,0,.175.525.649.649,0,0,0,.495.185,1,1,0,0,0,.63-.2Zm2.37-4.41a1.735,1.735,0,0,1,.755-.59,2.8,2.8,0,0,1,1.1-.2v1.44q-.26-.02-.35-.02a1.43,1.43,0,0,0-1.05.375,1.516,1.516,0,0,0-.38,1.125V0H46.87V-5.38h1.49ZM53.65.08a3.226,3.226,0,0,1-1.525-.355A2.639,2.639,0,0,1,51.07-1.26a2.714,2.714,0,0,1-.38-1.43,2.714,2.714,0,0,1,.38-1.43,2.639,2.639,0,0,1,1.055-.985A3.226,3.226,0,0,1,53.65-5.46a3.2,3.2,0,0,1,1.52.355,2.647,2.647,0,0,1,1.05.985,2.714,2.714,0,0,1,.38,1.43,2.714,2.714,0,0,1-.38,1.43,2.647,2.647,0,0,1-1.05.985A3.2,3.2,0,0,1,53.65.08Zm0-1.28a1.3,1.3,0,0,0,.985-.405A1.51,1.51,0,0,0,55.02-2.69a1.51,1.51,0,0,0-.385-1.085,1.3,1.3,0,0,0-.985-.405,1.315,1.315,0,0,0-.99.4,1.5,1.5,0,0,0-.39,1.085,1.5,1.5,0,0,0,.39,1.085,1.315,1.315,0,0,0,.99.405Zm3.99-6.22H59.2V0H57.64Zm3.01,0h1.56V0H60.65Zm8.4,7.5a3.226,3.226,0,0,1-1.525-.355A2.639,2.639,0,0,1,66.47-1.26a2.714,2.714,0,0,1-.38-1.43,2.714,2.714,0,0,1,.38-1.43A2.639,2.639,0,0,1,67.525-5.1,3.226,3.226,0,0,1,69.05-5.46a3.2,3.2,0,0,1,1.52.355,2.647,2.647,0,0,1,1.05.985A2.714,2.714,0,0,1,72-2.69a2.714,2.714,0,0,1-.38,1.43,2.647,2.647,0,0,1-1.05.985A3.2,3.2,0,0,1,69.05.08Zm0-1.28a1.3,1.3,0,0,0,.985-.405A1.51,1.51,0,0,0,70.42-2.69a1.51,1.51,0,0,0-.385-1.085,1.3,1.3,0,0,0-.985-.405,1.315,1.315,0,0,0-.99.405,1.5,1.5,0,0,0-.39,1.085,1.5,1.5,0,0,0,.39,1.085,1.315,1.315,0,0,0,.99.4ZM68.02-6.12a.688.688,0,0,1-.5-.2.662.662,0,0,1-.2-.495.662.662,0,0,1,.2-.495.688.688,0,0,1,.5-.2.671.671,0,0,1,.5.2.671.671,0,0,1,.195.495.671.671,0,0,1-.195.5.671.671,0,0,1-.5.2Zm2.02,0a.671.671,0,0,1-.5-.2.671.671,0,0,1-.195-.5.671.671,0,0,1,.195-.5.671.671,0,0,1,.5-.2.688.688,0,0,1,.5.2.662.662,0,0,1,.2.495.662.662,0,0,1-.2.495.688.688,0,0,1-.5.2Zm8.19.74L75.96,0H74.35L72.09-5.38H73.7l1.49,3.66,1.54-3.66Zm5.76,2.71q0,.03-.03.42H79.89a1.268,1.268,0,0,0,.52.79,1.722,1.722,0,0,0,1.02.29,2.065,2.065,0,0,0,.745-.125,1.8,1.8,0,0,0,.6-.4l.83.9a2.789,2.789,0,0,1-2.22.87,3.512,3.512,0,0,1-1.61-.355A2.6,2.6,0,0,1,78.7-1.26a2.714,2.714,0,0,1-.38-1.43,2.749,2.749,0,0,1,.375-1.425,2.627,2.627,0,0,1,1.03-.99A3.024,3.024,0,0,1,81.19-5.46a3,3,0,0,1,1.43.34,2.482,2.482,0,0,1,1,.975,2.907,2.907,0,0,1,.37,1.475ZM81.2-4.28a1.343,1.343,0,0,0-.89.3,1.277,1.277,0,0,0-.44.82h2.65a1.29,1.29,0,0,0-.44-.815,1.315,1.315,0,0,0-.88-.3Zm5.32-.39a1.735,1.735,0,0,1,.755-.59,2.8,2.8,0,0,1,1.1-.2v1.44q-.26-.02-.35-.02a1.43,1.43,0,0,0-1.05.375A1.516,1.516,0,0,0,86.6-2.54V0H85.03V-5.38h1.49ZM95.64-.26A1.6,1.6,0,0,1,95.075,0,2.857,2.857,0,0,1,94.37.08a2.094,2.094,0,0,1-1.485-.49,1.875,1.875,0,0,1-.525-1.44V-4.06h-.83v-1.2h.83V-6.57h1.56v1.31h1.34v1.2H93.92v2.19a.734.734,0,0,0,.175.525.649.649,0,0,0,.5.185,1,1,0,0,0,.63-.2Zm5.98-2.41q0,.03-.03.42H97.52a1.268,1.268,0,0,0,.52.79,1.722,1.722,0,0,0,1.02.29,2.065,2.065,0,0,0,.745-.125,1.8,1.8,0,0,0,.6-.4l.83.9a2.789,2.789,0,0,1-2.22.87A3.512,3.512,0,0,1,97.4-.275a2.6,2.6,0,0,1-1.08-.985,2.714,2.714,0,0,1-.38-1.43,2.749,2.749,0,0,1,.375-1.425,2.627,2.627,0,0,1,1.03-.99,3.024,3.024,0,0,1,1.47-.355,3,3,0,0,1,1.43.34,2.482,2.482,0,0,1,1,.975,2.907,2.907,0,0,1,.37,1.475ZM98.83-4.28a1.343,1.343,0,0,0-.89.3,1.277,1.277,0,0,0-.44.82h2.65a1.29,1.29,0,0,0-.44-.815A1.315,1.315,0,0,0,98.83-4.28Zm6.14,2.17-.75.74V0h-1.56V-7.42h1.56v4.2l2.28-2.16h1.86L106.12-3.1,108.56,0h-1.89Zm7.52-3.35a2.214,2.214,0,0,1,1.615.6,2.379,2.379,0,0,1,.615,1.78V0h-1.56V-2.84a1.4,1.4,0,0,0-.28-.955,1.027,1.027,0,0,0-.81-.315,1.241,1.241,0,0,0-.94.365,1.511,1.511,0,0,0-.35,1.085V0h-1.56V-5.38h1.49v.63a2.069,2.069,0,0,1,.77-.525A2.683,2.683,0,0,1,112.49-5.46Zm3.64.08h1.56V0h-1.56Zm.78-.75a.989.989,0,0,1-.7-.25.811.811,0,0,1-.27-.62.811.811,0,0,1,.27-.62.989.989,0,0,1,.7-.25,1.014,1.014,0,0,1,.7.24.77.77,0,0,1,.27.6.849.849,0,0,1-.27.645.978.978,0,0,1-.7.255Zm4.54,4.02-.75.74V0h-1.56V-7.42h1.56v4.2l2.28-2.16h1.86L122.6-3.1,125.04,0h-1.89Zm9.33-.56q0,.03-.03.42h-4.07a1.268,1.268,0,0,0,.52.79,1.722,1.722,0,0,0,1.02.29,2.065,2.065,0,0,0,.745-.125,1.8,1.8,0,0,0,.6-.395l.83.9a2.789,2.789,0,0,1-2.22.87,3.512,3.512,0,0,1-1.61-.355,2.6,2.6,0,0,1-1.08-.985,2.714,2.714,0,0,1-.38-1.43,2.749,2.749,0,0,1,.375-1.425,2.627,2.627,0,0,1,1.03-.99,3.024,3.024,0,0,1,1.465-.355,3,3,0,0,1,1.43.34,2.482,2.482,0,0,1,1.005.975,2.907,2.907,0,0,1,.365,1.475Zm-2.79-1.61a1.343,1.343,0,0,0-.89.3,1.277,1.277,0,0,0-.44.82h2.65a1.29,1.29,0,0,0-.44-.815A1.315,1.315,0,0,0,127.99-4.28Zm7.1-1.18a2.214,2.214,0,0,1,1.615.6,2.379,2.379,0,0,1,.615,1.78V0h-1.56V-2.84a1.4,1.4,0,0,0-.28-.955,1.027,1.027,0,0,0-.81-.315,1.241,1.241,0,0,0-.94.365,1.511,1.511,0,0,0-.35,1.085V0h-1.56V-5.38h1.49v.63a2.069,2.069,0,0,1,.77-.525A2.683,2.683,0,0,1,135.09-5.46Z" transform="translate(1045 325)" fill="#195f8c"/>
    <path id="Path_245" data-name="Path 245" d="M5,0H196a5,5,0,0,1,5,5V27a5,5,0,0,1-5,5H5a5,5,0,0,1-5-5V5A5,5,0,0,1,5,0Z" transform="translate(1005 339)" fill="rgba(25,95,140,0.07)"/>
    <g id="Circle-9" data-name="Circle" transform="translate(-95 139)">
      <circle id="Circle-10" data-name="Circle" cx="11.5" cy="11.5" r="11.5" transform="translate(1105 205)" fill="#32cd32"/>
      <path id="Check_mark-5" data-name="Check mark" d="M3.222,72.032.139,68.95a.474.474,0,0,1,0-.671l.671-.671a.474.474,0,0,1,.671,0l2.076,2.076L8,65.237a.474.474,0,0,1,.671,0l.671.671a.474.474,0,0,1,0,.671l-5.45,5.453a.474.474,0,0,1-.671,0Z" transform="translate(1111.758 147.865)" fill="#fff"/>
    </g>
    <path id="Path_246" data-name="Path 246" d="M7.25-7V0H5.63V-2.87H2.45V0H.83V-7H2.45v2.76H5.63V-7Zm6.82,4.33q0,.03-.03.42H9.97a1.268,1.268,0,0,0,.52.79,1.722,1.722,0,0,0,1.02.29,2.065,2.065,0,0,0,.745-.125,1.8,1.8,0,0,0,.6-.395l.83.9a2.789,2.789,0,0,1-2.22.87A3.512,3.512,0,0,1,9.86-.275,2.6,2.6,0,0,1,8.78-1.26,2.714,2.714,0,0,1,8.4-2.69a2.749,2.749,0,0,1,.375-1.425,2.627,2.627,0,0,1,1.03-.99A3.024,3.024,0,0,1,11.27-5.46a3,3,0,0,1,1.43.34,2.482,2.482,0,0,1,1.005.975A2.907,2.907,0,0,1,14.07-2.67ZM11.28-4.28a1.343,1.343,0,0,0-.89.3,1.277,1.277,0,0,0-.44.82H12.6a1.29,1.29,0,0,0-.44-.815,1.315,1.315,0,0,0-.88-.3Zm3.83-3.14h1.56V0H15.11ZM21.98-.26A1.6,1.6,0,0,1,21.415,0a2.857,2.857,0,0,1-.7.085A2.094,2.094,0,0,1,19.23-.41a1.875,1.875,0,0,1-.53-1.44V-4.06h-.83v-1.2h.83V-6.57h1.56v1.31H21.6v1.2H20.26v2.19a.734.734,0,0,0,.175.525.649.649,0,0,0,.495.185,1,1,0,0,0,.63-.2ZM27.5.08a5.226,5.226,0,0,1-1.31-.165A3.423,3.423,0,0,1,25.17-.5l.52-1.12a3.273,3.273,0,0,0,.87.375,3.646,3.646,0,0,0,1,.145q.99,0,.99-.49a.347.347,0,0,0-.27-.33,4,4,0,0,0-.83-.17,8.007,8.007,0,0,1-1.09-.23,1.691,1.691,0,0,1-.745-.46,1.308,1.308,0,0,1-.315-.94,1.472,1.472,0,0,1,.3-.9,1.9,1.9,0,0,1,.86-.615,3.673,3.673,0,0,1,1.335-.22,5.239,5.239,0,0,1,1.135.125,3.173,3.173,0,0,1,.935.345l-.52,1.11a3.1,3.1,0,0,0-1.55-.4,1.577,1.577,0,0,0-.75.14.412.412,0,0,0-.25.36.357.357,0,0,0,.27.35,4.78,4.78,0,0,0,.86.19A9.206,9.206,0,0,1,29-3.005a1.622,1.622,0,0,1,.73.455,1.291,1.291,0,0,1,.31.92,1.421,1.421,0,0,1-.3.89,1.915,1.915,0,0,1-.875.605A3.9,3.9,0,0,1,27.5.08Zm8.74-5.46L33.97,0H32.36L30.1-5.38h1.61L33.2-1.72l1.54-3.66ZM42-2.67q0,.03-.03.42H37.9a1.268,1.268,0,0,0,.52.79,1.722,1.722,0,0,0,1.02.29,2.065,2.065,0,0,0,.745-.125,1.8,1.8,0,0,0,.6-.395l.83.9A2.789,2.789,0,0,1,39.4.08a3.512,3.512,0,0,1-1.61-.355,2.6,2.6,0,0,1-1.08-.985,2.714,2.714,0,0,1-.38-1.43,2.749,2.749,0,0,1,.37-1.425,2.627,2.627,0,0,1,1.03-.99A3.024,3.024,0,0,1,39.2-5.46a3,3,0,0,1,1.43.34,2.482,2.482,0,0,1,1,.975A2.907,2.907,0,0,1,42-2.67ZM39.21-4.28a1.343,1.343,0,0,0-.89.3,1.277,1.277,0,0,0-.44.82h2.65a1.29,1.29,0,0,0-.44-.815A1.315,1.315,0,0,0,39.21-4.28Zm7.1-1.18a2.214,2.214,0,0,1,1.615.6,2.379,2.379,0,0,1,.615,1.78V0H46.98V-2.84a1.4,1.4,0,0,0-.28-.96,1.027,1.027,0,0,0-.81-.315,1.241,1.241,0,0,0-.94.365,1.511,1.511,0,0,0-.35,1.09V0H43.04V-5.38h1.49v.63a2.069,2.069,0,0,1,.77-.525A2.683,2.683,0,0,1,46.31-5.46ZM51.76.08a5.226,5.226,0,0,1-1.31-.165A3.423,3.423,0,0,1,49.43-.5l.52-1.12a3.273,3.273,0,0,0,.87.375,3.646,3.646,0,0,0,1,.145q.99,0,.99-.49a.347.347,0,0,0-.27-.33,4,4,0,0,0-.83-.17,8.007,8.007,0,0,1-1.09-.23,1.691,1.691,0,0,1-.745-.46,1.308,1.308,0,0,1-.315-.94,1.472,1.472,0,0,1,.295-.9,1.9,1.9,0,0,1,.86-.615,3.673,3.673,0,0,1,1.335-.22,5.239,5.239,0,0,1,1.135.125,3.173,3.173,0,0,1,.935.345l-.52,1.1a3.1,3.1,0,0,0-1.55-.4,1.577,1.577,0,0,0-.75.14.412.412,0,0,0-.25.36.357.357,0,0,0,.27.35,4.78,4.78,0,0,0,.86.19A9.206,9.206,0,0,1,53.26-3a1.622,1.622,0,0,1,.73.455,1.291,1.291,0,0,1,.31.92,1.421,1.421,0,0,1-.3.89,1.915,1.915,0,0,1-.875.605A3.9,3.9,0,0,1,51.76.08Zm5.81-2.19-.75.74V0H55.26V-7.42h1.56v4.2L59.1-5.38h1.86L58.72-3.1,61.16,0H59.27ZM65.33-.26A1.6,1.6,0,0,1,64.765,0,2.857,2.857,0,0,1,64.06.08a2.094,2.094,0,0,1-1.485-.49,1.875,1.875,0,0,1-.525-1.44V-4.06h-.83v-1.2h.83V-6.57h1.56v1.31h1.34v1.2H63.61v2.19a.734.734,0,0,0,.175.525.649.649,0,0,0,.495.185,1,1,0,0,0,.63-.2Zm5.88-5.2a2.8,2.8,0,0,1,1.92.6,2.277,2.277,0,0,1,.67,1.79V0H72.34V-.67A1.738,1.738,0,0,1,70.7.08a2.545,2.545,0,0,1-1.075-.21,1.6,1.6,0,0,1-.695-.58,1.51,1.51,0,0,1-.24-.84,1.4,1.4,0,0,1,.565-1.18A2.879,2.879,0,0,1,71-3.16h1.24a.994.994,0,0,0-.31-.785A1.365,1.365,0,0,0,71-4.22a2.714,2.714,0,0,0-.845.135,2.236,2.236,0,0,0-.705.365l-.56-1.09a3.379,3.379,0,0,1,1.055-.48,4.726,4.726,0,0,1,1.265-.17ZM71.09-.97a1.359,1.359,0,0,0,.71-.185,1.012,1.012,0,0,0,.44-.545v-.55H71.17q-.96,0-.96.63a.561.561,0,0,0,.235.475,1.059,1.059,0,0,0,.645.175Zm-.73-5.15a.688.688,0,0,1-.5-.2.662.662,0,0,1-.2-.495.662.662,0,0,1,.2-.495.688.688,0,0,1,.5-.2.671.671,0,0,1,.5.2.671.671,0,0,1,.2.5.671.671,0,0,1-.195.495.671.671,0,0,1-.5.2Zm2.02,0a.671.671,0,0,1-.495-.2.671.671,0,0,1-.2-.495.671.671,0,0,1,.2-.495.671.671,0,0,1,.495-.2.688.688,0,0,1,.5.2.662.662,0,0,1,.2.495.662.662,0,0,1-.2.495.688.688,0,0,1-.5.2Zm8.44.74V-.9a2.875,2.875,0,0,1-.77,2.2,3.179,3.179,0,0,1-2.25.72,5.627,5.627,0,0,1-1.48-.19,3.236,3.236,0,0,1-1.16-.55L75.78.16a2.552,2.552,0,0,0,.86.445A3.422,3.422,0,0,0,77.68.77,1.687,1.687,0,0,0,78.875.4,1.455,1.455,0,0,0,79.26-.7V-.93a2.183,2.183,0,0,1-1.7.67,2.855,2.855,0,0,1-1.355-.325A2.477,2.477,0,0,1,75.23-1.5a2.558,2.558,0,0,1-.36-1.36,2.558,2.558,0,0,1,.36-1.36,2.477,2.477,0,0,1,.975-.915A2.855,2.855,0,0,1,77.56-5.46a2.135,2.135,0,0,1,1.78.77v-.69ZM77.87-1.54A1.437,1.437,0,0,0,78.885-1.9a1.24,1.24,0,0,0,.4-.955,1.24,1.24,0,0,0-.4-.955A1.437,1.437,0,0,0,77.87-4.18a1.455,1.455,0,0,0-1.02.365,1.232,1.232,0,0,0-.4.955,1.232,1.232,0,0,0,.4.955,1.455,1.455,0,0,0,1.02.365Zm6.57-3.92a2.8,2.8,0,0,1,1.92.6,2.277,2.277,0,0,1,.67,1.795V0H85.57V-.67a1.738,1.738,0,0,1-1.64.75,2.545,2.545,0,0,1-1.075-.21,1.6,1.6,0,0,1-.695-.58,1.51,1.51,0,0,1-.24-.84,1.4,1.4,0,0,1,.565-1.18,2.879,2.879,0,0,1,1.745-.43h1.24a.994.994,0,0,0-.31-.785,1.365,1.365,0,0,0-.93-.275,2.714,2.714,0,0,0-.845.135,2.236,2.236,0,0,0-.705.365l-.56-1.09a3.379,3.379,0,0,1,1.055-.48A4.726,4.726,0,0,1,84.44-5.46ZM84.32-.97a1.359,1.359,0,0,0,.71-.185,1.012,1.012,0,0,0,.44-.545v-.55H84.4q-.96,0-.96.63a.561.561,0,0,0,.235.475,1.059,1.059,0,0,0,.645.175Zm7.39-4.49a2.214,2.214,0,0,1,1.615.6,2.379,2.379,0,0,1,.615,1.78V0H92.38V-2.84a1.4,1.4,0,0,0-.28-.96,1.027,1.027,0,0,0-.81-.315,1.241,1.241,0,0,0-.94.365A1.511,1.511,0,0,0,90-2.66V0H88.44V-5.38h1.49v.63a2.069,2.069,0,0,1,.77-.525,2.683,2.683,0,0,1,1.01-.185Zm9.18-1.96V0H99.4V-.62a2.057,2.057,0,0,1-1.68.7,2.794,2.794,0,0,1-1.375-.34,2.434,2.434,0,0,1-.965-.97,2.957,2.957,0,0,1-.35-1.46,2.957,2.957,0,0,1,.35-1.46,2.434,2.434,0,0,1,.965-.97,2.794,2.794,0,0,1,1.375-.34,2.046,2.046,0,0,1,1.61.65V-7.42ZM97.99-1.2a1.3,1.3,0,0,0,.98-.4,1.5,1.5,0,0,0,.39-1.085,1.5,1.5,0,0,0-.39-1.085,1.3,1.3,0,0,0-.98-.405,1.315,1.315,0,0,0-.99.405,1.5,1.5,0,0,0-.39,1.085A1.5,1.5,0,0,0,97-1.6a1.315,1.315,0,0,0,.99.405Zm9.61-1.47q0,.03-.03.42H103.5a1.268,1.268,0,0,0,.52.79,1.722,1.722,0,0,0,1.02.29,2.065,2.065,0,0,0,.745-.125,1.8,1.8,0,0,0,.6-.4l.83.9A2.789,2.789,0,0,1,105,.08a3.512,3.512,0,0,1-1.61-.355,2.6,2.6,0,0,1-1.08-.985,2.714,2.714,0,0,1-.38-1.43,2.749,2.749,0,0,1,.375-1.425,2.627,2.627,0,0,1,1.03-.99A3.024,3.024,0,0,1,104.8-5.46a3,3,0,0,1,1.43.34,2.482,2.482,0,0,1,1,.975,2.907,2.907,0,0,1,.37,1.475Zm-2.79-1.61a1.343,1.343,0,0,0-.89.3,1.277,1.277,0,0,0-.44.82h2.65a1.29,1.29,0,0,0-.44-.815,1.315,1.315,0,0,0-.88-.305Z" transform="translate(1045 359)" fill="#195f8c"/>
    <path id="Circle-11" data-name="Circle" d="M12,0A12,12,0,1,1,0,12,12,12,0,0,1,12,0Z" transform="translate(1094 118)" fill="#32cd32"/>
    <path id="Check_mark-6" data-name="Check mark" d="M3.222,72.032.139,68.95a.474.474,0,0,1,0-.671l.671-.671a.474.474,0,0,1,.671,0l2.076,2.076L8,65.237a.474.474,0,0,1,.671,0l.671.671a.474.474,0,0,1,0,.671l-5.45,5.453a.474.474,0,0,1-.671,0Z" transform="translate(1101.258 61.365)" fill="#fff"/>
    <path id="Path_211" data-name="Path 211" d="M20,0,0,40" transform="translate(844 273.5)" fill="none" stroke="#32cd32" stroke-linecap="round" stroke-width="2"/>
    <path id="Path_212" data-name="Path 212" d="M21,0,0,25" transform="translate(759 273.5)" fill="none" stroke="#32cd32" stroke-linecap="round" stroke-width="2"/>
    <path id="Path_213" data-name="Path 213" d="M24,0,0,43" transform="translate(735 313.5)" fill="none" stroke="#32cd32" stroke-linecap="round" stroke-width="2"/>
    <path id="Path_214" data-name="Path 214" d="M0,0,11,43" transform="translate(759 313.5)" fill="none" stroke="#32cd32" stroke-linecap="round" stroke-width="2"/>
    <path id="Path_215" data-name="Path 215" d="M0,0,23,43" transform="translate(887 313.5)" fill="none" stroke="#32cd32" stroke-linecap="round" stroke-width="2"/>
    <path id="Path_216" data-name="Path 216" d="M12,0,0,43" transform="translate(875 313.5)" fill="none" stroke="#fd4343" stroke-linecap="round" stroke-width="2"/>
    <path id="Path_217" data-name="Path 217" d="M4,0,0,43" transform="translate(840 313.5)" fill="none" stroke="#32cd32" stroke-linecap="round" stroke-width="2"/>
    <g id="Path_218" data-name="Path 218" transform="translate(808 210.5)">
      <path id="Path_261" data-name="Path 261" d="M8,0H22a8,8,0,0,1,8,8V22a8,8,0,0,1-8,8H8a8,8,0,0,1-8-8V8A8,8,0,0,1,8,0Z" fill="#32cd32"/>
      <path id="Path_262" data-name="Path 262" d="M15,0h2a1,1,0,0,1,0,2H15a1,1,0,0,1,0-2Zm7,0h.59l.025,0h.007l.026,0h.006l.032,0,.032,0h0a7.976,7.976,0,0,1,1.162.19h0l.03.007.006,0h0l.023.006.006,0h0l.022.006.006,0,.006,0a1,1,0,0,1-.494,1.938A6.029,6.029,0,0,0,22,2a1,1,0,0,1,0-2Zm5.372,2.513a1,1,0,0,1,.768.358h0l0,.005h0l.01.012h0l0,.005h0l0,.006h0l0,.006h0l0,.006h0l0,0h0l.009.011h0l0,0h0l0,0h0l0,.006h0l0,0,0,0,0,0v0l0,.005,0,0,0,0,0,0,0,0,0,0,0,0v0l0,0,0,.005,0,0,0,0,0,0,0,0,0,.005,0,0,0,0,0,0,0,0,0,.006,0,.005v0l0,0h0l.01.012h0l0,0h0l.01.013h0l0,0h0l.014.018h0l.014.019h0a8,8,0,0,1,.778,1.224h0l0,.005h0l.008.015h0l0,0h0l.007.015h0l0,0v0l0,0v0l0,.008h0l0,0v0l0,0v0l0,0,0,.005,0,0,0,0,0,0,0,0v0l0,0v0l0,0v0l0,0v0l0,0h0l0,.006v0l0,0v0l0,.005h0l0,.007h0l0,.006h0l0,.006h0l.007.014h0l0,.007h0l.007.014a1,1,0,1,1-1.8.864,6.011,6.011,0,0,0-.81-1.258,1,1,0,0,1,.767-1.641ZM29,8.432a1,1,0,0,1,1,1v2a1,1,0,0,1-2,0v-2A1,1,0,0,1,29,8.432Zm0,7a1,1,0,0,1,1,1v2a1,1,0,1,1-2,0v-2A1,1,0,0,1,29,15.432Zm-.112,6.816a1,1,0,0,1,.986,1.176v0h0l0,.024h0v.006h0l0,.024h0l-.006.03h0l-.011.055h0l-.006.03h0q-.041.2-.092.4h0a7.938,7.938,0,0,1-.472,1.331,1,1,0,0,1-1.817-.836,5.95,5.95,0,0,0,.446-1.424A1,1,0,0,1,28.888,22.248Zm-3.43,4.839a1,1,0,0,1,.5,1.869,7.951,7.951,0,0,1-1.843.762,1,1,0,1,1-.526-1.929,5.958,5.958,0,0,0,1.38-.571A1,1,0,0,1,25.458,27.087ZM17.136,28h2a1,1,0,1,1,0,2h-2a1,1,0,0,1,0-2Zm-7,0h2a1,1,0,1,1,0,2h-2a1,1,0,0,1,0-2ZM4,26.747a1,1,0,0,1,.571.18,5.983,5.983,0,0,0,1.323.7A1,1,0,0,1,5.2,29.5l-.006,0-.007,0-.01,0-.007,0-.007,0-.008,0-.008,0-.007,0-.007,0-.009,0-.007,0-.007,0-.009,0-.007,0-.007,0-.007,0-.008,0-.007,0-.007,0-.008,0-.007,0-.007,0-.008,0h0l-.008,0-.007,0L5,29.42l-.008,0-.008,0-.007,0-.014-.006-.007,0-.008,0h0l-.008,0-.007,0-.007,0-.014-.006-.007,0h0l-.021-.009h0l-.021-.009h0l-.007,0h0l-.014-.006h0l-.007,0h0l-.021-.009h0l-.028-.012h0l-.021-.009h0l-.007,0h0l-.021-.01h0a7.982,7.982,0,0,1-1.082-.588h0l-.019-.013h0l-.006,0h0l-.019-.012h0l-.006,0h0l-.013-.008h0l-.005,0h0l-.012-.008h0l-.006,0h0l-.005,0h0l-.012-.008h0l0,0h0l-.005,0h0l-.006,0h0l0,0-.006,0h0l-.006,0h0l0,0-.006,0,0,0,0,0h0l-.005,0-.006,0-.006,0,0,0,0,0-.006,0-.006,0-.006,0-.006,0-.005,0,0,0A1,1,0,0,1,4,26.747ZM1.028,21.616a1,1,0,0,1,1,.913,5.97,5.97,0,0,0,.314,1.46,1,1,0,1,1-1.887.663,7.945,7.945,0,0,1-.353-1.4h0v-.007h0l0-.023h0v-.007h0l0-.015h0v-.007h0v-.006h0l0-.015h0v-.022h0V23.03l0-.017h0v-.005h0V23h0l0-.024h0Q.042,22.838.03,22.7a1,1,0,0,1,.91-1.08Q.984,21.616,1.028,21.616ZM1,14.7a1,1,0,0,1,1,1v2a1,1,0,0,1-2,0v-2A1,1,0,0,1,1,14.7Zm0-7a1,1,0,0,1,1,1v2a1,1,0,0,1-2,0v-2A1,1,0,0,1,1,7.7ZM3.058,2.042a1,1,0,0,1,.706,1.708,6.036,6.036,0,0,0-.922,1.181A1,1,0,0,1,1.124,3.909a8.032,8.032,0,0,1,1.23-1.577A1,1,0,0,1,3.058,2.042ZM8,0h2a1,1,0,0,1,0,2H8a6.082,6.082,0,0,0-.952.075A1,1,0,1,1,6.734.1,8.035,8.035,0,0,1,7.668.007H8Z" fill="#fd4343"/>
    </g>
    <g id="Path_219" data-name="Path 219" transform="translate(744 298.5)">
      <path id="Path_263" data-name="Path 263" d="M22,28.5H8A6.507,6.507,0,0,1,1.5,22V8A6.507,6.507,0,0,1,8,1.5H22A6.507,6.507,0,0,1,28.5,8V22A6.507,6.507,0,0,1,22,28.5Z" fill="#32cd32"/>
      <path id="Path_264" data-name="Path 264" d="M8,3A5.006,5.006,0,0,0,3,8V22a5.006,5.006,0,0,0,5,5H22a5.006,5.006,0,0,0,5-5V8a5.006,5.006,0,0,0-5-5H8M8,0H22a8,8,0,0,1,8,8V22a8,8,0,0,1-8,8H8a8,8,0,0,1-8-8V8A8,8,0,0,1,8,0Z" fill="#32cd32"/>
    </g>
    <g id="Path_220" data-name="Path 220" transform="translate(765 254.5)">
      <path id="Path_265" data-name="Path 265" d="M8,0H22a8,8,0,0,1,8,8V22a8,8,0,0,1-8,8H8a8,8,0,0,1-8-8V8A8,8,0,0,1,8,0Z" fill="#32cd32"/>
      <path id="Path_266" data-name="Path 266" d="M15,0h2a1,1,0,0,1,0,2H15a1,1,0,0,1,0-2Zm7,0h.59l.025,0h.007l.026,0h.006l.032,0,.032,0h0a7.976,7.976,0,0,1,1.162.19h0l.03.007.006,0h0l.023.006.006,0h0l.022.006.006,0,.006,0a1,1,0,0,1-.494,1.938A6.029,6.029,0,0,0,22,2a1,1,0,0,1,0-2Zm5.372,2.513a1,1,0,0,1,.768.358h0l0,.005h0l.01.012h0l0,.005h0l0,.006h0l0,.006h0l0,.006h0l0,0h0l.009.011h0l0,0h0l0,0h0l0,.006h0l0,0,0,0,0,0v0l0,.005,0,0,0,0,0,0,0,0,0,0,0,0v0l0,0,0,.005,0,0,0,0,0,0,0,0,0,.005,0,0,0,0,0,0,0,0,0,.006,0,.005v0l0,0h0l.01.012h0l0,0h0l.01.013h0l0,0h0l.014.018h0l.014.019h0a8,8,0,0,1,.778,1.224h0l0,.005h0l.008.015h0l0,0h0l.007.015h0l0,0v0l0,0v0l0,.008h0l0,0v0l0,0v0l0,0,0,.005,0,0,0,0,0,0,0,0v0l0,0v0l0,0v0l0,0v0l0,0h0l0,.006v0l0,0v0l0,.005h0l0,.007h0l0,.006h0l0,.006h0l.007.014h0l0,.007h0l.007.014a1,1,0,1,1-1.8.864,6.011,6.011,0,0,0-.81-1.258,1,1,0,0,1,.767-1.641ZM29,8.432a1,1,0,0,1,1,1v2a1,1,0,0,1-2,0v-2A1,1,0,0,1,29,8.432Zm0,7a1,1,0,0,1,1,1v2a1,1,0,1,1-2,0v-2A1,1,0,0,1,29,15.432Zm-.112,6.816a1,1,0,0,1,.986,1.176v0h0l0,.024h0v.006h0l0,.024h0l-.006.03h0l-.011.055h0l-.006.03h0q-.041.2-.092.4h0a7.938,7.938,0,0,1-.472,1.331,1,1,0,0,1-1.817-.836,5.95,5.95,0,0,0,.446-1.424A1,1,0,0,1,28.888,22.248Zm-3.43,4.839a1,1,0,0,1,.5,1.869,7.951,7.951,0,0,1-1.843.762,1,1,0,1,1-.526-1.929,5.958,5.958,0,0,0,1.38-.571A1,1,0,0,1,25.458,27.087ZM17.136,28h2a1,1,0,1,1,0,2h-2a1,1,0,0,1,0-2Zm-7,0h2a1,1,0,1,1,0,2h-2a1,1,0,0,1,0-2ZM4,26.747a1,1,0,0,1,.571.18,5.983,5.983,0,0,0,1.323.7A1,1,0,0,1,5.2,29.5l-.006,0-.007,0-.01,0-.007,0-.007,0-.008,0-.008,0-.007,0-.007,0-.009,0-.007,0-.007,0-.009,0-.007,0-.007,0-.007,0-.008,0-.007,0-.007,0-.008,0-.007,0-.007,0-.008,0h0l-.008,0-.007,0L5,29.42l-.008,0-.008,0-.007,0-.014-.006-.007,0-.008,0h0l-.008,0-.007,0-.007,0-.014-.006-.007,0h0l-.021-.009h0l-.021-.009h0l-.007,0h0l-.014-.006h0l-.007,0h0l-.021-.009h0l-.028-.012h0l-.021-.009h0l-.007,0h0l-.021-.01h0a7.982,7.982,0,0,1-1.082-.588h0l-.019-.013h0l-.006,0h0l-.019-.012h0l-.006,0h0l-.013-.008h0l-.005,0h0l-.012-.008h0l-.006,0h0l-.005,0h0l-.012-.008h0l0,0h0l-.005,0h0l-.006,0h0l0,0-.006,0h0l-.006,0h0l0,0-.006,0,0,0,0,0h0l-.005,0-.006,0-.006,0,0,0,0,0-.006,0-.006,0-.006,0-.006,0-.005,0,0,0A1,1,0,0,1,4,26.747ZM1.028,21.616a1,1,0,0,1,1,.913,5.97,5.97,0,0,0,.314,1.46,1,1,0,1,1-1.887.663,7.945,7.945,0,0,1-.353-1.4h0v-.007h0l0-.023h0v-.007h0l0-.015h0v-.007h0v-.006h0l0-.015h0v-.022h0V23.03l0-.017h0v-.005h0V23h0l0-.024h0Q.042,22.838.03,22.7a1,1,0,0,1,.91-1.08Q.984,21.616,1.028,21.616ZM1,14.7a1,1,0,0,1,1,1v2a1,1,0,0,1-2,0v-2A1,1,0,0,1,1,14.7Zm0-7a1,1,0,0,1,1,1v2a1,1,0,0,1-2,0v-2A1,1,0,0,1,1,7.7ZM3.058,2.042a1,1,0,0,1,.706,1.708,6.036,6.036,0,0,0-.922,1.181A1,1,0,0,1,1.124,3.909a8.032,8.032,0,0,1,1.23-1.577A1,1,0,0,1,3.058,2.042ZM8,0h2a1,1,0,0,1,0,2H8a6.082,6.082,0,0,0-.952.075A1,1,0,1,1,6.734.1,8.035,8.035,0,0,1,7.668.007H8Z" fill="#fd4343"/>
    </g>
    <g id="Path_221" data-name="Path 221" transform="translate(720 341.5)">
      <path id="Path_267" data-name="Path 267" d="M22,28.5H8A6.507,6.507,0,0,1,1.5,22V8A6.507,6.507,0,0,1,8,1.5H22A6.507,6.507,0,0,1,28.5,8V22A6.507,6.507,0,0,1,22,28.5Z" fill="#32cd32"/>
      <path id="Path_268" data-name="Path 268" d="M8,3A5.006,5.006,0,0,0,3,8V22a5.006,5.006,0,0,0,5,5H22a5.006,5.006,0,0,0,5-5V8a5.006,5.006,0,0,0-5-5H8M8,0H22a8,8,0,0,1,8,8V22a8,8,0,0,1-8,8H8a8,8,0,0,1-8-8V8A8,8,0,0,1,8,0Z" fill="#32cd32"/>
    </g>
    <g id="Path_222" data-name="Path 222" transform="translate(787 298.5)">
      <path id="Path_269" data-name="Path 269" d="M8,0H22a8,8,0,0,1,8,8V22a8,8,0,0,1-8,8H8a8,8,0,0,1-8-8V8A8,8,0,0,1,8,0Z" fill="#32cd32"/>
      <path id="Path_270" data-name="Path 270" d="M15,0h2a1,1,0,0,1,0,2H15a1,1,0,0,1,0-2Zm7,0h.59l.025,0h.007l.026,0h.006l.032,0,.032,0h0a7.976,7.976,0,0,1,1.162.19h0l.03.007.006,0h0l.023.006.006,0h0l.022.006.006,0,.006,0a1,1,0,0,1-.494,1.938A6.029,6.029,0,0,0,22,2a1,1,0,0,1,0-2Zm5.372,2.513a1,1,0,0,1,.768.358h0l0,.005h0l.01.012h0l0,.005h0l0,.006h0l0,.006h0l0,.006h0l0,0h0l.009.011h0l0,0h0l0,0h0l0,.006h0l0,0,0,0,0,0v0l0,.005,0,0,0,0,0,0,0,0,0,0,0,0v0l0,0,0,.005,0,0,0,0,0,0,0,0,0,.005,0,0,0,0,0,0,0,0,0,.006,0,.005v0l0,0h0l.01.012h0l0,0h0l.01.013h0l0,0h0l.014.018h0l.014.019h0a8,8,0,0,1,.778,1.224h0l0,.005h0l.008.015h0l0,0h0l.007.015h0l0,0v0l0,0v0l0,.008h0l0,0v0l0,0v0l0,0,0,.005,0,0,0,0,0,0,0,0v0l0,0v0l0,0v0l0,0v0l0,0h0l0,.006v0l0,0v0l0,.005h0l0,.007h0l0,.006h0l0,.006h0l.007.014h0l0,.007h0l.007.014a1,1,0,1,1-1.8.864,6.011,6.011,0,0,0-.81-1.258,1,1,0,0,1,.767-1.641ZM29,8.432a1,1,0,0,1,1,1v2a1,1,0,0,1-2,0v-2A1,1,0,0,1,29,8.432Zm0,7a1,1,0,0,1,1,1v2a1,1,0,1,1-2,0v-2A1,1,0,0,1,29,15.432Zm-.112,6.816a1,1,0,0,1,.986,1.176v0h0l0,.024h0v.006h0l0,.024h0l-.006.03h0l-.011.055h0l-.006.03h0q-.041.2-.092.4h0a7.938,7.938,0,0,1-.472,1.331,1,1,0,0,1-1.817-.836,5.95,5.95,0,0,0,.446-1.424A1,1,0,0,1,28.888,22.248Zm-3.43,4.839a1,1,0,0,1,.5,1.869,7.951,7.951,0,0,1-1.843.762,1,1,0,1,1-.526-1.929,5.958,5.958,0,0,0,1.38-.571A1,1,0,0,1,25.458,27.087ZM17.136,28h2a1,1,0,1,1,0,2h-2a1,1,0,0,1,0-2Zm-7,0h2a1,1,0,1,1,0,2h-2a1,1,0,0,1,0-2ZM4,26.747a1,1,0,0,1,.571.18,5.983,5.983,0,0,0,1.323.7A1,1,0,0,1,5.2,29.5l-.006,0-.007,0-.01,0-.007,0-.007,0-.008,0-.008,0-.007,0-.007,0-.009,0-.007,0-.007,0-.009,0-.007,0-.007,0-.007,0-.008,0-.007,0-.007,0-.008,0-.007,0-.007,0-.008,0h0l-.008,0-.007,0L5,29.42l-.008,0-.008,0-.007,0-.014-.006-.007,0-.008,0h0l-.008,0-.007,0-.007,0-.014-.006-.007,0h0l-.021-.009h0l-.021-.009h0l-.007,0h0l-.014-.006h0l-.007,0h0l-.021-.009h0l-.028-.012h0l-.021-.009h0l-.007,0h0l-.021-.01h0a7.982,7.982,0,0,1-1.082-.588h0l-.019-.013h0l-.006,0h0l-.019-.012h0l-.006,0h0l-.013-.008h0l-.005,0h0l-.012-.008h0l-.006,0h0l-.005,0h0l-.012-.008h0l0,0h0l-.005,0h0l-.006,0h0l0,0-.006,0h0l-.006,0h0l0,0-.006,0,0,0,0,0h0l-.005,0-.006,0-.006,0,0,0,0,0-.006,0-.006,0-.006,0-.006,0-.005,0,0,0A1,1,0,0,1,4,26.747ZM1.028,21.616a1,1,0,0,1,1,.913,5.97,5.97,0,0,0,.314,1.46,1,1,0,1,1-1.887.663,7.945,7.945,0,0,1-.353-1.4h0v-.007h0l0-.023h0v-.007h0l0-.015h0v-.007h0v-.006h0l0-.015h0v-.022h0V23.03l0-.017h0v-.005h0V23h0l0-.024h0Q.042,22.838.03,22.7a1,1,0,0,1,.91-1.08Q.984,21.616,1.028,21.616ZM1,14.7a1,1,0,0,1,1,1v2a1,1,0,0,1-2,0v-2A1,1,0,0,1,1,14.7Zm0-7a1,1,0,0,1,1,1v2a1,1,0,0,1-2,0v-2A1,1,0,0,1,1,7.7ZM3.058,2.042a1,1,0,0,1,.706,1.708,6.036,6.036,0,0,0-.922,1.181A1,1,0,0,1,1.124,3.909a8.032,8.032,0,0,1,1.23-1.577A1,1,0,0,1,3.058,2.042ZM8,0h2a1,1,0,0,1,0,2H8a6.082,6.082,0,0,0-.952.075A1,1,0,1,1,6.734.1,8.035,8.035,0,0,1,7.668.007H8Z" fill="#ff4343"/>
    </g>
    <g id="Path_223" data-name="Path 223" transform="translate(849 254.5)">
      <path id="Path_271" data-name="Path 271" d="M8,0H22a8,8,0,0,1,8,8V22a8,8,0,0,1-8,8H8a8,8,0,0,1-8-8V8A8,8,0,0,1,8,0Z" fill="#32cd32"/>
      <path id="Path_272" data-name="Path 272" d="M15,0h2a1,1,0,0,1,0,2H15a1,1,0,0,1,0-2Zm7,0h.59l.025,0h.007l.026,0h.006l.032,0,.032,0h0a7.976,7.976,0,0,1,1.162.19h0l.03.007.006,0h0l.023.006.006,0h0l.022.006.006,0,.006,0a1,1,0,0,1-.494,1.938A6.029,6.029,0,0,0,22,2a1,1,0,0,1,0-2Zm5.372,2.513a1,1,0,0,1,.768.358h0l0,.005h0l.01.012h0l0,.005h0l0,.006h0l0,.006h0l0,.006h0l0,0h0l.009.011h0l0,0h0l0,0h0l0,.006h0l0,0,0,0,0,0v0l0,.005,0,0,0,0,0,0,0,0,0,0,0,0v0l0,0,0,.005,0,0,0,0,0,0,0,0,0,.005,0,0,0,0,0,0,0,0,0,.006,0,.005v0l0,0h0l.01.012h0l0,0h0l.01.013h0l0,0h0l.014.018h0l.014.019h0a8,8,0,0,1,.778,1.224h0l0,.005h0l.008.015h0l0,0h0l.007.015h0l0,0v0l0,0v0l0,.008h0l0,0v0l0,0v0l0,0,0,.005,0,0,0,0,0,0,0,0v0l0,0v0l0,0v0l0,0v0l0,0h0l0,.006v0l0,0v0l0,.005h0l0,.007h0l0,.006h0l0,.006h0l.007.014h0l0,.007h0l.007.014a1,1,0,1,1-1.8.864,6.011,6.011,0,0,0-.81-1.258,1,1,0,0,1,.767-1.641ZM29,8.432a1,1,0,0,1,1,1v2a1,1,0,0,1-2,0v-2A1,1,0,0,1,29,8.432Zm0,7a1,1,0,0,1,1,1v2a1,1,0,1,1-2,0v-2A1,1,0,0,1,29,15.432Zm-.112,6.816a1,1,0,0,1,.986,1.176v0h0l0,.024h0v.006h0l0,.024h0l-.006.03h0l-.011.055h0l-.006.03h0q-.041.2-.092.4h0a7.938,7.938,0,0,1-.472,1.331,1,1,0,0,1-1.817-.836,5.95,5.95,0,0,0,.446-1.424A1,1,0,0,1,28.888,22.248Zm-3.43,4.839a1,1,0,0,1,.5,1.869,7.951,7.951,0,0,1-1.843.762,1,1,0,1,1-.526-1.929,5.958,5.958,0,0,0,1.38-.571A1,1,0,0,1,25.458,27.087ZM17.136,28h2a1,1,0,1,1,0,2h-2a1,1,0,0,1,0-2Zm-7,0h2a1,1,0,1,1,0,2h-2a1,1,0,0,1,0-2ZM4,26.747a1,1,0,0,1,.571.18,5.983,5.983,0,0,0,1.323.7A1,1,0,0,1,5.2,29.5l-.006,0-.007,0-.01,0-.007,0-.007,0-.008,0-.008,0-.007,0-.007,0-.009,0-.007,0-.007,0-.009,0-.007,0-.007,0-.007,0-.008,0-.007,0-.007,0-.008,0-.007,0-.007,0-.008,0h0l-.008,0-.007,0L5,29.42l-.008,0-.008,0-.007,0-.014-.006-.007,0-.008,0h0l-.008,0-.007,0-.007,0-.014-.006-.007,0h0l-.021-.009h0l-.021-.009h0l-.007,0h0l-.014-.006h0l-.007,0h0l-.021-.009h0l-.028-.012h0l-.021-.009h0l-.007,0h0l-.021-.01h0a7.982,7.982,0,0,1-1.082-.588h0l-.019-.013h0l-.006,0h0l-.019-.012h0l-.006,0h0l-.013-.008h0l-.005,0h0l-.012-.008h0l-.006,0h0l-.005,0h0l-.012-.008h0l0,0h0l-.005,0h0l-.006,0h0l0,0-.006,0h0l-.006,0h0l0,0-.006,0,0,0,0,0h0l-.005,0-.006,0-.006,0,0,0,0,0-.006,0-.006,0-.006,0-.006,0-.005,0,0,0A1,1,0,0,1,4,26.747ZM1.028,21.616a1,1,0,0,1,1,.913,5.97,5.97,0,0,0,.314,1.46,1,1,0,1,1-1.887.663,7.945,7.945,0,0,1-.353-1.4h0v-.007h0l0-.023h0v-.007h0l0-.015h0v-.007h0v-.006h0l0-.015h0v-.022h0V23.03l0-.017h0v-.005h0V23h0l0-.024h0Q.042,22.838.03,22.7a1,1,0,0,1,.91-1.08Q.984,21.616,1.028,21.616ZM1,14.7a1,1,0,0,1,1,1v2a1,1,0,0,1-2,0v-2A1,1,0,0,1,1,14.7Zm0-7a1,1,0,0,1,1,1v2a1,1,0,0,1-2,0v-2A1,1,0,0,1,1,7.7ZM3.058,2.042a1,1,0,0,1,.706,1.708,6.036,6.036,0,0,0-.922,1.181A1,1,0,0,1,1.124,3.909a8.032,8.032,0,0,1,1.23-1.577A1,1,0,0,1,3.058,2.042ZM8,0h2a1,1,0,0,1,0,2H8a6.082,6.082,0,0,0-.952.075A1,1,0,1,1,6.734.1,8.035,8.035,0,0,1,7.668.007H8Z" fill="#fd4343"/>
    </g>
    <g id="Path_224" data-name="Path 224" transform="translate(872 297.5)">
      <path id="Path_273" data-name="Path 273" d="M22,28.5H8A6.507,6.507,0,0,1,1.5,22V8A6.507,6.507,0,0,1,8,1.5H22A6.507,6.507,0,0,1,28.5,8V22A6.507,6.507,0,0,1,22,28.5Z" fill="#fd4343"/>
      <path id="Path_274" data-name="Path 274" d="M8,3A5.006,5.006,0,0,0,3,8V22a5.006,5.006,0,0,0,5,5H22a5.006,5.006,0,0,0,5-5V8a5.006,5.006,0,0,0-5-5H8M8,0H22a8,8,0,0,1,8,8V22a8,8,0,0,1-8,8H8a8,8,0,0,1-8-8V8A8,8,0,0,1,8,0Z" fill="#fd4343"/>
    </g>
    <g id="Path_225" data-name="Path 225" transform="translate(895 341.5)">
      <path id="Path_275" data-name="Path 275" d="M22,28.5H8A6.507,6.507,0,0,1,1.5,22V8A6.507,6.507,0,0,1,8,1.5H22A6.507,6.507,0,0,1,28.5,8V22A6.507,6.507,0,0,1,22,28.5Z" fill="#32cd32"/>
      <path id="Path_276" data-name="Path 276" d="M8,3A5.006,5.006,0,0,0,3,8V22a5.006,5.006,0,0,0,5,5H22a5.006,5.006,0,0,0,5-5V8a5.006,5.006,0,0,0-5-5H8M8,0H22a8,8,0,0,1,8,8V22a8,8,0,0,1-8,8H8a8,8,0,0,1-8-8V8A8,8,0,0,1,8,0Z" fill="#32cd32"/>
    </g>
    <g id="Path_226" data-name="Path 226" transform="translate(860 341.5)">
      <path id="Path_277" data-name="Path 277" d="M22,28.5H8A6.507,6.507,0,0,1,1.5,22V8A6.507,6.507,0,0,1,8,1.5H22A6.507,6.507,0,0,1,28.5,8V22A6.507,6.507,0,0,1,22,28.5Z" fill="#fd4343"/>
      <path id="Path_278" data-name="Path 278" d="M8,3A5.006,5.006,0,0,0,3,8V22a5.006,5.006,0,0,0,5,5H22a5.006,5.006,0,0,0,5-5V8a5.006,5.006,0,0,0-5-5H8M8,0H22a8,8,0,0,1,8,8V22a8,8,0,0,1-8,8H8a8,8,0,0,1-8-8V8A8,8,0,0,1,8,0Z" fill="#fd4343"/>
    </g>
    <g id="Path_227" data-name="Path 227" transform="translate(825 341.5)">
      <path id="Path_279" data-name="Path 279" d="M22,28.5H8A6.507,6.507,0,0,1,1.5,22V8A6.507,6.507,0,0,1,8,1.5H22A6.507,6.507,0,0,1,28.5,8V22A6.507,6.507,0,0,1,22,28.5Z" fill="#32cd32"/>
      <path id="Path_280" data-name="Path 280" d="M8,3A5.006,5.006,0,0,0,3,8V22a5.006,5.006,0,0,0,5,5H22a5.006,5.006,0,0,0,5-5V8a5.006,5.006,0,0,0-5-5H8M8,0H22a8,8,0,0,1,8,8V22a8,8,0,0,1-8,8H8a8,8,0,0,1-8-8V8A8,8,0,0,1,8,0Z" fill="#32cd32"/>
    </g>
    <g id="Path_228" data-name="Path 228" transform="translate(755 341.5)">
      <path id="Path_281" data-name="Path 281" d="M22,28.5H8A6.507,6.507,0,0,1,1.5,22V8A6.507,6.507,0,0,1,8,1.5H22A6.507,6.507,0,0,1,28.5,8V22A6.507,6.507,0,0,1,22,28.5Z" fill="#32cd32"/>
      <path id="Path_282" data-name="Path 282" d="M8,3A5.006,5.006,0,0,0,3,8V22a5.006,5.006,0,0,0,5,5H22a5.006,5.006,0,0,0,5-5V8a5.006,5.006,0,0,0-5-5H8M8,0H22a8,8,0,0,1,8,8V22a8,8,0,0,1-8,8H8a8,8,0,0,1-8-8V8A8,8,0,0,1,8,0Z" fill="#32cd32"/>
    </g>
    <g id="Path_229" data-name="Path 229" transform="translate(829 298.5)">
      <path id="Path_283" data-name="Path 283" d="M22,28.5H8A6.507,6.507,0,0,1,1.5,22V8A6.507,6.507,0,0,1,8,1.5H22A6.507,6.507,0,0,1,28.5,8V22A6.507,6.507,0,0,1,22,28.5Z" fill="#32cd32"/>
      <path id="Path_284" data-name="Path 284" d="M8,3A5.006,5.006,0,0,0,3,8V22a5.006,5.006,0,0,0,5,5H22a5.006,5.006,0,0,0,5-5V8a5.006,5.006,0,0,0-5-5H8M8,0H22a8,8,0,0,1,8,8V22a8,8,0,0,1-8,8H8a8,8,0,0,1-8-8V8A8,8,0,0,1,8,0Z" fill="#32cd32"/>
    </g>
    <g id="Path_230" data-name="Path 230" transform="translate(790 341.5)">
      <path id="Path_285" data-name="Path 285" d="M22,28.5H8A6.507,6.507,0,0,1,1.5,22V8A6.507,6.507,0,0,1,8,1.5H22A6.507,6.507,0,0,1,28.5,8V22A6.507,6.507,0,0,1,22,28.5Z" fill="#fd4343"/>
      <path id="Path_286" data-name="Path 286" d="M8,3A5.006,5.006,0,0,0,3,8V22a5.006,5.006,0,0,0,5,5H22a5.006,5.006,0,0,0,5-5V8a5.006,5.006,0,0,0-5-5H8M8,0H22a8,8,0,0,1,8,8V22a8,8,0,0,1-8,8H8a8,8,0,0,1-8-8V8A8,8,0,0,1,8,0Z" fill="#fd4343"/>
    </g>
    <g id="Path_231" data-name="Path 231" transform="translate(808 254.5)">
      <path id="Path_287" data-name="Path 287" d="M8,0H22a8,8,0,0,1,8,8V22a8,8,0,0,1-8,8H8a8,8,0,0,1-8-8V8A8,8,0,0,1,8,0Z" fill="#32cd32"/>
      <path id="Path_288" data-name="Path 288" d="M15,0h2a1,1,0,0,1,0,2H15a1,1,0,0,1,0-2Zm7,0h.59l.025,0h.007l.026,0h.006l.032,0,.032,0h0a7.976,7.976,0,0,1,1.162.19h0l.03.007.006,0h0l.023.006.006,0h0l.022.006.006,0,.006,0a1,1,0,0,1-.494,1.938A6.029,6.029,0,0,0,22,2a1,1,0,0,1,0-2Zm5.372,2.513a1,1,0,0,1,.768.358h0l0,.005h0l.01.012h0l0,.005h0l0,.006h0l0,.006h0l0,.006h0l0,0h0l.009.011h0l0,0h0l0,0h0l0,.006h0l0,0,0,0,0,0v0l0,.005,0,0,0,0,0,0,0,0,0,0,0,0v0l0,0,0,.005,0,0,0,0,0,0,0,0,0,.005,0,0,0,0,0,0,0,0,0,.006,0,.005v0l0,0h0l.01.012h0l0,0h0l.01.013h0l0,0h0l.014.018h0l.014.019h0a8,8,0,0,1,.778,1.224h0l0,.005h0l.008.015h0l0,0h0l.007.015h0l0,0v0l0,0v0l0,.008h0l0,0v0l0,0v0l0,0,0,.005,0,0,0,0,0,0,0,0v0l0,0v0l0,0v0l0,0v0l0,0h0l0,.006v0l0,0v0l0,.005h0l0,.007h0l0,.006h0l0,.006h0l.007.014h0l0,.007h0l.007.014a1,1,0,1,1-1.8.864,6.011,6.011,0,0,0-.81-1.258,1,1,0,0,1,.767-1.641ZM29,8.432a1,1,0,0,1,1,1v2a1,1,0,0,1-2,0v-2A1,1,0,0,1,29,8.432Zm0,7a1,1,0,0,1,1,1v2a1,1,0,1,1-2,0v-2A1,1,0,0,1,29,15.432Zm-.112,6.816a1,1,0,0,1,.986,1.176v0h0l0,.024h0v.006h0l0,.024h0l-.006.03h0l-.011.055h0l-.006.03h0q-.041.2-.092.4h0a7.938,7.938,0,0,1-.472,1.331,1,1,0,0,1-1.817-.836,5.95,5.95,0,0,0,.446-1.424A1,1,0,0,1,28.888,22.248Zm-3.43,4.839a1,1,0,0,1,.5,1.869,7.951,7.951,0,0,1-1.843.762,1,1,0,1,1-.526-1.929,5.958,5.958,0,0,0,1.38-.571A1,1,0,0,1,25.458,27.087ZM17.136,28h2a1,1,0,1,1,0,2h-2a1,1,0,0,1,0-2Zm-7,0h2a1,1,0,1,1,0,2h-2a1,1,0,0,1,0-2ZM4,26.747a1,1,0,0,1,.571.18,5.983,5.983,0,0,0,1.323.7A1,1,0,0,1,5.2,29.5l-.006,0-.007,0-.01,0-.007,0-.007,0-.008,0-.008,0-.007,0-.007,0-.009,0-.007,0-.007,0-.009,0-.007,0-.007,0-.007,0-.008,0-.007,0-.007,0-.008,0-.007,0-.007,0-.008,0h0l-.008,0-.007,0L5,29.42l-.008,0-.008,0-.007,0-.014-.006-.007,0-.008,0h0l-.008,0-.007,0-.007,0-.014-.006-.007,0h0l-.021-.009h0l-.021-.009h0l-.007,0h0l-.014-.006h0l-.007,0h0l-.021-.009h0l-.028-.012h0l-.021-.009h0l-.007,0h0l-.021-.01h0a7.982,7.982,0,0,1-1.082-.588h0l-.019-.013h0l-.006,0h0l-.019-.012h0l-.006,0h0l-.013-.008h0l-.005,0h0l-.012-.008h0l-.006,0h0l-.005,0h0l-.012-.008h0l0,0h0l-.005,0h0l-.006,0h0l0,0-.006,0h0l-.006,0h0l0,0-.006,0,0,0,0,0h0l-.005,0-.006,0-.006,0,0,0,0,0-.006,0-.006,0-.006,0-.006,0-.005,0,0,0A1,1,0,0,1,4,26.747ZM1.028,21.616a1,1,0,0,1,1,.913,5.97,5.97,0,0,0,.314,1.46,1,1,0,1,1-1.887.663,7.945,7.945,0,0,1-.353-1.4h0v-.007h0l0-.023h0v-.007h0l0-.015h0v-.007h0v-.006h0l0-.015h0v-.022h0V23.03l0-.017h0v-.005h0V23h0l0-.024h0Q.042,22.838.03,22.7a1,1,0,0,1,.91-1.08Q.984,21.616,1.028,21.616ZM1,14.7a1,1,0,0,1,1,1v2a1,1,0,0,1-2,0v-2A1,1,0,0,1,1,14.7Zm0-7a1,1,0,0,1,1,1v2a1,1,0,0,1-2,0v-2A1,1,0,0,1,1,7.7ZM3.058,2.042a1,1,0,0,1,.706,1.708,6.036,6.036,0,0,0-.922,1.181A1,1,0,0,1,1.124,3.909a8.032,8.032,0,0,1,1.23-1.577A1,1,0,0,1,3.058,2.042ZM8,0h2a1,1,0,0,1,0,2H8a6.082,6.082,0,0,0-.952.075A1,1,0,1,1,6.734.1,8.035,8.035,0,0,1,7.668.007H8Z" fill="#fd4343"/>
    </g>
    <path id="Path_232" data-name="Path 232" d="M84,0H0" transform="translate(780.5 269.5)" fill="none" stroke="#fd4343" stroke-linecap="round" stroke-width="2"/>
    <path id="Path_233" data-name="Path 233" d="M0,0,3,28" transform="translate(802 313.5)" fill="none" stroke="#fd4343" stroke-linecap="round" stroke-width="2"/>
    <path id="Path_234" data-name="Path 234" d="M0,0,22,44" transform="translate(780 269.5)" fill="none" stroke="#fd4343" stroke-linecap="round" stroke-width="2"/>
    <path id="Path_235" data-name="Path 235" d="M0,73.5V0" transform="translate(822.5 195.5)" fill="none" stroke="#fd4343" stroke-linecap="round" stroke-width="2"/>
    <path id="Path_236" data-name="Path 236" d="M0,0,22,43" transform="translate(865 269.5)" fill="none" stroke="#fd4343" stroke-linecap="round" stroke-width="2"/>
    <path id="ban-solid" d="M14,8a6,6,0,1,0,6,6,6,6,0,0,0-6-6Zm3.148,2.852a4.452,4.452,0,0,1,.5,5.7l-6.2-6.2a4.452,4.452,0,0,1,5.7.5Zm-6.3,6.3a4.452,4.452,0,0,1-.5-5.7l6.2,6.2a4.452,4.452,0,0,1-5.7-.5Z" transform="translate(873 298.5)" fill="#9a2828"/>
    <path id="ban-solid-2" data-name="ban-solid" d="M14,8a6,6,0,1,0,6,6,6,6,0,0,0-6-6Zm3.148,2.852a4.452,4.452,0,0,1,.5,5.7l-6.2-6.2a4.452,4.452,0,0,1,5.7.5Zm-6.3,6.3a4.452,4.452,0,0,1-.5-5.7l6.2,6.2a4.452,4.452,0,0,1-5.7-.5Z" transform="translate(861 342.5)" fill="#9a2828"/>
    <path id="ban-solid-3" data-name="ban-solid" d="M14,8a6,6,0,1,0,6,6,6,6,0,0,0-6-6Zm3.148,2.852a4.452,4.452,0,0,1,.5,5.7l-6.2-6.2a4.452,4.452,0,0,1,5.7.5Zm-6.3,6.3a4.452,4.452,0,0,1-.5-5.7l6.2,6.2a4.452,4.452,0,0,1-5.7-.5Z" transform="translate(791 342.5)" fill="#9a2828"/>
    <path id="Path_237" data-name="Path 237" d="M-33.377-.741h3.861V0h-4.667V-8.762h.806Zm9.62-2.925v-.3a2,2,0,0,0-.5-1.43A1.758,1.758,0,0,0-25.6-5.928a1.845,1.845,0,0,0-1.391.585,2.67,2.67,0,0,0-.65,1.677Zm.4,2.535v.806a4.021,4.021,0,0,1-1.82.39A3.227,3.227,0,0,1-27.56-.851a3.26,3.26,0,0,1-.916-2.411,3.632,3.632,0,0,1,.806-2.5,2.665,2.665,0,0,1,2.093-.91,2.462,2.462,0,0,1,1.924.793,3.223,3.223,0,0,1,.715,2.236,3.742,3.742,0,0,1-.052.7h-4.654a2.376,2.376,0,0,0,.754,1.671,2.574,2.574,0,0,0,1.755.578,3.168,3.168,0,0,0,1.781-.437ZM-19.649,0l-2.275-6.591h.832l.923,2.769,1.053,3.185q.13-.481,1.079-3.185l.962-2.769h.832L-18.583,0Zm9.1-3.666v-.3a2,2,0,0,0-.5-1.43A1.758,1.758,0,0,0-12.4-5.928a1.845,1.845,0,0,0-1.391.585,2.67,2.67,0,0,0-.65,1.677Zm.4,2.535v.806a4.021,4.021,0,0,1-1.82.39,3.227,3.227,0,0,1-2.385-.916,3.26,3.26,0,0,1-.917-2.411,3.632,3.632,0,0,1,.806-2.5,2.665,2.665,0,0,1,2.093-.91,2.462,2.462,0,0,1,1.924.793A3.223,3.223,0,0,1-9.73-3.64a3.742,3.742,0,0,1-.052.7h-4.654a2.376,2.376,0,0,0,.754,1.671,2.574,2.574,0,0,0,1.755.578,3.168,3.168,0,0,0,1.781-.44Zm2.821-5.46v1.118a1.888,1.888,0,0,1,1.846-1.2q.091,0,.325.026v.806a1.8,1.8,0,0,0-.52-.078,1.393,1.393,0,0,0-1.177.7,2.674,2.674,0,0,0-.474,1.54V0h-.793V-6.591ZM-.41-3.133H-1.7a2.21,2.21,0,0,0-1.378.358,1.091,1.091,0,0,0-.455.89A1.161,1.161,0,0,0-3.172-1a1.468,1.468,0,0,0,1.047.338,1.775,1.775,0,0,0,1.248-.43A1.416,1.416,0,0,0-.41-2.184ZM-3.893-5.382V-6.24a3.539,3.539,0,0,1,1.859-.455Q.384-6.7.384-4.16V0H-.41V-.767a2.1,2.1,0,0,1-1.9.832A2.1,2.1,0,0,1-3.8-.475,1.809,1.809,0,0,1-4.378-1.86,1.711,1.711,0,0,1-3.64-3.335,3.266,3.266,0,0,1-1.7-3.861H-.41v-.3A2.028,2.028,0,0,0-.786-5.493a1.565,1.565,0,0,0-1.261-.448,3.2,3.2,0,0,0-1.846.559ZM3.074-6.591V-5.46A2.148,2.148,0,0,1,5.167-6.7a2.031,2.031,0,0,1,1.521.585A2.066,2.066,0,0,1,7.26-4.6V0H6.467V-4.355a1.617,1.617,0,0,0-.39-1.17,1.364,1.364,0,0,0-1.027-.4,1.852,1.852,0,0,0-1.391.618,2.33,2.33,0,0,0-.585,1.67V0H2.281V-6.591Zm7.306.676V-1.82q0,1.131,1.053,1.131a1.347,1.347,0,0,0,.884-.3v.806a1.553,1.553,0,0,1-.871.247A1.678,1.678,0,0,1,10.03-.43a1.678,1.678,0,0,1-.455-1.429V-5.915H8.5v-.676H9.575V-8.242h.806v1.651h1.885v.676Zm4.511-2.34a.545.545,0,0,1,.156-.4.545.545,0,0,1,.4-.156.551.551,0,0,1,.4.156.534.534,0,0,1,.163.4.539.539,0,0,1-.163.4.539.539,0,0,1-.4.162.534.534,0,0,1-.4-.162.551.551,0,0,1-.155-.4Zm2.392,0a.534.534,0,0,1,.162-.4.551.551,0,0,1,.4-.156.545.545,0,0,1,.4.156.545.545,0,0,1,.156.4.551.551,0,0,1-.156.4.534.534,0,0,1-.4.162.539.539,0,0,1-.4-.162.539.539,0,0,1-.161-.4ZM16.517.117a2.753,2.753,0,0,1-2.21-.962,3.6,3.6,0,0,1-.819-2.418,3.611,3.611,0,0,1,.845-2.431,2.741,2.741,0,0,1,2.184-.988,2.814,2.814,0,0,1,2.281.969,3.682,3.682,0,0,1,.813,2.451,3.576,3.576,0,0,1-.826,2.424,2.84,2.84,0,0,1-2.268.955Zm0-6.045a1.9,1.9,0,0,0-1.612.78,3.052,3.052,0,0,0-.585,1.885,2.918,2.918,0,0,0,.6,1.852,1.923,1.923,0,0,0,1.593.773,1.994,1.994,0,0,0,1.67-.761,2.946,2.946,0,0,0,.591-1.865,3.129,3.129,0,0,0-.559-1.9,1.975,1.975,0,0,0-1.7-.764Zm5.46-.663v1.118a1.888,1.888,0,0,1,1.846-1.2q.091,0,.325.026v.806a1.8,1.8,0,0,0-.52-.078,1.393,1.393,0,0,0-1.176.7,2.674,2.674,0,0,0-.475,1.54V0h-.793V-6.591ZM30.8-4.42,28.139-8.762h.936l2.171,3.614,2.171-3.614h.936L31.7-4.42,34.678,0h-.936L31.258-3.731,28.906,0H27.97ZM-68.964,5.8a2.713,2.713,0,0,1,1.109.21,1.613,1.613,0,0,1,.725.6,1.684,1.684,0,0,1,.252.931,1.689,1.689,0,0,1-.252.928,1.606,1.606,0,0,1-.725.606,2.713,2.713,0,0,1-1.109.21H-70.07V10.7h-.91V5.8Zm-.042,2.716a1.4,1.4,0,0,0,.9-.252.878.878,0,0,0,.308-.721.878.878,0,0,0-.308-.721,1.4,1.4,0,0,0-.9-.252H-70.07V8.516Zm3.024-3.01h.875V10.7h-.875Zm3.451,1.414a1.823,1.823,0,0,1,1.264.4,1.529,1.529,0,0,1,.438,1.194V10.7h-.826v-.455a1.018,1.018,0,0,1-.458.375,1.792,1.792,0,0,1-.717.129,1.758,1.758,0,0,1-.735-.143,1.136,1.136,0,0,1-.486-.4,1.013,1.013,0,0,1-.172-.578.99.99,0,0,1,.375-.809,1.86,1.86,0,0,1,1.18-.3h.966V8.46a.766.766,0,0,0-.235-.6,1.015,1.015,0,0,0-.7-.21,2.01,2.01,0,0,0-.619.1,1.522,1.522,0,0,0-.514.273l-.343-.637a2.124,2.124,0,0,1,.707-.343,3.146,3.146,0,0,1,.875-.123Zm-.119,3.192a1.13,1.13,0,0,0,.584-.15.819.819,0,0,0,.361-.431V9.1h-.9q-.756,0-.756.5a.446.446,0,0,0,.189.378.866.866,0,0,0,.522.134Zm5.187.385a1.03,1.03,0,0,1-.375.189,1.687,1.687,0,0,1-.465.063,1.321,1.321,0,0,1-.952-.322,1.239,1.239,0,0,1-.336-.938V7.69h-.616v-.7h.616V6.136h.875V6.99h1v.7h-1V9.468a.591.591,0,0,0,.133.417.5.5,0,0,0,.385.144.769.769,0,0,0,.49-.154Zm2.877,0a1.03,1.03,0,0,1-.375.189,1.687,1.687,0,0,1-.465.063,1.321,1.321,0,0,1-.952-.322,1.239,1.239,0,0,1-.336-.938V7.69h-.616v-.7h.616V6.136h.875V6.99h1v.7h-1V9.468a.591.591,0,0,0,.133.417.5.5,0,0,0,.385.144.769.769,0,0,0,.49-.154Zm2.24-4.333q-.553,0-.553.6V6.99h1.029v.7h-1V10.7h-.875V7.69h-.616v-.7h.616V6.752A1.274,1.274,0,0,1-53.4,5.8a1.343,1.343,0,0,1,.987-.346,1.35,1.35,0,0,1,.791.2l-.245.658a.836.836,0,0,0-.479-.148Zm2.688,4.585A2.121,2.121,0,0,1-50.68,10.5a1.786,1.786,0,0,1-.71-.682,1.927,1.927,0,0,1-.256-.991,1.909,1.909,0,0,1,.256-.987,1.794,1.794,0,0,1,.71-.679,2.121,2.121,0,0,1,1.022-.245,2.136,2.136,0,0,1,1.029.245,1.794,1.794,0,0,1,.71.679,1.909,1.909,0,0,1,.256.987,1.927,1.927,0,0,1-.256.991,1.786,1.786,0,0,1-.71.682,2.136,2.136,0,0,1-1.029.249Zm0-.749a1.069,1.069,0,0,0,.8-.322,1.159,1.159,0,0,0,.315-.847,1.159,1.159,0,0,0-.315-.847,1.069,1.069,0,0,0-.8-.322,1.058,1.058,0,0,0-.795.322,1.167,1.167,0,0,0-.312.847,1.167,1.167,0,0,0,.312.847,1.058,1.058,0,0,0,.795.322Zm3.668-2.492a1.458,1.458,0,0,1,1.33-.588v.833a1.111,1.111,0,0,0-.2-.021,1.057,1.057,0,0,0-.8.3,1.186,1.186,0,0,0-.287.858V10.7h-.875V6.962h.833Zm6.79-.588a1.521,1.521,0,0,1,1.12.41,1.66,1.66,0,0,1,.413,1.228V10.7h-.875V8.67a1.094,1.094,0,0,0-.217-.739.783.783,0,0,0-.623-.248.912.912,0,0,0-.707.291,1.185,1.185,0,0,0-.266.829v1.9h-.875V8.67a1.094,1.094,0,0,0-.217-.739.783.783,0,0,0-.623-.248.915.915,0,0,0-.711.287,1.193,1.193,0,0,0-.262.833v1.9h-.875V6.962h.833v.476a1.36,1.36,0,0,1,.525-.385,1.782,1.782,0,0,1,.7-.133,1.691,1.691,0,0,1,.745.158,1.21,1.21,0,0,1,.514.465,1.558,1.558,0,0,1,.6-.458,1.932,1.932,0,0,1,.8-.165Zm2.464,1.47h1.925v.728h-1.925Zm8.33.462q0,.091-.014.259h-2.933a1.017,1.017,0,0,0,.4.655,1.319,1.319,0,0,0,.808.241A1.362,1.362,0,0,0-29.127,9.6l.469.539a1.58,1.58,0,0,1-.637.455,2.32,2.32,0,0,1-.868.154,2.31,2.31,0,0,1-1.085-.245,1.764,1.764,0,0,1-.725-.682,1.927,1.927,0,0,1-.256-.991,1.956,1.956,0,0,1,.249-.983,1.763,1.763,0,0,1,.69-.682,2.012,2.012,0,0,1,.99-.245,1.961,1.961,0,0,1,.976.242,1.71,1.71,0,0,1,.672.679,2.059,2.059,0,0,1,.246,1.011ZM-30.3,7.62a1.055,1.055,0,0,0-.711.248,1.045,1.045,0,0,0-.353.661h2.121a1.032,1.032,0,0,0-.343-.658A1.043,1.043,0,0,0-30.3,7.62Zm2.73-2.114h.875V10.7h-.875Zm2.023,0h.875V10.7h-.875Zm5.537,3.346q0,.091-.014.259h-2.933a1.017,1.017,0,0,0,.4.655,1.319,1.319,0,0,0,.808.241A1.362,1.362,0,0,0-20.727,9.6l.469.539a1.58,1.58,0,0,1-.637.455,2.32,2.32,0,0,1-.868.154,2.31,2.31,0,0,1-1.085-.245,1.764,1.764,0,0,1-.725-.682,1.927,1.927,0,0,1-.255-.991,1.956,1.956,0,0,1,.248-.983,1.763,1.763,0,0,1,.69-.682,2.012,2.012,0,0,1,.99-.245,1.961,1.961,0,0,1,.976.242,1.71,1.71,0,0,1,.672.679,2.059,2.059,0,0,1,.246,1.011ZM-21.9,7.62a1.055,1.055,0,0,0-.711.248,1.045,1.045,0,0,0-.353.661h2.121a1.032,1.032,0,0,0-.343-.658A1.043,1.043,0,0,0-21.9,7.62Zm3.563-.112A1.458,1.458,0,0,1-17,6.92v.833a1.111,1.111,0,0,0-.2-.021,1.057,1.057,0,0,0-.8.3,1.186,1.186,0,0,0-.287.858V10.7h-.875V6.962h.833Zm4.039-.546h.875V10.7H-14.3Zm.441-.616a.562.562,0,0,1-.4-.15.492.492,0,0,1-.161-.375.492.492,0,0,1,.161-.374.562.562,0,0,1,.4-.151.578.578,0,0,1,.4.144.463.463,0,0,1,.161.36.528.528,0,0,1-.158.388.545.545,0,0,1-.4.158Zm3.7.574a1.562,1.562,0,0,1,1.134.413A1.629,1.629,0,0,1-8.6,8.558V10.7h-.875V8.67A1.049,1.049,0,0,0-9.7,7.931a.854.854,0,0,0-.658-.248,1.01,1.01,0,0,0-.763.291,1.158,1.158,0,0,0-.28.836V10.7h-.875V6.962h.833v.483a1.368,1.368,0,0,1,.546-.392,1.965,1.965,0,0,1,.747-.133Zm4.193-.756q-.553,0-.553.6V6.99h1.029v.7h-1V10.7h-.875V7.69h-.616v-.7h.616V6.752a1.274,1.274,0,0,1,.35-.949,1.343,1.343,0,0,1,.987-.346,1.35,1.35,0,0,1,.791.2l-.245.658a.836.836,0,0,0-.477-.151ZM-3.5,7.508A1.458,1.458,0,0,1-2.17,6.92v.833a1.111,1.111,0,0,0-.2-.021,1.057,1.057,0,0,0-.8.3,1.186,1.186,0,0,0-.287.858V10.7h-.875V6.962H-3.5ZM-.021,6.92a1.823,1.823,0,0,1,1.263.4A1.529,1.529,0,0,1,1.68,8.509V10.7H.854v-.455A1.018,1.018,0,0,1,.4,10.62a1.792,1.792,0,0,1-.717.129,1.758,1.758,0,0,1-.735-.143,1.136,1.136,0,0,1-.486-.4,1.013,1.013,0,0,1-.172-.578.99.99,0,0,1,.375-.809,1.86,1.86,0,0,1,1.179-.3H.8V8.46a.766.766,0,0,0-.235-.6,1.015,1.015,0,0,0-.7-.21,2.01,2.01,0,0,0-.619.1,1.522,1.522,0,0,0-.515.273L-1.6,7.382a2.124,2.124,0,0,1,.7-.343A3.146,3.146,0,0,1-.021,6.92ZM-.14,10.112a1.13,1.13,0,0,0,.585-.15A.819.819,0,0,0,.8,9.531V9.1H-.1q-.756,0-.756.5a.446.446,0,0,0,.189.378.866.866,0,0,0,.527.134Zm4.1.637a3.347,3.347,0,0,1-.889-.119,2.237,2.237,0,0,1-.693-.3l.336-.665a2.16,2.16,0,0,0,.605.27,2.516,2.516,0,0,0,.7.1q.784,0,.784-.413a.276.276,0,0,0-.2-.273A3.445,3.445,0,0,0,3.955,9.2,5.2,5.2,0,0,1,3.2,9.041a1.155,1.155,0,0,1-.5-.318.89.89,0,0,1-.214-.634,1,1,0,0,1,.444-.851,2.023,2.023,0,0,1,1.2-.319,3.465,3.465,0,0,1,.77.088,2.159,2.159,0,0,1,.63.234l-.336.665a2.072,2.072,0,0,0-1.071-.28,1.187,1.187,0,0,0-.584.115.345.345,0,0,0-.2.3.3.3,0,0,0,.214.3,3.393,3.393,0,0,0,.661.165,5.1,5.1,0,0,1,.735.161,1.15,1.15,0,0,1,.494.308.859.859,0,0,1,.206.616.975.975,0,0,1-.455.84,2.145,2.145,0,0,1-1.239.318Zm4.7-.252a1.03,1.03,0,0,1-.375.189,1.687,1.687,0,0,1-.465.063,1.321,1.321,0,0,1-.952-.322,1.239,1.239,0,0,1-.336-.938V7.69H5.908v-.7h.616V6.136H7.4V6.99h1v.7h-1V9.468a.591.591,0,0,0,.133.417.5.5,0,0,0,.385.144.769.769,0,0,0,.49-.154Zm1.554-2.989a1.458,1.458,0,0,1,1.33-.588v.833a1.111,1.111,0,0,0-.2-.021,1.057,1.057,0,0,0-.8.3,1.186,1.186,0,0,0-.287.858V10.7H9.373V6.962h.833Zm5.726-.546V10.7H15.1v-.476a1.393,1.393,0,0,1-.525.389,1.689,1.689,0,0,1-.679.136,1.625,1.625,0,0,1-1.18-.417A1.643,1.643,0,0,1,12.285,9.1V6.962h.875V8.978a1.083,1.083,0,0,0,.228.752.834.834,0,0,0,.647.249.981.981,0,0,0,.746-.291,1.167,1.167,0,0,0,.276-.837V6.962ZM18.606,9.1l-.651.616V10.7H17.08V5.506h.875V8.642l1.813-1.68h1.05L19.257,8.53l1.708,2.17H19.9Zm5.173,1.4a1.03,1.03,0,0,1-.374.189,1.687,1.687,0,0,1-.466.063,1.321,1.321,0,0,1-.952-.322,1.239,1.239,0,0,1-.336-.938V7.69h-.616v-.7h.616V6.136h.875V6.99h1v.7h-1V9.468a.591.591,0,0,0,.133.417.5.5,0,0,0,.385.144.769.769,0,0,0,.49-.154Zm4.34-3.535V10.7h-.833v-.476a1.393,1.393,0,0,1-.525.389,1.689,1.689,0,0,1-.679.136,1.625,1.625,0,0,1-1.18-.417,1.643,1.643,0,0,1-.43-1.232V6.962h.875V8.978a1.083,1.083,0,0,0,.228.752.834.834,0,0,0,.647.249.981.981,0,0,0,.746-.291,1.167,1.167,0,0,0,.277-.837V6.962Zm1.981.546a1.458,1.458,0,0,1,1.33-.588v.833a1.111,1.111,0,0,0-.2-.021,1.057,1.057,0,0,0-.8.3,1.186,1.186,0,0,0-.287.858V10.7h-.875V6.962H30.1Zm5.194,3.241a3.347,3.347,0,0,1-.889-.119,2.237,2.237,0,0,1-.693-.3l.336-.665a2.16,2.16,0,0,0,.6.27,2.516,2.516,0,0,0,.7.1q.784,0,.784-.413a.276.276,0,0,0-.2-.273A3.445,3.445,0,0,0,35.3,9.2a5.2,5.2,0,0,1-.752-.161,1.155,1.155,0,0,1-.5-.318.89.89,0,0,1-.214-.634,1,1,0,0,1,.444-.851,2.023,2.023,0,0,1,1.2-.319,3.465,3.465,0,0,1,.77.088,2.159,2.159,0,0,1,.63.234l-.336.665a2.072,2.072,0,0,0-1.071-.28,1.187,1.187,0,0,0-.584.115.345.345,0,0,0-.2.3.3.3,0,0,0,.214.3,3.393,3.393,0,0,0,.661.165,5.1,5.1,0,0,1,.735.161,1.15,1.15,0,0,1,.493.308.859.859,0,0,1,.207.616.975.975,0,0,1-.455.84,2.145,2.145,0,0,1-1.245.315Zm4.13,0A2.121,2.121,0,0,1,38.4,10.5a1.786,1.786,0,0,1-.71-.682,2.041,2.041,0,0,1,0-1.977,1.794,1.794,0,0,1,.71-.679,2.269,2.269,0,0,1,2.051,0,1.794,1.794,0,0,1,.71.679,2.041,2.041,0,0,1,0,1.977,1.786,1.786,0,0,1-.71.682,2.136,2.136,0,0,1-1.027.249Zm0-.749a1.069,1.069,0,0,0,.8-.322,1.159,1.159,0,0,0,.315-.847,1.159,1.159,0,0,0-.315-.847,1.069,1.069,0,0,0-.8-.322,1.058,1.058,0,0,0-.8.322,1.167,1.167,0,0,0-.312.847,1.167,1.167,0,0,0,.312.847,1.058,1.058,0,0,0,.795.319Zm7.553-3.08a1.521,1.521,0,0,1,1.12.41,1.66,1.66,0,0,1,.413,1.228V10.7h-.875V8.67a1.094,1.094,0,0,0-.217-.739.783.783,0,0,0-.623-.248.912.912,0,0,0-.707.291,1.185,1.185,0,0,0-.266.829v1.9h-.875V8.67a1.094,1.094,0,0,0-.217-.739.783.783,0,0,0-.623-.248.915.915,0,0,0-.711.287,1.193,1.193,0,0,0-.262.833v1.9h-.875V6.962h.833v.476a1.36,1.36,0,0,1,.525-.385,1.782,1.782,0,0,1,.7-.133,1.691,1.691,0,0,1,.745.158,1.21,1.21,0,0,1,.514.465,1.558,1.558,0,0,1,.6-.458,1.932,1.932,0,0,1,.8-.165ZM53.809,10.5a1.03,1.03,0,0,1-.375.189,1.687,1.687,0,0,1-.465.063,1.321,1.321,0,0,1-.952-.322,1.239,1.239,0,0,1-.336-.938V7.69h-.616v-.7h.616V6.136h.875V6.99h1v.7h-1V9.468a.591.591,0,0,0,.133.417.5.5,0,0,0,.385.144.769.769,0,0,0,.49-.154Zm.336,1.61a1.377,1.377,0,0,1-.84-.217l.252-.651a.83.83,0,0,0,.511.147.467.467,0,0,0,.375-.151.665.665,0,0,0,.13-.444V6.962h.875V10.77a1.356,1.356,0,0,1-.343.98,1.267,1.267,0,0,1-.96.357Zm.861-5.761a.562.562,0,0,1-.4-.15.516.516,0,0,1,0-.749.562.562,0,0,1,.4-.151.578.578,0,0,1,.4.144.463.463,0,0,1,.161.36.528.528,0,0,1-.158.388.545.545,0,0,1-.4.155Zm3.017.574a1.823,1.823,0,0,1,1.264.4,1.529,1.529,0,0,1,.438,1.194V10.7H58.9v-.455a1.018,1.018,0,0,1-.458.375,1.792,1.792,0,0,1-.717.129,1.758,1.758,0,0,1-.735-.143,1.136,1.136,0,0,1-.486-.4,1.013,1.013,0,0,1-.172-.578A.99.99,0,0,1,56.7,8.82a1.86,1.86,0,0,1,1.18-.3h.966V8.46a.766.766,0,0,0-.235-.6,1.015,1.015,0,0,0-.7-.21,2.01,2.01,0,0,0-.619.1,1.522,1.522,0,0,0-.514.273l-.343-.637a2.124,2.124,0,0,1,.707-.343,3.146,3.146,0,0,1,.881-.123ZM57.9,10.112a1.13,1.13,0,0,0,.584-.15.819.819,0,0,0,.361-.431V9.1h-.9q-.756,0-.756.5a.446.446,0,0,0,.189.378.866.866,0,0,0,.522.134Zm-.483-3.738a.407.407,0,0,1-.42-.42.417.417,0,0,1,.119-.308.44.44,0,0,1,.6,0,.417.417,0,0,1,.119.308.407.407,0,0,1-.42.42Zm1.358,0a.407.407,0,0,1-.42-.42.417.417,0,0,1,.119-.308.44.44,0,0,1,.6,0,.417.417,0,0,1,.119.308.407.407,0,0,1-.42.42Zm4.186.546a1.562,1.562,0,0,1,1.134.413,1.629,1.629,0,0,1,.427,1.225V10.7h-.875V8.67a1.049,1.049,0,0,0-.231-.739.854.854,0,0,0-.658-.248,1.01,1.01,0,0,0-.758.29,1.158,1.158,0,0,0-.28.836V10.7h-.875V6.962h.833v.483a1.368,1.368,0,0,1,.546-.392,1.965,1.965,0,0,1,.741-.133Zm3.829,3.829a3.347,3.347,0,0,1-.889-.119,2.237,2.237,0,0,1-.693-.3l.336-.665a2.16,2.16,0,0,0,.605.27,2.516,2.516,0,0,0,.7.1q.784,0,.784-.413a.276.276,0,0,0-.2-.273,3.445,3.445,0,0,0-.641-.147,5.2,5.2,0,0,1-.752-.161,1.155,1.155,0,0,1-.5-.318.89.89,0,0,1-.214-.634,1,1,0,0,1,.444-.851,2.023,2.023,0,0,1,1.2-.319,3.465,3.465,0,0,1,.77.088,2.159,2.159,0,0,1,.63.234l-.336.665a2.073,2.073,0,0,0-1.071-.28,1.187,1.187,0,0,0-.585.115.345.345,0,0,0-.2.3.3.3,0,0,0,.214.3,3.393,3.393,0,0,0,.661.165,5.1,5.1,0,0,1,.735.161,1.15,1.15,0,0,1,.493.308.859.859,0,0,1,.206.616.975.975,0,0,1-.455.84,2.145,2.145,0,0,1-1.238.318Zm4.7-.252a1.03,1.03,0,0,1-.374.189,1.687,1.687,0,0,1-.465.063,1.321,1.321,0,0,1-.952-.322,1.239,1.239,0,0,1-.336-.938V7.69h-.616v-.7h.616V6.136h.875V6.99h1v.7h-1V9.468a.591.591,0,0,0,.133.417.5.5,0,0,0,.385.144.769.769,0,0,0,.49-.154Z" transform="translate(823 166)" fill="#ff3e3e"/>
    <path id="Path_238" data-name="Path 238" d="M12,0A12,12,0,1,1,0,12,12,12,0,0,1,12,0Z" transform="translate(811 118)" fill="#ff4545"/>
    <path id="ban-solid-4" data-name="ban-solid" d="M14,8a6,6,0,1,0,6,6,6,6,0,0,0-6-6Zm3.148,2.852a4.452,4.452,0,0,1,.5,5.7l-6.2-6.2a4.452,4.452,0,0,1,5.7.5Zm-6.3,6.3a4.452,4.452,0,0,1-.5-5.7l6.2,6.2a4.452,4.452,0,0,1-5.7-.5Z" transform="translate(809 116)" fill="#fff"/>
    <path id="Path_188" data-name="Path 188" d="M0,0V328.194" transform="translate(965.5 80.5)" fill="none" stroke="rgba(25,95,140,0.6)" stroke-width="0.25"/>
    <path id="Path_249" data-name="Path 249" d="M699.548,486.161a6.983,6.983,0,0,0-13.884,0,6.983,6.983,0,0,0,.768,13.936H692.6a3.9,3.9,0,0,0,0-7.8,2.274,2.274,0,1,1,1.61-3.888.812.812,0,1,0,1.151-1.145,3.9,3.9,0,1,0-2.759,6.646,2.275,2.275,0,1,1,0,4.549h-6.173a5.361,5.361,0,1,1,0-10.722.81.81,0,0,0,.81-.81,5.361,5.361,0,0,1,10.722,0,.812.812,0,0,0,.812.81,5.361,5.361,0,1,1,0,10.722.812.812,0,0,0,0,1.624,6.983,6.983,0,0,0,.77-13.926Z" transform="translate(370.688 -326.336)" fill="#417da5"/>
    <path id="Path_250" data-name="Path 250" d="M837.761,537.053c-.4-.16-.758-.279-1.277-.457-.936-.3-1.852-.638-1.852-1.417s.6-1.175,1.514-1.175a3.469,3.469,0,0,1,2.394,1.018l.8-1.177a4.147,4.147,0,0,0-3.228-1.235c-1.674,0-3.192.958-3.192,2.709a2.442,2.442,0,0,0,1.494,2.272,7,7,0,0,0,1.3.5c.638.219,2.135.537,2.135,1.58s-.938,1.355-1.814,1.355a3.891,3.891,0,0,1-2.793-1.355l-.916,1.115a4.538,4.538,0,0,0,3.687,1.694,4.034,4.034,0,0,0,2.63-.838,2.687,2.687,0,0,0,.976-2.151,2.336,2.336,0,0,0-.756-1.754A3.638,3.638,0,0,0,837.761,537.053Z" transform="translate(248.207 -368.503)" fill="#417da5"/>
    <path id="Path_251" data-name="Path 251" d="M878.254,532.61a7.288,7.288,0,0,0-3.547.958l.579,1.275a5.806,5.806,0,0,1,2.849-.818,2.078,2.078,0,0,1,2.352,2.153v.379l-2.532.1c-2.2.1-3.7,1.035-3.7,2.889a2.994,2.994,0,0,0,3.266,2.929,3.873,3.873,0,0,0,3.011-1.407l.02,1.2H882.4v-5.51a3.917,3.917,0,0,0-1.016-3.068A4.026,4.026,0,0,0,878.254,532.61Zm2.253,7.134a2.978,2.978,0,0,1-2.412,1.375,1.727,1.727,0,0,1-1.953-1.634c0-.9.618-1.554,2.153-1.634l2.213-.14Z" transform="translate(214.642 -368.503)" fill="#417da5"/>
    <path id="Path_252" data-name="Path 252" d="M951.462,532.61a4.7,4.7,0,0,0-4.8,4.9,4.6,4.6,0,0,0,4.742,4.962,5.617,5.617,0,0,0,4.164-1.494l-.8-1.1a5.233,5.233,0,0,1-3.128,1.1,2.918,2.918,0,0,1-3.049-3.009h7.294a8.222,8.222,0,0,0,.06-.838,4.321,4.321,0,0,0-4.483-4.521Zm-2.849,4.086a2.785,2.785,0,0,1,2.793-2.711,2.746,2.746,0,0,1,2.729,2.711Z" transform="translate(156.679 -368.503)" fill="#417da5"/>
    <path id="Path_253" data-name="Path 253" d="M1002.055,537.053c-.4-.16-.758-.279-1.275-.457-.938-.3-1.854-.638-1.854-1.417s.6-1.175,1.514-1.175a3.473,3.473,0,0,1,2.394,1.018l.8-1.177a4.147,4.147,0,0,0-3.228-1.235c-1.674,0-3.192.958-3.192,2.709a2.441,2.441,0,0,0,1.494,2.272,7.122,7.122,0,0,0,1.295.5c.636.219,2.133.537,2.133,1.574s-.936,1.355-1.814,1.355a3.886,3.886,0,0,1-2.793-1.355l-.918,1.115a4.538,4.538,0,0,0,3.687,1.694,4.031,4.031,0,0,0,2.63-.838,2.689,2.689,0,0,0,.978-2.151,2.336,2.336,0,0,0-.758-1.754A3.616,3.616,0,0,0,1002.055,537.053Z" transform="translate(116.694 -368.503)" fill="#417da5"/>
    <path id="Path_254" data-name="Path 254" d="M1043.841,532.6a4.014,4.014,0,0,0-3.358,1.674h-.04v-1.494h-1.833v13.066h1.913v-5.1l.02.02a3.678,3.678,0,0,0,3.268,1.694c2.809,0,4.6-2.153,4.6-4.962S1046.63,532.6,1043.841,532.6Zm-.4,8.23c-1.893,0-3.009-1.454-3.009-3.348s1.115-3.328,3.009-3.328,3.009,1.435,3.009,3.328-1.114,3.348-3.008,3.348Z" transform="translate(83.074 -368.499)" fill="#417da5"/>
    <path id="Path_259" data-name="Path 259" d="M0,0H1.913V9.465H0Z" transform="translate(1139.239 164.286)" fill="#417da5"/>
    <path id="Path_255" data-name="Path 255" d="M1149.058,532.6a3.192,3.192,0,0,0-2.9,1.674h-.06l.02-1.494h-1.913v9.475h1.913v-4.772c0-1.814.658-3.308,2.432-3.308,1.692,0,1.971,1.2,1.971,2.793v5.287h1.913v-5.608C1152.446,534.379,1151.75,532.6,1149.058,532.6Z" transform="translate(-1.458 -368.499)" fill="#417da5"/>
    <path id="Path_256" data-name="Path 256" d="M1198.771,532.79l.02,1.494h-.06a3.783,3.783,0,0,0-3.308-1.674,4.767,4.767,0,0,0,0,9.525,3.789,3.789,0,0,0,3.308-1.694h.04v.373a4.266,4.266,0,0,1-.716,2.651,3.229,3.229,0,0,1-2.594,1.035,6.012,6.012,0,0,1-3.392-1.2l-.9,1.335a7.27,7.27,0,0,0,4.224,1.414,5,5,0,0,0,4.226-1.814c.7-.858,1.035-2,1.035-4.084V532.79Zm-5.912,4.583a3.017,3.017,0,0,1,2.969-3.22,3.237,3.237,0,0,1,0,6.44,3.009,3.009,0,0,1-2.969-3.21Z" transform="translate(-38.801 -368.503)" fill="#417da5"/>
    <path id="Path_257" data-name="Path 257" d="M923.788,511.972a3.993,3.993,0,0,0-.638,2.532v10.41h1.893v-7.921h2.25V515.46h-2.25V514.4c0-1.077.2-2.013,1.454-2.013a3.635,3.635,0,0,1,.8.1v-1.444a6.152,6.152,0,0,0-1.235-.112,2.867,2.867,0,0,0-2.274,1.041Z" transform="translate(175.498 -351.153)" fill="#417da5"/>
    <path id="Path_258" data-name="Path 258" d="M1095.023,534.228h-.06l.02-1.454h-1.913v9.475h1.913v-4.732a4.23,4.23,0,0,1,.577-2.394,2,2,0,0,1,1.554-.8,2.509,2.509,0,0,1,1.037.2v-1.837a3.147,3.147,0,0,0-.8-.1A2.481,2.481,0,0,0,1095.023,534.228Z" transform="translate(39.479 -368.487)" fill="#417da5"/>
    <path id="Path_260" data-name="Path 260" d="M1.245,0A1.245,1.245,0,1,1,0,1.245,1.245,1.245,0,0,1,1.245,0Z" transform="translate(1138.939 159.783)" fill="#417da5"/>
  </g>
</svg>
