<svg xmlns="http://www.w3.org/2000/svg" viewBox="0 0 465.96 102.19"><defs><style>.a{fill:#fff}.b{fill:none;stroke:#fff;stroke-miterlimit:10;stroke-width:2px}</style></defs><circle cx="177.17" cy="41.41" r="2.45" class="a"/><path d="M39.75 39.05a13.71 13.71 0 0 0-27.27 0A13.71 13.71 0 0 0 14 66.42h12.11a7.66 7.66 0 1 0 0-15.31 4.47 4.47 0 0 1 0-8.94 4.4 4.4 0 0 1 3.13 1.3 1.59 1.59 0 0 0 2.3-2.21 7.66 7.66 0 1 0-5.42 13.05 4.47 4.47 0 0 1 0 8.94H14a10.53 10.53 0 1 1 0-21.06 1.6 1.6 0 0 0 1.59-1.6 10.53 10.53 0 0 1 21.06 0 1.6 1.6 0 0 0 1.6 1.6 10.53 10.53 0 1 1 0 21.06 1.6 1.6 0 1 0 0 3.19A13.72 13.72 0 0 0 39.75 39Zm30.91 17.14c-.78-.32-1.49-.55-2.51-.9-1.84-.59-3.64-1.26-3.64-2.78s1.18-2.31 3-2.31a6.8 6.8 0 0 1 4.7 2l1.57-2.32a8.2 8.2 0 0 0-6.34-2.42c-3.29 0-6.27 1.88-6.27 5.32a4.8 4.8 0 0 0 2.93 4.46 14 14 0 0 0 2.55 1c1.25.43 4.19 1.06 4.19 3.11S69 64 67.26 64a7.7 7.7 0 0 1-5.49-2.66L60 63.52a9 9 0 0 0 7.24 3.33 8 8 0 0 0 5.17-1.65A5.3 5.3 0 0 0 74.3 61a4.6 4.6 0 0 0-1.49-3.45 7 7 0 0 0-2.15-1.36m13.61-8.73a14.4 14.4 0 0 0-7 1.88l1.14 2.5a11.4 11.4 0 0 1 5.6-1.6c2.7 0 4.62 1.41 4.62 4.22v.75l-5 .2c-4.31.19-7.27 2-7.27 5.67s3 5.75 6.41 5.75a7.6 7.6 0 0 0 5.92-2.76v2.35h3.63V55.6c0-3.17-.74-4.74-2-6s-2.96-2.14-6.05-2.14m4.43 14a5.9 5.9 0 0 1-4.7 2.71c-2.43 0-3.84-1.45-3.84-3.21s1.22-3.05 4.23-3.21l4.35-.27Zm25.52-14a9.23 9.23 0 0 0-9.43 9.63c0 5.87 3.79 9.74 9.31 9.74s8-2.74 8.18-2.93l-1.56-2.16a10.3 10.3 0 0 1-6.15 2.16c-3.45 0-5.79-2.23-6-5.91h14.33a15 15 0 0 0 .12-1.65 8.5 8.5 0 0 0-8.8-8.88m-5.6 8a5.47 5.47 0 0 1 5.49-5.32 5.4 5.4 0 0 1 5.36 5.32Zm26.44.73c-.78-.32-1.49-.55-2.5-.9-1.85-.59-3.64-1.26-3.64-2.78s1.17-2.31 3-2.31a6.8 6.8 0 0 1 4.7 2l1.57-2.32a8.1 8.1 0 0 0-6.34-2.42c-3.29 0-6.27 1.88-6.27 5.32a4.8 4.8 0 0 0 2.93 4.46 14 14 0 0 0 2.55 1c1.25.43 4.19 1.06 4.19 3.1s-1.87 2.66-3.6 2.66a7.7 7.7 0 0 1-5.48-2.66l-1.81 2.19a9 9 0 0 0 7.25 3.32 8 8 0 0 0 5.16-1.64 5.3 5.3 0 0 0 1.92-4.21 4.6 4.6 0 0 0-1.49-3.44 7 7 0 0 0-2.14-1.37m16.04-8.73a7.9 7.9 0 0 0-6.59 3.29h-.08v-2.94h-3.6v25.67h3.76v-10a7.2 7.2 0 0 0 6.41 3.35c5.52 0 9.05-4.22 9.05-9.74s-3.47-9.63-8.95-9.63m-.78 16.16c-3.72 0-5.91-2.85-5.91-6.57s2.19-6.54 5.91-6.54 5.91 2.82 5.91 6.54-2.23 6.57-5.91 6.57m24.99-15.81h3.76V66.4h-3.76zm16.43-.35a6.3 6.3 0 0 0-5.69 3.29h-.11v-2.94h-3.76v18.61H186v-9.37c0-3.56 1.29-6.5 4.77-6.5s3.88 2.35 3.88 5.49v10.38h3.75v-11c0-4.48-1.4-7.96-6.66-7.96m24.26.35v2.94a7.4 7.4 0 0 0-6.5-3.29c-4.77 0-9 3.44-9 9.35s4.19 9.36 9 9.36a7.5 7.5 0 0 0 6.5-3.33v.73a8.3 8.3 0 0 1-1.41 5.21 6.3 6.3 0 0 1-5.09 2 12 12 0 0 1-6.66-2.35l-1.76 2.62a14.3 14.3 0 0 0 8.29 2.78c4.62 0 6.93-1.88 8.31-3.57s2-3.92 2-8V47.81Zm-5.75 15.29c-3.8 0-5.91-2.78-5.91-6.31s2.11-6.34 5.91-6.34 5.91 2.82 5.91 6.34-2.07 6.33-5.91 6.33ZM96.83 41c-.79 1-1.26 2.54-1.26 5v20.42h3.72V50.86h4.42v-3h-4.42v-2.08c0-2.12.39-4 2.86-4a8 8 0 0 1 1.57.2v-2.8a12 12 0 0 0-2.43-.22A5.6 5.6 0 0 0 96.83 41M166 50.67h-.12v-2.86h-3.76v18.61h3.76v-9.29a8.3 8.3 0 0 1 1.13-4.71 4 4 0 0 1 3.06-1.56 5 5 0 0 1 2 .39v-3.61a6 6 0 0 0-1.56-.19 4.9 4.9 0 0 0-4.51 3.22" class="a"/><path d="m281.43.35-37.52 101.5" class="b"/><path d="M458.74 46.07a13 13 0 0 1 3.83.45 6 6 0 0 1 1.75.76 1.3 1.3 0 0 1 .62 1.38 4.4 4.4 0 0 1-1.11 2.34.9.9 0 0 1-1 .26l-.66-.26a10 10 0 0 0-2.23-.58 5 5 0 0 0-2.28.26 1.88 1.88 0 0 0-.85 3.09 3 3 0 0 0 1.16.94q.9.45 1.82.85c.92.4 1.38.53 2 .83a15 15 0 0 1 1.51.81 5.2 5.2 0 0 1 2.48 3.72 7.4 7.4 0 0 1-.55 4.52 7 7 0 0 1-4.44 3.67 11 11 0 0 1-4.16.51 15 15 0 0 1-3.47-.58 14 14 0 0 1-1.76-.71 5 5 0 0 1-1-.73 1.25 1.25 0 0 1-.32-1.38 5 5 0 0 1 1.19-2 1 1 0 0 1 1.28-.28l.82.37a9 9 0 0 0 2.89.83 5 5 0 0 0 2.28-.22 2.28 2.28 0 0 0 .84-3.88 5 5 0 0 0-1.26-.8c-.73-.33-1.5-.58-2.25-.88s-1.38-.53-2-.86a5.6 5.6 0 0 1-3.29-5.34 8 8 0 0 1 .21-2.19 6.2 6.2 0 0 1 3.09-3.91 8 8 0 0 1 3.75-1ZM441.3 66.54c-.21.17-.38.27-.52.4a9 9 0 0 1-5.54 2.58 8.3 8.3 0 0 1-4.41-.74 5 5 0 0 1-2.68-3.23 8 8 0 0 1-.43-2.57V47.49a1 1 0 0 1 .68-.92 4 4 0 0 1 1.06-.25h2.12a3 3 0 0 1 .59.08 1.3 1.3 0 0 1 1.15 1.42v13.27a12 12 0 0 0 0 1.2 2.76 2.76 0 0 0 2.36 2.63 4.6 4.6 0 0 0 3.77-1l.38-.33C441 62.6 441 62.53 441 61V47.64a1.3 1.3 0 0 1 .94-1.17c.1 0 .19-.07.29-.09a10 10 0 0 1 3.2 0c.95.17 1.17.64 1.15 1.38v14.49a29 29 0 0 0 .43 4.9c0 .2.08.39.1.59a.8.8 0 0 1-.38.77 3 3 0 0 1-.64.3 9 9 0 0 1-2.87.43 1.3 1.3 0 0 1-1.32-.89c-.16-.41-.26-.83-.4-1.25.01-.1-.09-.32-.2-.56m-32.02 1.72v8.54a1.2 1.2 0 0 1-1.05 1.37 3 3 0 0 1-.69.11h-2a4 4 0 0 1-.79-.14 1.3 1.3 0 0 1-1.07-1.28V52.13a18 18 0 0 0-.3-3.2c0-.16-.07-.33-.09-.49-.11-.89 0-1.17.85-1.46a9 9 0 0 1 3.06-.48 1.2 1.2 0 0 1 1.19.77 9 9 0 0 1 .36.94l.26.7c.36.07.46-.19.61-.35a7.6 7.6 0 0 1 4.24-2.34 7.5 7.5 0 0 1 7.85 3.08 10 10 0 0 1 1.6 3.34 19 19 0 0 1 0 10 9.7 9.7 0 0 1-2.63 4.55 8 8 0 0 1-4.53 2.21 9.3 9.3 0 0 1-6.2-1.12 2 2 0 0 0-.38-.13Zm9-10.53c-.12-.92-.24-2.12-.45-3.3a6 6 0 0 0-.9-2.22 3.7 3.7 0 0 0-4.05-1.52 6 6 0 0 0-3 1.91 2 2 0 0 0-.63 1.53v8.71a1.5 1.5 0 0 0 1 1.56 9 9 0 0 0 2.41.66 4.4 4.4 0 0 0 4.81-2.66 7 7 0 0 0 .36-1 21 21 0 0 0 .43-3.67Zm-46.52-8.6.8-.69A9 9 0 0 1 374.7 47a8.7 8.7 0 0 1 6.46-.54 5 5 0 0 1 2.94 2.15l.46.61c.43 0 .62-.35.85-.57a9 9 0 0 1 4.28-2.33 9 9 0 0 1 4.28.07 5.4 5.4 0 0 1 4.11 4.46 13 13 0 0 1 .24 2.3v14.98a1.1 1.1 0 0 1-.84 1 3 3 0 0 1-.68.13h-2.52a3 3 0 0 1-.69-.13 1.2 1.2 0 0 1-.82-1V53.61c-.07-2.28-1.59-3.06-3.36-3a4.8 4.8 0 0 0-3.83 2.29 2 2 0 0 0-.26.74 9 9 0 0 0 0 1v13.47a1.1 1.1 0 0 1-.77 1 3 3 0 0 1-.78.17h-2.52a3 3 0 0 1-.78-.17 1.05 1.05 0 0 1-.73-1V54.54a9 9 0 0 0-.13-1.6 2.6 2.6 0 0 0-2.26-2.24 4.9 4.9 0 0 0-5.09 2.3 2 2 0 0 0-.23.86 8 8 0 0 0 0 1v13.12a1.13 1.13 0 0 1-.91 1.17 2 2 0 0 1-.59.1h-2.51a2 2 0 0 1-.69-.14 1.2 1.2 0 0 1-.9-1.19V53.24a26 26 0 0 0-.37-4.7c-.19-1 0-1.28.92-1.59a10 10 0 0 1 2.87-.44 1.34 1.34 0 0 1 1.38 1l.32.95c.15.47.08.32.21.67m-17.05 10.49h-5.33c-1.14 0-1.22.11-1 1.23a8 8 0 0 0 .38 1.35 4.2 4.2 0 0 0 2.84 2.64 8 8 0 0 0 3.18.32 13 13 0 0 0 4-1.07l.55-.24a1.1 1.1 0 0 1 1.44.33 5 5 0 0 1 1.07 1.8 1.4 1.4 0 0 1-.47 1.62 6 6 0 0 1-2.14 1.09 29 29 0 0 1-3 .69 16 16 0 0 1-5.7-.14 14 14 0 0 1-1.55-.41 8.7 8.7 0 0 1-5.68-5.43 13 13 0 0 1-.84-4.22 19 19 0 0 1 .42-5.49 16 16 0 0 1 .61-1.91 8.5 8.5 0 0 1 5.09-5 11 11 0 0 1 3.44-.7 16 16 0 0 1 3.5.17 8 8 0 0 1 6 4.7A14 14 0 0 1 362.7 57a2.8 2.8 0 0 1-1.7 2.47 2 2 0 0 1-1 .15h-5.33Zm-2.08-3.86h3.72c.61 0 .76-.18.73-.81a5.6 5.6 0 0 0-.78-2.77 3.2 3.2 0 0 0-2-1.56 5 5 0 0 0-3.16.21 4 4 0 0 0-1.17.75 6 6 0 0 0-1.65 3.69.4.4 0 0 0 .4.47 7 7 0 0 0 .8 0q1.55.03 3.11.02m-24.28.24V44.94a8 8 0 0 0 0-1 .4.4 0 0 0-.39-.4c-.3 0-.6-.05-.9-.05h-6.14a1.13 1.13 0 0 1-1.25-1.06 6.4 6.4 0 0 1 0-2.79c.16-.71.47-.93 1.21-1H342a.9.9 0 0 1 .89.69 6 6 0 0 1 0 3.37 1 1 0 0 1-.89.72 7 7 0 0 1-.9 0h-5.5c-1.25 0-1.28 0-1.28 1.32v23.1a1.2 1.2 0 0 1-.91 1.18 3 3 0 0 1-.79.15h-2.51l-.5-.06a1.33 1.33 0 0 1-1.24-1.45v-.91Z" class="a"/></svg>