<svg xmlns="http://www.w3.org/2000/svg" viewBox="0 0 407.93 102.19"><defs><style>.a{fill:#fff;}.b{fill:none;stroke:#fff;stroke-miterlimit:10;stroke-width:2px;}</style></defs><circle class="a" cx="177.17" cy="41.41" r="2.45"/><path class="a" d="M39.75,39.05a13.71,13.71,0,0,0-27.27,0A13.71,13.71,0,0,0,14,66.42H26.11a7.66,7.66,0,1,0,0-15.31,4.47,4.47,0,0,1,0-8.94,4.42,4.42,0,0,1,3.13,1.3,1.59,1.59,0,0,0,2.3-2.21l0,0a7.66,7.66,0,1,0-5.42,13.05,4.47,4.47,0,0,1,0,8.94H14a10.53,10.53,0,1,1,0-21.06,1.6,1.6,0,0,0,1.59-1.6,10.53,10.53,0,0,1,21.06,0h0a1.6,1.6,0,0,0,1.6,1.6,10.53,10.53,0,1,1,0,21.06h0a1.6,1.6,0,1,0,0,3.19A13.72,13.72,0,0,0,39.75,39Z"/><path class="a" d="M70.66,56.19c-.78-.32-1.49-.55-2.51-.9-1.84-.59-3.64-1.26-3.64-2.78s1.18-2.31,3-2.31a6.76,6.76,0,0,1,4.7,2l1.57-2.32a8.15,8.15,0,0,0-6.34-2.42c-3.29,0-6.27,1.88-6.27,5.32a4.79,4.79,0,0,0,2.93,4.46,13.66,13.66,0,0,0,2.55,1c1.25.43,4.19,1.06,4.19,3.11S69,64,67.26,64a7.65,7.65,0,0,1-5.49-2.66L60,63.52a8.93,8.93,0,0,0,7.24,3.33,7.91,7.91,0,0,0,5.17-1.65A5.3,5.3,0,0,0,74.3,61a4.56,4.56,0,0,0-1.49-3.45A7.07,7.07,0,0,0,70.66,56.19Z"/><path class="a" d="M84.27,47.46a14.36,14.36,0,0,0-7,1.88l1.14,2.5a11.39,11.39,0,0,1,5.6-1.6c2.7,0,4.62,1.41,4.62,4.22v.75l-5,.2c-4.31.19-7.27,2-7.27,5.67s3,5.75,6.41,5.75a7.62,7.62,0,0,0,5.92-2.76l0,2.35h3.63V55.6c0-3.17-.74-4.74-2-6S87.36,47.46,84.27,47.46Zm4.43,14A5.86,5.86,0,0,1,84,64.17c-2.43,0-3.84-1.45-3.84-3.21s1.22-3.05,4.23-3.21l4.35-.27Z"/><path class="a" d="M114.22,47.46a9.23,9.23,0,0,0-9.43,9.63c0,5.87,3.79,9.74,9.31,9.74s8-2.74,8.18-2.93l-1.56-2.16a10.26,10.26,0,0,1-6.15,2.16c-3.45,0-5.79-2.23-6-5.91h14.33a15.26,15.26,0,0,0,.12-1.65A8.49,8.49,0,0,0,114.22,47.46Zm-5.6,8a5.47,5.47,0,0,1,5.49-5.32,5.39,5.39,0,0,1,5.36,5.32Z"/><path class="a" d="M135.06,56.19c-.78-.32-1.49-.55-2.5-.9-1.85-.59-3.64-1.26-3.64-2.78s1.17-2.31,3-2.31a6.81,6.81,0,0,1,4.7,2l1.57-2.32a8.13,8.13,0,0,0-6.34-2.42c-3.29,0-6.27,1.88-6.27,5.32a4.79,4.79,0,0,0,2.93,4.46,14.23,14.23,0,0,0,2.55,1c1.25.43,4.19,1.06,4.19,3.1S133.38,64,131.65,64a7.65,7.65,0,0,1-5.48-2.66l-1.81,2.19a8.94,8.94,0,0,0,7.25,3.32,7.89,7.89,0,0,0,5.16-1.64A5.28,5.28,0,0,0,138.69,61a4.56,4.56,0,0,0-1.49-3.44A6.87,6.87,0,0,0,135.06,56.19Z"/><path class="a" d="M151.1,47.46a7.86,7.86,0,0,0-6.59,3.29h-.08V47.81h-3.6V73.48h3.76v-10l0,0A7.23,7.23,0,0,0,151,66.83c5.52,0,9.05-4.22,9.05-9.74S156.58,47.46,151.1,47.46Zm-.78,16.16c-3.72,0-5.91-2.85-5.91-6.57s2.19-6.54,5.91-6.54,5.91,2.82,5.91,6.54S154,63.62,150.32,63.62Z"/><rect class="a" x="175.31" y="47.81" width="3.76" height="18.59"/><path class="a" d="M191.74,47.46a6.26,6.26,0,0,0-5.69,3.29h-.11l0-2.94h-3.76V66.42H186V57.05c0-3.56,1.29-6.5,4.77-6.5s3.88,2.35,3.88,5.49V66.42h3.75v-11C198.4,50.94,197,47.46,191.74,47.46Z"/><path class="a" d="M216,47.81l0,2.94H216a7.41,7.41,0,0,0-6.5-3.29c-4.77,0-9,3.44-9,9.35s4.19,9.36,9,9.36a7.45,7.45,0,0,0,6.5-3.33H216v.73a8.3,8.3,0,0,1-1.41,5.21,6.33,6.33,0,0,1-5.09,2,11.8,11.8,0,0,1-6.66-2.35l-1.76,2.62a14.31,14.31,0,0,0,8.29,2.78c4.62,0,6.93-1.88,8.31-3.57s2-3.92,2-8V47.81ZM210.25,63.1c-3.8,0-5.91-2.78-5.91-6.31s2.11-6.34,5.91-6.34,5.91,2.82,5.91,6.34-2.07,6.33-5.91,6.33Z"/><path class="a" d="M96.83,41c-.79,1-1.26,2.54-1.26,5V66.42h3.72V50.86h4.42v-3H99.29V45.78c0-2.12.39-4,2.86-4a7.59,7.59,0,0,1,1.57.2V39.18a12.41,12.41,0,0,0-2.43-.22A5.61,5.61,0,0,0,96.83,41Z"/><path class="a" d="M166,50.67h-.12l0-2.86h-3.76V66.42h3.76V57.13a8.34,8.34,0,0,1,1.13-4.71,3.92,3.92,0,0,1,3.06-1.56,4.71,4.71,0,0,1,2,.39V47.64a5.85,5.85,0,0,0-1.56-.19A4.87,4.87,0,0,0,166,50.67Z"/><line class="b" x1="281.43" y1="0.35" x2="243.91" y2="101.85"/><path class="a" d="M348.63,43.5c.35-1,.69-1.92,1.06-2.88a62.21,62.21,0,0,1,9.59-17.34c4.43-5.42,9.81-9.48,16.8-10.9,6.55-1.34,12.92-1,18.71,2.79,5,3.25,7.71,7.88,7.48,14A20.28,20.28,0,0,1,398.32,40,40.29,40.29,0,0,1,385.6,51.54c-3.21,1.92-6.61,3.53-9.94,5.26a2.14,2.14,0,0,1-.88.19,34,34,0,0,0,9.39-8.33,16,16,0,0,0,3.52-9.87,12,12,0,0,0-6.67-11c-7-3.76-14-3.07-20.6,1.06-4.62,2.88-7.7,7.18-10.22,11.91-.49.91-.93,1.85-1.4,2.77Z"/><path class="a" d="M347,63c.35-1.71.62-3.23,1-4.73a40.39,40.39,0,0,1,4.85-12.38c2-3.23,4.57-5.92,8.34-7.11a11.47,11.47,0,0,1,8.52.36,7.09,7.09,0,0,1,3.71,9.82A16.58,16.58,0,0,1,366.88,56a45.76,45.76,0,0,1-14.3,5.78C350.81,62.18,349,62.52,347,63Z"/><path class="a" d="M351,44.19c2.8-6.12,6.39-11.63,12.67-14.66,5.47-2.64,11.1-2.82,16.51.31a10.11,10.11,0,0,1,5.36,8.81,13.26,13.26,0,0,1-2.29,7.52,28.74,28.74,0,0,1-9.86,9.06c-1.64,1-3.4,1.78-5.1,2.67l-.12-.14a22,22,0,0,0,6.13-5.91c1.74-2.71,2.61-5.62,1.67-8.79-1.17-3.9-4.09-6-7.89-6.77-5.78-1.17-10.66.68-14.59,5-.85.94-1.57,2-2.35,3Z"/><path class="a" d="M342,72.35c-.06-.85.35-.95.94-.91s1.41,0,2.25,0l-2,13.93h-3v-1a5.07,5.07,0,0,1-4.46.88,3.54,3.54,0,0,1-2.69-3.89c.23-2,.44-3.93.83-5.87A5.07,5.07,0,0,1,342,72.35Zm-.74,3.3a2.93,2.93,0,0,0-.46-1.05c-1-1-3.26-.43-3.55,1-.38,1.81-.59,3.67-.82,5.52a1.33,1.33,0,0,0,.31.91,2.07,2.07,0,0,0,2.13.46A1.84,1.84,0,0,0,340.49,81C340.77,79.31,341,77.61,341.27,75.65Z"/><path class="a" d="M385.73,90.5c1-1.93,1.86-3.66,2.7-5.41a1.65,1.65,0,0,0,.12-1c-.89-4.07-1.82-8.14-2.74-12.21a2.27,2.27,0,0,1,0-.37h3.48c.55,2.79,1.1,5.62,1.71,8.7l4.19-8.73h3.53c-.76,1.54-1.49,3-2.23,4.49-2.34,4.62-4.69,9.24-7,13.88a1,1,0,0,1-1.15.69C387.53,90.46,386.72,90.5,385.73,90.5Z"/><path class="a" d="M323.22,82.52l-.41,2.87c-1.88,0-3.72.1-5.55,0-2.84-.2-4-1.92-3.61-5,.19-1.4.4-2.79.62-4.19a5.27,5.27,0,0,1,5.17-4.88,8.47,8.47,0,0,1,2.61.17,3.28,3.28,0,0,1,2.77,2.75c.27,1.75-.06,3.41-1.74,4.36a28.85,28.85,0,0,1-3.56,1.52c-.66.26-1.34.44-2,.69-.23.09-.6.33-.59.45a1.44,1.44,0,0,0,.44.93,2.66,2.66,0,0,0,1.28.31C320.15,82.54,321.65,82.52,323.22,82.52Zm-5.86-4.71c1.27-.45,2.41-.84,3.54-1.26a1.24,1.24,0,0,0,.84-1.42c-.1-.65-.62-.89-1.23-1-1.92-.21-2.79.5-3,2.43C317.49,77,317.43,77.32,317.36,77.81Z"/><path class="a" d="M355.59,71.19l-.43,3c-1.41,0-2.77,0-4.12,0-.68,0-1.49,0-1.67.82s.65,1.09,1.23,1.38c.75.39,1.55.68,2.3,1.08a4,4,0,0,1,.11,7,6.8,6.8,0,0,1-2.69.93c-1.88.14-3.78,0-5.7,0l.42-2.84h3.85a9.41,9.41,0,0,0,1.19,0c.64-.09,1.23-.28,1.39-1s-.29-1.12-.82-1.41-1.27-.62-1.91-.91c-2.19-1-3.06-2.22-2.85-4a4.08,4.08,0,0,1,3.78-3.64C351.6,71.23,353.56,71.28,355.59,71.19Z"/><path class="a" d="M385,71.31l-.42,2.85c-1.4,0-2.76,0-4.11,0-.68,0-1.5,0-1.68.82s.65,1.08,1.24,1.38c.8.41,1.65.73,2.43,1.17a3.94,3.94,0,0,1,.19,6.71,7.25,7.25,0,0,1-2.89,1.07c-1.88.17-3.78,0-5.7,0l.4-2.84c1.33,0,2.68,0,4,0a4.38,4.38,0,0,0,1.5-.17,1.44,1.44,0,0,0,.85-.88,1.65,1.65,0,0,0-.5-1.22,6.56,6.56,0,0,0-1.48-.8,17,17,0,0,1-1.95-1,3.54,3.54,0,0,1,0-6,7.15,7.15,0,0,1,3.06-1.1A47.19,47.19,0,0,1,385,71.31Z"/><path class="a" d="M397,85.4l.43-2.88c1.51,0,3,0,4.44,0,.8,0,1.66,0,2-1,.23-.74-.17-1.23-1.33-1.79a23.28,23.28,0,0,1-2.64-1.33,3.53,3.53,0,0,1,0-6,7.15,7.15,0,0,1,3.05-1.1,47.24,47.24,0,0,1,5.06,0l-.41,2.84c-1.17,0-2.34,0-3.52,0a5,5,0,0,0-1.51.15,1.27,1.27,0,0,0-.78.74c-.06.25.24.69.5.87a11.2,11.2,0,0,0,1.58.81c.55.27,1.12.53,1.65.83,2.74,1.55,2.23,5.16.31,6.6a6,6,0,0,1-3.46,1.22C400.56,85.45,398.83,85.4,397,85.4Z"/><path class="a" d="M328.53,68.91h-2l.4-2.87h5.4L330,82.52h2.34l-.41,2.82h-8.06l.41-2.8h2.36Z"/><path class="a" d="M359.5,68.41h3.3l-.38,3c.71,0,1.33,0,1.94,0s.7.2.59.72-.21,1.28-.32,2H362c-.35,2.5-.7,5-1.05,7.4-.1.73.36,1,1,1,.79,0,1.58,0,2.4,0l-.38,2.9c-1.55-.06-3.12.24-4.66-.32a2.67,2.67,0,0,1-1.68-3.22c.36-2.54.7-5.09,1.06-7.69h-2.55l.41-2.88h2.55Z"/><path class="a" d="M372.62,71.32c-.53,3.75-1,7.43-1.57,11.19h2.36L373,85.37h-8.07l.41-2.87h2.35l1.15-8.33h-2l.4-2.85Z"/><path class="a" d="M370.07,65.62h3.33l-.48,3.58h-3.36Z"/><path class="a" d="M351.15,44.32l-.17.24-.1,0,.13-.33Z"/><path class="a" d="M368.3,57.9,368,58l0-.1a2.2,2.2,0,0,1,.25-.17Z"/></svg>