<svg xmlns="http://www.w3.org/2000/svg" xmlns:xlink="http://www.w3.org/1999/xlink" width="432" height="285" viewBox="0 0 432 285">
  <defs>
    <style>
      .cls-1 {
        fill: none;
      }

      .cls-2 {
        fill: #fff;
      }

      .cls-3 {
        isolation: isolate;
      }

      .cls-4 {
        fill: #195f8c;
      }

      .cls-5 {
        clip-path: url(#clip-path);
      }

      .cls-6 {
        fill: #32cd32;
      }

      .cls-7 {
        clip-path: url(#clip-path-2);
      }

      .cls-8 {
        fill: #3c9bcd;
      }

      .cls-9 {
        fill: #fa690f;
      }

      .cls-10 {
        filter: url(#Rectangle_18);
      }

      .cls-11 {
        filter: url(#Rectangle_17);
      }

      .cls-12 {
        filter: url(#Rectangle_16);
      }

      .cls-13 {
        filter: url(#Rectangle_15);
      }

      .cls-14 {
        filter: url(#Rectangle_14);
      }

      .cls-15 {
        filter: url(#Rectangle_13);
      }
    </style>
    <filter id="Rectangle_13" x="0" y="0" width="144" height="144" filterUnits="userSpaceOnUse">
      <feOffset dy="3" input="SourceAlpha"/>
      <feGaussianBlur stdDeviation="3" result="blur"/>
      <feFlood flood-opacity="0.161"/>
      <feComposite operator="in" in2="blur"/>
      <feComposite in="SourceGraphic"/>
    </filter>
    <filter id="Rectangle_14" x="144" y="0" width="144" height="144" filterUnits="userSpaceOnUse">
      <feOffset dy="3" input="SourceAlpha"/>
      <feGaussianBlur stdDeviation="3" result="blur-2"/>
      <feFlood flood-opacity="0.161"/>
      <feComposite operator="in" in2="blur-2"/>
      <feComposite in="SourceGraphic"/>
    </filter>
    <filter id="Rectangle_15" x="288" y="141" width="144" height="144" filterUnits="userSpaceOnUse">
      <feOffset dy="3" input="SourceAlpha"/>
      <feGaussianBlur stdDeviation="3" result="blur-3"/>
      <feFlood flood-opacity="0.161"/>
      <feComposite operator="in" in2="blur-3"/>
      <feComposite in="SourceGraphic"/>
    </filter>
    <filter id="Rectangle_16" x="144" y="141" width="144" height="144" filterUnits="userSpaceOnUse">
      <feOffset dy="3" input="SourceAlpha"/>
      <feGaussianBlur stdDeviation="3" result="blur-4"/>
      <feFlood flood-opacity="0.161"/>
      <feComposite operator="in" in2="blur-4"/>
      <feComposite in="SourceGraphic"/>
    </filter>
    <filter id="Rectangle_17" x="0" y="141" width="144" height="144" filterUnits="userSpaceOnUse">
      <feOffset dy="3" input="SourceAlpha"/>
      <feGaussianBlur stdDeviation="3" result="blur-5"/>
      <feFlood flood-opacity="0.161"/>
      <feComposite operator="in" in2="blur-5"/>
      <feComposite in="SourceGraphic"/>
    </filter>
    <filter id="Rectangle_18" x="288" y="0" width="144" height="144" filterUnits="userSpaceOnUse">
      <feOffset dy="3" input="SourceAlpha"/>
      <feGaussianBlur stdDeviation="3" result="blur-6"/>
      <feFlood flood-opacity="0.161"/>
      <feComposite operator="in" in2="blur-6"/>
      <feComposite in="SourceGraphic"/>
    </filter>
    <clipPath id="clip-path">
      <rect id="Rectangle_19" data-name="Rectangle 19" class="cls-1" width="51" height="51" transform="translate(658.352 270.711)"/>
    </clipPath>
    <clipPath id="clip-path-2">
      <rect id="Rectangle_20" data-name="Rectangle 20" class="cls-1" width="51" height="51" transform="translate(514.852 269.704)"/>
    </clipPath>
  </defs>
  <g id="Lager_1" data-name="Lager 1" transform="translate(-467.352 -244.711)">
    <g id="Compute">
      <g id="Group_27" data-name="Group 27">
        <g class="cls-15" transform="matrix(1, 0, 0, 1, 467.35, 244.71)">
          <rect id="Rectangle_13-2" data-name="Rectangle 13" class="cls-2" width="126" height="126" rx="7" transform="translate(9 6)"/>
        </g>
        <g class="cls-14" transform="matrix(1, 0, 0, 1, 467.35, 244.71)">
          <rect id="Rectangle_14-2" data-name="Rectangle 14" class="cls-2" width="126" height="126" rx="7" transform="translate(153 6)"/>
        </g>
        <g class="cls-13" transform="matrix(1, 0, 0, 1, 467.35, 244.71)">
          <rect id="Rectangle_15-2" data-name="Rectangle 15" class="cls-2" width="126" height="126" rx="7" transform="translate(297 147)"/>
        </g>
        <g class="cls-12" transform="matrix(1, 0, 0, 1, 467.35, 244.71)">
          <rect id="Rectangle_16-2" data-name="Rectangle 16" class="cls-2" width="126" height="126" rx="7" transform="translate(153 147)"/>
        </g>
        <g class="cls-11" transform="matrix(1, 0, 0, 1, 467.35, 244.71)">
          <rect id="Rectangle_17-2" data-name="Rectangle 17" class="cls-2" width="126" height="126" rx="7" transform="translate(9 147)"/>
        </g>
        <g class="cls-10" transform="matrix(1, 0, 0, 1, 467.35, 244.71)">
          <rect id="Rectangle_18-2" data-name="Rectangle 18" class="cls-2" width="126" height="126" rx="7" transform="translate(297 6)"/>
        </g>
      </g>
      <g id="No_vendor_Lock-in" data-name="No vendor Lock-in" class="cls-3">
        <g id="Group_10" data-name="Group 10" class="cls-3">
          <path id="Path_1" data-name="Path 1" class="cls-4" d="M657.852,335.724v7h-1.33l-3.49-4.25v4.25h-1.6v-7h1.34l3.48,4.25v-4.25Z"/>
          <path id="Path_2" data-name="Path 2" class="cls-4" d="M660.937,342.375a3.5,3.5,0,0,1-1.37-1.3,3.725,3.725,0,0,1,0-3.711,3.488,3.488,0,0,1,1.37-1.295,4.332,4.332,0,0,1,3.925,0,3.571,3.571,0,0,1,0,6.3,4.34,4.34,0,0,1-3.925,0Zm3.085-1.2a2.047,2.047,0,0,0,.785-.795,2.5,2.5,0,0,0,0-2.32,2.047,2.047,0,0,0-.785-.795,2.343,2.343,0,0,0-2.24,0,2.047,2.047,0,0,0-.785.795,2.5,2.5,0,0,0,0,2.32,2.047,2.047,0,0,0,.785.795,2.343,2.343,0,0,0,2.24,0Z"/>
          <path id="Path_3" data-name="Path 3" class="cls-4" d="M677.512,335.724l-3.031,7h-1.6l-3.02-7h1.75l2.13,5,2.16-5Z"/>
          <path id="Path_4" data-name="Path 4" class="cls-4" d="M683.512,341.424v1.3h-5.42v-7h5.29v1.3H679.7v1.52h3.25v1.26H679.7v1.62Z"/>
          <path id="Path_5" data-name="Path 5" class="cls-4" d="M691.222,335.724v7h-1.33l-3.49-4.25v4.25h-1.6v-7h1.34l3.48,4.25v-4.25Z"/>
          <path id="Path_6" data-name="Path 6" class="cls-4" d="M692.882,335.724h3.18a4.471,4.471,0,0,1,2.015.435,3.268,3.268,0,0,1,1.36,1.225,3.733,3.733,0,0,1,0,3.68,3.264,3.264,0,0,1-1.36,1.226,4.471,4.471,0,0,1-2.015.434h-3.18Zm3.1,5.67a2.353,2.353,0,0,0,1.675-.585,2.322,2.322,0,0,0,0-3.17,2.357,2.357,0,0,0-1.675-.585H694.5v4.34Z"/>
          <path id="Path_7" data-name="Path 7" class="cls-4" d="M702.566,342.375a3.5,3.5,0,0,1-1.37-1.3,3.732,3.732,0,0,1,0-3.711,3.488,3.488,0,0,1,1.37-1.295,4.334,4.334,0,0,1,3.926,0,3.572,3.572,0,0,1,0,6.3,4.343,4.343,0,0,1-3.926,0Zm3.085-1.2a2.043,2.043,0,0,0,.786-.795,2.5,2.5,0,0,0,0-2.32,2.043,2.043,0,0,0-.786-.795,2.341,2.341,0,0,0-2.239,0,2.034,2.034,0,0,0-.785.795,2.5,2.5,0,0,0,0,2.32,2.034,2.034,0,0,0,.785.795,2.341,2.341,0,0,0,2.239,0Z"/>
          <path id="Path_8" data-name="Path 8" class="cls-4" d="M714.042,342.724l-1.351-1.95H711.2v1.95h-1.62v-7h3.029a3.905,3.905,0,0,1,1.616.31,2.389,2.389,0,0,1,1.054.881,2.416,2.416,0,0,1,.37,1.349,2.281,2.281,0,0,1-1.439,2.21l1.569,2.25Zm-.41-5.365a1.7,1.7,0,0,0-1.111-.315H711.2v2.44h1.319a1.694,1.694,0,0,0,1.111-.319,1.263,1.263,0,0,0,0-1.806Z"/>
        </g>
        <g id="Group_11" data-name="Group 11" class="cls-3">
          <path id="Path_9" data-name="Path 9" class="cls-4" d="M662.207,348.724h1.62v5.68h3.51v1.32h-5.13Z"/>
          <path id="Path_10" data-name="Path 10" class="cls-4" d="M669.552,355.375a3.5,3.5,0,0,1-1.37-1.3,3.725,3.725,0,0,1,0-3.711,3.482,3.482,0,0,1,1.37-1.295,4.332,4.332,0,0,1,3.925,0,3.571,3.571,0,0,1,0,6.3,4.34,4.34,0,0,1-3.925,0Zm3.085-1.2a2.048,2.048,0,0,0,.785-.795,2.5,2.5,0,0,0,0-2.32,2.048,2.048,0,0,0-.785-.795,2.343,2.343,0,0,0-2.24,0,2.041,2.041,0,0,0-.785.795,2.5,2.5,0,0,0,0,2.32,2.041,2.041,0,0,0,.785.795,2.343,2.343,0,0,0,2.24,0Z"/>
          <path id="Path_11" data-name="Path 11" class="cls-4" d="M677.982,355.379a3.468,3.468,0,0,1-1.36-1.29,3.761,3.761,0,0,1,0-3.73,3.468,3.468,0,0,1,1.36-1.29,4.34,4.34,0,0,1,3.59-.145,3.3,3.3,0,0,1,1.235.92l-1.04.96a2.236,2.236,0,0,0-1.76-.82,2.346,2.346,0,0,0-1.16.285,2.026,2.026,0,0,0-.795.795,2.5,2.5,0,0,0,0,2.32,2.026,2.026,0,0,0,.795.795,2.335,2.335,0,0,0,1.16.285,2.224,2.224,0,0,0,1.76-.83l1.04.96a3.252,3.252,0,0,1-1.24.93,4.108,4.108,0,0,1-1.65.32A4.023,4.023,0,0,1,677.982,355.379Z"/>
          <path id="Path_12" data-name="Path 12" class="cls-4" d="M686.447,352.974l-.94.981v1.769H683.9v-7h1.61v3.27l3.1-3.27h1.8l-2.9,3.12,3.07,3.88h-1.89Z"/>
          <path id="Path_13" data-name="Path 13" class="cls-4" d="M690.627,352.284h2.83v1.25h-2.83Z"/>
          <path id="Path_14" data-name="Path 14" class="cls-4" d="M694.8,348.724h1.62v7H694.8Z"/>
          <path id="Path_15" data-name="Path 15" class="cls-4" d="M704.5,348.724v7h-1.33l-3.49-4.25v4.25h-1.6v-7h1.34l3.479,4.25v-4.25Z"/>
        </g>
      </g>
      <g id="Group_13" data-name="Group 13">
        <g id="Group_12" data-name="Group 12" class="cls-5">
          <g id="Group_2" data-name="Group 2">
            <g id="lock-open-solid">
              <path id="Path_16" data-name="Path 16" class="cls-4" d="M696.2,276.806a11.6,11.6,0,0,0-11.481,11.635v5.344h-16.98a3.641,3.641,0,0,0-3.639,3.639v14.554a3.64,3.64,0,0,0,3.639,3.639H694.42a3.639,3.639,0,0,0,3.639-3.639V297.424a3.64,3.64,0,0,0-3.639-3.639h-3.639v-5.39a5.459,5.459,0,0,1,10.917-.068v6.064a1.815,1.815,0,0,0,1.815,1.815h2.429a1.815,1.815,0,0,0,1.819-1.811v-6.068a11.536,11.536,0,0,0-11.549-11.521Z"/>
            </g>
          </g>
        </g>
      </g>
      <g id="Data_sovereignty" data-name="Data sovereignty" class="cls-3">
        <g id="Group_14" data-name="Group 14" class="cls-3">
          <path id="Path_17" data-name="Path 17" class="cls-6" d="M524.787,334.718h3.18a4.471,4.471,0,0,1,2.015.435,3.261,3.261,0,0,1,1.36,1.225,3.733,3.733,0,0,1,0,3.68,3.257,3.257,0,0,1-1.36,1.226,4.471,4.471,0,0,1-2.015.434h-3.18Zm3.1,5.67a2.351,2.351,0,0,0,1.675-.585,2.322,2.322,0,0,0,0-3.17,2.356,2.356,0,0,0-1.675-.585h-1.48v4.34Z"/>
          <path id="Path_18" data-name="Path 18" class="cls-6" d="M537.557,340.218h-3.25l-.62,1.5h-1.66l3.12-7h1.6l3.13,7h-1.7Zm-.51-1.23-1.11-2.68-1.11,2.68Z"/>
          <path id="Path_19" data-name="Path 19" class="cls-6" d="M541.707,336.039h-2.24v-1.321h6.1v1.321h-2.24v5.679h-1.62Z"/>
          <path id="Path_20" data-name="Path 20" class="cls-6" d="M550.7,340.218h-3.25l-.62,1.5h-1.66l3.12-7h1.6l3.13,7h-1.7Zm-.51-1.23-1.11-2.68-1.11,2.68Z"/>
        </g>
        <g id="Group_15" data-name="Group 15" class="cls-3">
          <path id="Path_21" data-name="Path 21" class="cls-6" d="M504.1,354.613a3.758,3.758,0,0,1-1.245-.585l.55-1.22a3.715,3.715,0,0,0,1.07.53,4.006,4.006,0,0,0,1.24.2,1.976,1.976,0,0,0,1.02-.206.618.618,0,0,0,.33-.544.519.519,0,0,0-.195-.415,1.471,1.471,0,0,0-.5-.266c-.2-.066-.478-.14-.825-.22a11.425,11.425,0,0,1-1.31-.38,2.129,2.129,0,0,1-.875-.61,1.647,1.647,0,0,1-.365-1.12,1.95,1.95,0,0,1,.33-1.105,2.226,2.226,0,0,1,.995-.785,4.068,4.068,0,0,1,1.625-.29,5.408,5.408,0,0,1,1.31.16,3.876,3.876,0,0,1,1.12.46l-.5,1.231a3.9,3.9,0,0,0-1.94-.551,1.817,1.817,0,0,0-1.005.221.669.669,0,0,0-.325.58.566.566,0,0,0,.375.534,5.908,5.908,0,0,0,1.145.346,11.383,11.383,0,0,1,1.31.379,2.173,2.173,0,0,1,.875.6,1.608,1.608,0,0,1,.365,1.11,1.914,1.914,0,0,1-.335,1.1,2.245,2.245,0,0,1-1.005.785,4.083,4.083,0,0,1-1.63.29A5.731,5.731,0,0,1,504.1,354.613Z"/>
          <path id="Path_22" data-name="Path 22" class="cls-6" d="M511.212,354.369a3.488,3.488,0,0,1-1.37-1.295,3.725,3.725,0,0,1,0-3.711,3.481,3.481,0,0,1,1.37-1.3,4.332,4.332,0,0,1,3.925,0,3.571,3.571,0,0,1,0,6.3,4.34,4.34,0,0,1-3.925,0Zm3.085-1.2a2.047,2.047,0,0,0,.785-.8,2.5,2.5,0,0,0,0-2.32,2.054,2.054,0,0,0-.785-.8,2.343,2.343,0,0,0-2.24,0,2.054,2.054,0,0,0-.785.8,2.5,2.5,0,0,0,0,2.32,2.047,2.047,0,0,0,.785.8,2.343,2.343,0,0,0,2.24,0Z"/>
          <path id="Path_23" data-name="Path 23" class="cls-6" d="M524.727,347.718l-3.03,7h-1.6l-3.02-7h1.75l2.13,5,2.16-5Z"/>
          <path id="Path_24" data-name="Path 24" class="cls-6" d="M530.727,353.418v1.3h-5.42v-7h5.29v1.3h-3.68v1.521h3.25V351.8h-3.25v1.62Z"/>
          <path id="Path_25" data-name="Path 25" class="cls-6" d="M536.477,354.718l-1.351-1.95h-1.489v1.95h-1.62v-7h3.029a3.9,3.9,0,0,1,1.616.31,2.407,2.407,0,0,1-.016,4.44l1.57,2.25Zm-.411-5.365a1.7,1.7,0,0,0-1.109-.314h-1.32v2.439h1.32a1.682,1.682,0,0,0,1.109-.319,1.263,1.263,0,0,0,0-1.806Z"/>
          <path id="Path_26" data-name="Path 26" class="cls-6" d="M544.787,353.418v1.3h-5.42v-7h5.29v1.3h-3.68v1.521h3.25V351.8h-3.25v1.62Z"/>
          <path id="Path_27" data-name="Path 27" class="cls-6" d="M546.077,347.718h1.62v7h-1.62Z"/>
          <path id="Path_28" data-name="Path 28" class="cls-6" d="M554.086,351.108h1.48v2.841a4.218,4.218,0,0,1-1.319.659,5.141,5.141,0,0,1-1.511.23,4.1,4.1,0,0,1-1.96-.464,3.471,3.471,0,0,1-1.365-1.291,3.767,3.767,0,0,1,0-3.73,3.456,3.456,0,0,1,1.375-1.29,4.175,4.175,0,0,1,1.981-.465,4.328,4.328,0,0,1,1.67.311,3.3,3.3,0,0,1,1.259.9l-1.04.96a2.407,2.407,0,0,0-1.81-.79,2.478,2.478,0,0,0-1.19.28,2.019,2.019,0,0,0-.81.79,2.329,2.329,0,0,0-.29,1.17,2.3,2.3,0,0,0,.29,1.16,2.058,2.058,0,0,0,.8.8,2.388,2.388,0,0,0,1.175.285,2.635,2.635,0,0,0,1.26-.3Z"/>
          <path id="Path_29" data-name="Path 29" class="cls-6" d="M563.486,347.718v7h-1.33l-3.489-4.25v4.25h-1.6v-7h1.34l3.48,4.25v-4.25Z"/>
          <path id="Path_30" data-name="Path 30" class="cls-6" d="M566.6,349.039h-2.24v-1.321h6.1v1.321h-2.241v5.679H566.6Z"/>
          <path id="Path_31" data-name="Path 31" class="cls-6" d="M574.556,352.238v2.48h-1.62v-2.5l-2.71-4.5h1.72l1.87,3.111,1.87-3.111h1.59Z"/>
        </g>
      </g>
      <g id="Group_17" data-name="Group 17">
        <g id="Group_16" data-name="Group 16" class="cls-7">
          <g id="Mask_Group_3" data-name="Mask Group 3">
            <g id="user-lock-solid">
              <path id="Path_32" data-name="Path 32" class="cls-6" d="M532.7,295.2A10.2,10.2,0,1,0,522.5,285a10.2,10.2,0,0,0,10.2,10.2Zm7.65,5.1a5.038,5.038,0,0,1,.645-2.43,11.158,11.158,0,0,0-1.155-.12h-1.331a13.87,13.87,0,0,1-11.618,0h-1.331a10.712,10.712,0,0,0-10.71,10.708v3.317a3.825,3.825,0,0,0,3.825,3.825h22.384a5.065,5.065,0,0,1-.709-2.55Zm22.95-2.55h-2.55v-6.375a6.375,6.375,0,0,0-12.75,0v6.375h-2.55a2.55,2.55,0,0,0-2.55,2.55v12.75a2.55,2.55,0,0,0,2.55,2.55H563.3a2.55,2.55,0,0,0,2.55-2.55V300.3A2.55,2.55,0,0,0,563.3,297.754Zm-8.925,11.475a2.55,2.55,0,1,1,2.55-2.55h0A2.55,2.55,0,0,1,554.377,309.229Zm2.55-11.475h-5.1v-6.375a2.55,2.55,0,0,1,5.1,0Z"/>
            </g>
          </g>
        </g>
      </g>
      <g id="OPEN_SOURCE" data-name="OPEN SOURCE" class="cls-3">
        <g id="Group_18" data-name="Group 18" class="cls-3">
          <path id="Path_33" data-name="Path 33" class="cls-8" d="M524.967,483.375a3.482,3.482,0,0,1-1.37-1.3,3.725,3.725,0,0,1,0-3.711,3.489,3.489,0,0,1,1.37-1.295,4.332,4.332,0,0,1,3.925,0,3.571,3.571,0,0,1,0,6.3,4.332,4.332,0,0,1-3.925,0Zm3.085-1.2a2.054,2.054,0,0,0,.785-.795,2.5,2.5,0,0,0,0-2.321,2.052,2.052,0,0,0-.785-.794,2.336,2.336,0,0,0-2.24,0,2.052,2.052,0,0,0-.785.794,2.505,2.505,0,0,0,0,2.321,2.054,2.054,0,0,0,.785.795,2.343,2.343,0,0,0,2.24,0Z"/>
          <path id="Path_34" data-name="Path 34" class="cls-8" d="M536.627,477.034a2.4,2.4,0,0,1,1.055.881,2.637,2.637,0,0,1,0,2.694,2.356,2.356,0,0,1-1.055.88,3.934,3.934,0,0,1-1.615.306H533.6v1.93h-1.62v-7h3.03A3.9,3.9,0,0,1,536.627,477.034Zm-.6,3.125a1.1,1.1,0,0,0,.38-.894,1.111,1.111,0,0,0-.38-.906,1.7,1.7,0,0,0-1.11-.314H533.6v2.43h1.32A1.7,1.7,0,0,0,536.032,480.159Z"/>
          <path id="Path_35" data-name="Path 35" class="cls-8" d="M544.622,482.425v1.3H539.2v-7h5.29v1.3h-3.68v1.521h3.25v1.26h-3.25v1.62Z"/>
          <path id="Path_36" data-name="Path 36" class="cls-8" d="M552.332,476.725v7H551l-3.489-4.25v4.25h-1.6v-7h1.339l3.48,4.25v-4.25Z"/>
        </g>
        <g id="Group_19" data-name="Group 19" class="cls-3">
          <path id="Path_37" data-name="Path 37" class="cls-8" d="M518.832,496.619a3.739,3.739,0,0,1-1.245-.585l.55-1.22a3.743,3.743,0,0,0,1.07.531,4,4,0,0,0,1.24.2,1.977,1.977,0,0,0,1.02-.205.62.62,0,0,0,.33-.545.519.519,0,0,0-.2-.415,1.506,1.506,0,0,0-.5-.266q-.3-.1-.825-.219a11.429,11.429,0,0,1-1.31-.38,2.123,2.123,0,0,1-.875-.611,1.647,1.647,0,0,1-.365-1.12,1.946,1.946,0,0,1,.33-1.1,2.22,2.22,0,0,1,.995-.785,4.05,4.05,0,0,1,1.625-.291,5.358,5.358,0,0,1,1.31.161,3.82,3.82,0,0,1,1.12.46l-.5,1.23a3.9,3.9,0,0,0-1.94-.551,1.826,1.826,0,0,0-1.005.221.67.67,0,0,0-.325.58.566.566,0,0,0,.375.534,5.84,5.84,0,0,0,1.145.346,11.169,11.169,0,0,1,1.31.38,2.171,2.171,0,0,1,.875.6,1.609,1.609,0,0,1,.365,1.111,1.919,1.919,0,0,1-.335,1.1,2.252,2.252,0,0,1-1.005.785,4.1,4.1,0,0,1-1.63.29A5.7,5.7,0,0,1,518.832,496.619Z"/>
          <path id="Path_38" data-name="Path 38" class="cls-8" d="M525.942,496.375a3.481,3.481,0,0,1-1.37-1.3,3.725,3.725,0,0,1,0-3.711,3.488,3.488,0,0,1,1.37-1.295,4.332,4.332,0,0,1,3.925,0,3.571,3.571,0,0,1,0,6.3,4.332,4.332,0,0,1-3.925,0Zm3.085-1.2a2.054,2.054,0,0,0,.785-.795,2.505,2.505,0,0,0,0-2.321,2.052,2.052,0,0,0-.785-.794,2.336,2.336,0,0,0-2.24,0,2.052,2.052,0,0,0-.785.794,2.5,2.5,0,0,0,0,2.321,2.054,2.054,0,0,0,.785.795,2.343,2.343,0,0,0,2.24,0Z"/>
          <path id="Path_39" data-name="Path 39" class="cls-8" d="M533.732,496.015a3.2,3.2,0,0,1-.835-2.37v-3.92h1.62v3.86q0,1.88,1.56,1.88a1.465,1.465,0,0,0,1.16-.455,2.127,2.127,0,0,0,.4-1.425v-3.86h1.6v3.92a3.311,3.311,0,0,1-5.505,2.37Z"/>
          <path id="Path_40" data-name="Path 40" class="cls-8" d="M545.3,496.725l-1.35-1.951h-1.49v1.951h-1.62v-7h3.03a3.9,3.9,0,0,1,1.615.309,2.4,2.4,0,0,1,1.055.881,2.427,2.427,0,0,1,.37,1.35,2.283,2.283,0,0,1-1.44,2.21l1.57,2.25Zm-.41-5.366a1.7,1.7,0,0,0-1.11-.314h-1.32v2.439h1.32a1.687,1.687,0,0,0,1.11-.319,1.263,1.263,0,0,0,0-1.806Z"/>
          <path id="Path_41" data-name="Path 41" class="cls-8" d="M549.6,496.38a3.475,3.475,0,0,1-1.36-1.29,3.763,3.763,0,0,1,0-3.731,3.482,3.482,0,0,1,1.36-1.29,4.334,4.334,0,0,1,3.59-.144,3.286,3.286,0,0,1,1.235.92l-1.04.96a2.236,2.236,0,0,0-1.76-.821,2.336,2.336,0,0,0-1.16.286,2.03,2.03,0,0,0-.795.794,2.505,2.505,0,0,0,0,2.321,2.033,2.033,0,0,0,.795.795,2.346,2.346,0,0,0,1.16.285,2.226,2.226,0,0,0,1.76-.83l1.04.96a3.24,3.24,0,0,1-1.24.929,4.105,4.105,0,0,1-1.65.321A4.034,4.034,0,0,1,549.6,496.38Z"/>
          <path id="Path_42" data-name="Path 42" class="cls-8" d="M560.937,495.425v1.3h-5.42v-7h5.29v1.3h-3.681v1.521h3.25v1.26h-3.25v1.62Z"/>
        </g>
      </g>
      <g id="Group_3" data-name="Group 3">
        <g id="code-solid">
          <path id="Path_43" data-name="Path 43" class="cls-8" d="M535.758,462.661l-6.077-1.763a1.2,1.2,0,0,1-.817-1.484l13.6-46.84a1.2,1.2,0,0,1,1.484-.817l6.077,1.763A1.2,1.2,0,0,1,550.84,415l-13.6,46.84a1.194,1.194,0,0,1-1.477.819ZM524.4,451.484l4.333-4.622a1.2,1.2,0,0,0-.061-1.7l-.019-.017-9.025-7.939,9.03-7.936a1.186,1.186,0,0,0,.115-1.674l-.035-.039-4.338-4.627a1.2,1.2,0,0,0-1.693-.05l-14.351,13.449a1.188,1.188,0,0,0-.064,1.679c.021.022.042.044.064.064l14.355,13.458a1.188,1.188,0,0,0,1.68-.036l.013-.014Zm32.6.06,14.354-13.458a1.188,1.188,0,0,0,.064-1.679c-.02-.022-.042-.043-.064-.064L557,422.874a1.206,1.206,0,0,0-1.693.05l-4.333,4.622a1.2,1.2,0,0,0,.061,1.7l.019.017,9.025,7.949-9.025,7.939a1.188,1.188,0,0,0-.115,1.675l.035.038,4.333,4.622A1.2,1.2,0,0,0,557,451.544Z"/>
        </g>
      </g>
      <g id="OPEN_STANDARDS" data-name="OPEN STANDARDS" class="cls-3">
        <g id="Group_20" data-name="Group 20" class="cls-3">
          <path id="Path_44" data-name="Path 44" class="cls-9" d="M670.382,483.375a3.481,3.481,0,0,1-1.37-1.3,3.725,3.725,0,0,1,0-3.711,3.488,3.488,0,0,1,1.37-1.295,4.332,4.332,0,0,1,3.925,0,3.571,3.571,0,0,1,0,6.3,4.332,4.332,0,0,1-3.925,0Zm3.085-1.2a2.054,2.054,0,0,0,.785-.795,2.505,2.505,0,0,0,0-2.321,2.052,2.052,0,0,0-.785-.794,2.336,2.336,0,0,0-2.24,0,2.052,2.052,0,0,0-.785.794,2.5,2.5,0,0,0,0,2.321,2.054,2.054,0,0,0,.785.795,2.343,2.343,0,0,0,2.24,0Z"/>
          <path id="Path_45" data-name="Path 45" class="cls-9" d="M682.042,477.034a2.4,2.4,0,0,1,1.055.881,2.637,2.637,0,0,1,0,2.694,2.35,2.35,0,0,1-1.055.88,3.934,3.934,0,0,1-1.615.306h-1.41v1.93H677.4v-7h3.03A3.9,3.9,0,0,1,682.042,477.034Zm-.595,3.125a1.1,1.1,0,0,0,.38-.894,1.111,1.111,0,0,0-.38-.906,1.7,1.7,0,0,0-1.11-.314h-1.32v2.43h1.32A1.7,1.7,0,0,0,681.447,480.159Z"/>
          <path id="Path_46" data-name="Path 46" class="cls-9" d="M690.037,482.425v1.3h-5.42v-7h5.29v1.3h-3.679v1.521h3.25v1.26h-3.25v1.62Z"/>
          <path id="Path_47" data-name="Path 47" class="cls-9" d="M697.747,476.725v7h-1.33l-3.49-4.25v4.25h-1.6v-7h1.34l3.479,4.25v-4.25Z"/>
        </g>
        <g id="Group_21" data-name="Group 21" class="cls-3">
          <path id="Path_48" data-name="Path 48" class="cls-9" d="M652.047,496.619a3.738,3.738,0,0,1-1.245-.585l.55-1.22a3.742,3.742,0,0,0,1.07.531,4,4,0,0,0,1.24.2,1.978,1.978,0,0,0,1.02-.205.621.621,0,0,0,.33-.545.519.519,0,0,0-.2-.415,1.506,1.506,0,0,0-.5-.266c-.2-.066-.479-.139-.825-.219a11.363,11.363,0,0,1-1.31-.38,2.122,2.122,0,0,1-.875-.611,1.641,1.641,0,0,1-.365-1.12,1.947,1.947,0,0,1,.33-1.1,2.22,2.22,0,0,1,1-.785,4.047,4.047,0,0,1,1.625-.291,5.37,5.37,0,0,1,1.31.161,3.831,3.831,0,0,1,1.12.46l-.5,1.23a3.9,3.9,0,0,0-1.94-.551,1.825,1.825,0,0,0-1.005.221.67.67,0,0,0-.325.58.566.566,0,0,0,.375.534,5.84,5.84,0,0,0,1.145.346,11.233,11.233,0,0,1,1.31.38,2.172,2.172,0,0,1,.875.6,1.614,1.614,0,0,1,.365,1.111,1.918,1.918,0,0,1-.335,1.1,2.257,2.257,0,0,1-1.005.785,4.1,4.1,0,0,1-1.63.29A5.69,5.69,0,0,1,652.047,496.619Z"/>
          <path id="Path_49" data-name="Path 49" class="cls-9" d="M659.082,491.045h-2.24v-1.32h6.1v1.32H660.7v5.68h-1.62Z"/>
          <path id="Path_50" data-name="Path 50" class="cls-9" d="M668.072,495.225h-3.25l-.62,1.5h-1.66l3.12-7h1.6l3.13,7h-1.7Zm-.51-1.231-1.11-2.68-1.11,2.68Z"/>
          <path id="Path_51" data-name="Path 51" class="cls-9" d="M677.542,489.725v7h-1.33l-3.49-4.25v4.25h-1.6v-7h1.34l3.48,4.25v-4.25Z"/>
          <path id="Path_52" data-name="Path 52" class="cls-9" d="M679.2,489.725h3.18a4.471,4.471,0,0,1,2.015.434,3.257,3.257,0,0,1,1.36,1.226,3.731,3.731,0,0,1,0,3.679,3.25,3.25,0,0,1-1.36,1.226,4.471,4.471,0,0,1-2.015.435H679.2Zm3.1,5.67a2.356,2.356,0,0,0,1.675-.585,2.319,2.319,0,0,0,0-3.17,2.351,2.351,0,0,0-1.675-.585h-1.48v4.34Z"/>
          <path id="Path_53" data-name="Path 53" class="cls-9" d="M691.972,495.225h-3.25l-.62,1.5h-1.66l3.12-7h1.6l3.13,7h-1.7Zm-.51-1.231-1.11-2.68-1.11,2.68Z"/>
          <path id="Path_54" data-name="Path 54" class="cls-9" d="M699.482,496.725l-1.35-1.951h-1.489v1.951h-1.621v-7h3.03a3.9,3.9,0,0,1,1.615.309,2.391,2.391,0,0,1,1.055.881,2.419,2.419,0,0,1,.37,1.35,2.283,2.283,0,0,1-1.44,2.21l1.57,2.25Zm-.41-5.366a1.7,1.7,0,0,0-1.11-.314h-1.319v2.439h1.319a1.687,1.687,0,0,0,1.11-.319,1.263,1.263,0,0,0,0-1.806Z"/>
          <path id="Path_55" data-name="Path 55" class="cls-9" d="M702.372,489.725h3.18a4.463,4.463,0,0,1,2.014.434,3.253,3.253,0,0,1,1.361,1.226,3.731,3.731,0,0,1,0,3.679,3.247,3.247,0,0,1-1.361,1.226,4.464,4.464,0,0,1-2.014.435h-3.18Zm3.1,5.67a2.353,2.353,0,0,0,1.674-.585,2.322,2.322,0,0,0,0-3.17,2.349,2.349,0,0,0-1.674-.585h-1.48v4.34Z"/>
          <path id="Path_56" data-name="Path 56" class="cls-9" d="M711.326,496.619a3.758,3.758,0,0,1-1.245-.585l.551-1.22a3.749,3.749,0,0,0,1.069.531,4,4,0,0,0,1.24.2,1.984,1.984,0,0,0,1.021-.205.62.62,0,0,0,.33-.545.519.519,0,0,0-.2-.415,1.506,1.506,0,0,0-.5-.266c-.2-.066-.479-.139-.826-.219a11.4,11.4,0,0,1-1.309-.38,2.116,2.116,0,0,1-.875-.611,1.642,1.642,0,0,1-.365-1.12,1.939,1.939,0,0,1,.33-1.1,2.214,2.214,0,0,1,.995-.785,4.043,4.043,0,0,1,1.625-.291,5.356,5.356,0,0,1,1.309.161,3.837,3.837,0,0,1,1.121.46l-.5,1.23a3.9,3.9,0,0,0-1.941-.551,1.825,1.825,0,0,0-1.005.221.67.67,0,0,0-.325.58.566.566,0,0,0,.375.534,5.832,5.832,0,0,0,1.146.346,11.206,11.206,0,0,1,1.309.38,2.164,2.164,0,0,1,.875.6,1.609,1.609,0,0,1,.365,1.111,1.911,1.911,0,0,1-.335,1.1,2.254,2.254,0,0,1-1,.785,4.108,4.108,0,0,1-1.63.29A5.7,5.7,0,0,1,711.326,496.619Z"/>
        </g>
      </g>
      <g id="POWERFUL_AUTOMATION" data-name="POWERFUL AUTOMATION" class="cls-3">
        <g id="Group_22" data-name="Group 22" class="cls-3">
          <path id="Path_57" data-name="Path 57" class="cls-6" d="M800.723,477.034a2.4,2.4,0,0,1,1.054.881,2.637,2.637,0,0,1,0,2.694,2.352,2.352,0,0,1-1.054.88,3.936,3.936,0,0,1-1.616.306H797.7v1.93h-1.62v-7h3.03A3.9,3.9,0,0,1,800.723,477.034Zm-.6,3.125a1.094,1.094,0,0,0,.38-.894,1.108,1.108,0,0,0-.38-.906,1.7,1.7,0,0,0-1.109-.314H797.7v2.43h1.321A1.7,1.7,0,0,0,800.127,480.159Z"/>
          <path id="Path_58" data-name="Path 58" class="cls-6" d="M804.822,483.375a3.481,3.481,0,0,1-1.37-1.3,3.725,3.725,0,0,1,0-3.711,3.488,3.488,0,0,1,1.37-1.295,4.332,4.332,0,0,1,3.925,0,3.571,3.571,0,0,1,0,6.3,4.332,4.332,0,0,1-3.925,0Zm3.085-1.2a2.054,2.054,0,0,0,.785-.795,2.5,2.5,0,0,0,0-2.321,2.052,2.052,0,0,0-.785-.794,2.336,2.336,0,0,0-2.24,0,2.052,2.052,0,0,0-.785.794,2.5,2.5,0,0,0,0,2.321,2.054,2.054,0,0,0,.785.795,2.343,2.343,0,0,0,2.24,0Z"/>
          <path id="Path_59" data-name="Path 59" class="cls-6" d="M822.187,476.725l-2.29,7h-1.74l-1.54-4.741-1.59,4.741H813.3l-2.3-7h1.68l1.58,4.92,1.65-4.92h1.5l1.6,4.96,1.63-4.96Z"/>
          <path id="Path_60" data-name="Path 60" class="cls-6" d="M828.507,482.425v1.3h-5.42v-7h5.29v1.3H824.7v1.521h3.25v1.26H824.7v1.62Z"/>
          <path id="Path_61" data-name="Path 61" class="cls-6" d="M834.257,483.725l-1.35-1.951h-1.49v1.951H829.8v-7h3.03a3.9,3.9,0,0,1,1.615.309,2.4,2.4,0,0,1,1.055.881,2.428,2.428,0,0,1,.37,1.35,2.283,2.283,0,0,1-1.44,2.21l1.57,2.25Zm-.41-5.366a1.7,1.7,0,0,0-1.11-.314h-1.32v2.439h1.32a1.683,1.683,0,0,0,1.11-.319,1.263,1.263,0,0,0,0-1.806Z"/>
          <path id="Path_62" data-name="Path 62" class="cls-6" d="M838.768,478.024v1.851h3.239v1.3h-3.239v2.55h-1.621v-7h5.29v1.3Z"/>
          <path id="Path_63" data-name="Path 63" class="cls-6" d="M844.312,483.015a3.2,3.2,0,0,1-.835-2.37v-3.92h1.62v3.86q0,1.88,1.56,1.88a1.461,1.461,0,0,0,1.159-.455,2.121,2.121,0,0,0,.4-1.425v-3.86h1.6v3.92a3.31,3.31,0,0,1-5.5,2.37Z"/>
          <path id="Path_64" data-name="Path 64" class="cls-6" d="M851.417,476.725h1.62V482.4h3.51v1.321h-5.13Z"/>
        </g>
        <g id="Group_23" data-name="Group 23" class="cls-3">
          <path id="Path_65" data-name="Path 65" class="cls-6" d="M796.477,495.225h-3.25l-.62,1.5h-1.66l3.119-7h1.6l3.13,7h-1.7Zm-.51-1.231-1.11-2.68-1.11,2.68Z"/>
          <path id="Path_66" data-name="Path 66" class="cls-6" d="M800.152,496.015a3.2,3.2,0,0,1-.836-2.37v-3.92h1.621v3.86q0,1.88,1.56,1.88a1.458,1.458,0,0,0,1.159-.455,2.116,2.116,0,0,0,.4-1.425v-3.86h1.6v3.92a3.31,3.31,0,0,1-5.5,2.37Z"/>
          <path id="Path_67" data-name="Path 67" class="cls-6" d="M808.587,491.045h-2.239v-1.32h6.1v1.32h-2.24v5.68h-1.62Z"/>
          <path id="Path_68" data-name="Path 68" class="cls-6" d="M814.643,496.375a3.494,3.494,0,0,1-1.372-1.3,3.732,3.732,0,0,1,0-3.711,3.5,3.5,0,0,1,1.372-1.295,4.33,4.33,0,0,1,3.924,0,3.543,3.543,0,0,1,1.37,1.295,3.571,3.571,0,0,1-1.37,5.006,4.33,4.33,0,0,1-3.924,0Zm3.084-1.2a2.047,2.047,0,0,0,.785-.795,2.505,2.505,0,0,0,0-2.321,2.045,2.045,0,0,0-.785-.794,2.336,2.336,0,0,0-2.24,0,2.058,2.058,0,0,0-.785.794,2.5,2.5,0,0,0,0,2.321,2.061,2.061,0,0,0,.785.795,2.343,2.343,0,0,0,2.24,0Z"/>
          <path id="Path_69" data-name="Path 69" class="cls-6" d="M828.027,496.725l-.009-4.2-2.061,3.46h-.73l-2.049-3.37v4.111h-1.521v-7H823l2.62,4.349,2.58-4.349h1.33l.02,7Z"/>
          <path id="Path_70" data-name="Path 70" class="cls-6" d="M835.816,495.225h-3.25l-.619,1.5h-1.66l3.119-7h1.6l3.13,7h-1.7Zm-.509-1.231-1.11-2.68-1.11,2.68Z"/>
          <path id="Path_71" data-name="Path 71" class="cls-6" d="M839.967,491.045h-2.24v-1.32h6.1v1.32h-2.24v5.68h-1.62Z"/>
          <path id="Path_72" data-name="Path 72" class="cls-6" d="M844.7,489.725h1.619v7H844.7Z"/>
          <path id="Path_73" data-name="Path 73" class="cls-6" d="M849.4,496.375a3.488,3.488,0,0,1-1.37-1.3,3.732,3.732,0,0,1,0-3.711,3.5,3.5,0,0,1,1.37-1.295,4.332,4.332,0,0,1,3.925,0,3.571,3.571,0,0,1,0,6.3,4.332,4.332,0,0,1-3.925,0Zm3.085-1.2a2.041,2.041,0,0,0,.785-.795,2.5,2.5,0,0,0,0-2.321,2.038,2.038,0,0,0-.785-.794,2.336,2.336,0,0,0-2.24,0,2.052,2.052,0,0,0-.785.794,2.505,2.505,0,0,0,0,2.321,2.054,2.054,0,0,0,.785.795,2.343,2.343,0,0,0,2.24,0Z"/>
          <path id="Path_74" data-name="Path 74" class="cls-6" d="M862.837,489.725v7h-1.33l-3.489-4.25v4.25h-1.6v-7h1.34l3.479,4.25v-4.25Z"/>
        </g>
      </g>
      <g id="API" class="cls-3">
        <g id="Group_24" data-name="Group 24" class="cls-3">
          <path id="Path_75" data-name="Path 75" class="cls-6" d="M815.462,452.711l-1.763-5.934H803.551l-1.763,5.934h-6.923l9.675-28.982h8.342l9.676,28.982Zm-10.319-11.266h6.965l-.3-1.032q-1.248-4.213-2.043-7.181T808.8,429.4l-.172-.86a121.94,121.94,0,0,1-3.182,11.868Z"/>
          <path id="Path_76" data-name="Path 76" class="cls-6" d="M826.341,423.729h9.975a11.175,11.175,0,0,1,7.8,2.709,8.881,8.881,0,0,1,2.988,6.88,9.132,9.132,0,0,1-3.117,7.4,11.519,11.519,0,0,1-7.676,2.623h-3.353v9.374h-6.622Zm6.622,14.362h2.192q5.245,0,5.246-4.773,0-4.3-4.858-4.3h-2.58Z"/>
          <path id="Path_77" data-name="Path 77" class="cls-6" d="M850.979,452.711V423.729H857.6v28.982Z"/>
        </g>
      </g>
      <g id="Kubernetes_optimised" data-name="Kubernetes optimised" class="cls-3">
        <g id="Group_25" data-name="Group 25" class="cls-3">
          <path id="Path_78" data-name="Path 78" class="cls-8" d="M795.257,338.968l-.94.981v1.769h-1.61v-7h1.61v3.27l3.1-3.27h1.8l-2.9,3.12,3.07,3.88H797.5Z"/>
          <path id="Path_79" data-name="Path 79" class="cls-8" d="M800.782,341.008a3.2,3.2,0,0,1-.835-2.37v-3.92h1.62v3.861q0,1.879,1.56,1.879a1.459,1.459,0,0,0,1.16-.455,2.117,2.117,0,0,0,.4-1.424v-3.861h1.6v3.92a3.311,3.311,0,0,1-5.505,2.37Z"/>
          <path id="Path_80" data-name="Path 80" class="cls-8" d="M813.967,338.713a1.756,1.756,0,0,1,.34,1.1,1.62,1.62,0,0,1-.715,1.415,3.657,3.657,0,0,1-2.085.495h-3.62v-7h3.42a3.341,3.341,0,0,1,1.964.49,1.55,1.55,0,0,1,.686,1.331,1.682,1.682,0,0,1-.93,1.54A1.845,1.845,0,0,1,813.967,338.713Zm-4.47-2.775v1.65h1.609a1.625,1.625,0,0,0,.911-.21.7.7,0,0,0,.31-.62.688.688,0,0,0-.31-.615,1.654,1.654,0,0,0-.911-.205Zm2.855,4.351a.723.723,0,0,0,.325-.651q0-.87-1.29-.87H809.5V340.5h1.89A1.807,1.807,0,0,0,812.352,340.289Z"/>
          <path id="Path_81" data-name="Path 81" class="cls-8" d="M820.957,340.418v1.3h-5.42v-7h5.29v1.3h-3.68v1.521h3.25V338.8h-3.25v1.62Z"/>
          <path id="Path_82" data-name="Path 82" class="cls-8" d="M826.707,341.718l-1.35-1.95h-1.49v1.95h-1.62v-7h3.03a3.905,3.905,0,0,1,1.616.31,2.4,2.4,0,0,1,1.054.881,2.427,2.427,0,0,1,.37,1.349,2.28,2.28,0,0,1-1.44,2.21l1.57,2.25Zm-.41-5.365a1.7,1.7,0,0,0-1.11-.314h-1.32v2.439h1.32a1.683,1.683,0,0,0,1.11-.319,1.263,1.263,0,0,0,0-1.806Z"/>
          <path id="Path_83" data-name="Path 83" class="cls-8" d="M836.017,334.718v7h-1.33l-3.49-4.25v4.25h-1.6v-7h1.34l3.48,4.25v-4.25Z"/>
          <path id="Path_84" data-name="Path 84" class="cls-8" d="M843.1,340.418v1.3h-5.42v-7h5.29v1.3h-3.68v1.521h3.25V338.8h-3.25v1.62Z"/>
          <path id="Path_85" data-name="Path 85" class="cls-8" d="M845.837,336.039H843.6v-1.321h6.1v1.321h-2.24v5.679h-1.62Z"/>
          <path id="Path_86" data-name="Path 86" class="cls-8" d="M855.986,340.418v1.3h-5.42v-7h5.29v1.3h-3.679v1.521h3.25V338.8h-3.25v1.62Z"/>
          <path id="Path_87" data-name="Path 87" class="cls-8" d="M857.972,341.613a3.758,3.758,0,0,1-1.245-.585l.549-1.22a3.722,3.722,0,0,0,1.071.53,4,4,0,0,0,1.24.2,1.97,1.97,0,0,0,1.019-.206.619.619,0,0,0,.331-.544.52.52,0,0,0-.2-.415,1.471,1.471,0,0,0-.5-.266c-.2-.066-.478-.14-.824-.22a11.386,11.386,0,0,1-1.311-.38,2.142,2.142,0,0,1-.875-.61,1.646,1.646,0,0,1-.365-1.12,1.958,1.958,0,0,1,.33-1.105,2.232,2.232,0,0,1,.995-.785,4.072,4.072,0,0,1,1.625-.29,5.422,5.422,0,0,1,1.311.16,3.869,3.869,0,0,1,1.119.46l-.5,1.231a3.9,3.9,0,0,0-1.939-.551,1.817,1.817,0,0,0-1.005.221.669.669,0,0,0-.325.58.566.566,0,0,0,.375.534,5.893,5.893,0,0,0,1.144.346,11.4,11.4,0,0,1,1.311.379,2.187,2.187,0,0,1,.875.6,1.613,1.613,0,0,1,.365,1.11,1.914,1.914,0,0,1-.335,1.1,2.253,2.253,0,0,1-1.006.785,4.08,4.08,0,0,1-1.63.29A5.719,5.719,0,0,1,857.972,341.613Z"/>
        </g>
        <g id="Group_26" data-name="Group 26" class="cls-3">
          <path id="Path_88" data-name="Path 88" class="cls-8" d="M800.052,354.369a3.5,3.5,0,0,1-1.37-1.295,3.725,3.725,0,0,1,0-3.711,3.488,3.488,0,0,1,1.37-1.3,4.334,4.334,0,0,1,3.926,0,3.572,3.572,0,0,1,0,6.3,4.342,4.342,0,0,1-3.926,0Zm3.085-1.2a2.041,2.041,0,0,0,.785-.8,2.5,2.5,0,0,0,0-2.32,2.047,2.047,0,0,0-.785-.8,2.343,2.343,0,0,0-2.24,0,2.047,2.047,0,0,0-.785.8,2.5,2.5,0,0,0,0,2.32,2.041,2.041,0,0,0,.785.8,2.343,2.343,0,0,0,2.24,0Z"/>
          <path id="Path_89" data-name="Path 89" class="cls-8" d="M811.712,348.028a2.391,2.391,0,0,1,1.055.881,2.637,2.637,0,0,1,0,2.694,2.345,2.345,0,0,1-1.055.88,3.934,3.934,0,0,1-1.615.306h-1.41v1.929h-1.62v-7h3.03A3.9,3.9,0,0,1,811.712,348.028Zm-.595,3.125a1.1,1.1,0,0,0,.38-.9,1.11,1.11,0,0,0-.38-.9,1.7,1.7,0,0,0-1.11-.314h-1.32v2.429h1.32A1.7,1.7,0,0,0,811.117,351.153Z"/>
          <path id="Path_90" data-name="Path 90" class="cls-8" d="M815.547,349.039h-2.24v-1.321h6.1v1.321h-2.24v5.679h-1.62Z"/>
          <path id="Path_91" data-name="Path 91" class="cls-8" d="M820.277,347.718h1.62v7h-1.62Z"/>
          <path id="Path_92" data-name="Path 92" class="cls-8" d="M829.927,354.718l-.01-4.2-2.061,3.46h-.729l-2.05-3.37v4.11h-1.52v-7H824.9l2.621,4.35,2.58-4.35h1.33l.02,7Z"/>
          <path id="Path_93" data-name="Path 93" class="cls-8" d="M833.106,347.718h1.621v7h-1.621Z"/>
          <path id="Path_94" data-name="Path 94" class="cls-8" d="M837.082,354.613a3.759,3.759,0,0,1-1.245-.585l.55-1.22a3.716,3.716,0,0,0,1.07.53,4,4,0,0,0,1.24.2,1.976,1.976,0,0,0,1.02-.206.618.618,0,0,0,.33-.544.522.522,0,0,0-.2-.415,1.471,1.471,0,0,0-.5-.266c-.2-.066-.479-.14-.825-.22a11.366,11.366,0,0,1-1.31-.38,2.13,2.13,0,0,1-.875-.61,1.647,1.647,0,0,1-.365-1.12,1.95,1.95,0,0,1,.33-1.105,2.22,2.22,0,0,1,.995-.785,4.065,4.065,0,0,1,1.625-.29,5.414,5.414,0,0,1,1.31.16,3.869,3.869,0,0,1,1.119.46l-.5,1.231a3.9,3.9,0,0,0-1.939-.551,1.817,1.817,0,0,0-1.005.221.669.669,0,0,0-.325.58.566.566,0,0,0,.375.534,5.916,5.916,0,0,0,1.144.346,11.345,11.345,0,0,1,1.311.379,2.173,2.173,0,0,1,.875.6,1.613,1.613,0,0,1,.365,1.11,1.914,1.914,0,0,1-.335,1.1,2.243,2.243,0,0,1-1.006.785,4.078,4.078,0,0,1-1.629.29A5.731,5.731,0,0,1,837.082,354.613Z"/>
          <path id="Path_95" data-name="Path 95" class="cls-8" d="M848.187,353.418v1.3h-5.42v-7h5.29v1.3h-3.68v1.521h3.25V351.8h-3.25v1.62Z"/>
          <path id="Path_96" data-name="Path 96" class="cls-8" d="M849.477,347.718h3.179a4.468,4.468,0,0,1,2.015.435,3.255,3.255,0,0,1,1.36,1.225,3.726,3.726,0,0,1,0,3.68,3.251,3.251,0,0,1-1.36,1.226,4.468,4.468,0,0,1-2.015.434h-3.179Zm3.1,5.67a2.351,2.351,0,0,0,1.675-.585,2.322,2.322,0,0,0,0-3.17,2.356,2.356,0,0,0-1.675-.585H851.1v4.34Z"/>
        </g>
      </g>
      <g id="layer1">
        <g id="g3052">
          <g id="path3055">
            <path id="Path_97" data-name="Path 97" class="cls-8" d="M827.2,278.253a2.933,2.933,0,0,0-1.115.282L810.875,285.8a2.893,2.893,0,0,0-1.574,1.957l-3.752,16.327a2.867,2.867,0,0,0,.395,2.212,2.677,2.677,0,0,0,.165.23l10.529,13.091a2.917,2.917,0,0,0,2.274,1.086H835.8a2.915,2.915,0,0,0,2.274-1.084l10.525-13.093a2.867,2.867,0,0,0,.562-2.442l-3.759-16.33a2.89,2.89,0,0,0-1.574-1.957l-15.213-7.264A2.933,2.933,0,0,0,827.2,278.253Z"/>
          </g>
          <g id="path3059">
            <path id="Path_98" data-name="Path 98" class="cls-2" d="M827.351,283.809a.965.965,0,0,0-.91,1.012v.258a7.662,7.662,0,0,0,.125.866,8.459,8.459,0,0,1,.1,1.652.992.992,0,0,1-.3.471l-.021.385a11.88,11.88,0,0,0-1.646.253,11.712,11.712,0,0,0-5.949,3.4c-.1-.069-.276-.195-.329-.233a.718.718,0,0,1-.541-.053,8.5,8.5,0,0,1-1.228-1.109,7.835,7.835,0,0,0-.6-.636c-.056-.048-.14-.112-.2-.161a1.085,1.085,0,0,0-.634-.239.879.879,0,0,0-.726.321.965.965,0,0,0,.224,1.342l.014.01c.06.049.134.111.189.152a7.4,7.4,0,0,0,.755.442,8.5,8.5,0,0,1,1.354.951,1.016,1.016,0,0,1,.183.525l.292.261a11.783,11.783,0,0,0-1.858,8.214l-.381.111a1.26,1.26,0,0,1-.391.395,8.5,8.5,0,0,1-1.632.268,7.76,7.76,0,0,0-.874.07c-.07.013-.167.039-.243.056H812.1a.914.914,0,0,0,.219,1.815.876.876,0,0,0,.181-.041h.014l.018-.006c.075-.017.17-.035.235-.053a7.468,7.468,0,0,0,.817-.313,8.524,8.524,0,0,1,1.587-.467,1,1,0,0,1,.523.185l.4-.068a11.851,11.851,0,0,0,5.251,6.556l-.165.4a.9.9,0,0,1,.081.515,8.894,8.894,0,0,1-.824,1.481,7.759,7.759,0,0,0-.488.728c-.036.068-.082.173-.117.245a.914.914,0,1,0,1.644.78h0c.035-.071.084-.165.113-.232a7.411,7.411,0,0,0,.263-.835,6.38,6.38,0,0,1,.7-1.636.739.739,0,0,1,.392-.191l.206-.374a11.782,11.782,0,0,0,8.4.021c.058.1.166.3.2.35a.722.722,0,0,1,.465.282,8.554,8.554,0,0,1,.624,1.531,7.64,7.64,0,0,0,.265.835c.029.067.078.162.113.233a.915.915,0,0,0,1.725-.61.857.857,0,0,0-.079-.168c-.035-.072-.083-.177-.119-.245a7.489,7.489,0,0,0-.488-.726,8.483,8.483,0,0,1-.807-1.445.714.714,0,0,1,.07-.537,3.2,3.2,0,0,1-.152-.368,11.849,11.849,0,0,0,5.249-6.6c.118.019.323.055.389.068a.722.722,0,0,1,.51-.189,8.5,8.5,0,0,1,1.587.467,7.481,7.481,0,0,0,.817.315c.066.018.16.034.235.051l.018.006h.014a.914.914,0,1,0,.4-1.774c-.078-.018-.189-.048-.265-.062a7.718,7.718,0,0,0-.873-.07,8.514,8.514,0,0,1-1.632-.268,1.022,1.022,0,0,1-.393-.395l-.368-.107a11.827,11.827,0,0,0-1.9-8.194c.094-.086.272-.243.323-.29a.719.719,0,0,1,.171-.516,8.5,8.5,0,0,1,1.354-.951,7.439,7.439,0,0,0,.757-.442c.059-.043.139-.112.2-.161a.915.915,0,1,0-1.134-1.424c-.062.049-.147.113-.2.161a7.831,7.831,0,0,0-.6.636,8.462,8.462,0,0,1-1.228,1.111,1.015,1.015,0,0,1-.553.06l-.346.247a11.935,11.935,0,0,0-7.558-3.652c-.008-.121-.019-.341-.021-.407a.72.72,0,0,1-.3-.455,8.54,8.54,0,0,1,.1-1.652,7.662,7.662,0,0,0,.125-.866v-.259a.965.965,0,0,0-.91-1.012Zm-1.14,7.062-.27,4.776-.019.01a.8.8,0,0,1-1.274.615h-.008l-3.916-2.776a9.39,9.39,0,0,1,4.517-2.461A9.617,9.617,0,0,1,826.211,290.871Zm2.282,0a9.455,9.455,0,0,1,5.455,2.63l-3.891,2.759-.014-.006a.8.8,0,0,1-1.276-.613h0Zm-9.19,4.412,3.576,3.2v.019a.8.8,0,0,1-.315,1.379v.016l-4.583,1.323A9.379,9.379,0,0,1,819.3,295.283Zm16.071,0a9.553,9.553,0,0,1,1.372,5.918l-4.607-1.327v-.019a.8.8,0,0,1-.315-1.379v-.01Zm-8.756,3.443h1.465l.91,1.138-.327,1.42-1.315.632-1.319-.634-.327-1.42Zm4.7,3.895a.818.818,0,0,1,.185.014l.008-.01,4.741.8a9.386,9.386,0,0,1-3.8,4.768l-1.84-4.444.006-.008a.806.806,0,0,1,.425-1.057.823.823,0,0,1,.275-.064Zm-7.963.019a.8.8,0,0,1,.726,1.119l.014.017-1.821,4.4a9.43,9.43,0,0,1-3.784-4.735l4.7-.8.008.01a.788.788,0,0,1,.153-.009Zm3.971,1.928a.81.81,0,0,1,.735.422h.018l2.317,4.187a9.559,9.559,0,0,1-.926.259,9.406,9.406,0,0,1-5.138-.265l2.311-4.179h0a.8.8,0,0,1,.679-.422Z"/>
            <path id="Path_99" data-name="Path 99" class="cls-2" d="M820.617,315.278a1.038,1.038,0,0,1-.89-1.572l.038-.082c.026-.056.052-.114.076-.157a7.675,7.675,0,0,1,.5-.745,8.766,8.766,0,0,0,.8-1.439.764.764,0,0,0-.072-.427l-.024-.05.145-.352a11.972,11.972,0,0,1-5.179-6.468l-.345.059-.043-.03a.866.866,0,0,0-.458-.162,8.653,8.653,0,0,0-1.532.458,7.746,7.746,0,0,1-.825.316c-.05.014-.107.026-.163.038l-.129.027a.806.806,0,0,1-.181.04,1.039,1.039,0,1,1-.247-2.063h.036l.068-.02.153-.034a7.959,7.959,0,0,1,.893-.072,8.322,8.322,0,0,0,1.583-.258,1.131,1.131,0,0,0,.336-.346l.026-.04.324-.1a11.879,11.879,0,0,1,1.832-8.1l-.25-.224,0-.051a.9.9,0,0,0-.151-.448,8.442,8.442,0,0,0-1.323-.927,7.734,7.734,0,0,1-.762-.447c-.056-.041-.123-.1-.18-.144l-.027-.02a1.092,1.092,0,0,1-.252-1.516,1.015,1.015,0,0,1,.834-.374,1.23,1.23,0,0,1,.706.266l.085.069c.042.033.085.067.117.1a7.783,7.783,0,0,1,.615.651,8.4,8.4,0,0,0,1.206,1.089.6.6,0,0,0,.431.033l.059-.017.05.035c.039.029.147.105.239.171a11.8,11.8,0,0,1,5.939-3.358,12.129,12.129,0,0,1,1.554-.246l.018-.329.04-.034a.877.877,0,0,0,.262-.412,8.612,8.612,0,0,0-.1-1.6,7.793,7.793,0,0,1-.127-.876v-.243a1.1,1.1,0,0,1,1.029-1.162v0a1.093,1.093,0,0,1,1.022,1.143v.252a7.382,7.382,0,0,1-.128.891,8.356,8.356,0,0,0-.1,1.622.58.58,0,0,0,.245.357l.052.036,0,.063c0,.049.008.183.014.3a12.05,12.05,0,0,1,7.456,3.6l.3-.215.051.009a.883.883,0,0,0,.47-.047,8.49,8.49,0,0,0,1.2-1.085,7.59,7.59,0,0,1,.606-.643c.046-.041.111-.092.169-.137l.04-.031a1.1,1.1,0,0,1,.155-.124,1.042,1.042,0,0,1,1.438.315,1.041,1.041,0,0,1-.315,1.437l-.049.041c-.049.041-.1.085-.145.116a8.075,8.075,0,0,1-.773.452,8.275,8.275,0,0,0-1.329.934.577.577,0,0,0-.127.412l0,.061-.139.125-.149.134a11.933,11.933,0,0,1,1.873,8.083l.315.092.025.045a.907.907,0,0,0,.332.339,8.352,8.352,0,0,0,1.592.259,8.039,8.039,0,0,1,.883.071c.057.011.125.028.188.043l.087.022a.932.932,0,0,1,.194.044,1.039,1.039,0,0,1-.641,1.976l-.034-.006-.1-.022c-.054-.01-.107-.022-.15-.033a7.855,7.855,0,0,1-.836-.322,8.344,8.344,0,0,0-1.559-.458h-.01a.6.6,0,0,0-.391.158l-.047.044-.062-.013c-.048-.01-.171-.032-.279-.05a11.958,11.958,0,0,1-5.182,6.514c.033.087.07.174.111.259l.029.059-.033.057a.591.591,0,0,0-.057.444,8.424,8.424,0,0,0,.788,1.4,7.523,7.523,0,0,1,.494.734c.028.052.058.116.087.177l.037.077a1.081,1.081,0,0,1,.085.18,1.042,1.042,0,0,1-.634,1.327,1.042,1.042,0,0,1-1.328-.633l-.015-.028c-.033-.066-.07-.142-.095-.2a7.952,7.952,0,0,1-.271-.853,8.371,8.371,0,0,0-.613-1.5.594.594,0,0,0-.374-.216l-.059-.009-.03-.052-.067-.12-.076-.138a11.9,11.9,0,0,1-8.286-.02l-.184.333-.061.009a.618.618,0,0,0-.314.147,6.241,6.241,0,0,0-.675,1.589,8.334,8.334,0,0,1-.268.847c-.021.05-.05.107-.077.162l-.04.079a.976.976,0,0,1-.08.168,1.036,1.036,0,0,1-.639.475A1.053,1.053,0,0,1,820.617,315.278Zm.7-4.479a1.013,1.013,0,0,1,.07.534l-.01.033a8.982,8.982,0,0,1-.835,1.5,7.491,7.491,0,0,0-.483.721c-.019.035-.043.089-.068.14l-.045.1a.794.794,0,0,0,.268,1.091.789.789,0,0,0,1.082-.272.793.793,0,0,0,.065-.138l.046-.093c.025-.05.051-.1.069-.143a7.837,7.837,0,0,0,.257-.817,6.521,6.521,0,0,1,.714-1.671l.021-.026a.872.872,0,0,1,.4-.212l.231-.418.1.04a11.647,11.647,0,0,0,8.311.021l.1-.038.053.091c.036.06.089.156.132.235l.037.067a.847.847,0,0,1,.484.318,8.556,8.556,0,0,1,.644,1.571,7.127,7.127,0,0,0,.263.825c.02.049.055.119.086.181l.021.042a.8.8,0,0,0,.41.463.791.791,0,0,0,1.017-1.122l-.043-.088c-.026-.057-.056-.118-.079-.162a7.525,7.525,0,0,0-.478-.709,8.566,8.566,0,0,1-.821-1.471.846.846,0,0,1,.044-.589,3.467,3.467,0,0,1-.13-.325l-.033-.1.088-.051a11.714,11.714,0,0,0,5.193-6.531l.032-.1.107.017c.1.016.242.041.334.059a.943.943,0,0,1,.549-.181,8.594,8.594,0,0,1,1.63.476,7.314,7.314,0,0,0,.808.312c.033.009.081.019.129.028l.141.03a.789.789,0,1,0,.5-1.5.775.775,0,0,0-.157-.036l-.1-.024c-.059-.014-.121-.03-.169-.039a7.743,7.743,0,0,0-.854-.068,8.521,8.521,0,0,1-1.661-.272l-.029-.012a1.148,1.148,0,0,1-.415-.4l-.424-.123.015-.107a11.7,11.7,0,0,0-1.879-8.107l-.061-.089.08-.073c.061-.056.157-.141.231-.207l.05-.045a.832.832,0,0,1,.2-.544,8.624,8.624,0,0,1,1.386-.978,7.232,7.232,0,0,0,.749-.437c.036-.025.084-.065.128-.1l.064-.052a.8.8,0,0,0,.356-.5.79.79,0,0,0-1.2-.834.762.762,0,0,0-.126.1l-.052.041c-.052.04-.112.086-.152.123a7.67,7.67,0,0,0-.588.623,8.74,8.74,0,0,1-1.25,1.132l-.027.015a1.129,1.129,0,0,1-.568.075l-.393.281-.075-.078a11.8,11.8,0,0,0-7.48-3.614l-.106-.01-.007-.107c-.006-.1-.014-.255-.019-.35a.839.839,0,0,1-.3-.5,8.56,8.56,0,0,1,.1-1.7,7.545,7.545,0,0,0,.123-.858v-.248a.782.782,0,1,0-1.551-.008v.264a7.725,7.725,0,0,0,.122.841,8.633,8.633,0,0,1,.1,1.682,1.119,1.119,0,0,1-.3.524l-.024.443-.109.009a11.765,11.765,0,0,0-1.628.25,11.554,11.554,0,0,0-5.886,3.364l-.073.079-.089-.062-.283-.2a.844.844,0,0,1-.574-.078,8.536,8.536,0,0,1-1.262-1.136,7.648,7.648,0,0,0-.594-.629l-.106-.085-.088-.071a.969.969,0,0,0-.559-.21.738.738,0,0,0-.624.275.841.841,0,0,0,.2,1.162l.04.031c.055.045.117.1.165.132a7.541,7.541,0,0,0,.736.431,8.629,8.629,0,0,1,1.379.967l.022.023a1.142,1.142,0,0,1,.2.537l.336.3-.06.091a11.629,11.629,0,0,0-1.837,8.126l.015.108-.441.128a1.392,1.392,0,0,1-.4.394l-.035.015a8.553,8.553,0,0,1-1.656.272,7.707,7.707,0,0,0-.864.069c-.036.007-.085.019-.134.031l-.135.026a.788.788,0,0,0-.688.877.789.789,0,0,0,.878.689.807.807,0,0,0,.157-.035l.13-.029c.052-.01.1-.021.143-.032a7.771,7.771,0,0,0,.8-.306,8.613,8.613,0,0,1,1.615-.477,1.131,1.131,0,0,1,.576.176l.457-.077.033.1a11.717,11.717,0,0,0,5.195,6.487l.094.055Zm6.049-1a9.532,9.532,0,0,1-3.074-.509l-.142-.048,2.384-4.31a.927.927,0,0,1,.756-.485l.032,0a.947.947,0,0,1,.81.422h0l.053.065,2.391,4.318-.143.048c-.309.1-.625.191-.939.262A9.534,9.534,0,0,1,827.366,309.8Zm-2.851-.7a9.265,9.265,0,0,0,4.926.214c.258-.058.517-.128.773-.209l-2.262-4.055a.684.684,0,0,0-.6-.357l-.03,0a.676.676,0,0,0-.572.356Zm7.879-.721-1.924-4.648.007-.01a.932.932,0,0,1,.518-1.153.934.934,0,0,1,.317-.073l.131-.007v.012h.006l.082,0,4.889.825-.05.14a9.569,9.569,0,0,1-3.85,4.832Zm-1.639-4.612,1.755,4.24a9.321,9.321,0,0,0,3.573-4.484l-4.519-.762v0l-.084-.005a.551.551,0,0,0-.156-.012h-.028a.7.7,0,0,0-.2.051.682.682,0,0,0-.36.894l.029.066Zm-8.422,4.6-.126-.08a9.6,9.6,0,0,1-3.834-4.8l-.051-.141,4.922-.838.011.014.069,0,.032,0a.928.928,0,0,1,.868,1.222v0l-.015.085Zm-3.673-4.822a9.363,9.363,0,0,0,3.557,4.449l1.734-4.192v0l.017-.086a.677.677,0,0,0-.584-.943l0,0h-.032a.575.575,0,0,0-.131.008l-.073.011-.007-.009Zm8.692-1.485-1.428-.686-.355-1.538.99-1.23h1.585l.985,1.232-.355,1.538Zm-1.211-.859,1.211.581,1.206-.579.3-1.3-.835-1.044h-1.344l-.837,1.043Zm-8.267.185-.017-.147a9.555,9.555,0,0,1,1.339-6.016l.078-.128,3.73,3.357a.926.926,0,0,1-.315,1.525v0l-.09.042Zm1.458-5.9a9.3,9.3,0,0,0-1.241,5.582l4.441-1.3a.673.673,0,0,0,.336-.212.675.675,0,0,0-.07-.952l-.044-.058Zm17.524,5.886-4.842-1.4v-.022a.925.925,0,0,1-.315-1.525h0l.042-.047,3.661-3.283.078.128a9.727,9.727,0,0,1,1.39,6Zm-4.592-1.583,4.371,1.259a9.485,9.485,0,0,0-1.29-5.562l-3.44,3.094a.676.676,0,0,0,.266,1.164l.093.025Zm-7.14-3.227h-.035a.919.919,0,0,1-.48-.156h0l-.041-.022-4.038-2.863.107-.1a9.472,9.472,0,0,1,5.56-2.66l.148-.018-.008.149-.274,4.849-.021.01a.922.922,0,0,1-.917.816Zm-.444-.406h0l.042.025a.675.675,0,0,0,.376.131.655.655,0,0,0,.483-.18.665.665,0,0,0,.215-.47l0-.074.02-.011.258-4.554c-.271.036-.543.084-.809.143a9.242,9.242,0,0,0-4.35,2.324Zm4.888.389a.923.923,0,0,1-.926-.89l-.283-4.917.15.018a9.641,9.641,0,0,1,5.527,2.665l.107.105-4.071,2.886-.015-.007A.916.916,0,0,1,829.568,296.536Zm-.941-5.521.265,4.619a.675.675,0,0,0,1.077.52l.057-.043.015.007,3.712-2.631A9.391,9.391,0,0,0,828.627,291.015Z"/>
          </g>
        </g>
      </g>
      <g id="door-open-solid">
        <path id="Path_100" data-name="Path 100" class="cls-9" d="M709.429,453.68h-6.863v-28.7a4.186,4.186,0,0,0-4.117-4.242h-9.607v5.49h8.235V459.17h12.352A1.371,1.371,0,0,0,710.8,457.8h0V455.05A1.373,1.373,0,0,0,709.429,453.68Zm-26.743-38.342-16.47,4.266a2.828,2.828,0,0,0-2.079,2.76V453.68h-6.863a1.372,1.372,0,0,0-1.372,1.37V457.8a1.371,1.371,0,0,0,1.369,1.375H686.1V418.1a2.768,2.768,0,0,0-3.411-2.759Zm-4.138,24.618c-1.137,0-2.059-1.229-2.059-2.745s.922-2.745,2.059-2.745,2.054,1.229,2.054,2.745S679.684,439.956,678.548,439.956Z"/>
      </g>
    </g>
  </g>
</svg>
