<svg xmlns="http://www.w3.org/2000/svg" xmlns:xlink="http://www.w3.org/1999/xlink" width="432" height="285" viewBox="0 0 432 285">
  <defs>
    <filter id="Path_5093" x="288" y="0" width="144" height="144" filterUnits="userSpaceOnUse">
      <feOffset dy="3" input="SourceAlpha"/>
      <feGaussianBlur stdDeviation="3" result="blur"/>
      <feFlood flood-opacity="0.161"/>
      <feComposite operator="in" in2="blur"/>
      <feComposite in="SourceGraphic"/>
    </filter>
    <filter id="Path_295" x="0" y="0" width="144" height="144" filterUnits="userSpaceOnUse">
      <feOffset dy="3" input="SourceAlpha"/>
      <feGaussianBlur stdDeviation="3" result="blur-2"/>
      <feFlood flood-opacity="0.161"/>
      <feComposite operator="in" in2="blur-2"/>
      <feComposite in="SourceGraphic"/>
    </filter>
    <filter id="Path_294" x="288" y="141" width="144" height="144" filterUnits="userSpaceOnUse">
      <feOffset dy="3" input="SourceAlpha"/>
      <feGaussianBlur stdDeviation="3" result="blur-3"/>
      <feFlood flood-opacity="0.161"/>
      <feComposite operator="in" in2="blur-3"/>
      <feComposite in="SourceGraphic"/>
    </filter>
    <filter id="Path_293" x="144" y="0" width="144" height="144" filterUnits="userSpaceOnUse">
      <feOffset dy="3" input="SourceAlpha"/>
      <feGaussianBlur stdDeviation="3" result="blur-4"/>
      <feFlood flood-opacity="0.161"/>
      <feComposite operator="in" in2="blur-4"/>
      <feComposite in="SourceGraphic"/>
    </filter>
    <filter id="Path_292" x="0" y="141" width="144" height="144" filterUnits="userSpaceOnUse">
      <feOffset dy="3" input="SourceAlpha"/>
      <feGaussianBlur stdDeviation="3" result="blur-5"/>
      <feFlood flood-opacity="0.161"/>
      <feComposite operator="in" in2="blur-5"/>
      <feComposite in="SourceGraphic"/>
    </filter>
    <filter id="Path_291" x="144" y="141" width="144" height="144" filterUnits="userSpaceOnUse">
      <feOffset dy="3" input="SourceAlpha"/>
      <feGaussianBlur stdDeviation="3" result="blur-6"/>
      <feFlood flood-opacity="0.161"/>
      <feComposite operator="in" in2="blur-6"/>
      <feComposite in="SourceGraphic"/>
    </filter>
    <clipPath id="clip-path">
      <rect id="Rectangle_6" data-name="Rectangle 6" width="51" height="51" transform="translate(709 200)" fill="#32cd32"/>
    </clipPath>
    <clipPath id="clip-path-2">
      <rect id="Rectangle_4" data-name="Rectangle 4" width="51" height="51" transform="translate(565 200)" fill="#195f8c"/>
    </clipPath>
  </defs>
  <g id="safespring_key-points-openshift-2" transform="translate(-89 -82)">
    <g id="Compute" transform="translate(-285 -92)">
      <g transform="matrix(1, 0, 0, 1, 374, 174)" filter="url(#Path_5093)">
        <path id="Path_5093-2" data-name="Path 5093" d="M7,0H119a7,7,0,0,1,7,7V119a7,7,0,0,1-7,7H7a7,7,0,0,1-7-7V7A7,7,0,0,1,7,0Z" transform="translate(297 6)" fill="#fff"/>
      </g>
      <g transform="matrix(1, 0, 0, 1, 374, 174)" filter="url(#Path_295)">
        <path id="Path_295-2" data-name="Path 295" d="M7,0H119a7,7,0,0,1,7,7V119a7,7,0,0,1-7,7H7a7,7,0,0,1-7-7V7A7,7,0,0,1,7,0Z" transform="translate(9 6)" fill="#fff"/>
      </g>
      <g transform="matrix(1, 0, 0, 1, 374, 174)" filter="url(#Path_294)">
        <path id="Path_294-2" data-name="Path 294" d="M7,0H119a7,7,0,0,1,7,7V119a7,7,0,0,1-7,7H7a7,7,0,0,1-7-7V7A7,7,0,0,1,7,0Z" transform="translate(297 147)" fill="#fff"/>
      </g>
      <g transform="matrix(1, 0, 0, 1, 374, 174)" filter="url(#Path_293)">
        <path id="Path_293-2" data-name="Path 293" d="M7,0H119a7,7,0,0,1,7,7V119a7,7,0,0,1-7,7H7a7,7,0,0,1-7-7V7A7,7,0,0,1,7,0Z" transform="translate(153 6)" fill="#fff"/>
      </g>
      <g transform="matrix(1, 0, 0, 1, 374, 174)" filter="url(#Path_292)">
        <path id="Path_292-2" data-name="Path 292" d="M7,0H119a7,7,0,0,1,7,7V119a7,7,0,0,1-7,7H7a7,7,0,0,1-7-7V7A7,7,0,0,1,7,0Z" transform="translate(9 147)" fill="#fff"/>
      </g>
      <g transform="matrix(1, 0, 0, 1, 374, 174)" filter="url(#Path_291)">
        <path id="Path_291-2" data-name="Path 291" d="M7,0H119a7,7,0,0,1,7,7V119a7,7,0,0,1-7,7H7a7,7,0,0,1-7-7V7A7,7,0,0,1,7,0Z" transform="translate(153 147)" fill="#fff"/>
      </g>
      <g id="Mask_Group_3" data-name="Mask Group 3" transform="translate(-287.5 -1.007)" clip-path="url(#clip-path)">
        <path id="user-lock-solid" d="M17.85,20.4A10.2,10.2,0,1,0,7.65,10.2a10.2,10.2,0,0,0,10.2,10.2Zm7.65,5.1a5.027,5.027,0,0,1,.645-2.43,10.906,10.906,0,0,0-1.155-.12H23.659a13.872,13.872,0,0,1-11.618,0H10.71A10.712,10.712,0,0,0,0,33.658v3.317A3.825,3.825,0,0,0,3.825,40.8H26.209a5.063,5.063,0,0,1-.709-2.55Zm22.95-2.55H45.9V16.575a6.375,6.375,0,1,0-12.75,0V22.95H30.6a2.55,2.55,0,0,0-2.55,2.55V38.25A2.55,2.55,0,0,0,30.6,40.8H48.45A2.55,2.55,0,0,0,51,38.25V25.5A2.55,2.55,0,0,0,48.45,22.95ZM39.525,34.425a2.55,2.55,0,1,1,2.55-2.55A2.55,2.55,0,0,1,39.525,34.425Zm2.55-11.475h-5.1V16.575a2.55,2.55,0,0,1,5.1,0Z" transform="translate(709 205.1)" fill="#32cd32"/>
      </g>
      <g id="Group_2" data-name="Group 2" transform="translate(144 0.097)" clip-path="url(#clip-path-2)">
        <path id="lock-open-solid" d="M32.1,0A11.6,11.6,0,0,0,20.619,11.635v5.344H3.639A3.64,3.64,0,0,0,0,20.618V35.172a3.64,3.64,0,0,0,3.639,3.639H30.322a3.64,3.64,0,0,0,3.639-3.639V20.618a3.64,3.64,0,0,0-3.639-3.639H26.683v-5.39A5.458,5.458,0,1,1,37.6,11.521v6.064A1.815,1.815,0,0,0,39.418,19.4h2.426a1.815,1.815,0,0,0,1.819-1.819V11.521A11.535,11.535,0,0,0,32.1,0Z" transform="translate(570.746 206.095)" fill="#195f8c"/>
      </g>
      <g id="TEXT">
        <path id="Path_5107" data-name="Path 5107" d="M-11.125-3.61h1.48V-.77a4.228,4.228,0,0,1-1.32.66,5.125,5.125,0,0,1-1.51.23,4.092,4.092,0,0,1-1.96-.465A3.462,3.462,0,0,1-15.8-1.635,3.554,3.554,0,0,1-16.3-3.5a3.554,3.554,0,0,1,.5-1.865,3.445,3.445,0,0,1,1.375-1.29,4.172,4.172,0,0,1,1.98-.465,4.333,4.333,0,0,1,1.67.31,3.309,3.309,0,0,1,1.26.9l-1.04.96a2.4,2.4,0,0,0-1.81-.79,2.47,2.47,0,0,0-1.19.28,2.009,2.009,0,0,0-.81.79,2.325,2.325,0,0,0-.29,1.17,2.3,2.3,0,0,0,.29,1.16,2.051,2.051,0,0,0,.805.795,2.386,2.386,0,0,0,1.175.285,2.626,2.626,0,0,0,1.26-.3ZM-8.145-7h3.18a4.469,4.469,0,0,1,2.015.435A3.257,3.257,0,0,1-1.59-5.34,3.446,3.446,0,0,1-1.105-3.5,3.446,3.446,0,0,1-1.59-1.66,3.257,3.257,0,0,1-2.95-.435,4.469,4.469,0,0,1-4.965,0h-3.18Zm3.1,5.67A2.352,2.352,0,0,0-3.37-1.915,2.066,2.066,0,0,0-2.745-3.5,2.066,2.066,0,0,0-3.37-5.085,2.352,2.352,0,0,0-5.045-5.67h-1.48v4.34ZM3.145-7a3.889,3.889,0,0,1,1.615.31,2.4,2.4,0,0,1,1.055.88,2.424,2.424,0,0,1,.37,1.35,2.431,2.431,0,0,1-.37,1.345,2.356,2.356,0,0,1-1.055.88,3.944,3.944,0,0,1-1.615.3H1.735V0H.115V-7Zm-.09,3.75a1.7,1.7,0,0,0,1.11-.315,1.1,1.1,0,0,0,.38-.895,1.109,1.109,0,0,0-.38-.9,1.7,1.7,0,0,0-1.11-.315H1.735v2.43ZM11.795,0l-1.35-1.95H8.955V0H7.335V-7h3.03a3.889,3.889,0,0,1,1.615.31,2.4,2.4,0,0,1,1.055.88,2.424,2.424,0,0,1,.37,1.35,2.376,2.376,0,0,1-.375,1.345,2.377,2.377,0,0,1-1.065.865L13.535,0Zm-.03-4.46a1.109,1.109,0,0,0-.38-.9,1.7,1.7,0,0,0-1.11-.315H8.955v2.44h1.32a1.683,1.683,0,0,0,1.11-.32A1.112,1.112,0,0,0,11.765-4.46Zm-39.4,17.58a4.021,4.021,0,0,1-1.935-.465,3.47,3.47,0,0,1-1.36-1.29,3.554,3.554,0,0,1-.5-1.865,3.554,3.554,0,0,1,.5-1.865,3.47,3.47,0,0,1,1.36-1.29,4.042,4.042,0,0,1,1.945-.465,4.08,4.08,0,0,1,1.645.32,3.3,3.3,0,0,1,1.235.92l-1.04.96a2.236,2.236,0,0,0-1.76-.82,2.337,2.337,0,0,0-1.16.285,2.026,2.026,0,0,0-.8.8,2.337,2.337,0,0,0-.285,1.16,2.337,2.337,0,0,0,.285,1.16,2.026,2.026,0,0,0,.8.8,2.337,2.337,0,0,0,1.16.285,2.225,2.225,0,0,0,1.76-.83l1.04.96a3.242,3.242,0,0,1-1.24.93A4.116,4.116,0,0,1-27.635,13.12Zm7.22,0a4.086,4.086,0,0,1-1.965-.47,3.488,3.488,0,0,1-1.37-1.3,3.535,3.535,0,0,1-.5-1.855,3.535,3.535,0,0,1,.5-1.855,3.488,3.488,0,0,1,1.37-1.3,4.086,4.086,0,0,1,1.965-.47,4.057,4.057,0,0,1,1.96.47,3.533,3.533,0,0,1,1.37,1.3,3.508,3.508,0,0,1,.5,1.855,3.508,3.508,0,0,1-.5,1.855,3.533,3.533,0,0,1-1.37,1.3A4.057,4.057,0,0,1-20.415,13.12Zm0-1.38a2.221,2.221,0,0,0,1.12-.285,2.045,2.045,0,0,0,.785-.8,2.337,2.337,0,0,0,.285-1.16,2.337,2.337,0,0,0-.285-1.16,2.045,2.045,0,0,0-.785-.8,2.221,2.221,0,0,0-1.12-.285,2.221,2.221,0,0,0-1.12.285,2.045,2.045,0,0,0-.785.8A2.337,2.337,0,0,0-22.6,9.5a2.337,2.337,0,0,0,.285,1.16,2.045,2.045,0,0,0,.785.8A2.221,2.221,0,0,0-20.415,11.74ZM-8.995,13l-.01-4.2-2.06,3.46h-.73l-2.05-3.37V13h-1.52V6h1.34l2.62,4.35L-8.825,6h1.33l.02,7Zm6.21-7a3.889,3.889,0,0,1,1.615.31,2.4,2.4,0,0,1,1.055.88,2.424,2.424,0,0,1,.37,1.35,2.431,2.431,0,0,1-.37,1.345,2.356,2.356,0,0,1-1.055.88,3.944,3.944,0,0,1-1.615.3H-4.2V13h-1.62V6Zm-.09,3.75a1.7,1.7,0,0,0,1.11-.315,1.1,1.1,0,0,0,.38-.895,1.109,1.109,0,0,0-.38-.9,1.7,1.7,0,0,0-1.11-.315H-4.2V9.75ZM1.4,6h1.62v5.68h3.51V13H1.4Zm6.04,0h1.62v7H7.445Zm7.89,5.5h-3.25l-.62,1.5H9.8l3.12-7h1.6l3.13,7h-1.7Zm-.51-1.23-1.11-2.68L12.6,10.27ZM24.8,6v7h-1.33l-3.49-4.25V13h-1.6V6h1.34l3.48,4.25V6Zm3.11,1.32h-2.24V6h6.1V7.32h-2.24V13h-1.62Z" transform="translate(446.5 271.006)" fill="#32cd32"/>
        <path id="Path_5106" data-name="Path 5106" d="M-12.42.12a4.086,4.086,0,0,1-1.965-.47,3.488,3.488,0,0,1-1.37-1.295,3.535,3.535,0,0,1-.5-1.855,3.535,3.535,0,0,1,.5-1.855,3.488,3.488,0,0,1,1.37-1.3,4.086,4.086,0,0,1,1.965-.47,4.057,4.057,0,0,1,1.96.47,3.533,3.533,0,0,1,1.37,1.3A3.508,3.508,0,0,1-8.59-3.5a3.508,3.508,0,0,1-.5,1.855A3.533,3.533,0,0,1-10.46-.35,4.057,4.057,0,0,1-12.42.12Zm0-1.38a2.221,2.221,0,0,0,1.12-.285,2.045,2.045,0,0,0,.785-.795A2.337,2.337,0,0,0-10.23-3.5a2.337,2.337,0,0,0-.285-1.16,2.045,2.045,0,0,0-.785-.8,2.221,2.221,0,0,0-1.12-.285,2.221,2.221,0,0,0-1.12.285,2.045,2.045,0,0,0-.785.8A2.337,2.337,0,0,0-14.61-3.5a2.337,2.337,0,0,0,.285,1.16,2.045,2.045,0,0,0,.785.795A2.221,2.221,0,0,0-12.42-1.26ZM-4.34-7a3.889,3.889,0,0,1,1.615.31,2.4,2.4,0,0,1,1.055.88A2.424,2.424,0,0,1-1.3-4.46a2.431,2.431,0,0,1-.37,1.345,2.356,2.356,0,0,1-1.055.88,3.944,3.944,0,0,1-1.615.3H-5.75V0H-7.37V-7Zm-.09,3.75a1.7,1.7,0,0,0,1.11-.315,1.1,1.1,0,0,0,.38-.895,1.109,1.109,0,0,0-.38-.9A1.7,1.7,0,0,0-4.43-5.68H-5.75v2.43ZM5.27-1.3V0H-.15V-7H5.14v1.3H1.46v1.52H4.71v1.26H1.46V-1.3ZM12.98-7V0H11.65L8.16-4.25V0H6.56V-7H7.9l3.48,4.25V-7Zm-31.9,20.12a5.727,5.727,0,0,1-1.6-.225,3.764,3.764,0,0,1-1.245-.585l.55-1.22a3.732,3.732,0,0,0,1.07.53,4.019,4.019,0,0,0,1.24.2,1.981,1.981,0,0,0,1.02-.2.619.619,0,0,0,.33-.545.521.521,0,0,0-.195-.415,1.478,1.478,0,0,0-.5-.265q-.3-.1-.825-.22a11.4,11.4,0,0,1-1.31-.38,2.128,2.128,0,0,1-.875-.61,1.647,1.647,0,0,1-.365-1.12,1.948,1.948,0,0,1,.33-1.1,2.22,2.22,0,0,1,1-.785,4.06,4.06,0,0,1,1.625-.29,5.381,5.381,0,0,1,1.31.16,3.87,3.87,0,0,1,1.12.46l-.5,1.23a3.9,3.9,0,0,0-1.94-.55,1.819,1.819,0,0,0-1.005.22.672.672,0,0,0-.325.58.567.567,0,0,0,.375.535A5.888,5.888,0,0,0-18.5,8.86a11.4,11.4,0,0,1,1.31.38,2.169,2.169,0,0,1,.875.6,1.609,1.609,0,0,1,.365,1.11,1.911,1.911,0,0,1-.335,1.1,2.251,2.251,0,0,1-1,.785A4.1,4.1,0,0,1-18.915,13.12Zm7.47,0a4.086,4.086,0,0,1-1.965-.47,3.488,3.488,0,0,1-1.37-1.3A3.535,3.535,0,0,1-15.275,9.5a3.535,3.535,0,0,1,.495-1.855,3.488,3.488,0,0,1,1.37-1.3,4.086,4.086,0,0,1,1.965-.47,4.057,4.057,0,0,1,1.96.47,3.533,3.533,0,0,1,1.37,1.3,3.508,3.508,0,0,1,.5,1.855,3.508,3.508,0,0,1-.5,1.855,3.533,3.533,0,0,1-1.37,1.3A4.057,4.057,0,0,1-11.445,13.12Zm0-1.38a2.221,2.221,0,0,0,1.12-.285,2.045,2.045,0,0,0,.785-.8A2.337,2.337,0,0,0-9.255,9.5,2.337,2.337,0,0,0-9.54,8.34a2.045,2.045,0,0,0-.785-.8,2.221,2.221,0,0,0-1.12-.285,2.221,2.221,0,0,0-1.12.285,2.045,2.045,0,0,0-.785.8,2.337,2.337,0,0,0-.285,1.16,2.337,2.337,0,0,0,.285,1.16,2.045,2.045,0,0,0,.785.8A2.221,2.221,0,0,0-11.445,11.74Zm8.16,1.38a3.168,3.168,0,0,1-2.335-.83,3.2,3.2,0,0,1-.835-2.37V6h1.62V9.86q0,1.88,1.56,1.88a1.462,1.462,0,0,0,1.16-.455,2.121,2.121,0,0,0,.4-1.425V6h1.6V9.92A3.2,3.2,0,0,1-.95,12.29,3.168,3.168,0,0,1-3.285,13.12ZM5.945,13,4.6,11.05H3.105V13H1.485V6h3.03a3.889,3.889,0,0,1,1.615.31,2.4,2.4,0,0,1,1.055.88,2.424,2.424,0,0,1,.37,1.35,2.28,2.28,0,0,1-1.44,2.21L7.685,13Zm-.03-4.46a1.109,1.109,0,0,0-.38-.9,1.7,1.7,0,0,0-1.11-.315H3.105V9.76h1.32a1.683,1.683,0,0,0,1.11-.32A1.112,1.112,0,0,0,5.915,8.54Zm6.27,4.58a4.021,4.021,0,0,1-1.935-.465,3.47,3.47,0,0,1-1.36-1.29A3.554,3.554,0,0,1,8.395,9.5,3.554,3.554,0,0,1,8.89,7.635a3.47,3.47,0,0,1,1.36-1.29,4.042,4.042,0,0,1,1.945-.465,4.08,4.08,0,0,1,1.645.32,3.3,3.3,0,0,1,1.235.92l-1.04.96a2.236,2.236,0,0,0-1.76-.82,2.337,2.337,0,0,0-1.16.285,2.026,2.026,0,0,0-.795.8,2.5,2.5,0,0,0,0,2.32,2.026,2.026,0,0,0,.795.8,2.337,2.337,0,0,0,1.16.285,2.225,2.225,0,0,0,1.76-.83l1.04.96a3.242,3.242,0,0,1-1.24.93A4.116,4.116,0,0,1,12.185,13.12Zm9.4-1.42V13h-5.42V6h5.29V7.3h-3.68V8.82h3.25v1.26h-3.25V11.7Z" transform="translate(446 413.097)" fill="#3c9bcd"/>
        <path id="Path_5105" data-name="Path 5105" d="M-23.775-1.3V0H-29.2V-7h5.29v1.3h-3.68v1.52h3.25v1.26h-3.25V-1.3Zm4.4,1.42A3.168,3.168,0,0,1-21.71-.71a3.2,3.2,0,0,1-.835-2.37V-7h1.62v3.86q0,1.88,1.56,1.88a1.462,1.462,0,0,0,1.16-.455,2.121,2.121,0,0,0,.4-1.425V-7h1.6v3.92A3.2,3.2,0,0,1-17.04-.71,3.168,3.168,0,0,1-19.375.12Zm9.23-.12L-11.5-1.95h-1.49V0h-1.62V-7h3.03a3.889,3.889,0,0,1,1.615.31,2.4,2.4,0,0,1,1.055.88,2.424,2.424,0,0,1,.37,1.35A2.376,2.376,0,0,1-8.91-3.115a2.377,2.377,0,0,1-1.065.865L-8.405,0Zm-.03-4.46a1.109,1.109,0,0,0-.38-.9,1.7,1.7,0,0,0-1.11-.315h-1.32v2.44h1.32a1.683,1.683,0,0,0,1.11-.32A1.112,1.112,0,0,0-10.175-4.46ZM-3.865.12A4.086,4.086,0,0,1-5.83-.35,3.488,3.488,0,0,1-7.2-1.645,3.535,3.535,0,0,1-7.7-3.5a3.535,3.535,0,0,1,.5-1.855,3.488,3.488,0,0,1,1.37-1.3,4.086,4.086,0,0,1,1.965-.47,4.057,4.057,0,0,1,1.96.47,3.533,3.533,0,0,1,1.37,1.3A3.508,3.508,0,0,1-.035-3.5a3.508,3.508,0,0,1-.5,1.855A3.533,3.533,0,0,1-1.905-.35,4.057,4.057,0,0,1-3.865.12Zm0-1.38a2.221,2.221,0,0,0,1.12-.285A2.045,2.045,0,0,0-1.96-2.34,2.337,2.337,0,0,0-1.675-3.5,2.337,2.337,0,0,0-1.96-4.66a2.045,2.045,0,0,0-.785-.8,2.221,2.221,0,0,0-1.12-.285,2.221,2.221,0,0,0-1.12.285,2.045,2.045,0,0,0-.785.8A2.337,2.337,0,0,0-6.055-3.5,2.337,2.337,0,0,0-5.77-2.34a2.045,2.045,0,0,0,.785.795A2.221,2.221,0,0,0-3.865-1.26ZM4.215-7a3.889,3.889,0,0,1,1.615.31,2.4,2.4,0,0,1,1.055.88,2.424,2.424,0,0,1,.37,1.35,2.431,2.431,0,0,1-.37,1.345,2.356,2.356,0,0,1-1.055.88,3.944,3.944,0,0,1-1.615.3H2.8V0H1.185V-7Zm-.09,3.75a1.7,1.7,0,0,0,1.11-.315,1.1,1.1,0,0,0,.38-.895,1.109,1.109,0,0,0-.38-.9,1.7,1.7,0,0,0-1.11-.315H2.8v2.43Zm9.7,1.95V0H8.4V-7h5.29v1.3h-3.68v1.52h3.25v1.26h-3.25V-1.3Zm5.9-.2h-3.25L15.855,0h-1.66l3.12-7h1.6l3.13,7h-1.7Zm-.51-1.23L18.1-5.41l-1.11,2.68ZM29.195-7V0h-1.33l-3.49-4.25V0h-1.6V-7h1.34l3.48,4.25V-7Zm-67.88,20.12a4.021,4.021,0,0,1-1.935-.465,3.47,3.47,0,0,1-1.36-1.29A3.554,3.554,0,0,1-42.475,9.5a3.554,3.554,0,0,1,.495-1.865,3.47,3.47,0,0,1,1.36-1.29,4.042,4.042,0,0,1,1.945-.465,4.08,4.08,0,0,1,1.645.32,3.3,3.3,0,0,1,1.235.92l-1.04.96a2.236,2.236,0,0,0-1.76-.82,2.337,2.337,0,0,0-1.16.285,2.026,2.026,0,0,0-.8.8,2.337,2.337,0,0,0-.285,1.16,2.337,2.337,0,0,0,.285,1.16,2.026,2.026,0,0,0,.8.8,2.337,2.337,0,0,0,1.16.285,2.225,2.225,0,0,0,1.76-.83l1.04.96a3.242,3.242,0,0,1-1.24.93A4.116,4.116,0,0,1-38.685,13.12ZM-34.7,6h1.62v5.68h3.51V13H-34.7Zm9.31,7.12a4.086,4.086,0,0,1-1.965-.47,3.488,3.488,0,0,1-1.37-1.3,3.535,3.535,0,0,1-.5-1.855,3.535,3.535,0,0,1,.5-1.855,3.488,3.488,0,0,1,1.37-1.3,4.086,4.086,0,0,1,1.965-.47,4.057,4.057,0,0,1,1.96.47,3.533,3.533,0,0,1,1.37,1.3,3.508,3.508,0,0,1,.5,1.855,3.508,3.508,0,0,1-.5,1.855,3.533,3.533,0,0,1-1.37,1.3A4.057,4.057,0,0,1-25.395,13.12Zm0-1.38a2.221,2.221,0,0,0,1.12-.285,2.045,2.045,0,0,0,.785-.8A2.337,2.337,0,0,0-23.2,9.5a2.337,2.337,0,0,0-.285-1.16,2.045,2.045,0,0,0-.785-.8,2.221,2.221,0,0,0-1.12-.285,2.221,2.221,0,0,0-1.12.285,2.045,2.045,0,0,0-.785.8,2.337,2.337,0,0,0-.285,1.16,2.337,2.337,0,0,0,.285,1.16,2.045,2.045,0,0,0,.785.8A2.221,2.221,0,0,0-25.395,11.74Zm8.16,1.38a3.168,3.168,0,0,1-2.335-.83A3.2,3.2,0,0,1-20.4,9.92V6h1.62V9.86q0,1.88,1.56,1.88a1.462,1.462,0,0,0,1.16-.455,2.121,2.121,0,0,0,.4-1.425V6h1.6V9.92a3.2,3.2,0,0,1-.835,2.37A3.168,3.168,0,0,1-17.235,13.12ZM-12.465,6h3.18a4.469,4.469,0,0,1,2.015.435A3.257,3.257,0,0,1-5.91,7.66,3.446,3.446,0,0,1-5.425,9.5a3.446,3.446,0,0,1-.485,1.84,3.257,3.257,0,0,1-1.36,1.225A4.469,4.469,0,0,1-9.285,13h-3.18Zm3.1,5.67a2.352,2.352,0,0,0,1.675-.585A2.066,2.066,0,0,0-7.065,9.5,2.066,2.066,0,0,0-7.69,7.915,2.352,2.352,0,0,0-9.365,7.33h-1.48v4.34ZM.925,13.12A5.727,5.727,0,0,1-.68,12.9a3.764,3.764,0,0,1-1.245-.585l.55-1.22a3.732,3.732,0,0,0,1.07.53,4.019,4.019,0,0,0,1.24.2,1.981,1.981,0,0,0,1.02-.2.619.619,0,0,0,.33-.545.521.521,0,0,0-.195-.415,1.478,1.478,0,0,0-.5-.265q-.305-.1-.825-.22a11.4,11.4,0,0,1-1.31-.38,2.128,2.128,0,0,1-.875-.61,1.647,1.647,0,0,1-.365-1.12,1.948,1.948,0,0,1,.33-1.1,2.22,2.22,0,0,1,1-.785,4.06,4.06,0,0,1,1.625-.29,5.381,5.381,0,0,1,1.31.16A3.87,3.87,0,0,1,3.6,6.5L3.1,7.73a3.9,3.9,0,0,0-1.94-.55,1.819,1.819,0,0,0-1,.22.672.672,0,0,0-.325.58A.567.567,0,0,0,.2,8.515a5.888,5.888,0,0,0,1.145.345,11.4,11.4,0,0,1,1.31.38,2.169,2.169,0,0,1,.875.6A1.609,1.609,0,0,1,3.9,10.95a1.911,1.911,0,0,1-.335,1.1,2.251,2.251,0,0,1-1,.785A4.1,4.1,0,0,1,.925,13.12Zm9.5-1.42V13H5.005V6H10.3V7.3H6.615V8.82h3.25v1.26H6.615V11.7Zm5.75,1.3-1.35-1.95h-1.49V13h-1.62V6h3.03a3.889,3.889,0,0,1,1.615.31,2.4,2.4,0,0,1,1.055.88,2.424,2.424,0,0,1,.37,1.35,2.28,2.28,0,0,1-1.44,2.21L17.915,13Zm-.03-4.46a1.109,1.109,0,0,0-.38-.9,1.7,1.7,0,0,0-1.11-.315h-1.32V9.76h1.32a1.683,1.683,0,0,0,1.11-.32A1.112,1.112,0,0,0,16.145,8.54ZM25.8,6l-3.03,7h-1.6l-3.02-7H19.9l2.13,5,2.16-5Zm.58,0H28v7h-1.62Zm6.63,7.12a4.021,4.021,0,0,1-1.935-.465,3.47,3.47,0,0,1-1.36-1.29,3.554,3.554,0,0,1-.5-1.865,3.554,3.554,0,0,1,.5-1.865,3.47,3.47,0,0,1,1.36-1.29A4.34,4.34,0,0,1,34.66,6.2a3.3,3.3,0,0,1,1.235.92l-1.04.96a2.236,2.236,0,0,0-1.76-.82,2.337,2.337,0,0,0-1.16.285,2.026,2.026,0,0,0-.8.8,2.5,2.5,0,0,0,0,2.32,2.026,2.026,0,0,0,.8.8,2.337,2.337,0,0,0,1.16.285,2.225,2.225,0,0,0,1.76-.83l1.04.96a3.242,3.242,0,0,1-1.24.93A4.116,4.116,0,0,1,33.005,13.12Zm9.4-1.42V13h-5.42V6h5.29V7.3h-3.68V8.82h3.25v1.26h-3.25V11.7Z" transform="translate(590 272.013)" fill="#195f8c"/>
        <path id="Path_5104" data-name="Path 5104" d="M-26.83-7a3.889,3.889,0,0,1,1.615.31,2.4,2.4,0,0,1,1.055.88,2.424,2.424,0,0,1,.37,1.35,2.431,2.431,0,0,1-.37,1.345,2.357,2.357,0,0,1-1.055.88,3.944,3.944,0,0,1-1.615.3h-1.41V0h-1.62V-7Zm-.09,3.75a1.7,1.7,0,0,0,1.11-.315,1.1,1.1,0,0,0,.38-.895,1.109,1.109,0,0,0-.38-.9,1.7,1.7,0,0,0-1.11-.315h-1.32v2.43ZM-19.15.12a4.086,4.086,0,0,1-1.965-.47,3.488,3.488,0,0,1-1.37-1.295,3.535,3.535,0,0,1-.5-1.855,3.535,3.535,0,0,1,.5-1.855,3.488,3.488,0,0,1,1.37-1.3,4.086,4.086,0,0,1,1.965-.47,4.057,4.057,0,0,1,1.96.47,3.533,3.533,0,0,1,1.37,1.3,3.508,3.508,0,0,1,.5,1.855,3.508,3.508,0,0,1-.5,1.855A3.533,3.533,0,0,1-17.19-.35,4.057,4.057,0,0,1-19.15.12Zm0-1.38a2.221,2.221,0,0,0,1.12-.285,2.045,2.045,0,0,0,.785-.795A2.337,2.337,0,0,0-16.96-3.5a2.337,2.337,0,0,0-.285-1.16,2.045,2.045,0,0,0-.785-.8,2.221,2.221,0,0,0-1.12-.285,2.221,2.221,0,0,0-1.12.285,2.045,2.045,0,0,0-.785.8A2.337,2.337,0,0,0-21.34-3.5a2.337,2.337,0,0,0,.285,1.16,2.045,2.045,0,0,0,.785.795A2.221,2.221,0,0,0-19.15-1.26ZM-3.75-7-6.04,0H-7.78L-9.32-4.74-10.91,0h-1.73l-2.3-7h1.68l1.58,4.92L-10.03-7h1.5l1.6,4.96L-5.3-7ZM2.57-1.3V0H-2.85V-7H2.44v1.3H-1.24v1.52H2.01v1.26H-1.24V-1.3ZM8.32,0,6.97-1.95H5.48V0H3.86V-7H6.89a3.889,3.889,0,0,1,1.615.31,2.4,2.4,0,0,1,1.055.88,2.424,2.424,0,0,1,.37,1.35,2.376,2.376,0,0,1-.375,1.345A2.377,2.377,0,0,1,8.49-2.25L10.06,0ZM8.29-4.46a1.109,1.109,0,0,0-.38-.9A1.7,1.7,0,0,0,6.8-5.68H5.48v2.44H6.8a1.683,1.683,0,0,0,1.11-.32A1.112,1.112,0,0,0,8.29-4.46ZM12.83-5.7v1.85h3.24v1.3H12.83V0H11.21V-7H16.5v1.3ZM20.71.12a3.168,3.168,0,0,1-2.335-.83,3.2,3.2,0,0,1-.835-2.37V-7h1.62v3.86q0,1.88,1.56,1.88a1.462,1.462,0,0,0,1.16-.455,2.121,2.121,0,0,0,.4-1.425V-7h1.6v3.92a3.2,3.2,0,0,1-.835,2.37A3.168,3.168,0,0,1,20.71.12ZM25.48-7H27.1v5.68h3.51V0H25.48ZM-30.875,11.5h-3.25l-.62,1.5h-1.66l3.12-7h1.6l3.13,7h-1.7Zm-.51-1.23L-32.5,7.59l-1.11,2.68Zm6.52,2.85a3.168,3.168,0,0,1-2.335-.83,3.2,3.2,0,0,1-.835-2.37V6h1.62V9.86q0,1.88,1.56,1.88a1.462,1.462,0,0,0,1.16-.455,2.121,2.121,0,0,0,.4-1.425V6h1.6V9.92a3.2,3.2,0,0,1-.835,2.37A3.168,3.168,0,0,1-24.865,13.12Zm6.1-5.8h-2.24V6h6.1V7.32h-2.24V13h-1.62Zm8.02,5.8a4.086,4.086,0,0,1-1.965-.47,3.488,3.488,0,0,1-1.37-1.3A3.535,3.535,0,0,1-14.575,9.5a3.535,3.535,0,0,1,.495-1.855,3.488,3.488,0,0,1,1.37-1.3,4.086,4.086,0,0,1,1.965-.47,4.057,4.057,0,0,1,1.96.47,3.533,3.533,0,0,1,1.37,1.3,3.508,3.508,0,0,1,.5,1.855,3.508,3.508,0,0,1-.5,1.855,3.533,3.533,0,0,1-1.37,1.3A4.057,4.057,0,0,1-10.745,13.12Zm0-1.38a2.221,2.221,0,0,0,1.12-.285,2.045,2.045,0,0,0,.785-.8A2.337,2.337,0,0,0-8.555,9.5,2.337,2.337,0,0,0-8.84,8.34a2.045,2.045,0,0,0-.785-.8,2.221,2.221,0,0,0-1.12-.285,2.221,2.221,0,0,0-1.12.285,2.045,2.045,0,0,0-.785.8,2.337,2.337,0,0,0-.285,1.16,2.337,2.337,0,0,0,.285,1.16,2.045,2.045,0,0,0,.785.8A2.221,2.221,0,0,0-10.745,11.74ZM.675,13,.665,8.8-1.4,12.26h-.73l-2.05-3.37V13H-5.7V6h1.34l2.62,4.35L.845,6h1.33l.02,7Zm7.79-1.5H5.215L4.595,13H2.935l3.12-7h1.6l3.13,7h-1.7Zm-.51-1.23L6.845,7.59l-1.11,2.68Zm4.66-2.95h-2.24V6h6.1V7.32h-2.24V13h-1.62ZM17.345,6h1.62v7h-1.62Zm6.67,7.12a4.086,4.086,0,0,1-1.965-.47,3.488,3.488,0,0,1-1.37-1.3,3.535,3.535,0,0,1-.5-1.855,3.535,3.535,0,0,1,.5-1.855,3.488,3.488,0,0,1,1.37-1.3,4.332,4.332,0,0,1,3.925,0,3.57,3.57,0,0,1,0,6.3A4.057,4.057,0,0,1,24.015,13.12Zm0-1.38a2.221,2.221,0,0,0,1.12-.285,2.045,2.045,0,0,0,.785-.8,2.5,2.5,0,0,0,0-2.32,2.045,2.045,0,0,0-.785-.8,2.343,2.343,0,0,0-2.24,0,2.045,2.045,0,0,0-.785.8,2.5,2.5,0,0,0,0,2.32,2.045,2.045,0,0,0,.785.8A2.221,2.221,0,0,0,24.015,11.74ZM35.485,6v7h-1.33l-3.49-4.25V13h-1.6V6h1.34l3.48,4.25V6Z" transform="translate(734 413.097)" fill="#32cd32"/>
        <path id="Path_5103" data-name="Path 5103" d="M-22.21-11.266h6.966l-.3-1.032q-1.247-4.214-2.042-7.181t-.967-3.827l-.172-.86A122.106,122.106,0,0,1-21.909-12.3ZM-11.89,0l-1.763-5.934H-23.8L-25.564,0h-6.923l9.675-28.982h8.342L-4.795,0Zm17.5-14.62H7.8q5.246,0,5.246-4.773,0-4.3-4.859-4.3H5.611ZM-1.011-28.982H8.965a11.173,11.173,0,0,1,7.8,2.709,8.879,8.879,0,0,1,2.988,6.88A9.132,9.132,0,0,1,16.641-12,11.517,11.517,0,0,1,8.965-9.374H5.611V0H-1.011ZM23.628,0V-28.982H30.25V0Z" transform="translate(734 382)" fill="#32cd32"/>
        <path id="Path_5102" data-name="Path 5102" d="M-25.5.12a4.086,4.086,0,0,1-1.965-.47,3.488,3.488,0,0,1-1.37-1.295,3.535,3.535,0,0,1-.5-1.855,3.535,3.535,0,0,1,.5-1.855,3.488,3.488,0,0,1,1.37-1.3A4.086,4.086,0,0,1-25.5-7.12a4.057,4.057,0,0,1,1.96.47,3.533,3.533,0,0,1,1.37,1.3,3.508,3.508,0,0,1,.5,1.855,3.508,3.508,0,0,1-.5,1.855A3.533,3.533,0,0,1-23.54-.35,4.057,4.057,0,0,1-25.5.12Zm0-1.38a2.221,2.221,0,0,0,1.12-.285,2.045,2.045,0,0,0,.785-.795A2.337,2.337,0,0,0-23.31-3.5a2.337,2.337,0,0,0-.285-1.16,2.045,2.045,0,0,0-.785-.8A2.221,2.221,0,0,0-25.5-5.74a2.221,2.221,0,0,0-1.12.285,2.045,2.045,0,0,0-.785.8A2.337,2.337,0,0,0-27.69-3.5,2.337,2.337,0,0,0-27.4-2.34a2.045,2.045,0,0,0,.785.795A2.221,2.221,0,0,0-25.5-1.26ZM-17.42-7a3.889,3.889,0,0,1,1.615.31,2.4,2.4,0,0,1,1.055.88,2.424,2.424,0,0,1,.37,1.35,2.431,2.431,0,0,1-.37,1.345,2.356,2.356,0,0,1-1.055.88,3.944,3.944,0,0,1-1.615.3h-1.41V0h-1.62V-7Zm-.09,3.75a1.7,1.7,0,0,0,1.11-.315,1.1,1.1,0,0,0,.38-.895,1.109,1.109,0,0,0-.38-.9,1.7,1.7,0,0,0-1.11-.315h-1.32v2.43Zm5.54-2.43h-2.24V-7h6.1v1.32h-2.24V0h-1.62ZM-7.24-7h1.62V0H-7.24ZM2.41,0,2.4-4.2.34-.74H-.39L-2.44-4.11V0H-3.96V-7h1.34L0-2.65,2.58-7H3.91l.02,7ZM5.59-7H7.21V0H5.59Zm8.95,5.68V0H8.42V-1.05l3.84-4.63H8.5V-7h5.89v1.05L10.56-1.32ZM21-1.3V0H15.58V-7h5.29v1.3H17.19v1.52h3.25v1.26H17.19V-1.3ZM22.29-7h3.18a4.469,4.469,0,0,1,2.015.435,3.257,3.257,0,0,1,1.36,1.225A3.446,3.446,0,0,1,29.33-3.5a3.446,3.446,0,0,1-.485,1.84,3.257,3.257,0,0,1-1.36,1.225A4.469,4.469,0,0,1,25.47,0H22.29Zm3.1,5.67a2.352,2.352,0,0,0,1.675-.585A2.066,2.066,0,0,0,27.69-3.5a2.066,2.066,0,0,0-.625-1.585A2.352,2.352,0,0,0,25.39-5.67H23.91v4.34ZM-40.425,7.3V9.15h3.24v1.3h-3.24V13h-1.62V6h5.29V7.3Zm8.09,5.82a4.086,4.086,0,0,1-1.965-.47,3.488,3.488,0,0,1-1.37-1.3A3.535,3.535,0,0,1-36.165,9.5a3.535,3.535,0,0,1,.495-1.855,3.488,3.488,0,0,1,1.37-1.3,4.086,4.086,0,0,1,1.965-.47,4.057,4.057,0,0,1,1.96.47,3.533,3.533,0,0,1,1.37,1.3,3.508,3.508,0,0,1,.5,1.855,3.508,3.508,0,0,1-.5,1.855,3.533,3.533,0,0,1-1.37,1.3A4.057,4.057,0,0,1-32.335,13.12Zm0-1.38a2.221,2.221,0,0,0,1.12-.285,2.045,2.045,0,0,0,.785-.8,2.337,2.337,0,0,0,.285-1.16,2.337,2.337,0,0,0-.285-1.16,2.045,2.045,0,0,0-.785-.8,2.221,2.221,0,0,0-1.12-.285,2.221,2.221,0,0,0-1.12.285,2.045,2.045,0,0,0-.785.8,2.337,2.337,0,0,0-.285,1.16,2.337,2.337,0,0,0,.285,1.16,2.045,2.045,0,0,0,.785.8A2.221,2.221,0,0,0-32.335,11.74Zm9.51,1.26-1.35-1.95h-1.49V13h-1.62V6h3.03a3.889,3.889,0,0,1,1.615.31,2.4,2.4,0,0,1,1.055.88,2.424,2.424,0,0,1,.37,1.35,2.376,2.376,0,0,1-.375,1.345,2.377,2.377,0,0,1-1.065.865l1.57,2.25Zm-.03-4.46a1.109,1.109,0,0,0-.38-.9,1.7,1.7,0,0,0-1.11-.315h-1.32V9.76h1.32a1.683,1.683,0,0,0,1.11-.32A1.112,1.112,0,0,0-22.855,8.54Zm9.14,4.58a4.086,4.086,0,0,1-1.965-.47,3.488,3.488,0,0,1-1.37-1.3,3.535,3.535,0,0,1-.5-1.855,3.535,3.535,0,0,1,.5-1.855,3.488,3.488,0,0,1,1.37-1.3,4.086,4.086,0,0,1,1.965-.47,4.057,4.057,0,0,1,1.96.47,3.533,3.533,0,0,1,1.37,1.3,3.508,3.508,0,0,1,.5,1.855,3.508,3.508,0,0,1-.5,1.855,3.533,3.533,0,0,1-1.37,1.3A4.057,4.057,0,0,1-13.715,13.12Zm0-1.38a2.221,2.221,0,0,0,1.12-.285,2.045,2.045,0,0,0,.785-.8,2.337,2.337,0,0,0,.285-1.16,2.337,2.337,0,0,0-.285-1.16,2.045,2.045,0,0,0-.785-.8,2.221,2.221,0,0,0-1.12-.285,2.221,2.221,0,0,0-1.12.285,2.045,2.045,0,0,0-.785.8A2.337,2.337,0,0,0-15.9,9.5a2.337,2.337,0,0,0,.285,1.16,2.045,2.045,0,0,0,.785.8A2.221,2.221,0,0,0-13.715,11.74ZM-5.635,6a3.889,3.889,0,0,1,1.615.31,2.4,2.4,0,0,1,1.055.88,2.424,2.424,0,0,1,.37,1.35,2.431,2.431,0,0,1-.37,1.345,2.356,2.356,0,0,1-1.055.88,3.944,3.944,0,0,1-1.615.3h-1.41V13h-1.62V6Zm-.09,3.75a1.7,1.7,0,0,0,1.11-.315,1.1,1.1,0,0,0,.38-.895,1.109,1.109,0,0,0-.38-.9,1.7,1.7,0,0,0-1.11-.315h-1.32V9.75Zm9.7,1.95V13h-5.42V6h5.29V7.3H.165V8.82h3.25v1.26H.165V11.7ZM11.685,6v7h-1.33L6.865,8.75V13h-1.6V6h1.34l3.48,4.25V6Zm3.96,7.12A5.727,5.727,0,0,1,14.04,12.9a3.764,3.764,0,0,1-1.245-.585l.55-1.22a3.732,3.732,0,0,0,1.07.53,4.019,4.019,0,0,0,1.24.2,1.981,1.981,0,0,0,1.02-.2A.619.619,0,0,0,17,11.07a.521.521,0,0,0-.195-.415,1.478,1.478,0,0,0-.5-.265q-.3-.1-.825-.22a11.4,11.4,0,0,1-1.31-.38,2.128,2.128,0,0,1-.875-.61,1.647,1.647,0,0,1-.365-1.12,1.948,1.948,0,0,1,.33-1.1,2.22,2.22,0,0,1,.995-.785,4.06,4.06,0,0,1,1.625-.29,5.381,5.381,0,0,1,1.31.16,3.87,3.87,0,0,1,1.12.46l-.5,1.23a3.9,3.9,0,0,0-1.94-.55,1.819,1.819,0,0,0-1.005.22.672.672,0,0,0-.325.58.567.567,0,0,0,.375.535,5.888,5.888,0,0,0,1.145.345,11.4,11.4,0,0,1,1.31.38,2.169,2.169,0,0,1,.875.6,1.609,1.609,0,0,1,.365,1.11,1.911,1.911,0,0,1-.335,1.1,2.251,2.251,0,0,1-1,.785A4.1,4.1,0,0,1,15.645,13.12ZM26.145,6v7h-1.62V10.13h-3.18V13h-1.62V6h1.62V8.76h3.18V6ZM27.8,6h1.62v7H27.8Zm4.9,1.3V9.15h3.24v1.3H32.7V13h-1.62V6h5.29V7.3Zm6.27.02h-2.24V6h6.1V7.32H40.6V13h-1.62Z" transform="translate(590 413.097)" fill="#535353"/>
        <path id="Path_5101" data-name="Path 5101" d="M-1.01-7V0H-2.34L-5.83-4.25V0h-1.6V-7h1.34l3.48,4.25V-7ZM4.04.12A4.086,4.086,0,0,1,2.075-.35,3.488,3.488,0,0,1,.7-1.645,3.535,3.535,0,0,1,.21-3.5,3.535,3.535,0,0,1,.7-5.355a3.488,3.488,0,0,1,1.37-1.3A4.086,4.086,0,0,1,4.04-7.12,4.057,4.057,0,0,1,6-6.65a3.533,3.533,0,0,1,1.37,1.3A3.508,3.508,0,0,1,7.87-3.5a3.508,3.508,0,0,1-.5,1.855A3.533,3.533,0,0,1,6-.35,4.057,4.057,0,0,1,4.04.12Zm0-1.38a2.221,2.221,0,0,0,1.12-.285,2.045,2.045,0,0,0,.785-.795A2.337,2.337,0,0,0,6.23-3.5a2.337,2.337,0,0,0-.285-1.16,2.045,2.045,0,0,0-.785-.8A2.221,2.221,0,0,0,4.04-5.74a2.221,2.221,0,0,0-1.12.285,2.045,2.045,0,0,0-.785.8A2.337,2.337,0,0,0,1.85-3.5a2.337,2.337,0,0,0,.285,1.16,2.045,2.045,0,0,0,.785.795A2.221,2.221,0,0,0,4.04-1.26ZM-21.145,6h1.62v5.68h3.51V13h-5.13Zm9.31,7.12a4.086,4.086,0,0,1-1.965-.47,3.488,3.488,0,0,1-1.37-1.3A3.535,3.535,0,0,1-15.665,9.5a3.535,3.535,0,0,1,.495-1.855,3.488,3.488,0,0,1,1.37-1.3,4.086,4.086,0,0,1,1.965-.47,4.057,4.057,0,0,1,1.96.47,3.533,3.533,0,0,1,1.37,1.3,3.508,3.508,0,0,1,.5,1.855,3.508,3.508,0,0,1-.5,1.855,3.533,3.533,0,0,1-1.37,1.3A4.057,4.057,0,0,1-11.835,13.12Zm0-1.38a2.221,2.221,0,0,0,1.12-.285,2.045,2.045,0,0,0,.785-.8A2.337,2.337,0,0,0-9.645,9.5,2.337,2.337,0,0,0-9.93,8.34a2.045,2.045,0,0,0-.785-.8,2.221,2.221,0,0,0-1.12-.285,2.221,2.221,0,0,0-1.12.285,2.045,2.045,0,0,0-.785.8,2.337,2.337,0,0,0-.285,1.16,2.337,2.337,0,0,0,.285,1.16,2.045,2.045,0,0,0,.785.8A2.221,2.221,0,0,0-11.835,11.74Zm8.4,1.38a4.021,4.021,0,0,1-1.935-.465,3.47,3.47,0,0,1-1.36-1.29,3.554,3.554,0,0,1-.5-1.865,3.554,3.554,0,0,1,.5-1.865,3.47,3.47,0,0,1,1.36-1.29A4.042,4.042,0,0,1-3.425,5.88,4.08,4.08,0,0,1-1.78,6.2a3.3,3.3,0,0,1,1.235.92l-1.04.96a2.236,2.236,0,0,0-1.76-.82,2.337,2.337,0,0,0-1.16.285,2.026,2.026,0,0,0-.795.8A2.337,2.337,0,0,0-5.585,9.5,2.337,2.337,0,0,0-5.3,10.66a2.026,2.026,0,0,0,.795.8,2.337,2.337,0,0,0,1.16.285,2.225,2.225,0,0,0,1.76-.83l1.04.96a3.242,3.242,0,0,1-1.24.93A4.116,4.116,0,0,1-3.435,13.12ZM3.1,10.25l-.94.98V13H.545V6h1.61V9.27L5.255,6h1.8l-2.9,3.12L7.225,13H5.335Zm4.18-.69H10.1v1.25H7.275ZM11.445,6h1.62v7h-1.62Zm9.7,0v7h-1.33l-3.49-4.25V13h-1.6V6h1.34l3.48,4.25V6Z" transform="translate(734 272.109)" fill="#195f8c"/>
      </g>
      <g id="Group_3" data-name="Group 3" transform="translate(0 141)">
        <path id="code-solid" d="M27.761,50.987l-6.077-1.763a1.2,1.2,0,0,1-.817-1.484L34.465.9A1.2,1.2,0,0,1,35.949.083l6.077,1.763a1.2,1.2,0,0,1,.817,1.484l-13.6,46.84A1.194,1.194,0,0,1,27.761,50.987ZM16.4,39.81l4.333-4.622a1.2,1.2,0,0,0-.08-1.713l-9.025-7.939L20.658,17.6a1.187,1.187,0,0,0,.08-1.713L16.4,11.26a1.2,1.2,0,0,0-1.693-.05L.356,24.659a1.188,1.188,0,0,0,0,1.743L14.711,39.86a1.188,1.188,0,0,0,1.693-.05ZM49,39.87,63.354,26.412a1.188,1.188,0,0,0,0-1.743L49,11.2a1.206,1.206,0,0,0-1.693.05l-4.333,4.622a1.2,1.2,0,0,0,.08,1.713l9.025,7.949-9.025,7.939a1.187,1.187,0,0,0-.08,1.713l4.333,4.622A1.2,1.2,0,0,0,49,39.87Z" transform="translate(414.645 199.963)" fill="#3c9bcd"/>
      </g>
      <g id="Norway" transform="translate(552.729 160.317)">
        <g id="Sweden" transform="translate(13 54.016)">
          <path id="Path_289" data-name="Path 289" d="M3,0H45.543a3,3,0,0,1,3,3V27.985a3,3,0,0,1-3,3H3a3,3,0,0,1-3-3V3A3,3,0,0,1,3,0Z" transform="translate(0.271 -0.43)" fill="#039"/>
          <path id="Polygon_19" data-name="Polygon 19" d="M2,0l.5,1.488,1.5.04-1.191.96L3.236,4,2,3.106.764,4l.427-1.512L0,1.528l1.5-.04Z" transform="translate(30.271 17.57)" fill="#ffd800"/>
          <path id="Polygon_20" data-name="Polygon 20" d="M2,0l.5,1.488,1.5.04-1.191.96L3.236,4,2,3.106.764,4l.427-1.512L0,1.528l1.5-.04Z" transform="translate(31.271 7.57)" fill="#ffd800"/>
          <path id="Polygon_21" data-name="Polygon 21" d="M2,0l.5,1.488,1.5.04-1.191.96L3.236,4,2,3.106.764,4l.427-1.512L0,1.528l1.5-.04Z" transform="translate(32.271 12.57)" fill="#ffd800"/>
          <path id="Polygon_22" data-name="Polygon 22" d="M2,0l.5,1.488,1.5.04-1.191.96L3.236,4,2,3.106.764,4l.427-1.512L0,1.528l1.5-.04Z" transform="translate(27.271 3.57)" fill="#ffd800"/>
          <path id="Polygon_23" data-name="Polygon 23" d="M2,0l.5,1.488,1.5.04-1.191.96L3.236,4,2,3.106.764,4l.427-1.512L0,1.528l1.5-.04Z" transform="translate(27.271 21.57)" fill="#ffd800"/>
          <path id="Polygon_24" data-name="Polygon 24" d="M2,0l.5,1.488,1.5.04-1.191.96L3.236,4,2,3.106.764,4l.427-1.512L0,1.528l1.5-.04Z" transform="translate(22.271 22.57)" fill="#ffd800"/>
          <path id="Polygon_25" data-name="Polygon 25" d="M2,0l.5,1.488,1.5.04-1.191.96L3.236,4,2,3.106.764,4l.427-1.512L0,1.528l1.5-.04Z" transform="translate(17.271 21.57)" fill="#ffd800"/>
          <path id="Polygon_26" data-name="Polygon 26" d="M2,0l.5,1.488,1.5.04-1.191.96L3.236,4,2,3.106.764,4l.427-1.512L0,1.528l1.5-.04Z" transform="translate(13.271 7.57)" fill="#ffd800"/>
          <path id="Polygon_27" data-name="Polygon 27" d="M2,0l.5,1.488,1.5.04-1.191.96L3.236,4,2,3.106.764,4l.427-1.512L0,1.528l1.5-.04Z" transform="translate(13.271 17.57)" fill="#ffd800"/>
          <path id="Polygon_28" data-name="Polygon 28" d="M2,0l.5,1.488,1.5.04-1.191.96L3.236,4,2,3.106.764,4l.427-1.512L0,1.528l1.5-.04Z" transform="translate(12.271 12.57)" fill="#ffd800"/>
          <path id="Polygon_29" data-name="Polygon 29" d="M2,0l.5,1.488,1.5.04-1.191.96L3.236,4,2,3.106.764,4l.427-1.512L0,1.528l1.5-.04Z" transform="translate(17.271 3.57)" fill="#ffd800"/>
          <path id="Polygon_30" data-name="Polygon 30" d="M2,0l.5,1.488,1.5.04-1.191.96L3.236,4,2,3.106.764,4l.427-1.512L0,1.528l1.5-.04Z" transform="translate(22.271 2.57)" fill="#ffd800"/>
        </g>
      </g>
      <g id="OpenShift-LogoType" transform="translate(560 342.53)">
        <path id="path44560" d="M54.228,11.987a23.321,23.321,0,0,0-2-3.4l-8.212,2.989a15.351,15.351,0,0,1,2.414,3.251Zm-36.3,9.083L9.71,24.059a23.89,23.89,0,0,0,.651,3.894l7.8-2.841a15.271,15.271,0,0,1-.24-4.041" fill="#c22133"/>
        <path id="path44564" d="M36.156,9.66a15.2,15.2,0,0,1,4.438,3.16l8.212-2.989A23.477,23.477,0,0,0,6.292,25.3l8.214-2.989A15.218,15.218,0,0,1,36.156,9.66" fill="#db212e"/>
        <path id="path44572" d="M44.916,24.668a15.063,15.063,0,0,1-1.379,5.274,15.279,15.279,0,0,1-20.282,7.383,15.11,15.11,0,0,1-4.446-3.155l-8.2,2.983A23.464,23.464,0,0,0,51,33.421a23.254,23.254,0,0,0,2.115-11.735l-8.2,2.983Z" fill="#db212e"/>
        <path id="path44576" d="M46.935,14.641l-7.8,2.84a15.311,15.311,0,0,1,1.91,8.595l8.2-2.981a23.665,23.665,0,0,0-2.3-8.454M10.873,27.765l-7.8,2.843a23.758,23.758,0,0,0,3.67,7.955l8.195-2.984a15.339,15.339,0,0,1-4.061-7.814" fill="#eb2126"/>
        <path id="path44584" d="M53.038,9.823c-.259-.42-.528-.834-.814-1.236l-8.212,2.989a14.608,14.608,0,0,1,1.011,1.165Zm-35.145,12.9a14.534,14.534,0,0,1,.031-1.649L9.71,24.059c.042.526.109,1.049.188,1.57l8-2.91Z" fill="#ad213b"/>
        <path id="path44588" d="M53.112,21.686l-8.2,2.983a15,15,0,0,1-.693,3.525l8.921-3.253a23.556,23.556,0,0,0-.033-3.255m-42.5,15.467A23.269,23.269,0,0,0,12.7,39.689l8.922-3.254a15.164,15.164,0,0,1-2.816-2.266Z" fill="#ba2133"/>
      </g>
    </g>
  </g>
</svg>
