<svg xmlns="http://www.w3.org/2000/svg" xmlns:xlink="http://www.w3.org/1999/xlink" width="432" height="285" viewBox="0 0 432 285">
  <defs>
    <filter id="Path_5093" x="288" y="0" width="144" height="144" filterUnits="userSpaceOnUse">
      <feOffset dy="3" input="SourceAlpha"/>
      <feGaussianBlur stdDeviation="3" result="blur"/>
      <feFlood flood-opacity="0.161"/>
      <feComposite operator="in" in2="blur"/>
      <feComposite in="SourceGraphic"/>
    </filter>
    <filter id="Path_295" x="0" y="0" width="144" height="144" filterUnits="userSpaceOnUse">
      <feOffset dy="3" input="SourceAlpha"/>
      <feGaussianBlur stdDeviation="3" result="blur-2"/>
      <feFlood flood-opacity="0.161"/>
      <feComposite operator="in" in2="blur-2"/>
      <feComposite in="SourceGraphic"/>
    </filter>
    <filter id="Path_294" x="288" y="141" width="144" height="144" filterUnits="userSpaceOnUse">
      <feOffset dy="3" input="SourceAlpha"/>
      <feGaussianBlur stdDeviation="3" result="blur-3"/>
      <feFlood flood-opacity="0.161"/>
      <feComposite operator="in" in2="blur-3"/>
      <feComposite in="SourceGraphic"/>
    </filter>
    <filter id="Path_293" x="144" y="0" width="144" height="144" filterUnits="userSpaceOnUse">
      <feOffset dy="3" input="SourceAlpha"/>
      <feGaussianBlur stdDeviation="3" result="blur-4"/>
      <feFlood flood-opacity="0.161"/>
      <feComposite operator="in" in2="blur-4"/>
      <feComposite in="SourceGraphic"/>
    </filter>
    <filter id="Path_292" x="0" y="141" width="144" height="144" filterUnits="userSpaceOnUse">
      <feOffset dy="3" input="SourceAlpha"/>
      <feGaussianBlur stdDeviation="3" result="blur-5"/>
      <feFlood flood-opacity="0.161"/>
      <feComposite operator="in" in2="blur-5"/>
      <feComposite in="SourceGraphic"/>
    </filter>
    <filter id="Path_291" x="144" y="141" width="144" height="144" filterUnits="userSpaceOnUse">
      <feOffset dy="3" input="SourceAlpha"/>
      <feGaussianBlur stdDeviation="3" result="blur-6"/>
      <feFlood flood-opacity="0.161"/>
      <feComposite operator="in" in2="blur-6"/>
      <feComposite in="SourceGraphic"/>
    </filter>
    <clipPath id="clip-path">
      <rect id="Rectangle_6" data-name="Rectangle 6" width="51" height="51" transform="translate(709 200)" fill="#32cd32"/>
    </clipPath>
    <clipPath id="clip-path-2">
      <rect id="Rectangle_4" data-name="Rectangle 4" width="51" height="51" transform="translate(565 200)" fill="#195f8c"/>
    </clipPath>
  </defs>
  <g id="safespring_key-points-openshift-2" transform="translate(-89 -82)">
    <g id="Compute" transform="translate(-285 -92)">
      <g transform="matrix(1, 0, 0, 1, 374, 174)" filter="url(#Path_5093)">
        <path id="Path_5093-2" data-name="Path 5093" d="M7,0H119a7,7,0,0,1,7,7V119a7,7,0,0,1-7,7H7a7,7,0,0,1-7-7V7A7,7,0,0,1,7,0Z" transform="translate(297 6)" fill="#fff"/>
      </g>
      <g transform="matrix(1, 0, 0, 1, 374, 174)" filter="url(#Path_295)">
        <path id="Path_295-2" data-name="Path 295" d="M7,0H119a7,7,0,0,1,7,7V119a7,7,0,0,1-7,7H7a7,7,0,0,1-7-7V7A7,7,0,0,1,7,0Z" transform="translate(9 6)" fill="#fff"/>
      </g>
      <g transform="matrix(1, 0, 0, 1, 374, 174)" filter="url(#Path_294)">
        <path id="Path_294-2" data-name="Path 294" d="M7,0H119a7,7,0,0,1,7,7V119a7,7,0,0,1-7,7H7a7,7,0,0,1-7-7V7A7,7,0,0,1,7,0Z" transform="translate(297 147)" fill="#fff"/>
      </g>
      <g transform="matrix(1, 0, 0, 1, 374, 174)" filter="url(#Path_293)">
        <path id="Path_293-2" data-name="Path 293" d="M7,0H119a7,7,0,0,1,7,7V119a7,7,0,0,1-7,7H7a7,7,0,0,1-7-7V7A7,7,0,0,1,7,0Z" transform="translate(153 6)" fill="#fff"/>
      </g>
      <g transform="matrix(1, 0, 0, 1, 374, 174)" filter="url(#Path_292)">
        <path id="Path_292-2" data-name="Path 292" d="M7,0H119a7,7,0,0,1,7,7V119a7,7,0,0,1-7,7H7a7,7,0,0,1-7-7V7A7,7,0,0,1,7,0Z" transform="translate(9 147)" fill="#fff"/>
      </g>
      <g transform="matrix(1, 0, 0, 1, 374, 174)" filter="url(#Path_291)">
        <path id="Path_291-2" data-name="Path 291" d="M7,0H119a7,7,0,0,1,7,7V119a7,7,0,0,1-7,7H7a7,7,0,0,1-7-7V7A7,7,0,0,1,7,0Z" transform="translate(153 147)" fill="#fff"/>
      </g>
      <g id="Mask_Group_3" data-name="Mask Group 3" transform="translate(-287.5 -1.007)" clip-path="url(#clip-path)">
        <path id="user-lock-solid" d="M17.85,20.4A10.2,10.2,0,1,0,7.65,10.2a10.2,10.2,0,0,0,10.2,10.2Zm7.65,5.1a5.027,5.027,0,0,1,.645-2.43,10.906,10.906,0,0,0-1.155-.12H23.659a13.872,13.872,0,0,1-11.618,0H10.71A10.712,10.712,0,0,0,0,33.658v3.317A3.825,3.825,0,0,0,3.825,40.8H26.209a5.063,5.063,0,0,1-.709-2.55Zm22.95-2.55H45.9V16.575a6.375,6.375,0,1,0-12.75,0V22.95H30.6a2.55,2.55,0,0,0-2.55,2.55V38.25A2.55,2.55,0,0,0,30.6,40.8H48.45A2.55,2.55,0,0,0,51,38.25V25.5A2.55,2.55,0,0,0,48.45,22.95ZM39.525,34.425a2.55,2.55,0,1,1,2.55-2.55A2.55,2.55,0,0,1,39.525,34.425Zm2.55-11.475h-5.1V16.575a2.55,2.55,0,0,1,5.1,0Z" transform="translate(709 205.1)" fill="#32cd32"/>
      </g>
      <g id="Group_2" data-name="Group 2" transform="translate(144 0.097)" clip-path="url(#clip-path-2)">
        <path id="lock-open-solid" d="M32.1,0A11.6,11.6,0,0,0,20.619,11.635v5.344H3.639A3.64,3.64,0,0,0,0,20.618V35.172a3.64,3.64,0,0,0,3.639,3.639H30.322a3.64,3.64,0,0,0,3.639-3.639V20.618a3.64,3.64,0,0,0-3.639-3.639H26.683v-5.39A5.458,5.458,0,1,1,37.6,11.521v6.064A1.815,1.815,0,0,0,39.418,19.4h2.426a1.815,1.815,0,0,0,1.819-1.819V11.521A11.535,11.535,0,0,0,32.1,0Z" transform="translate(570.746 206.095)" fill="#195f8c"/>
      </g>
      <g id="TEXT-PATH">
        <path id="Path_5099" data-name="Path 5099" d="M-11.125-3.61h1.48V-.77a4.228,4.228,0,0,1-1.32.66,5.125,5.125,0,0,1-1.51.23,4.092,4.092,0,0,1-1.96-.465A3.462,3.462,0,0,1-15.8-1.635,3.554,3.554,0,0,1-16.3-3.5a3.554,3.554,0,0,1,.5-1.865,3.445,3.445,0,0,1,1.375-1.29,4.172,4.172,0,0,1,1.98-.465,4.333,4.333,0,0,1,1.67.31,3.309,3.309,0,0,1,1.26.9l-1.04.96a2.4,2.4,0,0,0-1.81-.79,2.47,2.47,0,0,0-1.19.28,2.009,2.009,0,0,0-.81.79,2.325,2.325,0,0,0-.29,1.17,2.3,2.3,0,0,0,.29,1.16,2.051,2.051,0,0,0,.805.795,2.386,2.386,0,0,0,1.175.285,2.626,2.626,0,0,0,1.26-.3ZM-8.145-7h3.18a4.469,4.469,0,0,1,2.015.435A3.257,3.257,0,0,1-1.59-5.34,3.446,3.446,0,0,1-1.105-3.5,3.446,3.446,0,0,1-1.59-1.66,3.257,3.257,0,0,1-2.95-.435,4.469,4.469,0,0,1-4.965,0h-3.18Zm3.1,5.67A2.352,2.352,0,0,0-3.37-1.915,2.066,2.066,0,0,0-2.745-3.5,2.066,2.066,0,0,0-3.37-5.085,2.352,2.352,0,0,0-5.045-5.67h-1.48v4.34ZM3.145-7a3.889,3.889,0,0,1,1.615.31,2.4,2.4,0,0,1,1.055.88,2.424,2.424,0,0,1,.37,1.35,2.431,2.431,0,0,1-.37,1.345,2.356,2.356,0,0,1-1.055.88,3.944,3.944,0,0,1-1.615.3H1.735V0H.115V-7Zm-.09,3.75a1.7,1.7,0,0,0,1.11-.315,1.1,1.1,0,0,0,.38-.895,1.109,1.109,0,0,0-.38-.9,1.7,1.7,0,0,0-1.11-.315H1.735v2.43ZM11.795,0l-1.35-1.95H8.955V0H7.335V-7h3.03a3.889,3.889,0,0,1,1.615.31,2.4,2.4,0,0,1,1.055.88,2.424,2.424,0,0,1,.37,1.35,2.376,2.376,0,0,1-.375,1.345,2.377,2.377,0,0,1-1.065.865L13.535,0Zm-.03-4.46a1.109,1.109,0,0,0-.38-.9,1.7,1.7,0,0,0-1.11-.315H8.955v2.44h1.32a1.683,1.683,0,0,0,1.11-.32A1.112,1.112,0,0,0,11.765-4.46Zm-39.4,17.58a4.021,4.021,0,0,1-1.935-.465,3.47,3.47,0,0,1-1.36-1.29,3.554,3.554,0,0,1-.5-1.865,3.554,3.554,0,0,1,.5-1.865,3.47,3.47,0,0,1,1.36-1.29,4.042,4.042,0,0,1,1.945-.465,4.08,4.08,0,0,1,1.645.32,3.3,3.3,0,0,1,1.235.92l-1.04.96a2.236,2.236,0,0,0-1.76-.82,2.337,2.337,0,0,0-1.16.285,2.026,2.026,0,0,0-.8.8,2.337,2.337,0,0,0-.285,1.16,2.337,2.337,0,0,0,.285,1.16,2.026,2.026,0,0,0,.8.8,2.337,2.337,0,0,0,1.16.285,2.225,2.225,0,0,0,1.76-.83l1.04.96a3.242,3.242,0,0,1-1.24.93A4.116,4.116,0,0,1-27.635,13.12Zm7.22,0a4.086,4.086,0,0,1-1.965-.47,3.488,3.488,0,0,1-1.37-1.3,3.535,3.535,0,0,1-.5-1.855,3.535,3.535,0,0,1,.5-1.855,3.488,3.488,0,0,1,1.37-1.3,4.086,4.086,0,0,1,1.965-.47,4.057,4.057,0,0,1,1.96.47,3.533,3.533,0,0,1,1.37,1.3,3.508,3.508,0,0,1,.5,1.855,3.508,3.508,0,0,1-.5,1.855,3.533,3.533,0,0,1-1.37,1.3A4.057,4.057,0,0,1-20.415,13.12Zm0-1.38a2.221,2.221,0,0,0,1.12-.285,2.045,2.045,0,0,0,.785-.8,2.337,2.337,0,0,0,.285-1.16,2.337,2.337,0,0,0-.285-1.16,2.045,2.045,0,0,0-.785-.8,2.221,2.221,0,0,0-1.12-.285,2.221,2.221,0,0,0-1.12.285,2.045,2.045,0,0,0-.785.8A2.337,2.337,0,0,0-22.6,9.5a2.337,2.337,0,0,0,.285,1.16,2.045,2.045,0,0,0,.785.8A2.221,2.221,0,0,0-20.415,11.74ZM-8.995,13l-.01-4.2-2.06,3.46h-.73l-2.05-3.37V13h-1.52V6h1.34l2.62,4.35L-8.825,6h1.33l.02,7Zm6.21-7a3.889,3.889,0,0,1,1.615.31,2.4,2.4,0,0,1,1.055.88,2.424,2.424,0,0,1,.37,1.35,2.431,2.431,0,0,1-.37,1.345,2.356,2.356,0,0,1-1.055.88,3.944,3.944,0,0,1-1.615.3H-4.2V13h-1.62V6Zm-.09,3.75a1.7,1.7,0,0,0,1.11-.315,1.1,1.1,0,0,0,.38-.895,1.109,1.109,0,0,0-.38-.9,1.7,1.7,0,0,0-1.11-.315H-4.2V9.75ZM1.4,6h1.62v5.68h3.51V13H1.4Zm6.04,0h1.62v7H7.445Zm7.89,5.5h-3.25l-.62,1.5H9.8l3.12-7h1.6l3.13,7h-1.7Zm-.51-1.23-1.11-2.68L12.6,10.27ZM24.8,6v7h-1.33l-3.49-4.25V13h-1.6V6h1.34l3.48,4.25V6Zm3.11,1.32h-2.24V6h6.1V7.32h-2.24V13h-1.62Z" transform="translate(446.5 271.006)" fill="#32cd32"/>
        <path id="Path_5098" data-name="Path 5098" d="M-12.42.12a4.086,4.086,0,0,1-1.965-.47,3.488,3.488,0,0,1-1.37-1.295,3.535,3.535,0,0,1-.5-1.855,3.535,3.535,0,0,1,.5-1.855,3.488,3.488,0,0,1,1.37-1.3,4.086,4.086,0,0,1,1.965-.47,4.057,4.057,0,0,1,1.96.47,3.533,3.533,0,0,1,1.37,1.3A3.508,3.508,0,0,1-8.59-3.5a3.508,3.508,0,0,1-.5,1.855A3.533,3.533,0,0,1-10.46-.35,4.057,4.057,0,0,1-12.42.12Zm0-1.38a2.221,2.221,0,0,0,1.12-.285,2.045,2.045,0,0,0,.785-.795A2.337,2.337,0,0,0-10.23-3.5a2.337,2.337,0,0,0-.285-1.16,2.045,2.045,0,0,0-.785-.8,2.221,2.221,0,0,0-1.12-.285,2.221,2.221,0,0,0-1.12.285,2.045,2.045,0,0,0-.785.8A2.337,2.337,0,0,0-14.61-3.5a2.337,2.337,0,0,0,.285,1.16,2.045,2.045,0,0,0,.785.795A2.221,2.221,0,0,0-12.42-1.26ZM-4.34-7a3.889,3.889,0,0,1,1.615.31,2.4,2.4,0,0,1,1.055.88A2.424,2.424,0,0,1-1.3-4.46a2.431,2.431,0,0,1-.37,1.345,2.356,2.356,0,0,1-1.055.88,3.944,3.944,0,0,1-1.615.3H-5.75V0H-7.37V-7Zm-.09,3.75a1.7,1.7,0,0,0,1.11-.315,1.1,1.1,0,0,0,.38-.895,1.109,1.109,0,0,0-.38-.9A1.7,1.7,0,0,0-4.43-5.68H-5.75v2.43ZM5.27-1.3V0H-.15V-7H5.14v1.3H1.46v1.52H4.71v1.26H1.46V-1.3ZM12.98-7V0H11.65L8.16-4.25V0H6.56V-7H7.9l3.48,4.25V-7Zm-31.9,20.12a5.727,5.727,0,0,1-1.6-.225,3.764,3.764,0,0,1-1.245-.585l.55-1.22a3.732,3.732,0,0,0,1.07.53,4.019,4.019,0,0,0,1.24.2,1.981,1.981,0,0,0,1.02-.2.619.619,0,0,0,.33-.545.521.521,0,0,0-.195-.415,1.478,1.478,0,0,0-.5-.265q-.3-.1-.825-.22a11.4,11.4,0,0,1-1.31-.38,2.128,2.128,0,0,1-.875-.61,1.647,1.647,0,0,1-.365-1.12,1.948,1.948,0,0,1,.33-1.1,2.22,2.22,0,0,1,1-.785,4.06,4.06,0,0,1,1.625-.29,5.381,5.381,0,0,1,1.31.16,3.87,3.87,0,0,1,1.12.46l-.5,1.23a3.9,3.9,0,0,0-1.94-.55,1.819,1.819,0,0,0-1.005.22.672.672,0,0,0-.325.58.567.567,0,0,0,.375.535A5.888,5.888,0,0,0-18.5,8.86a11.4,11.4,0,0,1,1.31.38,2.169,2.169,0,0,1,.875.6,1.609,1.609,0,0,1,.365,1.11,1.911,1.911,0,0,1-.335,1.1,2.251,2.251,0,0,1-1,.785A4.1,4.1,0,0,1-18.915,13.12Zm7.47,0a4.086,4.086,0,0,1-1.965-.47,3.488,3.488,0,0,1-1.37-1.3A3.535,3.535,0,0,1-15.275,9.5a3.535,3.535,0,0,1,.495-1.855,3.488,3.488,0,0,1,1.37-1.3,4.086,4.086,0,0,1,1.965-.47,4.057,4.057,0,0,1,1.96.47,3.533,3.533,0,0,1,1.37,1.3,3.508,3.508,0,0,1,.5,1.855,3.508,3.508,0,0,1-.5,1.855,3.533,3.533,0,0,1-1.37,1.3A4.057,4.057,0,0,1-11.445,13.12Zm0-1.38a2.221,2.221,0,0,0,1.12-.285,2.045,2.045,0,0,0,.785-.8A2.337,2.337,0,0,0-9.255,9.5,2.337,2.337,0,0,0-9.54,8.34a2.045,2.045,0,0,0-.785-.8,2.221,2.221,0,0,0-1.12-.285,2.221,2.221,0,0,0-1.12.285,2.045,2.045,0,0,0-.785.8,2.337,2.337,0,0,0-.285,1.16,2.337,2.337,0,0,0,.285,1.16,2.045,2.045,0,0,0,.785.8A2.221,2.221,0,0,0-11.445,11.74Zm8.16,1.38a3.168,3.168,0,0,1-2.335-.83,3.2,3.2,0,0,1-.835-2.37V6h1.62V9.86q0,1.88,1.56,1.88a1.462,1.462,0,0,0,1.16-.455,2.121,2.121,0,0,0,.4-1.425V6h1.6V9.92A3.2,3.2,0,0,1-.95,12.29,3.168,3.168,0,0,1-3.285,13.12ZM5.945,13,4.6,11.05H3.105V13H1.485V6h3.03a3.889,3.889,0,0,1,1.615.31,2.4,2.4,0,0,1,1.055.88,2.424,2.424,0,0,1,.37,1.35,2.28,2.28,0,0,1-1.44,2.21L7.685,13Zm-.03-4.46a1.109,1.109,0,0,0-.38-.9,1.7,1.7,0,0,0-1.11-.315H3.105V9.76h1.32a1.683,1.683,0,0,0,1.11-.32A1.112,1.112,0,0,0,5.915,8.54Zm6.27,4.58a4.021,4.021,0,0,1-1.935-.465,3.47,3.47,0,0,1-1.36-1.29A3.554,3.554,0,0,1,8.395,9.5,3.554,3.554,0,0,1,8.89,7.635a3.47,3.47,0,0,1,1.36-1.29,4.042,4.042,0,0,1,1.945-.465,4.08,4.08,0,0,1,1.645.32,3.3,3.3,0,0,1,1.235.92l-1.04.96a2.236,2.236,0,0,0-1.76-.82,2.337,2.337,0,0,0-1.16.285,2.026,2.026,0,0,0-.795.8,2.5,2.5,0,0,0,0,2.32,2.026,2.026,0,0,0,.795.8,2.337,2.337,0,0,0,1.16.285,2.225,2.225,0,0,0,1.76-.83l1.04.96a3.242,3.242,0,0,1-1.24.93A4.116,4.116,0,0,1,12.185,13.12Zm9.4-1.42V13h-5.42V6h5.29V7.3h-3.68V8.82h3.25v1.26h-3.25V11.7Z" transform="translate(446 413.097)" fill="#3c9bcd"/>
        <path id="Path_5097" data-name="Path 5097" d="M-11.575-7V0h-1.33L-16.4-4.25V0H-18V-7h1.34l3.48,4.25V-7ZM-6.525.12A4.086,4.086,0,0,1-8.49-.35,3.488,3.488,0,0,1-9.86-1.645,3.535,3.535,0,0,1-10.355-3.5,3.535,3.535,0,0,1-9.86-5.355a3.488,3.488,0,0,1,1.37-1.3,4.086,4.086,0,0,1,1.965-.47,4.057,4.057,0,0,1,1.96.47,3.533,3.533,0,0,1,1.37,1.3A3.508,3.508,0,0,1-2.7-3.5a3.508,3.508,0,0,1-.5,1.855A3.533,3.533,0,0,1-4.565-.35,4.057,4.057,0,0,1-6.525.12Zm0-1.38a2.221,2.221,0,0,0,1.12-.285A2.045,2.045,0,0,0-4.62-2.34,2.337,2.337,0,0,0-4.335-3.5,2.337,2.337,0,0,0-4.62-4.66a2.045,2.045,0,0,0-.785-.8,2.221,2.221,0,0,0-1.12-.285,2.221,2.221,0,0,0-1.12.285,2.045,2.045,0,0,0-.785.8A2.337,2.337,0,0,0-8.715-3.5,2.337,2.337,0,0,0-8.43-2.34a2.045,2.045,0,0,0,.785.795A2.221,2.221,0,0,0-6.525-1.26ZM2.985,0,1.635-1.95H.145V0h-1.62V-7h3.03a3.889,3.889,0,0,1,1.615.31,2.4,2.4,0,0,1,1.055.88,2.424,2.424,0,0,1,.37,1.35A2.376,2.376,0,0,1,4.22-3.115a2.377,2.377,0,0,1-1.065.865L4.725,0Zm-.03-4.46a1.109,1.109,0,0,0-.38-.9,1.7,1.7,0,0,0-1.11-.315H.145v2.44h1.32a1.683,1.683,0,0,0,1.11-.32A1.112,1.112,0,0,0,2.955-4.46ZM8.175.12A5.727,5.727,0,0,1,6.57-.1,3.764,3.764,0,0,1,5.325-.69l.55-1.22a3.732,3.732,0,0,0,1.07.53,4.019,4.019,0,0,0,1.24.2,1.981,1.981,0,0,0,1.02-.2.619.619,0,0,0,.33-.545.521.521,0,0,0-.195-.415,1.478,1.478,0,0,0-.5-.265q-.305-.1-.825-.22A11.4,11.4,0,0,1,6.7-3.21a2.128,2.128,0,0,1-.875-.61,1.647,1.647,0,0,1-.365-1.12A1.948,1.948,0,0,1,5.8-6.045,2.22,2.22,0,0,1,6.79-6.83a4.06,4.06,0,0,1,1.625-.29,5.381,5.381,0,0,1,1.31.16,3.87,3.87,0,0,1,1.12.46l-.5,1.23A3.9,3.9,0,0,0,8.4-5.82a1.819,1.819,0,0,0-1,.22.672.672,0,0,0-.325.58.567.567,0,0,0,.375.535A5.888,5.888,0,0,0,8.6-4.14a11.4,11.4,0,0,1,1.31.38,2.169,2.169,0,0,1,.875.6,1.609,1.609,0,0,1,.365,1.11A1.911,1.911,0,0,1,10.81-.955a2.251,2.251,0,0,1-1,.785A4.1,4.1,0,0,1,8.175.12ZM14.8-2.75l-.94.98V0h-1.61V-7h1.61v3.27L16.965-7h1.8l-2.9,3.12L18.935,0h-1.89ZM-32.9,13.12a5.727,5.727,0,0,1-1.6-.225,3.764,3.764,0,0,1-1.245-.585l.55-1.22a3.732,3.732,0,0,0,1.07.53,4.019,4.019,0,0,0,1.24.2,1.981,1.981,0,0,0,1.02-.2.619.619,0,0,0,.33-.545.521.521,0,0,0-.195-.415,1.478,1.478,0,0,0-.5-.265q-.3-.1-.825-.22a11.4,11.4,0,0,1-1.31-.38,2.128,2.128,0,0,1-.875-.61,1.647,1.647,0,0,1-.365-1.12,1.948,1.948,0,0,1,.33-1.1,2.22,2.22,0,0,1,.995-.785,4.06,4.06,0,0,1,1.625-.29,5.381,5.381,0,0,1,1.31.16,3.87,3.87,0,0,1,1.12.46l-.5,1.23a3.9,3.9,0,0,0-1.94-.55,1.819,1.819,0,0,0-1.005.22A.672.672,0,0,0-34,7.98a.567.567,0,0,0,.375.535,5.888,5.888,0,0,0,1.145.345,11.4,11.4,0,0,1,1.31.38,2.169,2.169,0,0,1,.875.6,1.609,1.609,0,0,1,.365,1.11,1.911,1.911,0,0,1-.335,1.1,2.251,2.251,0,0,1-1,.785A4.1,4.1,0,0,1-32.9,13.12Zm6.63-2.87-.94.98V13h-1.61V6h1.61V9.27L-24.11,6h1.8l-2.9,3.12L-22.14,13h-1.89Zm7.7.27V13h-1.62V10.5L-22.9,6h1.72l1.87,3.11L-17.44,6h1.59Zm4.72-3.2h-2.24V6h6.1V7.32h-2.24V13h-1.62Zm5.92,5.8a3.171,3.171,0,0,1-1.305-.265,2.5,2.5,0,0,1-.975-.755l.9-1.08a1.617,1.617,0,0,0,1.3.77q.99,0,.99-1.16V7.3H-9.48V6h4.07v4.54a2.641,2.641,0,0,1-.64,1.935A2.537,2.537,0,0,1-7.93,13.12ZM1.61,11.7V13H-3.81V6H1.48V7.3H-2.2V8.82H1.05v1.26H-2.2V11.7ZM9.32,6v7H7.99L4.5,8.75V13H2.9V6H4.24l3.48,4.25V6Zm7.08,5.7V13H10.98V6h5.29V7.3H12.59V8.82h3.25v1.26H12.59V11.7Zm3.59,1.42a5.727,5.727,0,0,1-1.6-.225,3.764,3.764,0,0,1-1.245-.585l.55-1.22a3.732,3.732,0,0,0,1.07.53,4.019,4.019,0,0,0,1.24.2,1.981,1.981,0,0,0,1.02-.2.619.619,0,0,0,.33-.545.521.521,0,0,0-.195-.415,1.478,1.478,0,0,0-.5-.265q-.3-.1-.825-.22a11.4,11.4,0,0,1-1.31-.38,2.128,2.128,0,0,1-.875-.61,1.647,1.647,0,0,1-.365-1.12,1.948,1.948,0,0,1,.33-1.1,2.22,2.22,0,0,1,1-.785,4.06,4.06,0,0,1,1.625-.29,5.381,5.381,0,0,1,1.31.16,3.87,3.87,0,0,1,1.12.46l-.5,1.23a3.9,3.9,0,0,0-1.94-.55,1.819,1.819,0,0,0-1.005.22.672.672,0,0,0-.325.58.567.567,0,0,0,.375.535,5.888,5.888,0,0,0,1.145.345,11.4,11.4,0,0,1,1.31.38,2.169,2.169,0,0,1,.875.6,1.609,1.609,0,0,1,.365,1.11,1.911,1.911,0,0,1-.335,1.1,2.251,2.251,0,0,1-1,.785A4.1,4.1,0,0,1,19.99,13.12Zm5.43-5.8H23.18V6h6.1V7.32H27.04V13H25.42ZM35.57,11.7V13H30.15V6h5.29V7.3H31.76V8.82h3.25v1.26H31.76V11.7Z" transform="translate(590 272.013)" fill="#195f8c"/>
        <path id="Path_5096" data-name="Path 5096" d="M-19.63-2.75l-.94.98V0h-1.61V-7h1.61v3.27L-17.47-7h1.8l-2.9,3.12L-15.5,0h-1.89ZM-10.32,0l-1.35-1.95h-1.49V0h-1.62V-7h3.03a3.889,3.889,0,0,1,1.615.31,2.4,2.4,0,0,1,1.055.88,2.424,2.424,0,0,1,.37,1.35,2.376,2.376,0,0,1-.375,1.345,2.377,2.377,0,0,1-1.065.865L-8.58,0Zm-.03-4.46a1.109,1.109,0,0,0-.38-.9,1.7,1.7,0,0,0-1.11-.315h-1.32v2.44h1.32a1.683,1.683,0,0,0,1.11-.32A1.112,1.112,0,0,0-10.35-4.46ZM-2.82-1.5H-6.07L-6.69,0H-8.35l3.12-7h1.6L-.5,0H-2.2Zm-.51-1.23L-4.44-5.41-5.55-2.73ZM1.85-5.7v1.85H5.09v1.3H1.85V0H.23V-7H5.52v1.3Zm6.27.02H5.88V-7h6.1v1.32H9.74V0H8.12ZM12.85-7h1.62V0H12.85Zm8.01,3.39h1.48V-.77a4.228,4.228,0,0,1-1.32.66,5.125,5.125,0,0,1-1.51.23,4.092,4.092,0,0,1-1.96-.465,3.462,3.462,0,0,1-1.365-1.29A3.554,3.554,0,0,1,15.69-3.5a3.554,3.554,0,0,1,.495-1.865,3.445,3.445,0,0,1,1.375-1.29,4.172,4.172,0,0,1,1.98-.465,4.333,4.333,0,0,1,1.67.31,3.309,3.309,0,0,1,1.26.9l-1.04.96a2.4,2.4,0,0,0-1.81-.79,2.47,2.47,0,0,0-1.19.28,2.009,2.009,0,0,0-.81.79,2.325,2.325,0,0,0-.29,1.17,2.305,2.305,0,0,0,.29,1.16,2.051,2.051,0,0,0,.805.795A2.386,2.386,0,0,0,19.6-1.26a2.626,2.626,0,0,0,1.26-.3ZM-42.37,11.5h-3.25l-.62,1.5H-47.9l3.12-7h1.6l3.13,7h-1.7Zm-.51-1.23-1.11-2.68-1.11,2.68Zm6.52,2.85a3.168,3.168,0,0,1-2.335-.83,3.2,3.2,0,0,1-.835-2.37V6h1.62V9.86q0,1.88,1.56,1.88a1.462,1.462,0,0,0,1.16-.455,2.121,2.121,0,0,0,.4-1.425V6h1.6V9.92a3.2,3.2,0,0,1-.835,2.37A3.168,3.168,0,0,1-36.36,13.12Zm6.1-5.8H-32.5V6h6.1V7.32h-2.24V13h-1.62Zm8.02,5.8a4.086,4.086,0,0,1-1.965-.47,3.488,3.488,0,0,1-1.37-1.3,3.535,3.535,0,0,1-.5-1.855,3.535,3.535,0,0,1,.5-1.855,3.488,3.488,0,0,1,1.37-1.3,4.086,4.086,0,0,1,1.965-.47,4.057,4.057,0,0,1,1.96.47,3.533,3.533,0,0,1,1.37,1.3,3.508,3.508,0,0,1,.5,1.855,3.508,3.508,0,0,1-.5,1.855,3.533,3.533,0,0,1-1.37,1.3A4.057,4.057,0,0,1-22.24,13.12Zm0-1.38a2.221,2.221,0,0,0,1.12-.285,2.045,2.045,0,0,0,.785-.8A2.337,2.337,0,0,0-20.05,9.5a2.337,2.337,0,0,0-.285-1.16,2.045,2.045,0,0,0-.785-.8,2.221,2.221,0,0,0-1.12-.285,2.221,2.221,0,0,0-1.12.285,2.045,2.045,0,0,0-.785.8A2.337,2.337,0,0,0-24.43,9.5a2.337,2.337,0,0,0,.285,1.16,2.045,2.045,0,0,0,.785.8A2.221,2.221,0,0,0-22.24,11.74ZM-10.82,13l-.01-4.2-2.06,3.46h-.73l-2.05-3.37V13h-1.52V6h1.34l2.62,4.35L-10.65,6h1.33l.02,7Zm7.79-1.5H-6.28L-6.9,13H-8.56l3.12-7h1.6l3.13,7h-1.7Zm-.51-1.23L-4.65,7.59l-1.11,2.68ZM1.12,7.32H-1.12V6h6.1V7.32H2.74V13H1.12ZM5.85,6H7.47v7H5.85Zm5.58,7.12A5.727,5.727,0,0,1,9.825,12.9,3.764,3.764,0,0,1,8.58,12.31l.55-1.22a3.732,3.732,0,0,0,1.07.53,4.019,4.019,0,0,0,1.24.2,1.981,1.981,0,0,0,1.02-.2.619.619,0,0,0,.33-.545.521.521,0,0,0-.195-.415,1.478,1.478,0,0,0-.5-.265q-.305-.1-.825-.22a11.4,11.4,0,0,1-1.31-.38,2.128,2.128,0,0,1-.875-.61A1.647,1.647,0,0,1,8.72,8.06a1.948,1.948,0,0,1,.33-1.1,2.22,2.22,0,0,1,.995-.785,4.06,4.06,0,0,1,1.625-.29,5.381,5.381,0,0,1,1.31.16,3.87,3.87,0,0,1,1.12.46l-.5,1.23a3.9,3.9,0,0,0-1.94-.55,1.819,1.819,0,0,0-1.005.22.672.672,0,0,0-.325.58.567.567,0,0,0,.375.535,5.888,5.888,0,0,0,1.145.345,11.4,11.4,0,0,1,1.31.38,2.169,2.169,0,0,1,.875.6,1.609,1.609,0,0,1,.365,1.11,1.911,1.911,0,0,1-.335,1.1,2.251,2.251,0,0,1-1,.785A4.1,4.1,0,0,1,11.43,13.12Zm9.5-1.42V13H15.51V6H20.8V7.3H17.12V8.82h3.25v1.26H17.12V11.7ZM26.68,13l-1.35-1.95H23.84V13H22.22V6h3.03a3.889,3.889,0,0,1,1.615.31,2.4,2.4,0,0,1,1.055.88,2.424,2.424,0,0,1,.37,1.35,2.28,2.28,0,0,1-1.44,2.21L28.42,13Zm-.03-4.46a1.109,1.109,0,0,0-.38-.9,1.7,1.7,0,0,0-1.11-.315H23.84V9.76h1.32a1.683,1.683,0,0,0,1.11-.32A1.112,1.112,0,0,0,26.65,8.54ZM29.57,6h1.62v7H29.57Zm9.7,0v7H37.94L34.45,8.75V13h-1.6V6h1.34l3.48,4.25V6Zm6.39,3.39h1.48v2.84a4.228,4.228,0,0,1-1.32.66,5.125,5.125,0,0,1-1.51.23,4.092,4.092,0,0,1-1.96-.465,3.462,3.462,0,0,1-1.365-1.29A3.554,3.554,0,0,1,40.49,9.5a3.554,3.554,0,0,1,.495-1.865,3.445,3.445,0,0,1,1.375-1.29,4.172,4.172,0,0,1,1.98-.465,4.333,4.333,0,0,1,1.67.31,3.309,3.309,0,0,1,1.26.9l-1.04.96a2.4,2.4,0,0,0-1.81-.79,2.47,2.47,0,0,0-1.19.28,2.009,2.009,0,0,0-.81.79,2.485,2.485,0,0,0,0,2.33,2.051,2.051,0,0,0,.805.8,2.386,2.386,0,0,0,1.175.285,2.626,2.626,0,0,0,1.26-.3Z" transform="translate(734 413.097)" fill="#32cd32"/>
        <path id="Path_5095" data-name="Path 5095" d="M-22.21-11.266h6.966l-.3-1.032q-1.247-4.214-2.042-7.181t-.967-3.827l-.172-.86A122.106,122.106,0,0,1-21.909-12.3ZM-11.89,0l-1.763-5.934H-23.8L-25.564,0h-6.923l9.675-28.982h8.342L-4.795,0Zm17.5-14.62H7.8q5.246,0,5.246-4.773,0-4.3-4.859-4.3H5.611ZM-1.011-28.982H8.965a11.173,11.173,0,0,1,7.8,2.709,8.879,8.879,0,0,1,2.988,6.88A9.132,9.132,0,0,1,16.641-12,11.517,11.517,0,0,1,8.965-9.374H5.611V0H-1.011ZM23.628,0V-28.982H30.25V0Z" transform="translate(734 382)" fill="#32cd32"/>
        <path id="Path_5094" data-name="Path 5094" d="M-27.92.12a4.086,4.086,0,0,1-1.965-.47,3.488,3.488,0,0,1-1.37-1.295,3.535,3.535,0,0,1-.5-1.855,3.535,3.535,0,0,1,.5-1.855,3.488,3.488,0,0,1,1.37-1.3,4.086,4.086,0,0,1,1.965-.47,4.057,4.057,0,0,1,1.96.47,3.533,3.533,0,0,1,1.37,1.3,3.508,3.508,0,0,1,.5,1.855,3.508,3.508,0,0,1-.5,1.855A3.533,3.533,0,0,1-25.96-.35,4.057,4.057,0,0,1-27.92.12Zm0-1.38a2.221,2.221,0,0,0,1.12-.285,2.045,2.045,0,0,0,.785-.795A2.337,2.337,0,0,0-25.73-3.5a2.337,2.337,0,0,0-.285-1.16,2.045,2.045,0,0,0-.785-.8,2.221,2.221,0,0,0-1.12-.285,2.221,2.221,0,0,0-1.12.285,2.045,2.045,0,0,0-.785.8A2.337,2.337,0,0,0-30.11-3.5a2.337,2.337,0,0,0,.285,1.16,2.045,2.045,0,0,0,.785.795A2.221,2.221,0,0,0-27.92-1.26ZM-19.84-7a3.889,3.889,0,0,1,1.615.31,2.4,2.4,0,0,1,1.055.88,2.424,2.424,0,0,1,.37,1.35,2.431,2.431,0,0,1-.37,1.345,2.356,2.356,0,0,1-1.055.88,3.944,3.944,0,0,1-1.615.3h-1.41V0h-1.62V-7Zm-.09,3.75a1.7,1.7,0,0,0,1.11-.315,1.1,1.1,0,0,0,.38-.895,1.109,1.109,0,0,0-.38-.9,1.7,1.7,0,0,0-1.11-.315h-1.32v2.43Zm5.54-2.43h-2.24V-7h6.1v1.32h-2.24V0h-1.62ZM-9.66-7h1.62V0H-9.66ZM-.01,0-.02-4.2-2.08-.74h-.73L-4.86-4.11V0H-6.38V-7h1.34l2.62,4.35L.16-7H1.49l.02,7ZM3.17-7H4.79V0H3.17ZM8.75.12A5.727,5.727,0,0,1,7.145-.1,3.764,3.764,0,0,1,5.9-.69l.55-1.22a3.732,3.732,0,0,0,1.07.53,4.019,4.019,0,0,0,1.24.2,1.981,1.981,0,0,0,1.02-.2.619.619,0,0,0,.33-.545.521.521,0,0,0-.195-.415,1.478,1.478,0,0,0-.5-.265q-.305-.1-.825-.22a11.4,11.4,0,0,1-1.31-.38A2.128,2.128,0,0,1,6.4-3.82,1.647,1.647,0,0,1,6.04-4.94a1.948,1.948,0,0,1,.33-1.105,2.22,2.22,0,0,1,.995-.785A4.06,4.06,0,0,1,8.99-7.12a5.381,5.381,0,0,1,1.31.16,3.87,3.87,0,0,1,1.12.46l-.5,1.23a3.9,3.9,0,0,0-1.94-.55,1.819,1.819,0,0,0-1,.22.672.672,0,0,0-.325.58.567.567,0,0,0,.375.535A5.888,5.888,0,0,0,9.17-4.14a11.4,11.4,0,0,1,1.31.38,2.169,2.169,0,0,1,.875.6,1.609,1.609,0,0,1,.365,1.11,1.911,1.911,0,0,1-.335,1.095,2.251,2.251,0,0,1-1,.785A4.1,4.1,0,0,1,8.75.12Zm9.5-1.42V0H12.83V-7h5.29v1.3H14.44v1.52h3.25v1.26H14.44V-1.3ZM24,0,22.65-1.95H21.16V0H19.54V-7h3.03a3.889,3.889,0,0,1,1.615.31,2.4,2.4,0,0,1,1.055.88,2.424,2.424,0,0,1,.37,1.35,2.376,2.376,0,0,1-.375,1.345,2.377,2.377,0,0,1-1.065.865L25.74,0Zm-.03-4.46a1.109,1.109,0,0,0-.38-.9,1.7,1.7,0,0,0-1.11-.315H21.16v2.44h1.32a1.683,1.683,0,0,0,1.11-.32A1.112,1.112,0,0,0,23.97-4.46Zm4.27-1.22H26V-7h6.1v1.32H29.86V0H28.24ZM-40.425,7.3V9.15h3.24v1.3h-3.24V13h-1.62V6h5.29V7.3Zm8.09,5.82a4.086,4.086,0,0,1-1.965-.47,3.488,3.488,0,0,1-1.37-1.3A3.535,3.535,0,0,1-36.165,9.5a3.535,3.535,0,0,1,.495-1.855,3.488,3.488,0,0,1,1.37-1.3,4.086,4.086,0,0,1,1.965-.47,4.057,4.057,0,0,1,1.96.47,3.533,3.533,0,0,1,1.37,1.3,3.508,3.508,0,0,1,.5,1.855,3.508,3.508,0,0,1-.5,1.855,3.533,3.533,0,0,1-1.37,1.3A4.057,4.057,0,0,1-32.335,13.12Zm0-1.38a2.221,2.221,0,0,0,1.12-.285,2.045,2.045,0,0,0,.785-.8,2.337,2.337,0,0,0,.285-1.16,2.337,2.337,0,0,0-.285-1.16,2.045,2.045,0,0,0-.785-.8,2.221,2.221,0,0,0-1.12-.285,2.221,2.221,0,0,0-1.12.285,2.045,2.045,0,0,0-.785.8,2.337,2.337,0,0,0-.285,1.16,2.337,2.337,0,0,0,.285,1.16,2.045,2.045,0,0,0,.785.8A2.221,2.221,0,0,0-32.335,11.74Zm9.51,1.26-1.35-1.95h-1.49V13h-1.62V6h3.03a3.889,3.889,0,0,1,1.615.31,2.4,2.4,0,0,1,1.055.88,2.424,2.424,0,0,1,.37,1.35,2.376,2.376,0,0,1-.375,1.345,2.377,2.377,0,0,1-1.065.865l1.57,2.25Zm-.03-4.46a1.109,1.109,0,0,0-.38-.9,1.7,1.7,0,0,0-1.11-.315h-1.32V9.76h1.32a1.683,1.683,0,0,0,1.11-.32A1.112,1.112,0,0,0-22.855,8.54Zm9.14,4.58a4.086,4.086,0,0,1-1.965-.47,3.488,3.488,0,0,1-1.37-1.3,3.535,3.535,0,0,1-.5-1.855,3.535,3.535,0,0,1,.5-1.855,3.488,3.488,0,0,1,1.37-1.3,4.086,4.086,0,0,1,1.965-.47,4.057,4.057,0,0,1,1.96.47,3.533,3.533,0,0,1,1.37,1.3,3.508,3.508,0,0,1,.5,1.855,3.508,3.508,0,0,1-.5,1.855,3.533,3.533,0,0,1-1.37,1.3A4.057,4.057,0,0,1-13.715,13.12Zm0-1.38a2.221,2.221,0,0,0,1.12-.285,2.045,2.045,0,0,0,.785-.8,2.337,2.337,0,0,0,.285-1.16,2.337,2.337,0,0,0-.285-1.16,2.045,2.045,0,0,0-.785-.8,2.221,2.221,0,0,0-1.12-.285,2.221,2.221,0,0,0-1.12.285,2.045,2.045,0,0,0-.785.8A2.337,2.337,0,0,0-15.9,9.5a2.337,2.337,0,0,0,.285,1.16,2.045,2.045,0,0,0,.785.8A2.221,2.221,0,0,0-13.715,11.74ZM-5.635,6a3.889,3.889,0,0,1,1.615.31,2.4,2.4,0,0,1,1.055.88,2.424,2.424,0,0,1,.37,1.35,2.431,2.431,0,0,1-.37,1.345,2.356,2.356,0,0,1-1.055.88,3.944,3.944,0,0,1-1.615.3h-1.41V13h-1.62V6Zm-.09,3.75a1.7,1.7,0,0,0,1.11-.315,1.1,1.1,0,0,0,.38-.895,1.109,1.109,0,0,0-.38-.9,1.7,1.7,0,0,0-1.11-.315h-1.32V9.75Zm9.7,1.95V13h-5.42V6h5.29V7.3H.165V8.82h3.25v1.26H.165V11.7ZM11.685,6v7h-1.33L6.865,8.75V13h-1.6V6h1.34l3.48,4.25V6Zm3.96,7.12A5.727,5.727,0,0,1,14.04,12.9a3.764,3.764,0,0,1-1.245-.585l.55-1.22a3.732,3.732,0,0,0,1.07.53,4.019,4.019,0,0,0,1.24.2,1.981,1.981,0,0,0,1.02-.2A.619.619,0,0,0,17,11.07a.521.521,0,0,0-.195-.415,1.478,1.478,0,0,0-.5-.265q-.3-.1-.825-.22a11.4,11.4,0,0,1-1.31-.38,2.128,2.128,0,0,1-.875-.61,1.647,1.647,0,0,1-.365-1.12,1.948,1.948,0,0,1,.33-1.1,2.22,2.22,0,0,1,.995-.785,4.06,4.06,0,0,1,1.625-.29,5.381,5.381,0,0,1,1.31.16,3.87,3.87,0,0,1,1.12.46l-.5,1.23a3.9,3.9,0,0,0-1.94-.55,1.819,1.819,0,0,0-1.005.22.672.672,0,0,0-.325.58.567.567,0,0,0,.375.535,5.888,5.888,0,0,0,1.145.345,11.4,11.4,0,0,1,1.31.38,2.169,2.169,0,0,1,.875.6,1.609,1.609,0,0,1,.365,1.11,1.911,1.911,0,0,1-.335,1.1,2.251,2.251,0,0,1-1,.785A4.1,4.1,0,0,1,15.645,13.12ZM26.145,6v7h-1.62V10.13h-3.18V13h-1.62V6h1.62V8.76h3.18V6ZM27.8,6h1.62v7H27.8Zm4.9,1.3V9.15h3.24v1.3H32.7V13h-1.62V6h5.29V7.3Zm6.27.02h-2.24V6h6.1V7.32H40.6V13h-1.62Z" transform="translate(590 413.097)" fill="#535353"/>
        <path id="Path_5100" data-name="Path 5100" d="M-16.1-7h1.62V0H-16.1Zm9.7,0V0H-7.73l-3.49-4.25V0h-1.6V-7h1.34L-8-2.75V-7ZM-.01-3.61H1.47V-.77A4.228,4.228,0,0,1,.15-.11,5.125,5.125,0,0,1-1.36.12,4.092,4.092,0,0,1-3.32-.345a3.462,3.462,0,0,1-1.365-1.29A3.554,3.554,0,0,1-5.18-3.5a3.554,3.554,0,0,1,.5-1.865A3.445,3.445,0,0,1-3.31-6.655,4.172,4.172,0,0,1-1.33-7.12a4.333,4.333,0,0,1,1.67.31,3.309,3.309,0,0,1,1.26.9L.56-4.95a2.4,2.4,0,0,0-1.81-.79,2.47,2.47,0,0,0-1.19.28,2.009,2.009,0,0,0-.81.79A2.325,2.325,0,0,0-3.54-3.5a2.305,2.305,0,0,0,.29,1.16,2.051,2.051,0,0,0,.805.795A2.386,2.386,0,0,0-1.27-1.26a2.626,2.626,0,0,0,1.26-.3ZM8.39-1.3V0H2.97V-7H8.26v1.3H4.58v1.52H7.83v1.26H4.58V-1.3ZM16.1-7V0H14.77L11.28-4.25V0H9.68V-7h1.34L14.5-2.75V-7ZM-18.775,6h1.62v5.68h3.51V13h-5.13Zm10.71,5.5h-3.25l-.62,1.5h-1.66l3.12-7h1.6l3.13,7h-1.7Zm-.51-1.23-1.11-2.68-1.11,2.68Zm-1.11-4.81a1.2,1.2,0,0,1-.875-.35,1.161,1.161,0,0,1-.355-.86,1.161,1.161,0,0,1,.355-.86,1.2,1.2,0,0,1,.875-.35,1.227,1.227,0,0,1,.89.35,1.153,1.153,0,0,1,.36.86,1.153,1.153,0,0,1-.36.86A1.227,1.227,0,0,1-9.685,5.46Zm0-.6a.591.591,0,0,0,.435-.175.591.591,0,0,0,.175-.435.591.591,0,0,0-.175-.435.591.591,0,0,0-.435-.175.579.579,0,0,0-.425.175.591.591,0,0,0-.175.435.6.6,0,0,0,.17.435A.574.574,0,0,0-9.685,4.86Zm6.97,8.26a5.727,5.727,0,0,1-1.6-.225,3.764,3.764,0,0,1-1.245-.585l.55-1.22a3.732,3.732,0,0,0,1.07.53,4.019,4.019,0,0,0,1.24.2,1.981,1.981,0,0,0,1.02-.2.619.619,0,0,0,.33-.545.521.521,0,0,0-.195-.415,1.478,1.478,0,0,0-.5-.265q-.305-.1-.825-.22a11.4,11.4,0,0,1-1.31-.38,2.128,2.128,0,0,1-.875-.61,1.647,1.647,0,0,1-.365-1.12,1.948,1.948,0,0,1,.33-1.1A2.22,2.22,0,0,1-4.1,6.17a4.06,4.06,0,0,1,1.625-.29,5.381,5.381,0,0,1,1.31.16,3.87,3.87,0,0,1,1.12.46l-.5,1.23a3.9,3.9,0,0,0-1.94-.55,1.819,1.819,0,0,0-1,.22.672.672,0,0,0-.325.58.567.567,0,0,0,.375.535,5.888,5.888,0,0,0,1.145.345,11.4,11.4,0,0,1,1.31.38,2.169,2.169,0,0,1,.875.6,1.609,1.609,0,0,1,.365,1.11,1.911,1.911,0,0,1-.335,1.1,2.251,2.251,0,0,1-1,.785A4.1,4.1,0,0,1-2.715,13.12ZM1.365,6h1.62v7H1.365Zm9.7,0v7H9.735L6.245,8.75V13h-1.6V6h1.34l3.48,4.25V6Zm6.39,3.39h1.48v2.84a4.228,4.228,0,0,1-1.32.66,5.125,5.125,0,0,1-1.51.23,4.092,4.092,0,0,1-1.96-.465,3.462,3.462,0,0,1-1.365-1.29A3.554,3.554,0,0,1,12.285,9.5a3.554,3.554,0,0,1,.495-1.865,3.445,3.445,0,0,1,1.375-1.29,4.172,4.172,0,0,1,1.98-.465,4.333,4.333,0,0,1,1.67.31,3.309,3.309,0,0,1,1.26.9l-1.04.96a2.4,2.4,0,0,0-1.81-.79,2.47,2.47,0,0,0-1.19.28,2.009,2.009,0,0,0-.81.79,2.485,2.485,0,0,0,0,2.33,2.051,2.051,0,0,0,.805.8,2.386,2.386,0,0,0,1.175.285,2.626,2.626,0,0,0,1.26-.3Z" transform="translate(734 272.109)" fill="#195f8c"/>
      </g>
      <g id="Group_3" data-name="Group 3" transform="translate(0 141)">
        <path id="code-solid" d="M27.761,50.987l-6.077-1.763a1.2,1.2,0,0,1-.817-1.484L34.465.9A1.2,1.2,0,0,1,35.949.083l6.077,1.763a1.2,1.2,0,0,1,.817,1.484l-13.6,46.84A1.194,1.194,0,0,1,27.761,50.987ZM16.4,39.81l4.333-4.622a1.2,1.2,0,0,0-.08-1.713l-9.025-7.939L20.658,17.6a1.187,1.187,0,0,0,.08-1.713L16.4,11.26a1.2,1.2,0,0,0-1.693-.05L.356,24.659a1.188,1.188,0,0,0,0,1.743L14.711,39.86a1.188,1.188,0,0,0,1.693-.05ZM49,39.87,63.354,26.412a1.188,1.188,0,0,0,0-1.743L49,11.2a1.206,1.206,0,0,0-1.693.05l-4.333,4.622a1.2,1.2,0,0,0,.08,1.713l9.025,7.949-9.025,7.939a1.187,1.187,0,0,0-.08,1.713l4.333,4.622A1.2,1.2,0,0,0,49,39.87Z" transform="translate(414.645 199.963)" fill="#3c9bcd"/>
      </g>
      <g id="Norway" transform="translate(552.729 160.317)">
        <g id="Sweden" transform="translate(13 54.016)">
          <path id="Path_289" data-name="Path 289" d="M3,0H45.543a3,3,0,0,1,3,3V27.985a3,3,0,0,1-3,3H3a3,3,0,0,1-3-3V3A3,3,0,0,1,3,0Z" fill="#be0000"/>
          <line id="Line_5" data-name="Line 5" y2="30.985" transform="translate(18.074 0)" fill="none" stroke="#fff" stroke-width="7"/>
          <line id="Line_6" data-name="Line 6" x1="48.543" transform="translate(0 15.492)" fill="none" stroke="#fff" stroke-width="7"/>
          <line id="Line_54" data-name="Line 54" y2="30.985" transform="translate(18.074 0)" fill="none" stroke="#093958" stroke-width="3.5"/>
          <line id="Line_55" data-name="Line 55" x1="48.543" transform="translate(0 15.493)" fill="none" stroke="#093958" stroke-width="3.5"/>
        </g>
      </g>
      <g id="OpenShift-LogoType" transform="translate(560 342.53)">
        <path id="path44560" d="M54.228,11.987a23.321,23.321,0,0,0-2-3.4l-8.212,2.989a15.351,15.351,0,0,1,2.414,3.251Zm-36.3,9.083L9.71,24.059a23.89,23.89,0,0,0,.651,3.894l7.8-2.841a15.271,15.271,0,0,1-.24-4.041" fill="#c22133"/>
        <path id="path44564" d="M36.156,9.66a15.2,15.2,0,0,1,4.438,3.16l8.212-2.989A23.477,23.477,0,0,0,6.292,25.3l8.214-2.989A15.218,15.218,0,0,1,36.156,9.66" fill="#db212e"/>
        <path id="path44572" d="M44.916,24.668a15.063,15.063,0,0,1-1.379,5.274,15.279,15.279,0,0,1-20.282,7.383,15.11,15.11,0,0,1-4.446-3.155l-8.2,2.983A23.464,23.464,0,0,0,51,33.421a23.254,23.254,0,0,0,2.115-11.735l-8.2,2.983Z" fill="#db212e"/>
        <path id="path44576" d="M46.935,14.641l-7.8,2.84a15.311,15.311,0,0,1,1.91,8.595l8.2-2.981a23.665,23.665,0,0,0-2.3-8.454M10.873,27.765l-7.8,2.843a23.758,23.758,0,0,0,3.67,7.955l8.195-2.984a15.339,15.339,0,0,1-4.061-7.814" fill="#eb2126"/>
        <path id="path44584" d="M53.038,9.823c-.259-.42-.528-.834-.814-1.236l-8.212,2.989a14.608,14.608,0,0,1,1.011,1.165Zm-35.145,12.9a14.534,14.534,0,0,1,.031-1.649L9.71,24.059c.042.526.109,1.049.188,1.57l8-2.91Z" fill="#ad213b"/>
        <path id="path44588" d="M53.112,21.686l-8.2,2.983a15,15,0,0,1-.693,3.525l8.921-3.253a23.556,23.556,0,0,0-.033-3.255m-42.5,15.467A23.269,23.269,0,0,0,12.7,39.689l8.922-3.254a15.164,15.164,0,0,1-2.816-2.266Z" fill="#ba2133"/>
      </g>
    </g>
  </g>
</svg>
