<svg xmlns="http://www.w3.org/2000/svg" xmlns:xlink="http://www.w3.org/1999/xlink" width="432" height="285" viewBox="0 0 432 285"><defs><style>.a{fill:#32cd32;}.b,.h{fill:#fff;}.c{clip-path:url(#k);}.d{fill:#fa690f;}.e{fill:#195f8c;}.f{fill:none;stroke:#ffe26a;stroke-width:6px;}.g,.j{fill:#3c9bcd;}.g,.h{stroke:#fff;}.g{stroke-width:0;}.h{stroke-width:0.25px;}.i{fill:#000094;}.k{filter:url(#l);}.l{filter:url(#i);}.m{filter:url(#g);}.n{filter:url(#e);}.o{filter:url(#c);}.p{filter:url(#a);}</style><filter id="a" x="0" y="0" width="144" height="144" filterUnits="userSpaceOnUse"><feOffset dy="3" input="SourceAlpha"/><feGaussianBlur stdDeviation="3" result="b"/><feFlood flood-opacity="0.161"/><feComposite operator="in" in2="b"/><feComposite in="SourceGraphic"/></filter><filter id="c" x="288" y="141" width="144" height="144" filterUnits="userSpaceOnUse"><feOffset dy="3" input="SourceAlpha"/><feGaussianBlur stdDeviation="3" result="d"/><feFlood flood-opacity="0.161"/><feComposite operator="in" in2="d"/><feComposite in="SourceGraphic"/></filter><filter id="e" x="144" y="0" width="144" height="144" filterUnits="userSpaceOnUse"><feOffset dy="3" input="SourceAlpha"/><feGaussianBlur stdDeviation="3" result="f"/><feFlood flood-opacity="0.161"/><feComposite operator="in" in2="f"/><feComposite in="SourceGraphic"/></filter><filter id="g" x="0" y="141" width="144" height="144" filterUnits="userSpaceOnUse"><feOffset dy="3" input="SourceAlpha"/><feGaussianBlur stdDeviation="3" result="h"/><feFlood flood-opacity="0.161"/><feComposite operator="in" in2="h"/><feComposite in="SourceGraphic"/></filter><filter id="i" x="144" y="141" width="144" height="144" filterUnits="userSpaceOnUse"><feOffset dy="3" input="SourceAlpha"/><feGaussianBlur stdDeviation="3" result="j"/><feFlood flood-opacity="0.161"/><feComposite operator="in" in2="j"/><feComposite in="SourceGraphic"/></filter><clipPath id="k"><rect class="a" width="51" height="51" transform="translate(709 200)"/></clipPath><filter id="l" x="288" y="0" width="144" height="144" filterUnits="userSpaceOnUse"><feOffset dy="3" input="SourceAlpha"/><feGaussianBlur stdDeviation="3" result="m"/><feFlood flood-opacity="0.161"/><feComposite operator="in" in2="m"/><feComposite in="SourceGraphic"/></filter></defs><g transform="translate(-120 -259.903)"><g class="p" transform="matrix(1, 0, 0, 1, 120, 259.9)"><path class="b" d="M7,0H119a7,7,0,0,1,7,7V119a7,7,0,0,1-7,7H7a7,7,0,0,1-7-7V7A7,7,0,0,1,7,0Z" transform="translate(9 6)"/></g><g class="o" transform="matrix(1, 0, 0, 1, 120, 259.9)"><path class="b" d="M7,0H119a7,7,0,0,1,7,7V119a7,7,0,0,1-7,7H7a7,7,0,0,1-7-7V7A7,7,0,0,1,7,0Z" transform="translate(297 147)"/></g><g class="n" transform="matrix(1, 0, 0, 1, 120, 259.9)"><path class="b" d="M7,0H119a7,7,0,0,1,7,7V119a7,7,0,0,1-7,7H7a7,7,0,0,1-7-7V7A7,7,0,0,1,7,0Z" transform="translate(153 6)"/></g><g class="m" transform="matrix(1, 0, 0, 1, 120, 259.9)"><path class="b" d="M7,0H119a7,7,0,0,1,7,7V119a7,7,0,0,1-7,7H7a7,7,0,0,1-7-7V7A7,7,0,0,1,7,0Z" transform="translate(9 147)"/></g><g class="l" transform="matrix(1, 0, 0, 1, 120, 259.9)"><path class="b" d="M7,0H119a7,7,0,0,1,7,7V119a7,7,0,0,1-7,7H7a7,7,0,0,1-7-7V7A7,7,0,0,1,7,0Z" transform="translate(153 147)"/></g><g class="c" transform="translate(-541.5 84.897)"><path class="a" d="M17.85,20.4A10.2,10.2,0,1,0,7.65,10.2a10.2,10.2,0,0,0,10.2,10.2Zm7.65,5.1a5.027,5.027,0,0,1,.645-2.43,10.906,10.906,0,0,0-1.155-.12H23.659a13.872,13.872,0,0,1-11.618,0H10.71A10.712,10.712,0,0,0,0,33.658v3.317A3.825,3.825,0,0,0,3.825,40.8H26.209a5.063,5.063,0,0,1-.709-2.55Zm22.95-2.55H45.9V16.575a6.375,6.375,0,1,0-12.75,0V22.95H30.6a2.55,2.55,0,0,0-2.55,2.55V38.25A2.55,2.55,0,0,0,30.6,40.8H48.45A2.55,2.55,0,0,0,51,38.25V25.5A2.55,2.55,0,0,0,48.45,22.95ZM39.525,34.425a2.55,2.55,0,1,1,2.55-2.55A2.55,2.55,0,0,1,39.525,34.425Zm2.55-11.475h-5.1V16.575a2.55,2.55,0,0,1,5.1,0Z" transform="translate(709 205.1)"/></g><g transform="translate(-254 226.903)"><path class="d" d="M27.761,50.987l-6.077-1.763a1.2,1.2,0,0,1-.817-1.484L34.465.9A1.2,1.2,0,0,1,35.949.083l6.077,1.763a1.2,1.2,0,0,1,.817,1.484l-13.6,46.84A1.194,1.194,0,0,1,27.761,50.987ZM16.4,39.81l4.333-4.622a1.2,1.2,0,0,0-.08-1.713l-9.025-7.939L20.658,17.6a1.187,1.187,0,0,0,.08-1.713L16.4,11.26a1.2,1.2,0,0,0-1.693-.05L.356,24.659a1.188,1.188,0,0,0,0,1.743L14.711,39.86a1.188,1.188,0,0,0,1.693-.05ZM49,39.87,63.354,26.412a1.188,1.188,0,0,0,0-1.743L49,11.2a1.206,1.206,0,0,0-1.693.05l-4.333,4.622a1.2,1.2,0,0,0,.08,1.713l9.025,7.949-9.025,7.939a1.187,1.187,0,0,0-.08,1.713l4.333,4.622A1.2,1.2,0,0,0,49,39.87Z" transform="translate(414.645 199.963)"/></g><g transform="translate(298.729 246.22)"><g transform="translate(13 54.016)"><rect class="e" width="48.543" height="30.985" rx="3"/><line class="f" y2="30.985" transform="translate(18.074 0)"/><line class="f" x1="48.543" transform="translate(0 15.492)"/></g></g><g transform="translate(297.797 249.689)"><g transform="translate(16.326 184.752)"><path class="g" d="M38.052,184.756a2.928,2.928,0,0,0-1.115.282l-15.211,7.268a2.89,2.89,0,0,0-1.574,1.957L16.4,210.59a2.865,2.865,0,0,0,.395,2.212q.077.119.165.23l10.529,13.091a2.918,2.918,0,0,0,2.274,1.086l16.884,0a2.918,2.918,0,0,0,2.274-1.084l10.525-13.093a2.867,2.867,0,0,0,.562-2.442L56.249,194.26a2.89,2.89,0,0,0-1.574-1.957l-15.213-7.264A2.929,2.929,0,0,0,38.052,184.756Z" transform="translate(-16.326 -184.752)"/><path class="h" d="M126.156,274.06a.965.965,0,0,0-.91,1.012c0,.009,0,.017,0,.025,0,.076,0,.167,0,.233a7.6,7.6,0,0,0,.125.866,8.5,8.5,0,0,1,.1,1.652.993.993,0,0,1-.3.471l-.021.385a11.859,11.859,0,0,0-1.646.253,11.712,11.712,0,0,0-5.949,3.4c-.1-.069-.276-.195-.329-.233a.72.72,0,0,1-.541-.053,8.5,8.5,0,0,1-1.228-1.109,7.6,7.6,0,0,0-.6-.636c-.056-.048-.14-.112-.2-.161a1.083,1.083,0,0,0-.634-.239.877.877,0,0,0-.726.321.965.965,0,0,0,.224,1.342l.014.01c.06.049.134.111.189.152a7.594,7.594,0,0,0,.755.442,8.5,8.5,0,0,1,1.354.951,1.013,1.013,0,0,1,.183.525l.292.261a11.782,11.782,0,0,0-1.858,8.214l-.381.111a1.262,1.262,0,0,1-.391.395,8.5,8.5,0,0,1-1.632.268,7.614,7.614,0,0,0-.874.07c-.07.013-.167.039-.243.056l-.008,0-.014,0a.914.914,0,1,0,.4,1.774l.014,0,.018-.006c.075-.017.17-.035.235-.053a7.607,7.607,0,0,0,.817-.313,8.509,8.509,0,0,1,1.587-.467,1,1,0,0,1,.523.185l.4-.068a11.848,11.848,0,0,0,5.251,6.556l-.165.4a.9.9,0,0,1,.081.515,8.9,8.9,0,0,1-.824,1.481,7.632,7.632,0,0,0-.488.728c-.036.068-.082.173-.117.245a.914.914,0,1,0,1.644.78l0,0s0,0,0,0c.035-.071.084-.165.113-.232a7.592,7.592,0,0,0,.263-.835,6.366,6.366,0,0,1,.7-1.636.737.737,0,0,1,.392-.191l.206-.374a11.784,11.784,0,0,0,8.4.021c.058.1.166.3.195.35a.721.721,0,0,1,.465.282,8.495,8.495,0,0,1,.624,1.531,7.623,7.623,0,0,0,.265.835c.029.067.078.162.113.233a.915.915,0,1,0,1.646-.778c-.035-.072-.083-.177-.119-.245a7.6,7.6,0,0,0-.488-.726,8.506,8.506,0,0,1-.807-1.445.714.714,0,0,1,.07-.537,3.127,3.127,0,0,1-.152-.368,11.848,11.848,0,0,0,5.249-6.6c.118.019.323.055.389.068a.719.719,0,0,1,.51-.189,8.511,8.511,0,0,1,1.587.467,7.6,7.6,0,0,0,.817.315c.066.018.16.034.235.051l.018.006.014,0a.914.914,0,1,0,.4-1.774c-.078-.018-.189-.048-.265-.062a7.62,7.62,0,0,0-.873-.07,8.5,8.5,0,0,1-1.632-.268,1.021,1.021,0,0,1-.393-.395l-.368-.107a11.828,11.828,0,0,0-1.9-8.194c.094-.086.272-.243.323-.29a.719.719,0,0,1,.171-.516,8.5,8.5,0,0,1,1.354-.951,7.618,7.618,0,0,0,.757-.442c.059-.043.139-.112.2-.161a.915.915,0,1,0-1.134-1.424c-.062.049-.147.113-.2.161a7.619,7.619,0,0,0-.6.636,8.525,8.525,0,0,1-1.228,1.111,1.014,1.014,0,0,1-.553.06l-.346.247a11.932,11.932,0,0,0-7.558-3.652c-.008-.121-.019-.341-.021-.407a.72.72,0,0,1-.3-.455,8.52,8.52,0,0,1,.1-1.652,7.6,7.6,0,0,0,.125-.866c0-.073,0-.18,0-.259a.965.965,0,0,0-.91-1.012Zm-1.14,7.062-.27,4.776-.019.01a.8.8,0,0,1-1.274.615l-.008,0-3.916-2.776a9.379,9.379,0,0,1,4.517-2.461A9.6,9.6,0,0,1,125.016,281.122Zm2.282,0a9.458,9.458,0,0,1,5.455,2.63l-3.891,2.759-.014-.006a.8.8,0,0,1-1.276-.613l0,0Zm-9.19,4.412,3.576,3.2,0,.019a.8.8,0,0,1-.315,1.379l0,.016-4.583,1.323A9.377,9.377,0,0,1,118.108,285.534Zm16.071,0a9.551,9.551,0,0,1,1.372,5.918l-4.607-1.327,0-.019a.8.8,0,0,1-.315-1.379l0-.01Zm-8.756,3.443h1.465l.91,1.138-.327,1.42-1.315.632-1.319-.634-.327-1.42Zm4.7,3.895a.8.8,0,0,1,.185.014l.008-.01,4.741.8a9.389,9.389,0,0,1-3.8,4.768L129.417,294l.006-.008a.806.806,0,0,1,.7-1.121Zm-7.963.019a.8.8,0,0,1,.726,1.119l.014.017-1.821,4.4a9.428,9.428,0,0,1-3.784-4.735l4.7-.8.008.01A.812.812,0,0,1,122.156,292.893Zm3.971,1.928a.81.81,0,0,1,.735.422h.018l2.317,4.187a9.609,9.609,0,0,1-.926.259,9.415,9.415,0,0,1-5.138-.265l2.311-4.179h0A.8.8,0,0,1,126.127,294.821Z" transform="translate(-104.28 -268.5)"/></g></g><g class="k" transform="matrix(1, 0, 0, 1, 120, 259.9)"><path class="b" d="M7,0H119a7,7,0,0,1,7,7V119a7,7,0,0,1-7,7H7a7,7,0,0,1-7-7V7A7,7,0,0,1,7,0Z" transform="translate(297 6)"/></g><g transform="translate(436.777 304.849)"><path class="i" d="M106.179,105.5h-2.825a.554.554,0,0,0,0,1.108h2.825a.554.554,0,0,0,0-1.108Z" transform="translate(-64.63 -66.199)"/><g transform="translate(54.291 0.023)"><path class="i" d="M134.171,37.481a.629.629,0,0,1-.443-.166l-1.662-1.662a.627.627,0,1,1,.886-.886l1.662,1.662a.674.674,0,0,1,0,.886A.629.629,0,0,1,134.171,37.481Z" transform="translate(-131.9 -34.6)"/></g><g transform="translate(83.542 0.023)"><path class="i" d="M185.309,37.481a.629.629,0,0,1-.443-.166.674.674,0,0,1,0-.886l1.662-1.662a.627.627,0,0,1,.886.886l-1.662,1.662A.629.629,0,0,1,185.309,37.481Z" transform="translate(-184.7 -34.6)"/></g><g transform="translate(54.291 29.273)"><path class="i" d="M132.509,90.281a.629.629,0,0,1-.443-.166.674.674,0,0,1,0-.886l1.662-1.662a.627.627,0,0,1,.886.886l-1.662,1.662A.629.629,0,0,1,132.509,90.281Z" transform="translate(-131.9 -87.4)"/></g><g transform="translate(83.542 29.273)"><path class="i" d="M186.971,90.281a.629.629,0,0,1-.443-.166l-1.662-1.662a.627.627,0,0,1,.886-.886l1.662,1.662a.674.674,0,0,1,0,.886A.629.629,0,0,1,186.971,90.281Z" transform="translate(-184.7 -87.4)"/></g><g transform="translate(60.418 0)"><path class="i" d="M144.81,37.85a.609.609,0,0,1-.554-.332l-1.219-1.994a.646.646,0,1,1,1.108-.665l1.219,1.994a.71.71,0,0,1-.222.886A.787.787,0,0,1,144.81,37.85Z" transform="translate(-142.959 -34.559)"/></g><g transform="translate(66.637 0.014)"><path class="i" d="M155.246,38.139a.649.649,0,0,1-.609-.5l-.443-2.327a.619.619,0,0,1,1.219-.222l.443,2.327a.626.626,0,0,1-.5.72Z" transform="translate(-154.185 -34.585)"/></g><g transform="translate(66.5 5.75)"><path class="i" d="M155.3,48.407a.648.648,0,0,1-.609-.443l-.72-2.216a.613.613,0,1,1,1.163-.388l.72,2.216a.6.6,0,0,1-.388.776C155.413,48.352,155.357,48.407,155.3,48.407Z" transform="translate(-153.938 -44.938)"/></g><g transform="translate(77.758)"><path class="i" d="M174.891,37.85a.788.788,0,0,1-.332-.111.679.679,0,0,1-.222-.886l1.219-1.994a.646.646,0,1,1,1.108.665l-1.219,1.994A.609.609,0,0,1,174.891,37.85Z" transform="translate(-174.259 -34.559)"/></g><g transform="translate(72.343 0.014)"><path class="i" d="M165.1,38.139h-.111a.626.626,0,0,1-.5-.72l.443-2.327a.619.619,0,0,1,1.219.222l-.443,2.327A.6.6,0,0,1,165.1,38.139Z" transform="translate(-164.485 -34.585)"/></g><g transform="translate(72.206 5.75)"><path class="i" d="M164.882,48.407a.419.419,0,0,1-.222-.055.6.6,0,0,1-.388-.776l.72-2.216a.613.613,0,1,1,1.163.388l-.72,2.216A.539.539,0,0,1,164.882,48.407Z" transform="translate(-164.238 -44.938)"/></g><g transform="translate(60.473 28.863)"><path class="i" d="M143.691,89.95a.788.788,0,0,1-.332-.111.679.679,0,0,1-.222-.886l1.219-1.994a.646.646,0,0,1,1.108.665l-1.219,1.994A.756.756,0,0,1,143.691,89.95Z" transform="translate(-143.059 -86.659)"/></g><g transform="translate(66.637 28.6)"><path class="i" d="M154.8,89.739h-.111a.626.626,0,0,1-.5-.72l.443-2.327a.619.619,0,1,1,1.219.222l-.443,2.327A.649.649,0,0,1,154.8,89.739Z" transform="translate(-154.185 -86.185)"/></g><g transform="translate(66.445 22.979)"><path class="i" d="M154.482,79.507a.419.419,0,0,1-.222-.055.6.6,0,0,1-.388-.776l.72-2.216a.613.613,0,1,1,1.163.388l-.72,2.216A.5.5,0,0,1,154.482,79.507Z" transform="translate(-153.838 -76.038)"/></g><g transform="translate(77.758 28.863)"><path class="i" d="M176.11,89.95a.609.609,0,0,1-.554-.332l-1.219-1.994a.646.646,0,0,1,1.108-.665l1.219,1.994a.71.71,0,0,1-.222.886A.407.407,0,0,1,176.11,89.95Z" transform="translate(-174.259 -86.659)"/></g><g transform="translate(72.398 28.6)"><path class="i" d="M165.646,89.739a.649.649,0,0,1-.609-.5l-.443-2.327a.619.619,0,1,1,1.219-.222l.443,2.327a.626.626,0,0,1-.5.72Z" transform="translate(-164.585 -86.185)"/></g><g transform="translate(72.262 22.979)"><path class="i" d="M165.7,79.507a.648.648,0,0,1-.609-.443l-.72-2.216a.613.613,0,0,1,1.163-.388l.72,2.216a.6.6,0,0,1-.388.776A.2.2,0,0,1,165.7,79.507Z" transform="translate(-164.338 -76.038)"/></g><g transform="translate(77.836 23.567)"><path class="i" d="M176.671,79.981a.629.629,0,0,1-.443-.166l-1.662-1.662a.627.627,0,1,1,.886-.886l1.662,1.662a.674.674,0,0,1,0,.886A.629.629,0,0,1,176.671,79.981Z" transform="translate(-174.4 -77.1)"/></g><g transform="translate(83.131 6.149)"><path class="i" d="M184.591,48.175a.609.609,0,0,1-.554-.332.71.71,0,0,1,.222-.886l1.994-1.219a.646.646,0,0,1,.665,1.108l-1.994,1.219A.787.787,0,0,1,184.591,48.175Z" transform="translate(-183.959 -45.659)"/></g><g transform="translate(82.869 12.424)"><path class="i" d="M184.1,58.655a.649.649,0,0,1-.609-.5.626.626,0,0,1,.5-.72l2.327-.443a.619.619,0,0,1,.222,1.219l-2.327.443Z" transform="translate(-183.485 -56.985)"/></g><g transform="translate(77.192 12.232)"><path class="i" d="M173.882,58.611a.648.648,0,0,1-.609-.443.6.6,0,0,1,.388-.776l2.216-.72a.613.613,0,1,1,.388,1.163l-2.216.72C174.048,58.611,173.993,58.611,173.882,58.611Z" transform="translate(-173.238 -56.638)"/></g><g transform="translate(83.187 23.489)"><path class="i" d="M186.685,79.475a.788.788,0,0,1-.332-.111l-1.994-1.219a.646.646,0,1,1,.665-1.108l1.994,1.219a.66.66,0,0,1-.332,1.219Z" transform="translate(-184.059 -76.959)"/></g><g transform="translate(82.869 18.13)"><path class="i" d="M186.429,68.955h-.111l-2.327-.443a.619.619,0,0,1,.222-1.219l2.327.388a.626.626,0,0,1,.5.72A.645.645,0,0,1,186.429,68.955Z" transform="translate(-183.485 -67.285)"/></g><g transform="translate(77.248 17.993)"><path class="i" d="M176.2,69.011a.419.419,0,0,1-.222-.055l-2.216-.72a.613.613,0,0,1,.388-1.163l2.216.72a.6.6,0,0,1,.388.776A.539.539,0,0,1,176.2,69.011Z" transform="translate(-173.338 -67.038)"/></g><g transform="translate(54.268 6.149)"><path class="i" d="M134.485,48.175a.787.787,0,0,1-.332-.111l-1.994-1.219a.646.646,0,0,1,.665-1.108l1.994,1.219a.679.679,0,0,1,.222.886A.609.609,0,0,1,134.485,48.175Z" transform="translate(-131.859 -45.659)"/></g><g transform="translate(54.283 12.424)"><path class="i" d="M134.829,58.655h-.111l-2.327-.443a.619.619,0,0,1,.222-1.219l2.327.443a.626.626,0,0,1,.5.72A.649.649,0,0,1,134.829,58.655Z" transform="translate(-131.885 -56.985)"/></g><g transform="translate(59.963 12.232)"><path class="i" d="M145,58.611a.419.419,0,0,1-.222-.055l-2.216-.72a.613.613,0,1,1,.388-1.163l2.216.72a.6.6,0,0,1,.388.776A.5.5,0,0,1,145,58.611Z" transform="translate(-142.138 -56.638)"/></g><g transform="translate(54.268 23.489)"><path class="i" d="M132.491,79.475a.609.609,0,0,1-.554-.332.71.71,0,0,1,.222-.886l1.994-1.219a.646.646,0,1,1,.665,1.108l-1.994,1.219A.788.788,0,0,1,132.491,79.475Z" transform="translate(-131.859 -76.959)"/></g><g transform="translate(54.283 18.13)"><path class="i" d="M132.5,68.955a.649.649,0,0,1-.609-.5.626.626,0,0,1,.5-.72l2.327-.443a.619.619,0,0,1,.222,1.219l-2.327.443Z" transform="translate(-131.885 -67.285)"/></g><g transform="translate(59.963 17.993)"><path class="i" d="M142.782,69.011a.648.648,0,0,1-.609-.443.6.6,0,0,1,.388-.776l2.216-.72a.613.613,0,1,1,.388,1.163l-2.216.72C142.948,69.011,142.837,69.011,142.782,69.011Z" transform="translate(-142.138 -67.038)"/></g><g transform="translate(65.385 11.116)"><path class="i" d="M154.847,58.821a1.1,1.1,0,0,1-.886-.388L152.3,56.772A1.254,1.254,0,1,1,154.072,55l1.662,1.662a1.237,1.237,0,0,1,0,1.773A1.1,1.1,0,0,1,154.847,58.821Z" transform="translate(-151.925 -54.625)"/></g><g transform="translate(71.146 11.116)"><path class="i" d="M163.585,58.821a1.1,1.1,0,0,1-.886-.388,1.237,1.237,0,0,1,0-1.773L164.361,55a1.254,1.254,0,1,1,1.773,1.773l-1.662,1.662A1.269,1.269,0,0,1,163.585,58.821Z" transform="translate(-162.325 -54.625)"/></g><g transform="translate(65.385 16.822)"><path class="i" d="M153.185,69.121a1.1,1.1,0,0,1-.886-.388,1.238,1.238,0,0,1,0-1.773l1.662-1.662a1.254,1.254,0,0,1,1.773,1.773l-1.662,1.662A1.1,1.1,0,0,1,153.185,69.121Z" transform="translate(-151.925 -64.925)"/></g><g transform="translate(71.146 16.822)"><path class="i" d="M165.247,69.121a1.1,1.1,0,0,1-.886-.388L162.7,67.072a1.254,1.254,0,0,1,1.773-1.773l1.662,1.662a1.238,1.238,0,0,1,0,1.773A1.269,1.269,0,0,1,165.247,69.121Z" transform="translate(-162.325 -64.925)"/></g><path class="i" d="M115.151,102.564l3.712-3.712a.627.627,0,0,0-.886-.886l-3.712,3.712-3.712-3.712a.627.627,0,0,0-.886.886l3.712,3.712-3.712,3.712a.674.674,0,0,0,0,.886.674.674,0,0,0,.886,0l3.712-3.712,3.712,3.712a.674.674,0,0,0,.886,0,.674.674,0,0,0,0-.886Z" transform="translate(-67.618 -62.765)"/><g transform="translate(59.997 23.567)"><path class="i" d="M142.809,79.981a.629.629,0,0,1-.443-.166.674.674,0,0,1,0-.886l1.662-1.662a.627.627,0,1,1,.886.886l-1.662,1.662A.629.629,0,0,1,142.809,79.981Z" transform="translate(-142.2 -77.1)"/></g><g transform="translate(59.997 5.729)"><path class="i" d="M144.471,47.781a.629.629,0,0,1-.443-.166l-1.662-1.662a.627.627,0,0,1,.886-.886l1.662,1.662a.674.674,0,0,1,0,.886A.629.629,0,0,1,144.471,47.781Z" transform="translate(-142.2 -44.9)"/></g><g transform="translate(77.836 5.729)"><path class="i" d="M175.009,47.781a.629.629,0,0,1-.443-.166.674.674,0,0,1,0-.886l1.662-1.662a.627.627,0,1,1,.886.886l-1.662,1.662A.629.629,0,0,1,175.009,47.781Z" transform="translate(-174.4 -44.9)"/></g><path class="i" d="M62.654,98.1a.615.615,0,0,0-.609.609v.831a4.251,4.251,0,0,0-3.213-1.44,4.718,4.718,0,0,0,0,9.418,4.453,4.453,0,0,0,3.213-1.44v.831a.609.609,0,1,0,1.219,0v-8.2A.615.615,0,0,0,62.654,98.1Zm-3.823,8.144a3.339,3.339,0,0,1-3.213-3.435,3.39,3.39,0,0,1,3.213-3.49,3.472,3.472,0,0,1,0,6.925Z" transform="translate(-43.043 -62.899)"/><g transform="translate(23.323 31.988)"><path class="i" d="M76.609,92.3a.615.615,0,0,0-.609.609v.443a.665.665,0,0,0,.609.665.674.674,0,0,0,.665-.665v-.443A.665.665,0,0,0,76.609,92.3Z" transform="translate(-76 -92.3)"/><path class="i" d="M76.609,98.1a.615.615,0,0,0-.609.609v8.144a.615.615,0,0,0,.609.609.665.665,0,0,0,.665-.609V98.709A.629.629,0,0,0,76.609,98.1Z" transform="translate(-76 -94.887)"/></g><path class="i" d="M91.154,98.1a.615.615,0,0,0-.609.609v.831a4.251,4.251,0,0,0-3.213-1.44,4.718,4.718,0,0,0,0,9.418,4.453,4.453,0,0,0,3.213-1.44v.831a.609.609,0,1,0,1.219,0v-8.2A.615.615,0,0,0,91.154,98.1Zm-3.823,8.144a3.339,3.339,0,0,1-3.213-3.435,3.39,3.39,0,0,1,3.213-3.49,3.472,3.472,0,0,1,0,6.925Z" transform="translate(-55.754 -62.899)"/><path class="i" d="M42.21,98.1a.665.665,0,0,0-.665.609v.831a4.453,4.453,0,0,0-3.213-1.44,4.659,4.659,0,0,0,0,9.307,4.251,4.251,0,0,0,3.213-1.44v.609a3.135,3.135,0,0,1-3.213,3.158,3.286,3.286,0,0,1-1.274-.277,2.955,2.955,0,0,1-1.053-.72.684.684,0,0,0-.443-.222h0a.629.629,0,0,0-.443.166.673.673,0,0,0-.055.886,5.052,5.052,0,0,0,1.274.942l.055.055c.055,0,.055.055.111.055l.111.055c.055,0,.055.055.111.055a3.932,3.932,0,0,0,1.607.277,5.458,5.458,0,0,0,.942-.111h.055a4.876,4.876,0,0,0,.831-.277,4.132,4.132,0,0,0,.665-.388c.055-.055.111-.111.166-.111l.111-.055a1.469,1.469,0,0,0,.332-.277,1.88,1.88,0,0,0,.332-.332l.111-.111a4.458,4.458,0,0,0,1.053-2.825V98.709A.821.821,0,0,0,42.21,98.1Zm-3.823,8.088a3.3,3.3,0,0,1-3.158-3.435,3.195,3.195,0,1,1,6.371,0A3.376,3.376,0,0,1,38.387,106.188Z" transform="translate(-33.9 -62.899)"/></g><path class="a" d="M-11.125-3.61h1.48V-.77a4.228,4.228,0,0,1-1.32.66,5.125,5.125,0,0,1-1.51.23,4.092,4.092,0,0,1-1.96-.465A3.462,3.462,0,0,1-15.8-1.635,3.554,3.554,0,0,1-16.3-3.5a3.554,3.554,0,0,1,.5-1.865,3.445,3.445,0,0,1,1.375-1.29,4.172,4.172,0,0,1,1.98-.465,4.333,4.333,0,0,1,1.67.31,3.309,3.309,0,0,1,1.26.9l-1.04.96a2.4,2.4,0,0,0-1.81-.79,2.47,2.47,0,0,0-1.19.28,2.009,2.009,0,0,0-.81.79,2.325,2.325,0,0,0-.29,1.17,2.3,2.3,0,0,0,.29,1.16,2.051,2.051,0,0,0,.805.795,2.386,2.386,0,0,0,1.175.285,2.626,2.626,0,0,0,1.26-.3ZM-8.145-7h3.18a4.469,4.469,0,0,1,2.015.435A3.257,3.257,0,0,1-1.59-5.34,3.446,3.446,0,0,1-1.105-3.5,3.446,3.446,0,0,1-1.59-1.66,3.257,3.257,0,0,1-2.95-.435,4.469,4.469,0,0,1-4.965,0h-3.18Zm3.1,5.67A2.352,2.352,0,0,0-3.37-1.915,2.066,2.066,0,0,0-2.745-3.5,2.066,2.066,0,0,0-3.37-5.085,2.352,2.352,0,0,0-5.045-5.67h-1.48v4.34ZM3.145-7a3.889,3.889,0,0,1,1.615.31,2.4,2.4,0,0,1,1.055.88,2.424,2.424,0,0,1,.37,1.35,2.431,2.431,0,0,1-.37,1.345,2.356,2.356,0,0,1-1.055.88,3.944,3.944,0,0,1-1.615.3H1.735V0H.115V-7Zm-.09,3.75a1.7,1.7,0,0,0,1.11-.315,1.1,1.1,0,0,0,.38-.895,1.109,1.109,0,0,0-.38-.9,1.7,1.7,0,0,0-1.11-.315H1.735v2.43ZM11.795,0l-1.35-1.95H8.955V0H7.335V-7h3.03a3.889,3.889,0,0,1,1.615.31,2.4,2.4,0,0,1,1.055.88,2.424,2.424,0,0,1,.37,1.35,2.376,2.376,0,0,1-.375,1.345,2.377,2.377,0,0,1-1.065.865L13.535,0Zm-.03-4.46a1.109,1.109,0,0,0-.38-.9,1.7,1.7,0,0,0-1.11-.315H8.955v2.44h1.32a1.683,1.683,0,0,0,1.11-.32A1.112,1.112,0,0,0,11.765-4.46Zm-39.4,17.58a4.021,4.021,0,0,1-1.935-.465,3.47,3.47,0,0,1-1.36-1.29,3.554,3.554,0,0,1-.5-1.865,3.554,3.554,0,0,1,.5-1.865,3.47,3.47,0,0,1,1.36-1.29,4.042,4.042,0,0,1,1.945-.465,4.08,4.08,0,0,1,1.645.32,3.3,3.3,0,0,1,1.235.92l-1.04.96a2.236,2.236,0,0,0-1.76-.82,2.337,2.337,0,0,0-1.16.285,2.026,2.026,0,0,0-.8.8,2.337,2.337,0,0,0-.285,1.16,2.337,2.337,0,0,0,.285,1.16,2.026,2.026,0,0,0,.8.8,2.337,2.337,0,0,0,1.16.285,2.225,2.225,0,0,0,1.76-.83l1.04.96a3.242,3.242,0,0,1-1.24.93A4.116,4.116,0,0,1-27.635,13.12Zm7.22,0a4.086,4.086,0,0,1-1.965-.47,3.488,3.488,0,0,1-1.37-1.3,3.535,3.535,0,0,1-.5-1.855,3.535,3.535,0,0,1,.5-1.855,3.488,3.488,0,0,1,1.37-1.3,4.086,4.086,0,0,1,1.965-.47,4.057,4.057,0,0,1,1.96.47,3.533,3.533,0,0,1,1.37,1.3,3.508,3.508,0,0,1,.5,1.855,3.508,3.508,0,0,1-.5,1.855,3.533,3.533,0,0,1-1.37,1.3A4.057,4.057,0,0,1-20.415,13.12Zm0-1.38a2.221,2.221,0,0,0,1.12-.285,2.045,2.045,0,0,0,.785-.8,2.337,2.337,0,0,0,.285-1.16,2.337,2.337,0,0,0-.285-1.16,2.045,2.045,0,0,0-.785-.8,2.221,2.221,0,0,0-1.12-.285,2.221,2.221,0,0,0-1.12.285,2.045,2.045,0,0,0-.785.8A2.337,2.337,0,0,0-22.6,9.5a2.337,2.337,0,0,0,.285,1.16,2.045,2.045,0,0,0,.785.8A2.221,2.221,0,0,0-20.415,11.74ZM-8.995,13l-.01-4.2-2.06,3.46h-.73l-2.05-3.37V13h-1.52V6h1.34l2.62,4.35L-8.825,6h1.33l.02,7Zm6.21-7a3.889,3.889,0,0,1,1.615.31,2.4,2.4,0,0,1,1.055.88,2.424,2.424,0,0,1,.37,1.35,2.431,2.431,0,0,1-.37,1.345,2.356,2.356,0,0,1-1.055.88,3.944,3.944,0,0,1-1.615.3H-4.2V13h-1.62V6Zm-.09,3.75a1.7,1.7,0,0,0,1.11-.315,1.1,1.1,0,0,0,.38-.895,1.109,1.109,0,0,0-.38-.9,1.7,1.7,0,0,0-1.11-.315H-4.2V9.75ZM1.4,6h1.62v5.68h3.51V13H1.4Zm6.04,0h1.62v7H7.445Zm7.89,5.5h-3.25l-.62,1.5H9.8l3.12-7h1.6l3.13,7h-1.7Zm-.51-1.23-1.11-2.68L12.6,10.27ZM24.8,6v7h-1.33l-3.49-4.25V13h-1.6V6h1.34l3.48,4.25V6Zm3.11,1.32h-2.24V6h6.1V7.32h-2.24V13h-1.62Z" transform="translate(192.5 356.91)"/><path class="d" d="M-12.42.12a4.086,4.086,0,0,1-1.965-.47,3.488,3.488,0,0,1-1.37-1.295,3.535,3.535,0,0,1-.5-1.855,3.535,3.535,0,0,1,.5-1.855,3.488,3.488,0,0,1,1.37-1.3,4.086,4.086,0,0,1,1.965-.47,4.057,4.057,0,0,1,1.96.47,3.533,3.533,0,0,1,1.37,1.3A3.508,3.508,0,0,1-8.59-3.5a3.508,3.508,0,0,1-.5,1.855A3.533,3.533,0,0,1-10.46-.35,4.057,4.057,0,0,1-12.42.12Zm0-1.38a2.221,2.221,0,0,0,1.12-.285,2.045,2.045,0,0,0,.785-.795A2.337,2.337,0,0,0-10.23-3.5a2.337,2.337,0,0,0-.285-1.16,2.045,2.045,0,0,0-.785-.8,2.221,2.221,0,0,0-1.12-.285,2.221,2.221,0,0,0-1.12.285,2.045,2.045,0,0,0-.785.8A2.337,2.337,0,0,0-14.61-3.5a2.337,2.337,0,0,0,.285,1.16,2.045,2.045,0,0,0,.785.795A2.221,2.221,0,0,0-12.42-1.26ZM-4.34-7a3.889,3.889,0,0,1,1.615.31,2.4,2.4,0,0,1,1.055.88A2.424,2.424,0,0,1-1.3-4.46a2.431,2.431,0,0,1-.37,1.345,2.356,2.356,0,0,1-1.055.88,3.944,3.944,0,0,1-1.615.3H-5.75V0H-7.37V-7Zm-.09,3.75a1.7,1.7,0,0,0,1.11-.315,1.1,1.1,0,0,0,.38-.895,1.109,1.109,0,0,0-.38-.9A1.7,1.7,0,0,0-4.43-5.68H-5.75v2.43ZM5.27-1.3V0H-.15V-7H5.14v1.3H1.46v1.52H4.71v1.26H1.46V-1.3ZM12.98-7V0H11.65L8.16-4.25V0H6.56V-7H7.9l3.48,4.25V-7Zm-31.9,20.12a5.727,5.727,0,0,1-1.6-.225,3.764,3.764,0,0,1-1.245-.585l.55-1.22a3.732,3.732,0,0,0,1.07.53,4.019,4.019,0,0,0,1.24.2,1.981,1.981,0,0,0,1.02-.2.619.619,0,0,0,.33-.545.521.521,0,0,0-.195-.415,1.478,1.478,0,0,0-.5-.265q-.3-.1-.825-.22a11.4,11.4,0,0,1-1.31-.38,2.128,2.128,0,0,1-.875-.61,1.647,1.647,0,0,1-.365-1.12,1.948,1.948,0,0,1,.33-1.1,2.22,2.22,0,0,1,1-.785,4.06,4.06,0,0,1,1.625-.29,5.381,5.381,0,0,1,1.31.16,3.87,3.87,0,0,1,1.12.46l-.5,1.23a3.9,3.9,0,0,0-1.94-.55,1.819,1.819,0,0,0-1.005.22.672.672,0,0,0-.325.58.567.567,0,0,0,.375.535A5.888,5.888,0,0,0-18.5,8.86a11.4,11.4,0,0,1,1.31.38,2.169,2.169,0,0,1,.875.6,1.609,1.609,0,0,1,.365,1.11,1.911,1.911,0,0,1-.335,1.1,2.251,2.251,0,0,1-1,.785A4.1,4.1,0,0,1-18.915,13.12Zm7.47,0a4.086,4.086,0,0,1-1.965-.47,3.488,3.488,0,0,1-1.37-1.3A3.535,3.535,0,0,1-15.275,9.5a3.535,3.535,0,0,1,.495-1.855,3.488,3.488,0,0,1,1.37-1.3,4.086,4.086,0,0,1,1.965-.47,4.057,4.057,0,0,1,1.96.47,3.533,3.533,0,0,1,1.37,1.3,3.508,3.508,0,0,1,.5,1.855,3.508,3.508,0,0,1-.5,1.855,3.533,3.533,0,0,1-1.37,1.3A4.057,4.057,0,0,1-11.445,13.12Zm0-1.38a2.221,2.221,0,0,0,1.12-.285,2.045,2.045,0,0,0,.785-.8A2.337,2.337,0,0,0-9.255,9.5,2.337,2.337,0,0,0-9.54,8.34a2.045,2.045,0,0,0-.785-.8,2.221,2.221,0,0,0-1.12-.285,2.221,2.221,0,0,0-1.12.285,2.045,2.045,0,0,0-.785.8,2.337,2.337,0,0,0-.285,1.16,2.337,2.337,0,0,0,.285,1.16,2.045,2.045,0,0,0,.785.8A2.221,2.221,0,0,0-11.445,11.74Zm8.16,1.38a3.168,3.168,0,0,1-2.335-.83,3.2,3.2,0,0,1-.835-2.37V6h1.62V9.86q0,1.88,1.56,1.88a1.462,1.462,0,0,0,1.16-.455,2.121,2.121,0,0,0,.4-1.425V6h1.6V9.92A3.2,3.2,0,0,1-.95,12.29,3.168,3.168,0,0,1-3.285,13.12ZM5.945,13,4.6,11.05H3.105V13H1.485V6h3.03a3.889,3.889,0,0,1,1.615.31,2.4,2.4,0,0,1,1.055.88,2.424,2.424,0,0,1,.37,1.35,2.28,2.28,0,0,1-1.44,2.21L7.685,13Zm-.03-4.46a1.109,1.109,0,0,0-.38-.9,1.7,1.7,0,0,0-1.11-.315H3.105V9.76h1.32a1.683,1.683,0,0,0,1.11-.32A1.112,1.112,0,0,0,5.915,8.54Zm6.27,4.58a4.021,4.021,0,0,1-1.935-.465,3.47,3.47,0,0,1-1.36-1.29A3.554,3.554,0,0,1,8.395,9.5,3.554,3.554,0,0,1,8.89,7.635a3.47,3.47,0,0,1,1.36-1.29,4.042,4.042,0,0,1,1.945-.465,4.08,4.08,0,0,1,1.645.32,3.3,3.3,0,0,1,1.235.92l-1.04.96a2.236,2.236,0,0,0-1.76-.82,2.337,2.337,0,0,0-1.16.285,2.026,2.026,0,0,0-.795.8,2.5,2.5,0,0,0,0,2.32,2.026,2.026,0,0,0,.795.8,2.337,2.337,0,0,0,1.16.285,2.225,2.225,0,0,0,1.76-.83l1.04.96a3.242,3.242,0,0,1-1.24.93A4.116,4.116,0,0,1,12.185,13.12Zm9.4-1.42V13h-5.42V6h5.29V7.3h-3.68V8.82h3.25v1.26h-3.25V11.7Z" transform="translate(192 498.917)"/><path class="e" d="M-18,.12a5.727,5.727,0,0,1-1.6-.225A3.764,3.764,0,0,1-20.85-.69l.55-1.22a3.732,3.732,0,0,0,1.07.53,4.019,4.019,0,0,0,1.24.2,1.981,1.981,0,0,0,1.02-.2.619.619,0,0,0,.33-.545.521.521,0,0,0-.195-.415,1.478,1.478,0,0,0-.5-.265q-.3-.1-.825-.22a11.4,11.4,0,0,1-1.31-.38,2.128,2.128,0,0,1-.875-.61,1.647,1.647,0,0,1-.365-1.12,1.948,1.948,0,0,1,.33-1.105,2.22,2.22,0,0,1,1-.785,4.06,4.06,0,0,1,1.625-.29,5.381,5.381,0,0,1,1.31.16,3.87,3.87,0,0,1,1.12.46l-.5,1.23a3.9,3.9,0,0,0-1.94-.55,1.819,1.819,0,0,0-1.005.22.672.672,0,0,0-.325.58.567.567,0,0,0,.375.535,5.888,5.888,0,0,0,1.145.345,11.4,11.4,0,0,1,1.31.38,2.169,2.169,0,0,1,.875.6,1.609,1.609,0,0,1,.365,1.11,1.911,1.911,0,0,1-.335,1.095,2.251,2.251,0,0,1-1,.785A4.1,4.1,0,0,1-18,.12ZM-7.19-7l-3.03,7h-1.6l-3.02-7h1.75l2.13,5L-8.8-7Zm6,5.7V0H-6.61V-7h5.29v1.3H-5v1.52h3.25v1.26H-5V-1.3ZM6.52-7V0H5.19L1.7-4.25V0H.1V-7H1.44L4.92-2.75V-7ZM10.48.12A5.727,5.727,0,0,1,8.875-.1,3.764,3.764,0,0,1,7.63-.69l.55-1.22a3.732,3.732,0,0,0,1.07.53,4.019,4.019,0,0,0,1.24.2,1.981,1.981,0,0,0,1.02-.2.619.619,0,0,0,.33-.545.521.521,0,0,0-.195-.415,1.478,1.478,0,0,0-.5-.265q-.305-.1-.825-.22a11.4,11.4,0,0,1-1.31-.38,2.128,2.128,0,0,1-.875-.61A1.647,1.647,0,0,1,7.77-4.94,1.948,1.948,0,0,1,8.1-6.045a2.22,2.22,0,0,1,.995-.785,4.06,4.06,0,0,1,1.625-.29,5.381,5.381,0,0,1,1.31.16,3.87,3.87,0,0,1,1.12.46l-.5,1.23a3.9,3.9,0,0,0-1.94-.55A1.819,1.819,0,0,0,9.7-5.6a.672.672,0,0,0-.325.58.567.567,0,0,0,.375.535A5.888,5.888,0,0,0,10.9-4.14a11.4,11.4,0,0,1,1.31.38,2.169,2.169,0,0,1,.875.6,1.609,1.609,0,0,1,.365,1.11,1.911,1.911,0,0,1-.335,1.095,2.251,2.251,0,0,1-1,.785A4.1,4.1,0,0,1,10.48.12Zm6.63-2.87-.94.98V0H14.56V-7h1.61v3.27L19.27-7h1.8l-2.9,3.12L21.24,0H19.35ZM-28.625,13l-.01-4.2-2.06,3.46h-.73l-2.05-3.37V13h-1.52V6h1.34l2.62,4.35L-28.455,6h1.33l.02,7Zm6.57.12a4.086,4.086,0,0,1-1.965-.47,3.488,3.488,0,0,1-1.37-1.3,3.535,3.535,0,0,1-.5-1.855,3.535,3.535,0,0,1,.5-1.855,3.488,3.488,0,0,1,1.37-1.3,4.086,4.086,0,0,1,1.965-.47,4.057,4.057,0,0,1,1.96.47,3.533,3.533,0,0,1,1.37,1.3,3.508,3.508,0,0,1,.5,1.855,3.508,3.508,0,0,1-.5,1.855,3.533,3.533,0,0,1-1.37,1.3A4.057,4.057,0,0,1-22.055,13.12Zm0-1.38a2.221,2.221,0,0,0,1.12-.285,2.045,2.045,0,0,0,.785-.8,2.337,2.337,0,0,0,.285-1.16,2.337,2.337,0,0,0-.285-1.16,2.045,2.045,0,0,0-.785-.8,2.221,2.221,0,0,0-1.12-.285,2.221,2.221,0,0,0-1.12.285,2.045,2.045,0,0,0-.785.8,2.337,2.337,0,0,0-.285,1.16,2.337,2.337,0,0,0,.285,1.16,2.045,2.045,0,0,0,.785.8A2.221,2.221,0,0,0-22.055,11.74ZM-17.005,6h1.62v5.68h3.51V13h-5.13Zm12.46,0v7h-1.33l-3.49-4.25V13h-1.6V6h1.34l3.48,4.25V6Zm3.11,1.32h-2.24V6h6.1V7.32H.185V13h-1.62Zm5.92,5.8a3.171,3.171,0,0,1-1.3-.265A2.5,2.5,0,0,1,2.2,12.1l.9-1.08a1.617,1.617,0,0,0,1.3.77q.99,0,.99-1.16V7.3H2.935V6H7v4.54a2.641,2.641,0,0,1-.64,1.935A2.537,2.537,0,0,1,4.485,13.12Zm8.58-1.62H9.815L9.195,13H7.535l3.12-7h1.6l3.13,7h-1.7Zm-.51-1.23-1.11-2.68-1.11,2.68Zm-2.11-4.89a.688.688,0,0,1-.5-.195.713.713,0,0,1,0-.99.688.688,0,0,1,.5-.195.69.69,0,1,1,0,1.38Zm2.02,0a.69.69,0,1,1,0-1.38.688.688,0,0,1,.5.195.713.713,0,0,1,0,.99A.688.688,0,0,1,12.465,5.38ZM22.535,6v7H21.2l-3.49-4.25V13h-1.6V6h1.34l3.48,4.25V6Zm3.96,7.12a5.727,5.727,0,0,1-1.6-.225,3.764,3.764,0,0,1-1.245-.585l.55-1.22a3.732,3.732,0,0,0,1.07.53,4.019,4.019,0,0,0,1.24.2,1.981,1.981,0,0,0,1.02-.2.619.619,0,0,0,.33-.545.521.521,0,0,0-.195-.415,1.478,1.478,0,0,0-.5-.265q-.3-.1-.825-.22a11.4,11.4,0,0,1-1.31-.38,2.128,2.128,0,0,1-.875-.61,1.647,1.647,0,0,1-.365-1.12,1.948,1.948,0,0,1,.33-1.1,2.22,2.22,0,0,1,1-.785,4.06,4.06,0,0,1,1.625-.29,5.381,5.381,0,0,1,1.31.16,3.87,3.87,0,0,1,1.12.46l-.5,1.23a3.9,3.9,0,0,0-1.94-.55,1.819,1.819,0,0,0-1.005.22.672.672,0,0,0-.325.58.567.567,0,0,0,.375.535,5.888,5.888,0,0,0,1.145.345,11.4,11.4,0,0,1,1.31.38,2.169,2.169,0,0,1,.875.6,1.609,1.609,0,0,1,.365,1.11,1.911,1.911,0,0,1-.335,1.1,2.251,2.251,0,0,1-1,.785A4.1,4.1,0,0,1,26.495,13.12Zm5.43-5.8h-2.24V6h6.1V7.32h-2.24V13h-1.62Z" transform="translate(336 357.917)"/><path class="a" d="M-28.245-7a3.889,3.889,0,0,1,1.615.31,2.4,2.4,0,0,1,1.055.88,2.424,2.424,0,0,1,.37,1.35,2.431,2.431,0,0,1-.37,1.345,2.356,2.356,0,0,1-1.055.88,3.944,3.944,0,0,1-1.615.3h-1.41V0h-1.62V-7Zm-.09,3.75a1.7,1.7,0,0,0,1.11-.315,1.1,1.1,0,0,0,.38-.895,1.109,1.109,0,0,0-.38-.9,1.7,1.7,0,0,0-1.11-.315h-1.32v2.43Zm7.77,3.37A4.086,4.086,0,0,1-22.53-.35,3.488,3.488,0,0,1-23.9-1.645,3.535,3.535,0,0,1-24.4-3.5a3.535,3.535,0,0,1,.5-1.855,3.488,3.488,0,0,1,1.37-1.3,4.086,4.086,0,0,1,1.965-.47,4.057,4.057,0,0,1,1.96.47,3.533,3.533,0,0,1,1.37,1.3,3.508,3.508,0,0,1,.5,1.855,3.508,3.508,0,0,1-.5,1.855A3.533,3.533,0,0,1-18.6-.35,4.057,4.057,0,0,1-20.565.12Zm0-1.38a2.221,2.221,0,0,0,1.12-.285,2.045,2.045,0,0,0,.785-.795,2.337,2.337,0,0,0,.285-1.16,2.337,2.337,0,0,0-.285-1.16,2.045,2.045,0,0,0-.785-.8,2.221,2.221,0,0,0-1.12-.285,2.221,2.221,0,0,0-1.12.285,2.045,2.045,0,0,0-.785.8,2.337,2.337,0,0,0-.285,1.16,2.337,2.337,0,0,0,.285,1.16,2.045,2.045,0,0,0,.785.795A2.221,2.221,0,0,0-20.565-1.26ZM-5.165-7l-2.29,7H-9.2l-1.54-4.74L-12.325,0h-1.73l-2.3-7h1.68l1.58,4.92L-11.445-7h1.5l1.6,4.96L-6.715-7Zm6.32,5.7V0h-5.42V-7h5.29v1.3h-3.68v1.52H.6v1.26h-3.25V-1.3ZM6.905,0,5.555-1.95H4.065V0H2.445V-7h3.03a3.889,3.889,0,0,1,1.615.31,2.4,2.4,0,0,1,1.055.88,2.424,2.424,0,0,1,.37,1.35A2.376,2.376,0,0,1,8.14-3.115a2.377,2.377,0,0,1-1.065.865L8.645,0Zm-.03-4.46a1.109,1.109,0,0,0-.38-.9,1.7,1.7,0,0,0-1.11-.315H4.065v2.44h1.32A1.683,1.683,0,0,0,6.5-3.56,1.112,1.112,0,0,0,6.875-4.46Zm4.54-1.24v1.85h3.24v1.3h-3.24V0H9.8V-7h5.29v1.3ZM19.3.12A3.168,3.168,0,0,1,16.96-.71a3.2,3.2,0,0,1-.835-2.37V-7h1.62v3.86q0,1.88,1.56,1.88a1.462,1.462,0,0,0,1.16-.455,2.121,2.121,0,0,0,.4-1.425V-7h1.6v3.92A3.2,3.2,0,0,1,21.63-.71,3.168,3.168,0,0,1,19.3.12ZM24.065-7h1.62v5.68h3.51V0h-5.13Zm-54.94,18.5h-3.25l-.62,1.5h-1.66l3.12-7h1.6l3.13,7h-1.7Zm-.51-1.23L-32.5,7.59l-1.11,2.68Zm6.52,2.85a3.168,3.168,0,0,1-2.335-.83,3.2,3.2,0,0,1-.835-2.37V6h1.62V9.86q0,1.88,1.56,1.88a1.462,1.462,0,0,0,1.16-.455,2.121,2.121,0,0,0,.4-1.425V6h1.6V9.92a3.2,3.2,0,0,1-.835,2.37A3.168,3.168,0,0,1-24.865,13.12Zm6.1-5.8h-2.24V6h6.1V7.32h-2.24V13h-1.62Zm8.02,5.8a4.086,4.086,0,0,1-1.965-.47,3.488,3.488,0,0,1-1.37-1.3A3.535,3.535,0,0,1-14.575,9.5a3.535,3.535,0,0,1,.495-1.855,3.488,3.488,0,0,1,1.37-1.3,4.086,4.086,0,0,1,1.965-.47,4.057,4.057,0,0,1,1.96.47,3.533,3.533,0,0,1,1.37,1.3,3.508,3.508,0,0,1,.5,1.855,3.508,3.508,0,0,1-.5,1.855,3.533,3.533,0,0,1-1.37,1.3A4.057,4.057,0,0,1-10.745,13.12Zm0-1.38a2.221,2.221,0,0,0,1.12-.285,2.045,2.045,0,0,0,.785-.8A2.337,2.337,0,0,0-8.555,9.5,2.337,2.337,0,0,0-8.84,8.34a2.045,2.045,0,0,0-.785-.8,2.221,2.221,0,0,0-1.12-.285,2.221,2.221,0,0,0-1.12.285,2.045,2.045,0,0,0-.785.8,2.337,2.337,0,0,0-.285,1.16,2.337,2.337,0,0,0,.285,1.16,2.045,2.045,0,0,0,.785.8A2.221,2.221,0,0,0-10.745,11.74ZM.675,13,.665,8.8-1.4,12.26h-.73l-2.05-3.37V13H-5.7V6h1.34l2.62,4.35L.845,6h1.33l.02,7Zm7.79-1.5H5.215L4.595,13H2.935l3.12-7h1.6l3.13,7h-1.7Zm-.51-1.23L6.845,7.59l-1.11,2.68Zm4.66-2.95h-2.24V6h6.1V7.32h-2.24V13h-1.62ZM17.345,6h1.62v7h-1.62Zm6.67,7.12a4.086,4.086,0,0,1-1.965-.47,3.488,3.488,0,0,1-1.37-1.3,3.535,3.535,0,0,1-.5-1.855,3.535,3.535,0,0,1,.5-1.855,3.488,3.488,0,0,1,1.37-1.3,4.332,4.332,0,0,1,3.925,0,3.57,3.57,0,0,1,0,6.3A4.057,4.057,0,0,1,24.015,13.12Zm0-1.38a2.221,2.221,0,0,0,1.12-.285,2.045,2.045,0,0,0,.785-.8,2.5,2.5,0,0,0,0-2.32,2.045,2.045,0,0,0-.785-.8,2.343,2.343,0,0,0-2.24,0,2.045,2.045,0,0,0-.785.8,2.5,2.5,0,0,0,0,2.32,2.045,2.045,0,0,0,.785.8A2.221,2.221,0,0,0,24.015,11.74ZM35.485,6v7h-1.33l-3.49-4.25V13h-1.6V6h1.34l3.48,4.25V6Z" transform="translate(480 498.917)"/><path class="a" d="M-22.21-11.266h6.966l-.3-1.032q-1.247-4.214-2.042-7.181t-.967-3.827l-.172-.86A122.106,122.106,0,0,1-21.909-12.3ZM-11.89,0l-1.763-5.934H-23.8L-25.564,0h-6.923l9.675-28.982h8.342L-4.795,0Zm17.5-14.62H7.8q5.246,0,5.246-4.773,0-4.3-4.859-4.3H5.611ZM-1.011-28.982H8.965a11.173,11.173,0,0,1,7.8,2.709,8.879,8.879,0,0,1,2.988,6.88A9.132,9.132,0,0,1,16.641-12,11.517,11.517,0,0,1,8.965-9.374H5.611V0H-1.011ZM23.628,0V-28.982H30.25V0Z" transform="translate(480 467.903)"/><path class="j" d="M-32.095-2.75l-.94.98V0h-1.61V-7h1.61v3.27l3.1-3.27h1.8l-2.9,3.12L-27.965,0h-1.89Zm7.86,2.87A3.168,3.168,0,0,1-26.57-.71,3.2,3.2,0,0,1-27.4-3.08V-7h1.62v3.86q0,1.88,1.56,1.88a1.462,1.462,0,0,0,1.16-.455,2.121,2.121,0,0,0,.4-1.425V-7h1.6v3.92A3.2,3.2,0,0,1-21.9-.71,3.168,3.168,0,0,1-24.235.12Zm9.91-3.76a1.846,1.846,0,0,1,.94.635,1.751,1.751,0,0,1,.34,1.1A1.618,1.618,0,0,1-13.76-.5a3.655,3.655,0,0,1-2.085.5h-3.62V-7h3.42a3.348,3.348,0,0,1,1.965.49,1.551,1.551,0,0,1,.685,1.33,1.707,1.707,0,0,1-.245.91A1.716,1.716,0,0,1-14.325-3.64Zm-3.53-2.14v1.65h1.61a1.625,1.625,0,0,0,.91-.21.7.7,0,0,0,.31-.62.688.688,0,0,0-.31-.615,1.657,1.657,0,0,0-.91-.205Zm1.89,4.56A1.8,1.8,0,0,0-15-1.43a.719.719,0,0,0,.325-.65q0-.87-1.29-.87h-1.89v1.73Zm9.57-.08V0h-5.42V-7h5.29v1.3H-10.2v1.52h3.25v1.26H-10.2V-1.3ZM-.645,0l-1.35-1.95h-1.49V0H-5.1V-7h3.03A3.889,3.889,0,0,1-.46-6.69,2.4,2.4,0,0,1,.6-5.81a2.424,2.424,0,0,1,.37,1.35A2.376,2.376,0,0,1,.59-3.115,2.377,2.377,0,0,1-.475-2.25L1.1,0Zm-.03-4.46a1.109,1.109,0,0,0-.38-.9,1.7,1.7,0,0,0-1.11-.315h-1.32v2.44h1.32a1.683,1.683,0,0,0,1.11-.32A1.112,1.112,0,0,0-.675-4.46ZM8.665-7V0H7.335L3.845-4.25V0h-1.6V-7h1.34l3.48,4.25V-7Zm7.08,5.7V0h-5.42V-7h5.29v1.3h-3.68v1.52h3.25v1.26h-3.25V-1.3Zm2.74-4.38h-2.24V-7h6.1v1.32h-2.24V0h-1.62ZM28.635-1.3V0h-5.42V-7h5.29v1.3h-3.68v1.52h3.25v1.26h-3.25V-1.3ZM32.225.12A5.727,5.727,0,0,1,30.62-.1,3.764,3.764,0,0,1,29.375-.69l.55-1.22A3.732,3.732,0,0,0,31-1.38a4.019,4.019,0,0,0,1.24.2,1.981,1.981,0,0,0,1.02-.2.619.619,0,0,0,.33-.545.521.521,0,0,0-.195-.415,1.478,1.478,0,0,0-.5-.265q-.3-.1-.825-.22a11.4,11.4,0,0,1-1.31-.38,2.128,2.128,0,0,1-.875-.61,1.647,1.647,0,0,1-.365-1.12,1.948,1.948,0,0,1,.33-1.105,2.22,2.22,0,0,1,1-.785,4.06,4.06,0,0,1,1.625-.29,5.381,5.381,0,0,1,1.31.16,3.87,3.87,0,0,1,1.12.46l-.5,1.23a3.9,3.9,0,0,0-1.94-.55,1.819,1.819,0,0,0-1.005.22.672.672,0,0,0-.325.58.567.567,0,0,0,.375.535,5.888,5.888,0,0,0,1.145.345,11.4,11.4,0,0,1,1.31.38,2.169,2.169,0,0,1,.875.6,1.609,1.609,0,0,1,.365,1.11A1.911,1.911,0,0,1,34.86-.955a2.251,2.251,0,0,1-1,.785A4.1,4.1,0,0,1,32.225.12Zm-57.56,13a4.086,4.086,0,0,1-1.965-.47,3.488,3.488,0,0,1-1.37-1.3,3.535,3.535,0,0,1-.5-1.855,3.535,3.535,0,0,1,.5-1.855,3.488,3.488,0,0,1,1.37-1.3,4.086,4.086,0,0,1,1.965-.47,4.057,4.057,0,0,1,1.96.47A3.533,3.533,0,0,1-22,7.645,3.508,3.508,0,0,1-21.5,9.5a3.508,3.508,0,0,1-.5,1.855,3.533,3.533,0,0,1-1.37,1.3A4.057,4.057,0,0,1-25.335,13.12Zm0-1.38a2.221,2.221,0,0,0,1.12-.285,2.045,2.045,0,0,0,.785-.8,2.337,2.337,0,0,0,.285-1.16,2.337,2.337,0,0,0-.285-1.16,2.045,2.045,0,0,0-.785-.8,2.221,2.221,0,0,0-1.12-.285,2.221,2.221,0,0,0-1.12.285,2.045,2.045,0,0,0-.785.8,2.337,2.337,0,0,0-.285,1.16,2.337,2.337,0,0,0,.285,1.16,2.045,2.045,0,0,0,.785.8A2.221,2.221,0,0,0-25.335,11.74ZM-17.255,6a3.889,3.889,0,0,1,1.615.31,2.4,2.4,0,0,1,1.055.88,2.424,2.424,0,0,1,.37,1.35,2.431,2.431,0,0,1-.37,1.345,2.357,2.357,0,0,1-1.055.88,3.944,3.944,0,0,1-1.615.3h-1.41V13h-1.62V6Zm-.09,3.75a1.7,1.7,0,0,0,1.11-.315,1.1,1.1,0,0,0,.38-.895,1.109,1.109,0,0,0-.38-.9,1.7,1.7,0,0,0-1.11-.315h-1.32V9.75Zm5.54-2.43h-2.24V6h6.1V7.32h-2.24V13H-11.8ZM-7.075,6h1.62v7h-1.62Zm9.65,7-.01-4.2L.505,12.26h-.73l-2.05-3.37V13h-1.52V6h1.34l2.62,4.35L2.745,6h1.33l.02,7Zm3.18-7h1.62v7H5.755Zm5.58,7.12A5.727,5.727,0,0,1,9.73,12.9a3.764,3.764,0,0,1-1.245-.585l.55-1.22a3.732,3.732,0,0,0,1.07.53,4.019,4.019,0,0,0,1.24.2,1.981,1.981,0,0,0,1.02-.2.619.619,0,0,0,.33-.545.521.521,0,0,0-.195-.415,1.478,1.478,0,0,0-.5-.265q-.305-.1-.825-.22a11.4,11.4,0,0,1-1.31-.38,2.128,2.128,0,0,1-.875-.61,1.647,1.647,0,0,1-.365-1.12,1.948,1.948,0,0,1,.33-1.1A2.22,2.22,0,0,1,9.95,6.17a4.06,4.06,0,0,1,1.625-.29,5.381,5.381,0,0,1,1.31.16A3.87,3.87,0,0,1,14,6.5l-.5,1.23a3.9,3.9,0,0,0-1.94-.55,1.819,1.819,0,0,0-1.005.22.672.672,0,0,0-.325.58.567.567,0,0,0,.375.535,5.888,5.888,0,0,0,1.145.345,11.4,11.4,0,0,1,1.31.38,2.169,2.169,0,0,1,.875.6,1.609,1.609,0,0,1,.365,1.11,1.911,1.911,0,0,1-.335,1.1,2.251,2.251,0,0,1-1,.785A4.1,4.1,0,0,1,11.335,13.12Zm9.5-1.42V13h-5.42V6h5.29V7.3h-3.68V8.82h3.25v1.26h-3.25V11.7ZM22.125,6h3.18a4.469,4.469,0,0,1,2.015.435A3.257,3.257,0,0,1,28.68,7.66a3.446,3.446,0,0,1,.485,1.84,3.446,3.446,0,0,1-.485,1.84,3.257,3.257,0,0,1-1.36,1.225A4.469,4.469,0,0,1,25.305,13h-3.18Zm3.1,5.67a2.352,2.352,0,0,0,1.675-.585A2.066,2.066,0,0,0,27.525,9.5,2.066,2.066,0,0,0,26.9,7.915a2.352,2.352,0,0,0-1.675-.585h-1.48v4.34Z" transform="translate(336 497.91)"/></g></svg>