<svg xmlns="http://www.w3.org/2000/svg" viewBox="0 0 470.1 101.85"><defs><style>.a{fill:#fff}.b{fill:none;stroke:#fff;stroke-miterlimit:10}</style></defs><circle cx="177.17" cy="41.24" r="2.45" class="a"/><path d="M39.75 38.87a13.72 13.72 0 0 0-27.27 0A13.72 13.72 0 0 0 14 66.25h12.11a7.66 7.66 0 1 0 0-15.32 4.47 4.47 0 1 1 3.16-7.64 1.59 1.59 0 1 0 2.3-2.21 7.66 7.66 0 1 0-5.45 13.02 4.47 4.47 0 1 1 0 8.94H14A10.54 10.54 0 0 1 14 42a1.6 1.6 0 0 0 1.59-1.59 10.53 10.53 0 1 1 21.06 0A1.6 1.6 0 0 0 38.24 42a10.54 10.54 0 0 1 0 21.07 1.6 1.6 0 1 0 0 3.19 13.72 13.72 0 0 0 1.51-27.36ZM70.66 56c-.78-.31-1.49-.55-2.51-.9-1.84-.58-3.64-1.25-3.64-2.78s1.18-2.31 3-2.31a6.8 6.8 0 0 1 4.7 2l1.57-2.31a8.2 8.2 0 0 0-6.34-2.43c-3.29 0-6.27 1.88-6.27 5.33a4.8 4.8 0 0 0 2.93 4.46 14 14 0 0 0 2.55 1c1.25.43 4.19 1.05 4.19 3.1s-1.84 2.66-3.58 2.66a7.7 7.7 0 0 1-5.49-2.67L60 63.35a9 9 0 0 0 7.24 3.32A8 8 0 0 0 72.38 65a5.3 5.3 0 0 0 1.92-4.2 4.5 4.5 0 0 0-1.49-3.44A7 7 0 0 0 70.66 56m13.61-8.72a14.5 14.5 0 0 0-7 1.88l1.14 2.51A11.5 11.5 0 0 1 84 50.06c2.7 0 4.62 1.41 4.62 4.23V55l-5 .19c-4.31.19-7.27 2-7.27 5.68s3 5.75 6.41 5.75a7.7 7.7 0 0 0 5.92-2.76v2.35h3.63V55.42c0-3.17-.74-4.73-2-6s-2.95-2.14-6.04-2.14m4.43 14A5.9 5.9 0 0 1 84 64c-2.43 0-3.84-1.45-3.84-3.21s1.22-3 4.23-3.21l4.35-.27Zm25.52-14a9.23 9.23 0 0 0-9.43 9.63c0 5.88 3.79 9.75 9.31 9.75s8-2.74 8.18-2.93l-1.56-2.16a10.3 10.3 0 0 1-6.15 2.16c-3.45 0-5.79-2.23-6-5.91h14.33a15 15 0 0 0 .12-1.65 8.5 8.5 0 0 0-8.8-8.89m-5.6 8a5.5 5.5 0 0 1 5.49-5.28 5.4 5.4 0 0 1 5.36 5.33Zm26.44.72c-.78-.31-1.49-.55-2.5-.9-1.85-.58-3.64-1.25-3.64-2.78s1.17-2.31 3-2.31a7 7 0 0 1 4.7 2l1.57-2.31a8.1 8.1 0 0 0-6.34-2.43c-3.29 0-6.27 1.88-6.27 5.33a4.8 4.8 0 0 0 2.93 4.46 14 14 0 0 0 2.55 1c1.25.43 4.19 1.05 4.19 3.09s-1.84 2.66-3.57 2.66a7.6 7.6 0 0 1-5.48-2.66l-1.81 2.19a9 9 0 0 0 7.25 3.33 8 8 0 0 0 5.13-1.67 5.3 5.3 0 0 0 1.92-4.23 4.6 4.6 0 0 0-1.49-3.45 7 7 0 0 0-2.14-1.32m16.04-8.72a7.9 7.9 0 0 0-6.59 3.29h-.08v-2.93h-3.6v25.67h3.76v-10a7.2 7.2 0 0 0 6.41 3.35c5.52 0 9.05-4.23 9.05-9.75s-3.47-9.63-8.95-9.63m-.78 16.17c-3.72 0-5.91-2.86-5.91-6.58s2.19-6.53 5.91-6.53 5.91 2.81 5.91 6.53-2.23 6.58-5.91 6.58m24.99-15.81h3.76v18.59h-3.76zm16.43-.36a6.3 6.3 0 0 0-5.69 3.29h-.11v-2.93h-3.76v18.61H186v-9.38c0-3.56 1.29-6.49 4.77-6.49s3.88 2.35 3.88 5.48v10.39h3.75v-11c0-4.48-1.4-7.97-6.66-7.97m24.26.36v2.93a7.4 7.4 0 0 0-6.5-3.29c-4.77 0-9 3.45-9 9.36s4.19 9.36 9 9.36a7.5 7.5 0 0 0 6.5-3.33v.73a8.3 8.3 0 0 1-1.41 5.21 6.3 6.3 0 0 1-5.09 2 12 12 0 0 1-6.66-2.35l-1.76 2.62a14 14 0 0 0 8.29 2.78c4.62 0 6.93-1.87 8.31-3.56s2-3.92 2-8V47.64Zm-5.79 15.28c-3.8 0-5.91-2.78-5.91-6.3s2.11-6.34 5.91-6.34 5.91 2.82 5.91 6.34-2.07 6.32-5.91 6.32ZM96.83 40.82c-.79 1-1.26 2.55-1.26 5v20.43h3.72V50.69h4.42v-3h-4.42V45.6c0-2.11.39-4 2.86-4a7 7 0 0 1 1.57.2V39a12 12 0 0 0-2.43-.22 5.6 5.6 0 0 0-4.46 2.04M166 50.49h-.12v-2.85h-3.76v18.61h3.76V57a8.3 8.3 0 0 1 1.13-4.7 4 4 0 0 1 3.06-1.57 5 5 0 0 1 2 .39v-3.66a6 6 0 0 0-1.56-.18 4.9 4.9 0 0 0-4.51 3.21" class="a"/><path d="m281.43.17-37.52 101.5" class="b"/><path d="M454.13 55.82c-.2 3.47 1.59 7.13 5.73 7.63a8.3 8.3 0 0 0 6.44-1.67l.19-.12 1.62 2.75a17 17 0 0 1-1.67 1 13.5 13.5 0 0 1-8.81 1 9.1 9.1 0 0 1-6.4-5.32 12.7 12.7 0 0 1 .36-11.56 9.3 9.3 0 0 1 7.06-5.11c3.4-.48 6.57.11 9.09 2.69a8 8 0 0 1 2.26 4.75 11 11 0 0 1-.08 3.51c-.07.34-.19.46-.56.46h-14.61Zm6.11-2.71h5.65c.31 0 .47-.09.4-.41a10 10 0 0 0-.5-2.11 5.3 5.3 0 0 0-4.62-3.15 6.2 6.2 0 0 0-6.94 5.18c-.06.46.09.5.46.49Zm-14.93-7.41-1.07 3.48q-.52-.37-1-.67a6.3 6.3 0 0 0-4.84-.95 2.33 2.33 0 0 0-2 3 3 3 0 0 0 1.4 1.84q1.08.61 2.22 1.12a24 24 0 0 1 3.98 2.14 6 6 0 0 1-2.45 10.7 12.8 12.8 0 0 1-9.17-1.26l-.13-.11 1.31-3.53.63.39a11 11 0 0 0 3.9 1.63 5 5 0 0 0 2.66-.29 2.9 2.9 0 0 0 .71-4.72 12 12 0 0 0-2.24-1.47c-1.07-.6-2.22-1.07-3.3-1.66a6.3 6.3 0 0 1-3.31-3.74 5.2 5.2 0 0 1 3.49-6.78 10.2 10.2 0 0 1 6.62 0q1.28.4 2.59.88M427 38.76a2.3 2.3 0 0 1-2.34 2.34 2.34 2.34 0 1 1 0-4.68 2.37 2.37 0 0 1 2.34 2.34m-.64 16.7v10.23c0 .59 0 .59-.6.59h-2.58c-.6 0-.6 0-.6-.61v-17.3c0-.56 0-.56-.56-.56h-2c-.27 0-.39-.07-.39-.36V45q-.01-.38.36-.35h6c.42 0 .36.27.36.52Zm-29.51-10.87h3.92c.12 0 .28.24.34.4l3.22 8.52 2.17 5.75.23.52.24-.55q2.76-7.11 5.49-14.23a.6.6 0 0 1 .65-.44h3.46l-.29.72-9 20.92a.63.63 0 0 1-.69.47.64.64 0 0 1-.69-.47L397 45q-.08-.17-.15-.41m-9.93-5.92v5.47c0 .41.13.51.51.51h5c.37 0 .47.11.46.47v2c0 .35-.1.47-.46.47h-5.5v11.05a10 10 0 0 0 .25 2.16 3.14 3.14 0 0 0 3.35 2.67 8 8 0 0 0 1.71-.16 16 16 0 0 0 1.65-.49l.36 2q.02.29.09.59c.12.68.21.57-.54.74a17 17 0 0 1-5.13.42 5.7 5.7 0 0 1-4.95-3.74 7 7 0 0 1-.53-2.45c-.06-4 0-8.09 0-12.14 0-.76.11-.73-.76-.73H381q-.37.01-.36-.35v-2.29c0-.25.13-.31.35-.3h1.73c.35 0 .48-.11.47-.47v-3.7a.5.5 0 0 1 .39-.56c1-.35 1.93-.74 2.89-1.11Zm-9.05 5.93-1.52 3.53a21 21 0 0 0-2.07-.66 3.8 3.8 0 0 0-3.39 1.09 6.5 6.5 0 0 0-2.25 5v12.22c0 .42-.12.54-.54.53h-2.84c-.35 0-.45-.12-.44-.44V45.28c0-.62 0-.62.64-.62h3.15V48h.11l.24-.35a6.7 6.7 0 0 1 4.53-3.27 12 12 0 0 1 4.38.22" class="a"/><path d="M470.1 74v3.16h-130a23 23 0 0 1-8.19-1.3 17.9 17.9 0 0 1-11.77-13.29 21.5 21.5 0 0 1 10.07-23.29 19 19 0 0 1 8.13-2.59 20.3 20.3 0 0 1 11.92 2.38 18 18 0 0 1 9 12 19 19 0 0 1-.08 9.61 11 11 0 0 1-1.43 3.32 6.56 6.56 0 0 1-7.8 2.43 7.4 7.4 0 0 1-3.43-3.2q-.77-1.29-1.48-2.62a.84.84 0 0 0-.93-.53q-3.17.1-6.33.16c-.78 0-1.55.06-2.33.06-.29 0-.4.16-.5.38l-2.34 4.88-.21.43L329 64l.11-.28q5-9 9.94-18.1l.24-.41c.38-.65 1-.66 1.36 0q4.06 7.2 8.14 14.37a18 18 0 0 0 2.09 3c1.39 1.55 3.28 1.19 4.19-.68a10 10 0 0 0 .79-3.28 19 19 0 0 0-.25-5.86c-1.34-6-4.75-10.28-10.63-12.27a15.64 15.64 0 0 0-18.16 6.65 19.4 19.4 0 0 0-2.91 9.42 17 17 0 0 0 2.51 10.22 14.8 14.8 0 0 0 10.43 6.92 20 20 0 0 0 3.29.26h129.3ZM339.83 50.41l-3.44 6.81h7Z" class="a"/></svg>