<svg xmlns="http://www.w3.org/2000/svg" xmlns:xlink="http://www.w3.org/1999/xlink" width="432" height="285" viewBox="0 0 432 285"><defs><filter id="Path_5093" width="144" height="144" x="288" y="0" filterUnits="userSpaceOnUse"><feOffset dy="3"/><feGaussianBlur result="blur" stdDeviation="3"/><feFlood flood-opacity="0.161"/><feComposite in2="blur" operator="in"/><feComposite in="SourceGraphic"/></filter><filter id="Path_295" width="144" height="144" x="0" y="0" filterUnits="userSpaceOnUse"><feOffset dy="3"/><feGaussianBlur result="blur-2" stdDeviation="3"/><feFlood flood-opacity="0.161"/><feComposite in2="blur-2" operator="in"/><feComposite in="SourceGraphic"/></filter><filter id="Path_294" width="144" height="144" x="288" y="141" filterUnits="userSpaceOnUse"><feOffset dy="3"/><feGaussianBlur result="blur-3" stdDeviation="3"/><feFlood flood-opacity="0.161"/><feComposite in2="blur-3" operator="in"/><feComposite in="SourceGraphic"/></filter><filter id="Path_293" width="144" height="144" x="144" y="0" filterUnits="userSpaceOnUse"><feOffset dy="3"/><feGaussianBlur result="blur-4" stdDeviation="3"/><feFlood flood-opacity="0.161"/><feComposite in2="blur-4" operator="in"/><feComposite in="SourceGraphic"/></filter><filter id="Path_292" width="144" height="144" x="0" y="141" filterUnits="userSpaceOnUse"><feOffset dy="3"/><feGaussianBlur result="blur-5" stdDeviation="3"/><feFlood flood-opacity="0.161"/><feComposite in2="blur-5" operator="in"/><feComposite in="SourceGraphic"/></filter><filter id="Path_291" width="144" height="144" x="144" y="141" filterUnits="userSpaceOnUse"><feOffset dy="3"/><feGaussianBlur result="blur-6" stdDeviation="3"/><feFlood flood-opacity="0.161"/><feComposite in2="blur-6" operator="in"/><feComposite in="SourceGraphic"/></filter><clipPath id="clip-path"><path id="Rectangle_6" fill="#32cd32" d="M0 0h51v51H0z" transform="translate(709 200)"/></clipPath><clipPath id="clip-path-2"><path id="Rectangle_4" fill="#195f8c" d="M0 0h51v51H0z" transform="translate(565 200)"/></clipPath></defs><g id="safespring_key-points-openshift-2" transform="translate(-89 -82)"><g id="Compute" transform="translate(-285 -92)"><g filter="url(#Path_5093)" transform="translate(374 174)"><path id="Path_5093-2" fill="#fff" d="M7 0h112a7 7 0 0 1 7 7v112a7 7 0 0 1-7 7H7a7 7 0 0 1-7-7V7a7 7 0 0 1 7-7" transform="translate(297 6)"/></g><g filter="url(#Path_295)" transform="translate(374 174)"><path id="Path_295-2" fill="#fff" d="M7 0h112a7 7 0 0 1 7 7v112a7 7 0 0 1-7 7H7a7 7 0 0 1-7-7V7a7 7 0 0 1 7-7" transform="translate(9 6)"/></g><g filter="url(#Path_294)" transform="translate(374 174)"><path id="Path_294-2" fill="#fff" d="M7 0h112a7 7 0 0 1 7 7v112a7 7 0 0 1-7 7H7a7 7 0 0 1-7-7V7a7 7 0 0 1 7-7" transform="translate(297 147)"/></g><g filter="url(#Path_293)" transform="translate(374 174)"><path id="Path_293-2" fill="#fff" d="M7 0h112a7 7 0 0 1 7 7v112a7 7 0 0 1-7 7H7a7 7 0 0 1-7-7V7a7 7 0 0 1 7-7" transform="translate(153 6)"/></g><g filter="url(#Path_292)" transform="translate(374 174)"><path id="Path_292-2" fill="#fff" d="M7 0h112a7 7 0 0 1 7 7v112a7 7 0 0 1-7 7H7a7 7 0 0 1-7-7V7a7 7 0 0 1 7-7" transform="translate(9 147)"/></g><g filter="url(#Path_291)" transform="translate(374 174)"><path id="Path_291-2" fill="#fff" d="M7 0h112a7 7 0 0 1 7 7v112a7 7 0 0 1-7 7H7a7 7 0 0 1-7-7V7a7 7 0 0 1 7-7" transform="translate(153 147)"/></g><g id="Mask_Group_3" clip-path="url(#clip-path)" transform="translate(-287.5 -1.007)"><path id="user-lock-solid" fill="#32cd32" d="M17.85 20.4a10.2 10.2 0 1 0-10.2-10.2 10.2 10.2 0 0 0 10.2 10.2m7.65 5.1a5 5 0 0 1 .65-2.43 11 11 0 0 0-1.16-.12h-1.33a14 14 0 0 1-11.62 0h-1.33A10.7 10.7 0 0 0 0 33.65v3.33a3.83 3.83 0 0 0 3.83 3.82H26.2a5 5 0 0 1-.71-2.55Zm22.95-2.55H45.9v-6.37a6.38 6.38 0 1 0-12.75 0v6.37H30.6a2.55 2.55 0 0 0-2.55 2.55v12.75a2.55 2.55 0 0 0 2.55 2.55h17.85A2.55 2.55 0 0 0 51 38.25V25.5a2.55 2.55 0 0 0-2.55-2.55m-8.93 11.47a2.55 2.55 0 1 1 2.55-2.55 2.55 2.55 0 0 1-2.55 2.55m2.55-11.47h-5.1v-6.37a2.55 2.55 0 0 1 5.1 0Z" transform="translate(709 205.1)"/></g><g id="Group_2" clip-path="url(#clip-path-2)" transform="translate(144 .097)"><path id="lock-open-solid" fill="#195f8c" d="M32.1 0a11.6 11.6 0 0 0-11.48 11.64v5.34H3.64A3.64 3.64 0 0 0 0 20.62v14.55a3.64 3.64 0 0 0 3.64 3.64h26.68a3.64 3.64 0 0 0 3.64-3.64V20.62a3.64 3.64 0 0 0-3.64-3.64h-3.64v-5.4a5.46 5.46 0 1 1 10.92-.06v6.07a1.8 1.8 0 0 0 1.82 1.81h2.42a1.8 1.8 0 0 0 1.82-1.82v-6.06A11.54 11.54 0 0 0 32.1 0" transform="translate(570.746 206.095)"/></g><g id="TEXT"><path id="Path_5107" fill="#32cd32" d="M-11.12-3.61h1.47v2.84a4 4 0 0 1-1.31.66 5 5 0 0 1-1.51.23 4 4 0 0 1-1.96-.46 3.5 3.5 0 0 1-1.37-1.3 3.6 3.6 0 0 1-.5-1.86 3.6 3.6 0 0 1 .5-1.86 3.5 3.5 0 0 1 1.38-1.3 4 4 0 0 1 1.97-.46 4 4 0 0 1 1.67.31 3 3 0 0 1 1.26.9l-1.04.96a2.4 2.4 0 0 0-1.8-.79 2.5 2.5 0 0 0-1.2.28 2 2 0 0 0-.8.79 2.3 2.3 0 0 0-.3 1.17 2.3 2.3 0 0 0 .3 1.16 2 2 0 0 0 .8.8 2.4 2.4 0 0 0 1.18.28 2.6 2.6 0 0 0 1.26-.3ZM-8.15-7h3.19a4.5 4.5 0 0 1 2.01.44 3.3 3.3 0 0 1 1.36 1.22A3.5 3.5 0 0 1-1.1-3.5a3.5 3.5 0 0 1-.49 1.84A3.3 3.3 0 0 1-2.95-.44 4.5 4.5 0 0 1-4.96 0h-3.18Zm3.1 5.67a2.4 2.4 0 0 0 1.68-.58 2 2 0 0 0 .63-1.59 2 2 0 0 0-.63-1.58 2.4 2.4 0 0 0-1.67-.59h-1.48v4.34ZM3.15-7a4 4 0 0 1 1.61.31 2.4 2.4 0 0 1 1.06.88 2.4 2.4 0 0 1 .36 1.35 2.4 2.4 0 0 1-.37 1.34 2.4 2.4 0 0 1-1.05.88 4 4 0 0 1-1.61.3H1.73V0H.12v-7Zm-.1 3.75a1.7 1.7 0 0 0 1.12-.31 1.1 1.1 0 0 0 .38-.9 1.1 1.1 0 0 0-.38-.9 1.7 1.7 0 0 0-1.11-.31H1.73v2.42ZM11.8 0l-1.36-1.95H8.97V0H7.33v-7h3.03a4 4 0 0 1 1.62.31 2.4 2.4 0 0 1 1.06.88 2.4 2.4 0 0 1 .37 1.35 2.4 2.4 0 0 1-.38 1.34 2.4 2.4 0 0 1-1.06.87L13.53 0Zm-.04-4.46a1.1 1.1 0 0 0-.37-.9 1.7 1.7 0 0 0-1.12-.31h-1.3v2.43h1.31a1.7 1.7 0 0 0 1.12-.32 1.1 1.1 0 0 0 .38-.9m-39.4 17.58a4 4 0 0 1-1.93-.47 3.5 3.5 0 0 1-1.36-1.29 3.6 3.6 0 0 1-.5-1.86 3.6 3.6 0 0 1 .5-1.87 3.5 3.5 0 0 1 1.36-1.29 4 4 0 0 1 1.95-.46 4 4 0 0 1 1.64.32 3 3 0 0 1 1.24.92l-1.04.96a2.2 2.2 0 0 0-1.76-.82 2.3 2.3 0 0 0-1.16.28 2 2 0 0 0-.8.8 2.3 2.3 0 0 0-.29 1.16 2.3 2.3 0 0 0 .28 1.16 2 2 0 0 0 .8.8 2.3 2.3 0 0 0 1.17.29 2.2 2.2 0 0 0 1.76-.83l1.04.96a3 3 0 0 1-1.24.93 4 4 0 0 1-1.66.31m7.23 0a4 4 0 0 1-1.97-.47 3.5 3.5 0 0 1-1.37-1.3 3.5 3.5 0 0 1-.5-1.86 3.5 3.5 0 0 1 .5-1.85 3.5 3.5 0 0 1 1.37-1.3 4 4 0 0 1 1.97-.47 4 4 0 0 1 1.96.47 3.5 3.5 0 0 1 1.37 1.3 3.5 3.5 0 0 1 .5 1.85 3.5 3.5 0 0 1-.5 1.86 3.5 3.5 0 0 1-1.37 1.3 4 4 0 0 1-1.96.47m0-1.38a2 2 0 0 0 1.12-.29 2 2 0 0 0 .78-.8 2.3 2.3 0 0 0 .29-1.16 2.3 2.3 0 0 0-.29-1.16 2 2 0 0 0-.78-.8 2 2 0 0 0-1.12-.28 2 2 0 0 0-1.12.28 2 2 0 0 0-.79.8 2.3 2.3 0 0 0-.28 1.17 2.3 2.3 0 0 0 .28 1.16 2 2 0 0 0 .79.8 2 2 0 0 0 1.12.28M-9 13V8.8l-2.06 3.46h-.73l-2.06-3.37V13h-1.51V6h1.34l2.62 4.35L-8.82 6h1.33l.02 7Zm6.2-7a4 4 0 0 1 1.62.31 2.4 2.4 0 0 1 1.06.88 2.4 2.4 0 0 1 .37 1.35 2.4 2.4 0 0 1-.37 1.35 2.4 2.4 0 0 1-1.06.87 4 4 0 0 1-1.61.3H-4.2V13h-1.62V6Zm-.08 3.75a1.7 1.7 0 0 0 1.1-.31 1.1 1.1 0 0 0 .39-.9 1.1 1.1 0 0 0-.38-.9 1.7 1.7 0 0 0-1.11-.31H-4.2v2.42ZM1.4 6h1.62v5.68h3.51V13H1.4Zm6.04 0h1.62v7H7.44Zm7.89 5.5h-3.25l-.62 1.5H9.8l3.12-7h1.6l3.13 7h-1.7Zm-.51-1.23-1.11-2.68-1.11 2.68ZM24.8 6v7h-1.33l-3.49-4.25V13h-1.6V6h1.34l3.48 4.25V6Zm3.11 1.32h-2.24V6h6.1v1.32h-2.24V13h-1.62Z" transform="translate(446.5 271.006)"/><path id="Path_5106" fill="#3c9bcd" d="M-12.42.12a4 4 0 0 1-1.96-.47 3.5 3.5 0 0 1-1.37-1.3 3.5 3.5 0 0 1-.5-1.85 3.5 3.5 0 0 1 .5-1.85 3.5 3.5 0 0 1 1.37-1.3 4 4 0 0 1 1.96-.47 4 4 0 0 1 1.96.47 3.5 3.5 0 0 1 1.37 1.3 3.5 3.5 0 0 1 .5 1.85 3.5 3.5 0 0 1-.5 1.86 3.5 3.5 0 0 1-1.37 1.29 4 4 0 0 1-1.96.47m0-1.38a2 2 0 0 0 1.12-.28 2 2 0 0 0 .79-.8 2.3 2.3 0 0 0 .28-1.16 2.3 2.3 0 0 0-.28-1.16 2 2 0 0 0-.79-.8 2 2 0 0 0-1.12-.28 2 2 0 0 0-1.12.28 2 2 0 0 0-.79.8 2.3 2.3 0 0 0-.28 1.16 2.3 2.3 0 0 0 .28 1.16 2 2 0 0 0 .79.8 2 2 0 0 0 1.12.28M-4.34-7a4 4 0 0 1 1.62.31 2.4 2.4 0 0 1 1.05.88 2.4 2.4 0 0 1 .37 1.35 2.4 2.4 0 0 1-.37 1.35 2.4 2.4 0 0 1-1.05.87 4 4 0 0 1-1.62.3h-1.41V0h-1.62v-7Zm-.09 3.75a1.7 1.7 0 0 0 1.11-.31 1.1 1.1 0 0 0 .38-.9 1.1 1.1 0 0 0-.38-.9 1.7 1.7 0 0 0-1.11-.32h-1.32v2.43Zm9.7 1.95V0H-.15v-7h5.29v1.3H1.46v1.52h3.25v1.26H1.46v1.62ZM12.98-7v7h-1.33L8.16-4.25V0h-1.6v-7H7.9l3.48 4.25V-7Zm-31.9 20.12a6 6 0 0 1-1.6-.22 4 4 0 0 1-1.25-.59l.55-1.22a4 4 0 0 0 1.07.53 4 4 0 0 0 1.24.2 2 2 0 0 0 1.02-.2.6.6 0 0 0 .33-.54.5.5 0 0 0-.19-.42 2 2 0 0 0-.5-.26q-.3-.1-.83-.22a11 11 0 0 1-1.3-.38 2 2 0 0 1-.88-.62 1.7 1.7 0 0 1-.36-1.11 2 2 0 0 1 .33-1.1 2 2 0 0 1 1-.79 4 4 0 0 1 1.62-.29 5 5 0 0 1 1.31.16 4 4 0 0 1 1.12.46l-.5 1.23a4 4 0 0 0-1.94-.55 2 2 0 0 0-1 .22.7.7 0 0 0-.33.58.6.6 0 0 0 .38.54 6 6 0 0 0 1.13.33 11 11 0 0 1 1.31.38 2 2 0 0 1 .88.6 1.6 1.6 0 0 1 .36 1.11 2 2 0 0 1-.34 1.1 2.3 2.3 0 0 1-1 .78 4 4 0 0 1-1.62.29Zm7.47 0a4 4 0 0 1-1.96-.47 3.5 3.5 0 0 1-1.37-1.3 3.5 3.5 0 0 1-.5-1.85 3.5 3.5 0 0 1 .5-1.85 3.5 3.5 0 0 1 1.37-1.3 4 4 0 0 1 1.97-.47 4 4 0 0 1 1.95.47 3.5 3.5 0 0 1 1.38 1.3 3.5 3.5 0 0 1 .5 1.85 3.5 3.5 0 0 1-.5 1.86 3.5 3.5 0 0 1-1.37 1.3 4 4 0 0 1-1.96.46Zm0-1.38a2 2 0 0 0 1.12-.28 2 2 0 0 0 .79-.8 2.3 2.3 0 0 0 .28-1.16 2.3 2.3 0 0 0-.28-1.16 2 2 0 0 0-.78-.8 2 2 0 0 0-1.12-.28 2 2 0 0 0-1.13.28 2 2 0 0 0-.78.8 2.3 2.3 0 0 0-.29 1.16 2.3 2.3 0 0 0 .29 1.16 2 2 0 0 0 .78.8 2 2 0 0 0 1.13.28Zm8.16 1.38a3.2 3.2 0 0 1-2.33-.83 3.2 3.2 0 0 1-.84-2.37V6h1.62v3.86q0 1.88 1.56 1.88a1.5 1.5 0 0 0 1.16-.46 2 2 0 0 0 .4-1.42V6h1.6v3.92a3.2 3.2 0 0 1-.83 2.37 3.2 3.2 0 0 1-2.33.83ZM5.95 13 4.6 11.05H3.1V13H1.5V6h3.03a4 4 0 0 1 1.61.31 2.4 2.4 0 0 1 1.06.88 2.4 2.4 0 0 1 .36 1.35 2.3 2.3 0 0 1-1.43 2.21L7.68 13Zm-.03-4.46a1.1 1.1 0 0 0-.38-.9 1.7 1.7 0 0 0-1.11-.32H3.1v2.44h1.32a1.7 1.7 0 0 0 1.1-.32 1.1 1.1 0 0 0 .38-.9m6.27 4.58a4 4 0 0 1-1.94-.46 3.5 3.5 0 0 1-1.36-1.3 3.6 3.6 0 0 1-.5-1.86 3.6 3.6 0 0 1 .5-1.87 3.5 3.5 0 0 1 1.36-1.28 4 4 0 0 1 1.95-.47 4 4 0 0 1 1.64.32 3 3 0 0 1 1.24.92l-1.05.96a2.2 2.2 0 0 0-1.75-.82 2.3 2.3 0 0 0-1.16.28 2 2 0 0 0-.8.8 2.5 2.5 0 0 0 0 2.33 2 2 0 0 0 .8.8 2.3 2.3 0 0 0 1.16.28 2.2 2.2 0 0 0 1.76-.83l1.04.96a3 3 0 0 1-1.25.93 4 4 0 0 1-1.64.31m9.4-1.42V13h-5.42V6h5.28v1.3h-3.68v1.52H21v1.26h-3.25v1.62Z" transform="translate(446 413.097)"/><path id="Path_5105" fill="#195f8c" d="M-23.77-1.3V0h-5.43v-7h5.29v1.3h-3.68v1.52h3.25v1.26h-3.25v1.62Zm4.4 1.42a3.2 3.2 0 0 1-2.34-.83 3.2 3.2 0 0 1-.83-2.37V-7h1.61v3.86q0 1.88 1.56 1.88a1.5 1.5 0 0 0 1.16-.46 2 2 0 0 0 .4-1.42V-7h1.6v3.92a3.2 3.2 0 0 1-.83 2.37 3.2 3.2 0 0 1-2.34.83m9.23-.12-1.36-1.95H-13V0h-1.62v-7h3.03a4 4 0 0 1 1.62.31 2.4 2.4 0 0 1 1.05.88 2.4 2.4 0 0 1 .37 1.35 2.4 2.4 0 0 1-.37 1.34 2.4 2.4 0 0 1-1.06.87L-8.4 0Zm-.03-4.46a1.1 1.1 0 0 0-.38-.9 1.7 1.7 0 0 0-1.11-.31h-1.32v2.43h1.32a1.7 1.7 0 0 0 1.1-.32 1.1 1.1 0 0 0 .38-.9m6.3 4.58a4 4 0 0 1-1.96-.47 3.5 3.5 0 0 1-1.37-1.3 3.5 3.5 0 0 1-.5-1.85 3.5 3.5 0 0 1 .5-1.85 3.5 3.5 0 0 1 1.37-1.3 4 4 0 0 1 1.97-.47 4 4 0 0 1 1.95.47 3.5 3.5 0 0 1 1.37 1.3 3.5 3.5 0 0 1 .5 1.85 3.5 3.5 0 0 1-.5 1.86A3.5 3.5 0 0 1-1.9-.35a4 4 0 0 1-1.96.47m0-1.38a2 2 0 0 0 1.13-.28 2 2 0 0 0 .78-.8 2.3 2.3 0 0 0 .28-1.16 2.3 2.3 0 0 0-.28-1.16 2 2 0 0 0-.78-.8 2 2 0 0 0-1.12-.28A2 2 0 0 0-5-5.46a2 2 0 0 0-.78.8 2.3 2.3 0 0 0-.29 1.16 2.3 2.3 0 0 0 .29 1.16 2 2 0 0 0 .79.8 2 2 0 0 0 1.12.28M4.22-7a4 4 0 0 1 1.61.31 2.4 2.4 0 0 1 1.06.88 2.4 2.4 0 0 1 .37 1.35 2.4 2.4 0 0 1-.37 1.34 2.4 2.4 0 0 1-1.06.88 4 4 0 0 1-1.61.3H2.8V0H1.19v-7Zm-.1 3.75a1.7 1.7 0 0 0 1.12-.31 1.1 1.1 0 0 0 .38-.9 1.1 1.1 0 0 0-.38-.9 1.7 1.7 0 0 0-1.11-.31H2.8v2.42Zm9.7 1.95V0H8.4v-7h5.29v1.3h-3.68v1.52h3.25v1.26h-3.25v1.62Zm5.9-.2h-3.24L15.86 0H14.2l3.12-7h1.6l3.13 7h-1.7Zm-.5-1.23L18.1-5.41l-1.11 2.68ZM29.2-7v7h-1.33l-3.5-4.25V0h-1.6v-7h1.34l3.48 4.25V-7Zm-67.88 20.12a4 4 0 0 1-1.94-.46 3.5 3.5 0 0 1-1.36-1.3 3.6 3.6 0 0 1-.5-1.86 3.6 3.6 0 0 1 .5-1.86 3.5 3.5 0 0 1 1.36-1.3 4 4 0 0 1 1.94-.46 4 4 0 0 1 1.65.32 3 3 0 0 1 1.24.92l-1.05.96a2.2 2.2 0 0 0-1.75-.82 2.3 2.3 0 0 0-1.16.28 2 2 0 0 0-.8.8 2.3 2.3 0 0 0-.29 1.17 2.3 2.3 0 0 0 .29 1.16 2 2 0 0 0 .8.8 2.3 2.3 0 0 0 1.16.28 2.2 2.2 0 0 0 1.76-.83l1.03.96a3 3 0 0 1-1.24.93 4 4 0 0 1-1.65.31M-34.7 6h1.62v5.68h3.51V13h-5.13Zm9.31 7.12a4 4 0 0 1-1.96-.47 3.5 3.5 0 0 1-1.37-1.3 3.5 3.5 0 0 1-.5-1.85 3.5 3.5 0 0 1 .5-1.86 3.5 3.5 0 0 1 1.36-1.3 4 4 0 0 1 1.97-.47 4 4 0 0 1 1.96.47 3.5 3.5 0 0 1 1.37 1.3 3.5 3.5 0 0 1 .5 1.85 3.5 3.5 0 0 1-.5 1.86 3.5 3.5 0 0 1-1.37 1.3 4 4 0 0 1-1.96.47m0-1.38a2 2 0 0 0 1.12-.28 2 2 0 0 0 .79-.8 2.3 2.3 0 0 0 .28-1.16 2.3 2.3 0 0 0-.28-1.16 2 2 0 0 0-.79-.8 2 2 0 0 0-1.12-.28 2 2 0 0 0-1.12.28 2 2 0 0 0-.78.8 2.3 2.3 0 0 0-.29 1.16 2.3 2.3 0 0 0 .28 1.16 2 2 0 0 0 .79.8 2 2 0 0 0 1.12.28m8.16 1.38a3.2 3.2 0 0 1-2.33-.83 3.2 3.2 0 0 1-.84-2.37V6h1.62v3.86q0 1.88 1.56 1.88a1.5 1.5 0 0 0 1.16-.46 2 2 0 0 0 .4-1.42V6h1.6v3.92a3.2 3.2 0 0 1-.83 2.37 3.2 3.2 0 0 1-2.34.83M-12.46 6h3.18a4.5 4.5 0 0 1 2.01.44 3.3 3.3 0 0 1 1.36 1.22 3.5 3.5 0 0 1 .49 1.84 3.5 3.5 0 0 1-.49 1.84 3.3 3.3 0 0 1-1.36 1.23 4.5 4.5 0 0 1-2.02.43h-3.18Zm3.1 5.67a2.4 2.4 0 0 0 1.67-.58 2 2 0 0 0 .63-1.59 2 2 0 0 0-.63-1.58 2.4 2.4 0 0 0-1.67-.59h-1.49v4.34ZM.92 13.12a6 6 0 0 1-1.61-.22 4 4 0 0 1-1.25-.58l.55-1.22a4 4 0 0 0 1.07.53 4 4 0 0 0 1.24.2 2 2 0 0 0 1.02-.2.6.6 0 0 0 .33-.55.5.5 0 0 0-.19-.41 2 2 0 0 0-.5-.27q-.3-.1-.83-.22a11 11 0 0 1-1.3-.38 2 2 0 0 1-.88-.61 1.7 1.7 0 0 1-.37-1.12 2 2 0 0 1 .33-1.1 2 2 0 0 1 1-.78 4 4 0 0 1 1.63-.3 5 5 0 0 1 1.31.17 4 4 0 0 1 1.12.44l-.5 1.23a4 4 0 0 0-1.94-.55 2 2 0 0 0-1 .22.7.7 0 0 0-.32.58.6.6 0 0 0 .36.54 6 6 0 0 0 1.15.34 11 11 0 0 1 1.3.38 2 2 0 0 1 .88.6 1.6 1.6 0 0 1 .37 1.11 2 2 0 0 1-.33 1.1 2.3 2.3 0 0 1-1 .78 4 4 0 0 1-1.64.29m9.5-1.42V13H5V6h5.29v1.3H6.61v1.52h3.26v1.26H6.62v1.62Zm5.75 1.3-1.35-1.95h-1.5V13h-1.61V6h3.02a4 4 0 0 1 1.62.31 2.4 2.4 0 0 1 1.06.88 2.4 2.4 0 0 1 .36 1.35 2.3 2.3 0 0 1-1.44 2.21L17.92 13Zm-.03-4.46a1.1 1.1 0 0 0-.38-.9 1.7 1.7 0 0 0-1.12-.32h-1.32v2.44h1.32a1.7 1.7 0 0 0 1.11-.32 1.1 1.1 0 0 0 .38-.9M25.8 6l-3.03 7h-1.6l-3.02-7h1.75l2.13 5 2.16-5Zm.58 0H28v7h-1.62Zm6.63 7.12a4 4 0 0 1-1.93-.46 3.5 3.5 0 0 1-1.36-1.3 3.6 3.6 0 0 1-.5-1.86 3.6 3.6 0 0 1 .5-1.86 3.5 3.5 0 0 1 1.36-1.3 4.3 4.3 0 0 1 3.58-.14 3 3 0 0 1 1.24.92l-1.05.96a2.2 2.2 0 0 0-1.76-.82 2.3 2.3 0 0 0-1.16.28 2 2 0 0 0-.8.8 2.5 2.5 0 0 0 0 2.33 2 2 0 0 0 .8.8 2.3 2.3 0 0 0 1.16.28 2.2 2.2 0 0 0 1.76-.83l1.04.96a3 3 0 0 1-1.24.93 4 4 0 0 1-1.64.31m9.4-1.42V13h-5.42V6h5.29v1.3H38.6v1.52h3.25v1.26H38.6v1.62Z" transform="translate(590 272.013)"/><path id="Path_5104" fill="#32cd32" d="M-26.83-7a4 4 0 0 1 1.62.31 2.4 2.4 0 0 1 1.05.88 2.4 2.4 0 0 1 .37 1.35 2.4 2.4 0 0 1-.37 1.34 2.4 2.4 0 0 1-1.05.88 4 4 0 0 1-1.62.3h-1.41V0h-1.62v-7Zm-.09 3.75a1.7 1.7 0 0 0 1.11-.31 1.1 1.1 0 0 0 .38-.9 1.1 1.1 0 0 0-.38-.9 1.7 1.7 0 0 0-1.11-.31h-1.32v2.42Zm7.77 3.37a4 4 0 0 1-1.96-.47 3.5 3.5 0 0 1-1.37-1.3 3.5 3.5 0 0 1-.5-1.85 3.5 3.5 0 0 1 .5-1.85 3.5 3.5 0 0 1 1.37-1.3 4 4 0 0 1 1.96-.47 4 4 0 0 1 1.96.47 3.5 3.5 0 0 1 1.37 1.3 3.5 3.5 0 0 1 .5 1.85 3.5 3.5 0 0 1-.5 1.85 3.5 3.5 0 0 1-1.37 1.3 4 4 0 0 1-1.96.47m0-1.38a2 2 0 0 0 1.12-.28 2 2 0 0 0 .79-.8 2.3 2.3 0 0 0 .28-1.16 2.3 2.3 0 0 0-.28-1.16 2 2 0 0 0-.79-.8 2 2 0 0 0-1.12-.28 2 2 0 0 0-1.12.28 2 2 0 0 0-.79.8 2.3 2.3 0 0 0-.28 1.16 2.3 2.3 0 0 0 .28 1.16 2 2 0 0 0 .79.8 2 2 0 0 0 1.12.28M-3.75-7l-2.29 7h-1.74l-1.54-4.74L-10.91 0h-1.73l-2.3-7h1.68l1.58 4.92L-10.03-7h1.5l1.6 4.96L-5.3-7Zm6.32 5.7V0h-5.42v-7h5.29v1.3h-3.68v1.52h3.25v1.26h-3.25v1.62ZM8.32 0 6.97-1.95H5.48V0H3.86v-7h3.03a4 4 0 0 1 1.62.31 2.4 2.4 0 0 1 1.05.88 2.4 2.4 0 0 1 .37 1.35 2.4 2.4 0 0 1-.38 1.34 2.4 2.4 0 0 1-1.06.87L10.06 0Zm-.03-4.46a1.1 1.1 0 0 0-.38-.9 1.7 1.7 0 0 0-1.11-.32H5.48v2.44H6.8a1.7 1.7 0 0 0 1.11-.32 1.1 1.1 0 0 0 .38-.9m4.54-1.24v1.85h3.24v1.3h-3.24V0h-1.62v-7h5.29v1.3ZM20.71.12a3.2 3.2 0 0 1-2.33-.83 3.2 3.2 0 0 1-.84-2.37V-7h1.62v3.86q0 1.88 1.56 1.88a1.5 1.5 0 0 0 1.16-.46 2 2 0 0 0 .4-1.42V-7h1.6v3.92a3.2 3.2 0 0 1-.83 2.37 3.2 3.2 0 0 1-2.34.83M25.48-7h1.62v5.68h3.51V0h-5.13Zm-56.35 18.5h-3.26l-.61 1.5h-1.66l3.12-7h1.6l3.13 7h-1.7Zm-.52-1.23-1.11-2.68-1.11 2.68Zm6.52 2.85a3.2 3.2 0 0 1-2.33-.83 3.2 3.2 0 0 1-.84-2.37V6h1.62v3.86q0 1.88 1.56 1.88a1.5 1.5 0 0 0 1.16-.46 2 2 0 0 0 .4-1.42V6h1.6v3.92a3.2 3.2 0 0 1-.83 2.37 3.2 3.2 0 0 1-2.33.83m6.1-5.8H-21V6h6.1v1.32h-2.24V13h-1.62Zm8.02 5.8a4 4 0 0 1-1.96-.47 3.5 3.5 0 0 1-1.37-1.3 3.5 3.5 0 0 1-.5-1.85 3.5 3.5 0 0 1 .5-1.85 3.5 3.5 0 0 1 1.37-1.3 4 4 0 0 1 1.97-.47 4 4 0 0 1 1.95.47 3.5 3.5 0 0 1 1.37 1.3 3.5 3.5 0 0 1 .5 1.85 3.5 3.5 0 0 1-.5 1.86 3.5 3.5 0 0 1-1.37 1.3 4 4 0 0 1-1.95.46m0-1.38a2 2 0 0 0 1.12-.29 2 2 0 0 0 .79-.8 2.3 2.3 0 0 0 .29-1.15 2.3 2.3 0 0 0-.29-1.16 2 2 0 0 0-.78-.8 2 2 0 0 0-1.13-.28 2 2 0 0 0-1.12.28 2 2 0 0 0-.78.8 2.3 2.3 0 0 0-.29 1.16 2.3 2.3 0 0 0 .29 1.16 2 2 0 0 0 .78.8 2 2 0 0 0 1.13.28M.68 13 .66 8.8l-2.06 3.46h-.73l-2.05-3.37V13H-5.7V6h1.34l2.62 4.35L.85 6h1.32l.02 7Zm7.79-1.5H5.2L4.6 13H2.95l3.12-7h1.6l3.12 7h-1.7Zm-.52-1.23-1.1-2.68-1.11 2.68Zm4.67-2.95h-2.24V6h6.1v1.32h-2.24V13h-1.62ZM17.34 6h1.62v7h-1.62Zm6.67 7.12a4 4 0 0 1-1.96-.47 3.5 3.5 0 0 1-1.37-1.3 3.5 3.5 0 0 1-.5-1.85 3.5 3.5 0 0 1 .5-1.86 3.5 3.5 0 0 1 1.37-1.3 4.3 4.3 0 0 1 3.93 0 3.57 3.57 0 0 1 0 6.3 4 4 0 0 1-1.96.48m0-1.38a2 2 0 0 0 1.12-.28 2 2 0 0 0 .79-.8 2.5 2.5 0 0 0 0-2.32 2 2 0 0 0-.78-.8 2.3 2.3 0 0 0-2.24 0 2 2 0 0 0-.79.8 2.5 2.5 0 0 0 0 2.32 2 2 0 0 0 .79.8 2 2 0 0 0 1.12.28M35.49 6v7h-1.32l-3.5-4.25V13h-1.6V6h1.34l3.48 4.25V6Z" transform="translate(734 413.097)"/><path id="Path_5103" fill="#32cd32" d="M-22.21-11.27h6.97l-.3-1.03q-1.25-4.21-2.05-7.18t-.96-3.83l-.17-.86a122 122 0 0 1-3.19 11.87ZM-11.89 0l-1.76-5.93H-23.8L-25.56 0h-6.93l9.68-28.98h8.34L-4.79 0Zm17.5-14.62H7.8q5.25 0 5.25-4.77 0-4.3-4.86-4.3H5.6Zm-6.62-14.36h9.98a11.2 11.2 0 0 1 7.8 2.7 8.9 8.9 0 0 1 2.98 6.89 9.1 9.1 0 0 1-3.1 7.39 11.5 11.5 0 0 1-7.68 2.63H5.6V0H-1ZM23.63 0v-28.98h6.62V0Z" transform="translate(734 382)"/><path id="Path_5102" fill="#535353" d="M-25.5.12a4 4 0 0 1-1.96-.47 3.5 3.5 0 0 1-1.37-1.3 3.5 3.5 0 0 1-.5-1.85 3.5 3.5 0 0 1 .5-1.85 3.5 3.5 0 0 1 1.36-1.3 4 4 0 0 1 1.97-.47 4 4 0 0 1 1.96.47 3.5 3.5 0 0 1 1.37 1.3 3.5 3.5 0 0 1 .5 1.85 3.5 3.5 0 0 1-.5 1.86 3.5 3.5 0 0 1-1.37 1.29 4 4 0 0 1-1.96.47m0-1.38a2 2 0 0 0 1.12-.28 2 2 0 0 0 .79-.8 2.3 2.3 0 0 0 .28-1.16 2.3 2.3 0 0 0-.28-1.16 2 2 0 0 0-.79-.8 2 2 0 0 0-1.12-.28 2 2 0 0 0-1.12.28 2 2 0 0 0-.78.8 2.3 2.3 0 0 0-.29 1.16 2.3 2.3 0 0 0 .29 1.16 2 2 0 0 0 .79.8 2 2 0 0 0 1.11.28M-17.42-7a4 4 0 0 1 1.62.31 2.4 2.4 0 0 1 1.05.88 2.4 2.4 0 0 1 .37 1.35 2.4 2.4 0 0 1-.37 1.34 2.4 2.4 0 0 1-1.06.88 4 4 0 0 1-1.61.3h-1.41V0h-1.62v-7Zm-.09 3.75a1.7 1.7 0 0 0 1.11-.31 1.1 1.1 0 0 0 .38-.9 1.1 1.1 0 0 0-.38-.9 1.7 1.7 0 0 0-1.11-.31h-1.32v2.42Zm5.54-2.43h-2.24V-7h6.1v1.32h-2.24V0h-1.62ZM-7.24-7h1.62v7h-1.62Zm9.65 7L2.4-4.2.34-.74h-.73l-2.05-3.37V0h-1.52v-7h1.34L0-2.65 2.58-7h1.33l.02 7Zm3.18-7h1.62v7H5.59Zm8.95 5.68V0H8.42v-1.05l3.84-4.63H8.5V-7h5.89v1.05l-3.83 4.63ZM21-1.3V0h-5.42v-7h5.29v1.3h-3.68v1.52h3.25v1.26h-3.25v1.62ZM22.29-7h3.18a4.5 4.5 0 0 1 2.02.44 3.3 3.3 0 0 1 1.36 1.22 3.5 3.5 0 0 1 .48 1.84 3.5 3.5 0 0 1-.48 1.84 3.3 3.3 0 0 1-1.37 1.23 4.5 4.5 0 0 1-2.01.43h-3.18Zm3.1 5.67a2.4 2.4 0 0 0 1.68-.58 2 2 0 0 0 .62-1.59 2 2 0 0 0-.62-1.58 2.4 2.4 0 0 0-1.68-.59h-1.48v4.34ZM-40.42 7.3v1.85h3.24v1.3h-3.24V13h-1.62V6h5.29v1.3Zm8.09 5.82a4 4 0 0 1-1.97-.47 3.5 3.5 0 0 1-1.37-1.3 3.5 3.5 0 0 1-.5-1.85 3.5 3.5 0 0 1 .5-1.85 3.5 3.5 0 0 1 1.37-1.3 4 4 0 0 1 1.96-.47 4 4 0 0 1 1.97.47A3.5 3.5 0 0 1-29 7.65a3.5 3.5 0 0 1 .5 1.85 3.5 3.5 0 0 1-.5 1.86 3.5 3.5 0 0 1-1.37 1.3 4 4 0 0 1-1.96.46m0-1.38a2 2 0 0 0 1.12-.29 2 2 0 0 0 .78-.8 2.3 2.3 0 0 0 .29-1.16 2.3 2.3 0 0 0-.29-1.16 2 2 0 0 0-.78-.8 2 2 0 0 0-1.12-.28 2 2 0 0 0-1.12.28 2 2 0 0 0-.79.8 2.3 2.3 0 0 0-.28 1.16 2.3 2.3 0 0 0 .28 1.16 2 2 0 0 0 .79.8 2 2 0 0 0 1.12.29m9.5 1.26-1.34-1.95h-1.5V13h-1.61V6h3.03a4 4 0 0 1 1.61.31 2.4 2.4 0 0 1 1.06.88 2.4 2.4 0 0 1 .37 1.35 2.4 2.4 0 0 1-.38 1.35 2.4 2.4 0 0 1-1.06.86l1.57 2.25Zm-.02-4.46a1.1 1.1 0 0 0-.38-.9 1.7 1.7 0 0 0-1.11-.32h-1.32v2.44h1.32a1.7 1.7 0 0 0 1.1-.32 1.1 1.1 0 0 0 .38-.9m9.14 4.58a4 4 0 0 1-1.97-.47 3.5 3.5 0 0 1-1.37-1.3 3.5 3.5 0 0 1-.5-1.86 3.5 3.5 0 0 1 .5-1.85 3.5 3.5 0 0 1 1.37-1.3 4 4 0 0 1 1.97-.47 4 4 0 0 1 1.96.47 3.5 3.5 0 0 1 1.37 1.3 3.5 3.5 0 0 1 .5 1.85 3.5 3.5 0 0 1-.5 1.86 3.5 3.5 0 0 1-1.37 1.3 4 4 0 0 1-1.96.47m0-1.38a2 2 0 0 0 1.12-.29 2 2 0 0 0 .78-.8 2.3 2.3 0 0 0 .29-1.16 2.3 2.3 0 0 0-.29-1.16 2 2 0 0 0-.78-.8 2 2 0 0 0-1.12-.28 2 2 0 0 0-1.12.28 2 2 0 0 0-.79.8 2.3 2.3 0 0 0-.28 1.17 2.3 2.3 0 0 0 .28 1.16 2 2 0 0 0 .79.8 2 2 0 0 0 1.12.28M-5.63 6a4 4 0 0 1 1.61.31 2.4 2.4 0 0 1 1.06.88 2.4 2.4 0 0 1 .37 1.35 2.4 2.4 0 0 1-.37 1.35 2.4 2.4 0 0 1-1.06.87 4 4 0 0 1-1.61.3h-1.41V13h-1.62V6Zm-.1 3.75a1.7 1.7 0 0 0 1.12-.31 1.1 1.1 0 0 0 .38-.9 1.1 1.1 0 0 0-.38-.9 1.7 1.7 0 0 0-1.11-.31h-1.32v2.42Zm9.7 1.95V13h-5.42V6h5.3v1.3H.16v1.52h3.25v1.26H.17v1.62ZM11.7 6v7h-1.33l-3.5-4.25V13h-1.6V6h1.35l3.48 4.25V6Zm3.96 7.12a6 6 0 0 1-1.61-.22 4 4 0 0 1-1.25-.58l.55-1.22a4 4 0 0 0 1.07.53 4 4 0 0 0 1.24.2 2 2 0 0 0 1.02-.2.6.6 0 0 0 .33-.56.5.5 0 0 0-.2-.41 2 2 0 0 0-.5-.27q-.3-.1-.82-.22a11 11 0 0 1-1.31-.38 2 2 0 0 1-.87-.61 1.7 1.7 0 0 1-.37-1.12 2 2 0 0 1 .33-1.1 2 2 0 0 1 1-.79 4 4 0 0 1 1.62-.29 5 5 0 0 1 1.31.16 4 4 0 0 1 1.12.46l-.5 1.23a4 4 0 0 0-1.94-.55 2 2 0 0 0-1 .22.7.7 0 0 0-.33.58.6.6 0 0 0 .38.54 6 6 0 0 0 1.14.35 11 11 0 0 1 1.31.38 2 2 0 0 1 .87.6 1.6 1.6 0 0 1 .37 1.1 2 2 0 0 1-.34 1.1 2.3 2.3 0 0 1-1 .79 4 4 0 0 1-1.62.28M26.15 6v7h-1.62v-2.87h-3.19V13h-1.62V6h1.62v2.76h3.18V6Zm1.65 0h1.62v7H27.8Zm4.9 1.3v1.85h3.24v1.3H32.7V13h-1.62V6h5.29v1.3Zm6.27.02h-2.24V6h6.1v1.32H40.6V13h-1.62Z" transform="translate(590 413.097)"/><path id="Path_5101" fill="#195f8c" d="M-1.01-7v7h-1.33l-3.49-4.25V0h-1.6v-7h1.34l3.48 4.25V-7ZM4.04.12a4 4 0 0 1-1.96-.47A3.5 3.5 0 0 1 .7-1.65 3.5 3.5 0 0 1 .21-3.5 3.5 3.5 0 0 1 .7-5.36a3.5 3.5 0 0 1 1.37-1.3 4 4 0 0 1 1.97-.46A4 4 0 0 1 6-6.65a3.5 3.5 0 0 1 1.37 1.3 3.5 3.5 0 0 1 .5 1.85 3.5 3.5 0 0 1-.5 1.86A3.5 3.5 0 0 1 6-.35a4 4 0 0 1-1.96.47m0-1.38a2 2 0 0 0 1.12-.28 2 2 0 0 0 .79-.8 2.3 2.3 0 0 0 .28-1.16 2.3 2.3 0 0 0-.28-1.16 2 2 0 0 0-.79-.8 2 2 0 0 0-1.12-.28 2 2 0 0 0-1.12.28 2 2 0 0 0-.78.8 2.3 2.3 0 0 0-.29 1.16 2.3 2.3 0 0 0 .28 1.16 2 2 0 0 0 .79.8 2 2 0 0 0 1.12.28M-21.14 6h1.62v5.68h3.5V13h-5.13Zm9.3 7.12a4 4 0 0 1-1.96-.47 3.5 3.5 0 0 1-1.37-1.3 3.5 3.5 0 0 1-.5-1.85 3.5 3.5 0 0 1 .5-1.85 3.5 3.5 0 0 1 1.37-1.3 4 4 0 0 1 1.97-.47 4 4 0 0 1 1.95.47 3.5 3.5 0 0 1 1.38 1.3A3.5 3.5 0 0 1-8 9.5a3.5 3.5 0 0 1-.5 1.86 3.5 3.5 0 0 1-1.37 1.3 4 4 0 0 1-1.97.46m0-1.38a2 2 0 0 0 1.13-.28 2 2 0 0 0 .78-.8 2.3 2.3 0 0 0 .29-1.16 2.3 2.3 0 0 0-.29-1.16 2 2 0 0 0-.78-.8 2 2 0 0 0-1.12-.28 2 2 0 0 0-1.13.28 2 2 0 0 0-.78.8 2.3 2.3 0 0 0-.29 1.16 2.3 2.3 0 0 0 .29 1.16 2 2 0 0 0 .78.8 2 2 0 0 0 1.13.28m8.4 1.38a4 4 0 0 1-1.93-.46 3.5 3.5 0 0 1-1.36-1.3 3.6 3.6 0 0 1-.5-1.86 3.6 3.6 0 0 1 .5-1.86 3.5 3.5 0 0 1 1.36-1.3 4 4 0 0 1 1.95-.46 4 4 0 0 1 1.64.32 3 3 0 0 1 1.24.92l-1.04.96a2.2 2.2 0 0 0-1.76-.82 2.3 2.3 0 0 0-1.16.28 2 2 0 0 0-.8.8 2.3 2.3 0 0 0-.29 1.16 2.3 2.3 0 0 0 .29 1.16 2 2 0 0 0 .8.8 2.3 2.3 0 0 0 1.16.28 2.2 2.2 0 0 0 1.76-.82l1.04.96a3 3 0 0 1-1.24.92 4 4 0 0 1-1.65.32m6.54-2.87-.94.98V13H.54V6h1.62v3.27L5.26 6h1.8l-2.9 3.12L7.22 13H5.35Zm4.18-.69h2.82v1.25H7.28ZM11.45 6h1.62v7h-1.62Zm9.7 0v7h-1.33l-3.5-4.25V13h-1.6V6h1.34l3.48 4.25V6Z" transform="translate(734 272.109)"/></g><g id="Group_3" transform="translate(0 141)"><path id="code-solid" fill="#3c9bcd" d="m27.76 50.99-6.08-1.77a1.2 1.2 0 0 1-.81-1.48L34.47.9a1.2 1.2 0 0 1 1.48-.82l6.08 1.77a1.2 1.2 0 0 1 .81 1.48l-13.6 46.84a1.2 1.2 0 0 1-1.48.82M16.4 39.8l4.33-4.62a1.2 1.2 0 0 0-.08-1.71l-9.02-7.94 9.03-7.94a1.2 1.2 0 0 0 .08-1.71l-4.34-4.63a1.2 1.2 0 0 0-1.7-.05L.37 24.66a1.2 1.2 0 0 0 0 1.74L14.7 39.86a1.2 1.2 0 0 0 1.7-.05Zm32.6.06L63.35 26.4a1.2 1.2 0 0 0 0-1.74L49 11.2a1.2 1.2 0 0 0-1.7.05l-4.33 4.62a1.2 1.2 0 0 0 .08 1.72l9.03 7.94-9.03 7.94a1.2 1.2 0 0 0-.08 1.72l4.34 4.62a1.2 1.2 0 0 0 1.69.06" transform="translate(414.645 199.963)"/></g><g id="Norway" transform="translate(552.729 160.317)"><g id="Sweden" transform="translate(13 54.016)"><path id="Path_289" fill="#039" d="M3 0h42.54a3 3 0 0 1 3 3v24.99a3 3 0 0 1-3 3H3a3 3 0 0 1-3-3V3a3 3 0 0 1 3-3" transform="translate(.271 -.43)"/><path id="Polygon_19" fill="#ffd800" d="m2 0 .5 1.49 1.5.04-1.2.96L3.25 4 2 3.1.76 4l.43-1.51L0 1.53l1.5-.04Z" transform="translate(30.271 17.57)"/><path id="Polygon_20" fill="#ffd800" d="m2 0 .5 1.49 1.5.04-1.2.96L3.25 4 2 3.1.76 4l.43-1.51L0 1.53l1.5-.04Z" transform="translate(31.271 7.57)"/><path id="Polygon_21" fill="#ffd800" d="m2 0 .5 1.49 1.5.04-1.2.96L3.25 4 2 3.1.76 4l.43-1.51L0 1.53l1.5-.04Z" transform="translate(32.271 12.57)"/><path id="Polygon_22" fill="#ffd800" d="m2 0 .5 1.49 1.5.04-1.2.96L3.25 4 2 3.1.76 4l.43-1.51L0 1.53l1.5-.04Z" transform="translate(27.271 3.57)"/><path id="Polygon_23" fill="#ffd800" d="m2 0 .5 1.49 1.5.04-1.2.96L3.25 4 2 3.1.76 4l.43-1.51L0 1.53l1.5-.04Z" transform="translate(27.271 21.57)"/><path id="Polygon_24" fill="#ffd800" d="m2 0 .5 1.49 1.5.04-1.2.96L3.25 4 2 3.1.76 4l.43-1.51L0 1.53l1.5-.04Z" transform="translate(22.271 22.57)"/><path id="Polygon_25" fill="#ffd800" d="m2 0 .5 1.49 1.5.04-1.2.96L3.25 4 2 3.1.76 4l.43-1.51L0 1.53l1.5-.04Z" transform="translate(17.271 21.57)"/><path id="Polygon_26" fill="#ffd800" d="m2 0 .5 1.49 1.5.04-1.2.96L3.25 4 2 3.1.76 4l.43-1.51L0 1.53l1.5-.04Z" transform="translate(13.271 7.57)"/><path id="Polygon_27" fill="#ffd800" d="m2 0 .5 1.49 1.5.04-1.2.96L3.25 4 2 3.1.76 4l.43-1.51L0 1.53l1.5-.04Z" transform="translate(13.271 17.57)"/><path id="Polygon_28" fill="#ffd800" d="m2 0 .5 1.49 1.5.04-1.2.96L3.25 4 2 3.1.76 4l.43-1.51L0 1.53l1.5-.04Z" transform="translate(12.271 12.57)"/><path id="Polygon_29" fill="#ffd800" d="m2 0 .5 1.49 1.5.04-1.2.96L3.25 4 2 3.1.76 4l.43-1.51L0 1.53l1.5-.04Z" transform="translate(17.271 3.57)"/><path id="Polygon_30" fill="#ffd800" d="m2 0 .5 1.49 1.5.04-1.2.96L3.25 4 2 3.1.76 4l.43-1.51L0 1.53l1.5-.04Z" transform="translate(22.271 2.57)"/></g></g><g id="OpenShift-LogoType" transform="translate(560 342.53)"><path id="path44560" fill="#c22133" d="M54.23 11.99a23 23 0 0 0-2-3.4l-8.21 2.99a15 15 0 0 1 2.41 3.25Zm-36.3 9.08L9.7 24.06a24 24 0 0 0 .65 3.9l7.8-2.85a15 15 0 0 1-.24-4.04"/><path id="path44564" fill="#db212e" d="M36.16 9.66a15 15 0 0 1 4.43 3.16l8.22-2.99A23.48 23.48 0 0 0 6.29 25.3l8.22-2.99A15.22 15.22 0 0 1 36.16 9.66"/><path id="path44572" fill="#db212e" d="M44.92 24.67a15 15 0 0 1-1.38 5.27 15.3 15.3 0 0 1-20.28 7.38 15 15 0 0 1-4.45-3.15l-8.2 2.98A23.46 23.46 0 0 0 51 33.42a23 23 0 0 0 2.12-11.73z"/><path id="path44576" fill="#eb2126" d="m46.94 14.64-7.8 2.84a15.3 15.3 0 0 1 1.9 8.6l8.2-2.98a24 24 0 0 0-2.3-8.46M10.88 27.77l-7.8 2.84a24 24 0 0 0 3.67 7.95l8.2-2.98a15.3 15.3 0 0 1-4.06-7.81"/><path id="path44584" fill="#ad213b" d="M53.04 9.82a23 23 0 0 0-.82-1.23l-8.2 2.99a15 15 0 0 1 1 1.16Zm-35.15 12.9a15 15 0 0 1 .03-1.65l-8.21 2.99q.06.8.19 1.57z"/><path id="path44588" fill="#ba2133" d="m53.11 21.69-8.2 2.98a15 15 0 0 1-.7 3.52l8.93-3.25a24 24 0 0 0-.03-3.25M10.6 37.15a23 23 0 0 0 2.09 2.54l8.92-3.25a15 15 0 0 1-2.81-2.27Z"/></g></g></g></svg>