<svg xmlns="http://www.w3.org/2000/svg" xmlns:xlink="http://www.w3.org/1999/xlink" width="432" height="285" viewBox="0 0 432 285"><defs><filter id="Path_295" width="144" height="144" x="0" y="0" filterUnits="userSpaceOnUse"><feOffset dy="3"/><feGaussianBlur result="blur" stdDeviation="3"/><feFlood flood-opacity="0.161"/><feComposite in2="blur" operator="in"/><feComposite in="SourceGraphic"/></filter><filter id="Path_294" width="144" height="144" x="288" y="141" filterUnits="userSpaceOnUse"><feOffset dy="3"/><feGaussianBlur result="blur-2" stdDeviation="3"/><feFlood flood-opacity="0.161"/><feComposite in2="blur-2" operator="in"/><feComposite in="SourceGraphic"/></filter><filter id="Path_293" width="144" height="144" x="144" y="0" filterUnits="userSpaceOnUse"><feOffset dy="3"/><feGaussianBlur result="blur-3" stdDeviation="3"/><feFlood flood-opacity="0.161"/><feComposite in2="blur-3" operator="in"/><feComposite in="SourceGraphic"/></filter><filter id="Path_292" width="144" height="144" x="0" y="141" filterUnits="userSpaceOnUse"><feOffset dy="3"/><feGaussianBlur result="blur-4" stdDeviation="3"/><feFlood flood-opacity="0.161"/><feComposite in2="blur-4" operator="in"/><feComposite in="SourceGraphic"/></filter><filter id="Path_291" width="144" height="144" x="144" y="141" filterUnits="userSpaceOnUse"><feOffset dy="3"/><feGaussianBlur result="blur-5" stdDeviation="3"/><feFlood flood-opacity="0.161"/><feComposite in2="blur-5" operator="in"/><feComposite in="SourceGraphic"/></filter><clipPath id="clip-path"><path id="Rectangle_6" fill="#32cd32" d="M0 0h51v51H0z" transform="translate(709 200)"/></clipPath><filter id="Path_290" width="144" height="144" x="288" y="0" filterUnits="userSpaceOnUse"><feOffset dy="3"/><feGaussianBlur result="blur-6" stdDeviation="3"/><feFlood flood-opacity="0.161"/><feComposite in2="blur-6" operator="in"/><feComposite in="SourceGraphic"/></filter></defs><g id="Key_points" transform="translate(-89 -82)"><g id="Compute" transform="translate(-285 -92)"><g filter="url(#Path_295)" transform="translate(374 174)"><path id="Path_295-2" fill="#fff" d="M7 0h112a7 7 0 0 1 7 7v112a7 7 0 0 1-7 7H7a7 7 0 0 1-7-7V7a7 7 0 0 1 7-7" transform="translate(9 6)"/></g><g filter="url(#Path_294)" transform="translate(374 174)"><path id="Path_294-2" fill="#fff" d="M7 0h112a7 7 0 0 1 7 7v112a7 7 0 0 1-7 7H7a7 7 0 0 1-7-7V7a7 7 0 0 1 7-7" transform="translate(297 147)"/></g><g filter="url(#Path_293)" transform="translate(374 174)"><path id="Path_293-2" fill="#fff" d="M7 0h112a7 7 0 0 1 7 7v112a7 7 0 0 1-7 7H7a7 7 0 0 1-7-7V7a7 7 0 0 1 7-7" transform="translate(153 6)"/></g><g filter="url(#Path_292)" transform="translate(374 174)"><path id="Path_292-2" fill="#fff" d="M7 0h112a7 7 0 0 1 7 7v112a7 7 0 0 1-7 7H7a7 7 0 0 1-7-7V7a7 7 0 0 1 7-7" transform="translate(9 147)"/></g><g filter="url(#Path_291)" transform="translate(374 174)"><path id="Path_291-2" fill="#fff" d="M7 0h112a7 7 0 0 1 7 7v112a7 7 0 0 1-7 7H7a7 7 0 0 1-7-7V7a7 7 0 0 1 7-7" transform="translate(153 147)"/></g><g id="Mask_Group_3" clip-path="url(#clip-path)" transform="translate(-287.5 -1.007)"><path id="user-lock-solid" fill="#32cd32" d="M17.85 20.4a10.2 10.2 0 1 0-10.2-10.2 10.2 10.2 0 0 0 10.2 10.2m7.65 5.1a5 5 0 0 1 .65-2.43 11 11 0 0 0-1.16-.12h-1.33a14 14 0 0 1-11.62 0h-1.33A10.7 10.7 0 0 0 0 33.65v3.33a3.83 3.83 0 0 0 3.83 3.82H26.2a5 5 0 0 1-.71-2.55Zm22.95-2.55H45.9v-6.37a6.38 6.38 0 1 0-12.75 0v6.37H30.6a2.55 2.55 0 0 0-2.55 2.55v12.75a2.55 2.55 0 0 0 2.55 2.55h17.85A2.55 2.55 0 0 0 51 38.25V25.5a2.55 2.55 0 0 0-2.55-2.55m-8.93 11.47a2.55 2.55 0 1 1 2.55-2.55 2.55 2.55 0 0 1-2.55 2.55m2.55-11.47h-5.1v-6.37a2.55 2.55 0 0 1 5.1 0Z" transform="translate(709 205.1)"/></g><g filter="url(#Path_290)" transform="translate(374 174)"><path id="Path_290-2" fill="#fff" d="M7 0h112a7 7 0 0 1 7 7v112a7 7 0 0 1-7 7H7a7 7 0 0 1-7-7V7a7 7 0 0 1 7-7" transform="translate(297 6)"/></g><path id="Path_301" fill="#32cd32" d="M-11.12-3.61h1.47v2.84a4 4 0 0 1-1.31.66 5 5 0 0 1-1.51.23 4 4 0 0 1-1.96-.46 3.5 3.5 0 0 1-1.37-1.3 3.6 3.6 0 0 1-.5-1.86 3.6 3.6 0 0 1 .5-1.86 3.5 3.5 0 0 1 1.38-1.3 4 4 0 0 1 1.97-.46 4 4 0 0 1 1.67.31 3 3 0 0 1 1.26.9l-1.04.96a2.4 2.4 0 0 0-1.8-.79 2.5 2.5 0 0 0-1.2.28 2 2 0 0 0-.8.79 2.3 2.3 0 0 0-.3 1.17 2.3 2.3 0 0 0 .3 1.16 2 2 0 0 0 .8.8 2.4 2.4 0 0 0 1.18.28 2.6 2.6 0 0 0 1.26-.3ZM-8.15-7h3.19a4.5 4.5 0 0 1 2.01.44 3.3 3.3 0 0 1 1.36 1.22A3.5 3.5 0 0 1-1.1-3.5a3.5 3.5 0 0 1-.49 1.84A3.3 3.3 0 0 1-2.95-.44 4.5 4.5 0 0 1-4.96 0h-3.18Zm3.1 5.67a2.4 2.4 0 0 0 1.68-.58 2 2 0 0 0 .63-1.59 2 2 0 0 0-.63-1.58 2.4 2.4 0 0 0-1.67-.59h-1.48v4.34ZM3.15-7a4 4 0 0 1 1.61.31 2.4 2.4 0 0 1 1.06.88 2.4 2.4 0 0 1 .36 1.35 2.4 2.4 0 0 1-.37 1.34 2.4 2.4 0 0 1-1.05.88 4 4 0 0 1-1.61.3H1.73V0H.12v-7Zm-.1 3.75a1.7 1.7 0 0 0 1.12-.31 1.1 1.1 0 0 0 .38-.9 1.1 1.1 0 0 0-.38-.9 1.7 1.7 0 0 0-1.11-.31H1.73v2.42ZM11.8 0l-1.36-1.95H8.97V0H7.33v-7h3.03a4 4 0 0 1 1.62.31 2.4 2.4 0 0 1 1.06.88 2.4 2.4 0 0 1 .37 1.35 2.4 2.4 0 0 1-.38 1.34 2.4 2.4 0 0 1-1.06.87L13.53 0Zm-.04-4.46a1.1 1.1 0 0 0-.37-.9 1.7 1.7 0 0 0-1.12-.31h-1.3v2.43h1.31a1.7 1.7 0 0 0 1.12-.32 1.1 1.1 0 0 0 .38-.9m-39.4 17.58a4 4 0 0 1-1.93-.47 3.5 3.5 0 0 1-1.36-1.29 3.6 3.6 0 0 1-.5-1.86 3.6 3.6 0 0 1 .5-1.87 3.5 3.5 0 0 1 1.36-1.29 4 4 0 0 1 1.95-.46 4 4 0 0 1 1.64.32 3 3 0 0 1 1.24.92l-1.04.96a2.2 2.2 0 0 0-1.76-.82 2.3 2.3 0 0 0-1.16.28 2 2 0 0 0-.8.8 2.3 2.3 0 0 0-.29 1.16 2.3 2.3 0 0 0 .28 1.16 2 2 0 0 0 .8.8 2.3 2.3 0 0 0 1.17.29 2.2 2.2 0 0 0 1.76-.83l1.04.96a3 3 0 0 1-1.24.93 4 4 0 0 1-1.66.31m7.23 0a4 4 0 0 1-1.97-.47 3.5 3.5 0 0 1-1.37-1.3 3.5 3.5 0 0 1-.5-1.86 3.5 3.5 0 0 1 .5-1.85 3.5 3.5 0 0 1 1.37-1.3 4 4 0 0 1 1.97-.47 4 4 0 0 1 1.96.47 3.5 3.5 0 0 1 1.37 1.3 3.5 3.5 0 0 1 .5 1.85 3.5 3.5 0 0 1-.5 1.86 3.5 3.5 0 0 1-1.37 1.3 4 4 0 0 1-1.96.47m0-1.38a2 2 0 0 0 1.12-.29 2 2 0 0 0 .78-.8 2.3 2.3 0 0 0 .29-1.16 2.3 2.3 0 0 0-.29-1.16 2 2 0 0 0-.78-.8 2 2 0 0 0-1.12-.28 2 2 0 0 0-1.12.28 2 2 0 0 0-.79.8 2.3 2.3 0 0 0-.28 1.17 2.3 2.3 0 0 0 .28 1.16 2 2 0 0 0 .79.8 2 2 0 0 0 1.12.28M-9 13V8.8l-2.06 3.46h-.73l-2.06-3.37V13h-1.51V6h1.34l2.62 4.35L-8.82 6h1.33l.02 7Zm6.2-7a4 4 0 0 1 1.62.31 2.4 2.4 0 0 1 1.06.88 2.4 2.4 0 0 1 .37 1.35 2.4 2.4 0 0 1-.37 1.35 2.4 2.4 0 0 1-1.06.87 4 4 0 0 1-1.61.3H-4.2V13h-1.62V6Zm-.08 3.75a1.7 1.7 0 0 0 1.1-.31 1.1 1.1 0 0 0 .39-.9 1.1 1.1 0 0 0-.38-.9 1.7 1.7 0 0 0-1.11-.31H-4.2v2.42ZM1.4 6h1.62v5.68h3.51V13H1.4Zm6.04 0h1.62v7H7.44Zm7.89 5.5h-3.25l-.62 1.5H9.8l3.12-7h1.6l3.13 7h-1.7Zm-.51-1.23-1.11-2.68-1.11 2.68ZM24.8 6v7h-1.33l-3.49-4.25V13h-1.6V6h1.34l3.48 4.25V6Zm3.11 1.32h-2.24V6h6.1v1.32h-2.24V13h-1.62Z" transform="translate(446.5 271.006)"/><path id="Path_300" fill="#fa690f" d="M-12.42.12a4 4 0 0 1-1.96-.47 3.5 3.5 0 0 1-1.37-1.3 3.5 3.5 0 0 1-.5-1.85 3.5 3.5 0 0 1 .5-1.85 3.5 3.5 0 0 1 1.37-1.3 4 4 0 0 1 1.96-.47 4 4 0 0 1 1.96.47 3.5 3.5 0 0 1 1.37 1.3 3.5 3.5 0 0 1 .5 1.85 3.5 3.5 0 0 1-.5 1.86 3.5 3.5 0 0 1-1.37 1.29 4 4 0 0 1-1.96.47m0-1.38a2 2 0 0 0 1.12-.28 2 2 0 0 0 .79-.8 2.3 2.3 0 0 0 .28-1.16 2.3 2.3 0 0 0-.28-1.16 2 2 0 0 0-.79-.8 2 2 0 0 0-1.12-.28 2 2 0 0 0-1.12.28 2 2 0 0 0-.79.8 2.3 2.3 0 0 0-.28 1.16 2.3 2.3 0 0 0 .28 1.16 2 2 0 0 0 .79.8 2 2 0 0 0 1.12.28M-4.34-7a4 4 0 0 1 1.62.31 2.4 2.4 0 0 1 1.05.88 2.4 2.4 0 0 1 .37 1.35 2.4 2.4 0 0 1-.37 1.35 2.4 2.4 0 0 1-1.05.87 4 4 0 0 1-1.62.3h-1.41V0h-1.62v-7Zm-.09 3.75a1.7 1.7 0 0 0 1.11-.31 1.1 1.1 0 0 0 .38-.9 1.1 1.1 0 0 0-.38-.9 1.7 1.7 0 0 0-1.11-.32h-1.32v2.43Zm9.7 1.95V0H-.15v-7h5.29v1.3H1.46v1.52h3.25v1.26H1.46v1.62ZM12.98-7v7h-1.33L8.16-4.25V0h-1.6v-7H7.9l3.48 4.25V-7Zm-31.9 20.12a6 6 0 0 1-1.6-.22 4 4 0 0 1-1.25-.59l.55-1.22a4 4 0 0 0 1.07.53 4 4 0 0 0 1.24.2 2 2 0 0 0 1.02-.2.6.6 0 0 0 .33-.54.5.5 0 0 0-.19-.42 2 2 0 0 0-.5-.26q-.3-.1-.83-.22a11 11 0 0 1-1.3-.38 2 2 0 0 1-.88-.62 1.7 1.7 0 0 1-.36-1.11 2 2 0 0 1 .33-1.1 2 2 0 0 1 1-.79 4 4 0 0 1 1.62-.29 5 5 0 0 1 1.31.16 4 4 0 0 1 1.12.46l-.5 1.23a4 4 0 0 0-1.94-.55 2 2 0 0 0-1 .22.7.7 0 0 0-.33.58.6.6 0 0 0 .38.54 6 6 0 0 0 1.13.33 11 11 0 0 1 1.31.38 2 2 0 0 1 .88.6 1.6 1.6 0 0 1 .36 1.11 2 2 0 0 1-.34 1.1 2.3 2.3 0 0 1-1 .78 4 4 0 0 1-1.62.29Zm7.47 0a4 4 0 0 1-1.96-.47 3.5 3.5 0 0 1-1.37-1.3 3.5 3.5 0 0 1-.5-1.85 3.5 3.5 0 0 1 .5-1.85 3.5 3.5 0 0 1 1.37-1.3 4 4 0 0 1 1.97-.47 4 4 0 0 1 1.95.47 3.5 3.5 0 0 1 1.38 1.3 3.5 3.5 0 0 1 .5 1.85 3.5 3.5 0 0 1-.5 1.86 3.5 3.5 0 0 1-1.37 1.3 4 4 0 0 1-1.96.46Zm0-1.38a2 2 0 0 0 1.12-.28 2 2 0 0 0 .79-.8 2.3 2.3 0 0 0 .28-1.16 2.3 2.3 0 0 0-.28-1.16 2 2 0 0 0-.78-.8 2 2 0 0 0-1.12-.28 2 2 0 0 0-1.13.28 2 2 0 0 0-.78.8 2.3 2.3 0 0 0-.29 1.16 2.3 2.3 0 0 0 .29 1.16 2 2 0 0 0 .78.8 2 2 0 0 0 1.13.28Zm8.16 1.38a3.2 3.2 0 0 1-2.33-.83 3.2 3.2 0 0 1-.84-2.37V6h1.62v3.86q0 1.88 1.56 1.88a1.5 1.5 0 0 0 1.16-.46 2 2 0 0 0 .4-1.42V6h1.6v3.92a3.2 3.2 0 0 1-.83 2.37 3.2 3.2 0 0 1-2.33.83ZM5.95 13 4.6 11.05H3.1V13H1.5V6h3.03a4 4 0 0 1 1.61.31 2.4 2.4 0 0 1 1.06.88 2.4 2.4 0 0 1 .36 1.35 2.3 2.3 0 0 1-1.43 2.21L7.68 13Zm-.03-4.46a1.1 1.1 0 0 0-.38-.9 1.7 1.7 0 0 0-1.11-.32H3.1v2.44h1.32a1.7 1.7 0 0 0 1.1-.32 1.1 1.1 0 0 0 .38-.9m6.27 4.58a4 4 0 0 1-1.94-.46 3.5 3.5 0 0 1-1.36-1.3 3.6 3.6 0 0 1-.5-1.86 3.6 3.6 0 0 1 .5-1.87 3.5 3.5 0 0 1 1.36-1.28 4 4 0 0 1 1.95-.47 4 4 0 0 1 1.64.32 3 3 0 0 1 1.24.92l-1.05.96a2.2 2.2 0 0 0-1.75-.82 2.3 2.3 0 0 0-1.16.28 2 2 0 0 0-.8.8 2.5 2.5 0 0 0 0 2.33 2 2 0 0 0 .8.8 2.3 2.3 0 0 0 1.16.28 2.2 2.2 0 0 0 1.76-.83l1.04.96a3 3 0 0 1-1.25.93 4 4 0 0 1-1.64.31m9.4-1.42V13h-5.42V6h5.28v1.3h-3.68v1.52H21v1.26h-3.25v1.62Z" transform="translate(446 413.013)"/><path id="Path_299" fill="#195f8c" d="M-18 .12a6 6 0 0 1-1.6-.22 4 4 0 0 1-1.25-.59l.55-1.22a4 4 0 0 0 1.07.53 4 4 0 0 0 1.24.2 2 2 0 0 0 1.02-.2.6.6 0 0 0 .33-.55.5.5 0 0 0-.2-.41 2 2 0 0 0-.5-.26q-.3-.1-.82-.22a11 11 0 0 1-1.31-.39 2 2 0 0 1-.88-.6 1.7 1.7 0 0 1-.36-1.12 2 2 0 0 1 .33-1.11 2 2 0 0 1 1-.79 4 4 0 0 1 1.62-.29 5 5 0 0 1 1.31.16 4 4 0 0 1 1.12.46l-.5 1.23a4 4 0 0 0-1.94-.55 2 2 0 0 0-1 .22.7.7 0 0 0-.33.58.6.6 0 0 0 .38.54 6 6 0 0 0 1.14.35 11 11 0 0 1 1.31.37 2 2 0 0 1 .88.6 1.6 1.6 0 0 1 .36 1.11 2 2 0 0 1-.33 1.1 2.3 2.3 0 0 1-1 .78A4 4 0 0 1-18 .12M-7.19-7l-3.03 7h-1.6l-3.02-7h1.75l2.13 5 2.16-5Zm6 5.7V0h-5.42v-7h5.29v1.3H-5v1.52h3.25v1.26H-5v1.62ZM6.52-7v7H5.19L1.7-4.25V0H.1v-7h1.34l3.48 4.25V-7ZM10.48.12a6 6 0 0 1-1.6-.22 4 4 0 0 1-1.25-.59l.55-1.22a4 4 0 0 0 1.07.53 4 4 0 0 0 1.24.2 2 2 0 0 0 1.02-.2.6.6 0 0 0 .33-.55.5.5 0 0 0-.2-.41 2 2 0 0 0-.5-.26q-.3-.1-.82-.22a11 11 0 0 1-1.31-.39 2 2 0 0 1-.87-.6 1.7 1.7 0 0 1-.37-1.13 2 2 0 0 1 .33-1.1 2 2 0 0 1 1-.79 4 4 0 0 1 1.62-.29 5 5 0 0 1 1.31.16 4 4 0 0 1 1.12.46l-.5 1.23a4 4 0 0 0-1.94-.55 2 2 0 0 0-1.01.22.7.7 0 0 0-.32.58.6.6 0 0 0 .37.54 6 6 0 0 0 1.15.34 11 11 0 0 1 1.31.38 2 2 0 0 1 .88.6 1.6 1.6 0 0 1 .36 1.11 2 2 0 0 1-.33 1.1 2.3 2.3 0 0 1-1 .78 4 4 0 0 1-1.64.29m6.63-2.87-.94.98V0h-1.61v-7h1.61v3.27L19.27-7h1.8l-2.9 3.12L21.24 0h-1.89ZM-28.62 13l-.01-4.2-2.07 3.46h-.73l-2.05-3.37V13H-35V6h1.34l2.62 4.35 2.6-4.35h1.33l.02 7Zm6.57.12a4 4 0 0 1-1.97-.47 3.5 3.5 0 0 1-1.37-1.3 3.5 3.5 0 0 1-.5-1.86 3.5 3.5 0 0 1 .5-1.85 3.5 3.5 0 0 1 1.37-1.3 4 4 0 0 1 1.97-.47 4 4 0 0 1 1.96.47 3.5 3.5 0 0 1 1.37 1.3 3.5 3.5 0 0 1 .5 1.85 3.5 3.5 0 0 1-.5 1.86 3.5 3.5 0 0 1-1.37 1.3 4 4 0 0 1-1.96.47m0-1.38a2 2 0 0 0 1.12-.29 2 2 0 0 0 .78-.8 2.3 2.3 0 0 0 .28-1.16 2.3 2.3 0 0 0-.28-1.16 2 2 0 0 0-.78-.8 2 2 0 0 0-1.12-.28 2 2 0 0 0-1.12.28 2 2 0 0 0-.79.8 2.3 2.3 0 0 0-.28 1.16 2.3 2.3 0 0 0 .28 1.16 2 2 0 0 0 .79.8 2 2 0 0 0 1.12.29M-17 6h1.62v5.68h3.5V13H-17Zm12.46 0v7h-1.33l-3.5-4.25V13h-1.6V6h1.35l3.48 4.25V6Zm3.1 1.32h-2.23V6h6.1v1.32H.19V13h-1.62Zm5.93 5.8a3 3 0 0 1-1.3-.26 2.5 2.5 0 0 1-.99-.76l.9-1.08a1.6 1.6 0 0 0 1.3.77q.99 0 .99-1.16V7.3H2.94V6H7v4.54a2.6 2.6 0 0 1-.64 1.94 2.5 2.5 0 0 1-1.87.64m8.58-1.62H9.8L9.2 13H7.55l3.12-7h1.6l3.13 7h-1.7Zm-.51-1.23-1.11-2.68-1.11 2.68Zm-2.11-4.89a.7.7 0 0 1-.5-.2.7.7 0 0 1 0-.99.7.7 0 0 1 .5-.19.69.69 0 1 1 0 1.38m2.02 0a.69.69 0 1 1 0-1.38.7.7 0 0 1 .5.2.7.7 0 0 1 0 .99.7.7 0 0 1-.5.19M22.54 6v7H21.2l-3.49-4.25V13h-1.6V6h1.34l3.48 4.25V6Zm3.96 7.12a6 6 0 0 1-1.6-.22 4 4 0 0 1-1.25-.59l.55-1.22a4 4 0 0 0 1.07.53 4 4 0 0 0 1.24.2 2 2 0 0 0 1.02-.2.6.6 0 0 0 .33-.54.5.5 0 0 0-.2-.42 2 2 0 0 0-.5-.26q-.3-.1-.82-.22a11 11 0 0 1-1.31-.38 2 2 0 0 1-.88-.62 1.7 1.7 0 0 1-.36-1.11 2 2 0 0 1 .33-1.1 2 2 0 0 1 1-.79 4 4 0 0 1 1.62-.29 5 5 0 0 1 1.31.16 4 4 0 0 1 1.12.46l-.5 1.23a4 4 0 0 0-1.94-.55 2 2 0 0 0-1 .22.7.7 0 0 0-.33.58.6.6 0 0 0 .38.54 6 6 0 0 0 1.14.34 11 11 0 0 1 1.31.38 2 2 0 0 1 .88.6 1.6 1.6 0 0 1 .36 1.11 2 2 0 0 1-.33 1.1 2.3 2.3 0 0 1-1 .79 4 4 0 0 1-1.64.27m5.43-5.8h-2.24V6h6.1v1.32h-2.24V13h-1.62Z" transform="translate(590 272.013)"/><path id="Path_298" fill="#32cd32" d="M-28.24-7a4 4 0 0 1 1.61.31 2.4 2.4 0 0 1 1.05.88 2.4 2.4 0 0 1 .37 1.35 2.4 2.4 0 0 1-.37 1.34 2.4 2.4 0 0 1-1.05.88 4 4 0 0 1-1.62.3h-1.4V0h-1.63v-7Zm-.1 3.75a1.7 1.7 0 0 0 1.11-.31 1.1 1.1 0 0 0 .38-.9 1.1 1.1 0 0 0-.38-.9 1.7 1.7 0 0 0-1.1-.31h-1.33v2.42Zm7.77 3.37a4 4 0 0 1-1.96-.47 3.5 3.5 0 0 1-1.37-1.3 3.5 3.5 0 0 1-.5-1.85 3.5 3.5 0 0 1 .5-1.85 3.5 3.5 0 0 1 1.37-1.3 4 4 0 0 1 1.97-.47 4 4 0 0 1 1.96.47 3.5 3.5 0 0 1 1.37 1.3 3.5 3.5 0 0 1 .5 1.85 3.5 3.5 0 0 1-.5 1.85 3.5 3.5 0 0 1-1.37 1.3 4 4 0 0 1-1.96.47m0-1.38a2 2 0 0 0 1.12-.28 2 2 0 0 0 .79-.8 2.3 2.3 0 0 0 .28-1.16 2.3 2.3 0 0 0-.28-1.16 2 2 0 0 0-.78-.8 2 2 0 0 0-1.12-.28 2 2 0 0 0-1.13.28 2 2 0 0 0-.78.8 2.3 2.3 0 0 0-.29 1.16 2.3 2.3 0 0 0 .29 1.16 2 2 0 0 0 .78.8 2 2 0 0 0 1.13.28M-5.17-7l-2.28 7H-9.2l-1.54-4.74L-12.32 0h-1.73l-2.3-7h1.68l1.57 4.92L-11.44-7h1.5l1.6 4.96L-6.72-7Zm6.33 5.7V0h-5.42v-7h5.29v1.3h-3.68v1.52H.6v1.26h-3.25v1.62ZM6.9 0 5.55-1.95H4.07V0H2.44v-7h3.03a4 4 0 0 1 1.62.31 2.4 2.4 0 0 1 1.06.88 2.4 2.4 0 0 1 .36 1.35 2.4 2.4 0 0 1-.37 1.34 2.4 2.4 0 0 1-1.06.87L8.64 0Zm-.03-4.46a1.1 1.1 0 0 0-.38-.9 1.7 1.7 0 0 0-1.11-.31H4.06v2.43h1.32a1.7 1.7 0 0 0 1.11-.32 1.1 1.1 0 0 0 .38-.9m4.54-1.24v1.85h3.23v1.3H11.4V0H9.8v-7h5.29v1.3ZM19.3.12a3.2 3.2 0 0 1-2.34-.83 3.2 3.2 0 0 1-.83-2.37V-7h1.62v3.86q0 1.88 1.56 1.88a1.5 1.5 0 0 0 1.16-.46 2 2 0 0 0 .4-1.42V-7h1.6v3.92a3.2 3.2 0 0 1-.84 2.37 3.2 3.2 0 0 1-2.33.83M24.07-7h1.62v5.68h3.5V0h-5.13Zm-54.94 18.5h-3.25l-.63 1.5h-1.65l3.12-7h1.6l3.13 7h-1.7Zm-.51-1.23-1.12-2.68-1.11 2.68Zm6.52 2.85a3.2 3.2 0 0 1-2.34-.83 3.2 3.2 0 0 1-.83-2.37V6h1.62v3.86q0 1.88 1.56 1.88a1.5 1.5 0 0 0 1.16-.46 2 2 0 0 0 .4-1.42V6h1.6v3.92a3.2 3.2 0 0 1-.84 2.37 3.2 3.2 0 0 1-2.33.83m6.1-5.8H-21V6h6.1v1.32h-2.25V13h-1.62Zm8.02 5.8a4 4 0 0 1-1.97-.47 3.5 3.5 0 0 1-1.37-1.3 3.5 3.5 0 0 1-.5-1.85 3.5 3.5 0 0 1 .5-1.85 3.5 3.5 0 0 1 1.37-1.3 4 4 0 0 1 1.97-.47 4 4 0 0 1 1.95.47 3.5 3.5 0 0 1 1.37 1.3 3.5 3.5 0 0 1 .5 1.85 3.5 3.5 0 0 1-.5 1.86 3.5 3.5 0 0 1-1.37 1.3 4 4 0 0 1-1.95.46m0-1.38a2 2 0 0 0 1.11-.29 2 2 0 0 0 .79-.8 2.3 2.3 0 0 0 .29-1.15 2.3 2.3 0 0 0-.29-1.16 2 2 0 0 0-.78-.8 2 2 0 0 0-1.13-.28 2 2 0 0 0-1.12.28 2 2 0 0 0-.78.8 2.3 2.3 0 0 0-.29 1.16 2.3 2.3 0 0 0 .29 1.16 2 2 0 0 0 .78.8 2 2 0 0 0 1.13.28M.67 13 .66 8.8l-2.06 3.46h-.73l-2.05-3.37V13H-5.7V6h1.34l2.62 4.35L.85 6h1.32l.02 7Zm7.79-1.5H5.2L4.6 13H2.95l3.12-7h1.6l3.12 7h-1.7Zm-.52-1.23-1.1-2.68-1.11 2.68Zm4.67-2.95h-2.24V6h6.1v1.32h-2.24V13h-1.62ZM17.34 6h1.62v7h-1.62Zm6.67 7.12a4 4 0 0 1-1.96-.47 3.5 3.5 0 0 1-1.37-1.3 3.5 3.5 0 0 1-.5-1.85 3.5 3.5 0 0 1 .5-1.86 3.5 3.5 0 0 1 1.37-1.3 4.3 4.3 0 0 1 3.93 0 3.57 3.57 0 0 1 0 6.3 4 4 0 0 1-1.96.48m0-1.38a2 2 0 0 0 1.12-.28 2 2 0 0 0 .79-.8 2.5 2.5 0 0 0 0-2.32 2 2 0 0 0-.78-.8 2.3 2.3 0 0 0-2.24 0 2 2 0 0 0-.79.8 2.5 2.5 0 0 0 0 2.32 2 2 0 0 0 .79.8 2 2 0 0 0 1.12.28M35.49 6v7h-1.32l-3.5-4.25V13h-1.6V6h1.34l3.48 4.25V6Z" transform="translate(734 413.013)"/><path id="Path_297" fill="#32cd32" d="M-22.21-11.27h6.97l-.3-1.03q-1.25-4.21-2.05-7.18t-.96-3.83l-.17-.86a122 122 0 0 1-3.19 11.87ZM-11.89 0l-1.76-5.93H-23.8L-25.56 0h-6.93l9.68-28.98h8.34L-4.79 0Zm17.5-14.62H7.8q5.25 0 5.25-4.77 0-4.3-4.86-4.3H5.6Zm-6.62-14.36h9.98a11.2 11.2 0 0 1 7.8 2.7 8.9 8.9 0 0 1 2.98 6.89 9.1 9.1 0 0 1-3.1 7.39 11.5 11.5 0 0 1-7.68 2.63H5.6V0H-1ZM23.63 0v-28.98h6.62V0Z" transform="translate(734 382)"/><path id="Path_296" fill="#3c9bcd" d="m-32.1-2.75-.93.98V0h-1.61v-7h1.6v3.27l3.1-3.27h1.8l-2.9 3.12L-27.96 0h-1.89Zm7.87 2.87a3.2 3.2 0 0 1-2.34-.83 3.2 3.2 0 0 1-.83-2.37V-7h1.62v3.86q0 1.88 1.56 1.88a1.5 1.5 0 0 0 1.16-.46 2 2 0 0 0 .4-1.42V-7h1.6v3.92a3.2 3.2 0 0 1-.84 2.37 3.2 3.2 0 0 1-2.34.83m9.9-3.76a2 2 0 0 1 .95.64 2 2 0 0 1 .34 1.1 1.6 1.6 0 0 1-.72 1.4 3.7 3.7 0 0 1-2.08.5h-3.62v-7h3.42a3.4 3.4 0 0 1 1.96.49 1.6 1.6 0 0 1 .68 1.33 1.7 1.7 0 0 1-.24.91 2 2 0 0 1-.68.63m-3.52-2.14v1.65h1.6a1.6 1.6 0 0 0 .91-.21.7.7 0 0 0 .31-.62.7.7 0 0 0-.3-.61 1.7 1.7 0 0 0-.92-.21Zm1.89 4.56a2 2 0 0 0 .96-.21.7.7 0 0 0 .33-.65q0-.87-1.3-.87h-1.88v1.73Zm9.57-.08V0h-5.42v-7h5.29v1.3h-3.68v1.52h3.25v1.26h-3.25v1.62ZM-.64 0-2-1.95h-1.5V0h-1.6v-7h3.03a4 4 0 0 1 1.61.31 2.4 2.4 0 0 1 1.06.88 2.4 2.4 0 0 1 .37 1.35 2.4 2.4 0 0 1-.38 1.34 2.4 2.4 0 0 1-1.06.87L1.1 0Zm-.03-4.46a1.1 1.1 0 0 0-.38-.9 1.7 1.7 0 0 0-1.11-.31h-1.32v2.43h1.31a1.7 1.7 0 0 0 1.12-.32 1.1 1.1 0 0 0 .38-.9M8.66-7v7H7.33L3.86-4.25V0h-1.6v-7H3.6l3.48 4.25V-7Zm7.08 5.7V0h-5.42v-7h5.3v1.3h-3.69v1.52h3.25v1.26h-3.25v1.62Zm2.74-4.38h-2.24V-7h6.1v1.32H20.1V0h-1.62ZM28.65-1.3V0h-5.42v-7h5.29v1.3h-3.68v1.52h3.25v1.26h-3.25v1.62ZM32.23.12a6 6 0 0 1-1.61-.22 4 4 0 0 1-1.25-.59l.55-1.22a4 4 0 0 0 1.08.53 4 4 0 0 0 1.24.2 2 2 0 0 0 1.02-.2.6.6 0 0 0 .33-.55.5.5 0 0 0-.2-.41 2 2 0 0 0-.5-.26q-.3-.1-.82-.22a11 11 0 0 1-1.31-.39 2 2 0 0 1-.87-.6 1.7 1.7 0 0 1-.37-1.12 2 2 0 0 1 .33-1.11 2 2 0 0 1 1-.79 4 4 0 0 1 1.63-.29 5 5 0 0 1 1.3.16 4 4 0 0 1 1.13.46l-.5 1.23a4 4 0 0 0-1.94-.55 2 2 0 0 0-1.01.22.7.7 0 0 0-.32.58.6.6 0 0 0 .37.54 6 6 0 0 0 1.15.35 11 11 0 0 1 1.3.37 2 2 0 0 1 .88.6 1.6 1.6 0 0 1 .37 1.11 2 2 0 0 1-.35 1.1 2.3 2.3 0 0 1-1 .78 4 4 0 0 1-1.63.29m-57.56 13a4 4 0 0 1-1.97-.47 3.5 3.5 0 0 1-1.37-1.3 3.5 3.5 0 0 1-.5-1.85 3.5 3.5 0 0 1 .5-1.86 3.5 3.5 0 0 1 1.37-1.3 4 4 0 0 1 1.97-.47 4 4 0 0 1 1.95.47A3.5 3.5 0 0 1-22 7.64a3.5 3.5 0 0 1 .5 1.86 3.5 3.5 0 0 1-.5 1.86 3.5 3.5 0 0 1-1.37 1.3 4 4 0 0 1-1.96.46m0-1.38a2 2 0 0 0 1.11-.28 2 2 0 0 0 .79-.8 2.3 2.3 0 0 0 .28-1.16 2.3 2.3 0 0 0-.28-1.16 2 2 0 0 0-.78-.8 2 2 0 0 0-1.12-.29 2 2 0 0 0-1.13.29 2 2 0 0 0-.78.8 2.3 2.3 0 0 0-.29 1.16 2.3 2.3 0 0 0 .29 1.16 2 2 0 0 0 .78.8 2 2 0 0 0 1.13.28M-17.26 6a4 4 0 0 1 1.62.31 2.4 2.4 0 0 1 1.06.88 2.4 2.4 0 0 1 .37 1.35 2.4 2.4 0 0 1-.37 1.35 2.4 2.4 0 0 1-1.06.87 4 4 0 0 1-1.61.3h-1.41V13h-1.62V6Zm-.08 3.75a1.7 1.7 0 0 0 1.1-.31 1.1 1.1 0 0 0 .38-.9 1.1 1.1 0 0 0-.37-.9 1.7 1.7 0 0 0-1.11-.31h-1.32v2.42Zm5.54-2.43h-2.24V6h6.1v1.32h-2.24V13h-1.62ZM-7.07 6h1.62v7h-1.62Zm9.65 7-.01-4.2L.5 12.26h-.74l-2.04-3.37V13H-3.8V6h1.34l2.62 4.35L2.75 6h1.33l.02 7Zm3.18-7h1.62v7H5.76Zm5.58 7.12a6 6 0 0 1-1.61-.22 4 4 0 0 1-1.25-.58l.55-1.22a4 4 0 0 0 1.08.53 4 4 0 0 0 1.24.2 2 2 0 0 0 1.02-.2.6.6 0 0 0 .33-.55.5.5 0 0 0-.2-.41 2 2 0 0 0-.5-.27q-.3-.1-.82-.22a11 11 0 0 1-1.31-.38 2 2 0 0 1-.88-.61 1.7 1.7 0 0 1-.36-1.12 2 2 0 0 1 .32-1.1 2.2 2.2 0 0 1 1-.8 4 4 0 0 1 1.63-.29 5 5 0 0 1 1.3.16A4 4 0 0 1 14 6.5l-.5 1.23a4 4 0 0 0-1.94-.55 2 2 0 0 0-1 .22.7.7 0 0 0-.33.58.6.6 0 0 0 .38.54 6 6 0 0 0 1.14.34 11 11 0 0 1 1.31.38 2 2 0 0 1 .88.6 1.6 1.6 0 0 1 .36 1.11 2 2 0 0 1-.33 1.1 2.3 2.3 0 0 1-1 .79 4 4 0 0 1-1.63.28m9.5-1.42V13h-5.42V6h5.29v1.3h-3.68v1.52h3.25v1.26h-3.25v1.62ZM22.13 6h3.18a4.5 4.5 0 0 1 2.01.44 3.3 3.3 0 0 1 1.36 1.22 3.5 3.5 0 0 1 .49 1.84 3.5 3.5 0 0 1-.49 1.84 3.3 3.3 0 0 1-1.36 1.23 4.5 4.5 0 0 1-2.02.43h-3.18Zm3.1 5.67a2.4 2.4 0 0 0 1.67-.58 2 2 0 0 0 .63-1.59 2 2 0 0 0-.63-1.58 2.4 2.4 0 0 0-1.67-.59h-1.49v4.34Z" transform="translate(590 412.006)"/><g id="Group_3" transform="translate(0 141)"><path id="code-solid" fill="#fa690f" d="m27.76 50.99-6.08-1.77a1.2 1.2 0 0 1-.81-1.48L34.47.9a1.2 1.2 0 0 1 1.48-.82l6.08 1.77a1.2 1.2 0 0 1 .81 1.48l-13.6 46.84a1.2 1.2 0 0 1-1.48.82M16.4 39.8l4.33-4.62a1.2 1.2 0 0 0-.08-1.71l-9.02-7.94 9.03-7.94a1.2 1.2 0 0 0 .08-1.71l-4.34-4.63a1.2 1.2 0 0 0-1.7-.05L.37 24.66a1.2 1.2 0 0 0 0 1.74L14.7 39.86a1.2 1.2 0 0 0 1.7-.05Zm32.6.06L63.35 26.4a1.2 1.2 0 0 0 0-1.74L49 11.2a1.2 1.2 0 0 0-1.7.05l-4.33 4.62a1.2 1.2 0 0 0 .08 1.72l9.03 7.94-9.03 7.94a1.2 1.2 0 0 0-.08 1.72l4.34 4.62a1.2 1.2 0 0 0 1.69.06" transform="translate(414.645 199.963)"/></g><g id="Sweden" transform="translate(552.729 160.317)"><g id="Sweden-2" transform="translate(13 54.016)"><path id="Path_289" fill="#195f8c" d="M3 0h42.54a3 3 0 0 1 3 3v24.99a3 3 0 0 1-3 3H3a3 3 0 0 1-3-3V3a3 3 0 0 1 3-3"/><path id="Line_5" fill="none" stroke="#ffe26a" stroke-width="6" d="M0 0v30.99" transform="translate(18.074)"/><path id="Line_6" fill="none" stroke="#ffe26a" stroke-width="6" d="M48.54 0H0" transform="translate(0 15.492)"/></g></g><g id="layer1" transform="translate(551.797 163.786)"><g id="g3052" transform="translate(16.326 184.752)"><path id="path3055" fill="#3c9bcd" stroke="#fff" stroke-width="0" d="M38.05 184.76a3 3 0 0 0-1.11.28l-15.21 7.27a2.9 2.9 0 0 0-1.58 1.95L16.4 210.6a3 3 0 0 0 .4 2.21q.07.12.16.23l10.53 13.1a3 3 0 0 0 2.27 1.08h16.89a3 3 0 0 0 2.27-1.09l10.53-13.09a2.9 2.9 0 0 0 .56-2.44l-3.76-16.33a2.9 2.9 0 0 0-1.57-1.96l-15.22-7.26a3 3 0 0 0-1.4-.28Z" transform="translate(-16.326 -184.752)"/><path id="path3059" fill="#fff" stroke="#fff" stroke-width="0.25" d="M126.16 274.06a.97.97 0 0 0-.91 1.01v.26a8 8 0 0 0 .12.87 9 9 0 0 1 .1 1.65 1 1 0 0 1-.3.47l-.02.38a12 12 0 0 0-1.65.26 11.7 11.7 0 0 0-5.94 3.4l-.33-.24a.7.7 0 0 1-.54-.05 9 9 0 0 1-1.23-1.1 8 8 0 0 0-.6-.64l-.2-.17a1 1 0 0 0-.64-.23 1 1 0 0 0-.72.32.97.97 0 0 0 .22 1.34h.02l.18.16a8 8 0 0 0 .76.44 9 9 0 0 1 1.35.95 1 1 0 0 1 .19.53l.29.26a11.8 11.8 0 0 0-1.86 8.21l-.38.11a1 1 0 0 1-.4.4 9 9 0 0 1-1.62.27 8 8 0 0 0-.88.07l-.24.05h-.02a.91.91 0 1 0 .4 1.78h.03l.23-.06a8 8 0 0 0 .82-.31 9 9 0 0 1 1.59-.47 1 1 0 0 1 .52.18l.4-.06a12 12 0 0 0 5.25 6.55l-.16.4a1 1 0 0 1 .08.52 9 9 0 0 1-.83 1.48 8 8 0 0 0-.48.73l-.12.24a.91.91 0 1 0 1.64.78l.12-.23a8 8 0 0 0 .26-.84 6 6 0 0 1 .7-1.63 1 1 0 0 1 .4-.2l.2-.37a11.8 11.8 0 0 0 8.4.02l.2.35a.7.7 0 0 1 .46.29 9 9 0 0 1 .62 1.53 8 8 0 0 0 .27.83l.1.23a.92.92 0 1 0 1.66-.77l-.12-.25a8 8 0 0 0-.5-.72 9 9 0 0 1-.8-1.45.7.7 0 0 1 .07-.54l-.15-.36a12 12 0 0 0 5.25-6.6l.39.06a.7.7 0 0 1 .5-.19 9 9 0 0 1 1.6.47 8 8 0 0 0 .81.32l.24.05h.03a.91.91 0 1 0 .4-1.77l-.27-.06a8 8 0 0 0-.87-.07 9 9 0 0 1-1.63-.27 1 1 0 0 1-.4-.4l-.36-.1a11.8 11.8 0 0 0-1.9-8.2l.32-.29a.7.7 0 0 1 .17-.51 9 9 0 0 1 1.36-.95 8 8 0 0 0 .75-.45l.2-.16a.92.92 0 1 0-1.13-1.42l-.2.16a8 8 0 0 0-.6.64 9 9 0 0 1-1.23 1.1 1 1 0 0 1-.55.07l-.35.24a12 12 0 0 0-7.56-3.65l-.02-.4a.7.7 0 0 1-.3-.46 9 9 0 0 1 .1-1.65 8 8 0 0 0 .13-.87v-.26a.97.97 0 0 0-.91-1Zm-1.14 7.06-.27 4.78h-.02a.8.8 0 0 1-1.28.62l-3.92-2.77a9.4 9.4 0 0 1 4.52-2.46 10 10 0 0 1 .97-.17Zm2.28 0a9.5 9.5 0 0 1 5.45 2.63l-3.89 2.76h-.01a.8.8 0 0 1-1.28-.62Zm-9.2 4.41 3.58 3.2v.02a.8.8 0 0 1-.31 1.38v.02l-4.58 1.32a9.4 9.4 0 0 1 1.32-5.94Zm16.08 0a9.6 9.6 0 0 1 1.37 5.92l-4.6-1.32v-.02a.8.8 0 0 1-.32-1.38v-.01Zm-8.76 3.45h1.47l.9 1.13-.32 1.42-1.31.64-1.32-.64-.33-1.42Zm4.7 3.9h.19l4.75.8a9.4 9.4 0 0 1-3.8 4.76l-1.84-4.44a.8.8 0 0 1 .7-1.13Zm-7.96.01a.8.8 0 0 1 .73 1.12l.01.02-1.82 4.4a9.4 9.4 0 0 1-3.79-4.74l4.7-.8.01.01zm3.97 1.93a.8.8 0 0 1 .74.42h.01l2.32 4.19a10 10 0 0 1-.92.26 9.4 9.4 0 0 1-5.14-.27l2.3-4.18a.8.8 0 0 1 .69-.42Z" transform="translate(-104.28 -268.5)"/></g></g><g id="Gaia-X" transform="translate(690.777 218.945)"><path id="Path_101" fill="#000094" d="M106.18 105.5h-2.83a.55.55 0 0 0 0 1.1h2.83a.55.55 0 0 0 0-1.1" transform="translate(-64.63 -66.199)"/><g id="Group_28" transform="translate(54.291 .023)"><path id="Path_102" fill="#000094" d="M134.17 37.48a.6.6 0 0 1-.44-.16l-1.66-1.67a.63.63 0 1 1 .88-.88l1.66 1.66a.7.7 0 0 1 0 .89.6.6 0 0 1-.44.16" transform="translate(-131.9 -34.6)"/></g><g id="Group_29" transform="translate(83.542 .023)"><path id="Path_103" fill="#000094" d="M185.3 37.48a.6.6 0 0 1-.43-.16.7.7 0 0 1 0-.9l1.66-1.65a.63.63 0 0 1 .88.88l-1.66 1.67a.6.6 0 0 1-.44.16" transform="translate(-184.7 -34.6)"/></g><g id="Group_30" transform="translate(54.291 29.273)"><path id="Path_104" fill="#000094" d="M132.5 90.28a.6.6 0 0 1-.43-.16.7.7 0 0 1 0-.9l1.66-1.65a.63.63 0 0 1 .88.88l-1.66 1.67a.6.6 0 0 1-.44.16" transform="translate(-131.9 -87.4)"/></g><g id="Group_31" transform="translate(83.542 29.273)"><path id="Path_105" fill="#000094" d="M186.97 90.28a.6.6 0 0 1-.44-.16l-1.66-1.67a.63.63 0 0 1 .88-.88l1.66 1.66a.7.7 0 0 1 0 .89.6.6 0 0 1-.44.16" transform="translate(-184.7 -87.4)"/></g><g id="Group_32" transform="translate(60.418)"><path id="Path_106" fill="#000094" d="M144.81 37.85a.6.6 0 0 1-.55-.33l-1.22-2a.65.65 0 1 1 1.1-.66l1.22 2a.7.7 0 0 1-.22.88 1 1 0 0 1-.33.11" transform="translate(-142.959 -34.559)"/></g><g id="Group_33" transform="translate(66.637 .014)"><path id="Path_107" fill="#000094" d="M155.25 38.14a.65.65 0 0 1-.61-.5l-.45-2.33a.62.62 0 0 1 1.22-.22l.45 2.33a.63.63 0 0 1-.5.72Z" transform="translate(-154.185 -34.585)"/></g><g id="Group_34" transform="translate(66.5 5.75)"><path id="Path_108" fill="#000094" d="M155.3 48.4a.7.7 0 0 1-.6-.44l-.73-2.21a.61.61 0 1 1 1.16-.39l.72 2.22a.6.6 0 0 1-.38.77c-.06 0-.11.06-.17.06" transform="translate(-153.938 -44.938)"/></g><g id="Group_35" transform="translate(77.758)"><path id="Path_109" fill="#000094" d="M174.9 37.85a1 1 0 0 1-.34-.11.7.7 0 0 1-.22-.89l1.22-2a.65.65 0 1 1 1.1.67l-1.22 2a.6.6 0 0 1-.55.33" transform="translate(-174.259 -34.559)"/></g><g id="Group_36" transform="translate(72.343 .014)"><path id="Path_110" fill="#000094" d="M165.1 38.14h-.11a.63.63 0 0 1-.5-.72l.44-2.33a.62.62 0 0 1 1.22.22l-.44 2.33a.6.6 0 0 1-.61.5" transform="translate(-164.485 -34.585)"/></g><g id="Group_37" transform="translate(72.206 5.75)"><path id="Path_111" fill="#000094" d="M164.88 48.4a.4.4 0 0 1-.22-.05.6.6 0 0 1-.39-.77l.72-2.22a.61.61 0 1 1 1.16.39l-.72 2.21a.54.54 0 0 1-.55.45" transform="translate(-164.238 -44.938)"/></g><g id="Group_38" transform="translate(60.473 28.863)"><path id="Path_112" fill="#000094" d="M143.7 89.95a1 1 0 0 1-.34-.11.7.7 0 0 1-.22-.89l1.22-2a.65.65 0 0 1 1.1.67l-1.22 2a.8.8 0 0 1-.55.33" transform="translate(-143.059 -86.659)"/></g><g id="Group_39" transform="translate(66.637 28.6)"><path id="Path_113" fill="#000094" d="M154.8 89.74h-.11a.63.63 0 0 1-.5-.72l.44-2.33a.62.62 0 1 1 1.22.22l-.44 2.33a.65.65 0 0 1-.61.5" transform="translate(-154.185 -86.185)"/></g><g id="Group_40" transform="translate(66.445 22.979)"><path id="Path_114" fill="#000094" d="M154.48 79.5a.4.4 0 0 1-.22-.05.6.6 0 0 1-.39-.77l.72-2.22a.61.61 0 1 1 1.16.39l-.72 2.21a.5.5 0 0 1-.55.45" transform="translate(-153.838 -76.038)"/></g><g id="Group_41" transform="translate(77.758 28.863)"><path id="Path_115" fill="#000094" d="M176.11 89.95a.6.6 0 0 1-.55-.33l-1.22-2a.65.65 0 0 1 1.1-.66l1.22 2a.7.7 0 0 1-.22.88.4.4 0 0 1-.33.11" transform="translate(-174.259 -86.659)"/></g><g id="Group_42" transform="translate(72.398 28.6)"><path id="Path_116" fill="#000094" d="M165.65 89.74a.65.65 0 0 1-.61-.5l-.45-2.33a.62.62 0 1 1 1.22-.22l.45 2.33a.63.63 0 0 1-.5.72Z" transform="translate(-164.585 -86.185)"/></g><g id="Group_43" transform="translate(72.262 22.979)"><path id="Path_117" fill="#000094" d="M165.7 79.5a.7.7 0 0 1-.6-.44l-.73-2.21a.61.61 0 0 1 1.16-.39l.72 2.22a.6.6 0 0 1-.38.77.2.2 0 0 1-.17.06" transform="translate(-164.338 -76.038)"/></g><g id="Group_44" transform="translate(77.836 23.567)"><path id="Path_118" fill="#000094" d="M176.67 79.98a.6.6 0 0 1-.44-.17l-1.66-1.66a.63.63 0 1 1 .88-.88l1.66 1.66a.7.7 0 0 1 0 .88.6.6 0 0 1-.44.17" transform="translate(-174.4 -77.1)"/></g><g id="Group_45" transform="translate(83.131 6.149)"><path id="Path_119" fill="#000094" d="M184.6 48.18a.6.6 0 0 1-.56-.34.7.7 0 0 1 .22-.88l2-1.22a.65.65 0 0 1 .66 1.1l-2 1.22a1 1 0 0 1-.33.11" transform="translate(-183.959 -45.659)"/></g><g id="Group_46" transform="translate(82.869 12.424)"><path id="Path_120" fill="#000094" d="M184.1 58.66a.65.65 0 0 1-.6-.5.63.63 0 0 1 .5-.72l2.32-.45a.62.62 0 0 1 .22 1.22l-2.33.44Z" transform="translate(-183.485 -56.985)"/></g><g id="Group_47" transform="translate(77.192 12.232)"><path id="Path_121" fill="#000094" d="M173.88 58.61a.7.7 0 0 1-.6-.44.6.6 0 0 1 .38-.78l2.22-.72a.61.61 0 1 1 .39 1.16l-2.22.72q0 .07-.17.06" transform="translate(-173.238 -56.638)"/></g><g id="Group_48" transform="translate(83.187 23.489)"><path id="Path_122" fill="#000094" d="M186.69 79.47a1 1 0 0 1-.34-.1l-2-1.23a.65.65 0 1 1 .67-1.1l2 1.22a.66.66 0 0 1-.33 1.21" transform="translate(-184.059 -76.959)"/></g><g id="Group_49" transform="translate(82.869 18.13)"><path id="Path_123" fill="#000094" d="M186.43 68.96h-.11l-2.33-.45a.62.62 0 0 1 .22-1.22l2.33.4a.63.63 0 0 1 .5.71.65.65 0 0 1-.61.55" transform="translate(-183.485 -67.285)"/></g><g id="Group_50" transform="translate(77.248 17.993)"><path id="Path_124" fill="#000094" d="M176.2 69.01a.4.4 0 0 1-.22-.05l-2.22-.72a.61.61 0 0 1 .39-1.17l2.22.72a.6.6 0 0 1 .38.78.54.54 0 0 1-.55.44" transform="translate(-173.338 -67.038)"/></g><g id="Group_51" transform="translate(54.268 6.149)"><path id="Path_125" fill="#000094" d="M134.49 48.18a1 1 0 0 1-.34-.12l-2-1.22a.65.65 0 0 1 .67-1.1l2 1.22a.7.7 0 0 1 .22.88.6.6 0 0 1-.55.33" transform="translate(-131.859 -45.659)"/></g><g id="Group_52" transform="translate(54.283 12.424)"><path id="Path_126" fill="#000094" d="M134.83 58.66h-.11l-2.33-.45a.62.62 0 0 1 .22-1.22l2.33.45a.63.63 0 0 1 .5.72.65.65 0 0 1-.61.5" transform="translate(-131.885 -56.985)"/></g><g id="Group_53" transform="translate(59.963 12.232)"><path id="Path_127" fill="#000094" d="M145 58.61a.4.4 0 0 1-.22-.05l-2.22-.72a.61.61 0 1 1 .39-1.17l2.22.72a.6.6 0 0 1 .38.78.5.5 0 0 1-.55.44" transform="translate(-142.138 -56.638)"/></g><g id="Group_54" transform="translate(54.268 23.489)"><path id="Path_128" fill="#000094" d="M132.5 79.47a.6.6 0 0 1-.56-.33.7.7 0 0 1 .22-.88l2-1.22a.65.65 0 1 1 .66 1.1l-2 1.23a1 1 0 0 1-.33.1" transform="translate(-131.859 -76.959)"/></g><g id="Group_55" transform="translate(54.283 18.13)"><path id="Path_129" fill="#000094" d="M132.5 68.96a.65.65 0 0 1-.6-.5.63.63 0 0 1 .5-.72l2.32-.45a.62.62 0 0 1 .22 1.22l-2.33.44Z" transform="translate(-131.885 -67.285)"/></g><g id="Group_56" transform="translate(59.963 17.993)"><path id="Path_130" fill="#000094" d="M142.78 69.01a.7.7 0 0 1-.6-.44.6.6 0 0 1 .38-.78l2.22-.72a.61.61 0 1 1 .39 1.17l-2.22.72c0 .05-.11.05-.17.05" transform="translate(-142.138 -67.038)"/></g><g id="Group_57" transform="translate(65.385 11.116)"><path id="Path_131" fill="#000094" d="M154.85 58.82a1.1 1.1 0 0 1-.89-.39l-1.66-1.66a1.25 1.25 0 1 1 1.77-1.77l1.66 1.66a1.24 1.24 0 0 1 0 1.78 1.1 1.1 0 0 1-.88.38" transform="translate(-151.925 -54.625)"/></g><g id="Group_58" transform="translate(71.146 11.116)"><path id="Path_132" fill="#000094" d="M163.59 58.82a1.1 1.1 0 0 1-.9-.39 1.24 1.24 0 0 1 0-1.77l1.67-1.66a1.25 1.25 0 1 1 1.77 1.77l-1.66 1.67a1.3 1.3 0 0 1-.88.38" transform="translate(-162.325 -54.625)"/></g><g id="Group_59" transform="translate(65.385 16.822)"><path id="Path_133" fill="#000094" d="M153.19 69.12a1.1 1.1 0 0 1-.9-.39 1.24 1.24 0 0 1 0-1.77l1.67-1.66a1.25 1.25 0 0 1 1.77 1.77l-1.66 1.66a1.1 1.1 0 0 1-.88.4" transform="translate(-151.925 -64.925)"/></g><g id="Group_60" transform="translate(71.146 16.822)"><path id="Path_134" fill="#000094" d="M165.25 69.12a1.1 1.1 0 0 1-.89-.39l-1.66-1.66a1.25 1.25 0 0 1 1.77-1.77l1.66 1.66a1.24 1.24 0 0 1 0 1.77 1.3 1.3 0 0 1-.88.4" transform="translate(-162.325 -64.925)"/></g><path id="Path_135" fill="#000094" d="m115.15 102.56 3.71-3.7a.63.63 0 0 0-.88-.9l-3.72 3.72-3.7-3.71a.63.63 0 0 0-.9.88l3.72 3.71-3.71 3.72a.7.7 0 0 0 0 .88.7.7 0 0 0 .88 0l3.72-3.71 3.7 3.71a.7.7 0 0 0 .9 0 .7.7 0 0 0 0-.88Z" transform="translate(-67.618 -62.765)"/><g id="Group_61" transform="translate(59.997 23.567)"><path id="Path_136" fill="#000094" d="M142.8 79.98a.6.6 0 0 1-.43-.17.7.7 0 0 1 0-.88l1.66-1.66a.63.63 0 1 1 .88.88l-1.66 1.66a.6.6 0 0 1-.44.17" transform="translate(-142.2 -77.1)"/></g><g id="Group_62" transform="translate(59.997 5.729)"><path id="Path_137" fill="#000094" d="M144.47 47.78a.6.6 0 0 1-.44-.17l-1.66-1.66a.63.63 0 0 1 .88-.88l1.66 1.66a.7.7 0 0 1 0 .89.6.6 0 0 1-.44.16" transform="translate(-142.2 -44.9)"/></g><g id="Group_63" transform="translate(77.836 5.729)"><path id="Path_138" fill="#000094" d="M175 47.78a.6.6 0 0 1-.43-.17.7.7 0 0 1 0-.88l1.66-1.66a.63.63 0 1 1 .88.88l-1.66 1.67a.6.6 0 0 1-.44.16" transform="translate(-174.4 -44.9)"/></g><path id="Path_139" fill="#000094" d="M62.65 98.1a.6.6 0 0 0-.6.6v.84a4.3 4.3 0 0 0-3.22-1.44 4.72 4.72 0 0 0 0 9.42 4.5 4.5 0 0 0 3.22-1.44v.83a.6.6 0 1 0 1.21 0v-8.2a.6.6 0 0 0-.6-.61m-3.82 8.14a3.34 3.34 0 0 1-3.21-3.43 3.4 3.4 0 0 1 3.21-3.5 3.47 3.47 0 0 1 0 6.93" transform="translate(-43.043 -62.899)"/><g id="Group_64" transform="translate(23.323 31.988)"><path id="Path_140" fill="#000094" d="M76.6 92.3a.6.6 0 0 0-.6.6v.45a.7.7 0 0 0 .6.67.67.67 0 0 0 .67-.67v-.44a.7.7 0 0 0-.66-.61" transform="translate(-76 -92.3)"/><path id="Path_141" fill="#000094" d="M76.6 98.1a.6.6 0 0 0-.6.6v8.15a.6.6 0 0 0 .6.61.7.7 0 0 0 .67-.6V98.7a.63.63 0 0 0-.66-.61" transform="translate(-76 -94.887)"/></g><path id="Path_142" fill="#000094" d="M91.15 98.1a.6.6 0 0 0-.6.6v.84a4.3 4.3 0 0 0-3.22-1.44 4.72 4.72 0 0 0 0 9.42 4.5 4.5 0 0 0 3.22-1.44v.83a.6.6 0 1 0 1.21 0v-8.2a.6.6 0 0 0-.6-.61m-3.82 8.14a3.34 3.34 0 0 1-3.21-3.43 3.4 3.4 0 0 1 3.21-3.5 3.47 3.47 0 0 1 0 6.93" transform="translate(-55.754 -62.899)"/><path id="Path_143" fill="#000094" d="M42.21 98.1a.7.7 0 0 0-.66.6v.84a4.5 4.5 0 0 0-3.22-1.44 4.66 4.66 0 0 0 0 9.3 4.3 4.3 0 0 0 3.22-1.43v.6a3.14 3.14 0 0 1-3.22 3.16 3 3 0 0 1-1.27-.27 3 3 0 0 1-1.06-.72.7.7 0 0 0-.44-.23.6.6 0 0 0-.44.17.7.7 0 0 0-.06.89 5 5 0 0 0 1.28.94l.05.05c.06 0 .06.06.11.06l.12.05c.05 0 .05.06.1.06a4 4 0 0 0 1.61.28 6 6 0 0 0 .95-.11h.05a5 5 0 0 0 .83-.28 4 4 0 0 0 .67-.39q.07-.1.16-.11l.11-.06a2 2 0 0 0 .33-.27 2 2 0 0 0 .34-.34l.1-.1a4.5 4.5 0 0 0 1.06-2.83V98.7a.8.8 0 0 0-.72-.61m-3.82 8.09a3.3 3.3 0 0 1-3.16-3.44 3.2 3.2 0 1 1 6.37 0 3.4 3.4 0 0 1-3.21 3.44" transform="translate(-33.9 -62.899)"/></g></g></g></svg>