<svg xmlns="http://www.w3.org/2000/svg" width="638.52" height="213.32" viewBox="0 0 638.52 213.32">
  <g id="safespring-iso27001" transform="translate(0 0.01)">
    <g id="Lager_1" data-name="Lager 1">
      <rect id="Rectangle_4" data-name="Rectangle 4" width="212.6" height="637.8" transform="translate(0.36 212.95) rotate(-90)" fill="#fff" stroke="#1d1d1b" stroke-miterlimit="2.61" stroke-width="0.72"/>
    </g>
    <g id="Loggo">
      <g id="Group_1" data-name="Group 1">
        <rect id="Rectangle_5" data-name="Rectangle 5" width="17.44" height="17.44" transform="translate(573.87 82.05)" fill="#1d1d1b"/>
        <path id="Path_1" data-name="Path 1" d="M516.13,62.55c3.41,0,5.96-.76,7.67-2.27s2.56-3.98,2.56-7.38-.85-5.66-2.56-7.15-4.26-2.22-7.67-2.22H499.85V62.55h16.28Zm5.3-30.57a21.728,21.728,0,0,1,8.19,1.47,18.983,18.983,0,0,1,6.25,4.02,17.665,17.665,0,0,1,3.98,5.91,19.042,19.042,0,0,1,1.37,7.24,20.385,20.385,0,0,1-2.51,10.32,15.724,15.724,0,0,1-8.19,6.62v.19a11.539,11.539,0,0,1,4.54,2.32,12.68,12.68,0,0,1,2.93,3.69,17.206,17.206,0,0,1,1.66,4.68,40.761,40.761,0,0,1,.71,5.11c.06,1.08.13,2.34.19,3.79s.17,2.93.33,4.45a29.971,29.971,0,0,0,.76,4.31,9.964,9.964,0,0,0,1.56,3.45H528.34a26.182,26.182,0,0,1-1.52-7.67q-.285-4.44-.85-8.52-.765-5.295-3.22-7.76t-8.04-2.46H499.85V99.55H484.99V31.98h36.44Z" fill="#1d1d1b"/>
        <rect id="Rectangle_6" data-name="Rectangle 6" width="14.86" height="67.57" transform="translate(550.2 31.98)" fill="#1d1d1b"/>
        <path id="Path_2" data-name="Path 2" d="M497.16,154.94a10.7,10.7,0,0,0,3.26,3.83,14.07,14.07,0,0,0,4.78,2.18,22.725,22.725,0,0,0,5.68.71,29.841,29.841,0,0,0,4.26-.33,14.921,14.921,0,0,0,4.26-1.28,9.239,9.239,0,0,0,3.31-2.6,6.541,6.541,0,0,0,1.32-4.21,5.928,5.928,0,0,0-1.75-4.45,14.087,14.087,0,0,0-4.59-2.84,45.561,45.561,0,0,0-6.44-1.99q-3.6-.855-7.29-1.89a63.865,63.865,0,0,1-7.38-2.32,25.362,25.362,0,0,1-6.44-3.55,16.729,16.729,0,0,1-4.59-5.44,16.493,16.493,0,0,1-1.75-7.9,17.642,17.642,0,0,1,2.23-9.04,20.116,20.116,0,0,1,5.82-6.39,25.458,25.458,0,0,1,8.14-3.79,34.665,34.665,0,0,1,9.09-1.23,42.911,42.911,0,0,1,10.17,1.18,25.487,25.487,0,0,1,8.66,3.83,19.392,19.392,0,0,1,6.01,6.77,20.8,20.8,0,0,1,2.23,9.99H521.76a11.884,11.884,0,0,0-1.28-5.01,8.294,8.294,0,0,0-2.89-3.12,12.232,12.232,0,0,0-4.12-1.61,25.017,25.017,0,0,0-5.06-.47,17.616,17.616,0,0,0-3.6.38,9.306,9.306,0,0,0-3.26,1.33,8.13,8.13,0,0,0-2.41,2.37,6.34,6.34,0,0,0-.95,3.6,6.044,6.044,0,0,0,.76,3.22,6.772,6.772,0,0,0,2.98,2.27,36.987,36.987,0,0,0,6.15,2.08q3.93,1.035,10.27,2.65,1.89.375,5.25,1.37a25.138,25.138,0,0,1,6.67,3.17,20.136,20.136,0,0,1,5.73,5.82,16.565,16.565,0,0,1,2.41,9.32,20.626,20.626,0,0,1-1.8,8.61,18.648,18.648,0,0,1-5.35,6.86,25.61,25.61,0,0,1-8.8,4.49,41.7,41.7,0,0,1-12.16,1.61,43,43,0,0,1-10.84-1.37,27.4,27.4,0,0,1-9.28-4.31,21.265,21.265,0,0,1-6.39-7.48,22.315,22.315,0,0,1-2.27-10.79h14.39a12.366,12.366,0,0,0,1.23,5.77" fill="#1d1d1b"/>
        <path id="Path_3" data-name="Path 3" d="M591.28,104.02v12.5H558.15V131h31.12v11.54H558.15v16.57h33.09V171.6H543.29V104.02Z" fill="#1d1d1b"/>
      </g>
      <g id="Group_3" data-name="Group 3">
        <g id="Group_2" data-name="Group 2">
          <path id="Path_4" data-name="Path 4" d="M86.04,111.56c-2.86-1.32-10.69-4.59-18.93-4.59-5.61,0-10.15,3.17-10.15,9.9,0,15.72,34.37,14.29,34.37,36.14,0,14.6-11.95,20.11-26.55,20.11-8.15,0-16.29-2.14-18.51-2.65V162.2c3.28,1.83,11.74,6.13,20.2,6.13,6.67,0,13.22-2.66,13.22-11.95,0-16.53-34.37-15-34.37-36.55,0-11.23,9.27-17.96,24.19-17.96,7.3,0,13.78,1.63,16.54,2.14v7.55Z" fill="#fff" stroke="#134294" stroke-width="0.11"/>
          <path id="Path_5" data-name="Path 5" d="M86.04,111.56c-2.86-1.32-10.69-4.59-18.93-4.59-5.61,0-10.15,3.17-10.15,9.9,0,15.72,34.37,14.29,34.37,36.14,0,14.6-11.95,20.11-26.55,20.11-8.15,0-16.29-2.14-18.51-2.65V162.2c3.28,1.83,11.74,6.13,20.2,6.13,6.67,0,13.22-2.66,13.22-11.95,0-16.53-34.37-15-34.37-36.55,0-11.23,9.27-17.96,24.19-17.96,7.3,0,13.78,1.63,16.54,2.14v7.55Z" fill="#1d1d1b"/>
        </g>
        <path id="Path_6" data-name="Path 6" d="M120.53,58.15l-6.25,25.2H77.75l-6.26-25.2,13.89,15.5L96.01,57.02l10.63,16.63,13.89-15.5" fill="#1d1d1b"/>
        <path id="Path_7" data-name="Path 7" d="M99.21,172.29V104.01a146.627,146.627,0,0,1,20.5-2.15c9.39-.2,15.25.97,20.06,4.93a19.117,19.117,0,0,1,6.92,15.47c-.47,14.38-12.44,22.15-31.63,21.05v-5.89c14.16,1.59,20.19-4.61,20.35-15.25.14-8.73-4.86-15.97-15.66-15.44-8.08.4-8.67,2.12-8.72,5.25v60.31Z" fill="#1d1d1b"/>
        <path id="Path_8" data-name="Path 8" d="M88.56,32.91,83.49,53.32H53.9L48.83,32.91,60.08,45.47,68.7,32l8.61,13.47L88.56,32.91" fill="#1d1d1b"/>
        <path id="Path_9" data-name="Path 9" d="M143.3,32.89l-5.08,20.42H108.63l-5.06-20.42,11.25,12.56,8.61-13.47,8.61,13.47L143.3,32.89" fill="#1d1d1b"/>
      </g>
    </g>
    <g id="Text">
      <g id="Group">
        <path id="Path_18" data-name="Path 18" d="M19.462-5.751a.9.9,0,0,1,.658.287l1.788,1.939A9.818,9.818,0,0,1,18.256-.708a12.583,12.583,0,0,1-5.2.978A12.294,12.294,0,0,1,8.171-.658a10.761,10.761,0,0,1-3.7-2.58A11.3,11.3,0,0,1,2.117-7.184,14.813,14.813,0,0,1,1.3-12.193a13.943,13.943,0,0,1,.877-5.034,11.571,11.571,0,0,1,2.471-3.938,11.182,11.182,0,0,1,3.8-2.572,12.614,12.614,0,0,1,4.891-.919,12.013,12.013,0,0,1,4.731.877,11.27,11.27,0,0,1,3.516,2.294l-1.518,2.108a1.377,1.377,0,0,1-.346.354.98.98,0,0,1-.582.152,1.112,1.112,0,0,1-.523-.143q-.27-.143-.59-.354t-.742-.464a6.108,6.108,0,0,0-.978-.464,7.984,7.984,0,0,0-1.29-.354,8.913,8.913,0,0,0-1.695-.143,7.522,7.522,0,0,0-2.994.582,6.505,6.505,0,0,0-2.336,1.687,7.775,7.775,0,0,0-1.518,2.7,11.308,11.308,0,0,0-.54,3.634,10.683,10.683,0,0,0,.582,3.66A8.046,8.046,0,0,0,8.1-5.835a6.733,6.733,0,0,0,2.344,1.678,7.246,7.246,0,0,0,2.9.582,12.636,12.636,0,0,0,1.678-.1A7.124,7.124,0,0,0,16.4-4a6.14,6.14,0,0,0,1.2-.565,7.482,7.482,0,0,0,1.122-.852,1.6,1.6,0,0,1,.354-.245A.857.857,0,0,1,19.462-5.751ZM29.581-20.778v6.763h8.534v3.491H29.581v6.9H40.409V0H25.028V-24.387H40.409v3.609Z" transform="translate(212.34 69.84)" fill="#1d1d1b"/>
        <path id="Path_17" data-name="Path 17" d="M10.085-12.784a7.022,7.022,0,0,0,2.235-.32,4.32,4.32,0,0,0,1.568-.885,3.556,3.556,0,0,0,.919-1.341,4.636,4.636,0,0,0,.3-1.7,3.463,3.463,0,0,0-1.223-2.85,5.849,5.849,0,0,0-3.736-1h-2.9v8.1ZM21.756,0h-4.1a1.8,1.8,0,0,1-1.687-.911L10.844-8.719a1.8,1.8,0,0,0-.632-.624,2.216,2.216,0,0,0-1.02-.186H7.252V0H2.715V-24.387h7.437a15.462,15.462,0,0,1,4.258.514,8.146,8.146,0,0,1,2.918,1.442,5.641,5.641,0,0,1,1.678,2.218,7.293,7.293,0,0,1,.54,2.842,7.364,7.364,0,0,1-.363,2.327,6.735,6.735,0,0,1-1.046,1.99,7.047,7.047,0,0,1-1.687,1.568,8.458,8.458,0,0,1-2.285,1.062,4.434,4.434,0,0,1,.81.6,4.255,4.255,0,0,1,.675.818Z" transform="translate(254.27 69.84)" fill="#1d1d1b"/>
        <path id="Path_16" data-name="Path 16" d="M19.749-20.66H12.4V0H7.859V-20.66H.506v-3.727H19.749ZM27.507,0H22.953V-24.387h4.554Zm10-20.778v7.218h9.141v3.626H37.508V0H32.954V-24.387H48.335v3.609ZM56.6,0H52.045V-24.387H56.6Zm10-20.778v6.763h8.534v3.491H66.6v6.9H77.427V0H62.046V-24.387H77.427v3.609Zm22.211,7.994a7.022,7.022,0,0,0,2.235-.32,4.32,4.32,0,0,0,1.568-.885,3.556,3.556,0,0,0,.919-1.341,4.636,4.636,0,0,0,.3-1.7,3.463,3.463,0,0,0-1.223-2.85,5.849,5.849,0,0,0-3.736-1h-2.9v8.1ZM100.482,0h-4.1A1.8,1.8,0,0,1,94.7-.911L89.57-8.719a1.8,1.8,0,0,0-.632-.624,2.216,2.216,0,0,0-1.02-.186H85.978V0H81.441V-24.387h7.437a15.462,15.462,0,0,1,4.258.514,8.146,8.146,0,0,1,2.918,1.442,5.641,5.641,0,0,1,1.678,2.218,7.293,7.293,0,0,1,.54,2.842,7.364,7.364,0,0,1-.363,2.327,6.735,6.735,0,0,1-1.046,1.99,7.047,7.047,0,0,1-1.687,1.568,8.458,8.458,0,0,1-2.285,1.062,4.434,4.434,0,0,1,.81.6,4.255,4.255,0,0,1,.675.818Zm15.533-9.208-2.968-8.112q-.219-.54-.455-1.282t-.472-1.6q-.219.86-.455,1.611t-.455,1.307l-2.951,8.078ZM124.025,0h-3.508a1.5,1.5,0,0,1-.961-.3A1.838,1.838,0,0,1,119-1.029L117.178-6h-10.1l-1.821,4.975a1.617,1.617,0,0,1-.523.708,1.459,1.459,0,0,1-.961.32h-3.542l9.6-24.387h4.621ZM148.21-12.193a13.187,13.187,0,0,1-.894,4.925A11.312,11.312,0,0,1,144.8-3.407a11.243,11.243,0,0,1-3.9,2.513,13.738,13.738,0,0,1-5.06.894h-9.293V-24.387h9.293a13.624,13.624,0,0,1,5.06.9,11.406,11.406,0,0,1,3.9,2.513,11.223,11.223,0,0,1,2.513,3.854A13.187,13.187,0,0,1,148.21-12.193Zm-4.655,0a11.356,11.356,0,0,0-.531-3.6,7.462,7.462,0,0,0-1.535-2.7,6.7,6.7,0,0,0-2.429-1.695,8.327,8.327,0,0,0-3.213-.59h-4.739V-3.609h4.739a8.327,8.327,0,0,0,3.213-.59,6.7,6.7,0,0,0,2.429-1.695,7.462,7.462,0,0,0,1.535-2.7A11.356,11.356,0,0,0,143.555-12.193Z" transform="translate(275.42 69.84)" fill="#1d1d1b"/>
        <path id="Path_15" data-name="Path 15" d="M6.358,0H3.086V-24.168H6.358ZM24.893-20.39a1.242,1.242,0,0,1-.329.379.72.72,0,0,1-.43.126,1.2,1.2,0,0,1-.675-.287q-.388-.287-.97-.632a7.8,7.8,0,0,0-1.4-.632,6.023,6.023,0,0,0-1.982-.287,5.785,5.785,0,0,0-1.931.3,4.136,4.136,0,0,0-1.4.8,3.289,3.289,0,0,0-.852,1.189,3.774,3.774,0,0,0-.287,1.476,2.727,2.727,0,0,0,.5,1.678,4.286,4.286,0,0,0,1.315,1.138,10.078,10.078,0,0,0,1.855.818q1.037.346,2.125.717t2.125.835A7.474,7.474,0,0,1,24.412-11.6a5.343,5.343,0,0,1,1.315,1.737,5.781,5.781,0,0,1,.5,2.53,8.159,8.159,0,0,1-.54,2.977,6.862,6.862,0,0,1-1.577,2.42A7.377,7.377,0,0,1,21.562-.32,9.367,9.367,0,0,1,18.13.27a10.464,10.464,0,0,1-4.284-.852,10.051,10.051,0,0,1-3.289-2.3L11.5-4.435a1.242,1.242,0,0,1,.329-.312.771.771,0,0,1,.43-.126.956.956,0,0,1,.5.177q.278.177.632.447t.81.59a6.689,6.689,0,0,0,1.037.59,7.021,7.021,0,0,0,1.324.447,7.211,7.211,0,0,0,1.67.177,6.231,6.231,0,0,0,2.074-.32,4.406,4.406,0,0,0,1.543-.9,3.909,3.909,0,0,0,.97-1.391,4.649,4.649,0,0,0,.337-1.8,3.028,3.028,0,0,0-.5-1.8,4.124,4.124,0,0,0-1.307-1.172,9.08,9.08,0,0,0-1.855-.8q-1.046-.329-2.125-.675a22.54,22.54,0,0,1-2.125-.8,6.865,6.865,0,0,1-1.855-1.181A5.425,5.425,0,0,1,12.084-15.1a6.457,6.457,0,0,1-.5-2.69,6.4,6.4,0,0,1,.5-2.479,6.331,6.331,0,0,1,1.45-2.125,7.085,7.085,0,0,1,2.344-1.484,8.556,8.556,0,0,1,3.2-.557,10.162,10.162,0,0,1,3.685.641,8.7,8.7,0,0,1,2.926,1.855Zm28.266,8.314a13.95,13.95,0,0,1-.86,4.984,11.413,11.413,0,0,1-2.429,3.9A10.854,10.854,0,0,1,46.1-.649a12.711,12.711,0,0,1-4.866.9,12.647,12.647,0,0,1-4.857-.9,10.872,10.872,0,0,1-3.761-2.538,11.413,11.413,0,0,1-2.429-3.9,13.95,13.95,0,0,1-.86-4.984,13.95,13.95,0,0,1,.86-4.984,11.5,11.5,0,0,1,2.429-3.913,10.913,10.913,0,0,1,3.761-2.555,12.544,12.544,0,0,1,4.857-.911,12.607,12.607,0,0,1,4.866.911,10.9,10.9,0,0,1,3.769,2.555A11.5,11.5,0,0,1,52.3-17.059,13.95,13.95,0,0,1,53.158-12.075Zm-3.356,0a12.282,12.282,0,0,0-.607-4,8.454,8.454,0,0,0-1.72-2.994,7.465,7.465,0,0,0-2.7-1.88,9.16,9.16,0,0,0-3.542-.658,9.114,9.114,0,0,0-3.525.658A7.545,7.545,0,0,0,35-19.066a8.385,8.385,0,0,0-1.729,2.994,12.282,12.282,0,0,0-.607,4,12.206,12.206,0,0,0,.607,3.989A8.4,8.4,0,0,0,35-5.1,7.456,7.456,0,0,0,37.71-3.23a9.219,9.219,0,0,0,3.525.649,9.265,9.265,0,0,0,3.542-.649,7.377,7.377,0,0,0,2.7-1.872A8.465,8.465,0,0,0,49.2-8.087,12.206,12.206,0,0,0,49.8-12.075ZM80.024-2.85a1.048,1.048,0,0,1,.776.287,1,1,0,0,1,.287.742V0H64.964V-1.029a1.765,1.765,0,0,1,.135-.658,1.858,1.858,0,0,1,.422-.624l7.741-7.775q.961-.978,1.754-1.88a13.145,13.145,0,0,0,1.349-1.813,8.673,8.673,0,0,0,.86-1.847,6.44,6.44,0,0,0,.3-2,4.773,4.773,0,0,0-.337-1.864,3.654,3.654,0,0,0-.919-1.324A3.817,3.817,0,0,0,74.9-21.6a5.406,5.406,0,0,0-1.7-.261,5.155,5.155,0,0,0-1.7.27,4.576,4.576,0,0,0-1.375.75,4.418,4.418,0,0,0-1,1.138,4.551,4.551,0,0,0-.573,1.45,1.352,1.352,0,0,1-.548.784,1.563,1.563,0,0,1-.97.11l-1.568-.27a8.764,8.764,0,0,1,.919-2.926,7.083,7.083,0,0,1,1.72-2.133,7.322,7.322,0,0,1,2.37-1.307,9.014,9.014,0,0,1,2.884-.447,8.808,8.808,0,0,1,2.867.455,6.7,6.7,0,0,1,2.311,1.324,6.128,6.128,0,0,1,1.535,2.117,6.888,6.888,0,0,1,.557,2.833,7.524,7.524,0,0,1-.4,2.5,9.932,9.932,0,0,1-1.1,2.2,17.011,17.011,0,0,1-1.594,2.041q-.9,1-1.914,2.007l-6.375,6.51a12.572,12.572,0,0,1,1.366-.3,8.511,8.511,0,0,1,1.332-.11Zm21.149-21.317v1.349a2.974,2.974,0,0,1-.126.944,6.337,6.337,0,0,1-.245.624L90.784-1.062a2.238,2.238,0,0,1-.607.75A1.593,1.593,0,0,1,89.148,0H86.99L97.142-19.934a8.31,8.31,0,0,1,.455-.776,7.534,7.534,0,0,1,.506-.675H85.489a.683.683,0,0,1-.506-.228.723.723,0,0,1-.219-.514v-2.041Zm19.884,12.092a19.549,19.549,0,0,1-.683,5.49,11.467,11.467,0,0,1-1.864,3.837,7.488,7.488,0,0,1-2.791,2.26,8.142,8.142,0,0,1-3.449.742,8.069,8.069,0,0,1-3.449-.742,7.527,7.527,0,0,1-2.774-2.26,11.354,11.354,0,0,1-1.855-3.837,19.779,19.779,0,0,1-.675-5.49,19.871,19.871,0,0,1,.675-5.5,11.447,11.447,0,0,1,1.855-3.854,7.5,7.5,0,0,1,2.774-2.268,8.069,8.069,0,0,1,3.449-.742,8.142,8.142,0,0,1,3.449.742,7.458,7.458,0,0,1,2.791,2.268,11.561,11.561,0,0,1,1.864,3.854A19.639,19.639,0,0,1,121.057-12.075Zm-3.12,0a19.753,19.753,0,0,0-.464-4.646,9.315,9.315,0,0,0-1.248-3.027,4.711,4.711,0,0,0-1.813-1.644,4.862,4.862,0,0,0-2.142-.5,4.862,4.862,0,0,0-2.142.5,4.652,4.652,0,0,0-1.8,1.644,9.443,9.443,0,0,0-1.24,3.027,19.752,19.752,0,0,0-.464,4.646,19.643,19.643,0,0,0,.464,4.638,9.444,9.444,0,0,0,1.24,3.019,4.652,4.652,0,0,0,1.8,1.644,4.862,4.862,0,0,0,2.142.5,4.862,4.862,0,0,0,2.142-.5,4.711,4.711,0,0,0,1.813-1.644,9.316,9.316,0,0,0,1.248-3.019A19.643,19.643,0,0,0,117.937-12.075Zm22.683,0a19.548,19.548,0,0,1-.683,5.49,11.467,11.467,0,0,1-1.864,3.837,7.488,7.488,0,0,1-2.791,2.26,8.142,8.142,0,0,1-3.449.742,8.069,8.069,0,0,1-3.449-.742,7.527,7.527,0,0,1-2.774-2.26,11.354,11.354,0,0,1-1.855-3.837,19.779,19.779,0,0,1-.675-5.49,19.871,19.871,0,0,1,.675-5.5,11.447,11.447,0,0,1,1.855-3.854,7.5,7.5,0,0,1,2.774-2.268,8.069,8.069,0,0,1,3.449-.742,8.142,8.142,0,0,1,3.449.742,7.458,7.458,0,0,1,2.791,2.268,11.561,11.561,0,0,1,1.864,3.854A19.639,19.639,0,0,1,140.62-12.075Zm-3.12,0a19.753,19.753,0,0,0-.464-4.646,9.315,9.315,0,0,0-1.248-3.027,4.711,4.711,0,0,0-1.813-1.644,4.862,4.862,0,0,0-2.142-.5,4.862,4.862,0,0,0-2.142.5,4.652,4.652,0,0,0-1.8,1.644,9.443,9.443,0,0,0-1.24,3.027,19.752,19.752,0,0,0-.464,4.646,19.643,19.643,0,0,0,.464,4.638,9.444,9.444,0,0,0,1.24,3.019,4.652,4.652,0,0,0,1.8,1.644,4.862,4.862,0,0,0,2.142.5,4.862,4.862,0,0,0,2.142-.5,4.711,4.711,0,0,0,1.813-1.644,9.316,9.316,0,0,0,1.248-3.019A19.643,19.643,0,0,0,137.5-12.075Zm21.3,9.782V0H145.849V-2.294h5.178V-18.771q0-.742.051-1.5l-4.3,3.693a.971.971,0,0,1-.438.228,1.1,1.1,0,0,1-.4.008.965.965,0,0,1-.346-.135.857.857,0,0,1-.245-.219l-.944-1.3,7.2-6.223h2.445V-2.294Z" transform="translate(239.52 105.84)" fill="#1d1d1b"/>
        <path id="Path_14" data-name="Path 14" d="M10.338-1.692V0H1.9V-14.875h2V-1.692Z" transform="translate(229.25 132.84)" fill="#1d1d1b"/>
        <path id="Path_13" data-name="Path 13" d="M8.5-6.4A3.643,3.643,0,0,0,8.32-7.583a2.646,2.646,0,0,0-.529-.924,2.362,2.362,0,0,0-.846-.6,2.856,2.856,0,0,0-1.131-.213,2.84,2.84,0,0,0-2.1.773A3.623,3.623,0,0,0,2.751-6.4ZM10-1.474a3.509,3.509,0,0,1-.82.721,5.106,5.106,0,0,1-1.022.5,6.494,6.494,0,0,1-1.126.3,6.879,6.879,0,0,1-1.152.1A5.347,5.347,0,0,1,3.867-.223,4.408,4.408,0,0,1,2.278-1.3,4.952,4.952,0,0,1,1.235-3.062,7.154,7.154,0,0,1,.862-5.47,6.127,6.127,0,0,1,1.2-7.526a4.844,4.844,0,0,1,.971-1.656,4.468,4.468,0,0,1,1.547-1.1,5.077,5.077,0,0,1,2.055-.4,4.734,4.734,0,0,1,1.749.317,3.956,3.956,0,0,1,1.391.913A4.185,4.185,0,0,1,9.83-7.977a5.614,5.614,0,0,1,.332,2,1.2,1.2,0,0,1-.093.581.388.388,0,0,1-.353.145H2.688a6.148,6.148,0,0,0,.275,1.733,3.482,3.482,0,0,0,.68,1.23,2.745,2.745,0,0,0,1.038.737,3.565,3.565,0,0,0,1.349.244,3.959,3.959,0,0,0,1.2-.161A5.7,5.7,0,0,0,8.1-1.816,6.611,6.611,0,0,0,8.7-2.164a.805.805,0,0,1,.42-.161.407.407,0,0,1,.353.176Zm9.28-6.539a2.986,2.986,0,0,0-1.121-.971,3.21,3.21,0,0,0-1.349-.275,2.651,2.651,0,0,0-2.252,1.048,4.9,4.9,0,0,0-.789,2.989,7.6,7.6,0,0,0,.176,1.759,3.385,3.385,0,0,0,.519,1.2,2.04,2.04,0,0,0,.841.69,2.8,2.8,0,0,0,1.131.218,3,3,0,0,0,1.593-.415,4.563,4.563,0,0,0,1.251-1.173Zm1.848-7.276V0h-1.1a.471.471,0,0,1-.5-.384l-.166-1.277A5.725,5.725,0,0,1,17.822-.353a3.909,3.909,0,0,1-1.993.5A3.8,3.8,0,0,1,14.189-.2a3.4,3.4,0,0,1-1.256-1.022,4.87,4.87,0,0,1-.8-1.682,8.657,8.657,0,0,1-.28-2.315,7.255,7.255,0,0,1,.311-2.164,5.332,5.332,0,0,1,.893-1.739,4.143,4.143,0,0,1,1.427-1.157,4.222,4.222,0,0,1,1.9-.42,3.84,3.84,0,0,1,1.656.327,4.013,4.013,0,0,1,1.23.908V-15.29Zm4.671,6.3a6.239,6.239,0,0,1,.727-.7,4.79,4.79,0,0,1,.815-.535,4.137,4.137,0,0,1,.913-.343,4.337,4.337,0,0,1,1.043-.119,3.8,3.8,0,0,1,1.521.285,2.942,2.942,0,0,1,1.1.81,3.576,3.576,0,0,1,.67,1.261,5.488,5.488,0,0,1,.228,1.63V0H30.953V-6.7a2.83,2.83,0,0,0-.545-1.853,2.024,2.024,0,0,0-1.656-.659,3.106,3.106,0,0,0-1.531.394,5.042,5.042,0,0,0-1.313,1.069V0H24.05V-10.515h1.111a.456.456,0,0,1,.488.384Zm11.792-1.526V0H35.738V-10.515Zm.394-3.3a1.176,1.176,0,0,1-.109.5,1.45,1.45,0,0,1-.291.415,1.334,1.334,0,0,1-.426.285,1.3,1.3,0,0,1-.514.1,1.225,1.225,0,0,1-.5-.1,1.305,1.305,0,0,1-.41-.285,1.417,1.417,0,0,1-.28-.415,1.225,1.225,0,0,1-.1-.5,1.3,1.3,0,0,1,.1-.514,1.379,1.379,0,0,1,.28-.426,1.305,1.305,0,0,1,.41-.285,1.225,1.225,0,0,1,.5-.1,1.3,1.3,0,0,1,.514.1,1.334,1.334,0,0,1,.426.285,1.408,1.408,0,0,1,.291.426A1.246,1.246,0,0,1,37.98-13.816Zm4.38,4.827a6.239,6.239,0,0,1,.727-.7,4.79,4.79,0,0,1,.815-.535,4.137,4.137,0,0,1,.913-.343,4.337,4.337,0,0,1,1.043-.119,3.8,3.8,0,0,1,1.521.285,2.942,2.942,0,0,1,1.1.81,3.576,3.576,0,0,1,.67,1.261,5.488,5.488,0,0,1,.228,1.63V0H47.52V-6.7a2.83,2.83,0,0,0-.545-1.853,2.024,2.024,0,0,0-1.656-.659,3.106,3.106,0,0,0-1.531.394,5.042,5.042,0,0,0-1.313,1.069V0H40.617V-10.515h1.111a.456.456,0,0,1,.488.384Zm13.5,3.851a2.864,2.864,0,0,0,.986-.156,2.011,2.011,0,0,0,.716-.436A1.783,1.783,0,0,0,58-6.4a2.431,2.431,0,0,0,.145-.856,2.045,2.045,0,0,0-.586-1.536,2.336,2.336,0,0,0-1.7-.571,2.351,2.351,0,0,0-1.708.571,2.045,2.045,0,0,0-.586,1.536,2.356,2.356,0,0,0,.151.856,1.838,1.838,0,0,0,.441.67,2.011,2.011,0,0,0,.716.436A2.864,2.864,0,0,0,55.865-5.138ZM59.2.571a.888.888,0,0,0-.218-.623,1.453,1.453,0,0,0-.586-.374,3.773,3.773,0,0,0-.856-.192Q57.048-.675,56.5-.706L55.4-.768q-.561-.031-1.08-.1a2.894,2.894,0,0,0-.95.68A1.391,1.391,0,0,0,53,.768a1.27,1.27,0,0,0,.182.659,1.548,1.548,0,0,0,.555.529,3.251,3.251,0,0,0,.939.353,6.026,6.026,0,0,0,1.334.13A6.045,6.045,0,0,0,57.35,2.3a3.362,3.362,0,0,0,1-.384,1.886,1.886,0,0,0,.628-.592A1.383,1.383,0,0,0,59.2.571ZM61.076-10.1v.685q0,.343-.436.436l-1.194.156A3.26,3.26,0,0,1,59.8-7.308a3.235,3.235,0,0,1-.3,1.4,3.2,3.2,0,0,1-.815,1.074,3.616,3.616,0,0,1-1.246.685,5.027,5.027,0,0,1-1.578.239,5.319,5.319,0,0,1-1.391-.176,1.869,1.869,0,0,0-.509.441.779.779,0,0,0-.176.472.626.626,0,0,0,.306.566,2.192,2.192,0,0,0,.8.275,8.691,8.691,0,0,0,1.137.1q.638.021,1.308.067A12.277,12.277,0,0,1,58.652-2a3.954,3.954,0,0,1,1.137.374,2.144,2.144,0,0,1,.8.716A2.086,2.086,0,0,1,60.9.27a2.748,2.748,0,0,1-.337,1.308A3.539,3.539,0,0,1,59.592,2.7a4.992,4.992,0,0,1-1.552.789,6.741,6.741,0,0,1-2.071.3,7.908,7.908,0,0,1-2.014-.228,4.726,4.726,0,0,1-1.432-.612,2.669,2.669,0,0,1-.856-.887,2.106,2.106,0,0,1-.285-1.054,1.9,1.9,0,0,1,.488-1.318,3.373,3.373,0,0,1,1.339-.862,1.916,1.916,0,0,1-.742-.555,1.473,1.473,0,0,1-.275-.939,1.462,1.462,0,0,1,.083-.472,1.942,1.942,0,0,1,.254-.488,2.607,2.607,0,0,1,.42-.462,2.733,2.733,0,0,1,.581-.384,3.232,3.232,0,0,1-1.214-1.157,3.177,3.177,0,0,1-.436-1.676,3.235,3.235,0,0,1,.3-1.4A3.087,3.087,0,0,1,53-9.773a3.774,3.774,0,0,1,1.261-.68,5.146,5.146,0,0,1,1.6-.239,5.167,5.167,0,0,1,1.277.151,4.044,4.044,0,0,1,1.08.441ZM69.12-8.781a.41.41,0,0,1-.384.228.723.723,0,0,1-.353-.114q-.2-.114-.483-.254a4.533,4.533,0,0,0-.68-.26,3.243,3.243,0,0,0-.934-.119,2.757,2.757,0,0,0-.841.119,2.019,2.019,0,0,0-.638.327,1.446,1.446,0,0,0-.4.483,1.3,1.3,0,0,0-.14.6A.994.994,0,0,0,64.5-7.1a2.03,2.03,0,0,0,.618.467,5.384,5.384,0,0,0,.872.348q.488.151,1,.322t1,.379a3.635,3.635,0,0,1,.872.519,2.374,2.374,0,0,1,.618.763,2.335,2.335,0,0,1,.234,1.085,3.435,3.435,0,0,1-.259,1.344A2.933,2.933,0,0,1,68.684-.8a3.7,3.7,0,0,1-1.246.711,5.117,5.117,0,0,1-1.7.26,5.31,5.31,0,0,1-1.993-.358,5.05,5.05,0,0,1-1.515-.919l.436-.706a.633.633,0,0,1,.2-.208.532.532,0,0,1,.291-.073.7.7,0,0,1,.394.145q.208.145.5.322a3.831,3.831,0,0,0,.721.322,3.313,3.313,0,0,0,1.059.145,2.888,2.888,0,0,0,.945-.14,1.984,1.984,0,0,0,.675-.379,1.5,1.5,0,0,0,.4-.55,1.71,1.71,0,0,0,.13-.664,1.1,1.1,0,0,0-.234-.721,1.971,1.971,0,0,0-.618-.488,5.033,5.033,0,0,0-.877-.353q-.493-.151-1.007-.317t-1.007-.379a3.54,3.54,0,0,1-.877-.535,2.422,2.422,0,0,1-.618-.794,2.568,2.568,0,0,1-.234-1.147,2.8,2.8,0,0,1,.249-1.157,2.838,2.838,0,0,1,.727-.976,3.578,3.578,0,0,1,1.173-.67,4.694,4.694,0,0,1,1.588-.249,5.023,5.023,0,0,1,1.863.327,4.409,4.409,0,0,1,1.427.9Zm8.989,0a.409.409,0,0,1-.384.228.723.723,0,0,1-.353-.114q-.2-.114-.483-.254a4.533,4.533,0,0,0-.68-.26,3.243,3.243,0,0,0-.934-.119,2.757,2.757,0,0,0-.841.119,2.019,2.019,0,0,0-.638.327,1.446,1.446,0,0,0-.4.483,1.3,1.3,0,0,0-.14.6.994.994,0,0,0,.234.675,2.029,2.029,0,0,0,.618.467,5.384,5.384,0,0,0,.872.348q.488.151,1,.322t1,.379a3.635,3.635,0,0,1,.872.519,2.374,2.374,0,0,1,.618.763A2.335,2.335,0,0,1,78.7-3.218a3.435,3.435,0,0,1-.259,1.344A2.933,2.933,0,0,1,77.674-.8a3.7,3.7,0,0,1-1.246.711,5.117,5.117,0,0,1-1.7.26,5.31,5.31,0,0,1-1.993-.358,5.05,5.05,0,0,1-1.515-.919l.436-.706a.633.633,0,0,1,.2-.208.532.532,0,0,1,.291-.073.7.7,0,0,1,.394.145q.208.145.5.322a3.831,3.831,0,0,0,.721.322,3.313,3.313,0,0,0,1.059.145,2.888,2.888,0,0,0,.945-.14,1.984,1.984,0,0,0,.675-.379,1.5,1.5,0,0,0,.4-.55,1.71,1.71,0,0,0,.13-.664,1.1,1.1,0,0,0-.234-.721,1.971,1.971,0,0,0-.618-.488,5.033,5.033,0,0,0-.877-.353q-.493-.151-1.007-.317t-1.007-.379a3.539,3.539,0,0,1-.877-.535,2.422,2.422,0,0,1-.618-.794A2.568,2.568,0,0,1,71.5-7.629a2.8,2.8,0,0,1,.249-1.157,2.838,2.838,0,0,1,.727-.976,3.578,3.578,0,0,1,1.173-.67,4.694,4.694,0,0,1,1.588-.249,5.023,5.023,0,0,1,1.863.327,4.409,4.409,0,0,1,1.427.9Zm11.75-1.733L83.995,3.1a.967.967,0,0,1-.234.332.634.634,0,0,1-.431.125H81.96l1.92-4.173-4.339-9.9h1.6a.565.565,0,0,1,.379.119.626.626,0,0,1,.192.265l2.813,6.622a7.392,7.392,0,0,1,.28.913q.145-.488.311-.924l2.73-6.612a.59.59,0,0,1,.213-.275.561.561,0,0,1,.337-.109Zm7.567,1.733a.41.41,0,0,1-.384.228.723.723,0,0,1-.353-.114q-.2-.114-.483-.254a4.533,4.533,0,0,0-.68-.26,3.243,3.243,0,0,0-.934-.119,2.757,2.757,0,0,0-.841.119,2.019,2.019,0,0,0-.638.327,1.446,1.446,0,0,0-.4.483,1.3,1.3,0,0,0-.14.6A.994.994,0,0,0,92.8-7.1a2.029,2.029,0,0,0,.618.467,5.384,5.384,0,0,0,.872.348q.488.151,1,.322t1,.379a3.635,3.635,0,0,1,.872.519,2.374,2.374,0,0,1,.618.763,2.335,2.335,0,0,1,.234,1.085,3.435,3.435,0,0,1-.26,1.344A2.933,2.933,0,0,1,96.991-.8a3.7,3.7,0,0,1-1.246.711,5.117,5.117,0,0,1-1.7.26A5.31,5.31,0,0,1,92.05-.192a5.05,5.05,0,0,1-1.515-.919l.436-.706a.633.633,0,0,1,.2-.208.532.532,0,0,1,.291-.073.7.7,0,0,1,.394.145q.208.145.5.322a3.831,3.831,0,0,0,.721.322,3.313,3.313,0,0,0,1.059.145,2.888,2.888,0,0,0,.945-.14,1.984,1.984,0,0,0,.675-.379,1.5,1.5,0,0,0,.4-.55,1.71,1.71,0,0,0,.13-.664,1.1,1.1,0,0,0-.234-.721,1.971,1.971,0,0,0-.618-.488,5.033,5.033,0,0,0-.877-.353q-.493-.151-1.007-.317t-1.007-.379a3.539,3.539,0,0,1-.877-.535,2.422,2.422,0,0,1-.618-.794,2.568,2.568,0,0,1-.234-1.147,2.8,2.8,0,0,1,.249-1.157,2.838,2.838,0,0,1,.727-.976,3.578,3.578,0,0,1,1.173-.67,4.694,4.694,0,0,1,1.588-.249,5.023,5.023,0,0,1,1.863.327,4.409,4.409,0,0,1,1.427.9ZM103.52.166a2.535,2.535,0,0,1-1.915-.7,2.775,2.775,0,0,1-.67-2V-8.968H99.669a.414.414,0,0,1-.28-.1.383.383,0,0,1-.114-.306v-.737L101-10.328l.426-3.249a.452.452,0,0,1,.14-.254.409.409,0,0,1,.285-.1h.934v3.623h3.041v1.339h-3.041v6.311a1.342,1.342,0,0,0,.322.986,1.124,1.124,0,0,0,.83.322,1.466,1.466,0,0,0,.5-.078,2.16,2.16,0,0,0,.368-.171q.156-.093.265-.171a.346.346,0,0,1,.192-.078.318.318,0,0,1,.259.176l.54.882a3.442,3.442,0,0,1-1.152.7A3.912,3.912,0,0,1,103.52.166ZM114.72-6.4a3.643,3.643,0,0,0-.182-1.178,2.646,2.646,0,0,0-.529-.924,2.362,2.362,0,0,0-.846-.6,2.856,2.856,0,0,0-1.131-.213,2.84,2.84,0,0,0-2.1.773,3.623,3.623,0,0,0-.96,2.143Zm1.495,4.93a3.509,3.509,0,0,1-.82.721,5.106,5.106,0,0,1-1.022.5,6.494,6.494,0,0,1-1.126.3,6.879,6.879,0,0,1-1.152.1,5.347,5.347,0,0,1-2.009-.368A4.408,4.408,0,0,1,108.5-1.3a4.952,4.952,0,0,1-1.043-1.759,7.154,7.154,0,0,1-.374-2.408,6.127,6.127,0,0,1,.337-2.055,4.844,4.844,0,0,1,.971-1.656,4.468,4.468,0,0,1,1.547-1.1,5.077,5.077,0,0,1,2.055-.4,4.734,4.734,0,0,1,1.749.317,3.956,3.956,0,0,1,1.391.913,4.185,4.185,0,0,1,.919,1.474,5.614,5.614,0,0,1,.332,2,1.2,1.2,0,0,1-.093.581.388.388,0,0,1-.353.145h-7.027a6.148,6.148,0,0,0,.275,1.733,3.482,3.482,0,0,0,.68,1.23,2.745,2.745,0,0,0,1.038.737,3.565,3.565,0,0,0,1.349.244,3.959,3.959,0,0,0,1.2-.161,5.7,5.7,0,0,0,.867-.348,6.611,6.611,0,0,0,.607-.348.805.805,0,0,1,.42-.161.407.407,0,0,1,.353.176ZM118.643,0V-10.515h1.111a.456.456,0,0,1,.488.384l.135,1.08a5.352,5.352,0,0,1,1.308-1.173,3.093,3.093,0,0,1,1.682-.457,2.474,2.474,0,0,1,1.718.592,3.328,3.328,0,0,1,.95,1.6,3.465,3.465,0,0,1,.586-.986,3.346,3.346,0,0,1,.8-.685,3.407,3.407,0,0,1,.95-.394,4.241,4.241,0,0,1,1.022-.125,3.888,3.888,0,0,1,1.479.265,2.928,2.928,0,0,1,1.1.773,3.445,3.445,0,0,1,.69,1.251,5.539,5.539,0,0,1,.239,1.7V0h-1.858V-6.7a2.834,2.834,0,0,0-.54-1.874,1.925,1.925,0,0,0-1.557-.638,2.351,2.351,0,0,0-.867.161,2.089,2.089,0,0,0-.721.472,2.214,2.214,0,0,0-.493.784,3.04,3.04,0,0,0-.182,1.1V0H124.83V-6.7a2.946,2.946,0,0,0-.509-1.889,1.8,1.8,0,0,0-1.484-.623,2.32,2.32,0,0,0-1.266.368,4.2,4.2,0,0,0-1.069,1V0Zm23.075,0V-8.937l-1.163-.135a.925.925,0,0,1-.358-.161.377.377,0,0,1-.14-.317v-.758h1.661v-1.017a4.685,4.685,0,0,1,.254-1.6,3.251,3.251,0,0,1,.727-1.183,3.079,3.079,0,0,1,1.137-.732,4.232,4.232,0,0,1,1.495-.249,3.9,3.9,0,0,1,1.3.208l-.042.924a.268.268,0,0,1-.275.27q-.254.021-.68.021a2.835,2.835,0,0,0-.867.125,1.638,1.638,0,0,0-.67.4,1.833,1.833,0,0,0-.431.737,3.656,3.656,0,0,0-.151,1.131v.965h3.031v1.339h-2.969V0ZM152.4-10.681a5.362,5.362,0,0,1,2.076.384,4.449,4.449,0,0,1,1.578,1.09,4.784,4.784,0,0,1,1,1.708,6.789,6.789,0,0,1,.348,2.237,6.777,6.777,0,0,1-.348,2.242,4.791,4.791,0,0,1-1,1.7,4.393,4.393,0,0,1-1.578,1.085A5.427,5.427,0,0,1,152.4.145a5.5,5.5,0,0,1-2.092-.379,4.383,4.383,0,0,1-1.583-1.085,4.791,4.791,0,0,1-1-1.7,6.777,6.777,0,0,1-.348-2.242,6.789,6.789,0,0,1,.348-2.237,4.784,4.784,0,0,1,1-1.708,4.439,4.439,0,0,1,1.583-1.09A5.429,5.429,0,0,1,152.4-10.681Zm0,9.384a2.7,2.7,0,0,0,2.325-1.043,4.83,4.83,0,0,0,.768-2.912,4.874,4.874,0,0,0-.768-2.927A2.694,2.694,0,0,0,152.4-9.228a3.262,3.262,0,0,0-1.375.27,2.555,2.555,0,0,0-.976.779,3.458,3.458,0,0,0-.581,1.251,6.7,6.7,0,0,0-.192,1.676,4.806,4.806,0,0,0,.773,2.912A2.736,2.736,0,0,0,152.4-1.3Zm-.8-12.082a1.075,1.075,0,0,1-.093.446,1.127,1.127,0,0,1-.26.363,1.333,1.333,0,0,1-.379.249,1.111,1.111,0,0,1-.452.093,1.051,1.051,0,0,1-.436-.093,1.282,1.282,0,0,1-.368-.249,1.167,1.167,0,0,1-.254-.363,1.075,1.075,0,0,1-.093-.446,1.147,1.147,0,0,1,.093-.457,1.2,1.2,0,0,1,.254-.379,1.232,1.232,0,0,1,.368-.254,1.051,1.051,0,0,1,.436-.093,1.111,1.111,0,0,1,.452.093,1.279,1.279,0,0,1,.379.254,1.155,1.155,0,0,1,.26.379A1.148,1.148,0,0,1,151.6-13.38Zm3.955,0a1.075,1.075,0,0,1-.093.446,1.167,1.167,0,0,1-.254.363,1.261,1.261,0,0,1-.374.249,1.111,1.111,0,0,1-.452.093,1.111,1.111,0,0,1-.452-.093,1.194,1.194,0,0,1-.368-.249,1.212,1.212,0,0,1-.249-.363,1.075,1.075,0,0,1-.093-.446,1.148,1.148,0,0,1,.093-.457,1.242,1.242,0,0,1,.249-.379,1.151,1.151,0,0,1,.368-.254,1.111,1.111,0,0,1,.452-.093,1.111,1.111,0,0,1,.452.093,1.213,1.213,0,0,1,.374.254,1.2,1.2,0,0,1,.254.379A1.148,1.148,0,0,1,155.555-13.38Zm5.937,4.972a4.741,4.741,0,0,1,1.225-1.687,2.675,2.675,0,0,1,1.775-.607,2.756,2.756,0,0,1,.638.073,1.712,1.712,0,0,1,.545.228L165.54-9.02a.3.3,0,0,1-.311.26,2.143,2.143,0,0,1-.426-.062,2.93,2.93,0,0,0-.633-.062,2.526,2.526,0,0,0-.887.145,2.075,2.075,0,0,0-.7.431,3.044,3.044,0,0,0-.55.706,6.05,6.05,0,0,0-.441.96V0h-1.858V-10.515H160.8a.584.584,0,0,1,.415.114.7.7,0,0,1,.156.394Z" transform="translate(239.55 132.84)" fill="#1d1d1b"/>
        <path id="Path_12" data-name="Path 12" d="M3.415-10.515V0H1.567V-10.515Zm.394-3.3a1.176,1.176,0,0,1-.109.5,1.45,1.45,0,0,1-.291.415,1.334,1.334,0,0,1-.426.285,1.3,1.3,0,0,1-.514.1,1.225,1.225,0,0,1-.5-.1,1.305,1.305,0,0,1-.41-.285,1.417,1.417,0,0,1-.28-.415,1.225,1.225,0,0,1-.1-.5,1.3,1.3,0,0,1,.1-.514,1.379,1.379,0,0,1,.28-.426,1.305,1.305,0,0,1,.41-.285,1.225,1.225,0,0,1,.5-.1,1.3,1.3,0,0,1,.514.1,1.334,1.334,0,0,1,.426.285,1.408,1.408,0,0,1,.291.426A1.246,1.246,0,0,1,3.809-13.816ZM8.19-8.989a6.239,6.239,0,0,1,.727-.7,4.79,4.79,0,0,1,.815-.535,4.137,4.137,0,0,1,.913-.343,4.337,4.337,0,0,1,1.043-.119,3.8,3.8,0,0,1,1.521.285,2.942,2.942,0,0,1,1.1.81,3.576,3.576,0,0,1,.67,1.261,5.488,5.488,0,0,1,.228,1.63V0H13.349V-6.7A2.83,2.83,0,0,0,12.8-8.548a2.024,2.024,0,0,0-1.656-.659,3.106,3.106,0,0,0-1.531.394A5.042,5.042,0,0,0,8.3-7.743V0H6.446V-10.515H7.557a.456.456,0,0,1,.488.384ZM18.549,0V-8.937l-1.163-.135a.925.925,0,0,1-.358-.161.377.377,0,0,1-.14-.317v-.758h1.661v-1.017a4.685,4.685,0,0,1,.254-1.6,3.251,3.251,0,0,1,.727-1.183,3.079,3.079,0,0,1,1.137-.732,4.232,4.232,0,0,1,1.495-.249,3.9,3.9,0,0,1,1.3.208l-.042.924a.268.268,0,0,1-.275.27q-.254.021-.68.021a2.835,2.835,0,0,0-.867.125,1.638,1.638,0,0,0-.67.4,1.833,1.833,0,0,0-.431.737,3.656,3.656,0,0,0-.151,1.131v.965h3.031v1.339H20.407V0ZM29.23-10.681a5.362,5.362,0,0,1,2.076.384,4.449,4.449,0,0,1,1.578,1.09,4.784,4.784,0,0,1,1,1.708,6.789,6.789,0,0,1,.348,2.237,6.777,6.777,0,0,1-.348,2.242,4.791,4.791,0,0,1-1,1.7A4.393,4.393,0,0,1,31.306-.234,5.427,5.427,0,0,1,29.23.145a5.5,5.5,0,0,1-2.092-.379,4.383,4.383,0,0,1-1.583-1.085,4.791,4.791,0,0,1-1-1.7,6.777,6.777,0,0,1-.348-2.242A6.789,6.789,0,0,1,24.554-7.5a4.784,4.784,0,0,1,1-1.708,4.438,4.438,0,0,1,1.583-1.09A5.429,5.429,0,0,1,29.23-10.681Zm0,9.384a2.7,2.7,0,0,0,2.325-1.043,4.83,4.83,0,0,0,.768-2.912,4.874,4.874,0,0,0-.768-2.927A2.694,2.694,0,0,0,29.23-9.228a3.262,3.262,0,0,0-1.375.27,2.555,2.555,0,0,0-.976.779A3.458,3.458,0,0,0,26.3-6.929a6.7,6.7,0,0,0-.192,1.676,4.806,4.806,0,0,0,.773,2.912A2.736,2.736,0,0,0,29.23-1.3Zm9.093-7.11a4.741,4.741,0,0,1,1.225-1.687,2.676,2.676,0,0,1,1.775-.607,2.756,2.756,0,0,1,.638.073,1.712,1.712,0,0,1,.545.228L42.371-9.02a.3.3,0,0,1-.311.26,2.143,2.143,0,0,1-.426-.062A2.93,2.93,0,0,0,41-8.885a2.526,2.526,0,0,0-.887.145,2.075,2.075,0,0,0-.7.431,3.044,3.044,0,0,0-.55.706,6.05,6.05,0,0,0-.441.96V0H36.569V-10.515h1.059a.584.584,0,0,1,.415.114.7.7,0,0,1,.156.394ZM44.125,0V-10.515h1.111a.456.456,0,0,1,.488.384l.135,1.08a5.352,5.352,0,0,1,1.308-1.173,3.093,3.093,0,0,1,1.682-.457,2.474,2.474,0,0,1,1.718.592,3.328,3.328,0,0,1,.95,1.6,3.465,3.465,0,0,1,.586-.986,3.346,3.346,0,0,1,.8-.685,3.407,3.407,0,0,1,.95-.394,4.241,4.241,0,0,1,1.022-.125,3.888,3.888,0,0,1,1.479.265,2.928,2.928,0,0,1,1.1.773,3.444,3.444,0,0,1,.69,1.251,5.539,5.539,0,0,1,.239,1.7V0H56.529V-6.7a2.834,2.834,0,0,0-.54-1.874,1.925,1.925,0,0,0-1.557-.638,2.351,2.351,0,0,0-.867.161,2.088,2.088,0,0,0-.721.472,2.214,2.214,0,0,0-.493.784,3.04,3.04,0,0,0-.182,1.1V0H50.312V-6.7A2.946,2.946,0,0,0,49.8-8.584a1.8,1.8,0,0,0-1.484-.623,2.32,2.32,0,0,0-1.266.368,4.2,4.2,0,0,0-1.069,1V0ZM66.9-4.733a15.4,15.4,0,0,0-2.175.2,6.184,6.184,0,0,0-1.464.42,2.021,2.021,0,0,0-.82.612,1.317,1.317,0,0,0-.254.789,1.741,1.741,0,0,0,.135.716,1.331,1.331,0,0,0,.368.493,1.48,1.48,0,0,0,.55.28,2.523,2.523,0,0,0,.68.088,3.772,3.772,0,0,0,.893-.1,3.364,3.364,0,0,0,.763-.285,4.3,4.3,0,0,0,.685-.446,5.936,5.936,0,0,0,.638-.592Zm-5.969-4.3a6,6,0,0,1,1.879-1.256,5.8,5.8,0,0,1,2.232-.415,3.982,3.982,0,0,1,1.567.291,3.214,3.214,0,0,1,1.152.81,3.429,3.429,0,0,1,.706,1.256,5.231,5.231,0,0,1,.239,1.619V0h-.82a.805.805,0,0,1-.415-.088.6.6,0,0,1-.228-.348l-.208-1a10.3,10.3,0,0,1-.81.68,4.634,4.634,0,0,1-.83.5,4.511,4.511,0,0,1-.929.311,5.083,5.083,0,0,1-1.1.109,3.788,3.788,0,0,1-1.152-.171,2.662,2.662,0,0,1-.939-.514,2.417,2.417,0,0,1-.633-.867,3.029,3.029,0,0,1-.234-1.24,2.314,2.314,0,0,1,.343-1.2,3,3,0,0,1,1.111-1.022,7.285,7.285,0,0,1,2-.732A15.276,15.276,0,0,1,66.9-5.906v-.82a2.811,2.811,0,0,0-.529-1.853,1.909,1.909,0,0,0-1.547-.628,3.325,3.325,0,0,0-1.147.171,4.3,4.3,0,0,0-.8.384q-.337.213-.581.384a.838.838,0,0,1-.483.171.53.53,0,0,1-.322-.1.9.9,0,0,1-.228-.244ZM81.14,0H79.293V-8.968H73.874v6.311a1.342,1.342,0,0,0,.322.986,1.124,1.124,0,0,0,.83.322,1.466,1.466,0,0,0,.5-.078A2.16,2.16,0,0,0,75.9-1.6q.156-.093.265-.171a.346.346,0,0,1,.192-.078.318.318,0,0,1,.259.176l.54.882A3.442,3.442,0,0,1,76-.088a3.912,3.912,0,0,1-1.391.254,2.535,2.535,0,0,1-1.915-.7,2.775,2.775,0,0,1-.67-2V-8.968H70.76a.414.414,0,0,1-.28-.1.383.383,0,0,1-.114-.306v-.737l1.723-.228.426-3.239a.452.452,0,0,1,.14-.254.409.409,0,0,1,.285-.1h.934v3.623H81.14ZM81.6-13.888a1.176,1.176,0,0,1-.109.5,1.38,1.38,0,0,1-.291.41,1.4,1.4,0,0,1-.42.28,1.262,1.262,0,0,1-.509.1,1.225,1.225,0,0,1-.5-.1,1.349,1.349,0,0,1-.41-.28,1.349,1.349,0,0,1-.28-.41,1.225,1.225,0,0,1-.1-.5,1.3,1.3,0,0,1,.1-.514,1.379,1.379,0,0,1,.28-.426,1.305,1.305,0,0,1,.41-.285,1.225,1.225,0,0,1,.5-.1,1.262,1.262,0,0,1,.509.1,1.35,1.35,0,0,1,.42.285,1.408,1.408,0,0,1,.291.426A1.246,1.246,0,0,1,81.6-13.888ZM88.6-10.681a5.362,5.362,0,0,1,2.076.384,4.449,4.449,0,0,1,1.578,1.09,4.784,4.784,0,0,1,1,1.708,6.789,6.789,0,0,1,.348,2.237,6.777,6.777,0,0,1-.348,2.242,4.791,4.791,0,0,1-1,1.7A4.392,4.392,0,0,1,90.68-.234,5.427,5.427,0,0,1,88.6.145a5.5,5.5,0,0,1-2.092-.379,4.383,4.383,0,0,1-1.583-1.085,4.791,4.791,0,0,1-1-1.7,6.777,6.777,0,0,1-.348-2.242A6.789,6.789,0,0,1,83.927-7.5a4.784,4.784,0,0,1,1-1.708,4.438,4.438,0,0,1,1.583-1.09A5.429,5.429,0,0,1,88.6-10.681Zm0,9.384a2.7,2.7,0,0,0,2.325-1.043A4.83,4.83,0,0,0,91.7-5.252a4.874,4.874,0,0,0-.768-2.927A2.694,2.694,0,0,0,88.6-9.228a3.262,3.262,0,0,0-1.375.27,2.555,2.555,0,0,0-.976.779,3.458,3.458,0,0,0-.581,1.251,6.7,6.7,0,0,0-.192,1.676,4.806,4.806,0,0,0,.773,2.912A2.736,2.736,0,0,0,88.6-1.3Zm9.082-7.692a6.238,6.238,0,0,1,.727-.7,4.79,4.79,0,0,1,.815-.535,4.137,4.137,0,0,1,.913-.343,4.337,4.337,0,0,1,1.043-.119,3.8,3.8,0,0,1,1.521.285,2.942,2.942,0,0,1,1.1.81,3.576,3.576,0,0,1,.67,1.261A5.488,5.488,0,0,1,104.7-6.7V0h-1.858V-6.7a2.83,2.83,0,0,0-.545-1.853,2.024,2.024,0,0,0-1.656-.659,3.106,3.106,0,0,0-1.531.394A5.042,5.042,0,0,0,97.8-7.743V0H95.942V-10.515h1.111a.456.456,0,0,1,.488.384Zm15.964.208a.409.409,0,0,1-.384.228.723.723,0,0,1-.353-.114q-.2-.114-.483-.254a4.533,4.533,0,0,0-.68-.26,3.243,3.243,0,0,0-.934-.119,2.757,2.757,0,0,0-.841.119,2.019,2.019,0,0,0-.638.327,1.446,1.446,0,0,0-.4.483,1.3,1.3,0,0,0-.14.6.994.994,0,0,0,.234.675,2.029,2.029,0,0,0,.618.467,5.384,5.384,0,0,0,.872.348q.488.151,1,.322t1,.379a3.635,3.635,0,0,1,.872.519,2.374,2.374,0,0,1,.618.763,2.335,2.335,0,0,1,.234,1.085,3.435,3.435,0,0,1-.259,1.344A2.933,2.933,0,0,1,113.215-.8a3.7,3.7,0,0,1-1.246.711,5.117,5.117,0,0,1-1.7.26,5.31,5.31,0,0,1-1.993-.358,5.05,5.05,0,0,1-1.515-.919l.436-.706a.633.633,0,0,1,.2-.208.532.532,0,0,1,.291-.073.7.7,0,0,1,.394.145q.208.145.5.322a3.831,3.831,0,0,0,.721.322,3.313,3.313,0,0,0,1.059.145,2.888,2.888,0,0,0,.945-.14,1.984,1.984,0,0,0,.675-.379,1.5,1.5,0,0,0,.4-.55,1.71,1.71,0,0,0,.13-.664,1.1,1.1,0,0,0-.234-.721,1.971,1.971,0,0,0-.618-.488,5.033,5.033,0,0,0-.877-.353q-.493-.151-1.007-.317t-1.007-.379a3.539,3.539,0,0,1-.877-.535,2.422,2.422,0,0,1-.618-.794,2.568,2.568,0,0,1-.234-1.147,2.8,2.8,0,0,1,.249-1.157,2.838,2.838,0,0,1,.727-.976,3.578,3.578,0,0,1,1.173-.67,4.694,4.694,0,0,1,1.588-.249,5.023,5.023,0,0,1,1.863.327,4.409,4.409,0,0,1,1.427.9Zm8.989,0a.409.409,0,0,1-.384.228.723.723,0,0,1-.353-.114q-.2-.114-.483-.254a4.533,4.533,0,0,0-.68-.26,3.243,3.243,0,0,0-.934-.119,2.757,2.757,0,0,0-.841.119,2.019,2.019,0,0,0-.638.327,1.446,1.446,0,0,0-.4.483,1.3,1.3,0,0,0-.14.6.994.994,0,0,0,.234.675,2.029,2.029,0,0,0,.618.467,5.384,5.384,0,0,0,.872.348q.488.151,1,.322t1,.379a3.635,3.635,0,0,1,.872.519A2.374,2.374,0,0,1,123-4.3a2.335,2.335,0,0,1,.234,1.085,3.435,3.435,0,0,1-.259,1.344A2.933,2.933,0,0,1,122.2-.8a3.7,3.7,0,0,1-1.246.711,5.117,5.117,0,0,1-1.7.26,5.31,5.31,0,0,1-1.993-.358,5.05,5.05,0,0,1-1.515-.919l.436-.706a.633.633,0,0,1,.2-.208.532.532,0,0,1,.291-.073.7.7,0,0,1,.394.145q.208.145.5.322a3.831,3.831,0,0,0,.721.322,3.313,3.313,0,0,0,1.059.145,2.888,2.888,0,0,0,.945-.14,1.984,1.984,0,0,0,.675-.379,1.5,1.5,0,0,0,.4-.55,1.71,1.71,0,0,0,.13-.664,1.1,1.1,0,0,0-.234-.721,1.971,1.971,0,0,0-.618-.488,5.033,5.033,0,0,0-.877-.353q-.493-.151-1.007-.317t-1.007-.379a3.539,3.539,0,0,1-.877-.535,2.422,2.422,0,0,1-.618-.794,2.568,2.568,0,0,1-.234-1.147,2.8,2.8,0,0,1,.249-1.157A2.838,2.838,0,0,1,117-9.762a3.578,3.578,0,0,1,1.173-.67,4.694,4.694,0,0,1,1.588-.249,5.023,5.023,0,0,1,1.863.327,4.409,4.409,0,0,1,1.427.9ZM131.2-4.733a15.4,15.4,0,0,0-2.175.2,6.184,6.184,0,0,0-1.464.42,2.021,2.021,0,0,0-.82.612,1.317,1.317,0,0,0-.254.789,1.741,1.741,0,0,0,.135.716,1.331,1.331,0,0,0,.368.493,1.48,1.48,0,0,0,.55.28,2.523,2.523,0,0,0,.68.088,3.772,3.772,0,0,0,.893-.1,3.363,3.363,0,0,0,.763-.285,4.3,4.3,0,0,0,.685-.446,5.936,5.936,0,0,0,.638-.592Zm-5.968-4.3a6,6,0,0,1,1.879-1.256,5.8,5.8,0,0,1,2.232-.415,3.982,3.982,0,0,1,1.567.291,3.214,3.214,0,0,1,1.152.81,3.429,3.429,0,0,1,.706,1.256,5.231,5.231,0,0,1,.239,1.619V0h-.82a.806.806,0,0,1-.415-.088.6.6,0,0,1-.228-.348l-.208-1a10.3,10.3,0,0,1-.81.68,4.634,4.634,0,0,1-.83.5,4.51,4.51,0,0,1-.929.311,5.083,5.083,0,0,1-1.1.109,3.788,3.788,0,0,1-1.152-.171,2.662,2.662,0,0,1-.939-.514,2.417,2.417,0,0,1-.633-.867,3.029,3.029,0,0,1-.234-1.24,2.314,2.314,0,0,1,.343-1.2,3,3,0,0,1,1.111-1.022,7.285,7.285,0,0,1,2-.732,15.276,15.276,0,0,1,3.031-.327v-.82a2.811,2.811,0,0,0-.529-1.853,1.909,1.909,0,0,0-1.547-.628,3.325,3.325,0,0,0-1.147.171,4.3,4.3,0,0,0-.8.384q-.337.213-.581.384a.838.838,0,0,1-.483.171.53.53,0,0,1-.322-.1.9.9,0,0,1-.228-.244Zm3.072-4.349a1.075,1.075,0,0,1-.093.446,1.127,1.127,0,0,1-.259.363,1.333,1.333,0,0,1-.379.249,1.111,1.111,0,0,1-.452.093,1.051,1.051,0,0,1-.436-.093,1.282,1.282,0,0,1-.368-.249,1.167,1.167,0,0,1-.254-.363,1.075,1.075,0,0,1-.093-.446,1.148,1.148,0,0,1,.093-.457,1.2,1.2,0,0,1,.254-.379,1.232,1.232,0,0,1,.368-.254,1.051,1.051,0,0,1,.436-.093,1.111,1.111,0,0,1,.452.093,1.279,1.279,0,0,1,.379.254,1.155,1.155,0,0,1,.259.379A1.148,1.148,0,0,1,128.307-13.38Zm3.955,0a1.075,1.075,0,0,1-.093.446,1.167,1.167,0,0,1-.254.363,1.261,1.261,0,0,1-.374.249,1.111,1.111,0,0,1-.452.093,1.111,1.111,0,0,1-.452-.093,1.194,1.194,0,0,1-.368-.249,1.212,1.212,0,0,1-.249-.363,1.075,1.075,0,0,1-.093-.446,1.147,1.147,0,0,1,.093-.457,1.242,1.242,0,0,1,.249-.379,1.151,1.151,0,0,1,.368-.254,1.111,1.111,0,0,1,.452-.093,1.111,1.111,0,0,1,.452.093,1.213,1.213,0,0,1,.374.254,1.2,1.2,0,0,1,.254.379A1.147,1.147,0,0,1,132.262-13.38Z" transform="translate(221.43 159.84)" fill="#1d1d1b"/>
        <path id="Path_11" data-name="Path 11" d="M3.322-15.29v9H3.8a.925.925,0,0,0,.348-.057.845.845,0,0,0,.3-.234l3.322-3.56a1.246,1.246,0,0,1,.306-.275.819.819,0,0,1,.431-.1h1.671L6.3-6.394a2.34,2.34,0,0,1-.6.55,1.913,1.913,0,0,1,.337.285,2.658,2.658,0,0,1,.285.368L10.432,0H8.781a.985.985,0,0,1-.41-.078.684.684,0,0,1-.3-.285L4.619-4.671a.823.823,0,0,0-.306-.285,1.191,1.191,0,0,0-.462-.067H3.322V0H1.464V-15.29Z" transform="translate(357.43 159.84)" fill="#1d1d1b"/>
        <path id="Path_10" data-name="Path 10" d="M8.5-6.4A3.643,3.643,0,0,0,8.32-7.583a2.646,2.646,0,0,0-.529-.924,2.362,2.362,0,0,0-.846-.6,2.856,2.856,0,0,0-1.131-.213,2.84,2.84,0,0,0-2.1.773A3.623,3.623,0,0,0,2.751-6.4ZM10-1.474a3.509,3.509,0,0,1-.82.721,5.106,5.106,0,0,1-1.022.5,6.494,6.494,0,0,1-1.126.3,6.879,6.879,0,0,1-1.152.1A5.347,5.347,0,0,1,3.867-.223,4.408,4.408,0,0,1,2.278-1.3,4.952,4.952,0,0,1,1.235-3.062,7.154,7.154,0,0,1,.862-5.47,6.127,6.127,0,0,1,1.2-7.526a4.844,4.844,0,0,1,.971-1.656,4.468,4.468,0,0,1,1.547-1.1,5.077,5.077,0,0,1,2.055-.4,4.734,4.734,0,0,1,1.749.317,3.956,3.956,0,0,1,1.391.913A4.185,4.185,0,0,1,9.83-7.977a5.614,5.614,0,0,1,.332,2,1.2,1.2,0,0,1-.093.581.388.388,0,0,1-.353.145H2.688a6.148,6.148,0,0,0,.275,1.733,3.482,3.482,0,0,0,.68,1.23,2.745,2.745,0,0,0,1.038.737,3.565,3.565,0,0,0,1.349.244,3.959,3.959,0,0,0,1.2-.161A5.7,5.7,0,0,0,8.1-1.816,6.611,6.611,0,0,0,8.7-2.164a.805.805,0,0,1,.42-.161.407.407,0,0,1,.353.176Zm4.183-6.934A4.741,4.741,0,0,1,15.4-10.095a2.676,2.676,0,0,1,1.775-.607,2.756,2.756,0,0,1,.638.073,1.712,1.712,0,0,1,.545.228L18.227-9.02a.3.3,0,0,1-.311.26,2.143,2.143,0,0,1-.426-.062,2.93,2.93,0,0,0-.633-.062,2.526,2.526,0,0,0-.887.145,2.075,2.075,0,0,0-.7.431,3.044,3.044,0,0,0-.55.706,6.05,6.05,0,0,0-.441.96V0H12.425V-10.515h1.059a.584.584,0,0,1,.415.114.7.7,0,0,1,.156.394Zm7.66-.706a5.581,5.581,0,0,1,1.495-1.142,4.043,4.043,0,0,1,1.889-.426,3.8,3.8,0,0,1,1.521.285,2.942,2.942,0,0,1,1.1.81,3.576,3.576,0,0,1,.67,1.261,5.488,5.488,0,0,1,.228,1.63V0H26.884V-6.7a2.83,2.83,0,0,0-.545-1.853,2.024,2.024,0,0,0-1.656-.659,3.106,3.106,0,0,0-1.531.394A5.042,5.042,0,0,0,21.84-7.743V0H19.981V-15.29H21.84ZM38.6-6.4a3.643,3.643,0,0,0-.182-1.178,2.646,2.646,0,0,0-.529-.924,2.362,2.362,0,0,0-.846-.6,2.856,2.856,0,0,0-1.131-.213,2.84,2.84,0,0,0-2.1.773,3.623,3.623,0,0,0-.96,2.143ZM40.1-1.474a3.509,3.509,0,0,1-.82.721,5.106,5.106,0,0,1-1.022.5,6.494,6.494,0,0,1-1.126.3,6.879,6.879,0,0,1-1.152.1,5.347,5.347,0,0,1-2.009-.368A4.408,4.408,0,0,1,32.38-1.3a4.952,4.952,0,0,1-1.043-1.759,7.154,7.154,0,0,1-.374-2.408A6.127,6.127,0,0,1,31.3-7.526a4.844,4.844,0,0,1,.971-1.656,4.468,4.468,0,0,1,1.547-1.1,5.077,5.077,0,0,1,2.055-.4,4.734,4.734,0,0,1,1.749.317,3.956,3.956,0,0,1,1.391.913,4.185,4.185,0,0,1,.919,1.474,5.614,5.614,0,0,1,.332,2,1.2,1.2,0,0,1-.093.581.388.388,0,0,1-.353.145H32.79a6.148,6.148,0,0,0,.275,1.733,3.482,3.482,0,0,0,.68,1.23,2.745,2.745,0,0,0,1.038.737,3.565,3.565,0,0,0,1.349.244,3.959,3.959,0,0,0,1.2-.161,5.7,5.7,0,0,0,.867-.348,6.612,6.612,0,0,0,.607-.348.805.805,0,0,1,.42-.161.407.407,0,0,1,.353.176ZM45.682.166a2.535,2.535,0,0,1-1.915-.7,2.775,2.775,0,0,1-.67-2V-8.968H41.831a.414.414,0,0,1-.28-.1.383.383,0,0,1-.114-.306v-.737l1.723-.218.426-3.249a.452.452,0,0,1,.14-.254.409.409,0,0,1,.285-.1h.934v3.623h3.041v1.339H44.945v6.311a1.342,1.342,0,0,0,.322.986,1.124,1.124,0,0,0,.83.322,1.466,1.466,0,0,0,.5-.078,2.16,2.16,0,0,0,.368-.171q.156-.093.265-.171a.346.346,0,0,1,.192-.078.318.318,0,0,1,.259.176l.54.882a3.442,3.442,0,0,1-1.152.7A3.912,3.912,0,0,1,45.682.166Z" transform="translate(367.68 159.84)" fill="#1d1d1b"/>
      </g>
    </g>
  </g>
</svg>
