<svg xmlns="http://www.w3.org/2000/svg" width="486" height="328.194" viewBox="0 0 486 328.194"><g transform="translate(-720 -80.5)"><g transform="translate(-95 38)"><circle cx="11.5" cy="11.5" r="11.5" fill="#32cd32" transform="translate(1105 205)"/><path fill="#fff" d="m1114.98 219.9-3.08-3.09a.47.47 0 0 1 0-.67l.67-.67a.47.47 0 0 1 .67 0l2.08 2.08 4.44-4.45a.47.47 0 0 1 .67 0l.67.67a.47.47 0 0 1 0 .67l-5.45 5.46a.47.47 0 0 1-.67 0"/></g><path fill="#195f8c" d="M1045.83 251h1.62v5.68h3.51V258h-5.13Zm8.45 7.08a3 3 0 0 1-1.52-.35 2.6 2.6 0 0 1-1.06-.99 2.7 2.7 0 0 1-.38-1.43 2.7 2.7 0 0 1 .38-1.43 2.6 2.6 0 0 1 1.06-.98 3 3 0 0 1 1.52-.36 3 3 0 0 1 1.52.36 2.7 2.7 0 0 1 1.05.98 2.7 2.7 0 0 1 .38 1.43 2.7 2.7 0 0 1-.38 1.43 2.7 2.7 0 0 1-1.05.99 3 3 0 0 1-1.52.35m0-1.28a1.3 1.3 0 0 0 .99-.4 1.5 1.5 0 0 0 .38-1.09 1.5 1.5 0 0 0-.38-1.08 1.3 1.3 0 0 0-.99-.41 1.3 1.3 0 0 0-.99.4 1.5 1.5 0 0 0-.39 1.09 1.5 1.5 0 0 0 .39 1.09 1.3 1.3 0 0 0 .99.4m6.3-.91-.75.74V258h-1.56v-7.42h1.56v4.2l2.28-2.16h1.86l-2.24 2.28 2.44 3.1h-1.89Zm6.36-3.35a2.8 2.8 0 0 1 1.92.6 2.3 2.3 0 0 1 .67 1.8V258h-1.46v-.67a1.7 1.7 0 0 1-1.64.75 3 3 0 0 1-1.08-.21 1.6 1.6 0 0 1-.69-.58 1.5 1.5 0 0 1-.24-.84 1.4 1.4 0 0 1 .56-1.18 3 3 0 0 1 1.75-.43h1.24a1 1 0 0 0-.31-.78 1.4 1.4 0 0 0-.93-.28 3 3 0 0 0-.85.14 2 2 0 0 0-.7.36l-.56-1.09a3 3 0 0 1 1.06-.48 5 5 0 0 1 1.26-.17m-.12 4.49a1.4 1.4 0 0 0 .71-.18 1 1 0 0 0 .44-.55v-.55h-1.07q-.96 0-.96.63a.6.6 0 0 0 .24.48 1 1 0 0 0 .64.17m4.12-6.45h1.56V258h-1.56Zm9.02 1.96a3 3 0 0 1 1.36.35 2.5 2.5 0 0 1 .97.97 3 3 0 0 1 .35 1.45 3 3 0 0 1-.35 1.46 2.5 2.5 0 0 1-.97.97 3 3 0 0 1-1.36.34 2 2 0 0 1-1.62-.65v2.51h-1.56v-7.32h1.49v.62a2 2 0 0 1 1.69-.7m-.27 4.26a1.3 1.3 0 0 0 .99-.4 1.5 1.5 0 0 0 .38-1.09 1.5 1.5 0 0 0-.38-1.08 1.3 1.3 0 0 0-.99-.41 1.3 1.3 0 0 0-.98.4 1.5 1.5 0 0 0-.39 1.09 1.5 1.5 0 0 0 .38 1.08 1.3 1.3 0 0 0 .99.41m9.26-1.47-.03.42h-4.07a1.3 1.3 0 0 0 .52.79 1.7 1.7 0 0 0 1.02.29 2 2 0 0 0 .74-.12 2 2 0 0 0 .6-.4l.83.9a2.8 2.8 0 0 1-2.22.87 3.5 3.5 0 0 1-1.6-.35 2.6 2.6 0 0 1-1.09-.99 2.7 2.7 0 0 1-.38-1.43 3 3 0 0 1 .38-1.42 2.6 2.6 0 0 1 1.03-1 3 3 0 0 1 1.47-.35 3 3 0 0 1 1.43.34 2.5 2.5 0 0 1 1 .98 3 3 0 0 1 .37 1.47m-2.79-1.61a1.3 1.3 0 0 0-.89.3 1.3 1.3 0 0 0-.44.82h2.65a1.3 1.3 0 0 0-.44-.81 1.3 1.3 0 0 0-.88-.31m5.32-.39a2 2 0 0 1 .76-.59 3 3 0 0 1 1.1-.2v1.44l-.35-.02a1.4 1.4 0 0 0-1.05.38 1.5 1.5 0 0 0-.38 1.12V258h-1.57v-5.38h1.49Zm4.61 4.75a5 5 0 0 1-1.31-.16 3 3 0 0 1-1.02-.42l.52-1.12a3 3 0 0 0 .87.38 4 4 0 0 0 1 .14q.99 0 .99-.49a.35.35 0 0 0-.27-.33 4 4 0 0 0-.83-.17 8 8 0 0 1-1.09-.23 2 2 0 0 1-.74-.46 1.3 1.3 0 0 1-.32-.94 1.5 1.5 0 0 1 .3-.9 2 2 0 0 1 .86-.61 4 4 0 0 1 1.33-.23 5 5 0 0 1 1.14.13 3 3 0 0 1 .93.35l-.52 1.1a3 3 0 0 0-1.55-.4 2 2 0 0 0-.75.14.4.4 0 0 0-.25.36.4.4 0 0 0 .27.35 5 5 0 0 0 .86.2 9 9 0 0 1 1.08.23 1.6 1.6 0 0 1 .73.46 1.3 1.3 0 0 1 .31.92 1.4 1.4 0 0 1-.3.89 2 2 0 0 1-.87.6 4 4 0 0 1-1.37.21m6.06 0a3 3 0 0 1-1.53-.35 2.6 2.6 0 0 1-1.05-.99 2.7 2.7 0 0 1-.38-1.43 2.7 2.7 0 0 1 .38-1.43 2.6 2.6 0 0 1 1.06-.98 3 3 0 0 1 1.52-.36 3 3 0 0 1 1.52.36 2.7 2.7 0 0 1 1.05.98 2.7 2.7 0 0 1 .38 1.43 2.7 2.7 0 0 1-.38 1.43 2.7 2.7 0 0 1-1.05.99 3 3 0 0 1-1.52.35m0-1.28a1.3 1.3 0 0 0 .98-.4 1.5 1.5 0 0 0 .39-1.09 1.5 1.5 0 0 0-.38-1.08 1.3 1.3 0 0 0-.99-.41 1.3 1.3 0 0 0-.99.4 1.5 1.5 0 0 0-.39 1.09 1.5 1.5 0 0 0 .39 1.09 1.3 1.3 0 0 0 .99.4m7.26-4.26a2.2 2.2 0 0 1 1.61.6 2.4 2.4 0 0 1 .62 1.78V258h-1.56v-2.84a1.4 1.4 0 0 0-.28-.96 1 1 0 0 0-.81-.31 1.2 1.2 0 0 0-.94.36 1.5 1.5 0 0 0-.35 1.09V258h-1.56v-5.38h1.49v.63a2 2 0 0 1 .77-.52 3 3 0 0 1 1.01-.19m5.81 0a2.8 2.8 0 0 1 1.92.6 2.3 2.3 0 0 1 .67 1.8V258h-1.46v-.67a1.7 1.7 0 0 1-1.64.75 3 3 0 0 1-1.08-.21 1.6 1.6 0 0 1-.69-.58 1.5 1.5 0 0 1-.24-.84 1.4 1.4 0 0 1 .56-1.18 3 3 0 0 1 1.75-.43h1.24a1 1 0 0 0-.31-.78 1.4 1.4 0 0 0-.93-.28 3 3 0 0 0-.85.14 2 2 0 0 0-.7.36l-.56-1.09a3 3 0 0 1 1.06-.48 5 5 0 0 1 1.26-.17m-.12 4.49a1.4 1.4 0 0 0 .71-.18 1 1 0 0 0 .44-.55v-.55h-1.07q-.96 0-.96.63a.6.6 0 0 0 .24.48 1 1 0 0 0 .64.17m4.12-6.45h1.56V258h-1.56Z"/><path fill="rgba(25,95,140,0.07)" d="M1010 272h191a5 5 0 0 1 5 5v22a5 5 0 0 1-5 5h-191a5 5 0 0 1-5-5v-22a5 5 0 0 1 5-5"/><g transform="translate(-95 72)"><circle cx="11.5" cy="11.5" r="11.5" fill="#32cd32" transform="translate(1105 205)"/><path fill="#fff" d="m1114.98 219.9-3.08-3.09a.47.47 0 0 1 0-.67l.67-.67a.47.47 0 0 1 .67 0l2.08 2.08 4.44-4.45a.47.47 0 0 1 .67 0l.67.67a.47.47 0 0 1 0 .67l-5.45 5.46a.47.47 0 0 1-.67 0"/></g><path fill="#195f8c" d="M1048.13 292.12a6 6 0 0 1-1.6-.22 4 4 0 0 1-1.25-.59l.55-1.22a4 4 0 0 0 1.07.53 4 4 0 0 0 1.24.2 2 2 0 0 0 1.02-.2.6.6 0 0 0 .33-.55.5.5 0 0 0-.19-.42 2 2 0 0 0-.5-.26q-.3-.1-.82-.22a11 11 0 0 1-1.32-.38 2 2 0 0 1-.87-.61 1.7 1.7 0 0 1-.37-1.12 2 2 0 0 1 .33-1.1 2 2 0 0 1 1-.79 4 4 0 0 1 1.62-.29 5 5 0 0 1 1.31.16 4 4 0 0 1 1.12.46l-.5 1.23a4 4 0 0 0-1.94-.55 2 2 0 0 0-1 .22.7.7 0 0 0-.32.58.6.6 0 0 0 .37.54 6 6 0 0 0 1.14.34 11 11 0 0 1 1.31.38 2 2 0 0 1 .88.6 1.6 1.6 0 0 1 .36 1.11 2 2 0 0 1-.33 1.1 2.3 2.3 0 0 1-1 .78 4 4 0 0 1-1.64.29m9.21-5.5-2.27 5.38h-1.61l-2.26-5.38h1.61l1.49 3.66 1.54-3.66Zm5.76 2.71-.03.42H1059a1.3 1.3 0 0 0 .52.79 1.7 1.7 0 0 0 1.02.29 2 2 0 0 0 .75-.12 2 2 0 0 0 .6-.4l.82.9a2.8 2.8 0 0 1-2.21.87 3.5 3.5 0 0 1-1.61-.35 2.6 2.6 0 0 1-1.08-.99 2.7 2.7 0 0 1-.38-1.43 3 3 0 0 1 .37-1.43 2.6 2.6 0 0 1 1.03-.99 3 3 0 0 1 1.47-.35 3 3 0 0 1 1.43.34 2.5 2.5 0 0 1 1 .98 3 3 0 0 1 .37 1.47m-2.79-1.61a1.3 1.3 0 0 0-.89.3 1.3 1.3 0 0 0-.44.82h2.65a1.3 1.3 0 0 0-.44-.81 1.3 1.3 0 0 0-.88-.31m7.1-1.18a2.2 2.2 0 0 1 1.61.6 2.4 2.4 0 0 1 .62 1.78V292h-1.56v-2.84a1.4 1.4 0 0 0-.28-.96 1 1 0 0 0-.81-.31 1.2 1.2 0 0 0-.94.36 1.5 1.5 0 0 0-.35 1.09V292h-1.56v-5.38h1.49v.63a2 2 0 0 1 .77-.52 3 3 0 0 1 1.01-.19m5.45 5.54a5 5 0 0 1-1.31-.16 3 3 0 0 1-1.02-.42l.52-1.12a3 3 0 0 0 .87.38 4 4 0 0 0 1 .14q.99 0 .99-.49a.35.35 0 0 0-.27-.33 4 4 0 0 0-.83-.17 8 8 0 0 1-1.09-.23 2 2 0 0 1-.74-.46 1.3 1.3 0 0 1-.32-.94 1.5 1.5 0 0 1 .3-.9 2 2 0 0 1 .86-.61 4 4 0 0 1 1.34-.22 5 5 0 0 1 1.13.12 3 3 0 0 1 .94.34l-.53 1.11a3 3 0 0 0-1.55-.4 2 2 0 0 0-.75.14.4.4 0 0 0-.25.36.4.4 0 0 0 .27.35 5 5 0 0 0 .86.19 9 9 0 0 1 1.08.24 1.6 1.6 0 0 1 .73.45 1.3 1.3 0 0 1 .31.92 1.4 1.4 0 0 1-.3.89 2 2 0 0 1-.87.6 4 4 0 0 1-1.37.22m5.81-2.19-.75.74V292h-1.56v-7.42h1.56v4.2l2.28-2.16h1.86l-2.24 2.28 2.44 3.1h-1.89Zm6.36-3.35a2.8 2.8 0 0 1 1.92.6 2.3 2.3 0 0 1 .67 1.8V292h-1.46v-.67a1.7 1.7 0 0 1-1.64.75 3 3 0 0 1-1.07-.21 1.6 1.6 0 0 1-.7-.58 1.5 1.5 0 0 1-.24-.84 1.4 1.4 0 0 1 .56-1.18 3 3 0 0 1 1.75-.43h1.24a1 1 0 0 0-.31-.78 1.4 1.4 0 0 0-.93-.28 3 3 0 0 0-.84.14 2 2 0 0 0-.7.36l-.57-1.09a3 3 0 0 1 1.06-.48 5 5 0 0 1 1.26-.17m-.12 4.49a1.4 1.4 0 0 0 .71-.18 1 1 0 0 0 .44-.55v-.55h-1.07q-.96 0-.96.63a.6.6 0 0 0 .24.48 1 1 0 0 0 .64.17m12.43-6.45V292h-1.49v-.62a2 2 0 0 1-1.68.7 3 3 0 0 1-1.38-.34 2.4 2.4 0 0 1-.96-.97 3 3 0 0 1-.35-1.46 3 3 0 0 1 .35-1.46 2.4 2.4 0 0 1 .97-.97 3 3 0 0 1 1.37-.34 2 2 0 0 1 1.61.65v-2.61Zm-2.9 6.22a1.3 1.3 0 0 0 .98-.4 1.5 1.5 0 0 0 .39-1.09 1.5 1.5 0 0 0-.39-1.08 1.3 1.3 0 0 0-.98-.41 1.3 1.3 0 0 0-.99.4 1.5 1.5 0 0 0-.39 1.09 1.5 1.5 0 0 0 .39 1.09 1.3 1.3 0 0 0 .99.4m6.51-4.26a2.8 2.8 0 0 1 1.92.6 2.3 2.3 0 0 1 .67 1.8V292h-1.46v-.67a1.7 1.7 0 0 1-1.64.75 3 3 0 0 1-1.08-.21 1.6 1.6 0 0 1-.69-.58 1.5 1.5 0 0 1-.24-.84 1.4 1.4 0 0 1 .57-1.18 3 3 0 0 1 1.75-.43h1.23a1 1 0 0 0-.3-.78 1.4 1.4 0 0 0-.94-.28 3 3 0 0 0-.84.14 2 2 0 0 0-.7.36l-.56-1.09a3 3 0 0 1 1.05-.48 5 5 0 0 1 1.26-.17m-.12 4.49a1.4 1.4 0 0 0 .71-.18 1 1 0 0 0 .44-.55v-.55h-1.07q-.96 0-.96.63a.6.6 0 0 0 .24.48 1 1 0 0 0 .64.17m7.59.71a2 2 0 0 1-.57.25 3 3 0 0 1-.7.09 2 2 0 0 1-1.48-.49 2 2 0 0 1-.53-1.44v-2.21h-.83v-1.2h.84v-1.31h1.55v1.31h1.34v1.2h-1.34v2.19a.7.7 0 0 0 .18.53.7.7 0 0 0 .49.18 1 1 0 0 0 .63-.2Zm3.05-5.2a2.8 2.8 0 0 1 1.92.6 2.3 2.3 0 0 1 .67 1.8V292h-1.46v-.67a1.7 1.7 0 0 1-1.64.75 3 3 0 0 1-1.08-.21 1.6 1.6 0 0 1-.69-.58 1.5 1.5 0 0 1-.24-.84 1.4 1.4 0 0 1 .56-1.18 3 3 0 0 1 1.75-.43h1.24a1 1 0 0 0-.31-.78 1.4 1.4 0 0 0-.93-.28 3 3 0 0 0-.84.14 2 2 0 0 0-.71.36l-.56-1.09a3 3 0 0 1 1.06-.48 5 5 0 0 1 1.26-.17m-.12 4.49a1.4 1.4 0 0 0 .71-.18 1 1 0 0 0 .44-.55v-.55h-1.07q-.96 0-.96.63a.6.6 0 0 0 .24.48 1 1 0 0 0 .64.17m6.78 1.05a3 3 0 0 1-1.54-.35 2.7 2.7 0 0 1-1.07-.99 2.7 2.7 0 0 1-.39-1.43 2.7 2.7 0 0 1 .39-1.43 2.7 2.7 0 0 1 1.07-.99 3 3 0 0 1 1.54-.35 3 3 0 0 1 1.49.36 2 2 0 0 1 .92 1.01l-1.21.65a1.3 1.3 0 0 0-1.21-.74 1.4 1.4 0 0 0-1.01.4 1.5 1.5 0 0 0-.4 1.09 1.5 1.5 0 0 0 .4 1.09 1.4 1.4 0 0 0 1.01.4 1.3 1.3 0 0 0 1.21-.74l1.21.66a2 2 0 0 1-.92 1 3 3 0 0 1-1.49.36m8.51-2.75-.03.42h-4.07a1.3 1.3 0 0 0 .52.79 1.7 1.7 0 0 0 1.02.29 2 2 0 0 0 .75-.12 2 2 0 0 0 .6-.4l.82.9a2.8 2.8 0 0 1-2.22.87 3.5 3.5 0 0 1-1.6-.35 2.6 2.6 0 0 1-1.09-.99 2.7 2.7 0 0 1-.38-1.43 3 3 0 0 1 .38-1.42 2.6 2.6 0 0 1 1.03-1 3 3 0 0 1 1.47-.35 3 3 0 0 1 1.43.34 2.5 2.5 0 0 1 1 .98 3 3 0 0 1 .37 1.47m-2.79-1.61a1.3 1.3 0 0 0-.89.3 1.3 1.3 0 0 0-.44.82h2.65a1.3 1.3 0 0 0-.44-.81 1.3 1.3 0 0 0-.88-.31m7.1-1.18a2.2 2.2 0 0 1 1.61.6 2.4 2.4 0 0 1 .62 1.78V292h-1.56v-2.84a1.4 1.4 0 0 0-.28-.95 1 1 0 0 0-.81-.32 1.2 1.2 0 0 0-.94.37 1.5 1.5 0 0 0-.35 1.08V292h-1.56v-5.38h1.49v.63a2 2 0 0 1 .77-.52 3 3 0 0 1 1.01-.19m7.11 5.2a2 2 0 0 1-.57.26 3 3 0 0 1-.7.08 2 2 0 0 1-1.48-.49 2 2 0 0 1-.53-1.44v-2.21h-.83v-1.2h.83v-1.31h1.56v1.31h1.34v1.2h-1.34v2.19a.7.7 0 0 0 .18.53.7.7 0 0 0 .5.18 1 1 0 0 0 .62-.2Zm5.98-2.41-.03.42h-4.07a1.3 1.3 0 0 0 .52.79 1.7 1.7 0 0 0 1.02.29 2 2 0 0 0 .75-.12 2 2 0 0 0 .6-.4l.82.9a2.8 2.8 0 0 1-2.22.87 3.5 3.5 0 0 1-1.6-.35 2.6 2.6 0 0 1-1.09-.99 2.7 2.7 0 0 1-.38-1.43 3 3 0 0 1 .38-1.42 2.6 2.6 0 0 1 1.03-1 3 3 0 0 1 1.47-.35 3 3 0 0 1 1.43.34 2.5 2.5 0 0 1 1 .98 3 3 0 0 1 .37 1.47m-2.79-1.61a1.3 1.3 0 0 0-.89.3 1.3 1.3 0 0 0-.44.82h2.65a1.3 1.3 0 0 0-.44-.81 1.3 1.3 0 0 0-.88-.31m5.32-.39a2 2 0 0 1 .76-.59 3 3 0 0 1 1.1-.2v1.44l-.36-.02a1.4 1.4 0 0 0-1.04.38 1.5 1.5 0 0 0-.38 1.12V292h-1.57v-5.38h1.5Z"/><path fill="rgba(25,95,140,0.07)" d="M1010 205h191a5 5 0 0 1 5 5v22a5 5 0 0 1-5 5h-191a5 5 0 0 1-5-5v-22a5 5 0 0 1 5-5"/><g transform="translate(-95 5)"><circle cx="11.5" cy="11.5" r="11.5" fill="#32cd32" transform="translate(1105 205)"/><path fill="#fff" d="m1114.98 219.9-3.08-3.09a.47.47 0 0 1 0-.67l.67-.67a.47.47 0 0 1 .67 0l2.08 2.08 4.44-4.45a.47.47 0 0 1 .67 0l.67.67a.47.47 0 0 1 0 .67l-5.45 5.46a.47.47 0 0 1-.67 0"/></g><path fill="#195f8c" d="M1049.18 225.12a4 4 0 0 1-1.94-.47 3.5 3.5 0 0 1-1.36-1.29 3.6 3.6 0 0 1-.49-1.86 3.6 3.6 0 0 1 .5-1.87 3.5 3.5 0 0 1 1.35-1.29 4 4 0 0 1 1.95-.46 4 4 0 0 1 1.65.32 3 3 0 0 1 1.23.92l-1.04.96a2.2 2.2 0 0 0-1.76-.82 2.3 2.3 0 0 0-1.16.28 2 2 0 0 0-.8.8 2.3 2.3 0 0 0-.28 1.16 2.3 2.3 0 0 0 .28 1.16 2 2 0 0 0 .8.8 2.3 2.3 0 0 0 1.16.28 2.2 2.2 0 0 0 1.76-.83l1.04.96a3 3 0 0 1-1.24.93 4 4 0 0 1-1.65.32m6.24-.04a3 3 0 0 1-1.52-.36 2.6 2.6 0 0 1-1.06-.98 2.7 2.7 0 0 1-.38-1.43 2.7 2.7 0 0 1 .38-1.43 2.6 2.6 0 0 1 1.06-.98 3 3 0 0 1 1.52-.36 3 3 0 0 1 1.52.36 2.7 2.7 0 0 1 1.05.98 2.7 2.7 0 0 1 .38 1.43 2.7 2.7 0 0 1-.38 1.43 2.7 2.7 0 0 1-1.05.99 3 3 0 0 1-1.52.35m0-1.28a1.3 1.3 0 0 0 .99-.4 1.5 1.5 0 0 0 .38-1.09 1.5 1.5 0 0 0-.39-1.09 1.3 1.3 0 0 0-.98-.4 1.3 1.3 0 0 0-1 .4 1.5 1.5 0 0 0-.38 1.09 1.5 1.5 0 0 0 .39 1.09 1.3 1.3 0 0 0 .99.4m10.88-4.26a2.2 2.2 0 0 1 1.6.6 2.4 2.4 0 0 1 .6 1.79V225h-1.56v-2.84a1.5 1.5 0 0 0-.26-.95 1 1 0 0 0-.76-.32 1.1 1.1 0 0 0-.87.36 1.5 1.5 0 0 0-.32 1.05v2.7h-1.56v-2.84q0-1.27-1.02-1.27a1.1 1.1 0 0 0-.86.36 1.5 1.5 0 0 0-.32 1.05v2.7h-1.56v-5.38h1.49v.62a2 2 0 0 1 .74-.52 3 3 0 0 1 .95-.18 2 2 0 0 1 1.03.23 2 2 0 0 1 .74.65 2 2 0 0 1 .84-.65 3 3 0 0 1 1.1-.23m6.78 0a3 3 0 0 1 1.37.35 2.5 2.5 0 0 1 .96.97 3 3 0 0 1 .35 1.45 3 3 0 0 1-.35 1.46 2.5 2.5 0 0 1-.97.97 3 3 0 0 1-1.36.34 2 2 0 0 1-1.62-.65v2.51h-1.56v-7.32h1.49v.62a2 2 0 0 1 1.69-.7m-.27 4.26a1.3 1.3 0 0 0 .99-.4 1.5 1.5 0 0 0 .38-1.09 1.5 1.5 0 0 0-.38-1.09 1.3 1.3 0 0 0-.98-.4 1.3 1.3 0 0 0-.99.4 1.5 1.5 0 0 0-.39 1.09 1.5 1.5 0 0 0 .39 1.09 1.3 1.3 0 0 0 .98.4m3.99-6.22h1.56V225h-1.56Zm3.01 2.04h1.56V225h-1.56Zm.78-.75a1 1 0 0 1-.7-.25.8.8 0 0 1-.27-.62.8.8 0 0 1 .27-.62 1 1 0 0 1 .7-.25 1 1 0 0 1 .7.24.8.8 0 0 1 .27.6 1 1 0 0 1-.27.65 1 1 0 0 1-.7.25m4.4.67a2.8 2.8 0 0 1 1.92.6 2.3 2.3 0 0 1 .67 1.8V225h-1.46v-.67a1.7 1.7 0 0 1-1.64.75 3 3 0 0 1-1.08-.21 1.6 1.6 0 0 1-.7-.58 1.5 1.5 0 0 1-.23-.84 1.4 1.4 0 0 1 .56-1.18 3 3 0 0 1 1.75-.43h1.24a1 1 0 0 0-.31-.79 1.4 1.4 0 0 0-.93-.27 3 3 0 0 0-.85.13 2 2 0 0 0-.7.37l-.56-1.09a3 3 0 0 1 1.06-.48 5 5 0 0 1 1.26-.17m-.12 4.49a1.4 1.4 0 0 0 .71-.18 1 1 0 0 0 .44-.55v-.55h-1.07q-.96 0-.96.63a.6.6 0 0 0 .24.48 1 1 0 0 0 .64.17m7.39-4.49a2.2 2.2 0 0 1 1.62.6 2.4 2.4 0 0 1 .61 1.78V225h-1.56v-2.84a1.4 1.4 0 0 0-.28-.95 1 1 0 0 0-.81-.32 1.2 1.2 0 0 0-.94.37 1.5 1.5 0 0 0-.35 1.08V225h-1.56v-5.38h1.49v.63a2 2 0 0 1 .77-.52 3 3 0 0 1 1.01-.19m7.11 5.2a2 2 0 0 1-.56.25 3 3 0 0 1-.71.09 2 2 0 0 1-1.48-.49 2 2 0 0 1-.53-1.44v-2.21h-.83v-1.2h.83v-1.31h1.56v1.31h1.34v1.2h-1.34v2.19a.7.7 0 0 0 .18.53.7.7 0 0 0 .49.18 1 1 0 0 0 .63-.2Zm3.71-7.16h1.56V225h-1.56Zm8.28 4.75-.03.42h-4.07a1.3 1.3 0 0 0 .52.79 1.7 1.7 0 0 0 1.02.29 2 2 0 0 0 .75-.13 2 2 0 0 0 .6-.39l.83.9a2.8 2.8 0 0 1-2.22.87 3.5 3.5 0 0 1-1.61-.36 2.6 2.6 0 0 1-1.08-.98 2.7 2.7 0 0 1-.38-1.43 3 3 0 0 1 .37-1.43 2.6 2.6 0 0 1 1.03-.99 3 3 0 0 1 1.47-.35 3 3 0 0 1 1.43.34 2.5 2.5 0 0 1 1 .98 3 3 0 0 1 .37 1.47m-2.79-1.61a1.3 1.3 0 0 0-.89.3 1.3 1.3 0 0 0-.44.82h2.65a1.3 1.3 0 0 0-.44-.81 1.3 1.3 0 0 0-.88-.31m9.07-1.1-2.27 5.38h-1.61l-2.26-5.38h1.61l1.49 3.66 1.54-3.66Zm5.76 2.71-.03.42h-4.07a1.3 1.3 0 0 0 .52.79 1.7 1.7 0 0 0 1.02.29 2 2 0 0 0 .75-.13 2 2 0 0 0 .6-.39l.82.9a2.8 2.8 0 0 1-2.21.87 3.5 3.5 0 0 1-1.61-.35 2.6 2.6 0 0 1-1.08-.99 2.7 2.7 0 0 1-.38-1.43 3 3 0 0 1 .38-1.42 2.6 2.6 0 0 1 1.03-1 3 3 0 0 1 1.46-.35 3 3 0 0 1 1.43.34 2.5 2.5 0 0 1 1 .98 3 3 0 0 1 .37 1.47m-2.79-1.61a1.3 1.3 0 0 0-.89.3 1.3 1.3 0 0 0-.44.82h2.65a1.3 1.3 0 0 0-.44-.81 1.3 1.3 0 0 0-.88-.31m5.32-.39a2 2 0 0 1 .75-.59 3 3 0 0 1 1.1-.2v1.44l-.35-.02a1.4 1.4 0 0 0-1.05.38 1.5 1.5 0 0 0-.38 1.12V225h-1.56v-5.38h1.49Zm4.92-.79a2.8 2.8 0 0 1 1.92.6 2.3 2.3 0 0 1 .67 1.8V225h-1.46v-.67a1.7 1.7 0 0 1-1.64.75 3 3 0 0 1-1.07-.21 1.6 1.6 0 0 1-.7-.58 1.5 1.5 0 0 1-.24-.84 1.4 1.4 0 0 1 .56-1.18 3 3 0 0 1 1.75-.43h1.24a1 1 0 0 0-.31-.79 1.4 1.4 0 0 0-.93-.27 3 3 0 0 0-.85.13 2 2 0 0 0-.7.37l-.56-1.09a3 3 0 0 1 1.06-.48 5 5 0 0 1 1.26-.17m-.12 4.49a1.4 1.4 0 0 0 .71-.18 1 1 0 0 0 .44-.55v-.55h-1.07q-.96 0-.96.63a.6.6 0 0 0 .24.48 1 1 0 0 0 .64.17m7.39-4.49a2.2 2.2 0 0 1 1.62.6 2.4 2.4 0 0 1 .61 1.78V225h-1.56v-2.84a1.4 1.4 0 0 0-.28-.95 1 1 0 0 0-.81-.32 1.2 1.2 0 0 0-.94.37 1.5 1.5 0 0 0-.35 1.08V225h-1.56v-5.38h1.49v.63a2 2 0 0 1 .77-.52 3 3 0 0 1 1.01-.19m7.11 5.2a2 2 0 0 1-.56.25 3 3 0 0 1-.71.09 2 2 0 0 1-1.48-.49 2 2 0 0 1-.53-1.44v-2.21h-.83v-1.2h.83v-1.31h1.56v1.31h1.34v1.2h-1.34v2.19a.7.7 0 0 0 .18.53.7.7 0 0 0 .5.18 1 1 0 0 0 .62-.2Zm3.27.34a3 3 0 0 1-1.52-.36 2.6 2.6 0 0 1-1.06-.98 2.7 2.7 0 0 1-.38-1.43 2.7 2.7 0 0 1 .38-1.43 2.6 2.6 0 0 1 1.05-.99 3 3 0 0 1 1.53-.35 3 3 0 0 1 1.52.36 2.7 2.7 0 0 1 1.05.98 2.7 2.7 0 0 1 .38 1.43 2.7 2.7 0 0 1-.38 1.43 2.7 2.7 0 0 1-1.05.99 3 3 0 0 1-1.52.35m0-1.28a1.3 1.3 0 0 0 .99-.4 1.5 1.5 0 0 0 .38-1.09 1.5 1.5 0 0 0-.38-1.09 1.3 1.3 0 0 0-.99-.4 1.3 1.3 0 0 0-.99.4 1.5 1.5 0 0 0-.39 1.09 1.5 1.5 0 0 0 .39 1.08 1.3 1.3 0 0 0 .99.41m-1.03-4.92a.7.7 0 0 1-.5-.2.7.7 0 0 1-.2-.5.7.7 0 0 1 .2-.49.7.7 0 0 1 .5-.2.7.7 0 0 1 .5.2.7.7 0 0 1 .2.5.7.7 0 0 1-.2.49.7.7 0 0 1-.5.2m2.02 0a.7.7 0 0 1-.5-.2.7.7 0 0 1-.19-.5.7.7 0 0 1 .2-.48.7.7 0 0 1 .5-.2.7.7 0 0 1 .5.2.7.7 0 0 1 .2.5.7.7 0 0 1-.2.49.7.7 0 0 1-.51.19m4.49 1.45a2 2 0 0 1 .76-.59 3 3 0 0 1 1.1-.2v1.44l-.35-.02a1.4 1.4 0 0 0-1.05.37 1.5 1.5 0 0 0-.38 1.13V225h-1.56v-5.38h1.48Zm4.61 4.75a5 5 0 0 1-1.31-.16 3 3 0 0 1-1.02-.42l.52-1.12a3 3 0 0 0 .87.38 4 4 0 0 0 1 .14q.99 0 .99-.49a.35.35 0 0 0-.27-.33 4 4 0 0 0-.83-.17 8 8 0 0 1-1.09-.23 2 2 0 0 1-.74-.46 1.3 1.3 0 0 1-.32-.94 1.5 1.5 0 0 1 .3-.9 2 2 0 0 1 .86-.61 4 4 0 0 1 1.33-.23 5 5 0 0 1 1.14.13 3 3 0 0 1 .93.35l-.52 1.1a3 3 0 0 0-1.55-.4 2 2 0 0 0-.75.14.4.4 0 0 0-.25.36.4.4 0 0 0 .27.35 5 5 0 0 0 .86.2 9 9 0 0 1 1.08.23 1.6 1.6 0 0 1 .73.46 1.3 1.3 0 0 1 .31.92 1.4 1.4 0 0 1-.3.89 2 2 0 0 1-.87.6 4 4 0 0 1-1.37.21m5.81-2.19-.75.74V225h-1.56v-7.42h1.56v4.2l2.28-2.16h1.86l-2.24 2.28 2.44 3.1h-1.89Zm9.33-.56-.03.42h-4.07a1.3 1.3 0 0 0 .52.79 1.7 1.7 0 0 0 1.02.29 2 2 0 0 0 .74-.13 2 2 0 0 0 .6-.39l.83.9a2.8 2.8 0 0 1-2.22.87 3.5 3.5 0 0 1-1.6-.36 2.6 2.6 0 0 1-1.09-.98 2.7 2.7 0 0 1-.38-1.43 3 3 0 0 1 .38-1.43 2.6 2.6 0 0 1 1.03-.99 3 3 0 0 1 1.46-.35 3 3 0 0 1 1.43.34 2.5 2.5 0 0 1 1 .97 3 3 0 0 1 .38 1.48m-2.79-1.61a1.3 1.3 0 0 0-.89.3 1.3 1.3 0 0 0-.44.82h2.65a1.3 1.3 0 0 0-.44-.81 1.3 1.3 0 0 0-.88-.31m9.31-3.14V225h-1.49v-.62a2 2 0 0 1-1.68.7 3 3 0 0 1-1.37-.34 2.4 2.4 0 0 1-.97-.97 3 3 0 0 1-.35-1.46 3 3 0 0 1 .35-1.46 2.4 2.4 0 0 1 .97-.97 3 3 0 0 1 1.37-.34 2 2 0 0 1 1.61.65v-2.61Zm-2.9 6.22a1.3 1.3 0 0 0 .98-.4 1.5 1.5 0 0 0 .39-1.09 1.5 1.5 0 0 0-.39-1.08 1.3 1.3 0 0 0-.98-.41 1.3 1.3 0 0 0-.99.4 1.5 1.5 0 0 0-.39 1.09 1.5 1.5 0 0 0 .39 1.09 1.3 1.3 0 0 0 .99.4m3.94 3.22a2 2 0 0 1-1.25-.3l.42-1.13a1 1 0 0 0 .66.19.6.6 0 0 0 .47-.2 1 1 0 0 0 .17-.58v-5.38h1.56v5.37a2 2 0 0 1-.53 1.49 2 2 0 0 1-1.5.54m1.25-8.15a1 1 0 0 1-.7-.25.8.8 0 0 1-.27-.62.8.8 0 0 1 .27-.62 1 1 0 0 1 .7-.25 1 1 0 0 1 .7.24.8.8 0 0 1 .27.6 1 1 0 0 1-.27.65 1 1 0 0 1-.7.25m4.39.67a2.8 2.8 0 0 1 1.92.6 2.3 2.3 0 0 1 .67 1.8V225h-1.46v-.67a1.7 1.7 0 0 1-1.64.75 3 3 0 0 1-1.08-.21 1.6 1.6 0 0 1-.69-.58 1.5 1.5 0 0 1-.24-.84 1.4 1.4 0 0 1 .56-1.18 3 3 0 0 1 1.75-.43h1.24a1 1 0 0 0-.31-.79 1.4 1.4 0 0 0-.93-.27 3 3 0 0 0-.85.13 2 2 0 0 0-.7.37l-.56-1.09a3 3 0 0 1 1.06-.48 5 5 0 0 1 1.26-.17m-.12 4.49a1.4 1.4 0 0 0 .71-.18 1 1 0 0 0 .44-.55v-.55h-1.07q-.96 0-.96.63a.6.6 0 0 0 .24.48 1 1 0 0 0 .64.17"/><g transform="translate(-95 105)"><circle cx="11.5" cy="11.5" r="11.5" fill="#32cd32" transform="translate(1105 205)"/><path fill="#fff" d="m1114.98 219.9-3.08-3.09a.47.47 0 0 1 0-.67l.67-.67a.47.47 0 0 1 .67 0l2.08 2.08 4.44-4.45a.47.47 0 0 1 .67 0l.67.67a.47.47 0 0 1 0 .67l-5.45 5.46a.47.47 0 0 1-.67 0"/></g><path fill="#195f8c" d="M1047.45 319.3v1.85h3.24v1.3h-3.24V325h-1.62v-7h5.29v1.3Zm9.94.32V325h-1.48v-.64a2 2 0 0 1-.74.54 2 2 0 0 1-.93.18 2.3 2.3 0 0 1-1.68-.61 2.4 2.4 0 0 1-.62-1.81v-3.04h1.56v2.81q0 1.3 1.09 1.3a1.2 1.2 0 0 0 .9-.36 1.5 1.5 0 0 0 .34-1.09v-2.66Zm1.45-2.04h1.56V325h-1.56Zm3.01 0h1.56V325h-1.56Zm8.15 5.31-.75.74V325h-1.56v-7.42h1.56v4.2l2.28-2.16h1.86l-2.24 2.28 2.44 3.1h-1.89Zm6.62 2.19a3 3 0 0 1-1.52-.35 2.6 2.6 0 0 1-1.06-.99 2.7 2.7 0 0 1-.38-1.43 2.7 2.7 0 0 1 .38-1.43 2.6 2.6 0 0 1 1.06-.99 3 3 0 0 1 1.52-.35 3 3 0 0 1 1.52.36 2.7 2.7 0 0 1 1.05.98 2.7 2.7 0 0 1 .38 1.43 2.7 2.7 0 0 1-.38 1.43 2.7 2.7 0 0 1-1.05.99 3 3 0 0 1-1.52.35m0-1.28a1.3 1.3 0 0 0 .99-.4 1.5 1.5 0 0 0 .38-1.09 1.5 1.5 0 0 0-.39-1.08 1.3 1.3 0 0 0-.98-.41 1.3 1.3 0 0 0-1 .4 1.5 1.5 0 0 0-.38 1.09 1.5 1.5 0 0 0 .38 1.09 1.3 1.3 0 0 0 1 .4m7.26-4.26a2.2 2.2 0 0 1 1.61.6 2.4 2.4 0 0 1 .62 1.78V325h-1.56v-2.84a1.4 1.4 0 0 0-.28-.95 1 1 0 0 0-.81-.32 1.2 1.2 0 0 0-.94.37 1.5 1.5 0 0 0-.35 1.08V325h-1.56v-5.38h1.49v.63a2 2 0 0 1 .77-.52 3 3 0 0 1 1.01-.19m7.11 5.2a2 2 0 0 1-.57.26 3 3 0 0 1-.7.08 2 2 0 0 1-1.48-.49 2 2 0 0 1-.53-1.44v-2.21h-.83v-1.2h.83v-1.31h1.56v1.31h1.34v1.2h-1.34v2.19a.7.7 0 0 0 .18.53.7.7 0 0 0 .49.18 1 1 0 0 0 .63-.2Zm2.37-4.41a2 2 0 0 1 .75-.59 3 3 0 0 1 1.1-.2v1.44l-.35-.02a1.4 1.4 0 0 0-1.05.38 1.5 1.5 0 0 0-.38 1.12V325h-1.56v-5.38h1.49Zm5.29 4.75a3 3 0 0 1-1.52-.35 2.6 2.6 0 0 1-1.06-.99 2.7 2.7 0 0 1-.38-1.43 2.7 2.7 0 0 1 .38-1.43 2.6 2.6 0 0 1 1.06-.98 3 3 0 0 1 1.52-.36 3 3 0 0 1 1.52.36 2.7 2.7 0 0 1 1.05.98 2.7 2.7 0 0 1 .38 1.43 2.7 2.7 0 0 1-.38 1.43 2.7 2.7 0 0 1-1.05.99 3 3 0 0 1-1.52.35m0-1.28a1.3 1.3 0 0 0 .99-.4 1.5 1.5 0 0 0 .38-1.09 1.5 1.5 0 0 0-.38-1.08 1.3 1.3 0 0 0-.99-.41 1.3 1.3 0 0 0-.99.4 1.5 1.5 0 0 0-.39 1.09 1.5 1.5 0 0 0 .39 1.09 1.3 1.3 0 0 0 .99.4m3.99-6.22h1.56V325h-1.56Zm3.01 0h1.56V325h-1.56Zm8.4 7.5a3 3 0 0 1-1.52-.35 2.6 2.6 0 0 1-1.06-.99 2.7 2.7 0 0 1-.38-1.43 2.7 2.7 0 0 1 .38-1.43 2.6 2.6 0 0 1 1.06-.98 3 3 0 0 1 1.52-.36 3 3 0 0 1 1.52.36 2.7 2.7 0 0 1 1.05.98 2.7 2.7 0 0 1 .38 1.43 2.7 2.7 0 0 1-.38 1.43 2.7 2.7 0 0 1-1.05.99 3 3 0 0 1-1.52.35m0-1.28a1.3 1.3 0 0 0 .99-.4 1.5 1.5 0 0 0 .38-1.09 1.5 1.5 0 0 0-.38-1.08 1.3 1.3 0 0 0-.99-.41 1.3 1.3 0 0 0-.99.4 1.5 1.5 0 0 0-.39 1.09 1.5 1.5 0 0 0 .39 1.09 1.3 1.3 0 0 0 .99.4m-1.03-4.92a.7.7 0 0 1-.5-.2.7.7 0 0 1-.2-.5.7.7 0 0 1 .2-.49.7.7 0 0 1 .5-.2.7.7 0 0 1 .5.2.7.7 0 0 1 .2.5.7.7 0 0 1-.2.49.7.7 0 0 1-.5.2m2.02 0a.7.7 0 0 1-.5-.2.7.7 0 0 1-.19-.5.7.7 0 0 1 .2-.49.7.7 0 0 1 .49-.2.7.7 0 0 1 .5.2.7.7 0 0 1 .2.5.7.7 0 0 1-.2.49.7.7 0 0 1-.5.2m8.19.74-2.27 5.38h-1.61l-2.26-5.38h1.61l1.49 3.66 1.54-3.66Zm5.76 2.71-.03.42h-4.07a1.3 1.3 0 0 0 .52.79 1.7 1.7 0 0 0 1.02.29 2 2 0 0 0 .75-.12 2 2 0 0 0 .6-.4l.82.9a2.8 2.8 0 0 1-2.22.87 3.5 3.5 0 0 1-1.6-.35 2.6 2.6 0 0 1-1.08-.99 2.7 2.7 0 0 1-.38-1.43 3 3 0 0 1 .38-1.42 2.6 2.6 0 0 1 1.02-1 3 3 0 0 1 1.47-.35 3 3 0 0 1 1.43.34 2.5 2.5 0 0 1 1 .98 3 3 0 0 1 .37 1.47m-2.79-1.61a1.3 1.3 0 0 0-.89.3 1.3 1.3 0 0 0-.44.82h2.65a1.3 1.3 0 0 0-.44-.81 1.3 1.3 0 0 0-.88-.31m5.32-.39a2 2 0 0 1 .76-.59 3 3 0 0 1 1.1-.2v1.44l-.36-.02a1.4 1.4 0 0 0-1.04.38 1.5 1.5 0 0 0-.38 1.12V325h-1.57v-5.38h1.49Zm9.12 4.41a2 2 0 0 1-.56.26 3 3 0 0 1-.71.08 2 2 0 0 1-1.48-.49 2 2 0 0 1-.53-1.44v-2.21h-.83v-1.2h.83v-1.31h1.56v1.31h1.34v1.2h-1.34v2.19a.7.7 0 0 0 .18.53.7.7 0 0 0 .5.18 1 1 0 0 0 .63-.2Zm5.98-2.41-.03.42h-4.07a1.3 1.3 0 0 0 .52.79 1.7 1.7 0 0 0 1.02.29 2 2 0 0 0 .75-.12 2 2 0 0 0 .6-.4l.82.9a2.8 2.8 0 0 1-2.22.87 3.5 3.5 0 0 1-1.6-.35 2.6 2.6 0 0 1-1.09-.99 2.7 2.7 0 0 1-.38-1.43 3 3 0 0 1 .38-1.42 2.6 2.6 0 0 1 1.03-1 3 3 0 0 1 1.47-.35 3 3 0 0 1 1.43.34 2.5 2.5 0 0 1 1 .98 3 3 0 0 1 .37 1.47m-2.79-1.61a1.3 1.3 0 0 0-.89.3 1.3 1.3 0 0 0-.44.82h2.65a1.3 1.3 0 0 0-.44-.81 1.3 1.3 0 0 0-.88-.31m6.14 2.17-.75.74V325h-1.56v-7.42h1.56v4.2l2.28-2.16h1.86l-2.24 2.28 2.44 3.1h-1.89Zm7.52-3.35a2.2 2.2 0 0 1 1.62.6 2.4 2.4 0 0 1 .61 1.78V325h-1.56v-2.84a1.4 1.4 0 0 0-.28-.95 1 1 0 0 0-.81-.32 1.2 1.2 0 0 0-.94.37 1.5 1.5 0 0 0-.35 1.08V325h-1.56v-5.38h1.49v.63a2 2 0 0 1 .77-.52 3 3 0 0 1 1.01-.19m3.64.08h1.56V325h-1.56Zm.78-.75a1 1 0 0 1-.7-.25.8.8 0 0 1-.27-.62.8.8 0 0 1 .27-.62 1 1 0 0 1 .7-.25 1 1 0 0 1 .7.24.8.8 0 0 1 .27.6 1 1 0 0 1-.27.65 1 1 0 0 1-.7.25m4.54 4.02-.75.74V325h-1.56v-7.42h1.56v4.2l2.28-2.16h1.86l-2.24 2.28 2.44 3.1h-1.89Zm9.33-.56-.03.42h-4.07a1.3 1.3 0 0 0 .52.79 1.7 1.7 0 0 0 1.02.29 2 2 0 0 0 .75-.12 2 2 0 0 0 .6-.4l.83.9a2.8 2.8 0 0 1-2.22.87 3.5 3.5 0 0 1-1.61-.35 2.6 2.6 0 0 1-1.08-.99 2.7 2.7 0 0 1-.38-1.43 3 3 0 0 1 .38-1.42 2.6 2.6 0 0 1 1.02-1 3 3 0 0 1 1.47-.35 3 3 0 0 1 1.43.34 2.5 2.5 0 0 1 1 .97 3 3 0 0 1 .37 1.48m-2.79-1.61a1.3 1.3 0 0 0-.89.3 1.3 1.3 0 0 0-.44.82h2.65a1.3 1.3 0 0 0-.44-.81 1.3 1.3 0 0 0-.88-.31m7.1-1.18a2.2 2.2 0 0 1 1.62.6 2.4 2.4 0 0 1 .61 1.78V325h-1.56v-2.84a1.4 1.4 0 0 0-.28-.95 1 1 0 0 0-.81-.32 1.2 1.2 0 0 0-.94.37 1.5 1.5 0 0 0-.35 1.08V325h-1.56v-5.38h1.49v.63a2 2 0 0 1 .77-.52 3 3 0 0 1 1.01-.19"/><path fill="rgba(25,95,140,0.07)" d="M1010 339h191a5 5 0 0 1 5 5v22a5 5 0 0 1-5 5h-191a5 5 0 0 1-5-5v-22a5 5 0 0 1 5-5"/><g transform="translate(-95 139)"><circle cx="11.5" cy="11.5" r="11.5" fill="#32cd32" transform="translate(1105 205)"/><path fill="#fff" d="m1114.98 219.9-3.08-3.09a.47.47 0 0 1 0-.67l.67-.67a.47.47 0 0 1 .67 0l2.08 2.08 4.44-4.45a.47.47 0 0 1 .67 0l.67.67a.47.47 0 0 1 0 .67l-5.45 5.46a.47.47 0 0 1-.67 0"/></g><path fill="#195f8c" d="M1052.25 352v7h-1.62v-2.87h-3.18V359h-1.62v-7h1.62v2.76h3.18V352Zm6.82 4.33-.03.42h-4.07a1.3 1.3 0 0 0 .52.79 1.7 1.7 0 0 0 1.02.29 2 2 0 0 0 .75-.12 2 2 0 0 0 .6-.4l.83.9a2.8 2.8 0 0 1-2.22.87 3.5 3.5 0 0 1-1.61-.35 2.6 2.6 0 0 1-1.08-.99 2.7 2.7 0 0 1-.38-1.43 3 3 0 0 1 .38-1.42 2.6 2.6 0 0 1 1.03-1 3 3 0 0 1 1.46-.35 3 3 0 0 1 1.43.34 2.5 2.5 0 0 1 1 .98 3 3 0 0 1 .37 1.47m-2.79-1.61a1.3 1.3 0 0 0-.89.3 1.3 1.3 0 0 0-.44.82h2.65a1.3 1.3 0 0 0-.44-.81 1.3 1.3 0 0 0-.88-.31m3.83-3.14h1.56V359h-1.56Zm6.87 7.16a2 2 0 0 1-.56.26 3 3 0 0 1-.7.08 2 2 0 0 1-1.49-.49 2 2 0 0 1-.53-1.44v-2.21h-.83v-1.2h.83v-1.31h1.56v1.31h1.34v1.2h-1.34v2.19a.7.7 0 0 0 .18.53.7.7 0 0 0 .49.18 1 1 0 0 0 .63-.2Zm5.52.34a5 5 0 0 1-1.31-.16 3 3 0 0 1-1.02-.42l.52-1.12a3 3 0 0 0 .87.38 4 4 0 0 0 1 .14q.99 0 .99-.49a.35.35 0 0 0-.27-.33 4 4 0 0 0-.83-.17 8 8 0 0 1-1.09-.23 2 2 0 0 1-.74-.46 1.3 1.3 0 0 1-.32-.94 1.5 1.5 0 0 1 .3-.9 2 2 0 0 1 .86-.61 4 4 0 0 1 1.34-.22 5 5 0 0 1 1.13.12 3 3 0 0 1 .94.34l-.52 1.11a3 3 0 0 0-1.55-.4 2 2 0 0 0-.75.14.4.4 0 0 0-.25.36.4.4 0 0 0 .27.35 5 5 0 0 0 .86.2 9 9 0 0 1 1.07.23 1.6 1.6 0 0 1 .73.45 1.3 1.3 0 0 1 .31.92 1.4 1.4 0 0 1-.3.89 2 2 0 0 1-.87.6 4 4 0 0 1-1.37.22m8.74-5.46-2.27 5.38h-1.61l-2.26-5.38h1.61l1.49 3.66 1.54-3.66Zm5.76 2.71-.03.42h-4.07a1.3 1.3 0 0 0 .52.79 1.7 1.7 0 0 0 1.02.29 2 2 0 0 0 .75-.12 2 2 0 0 0 .6-.4l.82.9a2.8 2.8 0 0 1-2.21.87 3.5 3.5 0 0 1-1.61-.35 2.6 2.6 0 0 1-1.08-.99 2.7 2.7 0 0 1-.38-1.43 3 3 0 0 1 .37-1.43 2.6 2.6 0 0 1 1.03-.99 3 3 0 0 1 1.47-.35 3 3 0 0 1 1.43.34 2.5 2.5 0 0 1 1 .98 3 3 0 0 1 .37 1.47m-2.79-1.61a1.3 1.3 0 0 0-.89.3 1.3 1.3 0 0 0-.44.82h2.65a1.3 1.3 0 0 0-.44-.81 1.3 1.3 0 0 0-.88-.31m7.1-1.18a2.2 2.2 0 0 1 1.62.6 2.4 2.4 0 0 1 .61 1.78V359h-1.56v-2.84a1.4 1.4 0 0 0-.28-.96 1 1 0 0 0-.81-.31 1.2 1.2 0 0 0-.94.36 1.5 1.5 0 0 0-.35 1.09V359h-1.56v-5.38h1.49v.63a2 2 0 0 1 .77-.52 3 3 0 0 1 1.01-.19m5.45 5.54a5 5 0 0 1-1.31-.16 3 3 0 0 1-1.02-.42l.52-1.12a3 3 0 0 0 .87.38 4 4 0 0 0 1 .14q.99 0 .99-.49a.35.35 0 0 0-.27-.33 4 4 0 0 0-.83-.17 8 8 0 0 1-1.09-.23 2 2 0 0 1-.74-.46 1.3 1.3 0 0 1-.32-.94 1.5 1.5 0 0 1 .3-.9 2 2 0 0 1 .86-.61 4 4 0 0 1 1.33-.22 5 5 0 0 1 1.14.12 3 3 0 0 1 .93.34l-.52 1.11a3 3 0 0 0-1.55-.4 2 2 0 0 0-.75.14.4.4 0 0 0-.25.36.4.4 0 0 0 .27.35 5 5 0 0 0 .86.19 9 9 0 0 1 1.08.24 1.6 1.6 0 0 1 .73.45 1.3 1.3 0 0 1 .31.92 1.4 1.4 0 0 1-.3.89 2 2 0 0 1-.88.6 4 4 0 0 1-1.36.22m5.81-2.19-.75.74V359h-1.56v-7.42h1.56v4.2l2.28-2.16h1.86l-2.24 2.28 2.44 3.1h-1.89Zm7.76 1.85a2 2 0 0 1-.56.26 3 3 0 0 1-.71.08 2 2 0 0 1-1.48-.49 2 2 0 0 1-.53-1.44v-2.21h-.83v-1.2h.83v-1.31h1.56v1.31h1.34v1.2h-1.34v2.19a.7.7 0 0 0 .18.53.7.7 0 0 0 .49.18 1 1 0 0 0 .63-.2Zm5.88-5.2a2.8 2.8 0 0 1 1.92.6 2.3 2.3 0 0 1 .67 1.79V359h-1.46v-.67a1.7 1.7 0 0 1-1.64.75 3 3 0 0 1-1.07-.21 1.6 1.6 0 0 1-.7-.58 1.5 1.5 0 0 1-.24-.84 1.4 1.4 0 0 1 .56-1.18 3 3 0 0 1 1.75-.43h1.24a1 1 0 0 0-.31-.78 1.4 1.4 0 0 0-.93-.28 3 3 0 0 0-.84.14 2 2 0 0 0-.71.36l-.56-1.09a3 3 0 0 1 1.06-.48 5 5 0 0 1 1.26-.17m-.12 4.49a1.4 1.4 0 0 0 .71-.18 1 1 0 0 0 .44-.55v-.55h-1.07q-.96 0-.96.63a.6.6 0 0 0 .24.48 1 1 0 0 0 .64.17m-.73-5.15a.7.7 0 0 1-.5-.2.7.7 0 0 1-.2-.5.7.7 0 0 1 .2-.49.7.7 0 0 1 .5-.2.7.7 0 0 1 .5.2.7.7 0 0 1 .2.5.7.7 0 0 1-.2.49.7.7 0 0 1-.5.2m2.02 0a.7.7 0 0 1-.5-.2.7.7 0 0 1-.19-.5.7.7 0 0 1 .2-.49.7.7 0 0 1 .49-.2.7.7 0 0 1 .5.2.7.7 0 0 1 .2.5.7.7 0 0 1-.2.49.7.7 0 0 1-.5.2m8.44.74v4.48a3 3 0 0 1-.77 2.2 3.2 3.2 0 0 1-2.25.72 6 6 0 0 1-1.48-.19 3 3 0 0 1-1.16-.55l.62-1.12a3 3 0 0 0 .86.45 3 3 0 0 0 1.04.16 1.7 1.7 0 0 0 1.2-.37 1.5 1.5 0 0 0 .38-1.1v-.23a2.2 2.2 0 0 1-1.7.67 3 3 0 0 1-1.35-.32 2.5 2.5 0 0 1-.98-.92 2.6 2.6 0 0 1-.36-1.36 2.6 2.6 0 0 1 .36-1.36 2.5 2.5 0 0 1 .98-.91 3 3 0 0 1 1.35-.33 2.1 2.1 0 0 1 1.78.77v-.69Zm-2.95 3.84a1.4 1.4 0 0 0 1.01-.36 1.2 1.2 0 0 0 .4-.96 1.2 1.2 0 0 0-.4-.95 1.4 1.4 0 0 0-1.01-.37 1.5 1.5 0 0 0-1.02.37 1.2 1.2 0 0 0-.4.95 1.2 1.2 0 0 0 .4.96 1.5 1.5 0 0 0 1.02.36m6.57-3.92a2.8 2.8 0 0 1 1.92.6 2.3 2.3 0 0 1 .67 1.8V359h-1.46v-.67a1.7 1.7 0 0 1-1.64.75 3 3 0 0 1-1.08-.21 1.6 1.6 0 0 1-.69-.58 1.5 1.5 0 0 1-.24-.84 1.4 1.4 0 0 1 .56-1.18 3 3 0 0 1 1.75-.43h1.24a1 1 0 0 0-.31-.78 1.4 1.4 0 0 0-.93-.28 3 3 0 0 0-.85.14 2 2 0 0 0-.7.36l-.56-1.09a3 3 0 0 1 1.06-.48 5 5 0 0 1 1.26-.17m-.12 4.49a1.4 1.4 0 0 0 .71-.18 1 1 0 0 0 .44-.55v-.55h-1.07q-.96 0-.96.63a.6.6 0 0 0 .24.48 1 1 0 0 0 .64.17m7.39-4.49a2.2 2.2 0 0 1 1.62.6 2.4 2.4 0 0 1 .61 1.78V359h-1.56v-2.84a1.4 1.4 0 0 0-.28-.96 1 1 0 0 0-.81-.31 1.2 1.2 0 0 0-.94.36 1.5 1.5 0 0 0-.35 1.09V359h-1.56v-5.38h1.49v.63a2 2 0 0 1 .77-.52 3 3 0 0 1 1.01-.19m9.18-1.96V359h-1.49v-.62a2 2 0 0 1-1.68.7 3 3 0 0 1-1.37-.34 2.4 2.4 0 0 1-.97-.97 3 3 0 0 1-.35-1.46 3 3 0 0 1 .35-1.46 2.4 2.4 0 0 1 .97-.97 3 3 0 0 1 1.37-.34 2 2 0 0 1 1.61.65v-2.61Zm-2.9 6.22a1.3 1.3 0 0 0 .98-.4 1.5 1.5 0 0 0 .39-1.09 1.5 1.5 0 0 0-.39-1.08 1.3 1.3 0 0 0-.98-.41 1.3 1.3 0 0 0-.99.4 1.5 1.5 0 0 0-.39 1.09 1.5 1.5 0 0 0 .39 1.08 1.3 1.3 0 0 0 .99.41m9.61-1.47-.03.42h-4.07a1.3 1.3 0 0 0 .52.79 1.7 1.7 0 0 0 1.02.29 2 2 0 0 0 .75-.12 2 2 0 0 0 .6-.4l.82.9a2.8 2.8 0 0 1-2.21.87 3.5 3.5 0 0 1-1.61-.35 2.6 2.6 0 0 1-1.08-.99 2.7 2.7 0 0 1-.38-1.43 3 3 0 0 1 .38-1.43 2.6 2.6 0 0 1 1.03-.99 3 3 0 0 1 1.46-.35 3 3 0 0 1 1.43.34 2.5 2.5 0 0 1 1 .98 3 3 0 0 1 .37 1.47m-2.79-1.61a1.3 1.3 0 0 0-.89.3 1.3 1.3 0 0 0-.44.82h2.65a1.3 1.3 0 0 0-.44-.81 1.3 1.3 0 0 0-.88-.31"/><path fill="#32cd32" d="M1106 118a12 12 0 1 1-12 12 12 12 0 0 1 12-12"/><path fill="#fff" d="m1104.48 133.4-3.08-3.09a.47.47 0 0 1 0-.67l.67-.67a.47.47 0 0 1 .67 0l2.08 2.08 4.44-4.45a.47.47 0 0 1 .67 0l.67.67a.47.47 0 0 1 0 .67l-5.45 5.46a.47.47 0 0 1-.67 0"/><path fill="none" stroke="#32cd32" stroke-linecap="round" stroke-width="2" d="m864 273.5-20 40m-64-40-21.19 40.18m.19-.18-24 43m24-43 11 43m117-43 23 43"/><path fill="none" stroke="#fd4343" stroke-linecap="round" stroke-width="2" d="m887 313.5-12 43"/><path fill="none" stroke="#32cd32" stroke-linecap="round" stroke-width="2" d="m844 313.5-4 43"/><g fill="#32cd32" stroke-dasharray="2 5" stroke-linecap="round" transform="translate(808 210.5)"><path d="M8 0h14a8 8 0 0 1 8 8v14a8 8 0 0 1-8 8H8a8 8 0 0 1-8-8V8a8 8 0 0 1 8-8"/><path fill="#fd4343" d="M15 0h2a1 1 0 1 1 0 2h-2a1 1 0 1 1 0-2m7 0h.38v.01h.16l.03.01h.11l.03.01q.6.06 1.16.2h.06l.03.01h.01a1 1 0 0 1-.5 1.94A6 6 0 0 0 22 2a1 1 0 1 1 0-2m5.37 2.51a1 1 0 0 1 .77.36l.01.02h.01v.01h.01v.01l.01.01.01.01v.01h.01v.01h.01v.01h.01v.01l.01.01V3h.02l.01.02.01.01.02.03.01.02.02.02.02.02q.44.57.78 1.22v.02h.01v.02h.01v.01l.01.02v.01h.01v.02h.01v.02l.01.01v.01l.01.01v.01l.02.03v.02a1 1 0 0 1-1.8.86 6 6 0 0 0-.8-1.26 1 1 0 0 1 .76-1.64M29 8.43a1 1 0 0 1 1 1v2a1 1 0 1 1-2 0v-2a1 1 0 0 1 1-1m0 7a1 1 0 0 1 1 1v2a1 1 0 1 1-2 0v-2a1 1 0 0 1 1-1m-.11 6.82.18.01c.54.1.9.62.8 1.16v.06l-.01.03-.01.06-.01.03-.1.4q-.17.69-.46 1.33a1 1 0 0 1-1.82-.83q.3-.7.45-1.43a1 1 0 0 1 .98-.82m-3.43 4.84a1 1 0 0 1 .5 1.87q-.87.48-1.85.76a1 1 0 1 1-.53-1.93q.73-.2 1.38-.57a1 1 0 0 1 .5-.13m-8.32.91h2a1 1 0 1 1 0 2h-2a1 1 0 0 1 0-2m-7 0h2a1 1 0 1 1 0 2h-2a1 1 0 0 1 0-2M4 26.75q.3 0 .57.18.62.43 1.33.7a1 1 0 1 1-.7 1.86h-.04v-.01h-.02l-.02-.02h-.03l-.01-.01h-.02l-.01-.01h-.01l-.01-.01H5v-.01h-.02l-.03-.02h-.02l-.02-.02h-.03l-.02-.02h-.03l-.02-.02-.03-.01-.02-.01h-.01l-.02-.01a8 8 0 0 1-1.1-.6h-.01l-.02-.02-.02-.01-.02-.02h-.01l-.02-.01v-.01h-.01v-.01H3.5v-.01l-.01-.01-.01-.01h-.01v-.01h-.01l-.01-.01h-.01v-.01h-.01A1 1 0 0 1 4 26.75m-2.97-5.13a1 1 0 0 1 1 .9q.06.76.3 1.47a1 1 0 1 1-1.88.66 8 8 0 0 1-.36-1.45v-.06H.07v-.07H.06V23l-.01-.02-.03-.28a1 1 0 0 1 1-1.08M1 14.7a1 1 0 0 1 1 1v2a1 1 0 1 1-2 0v-2a1 1 0 0 1 1-1m0-7a1 1 0 0 1 1 1v2a1 1 0 1 1-2 0v-2a1 1 0 0 1 1-1m2.06-5.66a1 1 0 0 1 .7 1.71q-.53.53-.92 1.18a1 1 0 0 1-1.72-1.02q.52-.87 1.23-1.58a1 1 0 0 1 .7-.29M8 0h2a1 1 0 1 1 0 2H8q-.48 0-.95.07A1 1 0 0 1 6.73.1q.46-.07.94-.1z"/></g><g fill="#32cd32" transform="translate(744 298.5)"><path d="M22 28.5H8A6.5 6.5 0 0 1 1.5 22V8A6.5 6.5 0 0 1 8 1.5h14A6.5 6.5 0 0 1 28.5 8v14a6.5 6.5 0 0 1-6.5 6.5"/><path d="M8 3a5 5 0 0 0-5 5v14a5 5 0 0 0 5 5h14a5 5 0 0 0 5-5V8a5 5 0 0 0-5-5zm0-3h14a8 8 0 0 1 8 8v14a8 8 0 0 1-8 8H8a8 8 0 0 1-8-8V8a8 8 0 0 1 8-8"/></g><g fill="#32cd32" stroke-dasharray="2 5" stroke-linecap="round" transform="translate(765 254.5)"><path d="M8 0h14a8 8 0 0 1 8 8v14a8 8 0 0 1-8 8H8a8 8 0 0 1-8-8V8a8 8 0 0 1 8-8"/><path fill="#fd4343" d="M15 0h2a1 1 0 1 1 0 2h-2a1 1 0 1 1 0-2m7 0h.38v.01h.16l.03.01h.11l.03.01q.6.06 1.16.2h.06l.03.01h.01a1 1 0 0 1-.5 1.94A6 6 0 0 0 22 2a1 1 0 1 1 0-2m5.37 2.51a1 1 0 0 1 .77.36l.01.02h.01v.01h.01v.01l.01.01.01.01v.01h.01v.01h.01v.01h.01v.01l.01.01V3h.02l.01.02.01.01.02.03.01.02.02.02.02.02q.44.57.78 1.22v.02h.01v.02h.01v.01l.01.02v.01h.01v.02h.01v.02l.01.01v.01l.01.01v.01l.02.03v.02a1 1 0 0 1-1.8.86 6 6 0 0 0-.8-1.26 1 1 0 0 1 .76-1.64M29 8.43a1 1 0 0 1 1 1v2a1 1 0 1 1-2 0v-2a1 1 0 0 1 1-1m0 7a1 1 0 0 1 1 1v2a1 1 0 1 1-2 0v-2a1 1 0 0 1 1-1m-.11 6.82.18.01c.54.1.9.62.8 1.16v.06l-.01.03-.01.06-.01.03-.1.4q-.17.69-.46 1.33a1 1 0 0 1-1.82-.83q.3-.7.45-1.43a1 1 0 0 1 .98-.82m-3.43 4.84a1 1 0 0 1 .5 1.87q-.87.48-1.85.76a1 1 0 1 1-.53-1.93q.73-.2 1.38-.57a1 1 0 0 1 .5-.13m-8.32.91h2a1 1 0 1 1 0 2h-2a1 1 0 0 1 0-2m-7 0h2a1 1 0 1 1 0 2h-2a1 1 0 0 1 0-2M4 26.75q.3 0 .57.18.62.43 1.33.7a1 1 0 1 1-.7 1.86h-.04v-.01h-.02l-.02-.02h-.03l-.01-.01h-.02l-.01-.01h-.01l-.01-.01H5v-.01h-.02l-.03-.02h-.02l-.02-.02h-.03l-.02-.02h-.03l-.02-.02-.03-.01-.02-.01h-.01l-.02-.01a8 8 0 0 1-1.1-.6h-.01l-.02-.02-.02-.01-.02-.02h-.01l-.02-.01v-.01h-.01v-.01H3.5v-.01l-.01-.01-.01-.01h-.01v-.01h-.01l-.01-.01h-.01v-.01h-.01A1 1 0 0 1 4 26.75m-2.97-5.13a1 1 0 0 1 1 .9q.06.76.3 1.47a1 1 0 1 1-1.88.66 8 8 0 0 1-.36-1.45v-.06H.07v-.07H.06V23l-.01-.02-.03-.28a1 1 0 0 1 1-1.08M1 14.7a1 1 0 0 1 1 1v2a1 1 0 1 1-2 0v-2a1 1 0 0 1 1-1m0-7a1 1 0 0 1 1 1v2a1 1 0 1 1-2 0v-2a1 1 0 0 1 1-1m2.06-5.66a1 1 0 0 1 .7 1.71q-.53.53-.92 1.18a1 1 0 0 1-1.72-1.02q.52-.87 1.23-1.58a1 1 0 0 1 .7-.29M8 0h2a1 1 0 1 1 0 2H8q-.48 0-.95.07A1 1 0 0 1 6.73.1q.46-.07.94-.1z"/></g><g fill="#32cd32" transform="translate(720 341.5)"><path d="M22 28.5H8A6.5 6.5 0 0 1 1.5 22V8A6.5 6.5 0 0 1 8 1.5h14A6.5 6.5 0 0 1 28.5 8v14a6.5 6.5 0 0 1-6.5 6.5"/><path d="M8 3a5 5 0 0 0-5 5v14a5 5 0 0 0 5 5h14a5 5 0 0 0 5-5V8a5 5 0 0 0-5-5zm0-3h14a8 8 0 0 1 8 8v14a8 8 0 0 1-8 8H8a8 8 0 0 1-8-8V8a8 8 0 0 1 8-8"/></g><g fill="#32cd32" stroke-dasharray="2 5" stroke-linecap="round" transform="translate(787 298.5)"><path d="M8 0h14a8 8 0 0 1 8 8v14a8 8 0 0 1-8 8H8a8 8 0 0 1-8-8V8a8 8 0 0 1 8-8"/><path fill="#ff4343" d="M15 0h2a1 1 0 1 1 0 2h-2a1 1 0 1 1 0-2m7 0h.38v.01h.16l.03.01h.11l.03.01q.6.06 1.16.2h.06l.03.01h.01a1 1 0 0 1-.5 1.94A6 6 0 0 0 22 2a1 1 0 1 1 0-2m5.37 2.51a1 1 0 0 1 .77.36l.01.02h.01v.01h.01v.01l.01.01.01.01v.01h.01v.01h.01v.01h.01v.01l.01.01V3h.02l.01.02.01.01.02.03.01.02.02.02.02.02q.44.57.78 1.22v.02h.01v.02h.01v.01l.01.02v.01h.01v.02h.01v.02l.01.01v.01l.01.01v.01l.02.03v.02a1 1 0 0 1-1.8.86 6 6 0 0 0-.8-1.26 1 1 0 0 1 .76-1.64M29 8.43a1 1 0 0 1 1 1v2a1 1 0 1 1-2 0v-2a1 1 0 0 1 1-1m0 7a1 1 0 0 1 1 1v2a1 1 0 1 1-2 0v-2a1 1 0 0 1 1-1m-.11 6.82.18.01c.54.1.9.62.8 1.16v.06l-.01.03-.01.06-.01.03-.1.4q-.17.69-.46 1.33a1 1 0 0 1-1.82-.83q.3-.7.45-1.43a1 1 0 0 1 .98-.82m-3.43 4.84a1 1 0 0 1 .5 1.87q-.87.48-1.85.76a1 1 0 1 1-.53-1.93q.73-.2 1.38-.57a1 1 0 0 1 .5-.13m-8.32.91h2a1 1 0 1 1 0 2h-2a1 1 0 0 1 0-2m-7 0h2a1 1 0 1 1 0 2h-2a1 1 0 0 1 0-2M4 26.75q.3 0 .57.18.62.43 1.33.7a1 1 0 1 1-.7 1.86h-.04v-.01h-.02l-.02-.02h-.03l-.01-.01h-.02l-.01-.01h-.01l-.01-.01H5v-.01h-.02l-.03-.02h-.02l-.02-.02h-.03l-.02-.02h-.03l-.02-.02-.03-.01-.02-.01h-.01l-.02-.01a8 8 0 0 1-1.1-.6h-.01l-.02-.02-.02-.01-.02-.02h-.01l-.02-.01v-.01h-.01v-.01H3.5v-.01l-.01-.01-.01-.01h-.01v-.01h-.01l-.01-.01h-.01v-.01h-.01A1 1 0 0 1 4 26.75m-2.97-5.13a1 1 0 0 1 1 .9q.06.76.3 1.47a1 1 0 1 1-1.88.66 8 8 0 0 1-.36-1.45v-.06H.07v-.07H.06V23l-.01-.02-.03-.28a1 1 0 0 1 1-1.08M1 14.7a1 1 0 0 1 1 1v2a1 1 0 1 1-2 0v-2a1 1 0 0 1 1-1m0-7a1 1 0 0 1 1 1v2a1 1 0 1 1-2 0v-2a1 1 0 0 1 1-1m2.06-5.66a1 1 0 0 1 .7 1.71q-.53.53-.92 1.18a1 1 0 0 1-1.72-1.02q.52-.87 1.23-1.58a1 1 0 0 1 .7-.29M8 0h2a1 1 0 1 1 0 2H8q-.48 0-.95.07A1 1 0 0 1 6.73.1q.46-.07.94-.1z"/></g><g fill="#32cd32" stroke-dasharray="2 5" stroke-linecap="round" transform="translate(849 254.5)"><path d="M8 0h14a8 8 0 0 1 8 8v14a8 8 0 0 1-8 8H8a8 8 0 0 1-8-8V8a8 8 0 0 1 8-8"/><path fill="#fd4343" d="M15 0h2a1 1 0 1 1 0 2h-2a1 1 0 1 1 0-2m7 0h.38v.01h.16l.03.01h.11l.03.01q.6.06 1.16.2h.06l.03.01h.01a1 1 0 0 1-.5 1.94A6 6 0 0 0 22 2a1 1 0 1 1 0-2m5.37 2.51a1 1 0 0 1 .77.36l.01.02h.01v.01h.01v.01l.01.01.01.01v.01h.01v.01h.01v.01h.01v.01l.01.01V3h.02l.01.02.01.01.02.03.01.02.02.02.02.02q.44.57.78 1.22v.02h.01v.02h.01v.01l.01.02v.01h.01v.02h.01v.02l.01.01v.01l.01.01v.01l.02.03v.02a1 1 0 0 1-1.8.86 6 6 0 0 0-.8-1.26 1 1 0 0 1 .76-1.64M29 8.43a1 1 0 0 1 1 1v2a1 1 0 1 1-2 0v-2a1 1 0 0 1 1-1m0 7a1 1 0 0 1 1 1v2a1 1 0 1 1-2 0v-2a1 1 0 0 1 1-1m-.11 6.82.18.01c.54.1.9.62.8 1.16v.06l-.01.03-.01.06-.01.03-.1.4q-.17.69-.46 1.33a1 1 0 0 1-1.82-.83q.3-.7.45-1.43a1 1 0 0 1 .98-.82m-3.43 4.84a1 1 0 0 1 .5 1.87q-.87.48-1.85.76a1 1 0 1 1-.53-1.93q.73-.2 1.38-.57a1 1 0 0 1 .5-.13m-8.32.91h2a1 1 0 1 1 0 2h-2a1 1 0 0 1 0-2m-7 0h2a1 1 0 1 1 0 2h-2a1 1 0 0 1 0-2M4 26.75q.3 0 .57.18.62.43 1.33.7a1 1 0 1 1-.7 1.86h-.04v-.01h-.02l-.02-.02h-.03l-.01-.01h-.02l-.01-.01h-.01l-.01-.01H5v-.01h-.02l-.03-.02h-.02l-.02-.02h-.03l-.02-.02h-.03l-.02-.02-.03-.01-.02-.01h-.01l-.02-.01a8 8 0 0 1-1.1-.6h-.01l-.02-.02-.02-.01-.02-.02h-.01l-.02-.01v-.01h-.01v-.01H3.5v-.01l-.01-.01-.01-.01h-.01v-.01h-.01l-.01-.01h-.01v-.01h-.01A1 1 0 0 1 4 26.75m-2.97-5.13a1 1 0 0 1 1 .9q.06.76.3 1.47a1 1 0 1 1-1.88.66 8 8 0 0 1-.36-1.45v-.06H.07v-.07H.06V23l-.01-.02-.03-.28a1 1 0 0 1 1-1.08M1 14.7a1 1 0 0 1 1 1v2a1 1 0 1 1-2 0v-2a1 1 0 0 1 1-1m0-7a1 1 0 0 1 1 1v2a1 1 0 1 1-2 0v-2a1 1 0 0 1 1-1m2.06-5.66a1 1 0 0 1 .7 1.71q-.53.53-.92 1.18a1 1 0 0 1-1.72-1.02q.52-.87 1.23-1.58a1 1 0 0 1 .7-.29M8 0h2a1 1 0 1 1 0 2H8q-.48 0-.95.07A1 1 0 0 1 6.73.1q.46-.07.94-.1z"/></g><g fill="#fd4343" transform="translate(872 297.5)"><path d="M22 28.5H8A6.5 6.5 0 0 1 1.5 22V8A6.5 6.5 0 0 1 8 1.5h14A6.5 6.5 0 0 1 28.5 8v14a6.5 6.5 0 0 1-6.5 6.5"/><path d="M8 3a5 5 0 0 0-5 5v14a5 5 0 0 0 5 5h14a5 5 0 0 0 5-5V8a5 5 0 0 0-5-5zm0-3h14a8 8 0 0 1 8 8v14a8 8 0 0 1-8 8H8a8 8 0 0 1-8-8V8a8 8 0 0 1 8-8"/></g><g fill="#32cd32" transform="translate(895 341.5)"><path d="M22 28.5H8A6.5 6.5 0 0 1 1.5 22V8A6.5 6.5 0 0 1 8 1.5h14A6.5 6.5 0 0 1 28.5 8v14a6.5 6.5 0 0 1-6.5 6.5"/><path d="M8 3a5 5 0 0 0-5 5v14a5 5 0 0 0 5 5h14a5 5 0 0 0 5-5V8a5 5 0 0 0-5-5zm0-3h14a8 8 0 0 1 8 8v14a8 8 0 0 1-8 8H8a8 8 0 0 1-8-8V8a8 8 0 0 1 8-8"/></g><g fill="#fd4343" transform="translate(860 341.5)"><path d="M22 28.5H8A6.5 6.5 0 0 1 1.5 22V8A6.5 6.5 0 0 1 8 1.5h14A6.5 6.5 0 0 1 28.5 8v14a6.5 6.5 0 0 1-6.5 6.5"/><path d="M8 3a5 5 0 0 0-5 5v14a5 5 0 0 0 5 5h14a5 5 0 0 0 5-5V8a5 5 0 0 0-5-5zm0-3h14a8 8 0 0 1 8 8v14a8 8 0 0 1-8 8H8a8 8 0 0 1-8-8V8a8 8 0 0 1 8-8"/></g><g fill="#32cd32" transform="translate(825 341.5)"><path d="M22 28.5H8A6.5 6.5 0 0 1 1.5 22V8A6.5 6.5 0 0 1 8 1.5h14A6.5 6.5 0 0 1 28.5 8v14a6.5 6.5 0 0 1-6.5 6.5"/><path d="M8 3a5 5 0 0 0-5 5v14a5 5 0 0 0 5 5h14a5 5 0 0 0 5-5V8a5 5 0 0 0-5-5zm0-3h14a8 8 0 0 1 8 8v14a8 8 0 0 1-8 8H8a8 8 0 0 1-8-8V8a8 8 0 0 1 8-8"/></g><g fill="#32cd32" transform="translate(755 341.5)"><path d="M22 28.5H8A6.5 6.5 0 0 1 1.5 22V8A6.5 6.5 0 0 1 8 1.5h14A6.5 6.5 0 0 1 28.5 8v14a6.5 6.5 0 0 1-6.5 6.5"/><path d="M8 3a5 5 0 0 0-5 5v14a5 5 0 0 0 5 5h14a5 5 0 0 0 5-5V8a5 5 0 0 0-5-5zm0-3h14a8 8 0 0 1 8 8v14a8 8 0 0 1-8 8H8a8 8 0 0 1-8-8V8a8 8 0 0 1 8-8"/></g><g fill="#32cd32" transform="translate(829 298.5)"><path d="M22 28.5H8A6.5 6.5 0 0 1 1.5 22V8A6.5 6.5 0 0 1 8 1.5h14A6.5 6.5 0 0 1 28.5 8v14a6.5 6.5 0 0 1-6.5 6.5"/><path d="M8 3a5 5 0 0 0-5 5v14a5 5 0 0 0 5 5h14a5 5 0 0 0 5-5V8a5 5 0 0 0-5-5zm0-3h14a8 8 0 0 1 8 8v14a8 8 0 0 1-8 8H8a8 8 0 0 1-8-8V8a8 8 0 0 1 8-8"/></g><g fill="#fd4343" transform="translate(790 341.5)"><path d="M22 28.5H8A6.5 6.5 0 0 1 1.5 22V8A6.5 6.5 0 0 1 8 1.5h14A6.5 6.5 0 0 1 28.5 8v14a6.5 6.5 0 0 1-6.5 6.5"/><path d="M8 3a5 5 0 0 0-5 5v14a5 5 0 0 0 5 5h14a5 5 0 0 0 5-5V8a5 5 0 0 0-5-5zm0-3h14a8 8 0 0 1 8 8v14a8 8 0 0 1-8 8H8a8 8 0 0 1-8-8V8a8 8 0 0 1 8-8"/></g><g fill="#32cd32" stroke-dasharray="2 5" stroke-linecap="round" transform="translate(808 254.5)"><path d="M8 0h14a8 8 0 0 1 8 8v14a8 8 0 0 1-8 8H8a8 8 0 0 1-8-8V8a8 8 0 0 1 8-8"/><path fill="#fd4343" d="M15 0h2a1 1 0 1 1 0 2h-2a1 1 0 1 1 0-2m7 0h.38v.01h.16l.03.01h.11l.03.01q.6.06 1.16.2h.06l.03.01h.01a1 1 0 0 1-.5 1.94A6 6 0 0 0 22 2a1 1 0 1 1 0-2m5.37 2.51a1 1 0 0 1 .77.36l.01.02h.01v.01h.01v.01l.01.01.01.01v.01h.01v.01h.01v.01h.01v.01l.01.01V3h.02l.01.02.01.01.02.03.01.02.02.02.02.02q.44.57.78 1.22v.02h.01v.02h.01v.01l.01.02v.01h.01v.02h.01v.02l.01.01v.01l.01.01v.01l.02.03v.02a1 1 0 0 1-1.8.86 6 6 0 0 0-.8-1.26 1 1 0 0 1 .76-1.64M29 8.43a1 1 0 0 1 1 1v2a1 1 0 1 1-2 0v-2a1 1 0 0 1 1-1m0 7a1 1 0 0 1 1 1v2a1 1 0 1 1-2 0v-2a1 1 0 0 1 1-1m-.11 6.82.18.01c.54.1.9.62.8 1.16v.06l-.01.03-.01.06-.01.03-.1.4q-.17.69-.46 1.33a1 1 0 0 1-1.82-.83q.3-.7.45-1.43a1 1 0 0 1 .98-.82m-3.43 4.84a1 1 0 0 1 .5 1.87q-.87.48-1.85.76a1 1 0 1 1-.53-1.93q.73-.2 1.38-.57a1 1 0 0 1 .5-.13m-8.32.91h2a1 1 0 1 1 0 2h-2a1 1 0 0 1 0-2m-7 0h2a1 1 0 1 1 0 2h-2a1 1 0 0 1 0-2M4 26.75q.3 0 .57.18.62.43 1.33.7a1 1 0 1 1-.7 1.86h-.04v-.01h-.02l-.02-.02h-.03l-.01-.01h-.02l-.01-.01h-.01l-.01-.01H5v-.01h-.02l-.03-.02h-.02l-.02-.02h-.03l-.02-.02h-.03l-.02-.02-.03-.01-.02-.01h-.01l-.02-.01a8 8 0 0 1-1.1-.6h-.01l-.02-.02-.02-.01-.02-.02h-.01l-.02-.01v-.01h-.01v-.01H3.5v-.01l-.01-.01-.01-.01h-.01v-.01h-.01l-.01-.01h-.01v-.01h-.01A1 1 0 0 1 4 26.75m-2.97-5.13a1 1 0 0 1 1 .9q.06.76.3 1.47a1 1 0 1 1-1.88.66 8 8 0 0 1-.36-1.45v-.06H.07v-.07H.06V23l-.01-.02-.03-.28a1 1 0 0 1 1-1.08M1 14.7a1 1 0 0 1 1 1v2a1 1 0 1 1-2 0v-2a1 1 0 0 1 1-1m0-7a1 1 0 0 1 1 1v2a1 1 0 1 1-2 0v-2a1 1 0 0 1 1-1m2.06-5.66a1 1 0 0 1 .7 1.71q-.53.53-.92 1.18a1 1 0 0 1-1.72-1.02q.52-.87 1.23-1.58a1 1 0 0 1 .7-.29M8 0h2a1 1 0 1 1 0 2H8q-.48 0-.95.07A1 1 0 0 1 6.73.1q.46-.07.94-.1z"/></g><path fill="none" stroke="#fd4343" stroke-linecap="round" stroke-width="2" d="M864.5 269.5h-84m21.5 44 3 28m-25-72 22 44m20.5-44.5v-73.5m42.5 74 22 43"/><path fill="#9a2828" d="M887 306.5a6 6 0 1 0 6 6 6 6 0 0 0-6-6m3.15 2.85a4.45 4.45 0 0 1 .5 5.7l-6.2-6.2a4.45 4.45 0 0 1 5.7.5m-6.3 6.3a4.45 4.45 0 0 1-.5-5.7l6.2 6.2a4.45 4.45 0 0 1-5.7-.5M875 350.5a6 6 0 1 0 6 6 6 6 0 0 0-6-6m3.15 2.85a4.45 4.45 0 0 1 .5 5.7l-6.2-6.2a4.45 4.45 0 0 1 5.7.5m-6.3 6.3a4.45 4.45 0 0 1-.5-5.7l6.2 6.2a4.45 4.45 0 0 1-5.7-.5M805 350.5a6 6 0 1 0 6 6 6 6 0 0 0-6-6m3.15 2.85a4.45 4.45 0 0 1 .5 5.7l-6.2-6.2a4.45 4.45 0 0 1 5.7.5m-6.3 6.3a4.45 4.45 0 0 1-.5-5.7l6.2 6.2a4.45 4.45 0 0 1-5.7-.5"/><path fill="#ff3e3e" d="M789.62 165.26h3.86v.74h-4.66v-8.76h.8Zm9.62-2.93v-.3a2 2 0 0 0-.5-1.43 1.8 1.8 0 0 0-1.34-.53 2 2 0 0 0-1.4.59 2.7 2.7 0 0 0-.64 1.67Zm.4 2.54v.8a4 4 0 0 1-1.82.4 3.2 3.2 0 0 1-2.38-.92 3.3 3.3 0 0 1-.92-2.41 3.6 3.6 0 0 1 .81-2.5 2.7 2.7 0 0 1 2.1-.91 2.5 2.5 0 0 1 1.92.8 3.2 3.2 0 0 1 .71 2.23 4 4 0 0 1-.05.7h-4.65a2.4 2.4 0 0 0 .75 1.67 2.6 2.6 0 0 0 1.76.58 3 3 0 0 0 1.78-.44Zm3.71 1.13-2.27-6.6h.83l.92 2.78 1.05 3.18q.13-.48 1.08-3.18l.96-2.77h.84l-2.34 6.59Zm9.1-3.67v-.3a2 2 0 0 0-.5-1.43 1.8 1.8 0 0 0-1.35-.53 2 2 0 0 0-1.4.59 2.7 2.7 0 0 0-.64 1.67Zm.4 2.54v.8a4 4 0 0 1-1.82.4 3.2 3.2 0 0 1-2.38-.92 3.3 3.3 0 0 1-.92-2.41 3.6 3.6 0 0 1 .8-2.5 2.7 2.7 0 0 1 2.1-.91 2.5 2.5 0 0 1 1.92.8 3.2 3.2 0 0 1 .72 2.23 4 4 0 0 1-.05.7h-4.66a2.4 2.4 0 0 0 .76 1.67 2.6 2.6 0 0 0 1.75.58 3 3 0 0 0 1.78-.44m2.82-5.46v1.12a1.9 1.9 0 0 1 1.85-1.2l.32.02v.8a2 2 0 0 0-.52-.07 1.4 1.4 0 0 0-1.17.7 2.7 2.7 0 0 0-.48 1.54V166h-.8v-6.6Zm6.92 3.46h-1.29a2.2 2.2 0 0 0-1.38.35 1.1 1.1 0 0 0-.45.9 1.2 1.2 0 0 0 .36.88 1.5 1.5 0 0 0 1.04.34 1.8 1.8 0 0 0 1.25-.43 1.4 1.4 0 0 0 .47-1.1Zm-3.48-2.25v-.86a3.5 3.5 0 0 1 1.86-.45q2.41 0 2.41 2.53V166h-.79v-.77a2.1 2.1 0 0 1-1.9.84 2 2 0 0 1-1.49-.54 1.8 1.8 0 0 1-.58-1.39 1.7 1.7 0 0 1 .74-1.47 3.3 3.3 0 0 1 1.94-.53h1.29v-.3a2 2 0 0 0-.38-1.33 1.6 1.6 0 0 0-1.26-.45 3.2 3.2 0 0 0-1.84.56m6.96-1.21v1.13a2.15 2.15 0 0 1 2.1-1.23 2 2 0 0 1 1.52.58 2 2 0 0 1 .57 1.51v4.6h-.8v-4.35a1.6 1.6 0 0 0-.38-1.17 1.4 1.4 0 0 0-1.03-.4 2 2 0 0 0-1.4.61 2.3 2.3 0 0 0-.58 1.67V166h-.79v-6.6Zm7.31.67v4.1q0 1.13 1.05 1.13a1.4 1.4 0 0 0 .89-.3v.8a1.6 1.6 0 0 1-.87.25 1.68 1.68 0 0 1-1.87-1.92v-4.05h-1.08v-.68h1.08v-1.65h.8v1.65h1.89v.68Zm4.51-2.34a.6.6 0 0 1 .16-.4.6.6 0 0 1 .4-.15.6.6 0 0 1 .4.15.5.5 0 0 1 .16.4.5.5 0 0 1-.16.4.5.5 0 0 1-.4.17.5.5 0 0 1-.4-.17.6.6 0 0 1-.16-.4m2.4 0a.5.5 0 0 1 .16-.4.6.6 0 0 1 .4-.15.6.6 0 0 1 .4.15.6.6 0 0 1 .15.4.6.6 0 0 1-.16.4.5.5 0 0 1-.4.17.5.5 0 0 1-.4-.17.5.5 0 0 1-.16-.4m-.77 8.38a2.8 2.8 0 0 1-2.21-.97 3.6 3.6 0 0 1-.82-2.41 3.6 3.6 0 0 1 .84-2.43 2.7 2.7 0 0 1 2.19-1 2.8 2.8 0 0 1 2.28.98 3.7 3.7 0 0 1 .81 2.45 3.6 3.6 0 0 1-.83 2.42 2.8 2.8 0 0 1-2.26.96m0-6.05a1.9 1.9 0 0 0-1.61.78 3 3 0 0 0-.59 1.89 3 3 0 0 0 .6 1.85 2 2 0 0 0 1.6.77 2 2 0 0 0 1.66-.76 3 3 0 0 0 .6-1.86 3 3 0 0 0-.56-1.9 2 2 0 0 0-1.7-.77m5.46-.66v1.12a1.9 1.9 0 0 1 1.84-1.2l.33.02v.8a2 2 0 0 0-.52-.07 1.4 1.4 0 0 0-1.18.7 2.7 2.7 0 0 0-.47 1.54V166h-.8v-6.6Zm8.82 2.17-2.66-4.34h.94l2.17 3.61 2.17-3.61h.93l-2.65 4.34 2.98 4.42h-.94l-2.48-3.73-2.35 3.73h-.94Zm-99.76 10.22a3 3 0 0 1 1.1.21 1.6 1.6 0 0 1 .73.6 1.7 1.7 0 0 1 .25.93 1.7 1.7 0 0 1-.25.93 1.6 1.6 0 0 1-.72.6 3 3 0 0 1-1.11.22h-1.11v1.41h-.91v-4.9Zm-.05 2.72a1.4 1.4 0 0 0 .9-.26 1 1 0 0 0 .31-.72 1 1 0 0 0-.3-.72 1.4 1.4 0 0 0-.9-.25h-1.07v1.95Zm3.03-3.01h.87v5.19h-.87Zm3.45 1.41a1.8 1.8 0 0 1 1.26.4 1.5 1.5 0 0 1 .44 1.2v2.18h-.82v-.45a1 1 0 0 1-.46.37 2 2 0 0 1-.72.13 2 2 0 0 1-.73-.14 1 1 0 0 1-.5-.4 1 1 0 0 1-.16-.58 1 1 0 0 1 .37-.81 2 2 0 0 1 1.18-.3h.97v-.06a.8.8 0 0 0-.24-.6 1 1 0 0 0-.7-.21 2 2 0 0 0-.62.1 2 2 0 0 0-.51.27l-.34-.63a2 2 0 0 1 .7-.35 3 3 0 0 1 .88-.12m-.12 3.2a1 1 0 0 0 .58-.16 1 1 0 0 0 .37-.43v-.43h-.9q-.76 0-.76.5a.5.5 0 0 0 .19.38 1 1 0 0 0 .52.13m5.19.38a1 1 0 0 1-.38.19 2 2 0 0 1-.46.06 1.3 1.3 0 0 1-.96-.32 1.2 1.2 0 0 1-.33-.94v-1.8h-.62v-.7h.62v-.85h.87v.85h1v.7h-1v1.78a.6.6 0 0 0 .14.41.5.5 0 0 0 .38.15 1 1 0 0 0 .5-.16Zm2.87 0a1 1 0 0 1-.37.19 2 2 0 0 1-.47.06 1.3 1.3 0 0 1-.95-.32 1.2 1.2 0 0 1-.33-.94v-1.8h-.62v-.7h.62v-.85h.87v.85h1v.7h-1v1.78a.6.6 0 0 0 .13.41.5.5 0 0 0 .39.15 1 1 0 0 0 .49-.16Zm2.24-4.34q-.55 0-.55.6v.23h1.03v.7h-1v3.01h-.87v-3.01h-.62v-.7h.62v-.24a1.3 1.3 0 0 1 .34-.95 1.3 1.3 0 0 1 .99-.35 1.4 1.4 0 0 1 .79.2l-.25.66a1 1 0 0 0-.48-.15m2.7 4.59a2 2 0 0 1-1.03-.25 2 2 0 0 1-.71-.68 2 2 0 0 1-.26-1 2 2 0 0 1 .26-.98 2 2 0 0 1 .71-.68 2 2 0 0 1 1.02-.24 2 2 0 0 1 1.03.24 2 2 0 0 1 .71.68 2 2 0 0 1 .26.99 2 2 0 0 1-.26.99 2 2 0 0 1-.7.68 2 2 0 0 1-1.04.25m0-.75a1 1 0 0 0 .8-.32 1.2 1.2 0 0 0 .3-.85 1.2 1.2 0 0 0-.3-.85 1 1 0 0 0-.8-.32 1 1 0 0 0-.8.32 1.2 1.2 0 0 0-.31.85 1.2 1.2 0 0 0 .3.85 1 1 0 0 0 .8.32m3.66-2.5a1.5 1.5 0 0 1 1.33-.58v.83l-.2-.02a1 1 0 0 0-.8.3 1.2 1.2 0 0 0-.29.86v1.81h-.87v-3.74h.83Zm6.79-.58a1.5 1.5 0 0 1 1.12.41 1.7 1.7 0 0 1 .41 1.23v2.14h-.87v-2.03a1 1 0 0 0-.22-.74.8.8 0 0 0-.62-.25 1 1 0 0 0-.7.3 1.2 1.2 0 0 0-.28.82v1.9h-.87v-2.03a1 1 0 0 0-.22-.74.8.8 0 0 0-.62-.25 1 1 0 0 0-.71.29 1.2 1.2 0 0 0-.26.83v1.9h-.88v-3.74h.83v.48a1.4 1.4 0 0 1 .53-.39 2 2 0 0 1 .7-.13 2 2 0 0 1 .75.16 1.2 1.2 0 0 1 .5.46 2 2 0 0 1 .6-.46 2 2 0 0 1 .81-.16m2.46 1.47h1.93v.73h-1.93Zm8.33.46-.01.26h-2.93a1 1 0 0 0 .4.66 1.3 1.3 0 0 0 .8.24 1.4 1.4 0 0 0 1.02-.41l.47.54a2 2 0 0 1-.63.45 2 2 0 0 1-.87.16 2.3 2.3 0 0 1-1.09-.25 2 2 0 0 1-.72-.68 2 2 0 0 1-.26-.99 2 2 0 0 1 .25-.98 2 2 0 0 1 .69-.69 2 2 0 0 1 .99-.24 2 2 0 0 1 .98.24 1.7 1.7 0 0 1 .67.68 2 2 0 0 1 .24 1.01m-1.89-1.23a1 1 0 0 0-.71.25 1 1 0 0 0-.35.66h2.12a1 1 0 0 0-.35-.66 1 1 0 0 0-.71-.25m2.73-2.11h.88v5.19h-.88Zm2.02 0h.88v5.19h-.88Zm5.54 3.34-.01.26h-2.94a1 1 0 0 0 .4.66 1.3 1.3 0 0 0 .81.24 1.4 1.4 0 0 0 1.02-.41l.47.54a2 2 0 0 1-.63.45 2 2 0 0 1-.87.16 2.3 2.3 0 0 1-1.09-.25 2 2 0 0 1-.72-.68 2 2 0 0 1-.26-.99 2 2 0 0 1 .25-.98 2 2 0 0 1 .69-.69 2 2 0 0 1 .99-.24 2 2 0 0 1 .98.24 1.7 1.7 0 0 1 .67.68 2 2 0 0 1 .24 1.01m-1.89-1.23a1 1 0 0 0-.71.25 1 1 0 0 0-.35.66h2.12a1 1 0 0 0-.35-.66 1 1 0 0 0-.71-.25m3.56-.11a1.5 1.5 0 0 1 1.34-.59v.83l-.2-.02a1 1 0 0 0-.8.3 1.2 1.2 0 0 0-.29.86v1.81h-.87v-3.74h.83Zm4.04-.55h.88v3.74h-.88Zm.44-.61a.6.6 0 0 1-.4-.15.5.5 0 0 1-.16-.38.5.5 0 0 1 .16-.37.6.6 0 0 1 .4-.15.6.6 0 0 1 .4.14.5.5 0 0 1 .16.36.5.5 0 0 1-.15.39.6.6 0 0 1-.4.16Zm3.7.57a1.6 1.6 0 0 1 1.14.41 1.6 1.6 0 0 1 .42 1.23v2.14h-.87v-2.03a1 1 0 0 0-.23-.74 1 1 0 0 0-.66-.25 1 1 0 0 0-.76.3 1.2 1.2 0 0 0-.28.83v1.89h-.88v-3.74h.84v.48a1.4 1.4 0 0 1 .54-.39 2 2 0 0 1 .75-.13Zm4.2-.76q-.56 0-.56.6v.23h1.03v.7h-1v3.01h-.87v-3.01h-.62v-.7h.62v-.24a1.3 1.3 0 0 1 .35-.95 1.3 1.3 0 0 1 .98-.34 1.4 1.4 0 0 1 .8.2l-.25.65a1 1 0 0 0-.48-.15m2.46 1.35a1.5 1.5 0 0 1 1.33-.59v.83l-.2-.02a1 1 0 0 0-.8.3 1.2 1.2 0 0 0-.29.86v1.81h-.87v-3.74h.83Zm3.48-.59a1.8 1.8 0 0 1 1.26.4 1.5 1.5 0 0 1 .44 1.19v2.19h-.83v-.45a1 1 0 0 1-.45.37 2 2 0 0 1-.72.13 2 2 0 0 1-.73-.14 1 1 0 0 1-.49-.4 1 1 0 0 1-.17-.58 1 1 0 0 1 .38-.81 2 2 0 0 1 1.17-.3h.96v-.06a.8.8 0 0 0-.23-.6 1 1 0 0 0-.7-.21 2 2 0 0 0-.62.1 2 2 0 0 0-.52.27l-.33-.64a2 2 0 0 1 .7-.34 3 3 0 0 1 .88-.12m-.12 3.2a1 1 0 0 0 .59-.16 1 1 0 0 0 .35-.43v-.43h-.9q-.76 0-.76.5a.5.5 0 0 0 .2.38 1 1 0 0 0 .52.13m4.1.63a3 3 0 0 1-.89-.12 2 2 0 0 1-.7-.3l.34-.67a2 2 0 0 0 .6.27 3 3 0 0 0 .7.1q.8 0 .8-.4a.3.3 0 0 0-.2-.28 4 4 0 0 0-.65-.15 5 5 0 0 1-.76-.16 1 1 0 0 1-.5-.32 1 1 0 0 1-.21-.63 1 1 0 0 1 .44-.85 2 2 0 0 1 1.2-.32 4 4 0 0 1 .77.09 2 2 0 0 1 .63.23l-.34.67a2 2 0 0 0-1.07-.28 1 1 0 0 0-.58.11.4.4 0 0 0-.2.3.3.3 0 0 0 .21.3 3 3 0 0 0 .66.17 5 5 0 0 1 .74.16 1 1 0 0 1 .5.3 1 1 0 0 1 .2.62 1 1 0 0 1-.46.84 2 2 0 0 1-1.24.32Zm4.7-.25a1 1 0 0 1-.37.19 2 2 0 0 1-.47.06 1.3 1.3 0 0 1-.95-.32 1.2 1.2 0 0 1-.34-.94v-1.8h-.62v-.7h.61v-.85h.88v.85h1v.7h-1v1.78a.6.6 0 0 0 .13.41.5.5 0 0 0 .39.15 1 1 0 0 0 .49-.16Zm1.55-3a1.5 1.5 0 0 1 1.33-.58v.83l-.2-.02a1 1 0 0 0-.8.3 1.2 1.2 0 0 0-.28.86v1.81h-.89v-3.74h.84Zm5.73-.54v3.74h-.84v-.48a1.4 1.4 0 0 1-.52.4 2 2 0 0 1-.68.13 1.6 1.6 0 0 1-1.18-.42 1.6 1.6 0 0 1-.44-1.23v-2.14h.88v2.02a1 1 0 0 0 .23.75.8.8 0 0 0 .64.25 1 1 0 0 0 .75-.3 1.2 1.2 0 0 0 .28-.83v-1.89Zm2.67 2.14-.66.62v.98h-.87v-5.2h.88v3.14l1.8-1.68h1.06l-1.56 1.57 1.7 2.17h-1.06Zm5.17 1.4a1 1 0 0 1-.37.19 2 2 0 0 1-.47.06 1.3 1.3 0 0 1-.95-.32 1.2 1.2 0 0 1-.34-.94v-1.8H844v-.7h.62v-.85h.88v.85h1v.7h-1v1.78a.6.6 0 0 0 .13.41.5.5 0 0 0 .38.15 1 1 0 0 0 .5-.16Zm4.34-3.53v3.73h-.83v-.48a1.4 1.4 0 0 1-.53.4 2 2 0 0 1-.68.13 1.6 1.6 0 0 1-1.18-.42 1.6 1.6 0 0 1-.43-1.23v-2.14h.88v2.02a1 1 0 0 0 .22.75.8.8 0 0 0 .65.25 1 1 0 0 0 .75-.3 1.2 1.2 0 0 0 .27-.83v-1.89Zm1.98.54a1.5 1.5 0 0 1 1.33-.59v.84l-.2-.02a1 1 0 0 0-.8.3 1.2 1.2 0 0 0-.29.85v1.81h-.87v-3.74h.83Zm5.2 3.24a3 3 0 0 1-.9-.12 2 2 0 0 1-.69-.3l.34-.66a2 2 0 0 0 .6.27 3 3 0 0 0 .7.1q.79 0 .79-.41a.3.3 0 0 0-.2-.28 4 4 0 0 0-.64-.14 5 5 0 0 1-.75-.17 1 1 0 0 1-.5-.31 1 1 0 0 1-.22-.64 1 1 0 0 1 .44-.85 2 2 0 0 1 1.2-.32 4 4 0 0 1 .77.09 2 2 0 0 1 .63.23l-.33.67a2 2 0 0 0-1.07-.28 1 1 0 0 0-.59.11.4.4 0 0 0-.2.3.3.3 0 0 0 .22.3 3 3 0 0 0 .66.17 5 5 0 0 1 .73.16 1 1 0 0 1 .5.3 1 1 0 0 1 .2.62 1 1 0 0 1-.45.84 2 2 0 0 1-1.25.32Zm4.12 0a2 2 0 0 1-1.02-.25 2 2 0 0 1-.71-.68 2 2 0 0 1 0-1.98 2 2 0 0 1 .71-.68 2.3 2.3 0 0 1 2.05 0 2 2 0 0 1 .71.68 2 2 0 0 1 0 1.98 2 2 0 0 1-.7.68 2 2 0 0 1-1.04.25m0-.75a1 1 0 0 0 .8-.32 1.2 1.2 0 0 0 .32-.85 1.2 1.2 0 0 0-.32-.84 1 1 0 0 0-.8-.33 1 1 0 0 0-.8.33 1.2 1.2 0 0 0-.3.84 1.2 1.2 0 0 0 .3.85 1 1 0 0 0 .8.32m7.56-3.08a1.5 1.5 0 0 1 1.12.41 1.7 1.7 0 0 1 .41 1.23v2.14h-.87v-2.03a1 1 0 0 0-.22-.74.8.8 0 0 0-.62-.25 1 1 0 0 0-.71.3 1.2 1.2 0 0 0-.27.82v1.9h-.87v-2.03a1 1 0 0 0-.22-.74.8.8 0 0 0-.62-.25 1 1 0 0 0-.71.29 1.2 1.2 0 0 0-.27.83v1.9h-.87v-3.74h.83v.48a1.4 1.4 0 0 1 .53-.39 2 2 0 0 1 .7-.13 2 2 0 0 1 .74.16 1.2 1.2 0 0 1 .52.46 2 2 0 0 1 .6-.46 2 2 0 0 1 .8-.16m6.83 3.58a1 1 0 0 1-.38.19 2 2 0 0 1-.46.06 1.3 1.3 0 0 1-.95-.32 1.2 1.2 0 0 1-.34-.94v-1.8h-.61v-.7h.61v-.85h.88v.85h1v.7h-1v1.78a.6.6 0 0 0 .13.41.5.5 0 0 0 .38.15 1 1 0 0 0 .5-.16Zm.34 1.61a1.4 1.4 0 0 1-.84-.22l.25-.65a1 1 0 0 0 .5.15.5.5 0 0 0 .38-.15.7.7 0 0 0 .13-.45v-3.83h.88v3.81a1.4 1.4 0 0 1-.35.98 1.3 1.3 0 0 1-.96.36Zm.86-5.76a.6.6 0 0 1-.4-.15.5.5 0 0 1 0-.75.6.6 0 0 1 .4-.15.6.6 0 0 1 .4.14.5.5 0 0 1 .16.36.5.5 0 0 1-.16.4.6.6 0 0 1-.4.15m3.01.57a1.8 1.8 0 0 1 1.27.4 1.5 1.5 0 0 1 .44 1.2v2.18h-.83v-.45a1 1 0 0 1-.46.37 2 2 0 0 1-.72.13 2 2 0 0 1-.73-.14 1 1 0 0 1-.49-.4 1 1 0 0 1-.17-.58 1 1 0 0 1 .37-.81 2 2 0 0 1 1.18-.3h.97v-.06a.8.8 0 0 0-.24-.6 1 1 0 0 0-.7-.21 2 2 0 0 0-.62.1 2 2 0 0 0-.51.27l-.35-.63a2 2 0 0 1 .71-.35 3 3 0 0 1 .88-.12m-.12 3.2a1 1 0 0 0 .58-.16 1 1 0 0 0 .36-.43v-.43h-.9q-.75 0-.75.5a.5.5 0 0 0 .19.38 1 1 0 0 0 .52.13m-.48-3.75a.4.4 0 0 1-.42-.42.4.4 0 0 1 .12-.3.44.44 0 0 1 .6 0 .4.4 0 0 1 .12.3.4.4 0 0 1-.42.42m1.36 0a.4.4 0 0 1-.42-.42.4.4 0 0 1 .11-.3.44.44 0 0 1 .6 0 .4.4 0 0 1 .12.3.4.4 0 0 1-.42.42Zm4.18.55a1.6 1.6 0 0 1 1.13.41 1.6 1.6 0 0 1 .43 1.23v2.14h-.87v-2.03a1 1 0 0 0-.23-.74 1 1 0 0 0-.66-.25 1 1 0 0 0-.76.3 1.2 1.2 0 0 0-.28.83v1.89h-.87v-3.74h.83v.48a1.4 1.4 0 0 1 .54-.39 2 2 0 0 1 .75-.13Zm3.83 3.83a3 3 0 0 1-.89-.12 2 2 0 0 1-.7-.3l.34-.67a2 2 0 0 0 .6.27 3 3 0 0 0 .7.1q.8 0 .8-.4a.3.3 0 0 0-.2-.28 4 4 0 0 0-.65-.15 5 5 0 0 1-.75-.16 1 1 0 0 1-.5-.32 1 1 0 0 1-.21-.63 1 1 0 0 1 .44-.85 2 2 0 0 1 1.2-.32 4 4 0 0 1 .77.09 2 2 0 0 1 .63.23l-.34.67a2 2 0 0 0-1.07-.28 1 1 0 0 0-.58.11.4.4 0 0 0-.2.3.3.3 0 0 0 .21.3 3 3 0 0 0 .66.17 5 5 0 0 1 .74.16 1 1 0 0 1 .5.3 1 1 0 0 1 .2.62 1 1 0 0 1-.46.84 2 2 0 0 1-1.24.32m4.7-.25a1 1 0 0 1-.37.19 2 2 0 0 1-.47.06 1.3 1.3 0 0 1-.95-.32 1.2 1.2 0 0 1-.34-.94v-1.8h-.61v-.7h.61v-.85h.88v.85h1v.7h-1v1.78a.6.6 0 0 0 .13.41.5.5 0 0 0 .39.15 1 1 0 0 0 .49-.16Z"/><path fill="#ff4545" d="M823 118a12 12 0 1 1-12 12 12 12 0 0 1 12-12"/><path fill="#fff" d="M823 124a6 6 0 1 0 6 6 6 6 0 0 0-6-6m3.15 2.85a4.45 4.45 0 0 1 .5 5.7l-6.2-6.2a4.45 4.45 0 0 1 5.7.5m-6.3 6.3a4.45 4.45 0 0 1-.5-5.7l6.2 6.2a4.45 4.45 0 0 1-5.7-.5"/><path fill="none" stroke="rgba(25,95,140,0.6)" stroke-width="0.25" d="M965.5 80.5v328.2"/><path fill="#417da5" d="M1070.24 159.82a6.98 6.98 0 0 0-13.89 0 6.98 6.98 0 0 0 .77 13.94h6.17a3.9 3.9 0 0 0 0-7.8 2.27 2.27 0 1 1 1.6-3.89.81.81 0 1 0 1.16-1.14 3.9 3.9 0 1 0-2.76 6.64 2.27 2.27 0 1 1 0 4.55h-6.17a5.36 5.36 0 0 1 0-10.72.8.8 0 0 0 .8-.8 5.36 5.36 0 0 1 10.73 0 .8.8 0 0 0 .81.8 5.36 5.36 0 1 1 0 10.72.81.81 0 0 0 0 1.63 6.98 6.98 0 0 0 .77-13.93Zm15.73 8.73c-.4-.16-.76-.28-1.28-.46-.94-.3-1.85-.63-1.85-1.41s.6-1.18 1.51-1.18a3.5 3.5 0 0 1 2.4 1.02l.8-1.18a4.2 4.2 0 0 0-3.23-1.23c-1.68 0-3.2.95-3.2 2.7a2.4 2.4 0 0 0 1.5 2.28 7 7 0 0 0 1.3.5c.63.22 2.13.53 2.13 1.58s-.94 1.35-1.81 1.35a4 4 0 0 1-2.8-1.35l-.91 1.11a4.5 4.5 0 0 0 3.68 1.7 4 4 0 0 0 2.63-.84 2.7 2.7 0 0 0 .98-2.15 2.3 2.3 0 0 0-.76-1.76 4 4 0 0 0-1.1-.68m6.94-4.45a7.3 7.3 0 0 0-3.55.97l.58 1.27a6 6 0 0 1 2.85-.82 2.08 2.08 0 0 1 2.35 2.16v.37l-2.53.1c-2.2.1-3.7 1.04-3.7 2.9a3 3 0 0 0 3.26 2.92 3.9 3.9 0 0 0 3.01-1.4l.02 1.2h1.85v-5.51a4 4 0 0 0-1.01-3.07 4 4 0 0 0-3.13-1.08m2.25 7.14a3 3 0 0 1-2.41 1.38 1.73 1.73 0 0 1-1.96-1.64c0-.9.62-1.55 2.16-1.63l2.21-.14Zm12.99-7.15a4.7 4.7 0 0 0-4.8 4.9 4.6 4.6 0 0 0 4.74 4.97 5.6 5.6 0 0 0 4.17-1.5l-.8-1.1a5.2 5.2 0 0 1-3.13 1.1 2.9 2.9 0 0 1-3.05-3h7.3a8 8 0 0 0 .05-.84 4.3 4.3 0 0 0-4.48-4.52m-2.85 4.1a2.8 2.8 0 0 1 2.8-2.72 2.75 2.75 0 0 1 2.72 2.71Zm13.46.34c-.4-.16-.76-.28-1.28-.46-.93-.3-1.85-.63-1.85-1.41s.6-1.18 1.51-1.18a3.5 3.5 0 0 1 2.4 1.02l.8-1.18a4.2 4.2 0 0 0-3.23-1.23c-1.67 0-3.2.95-3.2 2.7a2.4 2.4 0 0 0 1.5 2.28 7 7 0 0 0 1.3.5c.63.22 2.13.53 2.13 1.57s-.94 1.36-1.81 1.36a4 4 0 0 1-2.8-1.36l-.92 1.12a4.5 4.5 0 0 0 3.7 1.7 4 4 0 0 0 2.62-.85 2.7 2.7 0 0 0 .98-2.15 2.3 2.3 0 0 0-.76-1.75 4 4 0 0 0-1.1-.68m8.18-4.45a4 4 0 0 0-3.36 1.68h-.04v-1.5h-1.84v13.07h1.92v-5.1l.02.02a3.7 3.7 0 0 0 3.27 1.7c2.8 0 4.6-2.16 4.6-4.97s-1.79-4.9-4.58-4.9m-.4 8.24c-1.9 0-3.01-1.46-3.01-3.35s1.11-3.33 3-3.33 3.01 1.43 3.01 3.33-1.11 3.35-3 3.35m12.73-8.05h1.91v9.46h-1.91Zm8.36-.19a3.2 3.2 0 0 0-2.9 1.68h-.06l.02-1.5h-1.9v9.48h1.9V169c0-1.82.66-3.3 2.44-3.3 1.69 0 1.97 1.2 1.97 2.78v5.3h1.91v-5.62c0-2.27-.69-4.04-3.38-4.04m12.37.17.02 1.5h-.06a3.8 3.8 0 0 0-3.3-1.68 4.77 4.77 0 0 0 0 9.52 3.8 3.8 0 0 0 3.3-1.7h.04v.38a4.3 4.3 0 0 1-.72 2.65 3.2 3.2 0 0 1-2.59 1.04 6 6 0 0 1-3.4-1.2l-.9 1.33a7.3 7.3 0 0 0 4.23 1.42 5 5 0 0 0 4.23-1.82c.7-.86 1.03-2 1.03-4.08v-7.36Zm-2.95 7.78a3.23 3.23 0 0 1 0-6.44 3.23 3.23 0 0 1 0 6.45Zm-57.73-11.25a4 4 0 0 0-.64 2.53v10.41h1.9v-7.92h2.24v-1.53h-2.25v-1.06c0-1.08.2-2.02 1.45-2.02a4 4 0 0 1 .8.1v-1.44a6 6 0 0 0-1.23-.11 2.9 2.9 0 0 0-2.27 1.04m35.21 4.92h-.06l.02-1.45h-1.91v9.47h1.91v-4.73a4 4 0 0 1 .58-2.4 2 2 0 0 1 1.55-.8 3 3 0 0 1 1.04.2v-1.83a3 3 0 0 0-.8-.1 2.5 2.5 0 0 0-2.33 1.64m5.68-5.96a1.25 1.25 0 1 1-1.24 1.25 1.25 1.25 0 0 1 1.24-1.25"/></g></svg>