<svg xmlns="http://www.w3.org/2000/svg" xmlns:xlink="http://www.w3.org/1999/xlink" viewBox="0 0 485.12 343.27"><defs><style>.cls-1{fill:none}.cls-2{fill:#fafefe}.cls-3{fill:#d9d9d9}.cls-4{fill:#b3b3b3}.cls-5{opacity:.01}.cls-6{fill:red}.cls-7{fill:#c00000}.cls-8{fill:#0e3a4e}.cls-10,.cls-11,.cls-12,.cls-8,.cls-9{fill-rule:evenodd}.cls-9{fill:#155676}.cls-10,.cls-15{fill:#1c739d}.cls-11{fill:#5ab5e1}.cls-12{fill:#91ceeb}.cls-13{fill:#f8f9f9}.cls-14{fill:#3b9bcc}.cls-16{fill:#f8f7f6}.cls-17{fill:#fd7e0d}.cls-18{fill:#fff}.cls-19{clip-path:url(#clip-path)}.cls-20{clip-path:url(#clip-path-2)}</style><clipPath id="clip-path"><path d="m268.95 158.06 76.64-15.66 7.83 38.33-76.64 15.66z" class="cls-1"/></clipPath><clipPath id="clip-path-2"><path d="m273.71 165.1 70.27-14.36 4.7 22.96-70.28 14.36z" class="cls-1"/></clipPath></defs><g id="Lager_2"><g id="Lager_1-2"><path d="M374.53 263.12c-1.41-8.62 5.84-16.55 16.19-17.72a22 22 0 0 1 12.11 2c3.87-6.07 12.91-8.38 20.2-5.15a15 15 0 0 1 3.47 2.12c3-5 10.36-7.08 16.4-4.57a12 12 0 0 1 4.26 2.94c4.86-4.76 13.45-5.35 19.18-1.31a11 11 0 0 1 4.59 6.61c8 1.81 12.65 8.66 10.49 15.3a12 12 0 0 1-.69 1.63c6.39 6.92 4.82 16.83-3.49 22.15a21 21 0 0 1-8.87 3.11c-.07 7.44-7.38 13.42-16.33 13.36a18.6 18.6 0 0 1-8.45-2c-3 8.34-13.59 13.06-23.58 10.53a19 19 0 0 1-10.25-6.33c-10.23 5.14-23.52 2.37-29.67-6.18l-.23-.32c-6.7.65-12.76-3.33-13.55-8.89a9.1 9.1 0 0 1 3.21-8.11c-5.8-2.84-7.75-9.08-4.35-13.93a12.5 12.5 0 0 1 9.25-5Z" class="cls-2"/><path d="M425.5 313.27a23 23 0 0 1-5.62-.69q-1-.26-1.95-.59l.33-.94q.91.32 1.87.56a22 22 0 0 0 5.36.66h.51v1Zm3.5-.27-.15-1a21 21 0 0 0 7.31-2.59l.51.86A22 22 0 0 1 429 313m-13.9-2.24a18 18 0 0 1-5.49-4.38l-.32.15-.42-.9.65-.32.36-.18.25.32a17 17 0 0 0 5.44 4.42Zm-16.48-1.92h-.22v-1h.21a25 25 0 0 0 7.51-1.15l.3.95a26 26 0 0 1-7.78 1.2Zm-3.27-.2a25 25 0 0 1-7.8-2.28l.43-.9a24 24 0 0 0 7.49 2.19Zm43.84-.13-.64-.77a15 15 0 0 0 4.49-6.19l.93.35a16 16 0 0 1-4.76 6.61Zm-54.31-3.66a20 20 0 0 1-5.22-5l-.06-.1h-.26l-.06-1h.81l.39.56a19 19 0 0 0 4.95 4.72Zm67.27-.75H452a20 20 0 0 1-6-1l.32-.95a18 18 0 0 0 5.69.92h.13c.63 0 1.26 0 1.87-.09l.09 1q-.93.13-1.93.12Zm5-.63-.25-1a16.5 16.5 0 0 0 6.8-3.58l.67.74a17.4 17.4 0 0 1-7.21 3.84Zm-80.9-3.79a13.7 13.7 0 0 1-7.4-3.49l.69-.72a12.6 12.6 0 0 0 6.85 3.22Zm90.2-2.32-.81-.58a11.3 11.3 0 0 0 2.22-6.55v-.44l.44-.05q.33-.02.64-.09l.15 1h-.24a12.4 12.4 0 0 1-2.39 6.71Zm-99.53-3.64a10 10 0 0 1-1.12-3.28 10 10 0 0 1-.08-1.25 9 9 0 0 1 .75-3.61l.92.39a8 8 0 0 0-.67 3.22 8 8 0 0 0 .07 1.11 8 8 0 0 0 1 2.93ZM472.09 290l-.27-1a19 19 0 0 0 6.87-3.57l.63.78a20 20 0 0 1-1.81 1.31 21 21 0 0 1-5.42 2.48m9.44-5.91-.76-.65a14 14 0 0 0 3.24-6.9l1 .15a15 15 0 0 1-3.48 7.39Zm-112.61-.5-.76-.66q.24-.27.51-.54a11.4 11.4 0 0 1-4.4-4.24l.87-.5a10.5 10.5 0 0 0 4.6 4.17l.67.33-.56.5a10 10 0 0 0-.93.93Zm-5.75-8.39a9 9 0 0 1-.17-1.72 9.5 9.5 0 0 1 1.76-5.43q.26-.37.56-.73l.77.64q-.27.33-.51.67a8.5 8.5 0 0 0-1.58 4.85 8 8 0 0 0 .15 1.53Zm121-1.54a13.6 13.6 0 0 0-2.74-7.1l.8-.6a14.5 14.5 0 0 1 2.93 7.63ZM368.2 266l-.57-.82a14 14 0 0 1 6.36-2.33 13.6 13.6 0 0 1 1.18-7.79l.91.43a13 13 0 0 0-1.23 5.44A13 13 0 0 0 375 263v.14l-.28.64h-.29a13 13 0 0 0-6.23 2.22m113.54-2.11-.93-.35.13-.39a10 10 0 0 0-.3-7.05l.92-.39a11 11 0 0 1 .33 7.75l-.15.47Zm-2.55-10.26a14 14 0 0 0-6.19-4.43l.35-.93a15 15 0 0 1 6.62 4.79ZM377.56 253l-.8-.59a18 18 0 0 1 6.24-5.21l.46.89a17 17 0 0 0-5.9 4.91m25.45-5-.4-.2a21 21 0 0 0-5.85-1.83l.16-1a22 22 0 0 1 5.73 1.73q.38-.54.81-1.05l.76.65a11 11 0 0 0-1 1.31Zm67.28-.48a10.7 10.7 0 0 0-4.24-5.73l-.31-.21.55-.84.33.23a11.7 11.7 0 0 1 4.63 6.27Zm-84.14-.65-.33-.94a22 22 0 0 1 4.84-1.09 23 23 0 0 1 3.2-.14v1a22 22 0 0 0-3.06.13 22 22 0 0 0-4.65 1.1Zm40.79-2.32-.85-.51a12 12 0 0 1 6.45-5l.33.94a11 11 0 0 0-5.93 4.63Zm-20.62-.21-.6-.8a17 17 0 0 1 7.56-3.09l.15 1a16 16 0 0 0-7.11 2.95Zm40.82-.93-.35-.38a12 12 0 0 0-1.14-1.08l.63-.78a12 12 0 0 1 .9.82 14 14 0 0 1 5.24-3l.31.95a13 13 0 0 0-5.22 3.1Zm-23.35-.29q-.45-.24-1-.47a17 17 0 0 0-6.5-1.41v-1a18 18 0 0 1 6.88 1.5q.54.24 1 .5Zm19.42-2.68-.5-.23a14 14 0 0 0-7-.92l-.13-1a15 15 0 0 1 7.54 1l.54.24Zm20-.2a16 16 0 0 0-5.63-1 19 19 0 0 0-2 .12l-.12-1a17 17 0 0 1 8.1 1Z" class="cls-3"/><path d="M409.37 305.77a15 15 0 0 1-1.94-3.08l.91-.42a15 15 0 0 0 1.81 2.88Zm34.7-4.3-.94-.34a13 13 0 0 0 .72-3.15l1 .1a14 14 0 0 1-.78 3.39m-64.12-2-.1-1a14 14 0 0 0 3-.63l.31.95a15 15 0 0 1-3.16.64ZM468.8 290h-1v-.1a11 11 0 0 0-1.07-4.71l.91-.43a12 12 0 0 1 1.16 5.14Zm-93-6.17a14.5 14.5 0 0 1-6.37-1.45l.44-.89a14 14 0 0 0 6.85 1.31l.06 1q-.49.08-.98.07Zm89.4-1.08a15 15 0 0 0-6.19-4.51l.37-.92a16 16 0 0 1 6.61 4.8Zm11.71-13-.58-.81a12.6 12.6 0 0 0 3.9-4.41l.89.46a13.4 13.4 0 0 1-4.21 4.8Zm-102.22-4.07a14 14 0 0 1-.66-2.52l1-.16a13 13 0 0 0 .61 2.34Zm31.45-15.63a19 19 0 0 0-3.54-2.25l.43-.9a20 20 0 0 1 3.74 2.37Zm65.52-.12h-1v-.14a9 9 0 0 0-.2-1.91l1-.21a10 10 0 0 1 .23 2.12Zm-45.56-3.26-1-.25a10 10 0 0 1 1.06-2.51l.86.51a9 9 0 0 0-.92 2.29Zm19.39-1.21-.88-.46a12 12 0 0 1 2.17-2.89l.7.72a10 10 0 0 0-1.99 2.67Z" class="cls-3"/><path d="M401 276.87a3 3 0 0 1-1.19-.61l.45-1a3 3 0 0 0 1.05.55 4 4 0 0 0 1.26.22 2 2 0 0 0 1.16-.25.8.8 0 0 0 .39-.66.7.7 0 0 0-.22-.5 2 2 0 0 0-.54-.3q-.33-.11-.9-.25a10 10 0 0 1-1.3-.38 2 2 0 0 1-.85-.59 1.6 1.6 0 0 1-.31-1.1 2 2 0 0 1 .31-1.05 2 2 0 0 1 1-.76 4 4 0 0 1 1.56-.28 5 5 0 0 1 1.26.16 4 4 0 0 1 1.07.46l-.41 1a4 4 0 0 0-1-.41 4 4 0 0 0-1-.14 2 2 0 0 0-1.15.26.8.8 0 0 0-.37.69.6.6 0 0 0 .21.49 2 2 0 0 0 .55.3q.33.11.9.25a8 8 0 0 1 1.28.38 2 2 0 0 1 .85.59 1.6 1.6 0 0 1 .36 1.08 2 2 0 0 1-.32 1.05 2 2 0 0 1-.95.75 4 4 0 0 1-1.56.28 6 6 0 0 1-1.59-.23m5.52-.03a2.4 2.4 0 0 1-.92-.75l.74-.89a1.7 1.7 0 0 0 1.39.8q1.08 0 1.09-1.29v-3.62h-2.49V270h3.79v4.64a2.6 2.6 0 0 1-.6 1.85 2.4 2.4 0 0 1-1.76.61 3 3 0 0 1-1.24-.26m6.15-.56a3.2 3.2 0 0 1-.81-2.33V270h1.3v3.9q0 2.06 1.78 2.06c1.78 0 1.77-.69 1.77-2.06V270H418v4a3.2 3.2 0 0 1-.81 2.33 3.5 3.5 0 0 1-4.51 0ZM426 270v7h-1l-3.86-4.74V277h-1.29v-7h1.07l3.86 4.74V270Zm7.19 5.91V277h-5.25v-7h5.11v1.09h-3.81v1.82h3.38V274h-3.38v1.93Zm2.91-4.81h-2.32V270h5.94v1.1h-2.32v5.9h-1.3Z" class="cls-4"/><g class="cls-5"><path d="M11.53 261.45c-1.41-8.73 5.84-16.77 16.19-18a22 22 0 0 1 12.11 2c3.87-6.15 12.91-8.49 20.2-5.22a15 15 0 0 1 3.47 2.15c3-5.1 10.36-7.17 16.4-4.63a12 12 0 0 1 4.26 3c4.86-4.83 13.45-5.42 19.18-1.33a11.2 11.2 0 0 1 4.59 6.7c8 1.83 12.65 8.77 10.49 15.5a11 11 0 0 1-.69 1.66c6.39 7 4.82 17.06-3.49 22.44a21 21 0 0 1-8.87 3.16c-.07 7.54-7.38 13.6-16.33 13.54a18.4 18.4 0 0 1-8.45-2.07c-3 8.46-13.59 13.24-23.58 10.68a19 19 0 0 1-10.25-6.42c-10.23 5.21-23.52 2.4-29.67-6.26l-.23-.33c-6.7.66-12.76-3.37-13.55-9a9.3 9.3 0 0 1 3.21-8.22c-5.8-2.88-7.75-9.2-4.35-14.12a12.5 12.5 0 0 1 9.25-5.05Z" class="cls-6"/></g><path d="M62.47 312.27a22 22 0 0 1-5.59-.7 19.6 19.6 0 0 1-10.25-6.28c-10.38 5.06-23.74 2.15-29.95-6.59l-.06-.1c-6.83.56-13-3.65-13.81-9.46A9.7 9.7 0 0 1 5.68 281a11 11 0 0 1-5.38-6.72 9.5 9.5 0 0 1 1.46-7.83 13 13 0 0 1 9.24-5.23 14.5 14.5 0 0 1 2.94-10.81A20 20 0 0 1 27.66 243a22.5 22.5 0 0 1 12 1.9c4.12-6.07 13.24-8.33 20.58-5a16 16 0 0 1 3.15 1.87c3.3-4.95 10.65-6.9 16.71-4.35a13 13 0 0 1 4.09 2.73c5.07-4.66 13.68-5.15 19.45-1a11.8 11.8 0 0 1 4.72 6.7 15 15 0 0 1 9.56 6.89 11.5 11.5 0 0 1 .42 10.6 14.7 14.7 0 0 1 3.66 11.55 16 16 0 0 1-7.53 11.31 21 21 0 0 1-8.65 3.18c-.35 7.56-7.72 13.6-16.69 13.6H89a19 19 0 0 1-8.17-1.87c-2.7 6.8-10.25 11.16-18.36 11.16M46.9 304l.26.33a18.5 18.5 0 0 0 10 6.24c9.74 2.5 20.05-2.15 23-10.36l.19-.54.51.27A18 18 0 0 0 89 302h.13c8.6 0 15.63-5.83 15.7-13.05v-.44l.44-.05a20.4 20.4 0 0 0 8.66-3.08 15 15 0 0 0 7.08-10.6 13.7 13.7 0 0 0-3.69-11.08l-.23-.26.16-.31a10.4 10.4 0 0 0-.25-10 14 14 0 0 0-9.22-6.48l-.31-.07-.07-.32a10.7 10.7 0 0 0-4.39-6.4c-5.54-3.94-13.85-3.37-18.53 1.28l-.38.37-.35-.39a12 12 0 0 0-4.09-2.85c-5.8-2.44-12.88-.46-15.77 4.42l-.3.51-.45-.38a15 15 0 0 0-3.36-2.08c-7-3.16-15.83-.9-19.57 5l-.24.38-.4-.2a21.6 21.6 0 0 0-11.83-2 19 19 0 0 0-13.06 7A13.5 13.5 0 0 0 12 261.37v.14l-.28.64h-.29A12 12 0 0 0 2.58 267a8.5 8.5 0 0 0-1.31 7 10.2 10.2 0 0 0 5.48 6.38l.65.32-.54.5A8.8 8.8 0 0 0 3.8 289c.75 5.37 6.59 9.23 13 8.58h.3l.17.25.22.32c6 8.46 19 11.19 29 6.1Z" class="cls-7"/><path d="M46.36 304.67a16 16 0 0 1-1.93-3.12l.91-.42a15 15 0 0 0 1.81 2.93Zm34.71-4.36-.94-.33a14 14 0 0 0 .72-3.2l1 .1a14 14 0 0 1-.78 3.43M17 298.25l-.1-1a13 13 0 0 0 3-.64l.32.95a15 15 0 0 1-3.22.69m88.85-9.51h-1c0-5-3.4-9.7-8.79-11.92l.38-.92c5.72 2.36 9.41 7.4 9.36 12.84Zm-93-6.26A14 14 0 0 1 6.43 281l.45-.9a13 13 0 0 0 6.83 1.34l.07 1q-.5.04-.99.04Zm101.12-14.27-.58-.81a13 13 0 0 0 3.9-4.47l.89.45a13.5 13.5 0 0 1-4.27 4.83Zm-102.28-4.13a14 14 0 0 1-.66-2.55l1-.16a14 14 0 0 0 .61 2.37Zm31.45-15.84a19 19 0 0 0-3.55-2.24l.45-.89a19 19 0 0 1 3.73 2.4Zm65.52-.12h-1a10 10 0 0 0-.2-2.08l1-.2a10 10 0 0 1 .2 2.28m-45.56-3.3-1-.25a10 10 0 0 1 1.09-2.57l.86.51a9 9 0 0 0-.95 2.31m19.39-1.23-.89-.46a12 12 0 0 1 2.17-2.92l.71.71a11 11 0 0 0-1.99 2.67m-47.84 31.69a3.2 3.2 0 0 1-.81-2.33V269h1.3v3.9q0 2.06 1.78 2.06c1.78 0 1.77-.69 1.77-2.06V269H40v4a3.2 3.2 0 0 1-.8 2.33 3.5 3.5 0 0 1-4.52 0ZM48 269v7h-1.07l-3.86-4.74V276h-1.29v-7h1.07l3.86 4.74V269Zm1.9 0h1.3v7h-1.3Zm9.47 0v7H58.3l-3.86-4.74V276h-1.29v-7h1.07l3.86 4.74V269Zm7.15 5.91V276h-5.25v-7h5.11v1.09h-3.81v1.82H66V273h-3.43v1.93Zm2.92-4.81h-2.32V269h5.94v1.1h-2.32v5.9h-1.3Zm6 0h-2.32V269h5.94v1.1h-2.32v5.9h-1.3Z" class="cls-7"/><path d="m250.6 157 151.5 37.87L252.85 274 99.1 194.87z" class="cls-8"/><path d="m250.33 104 100.77 25.4-98.98 66.6-103.02-66.25z" class="cls-9"/><path d="m402.12 195 37.98 48.6L250.6 288 61.1 243.6 99.08 195l151.52 35.5z" class="cls-10"/><path d="m351.35 130 36.75 47.47-138 34.53-138-34.53L148.85 130l101.25 23.48z" class="cls-11"/><path d="m300.36 63.84 37.74 48.33-88 21.83-88-21.83L250.6 0c17.59 24.91 35.04 45.28 49.76 63.84" class="cls-12"/><path d="m300.36 64.08 37.74 48.17-88 21.75V0z" class="cls-11"/><path d="m351.35 130 36.75 47.47-138 34.53v-58.52z" class="cls-10"/><path d="m402.02 195 38.08 48.6-190 44.4v-57.5z" class="cls-9"/><path d="m203.88 104.79-3.73-1-1.15 1.57-1.42-.37 5.28-6.59 1.36.35 1.44 8.33-1.45-.38Zm-.18-1.21-.56-3.62-2.24 2.9Zm9.13-2.25a2.5 2.5 0 0 1 .86 1.2 2.7 2.7 0 0 1 0 1.51 2.7 2.7 0 0 1-.75 1.32 2.6 2.6 0 0 1-1.34.63 4 4 0 0 1-1.77-.11l-1.68-.44-.56 2.15-1.38-.36 1.92-7.45 3.07.79a4 4 0 0 1 1.63.76m-1.27 3.33a1.4 1.4 0 0 0 .75-1 1.4 1.4 0 0 0-.18-1.21 2.2 2.2 0 0 0-1.28-.74l-1.61-.42-.77 3 1.62.42a2.3 2.3 0 0 0 1.47-.05m8.65-1.42a2.5 2.5 0 0 1 .86 1.2 2.7 2.7 0 0 1 0 1.51 2.7 2.7 0 0 1-.75 1.32 2.6 2.6 0 0 1-1.34.63 4 4 0 0 1-1.77-.11l-1.68-.44-.53 2.15-1.38-.36 1.92-7.45 3.07.79a4 4 0 0 1 1.6.76m-1.27 3.33a1.4 1.4 0 0 0 .75-1 1.4 1.4 0 0 0-.18-1.21 2.2 2.2 0 0 0-1.28-.74l-1.62-.42-.76 3 1.62.42a2.3 2.3 0 0 0 1.47-.05m-55.72 53.7a2.5 2.5 0 0 1 .88 1.19 2.7 2.7 0 0 1 0 1.51 2.7 2.7 0 0 1-.74 1.32 2.5 2.5 0 0 1-1.33.65 4 4 0 0 1-1.77-.09l-1.69-.42-.53 2.16-1.39-.34 1.84-7.48 3.08.76a4 4 0 0 1 1.65.74m-1.22 3.34a1.56 1.56 0 0 0 .54-2.2 2.2 2.2 0 0 0-1.28-.72l-1.63-.4-.73 3 1.62.4a2.2 2.2 0 0 0 1.48-.08m3.94-3.01 1.39.34-1.55 6.3 3.91 1-.29 1.18-5.3-1.31Z" class="cls-2"/><path d="m175.46 169-3.74-.92-1.16 1.55-1.44-.35 5.21-6.65 1.37.34 1.53 8.3-1.45-.35Zm-.19-1.2-.61-3.61-2.2 2.92Zm5.64-2.27-2.48-.61.29-1.18 6.34 1.56-.29 1.18-2.47-.61-1.56 6.3-1.38-.34ZM187 167l-.56 2.27 3.61.89-.29 1.18-3.61-.89-.71 2.86L184 173l1.85-7.48 5.45 1.35-.28 1.16Zm5.12 7.56a3.9 3.9 0 0 1-1.14-3.83 4 4 0 0 1 1-1.85 4 4 0 0 1 1.78-1 4.4 4.4 0 0 1 2.18 0 4.4 4.4 0 0 1 1.94 1 4 4 0 0 1 1.1 1.73 4.1 4.1 0 0 1-1 4 4 4 0 0 1-1.78 1 4.4 4.4 0 0 1-2.18 0 4.4 4.4 0 0 1-1.9-1.05m3.67-.22a2.5 2.5 0 0 0 1.17-.71 3 3 0 0 0 .67-1.27 3 3 0 0 0 0-1.43 2.5 2.5 0 0 0-.7-1.17 3 3 0 0 0-1.27-.67 3 3 0 0 0-1.43 0 2.6 2.6 0 0 0-1.17.71 3 3 0 0 0-.67 1.27 3 3 0 0 0 0 1.43 2.5 2.5 0 0 0 .71 1.18 3 3 0 0 0 1.26.66 3 3 0 0 0 1.43 0m8.32 3.58-1-2.56-.29-.06-1.69-.42-.54 2.18-1.39-.34 1.84-7.48 3.08.76a4 4 0 0 1 1.61.74 2.5 2.5 0 0 1 .88 1.19 2.7 2.7 0 0 1 0 1.51 2.6 2.6 0 0 1-.77 1.35 2.5 2.5 0 0 1-1.4.62l1.11 2.88Zm1-6a2.2 2.2 0 0 0-1.28-.72l-1.63-.4-.73 3 1.62.4a2.2 2.2 0 0 0 1.48 0 1.4 1.4 0 0 0 .74-1 1.4 1.4 0 0 0-.24-1.32Zm8.39 8.31 1.21-4.95-3.46 3.49-.62-.15-1.47-4.62-1.2 4.89-1.32-.33 1.84-7.47 1.14.28 1.75 5.69 4.13-4.24 1.15.28-1.83 7.48Zm-99.59 43.56 1.38.35-1.89 7.46-1.38-.35Zm9.9 2.51-1.89 7.47-1.14-.29-2.83-6.1-1.28 5.05-1.38-.35 1.89-7.46 1.14.29 2.84 6.1 1.28-5.06Zm2.71 1.92-.58 2.28 3.6.91-.29 1.17-3.61-.91-.72 2.85-1.39-.35 1.89-7.46 5.45 1.38-.29 1.16Zm8.48 8.85-1-2.57-.29-.06L132 234l-.56 2.18-1.38-.36 1.89-7.46 3.07.78a4 4 0 0 1 1.61.75 2.4 2.4 0 0 1 .87 1.2 2.6 2.6 0 0 1 0 1.51 3 3 0 0 1-.78 1.35 2.6 2.6 0 0 1-1.41.6l1.09 2.89Zm1-6a2.2 2.2 0 0 0-1.28-.73l-1.62-.42-.75 3 1.62.41a2.2 2.2 0 0 0 1.47 0 1.4 1.4 0 0 0 .75-1A1.4 1.4 0 0 0 136 231Z" class="cls-2"/><path d="m142.75 237.21-3.73-1-1.18 1.54-1.43-.36 5.25-6.61 1.37.34 1.47 8.32-1.45-.37Zm-.19-1.21-.58-3.62-2.22 2.91Zm3.22 3.67a4 4 0 0 1-1.11-1l.76-.95a4 4 0 0 0 1 .88 5 5 0 0 0 1.28.57 2.4 2.4 0 0 0 1.31 0 .8.8 0 0 0 .59-.6.7.7 0 0 0-.1-.58 2 2 0 0 0-.49-.47q-.33-.21-.9-.51a12 12 0 0 1-1.27-.76 2.3 2.3 0 0 1-.75-.86 1.8 1.8 0 0 1-.08-1.27 2 2 0 0 1 .62-1 2.3 2.3 0 0 1 1.21-.54 4 4 0 0 1 1.74.12 5 5 0 0 1 1.3.51 4 4 0 0 1 1 .78l-.71 1a5 5 0 0 0-.92-.69 4 4 0 0 0-1-.42 2.4 2.4 0 0 0-1.29 0 .9.9 0 0 0-.59.64.7.7 0 0 0 .1.58 2 2 0 0 0 .5.47q.32.2.89.5a11 11 0 0 1 1.26.75 2.4 2.4 0 0 1 .75.87 1.7 1.7 0 0 1 .09 1.24 2 2 0 0 1-.62 1 2.3 2.3 0 0 1-1.22.54 4 4 0 0 1-1.74-.12 6 6 0 0 1-1.61-.68m8.85-4.31-2.47-.62.29-1.18 6.34 1.61-.3 1.17-2.47-.62-1.6 6.29-1.39-.35Zm7.96 8.72-1-2.57-.29-.07-1.69-.42-.55 2.17-1.39-.35 1.9-7.46 3.07.77a5 5 0 0 1 1.61.75 2.5 2.5 0 0 1 .89 2.71 2.5 2.5 0 0 1-.78 1.35 2.5 2.5 0 0 1-1.4.61l1.09 2.89Zm1-6a2.2 2.2 0 0 0-1.28-.73l-1.62-.41-.76 3 1.62.42a2.2 2.2 0 0 0 1.48 0 1.5 1.5 0 0 0 .75-1 1.4 1.4 0 0 0-.19-1.36Zm2.5 6.07a3.5 3.5 0 0 1-.24-2.71l1.07-4.21 1.39.36-1.06 4.15q-.56 2.2 1.35 2.68c1.91.48 2.07-.25 2.44-1.72l1.05-4.16 1.37.35-1.07 4.21a3.5 3.5 0 0 1-1.49 2.27 3.3 3.3 0 0 1-2.62.26 3.3 3.3 0 0 1-2.19-1.48m8.51 2.56a4 4 0 0 1-1.08-1.73 4.1 4.1 0 0 1 1-3.95 4 4 0 0 1 1.78-1 4.6 4.6 0 0 1 3.76.76 3.4 3.4 0 0 1 1 1.26l-1.11.61a2.7 2.7 0 0 0-1.77-1.38 3 3 0 0 0-1.46 0 2.5 2.5 0 0 0-1.19.69 3 3 0 0 0-.68 1.27 3 3 0 0 0 0 1.44 2.5 2.5 0 0 0 .71 1.17 3 3 0 0 0 1.29.69 2.7 2.7 0 0 0 2.22-.38l.68 1.08a4 4 0 0 1-1.52.6 4.7 4.7 0 0 1-3.68-1.12Zm8.99-4-2.48-.63.3-1.17 6.34 1.6-.3 1.18-2.47-.63-1.6 6.29L182 249Zm4.07 6.91a3.5 3.5 0 0 1-.24-2.71l1.07-4.21 1.39.35-1.06 4.16q-.55 2.2 1.34 2.68c1.89.48 2.08-.25 2.45-1.72l1-4.16 1.37.35-.98 4.21a3.5 3.5 0 0 1-1.49 2.27 3.3 3.3 0 0 1-2.62.26 3.3 3.3 0 0 1-2.23-1.48m11.88 3.83-1-2.57-.29-.07-1.68-.42-.55 2.17-1.39-.35 1.89-7.46 3.07.77a4 4 0 0 1 1.61.75 2.5 2.5 0 0 1 .87 1.2 2.6 2.6 0 0 1 0 1.52 2.5 2.5 0 0 1-2.19 1.95l1.1 2.89Zm1-6a2.2 2.2 0 0 0-1.28-.74l-1.62-.41-.75 3 1.62.41a2.2 2.2 0 0 0 1.47 0 1.4 1.4 0 0 0 .75-1 1.4 1.4 0 0 0-.19-1.29Zm7.4 6.89-.29 1.16-5.6-1.42 1.89-7.46 5.45 1.38-.29 1.16-4.07-1-.49 2 3.61.91-.29 1.14-3.61-.91-.52 2.05Z" class="cls-2"/><path d="M252.53 292.45c-1.41-8.73 5.84-16.77 16.19-18a22 22 0 0 1 12.11 2c3.87-6.15 12.91-8.49 20.2-5.22a15 15 0 0 1 3.47 2.15c3-5.1 10.36-7.17 16.4-4.63a12 12 0 0 1 4.26 3c4.86-4.83 13.45-5.42 19.18-1.33a11.2 11.2 0 0 1 4.59 6.7c8 1.83 12.65 8.77 10.49 15.5a11 11 0 0 1-.69 1.66c6.39 7 4.82 17.06-3.49 22.44a21 21 0 0 1-8.87 3.16c-.07 7.54-7.38 13.6-16.33 13.54a18.4 18.4 0 0 1-8.45-2.07c-3 8.46-13.59 13.24-23.58 10.68a19 19 0 0 1-10.25-6.42c-10.23 5.21-23.52 2.4-29.67-6.26l-.23-.33c-6.7.66-12.76-3.37-13.55-9a9.3 9.3 0 0 1 3.21-8.22c-5.8-2.88-7.75-9.2-4.35-14.12a12.5 12.5 0 0 1 9.25-5.05Z" class="cls-13"/><path d="M303.47 343.27a22 22 0 0 1-5.59-.7 19.6 19.6 0 0 1-10.25-6.28c-10.39 5.06-23.74 2.15-29.95-6.59l-.06-.1c-6.84.56-13-3.65-13.81-9.46a9.7 9.7 0 0 1 2.87-8.17 11 11 0 0 1-5.38-6.69 9.5 9.5 0 0 1 1.46-7.83 13 13 0 0 1 9.23-5.23 14.5 14.5 0 0 1 2.94-10.81 20 20 0 0 1 13.73-7.41 22.5 22.5 0 0 1 12 1.9c4.12-6.07 13.23-8.34 20.58-5a16 16 0 0 1 3.15 1.87c3.3-5 10.65-6.9 16.71-4.35a13 13 0 0 1 4.09 2.73c5.07-4.66 13.68-5.15 19.45-1a11.8 11.8 0 0 1 4.72 6.7 15 15 0 0 1 9.56 6.89 11.3 11.3 0 0 1 1 9.17 11 11 0 0 1-.56 1.43 14.7 14.7 0 0 1 3.64 11.55 16 16 0 0 1-7.53 11.31 21 21 0 0 1-8.65 3.18c-.35 7.56-7.72 13.6-16.69 13.6H330a19 19 0 0 1-8.17-1.87c-2.7 6.8-10.25 11.16-18.36 11.16M287.9 335l.26.33a18.5 18.5 0 0 0 10 6.24c9.74 2.49 20.05-2.15 23-10.36l.2-.54.51.27a18 18 0 0 0 8.22 2h.13c8.6 0 15.63-5.83 15.7-13.05v-.44l.44-.05a20.4 20.4 0 0 0 8.66-3.08 15 15 0 0 0 7.08-10.6 13.7 13.7 0 0 0-3.69-11.08l-.23-.26.16-.31a10.4 10.4 0 0 0-.25-10 14 14 0 0 0-9.22-6.48l-.31-.07-.07-.32a10.7 10.7 0 0 0-4.39-6.4c-5.54-3.94-13.85-3.37-18.53 1.28l-.38.37-.35-.39a12 12 0 0 0-4.09-2.85c-5.8-2.44-12.88-.46-15.77 4.42l-.3.51-.45-.38a15 15 0 0 0-3.36-2.08c-7.05-3.16-15.83-.9-19.57 5l-.24.38-.4-.2a21.5 21.5 0 0 0-11.83-2 19 19 0 0 0-13.06 7 13.5 13.5 0 0 0-2.7 10.35v.14l-.28.64h-.29a12 12 0 0 0-8.89 4.84 8.5 8.5 0 0 0-1.31 7 10.2 10.2 0 0 0 5.47 6.38l.66.32-.54.5a8.8 8.8 0 0 0-3.09 7.97c.75 5.37 6.57 9.23 13 8.58h.3l.39.57c6 8.46 19 11.19 29 6.1Z" class="cls-14"/><path d="M287.36 335.67a16 16 0 0 1-1.93-3.12l.91-.42a15 15 0 0 0 1.81 2.93Zm34.71-4.36-.94-.33a14 14 0 0 0 .72-3.2l1 .1a14 14 0 0 1-.78 3.43M258 329.25l-.1-1a13 13 0 0 0 3-.64l.32.95a15 15 0 0 1-3.22.69m88.85-9.51h-1c.05-5-3.4-9.7-8.79-11.92l.38-.92c5.72 2.36 9.41 7.4 9.36 12.84Zm-93-6.26a14 14 0 0 1-6.36-1.47l.44-.9a13.3 13.3 0 0 0 6.84 1.34l.07 1-1.05.03Zm101.12-14.27-.58-.81a13 13 0 0 0 3.9-4.47l.89.45a13.5 13.5 0 0 1-4.27 4.83Zm-102.22-4.13a15 15 0 0 1-.66-2.55l1-.16a13 13 0 0 0 .61 2.37Zm31.45-15.84a19 19 0 0 0-3.55-2.28l.45-.89a19 19 0 0 1 3.73 2.4Zm65.52-.12h-1a10 10 0 0 0-.2-2.09l1-.2a10 10 0 0 1 .14 2.29Zm-45.56-3.3-1-.25a10 10 0 0 1 1.06-2.54l.86.51a9 9 0 0 0-.98 2.28Zm19.39-1.23-.88-.46a12 12 0 0 1 2.16-2.92l.71.71a11 11 0 0 0-2.05 2.67Z" class="cls-14"/><path d="M284.75 303.42H286v2.79a4 4 0 0 1-1.26.66 5 5 0 0 1-1.48.23 4 4 0 0 1-1.93-.47 3.3 3.3 0 0 1-1.35-1.28 3.7 3.7 0 0 1 0-3.7 3.4 3.4 0 0 1 1.35-1.29 4 4 0 0 1 1.95-.46 4 4 0 0 1 1.6.29 3 3 0 0 1 1.21.85l-.82.8a2.8 2.8 0 0 0-3.25-.49 2.4 2.4 0 0 0-.9.87 2.5 2.5 0 0 0-.32 1.28 2.4 2.4 0 0 0 .32 1.26 2.4 2.4 0 0 0 .9.88 3 3 0 0 0 1.31.32 3 3 0 0 0 1.44-.36Zm8.25 2.49V307h-5.25v-7h5.11v1.09H289v1.82h3.38V304H289v1.93Zm-4.66-7.85h1.47l1.35 1.37h-1.08Zm10.66 7.32h-3.5l-.69 1.62h-1.34l3.15-7h1.28l3.16 7h-1.36Zm-.43-1-1.32-3.06-1.31 3.06Zm9.61-4.38v7h-1.07l-3.86-4.74V307H302v-7h1l3.86 4.74V300Zm3.32 1.1h-2.32V300h5.94v1.1h-2.32v5.9h-1.3Z" class="cls-15"/><path d="M125.53 290.45c-1.41-8.73 5.84-16.77 16.19-18a22 22 0 0 1 12.11 2c3.87-6.15 12.91-8.49 20.2-5.22a15 15 0 0 1 3.47 2.15c3-5.1 10.36-7.17 16.4-4.63a12 12 0 0 1 4.26 3c4.86-4.83 13.45-5.42 19.18-1.33a11.2 11.2 0 0 1 4.59 6.7c8 1.83 12.65 8.77 10.49 15.5a11 11 0 0 1-.69 1.66c6.39 7 4.82 17.06-3.49 22.44a21 21 0 0 1-8.87 3.16c-.07 7.54-7.38 13.6-16.33 13.54a18.4 18.4 0 0 1-8.45-2.07c-3 8.46-13.59 13.24-23.58 10.68a19 19 0 0 1-10.25-6.42c-10.23 5.21-23.52 2.4-29.67-6.26l-.23-.33c-6.7.66-12.76-3.37-13.55-9a9.3 9.3 0 0 1 3.21-8.22c-5.8-2.88-7.75-9.2-4.35-14.12a12.5 12.5 0 0 1 9.25-5.05Z" class="cls-16"/><path d="M176.47 341.27a22 22 0 0 1-5.59-.7 19.6 19.6 0 0 1-10.25-6.28c-10.38 5.06-23.74 2.15-29.95-6.59l-.06-.1c-6.84.56-13-3.65-13.81-9.46a9.7 9.7 0 0 1 2.87-8.17 11 11 0 0 1-5.38-6.69 9.5 9.5 0 0 1 1.46-7.83 13 13 0 0 1 9.23-5.23 14.5 14.5 0 0 1 2.94-10.81 20 20 0 0 1 13.73-7.41 22.5 22.5 0 0 1 12 1.9c4.12-6.07 13.24-8.33 20.58-5a16 16 0 0 1 3.15 1.87c3.3-5 10.65-6.9 16.71-4.35a13 13 0 0 1 4.09 2.73c5.07-4.66 13.68-5.15 19.45-1a11.8 11.8 0 0 1 4.72 6.7 15 15 0 0 1 9.56 6.89 11.5 11.5 0 0 1 .42 10.6 14.7 14.7 0 0 1 3.66 11.55 16 16 0 0 1-7.53 11.31 21 21 0 0 1-8.65 3.18c-.35 7.56-7.72 13.6-16.69 13.6H203a19 19 0 0 1-8.17-1.87c-2.7 6.8-10.25 11.16-18.36 11.16M160.9 333l.26.33a18.5 18.5 0 0 0 10 6.24c9.73 2.5 20.05-2.15 23-10.36l.19-.54.51.27a18 18 0 0 0 8.22 2h.13c8.6 0 15.63-5.83 15.7-13.05v-.44l.44-.05a20.4 20.4 0 0 0 8.66-3.08 15 15 0 0 0 7.08-10.6 13.7 13.7 0 0 0-3.69-11.08l-.23-.26.16-.31a10.4 10.4 0 0 0-.25-10 14 14 0 0 0-9.22-6.48l-.31-.07-.07-.32a10.7 10.7 0 0 0-4.39-6.4c-5.54-3.94-13.85-3.37-18.54 1.28l-.37.37-.35-.39a12 12 0 0 0-4.09-2.85c-5.81-2.44-12.88-.46-15.77 4.42l-.3.51-.45-.38a15 15 0 0 0-3.36-2.08c-7-3.16-15.83-.9-19.57 5l-.24.38-.4-.2a21.6 21.6 0 0 0-11.83-2 19 19 0 0 0-13.06 7 13.5 13.5 0 0 0-2.7 10.35v.14l-.28.64h-.29a12 12 0 0 0-8.89 4.84 8.5 8.5 0 0 0-1.31 7 10.2 10.2 0 0 0 5.48 6.38l.65.32-.54.5a8.8 8.8 0 0 0-3.08 7.97c.75 5.37 6.59 9.23 13 8.58h.3l.17.25.22.32c6 8.46 19 11.19 29 6.1Z" class="cls-17"/><path d="M160.36 333.67a16 16 0 0 1-1.93-3.12l.91-.42a15 15 0 0 0 1.81 2.93Zm34.71-4.36-.94-.33a14 14 0 0 0 .72-3.2l1 .1a14 14 0 0 1-.78 3.43M131 327.25l-.1-1a13 13 0 0 0 3-.64l.32.95a15 15 0 0 1-3.22.69m88.85-9.51h-1c0-5-3.4-9.7-8.79-11.92l.38-.92c5.72 2.36 9.41 7.4 9.36 12.84Zm-93-6.26a14 14 0 0 1-6.36-1.47l.45-.9a13 13 0 0 0 6.83 1.34l.07 1-1.05.03Zm101.12-14.27-.58-.81a13 13 0 0 0 3.9-4.47l.89.45a13.5 13.5 0 0 1-4.27 4.83Zm-102.22-4.13a14 14 0 0 1-.66-2.55l1-.16a14 14 0 0 0 .61 2.37Zm31.45-15.84a19 19 0 0 0-3.55-2.28l.45-.89a19 19 0 0 1 3.73 2.4Zm65.52-.12h-1a10 10 0 0 0-.2-2.08l1-.2a10 10 0 0 1 .14 2.28Zm-45.56-3.3-1-.25a10 10 0 0 1 1.06-2.54l.86.51a9 9 0 0 0-.98 2.28Zm19.39-1.23-.89-.46a12 12 0 0 1 2.17-2.92l.71.71a11 11 0 0 0-2.05 2.67Zm-42.34 32.28a3 3 0 0 1-1.19-.61l.45-1a3 3 0 0 0 1.05.55 4 4 0 0 0 1.26.22 2 2 0 0 0 1.16-.25.8.8 0 0 0 .39-.66.7.7 0 0 0-.22-.5 2 2 0 0 0-.54-.3q-.33-.11-.9-.25a10 10 0 0 1-1.3-.38 2 2 0 0 1-.85-.59 1.7 1.7 0 0 1-.35-1.1 2 2 0 0 1 .31-1.05 2 2 0 0 1 1-.76 4 4 0 0 1 1.56-.28 5 5 0 0 1 1.26.16 4 4 0 0 1 1.07.46l-.41 1a4 4 0 0 0-1-.41 4 4 0 0 0-1-.14 2 2 0 0 0-1.15.26.8.8 0 0 0-.37.69.6.6 0 0 0 .21.49 2 2 0 0 0 .55.3q.33.11.9.25a8 8 0 0 1 1.28.38 2 2 0 0 1 .85.59 1.6 1.6 0 0 1 .36 1.08 2 2 0 0 1-.32 1.05 2 2 0 0 1-.95.75 4 4 0 0 1-1.56.28 6 6 0 0 1-1.55-.23m6.41-.59a3.2 3.2 0 0 1-.81-2.33V298h1.3v3.9q0 2.06 1.78 2.06c1.78 0 1.77-.69 1.77-2.06V298h1.28v4a3.2 3.2 0 0 1-.81 2.33 3.5 3.5 0 0 1-4.51 0ZM174 298v7h-1.07l-3.86-4.74V305h-1.29v-7h1.07l3.86 4.74V298Zm7.14 5.91V305h-5.25v-7H181v1.09h-3.81v1.82h3.38V302h-3.38v1.93Zm2.92-4.81h-2.32V298h5.94v1.1h-2.32v5.9h-1.3Z" class="cls-17"/><path d="M310.07 240.88a6.87 6.87 0 0 0-13.3 3.13 6.87 6.87 0 0 0 3.88 13.18l5.91-1.4a3.83 3.83 0 1 0-1.76-7.46 2.24 2.24 0 0 1-1-4.36 2.2 2.2 0 0 1 1.68.27.8.8 0 0 0 .87-1.34 3.84 3.84 0 1 0-1.14 7 2.24 2.24 0 0 1 1 4.36l-5.92 1.39a5.28 5.28 0 0 1-2.42-10.27.8.8 0 0 0 .6-1 5.28 5.28 0 0 1 10.26-2.38.8.8 0 0 0 1 .59 5.28 5.28 0 0 1 2.43 10.27.8.8 0 1 0 .36 1.56 6.87 6.87 0 0 0-2.4-13.51Zm17.04 4.8c-.42-.06-.79-.09-1.33-.15-1-.07-1.91-.19-2.09-.93s.31-1.27 1.19-1.47a3.4 3.4 0 0 1 2.52.43l.5-1.31a4 4 0 0 0-3.37-.45c-1.61.38-2.85 1.64-2.45 3.32A2.4 2.4 0 0 0 324 247a7 7 0 0 0 1.36.18c.66.07 2.16 0 2.4 1s-.59 1.51-1.43 1.71a3.8 3.8 0 0 1-3-.67l-.63 1.28a4.5 4.5 0 0 0 3.91.79 4 4 0 0 0 2.33-1.4 2.6 2.6 0 0 0 .45-2.28 2.3 2.3 0 0 0-1.12-1.51 4 4 0 0 0-1.16-.42m5.63-5.82a7.3 7.3 0 0 0-3.18 1.72l.84 1.09a5.6 5.6 0 0 1 2.55-1.42 2 2 0 0 1 2.74 1.53l.08.36-2.4.67c-2.08.59-3.32 1.83-2.9 3.6a3 3 0 0 0 3.79 2.07 3.8 3.8 0 0 0 2.57-2l.29 1.14 1.77-.41-1.24-5.28a4 4 0 0 0-1.67-2.71 4 4 0 0 0-3.24-.36m3.77 6.33a3 3 0 0 1-2 1.86 1.7 1.7 0 0 1-2.24-1.12c-.2-.86.24-1.63 1.69-2.05l2.09-.64Zm10.84-9.77a4.63 4.63 0 0 0-3.5 5.78 4.52 4.52 0 0 0 5.66 3.68 5.5 5.5 0 0 0 3.66-2.37l-1-.87a5 5 0 0 1-2.75 1.76 2.86 2.86 0 0 1-3.59-2.19l7-1.65a7 7 0 0 0-.13-.82 4.25 4.25 0 0 0-5.35-3.32m-1.81 4.58a2.74 2.74 0 0 1 2.06-3.23 2.7 2.7 0 0 1 3.23 2Zm12.97-2.72c-.42-.06-.79-.09-1.32-.15-1-.07-1.92-.19-2.1-.93s.31-1.27 1.19-1.47a3.4 3.4 0 0 1 2.52.43l.5-1.31a4 4 0 0 0-3.37-.45c-1.61.38-2.85 1.64-2.45 3.32a2.4 2.4 0 0 0 1.94 1.84 8 8 0 0 0 1.36.18c.66.07 2.16 0 2.4 1s-.6 1.51-1.44 1.7a3.8 3.8 0 0 1-3-.66l-.62 1.27a4.5 4.5 0 0 0 3.91.79 4 4 0 0 0 2.33-1.39 2.7 2.7 0 0 0 .45-2.28 2.3 2.3 0 0 0-1.12-1.51 4 4 0 0 0-1.18-.38m6.82-6.1a4 4 0 0 0-2.84 2.37l-.34-1.43-1.75.42 2.95 12.51 1.83-.43-1.18-4.88a3.6 3.6 0 0 0 3.52.89c2.69-.63 3.92-3.1 3.28-5.79s-2.8-4.29-5.47-3.66m1.47 8a3.3 3.3 0 1 1 2.13-3.89c.43 1.8-.31 3.44-2.13 3.87Zm10.37-10.6 1.83-.44 2.14 9.07-1.83.43zm7.97-2.07a3.2 3.2 0 0 0-2.39 2.26h-.06l-.32-1.44-1.83.43 2.14 9.08 1.83-.44-1.08-4.57c-.41-1.73-.11-3.31 1.59-3.71s2.15.7 2.51 2.23l1.2 5.06 1.83-.43-1.27-5.37c-.5-2.16-1.57-3.7-4.15-3.1m11.86-2.62.36 1.43h-.06a3.7 3.7 0 0 0-3.55-.85 4.69 4.69 0 0 0 2.15 9.12 3.7 3.7 0 0 0 2.79-2.37l.08.36a4.2 4.2 0 0 1-.09 2.7 3.2 3.2 0 0 1-2.25 1.58 6 6 0 0 1-3.51-.38l-.56 1.48a7 7 0 0 0 4.36.4 4.9 4.9 0 0 0 3.64-2.69c.48-1 .54-2.15.07-4.15l-1.66-7.05Zm-1 8.11a3.17 3.17 0 1 1 2.16-3.75A2.88 2.88 0 0 1 396 233m-57.88 2.27a4 4 0 0 0 0 2.57l2.35 10 1.82-.42-1.79-7.59 2.15-.51-.34-1.47-2.16.51-.24-1c-.24-1-.26-2 .94-2.26a4 4 0 0 1 .79-.08l-.33-1.38a6 6 0 0 0-1.21.17 2.8 2.8 0 0 0-1.98 1.46M373 232l-.31-1.4-1.83.43 2.13 9.08 1.84-.43-1.07-4.53a4 4 0 0 1 0-2.43 2 2 0 0 1 1.31-1.11 2.4 2.4 0 0 1 1 0l-.42-1.76a3 3 0 0 0-.78.09A2.45 2.45 0 0 0 373 232" class="cls-18"/><circle cx="377.34" cy="226.24" r="1.23" class="cls-18"/><g id="Layer_2"><g id="Layer_1-2"><g id="Logo_White_Horizontal" class="cls-19"><g class="cls-20"><path d="M306.27 174.24v-.15l1.63-1c1.1-.64 1.65-1.26 1.4-2.48-.21-1-1.12-1.5-2.37-1.25a2.54 2.54 0 0 0-2.31 2.54l.15 2.24a3 3 0 0 0 .07.53c.21 1 1 1.53 2.47 1.23l2-.41-.07-1.32-2 .41q-.82.18-.93-.36m-.18-2.5q0-.86.94-1c.41-.08.78 0 .85.34s0 .55-.4.75l-1.33.79Zm5.63-5.78-2.41.49.07 1.34.92-.19.41 6.3-1.06.22.07 1.33 3.61-.73-.08-1.34-1.04.21zm18.38-3.93-1.49.3.1 1.68 1.5-.31zm.17 2.61-2.42.5.07 1.32.92-.18.25 3.86-1.06.22.08 1.34 3.62-.74-.07-1.34-1.07.22zm3.78-.77c-1.43.29-2.42 1.16-2.16 2.44.38 1.84 2.88 1.08 3.08 2 .11.53-.41.7-.86.79l-1.92.4.08 1.31 1.9-.39c1.67-.34 2.49-1.38 2.24-2.62-.39-1.92-2.91-1.21-3.08-2q-.1-.43.83-.63l1.7-.35-.07-1.32Zm-13.17 2.68c-1.44.3-2.46 1.17-2.2 2.45.38 1.84 2.89 1.09 3.08 2 .11.53-.41.7-.87.8l-1.91.39.07 1.31 2-.4c1.68-.34 2.5-1.38 2.25-2.63-.4-1.91-2.91-1.21-3.08-2q-.1-.43.83-.64l1.7-.34-.08-1.32Zm23.46-4.78c-1.43.29-2.43 1.16-2.16 2.44.37 1.83 2.88 1.08 3.07 2 .11.53-.41.7-.87.79l-1.91.4.07 1.31 2-.4c1.67-.34 2.49-1.38 2.23-2.63-.39-1.91-2.9-1.21-3.07-2q-.11-.43.83-.64l1.7-.34-.07-1.32Zm-3.92.8-1.09 4.4-1.61-3.85-1.59.32 2.57 5.71-.79 2.93 1.5-.31 2.6-9.53zm-23.77 4.85v.52a1.8 1.8 0 0 0-1.38-.24 2.4 2.4 0 0 0-1.94 2.55l.14 2.3q-.02.17.07.34a1.7 1.7 0 0 0 1.94 1.4l.21-.05a2 2 0 0 0 1.31-.81l.11.52 1.34-.27-.43-6.53Zm0 2.31.14 2.19a1 1 0 0 1-.9.92c-.47.1-.85-.06-.94-.47l-.05-.52-.1-2a1 1 0 0 1 .91-.91c.46-.1.84.07.93.47l.06.31m9.26.68V170l-.2-3.14 1.19-.24-.07-1.32-1.16.24-.09-1.42-1.52.31.09 1.42-1.13.23.08 1.32 1.15-.24.21 3.29.06.54c.18.91.8 1.24 2.1 1l1-.21-.09-1.31-.77.16c-.6.12-.76.05-.81-.2m-47.65 17.67c-.12-2.53-.17-11.54 5.78-12.76a8 8 0 0 1 1.09-.13 3.5 3.5 0 0 1 3.7 2.72c.46 2.59-2.06 6.8-10.57 10.17" class="cls-18"/><path d="M286.81 184.38c2.64-2.37 3.45-4.76 3.13-6.63a4.45 4.45 0 0 0-4.69-3.54 9 9 0 0 0-1.26.15c-3.19.65-4.85 3.1-5.72 5.83.9-4.52 3.05-9.14 8-10.15a10 10 0 0 1 1.62-.2c3 .06 5.15 1.66 5.59 4.13.45 2.71-1.24 6.64-6.67 10.41" class="cls-18"/><path d="M300 167.71c.72 4.12-1.89 10-10.32 15.65a20 20 0 0 0 1.55-1.49c2.5-2.71 3.64-5.59 3.19-8.13-.52-3-3.1-4.91-6.57-5a11 11 0 0 0-1.79.21c-4.61.94-7.66 4.86-8.86 11.34a30 30 0 0 1 .45-3.16c1.6-8.86 5.56-14 11.74-15.29a16 16 0 0 1 2.37-.28c4.36 0 7.59 2.44 8.24 6.1" class="cls-18"/></g></g></g></g></g></g></svg>