<svg xmlns="http://www.w3.org/2000/svg" viewBox="0 0 375.89 101.18"><defs><style>.a{fill:#fbfdfe;}</style></defs><title>safespring-suse</title><path class="a" d="M104,157.39h.33l1,3,1-3h.42L105.48,161h-.34l-1-2.88-1,2.88h-.33l-1.27-3.58H102l1,3Z" transform="translate(-87.08 -87.91)"/><path class="a" d="M108.16,160.67a1.08,1.08,0,0,0,.83-.37l.24.22a1.32,1.32,0,0,1-1.08.49,1.37,1.37,0,0,1-.05-2.74,1.25,1.25,0,0,1,1.22,1.39v.13h-2.09A.93.93,0,0,0,108.16,160.67Zm.76-1.17a.86.86,0,0,0-.83-.9.92.92,0,0,0-.86.9Z" transform="translate(-87.08 -87.91)"/><path class="a" d="M111.53,158.83l-.12-.32a2.23,2.23,0,0,1,1-.22,1,1,0,0,1,1.11,1.06V161h-.37v-.39a1.16,1.16,0,0,1-1,.45.88.88,0,0,1-1-.82c0-.56.46-.86,1.12-.86a2.71,2.71,0,0,1,.81.12v-.1c0-.47-.29-.71-.79-.71A1.84,1.84,0,0,0,111.53,158.83Zm0,1.34c0,.34.31.53.66.53a.79.79,0,0,0,.88-.71v-.25a2.53,2.53,0,0,0-.77-.12C111.85,159.62,111.57,159.84,111.57,160.17Z" transform="translate(-87.08 -87.91)"/><path class="a" d="M116.34,161v-.52a1.18,1.18,0,0,1-1,.58,1.38,1.38,0,0,1,0-2.74,1.18,1.18,0,0,1,1,.56v-1.58h.4V161Zm-.93-2.33a.93.93,0,0,0-.92,1,.94.94,0,0,0,.92,1,1,1,0,0,0,0-2Z" transform="translate(-87.08 -87.91)"/><path class="a" d="M117.68,158.83l-.11-.32a2.18,2.18,0,0,1,1-.22,1,1,0,0,1,1.12,1.06V161h-.38v-.39a1.13,1.13,0,0,1-1,.45.89.89,0,0,1-1-.82c0-.56.46-.86,1.13-.86a2.59,2.59,0,0,1,.8.12v-.1c0-.47-.29-.71-.78-.71A1.89,1.89,0,0,0,117.68,158.83Zm0,1.34c0,.34.3.53.66.53a.79.79,0,0,0,.88-.71v-.25a2.53,2.53,0,0,0-.77-.12C118,159.62,117.73,159.84,117.73,160.17Z" transform="translate(-87.08 -87.91)"/><path class="a" d="M121.79,161a1.18,1.18,0,0,1-1-.56v1.31h-.4v-3.43h.4v.53a1.16,1.16,0,0,1,1-.59,1.38,1.38,0,0,1,0,2.74Zm-.07-2.39a1,1,0,0,0,0,2,.93.93,0,0,0,.92-1A.94.94,0,0,0,121.72,158.62Z" transform="translate(-87.08 -87.91)"/><path class="a" d="M124.22,160.21c0,.32.17.43.44.43a.78.78,0,0,0,.38-.09v.34a1,1,0,0,1-.47.11.67.67,0,0,1-.74-.74v-1.59h-.37v-.34h.37v-.79h.39v.79h.83v.34h-.83Z" transform="translate(-87.08 -87.91)"/><path class="a" d="M125.62,161v-.53h.46V161Z" transform="translate(-87.08 -87.91)"/><path class="a" d="M129.23,161h-.4v-1.4l-1.48-2.15h.49l1.19,1.78,1.21-1.78h.47l-1.48,2.14Z" transform="translate(-87.08 -87.91)"/><path class="a" d="M131.85,161a1.37,1.37,0,1,1,1.37-1.37A1.36,1.36,0,0,1,131.85,161Zm0-2.39a1,1,0,0,0-1,1,1,1,0,0,0,1,1,1,1,0,0,0,1-1A1,1,0,0,0,131.85,158.62Z" transform="translate(-87.08 -87.91)"/><path class="a" d="M135.71,158.33h.39V161h-.39v-.45a1,1,0,0,1-.9.51,1,1,0,0,1-1-1v-1.63h.39v1.53a.7.7,0,0,0,.73.79.77.77,0,0,0,.78-.82Z" transform="translate(-87.08 -87.91)"/><path class="a" d="M139.21,161a1.77,1.77,0,0,1-1.08-.38l.2-.28a1.54,1.54,0,0,0,.91.33c.31,0,.54-.16.54-.41h0c0-.27-.31-.37-.66-.46s-.86-.26-.86-.75h0a.79.79,0,0,1,.89-.76,1.85,1.85,0,0,1,.94.29l-.17.3a1.51,1.51,0,0,0-.78-.26c-.31,0-.51.17-.51.38h0c0,.25.33.35.68.46s.84.28.84.75h0C140.15,160.71,139.74,161,139.21,161Z" transform="translate(-87.08 -87.91)"/><path class="a" d="M142.66,158.33h.39V161h-.39v-.45a1,1,0,0,1-.9.51,1,1,0,0,1-1-1v-1.63h.39v1.53a.69.69,0,0,0,.72.79.78.78,0,0,0,.79-.82Z" transform="translate(-87.08 -87.91)"/><path class="a" d="M145,161a1.37,1.37,0,1,1,1.05-2.27l-.26.27a1.08,1.08,0,0,0-.79-.39,1,1,0,0,0,0,2,1,1,0,0,0,.8-.39l.25.24A1.36,1.36,0,0,1,145,161Z" transform="translate(-87.08 -87.91)"/><path class="a" d="M147.78,161a1.37,1.37,0,0,1,0-2.74,1.37,1.37,0,0,1,1.05.47l-.26.27a1.08,1.08,0,0,0-.8-.39,1,1,0,0,0-.94,1,1,1,0,0,0,1,1,1.07,1.07,0,0,0,.8-.39l.25.24A1.37,1.37,0,0,1,147.78,161Z" transform="translate(-87.08 -87.91)"/><path class="a" d="M150.5,160.67a1.08,1.08,0,0,0,.83-.37l.24.22a1.34,1.34,0,0,1-1.08.49,1.37,1.37,0,0,1-.05-2.74,1.25,1.25,0,0,1,1.22,1.39v.13h-2.09A.93.93,0,0,0,150.5,160.67Zm.76-1.17a.86.86,0,0,0-.83-.9.92.92,0,0,0-.86.9Z" transform="translate(-87.08 -87.91)"/><path class="a" d="M153.43,160.67a1,1,0,0,0,.82-.37l.25.22a1.35,1.35,0,0,1-1.08.49,1.37,1.37,0,0,1,0-2.74,1.25,1.25,0,0,1,1.22,1.39.62.62,0,0,1,0,.13H152.5A.92.92,0,0,0,153.43,160.67Zm.76-1.17a.86.86,0,0,0-.83-.9.91.91,0,0,0-.86.9Z" transform="translate(-87.08 -87.91)"/><path class="a" d="M157.3,161v-.52a1.18,1.18,0,0,1-1,.58,1.38,1.38,0,0,1,0-2.74,1.18,1.18,0,0,1,1,.56v-1.58h.39V161Zm-.93-2.33a.93.93,0,0,0-.92,1,.94.94,0,0,0,.92,1,1,1,0,0,0,0-2Z" transform="translate(-87.08 -87.91)"/><path class="a" d="M158.45,161v-.53h.46V161Z" transform="translate(-87.08 -87.91)"/><path class="a" d="M148.43,149.23a4.88,4.88,0,0,1-5,4.79H134V150.5h9.4a1.28,1.28,0,0,0,1.28-1.27c0-.81-.51-1.3-1.51-1.46l-5.8-.84a4.89,4.89,0,0,1,.68-9.75h9.38v3.51H138a1.29,1.29,0,0,0-1.28,1.28c0,.81.51,1.3,1.51,1.46l5.8.84A4.87,4.87,0,0,1,148.43,149.23Zm-20.12-12.06v10a3.79,3.79,0,1,1-7.57,0v-10h-3.65V147A7.44,7.44,0,0,0,132,147v-9.81Zm39.44,15.7a1.16,1.16,0,1,0-1.16,1.15A1.15,1.15,0,0,0,167.75,152.87Zm-.24,0a.92.92,0,0,1-.92.92.92.92,0,1,1,.92-.92Zm-.42-.22c0-.22-.17-.36-.44-.36h-.49v1.1h.24V153h.2l.23.36h.29l-.27-.39A.36.36,0,0,0,167.09,152.65Zm-.25,0c0,.09-.07.16-.19.16h-.25v-.32h.24C166.77,152.51,166.84,152.56,166.84,152.67Zm-5.1-12a3,3,0,0,0,2.86-3.2v-.31H154.42a4.87,4.87,0,0,0-5,4.79h0v7.26a4.87,4.87,0,0,0,5,4.79H164.6v-.31a3,3,0,0,0-2.86-3.2H154.4a1.28,1.28,0,0,1-1.28-1.27,1.4,1.4,0,0,1,1.51-1.46h3.18a4.84,4.84,0,0,0,4.92-3.69h-7.65a2.26,2.26,0,0,0-2,1.09V142a1.29,1.29,0,0,1,1.28-1.28Zm-49.92,3.58-5.81-.84c-1-.16-1.5-.65-1.5-1.46a1.29,1.29,0,0,1,1.28-1.28h9.4v-3.51h-9.38a4.89,4.89,0,0,0-.68,9.75l5.8.84c1,.16,1.51.65,1.51,1.46a1.28,1.28,0,0,1-1.28,1.27h-6.88a3,3,0,0,0-2.85,3.2V154h9.71a4.89,4.89,0,0,0,.68-9.75Z" transform="translate(-87.08 -87.91)"/><path class="a" d="M121.27,117.36s0,1.33,0,1.48a40.19,40.19,0,0,0-9.92-1.92A25.87,25.87,0,0,0,95,121.12l-.22.13a17,17,0,0,0-7.08,7.89,9.23,9.23,0,0,0-.39,5.22A8,8,0,0,0,88.5,137a7.87,7.87,0,0,0,5.72,3.25c3.25.29,5.71-1.17,6.59-3.9a5.39,5.39,0,0,0-2.31-6.07,4.79,4.79,0,0,0-5.07-.11A3.39,3.39,0,0,0,91.85,133a3.15,3.15,0,0,0,3,3.12,3.58,3.58,0,0,0,1.16-.2,2,2,0,0,0,.44-.19l0,0,0,0h0a1,1,0,0,0,.47-.85,1.55,1.55,0,0,0,0-.29,1,1,0,0,0-1.19-.73l-.07,0-.1,0-.14.05a3.88,3.88,0,0,1-.55.08,1,1,0,0,1-.88-1h0a1.26,1.26,0,0,1,.18-.61,1.84,1.84,0,0,1,1.68-.63,2.85,2.85,0,0,1,2.42,1.72,3,3,0,0,1-.33,3.09c-.68.89-1.9,1.26-3.52,1.09a4.92,4.92,0,0,1-3.88-7c1.65-3.12,4.76-3.09,6.47-2.79,2.43.42,6.11,2.6,7.49,7.64h3.37c-.42-1.29-.66-5,3.12-5,4.15,0,4.67,2.92,5.85,5h3.56a6,6,0,0,1-1.39-4.09c.31-1.85,1.78-1.68,3.82-1.45.67.07,1.43.16,2.21.18a14.19,14.19,0,0,0,5.63-1,7.62,7.62,0,0,0,1.92-1,1.07,1.07,0,0,0,.28-.49l0-.13c.06-.16.14-.5.19-.68.09-.37-.24-.17-.24-.17a8.55,8.55,0,0,1-3.72,1.14c-1.86,0-5.59-1.86-6-2.06l0-.05c-.1-.22-.66-1.54-.77-1.82,2.68,1.77,4.91,2.74,6.61,2.89a6.14,6.14,0,0,0,4-1.3c.06-.05.31-.22.25-.42-.24-.86-1.1-3.75-1.8-4.49a3.13,3.13,0,0,0-.71-.61c-2.72-1.58-9.16-2.54-9.46-2.58C121.34,117.3,121.27,117.28,121.27,117.36Zm4.42,5.32a2.76,2.76,0,1,1,4.64,2.12,2.73,2.73,0,0,1-2,.73A2.76,2.76,0,0,1,125.69,122.68Z" transform="translate(-87.08 -87.91)"/><path class="a" d="M128.52,120.84a1.9,1.9,0,0,0-1.38.51,1.92,1.92,0,1,0,2.63,2.81,1.88,1.88,0,0,0,.6-1.33A1.91,1.91,0,0,0,128.52,120.84Zm.31,2.1c-.47,0-.85-.26-.85-.57s.38-.57.85-.57.86.26.86.57S129.3,122.94,128.83,122.94Z" transform="translate(-87.08 -87.91)"/><path class="a" d="M283.54,127.23a13.67,13.67,0,0,0-27.18,0,13.68,13.68,0,0,0,1.5,27.27H270a7.63,7.63,0,0,0,0-15.26,4.46,4.46,0,1,1,3.16-7.6,1.59,1.59,0,1,0,2.25-2.24,7.63,7.63,0,1,0-5.41,13,4.45,4.45,0,0,1,0,8.9H257.86a10.5,10.5,0,0,1,0-21,1.59,1.59,0,0,0,1.59-1.59,10.5,10.5,0,0,1,21,0,1.59,1.59,0,0,0,1.59,1.59,10.5,10.5,0,0,1,0,21,1.59,1.59,0,0,0,0,3.18,13.68,13.68,0,0,0,1.5-27.27Z" transform="translate(-87.08 -87.91)"/><path class="a" d="M314.35,144.32c-.78-.31-1.48-.55-2.5-.9-1.83-.58-3.63-1.25-3.63-2.77s1.17-2.3,3-2.3a6.8,6.8,0,0,1,4.68,2l1.56-2.3a8.1,8.1,0,0,0-6.32-2.42c-3.28,0-6.24,1.87-6.24,5.3a4.76,4.76,0,0,0,2.92,4.45,13.81,13.81,0,0,0,2.54,1c1.25.43,4.18,1.05,4.18,3.08s-1.84,2.65-3.56,2.65a7.61,7.61,0,0,1-5.46-2.65l-1.79,2.18a8.87,8.87,0,0,0,7.22,3.32,7.88,7.88,0,0,0,5.15-1.64,5.26,5.26,0,0,0,1.91-4.21,4.61,4.61,0,0,0-1.48-3.44A7.24,7.24,0,0,0,314.35,144.32Z" transform="translate(-87.08 -87.91)"/><path class="a" d="M327.92,135.62a14.32,14.32,0,0,0-6.95,1.87l1.14,2.5a11.34,11.34,0,0,1,5.58-1.6c2.69,0,4.6,1.4,4.6,4.21v.74l-5,.2c-4.29.19-7.25,2-7.25,5.66s3,5.73,6.4,5.73a7.65,7.65,0,0,0,5.89-2.77l0,2.34H336V143.73c0-3.16-.75-4.72-2-6S331,135.62,327.92,135.62Zm4.41,14a5.82,5.82,0,0,1-4.72,2.69c-2.46,0-3.83-1.45-3.83-3.2s1.21-3,4.22-3.2l4.33-.27Z" transform="translate(-87.08 -87.91)"/><path class="a" d="M357.77,135.62a9.19,9.19,0,0,0-9.4,9.6c0,5.89,3.78,9.71,9.28,9.71s7.93-2.73,8.16-2.92l-1.56-2.15a10.26,10.26,0,0,1-6.13,2.15c-3.43,0-5.77-2.23-6-5.9h14.28a15.59,15.59,0,0,0,.12-1.64A8.46,8.46,0,0,0,357.77,135.62Zm-5.58,8a5.46,5.46,0,0,1,5.46-5.31,5.36,5.36,0,0,1,5.35,5.31Z" transform="translate(-87.08 -87.91)"/><path class="a" d="M378.54,144.32c-.78-.31-1.48-.55-2.49-.9-1.84-.58-3.63-1.25-3.63-2.77s1.17-2.3,3-2.3a6.83,6.83,0,0,1,4.69,2l1.56-2.3a8.11,8.11,0,0,0-6.32-2.42c-3.28,0-6.25,1.87-6.25,5.3a4.77,4.77,0,0,0,2.93,4.45,13.81,13.81,0,0,0,2.54,1c1.24.43,4.17,1.05,4.17,3.08s-1.83,2.65-3.55,2.65a7.57,7.57,0,0,1-5.46-2.65l-1.8,2.18a8.88,8.88,0,0,0,7.22,3.32,7.87,7.87,0,0,0,5.15-1.64,5.26,5.26,0,0,0,1.91-4.21,4.61,4.61,0,0,0-1.48-3.44A7.11,7.11,0,0,0,378.54,144.32Z" transform="translate(-87.08 -87.91)"/><path class="a" d="M394.53,135.62a7.86,7.86,0,0,0-6.59,3.27h-.08V136h-3.59v25.58H388v-10l0,0a7.19,7.19,0,0,0,6.4,3.32c5.5,0,9-4.21,9-9.71S400,135.62,394.53,135.62Zm-.78,16.11c-3.7,0-5.89-2.85-5.89-6.55s2.19-6.52,5.89-6.52,5.9,2.81,5.9,6.52S397.46,151.73,393.75,151.73Z" transform="translate(-87.08 -87.91)"/><rect class="a" x="331.59" y="48.06" width="3.75" height="18.53"/><path class="a" d="M435,135.62a6.27,6.27,0,0,0-5.66,3.27h-.11l0-2.92h-3.75V154.5h3.75v-9.32c0-3.55,1.28-6.48,4.76-6.48,3.31,0,3.86,2.34,3.86,5.46V154.5h3.75v-11C441.68,139.09,440.31,135.62,435,135.62Z" transform="translate(-87.08 -87.91)"/><path class="a" d="M459.27,136l0,2.92h-.11a7.43,7.43,0,0,0-6.48-3.27c-4.76,0-8.94,3.43-8.94,9.32s4.18,9.33,8.94,9.33a7.45,7.45,0,0,0,6.48-3.32h.08v.73a8.34,8.34,0,0,1-1.41,5.19c-.74.94-2.3,2-5.07,2a11.76,11.76,0,0,1-6.64-2.34l-1.75,2.61a14.26,14.26,0,0,0,8.27,2.77c4.61,0,6.91-1.87,8.27-3.55s2-3.9,2-8V136Zm-5.78,15.25c-3.78,0-5.89-2.77-5.89-6.28s2.11-6.32,5.89-6.32,5.89,2.81,5.89,6.32S457.31,151.22,453.49,151.22Z" transform="translate(-87.08 -87.91)"/><path class="a" d="M340.43,129.18c-.78,1-1.25,2.54-1.25,4.95V154.5h3.71V139h4.41v-3h-4.41v-2.07c0-2.11.39-3.94,2.85-3.94a6.74,6.74,0,0,1,1.56.2v-2.83a12,12,0,0,0-2.42-.22A5.6,5.6,0,0,0,340.43,129.18Z" transform="translate(-87.08 -87.91)"/><path class="a" d="M409.39,138.82h-.11l0-2.85h-3.74V154.5h3.74v-9.25a8.12,8.12,0,0,1,1.14-4.68,3.89,3.89,0,0,1,3-1.56,5,5,0,0,1,2,.39v-3.6a6.57,6.57,0,0,0-1.56-.18A4.84,4.84,0,0,0,409.39,138.82Z" transform="translate(-87.08 -87.91)"/><circle class="a" cx="333.44" cy="41.68" r="2.44"/><line class="a" x1="101.42" y1="100.59" x2="138.27" y2="0.59"/><path class="a" d="M189.11,188.67l32.21-87.41L226,88.67c.28-.76-.93-1.08-1.2-.33l-32.21,87.41-4.64,12.59c-.28.75.93,1.08,1.21.33Z" transform="translate(-87.08 -87.91)"/></svg>