<svg id="Lager_1" data-name="Lager 1" xmlns="http://www.w3.org/2000/svg" viewBox="0 0 684.11 574.48"><title>Safespring_Tjänster_symbol</title><g id="BACKUP"><path d="M426,712.29c-40.22,0-80.44-.2-120.65.14-10.41.09-19.43-2.52-27-9.43-5.74-5.28-9.52-12.33-9.69-20q-.78-35.08-.05-70.19c.18-8.32,3.77-16.25,6.28-24.22,2.34-7.44,4.91-14.8,7.36-22.2q3.78-11.44,7.52-22.9c2.27-7,4.51-13.94,6.79-20.91,2.52-7.71,5.08-15.42,7.61-23.13,2.21-6.74,4.54-13.45,6.58-20.24,3.45-11.48,9.38-20.61,20.83-25.9,5.66-2.61,11.45-3.27,17.22-3.3,51.4-.21,102.8-.15,154.21-.1,8.83,0,17.35,1.65,24.47,7.24a40.17,40.17,0,0,1,13.37,19.56c3.49,10.64,7,21.27,10.51,31.92,2.39,7.35,4.61,14.75,7,22.09,3.37,10.26,6.88,20.47,10.26,30.72q3.48,10.56,6.76,21.19c2.37,7.68,4.46,15.45,7,23.06a31.51,31.51,0,0,1,1.57,10q.13,31.41,0,62.82c-.1,19.16-14.7,33.72-33.83,33.74Q488.1,712.36,426,712.29ZM546.8,579.81c-2.53-3.56-2.48-7-3.75-9.83-1.56-3.45-2.06-7.09-3.28-10.56q-3.82-10.94-7.41-22c-1.45-4.48-2.57-9.08-4-13.55-2.38-7.24-5-14.41-7.38-21.64-2.22-6.65-4.05-13.44-6.59-20a8,8,0,0,0-8-5.48q-80.2.13-160.4,0c-4.42,0-7.16,2.63-8.65,6.29-2.1,5.16-3.79,10.5-5.39,15.85-3.61,12-7.52,24-11.47,35.88-1.2,3.61-2.56,7.23-3.52,11-1.13,4.39-2.44,8.73-3.86,13-2.23,6.8-4.61,13.55-7.14,20.93Zm11.05,102.3c.18-2.18.51-4.38.51-6.59q.06-29.75,0-59.5c0-6.26-3.65-9.91-9.86-9.92q-23.8,0-47.6,0H304.1c-6.49,0-10.29,3.7-10.29,10,0,20.07.18,40.14-.11,60.21-.1,6.84,3.27,10.65,10.72,10.64q121.85-.19,243.7-.1c2,0,4.08-.29,5.95-.43Z" transform="translate(-83.14 -137.96)" style="fill:#407da5"/><path d="M448.92,653.79c-.2-6.21-2.41-13,2.58-17.49,5.24-5.34,10.34-8.63,16.91-7.07a17.17,17.17,0,0,1,9.67,5.73c7.48,9.61,5.67,17.87-1.32,25-2.13,2.18-5.69,4.37-9.66,4-3.53-.31-6.87,0-10.3-2.25C453.62,659.69,452,656.58,448.92,653.79Z" transform="translate(-83.14 -137.96)" style="fill:#407da5"/><path d="M518.18,662.54a15.56,15.56,0,0,1-15.76-15.47c-.12-9.06,6.78-16.22,15.6-16,10,.2,15.45,6.89,15.9,15.8C534.34,655.07,526.57,662.52,518.18,662.54Z" transform="translate(-83.14 -137.96)" style="fill:#407da5"/></g><path id="MOLN" d="M615.89,658.32a3.61,3.61,0,0,1-1.54-3.38c0-12.22,0-24.43,0-36.65,0-2.5,1-3.43,3.45-4.11,12-3.29,23.7-7.39,34.66-13.59a141.25,141.25,0,0,0,30.78-22.87,134.66,134.66,0,0,0,23.92-31.84,151.75,151.75,0,0,0,13.56-35.5c4.16-17,4.22-34.23,2-51.38a113.57,113.57,0,0,0-6.62-26A183.81,183.81,0,0,0,707,412.9c-4.47-8.48-10.15-16.09-16.19-23.48C683.4,380.32,674.52,372.76,665,366A135.84,135.84,0,0,0,641.69,353a142.2,142.2,0,0,0-36.06-10.53,93.62,93.62,0,0,0-14.68-.83c-8.17,0-15.61-1.65-21.44-7.86-4.15-4.42-5.54-10-6.07-15.76-.66-7.17.07-14.46-1.44-21.55-2.34-11-5.24-21.76-9.75-32.17a141.51,141.51,0,0,0-24.6-38.11,139.69,139.69,0,0,0-24.55-21.25A134.85,134.85,0,0,0,478,191.08a141.56,141.56,0,0,0-22.87-7.15c-10.95-2.54-22-3-33.17-3.06a122.69,122.69,0,0,0-32.16,4.36,135.27,135.27,0,0,0-49,24.06c-10.08,7.88-19.29,16.55-26.8,26.81a142.1,142.1,0,0,0-18.69,34.21c-5.75,15.34-8.29,31-8.79,47.36-.47,15.35-9.72,23.53-25,23.74-11.33.15-22.49,1.22-33.29,4.29a140.54,140.54,0,0,0-36.48,16,149.53,149.53,0,0,0-39.11,35c-6.38,8.21-11.24,17.44-15.7,26.92-5.54,11.77-8.49,24.24-10.46,36.83-1.63,10.41-1,21.12-.55,31.74S129.45,513,132.59,523a125.58,125.58,0,0,0,13.07,28.16,131.76,131.76,0,0,0,21.6,27.06c9.18,8.67,19,16.46,30.36,22.38,10.94,5.68,22.13,10.6,34,13.13,6.18,1.31,7.26,3.79,7.12,9.14-.28,10.54-.09,21.1-.08,31.65,0,1.46,0,2.88-1.74,4.06-4.19-.58-8.71-.59-13.16-2.1-5.34-1.82-11-2.76-16.34-4.56a179,179,0,0,1-24.09-10.09,192.07,192.07,0,0,1-21.09-12.39,176.13,176.13,0,0,1-33.92-29.69,186.31,186.31,0,0,1-18.65-24.94,199.09,199.09,0,0,1-10-18.59c-2.95-6.18-5.89-12.47-7.49-19-2.25-9.14-5.1-18.16-6.55-27.53a196.77,196.77,0,0,1-2.45-35.45,182.17,182.17,0,0,1,7.75-47,171.18,171.18,0,0,1,15.81-37.08A182.75,182.75,0,0,1,147,341.5,186.8,186.8,0,0,1,184.15,317a182,182,0,0,1,24.92-10c10.71-3.52,21.72-5.37,32.7-7.52a3.42,3.42,0,0,0,2.91-3c2.2-11.8,4.13-23.69,8.25-35A198.43,198.43,0,0,1,269,227a184.57,184.57,0,0,1,63.58-63.62,188.77,188.77,0,0,1,43.39-18.69c8.54-2.54,17.39-3.91,26.23-5.21a161.68,161.68,0,0,1,37.64-.87,181.45,181.45,0,0,1,36.64,6.9,194.8,194.8,0,0,1,26.31,9.93,176.14,176.14,0,0,1,27.11,16,180,180,0,0,1,26.79,22.91,194.16,194.16,0,0,1,24.17,31.75A177.11,177.11,0,0,1,599.47,268c2.74,8.95,4.1,18.33,5.94,27.54.45,2.25,1.36,3.49,3.72,3.86,12.1,1.91,24.12,4.32,35.66,8.46a206.66,206.66,0,0,1,34,16c11.85,6.89,22.41,15.38,32.42,24.53,9.45,8.64,17.26,18.8,24.57,29.35a168.43,168.43,0,0,1,15.77,28.12A179.25,179.25,0,0,1,759.34,532,168,168,0,0,1,752,552.9a180,180,0,0,1-15.87,28.22,182.6,182.6,0,0,1-25,29.53A174.56,174.56,0,0,1,678,635.72c-12.56,7.2-25.46,13.37-39.46,17.31C631,655.17,623.58,657.8,615.89,658.32Z" transform="translate(-83.14 -137.96)" style="fill:#407da5"/></svg>