<svg xmlns="http://www.w3.org/2000/svg" width="450" height="280" viewBox="0 0 450 280"><g transform="translate(-623 -179)"><rect width="450" height="280" transform="translate(623 179)" fill="none"/><path d="M1,72H-1V0H1Z" transform="translate(904.5 282.5)" fill="#fa690f"/><rect width="108" height="73" rx="6" transform="translate(749 256)" fill="#e7eff3"/><rect width="85" height="73" rx="6" transform="translate(862 256)" fill="#e7eff3"/><rect width="198" height="53" rx="6" transform="translate(749 349)" fill="#fff0e6"/><path d="M16.875,9.225h5.04v1.95h-5.04ZM17.055,15h-2.43V4.5H22.56V6.45h-5.5Zm6.99,0V3.87h2.34V15Zm9.465,0V13.425l-.15-.345V10.26A1.509,1.509,0,0,0,32.9,9.09a2.019,2.019,0,0,0-1.4-.42,4.073,4.073,0,0,0-1.267.2,3.353,3.353,0,0,0-1.058.547l-.84-1.635a5.06,5.06,0,0,1,1.59-.72,7.116,7.116,0,0,1,1.89-.255,4.283,4.283,0,0,1,2.865.87A3.376,3.376,0,0,1,35.7,10.4V15Zm-2.46.12a3.73,3.73,0,0,1-1.62-.323A2.461,2.461,0,0,1,28.4,13.92a2.38,2.38,0,0,1-.008-2.505,2.308,2.308,0,0,1,1.118-.848,5.427,5.427,0,0,1,2-.307h2.145v1.365h-1.89a1.759,1.759,0,0,0-1.132.27.861.861,0,0,0-.308.675.842.842,0,0,0,.353.713,1.588,1.588,0,0,0,.968.262,2.009,2.009,0,0,0,1.05-.278,1.59,1.59,0,0,0,.675-.818l.36,1.08a2.089,2.089,0,0,1-.93,1.185A3.345,3.345,0,0,1,31.05,15.12ZM39.855,15l-3.39-8.07H38.88l2.82,6.945H40.5L43.425,6.93h2.25L42.27,15Zm10.4.12a4.729,4.729,0,0,1-2.287-.54A4.111,4.111,0,0,1,46.388,13.1a3.992,3.992,0,0,1-.577-2.137,3.981,3.981,0,0,1,2.153-3.623,5.163,5.163,0,0,1,4.568,0,4.006,4.006,0,0,1,1.575,1.463,4.05,4.05,0,0,1,.57,2.16A3.977,3.977,0,0,1,52.53,14.58,4.74,4.74,0,0,1,50.25,15.12Zm0-1.92a2.052,2.052,0,0,0,1.05-.27,1.923,1.923,0,0,0,.735-.773,2.485,2.485,0,0,0,.27-1.193,2.474,2.474,0,0,0-.27-1.2A1.935,1.935,0,0,0,51.3,9a2.177,2.177,0,0,0-2.1,0,1.987,1.987,0,0,0-.743.765,2.42,2.42,0,0,0-.278,1.2,2.43,2.43,0,0,0,.278,1.193,1.974,1.974,0,0,0,.743.773A2.052,2.052,0,0,0,50.25,13.2ZM56.235,15V6.93H58.47V9.21l-.315-.66a2.593,2.593,0,0,1,1.155-1.3,3.926,3.926,0,0,1,1.935-.443V8.97q-.15-.015-.27-.022T60.72,8.94a2.2,2.2,0,0,0-1.552.547,2.213,2.213,0,0,0-.593,1.7V15Z" transform="translate(766 267)" fill="#195f8c"/><path d="M16.875,9.225h5.04v1.95h-5.04ZM17.055,15h-2.43V4.5H22.56V6.45h-5.5Zm6.99,0V3.87h2.34V15Zm9.465,0V13.425l-.15-.345V10.26A1.509,1.509,0,0,0,32.9,9.09a2.019,2.019,0,0,0-1.4-.42,4.073,4.073,0,0,0-1.267.2,3.353,3.353,0,0,0-1.058.547l-.84-1.635a5.06,5.06,0,0,1,1.59-.72,7.116,7.116,0,0,1,1.89-.255,4.283,4.283,0,0,1,2.865.87A3.376,3.376,0,0,1,35.7,10.4V15Zm-2.46.12a3.73,3.73,0,0,1-1.62-.323A2.461,2.461,0,0,1,28.4,13.92a2.38,2.38,0,0,1-.008-2.505,2.308,2.308,0,0,1,1.118-.848,5.427,5.427,0,0,1,2-.307h2.145v1.365h-1.89a1.759,1.759,0,0,0-1.132.27.861.861,0,0,0-.308.675.842.842,0,0,0,.353.713,1.588,1.588,0,0,0,.968.262,2.009,2.009,0,0,0,1.05-.278,1.59,1.59,0,0,0,.675-.818l.36,1.08a2.089,2.089,0,0,1-.93,1.185A3.345,3.345,0,0,1,31.05,15.12ZM39.855,15l-3.39-8.07H38.88l2.82,6.945H40.5L43.425,6.93h2.25L42.27,15Zm10.4.12a4.729,4.729,0,0,1-2.287-.54A4.111,4.111,0,0,1,46.388,13.1a3.992,3.992,0,0,1-.577-2.137,3.981,3.981,0,0,1,2.153-3.623,5.163,5.163,0,0,1,4.568,0,4.006,4.006,0,0,1,1.575,1.463,4.05,4.05,0,0,1,.57,2.16A3.977,3.977,0,0,1,52.53,14.58,4.74,4.74,0,0,1,50.25,15.12Zm0-1.92a2.052,2.052,0,0,0,1.05-.27,1.923,1.923,0,0,0,.735-.773,2.485,2.485,0,0,0,.27-1.193,2.474,2.474,0,0,0-.27-1.2A1.935,1.935,0,0,0,51.3,9a2.177,2.177,0,0,0-2.1,0,1.987,1.987,0,0,0-.743.765,2.42,2.42,0,0,0-.278,1.2,2.43,2.43,0,0,0,.278,1.193,1.974,1.974,0,0,0,.743.773A2.052,2.052,0,0,0,50.25,13.2ZM56.235,15V6.93H58.47V9.21l-.315-.66a2.593,2.593,0,0,1,1.155-1.3,3.926,3.926,0,0,1,1.935-.443V8.97q-.15-.015-.27-.022T60.72,8.94a2.2,2.2,0,0,0-1.552.547,2.213,2.213,0,0,0-.593,1.7V15Z" transform="translate(867 267)" fill="#195f8c"/><path d="M25.952,5.448a2.932,2.932,0,0,1,1.362.306,2.2,2.2,0,0,1,.936.936A3.365,3.365,0,0,1,28.592,8.3V12H26.72V8.592A1.722,1.722,0,0,0,26.4,7.44a1.145,1.145,0,0,0-.912-.372,1.444,1.444,0,0,0-.732.186,1.249,1.249,0,0,0-.5.558,2.177,2.177,0,0,0-.18.948V12H22.2V8.592a1.745,1.745,0,0,0-.318-1.152,1.127,1.127,0,0,0-.906-.372,1.444,1.444,0,0,0-.732.186,1.249,1.249,0,0,0-.5.558,2.177,2.177,0,0,0-.18.948V12H17.684V5.544h1.788V7.308l-.336-.516a2.312,2.312,0,0,1,.954-1,2.863,2.863,0,0,1,1.41-.342,2.709,2.709,0,0,1,1.554.45,2.175,2.175,0,0,1,.882,1.374l-.66-.18a2.584,2.584,0,0,1,1.038-1.2A3.037,3.037,0,0,1,25.952,5.448ZM33.524,12.1a4.156,4.156,0,0,1-1.938-.432,3.185,3.185,0,0,1-1.29-1.182,3.226,3.226,0,0,1-.456-1.71,3.281,3.281,0,0,1,.45-1.722,3.19,3.19,0,0,1,1.23-1.176,3.852,3.852,0,0,1,3.474-.024A3.01,3.01,0,0,1,36.2,7,3.46,3.46,0,0,1,36.644,8.8q0,.108-.012.246t-.024.258H31.364V8.208h4.26l-.72.324a1.794,1.794,0,0,0-.2-.876,1.489,1.489,0,0,0-.564-.582,1.637,1.637,0,0,0-.84-.21,1.67,1.67,0,0,0-.846.21,1.467,1.467,0,0,0-.57.588,1.856,1.856,0,0,0-.2.894v.288a1.815,1.815,0,0,0,.234.93,1.527,1.527,0,0,0,.66.612,2.242,2.242,0,0,0,1,.21,2.428,2.428,0,0,0,.906-.156,2.207,2.207,0,0,0,.714-.468l1,1.08a2.9,2.9,0,0,1-1.116.774A4.129,4.129,0,0,1,33.524,12.1Zm7.14,0a3.281,3.281,0,0,1-1.644-.414,3.038,3.038,0,0,1-1.158-1.158,3.466,3.466,0,0,1-.426-1.752,3.491,3.491,0,0,1,.426-1.764A3,3,0,0,1,39.02,5.856a3.319,3.319,0,0,1,1.644-.408,2.764,2.764,0,0,1,1.428.36A2.366,2.366,0,0,1,43.04,6.9a4.505,4.505,0,0,1,.336,1.872,4.661,4.661,0,0,1-.324,1.866,2.308,2.308,0,0,1-.93,1.1A2.8,2.8,0,0,1,40.664,12.1Zm.324-1.536a1.619,1.619,0,0,0,.828-.216,1.579,1.579,0,0,0,.594-.618,1.944,1.944,0,0,0,.222-.954,1.936,1.936,0,0,0-.222-.96,1.59,1.59,0,0,0-.594-.612,1.619,1.619,0,0,0-.828-.216,1.642,1.642,0,0,0-.84.216,1.59,1.59,0,0,0-.594.612,1.936,1.936,0,0,0-.222.96,1.944,1.944,0,0,0,.222.954,1.579,1.579,0,0,0,.594.618A1.642,1.642,0,0,0,40.988,10.56ZM42.68,12V10.68l.036-1.92L42.6,6.852V3.1h1.872V12Zm7.044,0V3.6h1.608l4.956,6.048h-.78V3.6h1.92V12h-1.6L50.864,5.952h.78V12Zm12.168,0L58.268,3.6h2.1l3.168,7.44H62.3L65.516,3.6h1.932L63.812,12Zm6.252,0V3.6h1.608l3.576,5.928h-.852L75.992,3.6h1.6l.024,8.4H75.788l-.012-5.6h.336L73.3,11.112h-.876L69.56,6.4h.408V12Zm14.532.1a4.156,4.156,0,0,1-1.938-.432,3.185,3.185,0,0,1-1.29-1.182,3.226,3.226,0,0,1-.456-1.71,3.281,3.281,0,0,1,.45-1.722,3.19,3.19,0,0,1,1.23-1.176,3.852,3.852,0,0,1,3.474-.024A3.01,3.01,0,0,1,85.352,7,3.46,3.46,0,0,1,85.8,8.8q0,.108-.012.246T85.76,9.3H80.516V8.208h4.26l-.72.324a1.794,1.794,0,0,0-.2-.876,1.489,1.489,0,0,0-.564-.582,1.637,1.637,0,0,0-.84-.21,1.67,1.67,0,0,0-.846.21,1.467,1.467,0,0,0-.57.588,1.856,1.856,0,0,0-.2.894v.288a1.815,1.815,0,0,0,.234.93,1.527,1.527,0,0,0,.66.612,2.242,2.242,0,0,0,1,.21,2.428,2.428,0,0,0,.906-.156,2.207,2.207,0,0,0,.714-.468l1,1.08a2.9,2.9,0,0,1-1.116.774A4.129,4.129,0,0,1,82.676,12.1ZM13.021,25.064a4.378,4.378,0,0,1-1.5-.257,2.922,2.922,0,0,1-1.107-.659l.293-.566a3,3,0,0,0,1,.606,3.556,3.556,0,0,0,1.312.245,2.941,2.941,0,0,0,1.072-.165,1.318,1.318,0,0,0,.612-.446,1.063,1.063,0,0,0,.2-.626.919.919,0,0,0-.234-.658,1.638,1.638,0,0,0-.617-.4,6.4,6.4,0,0,0-.842-.253q-.459-.106-.919-.235a4.09,4.09,0,0,1-.844-.335,1.7,1.7,0,0,1-.617-.555,1.591,1.591,0,0,1-.234-.9,1.763,1.763,0,0,1,.273-.954,1.918,1.918,0,0,1,.842-.7,3.439,3.439,0,0,1,1.457-.267,4.253,4.253,0,0,1,1.176.167,3.3,3.3,0,0,1,1,.462l-.257.585a3.257,3.257,0,0,0-.947-.44,3.6,3.6,0,0,0-.974-.141,2.727,2.727,0,0,0-1.046.173,1.322,1.322,0,0,0-.605.457,1.111,1.111,0,0,0-.193.639.925.925,0,0,0,.234.662,1.61,1.61,0,0,0,.617.392,7,7,0,0,0,.844.253q.461.109.92.237a4.183,4.183,0,0,1,.842.331,1.7,1.7,0,0,1,.617.548,1.55,1.55,0,0,1,.234.89,1.73,1.73,0,0,1-.278.948,1.932,1.932,0,0,1-.856.7A3.541,3.541,0,0,1,13.021,25.064Zm6.772-.017a2.447,2.447,0,0,1-1.228-.312,2.254,2.254,0,0,1-.876-.911,3,3,0,0,1-.325-1.449,3.049,3.049,0,0,1,.319-1.456,2.221,2.221,0,0,1,.871-.908,2.469,2.469,0,0,1,1.239-.312,2.673,2.673,0,0,1,1.348.338,2.455,2.455,0,0,1,.934.939,3.032,3.032,0,0,1,0,2.8,2.455,2.455,0,0,1-.934.939A2.673,2.673,0,0,1,19.793,25.047ZM17.085,26.94v-7.2h.682v1.583l-.072,1.057.1,1.057v3.5Zm2.657-2.519a1.975,1.975,0,0,0,1-.254,1.834,1.834,0,0,0,.7-.719,2.375,2.375,0,0,0,0-2.151,1.859,1.859,0,0,0-.7-.716,2.083,2.083,0,0,0-2,0,1.859,1.859,0,0,0-.7.716,2.375,2.375,0,0,0,0,2.151,1.834,1.834,0,0,0,.7.719A1.975,1.975,0,0,0,19.742,24.421ZM27.123,25V23.844l-.028-.2V21.711a1.358,1.358,0,0,0-.378-1.033,1.56,1.56,0,0,0-1.115-.359,2.777,2.777,0,0,0-.969.169,2.493,2.493,0,0,0-.78.449l-.316-.525a2.862,2.862,0,0,1,.96-.526,3.686,3.686,0,0,1,1.175-.187,2.254,2.254,0,0,1,1.579.508A1.981,1.981,0,0,1,27.8,21.74V25Zm-1.811.047a2.517,2.517,0,0,1-1.024-.191,1.509,1.509,0,0,1-.665-.538,1.4,1.4,0,0,1-.232-.794,1.468,1.468,0,0,1,.195-.747,1.373,1.373,0,0,1,.64-.544,2.888,2.888,0,0,1,1.2-.206h1.809v.53H25.448a1.579,1.579,0,0,0-1.06.27.875.875,0,0,0-.293.671.864.864,0,0,0,.351.724,1.568,1.568,0,0,0,.973.269,1.9,1.9,0,0,0,1.039-.274,1.608,1.608,0,0,0,.636-.791l.157.487a1.642,1.642,0,0,1-.692.83A2.329,2.329,0,0,1,25.312,25.047ZM29.733,25V19.745h.682v1.436l-.071-.251a1.754,1.754,0,0,1,.741-.913,2.432,2.432,0,0,1,1.292-.318v.693l-.085-.008-.083,0a1.686,1.686,0,0,0-1.294.5,2.018,2.018,0,0,0-.472,1.432V25Zm6.828,0V23.844l-.028-.2V21.711a1.358,1.358,0,0,0-.378-1.033,1.56,1.56,0,0,0-1.115-.359,2.777,2.777,0,0,0-.969.169,2.492,2.492,0,0,0-.78.449l-.316-.525a2.862,2.862,0,0,1,.96-.526A3.686,3.686,0,0,1,35.11,19.7a2.254,2.254,0,0,1,1.579.508,1.981,1.981,0,0,1,.554,1.534V25Zm-1.811.047a2.517,2.517,0,0,1-1.024-.191,1.509,1.509,0,0,1-.665-.538,1.4,1.4,0,0,1-.232-.794,1.468,1.468,0,0,1,.195-.747,1.373,1.373,0,0,1,.64-.544,2.888,2.888,0,0,1,1.2-.206h1.809v.53H34.886a1.579,1.579,0,0,0-1.06.27.875.875,0,0,0-.293.671.864.864,0,0,0,.351.724,1.568,1.568,0,0,0,.973.269,1.9,1.9,0,0,0,1.039-.274,1.608,1.608,0,0,0,.636-.791l.157.487a1.642,1.642,0,0,1-.692.83A2.329,2.329,0,0,1,34.75,25.047Zm6.08,0a1.394,1.394,0,0,1-1.539-1.531V18.592H40v4.885a1.011,1.011,0,0,0,.233.715.876.876,0,0,0,.674.25,1.152,1.152,0,0,0,.781-.269l.248.508a1.282,1.282,0,0,1-.5.274A2.083,2.083,0,0,1,40.83,25.047Zm-2.477-4.71v-.592H41.6v.592ZM45.85,25V19.75h.71V25Zm.36-6.41a.5.5,0,0,1-.37-.15.491.491,0,0,1-.15-.36.475.475,0,0,1,.15-.355.512.512,0,0,1,.37-.145.522.522,0,0,1,.37.14.459.459,0,0,1,.15.35.512.512,0,0,1-.145.37A.5.5,0,0,1,46.21,18.59ZM53.4,25.047a2.933,2.933,0,0,1-1.44-.344,2.483,2.483,0,0,1-.972-.95,2.721,2.721,0,0,1-.349-1.383,2.813,2.813,0,0,1,.333-1.383,2.45,2.45,0,0,1,.917-.946,2.722,2.722,0,0,1,2.634-.007,2.391,2.391,0,0,1,.905.939,2.87,2.87,0,0,1,.329,1.4q0,.044,0,.1t-.009.112H51.179v-.53h4.19l-.284.212a2.015,2.015,0,0,0-.239-1.01,1.825,1.825,0,0,0-.666-.7,1.987,1.987,0,0,0-1.942,0,1.773,1.773,0,0,0-.666.7,2.132,2.132,0,0,0-.24,1.024V22.4a2.05,2.05,0,0,0,.265,1.047,1.859,1.859,0,0,0,.737.713,2.233,2.233,0,0,0,1.083.256,2.327,2.327,0,0,0,.9-.172,1.823,1.823,0,0,0,.707-.521l.4.463a2.248,2.248,0,0,1-.874.638A2.962,2.962,0,0,1,53.4,25.047ZM59.885,19.7a2.438,2.438,0,0,1,1.128.248,1.781,1.781,0,0,1,.757.748,2.585,2.585,0,0,1,.275,1.257V25h-.71V22.024a1.744,1.744,0,0,0-.414-1.262,1.545,1.545,0,0,0-1.163-.426,2.012,2.012,0,0,0-.977.227,1.543,1.543,0,0,0-.64.651,2.182,2.182,0,0,0-.223,1.027V25h-.71V19.745h.682v1.442l-.111-.262a1.92,1.92,0,0,1,.8-.9A2.513,2.513,0,0,1,59.885,19.7Zm7.274,3.938.017-.9,3.267-2.988h.879L69.01,21.964l-.4.335ZM66.6,25V17.58h.71V25Zm4.07,0-2.193-2.728.466-.556L71.541,25Zm3.874.047a2.722,2.722,0,0,1-1.372-.344,2.524,2.524,0,0,1-.953-.951,2.721,2.721,0,0,1-.35-1.383,2.691,2.691,0,0,1,.351-1.385,2.552,2.552,0,0,1,.952-.943,2.715,2.715,0,0,1,1.372-.343,2.747,2.747,0,0,1,1.377.343,2.5,2.5,0,0,1,.952.942,2.953,2.953,0,0,1,0,2.771,2.48,2.48,0,0,1-.953.95A2.75,2.75,0,0,1,74.543,25.047Zm0-.626a1.973,1.973,0,0,0,1.006-.256,1.83,1.83,0,0,0,.7-.721,2.4,2.4,0,0,0,0-2.151,1.823,1.823,0,0,0-.7-.714,2.106,2.106,0,0,0-2.005,0,1.863,1.863,0,0,0-.7.714,2.357,2.357,0,0,0,0,2.151,1.87,1.87,0,0,0,.7.721A1.95,1.95,0,0,0,74.543,24.421Zm6.835.626a2.447,2.447,0,0,1-1.228-.312,2.254,2.254,0,0,1-.876-.911,3,3,0,0,1-.325-1.449,3.049,3.049,0,0,1,.319-1.456,2.221,2.221,0,0,1,.871-.908,2.469,2.469,0,0,1,1.239-.312,2.673,2.673,0,0,1,1.348.338,2.455,2.455,0,0,1,.934.939,3.032,3.032,0,0,1,0,2.8,2.455,2.455,0,0,1-.934.939A2.673,2.673,0,0,1,81.377,25.047ZM78.669,26.94v-7.2h.682v1.583l-.072,1.057.1,1.057v3.5Zm2.657-2.519a1.975,1.975,0,0,0,1-.254,1.834,1.834,0,0,0,.7-.719,2.375,2.375,0,0,0,0-2.151,1.859,1.859,0,0,0-.7-.716,2.083,2.083,0,0,0-2,0,1.859,1.859,0,0,0-.7.716,2.375,2.375,0,0,0,0,2.151,1.834,1.834,0,0,0,.7.719A1.975,1.975,0,0,0,81.326,24.421ZM85.451,25V19.75h.71V25Zm.36-6.41a.5.5,0,0,1-.37-.15.491.491,0,0,1-.15-.36.475.475,0,0,1,.15-.355.512.512,0,0,1,.37-.145.522.522,0,0,1,.37.14.459.459,0,0,1,.15.35.512.512,0,0,1-.145.37A.5.5,0,0,1,85.811,18.59ZM91.434,25V23.844l-.028-.2V21.711a1.358,1.358,0,0,0-.377-1.033,1.56,1.56,0,0,0-1.115-.359,2.777,2.777,0,0,0-.969.169,2.492,2.492,0,0,0-.78.449l-.316-.525a2.862,2.862,0,0,1,.96-.526,3.686,3.686,0,0,1,1.175-.187,2.254,2.254,0,0,1,1.579.508,1.981,1.981,0,0,1,.554,1.534V25Zm-1.811.047a2.517,2.517,0,0,1-1.024-.191,1.509,1.509,0,0,1-.665-.538,1.4,1.4,0,0,1-.232-.794,1.468,1.468,0,0,1,.195-.747,1.373,1.373,0,0,1,.64-.544,2.888,2.888,0,0,1,1.2-.206h1.809v.53H89.759a1.579,1.579,0,0,0-1.06.27.875.875,0,0,0-.293.671.864.864,0,0,0,.351.724,1.568,1.568,0,0,0,.973.269,1.9,1.9,0,0,0,1.039-.274,1.608,1.608,0,0,0,.636-.791l.157.487a1.642,1.642,0,0,1-.692.83A2.329,2.329,0,0,1,89.623,25.047Z" transform="translate(752 283)" fill="#417da5"/><path d="M15.505,15.18a6.284,6.284,0,0,1-2.257-.4,5.243,5.243,0,0,1-3-2.858A5.429,5.429,0,0,1,9.82,9.75a5.429,5.429,0,0,1,.427-2.175,5.2,5.2,0,0,1,1.2-1.725,5.4,5.4,0,0,1,1.808-1.132,6.267,6.267,0,0,1,2.265-.4,6.2,6.2,0,0,1,2.468.473A4.807,4.807,0,0,1,19.84,6.18L18.28,7.62a3.651,3.651,0,0,0-1.2-.922,3.367,3.367,0,0,0-1.44-.307,3.683,3.683,0,0,0-1.35.24,3.06,3.06,0,0,0-1.065.69,3.151,3.151,0,0,0-.7,1.065,3.888,3.888,0,0,0,0,2.73,3.151,3.151,0,0,0,.7,1.065,3.06,3.06,0,0,0,1.065.69,3.683,3.683,0,0,0,1.35.24,3.367,3.367,0,0,0,1.44-.307,3.572,3.572,0,0,0,1.2-.937l1.56,1.44A4.875,4.875,0,0,1,17.988,14.7,6.159,6.159,0,0,1,15.505,15.18Zm9.525-.06a5.2,5.2,0,0,1-2.422-.54A3.981,3.981,0,0,1,20.995,13.1a4.032,4.032,0,0,1-.57-2.137,4.1,4.1,0,0,1,.563-2.153,3.988,3.988,0,0,1,1.538-1.47,4.815,4.815,0,0,1,4.343-.03,3.762,3.762,0,0,1,1.507,1.44A4.324,4.324,0,0,1,28.93,11q0,.135-.015.307t-.03.323H22.33V10.26h5.325l-.9.4a2.243,2.243,0,0,0-.255-1.1,1.861,1.861,0,0,0-.7-.727,2.046,2.046,0,0,0-1.05-.263,2.087,2.087,0,0,0-1.057.263,1.833,1.833,0,0,0-.712.735,2.32,2.32,0,0,0-.255,1.118v.36a2.268,2.268,0,0,0,.293,1.162,1.908,1.908,0,0,0,.825.765,2.8,2.8,0,0,0,1.253.262,3.035,3.035,0,0,0,1.132-.195,2.759,2.759,0,0,0,.892-.585l1.245,1.35a3.627,3.627,0,0,1-1.4.968A5.161,5.161,0,0,1,25.03,15.12ZM35.4,6.81a3.757,3.757,0,0,1,1.717.383,2.774,2.774,0,0,1,1.193,1.17,4.145,4.145,0,0,1,.435,2.017V15H36.4V10.74a2.074,2.074,0,0,0-.428-1.44,1.558,1.558,0,0,0-1.208-.465,2.112,2.112,0,0,0-1,.233,1.614,1.614,0,0,0-.69.713,2.678,2.678,0,0,0-.247,1.23V15H30.49V6.93h2.235V9.165l-.42-.675A2.989,2.989,0,0,1,33.55,7.245,3.838,3.838,0,0,1,35.4,6.81Zm8.76,8.31a3.168,3.168,0,0,1-2.22-.727,2.793,2.793,0,0,1-.795-2.167V5.145h2.34v7.05a1.083,1.083,0,0,0,.27.788.978.978,0,0,0,.735.278,1.5,1.5,0,0,0,.945-.3l.63,1.65a2.571,2.571,0,0,1-.862.383A4.223,4.223,0,0,1,44.155,15.12ZM39.9,8.91V7.11h5.6v1.8ZM47.38,15V6.93h2.235V9.21L49.3,8.55a2.593,2.593,0,0,1,1.155-1.3A3.926,3.926,0,0,1,52.39,6.81V8.97q-.15-.015-.27-.022t-.255-.008a2.2,2.2,0,0,0-1.552.547,2.213,2.213,0,0,0-.592,1.7V15Zm10.83,0V13.425l-.15-.345V10.26A1.509,1.509,0,0,0,57.6,9.09a2.019,2.019,0,0,0-1.4-.42,4.073,4.073,0,0,0-1.268.2,3.353,3.353,0,0,0-1.057.547l-.84-1.635a5.06,5.06,0,0,1,1.59-.72,7.116,7.116,0,0,1,1.89-.255,4.283,4.283,0,0,1,2.865.87A3.376,3.376,0,0,1,60.4,10.4V15Zm-2.46.12a3.73,3.73,0,0,1-1.62-.323A2.461,2.461,0,0,1,53.1,13.92a2.38,2.38,0,0,1-.007-2.505,2.308,2.308,0,0,1,1.118-.848A5.427,5.427,0,0,1,56.2,10.26h2.145v1.365h-1.89a1.759,1.759,0,0,0-1.132.27.861.861,0,0,0-.308.675.842.842,0,0,0,.353.713,1.588,1.588,0,0,0,.967.262,2.009,2.009,0,0,0,1.05-.278,1.59,1.59,0,0,0,.675-.818l.36,1.08a2.089,2.089,0,0,1-.93,1.185A3.345,3.345,0,0,1,55.75,15.12ZM62.515,15V3.87h2.34V15Zm13.53.12a3.547,3.547,0,0,1-1.83-.45,2.871,2.871,0,0,1-1.17-1.373,5.826,5.826,0,0,1-.4-2.332,5.545,5.545,0,0,1,.427-2.34A3,3,0,0,1,74.26,7.26a3.455,3.455,0,0,1,1.785-.45,4.106,4.106,0,0,1,2.048.51,3.759,3.759,0,0,1,1.44,1.44,4.364,4.364,0,0,1,.533,2.2,4.332,4.332,0,0,1-.533,2.19,3.813,3.813,0,0,1-1.44,1.448A4.059,4.059,0,0,1,76.045,15.12ZM71.275,15V3.87h2.34v4.7l-.15,2.385.045,2.4V15Zm4.365-1.8a2.012,2.012,0,0,0,1.043-.27,1.991,1.991,0,0,0,.735-.773,2.43,2.43,0,0,0,.278-1.193,2.42,2.42,0,0,0-.278-1.2A1.961,1.961,0,0,0,75.64,8.73,2.052,2.052,0,0,0,74.59,9a1.935,1.935,0,0,0-.735.765,2.474,2.474,0,0,0-.27,1.2,2.485,2.485,0,0,0,.27,1.193,1.923,1.923,0,0,0,.735.773A2.052,2.052,0,0,0,75.64,13.2ZM81.625,15V3.87h2.34V15Zm8.355.12a4.729,4.729,0,0,1-2.287-.54A4.111,4.111,0,0,1,86.118,13.1a3.992,3.992,0,0,1-.577-2.137,3.981,3.981,0,0,1,2.152-3.623,5.163,5.163,0,0,1,4.567,0,4.006,4.006,0,0,1,1.575,1.463,4.05,4.05,0,0,1,.57,2.16A3.977,3.977,0,0,1,92.26,14.58,4.74,4.74,0,0,1,89.98,15.12Zm0-1.92a2.052,2.052,0,0,0,1.05-.27,1.923,1.923,0,0,0,.735-.773,2.485,2.485,0,0,0,.27-1.193,2.474,2.474,0,0,0-.27-1.2A1.935,1.935,0,0,0,91.03,9a2.177,2.177,0,0,0-2.1,0,1.987,1.987,0,0,0-.743.765,2.42,2.42,0,0,0-.278,1.2,2.43,2.43,0,0,0,.278,1.193,1.974,1.974,0,0,0,.743.773A2.052,2.052,0,0,0,89.98,13.2Zm9.885,1.92a4.949,4.949,0,0,1-2.325-.533,3.968,3.968,0,0,1-2.175-3.622A3.947,3.947,0,0,1,97.54,7.342a4.949,4.949,0,0,1,2.325-.533,4.448,4.448,0,0,1,2.22.533,3.247,3.247,0,0,1,1.4,1.523l-1.815.975a2.106,2.106,0,0,0-.787-.84,2.036,2.036,0,0,0-1.027-.27A2.164,2.164,0,0,0,98.77,9a1.955,1.955,0,0,0-.757.765,2.42,2.42,0,0,0-.278,1.2,2.42,2.42,0,0,0,.278,1.2,1.955,1.955,0,0,0,.757.765,2.164,2.164,0,0,0,1.08.27,2.081,2.081,0,0,0,1.027-.262,2.034,2.034,0,0,0,.787-.847l1.815.99a3.26,3.26,0,0,1-1.4,1.507A4.448,4.448,0,0,1,99.865,15.12Zm6.84-1.77.06-2.85,3.765-3.57h2.79L109.705,10.6l-1.215.99ZM104.77,15V3.87h2.34V15Zm6.015,0-2.73-3.39,1.47-1.815,4.1,5.2Zm3.885,0V3.87h2.34V15Zm9.465,0V13.425l-.15-.345V10.26a1.509,1.509,0,0,0-.457-1.17,2.019,2.019,0,0,0-1.4-.42,4.073,4.073,0,0,0-1.267.2,3.353,3.353,0,0,0-1.058.547l-.84-1.635a5.06,5.06,0,0,1,1.59-.72,7.116,7.116,0,0,1,1.89-.255,4.283,4.283,0,0,1,2.865.87,3.376,3.376,0,0,1,1.02,2.715V15Zm-2.46.12a3.73,3.73,0,0,1-1.62-.323,2.461,2.461,0,0,1-1.035-.877,2.38,2.38,0,0,1-.007-2.505,2.308,2.308,0,0,1,1.118-.848,5.427,5.427,0,0,1,1.995-.307h2.145v1.365h-1.89a1.759,1.759,0,0,0-1.132.27.861.861,0,0,0-.308.675.842.842,0,0,0,.353.713,1.588,1.588,0,0,0,.967.262,2.009,2.009,0,0,0,1.05-.278,1.59,1.59,0,0,0,.675-.818l.36,1.08a2.089,2.089,0,0,1-.93,1.185A3.345,3.345,0,0,1,121.675,15.12Zm10.62,2.91a8.622,8.622,0,0,1-2.2-.278,4.77,4.77,0,0,1-1.763-.833l.93-1.68a3.82,3.82,0,0,0,1.3.668,5.158,5.158,0,0,0,1.552.248,2.5,2.5,0,0,0,1.808-.555,2.221,2.221,0,0,0,.563-1.65V12.735l.15-2.025-.03-2.04V6.93h2.22v6.72a4.273,4.273,0,0,1-1.17,3.315A4.822,4.822,0,0,1,132.295,18.03Zm-.36-3.42a4.226,4.226,0,0,1-2.033-.487,3.748,3.748,0,0,1-2-3.413,3.816,3.816,0,0,1,.547-2.062A3.759,3.759,0,0,1,129.9,7.29a4.279,4.279,0,0,1,2.033-.48,3.793,3.793,0,0,1,1.8.413A2.837,2.837,0,0,1,134.95,8.5a4.909,4.909,0,0,1,.435,2.213,4.871,4.871,0,0,1-.435,2.2,2.881,2.881,0,0,1-1.215,1.283A3.738,3.738,0,0,1,131.935,14.61Zm.465-1.92a2.355,2.355,0,0,0,1.1-.248,1.837,1.837,0,0,0,.75-.7,2.133,2.133,0,0,0,0-2.078,1.853,1.853,0,0,0-.75-.69,2.546,2.546,0,0,0-2.19,0,1.865,1.865,0,0,0-1.035,1.733,1.931,1.931,0,0,0,.277,1.035,1.889,1.889,0,0,0,.757.7A2.355,2.355,0,0,0,132.4,12.69ZM139,15V6.93h2.235V9.21l-.315-.66a2.593,2.593,0,0,1,1.155-1.3,3.926,3.926,0,0,1,1.935-.443V8.97q-.15-.015-.27-.022t-.255-.008a2.2,2.2,0,0,0-1.553.547,2.213,2.213,0,0,0-.592,1.7V15Zm6.4,0V6.93h2.34V15Zm1.17-9.195a1.484,1.484,0,0,1-1.05-.375,1.216,1.216,0,0,1-.4-.93,1.216,1.216,0,0,1,.4-.93,1.484,1.484,0,0,1,1.05-.375,1.542,1.542,0,0,1,1.05.353,1.148,1.148,0,0,1,.4.907,1.286,1.286,0,0,1-.4.968A1.461,1.461,0,0,1,146.575,5.805Zm8.25,1a3.757,3.757,0,0,1,1.717.383,2.774,2.774,0,0,1,1.193,1.17,4.145,4.145,0,0,1,.435,2.017V15h-2.34V10.74A2.074,2.074,0,0,0,155.4,9.3a1.558,1.558,0,0,0-1.208-.465,2.112,2.112,0,0,0-1,.233,1.614,1.614,0,0,0-.69.713,2.678,2.678,0,0,0-.247,1.23V15h-2.34V6.93h2.235V9.165l-.42-.675a2.989,2.989,0,0,1,1.245-1.245A3.838,3.838,0,0,1,154.825,6.81Zm9.315,11.22a8.622,8.622,0,0,1-2.2-.278,4.77,4.77,0,0,1-1.763-.833l.93-1.68a3.82,3.82,0,0,0,1.3.668,5.158,5.158,0,0,0,1.552.248,2.5,2.5,0,0,0,1.808-.555,2.221,2.221,0,0,0,.563-1.65V12.735l.15-2.025-.03-2.04V6.93h2.22v6.72a4.273,4.273,0,0,1-1.17,3.315A4.822,4.822,0,0,1,164.14,18.03Zm-.36-3.42a4.226,4.226,0,0,1-2.033-.487,3.748,3.748,0,0,1-2-3.413,3.815,3.815,0,0,1,.548-2.062,3.759,3.759,0,0,1,1.455-1.358,4.279,4.279,0,0,1,2.033-.48,3.793,3.793,0,0,1,1.8.413A2.837,2.837,0,0,1,166.795,8.5a4.909,4.909,0,0,1,.435,2.213,4.871,4.871,0,0,1-.435,2.2,2.881,2.881,0,0,1-1.215,1.283A3.738,3.738,0,0,1,163.78,14.61Zm.465-1.92a2.355,2.355,0,0,0,1.1-.248,1.837,1.837,0,0,0,.75-.7,2.133,2.133,0,0,0,0-2.078,1.853,1.853,0,0,0-.75-.69,2.546,2.546,0,0,0-2.19,0,1.865,1.865,0,0,0-1.035,1.733,1.931,1.931,0,0,0,.277,1.035,1.889,1.889,0,0,0,.757.7A2.355,2.355,0,0,0,164.245,12.69ZM3.65,26.064a4.378,4.378,0,0,1-1.5-.257,2.922,2.922,0,0,1-1.107-.659l.293-.566a3,3,0,0,0,1,.606,3.556,3.556,0,0,0,1.312.245,2.941,2.941,0,0,0,1.072-.165,1.318,1.318,0,0,0,.612-.446,1.063,1.063,0,0,0,.2-.626.919.919,0,0,0-.234-.658,1.638,1.638,0,0,0-.617-.4,6.4,6.4,0,0,0-.842-.253q-.459-.106-.919-.235a4.09,4.09,0,0,1-.844-.335,1.7,1.7,0,0,1-.617-.555,1.591,1.591,0,0,1-.234-.9,1.763,1.763,0,0,1,.273-.954,1.918,1.918,0,0,1,.842-.7,3.439,3.439,0,0,1,1.457-.267,4.253,4.253,0,0,1,1.176.167,3.3,3.3,0,0,1,1,.462l-.257.585a3.257,3.257,0,0,0-.947-.44,3.6,3.6,0,0,0-.974-.141,2.727,2.727,0,0,0-1.046.173,1.322,1.322,0,0,0-.605.457,1.111,1.111,0,0,0-.193.639.925.925,0,0,0,.234.662,1.61,1.61,0,0,0,.617.392,7,7,0,0,0,.844.253q.461.109.92.237a4.183,4.183,0,0,1,.842.331,1.7,1.7,0,0,1,.617.548,1.55,1.55,0,0,1,.234.89,1.73,1.73,0,0,1-.278.948,1.932,1.932,0,0,1-.856.7A3.541,3.541,0,0,1,3.65,26.064Zm6.772-.017a2.447,2.447,0,0,1-1.228-.312,2.254,2.254,0,0,1-.876-.911,3,3,0,0,1-.325-1.449,3.049,3.049,0,0,1,.319-1.456,2.221,2.221,0,0,1,.871-.908,2.469,2.469,0,0,1,1.239-.312,2.673,2.673,0,0,1,1.348.338,2.455,2.455,0,0,1,.934.939,3.032,3.032,0,0,1,0,2.8,2.455,2.455,0,0,1-.934.939A2.673,2.673,0,0,1,10.422,26.047ZM7.714,27.94v-7.2H8.4v1.583l-.072,1.057.1,1.057v3.5Zm2.657-2.519a1.975,1.975,0,0,0,1-.254,1.834,1.834,0,0,0,.7-.719,2.375,2.375,0,0,0,0-2.151,1.859,1.859,0,0,0-.7-.716,2.083,2.083,0,0,0-2,0,1.859,1.859,0,0,0-.7.716,2.375,2.375,0,0,0,0,2.151,1.834,1.834,0,0,0,.7.719A1.975,1.975,0,0,0,10.371,25.421ZM17.752,26V24.844l-.028-.2V22.711a1.358,1.358,0,0,0-.378-1.033,1.56,1.56,0,0,0-1.115-.359,2.777,2.777,0,0,0-.969.169,2.493,2.493,0,0,0-.78.449l-.316-.525a2.862,2.862,0,0,1,.96-.526A3.686,3.686,0,0,1,16.3,20.7a2.254,2.254,0,0,1,1.579.508,1.981,1.981,0,0,1,.554,1.534V26Zm-1.811.047a2.517,2.517,0,0,1-1.024-.191,1.509,1.509,0,0,1-.665-.538,1.4,1.4,0,0,1-.232-.794,1.468,1.468,0,0,1,.195-.747,1.373,1.373,0,0,1,.64-.544,2.888,2.888,0,0,1,1.2-.206h1.809v.53H16.076a1.579,1.579,0,0,0-1.06.27.875.875,0,0,0-.293.671.864.864,0,0,0,.351.724,1.568,1.568,0,0,0,.973.269,1.9,1.9,0,0,0,1.039-.274,1.608,1.608,0,0,0,.636-.791l.157.487a1.642,1.642,0,0,1-.692.83A2.329,2.329,0,0,1,15.94,26.047ZM20.362,26V20.745h.682v1.436l-.071-.251a1.754,1.754,0,0,1,.741-.913,2.432,2.432,0,0,1,1.292-.318v.693l-.085-.008-.083,0a1.686,1.686,0,0,0-1.294.5,2.018,2.018,0,0,0-.472,1.432V26Zm6.828,0V24.844l-.028-.2V22.711a1.358,1.358,0,0,0-.378-1.033,1.56,1.56,0,0,0-1.115-.359,2.777,2.777,0,0,0-.969.169,2.493,2.493,0,0,0-.78.449l-.316-.525a2.862,2.862,0,0,1,.96-.526,3.686,3.686,0,0,1,1.175-.187,2.254,2.254,0,0,1,1.579.508,1.981,1.981,0,0,1,.554,1.534V26Zm-1.811.047a2.517,2.517,0,0,1-1.024-.191,1.509,1.509,0,0,1-.665-.538,1.4,1.4,0,0,1-.232-.794,1.468,1.468,0,0,1,.195-.747,1.373,1.373,0,0,1,.64-.544,2.888,2.888,0,0,1,1.2-.206H27.3v.53H25.515a1.579,1.579,0,0,0-1.06.27.875.875,0,0,0-.293.671.864.864,0,0,0,.351.724,1.568,1.568,0,0,0,.973.269,1.9,1.9,0,0,0,1.039-.274,1.608,1.608,0,0,0,.636-.791l.157.487a1.642,1.642,0,0,1-.692.83A2.329,2.329,0,0,1,25.379,26.047Zm6.08,0a1.394,1.394,0,0,1-1.539-1.531V19.592h.71v4.885a1.011,1.011,0,0,0,.233.715.876.876,0,0,0,.674.25,1.152,1.152,0,0,0,.781-.269l.248.508a1.282,1.282,0,0,1-.5.274A2.083,2.083,0,0,1,31.459,26.047Zm-2.477-4.71v-.592h3.245v.592ZM36.479,26V20.75h.71V26Zm.36-6.41a.5.5,0,0,1-.37-.15.491.491,0,0,1-.15-.36.475.475,0,0,1,.15-.355.512.512,0,0,1,.37-.145.522.522,0,0,1,.37.14.459.459,0,0,1,.15.35.512.512,0,0,1-.145.37A.5.5,0,0,1,36.839,19.59Zm6.617,6.457a1.394,1.394,0,0,1-1.539-1.531V19.592h.71v4.885a1.011,1.011,0,0,0,.233.715.876.876,0,0,0,.674.25,1.152,1.152,0,0,0,.781-.269l.248.508a1.282,1.282,0,0,1-.5.274A2.083,2.083,0,0,1,43.456,26.047Zm-2.477-4.71v-.592h3.245v.592ZM45.853,26V20.745h.682v1.436l-.071-.251a1.754,1.754,0,0,1,.741-.913A2.432,2.432,0,0,1,48.5,20.7v.693l-.085-.008-.083,0a1.686,1.686,0,0,0-1.294.5,2.018,2.018,0,0,0-.472,1.432V26Zm6.115.047a2.933,2.933,0,0,1-1.44-.344,2.483,2.483,0,0,1-.972-.95,2.721,2.721,0,0,1-.349-1.383,2.813,2.813,0,0,1,.333-1.383,2.45,2.45,0,0,1,.917-.946,2.722,2.722,0,0,1,2.634-.007,2.391,2.391,0,0,1,.905.939,2.87,2.87,0,0,1,.329,1.4q0,.044,0,.1t-.009.112H49.747v-.53h4.19l-.284.212a2.015,2.015,0,0,0-.239-1.01,1.825,1.825,0,0,0-.666-.7,1.987,1.987,0,0,0-1.942,0,1.773,1.773,0,0,0-.666.7,2.132,2.132,0,0,0-.24,1.024V23.4a2.05,2.05,0,0,0,.265,1.047,1.859,1.859,0,0,0,.737.713,2.233,2.233,0,0,0,1.083.256,2.327,2.327,0,0,0,.9-.172,1.823,1.823,0,0,0,.707-.521l.4.463a2.248,2.248,0,0,1-.874.638A2.962,2.962,0,0,1,51.968,26.047Zm6.995-1.411.017-.9,3.267-2.988h.879l-2.312,2.219-.4.335ZM58.4,26V18.58h.71V26Zm4.07,0-2.193-2.728.466-.556L63.344,26Zm3.874.047a2.722,2.722,0,0,1-1.372-.344,2.524,2.524,0,0,1-.953-.951,2.721,2.721,0,0,1-.35-1.383,2.691,2.691,0,0,1,.351-1.385,2.552,2.552,0,0,1,.952-.943,2.715,2.715,0,0,1,1.372-.343,2.747,2.747,0,0,1,1.377.343,2.5,2.5,0,0,1,.952.942,2.953,2.953,0,0,1,0,2.771,2.48,2.48,0,0,1-.953.95A2.75,2.75,0,0,1,66.346,26.047Zm0-.626a1.973,1.973,0,0,0,1.006-.256,1.83,1.83,0,0,0,.7-.721,2.4,2.4,0,0,0,0-2.151,1.823,1.823,0,0,0-.7-.714,2.106,2.106,0,0,0-2.005,0,1.863,1.863,0,0,0-.7.714,2.357,2.357,0,0,0,0,2.151,1.87,1.87,0,0,0,.7.721A1.95,1.95,0,0,0,66.346,25.421Zm6.835.626a2.447,2.447,0,0,1-1.228-.312,2.254,2.254,0,0,1-.876-.911,3,3,0,0,1-.325-1.449,3.049,3.049,0,0,1,.319-1.456,2.221,2.221,0,0,1,.871-.908,2.469,2.469,0,0,1,1.239-.312,2.673,2.673,0,0,1,1.348.338,2.455,2.455,0,0,1,.934.939,3.032,3.032,0,0,1,0,2.8,2.455,2.455,0,0,1-.934.939A2.673,2.673,0,0,1,73.181,26.047ZM70.472,27.94v-7.2h.682v1.583l-.072,1.057.1,1.057v3.5Zm2.657-2.519a1.975,1.975,0,0,0,1-.254,1.834,1.834,0,0,0,.7-.719,2.375,2.375,0,0,0,0-2.151,1.859,1.859,0,0,0-.7-.716,2.083,2.083,0,0,0-2,0,1.859,1.859,0,0,0-.7.716,2.375,2.375,0,0,0,0,2.151,1.834,1.834,0,0,0,.7.719A1.975,1.975,0,0,0,73.13,25.421ZM77.255,26V20.75h.71V26Zm.36-6.41a.5.5,0,0,1-.37-.15.491.491,0,0,1-.15-.36.475.475,0,0,1,.15-.355.512.512,0,0,1,.37-.145.522.522,0,0,1,.37.14.459.459,0,0,1,.15.35.512.512,0,0,1-.145.37A.5.5,0,0,1,77.615,19.59Zm4.478,6.457a2.722,2.722,0,0,1-1.372-.344,2.524,2.524,0,0,1-.953-.951,2.721,2.721,0,0,1-.35-1.383,2.691,2.691,0,0,1,.351-1.385,2.552,2.552,0,0,1,.952-.943,2.715,2.715,0,0,1,1.372-.343,2.747,2.747,0,0,1,1.377.343,2.5,2.5,0,0,1,.952.942,2.953,2.953,0,0,1,0,2.771,2.48,2.48,0,0,1-.953.95A2.75,2.75,0,0,1,82.092,26.047Zm0-.626a1.973,1.973,0,0,0,1.006-.256,1.83,1.83,0,0,0,.7-.721,2.4,2.4,0,0,0,0-2.151,1.823,1.823,0,0,0-.7-.714,2.106,2.106,0,0,0-2.005,0,1.863,1.863,0,0,0-.7.714,2.357,2.357,0,0,0,0,2.151,1.87,1.87,0,0,0,.7.721A1.95,1.95,0,0,0,82.092,25.421ZM86.219,26V20.745H86.9v1.436l-.071-.251a1.754,1.754,0,0,1,.741-.913,2.432,2.432,0,0,1,1.292-.318v.693l-.085-.008-.083,0a1.686,1.686,0,0,0-1.294.5,2.018,2.018,0,0,0-.472,1.432V26Zm6.635,0V20.75h.71V26Zm.36-6.41a.5.5,0,0,1-.37-.15.491.491,0,0,1-.15-.36.475.475,0,0,1,.15-.355.512.512,0,0,1,.37-.145.522.522,0,0,1,.37.14.459.459,0,0,1,.15.35.512.512,0,0,1-.145.37A.5.5,0,0,1,93.213,19.59Zm7.189,6.457a2.933,2.933,0,0,1-1.44-.344,2.483,2.483,0,0,1-.972-.95,2.721,2.721,0,0,1-.349-1.383,2.813,2.813,0,0,1,.333-1.383,2.45,2.45,0,0,1,.917-.946,2.722,2.722,0,0,1,2.634-.007,2.391,2.391,0,0,1,.905.939,2.87,2.87,0,0,1,.329,1.4q0,.044,0,.1t-.009.112H98.182v-.53h4.19l-.284.212a2.015,2.015,0,0,0-.239-1.01,1.825,1.825,0,0,0-.666-.7,1.987,1.987,0,0,0-1.942,0,1.773,1.773,0,0,0-.666.7,2.132,2.132,0,0,0-.24,1.024V23.4a2.05,2.05,0,0,0,.265,1.047,1.859,1.859,0,0,0,.737.713,2.233,2.233,0,0,0,1.083.256,2.327,2.327,0,0,0,.9-.172,1.823,1.823,0,0,0,.707-.521l.4.463a2.248,2.248,0,0,1-.874.638A2.962,2.962,0,0,1,100.4,26.047Zm5.468,0a1.394,1.394,0,0,1-1.539-1.531V19.592h.71v4.885a1.011,1.011,0,0,0,.233.715.876.876,0,0,0,.674.25,1.152,1.152,0,0,0,.781-.269l.248.508a1.282,1.282,0,0,1-.5.274A2.083,2.083,0,0,1,105.871,26.047Zm-2.477-4.71v-.592h3.245v.592Zm6.394,4.71a1.394,1.394,0,0,1-1.539-1.531V19.592h.71v4.885a1.011,1.011,0,0,0,.233.715.876.876,0,0,0,.674.25,1.152,1.152,0,0,0,.781-.269l.248.508a1.282,1.282,0,0,1-.5.274A2.083,2.083,0,0,1,109.788,26.047Zm-2.477-4.71v-.592h3.245v.592ZM118,26.064a3.92,3.92,0,0,1-1.456-.265,3.443,3.443,0,0,1-1.932-1.879,3.795,3.795,0,0,1,0-2.84,3.437,3.437,0,0,1,.772-1.131,3.5,3.5,0,0,1,1.165-.748,4.134,4.134,0,0,1,2.891-.008,2.943,2.943,0,0,1,1.132.769l-.471.469a2.646,2.646,0,0,0-.951-.636,3.258,3.258,0,0,0-2.292.02,2.854,2.854,0,0,0-.941.611,2.775,2.775,0,0,0-.621.921,3.121,3.121,0,0,0,0,2.307,2.775,2.775,0,0,0,.621.921,2.854,2.854,0,0,0,.941.611,3.242,3.242,0,0,0,2.292.017,2.64,2.64,0,0,0,.951-.644l.471.469a2.992,2.992,0,0,1-1.132.774A3.9,3.9,0,0,1,118,26.064Zm6-.017a2.933,2.933,0,0,1-1.44-.344,2.483,2.483,0,0,1-.972-.95,2.721,2.721,0,0,1-.349-1.383,2.813,2.813,0,0,1,.333-1.383,2.45,2.45,0,0,1,.917-.946,2.722,2.722,0,0,1,2.634-.007,2.391,2.391,0,0,1,.905.939,2.87,2.87,0,0,1,.329,1.4q0,.044,0,.1t-.009.112h-4.567v-.53h4.19l-.284.212a2.015,2.015,0,0,0-.239-1.01,1.825,1.825,0,0,0-.666-.7,1.987,1.987,0,0,0-1.942,0,1.773,1.773,0,0,0-.666.7,2.132,2.132,0,0,0-.24,1.024V23.4a2.05,2.05,0,0,0,.265,1.047,1.859,1.859,0,0,0,.737.713,2.233,2.233,0,0,0,1.083.256,2.327,2.327,0,0,0,.9-.172,1.823,1.823,0,0,0,.707-.521l.4.463a2.248,2.248,0,0,1-.874.638A2.962,2.962,0,0,1,124,26.047Zm6.518,0a2.447,2.447,0,0,1-1.228-.312,2.254,2.254,0,0,1-.876-.911,3,3,0,0,1-.325-1.449,3.049,3.049,0,0,1,.319-1.456,2.221,2.221,0,0,1,.871-.908,2.469,2.469,0,0,1,1.239-.312,2.673,2.673,0,0,1,1.348.338,2.455,2.455,0,0,1,.934.939,3.032,3.032,0,0,1,0,2.8,2.455,2.455,0,0,1-.934.939A2.673,2.673,0,0,1,130.52,26.047Zm-2.708,1.893v-7.2h.682v1.583l-.072,1.057.1,1.057v3.5Zm2.657-2.519a1.975,1.975,0,0,0,1-.254,1.834,1.834,0,0,0,.7-.719,2.375,2.375,0,0,0,0-2.151,1.858,1.858,0,0,0-.7-.716,2.083,2.083,0,0,0-2,0,1.859,1.859,0,0,0-.7.716,2.375,2.375,0,0,0,0,2.151,1.834,1.834,0,0,0,.7.719A1.975,1.975,0,0,0,130.469,25.421Zm6.8-4.723a2.438,2.438,0,0,1,1.128.248,1.781,1.781,0,0,1,.758.748,2.585,2.585,0,0,1,.275,1.257V26h-.71V23.024a1.744,1.744,0,0,0-.414-1.262,1.545,1.545,0,0,0-1.163-.426,2.012,2.012,0,0,0-.977.227,1.543,1.543,0,0,0-.64.651,2.182,2.182,0,0,0-.223,1.027V26h-.71V18.58h.71v3.607l-.139-.262a1.92,1.92,0,0,1,.8-.9A2.513,2.513,0,0,1,137.271,20.7Zm3.7,2.9v-.621h2.625V23.6Zm4.776,1.038.017-.9,3.267-2.988h.879l-2.312,2.219-.4.335ZM145.183,26V18.58h.71V26Zm4.07,0-2.193-2.728.466-.556,2.6,3.285Zm1.941,0V18.58h.71V26Zm4.866.047a2.625,2.625,0,0,1-1.178-.248,1.755,1.755,0,0,1-.775-.751,2.588,2.588,0,0,1-.275-1.254v-3.05h.71v2.976a1.74,1.74,0,0,0,.415,1.262,1.561,1.561,0,0,0,1.172.426,1.9,1.9,0,0,0,.95-.227,1.534,1.534,0,0,0,.621-.656,2.225,2.225,0,0,0,.219-1.022V20.745h.71V26h-.682V24.563l.111.262a1.93,1.93,0,0,1-.774.9A2.284,2.284,0,0,1,156.06,26.047Zm5.963,0a4.027,4.027,0,0,1-1.234-.186,2.623,2.623,0,0,1-.905-.462l.313-.562a2.878,2.878,0,0,0,.82.421,3.181,3.181,0,0,0,1.052.174,1.917,1.917,0,0,0,1.082-.235.731.731,0,0,0,.332-.626.577.577,0,0,0-.184-.455,1.231,1.231,0,0,0-.488-.251,5.789,5.789,0,0,0-.669-.145q-.366-.059-.732-.142a2.9,2.9,0,0,1-.67-.236,1.278,1.278,0,0,1-.488-.423,1.247,1.247,0,0,1-.184-.716,1.3,1.3,0,0,1,.244-.775,1.617,1.617,0,0,1,.708-.535,2.917,2.917,0,0,1,1.133-.2,4.032,4.032,0,0,1,1.021.134,2.568,2.568,0,0,1,.836.362l-.313.562a2.292,2.292,0,0,0-.744-.341,3.242,3.242,0,0,0-.806-.1,1.762,1.762,0,0,0-1.037.245.739.739,0,0,0-.334.617.62.62,0,0,0,.184.478,1.251,1.251,0,0,0,.488.266,4.837,4.837,0,0,0,.67.153q.366.059.73.141a3.06,3.06,0,0,1,.667.231,1.262,1.262,0,0,1,.488.411,1.193,1.193,0,0,1,.184.7,1.267,1.267,0,0,1-.255.788,1.626,1.626,0,0,1-.737.52A3.289,3.289,0,0,1,162.023,26.047Zm5.133,0a1.394,1.394,0,0,1-1.539-1.531V19.592h.71v4.885a1.011,1.011,0,0,0,.233.715.876.876,0,0,0,.674.25,1.152,1.152,0,0,0,.781-.269l.248.508a1.282,1.282,0,0,1-.5.274A2.083,2.083,0,0,1,167.156,26.047Zm-2.477-4.71v-.592h3.245v.592Zm6.916,4.71a2.933,2.933,0,0,1-1.44-.344,2.483,2.483,0,0,1-.972-.95,2.721,2.721,0,0,1-.349-1.383,2.813,2.813,0,0,1,.333-1.383,2.45,2.45,0,0,1,.917-.946,2.722,2.722,0,0,1,2.634-.007,2.391,2.391,0,0,1,.905.939,2.87,2.87,0,0,1,.329,1.4q0,.044,0,.1t-.009.112h-4.567v-.53h4.19l-.284.212a2.015,2.015,0,0,0-.239-1.01,1.825,1.825,0,0,0-.666-.7,1.987,1.987,0,0,0-1.942,0,1.773,1.773,0,0,0-.666.7,2.132,2.132,0,0,0-.24,1.024V23.4a2.05,2.05,0,0,0,.265,1.047,1.859,1.859,0,0,0,.737.713,2.233,2.233,0,0,0,1.083.256,2.327,2.327,0,0,0,.9-.172,1.823,1.823,0,0,0,.707-.521l.4.463a2.248,2.248,0,0,1-.874.638A2.962,2.962,0,0,1,171.595,26.047ZM175.4,26V20.745h.682v1.436l-.071-.251a1.754,1.754,0,0,1,.741-.913,2.432,2.432,0,0,1,1.292-.318v.693l-.085-.008-.083,0a1.686,1.686,0,0,0-1.294.5,2.018,2.018,0,0,0-.472,1.432V26Z" transform="translate(759 361)" fill="#fa690f"/><path d="M12.1,10.064A2.835,2.835,0,0,1,9.987,9.29,3.111,3.111,0,0,1,9.22,7.008V3h.733V6.981a2.582,2.582,0,0,0,.561,1.832A2.085,2.085,0,0,0,12.1,9.4a2.085,2.085,0,0,0,1.587-.591,2.582,2.582,0,0,0,.561-1.832V3h.721V7.008A3.111,3.111,0,0,1,14.2,9.29,2.835,2.835,0,0,1,12.1,10.064Zm6.609-.017a1.538,1.538,0,0,1-1.14-.4,1.531,1.531,0,0,1-.4-1.13V3.592h.71V8.478a1.011,1.011,0,0,0,.233.715.876.876,0,0,0,.674.25,1.152,1.152,0,0,0,.781-.269l.248.508a1.282,1.282,0,0,1-.5.274A2.083,2.083,0,0,1,18.7,10.047Zm-2.477-4.71V4.745h3.245v.592ZM24.39,10V8.844l-.028-.2V6.711a1.358,1.358,0,0,0-.378-1.033,1.56,1.56,0,0,0-1.115-.359,2.777,2.777,0,0,0-.969.169,2.493,2.493,0,0,0-.78.449L20.8,5.411a2.862,2.862,0,0,1,.96-.526A3.686,3.686,0,0,1,22.938,4.7a2.254,2.254,0,0,1,1.579.508,1.981,1.981,0,0,1,.554,1.534V10Zm-1.811.047a2.517,2.517,0,0,1-1.024-.191,1.509,1.509,0,0,1-.665-.538,1.4,1.4,0,0,1-.232-.794,1.468,1.468,0,0,1,.195-.747,1.373,1.373,0,0,1,.64-.544,2.888,2.888,0,0,1,1.2-.206H24.5v.53H22.714a1.579,1.579,0,0,0-1.06.27.875.875,0,0,0-.293.671.864.864,0,0,0,.351.724,1.568,1.568,0,0,0,.973.269,1.9,1.9,0,0,0,1.039-.274,1.608,1.608,0,0,0,.636-.791l.157.487a1.642,1.642,0,0,1-.692.83A2.329,2.329,0,0,1,22.578,10.047Zm7.1-5.349a2.438,2.438,0,0,1,1.128.248,1.781,1.781,0,0,1,.757.748,2.585,2.585,0,0,1,.275,1.257V10h-.71V7.024a1.744,1.744,0,0,0-.414-1.262,1.545,1.545,0,0,0-1.163-.426,2.012,2.012,0,0,0-.977.227,1.543,1.543,0,0,0-.64.651,2.182,2.182,0,0,0-.223,1.027V10H27V4.745h.682V6.187l-.111-.262a1.92,1.92,0,0,1,.8-.9A2.513,2.513,0,0,1,29.676,4.7ZM36.389,10V2.58h.71V10Zm4.836.047A2.722,2.722,0,0,1,39.854,9.7a2.524,2.524,0,0,1-.953-.951,2.721,2.721,0,0,1-.35-1.383A2.691,2.691,0,0,1,38.9,5.984a2.552,2.552,0,0,1,.952-.943A2.715,2.715,0,0,1,41.225,4.7a2.747,2.747,0,0,1,1.377.343,2.5,2.5,0,0,1,.952.942A2.724,2.724,0,0,1,43.9,7.369a2.75,2.75,0,0,1-.345,1.384,2.48,2.48,0,0,1-.953.95A2.75,2.75,0,0,1,41.225,10.047Zm0-.626a1.973,1.973,0,0,0,1.006-.256,1.83,1.83,0,0,0,.7-.721,2.2,2.2,0,0,0,.255-1.074,2.189,2.189,0,0,0-.255-1.077,1.823,1.823,0,0,0-.7-.714,2.106,2.106,0,0,0-2.005,0,1.863,1.863,0,0,0-.7.714,2.155,2.155,0,0,0-.26,1.077,2.165,2.165,0,0,0,.26,1.074,1.87,1.87,0,0,0,.7.721A1.95,1.95,0,0,0,41.225,9.421Zm4.687-.785.017-.9L49.2,4.745h.879L47.763,6.964l-.4.335ZM45.352,10V2.58h.71V10Zm4.07,0L47.229,7.272l.466-.556L50.294,10Zm5.13,0V8.844l-.028-.2V6.711a1.358,1.358,0,0,0-.378-1.033,1.56,1.56,0,0,0-1.115-.359,2.777,2.777,0,0,0-.969.169,2.493,2.493,0,0,0-.78.449l-.316-.525a2.862,2.862,0,0,1,.96-.526A3.686,3.686,0,0,1,53.1,4.7a2.254,2.254,0,0,1,1.579.508,1.981,1.981,0,0,1,.554,1.534V10Zm-1.811.047a2.517,2.517,0,0,1-1.024-.191,1.509,1.509,0,0,1-.665-.538,1.4,1.4,0,0,1-.232-.794,1.468,1.468,0,0,1,.195-.747,1.373,1.373,0,0,1,.64-.544,2.888,2.888,0,0,1,1.2-.206h1.809v.53H52.877a1.579,1.579,0,0,0-1.06.27.875.875,0,0,0-.293.671.864.864,0,0,0,.351.724,1.568,1.568,0,0,0,.973.269,1.9,1.9,0,0,0,1.039-.274,1.608,1.608,0,0,0,.636-.791l.157.487a1.642,1.642,0,0,1-.692.83A2.329,2.329,0,0,1,52.741,10.047ZM57.162,10V2.58h.71V10ZM16.645,23V15.58h.71V23Zm5.981,0V21.844l-.028-.2V19.711a1.358,1.358,0,0,0-.378-1.033,1.56,1.56,0,0,0-1.115-.359,2.777,2.777,0,0,0-.969.169,2.493,2.493,0,0,0-.78.449l-.316-.525a2.862,2.862,0,0,1,.96-.526,3.686,3.686,0,0,1,1.175-.187,2.254,2.254,0,0,1,1.579.508,1.981,1.981,0,0,1,.554,1.534V23Zm-1.811.047a2.517,2.517,0,0,1-1.024-.191,1.509,1.509,0,0,1-.665-.538,1.4,1.4,0,0,1-.232-.794,1.468,1.468,0,0,1,.195-.747,1.373,1.373,0,0,1,.64-.544,2.888,2.888,0,0,1,1.2-.206h1.809v.53H20.951a1.579,1.579,0,0,0-1.06.27.875.875,0,0,0-.293.671.864.864,0,0,0,.351.724,1.568,1.568,0,0,0,.973.269,1.9,1.9,0,0,0,1.039-.274,1.608,1.608,0,0,0,.636-.791l.157.487a1.642,1.642,0,0,1-.692.83A2.329,2.329,0,0,1,20.815,23.047Zm6.66,1.94a4.521,4.521,0,0,1-1.378-.21,2.78,2.78,0,0,1-1.076-.6l.361-.542a2.72,2.72,0,0,0,.922.532,3.413,3.413,0,0,0,1.149.193,2.025,2.025,0,0,0,1.474-.468,1.96,1.96,0,0,0,.473-1.448v-1.3l.1-.9-.072-.906V17.745h.682v4.619a2.635,2.635,0,0,1-.666,1.987A2.748,2.748,0,0,1,27.475,24.987ZM27.347,22.8A2.783,2.783,0,0,1,26,22.471a2.443,2.443,0,0,1-.944-.9,2.725,2.725,0,0,1,0-2.659A2.412,2.412,0,0,1,26,18.018a2.818,2.818,0,0,1,1.352-.32,2.674,2.674,0,0,1,1.255.292,2.2,2.2,0,0,1,.893.86,3.07,3.07,0,0,1,0,2.783,2.234,2.234,0,0,1-.893.867A2.637,2.637,0,0,1,27.347,22.8Zm.068-.626a2.126,2.126,0,0,0,1.032-.244,1.8,1.8,0,0,0,.705-.68,2.088,2.088,0,0,0,0-2.006,1.791,1.791,0,0,0-.705-.673,2.319,2.319,0,0,0-2.059,0,1.783,1.783,0,0,0-.71.673,2.087,2.087,0,0,0,0,2.006,1.794,1.794,0,0,0,.71.68A2.133,2.133,0,0,0,27.415,22.17Zm4.676.83V17.745h.682v1.436L32.7,18.93a1.754,1.754,0,0,1,.741-.913,2.432,2.432,0,0,1,1.292-.318v.693l-.085-.008-.083,0a1.686,1.686,0,0,0-1.294.5,2.018,2.018,0,0,0-.472,1.432V23Zm3.933,0V17.75h.71V23Zm.36-6.41a.5.5,0,0,1-.37-.15.491.491,0,0,1-.15-.36.475.475,0,0,1,.15-.355.512.512,0,0,1,.37-.145.522.522,0,0,1,.37.14.459.459,0,0,1,.15.35.512.512,0,0,1-.145.37A.5.5,0,0,1,36.384,16.59Zm5.01,1.108a2.438,2.438,0,0,1,1.128.248,1.781,1.781,0,0,1,.758.748,2.585,2.585,0,0,1,.275,1.257V23h-.71V20.024a1.744,1.744,0,0,0-.414-1.262,1.545,1.545,0,0,0-1.163-.426,2.012,2.012,0,0,0-.977.227,1.543,1.543,0,0,0-.64.651,2.182,2.182,0,0,0-.223,1.027V23h-.71V17.745H39.4v1.442l-.111-.262a1.92,1.92,0,0,1,.8-.9A2.513,2.513,0,0,1,41.394,17.7Zm6.328,7.289a4.521,4.521,0,0,1-1.378-.21,2.78,2.78,0,0,1-1.076-.6l.361-.542a2.72,2.72,0,0,0,.922.532,3.413,3.413,0,0,0,1.149.193,2.025,2.025,0,0,0,1.474-.468,1.96,1.96,0,0,0,.473-1.448v-1.3l.1-.9-.072-.906V17.745h.682v4.619a2.635,2.635,0,0,1-.666,1.987A2.748,2.748,0,0,1,47.721,24.987ZM47.594,22.8a2.783,2.783,0,0,1-1.352-.325,2.443,2.443,0,0,1-.944-.9,2.725,2.725,0,0,1,0-2.659,2.412,2.412,0,0,1,.944-.894,2.818,2.818,0,0,1,1.352-.32,2.674,2.674,0,0,1,1.255.292,2.2,2.2,0,0,1,.893.86,3.07,3.07,0,0,1,0,2.783,2.234,2.234,0,0,1-.893.867A2.637,2.637,0,0,1,47.594,22.8Zm.068-.626a2.126,2.126,0,0,0,1.032-.244,1.8,1.8,0,0,0,.705-.68,2.088,2.088,0,0,0,0-2.006,1.791,1.791,0,0,0-.705-.673,2.319,2.319,0,0,0-2.059,0,1.783,1.783,0,0,0-.71.673,2.087,2.087,0,0,0,0,2.006,1.794,1.794,0,0,0,.71.68A2.133,2.133,0,0,0,47.662,22.17Z" transform="translate(871 287)" fill="#417da5"/></g></svg>