<svg xmlns="http://www.w3.org/2000/svg" viewBox="0 0 465.96 102.19"><defs><style>.a{fill:#fff;}.b{fill:none;stroke:#fff;stroke-miterlimit:10;stroke-width:2px;}</style></defs><circle class="a" cx="177.17" cy="41.41" r="2.45"/><path class="a" d="M39.75,39.05a13.71,13.71,0,0,0-27.27,0A13.71,13.71,0,0,0,14,66.42H26.11a7.66,7.66,0,1,0,0-15.31,4.47,4.47,0,0,1,0-8.94,4.42,4.42,0,0,1,3.13,1.3,1.59,1.59,0,0,0,2.3-2.21l0,0a7.66,7.66,0,1,0-5.42,13.05,4.47,4.47,0,0,1,0,8.94H14a10.53,10.53,0,1,1,0-21.06,1.6,1.6,0,0,0,1.59-1.6,10.53,10.53,0,0,1,21.06,0h0a1.6,1.6,0,0,0,1.6,1.6,10.53,10.53,0,1,1,0,21.06h0a1.6,1.6,0,1,0,0,3.19A13.72,13.72,0,0,0,39.75,39Z"/><path class="a" d="M70.66,56.19c-.78-.32-1.49-.55-2.51-.9-1.84-.59-3.64-1.26-3.64-2.78s1.18-2.31,3-2.31a6.76,6.76,0,0,1,4.7,2l1.57-2.32a8.15,8.15,0,0,0-6.34-2.42c-3.29,0-6.27,1.88-6.27,5.32a4.79,4.79,0,0,0,2.93,4.46,13.66,13.66,0,0,0,2.55,1c1.25.43,4.19,1.06,4.19,3.11S69,64,67.26,64a7.65,7.65,0,0,1-5.49-2.66L60,63.52a8.93,8.93,0,0,0,7.24,3.33,7.91,7.91,0,0,0,5.17-1.65A5.3,5.3,0,0,0,74.3,61a4.56,4.56,0,0,0-1.49-3.45A7.07,7.07,0,0,0,70.66,56.19Z"/><path class="a" d="M84.27,47.46a14.36,14.36,0,0,0-7,1.88l1.14,2.5a11.39,11.39,0,0,1,5.6-1.6c2.7,0,4.62,1.41,4.62,4.22v.75l-5,.2c-4.31.19-7.27,2-7.27,5.67s3,5.75,6.41,5.75a7.62,7.62,0,0,0,5.92-2.76l0,2.35h3.63V55.6c0-3.17-.74-4.74-2-6S87.36,47.46,84.27,47.46Zm4.43,14A5.86,5.86,0,0,1,84,64.17c-2.43,0-3.84-1.45-3.84-3.21s1.22-3.05,4.23-3.21l4.35-.27Z"/><path class="a" d="M114.22,47.46a9.23,9.23,0,0,0-9.43,9.63c0,5.87,3.79,9.74,9.31,9.74s8-2.74,8.18-2.93l-1.56-2.16a10.26,10.26,0,0,1-6.15,2.16c-3.45,0-5.79-2.23-6-5.91h14.33a15.26,15.26,0,0,0,.12-1.65A8.49,8.49,0,0,0,114.22,47.46Zm-5.6,8a5.47,5.47,0,0,1,5.49-5.32,5.39,5.39,0,0,1,5.36,5.32Z"/><path class="a" d="M135.06,56.19c-.78-.32-1.49-.55-2.5-.9-1.85-.59-3.64-1.26-3.64-2.78s1.17-2.31,3-2.31a6.81,6.81,0,0,1,4.7,2l1.57-2.32a8.13,8.13,0,0,0-6.34-2.42c-3.29,0-6.27,1.88-6.27,5.32a4.79,4.79,0,0,0,2.93,4.46,14.23,14.23,0,0,0,2.55,1c1.25.43,4.19,1.06,4.19,3.1S133.38,64,131.65,64a7.65,7.65,0,0,1-5.48-2.66l-1.81,2.19a8.94,8.94,0,0,0,7.25,3.32,7.89,7.89,0,0,0,5.16-1.64A5.28,5.28,0,0,0,138.69,61a4.56,4.56,0,0,0-1.49-3.44A6.87,6.87,0,0,0,135.06,56.19Z"/><path class="a" d="M151.1,47.46a7.86,7.86,0,0,0-6.59,3.29h-.08V47.81h-3.6V73.48h3.76v-10l0,0A7.23,7.23,0,0,0,151,66.83c5.52,0,9.05-4.22,9.05-9.74S156.58,47.46,151.1,47.46Zm-.78,16.16c-3.72,0-5.91-2.85-5.91-6.57s2.19-6.54,5.91-6.54,5.91,2.82,5.91,6.54S154,63.62,150.32,63.62Z"/><rect class="a" x="175.31" y="47.81" width="3.76" height="18.59"/><path class="a" d="M191.74,47.46a6.26,6.26,0,0,0-5.69,3.29h-.11l0-2.94h-3.76V66.42H186V57.05c0-3.56,1.29-6.5,4.77-6.5s3.88,2.35,3.88,5.49V66.42h3.75v-11C198.4,50.94,197,47.46,191.74,47.46Z"/><path class="a" d="M216,47.81l0,2.94H216a7.41,7.41,0,0,0-6.5-3.29c-4.77,0-9,3.44-9,9.35s4.19,9.36,9,9.36a7.45,7.45,0,0,0,6.5-3.33H216v.73a8.3,8.3,0,0,1-1.41,5.21,6.33,6.33,0,0,1-5.09,2,11.8,11.8,0,0,1-6.66-2.35l-1.76,2.62a14.31,14.31,0,0,0,8.29,2.78c4.62,0,6.93-1.88,8.31-3.57s2-3.92,2-8V47.81ZM210.25,63.1c-3.8,0-5.91-2.78-5.91-6.31s2.11-6.34,5.91-6.34,5.91,2.82,5.91,6.34-2.07,6.33-5.91,6.33Z"/><path class="a" d="M96.83,41c-.79,1-1.26,2.54-1.26,5V66.42h3.72V50.86h4.42v-3H99.29V45.78c0-2.12.39-4,2.86-4a7.59,7.59,0,0,1,1.57.2V39.18a12.41,12.41,0,0,0-2.43-.22A5.61,5.61,0,0,0,96.83,41Z"/><path class="a" d="M166,50.67h-.12l0-2.86h-3.76V66.42h3.76V57.13a8.34,8.34,0,0,1,1.13-4.71,3.92,3.92,0,0,1,3.06-1.56,4.71,4.71,0,0,1,2,.39V47.64a5.85,5.85,0,0,0-1.56-.19A4.87,4.87,0,0,0,166,50.67Z"/><line class="b" x1="281.43" y1="0.35" x2="243.91" y2="101.85"/><path class="a" d="M458.74,46.07a12.77,12.77,0,0,1,3.83.45,6.2,6.2,0,0,1,1.75.76,1.31,1.31,0,0,1,.62,1.38A4.42,4.42,0,0,1,463.83,51a.86.86,0,0,1-1,.26l-.66-.26a9.64,9.64,0,0,0-2.23-.58,4.67,4.67,0,0,0-2.28.26,1.88,1.88,0,0,0-.85,3.09,3.22,3.22,0,0,0,1.16.94c.6.3,1.21.59,1.82.85s1.38.53,2,.83a14.61,14.61,0,0,1,1.51.81,5.2,5.2,0,0,1,2.48,3.72,7.41,7.41,0,0,1-.55,4.52,6.94,6.94,0,0,1-4.44,3.67,10.69,10.69,0,0,1-4.16.51,14.64,14.64,0,0,1-3.47-.58,13.48,13.48,0,0,1-1.76-.71,4.78,4.78,0,0,1-1-.73,1.25,1.25,0,0,1-.32-1.38,5.12,5.12,0,0,1,1.19-2,1,1,0,0,1,1.28-.28c.27.13.56.23.82.37a8.88,8.88,0,0,0,2.89.83,5.34,5.34,0,0,0,2.28-.22,2.28,2.28,0,0,0,.84-3.88,5.37,5.37,0,0,0-1.26-.8c-.73-.33-1.5-.58-2.25-.88s-1.38-.53-2-.86a5.64,5.64,0,0,1-3.29-5.34,7.69,7.69,0,0,1,.21-2.19,6.22,6.22,0,0,1,3.09-3.91,7.91,7.91,0,0,1,3.75-1Z"/><path class="a" d="M441.3,66.54c-.21.17-.38.27-.52.4a9,9,0,0,1-5.54,2.58,8.28,8.28,0,0,1-4.41-.74,5.14,5.14,0,0,1-2.68-3.23,8,8,0,0,1-.43-2.57V48.49c0-.33,0-.67,0-1a1,1,0,0,1,.68-.92,3.56,3.56,0,0,1,1.06-.25c.71,0,1.41,0,2.12,0a2.89,2.89,0,0,1,.59.08,1.29,1.29,0,0,1,1.15,1.42c0,.3,0,.6,0,.91V61.09a11.94,11.94,0,0,0,0,1.2,2.76,2.76,0,0,0,2.36,2.63,4.61,4.61,0,0,0,3.77-1,4.09,4.09,0,0,0,.38-.33C441,62.6,441,62.53,441,61V48.75c0-.37,0-.74,0-1.11a1.26,1.26,0,0,1,.94-1.17c.1,0,.19-.07.29-.09a10.1,10.1,0,0,1,3.2,0c.95.17,1.17.64,1.15,1.38,0,.3,0,.61,0,.91,0,4.52,0,9.05,0,13.58a28.79,28.79,0,0,0,.43,4.9c0,.2.08.39.1.59a.79.79,0,0,1-.38.77,3.11,3.11,0,0,1-.64.3,9.29,9.29,0,0,1-2.87.43,1.33,1.33,0,0,1-1.32-.89c-.16-.41-.26-.83-.4-1.25C441.51,67,441.41,66.78,441.3,66.54Z"/><path class="a" d="M409.28,68.26c0,.37,0,.73,0,1.1,0,2.21,0,4.42,0,6.63,0,.27,0,.54,0,.81a1.21,1.21,0,0,1-1.05,1.37,2.69,2.69,0,0,1-.69.11c-.67,0-1.34,0-2,0a3.64,3.64,0,0,1-.79-.14,1.29,1.29,0,0,1-1.07-1.28c0-.37,0-.74,0-1.11q0-10.55,0-21.11c0-.84,0-1.68,0-2.51a18.06,18.06,0,0,0-.3-3.2c0-.16-.07-.33-.09-.49-.11-.89,0-1.17.85-1.46a9.11,9.11,0,0,1,3.06-.48,1.24,1.24,0,0,1,1.19.77,9,9,0,0,1,.36.94l.26.7c.36.07.46-.19.61-.35a7.64,7.64,0,0,1,4.24-2.34,7.49,7.49,0,0,1,7.85,3.08,10.2,10.2,0,0,1,1.6,3.34,18.77,18.77,0,0,1,0,10,9.7,9.7,0,0,1-2.63,4.55,8.09,8.09,0,0,1-4.53,2.21,9.25,9.25,0,0,1-6.2-1.12,1.71,1.71,0,0,0-.38-.13Zm9-10.53c-.12-.92-.24-2.12-.45-3.3a5.6,5.6,0,0,0-.9-2.22,3.66,3.66,0,0,0-4.05-1.52,6.07,6.07,0,0,0-3,1.91,2.06,2.06,0,0,0-.63,1.53c0,.9,0,1.81,0,2.71,0,2,0,4,0,6a1.5,1.5,0,0,0,1,1.56,8.55,8.55,0,0,0,2.41.66,4.38,4.38,0,0,0,4.81-2.66,7.09,7.09,0,0,0,.36-1A20.66,20.66,0,0,0,418.26,57.73Z"/><path class="a" d="M371.76,49.13c.35-.3.58-.49.8-.69A9.25,9.25,0,0,1,374.7,47a8.72,8.72,0,0,1,6.46-.54,5.11,5.11,0,0,1,2.94,2.15c.15.21.32.42.46.61.43,0,.62-.35.85-.57a9,9,0,0,1,4.28-2.33,8.73,8.73,0,0,1,4.28.07,5.38,5.38,0,0,1,4.11,4.46,12.64,12.64,0,0,1,.24,2.3c0,4.73,0,9.45,0,14.18,0,.27,0,.54,0,.8a1.14,1.14,0,0,1-.84,1,2.64,2.64,0,0,1-.68.13h-2.52a2.71,2.71,0,0,1-.69-.13,1.15,1.15,0,0,1-.82-1c0-.33,0-.67,0-1V54.82c0-.4,0-.81,0-1.21-.07-2.28-1.59-3.06-3.36-3a4.83,4.83,0,0,0-3.83,2.29,1.68,1.68,0,0,0-.26.74,8.47,8.47,0,0,0,0,1q0,6.23,0,12.47c0,.33,0,.67,0,1a1.07,1.07,0,0,1-.77,1,3.12,3.12,0,0,1-.78.17q-1.26,0-2.52,0a2.66,2.66,0,0,1-.78-.17,1.05,1.05,0,0,1-.73-1c0-.33,0-.67,0-1,0-4.19,0-8.38,0-12.57a9.42,9.42,0,0,0-.13-1.6,2.63,2.63,0,0,0-2.26-2.24A4.92,4.92,0,0,0,372.26,53a2.29,2.29,0,0,0-.23.86,8.35,8.35,0,0,0,0,1V67.07c0,.3,0,.61,0,.91a1.13,1.13,0,0,1-.91,1.17,2,2,0,0,1-.59.1c-.84,0-1.68,0-2.51,0a2.35,2.35,0,0,1-.69-.14,1.18,1.18,0,0,1-.9-1.19c0-.33,0-.67,0-1V53.24a25.47,25.47,0,0,0-.37-4.7c-.19-1,0-1.28.92-1.59a9.61,9.61,0,0,1,2.87-.44,1.34,1.34,0,0,1,1.38,1c.13.31.21.64.32.95S371.63,48.78,371.76,49.13Z"/><path class="a" d="M354.71,59.62h-5.33c-1.14,0-1.22.11-1,1.23a7.72,7.72,0,0,0,.38,1.35,4.22,4.22,0,0,0,2.84,2.64,7.77,7.77,0,0,0,3.18.32,12.45,12.45,0,0,0,4-1.07c.18-.09.37-.15.55-.24a1.11,1.11,0,0,1,1.44.33,5.16,5.16,0,0,1,1.07,1.8,1.37,1.37,0,0,1-.47,1.62,6,6,0,0,1-2.14,1.09,28.84,28.84,0,0,1-3,.69,16.06,16.06,0,0,1-5.7-.14,14.16,14.16,0,0,1-1.55-.41,8.65,8.65,0,0,1-5.68-5.43,12.93,12.93,0,0,1-.84-4.22,18.76,18.76,0,0,1,.42-5.49,15.72,15.72,0,0,1,.61-1.91,8.52,8.52,0,0,1,5.09-5,10.71,10.71,0,0,1,3.44-.7,15.78,15.78,0,0,1,3.5.17,8,8,0,0,1,6,4.7A13.91,13.91,0,0,1,362.7,57,2.83,2.83,0,0,1,361,59.47a2.09,2.09,0,0,1-1,.15c-1.77,0-3.55,0-5.33,0Zm-2.08-3.86c.84,0,1.67,0,2.51,0,.4,0,.81,0,1.21,0,.61,0,.76-.18.73-.81a5.64,5.64,0,0,0-.78-2.77,3.15,3.15,0,0,0-2-1.56,5,5,0,0,0-3.16.21,3.9,3.9,0,0,0-1.17.75,6.05,6.05,0,0,0-1.65,3.69.4.4,0,0,0,.4.47,7.22,7.22,0,0,0,.8,0C350.55,55.77,351.59,55.76,352.63,55.76Z"/><path class="a" d="M328.35,56c0-3.69,0-7.37,0-11.06a8.27,8.27,0,0,0,0-1,.42.42,0,0,0-.39-.4c-.3,0-.6-.05-.9-.05h-5.33c-.27,0-.54,0-.81,0a1.13,1.13,0,0,1-1.25-1.06,6.41,6.41,0,0,1,0-2.79c.16-.71.47-.93,1.21-1H341c.34,0,.68,0,1,0a.92.92,0,0,1,.89.69,5.78,5.78,0,0,1,0,3.37,1,1,0,0,1-.89.72,6.78,6.78,0,0,1-.9,0H335.6c-1.25,0-1.28,0-1.28,1.32v22c0,.36,0,.73,0,1.1a1.17,1.17,0,0,1-.91,1.18,3,3,0,0,1-.79.15c-.83,0-1.67,0-2.51,0a4,4,0,0,1-.5-.06,1.33,1.33,0,0,1-1.24-1.45c0-.3,0-.6,0-.91Z"/></svg>