<svg xmlns="http://www.w3.org/2000/svg" xmlns:xlink="http://www.w3.org/1999/xlink" width="432" height="285" viewBox="0 0 432 285"><defs><style>.cls-1{fill:none}.cls-2{fill:#fff}.cls-3{isolation:isolate}.cls-4{fill:#195f8c}.cls-5{clip-path:url(#clip-path)}.cls-6{fill:#32cd32}.cls-7{clip-path:url(#clip-path-2)}.cls-8{fill:#3c9bcd}.cls-9{fill:#fa690f}.cls-10{filter:url(#Rectangle_18)}.cls-11{filter:url(#Rectangle_17)}.cls-12{filter:url(#Rectangle_16)}.cls-13{filter:url(#Rectangle_15)}.cls-14{filter:url(#Rectangle_14)}.cls-15{filter:url(#Rectangle_13)}</style><filter id="Rectangle_13" width="144" height="144" x="0" y="0" filterUnits="userSpaceOnUse"><feOffset dy="3"/><feGaussianBlur result="blur" stdDeviation="3"/><feFlood flood-opacity="0.161"/><feComposite in2="blur" operator="in"/><feComposite in="SourceGraphic"/></filter><filter id="Rectangle_14" width="144" height="144" x="144" y="0" filterUnits="userSpaceOnUse"><feOffset dy="3"/><feGaussianBlur result="blur-2" stdDeviation="3"/><feFlood flood-opacity="0.161"/><feComposite in2="blur-2" operator="in"/><feComposite in="SourceGraphic"/></filter><filter id="Rectangle_15" width="144" height="144" x="288" y="141" filterUnits="userSpaceOnUse"><feOffset dy="3"/><feGaussianBlur result="blur-3" stdDeviation="3"/><feFlood flood-opacity="0.161"/><feComposite in2="blur-3" operator="in"/><feComposite in="SourceGraphic"/></filter><filter id="Rectangle_16" width="144" height="144" x="144" y="141" filterUnits="userSpaceOnUse"><feOffset dy="3"/><feGaussianBlur result="blur-4" stdDeviation="3"/><feFlood flood-opacity="0.161"/><feComposite in2="blur-4" operator="in"/><feComposite in="SourceGraphic"/></filter><filter id="Rectangle_17" width="144" height="144" x="0" y="141" filterUnits="userSpaceOnUse"><feOffset dy="3"/><feGaussianBlur result="blur-5" stdDeviation="3"/><feFlood flood-opacity="0.161"/><feComposite in2="blur-5" operator="in"/><feComposite in="SourceGraphic"/></filter><filter id="Rectangle_18" width="144" height="144" x="288" y="0" filterUnits="userSpaceOnUse"><feOffset dy="3"/><feGaussianBlur result="blur-6" stdDeviation="3"/><feFlood flood-opacity="0.161"/><feComposite in2="blur-6" operator="in"/><feComposite in="SourceGraphic"/></filter><clipPath id="clip-path"><path id="Rectangle_19" d="M0 0h51v51H0z" class="cls-1" transform="translate(658.352 270.711)"/></clipPath><clipPath id="clip-path-2"><path id="Rectangle_20" d="M0 0h51v51H0z" class="cls-1" transform="translate(514.852 269.704)"/></clipPath></defs><g id="Lager_1" transform="translate(-467.352 -244.711)"><g id="Compute"><g id="Group_27"><g class="cls-15" transform="translate(467.35 244.71)"><rect id="Rectangle_13-2" width="126" height="126" class="cls-2" rx="7" transform="translate(9 6)"/></g><g class="cls-14" transform="translate(467.35 244.71)"><rect id="Rectangle_14-2" width="126" height="126" class="cls-2" rx="7" transform="translate(153 6)"/></g><g class="cls-13" transform="translate(467.35 244.71)"><rect id="Rectangle_15-2" width="126" height="126" class="cls-2" rx="7" transform="translate(297 147)"/></g><g class="cls-12" transform="translate(467.35 244.71)"><rect id="Rectangle_16-2" width="126" height="126" class="cls-2" rx="7" transform="translate(153 147)"/></g><g class="cls-11" transform="translate(467.35 244.71)"><rect id="Rectangle_17-2" width="126" height="126" class="cls-2" rx="7" transform="translate(9 147)"/></g><g class="cls-10" transform="translate(467.35 244.71)"><rect id="Rectangle_18-2" width="126" height="126" class="cls-2" rx="7" transform="translate(297 6)"/></g></g><g id="No_vendor_Lock-in" class="cls-3"><g id="Group_10" class="cls-3"><path id="Path_1" d="M657.85 335.72v7h-1.33l-3.49-4.25v4.25h-1.6v-7h1.34l3.48 4.25v-4.25Z" class="cls-4"/><path id="Path_2" d="M660.94 342.38a3.5 3.5 0 0 1-1.37-1.3 3.7 3.7 0 0 1 0-3.72 3.5 3.5 0 0 1 1.37-1.3 4.3 4.3 0 0 1 3.92 0 3.57 3.57 0 0 1 0 6.3 4.3 4.3 0 0 1-3.92 0Zm3.08-1.2a2 2 0 0 0 .79-.8 2.5 2.5 0 0 0 0-2.32 2 2 0 0 0-.79-.8 2.3 2.3 0 0 0-2.24 0 2 2 0 0 0-.78.8 2.5 2.5 0 0 0 0 2.32 2 2 0 0 0 .78.8 2.3 2.3 0 0 0 2.24 0" class="cls-4"/><path id="Path_3" d="m677.51 335.72-3.03 7h-1.6l-3.02-7h1.75l2.13 5 2.16-5Z" class="cls-4"/><path id="Path_4" d="M683.51 341.42v1.3h-5.42v-7h5.3v1.3h-3.69v1.52h3.25v1.26h-3.25v1.62Z" class="cls-4"/><path id="Path_5" d="M691.22 335.72v7h-1.33l-3.49-4.25v4.25h-1.6v-7h1.34l3.48 4.25v-4.25Z" class="cls-4"/><path id="Path_6" d="M692.88 335.72h3.18a4.5 4.5 0 0 1 2.02.44 3.3 3.3 0 0 1 1.36 1.22 3.7 3.7 0 0 1 0 3.68 3.3 3.3 0 0 1-1.36 1.23 4.5 4.5 0 0 1-2.02.43h-3.18Zm3.1 5.67a2.4 2.4 0 0 0 1.68-.58 2.3 2.3 0 0 0 0-3.17 2.4 2.4 0 0 0-1.68-.59h-1.48v4.34Z" class="cls-4"/><path id="Path_7" d="M702.57 342.38a3.5 3.5 0 0 1-1.37-1.3 3.7 3.7 0 0 1 0-3.72 3.5 3.5 0 0 1 1.37-1.3 4.3 4.3 0 0 1 3.92 0 3.57 3.57 0 0 1 0 6.3 4.3 4.3 0 0 1-3.92 0Zm3.08-1.2a2 2 0 0 0 .79-.8 2.5 2.5 0 0 0 0-2.32 2 2 0 0 0-.79-.8 2.3 2.3 0 0 0-2.24 0 2 2 0 0 0-.78.8 2.5 2.5 0 0 0 0 2.32 2 2 0 0 0 .78.8 2.3 2.3 0 0 0 2.24 0" class="cls-4"/><path id="Path_8" d="m714.04 342.72-1.35-1.95h-1.49v1.95h-1.62v-7h3.03a4 4 0 0 1 1.62.31 2.4 2.4 0 0 1 1.05.89 2.4 2.4 0 0 1 .37 1.34 2.3 2.3 0 0 1-1.44 2.21l1.57 2.25Zm-.4-5.36a1.7 1.7 0 0 0-1.12-.32h-1.32v2.44h1.32a1.7 1.7 0 0 0 1.11-.32 1.26 1.26 0 0 0 0-1.8Z" class="cls-4"/></g><g id="Group_11" class="cls-3"><path id="Path_9" d="M662.2 348.72h1.63v5.68h3.5v1.32h-5.12Z" class="cls-4"/><path id="Path_10" d="M669.55 355.38a3.5 3.5 0 0 1-1.37-1.3 3.7 3.7 0 0 1 0-3.72 3.5 3.5 0 0 1 1.37-1.3 4.3 4.3 0 0 1 3.93 0 3.57 3.57 0 0 1 0 6.3 4.3 4.3 0 0 1-3.93 0Zm3.09-1.2a2 2 0 0 0 .78-.8 2.5 2.5 0 0 0 0-2.32 2 2 0 0 0-.78-.8 2.3 2.3 0 0 0-2.24 0 2 2 0 0 0-.79.8 2.5 2.5 0 0 0 0 2.32 2 2 0 0 0 .79.8 2.3 2.3 0 0 0 2.24 0" class="cls-4"/><path id="Path_11" d="M677.98 355.38a3.5 3.5 0 0 1-1.36-1.3 3.8 3.8 0 0 1 0-3.72 3.5 3.5 0 0 1 1.36-1.3 4.3 4.3 0 0 1 3.6-.14 3 3 0 0 1 1.23.92l-1.04.96a2.2 2.2 0 0 0-1.76-.82 2.4 2.4 0 0 0-1.16.29 2 2 0 0 0-.8.8 2.5 2.5 0 0 0 0 2.31 2 2 0 0 0 .8.8 2.3 2.3 0 0 0 1.16.28 2.2 2.2 0 0 0 1.76-.83l1.04.96a3 3 0 0 1-1.24.93 4 4 0 0 1-1.65.32 4 4 0 0 1-1.94-.46" class="cls-4"/><path id="Path_12" d="m686.45 352.97-.94.98v1.77h-1.61v-7h1.61V352l3.1-3.27h1.8l-2.9 3.12 3.07 3.88h-1.89Z" class="cls-4"/><path id="Path_13" d="M690.63 352.28h2.83v1.25h-2.83Z" class="cls-4"/><path id="Path_14" d="M694.8 348.72h1.62v7h-1.62Z" class="cls-4"/><path id="Path_15" d="M704.5 348.72v7h-1.33l-3.49-4.25v4.25h-1.6v-7h1.34l3.48 4.25v-4.25Z" class="cls-4"/></g></g><g id="Group_13"><g id="Group_12" class="cls-5"><g id="Group_2"><g id="lock-open-solid"><path id="Path_16" d="M696.2 276.8a11.6 11.6 0 0 0-11.48 11.64v5.34h-16.98a3.64 3.64 0 0 0-3.64 3.64v14.56a3.64 3.64 0 0 0 3.64 3.64h26.68a3.64 3.64 0 0 0 3.64-3.64v-14.56a3.64 3.64 0 0 0-3.64-3.64h-3.64v-5.39a5.46 5.46 0 0 1 10.92-.06v6.06a1.8 1.8 0 0 0 1.81 1.82h2.43a1.8 1.8 0 0 0 1.82-1.81v-6.07a11.54 11.54 0 0 0-11.55-11.52Z" class="cls-4"/></g></g></g></g><g id="Data_sovereignty" class="cls-3"><g id="Group_14" class="cls-3"><path id="Path_17" d="M524.79 334.72h3.18a4.5 4.5 0 0 1 2.01.43 3.3 3.3 0 0 1 1.36 1.23 3.7 3.7 0 0 1 0 3.68 3.3 3.3 0 0 1-1.36 1.22 4.5 4.5 0 0 1-2.01.44h-3.18Zm3.1 5.67a2.4 2.4 0 0 0 1.67-.59 2.3 2.3 0 0 0 0-3.17 2.4 2.4 0 0 0-1.67-.58h-1.48v4.34Z" class="cls-6"/><path id="Path_18" d="M537.56 340.22h-3.25l-.62 1.5h-1.66l3.12-7h1.6l3.13 7h-1.7Zm-.51-1.23-1.11-2.68-1.11 2.68Z" class="cls-6"/><path id="Path_19" d="M541.7 336.04h-2.23v-1.32h6.1v1.32h-2.24v5.68h-1.62Z" class="cls-6"/><path id="Path_20" d="M550.7 340.22h-3.25l-.62 1.5h-1.66l3.12-7h1.6l3.13 7h-1.7Zm-.51-1.23-1.11-2.68-1.11 2.68Z" class="cls-6"/></g><g id="Group_15" class="cls-3"><path id="Path_21" d="M504.1 354.61a4 4 0 0 1-1.25-.58l.55-1.22a4 4 0 0 0 1.08.53 4 4 0 0 0 1.24.2 2 2 0 0 0 1.02-.2.6.6 0 0 0 .33-.55.5.5 0 0 0-.2-.42 2 2 0 0 0-.5-.26q-.3-.1-.82-.22a11 11 0 0 1-1.31-.38 2 2 0 0 1-.88-.61 1.7 1.7 0 0 1-.36-1.12 2 2 0 0 1 .33-1.1 2 2 0 0 1 .99-.8 4 4 0 0 1 1.63-.28 5 5 0 0 1 1.3.16 4 4 0 0 1 1.12.46l-.5 1.23a4 4 0 0 0-1.94-.55 2 2 0 0 0-1 .22.7.7 0 0 0-.32.58.6.6 0 0 0 .37.53 6 6 0 0 0 1.15.35 11 11 0 0 1 1.3.38 2 2 0 0 1 .88.6 1.6 1.6 0 0 1 .37 1.1 2 2 0 0 1-.34 1.1 2.3 2.3 0 0 1-1 .8 4 4 0 0 1-1.63.28 6 6 0 0 1-1.61-.23" class="cls-6"/><path id="Path_22" d="M511.21 354.37a3.5 3.5 0 0 1-1.37-1.3 3.7 3.7 0 0 1 0-3.7 3.5 3.5 0 0 1 1.37-1.3 4.3 4.3 0 0 1 3.93 0 3.57 3.57 0 0 1 0 6.3 4.3 4.3 0 0 1-3.93 0m3.09-1.2a2 2 0 0 0 .78-.8 2.5 2.5 0 0 0 0-2.32 2 2 0 0 0-.78-.8 2.3 2.3 0 0 0-2.24 0 2 2 0 0 0-.79.8 2.5 2.5 0 0 0 0 2.32 2 2 0 0 0 .79.8 2.3 2.3 0 0 0 2.24 0" class="cls-6"/><path id="Path_23" d="m524.73 347.72-3.03 7h-1.6l-3.02-7h1.75l2.13 5 2.16-5Z" class="cls-6"/><path id="Path_24" d="M530.73 353.42v1.3h-5.42v-7h5.29v1.3h-3.68v1.52h3.25v1.26h-3.25v1.62Z" class="cls-6"/><path id="Path_25" d="m536.48 354.72-1.35-1.95h-1.5v1.95h-1.61v-7h3.03a4 4 0 0 1 1.61.3 2.4 2.4 0 0 1-.01 4.45l1.57 2.25Zm-.41-5.37a1.7 1.7 0 0 0-1.11-.31h-1.32v2.44h1.32a1.7 1.7 0 0 0 1.1-.32 1.26 1.26 0 0 0 0-1.8" class="cls-6"/><path id="Path_26" d="M544.79 353.42v1.3h-5.42v-7h5.29v1.3h-3.68v1.52h3.25v1.26h-3.25v1.62Z" class="cls-6"/><path id="Path_27" d="M546.08 347.72h1.62v7h-1.62Z" class="cls-6"/><path id="Path_28" d="M554.09 351.1h1.48v2.85a4 4 0 0 1-1.32.66 5 5 0 0 1-1.51.23 4 4 0 0 1-1.96-.47 3.5 3.5 0 0 1-1.37-1.29 3.8 3.8 0 0 1 0-3.73 3.5 3.5 0 0 1 1.38-1.29 4 4 0 0 1 1.98-.46 4 4 0 0 1 1.67.3 3 3 0 0 1 1.26.9l-1.04.97a2.4 2.4 0 0 0-1.81-.8 2.5 2.5 0 0 0-1.2.29 2 2 0 0 0-.8.79 2.3 2.3 0 0 0-.3 1.17 2.3 2.3 0 0 0 .3 1.16 2 2 0 0 0 .8.8 2.4 2.4 0 0 0 1.17.28 3 3 0 0 0 1.26-.3Z" class="cls-6"/><path id="Path_29" d="M563.49 347.72v7h-1.33l-3.5-4.25v4.25h-1.6v-7h1.35l3.48 4.25v-4.25Z" class="cls-6"/><path id="Path_30" d="M566.6 349.04h-2.24v-1.32h6.1v1.32h-2.24v5.68h-1.62Z" class="cls-6"/><path id="Path_31" d="M574.56 352.24v2.48h-1.62v-2.5l-2.71-4.5h1.72l1.87 3.1 1.87-3.1h1.59Z" class="cls-6"/></g></g><g id="Group_17"><g id="Group_16" class="cls-7"><g id="Mask_Group_3"><g id="user-lock-solid"><path id="Path_32" d="M532.7 295.2a10.2 10.2 0 1 0-10.2-10.2 10.2 10.2 0 0 0 10.2 10.2m7.65 5.1a5 5 0 0 1 .65-2.43 11 11 0 0 0-1.16-.12h-1.33a14 14 0 0 1-11.62 0h-1.33a10.7 10.7 0 0 0-10.71 10.7v3.33a3.83 3.83 0 0 0 3.82 3.82h22.39a5 5 0 0 1-.71-2.55Zm22.95-2.55h-2.55v-6.37a6.38 6.38 0 0 0-12.75 0v6.37h-2.55a2.55 2.55 0 0 0-2.55 2.55v12.75a2.55 2.55 0 0 0 2.55 2.55h17.85a2.55 2.55 0 0 0 2.55-2.55V300.3a2.55 2.55 0 0 0-2.55-2.55m-8.92 11.48a2.55 2.55 0 1 1 2.55-2.55 2.55 2.55 0 0 1-2.55 2.55m2.55-11.48h-5.1v-6.37a2.55 2.55 0 0 1 5.1 0Z" class="cls-6"/></g></g></g></g><g id="OPEN_SOURCE" class="cls-3"><g id="Group_18" class="cls-3"><path id="Path_33" d="M524.97 483.38a3.5 3.5 0 0 1-1.37-1.3 3.7 3.7 0 0 1 0-3.72 3.5 3.5 0 0 1 1.37-1.3 4.3 4.3 0 0 1 3.92 0 3.57 3.57 0 0 1 0 6.3 4.3 4.3 0 0 1-3.92 0Zm3.08-1.2a2 2 0 0 0 .79-.8 2.5 2.5 0 0 0 0-2.32 2 2 0 0 0-.79-.8 2.3 2.3 0 0 0-2.24 0 2 2 0 0 0-.78.8 2.5 2.5 0 0 0 0 2.32 2 2 0 0 0 .78.8 2.3 2.3 0 0 0 2.24 0" class="cls-8"/><path id="Path_34" d="M536.63 477.03a2.4 2.4 0 0 1 1.05.89 2.6 2.6 0 0 1 0 2.69 2.4 2.4 0 0 1-1.05.88 4 4 0 0 1-1.62.3h-1.41v1.93h-1.62v-7h3.03a4 4 0 0 1 1.62.31m-.6 3.13a1.1 1.1 0 0 0 .38-.9 1.1 1.1 0 0 0-.38-.9 1.7 1.7 0 0 0-1.11-.32h-1.32v2.43h1.32a1.7 1.7 0 0 0 1.11-.31" class="cls-8"/><path id="Path_35" d="M544.62 482.43v1.3h-5.42v-7h5.29v1.3h-3.68v1.52h3.25v1.26h-3.25v1.62Z" class="cls-8"/><path id="Path_36" d="M552.33 476.73v7H551l-3.49-4.25v4.25h-1.6v-7h1.34l3.48 4.25v-4.25Z" class="cls-8"/></g><g id="Group_19" class="cls-3"><path id="Path_37" d="M518.83 496.62a4 4 0 0 1-1.24-.59l.55-1.22a4 4 0 0 0 1.07.54 4 4 0 0 0 1.24.2 2 2 0 0 0 1.02-.21.6.6 0 0 0 .33-.54.5.5 0 0 0-.2-.42 2 2 0 0 0-.5-.27q-.3-.1-.83-.22a11 11 0 0 1-1.3-.38 2 2 0 0 1-.88-.6 1.7 1.7 0 0 1-.37-1.13 2 2 0 0 1 .33-1.1 2 2 0 0 1 1-.78 4 4 0 0 1 1.62-.3 5 5 0 0 1 1.31.17 4 4 0 0 1 1.12.46l-.5 1.23a4 4 0 0 0-1.94-.55 2 2 0 0 0-1 .22.7.7 0 0 0-.33.58.6.6 0 0 0 .38.53 6 6 0 0 0 1.14.35 11 11 0 0 1 1.31.38 2 2 0 0 1 .88.6 1.6 1.6 0 0 1 .36 1.11 2 2 0 0 1-.33 1.1 2.3 2.3 0 0 1-1 .79 4 4 0 0 1-1.64.29 6 6 0 0 1-1.6-.24" class="cls-8"/><path id="Path_38" d="M525.94 496.38a3.5 3.5 0 0 1-1.37-1.3 3.7 3.7 0 0 1 0-3.72 3.5 3.5 0 0 1 1.37-1.3 4.3 4.3 0 0 1 3.93 0 3.57 3.57 0 0 1 0 6.3 4.3 4.3 0 0 1-3.93 0Zm3.09-1.2a2 2 0 0 0 .78-.8 2.5 2.5 0 0 0 0-2.32 2 2 0 0 0-.78-.8 2.3 2.3 0 0 0-2.24 0 2 2 0 0 0-.79.8 2.5 2.5 0 0 0 0 2.32 2 2 0 0 0 .79.8 2.3 2.3 0 0 0 2.24 0" class="cls-8"/><path id="Path_39" d="M533.73 496.02a3.2 3.2 0 0 1-.83-2.37v-3.92h1.62v3.85q0 1.88 1.56 1.88a1.5 1.5 0 0 0 1.16-.45 2 2 0 0 0 .4-1.42v-3.86h1.6v3.91a3.31 3.31 0 0 1-5.5 2.37" class="cls-8"/><path id="Path_40" d="m545.3 496.73-1.35-1.96h-1.49v1.96h-1.62v-7h3.03a4 4 0 0 1 1.61.3 2.4 2.4 0 0 1 1.06.89 2.4 2.4 0 0 1 .37 1.35 2.3 2.3 0 0 1-1.44 2.2l1.57 2.25Zm-.41-5.37a1.7 1.7 0 0 0-1.11-.31h-1.32v2.43h1.32a1.7 1.7 0 0 0 1.11-.31 1.26 1.26 0 0 0 0-1.81" class="cls-8"/><path id="Path_41" d="M549.6 496.38a3.5 3.5 0 0 1-1.36-1.29 3.8 3.8 0 0 1 0-3.73 3.5 3.5 0 0 1 1.36-1.3 4.3 4.3 0 0 1 3.59-.14 3 3 0 0 1 1.24.92l-1.04.96a2.2 2.2 0 0 0-1.76-.82 2.3 2.3 0 0 0-1.16.29 2 2 0 0 0-.8.8 2.5 2.5 0 0 0 0 2.31 2 2 0 0 0 .8.8 2.4 2.4 0 0 0 1.16.28 2.2 2.2 0 0 0 1.76-.83l1.04.96a3 3 0 0 1-1.24.93 4 4 0 0 1-1.65.32 4 4 0 0 1-1.94-.46" class="cls-8"/><path id="Path_42" d="M560.94 495.43v1.3h-5.42v-7h5.29v1.3h-3.68v1.52h3.25v1.26h-3.25v1.62Z" class="cls-8"/></g></g><g id="Group_3"><g id="code-solid"><path id="Path_43" d="m535.76 462.66-6.08-1.76a1.2 1.2 0 0 1-.82-1.49l13.6-46.84a1.2 1.2 0 0 1 1.49-.81l6.08 1.76a1.2 1.2 0 0 1 .81 1.48l-13.6 46.84a1.2 1.2 0 0 1-1.48.82m-11.36-11.18 4.33-4.62a1.2 1.2 0 0 0-.06-1.7l-.02-.02-9.02-7.93 9.03-7.94a1.2 1.2 0 0 0 .11-1.67l-.03-.04-4.34-4.63a1.2 1.2 0 0 0-1.7-.05l-14.34 13.45a1.2 1.2 0 0 0-.07 1.68l.07.06 14.35 13.46a1.2 1.2 0 0 0 1.68-.04zm32.6.06 14.35-13.45a1.2 1.2 0 0 0 .07-1.68l-.07-.07L557 422.87a1.2 1.2 0 0 0-1.7.05l-4.33 4.63a1.2 1.2 0 0 0 .07 1.7l.01.01 9.03 7.95-9.03 7.94a1.2 1.2 0 0 0-.11 1.68l.03.03 4.34 4.63a1.2 1.2 0 0 0 1.69.05" class="cls-8"/></g></g><g id="OPEN_STANDARDS" class="cls-3"><g id="Group_20" class="cls-3"><path id="Path_44" d="M670.38 483.38a3.5 3.5 0 0 1-1.37-1.3 3.7 3.7 0 0 1 0-3.72 3.5 3.5 0 0 1 1.37-1.3 4.3 4.3 0 0 1 3.93 0 3.57 3.57 0 0 1 0 6.3 4.3 4.3 0 0 1-3.93 0Zm3.09-1.2a2 2 0 0 0 .78-.8 2.5 2.5 0 0 0 0-2.32 2 2 0 0 0-.78-.8 2.3 2.3 0 0 0-2.24 0 2 2 0 0 0-.79.8 2.5 2.5 0 0 0 0 2.32 2 2 0 0 0 .79.8 2.3 2.3 0 0 0 2.24 0" class="cls-9"/><path id="Path_45" d="M682.04 477.03a2.4 2.4 0 0 1 1.06.89 2.6 2.6 0 0 1 0 2.69 2.4 2.4 0 0 1-1.06.88 4 4 0 0 1-1.61.3h-1.41v1.93h-1.62v-7h3.03a4 4 0 0 1 1.61.31m-.6 3.13a1.1 1.1 0 0 0 .39-.9 1.1 1.1 0 0 0-.38-.9 1.7 1.7 0 0 0-1.11-.32h-1.32v2.43h1.32a1.7 1.7 0 0 0 1.1-.31" class="cls-9"/><path id="Path_46" d="M690.04 482.43v1.3h-5.42v-7h5.29v1.3h-3.68v1.52h3.25v1.26h-3.25v1.62Z" class="cls-9"/><path id="Path_47" d="M697.75 476.73v7h-1.33l-3.5-4.25v4.25h-1.6v-7h1.35l3.48 4.25v-4.25Z" class="cls-9"/></g><g id="Group_21" class="cls-3"><path id="Path_48" d="M652.05 496.62a4 4 0 0 1-1.25-.59l.55-1.22a4 4 0 0 0 1.07.54 4 4 0 0 0 1.24.2 2 2 0 0 0 1.02-.21.6.6 0 0 0 .33-.54.5.5 0 0 0-.2-.42 2 2 0 0 0-.5-.27q-.3-.1-.82-.22a11 11 0 0 1-1.31-.38 2 2 0 0 1-.88-.6 1.6 1.6 0 0 1-.36-1.13 2 2 0 0 1 .33-1.1 2 2 0 0 1 1-.78 4 4 0 0 1 1.62-.3 5 5 0 0 1 1.31.17 4 4 0 0 1 1.12.46l-.5 1.23a4 4 0 0 0-1.94-.55 2 2 0 0 0-1 .22.7.7 0 0 0-.33.58.6.6 0 0 0 .38.53 6 6 0 0 0 1.14.35 11 11 0 0 1 1.31.38 2 2 0 0 1 .88.6 1.6 1.6 0 0 1 .36 1.11 2 2 0 0 1-.33 1.1 2.3 2.3 0 0 1-1 .79 4 4 0 0 1-1.64.29 6 6 0 0 1-1.6-.24" class="cls-9"/><path id="Path_49" d="M659.08 491.05h-2.24v-1.32h6.1v1.32h-2.24v5.68h-1.62Z" class="cls-9"/><path id="Path_50" d="M668.07 495.23h-3.25l-.62 1.5h-1.66l3.12-7h1.6l3.13 7h-1.7Zm-.5-1.24-1.12-2.68-1.1 2.68Z" class="cls-9"/><path id="Path_51" d="M677.54 489.73v7h-1.33l-3.49-4.25v4.25h-1.6v-7h1.34l3.48 4.25v-4.25Z" class="cls-9"/><path id="Path_52" d="M679.2 489.73h3.18a4.5 4.5 0 0 1 2.02.43 3.3 3.3 0 0 1 1.36 1.23 3.7 3.7 0 0 1 0 3.67 3.3 3.3 0 0 1-1.36 1.23 4.5 4.5 0 0 1-2.02.44h-3.18Zm3.1 5.67a2.4 2.4 0 0 0 1.68-.59 2.3 2.3 0 0 0 0-3.17 2.4 2.4 0 0 0-1.68-.58h-1.48v4.34Z" class="cls-9"/><path id="Path_53" d="M691.97 495.23h-3.25l-.62 1.5h-1.66l3.12-7h1.6l3.13 7h-1.7Zm-.5-1.24-1.12-2.68-1.1 2.68Z" class="cls-9"/><path id="Path_54" d="m699.48 496.73-1.35-1.96h-1.49v1.96h-1.62v-7h3.03a4 4 0 0 1 1.62.3 2.4 2.4 0 0 1 1.05.89 2.4 2.4 0 0 1 .37 1.35 2.3 2.3 0 0 1-1.44 2.2l1.57 2.25Zm-.4-5.37a1.7 1.7 0 0 0-1.12-.31h-1.32v2.43h1.32a1.7 1.7 0 0 0 1.11-.31 1.26 1.26 0 0 0 0-1.81" class="cls-9"/><path id="Path_55" d="M702.37 489.73h3.18a4.5 4.5 0 0 1 2.02.43 3.3 3.3 0 0 1 1.36 1.23 3.7 3.7 0 0 1 0 3.67 3.3 3.3 0 0 1-1.36 1.23 4.5 4.5 0 0 1-2.02.44h-3.18Zm3.1 5.67a2.4 2.4 0 0 0 1.68-.59 2.3 2.3 0 0 0 0-3.17 2.4 2.4 0 0 0-1.68-.58H704v4.34Z" class="cls-9"/><path id="Path_56" d="M711.33 496.62a4 4 0 0 1-1.25-.59l.55-1.22a4 4 0 0 0 1.07.54 4 4 0 0 0 1.24.2 2 2 0 0 0 1.02-.21.6.6 0 0 0 .33-.54.5.5 0 0 0-.2-.42 2 2 0 0 0-.5-.27q-.3-.1-.82-.22a11 11 0 0 1-1.31-.38 2 2 0 0 1-.88-.6 1.6 1.6 0 0 1-.36-1.13 2 2 0 0 1 .33-1.1 2 2 0 0 1 1-.78 4 4 0 0 1 1.62-.3 5 5 0 0 1 1.3.17 4 4 0 0 1 1.13.46l-.5 1.23a4 4 0 0 0-1.94-.55 2 2 0 0 0-1 .22.7.7 0 0 0-.33.58.6.6 0 0 0 .37.53 6 6 0 0 0 1.15.35 11 11 0 0 1 1.3.38 2 2 0 0 1 .88.6 1.6 1.6 0 0 1 .37 1.11 2 2 0 0 1-.34 1.1 2.3 2.3 0 0 1-1 .79 4 4 0 0 1-1.63.29 6 6 0 0 1-1.6-.24" class="cls-9"/></g></g><g id="POWERFUL_AUTOMATION" class="cls-3"><g id="Group_22" class="cls-3"><path id="Path_57" d="M800.72 477.03a2.4 2.4 0 0 1 1.06.89 2.6 2.6 0 0 1 0 2.69 2.4 2.4 0 0 1-1.06.88 4 4 0 0 1-1.61.3h-1.41v1.93h-1.62v-7h3.03a4 4 0 0 1 1.61.31m-.6 3.13a1.1 1.1 0 0 0 .38-.9 1.1 1.1 0 0 0-.38-.9 1.7 1.7 0 0 0-1.1-.32h-1.32v2.43h1.32a1.7 1.7 0 0 0 1.1-.31" class="cls-6"/><path id="Path_58" d="M804.82 483.38a3.5 3.5 0 0 1-1.37-1.3 3.7 3.7 0 0 1 0-3.72 3.5 3.5 0 0 1 1.37-1.3 4.3 4.3 0 0 1 3.93 0 3.57 3.57 0 0 1 0 6.3 4.3 4.3 0 0 1-3.93 0Zm3.09-1.2a2 2 0 0 0 .78-.8 2.5 2.5 0 0 0 0-2.32 2 2 0 0 0-.78-.8 2.3 2.3 0 0 0-2.24 0 2 2 0 0 0-.79.8 2.5 2.5 0 0 0 0 2.32 2 2 0 0 0 .79.8 2.3 2.3 0 0 0 2.24 0" class="cls-6"/><path id="Path_59" d="m822.19 476.73-2.3 7h-1.73l-1.54-4.75-1.6 4.75h-1.72l-2.3-7h1.68l1.58 4.92 1.65-4.92h1.5l1.6 4.96 1.63-4.96Z" class="cls-6"/><path id="Path_60" d="M828.5 482.43v1.3h-5.41v-7h5.29v1.3h-3.68v1.52h3.25v1.26h-3.25v1.62Z" class="cls-6"/><path id="Path_61" d="m834.26 483.73-1.35-1.96h-1.5v1.96h-1.61v-7h3.03a4 4 0 0 1 1.61.3 2.4 2.4 0 0 1 1.06.89 2.4 2.4 0 0 1 .37 1.35 2.3 2.3 0 0 1-1.44 2.2l1.57 2.25Zm-.41-5.37a1.7 1.7 0 0 0-1.11-.31h-1.32v2.43h1.32a1.7 1.7 0 0 0 1.1-.31 1.26 1.26 0 0 0 0-1.81" class="cls-6"/><path id="Path_62" d="M838.77 478.02v1.86H842v1.3h-3.24v2.55h-1.62v-7h5.29v1.3Z" class="cls-6"/><path id="Path_63" d="M844.31 483.02a3.2 3.2 0 0 1-.83-2.37v-3.92h1.62v3.85q0 1.88 1.56 1.88a1.5 1.5 0 0 0 1.16-.45 2 2 0 0 0 .4-1.42v-3.86h1.6v3.91a3.31 3.31 0 0 1-5.5 2.37Z" class="cls-6"/><path id="Path_64" d="M851.42 476.73h1.62v5.67h3.5v1.32h-5.12Z" class="cls-6"/></g><g id="Group_23" class="cls-3"><path id="Path_65" d="M796.48 495.23h-3.25l-.62 1.5h-1.66l3.12-7h1.6l3.13 7h-1.7Zm-.51-1.24-1.11-2.68-1.11 2.68Z" class="cls-6"/><path id="Path_66" d="M800.15 496.02a3.2 3.2 0 0 1-.83-2.37v-3.92h1.62v3.85q0 1.88 1.56 1.88a1.5 1.5 0 0 0 1.16-.45 2 2 0 0 0 .4-1.42v-3.86h1.6v3.91a3.31 3.31 0 0 1-5.5 2.37Z" class="cls-6"/><path id="Path_67" d="M808.59 491.05h-2.24v-1.32h6.1v1.32h-2.24v5.68h-1.62Z" class="cls-6"/><path id="Path_68" d="M814.64 496.38a3.5 3.5 0 0 1-1.37-1.3 3.7 3.7 0 0 1 0-3.72 3.5 3.5 0 0 1 1.37-1.3 4.3 4.3 0 0 1 3.93 0 3.5 3.5 0 0 1 1.37 1.3 3.57 3.57 0 0 1-1.37 5.01 4.3 4.3 0 0 1-3.93 0Zm3.09-1.2a2 2 0 0 0 .78-.8 2.5 2.5 0 0 0 0-2.32 2 2 0 0 0-.78-.8 2.3 2.3 0 0 0-2.24 0 2 2 0 0 0-.79.8 2.5 2.5 0 0 0 0 2.32 2 2 0 0 0 .79.8 2.3 2.3 0 0 0 2.24 0" class="cls-6"/><path id="Path_69" d="m828.03 496.73-.01-4.2-2.06 3.46h-.73l-2.05-3.37v4.1h-1.52v-7H823l2.62 4.35 2.58-4.34h1.33l.02 7Z" class="cls-6"/><path id="Path_70" d="M835.82 495.23h-3.25l-.62 1.5h-1.66l3.12-7h1.6l3.13 7h-1.7Zm-.51-1.24-1.11-2.68-1.11 2.68Z" class="cls-6"/><path id="Path_71" d="M839.97 491.05h-2.24v-1.32h6.1v1.32h-2.24v5.68h-1.62Z" class="cls-6"/><path id="Path_72" d="M844.7 489.73h1.62v7h-1.62Z" class="cls-6"/><path id="Path_73" d="M849.4 496.38a3.5 3.5 0 0 1-1.37-1.3 3.7 3.7 0 0 1 0-3.72 3.5 3.5 0 0 1 1.37-1.3 4.3 4.3 0 0 1 3.93 0 3.57 3.57 0 0 1 0 6.3 4.3 4.3 0 0 1-3.93 0Zm3.09-1.2a2 2 0 0 0 .78-.8 2.5 2.5 0 0 0 0-2.32 2 2 0 0 0-.78-.8 2.3 2.3 0 0 0-2.24 0 2 2 0 0 0-.79.8 2.5 2.5 0 0 0 0 2.32 2 2 0 0 0 .79.8 2.3 2.3 0 0 0 2.24 0" class="cls-6"/><path id="Path_74" d="M862.84 489.73v7h-1.33l-3.5-4.25v4.25h-1.6v-7h1.35l3.48 4.25v-4.25Z" class="cls-6"/></g></g><g id="API" class="cls-3"><g id="Group_24" class="cls-3"><path id="Path_75" d="m815.46 452.71-1.76-5.93h-10.15l-1.76 5.93h-6.92l9.67-28.98h8.34l9.68 28.98Zm-10.32-11.26h6.97l-.3-1.04q-1.25-4.21-2.04-7.18t-.97-3.83l-.17-.86a122 122 0 0 1-3.18 11.87Z" class="cls-6"/><path id="Path_76" d="M826.34 423.73h9.98a11.2 11.2 0 0 1 7.8 2.7 8.9 8.9 0 0 1 2.98 6.89 9.1 9.1 0 0 1-3.11 7.4 11.5 11.5 0 0 1-7.68 2.62h-3.35v9.37h-6.62Zm6.62 14.36h2.2q5.24 0 5.24-4.77 0-4.3-4.86-4.3h-2.58Z" class="cls-6"/><path id="Path_77" d="M850.98 452.71v-28.98h6.62v28.98Z" class="cls-6"/></g></g><g id="Kubernetes_optimised" class="cls-3"><g id="Group_25" class="cls-3"><path id="Path_78" d="m795.26 338.97-.94.98v1.77h-1.61v-7h1.6v3.27l3.1-3.27h1.8l-2.9 3.12 3.08 3.88h-1.89Z" class="cls-8"/><path id="Path_79" d="M800.78 341a3.2 3.2 0 0 1-.83-2.36v-3.92h1.62v3.86q0 1.88 1.56 1.88a1.5 1.5 0 0 0 1.16-.46 2 2 0 0 0 .4-1.42v-3.86h1.6v3.92a3.31 3.31 0 0 1-5.5 2.37" class="cls-8"/><path id="Path_80" d="M813.97 338.71a2 2 0 0 1 .34 1.1 1.6 1.6 0 0 1-.72 1.42 3.7 3.7 0 0 1-2.08.5h-3.62v-7h3.42a3.3 3.3 0 0 1 1.96.48 1.6 1.6 0 0 1 .69 1.33 1.7 1.7 0 0 1-.93 1.54 2 2 0 0 1 .94.63m-4.47-2.77v1.65h1.6a1.6 1.6 0 0 0 .92-.21.7.7 0 0 0 .3-.62.7.7 0 0 0-.3-.62 1.7 1.7 0 0 0-.91-.2Zm2.85 4.35a.7.7 0 0 0 .33-.65q0-.87-1.3-.87h-1.88v1.73h1.89a2 2 0 0 0 .96-.21" class="cls-8"/><path id="Path_81" d="M820.96 340.42v1.3h-5.42v-7h5.29v1.3h-3.68v1.52h3.25v1.26h-3.25v1.62Z" class="cls-8"/><path id="Path_82" d="m826.7 341.72-1.34-1.95h-1.5v1.95h-1.61v-7h3.03a4 4 0 0 1 1.61.3 2.4 2.4 0 0 1 1.06.89 2.4 2.4 0 0 1 .37 1.35 2.3 2.3 0 0 1-1.44 2.2l1.57 2.26Zm-.4-5.37a1.7 1.7 0 0 0-1.11-.31h-1.32v2.44h1.32a1.7 1.7 0 0 0 1.1-.32 1.26 1.26 0 0 0 0-1.8" class="cls-8"/><path id="Path_83" d="M836.02 334.72v7h-1.33l-3.5-4.25v4.25h-1.6v-7h1.35l3.48 4.25v-4.25Z" class="cls-8"/><path id="Path_84" d="M843.1 340.42v1.3h-5.42v-7h5.29v1.3h-3.68v1.52h3.25v1.26h-3.25v1.62Z" class="cls-8"/><path id="Path_85" d="M845.84 336.04h-2.24v-1.32h6.1v1.32h-2.24v5.68h-1.62Z" class="cls-8"/><path id="Path_86" d="M855.99 340.42v1.3h-5.42v-7h5.29v1.3h-3.68v1.52h3.25v1.26h-3.25v1.62Z" class="cls-8"/><path id="Path_87" d="M857.97 341.61a4 4 0 0 1-1.24-.58l.55-1.22a4 4 0 0 0 1.07.53 4 4 0 0 0 1.24.2 2 2 0 0 0 1.02-.2.6.6 0 0 0 .33-.55.5.5 0 0 0-.2-.42 2 2 0 0 0-.5-.26q-.3-.1-.83-.22a11 11 0 0 1-1.3-.38 2 2 0 0 1-.88-.61 1.7 1.7 0 0 1-.37-1.12 2 2 0 0 1 .33-1.1 2.2 2.2 0 0 1 1-.8 4 4 0 0 1 1.62-.28 5 5 0 0 1 1.31.16 4 4 0 0 1 1.12.46l-.5 1.23a4 4 0 0 0-1.94-.55 2 2 0 0 0-1 .22.7.7 0 0 0-.33.58.6.6 0 0 0 .38.53 6 6 0 0 0 1.14.35 11 11 0 0 1 1.31.38 2 2 0 0 1 .88.6 1.6 1.6 0 0 1 .36 1.1 2 2 0 0 1-.33 1.1 2.3 2.3 0 0 1-1 .8 4 4 0 0 1-1.64.28 6 6 0 0 1-1.6-.23" class="cls-8"/></g><g id="Group_26" class="cls-3"><path id="Path_88" d="M800.05 354.37a3.5 3.5 0 0 1-1.37-1.3 3.7 3.7 0 0 1 0-3.7 3.5 3.5 0 0 1 1.37-1.3 4.3 4.3 0 0 1 3.93 0 3.57 3.57 0 0 1 0 6.3 4.3 4.3 0 0 1-3.93 0m3.09-1.2a2 2 0 0 0 .78-.8 2.5 2.5 0 0 0 0-2.32 2 2 0 0 0-.78-.8 2.3 2.3 0 0 0-2.24 0 2 2 0 0 0-.79.8 2.5 2.5 0 0 0 0 2.32 2 2 0 0 0 .79.8 2.3 2.3 0 0 0 2.24 0" class="cls-8"/><path id="Path_89" d="M811.71 348.03a2.4 2.4 0 0 1 1.06.88 2.6 2.6 0 0 1 0 2.7 2.4 2.4 0 0 1-1.06.87 4 4 0 0 1-1.61.3h-1.41v1.94h-1.62v-7h3.03a4 4 0 0 1 1.61.3m-.6 3.12a1.1 1.1 0 0 0 .39-.9 1.1 1.1 0 0 0-.38-.9 1.7 1.7 0 0 0-1.11-.31h-1.32v2.43H810a1.7 1.7 0 0 0 1.1-.32" class="cls-8"/><path id="Path_90" d="M815.55 349.04h-2.24v-1.32h6.1v1.32h-2.24v5.68h-1.62Z" class="cls-8"/><path id="Path_91" d="M820.28 347.72h1.62v7h-1.62Z" class="cls-8"/><path id="Path_92" d="m829.93 354.72-.01-4.2-2.06 3.46h-.73l-2.05-3.37v4.1h-1.52v-7h1.34l2.62 4.36 2.58-4.35h1.33l.02 7Z" class="cls-8"/><path id="Path_93" d="M833.1 347.72h1.63v7h-1.62Z" class="cls-8"/><path id="Path_94" d="M837.08 354.61a4 4 0 0 1-1.24-.58l.55-1.22a4 4 0 0 0 1.07.53 4 4 0 0 0 1.24.2 2 2 0 0 0 1.02-.2.6.6 0 0 0 .33-.55.5.5 0 0 0-.2-.42 2 2 0 0 0-.5-.26q-.3-.1-.83-.22a11 11 0 0 1-1.3-.38 2 2 0 0 1-.88-.61 1.7 1.7 0 0 1-.37-1.12 2 2 0 0 1 .33-1.1 2.2 2.2 0 0 1 1-.8 4 4 0 0 1 1.62-.28 5 5 0 0 1 1.31.16 4 4 0 0 1 1.12.46l-.5 1.23a4 4 0 0 0-1.94-.55 2 2 0 0 0-1 .22.7.7 0 0 0-.33.58.6.6 0 0 0 .38.53 6 6 0 0 0 1.14.35 11 11 0 0 1 1.31.38 2 2 0 0 1 .88.6 1.6 1.6 0 0 1 .36 1.1 2 2 0 0 1-.33 1.1 2.2 2.2 0 0 1-1 .8 4 4 0 0 1-1.64.28 6 6 0 0 1-1.6-.23" class="cls-8"/><path id="Path_95" d="M848.19 353.42v1.3h-5.42v-7h5.29v1.3h-3.68v1.52h3.25v1.26h-3.25v1.62Z" class="cls-8"/><path id="Path_96" d="M849.48 347.72h3.18a4.5 4.5 0 0 1 2.01.43 3.3 3.3 0 0 1 1.36 1.23 3.7 3.7 0 0 1 0 3.68 3.3 3.3 0 0 1-1.36 1.22 4.5 4.5 0 0 1-2.01.44h-3.18Zm3.1 5.67a2.4 2.4 0 0 0 1.67-.59 2.3 2.3 0 0 0 0-3.17 2.4 2.4 0 0 0-1.67-.58h-1.48v4.34Z" class="cls-8"/></g></g><g id="layer1"><g id="g3052"><g id="path3055"><path id="Path_97" d="M827.2 278.25a3 3 0 0 0-1.11.28l-15.22 7.27a2.9 2.9 0 0 0-1.57 1.96l-3.75 16.32a3 3 0 0 0 .4 2.22l.16.23 10.53 13.09a3 3 0 0 0 2.27 1.08h16.89a3 3 0 0 0 2.27-1.08l10.53-13.1a2.9 2.9 0 0 0 .56-2.44l-3.76-16.33a2.9 2.9 0 0 0-1.57-1.95l-15.22-7.27a3 3 0 0 0-1.41-.28" class="cls-8"/></g><g id="path3059"><path id="Path_98" d="M827.35 283.8a.97.97 0 0 0-.9 1.02v.26a8 8 0 0 0 .12.87 9 9 0 0 1 .1 1.65 1 1 0 0 1-.3.47l-.02.38a12 12 0 0 0-1.65.26 11.7 11.7 0 0 0-5.95 3.4l-.33-.24a.7.7 0 0 1-.54-.05 9 9 0 0 1-1.23-1.1 8 8 0 0 0-.6-.65l-.2-.16a1 1 0 0 0-.63-.24.9.9 0 0 0-.73.33.97.97 0 0 0 .23 1.34h.01l.19.16a7 7 0 0 0 .75.44 9 9 0 0 1 1.36.95 1 1 0 0 1 .18.53l.3.26a11.8 11.8 0 0 0-1.86 8.21l-.39.11a1 1 0 0 1-.39.4 9 9 0 0 1-1.63.27 8 8 0 0 0-.87.07l-.25.05h-.02a.91.91 0 0 0 .22 1.82l.18-.04h.03l.24-.06a8 8 0 0 0 .81-.32 9 9 0 0 1 1.6-.46 1 1 0 0 1 .51.18l.4-.07a12 12 0 0 0 5.26 6.56l-.17.4a1 1 0 0 1 .08.52 9 9 0 0 1-.82 1.48 8 8 0 0 0-.5.72l-.1.25a.91.91 0 1 0 1.64.78l.1-.23a7 7 0 0 0 .27-.84 6 6 0 0 1 .7-1.63 1 1 0 0 1 .4-.2l.2-.37a11.8 11.8 0 0 0 8.4.02l.2.35a.7.7 0 0 1 .47.28 9 9 0 0 1 .62 1.54 8 8 0 0 0 .26.83l.12.23a.92.92 0 0 0 1.72-.6l-.08-.17-.12-.25a8 8 0 0 0-.48-.73 9 9 0 0 1-.81-1.44.7.7 0 0 1 .07-.54l-.15-.37a12 12 0 0 0 5.25-6.6l.39.07a.7.7 0 0 1 .5-.19 9 9 0 0 1 1.6.47 8 8 0 0 0 .8.32l.24.05h.04a.91.91 0 1 0 .4-1.77l-.27-.06a8 8 0 0 0-.87-.07 9 9 0 0 1-1.63-.27 1 1 0 0 1-.4-.4l-.36-.1a11.8 11.8 0 0 0-1.9-8.2l.32-.29a.7.7 0 0 1 .17-.51 9 9 0 0 1 1.35-.95 7 7 0 0 0 .76-.45l.2-.16a.92.92 0 1 0-1.13-1.42l-.2.16a8 8 0 0 0-.6.64 9 9 0 0 1-1.23 1.1 1 1 0 0 1-.55.07l-.35.24a12 12 0 0 0-7.56-3.65l-.02-.4a.7.7 0 0 1-.3-.46 9 9 0 0 1 .1-1.65 8 8 0 0 0 .13-.87v-.26a.97.97 0 0 0-.91-1Zm-1.14 7.07-.27 4.78h-.02a.8.8 0 0 1-1.27.62h-.01l-3.92-2.77a9.4 9.4 0 0 1 4.52-2.46 10 10 0 0 1 .97-.17m2.28 0a9.5 9.5 0 0 1 5.46 2.63l-3.9 2.76a.8.8 0 0 1-1.28-.62Zm-9.19 4.41 3.58 3.2v.02a.8.8 0 0 1-.32 1.38v.02l-4.58 1.32a9.4 9.4 0 0 1 1.32-5.94m16.07 0a9.6 9.6 0 0 1 1.38 5.92l-4.61-1.33v-.01a.8.8 0 0 1-.32-1.38v-.01Zm-8.75 3.45h1.46l.91 1.13-.32 1.42-1.32.64-1.32-.64-.32-1.42Zm4.7 3.9h.19l4.74.8a9.4 9.4 0 0 1-3.8 4.76l-1.84-4.44a.8.8 0 0 1 .43-1.07 1 1 0 0 1 .28-.06Zm-7.96.01a.8.8 0 0 1 .72 1.12l.02.02-1.83 4.4a9.4 9.4 0 0 1-3.78-4.74l4.7-.8v.01zm3.97 1.93a.8.8 0 0 1 .73.42h.02l2.32 4.19a10 10 0 0 1-.93.26 9.4 9.4 0 0 1-5.14-.27l2.31-4.18a.8.8 0 0 1 .68-.42Z" class="cls-2"/><path id="Path_99" d="M820.62 315.28a1.04 1.04 0 0 1-.9-1.57l.04-.09.08-.15a8 8 0 0 1 .5-.75 9 9 0 0 0 .8-1.44 1 1 0 0 0-.07-.42l-.03-.05.15-.36a12 12 0 0 1-5.18-6.46l-.34.05-.05-.03a1 1 0 0 0-.46-.16 9 9 0 0 0-1.53.46 8 8 0 0 1-.82.32l-.17.04-.12.02-.19.04a1.04 1.04 0 1 1-.24-2.06h.03l.07-.02.15-.03a8 8 0 0 1 .9-.08 8 8 0 0 0 1.58-.25 1 1 0 0 0 .34-.35l.02-.04.33-.1a12 12 0 0 1 1.83-8.1l-.25-.22v-.06a1 1 0 0 0-.15-.44 8 8 0 0 0-1.33-.93 8 8 0 0 1-.76-.45l-.18-.14-.02-.02a1.1 1.1 0 0 1-.26-1.52 1 1 0 0 1 .84-.37 1.2 1.2 0 0 1 .7.26l.09.07.12.1a8 8 0 0 1 .61.65 8 8 0 0 0 1.2 1.1.6.6 0 0 0 .44.03l.06-.02.05.03.24.18a12 12 0 0 1 5.93-3.36 12 12 0 0 1 1.56-.25l.02-.33.04-.03a1 1 0 0 0 .26-.41 9 9 0 0 0-.1-1.6 8 8 0 0 1-.13-.88v-.24a1.1 1.1 0 0 1 1.03-1.16 1.1 1.1 0 0 1 1.02 1.14v.25a7 7 0 0 1-.13.9 8 8 0 0 0-.1 1.61.6.6 0 0 0 .25.36l.05.04v.06l.02.3a12 12 0 0 1 7.45 3.6l.3-.22.05.01a1 1 0 0 0 .47-.04 9 9 0 0 0 1.2-1.09 8 8 0 0 1 .6-.64l.18-.14.04-.03.15-.12a1.04 1.04 0 0 1 1.44.31 1.04 1.04 0 0 1-.31 1.44l-.05.04-.15.12a8 8 0 0 1-.77.45 8 8 0 0 0-1.33.93.6.6 0 0 0-.13.41v.06l-.14.13-.15.13a12 12 0 0 1 1.88 8.09l.31.09.03.04a1 1 0 0 0 .33.34 8 8 0 0 0 1.6.26 8 8 0 0 1 .87.07l.2.05.08.02.2.04a1.04 1.04 0 0 1-.65 1.98h-.03l-.1-.03-.15-.03a8 8 0 0 1-.84-.33 8 8 0 0 0-1.56-.45.6.6 0 0 0-.4.15l-.04.05-.07-.01-.28-.05a12 12 0 0 1-5.18 6.5l.11.27.03.06-.03.05a.6.6 0 0 0-.06.45 8 8 0 0 0 .8 1.4 8 8 0 0 1 .48.73l.1.18.03.08.08.18a1.04 1.04 0 0 1-.63 1.32 1.04 1.04 0 0 1-1.33-.63l-.01-.03-.1-.2a8 8 0 0 1-.27-.85 8 8 0 0 0-.61-1.5.6.6 0 0 0-.38-.22h-.06l-.03-.06-.06-.12-.08-.14a12 12 0 0 1-8.28-.02l-.19.34h-.06a1 1 0 0 0-.31.15 6 6 0 0 0-.68 1.6 8 8 0 0 1-.27.84l-.07.16-.04.08-.08.17a1 1 0 0 1-.64.47zm.7-4.48a1 1 0 0 1 .07.53l-.01.04a9 9 0 0 1-.84 1.5 8 8 0 0 0-.48.72l-.07.14-.04.1a.8.8 0 0 0 .26 1.09.8.8 0 0 0 1.09-.27l.06-.14.05-.1.07-.14a8 8 0 0 0 .25-.81 7 7 0 0 1 .72-1.68l.02-.02a1 1 0 0 1 .4-.21l.23-.42.1.04a11.7 11.7 0 0 0 8.31.02l.1-.04.05.1.14.23.03.06a1 1 0 0 1 .49.32 9 9 0 0 1 .64 1.57 7 7 0 0 0 .26.83l.09.18.02.04a.8.8 0 0 0 .41.46.8.8 0 0 0 1.02-1.12l-.05-.09-.07-.16a8 8 0 0 0-.48-.7 9 9 0 0 1-.82-1.48 1 1 0 0 1 .04-.59l-.13-.32-.03-.1.09-.05a11.7 11.7 0 0 0 5.19-6.53l.03-.1.1.01.34.06a1 1 0 0 1 .55-.18 9 9 0 0 1 1.63.48 7 7 0 0 0 .8.3l.14.04.14.03a.79.79 0 1 0 .5-1.5l-.16-.04-.1-.02-.17-.04a8 8 0 0 0-.85-.07 9 9 0 0 1-1.66-.27l-.03-.01a1 1 0 0 1-.42-.4l-.42-.13.01-.1a11.7 11.7 0 0 0-1.87-8.11l-.07-.09.08-.07.24-.21.05-.04a1 1 0 0 1 .2-.55 9 9 0 0 1 1.38-.98 7 7 0 0 0 .75-.43l.13-.1.06-.06a.8.8 0 0 0 .36-.5.79.79 0 0 0-1.2-.83l-.13.1-.05.04-.15.12a8 8 0 0 0-.59.63 9 9 0 0 1-1.25 1.13l-.03.01a1 1 0 0 1-.56.08l-.4.28-.07-.08a11.8 11.8 0 0 0-7.48-3.61l-.1-.01-.02-.1-.01-.36a1 1 0 0 1-.3-.5 9 9 0 0 1 .1-1.7 8 8 0 0 0 .12-.86v-.24a.78.78 0 1 0-1.55-.01v.26a8 8 0 0 0 .12.84 9 9 0 0 1 .1 1.68 1 1 0 0 1-.3.53l-.02.44-.11.01a12 12 0 0 0-1.63.25 11.6 11.6 0 0 0-5.89 3.36l-.07.08-.09-.06-.28-.2a1 1 0 0 1-.58-.08 9 9 0 0 1-1.26-1.13 8 8 0 0 0-.6-.63l-.1-.09-.09-.07a1 1 0 0 0-.56-.2.7.7 0 0 0-.62.27.84.84 0 0 0 .2 1.16l.04.03.17.13a8 8 0 0 0 .73.43 9 9 0 0 1 1.38.97l.02.02a1 1 0 0 1 .2.54l.34.3-.06.1a11.6 11.6 0 0 0-1.84 8.12l.02.1-.44.13a1.4 1.4 0 0 1-.4.4l-.04.01a9 9 0 0 1-1.66.27 8 8 0 0 0-.86.07l-.13.03-.14.03a.8.8 0 0 0-.69.88.8.8 0 0 0 .88.69l.16-.04.13-.03q.08 0 .14-.03a8 8 0 0 0 .8-.3 9 9 0 0 1 1.62-.48 1 1 0 0 1 .57.17l.46-.07.03.1a11.7 11.7 0 0 0 5.2 6.48l.1.06Zm6.05-1a10 10 0 0 1-3.08-.51l-.14-.05 2.38-4.3a1 1 0 0 1 .76-.5h.03a1 1 0 0 1 .81.43l.05.06 2.4 4.32-.15.05q-.46.16-.94.26a10 10 0 0 1-2.12.24m-2.86-.7a9.3 9.3 0 0 0 4.93.21q.4-.08.77-.2l-2.26-4.06a.7.7 0 0 0-.6-.36h-.03a.7.7 0 0 0-.57.36Zm7.88-.72-1.92-4.65v-.01a.93.93 0 0 1 .52-1.15 1 1 0 0 1 .32-.08h.23l4.88.83-.05.14a9.6 9.6 0 0 1-3.85 4.84Zm-1.63-4.61 1.75 4.24a9.3 9.3 0 0 0 3.57-4.49l-4.52-.76h-.08l-.16-.02h-.02l-.2.05a.7.7 0 0 0-.36.9l.02.06Zm-8.43 4.6-.12-.08a9.6 9.6 0 0 1-3.84-4.8l-.05-.14 4.92-.84.02.01h.1a.93.93 0 0 1 .86 1.22l-.01.09Zm-3.67-4.83a9.4 9.4 0 0 0 3.56 4.45l1.73-4.19.02-.08a.68.68 0 0 0-.59-.95h-.03l-.13.01-.07.01Zm8.7-1.48-1.44-.69-.35-1.53.99-1.23h1.58l.99 1.23-.36 1.54Zm-1.22-.86 1.21.58 1.2-.58.3-1.3-.83-1.04h-1.34l-.84 1.04Zm-8.27.19-.01-.15a9.6 9.6 0 0 1 1.34-6.02l.07-.13 3.73 3.36a.93.93 0 0 1-.31 1.53l-.1.04Zm1.46-5.9a9.3 9.3 0 0 0-1.24 5.58l4.44-1.3a1 1 0 0 0 .34-.21.7.7 0 0 0-.07-.96l-.05-.05Zm17.53 5.88-4.85-1.4v-.02a.93.93 0 0 1-.31-1.53l.04-.04 3.66-3.29.08.13a9.7 9.7 0 0 1 1.39 6Zm-4.6-1.58 4.37 1.26a9.5 9.5 0 0 0-1.29-5.56l-3.44 3.09a.68.68 0 0 0 .27 1.16l.1.03Zm-7.14-3.23h-.03a1 1 0 0 1-.48-.15l-.04-.03-4.04-2.86.1-.1a9.5 9.5 0 0 1 5.57-2.66l.14-.02v.15l-.28 4.85-.02.01a.9.9 0 0 1-.92.82Zm-.44-.4.04.02a1 1 0 0 0 .38.13.7.7 0 0 0 .48-.18.7.7 0 0 0 .22-.47v-.07l.02-.01.25-4.56q-.4.06-.8.15a9 9 0 0 0-4.35 2.32Zm4.89.38a.9.9 0 0 1-.93-.89l-.28-4.91.15.02a9.6 9.6 0 0 1 5.53 2.66l.1.1-4.07 2.9-.01-.02a1 1 0 0 1-.5.14Zm-.94-5.52.26 4.62a.68.68 0 0 0 1.08.52l.06-.04h.01l3.71-2.62a9.4 9.4 0 0 0-5.12-2.49Z" class="cls-2"/></g></g></g><g id="door-open-solid"><path id="Path_100" d="M709.43 453.68h-6.86v-28.7a4.2 4.2 0 0 0-4.12-4.24h-9.6v5.49h8.23v32.94h12.35a1.37 1.37 0 0 0 1.37-1.37v-2.75a1.37 1.37 0 0 0-1.37-1.37m-26.74-38.34-16.47 4.26a2.8 2.8 0 0 0-2.08 2.76v31.32h-6.87a1.37 1.37 0 0 0-1.37 1.37v2.75a1.37 1.37 0 0 0 1.37 1.38h28.83V418.1a2.77 2.77 0 0 0-3.41-2.76m-4.14 24.62c-1.14 0-2.06-1.23-2.06-2.75s.92-2.74 2.06-2.74 2.05 1.22 2.05 2.74-.92 2.75-2.05 2.75" class="cls-9"/></g></g></g></svg>