<svg xmlns="http://www.w3.org/2000/svg" xmlns:xlink="http://www.w3.org/1999/xlink" viewBox="0 0 502.84 101.18"><defs><style>.a{fill:#fbfdfe}.b{fill:none}</style></defs><path d="M39.3 38.32a13.67 13.67 0 0 0-27.18 0 13.68 13.68 0 0 0 1.5 27.27h12.14a7.63 7.63 0 0 0 0-15.26 4.46 4.46 0 1 1 3.16-7.6 1.59 1.59 0 1 0 2.37-2.12l-.12-.12a7.63 7.63 0 1 0-5.41 13 4.45 4.45 0 0 1 0 8.9H13.62a10.5 10.5 0 0 1 0-21 1.6 1.6 0 0 0 1.59-1.59 10.5 10.5 0 0 1 21 0 1.6 1.6 0 0 0 1.59 1.59 10.5 10.5 0 0 1 0 21 1.59 1.59 0 1 0 0 3.18 13.68 13.68 0 0 0 1.5-27.27Zm30.81 17.09c-.78-.31-1.48-.55-2.5-.9-1.83-.58-3.61-1.25-3.61-2.77s1.17-2.3 3-2.3a6.8 6.8 0 0 1 4.68 2l1.56-2.3a8.1 8.1 0 0 0-6.32-2.42c-3.28 0-6.24 1.87-6.24 5.3a4.75 4.75 0 0 0 2.92 4.45 14 14 0 0 0 2.54 1c1.25.43 4.18 1.05 4.18 3.08s-1.84 2.65-3.56 2.65a7.6 7.6 0 0 1-5.46-2.65l-1.79 2.18a8.9 8.9 0 0 0 7.22 3.32 8 8 0 0 0 5.15-1.64 5.3 5.3 0 0 0 1.91-4.21 4.6 4.6 0 0 0-1.48-3.44 7 7 0 0 0-2.2-1.35m13.57-8.7a14 14 0 0 0-7 1.87l1.14 2.5a11.3 11.3 0 0 1 5.58-1.6c2.69 0 4.6 1.4 4.6 4.21v.74l-5 .2c-4.29.19-7.25 2-7.25 5.66S78.8 66 82.2 66a7.7 7.7 0 0 0 5.89-2.77v2.34h3.67V54.82c0-3.16-.75-4.72-2-6s-3-2.11-6.08-2.11m4.41 14a5.9 5.9 0 0 1-4.72 2.69c-2.46 0-3.83-1.45-3.83-3.2s1.21-3 4.22-3.2l4.33-.27Zm25.44-14a9.2 9.2 0 0 0-9.41 9v.64c0 5.89 3.78 9.71 9.28 9.71s7.93-2.73 8.16-2.92L120 61a10.3 10.3 0 0 1-6.13 2.15c-3.43 0-5.77-2.23-6-5.9h14.28q.09-.82.12-1.64a8.47 8.47 0 0 0-8.06-8.85Zm-5.58 8a5.46 5.46 0 0 1 5.46-5.31 5.36 5.36 0 0 1 5.35 5.31Zm26.35.7c-.78-.31-1.48-.55-2.49-.9-1.84-.58-3.63-1.25-3.63-2.77s1.17-2.3 3-2.3a6.8 6.8 0 0 1 4.69 2l1.56-2.3a8.1 8.1 0 0 0-6.32-2.42c-3.28 0-6.25 1.87-6.25 5.3a4.8 4.8 0 0 0 2.93 4.45 14 14 0 0 0 2.54 1c1.24.43 4.17 1.05 4.17 3.08s-1.83 2.65-3.5 2.65a7.6 7.6 0 0 1-5.46-2.65l-1.8 2.18a8.9 8.9 0 0 0 7.22 3.32 8 8 0 0 0 5.15-1.64A5.3 5.3 0 0 0 138 60.2a4.6 4.6 0 0 0-1.48-3.44 7 7 0 0 0-2.22-1.35m15.99-8.7A7.8 7.8 0 0 0 143.7 50h-.08v-2.91H140v25.58h3.73v-10a7.2 7.2 0 0 0 6.4 3.32c5.5 0 9-4.21 9-9.71s-3.37-9.57-8.84-9.57m-.78 16.11c-3.7 0-5.89-2.85-5.89-6.55s2.19-6.52 5.89-6.52 5.9 2.81 5.9 6.52-2.19 6.55-5.9 6.55m24.92-15.76h3.75v18.53h-3.75zm16.33-.35A6.3 6.3 0 0 0 185.1 50h-.1v-2.94h-3.75v18.53H185v-9.32c0-3.55 1.28-6.48 4.76-6.48 3.31 0 3.86 2.34 3.86 5.46v10.34h3.75v-11c.07-4.41-1.3-7.88-6.61-7.88m24.24.38V50h-.11a7.4 7.4 0 0 0-6.48-3.27c-4.76 0-8.94 3.43-8.94 9.32s4.18 9.33 8.94 9.33a7.5 7.5 0 0 0 6.48-3.32h.11v.73a8.4 8.4 0 0 1-1.41 5.21c-.74.94-2.3 2-5.07 2a12 12 0 0 1-6.64-2.34l-1.75 2.61A14.3 14.3 0 0 0 208.4 73c4.61 0 6.91-1.87 8.27-3.55s2-3.9 2-8V47.09Zm-5.78 15.25c-3.78 0-5.89-2.77-5.89-6.28s2.11-6.32 5.89-6.32 5.89 2.81 5.89 6.32-2.07 6.25-5.89 6.25ZM96.19 40.27c-.78 1-1.25 2.54-1.25 4.95v20.37h3.71v-15.5h4.41v-3h-4.41V45c0-2.11.39-3.94 2.85-3.94a6 6 0 0 1 1.56.2v-2.81a12 12 0 0 0-2.42-.22 5.6 5.6 0 0 0-4.45 2.04m68.96 9.64H165v-2.85h-3.7v18.53h3.7v-9.25a8 8 0 0 1 1.14-4.68 3.9 3.9 0 0 1 3-1.56 5 5 0 0 1 2 .39v-3.6a6 6 0 0 0-1.56-.18 4.8 4.8 0 0 0-4.43 3.2" class="a"/><circle cx="176.28" cy="40.68" r="2.44" class="a"/><path d="m243.26 100.59 36.85-100" class="b"/><path d="m243.87 100.76 32.21-87.41L280.76.76c.28-.76-.93-1.08-1.2-.33l-32.21 87.41-4.64 12.59c-.28.75.93 1.08 1.21.33Z" class="a"/><image xlink:href="../../../../../Downloads/SO%20White%20Flat%20(2).png" width="1476" height="520" transform="matrix(.15 0 0 .15 287.08 16.2)"/></svg>