<svg xmlns="http://www.w3.org/2000/svg" xmlns:xlink="http://www.w3.org/1999/xlink" width="454" height="454" viewBox="0 0 454 454"><defs><filter id="Rectangle_40" width="452" height="296" x="1" y="82" filterUnits="userSpaceOnUse"><feOffset dy="3"/><feGaussianBlur result="blur" stdDeviation="3"/><feFlood flood-opacity="0.161"/><feComposite in2="blur" operator="in"/><feComposite in="SourceGraphic"/></filter><clipPath id="clip-Artboard_1"><path d="M0 0h454v454H0z"/></clipPath></defs><g id="Artboard_1" clip-path="url(#clip-Artboard_1)"><g filter="url(#Rectangle_40)"><rect id="Rectangle_40-2" width="434" height="278" fill="#fff" rx="10" transform="translate(10 88)"/></g><g id="Group_509" transform="translate(79 169)"><g id="Pil" transform="translate(126.638 45)"><path id="Line_7" fill="none" stroke="#707070" stroke-linecap="round" stroke-width="2" d="M0 0h42" transform="translate(.362 13)"/><path id="Line_8" fill="none" stroke="#707070" stroke-linecap="round" stroke-width="2" d="m0 0 14 13" transform="translate(28.362)"/><path id="Line_9" fill="none" stroke="#707070" stroke-linecap="round" stroke-width="2" d="M0 15 13 0" transform="translate(29.362 13)"/></g><g id="Group_504" transform="translate(196.954 1)"><g id="Rectangle_39" fill="#fff" stroke="#ebf1f5" stroke-width="1" transform="translate(.046)"><rect width="88" height="115" stroke="none" rx="5"/><rect width="87" height="114" x="0.5" y="0.5" fill="none" rx="4.5"/></g><g id="Sweden" transform="translate(12.176 18.054)"><g id="Sweden-2" transform="translate(13 54.016)"><rect id="Rectangle_36" width="38.148" height="24.35" fill="#195f8c" rx="3"/><path id="Line_5" fill="none" stroke="#ffe26a" stroke-width="4" d="M0 0v24.35" transform="translate(14.204)"/><path id="Line_6" fill="none" stroke="#ffe26a" stroke-width="4" d="M38.15 0H0" transform="translate(0 12.175)"/></g><g id="Safespring" transform="translate(0 31.016)"><path id="Path_504" fill="#195f8c" d="M.71 0A.71.71 0 1 1 0 .71.7.7 0 0 1 .71 0" transform="translate(50.858 3.545)"/><path id="Path_393" fill="#195f8c" d="M11.46 30.34a3.99 3.99 0 0 0-7.93 0 3.99 3.99 0 0 0 .44 7.96h3.52a2.23 2.23 0 1 0 0-4.45 1.3 1.3 0 1 1 0-2.6 1.3 1.3 0 0 1 .91.37.46.46 0 0 0 .67-.64 2.23 2.23 0 1 0-1.58 3.8 1.3 1.3 0 1 1 0 2.6H3.97a3.06 3.06 0 0 1 0-6.12.47.47 0 0 0 .46-.47 3.06 3.06 0 0 1 6.13 0 .47.47 0 0 0 .46.47 3.06 3.06 0 0 1 0 6.12.47.47 0 1 0 0 .93 4 4 0 1 0 .44-7.98Z" transform="translate(.143 -26.772)"/><path id="Path_394" fill="#195f8c" d="M63.1 49.99c-.23-.1-.43-.16-.73-.27-.53-.17-1.06-.36-1.06-.8s.34-.68.87-.68a2 2 0 0 1 1.37.59l.46-.68a2.4 2.4 0 0 0-1.85-.7A1.64 1.64 0 0 0 60.34 49a1.4 1.4 0 0 0 .85 1.3 4 4 0 0 0 .74.3c.37.12 1.22.3 1.22.9s-.53.76-1.04.76a2.2 2.2 0 0 1-1.6-.77l-.51.63a2.6 2.6 0 0 0 2.1.97 2.3 2.3 0 0 0 1.5-.48 1.5 1.5 0 0 0 .56-1.22 1.3 1.3 0 0 0-.44-1 2 2 0 0 0-.62-.4" transform="translate(-42.508 -41.431)"/><path id="Path_395" fill="#195f8c" d="M78.66 47.46a4 4 0 0 0-2.03.55l.33.72a3.3 3.3 0 0 1 1.63-.46 1.2 1.2 0 0 1 1.34 1.23v.22l-1.46.06c-1.25.05-2.1.58-2.1 1.65a1.7 1.7 0 0 0 1.85 1.67 2.2 2.2 0 0 0 1.73-.8v.68H81v-3.15a2.2 2.2 0 0 0-.58-1.75 2.3 2.3 0 0 0-1.76-.62m1.29 4.07a1.7 1.7 0 0 1-1.37.79 1 1 0 0 1-1.12-.93c0-.52.36-.9 1.23-.94l1.27-.08Z" transform="translate(-54.109 -41.443)"/><path id="Path_396" fill="#195f8c" d="M107.53 47.46a2.7 2.7 0 0 0-2.75 2.8 2.63 2.63 0 0 0 2.71 2.83 3.2 3.2 0 0 0 2.38-.85l-.45-.63a3 3 0 0 1-1.8.63 1.67 1.67 0 0 1-1.74-1.72h4.17l.04-.48a2.47 2.47 0 0 0-2.56-2.58m-1.63 2.32a1.6 1.6 0 0 1 1.6-1.54 1.57 1.57 0 0 1 1.56 1.54Z" transform="translate(-74.264 -41.439)"/><path id="Path_397" fill="#195f8c" d="M127.47 49.99c-.23-.1-.43-.16-.73-.27-.53-.17-1.05-.36-1.05-.8s.34-.68.87-.68a2 2 0 0 1 1.37.59l.45-.68a2.4 2.4 0 0 0-1.84-.7 1.64 1.64 0 0 0-1.82 1.55 1.4 1.4 0 0 0 .85 1.3 4 4 0 0 0 .74.29c.36.12 1.22.3 1.22.9s-.55.77-1.05.77a2.2 2.2 0 0 1-1.6-.77l-.52.64a2.6 2.6 0 0 0 2.11.96 2.3 2.3 0 0 0 1.5-.48 1.5 1.5 0 0 0 .56-1.22 1.3 1.3 0 0 0-.43-1 2 2 0 0 0-.63-.4" transform="translate(-88.149 -41.43)"/><path id="Path_398" fill="#195f8c" d="M143.82 47.46a2.3 2.3 0 0 0-1.92.95h-.02v-.85h-1.05v7.47h1.1v-2.91a2.1 2.1 0 0 0 1.86.97 2.6 2.6 0 0 0 2.63-2.83 2.6 2.6 0 0 0-2.6-2.8m-.23 4.7a1.92 1.92 0 1 1 1.72-1.91 1.73 1.73 0 0 1-1.72 1.9" transform="translate(-99.829 -41.441)"/><path id="Path_503" fill="#195f8c" d="M0 0h1.1v5.4H0Z" transform="translate(51.03 6.119)"/><path id="Path_399" fill="#195f8c" d="M184.96 47.46a1.8 1.8 0 0 0-1.65.95h-.04v-.85h-1.09v5.41h1.11v-2.72c0-1.04.38-1.9 1.39-1.9s1.13.69 1.13 1.6v3.03h1.09v-3.2c0-1.31-.41-2.32-1.94-2.32" transform="translate(-129.152 -41.441)"/><path id="Path_400" fill="#195f8c" d="M205 47.56v.85a2.2 2.2 0 0 0-1.88-.96 2.72 2.72 0 0 0 0 5.45 2.2 2.2 0 0 0 1.89-.97v.2a2.4 2.4 0 0 1-.41 1.52 1.8 1.8 0 0 1-1.48.59 3.4 3.4 0 0 1-1.94-.69l-.51.77a4 4 0 0 0 2.41.8 2.9 2.9 0 0 0 2.42-1.03 3.4 3.4 0 0 0 .58-2.33v-4.2ZM203.35 52" transform="translate(-142.144 -41.438)"/><path id="Path_401" fill="#195f8c" d="M95.94 39.55a2.3 2.3 0 0 0-.37 1.46v5.94h1.08v-4.53h1.29v-.87h-1.29v-.6c0-.62.11-1.17.83-1.17a2 2 0 0 1 .46.06v-.81a4 4 0 0 0-.7-.07 1.6 1.6 0 0 0-1.3.6" transform="translate(-67.732 -35.414)"/><path id="Path_402" fill="#195f8c" d="M163.25 48.39h-.04v-.84h-1.09v5.42h1.1v-2.7a2.4 2.4 0 0 1 .32-1.37 1.1 1.1 0 0 1 .9-.46 1.4 1.4 0 0 1 .57.12V47.5a2 2 0 0 0-.45-.05 1.4 1.4 0 0 0-1.31.94" transform="translate(-114.926 -41.436)"/></g><g id="Elastisys" transform="translate(18)"><path id="Path_403" fill="#195f8c" d="m348.63 23.37.39-1.06a23 23 0 0 1 3.53-6.37 10.7 10.7 0 0 1 6.18-4.01 8.8 8.8 0 0 1 6.88 1.02 5.6 5.6 0 0 1 2.75 5.15 7.5 7.5 0 0 1-1.46 3.99 15 15 0 0 1-4.67 4.24c-1.18.7-2.43 1.3-3.66 1.94a1 1 0 0 1-.32.07 13 13 0 0 0 3.45-3.07 6 6 0 0 0 1.3-3.63 4.4 4.4 0 0 0-2.45-4.05 7.2 7.2 0 0 0-7.58.4 11 11 0 0 0-3.76 4.38l-.51 1.01Z" transform="translate(-335.738 -11.665)"/><path id="Path_404" fill="#195f8c" d="M347 47.28q.18-.94.37-1.74a15 15 0 0 1 1.78-4.56 5.6 5.6 0 0 1 3.07-2.61 4.2 4.2 0 0 1 3.13.13 2.6 2.6 0 0 1 1.37 3.61 6 6 0 0 1-2.4 2.6 17 17 0 0 1-5.27 2.12q-.96.2-2.05.45" transform="translate(-334.707 -28.396)"/><path id="Path_405" fill="#195f8c" d="M351 33.65c1.03-2.25 2.35-4.27 4.66-5.39a6.2 6.2 0 0 1 6.07.11 3.7 3.7 0 0 1 1.97 3.24 5 5 0 0 1-.84 2.77 10.6 10.6 0 0 1-3.62 3.33c-.6.37-1.25.66-1.88.98l-.04-.05a8 8 0 0 0 2.25-2.17 3.8 3.8 0 0 0 .61-3.23 3.5 3.5 0 0 0-2.9-2.5 5.4 5.4 0 0 0-5.36 1.85q-.45.53-.87 1.1Z" transform="translate(-337.236 -21.69)"/><path id="Path_406" fill="#195f8c" d="M336.32 71.67c-.02-.32.13-.35.34-.34h.83l-.74 5.12h-1.1v-.36a1.9 1.9 0 0 1-1.64.32 1.3 1.3 0 0 1-.98-1.43q.1-1.1.3-2.16a1.87 1.87 0 0 1 3-1.15Zm-.27 1.21a1 1 0 0 0-.17-.39.83.83 0 0 0-1.31.37q-.2 1-.3 2.03a.5.5 0 0 0 .11.34.8.8 0 0 0 .79.17.7.7 0 0 0 .6-.55c.1-.62.19-1.25.28-1.97" transform="translate(-325.864 -49.347)"/><path id="Path_407" fill="#195f8c" d="M385.73 78.47q.54-1.03 1-1.99a.6.6 0 0 0 .04-.36l-1.01-4.5v-.13h1.28l.63 3.2 1.54-3.21h1.3l-.82 1.65q-1.3 2.55-2.57 5.1a.4.4 0 0 1-.43.25h-.96" transform="translate(-359.193 -49.481)"/><path id="Path_408" fill="#195f8c" d="m317.12 75.42-.15 1.05c-.69 0-1.37.04-2.04 0q-1.55-.12-1.33-1.83l.23-1.55a1.94 1.94 0 0 1 1.9-1.8 3 3 0 0 1 .96.07 1.2 1.2 0 0 1 1.02 1.01 1.4 1.4 0 0 1-.64 1.6 11 11 0 0 1-1.3.56c-.25.1-.5.16-.75.26-.08.03-.22.12-.21.16a.5.5 0 0 0 .16.34 1 1 0 0 0 .47.12zm-2.15-1.73 1.3-.47a.46.46 0 0 0 .3-.52c-.03-.24-.22-.33-.44-.37-.71-.07-1.03.19-1.1.9z" transform="translate(-313.577 -49.358)"/><path id="Path_409" fill="#195f8c" d="m348.66 71.19-.16 1.1h-1.52c-.25 0-.55 0-.61.3s.24.4.45.5l.85.4a1.47 1.47 0 0 1 .04 2.58 3 3 0 0 1-1 .34c-.68.05-1.38 0-2.1 0l.16-1.04h1.86c.23-.03.45-.1.5-.37s-.1-.41-.3-.52-.46-.23-.7-.33c-.8-.37-1.12-.82-1.04-1.47a1.5 1.5 0 0 1 1.39-1.34 15 15 0 0 1 2.17-.15" transform="translate(-333.203 -49.298)"/><path id="Path_410" fill="#195f8c" d="m378.08 71.26-.15 1.05h-1.51c-.25 0-.55 0-.62.3s.24.4.46.51q.45.2.89.43a1.45 1.45 0 0 1 .07 2.47 3 3 0 0 1-1.06.4c-.7.06-1.4 0-2.1 0l.14-1.05h1.47a2 2 0 0 0 .56-.07.5.5 0 0 0 .3-.32.6.6 0 0 0-.17-.45 2 2 0 0 0-.55-.3 6 6 0 0 1-.72-.36 1.3 1.3 0 0 1 0-2.2 3 3 0 0 1 1.13-.4 17 17 0 0 1 1.86 0" transform="translate(-351.815 -49.328)"/><path id="Path_411" fill="#195f8c" d="m397 76.44.16-1.06h1.63c.3 0 .61 0 .74-.36.08-.28-.06-.46-.5-.66a9 9 0 0 1-.96-.5 1.3 1.3 0 0 1 0-2.2 3 3 0 0 1 1.12-.4 17 17 0 0 1 1.86 0l-.15 1.04h-1.3a2 2 0 0 0-.56.06.5.5 0 0 0-.28.27c-.02.09.09.25.18.32a4 4 0 0 0 .58.3l.61.3a1.47 1.47 0 0 1 .11 2.43 2.2 2.2 0 0 1-1.27.45q-.98.03-1.97.01" transform="translate(-366.318 -49.325)"/><path id="Path_412" fill="#195f8c" d="M325.58 67.1h-.73l.15-1.06h1.99l-.86 6.06h.86l-.15 1.04h-2.97l.15-1.03h.87Z" transform="translate(-320.084 -46.042)"/><path id="Path_413" fill="#195f8c" d="M357.38 68.41h1.21l-.14 1.1h.71c.23 0 .26.07.22.26l-.12.74h-.96l-.39 2.72c-.03.27.14.37.37.37h.89l-.15 1.07a5 5 0 0 1-1.7-.12 1 1 0 0 1-.63-1.18l.4-2.83h-.95l.16-1.06h.93Z" transform="translate(-340.486 -47.54)"/><path id="Path_414" fill="#195f8c" d="m367.76 71.32-.58 4.12h.87l-.15 1.05h-2.97l.15-1.06h.87l.42-3.06h-.74l.15-1.05Z" transform="translate(-346.043 -49.38)"/><path id="Path_415" fill="#195f8c" d="M369.75 65.62h1.22l-.17 1.32h-1.24Z" transform="translate(-348.97 -45.776)"/><path id="Path_416" fill="#195f8c" d="m350.98 44.26-.06.1h-.04l.05-.13Z" transform="translate(-337.16 -32.253)"/><path id="Path_417" fill="#195f8c" d="m368.11 57.8-.11.03v-.04l.1-.06Z" transform="translate(-347.984 -40.788)"/></g></g></g><g id="Group_505" transform="translate(11 1)"><g id="Rectangle_38" fill="#fff" stroke="#ebf1f5" stroke-width="1"><rect width="88" height="115" stroke="none" rx="5"/><rect width="87" height="114" x="0.5" y="0.5" fill="none" rx="4.5"/></g><g id="USA" transform="translate(23 20)"><g id="Group_507"><g id="Group_497"><path id="Path_464" fill="#4285f3" d="M306.69-82.54a10 10 0 0 1 1.42 1.5 12 12 0 0 1 2.06 4.04.3.3 0 0 0 .1.16 8.3 8.3 0 0 1 3.11 4.16 8 8 0 0 1 .4 3.58 8.2 8.2 0 0 1-2.13 4.73 8.3 8.3 0 0 1-4.7 2.62 9 9 0 0 1-1.71.14h-6.26v-5.16h6.41a4 4 0 0 0 .62-.06 3.23 3.23 0 0 0 2.57-3.86 3.2 3.2 0 0 0-3.02-2.52q-.14 0-.13-.13v-.83a6.4 6.4 0 0 0-.72-2.65 7 7 0 0 0-1.68-2.06Z" transform="translate(-278.337 85.475)"/><path id="Path_465" fill="#fabb05" d="M-214 77.4a8 8 0 0 1-1.54-1.52 8 8 0 0 1-1.77-4.7 8.3 8.3 0 0 1 3.51-7.3l.11-.1a11 11 0 0 1 1.34-.73 9 9 0 0 1 2.97-.71 8 8 0 0 1 1.28.03q.44.05.86.12l.07.02a8.4 8.4 0 0 1 4.83 3.03q.1.1 0 .2-1.8 1.78-3.57 3.56c-.08.08-.1.08-.16-.02a3.2 3.2 0 0 0-3.37-1.75 3.22 3.22 0 0 0-2.18 4.97 3.4 3.4 0 0 0 1.35 1.15l-.05.06Z" transform="translate(223.144 -55.24)"/><path id="Path_466" fill="#e94335" d="m-84.4-177.48-.87-.12a8 8 0 0 0-1.28-.03 9 9 0 0 0-2.97.7 11 11 0 0 0-1.34.74 11 11 0 0 1 1.31-3.02 11.5 11.5 0 0 1 7.04-5.17 11 11 0 0 1 2.54-.35 11.5 11.5 0 0 1 5.5 1.22 11 11 0 0 1 2.42 1.63l.08.08-3.65 3.65-.08-.06a6.3 6.3 0 0 0-4.69-1.32 6.3 6.3 0 0 0-4.02 2.05" transform="translate(100.316 184.736)"/><path id="Path_467" fill="#34a753" d="m-101.76 460.67 3.69-3.68.04-.05a4 4 0 0 0 1.81.28h5.97v5.16h-6.46a8.3 8.3 0 0 1-4.9-1.59z" transform="translate(110.903 -438.522)"/><path id="Path_468" fill="#606469" d="M-416.27 950.2h1.18q.14 0 .14.13a2.52 2.52 0 0 1-2.44 2.97 2.9 2.9 0 0 1-2.87-1.78 2.84 2.84 0 0 1 2.24-3.86 2.8 2.8 0 0 1 2.28.65q.14.1 0 .2l-.35.36c-.07.07-.1.09-.2.02a2.02 2.02 0 0 0-3.3 1.18 2.05 2.05 0 0 0 1.69 2.43 2 2 0 0 0 1.35-.24 1.6 1.6 0 0 0 .8-1.12c.01-.1 0-.15-.12-.15h-1.58q-.17.01-.14-.14v-.53q0-.13.11-.11z" transform="translate(420.47 -915.131)"/><path id="Path_469" fill="#606469" d="M63.37 1020.85a1.4 1.4 0 0 1-1.64.28 1.7 1.7 0 0 1-1.08-1.43 1.8 1.8 0 0 1 1.14-1.98 1.4 1.4 0 0 1 1.53.26l.04.02.01-.03c.02-.25.02-.25.27-.25h.39q.13 0 .12.12v1.86c0 .55.02 1.1-.03 1.64a1.64 1.64 0 0 1-1.88 1.56 1.7 1.7 0 0 1-1.4-.95q-.1-.14.07-.18l.46-.2c.09-.04.12-.02.17.07a1 1 0 0 0 1.26.47.9.9 0 0 0 .57-.88zm-1.92-1.4a1 1 0 0 0 .03.32 1 1 0 0 0 .86.76.9.9 0 0 0 .96-.54 1.2 1.2 0 0 0-.04-1.18.9.9 0 0 0-.89-.47 1.04 1.04 0 0 0-.92 1.12" transform="translate(-46.829 -983.093)"/><path id="Path_470" fill="#606469" d="M902.47 970.61c-.04-.65-.01-1.27-.03-1.88q-.02-.2.17-.17h.35q.14-.01.13.13v4.67q.02.19-.16.16h-.37q-.1 0-.1-.09v-.4a1.4 1.4 0 0 1-.38.38 1.5 1.5 0 0 1-1.84-.2 1.95 1.95 0 0 1 .2-2.94 1.5 1.5 0 0 1 2.03.34m0 1.2-.02-.3a1.1 1.1 0 0 0-.83-.88 1 1 0 0 0-1.08.45 1.4 1.4 0 0 0 .03 1.54 1.03 1.03 0 0 0 1.7-.05 1.3 1.3 0 0 0 .2-.77Z" transform="translate(-861.791 -935.459)"/><path id="Path_471" fill="#606469" d="M-216.36 1017.89a1.8 1.8 0 0 1 1.83 1.83 1.8 1.8 0 0 1-1.85 1.83 1.8 1.8 0 0 1-1.83-1.88 1.8 1.8 0 0 1 1.85-1.78m-.01 2.93a1 1 0 0 0 .62-.23 1.1 1.1 0 0 0 .36-1.18 1 1 0 0 0-1.15-.78 1.04 1.04 0 0 0-.85.94 1.07 1.07 0 0 0 1.02 1.25" transform="translate(224.018 -983.372)"/><path id="Path_472" fill="#606469" d="M-75.17 1019.72a1.8 1.8 0 0 1-1.86 1.83 1.8 1.8 0 0 1-1.82-1.88 1.8 1.8 0 0 1 1.88-1.78 1.8 1.8 0 0 1 1.8 1.83m-2.87 0 .02.2a1.1 1.1 0 0 0 .74.86 1 1 0 0 0 1.08-.38 1.2 1.2 0 0 0 .04-1.31 1 1 0 0 0-.93-.47 1.03 1.03 0 0 0-.94 1.1Z" transform="translate(88.652 -983.371)"/><path id="Path_473" fill="#606469" d="M244.55 1017.81a1.6 1.6 0 0 1 1.51 1.04c.16.33.16.33-.17.47l-2 .82c-.1.05-.13.08-.06.18a1 1 0 0 0 1.6.04c.09-.1.14-.11.24-.03l.4.27q.12.04.03.15a1.8 1.8 0 0 1-1.91.67 1.7 1.7 0 0 1-1.33-1.35 1.8 1.8 0 0 1 1.08-2.15 2 2 0 0 1 .6-.1m-.92 1.75q.08.01.14-.04l1.3-.54c.2-.08.2-.12.04-.26l-.07-.05a.8.8 0 0 0-.89-.02 1 1 0 0 0-.52.91" transform="translate(-223.782 -983.302)"/><path id="Path_474" fill="#606469" d="M417.92 967.08a1.86 1.86 0 0 0 1.49 1.92 1.9 1.9 0 0 0 1.8-.53c.15-.15.15-.15.3 0l.22.22q.09.06 0 .16a2.4 2.4 0 0 1-1.52.78 2.5 2.5 0 0 1-2.52-1.1 2.6 2.6 0 0 1 1.47-3.97 2.4 2.4 0 0 1 2.32.55c.19.16.19.16.01.34-.08.08-.17.22-.27.24s-.17-.14-.26-.22a1.9 1.9 0 0 0-3 1.13 2 2 0 0 0-.04.48" transform="translate(-393.205 -931.486)"/><path id="Path_475" fill="#606469" d="M640.18 1020.47a1.7 1.7 0 0 1-1.25 1.74 1.82 1.82 0 0 1-1.38-3.32 1.75 1.75 0 0 1 2.63 1.58m-.64-.04-.03-.26a1.1 1.1 0 0 0-.87-.9 1.1 1.1 0 0 0-1.12.5 1.4 1.4 0 0 0 .02 1.44 1.07 1.07 0 0 0 1.68.13 1.3 1.3 0 0 0 .32-.9Z" transform="translate(-606.348 -984.101)"/><path id="Path_476" fill="#606469" d="M778.44 1025.84a1.4 1.4 0 0 1-1.24.58 1.2 1.2 0 0 1-1.13-1.08l-.02-.5v-1.78q0-.17.15-.15h.36q.14-.01.14.14v1.78l.03.38a.7.7 0 0 0 .53.6.8.8 0 0 0 .9-.27 1 1 0 0 0 .26-.75v-1.74q-.02-.14.13-.14h.42q.1-.01.1.1v3.21q0 .11-.1.1h-.42q-.11 0-.1-.11z" transform="translate(-741.709 -988.254)"/><path id="Path_477" fill="#606469" d="M202.56 956.9v2.54q.01.15-.14.13h-.53q-.16.02-.15-.15v-5.1q0-.14.12-.12h.56c.12 0 .14.03.14.13z" transform="translate(-183.89 -921.51)"/><path id="Path_478" fill="#606469" d="M595.96 971.05v2.33q.02.16-.14.15h-.39q-.14.01-.11-.13v-4.67q-.02-.2.16-.16h.36q.13-.02.12.13z" transform="translate(-566.163 -935.466)"/></g><g id="USA-2" transform="translate(1.577 50.19)"><rect id="Rectangle_36-2" width="38.148" height="24.35" fill="#d82f19" rx="3" transform="translate(0 .032)"/><path id="Line_6-2" fill="none" stroke="#e6e6e6" stroke-width="3" d="M38.15 0H0" transform="translate(0 19.5)"/><path id="Line_10" fill="none" stroke="#e6e6e6" stroke-width="3" d="M38.15 0H0" transform="translate(0 12.5)"/><path id="Line_11" fill="none" stroke="#e6e6e6" stroke-width="3" d="M38.15 0H0" transform="translate(0 5.5)"/><path id="Rectangle_37" fill="#195f8c" d="M3 0h13v14H0V3a3 3 0 0 1 3-3"/><circle id="Ellipse_27" cx="1" cy="1" r="1" fill="#fff" transform="translate(2 6)"/><circle id="Ellipse_28" cx="1" cy="1" r="1" fill="#fff" transform="translate(7 2)"/><circle id="Ellipse_29" cx="1" cy="1" r="1" fill="#fff" transform="translate(12 2)"/><circle id="Ellipse_30" cx="1" cy="1" r="1" fill="#fff" transform="translate(2 10)"/><circle id="Ellipse_31" cx="1" cy="1" r="1" fill="#fff" transform="translate(7 6)"/><circle id="Ellipse_33" cx="1" cy="1" r="1" fill="#fff" transform="translate(7 10)"/><circle id="Ellipse_34" cx="1" cy="1" r="1" fill="#fff" transform="translate(12 6)"/><circle id="Ellipse_35" cx="1" cy="1" r="1" fill="#fff" transform="translate(12 10)"/><circle id="Ellipse_36" cx="1" cy="1" r="1" fill="#fff" transform="translate(2 2)"/></g></g></g></g></g></g></svg>