<svg xmlns="http://www.w3.org/2000/svg" xmlns:xlink="http://www.w3.org/1999/xlink" width="454" height="454" viewBox="0 0 454 454">
  <defs>
    <filter id="Rectangle_40" x="1" y="82" width="452" height="296" filterUnits="userSpaceOnUse">
      <feOffset dy="3" input="SourceAlpha"/>
      <feGaussianBlur stdDeviation="3" result="blur"/>
      <feFlood flood-opacity="0.161"/>
      <feComposite operator="in" in2="blur"/>
      <feComposite in="SourceGraphic"/>
    </filter>
    <clipPath id="clip-Artboard_1">
      <rect width="454" height="454"/>
    </clipPath>
  </defs>
  <g id="Artboard_1" data-name="Artboard – 1" clip-path="url(#clip-Artboard_1)">
    <g transform="matrix(1, 0, 0, 1, 0, 0)" filter="url(#Rectangle_40)">
      <rect id="Rectangle_40-2" data-name="Rectangle 40" width="434" height="278" rx="10" transform="translate(10 88)" fill="#fff"/>
    </g>
    <g id="Group_509" data-name="Group 509" transform="translate(79 169)">
      <g id="Pil" transform="translate(126.638 45)">
        <line id="Line_7" data-name="Line 7" x2="42" transform="translate(0.362 13)" fill="none" stroke="#707070" stroke-linecap="round" stroke-width="2"/>
        <line id="Line_8" data-name="Line 8" x2="14" y2="13" transform="translate(28.362)" fill="none" stroke="#707070" stroke-linecap="round" stroke-width="2"/>
        <line id="Line_9" data-name="Line 9" y1="15" x2="13" transform="translate(29.362 13)" fill="none" stroke="#707070" stroke-linecap="round" stroke-width="2"/>
      </g>
      <g id="Group_504" data-name="Group 504" transform="translate(196.954 1)">
        <g id="Rectangle_39" data-name="Rectangle 39" transform="translate(0.046)" fill="#fff" stroke="#ebf1f5" stroke-width="1">
          <rect width="88" height="115" rx="5" stroke="none"/>
          <rect x="0.5" y="0.5" width="87" height="114" rx="4.5" fill="none"/>
        </g>
        <g id="Sweden" transform="translate(12.176 18.054)">
          <g id="Sweden-2" data-name="Sweden" transform="translate(13 54.016)">
            <rect id="Rectangle_36" data-name="Rectangle 36" width="38.148" height="24.35" rx="3" fill="#195f8c"/>
            <line id="Line_5" data-name="Line 5" y2="24.35" transform="translate(14.204)" fill="none" stroke="#ffe26a" stroke-width="4"/>
            <line id="Line_6" data-name="Line 6" x1="38.148" transform="translate(0 12.175)" fill="none" stroke="#ffe26a" stroke-width="4"/>
          </g>
          <g id="Safespring" transform="translate(0 31.016)">
            <path id="Path_504" data-name="Path 504" d="M.713,0A.713.713,0,1,1,0,.713.713.713,0,0,1,.713,0Z" transform="translate(50.858 3.545)" fill="#195f8c"/>
            <path id="Path_393" data-name="Path 393" d="M11.46,30.343a3.987,3.987,0,0,0-7.931,0A3.987,3.987,0,0,0,3.97,38.3H7.492a2.228,2.228,0,1,0,0-4.453,1.3,1.3,0,1,1,0-2.6,1.285,1.285,0,0,1,.91.378.464.464,0,0,0,.669-.643h0a2.228,2.228,0,1,0-1.576,3.8,1.3,1.3,0,1,1,0,2.6H3.97a3.063,3.063,0,0,1,0-6.125.465.465,0,0,0,.462-.465,3.063,3.063,0,0,1,6.125,0h0a.465.465,0,0,0,.465.465,3.063,3.063,0,0,1,0,6.125h0a.465.465,0,1,0,0,.928,4,4,0,1,0,.436-7.981Z" transform="translate(0.143 -26.772)" fill="#195f8c"/>
            <path id="Path_394" data-name="Path 394" d="M63.1,49.987c-.227-.093-.433-.16-.73-.262-.535-.172-1.059-.366-1.059-.809s.343-.672.873-.672a1.966,1.966,0,0,1,1.367.582l.457-.675a2.37,2.37,0,0,0-1.844-.7A1.638,1.638,0,0,0,60.34,49a1.393,1.393,0,0,0,.852,1.3,3.973,3.973,0,0,0,.742.291c.364.125,1.219.308,1.219.9s-.535.771-1.041.771a2.225,2.225,0,0,1-1.6-.774L60,52.119a2.6,2.6,0,0,0,2.106.969,2.3,2.3,0,0,0,1.5-.48,1.541,1.541,0,0,0,.55-1.222,1.326,1.326,0,0,0-.433-1A2.056,2.056,0,0,0,63.1,49.987Z" transform="translate(-42.508 -41.431)" fill="#195f8c"/>
            <path id="Path_395" data-name="Path 395" d="M78.661,47.46a4.177,4.177,0,0,0-2.036.547l.332.727a3.313,3.313,0,0,1,1.629-.465A1.187,1.187,0,0,1,79.929,49.5v.218l-1.454.058c-1.254.055-2.114.582-2.114,1.649a1.708,1.708,0,0,0,1.864,1.672,2.216,2.216,0,0,0,1.722-.8v.683H81V49.827a2.2,2.2,0,0,0-.582-1.745A2.271,2.271,0,0,0,78.661,47.46Zm1.288,4.072a1.7,1.7,0,0,1-1.367.788.987.987,0,0,1-1.117-.934c0-.512.355-.887,1.23-.934l1.265-.079Z" transform="translate(-54.109 -41.443)" fill="#195f8c"/>
            <path id="Path_396" data-name="Path 396" d="M107.526,47.456a2.685,2.685,0,0,0-2.743,2.8,2.625,2.625,0,0,0,2.708,2.833,3.173,3.173,0,0,0,2.379-.852l-.454-.628a2.984,2.984,0,0,1-1.789.628,1.671,1.671,0,0,1-1.745-1.719h4.168a4.442,4.442,0,0,0,.035-.48,2.469,2.469,0,0,0-2.559-2.583ZM105.9,49.783a1.591,1.591,0,0,1,1.6-1.547,1.568,1.568,0,0,1,1.559,1.547Z" transform="translate(-74.264 -41.439)" fill="#195f8c"/>
            <path id="Path_397" data-name="Path 397" d="M127.472,49.987c-.227-.093-.433-.16-.727-.262-.538-.172-1.059-.366-1.059-.809s.34-.672.873-.672a1.981,1.981,0,0,1,1.367.582l.457-.675a2.365,2.365,0,0,0-1.844-.7,1.638,1.638,0,0,0-1.824,1.547,1.393,1.393,0,0,0,.852,1.3,4.138,4.138,0,0,0,.742.291c.364.125,1.219.308,1.219.9s-.544.774-1.047.774a2.225,2.225,0,0,1-1.594-.774l-.526.637a2.6,2.6,0,0,0,2.109.966,2.3,2.3,0,0,0,1.5-.477,1.536,1.536,0,0,0,.558-1.224,1.326,1.326,0,0,0-.433-1A2,2,0,0,0,127.472,49.987Z" transform="translate(-88.149 -41.43)" fill="#195f8c"/>
            <path id="Path_398" data-name="Path 398" d="M143.817,47.458a2.286,2.286,0,0,0-1.917.957h-.023V47.56H140.83v7.466h1.094V52.118h0a2.1,2.1,0,0,0,1.864.974,2.622,2.622,0,0,0,2.632-2.833A2.579,2.579,0,0,0,143.817,47.458Zm-.227,4.7a1.917,1.917,0,1,1,1.719-1.911A1.727,1.727,0,0,1,143.59,52.158Z" transform="translate(-99.829 -41.441)" fill="#195f8c"/>
            <path id="Path_503" data-name="Path 503" d="M0,0H1.094V5.407H0Z" transform="translate(51.03 6.119)" fill="#195f8c"/>
            <path id="Path_399" data-name="Path 399" d="M184.96,47.458a1.821,1.821,0,0,0-1.655.957h-.032V47.56H182.18v5.413h1.111V50.247c0-1.035.375-1.89,1.387-1.89s1.128.683,1.128,1.6v3.019H186.9v-3.2C186.9,48.47,186.49,47.458,184.96,47.458Z" transform="translate(-129.152 -41.441)" fill="#195f8c"/>
            <path id="Path_400" data-name="Path 400" d="M205.008,47.556v.855h0a2.155,2.155,0,0,0-1.891-.957,2.723,2.723,0,0,0,0,5.442,2.167,2.167,0,0,0,1.891-.969h0v.212a2.414,2.414,0,0,1-.41,1.515,1.841,1.841,0,0,1-1.48.582,3.432,3.432,0,0,1-1.937-.683l-.512.762a4.162,4.162,0,0,0,2.411.809,2.863,2.863,0,0,0,2.417-1.038,3.436,3.436,0,0,0,.582-2.327v-4.2ZM203.336,52a1.842,1.842,0,1,1,0,.006Z" transform="translate(-142.144 -41.438)" fill="#195f8c"/>
            <path id="Path_401" data-name="Path 401" d="M95.936,39.552a2.288,2.288,0,0,0-.366,1.454v5.939h1.082V42.42h1.286v-.873H96.652v-.6c0-.617.113-1.163.832-1.163a2.208,2.208,0,0,1,.457.058v-.814a3.61,3.61,0,0,0-.707-.064A1.632,1.632,0,0,0,95.936,39.552Z" transform="translate(-67.732 -35.414)" fill="#195f8c"/>
            <path id="Path_402" data-name="Path 402" d="M163.248,48.386h-.035v-.832H162.12v5.413h1.094v-2.7a2.426,2.426,0,0,1,.329-1.37,1.14,1.14,0,0,1,.89-.454,1.37,1.37,0,0,1,.582.113V47.5a1.7,1.7,0,0,0-.454-.055A1.416,1.416,0,0,0,163.248,48.386Z" transform="translate(-114.926 -41.436)" fill="#195f8c"/>
          </g>
          <g id="Elastisys" transform="translate(18)">
            <path id="Path_403" data-name="Path 403" d="M348.63,23.374c.129-.368.254-.706.39-1.059a22.882,22.882,0,0,1,3.527-6.377,10.68,10.68,0,0,1,6.179-4.009,8.817,8.817,0,0,1,6.881,1.026,5.589,5.589,0,0,1,2.751,5.149,7.459,7.459,0,0,1-1.453,3.983,14.818,14.818,0,0,1-4.678,4.244c-1.181.706-2.431,1.3-3.656,1.935a.788.788,0,0,1-.324.07,12.5,12.5,0,0,0,3.454-3.064A5.885,5.885,0,0,0,363,21.641a4.413,4.413,0,0,0-2.453-4.046,7.147,7.147,0,0,0-7.576.39,10.982,10.982,0,0,0-3.759,4.38c-.18.335-.342.68-.515,1.019Z" transform="translate(-335.738 -11.665)" fill="#195f8c"/>
            <path id="Path_404" data-name="Path 404" d="M347,47.276c.129-.629.228-1.188.368-1.74a14.855,14.855,0,0,1,1.784-4.553,5.639,5.639,0,0,1,3.067-2.615,4.219,4.219,0,0,1,3.134.132,2.608,2.608,0,0,1,1.365,3.612,6.1,6.1,0,0,1-2.405,2.589,16.829,16.829,0,0,1-5.259,2.126C348.4,46.974,347.736,47.1,347,47.276Z" transform="translate(-334.707 -28.396)" fill="#195f8c"/>
            <path id="Path_405" data-name="Path 405" d="M351,33.652c1.03-2.251,2.35-4.277,4.66-5.392a6.191,6.191,0,0,1,6.072.114,3.718,3.718,0,0,1,1.971,3.24,4.877,4.877,0,0,1-.842,2.766,10.57,10.57,0,0,1-3.626,3.332c-.6.368-1.25.655-1.876.982l-.044-.051a8.092,8.092,0,0,0,2.255-2.174,3.8,3.8,0,0,0,.614-3.233,3.523,3.523,0,0,0-2.9-2.49,5.433,5.433,0,0,0-5.366,1.839c-.313.346-.577.736-.864,1.1Z" transform="translate(-337.236 -21.69)" fill="#195f8c"/>
            <path id="Path_406" data-name="Path 406" d="M336.317,71.666c-.022-.313.129-.349.346-.335s.519,0,.828,0l-.736,5.123h-1.1v-.368a1.865,1.865,0,0,1-1.64.324,1.3,1.3,0,0,1-.989-1.431c.085-.736.162-1.445.305-2.159a1.865,1.865,0,0,1,2.99-1.155Zm-.272,1.214a1.078,1.078,0,0,0-.169-.386.833.833,0,0,0-1.306.368c-.14.666-.217,1.35-.3,2.03a.489.489,0,0,0,.114.335.761.761,0,0,0,.783.169.677.677,0,0,0,.6-.548c.1-.622.188-1.247.287-1.968Z" transform="translate(-325.864 -49.347)" fill="#195f8c"/>
            <path id="Path_407" data-name="Path 407" d="M385.73,78.475c.368-.71.684-1.346.993-1.99a.607.607,0,0,0,.044-.368c-.327-1.5-.669-2.994-1.008-4.491a.82.82,0,0,1,0-.136h1.28c.2,1.026.4,2.067.629,3.2l1.541-3.211h1.3c-.28.566-.548,1.1-.82,1.651-.861,1.7-1.725,3.4-2.574,5.1a.368.368,0,0,1-.423.254C386.392,78.461,386.094,78.475,385.73,78.475Z" transform="translate(-359.193 -49.481)" fill="#195f8c"/>
            <path id="Path_408" data-name="Path 408" d="M317.123,75.418l-.151,1.056c-.691,0-1.368.037-2.041,0-1.044-.074-1.471-.706-1.328-1.839.07-.515.147-1.026.228-1.541a1.938,1.938,0,0,1,1.9-1.795,3.116,3.116,0,0,1,.96.063,1.206,1.206,0,0,1,1.019,1.011,1.427,1.427,0,0,1-.64,1.6,10.612,10.612,0,0,1-1.309.559c-.243.1-.493.162-.736.254-.085.033-.221.121-.217.166a.53.53,0,0,0,.162.342.978.978,0,0,0,.471.114C315.994,75.425,316.546,75.418,317.123,75.418Zm-2.155-1.732c.467-.165.886-.309,1.3-.463a.456.456,0,0,0,.309-.522c-.037-.239-.228-.327-.452-.368-.706-.077-1.026.184-1.1.894A4.452,4.452,0,0,1,314.968,73.685Z" transform="translate(-313.577 -49.358)" fill="#195f8c"/>
            <path id="Path_409" data-name="Path 409" d="M348.655,71.19l-.158,1.1h-1.515c-.25,0-.548,0-.614.3s.239.4.452.508c.276.143.57.25.846.4a1.471,1.471,0,0,1,.04,2.574,2.5,2.5,0,0,1-.989.342c-.691.051-1.39,0-2.1,0l.154-1.045h1.416a3.462,3.462,0,0,0,.438,0c.235-.033.452-.1.511-.368s-.107-.412-.3-.519-.467-.228-.7-.335c-.805-.368-1.125-.816-1.048-1.471a1.5,1.5,0,0,1,1.39-1.339A15.1,15.1,0,0,1,348.655,71.19Z" transform="translate(-333.203 -49.298)" fill="#195f8c"/>
            <path id="Path_410" data-name="Path 410" d="M378.083,71.264l-.154,1.048h-1.512c-.25,0-.552,0-.618.3s.239.4.456.508c.294.151.607.268.894.43a1.449,1.449,0,0,1,.07,2.468,2.667,2.667,0,0,1-1.063.394c-.691.063-1.39,0-2.1,0l.147-1.045h1.471a1.611,1.611,0,0,0,.552-.063.53.53,0,0,0,.313-.324.607.607,0,0,0-.184-.449,2.413,2.413,0,0,0-.544-.294,6.254,6.254,0,0,1-.717-.368,1.3,1.3,0,0,1,0-2.207,2.63,2.63,0,0,1,1.125-.4A17.356,17.356,0,0,1,378.083,71.264Z" transform="translate(-351.815 -49.328)" fill="#195f8c"/>
            <path id="Path_411" data-name="Path 411" d="M397,76.443l.158-1.059h1.633c.294,0,.611,0,.736-.368.085-.272-.062-.452-.489-.658a8.563,8.563,0,0,1-.971-.489,1.3,1.3,0,0,1,0-2.207,2.629,2.629,0,0,1,1.122-.4,17.377,17.377,0,0,1,1.861,0L400.9,72.3H399.6a1.838,1.838,0,0,0-.555.055.467.467,0,0,0-.287.272c-.022.092.088.254.184.32a4.121,4.121,0,0,0,.581.3c.2.1.412.195.607.305a1.471,1.471,0,0,1,.114,2.427,2.207,2.207,0,0,1-1.273.449C398.309,76.461,397.673,76.443,397,76.443Z" transform="translate(-366.318 -49.325)" fill="#195f8c"/>
            <path id="Path_412" data-name="Path 412" d="M325.584,67.1h-.736L325,66.04h1.986l-.857,6.061h.861l-.151,1.037H323.87l.151-1.03h.868Z" transform="translate(-320.084 -46.042)" fill="#195f8c"/>
            <path id="Path_413" data-name="Path 413" d="M357.376,68.41h1.214l-.14,1.1h.714c.224,0,.257.074.217.265s-.077.471-.118.736H358.3c-.129.919-.258,1.839-.386,2.722-.037.268.132.368.368.368h.883l-.14,1.067a5.389,5.389,0,0,1-1.714-.118.982.982,0,0,1-.618-1.184c.132-.934.258-1.872.39-2.828h-.938l.151-1.059h.938Z" transform="translate(-340.486 -47.54)" fill="#195f8c"/>
            <path id="Path_414" data-name="Path 414" d="M367.758,71.32c-.195,1.379-.368,2.733-.577,4.116h.868l-.151,1.052H364.93l.151-1.056h.864l.423-3.064h-.736l.147-1.048Z" transform="translate(-346.043 -49.38)" fill="#195f8c"/>
            <path id="Path_415" data-name="Path 415" d="M369.748,65.62h1.225l-.177,1.317H369.56Z" transform="translate(-348.97 -45.776)" fill="#195f8c"/>
            <path id="Path_416" data-name="Path 416" d="M350.979,44.263l-.063.088h-.037l.048-.121Z" transform="translate(-337.16 -32.253)" fill="#195f8c"/>
            <path id="Path_417" data-name="Path 417" d="M368.11,57.793l-.11.037v-.037a.813.813,0,0,1,.092-.063Z" transform="translate(-347.984 -40.788)" fill="#195f8c"/>
          </g>
        </g>
      </g>
      <g id="Group_505" data-name="Group 505" transform="translate(11 1)">
        <g id="Rectangle_38" data-name="Rectangle 38" fill="#fff" stroke="#ebf1f5" stroke-width="1">
          <rect width="88" height="115" rx="5" stroke="none"/>
          <rect x="0.5" y="0.5" width="87" height="114" rx="4.5" fill="none"/>
        </g>
        <g id="USA" transform="translate(23 20)">
          <g id="Group_507" data-name="Group 507">
            <g id="Group_497" data-name="Group 497">
              <path id="Path_464" data-name="Path 464" d="M306.686-82.542a10.284,10.284,0,0,1,1.427,1.506A11.531,11.531,0,0,1,310.167-77a.268.268,0,0,0,.108.159,8.326,8.326,0,0,1,3.107,4.156,8.18,8.18,0,0,1,.391,3.589,8.2,8.2,0,0,1-2.126,4.728,8.246,8.246,0,0,1-4.7,2.619,9.151,9.151,0,0,1-1.711.139q-3.035,0-6.07,0c-.062,0-.124,0-.186-.007v-5.153c.057,0,.114-.005.172-.005h6.24a3.606,3.606,0,0,0,.613-.053,3.226,3.226,0,0,0,2.57-3.867,3.207,3.207,0,0,0-3.018-2.513c-.1,0-.126-.037-.125-.133,0-.277,0-.554-.011-.831a6.392,6.392,0,0,0-.713-2.648,6.68,6.68,0,0,0-1.68-2.064Z" transform="translate(-278.337 85.475)" fill="#4285f3"/>
              <path id="Path_465" data-name="Path 465" d="M-214,77.392a7.59,7.59,0,0,1-1.542-1.509,8.054,8.054,0,0,1-1.766-4.7,8.259,8.259,0,0,1,3.51-7.309c.038-.028.073-.06.11-.091a11.167,11.167,0,0,1,1.338-.737,8.461,8.461,0,0,1,2.969-.71,7.958,7.958,0,0,1,1.283.034c.288.032.574.078.861.117a.482.482,0,0,0,.065.025,8.375,8.375,0,0,1,4.831,3.031c.061.077.073.118-.006.2q-1.785,1.776-3.562,3.56c-.081.081-.105.081-.16-.027a3.2,3.2,0,0,0-3.366-1.742,3.221,3.221,0,0,0-2.183,4.969,3.435,3.435,0,0,0,1.346,1.149c-.015.018-.029.038-.046.054Z" transform="translate(223.144 -55.24)" fill="#fabb05"/>
              <path id="Path_466" data-name="Path 466" d="M-84.406-177.483c-.287-.04-.573-.086-.861-.117a7.956,7.956,0,0,0-1.283-.034,8.461,8.461,0,0,0-2.969.71,11.169,11.169,0,0,0-1.338.737,10.719,10.719,0,0,1,1.311-3.022,11.53,11.53,0,0,1,7.036-5.175,11.034,11.034,0,0,1,2.535-.348,11.467,11.467,0,0,1,5.506,1.222,11.328,11.328,0,0,1,2.42,1.627c.029.025.055.053.082.079l-3.654,3.655c-.027-.019-.055-.037-.081-.057a6.324,6.324,0,0,0-4.685-1.322A6.311,6.311,0,0,0-84.406-177.483Z" transform="translate(100.316 184.736)" fill="#e94335"/>
              <path id="Path_467" data-name="Path 467" d="M-101.756,460.674l3.685-3.683c.017-.017.03-.036.046-.054a4.316,4.316,0,0,0,1.807.285c1.931-.01,3.861,0,5.792,0,.057,0,.114,0,.172.006q0,2.577,0,5.153c-.057,0-.114.006-.172.006-2.094,0-4.188,0-6.282,0a8.26,8.26,0,0,1-4.9-1.593C-101.661,460.754-101.708,460.713-101.756,460.674Z" transform="translate(110.903 -438.522)" fill="#34a753"/>
              <path id="Path_468" data-name="Path 468" d="M-416.27,950.206c.392,0,.784,0,1.176,0,.1,0,.133.036.144.128a2.524,2.524,0,0,1-2.442,2.969,2.9,2.9,0,0,1-2.872-1.788,2.835,2.835,0,0,1,2.242-3.855,2.787,2.787,0,0,1,2.282.652c.09.078.1.125.005.207a4.549,4.549,0,0,0-.356.354c-.065.071-.1.087-.191.014a2.023,2.023,0,0,0-3.3,1.185,2.046,2.046,0,0,0,1.68,2.427,2.015,2.015,0,0,0,1.357-.241,1.558,1.558,0,0,0,.787-1.123c.018-.1.014-.149-.116-.147-.526.008-1.052,0-1.578.006-.117,0-.145-.035-.14-.145.009-.177.007-.354,0-.531,0-.09.027-.113.114-.112C-417.074,950.208-416.672,950.206-416.27,950.206Z" transform="translate(420.47 -915.131)" fill="#606469"/>
              <path id="Path_469" data-name="Path 469" d="M63.368,1020.849a1.37,1.37,0,0,1-1.638.278,1.707,1.707,0,0,1-1.079-1.43,1.812,1.812,0,0,1,1.139-1.978,1.382,1.382,0,0,1,1.534.262.147.147,0,0,0,.033.018c.007-.011.014-.018.015-.026.015-.256.014-.256.267-.256.129,0,.259.006.387,0,.1-.006.12.029.12.122,0,.622,0,1.244,0,1.865,0,.545.024,1.09-.022,1.635a1.639,1.639,0,0,1-1.882,1.563,1.721,1.721,0,0,1-1.409-.952c-.06-.1-.034-.145.072-.183a4.888,4.888,0,0,0,.462-.194c.089-.042.127-.021.174.064a.981.981,0,0,0,1.257.476.919.919,0,0,0,.572-.883C63.376,1021.109,63.368,1020.989,63.368,1020.849Zm-1.922-1.391a1.01,1.01,0,0,0,.036.308,1.039,1.039,0,0,0,.854.766.929.929,0,0,0,.968-.545,1.216,1.216,0,0,0-.047-1.18.866.866,0,0,0-.883-.466A1.039,1.039,0,0,0,61.446,1019.458Z" transform="translate(-46.829 -983.093)" fill="#606469"/>
              <path id="Path_470" data-name="Path 470" d="M902.474,970.611c-.049-.654-.017-1.27-.031-1.885,0-.127.025-.182.162-.167a2.054,2.054,0,0,0,.358,0c.1-.007.129.029.128.128,0,.459,0,.918,0,1.377,0,1.1,0,2.2,0,3.3,0,.13-.036.168-.161.157a3.191,3.191,0,0,0-.373,0c-.069,0-.093-.023-.09-.091,0-.118,0-.236,0-.391a1.408,1.408,0,0,1-.386.375,1.513,1.513,0,0,1-1.838-.207,1.954,1.954,0,0,1,.2-2.932A1.484,1.484,0,0,1,902.474,970.611Zm0,1.191a1.255,1.255,0,0,0-.028-.3,1.082,1.082,0,0,0-.826-.872,1.037,1.037,0,0,0-1.085.446,1.433,1.433,0,0,0,.031,1.541,1.032,1.032,0,0,0,1.713-.052A1.288,1.288,0,0,0,902.471,971.8Z" transform="translate(-861.791 -935.459)" fill="#606469"/>
              <path id="Path_471" data-name="Path 471" d="M-216.363,1017.886a1.8,1.8,0,0,1,1.829,1.837,1.808,1.808,0,0,1-1.843,1.826,1.821,1.821,0,0,1-1.836-1.876A1.812,1.812,0,0,1-216.363,1017.886Zm-.011,2.931a.931.931,0,0,0,.621-.222,1.115,1.115,0,0,0,.367-1.189,1,1,0,0,0-1.149-.778,1.04,1.04,0,0,0-.858.945A1.072,1.072,0,0,0-216.374,1020.817Z" transform="translate(224.018 -983.372)" fill="#606469"/>
              <path id="Path_472" data-name="Path 472" d="M-75.175,1019.721a1.8,1.8,0,0,1-1.854,1.825,1.8,1.8,0,0,1-1.819-1.875,1.8,1.8,0,0,1,1.877-1.786A1.8,1.8,0,0,1-75.175,1019.721Zm-2.861-.007c0,.067.006.134.014.2a1.073,1.073,0,0,0,.74.866,1,1,0,0,0,1.079-.38,1.192,1.192,0,0,0,.048-1.31.948.948,0,0,0-.933-.472A1.029,1.029,0,0,0-78.035,1019.714Z" transform="translate(88.652 -983.371)" fill="#606469"/>
              <path id="Path_473" data-name="Path 473" d="M244.549,1017.814a1.633,1.633,0,0,1,1.514,1.038c.158.329.154.333-.175.47-.665.276-1.33.552-2,.823-.1.042-.128.073-.059.175a1,1,0,0,0,1.609.044c.081-.1.132-.116.234-.037a4.635,4.635,0,0,0,.4.271c.072.044.09.077.029.152a1.781,1.781,0,0,1-1.911.674,1.693,1.693,0,0,1-1.327-1.354,1.82,1.82,0,0,1,1.075-2.149A1.7,1.7,0,0,1,244.549,1017.814Zm-.92,1.746c.058.016.1-.018.141-.035q.653-.269,1.3-.542c.195-.081.2-.118.042-.26a.543.543,0,0,0-.069-.051.81.81,0,0,0-.892-.024A.971.971,0,0,0,243.629,1019.56Z" transform="translate(-223.782 -983.302)" fill="#606469"/>
              <path id="Path_474" data-name="Path 474" d="M417.916,967.077A1.862,1.862,0,0,0,419.41,969a1.9,1.9,0,0,0,1.8-.533c.146-.143.145-.144.292,0,.074.074.145.153.224.222.063.055.069.091.008.157a2.429,2.429,0,0,1-1.522.784,2.488,2.488,0,0,1-2.527-1.091,2.6,2.6,0,0,1,1.477-3.981,2.378,2.378,0,0,1,2.322.549c.182.168.185.167.01.339-.088.087-.17.221-.273.242s-.169-.141-.257-.215a1.9,1.9,0,0,0-3.009,1.131A2.4,2.4,0,0,0,417.916,967.077Z" transform="translate(-393.205 -931.486)" fill="#606469"/>
              <path id="Path_475" data-name="Path 475" d="M640.176,1020.469a1.709,1.709,0,0,1-1.243,1.739,1.824,1.824,0,0,1-1.388-3.321,1.746,1.746,0,0,1,2.631,1.582Zm-.636-.035c-.008-.067-.015-.167-.033-.266a1.116,1.116,0,0,0-.87-.9,1.078,1.078,0,0,0-1.122.494,1.415,1.415,0,0,0,.023,1.443,1.065,1.065,0,0,0,1.684.13A1.292,1.292,0,0,0,639.539,1020.433Z" transform="translate(-606.348 -984.101)" fill="#606469"/>
              <path id="Path_476" data-name="Path 476" d="M778.44,1025.843a1.349,1.349,0,0,1-1.238.576,1.166,1.166,0,0,1-1.128-1.078,3.651,3.651,0,0,1-.024-.5c0-.593,0-1.186,0-1.779,0-.122.035-.158.153-.148a2.228,2.228,0,0,0,.358,0c.108-.008.139.027.138.135,0,.593,0,1.186,0,1.779a1.992,1.992,0,0,0,.03.385.689.689,0,0,0,.529.594.82.82,0,0,0,.894-.264,1.137,1.137,0,0,0,.264-.754c0-.578,0-1.157,0-1.736,0-.1.022-.147.135-.139a4.074,4.074,0,0,0,.416,0c.071,0,.1.014.1.094q0,1.607,0,3.213c0,.08-.032.1-.1.094-.139,0-.278-.005-.416,0-.085,0-.108-.032-.1-.11C778.444,1026.1,778.44,1025.989,778.44,1025.843Z" transform="translate(-741.709 -988.254)" fill="#606469"/>
              <path id="Path_477" data-name="Path 477" d="M202.558,956.9c0,.846,0,1.692,0,2.537,0,.107-.026.141-.135.136a4.711,4.711,0,0,0-.53,0c-.123.007-.149-.035-.149-.152,0-1.348,0-2.7,0-4.043,0-.354,0-.707,0-1.061,0-.1.029-.124.121-.12.186.006.373.009.559,0,.112-.006.133.033.133.137C202.556,955.189,202.558,956.044,202.558,956.9Z" transform="translate(-183.89 -921.51)" fill="#606469"/>
              <path id="Path_478" data-name="Path 478" d="M595.962,971.046c0,.779,0,1.558,0,2.336,0,.11-.024.155-.141.146a2.9,2.9,0,0,0-.387,0c-.1.006-.131-.033-.118-.124a.316.316,0,0,0,0-.043c0-1.543,0-3.086,0-4.629,0-.13.03-.179.164-.165a2.08,2.08,0,0,0,.358,0c.1-.007.127.031.127.129C595.96,969.479,595.962,970.263,595.962,971.046Z" transform="translate(-566.163 -935.466)" fill="#606469"/>
            </g>
            <g id="USA-2" data-name="USA" transform="translate(1.577 50.19)">
              <rect id="Rectangle_36-2" data-name="Rectangle 36" width="38.148" height="24.35" rx="3" transform="translate(0 0.032)" fill="#d82f19"/>
              <line id="Line_6-2" data-name="Line 6" x1="38.148" transform="translate(0 19.5)" fill="none" stroke="#e6e6e6" stroke-width="3"/>
              <line id="Line_10" data-name="Line 10" x1="38.148" transform="translate(0 12.5)" fill="none" stroke="#e6e6e6" stroke-width="3"/>
              <line id="Line_11" data-name="Line 11" x1="38.148" transform="translate(0 5.5)" fill="none" stroke="#e6e6e6" stroke-width="3"/>
              <path id="Rectangle_37" data-name="Rectangle 37" d="M3,0H16a0,0,0,0,1,0,0V14a0,0,0,0,1,0,0H0a0,0,0,0,1,0,0V3A3,3,0,0,1,3,0Z" transform="translate(0)" fill="#195f8c"/>
              <circle id="Ellipse_27" data-name="Ellipse 27" cx="1" cy="1" r="1" transform="translate(2 6)" fill="#fff"/>
              <circle id="Ellipse_28" data-name="Ellipse 28" cx="1" cy="1" r="1" transform="translate(7 2)" fill="#fff"/>
              <circle id="Ellipse_29" data-name="Ellipse 29" cx="1" cy="1" r="1" transform="translate(12 2)" fill="#fff"/>
              <circle id="Ellipse_30" data-name="Ellipse 30" cx="1" cy="1" r="1" transform="translate(2 10)" fill="#fff"/>
              <circle id="Ellipse_31" data-name="Ellipse 31" cx="1" cy="1" r="1" transform="translate(7 6)" fill="#fff"/>
              <circle id="Ellipse_33" data-name="Ellipse 33" cx="1" cy="1" r="1" transform="translate(7 10)" fill="#fff"/>
              <circle id="Ellipse_34" data-name="Ellipse 34" cx="1" cy="1" r="1" transform="translate(12 6)" fill="#fff"/>
              <circle id="Ellipse_35" data-name="Ellipse 35" cx="1" cy="1" r="1" transform="translate(12 10)" fill="#fff"/>
              <circle id="Ellipse_36" data-name="Ellipse 36" cx="1" cy="1" r="1" transform="translate(2 2)" fill="#fff"/>
            </g>
          </g>
        </g>
      </g>
    </g>
  </g>
</svg>
