<svg xmlns="http://www.w3.org/2000/svg" xmlns:xlink="http://www.w3.org/1999/xlink" width="600" height="300" viewBox="0 0 600 300">
  <defs>
    <clipPath id="clip-Custom_Size_1">
      <rect width="600" height="300"/>
    </clipPath>
  </defs>
  <g id="Custom_Size_1" data-name="Custom Size – 1" clip-path="url(#clip-Custom_Size_1)">
    <rect width="600" height="300" fill="#e8eff3"/>
    <g id="footer-logo" transform="translate(100.02 95.245)">
      <path id="Path_1" data-name="Path 1" d="M255.032,412.79a81.71,81.71,0,0,1,3.066,7.68,1.36,1.36,0,0,1-1.52,1.2H233.353a1.307,1.307,0,0,1-1.493-1.253c0-.72,2.666-7.573,2.666-7.626Z" transform="translate(-208.255 -377.205)" fill="#1d1d1b"/>
      <path id="Path_2" data-name="Path 2" d="M275.852,409.41v16a1.867,1.867,0,0,1-1.947,1.947H255.241a2.027,2.027,0,0,1-1.946-2.187V409.33Z" transform="translate(-172.546 -382.971)" fill="#1d1d1b"/>
      <path id="Path_3" data-name="Path 3" d="M288.845,442.188a1.173,1.173,0,0,1,.64.986c0,.613-.533.72-.907.72H267.887c-1.253,0-1.867-.88-1.867-2.107V401.55a2.053,2.053,0,0,1,2.107-2.08h20.852a.693.693,0,0,1,.693.72,1.253,1.253,0,0,1-.64.987,24.932,24.932,0,0,0-11.146,20.639A24.345,24.345,0,0,0,288.845,442.188Z" transform="translate(-151.328 -399.403)" fill="#1d1d1b"/>
      <path id="Path_4" data-name="Path 4" d="M275.883,401.618V416.95H253.271V401.511a2,2,0,0,1,2.08-2.08H273.7a2.107,2.107,0,0,1,2.187,2.187Z" transform="translate(-172.577 -399.47)" fill="#1d1d1b"/>
      <path id="Path_5" data-name="Path 5" d="M265.082,401.516V441.94a1.893,1.893,0,0,1-1.973,1.946h-3.36a1.973,1.973,0,0,1-1.76-1.253L239.7,401.6a3.173,3.173,0,0,1-.347-1.2.933.933,0,0,1,.96-.933h22.558a2.08,2.08,0,0,1,2.213,2.053Z" transform="translate(-195.773 -399.422)" fill="#1d1d1b"/>
      <path id="Path_6" data-name="Path 6" d="M250.335,401.63l-16.4,40.584a2.32,2.32,0,0,1-2.213,1.626H225.59a2.08,2.08,0,0,1-2.16-1.947V401.6a2.213,2.213,0,0,1,2.16-2.133h24c.667,0,1.067.32,1.067.88a3.12,3.12,0,0,1-.32,1.28Z" transform="translate(-222.304 -399.402)" fill="#1d1d1b"/>
      <path id="Path_7" data-name="Path 7" d="M308.308,399.474a2,2,0,0,1,2.16,2.133v40.317a2,2,0,0,1-2.16,1.946H285c-.48,0-.853-.187-.853-.773a1.36,1.36,0,0,1,.72-.96,24.638,24.638,0,0,0,0-40.957,1.253,1.253,0,0,1-.693-.987.693.693,0,0,1,.667-.72Z" transform="translate(-121.115 -399.407)" fill="#1d1d1b"/>
      <path id="Path_8" data-name="Path 8" d="M17.7,3.7l7.386,17.785H11.01Z" transform="translate(18.381 6.234)" fill="#1d1d1b"/>
      <path id="Path_9" data-name="Path 9" d="M287.832,402.47c8,0,13.172,5.76,13.172,14.4s-5.333,14.4-13.172,14.4-13.332-5.733-13.332-14.4S279.86,402.47,287.832,402.47Z" transform="translate(-137.196 -394.403)" fill="#1d1d1b"/>
      <path id="Path_10" data-name="Path 10" d="M234.6,438.559l-1.6-4.666h-6l-1.573,4.666H223l5.653-15.759h2.666l5.626,15.759Zm-4.586-13.519-2.32,6.853h4.64Z" transform="translate(-223.02 -360.524)" fill="#1d1d1b"/>
      <path id="Path_11" data-name="Path 11" d="M231.213,430.841v5.173H229V424.6h1.946a17.88,17.88,0,0,1,.187,1.813,4.479,4.479,0,0,1,4.053-2.08v2a4.053,4.053,0,0,0-3.973,4.506Z" transform="translate(-213.021 -357.979)" fill="#1d1d1b"/>
      <path id="Path_12" data-name="Path 12" d="M239.333,439.342l-3.493-5.493-1.547,1.68v3.813H232V422.33h2.187v10.319l4.133-4.72h2.826l-4.106,4.506,4.826,6.906Z" transform="translate(-208.022 -361.307)" fill="#1d1d1b"/>
      <path id="Path_13" data-name="Path 13" d="M237.736,425.3a1.44,1.44,0,1,1,1.493-1.466,1.466,1.466,0,0,1-1.493,1.466Zm-1.067,13.892V427.779h2.16v11.413Z" transform="translate(-200.772 -361.156)" fill="#1d1d1b"/>
      <path id="Path_14" data-name="Path 14" d="M243.7,438.259a3.6,3.6,0,0,1-3.92-3.92v-5.893h-1.6v-1.84h1.6V423.14h2.16v3.466h3.253v1.84H241.94v5.893c0,1.493.613,2.08,1.76,2.08a13.176,13.176,0,0,0,1.493,0v1.813A5.587,5.587,0,0,1,243.7,438.259Z" transform="translate(-197.723 -359.957)" fill="#1d1d1b"/>
      <path id="Path_15" data-name="Path 15" d="M243.9,430.9a3.626,3.626,0,0,0,3.786,3.386,8.849,8.849,0,0,0,3.466-.693l.587,1.84a9.28,9.28,0,0,1-4.08.826,5.76,5.76,0,0,1-5.973-5.973,5.626,5.626,0,0,1,5.6-5.946,5.813,5.813,0,0,1,5.6,6.56Zm3.413-4.56a3.306,3.306,0,0,0-3.226,2.666h6.453A3.306,3.306,0,0,0,247.312,426.34Z" transform="translate(-191.896 -357.957)" fill="#1d1d1b"/>
      <path id="Path_16" data-name="Path 16" d="M254.076,439.342l-3.493-5.493-1.547,1.68v3.813H246.85V422.33h2.187v10.319l4.133-4.72H256l-4.106,4.506,4.826,6.906Z" transform="translate(-183.275 -361.307)" fill="#1d1d1b"/>
      <path id="Path_17" data-name="Path 17" d="M256.45,438.259a3.6,3.6,0,0,1-3.92-3.92v-5.893h-1.6v-1.84h1.6V423.14h2.16v3.466h3.253v1.84H254.69v5.893c0,1.493.613,2.08,1.76,2.08a13.319,13.319,0,0,0,1.493,0v1.813A5.636,5.636,0,0,1,256.45,438.259Z" transform="translate(-176.475 -359.957)" fill="#1d1d1b"/>
      <path id="Path_18" data-name="Path 18" d="M259.507,436.109a4.746,4.746,0,0,1-4.906-4.826V424.43h2.187v6.613a2.7,2.7,0,1,0,5.333,0V424.43h2.16v6.853a4.746,4.746,0,0,1-4.773,4.826Z" transform="translate(-170.36 -357.807)" fill="#1d1d1b"/>
      <path id="Path_19" data-name="Path 19" d="M261.58,430.841v5.173h-2.16V424.6h1.947c0,.587.16,1.28.187,1.813a4.48,4.48,0,0,1,4.053-2.08v2a4.053,4.053,0,0,0-4.026,4.506Z" transform="translate(-162.327 -357.979)" fill="#1d1d1b"/>
      <path id="Path_20" data-name="Path 20" d="M262.46,428.283V426.23h7.44v2.053Z" transform="translate(-157.261 -354.807)" fill="#1d1d1b"/>
      <path id="Path_21" data-name="Path 21" d="M274.766,436.276a5.973,5.973,0,1,1,5.92-5.946,5.813,5.813,0,0,1-5.92,5.946Zm0-9.919a4,4,0,1,0,3.68,3.973,3.706,3.706,0,0,0-3.68-3.973Z" transform="translate(-146.795 -357.974)" fill="#1d1d1b"/>
      <path id="Path_22" data-name="Path 22" d="M279.694,440.633a8.96,8.96,0,0,1-4.373-1.227l.667-1.786a8.56,8.56,0,0,0,3.706,1.013c2.373,0,3.333-1.2,3.333-3.413v-.72a4.826,4.826,0,0,1-3.84,1.76,6.026,6.026,0,0,1,0-11.919,4.826,4.826,0,0,1,3.893,1.786,11.71,11.71,0,0,1,.24-1.546h1.893v10.853a4.987,4.987,0,0,1-5.52,5.2Zm0-14.319a4,4,0,0,0,0,8c2.293,0,3.44-1.76,3.44-3.946s-1.227-4.053-3.386-4.053Z" transform="translate(-137.938 -357.958)" fill="#1d1d1b"/>
      <path id="Path_23" data-name="Path 23" d="M291.21,439.326a11.274,11.274,0,0,1-.24-1.52,4.826,4.826,0,0,1-3.893,1.786,6,6,0,0,1,0-11.919,4.825,4.825,0,0,1,3.84,1.76V422.34h2.133v16.985Zm-3.493-9.679a4.026,4.026,0,0,0,0,8,3.493,3.493,0,0,0,3.44-3.973C291.05,431.433,289.877,429.646,287.717,429.646Z" transform="translate(-125.082 -361.29)" fill="#1d1d1b"/>
      <path id="Path_24" data-name="Path 24" d="M289.215,430.9a3.626,3.626,0,0,0,3.76,3.386,8.88,8.88,0,0,0,3.466-.693l.587,1.84a9.255,9.255,0,0,1-4.08.827,5.76,5.76,0,0,1-5.973-5.973,5.653,5.653,0,0,1,5.626-5.946,5.813,5.813,0,0,1,5.6,6.56Zm3.413-4.56a3.306,3.306,0,0,0-3.226,2.666h6.453A3.307,3.307,0,0,0,292.628,426.34Z" transform="translate(-116.42 -357.957)" fill="#1d1d1b"/>
      <path id="Path_25" data-name="Path 25" d="M295.64,436.254A6.988,6.988,0,0,1,291.88,435l.773-1.76a6.614,6.614,0,0,0,3.013,1.04c1.227,0,1.813-.693,1.813-1.413,0-1.92-5.333-1.813-5.333-5.333a3.387,3.387,0,0,1,3.733-3.173,8,8,0,0,1,3.147.72l-.587,1.84a8.32,8.32,0,0,0-2.666-.56c-1.093,0-1.467.507-1.467,1.173,0,1.813,5.333,1.84,5.333,5.333a3.68,3.68,0,0,1-4,3.386Z" transform="translate(-108.233 -357.952)" fill="#1d1d1b"/>
      <path id="Path_26" data-name="Path 26" d="M297.036,425.3a1.44,1.44,0,1,1,1.493-1.466,1.466,1.466,0,0,1-1.493,1.466Zm-1.067,13.892V427.779h2.16v11.413Z" transform="translate(-101.95 -361.156)" fill="#1d1d1b"/>
      <path id="Path_27" data-name="Path 27" d="M303.294,440.632a8.959,8.959,0,0,1-4.373-1.227l.667-1.786a8.584,8.584,0,0,0,3.706,1.013c2.373,0,3.333-1.2,3.333-3.413v-.72a4.826,4.826,0,0,1-3.84,1.76,6.026,6.026,0,0,1,0-11.919,4.826,4.826,0,0,1,3.786,1.76,11.726,11.726,0,0,1,.24-1.546h1.893v10.853a4.986,4.986,0,0,1-5.413,5.226Zm0-14.319a4,4,0,1,0,0,8c2.293,0,3.44-1.76,3.44-3.946s-1.093-4.053-3.413-4.053Z" transform="translate(-98.609 -357.957)" fill="#1d1d1b"/>
      <path id="Path_28" data-name="Path 28" d="M310.783,436.144v-7.226c0-1.893-.88-2.667-2.187-2.667-1.813,0-3.306,1.733-3.306,4.506v5.173h-2.16V424.518h1.92a18.223,18.223,0,0,1,.24,2.026,4.347,4.347,0,0,1,3.733-2.293,3.84,3.84,0,0,1,3.946,4.346v7.333Z" transform="translate(-89.485 -358.109)" fill="#1d1d1b"/>
      <path id="Path_29" data-name="Path 29" d="M315.8,439.442v-7.226c0-1.893-.88-2.666-2.187-2.666-1.813,0-3.333,1.76-3.333,4.533v5.173h-2.16V422.27h2.16V429.9a4.346,4.346,0,0,1,3.733-2.266,3.813,3.813,0,0,1,3.92,4.586v7.333Z" transform="translate(-81.169 -361.407)" fill="#1d1d1b"/>
      <path id="Path_30" data-name="Path 30" d="M324.3,440.633a9.973,9.973,0,0,1-4.64-1.227l.667-1.786a8.56,8.56,0,0,0,3.707,1.013c2.373,0,3.333-1.2,3.333-3.413v-.72a4.826,4.826,0,0,1-3.84,1.76,6.026,6.026,0,0,1,0-11.919,4.826,4.826,0,0,1,3.893,1.786,12.184,12.184,0,0,1,.24-1.546h1.893v10.853a4.773,4.773,0,0,1-5.253,5.2Zm-.213-14.319a4,4,0,0,0,0,8c2.293,0,3.44-1.76,3.44-3.946s-1.147-4.053-3.44-4.053Z" transform="translate(-64.046 -357.958)" fill="#1d1d1b"/>
      <path id="Path_31" data-name="Path 31" d="M327.22,436.254A6.988,6.988,0,0,1,323.46,435l.773-1.76a6.587,6.587,0,0,0,3.013,1.04c1.227,0,1.813-.693,1.813-1.413,0-1.92-5.333-1.813-5.333-5.333a3.387,3.387,0,0,1,3.733-3.173,8,8,0,0,1,3.147.72l-.587,1.84a8.291,8.291,0,0,0-2.666-.56c-1.093,0-1.467.507-1.467,1.173,0,1.813,5.333,1.84,5.333,5.333a3.68,3.68,0,0,1-4,3.386Z" transform="translate(-55.606 -357.952)" fill="#1d1d1b"/>
      <path id="Path_32" data-name="Path 32" d="M334.566,439.342l-3.493-5.493-1.547,1.68v3.813H327.34V422.33h2.187v10.319l4.133-4.72h2.826l-4.106,4.506,4.826,6.906Z" transform="translate(-49.14 -361.307)" fill="#1d1d1b"/>
      <path id="Path_33" data-name="Path 33" d="M337.416,436.276a5.973,5.973,0,1,1,5.919-5.946,5.813,5.813,0,0,1-5.92,5.946Zm0-9.919a4,4,0,1,0,3.68,3.973,3.706,3.706,0,0,0-3.68-3.973Z" transform="translate(-42.391 -357.974)" fill="#1d1d1b"/>
      <path id="Path_34" data-name="Path 34" d="M339.833,439.609c-1.68,0-2.933-.587-2.933-2.32V422.33h2.16v14.612c0,.48.267.827.96.827Z" transform="translate(-33.208 -361.307)" fill="#1d1d1b"/>
      <path id="Path_35" data-name="Path 35" d="M341.075,430.9a3.626,3.626,0,0,0,3.76,3.386,8.825,8.825,0,0,0,3.466-.693l.587,1.84a9.254,9.254,0,0,1-4.08.827,5.76,5.76,0,0,1-5.973-5.973,5.626,5.626,0,0,1,5.626-5.946,5.813,5.813,0,0,1,5.6,6.56Zm3.413-4.56a3.306,3.306,0,0,0-3.226,2.666h6.453a3.306,3.306,0,0,0-3.093-2.666Z" transform="translate(-29.997 -357.957)" fill="#1d1d1b"/>
      <path id="Path_36" data-name="Path 36" d="M351.679,436.148v-7.226c0-1.893-.88-2.666-2.187-2.666-1.813,0-3.333,1.733-3.333,4.506v5.173H344V424.522h1.893a17.537,17.537,0,0,1,.24,2.027,4.373,4.373,0,0,1,3.733-2.293,3.84,3.84,0,0,1,4,4.666v7.333Z" transform="translate(-21.376 -358.112)" fill="#1d1d1b"/>
      <path id="Path_37" data-name="Path 37" d="M352.776,425.3a1.44,1.44,0,1,1,1.493-1.466,1.466,1.466,0,0,1-1.493,1.466Zm-1.067,13.892V427.779h2.16v11.413Z" transform="translate(-9.061 -361.156)" fill="#1d1d1b"/>
      <path id="Path_38" data-name="Path 38" d="M364.166,438.975a8.133,8.133,0,1,1,8-8.133,8,8,0,0,1-8,8.133Zm0-14.212a6.106,6.106,0,1,0,5.76,6.08,5.759,5.759,0,0,0-5.759-6.08Z" transform="translate(-1.545 -360.673)" fill="#1d1d1b"/>
      <path id="Path_39" data-name="Path 39" d="M366.54,436.254A6.986,6.986,0,0,1,362.78,435l.773-1.76a6.584,6.584,0,0,0,3.013,1.04c1.227,0,1.813-.693,1.813-1.413,0-1.92-5.333-1.813-5.333-5.333a3.386,3.386,0,0,1,3.733-3.173,8,8,0,0,1,3.173.72l-.587,1.84a8.292,8.292,0,0,0-2.666-.56c-1.093,0-1.467.507-1.467,1.173,0,1.813,5.333,1.84,5.333,5.333a3.68,3.68,0,0,1-4.026,3.386Z" transform="translate(9.92 -357.952)" fill="#1d1d1b"/>
      <path id="Path_40" data-name="Path 40" d="M369.5,439.609c-1.68,0-2.933-.587-2.933-2.32V422.33h2.16v14.612c0,.48.267.827.96.827Z" transform="translate(16.236 -361.307)" fill="#1d1d1b"/>
      <path id="Path_41" data-name="Path 41" d="M374.556,436.276a5.973,5.973,0,1,1,5.92-5.946,5.813,5.813,0,0,1-5.92,5.946Zm0-9.919a4,4,0,1,0,3.68,3.973,3.707,3.707,0,0,0-3.68-3.973Z" transform="translate(19.502 -357.974)" fill="#1d1d1b"/>
      <path id="Path_42" data-name="Path 42" d="M228.493,435.1v12.506h-1.52V435.1H223V433.69h9.333V435.1Z" transform="translate(-223.02 -342.376)" fill="#1d1d1b"/>
      <path id="Path_43" data-name="Path 43" d="M234.14,448.192v-6.186c0-1.867-.88-2.666-2.213-2.666-1.813,0-3.226,1.733-3.226,4.08v4.693h-1.44V433.34h1.44v6.8a3.866,3.866,0,0,1,3.333-2.16,3.413,3.413,0,0,1,3.573,3.706v6.426Z" transform="translate(-215.921 -342.959)" fill="#1d1d1b"/>
      <path id="Path_44" data-name="Path 44" d="M232.712,440.6a3.493,3.493,0,0,0,3.653,3.493,7.068,7.068,0,0,0,2.933-.56l.4,1.253a7.52,7.52,0,0,1-3.333.693,4.96,4.96,0,0,1-5.12-5.173,4.879,4.879,0,0,1,4.8-5.173,4.986,4.986,0,0,1,4.8,5.493Zm3.333-4.133a3.306,3.306,0,0,0-3.226,2.666h6.453a3.307,3.307,0,0,0-3.333-2.667Z" transform="translate(-209.294 -339.976)" fill="#1d1d1b"/>
      <path id="Path_45" data-name="Path 45" d="M245.02,448a7.2,7.2,0,1,1,7.039-7.2,6.96,6.96,0,0,1-7.039,7.2Zm0-12.959a5.786,5.786,0,1,0,5.52,5.76,5.466,5.466,0,0,0-5.52-5.76Z" transform="translate(-198.59 -342.525)" fill="#1d1d1b"/>
      <path id="Path_46" data-name="Path 46" d="M246.8,445.5a5.707,5.707,0,0,1-3.093-.96l.507-1.227a5.545,5.545,0,0,0,2.666.853c1.2,0,1.947-.613,1.947-1.44,0-2.027-4.773-1.84-4.773-4.933a2.666,2.666,0,0,1,3.093-2.667,6.078,6.078,0,0,1,2.666.56l-.347,1.28a6.556,6.556,0,0,0-2.187-.48c-1.173,0-1.627.64-1.627,1.253,0,1.92,4.773,1.787,4.773,4.933A3.067,3.067,0,0,1,246.8,445.5Z" transform="translate(-188.507 -340.031)" fill="#1d1d1b"/>
      <path id="Path_47" data-name="Path 47" d="M249.207,448.382c-1.227,0-2.187-.48-2.187-1.867V433.37h1.467v13.066c0,.4.187.693.8.693Z" transform="translate(-182.991 -342.909)" fill="#1d1d1b"/>
      <path id="Path_48" data-name="Path 48" d="M253.773,445.466a5.173,5.173,0,1,1,5.093-5.173,5.013,5.013,0,0,1-5.093,5.173Zm0-8.986a3.84,3.84,0,1,0,3.653,3.813,3.626,3.626,0,0,0-3.653-3.813Z" transform="translate(-180.492 -339.992)" fill="#1d1d1b"/>
      <path id="Path_49" data-name="Path 49" d="M259.383,447.995a8,8,0,0,1-3.973-1.093l.453-1.28a8.5,8.5,0,0,0,3.493.96c1.813,0,3.013-.96,3.013-2.427,0-3.306-6.693-2.667-6.693-7.093a3.653,3.653,0,0,1,4.026-3.44,8.908,8.908,0,0,1,3.52.8l-.427,1.306a8.454,8.454,0,0,0-3.093-.72c-1.707,0-2.506.986-2.506,2.053,0,3.04,6.693,2.666,6.693,7.093a4.107,4.107,0,0,1-4.506,3.84Z" transform="translate(-169.01 -342.521)" fill="#1d1d1b"/>
      <path id="Path_50" data-name="Path 50" d="M264.493,445.466a5.173,5.173,0,1,1,0-10.346,8,8,0,0,1,3.306.667l-.293,1.306a8,8,0,0,0-2.986-.613,3.813,3.813,0,0,0,0,7.626,8.16,8.16,0,0,0,3.013-.613l.293,1.28a7.838,7.838,0,0,1-3.333.694Z" transform="translate(-162.494 -339.993)" fill="#1d1d1b"/>
      <path id="Path_51" data-name="Path 51" d="M270.3,448.192v-6.186c0-1.867-.88-2.666-2.213-2.666-1.813,0-3.226,1.733-3.226,4.08v4.693h-1.44V433.34h1.44v6.8a3.866,3.866,0,0,1,3.333-2.16,3.413,3.413,0,0,1,3.573,3.706v6.426Z" transform="translate(-155.661 -342.959)" fill="#1d1d1b"/>
      <path id="Path_52" data-name="Path 52" d="M272.573,445.466a5.173,5.173,0,1,1,5.093-5.173,5.013,5.013,0,0,1-5.093,5.173Zm0-8.986a3.84,3.84,0,1,0,3.653,3.813,3.626,3.626,0,0,0-3.653-3.813Z" transform="translate(-149.162 -339.992)" fill="#1d1d1b"/>
      <path id="Path_53" data-name="Path 53" d="M277.153,445.466a5.173,5.173,0,1,1,5.093-5.173,5.013,5.013,0,0,1-5.093,5.173Zm0-8.986a3.84,3.84,0,1,0,3.653,3.813,3.627,3.627,0,0,0-3.653-3.813Z" transform="translate(-141.529 -339.992)" fill="#1d1d1b"/>
      <path id="Path_54" data-name="Path 54" d="M278.907,448.382c-1.227,0-2.187-.48-2.187-1.867V433.37h1.467v13.066c0,.4.187.693.8.693Z" transform="translate(-133.497 -342.909)" fill="#1d1d1b"/>
      <path id="Path_55" data-name="Path 55" d="M285.7,445.466a5.173,5.173,0,1,1,5.093-5.173,5.013,5.013,0,0,1-5.093,5.173Zm0-8.986a3.84,3.84,0,1,0,3.653,3.813,3.627,3.627,0,0,0-3.653-3.813Z" transform="translate(-127.281 -339.992)" fill="#1d1d1b"/>
      <path id="Path_56" data-name="Path 56" d="M291.27,434.806a6.425,6.425,0,0,0-1.28-.133c-1.333,0-1.84.693-1.84,1.92v1.813H291.3v1.28h-3.28v8.586h-1.44v-8.586H284.79v-1.28h1.787v-1.813a3.066,3.066,0,0,1,3.306-3.306,6.577,6.577,0,0,1,1.573.24Z" transform="translate(-120.048 -343.065)" fill="#1d1d1b"/>
      <path id="Path_57" data-name="Path 57" d="M300.369,447.592l-1.547-4.266h-5.84l-1.52,4.266H289.81l5.2-13.892h1.813l5.146,13.892Zm-4.426-12.239-2.373,6.559h4.746Z" transform="translate(-111.683 -342.359)" fill="#1d1d1b"/>
      <path id="Path_58" data-name="Path 58" d="M296.607,440.54v4.72H295.14v-9.893h1.307a13.327,13.327,0,0,1,.16,1.813h0a4.026,4.026,0,0,1,3.573-2.08v1.36a3.707,3.707,0,0,0-3.573,4.08Z" transform="translate(-102.8 -340.026)" fill="#1d1d1b"/>
      <path id="Path_59" data-name="Path 59" d="M302.743,445.466a5.173,5.173,0,0,1,0-10.346,8,8,0,0,1,3.306.667l-.293,1.306a8,8,0,0,0-2.986-.613,3.813,3.813,0,1,0,0,7.626,8.159,8.159,0,0,0,3.013-.613l.293,1.28a8,8,0,0,1-3.333.694Z" transform="translate(-98.751 -339.993)" fill="#1d1d1b"/>
      <path id="Path_60" data-name="Path 60" d="M308.51,448.192v-6.186c0-1.867-.88-2.666-2.213-2.666-1.813,0-3.226,1.733-3.226,4.08v4.693h-1.44V433.34h1.44v6.8a3.866,3.866,0,0,1,3.333-2.16,3.413,3.413,0,0,1,3.573,3.706v6.426Z" transform="translate(-91.985 -342.959)" fill="#1d1d1b"/>
      <path id="Path_61" data-name="Path 61" d="M306.85,435.53a1.04,1.04,0,1,1,1.04-1.04,1.04,1.04,0,0,1-1.04,1.04Zm-.72,12.479v-9.893H307.6v9.893Z" transform="translate(-85.019 -342.776)" fill="#1d1d1b"/>
      <path id="Path_62" data-name="Path 62" d="M311.993,447.332A2.986,2.986,0,0,1,308.74,444v-5.493H307.3v-1.28h1.44V434h1.44v3.253h2.933v1.28H310.18v5.493c0,1.52.64,2.107,1.813,2.107a8.374,8.374,0,0,0,1.12,0v1.2A6.212,6.212,0,0,1,311.993,447.332Z" transform="translate(-82.536 -341.859)" fill="#1d1d1b"/>
      <path id="Path_63" data-name="Path 63" d="M311.669,440.6a3.493,3.493,0,0,0,3.653,3.493,7.069,7.069,0,0,0,2.933-.56l.4,1.253a7.52,7.52,0,0,1-3.333.693,4.96,4.96,0,0,1-5.146-5.173,4.88,4.88,0,0,1,4.8-5.173,4.986,4.986,0,0,1,4.8,5.493ZM315,436.463a3.307,3.307,0,0,0-3.226,2.666h6.453a3.333,3.333,0,0,0-3.173-2.666Z" transform="translate(-77.759 -339.976)" fill="#1d1d1b"/>
      <path id="Path_64" data-name="Path 64" d="M319.723,445.466a5.173,5.173,0,1,1,0-10.346,8,8,0,0,1,3.307.667l-.293,1.306a8,8,0,0,0-2.986-.613,3.813,3.813,0,0,0,0,7.626,8.134,8.134,0,0,0,3.013-.613l.293,1.28a7.838,7.838,0,0,1-3.333.694Z" transform="translate(-70.454 -339.993)" fill="#1d1d1b"/>
      <path id="Path_65" data-name="Path 65" d="M322.993,447.332A2.986,2.986,0,0,1,319.74,444v-5.493H318.3v-1.28h1.44V434h1.44v3.253h2.933v1.28H321.18v5.493c0,1.52.64,2.107,1.813,2.107a8.308,8.308,0,0,0,1.12,0v1.2a6.213,6.213,0,0,1-1.12,0Z" transform="translate(-64.205 -341.859)" fill="#1d1d1b"/>
      <path id="Path_66" data-name="Path 66" d="M325.521,445.316a4.026,4.026,0,0,1-4.16-4.133V435.21h1.467V441a2.685,2.685,0,1,0,5.333,0V435.21h1.44v5.973a4.027,4.027,0,0,1-4.08,4.133Z" transform="translate(-59.106 -339.842)" fill="#1d1d1b"/>
      <path id="Path_67" data-name="Path 67" d="M327.087,440.54v4.72H325.62v-9.893h1.306a13.323,13.323,0,0,1,.16,1.813h0a4.027,4.027,0,0,1,3.573-2.08v1.36a3.706,3.706,0,0,0-3.573,4.08Z" transform="translate(-52.006 -340.026)" fill="#1d1d1b"/>
      <path id="Path_68" data-name="Path 68" d="M329.445,440.613a3.493,3.493,0,0,0,3.653,3.493,7.069,7.069,0,0,0,2.933-.56l.4,1.253a7.518,7.518,0,0,1-3.226.667,4.96,4.96,0,0,1-5.12-5.173,4.879,4.879,0,0,1,4.8-5.173,4.986,4.986,0,0,1,4.8,5.493Zm3.333-4.133a3.306,3.306,0,0,0-3.226,2.666h6.453a3.306,3.306,0,0,0-3.226-2.666Z" transform="translate(-47.912 -339.992)" fill="#1d1d1b"/>
      <path id="Path_69" data-name="Path 69" d="M343.037,445.253a14.211,14.211,0,0,1-.213-1.547,4.213,4.213,0,0,1-3.493,1.76,5.2,5.2,0,0,1,0-10.346,4.24,4.24,0,0,1,3.493,1.76v-1.52h1.44v9.893Zm-3.573-8.746a3.84,3.84,0,1,0,3.413,3.813,3.493,3.493,0,0,0-3.413-3.84Z" transform="translate(-36.946 -339.993)" fill="#1d1d1b"/>
      <path id="Path_70" data-name="Path 70" d="M346.316,445.312v-6.16c0-1.84-.907-2.666-2.24-2.666-1.813,0-3.2,1.707-3.2,4.08v4.693H339.41v-9.839h1.28a13.99,13.99,0,0,1,.187,1.813h0a3.839,3.839,0,0,1,3.306-2.16,3.413,3.413,0,0,1,3.573,3.706v6.4Z" transform="translate(-29.025 -340.078)" fill="#1d1d1b"/>
      <path id="Path_71" data-name="Path 71" d="M351.807,448.142c0-.4-.16-1.067-.213-1.547a4.239,4.239,0,0,1-3.493,1.787,5.2,5.2,0,0,1,0-10.346,4.267,4.267,0,0,1,3.493,1.787V433.37h1.36v14.772Zm-3.573-8.773a3.84,3.84,0,1,0,3.44,3.84,3.52,3.52,0,0,0-3.44-3.813Z" transform="translate(-22.331 -342.909)" fill="#1d1d1b"/>
      <path id="Path_72" data-name="Path 72" d="M355.12,447.609H350.4V433.69h4.72a6.959,6.959,0,0,1,0,13.919Zm-.213-12.506H352V446.2h2.986a5.546,5.546,0,1,0,0-11.092Z" transform="translate(-10.711 -342.376)" fill="#1d1d1b"/>
      <path id="Path_73" data-name="Path 73" d="M356.849,440.613a3.466,3.466,0,0,0,3.653,3.466,7.011,7.011,0,0,0,2.933-.56l.4,1.253a7.628,7.628,0,0,1-3.333.693,4.96,4.96,0,0,1-5.146-5.173,4.88,4.88,0,0,1,4.8-5.173,4.986,4.986,0,0,1,4.8,5.493Zm3.333-4.16a3.307,3.307,0,0,0-3.226,2.667h6.453a3.333,3.333,0,0,0-3.2-2.64Z" transform="translate(-2.467 -339.992)" fill="#1d1d1b"/>
      <path id="Path_74" data-name="Path 74" d="M362.737,445.5a5.679,5.679,0,0,1-3.066-.96l.507-1.227a5.545,5.545,0,0,0,2.667.853c1.2,0,1.92-.613,1.92-1.44,0-2.027-4.773-1.84-4.773-4.933a2.666,2.666,0,0,1,3.093-2.667,6,6,0,0,1,2.666.56l-.347,1.28a6.53,6.53,0,0,0-2.186-.48c-1.173,0-1.627.64-1.627,1.253,0,1.92,4.773,1.787,4.773,4.933a3.066,3.066,0,0,1-3.626,2.826Z" transform="translate(4.737 -340.031)" fill="#1d1d1b"/>
      <path id="Path_75" data-name="Path 75" d="M363.91,435.53a1.04,1.04,0,1,1,1.04-1.04,1.04,1.04,0,0,1-1.04,1.04Zm-.72,12.479v-9.893h1.466v9.893Z" transform="translate(10.07 -342.776)" fill="#1d1d1b"/>
      <path id="Path_76" data-name="Path 76" d="M369.425,449.5a7.6,7.6,0,0,1-3.653-.987l.453-1.227a7.254,7.254,0,0,0,3.2.853,2.906,2.906,0,0,0,3.253-3.306v-1.12a4.24,4.24,0,0,1-3.466,1.76,5.2,5.2,0,0,1,0-10.346,4.187,4.187,0,0,1,3.466,1.786,15.027,15.027,0,0,1,.213-1.52h1.28v9.679a4.293,4.293,0,0,1-4.746,4.426Zm0-13.012a3.84,3.84,0,1,0,3.413,3.813,3.52,3.52,0,0,0-3.52-3.84Z" transform="translate(12.848 -339.976)" fill="#1d1d1b"/>
      <path id="Path_77" data-name="Path 77" d="M376.146,445.312v-6.16c0-1.867-.907-2.666-2.24-2.666-1.813,0-3.2,1.707-3.2,4.08v4.693H369.24v-9.839h1.28a13.871,13.871,0,0,1,.187,1.813h0a3.84,3.84,0,0,1,3.306-2.16,3.413,3.413,0,0,1,3.573,3.706v6.4Z" transform="translate(20.686 -340.078)" fill="#1d1d1b"/>
      <path id="Path_78" data-name="Path 78" d="M323.534,426.421l.907-.96-1.013-.96-.88.96a5.92,5.92,0,0,0-3.546-1.12,5.813,5.813,0,0,0-5.92,5.973,6.026,6.026,0,0,0,1.333,3.813L313.4,435.22l1.013.96,1.013-1.067A5.892,5.892,0,0,0,319,436.286a5.813,5.813,0,0,0,5.92-5.946A6.053,6.053,0,0,0,323.534,426.421Zm-8.239,3.893a3.706,3.706,0,0,1,3.68-3.973,3.574,3.574,0,0,1,2.107.667l-5.333,5.546a4.373,4.373,0,0,1-.56-2.24Zm3.68,3.973a3.545,3.545,0,0,1-2.16-.693l5.333-5.573a4.373,4.373,0,0,1,.613,2.293,3.733,3.733,0,0,1-3.893,3.973Z" transform="translate(-72.905 -357.958)" fill="#1d1d1b"/>
    </g>
  </g>
</svg>
