<svg xmlns="http://www.w3.org/2000/svg" xmlns:xlink="http://www.w3.org/1999/xlink" width="600" height="300" viewBox="0 0 600 300">
  <defs>
    <clipPath id="clip-Custom_Size_1">
      <rect width="600" height="300"/>
    </clipPath>
  </defs>
  <g id="Custom_Size_1" data-name="Custom Size – 1" clip-path="url(#clip-Custom_Size_1)">
    <rect width="600" height="300" fill="#e8eff3"/>
    <g id="c" transform="translate(196 51)">
      <g id="Group_22" data-name="Group 22" transform="translate(0 0)">
        <path id="Path_148" data-name="Path 148" d="M0,690.992c2.358.2,4.72.036,7.083.086.586.013,1.175,0,1.726,0a1.243,1.243,0,0,1,.079,1.121l-2.792.534v7.742H17.94v-7.738c-.933-.179-1.874-.361-2.8-.538a1.2,1.2,0,0,1,.006-1.073H23.86c.275.33.188.661.1,1.077-.891.169-1.805.34-2.794.526v18.049a6.856,6.856,0,0,0,2.074.422c.78.092.937.447.705,1.187H15.125c-.257-.687-.134-1.05.7-1.179,2.214-.349,2.21-.382,2.21-2.652v-6.4H6.027v4.272c0,1.181.044,2.366-.017,3.545-.038.728.255.981.929,1.043.651.06,1.292.213,1.9.319a1.475,1.475,0,0,1,.052,1.146H0v-1.252a12.3,12.3,0,0,0,2.892-.407V692.709c-.991-.161-1.943-.315-2.892-.467V690.99Z" transform="translate(0 -546.795)"/>
        <path id="Path_149" data-name="Path 149" d="M903.831,692.244l-2.953.478v19.8a1.956,1.956,0,0,1-2.358-.687q-7.156-8-14.386-15.935c-.2-.219-.332-.532-.693-.586-.255.309-.14.668-.14,1-.008,4.449.017,8.9-.025,13.347-.008.9.2,1.375,1.16,1.379.411,0,.82.163,1.233.188.847.052.816.536.664,1.183H878.6c-.3-.77-.086-1.085.718-1.206,2.145-.323,2.141-.357,2.141-2.49q0-7.4,0-14.808a2.408,2.408,0,0,0-.125-1.183l-2.7-.515a1.062,1.062,0,0,1,0-1.123c1.68,0,3.408,0,5.136,0,.488,0,.7.4.977.7q6.53,7.231,13.059,14.466c.34.378.691.747,1.162,1.256V692.728q-1.384-.26-2.738-.515c-.255-.334-.125-.668-.094-1.223h7.7v1.252Z" transform="translate(-695.152 -546.795)"/>
        <path id="Path_150" data-name="Path 150" d="M435.455,867.667c-.67-.167-1.344-.313-2.005-.5a9.88,9.88,0,0,1-7.36-9.729,15.751,15.751,0,0,1,.419-4.24,9.639,9.639,0,0,1,8.883-7.681c3.844-.349,7.4.292,10.263,3.195,3.353,3.4,4.512,11.978-.113,16.168a11.007,11.007,0,0,1-5.15,2.575c-.2.044-.426-.006-.553.213h-4.382Zm-6.048-12.1a13.141,13.141,0,0,0,2.16,7.792,7.491,7.491,0,0,0,7.727,2.98c3.084-.47,4.729-2.546,5.515-5.413a14.4,14.4,0,0,0,.474-3.815,11.069,11.069,0,0,0-2.646-7.7,7.544,7.544,0,0,0-7.9-2.506c-2.974.751-4.426,2.926-5.067,5.757a10.405,10.405,0,0,0-.267,2.9Z" transform="translate(-337.168 -669.005)"/>
        <path id="Path_151" data-name="Path 151" d="M336.182,0c-.6,6.859-2.995,12.89-8.259,17.542a9.646,9.646,0,0,1-5.933,2.527,45.283,45.283,0,0,1,4.073-11.507,24.323,24.323,0,0,1,3.289-4.806A12.469,12.469,0,0,1,335.345,0h.835Z" transform="translate(-254.798 0)"/>
        <path id="Path_152" data-name="Path 152" d="M244.741,867.671a23.709,23.709,0,0,1-3.452-1.081,1.251,1.251,0,0,1-.818-1.179c-.052-1.419-.184-2.836-.282-4.24.261-.33.605-.328,1.006-.4.227.91.449,1.77.655,2.636a3.531,3.531,0,0,0,2.448,2.6,6.328,6.328,0,0,0,4.284.157,3.631,3.631,0,0,0,1.075-6.279,17.03,17.03,0,0,0-3.193-1.738,19.622,19.622,0,0,1-2.834-1.532,6.243,6.243,0,0,1-2.611-6.745,6.067,6.067,0,0,1,5.294-4.355,18.093,18.093,0,0,1,5.467.509c.476.073.463.413.492.772.088,1.073.152,2.149.313,3.214.125.826-.15,1.1-.958.926-.261-.67-.486-1.361-.8-2.012a3.419,3.419,0,0,0-3.343-2.06,3.5,3.5,0,0,0-3.416,1.96,3.812,3.812,0,0,0,.411,4.126,8.767,8.767,0,0,0,3.5,2.373c.964.476,1.96.889,2.909,1.39,1.847.975,3.086,2.4,2.99,4.612a6.054,6.054,0,0,1-3.541,5.684c-.589.275-1.227.444-1.843.664h-3.756Z" transform="translate(-190.067 -669.009)"/>
        <path id="Path_153" data-name="Path 153" d="M616,0a32.588,32.588,0,0,1,6.037,4.9c2.659,2.932,4.752,6.156,5.344,10.171a8.456,8.456,0,0,1-.407,4.194c-.355.075-.53-.179-.739-.346a36.4,36.4,0,0,1-8.94-9.668c-1.709-2.861-2.654-5.883-1.715-9.244H616Z" transform="translate(-486.832 0)"/>
        <path id="Path_154" data-name="Path 154" d="M401.193,0a7.859,7.859,0,0,1-3.867,6.413,22.348,22.348,0,0,1-8.391,3.193c-1.384.275-2.784.457-4.305.7a9.667,9.667,0,0,1,2.717-5c2.619-2.631,5.929-3.89,9.457-4.7C397.777.394,398.755.2,399.732,0Z" transform="translate(-304.366 0)"/>
        <path id="Path_155" data-name="Path 155" d="M334.717,134.646c0-7.3.01-14.6-.017-21.9,0-.791.186-1.127,1.023-1.315a150.788,150.788,0,0,1,26.118-3.326,166.74,166.74,0,0,1,28.3,1.114,127.386,127.386,0,0,1,12.928,2.243c.653.15.908.392.906,1.1-.021,12.865,0,25.73-.019,38.6a49.231,49.231,0,0,1-5.038,22.562c-5.91,11.659-15.486,17.533-28.5,17.882-6.546.175-12.8-.968-18.5-4.37-6.507-3.881-10.7-9.681-13.558-16.554a51.427,51.427,0,0,1-3.641-20.267c.027-5.25,0-10.5,0-15.751Zm.682,14.388a14.526,14.526,0,0,0-.029,3.182,47.605,47.605,0,0,0,4.422,20.3c3.387,7.2,8.435,12.79,15.889,15.931a35.87,35.87,0,0,0,17.585,2.358c9.858-.929,17.615-5.434,23.015-13.773a44.444,44.444,0,0,0,6.9-22.018,44.4,44.4,0,0,0,.14-5.981H335.4Zm38.311-9.464a6.519,6.519,0,0,1,1.866-2.028,1.925,1.925,0,0,0,2.21,1.237c-.745-2.227.831-4.053.812-6.143,1.615.724,2.2.678,2.949-.167-2.12-1.235-1.325-3.493-2.028-5.309.989,0,1.907.257,2.452-.774-2.454-.874-1.759-3.506-3.191-5.125,1.158.048,1.918-.217,2.352-1.235-2.446-.4-2.2-3.116-3.881-4.1a2.164,2.164,0,0,0-.419-2.773c-1-.783-1.438.353-2.106.687-2.75-2.064-6.7-1.941-8.128.246.255.566.837.134,1.189.384.171.86.472.96,1.348.33.993-.716,1.985-1.3,3.466-.611-.858-.094-.67.407-.735.778a1.9,1.9,0,0,1-2.577,1.64,5.243,5.243,0,0,1-1.855-1.3c-.653-.785-1.262-.595-1.9-.173a13.917,13.917,0,0,0-1.417,1.21c.048.5.7.386.726.851-.543.167-.63.417-.342.979a2.413,2.413,0,0,0,3.445.758c1.027-.724,1.621-.346,2.258.411a4.725,4.725,0,0,1,1.11,2.093c.328,1.615-.328,2.5-1.966,2.567-.927.04-1.857.008-2.734.008a1.347,1.347,0,0,0,.038,1.292c.484-.052.966-.092,1.448-.159a4.945,4.945,0,0,1,2.27.125c.532.175.979.5.966,1.091s-.538.785-1.025.864a12.03,12.03,0,0,1-1.555.09,18.224,18.224,0,0,0-1.972.056,4.1,4.1,0,0,0-2.811,1.223l4.514.962a6.778,6.778,0,0,1-2.452.48,16.3,16.3,0,0,0-3.218.23,2.289,2.289,0,0,0-1.763,1.237c1.578-.073,2.871.705,4.3.979a11.11,11.11,0,0,1-1.432.309,22.809,22.809,0,0,0-3.583.662,2.49,2.49,0,0,0-1.98,1.807c1.649-.557,3.091.017,4.564.4a24.1,24.1,0,0,0-3.614.975,4.367,4.367,0,0,0-2.719,2.535c1.807-.937,3.391.154,5.077.432a16.771,16.771,0,0,0-7.218,1.738c-1.231.543-2.573.887-2.456,2.648a.809.809,0,0,1-.148.386,1.692,1.692,0,0,1-2.193.586c.422-.3,1.037-.086,1.436-.511-.207-.346-.751-.351-.791-.778-.1-1.106-.653-.649-1.045-.267-.422.409-.774.618-1.323.248a.46.46,0,0,0-.618.144c.236,1.164-.7,1.045-1.444,1.133.488.987,1.315,1.25,2.548.866.286-.09.526-.307.883-.2a24.1,24.1,0,0,0,9.3.472c1.381-.127,2.719-.031,3.5,1.367,1.091-.359,1.025-1.356,1.315-2.141.876.764,2.237.87,2.5,2.227,1.311-.789,1.509-1.5.822-3.043a13.169,13.169,0,0,1,5.628,3.289,1.86,1.86,0,0,0,1.39.54c2.5-.023,5.008-.006,7.512-.017.25,0,.561.123.766-.242a63.1,63.1,0,0,0-8.318-8.483Zm12.375,1.563a7.89,7.89,0,0,1,4.05-10.9,29.277,29.277,0,0,1,5.8-1.223A6.73,6.73,0,0,0,400,127.332c2.126-2.235,2.227-4.873,1.256-7.571-.674-1.876-1.294-3.675-.271-5.793a3.494,3.494,0,0,0-1.8,3.187c.015,1.283.131,2.565.209,3.848.113,1.891-.5,3.235-1.809,3.765a3.173,3.173,0,0,0,.985-2.414c-.079-2.093-.937-4.071-.808-6.306a2.22,2.22,0,0,0-1.031,2.124c.077.935.177,1.866.271,2.8a3.27,3.27,0,0,1-1.179,2.865,12.986,12.986,0,0,1-3.245,2.053,20.3,20.3,0,0,0-4.806,3.082c-4.334,3.875-5.411,8.894-3,14.142a50.256,50.256,0,0,1,2.22,5.037h3.034a5.588,5.588,0,0,1,2.033-4.674,11.716,11.716,0,0,1,2.99-1.876,18.14,18.14,0,0,0,3.927-2.129,3.471,3.471,0,0,0,1.553-2.828,5.319,5.319,0,0,1-3.6,2.264c-.741.188-1.482.369-2.216.58-2.861.816-5.265,2.181-6.237,5.25-.013.042-.117.056-.179.079a8.4,8.4,0,0,1,3.863-9.762,15.456,15.456,0,0,1,3.182-1.267,15.417,15.417,0,0,0,3.673-1.44,3.09,3.09,0,0,0,1.6-2.01,5.851,5.851,0,0,1-3.274,1.219c-1.269.2-2.538.413-3.811.578a7.377,7.377,0,0,0-6.774,6.093c-.215.9-.415,1.811-.664,2.907Zm-35.72-2.7c-.7-1.233.916-1.6.8-2.619-.286-.148-.557-.288-.835-.43,0-.735-.34-1.5.5-2.064.248-.165.211-.524-.146-.768-.707-.484-.737-1.066-.1-1.709a1.915,1.915,0,0,0,.394-2.377c-.422-.9-1.256-.743-1.991-.778a2.257,2.257,0,0,0-1.916.43,16.845,16.845,0,0,1,2.7.29,1.13,1.13,0,0,1,.954,1.2c-.023.607-.484.8-.991.885a9.753,9.753,0,0,1-1.548.18c-1.772,0-3.543-.017-5.313-.086-.8-.031-1.066.257-1.114,1.054-.2,3.368-.1,6.74-.117,10.108a2.645,2.645,0,0,0,.1,1.44c.177.015.348.04.518.038,2.786-.029,5.586.213,8.339-.447.2-.048.419-.021.47-.294a.55.55,0,0,0-.252-.609,1.865,1.865,0,0,1-.292-1.987q.952-.962-.148-1.454Zm-5.077-23.364c.509.9.787,1.461,1.131,1.978a1.327,1.327,0,0,1,.04,1.684,4.859,4.859,0,0,0-.991,2.068c2.379-.739,3.81.219,4.505,2.671a17.5,17.5,0,0,0,.924-1.6,1.734,1.734,0,0,1,2.083-1.225,11.532,11.532,0,0,0,1.78.015c-.407-.726-.684-1.323-1.056-1.853a1.4,1.4,0,0,1-.006-1.793,4.15,4.15,0,0,0,.874-1.912c-2.373.691-3.74-.388-4.53-2.629-.766,2.325-2.231,3.247-4.754,2.6Zm43.347,8.251c.682-2.4,2.206-3.047,4.322-2.682.05.008.111-.052.275-.136-.355-.624-.672-1.269-1.07-1.857a1.194,1.194,0,0,1,.019-1.509c.38-.563.68-1.179,1.108-1.937-.8,0-1.415-.029-2.026.006a1.6,1.6,0,0,1-1.694-1.048,3.387,3.387,0,0,0-1.21-1.626c-.434,2.548-2.174,2.995-4.457,2.631.438.78.695,1.35,1.052,1.849a1.364,1.364,0,0,1,.015,1.78,4.8,4.8,0,0,0-.954,1.989c2.339-.689,3.819.171,4.618,2.535Zm-33.167,12.026c.273,1.02-.457,1.534-.745,2.233.674.382,1.532.866,1.97.4a10.213,10.213,0,0,1,4.178-2.368c-1.114-.593-2.03-.029-3.007.244-.042-1.342.791-2.053,1.74-2.736a58.8,58.8,0,0,1-5.912-5.027c-.369,1.571-1.732,2.01-2.634,2.886a8.559,8.559,0,0,0,2.383,2.661c.008.628-.534.82-.82,1.229.741,1.25,1.8,1,2.844.476Zm15.455-12.577c.311-.616-.008-.812-.447-.956a17.03,17.03,0,0,0-3.136-.732c-2.951-.374-5.831-.945-8.255-2.851-.06-.046-.188-.006-.307-.006a1.552,1.552,0,0,0,.188,1.311,3.69,3.69,0,0,0,2.8,1.953c3.032.549,6.148.474,9.155,1.281Zm-24.386,3.61c1.116-.294,1.277.553,1.617,1.164.351-.23.634-.417.922-.607.682,1.006,1.158.069,1.7-.213.106,1.411.273,1.532,2.277,1.69.2-.342.361-.676-.031-1.012a6.134,6.134,0,0,0-3.965-1.843,3.3,3.3,0,0,1-1.3-.225c-.853-.348-1.857.273-1.688,1.052a8.555,8.555,0,0,0,.309,1.811c.288-.616,1.075-.588,1.1-1.229.021-.478-.582-.365-.954-.588Zm-3.487,1.609c-.182-.2-.244-.328-.311-.33q-1.862-.056-3.729-.079c-.25,0-.545.058-.54.361a15.583,15.583,0,0,0,.319,4.142c.814-1.206.117-2.611.5-3.894a27.757,27.757,0,0,0,3.762-.2Zm-4.416,5.757a13.017,13.017,0,0,0,2.778-.006,2.623,2.623,0,0,0-.079-1.169,5.257,5.257,0,0,0-2.727-.023,1.633,1.633,0,0,0,.027,1.2Zm2.548,5.653c.157-1.436-.526-1.74-2.611-1.208a1.736,1.736,0,0,0,.075,1.231,11.2,11.2,0,0,0,2.535-.021Zm1.962,5.582a1.869,1.869,0,0,0,2.462.555c-.215-.893-.463-1.672-1.54-1.955a1.279,1.279,0,0,1-.924,1.4Zm2.4-17.729c.267-1.853.146-2.206-.78-2.279s-1.419.346-1.409,1.3a1.985,1.985,0,0,1,1.578-.173C345.6,126.305,344.487,127.346,345.545,127.255Zm-4.395-1.786a.99.99,0,0,1,.927,1.2c-.038.344.023.657.48.588.392-.06.451-.317.409-.691a13.754,13.754,0,0,1-.013-1.507,1.256,1.256,0,0,0-1.8.407Zm1.471,19.889c-.152-.634-.2-1.436-.931-1.563-.639-.113-.856.595-1.1,1.1C341.605,145.508,341.676,145.522,342.621,145.357Zm-3.806-11.079c-.495,1.638-.344,3.139.326,3.537C339.078,136.572,339.372,135.393,338.815,134.279Zm32.479-19.791c-1.444.424-1.517.518-1.417,1.722C370.92,116.038,371.206,115.713,371.294,114.488ZM339,143.1a5.159,5.159,0,0,0-.215-3.124A4.337,4.337,0,0,0,339,143.1Zm4.368-15.386c.73-.223,1.321-.363,1.4-1.087.027-.25-.217-.359-.43-.323-.714.119-.843.67-.97,1.411Zm1.891,15.953c.632,1.114,1.083,1.192,1.634.292A2.245,2.245,0,0,0,345.257,143.667Zm6.532-1c-.374.344-.968.376-1.056.991C351.791,144.114,351.922,143.988,351.789,142.663Z" transform="translate(-264.855 -85.402)"/>
        <path id="Path_156" data-name="Path 156" d="M403.844,523.373a40.462,40.462,0,0,1-11.613,1.621c-3.858-.075-7.537-1.154-11.262-1.987a24.041,24.041,0,0,0-7.4-.449c.837.39,1.423.651,2,.935,5.453,2.709,10.528,5.941,14.553,10.609.363.419.659.9,1.012,1.323a1.862,1.862,0,0,1,.288,2.214,2.568,2.568,0,0,1-2.11,1.5,1.6,1.6,0,0,1-1.5-.732,78.811,78.811,0,0,0-9.52-10.482,22.526,22.526,0,0,0-8.777-4.384,2.445,2.445,0,0,0-1.321.146c-5.092,1.233-8.911,4.372-12.306,8.164a84.153,84.153,0,0,0-5.413,6.477,1.986,1.986,0,0,1-2.84.357,2.171,2.171,0,0,1-.737-2.992,26.717,26.717,0,0,1,6.248-6.371,57.385,57.385,0,0,1,11.173-6.709,19.461,19.461,0,0,0-4.555-.035c-3.078.367-6.031,1.331-9.065,1.9a35.488,35.488,0,0,1-16.077-1.039c-.056-.015-.1-.092-.217-.217a21.2,21.2,0,0,1,5.828-4.055c5.071-2.427,10.417-2.74,15.891-2.005a54.088,54.088,0,0,1,12.137,3.27,2.172,2.172,0,0,0,1.684,0,52.162,52.162,0,0,1,14-3.479c6.943-.595,13.347.743,18.825,5.33.267.223.526.455.78.691a4.044,4.044,0,0,1,.3.4Z" transform="translate(-264.618 -408.967)"/>
        <path id="Path_157" data-name="Path 157" d="M649.167,868.392c-.24-.739-.01-1.062.78-1.181,2.126-.323,2.12-.357,2.12-2.517,0-4.935-.025-9.868.021-14.8.008-.91-.248-1.325-1.16-1.382a15.03,15.03,0,0,1-1.7-.292,1.16,1.16,0,0,1-.088-.945c.063-.05.115-.129.165-.129,5.3.044,10.651-.62,15.891.505,5.419,1.164,7.642,4.9,7.364,10.048-.359,6.661-4.142,10.355-11.016,10.722-4.019.215-8.059.056-12.091.063a1.025,1.025,0,0,1-.29-.088Zm6.033-1.746a24.688,24.688,0,0,0,7.124.4,7.711,7.711,0,0,0,6.761-6.536,13.705,13.705,0,0,0-.029-4.873,7.949,7.949,0,0,0-4.716-6.313c-2.94-1.279-6.02-1.018-9.138-.837v18.153Z" transform="translate(-513.628 -670.239)"/>
        <path id="Path_158" data-name="Path 158" d="M321.77,849.3l-2.69-.5a1.313,1.313,0,0,1-.06-1.077h8.8a1.666,1.666,0,0,1,.067,1.048c-.908.175-1.847.357-2.842.551v8.623a2.061,2.061,0,0,0,2.4-1.039c1.607-2.512,3.291-4.975,5.023-7.575-.68-.142-1.235-.288-1.8-.369-.747-.107-1.052-.442-.712-1.246h7.652a1.589,1.589,0,0,1,.1.987c-.123.058-.184.115-.242.113-2.331-.071-3.664,1.235-4.749,3.151-1.127,1.987-2.506,3.829-3.831,5.82,2.7,3.074,5.373,6.129,8.061,9.173a4.258,4.258,0,0,0,2.521,1.06,1.219,1.219,0,0,1,.027.993h-8.65c-.23-1.947,1.684-.9,2.281-1.776-2.177-2.533-4.389-5.117-6.611-7.688-.382-.442-.9-.2-1.452-.213v8.076c.929.184,1.87.369,2.834.561v1.037h-8.85a1.349,1.349,0,0,1,.008-1.073c.686-.119,1.4-.255,2.114-.361.467-.069.743-.219.739-.78-.023-5.737-.023-11.475-.033-17.212a1.211,1.211,0,0,0-.1-.282Z" transform="translate(-252.38 -670.819)"/>
        <path id="Path_159" data-name="Path 159" d="M448.59,713.03c.24-2.047,2.158-.839,2.963-1.8V693.366l-2.794-.53a1.328,1.328,0,0,1-.04-1.043h8.823c.213.292.079.624.079,1.01l-2.915.561v8.623c.78.106,1.557.2,2.06-.549,1.786-2.642,3.543-5.3,5.273-7.9-.668-.866-2.481.148-2.487-1.757h7.734a1.1,1.1,0,0,1,.083.939,1.6,1.6,0,0,1-1.077.286,3.589,3.589,0,0,0-3.266,2.081c-1.24,2.089-2.667,4.067-4.038,6.075a.8.8,0,0,0,.046,1.167c2.318,2.636,4.6,5.309,6.9,7.955a3.97,3.97,0,0,0,2.786,1.657c.4.021.53.242.522.62-.006.411-.211.532-.591.53-2.673-.008-5.346,0-8.036,0-.261-.655-.3-1.121.536-1.242.543-.077,1.075-.227,1.778-.382-.332-.407-.574-.72-.831-1.02-1.809-2.112-3.639-4.2-5.421-6.34a1.619,1.619,0,0,0-2.037-.609v3.239c0,1.252.05,2.506-.017,3.754-.046.822.28,1.112,1.048,1.169a17.684,17.684,0,0,1,1.818.313,1.09,1.09,0,0,1,.069,1.062h-8.967Z" transform="translate(-354.979 -547.42)"/>
        <path id="Path_160" data-name="Path 160" d="M629.449,489.088c-6.022,4.516-23.364,5.62-29.3.576,5.2-5.348,22.932-6.144,29.3-.576Z" transform="translate(-474.912 -384.002)"/>
        <path id="Path_161" data-name="Path 161" d="M290.315,489.106a11.521,11.521,0,0,1-6.027,3.222,36.571,36.571,0,0,1-14.885-.092,37.958,37.958,0,0,1-8.5-2.475c.177-.626.689-.893,1.112-1.214a16.443,16.443,0,0,1,8.424-3,34.858,34.858,0,0,1,18.115,2.611c.565.248,1.1.584,1.767.949Z" transform="translate(-206.456 -384.035)"/>
        <path id="Path_162" data-name="Path 162" d="M698.312,433.452c-5.891,6.651-16.817,10.8-28.132,8.683a4.637,4.637,0,0,1,1.321-1.786,24.5,24.5,0,0,1,13.191-6.866,36.855,36.855,0,0,1,13.368-.192c.061.01.113.069.253.159Z" transform="translate(-530.328 -342.464)"/>
        <path id="Path_163" data-name="Path 163" d="M198.32,433.947c10.04-3.449,23.862,1.131,28.074,8.132C218.464,444.521,203.625,440.222,198.32,433.947Z" transform="translate(-156.935 -342.462)"/>
        <path id="Path_164" data-name="Path 164" d="M566.96,711.376a11.254,11.254,0,0,1-7.924-2.846c-3.27-3.157-3.641-7.116-2.8-11.3A9.426,9.426,0,0,1,562,689.955c4.921-2.072,11.339-.522,14.2,3.364,2.606,3.543,3.525,11.292-.929,15.282-2.281,2.043-4.985,2.784-8.314,2.778Zm8.126-10.628a11.152,11.152,0,0,0-2.846-7.848,7.5,7.5,0,0,0-7.869-2.273c-3,.828-4.405,3.078-4.952,5.972a15.864,15.864,0,0,0,.165,6.308,10.165,10.165,0,0,0,2.12,4.58,7.543,7.543,0,0,0,7.529,2.5c2.876-.5,4.493-2.421,5.282-5.14a16.4,16.4,0,0,0,.572-4.1Z" transform="translate(-439.856 -545.247)"/>
        <path id="Path_165" data-name="Path 165" d="M147.912,700.984c0,6.315-4.2,10.519-10.528,10.557a15.771,15.771,0,0,1-4.837-.609,9.355,9.355,0,0,1-6.715-7.037,13.817,13.817,0,0,1,.221-7.51c1.5-4.866,5.392-7.214,10.522-7.133a11.9,11.9,0,0,1,7.164,2.172c2.744,2.047,4.174,5.33,4.176,9.56Zm-3.3.14c0-.244.008-.486,0-.73-.154-3.548-1.315-6.611-4.389-8.65a7.1,7.1,0,0,0-10.962,3.919,14.866,14.866,0,0,0-.042,7.717,9.655,9.655,0,0,0,2.112,4.359,7.575,7.575,0,0,0,7.56,2.4c2.848-.528,4.4-2.454,5.194-5.1A13.659,13.659,0,0,0,144.615,701.124Z" transform="translate(-99.244 -545.419)"/>
        <path id="Path_166" data-name="Path 166" d="M199.19,352.52c8.249.225,19.138,9.445,20.991,17.773C212.3,370.706,200.144,360.416,199.19,352.52Z" transform="translate(-157.623 -278.957)"/>
        <path id="Path_167" data-name="Path 167" d="M722.432,351.47c-2.1,8.944-13.212,18.282-21.1,17.8C705.024,359.421,712.567,352.76,722.432,351.47Z" transform="translate(-554.977 -278.126)"/>
        <path id="Path_168" data-name="Path 168" d="M730.3,55.16c6.166,3.971,8.182,20.1,3.37,26.6C729.448,78.252,725.6,63.572,730.3,55.16Z" transform="translate(-576.194 -43.649)"/>
        <path id="Path_169" data-name="Path 169" d="M239.069,58.32a10.78,10.78,0,0,1,3.324,7.709,34.46,34.46,0,0,1-4.618,18.652,3.754,3.754,0,0,1-.311.4,7.527,7.527,0,0,1-1.982-2.767,18.333,18.333,0,0,1-1.206-9.8,34.382,34.382,0,0,1,3.967-12.846c.182-.336.4-.651.6-.975.054-.088.106-.177.225-.374Z" transform="translate(-185.253 -46.15)"/>
        <path id="Path_170" data-name="Path 170" d="M667.682,351.73c1.772,10.1-3.207,20.5-11.394,24.891C655.262,366.108,660.32,358.437,667.682,351.73Z" transform="translate(-519.23 -278.332)"/>
        <path id="Path_171" data-name="Path 171" d="M300.839,376.289c-7.379-3.08-13.124-15.087-11.97-24.979,3.794,3.147,7.16,6.53,9.347,10.928A27.932,27.932,0,0,1,300.839,376.289Z" transform="translate(-228.471 -277.999)"/>
        <path id="Path_172" data-name="Path 172" d="M203.682,138.876a15.913,15.913,0,0,1-6.352-7.243c-2.59-5.578-2.89-11.429-1.9-17.41a2.022,2.022,0,0,1,.157-.363,4.457,4.457,0,0,1,1.486,1.045c3.652,3.253,5.57,7.458,6.559,12.141a31.833,31.833,0,0,1,.219,11.283,4.647,4.647,0,0,1-.171.547Z" transform="translate(-154.234 -90.1)"/>
        <path id="Path_173" data-name="Path 173" d="M261.637,703.545h8.47a1.475,1.475,0,0,1,.015,1.029c-.641.127-1.308.294-1.987.386-.5.067-.751.246-.741.785.023,1.075.006,2.151.006,3.205.553.369,1.152.033,1.692.278.094.505.244.975-.524,1.169-3.758.954-7.535,1.68-11.431,1.047-4.52-.735-8.122-2.75-9.535-7.412-1.782-5.887.505-13.631,9.724-14.547,3.439-.342,6.757.422,10.131.839.25,1.8.246,3.527.33,5.2a1.039,1.039,0,0,1-1.048.052c-.253-2.873-2.264-3.982-4.783-4.493a13.984,13.984,0,0,0-5.492-.025c-3.5.687-5.369,2.73-5.956,6.448-.81,5.14,1.482,9.9,5.728,11.891a12.612,12.612,0,0,0,7.65.776c.457-.077.553-.332.551-.722,0-1.252-.013-2.5,0-3.754.006-.49-.23-.672-.684-.72-.482-.05-.958-.175-1.44-.225-.741-.077-.952-.451-.684-1.2Z" transform="translate(-195.492 -545.536)"/>
        <path id="Path_174" data-name="Path 174" d="M769.087,113.082a20.988,20.988,0,0,1,1.152,7.984,24.077,24.077,0,0,1-3.32,11.8,11.677,11.677,0,0,1-3.581,3.867,4.8,4.8,0,0,1-2.471.924c-.4-9.211.945-17.767,8.218-24.574Z" transform="translate(-602.039 -89.483)"/>
        <path id="Path_175" data-name="Path 175" d="M771.382,199.69c.636,8.629-5.776,20.048-12.492,22.249.182-4.593.674-9.075,2.5-13.318a15.064,15.064,0,0,1,6.742-7.656,14.5,14.5,0,0,1,3.253-1.275Z" transform="translate(-600.526 -158.019)"/>
        <path id="Path_176" data-name="Path 176" d="M177.071,199.67a14.521,14.521,0,0,1,9.322,7.542,29.225,29.225,0,0,1,2.926,11.091,21.052,21.052,0,0,1,.192,3.618c-6.759-2.343-13.17-13.783-12.437-22.251Z" transform="translate(-140.076 -158.003)"/>
        <path id="Path_177" data-name="Path 177" d="M769.033,270.42c-1.565,7.5-11.35,17.529-18.4,18.933C750.972,280.176,759.023,272.238,769.033,270.42Z" transform="translate(-593.99 -213.989)"/>
        <path id="Path_178" data-name="Path 178" d="M180.722,290.679A28.717,28.717,0,0,1,161.73,271.67a25.279,25.279,0,0,1,10.482,4.652A23.673,23.673,0,0,1,180.722,290.679Z" transform="translate(-127.98 -214.978)"/>
        <path id="Path_179" data-name="Path 179" d="M717.278,259.62a9.385,9.385,0,0,1,2.851,4.727,23.332,23.332,0,0,1-.369,14.645,8.789,8.789,0,0,1-4.051,5.161A7.336,7.336,0,0,1,714.7,281.6a32.024,32.024,0,0,1-.353-16.776A10.385,10.385,0,0,1,717.278,259.62Z" transform="translate(-564.519 -205.443)"/>
        <path id="Path_180" data-name="Path 180" d="M253.765,259.72a6.82,6.82,0,0,1,2.686,3.065,19.418,19.418,0,0,1,1.745,8.383,34.72,34.72,0,0,1-1.669,11.684c-.109.33-.236.651-.363.975-.05.125-.119.242-.2.4a4.75,4.75,0,0,1-2.058-1.546,14.5,14.5,0,0,1-3.12-8.026,24.059,24.059,0,0,1,1.634-12.74,8.072,8.072,0,0,1,1.348-2.2Z" transform="translate(-198.282 -205.522)"/>
        <path id="Path_181" data-name="Path 181" d="M708.7,185.738c-8.264-4.228-12.218-13.326-12.441-22.178C703.808,165.263,709.661,175.651,708.7,185.738Z" transform="translate(-550.965 -129.429)"/>
        <path id="Path_182" data-name="Path 182" d="M255.651,163.62c.77,7.46-5.469,19.107-11.857,22.13C242,176.859,246.676,166.533,255.651,163.62Z" transform="translate(-192.62 -129.476)"/>
        <path id="Path_183" data-name="Path 183" d="M786.117,861.136c-1.8,0-.952-1.632-1.736-2.275h-5.319V867.1h7.923c.411,0,.484-.309.591-.609.232-.653.528-1.29.712-1.955.207-.745.624-.922,1.429-.637-.4,1.672-.793,3.341-1.2,5.071h-15.5a1.673,1.673,0,0,1,.013-1.035l2.819-.559V849.3l-2.8-.538a1.339,1.339,0,0,1-.01-1.079H787.06c.14,1.548.277,3.051.413,4.547-1.079.49-1.131-.3-1.308-.912s-.336-1.2-.515-1.843h-6.594v7.736c1.726,0,3.418.056,5.1-.025.747-.038.534-.854.693-1.334.19-.584.3-1.189,1.223-.768a28.026,28.026,0,0,0,.04,6.054Z" transform="translate(-611.637 -670.787)"/>
        <path id="Path_184" data-name="Path 184" d="M775.98,710.761c.223-2.03,2.162-.747,2.886-1.807-.787-1.9-1.63-3.944-2.485-6.01-2.414,0-4.779.006-7.141-.006a.629.629,0,0,0-.708.451c-.657,1.895-1.329,3.786-2,5.691.918.605,2.1.136,2.848.9.119.121.017.459.017.776h-7.529c-.221-.67-.173-1.154.7-1.179,1.346-.04,1.974-.758,2.454-2.028,2.22-5.877,4.568-11.7,6.878-17.548.209-.528.317-1.058,1.158-1.064s1.029.463,1.277,1.062c2.412,5.839,4.883,11.655,7.233,17.519.509,1.271,1.129,2.064,2.546,2.074.741,0,.989.392.73,1.169h-8.867Zm-.265-9.409c-1.15-2.782-2.2-5.325-3.326-8.053-1.048,2.775-2.014,5.327-2.965,7.85a1.169,1.169,0,0,0,.891.2C772.044,701.354,773.776,701.352,775.715,701.352Z" transform="translate(-602.794 -545.173)"/>
        <path id="Path_185" data-name="Path 185" d="M290.06,13.87a21.2,21.2,0,0,1,.524,5.488,25.111,25.111,0,0,1-3.408,12.926,11.408,11.408,0,0,1-4.666,4.487,1.341,1.341,0,0,1-1.135.236c0-1.052-.029-2.151,0-3.247.152-5.027.712-9.975,3.034-14.547a11.182,11.182,0,0,1,4.424-4.854,7.494,7.494,0,0,1,.749-.361,3.821,3.821,0,0,1,.472-.127Z" transform="translate(-222.649 -10.976)"/>
        <path id="Path_186" data-name="Path 186" d="M674.945,15.9a9.842,9.842,0,0,1,5.3,4.059,26.257,26.257,0,0,1,3.915,10.77,45.015,45.015,0,0,1,.659,6.943,1.9,1.9,0,0,1-.125,1.089,8.935,8.935,0,0,1-3.871-2.3c-3.264-3.151-4.779-7.17-5.63-11.5a29.162,29.162,0,0,1-.242-9.055Z" transform="translate(-533.912 -12.582)"/>
        <path id="Path_187" data-name="Path 187" d="M290.7,98.41a24.881,24.881,0,0,1-2.387,3.4,1.516,1.516,0,0,1-1.012.463c-1.39.3-2.775.611-4.171.883-.674.131-1.071.4-.937,1.171.052.3-.044.634.017.935.376,1.809-.528,2.736-2.072,3.5a28.678,28.678,0,0,1-10.86,3.024c2.433-7.819,11.077-15.144,21.421-13.374Z" transform="translate(-213.087 -77.662)"/>
        <path id="Path_188" data-name="Path 188" d="M655.06,110.2a18.715,18.715,0,0,1-12.506-2.375,2.161,2.161,0,0,1-1.333-2.371,26.43,26.43,0,0,0,.025-3.08c-1.619-.363-3.164-.749-4.724-1.041a1.458,1.458,0,0,1-1.114-.8A17.4,17.4,0,0,1,633.67,96.9c7.164-.563,18.746,6.64,21.392,13.3Z" transform="translate(-501.437 -76.656)"/>
        <path id="Path_189" data-name="Path 189" d="M541.872,848.763a1.435,1.435,0,0,1,.058-1.073h8.785a1.667,1.667,0,0,1,.036,1.06l-2.867.561c1.92,4.929,3.817,9.8,5.843,15,1.909-5.163,3.712-10.042,5.551-15.012-1.029-.194-1.937-.367-2.807-.53a1.232,1.232,0,0,1-.038-1.054h6.891c.321.732.1,1.175-.672,1.246a2.09,2.09,0,0,0-1.87,1.594c-2.331,5.835-4.455,11.747-6.613,17.646-.177.486-.179,1.064-1.008,1.079-.808.015-.883-.513-1.075-1.014-2.268-5.9-4.562-11.78-6.767-17.7a2.025,2.025,0,0,0-1.987-1.555,12.34,12.34,0,0,1-1.463-.259Z" transform="translate(-428.737 -670.795)"/>
        <path id="Path_190" data-name="Path 190" d="M381.435,694.8A7.342,7.342,0,0,0,380.2,692a3.617,3.617,0,0,0-3.664-1.191,3.258,3.258,0,0,0-2.823,2.441,3.914,3.914,0,0,0,1.35,4.3,12.824,12.824,0,0,0,2.876,1.665c.914.421,1.838.822,2.727,1.294,1.751.929,3.055,2.214,3.061,4.357.006,2.366-.726,4.462-2.9,5.634-3.343,1.8-6.713,1.214-10.014-.257a.8.8,0,0,1-.467-.751c-.086-1.523-.19-3.045-.284-4.526a1.432,1.432,0,0,1,1.02-.313,28.417,28.417,0,0,0,.879,3.27c.664,1.569,2.75,2.533,5.156,2.367a3.737,3.737,0,0,0,3.648-2.734,3.41,3.41,0,0,0-1.231-3.813,16.011,16.011,0,0,0-3.289-1.782,16.36,16.36,0,0,1-3.078-1.734,6.12,6.12,0,0,1-2.247-6.59c.686-2.487,2.517-3.708,4.935-4.226,1.974-.422,3.861.152,5.772.455.451.071.5.384.53.758.079,1.108.186,2.214.273,3.322.067.835.06.835-.989.845Z" transform="translate(-292.837 -545.43)"/>
        <path id="Path_191" data-name="Path 191" d="M693.334,707.2c-.453,1.964-.9,3.886-1.35,5.853H676.966c-.282-1.018-.282-1.014.7-1.2.676-.125,1.35-.259,2.043-.392V693.4l-2.8-.538a1.328,1.328,0,0,1-.036-1.043h8.754c.225.3.125.609.1,1.018l-2.873.549V711.21c2.448,0,4.835,0,7.222,0,.411,0,.511-.3.632-.584.4-.924.822-1.838,1.169-2.782.25-.68.632-.947,1.446-.647Z" transform="translate(-535.555 -547.452)"/>
        <path id="Path_192" data-name="Path 192" d="M577.689,59.662a14.67,14.67,0,0,1-5.739.71,21.311,21.311,0,0,1-10.467-3.08,7.476,7.476,0,0,1-3.673-4.7c5.954-1.872,15.889,1.427,19.879,7.07Z" transform="translate(-441.407 -41.202)"/>
        <path id="Path_193" data-name="Path 193" d="M358.28,56.806c3.076-5.342,13.75-9.8,19.474-8.124a5.771,5.771,0,0,1-1.891,3.671,17.752,17.752,0,0,1-8.927,4.439,18.234,18.234,0,0,1-7.855.246c-.267-.056-.526-.152-.8-.232Z" transform="translate(-283.515 -38.24)"/>
        <path id="Path_194" data-name="Path 194" d="M154.371,847.529a1.29,1.29,0,0,1,0,1c-.7.136-1.442.313-2.189.407-.52.067-.7.286-.7.8q.019,8.392,0,16.782c0,.538.236.743.724.806s.956.2,1.44.227c.762.044.958.428.753,1.187H145.51c-.344-.9.113-1.125.916-1.231a4.86,4.86,0,0,0,1.924-.438V849.079l-2.88-.549c-.046-.543-.321-1.125.584-1.121q4.013.013,8.026.023a.99.99,0,0,1,.288.094Z" transform="translate(-115.054 -670.574)"/>
        <path id="Path_195" data-name="Path 195" d="M540.919,1.242c8.143.86,14.572,5.3,15.208,10.513a2.627,2.627,0,0,1-1.586-.131,26.686,26.686,0,0,1-9.349-3.345,8.586,8.586,0,0,1-4.211-5.328,3.407,3.407,0,0,1-.063-1.711Z" transform="translate(-427.973 -0.981)"/>
        <path id="Path_196" data-name="Path 196" d="M475.041,608.029a4.206,4.206,0,0,1-2,.517,2.513,2.513,0,0,1-2.285-1.822,2.8,2.8,0,0,1,4.581-2.821c1.968,1.715,1.607,6-.628,7.333a2.784,2.784,0,0,1-2.494.292,1.221,1.221,0,0,1-.818-.743c-.125-.394-.106-.791.367-.937.4-.123.661.083.772.484s.077.91.639.935a1.375,1.375,0,0,0,1.208-.86,5.005,5.005,0,0,0,.659-2.383Zm.063-1.354a5.294,5.294,0,0,0-.682-2.573,1.113,1.113,0,0,0-1.966,0,3.369,3.369,0,0,0,.449,3.593,1.31,1.31,0,0,0,1.534.232,1.015,1.015,0,0,0,.664-1.252Zm.015-2.045a10.122,10.122,0,0,1-.444,6.1C476.237,608.934,476.391,606.14,475.118,604.629Zm-3.42-.334c-1.181,1.494-.843,3.147.71,3.644C471.345,606.9,471.425,605.679,471.7,604.3Z" transform="translate(-372.453 -477.327)"/>
        <path id="Path_197" data-name="Path 197" d="M449.328,611.472H445.66c1.388-.543,1.11-1.73,1.125-2.79.01-.9-.019-1.8.008-2.7.027-.958-.035-1.834-1.413-2.02a14.864,14.864,0,0,1,2.851-.707v3.957c0,.693.042,1.39-.01,2.081a1.914,1.914,0,0,0,1.108,2.187Zm-2.454-7.646a40.412,40.412,0,0,1,.156,7.266c.217.013.524.121.624.044v-7.312a1.974,1.974,0,0,0-.78,0Z" transform="translate(-352.439 -477.365)"/>
        <path id="Path_198" data-name="Path 198" d="M508.166,605.414c-1.6.119-3.02-.388-4.236.762.223-.641.447-1.283.668-1.916h4.737a11.4,11.4,0,0,0-2.444,7.953,3.028,3.028,0,0,1-1.615,0c0-2.562,1.162-4.637,2.892-6.8Zm-1.586,3.114a5.955,5.955,0,0,0-.96,2.794c-.023.215-.129.52.246.572s.365-.225.363-.469C506.219,610.447,506.505,609.512,506.58,608.528Zm1.747-3.9c-1.181-.081-2.387-.363-3.514.2A16.634,16.634,0,0,0,508.327,604.623Z" transform="translate(-398.771 -478.164)"/>
        <path id="Path_199" data-name="Path 199" d="M534.182,612.142a3.652,3.652,0,0,1-1.711.058c0-2.583,1.162-4.687,2.9-6.828-1.582.127-2.969-.419-4.132.918a5.21,5.21,0,0,1,.613-2.091h4.712a10.527,10.527,0,0,0-2.383,7.942Zm-.052-4.407a7.64,7.64,0,0,0-1.3,3.573c-.023.23-.1.524.273.538s.332-.28.336-.515A13.741,13.741,0,0,1,534.129,607.735Zm1.413-2.965c-.008-.121-.019-.24-.027-.361-1.175.127-2.394-.246-3.518.361Z" transform="translate(-420.381 -478.117)"/>
        <path id="Path_200" data-name="Path 200" d="M160.592,665.665a1.65,1.65,0,0,1-1.592-1.6,1.629,1.629,0,0,1,1.569-1.615,1.6,1.6,0,0,1,1.638,1.642A1.636,1.636,0,0,1,160.592,665.665Z" transform="translate(-125.82 -524.21)"/>
        <path id="Path_201" data-name="Path 201" d="M486.507,818.47a1.606,1.606,0,0,1-.083,3.209,1.606,1.606,0,1,1,.083-3.212Z" transform="translate(-383.662 -647.671)"/>
        <path id="Path_202" data-name="Path 202" d="M461.321,818.472a1.656,1.656,0,0,1,1.655,1.538,1.612,1.612,0,0,1-1.611,1.672,1.607,1.607,0,0,1-.042-3.212Z" transform="translate(-363.849 -647.673)"/>
        <path id="Path_203" data-name="Path 203" d="M185.79,665.672a1.732,1.732,0,0,1-1.642-1.565,1.681,1.681,0,0,1,1.657-1.647,1.582,1.582,0,0,1,1.555,1.6A1.622,1.622,0,0,1,185.79,665.672Z" transform="translate(-145.72 -524.219)"/>
        <path id="Path_204" data-name="Path 204" d="M396.241,316.973a16.468,16.468,0,0,1-.284,9.09,5.659,5.659,0,0,0,2.235-1.663c.3-.319.152-.649.058-.977a11,11,0,0,1,.831-8.191,3.514,3.514,0,0,1,1.118-1.555,20.858,20.858,0,0,1,.522,4.51,23.117,23.117,0,0,1-.486,4.566c.92-.954,1.538-1.611,1.39-2.915a11.722,11.722,0,0,1,3.326-9.9c1.006,3.28-.238,6.037-1.275,8.842a12.758,12.758,0,0,0,1.855-2.909,24.847,24.847,0,0,1,3.527-5.513c1.1-1.164,1.793-1.534,2.947-1.455-.524,4.549-3.27,7.665-6.544,10.5,2.567-1.039,5.05-2.316,8.12-2.373a10.987,10.987,0,0,1-5.49,4.349,18.439,18.439,0,0,1-4.775,1.023,2.3,2.3,0,0,0-1.939,1.425,15.128,15.128,0,0,1,9.213,1.822c-3.489,1.008-6.715,1.968-9.975.144a1.672,1.672,0,0,0-2.379.438A13.014,13.014,0,0,1,397,327.353a26.79,26.79,0,0,1,8.733,3.4c-4.036,1.231-7.3-.088-10.4-2.235-1.1.6-2.2,1.185-3.522,1.9,3.107,1.023,5.885,2.17,8.216,4.541a10.226,10.226,0,0,1-8.748-2.554c-1.3-1.154-1.279-1.175-2.794-.323-2.713,1.525-3.4,4.046-3.139,6.843.1,1.029.87,1.35,1.759,1.448a7.539,7.539,0,0,0,2.863-.463c1-.282,1.991-.618,3.007-.841a3.858,3.858,0,0,1,4.533,2.076c-.054.031-.121.1-.159.086a7.84,7.84,0,0,0-6.53.682,6.329,6.329,0,0,1-3.84.82,3.375,3.375,0,0,0,1.688.394,12.662,12.662,0,0,1,3.011.182,1.513,1.513,0,0,1,1.329,1.519c-3.02-.44-6.093.774-8.975-.931a3.827,3.827,0,0,1-1.473,3.462c.023-1.409-.8-2.41-1.108-3.679-2.711,1.578-5.778.294-8.577,1.308a2.5,2.5,0,0,1,2.544-2.055c.866-.063,1.74-.027,2.6-.113a1.565,1.565,0,0,0,1.246-.563c-2.807.223-5.338-.735-7.972-.964-1.194-.1-2.039.175-3.992,1.369a4.048,4.048,0,0,1,2.043-2.563,6.851,6.851,0,0,1,5.067-.457,15.956,15.956,0,0,0,3.491.563,2.483,2.483,0,0,0,2.7-2.646,6.279,6.279,0,0,0-4.837-5.7c-.451-.069-.607.269-.847.49A11.609,11.609,0,0,1,366,335.318a.986.986,0,0,1-.8-.3c1.905-2.888,4.96-3.6,8.389-4.284-1.294-.691-2.325-1.265-3.378-1.793-.367-.184-.649.163-.935.334a15.3,15.3,0,0,1-7.6,2.254,4.369,4.369,0,0,1-1.738-.209c2.033-2.631,4.931-3.245,8-3.729-.532-.626-1.283-.908-1.722-1.58a13.073,13.073,0,0,1-5.6,1.039,17.246,17.246,0,0,1-5.816-1.148c2.884-1.932,5.91-1.8,9.123-1.567a3.91,3.91,0,0,0-2.9-1.517,11.249,11.249,0,0,1-9.7-5.741,24.955,24.955,0,0,1,7.381,2.819,20.452,20.452,0,0,1-5.376-10.618,6.216,6.216,0,0,1,2.823,1.609,20.756,20.756,0,0,1,3.059,5.067,41,41,0,0,0,1.926,3.81,46.138,46.138,0,0,1-1.064-4.532,12.346,12.346,0,0,1-.023-4.777c.392-.033.53.294.695.518a13.739,13.739,0,0,1,2.717,9.4c-.123,1.8.123,2.329,1.97,3.053a14.357,14.357,0,0,1-.246-9.1,4.314,4.314,0,0,1,1.219,1.669,12.981,12.981,0,0,1,1.062,7.327c-.25,1.924-.244,2.014,1.755,3.061a20.6,20.6,0,0,1-.223-8.881c.511-.017.605.376.762.655a12.447,12.447,0,0,1,1.4,8.364,1.344,1.344,0,0,0,.791,1.726,10.932,10.932,0,0,0,2.275.939c-1.576-2.711-2.646-5.413-1.863-8.629a10.545,10.545,0,0,1,3.514,6.58,3.964,3.964,0,0,1,.148,1.237c-.2,1.419.574,2.033,1.77,2.485a12.219,12.219,0,0,1,4,2.189c.422-1.306.4-1.375-.739-1.939a9.945,9.945,0,0,1-5.34-6.588c-.069-.248-.223-.518-.06-.8,2.022.492,3.894,2.087,6.187,5.265a1.934,1.934,0,0,0-1.039-2.972,10.551,10.551,0,0,1-5.822-6.651c3.159.793,5.165,2.844,7.005,5.2.188-1.548.027-1.926-1.11-2.719a14.754,14.754,0,0,1-5.726-7.156,6.2,6.2,0,0,1,3.825,2.072c1.054,1.062,1.8,2.371,2.813,3.575a1.409,1.409,0,0,0-.547-1.813,11.913,11.913,0,0,1-4.432-7.665c-.04-.309-.071-.622-.086-.933s0-.611,0-1.148c2.022,1.745,3.047,3.94,4.322,5.991-.207-2.671-.125-5.255,1.415-7.786,1.72,2.748,1.169,5.561.937,8.589,1.482-2.567,2.189-5.4,5.033-6.962a18.064,18.064,0,0,1-3.307,8.973c1.352-1.342,2.579-2.782,4.551-3.541a11.9,11.9,0,0,1-5.238,7.98c-.922.616-1.054,1.3-.9,2.477,1.884-2.412,3.74-4.591,6.546-5.9a6.963,6.963,0,0,1-.964,2.888,9.98,9.98,0,0,1-4.545,4.3c-.856.411-1.219.887-1,1.824.081.353.013.741.113,1.167a13.438,13.438,0,0,1,6.121-5.474,9.2,9.2,0,0,1-2.279,5.348,8.725,8.725,0,0,1-2.853,2.243c-1.054.486-1.037,1.2-.82,2.245a19.065,19.065,0,0,1,5.211-3.134c.622-.292.48-.776.476-1.235a12.063,12.063,0,0,1,2.442-7.385,2.091,2.091,0,0,1,.933-.862,13.328,13.328,0,0,1-1.5,8.372,6.9,6.9,0,0,0,3.005-1.824.9.9,0,0,0,.175-.981c-1.039-2.26-.3-4.434.334-6.6a4.232,4.232,0,0,1,1.336-2.523Z" transform="translate(-277.999 -242.928)"/>
      </g>
    </g>
  </g>
</svg>
