<svg xmlns="http://www.w3.org/2000/svg" xmlns:xlink="http://www.w3.org/1999/xlink" width="600" height="300" viewBox="0 0 600 300">
  <defs>
    <clipPath id="clip-Logo">
      <rect width="600" height="300"/>
    </clipPath>
  </defs>
  <g id="Logo" clip-path="url(#clip-Logo)">
    <rect width="600" height="300" fill="#e8eff3"/>
    <g id="c" transform="translate(200.001 49.995)">
      <path id="Path_423" data-name="Path 423" d="M176.846,162.6c-25.5,31.323-64.608,42.262-100.453,33.948C41.069,188.5,10.98,158.672,3.081,122.788-6.481,81.5,9.3,40.472,45.292,16.658c31.96-21.566,76.067-21.553,107.585-1.182A100.364,100.364,0,0,1,189.345,56.8c16.019,33.09,13.031,75.145-12.485,105.779Z" transform="translate(0.102 0.1)" fill="#fff"/>
      <path id="Path_424" data-name="Path 424" d="M190.057,56.63A100.725,100.725,0,0,0,153.225,15.3c-31.635-20.423-75.95-20.7-108.1.974A99.825,99.825,0,0,0,2.664,122.927c7.951,36.078,38.222,66.05,73.754,74.144,36.052,8.354,75.4-2.637,101.063-34.116,25.269-30.31,28.426-73.611,12.563-106.325ZM175.415,161.214c-24.957,30.635-63.231,41.366-98.387,33.22-34.519-7.847-64-37.04-71.7-72.065a97.1,97.1,0,0,1,41.3-103.83c31.219-21.06,74.391-20.813,105.117-.961a97.889,97.889,0,0,1,35.844,40.2c15.447,31.817,12.355,74-12.186,103.428ZM97.789,11.7l.624.026a.483.483,0,0,1,.364.169.5.5,0,0,1,.13.377s-.195,3.742-.26,5.7a4.1,4.1,0,0,0,1.117,3.378,5.56,5.56,0,0,0,3.573,1.1h.611c1.975,0,4.066-.533,4.456-4.5l.247-5.353a.533.533,0,0,1,.546-.507h.377a.349.349,0,0,0,.364-.338l.026-.78a.449.449,0,0,0-.091-.26.369.369,0,0,0-.247-.117l-4.053-.143a.369.369,0,0,0-.364.351l-.026.78a.381.381,0,0,0,.351.377l.624.026a.483.483,0,0,1,.364.169.566.566,0,0,1,.143.377l-.234,4.95c-.351,2.455-.974,3.209-2.663,3.209h-.234c-1.858-.078-2.715-1.065-2.65-3.04.078-1.884.26-5.327.26-5.327a.546.546,0,0,1,.559-.507h.377a.347.347,0,0,0,.364-.325l.026-.78a.4.4,0,0,0-.091-.26.439.439,0,0,0-.247-.117L97.867,10.2a.369.369,0,0,0-.364.351l-.026.78a.381.381,0,0,0,.351.377Zm39.4,19.8a.648.648,0,0,0,.156.039.383.383,0,0,0,.325-.195l.351-.689a.35.35,0,0,0-.156-.481l-.481-.247a.481.481,0,0,1-.26-.312.547.547,0,0,1,.039-.4l3.6-6.886a.542.542,0,0,1,.468-.286.563.563,0,0,1,.247.052l.416.208a.637.637,0,0,0,.169.039.347.347,0,0,0,.312-.195l.351-.689a.331.331,0,0,0,.013-.273.341.341,0,0,0-.169-.208l-3.794-1.949a.648.648,0,0,0-.156-.039.367.367,0,0,0-.325.195l-.351.689a.35.35,0,0,0,.156.481l.481.247a.513.513,0,0,1,.26.312.508.508,0,0,1-.039.39l-3.586,6.886a.542.542,0,0,1-.468.286.476.476,0,0,1-.234-.052l-.416-.208a.637.637,0,0,0-.169-.039.383.383,0,0,0-.325.195l-.351.689a.361.361,0,0,0,.156.481l3.807,1.949ZM72.429,21.188c.468,0,.948-.039,1.455-.078.455-.039.883-.078,1.286-.078.741,0,1.624.117,1.923,1.026a1.56,1.56,0,0,1-.312,1.6,3.321,3.321,0,0,1-1.52.909,10.691,10.691,0,0,1-1.793.286.735.735,0,0,1-.637-.429l-.26-.676a.389.389,0,0,0-.416-.234h-.065l-.948.312a.322.322,0,0,0-.208.182.337.337,0,0,0-.026.273l.676,2.079a.534.534,0,0,0,.481.351h.013a17.849,17.849,0,0,0,3.391-.494,5.735,5.735,0,0,0,3.482-2.468,3.433,3.433,0,0,0,.208-2.676,3.038,3.038,0,0,0-3.313-2.144c-.455,0-.922.039-1.429.078-.442.039-.857.078-1.247.078-.715,0-1.572-.117-1.858-.974-.325-.987.325-1.845,1.715-2.3a6.819,6.819,0,0,1,1.312-.208.7.7,0,0,1,.637.429l.208.52a.406.406,0,0,0,.416.234h.065l.948-.312a.322.322,0,0,0,.208-.182.392.392,0,0,0,.026-.273l-.6-1.845a.537.537,0,0,0-.494-.351A18.033,18.033,0,0,0,72.7,14.2a5.434,5.434,0,0,0-3.118,2.17,3.3,3.3,0,0,0-.3,2.819,2.873,2.873,0,0,0,3.144,2Zm-21.566,4.82a.35.35,0,0,0,.312.182.325.325,0,0,0,.182-.052l.468-.273a.591.591,0,0,1,.26-.065.524.524,0,0,1,.455.26l3.82,6.756a.529.529,0,0,1-.195.715l-.4.234a.362.362,0,0,0-.13.494l.39.676a.377.377,0,0,0,.312.182.3.3,0,0,0,.182-.052l4.092-2.352c.208-.117.546-.338.741-.468a10.638,10.638,0,0,0,2.3-2.222,5.583,5.583,0,0,0-.13-5.937c-1.221-2.118-2.663-3.144-4.43-3.144a6.445,6.445,0,0,0-2.365.52,12.208,12.208,0,0,0-1.533.767l-4.547,2.611a.362.362,0,0,0-.13.494L50.9,26Zm3.781-1.767.9-.507a5.607,5.607,0,0,1,.805-.377,6.632,6.632,0,0,1,1.975-.416,2.473,2.473,0,0,1,.572.065c.909.273,1.572.7,2.481,2.261a4.786,4.786,0,0,1,.559,4.079,4.253,4.253,0,0,1-1.572,1.676c-.169.156-1.325.87-1.377.9a.456.456,0,0,1-.26.065.525.525,0,0,1-.455-.273l-3.82-6.756A.529.529,0,0,1,54.644,24.241ZM178.131,86.914l-.065-.468a.374.374,0,0,0-.39-.312h0l-.767.117a.345.345,0,0,0-.3.4l.611,4.222a.364.364,0,0,0,.364.312h.052l.767-.117a.354.354,0,0,0,.3-.4l-.078-.533a.526.526,0,0,1,.1-.39.549.549,0,0,1,.351-.208l7.769-1.052a.53.53,0,0,1,.52.455l.065.468a.369.369,0,0,0,.4.3h0l.767-.117a.357.357,0,0,0,.234-.13.3.3,0,0,0,.065-.273l-.611-4.222a.374.374,0,0,0-.39-.312h0l-.767.117a.3.3,0,0,0-.234.143.374.374,0,0,0-.065.26l.078.533a.476.476,0,0,1-.1.39.459.459,0,0,1-.338.195L178.7,87.343a.53.53,0,0,1-.52-.455ZM146.9,37.688l1.234.961a.639.639,0,0,0,.364.117.6.6,0,0,0,.273-.065l8.938-5.054a.792.792,0,0,1,.364-.091.77.77,0,0,1,.468.143l.195.156a.671.671,0,0,0,.221.078.372.372,0,0,0,.286-.13l.481-.611a.342.342,0,0,0,.078-.273.329.329,0,0,0-.13-.234l-3.183-2.494a.353.353,0,0,0-.221-.078.372.372,0,0,0-.286.13l-.481.611a.327.327,0,0,0-.078.26.29.29,0,0,0,.13.234l.442.351a.406.406,0,0,1,.169.325.367.367,0,0,1-.208.312l-6.561,4.118c-.325.195-.39.234-.442.234h-.026c-.065-.026-.091-.039.078-.533l2.416-7.366a.384.384,0,0,1,.351-.286.413.413,0,0,1,.26.1l.247.195a.353.353,0,0,0,.221.078.345.345,0,0,0,.286-.143l.481-.611a.369.369,0,0,0-.065-.507l-3.326-2.611a.353.353,0,0,0-.221-.078.372.372,0,0,0-.286.13l-.481.611a.367.367,0,0,0,.052.507l.247.195a.792.792,0,0,1,.26.792l-2.754,9.9a.638.638,0,0,0,.195.611Zm31.856,36.52c.1,1.455.208,2.819-1,3.2a1.992,1.992,0,0,1-.533.091c-.857,0-1.572-.715-1.949-1.949a10.066,10.066,0,0,1-.26-1.754.676.676,0,0,1,.442-.676l.676-.247a.394.394,0,0,0,.234-.481l-.3-.948c-.039-.143-.169-.234-.39-.234h-.052l-2.092.65a.537.537,0,0,0-.351.494,17.114,17.114,0,0,0,.442,3.391c1.052,3.4,2.975,3.911,4.027,3.911a3.459,3.459,0,0,0,1.078-.169c2.4-.741,2.248-2.845,2.118-4.716-.1-1.4-.195-2.741.948-3.092a1.471,1.471,0,0,1,.468-.078c.793,0,1.442.663,1.806,1.819a6.625,6.625,0,0,1,.195,1.273.7.7,0,0,1-.442.676l-.52.195a.382.382,0,0,0-.234.481l.286.948c.039.143.169.234.39.234h.052l1.845-.572a.532.532,0,0,0,.351-.494,17.248,17.248,0,0,0-.351-3.053c-.715-2.326-2.131-3.651-3.872-3.651a3.379,3.379,0,0,0-1.065.169c-2.261.7-2.1,2.767-1.988,4.586ZM164.437,39.767a.555.555,0,0,1,.13.377.455.455,0,0,1-.182.364L158.5,45.574a.554.554,0,0,1-.351.13.533.533,0,0,1-.4-.182l-.312-.351a.354.354,0,0,0-.273-.117.333.333,0,0,0-.234.091l-.585.507a.344.344,0,0,0-.117.247.375.375,0,0,0,.091.26l5.366,6.132a.372.372,0,0,0,.286.13.363.363,0,0,0,.234-.078l2.144-1.65a.31.31,0,0,0,.13-.234.343.343,0,0,0-.091-.247l-.689-.78a.415.415,0,0,0-.312-.143.449.449,0,0,0-.234.065l-.857.6a.568.568,0,0,1-.325.1.608.608,0,0,1-.442-.195l-1.65-1.9a.516.516,0,0,1-.13-.377.47.47,0,0,1,.182-.351l2.053-1.78a.547.547,0,0,1,.338-.13.533.533,0,0,1,.4.182l1.689,1.923a.366.366,0,0,0,.273.13.313.313,0,0,0,.234-.091l.585-.507a.369.369,0,0,0,.117-.247.4.4,0,0,0-.091-.26l-1.676-1.91a.528.528,0,0,1-.13-.39.47.47,0,0,1,.182-.351l1.9-1.637a.547.547,0,0,1,.338-.13.533.533,0,0,1,.4.182l1.65,1.884a.59.59,0,0,1-.013.767l-.572.6a.4.4,0,0,0,0,.546l.585.663a.327.327,0,0,0,.26.117.373.373,0,0,0,.234-.091l1.819-1.689a.381.381,0,0,0,.026-.52L165.2,38.4a.336.336,0,0,0-.273-.117.313.313,0,0,0-.234.091l-.585.507a.32.32,0,0,0-.117.247.4.4,0,0,0,.091.26l.351.4Zm10.549,13.719a.626.626,0,0,1,.052.4.5.5,0,0,1-.247.312l-6.808,3.729a.583.583,0,0,1-.247.065.53.53,0,0,1-.468-.273l-.234-.416a.35.35,0,0,0-.312-.182.36.36,0,0,0-.169.039l-.676.377a.379.379,0,0,0-.143.494l2.079,3.716a.35.35,0,0,0,.312.182.261.261,0,0,0,.169-.052l.676-.377a.36.36,0,0,0,.143-.481l-.26-.468a.626.626,0,0,1-.052-.4.539.539,0,0,1,.247-.312l2.222-1.221a.77.77,0,0,1,.351-.1.272.272,0,0,1,.26.13,6.609,6.609,0,0,1,.286.637c0,.026.26.715-1.143,2.806C169.491,64.347,170,65.594,170,65.607a8.616,8.616,0,0,0,.377.78l.169.286a.35.35,0,0,0,.312.182.261.261,0,0,0,.169-.052l.754-.416c.182-.091.273-.156-.052-.844-.13-.273.065-.611.364-1.117a9.879,9.879,0,0,0,.689-1.39,8.636,8.636,0,0,0,.572-2.494V60.4h.091s.065,0,.4.312a6.013,6.013,0,0,0,.78.6,2.845,2.845,0,0,0,1.455.429,2.889,2.889,0,0,0,1.468-.429c1.65-.948,1.923-2.858.715-5L176,52.265a.35.35,0,0,0-.312-.182.261.261,0,0,0-.169.052l-.676.377a.339.339,0,0,0-.13.481l.26.468Zm.87,2.65a.583.583,0,0,1,.247-.065.53.53,0,0,1,.468.273,4.177,4.177,0,0,1,.546,1.325,1.8,1.8,0,0,1-.818,1.936,1.362,1.362,0,0,1-.7.195,2.613,2.613,0,0,1-1.7-.909,3.515,3.515,0,0,1-.585-.754.615.615,0,0,1-.052-.4.539.539,0,0,1,.247-.312l2.339-1.286ZM115.744,23.449l3.755,1.065a.374.374,0,0,0,.351-.26l.208-.741a.372.372,0,0,0-.234-.455l-.52-.143a.512.512,0,0,1-.351-.65l1.715-5.729c.13-.442.156-.468.234-.468h0s.065.013.247.468l3.469,9.133a.884.884,0,0,0,.533.481l.87.26a.7.7,0,0,0,.1.013.374.374,0,0,0,.351-.26l2.663-9.029a.53.53,0,0,1,.507-.377.257.257,0,0,1,.143.026l.546.143a.347.347,0,0,0,.338-.26l.221-.741a.4.4,0,0,0-.026-.273.325.325,0,0,0-.221-.169l-3.755-1.065a.374.374,0,0,0-.351.26l-.221.741a.353.353,0,0,0,.247.442l.52.143a.539.539,0,0,1,.312.247.6.6,0,0,1,.052.4l-1.6,5.327c-.13.416-.156.468-.234.468h-.039c-.026,0-.052-.026-.208-.455l-3.274-8.64a.884.884,0,0,0-.533-.481l-2.65-.754a.374.374,0,0,0-.351.26l-.208.741a.4.4,0,0,0,.026.273.432.432,0,0,0,.208.169l.52.143a.512.512,0,0,1,.351.65L117.251,21.8a.53.53,0,0,1-.507.377.257.257,0,0,1-.143-.026l-.546-.143a.374.374,0,0,0-.351.26l-.208.754a.4.4,0,0,0,.026.273.367.367,0,0,0,.221.169ZM29.063,132.268a.342.342,0,0,0-.325-.208.28.28,0,0,0-.143.026l-.7.312a.357.357,0,0,0-.182.468l.221.481a.514.514,0,0,1-.273.689l-2.806,1.221a.558.558,0,0,1-.182.052.218.218,0,0,1-.182-.078.289.289,0,0,1,0-.3l1.637-4.547c.078-.195.182-.234.234-.234s.156.026.234.208l.078.169a.37.37,0,0,0,.325.208.257.257,0,0,0,.143-.026l.715-.312a.357.357,0,0,0,.182-.468l-1.715-3.859a.342.342,0,0,0-.325-.208.28.28,0,0,0-.143.026l-.715.312a.3.3,0,0,0-.182.195.333.333,0,0,0,0,.273l.078.169a1.371,1.371,0,0,1,.026.883l-1.936,5.34a.505.505,0,0,1-.468.325.521.521,0,0,1-.195-.039L17.7,131.229a1.321,1.321,0,0,1-.624-.624l-.078-.169a.387.387,0,0,0-.338-.221.28.28,0,0,0-.143.026l-.715.312a.3.3,0,0,0-.182.195.333.333,0,0,0,0,.273l1.637,3.7a.354.354,0,0,0,.325.221.257.257,0,0,0,.143-.026l.7-.312a.382.382,0,0,0,.195-.208.394.394,0,0,0,0-.273l-.182-.416c-.065-.156-.052-.247-.013-.3l.13-.078H18.6a.9.9,0,0,1,.182.039l4.612,2.014c.182.078.221.195.221.247s-.026.169-.221.247l-2.858,1.234a.539.539,0,0,1-.208.039.511.511,0,0,1-.481-.312l-.195-.429a.354.354,0,0,0-.325-.221.257.257,0,0,0-.143.026l-.715.312a.3.3,0,0,0-.182.195.333.333,0,0,0,0,.273l1.728,3.9a.342.342,0,0,0,.325.208.257.257,0,0,0,.143-.026l.715-.312a.352.352,0,0,0,.182-.468l-.221-.494a.484.484,0,0,1,0-.4.493.493,0,0,1,.273-.286l7.12-3.092a.588.588,0,0,1,.208-.039.532.532,0,0,1,.481.312l.195.429a.342.342,0,0,0,.325.208.257.257,0,0,0,.143-.026l.7-.312a.367.367,0,0,0,.182-.481l-1.728-3.9Zm-5.95-11.654.052.312a.361.361,0,0,0,.351.3h.065l.754-.156a.345.345,0,0,0,.234-.143.34.34,0,0,0,.052-.273l-.741-3.872a.371.371,0,0,0-.4-.286H23.45l-.767.143a.355.355,0,0,0-.286.416l.065.312a.384.384,0,0,1-.078.338.391.391,0,0,1-.338.117h-.039l-1.52-.286a.772.772,0,0,1-.585-.572l-.7-3.222a.748.748,0,0,1,.351-.741l1.4-.741a.411.411,0,0,1,.208-.052.387.387,0,0,1,.377.338l.065.312a.371.371,0,0,0,.4.286h.013l.754-.143a.361.361,0,0,0,.286-.429l-.793-4.157a.361.361,0,0,0-.4-.286h-.026l-.754.143a.362.362,0,0,0-.234.156.331.331,0,0,0-.052.273l.065.312a.759.759,0,0,1-.338.754l-8.717,5.4a.6.6,0,0,0-.26.585l.325,1.728a.622.622,0,0,0,.455.455l10.147,2.092a.808.808,0,0,1,.585.585Zm-4.755-3.547a.391.391,0,0,1-.338.117h-.039l-3.82-.624c-.494-.078-.494-.1-.507-.156s-.013-.078.429-.325l3.339-1.845a.479.479,0,0,1,.221-.065.387.387,0,0,1,.377.338l.416,2.209a.384.384,0,0,1-.078.338ZM41.847,45.223a.837.837,0,0,1-.182.805l-.234.221a.353.353,0,0,0-.013.507l.533.572a.346.346,0,0,0,.26.117.41.41,0,0,0,.247-.091l2.884-2.676a.353.353,0,0,0,.013-.507l-.533-.572a.346.346,0,0,0-.26-.117.41.41,0,0,0-.247.091l-.234.208a.426.426,0,0,1-.286.117.4.4,0,0,1-.351-.26L42.873,42.2a.767.767,0,0,1,.169-.793l2.352-2.313a.68.68,0,0,1,.481-.169A.667.667,0,0,1,46.2,39l1.377.792a.391.391,0,0,1,.221.3.4.4,0,0,1-.143.338l-.234.221a.439.439,0,0,0-.117.247.4.4,0,0,0,.091.26l.533.572a.346.346,0,0,0,.26.117.41.41,0,0,0,.247-.091l3.092-2.871a.366.366,0,0,0,.026-.507l-.533-.572a.327.327,0,0,0-.26-.117.41.41,0,0,0-.247.091L50.278,38a.791.791,0,0,1-.52.182.771.771,0,0,1-.3-.065l-9.211-4.508a.9.9,0,0,0-.221-.052.609.609,0,0,0-.4.143l-1.286,1.2a.614.614,0,0,0-.143.624l3.625,9.7ZM40.2,35.778h.026l.026-.013c.013,0,.065,0,.442.208l3.339,1.845a.371.371,0,0,1,.221.3.427.427,0,0,1-.143.351L42.457,40a.426.426,0,0,1-.286.117.4.4,0,0,1-.351-.26l-1.507-3.573c-.195-.468-.182-.481-.13-.52Zm147.665,79.38-.831-.169a.371.371,0,0,0-.351.286l-.1.52a.536.536,0,0,1-.585.4h-.039l-7.587-1.65a.512.512,0,0,1-.325-.221.524.524,0,0,1-.078-.39l.091-.468A.34.34,0,0,0,178,113.2a.378.378,0,0,0-.234-.156l-.831-.169a.36.36,0,0,0-.351.286l-1.676,7.977a.406.406,0,0,0,.273.455l2.7.728a.333.333,0,0,0,.325-.26l.221-1.013a.445.445,0,0,0-.273-.481l-1-.325a.577.577,0,0,1-.377-.663l.507-2.455a.536.536,0,0,1,.585-.4h.039l2.65.572a.521.521,0,0,1,.4.624l-.52,2.494a.34.34,0,0,0,.052.273.387.387,0,0,0,.221.156l.831.169a.36.36,0,0,0,.351-.286l.52-2.481a.536.536,0,0,1,.585-.4h.039l2.442.52a.531.531,0,0,1,.4.624l-.52,2.455a.591.591,0,0,1-.611.442h0l-.87-.1a.417.417,0,0,0-.39.312l-.182.857a.366.366,0,0,0,.052.26.319.319,0,0,0,.234.143l2.442.429h.065a.354.354,0,0,0,.364-.286l1.663-7.912a.4.4,0,0,0-.052-.273.362.362,0,0,0-.234-.156ZM163.775,69.024a71.963,71.963,0,0,0-26.256-29.284c-22.138-14.291-53.994-14.395-76.34.754a70.82,70.82,0,0,0-30.128,76.145C36.572,141.674,58.242,163.15,83,168.749c26.152,6.067,54.033-1.962,72.169-24.4,17.565-21.086,19.981-52.175,8.614-75.339ZM138.558,57.033a16.666,16.666,0,0,0,4.612-9.939,68.3,68.3,0,0,1,17.864,22.359l-.169.091c-3.729,1.962-7.327,2.066-11.641.468-1.1-.416-5.781-1.819-7.016-2.1-8.575-1.988-13.317,2.91-14.031,4.664-.494-.507-1.26-7.782,4.274-11.3.831-.533,1.78-1.039,2.754-1.65a18.364,18.364,0,0,0,3.365-2.6Zm-30.271-6.886c.468-.883,1.026-1.793,1.559-2.806a18.514,18.514,0,0,0,1.611-3.937,16.738,16.738,0,0,0-.961-10.887,65.2,65.2,0,0,1,25.581,9.432c.273.169.533.351.805.52l-.559.883c-2.248,3.56-4.118,5.21-8.666,5.976-1.156.195-5.911,1.312-7.132,1.689-8.964,2.715-9.77,9.9-9.822,11.043-.676-.182-5.457-6.119-2.429-11.926ZM62.634,42.7a58.621,58.621,0,0,1,6.015-3.573l.507.948c1.962,3.729,1.91,6.171.312,10.484-.4,1.1-.818,2.209-1.182,3.326a25.97,25.97,0,0,0-.922,3.69,15.835,15.835,0,0,0,.909,8.549A12.7,12.7,0,0,0,72.6,71.636c-.494.481-8.081,1.637-11.6-3.9-.533-.844-1.039-1.793-1.65-2.754a18.364,18.364,0,0,0-2.6-3.365A16.668,16.668,0,0,0,46.8,57.007,70.347,70.347,0,0,1,62.621,42.69ZM43.328,61.723l.715.455c3.56,2.248,4.521,5.4,5.3,9.939.195,1.156.39,2.326.637,3.469a25,25,0,0,0,1.052,3.651A18.535,18.535,0,0,0,56.592,87a11.82,11.82,0,0,0,5.547,2.053c-.182.663-6.171,5.457-11.978,2.429-.883-.455-1.793-1.026-2.806-1.559A19.639,19.639,0,0,0,43.419,88.3a16.668,16.668,0,0,0-10.887.974A67.37,67.37,0,0,1,43.341,61.723Zm-7.171,62.763a57.917,57.917,0,0,1-2.533-8.406,70.373,70.373,0,0,1-1.832-19.514l.922.039c4.209.156,6.171,1.767,9.107,5.3.754.909,1.494,1.819,2.287,2.689a25.375,25.375,0,0,0,2.741,2.65,16.082,16.082,0,0,0,8.211,3.742c2.4.26,5.677-1.039,6.717-1.585l.117.468c.117.533-2.741,7.353-9.289,7.639-.987.039-2.066,0-3.209.052a18.687,18.687,0,0,0-4.222.572,16.77,16.77,0,0,0-9.016,6.366Zm20.852,28.452a70.279,70.279,0,0,1-17.864-21.826l.922-.494c3.729-1.962,6.171-2.442,10.484-.844,1.1.4,2.209.818,3.326,1.182,1.208.39,7.029,2.806,13.343.208a7.678,7.678,0,0,0,4.43-4.027c.468.494,1.624,8.12-3.911,11.628-.844.533-1.78,1.039-2.754,1.637A18.957,18.957,0,0,0,61.62,143a16.736,16.736,0,0,0-4.612,9.913Zm34.48-3.287c-.468.883-1.026,1.793-1.559,2.806a18.507,18.507,0,0,0-1.624,3.937,16.7,16.7,0,0,0,.961,10.874c-1.9-.286-3.794-.637-5.677-1.078A63.6,63.6,0,0,1,61.763,156.5l.247-.39c2.248-3.56,6.5-4.339,11.043-5.119,1.156-.195,2.326-.39,3.469-.637a30.188,30.188,0,0,0,3.664-1.052c9.718-3.365,8.847-10.419,8.9-11.563.351.091,5.457,6.119,2.429,11.926ZM89.228,54.512a13.052,13.052,0,0,0,1.143,7.236c-.7.156-7.808-2.6-8.081-9.133-.039-1,0-2.066-.052-3.209a18.582,18.582,0,0,0-.572-4.209,16.674,16.674,0,0,0-6.392-9.029,69.932,69.932,0,0,1,27.932-4.339l-.039.909c-.156,4.209-1.1,6.431-4.638,9.38-.909.754-8.445,6.145-9.315,12.42ZM96.555,167.97l.039-.9c.156-4.209.974-6.561,4.508-9.51a71.169,71.169,0,0,0,5.34-5.028c1.689-2.066,5.223-5.184,4.235-10.5a17.9,17.9,0,0,0-1.286-4.014c.676-.169,7.821,2.611,8.094,9.159.039.987,0,2.066.052,3.209a18.581,18.581,0,0,0,.572,4.209,16.74,16.74,0,0,0,6.327,8.99,69.033,69.033,0,0,1-27.88,4.378Zm34.545-7.34-.481-.909c-1.962-3.729-1.91-6.171-.312-10.484.4-1.1,2.092-6.6,2.3-7.847,1.637-9.64-3.638-12.173-5.379-13.2.507-.494,6.977-1.4,10.484,4.131.533.844,1.039,1.78,1.65,2.754a18.956,18.956,0,0,0,2.6,3.365c2.209,2.235,6.3,3.716,11.056,4.365a68.258,68.258,0,0,1-21.9,17.838Zm26.243-23.71-.935-.585c-3.56-2.248-5.21-4.118-5.976-8.666-.195-1.156-1.351-5.9-1.689-7.132-2.715-9.952-9.913-9.77-11.069-9.822.182-.663,6.158-5.47,11.965-2.429.883.455,1.793,1.026,2.806,1.559a19.963,19.963,0,0,0,3.937,1.624,16.7,16.7,0,0,0,10.874-.961,66.693,66.693,0,0,1-9.9,26.412Zm9.718-33.74c-4.209-.156-6.431-1.767-9.38-5.3a43.874,43.874,0,0,0-5.638-6.054,13.208,13.208,0,0,0-13.992-1.468c-.169-.7,2.572-7.8,9.12-8.068,1-.039,2.066,0,3.209-.052a18.487,18.487,0,0,0,4.209-.572,16.8,16.8,0,0,0,9.029-6.379,69.276,69.276,0,0,1,4.352,27.919l-.909-.039ZM181.3,130.631a.648.648,0,0,0-.156-.039.338.338,0,0,0-.312.208l-.377.844a.394.394,0,0,0,.169.494l.728.364a.554.554,0,0,1,.26.715l-.624,1.39a.524.524,0,0,1-.481.312.589.589,0,0,1-.208-.039L173.22,131.7a.552.552,0,0,1-.273-.7l.195-.429a.348.348,0,0,0-.195-.468l-.7-.312a.706.706,0,0,0-.143-.026.342.342,0,0,0-.325.208l-1.728,3.911a.332.332,0,0,0,0,.273.358.358,0,0,0,.195.195l.7.312a.706.706,0,0,0,.143.026.354.354,0,0,0,.325-.221l.221-.481a.532.532,0,0,1,.481-.312.459.459,0,0,1,.221.052l7.068,3.2a.518.518,0,0,1,.273.689l-.611,1.377a.559.559,0,0,1-.507.325.351.351,0,0,1-.195-.039l-.767-.286a.529.529,0,0,0-.13-.026.391.391,0,0,0-.351.221l-.377.844a.333.333,0,0,0,0,.273.3.3,0,0,0,.195.182l2.3.922a.731.731,0,0,0,.13.026.377.377,0,0,0,.351-.221l3.975-9a.367.367,0,0,0-.182-.481l-2.235-1.091ZM25.724,54.33a.64.64,0,0,0,.208.065.363.363,0,0,0,.286-.143l.533-.754a.386.386,0,0,0-.078-.52l-.65-.507a.539.539,0,0,1-.1-.754l.883-1.247a.507.507,0,0,1,.429-.221.49.49,0,0,1,.3.1l6.314,4.508a.451.451,0,0,1,.208.338.468.468,0,0,1-.091.39l-.273.39a.36.36,0,0,0,.091.507l.637.442a.64.64,0,0,0,.208.065.348.348,0,0,0,.3-.156l2.455-3.495a.36.36,0,0,0-.091-.507l-.637-.442a.64.64,0,0,0-.208-.065.348.348,0,0,0-.3.156l-.3.429a.507.507,0,0,1-.429.221.52.52,0,0,1-.3-.1L28.8,48.523a.535.535,0,0,1-.13-.728l.87-1.234A.566.566,0,0,1,30,46.327a.524.524,0,0,1,.286.078l.7.442a.769.769,0,0,0,.195.052.387.387,0,0,0,.312-.156l.533-.754a.311.311,0,0,0,.052-.26.319.319,0,0,0-.143-.221l-2.092-1.351a.654.654,0,0,0-.195-.065.387.387,0,0,0-.312.156l-5.651,8.042a.386.386,0,0,0,.078.52l1.975,1.507ZM11.771,101.906v-.533a.545.545,0,0,1,.559-.507h0l7.756.338a.525.525,0,0,1,.507.546l-.026.468a.372.372,0,0,0,.351.377l.767.026h0a.368.368,0,0,0,.364-.338l.156-4.261a.374.374,0,0,0-.091-.26.32.32,0,0,0-.247-.117l-.793-.026a.369.369,0,0,0-.364.351V98.5a.554.554,0,0,1-.559.507h0L17.6,98.892a.6.6,0,0,1-.442-.169.256.256,0,0,1-.078-.182,6.157,6.157,0,0,1,.078-.689c0-.026.156-.741,2.429-1.793,2.481-1.13,2.7-2.468,2.7-2.481a6.565,6.565,0,0,0,.078-.87V92.37a.352.352,0,0,0-.338-.377l-.883-.026a.768.768,0,0,0-.286.052,2.611,2.611,0,0,1-.091.715c-.052.143-.247.273-.792.624-.325.208-.754.494-1.325.9a6.883,6.883,0,0,0-1.884,1.91l-.143.182-.026-.221a3.644,3.644,0,0,0-.883-2.04,3.107,3.107,0,0,0-2.118-.844,3.205,3.205,0,0,0-2.17.844,3.66,3.66,0,0,0-.948,2.274,6.434,6.434,0,0,0-.1.857l-.169,4.625a.317.317,0,0,0,.1.26.439.439,0,0,0,.247.117l.792.026a.369.369,0,0,0,.364-.351Zm.156-4.352a2.5,2.5,0,0,1,.195-.87,1.784,1.784,0,0,1,1.7-1.221,1.591,1.591,0,0,1,1.663,1.4,4.443,4.443,0,0,1,.13,1.39.534.534,0,0,1-.546.507h0l-2.676-.117a.525.525,0,0,1-.507-.546l.026-.559Zm7.379-28.361a3.054,3.054,0,0,0,1.208.273c1.325,0,2.222-1.065,3.027-2.17l.234-.325c.715-.987,1.4-1.91,2.274-1.91a1.486,1.486,0,0,1,.559.117,1.581,1.581,0,0,1,1,1.273,3.294,3.294,0,0,1-.312,1.741,9.867,9.867,0,0,1-.935,1.507.689.689,0,0,1-.559.273.374.374,0,0,1-.208-.039l-.676-.247a.529.529,0,0,0-.13-.026.369.369,0,0,0-.351.234l-.39.909a.348.348,0,0,0,.195.468l2,.857a.8.8,0,0,0,.182.039.5.5,0,0,0,.4-.182,17.593,17.593,0,0,0,1.858-2.871c1.858-4.339-.663-5.82-1.468-6.158a3.317,3.317,0,0,0-1.3-.286c-1.377,0-2.313,1.1-3.092,2.157l-.26.364c-.7.961-1.364,1.858-2.2,1.858a1.481,1.481,0,0,1-.52-.1,1.4,1.4,0,0,1-.792-.792,2.713,2.713,0,0,1,.182-2,6.828,6.828,0,0,1,.676-1.091.7.7,0,0,1,.572-.273.538.538,0,0,1,.208.026l.533.195a.529.529,0,0,0,.13.026.4.4,0,0,0,.364-.234l.39-.909a.333.333,0,0,0,0-.273.358.358,0,0,0-.195-.195l-1.78-.754a.8.8,0,0,0-.182-.039.536.536,0,0,0-.4.182,16.605,16.605,0,0,0-1.715,2.559c-1.39,3.248-.117,5.145,1.52,5.846ZM189.148,97.06l-2.507-.182a.333.333,0,0,0-.338.325l-.039.935a.394.394,0,0,0,.351.39l.818.065a.563.563,0,0,1,.507.559l-.052,1.52a.513.513,0,0,1-.533.507l-7.756-.312a.483.483,0,0,1-.364-.169.566.566,0,0,1-.143-.377v-.468a.352.352,0,0,0-.338-.377l-.78-.026a.369.369,0,0,0-.364.351l-.13,4.261a.4.4,0,0,0,.091.26.369.369,0,0,0,.247.117l.792.026a.369.369,0,0,0,.364-.351v-.533a.564.564,0,0,1,.559-.507l7.756.312a.483.483,0,0,1,.364.169.566.566,0,0,1,.143.377l-.052,1.507a.553.553,0,0,1-.533.533h-.818a.418.418,0,0,0-.377.39l-.026.922a.355.355,0,0,0,.351.351h2.494a.405.405,0,0,0,.377-.377l.312-9.835a.385.385,0,0,0-.351-.39ZM12,83.991l.831.182a.363.363,0,0,0,.351-.273l.13-.52a.527.527,0,0,1,.507-.4h.117v.013l7.548,1.819a.536.536,0,0,1,.39.637l-.1.455a.35.35,0,0,0,.273.429l.754.169h.078a.349.349,0,0,0,.351-.273l1.845-7.951a.407.407,0,0,0-.26-.468l-2.689-.793a.333.333,0,0,0-.325.26l-.234,1.013a.422.422,0,0,0,.26.481l.987.351a.583.583,0,0,1,.364.676l-.572,2.442a.5.5,0,0,1-.507.4h-.117v-.013l-7.548-1.819a.526.526,0,0,1-.39-.637l.1-.455a.35.35,0,0,0-.273-.429l-.831-.182a.363.363,0,0,0-.351.273l-.961,4.157a.406.406,0,0,0,.039.273.337.337,0,0,0,.221.156Z" transform="translate(0 0)" fill="#1d1d1b"/>
      <path id="Path_425" data-name="Path 425" d="M61.462,133.5c-.844.533-1.806,1.052-2.78,1.663a15.89,15.89,0,0,0-2.819,2.17,13.147,13.147,0,0,0-3.586,7.249c3.092-3.69,7.249-4.469,11.329-5.171,1.117-.195,2.235-.377,3.339-.611a22.619,22.619,0,0,0,3.209-.909,12.236,12.236,0,0,0,5.573-4.053,8.7,8.7,0,0,0,2.092-4.846c-1.676-.792-7.055-3.378-9.341-5.171-.169,2.053-1.429,6.132-7.029,9.679Zm59.2-19.228c8.419-10.095,9.9-26.724,3.937-38.391a37.383,37.383,0,0,0-13.758-15.044c-10.835-7.029-27.971-6.9-38.573.533a36.331,36.331,0,0,0-15.447,39.9c2.611,11.862,14.109,23.281,26,25.88,14.369,3.326,28.608-1.143,37.845-12.875Zm-33.1,16.993c.883,1.858,1.819,6.028-1.247,11.887-.468.9-1.039,1.819-1.572,2.832a15.559,15.559,0,0,0-1.351,3.287,13.022,13.022,0,0,0,.52,8.055c.805-4.755,4.261-7.444,7.379-10.134.857-.741,1.715-1.468,2.546-2.235a25.359,25.359,0,0,0,2.339-2.39,13.6,13.6,0,0,0,3.079-6.158,6.334,6.334,0,0,0-1.728-5.2,58.069,58.069,0,0,1-9.952.065Zm8.743-78.639c-.883-1.858-1.832-6.015,1.234-11.9.468-.883,1.039-1.806,1.572-2.832a15.989,15.989,0,0,0,1.364-3.287,12.985,12.985,0,0,0-.533-8.068C99.1,31.3,95.838,34.062,92.6,36.713c-.883.728-1.78,1.455-2.624,2.209a21.588,21.588,0,0,0-2.352,2.4,12.158,12.158,0,0,0-2.832,6.3,9.175,9.175,0,0,0,.792,5.184c1.806-.156,7.821-.611,10.718-.208Zm43.224,67.349c-.169-1.143-.338-2.3-.559-3.443a21.457,21.457,0,0,0-.87-3.287,11.961,11.961,0,0,0-4-5.651,9.158,9.158,0,0,0-5.132-1.572c-.779,1.663-3.378,7.068-5.184,9.367,2.053.169,6.132,1.429,9.679,7.029.533.844,1.052,1.806,1.663,2.78a16.433,16.433,0,0,0,2.157,2.819,13.063,13.063,0,0,0,7.262,3.573c-3.7-3.118-4.4-7.405-5.028-11.6ZM44.482,63.632a38.667,38.667,0,0,0,1.39,6.938,12.236,12.236,0,0,0,4.053,5.573,10.135,10.135,0,0,0,4.963,1.7c.78-1.676,3.378-7.055,5.171-9.354-2.053-.169-6.132-1.429-9.679-7.016-.546-.844-1.052-1.806-1.663-2.78a15.3,15.3,0,0,0-2.17-2.819A13.024,13.024,0,0,0,39.3,52.29c3.7,3.092,4.6,7.236,5.171,11.329Zm102.687,29.1c-.715-.87-1.442-1.754-2.2-2.585a22.421,22.421,0,0,0-2.39-2.326,12.4,12.4,0,0,0-6.3-2.806,10.633,10.633,0,0,0-5.236.611c.156,1.858.6,7.8.195,10.679,1.858-.883,6.015-1.832,11.9,1.234.9.468,1.806,1.039,2.819,1.572a16.3,16.3,0,0,0,3.287,1.364,13.062,13.062,0,0,0,8.068-.52c-4.755-.831-7.5-4.04-10.134-7.223ZM36.5,90.81c.7.844,1.39,1.715,2.131,2.559a26.614,26.614,0,0,0,2.313,2.378A14.42,14.42,0,0,0,47.093,99.1a7.593,7.593,0,0,0,5.7-.844c-.156-1.845-.6-7.808-.195-10.692-1.858.883-6.028,1.832-11.9-1.234-.883-.468-1.819-1.039-2.819-1.572a15.559,15.559,0,0,0-3.287-1.351,13.019,13.019,0,0,0-8.055.52c4.729.793,7.405,3.794,9.965,6.9Zm89.942-27.53a8.91,8.91,0,0,0-3.82,3.612c1.039,1.494,4.43,6.47,5.534,9.172,1.169-1.689,4.3-4.6,10.926-4.872,1-.039,2.092,0,3.235-.052a15.44,15.44,0,0,0,3.521-.468,13.026,13.026,0,0,0,6.73-4.5c-4.56,1.637-8.653.117-12.615-1.429-1.091-.429-2.183-.857-3.274-1.234a21.358,21.358,0,0,0-3.3-.883,12.013,12.013,0,0,0-6.912.65ZM56.954,120.094c1.806-.741,3.69-1.949,4.261-3.105-1.026-1.481-4.443-6.47-5.535-9.185-1.169,1.689-4.3,4.6-10.926,4.872-1,.039-2.092,0-3.235.052A15.44,15.44,0,0,0,38,113.2a13,13,0,0,0-6.717,4.5c4.534-1.65,8.51-.247,12.394,1.182,1.065.39,2.131.793,3.2,1.143a23.593,23.593,0,0,0,3.235.818,12.22,12.22,0,0,0,6.847-.728ZM122.38,50.38c.844-.533,1.806-1.052,2.78-1.663a15.891,15.891,0,0,0,2.819-2.17,13.069,13.069,0,0,0,3.586-7.249c-3.105,3.69-7.34,4-11.485,4.625-1.13.169-2.274.338-3.391.559a23.007,23.007,0,0,0-3.248.87,11.925,11.925,0,0,0-5.612,4,11.86,11.86,0,0,0-1.819,5.522c1.663.78,7.068,3.391,9.367,5.171.169-2.053,1.429-6.132,7.016-9.679ZM66.893,61.2c1.533-1.065,6.457-4.417,9.146-5.509-1.689-1.169-4.586-4.3-4.872-10.926-.039-1,0-2.092-.052-3.235a15.441,15.441,0,0,0-.468-3.521,13.122,13.122,0,0,0-4.482-6.73c1.65,4.534.247,8.523-1.182,12.394-.39,1.065-.792,2.131-1.143,3.2a21.8,21.8,0,0,0-.805,3.235,12.381,12.381,0,0,0,.715,6.86A10.761,10.761,0,0,0,66.893,61.2Zm49.564,61.815a57.9,57.9,0,0,1-8.679,5.158c1.689,1.169,4.586,4.3,4.872,10.913.052,1,0,2.092.052,3.235a15.441,15.441,0,0,0,.468,3.521,13.046,13.046,0,0,0,4.482,6.717c-1.676-4.482-.481-8.289.9-12.056a46.109,46.109,0,0,0,2.04-6.327,15,15,0,0,0-.1-7.029c-.546-2.092-2.494-4.105-4.014-4.131Z" transform="translate(7.94 7.939)" fill="#ffd300"/>
    </g>
  </g>
</svg>
