<svg xmlns="http://www.w3.org/2000/svg" xmlns:xlink="http://www.w3.org/1999/xlink" width="600" height="300" viewBox="0 0 600 300">
  <defs>
    <clipPath id="clip-Logo">
      <rect width="600" height="300"/>
    </clipPath>
  </defs>
  <g id="Logo" clip-path="url(#clip-Logo)">
    <rect width="600" height="300" fill="#e8eff3"/>
    <g id="Lunds_universitets_logotyp_länk_till_startsidan." data-name="Lunds universitets logotyp, länk till startsidan." transform="translate(50 98.355)">
      <path id="Path_426" data-name="Path 426" d="M53.654,104.053v4.1c0,.208.931.565.931.565H51.649s.877-.357.877-.537v-3.453l-.914.154-.013-.165,2.055-.66Z" transform="translate(-10.889 -21.889)" fill="#93560e"/>
      <path id="Path_427" data-name="Path 427" d="M75.616,106.253a1.389,1.389,0,0,0-.744.237,3.44,3.44,0,0,0-.059.7c0,.507.067,1.355.783,1.355s.715-.661.715-1.177c0-.462-.028-1.114-.7-1.114Zm1.509-2.108a2.638,2.638,0,0,0-2.178,2.013,1.956,1.956,0,0,1,.967-.252,1.422,1.422,0,0,1,1.6,1.376c0,.9-.772,1.531-1.871,1.531a1.866,1.866,0,0,1-2.035-1.9c0-1.421,1.39-2.855,3.494-2.855l.023.088Z" transform="translate(-15.534 -21.89)" fill="#93560e"/>
      <path id="Path_428" data-name="Path 428" d="M67.788,106.253a1.4,1.4,0,0,0-.746.237,3.923,3.923,0,0,0-.055.7c0,.507.065,1.355.783,1.355s.716-.661.716-1.177c0-.462-.03-1.114-.7-1.114Zm1.509-2.108a2.645,2.645,0,0,0-2.18,2.013,1.967,1.967,0,0,1,.972-.252,1.421,1.421,0,0,1,1.6,1.376c0,.9-.772,1.531-1.873,1.531a1.864,1.864,0,0,1-2.033-1.9c0-1.421,1.39-2.855,3.491-2.855l.024.088Z" transform="translate(-13.882 -21.89)" fill="#93560e"/>
      <path id="Path_429" data-name="Path 429" d="M59.9,106.253a1.4,1.4,0,0,0-.743.237,3.875,3.875,0,0,0-.054.7c0,.507.065,1.355.779,1.355s.716-.661.716-1.177c0-.462-.028-1.114-.7-1.114Zm1.512-2.108a2.641,2.641,0,0,0-2.178,2.013,1.953,1.953,0,0,1,.968-.252,1.42,1.42,0,0,1,1.6,1.376c0,.9-.769,1.531-1.871,1.531a1.863,1.863,0,0,1-2.032-1.9c0-1.421,1.389-2.855,3.492-2.855l.022.088Z" transform="translate(-12.219 -21.89)" fill="#93560e"/>
      <path id="Path_430" data-name="Path 430" d="M9.85,54.3a6.66,6.66,0,0,1,1.464.727,1.732,1.732,0,0,0-.14.488c-.066.4.017.847-.087,1.482a2.927,2.927,0,0,1-3.243,2.633,3.049,3.049,0,0,1-2.245-3.7,5.749,5.749,0,0,1,.615-1.569,3.125,3.125,0,0,0-.022-.394l1.5.166s-1.512.989-1.645,1.8a2.083,2.083,0,0,0,1.917,2.417,2.282,2.282,0,0,0,2.764-1.746c.128-.779-.873-2.309-.873-2.309Z" transform="translate(-1.17 -11.32)" fill="#93560e"/>
      <path id="Path_431" data-name="Path 431" d="M26.8,25.676,23.609,28.99s.212-.989-.09-1.28l-2.473-2.38c-.363-.35-1.269-.055-1.269-.055l2.017-2.094s-.23,1.005.062,1.285L24.4,26.918c.229.219.348.206.581-.037l.757-.784c.4-.416.417-1.907.417-1.907l.643,1.486Z" transform="translate(-4.174 -4.823)" fill="#93560e"/>
      <path id="Path_432" data-name="Path 432" d="M25.386,19.774l2.122-1.718s-.29.919-.006,1.266l2.136,2.641c.264.327,1.223.246,1.223.246l-2.122,1.716s.236-.9,0-1.189L26.58,20.067c-.281-.349-1.194-.293-1.194-.293Z" transform="translate(-5.357 -3.741)" fill="#93560e"/>
      <path id="Path_433" data-name="Path 433" d="M33.548,18.51c.274.444,1.262.435,1.262.435l-1.77,1.083s.326-.814.144-1.116l-2.058-3.355c-.227-.013-.856-.09-.856-.09l1.506-.921,4.894,1.287-1.356-2.208c-.32-.529-1.323-.438-1.323-.438l1.89-1.158s-.442.8-.27,1.073l2.4,3.913-.4.247-5.747-1.518,1.692,2.767Z" transform="translate(-6.388 -2.469)" fill="#93560e"/>
      <path id="Path_434" data-name="Path 434" d="M73.919,10.062s.832,1.489,1.5,1.628a.905.905,0,0,0,1.148-.615c.264-1.251-2.439-1.78-2.087-3.441A1.532,1.532,0,0,1,76.47,6.625a6.22,6.22,0,0,1,1.23.488.243.243,0,0,0,.2-.051l.178.037-.13,1.393s-.819-1.347-1.465-1.485c-.47-.1-.876.077-.944.406-.166.772,1.2,1.209,1.941,2.35a1.517,1.517,0,0,1,.241,1.208,1.709,1.709,0,0,1-2.118,1.183,6.956,6.956,0,0,1-1.379-.575.2.2,0,0,0-.2.1l-.219-.047.116-1.567Z" transform="translate(-15.575 -1.317)" fill="#93560e"/>
      <path id="Path_435" data-name="Path 435" d="M82.248,8.293l2.583.873s-.925.247-1.067.671l-1.086,3.219c-.135.4.448,1.167.448,1.167l-2.585-.874s.883-.279,1-.64l1.1-3.25c.144-.424-.394-1.165-.394-1.165Z" transform="translate(-16.997 -1.681)" fill="#93560e"/>
      <path id="Path_436" data-name="Path 436" d="M91.374,16.265l-.575,1.14a5.836,5.836,0,0,1-2.243-.526c-1.938-.979-2.327-2.53-1.586-4a2.845,2.845,0,0,1,4.018-1.027,11.525,11.525,0,0,1,1.526,1.107.3.3,0,0,0,.281.016l.191.1-.708,1.4-.3-.154a1.758,1.758,0,0,0-.961-2.043,2.116,2.116,0,0,0-2.9,1.171,2.229,2.229,0,0,0,.746,3.127,1.972,1.972,0,0,0,.922.214l.534-1.056c.193-.385-.552-1.25-.552-1.25l2.543,1.284s-.757.144-.934.5Z" transform="translate(-18.279 -2.345)" fill="#93560e"/>
      <path id="Path_437" data-name="Path 437" d="M96.855,15.392l2.239,1.56s-.959-.018-1.215.345l-1.942,2.791c-.239.343.106,1.243.106,1.243L93.8,19.772s.926-.024,1.144-.333l1.961-2.818c.256-.365-.053-1.228-.053-1.228Z" transform="translate(-19.796 -3.179)" fill="#93560e"/>
      <path id="Path_438" data-name="Path 438" d="M107.035,32.481l-2.888-3.576s.951.334,1.28.069l2.67-2.155c.391-.319.21-1.251.21-1.251l1.828,2.26s-.968-.353-1.282-.1L106.1,29.95c-.249.2-.249.321-.038.581l.683.845c.363.449,1.84.656,1.84.656Z" transform="translate(-21.978 -5.326)" fill="#93560e"/>
      <path id="Path_439" data-name="Path 439" d="M102.072,26.6,98.69,23.484s.992.191,1.277-.118l2.327-2.523c.344-.373.027-1.27.027-1.27l2.14,1.973s-1.011-.209-1.284.087l-2.4,2.6c-.216.233-.2.356.048.581l.8.739c.424.388,1.916.378,1.916.378l-1.473.672Z" transform="translate(-20.827 -4.061)" fill="#93560e"/>
      <path id="Path_440" data-name="Path 440" d="M112.734,32.6a2.991,2.991,0,0,0,.42-1.359l1.523,2.555s-.993-.545-1.3-.08l-1.7,2.516,3.249-.272c.311-.045.358-1.146.358-1.146l1.116,1.873a3.652,3.652,0,0,0-1.6-.255l-5.016.418,2.951-4.25Z" transform="translate(-23.168 -6.524)" fill="#93560e"/>
      <path id="Path_441" data-name="Path 441" d="M116.989,41.406l-.006-.016-2.94.851c-.543.159-.876,1.06-.876,1.06l-.643-1.793a1.991,1.991,0,0,0,1.417.269l2.989-.869c.42-.122.735-.873.735-.873l.61,1.706-2.829,2.785,3.933.3L120,46.561a1.192,1.192,0,0,0-1.138-.249l-2.911,1.261a1.736,1.736,0,0,0-.86,1.108l-.911-2.542s.587.645,1.113.457c.129-.047.253-.1.372-.151l2.8-1.211-.006-.017-4.735-.348-.07-.193,3.333-3.269Z" transform="translate(-23.746 -8.379)" fill="#93560e"/>
      <path id="Path_442" data-name="Path 442" d="M118.548,65.72c-.522-.024-1.064.8-1.064.8l.088-2.076s.494.725.844.739l3.934.16c.138-.181.551-.661.551-.661l-.071,1.766-3.8,3.346,2.589.107c.617.026,1.1-.857,1.1-.857l-.091,2.213s-.413-.809-.738-.82l-4.585-.191.019-.472,4.465-3.93Z" transform="translate(-24.756 -13.532)" fill="#93560e"/>
      <path id="Path_443" data-name="Path 443" d="M122.023,75.009l-.529,2.675s-.368-.887-.8-.97l-3.333-.664c-.412-.08-1.1.593-1.1.593l.533-2.676s.391.839.764.915l3.364.669c.438.088,1.1-.541,1.1-.541Z" transform="translate(-24.535 -15.54)" fill="#93560e"/>
      <path id="Path_444" data-name="Path 444" d="M115.253,92.045l.855-1.673-1.715-.878-.635,1.238a1.737,1.737,0,0,0,.1,1.157l-1.519-.774a1.591,1.591,0,0,0,1.06-.712l.573-1.123-1.374-.7c-.329-.166-.429-.144-.544.08l-.651,1.274c-.255.5.179,1.567.179,1.567l-1.15-.706,2.354-4.595s.008,1.151.38,1.34l3.049,1.561c.413.212,1.236-.3,1.236-.3L115.294,93l-1.146-.492s.926-.114,1.105-.465Z" transform="translate(-23.305 -18.121)" fill="#93560e"/>
      <path id="Path_445" data-name="Path 445" d="M104.449,101.956s-1.7-.1-2.181.377a.906.906,0,0,0-.1,1.3c.908.9,2.813-1.088,4.021.1a1.531,1.531,0,0,1-.229,2.222,6.045,6.045,0,0,1-1.075.77,3.767,3.767,0,0,0-.193.328l-1.1-.862s1.579.04,2.043-.428c.338-.343.408-.78.17-1.015-.563-.556-1.665.356-3.026.363a1.517,1.517,0,0,1-1.148-.447,1.708,1.708,0,0,1,.149-2.421A7.6,7.6,0,0,1,103,101.39a.188.188,0,0,0,.032-.221l.155-.157Z" transform="translate(-21.355 -21.248)" fill="#93560e"/>
      <path id="Path_446" data-name="Path 446" d="M101.584,109.8l-2.15,1.678s.3-.911.026-1.262l-2.093-2.675c-.258-.333-1.221-.266-1.221-.266l2.151-1.679s-.249.894-.018,1.187l2.113,2.708C100.667,109.837,101.584,109.8,101.584,109.8Z" transform="translate(-20.29 -22.214)" fill="#93560e"/>
      <path id="Path_447" data-name="Path 447" d="M72.4,122.859l-2.713.281s.738-.613.692-1.056l-.347-3.378c-.043-.419-.892-.877-.892-.877l2.713-.279s-.684.623-.647,1l.35,3.415c.047.443.843.9.843.9Z" transform="translate(-14.59 -24.738)" fill="#93560e"/>
      <path id="Path_448" data-name="Path 448" d="M65.37,119.483s-1.106-1.3-1.784-1.313a.908.908,0,0,0-1.005.825c-.02,1.28,2.738,1.273,2.713,2.974-.01.822-.739,1.389-1.761,1.374a5.994,5.994,0,0,1-1.3-.241,3.12,3.12,0,0,0-.369.089l-.144-1.392s1.065,1.165,1.727,1.172c.48.006.844-.245.849-.58.009-.791-1.413-.953-2.361-1.927a1.531,1.531,0,0,1-.473-1.141,1.707,1.707,0,0,1,1.848-1.572,7.07,7.07,0,0,1,1.463.3,2.424,2.424,0,0,0,.4-.133l.194,1.566Z" transform="translate(-12.97 -24.781)" fill="#93560e"/>
      <path id="Path_449" data-name="Path 449" d="M47.274,117.15l.337-1.232a5.832,5.832,0,0,1,2.3.067c2.092.571,2.784,2.012,2.352,3.6a2.849,2.849,0,0,1-3.733,1.808,11.97,11.97,0,0,1-1.717-.78,2.63,2.63,0,0,0-.484-.021l.413-1.507s.818,1.662,1.68,1.894a2.117,2.117,0,0,0,2.6-1.726,2.226,2.226,0,0,0-1.356-2.913,1.94,1.94,0,0,0-.944-.027l-.311,1.143c-.182.744.789,1.112.789,1.112l-2.749-.75S47.171,117.532,47.274,117.15Z" transform="translate(-9.778 -24.376)" fill="#93560e"/>
      <path id="Path_450" data-name="Path 450" d="M24.91,102.595,23.856,103.7l2.048,1.953,1.066-1.119c.314-.327.1-1.249.1-1.249l1.993,1.9s-.933-.154-1.23.157l-2.356,2.473c-.3.311-.1,1.235-.1,1.235l-1.992-1.9s.9.2,1.236-.151l.928-.974-2.047-1.953-.911.953c-.335.349-.129,1.243-.129,1.243l-1.987-1.894s.922.19,1.242-.146l2.345-2.456c.308-.325.1-1.26.1-1.26l1.987,1.9s-.919-.144-1.239.191Z" transform="translate(-4.322 -21.141)" fill="#93560e"/>
      <path id="Path_451" data-name="Path 451" d="M6.911,74.424v.015l3.055-.211c.566-.042,1.081-.856,1.081-.856l.249,1.889a2,2,0,0,0-1.328-.56l-3.1.222c-.437.034-.9.7-.9.7l-.239-1.794,3.352-2.134L5.292,70.581l-.241-1.828a1.184,1.184,0,0,0,1.057.479l3.112-.618a1.737,1.737,0,0,0,1.073-.906l.357,2.682s-.437-.758-.992-.684c-.136.019-.27.046-.4.07l-2.993.6,0,.018,4.556,1.334.026.2Z" transform="translate(-1.066 -14.219)" fill="#93560e"/>
      <path id="Path_452" data-name="Path 452" d="M121.392,56.47a2.948,2.948,0,0,0,.966-1.042l.267,2.966s-.66-.924-1.145-.64l-2.329,1.34,2.825,1.286c.3.1.754-.807.754-.807l.195,2.169a3.655,3.655,0,0,0-1.331-.922l-4.4-1.938,4.2-2.41Z" transform="translate(-24.731 -11.628)" fill="#93560e"/>
      <path id="Path_453" data-name="Path 453" d="M119.564,81.1a2.982,2.982,0,0,0,1.288-.6l-.878,2.843s-.26-1.1-.814-1.022l-2.665.357,2.127,2.26c.244.2,1.006-.464,1.006-.464l-.641,2.084A3.661,3.661,0,0,0,118.1,85.2l-3.34-3.463Z" transform="translate(-24.219 -16.919)" fill="#93560e"/>
      <path id="Path_454" data-name="Path 454" d="M9.208,84.314A2.911,2.911,0,0,0,8.52,85.56l-.967-2.82s.862.739,1.261.35l1.947-1.86-3.052-.575c-.317-.017-.54.967-.54.967l-.707-2.063a3.638,3.638,0,0,0,1.515.578l4.736.832-3.5,3.344Z" transform="translate(-1.364 -16.72)" fill="#93560e"/>
      <path id="Path_455" data-name="Path 455" d="M32.767,109.138c.252-.368-.226-1.345-.226-1.345l2.538,1.756s-1.08-.109-1.34.262l-2.375,3.464.836.576c.54.376,1.626-.1,1.626-.1l-.883,1.058L28.457,111.7l.627-1.234s-.069,1.183.473,1.56l.835.574,2.375-3.46Z" transform="translate(-6.005 -22.679)" fill="#93560e"/>
      <path id="Path_456" data-name="Path 456" d="M76.381,117.486c-.1-.431-1.149-.735-1.149-.735l3.007-.7s-.809.728-.7,1.17l.942,3.956.983-.23c.645-.149,1.016-1.277,1.016-1.277l.193,1.363-5.314,1.243-.493-1.292s.831.846,1.475.694l.984-.23-.939-3.957Z" transform="translate(-15.798 -24.421)" fill="#93560e"/>
      <path id="Path_457" data-name="Path 457" d="M91.416,111.491c-.226-.385-1.316-.365-1.316-.365l2.67-1.553s-.559.929-.331,1.322l2.127,3.62.877-.511c.569-.333.595-1.516.595-1.516l.583,1.247-4.716,2.746-.849-1.09s1.042.563,1.612.23l.876-.511-2.128-3.616Z" transform="translate(-19.014 -23.054)" fill="#93560e"/>
      <path id="Path_458" data-name="Path 458" d="M118.78,53.278a.843.843,0,1,1,.839.849.844.844,0,0,1-.839-.849Z" transform="translate(-25.067 -10.998)" fill="#93560e"/>
      <path id="Path_459" data-name="Path 459" d="M56.577,120.444a.843.843,0,1,1,.838.848.84.84,0,0,1-.838-.848Z" transform="translate(-11.94 -25.172)" fill="#93560e"/>
      <path id="Path_460" data-name="Path 460" d="M7.525,64.681a.842.842,0,1,1,.833.851.843.843,0,0,1-.833-.851Z" transform="translate(-1.588 -13.404)" fill="#93560e"/>
      <path id="Path_461" data-name="Path 461" d="M16.247,34.435A2.819,2.819,0,0,0,20.27,33.5a2.954,2.954,0,0,0-.445-4.311,2.79,2.79,0,0,0-4.007.874A3.005,3.005,0,0,0,16.247,34.435Zm.416-1.277A1.867,1.867,0,0,1,16,30.446c.765-1.056,2.211-.853,3.329-.043.957.694,1.462,1.752.762,2.716s-2.095,1-3.424.039Z" transform="translate(-3.183 -5.981)" fill="#93560e"/>
      <path id="Path_462" data-name="Path 462" d="M45.189,11.638l1.5-.57a2.668,2.668,0,0,1,1.461.034L46.975,9.74s-.08.746-.524.91l-1.58.641-1.393-1.7,2.286-.76a2.906,2.906,0,0,1,1.3.193L46.072,8.1l-4.859,1.67a.824.824,0,0,1,.509,1l-.069,3.655a3.839,3.839,0,0,1-.462,1.3l1.849-.689s-.8-.335-.753-.747l.092-1.047,2.032-.619,1.14,1.4L50.042,12.3l-.951-1.043s.334.771-.19.966l-2.39.933-1.322-1.515Zm-1.077.686-1.688.533.074-2.492,1.614,1.959Z" transform="translate(-8.692 -1.641)" fill="#93560e"/>
      <path id="Path_463" data-name="Path 463" d="M12.866,40.826l.142-.3c.439-.94.4-1.618-.428-2.006s-1.413.107-1.765.861l-.188.4,2.239,1.045Zm1.507.7c.4.185,1.267-.442,1.267-.442l-1.267,2.724s-.046-1-.5-1.208L10.8,41.17c-.373-.173-1.261.37-1.261.37.157-.4.281-.7.4-1.03.17-.451.409-1.023.54-1.3.53-1.145.969-1.7,1.54-1.905a1.319,1.319,0,0,1,1.06.039,1.484,1.484,0,0,1,.715,1.734c.669-.316,1.409-.3,2.219-.6a8.465,8.465,0,0,0,1.238-.67c-.07.171-.107.249-.215.484-.448.964-.774,1.3-1.31,1.49-.567.209-1.6.28-2.255.578l-.286.615,1.18.55Z" transform="translate(-2.014 -7.783)" fill="#93560e"/>
      <path id="Path_464" data-name="Path 464" d="M8.986,48.529l1.467,1.2.443-1.5Zm1.733,1.484.733.6c.32.26,1.052-.545,1.052-.545l-.671,2.254a2.781,2.781,0,0,0-.654-1.236l-4.1-3.475,5.4-.837a3.242,3.242,0,0,0,1.176-.579l-.821,2.761s-.207-1.029-.61-.962l-.949.158Z" transform="translate(-1.493 -9.679)" fill="#93560e"/>
      <path id="Path_465" data-name="Path 465" d="M14.039,89.747l-.158-.293c-.487-.918-1.051-1.3-1.859-.869s-.765,1.193-.374,1.928l.208.393Zm1.441-.722c.387-.2.409-1.277.409-1.277L17.3,90.4s-.822-.559-1.263-.329l-2.992,1.589c-.364.2-.464,1.232-.464,1.232-.224-.365-.392-.649-.579-.945-.257-.409-.57-.944-.716-1.213-.591-1.116-.77-1.8-.591-2.378a1.325,1.325,0,0,1,.67-.823A1.487,1.487,0,0,1,13.179,88c.151-.722.609-1.306.86-2.128a8.628,8.628,0,0,0,.213-1.395c.1.161.136.241.255.465.5.939.57,1.4.4,1.945-.176.578-.738,1.441-.9,2.148l.319.6Z" transform="translate(-2.243 -17.759)" fill="#93560e"/>
      <path id="Path_466" data-name="Path 466" d="M20.276,95.941c-.711-.96-1.871-.8-2.821-.092-1.11.823-1.737,2.14-.96,3.19a1.868,1.868,0,0,0,2.788.176C20.6,98.242,20.994,96.912,20.276,95.941Zm-4.2,3.15a2.791,2.791,0,0,1,.368-4.086,2.959,2.959,0,0,1,4.245.873A2.819,2.819,0,0,1,20.375,100a3,3,0,0,1-4.3-.9Z" transform="translate(-3.243 -19.862)" fill="#93560e"/>
      <path id="Path_467" data-name="Path 467" d="M41.192,113.192c-1.084-.5-2.022.2-2.521,1.269-.582,1.252-.5,2.709.683,3.262a1.869,1.869,0,0,0,2.533-1.183C42.577,115.056,42.287,113.7,41.192,113.192Zm-2.181,4.774a2.788,2.788,0,0,1-1.629-3.763,2.952,2.952,0,0,1,4.143-1.263,2.817,2.817,0,0,1,1.695,3.766A3,3,0,0,1,39.011,117.966Z" transform="translate(-7.834 -23.687)" fill="#93560e"/>
      <path id="Path_468" data-name="Path 468" d="M109.188,96.873l-.2.269c-.622.831-.729,1.5.006,2.051s1.406.189,1.9-.48l.266-.357Zm-1.307-1.023c-.35-.26-1.327.174-1.327.174l1.8-2.4s-.159.987.24,1.286l2.71,2.031c.33.248,1.31-.1,1.31-.1-.235.357-.418.629-.609.928-.259.406-.609.913-.8,1.161-.756,1.009-1.3,1.462-1.9,1.548a1.338,1.338,0,0,1-1.028-.257,1.486,1.486,0,0,1-.346-1.843c-.715.168-1.438,0-2.29.124a8.531,8.531,0,0,0-1.352.4c.1-.156.158-.224.311-.428.637-.854,1.025-1.112,1.588-1.191.6-.088,1.62.055,2.328-.1l.406-.543-1.045-.783Z" transform="translate(-22.009 -19.687)" fill="#93560e"/>
      <path id="Path_469" data-name="Path 469" d="M85.641,117.09l.04-1.9-1.45.573Zm.1-2.279.02-.949c.007-.41-1.075-.488-1.075-.488l2.185-.865a2.776,2.776,0,0,0-.568,1.279l-.2,5.37-3.99-3.726a3.208,3.208,0,0,0-1.183-.568L83.6,113.8s-.682.8-.382,1.075l.712.647,1.8-.713Z" transform="translate(-17.077 -23.674)" fill="#93560e"/>
      <path id="Path_470" data-name="Path 470" d="M65.232,20.837a2.861,2.861,0,0,0-.855-1.085l2.886.193s-.988.495-.786,1l.932,2.439,1.663-2.514c.134-.275-.664-.847-.664-.847l2.112.142A3.555,3.555,0,0,0,69.434,21.3l-2.529,3.929-1.673-4.4Z" transform="translate(-13.586 -4.099)" fill="#93560e"/>
      <path id="Path_471" data-name="Path 471" d="M35.07,31.216a2.869,2.869,0,0,0-1.36-.23l2.268-1.792s-.4,1.026.089,1.269l2.327,1.181-.455-2.979c-.084-.294-1.057-.184-1.057-.184l1.661-1.31a3.513,3.513,0,0,0-.043,1.572l.762,4.611Z" transform="translate(-7.114 -5.665)" fill="#93560e"/>
      <path id="Path_472" data-name="Path 472" d="M91.423,29.917a2.862,2.862,0,0,0,0-1.381l2.14,1.944s-1.078-.226-1.236.3l-.8,2.635,2.884-1.086c.277-.133.008-1.074.008-1.074l1.568,1.422a3.555,3.555,0,0,0-1.559.218L90.008,34.4Z" transform="translate(-18.995 -5.953)" fill="#93560e"/>
      <path id="Path_473" data-name="Path 473" d="M45.681,28.3c.183.391,1.239.468,1.239.468L44.2,30.042s.622-.852.435-1.253L42.89,25.107,42,25.524c-.582.274-.708,1.417-.708,1.417l-.458-1.256,4.8-2.251.727,1.127s-.959-.634-1.54-.361l-.889.417L45.681,28.3Z" transform="translate(-8.618 -4.876)" fill="#93560e"/>
      <path id="Path_474" data-name="Path 474" d="M73.916,21.914l-.017-.006L72.866,24.7c-.189.518.323,1.3.323,1.3l-1.77-.533a1.923,1.923,0,0,0,1.026-.951l1.048-2.836c.146-.4-.256-1.077-.256-1.077l1.681.507.543,3.819,2.5-2.9,1.717.518s-.72.159-.853.745l-.7,3A1.693,1.693,0,0,0,78.5,27.6l-2.513-.759s.843-.084,1-.6c.037-.127.069-.259.1-.38l.672-2.888-.013,0-3.007,3.5-.192-.058-.627-4.49Z" transform="translate(-15.072 -4.277)" fill="#93560e"/>
      <path id="Path_475" data-name="Path 475" d="M98.96,37.458,97.838,36.02l-1.479,1.153.831,1.064c.281.361,1.062.384,1.062.384l-1.308,1.022a1.525,1.525,0,0,0-.192-1.222L96,37.454l-1.183.923c-.282.219-.3.318-.154.508l.857,1.1c.332.428,1.456.484,1.456.484l-1.094.726-3.086-3.954s1.017.464,1.341.213l2.619-2.045c.354-.277.239-1.211.239-1.211l2.823,3.619-.9.808s.282-.862.045-1.163Z" transform="translate(-19.583 -7.147)" fill="#93560e"/>
      <path id="Path_476" data-name="Path 476" d="M58.571,22.841l.323-.034c1-.107,1.55-.472,1.459-1.359s-.8-1.123-1.6-1.039l-.432.044Zm.136,1.6c.045.424,1,.835,1,.835l-2.9.3s.8-.535.757-1.017l-.341-3.271c-.042-.4-.937-.866-.937-.866.413-.069.723-.118,1.062-.177.461-.083,1.055-.17,1.354-.2a3.126,3.126,0,0,1,2.355.333,1.3,1.3,0,0,1,.5.9,1.447,1.447,0,0,1-1.089,1.462c.593.4.952,1.023,1.6,1.551a8.128,8.128,0,0,0,1.179.7c-.182.029-.264.039-.512.064-1.027.106-1.466,0-1.9-.348-.459-.371-1.03-1.191-1.607-1.591l-.656.07.13,1.257Z" transform="translate(-11.879 -4.149)" fill="#93560e"/>
      <path id="Path_477" data-name="Path 477" d="M30.221,41.646c.455.323.563.3.936-.226a2.129,2.129,0,0,0-.5-3.239,2.423,2.423,0,0,0-1.737-.469,2.373,2.373,0,0,0-1.537,1.135,4.651,4.651,0,0,0-.34.557l3.177,2.244Zm-4.553-.859c.237-.381.522-.813.717-1.134.222-.354.388-.623.625-.955.961-1.362,1.583-1.882,2.442-2.029a2.4,2.4,0,0,1,1.832.437,2.651,2.651,0,0,1,1.079,1.707,3.609,3.609,0,0,1-.936,2.8L29.9,43.776s.094-.884-.3-1.157l-2.628-1.854c-.482-.342-1.309.022-1.309.022Z" transform="translate(-5.417 -7.661)" fill="#93560e"/>
      <path id="Path_478" data-name="Path 478" d="M24.01,48.365,25.3,49.674l.578-1.4Zm1.525,1.606.647.653c.282.281,1.067-.42,1.067-.42l-.869,2.107a2.691,2.691,0,0,0-.51-1.258l-3.614-3.767,5.3-.267a3.16,3.16,0,0,0,1.2-.444l-1.067,2.585s-.1-1.015-.492-.991l-.935.058-.718,1.744Z" transform="translate(-4.697 -9.76)" fill="#93560e"/>
      <path id="Path_479" data-name="Path 479" d="M84.118,30.052c1.017.554,1.971-.062,2.521-1.072.643-1.176.658-2.592-.452-3.2a1.813,1.813,0,0,0-2.529.983c-.765,1.395-.57,2.727.461,3.29Zm2.417-4.489a2.708,2.708,0,0,1,1.34,3.75,2.869,2.869,0,0,1-4.1.961,2.736,2.736,0,0,1-1.4-3.758,2.916,2.916,0,0,1,4.159-.953Z" transform="translate(-17.318 -5.225)" fill="#93560e"/>
      <path id="Path_480" data-name="Path 480" d="M87.33,34.721c-1.754-1.436-1.161-1.227-1.642-2.746s-.151-3.669-.492-3.91.761-.327,1.136,2.925S87.33,34.721,87.33,34.721Z" transform="translate(-17.966 -5.832)" fill="#93560e"/>
      <path id="Path_481" data-name="Path 481" d="M25.766,94.636a50.576,50.576,0,1,1,.293.17l-.809-.44-.572.828.821.533a51.5,51.5,0,1,0-.3-.174l.62.316.488-.878-.546-.353Z" transform="translate(0)" fill="#93560e"/>
      <path id="Path_482" data-name="Path 482" d="M34.355,87.555a38.21,38.21,0,0,1,10.5-69.523l.3-.881a38.986,38.986,0,0,0-11.2,71.061l.594.323.356-.622Z" transform="translate(-3.254 -3.55)" fill="#93560e"/>
      <path id="Path_483" data-name="Path 483" d="M39.14,88.137A38.978,38.978,0,1,0,51.945,16.43l-.128.817A38.19,38.19,0,1,1,39.495,87.377l-.588-.334-.591.522Z" transform="translate(-8.086 -3.254)" fill="#93560e"/>
      <path id="Path_484" data-name="Path 484" d="M63.863,11.719a2.274,2.274,0,0,1-1.763-.994" transform="translate(-13.105 -2.194)" fill="#93560e"/>
      <path id="Path_485" data-name="Path 485" d="M64.309,7.543l1.307-1.258a2.195,2.195,0,0,1,.652.845,2.273,2.273,0,0,1,.195,1l-1.812.148,1.624.862a2.286,2.286,0,0,1-1.492,1.372l-.72-1.685-.322,1.846a2.274,2.274,0,0,1-1.763-.994l1.381-1.242-1.763.279a2.257,2.257,0,0,1,.4-1.986l1.517.916-.8-1.523a2.259,2.259,0,0,1,2.013-.234l-.417,1.658Z" transform="translate(-12.981 -1.144)" fill="#93560e"/>
      <path id="Path_486" data-name="Path 486" d="M86.916,50.752a1.107,1.107,0,0,1-.922-.716.639.639,0,0,1,.243-.677.384.384,0,0,0,.043.045c.026.031.043.054.043.054l0-.013c.077.055.185.009.29.006.236-.012.282-.1.271-.318a.345.345,0,0,0-.421-.347.946.946,0,0,1-.7-.016c-.062-.045-.075-.241-.024-.4.017-.1.107-.3.107-.353-.007-.148-.187-.253-.351-.247a.31.31,0,0,0-.305.287c.009.211.143.294.235.4a.277.277,0,0,1,.04.365,2,2,0,0,1-.44.2l.007.016a.456.456,0,0,0-.092,0c-.238.01-.4.122-.392.339a.339.339,0,0,0,.372.359.438.438,0,0,0,.353-.2.76.76,0,0,1,.3.608c-.046.333-.072.605-.7.8a.846.846,0,0,1-.83-.148.6.6,0,0,1-.619.4c-.712-.08-.839-.939-.839-.939a.5.5,0,0,0,.443-.371c.124-.322-.09-.519-.436-.566-.213-.03-.48.3-.772.172s.153-.7-.231-.92c-.353-.2-.558.259-.558.259a13.745,13.745,0,0,1,1.248,1.58c.565.815,1.357,1.786,1.357,1.786l-.4.269s-.548-.85-1.415-2.021a20.588,20.588,0,0,0-1.314-1.617s-.021-.085.185-.3c.261-.27.66-.641,1.138-.424s.238.969.238.969a.824.824,0,0,1,.689-.227.88.88,0,0,1,.8.9.921.921,0,0,1-.461.723s-.055.225.389.18c.27-.028.448-.427.448-.427.021-.006.67.6,1.019.137a.886.886,0,0,0,.081-.148.743.743,0,0,1-.168.022.821.821,0,0,1-.023-1.642.676.676,0,0,1,.274.032.721.721,0,0,1-.409-.614.848.848,0,0,1,.774-.771.875.875,0,0,1,.847.718.8.8,0,0,1-.227.536.616.616,0,0,1,.484-.169.82.82,0,0,1,.024,1.64.834.834,0,0,1-.108-.01c.008.007.015.016.02.021a1.1,1.1,0,0,0,.526.222c.544.1.605-.328.605-.328a.609.609,0,0,0,.521.163c.423-.139.333-.4.333-.4a.8.8,0,0,1-.722-.428.633.633,0,0,1,.188-.974,1.243,1.243,0,0,1,.863-.092s-.461-.541-.11-.933.854-.216,1.2-.078a3.973,3.973,0,0,1,.447.208,6.767,6.767,0,0,0-.634,1.828c-.346,1.572-.551,2.421-.551,2.421l-.432-.117s.244-1.363.491-2.368a5.092,5.092,0,0,1,.533-1.494s-.43-.383-.671-.055c-.262.355.34.628.123.862s-.607,0-.787.11c-.3.185-.271.3-.1.551a.521.521,0,0,0,.537.151s.279.866-.335,1.23a.712.712,0,0,1-.777-.064s-.127.393-.861.377Z" transform="translate(-16.991 -9.838)" fill="#93560e"/>
      <path id="Path_487" data-name="Path 487" d="M86.66,53.391c1.02-.11,1.7-.3,1.656-.57-.03-.175-.865-.229-1.886-.122s-1.828.335-1.806.509S85.642,53.5,86.66,53.391Zm-2.813-.028c-.049-.432,1.269-.933,2.946-1.12s3.073.012,3.124.443-1.269.931-2.944,1.118S83.9,53.8,83.847,53.364Z" transform="translate(-17.694 -10.941)" fill="#93560e"/>
      <path id="Path_488" data-name="Path 488" d="M100.153,48.835a1.11,1.11,0,0,1-.925-.716.639.639,0,0,1,.245-.677.554.554,0,0,0,.042.047l.045.052,0-.013c.076.054.185.009.289,0,.237-.01.282-.1.272-.317a.346.346,0,0,0-.424-.346.943.943,0,0,1-.691-.015c-.065-.045-.077-.242-.026-.407.016-.1.107-.3.1-.35-.006-.148-.184-.257-.347-.248a.307.307,0,0,0-.306.286c.009.213.143.3.232.4a.272.272,0,0,1,.041.364,1.922,1.922,0,0,1-.44.2l.009.017a.346.346,0,0,0-.095-.006c-.237.009-.4.123-.391.34a.335.335,0,0,0,.376.356.432.432,0,0,0,.35-.2.749.749,0,0,1,.3.605c-.047.335-.072.607-.7.8a.855.855,0,0,1-.833-.148.594.594,0,0,1-.618.4c-.711-.081-.839-.94-.839-.94a.5.5,0,0,0,.443-.37c.125-.322-.09-.52-.436-.567-.212-.028-.478.3-.771.172s.152-.7-.234-.92c-.352-.2-.555.259-.555.259a13.667,13.667,0,0,1,1.249,1.579c.566.817,1.358,1.786,1.358,1.786l-.4.271s-.549-.851-1.415-2.021c-.738-1-1.314-1.618-1.314-1.618s-.024-.084.182-.3c.262-.269.661-.64,1.141-.423s.237.967.237.967A.824.824,0,0,1,96,46.913a.882.882,0,0,1,.8.9.912.912,0,0,1-.461.722s-.054.225.389.181c.267-.028.448-.427.448-.427.02-.007.668.595,1.019.137a1.266,1.266,0,0,0,.082-.148.924.924,0,0,1-.17.022.821.821,0,0,1-.023-1.642.677.677,0,0,1,.275.031.713.713,0,0,1-.409-.613.848.848,0,0,1,.773-.772.879.879,0,0,1,.847.719.809.809,0,0,1-.228.537.632.632,0,0,1,.484-.172.821.821,0,0,1,.021,1.641.989.989,0,0,1-.1-.01c.008.006.013.017.02.019a1.079,1.079,0,0,0,.523.224c.544.1.608-.327.608-.327a.6.6,0,0,0,.52.162c.424-.138.335-.4.335-.4a.811.811,0,0,1-.724-.428.631.631,0,0,1,.189-.972,1.233,1.233,0,0,1,.863-.093s-.462-.541-.11-.935.851-.215,1.2-.075a3.62,3.62,0,0,1,.448.207,6.71,6.71,0,0,0-.634,1.828c-.35,1.571-.554,2.42-.554,2.42L102,49.534s.243-1.364.49-2.369a5.153,5.153,0,0,1,.533-1.492s-.429-.383-.668-.054c-.264.354.338.628.122.863s-.607,0-.787.11c-.3.185-.271.3-.1.549a.518.518,0,0,0,.537.155s.28.865-.335,1.228a.714.714,0,0,1-.777-.064s-.127.392-.86.376Z" transform="translate(-19.784 -9.434)" fill="#93560e"/>
      <path id="Path_489" data-name="Path 489" d="M99.9,51.474c1.019-.108,1.7-.3,1.655-.57-.029-.173-.865-.23-1.885-.121s-1.83.335-1.808.511S98.877,51.58,99.9,51.474Zm-2.815-.025c-.05-.432,1.269-.934,2.946-1.12s3.076.011,3.124.443-1.269.933-2.944,1.12S97.131,51.879,97.082,51.449Z" transform="translate(-20.487 -10.537)" fill="#93560e"/>
      <path id="Path_490" data-name="Path 490" d="M94.681,57.869a1.11,1.11,0,0,1-.927-.715A.644.644,0,0,1,94,56.477l.044.047a.62.62,0,0,1,.045.051l0-.013c.076.055.184.009.29.006.235-.011.282-.1.272-.319a.347.347,0,0,0-.423-.346.939.939,0,0,1-.693-.017c-.065-.044-.076-.24-.025-.4.014-.1.107-.3.1-.351-.006-.148-.186-.256-.349-.247a.313.313,0,0,0-.308.289c.012.21.146.293.236.4a.275.275,0,0,1,.041.365,1.939,1.939,0,0,1-.44.2l.009.017a.326.326,0,0,0-.1-.006c-.236.01-.4.121-.391.34a.34.34,0,0,0,.375.357.434.434,0,0,0,.353-.2.757.757,0,0,1,.3.607c-.049.332-.073.607-.7.8a.86.86,0,0,1-.833-.147.592.592,0,0,1-.617.391c-.712-.08-.839-.937-.839-.937a.5.5,0,0,0,.441-.372c.126-.322-.088-.518-.437-.566-.209-.029-.476.3-.772.171s.153-.7-.23-.92c-.354-.2-.559.26-.559.26a13.766,13.766,0,0,1,1.251,1.58c.563.817,1.358,1.786,1.358,1.786l-.4.27s-.548-.851-1.415-2.021a20.69,20.69,0,0,0-1.316-1.617s-.02-.084.185-.3c.263-.269.661-.638,1.142-.421s.236.966.236.966a.822.822,0,0,1,.689-.226.88.88,0,0,1,.8.9.916.916,0,0,1-.461.723s-.055.226.39.181c.267-.03.448-.429.448-.429.021-.007.668.6,1.019.14a1.531,1.531,0,0,0,.08-.149.755.755,0,0,1-.169.021.816.816,0,0,1-.815-.813.807.807,0,0,1,.792-.828.652.652,0,0,1,.275.029.7.7,0,0,1-.406-.611.843.843,0,0,1,.771-.773.869.869,0,0,1,.846.718.786.786,0,0,1-.227.536.627.627,0,0,1,.485-.171.821.821,0,0,1,.023,1.641.648.648,0,0,1-.1-.01.189.189,0,0,0,.019.018,1.079,1.079,0,0,0,.523.226c.544.1.607-.327.607-.327a.6.6,0,0,0,.52.16c.421-.138.336-.4.336-.4a.8.8,0,0,1-.724-.429.63.63,0,0,1,.186-.971,1.246,1.246,0,0,1,.866-.095s-.463-.54-.114-.934.853-.214,1.2-.077a4.339,4.339,0,0,1,.449.209,6.671,6.671,0,0,0-.635,1.826c-.347,1.572-.554,2.424-.554,2.424l-.432-.121s.243-1.363.492-2.364a5.08,5.08,0,0,1,.53-1.5s-.429-.383-.67-.054c-.261.354.339.63.124.862s-.607,0-.788.11c-.3.185-.27.3-.1.549a.521.521,0,0,0,.536.156s.28.864-.335,1.228a.718.718,0,0,1-.778-.065S95.412,57.884,94.681,57.869Z" transform="translate(-18.628 -11.34)" fill="#93560e"/>
      <path id="Path_491" data-name="Path 491" d="M94.423,60.508c1.021-.106,1.7-.3,1.657-.567-.031-.174-.866-.23-1.886-.123s-1.83.337-1.808.51S93.4,60.614,94.423,60.508Zm-2.815-.025c-.049-.431,1.271-.933,2.945-1.12s3.075.011,3.127.443-1.272.933-2.949,1.12S91.657,60.913,91.608,60.483Z" transform="translate(-19.332 -12.443)" fill="#93560e"/>
      <path id="Path_492" data-name="Path 492" d="M68.261,47.3c-1.362,1.509-.469,3.675-.779,5.591-.538,1.561-2.177,2.544-2.667,4.126-.121.92-.231,2.2.416,2.886.044-.122-.078-.19-.1-.287-.268-1.876.316-3.213,1.947-4.807,2.485-2.806-.422-5.076,1.936-7.193l-.749-.316Z" transform="translate(-13.659 -9.913)" fill="#93560e"/>
      <path id="Path_493" data-name="Path 493" d="M75.152,65.578a11.781,11.781,0,0,0,3-.47c1.1-.33,1.98-.637,2.995-.993a17.638,17.638,0,0,1,5.716-1.236h.279a6.429,6.429,0,0,1,1.818.288,6.315,6.315,0,0,1,.984.536c1.462,1.266,1.563,1.982,3.405,3.12.831.317,1.613,1.194,2.27,1.371a13.761,13.761,0,0,1-1.146-.992A50.431,50.431,0,0,0,90.5,63.288a6.915,6.915,0,0,0-2.873-.91,12,12,0,0,0-6.055.944,23.017,23.017,0,0,1-4.447,1.045,3.707,3.707,0,0,1-1.852-.1c-.248-1.987-.958-1.6-.7-3.943a10.743,10.743,0,0,0-.488-7.4,2.687,2.687,0,0,0-.357-2.549c-.547-.542-2.022-.671-2.311.3.165.768,1.174.3,1.665.652.583.151.54.855.444,1.232-.139,1.138-1.455,1.724-2.319,1.938.331.663,1.65.233,2.075-.157a6.248,6.248,0,0,1,.925,2.483c.109,2.265-.545,2.163-1.4,3.62-.39.779-.36,1.78.237,3.335-.165-2.366.144-2.508.8-3.571a8.393,8.393,0,0,0-.214,1.89c.03,1.1.605,1.42.647,2.411a3.434,3.434,0,0,1-.763,1.872c-1.036,1.36-2.863,1.209-3.6,4.683,1.349-1.985,1.658-2.506,2.91-3.216,1.679-.711,1.938-1.267,2.32-2.27Z" transform="translate(-14.756 -10.473)" fill="#93560e"/>
      <path id="Path_494" data-name="Path 494" d="M56.266,52.313c-.157-.479-.3-.953-.806-1.062-.516-.275-.986,1.017-1.159-.016-.209-.6.491-1.045-.171-1.54-.545-.828.259-1.02.032-1.907-.043-.652-.151-1.5.754-1.541a7.6,7.6,0,0,1,4.062.072,1.431,1.431,0,0,0,.541-.733,2.482,2.482,0,0,1,1.016.093c.4.165.858.417.858.417-.394.05-1.067.121-1.019.667.261.637.869-.258,2.495.8.123.136.359.221.413.628-.768-.343-1.175-.221-1.808-.508a1.859,1.859,0,0,0-1.171-.092c-.2.036-.994.611-.964.2a2.878,2.878,0,0,0-.111-.637c-.125-.387-.3-.35-.652-.466a6.972,6.972,0,0,0-3.429-.116c-.354.086-.52.605-.363,1.008.314.627.427.529.765.509.284-.164.445-.581.927-.619.357.021.651.006.759.391l.006.217c-.129-.286-.515-.159-.708-.069-.09.086-.161.178-.09.283.127.214.275.112.469.156-.17.3-.966.389-1.488.33-.187-.024-.2.256-.3.306-.189.245-.07.471.008.733.8.959,2.141,1.03,3.173,1.7a1.681,1.681,0,0,1,.568.817c-.489-.228-.608.529-.6.674l.217-.133a4.214,4.214,0,0,0,.6-.293c.272.259.177.675.251,1.006a8.266,8.266,0,0,1,.21-.959,6.8,6.8,0,0,1-.738,6.229c-.923,1.893-.811,2.286-.711,4.85-1.254-2.652-.3-3.984-.042-5.621a.5.5,0,0,0-.177-.5,2.447,2.447,0,0,1-.622,1.881,3.44,3.44,0,0,0-.513,3.528,5.448,5.448,0,0,1,.6,2.886,6.481,6.481,0,0,0-.072,3.456,5.145,5.145,0,0,1-.61-3.6,3.857,3.857,0,0,0-.712-2.546l.329.279c-.32,2.178-3.3,2.389-2.2,5.336a9.935,9.935,0,0,1,1.277,2.565c-.632-1.07-1.4-1.146-1.935-2.29-1.43-.275-2.567.769-3.956,1.2a2.55,2.55,0,0,1-2.961-.57c2.517.922,4.259-.727,5.862-1.35.908-.4.535-1.06.654-1.633.293-1.722,1.918-1.648,2.406-3.306.037-1.394-.177-2.247.251-3.168s1.091-.671,1.184-1.844c.4-1.362-1.616-1.5-1.223-3.176a2.964,2.964,0,0,0,1.079.708,6.76,6.76,0,0,1,1.932,1.441,3.86,3.86,0,0,0-.851-1.3l-.685-.518c.064-.268.383-.421.644-.605-.074.774.875,1.134,1.251,1.608a6.431,6.431,0,0,0-.3-3.179.635.635,0,0,0-.576.26A2.227,2.227,0,0,1,58.135,52c.009-.286-.245-.11-.389-.085a2.616,2.616,0,0,0-.355.224l-.383-.641a1.457,1.457,0,0,0-.742.812Zm-.305-1.29a1.355,1.355,0,0,1,.305.618c.219.043.281-.321.449-.349ZM54.9,50.35c-.114.267-.417.615-.217.876l.466-.593A.938.938,0,0,1,54.9,50.35Zm2.56,2.823c.615.439.751.975,1.273,1.467-.245-.065-1.719-1.156-2.517-.844-1.13.1-2.636,1.123-3.629.062a3.065,3.065,0,0,1-1.246-2.133,3.191,3.191,0,0,0,3.188,1.87,6.313,6.313,0,0,1,1.818-.235,1.789,1.789,0,0,1,1.266.411,2.578,2.578,0,0,0-1.832-.836c-1.67.036-3.408.779-4.44-1.21.96.749,2.951.824,4.605.8a2.461,2.461,0,0,1,1.513.65Z" transform="translate(-9.813 -9.548)" fill="#93560e"/>
      <path id="Path_495" data-name="Path 495" d="M73.235,52.553a1.356,1.356,0,0,1-.261,1c-.115.2-.331.225-.5.3.017-.29.636-.622.262-1l-.663-.513C72.331,52.068,73.08,52.049,73.235,52.553Z" transform="translate(-15.21 -10.936)" fill="#93560e"/>
      <path id="Path_496" data-name="Path 496" d="M59.544,57.782a.61.61,0,0,1-.473-.092c-.611-.275.071-.526.111-.841C59.405,57.06,59.368,57.5,59.544,57.782Z" transform="translate(-12.413 -11.928)" fill="#93560e"/>
      <path id="Path_497" data-name="Path 497" d="M62.595,65.688a8.028,8.028,0,0,1-.327,2.821,6.747,6.747,0,0,1-.885,1.871,11.177,11.177,0,0,0,.8-3.311,13.141,13.141,0,0,1,.548-3.8l.4-1.135a15.252,15.252,0,0,0-.529,3.554Z" transform="translate(-12.954 -13.043)" fill="#93560e"/>
      <path id="Path_498" data-name="Path 498" d="M43.158,80.8c.3-.376.49-.279.659-.338.21.211.145.458.47.612.475.234,1.136-.236,1.469-.464a3.818,3.818,0,0,0,1.43.6c.521,0,.71-.523,1.184-.523s.756.59.756.59.475-.044,2.982-.45c2.483-.4,1.891,1.206,1.891,1.206a2.236,2.236,0,0,0,1.965-.9,6.8,6.8,0,0,0,1.748-3.026c.215-1.09.26-5.206.26-5.206a15.212,15.212,0,0,0-.779,2.913A7.279,7.279,0,0,1,55.987,79.5a3.2,3.2,0,0,1-.994.639c.079.012-.272-.619-.567-.852a1.765,1.765,0,0,0-.8-.379s-1.846,1.252-2.533,1.207.047-1.207.047-1.207-2.081.782-3.146,1.089-1.267-.23-1.267-.23a4.242,4.242,0,0,1-2.271.424c-.593-.336-.87-.656-1.134-.3l-.6.657c-.585-1.35.977-1.844,1.433-2.316l-1-.114a.8.8,0,0,1-.523-.906,10.055,10.055,0,0,0-1.508.363c.082-1.112,1.44-.63,1.975-1.348a.716.716,0,0,1,.94-.12s-1.236-.787-1.143-1.133c.32-1.191,2.321.605,2.791.864-.148-.224-.325-.33-.5-.615a2.037,2.037,0,0,0-3.761.035c.1.179.8-.382.869.091.143.237.328.485.387.563a10.146,10.146,0,0,1-1.257.448c-1.3.461-1.331,2.181-1.331,2.181a14.641,14.641,0,0,0,1.739-.415A1.8,1.8,0,0,0,42,78.066c.2.676.818.215.09,1.49-.391.679.338,1.933.338,1.933a1.731,1.731,0,0,0,.726-.69Z" transform="translate(-8.46 -15.315)" fill="#93560e"/>
      <path id="Path_499" data-name="Path 499" d="M65.556,68.73a11.559,11.559,0,0,0-1.6,4.54c-.383-1.727.036-3.12,1.4-5.445,1.953-2.874.925-5.674,1.049-6.546,1.523,5.251-.276,6.47-.852,7.452Z" transform="translate(-13.469 -12.862)" fill="#93560e"/>
      <path id="Path_500" data-name="Path 500" d="M57.919,73.893a6.974,6.974,0,0,0,.673,1.74,4.26,4.26,0,0,1,.286,3.159,7.869,7.869,0,0,0-1.054-3.374,4.318,4.318,0,0,1-.437-2.694,2.891,2.891,0,0,1,.674-1.171,3.587,3.587,0,0,0-.142,2.339Z" transform="translate(-12.096 -15.031)" fill="#93560e"/>
      <path id="Path_501" data-name="Path 501" d="M64.518,77.444a10.958,10.958,0,0,1-1.578,1.968c.353-2.785,2.092-3.194,2.837-6.6a10.063,10.063,0,0,1-1.259,4.63Z" transform="translate(-13.282 -15.297)" fill="#93560e"/>
      <path id="Path_502" data-name="Path 502" d="M76.223,83.479a5.661,5.661,0,0,1,1.011.337,9.042,9.042,0,0,0-1.677-.334,2.035,2.035,0,0,1-.547-.017c-1.281-.084-2.726-.439-3.712-.08-1.612.678-3.367,2-3.684,2.9-.854,1.8-2.983.308-4.4,2.012-.373-.4.166-1.04.963-1.537.6-.305,2.075.136,2.637-.539.335-.358-.443-1.2-1.42-.789-1.27.493-1.28,1.145-2.013,1.561a2.469,2.469,0,0,1,2.11-2.169c.647-.159,1.261.212,1.981.073a18.3,18.3,0,0,1,2.26-1.3,5.4,5.4,0,0,1,1.987-.564,19.666,19.666,0,0,1,4.506.44Z" transform="translate(-13.315 -17.447)" fill="#93560e"/>
      <path id="Path_503" data-name="Path 503" d="M60.012,58.2a2.586,2.586,0,0,1-.485-.128c-.378-.122-.813-.321-.877-.341-.178-.052-.282-.09-.282-.09a.271.271,0,0,1,.2-.125,3.152,3.152,0,0,1,.993.3,3,3,0,0,1,.615.366l-.162.023Z" transform="translate(-12.318 -12.07)" fill="#93560e"/>
      <path id="Path_504" data-name="Path 504" d="M73.895,49.093a.835.835,0,0,0,.072.473c.12.306.215.543.215.543s-1.516.048-1.4-.165.236-.4.166-.546a3.879,3.879,0,0,0-.26-.4l1.2.095Z" transform="translate(-15.34 -10.271)" fill="#93560e"/>
      <path id="Path_505" data-name="Path 505" d="M61.863,53.86c-.173-.494-.308-.78-1.325-1.323a12.927,12.927,0,0,0-2.2-.852,4.139,4.139,0,0,0-.851-.262c.072.047,2.035,1.16,2.413,1.325a4.911,4.911,0,0,1,1.112.566c.189.191.236.191.331.451s0,.592.165.923.307.331.307.331a1.655,1.655,0,0,0,.048-1.16Z" transform="translate(-12.13 -10.781)" fill="#93560e"/>
      <path id="Path_506" data-name="Path 506" d="M59.589,49.954a3.529,3.529,0,0,1,1.291.185c.429.147.581.821.877,1.194,0,0-1.045-1.125-1.882-1.09C59.73,50.249,59.316,49.954,59.589,49.954Z" transform="translate(-12.556 -10.473)" fill="#93560e"/>
      <path id="Path_507" data-name="Path 507" d="M58.938,50.72a1.3,1.3,0,0,1,.8.11c.271.094.409.327.664.673l-.247-.119s.052,0-.3-.187a5.514,5.514,0,0,0-.693-.269C59,50.841,58.79,50.757,58.938,50.72Z" transform="translate(-12.427 -10.628)" fill="#93560e"/>
      <path id="Path_508" data-name="Path 508" d="M70.362,49.058a2.6,2.6,0,0,0-.744,1.669,18.23,18.23,0,0,0,.352,3.546,4.211,4.211,0,0,1-.459,2.945,4.813,4.813,0,0,0-.674,2.522,4.742,4.742,0,0,0,.928,2.313,5.022,5.022,0,0,1-.473-2.864c.283-1.384,1.1-2.2,1.206-3.192a9.463,9.463,0,0,0-.312-3.142c-.391-1.7-.391-2.8.177-3.8Z" transform="translate(-14.526 -10.284)" fill="#93560e"/>
      <path id="Path_509" data-name="Path 509" d="M69.093,68.544a5.416,5.416,0,0,0,.782-2.3c.022-1.086-.686-2.177-.9-3.312a3.505,3.505,0,0,1-.024-2.152,2.336,2.336,0,0,1,.944-1.254,5.654,5.654,0,0,0-.59,1.775,5.183,5.183,0,0,0,.332,2.39c.428,1.292.875,2.554.567,3.479a5.65,5.65,0,0,1-1.041,1.821c-.307.4-.5.424-.072-.45Z" transform="translate(-14.518 -12.493)" fill="#93560e"/>
      <path id="Path_510" data-name="Path 510" d="M65.057,78.349c-.158.116-.35.244-.581.383a1.735,1.735,0,0,1-.5.17s.279-.324.946-1.259c1.066-1.584,1.006-3.244,1.375-4.9a14.586,14.586,0,0,1,1.629-3.268,7.288,7.288,0,0,0,.133-2.7c-.071,3.48-1.916,3.337-2.38,6.081a8.4,8.4,0,0,1-1.9,4.67,10.514,10.514,0,0,1-4.325,3.328c1.941.376,3.267-.169,4.97-.238a9.252,9.252,0,0,1,1.7.141c.355.166.473-.258,1.515-.8a12.27,12.27,0,0,1,1.99-.833,6.18,6.18,0,0,1,2.327-.312c-.133-.077,2.754-.12,2.337-.4-.163-.647-1.187-.074-.88-.446-1.044.5-1.226.132-2.468.381a16.1,16.1,0,0,1-1.775.1,2.811,2.811,0,0,1-.868-.178.961.961,0,0,1-.614-.944,8.3,8.3,0,0,1,.046-1.042,5.815,5.815,0,0,0-.089-1.222,8.384,8.384,0,0,1-2.593,3.276Z" transform="translate(-12.548 -14.025)" fill="#93560e"/>
      <path id="Path_511" data-name="Path 511" d="M92.2,71.441a7.386,7.386,0,0,0-3.086-2.13,11.237,11.237,0,0,0-6.386,1c-1.811.922-2.519,2.234-3.478,3.938a5.608,5.608,0,0,0-.663,1.3c-.308.926-.332,1.325.2,1.573.275.128,1.56-.5,1.56-.5-.3-.412-1.36-.2-1.36-.2a4,4,0,0,1,1.041-.97,2.16,2.16,0,0,1,1.243-.14l-.6-.429a4.642,4.642,0,0,1,.567-1.771,4.517,4.517,0,0,1,3.548-3.015c2.342-.6,3.513-.746,4.933-.073A18.974,18.974,0,0,1,92.2,71.441Z" transform="translate(-16.539 -14.529)" fill="#93560e"/>
      <path id="Path_512" data-name="Path 512" d="M95.116,74.665s.165,2.533-.569,3.715a14.187,14.187,0,0,1-2.506,2.626c1.938.757,5.441-.284,6.006-2.223a3.6,3.6,0,0,0-1.135-3.978,1.867,1.867,0,0,0-1.8-.14Zm-5.135,6.647a11.82,11.82,0,0,0-1.656-.827c-.8-.313-1.867-.654-1.867-.654s2.554-.445,3.972-.765a7.3,7.3,0,0,0,1.847-.593,2.251,2.251,0,0,0,.779-.57s.32-.139.782-1.37c.369-.984-.146-2.713.07-3,.425-.57,3.2.155,4.4,2.034.888,1.385.109,3.654.109,3.654s.791-.308.888-2.378c.109-2.411-2.647-3.767-2.647-3.767a4.5,4.5,0,0,1,2.716,2.09c1.041,1.75.4,3.9-1.066,5.794s-4.753,1.847-6.078,1.562a4.183,4.183,0,0,1,.8,1.348c.308,1.278-.12,2.012-.615,2.3a16.739,16.739,0,0,1-3.572.425c-.759.024-1.064,0-2.177.094a20.812,20.812,0,0,1-2.837-.141A6.619,6.619,0,0,0,82.6,86.8c-1.108.258-1.09-.023-1.09-.023s.19-.545-1.229-.335a12.23,12.23,0,0,1-1.75.144,3.281,3.281,0,0,1-2.177.214c-1.4-.261-1.513-1.137-1.513-1.137a5.628,5.628,0,0,0,2.2.474,2.425,2.425,0,0,0,1.7-.664s.3.453,1.443.068a2.958,2.958,0,0,0,.923-.446s2.238.14,2.46.165c.782.1,2.484.234,2.484.234s.189,0,1.608.1c.974.066,1.717.131,1.773-.117.056-.23-.706-.524-.706-.524s1.349.17,2.01.193a2.064,2.064,0,0,0,1.157-.238,1.06,1.06,0,0,0,.026-1.253c-.371-.4-.248-.368-.746-.6-1.208-.567-1.031-.818-1.031-.818s-.339-.457.426-.1c.392.175-.072-.5-.072-.5a1.691,1.691,0,0,0-.519-.321Z" transform="translate(-15.794 -15.352)" fill="#93560e"/>
      <path id="Path_513" data-name="Path 513" d="M87.269,80.756a3.475,3.475,0,0,0,.639.215c.316.078,1.7.6,1.7.6a1.143,1.143,0,0,0,.873-.258c.451-.492-1.224.042-1.146-.5.025-.166-.3-.376-.3-.376a3.57,3.57,0,0,0-.886-.076C87.377,80.44,87.269,80.756,87.269,80.756Z" transform="translate(-18.417 -16.889)" fill="#93560e"/>
      <path id="Path_514" data-name="Path 514" d="M71.345,81.253a13.613,13.613,0,0,0,2.748-.424,19.188,19.188,0,0,0,2.235-.888,5.514,5.514,0,0,1,1.38-.079.585.585,0,0,0-.326.47,1.121,1.121,0,0,0,.07.661,1.923,1.923,0,0,1,.875-.119.646.646,0,0,1,.487.308s-.392.616.13.778,1.172.168,2.246.534a17.3,17.3,0,0,0,2.556.638c.827.166,1.737.46,1.737.46s.13.122-.177.285.817.5.817.5.106.075-.674,0a9.643,9.643,0,0,1-1.585-.186,10.4,10.4,0,0,0-1.678-.264A9,9,0,0,0,81,83.809c-.356-.012-1.537-.072-2.767-.215a12.374,12.374,0,0,1-2.862-.613,2.654,2.654,0,0,0-1.516,0,.834.834,0,0,0-.945-.071,1.847,1.847,0,0,0-.911.933,1.545,1.545,0,0,1,.65-.178,1.4,1.4,0,0,1,.543.1.537.537,0,0,1-.118.636,3.661,3.661,0,0,1-.851.523s-.023-.168-1.324-.168-1.444-.189-1.893.451-.237-1.042-.237-1.042.307-.5,2.058-1.323a8.372,8.372,0,0,1,3.809-.758A12.516,12.516,0,0,1,77,82.273a17.83,17.83,0,0,1,1.891.566,6.205,6.205,0,0,0-1.844-.993,13.128,13.128,0,0,0-5.2-.047c-1.373.305-1.894.021-1.753-.192s1.251-.355,1.251-.355Z" transform="translate(-14.502 -16.782)" fill="#93560e"/>
      <path id="Path_515" data-name="Path 515" d="M72.78,84.832a1.763,1.763,0,0,1,1.039-.072.649.649,0,0,1,.354.237,4.205,4.205,0,0,0,.4.378s-1.49.121-1.183.83a1.072,1.072,0,0,0,1.112.589,1.053,1.053,0,0,0-.543.638.628.628,0,0,0,.307.686l1.2.474-.732.256s-.5-.211-.615.1a3.219,3.219,0,0,0-.164.619,2.188,2.188,0,0,1-.57-1.163,1.568,1.568,0,0,1,.426-1.159.484.484,0,0,0-.683.028,1.7,1.7,0,0,0-.381.733,2.145,2.145,0,0,1-.613-1.142,1.405,1.405,0,0,1,.424-1.135Z" transform="translate(-15.222 -17.806)" fill="#93560e"/>
      <path id="Path_516" data-name="Path 516" d="M54.142,64.774a3.251,3.251,0,0,1,.118-1.752A4.385,4.385,0,0,1,55.278,61.6c-.739.419-1.074.021-2.955-.529a11.6,11.6,0,0,0-3.61-.436,8.44,8.44,0,0,1-2.75-1.312c-.267-.231-.215-.443-.385-.989a.891.891,0,0,0-.994-.472.653.653,0,0,0-.473.331s-.195.047-.568.118-.593.543-.593.543a1.383,1.383,0,0,1,.634-.115,1,1,0,0,1,.535.284c.025.827-.069.852.264,1.418a8.179,8.179,0,0,0,1.385,1.584,15.9,15.9,0,0,0,2.389,1.231c.144.065.9.425,1.561.664a3.56,3.56,0,0,1,1.348,1.063s.007-.814,1.134-.447a6.535,6.535,0,0,0,1.941.237ZM42.314,61.247a1.209,1.209,0,0,0-.866,1.18c.187.518.312.649.932.731.3-.072.533-.127.549-.335,0,0-.143-.133-.021-.25a1.38,1.38,0,0,1,1.063-.261,3.123,3.123,0,0,0-.97-.639c-.613-.544-.2-.837.071-1.062a1.861,1.861,0,0,1,1.157.1l-1.062-1.26c-.48-.3-1.273-.416-1.505.268-.044.175-.075.67.134.8.353.378.543.474.519.732Zm1.045-4.235a1.061,1.061,0,0,0-1.229.2c-.136.269-.133.822.184.933,1.017.173.864-.649,1.882-.53A2.868,2.868,0,0,1,43.359,57.012Zm11.883,5.772a18.484,18.484,0,0,1-1.561,4.651,2.172,2.172,0,0,0-.745-.842c-.491-.327-1.348.189-1.348.189a6.58,6.58,0,0,0-2.555-1.763c-1.452-.608-1.277.65-1.277.65s-1.184-1.3-1.658-1.821c-.614-.674-1.253-.391-1.823-.211a8.323,8.323,0,0,1-2.234-.075,1.263,1.263,0,0,1-.353-2.481,1.523,1.523,0,0,1-.712-1.351c.07-.887,1.03-.851,1.03-.851s-.711-.568-.675-1.03a1.9,1.9,0,0,1,1.315-1.277c.529-.073,2.42.955,3.3,1.17.8.2.436,1.227,1.856,1.8a8.237,8.237,0,0,0,2.97.5c1.314,0,1.772.5,3.263.851s1.632-.249,1.632-.249-.284,1.2-.425,2.128Z" transform="translate(-8.603 -11.869)" fill="#93560e"/>
      <path id="Path_517" data-name="Path 517" d="M71.9,55.645a5.25,5.25,0,0,1,.019,2.058c-.478,1.223-1.175,1.485-1.385,2.654a8.842,8.842,0,0,0,.425,3.785,4.02,4.02,0,0,1,.216,2.433c-.286.661-.83,1.352-1.208,2.158a10.99,10.99,0,0,0-.623,1.851,17.741,17.741,0,0,1,.953-1.851,12.553,12.553,0,0,0,1.445-2.294c.619-1.774-.311-2.91-.5-3.928a3.77,3.77,0,0,1,.783-3.167A4.43,4.43,0,0,0,73,57.07a11.079,11.079,0,0,0,.164-1.8Z" transform="translate(-14.634 -11.595)" fill="#93560e"/>
      <path id="Path_518" data-name="Path 518" d="M35.81,101.4s28.335-.717,35.575-1.375c1.951-.178,5.393-.284,7.536-.5s5.32-.354,5.32-.354a11.253,11.253,0,0,1-3.407.675c-2.755.242-7.909.866-10.29.866-2.9,0-12.586.7-15.487.843A142.2,142.2,0,0,1,35.81,101.4Z" transform="translate(-7.557 -20.859)" fill="#93560e"/>
      <path id="Path_519" data-name="Path 519" d="M40.614,45.426a.39.39,0,1,0-.413-.389A.4.4,0,0,0,40.614,45.426Zm12.528-33.04L45.866,44.772s-.036.406.177.5a3.741,3.741,0,0,1,.6.266,2.888,2.888,0,0,1,.481.375,4.741,4.741,0,0,1-1.191-.232,1.022,1.022,0,0,1-.708-.585l7.39-32.61c.237-1.4.734-4.332.807-5.064s-.1-.568-.38-.215a18.636,18.636,0,0,0-1.609,4.518s-7.1,29.762-7.238,30.591a4.453,4.453,0,0,1-.443,1.873c-.4.68-.768.812-1.244.765-.353-.037-.843-.054-.938.228-.064.2.235.327.638.375a3.7,3.7,0,0,0,1.366-.089c.514-.142.727-.212.727-.212a1.694,1.694,0,0,0,.267.407,2.733,2.733,0,0,0,.765.551,4.1,4.1,0,0,0,1.416.29.54.54,0,0,1,.617.424c.071.192.432.4.9.167a.658.658,0,0,0,.046-1.005c-.36-.321-.873.034-.969-.131s.367-.649,1.059-.4a1.089,1.089,0,0,1,.672,1.506c-.264.8-1.14.788-1.611.717s-.735-.425-.9-.473a3.813,3.813,0,0,0-.522-.072s-3.121-1.252-3.383-1.3a4.884,4.884,0,0,0-1.157.118c-.238.049-.4.311-.994.215-.327-.053-1.391-.463-1.065-1.436a1.191,1.191,0,0,1,1.472-.888c.382.064.409.423.746.478.439.069.762.024.9-.426s7.759-30.8,7.759-30.8c1.086-3.593,1.916-5.794,2.648-6.716s1.066-1.725.946.328a33.126,33.126,0,0,1-.779,5.585Z" transform="translate(-8.311 -1.094)" fill="#93560e"/>
      <path id="Path_520" data-name="Path 520" d="M61.678,73.69a21.893,21.893,0,0,1,1.064-5.075,23.811,23.811,0,0,0,1.348-3.585,33.922,33.922,0,0,0-.106-3.69c.071-.779.141-1.527.141-1.527h.5a12.464,12.464,0,0,0-.071,2.52,7.615,7.615,0,0,1,.107,3.088c-.427,1.526-1.259,2.551-1.586,3.82a21.993,21.993,0,0,0-.686,4.992Z" transform="translate(-13.016 -12.554)" fill="#93560e"/>
      <path id="Path_521" data-name="Path 521" d="M38.95,55.6a.453.453,0,1,0-.477-.453A.466.466,0,0,0,38.95,55.6Z" transform="translate(-8.119 -11.474)" fill="#93560e"/>
      <path id="Path_522" data-name="Path 522" d="M43.3,68.847a.6.6,0,1,0-.626-.6A.616.616,0,0,0,43.3,68.847Z" transform="translate(-9.005 -14.205)" fill="#93560e"/>
      <path id="Path_523" data-name="Path 523" d="M42.43,65.189s.177-.125-.019.087a1.371,1.371,0,0,0-.466,1.107,1.4,1.4,0,0,0,1.247,1.131,1.32,1.32,0,0,0,1.58-.959,1.075,1.075,0,0,0-.266-1.172c-.2-.193-.993.073-.993.073a.965.965,0,0,1,.458.9.54.54,0,0,1-.656.46.561.561,0,0,1-.514-.693,1.155,1.155,0,0,1,.64-.671.37.37,0,0,1,.141-.321c.159-.107-1.153.054-1.153.054Z" transform="translate(-8.848 -13.669)" fill="#93560e"/>
      <path id="Path_524" data-name="Path 524" d="M51.978,58.635a.66.66,0,1,0-.643-.66A.653.653,0,0,0,51.978,58.635Z" transform="translate(-10.833 -12.026)" fill="#93560e"/>
      <path id="Path_525" data-name="Path 525" d="M48.151,83.668a17.5,17.5,0,0,0,1.523,2.641,25.074,25.074,0,0,1,1.752,2.559c.474.8,1.9,3.011,3.034,4.526s3.153,3.785,3.153,3.785-2.638-4.152-3.445-5.239-1.561-2.365-2.319-3.361-3.224-4.487-3.7-4.911Z" transform="translate(-10.161 -17.588)" fill="#93560e"/>
      <path id="Path_526" data-name="Path 526" d="M56.663,83.57s3.122,3.785,4.685,5.63,2.365,3.311,3.123,4.21,2.963,3.46,2.963,3.46a16.543,16.543,0,0,0-2.4-3.835c-1.212-1.3-2.223-2.935-3.217-4.118S59.313,85.7,58.65,85.13s-1.658-1.609-1.987-1.561Z" transform="translate(-11.958 -17.566)" fill="#93560e"/>
      <path id="Path_527" data-name="Path 527" d="M69.264,87.385s3.885,4.833,4.548,5.5,2.746,3.6,2.746,3.6,2.264,2.265.774.134c-.363-.516-2.3-2.978-3.146-4.067s-1.846-2.225-2.649-3.172a18.43,18.43,0,0,0-2.273-1.985Z" transform="translate(-14.617 -18.372)" fill="#93560e"/>
      <path id="Path_528" data-name="Path 528" d="M81.356,90.159a8.054,8.054,0,0,0,1.277,1.8c.66.618,1.939,2.084,2.367,2.6s2.936,2.675,2.936,2.675a21.551,21.551,0,0,0-1.708-2.108c-.709-.709-1.466-1.466-2.033-2.131a40.036,40.036,0,0,0-2.839-2.837Z" transform="translate(-17.169 -18.957)" fill="#93560e"/>
      <path id="Path_529" data-name="Path 529" d="M90.121,89.854S92.048,91.905,93,93a37.335,37.335,0,0,0,3.161,2.938A5.893,5.893,0,0,0,95,94.238a34.856,34.856,0,0,1-2.587-2.774c-.55-.686-1.382-1.509-1.382-1.509Z" transform="translate(-19.019 -18.893)" fill="#93560e"/>
      <path id="Path_530" data-name="Path 530" d="M50.387,95.551s3.03-.32,4.4-.389,6.163-.143,7.943-.143,8.9-.567,11.365-.638,6.506-.568,7.465-.568,9.305-.185,9.305-.185a18.514,18.514,0,0,1-3.879.554c-.551.035-5.907.481-6.728.481s-3.236.056-3.236.056a31.453,31.453,0,0,1-3.543.157,23.484,23.484,0,0,0-3.47.274s-1.119.012-2.555.152-4.042,0-4.316.073a31.5,31.5,0,0,1-4.033.311,26.552,26.552,0,0,1-3.543-.1c-.205-.071-1.6.071-2.42.071s-2.756-.107-2.756-.107Z" transform="translate(-10.633 -19.689)" fill="#93560e"/>
      <path id="Path_531" data-name="Path 531" d="M67.537,89.305H62.9c-.8,0-3.583.224-3.583.224s-2.473-.084-3.749-.084-6.933.33-6.933.33a57.189,57.189,0,0,0,6.956.073c1.244-.033,3.773,0,4.3,0s2.868-.027,3.582-.073c4.01-.246,4.07-.47,4.07-.47Z" transform="translate(-10.263 -18.777)" fill="#93560e"/>
      <path id="Path_532" data-name="Path 532" d="M58.29,84.7s-3.886.054-5.447.125-4.613.073-4.613.073a13.574,13.574,0,0,1,2.414-.3c1.489-.073,2.836-.022,3.688-.073a30.926,30.926,0,0,1,3.957.178Z" transform="translate(-10.178 -17.764)" fill="#93560e"/>
      <path id="Path_533" data-name="Path 533" d="M29.216,67.734a.229.229,0,0,0-.2.022l-.072.009a.119.119,0,0,0-.067.077l-.012.05a.57.57,0,0,0-.028.673c.176.2.53.181.519.557l-.008.047.028-.146-.022.05c-.033.063-.063.129-.1.195l-.029.112a.261.261,0,0,0,.017.216l.015.023a1.392,1.392,0,0,0,.873.649,1.646,1.646,0,0,0-.256.564l-.008.1a.3.3,0,0,0,.047.175l.038.054c.11.245.387.339.59.5.06.047.019.136-.05.259a.677.677,0,0,0,.237.865c.173.133.4.188.488.38.129.276-.1.55-.069.852a.82.82,0,0,0,.79.754c.03,0,.082.047.077.061-.057.237-.24.422-.207.684.049.413.412.54.682.746-.052.1.06.215-.08.313a.877.877,0,0,0,.772,1.048c.047,0,.112.086.211.092a.088.088,0,0,0,.119-.038.087.087,0,0,0-.042-.117c-.194-.239-.478-.425-.515-.757a.885.885,0,0,0-.468-1.262.1.1,0,0,1-.035-.09,1.1,1.1,0,0,0,.085-.967.886.886,0,0,0-.669-.394c-.017,0-.036-.092-.031-.148a2.341,2.341,0,0,0,.062-.847,1.224,1.224,0,0,0-.751-.8c-.02-.009-.059.015-.092.027a.937.937,0,0,0-.521-1.4l-.119-.144.053.172.017-.107c.132-.327.265-.737-.082-1.016-.193-.159-.452-.159-.637-.312l-.089-.172.029.163.036-.1c0,.006,0,.009,0,.017l.078-.151a.26.26,0,0,0,.032-.133l-.009-.116a.844.844,0,0,0-.719-.692c-.107-.023-.094-.18-.071-.281L29.1,67.9l-.041.058.092-.046c-.086-.124.047-.086.086-.118a.034.034,0,0,0,.018-.039.032.032,0,0,0-.037-.022Z" transform="translate(-6.065 -14.222)" fill="#93560e"/>
      <path id="Path_534" data-name="Path 534" d="M33.255,66.926c-.068-.024-.058.055-.12.09l-.072.01A.126.126,0,0,0,33,67.1l-.012.053a.561.561,0,0,0-.03.671c.178.2.455.111.442.484l-.009.047.028-.144-.021.051c-.036.064-.065.13-.1.193l-.03.114a.258.258,0,0,0,.017.215l.014.023a1.392,1.392,0,0,0,.874.648,1.66,1.66,0,0,0-.256.567l-.008.1a.281.281,0,0,0,.048.174l.038.054c.107.245.385.341.588.5.059.047.017.139-.051.259a.675.675,0,0,0,.243.863c.167.136.394.191.485.383.126.275-.1.546-.07.85a.818.818,0,0,0,.788.755c.03,0,.086.043.078.062-.06.234-.239.421-.207.684.047.411.409.537.683.746-.054.1.058.214-.084.311a.878.878,0,0,0,.772,1.048c.048,0,.112.084.215.092a.086.086,0,1,0,.077-.153c-.195-.241-.48-.426-.516-.759a.882.882,0,0,0-.465-1.261.093.093,0,0,1-.037-.092,1.091,1.091,0,0,0,.083-.968.874.874,0,0,0-.664-.392c-.021,0-.041-.092-.034-.144a2.371,2.371,0,0,0,.062-.852,1.224,1.224,0,0,0-.751-.8c-.021-.008-.059.017-.092.028a.939.939,0,0,0-.52-1.4l-.118-.145.05.171.018-.1c.133-.331.265-.739-.083-1.018-.193-.156-.45-.156-.636-.313l-.088-.169.028.163.036-.1s0,.007,0,.013l.08-.152a.265.265,0,0,0,.029-.133l-.009-.114a.7.7,0,0,0-.639-.624c-.11-.021-.1-.177-.073-.278l.04-.148-.04.059.094-.047c-.088-.125.045-.085.082-.117a.037.037,0,0,0,.022-.041.337.337,0,0,0-.116-.09Z" transform="translate(-6.934 -14.053)" fill="#93560e"/>
      <path id="Path_535" data-name="Path 535" d="M37,66.436a.817.817,0,0,0,.362,1.275c.2.225-.033.3-.1.527l-.013.055a.285.285,0,0,0,.034.132l.014.024a.86.86,0,0,0,.536.586l.09,0-.077-.064-.006-.017c.162.092.37.266.282.429a.9.9,0,0,0,.435,1.243l.047.022-.136-.119.122.134a.181.181,0,0,1,.133.17.6.6,0,0,1-.088.321c-.209.472.219.9.618,1.166a.179.179,0,0,1,.08.189c-.073.417-.274.878.126,1.172a1.6,1.6,0,0,1,.555.7.14.14,0,0,0,.147.134.143.143,0,0,0,.134-.148.809.809,0,0,0-.13-.865,1.487,1.487,0,0,0-.463-.313c-.053-.023-.093-.183-.061-.274a1.1,1.1,0,0,0-.114-1.1c-.148-.166-.378-.228-.494-.42-.191-.312.067-.637.035-.97a.4.4,0,0,0-.1-.235l.039.035a.326.326,0,0,0-.129-.123l-.149-.08a.668.668,0,0,1-.444-.436c-.076-.3.182-.6.028-.906L38.3,68.6a.275.275,0,0,0-.156-.1l-.081-.042a.537.537,0,0,1,.06-.012c-.079-.073-.209-.054-.266-.159l-.129-.129.037.129v-.1a.063.063,0,0,1-.072-.079.7.7,0,0,0-.357-.957c-.208-.115-.151-.4-.068-.6a.147.147,0,0,0-.073-.194.145.145,0,0,0-.193.073Z" transform="translate(-7.771 -13.933)" fill="#93560e"/>
      <path id="Path_536" data-name="Path 536" d="M25.535,68.41a.818.818,0,0,0,.362,1.274c.2.222-.009.477-.08.71l-.011.054a.253.253,0,0,0,.035.132l.011.022a.854.854,0,0,0,.537.585l.088.006-.075-.065-.007-.015c.163.091.371.267.282.435a.894.894,0,0,0,.434,1.237l.049.024-.133-.119.12.131a.193.193,0,0,1,.135.172.614.614,0,0,1-.091.32c-.208.472.219.9.619,1.167a.183.183,0,0,1,.08.189c-.074.417-.275.877.125,1.175a1.581,1.581,0,0,1,.555.7.142.142,0,0,0,.282-.017.806.806,0,0,0-.133-.866,1.506,1.506,0,0,0-.46-.315c-.054-.023-.095-.181-.06-.271a1.1,1.1,0,0,0-.117-1.105c-.149-.165-.376-.222-.5-.419-.189-.311.067-.637.036-.972a.4.4,0,0,0-.1-.23l.039.031a.346.346,0,0,0-.13-.125l-.148-.076a.675.675,0,0,1-.444-.436c-.076-.3.184-.6.028-.907l-.013-.077a.292.292,0,0,0-.155-.1l-.08-.042.058-.011c-.078-.071-.208-.055-.266-.159l-.128-.126.036.128v-.1a.062.062,0,0,1-.069-.078.934.934,0,0,0-.382-1.142c-.207-.117-.151-.394-.065-.6a.146.146,0,0,0-.268-.117Z" transform="translate(-5.351 -14.349)" fill="#93560e"/>
      <path id="Path_537" data-name="Path 537" d="M29.493,78.537a.639.639,0,0,0,.3.723c.109.069.141.248.167.4-.024-.032-.049-.073-.073-.108-.013.061-.032.122-.048.18l-.038.107a.235.235,0,0,0,0,.144l.027.086a1.972,1.972,0,0,0,.689.731.255.255,0,0,0,.362-.023.259.259,0,0,0-.025-.361c-.151-.138-.311-.268-.464-.4l-.087-.163L30.293,80l.027-.077a.72.72,0,0,0-.482-1.023c-.041-.006-.108.073-.184-.056a1.079,1.079,0,0,1-.1-.312.031.031,0,0,0-.031-.026A.034.034,0,0,0,29.493,78.537Z" transform="translate(-6.219 -16.498)" fill="#93560e"/>
      <path id="Path_538" data-name="Path 538" d="M32.129,83.723l-.107-.028.011-.064a.136.136,0,0,0-.077.029l-.08.08c-.352.406,0,.869.174,1.257.012.029-.071.125-.179.2a.575.575,0,0,0-.06.877c.176.166.452.329.35.575-.126.3-.462.493-.442.854a1.479,1.479,0,0,0,.319.634c.2.338-.219.6-.3.946a.646.646,0,0,0,.327.731c.157.357-.3.563-.377.884l-.023.039a.278.278,0,0,0-.033.143l.013.108a.584.584,0,0,0,.136.286c.1.147.316.234.3.409a.981.981,0,0,1-.537.7.244.244,0,0,0-.072.338.246.246,0,0,0,.343.069,1.288,1.288,0,0,0,.807-1.1.9.9,0,0,0-.4-.72l-.048-.121-.032.148.054-.142c.151-.294.4-.547.4-.894a1.444,1.444,0,0,0-.361-.791,1.748,1.748,0,0,0,.339-1.086c-.021-.321-.376-.477-.373-.773,0-.209.234-.352.3-.567.124-.423-.167-.783-.23-1.18a.794.794,0,0,0,.151-.739c-.118-.294-.459-.5-.335-.884l.039-.082-.08.026.032-.008c.024-.013.048-.028.071-.04A.1.1,0,0,0,32,83.681l.131.042Z" transform="translate(-6.631 -17.58)" fill="#93560e"/>
      <path id="Path_539" data-name="Path 539" d="M36.008,83.449a.323.323,0,0,0-.32.1c-.4.429-.189.972.126,1.408a.218.218,0,0,1-.014.2,1.285,1.285,0,0,0-.287,1.256,4.1,4.1,0,0,0,.4.584.177.177,0,0,1-.038.2,1.008,1.008,0,0,0-.019,1.545.437.437,0,0,1-.159.567l-.062.076a.275.275,0,0,0-.059.128l-.014.1a1.5,1.5,0,0,0,.361,1.052.2.2,0,0,1,0,.207c-.319.306-.635.661-.518,1.121a.283.283,0,0,0,.3.267.286.286,0,0,0,.266-.3c0-.09-.043-.2-.014-.26.138-.3.468-.464.528-.816a1.173,1.173,0,0,0-.342-.9.454.454,0,0,1-.037-.282l.009-.1-.058.133.043-.066a.9.9,0,0,0,.293-1.009c-.069-.241-.293-.374-.358-.606-.1-.382.16-.67.258-1.021a.353.353,0,0,0-.006-.206,1.98,1.98,0,0,1-.181-.873c.046-.279.269-.494.314-.788.062-.436-.245-.714-.469-1.052a.516.516,0,0,1,.084-.611.027.027,0,0,0,.014-.039.025.025,0,0,0-.037-.018Z" transform="translate(-7.466 -17.539)" fill="#93560e"/>
      <path id="Path_540" data-name="Path 540" d="M39.747,82.91a.363.363,0,0,0-.331.147c-.436.582-.032,1.258.249,1.793-.082.087-.092.219-.169.293a1.264,1.264,0,0,0,.144,1.684l.021-.024V86.8l.009.023c.056.073.124.145.083.262-.109.33-.394.57-.4.928a1.394,1.394,0,0,0,.25.7c.076.144.2.347.078.461-.543.507-.163,1.258.17,1.728a1.165,1.165,0,0,1-.307.85.181.181,0,0,0,.208.3.889.889,0,0,0,.457-.287,1.177,1.177,0,0,0-.066-1.507c-.31-.344.011-.692.045-1.059a1.513,1.513,0,0,0-.377-.954.5.5,0,0,1-.054-.482c.141-.35.43-.685.34-1.091l.021-.026a.249.249,0,0,0-.146-.142l.007-.047c-.046-.234-.215-.479-.074-.716-.03.027-.061.053-.089.08a1.113,1.113,0,0,0,.472-1.293c-.207-.5-.868-.959-.5-1.55a.037.037,0,0,0,.011-.046.035.035,0,0,0-.047-.012Z" transform="translate(-8.278 -17.426)" fill="#93560e"/>
      <path id="Path_541" data-name="Path 541" d="M44.109,84.052c-.313-.017-.422.338-.445.59a1.087,1.087,0,0,0,.282.738.257.257,0,0,1,.051.209c-.083.282-.37.468-.4.766a1.32,1.32,0,0,0,.536,1.031l.066.043-.119-.148.009.023c.028.362-.376.561-.478.893-.127.409.182.72.391,1.052a.1.1,0,0,1,.009.1,1.271,1.271,0,0,0-.389.888c.034.415.377.656.57.99a1.166,1.166,0,0,1-.545,1.052.086.086,0,0,0-.019.117.082.082,0,0,0,.116.021,2.507,2.507,0,0,0,.75-.511.94.94,0,0,0,.165-1.07c-.134-.225-.325-.377-.463-.6a.224.224,0,0,1-.01-.217,1.74,1.74,0,0,0,.341-.694c.05-.326-.221-.524-.384-.784-.044-.066-.077-.144-.031-.207.271-.372.613-.757.493-1.228l.017-.019a.282.282,0,0,0-.12-.148l-.014-.035c-.1-.132-.062-.335-.3-.386.25-.309.58-.649.493-1.09a1.527,1.527,0,0,0-.5-.772c-.154-.156-.064-.365-.021-.556a.04.04,0,0,0,0-.057.038.038,0,0,0-.058,0Z" transform="translate(-9.198 -17.665)" fill="#93560e"/>
      <path id="Path_542" data-name="Path 542" d="M26.874,93.509s2.356-.167,3.684-.331c1.457-.178,4.286-.014,6.794-.107,2.724-.1,6.267-.427,6.267-.427a19.91,19.91,0,0,0,.021-4.363,36.1,36.1,0,0,1-.095-5.4,26.9,26.9,0,0,1,.664,3.6c.095,1.374.235,3.172.331,4.023s.048.8.189,1.7A18.722,18.722,0,0,1,44.9,94.3a8.625,8.625,0,0,1-2.668.482,29.065,29.065,0,0,0-5.116-.02,13.984,13.984,0,0,1-3.927.286,10.7,10.7,0,0,0-3.74.189c-.283.237-.944-.662-.944-.662a25.372,25.372,0,0,1,4.021-.282,50.485,50.485,0,0,0,5.67-.275c.946-.1,2.6.207,3.414.133,1.95-.185,2.223-.665,2.223-.665s-1.551-.088-3.587.008-3.694.208-5.256.208-3.995.01-4.941.107-2.313.264-2.313.264l-.858-.562Z" transform="translate(-5.671 -17.422)" fill="#93560e"/>
      <path id="Path_543" data-name="Path 543" d="M36.177,98.179s.146.7.275,1.378a5.54,5.54,0,0,0,1.932,2.686l.887.288-.249-.64a6.389,6.389,0,0,1-1.761-2.258,5.85,5.85,0,0,1-.021-1.454H36.177Z" transform="translate(-7.635 -20.65)" fill="#93560e"/>
      <path id="Path_544" data-name="Path 544" d="M46.093,97.6a16.152,16.152,0,0,0,.358,1.841,5.236,5.236,0,0,0,1.929,2.352,2.195,2.195,0,0,0,.8.651l.518-.048-.208-.587a10.765,10.765,0,0,1-2.069-2.176c-.709-1.633-.15-1.633-.383-2.069-.148-.282-.94.037-.94.037Z" transform="translate(-9.727 -20.495)" fill="#93560e"/>
      <path id="Path_545" data-name="Path 545" d="M20.493,65.4l.108.308s2.507-.57,4.044-.83,2.152-.214,4.66-.736,5.726-.8,5.726-.8,1.277,2.533,1.823,3.764,2.128,4.118,2.128,4.118A11.016,11.016,0,0,0,38.2,68.4a31.017,31.017,0,0,1-1.75-3.426c-.33-.807-1.026-2.7-1.026-2.7s-1.87.506-2,.522-.167-.068-.167-.068a6.052,6.052,0,0,0-.093-1.469c-.144-.447-1.941-3.289-1.941-3.289l-.686-.447.285,1.015a14.381,14.381,0,0,1,1.371,2.32,8.3,8.3,0,0,1,.26,2.083l-7,1.277a18.605,18.605,0,0,0-1.178-2.851c-.211-.386-1.54-1.006-1.686-1.194s-.379-.522-.379-.522l-.376-.26s-.269.806,0,1.163c.521.684,1.229.614,1.677,1.275a6.368,6.368,0,0,1,.972,2.508l-3.527.779-.462.286Z" transform="translate(-4.325 -12.07)" fill="#93560e"/>
      <path id="Path_546" data-name="Path 546" d="M34.8,65.807l.189-.331s-1.456.179-2.057.216a41.636,41.636,0,0,0-4.139.755c-1.206.284-3.4.391-4.72.639s-3.673.941-3.673.941a43.784,43.784,0,0,1,1.98,4.514c.461,1.49.675,3.926,1.455,5.36a3.715,3.715,0,0,0,2.483,1.879,10.69,10.69,0,0,1,3.247-.8c1.809-.142,3.514-.818,5.181-.96a11.878,11.878,0,0,0,3.016-.673,2.355,2.355,0,0,0-1.9-.408c-1.1.248-3.859,1.036-4.491,1.153-.761.142-2.324.3-3.034.513-.536.163-1.721.391-1.721.391s-1.313-.267-2.076-2.253c-.7-1.826-.727-2.537-1.6-4.436-.668-1.459-1.733-4.036-1.733-4.036s1.4-.337,2.325-.553,1.1-.03,3.618-.566,4.9-.97,6.055-1.136c.434-.062,1.527-.19,1.585-.213Z" transform="translate(-4.305 -13.748)" fill="#93560e"/>
      <path id="Path_547" data-name="Path 547" d="M28.034,83.368a19.171,19.171,0,0,0-.14,2.507c.093,2.129.992,3.454.757,4.874a11.2,11.2,0,0,1-1.018,2.886l-.5-.286a9.7,9.7,0,0,0,.615-3.026c-.095-1.09-.615-3.172-.57-4.307a20.034,20.034,0,0,1,.334-2.555Z" transform="translate(-5.727 -17.524)" fill="#93560e"/>
      <path id="Path_548" data-name="Path 548" d="M62.132,41.6c-.26-.66-1.254-2.124-1.434-2.582-.156-.394.361-.952.867-.789.461.149.546,1.061.546,1.061a1,1,0,0,1,1.271-.258.612.612,0,0,1,.131,1.026c-.32.343-1.105.1-1.105.1s-.593.913.714,1.822c.967.671,1.518-.021,1.518-.021a1.043,1.043,0,0,0,.79.867c.346.094,1.169.6,1.891-.769.164-.308.241-.846.134-.867a2.25,2.25,0,0,0-.4-.007A.614.614,0,0,1,67,39.947a.647.647,0,0,1,.443.174l0-.021a.494.494,0,0,0,.823-.042c.18-.205,0-.713,0-.713h0a.508.508,0,0,1-.037-.185.544.544,0,0,1,1.086,0,.516.516,0,0,1-.357.48,1.016,1.016,0,0,0-.3.5c-.092.537.706.57.706.57l-.024.039.032,0a.605.605,0,0,1,.622.589.589.589,0,0,1-.622.589c-.422-.039-.657-.466-.889-.423,0,0-1.279,1.636.4,2.374a1.751,1.751,0,0,0,1.631-.025,1.572,1.572,0,0,0,1.218.753,2.16,2.16,0,0,0,1.8-1.255s-.815-.141-.91-.558a.616.616,0,0,1,.658-.782,1.113,1.113,0,0,1,1.094.791,1.074,1.074,0,0,1,.705-.545c.481-.077.856.608.511.849-.308.215-1.929,1.119-2.736,1.658A13.014,13.014,0,0,0,71.387,45.8c-.224.189-.384.437-.507.519l-.5-.189s.024,0-.9-.379-1.041-.45-1.041-.45-.488-.237-1.552-.617S65,44.028,65,44.028s.13.114-.816-.193-.875-.283-.875-.283l-.527-.129c-.014-.031-.025-.052-.042-.084,0,0-.269-.873-.608-1.74Zm7.636-1.408a1.4,1.4,0,0,0-.392-.069m0,0a1.119,1.119,0,0,0,.548-.959,1.139,1.139,0,0,0-2.277,0,1.092,1.092,0,0,0,.05.312,1.4,1.4,0,0,0-1.109-.058,1.156,1.156,0,0,0-.907,1.172c0,.718.346,1.257,1.071,1.257.073,0-.073.01,0,0-.047.054.012-.042,0,0a.875.875,0,0,1-1.088.536,1.038,1.038,0,0,1-.8-1.129s-.858.622-1.444.267c-.7-.425-.311-.7-.311-.7A1.276,1.276,0,0,0,64.4,39.178a1.405,1.405,0,0,0-1.843-.776s.127-.83-1.216-1.005a1.382,1.382,0,0,0-1.319,1.737c.141.3.236.374,1.1,1.852a12.054,12.054,0,0,1,1.124,2.342,1.139,1.139,0,0,1,.036.294.908.908,0,0,0,.047.307,21.275,21.275,0,0,1,4.117,1.123,34,34,0,0,1,4.8,2.07s.023-.1.048-.261a1.135,1.135,0,0,1,.019-.114,3.664,3.664,0,0,1,1.236-1.174c1.889-1.2,2.649-1.482,3.6-2.017.629-.353.394-1.517-.215-1.813-1.2-.585-1.6.112-1.6.112a1.506,1.506,0,0,0-2.013-.169,1.1,1.1,0,0,0,.25,1.9s.019.255-.753.44c-.711.17-.926-.884-.926-.884a1.666,1.666,0,0,1-1.664.341.887.887,0,0,1-.547-1.129c.227.383.491.327.894.3A1.134,1.134,0,0,0,70.7,41.464a1.405,1.405,0,0,0-.935-1.274" transform="translate(-12.654 -7.821)" fill="#93560e"/>
      <path id="Path_549" data-name="Path 549" d="M64.261,47.816a4.408,4.408,0,0,1,1.052.813,5.157,5.157,0,0,1,.605.9,2.391,2.391,0,0,0-1.591.006c-.821.277-1.142.022-1.169-.294a.941.941,0,0,1,.237-.607.318.318,0,0,0,.222.507.85.85,0,0,0,.69-.049s-.492-.061-.531-.337a.476.476,0,0,1,.334-.51s-.193-.135-.769.029c-.439.125-.452.506-.531.61s-.115.039-.08-.287C62.789,48.042,62.632,47.382,64.261,47.816Z" transform="translate(-13.235 -9.992)" fill="#93560e"/>
      <path id="Path_550" data-name="Path 550" d="M69.757,35.793a.748.748,0,1,0-.738-.746A.743.743,0,0,0,69.757,35.793Z" transform="translate(-14.565 -7.169)" fill="#93560e"/>
      <path id="Path_551" data-name="Path 551" d="M64.473,36.878a.484.484,0,1,0-.523-.482A.5.5,0,0,0,64.473,36.878ZM63.346,36.4a1.128,1.128,0,1,1,1.127,1.11A1.116,1.116,0,0,1,63.346,36.4Z" transform="translate(-13.368 -7.377)" fill="#93560e"/>
      <path id="Path_552" data-name="Path 552" d="M67.319,35.809a.36.36,0,1,0-.382-.358A.368.368,0,0,0,67.319,35.809Zm-.929-.368a.933.933,0,1,1,.932.907A.922.922,0,0,1,66.39,35.441Z" transform="translate(-14.011 -7.218)" fill="#93560e"/>
      <path id="Path_553" data-name="Path 553" d="M71.642,30.235a1.649,1.649,0,0,0-.316.527,2.722,2.722,0,0,0-.131.816s1.356-.213,1.419.1a.627.627,0,0,1-.157.536l.809.281s-.046-.551.136-.6,1.131.788,1.131.788.237-.052.473-.551a.8.8,0,0,0-.052-.789s-1.341.262-1.341-.1.946-1.261.946-1.261a1.424,1.424,0,0,0-.723-.507c-.578-.158-.7-.047-.7-.047s-.053,1.551-.264,1.578S71.642,30.235,71.642,30.235Z" transform="translate(-15.025 -6.132)" fill="#93560e"/>
      <path id="Path_554" data-name="Path 554" d="M63.856,37.97a8.626,8.626,0,0,1,2.525-1.424,15.689,15.689,0,0,1,3.116-.755c.529-.148,1-.244,1-.244s.458.821.143.923-.814-.1-1.737-.035a8.688,8.688,0,0,0-2.75.894,3.032,3.032,0,0,0-1.415,1.182Z" transform="translate(-13.476 -7.432)" fill="#93560e"/>
      <path id="Path_555" data-name="Path 555" d="M74.2,37.07a.748.748,0,1,1,1.017-.268A.743.743,0,0,1,74.2,37.07Z" transform="translate(-15.583 -7.461)" fill="#93560e"/>
      <path id="Path_556" data-name="Path 556" d="M76.669,41.761a9.513,9.513,0,0,0-1.424-3.048,15.856,15.856,0,0,0-2.209-2.327c-.365-.408-.711-.747-.711-.747s-.83.443-.619.7.735.361,1.475.914A8.577,8.577,0,0,1,75.009,39.5a4.1,4.1,0,0,1,.623,2.015l1.037.25Z" transform="translate(-15.125 -7.452)" fill="#93560e"/>
      <path id="Path_557" data-name="Path 557" d="M78,40.991a.483.483,0,1,0-.522-.481A.5.5,0,0,0,78,40.991Zm-.552.474a1.111,1.111,0,1,1,1.536-.381A1.118,1.118,0,0,1,77.444,41.465Z" transform="translate(-16.226 -8.244)" fill="#93560e"/>
      <path id="Path_558" data-name="Path 558" d="M72.467,34.816a.614.614,0,1,0-.62-.615A.618.618,0,0,0,72.467,34.816ZM71.24,34.2a1.226,1.226,0,1,1,1.227,1.228A1.225,1.225,0,0,1,71.24,34.2Z" transform="translate(-15.034 -6.89)" fill="#93560e"/>
      <path id="Path_559" data-name="Path 559" d="M76.372,38.443a.362.362,0,1,0-.38-.361A.37.37,0,0,0,76.372,38.443Zm-.463.424a.909.909,0,1,1,1.264-.3.919.919,0,0,1-1.264.3Z" transform="translate(-15.922 -7.775)" fill="#93560e"/>
      <path id="Path_560" data-name="Path 560" d="M68.944,45.952c.256,0,.4-.277.4-.5a.469.469,0,0,0-.93,0,.583.583,0,0,0,.527.5Z" transform="translate(-14.438 -9.436)" fill="#93560e"/>
      <path id="Path_561" data-name="Path 561" d="M154.473,73.628a2.445,2.445,0,0,0,2.567-2.451V51.5a3.086,3.086,0,0,0-2.451-3.307v-.855c1.478,0,2.918.155,4.395.155s2.956-.155,4.436-.155v.855c-1.6.428-2.1,1.362-2.1,3.423,0,1.168-.117,3.656-.117,7.157V72.227a20.639,20.639,0,0,0,4.123.234c6.69,0,7.9-1.206,8.869-3.7l1.4.7L173.92,74.95a10.442,10.442,0,0,0-3.733-.622H157.43c-.974,0-1.984.155-2.957.155v-.855Z" transform="translate(-32.599 -9.92)" fill="#11377d"/>
      <path id="Path_562" data-name="Path 562" d="M185.717,54.176c1.118,0,2.24.122,3.389.122,1.123,0,2.272-.122,3.394-.122v.682c-1.4.189-1.744,1.122-1.744,3.114,0,2.954-.03,5.911-.03,8.867,0,4.169,1.927,7.127,6.566,7.127,2.52,0,5.726-1.461,5.726-4.98V65.317c0-3.673-.279-7.344-.279-8.9a1.732,1.732,0,0,0-1.59-1.557v-.682c1.12,0,2.241.122,3.363.122s2.269-.122,3.39-.122v.682c-1.026.032-1.462,1.246-1.462,2.3,0,1.182-.094,4.42-.094,8.526v6.784c0,1.744.342,2.645,1.712,2.737V75.9c-.871,0-1.773-.125-2.645-.125s-1.742.125-2.615.125c.064-1.058.156-2.024.219-2.957-2.271,2.118-4.2,3.329-7.375,3.329-4.607,0-8.247-2.645-8.247-7.314v-5.2c0-2.429-.155-4.574-.155-6.505,0-1.213-.218-2.208-1.523-2.4Z" transform="translate(-39.192 -11.364)" fill="#11377d"/>
      <path id="Path_563" data-name="Path 563" d="M222.123,75.11c1.214-.307,1.931-1.243,1.931-2.985l.092-18.422h1.306l15.22,16.743V59.738c0-3.858-.842-4.761-2.335-4.98v-.682c1.028,0,2.053.122,3.082.122s2.083-.122,3.11-.122v.682c-1.37.25-2.056,1.34-2.056,3.86l-.09,17.551h-1.057l-15.47-16.834.127,11.858c.03,2.424.776,3.546,2.27,3.916V75.8c-1.026,0-2.053-.125-3.081-.125s-2.022.125-3.049.125V75.11Z" transform="translate(-46.875 -11.264)" fill="#11377d"/>
      <path id="Path_564" data-name="Path 564" d="M263.629,74.4a29.736,29.736,0,0,0,3.86.248c5.943,0,8.932-3.643,8.932-9.618,0-5.632-3.924-9.614-9.431-9.614-.994,0-1.96.062-3.206.123-.032,2.739-.155,5.228-.155,7.844V74.4Zm-4.948.806c1.278-.307,1.616-.87,1.616-2.208V63.945c0-2.737-.309-5.164-.309-6.69a2.261,2.261,0,0,0-1.617-2.52v-.559c1.464,0,2.895.122,4.359.122,1.43,0,2.892-.122,4.354-.122,8.5,0,13.662,3.734,13.662,10.736,0,7.124-4.044,10.985-12.789,10.985-1.555,0-3.112-.125-4.637-.125-1.557,0-3.08.125-4.638.125V75.21Z" transform="translate(-54.525 -11.364)" fill="#11377d"/>
      <path id="Path_565" data-name="Path 565" d="M294.347,71.566h1.183c.841,2.365,2.77,3.295,5.1,3.295a4.024,4.024,0,0,0,4.043-3.887c0-6.567-10.61-2.52-10.61-10.954,0-4.015,3.517-6.317,7.188-6.317a12.028,12.028,0,0,1,5.541,1.43l.31,3.329h-1.122a4.912,4.912,0,0,0-4.7-3.453,3.943,3.943,0,0,0-4.2,3.952c0,5.477,10.612,2.3,10.612,10.427,0,4.137-3.331,6.782-7.283,6.782a13.109,13.109,0,0,1-6.069-1.212V71.566Z" transform="translate(-62.058 -11.264)" fill="#11377d"/>
      <path id="Path_566" data-name="Path 566" d="M334.61,54.176c1.122,0,2.238.122,3.392.122,1.12,0,2.273-.122,3.392-.122v.682c-1.4.189-1.742,1.122-1.742,3.114,0,2.954-.032,5.911-.032,8.867,0,4.169,1.927,7.127,6.566,7.127,2.521,0,5.727-1.461,5.727-4.98V65.317c0-3.673-.282-7.344-.282-8.9a1.731,1.731,0,0,0-1.587-1.557v-.682c1.12,0,2.242.122,3.361.122s2.272-.122,3.393-.122v.682c-1.026.032-1.465,1.246-1.465,2.3,0,1.182-.089,4.42-.089,8.526v6.784c0,1.744.338,2.645,1.71,2.737V75.9c-.869,0-1.774-.125-2.644-.125s-1.743.125-2.619.125c.065-1.058.16-2.024.221-2.957-2.274,2.118-4.2,3.329-7.374,3.329-4.607,0-8.248-2.645-8.248-7.314v-5.2c0-2.429-.157-4.574-.157-6.505,0-1.213-.217-2.208-1.524-2.4v-.682Z" transform="translate(-70.614 -11.364)" fill="#11377d"/>
      <path id="Path_567" data-name="Path 567" d="M371.02,75.11c1.211-.307,1.928-1.243,1.928-2.985l.092-18.422h1.307l15.218,16.743V59.738c0-3.858-.84-4.761-2.335-4.98v-.682c1.027,0,2.058.122,3.084.122s2.08-.122,3.11-.122v.682c-1.371.25-2.055,1.34-2.055,3.86l-.093,17.551h-1.058L374.754,59.335l.121,11.858c.032,2.424.78,3.546,2.272,3.916V75.8c-1.026,0-2.051-.125-3.081-.125s-2.022.125-3.047.125V75.11Z" transform="translate(-78.298 -11.264)" fill="#11377d"/>
      <path id="Path_568" data-name="Path 568" d="M414.581,54.858c-1.151.189-1.275,1-1.275,2.087,0,3.017-.125,6.69-.125,9.989v6.037c0,1.027.342,2.21,1.528,2.238V75.9c-1.062,0-2.148-.125-3.206-.125-1.09,0-2.148.125-3.207.125V75.21c1-.028,1.557-.9,1.557-2.238V68.489c0-3.734-.279-9.211-.279-11.17,0-1.277-.125-2.3-1.4-2.461v-.682c1.052,0,2.113.122,3.2.122,1.06,0,2.146-.122,3.2-.122v.682Z" transform="translate(-86.139 -11.364)" fill="#11377d"/>
      <path id="Path_569" data-name="Path 569" d="M433.081,76.269l-8.587-18.889a4.584,4.584,0,0,0-2.244-2.522v-.682c1.185,0,2.368.122,3.548.122,1.154,0,2.337-.122,3.516-.122v.682c-.588.127-1.151.406-1.151,1.122a5.526,5.526,0,0,0,.563,1.93l5.694,13.6,4.852-12.7a5.728,5.728,0,0,0,.437-2.056c0-1.214-.4-1.71-1.62-1.9v-.682c1.059,0,2.118.122,3.176.122s2.114-.122,3.174-.122v.682c-1.276.189-1.991,1.246-2.615,2.8l-7.375,18.61Z" transform="translate(-89.109 -11.364)" fill="#11377d"/>
      <path id="Path_570" data-name="Path 570" d="M455.785,74.988a1.8,1.8,0,0,0,1.8-1.9V67.829c0-4.231-.25-8.681-.25-11.451,0-.779-.594-1.307-1.553-1.493V54.2h12.29a8.771,8.771,0,0,0,2.456-.5c0,.809-.122,1.555-.122,2.335s.122,1.523.122,2.3h-1.18c-.529-1.492-1.276-2.644-2.989-2.644h-5.447V63.97h4.7c1.8,0,2.395-.154,3.142-1.68h.994c0,.9-.125,1.806-.125,2.709,0,.933.125,1.836.125,2.739H468.7c-.684-2.148-1.276-2.273-3.079-2.273h-4.7v8.713h5.294c2.3,0,3.142-.372,4.543-2.332l.966.5-1.094,3.828a7.924,7.924,0,0,0-2.921-.5H455.785v-.683Z" transform="translate(-96.186 -11.264)" fill="#11377d"/>
      <path id="Path_571" data-name="Path 571" d="M489.257,65.5c.464.03.837.093,1.212.093,2.861,0,5.32-1.93,5.32-4.886,0-2.863-1.3-5.415-4.7-5.415-.813,0-1.685.094-1.685.872l-.15,9.337Zm-4.888,9.707c1.057-.249,1.553-.747,1.553-1.8v-8c0-2.677-.153-5.353-.153-8,0-1.463-.158-2.24-1.74-2.553v-.682c.994,0,2.021.122,3.015.122.933,0,1.866-.122,4.2-.122,5.6,0,8.339,2.8,8.339,6.159,0,3.146-2.866,5.168-5.635,5.849l6.287,7.285a5.328,5.328,0,0,0,2.365,1.74V75.9c-1.026,0-2.084-.125-3.113-.125s-2.054.125-3.079.125V75.21c.217-.028.309-.152.344-.371a1.473,1.473,0,0,0-.469-1l-5.166-6.035c-.467-.533-1.12-1.341-1.864-1.341v6.163c0,1.307.15,2.24,1.739,2.581V75.9c-1.119,0-2.206-.125-3.327-.125s-2.182.125-3.3.125V75.21Z" transform="translate(-102.146 -11.364)" fill="#11377d"/>
      <path id="Path_572" data-name="Path 572" d="M513.3,71.566h1.184c.838,2.365,2.771,3.295,5.1,3.295a4.025,4.025,0,0,0,4.048-3.887c0-6.567-10.608-2.52-10.608-10.954,0-4.015,3.514-6.317,7.187-6.317a12.014,12.014,0,0,1,5.538,1.43l.314,3.329h-1.123a4.914,4.914,0,0,0-4.7-3.453,3.942,3.942,0,0,0-4.2,3.952c0,5.477,10.612,2.3,10.612,10.427,0,4.137-3.329,6.782-7.284,6.782a13.11,13.11,0,0,1-6.068-1.212V71.566Z" transform="translate(-108.264 -11.264)" fill="#11377d"/>
      <path id="Path_573" data-name="Path 573" d="M545.891,54.858c-1.152.189-1.275,1-1.275,2.087,0,3.017-.125,6.69-.125,9.989v6.037c0,1.027.342,2.21,1.524,2.238V75.9c-1.058,0-2.148-.125-3.2-.125-1.09,0-2.148.125-3.206.125V75.21c1-.028,1.557-.9,1.557-2.238V68.489c0-3.734-.279-9.211-.279-11.17,0-1.277-.127-2.3-1.4-2.461v-.682c1.059,0,2.116.122,3.2.122,1.06,0,2.148-.122,3.206-.122Z" transform="translate(-113.848 -11.364)" fill="#11377d"/>
      <path id="Path_574" data-name="Path 574" d="M573.565,58.089h-1.18c-.313-1.838-1.248-2.4-3.019-2.4h-3.923c0,2.676-.157,6.1-.157,9.834v6.627c0,1.929.592,2.521,1.959,2.955V75.8c-1.211,0-2.393-.125-3.576-.125s-2.366.125-3.581.125V75.11c1.436-.463,1.867-1.147,1.867-2.955V67.27c0-4.482-.245-8.9-.306-11.577h-4.205c-1.771,0-2.707.559-3.018,2.4h-1.18V53.7a14.164,14.164,0,0,0,3.609.5h13.756a9.047,9.047,0,0,0,2.954-.5Z" transform="translate(-116.754 -11.264)" fill="#11377d"/>
      <path id="Path_575" data-name="Path 575" d="M584.045,74.988a1.8,1.8,0,0,0,1.806-1.9V67.829c0-4.231-.245-8.681-.245-11.451,0-.779-.593-1.307-1.561-1.493V54.2h12.293a8.8,8.8,0,0,0,2.458-.5c0,.809-.121,1.555-.121,2.335s.121,1.523.121,2.3h-1.183c-.525-1.492-1.275-2.644-2.985-2.644h-5.444V63.97h4.7c1.8,0,2.391-.154,3.139-1.68h1c0,.9-.124,1.806-.124,2.709,0,.933.124,1.836.124,2.739h-1.054c-.69-2.148-1.279-2.273-3.082-2.273h-4.7v8.713h5.285c2.305,0,3.144-.372,4.545-2.332l.969.5-1.094,3.828a7.927,7.927,0,0,0-2.925-.5H584.045Z" transform="translate(-123.253 -11.264)" fill="#11377d"/>
      <path id="Path_576" data-name="Path 576" d="M629.535,58.089h-1.18c-.314-1.838-1.244-2.4-3.019-2.4h-3.921c0,2.676-.157,6.1-.157,9.834v6.627c0,1.929.592,2.521,1.96,2.955V75.8c-1.212,0-2.4-.125-3.578-.125s-2.365.125-3.576.125V75.11c1.431-.463,1.867-1.147,1.867-2.955V67.27c0-4.482-.249-8.9-.311-11.577h-4.2c-1.778,0-2.712.559-3.017,2.4h-1.187V53.7a14.228,14.228,0,0,0,3.612.5h13.756a9.034,9.034,0,0,0,2.953-.5v4.387Z" transform="translate(-128.564 -11.264)" fill="#11377d"/>
    </g>
  </g>
</svg>
