<svg xmlns="http://www.w3.org/2000/svg" xmlns:xlink="http://www.w3.org/1999/xlink" width="600" height="300" viewBox="0 0 600 300">
  <defs>
    <clipPath id="clip-Logo">
      <rect width="600" height="300"/>
    </clipPath>
  </defs>
  <g id="Logo" clip-path="url(#clip-Logo)">
    <rect width="600" height="300" fill="#e8eff3"/>
    <g id="c" transform="translate(100 97)">
      <g id="Group_62" data-name="Group 62" transform="translate(0 0)">
        <g id="Group_60" data-name="Group 60" transform="translate(0 0)">
          <path id="Path_677" data-name="Path 677" d="M299.786,11.97h0A49.629,49.629,0,0,0,263.27,27.935L285.516,50.18a16.356,16.356,0,0,1,0,23.13L263.27,95.556a49.639,49.639,0,0,0,36.516,15.965h0a49.775,49.775,0,0,0,49.775-49.775h0A49.775,49.775,0,0,0,299.786,11.97Z" transform="translate(-183.502 -8.343)" fill="#0f0035"/>
          <path id="Path_678" data-name="Path 678" d="M66.51,53.4A49.58,49.58,0,0,1,79.768,19.591l-14.8-14.8a16.356,16.356,0,0,0-23.13,0L4.79,41.837a16.356,16.356,0,0,0,0,23.13l37.047,37.047a16.356,16.356,0,0,0,23.13,0l14.8-14.8A49.594,49.594,0,0,1,66.51,53.4Z" transform="translate(0 0)" fill="#0f0035"/>
        </g>
        <g id="Group_61" data-name="Group 61" transform="translate(199.283 7.844)">
          <path id="Path_679" data-name="Path 679" d="M657.72,89.139h11.2c1.26,13.6,10.574,20.27,22.661,20.27,11.2,0,19.137-5.79,19.137-14.48,0-23.667-50.357-11.077-50.357-42.428,0-14.1,12.214-23.291,28.957-23.291,18,0,29.333,9.441,31.475,25.182H709.465c-1.763-9.7-9.317-15.234-20.143-15.234s-17.374,5.036-17.374,12.968c0,20.394,50.357,8.057,50.357,42.176,0,15.107-12.841,25.054-30.717,25.054s-32.356-10.45-33.865-30.214Z" transform="translate(-657.72 -28.204)" fill="#0f0035"/>
          <path id="Path_680" data-name="Path 680" d="M914.322,25.89a7.182,7.182,0,1,1,0,14.356,6.978,6.978,0,0,1-7.3-7.178A7.05,7.05,0,0,1,914.322,25.89Zm-5.287,26.69h10.829v63.452H909.035Z" transform="translate(-831.484 -25.89)" fill="#0f0035"/>
          <path id="Path_681" data-name="Path 681" d="M1025.223,86.5l-9.314,8.559v23.291H1005.08V29.22h10.829V81.089L1045.493,54.9h14.477l-26.69,24.3,28.957,39.152h-12.965L1025.223,86.5Z" transform="translate(-899.833 -28.211)" fill="#0f0035"/>
          <path id="Path_682" data-name="Path 682" d="M1205.369,121.6V85.844H1194.54V76.906h10.829V60.79h10.7V76.906h16.116v8.938h-16.116v34.874c0,7.429,3.778,11.077,9.317,11.077a22.649,22.649,0,0,0,7.178-1.257v9.19a20.584,20.584,0,0,1-8.435,1.636c-10.826,0-18.758-6.8-18.758-19.767Z" transform="translate(-1031.888 -50.216)" fill="#0f0035"/>
        </g>
      </g>
    </g>
  </g>
</svg>
