<svg xmlns="http://www.w3.org/2000/svg" xmlns:xlink="http://www.w3.org/1999/xlink" width="600" height="300" viewBox="0 0 600 300">
  <defs>
    <clipPath id="clip-Logo">
      <rect width="600" height="300"/>
    </clipPath>
  </defs>
  <g id="Logo" clip-path="url(#clip-Logo)">
    <rect width="600" height="300" fill="#e8eff3"/>
    <g id="Group_33" transform="translate(-237.756 -133.168)">
      <g id="Group_27" transform="translate(338.128 222.5)">
        <path id="Path_1187" d="M299.011,235.113c.093.093.093.187-.093.28a21.514,21.514,0,0,0-1.306,1.773c-.093.093-.093-.093-.093-.187a2.443,2.443,0,0,0-.746-2.8,1.825,1.825,0,0,0-2.612.373h0c-.653.933-.653,1.772,0,4.291s.373,3.452-.56,4.571a3.55,3.55,0,0,1-4.664.28c-1.866-1.306-1.866-1.586-2.146-1.679q-.28-.14,0-.56c.28-.373,1.4-1.866,1.586-2.146.093-.187.187,0,0,.28a2.478,2.478,0,0,0,.746,3.172,2.032,2.032,0,0,0,2.8-.093c0-.093.093-.093.093-.187.56-.653.84-1.306.093-4.2-.84-3.079-.28-4.1.933-5.038a3.234,3.234,0,0,1,4.1,0,8.053,8.053,0,0,1,1.306,1.213c.187.187.187.28.28.373C299.011,235.113,299.011,235.02,299.011,235.113Z" transform="translate(-200.367 -223.172)"/>
        <path id="Path_1188" d="M195.823,272.795c0-.093.187-.093.28,0a14.483,14.483,0,0,0,1.959.373c.373,0-.187.28-.373.28a2.2,2.2,0,0,0-1.773,1.866,1.637,1.637,0,0,0,1.026,2.052h.093c1.306.28,2.052-.28,4.011-1.866a4.917,4.917,0,0,1,4.664-1.493,3.371,3.371,0,0,1,2.146,3.918,7.917,7.917,0,0,1-1.026,2.426c-.093.187-.187.28-.56.187-.466-.093-2.052-.373-2.332-.373-.56-.093-.28-.28,0-.28.84-.093,2.612-.373,2.985-2.146a1.729,1.729,0,0,0-1.213-2.146h-.187c-.84-.187-1.679-.187-4.011,1.773-2.519,2.052-3.545,2.052-4.944,1.493a3,3,0,0,1-1.679-3.638,8.354,8.354,0,0,1,.746-2.146C195.823,273.075,195.823,272.888,195.823,272.795Z" transform="translate(-194.2 -225.87)"/>
        <path id="Path_1189" d="M277.964,350.111c-.187,0-.187-.187-.187-.28,0,0-.466-1.493-.466-1.586s.093-.187.187-.093a2.6,2.6,0,0,0,2.519.84,1.9,1.9,0,0,0,1.4-2.239c-.373-1.12-1.4-1.586-3.732-2.612-2.052-.933-2.8-1.959-2.985-3.079a3.821,3.821,0,0,1,2.705-4.011c1.772-.56,2.146-.466,2.519-.653.28-.187.28.373.373.466.187.466.653,1.866.746,2.146s-.093.373-.187.093a2.7,2.7,0,0,0-2.985-1.306,1.892,1.892,0,0,0-1.586,2.332c.28.84.373,1.493,3.265,2.705,2.8,1.213,3.358,2.426,3.452,3.825a3.476,3.476,0,0,1-2.8,3.172,7.2,7.2,0,0,1-1.4.187,4.039,4.039,0,0,0-.466.093C278.057,350.018,278.057,350.111,277.964,350.111Z" transform="translate(-199.564 -230.14)"/>
        <path id="Path_1190" d="M301.032,238.65a7.71,7.71,0,0,0,1.213-.653.449.449,0,0,1,.56.187l3.172,3.172c.653.746,2.892,2.8,3.172,3.079s.56.466.28.653-.933.56-1.12.653-.093,0-.093-.187-.187-.56-.746-1.213l-1.493-1.493a.175.175,0,0,0-.28,0c-.187.187-2.705,2.705-3.172,3.265a32.392,32.392,0,0,0-3.825,4.2,1.042,1.042,0,0,0,.093.746c.093.093.187.56,0,.373s-1.213-1.306-1.4-1.493c-.28-.187-1.213-1.119-1.4-1.213-.187-.187,0-.187.187-.093a1.189,1.189,0,0,0,1.12,0,36.194,36.194,0,0,0,3.918-3.638c.373-.373,3.079-3.172,3.172-3.265s.187-.187,0-.373a22.306,22.306,0,0,0-2.146-2.052,1.059,1.059,0,0,0-.746-.28C301.125,238.837,300.846,238.837,301.032,238.65Z" transform="translate(-200.989 -223.537)"/>
        <path id="Path_1191" d="M202.212,259.691c-.28-.28-.84-.746-1.119-1.026-.187-.093-.093-.28.093-.466.093-.093,1.866-3.358,2.239-4.011.56-.84,2.146-3.545,2.332-3.825.187-.373.373-.653.56-.466a8.409,8.409,0,0,1,.84.933c.187.187.093.093-.187.093s-.466.466-.933,1.213a15.1,15.1,0,0,0-.933,1.679c-.093.187,0,.28.187.373s3.172,1.959,3.825,2.332a25.424,25.424,0,0,0,5.038,2.519c.56,0,.56-.093.653-.187.187-.093.466-.187.28,0a9.243,9.243,0,0,0-1.026,1.586c-.28.466-.84,1.493-.933,1.679s-.093-.093-.093-.373.187-.56-.187-.84c-.746-.56-4.1-2.519-4.571-2.892-.466-.28-3.825-2.146-4.011-2.239s-.28-.28-.466,0a16.964,16.964,0,0,0-1.493,2.892.8.8,0,0,0,0,.653C202.305,259.691,202.305,259.784,202.212,259.691Z" transform="translate(-194.619 -224.334)"/>
        <path id="Path_1192" d="M218.449,238.564a8.53,8.53,0,0,0-.653-1.306c-.093-.187-.093-.187.187-.466.093-.093,3.079-2.332,3.638-2.705.84-.653,3.545-2.426,3.825-2.705s.653-.373.84-.093a11.316,11.316,0,0,1,.466,1.306c.093.28,0,.093-.28-.093-.187-.187-.466-.093-1.213.373s-1.866,1.213-1.959,1.306c-.187.093-.093.093-.093.28.187.373,2.146,3.172,2.705,3.918a57.078,57.078,0,0,0,3.638,4.665.8.8,0,0,0,.653,0c.187,0,.373,0,.093.187a12.156,12.156,0,0,0-1.4.933,12.536,12.536,0,0,0-1.306,1.026c-.28.28-.187,0-.093-.187s.28-.28,0-.746a32.316,32.316,0,0,0-2.892-4.385c-.28-.466-2.892-3.918-3.079-4.1-.093-.093-.093-.187-.373,0-.187.187-2.239,1.679-2.519,1.959-.187.187-.373.28-.373.56C218.542,238.378,218.542,238.751,218.449,238.564Z" transform="translate(-195.743 -223.078)"/>
        <path id="Path_1193" d="M314.8,251.367a6.5,6.5,0,0,1-.093,9.236l-.373.373a6.439,6.439,0,0,1-8.676-9.516,6.449,6.449,0,0,1,9.049-.187Zm-7.556,1.586a4.943,4.943,0,0,0-1.119,6.9.091.091,0,0,0,.093.093,5.018,5.018,0,0,0,7-.84,5.078,5.078,0,0,0,.933-7.183c-.093-.093-.093-.187-.187-.28-1.213-1.026-4.011-1.4-6.717,1.306Z" transform="translate(-201.506 -224.312)"/>
        <path id="Path_1194" d="M318.685,316.988a6.5,6.5,0,0,1-8.21,4.011c-.187-.093-.466-.187-.653-.28a6.67,6.67,0,0,1-3.545-8.023,6.361,6.361,0,0,1,8.209-3.825A6.5,6.5,0,0,1,318.685,316.988Zm-4.851-6.25a4.776,4.776,0,0,0-6.53,1.866c-.093.093-.093.187-.187.28-.56,1.679.093,4.291,3.825,5.691,3.638,1.4,6.344,0,7-2.426C318.219,315.215,318.312,312.323,313.834,310.737Z" transform="translate(-201.663 -228.269)"/>
        <path id="Path_1195" d="M314.216,276.509a10.279,10.279,0,0,1-1.679-.187c-.373-.093-.466-.093-.56-.28A7.923,7.923,0,0,1,310.3,271.1a6.428,6.428,0,0,1,11.568-4.385,8.246,8.246,0,0,1,1.493,4.385c.093.933.187,1.493.187,1.772.093.466.093.653.187.746s-.093.28-.28.28a8.7,8.7,0,0,0-1.306.187,5.8,5.8,0,0,0-.933.28c-.373.093-.373,0-.093-.28a2.819,2.819,0,0,0,1.306-1.772,5.757,5.757,0,0,0-1.306-4.851,5.132,5.132,0,0,0-5.971-1.026,5.641,5.641,0,0,0-3.732,5.318,4.4,4.4,0,0,0,2.705,4.291C314.5,276.416,314.776,276.509,314.216,276.509Z" transform="translate(-201.952 -225.293)"/>
        <path id="Path_1196" d="M324.721,279.06c0,.466.187,2.705.28,3.079.093.466-.093.28-.187.093a.621.621,0,0,0-.653-.466,50.924,50.924,0,0,0-5.318.373,44.591,44.591,0,0,0,4.664,3.638,3.072,3.072,0,0,0,1.213.653c.093,0,.093.093.093-.093.093-.187.28-.84.28.093v1.12c0,.187.093.653.093.746.093.56,0,.466-.373-.093a11.814,11.814,0,0,0-2.332-1.959c-.466-.28-3.172-2.426-3.172-2.426s-4.011,3.732-4.758,4.571a11.18,11.18,0,0,0-1.586,1.959c-.093.28-.28.466-.187.187,0-.187.187-1.306.187-1.773,0-.373.093-1.679.093-1.866,0-.28.093-.093.28,0a9.468,9.468,0,0,0,2.519-2.239c.933-.933,2.519-2.612,2.612-2.8-1.306.093-2.612.28-3.825.466a4.128,4.128,0,0,0-1.4.466.513.513,0,0,0-.28.466c0,.187-.187.28-.187,0,0-.187-.093-1.306-.093-1.772,0-.373-.187-1.306-.187-1.493s.093-.28.187-.093a.728.728,0,0,0,.373.373c.466.187,1.026.187,5.411-.373a30.915,30.915,0,0,0,5.131-.746c.466-.093.746-.28.84-.653C324.534,278.78,324.721,278.313,324.721,279.06Z" transform="translate(-202.102 -226.258)"/>
        <path id="Path_1197" d="M324.672,295.058a28.564,28.564,0,0,0-.466,2.985c0,.466-.187.466-.28.187a.63.63,0,0,0-.373-.56,8.068,8.068,0,0,0-2.146-.56c-1.493-.28-2.519-.373-2.519-.373s-.466,1.959-.746,3.172c-.373,1.493-.653,3.545-.653,3.545l2.892.84c.746.187,1.959.746,2.332.093.28-.466.466-.373.187.093-.093.187-.653,2.239-.746,2.705-.187.746-.28.28-.187.093,0-.187.187-.466-.466-.746s-2.985-1.026-4.944-1.586a25,25,0,0,0-5.224-1.213.7.7,0,0,0-.653.28c-.187.187-.466.28-.187-.093a15.955,15.955,0,0,0,.84-2.8c.093-.933.28-.28.28-.093a.785.785,0,0,0,.373.653,27.158,27.158,0,0,0,4.664,1.493s.466-1.866.746-3.265c.373-1.679.653-3.358.653-3.358s-.933-.187-1.586-.28a20.577,20.577,0,0,0-3.452-.373.956.956,0,0,0-.56.466c-.093.187-.373.466-.187-.093a14.465,14.465,0,0,0,.373-2.705c0-.746.28-.466.28-.187,0,.187.187.373.373.56a32.348,32.348,0,0,0,5.224,1.026,28.479,28.479,0,0,0,5.6.56c.466-.187.373-.28.466-.466C324.485,294.778,324.765,294.5,324.672,295.058Z" transform="translate(-201.959 -227.236)"/>
        <path id="Path_1198" d="M311.693,327.3a24.463,24.463,0,0,0-2.052,2.332c-.28.466-.28.093-.187-.093.187-.28.093-.373-.093-.653a31.049,31.049,0,0,0-3.638-3.358,23.612,23.612,0,0,0-4.2-3.172c-.28,0-.466,0-1.026.466a11.815,11.815,0,0,0-1.959,2.332,2.873,2.873,0,0,0-.28,1.213c0,.28-.093.28-.187,0a10.848,10.848,0,0,1-.373-1.679.713.713,0,0,1,.187-.466c.28-.373,2.892-3.265,3.265-3.638a9.418,9.418,0,0,0,1.213-1.493c.28-.373.28-.093.28.093a.907.907,0,0,0-.093.84,19.137,19.137,0,0,0,4.1,3.638,25.519,25.519,0,0,0,4.478,3.358c.187,0,.466,0,.56-.187C311.787,326.923,312.067,327.016,311.693,327.3Z" transform="translate(-201.108 -228.969)"/>
        <path id="Path_1199" d="M295.02,327.717a47.762,47.762,0,0,0,2.8,4.851c1.4,2.332,2.985,4.851,3.172,5.224.373.746.466.933-.28.56-1.026-.56-5.224-2.612-5.877-2.985s-4.1-2.052-4.1-2.052.746,5.6.84,5.877.653,4.944.653,5.224,0,.56-.373.187-7-8.769-7.37-9.142a1.936,1.936,0,0,0-.933-.56h-.56c-.187.093-.28-.093-.093-.187.28-.093,2.612-1.306,2.892-1.493.187-.093.373,0,.093.187s-.373.28-.28.56c.187.653,4.944,6.53,4.944,6.53s-.84-5.318-.933-5.971c-.187-.653-.56-3.825-.56-3.825s0-.187.187-.093,4.851,2.519,5.318,2.705c.466.28,3.452,1.679,3.452,1.679s-2.612-4.291-3.732-5.971a1.294,1.294,0,0,0-.746-.653c-.373-.093-.466.093-.653.187-.093.093-.28-.093.093-.28.373-.28.746-.466,1.12-.746a11.232,11.232,0,0,0,1.026-.933c.093-.093.28,0,.187.187A.626.626,0,0,0,295.02,327.717Z" transform="translate(-200.108 -229.483)"/>
        <path id="Path_1200" d="M264.38,344.9c0,.187,0,2.8.093,3.079,0,.187-.093.093-.187-.187a.841.841,0,0,0-.56-.56,15,15,0,0,0-2.892-.093,10.25,10.25,0,0,0,.28,3.358c.28.28.373.28.466.28s.466.187.28.187h-3.172c-.373,0-.187-.093.093-.187a.818.818,0,0,0,.56-.653c.093-1.026.093-2.052.093-2.985a17.059,17.059,0,0,0-3.079.187.785.785,0,0,0-.373.653c0,.187-.28.373-.187.093a14.026,14.026,0,0,0,0-2.8c-.093-.373,0-.28.187-.093.187.28.093.466.373.56a16.99,16.99,0,0,0,3.079.093s0-2.519-.093-2.892a.793.793,0,0,0-.653-.653c-.187,0-.373-.187-.093-.187a15.948,15.948,0,0,0,2.985,0c.28,0,.093.187-.093.187a.922.922,0,0,0-.653.653c-.093.373-.093,2.892-.093,2.892s2.332,0,2.8-.093a.922.922,0,0,0,.653-.653C264.287,344.9,264.473,344.712,264.38,344.9Z" transform="translate(-198.294 -230.525)"/>
        <path id="Path_1201" d="M241.228,350.545a15.181,15.181,0,0,0-3.452-1.213c-.373-.093,0-.187.187-.187.28,0,.56.093.84-.187a40.567,40.567,0,0,0,3.172-7.836,3.137,3.137,0,0,0-1.866-4.1.561.561,0,0,0-.373-.093c-2.705-.933-3.732.466-5.224,3.265-1.026,1.959-1.959,3.918-2.8,5.971a.665.665,0,0,0,.28.56c.28.187.373.466.187.373a17.414,17.414,0,0,0-2.985-1.4c-.187-.093-.093-.187.28-.187.28.093.373,0,.56-.187,1.4-2.239,2.705-4.571,3.918-6.9a5.07,5.07,0,0,1,3.358-2.519A6.358,6.358,0,0,1,243,338.417a4.779,4.779,0,0,1,.56,4.2c-.28,1.119-2.705,6.53-2.705,7.277a.513.513,0,0,0,.28.466C241.414,350.452,241.508,350.638,241.228,350.545Z" transform="translate(-196.505 -230.108)"/>
        <path id="Path_1202" d="M223.315,342.54s-.466-5.5-.653-7.37c-.187-2.239-.746-6.437-.746-6.437s-4.291,4.664-4.851,5.224-1.119,1.12-1.119,1.493a.665.665,0,0,0,.28.56c.093.093.187.466,0,.373a7.456,7.456,0,0,0-1.213-1.213,9.881,9.881,0,0,0-1.119-.933c-.28-.187.093-.187.187-.093a.617.617,0,0,0,.56.093,44.033,44.033,0,0,0,4.665-4.664c1.119-1.213,3.732-4.011,4.011-4.385.187-.28.187-.187.187.093,0,.373.466,5.971.56,6.624.093.56.373,4.385.373,4.851s.187,1.866.187,1.866,1.959-2.8,2.612-3.825a15.426,15.426,0,0,0,2.052-3.358.98.98,0,0,0-.466-.84c-.093-.093-.187-.28,0-.187a17.469,17.469,0,0,0,2.705,1.866c.373.187-.187.093-.28,0a1.294,1.294,0,0,0-.84,0,54.654,54.654,0,0,0-3.452,4.664c-.466.746-1.959,2.8-2.332,3.358s-1.119,1.773-1.306,2.052C223.408,342.913,223.315,342.913,223.315,342.54Z" transform="translate(-195.478 -229.379)"/>
        <path id="Path_1203" d="M217.4,319.293a14.231,14.231,0,0,0,1.026,1.493,8.054,8.054,0,0,0,1.213,1.306c.28.187-.093.187-.28,0s-.466-.28-1.119.093c-.84.466-7.836,6.344-8.116,6.717-.373.373-.28.56-.187.933.093.28,0,.466-.093.28a19.528,19.528,0,0,0-2.052-2.612c-.28-.187,0-.187.187-.093a.424.424,0,0,0,.466,0,93.155,93.155,0,0,0,8.863-7.183.575.575,0,0,0-.093-.653C217.214,319.386,217.214,319.013,217.4,319.293Z" transform="translate(-195.067 -228.988)"/>
        <path id="Path_1204" d="M210.566,267.653a22.273,22.273,0,0,0-1.4,3.452c-.093.28-.187,0-.187-.28.093-.373.093-.56-.466-1.026a75.463,75.463,0,0,0-9.982-3.732.625.625,0,0,0-.653.373c-.093.187-.373.28-.28,0a22.274,22.274,0,0,0,1.4-3.452c.093-.373.187,0,.187.187a.726.726,0,0,0,.187.746,61.843,61.843,0,0,0,10.448,4.011c.466-.093.373-.187.56-.373C210.473,267.466,210.846,267.373,210.566,267.653Z" transform="translate(-194.39 -225.206)"/>
        <path id="Path_1205" d="M207.572,316.954l2.705-3.545s-4.664.28-5.691.373-3.918.187-4.2.653c-.187.28,0,.653,0,.746,0,.187,0,.56-.093.28a15.333,15.333,0,0,0-.746-1.772c-.28-.56-.56-1.306-.653-1.4-.187-.187.093-.187.28,0a.944.944,0,0,0,.653.373,41.2,41.2,0,0,0,5.877-.093c.84,0,7-.466,7.556-.373.28,0,.56-.093.187.373-.187.28-3.918,5.131-4.2,5.5a56.32,56.32,0,0,0-3.825,5.411v.746c0,.187,0,.746-.093.56a24.883,24.883,0,0,0-2.052-3.358c-.28-.373.093-.093.28,0a.617.617,0,0,0,.56-.093C205.333,319.846,206.545,318.447,207.572,316.954Z" transform="translate(-194.474 -228.516)"/>
        <path id="Path_1206" d="M207.743,298.306c.187.466.746,2.705,1.026,3.732.093.373.746,2.612.933,2.985.093.187-.28-.093-.373-.28,0-.187-.093-.28-.28-.373a.561.561,0,0,0-.373-.093,35.7,35.7,0,0,0-5.411,1.493,26.041,26.041,0,0,0-5.131,1.866.726.726,0,0,0-.187.746c0,.187-.093.84-.187.373a16.251,16.251,0,0,0-.466-2.052c-.28-.933-1.306-4.758-1.4-4.944s-.093-.28.093-.373l1.4-.56c.373-.187.187.093,0,.28s-.28.28-.28.84a22.558,22.558,0,0,0,.933,3.358s1.586-.373,2.052-.56,2.239-.653,2.239-.653a18,18,0,0,0-1.026-3.172c-.28-.373-.373-.28-.653-.28-.187,0-.466-.093-.28-.187a13.032,13.032,0,0,0,2.705-.84c.28-.187,0,.187-.187.28a.625.625,0,0,0-.373.653,10.846,10.846,0,0,0,.373,1.679l.466,1.4s2.892-.84,3.358-1.026.84-.187.746-1.213a10.241,10.241,0,0,0-1.026-3.265,2.514,2.514,0,0,0-.653-.746c-.093-.093-.466-.373-.28-.373a16.831,16.831,0,0,1,1.959.746A1.518,1.518,0,0,0,207.743,298.306Z" transform="translate(-194.273 -227.499)"/>
        <path id="Path_1207" d="M222.586,249.685c-.373.373-2.892,3.079-3.545,3.825a8.4,8.4,0,0,0-.933,1.119c-.093.187-.187-.187-.093-.373a.575.575,0,0,0,.093-.653,30.47,30.47,0,0,0-4.385-4.1,23.391,23.391,0,0,0-4.1-3.265.991.991,0,0,0-.746.093c-.187.093-.56.28-.28,0s.653-.746,1.306-1.4c.653-.746,3.358-3.452,3.452-3.638s.187-.187.373-.093a12.2,12.2,0,0,0,1.119,1.026c.373.28,0,.187-.187.187-.187-.093-.28-.093-.746.187a27.508,27.508,0,0,0-2.332,2.332l3.172,2.985s2.239-2.052,2.239-2.519a1.183,1.183,0,0,0-.093-.56c-.093-.187,0-.466.093-.28a9.99,9.99,0,0,0,1.772,1.679c.28.187-.093.187-.187.093-.28-.093-.28-.28-.746-.093a26.44,26.44,0,0,0-2.239,2.332s2.239,1.959,2.705,2.239c.56.373.933.466,1.493,0a10.552,10.552,0,0,0,2.146-2.426,3.354,3.354,0,0,0,.187-1.026c0-.187.093-.466.187-.28,0,.187.466,1.586.56,1.866C222.866,249.405,222.773,249.405,222.586,249.685Z" transform="translate(-195.122 -223.75)"/>
        <path id="Path_1208" d="M206.7,291.267c0,.28.093,1.586.187,2.146.093.28-.187-.093-.187-.28a.62.62,0,0,0-.373-.466,25.374,25.374,0,0,0-5.318.187,32.862,32.862,0,0,0-5.971.84,1.14,1.14,0,0,0-.28.84c0,.187-.28.746-.28.28a11.894,11.894,0,0,0-.093-1.772,20.483,20.483,0,0,1-.187-4.1,3.23,3.23,0,0,1,6.157-.746,2.2,2.2,0,0,1,.84-.746,32.06,32.06,0,0,0,5.131-3.638,1.317,1.317,0,0,0,.093-.84c0-.466.093-.84.28,0a3.893,3.893,0,0,1-.373,2.705,16.971,16.971,0,0,1-3.545,2.705c-.56.373-1.773,1.12-1.773,1.773a4.542,4.542,0,0,0,.093,1.119s1.866-.187,2.332-.28a8.667,8.667,0,0,0,2.705-.466.449.449,0,0,0,.187-.56c0-.187.28-.746.28,0A6.161,6.161,0,0,1,206.7,291.267Zm-7.463-2.985a2.933,2.933,0,0,0-3.918.746,6.109,6.109,0,0,0-.28,2.612l2.612-.187c.373,0,2.705-.187,2.705-.187s.373-2.146-1.119-2.985Z" transform="translate(-194.161 -226.524)"/>
        <path id="Path_1209" d="M256.189,246.743a10.766,10.766,0,0,1-2.519-6.81,7.234,7.234,0,0,1,1.679-4.291L256,234.9a8.186,8.186,0,0,0,2.426-5.784,11.82,11.82,0,0,0-.466-4.011,17.089,17.089,0,0,1-6.157,11.008c-1.493,1.306-4.1,3.545-4.1,6.344a14.047,14.047,0,0,0,3.452,8.4,12.929,12.929,0,0,1-.933-4.944,14.493,14.493,0,0,1,.373-3.452l.093-.187.093.187A9.8,9.8,0,0,0,256.189,246.743Z" transform="translate(-197.753 -222.674)"/>
        <path id="Path_1210" d="M257.7,234.761c1.306-.56,6.157-2.612,6.157-5.971a9.229,9.229,0,0,0-2.612-5.691A10.6,10.6,0,0,1,257.7,234.761Z" transform="translate(-198.424 -222.54)"/>
        <path id="Path_1211" d="M275.68,228.385a17.94,17.94,0,0,1-6.25,3.825l-.093-.093A14.861,14.861,0,0,0,272.881,224c-3.825,5.971-6.157,7-8.769,8.21l-1.213.56c-3.172,1.493-6.9,3.732-6.9,7.09a9.241,9.241,0,0,0,2.052,6.9,11.057,11.057,0,0,1-.466-2.985,7.77,7.77,0,0,1,.28-2.052l.093-.28v.28a10.831,10.831,0,0,0,4.011,5.318,9.594,9.594,0,0,1-.093-1.586c0-2.519.56-7,4.478-8.676C273.441,233.609,275.214,229.691,275.68,228.385Z" transform="translate(-198.306 -222.601)"/>
        <path id="Path_1212" d="M270.3,243.09a11.749,11.749,0,0,1,1.4-7.09,13.145,13.145,0,0,0-8.4,12.221v.746a14.774,14.774,0,0,1,4.291-6.157h.187v.093a36.145,36.145,0,0,1-1.213,5.5C267.218,248.034,270.3,245.8,270.3,243.09Z" transform="translate(-198.8 -223.406)"/>
        <path id="Path_1213" d="M277.3,242.322a7.6,7.6,0,0,0-.56-2.892,5.4,5.4,0,0,1-1.866,2.892h0l-.093-.093a4.509,4.509,0,0,0,.746-3.265,21.225,21.225,0,0,0-.187-2.426,3.827,3.827,0,0,1-.093-1.026,7.763,7.763,0,0,1,1.213-4.011,10.424,10.424,0,0,0-3.918,5.971c-.373,1.493-.746,2.985-1.026,4.478a9.766,9.766,0,0,1-.373,1.586,39.539,39.539,0,0,1-2.146,5.5,8.017,8.017,0,0,0,3.172-3.638l.093-.187v.187a7.058,7.058,0,0,1,.093,1.4,10.732,10.732,0,0,1-.746,3.825C272.825,249.692,277.3,245.867,277.3,242.322Z" transform="translate(-199.183 -223.104)"/>
        <path id="Path_1214" d="M285.975,234.7a6.436,6.436,0,0,0-5.318-1.026l-.187.093.187-.187a11.43,11.43,0,0,1,3.452-2.892,6.006,6.006,0,0,0-5.6,1.866A9.267,9.267,0,0,0,277.3,237.5v.84c1.586-2.705,1.773-2.705,1.773-2.705h.093v.093a3.827,3.827,0,0,1,.093,1.026,22.86,22.86,0,0,1-.373,3.545C281.59,234.984,285.042,234.7,285.975,234.7Z" transform="translate(-199.739 -223.043)"/>
        <path id="Path_1215" d="M261.9,334.143l.28-12.781.56.84c.187.466.373,1.026.56,1.493a2.224,2.224,0,0,1,.56,1.026c.093.653.373,2.705.466,3.172s.093.84.373.84c1.679,0,2.612-2.8,2.332-3.732a7.189,7.189,0,0,0-1.306-1.959s-.933-2.892-1.12-3.265-.84-.653-1.026-.84c-.093-.093-.653-.653-1.306-1.213l.093-3.545h-.56a5.788,5.788,0,0,1-4.1-1.679l.653,21.457Zm4.291-6.9c-.746,1.026-.84,1.119-1.119,1.119s-.28-1.119-.093-1.772c.187-.56.56-1.213,1.119-1.213.466,0,.84.746.093,1.866Z" transform="translate(-198.424 -228.539)"/>
        <path id="Path_1216" d="M288.883,281.761a16.555,16.555,0,0,0,4.291.746,11.54,11.54,0,0,0,6.437-3.265,20.188,20.188,0,0,1,2.8-1.679s-1.773,0-4.011-.187a15.338,15.338,0,0,0-6.157.746,7.7,7.7,0,0,0-2.985,1.866,3.55,3.55,0,0,1-1.213.84,12.307,12.307,0,0,1-1.213.28,3.893,3.893,0,0,1,.84-1.493,17.406,17.406,0,0,0,3.172-2.705,33.769,33.769,0,0,0,3.918-6.064c.187-.653,1.493-3.638,1.493-3.638-1.12.746-2.239,1.493-3.452,2.146a12.652,12.652,0,0,0-4.664,4.2,9.958,9.958,0,0,0-1.213,4.944,6.687,6.687,0,0,1-1.866,4.291,27.834,27.834,0,0,1-3.452,3.172,5.652,5.652,0,0,1-1.959,1.026,7.061,7.061,0,0,1-1.4.093,4.131,4.131,0,0,1,1.12-1.026,6.725,6.725,0,0,0,3.079-1.959,13.74,13.74,0,0,0,2.8-5.877,23.135,23.135,0,0,1,.746-2.519,16.374,16.374,0,0,1-2.8,2.239,15.416,15.416,0,0,0-4.385,4.478,4.7,4.7,0,0,0-.56,3.545c0,.28-.093.466-.56.84a2.767,2.767,0,0,1-1.4.653,10.785,10.785,0,0,1-3.452.653,19.046,19.046,0,0,1-4.011-.746,5.632,5.632,0,0,0-1.493.466c-.28,0-.56-.093-.84-.093H265.28a4.225,4.225,0,0,0,.28-1.493.659.659,0,0,1,.466-.653c.56-.28,1.119-.56,1.586-.84a1.682,1.682,0,0,1,.933-.187,7.141,7.141,0,0,0,3.638-1.026,14.833,14.833,0,0,0,4.571-4.758,18.821,18.821,0,0,1,2.519-2.239s-1.679.466-3.545,1.026a17.048,17.048,0,0,0-5.691,2.8,8.935,8.935,0,0,0-1.866,2.332,8.127,8.127,0,0,1-1.026,1.679c-.28.187-1.213.746-1.213.56.187-.466.373-.84.56-1.213a25.814,25.814,0,0,1,1.4-2.239,6.187,6.187,0,0,0,.84-1.772,4.735,4.735,0,0,1,.84-1.679,4.419,4.419,0,0,1,3.172-1.772c1.4,0,2.705-.093,4.1-.187a11.979,11.979,0,0,0,4.944-1.959c.56-.28,2.892-1.959,2.892-1.959s-2.239.373-2.985.466a47.909,47.909,0,0,0-5.131.56,14.989,14.989,0,0,0-4.385,2.239c-.933.653-1.866,1.4-2.8,2.146a5.318,5.318,0,0,1,.093-1.213,1.814,1.814,0,0,1,.84-1.306,21.134,21.134,0,0,0,3.732-2.705,20.217,20.217,0,0,0,2.985-4.385c.187-.56,1.4-2.985,1.4-2.985a12.511,12.511,0,0,1-2.612,1.679,14.73,14.73,0,0,0-5.038,3.918,5.937,5.937,0,0,0-1.306,3.265,4.739,4.739,0,0,1-.28,1.586,3.659,3.659,0,0,0-.373,1.679,4.247,4.247,0,0,1-.466,1.866,6.475,6.475,0,0,1-.466,1.213,5.211,5.211,0,0,0-.466.746,16.5,16.5,0,0,1-1.586,2.239s-.466-.56.187-1.959a12.075,12.075,0,0,0,1.306-4.758,14.527,14.527,0,0,0-.746-4.011c-.28-.746-1.306-3.545-1.306-3.545a13.069,13.069,0,0,1-.56,2.612,21.147,21.147,0,0,0-1.493,5.784,10.06,10.06,0,0,0,1.4,4.571,2.338,2.338,0,0,1,.466,1.772,3.387,3.387,0,0,1-.653,1.586,4.474,4.474,0,0,0-.466,1.586,5.151,5.151,0,0,1-2.332,3.265,1.288,1.288,0,0,1-.373.28l.466-18a25.089,25.089,0,0,1,2.985-11.848,3.692,3.692,0,0,1,.466-.653,9.12,9.12,0,0,1,6.157-3.545V254.8H245.41v1.493a8.6,8.6,0,0,1,6.157,3.545c1.959,2.705,3.172,4.291,3.452,12.781l.653,20.617a3.628,3.628,0,0,0-1.679,2.612,1.342,1.342,0,0,1-.187-1.306,7.085,7.085,0,0,0,.56-3.918,16.829,16.829,0,0,0-2.892-5.411,28.523,28.523,0,0,1-1.772-2.519s0,1.679-.093,2.985a11.8,11.8,0,0,0,.187,5.411,7.7,7.7,0,0,0,2.8,3.638,2.66,2.66,0,0,1,.746,1.306,2.05,2.05,0,0,1-.093,1.306,7.2,7.2,0,0,1-.187,1.4c-.093.466-.56.746-.56,1.213a14.914,14.914,0,0,1-.466,1.959c-.093.373-.373.466-.653.933a.951.951,0,0,0-.187.84,7.583,7.583,0,0,1-1.679-1.772,6.013,6.013,0,0,0-4.478-3.825,16.531,16.531,0,0,0-4.291-.093,14.766,14.766,0,0,1-3.545-.466,5.689,5.689,0,0,1,2.612,1.772,13.258,13.258,0,0,0,4.571,3.265,6.2,6.2,0,0,0,3.452,0c.466-.093.84-.373,1.306-.187a2.647,2.647,0,0,1,.933.84,7.771,7.771,0,0,1-1.306.653,9.049,9.049,0,0,0-4.664,3.638,22.653,22.653,0,0,0-1.306,4.478,25.01,25.01,0,0,1-.653,2.519s1.119-.933,2.052-1.586a13.844,13.844,0,0,0,3.732-3.265,10.94,10.94,0,0,0,1.773-5.318.721.721,0,0,1,.653-.746.9.9,0,0,1,.653.84,2.229,2.229,0,0,0,.466,1.306c.187.28.653.653,1.026,1.213a17.363,17.363,0,0,1,.933,2.332c.28.56.373.466.746,1.213s.373,1.12.653,1.679c.373.56.466.466.466.466l-.187-3.452c-.093-.093-.187-.093-.28-.187-.093-.187-.28-.373-.373-.56a6.878,6.878,0,0,1,1.026-.56.59.59,0,0,1,.84.093,8.35,8.35,0,0,0,4.2,1.679,24.463,24.463,0,0,0,7-2.612,23.027,23.027,0,0,1,2.705-.933,24.025,24.025,0,0,1-2.985-.466,40.473,40.473,0,0,0-4.851-.84,5.506,5.506,0,0,0-1.306.187l.093-1.026s-.84.746-1.12.933a9.4,9.4,0,0,1-2.146,1.119,7.877,7.877,0,0,1-1.586.466s-.093-.093-.187.373-.187.466-.746.56a3.342,3.342,0,0,0-1.026.373s.466-1.213.56-1.4.187-.373.84-.56a9.776,9.776,0,0,0,4.665-2.426,14.2,14.2,0,0,0,3.358-4.851,11.764,11.764,0,0,1,2.332-2.892s-1.493.56-4.385,1.586c-.093.093-.28.093-.373.187l.093-3.732h0v-.466l-.187.093c-.466.187-1.679.56-2.146.746s-.84.746-1.306.933a7.627,7.627,0,0,0-1.866,1.12v.653h0l.093,4.011a6.229,6.229,0,0,0-1.306,3.358,4.276,4.276,0,0,1-.373,1.493c-.187.466-.28.84-.466,1.306a8.761,8.761,0,0,0-1.119-1.679,1.589,1.589,0,0,1-.28-1.586,12.455,12.455,0,0,1,.653-1.679,20.276,20.276,0,0,1,.933-2.612c.187-.466.093.466.653-2.239a4.594,4.594,0,0,1,3.079-3.545c.373-.187.746-.746,1.306-.933.466-.187,1.772-.56,2.146-.746a6.311,6.311,0,0,0,2.426-1.679,3.74,3.74,0,0,1,1.4-1.306,6.272,6.272,0,0,1,2.239-.373c1.119-.093,1.306.746,1.586,1.119a1.881,1.881,0,0,1,.28,1.026,5.093,5.093,0,0,0,1.959,4.291,12.047,12.047,0,0,0,5.877,2.332c1.026.28,3.452,1.306,3.452,1.306s-.466-.187-2.146-2.8a16.077,16.077,0,0,0-4.291-4.758,19.249,19.249,0,0,0-3.265-1.119,2.874,2.874,0,0,1-1.119-.466c-.28-.373-.56-.653-.84-1.026h.466a7.859,7.859,0,0,0,3.265.653,7.991,7.991,0,0,0,3.825-.933,1.577,1.577,0,0,1,1.306.093c.466.28.933.653,1.959,1.306a9.492,9.492,0,0,0,4.851,1.679,19.617,19.617,0,0,0,6.157-1.306,12.887,12.887,0,0,1,2.519-.746s-1.679-.28-2.519-.466a26.268,26.268,0,0,0-5.971-1.306,7.031,7.031,0,0,0-3.825,1.12,1.155,1.155,0,0,1-1.306.28,1.561,1.561,0,0,1-1.026-.84,7.069,7.069,0,0,0,3.732-1.4,19.852,19.852,0,0,0,2.426-2.426c.466-.373.746-.933,1.679-1.772A2.278,2.278,0,0,1,288.883,281.761Zm4.758-3.358a21.332,21.332,0,0,1,6.437-.28c-.56.093-3.825,1.586-6.064,2.146a28.724,28.724,0,0,1-4.944.746v-.093A10.934,10.934,0,0,1,293.64,278.4Zm-4.944-4.664a11.867,11.867,0,0,1,5.5-4.291s-2.8,3.732-3.732,4.944-3.172,4.571-3.172,4.571a9.166,9.166,0,0,1,1.4-5.224Zm-9.236,8.4a13.719,13.719,0,0,1,4.758-4.2s-1.959,3.265-3.079,4.758-2.705,3.358-2.705,3.358-.56-1.306,1.026-3.918Zm-8.583-1.679a45.8,45.8,0,0,1,5.784-2.612s-3.358,2.985-5.038,4.2a29.69,29.69,0,0,1-3.732,2.146,9.017,9.017,0,0,1,2.985-3.732Zm5.5-6.717a41.956,41.956,0,0,1,5.877-.653s-3.918,1.4-5.411,1.866a33.215,33.215,0,0,1-4.385.933,17.574,17.574,0,0,1,3.918-2.146Zm-5.224-2.8a21.258,21.258,0,0,1,5.691-4.291s-2.519,2.519-4.291,4.571-2.892,3.452-2.892,3.452v.093a10.575,10.575,0,0,1,1.493-3.825Zm-5.971,10.542a8.292,8.292,0,0,1-1.306-4.385,13.705,13.705,0,0,1,1.586-5.691s-.093,3.172,0,5.038a23.161,23.161,0,0,1-.28,5.038ZM244.01,300.419a31.305,31.305,0,0,1-3.918-2.052,14.656,14.656,0,0,1,5.691.28,5.1,5.1,0,0,1,3.079,3.265c.093,0-3.265-.933-4.851-1.493Zm-.653,12.314a14.463,14.463,0,0,1,1.679-5.6,6.285,6.285,0,0,1,3.545-2.426Zm18.565-7.277a36.74,36.74,0,0,1,5.6.746,53.49,53.49,0,0,1-6.53,1.213,21.058,21.058,0,0,1-4.2-.093s1.119-1.493,5.131-1.866Zm-4.291-5.5a22.663,22.663,0,0,1,6.25-2.985s-3.732,3.172-5.318,4.571a42.793,42.793,0,0,0-3.452,3.638,7.372,7.372,0,0,1,2.519-5.224Zm-4.2-5.6a22.726,22.726,0,0,1-1.773-4.1c-.466-1.679-1.119-5.691-1.119-5.691a35.585,35.585,0,0,1,3.079,5.131,6.221,6.221,0,0,1-.187,4.664Zm16.326-4.1a16.692,16.692,0,0,1,4.1,1.493,15.091,15.091,0,0,1,4.385,5.318,40.929,40.929,0,0,1-4.758-2.985,23.528,23.528,0,0,1-3.732-3.732Zm14.553-2.332a26.887,26.887,0,0,1,6.064,1.213s-4.571.56-6.064.56c-1.306-.093-2.612-.187-3.918-.373a8.64,8.64,0,0,1,3.918-1.4Z" transform="translate(-197.049 -224.667)"/>
        <path id="Path_1217" d="M280.132,270.793a1.872,1.872,0,0,0-.933,1.679.924.924,0,0,0,.746,1.026.841.841,0,0,0,.466-.093,1.452,1.452,0,0,0,1.026-1.586,1.12,1.12,0,0,0-1.026-1.12A.343.343,0,0,0,280.132,270.793Z" transform="translate(-199.866 -225.734)"/>
        <path id="Path_1218" d="M297.532,275.993a1.872,1.872,0,0,0-.933,1.679.924.924,0,0,0,.746,1.026.841.841,0,0,0,.466-.093,1.452,1.452,0,0,0,1.026-1.586,1.12,1.12,0,0,0-1.026-1.119A.343.343,0,0,1,297.532,275.993Z" transform="translate(-201.034 -226.083)"/>
        <path id="Path_1219" d="M268.032,292.593a1.872,1.872,0,0,0-.933,1.679.924.924,0,0,0,.746,1.026.841.841,0,0,0,.466-.093,1.452,1.452,0,0,0,1.026-1.586,1.12,1.12,0,0,0-1.026-1.119A.343.343,0,0,1,268.032,292.593Z" transform="translate(-199.054 -227.197)"/>
        <path id="Path_1220" d="M288.694,287a.918.918,0,0,0,.373,1.213.841.841,0,0,0,.466.093,1.5,1.5,0,0,0,1.493-1.213,1.109,1.109,0,0,0-.653-1.4c-.093,0-.187-.093-.28-.093A1.8,1.8,0,0,0,288.694,287Z" transform="translate(-200.498 -226.734)"/>
        <path id="Path_1221" d="M279.732,292.593a1.872,1.872,0,0,0-.933,1.679.924.924,0,0,0,.746,1.026.841.841,0,0,0,.466-.093,1.452,1.452,0,0,0,1.026-1.586,1.12,1.12,0,0,0-1.026-1.119C280.012,292.593,279.918,292.593,279.732,292.593Z" transform="translate(-199.839 -227.197)"/>
        <path id="Path_1222" d="M265.732,304.593a1.872,1.872,0,0,0-.933,1.679.924.924,0,0,0,.746,1.026.841.841,0,0,0,.466-.093,1.452,1.452,0,0,0,1.026-1.586,1.12,1.12,0,0,0-1.026-1.119A.343.343,0,0,1,265.732,304.593Z" transform="translate(-198.9 -228.002)"/>
        <path id="Path_1223" d="M243.912,309.505a1.452,1.452,0,0,0,1.026-1.586,1.12,1.12,0,0,0-1.026-1.12h-.28a1.872,1.872,0,0,0-.933,1.679.924.924,0,0,0,.746,1.026A.416.416,0,0,0,243.912,309.505Z" transform="translate(-197.417 -228.157)"/>
        <path id="Path_1224" d="M250.6,222.5a9.9,9.9,0,0,1,1.866,5.318c0,.746-.093,1.866-.093,1.866a12.68,12.68,0,0,1-.653,3.265,16.817,16.817,0,0,0,2.332-4.664V228.1l.093.187a6.206,6.206,0,0,1,.653,2.239,7.03,7.03,0,0,0,.653-3.079A5.384,5.384,0,0,0,250.6,222.5Z" transform="translate(-197.948 -222.5)"/>
        <path id="Path_1225" d="M250.6,231.026h0c-.093-.84-.187-1.679-.28-2.426a16.43,16.43,0,0,1-4.851,5.877,7.293,7.293,0,0,0-3.172,5.691,12.667,12.667,0,0,0,4.758,8.489,20.2,20.2,0,0,1-1.306-7,4.313,4.313,0,0,1,1.679-3.172l.187-.187a24.459,24.459,0,0,0,2.052-2.332h0a8.27,8.27,0,0,0,.746-1.586,2.583,2.583,0,0,0,.093-.84h0A7.624,7.624,0,0,0,250.6,231.026Z" transform="translate(-197.391 -222.909)"/>
        <path id="Path_1226" d="M228.561,272.853a1.078,1.078,0,0,0-1.119,1.12h0a1.059,1.059,0,0,0,.28.746c-.093,0-.28-.093-.373-.093a1.4,1.4,0,0,0,0,2.8.561.561,0,0,0,.373-.093,2.328,2.328,0,0,1-2.332,1.679c-2.052,0-2.892-2.239-2.985-2.705a1.358,1.358,0,0,0,2.612-.746,1.5,1.5,0,0,0-1.306-1.026c-.187,0-.28,0-.373.093a1.387,1.387,0,1,0-1.866-2.052,1.362,1.362,0,0,0,0,2.052.841.841,0,0,0-.466-.093,1.4,1.4,0,1,0,0,2.8,1.231,1.231,0,0,0,1.306-1.026c-.093.653-1.213,2.705-2.985,2.705a2.408,2.408,0,0,1-2.332-1.679c.093,0,.28.093.373.093a1.4,1.4,0,0,0,0-2.8.561.561,0,0,0-.373.093,1.059,1.059,0,0,0,.28-.746,1.078,1.078,0,0,0-1.119-1.12h0a1.383,1.383,0,0,0-.653.093,35.461,35.461,0,0,1,.653,3.732l.933,6.25h10.355v-.187l.933-6.064c.187-1.4.466-2.892.653-3.732C229.027,272.853,228.84,272.853,228.561,272.853Z" transform="translate(-195.593 -225.835)"/>
        <path id="Path_1227" d="M249.461,272.853a1.078,1.078,0,0,0-1.119,1.12h0a1.059,1.059,0,0,0,.28.746c-.093,0-.28-.093-.373-.093a1.4,1.4,0,0,0,0,2.8.561.561,0,0,0,.373-.093,2.328,2.328,0,0,1-2.332,1.679c-2.052,0-2.892-2.239-2.985-2.705a1.358,1.358,0,0,0,2.612-.746,1.5,1.5,0,0,0-1.306-1.026c-.187,0-.28,0-.373.093a1.387,1.387,0,1,0-1.866-2.052,1.362,1.362,0,0,0,0,2.052.841.841,0,0,0-.466-.093,1.4,1.4,0,1,0,0,2.8,1.231,1.231,0,0,0,1.306-1.026c-.093.653-1.213,2.705-2.985,2.705a2.408,2.408,0,0,1-2.332-1.679c.093,0,.28.093.373.093a1.4,1.4,0,1,0,0-2.8.561.561,0,0,0-.373.093,1.059,1.059,0,0,0,.28-.746,1.078,1.078,0,0,0-1.119-1.12h0a1.383,1.383,0,0,0-.653.093,35.461,35.461,0,0,1,.653,3.732l.933,6.25h10.355v-.187l.933-6.064c.187-1.4.466-2.985.653-3.732C250.02,272.853,249.74,272.853,249.461,272.853Z" transform="translate(-196.995 -225.835)"/>
        <path id="Path_1228" d="M239.787,286.25a1.235,1.235,0,0,0-1.213,1.213h0a1.14,1.14,0,0,0,.373.84,1.506,1.506,0,1,0-.84,2.892c.187,0,.28.093.466.093a.561.561,0,0,0,.373-.093,2.689,2.689,0,0,1-2.519,1.866c-2.239,0-3.172-2.426-3.265-2.985a1.506,1.506,0,1,0,2.892-.84,1.512,1.512,0,0,0-1.493-1.119.841.841,0,0,0-.466.093,1.519,1.519,0,0,0-2.052-2.239,1.545,1.545,0,0,0-.466,1.12,1.33,1.33,0,0,0,.56,1.119.841.841,0,0,0-.466-.093,1.493,1.493,0,0,0,0,2.985,1.6,1.6,0,0,0,1.493-1.12c-.093.653-1.4,2.985-3.265,2.985a2.523,2.523,0,0,1-2.519-1.866c.093,0,.28.093.373.093a1.54,1.54,0,0,0,.093-3.079h-.093a.841.841,0,0,0-.466.093,1.182,1.182,0,0,0,.373-.84,1.235,1.235,0,0,0-1.213-1.213h0a1,1,0,0,0-.746.187c.28,1.306.653,3.825.746,4.1l1.026,6.9h11.381v-.187l1.026-6.717a37.81,37.81,0,0,1,.746-4.1A1.317,1.317,0,0,0,239.787,286.25Z" transform="translate(-196.277 -226.732)"/>
      </g>
      <path id="Path_1379" d="M502.2,276.662h3.732v4.291a14.382,14.382,0,0,0,6.25,1.213c4.571,0,7.556-2.146,7.556-5.877,0-8.489-17.445-3.452-17.445-14.833,0-3.918,2.332-8.956,11.755-8.956a26.217,26.217,0,0,1,8.489,1.493v6.344h-3.545v-3.918a17.131,17.131,0,0,0-5.318-.84c-3.452,0-7.183,1.306-7.183,5.5,0,8.116,17.445,2.985,17.445,14.74,0,7-5.971,9.516-12.034,9.516a25.512,25.512,0,0,1-9.516-1.586v-7l-.186-.093Z" transform="translate(-11.01 -2.013)"/>
      <path id="Path_1380" d="M528.4,261.477h3.732l.187-5.691,3.732-.187-.187,5.877h7.37v2.8H535.77c-.093,3.918-.187,7.836-.187,11.755s0,6.25,3.638,6.25a10.917,10.917,0,0,0,4.571-1.026l-.093,2.985a12.838,12.838,0,0,1-5.224,1.12c-6.53,0-6.53-4.664-6.53-7.65s.093-10.075.187-13.434H528.4Z" transform="translate(-12.768 -2.221)"/>
      <path id="Path_1381" d="M558.481,261.3a10.859,10.859,0,0,1,11.381,10.355v1.306c0,6.717-4.2,12.874-11.381,12.874A10.846,10.846,0,0,1,547.1,275.572v-1.4C547.1,267.456,551.391,261.3,558.481,261.3Zm0,21.363c4.944,0,7.463-4.1,7.463-9.142s-2.425-9.142-7.463-9.142-7.463,4.1-7.463,9.142C551.018,278.651,553.444,282.663,558.481,282.663Z" transform="translate(-14.022 -2.603)"/>
      <path id="Path_1382" d="M594.336,284.622a27.343,27.343,0,0,1-6.717,1.12c-9.236,0-12.221-6.064-12.221-12.221A11.439,11.439,0,0,1,585.846,261.3h1.213a23.3,23.3,0,0,1,7.556,1.213v6.064H591.35v-3.638a13.258,13.258,0,0,0-3.918-.56c-6.717,0-8.116,5.318-8.116,9.142a8.471,8.471,0,0,0,7.743,9.142h1.119a21.361,21.361,0,0,0,6.344-1.306Z" transform="translate(-15.919 -2.604)"/>
      <path id="Path_1383" d="M602.671,252.392H598.1V249.5h8.3v21.737l8.956-7.37H612v-2.892h10.075v2.8H619.65l-9.7,7.836,10.542,9.8h2.519v2.8H612.933v-2.8h2.8l-9.422-9.049V281.5h3.079v2.8H599.126v-2.8h3.358Z" transform="translate(-17.445 -1.812)"/>
      <path id="Path_1384" d="M630.971,252.392H626.4V249.5h8.3v12.314a31.8,31.8,0,0,1-.466,4.291h.093a8.582,8.582,0,0,1,8.3-5.691c6.437,0,8.023,4.291,8.023,8.769s-.187,8.676-.187,12.314h3.452v2.8H643.659v-2.8h2.985c0-3.638.187-7.463.187-11.195,0-2.332-.093-6.81-5.318-6.81-3.265,0-7,1.959-7,8.3l-.093,9.609h3.452v2.8H627.333v-2.8h3.358Z" transform="translate(-19.344 -1.812)"/>
      <path id="Path_1385" d="M669.781,261.3a10.859,10.859,0,0,1,11.381,10.355v1.306c0,6.717-4.2,12.874-11.381,12.874A10.846,10.846,0,0,1,658.4,275.572v-1.4C658.4,267.456,662.691,261.3,669.781,261.3Zm0,21.363c4.944,0,7.463-4.1,7.463-9.142s-2.426-9.142-7.463-9.142c-4.944,0-7.463,4.1-7.463,9.142C662.411,278.651,664.837,282.663,669.781,282.663Z" transform="translate(-21.491 -2.603)"/>
      <path id="Path_1386" d="M688.971,252.392H684.4V249.5h8.3l-.187,32h3.732v2.8H685.519v-2.8h3.358Z" transform="translate(-23.235 -1.812)"/>
      <path id="Path_1387" d="M700.56,282.389h2.985l.187-17.632H700v-2.8h7.463c0,.933-.093,2.146-.093,2.8L707,267.09h.093a8.582,8.582,0,0,1,8.3-5.691,7.11,7.11,0,0,1,7.09,5.5h.093a7.923,7.923,0,0,1,7.93-5.5c6.064,0,8.023,4.291,8.023,8.769s-.187,8.676-.187,12.314h3.452v2.8H731.625v-2.8h2.985c.093-3.825.187-7.556.187-11.381s-.746-6.717-5.038-6.717c-2.985,0-6.717,1.959-6.717,8.3V282.3H726.4v2.8H716.139v-2.8h3.079c.093-3.825.187-7.556.187-11.381s-.746-6.717-5.038-6.717c-2.985,0-6.624,1.959-6.717,8.3v9.609H711.1v2.8H700.839v-2.8l-.28.28Z" transform="translate(-24.282 -2.61)"/>
      <path id="Path_1388" d="M764.186,268.31h-3.358l-.187-3.265a7.943,7.943,0,0,0-4.1-.84c-2.332,0-5.411.746-5.411,3.638,0,2.8,2.332,3.265,5.691,3.918,5.877,1.026,8.4,2.8,8.4,6.717s-2.8,7.463-9.609,7.463a23.818,23.818,0,0,1-8.023-1.4l-.187-5.971h3.358l.187,3.452a14.576,14.576,0,0,0,5.318,1.026c2.426,0,5.411-1.026,5.411-3.918,0-2.8-2.426-3.172-4.944-3.638-6.25-1.4-9.422-2.426-9.422-7s2.519-7,9.236-7A25.741,25.741,0,0,1,764,262.9Z" transform="translate(-27.456 -2.617)"/>
      <path id="Path_1389" d="M501.8,304.3h7.463c0,4.291-.187,8.489-.187,13.9,0,3.452.653,7,5.224,7,6.81,0,6.9-7.463,6.9-10.728v-7.183h-3.638v-2.892h7.463l-.187,20.524h3.265v2.8h-7c0-.933.093-2.146.093-2.8l.373-2.332h0a8.544,8.544,0,0,1-7.836,5.691c-6.717,0-8.3-4.291-8.3-9.609,0-4.291.093-7.836.187-11.475h-3.732L501.8,304.3Z" transform="translate(-10.983 -5.489)"/>
      <path id="Path_1390" d="M549.806,324.677h2.985c0-3.638.187-7.463.187-11.195,0-2.332-.093-6.81-5.318-6.81-3.265,0-7,1.959-7,8.3v9.609h3.452v2.8H533.853v-2.8h2.985l.187-17.632H533.2V304.06h7.463c0,.933-.093,2.146-.093,2.8l-.373,2.332h.093a8.582,8.582,0,0,1,8.3-5.691c6.437,0,8.023,4.291,8.023,8.769s-.187,8.676-.187,12.314h3.452v2.8H549.712v-2.8l.093.093Z" transform="translate(-13.09 -5.435)"/>
      <path id="Path_1391" d="M568.991,306.24H564.7v-2.892h8.023l-.187,20.524h3.732v2.8H565.073v-2.8H568.8ZM570.3,291.5a2.8,2.8,0,1,1-2.8,2.8,2.869,2.869,0,0,1,2.8-2.8Z" transform="translate(-15.203 -4.63)"/>
      <path id="Path_1392" d="M577.093,304.3H586.7v2.892h-2.8l5.411,15.02.56,1.959h.093a7.743,7.743,0,0,1,.56-1.959l5.5-15.02h-3.172V304.3h9.329v2.892h-2.519l-8.116,20.524h-3.732l-8.116-20.524H577l.093-2.892Z" transform="translate(-16.029 -5.489)"/>
      <path id="Path_1393" d="M609.225,316.294c.093,4.758,2.239,8.863,8.863,8.863a16.528,16.528,0,0,0,7-1.773l-.093,3.172a21.673,21.673,0,0,1-7.65,1.679c-7.463,0-11.941-4.011-11.941-12.221,0-6.9,3.732-12.314,10.822-12.314,9.236,0,10.075,8.4,10.075,12.5Zm13.247-2.892a6.287,6.287,0,0,0-5.784-6.81h-.466a7.011,7.011,0,0,0-7,6.81Z" transform="translate(-17.934 -5.449)"/>
      <path id="Path_1394" d="M635.311,307.065H631.3v-2.892h7.65v1.213c-.093,2.052-.28,4.011-.56,6.064h.093c.933-3.452,2.146-7.65,7.93-7.65a9.381,9.381,0,0,1,2.332.373l-.373,3.358a7.858,7.858,0,0,0-2.519-.373c-4.758,0-7,4.758-7,8.863l-.187,8.769h3.918v2.8H631.58v-2.8h3.265Z" transform="translate(-19.672 -5.455)"/>
      <path id="Path_1395" d="M668.686,310.71h-3.358l-.187-3.265a7.943,7.943,0,0,0-4.1-.84c-2.332,0-5.411.746-5.411,3.638s2.332,3.265,5.691,3.918c5.877,1.026,8.4,2.8,8.4,6.717s-2.8,7.463-9.609,7.463a23.818,23.818,0,0,1-8.023-1.4l-.187-5.971h3.358l.187,3.452a14.576,14.576,0,0,0,5.318,1.026c2.426,0,5.411-1.026,5.411-3.918,0-2.8-2.426-3.172-4.944-3.638-6.25-1.4-9.422-2.426-9.422-7s2.519-7,9.236-7a25.741,25.741,0,0,1,7.463,1.4Z" transform="translate(-21.048 -5.462)"/>
      <path id="Path_1396" d="M678.891,306.24H674.6v-2.892h8.023l-.187,20.524h3.732v2.8H674.973v-2.8H678.7Zm1.4-14.74a2.8,2.8,0,1,1-2.8,2.8,2.869,2.869,0,0,1,2.8-2.8Z" transform="translate(-22.578 -4.63)"/>
      <path id="Path_1397" d="M688.8,303.877h3.732l.187-5.691L696.45,298l-.187,5.877h7.37v2.892H696.17c-.093,3.918-.187,7.836-.187,11.755s0,6.25,3.638,6.25a10.917,10.917,0,0,0,4.571-1.026l-.093,2.985a12.838,12.838,0,0,1-5.224,1.12c-6.53,0-6.53-4.665-6.53-7.65s.093-10.075.187-13.434H688.8Z" transform="translate(-23.531 -5.066)"/>
      <path id="Path_1398" d="M710.825,316.294c.093,4.758,2.239,8.863,8.862,8.863a16.528,16.528,0,0,0,7-1.773l-.093,3.172a21.673,21.673,0,0,1-7.65,1.679c-7.463,0-11.941-4.011-11.941-12.221,0-6.9,3.732-12.314,10.822-12.314,9.236,0,10.075,8.4,10.075,12.5Zm13.247-2.892a6.287,6.287,0,0,0-5.784-6.81h-.466a7.011,7.011,0,0,0-7,6.81Z" transform="translate(-24.752 -5.449)"/>
      <path id="Path_1399" d="M731.3,303.877h3.732l.187-5.691L738.95,298l-.187,5.877h7.37v2.892H738.67c-.093,3.918-.187,7.836-.187,11.755s0,6.25,3.638,6.25a10.917,10.917,0,0,0,4.571-1.026l-.093,2.985a12.839,12.839,0,0,1-5.224,1.12c-6.53,0-6.53-4.665-6.53-7.65s.093-10.075.187-13.434H731.3Z" transform="translate(-26.382 -5.066)"/>
    </g>
  </g>
</svg>
