<svg xmlns="http://www.w3.org/2000/svg" xmlns:xlink="http://www.w3.org/1999/xlink" width="600" height="300" viewBox="0 0 600 300">
  <defs>
    <clipPath id="clip-Logo">
      <rect width="600" height="300"/>
    </clipPath>
  </defs>
  <g id="Logo" clip-path="url(#clip-Logo)">
    <rect width="600" height="300" fill="#e8eff3"/>
    <g id="Layer_2" data-name="Layer 2" transform="translate(234.066 173.429)">
      <g id="Layer_1" data-name="Layer 1" transform="translate(0 -0.009)">
        <path id="Path_1422" data-name="Path 1422" d="M0,1.93H2.706l7.836,21.509a32.078,32.078,0,0,1,1.057,3.57h.064a33.689,33.689,0,0,1,1.121-3.531L20.62,1.93H23.2L13.068,29.535H10.207Z" transform="translate(0 0.568)" fill="#1d1d1b"/>
        <path id="Path_1423" data-name="Path 1423" d="M26.136,28.167c-5.774,0-8.416-3.866-8.416-9.782S20.658,8.32,26.02,8.32c5.593,0,7.578,4.472,7.578,8.944V18.81H20.246c.155,4.588,1.959,7.372,5.928,7.372a4.588,4.588,0,0,0,4.794-3.222h2.384a7.127,7.127,0,0,1-7.217,5.207Zm4.936-11.444c0-2.964-1.044-6.444-5.052-6.444-3.531-.013-5.361,2.784-5.735,6.65H31.071Z" transform="translate(5.117 2.414)" fill="#1d1d1b"/>
        <path id="Path_1424" data-name="Path 1424" d="M37.447,4.28V9.951H42.28V11.9H37.447v12.23c0,2.023.863,2.887,3.029,2.887a13.261,13.261,0,0,0,2.165-.206V28.9a12.024,12.024,0,0,1-2.732.284c-3.647,0-4.91-1.946-4.91-4.756V11.9H31.39V10.028h.786c2.423,0,2.925-.541,2.925-4.008V4.28Z" transform="translate(9.064 1.247)" fill="#1d1d1b"/>
        <path id="Path_1425" data-name="Path 1425" d="M49.966,28.167c-5.774,0-8.416-3.866-8.416-9.782S44.475,8.32,49.862,8.32c5.593,0,7.578,4.472,7.578,8.944V18.81H44.076c.142,4.562,1.92,7.372,5.915,7.372A4.588,4.588,0,0,0,54.76,22.96h2.384A7.127,7.127,0,0,1,49.966,28.167ZM54.9,16.723c0-2.964-1.044-6.444-5.052-6.444-3.531,0-5.413,2.745-5.735,6.637H54.9Z" transform="translate(11.998 2.414)" fill="#1d1d1b"/>
        <path id="Path_1426" data-name="Path 1426" d="M69.33,15.756a6.946,6.946,0,0,0-.786-3.969A3.634,3.634,0,0,0,65.361,10.5c-3.866,0-5.593,2.848-5.593,6.1V27.741H57.19V8.8h2.333v3.351H59.6a6.676,6.676,0,0,1,6.276-3.866c4.085,0,5.915,2.191,5.915,6.521V27.689H69.33Z" transform="translate(16.514 2.401)" fill="#1d1d1b"/>
        <path id="Path_1427" data-name="Path 1427" d="M83.365,13.333c-.284-1.843-1.843-3.067-4.395-3.067S74.7,11.774,74.7,13.655s1.044,2.706,2.964,2.964l3.389.464c3.609.5,5.155,2.346,5.155,5.232,0,3.57-2.925,5.851-7.217,5.851-3.866,0-6.934-1.559-7.436-5.774h2.449c.4,2.23,1.8,3.789,5.026,3.789,2.887,0,4.691-1.521,4.691-3.647,0-1.7-.541-2.784-3.273-3.183l-3.106-.425c-3.183-.438-4.987-1.946-4.987-5.052,0-3.325,2.706-5.555,6.676-5.555s6.444,1.83,6.753,5.013Z" transform="translate(20.663 2.414)" fill="#1d1d1b"/>
        <path id="Path_1428" data-name="Path 1428" d="M88.778,29.72H86.2V1.29h2.578V20.454l8.622-9.64h2.99l-6.444,7.114L101.51,29.72H98.52L92.206,19.8l-3.428,3.789Z" transform="translate(24.891 0.384)" fill="#1d1d1b"/>
        <path id="Path_1429" data-name="Path 1429" d="M100.233,13.8c0-2.951,2.577-5.477,6.856-5.477,5.232,0,6.714,2.887,6.714,6.959V23.5c0,1.74.5,2.346,1.843,2.384V27.87h-.335c-2.706,0-3.673-1.186-3.866-3.712h-.077a6.689,6.689,0,0,1-6.354,3.866c-3.531,0-5.812-1.959-5.812-5.31a4.91,4.91,0,0,1,2.578-4.614c1.882-1.057,4.975-1.379,9.563-1.624v-1.2c0-2.951-1.044-5.013-4.408-5.013-2.887,0-4.253,1.624-4.395,3.57Zm11.148,5.374v-.786c-4.691.284-7.075.58-8.261,1.443a3.17,3.17,0,0,0-1.289,2.745c0,2.23,1.482,3.389,3.75,3.389,2.642-.013,5.748-2.126,5.748-6.792Z" transform="translate(28.643 2.414)" fill="#1d1d1b"/>
        <path id="Path_1430" data-name="Path 1430" d="M115.14,8.8h2.423v3.351h0a6.779,6.779,0,0,1,6.3-3.866c3.944,0,7.617,2.41,7.617,9.7,0,6.856-3.673,10.142-8,10.142a6.186,6.186,0,0,1-5.774-3.609h-.077v9.923H115.05Zm8.2,17.36c3.75,0,5.619-3.145,5.619-8.119,0-4.266-1.366-7.733-5.555-7.733-3.789,0-5.8,3.106-5.8,6.444v2.771c-.039,3.351,1.791,6.637,5.735,6.637Z" transform="translate(33.221 2.401)" fill="#1d1d1b"/>
        <path id="Path_1431" data-name="Path 1431" d="M141.806,13.333c-.284-1.843-1.83-3.067-4.395-3.067s-4.227,1.482-4.227,3.389,1.044,2.706,2.964,2.964l3.389.464c3.609.5,5.155,2.346,5.155,5.232,0,3.57-2.925,5.851-7.217,5.851-3.866,0-6.933-1.559-7.436-5.774h2.449c.4,2.23,1.8,3.789,5.026,3.789,2.913,0,4.717-1.521,4.717-3.647,0-1.7-.541-2.784-3.286-3.183l-3.093-.425c-3.183-.438-4.987-1.946-4.987-5.052,0-3.325,2.706-5.555,6.676-5.555s6.444,1.83,6.753,5.013Z" transform="translate(37.55 2.414)" fill="#1d1d1b"/>
        <path id="Path_1432" data-name="Path 1432" d="M144.842,8.761h2.346v3.931h.077A6.534,6.534,0,0,1,153.206,8.4h.335v2.487h-.515c-2.951,0-5.658,1.946-5.658,6.444v10.31H144.79Z" transform="translate(41.809 2.437)" fill="#1d1d1b"/>
        <path id="Path_1433" data-name="Path 1433" d="M153.866,16.2c0-2.951,2.578-5.477,6.856-5.477,5.232,0,6.714,2.887,6.714,6.959v8.222c0,1.74.5,2.346,1.83,2.384v1.985h-.322c-2.706,0-3.673-1.186-3.866-3.712h0a6.689,6.689,0,0,1-6.354,3.866c-3.531,0-5.812-1.959-5.812-5.31a4.91,4.91,0,0,1,2.577-4.614c1.869-1.057,4.975-1.379,9.563-1.624v-1.2c0-2.951-1.044-5.013-4.408-5.013-2.887,0-4.253,1.624-4.395,3.57Zm11.148,5.374V20.79c-4.691.284-7.075.58-8.261,1.443a3.17,3.17,0,0,0-1.289,2.745c0,2.23,1.482,3.389,3.75,3.389,2.694-.013,5.8-2.126,5.8-6.792ZM157.281,3.65A3.493,3.493,0,0,1,161.005,0,3.454,3.454,0,0,1,164.73,3.65,3.505,3.505,0,0,1,161.005,7.3a3.454,3.454,0,0,1-3.673-3.647Zm1.727,0c0,1.289.683,2.23,1.946,2.23a2,2,0,0,0,1.985-2.23,1.985,1.985,0,1,0-3.866,0Z" transform="translate(44.151 0.009)" fill="#1d1d1b"/>
        <path id="Path_1434" data-name="Path 1434" d="M184.159,29.72h-2.384V26.434h-.1a6.521,6.521,0,0,1-5.993,3.763c-3.789,0-7.939-2.281-7.939-9.82,0-6.444,3.248-10.027,8.119-10.027a5.864,5.864,0,0,1,5.7,3.57h.077V1.29h2.578ZM181.7,18.856c0-3.531-2.088-6.444-5.555-6.444-3.969,0-5.812,3.286-5.812,7.874s1.6,7.939,5.593,7.939,5.774-3.145,5.774-6.354Z" transform="translate(48.436 0.384)" fill="#1d1d1b"/>
        <path id="Path_1435" data-name="Path 1435" d="M192.213,28.167c-5.774,0-8.4-3.866-8.4-9.782s2.925-10.065,8.3-10.065c5.593,0,7.578,4.472,7.578,8.944V18.81H186.336c.142,4.588,1.946,7.372,5.915,7.372a4.588,4.588,0,0,0,4.768-3.222H199.4a7.14,7.14,0,0,1-7.191,5.207Zm4.949-11.444c0-2.964-1.044-6.444-5.052-6.444-3.531,0-5.413,2.745-5.735,6.637h10.787Z" transform="translate(53.076 2.414)" fill="#1d1d1b"/>
        <path id="Path_1436" data-name="Path 1436" d="M203.686,4.28V9.951h4.833V11.9h-4.833v12.23c0,2.023.863,2.887,3.029,2.887a13.261,13.261,0,0,0,2.165-.206V28.9a12.076,12.076,0,0,1-2.784.284c-3.634,0-4.91-1.946-4.91-4.755V11.9h-3.6V10.028h.825c2.423,0,2.925-.541,2.925-4.008V4.28Z" transform="translate(57.055 1.247)" fill="#1d1d1b"/>
      </g>
    </g>
    <g id="Layer_2-2" data-name="Layer 2" transform="translate(100.002 89)">
      <g id="Lager_1" data-name="Lager 1" transform="translate(-0.002 0)">
        <path id="Path_1437" data-name="Path 1437" d="M.837,50.923A3.161,3.161,0,0,1,0,48.6v-.23A3.362,3.362,0,0,1,2.13,45.492a59.394,59.394,0,0,1,9.8-3.362c1.638-.374,9.856-2.1,11.494-2.356s11.063-1.293,12.327-1.437,16.465-1.379,17.815-1.494l11.321-.575a56.634,56.634,0,0,0,9.109-1.178,30.171,30.171,0,0,1,4.023-1.121,5.316,5.316,0,0,1,5.747,2.873s2.442,4.109,1.149,6.379a1.839,1.839,0,0,1-.2.345,9.77,9.77,0,0,1-3.764,3.391,5.172,5.172,0,0,1-2.356.747,42.156,42.156,0,0,1-6.954,0l-1.9-.144-9.4-.374c-4.655-.2-8.62-.488-10.833-.431s-6.379,0-10,.287-12.356,1.063-14.367,1.236-9.023.862-11.235,1.236-6.063,1.207-6.954,1.437a14.022,14.022,0,0,1-5.316.517,1.753,1.753,0,0,1-.8-.4" transform="translate(0.002 63.468)" fill="#1d1d1b"/>
        <path id="Path_1438" data-name="Path 1438" d="M42.324,73.564c-1.638,0-2.1-1.925-3.046-3.592s-4.971-9.569-5.919-11.35-6.465-12.442-7.3-13.764c-.575-.891-3.764-6.753-5.747-10.258-.977-1.667-2.873-4.454-4.109-6.293l-4.6-6.178c-1.379-1.782-4.166-5.546-6.494-8.62A4.425,4.425,0,0,1,5.8,7.762a9.109,9.109,0,0,1,4.454-1.322,4.626,4.626,0,0,1,1.7.287,12.241,12.241,0,0,1,3.132,1.638,46.579,46.579,0,0,1,8.879,9.54c2.184,2.873,5.747,10,7.126,12.27s4.827,10.89,5.574,12.586,3.419,9.4,4.54,12.384,2.557,7.356,3.506,10.919a11.322,11.322,0,0,1,.69,4.425,3.276,3.276,0,0,1-.23,1.149A3.506,3.506,0,0,1,42.3,73.564" transform="translate(8.167 12.064)" fill="#1d1d1b"/>
        <path id="Path_1439" data-name="Path 1439" d="M20.51,47.239s-.575.23-1.149-.919a2.385,2.385,0,0,1,0-1.207,91.95,91.95,0,0,1,5.4-17.873A106.977,106.977,0,0,1,31.4,13.505c2.73-3.965,6.666-9.6,9.166-11.149A11.149,11.149,0,0,1,47.377,0a5.546,5.546,0,0,1,4.281,2.873A5.747,5.747,0,0,1,51.141,7.7a10.89,10.89,0,0,1-3.649,3.793,67.814,67.814,0,0,0-6.982,4.569,51.2,51.2,0,0,0-3.822,4.052l-2.73,3.3c-.488.575-1.609,2.1-1.9,2.442a67.354,67.354,0,0,0-5.287,8.994c-2.529,5.258-2.873,6.264-4.569,10.028,0,0-.747,2.27-1.7,2.442" transform="translate(36.131 0)" fill="#1d1d1b"/>
        <path id="Path_1440" data-name="Path 1440" d="M22.64,47.623s-1.494-.316-1.408-1.494A9.051,9.051,0,0,1,21.807,44,84.365,84.365,0,0,1,26.318,33,70.744,70.744,0,0,1,41.088,14.033,19.511,19.511,0,0,1,50,9.119a4.77,4.77,0,0,1,2.615,0,4.339,4.339,0,0,1,3.247,2.873,6.063,6.063,0,0,1-3.017,5.747S42.295,24.98,40.484,26.5a59.738,59.738,0,0,0-6.264,5.4,100.168,100.168,0,0,0-6.7,8.3s-1.638,2.873-3.1,5.345A7.356,7.356,0,0,1,23.3,47.221a.948.948,0,0,1-.661.374" transform="translate(39.776 16.742)" fill="#1d1d1b"/>
      </g>
    </g>
  </g>
</svg>
