<svg xmlns="http://www.w3.org/2000/svg" viewBox="0 0 394.76 102.19"><defs><style>.a{fill:#fff}.b{fill:none;stroke:#fff;stroke-miterlimit:10;stroke-width:2px}</style></defs><path d="M312 59.77c3.43 0 6 1.6 6 4.76 0 2.86-2.39 4.55-4.68 5.92s-4.26 2.34-4.28 4h9.08V77h-12.36v-1.3c0-4.13 3.06-5.7 5.63-7.22 2-1.14 3.68-2 3.68-3.93 0-1.47-1.27-2.24-3.36-2.24a9.2 9.2 0 0 0-5.38 1.89v-2.71a10 10 0 0 1 5.67-1.72m16 0c5.25 0 7.59 3.84 7.59 8.79s-2.34 8.79-7.59 8.79-7.59-3.83-7.59-8.79 2.38-8.79 7.59-8.79m0 2.59c-3.26 0-4.73 2.27-4.73 6.2s1.47 6.2 4.73 6.2 4.73-2.26 4.73-6.2-1.45-6.2-4.73-6.2m16.1-2.59c3.43 0 5.95 1.6 5.95 4.76 0 2.86-2.39 4.55-4.68 5.92s-4.26 2.34-4.29 4h9.09V77H337.9v-1.3c0-4.13 3.06-5.7 5.62-7.22 2-1.14 3.69-2 3.69-3.93 0-1.47-1.27-2.24-3.36-2.24a9.2 9.2 0 0 0-5.38 1.89v-2.71a10 10 0 0 1 5.63-1.72m16.53.33v14.36h3V77h-9.21v-2.54h3.38V63l-3.38 1.27v-2.6l4.11-1.57Zm7.03 17.2a1.62 1.62 0 1 1 0-3.24 1.62 1.62 0 1 1 0 3.24m4.17-.3 7.37-17.4h3.11l7.35 17.4h-3l-1.55-3.76h-8.73L374.84 77Zm5.53-6.25h6.77l-3.06-7.45c-.1-.27-.2-.54-.33-1-.12.43-.22.7-.32 1Zm17.4-11.15V77h-2.84V59.6Zm-37.43-17.22a10 10 0 0 0 4.88-3.49c1.47-2 2.19-4 4.33-5.54l-2.89.46c3.82 3.3 5.13 8.67 8.74 12.2 3.29 3.21 9 5.22 13.51 5.31 1.07 0 3.65-1.58 1.39-1.62a19.3 19.3 0 0 1-12.64-5.85c-3.08-3.4-4.33-8.24-7.85-11.27-.71-.61-2.27 0-2.9.46-3.23 2.23-4.1 6.86-7.81 8.28-2.23.85-.15 1.59 1.24 1.06" class="a"/><path d="M334.12 41.88c4.63-5 8.51-9.84 10.63-16.38l-3.25.87c2 2.81 2.84 6.22 5.41 8.66 1.11 1.06 2.48 1.48 3.4 2.74a49 49 0 0 1 3 5.3c1.71 3.09 4.1 5.47 6.52 8a9.9 9.9 0 0 0 8.23 3.39c1.07-.06 3.64-1.77 1.38-1.65-4 .22-6.24-2.74-8.75-5.42a39 39 0 0 1-5.81-8.52 26 26 0 0 0-1.7-2.75c-.9-1.23-2.58-1.82-3.69-2.88-2.25-2.14-3-5.6-4.83-8.11-.54-.75-3 .11-3.25.87-2.06 6.39-5.86 11.13-10.38 16-.86.92 2.46.6 3.1-.09Z" class="a"/><path d="M317.57 51.45c5.17-3.33 7.18-9.13 11.6-13.16l-3.1.72c5.45 4.37 9.1 10.45 14.07 15.31.58.58 3.6-.69 3.18-1.1-5-4.87-8.61-10.94-14.07-15.32-.62-.5-2.61.27-3.11.72-4.24 3.85-6.21 9.66-11.12 12.83-1.36.88 2 .35 2.55 0" class="a"/><path d="m281.43.35-37.52 101.5" class="b"/><circle cx="177.17" cy="41.41" r="2.45" class="a"/><path d="M39.75 39.05a13.71 13.71 0 0 0-27.27 0A13.71 13.71 0 0 0 14 66.42h12.11a7.66 7.66 0 1 0 0-15.31 4.47 4.47 0 0 1 0-8.94 4.4 4.4 0 0 1 3.13 1.3 1.59 1.59 0 0 0 2.3-2.21 7.66 7.66 0 1 0-5.42 13.05 4.47 4.47 0 0 1 0 8.94H14a10.53 10.53 0 1 1 0-21.06 1.6 1.6 0 0 0 1.59-1.6 10.53 10.53 0 0 1 21.06 0 1.6 1.6 0 0 0 1.6 1.6 10.53 10.53 0 1 1 0 21.06 1.6 1.6 0 1 0 0 3.19A13.72 13.72 0 0 0 39.75 39Zm30.91 17.14c-.78-.32-1.49-.55-2.51-.9-1.84-.59-3.64-1.26-3.64-2.78s1.18-2.31 3-2.31a6.8 6.8 0 0 1 4.7 2l1.57-2.32a8.2 8.2 0 0 0-6.34-2.42c-3.29 0-6.27 1.88-6.27 5.32a4.8 4.8 0 0 0 2.93 4.46 14 14 0 0 0 2.55 1c1.25.43 4.19 1.06 4.19 3.11S69 64 67.26 64a7.7 7.7 0 0 1-5.49-2.66L60 63.52a9 9 0 0 0 7.24 3.33 8 8 0 0 0 5.17-1.65A5.3 5.3 0 0 0 74.3 61a4.6 4.6 0 0 0-1.49-3.45 7 7 0 0 0-2.15-1.36m13.61-8.73a14.4 14.4 0 0 0-7 1.88l1.14 2.5a11.4 11.4 0 0 1 5.6-1.6c2.7 0 4.62 1.41 4.62 4.22v.75l-5 .2c-4.31.19-7.27 2-7.27 5.67s3 5.75 6.41 5.75a7.6 7.6 0 0 0 5.92-2.76v2.35h3.63V55.6c0-3.17-.74-4.74-2-6s-2.96-2.14-6.05-2.14m4.43 14a5.9 5.9 0 0 1-4.7 2.71c-2.43 0-3.84-1.45-3.84-3.21s1.22-3.05 4.23-3.21l4.35-.27Zm25.52-14a9.23 9.23 0 0 0-9.43 9.63c0 5.87 3.79 9.74 9.31 9.74s8-2.74 8.18-2.93l-1.56-2.16a10.3 10.3 0 0 1-6.15 2.16c-3.45 0-5.79-2.23-6-5.91h14.33a15 15 0 0 0 .12-1.65 8.5 8.5 0 0 0-8.8-8.88m-5.6 8a5.47 5.47 0 0 1 5.49-5.32 5.4 5.4 0 0 1 5.36 5.32Zm26.44.73c-.78-.32-1.49-.55-2.5-.9-1.85-.59-3.64-1.26-3.64-2.78s1.17-2.31 3-2.31a6.8 6.8 0 0 1 4.7 2l1.57-2.32a8.1 8.1 0 0 0-6.34-2.42c-3.29 0-6.27 1.88-6.27 5.32a4.8 4.8 0 0 0 2.93 4.46 14 14 0 0 0 2.55 1c1.25.43 4.19 1.06 4.19 3.1s-1.87 2.66-3.6 2.66a7.7 7.7 0 0 1-5.48-2.66l-1.81 2.19a9 9 0 0 0 7.25 3.32 8 8 0 0 0 5.16-1.64 5.3 5.3 0 0 0 1.92-4.21 4.6 4.6 0 0 0-1.49-3.44 7 7 0 0 0-2.14-1.37m16.04-8.73a7.9 7.9 0 0 0-6.59 3.29h-.08v-2.94h-3.6v25.67h3.76v-10a7.2 7.2 0 0 0 6.41 3.35c5.52 0 9.05-4.22 9.05-9.74s-3.47-9.63-8.95-9.63m-.78 16.16c-3.72 0-5.91-2.85-5.91-6.57s2.19-6.54 5.91-6.54 5.91 2.82 5.91 6.54-2.23 6.57-5.91 6.57m24.99-15.81h3.76V66.4h-3.76zm16.43-.35a6.3 6.3 0 0 0-5.69 3.29h-.11v-2.94h-3.76v18.61H186v-9.37c0-3.56 1.29-6.5 4.77-6.5s3.88 2.35 3.88 5.49v10.38h3.75v-11c0-4.48-1.4-7.96-6.66-7.96m24.26.35v2.94a7.4 7.4 0 0 0-6.5-3.29c-4.77 0-9 3.44-9 9.35s4.19 9.36 9 9.36a7.5 7.5 0 0 0 6.5-3.33v.73a8.3 8.3 0 0 1-1.41 5.21 6.3 6.3 0 0 1-5.09 2 12 12 0 0 1-6.66-2.35l-1.76 2.62a14.3 14.3 0 0 0 8.29 2.78c4.62 0 6.93-1.88 8.31-3.57s2-3.92 2-8V47.81Zm-5.75 15.29c-3.8 0-5.91-2.78-5.91-6.31s2.11-6.34 5.91-6.34 5.91 2.82 5.91 6.34-2.07 6.33-5.91 6.33ZM96.83 41c-.79 1-1.26 2.54-1.26 5v20.42h3.72V50.86h4.42v-3h-4.42v-2.08c0-2.12.39-4 2.86-4a8 8 0 0 1 1.57.2v-2.8a12 12 0 0 0-2.43-.22A5.6 5.6 0 0 0 96.83 41M166 50.67h-.12v-2.86h-3.76v18.61h3.76v-9.29a8.3 8.3 0 0 1 1.13-4.71 4 4 0 0 1 3.06-1.56 5 5 0 0 1 2 .39v-3.61a6 6 0 0 0-1.56-.19 4.9 4.9 0 0 0-4.51 3.22" class="a"/></svg>