<svg xmlns="http://www.w3.org/2000/svg" viewBox="0 0 394.76 102.19"><defs><style>.a{fill:#fff;}.b{fill:none;stroke:#fff;stroke-miterlimit:10;stroke-width:2px;}</style></defs><path class="a" d="M312,59.77c3.43,0,6,1.6,6,4.76,0,2.86-2.39,4.55-4.68,5.92s-4.26,2.34-4.28,4l9.08,0V77H305.76v-1.3c0-4.13,3.06-5.7,5.63-7.22,2-1.14,3.68-2,3.68-3.93,0-1.47-1.27-2.24-3.36-2.24a9.2,9.2,0,0,0-5.38,1.89V61.49A9.81,9.81,0,0,1,312,59.77Z"/><path class="a" d="M328,59.77c5.25,0,7.59,3.84,7.59,8.79s-2.34,8.79-7.59,8.79-7.59-3.83-7.59-8.79S322.79,59.77,328,59.77Zm0,2.59c-3.26,0-4.73,2.27-4.73,6.2s1.47,6.2,4.73,6.2,4.73-2.26,4.73-6.2S331.28,62.36,328,62.36Z"/><path class="a" d="M344.1,59.77c3.43,0,5.95,1.6,5.95,4.76,0,2.86-2.39,4.55-4.68,5.92s-4.26,2.34-4.29,4l9.09,0V77H337.9v-1.3c0-4.13,3.06-5.7,5.62-7.22,2-1.14,3.69-2,3.69-3.93,0-1.47-1.27-2.24-3.36-2.24a9.2,9.2,0,0,0-5.38,1.89V61.49A9.81,9.81,0,0,1,344.1,59.77Z"/><path class="a" d="M360.63,60.1V74.46h3V77h-9.21V74.46h3.38V63l-3.38,1.27V61.67l4.11-1.57Z"/><path class="a" d="M367.66,77.3a1.62,1.62,0,1,1,0-3.24,1.62,1.62,0,1,1,0,3.24Z"/><path class="a" d="M371.83,77,379.2,59.6h3.11L389.66,77h-3l-1.55-3.76h-8.73L374.84,77Zm5.53-6.25h6.77l-3.06-7.45c-.1-.27-.2-.54-.33-1-.12.43-.22.7-.32,1Z"/><path class="a" d="M394.76,59.6V77h-2.84V59.6Z"/><path class="a" d="M357.33,42.38a10.16,10.16,0,0,0,4.88-3.49c1.47-2,2.19-4,4.33-5.54l-2.89.46c3.82,3.3,5.13,8.67,8.74,12.2,3.29,3.21,9,5.22,13.51,5.31,1.07,0,3.65-1.58,1.39-1.62a19.3,19.3,0,0,1-12.64-5.85c-3.08-3.4-4.33-8.24-7.85-11.27-.71-.61-2.27,0-2.9.46-3.23,2.23-4.1,6.86-7.81,8.28-2.23.85-.15,1.59,1.24,1.06Z"/><path class="a" d="M334.12,41.88c4.63-5,8.51-9.84,10.63-16.38l-3.25.87c2,2.81,2.84,6.22,5.41,8.66,1.11,1.06,2.48,1.48,3.4,2.74a49.31,49.31,0,0,1,3,5.3c1.71,3.09,4.1,5.47,6.52,8a9.89,9.89,0,0,0,8.23,3.39c1.07-.06,3.64-1.77,1.38-1.65-4,.22-6.24-2.74-8.75-5.42a39.37,39.37,0,0,1-5.81-8.52,25.71,25.71,0,0,0-1.7-2.75c-.9-1.23-2.58-1.82-3.69-2.88-2.25-2.14-3-5.6-4.83-8.11-.54-.75-3,.11-3.25.87-2.06,6.39-5.86,11.13-10.38,16-.86.92,2.46.6,3.1-.09Z"/><path class="a" d="M317.57,51.45c5.17-3.33,7.18-9.13,11.6-13.16l-3.1.72c5.45,4.37,9.1,10.45,14.07,15.31.58.58,3.6-.69,3.18-1.1-5-4.87-8.61-10.94-14.07-15.32-.62-.5-2.61.27-3.11.72-4.24,3.85-6.21,9.66-11.12,12.83-1.36.88,2,.35,2.55,0Z"/><line class="b" x1="281.43" y1="0.35" x2="243.91" y2="101.85"/><circle class="a" cx="177.17" cy="41.41" r="2.45"/><path class="a" d="M39.75,39.05a13.71,13.71,0,0,0-27.27,0A13.71,13.71,0,0,0,14,66.42H26.11a7.66,7.66,0,1,0,0-15.31,4.47,4.47,0,0,1,0-8.94,4.42,4.42,0,0,1,3.13,1.3,1.59,1.59,0,0,0,2.3-2.21l0,0a7.66,7.66,0,1,0-5.42,13.05,4.47,4.47,0,0,1,0,8.94H14a10.53,10.53,0,1,1,0-21.06,1.6,1.6,0,0,0,1.59-1.6,10.53,10.53,0,0,1,21.06,0h0a1.6,1.6,0,0,0,1.6,1.6,10.53,10.53,0,1,1,0,21.06h0a1.6,1.6,0,1,0,0,3.19A13.72,13.72,0,0,0,39.75,39Z"/><path class="a" d="M70.66,56.19c-.78-.32-1.49-.55-2.51-.9-1.84-.59-3.64-1.26-3.64-2.78s1.18-2.31,3-2.31a6.76,6.76,0,0,1,4.7,2l1.57-2.32a8.15,8.15,0,0,0-6.34-2.42c-3.29,0-6.27,1.88-6.27,5.32a4.79,4.79,0,0,0,2.93,4.46,13.66,13.66,0,0,0,2.55,1c1.25.43,4.19,1.06,4.19,3.11S69,64,67.26,64a7.65,7.65,0,0,1-5.49-2.66L60,63.52a8.93,8.93,0,0,0,7.24,3.33,7.91,7.91,0,0,0,5.17-1.65A5.3,5.3,0,0,0,74.3,61a4.56,4.56,0,0,0-1.49-3.45A7.07,7.07,0,0,0,70.66,56.19Z"/><path class="a" d="M84.27,47.46a14.36,14.36,0,0,0-7,1.88l1.14,2.5a11.39,11.39,0,0,1,5.6-1.6c2.7,0,4.62,1.41,4.62,4.22v.75l-5,.2c-4.31.19-7.27,2-7.27,5.67s3,5.75,6.41,5.75a7.62,7.62,0,0,0,5.92-2.76l0,2.35h3.63V55.6c0-3.17-.74-4.74-2-6S87.36,47.46,84.27,47.46Zm4.43,14A5.86,5.86,0,0,1,84,64.17c-2.43,0-3.84-1.45-3.84-3.21s1.22-3.05,4.23-3.21l4.35-.27Z"/><path class="a" d="M114.22,47.46a9.23,9.23,0,0,0-9.43,9.63c0,5.87,3.79,9.74,9.31,9.74s8-2.74,8.18-2.93l-1.56-2.16a10.26,10.26,0,0,1-6.15,2.16c-3.45,0-5.79-2.23-6-5.91h14.33a15.26,15.26,0,0,0,.12-1.65A8.49,8.49,0,0,0,114.22,47.46Zm-5.6,8a5.47,5.47,0,0,1,5.49-5.32,5.39,5.39,0,0,1,5.36,5.32Z"/><path class="a" d="M135.06,56.19c-.78-.32-1.49-.55-2.5-.9-1.85-.59-3.64-1.26-3.64-2.78s1.17-2.31,3-2.31a6.81,6.81,0,0,1,4.7,2l1.57-2.32a8.13,8.13,0,0,0-6.34-2.42c-3.29,0-6.27,1.88-6.27,5.32a4.79,4.79,0,0,0,2.93,4.46,14.23,14.23,0,0,0,2.55,1c1.25.43,4.19,1.06,4.19,3.1S133.38,64,131.65,64a7.65,7.65,0,0,1-5.48-2.66l-1.81,2.19a8.94,8.94,0,0,0,7.25,3.32,7.89,7.89,0,0,0,5.16-1.64A5.28,5.28,0,0,0,138.69,61a4.56,4.56,0,0,0-1.49-3.44A6.87,6.87,0,0,0,135.06,56.19Z"/><path class="a" d="M151.1,47.46a7.86,7.86,0,0,0-6.59,3.29h-.08V47.81h-3.6V73.48h3.76v-10l0,0A7.23,7.23,0,0,0,151,66.83c5.52,0,9.05-4.22,9.05-9.74S156.58,47.46,151.1,47.46Zm-.78,16.16c-3.72,0-5.91-2.85-5.91-6.57s2.19-6.54,5.91-6.54,5.91,2.82,5.91,6.54S154,63.62,150.32,63.62Z"/><rect class="a" x="175.31" y="47.81" width="3.76" height="18.59"/><path class="a" d="M191.74,47.46a6.26,6.26,0,0,0-5.69,3.29h-.11l0-2.94h-3.76V66.42H186V57.05c0-3.56,1.29-6.5,4.77-6.5s3.88,2.35,3.88,5.49V66.42h3.75v-11C198.4,50.94,197,47.46,191.74,47.46Z"/><path class="a" d="M216,47.81l0,2.94H216a7.41,7.41,0,0,0-6.5-3.29c-4.77,0-9,3.44-9,9.35s4.19,9.36,9,9.36a7.45,7.45,0,0,0,6.5-3.33H216v.73a8.3,8.3,0,0,1-1.41,5.21,6.33,6.33,0,0,1-5.09,2,11.8,11.8,0,0,1-6.66-2.35l-1.76,2.62a14.31,14.31,0,0,0,8.29,2.78c4.62,0,6.93-1.88,8.31-3.57s2-3.92,2-8V47.81ZM210.25,63.1c-3.8,0-5.91-2.78-5.91-6.31s2.11-6.34,5.91-6.34,5.91,2.82,5.91,6.34-2.07,6.33-5.91,6.33Z"/><path class="a" d="M96.83,41c-.79,1-1.26,2.54-1.26,5V66.42h3.72V50.86h4.42v-3H99.29V45.78c0-2.12.39-4,2.86-4a7.59,7.59,0,0,1,1.57.2V39.18a12.41,12.41,0,0,0-2.43-.22A5.61,5.61,0,0,0,96.83,41Z"/><path class="a" d="M166,50.67h-.12l0-2.86h-3.76V66.42h3.76V57.13a8.34,8.34,0,0,1,1.13-4.71,3.92,3.92,0,0,1,3.06-1.56,4.71,4.71,0,0,1,2,.39V47.64a5.85,5.85,0,0,0-1.56-.19A4.87,4.87,0,0,0,166,50.67Z"/></svg>