<svg xmlns="http://www.w3.org/2000/svg" viewBox="0 0 470.1 101.85"><defs><style>.a{fill:#fff;}.b{fill:none;stroke:#fff;stroke-miterlimit:10;}</style></defs><circle class="a" cx="177.17" cy="41.24" r="2.45"/><path class="a" d="M39.75,38.87a13.72,13.72,0,0,0-27.27,0A13.72,13.72,0,0,0,14,66.25H26.11a7.66,7.66,0,1,0,0-15.32,4.47,4.47,0,1,1,3.16-7.64,1.59,1.59,0,1,0,2.3-2.21l0,0A7.66,7.66,0,1,0,26.12,54.1a4.47,4.47,0,1,1,0,8.94H14A10.54,10.54,0,0,1,14,42a1.59,1.59,0,0,0,1.59-1.59,10.53,10.53,0,1,1,21.06,0h0A1.6,1.6,0,0,0,38.24,42a10.54,10.54,0,0,1,0,21.07h0a1.6,1.6,0,1,0,0,3.19,13.72,13.72,0,0,0,1.51-27.36Z"/><path class="a" d="M70.66,56c-.78-.31-1.49-.55-2.51-.9-1.84-.58-3.64-1.25-3.64-2.78s1.18-2.31,3-2.31a6.81,6.81,0,0,1,4.7,2l1.57-2.31a8.15,8.15,0,0,0-6.34-2.43c-3.29,0-6.27,1.88-6.27,5.33a4.8,4.8,0,0,0,2.93,4.46,13.66,13.66,0,0,0,2.55,1c1.25.43,4.19,1.05,4.19,3.1S69,63.82,67.26,63.82a7.67,7.67,0,0,1-5.49-2.67L60,63.35a8.92,8.92,0,0,0,7.24,3.32A7.9,7.9,0,0,0,72.38,65,5.31,5.31,0,0,0,74.3,60.8a4.54,4.54,0,0,0-1.49-3.44A7.09,7.09,0,0,0,70.66,56Z"/><path class="a" d="M84.27,47.28a14.47,14.47,0,0,0-7,1.88l1.14,2.51A11.5,11.5,0,0,1,84,50.06c2.7,0,4.62,1.41,4.62,4.23V55l-5,.19c-4.31.19-7.27,2-7.27,5.68s3,5.75,6.41,5.75a7.65,7.65,0,0,0,5.92-2.76l0,2.35h3.63V55.42c0-3.17-.74-4.73-2-6S87.36,47.28,84.27,47.28Zm4.43,14A5.88,5.88,0,0,1,84,64c-2.43,0-3.84-1.45-3.84-3.21s1.22-3,4.23-3.21l4.35-.27Z"/><path class="a" d="M114.22,47.28a9.23,9.23,0,0,0-9.43,9.63c0,5.88,3.79,9.75,9.31,9.75s8-2.74,8.18-2.93l-1.56-2.16a10.33,10.33,0,0,1-6.15,2.16c-3.45,0-5.79-2.23-6-5.91h14.33a15.26,15.26,0,0,0,.12-1.65A8.49,8.49,0,0,0,114.22,47.28Zm-5.6,8A5.48,5.48,0,0,1,114.11,50a5.39,5.39,0,0,1,5.36,5.33Z"/><path class="a" d="M135.06,56c-.78-.31-1.49-.55-2.5-.9-1.85-.58-3.64-1.25-3.64-2.78s1.17-2.31,3-2.31a6.85,6.85,0,0,1,4.7,2l1.57-2.31a8.13,8.13,0,0,0-6.34-2.43c-3.29,0-6.27,1.88-6.27,5.33a4.8,4.8,0,0,0,2.93,4.46,14.23,14.23,0,0,0,2.55,1c1.25.43,4.19,1.05,4.19,3.09s-1.84,2.66-3.57,2.66a7.61,7.61,0,0,1-5.48-2.66l-1.81,2.19a8.92,8.92,0,0,0,7.25,3.33A8,8,0,0,0,136.77,65a5.28,5.28,0,0,0,1.92-4.23,4.58,4.58,0,0,0-1.49-3.45A7.06,7.06,0,0,0,135.06,56Z"/><path class="a" d="M151.1,47.28a7.89,7.89,0,0,0-6.59,3.29h-.08V47.64h-3.6V73.31h3.76v-10l0,0A7.22,7.22,0,0,0,151,66.66c5.52,0,9.05-4.23,9.05-9.75S156.58,47.28,151.1,47.28Zm-.78,16.17c-3.72,0-5.91-2.86-5.91-6.58s2.19-6.53,5.91-6.53,5.91,2.81,5.91,6.53S154,63.45,150.32,63.45Z"/><rect class="a" x="175.31" y="47.64" width="3.76" height="18.59"/><path class="a" d="M191.74,47.28a6.3,6.3,0,0,0-5.69,3.29h-.11l0-2.93h-3.76V66.25H186V56.87c0-3.56,1.29-6.49,4.77-6.49s3.88,2.35,3.88,5.48V66.25h3.75v-11C198.4,50.77,197,47.28,191.74,47.28Z"/><path class="a" d="M216,47.64l0,2.93H216a7.43,7.43,0,0,0-6.5-3.29c-4.77,0-9,3.45-9,9.36s4.19,9.36,9,9.36a7.45,7.45,0,0,0,6.5-3.33H216v.73a8.32,8.32,0,0,1-1.41,5.21,6.33,6.33,0,0,1-5.09,2,11.8,11.8,0,0,1-6.66-2.35l-1.76,2.62a14.17,14.17,0,0,0,8.29,2.78c4.62,0,6.93-1.87,8.31-3.56s2-3.92,2-8V47.64Zm-5.79,15.28c-3.8,0-5.91-2.78-5.91-6.3s2.11-6.34,5.91-6.34,5.91,2.82,5.91,6.34-2.07,6.32-5.91,6.32Z"/><path class="a" d="M96.83,40.82c-.79,1-1.26,2.55-1.26,5V66.25h3.72V50.69h4.42v-3H99.29V45.6c0-2.11.39-4,2.86-4a7,7,0,0,1,1.57.2V39a11.69,11.69,0,0,0-2.43-.22A5.64,5.64,0,0,0,96.83,40.82Z"/><path class="a" d="M166,50.49h-.12l0-2.85h-3.76V66.25h3.76V57a8.29,8.29,0,0,1,1.13-4.7,4,4,0,0,1,3.06-1.57,5,5,0,0,1,2,.39V47.46a5.84,5.84,0,0,0-1.56-.18A4.86,4.86,0,0,0,166,50.49Z"/><line class="b" x1="281.43" y1="0.17" x2="243.91" y2="101.67"/><path class="a" d="M454.13,55.82c-.2,3.47,1.59,7.13,5.73,7.63a8.33,8.33,0,0,0,6.44-1.67l.19-.12,1.62,2.75a17,17,0,0,1-1.67,1,13.48,13.48,0,0,1-8.81,1,9.09,9.09,0,0,1-6.4-5.32,12.68,12.68,0,0,1,.36-11.56,9.29,9.29,0,0,1,7.06-5.11c3.4-.48,6.57.11,9.09,2.69A8.15,8.15,0,0,1,470,51.86a10.61,10.61,0,0,1-.08,3.51c-.07.34-.19.46-.56.46-4.87,0-9.74,0-14.61,0Zm6.11-2.71h5.65c.31,0,.47-.09.4-.41a9.84,9.84,0,0,0-.5-2.11,5.28,5.28,0,0,0-4.62-3.15,6.2,6.2,0,0,0-6.94,5.18c-.06.46.09.5.46.49Z"/><path class="a" d="M445.31,45.7l-1.07,3.48c-.36-.24-.67-.47-1-.67a6.28,6.28,0,0,0-4.84-.95,2.33,2.33,0,0,0-2,3,2.93,2.93,0,0,0,1.4,1.84c.71.42,1.47.77,2.22,1.12A23.64,23.64,0,0,1,444,55.66a6,6,0,0,1-2.45,10.7,12.84,12.84,0,0,1-9.17-1.26l-.13-.11,1.31-3.53.63.39a11.27,11.27,0,0,0,3.9,1.63,5.14,5.14,0,0,0,2.66-.29,2.9,2.9,0,0,0,.71-4.72A12.19,12.19,0,0,0,439.22,57c-1.07-.6-2.22-1.07-3.3-1.66a6.33,6.33,0,0,1-3.31-3.74,5.21,5.21,0,0,1,3.49-6.78,10.21,10.21,0,0,1,6.62,0C443.58,45.08,444.43,45.39,445.31,45.7Z"/><path class="a" d="M427,38.76a2.31,2.31,0,0,1-2.34,2.34,2.34,2.34,0,1,1,0-4.68A2.37,2.37,0,0,1,427,38.76Z"/><path class="a" d="M426.36,55.46V65.69c0,.59,0,.59-.6.59h-2.58c-.6,0-.6,0-.6-.61V48.37c0-.56,0-.56-.56-.56s-1.35,0-2,0c-.27,0-.39-.07-.39-.36,0-.82,0-1.63,0-2.45,0-.26.1-.36.36-.35,2,0,4,0,6,0,.42,0,.36.27.36.52Z"/><path class="a" d="M396.85,44.59c1.34,0,2.63,0,3.92,0,.12,0,.28.24.34.4q1.62,4.26,3.22,8.52c.73,1.92,1.45,3.83,2.17,5.75.06.14.13.28.23.52.1-.24.18-.39.24-.55q2.76-7.11,5.49-14.23a.58.58,0,0,1,.65-.44c1.13,0,2.27,0,3.46,0-.12.28-.2.5-.29.72q-4.5,10.47-9,20.92a.63.63,0,0,1-.69.47.64.64,0,0,1-.69-.47Q401.46,55.6,397,45C396.94,44.88,396.91,44.76,396.85,44.59Z"/><path class="a" d="M386.92,38.67v1c0,1.49,0,3,0,4.47,0,.41.13.51.51.51,1.67,0,3.34,0,5,0,.37,0,.47.11.46.47,0,.67,0,1.34,0,2,0,.35-.1.47-.46.47-1.62,0-3.25,0-4.87,0-.2,0-.4,0-.63,0v.5c0,3.52,0,7,0,10.55a9.8,9.8,0,0,0,.25,2.16,3.14,3.14,0,0,0,3.35,2.67,8.19,8.19,0,0,0,1.71-.16,15.81,15.81,0,0,0,1.65-.49l.36,2c0,.19.05.39.09.59.12.68.21.57-.54.74a17.06,17.06,0,0,1-5.13.42,5.7,5.7,0,0,1-4.95-3.74,6.46,6.46,0,0,1-.53-2.45c-.06-4,0-8.09,0-12.14,0-.76.11-.73-.76-.73H381c-.25,0-.37-.1-.36-.35,0-.76,0-1.53,0-2.29,0-.25.13-.31.35-.3.58,0,1.15,0,1.73,0,.35,0,.48-.11.47-.47,0-1.23,0-2.46,0-3.7a.51.51,0,0,1,.39-.56c1-.35,1.93-.74,2.89-1.11Z"/><path class="a" d="M377.87,44.6l-1.52,3.53a20.54,20.54,0,0,0-2.07-.66,3.82,3.82,0,0,0-3.39,1.09,6.53,6.53,0,0,0-2.25,5q0,6.1,0,12.22c0,.42-.12.54-.54.53-.94,0-1.89,0-2.84,0-.35,0-.45-.12-.44-.44,0-.92,0-1.84,0-2.76V45.28c0-.62,0-.62.64-.62h3.15V48l.11,0,.24-.35a6.71,6.71,0,0,1,4.53-3.27A12.26,12.26,0,0,1,377.87,44.6Z"/><path class="a" d="M470.1,74v3.16h-130a23,23,0,0,1-8.19-1.3,17.85,17.85,0,0,1-11.77-13.29,21.51,21.51,0,0,1,10.07-23.29,19.28,19.28,0,0,1,8.13-2.59,20.26,20.26,0,0,1,11.92,2.38,18,18,0,0,1,9,12,19.19,19.19,0,0,1-.08,9.61A11.14,11.14,0,0,1,357.75,64a6.56,6.56,0,0,1-7.8,2.43,7.35,7.35,0,0,1-3.43-3.2c-.52-.86-1-1.73-1.48-2.62a.84.84,0,0,0-.93-.53c-2.11.08-4.22.11-6.33.16-.78,0-1.55.06-2.33.06-.29,0-.4.16-.5.38l-2.34,4.88c-.06.13-.13.25-.21.43L329,64a1.49,1.49,0,0,1,.11-.28q5-9,9.94-18.1l.24-.41c.38-.65,1-.66,1.36,0,2.71,4.79,5.41,9.59,8.14,14.37a17.73,17.73,0,0,0,2.09,3c1.39,1.55,3.28,1.19,4.19-.68a9.5,9.5,0,0,0,.79-3.28,18.59,18.59,0,0,0-.25-5.86c-1.34-6-4.75-10.28-10.63-12.27a15.64,15.64,0,0,0-18.16,6.65,19.43,19.43,0,0,0-2.91,9.42,17,17,0,0,0,2.51,10.22,14.84,14.84,0,0,0,10.43,6.92,20.09,20.09,0,0,0,3.29.26q64.65,0,129.3,0ZM339.83,50.41l-3.44,6.81h7Z"/></svg>