<svg xmlns="http://www.w3.org/2000/svg" viewBox="0 0 407.93 102.19"><defs><style>.a{fill:#fff}.b{fill:none;stroke:#fff;stroke-miterlimit:10;stroke-width:2px}</style></defs><circle cx="177.17" cy="41.41" r="2.45" class="a"/><path d="M39.75 39.05a13.71 13.71 0 0 0-27.27 0A13.71 13.71 0 0 0 14 66.42h12.11a7.66 7.66 0 1 0 0-15.31 4.47 4.47 0 0 1 0-8.94 4.4 4.4 0 0 1 3.13 1.3 1.59 1.59 0 0 0 2.3-2.21 7.66 7.66 0 1 0-5.42 13.05 4.47 4.47 0 0 1 0 8.94H14a10.53 10.53 0 1 1 0-21.06 1.6 1.6 0 0 0 1.59-1.6 10.53 10.53 0 0 1 21.06 0 1.6 1.6 0 0 0 1.6 1.6 10.53 10.53 0 1 1 0 21.06 1.6 1.6 0 1 0 0 3.19A13.72 13.72 0 0 0 39.75 39Zm30.91 17.14c-.78-.32-1.49-.55-2.51-.9-1.84-.59-3.64-1.26-3.64-2.78s1.18-2.31 3-2.31a6.8 6.8 0 0 1 4.7 2l1.57-2.32a8.2 8.2 0 0 0-6.34-2.42c-3.29 0-6.27 1.88-6.27 5.32a4.8 4.8 0 0 0 2.93 4.46 14 14 0 0 0 2.55 1c1.25.43 4.19 1.06 4.19 3.11S69 64 67.26 64a7.7 7.7 0 0 1-5.49-2.66L60 63.52a9 9 0 0 0 7.24 3.33 8 8 0 0 0 5.17-1.65A5.3 5.3 0 0 0 74.3 61a4.6 4.6 0 0 0-1.49-3.45 7 7 0 0 0-2.15-1.36m13.61-8.73a14.4 14.4 0 0 0-7 1.88l1.14 2.5a11.4 11.4 0 0 1 5.6-1.6c2.7 0 4.62 1.41 4.62 4.22v.75l-5 .2c-4.31.19-7.27 2-7.27 5.67s3 5.75 6.41 5.75a7.6 7.6 0 0 0 5.92-2.76v2.35h3.63V55.6c0-3.17-.74-4.74-2-6s-2.96-2.14-6.05-2.14m4.43 14a5.9 5.9 0 0 1-4.7 2.71c-2.43 0-3.84-1.45-3.84-3.21s1.22-3.05 4.23-3.21l4.35-.27Zm25.52-14a9.23 9.23 0 0 0-9.43 9.63c0 5.87 3.79 9.74 9.31 9.74s8-2.74 8.18-2.93l-1.56-2.16a10.3 10.3 0 0 1-6.15 2.16c-3.45 0-5.79-2.23-6-5.91h14.33a15 15 0 0 0 .12-1.65 8.5 8.5 0 0 0-8.8-8.88m-5.6 8a5.47 5.47 0 0 1 5.49-5.32 5.4 5.4 0 0 1 5.36 5.32Zm26.44.73c-.78-.32-1.49-.55-2.5-.9-1.85-.59-3.64-1.26-3.64-2.78s1.17-2.31 3-2.31a6.8 6.8 0 0 1 4.7 2l1.57-2.32a8.1 8.1 0 0 0-6.34-2.42c-3.29 0-6.27 1.88-6.27 5.32a4.8 4.8 0 0 0 2.93 4.46 14 14 0 0 0 2.55 1c1.25.43 4.19 1.06 4.19 3.1s-1.87 2.66-3.6 2.66a7.7 7.7 0 0 1-5.48-2.66l-1.81 2.19a9 9 0 0 0 7.25 3.32 8 8 0 0 0 5.16-1.64 5.3 5.3 0 0 0 1.92-4.21 4.6 4.6 0 0 0-1.49-3.44 7 7 0 0 0-2.14-1.37m16.04-8.73a7.9 7.9 0 0 0-6.59 3.29h-.08v-2.94h-3.6v25.67h3.76v-10a7.2 7.2 0 0 0 6.41 3.35c5.52 0 9.05-4.22 9.05-9.74s-3.47-9.63-8.95-9.63m-.78 16.16c-3.72 0-5.91-2.85-5.91-6.57s2.19-6.54 5.91-6.54 5.91 2.82 5.91 6.54-2.23 6.57-5.91 6.57m24.99-15.81h3.76V66.4h-3.76zm16.43-.35a6.3 6.3 0 0 0-5.69 3.29h-.11v-2.94h-3.76v18.61H186v-9.37c0-3.56 1.29-6.5 4.77-6.5s3.88 2.35 3.88 5.49v10.38h3.75v-11c0-4.48-1.4-7.96-6.66-7.96m24.26.35v2.94a7.4 7.4 0 0 0-6.5-3.29c-4.77 0-9 3.44-9 9.35s4.19 9.36 9 9.36a7.5 7.5 0 0 0 6.5-3.33v.73a8.3 8.3 0 0 1-1.41 5.21 6.3 6.3 0 0 1-5.09 2 12 12 0 0 1-6.66-2.35l-1.76 2.62a14.3 14.3 0 0 0 8.29 2.78c4.62 0 6.93-1.88 8.31-3.57s2-3.92 2-8V47.81Zm-5.75 15.29c-3.8 0-5.91-2.78-5.91-6.31s2.11-6.34 5.91-6.34 5.91 2.82 5.91 6.34-2.07 6.33-5.91 6.33ZM96.83 41c-.79 1-1.26 2.54-1.26 5v20.42h3.72V50.86h4.42v-3h-4.42v-2.08c0-2.12.39-4 2.86-4a8 8 0 0 1 1.57.2v-2.8a12 12 0 0 0-2.43-.22A5.6 5.6 0 0 0 96.83 41M166 50.67h-.12v-2.86h-3.76v18.61h3.76v-9.29a8.3 8.3 0 0 1 1.13-4.71 4 4 0 0 1 3.06-1.56 5 5 0 0 1 2 .39v-3.61a6 6 0 0 0-1.56-.19 4.9 4.9 0 0 0-4.51 3.22" class="a"/><path d="m281.43.35-37.52 101.5" class="b"/><path d="M348.63 43.5c.35-1 .69-1.92 1.06-2.88a62 62 0 0 1 9.59-17.34c4.43-5.42 9.81-9.48 16.8-10.9 6.55-1.34 12.92-1 18.71 2.79 5 3.25 7.71 7.88 7.48 14A20.3 20.3 0 0 1 398.32 40a40 40 0 0 1-12.72 11.54c-3.21 1.92-6.61 3.53-9.94 5.26a2 2 0 0 1-.88.19 34 34 0 0 0 9.39-8.33 16 16 0 0 0 3.52-9.87 12 12 0 0 0-6.67-11c-7-3.76-14-3.07-20.6 1.06-4.62 2.88-7.7 7.18-10.22 11.91q-.72 1.38-1.4 2.77Z" class="a"/><path d="M347 63c.35-1.71.62-3.23 1-4.73a40 40 0 0 1 4.85-12.38c2-3.23 4.57-5.92 8.34-7.11a11.5 11.5 0 0 1 8.52.36 7.1 7.1 0 0 1 3.71 9.82 16.6 16.6 0 0 1-6.54 7.04 46 46 0 0 1-14.3 5.78c-1.77.4-3.58.74-5.58 1.22" class="a"/><path d="M351 44.19c2.8-6.12 6.39-11.63 12.67-14.66 5.47-2.64 11.1-2.82 16.51.31a10.1 10.1 0 0 1 5.36 8.81 13.3 13.3 0 0 1-2.29 7.52 29 29 0 0 1-9.86 9.06c-1.64 1-3.4 1.78-5.1 2.67l-.12-.14a22 22 0 0 0 6.13-5.91c1.74-2.71 2.61-5.62 1.67-8.79-1.17-3.9-4.09-6-7.89-6.77-5.78-1.17-10.66.68-14.59 5-.85.94-1.57 2-2.35 3Zm-9 28.16c-.06-.85.35-.95.94-.91s1.41 0 2.25 0l-2 13.93h-3v-1a5 5 0 0 1-4.46.88 3.54 3.54 0 0 1-2.69-3.89c.23-2 .44-3.93.83-5.87a5.07 5.07 0 0 1 8.13-3.14m-.74 3.3a3 3 0 0 0-.46-1.05c-1-1-3.26-.43-3.55 1-.38 1.81-.59 3.67-.82 5.52a1.3 1.3 0 0 0 .31.91 2.1 2.1 0 0 0 2.13.46 1.84 1.84 0 0 0 1.62-1.49c.28-1.69.51-3.39.78-5.35Zm44.47 14.85c1-1.93 1.86-3.66 2.7-5.41a1.7 1.7 0 0 0 .12-1q-1.35-6.1-2.74-12.21v-.37h3.48l1.71 8.7 4.19-8.73h3.53l-2.23 4.49q-3.52 6.93-7 13.88a1 1 0 0 1-1.15.69c-.81-.08-1.62-.04-2.61-.04m-62.51-7.98-.41 2.87c-1.88 0-3.72.1-5.55 0-2.84-.2-4-1.92-3.61-5q.29-2.1.62-4.19a5.27 5.27 0 0 1 5.17-4.88 9 9 0 0 1 2.61.17 3.3 3.3 0 0 1 2.77 2.75c.27 1.75-.06 3.41-1.74 4.36a29 29 0 0 1-3.56 1.52c-.66.26-1.34.44-2 .69-.23.09-.6.33-.59.45a1.4 1.4 0 0 0 .44.93 3 3 0 0 0 1.28.31c1.5.04 3 .02 4.57.02m-5.86-4.71c1.27-.45 2.41-.84 3.54-1.26a1.24 1.24 0 0 0 .84-1.42c-.1-.65-.62-.89-1.23-1-1.92-.21-2.79.5-3 2.43-.02.44-.08.76-.15 1.25m38.23-6.62-.43 3h-4.12c-.68 0-1.49 0-1.67.82s.65 1.09 1.23 1.38c.75.39 1.55.68 2.3 1.08a4 4 0 0 1 .11 7 7 7 0 0 1-2.69.93c-1.88.14-3.78 0-5.7 0l.42-2.84h3.85a9 9 0 0 0 1.19 0c.64-.09 1.23-.28 1.39-1s-.29-1.12-.82-1.41-1.27-.62-1.91-.91c-2.19-1-3.06-2.22-2.85-4a4.1 4.1 0 0 1 3.78-3.64c1.93-.37 3.89-.32 5.92-.41m29.41.12-.42 2.85h-4.11c-.68 0-1.5 0-1.68.82s.65 1.08 1.24 1.38c.8.41 1.65.73 2.43 1.17a3.94 3.94 0 0 1 .19 6.71 7 7 0 0 1-2.89 1.07c-1.88.17-3.78 0-5.7 0l.4-2.84h4a4 4 0 0 0 1.5-.17 1.4 1.4 0 0 0 .85-.88 1.7 1.7 0 0 0-.5-1.22 7 7 0 0 0-1.48-.8 17 17 0 0 1-1.95-1 3.54 3.54 0 0 1 0-6 7 7 0 0 1 3.06-1.1 47 47 0 0 1 5.06.01m12 14.09.43-2.88h4.44c.8 0 1.66 0 2-1 .23-.74-.17-1.23-1.33-1.79a23 23 0 0 1-2.64-1.33 3.53 3.53 0 0 1 0-6 7 7 0 0 1 3.05-1.1 47 47 0 0 1 5.06 0l-.41 2.84h-3.52a5 5 0 0 0-1.51.15 1.3 1.3 0 0 0-.78.74c-.06.25.24.69.5.87a11 11 0 0 0 1.58.81q.84.4 1.65.83c2.74 1.55 2.23 5.16.31 6.6a6 6 0 0 1-3.46 1.22c-1.81.09-3.54.04-5.37.04m-68.47-16.49h-2l.4-2.87h5.4L330 82.52h2.34l-.41 2.82h-8.06l.41-2.8h2.36Zm30.97-.5h3.3l-.38 3h1.94c.61 0 .7.2.59.72s-.21 1.28-.32 2H362l-1.05 7.4c-.1.73.36 1 1 1h2.4l-.38 2.9c-1.55-.06-3.12.24-4.66-.32a2.67 2.67 0 0 1-1.68-3.22l1.06-7.69h-2.55l.41-2.88h2.55Zm13.12 2.91c-.53 3.75-1 7.43-1.57 11.19h2.36l-.41 2.86h-8.07l.41-2.87h2.35l1.15-8.33h-2l.4-2.85Zm-2.55-5.7h3.33l-.48 3.58h-3.36Zm-18.92-21.3-.17.24h-.1l.13-.33Z" class="a"/><path d="m368.3 57.9-.3.1v-.1l.25-.17Z" class="a"/></svg>