<svg xmlns="http://www.w3.org/2000/svg" viewBox="0 0 523.75 102.19"><defs><style>.a{fill:#fff}.b{fill:none;stroke:#fff;stroke-miterlimit:10;stroke-width:2px}</style></defs><path d="M345.75 75.62h-42.16V35.45h42.16Zm-2.08-2.21V37.62h-38v35.79Zm137.99-17.62a10.61 10.61 0 1 1-10.61-10.26 10.34 10.34 0 0 1 10.61 10.26m-10.52-7.72a7.72 7.72 0 1 0 7.71 7.71 7.8 7.8 0 0 0-7.71-7.71m-50.33 17.69h-3l-2.13-4.69H405l-2.1 4.71h-2.89c1.52-3.41 3-6.71 4.45-10l4.45-10h3Zm-10.46-17.05-4.14 9.64h8.35Zm-37.64 1.18a11 11 0 0 0-6.3-1.7c-1.43.11-2.87.43-3.2 2.09s.83 2.65 2.25 3.22c1.74.69 3.55 1.23 5.3 1.92a4.9 4.9 0 0 1 3.49 4.9 5.4 5.4 0 0 1-3.64 5.05 11.3 11.3 0 0 1-11.72-2.61l1.18-2.23a11.5 11.5 0 0 0 5.18 2.7 7.4 7.4 0 0 0 3.62-.11 2.8 2.8 0 0 0 2.29-2.33 2.7 2.7 0 0 0-1.76-2.9c-.94-.45-2-.75-2.95-1.11-1.19-.44-2.43-.79-3.57-1.33a5 5 0 0 1 0-9c3.8-1.77 7.41-1 11 1Zm130.94-4.04c0 4.32.11 8.47 0 12.6-.16 4.62-3.27 7.47-8 7.61-5.14.14-8.63-2.42-8.95-7.1-.29-4.33-.06-8.7-.06-13.13h2.72v7.39c0 1.83-.06 3.66.13 5.47.33 3.24 2.53 4.94 6 4.82a5.13 5.13 0 0 0 5.38-5.32c.1-3.75 0-7.51 0-11.27v-1.07Zm-62.08-.03h13.78a6 6 0 0 1 .12 2.32h-11.16v6.21h9.75a5 5 0 0 1 .09 2.62h-9.88v6.38h11.5v2.37h-14.2Zm-46.24 15.32 1.53 1.65a10.6 10.6 0 0 1-15 .3 10.2 10.2 0 0 1-.11-14.46 10.77 10.77 0 0 1 15.08 0l-1.51 1.82c-4.48-3.22-8.76-3.16-11.71.1a7.73 7.73 0 0 0-.05 10.29c2.96 3.32 7.13 3.44 11.77.3m32.44-15.31v17.51h8.68v2.41H425V45.83Zm95.98.05v2.28h-6.4v17.51a9 9 0 0 1-2.84.12V48.26H508v-2.38Z" class="a"/><path d="M334.25 68.12a5 5 0 1 1 5.18-4.94 5.1 5.1 0 0 1-5.18 4.94m-20.81-.76c-.61-.69-1.2-1-1.49-1.79l23.28-22.19a5 5 0 0 1 1.68 1.62c-7.81 7.42-15.59 14.85-23.47 22.36m5.29-21a3.5 3.5 0 0 1-1.77.14l-.71-1.17a1.1 1.1 0 0 0-1.68.77c.29 1.16 1.33 1.29 2.15 1.69 1.66.8 2.37 2.11 1.92 3.56s-1.69 2-3.5 1.83a2.75 2.75 0 0 1-2.67-3c.48-.38 1-.16 1.56-.17.51.33.31 1.09.93 1.37 1 .15 1 .15 1.73-.59a1.44 1.44 0 0 0-1-1.53q-.38-.17-.77-.32-2.87-1.26-2.33-3.32a2.8 2.8 0 0 1 3-2.14c1.74 0 2.68.84 3.14 2.88" class="a"/><path d="m281.43.35-37.52 101.5" class="b"/><circle cx="177.17" cy="41.41" r="2.45" class="a"/><path d="M39.75 39.05a13.71 13.71 0 0 0-27.27 0A13.71 13.71 0 0 0 14 66.42h12.11a7.66 7.66 0 1 0 0-15.31 4.47 4.47 0 0 1 0-8.94 4.4 4.4 0 0 1 3.13 1.3 1.59 1.59 0 0 0 2.3-2.21 7.66 7.66 0 1 0-5.42 13.05 4.47 4.47 0 0 1 0 8.94H14a10.53 10.53 0 1 1 0-21.06 1.6 1.6 0 0 0 1.59-1.6 10.53 10.53 0 0 1 21.06 0 1.6 1.6 0 0 0 1.6 1.6 10.53 10.53 0 1 1 0 21.06 1.6 1.6 0 1 0 0 3.19A13.72 13.72 0 0 0 39.75 39Zm30.91 17.14c-.78-.32-1.49-.55-2.51-.9-1.84-.59-3.64-1.26-3.64-2.78s1.18-2.31 3-2.31a6.8 6.8 0 0 1 4.7 2l1.57-2.32a8.2 8.2 0 0 0-6.34-2.42c-3.29 0-6.27 1.88-6.27 5.32a4.8 4.8 0 0 0 2.93 4.46 14 14 0 0 0 2.55 1c1.25.43 4.19 1.06 4.19 3.11S69 64 67.26 64a7.7 7.7 0 0 1-5.49-2.66L60 63.52a9 9 0 0 0 7.24 3.33 8 8 0 0 0 5.17-1.65A5.3 5.3 0 0 0 74.3 61a4.6 4.6 0 0 0-1.49-3.45 7 7 0 0 0-2.15-1.36m13.61-8.73a14.4 14.4 0 0 0-7 1.88l1.14 2.5a11.4 11.4 0 0 1 5.6-1.6c2.7 0 4.62 1.41 4.62 4.22v.75l-5 .2c-4.31.19-7.27 2-7.27 5.67s3 5.75 6.41 5.75a7.6 7.6 0 0 0 5.92-2.76v2.35h3.63V55.6c0-3.17-.74-4.74-2-6s-2.96-2.14-6.05-2.14m4.43 14a5.9 5.9 0 0 1-4.7 2.71c-2.43 0-3.84-1.45-3.84-3.21s1.22-3.05 4.23-3.21l4.35-.27Zm25.52-14a9.23 9.23 0 0 0-9.43 9.63c0 5.87 3.79 9.74 9.31 9.74s8-2.74 8.18-2.93l-1.56-2.16a10.3 10.3 0 0 1-6.15 2.16c-3.45 0-5.79-2.23-6-5.91h14.33a15 15 0 0 0 .12-1.65 8.5 8.5 0 0 0-8.8-8.88m-5.6 8a5.47 5.47 0 0 1 5.49-5.32 5.4 5.4 0 0 1 5.36 5.32Zm26.44.73c-.78-.32-1.49-.55-2.5-.9-1.85-.59-3.64-1.26-3.64-2.78s1.17-2.31 3-2.31a6.8 6.8 0 0 1 4.7 2l1.57-2.32a8.1 8.1 0 0 0-6.34-2.42c-3.29 0-6.27 1.88-6.27 5.32a4.8 4.8 0 0 0 2.93 4.46 14 14 0 0 0 2.55 1c1.25.43 4.19 1.06 4.19 3.1s-1.87 2.66-3.6 2.66a7.7 7.7 0 0 1-5.48-2.66l-1.81 2.19a9 9 0 0 0 7.25 3.32 8 8 0 0 0 5.16-1.64 5.3 5.3 0 0 0 1.92-4.21 4.6 4.6 0 0 0-1.49-3.44 7 7 0 0 0-2.14-1.37m16.04-8.73a7.9 7.9 0 0 0-6.59 3.29h-.08v-2.94h-3.6v25.67h3.76v-10a7.2 7.2 0 0 0 6.41 3.35c5.52 0 9.05-4.22 9.05-9.74s-3.47-9.63-8.95-9.63m-.78 16.16c-3.72 0-5.91-2.85-5.91-6.57s2.19-6.54 5.91-6.54 5.91 2.82 5.91 6.54-2.23 6.57-5.91 6.57m24.99-15.81h3.76V66.4h-3.76zm16.43-.35a6.3 6.3 0 0 0-5.69 3.29h-.11v-2.94h-3.76v18.61H186v-9.37c0-3.56 1.29-6.5 4.77-6.5s3.88 2.35 3.88 5.49v10.38h3.75v-11c0-4.48-1.4-7.96-6.66-7.96m24.26.35v2.94a7.4 7.4 0 0 0-6.5-3.29c-4.77 0-9 3.44-9 9.35s4.19 9.36 9 9.36a7.5 7.5 0 0 0 6.5-3.33v.73a8.3 8.3 0 0 1-1.41 5.21 6.3 6.3 0 0 1-5.09 2 12 12 0 0 1-6.66-2.35l-1.76 2.62a14.3 14.3 0 0 0 8.29 2.78c4.62 0 6.93-1.88 8.31-3.57s2-3.92 2-8V47.81Zm-5.75 15.29c-3.8 0-5.91-2.78-5.91-6.31s2.11-6.34 5.91-6.34 5.91 2.82 5.91 6.34-2.07 6.33-5.91 6.33ZM96.83 41c-.79 1-1.26 2.54-1.26 5v20.42h3.72V50.86h4.42v-3h-4.42v-2.08c0-2.12.39-4 2.86-4a8 8 0 0 1 1.57.2v-2.8a12 12 0 0 0-2.43-.22A5.6 5.6 0 0 0 96.83 41M166 50.67h-.12v-2.86h-3.76v18.61h3.76v-9.29a8.3 8.3 0 0 1 1.13-4.71 4 4 0 0 1 3.06-1.56 5 5 0 0 1 2 .39v-3.61a6 6 0 0 0-1.56-.19 4.9 4.9 0 0 0-4.51 3.22" class="a"/></svg>