<svg xmlns="http://www.w3.org/2000/svg" viewBox="0 0 523.75 102.19"><defs><style>.a{fill:#fff;}.b{fill:none;stroke:#fff;stroke-miterlimit:10;stroke-width:2px;}</style></defs><path class="a" d="M345.75,75.62H303.59V35.45h42.16Zm-2.08-2.21V37.62h-38V73.41Z"/><path class="a" d="M481.66,55.79a10.61,10.61,0,1,1-10.61-10.26A10.34,10.34,0,0,1,481.66,55.79Zm-10.52-7.72a7.72,7.72,0,1,0,7.71,7.71A7.78,7.78,0,0,0,471.14,48.07Z"/><path class="a" d="M420.81,65.76h-3l-2.13-4.69H405l-2.1,4.71h-2.89c1.52-3.41,3-6.71,4.45-10l4.45-10h3ZM410.35,48.71l-4.14,9.64h8.35Z"/><path class="a" d="M372.71,49.89a11.16,11.16,0,0,0-6.3-1.7c-1.43.11-2.87.43-3.2,2.09s.83,2.65,2.25,3.22c1.74.69,3.55,1.23,5.3,1.92a4.88,4.88,0,0,1,3.49,4.9,5.37,5.37,0,0,1-3.64,5.05,11.29,11.29,0,0,1-11.72-2.61l1.18-2.23a11.51,11.51,0,0,0,5.18,2.7,7.4,7.4,0,0,0,3.62-.11,2.8,2.8,0,0,0,2.29-2.33,2.69,2.69,0,0,0-1.76-2.9c-.94-.45-2-.75-2.95-1.11-1.19-.44-2.43-.79-3.57-1.33a5,5,0,0,1,0-9c3.8-1.77,7.41-1,11,1Z"/><path class="a" d="M503.65,45.85c0,4.32.11,8.47,0,12.6-.16,4.62-3.27,7.47-8,7.61-5.14.14-8.63-2.42-8.95-7.1-.29-4.33-.06-8.7-.06-13.13h2.72c0,2.47,0,4.93,0,7.39,0,1.83-.06,3.66.13,5.47.33,3.24,2.53,4.94,6,4.82a5.13,5.13,0,0,0,5.38-5.32c.1-3.75,0-7.51,0-11.27V45.85Z"/><path class="a" d="M441.57,45.82h13.78a6.31,6.31,0,0,1,.12,2.32H444.31v6.21h9.75a5.07,5.07,0,0,1,.09,2.62h-9.88v6.38h11.5v2.37h-14.2Z"/><path class="a" d="M395.33,61.14l1.53,1.65a10.58,10.58,0,0,1-15,.3,10.21,10.21,0,0,1-.11-14.46,10.77,10.77,0,0,1,15.08,0l-1.51,1.82c-4.48-3.22-8.76-3.16-11.71.1a7.73,7.73,0,0,0-.05,10.29C386.52,64.16,390.69,64.28,395.33,61.14Z"/><path class="a" d="M427.77,45.83V63.34h8.68v2.41H425V45.83Z"/><path class="a" d="M523.75,45.88v2.28h-6.4V65.67a8.74,8.74,0,0,1-2.84.12V48.26H508V45.88Z"/><path class="a" d="M334.25,68.12a5,5,0,1,1,5.18-4.94A5.08,5.08,0,0,1,334.25,68.12Z"/><path class="a" d="M313.44,67.36c-.61-.69-1.2-1-1.49-1.79l23.28-22.19A5.25,5.25,0,0,1,336.91,45C329.1,52.42,321.32,59.85,313.44,67.36Z"/><path class="a" d="M318.73,46.36a3.49,3.49,0,0,1-1.77.14l-.71-1.17a1.1,1.1,0,0,0-1.68.77c.29,1.16,1.33,1.29,2.15,1.69,1.66.8,2.37,2.11,1.92,3.56s-1.69,2-3.5,1.83a2.75,2.75,0,0,1-2.67-3c.48-.38,1-.16,1.56-.17.51.33.31,1.09.93,1.37,1,.15,1,.15,1.73-.59a1.44,1.44,0,0,0-1-1.53c-.25-.12-.52-.21-.77-.32-1.91-.85-2.7-1.94-2.33-3.32a2.82,2.82,0,0,1,3-2.14C317.33,43.48,318.27,44.32,318.73,46.36Z"/><line class="b" x1="281.43" y1="0.35" x2="243.91" y2="101.85"/><circle class="a" cx="177.17" cy="41.41" r="2.45"/><path class="a" d="M39.75,39.05a13.71,13.71,0,0,0-27.27,0A13.71,13.71,0,0,0,14,66.42H26.11a7.66,7.66,0,1,0,0-15.31,4.47,4.47,0,0,1,0-8.94,4.42,4.42,0,0,1,3.13,1.3,1.59,1.59,0,0,0,2.3-2.21l0,0a7.66,7.66,0,1,0-5.42,13.05,4.47,4.47,0,0,1,0,8.94H14a10.53,10.53,0,1,1,0-21.06,1.6,1.6,0,0,0,1.59-1.6,10.53,10.53,0,0,1,21.06,0h0a1.6,1.6,0,0,0,1.6,1.6,10.53,10.53,0,1,1,0,21.06h0a1.6,1.6,0,1,0,0,3.19A13.72,13.72,0,0,0,39.75,39Z"/><path class="a" d="M70.66,56.19c-.78-.32-1.49-.55-2.51-.9-1.84-.59-3.64-1.26-3.64-2.78s1.18-2.31,3-2.31a6.76,6.76,0,0,1,4.7,2l1.57-2.32a8.15,8.15,0,0,0-6.34-2.42c-3.29,0-6.27,1.88-6.27,5.32a4.79,4.79,0,0,0,2.93,4.46,13.66,13.66,0,0,0,2.55,1c1.25.43,4.19,1.06,4.19,3.11S69,64,67.26,64a7.65,7.65,0,0,1-5.49-2.66L60,63.52a8.93,8.93,0,0,0,7.24,3.33,7.91,7.91,0,0,0,5.17-1.65A5.3,5.3,0,0,0,74.3,61a4.56,4.56,0,0,0-1.49-3.45A7.07,7.07,0,0,0,70.66,56.19Z"/><path class="a" d="M84.27,47.46a14.36,14.36,0,0,0-7,1.88l1.14,2.5a11.39,11.39,0,0,1,5.6-1.6c2.7,0,4.62,1.41,4.62,4.22v.75l-5,.2c-4.31.19-7.27,2-7.27,5.67s3,5.75,6.41,5.75a7.62,7.62,0,0,0,5.92-2.76l0,2.35h3.63V55.6c0-3.17-.74-4.74-2-6S87.36,47.46,84.27,47.46Zm4.43,14A5.86,5.86,0,0,1,84,64.17c-2.43,0-3.84-1.45-3.84-3.21s1.22-3.05,4.23-3.21l4.35-.27Z"/><path class="a" d="M114.22,47.46a9.23,9.23,0,0,0-9.43,9.63c0,5.87,3.79,9.74,9.31,9.74s8-2.74,8.18-2.93l-1.56-2.16a10.26,10.26,0,0,1-6.15,2.16c-3.45,0-5.79-2.23-6-5.91h14.33a15.26,15.26,0,0,0,.12-1.65A8.49,8.49,0,0,0,114.22,47.46Zm-5.6,8a5.47,5.47,0,0,1,5.49-5.32,5.39,5.39,0,0,1,5.36,5.32Z"/><path class="a" d="M135.06,56.19c-.78-.32-1.49-.55-2.5-.9-1.85-.59-3.64-1.26-3.64-2.78s1.17-2.31,3-2.31a6.81,6.81,0,0,1,4.7,2l1.57-2.32a8.13,8.13,0,0,0-6.34-2.42c-3.29,0-6.27,1.88-6.27,5.32a4.79,4.79,0,0,0,2.93,4.46,14.23,14.23,0,0,0,2.55,1c1.25.43,4.19,1.06,4.19,3.1S133.38,64,131.65,64a7.65,7.65,0,0,1-5.48-2.66l-1.81,2.19a8.94,8.94,0,0,0,7.25,3.32,7.89,7.89,0,0,0,5.16-1.64A5.28,5.28,0,0,0,138.69,61a4.56,4.56,0,0,0-1.49-3.44A6.87,6.87,0,0,0,135.06,56.19Z"/><path class="a" d="M151.1,47.46a7.86,7.86,0,0,0-6.59,3.29h-.08V47.81h-3.6V73.48h3.76v-10l0,0A7.23,7.23,0,0,0,151,66.83c5.52,0,9.05-4.22,9.05-9.74S156.58,47.46,151.1,47.46Zm-.78,16.16c-3.72,0-5.91-2.85-5.91-6.57s2.19-6.54,5.91-6.54,5.91,2.82,5.91,6.54S154,63.62,150.32,63.62Z"/><rect class="a" x="175.31" y="47.81" width="3.76" height="18.59"/><path class="a" d="M191.74,47.46a6.26,6.26,0,0,0-5.69,3.29h-.11l0-2.94h-3.76V66.42H186V57.05c0-3.56,1.29-6.5,4.77-6.5s3.88,2.35,3.88,5.49V66.42h3.75v-11C198.4,50.94,197,47.46,191.74,47.46Z"/><path class="a" d="M216,47.81l0,2.94H216a7.41,7.41,0,0,0-6.5-3.29c-4.77,0-9,3.44-9,9.35s4.19,9.36,9,9.36a7.45,7.45,0,0,0,6.5-3.33H216v.73a8.3,8.3,0,0,1-1.41,5.21,6.33,6.33,0,0,1-5.09,2,11.8,11.8,0,0,1-6.66-2.35l-1.76,2.62a14.31,14.31,0,0,0,8.29,2.78c4.62,0,6.93-1.88,8.31-3.57s2-3.92,2-8V47.81ZM210.25,63.1c-3.8,0-5.91-2.78-5.91-6.31s2.11-6.34,5.91-6.34,5.91,2.82,5.91,6.34-2.07,6.33-5.91,6.33Z"/><path class="a" d="M96.83,41c-.79,1-1.26,2.54-1.26,5V66.42h3.72V50.86h4.42v-3H99.29V45.78c0-2.12.39-4,2.86-4a7.59,7.59,0,0,1,1.57.2V39.18a12.41,12.41,0,0,0-2.43-.22A5.61,5.61,0,0,0,96.83,41Z"/><path class="a" d="M166,50.67h-.12l0-2.86h-3.76V66.42h3.76V57.13a8.34,8.34,0,0,1,1.13-4.71,3.92,3.92,0,0,1,3.06-1.56,4.71,4.71,0,0,1,2,.39V47.64a5.85,5.85,0,0,0-1.56-.19A4.87,4.87,0,0,0,166,50.67Z"/></svg>