<svg xmlns="http://www.w3.org/2000/svg" viewBox="0 0 382.51 101.18"><defs><style>.a{fill:#fbfdfe;}.b{fill:none;}</style></defs><title>safdespring-suse</title><path class="a" d="M318.76,69.48h.33l1,3,1-3h.42l-1.27,3.61h-.34l-1-2.88-1,2.88h-.33l-1.27-3.58h.46l1,3Z"/><path class="a" d="M322.92,72.76a1.11,1.11,0,0,0,.83-.37l.24.22a1.39,1.39,0,1,1-1.13-2.25,1.24,1.24,0,0,1,1.22,1.27v.25H322A.93.93,0,0,0,322.92,72.76Zm.76-1.17a.86.86,0,0,0-.82-.9h0a.92.92,0,0,0-.86.9Z"/><path class="a" d="M326.29,70.92l-.12-.32a2.15,2.15,0,0,1,1-.22,1,1,0,0,1,1.1.88,1.09,1.09,0,0,1,0,.18v1.65h-.37V72.7a1.21,1.21,0,0,1-1,.45.89.89,0,0,1-1-.75v-.07c0-.56.46-.86,1.12-.86a2.84,2.84,0,0,1,.81.12v-.1c0-.47-.29-.71-.79-.71A1.8,1.8,0,0,0,326.29,70.92Zm0,1.34c0,.34.31.53.66.53a.79.79,0,0,0,.87-.69v-.27a2.53,2.53,0,0,0-.77-.12c-.45,0-.73.22-.73.55Z"/><path class="a" d="M331.1,73.09v-.52a1.2,1.2,0,0,1-1,.58,1.38,1.38,0,0,1,0-2.74,1.19,1.19,0,0,1,1,.56V69.39h.4v3.7Zm-.93-2.33a.93.93,0,0,0-.93.93.17.17,0,0,0,0,.07.93.93,0,0,0,.87,1h.05a1,1,0,0,0,0-2Z"/><path class="a" d="M332.44,70.92l-.11-.32a2.15,2.15,0,0,1,1-.22,1,1,0,0,1,1.11.87,1.15,1.15,0,0,1,0,.19v1.65h-.38V72.7a1.16,1.16,0,0,1-1,.45.9.9,0,0,1-1-.77v0c0-.56.46-.86,1.13-.86a2.43,2.43,0,0,1,.8.12v-.1c0-.47-.29-.71-.78-.71A1.86,1.86,0,0,0,332.44,70.92Zm0,1.34c0,.34.3.53.66.53a.79.79,0,0,0,.87-.69v-.27a2.53,2.53,0,0,0-.77-.12c-.45,0-.72.22-.72.55Z"/><path class="a" d="M336.55,73.09a1.18,1.18,0,0,1-1-.56v1.31h-.4V70.41h.4v.53a1.14,1.14,0,0,1,1-.59,1.38,1.38,0,0,1,0,2.74Zm-.07-2.39a1,1,0,0,0,0,2,.94.94,0,0,0,.92-.94V71.7a1,1,0,0,0-.89-1h0Z"/><path class="a" d="M339,72.3c0,.32.17.43.44.43a.85.85,0,0,0,.38-.09V73a1.12,1.12,0,0,1-.47.11.67.67,0,0,1-.74-.6.33.33,0,0,1,0-.14V70.76h-.37v-.34h.37v-.79H339v.79h.83v.34H339Z"/><path class="a" d="M340.38,73.09v-.53h.46v.53Z"/><path class="a" d="M344,73.09h-.4v-1.4l-1.48-2.15h.49l1.19,1.78L345,69.54h.47L344,71.68Z"/><path class="a" d="M346.61,73.09A1.37,1.37,0,1,1,348,71.72h0a1.37,1.37,0,0,1-1.35,1.37Zm0-2.39a1,1,0,0,0,0,2,1,1,0,1,0,0-2Z"/><path class="a" d="M350.47,70.42h.39v2.67h-.39v-.45a1,1,0,0,1-.9.51,1,1,0,0,1-1-1V70.52H349v1.53a.7.7,0,0,0,.6.78h.13a.78.78,0,0,0,.78-.76V70.42Z"/><path class="a" d="M354,73.09a1.79,1.79,0,0,1-1.08-.38l.2-.28a1.58,1.58,0,0,0,.91.33c.31,0,.54-.16.54-.41h0c0-.27-.31-.37-.66-.46s-.86-.26-.86-.75h0a.79.79,0,0,1,.81-.77h.08a1.88,1.88,0,0,1,.94.29l-.17.3a1.48,1.48,0,0,0-.78-.26c-.31,0-.51.17-.51.38h0c0,.25.33.35.68.46s.84.28.84.75h0C354.91,72.8,354.5,73.09,354,73.09Z"/><path class="a" d="M357.42,70.42h.39v2.67h-.39v-.45a1,1,0,0,1-.9.51,1,1,0,0,1-1-1V70.52h.39v1.53a.69.69,0,0,0,.58.78h.14a.79.79,0,0,0,.79-.77V70.42Z"/><path class="a" d="M359.76,73.09a1.37,1.37,0,1,1,0-2.74,1.35,1.35,0,0,1,1,.47l-.26.27a1.08,1.08,0,0,0-.79-.39,1,1,0,0,0,0,2,1,1,0,0,0,.8-.39l.25.24A1.37,1.37,0,0,1,359.76,73.09Z"/><path class="a" d="M362.54,73.09a1.37,1.37,0,0,1,0-2.74,1.34,1.34,0,0,1,1,.47l-.26.27a1.08,1.08,0,0,0-.8-.39,1,1,0,0,0,.06,2,1.08,1.08,0,0,0,.8-.39l.25.24A1.4,1.4,0,0,1,362.54,73.09Z"/><path class="a" d="M365.26,72.76a1.11,1.11,0,0,0,.83-.37l.24.22a1.39,1.39,0,1,1-1.13-2.25h0a1.24,1.24,0,0,1,1.22,1.27v.25h-2.09A.93.93,0,0,0,365.26,72.76Zm.76-1.17a.86.86,0,0,0-.82-.9h0a.92.92,0,0,0-.86.9Z"/><path class="a" d="M368.19,72.76a1,1,0,0,0,.82-.37l.25.22a1.38,1.38,0,1,1-1.08-2.25,1.24,1.24,0,0,1,1.22,1.27v.25h-2.14A.93.93,0,0,0,368.19,72.76Zm.76-1.17a.86.86,0,0,0-.82-.9h0a.9.9,0,0,0-.86.9Z"/><path class="a" d="M372.06,73.09v-.52a1.2,1.2,0,0,1-1,.58,1.38,1.38,0,0,1,0-2.74,1.19,1.19,0,0,1,1,.56V69.39h.39v3.7Zm-.93-2.33a.93.93,0,0,0-.93.93.17.17,0,0,0,0,.07.93.93,0,0,0,.87,1h.05a1,1,0,0,0,0-2Z"/><path class="a" d="M373.21,73.09v-.53h.46v.53Z"/><path class="a" d="M363.19,61.32a4.89,4.89,0,0,1-5,4.79h-9.46V62.59h9.4a1.29,1.29,0,0,0,1.28-1.27c0-.81-.51-1.3-1.51-1.46l-5.8-.84a4.89,4.89,0,0,1,.68-9.75h9.38v3.51h-9.43a1.28,1.28,0,0,0-1.28,1.28c0,.81.51,1.3,1.51,1.46l5.8.84A4.87,4.87,0,0,1,363.19,61.32ZM343.07,49.26v10a3.79,3.79,0,0,1-7.57.39,2.54,2.54,0,0,1,0-.39v-10h-3.65v9.83a7.46,7.46,0,0,0,14.91,0V49.28ZM382.51,65a1.16,1.16,0,1,0-1.17,1.15h0A1.16,1.16,0,0,0,382.51,65Zm-.24,0a.92.92,0,1,1-1.84,0,.92.92,0,0,1,1.84,0Zm-.42-.22c0-.22-.17-.36-.44-.36h-.49v1.1h.24v-.39h.2l.23.36h.29l-.27-.39A.38.38,0,0,0,381.85,64.74Zm-.25,0c0,.09-.07.16-.19.16h-.25v-.32h.24c.13,0,.2.07.2.18Zm-5.1-12a3,3,0,0,0,2.86-3.13v-.38H369.18a4.86,4.86,0,0,0-5,4.73V54h0v7.26a4.86,4.86,0,0,0,4.94,4.79h10.24v-.31a3,3,0,0,0-2.79-3.2h-7.41a1.27,1.27,0,0,1-1.28-1.27,1.4,1.4,0,0,1,1.33-1.47h3.36a4.85,4.85,0,0,0,4.92-3.69h-7.65a2.23,2.23,0,0,0-2,1.09V54.09a1.28,1.28,0,0,1,1.28-1.28Zm-49.92,3.58-5.81-.84c-1-.16-1.5-.65-1.5-1.46a1.28,1.28,0,0,1,1.28-1.28H330V49.23h-9.38a4.89,4.89,0,0,0-.68,9.75l5.8.84c1,.16,1.51.65,1.51,1.46a1.29,1.29,0,0,1-1.28,1.27H319a3,3,0,0,0-2.86,3.14v.4h9.71a4.89,4.89,0,0,0,.68-9.75Z"/><path class="a" d="M336,29.45v1.48A40,40,0,0,0,326.11,29a25.83,25.83,0,0,0-16.35,4.2l-.22.13a16.91,16.91,0,0,0-7.08,7.89,9.12,9.12,0,0,0-.39,5.22A7.7,7.7,0,0,0,309,52.34c3.25.29,5.71-1.17,6.59-3.9a5.39,5.39,0,0,0-2.31-6.07,4.78,4.78,0,0,0-5.07-.11,3.36,3.36,0,0,0-1.58,2.83,3.15,3.15,0,0,0,3,3.12,3.87,3.87,0,0,0,1.16-.2,2.44,2.44,0,0,0,.44-.19h0a1,1,0,0,0,.47-.85,1.4,1.4,0,0,0,0-.29,1,1,0,0,0-1.19-.73h-.17l-.14,0c-.19,0-.37.06-.55.08a1,1,0,0,1-.88-1h0a1.09,1.09,0,0,1,.18-.61,1.81,1.81,0,0,1,1.68-.63A2.85,2.85,0,0,1,313,45.56a3,3,0,0,1-.33,3.09c-.68.89-1.9,1.26-3.52,1.09a4.92,4.92,0,0,1-4.33-5.45,4.68,4.68,0,0,1,.45-1.55c1.65-3.12,4.76-3.09,6.47-2.79,2.43.42,6.11,2.6,7.49,7.64h3.37c-.42-1.29-.66-5,3.12-5,4.15,0,4.67,2.92,5.85,5h3.56a6,6,0,0,1-1.39-4.09c.31-1.85,1.78-1.68,3.82-1.45.67.07,1.43.16,2.21.18a14.28,14.28,0,0,0,5.63-1,7.8,7.8,0,0,0,1.92-1,1.21,1.21,0,0,0,.28-.49v-.13c.06-.16.14-.5.19-.68.09-.37-.24-.17-.24-.17a8.6,8.6,0,0,1-3.72,1.14c-1.86,0-5.59-1.86-6-2.06v-.05c-.1-.22-.66-1.54-.77-1.82,2.68,1.77,4.91,2.74,6.61,2.89a6.16,6.16,0,0,0,4-1.3c.06-.05.31-.22.25-.42-.24-.86-1.1-3.75-1.8-4.49a3.15,3.15,0,0,0-.71-.61c-2.72-1.58-9.16-2.54-9.46-2.58C336.1,29.39,336,29.37,336,29.45Zm4.42,5.32a2.76,2.76,0,1,1,4.64,2.12,2.79,2.79,0,0,1-2,.73A2.76,2.76,0,0,1,340.45,34.77Z"/><path class="a" d="M343.28,32.93a1.86,1.86,0,0,0-1.38.51,1.92,1.92,0,1,0,1.4-.51Zm.31,2.1c-.47,0-.85-.26-.85-.57s.38-.57.85-.57.86.26.86.57S344.06,35,343.59,35Z"/><path class="a" d="M39.3,38.32a13.67,13.67,0,0,0-27.18,0,13.68,13.68,0,0,0,1.5,27.27H25.76a7.63,7.63,0,0,0,0-15.26,4.46,4.46,0,1,1,3.16-7.6,1.59,1.59,0,1,0,2.37-2.12l-.12-.12a7.63,7.63,0,1,0-5.41,13,4.45,4.45,0,0,1,0,8.9H13.62a10.5,10.5,0,0,1,0-21,1.6,1.6,0,0,0,1.59-1.59,10.5,10.5,0,0,1,21,0,1.59,1.59,0,0,0,1.59,1.59,10.5,10.5,0,0,1,0,21,1.59,1.59,0,1,0,0,3.18A13.68,13.68,0,0,0,39.3,38.3Z"/><path class="a" d="M70.11,55.41c-.78-.31-1.48-.55-2.5-.9C65.78,53.93,64,53.26,64,51.74s1.17-2.3,3-2.3a6.78,6.78,0,0,1,4.68,2l1.56-2.3a8.1,8.1,0,0,0-6.32-2.42c-3.28,0-6.24,1.87-6.24,5.3a4.75,4.75,0,0,0,2.92,4.45,14.27,14.27,0,0,0,2.54,1c1.25.43,4.18,1.05,4.18,3.08s-1.84,2.65-3.56,2.65a7.62,7.62,0,0,1-5.46-2.65l-1.79,2.18a8.87,8.87,0,0,0,7.22,3.32,8,8,0,0,0,5.15-1.64,5.3,5.3,0,0,0,1.91-4.21,4.64,4.64,0,0,0-1.48-3.44A7,7,0,0,0,70.11,55.41Z"/><path class="a" d="M83.68,46.71a14.24,14.24,0,0,0-7,1.87l1.14,2.5a11.31,11.31,0,0,1,5.58-1.6c2.69,0,4.6,1.4,4.6,4.21v.74l-5,.2c-4.29.19-7.25,2-7.25,5.66S78.8,66,82.2,66a7.68,7.68,0,0,0,5.89-2.77v2.34h3.67V54.82c0-3.16-.75-4.72-2-6S86.76,46.71,83.68,46.71Zm4.41,14a5.85,5.85,0,0,1-4.72,2.69c-2.46,0-3.83-1.45-3.83-3.2s1.21-3,4.22-3.2l4.33-.27Z"/><path class="a" d="M113.53,46.71a9.19,9.19,0,0,0-9.41,9c0,.22,0,.43,0,.64,0,5.89,3.78,9.71,9.28,9.71s7.93-2.73,8.16-2.92L120,61a10.33,10.33,0,0,1-6.13,2.15c-3.43,0-5.77-2.23-6-5.9h14.28c.06-.55.1-1.09.12-1.64a8.47,8.47,0,0,0-8.06-8.85Zm-5.58,8a5.46,5.46,0,0,1,5.46-5.31,5.36,5.36,0,0,1,5.35,5.31Z"/><path class="a" d="M134.3,55.41c-.78-.31-1.48-.55-2.49-.9-1.84-.58-3.63-1.25-3.63-2.77s1.17-2.3,3-2.3a6.8,6.8,0,0,1,4.69,2l1.56-2.3a8.1,8.1,0,0,0-6.32-2.42c-3.28,0-6.25,1.87-6.25,5.3a4.76,4.76,0,0,0,2.93,4.45,14.27,14.27,0,0,0,2.54,1c1.24.43,4.17,1.05,4.17,3.08S132.67,63.2,131,63.2a7.62,7.62,0,0,1-5.46-2.65l-1.8,2.18a8.89,8.89,0,0,0,7.22,3.32,7.92,7.92,0,0,0,5.15-1.64A5.3,5.3,0,0,0,138,60.2a4.64,4.64,0,0,0-1.48-3.44A7.21,7.21,0,0,0,134.3,55.41Z"/><path class="a" d="M150.29,46.71A7.83,7.83,0,0,0,143.7,50h-.08V47.09H140V72.67h3.73v-10h0a7.19,7.19,0,0,0,6.4,3.32c5.5,0,9-4.21,9-9.71S155.76,46.71,150.29,46.71Zm-.78,16.11c-3.7,0-5.89-2.85-5.89-6.55s2.19-6.52,5.89-6.52,5.9,2.81,5.9,6.52S153.22,62.82,149.51,62.82Z"/><rect class="a" x="174.43" y="47.06" width="3.75" height="18.53"/><path class="a" d="M190.76,46.71A6.25,6.25,0,0,0,185.1,50H185V47.06h-3.75V65.59H185V56.27c0-3.55,1.28-6.48,4.76-6.48,3.31,0,3.86,2.34,3.86,5.46V65.59h3.75v-11C197.44,50.18,196.07,46.71,190.76,46.71Z"/><path class="a" d="M215,47.09V50h-.11a7.42,7.42,0,0,0-6.48-3.27c-4.76,0-8.94,3.43-8.94,9.32s4.18,9.33,8.94,9.33a7.47,7.47,0,0,0,6.48-3.32H215v.73A8.4,8.4,0,0,1,213.59,68c-.74.94-2.3,2-5.07,2a11.8,11.8,0,0,1-6.64-2.34l-1.75,2.61A14.31,14.31,0,0,0,208.4,73c4.61,0,6.91-1.87,8.27-3.55s2-3.9,2-8V47.09Zm-5.78,15.25c-3.78,0-5.89-2.77-5.89-6.28s2.11-6.32,5.89-6.32,5.89,2.81,5.89,6.32-2.07,6.25-5.89,6.25Z"/><path class="a" d="M96.19,40.27c-.78,1-1.25,2.54-1.25,4.95V65.59h3.71V50.09h4.41v-3H98.65V45c0-2.11.39-3.94,2.85-3.94a6.36,6.36,0,0,1,1.56.2V38.45a11.6,11.6,0,0,0-2.42-.22A5.58,5.58,0,0,0,96.19,40.27Z"/><path class="a" d="M165.15,49.91H165V47.06H161.3V65.59H165V56.34a8,8,0,0,1,1.14-4.68,3.87,3.87,0,0,1,3-1.56,5,5,0,0,1,2,.39v-3.6a5.89,5.89,0,0,0-1.56-.18A4.83,4.83,0,0,0,165.15,49.91Z"/><circle class="a" cx="176.28" cy="40.68" r="2.44"/><line class="b" x1="243.26" y1="100.59" x2="280.11" y2="0.59"/><path class="a" d="M243.87,100.76l32.21-87.41L280.76.76c.28-.76-.93-1.08-1.2-.33L247.35,87.84l-4.64,12.59c-.28.75.93,1.08,1.21.33Z"/></svg>