<svg xmlns="http://www.w3.org/2000/svg" xmlns:xlink="http://www.w3.org/1999/xlink" width="89" height="69" viewBox="0 0 89 69">
  <defs>
    <radialGradient id="radial-gradient" cx="0.5" cy="0.5" r="0.5" gradientUnits="objectBoundingBox">
      <stop offset="0" stop-color="#e7eff3"/>
      <stop offset="1" stop-color="#ebf2f6"/>
    </radialGradient>
    <clipPath id="clip-path">
      <rect id="Rectangle_510" data-name="Rectangle 510" width="40.435" height="6.73" fill="#fff"/>
    </clipPath>
  </defs>
  <g id="eosc" transform="translate(-0.388)">
    <rect id="Rectangle_272" data-name="Rectangle 272" width="89" height="69" transform="translate(0.388)" fill="url(#radial-gradient)"/>
    <g id="EOSCA_logo" transform="translate(24.297 30.316)" clip-path="url(#clip-path)">
      <path id="Path_6203" data-name="Path 6203" d="M111.836,3.407a.415.415,0,0,0,.15-.331,3.236,3.236,0,0,0-.262-1.271,3.2,3.2,0,0,0-.66-.971,2.755,2.755,0,0,0-.945-.623,3.048,3.048,0,0,0-1.11-.21,2.867,2.867,0,0,0-1.464.4,3.067,3.067,0,0,0-1.121,1.17,3.737,3.737,0,0,0-.429,1.85,3.468,3.468,0,0,0,.412,1.712A2.98,2.98,0,0,0,107.565,6.3a3.5,3.5,0,0,0,1.755.424,2.875,2.875,0,0,0,1.265-.285,3.157,3.157,0,0,0,.951-.672.507.507,0,0,0,.2-.386.409.409,0,0,0-.124-.3.4.4,0,0,0-.3-.124.556.556,0,0,0-.323.112,2.94,2.94,0,0,1-.392.343,2.071,2.071,0,0,1-.553.28,2.549,2.549,0,0,1-1.98-.2,2.2,2.2,0,0,1-.816-.865,2.567,2.567,0,0,1-.288-1.084h4.528a.518.518,0,0,0,.349-.13M107.608,1.5a1.9,1.9,0,0,1,.66-.424,2.089,2.089,0,0,1,.741-.135,2.021,2.021,0,0,1,.879.2,1.99,1.99,0,0,1,.709.568,1.531,1.531,0,0,1,.329.879v.1h-3.911a2.39,2.39,0,0,1,.121-.435,2.075,2.075,0,0,1,.473-.746" transform="translate(-91.708)" fill="#040305"/>
      <path id="Path_6204" data-name="Path 6204" d="M165.421,3.342a3.469,3.469,0,0,1-.429,1.732,3.185,3.185,0,0,1-1.159,1.2,3.119,3.119,0,0,1-1.637.435,3.158,3.158,0,0,1-2.807-1.631,3.47,3.47,0,0,1-.429-1.732,3.47,3.47,0,0,1,.429-1.732A3.158,3.158,0,0,1,162.2-.021a3.146,3.146,0,0,1,1.637.435,3.228,3.228,0,0,1,1.159,1.2A3.44,3.44,0,0,1,165.421,3.342Zm-1.009,0a2.654,2.654,0,0,0-.291-1.265,2.286,2.286,0,0,0-.8-.859A2.085,2.085,0,0,0,162.2.9a2.117,2.117,0,0,0-1.138.317,2.307,2.307,0,0,0-.8.859,2.583,2.583,0,0,0-.3,1.265,2.557,2.557,0,0,0,.3,1.257,2.281,2.281,0,0,0,.8.865,2.1,2.1,0,0,0,1.138.317,2.064,2.064,0,0,0,1.127-.317,2.236,2.236,0,0,0,.8-.865A2.617,2.617,0,0,0,164.412,3.342Z" transform="translate(-137.534 0.019)" fill="#040305"/>
      <path id="Path_6205" data-name="Path 6205" d="M214.6,5.58a.587.587,0,0,1-.092-.343.4.4,0,0,1,.2-.317.49.49,0,0,1,.306-.075.466.466,0,0,1,.305.161,2.8,2.8,0,0,0,.8.654,2.278,2.278,0,0,0,1.1.242,2.583,2.583,0,0,0,.591-.1,1.071,1.071,0,0,0,.51-.306.8.8,0,0,0,.2-.579.717.717,0,0,0-.21-.553,1.624,1.624,0,0,0-.553-.337,6.761,6.761,0,0,0-.729-.231c-.274-.075-.545-.159-.81-.248A3.008,3.008,0,0,1,215.5,3.2a1.716,1.716,0,0,1-.51-.548,1.582,1.582,0,0,1-.193-.816A1.574,1.574,0,0,1,215.1.862a2,2,0,0,1,.816-.634A2.733,2.733,0,0,1,217.053,0a3.444,3.444,0,0,1,.729.081,2.812,2.812,0,0,1,.741.274,2.058,2.058,0,0,1,.634.53.5.5,0,0,1,.124.311.4.4,0,0,1-.161.337.468.468,0,0,1-.305.092.4.4,0,0,1-.28-.118,1.764,1.764,0,0,0-.666-.493A2.172,2.172,0,0,0,217,.847a1.908,1.908,0,0,0-.573.092,1.128,1.128,0,0,0-.478.294.784.784,0,0,0-.193.559.785.785,0,0,0,.225.548,1.52,1.52,0,0,0,.574.343c.239.086.507.173.8.257.265.066.522.144.767.231a2.692,2.692,0,0,1,.666.343,1.533,1.533,0,0,1,.473.542,1.768,1.768,0,0,1,.173.827,1.572,1.572,0,0,1-.323.989,2,2,0,0,1-.853.634,2.988,2.988,0,0,1-1.138.219,3.814,3.814,0,0,1-1.357-.257,2.607,2.607,0,0,1-1.159-.891" transform="translate(-185.595)" fill="#040305"/>
      <path id="Path_6206" data-name="Path 6206" d="M262.38,0a4.434,4.434,0,0,1,1.158.138,2.227,2.227,0,0,1,.81.375.684.684,0,0,1,.3.536.524.524,0,0,1-.112.323.365.365,0,0,1-.311.15.487.487,0,0,1-.268-.069,1.486,1.486,0,0,1-.2-.161,1.175,1.175,0,0,0-.254-.182,1.854,1.854,0,0,0-.435-.13A2.973,2.973,0,0,0,262.5.925a2.244,2.244,0,0,0-1.2.323,2.321,2.321,0,0,0-.816.87,2.565,2.565,0,0,0-.3,1.245,2.66,2.66,0,0,0,.285,1.245,2.221,2.221,0,0,0,.8.873,2.157,2.157,0,0,0,1.182.323,2.585,2.585,0,0,0,.692-.075,2.1,2.1,0,0,0,.441-.176,1.67,1.67,0,0,0,.331-.248.485.485,0,0,1,.66.012.487.487,0,0,1,.118.337.663.663,0,0,1-.311.484,2.58,2.58,0,0,1-.847.418,3.973,3.973,0,0,1-1.2.167,3.082,3.082,0,0,1-1.657-.441,2.991,2.991,0,0,1-1.1-1.208,3.687,3.687,0,0,1-.392-1.712,3.594,3.594,0,0,1,.4-1.706A3.134,3.134,0,0,1,260.711.45,3.091,3.091,0,0,1,262.38,0Z" transform="translate(-224.248 0)" fill="#040305"/>
      <path id="Path_6207" data-name="Path 6207" d="M13.731.539a3.362,3.362,0,0,0-3.652,0,.426.426,0,0,0-.2.323.447.447,0,0,0,.13.366l.182.182a.437.437,0,0,0,.545.066,2.216,2.216,0,0,1,2.332,0,.441.441,0,0,0,.545-.066l.182-.182a.453.453,0,0,0,.13-.366A.443.443,0,0,0,13.731.539Z" transform="translate(-8.549 0)" fill="#008691"/>
      <path id="Path_6208" data-name="Path 6208" d="M2.857,14.349a2.239,2.239,0,0,1-1.395-3.358.424.424,0,0,0-.063-.525l-.182-.182a.431.431,0,0,0-.352-.124.418.418,0,0,0-.308.19,3.328,3.328,0,0,0-.536,1.816,3.372,3.372,0,0,0,2.646,3.28.447.447,0,0,0,.089.009.416.416,0,0,0,.265-.1.427.427,0,0,0,.161-.337V14.77a.428.428,0,0,0-.32-.418" transform="translate(-0.019 -8.789)" fill="#eb5d81"/>
      <path id="Path_6209" data-name="Path 6209" d="M31.769.128a3.358,3.358,0,0,0-3.355,3.355v.032a2.256,2.256,0,0,1-1.807,2.17.3.3,0,0,0-.242.3v.513a.313.313,0,0,0,.107.233.291.291,0,0,0,.239.066,3.344,3.344,0,0,0,2.813-3.311,2.245,2.245,0,1,1,2.245,2.245.553.553,0,1,0,0,1.107,3.353,3.353,0,1,0,0-6.707Z" transform="translate(-22.812 -0.111)" fill="#008691"/>
    </g>
  </g>
</svg>
