<svg xmlns="http://www.w3.org/2000/svg" xmlns:xlink="http://www.w3.org/1999/xlink" width="89" height="69" viewBox="0 0 89 69"><defs><radialGradient id="radial-gradient" cx="0.5" cy="0.5" r="0.5" gradientUnits="objectBoundingBox"><stop offset="0" stop-color="#e7eff3"/><stop offset="1" stop-color="#ebf2f6"/></radialGradient><clipPath id="clip-path"><path id="Rectangle_510" fill="#fff" d="M0 0h40.44v6.73H0z"/></clipPath></defs><g id="eosc" transform="translate(-.388)"><path id="Rectangle_272" fill="url(#radial-gradient)" d="M0 0h89v69H0z" transform="translate(.388)"/><g id="EOSCA_logo" clip-path="url(#clip-path)" transform="translate(24.297 30.316)"><path id="Path_6203" fill="#040305" d="M111.84 3.4a.4.4 0 0 0 .15-.32 3 3 0 0 0-.27-1.27 3 3 0 0 0-.66-.98 3 3 0 0 0-.94-.62 3 3 0 0 0-1.11-.2 3 3 0 0 0-1.46.4 3 3 0 0 0-1.13 1.16 4 4 0 0 0-.42 1.85 3.5 3.5 0 0 0 .4 1.71 3 3 0 0 0 1.16 1.17 3.5 3.5 0 0 0 1.76.42 3 3 0 0 0 1.26-.28 3 3 0 0 0 .96-.67.5.5 0 0 0 .2-.39.4.4 0 0 0-.13-.3.4.4 0 0 0-.3-.12 1 1 0 0 0-.32.1 3 3 0 0 1-.4.35 2 2 0 0 1-.55.28 2.6 2.6 0 0 1-1.98-.2 2 2 0 0 1-.81-.86 3 3 0 0 1-.29-1.09h4.53a.5.5 0 0 0 .35-.13M107.6 1.5a2 2 0 0 1 .66-.42 2 2 0 0 1 .74-.14 2 2 0 0 1 .88.2 2 2 0 0 1 .7.57 1.5 1.5 0 0 1 .34.88v.1H107a2 2 0 0 1 .13-.44 2 2 0 0 1 .47-.74" transform="translate(-91.708)"/><path id="Path_6204" fill="#040305" d="M165.42 3.34a3.5 3.5 0 0 1-.43 1.73 3 3 0 0 1-1.16 1.2 3 3 0 0 1-1.63.44 3.2 3.2 0 0 1-2.81-1.63 3.5 3.5 0 0 1-.43-1.73 3.5 3.5 0 0 1 .43-1.74 3.2 3.2 0 0 1 2.81-1.63 3 3 0 0 1 1.64.43 3 3 0 0 1 1.16 1.2 3.4 3.4 0 0 1 .42 1.73m-1 0a3 3 0 0 0-.3-1.26 2.3 2.3 0 0 0-.8-.86A2 2 0 0 0 162.2.9a2 2 0 0 0-1.14.32 2.3 2.3 0 0 0-.8.86 2.6 2.6 0 0 0-.3 1.26 2.6 2.6 0 0 0 .3 1.26 2.3 2.3 0 0 0 .8.86 2 2 0 0 0 1.14.32 2 2 0 0 0 1.13-.32 2 2 0 0 0 .8-.86 2.6 2.6 0 0 0 .28-1.26" transform="translate(-137.534 .019)"/><path id="Path_6205" fill="#040305" d="M214.6 5.58a.6.6 0 0 1-.1-.34.4.4 0 0 1 .2-.32.5.5 0 0 1 .31-.07.5.5 0 0 1 .3.16 3 3 0 0 0 .8.65 2.3 2.3 0 0 0 1.1.24 3 3 0 0 0 .6-.1 1 1 0 0 0 .51-.3.8.8 0 0 0 .2-.58.7.7 0 0 0-.21-.56 2 2 0 0 0-.55-.33 7 7 0 0 0-.73-.23l-.81-.25a3 3 0 0 1-.72-.35 2 2 0 0 1-.51-.55 1.6 1.6 0 0 1-.2-.81 1.6 1.6 0 0 1 .31-.98 2 2 0 0 1 .82-.63 3 3 0 0 1 1.13-.23 3 3 0 0 1 .73.08 3 3 0 0 1 .74.28 2 2 0 0 1 .64.53.5.5 0 0 1 .12.3.4.4 0 0 1-.16.34.5.5 0 0 1-.3.1.4.4 0 0 1-.28-.12 2 2 0 0 0-.67-.5 2 2 0 0 0-.87-.16 2 2 0 0 0-.57.09 1 1 0 0 0-.48.3.8.8 0 0 0-.2.55.8.8 0 0 0 .23.55 2 2 0 0 0 .57.34q.36.14.8.26.4.1.77.23a3 3 0 0 1 .67.34 1.5 1.5 0 0 1 .47.55 2 2 0 0 1 .17.82 1.6 1.6 0 0 1-.32 1 2 2 0 0 1-.85.63 3 3 0 0 1-1.14.22 4 4 0 0 1-1.36-.26 2.6 2.6 0 0 1-1.16-.9" transform="translate(-185.595)"/><path id="Path_6206" fill="#040305" d="M262.38 0a4 4 0 0 1 1.16.14 2 2 0 0 1 .8.37.7.7 0 0 1 .3.54.5.5 0 0 1-.1.32.4.4 0 0 1-.32.15l-.26-.07-.2-.16a1 1 0 0 0-.26-.18 2 2 0 0 0-.43-.13 3 3 0 0 0-.57-.05 2 2 0 0 0-1.2.32 2.3 2.3 0 0 0-.82.87 2.6 2.6 0 0 0-.3 1.24 3 3 0 0 0 .29 1.25 2 2 0 0 0 .8.87 2 2 0 0 0 1.18.32 3 3 0 0 0 .7-.07 2 2 0 0 0 .43-.18 2 2 0 0 0 .34-.24.5.5 0 0 1 .66 0 .5.5 0 0 1 .11.34.7.7 0 0 1-.3.49 3 3 0 0 1-.85.42 4 4 0 0 1-1.2.16 3 3 0 0 1-1.66-.44 3 3 0 0 1-1.1-1.2 4 4 0 0 1-.4-1.72 3.6 3.6 0 0 1 .4-1.7 3 3 0 0 1 1.13-1.21 3 3 0 0 1 1.67-.45" transform="translate(-224.248)"/><path id="Path_6207" fill="#008691" d="M13.73.54a3.4 3.4 0 0 0-3.65 0 .4.4 0 0 0-.2.32.5.5 0 0 0 .13.37l.18.18a.44.44 0 0 0 .55.07 2.2 2.2 0 0 1 2.33 0 .44.44 0 0 0 .54-.07l.19-.18a.5.5 0 0 0 .13-.37.4.4 0 0 0-.2-.32" transform="translate(-8.549)"/><path id="Path_6208" fill="#eb5d81" d="M2.86 14.35a2.24 2.24 0 0 1-1.4-3.36.4.4 0 0 0-.06-.52l-.18-.19a.4.4 0 0 0-.35-.12.4.4 0 0 0-.31.19 3.3 3.3 0 0 0-.54 1.82 3.4 3.4 0 0 0 2.65 3.28h.09a.4.4 0 0 0 .26-.1.4.4 0 0 0 .16-.33v-.25a.4.4 0 0 0-.32-.42" transform="translate(-.019 -8.789)"/><path id="Path_6209" fill="#008691" d="M31.77.13a3.36 3.36 0 0 0-3.36 3.35v.04a2.26 2.26 0 0 1-1.8 2.17.3.3 0 0 0-.25.3v.5a.3.3 0 0 0 .11.24.3.3 0 0 0 .24.07 3.34 3.34 0 0 0 2.81-3.31 2.25 2.25 0 1 1 2.25 2.24.55.55 0 1 0 0 1.1 3.35 3.35 0 1 0 0-6.7" transform="translate(-22.812 -.111)"/></g></g></svg>