<svg xmlns="http://www.w3.org/2000/svg" width="350" height="200" viewBox="0 0 350 200"><g transform="translate(-14.74 -20.951)"><path d="M147.074,119.237a19.788,19.788,0,0,1-4.243,12.791c-.946,1.244-.738,1.866.28,2.777,1.542,1.386,2.972,2.9,4.443,4.345.64.626,1.142,1.2.271,2.061s-1.293.076-1.777-.382c-1.5-1.431-3.026-2.852-4.443-4.376-.951-1.035-1.626-1.2-2.817-.222-4.989,4.118-10.8,5.5-17.2,4.887-10.374-.986-19.2-10.383-19.806-20.721a22.664,22.664,0,1,1,45.294-1.16ZM124.643,98.773a19.949,19.949,0,0,0-20.606,20.068c-.058,12.44,9.819,20.2,20.437,20.295,11.107.1,20.526-9.014,20.5-19.993a20.175,20.175,0,0,0-20.335-20.37Z" transform="translate(0 -0.308)" fill="#1d9443"/><path d="M323.882,177.384a.814.814,0,0,0-.275,0c-3.554,2.155-6.309,2.128-8.441-.093s-2.444-6.789-.693-9.543c1.555-2.439,5.291-3.967,8.117-1.83.689.52,1.053,1.031,1.719-.213.387-.711,1.555-.515,1.555.786,0,4.327.1,8.663-.1,12.986a5.179,5.179,0,0,1-4.629,5.065c-2.883.515-5.749-.546-6.811-2.6a3.86,3.86,0,0,1-.116-1.4,4.987,4.987,0,0,1,1.559.378c.889.573,1.648,1.648,2.612,1.884C322.251,183.751,324.1,181.827,323.882,177.384Zm.151-6.22a11.109,11.109,0,0,0-.791-2.5,4.032,4.032,0,0,0-6.771-.653c-1.724,2.03-1.777,6.153.062,8.037a4.665,4.665,0,0,0,2.395,1.248C322.024,177.86,324.081,175.63,324.033,171.165Z" transform="translate(-117.589 -38.316)" fill="#27984b"/><path d="M349.361,95.973c5.571,0,9.05,3.83,9.028,9.93-.027,5.811-3.643,9.827-8.886,9.872-5.4.044-9.219-4.043-9.263-9.894S344.22,95.6,349.361,95.973Zm7.108,9.881c0-4.092-1.9-7.108-5.051-8-4.469-1.266-7.97,1.04-9.046,5.953s1.5,9.534,5.6,10.218c.2.031.418.031.622.049,4.763.351,7.886-2.906,7.89-8.224Z" transform="translate(-132.539)" fill="#239748"/><path d="M231.63,163.386c0-2.586.031-5.171,0-7.757-.022-1.16.342-1.724,1.608-1.639,2.492.164,5.011.071,7.473.4a6.482,6.482,0,0,1,5.94,5.531,21.1,21.1,0,0,1,.058,7.011c-.662,3.714-3.163,5.776-6.917,6.02-2.488.178-5,.036-7.5.036-1.355-2.27-.364-4.754-.635-7.108A22.038,22.038,0,0,1,231.63,163.386Zm5.394-7.85v.111H235.78c-2.195.04-2.221.04-2.221,2.155-.027,3.194-.053,6.389,0,9.583.084,4.567-.924,4.047,4.141,4,5.54-.067,7.686-2.337,7.633-7.824a18.612,18.612,0,0,0-.4-3.043,5.3,5.3,0,0,0-4.5-4.518C239.307,155.767,238.148,155.682,237.024,155.536Z" transform="translate(-72.143 -32.248)" fill="#1d9443"/><path d="M316.939,103.464c0-2.075-.067-3.812.044-5.536.027-.444.6-.862.933-1.288.28.444.8.92.8,1.386.058,5.474.036,10.947.04,16.438,0,.844-.586,1.777-1.151,1.071-1.053-1.333-1.679-.64-2.666-.151-4.061,1.986-8.144-.151-8.783-4.634a13.245,13.245,0,0,1,.067-4.292,5.968,5.968,0,0,1,8.886-4.172A18.653,18.653,0,0,1,316.939,103.464Zm0,5.278c0-3.034-1.284-5.025-3.492-5.5a4.268,4.268,0,0,0-5.438,3.674c-.791,3.95.635,7.108,3.421,7.553.1,0,.209.022.311.031,3.2.338,5.207-1.888,5.18-5.762Z" transform="translate(-113.521 -0.383)" fill="#2a9a4e"/><path d="M287.776,164.918c3.87-.053,5.62,1.582,5.691,5,.04,1.862-.067,3.728.044,5.585a7.626,7.626,0,0,0,.764,2.168c.138.351.333.675.5,1.009a4.958,4.958,0,0,1-1.364.4,1.435,1.435,0,0,1-1.08-.475c-.769-1.217-1.417-.586-2.221-.04a5.7,5.7,0,0,1-5.056.8c-1.973-.6-2.826-1.608-2.941-3.51a3.5,3.5,0,0,1,2.666-4,27.956,27.956,0,0,1,4.607-.782c1.111-.133,2.084-.275,2.221-1.662a2.4,2.4,0,0,0-2.026-2.706,4.111,4.111,0,0,0-4.976,1.981c-.275.444-.849.671-1.284,1-.107-.631-.484-1.377-.267-1.875C284,165.62,285.963,165.016,287.776,164.918Zm2.266,7.251a31.611,31.611,0,0,0-4.74,1.306,2.666,2.666,0,0,0-1.257,2.124,2.923,2.923,0,0,0,1.444,2.079,4.421,4.421,0,0,0,6.144-3.963c.036-1.155-.244-1.808-1.577-1.546Z" transform="translate(-100.232 -38.326)" fill="#2a9a4e"/><path d="M231.677,105.979c0-2.484.044-4.967-.022-7.446-.04-1.333.2-2.115,1.857-2.048,3.017.116,6.042,0,9.063.071.475,0,.937.538,1.408.822-.444.28-.911.786-1.382.8q-3.592.12-7.188,0c-1.226-.031-1.826.2-1.879,1.653-.187,5.149-.249,5.149,4.914,5.149,1.146,0,2.3-.031,3.439.049.311,0,.6.4.889.609-.3.329-.578.924-.889.946-1.448.111-2.914.067-4.372.071-.835,0-1.671.044-2.5,0-1.08-.062-1.466.418-1.444,1.457.04,2.066.04,4.136-.022,6.22,0,.413-.3,1.075-.613,1.177-.942.307-1.271-.271-1.266-1.164C231.691,111.564,231.677,108.769,231.677,105.979Z" transform="translate(-72.194 -0.294)" fill="#239748"/><path d="M392.92,172.262a26.343,26.343,0,0,1-1.231,4.061,5.912,5.912,0,0,1-4.652,3.248,6.415,6.415,0,0,1-6.575-3.181,8.447,8.447,0,0,1,.777-9.272,6.353,6.353,0,0,1,7.077-1.728C391.054,166.362,392.644,168.845,392.92,172.262Zm-2.106.213c.04-3.163-1.506-5.442-3.95-5.82-2.835-.444-5.051,1.4-5.478,4.558-.489,3.6,1.333,6.522,4.212,6.753C388.668,178.215,390.792,176.007,390.814,172.475Z" transform="translate(-154.319 -38.347)" fill="#2a9a4e"/><path d="M419.117,179.611c-2.555,0-4.692-1.177-5.331-3.07-.169-.511.2-1.2.333-1.808a5.061,5.061,0,0,1,1.284,1c1.386,2.084,3.732,2.95,5.842,1.848a3,3,0,0,0,1.551-2.013,2.876,2.876,0,0,0-1.537-1.99,26.3,26.3,0,0,0-3.874-1.12c-2.563-.769-3.634-1.893-3.576-3.674s1.533-3.217,4-3.728c2.666-.551,5.171.48,6.056,2.639.2.493-.151,1.208-.249,1.822a5.181,5.181,0,0,1-1.293-.977c-1.271-1.777-2.835-2.475-4.758-1.777-.675.244-1.6,1.022-1.617,1.573a2.932,2.932,0,0,0,1.222,2.159,11.206,11.206,0,0,0,3.234,1.031c3.2.8,4.589,2.137,4.376,4.287s-2.4,3.7-5.331,3.807Z" transform="translate(-173.386 -38.322)" fill="#2a9a4e"/><path d="M470.68,172.305c.253-5.278,4.625-8.655,9.143-6.971a4.624,4.624,0,0,1,3.11,3.194,3.6,3.6,0,0,1-.044,1.084,3.761,3.761,0,0,1-1.391-.231c-.307-.178-.382-.711-.622-1.044a4.181,4.181,0,0,0-6.664-.3,7.044,7.044,0,0,0-.3,8.1,4.151,4.151,0,0,0,7.029-.2,10.8,10.8,0,0,1,.658-1.386c.209-.249.889-.444,1.026-.338a1.462,1.462,0,0,1,.475,1.151,5.571,5.571,0,0,1-4.852,4.2,6.217,6.217,0,0,1-6.26-3.2A28.118,28.118,0,0,1,470.68,172.305Z" transform="translate(-205.027 -38.315)" fill="#2a9a4e"/><path d="M348.439,172.16c0-1.853.027-3.71,0-5.562,0-.977.831-1.582,1.262-1.031,1,1.28,1.555.542,2.51.071,3.883-1.906,7.913.382,7.588,4.443-.2,2.559,0,5.149-.071,7.722,0,.444-.529.889-.809,1.333-.324-.418-.911-.822-.933-1.257-.107-1.95-.049-3.91-.049-5.869v-1.546c-.116-2.666-.924-3.71-3.017-3.852a3.919,3.919,0,0,0-4.527,3.648c-.2,2.044,0,4.123-.138,6.175-.067.929.889,2.666-1.022,2.595-1.493-.067-.658-1.648-.742-2.537A41.412,41.412,0,0,1,348.439,172.16Z" transform="translate(-137.038 -38.347)" fill="#27984b"/><path d="M397.883,115.634c0,1.857.053,3.719,0,5.571-.053,1.377-.373,1.457-1.657.635a1.5,1.5,0,0,0-1.071-.28,25.948,25.948,0,0,1-2.83,1.2,4.446,4.446,0,0,1-5.673-4.176c-.187-2.879-.1-5.776-.022-8.663,0-.4.613-.791.942-1.186.284.444.8.889.813,1.368.084,2.577,0,5.158.062,7.739.027,1.537.475,2.866,2.221,3.305a3.816,3.816,0,0,0,4.589-1.728,7.858,7.858,0,0,0,.769-2.941c.124-1.644.044-3.3.053-4.949a7.3,7.3,0,0,1,.058-1.848c.107-.373.6-.635.929-.951.28.342.564.675.826,1.026.053.067,0,.2,0,.3Z" transform="translate(-158.269 -7.101)" fill="#27984b"/><path d="M274.78,114.682c0-1.857-.058-3.714.053-5.562.022-.364.706-.689,1.088-1.035,1.155,1.417,2.173.2,3.217-.178,3.554-1.28,6.589.444,6.9,4.2a76.775,76.775,0,0,1,.04,8.339c0,.444-.6.835-.933,1.248-.275-.444-.769-.889-.786-1.333-.084-2.261,0-4.532-.058-6.8-.1-3.061-1.035-4.252-3.257-4.376-2.559-.147-4.385,1.475-4.594,4.358-.16,2.257,0,4.536-.089,6.8,0,.444-.524.889-.8,1.333-.262-.471-.724-.929-.746-1.408C274.727,118.378,274.78,116.534,274.78,114.682Z" transform="translate(-96.153 -6.411)" fill="#27984b"/><path d="M446.456,174.674c-2.586,0-3.3-.658-3.372-3-.084-2.475-.036-4.954,0-7.428,0-1.084.062-2.119-1.542-2.039-.249,0-.52-.466-.782-.72.2-.182.418-.538.609-.524,1.666.12,1.844-.866,1.719-2.141a2.323,2.323,0,0,1,.053-1.217,2.124,2.124,0,0,1,1.017-.844c.107-.044.578.444.689.773a2.906,2.906,0,0,1,.053,1.226c-.16,1.457.155,2.412,1.955,2.159.244-.031.555.444.831.658-.289.227-.613.684-.889.649-1.906-.262-1.955.889-1.924,2.253.058,2.266.022,4.536,0,6.806,0,.991.133,1.83,1.4,2.021a4.6,4.6,0,0,1,1.368.769Z" transform="translate(-188.4 -33.789)" fill="#239748"/><path d="M418.707,110.571v-3.11c0-1.333.315-2.835-1.87-2.666-.142,0-.373-.391-.444-.635-.044-.116.173-.444.258-.444,2.488.12,2.057-1.613,2.106-3.11,0-.4.418-.791.644-1.186a6.473,6.473,0,0,1,.986,1.271,2.559,2.559,0,0,1,.036,1.222c-.093,1.142.3,1.737,1.568,1.688.364,0,.746.444,1.12.666-.293.209-.6.618-.889.6-1.648-.133-1.87.782-1.83,2.106.067,2.061,0,4.127,0,6.193,0,1.493-.089,3.03,2.159,2.9.16,0,.484.391.48.6a.826.826,0,0,1-.52.582c-2.426.635-3.723-.36-3.816-2.932C418.667,113.051,418.707,111.811,418.707,110.571Z" transform="translate(-174.855 -1.927)" fill="#138f3b"/><path d="M272.5,172.625c0-1.853-.044-3.71.04-5.558,0-.338.542-.653.835-.977.311.315.889.631.889.955q.093,5.864,0,11.733c0,.329-.569.653-.889.982-.3-.32-.844-.631-.857-.96C272.463,176.744,272.5,174.682,272.5,172.625Z" transform="translate(-94.889 -38.977)" fill="#239748"/><path d="M463.415,172.894c0,1.955.04,3.91-.04,5.856,0,.347-.533.671-.817,1-.315-.32-.889-.64-.889-.969q-.1-5.851,0-11.711c0-.338.569-.666.889-1,.293.324.831.635.844.973C463.455,168.989,463.41,170.926,463.415,172.894Z" transform="translate(-199.993 -38.966)" fill="#2a9a4e"/><path d="M263.815,115.36c0-1.844-.044-3.692.036-5.531,0-.32.564-.618.862-.929.209.3.591.6.6.889.04,3.892.049,7.788,0,11.68,0,.315-.564.622-.889.929-.2-.3-.578-.6-.586-.889C263.788,119.461,263.815,117.412,263.815,115.36Z" transform="translate(-90.061 -7.196)" fill="#138f3b"/><path d="M265.817,98.268,264.4,99.455c-.3-.524-.817-1.035-.844-1.573,0-.4.591-.84.915-1.262Z" transform="translate(-89.927 -0.371)" fill="#2a9a4e"/><path d="M463.883,155.42l-1.2,1.466c-.347-.48-.889-.933-.969-1.453-.053-.409.484-.889.76-1.333Z" transform="translate(-200.044 -32.314)" fill="#2a9a4e"/><path d="M273.488,152.09a8.633,8.633,0,0,1,.769,2.444c-.036.444-.542,1.155-.889,1.191-1.111.116-.937-.857-.866-1.493A9.25,9.25,0,0,1,273.488,152.09Z" transform="translate(-94.866 -31.197)" fill="#2a9a4e"/><path d="M150.61,133.125c-.329,4.305-1.862,7.713-5.8,9.712a8.714,8.714,0,0,1-9.668-.813,10.113,10.113,0,0,1-4.172-10.294c.706-4.789,3.483-8.521,6.389-12.169.955-1.2,2.088-2.257,3.141-3.381,1.146,1.133,2.381,2.186,3.412,3.412,2.808,3.341,5.278,6.891,6.26,11.24C150.352,131.65,150.481,132.441,150.61,133.125Zm-3.11,0-1.031-1.182c-.271.48-.751.951-.782,1.444a7.249,7.249,0,0,1-2.337,4.852,3.819,3.819,0,0,0-.551,1.217c.56,0,1.3.2,1.639-.076a8.093,8.093,0,0,0,3.066-6.247Z" transform="translate(-16.162 -11.241)" fill="#138f3b"/><path d="M162.49,152.862a8.207,8.207,0,0,1-3.061,6.255c-.342.275-1.08.062-1.639.076a3.819,3.819,0,0,1,.551-1.217,7.268,7.268,0,0,0,2.337-4.852c.031-.493.511-.964.782-1.444Z" transform="translate(-31.148 -30.969)" fill="#dbede1"/><rect width="350" height="200" transform="translate(14.74 20.951)" fill="rgba(20,143,59,0.1)"/></g></svg>