<svg xmlns="http://www.w3.org/2000/svg" width="350" height="350" viewBox="0 0 350 350"><g transform="translate(-977 -54)"><path fill="rgba(20,143,59,0.1)" d="M977 54h350v350H977z"/><g transform="translate(962.26 40.048)"><path fill="#1d9443" d="M147.07 118.93a19.8 19.8 0 0 1-4.24 12.79c-.94 1.24-.74 1.87.28 2.78 1.54 1.38 2.97 2.9 4.44 4.34.64.63 1.15 1.2.28 2.06s-1.3.08-1.78-.38c-1.5-1.43-3.03-2.85-4.44-4.38-.96-1.03-1.63-1.2-2.82-.22-5 4.12-10.8 5.5-17.2 4.89-10.38-.99-19.2-10.38-19.8-20.72a22.66 22.66 0 1 1 45.29-1.16Zm-22.43-20.47a19.95 19.95 0 0 0-20.6 20.07c-.06 12.44 9.82 20.2 20.43 20.3 11.11.1 20.53-9.02 20.5-20a20.2 20.2 0 0 0-20.33-20.37"/><path fill="#27984b" d="M206.3 139.07h-.28c-3.56 2.15-6.31 2.13-8.44-.1s-2.45-6.78-.7-9.54c1.56-2.44 5.3-3.97 8.12-1.83.69.52 1.05 1.03 1.72-.21.39-.71 1.55-.52 1.55.78 0 4.33.1 8.67-.1 13a5.2 5.2 0 0 1-4.62 5.06c-2.89.51-5.75-.55-6.82-2.6a4 4 0 0 1-.11-1.4 5 5 0 0 1 1.56.37c.89.58 1.65 1.65 2.61 1.89 3.87.94 5.72-.98 5.5-5.42m.14-6.22a11 11 0 0 0-.79-2.5 4.03 4.03 0 0 0-6.77-.66c-1.72 2.03-1.77 6.16.06 8.04a4.7 4.7 0 0 0 2.4 1.25c3.1.56 5.15-1.67 5.1-6.13"/><path fill="#239748" d="M216.82 95.97c5.57 0 9.05 3.83 9.03 9.93-.03 5.81-3.64 9.83-8.89 9.87-5.4.05-9.22-4.04-9.26-9.89s3.98-10.28 9.12-9.9m7.11 9.88c0-4.09-1.9-7.1-5.05-8-4.47-1.26-7.97 1.04-9.05 5.96s1.5 9.53 5.6 10.22q.3.03.63.04c4.76.36 7.88-2.9 7.89-8.22Z"/><path fill="#1d9443" d="M159.49 131.14c0-2.59.03-5.17 0-7.76-.03-1.16.34-1.72 1.6-1.64 2.5.17 5.02.07 7.48.4a6.5 6.5 0 0 1 5.94 5.53 21 21 0 0 1 .06 7.01c-.67 3.72-3.17 5.78-6.92 6.02-2.49.18-5 .04-7.5.04-1.36-2.27-.37-4.75-.64-7.1a22 22 0 0 1-.02-2.5m5.4-7.85v.1h-1.25c-2.2.05-2.22.05-2.22 2.16-.03 3.2-.06 6.4 0 9.59.08 4.56-.93 4.04 4.14 4 5.54-.07 7.68-2.34 7.63-7.83a19 19 0 0 0-.4-3.04 5.3 5.3 0 0 0-4.5-4.52c-1.13-.23-2.28-.32-3.4-.46"/><path fill="#2a9a4e" d="M203.42 103.08c0-2.07-.07-3.81.04-5.53.03-.45.6-.87.94-1.3.28.45.8.93.8 1.4.05 5.47.03 10.94.04 16.43 0 .85-.6 1.78-1.16 1.07-1.05-1.33-1.68-.64-2.66-.15-4.06 1.99-8.15-.15-8.78-4.63a13 13 0 0 1 .06-4.3 5.97 5.97 0 0 1 8.89-4.17 19 19 0 0 1 1.83 1.18m0 5.28c0-3.03-1.29-5.03-3.5-5.5a4.27 4.27 0 0 0-5.43 3.67c-.8 3.95.63 7.11 3.42 7.56l.31.03c3.2.34 5.2-1.9 5.18-5.76Zm-15.88 18.24c3.87-.06 5.62 1.57 5.7 5 .04 1.85-.07 3.72.04 5.58a8 8 0 0 0 .76 2.17c.14.35.34.67.5 1a5 5 0 0 1-1.36.4 1.4 1.4 0 0 1-1.08-.47c-.77-1.22-1.42-.59-2.22-.04a5.7 5.7 0 0 1-5.06.8c-1.97-.6-2.82-1.6-2.94-3.51a3.5 3.5 0 0 1 2.67-4 28 28 0 0 1 4.6-.78c1.11-.14 2.09-.28 2.22-1.66a2.4 2.4 0 0 0-2.02-2.71 4.1 4.1 0 0 0-4.98 1.98c-.27.44-.85.67-1.28 1-.1-.63-.49-1.38-.27-1.87.95-2.2 2.91-2.8 4.72-2.9m2.27 7.24a32 32 0 0 0-4.74 1.3 2.7 2.7 0 0 0-1.26 2.13 3 3 0 0 0 1.45 2.08 4.42 4.42 0 0 0 6.14-3.96c.04-1.16-.24-1.8-1.58-1.55Z"/><path fill="#239748" d="M159.48 105.69c0-2.49.05-4.97-.02-7.45-.04-1.33.2-2.12 1.86-2.05 3.02.12 6.04 0 9.06.07.48 0 .94.54 1.4.82-.44.28-.9.79-1.37.8q-3.6.12-7.2 0c-1.22-.03-1.82.2-1.87 1.66-.19 5.15-.25 5.15 4.91 5.15 1.15 0 2.3-.03 3.44.05.31 0 .6.4.9.6-.3.33-.59.93-.9.95-1.45.11-2.91.07-4.37.07-.83 0-1.67.05-2.5 0-1.08-.06-1.47.42-1.44 1.46q.07 3.09-.03 6.22c0 .41-.3 1.07-.6 1.17-.95.31-1.28-.27-1.27-1.16q.02-4.17 0-8.36"/><path fill="#2a9a4e" d="M238.6 133.92a26 26 0 0 1-1.23 4.06 5.9 5.9 0 0 1-4.65 3.24 6.4 6.4 0 0 1-6.58-3.18 8.5 8.5 0 0 1 .78-9.27 6.35 6.35 0 0 1 7.08-1.73c2.73.97 4.33 3.46 4.6 6.87m-2.1.2c.04-3.16-1.51-5.43-3.95-5.81-2.84-.45-5.06 1.4-5.48 4.56-.5 3.6 1.33 6.52 4.2 6.75 3.08.25 5.2-1.96 5.23-5.5m9.23 7.18c-2.55 0-4.7-1.18-5.33-3.07-.17-.51.2-1.2.33-1.8a5 5 0 0 1 1.29 1c1.38 2.08 3.73 2.94 5.84 1.84a3 3 0 0 0 1.55-2.01 2.9 2.9 0 0 0-1.54-2 26 26 0 0 0-3.87-1.11c-2.56-.77-3.63-1.9-3.58-3.68s1.54-3.22 4-3.73c2.67-.55 5.17.48 6.06 2.64.2.5-.15 1.21-.25 1.82a5 5 0 0 1-1.3-.97c-1.26-1.78-2.83-2.48-4.75-1.78-.68.25-1.6 1.02-1.62 1.57a3 3 0 0 0 1.22 2.16 11 11 0 0 0 3.24 1.03c3.2.8 4.59 2.14 4.37 4.3s-2.4 3.7-5.33 3.8Zm19.92-7.3c.26-5.28 4.63-8.65 9.15-6.97a4.6 4.6 0 0 1 3.1 3.2 4 4 0 0 1-.04 1.08 4 4 0 0 1-1.39-.23c-.3-.18-.38-.71-.62-1.05a4.18 4.18 0 0 0-6.66-.3 7 7 0 0 0-.3 8.1 4.15 4.15 0 0 0 7.02-.2 11 11 0 0 1 .66-1.38c.21-.25.9-.45 1.03-.34a1.5 1.5 0 0 1 .47 1.15 5.6 5.6 0 0 1-4.85 4.2 6.2 6.2 0 0 1-6.26-3.2 28 28 0 0 1-1.3-4.06"/><path fill="#27984b" d="M211.4 133.81c0-1.85.03-3.7 0-5.56 0-.98.83-1.58 1.26-1.03 1 1.28 1.56.54 2.51.07 3.89-1.9 7.92.38 7.6 4.44-.2 2.56 0 5.15-.08 7.73 0 .44-.53.88-.8 1.33-.33-.42-.92-.82-.94-1.26-.1-1.95-.05-3.9-.05-5.87v-1.54c-.12-2.67-.93-3.71-3.02-3.86a3.9 3.9 0 0 0-4.52 3.65c-.2 2.05 0 4.13-.14 6.18-.07.93.89 2.66-1.02 2.6-1.5-.07-.66-1.66-.75-2.54a41 41 0 0 1-.05-4.34m28.21-25.28c0 1.86.06 3.72 0 5.57-.05 1.38-.37 1.46-1.65.64a1.5 1.5 0 0 0-1.07-.28 26 26 0 0 1-2.83 1.2 4.45 4.45 0 0 1-5.68-4.18c-.18-2.88-.1-5.77-.02-8.66 0-.4.61-.8.94-1.19.29.45.8.9.82 1.37.08 2.58 0 5.16.06 7.74.02 1.54.47 2.87 2.22 3.3a3.8 3.8 0 0 0 4.59-1.72 8 8 0 0 0 .77-2.94c.12-1.65.04-3.3.05-4.95a7 7 0 0 1 .06-1.85c.1-.37.6-.63.93-.95q.43.5.82 1.03c.06.06 0 .2 0 .3Zm-60.98-.26c0-1.86-.06-3.71.05-5.56.02-.36.7-.69 1.09-1.04 1.15 1.42 2.17.2 3.21-.17 3.56-1.28 6.6.44 6.9 4.2a77 77 0 0 1 .04 8.34c0 .44-.6.83-.93 1.24-.27-.44-.77-.89-.78-1.33-.09-2.26 0-4.53-.06-6.8-.1-3.06-1.04-4.25-3.26-4.38-2.56-.14-4.38 1.48-4.6 4.36-.15 2.26 0 4.54-.08 6.8 0 .45-.53.9-.8 1.34-.26-.48-.73-.93-.75-1.41-.09-1.9-.03-3.74-.03-5.59"/><path fill="#239748" d="M258.06 140.89c-2.59 0-3.3-.66-3.38-3-.08-2.48-.03-4.96 0-7.43 0-1.09.07-2.12-1.54-2.04-.25 0-.52-.47-.78-.72.2-.18.42-.54.6-.53 1.68.12 1.85-.86 1.73-2.14a2.3 2.3 0 0 1 .05-1.21 2 2 0 0 1 1.02-.85c.1-.04.58.45.69.78a3 3 0 0 1 .05 1.22c-.16 1.46.16 2.41 1.96 2.16.24-.03.55.44.83.66-.3.23-.62.68-.9.65-1.9-.26-1.95.89-1.92 2.25.06 2.27.02 4.54 0 6.8 0 1 .14 1.84 1.4 2.03a5 5 0 0 1 1.37.77Z"/><path fill="#138f3b" d="M243.85 108.64v-3.1c0-1.34.32-2.84-1.87-2.67-.14 0-.37-.4-.44-.64-.05-.11.17-.44.26-.44 2.48.12 2.05-1.61 2.1-3.11 0-.4.42-.8.65-1.19a7 7 0 0 1 .98 1.27 2.6 2.6 0 0 1 .04 1.23c-.1 1.14.3 1.73 1.57 1.68.36 0 .74.45 1.12.67-.3.2-.6.62-.9.6-1.64-.13-1.86.78-1.82 2.1.06 2.07 0 4.13 0 6.2 0 1.5-.1 3.03 2.16 2.9.16 0 .48.39.48.6a.8.8 0 0 1-.52.58q-3.66.94-3.82-2.93c-.03-1.27.01-2.5.01-3.75"/><path fill="#239748" d="M177.61 133.65c0-1.86-.04-3.71.04-5.56 0-.34.54-.65.84-.98.3.32.88.63.88.96q.1 5.86 0 11.73c0 .33-.56.65-.88.98-.3-.32-.85-.63-.86-.96-.06-2.05-.02-4.12-.02-6.17"/><path fill="#2a9a4e" d="M263.42 133.93c0 1.95.04 3.9-.04 5.85 0 .35-.53.67-.81 1-.32-.32-.9-.64-.9-.97q-.1-5.85 0-11.7c0-.34.57-.67.9-1 .29.32.83.63.84.97.05 1.94 0 3.88.01 5.85"/><path fill="#138f3b" d="M173.75 108.16c0-1.84-.04-3.69.04-5.53 0-.32.56-.61.86-.93.21.3.6.6.6.9q.07 5.83 0 11.67c0 .32-.56.63-.89.93-.2-.3-.58-.6-.58-.89-.05-2.05-.03-4.1-.03-6.15"/><path fill="#2a9a4e" d="m175.89 97.9-1.42 1.18c-.3-.52-.81-1.03-.84-1.57 0-.4.59-.84.91-1.26Zm87.95 25.2-1.2 1.47c-.35-.48-.89-.93-.97-1.45-.05-.41.48-.89.76-1.33Zm-85.22-2.2a9 9 0 0 1 .77 2.44c-.03.44-.54 1.15-.89 1.19-1.1.11-.93-.86-.86-1.5a9 9 0 0 1 .98-2.14"/><path fill="#138f3b" d="M134.45 121.88c-.33 4.3-1.86 7.72-5.8 9.72a8.7 8.7 0 0 1-9.67-.82 10.1 10.1 0 0 1-4.17-10.3c.7-4.78 3.48-8.51 6.39-12.16.95-1.2 2.08-2.26 3.14-3.38 1.14 1.13 2.38 2.19 3.41 3.41 2.8 3.34 5.28 6.9 6.26 11.24q.25 1.25.44 2.3m-3.11 0-1.03-1.18c-.27.48-.75.95-.79 1.45a7.3 7.3 0 0 1-2.33 4.85 4 4 0 0 0-.55 1.22c.56 0 1.3.2 1.64-.08a8.1 8.1 0 0 0 3.06-6.25Z"/><path fill="#dbede1" d="M131.34 121.9a8.2 8.2 0 0 1-3.06 6.25c-.34.27-1.08.06-1.64.07a4 4 0 0 1 .55-1.21 7.3 7.3 0 0 0 2.34-4.86c.03-.49.51-.96.78-1.44Z"/></g><g transform="translate(1033 227)"><path fill="none" stroke="#707070" stroke-linecap="round" stroke-width="2" d="M97 57h42m-14-13 14 13m-13 15 13-15"/><g transform="translate(151 1)"><g fill="#fff" stroke="#ebf1f5"><rect width="88" height="115" stroke="none" rx="5"/><rect width="87" height="114" x="0.5" y="0.5" fill="none" rx="4.5"/></g><g transform="translate(25 72.07)"><rect width="38.148" height="24.35" fill="#195f8c" rx="3"/><path fill="none" stroke="#ffe26a" stroke-width="4" d="M14.2 0v24.35m23.95-12.17H0"/></g></g><g fill="#fff" stroke="#ebf1f5"><rect width="88" height="115" stroke="none" rx="5"/><rect width="87" height="114" x="0.5" y="0.5" fill="none" rx="4.5"/></g><g transform="translate(23 20)"><path fill="#4285f3" d="M28.35 2.93a10 10 0 0 1 1.43 1.5 12 12 0 0 1 2.05 4.04.3.3 0 0 0 .1.16 8.3 8.3 0 0 1 3.11 4.16 8 8 0 0 1 .4 3.59 8.2 8.2 0 0 1-2.13 4.73 8.3 8.3 0 0 1-4.7 2.62 9 9 0 0 1-1.71.13h-6.26V18.7h6.41a4 4 0 0 0 .62-.05 3.23 3.23 0 0 0 2.57-3.87 3.2 3.2 0 0 0-3.02-2.51q-.14 0-.13-.14v-.83a6.4 6.4 0 0 0-.72-2.65A7 7 0 0 0 24.7 6.6Z"/><path fill="#fabb05" d="M9.14 22.15a8 8 0 0 1-1.54-1.5 8 8 0 0 1-1.76-4.7 8.3 8.3 0 0 1 3.5-7.32l.12-.09a11 11 0 0 1 1.33-.73 9 9 0 0 1 2.97-.71 8 8 0 0 1 1.29.03l.86.12.06.02a8.4 8.4 0 0 1 4.83 3.03q.1.1 0 .2l-3.56 3.56c-.09.08-.11.08-.16-.02a3.2 3.2 0 0 0-3.37-1.75 3.22 3.22 0 0 0-2.18 4.97 3.4 3.4 0 0 0 1.34 1.15l-.04.06Z"/><path fill="#e94335" d="m15.91 7.25-.86-.11a8 8 0 0 0-1.28-.04 9 9 0 0 0-2.97.71 11 11 0 0 0-1.34.74 11 11 0 0 1 1.31-3.02A11.5 11.5 0 0 1 17.81.35 11 11 0 0 1 20.34 0a11.5 11.5 0 0 1 5.5 1.23 11 11 0 0 1 2.43 1.62l.08.08-3.66 3.66-.08-.06a6.3 6.3 0 0 0-4.68-1.32 6.3 6.3 0 0 0-4.02 2.04"/><path fill="#34a753" d="m9.15 22.15 3.68-3.68.05-.06a4 4 0 0 0 1.8.29h5.97v5.16H14.2a8.3 8.3 0 0 1-4.9-1.59z"/><path fill="#606469" d="M4.2 35.08h1.18q.14 0 .14.12a2.52 2.52 0 0 1-2.44 2.97A2.9 2.9 0 0 1 .2 36.38a2.84 2.84 0 0 1 2.24-3.85 2.8 2.8 0 0 1 2.28.65q.14.1 0 .2l-.35.36c-.07.07-.1.09-.2.02a2.02 2.02 0 0 0-3.3 1.18 2.05 2.05 0 0 0 1.69 2.43 2 2 0 0 0 1.36-.24A1.6 1.6 0 0 0 4.7 36c.02-.1.02-.14-.11-.14H3.02q-.17.01-.14-.14v-.53q0-.14.11-.11zm12.34 2.68a1.4 1.4 0 0 1-1.64.27 1.7 1.7 0 0 1-1.08-1.43 1.8 1.8 0 0 1 1.14-1.97 1.4 1.4 0 0 1 1.53.26l.04.02.01-.03c.02-.26.02-.26.27-.26h.39q.13-.01.12.13v1.86q.02.83-.02 1.64a1.64 1.64 0 0 1-1.89 1.56 1.7 1.7 0 0 1-1.4-.95q-.1-.14.07-.19l.46-.19q.12-.06.17.06a1 1 0 0 0 1.26.48.9.9 0 0 0 .57-.88zm-1.92-1.4a1 1 0 0 0 .03.31 1 1 0 0 0 .86.77.9.9 0 0 0 .96-.55 1.2 1.2 0 0 0-.04-1.18.9.9 0 0 0-.88-.46 1.04 1.04 0 0 0-.93 1.12m26.06-1.22c-.05-.65-.01-1.27-.03-1.88q-.02-.19.16-.17h.36q.14-.01.13.13v4.68q.01.18-.16.15h-.37q-.1 0-.1-.09v-.39a1.4 1.4 0 0 1-.38.38 1.5 1.5 0 0 1-1.84-.21 1.95 1.95 0 0 1 .2-2.93 1.5 1.5 0 0 1 2.03.33m0 1.2-.03-.3a1.1 1.1 0 0 0-.82-.88 1 1 0 0 0-1.09.45 1.4 1.4 0 0 0 .03 1.54 1.03 1.03 0 0 0 1.72-.05 1.3 1.3 0 0 0 .19-.77ZM7.66 34.51a1.8 1.8 0 0 1 1.82 1.84 1.8 1.8 0 0 1-1.84 1.83 1.8 1.8 0 0 1-1.83-1.88 1.8 1.8 0 0 1 1.85-1.79m-.02 2.94a1 1 0 0 0 .63-.23 1.1 1.1 0 0 0 .36-1.19 1 1 0 0 0-1.15-.77 1.04 1.04 0 0 0-.85.94 1.07 1.07 0 0 0 1.01 1.25m5.84-1.1a1.8 1.8 0 0 1-1.86 1.83A1.8 1.8 0 0 1 9.8 36.3a1.8 1.8 0 0 1 1.88-1.79 1.8 1.8 0 0 1 1.8 1.84m-2.86 0 .01.2a1.1 1.1 0 0 0 .74.86 1 1 0 0 0 1.08-.38 1.2 1.2 0 0 0 .05-1.31 1 1 0 0 0-.94-.47 1.03 1.03 0 0 0-.94 1.1m10.15-1.84a1.6 1.6 0 0 1 1.51 1.04c.16.33.15.33-.17.47l-2 .82q-.16.04-.06.18a1 1 0 0 0 1.6.04c.09-.1.14-.11.24-.04l.4.28q.11.05.03.15a1.8 1.8 0 0 1-1.91.67 1.7 1.7 0 0 1-1.33-1.35 1.8 1.8 0 0 1 1.08-2.15 2 2 0 0 1 .6-.1m-.92 1.75q.08 0 .14-.04l1.3-.54c.2-.08.2-.12.04-.26l-.07-.05a.8.8 0 0 0-.9-.02 1 1 0 0 0-.51.9m4.87-.66a1.86 1.86 0 0 0 1.5 1.91 1.9 1.9 0 0 0 1.8-.53c.14-.14.14-.14.29 0l.22.22q.1.08 0 .16a2.4 2.4 0 0 1-1.51.78 2.5 2.5 0 0 1-2.53-1.09 2.6 2.6 0 0 1 1.48-3.98 2.4 2.4 0 0 1 2.32.55c.18.17.18.17 0 .34-.08.09-.16.22-.26.24s-.17-.14-.26-.21a1.9 1.9 0 0 0-3.01 1.13 2 2 0 0 0-.04.47m9.12.78a1.7 1.7 0 0 1-1.24 1.74 1.82 1.82 0 0 1-1.4-3.32 1.75 1.75 0 0 1 2.64 1.58m-.64-.04-.03-.26a1.1 1.1 0 0 0-.87-.9 1.1 1.1 0 0 0-1.12.5 1.4 1.4 0 0 0 .02 1.43 1.07 1.07 0 0 0 1.68.13 1.3 1.3 0 0 0 .32-.9m3.54 1.26a1.4 1.4 0 0 1-1.24.58 1.2 1.2 0 0 1-1.12-1.08l-.03-.5V34.8q0-.17.15-.15h.36q.15-.01.14.14v1.77l.03.39a.7.7 0 0 0 .53.6.8.8 0 0 0 .9-.27 1 1 0 0 0 .26-.75V34.8q-.02-.15.13-.14h.42q.1-.02.1.1v3.2q0 .12-.1.1h-.42q-.11 0-.1-.1zm-18.06-2.2v2.54q.01.15-.14.13H18q-.17.02-.15-.15v-5.1q-.01-.14.13-.12h.55q.16-.01.14.13zm11.13.19v2.34q.01.15-.14.14h-.39q-.14 0-.12-.12v-4.67q-.02-.19.17-.17h.35q.14-.01.13.13z"/><g transform="translate(1.577 50.19)"><rect width="38.148" height="24.35" fill="#d82f19" rx="3" transform="translate(0 .032)"/><path fill="none" stroke="#e6e6e6" stroke-width="3" d="M38.15 19.5H0m38.15-7H0m38.15-7H0"/><path fill="#195f8c" d="M3 0h13v14H0V3a3 3 0 0 1 3-3"/><circle cx="1" cy="1" r="1" fill="#fff" transform="translate(2 6)"/><circle cx="1" cy="1" r="1" fill="#fff" transform="translate(7 2)"/><circle cx="1" cy="1" r="1" fill="#fff" transform="translate(12 2)"/><circle cx="1" cy="1" r="1" fill="#fff" transform="translate(2 10)"/><circle cx="1" cy="1" r="1" fill="#fff" transform="translate(7 6)"/><circle cx="1" cy="1" r="1" fill="#fff" transform="translate(7 10)"/><circle cx="1" cy="1" r="1" fill="#fff" transform="translate(12 6)"/><circle cx="1" cy="1" r="1" fill="#fff" transform="translate(12 10)"/><circle cx="1" cy="1" r="1" fill="#fff" transform="translate(2 2)"/></g></g><path fill="#3c9bcd" d="M211.3 28.56a3 3 0 0 0-1.46-1.69l-13.87-6.64a3 3 0 0 0-1.14-.23 5 5 0 0 0-1.14.1l-13.87 6.68a2.4 2.4 0 0 0-1.36 1.68l-3.42 14.97a3 3 0 0 0 .5 2.18l9.6 11.87a3.3 3.3 0 0 0 2.1.96h15.27a2.3 2.3 0 0 0 2.1-.96l9.6-11.87a3 3 0 0 0 .54-2.18Z"/><path fill="#fff" d="M209.4 42.97q-.09.01-.1-.04c0-.06-.09-.05-.18-.05a2 2 0 0 0-.54-.05 1 1 0 0 1-.28-.04h-.04a9 9 0 0 1-1.55-.27.6.6 0 0 1-.31-.32l-.37-.1a12 12 0 0 0-.18-4 12 12 0 0 0-1.6-3.72l.28-.27v-.05a.6.6 0 0 1 .14-.41 8 8 0 0 1 1.27-.91l.27-.14.5-.27c.05-.05.1-.05.14-.1s0-.04 0-.08a.9.9 0 0 0 .18-1.28 1 1 0 0 0-.64-.32 1 1 0 0 0-.63.23l-.05.05q-.06.07-.13.09a3 3 0 0 0-.37.4c-.04.1-.13.14-.18.19a6 6 0 0 1-1.14 1 1 1 0 0 1-.27.09.3.3 0 0 1-.18-.05h-.05l-.36.23-1.14-1.1a11.7 11.7 0 0 0-5.91-2.36l-.05-.36V29a.6.6 0 0 1-.22-.36 9 9 0 0 1 .09-1.55v-.04l.04-.27c.05-.19.05-.37.1-.55v-.27a.9.9 0 0 0-.78-.96.9.9 0 0 0-.77.32 1 1 0 0 0-.27.64v.22a2 2 0 0 0 .09.55l.04.27v.05a9 9 0 0 1 .1 1.54.6.6 0 0 1-.23.37v.09l-.05.36q-.74.08-1.55.23a11 11 0 0 0-5.59 3.18l-.27-.18h-.05c-.04 0-.09.05-.18.05a1 1 0 0 1-.27-.1 8 8 0 0 1-1.14-1.04c-.04-.09-.14-.14-.18-.18-.14-.14-.23-.27-.37-.41-.04-.05-.09-.05-.13-.1l-.05-.04a1 1 0 0 0-.63-.22.7.7 0 0 0-.64.31 1 1 0 0 0 .18 1.28l.05.04s.09.1.13.1l.5.27.28.13a7 7 0 0 1 1.27.91.5.5 0 0 1 .13.41v-.04l.28.27c-.05.1-.1.14-.14.23a10.8 10.8 0 0 0-1.6 7.46l-.35.09-.05.04a.7.7 0 0 1-.32.32 9 9 0 0 1-1.54.27 1 1 0 0 0-.28.05c-.18 0-.36.04-.54.04-.05 0-.1.05-.18.05-.05 0-.05 0-.1.04a.9.9 0 0 0-.72 1.05.84.84 0 0 0 .9.64.4.4 0 0 0 .23-.05q.06.01.05-.04c-.01-.05.13 0 .18 0l.5-.19a1 1 0 0 1 .27-.09h.05a8 8 0 0 1 1.5-.4h.04a.5.5 0 0 1 .37.13l.04.05.41-.05a11 11 0 0 0 3.73 5.32 7 7 0 0 0 1.23.82l-.23.32.05.04a.5.5 0 0 1 .04.46 8 8 0 0 1-.73 1.32v.04a1 1 0 0 1-.18.23c-.09.09-.18.27-.32.45-.04.05-.04.1-.09.14l-.04.05a.94.94 0 0 0 .36 1.22 1 1 0 0 0 .32.1 1 1 0 0 0 .86-.55l.05-.05q0-.06.09-.13c.04-.19.14-.32.18-.5l.1-.28a8 8 0 0 1 .58-1.4.7.7 0 0 1 .37-.28q.05.01.04-.04l.18-.37a11 11 0 0 0 3.96.73 9 9 0 0 0 2.46-.32 14 14 0 0 0 1.45-.4l.18.31q.06-.01.05.05a.7.7 0 0 1 .36.27 8 8 0 0 1 .6 1.4v.05l.08.28a2 2 0 0 0 .19.5c.04.04.04.09.09.13l.04.05a1 1 0 0 0 .87.54 1 1 0 0 0 .36-.09.8.8 0 0 0 .41-.5 1 1 0 0 0-.05-.68l-.04-.04q0-.08-.1-.14a2 2 0 0 0-.3-.45 1 1 0 0 0-.2-.23v-.1a5 5 0 0 1-.72-1.31.5.5 0 0 1 .05-.46l.04-.04-.14-.37a11.2 11.2 0 0 0 4.92-6.18l.36.04.05-.04a.5.5 0 0 1 .36-.14h.04a8 8 0 0 1 1.46.41h.06a1 1 0 0 0 .27.1 2 2 0 0 0 .5.22l.18.04c.05 0 .05 0 .1.05a.4.4 0 0 0 .22.04 1 1 0 0 0 .91-.63 1.1 1.1 0 0 0-.82-.96Zm-13.15-1.41-1.23.6-1.22-.6-.32-1.32.86-1.1h1.37l.86 1.1Zm7.42-2.96a9 9 0 0 1 .18 2.87l-4.32-1.23a.74.74 0 0 1-.55-.9 1 1 0 0 1 .18-.33l3.41-3.1a9 9 0 0 1 1.1 2.69m-2.46-4.36-3.73 2.63a.8.8 0 0 1-1-.18.4.4 0 0 1-.13-.31l-.28-4.6a8.6 8.6 0 0 1 5.14 2.46m-8.23-2.33.9-.18-.22 4.55a.76.76 0 0 1-.77.73 1 1 0 0 1-.37-.1l-3.77-2.67a9 9 0 0 1 4.23-2.33m-5.55 4 3.36 3a.73.73 0 0 1 .1 1.05.5.5 0 0 1-.37.23l-4.41 1.27a9.6 9.6 0 0 1 1.32-5.55m-.77 7.7 4.5-.78a.75.75 0 0 1 .77.59.5.5 0 0 1-.05.45l-1.72 4.19a9 9 0 0 1-3.5-4.46m10.32 5.63a9 9 0 0 1-1.96.23 10 10 0 0 1-2.86-.46l2.23-4.04a.7.7 0 0 1 .9-.19 2 2 0 0 1 .37.32l2.19 3.96a7 7 0 0 0-.87.19Zm5.55-3.96A9 9 0 0 1 199.8 48l-1.77-4.27a.74.74 0 0 1 .4-.86 1 1 0 0 1 .42-.1l4.54.78a7 7 0 0 1-.86 1.73Z"/></g></g></svg>