<svg xmlns="http://www.w3.org/2000/svg" width="350" height="350" viewBox="0 0 350 350"><g transform="translate(-977 -54)"><rect width="350" height="350" transform="translate(977 54)" fill="rgba(20,143,59,0.1)"/><g transform="translate(962.26 40.048)"><path d="M147.074,119.237a19.788,19.788,0,0,1-4.243,12.791c-.946,1.244-.738,1.866.28,2.777,1.542,1.386,2.972,2.9,4.443,4.345.64.626,1.142,1.2.271,2.061s-1.293.076-1.777-.382c-1.5-1.431-3.026-2.852-4.443-4.376-.951-1.035-1.626-1.2-2.817-.222-4.989,4.118-10.8,5.5-17.2,4.887-10.374-.986-19.2-10.383-19.806-20.721a22.664,22.664,0,1,1,45.294-1.16ZM124.643,98.773a19.949,19.949,0,0,0-20.606,20.068c-.058,12.44,9.819,20.2,20.437,20.295,11.107.1,20.526-9.014,20.5-19.993a20.175,20.175,0,0,0-20.335-20.37Z" transform="translate(0 -0.308)" fill="#1d9443"/><path d="M323.882,177.384a.814.814,0,0,0-.275,0c-3.554,2.155-6.309,2.128-8.441-.093s-2.444-6.789-.693-9.543c1.555-2.439,5.291-3.967,8.117-1.83.689.52,1.053,1.031,1.719-.213.387-.711,1.555-.515,1.555.786,0,4.327.1,8.663-.1,12.986a5.179,5.179,0,0,1-4.629,5.065c-2.883.515-5.749-.546-6.811-2.6a3.86,3.86,0,0,1-.116-1.4,4.987,4.987,0,0,1,1.559.378c.889.573,1.648,1.648,2.612,1.884C322.251,183.751,324.1,181.827,323.882,177.384Zm.151-6.22a11.109,11.109,0,0,0-.791-2.5,4.032,4.032,0,0,0-6.771-.653c-1.724,2.03-1.777,6.153.062,8.037a4.665,4.665,0,0,0,2.395,1.248C322.024,177.86,324.081,175.63,324.033,171.165Z" transform="translate(-117.589 -38.316)" fill="#27984b"/><path d="M349.361,95.973c5.571,0,9.05,3.83,9.028,9.93-.027,5.811-3.643,9.827-8.886,9.872-5.4.044-9.219-4.043-9.263-9.894S344.22,95.6,349.361,95.973Zm7.108,9.881c0-4.092-1.9-7.108-5.051-8-4.469-1.266-7.97,1.04-9.046,5.953s1.5,9.534,5.6,10.218c.2.031.418.031.622.049,4.763.351,7.886-2.906,7.89-8.224Z" transform="translate(-132.539)" fill="#239748"/><path d="M231.63,163.386c0-2.586.031-5.171,0-7.757-.022-1.16.342-1.724,1.608-1.639,2.492.164,5.011.071,7.473.4a6.482,6.482,0,0,1,5.94,5.531,21.1,21.1,0,0,1,.058,7.011c-.662,3.714-3.163,5.776-6.917,6.02-2.488.178-5,.036-7.5.036-1.355-2.27-.364-4.754-.635-7.108A22.038,22.038,0,0,1,231.63,163.386Zm5.394-7.85v.111H235.78c-2.195.04-2.221.04-2.221,2.155-.027,3.194-.053,6.389,0,9.583.084,4.567-.924,4.047,4.141,4,5.54-.067,7.686-2.337,7.633-7.824a18.612,18.612,0,0,0-.4-3.043,5.3,5.3,0,0,0-4.5-4.518C239.307,155.767,238.148,155.682,237.024,155.536Z" transform="translate(-72.143 -32.248)" fill="#1d9443"/><path d="M316.939,103.464c0-2.075-.067-3.812.044-5.536.027-.444.6-.862.933-1.288.28.444.8.92.8,1.386.058,5.474.036,10.947.04,16.438,0,.844-.586,1.777-1.151,1.071-1.053-1.333-1.679-.64-2.666-.151-4.061,1.986-8.144-.151-8.783-4.634a13.245,13.245,0,0,1,.067-4.292,5.968,5.968,0,0,1,8.886-4.172A18.653,18.653,0,0,1,316.939,103.464Zm0,5.278c0-3.034-1.284-5.025-3.492-5.5a4.268,4.268,0,0,0-5.438,3.674c-.791,3.95.635,7.108,3.421,7.553.1,0,.209.022.311.031,3.2.338,5.207-1.888,5.18-5.762Z" transform="translate(-113.521 -0.383)" fill="#2a9a4e"/><path d="M287.776,164.918c3.87-.053,5.62,1.582,5.691,5,.04,1.862-.067,3.728.044,5.585a7.626,7.626,0,0,0,.764,2.168c.138.351.333.675.5,1.009a4.958,4.958,0,0,1-1.364.4,1.435,1.435,0,0,1-1.08-.475c-.769-1.217-1.417-.586-2.221-.04a5.7,5.7,0,0,1-5.056.8c-1.973-.6-2.826-1.608-2.941-3.51a3.5,3.5,0,0,1,2.666-4,27.956,27.956,0,0,1,4.607-.782c1.111-.133,2.084-.275,2.221-1.662a2.4,2.4,0,0,0-2.026-2.706,4.111,4.111,0,0,0-4.976,1.981c-.275.444-.849.671-1.284,1-.107-.631-.484-1.377-.267-1.875C284,165.62,285.963,165.016,287.776,164.918Zm2.266,7.251a31.611,31.611,0,0,0-4.74,1.306,2.666,2.666,0,0,0-1.257,2.124,2.923,2.923,0,0,0,1.444,2.079,4.421,4.421,0,0,0,6.144-3.963c.036-1.155-.244-1.808-1.577-1.546Z" transform="translate(-100.232 -38.326)" fill="#2a9a4e"/><path d="M231.677,105.979c0-2.484.044-4.967-.022-7.446-.04-1.333.2-2.115,1.857-2.048,3.017.116,6.042,0,9.063.071.475,0,.937.538,1.408.822-.444.28-.911.786-1.382.8q-3.592.12-7.188,0c-1.226-.031-1.826.2-1.879,1.653-.187,5.149-.249,5.149,4.914,5.149,1.146,0,2.3-.031,3.439.049.311,0,.6.4.889.609-.3.329-.578.924-.889.946-1.448.111-2.914.067-4.372.071-.835,0-1.671.044-2.5,0-1.08-.062-1.466.418-1.444,1.457.04,2.066.04,4.136-.022,6.22,0,.413-.3,1.075-.613,1.177-.942.307-1.271-.271-1.266-1.164C231.691,111.564,231.677,108.769,231.677,105.979Z" transform="translate(-72.194 -0.294)" fill="#239748"/><path d="M392.92,172.262a26.343,26.343,0,0,1-1.231,4.061,5.912,5.912,0,0,1-4.652,3.248,6.415,6.415,0,0,1-6.575-3.181,8.447,8.447,0,0,1,.777-9.272,6.353,6.353,0,0,1,7.077-1.728C391.054,166.362,392.644,168.845,392.92,172.262Zm-2.106.213c.04-3.163-1.506-5.442-3.95-5.82-2.835-.444-5.051,1.4-5.478,4.558-.489,3.6,1.333,6.522,4.212,6.753C388.668,178.215,390.792,176.007,390.814,172.475Z" transform="translate(-154.319 -38.347)" fill="#2a9a4e"/><path d="M419.117,179.611c-2.555,0-4.692-1.177-5.331-3.07-.169-.511.2-1.2.333-1.808a5.061,5.061,0,0,1,1.284,1c1.386,2.084,3.732,2.95,5.842,1.848a3,3,0,0,0,1.551-2.013,2.876,2.876,0,0,0-1.537-1.99,26.3,26.3,0,0,0-3.874-1.12c-2.563-.769-3.634-1.893-3.576-3.674s1.533-3.217,4-3.728c2.666-.551,5.171.48,6.056,2.639.2.493-.151,1.208-.249,1.822a5.181,5.181,0,0,1-1.293-.977c-1.271-1.777-2.835-2.475-4.758-1.777-.675.244-1.6,1.022-1.617,1.573a2.932,2.932,0,0,0,1.222,2.159,11.206,11.206,0,0,0,3.234,1.031c3.2.8,4.589,2.137,4.376,4.287s-2.4,3.7-5.331,3.807Z" transform="translate(-173.386 -38.322)" fill="#2a9a4e"/><path d="M470.68,172.305c.253-5.278,4.625-8.655,9.143-6.971a4.624,4.624,0,0,1,3.11,3.194,3.6,3.6,0,0,1-.044,1.084,3.761,3.761,0,0,1-1.391-.231c-.307-.178-.382-.711-.622-1.044a4.181,4.181,0,0,0-6.664-.3,7.044,7.044,0,0,0-.3,8.1,4.151,4.151,0,0,0,7.029-.2,10.8,10.8,0,0,1,.658-1.386c.209-.249.889-.444,1.026-.338a1.462,1.462,0,0,1,.475,1.151,5.571,5.571,0,0,1-4.852,4.2,6.217,6.217,0,0,1-6.26-3.2A28.118,28.118,0,0,1,470.68,172.305Z" transform="translate(-205.027 -38.315)" fill="#2a9a4e"/><path d="M348.439,172.16c0-1.853.027-3.71,0-5.562,0-.977.831-1.582,1.262-1.031,1,1.28,1.555.542,2.51.071,3.883-1.906,7.913.382,7.588,4.443-.2,2.559,0,5.149-.071,7.722,0,.444-.529.889-.809,1.333-.324-.418-.911-.822-.933-1.257-.107-1.95-.049-3.91-.049-5.869v-1.546c-.116-2.666-.924-3.71-3.017-3.852a3.919,3.919,0,0,0-4.527,3.648c-.2,2.044,0,4.123-.138,6.175-.067.929.889,2.666-1.022,2.595-1.493-.067-.658-1.648-.742-2.537A41.412,41.412,0,0,1,348.439,172.16Z" transform="translate(-137.038 -38.347)" fill="#27984b"/><path d="M397.883,115.634c0,1.857.053,3.719,0,5.571-.053,1.377-.373,1.457-1.657.635a1.5,1.5,0,0,0-1.071-.28,25.948,25.948,0,0,1-2.83,1.2,4.446,4.446,0,0,1-5.673-4.176c-.187-2.879-.1-5.776-.022-8.663,0-.4.613-.791.942-1.186.284.444.8.889.813,1.368.084,2.577,0,5.158.062,7.739.027,1.537.475,2.866,2.221,3.305a3.816,3.816,0,0,0,4.589-1.728,7.858,7.858,0,0,0,.769-2.941c.124-1.644.044-3.3.053-4.949a7.3,7.3,0,0,1,.058-1.848c.107-.373.6-.635.929-.951.28.342.564.675.826,1.026.053.067,0,.2,0,.3Z" transform="translate(-158.269 -7.101)" fill="#27984b"/><path d="M274.78,114.682c0-1.857-.058-3.714.053-5.562.022-.364.706-.689,1.088-1.035,1.155,1.417,2.173.2,3.217-.178,3.554-1.28,6.589.444,6.9,4.2a76.775,76.775,0,0,1,.04,8.339c0,.444-.6.835-.933,1.248-.275-.444-.769-.889-.786-1.333-.084-2.261,0-4.532-.058-6.8-.1-3.061-1.035-4.252-3.257-4.376-2.559-.147-4.385,1.475-4.594,4.358-.16,2.257,0,4.536-.089,6.8,0,.444-.524.889-.8,1.333-.262-.471-.724-.929-.746-1.408C274.727,118.378,274.78,116.534,274.78,114.682Z" transform="translate(-96.153 -6.411)" fill="#27984b"/><path d="M446.456,174.674c-2.586,0-3.3-.658-3.372-3-.084-2.475-.036-4.954,0-7.428,0-1.084.062-2.119-1.542-2.039-.249,0-.52-.466-.782-.72.2-.182.418-.538.609-.524,1.666.12,1.844-.866,1.719-2.141a2.323,2.323,0,0,1,.053-1.217,2.124,2.124,0,0,1,1.017-.844c.107-.044.578.444.689.773a2.906,2.906,0,0,1,.053,1.226c-.16,1.457.155,2.412,1.955,2.159.244-.031.555.444.831.658-.289.227-.613.684-.889.649-1.906-.262-1.955.889-1.924,2.253.058,2.266.022,4.536,0,6.806,0,.991.133,1.83,1.4,2.021a4.6,4.6,0,0,1,1.368.769Z" transform="translate(-188.4 -33.789)" fill="#239748"/><path d="M418.707,110.571v-3.11c0-1.333.315-2.835-1.87-2.666-.142,0-.373-.391-.444-.635-.044-.116.173-.444.258-.444,2.488.12,2.057-1.613,2.106-3.11,0-.4.418-.791.644-1.186a6.473,6.473,0,0,1,.986,1.271,2.559,2.559,0,0,1,.036,1.222c-.093,1.142.3,1.737,1.568,1.688.364,0,.746.444,1.12.666-.293.209-.6.618-.889.6-1.648-.133-1.87.782-1.83,2.106.067,2.061,0,4.127,0,6.193,0,1.493-.089,3.03,2.159,2.9.16,0,.484.391.48.6a.826.826,0,0,1-.52.582c-2.426.635-3.723-.36-3.816-2.932C418.667,113.051,418.707,111.811,418.707,110.571Z" transform="translate(-174.855 -1.927)" fill="#138f3b"/><path d="M272.5,172.625c0-1.853-.044-3.71.04-5.558,0-.338.542-.653.835-.977.311.315.889.631.889.955q.093,5.864,0,11.733c0,.329-.569.653-.889.982-.3-.32-.844-.631-.857-.96C272.463,176.744,272.5,174.682,272.5,172.625Z" transform="translate(-94.889 -38.977)" fill="#239748"/><path d="M463.415,172.894c0,1.955.04,3.91-.04,5.856,0,.347-.533.671-.817,1-.315-.32-.889-.64-.889-.969q-.1-5.851,0-11.711c0-.338.569-.666.889-1,.293.324.831.635.844.973C463.455,168.989,463.41,170.926,463.415,172.894Z" transform="translate(-199.993 -38.966)" fill="#2a9a4e"/><path d="M263.815,115.36c0-1.844-.044-3.692.036-5.531,0-.32.564-.618.862-.929.209.3.591.6.6.889.04,3.892.049,7.788,0,11.68,0,.315-.564.622-.889.929-.2-.3-.578-.6-.586-.889C263.788,119.461,263.815,117.412,263.815,115.36Z" transform="translate(-90.061 -7.196)" fill="#138f3b"/><path d="M265.817,98.268,264.4,99.455c-.3-.524-.817-1.035-.844-1.573,0-.4.591-.84.915-1.262Z" transform="translate(-89.927 -0.371)" fill="#2a9a4e"/><path d="M463.883,155.42l-1.2,1.466c-.347-.48-.889-.933-.969-1.453-.053-.409.484-.889.76-1.333Z" transform="translate(-200.044 -32.314)" fill="#2a9a4e"/><path d="M273.488,152.09a8.633,8.633,0,0,1,.769,2.444c-.036.444-.542,1.155-.889,1.191-1.111.116-.937-.857-.866-1.493A9.25,9.25,0,0,1,273.488,152.09Z" transform="translate(-94.866 -31.197)" fill="#2a9a4e"/><path d="M150.61,133.125c-.329,4.305-1.862,7.713-5.8,9.712a8.714,8.714,0,0,1-9.668-.813,10.113,10.113,0,0,1-4.172-10.294c.706-4.789,3.483-8.521,6.389-12.169.955-1.2,2.088-2.257,3.141-3.381,1.146,1.133,2.381,2.186,3.412,3.412,2.808,3.341,5.278,6.891,6.26,11.24C150.352,131.65,150.481,132.441,150.61,133.125Zm-3.11,0-1.031-1.182c-.271.48-.751.951-.782,1.444a7.249,7.249,0,0,1-2.337,4.852,3.819,3.819,0,0,0-.551,1.217c.56,0,1.3.2,1.639-.076a8.093,8.093,0,0,0,3.066-6.247Z" transform="translate(-16.162 -11.241)" fill="#138f3b"/><path d="M162.49,152.862a8.207,8.207,0,0,1-3.061,6.255c-.342.275-1.08.062-1.639.076a3.819,3.819,0,0,1,.551-1.217,7.268,7.268,0,0,0,2.337-4.852c.031-.493.511-.964.782-1.444Z" transform="translate(-31.148 -30.969)" fill="#dbede1"/></g><g transform="translate(1033 227)"><g transform="translate(78.169 44)"><line x2="42" transform="translate(18.831 13)" fill="none" stroke="#707070" stroke-linecap="round" stroke-width="2"/><line x2="14" y2="13" transform="translate(46.831)" fill="none" stroke="#707070" stroke-linecap="round" stroke-width="2"/><line y1="15" x2="13" transform="translate(47.831 13)" fill="none" stroke="#707070" stroke-linecap="round" stroke-width="2"/></g><g transform="translate(151 1)"><g fill="#fff" stroke="#ebf1f5" stroke-width="1"><rect width="88" height="115" rx="5" stroke="none"/><rect x="0.5" y="0.5" width="87" height="114" rx="4.5" fill="none"/></g><g transform="translate(12 17)"><g transform="translate(13 55.07)"><rect width="38.148" height="24.35" rx="3" fill="#195f8c"/><line y2="24.35" transform="translate(14.204)" fill="none" stroke="#ffe26a" stroke-width="4"/><line x1="38.148" transform="translate(0 12.175)" fill="none" stroke="#ffe26a" stroke-width="4"/></g></g></g><g fill="#fff" stroke="#ebf1f5" stroke-width="1"><rect width="88" height="115" rx="5" stroke="none"/><rect x="0.5" y="0.5" width="87" height="114" rx="4.5" fill="none"/></g><g transform="translate(23 20)"><path d="M306.686-82.542a10.284,10.284,0,0,1,1.427,1.506A11.531,11.531,0,0,1,310.167-77a.268.268,0,0,0,.108.159,8.326,8.326,0,0,1,3.107,4.156,8.18,8.18,0,0,1,.391,3.589,8.2,8.2,0,0,1-2.126,4.728,8.246,8.246,0,0,1-4.7,2.619,9.151,9.151,0,0,1-1.711.139q-3.035,0-6.07,0c-.062,0-.124,0-.186-.007v-5.153c.057,0,.114-.005.172-.005h6.24a3.606,3.606,0,0,0,.613-.053,3.226,3.226,0,0,0,2.57-3.867,3.207,3.207,0,0,0-3.018-2.513c-.1,0-.126-.037-.125-.133,0-.277,0-.554-.011-.831a6.392,6.392,0,0,0-.713-2.648,6.68,6.68,0,0,0-1.68-2.064Z" transform="translate(-278.337 85.475)" fill="#4285f3"/><path d="M-214,77.392a7.59,7.59,0,0,1-1.542-1.509,8.054,8.054,0,0,1-1.766-4.7,8.259,8.259,0,0,1,3.51-7.309c.038-.028.073-.06.11-.091a11.167,11.167,0,0,1,1.338-.737,8.461,8.461,0,0,1,2.969-.71,7.958,7.958,0,0,1,1.283.034c.288.032.574.078.861.117a.482.482,0,0,0,.065.025,8.375,8.375,0,0,1,4.831,3.031c.061.077.073.118-.006.2q-1.785,1.776-3.562,3.56c-.081.081-.105.081-.16-.027a3.2,3.2,0,0,0-3.366-1.742,3.221,3.221,0,0,0-2.183,4.969,3.435,3.435,0,0,0,1.346,1.149c-.015.018-.029.038-.046.054Z" transform="translate(223.144 -55.24)" fill="#fabb05"/><path d="M-84.406-177.483c-.287-.04-.573-.086-.861-.117a7.956,7.956,0,0,0-1.283-.034,8.461,8.461,0,0,0-2.969.71,11.169,11.169,0,0,0-1.338.737,10.719,10.719,0,0,1,1.311-3.022,11.53,11.53,0,0,1,7.036-5.175,11.034,11.034,0,0,1,2.535-.348,11.467,11.467,0,0,1,5.506,1.222,11.328,11.328,0,0,1,2.42,1.627c.029.025.055.053.082.079l-3.654,3.655c-.027-.019-.055-.037-.081-.057a6.324,6.324,0,0,0-4.685-1.322A6.311,6.311,0,0,0-84.406-177.483Z" transform="translate(100.316 184.736)" fill="#e94335"/><path d="M-101.756,460.674l3.685-3.683c.017-.017.03-.036.046-.054a4.316,4.316,0,0,0,1.807.285c1.931-.01,3.861,0,5.792,0,.057,0,.114,0,.172.006q0,2.577,0,5.153c-.057,0-.114.006-.172.006-2.094,0-4.188,0-6.282,0a8.26,8.26,0,0,1-4.9-1.593C-101.661,460.754-101.708,460.713-101.756,460.674Z" transform="translate(110.903 -438.522)" fill="#34a753"/><path d="M-416.27,950.206c.392,0,.784,0,1.176,0,.1,0,.133.036.144.128a2.524,2.524,0,0,1-2.442,2.969,2.9,2.9,0,0,1-2.872-1.788,2.835,2.835,0,0,1,2.242-3.855,2.787,2.787,0,0,1,2.282.652c.09.078.1.125.005.207a4.549,4.549,0,0,0-.356.354c-.065.071-.1.087-.191.014a2.023,2.023,0,0,0-3.3,1.185,2.046,2.046,0,0,0,1.68,2.427,2.015,2.015,0,0,0,1.357-.241,1.558,1.558,0,0,0,.787-1.123c.018-.1.014-.149-.116-.147-.526.008-1.052,0-1.578.006-.117,0-.145-.035-.14-.145.009-.177.007-.354,0-.531,0-.09.027-.113.114-.112C-417.074,950.208-416.672,950.206-416.27,950.206Z" transform="translate(420.47 -915.131)" fill="#606469"/><path d="M63.368,1020.849a1.37,1.37,0,0,1-1.638.278,1.707,1.707,0,0,1-1.079-1.43,1.812,1.812,0,0,1,1.139-1.978,1.382,1.382,0,0,1,1.534.262.147.147,0,0,0,.033.018c.007-.011.014-.018.015-.026.015-.256.014-.256.267-.256.129,0,.259.006.387,0,.1-.006.12.029.12.122,0,.622,0,1.244,0,1.865,0,.545.024,1.09-.022,1.635a1.639,1.639,0,0,1-1.882,1.563,1.721,1.721,0,0,1-1.409-.952c-.06-.1-.034-.145.072-.183a4.888,4.888,0,0,0,.462-.194c.089-.042.127-.021.174.064a.981.981,0,0,0,1.257.476.919.919,0,0,0,.572-.883C63.376,1021.109,63.368,1020.989,63.368,1020.849Zm-1.922-1.391a1.01,1.01,0,0,0,.036.308,1.039,1.039,0,0,0,.854.766.929.929,0,0,0,.968-.545,1.216,1.216,0,0,0-.047-1.18.866.866,0,0,0-.883-.466A1.039,1.039,0,0,0,61.446,1019.458Z" transform="translate(-46.829 -983.093)" fill="#606469"/><path d="M902.474,970.611c-.049-.654-.017-1.27-.031-1.885,0-.127.025-.182.162-.167a2.054,2.054,0,0,0,.358,0c.1-.007.129.029.128.128,0,.459,0,.918,0,1.377,0,1.1,0,2.2,0,3.3,0,.13-.036.168-.161.157a3.191,3.191,0,0,0-.373,0c-.069,0-.093-.023-.09-.091,0-.118,0-.236,0-.391a1.408,1.408,0,0,1-.386.375,1.513,1.513,0,0,1-1.838-.207,1.954,1.954,0,0,1,.2-2.932A1.484,1.484,0,0,1,902.474,970.611Zm0,1.191a1.255,1.255,0,0,0-.028-.3,1.082,1.082,0,0,0-.826-.872,1.037,1.037,0,0,0-1.085.446,1.433,1.433,0,0,0,.031,1.541,1.032,1.032,0,0,0,1.713-.052A1.288,1.288,0,0,0,902.471,971.8Z" transform="translate(-861.791 -935.459)" fill="#606469"/><path d="M-216.363,1017.886a1.8,1.8,0,0,1,1.829,1.837,1.808,1.808,0,0,1-1.843,1.826,1.821,1.821,0,0,1-1.836-1.876A1.812,1.812,0,0,1-216.363,1017.886Zm-.011,2.931a.931.931,0,0,0,.621-.222,1.115,1.115,0,0,0,.367-1.189,1,1,0,0,0-1.149-.778,1.04,1.04,0,0,0-.858.945A1.072,1.072,0,0,0-216.374,1020.817Z" transform="translate(224.018 -983.372)" fill="#606469"/><path d="M-75.175,1019.721a1.8,1.8,0,0,1-1.854,1.825,1.8,1.8,0,0,1-1.819-1.875,1.8,1.8,0,0,1,1.877-1.786A1.8,1.8,0,0,1-75.175,1019.721Zm-2.861-.007c0,.067.006.134.014.2a1.073,1.073,0,0,0,.74.866,1,1,0,0,0,1.079-.38,1.192,1.192,0,0,0,.048-1.31.948.948,0,0,0-.933-.472A1.029,1.029,0,0,0-78.035,1019.714Z" transform="translate(88.652 -983.371)" fill="#606469"/><path d="M244.549,1017.814a1.633,1.633,0,0,1,1.514,1.038c.158.329.154.333-.175.47-.665.276-1.33.552-2,.823-.1.042-.128.073-.059.175a1,1,0,0,0,1.609.044c.081-.1.132-.116.234-.037a4.635,4.635,0,0,0,.4.271c.072.044.09.077.029.152a1.781,1.781,0,0,1-1.911.674,1.693,1.693,0,0,1-1.327-1.354,1.82,1.82,0,0,1,1.075-2.149A1.7,1.7,0,0,1,244.549,1017.814Zm-.92,1.746c.058.016.1-.018.141-.035q.653-.269,1.3-.542c.195-.081.2-.118.042-.26a.543.543,0,0,0-.069-.051.81.81,0,0,0-.892-.024A.971.971,0,0,0,243.629,1019.56Z" transform="translate(-223.782 -983.302)" fill="#606469"/><path d="M417.916,967.077A1.862,1.862,0,0,0,419.41,969a1.9,1.9,0,0,0,1.8-.533c.146-.143.145-.144.292,0,.074.074.145.153.224.222.063.055.069.091.008.157a2.429,2.429,0,0,1-1.522.784,2.488,2.488,0,0,1-2.527-1.091,2.6,2.6,0,0,1,1.477-3.981,2.378,2.378,0,0,1,2.322.549c.182.168.185.167.01.339-.088.087-.17.221-.273.242s-.169-.141-.257-.215a1.9,1.9,0,0,0-3.009,1.131A2.4,2.4,0,0,0,417.916,967.077Z" transform="translate(-393.205 -931.486)" fill="#606469"/><path d="M640.176,1020.469a1.709,1.709,0,0,1-1.243,1.739,1.824,1.824,0,0,1-1.388-3.321,1.746,1.746,0,0,1,2.631,1.582Zm-.636-.035c-.008-.067-.015-.167-.033-.266a1.116,1.116,0,0,0-.87-.9,1.078,1.078,0,0,0-1.122.494,1.415,1.415,0,0,0,.023,1.443,1.065,1.065,0,0,0,1.684.13A1.292,1.292,0,0,0,639.539,1020.433Z" transform="translate(-606.348 -984.101)" fill="#606469"/><path d="M778.44,1025.843a1.349,1.349,0,0,1-1.238.576,1.166,1.166,0,0,1-1.128-1.078,3.651,3.651,0,0,1-.024-.5c0-.593,0-1.186,0-1.779,0-.122.035-.158.153-.148a2.228,2.228,0,0,0,.358,0c.108-.008.139.027.138.135,0,.593,0,1.186,0,1.779a1.992,1.992,0,0,0,.03.385.689.689,0,0,0,.529.594.82.82,0,0,0,.894-.264,1.137,1.137,0,0,0,.264-.754c0-.578,0-1.157,0-1.736,0-.1.022-.147.135-.139a4.074,4.074,0,0,0,.416,0c.071,0,.1.014.1.094q0,1.607,0,3.213c0,.08-.032.1-.1.094-.139,0-.278-.005-.416,0-.085,0-.108-.032-.1-.11C778.444,1026.1,778.44,1025.989,778.44,1025.843Z" transform="translate(-741.709 -988.254)" fill="#606469"/><path d="M202.558,956.9c0,.846,0,1.692,0,2.537,0,.107-.026.141-.135.136a4.711,4.711,0,0,0-.53,0c-.123.007-.149-.035-.149-.152,0-1.348,0-2.7,0-4.043,0-.354,0-.707,0-1.061,0-.1.029-.124.121-.12.186.006.373.009.559,0,.112-.006.133.033.133.137C202.556,955.189,202.558,956.044,202.558,956.9Z" transform="translate(-183.89 -921.51)" fill="#606469"/><path d="M595.962,971.046c0,.779,0,1.558,0,2.336,0,.11-.024.155-.141.146a2.9,2.9,0,0,0-.387,0c-.1.006-.131-.033-.118-.124a.316.316,0,0,0,0-.043c0-1.543,0-3.086,0-4.629,0-.13.03-.179.164-.165a2.08,2.08,0,0,0,.358,0c.1-.007.127.031.127.129C595.96,969.479,595.962,970.263,595.962,971.046Z" transform="translate(-566.163 -935.466)" fill="#606469"/><g transform="translate(1.577 50.19)"><rect width="38.148" height="24.35" rx="3" transform="translate(0 0.032)" fill="#d82f19"/><line x1="38.148" transform="translate(0 19.5)" fill="none" stroke="#e6e6e6" stroke-width="3"/><line x1="38.148" transform="translate(0 12.5)" fill="none" stroke="#e6e6e6" stroke-width="3"/><line x1="38.148" transform="translate(0 5.5)" fill="none" stroke="#e6e6e6" stroke-width="3"/><path d="M3,0H16a0,0,0,0,1,0,0V14a0,0,0,0,1,0,0H0a0,0,0,0,1,0,0V3A3,3,0,0,1,3,0Z" fill="#195f8c"/><circle cx="1" cy="1" r="1" transform="translate(2 6)" fill="#fff"/><circle cx="1" cy="1" r="1" transform="translate(7 2)" fill="#fff"/><circle cx="1" cy="1" r="1" transform="translate(12 2)" fill="#fff"/><circle cx="1" cy="1" r="1" transform="translate(2 10)" fill="#fff"/><circle cx="1" cy="1" r="1" transform="translate(7 6)" fill="#fff"/><circle cx="1" cy="1" r="1" transform="translate(7 10)" fill="#fff"/><circle cx="1" cy="1" r="1" transform="translate(12 6)" fill="#fff"/><circle cx="1" cy="1" r="1" transform="translate(12 10)" fill="#fff"/><circle cx="1" cy="1" r="1" transform="translate(2 2)" fill="#fff"/></g></g><path d="M36.293,8.551a2.944,2.944,0,0,0-1.455-1.683L20.966.227A2.545,2.545,0,0,0,19.829,0a4.8,4.8,0,0,0-1.137.091L4.82,6.777A2.444,2.444,0,0,0,3.455,8.46L.044,23.423a2.869,2.869,0,0,0,.5,2.183l9.6,11.871a3.311,3.311,0,0,0,2.092.955H27.515a2.267,2.267,0,0,0,2.092-.955l9.6-11.871a3.106,3.106,0,0,0,.546-2.183Z" transform="translate(175 20.004)" fill="#3c9bcd"/><path d="M39.86,28.655h0c-.045,0-.091,0-.091-.045s-.091-.045-.182-.045a2.214,2.214,0,0,0-.546-.045.577.577,0,0,1-.273-.045h-.045a9.191,9.191,0,0,1-1.546-.273.549.549,0,0,1-.318-.318h0l-.364-.091a11.862,11.862,0,0,0-.182-4,12.321,12.321,0,0,0-1.592-3.729l.273-.273h0V19.74a.635.635,0,0,1,.136-.409,8.146,8.146,0,0,1,1.273-.91h0l.273-.136c.182-.091.318-.182.5-.273.045-.045.091-.045.136-.091s0-.045,0-.091h0a.89.89,0,0,0,.182-1.273.869.869,0,0,0-.637-.318,1.087,1.087,0,0,0-.637.227h0l-.045.045c-.045.045-.091.091-.136.091a2.942,2.942,0,0,0-.364.409c-.045.091-.136.136-.182.182h0a5.98,5.98,0,0,1-1.137,1,.646.646,0,0,1-.273.091.273.273,0,0,1-.182-.045h-.045l-.364.227c-.364-.364-.773-.728-1.137-1.092a11.654,11.654,0,0,0-5.913-2.365l-.045-.364h0v.045a.625.625,0,0,1-.227-.364,9.086,9.086,0,0,1,.091-1.546v-.045c0-.091.045-.182.045-.273.045-.182.045-.364.091-.546v-.273h0a.9.9,0,0,0-.773-.955.912.912,0,0,0-.773.318.9.9,0,0,0-.273.637h0v.227a2.283,2.283,0,0,0,.091.546.577.577,0,0,1,.045.273v.045a8.571,8.571,0,0,1,.091,1.546.625.625,0,0,1-.227.364v.091h0l-.045.364c-.5.045-1,.136-1.546.227a10.842,10.842,0,0,0-5.594,3.184l-.273-.182h-.045c-.045,0-.091.045-.182.045a.646.646,0,0,1-.273-.091,8.386,8.386,0,0,1-1.137-1.046h0c-.045-.091-.136-.136-.182-.182-.136-.136-.227-.273-.364-.409-.045-.045-.091-.045-.136-.091l-.045-.045h0a1.087,1.087,0,0,0-.637-.227.688.688,0,0,0-.637.318.978.978,0,0,0,.182,1.273h0a.045.045,0,0,1,.045.045s.091.091.136.091a4.961,4.961,0,0,0,.5.273l.273.136h0a6.457,6.457,0,0,1,1.273.91.458.458,0,0,1,.136.409v-.045h0l.273.273c-.045.091-.091.136-.136.227a10.8,10.8,0,0,0-1.592,7.459l-.364.091h0a.045.045,0,0,1-.045.045.717.717,0,0,1-.318.318,8.448,8.448,0,0,1-1.546.273h0a.577.577,0,0,0-.273.045c-.182,0-.364.045-.546.045-.045,0-.091.045-.182.045-.045,0-.045,0-.091.045h0a.888.888,0,0,0-.728,1.046h0a.844.844,0,0,0,.91.637.41.41,0,0,0,.227-.045h0c.045,0,.045,0,.045-.045s.136,0,.182,0c.182-.045.364-.136.5-.182a.646.646,0,0,1,.273-.091h.045a8.108,8.108,0,0,1,1.5-.409h.045a.516.516,0,0,1,.364.136.045.045,0,0,1,.045.045h0l.409-.045a10.978,10.978,0,0,0,3.729,5.321,7.213,7.213,0,0,0,1.228.819l-.227.318h0a.045.045,0,0,0,.045.045.538.538,0,0,1,.045.455,7.463,7.463,0,0,1-.728,1.319v.045a.8.8,0,0,1-.182.227c-.091.091-.182.273-.318.455-.045.045-.045.091-.091.136a.045.045,0,0,1-.045.045h0a.936.936,0,0,0,.364,1.228.843.843,0,0,0,.318.091,1.019,1.019,0,0,0,.864-.546h0a.045.045,0,0,1,.045-.045c0-.045.045-.091.091-.136.045-.182.136-.318.182-.5l.091-.273h0a7.7,7.7,0,0,1,.591-1.41.707.707,0,0,1,.364-.273c.045,0,.045,0,.045-.045h0l.182-.364a10.706,10.706,0,0,0,3.957.728,9.107,9.107,0,0,0,2.456-.318,13.588,13.588,0,0,0,1.455-.409l.182.318h0c.045,0,.045,0,.045.045a.707.707,0,0,1,.364.273,7.7,7.7,0,0,1,.591,1.41v.045l.091.273a1.629,1.629,0,0,0,.182.5c.045.045.045.091.091.136a.045.045,0,0,0,.045.045h0a1.019,1.019,0,0,0,.864.546,1.07,1.07,0,0,0,.364-.091.761.761,0,0,0,.409-.5,1.17,1.17,0,0,0-.045-.682h0a.045.045,0,0,0-.045-.045c0-.045-.045-.091-.091-.136a1.633,1.633,0,0,0-.318-.455.8.8,0,0,0-.182-.227v-.091a5.374,5.374,0,0,1-.728-1.319.538.538,0,0,1,.045-.455.045.045,0,0,1,.045-.045h0l-.136-.364a11.242,11.242,0,0,0,4.912-6.186l.364.045h0a.045.045,0,0,0,.045-.045.516.516,0,0,1,.364-.136h.045a7.647,7.647,0,0,1,1.455.409H38.5a.646.646,0,0,0,.273.091,2.438,2.438,0,0,0,.5.227c.045,0,.091.045.182.045.045,0,.045,0,.091.045h0a.41.41,0,0,0,.227.045.989.989,0,0,0,.91-.637,1.072,1.072,0,0,0-.819-.955Zm-13.144-1.41-1.228.591-1.228-.591-.318-1.319.864-1.092H26.17l.864,1.092Zm7.414-2.956a8.707,8.707,0,0,1,.182,2.865l-4.321-1.228h0a.744.744,0,0,1-.546-.91.733.733,0,0,1,.182-.318L33.038,21.6a9.253,9.253,0,0,1,1.092,2.683Zm-2.456-4.366-3.73,2.637a.773.773,0,0,1-1-.182.413.413,0,0,1-.136-.318l-.273-4.594a8.559,8.559,0,0,1,5.139,2.456ZM23.441,17.6l.91-.182-.227,4.548h0a.758.758,0,0,1-.773.728,1.07,1.07,0,0,1-.364-.091L19.212,19.92a9.032,9.032,0,0,1,4.23-2.32Zm-5.549,4,3.366,3h0a.731.731,0,0,1,.091,1.046.512.512,0,0,1-.364.227l-4.412,1.273A9.574,9.574,0,0,1,17.892,21.6Zm-.773,7.686,4.5-.773a.745.745,0,0,1,.773.591.538.538,0,0,1-.045.455h0l-1.728,4.184a8.947,8.947,0,0,1-3.5-4.457Zm10.324,5.64a9.2,9.2,0,0,1-1.956.227,10.193,10.193,0,0,1-2.865-.455l2.229-4.048a.705.705,0,0,1,.91-.182,2.278,2.278,0,0,1,.364.318h0l2.183,3.957a7.39,7.39,0,0,0-.864.188Zm5.549-3.957A8.685,8.685,0,0,1,30.263,33.7L28.49,29.428a.74.74,0,0,1,.409-.864,1.328,1.328,0,0,1,.409-.091l4.548.773a6.829,6.829,0,0,1-.864,1.728Z" transform="translate(169.537 14.315)" fill="#fff"/></g></g></svg>