<svg xmlns="http://www.w3.org/2000/svg" xmlns:xlink="http://www.w3.org/1999/xlink" width="1820" height="1152" viewBox="0 0 1820 1152"><defs><radialGradient id="radial-gradient" cx="0.5" cy="0.5" r="0.5" gradientUnits="objectBoundingBox"><stop offset="0" stop-color="#fff"/><stop offset="1" stop-color="#e7eff3"/></radialGradient><clipPath id="clip-FR2000_2024"><path d="M0 0h1820v1152H0z"/></clipPath></defs><g id="FR2000_2024" clip-path="url(#clip-FR2000_2024)"><path fill="url(#radial-gradient)" d="M0 0h1820v1152H0z"/><g id="c" transform="translate(417 335)"><path id="Path_6291" fill="#afcb0a" d="M49 404.27c2.65-3.41 5.01-7.11 8.03-10.15q84.06-84.46 168.34-168.78c16.7-16.7 24.37-36.24 18.81-59.61-5.72-24.2-21.4-39.32-45.1-46.3-2.66-.78-5.36-1.44-8.16-2.2V55.4c39.24 1.75 69.14 19.5 93.9 49.59 26.28-31.5 58.73-49.78 100.6-49.78 42 0 74.69 17.81 100.71 49.68 55.24-68.89 152.73-64.02 203.08 1.24 1.97-2.82 3.5-5.62 5.6-7.93 36.73-40.39 82.37-53.24 133.5-36.69 51.46 16.65 79.65 54.65 85.08 108.92.17 1.72 1.46 3.33 2.24 5.01v9.74c-.86 2.9-2.15 5.74-2.49 8.69-10.3 85.15-100.34 134.9-177.63 98.05-18.6-8.86-33.79-22.05-46.91-38.78-26.27 32.72-59.35 50.74-100.95 50.8-41.65.08-74.66-18.3-100.76-50.07-51.24 64.44-145.57 69.18-200.3 2.65l-87.42 84.84h110.3v62.88H49ZM525.91 179.7a61.8 61.8 0 0 0 61.93 61.66c33.67-.17 62.44-29.19 61.74-62.24-.73-34.1-28.7-61.81-62.35-61.74-33.81.07-61.46 28.2-61.32 62.34Zm-201.83-.1c.02 34.03 28.04 62.03 61.78 61.74 33.47-.3 61.23-27.76 61.6-60.99.38-34.44-27.78-63.04-62.04-63.02-33.61.02-61.37 28.21-61.34 62.27m526.62 1.46c.6-34.98-26.51-63.36-60.88-63.73-33.11-.34-61.54 27.34-61.98 60.35-.46 35.1 26.46 63.22 61 63.66 33.35.44 61.28-26.76 61.86-60.28" transform="translate(70.282 78.145)"/><path id="Path_6292" fill="#6b6e73" d="M155.6.17c50.2 8.98 90.66 60.4 92.9 113.2.07 2-.15 4-.3 6.94h-61.49c-2.24-23.13-12-42.36-33.3-53.95a59 59 0 0 0-42.31-6.01c-30.65 6.89-53.55 36.59-47.27 72.78h66.55v61.93H62.93v170.48H0V95.33s3.6-6.01 4.65-9.28C18.99 41.35 48.45 12.41 93.92 0"/><path id="Path_6293" fill="#6b6e73" d="M171 55.23v60.49c-2.29.83-4.8 1.9-7.4 2.6-29.4 7.93-47.76 31.62-47.9 62.44-.18 31.23-.03 62.44-.03 93.67v12.25H55.69c-.78-1.32-1.54-1.97-1.54-2.63 0-40.12-1.53-80.33.54-120.36 2.75-53.23 51.1-102.24 103.85-108.4 3.9-.46 7.88-.04 12.49-.04Z" transform="translate(76.888 79.003)"/><path id="Path_6294" fill="#707070" d="M167.33 185.6a13.5 13.5 0 0 1 5.19-5.26 15 15 0 0 1 7.54-1.87 14.4 14.4 0 0 1 8.87 2.72 13 13 0 0 1 4.91 7.45h-7.79a6.4 6.4 0 0 0-2.46-2.77 7 7 0 0 0-3.62-.95 6.8 6.8 0 0 0-5.31 2.26 8.8 8.8 0 0 0-2.02 6.09 9 9 0 0 0 2.02 6.08 6.8 6.8 0 0 0 5.3 2.3 7 7 0 0 0 3.63-.96 6 6 0 0 0 2.46-2.77h7.8a13 13 0 0 1-4.92 7.42 14.6 14.6 0 0 1-8.87 2.7 15 15 0 0 1-7.54-1.87 13.4 13.4 0 0 1-5.19-5.23 15.6 15.6 0 0 1-1.87-7.67 15.3 15.3 0 0 1 1.87-7.67" transform="translate(237.325 255.986)"/><path id="Path_6295" fill="#707070" d="M186.2 184.28v5.87h9.47v5.45h-9.47v6.38h10.71v5.67h-17.79v-29.04h17.8v5.67z" transform="translate(256.918 256.187)"/><path id="Path_6296" fill="#707070" d="m203.6 207.65-6.04-10.95h-1.7v10.95h-7.09v-29.04h11.88a13 13 0 0 1 5.87 1.2 8.4 8.4 0 0 1 3.62 3.28 9 9 0 0 1 1.2 4.65 8.6 8.6 0 0 1-1.63 5.16 9 9 0 0 1-4.82 3.24l6.69 11.51zm-7.72-15.97h4.38a4 4 0 0 0 2.93-.95 3.6 3.6 0 0 0 .97-2.67 3.4 3.4 0 0 0-.97-2.6 4 4 0 0 0-2.93-.95h-4.38v7.2Z" transform="translate(270.76 256.187)"/><path id="Path_6297" fill="#707070" d="M221.8 178.61v5.67h-7.7v23.4h-7.08v-23.4h-7.69v-5.67z" transform="translate(285.906 256.187)"/><path id="Path_6298" fill="#707070" d="M217.17 178.61v29.04h-7.08v-29.04z" transform="translate(301.34 256.187)"/><path id="Path_6299" fill="#707070" d="M234.49 178.61v5.67h-11.84v6.14h8.86v5.5h-8.86v11.76h-7.08v-29.05h18.92Z" transform="translate(309.2 256.187)"/><path id="Path_6300" fill="#707070" d="M232.06 178.61v29.04h-7.08v-29.04z" transform="translate(322.697 256.187)"/><path id="Path_6301" fill="#707070" d="M237.54 184.28v5.87h9.47v5.45h-9.47v6.38h10.72v5.67h-17.8v-29.04h17.8v5.67z" transform="translate(330.557 256.187)"/><path id="Path_6302" fill="#707070" d="m254.94 207.65-6.04-10.95h-1.7v10.95h-7.09v-29.04h11.88a13 13 0 0 1 5.87 1.2 8.4 8.4 0 0 1 3.62 3.28 9 9 0 0 1 1.2 4.65 8.6 8.6 0 0 1-1.63 5.16 9 9 0 0 1-4.82 3.24l6.69 11.51zm-7.72-15.97h4.38a4 4 0 0 0 2.92-.95 3.6 3.6 0 0 0 .97-2.67 3.4 3.4 0 0 0-.97-2.6 4 4 0 0 0-2.92-.95h-4.38v7.2Z" transform="translate(344.398 256.187)"/><path id="Path_6303" fill="#707070" d="M270.72 202.52H259.9l-1.73 5.13h-7.4l10.52-29.04h8.2L280 207.65h-7.5l-1.73-5.13Zm-1.82-5.46-3.6-10.64-3.56 10.64z" transform="translate(359.674 256.187)"/><path id="Path_6304" fill="#707070" d="M283.13 180.42a13 13 0 0 1 5.3 5.11 15 15 0 0 1 1.88 7.6 15 15 0 0 1-1.88 7.57 13 13 0 0 1-5.33 5.14 17 17 0 0 1-8 1.83h-10.9v-29.05h10.88a17 17 0 0 1 8.03 1.83Zm-2.24 18.9a8.3 8.3 0 0 0 2.24-6.22 7.77 7.77 0 0 0-8.5-8.5h-3.36v16.9h3.36a8.6 8.6 0 0 0 6.25-2.19Z" transform="translate(378.966 256.201)"/><path id="Path_6305" fill="#707070" d="m309.24 178.61-10.3 29.04h-8.87l-10.3-29.04h7.53l7.2 21.93 7.24-21.93z" transform="translate(401.299 256.187)"/><path id="Path_6306" fill="#707070" d="M300.35 184.28v5.87h9.47v5.45h-9.47v6.38h10.71v5.67h-17.79v-29.04h17.8v5.67z" transform="translate(420.648 256.187)"/><path id="Path_6307" fill="#707070" d="m317.76 207.65-6.04-10.95h-1.7v10.95h-7.09v-29.04h11.88a13 13 0 0 1 5.87 1.2 8.4 8.4 0 0 1 3.62 3.28 9 9 0 0 1 1.2 4.65 8.6 8.6 0 0 1-1.63 5.16 9 9 0 0 1-4.82 3.24l6.69 11.51zM310 191.68h4.39a4 4 0 0 0 2.92-.95 3.6 3.6 0 0 0 .97-2.67 3.4 3.4 0 0 0-.97-2.6 4 4 0 0 0-2.92-.95h-4.38v7.2Z" transform="translate(434.504 256.187)"/><path id="Path_6308" fill="#707070" d="m331.14 207.65-9.77-12.83v12.83h-7.08v-29.04h7.08v12.76l9.7-12.76h8.32l-11.25 14.24 11.66 14.83h-8.64Z" transform="translate(450.798 256.187)"/><path id="Path_6309" fill="#707070" d="M331 207.15a9.3 9.3 0 0 1-4.05-3.07 8.3 8.3 0 0 1-1.58-4.89h7.52a3.7 3.7 0 0 0 1.12 2.46 3.6 3.6 0 0 0 2.49.85 4 4 0 0 0 2.48-.73 2.4 2.4 0 0 0 .9-2 2.4 2.4 0 0 0-.73-1.77 6 6 0 0 0-1.78-1.17 23 23 0 0 0-3-1.02 37 37 0 0 1-4.6-1.73 8.6 8.6 0 0 1-3.06-2.56 7 7 0 0 1-1.29-4.43 7.6 7.6 0 0 1 2.95-6.35 12 12 0 0 1 7.64-2.3 12.3 12.3 0 0 1 7.74 2.3 8.3 8.3 0 0 1 3.14 6.4h-7.67a3 3 0 0 0-1.02-2.22 3.6 3.6 0 0 0-2.43-.8 3 3 0 0 0-2.07.68 2.64 2.64 0 0 0 .53 4.17 21 21 0 0 0 4.14 1.7 37 37 0 0 1 4.58 1.82 9 9 0 0 1 3.04 2.53 6.8 6.8 0 0 1 1.3 4.26 8 8 0 0 1-1.27 4.5 9 9 0 0 1-3.66 3.24 12.5 12.5 0 0 1-5.67 1.2 15 15 0 0 1-5.72-1.03Z" transform="translate(466.69 255.957)"/><path id="Path_6310" fill="#707070" d="M355.18 202.52h-10.83l-1.73 5.13h-7.4l10.52-29.04h8.2l10.51 29.04h-7.5l-1.72-5.14Zm-1.82-5.46-3.6-10.64-3.56 10.64Z" transform="translate(480.818 256.187)"/><path id="Path_6311" fill="#707070" d="M381.58 178.61v29.04h-7.09v-17.43l-6.5 17.43h-5.72l-6.55-17.45v17.45h-7.08v-29.04h8.35l8.15 20.1 8.09-20.1h8.32Z" transform="translate(500.067 256.187)"/><path id="Path_6312" fill="#707070" d="M389.9 178.61v29.04h-7.08V195.7h-11v11.95h-7.09v-29.04h7.08v11.37h11V178.6z" transform="translate(523.146 256.187)"/><path id="Path_6313" fill="#707070" d="M384.7 184.28v5.87h9.47v5.45h-9.47v6.38h10.71v5.67h-17.79v-29.04h17.8v5.67z" transform="translate(541.634 256.187)"/><path id="Path_6314" fill="#707070" d="M408.8 178.61v5.67h-7.68v23.4h-7.09v-23.4h-7.69v-5.67Z" transform="translate(554.142 256.187)"/></g></g></svg>