<svg xmlns="http://www.w3.org/2000/svg" width="90" height="45" viewBox="0 0 90 45"><g transform="translate(-254 -188)"><path fill="#e8eff3" d="M254 188h90v45h-90z"/><g transform="translate(277 199)"><path fill="#0072bc" fill-rule="evenodd" d="M10.1.5a5 5 0 0 0-1.97.37A5 5 0 0 0 6.15.49C2.92.5 0 3.56 0 7.75a8.13 8.13 0 0 0 16.27 0C16.25 3.55 13.33.5 10.1.5M8.13 2.98a3.4 3.4 0 0 1 1.45 2.66 1.45 1.45 0 1 1-2.89 0 3.3 3.3 0 0 1 1.44-2.66m0 10.88A6.1 6.1 0 0 1 2.01 7.7C2 4.55 4.29 2.4 6.08 2.48a4.8 4.8 0 0 0-1.37 3.27 3.42 3.42 0 1 0 6.84 0 4.8 4.8 0 0 0-1.37-3.27c1.8-.08 4.08 2.08 4.08 5.24a6.1 6.1 0 0 1-6.13 6.16Z"/><path fill-rule="evenodd" d="M3.93 17.38v.92h.51V20l-1.38-2.62h-1.6v.92h.52v2.82h-.51v.92h2.1v-.92h-.5v-1.7l1.38 2.62h1.08V18.3h.51v-.92Zm6.5 1.79v-1.79H6.36v1.79h.92v-.87h.5v2.82H7.1v.92h2.57v-.92H9V18.3h.5v.87zm4.36-1.79h-4.05v1.79h.92v-.87h.5v2.82h-.67v.92h2.56v-.92h-.67V18.3h.5v.87h.92z"/><path d="M27.29 12.03a.7.7 0 0 0-.24-.54 3 3 0 0 0-.89-.38 3 3 0 0 1-.93-.4.9.9 0 0 1-.42-.79 1 1 0 0 1 .4-.77 1.6 1.6 0 0 1 1-.3 2 2 0 0 1 .74.16 1.3 1.3 0 0 1 .5.44 1 1 0 0 1 .18.63h-.35a1 1 0 0 0-.29-.69 1 1 0 0 0-.78-.26 1.2 1.2 0 0 0-.75.22.7.7 0 0 0-.28.55.6.6 0 0 0 .24.52 2 2 0 0 0 .82.35 4 4 0 0 1 .84.31 1 1 0 0 1 .43.4 1 1 0 0 1 .14.54 1 1 0 0 1-.39.79 1.6 1.6 0 0 1-1.04.29 2 2 0 0 1-.8-.16 1.2 1.2 0 0 1-.55-.44 1 1 0 0 1-.19-.64h.35a.8.8 0 0 0 .33.69 1.4 1.4 0 0 0 .86.25 1.3 1.3 0 0 0 .78-.22.6.6 0 0 0 .28-.55Zm2.22 1.07a1.4 1.4 0 0 1-.71-.19 1.3 1.3 0 0 1-.5-.54 2 2 0 0 1-.18-.78v-.12a2 2 0 0 1 .17-.8 1.3 1.3 0 0 1 .48-.57 1.2 1.2 0 0 1 .67-.2 1.1 1.1 0 0 1 .89.39 1.6 1.6 0 0 1 .32 1.05v.19h-2.2v.06a1.3 1.3 0 0 0 .3.87 1 1 0 0 0 .76.35 1 1 0 0 0 .48-.1 1 1 0 0 0 .39-.31l.21.15a1.3 1.3 0 0 1-1.1.56Zm-.07-2.9a.8.8 0 0 0-.64.28 1.3 1.3 0 0 0-.32.76h1.85v-.04a1 1 0 0 0-.24-.72.8.8 0 0 0-.65-.28m3.02 2.62a1 1 0 0 0 .6-.2.7.7 0 0 0 .26-.52h.33a1 1 0 0 1-.18.52 1 1 0 0 1-.43.36 1 1 0 0 1-.58.13 1.2 1.2 0 0 1-.95-.42 1.7 1.7 0 0 1-.35-1.12v-.1a2 2 0 0 1 .15-.8 1 1 0 0 1 .47-.54 1.3 1.3 0 0 1 .7-.2 1.2 1.2 0 0 1 .83.3 1 1 0 0 1 .35.8h-.33a.8.8 0 0 0-.26-.6 1 1 0 0 0-.6-.22.9.9 0 0 0-.72.34 1.4 1.4 0 0 0-.26.93v.1a1.5 1.5 0 0 0 .26.93.8.8 0 0 0 .71.3Zm3.84-.16a1.1 1.1 0 0 1-.98.45 1 1 0 0 1-.74-.28 1.2 1.2 0 0 1-.26-.85V9.96h.34v1.97q0 .87.7.87a.9.9 0 0 0 .94-.6V9.97h.34v3.07h-.33zm2.65-2.4-.23-.02a.8.8 0 0 0-.54.18 1 1 0 0 0-.31.51v2.12h-.34V9.97h.34l.01.48a.9.9 0 0 1 .87-.54l.23.03zm.52-1.19a.2.2 0 0 1 .07-.15.25.25 0 0 1 .33 0 .2.2 0 0 1 .07.15.2.2 0 0 1-.07.16.25.25 0 0 1-.33 0 .2.2 0 0 1-.07-.15Zm.4 3.97h-.35V9.96h.34Zm1.46-3.86v.78h.64v.29h-.64v2.05a1 1 0 0 0 .09.38.4.4 0 0 0 .3.12l.27-.03v.28a1 1 0 0 1-.35.05.6.6 0 0 1-.51-.2 1 1 0 0 1-.16-.6v-2.05h-.56v-.29h.56v-.78zm2.3 3.38.9-2.6h.38l-1.32 3.61-.07.16a.8.8 0 0 1-.77.56l-.26-.04v-.29l.18.03a1 1 0 0 0 .4-.13 1 1 0 0 0 .26-.43l.15-.41-1.17-3.06h.37zm-22.67 9.98h-.75V0h.75Z"/></g></g></svg>