<svg xmlns="http://www.w3.org/2000/svg" width="113.253" height="43.269" viewBox="0 0 113.253 43.269"><defs><style>.a{fill:#fff}.b{fill:transparent}</style></defs><g transform="translate(-257.373 -262.365)"><path d="M356.9 305.13v-8.47h13.23v8.47Zm8.43-1.6-.69-2.13 1.82-1.32h-2.25l-.7-2.13-.69 2.13h-2.24l1.81 1.32-.69 2.14 1.82-1.32Zm-37.96.03a2 2 0 0 1-.76-.53 2.4 2.4 0 0 1-.5-.87 4 4 0 0 1-.18-1.18 4 4 0 0 1 .18-1.17 3 3 0 0 1 .5-.87 2 2 0 0 1 .77-.54 3 3 0 0 1 .97-.18 3 3 0 0 1 .99.17 2 2 0 0 1 .76.54 3 3 0 0 1 .5.86 4 4 0 0 1 .17 1.17 4 4 0 0 1-.17 1.19 3 3 0 0 1-.5.87 2 2 0 0 1-.76.54 3 3 0 0 1-.99.18 3 3 0 0 1-.98-.17Zm.24-4.6a1.5 1.5 0 0 0-.54.44 2 2 0 0 0-.32.7 4 4 0 0 0-.1.88 4 4 0 0 0 .1.9 2 2 0 0 0 .32.68 1.4 1.4 0 0 0 .53.44 2 2 0 0 0 .76.16 2 2 0 0 0 .74-.16 1.4 1.4 0 0 0 .53-.44 2 2 0 0 0 .33-.68 3 3 0 0 0 .1-.9 3 3 0 0 0-.1-.89 2 2 0 0 0-.33-.69 1.5 1.5 0 0 0-.53-.44 2 2 0 0 0-.74-.15 2 2 0 0 0-.75.15m-23.52 4.6a2 2 0 0 1-.73-.54 3 3 0 0 1-.47-.86 4 4 0 0 1-.17-1.17 4 4 0 0 1 .18-1.18 3 3 0 0 1 .5-.87 2 2 0 0 1 .74-.54 2 2 0 0 1 .93-.18 3 3 0 0 1 .84.12 2 2 0 0 1 .6.36 2 2 0 0 1 .4.54 3 3 0 0 1 .23.7l-.66.11a3 3 0 0 0-.17-.51 1 1 0 0 0-.27-.4 1 1 0 0 0-.4-.25 2 2 0 0 0-.57-.09 1.5 1.5 0 0 0-.7.16 2 2 0 0 0-.52.44 2 2 0 0 0-.32.69 3 3 0 0 0-.1.89 3 3 0 0 0 .1.88 2 2 0 0 0 .32.7 2 2 0 0 0 .52.44 2 2 0 0 0 .7.15 2 2 0 0 0 .62-.1 1 1 0 0 0 .42-.25 1 1 0 0 0 .26-.4 2 2 0 0 0 .14-.53h.7a3 3 0 0 1-.2.75 2 2 0 0 1-.42.59 2 2 0 0 1-.65.39 3 3 0 0 1-.88.14 3 3 0 0 1-.97-.18m-23.34.1a2 2 0 0 1-.66-.3 2 2 0 0 1-.45-.5 2 2 0 0 1-.2-.74h.67a1.2 1.2 0 0 0 .44.8 2 2 0 0 0 1.04.24 2 2 0 0 0 .58-.07 1 1 0 0 0 .38-.21 1 1 0 0 0 .2-.3 1 1 0 0 0 .05-.36l-.03-.3a1 1 0 0 0-.15-.27 1 1 0 0 0-.29-.2 2 2 0 0 0-.48-.14l-.67-.12a4 4 0 0 1-.69-.18 2 2 0 0 1-.51-.28 1 1 0 0 1-.32-.43 2 2 0 0 1-.1-.63 1.3 1.3 0 0 1 .15-.63 1.4 1.4 0 0 1 .4-.46 2 2 0 0 1 .62-.27 3 3 0 0 1 .76-.09 3 3 0 0 1 .88.11 2 2 0 0 1 .57.31 1 1 0 0 1 .33.44 3 3 0 0 1 .18.5l-.64.12a2 2 0 0 0-.15-.39 1 1 0 0 0-.24-.29 1 1 0 0 0-.37-.17 2 2 0 0 0-.54-.06 2 2 0 0 0-.6.07 1 1 0 0 0-.4.18 1 1 0 0 0-.2.27 1 1 0 0 0-.06.34 1 1 0 0 0 .04.33 1 1 0 0 0 .17.25 1 1 0 0 0 .3.18l.45.12.74.13a2.4 2.4 0 0 1 1.2.51 1.4 1.4 0 0 1 .38 1.05 2 2 0 0 1-.12.6 1.3 1.3 0 0 1-.36.48 2 2 0 0 1-.6.32 3 3 0 0 1-.85.12 4 4 0 0 1-.85-.09Zm73.04-.05-1-2.2-.2.02h-1.24v2.18h-.67v-5.26h1.73a3 3 0 0 1 .96.13 2 2 0 0 1 .6.35 1 1 0 0 1 .3.47 2 2 0 0 1 .08.54 2 2 0 0 1-.21.86 1.4 1.4 0 0 1-.7.55l1.11 2.36Zm-2.44-2.76h1.12a2 2 0 0 0 .59-.07 1 1 0 0 0 .36-.2 1 1 0 0 0 .18-.31 2 2 0 0 0 .05-.42 1 1 0 0 0-.05-.39 1 1 0 0 0-.2-.29 1 1 0 0 0-.4-.18 3 3 0 0 0-.61-.07h-1.03Zm-5.6 2.76v-5.26h3.4v.6h-2.72v1.65H349v.6h-2.58v1.82h2.86l-.1.6Zm-5.8 0v-5.26h1.83a3 3 0 0 1 1.03.16 2 2 0 0 1 .77.48 2 2 0 0 1 .48.81 4 4 0 0 1 .17 1.14 3 3 0 0 1-.18 1.17 2 2 0 0 1-.52.83 2 2 0 0 1-.83.5 3 3 0 0 1-1.09.17Zm.67-.59h1.02a1.7 1.7 0 0 0 1.43-.55 2.3 2.3 0 0 0 .45-1.5 3 3 0 0 0-.1-.86 2 2 0 0 0-.3-.64 1.3 1.3 0 0 0-.55-.4 2 2 0 0 0-.79-.14h-1.16Zm-3.07.6v-5.27h.67v5.26Zm-3.93 0-2.02-5.27h.77l1.6 4.39 1.62-4.39h.73l-2.02 5.26Zm-9.53 0-1-2.2-.2.01h-1.24v2.18h-.67v-5.26h1.72a3 3 0 0 1 .97.13 2 2 0 0 1 .6.35 1 1 0 0 1 .3.47 2 2 0 0 1 .07.54 1.6 1.6 0 0 1-.2.86 1.4 1.4 0 0 1-.7.55l1.1 2.36Zm-2.44-2.77h1.12a2 2 0 0 0 .58-.07 1 1 0 0 0 .36-.2 1 1 0 0 0 .19-.31 2 2 0 0 0 .05-.42 1 1 0 0 0-.06-.39 1 1 0 0 0-.2-.29 1 1 0 0 0-.39-.18 3 3 0 0 0-.62-.07h-1.03Zm-5.83 2.76v-5.26h1.76a3 3 0 0 1 .96.13 2 2 0 0 1 .6.34 1 1 0 0 1 .3.5 2 2 0 0 1 .08.6 2 2 0 0 1-.09.63 1.3 1.3 0 0 1-.3.53 2 2 0 0 1-.6.36 3 3 0 0 1-.96.13h-1.09v2.04Zm.67-2.61h1.08a2 2 0 0 0 .63-.08 1 1 0 0 0 .4-.2 1 1 0 0 0 .2-.35 2 2 0 0 0 .05-.43 2 2 0 0 0-.06-.45 1 1 0 0 0-.2-.31 1 1 0 0 0-.4-.19 3 3 0 0 0-.62-.06h-1.08Zm-7.8 2.61v-5.26h3.4v.6h-2.73v1.65h2.58v.6h-2.58v1.82h2.87l-.12.6Zm-8.18 0v-5.26h.67v5.26Zm-3.93 0-2.02-5.26h.77l1.6 4.39 1.63-4.39h.72l-2.01 5.26Zm-3.52 0-1-2.2-.2.02h-1.24v2.18h-.68v-5.26h1.73a3 3 0 0 1 .96.13 2 2 0 0 1 .6.35 1 1 0 0 1 .3.47 2 2 0 0 1 .08.54 2 2 0 0 1-.21.86 1.4 1.4 0 0 1-.7.55l1.11 2.36Zm-2.44-2.76h1.12a2 2 0 0 0 .58-.07 1 1 0 0 0 .36-.2 1 1 0 0 0 .19-.31 2 2 0 0 0 .05-.42 1 1 0 0 0-.06-.39 1 1 0 0 0-.2-.29 1 1 0 0 0-.39-.18 3 3 0 0 0-.62-.07h-1.03Zm-5.6 2.76v-5.26h3.4v.6h-2.73v1.65h2.58v.6h-2.58v1.82h2.87l-.11.6Zm1.82-16.77a15.7 15.7 0 0 1-13.3 7.38 15.7 15.7 0 0 1-15.67-15.68 15.7 15.7 0 0 1 15.68-15.68 15.7 15.7 0 0 1 15.67 15.5h.02v.18a10.9 10.9 0 0 0 10.9 10.9 10.9 10.9 0 0 0 9.24-5.13h5.34a15.7 15.7 0 0 1-14.58 9.91 15.7 15.7 0 0 1-13.3-7.38m-24.19-8.3a10.9 10.9 0 0 0 10.9 10.9 10.9 10.9 0 0 0 10.9-10.9 10.9 10.9 0 0 0-10.9-10.9 10.9 10.9 0 0 0-10.9 10.9m94.25 15.67V262.9h13.22v31.33Zm3.54-6.88a2.5 2.5 0 0 0-.56 1.76 3 3 0 0 0 .16 1.1 2 2 0 0 0 .47.75 2 2 0 0 0 .68.46 4 4 0 0 0 .81.26l.16-1.36a1.5 1.5 0 0 1-.85-.42 1.2 1.2 0 0 1-.23-.78 1 1 0 0 1 .28-.67 1 1 0 0 1 .7-.24 2 2 0 0 1 .6.1 2 2 0 0 1 .55.31 5 5 0 0 1 .58.53q.3.31.67.73.38.43.72.85c.34.42.47.56.73.85h1.05v-4.78l-1.22-.15v2.83l-.46-.52-.4-.49q-.4-.45-.74-.77a4 4 0 0 0-.69-.53 3 3 0 0 0-.7-.32 3 3 0 0 0-.77-.1 2 2 0 0 0-1.53.6Zm.32-7.1a2.3 2.3 0 0 0-.88 1.91 3 3 0 0 0 .21 1.1 2 2 0 0 0 .66.84 3 3 0 0 0 1.14.53 6 6 0 0 0 1.62.18 4.5 4.5 0 0 0 2.75-.68 2.3 2.3 0 0 0 .88-1.93 2.3 2.3 0 0 0-.88-1.95 4.4 4.4 0 0 0-2.75-.7 4.5 4.5 0 0 0-2.75.7m-.32-6.8a2.5 2.5 0 0 0-.56 1.75 3 3 0 0 0 .16 1.1 2 2 0 0 0 .47.75 2 2 0 0 0 .68.46 4 4 0 0 0 .81.26l.16-1.35a1.5 1.5 0 0 1-.85-.43 1.2 1.2 0 0 1-.23-.78 1 1 0 0 1 .28-.67 1 1 0 0 1 .7-.24 2 2 0 0 1 .6.1 2 2 0 0 1 .55.31 5 5 0 0 1 .58.53q.3.31.67.73.38.43.72.85c.34.42.47.56.73.85h1.05v-4.78l-1.22-.15v2.83l-.46-.52-.4-.49q-.4-.44-.74-.77a4 4 0 0 0-.69-.53 3 3 0 0 0-.7-.32 3 3 0 0 0-.77-.1 2 2 0 0 0-1.53.6Zm-.37-5.64 4.4 3.15h.94v-3.1h1.55v-1.32h-1.55v-.73l-1.11-.15v.88h-4.24Zm-20.46 26.42-2.45-4.56h17.2v4.57Zm-9.64 0-9.06-16.85h.73a13 13 0 0 0 3.38-.37 5 5 0 0 0 2.12-1.05 4 4 0 0 0 1.1-1.65 7 7 0 0 0 .31-2.15 5 5 0 0 0-.37-2 3.6 3.6 0 0 0-1.24-1.53 7 7 0 0 0-2.32-1 16 16 0 0 0-3.58-.34h-7.15a18 18 0 0 0-5.33-4.39h12.63a22 22 0 0 1 6.64.83 11.5 11.5 0 0 1 4.13 2.18 7.3 7.3 0 0 1 2.11 2.96 9 9 0 0 1 .6 3.2 9 9 0 0 1-1.37 5.13 9.5 9.5 0 0 1-4.4 3.34l7.37 13.69Zm32.53-10.94a3 3 0 0 1-.76-.2 1 1 0 0 1-.48-.35 1 1 0 0 1-.17-.55 1 1 0 0 1 .17-.55 1 1 0 0 1 .48-.37 3 3 0 0 1 .76-.2 8 8 0 0 1 1.01-.06 8 8 0 0 1 1.01.06 3 3 0 0 1 .76.2 1 1 0 0 1 .48.37 1 1 0 0 1 .17.55 1 1 0 0 1-.17.55 1 1 0 0 1-.48.36 3 3 0 0 1-.76.2 8 8 0 0 1-1.01.05 8 8 0 0 1-1.01-.06m-28.3-2.88a10 10 0 0 0 1.8-2.01 10 10 0 0 0 1.2-2.6h15.87v4.61Zm-24.38-6.83a10.9 10.9 0 0 0-9.69-5.92 10.9 10.9 0 0 0-9.58 5.72 18 18 0 0 0-2.39-4.93 15.7 15.7 0 0 1 11.97-5.57 15.7 15.7 0 0 1 14.87 10.7Zm52.07-5.72h2.4v1.68Zm-25.17-.4a10 10 0 0 0-2.48-3.21 11 11 0 0 0-1.9-1.35h22.03v4.57Z" class="a"/><path d="M370.63 305.63H356.4v-9.47h14.22Zm-4.42-1h3.42v-7.47h-5.84l.78 2.42H368l-2.77 2.01Zm-5.16 0h4.94l-2.47-1.8Zm-3.64 0h3.41l.99-3.04-2.77-2h3.42l.79-2.43h-5.84Zm6.1-3.03.87.63-.33-1.02.87-.63h-1.07l-.33-1.02-.33 1.02h-1.08l.87.63-.33 1.02Zm-35.15 2.64a3 3 0 0 1-1.17-.22 3 3 0 0 1-.95-.65 3 3 0 0 1-.6-1.04 4 4 0 0 1-.2-1.34 4 4 0 0 1 .2-1.35 3 3 0 0 1 .6-1.04 3 3 0 0 1 .95-.66 3 3 0 0 1 1.17-.22 3 3 0 0 1 1.17.21 3 3 0 0 1 .95.66 3 3 0 0 1 .6 1.03 4 4 0 0 1 .2 1.34 4 4 0 0 1-.2 1.34 3 3 0 0 1-.6 1.05 3 3 0 0 1-.94.67 3 3 0 0 1-1.18.23Zm0-4.93a1 1 0 0 0-.53.1 1 1 0 0 0-.36.29 2 2 0 0 0-.24.52 3 3 0 0 0-.09.75 3 3 0 0 0 .1.77 2 2 0 0 0 .23.51 1 1 0 0 0 .35.3 1 1 0 0 0 .54.1 1 1 0 0 0 .52-.11 1 1 0 0 0 .35-.29 2 2 0 0 0 .25-.52 3 3 0 0 0 .09-.76 3 3 0 0 0-.1-.75 2 2 0 0 0-.24-.53 1 1 0 0 0-.35-.29 1 1 0 0 0-.52-.1Zm-23.29 4.93a3 3 0 0 1-1.17-.22 2.5 2.5 0 0 1-.92-.68 3 3 0 0 1-.57-1.03 4 4 0 0 1-.19-1.32 4 4 0 0 1 .2-1.35 3 3 0 0 1 .6-1.04 3 3 0 0 1 .92-.66 3 3 0 0 1 1.13-.22 3 3 0 0 1 1 .15 2 2 0 0 1 .78.46 2 2 0 0 1 .51.7 4 4 0 0 1 .27.8l.1.52-1.63.27-.1-.45a2 2 0 0 0-.15-.43 1 1 0 0 0-.17-.25l-.22-.13a1 1 0 0 0-.39-.05 1 1 0 0 0-.47.1 1 1 0 0 0-.34.3 2 2 0 0 0-.24.52 3 3 0 0 0-.1.75 3 3 0 0 0 .1.76 2 2 0 0 0 .24.53 1 1 0 0 0 .34.29 1 1 0 0 0 .48.1 1 1 0 0 0 .44-.07l.24-.14a1 1 0 0 0 .15-.24 2 2 0 0 0 .11-.4l.07-.43h1.68l-.06.56a3 3 0 0 1-.24.89 2 2 0 0 1-.53.75 2 2 0 0 1-.82.5 3 3 0 0 1-1.05.17Zm-23.47 0a4 4 0 0 1-.97-.1 2 2 0 0 1-.83-.37 2 2 0 0 1-.6-.68 2 2 0 0 1-.26-.93l-.05-.55h1.65l.07.42c.05.35.19.44.23.48a1.3 1.3 0 0 0 .76.15 1 1 0 0 0 .42-.05l.19-.1.06-.1.03-.2-.02-.18-.03-.05-.14-.09a1 1 0 0 0-.35-.1l-.67-.11a5 5 0 0 1-.77-.2 2 2 0 0 1-.66-.37 2 2 0 0 1-.46-.63 2 2 0 0 1-.15-.81 2 2 0 0 1 .22-.88 2 2 0 0 1 .55-.62 2 2 0 0 1 .78-.35 4 4 0 0 1 .9-.1 3 3 0 0 1 1.02.14 2 2 0 0 1 .74.4 2 2 0 0 1 .46.6 3 3 0 0 1 .21.6l.12.5-1.57.31a2.4 2.4 0 0 1 1 .53 2 2 0 0 1 .55 1.42 2 2 0 0 1-.17.8 2 2 0 0 1-.5.66 2 2 0 0 1-.76.42 3 3 0 0 1-1 .15Zm-.1-4.95a2 2 0 0 0-.47.05l-.2.1-.06.05-.03.15.02.18.03.04.14.08.37.1.73.13q.22.04.42.1l-.12-.43-.11-.29-.1-.12-.2-.1a2 2 0 0 0-.41-.04Zm15.43 4.89-.03-.07h-.66l-2.4-6.26h1.85l1.25 3.43 1.28-3.43h3.47v6.26h-1.68v-6.25l-2.4 6.25h-.66Zm37.03 0-.02-.07h-.66l-2.4-6.26h1.84l1.25 3.43 1.28-3.43h3.48v6.26h-1.68v-6.25l-2.4 6.25H334Zm21.38-.07h-1.87l-.98-2.18h-.63v2.18h-1.67v-6.26h2.22a3 3 0 0 1 1.13.16 2 2 0 0 1 .77.45 1.6 1.6 0 0 1 .43.7 2 2 0 0 1 .1.68 2 2 0 0 1-.27 1.1 2 2 0 0 1-.47.51Zm-3.48-3.76h.62a2 2 0 0 0 .43-.05.4.4 0 0 0 .16-.08l.05-.1.04-.27-.03-.22-.06-.08-.19-.08a2 2 0 0 0-.5-.05h-.52Zm-2.25 3.76h-4.35v-6.26h4.4v1.6h-2.73v.65h2.58v1.6h-2.58v.81h2.97Zm-8 0h-2.17v-6.26h2.34a4 4 0 0 1 1.2.18 2.5 2.5 0 0 1 .96.61 3 3 0 0 1 .6 1 4 4 0 0 1 .2 1.3 4 4 0 0 1-.22 1.34 3 3 0 0 1-.64 1.02 3 3 0 0 1-1 .61 4 4 0 0 1-1.27.2m-.49-1.59h.52a1.3 1.3 0 0 0 1.05-.37 2 2 0 0 0 .33-1.2 3 3 0 0 0-.08-.72 1 1 0 0 0-.21-.45 1 1 0 0 0-.35-.25 2 2 0 0 0-.6-.1h-.66Zm-15.48 1.59h-1.87l-.99-2.18h-.63v2.18h-1.67v-6.26h2.23a3 3 0 0 1 1.13.16 2 2 0 0 1 .77.45 1.6 1.6 0 0 1 .43.7 2 2 0 0 1 .1.68 2 2 0 0 1-.28 1.1 2 2 0 0 1-.47.51Zm-3.49-3.76h.62a2 2 0 0 0 .44-.05.4.4 0 0 0 .16-.08l.05-.1.03-.27-.03-.22-.05-.08-.2-.08a2 2 0 0 0-.49-.05h-.53ZM317 304.1h-1.67v-6.26h2.26a4 4 0 0 1 1.12.15 2 2 0 0 1 .79.46 2 2 0 0 1 .43.7 3 3 0 0 1 .1.75 3 3 0 0 1-.1.77 2 2 0 0 1-.43.74 2 2 0 0 1-.8.49 3 3 0 0 1-1.11.16h-.6Zm0-3.62h.58a2 2 0 0 0 .5-.05.4.4 0 0 0 .18-.09l.06-.11a1 1 0 0 0 .04-.3 1 1 0 0 0-.04-.3l-.05-.08-.2-.09a2 2 0 0 0-.5-.05H317Zm-4.45 3.62h-4.35v-6.26h4.4v1.6h-2.73v.65h2.58v1.6h-2.58v.81h2.97Zm-17.93 0h-1.87l-.99-2.18h-.63v2.18h-1.67v-6.26h2.23a3 3 0 0 1 1.13.16 2 2 0 0 1 .77.45 1.6 1.6 0 0 1 .43.7 2 2 0 0 1 .1.68 2 2 0 0 1-.28 1.1 2 2 0 0 1-.47.51Zm-3.49-3.76h.62a2 2 0 0 0 .44-.05.4.4 0 0 0 .16-.08l.05-.1.03-.27-.03-.22-.05-.08-.2-.08a2 2 0 0 0-.49-.05h-.53Zm-2.25 3.76h-4.35v-6.26h4.4v1.6h-2.72v.65h2.57v1.6h-2.57v.81h2.96Zm11.27-9.4a16 16 0 0 1-7.96-2.1 16 16 0 0 1-5.34-4.88 16 16 0 0 1-5.34 4.88 16 16 0 0 1-7.95 2.1 16.2 16.2 0 0 1-16.18-16.18 16.2 16.2 0 0 1 16.18-16.17 16 16 0 0 1 11.37 4.68 16 16 0 0 1 4.8 10.82h.03v.67a10.4 10.4 0 0 0 10.4 10.4 10.4 10.4 0 0 0 5.11-1.34 10.5 10.5 0 0 0 3.7-3.56l.15-.23h6.35l-.27.68a16 16 0 0 1-5.85 7.36 16 16 0 0 1-9.2 2.88Zm-13.3-8.82.43.67a15 15 0 0 0 5.4 5.18 15 15 0 0 0 7.47 1.97 15 15 0 0 0 8.62-2.7 15 15 0 0 0 5.2-6.22h-4.3a11.5 11.5 0 0 1-3.92 3.66 11.4 11.4 0 0 1-5.6 1.48 11.4 11.4 0 0 1-11.4-11.06h-.01v-.5a15 15 0 0 0-4.5-10.61 15 15 0 0 0-10.67-4.4 15.2 15.2 0 0 0-15.18 15.18 15.2 15.2 0 0 0 15.18 15.18 15 15 0 0 0 7.46-1.97 15 15 0 0 0 5.4-5.18Zm83.79 8.82H356.4v-32.32h14.22Zm-13.22-1h12.22v-30.32H357.4Zm-2.54 1h-15.55l-3-5.57h18.55Zm-14.96-1h13.96v-3.57H338Zm-2.8 1h-7.44l-.14-.27-9.45-17.58h1.56a13 13 0 0 0 3.25-.36 5 5 0 0 0 1.92-.94 3 3 0 0 0 .95-1.43 6 6 0 0 0 .3-2 5 5 0 0 0-.33-1.8 3 3 0 0 0-1.08-1.32 6 6 0 0 0-2.14-.9 15 15 0 0 0-3.46-.34h-7.4l-.14-.18a17 17 0 0 0-5.18-4.27l.24-.94h12.63a23 23 0 0 1 6.8.86 12 12 0 0 1 4.3 2.27 8 8 0 0 1 2.25 3.17 10 10 0 0 1 .63 3.37 9.6 9.6 0 0 1-1.45 5.41 9.7 9.7 0 0 1-4.12 3.3Zm-6.84-1h5.16l-7.23-13.44.51-.22a9 9 0 0 0 4.18-3.15 8.7 8.7 0 0 0 1.29-4.85 9 9 0 0 0-.57-3.04 7 7 0 0 0-1.98-2.76 11 11 0 0 0-3.95-2.07 22 22 0 0 0-6.48-.8h-10.84a18 18 0 0 1 3.77 3.38h6.92a16 16 0 0 1 3.7.37 7 7 0 0 1 2.49 1.07 4 4 0 0 1 1.4 1.75 6 6 0 0 1 .42 2.18 7 7 0 0 1-.35 2.31 4.3 4.3 0 0 1-1.24 1.86 6 6 0 0 1-2.3 1.16 13 13 0 0 1-3.42.4Zm32.17-1.45-.54-.12a5 5 0 0 1-.9-.29 3 3 0 0 1-.84-.57 3 3 0 0 1-.58-.92 4 4 0 0 1-.2-1.28 3 3 0 0 1 .71-2.1 2.5 2.5 0 0 1 1.91-.76 3 3 0 0 1 .91.13 3 3 0 0 1 .82.37 5 5 0 0 1 .76.6q.37.34.76.79v-2.05l2.22.28v5.72h-1.77l-.15-.17-.74-.86a32 32 0 0 0-1.36-1.56 4 4 0 0 0-.52-.47 2 2 0 0 0-.43-.24 1 1 0 0 0-.43-.07.5.5 0 0 0-.37.12.4.4 0 0 0-.1.29 1 1 0 0 0 .11.47c.03.03.15.15.57.25l.44.1Zm3.7-1.2h.33v-3.84l-.22-.03v3.54l-.87-.93a12 12 0 0 1-.87-1.02q-.38-.43-.7-.74a4 4 0 0 0-.6-.47 2 2 0 0 0-.58-.26 2 2 0 0 0-.63-.09 1.5 1.5 0 0 0-1.19.45 2 2 0 0 0-.43 1.4 3 3 0 0 0 .14.94 2 2 0 0 0 .35.57 2 2 0 0 0 .53.36l.18.07.04-.35a1.6 1.6 0 0 1-.7-.48 1.7 1.7 0 0 1-.33-1.1 1.4 1.4 0 0 1 .44-1.03 1.5 1.5 0 0 1 1.04-.37 2 2 0 0 1 .78.14 3 3 0 0 1 .68.38 5 5 0 0 1 .64.58l.68.75.74.86q.26.33.56.67Zm-92.6-1.13a11.4 11.4 0 0 1-11.4-11.4 11.4 11.4 0 0 1 11.4-11.4 11.4 11.4 0 0 1 11.4 11.4 11.4 11.4 0 0 1-11.4 11.4m0-21.8a10.4 10.4 0 0 0-10.4 10.4 10.4 10.4 0 0 0 10.4 10.4 10.4 10.4 0 0 0 10.4-10.4 10.4 10.4 0 0 0-10.4-10.39Zm89.97 17.15a7 7 0 0 1-1.75-.2 4 4 0 0 1-1.3-.62 2.6 2.6 0 0 1-.83-1.03 3 3 0 0 1-.25-1.3 2.8 2.8 0 0 1 1.07-2.31 5 5 0 0 1 3.06-.8 5 5 0 0 1 3.07.8 2.8 2.8 0 0 1 1.06 2.35 2.8 2.8 0 0 1-1.07 2.32 5 5 0 0 1-3.06.8Zm0-5.25a4 4 0 0 0-2.45.58 1.8 1.8 0 0 0-.68 1.52 2 2 0 0 0 .17.9 1.6 1.6 0 0 0 .5.64 3 3 0 0 0 .97.44 6 6 0 0 0 1.49.17 4 4 0 0 0 2.45-.58 1.8 1.8 0 0 0 .68-1.53 1.9 1.9 0 0 0-.68-1.56 4 4 0 0 0-2.45-.57Zm0 3.79a8 8 0 0 1-1.08-.07 3 3 0 0 1-.89-.23 2 2 0 0 1-.68-.51 1.4 1.4 0 0 1-.27-.85 1.4 1.4 0 0 1 .26-.85 2 2 0 0 1 .68-.52 3 3 0 0 1 .9-.24 8 8 0 0 1 1.08-.07 8 8 0 0 1 1.08.07 3 3 0 0 1 .9.23 2 2 0 0 1 .68.53 1.4 1.4 0 0 1 .26.85 1.4 1.4 0 0 1-.26.85 1.6 1.6 0 0 1-.69.51 3 3 0 0 1-.89.23 8 8 0 0 1-1.08.08Zm0-2.34a7 7 0 0 0-.95.06 2 2 0 0 0-.62.16 1 1 0 0 0-.28.2.4.4 0 0 0-.07.26.4.4 0 0 0 .07.24 1 1 0 0 0 .27.2 2 2 0 0 0 .63.16 7 7 0 0 0 .95.06 7 7 0 0 0 .94-.06 2 2 0 0 0 .63-.16 1 1 0 0 0 .28-.19.4.4 0 0 0 .06-.25.4.4 0 0 0-.06-.26 1 1 0 0 0-.28-.2 2 2 0 0 0-.63-.16 7 7 0 0 0-.94-.04Zm-9.94-.6h-20.72l1.03-.88a9 9 0 0 0 1.7-1.91 9 9 0 0 0 1.15-2.46l.1-.36h16.74Zm-18.13-1h17.13v-3.6h-15a10 10 0 0 1-1.15 2.36 10 10 0 0 1-.97 1.25Zm27-1.54-.54-.1a5 5 0 0 1-.91-.3 3 3 0 0 1-.83-.57 3 3 0 0 1-.58-.92 4 4 0 0 1-.2-1.28 3 3 0 0 1 .7-2.1 2.5 2.5 0 0 1 1.91-.76 3 3 0 0 1 .92.13 3 3 0 0 1 .81.37 5 5 0 0 1 .77.6q.34.33.76.79v-2.05l2.22.28v5.72h-1.78l-.15-.17q-.38-.42-.73-.86c-.35-.44-.48-.57-.71-.83l-.66-.72a4 4 0 0 0-.52-.47 2 2 0 0 0-.43-.25 1 1 0 0 0-.42-.07.5.5 0 0 0-.38.12.3.3 0 0 0-.1.29 1 1 0 0 0 .11.47c.03.03.15.15.57.25l.44.1Zm3.7-1.2h.32v-3.84l-.22-.02v3.55l-.86-.93q-.28-.3-.48-.55l-.4-.48-.7-.73a4 4 0 0 0-.6-.47 2 2 0 0 0-.57-.26 2 2 0 0 0-.64-.09 1.5 1.5 0 0 0-1.18.44 2 2 0 0 0-.43 1.42 3 3 0 0 0 .14.93 2 2 0 0 0 .35.56 2 2 0 0 0 .52.36l.19.08.04-.36a1.6 1.6 0 0 1-.7-.47 1.7 1.7 0 0 1-.33-1.1 1.4 1.4 0 0 1 .44-1.03 1.5 1.5 0 0 1 1.04-.37 2 2 0 0 1 .78.13 3 3 0 0 1 .68.39 5 5 0 0 1 .64.58l.68.74.73.86q.27.35.57.67Zm-75.71-2.5-.35-1.15a17 17 0 0 0-2.33-4.78l-.22-.32.25-.3a16.2 16.2 0 0 1 12.35-5.74 16 16 0 0 1 9.54 3.12 16 16 0 0 1 3.5 3.5 16 16 0 0 1 2.3 4.42l.22.66h-6.18l-.14-.27a10.5 10.5 0 0 0-3.76-4.08 10.4 10.4 0 0 0-5.48-1.57 10.4 10.4 0 0 0-9.14 5.46Zm19.7-1.59h4.16a15 15 0 0 0-5.2-6.77 15 15 0 0 0-8.95-2.92 15.2 15.2 0 0 0-11.34 5.1 18 18 0 0 1 1.89 3.7 11.4 11.4 0 0 1 9.45-5.03 11.4 11.4 0 0 1 6 1.72 11.5 11.5 0 0 1 3.98 4.21Zm55.8-1.61h-1.62l-4.74-3.4V266h4.23v-.95l2.12.29v.66h1.55v2.33h-1.55Zm-1.13-1h.12v-3.1h1.55V267h-1.55v-.8h-.12v.8h-4.23v.33h4.23Zm-.17 0h.13l-4.19-2.92Zm-9.76-2.5h-18.46l-.14-.3a9.5 9.5 0 0 0-2.35-3.05 11 11 0 0 0-1.83-1.28l-1.64-.94h24.42Zm-17.84-1h16.84v-3.57h-19.86q.3.23.57.47a11 11 0 0 1 2.45 3.1" class="b"/></g></svg>