<svg xmlns="http://www.w3.org/2000/svg" xmlns:xlink="http://www.w3.org/1999/xlink" width="258" height="258.001" viewBox="0 0 258 258.001"><defs><style>.a{fill:url(#a)}</style><radialGradient id="a" cx="0.5" cy="0.5" r="2.24" gradientTransform="rotate(.485 .475 .47)" gradientUnits="objectBoundingBox"><stop offset="0" stop-color="#2d3691"/><stop offset="1" stop-color="#171b49"/></radialGradient></defs><path d="M258 258H0V0h258zm-86.1-116.33v8.46h13.23v-8.46Zm-28.54 1.55a3 3 0 0 0-.98.18 2 2 0 0 0-.76.54 3 3 0 0 0-.5.87 4 4 0 0 0-.18 1.18 4 4 0 0 0 .17 1.18 2.4 2.4 0 0 0 .5.86 2 2 0 0 0 .77.54 3 3 0 0 0 .98.18 3 3 0 0 0 1-.19 2 2 0 0 0 .76-.54 3 3 0 0 0 .49-.87 4 4 0 0 0 .17-1.18 4 4 0 0 0-.18-1.18 3 3 0 0 0-.49-.86 2 2 0 0 0-.76-.53 3 3 0 0 0-1-.18m-23.29 0a2 2 0 0 0-.93.18 2 2 0 0 0-.75.54 3 3 0 0 0-.5.87 4 4 0 0 0-.17 1.18 4 4 0 0 0 .17 1.17 3 3 0 0 0 .47.86 2 2 0 0 0 .73.54 3 3 0 0 0 .98.19 3 3 0 0 0 .88-.14 2 2 0 0 0 .65-.4 2 2 0 0 0 .42-.59 3 3 0 0 0 .2-.74h-.7a2 2 0 0 1-.14.52 1 1 0 0 1-.26.4 1 1 0 0 1-.42.26 2 2 0 0 1-.62.1 1.5 1.5 0 0 1-.7-.16 2 2 0 0 1-.52-.44 2 2 0 0 1-.32-.69 3 3 0 0 1-.1-.89 3 3 0 0 1 .1-.88 2 2 0 0 1 .32-.7 2 2 0 0 1 .52-.43 1.5 1.5 0 0 1 .7-.16 2 2 0 0 1 .56.08 1 1 0 0 1 .4.25 1 1 0 0 1 .28.4 3 3 0 0 1 .17.52l.66-.11a3 3 0 0 0-.23-.7 2 2 0 0 0-.4-.55 2 2 0 0 0-.6-.35 3 3 0 0 0-.85-.13m-25.63 3.9a2 2 0 0 0 .2.74 2 2 0 0 0 .45.5 2 2 0 0 0 .66.3 4 4 0 0 0 .85.09 3 3 0 0 0 .84-.12 2 2 0 0 0 .6-.33 1.4 1.4 0 0 0 .36-.48 2 2 0 0 0 .13-.6 1.4 1.4 0 0 0-.39-1.04 2.4 2.4 0 0 0-1.2-.51l-.73-.13-.46-.13a1 1 0 0 1-.3-.17 1 1 0 0 1-.16-.25 1 1 0 0 1-.05-.34 1 1 0 0 1 .06-.34 1 1 0 0 1 .21-.27 1 1 0 0 1 .4-.18 2 2 0 0 1 .6-.07 2 2 0 0 1 .53.06 1 1 0 0 1 .37.18 1 1 0 0 1 .25.28 2 2 0 0 1 .15.4l.63-.13a3 3 0 0 0-.17-.5 1 1 0 0 0-.34-.44 2 2 0 0 0-.57-.3 3 3 0 0 0-.87-.12 3 3 0 0 0-.77.09 2 2 0 0 0-.61.27 1.4 1.4 0 0 0-.41.46 1.3 1.3 0 0 0-.15.63 2 2 0 0 0 .1.63 1 1 0 0 0 .32.43 2 2 0 0 0 .51.28 4 4 0 0 0 .7.18l.66.12a2 2 0 0 1 .48.14 1 1 0 0 1 .3.2 1 1 0 0 1 .14.26l.04.3a1 1 0 0 1-.06.37 1 1 0 0 1-.2.3 1 1 0 0 1-.37.2 2 2 0 0 1-.58.08 2 2 0 0 1-1.05-.24 1.2 1.2 0 0 1-.43-.8Zm52.16-3.77 2.02 5.26h.68l2.02-5.26h-.73l-1.62 4.39-1.6-4.39Zm-37.04 0 2.02 5.26h.69l2.02-5.26h-.73l-1.63 4.39-1.6-4.39Zm56.12 0v5.26h.67v-2.18h1.24l.2-.02 1 2.2h.76l-1.1-2.36a1.4 1.4 0 0 0 .69-.55 2 2 0 0 0 .2-.86 2 2 0 0 0-.08-.54 1 1 0 0 0-.3-.47 2 2 0 0 0-.59-.34 3 3 0 0 0-.96-.14Zm-4.93 0v5.26h3.44l.1-.6h-2.86v-1.81H164v-.6h-2.58v-1.65h2.73v-.6Zm-5.81 0v5.26h1.67a3 3 0 0 0 1.1-.17 2 2 0 0 0 .82-.5 2 2 0 0 0 .52-.83 3 3 0 0 0 .18-1.16 4 4 0 0 0-.17-1.15 2 2 0 0 0-.48-.8 2 2 0 0 0-.77-.49 3 3 0 0 0-1.03-.16Zm-2.4 0v5.26h.68v-5.26Zm-16.56 0v5.26h.67v-2.18h1.24l.2-.02 1 2.2h.76l-1.1-2.36a1.4 1.4 0 0 0 .69-.55 2 2 0 0 0 .2-.86 2 2 0 0 0-.07-.54 1 1 0 0 0-.3-.47 2 2 0 0 0-.6-.34 3 3 0 0 0-.96-.14Zm-5.16 0v5.26h.67v-2.04h1.09a3 3 0 0 0 .95-.13 2 2 0 0 0 .6-.36 1.3 1.3 0 0 0 .3-.53 2 2 0 0 0 .1-.64 2 2 0 0 0-.09-.6 1 1 0 0 0-.3-.5 2 2 0 0 0-.6-.33 3 3 0 0 0-.96-.13Zm-7.13 0v5.26h3.43l.11-.6h-2.86v-1.81h2.58v-.6h-2.58v-1.65h2.72v-.6Zm-8.18 0v5.26h.68v-5.26Zm-10.56 0v5.26h.67v-2.18h1.24l.2-.02 1 2.2h.76l-1.1-2.36a1.4 1.4 0 0 0 .69-.55 2 2 0 0 0 .2-.86 2 2 0 0 0-.08-.54 1 1 0 0 0-.3-.47 2 2 0 0 0-.59-.34 3 3 0 0 0-.96-.14Zm-4.93 0v5.26h3.44l.1-.6h-2.86v-1.81h2.58v-.6h-2.58v-1.65h2.73v-.6Zm1.82-11.51a16 16 0 0 0 5.6 5.35 16 16 0 0 0 7.7 2.03 15.6 15.6 0 0 0 8.9-2.78 15.7 15.7 0 0 0 5.68-7.14h-5.34a11 11 0 0 1-3.88 3.72 11 11 0 0 1-5.36 1.42 10.9 10.9 0 0 1-10.9-10.9v-.18h-.02a15.6 15.6 0 0 0-4.66-10.96 15.6 15.6 0 0 0-11.02-4.54 15.7 15.7 0 0 0-15.67 15.68 15.7 15.7 0 0 0 15.67 15.67 15.6 15.6 0 0 0 7.71-2.03 16 16 0 0 0 5.59-5.35Zm70.07-23.95v31.33h13.22v-31.33Zm-19.75 26.76 2.45 4.57h14.76v-4.57Zm-16.25-12.28 9.06 16.85h6.3l-7.37-13.7a9.5 9.5 0 0 0 4.4-3.33 9 9 0 0 0 1.37-5.13 9 9 0 0 0-.6-3.2 7.4 7.4 0 0 0-2.11-2.97 11.5 11.5 0 0 0-4.13-2.17 22 22 0 0 0-6.64-.83h-12.63a18 18 0 0 1 5.33 4.39h7.15a16 16 0 0 1 3.58.35 7 7 0 0 1 2.32.98 3.6 3.6 0 0 1 1.24 1.54 5 5 0 0 1 .37 2 7 7 0 0 1-.32 2.15 4 4 0 0 1-1.1 1.65 5 5 0 0 1-2.1 1.05 13 13 0 0 1-3.39.37Zm16.3-1.58a10 10 0 0 1-1.2 2.59 10 10 0 0 1-1.8 2.01h18.86v-4.6Zm-37.07-8.14a11 11 0 0 1 5.75 1.64 11 11 0 0 1 3.94 4.27H130a15.7 15.7 0 0 0-5.63-7.68 15.5 15.5 0 0 0-9.24-3.02 15.7 15.7 0 0 0-11.97 5.57 18 18 0 0 1 2.4 4.93 10.9 10.9 0 0 1 9.58-5.72Zm32.2-4.76a12 12 0 0 1 1.91 1.34 10 10 0 0 1 2.48 3.22h17.65v-4.56Zm29.36 40.66.7-2.14-1.81-1.32h2.24l.7-2.13.69 2.13h2.24l-1.81 1.32.7 2.13-1.82-1.31zm-33.34-.4a2 2 0 0 1-.75-.15 1.4 1.4 0 0 1-.54-.44 2 2 0 0 1-.32-.68 4 4 0 0 1-.1-.9 4 4 0 0 1 .1-.89 2 2 0 0 1 .33-.69 1.5 1.5 0 0 1 .53-.44 2 2 0 0 1 .75-.15 2 2 0 0 1 .74.15 1.5 1.5 0 0 1 .53.44 2 2 0 0 1 .33.7 3 3 0 0 1 .11.88 3 3 0 0 1-.1.9 2 2 0 0 1-.33.68 1.5 1.5 0 0 1-.54.44 2 2 0 0 1-.74.16Zm13.29-.13h-1.03v-4.09h1.17a2 2 0 0 1 .79.14 1.3 1.3 0 0 1 .54.4 2 2 0 0 1 .3.64 3 3 0 0 1 .1.85 2.3 2.3 0 0 1-.44 1.52 1.8 1.8 0 0 1-1.44.54ZM132.57 146h-1.08v-2.07h1.07a3 3 0 0 1 .63.06 1 1 0 0 1 .39.19 1 1 0 0 1 .2.32 2 2 0 0 1 .06.44 2 2 0 0 1-.05.44 1 1 0 0 1-.2.33 1 1 0 0 1-.4.22 2 2 0 0 1-.62.07m34.9-.15h-1.11v-1.92h1.03a3 3 0 0 1 .62.06 1 1 0 0 1 .38.18 1 1 0 0 1 .2.3 1 1 0 0 1 .06.39 2 2 0 0 1-.05.41 1 1 0 0 1-.18.31 1 1 0 0 1-.37.2 2 2 0 0 1-.58.07m-29.7 0h-1.11v-1.92h1.03a3 3 0 0 1 .62.06 1 1 0 0 1 .38.18 1 1 0 0 1 .2.3 1 1 0 0 1 .06.39 2 2 0 0 1-.05.41 1 1 0 0 1-.18.31 1 1 0 0 1-.37.2 2 2 0 0 1-.58.07m-31.02 0h-1.12v-1.92h1.03a3 3 0 0 1 .62.06 1 1 0 0 1 .38.18 1 1 0 0 1 .2.3 1 1 0 0 1 .06.39 2 2 0 0 1-.05.41 1 1 0 0 1-.19.31 1 1 0 0 1-.36.2 2 2 0 0 1-.58.07Zm70.26-9.19a4 4 0 0 1-.81-.26 2 2 0 0 1-.68-.46 2 2 0 0 1-.47-.75 3 3 0 0 1-.17-1.1 2.5 2.5 0 0 1 .57-1.76 2 2 0 0 1 1.55-.6 3 3 0 0 1 .77.1 3 3 0 0 1 .7.31 4 4 0 0 1 .68.54 13 13 0 0 1 1.15 1.26l.45.52v-2.83l1.22.15v4.78h-1.05l-.72-.85-.72-.85-.67-.73a5 5 0 0 0-.58-.53 2 2 0 0 0-.56-.31 2 2 0 0 0-.6-.1 1 1 0 0 0-.7.24 1 1 0 0 0-.27.67 1.2 1.2 0 0 0 .22.78 1.5 1.5 0 0 0 .86.42zm-88.46-2.22a10.9 10.9 0 0 1-10.9-10.9 10.9 10.9 0 0 1 10.9-10.9 10.9 10.9 0 0 1 10.9 10.9 10.9 10.9 0 0 1-10.9 10.9m89.97-4.65a6 6 0 0 1-1.63-.18 3 3 0 0 1-1.13-.53 2 2 0 0 1-.66-.84 3 3 0 0 1-.22-1.1 2.3 2.3 0 0 1 .89-1.92 4.5 4.5 0 0 1 2.75-.68 4.5 4.5 0 0 1 2.75.7 2.4 2.4 0 0 1 .88 1.95 2.3 2.3 0 0 1-.88 1.92 4.5 4.5 0 0 1-2.76.68Zm0-3.8a8 8 0 0 0-1.02.07 3 3 0 0 0-.76.2 1 1 0 0 0-.48.36 1 1 0 0 0-.16.55 1 1 0 0 0 .16.55 1 1 0 0 0 .48.36 3 3 0 0 0 .76.2 8 8 0 0 0 1.02.05 8 8 0 0 0 1-.06 3 3 0 0 0 .77-.2 1 1 0 0 0 .48-.34 1 1 0 0 0 .16-.55 1 1 0 0 0-.16-.56 1 1 0 0 0-.48-.36 3 3 0 0 0-.76-.2 8 8 0 0 0-1.02-.06Zm-1.51-3.23a4 4 0 0 1-.82-.26 2 2 0 0 1-.67-.47 2 2 0 0 1-.47-.74 3 3 0 0 1-.17-1.1 2.5 2.5 0 0 1 .57-1.77 2 2 0 0 1 1.55-.6 3 3 0 0 1 .77.1 3 3 0 0 1 .7.32 4 4 0 0 1 .68.54q.34.31.74.77l.08.09.32.4.46.52v-2.83l1.22.15v4.78h-1.05l-.72-.85a31 31 0 0 0-1.4-1.58 5 5 0 0 0-.58-.52 2 2 0 0 0-.55-.32 2 2 0 0 0-.6-.1 1 1 0 0 0-.7.25 1 1 0 0 0-.27.66 1.2 1.2 0 0 0 .22.78 1.5 1.5 0 0 0 .85.43zm3.41-6.81h-.95l-4.4-3.16v-1.28h4.24v-.87l1.11.15v.72h1.55v1.33h-1.55zm-3.52-3.1 2.4 1.68v-1.68z" class="a"/></svg>