<svg xmlns="http://www.w3.org/2000/svg" xmlns:xlink="http://www.w3.org/1999/xlink" width="258" height="258.001" viewBox="0 0 258 258.001"><defs><style>.a{fill:url(#a);}</style><radialGradient id="a" cx="0.5" cy="0.5" r="2.24" gradientTransform="translate(0.004 -0.004) rotate(0.485)" gradientUnits="objectBoundingBox"><stop offset="0" stop-color="#2d3691"/><stop offset="1" stop-color="#171b49"/></radialGradient></defs><path class="a" d="M-1332,1214h-258V956h258v258Zm-86.091-116.333v8.466h13.218v-8.466Zm-28.551,1.552a2.552,2.552,0,0,0-.976.184,2.12,2.12,0,0,0-.766.538,2.522,2.522,0,0,0-.5.869,3.576,3.576,0,0,0-.181,1.179,3.654,3.654,0,0,0,.177,1.18,2.444,2.444,0,0,0,.5.865,2.1,2.1,0,0,0,.767.531,2.6,2.6,0,0,0,.984.181,2.575,2.575,0,0,0,.991-.185,2.068,2.068,0,0,0,.763-.538,2.464,2.464,0,0,0,.49-.873,3.749,3.749,0,0,0,.174-1.183,3.605,3.605,0,0,0-.177-1.174,2.471,2.471,0,0,0-.494-.863,2.066,2.066,0,0,0-.762-.531A2.618,2.618,0,0,0-1446.642,1099.219Zm-23.286,0a2.346,2.346,0,0,0-.932.185,2.1,2.1,0,0,0-.748.537,2.51,2.51,0,0,0-.494.869,3.654,3.654,0,0,0-.176,1.18,3.8,3.8,0,0,0,.166,1.167,2.492,2.492,0,0,0,.468.866,1.949,1.949,0,0,0,.736.538,2.5,2.5,0,0,0,.98.184,2.547,2.547,0,0,0,.881-.14,1.843,1.843,0,0,0,.644-.391,1.863,1.863,0,0,0,.42-.592,2.492,2.492,0,0,0,.2-.741h-.7a2.371,2.371,0,0,1-.139.515,1.267,1.267,0,0,1-.262.407,1.131,1.131,0,0,1-.42.261,1.827,1.827,0,0,1-.616.092,1.534,1.534,0,0,1-.7-.155,1.451,1.451,0,0,1-.517-.442,2.126,2.126,0,0,1-.32-.689,3.342,3.342,0,0,1-.111-.888,3.347,3.347,0,0,1,.111-.887,2.1,2.1,0,0,1,.32-.686,1.493,1.493,0,0,1,.517-.442,1.5,1.5,0,0,1,.7-.158,1.674,1.674,0,0,1,.564.085,1.12,1.12,0,0,1,.4.247,1.362,1.362,0,0,1,.273.4,2.711,2.711,0,0,1,.173.519l.663-.111a3.154,3.154,0,0,0-.232-.7,1.788,1.788,0,0,0-.4-.545,1.727,1.727,0,0,0-.6-.354A2.534,2.534,0,0,0-1469.928,1099.219Zm-25.636,3.9a1.862,1.862,0,0,0,.206.737,1.505,1.505,0,0,0,.45.508,1.893,1.893,0,0,0,.66.29,3.466,3.466,0,0,0,.843.093,2.767,2.767,0,0,0,.848-.118,1.728,1.728,0,0,0,.6-.325,1.345,1.345,0,0,0,.361-.482,1.461,1.461,0,0,0,.121-.593,1.373,1.373,0,0,0-.383-1.05,2.41,2.41,0,0,0-1.2-.512l-.737-.132a2.6,2.6,0,0,1-.456-.121.91.91,0,0,1-.3-.177.589.589,0,0,1-.162-.251,1.038,1.038,0,0,1-.049-.336.906.906,0,0,1,.063-.335.644.644,0,0,1,.21-.273,1.1,1.1,0,0,1,.391-.181,2.359,2.359,0,0,1,.6-.066,2.143,2.143,0,0,1,.537.058,1.086,1.086,0,0,1,.373.173.878.878,0,0,1,.243.288,1.877,1.877,0,0,1,.151.394l.634-.124a2.627,2.627,0,0,0-.173-.505,1.31,1.31,0,0,0-.336-.439,1.653,1.653,0,0,0-.571-.306,2.885,2.885,0,0,0-.874-.114,3.189,3.189,0,0,0-.766.088,1.829,1.829,0,0,0-.612.273,1.382,1.382,0,0,0-.409.458,1.284,1.284,0,0,0-.151.633,1.649,1.649,0,0,0,.107.627,1.084,1.084,0,0,0,.317.43,1.763,1.763,0,0,0,.512.284,4.036,4.036,0,0,0,.692.176l.664.118a1.977,1.977,0,0,1,.482.14.946.946,0,0,1,.294.206.631.631,0,0,1,.144.262,1.219,1.219,0,0,1,.037.3,1.121,1.121,0,0,1-.059.365.723.723,0,0,1-.2.3,1.014,1.014,0,0,1-.372.205,1.865,1.865,0,0,1-.579.078,1.822,1.822,0,0,1-1.043-.247,1.153,1.153,0,0,1-.438-.8Zm52.163-3.766h0l2.02,5.26h.685l2.02-5.26h-.73l-1.628,4.384-1.6-4.384Zm-37.035,0h0l2.02,5.26h.685l2.019-5.26h-.729l-1.629,4.384-1.6-4.384Zm56.12,0v5.26h.671v-2.181h1.039c.054,0,.118,0,.2,0a1.43,1.43,0,0,0,.205-.018h0l.994,2.2h.759l-1.105-2.365a1.392,1.392,0,0,0,.689-.553,1.658,1.658,0,0,0,.21-.855,1.826,1.826,0,0,0-.081-.538,1.115,1.115,0,0,0-.3-.475,1.651,1.651,0,0,0-.593-.342,2.9,2.9,0,0,0-.965-.132Zm-4.93,0v5.26h3.434l.111-.6h-2.867V1102.2h2.579v-.6h-2.579v-1.651h2.727v-.6Zm-5.814,0v5.26h1.673a3.3,3.3,0,0,0,1.091-.169,2.2,2.2,0,0,0,.825-.5,2.188,2.188,0,0,0,.519-.833,3.439,3.439,0,0,0,.181-1.165,3.494,3.494,0,0,0-.17-1.142,2.186,2.186,0,0,0-.482-.81,1.954,1.954,0,0,0-.766-.483,3.133,3.133,0,0,0-1.029-.157Zm-2.394,0v5.26h.678v-5.26Zm-16.565,0v5.26h.671v-2.181h1.039c.053,0,.117,0,.2,0a1.43,1.43,0,0,0,.205-.018h0l.994,2.2h.759l-1.1-2.365a1.393,1.393,0,0,0,.688-.553,1.65,1.65,0,0,0,.21-.855,1.826,1.826,0,0,0-.081-.538,1.113,1.113,0,0,0-.3-.475,1.663,1.663,0,0,0-.593-.342,2.913,2.913,0,0,0-.966-.132Zm-5.165,0v5.26h.671v-2.04h1.09a2.946,2.946,0,0,0,.951-.132,1.539,1.539,0,0,0,.6-.362,1.277,1.277,0,0,0,.31-.531,2.263,2.263,0,0,0,.088-.634,2.072,2.072,0,0,0-.085-.6,1.157,1.157,0,0,0-.3-.5,1.527,1.527,0,0,0-.6-.339,3.16,3.16,0,0,0-.962-.124Zm-7.126,0v5.26h3.434l.111-.6h-2.867V1102.2h2.579v-.6h-2.579v-1.651h2.727v-.6Zm-8.179,0v5.26h.678v-5.26Zm-10.559,0v5.26h.671v-2.181h1.039c.054,0,.117,0,.2,0a1.436,1.436,0,0,0,.206-.018h0l.994,2.2h.759l-1.105-2.365a1.392,1.392,0,0,0,.689-.553,1.658,1.658,0,0,0,.21-.855,1.826,1.826,0,0,0-.081-.538,1.113,1.113,0,0,0-.3-.475,1.65,1.65,0,0,0-.593-.342,2.946,2.946,0,0,0-.965-.132Zm-4.93,0v5.26h3.434l.111-.6h-2.867V1102.2h2.579v-.6h-2.579v-1.651h2.727v-.6Zm1.823-11.516h0a15.83,15.83,0,0,0,5.586,5.35,15.646,15.646,0,0,0,7.707,2.03,15.569,15.569,0,0,0,8.906-2.782,15.694,15.694,0,0,0,5.674-7.132h-5.337a11.005,11.005,0,0,1-3.884,3.722,10.874,10.874,0,0,1-5.359,1.412,10.91,10.91,0,0,1-10.9-10.9c0-.034,0-.067,0-.1s0-.052,0-.076h-.022a15.579,15.579,0,0,0-4.653-10.961,15.572,15.572,0,0,0-11.02-4.539,15.7,15.7,0,0,0-15.677,15.677,15.694,15.694,0,0,0,15.677,15.676,15.644,15.644,0,0,0,7.707-2.03,15.836,15.836,0,0,0,5.586-5.35Zm70.064-23.952v31.331h13.218v-31.331Zm-19.748,26.768,2.453,4.563h14.757v-4.563Zm-16.249-12.288,9.059,16.851h6.295l-7.361-13.691a9.516,9.516,0,0,0,4.4-3.334,9.134,9.134,0,0,0,1.368-5.135,9.278,9.278,0,0,0-.6-3.2,7.375,7.375,0,0,0-2.113-2.962,11.5,11.5,0,0,0-4.128-2.171,22.286,22.286,0,0,0-6.639-.834h-12.631a17.718,17.718,0,0,1,5.325,4.387h7.156a15.517,15.517,0,0,1,3.581.351,6.579,6.579,0,0,1,2.312.987,3.625,3.625,0,0,1,1.244,1.537,5.187,5.187,0,0,1,.373,2,6.782,6.782,0,0,1-.322,2.151,3.784,3.784,0,0,1-1.094,1.645,5.326,5.326,0,0,1-2.114,1.053,12.962,12.962,0,0,1-3.382.373Zm16.3-1.579h0a9.9,9.9,0,0,1-1.205,2.591,9.825,9.825,0,0,1-1.8,2.017h18.867v-4.608Zm-37.072-8.141a10.847,10.847,0,0,1,5.745,1.641,10.967,10.967,0,0,1,3.942,4.273H-1460a15.648,15.648,0,0,0-5.627-7.676,15.54,15.54,0,0,0-9.239-3.019,15.658,15.658,0,0,0-11.971,5.568,17.693,17.693,0,0,1,2.391,4.927A10.9,10.9,0,0,1-1474.862,1068.645Zm32.2-4.76a11.537,11.537,0,0,1,1.911,1.343,10,10,0,0,1,2.476,3.22h17.649v-4.563Zm29.362,40.66v0l.7-2.135-1.817-1.32h2.246l.694-2.135.694,2.135h2.246l-1.817,1.32.693,2.134-1.816-1.317-1.817,1.32Zm-33.34-.388a1.718,1.718,0,0,1-.755-.155,1.443,1.443,0,0,1-.535-.439,1.965,1.965,0,0,1-.32-.685,3.5,3.5,0,0,1-.107-.9,3.458,3.458,0,0,1,.107-.887,1.986,1.986,0,0,1,.324-.689,1.474,1.474,0,0,1,.538-.442,1.7,1.7,0,0,1,.748-.155,1.666,1.666,0,0,1,.737.155,1.486,1.486,0,0,1,.534.442,2.042,2.042,0,0,1,.328.689,3.351,3.351,0,0,1,.11.887,3.393,3.393,0,0,1-.11.9,1.976,1.976,0,0,1-.325.685,1.446,1.446,0,0,1-.534.439A1.688,1.688,0,0,1-1446.642,1104.157Zm13.286-.133h-1.024v-4.09h1.164a2.079,2.079,0,0,1,.789.137,1.329,1.329,0,0,1,.541.4,1.687,1.687,0,0,1,.31.637,3.351,3.351,0,0,1,.1.856,2.329,2.329,0,0,1-.45,1.513A1.749,1.749,0,0,1-1433.356,1104.024ZM-1457.43,1102h-1.083v-2.072h1.076a2.583,2.583,0,0,1,.623.063.976.976,0,0,1,.394.187.663.663,0,0,1,.206.318,1.492,1.492,0,0,1,.059.442,1.634,1.634,0,0,1-.056.439.77.77,0,0,1-.2.336.905.905,0,0,1-.39.212A2.321,2.321,0,0,1-1457.43,1102Zm34.906-.149h-1.12v-1.923h1.031a2.532,2.532,0,0,1,.619.063.979.979,0,0,1,.387.184.67.67,0,0,1,.2.291,1.214,1.214,0,0,1,.059.391,1.523,1.523,0,0,1-.052.413.687.687,0,0,1-.184.313.9.9,0,0,1-.361.2A2.065,2.065,0,0,1-1422.525,1101.85Zm-29.7,0h-1.12v-1.923h1.031a2.532,2.532,0,0,1,.619.063.971.971,0,0,1,.387.184.655.655,0,0,1,.2.291,1.2,1.2,0,0,1,.059.391,1.528,1.528,0,0,1-.051.413.7.7,0,0,1-.184.313.9.9,0,0,1-.362.2A2.057,2.057,0,0,1-1452.227,1101.85Zm-31.03,0h-1.12v-1.923h1.031a2.534,2.534,0,0,1,.619.063.977.977,0,0,1,.387.184.67.67,0,0,1,.2.291,1.218,1.218,0,0,1,.058.391,1.528,1.528,0,0,1-.051.413.7.7,0,0,1-.185.313.9.9,0,0,1-.361.2A2.063,2.063,0,0,1-1483.258,1101.85Zm70.264-9.187h0a4.122,4.122,0,0,1-.813-.261,2.219,2.219,0,0,1-.679-.464,2.075,2.075,0,0,1-.464-.744,3.161,3.161,0,0,1-.169-1.108,2.469,2.469,0,0,1,.569-1.757,2.044,2.044,0,0,1,1.547-.6,2.754,2.754,0,0,1,.774.1,2.925,2.925,0,0,1,.694.315,4.318,4.318,0,0,1,.684.534c.23.218.48.478.743.774.128.154.259.312.4.485s.29.341.459.523v-2.835l1.219.151v4.781h-1.049c-.273-.309-.509-.586-.724-.849-.258-.313-.5-.59-.725-.849s-.457-.511-.669-.734a4.91,4.91,0,0,0-.579-.525,2.316,2.316,0,0,0-.554-.314,1.681,1.681,0,0,0-.6-.1,1.026,1.026,0,0,0-.7.244.853.853,0,0,0-.274.665,1.223,1.223,0,0,0,.225.784,1.475,1.475,0,0,0,.853.423l-.159,1.358Zm-88.456-2.224a10.91,10.91,0,0,1-10.9-10.9,10.909,10.909,0,0,1,10.9-10.9,10.909,10.909,0,0,1,10.9,10.9A10.91,10.91,0,0,1-1501.449,1090.439Zm89.962-4.649a6.3,6.3,0,0,1-1.622-.185,3.247,3.247,0,0,1-1.133-.529,2.122,2.122,0,0,1-.664-.832,2.737,2.737,0,0,1-.214-1.1,2.3,2.3,0,0,1,.883-1.922,4.515,4.515,0,0,1,2.75-.684,4.461,4.461,0,0,1,2.756.695,2.351,2.351,0,0,1,.878,1.951,2.3,2.3,0,0,1-.878,1.921A4.5,4.5,0,0,1-1411.487,1085.79Zm0-3.794a7.954,7.954,0,0,0-1.014.059,2.889,2.889,0,0,0-.759.2,1.187,1.187,0,0,0-.479.365.918.918,0,0,0-.165.554.9.9,0,0,0,.165.55,1.153,1.153,0,0,0,.479.354,2.9,2.9,0,0,0,.759.194,7.626,7.626,0,0,0,1.014.06,7.571,7.571,0,0,0,1.012-.06,2.853,2.853,0,0,0,.759-.194,1.151,1.151,0,0,0,.48-.354.9.9,0,0,0,.165-.55.918.918,0,0,0-.165-.554,1.184,1.184,0,0,0-.48-.365,2.879,2.879,0,0,0-.759-.2A7.9,7.9,0,0,0-1411.486,1082Zm-1.508-3.24h0a4.064,4.064,0,0,1-.813-.26,2.222,2.222,0,0,1-.679-.464,2.085,2.085,0,0,1-.464-.744,3.16,3.16,0,0,1-.169-1.108,2.472,2.472,0,0,1,.569-1.757,2.043,2.043,0,0,1,1.547-.6,2.687,2.687,0,0,1,.774.105,2.892,2.892,0,0,1,.694.313,4.356,4.356,0,0,1,.684.535c.226.214.469.467.743.773l.074.09c.109.131.217.262.325.4.128.157.278.328.459.524v-2.836l1.219.151v4.782h-1.049c-.264-.3-.5-.577-.724-.85-.255-.308-.492-.585-.725-.847s-.464-.521-.669-.734a4.742,4.742,0,0,0-.579-.525,2.357,2.357,0,0,0-.554-.315,1.7,1.7,0,0,0-.6-.1,1.029,1.029,0,0,0-.7.245.849.849,0,0,0-.274.664,1.236,1.236,0,0,0,.225.784,1.488,1.488,0,0,0,.853.425l-.159,1.356Zm3.414-6.809h-.949l-4.4-3.155v-1.279h4.233v-.878l1.118.151v.727h1.548v1.328h-1.548v3.1Zm-3.525-3.1h0l2.407,1.677v-1.677h-2.407Z" transform="translate(1590 -956)"/></svg>