<svg xmlns="http://www.w3.org/2000/svg" width="113.253" height="43.269" viewBox="0 0 113.253 43.269"><defs><style>.a{fill:#fff;}.b{fill:rgba(0,0,0,0);}</style></defs><g transform="translate(-257.373 -262.365)"><path class="a" d="M-1748.839,735.4v-8.467h13.218V735.4Zm8.426-1.591-.694-2.137,1.817-1.32h-2.246l-.694-2.136-.694,2.136h-2.246l1.817,1.32-.694,2.137,1.817-1.32Zm-37.96.022a2.093,2.093,0,0,1-.767-.531,2.431,2.431,0,0,1-.5-.866,3.623,3.623,0,0,1-.177-1.179,3.557,3.557,0,0,1,.181-1.179,2.508,2.508,0,0,1,.5-.869,2.109,2.109,0,0,1,.766-.538,2.539,2.539,0,0,1,.976-.184,2.61,2.61,0,0,1,.984.18,2.057,2.057,0,0,1,.762.531,2.461,2.461,0,0,1,.494.862,3.589,3.589,0,0,1,.177,1.175,3.739,3.739,0,0,1-.174,1.183,2.455,2.455,0,0,1-.49.873,2.068,2.068,0,0,1-.763.538,2.577,2.577,0,0,1-.991.185A2.59,2.59,0,0,1-1778.373,733.836Zm.236-4.6a1.46,1.46,0,0,0-.538.442,1.962,1.962,0,0,0-.324.689,3.448,3.448,0,0,0-.107.887,3.487,3.487,0,0,0,.107.9,1.959,1.959,0,0,0,.32.685,1.44,1.44,0,0,0,.535.439,1.726,1.726,0,0,0,.755.155,1.694,1.694,0,0,0,.741-.155,1.444,1.444,0,0,0,.534-.439,2,2,0,0,0,.325-.685,3.369,3.369,0,0,0,.11-.9,3.331,3.331,0,0,0-.11-.887,2.019,2.019,0,0,0-.328-.689,1.469,1.469,0,0,0-.534-.442,1.658,1.658,0,0,0-.737-.155A1.694,1.694,0,0,0-1778.137,729.234Zm-23.518,4.6a1.95,1.95,0,0,1-.736-.538,2.483,2.483,0,0,1-.468-.866,3.78,3.78,0,0,1-.166-1.167,3.633,3.633,0,0,1,.176-1.18,2.5,2.5,0,0,1,.494-.869,2.1,2.1,0,0,1,.748-.537,2.335,2.335,0,0,1,.932-.184,2.517,2.517,0,0,1,.841.125,1.72,1.72,0,0,1,.6.354,1.771,1.771,0,0,1,.4.545,3.128,3.128,0,0,1,.232.7l-.663.111a2.662,2.662,0,0,0-.173-.519,1.355,1.355,0,0,0-.273-.4,1.105,1.105,0,0,0-.4-.247,1.649,1.649,0,0,0-.564-.085,1.492,1.492,0,0,0-.7.158,1.484,1.484,0,0,0-.517.442,2.076,2.076,0,0,0-.32.686,3.335,3.335,0,0,0-.111.887,3.336,3.336,0,0,0,.111.888,2.121,2.121,0,0,0,.32.689,1.448,1.448,0,0,0,.517.442,1.542,1.542,0,0,0,.7.155,1.794,1.794,0,0,0,.616-.093,1.1,1.1,0,0,0,.42-.261,1.243,1.243,0,0,0,.262-.406,2.375,2.375,0,0,0,.139-.516h.7a2.463,2.463,0,0,1-.2.741,1.852,1.852,0,0,1-.42.593,1.846,1.846,0,0,1-.644.391,2.536,2.536,0,0,1-.881.14A2.5,2.5,0,0,1-1801.655,733.832Zm-23.34.092a1.892,1.892,0,0,1-.66-.291,1.494,1.494,0,0,1-.45-.509,1.851,1.851,0,0,1-.206-.737h.678a1.149,1.149,0,0,0,.438.8,1.82,1.82,0,0,0,1.043.247,1.861,1.861,0,0,0,.579-.077,1.018,1.018,0,0,0,.372-.206.719.719,0,0,0,.2-.3,1.114,1.114,0,0,0,.059-.364,1.214,1.214,0,0,0-.037-.3.624.624,0,0,0-.144-.262.929.929,0,0,0-.294-.206,1.941,1.941,0,0,0-.482-.139l-.664-.118a4.007,4.007,0,0,1-.692-.177,1.729,1.729,0,0,1-.512-.284,1.083,1.083,0,0,1-.317-.431,1.639,1.639,0,0,1-.107-.626,1.286,1.286,0,0,1,.151-.634,1.379,1.379,0,0,1,.409-.457,1.8,1.8,0,0,1,.612-.273,3.176,3.176,0,0,1,.766-.088,2.848,2.848,0,0,1,.874.114,1.658,1.658,0,0,1,.571.305,1.315,1.315,0,0,1,.336.439,2.623,2.623,0,0,1,.173.5l-.634.125a1.873,1.873,0,0,0-.151-.394.868.868,0,0,0-.243-.288,1.081,1.081,0,0,0-.373-.173,2.137,2.137,0,0,0-.537-.059,2.343,2.343,0,0,0-.6.067,1.1,1.1,0,0,0-.391.181.642.642,0,0,0-.21.273.908.908,0,0,0-.063.335,1.046,1.046,0,0,0,.049.336.59.59,0,0,0,.162.25.9.9,0,0,0,.3.177,2.685,2.685,0,0,0,.456.121l.737.132a2.4,2.4,0,0,1,1.2.512,1.367,1.367,0,0,1,.383,1.05,1.455,1.455,0,0,1-.121.593,1.343,1.343,0,0,1-.361.482,1.738,1.738,0,0,1-.6.325,2.753,2.753,0,0,1-.848.118A3.537,3.537,0,0,1-1824.995,733.924Zm73.042-.04-.995-2.2a1.618,1.618,0,0,1-.206.018c-.074,0-.141,0-.2,0h-1.039v2.182h-.671v-5.261h1.724a2.951,2.951,0,0,1,.965.132,1.634,1.634,0,0,1,.593.343,1.109,1.109,0,0,1,.3.475,1.834,1.834,0,0,1,.081.538,1.652,1.652,0,0,1-.21.855,1.385,1.385,0,0,1-.689.553l1.105,2.365Zm-2.439-2.763h1.12a2.021,2.021,0,0,0,.582-.07.882.882,0,0,0,.361-.2.685.685,0,0,0,.185-.313,1.54,1.54,0,0,0,.052-.413,1.208,1.208,0,0,0-.059-.391.669.669,0,0,0-.2-.291.977.977,0,0,0-.387-.185,2.566,2.566,0,0,0-.619-.062h-1.031Zm-5.6,2.763v-5.261h3.4v.6h-2.727v1.651h2.579v.6h-2.579v1.813h2.867l-.111.6Zm-5.814,0v-5.261h1.842a3.119,3.119,0,0,1,1.029.158,1.937,1.937,0,0,1,.766.483,2.171,2.171,0,0,1,.482.81,3.467,3.467,0,0,1,.17,1.142,3.422,3.422,0,0,1-.181,1.165,2.181,2.181,0,0,1-.519.832,2.194,2.194,0,0,1-.825.5,3.288,3.288,0,0,1-1.091.169Zm.679-.589h1.024a1.741,1.741,0,0,0,1.429-.549,2.321,2.321,0,0,0,.45-1.514,3.338,3.338,0,0,0-.1-.855,1.679,1.679,0,0,0-.31-.637,1.324,1.324,0,0,0-.541-.4,2.072,2.072,0,0,0-.789-.137h-1.164Zm-3.073.589v-5.261h.678v5.261Zm-3.928,0-2.02-5.261h.767l1.6,4.385,1.628-4.385h.73l-2.02,5.261Zm-9.528,0-.995-2.2a1.6,1.6,0,0,1-.206.018c-.074,0-.14,0-.2,0h-1.039v2.182h-.671v-5.261h1.724a2.96,2.96,0,0,1,.966.132,1.641,1.641,0,0,1,.593.343,1.107,1.107,0,0,1,.3.475,1.834,1.834,0,0,1,.081.538,1.643,1.643,0,0,1-.21.855,1.387,1.387,0,0,1-.688.553l1.1,2.365Zm-2.439-2.763h1.12a2.014,2.014,0,0,0,.581-.07.881.881,0,0,0,.362-.2.7.7,0,0,0,.184-.313,1.542,1.542,0,0,0,.051-.413,1.185,1.185,0,0,0-.059-.391.653.653,0,0,0-.2-.291.97.97,0,0,0-.387-.185,2.561,2.561,0,0,0-.619-.062h-1.031Zm-5.836,2.763v-5.261h1.76a3.138,3.138,0,0,1,.962.125,1.518,1.518,0,0,1,.6.339,1.154,1.154,0,0,1,.3.5,2.079,2.079,0,0,1,.085.6,2.255,2.255,0,0,1-.088.634,1.273,1.273,0,0,1-.31.531,1.52,1.52,0,0,1-.6.361,2.907,2.907,0,0,1-.951.132h-1.09v2.041Zm.67-2.615h1.083a2.317,2.317,0,0,0,.635-.074.905.905,0,0,0,.39-.213.756.756,0,0,0,.2-.336,1.609,1.609,0,0,0,.056-.438,1.485,1.485,0,0,0-.059-.442.661.661,0,0,0-.206-.318.969.969,0,0,0-.394-.187,2.563,2.563,0,0,0-.623-.063h-1.076Zm-7.8,2.615v-5.261h3.4v.6h-2.727v1.651h2.579v.6h-2.579v1.813h2.867l-.111.6Zm-8.179,0v-5.261h.678v5.261Zm-3.927,0-2.02-5.261h.767l1.6,4.385,1.629-4.385h.729l-2.019,5.261Zm-3.523,0-.995-2.2a1.618,1.618,0,0,1-.207.018c-.074,0-.139,0-.2,0h-1.039v2.182h-.671v-5.261h1.724a2.954,2.954,0,0,1,.965.132,1.633,1.633,0,0,1,.593.343,1.109,1.109,0,0,1,.3.475,1.834,1.834,0,0,1,.081.538,1.652,1.652,0,0,1-.21.855,1.385,1.385,0,0,1-.689.553l1.105,2.365Zm-2.439-2.763h1.12a2.021,2.021,0,0,0,.582-.07.882.882,0,0,0,.361-.2.693.693,0,0,0,.185-.313,1.542,1.542,0,0,0,.051-.413,1.208,1.208,0,0,0-.058-.391.669.669,0,0,0-.2-.291.976.976,0,0,0-.387-.185,2.566,2.566,0,0,0-.619-.062h-1.031Zm-5.6,2.763v-5.261h3.4v.6h-2.727v1.651h2.579v.6h-2.579v1.813h2.867l-.111.6Zm1.823-16.777a15.678,15.678,0,0,1-13.294,7.382,15.7,15.7,0,0,1-15.677-15.676,15.7,15.7,0,0,1,15.677-15.677,15.693,15.693,0,0,1,15.673,15.5h.022c0,.058,0,.117,0,.176a10.91,10.91,0,0,0,10.9,10.9,10.9,10.9,0,0,0,9.243-5.135h5.337a15.7,15.7,0,0,1-14.58,9.914A15.676,15.676,0,0,1-1818.9,717.107Zm-24.191-8.294a10.909,10.909,0,0,0,10.9,10.9,10.91,10.91,0,0,0,10.9-10.9,10.91,10.91,0,0,0-10.9-10.9A10.91,10.91,0,0,0-1843.094,708.812Zm94.255,15.673V693.155h13.218v31.331Zm3.54-6.886a2.458,2.458,0,0,0-.569,1.757,3.149,3.149,0,0,0,.169,1.108,2.073,2.073,0,0,0,.464.744,2.214,2.214,0,0,0,.679.464,4.1,4.1,0,0,0,.814.26l.159-1.358a1.471,1.471,0,0,1-.853-.424,1.231,1.231,0,0,1-.225-.784.848.848,0,0,1,.274-.664,1.02,1.02,0,0,1,.7-.244,1.671,1.671,0,0,1,.6.1,2.3,2.3,0,0,1,.554.314,4.8,4.8,0,0,1,.579.525q.3.315.669.734c.254.286.494.569.725.849s.471.563.724.849h1.049v-4.782l-1.219-.15v2.835q-.259-.279-.459-.524c-.133-.163-.266-.325-.4-.484q-.4-.45-.743-.774a4.278,4.278,0,0,0-.684-.534,2.876,2.876,0,0,0-.694-.315,2.737,2.737,0,0,0-.774-.1A2.033,2.033,0,0,0-1745.3,717.6Zm.314-7.108a2.292,2.292,0,0,0-.883,1.922,2.72,2.72,0,0,0,.214,1.1,2.108,2.108,0,0,0,.664.833,3.236,3.236,0,0,0,1.133.529,6.265,6.265,0,0,0,1.622.185,4.483,4.483,0,0,0,2.756-.684,2.293,2.293,0,0,0,.878-1.922,2.344,2.344,0,0,0-.878-1.952,4.443,4.443,0,0,0-2.756-.694A4.494,4.494,0,0,0-1744.985,710.492Zm-.314-6.8a2.461,2.461,0,0,0-.569,1.757,3.142,3.142,0,0,0,.169,1.108,2.073,2.073,0,0,0,.464.744,2.231,2.231,0,0,0,.679.464,4.038,4.038,0,0,0,.814.259l.159-1.357a1.471,1.471,0,0,1-.853-.425,1.228,1.228,0,0,1-.225-.783.845.845,0,0,1,.274-.664,1.02,1.02,0,0,1,.7-.245,1.691,1.691,0,0,1,.6.1,2.306,2.306,0,0,1,.554.315,4.709,4.709,0,0,1,.579.524q.3.314.669.734c.254.286.494.569.725.848s.471.563.724.849h1.049v-4.782l-1.219-.15v2.836q-.259-.279-.459-.525t-.4-.484q-.4-.448-.743-.773a4.34,4.34,0,0,0-.684-.535,2.872,2.872,0,0,0-.694-.314,2.706,2.706,0,0,0-.774-.1A2.032,2.032,0,0,0-1745.3,703.692Zm-.379-5.631,4.4,3.155h.949v-3.1h1.548v-1.328h-1.548v-.728l-1.118-.15v.878h-4.233Zm-20.455,26.425-2.453-4.563h17.211v4.563Zm-9.643,0-9.059-16.851h.732a12.9,12.9,0,0,0,3.382-.373,5.3,5.3,0,0,0,2.114-1.053,3.764,3.764,0,0,0,1.094-1.645,6.756,6.756,0,0,0,.322-2.151,5.174,5.174,0,0,0-.373-2,3.613,3.613,0,0,0-1.244-1.536,6.533,6.533,0,0,0-2.312-.987,15.449,15.449,0,0,0-3.581-.351h-7.156a17.784,17.784,0,0,0-5.325-4.387h12.631a22.206,22.206,0,0,1,6.639.833,11.446,11.446,0,0,1,4.128,2.172,7.344,7.344,0,0,1,2.113,2.962,9.233,9.233,0,0,1,.6,3.2,9.093,9.093,0,0,1-1.368,5.134,9.469,9.469,0,0,1-4.4,3.335l7.361,13.691Zm32.528-10.944a2.921,2.921,0,0,1-.759-.194,1.149,1.149,0,0,1-.479-.355.888.888,0,0,1-.165-.549.914.914,0,0,1,.165-.554,1.173,1.173,0,0,1,.479-.365,2.841,2.841,0,0,1,.759-.2,7.744,7.744,0,0,1,1.014-.059,7.7,7.7,0,0,1,1.012.059,2.83,2.83,0,0,1,.759.2,1.17,1.17,0,0,1,.48.365.913.913,0,0,1,.165.554.888.888,0,0,1-.165.549,1.146,1.146,0,0,1-.48.355,2.91,2.91,0,0,1-.759.194,7.683,7.683,0,0,1-1.012.06A7.721,7.721,0,0,1-1743.248,713.542Zm-28.292-2.878a9.785,9.785,0,0,0,1.8-2.017,9.862,9.862,0,0,0,1.205-2.591h15.863v4.608Zm-24.382-6.834a10.9,10.9,0,0,0-9.687-5.915,10.9,10.9,0,0,0-9.58,5.713,17.718,17.718,0,0,0-2.391-4.926,15.646,15.646,0,0,1,11.971-5.567,15.706,15.706,0,0,1,14.865,10.695Zm52.07-5.719h2.406v1.677Zm-25.173-.393a9.979,9.979,0,0,0-2.476-3.22,11.438,11.438,0,0,0-1.911-1.343h22.036v4.563Z" transform="translate(2105.747 -430.27)"/><path class="b" d="M-1735.12,735.9h-14.218v-9.467h14.218Zm-4.412-1h3.412v-7.467h-5.839l.786,2.419h3.422l-2.768,2.011Zm-5.165,0h4.936l-2.468-1.793Zm-3.641,0h3.411l.986-3.037-2.768-2.011h3.422l.786-2.419h-5.837Zm6.109-3.03.866.63-.331-1.019.866-.629h-1.071l-.331-1.018-.331,1.018h-1.071l.866.629-.331,1.019Zm-35.159,2.642a3.1,3.1,0,0,1-1.172-.218,2.6,2.6,0,0,1-.948-.657,2.936,2.936,0,0,1-.6-1.041,4.137,4.137,0,0,1-.2-1.341,4.072,4.072,0,0,1,.209-1.344,3.018,3.018,0,0,1,.6-1.04,2.613,2.613,0,0,1,.944-.664,3.047,3.047,0,0,1,1.168-.222,3.116,3.116,0,0,1,1.171.216,2.561,2.561,0,0,1,.946.659,2.965,2.965,0,0,1,.6,1.034,4.1,4.1,0,0,1,.2,1.339,4.252,4.252,0,0,1-.2,1.34,2.961,2.961,0,0,1-.591,1.048,2.575,2.575,0,0,1-.946.668A3.084,3.084,0,0,1-1777.389,734.517Zm0-4.937a1.211,1.211,0,0,0-.529.1.957.957,0,0,0-.358.294,1.479,1.479,0,0,0-.24.516,2.967,2.967,0,0,0-.09.759,3.007,3.007,0,0,0,.09.767,1.475,1.475,0,0,0,.237.513.941.941,0,0,0,.353.29,1.241,1.241,0,0,0,.537.1,1.209,1.209,0,0,0,.525-.106.941.941,0,0,0,.35-.288,1.519,1.519,0,0,0,.243-.518,2.894,2.894,0,0,0,.092-.763,2.852,2.852,0,0,0-.092-.754,1.534,1.534,0,0,0-.245-.521.965.965,0,0,0-.354-.294A1.176,1.176,0,0,0-1777.389,729.579Zm-23.286,4.937a3,3,0,0,1-1.175-.224,2.452,2.452,0,0,1-.922-.675,2.992,2.992,0,0,1-.563-1.037,4.292,4.292,0,0,1-.189-1.32,4.151,4.151,0,0,1,.2-1.342,3,3,0,0,1,.595-1.041,2.6,2.6,0,0,1,.924-.664,2.841,2.841,0,0,1,1.127-.224,3.023,3.023,0,0,1,1.008.154,2.224,2.224,0,0,1,.772.458,2.275,2.275,0,0,1,.51.7,3.636,3.636,0,0,1,.27.812l.108.511-1.642.274-.105-.459a2.169,2.169,0,0,0-.139-.422.85.85,0,0,0-.171-.25.6.6,0,0,0-.218-.132,1.173,1.173,0,0,0-.392-.054.992.992,0,0,0-.466.1.983.983,0,0,0-.345.3,1.593,1.593,0,0,0-.24.52,2.854,2.854,0,0,0-.093.755,2.855,2.855,0,0,0,.093.755,1.635,1.635,0,0,0,.243.528.942.942,0,0,0,.338.29,1.053,1.053,0,0,0,.477.1,1.317,1.317,0,0,0,.443-.062.612.612,0,0,0,.236-.142.74.74,0,0,0,.155-.243,1.883,1.883,0,0,0,.109-.406l.067-.422h1.686l-.062.555a2.976,2.976,0,0,1-.24.89,2.362,2.362,0,0,1-.534.753,2.346,2.346,0,0,1-.815.5A3.04,3.04,0,0,1-1800.675,734.517Zm-23.476,0a4.053,4.053,0,0,1-.963-.107,2.392,2.392,0,0,1-.83-.368,2,2,0,0,1-.6-.675,2.356,2.356,0,0,1-.266-.936l-.046-.542h1.648l.068.42c.056.346.189.44.233.471a1.335,1.335,0,0,0,.755.155,1.362,1.362,0,0,0,.421-.052.545.545,0,0,0,.192-.1.214.214,0,0,0,.062-.092.616.616,0,0,0,.033-.205.71.71,0,0,0-.022-.177.126.126,0,0,0-.031-.05.449.449,0,0,0-.137-.089,1.441,1.441,0,0,0-.354-.1l-.666-.118a4.458,4.458,0,0,1-.776-.2,2.233,2.233,0,0,1-.659-.368,1.583,1.583,0,0,1-.46-.625,2.14,2.14,0,0,1-.145-.818,1.784,1.784,0,0,1,.214-.876,1.883,1.883,0,0,1,.554-.621,2.308,2.308,0,0,1,.781-.351,3.691,3.691,0,0,1,.888-.1,3.307,3.307,0,0,1,1.029.139,2.161,2.161,0,0,1,.741.4,1.823,1.823,0,0,1,.463.608,3.144,3.144,0,0,1,.207.6l.116.5-1.563.309a2.445,2.445,0,0,1,1,.53,1.849,1.849,0,0,1,.542,1.416,1.958,1.958,0,0,1-.164.795,1.843,1.843,0,0,1-.493.66,2.237,2.237,0,0,1-.769.42A3.262,3.262,0,0,1-1824.151,734.517Zm-.088-4.953a1.871,1.871,0,0,0-.474.049.611.611,0,0,0-.214.093.146.146,0,0,0-.052.061.408.408,0,0,0-.028.152.571.571,0,0,0,.022.176.093.093,0,0,0,.029.044.4.4,0,0,0,.136.076,2.216,2.216,0,0,0,.371.1l.733.132q.22.042.414.1l-.116-.433a1.376,1.376,0,0,0-.11-.289.37.37,0,0,0-.1-.124.6.6,0,0,0-.2-.088A1.673,1.673,0,0,0-1824.24,729.564Zm15.418,4.891-.026-.071h-.659l-2.4-6.261h1.844l1.253,3.437,1.277-3.437h3.477v6.261h-1.678v-6.25l-2.4,6.25h-.661Zm37.036,0-.026-.071h-.66l-2.4-6.261h1.844l1.254,3.437,1.276-3.437h3.478v6.261h-1.678v-6.25l-2.4,6.25h-.66Zm21.377-.071h-1.867l-.985-2.182h-.631v2.182h-1.671v-6.261h2.224a3.4,3.4,0,0,1,1.131.161,2.133,2.133,0,0,1,.774.454,1.61,1.61,0,0,1,.43.689,2.343,2.343,0,0,1,.1.684,2.148,2.148,0,0,1-.279,1.11,1.693,1.693,0,0,1-.47.507Zm-3.483-3.763h.62a1.52,1.52,0,0,0,.435-.048.4.4,0,0,0,.16-.08.186.186,0,0,0,.051-.089,1.055,1.055,0,0,0,.034-.278.722.722,0,0,0-.031-.226.17.17,0,0,0-.054-.074.5.5,0,0,0-.19-.082,2.057,2.057,0,0,0-.493-.046h-.531Zm-2.251,3.763h-4.35v-6.261h4.4v1.6h-2.727v.651h2.579v1.6h-2.579v.813h2.969Zm-7.991,0h-2.173v-6.261h2.342a3.628,3.628,0,0,1,1.193.186,2.446,2.446,0,0,1,.962.609,2.675,2.675,0,0,1,.594.993,3.977,3.977,0,0,1,.2,1.306,3.937,3.937,0,0,1-.211,1.334,2.688,2.688,0,0,1-.64,1.02,2.7,2.7,0,0,1-1.01.616A3.8,3.8,0,0,1-1764.133,734.383Zm-.494-1.589h.524a1.27,1.27,0,0,0,1.042-.366,1.856,1.856,0,0,0,.337-1.2,2.859,2.859,0,0,0-.083-.727,1.194,1.194,0,0,0-.215-.451.827.827,0,0,0-.343-.25,1.592,1.592,0,0,0-.6-.1h-.664Zm-15.485,1.589h-1.867l-.985-2.182h-.631v2.182h-1.671v-6.261h2.224a3.412,3.412,0,0,1,1.131.161,2.144,2.144,0,0,1,.773.453,1.611,1.611,0,0,1,.43.69,2.343,2.343,0,0,1,.1.684,2.141,2.141,0,0,1-.28,1.111,1.694,1.694,0,0,1-.469.506Zm-3.483-3.763h.62a1.517,1.517,0,0,0,.434-.048.4.4,0,0,0,.161-.08.2.2,0,0,0,.052-.092,1.053,1.053,0,0,0,.032-.275.7.7,0,0,0-.031-.226.154.154,0,0,0-.052-.073.486.486,0,0,0-.192-.083,2.1,2.1,0,0,0-.493-.046h-.531Zm-5.165,3.763h-1.67v-6.261h2.26a3.59,3.59,0,0,1,1.118.15,2.017,2.017,0,0,1,.791.458,1.651,1.651,0,0,1,.431.711,2.591,2.591,0,0,1,.106.744,2.761,2.761,0,0,1-.108.773,1.774,1.774,0,0,1-.43.738,2.019,2.019,0,0,1-.79.485,3.364,3.364,0,0,1-1.118.161h-.59Zm0-3.615h.583a1.811,1.811,0,0,0,.5-.054.418.418,0,0,0,.175-.087.256.256,0,0,0,.068-.118,1.121,1.121,0,0,0,.037-.3,1,1,0,0,0-.037-.293.167.167,0,0,0-.053-.086.486.486,0,0,0-.192-.083,2.093,2.093,0,0,0-.5-.048h-.576Zm-4.447,3.615h-4.35v-6.261h4.4v1.6h-2.727v.651h2.579v1.6h-2.579v.813h2.969Zm-17.934,0h-1.867l-.985-2.182h-.631v2.182h-1.671v-6.261h2.224a3.4,3.4,0,0,1,1.131.161,2.133,2.133,0,0,1,.774.454,1.61,1.61,0,0,1,.43.689,2.343,2.343,0,0,1,.1.684,2.148,2.148,0,0,1-.279,1.11,1.693,1.693,0,0,1-.47.507Zm-3.483-3.763h.62a1.52,1.52,0,0,0,.435-.048.4.4,0,0,0,.16-.08.191.191,0,0,0,.051-.089,1.055,1.055,0,0,0,.033-.278.728.728,0,0,0-.031-.226.17.17,0,0,0-.054-.074.5.5,0,0,0-.19-.082,2.055,2.055,0,0,0-.493-.046h-.531Zm-2.251,3.763h-4.35v-6.261h4.4v1.6h-2.727v.651h2.579v1.6h-2.579v.813h2.969Zm11.266-9.4a16.145,16.145,0,0,1-7.954-2.1,16.337,16.337,0,0,1-5.34-4.879,16.339,16.339,0,0,1-5.34,4.879,16.144,16.144,0,0,1-7.953,2.1,16.2,16.2,0,0,1-16.177-16.176,16.2,16.2,0,0,1,16.177-16.177,16.069,16.069,0,0,1,11.372,4.684,16.074,16.074,0,0,1,4.788,10.817h.043l-.007.507c0,.029,0,.057,0,.086s0,.055,0,.083a10.409,10.409,0,0,0,10.4,10.4,10.373,10.373,0,0,0,5.112-1.347,10.5,10.5,0,0,0,3.707-3.553l.147-.235h6.35l-.271.684a16.194,16.194,0,0,1-5.854,7.359A16.066,16.066,0,0,1-1805.609,724.988Zm-13.294-8.824.424.677a15.327,15.327,0,0,0,5.41,5.182,15.143,15.143,0,0,0,7.46,1.965,15.07,15.07,0,0,0,8.621-2.693,15.2,15.2,0,0,0,5.2-6.222h-4.308a11.508,11.508,0,0,1-3.91,3.658,11.375,11.375,0,0,1-5.606,1.478A11.411,11.411,0,0,1-1817,709.136h-.017l-.005-.494a15.084,15.084,0,0,0-4.5-10.612,15.075,15.075,0,0,0-10.668-4.394,15.194,15.194,0,0,0-15.177,15.177,15.194,15.194,0,0,0,15.177,15.176,15.142,15.142,0,0,0,7.46-1.965,15.335,15.335,0,0,0,5.41-5.182Zm83.782,8.821h-14.218V692.655h14.218Zm-13.218-1h12.218V693.655h-12.218Zm-2.537,1h-15.556l-2.991-5.563h18.547Zm-14.958-1h13.958v-3.563h-15.874Zm-2.81,1h-7.43l-.142-.263-9.456-17.587h1.568a12.478,12.478,0,0,0,3.249-.354,4.839,4.839,0,0,0,1.917-.946,3.243,3.243,0,0,0,.951-1.43,6.288,6.288,0,0,0,.3-1.991,4.7,4.7,0,0,0-.335-1.805,3.136,3.136,0,0,0-1.077-1.324,6.081,6.081,0,0,0-2.135-.9,15.032,15.032,0,0,0-3.463-.337h-7.393l-.15-.183a17.192,17.192,0,0,0-5.176-4.264l.237-.94h12.631a22.8,22.8,0,0,1,6.792.857,11.987,11.987,0,0,1,4.307,2.273,7.869,7.869,0,0,1,2.252,3.165,9.776,9.776,0,0,1,.628,3.376,9.619,9.619,0,0,1-1.451,5.41,9.646,9.646,0,0,1-4.122,3.3Zm-6.832-1h5.159l-7.226-13.439.508-.213a9.029,9.029,0,0,0,4.178-3.151,8.645,8.645,0,0,0,1.285-4.857,8.78,8.78,0,0,0-.567-3.031,6.884,6.884,0,0,0-1.975-2.76,11.012,11.012,0,0,0-3.949-2.07,21.831,21.831,0,0,0-6.487-.81h-10.836a18.161,18.161,0,0,1,3.765,3.387h6.921a16.006,16.006,0,0,1,3.7.365,7.057,7.057,0,0,1,2.489,1.069,4.121,4.121,0,0,1,1.411,1.749,5.694,5.694,0,0,1,.411,2.188,7.284,7.284,0,0,1-.348,2.31,4.278,4.278,0,0,1-1.237,1.861,5.814,5.814,0,0,1-2.312,1.16,13.268,13.268,0,0,1-3.411.391Zm32.169-1.451-.536-.113a4.617,4.617,0,0,1-.913-.292,2.718,2.718,0,0,1-.83-.567,2.577,2.577,0,0,1-.578-.921,3.6,3.6,0,0,1-.2-1.285,2.943,2.943,0,0,1,.706-2.1,2.522,2.522,0,0,1,1.91-.755,3.246,3.246,0,0,1,.915.125,3.387,3.387,0,0,1,.816.369,4.8,4.8,0,0,1,.764.6c.237.224.492.489.759.789v-2.043l2.219.274v5.724h-1.774l-.149-.169c-.26-.294-.507-.584-.735-.863-.242-.293-.475-.566-.712-.834s-.451-.5-.657-.72a4.333,4.333,0,0,0-.518-.47,1.814,1.814,0,0,0-.432-.246,1.182,1.182,0,0,0-.425-.071.515.515,0,0,0-.372.118.346.346,0,0,0-.106.29.77.77,0,0,0,.117.474c.027.034.148.153.569.246l.441.1Zm3.707-1.2h.322v-3.84l-.219-.027v3.544l-.867-.934c-.179-.193-.34-.377-.479-.547s-.276-.336-.391-.474c-.252-.283-.49-.531-.708-.737a3.81,3.81,0,0,0-.6-.471,2.4,2.4,0,0,0-.574-.262,2.25,2.25,0,0,0-.632-.084,1.543,1.543,0,0,0-1.185.444,2,2,0,0,0-.431,1.412,2.679,2.679,0,0,0,.137.931,1.587,1.587,0,0,0,.35.568,1.723,1.723,0,0,0,.526.359q.09.04.185.075l.042-.355a1.565,1.565,0,0,1-.7-.474,1.719,1.719,0,0,1-.333-1.094,1.349,1.349,0,0,1,.441-1.036,1.512,1.512,0,0,1,1.038-.372,2.174,2.174,0,0,1,.783.138,2.808,2.808,0,0,1,.675.381,5.334,5.334,0,0,1,.641.58c.215.226.445.477.682.749s.485.557.735.861C-1739.988,720.882-1739.8,721.105-1739.6,721.332Zm-92.6-1.123a11.41,11.41,0,0,1-11.4-11.4,11.411,11.411,0,0,1,11.4-11.4,11.411,11.411,0,0,1,11.4,11.4A11.41,11.41,0,0,1-1832.2,720.209Zm0-21.8a10.409,10.409,0,0,0-10.4,10.4,10.409,10.409,0,0,0,10.4,10.4,10.409,10.409,0,0,0,10.4-10.4A10.409,10.409,0,0,0-1832.2,698.414Zm89.962,17.145a6.792,6.792,0,0,1-1.752-.2,3.742,3.742,0,0,1-1.307-.615,2.61,2.61,0,0,1-.818-1.029,3.229,3.229,0,0,1-.256-1.3,2.778,2.778,0,0,1,1.077-2.317,4.908,4.908,0,0,1,3.057-.789,4.858,4.858,0,0,1,3.065.8,2.832,2.832,0,0,1,1.069,2.345,2.78,2.78,0,0,1-1.072,2.316A4.9,4.9,0,0,1-1742.234,715.559Zm0-5.252a4.06,4.06,0,0,0-2.445.58,1.8,1.8,0,0,0-.689,1.526,2.236,2.236,0,0,0,.172.9,1.6,1.6,0,0,0,.51.636,2.759,2.759,0,0,0,.96.444,5.81,5.81,0,0,0,1.491.167,4.054,4.054,0,0,0,2.449-.578,1.8,1.8,0,0,0,.686-1.527,1.855,1.855,0,0,0-.688-1.56A4.011,4.011,0,0,0-1742.234,710.307Zm0,3.794a8.259,8.259,0,0,1-1.08-.065,3.424,3.424,0,0,1-.89-.231,1.646,1.646,0,0,1-.682-.514,1.378,1.378,0,0,1-.264-.849,1.407,1.407,0,0,1,.261-.849,1.67,1.67,0,0,1,.678-.526,3.346,3.346,0,0,1,.9-.239,8.3,8.3,0,0,1,1.082-.064,8.237,8.237,0,0,1,1.079.064,3.344,3.344,0,0,1,.895.238,1.667,1.667,0,0,1,.68.526,1.406,1.406,0,0,1,.262.85,1.377,1.377,0,0,1-.265.85,1.64,1.64,0,0,1-.682.513,3.419,3.419,0,0,1-.89.231A8.2,8.2,0,0,1-1742.234,714.1Zm0-2.336a7.292,7.292,0,0,0-.948.055,2.354,2.354,0,0,0-.623.161.688.688,0,0,0-.278.2.428.428,0,0,0-.068.258.4.4,0,0,0,.064.248.669.669,0,0,0,.277.2,2.441,2.441,0,0,0,.627.158,7.261,7.261,0,0,0,.948.056,7.208,7.208,0,0,0,.946-.056,2.432,2.432,0,0,0,.628-.158.667.667,0,0,0,.277-.195.4.4,0,0,0,.065-.25.428.428,0,0,0-.068-.259.688.688,0,0,0-.28-.2,2.352,2.352,0,0,0-.623-.161A7.24,7.24,0,0,0-1742.234,711.766Zm-9.94-.6h-20.715l1.023-.879a9.328,9.328,0,0,0,1.707-1.914,9.4,9.4,0,0,0,1.144-2.461l.108-.354h16.733Zm-18.128-1h17.128v-3.608h-15a10.25,10.25,0,0,1-1.152,2.368A9.823,9.823,0,0,1-1770.3,710.163Zm26.994-1.538-.535-.111a4.553,4.553,0,0,1-.915-.291,2.739,2.739,0,0,1-.83-.568,2.578,2.578,0,0,1-.578-.921,3.6,3.6,0,0,1-.2-1.285,2.946,2.946,0,0,1,.706-2.1,2.522,2.522,0,0,1,1.91-.754,3.216,3.216,0,0,1,.917.125,3.386,3.386,0,0,1,.814.368,4.859,4.859,0,0,1,.764.6c.233.22.482.478.759.788v-2.043l2.219.274v5.724h-1.774l-.149-.168c-.25-.282-.5-.573-.736-.863s-.479-.57-.712-.833-.458-.513-.657-.721a4.239,4.239,0,0,0-.516-.469,1.82,1.82,0,0,0-.433-.248,1.2,1.2,0,0,0-.425-.071.515.515,0,0,0-.372.119.344.344,0,0,0-.106.29.806.806,0,0,0,.116.472c.028.036.148.154.571.248l.44.1Zm3.706-1.2h.322v-3.84l-.219-.027V707.1l-.867-.934c-.181-.2-.343-.38-.48-.549s-.26-.316-.391-.473c-.258-.289-.5-.536-.707-.735a3.865,3.865,0,0,0-.6-.474,2.387,2.387,0,0,0-.573-.26,2.222,2.222,0,0,0-.632-.084,1.543,1.543,0,0,0-1.185.443,2,2,0,0,0-.431,1.412,2.676,2.676,0,0,0,.137.93,1.589,1.589,0,0,0,.351.568,1.741,1.741,0,0,0,.528.361q.09.04.184.075l.042-.355a1.564,1.564,0,0,1-.7-.476,1.712,1.712,0,0,1-.332-1.092,1.346,1.346,0,0,1,.442-1.037,1.512,1.512,0,0,1,1.037-.372,2.194,2.194,0,0,1,.781.137,2.818,2.818,0,0,1,.677.382,5.228,5.228,0,0,1,.641.579c.208.218.438.47.682.749s.48.551.734.859C-1739.982,706.982-1739.793,707.205-1739.6,707.425Zm-75.716-2.51-.349-1.141a17.2,17.2,0,0,0-2.324-4.787l-.219-.315.248-.293a16.155,16.155,0,0,1,12.353-5.745,16.037,16.037,0,0,1,9.534,3.115,16.285,16.285,0,0,1,3.5,3.492,16.132,16.132,0,0,1,2.3,4.428l.222.659h-6.179l-.14-.271a10.468,10.468,0,0,0-3.763-4.078,10.347,10.347,0,0,0-5.48-1.566,10.4,10.4,0,0,0-9.14,5.452Zm19.7-1.585h4.166a15.153,15.153,0,0,0-5.21-6.772,15.044,15.044,0,0,0-8.943-2.922,15.152,15.152,0,0,0-11.341,5.1,18.2,18.2,0,0,1,1.891,3.712,11.392,11.392,0,0,1,9.45-5.037,11.347,11.347,0,0,1,6.009,1.717A11.47,11.47,0,0,1-1795.622,703.33Zm55.795-1.614h-1.609l-4.741-3.4v-2.035h4.233v-.95l2.118.285v.665h1.548v2.328h-1.548Zm-1.118-1h.118v-3.1h1.548v-.328h-1.548v-.791l-.118-.016v.807h-4.233v.328h4.233Zm-.17,0h.128l-4.19-2.92v.007Zm-9.76-2.5h-18.466l-.135-.287a9.5,9.5,0,0,0-2.354-3.058,10.979,10.979,0,0,0-1.827-1.283l-1.641-.935h24.424Zm-17.838-1h16.838v-3.563h-19.866q.3.229.572.468A10.622,10.622,0,0,1-1768.714,697.218Z" transform="translate(2105.747 -430.27)"/></g></svg>