<svg xmlns="http://www.w3.org/2000/svg" width="90" height="45" viewBox="0 0 90 45"><defs><style>.a{fill:#e8eff3;}.b{fill:#0072bc;}.b,.c{fill-rule:evenodd;}</style></defs><g transform="translate(-254 -188)"><rect class="a" width="90" height="45" transform="translate(254 188)"/><g transform="translate(277 199)"><path class="b" d="M10.1,8.84a5.4,5.4,0,0,0-1.974.372A5.3,5.3,0,0,0,6.148,8.84C2.921,8.84,0,11.908,0,16.1a8.133,8.133,0,0,0,16.265,0c-.011-4.2-2.933-7.264-6.17-7.264ZM8.133,11.333a3.365,3.365,0,0,1,1.444,2.662,1.45,1.45,0,1,1-2.887,0A3.325,3.325,0,0,1,8.133,11.333Zm0,10.885a6.124,6.124,0,0,1-6.125-6.159c0-3.159,2.279-5.324,4.072-5.234A4.747,4.747,0,0,0,4.714,14.1a3.418,3.418,0,1,0,6.835,0,4.746,4.746,0,0,0-1.365-3.271c1.794-.079,4.072,2.076,4.072,5.234a6.124,6.124,0,0,1-6.125,6.159Z" transform="translate(0 -8.347)"/><path class="c" d="M28.8,311.32v.922h.512v1.693l-1.379-2.614h-1.6v.922h.512v2.819H26.34v.922h2.109v-.922h-.512v-1.693l1.386,2.614H30.4v-3.741h.512v-.922Zm6.492,1.789V311.32H31.241v1.789h.922v-.867h.5v2.819h-.683v.922h2.567v-.922H33.87v-2.819h.5v.867H35.3Zm4.369-1.789H35.61v1.789h.922v-.867h.5v2.819h-.676v.922h2.567v-.922h-.676v-2.819h.5v.867h.922V311.32Z" transform="translate(-24.87 -293.94)"/><path d="M444.754,161.738a.676.676,0,0,0-.237-.541,2.5,2.5,0,0,0-.89-.383,2.877,2.877,0,0,1-.935-.394.921.921,0,0,1-.417-.789.937.937,0,0,1,.394-.778,1.583,1.583,0,0,1,1-.293,1.792,1.792,0,0,1,.744.158,1.289,1.289,0,0,1,.507.439,1.142,1.142,0,0,1,.18.631h-.349a.9.9,0,0,0-.293-.687,1.135,1.135,0,0,0-.778-.259,1.159,1.159,0,0,0-.755.214.659.659,0,0,0-.282.552.61.61,0,0,0,.248.518,2.315,2.315,0,0,0,.811.349,3.635,3.635,0,0,1,.845.315,1.126,1.126,0,0,1,.428.394,1.047,1.047,0,0,1,.146.541.957.957,0,0,1-.394.789,1.642,1.642,0,0,1-1.037.293,2.023,2.023,0,0,1-.8-.158,1.206,1.206,0,0,1-.552-.439,1.162,1.162,0,0,1-.191-.642h.349a.829.829,0,0,0,.327.687,1.367,1.367,0,0,0,.868.248,1.251,1.251,0,0,0,.778-.214.644.644,0,0,0,.282-.552Zm2.22,1.071a1.4,1.4,0,0,1-.71-.191,1.282,1.282,0,0,1-.5-.541,1.719,1.719,0,0,1-.18-.778v-.124a1.848,1.848,0,0,1,.169-.8,1.311,1.311,0,0,1,.485-.563,1.183,1.183,0,0,1,.665-.2,1.114,1.114,0,0,1,.89.383,1.6,1.6,0,0,1,.327,1.048v.191h-2.2v.068a1.255,1.255,0,0,0,.3.868.979.979,0,0,0,.755.349,1.131,1.131,0,0,0,.485-.1,1.106,1.106,0,0,0,.383-.315l.214.158a1.247,1.247,0,0,1-1.093.552Zm-.068-2.9a.812.812,0,0,0-.642.282,1.248,1.248,0,0,0-.315.755H447.8v-.034a1.134,1.134,0,0,0-.248-.721.815.815,0,0,0-.642-.282Zm3.02,2.614a.893.893,0,0,0,.6-.2.7.7,0,0,0,.259-.518h.327a.956.956,0,0,1-.18.518,1.12,1.12,0,0,1-.428.361,1.271,1.271,0,0,1-.574.135,1.176,1.176,0,0,1-.958-.417,1.686,1.686,0,0,1-.349-1.127v-.1a1.944,1.944,0,0,1,.158-.8,1.149,1.149,0,0,1,.462-.541,1.3,1.3,0,0,1,.7-.191,1.17,1.17,0,0,1,.834.3,1.1,1.1,0,0,1,.349.789h-.327a.836.836,0,0,0-.259-.586.856.856,0,0,0-.6-.226.872.872,0,0,0-.721.338,1.444,1.444,0,0,0-.259.935v.1a1.5,1.5,0,0,0,.259.924.812.812,0,0,0,.71.3Zm3.842-.158a1.114,1.114,0,0,1-.98.451.935.935,0,0,1-.744-.282,1.243,1.243,0,0,1-.259-.845v-2.017h.338v1.961q0,.879.71.879a.888.888,0,0,0,.935-.608v-2.231h.338v3.076h-.327l-.011-.383Zm2.648-2.4a1.4,1.4,0,0,0-.226-.022.806.806,0,0,0-.541.18,1.039,1.039,0,0,0-.315.518v2.119H455v-3.087h.338l.011.485a.91.91,0,0,1,.868-.541.627.627,0,0,1,.226.034l-.022.315Zm.519-1.183a.2.2,0,0,1,.068-.158.246.246,0,0,1,.338,0,.223.223,0,0,1,.068.158.2.2,0,0,1-.068.158.246.246,0,0,1-.338,0A.189.189,0,0,1,456.935,158.786Zm.394,3.966h-.338v-3.076h.338Zm1.465-3.865v.789h.642v.282h-.642v2.05a.715.715,0,0,0,.09.383.367.367,0,0,0,.3.124,1.672,1.672,0,0,0,.27-.034l.011.282a1.072,1.072,0,0,1-.361.045.593.593,0,0,1-.507-.2.992.992,0,0,1-.158-.6v-2.05h-.563v-.282h.563v-.789h.349Zm2.31,3.38.9-2.591h.372l-1.318,3.606-.068.158a.83.83,0,0,1-.778.563.733.733,0,0,1-.259-.045v-.282l.18.022a.646.646,0,0,0,.406-.124.9.9,0,0,0,.259-.428l.146-.417-1.172-3.054h.372l.958,2.591Z" transform="translate(-417.467 -149.708)"/><path d="M369.085,22.535h-.75V0h.75Z" transform="translate(-348.126)"/></g></g></svg>