<svg xmlns="http://www.w3.org/2000/svg" width="90" height="45" viewBox="0 0 90 45">
  <g id="saas_elastisys" transform="translate(0.253)">
    <rect id="Rectangle_262" data-name="Rectangle 262" width="90" height="45" transform="translate(-0.253)" fill="#e8eff3"/>
    <g id="Lager_1-2" transform="translate(13.747 14)">
      <path id="Path_6279" data-name="Path 6279" d="M30.986.108A7.023,7.023,0,0,0,29.755,0c-3.423,0-7.186,2.465-9.375,8.054.177-.27.361-.528.555-.773A7.057,7.057,0,0,1,26.4,4.325a5.547,5.547,0,0,1,.921.077A5.038,5.038,0,0,1,31.41,7.289c.6,1.524.2,3.317-1.125,5.048a7.06,7.06,0,0,1-1.759,1.569c2.537-.967,4.908-2.257,6.184-3.933C38.336,5.212,36.034,1.009,30.986.108Z" transform="translate(-18.618)" fill="#3d516e"/>
      <path id="Path_6280" data-name="Path 6280" d="M27.5,65.543c2.516-3.287.966-6.153-2.489-6.736a4.765,4.765,0,0,0-.8-.067c-2.215,0-4.66,1.51-6.231,4.9.041-.053.081-.106.123-.156a5.356,5.356,0,0,1,4.066-2.165,4.032,4.032,0,0,1,.532.035,3.481,3.481,0,0,1,2.928,1.974c.268.657.51,2.026-.882,3.812a5.084,5.084,0,0,1-.929.9,9.18,9.18,0,0,0,3.679-2.5Z" transform="translate(-16.426 -53.663)" fill="#3d516e"/>
      <path id="Path_6281" data-name="Path 6281" d="M7.727,101.868c1.811-2.323.811-4.26-1.553-4.579a3.228,3.228,0,0,0-.431-.029c-2.3,0-5.084,2.388-5.743,7.966C0,105.226,5.917,104.191,7.727,101.868Z" transform="translate(0 -88.853)" fill="#3d516e"/>
      <path id="Path_6282" data-name="Path 6282" d="M235.94,67.359c.075-.553.479-.793,1.1-.793.4,0,.743.15.743.49s-.113.516-.53.654l-1.424.491.113-.843h0Zm-.315,2.416v-.15l1.739-.591c1.171-.4,1.814-.881,1.814-2.089,0-.982-.768-1.647-2.016-1.647a2.461,2.461,0,0,0-2.684,1.962l-.3,2.164a4.134,4.134,0,0,0-.038.516c0,1.018.667,1.647,2.117,1.647h1.993l.187-1.285s-1.2,0-1.991,0c-.554,0-.819-.176-.819-.529h0Zm6.848-6.823h-2.4l-.189,1.284h.91l-.84,6.07H238.91l-.189,1.284H242.3l.189-1.284h-1.043l1.029-7.352Zm18.269-.172h-1.487l-.226,1.61h1.487l.226-1.61h0Zm-.353,2.517h-2.406l-.189,1.284h.92l-.517,3.725H257.15l-.188,1.284h3.591l.189-1.284h-1.058l.705-5.008Zm3.752,0h0c-1.424,0-2.57.641-2.57,1.887,0,1.825,2.507,1.6,2.507,2.529,0,.528-.528.591-.982.591-.982,0-1.894,0-1.894,0l-.182,1.286s.869,0,1.953,0c1.663,0,2.646-.833,2.646-2.066,0-1.875-2.52-1.711-2.52-2.517,0-.277.29-.44.919-.44.705,0,1.686-.005,1.686-.005l.185-1.265h-1.744Zm-13.071,0h0c-1.424,0-2.57.645-2.57,1.89,0,1.825,2.507,1.6,2.507,2.529,0,.528-.528.59-.982.591-.982,0-1.894,0-1.894,0l-.186,1.286,1.955,0c1.663,0,2.646-.832,2.646-2.065,0-1.875-2.52-1.711-2.52-2.517,0-.277.29-.441.919-.441.705,0,1.686,0,1.686,0l.185-1.266s-.776,0-1.744,0Zm23.271,0h0c-1.424,0-2.57.641-2.57,1.887,0,1.825,2.508,1.6,2.508,2.529,0,.528-.528.591-.982.591-.982,0-1.894,0-1.894,0l-.188,1.286,1.958,0c1.664,0,2.646-.832,2.646-2.065,0-1.875-2.52-1.711-2.52-2.517,0-.277.29-.44.919-.44.705,0,1.686-.005,1.686-.005l.185-1.265h-1.745Zm-3.882,0-1.9,3.976-.781-3.976H266.2l1.335,5.927-1.323,2.629h1.5l4.322-8.556Zm-24.037,2.189-.3,2.114a.975.975,0,0,1-1.033.7c-.466,0-.793-.226-.793-.616a3.789,3.789,0,0,1,.05-.5l.29-1.9a.932.932,0,0,1,1.021-.717c.454,0,.794.239.794.616a2.748,2.748,0,0,1-.025.3h0Zm.454-2.189-.126.49a1.738,1.738,0,0,0-1.272-.493,2.3,2.3,0,0,0-2.318,2.041l-.315,2.215a3.211,3.211,0,0,0-.025.34,1.637,1.637,0,0,0,1.789,1.7,2.009,2.009,0,0,0,1.4-.516l-.025.516h1.335l.895-6.292h-1.335Zm8.323,4.668a3.734,3.734,0,0,1,.038-.378l.428-3.019h1.179l.189-1.271h-1.178l.188-1.372h-1.474L254.38,65.3h-1.146l-.189,1.271h1.147l-.441,3.158a4.9,4.9,0,0,0-.05.528c0,.906.529,1.335,1.813,1.335.958,0,1.01,0,1.01,0L256.7,70.3h-.768c-.592,0-.73-.1-.73-.34Z" transform="translate(-213.902 -57.353)" fill="#3d516e"/>
    </g>
  </g>
</svg>
