<svg xmlns="http://www.w3.org/2000/svg" width="350" height="200" viewBox="0 0 350 200"><g transform="translate(-190 -242)"><path fill="#fff7f7" d="M190 242h350v200H190z"/><g transform="translate(320 294)"><path fill="#c22133" d="M83.8 18.52a36 36 0 0 0-3.1-5.25l-12.68 4.62a24 24 0 0 1 3.73 5.03ZM27.7 32.57 15 37.18a37 37 0 0 0 1.01 6.02l12.06-4.39a24 24 0 0 1-.37-6.25"/><path fill="#db212e" d="M55.88 14.93a24 24 0 0 1 6.86 4.88l12.69-4.62a36.28 36.28 0 0 0-65.7 23.92l12.7-4.62a23.52 23.52 0 0 1 33.45-19.56m13.54 23.2a23 23 0 0 1-2.13 8.15 23.6 23.6 0 0 1-31.35 11.4 23 23 0 0 1-6.87-4.87L16.4 57.4a36 36 0 0 0 14.16 11.8 36.35 36.35 0 0 0 48.26-17.56 36 36 0 0 0 3.26-18.13z"/><path fill="#eb2126" d="m72.54 22.63-12.07 4.39a23.7 23.7 0 0 1 2.96 13.28l12.66-4.6a37 37 0 0 0-3.56-13.07M16.8 42.9 4.74 47.3a37 37 0 0 0 5.67 12.29l12.67-4.61A23.7 23.7 0 0 1 16.8 42.9"/><path fill="#ad213b" d="M81.97 15.18q-.6-.96-1.26-1.9l-12.7 4.61a23 23 0 0 1 1.57 1.8ZM27.65 35.11a23 23 0 0 1 .05-2.55L15 37.18q.1 1.22.3 2.43z"/><path fill="#ba2133" d="m82.08 33.52-12.66 4.6a23 23 0 0 1-1.07 5.45l13.78-5.02a36 36 0 0 0-.05-5.04M16.4 57.41a36 36 0 0 0 3.23 3.93l13.79-5.03a23 23 0 0 1-4.35-3.5Z"/><path fill="#241f21" d="M81.43 84.28v1.15h3.32v10.12H86V85.42h3.32v-1.14Zm-7.62 1.15v3.73h3.09v1.15h-3.09v5.24h-1.25V84.29h6.62v1.15zm-5.74-1.15h1.25v11.27h-1.25Zm-4.5 11.27v-5.31h-5.6v5.31h-1.25V84.28h1.26v4.82h5.6v-4.82h1.25v11.27Zm-13.38.18a5.4 5.4 0 0 1-3.79-1.56l.84-.94a4.3 4.3 0 0 0 3 1.35c1.5 0 2.42-.74 2.42-1.93 0-1.05-.62-1.64-2.68-2.39-2.44-.86-3.26-1.65-3.26-3.28 0-1.8 1.42-2.88 3.53-2.88a5 5 0 0 1 3.43 1.2l-.8.99a4 4 0 0 0-2.7-1.05c-1.55 0-2.2.77-2.2 1.66 0 .93.42 1.46 2.68 2.27 2.5.9 3.27 1.74 3.27 3.42 0 1.77-1.39 3.13-3.74 3.13m-8.87-.17-4.14-6.15c-.28-.42-.65-.99-.8-1.28 0 .42.04 1.84.04 2.47v4.96H34.2V84.28h2.16l4 5.96c.27.42.64.98.79 1.27l-.03-2.46v-4.77h2.22v11.27zm-17.78 0V84.28h7.83v2.2h-5.58v1.95h3.24v2.2h-3.24v2.71h5.81v2.21Zm-6.4-4h-2.48v4H12.4V84.28h4.93c2.12 0 3.88 1.18 3.88 3.58 0 2.6-1.74 3.7-4.08 3.7m.12-5.09h-2.6v2.9h2.63q1.58 0 1.6-1.46c.03-1.46-.64-1.43-1.63-1.43M4.96 95.73c-2.95 0-4.96-2.16-4.96-5.8s2.05-5.83 5-5.83c2.93 0 4.94 2.16 4.94 5.8s-2.05 5.83-4.98 5.83m-.01-9.4c-1.58 0-2.63 1.28-2.63 3.57s1.1 3.59 2.68 3.59 2.62-1.27 2.62-3.56-1.1-3.6-2.67-3.6"/></g></g></svg>