<svg xmlns="http://www.w3.org/2000/svg" width="350" height="200" viewBox="0 0 350 200"><g transform="translate(-190 -242)"><path fill="rgba(215,199,222,0.14)" d="M190 242h350v200H190z"/><g transform="translate(2)"><g transform="translate(415.777 316)"><rect width="82.593" height="52.719" fill="#195f8c" rx="7"/><path fill="none" stroke="#ffe26a" stroke-width="9" d="M30.75 0v52.72M82.6 26.36H0"/></g><g transform="translate(-29 -37)"><g transform="translate(269.622 352.816)"><path fill="#804998" fill-rule="evenodd" d="m34.24 13.81-11.51 4.41V0l11.5 3.97ZM12.41 3.09v11.9l8.52 3.23V.15Zm.9 11.02-.45-.15V4.12l.45-.15.45-.15.45-.14V14.4l-.45-.14Zm2.24.59-.6-.15V3.53l.6-.15.6-.15.6-.14v12.05l-.6-.15Zm2.7.88-.75-.3V2.78l.74-.13.75-.3.9-.3v13.97l-.9-.3ZM61 13.81l-11.51 4.41V0l11.5 3.97ZM39.17 3.09v11.9l8.52 3.23V.15Zm.9 11.02-.45-.15V4.12l.45-.15.45-.15.45-.14V14.4l-.45-.14Zm2.24.59-.6-.15V3.53l.6-.15.6-.15.6-.14v12.05l-.6-.15Zm2.7.88-.75-.3V2.78l.74-.13.75-.3.9-.3v13.97l-.9-.3ZM34.24 49.96l-11.51 4.4v-18.2l11.5 3.97ZM12.41 39.23v11.9l8.52 3.23V36.3Zm.9 11.02-.45-.15v-9.84l.45-.15.45-.15.45-.14v10.72l-.45-.14Zm2.24.6-.6-.16V39.67l.6-.15.6-.14.6-.15v12.05l-.6-.15Zm2.7.87-.75-.3V38.93l.74-.14.75-.3.9-.3v13.97l-.9-.3ZM61 49.96l-11.51 4.4v-18.2l11.5 3.97ZM39.17 39.23v11.9l8.52 3.23V36.3Zm.9 11.02-.45-.15v-9.84l.45-.15.45-.15.45-.14v10.72l-.45-.14Zm2.24.6-.6-.16V39.67l.6-.15.6-.14.6-.15v12.05l-.6-.15Zm2.7.87-.75-.3V38.93l.74-.14.75-.3.9-.3v13.97l-.9-.3Zm3.43-19.84-11.36 4.26V18.07l11.36 3.97ZM26.61 21.01v11.9l8.52 3.23V18.07Zm.9 11.02-.45-.15v-9.84l.45-.15.45-.15.45-.14v10.72l-.45-.14Zm2.24.73-.6-.14V21.6l.6-.15.6-.15.6-.14v12.05l-.6-.15Zm2.7.88-.75-.29V20.87l.74-.15.75-.29.9-.3V34.1l-.9-.3Zm-10.62-1.76-11.36 4.26V18.07l11.36 3.97ZM0 21.01v11.9l8.52 3.23V18.07Zm.9 11.02-.45-.15v-9.84l.45-.15.45-.15.45-.14v10.72l-.45-.14Zm2.24.73-.6-.14V21.6l.6-.15.6-.15.6-.14v12.05l-.6-.15Zm2.7.88-.75-.29V20.87l.74-.15.75-.29.9-.3V34.1l-.9-.3Zm68.91-1.76L63.4 36.14V18.07l11.36 3.97Z"/><path fill="#fff" fill-rule="evenodd" d="m34.24 13.81-11.51 4.41V0l11.5 3.97Zm26.76 0-11.51 4.41V0l11.5 3.97ZM34.24 49.96l-11.51 4.4v-18.2l11.5 3.97Zm26.76 0-11.51 4.4v-18.2l11.5 3.97ZM48.44 31.88l-11.36 4.26V18.07l11.36 3.97Zm-26.61 0-11.36 4.26V18.07l11.36 3.97Zm52.92 0L63.4 36.14V18.07l11.36 3.97Z" opacity="0.2"/><path fill="#804998" fill-rule="evenodd" d="M52.93 21.01v11.9l8.52 3.23V18.07Zm.9 11.02-.45-.15v-9.84l.45-.15.45-.15.45-.14v10.72l-.45-.14Zm2.24.73-.6-.14V21.6l.6-.15.6-.15.6-.14v12.05l-.6-.15Zm2.7.88-.75-.29V20.87l.74-.15.75-.29.9-.3V34.1l-.9-.3Z"/></g><circle cx="49.5" cy="49.5" r="49.5" fill="rgba(154,109,173,0.35)" transform="translate(257 330)"/></g><path fill="none" stroke="#c3c3c3" stroke-linecap="square" stroke-width="17" d="M352.5 342.5h26"/><g fill="#c3c3c3" transform="rotate(90 41.5 357.5)"><path d="M50.9 32.2H2.1q-.31 0-.45-.28a.5.5 0 0 1 .06-.53L26.1 1.27a.5.5 0 0 1 .78 0l24.4 30.12q.2.24.06.53a.5.5 0 0 1-.45.28"/><path d="M26.5 1.59 2.1 31.7h48.8zm0-1a1 1 0 0 1 .78.37l24.4 30.11a1 1 0 0 1-.78 1.63H2.1a1 1 0 0 1-.78-1.63L25.72.96a1 1 0 0 1 .78-.37"/></g></g></g></svg>