<svg xmlns="http://www.w3.org/2000/svg" width="347" height="247" viewBox="0 0 347 247"><defs><style>.a,.b{fill:#326de6}.a{opacity:.1}.c{fill:#fff}</style></defs><g transform="translate(123.339 74.562)"><path d="M-123.34-74.56h347v247h-347z" class="a"/><path d="M91.95 21.66a7.5 7.5 0 0 0-3.68-4.26L53.12.58A6.5 6.5 0 0 0 50.24 0a12 12 0 0 0-2.88.23L12.2 17.17a6.2 6.2 0 0 0-3.46 4.26L.11 59.35a7.3 7.3 0 0 0 1.27 5.53l24.31 30.07a8.4 8.4 0 0 0 5.3 2.42h38.72a5.7 5.7 0 0 0 5.3-2.42l24.32-30.07a8 8 0 0 0 1.38-5.53z" class="b"/><path d="M86.54 57.85c-.12 0-.23 0-.23-.12s-.23-.11-.46-.11a6 6 0 0 0-1.39-.12 1.5 1.5 0 0 1-.69-.11h-.11a23 23 0 0 1-3.92-.7 1.4 1.4 0 0 1-.8-.8l-.93-.23a30 30 0 0 0-.46-10.14 31 31 0 0 0-4.03-9.45l.69-.7v-.1a1.6 1.6 0 0 1 .34-1.04 21 21 0 0 1 3.23-2.3l.7-.35c.45-.23.8-.46 1.26-.7.11-.1.23-.1.35-.22s0-.12 0-.23a2.25 2.25 0 0 0 .46-3.23 2.2 2.2 0 0 0-1.62-.8 3 3 0 0 0-1.61.57l-.11.12c-.12.11-.23.23-.35.23a8 8 0 0 0-.92 1.03c-.12.23-.35.35-.46.46a15 15 0 0 1-2.89 2.53 2 2 0 0 1-.69.23.7.7 0 0 1-.46-.11h-.11l-.93.57c-.92-.92-1.95-1.84-2.88-2.76a29.5 29.5 0 0 0-14.98-6l-.11-.92v.12a1.6 1.6 0 0 1-.58-.92 23 23 0 0 1 .23-3.92v-.12c0-.23.12-.46.12-.69.11-.46.11-.92.23-1.38v-.7a2.3 2.3 0 0 0-1.96-2.41 2.3 2.3 0 0 0-1.96.8 2.3 2.3 0 0 0-.7 1.62v.58a6 6 0 0 0 .24 1.38 1.5 1.5 0 0 1 .11.7v.1a22 22 0 0 1 .23 3.92 1.6 1.6 0 0 1-.57.93v.23l-.12.92c-1.27.11-2.53.34-3.92.57a27.5 27.5 0 0 0-14.17 8.07l-.69-.46h-.12c-.11 0-.23.11-.46.11a2 2 0 0 1-.69-.23 21 21 0 0 1-2.88-2.65c-.11-.23-.34-.34-.46-.46-.35-.34-.58-.69-.92-1.03-.12-.12-.23-.12-.35-.23l-.11-.12a3 3 0 0 0-1.62-.57 1.7 1.7 0 0 0-1.6.8 2.5 2.5 0 0 0 .45 3.23.1.1 0 0 1 .12.11s.23.23.34.23a13 13 0 0 0 1.27.7l.7.34a16 16 0 0 1 3.22 2.3 1.2 1.2 0 0 1 .35 1.04v-.12l.69.7c-.12.22-.23.34-.35.57a27.4 27.4 0 0 0-4.03 18.9l-.92.23a.1.1 0 0 1-.12.11 2 2 0 0 1-.8.81 21 21 0 0 1-3.92.7 1.5 1.5 0 0 0-.7.1c-.46 0-.92.12-1.38.12-.11 0-.23.12-.46.12-.11 0-.11 0-.23.11a2.25 2.25 0 0 0-1.85 2.66 2.14 2.14 0 0 0 2.3 1.61 1 1 0 0 0 .58-.11c.11 0 .11 0 .11-.12s.35 0 .47 0c.46-.11.92-.35 1.26-.46a2 2 0 0 1 .7-.23h.11a21 21 0 0 1 3.8-1.04h.11a1.3 1.3 0 0 1 .93.35.1.1 0 0 1 .11.11l1.04-.11a28 28 0 0 0 9.45 13.48 18 18 0 0 0 3.12 2.08l-.58.8a.1.1 0 0 0 .12.11 1.4 1.4 0 0 1 .11 1.15A19 19 0 0 1 34 81.24v.12a2 2 0 0 1-.46.57c-.23.23-.46.7-.8 1.15-.12.12-.12.23-.23.35a.1.1 0 0 1-.12.11 2.37 2.37 0 0 0 .92 3.11 2 2 0 0 0 .81.23 2.6 2.6 0 0 0 2.18-1.38.1.1 0 0 1 .12-.11c0-.12.11-.23.23-.35.11-.46.35-.8.46-1.27l.23-.69a20 20 0 0 1 1.5-3.57 2 2 0 0 1 .92-.69c.12 0 .12 0 .12-.11l.46-.93a27 27 0 0 0 10.02 1.85 23 23 0 0 0 6.23-.81 34 34 0 0 0 3.68-1.04l.46.81c.12 0 .12 0 .12.11a2 2 0 0 1 .92.7 20 20 0 0 1 1.5 3.57v.11l.23.7a4 4 0 0 0 .46 1.26c.12.12.12.23.23.35a.1.1 0 0 0 .12.11 2.6 2.6 0 0 0 2.19 1.39 3 3 0 0 0 .92-.23 2 2 0 0 0 1.04-1.27 3 3 0 0 0-.12-1.73.1.1 0 0 0-.11-.12c0-.11-.12-.23-.23-.34a4 4 0 0 0-.81-1.15 2 2 0 0 0-.46-.58v-.23a14 14 0 0 1-1.85-3.34 1.4 1.4 0 0 1 .12-1.15.1.1 0 0 1 .11-.12l-.34-.93A28.5 28.5 0 0 0 77.2 60.05l.93.11a.1.1 0 0 0 .11-.11 1.3 1.3 0 0 1 .92-.35h.12a19 19 0 0 1 3.68 1.04h.12a2 2 0 0 0 .7.23 6 6 0 0 0 1.26.57c.11 0 .23.12.46.12.11 0 .11 0 .23.11a1 1 0 0 0 .58.12 2.5 2.5 0 0 0 2.3-1.61 2.7 2.7 0 0 0-2.08-2.42Zm-33.3-3.57-3.11 1.5-3.12-1.5-.8-3.35 2.18-2.76h3.46l2.19 2.76Zm18.78-7.5a22 22 0 0 1 .46 7.26l-10.95-3.1a1.9 1.9 0 0 1-1.38-2.31 2 2 0 0 1 .46-.81l8.64-7.84a23 23 0 0 1 2.77 6.8m-6.23-11.05-9.45 6.68a1.96 1.96 0 0 1-2.53-.46 1 1 0 0 1-.35-.8l-.69-11.65a21.7 21.7 0 0 1 13.02 6.23m-20.85-5.88 2.3-.47-.58 11.53a1.9 1.9 0 0 1-1.96 1.84 3 3 0 0 1-.92-.23l-9.56-6.8a23 23 0 0 1 10.71-5.88ZM30.88 39.99l8.53 7.6a1.85 1.85 0 0 1 .23 2.65 1.3 1.3 0 0 1-.93.58l-11.17 3.22A24.3 24.3 0 0 1 30.88 40m-1.96 19.47 11.4-1.96A1.9 1.9 0 0 1 42.3 59a1.4 1.4 0 0 1-.12 1.15l-4.38 10.6a22.7 22.7 0 0 1-8.87-11.29m26.16 14.29a23 23 0 0 1-4.96.57 26 26 0 0 1-7.26-1.15l5.65-10.25a1.8 1.8 0 0 1 2.3-.46 6 6 0 0 1 .92.8l5.53 10.03a19 19 0 0 0-2.18.46m14.06-10.02a22 22 0 0 1-6.92 6.91l-4.5-10.83a1.9 1.9 0 0 1 1.05-2.2 3 3 0 0 1 1.03-.22l11.53 1.96a17 17 0 0 1-2.2 4.38" class="c"/></g></svg>