<svg xmlns="http://www.w3.org/2000/svg" xmlns:xlink="http://www.w3.org/1999/xlink" width="700" height="400" viewBox="0 0 700 400">
  <defs>
    <radialGradient id="radial-gradient" cx="0.5" cy="0.5" r="0.5" gradientUnits="objectBoundingBox">
      <stop offset="0" stop-color="#fff"/>
      <stop offset="1" stop-color="#e1eaef"/>
    </radialGradient>
    <clipPath id="clip-safespring-iso">
      <rect width="700" height="400"/>
    </clipPath>
  </defs>
  <g id="safespring-iso" clip-path="url(#clip-safespring-iso)">
    <rect width="700" height="400" fill="url(#radial-gradient)"/>
    <g id="Resurs_1" data-name="Resurs 1" transform="translate(108.715 119.342)">
      <g id="Lager_1" data-name="Lager 1" transform="translate(0.36 0.35)">
        <rect id="Rectangle_10" data-name="Rectangle 10" width="160.617" height="481.85" transform="translate(0 160.617) rotate(-90)" fill="#fff" stroke="#1d1d1b" stroke-miterlimit="2.61" stroke-width="0.72"/>
      </g>
      <g id="Loggo" transform="translate(34.327 24.246)">
        <g id="Group_10" data-name="Group 10" transform="translate(329.541)">
          <rect id="Rectangle_11" data-name="Rectangle 11" width="13.176" height="13.176" transform="translate(69.772 37.827)" fill="#1d1d1b"/>
          <path id="Path_81" data-name="Path 81" d="M508.516,55.075c2.576,0,4.5-.574,5.795-1.715s1.934-3.007,1.934-5.575-.642-4.276-1.934-5.4-3.218-1.677-5.795-1.677h-12.3V55.075Zm4-23.1a16.415,16.415,0,0,1,6.187,1.111,14.34,14.34,0,0,1,4.722,3.037,13.345,13.345,0,0,1,3.007,4.465,14.386,14.386,0,0,1,1.035,5.47,15.4,15.4,0,0,1-1.9,7.8,11.879,11.879,0,0,1-6.187,5V59a8.717,8.717,0,0,1,3.43,1.753,9.581,9.581,0,0,1,2.214,2.788,13,13,0,0,1,1.254,3.536,30.791,30.791,0,0,1,.536,3.861c.045.816.1,1.768.144,2.863s.128,2.214.249,3.362a22.648,22.648,0,0,0,.574,3.256,7.528,7.528,0,0,0,1.179,2.606H517.74a19.781,19.781,0,0,1-1.148-5.795q-.215-3.354-.642-6.437a10.173,10.173,0,0,0-2.433-5.863q-1.859-1.858-6.074-1.858H496.217V83.028H484.99V31.98h27.53Z" transform="translate(-482.366 -31.98)" fill="#1d1d1b"/>
          <rect id="Rectangle_12" data-name="Rectangle 12" width="11.227" height="51.048" transform="translate(51.889)" fill="#1d1d1b"/>
          <path id="Path_82" data-name="Path 82" d="M493.335,142.1a8.084,8.084,0,0,0,2.463,2.894,10.63,10.63,0,0,0,3.611,1.647,17.169,17.169,0,0,0,4.291.536,22.545,22.545,0,0,0,3.218-.249,11.273,11.273,0,0,0,3.218-.967,6.98,6.98,0,0,0,2.5-1.964,4.942,4.942,0,0,0,1-3.181,4.478,4.478,0,0,0-1.322-3.362,10.643,10.643,0,0,0-3.468-2.146,34.422,34.422,0,0,0-4.865-1.5q-2.72-.646-5.508-1.428a48.25,48.25,0,0,1-5.576-1.753,19.16,19.16,0,0,1-4.865-2.682,12.638,12.638,0,0,1-3.468-4.11,12.461,12.461,0,0,1-1.322-5.968,13.329,13.329,0,0,1,1.685-6.83,15.2,15.2,0,0,1,4.4-4.828,19.233,19.233,0,0,1,6.15-2.863,26.189,26.189,0,0,1,6.867-.929,32.419,32.419,0,0,1,7.683.891,19.255,19.255,0,0,1,6.543,2.894,14.65,14.65,0,0,1,4.54,5.115,15.713,15.713,0,0,1,1.685,7.547H511.92a8.978,8.978,0,0,0-.967-3.785,6.266,6.266,0,0,0-2.183-2.357,9.241,9.241,0,0,0-3.113-1.216,18.9,18.9,0,0,0-3.823-.355,13.309,13.309,0,0,0-2.72.287,7.03,7.03,0,0,0-2.463,1,6.142,6.142,0,0,0-1.821,1.791,4.79,4.79,0,0,0-.718,2.72,4.566,4.566,0,0,0,.574,2.433,5.116,5.116,0,0,0,2.251,1.715,27.942,27.942,0,0,0,4.646,1.571q2.969.782,7.759,2,1.428.283,3.966,1.035a18.991,18.991,0,0,1,5.039,2.395,15.213,15.213,0,0,1,4.329,4.4,12.515,12.515,0,0,1,1.821,7.041,15.582,15.582,0,0,1-1.36,6.5,14.088,14.088,0,0,1-4.042,5.183,19.348,19.348,0,0,1-6.648,3.392,31.506,31.506,0,0,1-9.187,1.216,32.487,32.487,0,0,1-8.189-1.035,20.7,20.7,0,0,1-7.011-3.256,16.065,16.065,0,0,1-4.828-5.651,16.859,16.859,0,0,1-1.715-8.152h10.871a9.343,9.343,0,0,0,.929,4.359" transform="translate(-481.517 -49.201)" fill="#1d1d1b"/>
          <path id="Path_83" data-name="Path 83" d="M579.546,104.02v9.444H554.517V124.4h23.511v8.718H554.517V145.64h25v9.436H543.29V104.02Z" transform="translate(-496.621 -49.595)" fill="#1d1d1b"/>
        </g>
        <g id="Group_12" data-name="Group 12">
          <g id="Group_11" data-name="Group 11" transform="translate(0 52.801)">
            <path id="Path_84" data-name="Path 84" d="M76.083,109.191a36.506,36.506,0,0,0-14.3-3.468c-4.238,0-7.668,2.395-7.668,7.479,0,11.876,25.966,10.8,25.966,27.3,0,11.03-9.028,15.193-20.058,15.193a62.125,62.125,0,0,1-13.984-2v-6.248c2.478,1.383,8.869,4.631,15.261,4.631,5.039,0,9.988-2.01,9.988-9.028,0-12.488-25.966-11.332-25.966-27.613,0-8.484,7-13.569,18.275-13.569a61.966,61.966,0,0,1,12.5,1.617v5.7Z" transform="translate(-45.32 -101.87)" fill="#fff" stroke="#134294" stroke-width="0.11"/>
            <path id="Path_85" data-name="Path 85" d="M76.083,109.191a36.506,36.506,0,0,0-14.3-3.468c-4.238,0-7.668,2.395-7.668,7.479,0,11.876,25.966,10.8,25.966,27.3,0,11.03-9.028,15.193-20.058,15.193a62.125,62.125,0,0,1-13.984-2v-6.248c2.478,1.383,8.869,4.631,15.261,4.631,5.039,0,9.988-2.01,9.988-9.028,0-12.488-25.966-11.332-25.966-27.613,0-8.484,7-13.569,18.275-13.569a61.966,61.966,0,0,1,12.5,1.617v5.7Z" transform="translate(-45.32 -101.87)" fill="#1d1d1b"/>
          </g>
          <path id="Path_86" data-name="Path 86" d="M108.539,57.874l-4.722,19.038h-27.6L71.49,57.874l10.494,11.71L90.015,57.02l8.031,12.564,10.494-11.71" transform="translate(-51.719 -38.103)" fill="#1d1d1b"/>
          <path id="Path_87" data-name="Path 87" d="M99.21,155.064V103.479a110.775,110.775,0,0,1,15.488-1.624c7.094-.151,11.521.733,15.155,3.725a14.443,14.443,0,0,1,5.228,11.687c-.355,10.864-9.4,16.734-23.9,15.9v-4.45c10.7,1.2,15.253-3.483,15.374-11.521.106-6.6-3.672-12.065-11.831-11.665-6.1.3-6.55,1.6-6.588,3.966v45.563Z" transform="translate(-58.497 -49.061)" fill="#1d1d1b"/>
          <path id="Path_88" data-name="Path 88" d="M78.846,32.687l-3.83,15.42H52.66l-3.83-15.42,8.5,9.489L63.842,32l6.5,10.176,8.5-9.489" transform="translate(-46.178 -31.985)" fill="#1d1d1b"/>
          <path id="Path_89" data-name="Path 89" d="M133.586,32.667l-3.838,15.427H107.393L103.57,32.667l8.5,9.489,6.5-10.176,6.5,10.176,8.507-9.489" transform="translate(-59.563 -31.98)" fill="#1d1d1b"/>
        </g>
      </g>
      <g id="Text" transform="translate(168.524 34.226)">
        <g id="Group_13" data-name="Group 13">
          <path id="Path_90" data-name="Path 90" d="M250.147,59.469a.644.644,0,0,1,.484.219l1.352,1.466a7.481,7.481,0,0,1-2.758,2.13,9.518,9.518,0,0,1-3.929.74,9.246,9.246,0,0,1-3.687-.7,8.171,8.171,0,0,1-2.8-1.949,8.5,8.5,0,0,1-1.775-2.984,11.113,11.113,0,0,1-.62-3.785,10.18,10.18,0,0,1,.688-3.8,8.556,8.556,0,0,1,4.926-4.918,10.3,10.3,0,0,1,3.838-.7,8.978,8.978,0,0,1,3.589.657,8.438,8.438,0,0,1,2.629,1.738l-1.148,1.594a1.1,1.1,0,0,1-.264.264.737.737,0,0,1-.438.113,1.019,1.019,0,0,1-.6-.227,7.919,7.919,0,0,0-.778-.5,6.043,6.043,0,0,0-1.194-.5,6.208,6.208,0,0,0-1.828-.227,6.138,6.138,0,0,0-2.387.453,5.337,5.337,0,0,0-1.874,1.292,5.936,5.936,0,0,0-1.224,2.047,7.813,7.813,0,0,0-.438,2.7,8.2,8.2,0,0,0,.438,2.765,6.013,6.013,0,0,0,1.194,2.04,5.08,5.08,0,0,0,1.768,1.269,5.457,5.457,0,0,0,2.191.438,9.249,9.249,0,0,0,1.269-.076,5.272,5.272,0,0,0,1.043-.242,4.528,4.528,0,0,0,.907-.431,5.323,5.323,0,0,0,.846-.642,1.178,1.178,0,0,1,.264-.181.682.682,0,0,1,.3-.068Z" transform="translate(-226.244 -45.19)" fill="#1d1d1b"/>
          <path id="Path_91" data-name="Path 91" d="M272.059,45.45v2.727h-8.167v5.107h6.437v2.637h-6.437v5.213h8.167v2.742H260.44V45.45Z" transform="translate(-232.117 -45.254)" fill="#1d1d1b"/>
          <path id="Path_92" data-name="Path 92" d="M283.33,56.677v7.2H279.9V45.45h5.621a11.889,11.889,0,0,1,3.234.385,6.09,6.09,0,0,1,2.206,1.088,4.184,4.184,0,0,1,1.262,1.677,5.9,5.9,0,0,1,.128,3.906,5.031,5.031,0,0,1-.793,1.5A5.334,5.334,0,0,1,290.28,55.2a6.651,6.651,0,0,1-1.73.816,3.377,3.377,0,0,1,1.118,1.058l4.616,6.807H291.2a1.472,1.472,0,0,1-.755-.181,1.536,1.536,0,0,1-.529-.506l-3.876-5.9a1.332,1.332,0,0,0-.476-.468,1.7,1.7,0,0,0-.771-.144H283.33Zm0-2.455h2.138a5.358,5.358,0,0,0,1.685-.242,3.169,3.169,0,0,0,1.186-.672,2.672,2.672,0,0,0,.7-1.012,3.529,3.529,0,0,0,.227-1.284,2.62,2.62,0,0,0-.922-2.153,4.446,4.446,0,0,0-2.826-.748h-2.191v6.112Z" transform="translate(-236.875 -45.254)" fill="#1d1d1b"/>
          <path id="Path_93" data-name="Path 93" d="M313.383,45.45v2.818h-5.545V63.876h-3.43V48.268H298.84V45.45h14.536Z" transform="translate(-241.506 -45.254)" fill="#1d1d1b"/>
          <path id="Path_94" data-name="Path 94" d="M324.967,63.876H321.53V45.45h3.437Z" transform="translate(-247.054 -45.254)" fill="#1d1d1b"/>
          <path id="Path_95" data-name="Path 95" d="M343.179,45.45v2.727h-8.167v5.455h6.89v2.742h-6.89v7.5H331.56V45.45h11.619Z" transform="translate(-249.506 -45.254)" fill="#1d1d1b"/>
          <path id="Path_96" data-name="Path 96" d="M354.5,63.876H351.06V45.45H354.5Z" transform="translate(-254.274 -45.254)" fill="#1d1d1b"/>
          <path id="Path_97" data-name="Path 97" d="M372.709,45.45v2.727h-8.167v5.107h6.437v2.637h-6.437v5.213h8.167v2.742H361.09V45.45Z" transform="translate(-256.727 -45.254)" fill="#1d1d1b"/>
          <path id="Path_98" data-name="Path 98" d="M396.766,54.665a10.012,10.012,0,0,1-.672,3.717,8.543,8.543,0,0,1-1.9,2.916,8.421,8.421,0,0,1-2.946,1.9,10.285,10.285,0,0,1-3.808.672H380.41V45.44h7.034a10.286,10.286,0,0,1,3.808.68,8.64,8.64,0,0,1,2.946,1.9,8.4,8.4,0,0,1,1.9,2.909,10.04,10.04,0,0,1,.672,3.717Zm-3.505,0a8.433,8.433,0,0,0-.408-2.72A5.845,5.845,0,0,0,391.7,49.9a4.907,4.907,0,0,0-1.828-1.277,6.334,6.334,0,0,0-2.425-.446h-3.581V61.154h3.581a6.334,6.334,0,0,0,2.425-.446,4.925,4.925,0,0,0,1.828-1.284,5.845,5.845,0,0,0,1.156-2.04,8.433,8.433,0,0,0,.408-2.72Z" transform="translate(-261.451 -45.251)" fill="#1d1d1b"/>
          <path id="Path_99" data-name="Path 99" d="M245.53,99.93h-2.47V81.67h2.47Z" transform="translate(-227.867 -54.11)" fill="#1d1d1b"/>
          <path id="Path_100" data-name="Path 100" d="M261.681,84.467a.948.948,0,0,1-.242.287.56.56,0,0,1-.332.1.866.866,0,0,1-.506-.219,7.143,7.143,0,0,0-.725-.476,5.8,5.8,0,0,0-1.058-.476,5.113,5.113,0,0,0-2.962,0,3.167,3.167,0,0,0-1.065.6,2.432,2.432,0,0,0-.642.9,2.893,2.893,0,0,0-.219,1.118,2.09,2.09,0,0,0,.378,1.269,3.194,3.194,0,0,0,1,.861,7.3,7.3,0,0,0,1.405.619c.521.174,1.058.355,1.6.544s1.08.4,1.6.627a5.422,5.422,0,0,1,1.4.884,4.043,4.043,0,0,1,1,1.315,4.291,4.291,0,0,1,.378,1.911,6.171,6.171,0,0,1-.408,2.251,5.22,5.22,0,0,1-1.194,1.828,5.466,5.466,0,0,1-1.926,1.224,7.14,7.14,0,0,1-2.591.446,7.92,7.92,0,0,1-3.233-.642A7.546,7.546,0,0,1,250.84,97.7l.71-1.171a.921.921,0,0,1,.249-.234.608.608,0,0,1,.325-.1,1.015,1.015,0,0,1,.612.287,9.258,9.258,0,0,0,.861.627,6.839,6.839,0,0,0,1.247.627,4.969,4.969,0,0,0,1.791.287,4.721,4.721,0,0,0,1.564-.242,3.221,3.221,0,0,0,1.163-.68,3.028,3.028,0,0,0,.733-1.05,3.436,3.436,0,0,0,.257-1.36,2.313,2.313,0,0,0-.378-1.36,3.032,3.032,0,0,0-.99-.884,7.207,7.207,0,0,0-1.4-.6c-.521-.166-1.058-.332-1.6-.506a16.254,16.254,0,0,1-1.6-.6,5.249,5.249,0,0,1-1.4-.891,4.086,4.086,0,0,1-.99-1.367,5.23,5.23,0,0,1,0-3.906,4.711,4.711,0,0,1,1.088-1.6,5.242,5.242,0,0,1,1.768-1.118,6.483,6.483,0,0,1,2.418-.423,7.659,7.659,0,0,1,2.788.484,6.476,6.476,0,0,1,2.206,1.405l-.6,1.171Z" transform="translate(-229.769 -54.051)" fill="#1d1d1b"/>
          <path id="Path_101" data-name="Path 101" d="M287.3,90.748a10.574,10.574,0,0,1-.65,3.762,8.534,8.534,0,0,1-1.836,2.946,8.207,8.207,0,0,1-2.848,1.919,10.274,10.274,0,0,1-7.351,0,8.177,8.177,0,0,1-2.841-1.919,8.648,8.648,0,0,1-1.836-2.946,11.219,11.219,0,0,1,0-7.525,8.567,8.567,0,0,1,1.836-2.954,8.285,8.285,0,0,1,2.841-1.934,10.168,10.168,0,0,1,7.351,0,8.244,8.244,0,0,1,2.848,1.934,8.754,8.754,0,0,1,1.836,2.954A10.574,10.574,0,0,1,287.3,90.748Zm-2.531,0a9.2,9.2,0,0,0-.461-3.022,6.314,6.314,0,0,0-1.3-2.259,5.671,5.671,0,0,0-2.04-1.42,6.913,6.913,0,0,0-2.674-.5,6.809,6.809,0,0,0-2.659.5,5.834,5.834,0,0,0-2.047,1.42,6.393,6.393,0,0,0-1.307,2.259,9.368,9.368,0,0,0-.461,3.022,9.121,9.121,0,0,0,.461,3.014,6.393,6.393,0,0,0,1.307,2.259,5.563,5.563,0,0,0,2.047,1.413,7,7,0,0,0,2.659.491,7.083,7.083,0,0,0,2.674-.491,5.562,5.562,0,0,0,2.04-1.413,6.314,6.314,0,0,0,1.3-2.259A9.321,9.321,0,0,0,284.77,90.748Z" transform="translate(-234.281 -54.046)" fill="#1d1d1b"/>
          <path id="Path_102" data-name="Path 102" d="M309.278,81.41a6.557,6.557,0,0,1,2.168.348,4.987,4.987,0,0,1,1.738,1,4.619,4.619,0,0,1,1.156,1.6,5.242,5.242,0,0,1,.423,2.138,5.66,5.66,0,0,1-.3,1.889,7.6,7.6,0,0,1-.831,1.662,12.494,12.494,0,0,1-1.2,1.541c-.453.5-.937,1-1.443,1.526l-4.8,4.918a9.316,9.316,0,0,1,1.035-.219,6.672,6.672,0,0,1,1-.083h6.119a.811.811,0,0,1,.589.219.763.763,0,0,1,.219.559v1.375H302.97V99.1a1.359,1.359,0,0,1,.1-.5,1.3,1.3,0,0,1,.31-.468l5.847-5.878c.484-.491.929-.967,1.322-1.42a10.772,10.772,0,0,0,1.027-1.367,6.162,6.162,0,0,0,.657-1.4,4.906,4.906,0,0,0,.227-1.511,3.508,3.508,0,0,0-.257-1.405,2.739,2.739,0,0,0-.7-1,2.9,2.9,0,0,0-1.043-.589,4.193,4.193,0,0,0-1.284-.2,3.9,3.9,0,0,0-1.277.2,3.341,3.341,0,0,0-1.035.567,3.474,3.474,0,0,0-.763.861,3.238,3.238,0,0,0-.438,1.1,1.069,1.069,0,0,1-.3.536.813.813,0,0,1-.536.166h-.136a.666.666,0,0,1-.159-.023l-1.186-.2a6.791,6.791,0,0,1,.688-2.214,5.234,5.234,0,0,1,1.292-1.609,5.549,5.549,0,0,1,1.8-.99,6.85,6.85,0,0,1,2.183-.34Z" transform="translate(-242.516 -54.046)" fill="#1d1d1b"/>
          <path id="Path_103" data-name="Path 103" d="M335,81.67v1.02a2.165,2.165,0,0,1-.1.718,2.571,2.571,0,0,1-.2.468l-7.555,15.253a1.752,1.752,0,0,1-.461.567,1.225,1.225,0,0,1-.793.234H324.28l7.668-15.057q.17-.317.34-.589a3.581,3.581,0,0,1,.385-.506h-9.534a.6.6,0,0,1-.559-.559V81.678h12.413Z" transform="translate(-247.311 -54.11)" fill="#1d1d1b"/>
          <path id="Path_104" data-name="Path 104" d="M354.574,90.748a14.957,14.957,0,0,1-.514,4.148,8.8,8.8,0,0,1-1.405,2.9,5.615,5.615,0,0,1-2.108,1.707,6.075,6.075,0,0,1-2.606.559,6.163,6.163,0,0,1-2.606-.559,5.629,5.629,0,0,1-2.093-1.707,8.515,8.515,0,0,1-1.405-2.9,17.275,17.275,0,0,1,0-8.3,8.556,8.556,0,0,1,1.405-2.909,5.711,5.711,0,0,1,2.093-1.715,6.355,6.355,0,0,1,5.213,0,5.7,5.7,0,0,1,2.108,1.715,8.626,8.626,0,0,1,1.405,2.909A14.7,14.7,0,0,1,354.574,90.748Zm-2.357,0a14.978,14.978,0,0,0-.347-3.513,6.941,6.941,0,0,0-.944-2.289,3.577,3.577,0,0,0-1.367-1.239,3.649,3.649,0,0,0-3.234,0,3.507,3.507,0,0,0-1.36,1.239,7.206,7.206,0,0,0-.937,2.289,17.891,17.891,0,0,0,0,7.018,7.132,7.132,0,0,0,.937,2.282,3.5,3.5,0,0,0,1.36,1.239,3.649,3.649,0,0,0,3.234,0,3.524,3.524,0,0,0,1.367-1.239,7.058,7.058,0,0,0,.944-2.282A14.821,14.821,0,0,0,352.217,90.748Z" transform="translate(-251.895 -54.046)" fill="#1d1d1b"/>
          <path id="Path_105" data-name="Path 105" d="M374.134,90.748a14.958,14.958,0,0,1-.514,4.148,8.8,8.8,0,0,1-1.405,2.9,5.615,5.615,0,0,1-2.108,1.707,6.075,6.075,0,0,1-2.606.559,6.163,6.163,0,0,1-2.606-.559A5.629,5.629,0,0,1,362.8,97.8a8.515,8.515,0,0,1-1.405-2.9,17.276,17.276,0,0,1,0-8.3,8.557,8.557,0,0,1,1.405-2.909,5.711,5.711,0,0,1,2.093-1.715,6.355,6.355,0,0,1,5.213,0,5.7,5.7,0,0,1,2.108,1.715,8.626,8.626,0,0,1,1.405,2.909A14.7,14.7,0,0,1,374.134,90.748Zm-2.357,0a14.976,14.976,0,0,0-.348-3.513,6.94,6.94,0,0,0-.944-2.289,3.577,3.577,0,0,0-1.367-1.239,3.649,3.649,0,0,0-3.234,0,3.506,3.506,0,0,0-1.36,1.239,7.205,7.205,0,0,0-.937,2.289,17.891,17.891,0,0,0,0,7.018,7.131,7.131,0,0,0,.937,2.282,3.5,3.5,0,0,0,1.36,1.239,3.649,3.649,0,0,0,3.234,0,3.524,3.524,0,0,0,1.367-1.239,7.057,7.057,0,0,0,.944-2.282A14.819,14.819,0,0,0,371.777,90.748Z" transform="translate(-256.678 -54.046)" fill="#1d1d1b"/>
          <path id="Path_106" data-name="Path 106" d="M383.918,98.188h3.921V85.737c0-.37.015-.755.038-1.133l-3.264,2.788a.674.674,0,0,1-.257.144.717.717,0,0,1-.242.045.761.761,0,0,1-.348-.083.536.536,0,0,1-.227-.2l-.71-.982,5.424-4.7h1.851V98.18h3.6v1.73h-9.784V98.18Z" transform="translate(-262.043 -54.098)" fill="#1d1d1b"/>
          <path id="Path_107" data-name="Path 107" d="M230.109,129.2H228.59V117.97h1.519Z" transform="translate(-224.329 -62.986)" fill="#1d1d1b"/>
          <path id="Path_108" data-name="Path 108" d="M234.3,130.229v-7.94h.831a.361.361,0,0,1,.378.287l.113.861a4.6,4.6,0,0,1,1.156-.922,3.023,3.023,0,0,1,1.481-.355,2.757,2.757,0,0,1,1.148.219,2.27,2.27,0,0,1,.831.612,2.733,2.733,0,0,1,.506.952,4.181,4.181,0,0,1,.174,1.231v5.054h-1.4v-5.054a2.14,2.14,0,0,0-.408-1.4,1.539,1.539,0,0,0-1.262-.5,2.349,2.349,0,0,0-1.156.295,3.788,3.788,0,0,0-.99.808v5.847h-1.4Z" transform="translate(-225.725 -64.01)" fill="#1d1d1b"/>
          <path id="Path_109" data-name="Path 109" d="M245.854,129.15V122.4l-.876-.1a.693.693,0,0,1-.272-.121.293.293,0,0,1-.106-.242v-.574h1.254v-.771a3.5,3.5,0,0,1,.189-1.209,2.437,2.437,0,0,1,.552-.891,2.224,2.224,0,0,1,.861-.552,3.115,3.115,0,0,1,1.126-.189,2.988,2.988,0,0,1,.99.159l-.03.7a.177.177,0,0,1-.136.189,1.47,1.47,0,0,1-.355.03h-.242a2.23,2.23,0,0,0-.657.091,1.277,1.277,0,0,0-.506.3,1.352,1.352,0,0,0-.325.559,2.748,2.748,0,0,0-.113.854v.733h2.3v1.012h-2.251v6.777h-1.405Z" transform="translate(-228.244 -62.932)" fill="#1d1d1b"/>
          <path id="Path_110" data-name="Path 110" d="M255.863,122.16a4.159,4.159,0,0,1,1.571.287,3.345,3.345,0,0,1,1.194.823,3.764,3.764,0,0,1,.755,1.292,5.547,5.547,0,0,1,0,3.385,3.57,3.57,0,0,1-.755,1.284,3.234,3.234,0,0,1-1.194.816,4.444,4.444,0,0,1-3.143,0,3.234,3.234,0,0,1-1.194-.816,3.7,3.7,0,0,1-.763-1.284,4.943,4.943,0,0,1-.264-1.692,5.165,5.165,0,0,1,.264-1.692,3.662,3.662,0,0,1,.763-1.292,3.411,3.411,0,0,1,1.194-.823A4.017,4.017,0,0,1,255.863,122.16Zm0,7.094a2.037,2.037,0,0,0,1.753-.786,3.672,3.672,0,0,0,.582-2.2,3.722,3.722,0,0,0-.582-2.214,2.032,2.032,0,0,0-1.753-.793,2.432,2.432,0,0,0-1.035.2,1.922,1.922,0,0,0-.733.589,2.662,2.662,0,0,0-.438.944,5.014,5.014,0,0,0-.144,1.269,4.912,4.912,0,0,0,.144,1.262,2.564,2.564,0,0,0,.438.937,1.9,1.9,0,0,0,.733.582,2.433,2.433,0,0,0,1.035.2Z" transform="translate(-230.07 -64.01)" fill="#1d1d1b"/>
          <path id="Path_111" data-name="Path 111" d="M264.38,130.221v-7.94h.8a.485.485,0,0,1,.317.083.535.535,0,0,1,.121.295l.091,1.239a3.642,3.642,0,0,1,1-1.3,2.234,2.234,0,0,1,1.405-.468,2.117,2.117,0,0,1,.6.076,2.582,2.582,0,0,1,.491.2l-.181,1.043a.241.241,0,0,1-.242.2,1.116,1.116,0,0,1-.34-.076,2.015,2.015,0,0,0-.635-.076,1.806,1.806,0,0,0-1.216.423,3.186,3.186,0,0,0-.816,1.231v5.054h-1.4Z" transform="translate(-233.08 -64.003)" fill="#1d1d1b"/>
          <path id="Path_112" data-name="Path 112" d="M272.74,130.229v-7.94h.831a.361.361,0,0,1,.378.287l.1.816a4,4,0,0,1,.982-.884,2.349,2.349,0,0,1,1.269-.348,1.9,1.9,0,0,1,1.307.446,2.482,2.482,0,0,1,.718,1.209,2.6,2.6,0,0,1,.438-.748,2.8,2.8,0,0,1,.6-.521,2.481,2.481,0,0,1,.718-.295,3.355,3.355,0,0,1,.771-.091,3.043,3.043,0,0,1,1.118.2,2.238,2.238,0,0,1,.831.582,2.657,2.657,0,0,1,.521.944,4.185,4.185,0,0,1,.181,1.284v5.054h-1.4v-5.054a2.13,2.13,0,0,0-.408-1.413,1.454,1.454,0,0,0-1.186-.484,1.778,1.778,0,0,0-.657.121,1.543,1.543,0,0,0-.544.355,1.668,1.668,0,0,0-.37.589,2.294,2.294,0,0,0-.136.823v5.054h-1.4v-5.054a2.236,2.236,0,0,0-.385-1.428,1.347,1.347,0,0,0-1.118-.468,1.734,1.734,0,0,0-.959.28,3.161,3.161,0,0,0-.808.755v5.923h-1.4Z" transform="translate(-235.124 -64.01)" fill="#1d1d1b"/>
          <path id="Path_113" data-name="Path 113" d="M295.473,130.219h-.62a.817.817,0,0,1-.332-.06.363.363,0,0,1-.166-.264l-.159-.74c-.212.189-.416.355-.612.506a3.547,3.547,0,0,1-.627.378,3.071,3.071,0,0,1-.7.234,3.968,3.968,0,0,1-.823.076,2.984,2.984,0,0,1-.869-.128,1.883,1.883,0,0,1-.7-.393,1.94,1.94,0,0,1-.476-.657,2.267,2.267,0,0,1-.174-.944,1.719,1.719,0,0,1,.257-.907,2.277,2.277,0,0,1,.839-.778,5.343,5.343,0,0,1,1.511-.552,10.28,10.28,0,0,1,2.282-.219v-.627a2.15,2.15,0,0,0-.393-1.405,1.441,1.441,0,0,0-1.171-.476,2.587,2.587,0,0,0-.861.128,3.215,3.215,0,0,0-.6.287c-.166.106-.317.2-.438.287a.643.643,0,0,1-.363.128.422.422,0,0,1-.249-.076.627.627,0,0,1-.166-.181l-.249-.446a4.6,4.6,0,0,1,1.42-.952,4.347,4.347,0,0,1,1.685-.317,3.074,3.074,0,0,1,1.186.219,2.325,2.325,0,0,1,.869.612,2.6,2.6,0,0,1,.536.952,3.925,3.925,0,0,1,.181,1.224v5.084Zm-3.619-.854a2.655,2.655,0,0,0,.672-.076,2.892,2.892,0,0,0,.574-.212,3.194,3.194,0,0,0,.521-.332,4.391,4.391,0,0,0,.484-.446V126.66a9.262,9.262,0,0,0-1.639.121,4.688,4.688,0,0,0-1.1.317,1.445,1.445,0,0,0-.612.468,1,1,0,0,0-.189.6,1.185,1.185,0,0,0,.106.544,1.079,1.079,0,0,0,.272.378,1.05,1.05,0,0,0,.408.212,1.822,1.822,0,0,0,.506.068Z" transform="translate(-239.151 -64)" fill="#1d1d1b"/>
          <path id="Path_114" data-name="Path 114" d="M302.451,129.562a1.912,1.912,0,0,1-1.451-.529,2.088,2.088,0,0,1-.506-1.511v-4.858h-.959a.3.3,0,0,1-.212-.076.288.288,0,0,1-.083-.234V121.8l1.3-.166.325-2.455a.289.289,0,0,1,.1-.189.31.31,0,0,1,.219-.076h.7v2.735h2.274v1.012h-2.274v4.767a1.047,1.047,0,0,0,.242.748.854.854,0,0,0,.627.242,1.131,1.131,0,0,0,.378-.06,1.931,1.931,0,0,0,.28-.128c.076-.045.144-.091.2-.128a.28.28,0,0,1,.144-.06c.076,0,.136.045.2.136l.408.665a2.579,2.579,0,0,1-.869.529,2.934,2.934,0,0,1-1.05.189Z" transform="translate(-241.604 -63.215)" fill="#1d1d1b"/>
          <path id="Path_115" data-name="Path 115" d="M309.874,118.707a.893.893,0,0,1-.083.378,1.135,1.135,0,0,1-.219.317.92.92,0,0,1-.317.219.948.948,0,0,1-.385.076,1.02,1.02,0,0,1-.378-.076,1.07,1.07,0,0,1-.536-.536.913.913,0,0,1-.076-.378.948.948,0,0,1,.076-.385.92.92,0,0,1,.219-.317,1.136,1.136,0,0,1,.317-.219.913.913,0,0,1,.378-.076,1.093,1.093,0,0,1,.385.076,1.071,1.071,0,0,1,.536.536A.954.954,0,0,1,309.874,118.707Zm-.317,2.493v7.94h-1.4V121.2h1.4Z" transform="translate(-243.716 -62.922)" fill="#1d1d1b"/>
          <path id="Path_116" data-name="Path 116" d="M316.393,122.16a4.159,4.159,0,0,1,1.571.287,3.344,3.344,0,0,1,1.194.823,3.764,3.764,0,0,1,.755,1.292,5.547,5.547,0,0,1,0,3.385,3.57,3.57,0,0,1-.755,1.284,3.234,3.234,0,0,1-1.194.816,4.444,4.444,0,0,1-3.143,0,3.234,3.234,0,0,1-1.194-.816,3.7,3.7,0,0,1-.763-1.284,4.943,4.943,0,0,1-.264-1.692,5.165,5.165,0,0,1,.264-1.692,3.662,3.662,0,0,1,.763-1.292,3.412,3.412,0,0,1,1.194-.823A4.017,4.017,0,0,1,316.393,122.16Zm0,7.094a2.037,2.037,0,0,0,1.753-.786,3.672,3.672,0,0,0,.582-2.2,3.722,3.722,0,0,0-.582-2.214,2.032,2.032,0,0,0-1.753-.793,2.432,2.432,0,0,0-1.035.2,1.922,1.922,0,0,0-.733.589,2.662,2.662,0,0,0-.438.944,5.014,5.014,0,0,0-.144,1.269,4.913,4.913,0,0,0,.144,1.262,2.564,2.564,0,0,0,.438.937,1.9,1.9,0,0,0,.733.582,2.433,2.433,0,0,0,1.035.2Z" transform="translate(-244.871 -64.01)" fill="#1d1d1b"/>
          <path id="Path_117" data-name="Path 117" d="M324.9,130.229v-7.94h.831a.361.361,0,0,1,.378.287l.113.861a4.6,4.6,0,0,1,1.156-.922,3.023,3.023,0,0,1,1.481-.355,2.757,2.757,0,0,1,1.148.219,2.27,2.27,0,0,1,.831.612,2.733,2.733,0,0,1,.506.952,4.18,4.18,0,0,1,.174,1.231v5.054h-1.4v-5.054a2.14,2.14,0,0,0-.408-1.4,1.539,1.539,0,0,0-1.262-.5,2.349,2.349,0,0,0-1.156.295,3.788,3.788,0,0,0-.99.808v5.847h-1.4Z" transform="translate(-247.878 -64.01)" fill="#1d1d1b"/>
          <path id="Path_118" data-name="Path 118" d="M344.783,123.6a.309.309,0,0,1-.287.174.589.589,0,0,1-.264-.083,4.173,4.173,0,0,0-.876-.385,2.4,2.4,0,0,0-.7-.091,2.077,2.077,0,0,0-.635.091,1.54,1.54,0,0,0-.484.249,1.168,1.168,0,0,0-.31.363,1,1,0,0,0-.106.453.762.762,0,0,0,.174.506,1.66,1.66,0,0,0,.468.355,3.725,3.725,0,0,0,.657.264c.242.076.5.159.755.242s.514.181.755.287a2.571,2.571,0,0,1,.657.393,1.822,1.822,0,0,1,.468.574,1.712,1.712,0,0,1,.174.816,2.628,2.628,0,0,1-.2,1.012,2.193,2.193,0,0,1-.582.808,2.733,2.733,0,0,1-.944.536,4.294,4.294,0,0,1-2.788-.076,3.758,3.758,0,0,1-1.148-.7l.332-.536a.508.508,0,0,1,.151-.159.42.42,0,0,1,.227-.053.5.5,0,0,1,.295.113c.1.076.234.151.378.242a2.535,2.535,0,0,0,1.337.355,2.231,2.231,0,0,0,.71-.106,1.432,1.432,0,0,0,.506-.287,1.154,1.154,0,0,0,.3-.416,1.25,1.25,0,0,0,.1-.5.853.853,0,0,0-.174-.544,1.565,1.565,0,0,0-.468-.37,3.586,3.586,0,0,0-.665-.264c-.249-.076-.5-.159-.763-.242s-.514-.181-.763-.287a2.779,2.779,0,0,1-.665-.4,1.828,1.828,0,0,1-.468-.6,1.9,1.9,0,0,1-.174-.869,2.08,2.08,0,0,1,.189-.876,2.185,2.185,0,0,1,.552-.74,2.793,2.793,0,0,1,.884-.506,3.457,3.457,0,0,1,1.2-.189,3.756,3.756,0,0,1,1.405.249,3.368,3.368,0,0,1,1.08.68l-.317.506Z" transform="translate(-251.465 -64.01)" fill="#1d1d1b"/>
          <path id="Path_119" data-name="Path 119" d="M352.424,122.155a3.539,3.539,0,0,1,1.315.242,3.059,3.059,0,0,1,1.043.688,3.177,3.177,0,0,1,.688,1.111,4.253,4.253,0,0,1,.249,1.511.944.944,0,0,1-.068.438.283.283,0,0,1-.264.106H350.1a4.164,4.164,0,0,0,.2,1.307,2.636,2.636,0,0,0,.521.929,2.141,2.141,0,0,0,.786.559,2.726,2.726,0,0,0,1.02.181,2.961,2.961,0,0,0,.907-.121,4.567,4.567,0,0,0,.657-.264,4.734,4.734,0,0,0,.461-.264.578.578,0,0,1,.317-.121.3.3,0,0,1,.264.136l.393.506a2.526,2.526,0,0,1-.62.544,3.646,3.646,0,0,1-.771.378,5.248,5.248,0,0,1-.854.227,4.882,4.882,0,0,1-.869.076,3.966,3.966,0,0,1-1.518-.28,3.46,3.46,0,0,1-1.2-.816,3.675,3.675,0,0,1-.786-1.33,5.391,5.391,0,0,1-.28-1.821,4.5,4.5,0,0,1,.257-1.549,3.837,3.837,0,0,1,.733-1.254,3.369,3.369,0,0,1,1.171-.831,3.777,3.777,0,0,1,1.549-.3Zm.03,1.027a2.176,2.176,0,0,0-1.594.582,2.745,2.745,0,0,0-.718,1.617h4.321a2.794,2.794,0,0,0-.136-.891,1.96,1.96,0,0,0-.393-.7,1.745,1.745,0,0,0-.635-.453,2.151,2.151,0,0,0-.854-.159Z" transform="translate(-253.705 -64.005)" fill="#1d1d1b"/>
          <path id="Path_120" data-name="Path 120" d="M365.573,123.7a.556.556,0,0,1-.128.136.291.291,0,0,1-.181.045.423.423,0,0,1-.257-.1c-.091-.068-.212-.136-.348-.219a3.382,3.382,0,0,0-.514-.219,2.695,2.695,0,0,0-1.768.113,2.065,2.065,0,0,0-.748.6,2.536,2.536,0,0,0-.453.952,5.129,5.129,0,0,0,.015,2.531,2.756,2.756,0,0,0,.461.944,2.013,2.013,0,0,0,.725.582,2.2,2.2,0,0,0,.959.2,2.345,2.345,0,0,0,.839-.121,2.883,2.883,0,0,0,.552-.272,4.51,4.51,0,0,0,.363-.272.417.417,0,0,1,.28-.121.284.284,0,0,1,.264.136l.393.506a3.056,3.056,0,0,1-1.292.929,4.571,4.571,0,0,1-1.639.295,3.473,3.473,0,0,1-1.383-.272,3.193,3.193,0,0,1-1.111-.793,3.75,3.75,0,0,1-.74-1.284,5.133,5.133,0,0,1-.272-1.73,5.214,5.214,0,0,1,.249-1.639,3.759,3.759,0,0,1,.725-1.3,3.329,3.329,0,0,1,1.171-.854,3.959,3.959,0,0,1,1.6-.3,3.767,3.767,0,0,1,1.473.272,3.526,3.526,0,0,1,1.133.763l-.37.5Z" transform="translate(-256.36 -64.013)" fill="#1d1d1b"/>
          <path id="Path_121" data-name="Path 121" d="M371.18,122.33V127.4a2.113,2.113,0,0,0,.416,1.4,1.539,1.539,0,0,0,1.254.491,2.471,2.471,0,0,0,1.156-.287,3.432,3.432,0,0,0,1-.808v-5.855h1.4v7.94h-.831a.361.361,0,0,1-.378-.287l-.113-.854a4.35,4.35,0,0,1-1.163.922,3.032,3.032,0,0,1-1.473.348,2.757,2.757,0,0,1-1.148-.219,2.34,2.34,0,0,1-.831-.6,2.555,2.555,0,0,1-.506-.952,4.222,4.222,0,0,1-.166-1.231V122.33h1.4Z" transform="translate(-258.854 -64.052)" fill="#1d1d1b"/>
          <path id="Path_122" data-name="Path 122" d="M381.57,130.221v-7.94h.8a.485.485,0,0,1,.317.083.51.51,0,0,1,.121.295l.091,1.239a3.642,3.642,0,0,1,1-1.3,2.234,2.234,0,0,1,1.405-.468,2.116,2.116,0,0,1,.6.076,2.393,2.393,0,0,1,.491.2l-.181,1.043a.241.241,0,0,1-.242.2,1.116,1.116,0,0,1-.34-.076A2.015,2.015,0,0,0,385,123.5a1.806,1.806,0,0,0-1.216.423,3.185,3.185,0,0,0-.816,1.231v5.054h-1.4Z" transform="translate(-261.735 -64.003)" fill="#1d1d1b"/>
          <path id="Path_123" data-name="Path 123" d="M391.764,118.707a.893.893,0,0,1-.083.378,1.136,1.136,0,0,1-.219.317.92.92,0,0,1-.317.219.948.948,0,0,1-.385.076,1.02,1.02,0,0,1-.378-.076,1.07,1.07,0,0,1-.536-.536.912.912,0,0,1-.076-.378.947.947,0,0,1,.076-.385.92.92,0,0,1,.219-.317,1.136,1.136,0,0,1,.317-.219.913.913,0,0,1,.378-.076,1.093,1.093,0,0,1,.385.076,1.071,1.071,0,0,1,.536.536A.954.954,0,0,1,391.764,118.707Zm-.317,2.493v7.94h-1.4V121.2h1.4Z" transform="translate(-263.74 -62.922)" fill="#1d1d1b"/>
          <path id="Path_124" data-name="Path 124" d="M397.4,129.562a1.883,1.883,0,0,1-1.443-.529,2.122,2.122,0,0,1-.506-1.511v-4.858h-.959a.3.3,0,0,1-.212-.076.288.288,0,0,1-.083-.234V121.8l1.3-.166.325-2.455a.289.289,0,0,1,.1-.189.31.31,0,0,1,.219-.076h.7v2.735h2.274v1.012h-2.274v4.767a1.047,1.047,0,0,0,.242.748.854.854,0,0,0,.627.242,1.131,1.131,0,0,0,.378-.06,1.93,1.93,0,0,0,.28-.128c.076-.045.144-.091.2-.128a.28.28,0,0,1,.144-.06c.076,0,.136.045.2.136l.408.665a2.579,2.579,0,0,1-.869.529,2.934,2.934,0,0,1-1.05.189Z" transform="translate(-264.823 -63.215)" fill="#1d1d1b"/>
          <path id="Path_125" data-name="Path 125" d="M404.982,132.62a.7.7,0,0,1-.174.249.49.49,0,0,1-.325.091h-1.035l1.451-3.15-3.279-7.479h1.209a.4.4,0,0,1,.28.091.6.6,0,0,1,.151.2l2.123,5a2.693,2.693,0,0,1,.121.348c.03.113.06.234.091.355.038-.121.076-.242.113-.355s.076-.234.128-.355l2.063-4.994a.42.42,0,0,1,.159-.2.429.429,0,0,1,.249-.083h1.111l-4.427,10.29Z" transform="translate(-266.637 -64.052)" fill="#1d1d1b"/>
          <path id="Path_126" data-name="Path 126" d="M222.95,157.229v-7.94h.831a.361.361,0,0,1,.378.287l.1.816a4,4,0,0,1,.982-.884,2.349,2.349,0,0,1,1.269-.348,1.9,1.9,0,0,1,1.307.446,2.482,2.482,0,0,1,.718,1.209,2.6,2.6,0,0,1,.438-.748,2.8,2.8,0,0,1,.6-.521,2.482,2.482,0,0,1,.718-.295,3.354,3.354,0,0,1,.771-.091,3.042,3.042,0,0,1,1.118.2,2.237,2.237,0,0,1,.831.582,2.657,2.657,0,0,1,.521.944,4.185,4.185,0,0,1,.181,1.284v5.054h-1.4v-5.054a2.13,2.13,0,0,0-.408-1.413,1.454,1.454,0,0,0-1.186-.484,1.779,1.779,0,0,0-.657.121,1.543,1.543,0,0,0-.544.355,1.668,1.668,0,0,0-.37.589,2.294,2.294,0,0,0-.136.823v5.054h-1.4v-5.054a2.236,2.236,0,0,0-.385-1.428,1.347,1.347,0,0,0-1.118-.468,1.734,1.734,0,0,0-.959.28,3.161,3.161,0,0,0-.808.755v5.923h-1.4Z" transform="translate(-222.95 -70.612)" fill="#1d1d1b"/>
          <path id="Path_127" data-name="Path 127" d="M245.693,157.219h-.62a.817.817,0,0,1-.332-.06.363.363,0,0,1-.166-.264l-.159-.74c-.212.189-.415.355-.612.506a3.545,3.545,0,0,1-.627.378,3.072,3.072,0,0,1-.7.234,3.968,3.968,0,0,1-.823.076,2.983,2.983,0,0,1-.869-.128,1.883,1.883,0,0,1-.7-.393,1.94,1.94,0,0,1-.476-.657,2.267,2.267,0,0,1-.174-.944,1.72,1.72,0,0,1,.257-.907,2.277,2.277,0,0,1,.839-.778,5.343,5.343,0,0,1,1.511-.552,10.28,10.28,0,0,1,2.282-.219v-.627a2.15,2.15,0,0,0-.393-1.405,1.441,1.441,0,0,0-1.171-.476,2.587,2.587,0,0,0-.861.128,3.215,3.215,0,0,0-.6.287c-.166.106-.317.2-.438.287a.643.643,0,0,1-.363.128.422.422,0,0,1-.249-.076.627.627,0,0,1-.166-.181l-.249-.446a4.6,4.6,0,0,1,1.42-.952,4.346,4.346,0,0,1,1.685-.317,3.074,3.074,0,0,1,1.186.219,2.324,2.324,0,0,1,.869.612,2.6,2.6,0,0,1,.536.952,3.925,3.925,0,0,1,.181,1.224v5.084Zm-3.626-.854a2.654,2.654,0,0,0,.672-.076,2.892,2.892,0,0,0,.574-.212,3.2,3.2,0,0,0,.521-.332,4.39,4.39,0,0,0,.483-.446V153.66a9.263,9.263,0,0,0-1.639.121,4.689,4.689,0,0,0-1.1.317,1.445,1.445,0,0,0-.612.468,1,1,0,0,0-.189.6,1.185,1.185,0,0,0,.106.544,1.079,1.079,0,0,0,.272.378,1.05,1.05,0,0,0,.408.212,1.821,1.821,0,0,0,.506.068Z" transform="translate(-226.98 -70.602)" fill="#1d1d1b"/>
          <path id="Path_128" data-name="Path 128" d="M250.52,157.229v-7.94h.831a.361.361,0,0,1,.378.287l.113.861a4.6,4.6,0,0,1,1.156-.922,3.023,3.023,0,0,1,1.481-.355,2.757,2.757,0,0,1,1.148.219,2.27,2.27,0,0,1,.831.612,2.733,2.733,0,0,1,.506.952,4.18,4.18,0,0,1,.174,1.231v5.054h-1.4v-5.054a2.14,2.14,0,0,0-.408-1.4,1.539,1.539,0,0,0-1.262-.5,2.349,2.349,0,0,0-1.156.295,3.787,3.787,0,0,0-.99.808v5.847h-1.4Z" transform="translate(-229.691 -70.612)" fill="#1d1d1b"/>
          <path id="Path_129" data-name="Path 129" d="M267.753,157.219h-.62a.817.817,0,0,1-.332-.06.363.363,0,0,1-.166-.264l-.159-.74c-.212.189-.415.355-.612.506a3.546,3.546,0,0,1-.627.378,3.071,3.071,0,0,1-.7.234,3.968,3.968,0,0,1-.823.076,2.983,2.983,0,0,1-.869-.128,1.883,1.883,0,0,1-.7-.393,1.939,1.939,0,0,1-.476-.657,2.267,2.267,0,0,1-.174-.944,1.72,1.72,0,0,1,.257-.907,2.277,2.277,0,0,1,.839-.778,5.343,5.343,0,0,1,1.511-.552,10.28,10.28,0,0,1,2.282-.219v-.627a2.15,2.15,0,0,0-.393-1.405,1.441,1.441,0,0,0-1.171-.476,2.587,2.587,0,0,0-.861.128,3.216,3.216,0,0,0-.6.287c-.166.106-.317.2-.438.287a.643.643,0,0,1-.363.128.422.422,0,0,1-.249-.076.626.626,0,0,1-.166-.181l-.249-.446a4.6,4.6,0,0,1,1.42-.952,4.346,4.346,0,0,1,1.685-.317,3.074,3.074,0,0,1,1.186.219,2.324,2.324,0,0,1,.869.612,2.6,2.6,0,0,1,.536.952,3.926,3.926,0,0,1,.181,1.224v5.084Zm-3.619-.854a2.654,2.654,0,0,0,.672-.076,2.893,2.893,0,0,0,.574-.212,3.2,3.2,0,0,0,.521-.332,4.39,4.39,0,0,0,.484-.446V153.66a9.263,9.263,0,0,0-1.639.121,4.689,4.689,0,0,0-1.1.317,1.445,1.445,0,0,0-.612.468,1,1,0,0,0-.189.6,1.185,1.185,0,0,0,.106.544,1.079,1.079,0,0,0,.272.378,1.05,1.05,0,0,0,.408.212,1.821,1.821,0,0,0,.506.068Z" transform="translate(-232.374 -70.602)" fill="#1d1d1b"/>
          <path id="Path_130" data-name="Path 130" d="M275,149.15a3.948,3.948,0,0,1,.967.113,3.031,3.031,0,0,1,.816.332h2.153v.521c0,.174-.113.28-.332.332l-.9.128a2.571,2.571,0,0,1,.038,2.191,2.338,2.338,0,0,1-.62.808,2.724,2.724,0,0,1-.944.521,3.8,3.8,0,0,1-1.194.181,3.961,3.961,0,0,1-1.05-.136,1.309,1.309,0,0,0-.378.348.683.683,0,0,0-.128.363.486.486,0,0,0,.227.438,1.659,1.659,0,0,0,.6.219,4.825,4.825,0,0,0,.854.068h.975a5.2,5.2,0,0,1,.975.091,2.913,2.913,0,0,1,.854.287,1.517,1.517,0,0,1,.831,1.458,2.043,2.043,0,0,1-.257,1,2.627,2.627,0,0,1-.733.861,3.8,3.8,0,0,1-1.171.6,5.008,5.008,0,0,1-1.564.227,6.1,6.1,0,0,1-1.526-.174,3.628,3.628,0,0,1-1.088-.461,2.029,2.029,0,0,1-.65-.672,1.611,1.611,0,0,1-.219-.793,1.419,1.419,0,0,1,.37-1,2.649,2.649,0,0,1,1.02-.657,1.423,1.423,0,0,1-.536-.416,1.109,1.109,0,0,1-.2-.7,1.208,1.208,0,0,1,.06-.355,1.668,1.668,0,0,1,.189-.363,1.919,1.919,0,0,1,.317-.348,2,2,0,0,1,.438-.287,2.451,2.451,0,0,1-.922-.876,2.6,2.6,0,0,1-.106-2.334,2.27,2.27,0,0,1,.627-.808,2.952,2.952,0,0,1,.952-.514,3.862,3.862,0,0,1,1.209-.181Zm2.478,8.484a.7.7,0,0,0-.166-.491,1.111,1.111,0,0,0-.446-.287,3.582,3.582,0,0,0-.65-.151,5.137,5.137,0,0,0-.778-.045h-.831a3.162,3.162,0,0,1-.808-.106,2.416,2.416,0,0,0-.725.521,1.034,1.034,0,0,0-.28.733.951.951,0,0,0,.136.5,1.205,1.205,0,0,0,.423.4,2.288,2.288,0,0,0,.71.264,4.395,4.395,0,0,0,1,.1,4.529,4.529,0,0,0,1.012-.106,2.464,2.464,0,0,0,.755-.295,1.526,1.526,0,0,0,.476-.453,1.045,1.045,0,0,0,.166-.582ZM275,153.343a2.1,2.1,0,0,0,.748-.121,1.5,1.5,0,0,0,.544-.332,1.44,1.44,0,0,0,.332-.506,1.777,1.777,0,0,0,.113-.65,1.56,1.56,0,0,0-.446-1.163A1.779,1.779,0,0,0,275,150.14a1.759,1.759,0,0,0-1.284.431,1.548,1.548,0,0,0-.446,1.163,1.805,1.805,0,0,0,.113.65,1.44,1.44,0,0,0,.332.506,1.5,1.5,0,0,0,.544.332A2.057,2.057,0,0,0,275,153.343Z" transform="translate(-234.831 -70.609)" fill="#1d1d1b"/>
          <path id="Path_131" data-name="Path 131" d="M286.152,149.155a3.539,3.539,0,0,1,1.315.242,3.059,3.059,0,0,1,1.043.688,3.177,3.177,0,0,1,.688,1.111,4.252,4.252,0,0,1,.249,1.511.944.944,0,0,1-.068.438.283.283,0,0,1-.264.106h-5.288a4.163,4.163,0,0,0,.2,1.307,2.749,2.749,0,0,0,.514.929,2.141,2.141,0,0,0,.786.559,2.726,2.726,0,0,0,1.02.181,2.961,2.961,0,0,0,.907-.121,4.238,4.238,0,0,0,.657-.264,4.736,4.736,0,0,0,.461-.264.578.578,0,0,1,.317-.121.3.3,0,0,1,.264.136l.393.506a2.526,2.526,0,0,1-.62.544,3.646,3.646,0,0,1-.771.378,5.249,5.249,0,0,1-.854.227,4.881,4.881,0,0,1-.869.076,3.966,3.966,0,0,1-1.519-.28,3.46,3.46,0,0,1-1.2-.816,3.676,3.676,0,0,1-.786-1.33,5.392,5.392,0,0,1-.28-1.821,4.5,4.5,0,0,1,.257-1.549,3.637,3.637,0,0,1,.733-1.254,3.37,3.37,0,0,1,1.171-.831,3.789,3.789,0,0,1,1.556-.3Zm.038,1.027a2.164,2.164,0,0,0-1.594.582,2.8,2.8,0,0,0-.725,1.617h4.321a2.793,2.793,0,0,0-.136-.891,1.96,1.96,0,0,0-.393-.7,1.745,1.745,0,0,0-.635-.453,2.151,2.151,0,0,0-.854-.159Z" transform="translate(-237.498 -70.607)" fill="#1d1d1b"/>
          <path id="Path_132" data-name="Path 132" d="M294.07,157.229v-7.94h.831a.361.361,0,0,1,.378.287l.1.816a4,4,0,0,1,.982-.884,2.349,2.349,0,0,1,1.269-.348,1.9,1.9,0,0,1,1.307.446,2.482,2.482,0,0,1,.718,1.209,2.6,2.6,0,0,1,.438-.748,2.8,2.8,0,0,1,.6-.521,2.481,2.481,0,0,1,.718-.295,3.355,3.355,0,0,1,.771-.091,3.043,3.043,0,0,1,1.118.2,2.237,2.237,0,0,1,.831.582,2.657,2.657,0,0,1,.521.944,4.185,4.185,0,0,1,.181,1.284v5.054h-1.4v-5.054a2.129,2.129,0,0,0-.408-1.413,1.454,1.454,0,0,0-1.186-.484,1.778,1.778,0,0,0-.657.121,1.543,1.543,0,0,0-.544.355,1.668,1.668,0,0,0-.37.589,2.294,2.294,0,0,0-.136.823v5.054h-1.4v-5.054a2.236,2.236,0,0,0-.385-1.428,1.347,1.347,0,0,0-1.118-.468,1.734,1.734,0,0,0-.959.28,3.161,3.161,0,0,0-.808.755v5.923h-1.4Z" transform="translate(-240.34 -70.612)" fill="#1d1d1b"/>
          <path id="Path_133" data-name="Path 133" d="M314.072,149.155a3.539,3.539,0,0,1,1.315.242,3.059,3.059,0,0,1,1.043.688,3.177,3.177,0,0,1,.688,1.111,4.253,4.253,0,0,1,.249,1.511.944.944,0,0,1-.068.438.283.283,0,0,1-.264.106h-5.288a4.163,4.163,0,0,0,.2,1.307,2.748,2.748,0,0,0,.514.929,2.141,2.141,0,0,0,.786.559,2.726,2.726,0,0,0,1.02.181,2.961,2.961,0,0,0,.907-.121,4.238,4.238,0,0,0,.657-.264,4.736,4.736,0,0,0,.461-.264.578.578,0,0,1,.317-.121.3.3,0,0,1,.264.136l.393.506a2.526,2.526,0,0,1-.62.544,3.646,3.646,0,0,1-.771.378,5.25,5.25,0,0,1-.854.227,4.881,4.881,0,0,1-.869.076,3.966,3.966,0,0,1-1.519-.28,3.46,3.46,0,0,1-1.2-.816,3.675,3.675,0,0,1-.786-1.33,5.392,5.392,0,0,1-.28-1.821,4.5,4.5,0,0,1,.257-1.549,3.637,3.637,0,0,1,.733-1.254,3.37,3.37,0,0,1,1.171-.831,3.789,3.789,0,0,1,1.556-.3Zm.03,1.027a2.164,2.164,0,0,0-1.594.582,2.8,2.8,0,0,0-.725,1.617H316.1a2.793,2.793,0,0,0-.136-.891,1.959,1.959,0,0,0-.393-.7,1.745,1.745,0,0,0-.635-.453,2.151,2.151,0,0,0-.854-.159Z" transform="translate(-244.325 -70.607)" fill="#1d1d1b"/>
          <path id="Path_134" data-name="Path 134" d="M321.99,157.229v-7.94h.831a.361.361,0,0,1,.378.287l.113.861a4.6,4.6,0,0,1,1.156-.922,3.023,3.023,0,0,1,1.481-.355,2.757,2.757,0,0,1,1.148.219,2.27,2.27,0,0,1,.831.612,2.733,2.733,0,0,1,.506.952,4.18,4.18,0,0,1,.174,1.231v5.054h-1.4v-5.054a2.14,2.14,0,0,0-.408-1.4,1.539,1.539,0,0,0-1.262-.5,2.349,2.349,0,0,0-1.156.295,3.787,3.787,0,0,0-.99.808v5.847H322Z" transform="translate(-247.166 -70.612)" fill="#1d1d1b"/>
          <path id="Path_135" data-name="Path 135" d="M335.673,156.562a1.883,1.883,0,0,1-1.443-.529,2.122,2.122,0,0,1-.506-1.511v-4.858h-.959a.3.3,0,0,1-.212-.076.288.288,0,0,1-.083-.234V148.8l1.3-.166.325-2.455a.289.289,0,0,1,.1-.189.31.31,0,0,1,.219-.076h.7v2.735h2.274v1.012h-2.274v4.767a1.047,1.047,0,0,0,.242.748.854.854,0,0,0,.627.242,1.131,1.131,0,0,0,.378-.06,1.93,1.93,0,0,0,.28-.128c.076-.045.144-.091.2-.128a.28.28,0,0,1,.144-.06c.076,0,.136.045.2.136l.408.665a2.579,2.579,0,0,1-.869.529,2.934,2.934,0,0,1-1.05.189Z" transform="translate(-249.729 -69.817)" fill="#1d1d1b"/>
          <path id="Path_136" data-name="Path 136" d="M349.613,150.6a.309.309,0,0,1-.287.174.589.589,0,0,1-.264-.083,4.173,4.173,0,0,0-.876-.385,2.4,2.4,0,0,0-.7-.091,2.076,2.076,0,0,0-.635.091,1.539,1.539,0,0,0-.484.249,1.168,1.168,0,0,0-.31.363,1,1,0,0,0-.106.453.762.762,0,0,0,.174.506,1.66,1.66,0,0,0,.468.355,3.726,3.726,0,0,0,.657.264c.242.076.5.159.755.242s.514.181.755.287a2.572,2.572,0,0,1,.657.393,1.822,1.822,0,0,1,.468.574,1.712,1.712,0,0,1,.174.816,2.628,2.628,0,0,1-.2,1.012,2.192,2.192,0,0,1-.582.808,2.733,2.733,0,0,1-.944.536,4.294,4.294,0,0,1-2.788-.076,3.758,3.758,0,0,1-1.148-.7l.332-.536a.508.508,0,0,1,.151-.159.42.42,0,0,1,.227-.053.5.5,0,0,1,.295.113c.1.076.234.151.378.242a2.536,2.536,0,0,0,1.337.355,2.231,2.231,0,0,0,.71-.106,1.432,1.432,0,0,0,.506-.287,1.154,1.154,0,0,0,.3-.416,1.249,1.249,0,0,0,.1-.5.853.853,0,0,0-.174-.544,1.565,1.565,0,0,0-.468-.37,3.587,3.587,0,0,0-.665-.264c-.249-.076-.5-.159-.763-.242s-.514-.181-.763-.287a2.78,2.78,0,0,1-.665-.4,1.828,1.828,0,0,1-.468-.6,1.9,1.9,0,0,1-.174-.869,2.08,2.08,0,0,1,.189-.876,2.185,2.185,0,0,1,.552-.74,2.793,2.793,0,0,1,.884-.506,3.457,3.457,0,0,1,1.2-.189,3.756,3.756,0,0,1,1.405.249,3.369,3.369,0,0,1,1.08.68l-.317.506Z" transform="translate(-252.646 -70.612)" fill="#1d1d1b"/>
          <path id="Path_137" data-name="Path 137" d="M356.282,159.62a.7.7,0,0,1-.174.249.49.49,0,0,1-.325.091h-1.035l1.451-3.15-3.279-7.479h1.209a.4.4,0,0,1,.28.091.6.6,0,0,1,.151.2l2.123,5a2.693,2.693,0,0,1,.121.348c.03.113.06.234.091.355.038-.121.076-.242.113-.355s.076-.234.128-.355l2.063-4.994a.42.42,0,0,1,.159-.2.429.429,0,0,1,.249-.083h1.111l-4.427,10.29Z" transform="translate(-254.729 -70.654)" fill="#1d1d1b"/>
          <path id="Path_138" data-name="Path 138" d="M369.243,150.6a.309.309,0,0,1-.287.174.589.589,0,0,1-.264-.083,4.173,4.173,0,0,0-.876-.385,2.4,2.4,0,0,0-.7-.091,2.076,2.076,0,0,0-.635.091,1.539,1.539,0,0,0-.484.249,1.168,1.168,0,0,0-.31.363,1,1,0,0,0-.106.453.762.762,0,0,0,.174.506,1.66,1.66,0,0,0,.468.355,3.726,3.726,0,0,0,.657.264c.242.076.5.159.755.242s.514.181.755.287a2.571,2.571,0,0,1,.657.393,1.822,1.822,0,0,1,.468.574,1.712,1.712,0,0,1,.174.816,2.628,2.628,0,0,1-.2,1.012,2.193,2.193,0,0,1-.582.808,2.733,2.733,0,0,1-.944.536,4.294,4.294,0,0,1-2.788-.076,3.758,3.758,0,0,1-1.148-.7l.332-.536a.508.508,0,0,1,.151-.159.42.42,0,0,1,.227-.053.5.5,0,0,1,.295.113c.1.076.234.151.378.242a2.536,2.536,0,0,0,1.337.355,2.231,2.231,0,0,0,.71-.106,1.432,1.432,0,0,0,.506-.287,1.154,1.154,0,0,0,.3-.416,1.249,1.249,0,0,0,.1-.5.853.853,0,0,0-.174-.544,1.565,1.565,0,0,0-.468-.37,3.587,3.587,0,0,0-.665-.264c-.249-.076-.5-.159-.763-.242s-.514-.181-.763-.287a2.78,2.78,0,0,1-.665-.4,1.828,1.828,0,0,1-.468-.6,1.9,1.9,0,0,1-.174-.869,2.08,2.08,0,0,1,.189-.876,2.185,2.185,0,0,1,.552-.74,2.793,2.793,0,0,1,.884-.506,3.457,3.457,0,0,1,1.2-.189,3.756,3.756,0,0,1,1.405.249,3.369,3.369,0,0,1,1.08.68l-.317.506Z" transform="translate(-257.446 -70.612)" fill="#1d1d1b"/>
          <path id="Path_139" data-name="Path 139" d="M376.073,156.562a1.883,1.883,0,0,1-1.443-.529,2.122,2.122,0,0,1-.506-1.511v-4.858h-.959a.3.3,0,0,1-.212-.076.288.288,0,0,1-.083-.234V148.8l1.3-.166.325-2.455a.289.289,0,0,1,.1-.189.31.31,0,0,1,.219-.076h.7v2.735h2.274v1.012h-2.274v4.767a1.047,1.047,0,0,0,.242.748.854.854,0,0,0,.627.242,1.131,1.131,0,0,0,.378-.06,1.933,1.933,0,0,0,.28-.128c.076-.045.144-.091.2-.128a.28.28,0,0,1,.144-.06c.076,0,.136.045.2.136l.408.665a2.579,2.579,0,0,1-.869.529,2.934,2.934,0,0,1-1.05.189Z" transform="translate(-259.607 -69.817)" fill="#1d1d1b"/>
          <path id="Path_140" data-name="Path 140" d="M384.634,149.155a3.539,3.539,0,0,1,1.315.242,3.059,3.059,0,0,1,1.043.688,3.178,3.178,0,0,1,.688,1.111,4.253,4.253,0,0,1,.249,1.511.944.944,0,0,1-.068.438.283.283,0,0,1-.264.106h-5.288a4.164,4.164,0,0,0,.2,1.307,2.636,2.636,0,0,0,.521.929,2.141,2.141,0,0,0,.786.559,2.726,2.726,0,0,0,1.02.181,2.961,2.961,0,0,0,.907-.121,4.569,4.569,0,0,0,.657-.264,4.737,4.737,0,0,0,.461-.264.578.578,0,0,1,.317-.121.3.3,0,0,1,.264.136l.393.506a2.526,2.526,0,0,1-.62.544,3.646,3.646,0,0,1-.771.378,5.249,5.249,0,0,1-.854.227,4.881,4.881,0,0,1-.869.076,3.966,3.966,0,0,1-1.519-.28,3.46,3.46,0,0,1-1.2-.816,3.676,3.676,0,0,1-.786-1.33,5.392,5.392,0,0,1-.28-1.821,4.5,4.5,0,0,1,.257-1.549,3.837,3.837,0,0,1,.733-1.254,3.37,3.37,0,0,1,1.171-.831,3.777,3.777,0,0,1,1.549-.3Zm.03,1.027a2.176,2.176,0,0,0-1.594.582,2.745,2.745,0,0,0-.718,1.617h4.321a2.793,2.793,0,0,0-.136-.891,1.96,1.96,0,0,0-.393-.7,1.745,1.745,0,0,0-.635-.453,2.151,2.151,0,0,0-.854-.159Z" transform="translate(-261.58 -70.607)" fill="#1d1d1b"/>
          <path id="Path_141" data-name="Path 141" d="M392.54,157.229v-7.94h.831a.361.361,0,0,1,.378.287l.106.816a4,4,0,0,1,.982-.884,2.349,2.349,0,0,1,1.269-.348,1.9,1.9,0,0,1,1.307.446,2.482,2.482,0,0,1,.718,1.209,2.442,2.442,0,0,1,.438-.748,2.8,2.8,0,0,1,.6-.521,2.481,2.481,0,0,1,.718-.295,3.306,3.306,0,0,1,.771-.091,3.043,3.043,0,0,1,1.118.2,2.153,2.153,0,0,1,.831.582,2.657,2.657,0,0,1,.521.944,4.185,4.185,0,0,1,.181,1.284v5.054h-1.4v-5.054a2.129,2.129,0,0,0-.408-1.413,1.454,1.454,0,0,0-1.186-.484,1.778,1.778,0,0,0-.657.121,1.543,1.543,0,0,0-.544.355,1.668,1.668,0,0,0-.37.589,2.294,2.294,0,0,0-.136.823v5.054h-1.4v-5.054a2.236,2.236,0,0,0-.385-1.428,1.347,1.347,0,0,0-1.118-.468,1.734,1.734,0,0,0-.959.28,3.161,3.161,0,0,0-.808.755v5.923h-1.4Z" transform="translate(-264.417 -70.612)" fill="#1d1d1b"/>
          <path id="Path_142" data-name="Path 142" d="M413.913,150.6a.309.309,0,0,1-.287.174.589.589,0,0,1-.264-.083,4.173,4.173,0,0,0-.876-.385,2.4,2.4,0,0,0-.7-.091,2.077,2.077,0,0,0-.635.091,1.54,1.54,0,0,0-.484.249,1.168,1.168,0,0,0-.31.363,1,1,0,0,0-.106.453.762.762,0,0,0,.174.506,1.66,1.66,0,0,0,.468.355,3.726,3.726,0,0,0,.657.264c.242.076.5.159.755.242s.514.181.755.287a2.571,2.571,0,0,1,.657.393,1.822,1.822,0,0,1,.468.574,1.712,1.712,0,0,1,.174.816,2.628,2.628,0,0,1-.2,1.012,2.193,2.193,0,0,1-.582.808,2.733,2.733,0,0,1-.944.536,4.294,4.294,0,0,1-2.788-.076,3.758,3.758,0,0,1-1.148-.7l.332-.536a.508.508,0,0,1,.151-.159.42.42,0,0,1,.227-.053.5.5,0,0,1,.295.113c.1.076.234.151.378.242a2.536,2.536,0,0,0,1.337.355,2.231,2.231,0,0,0,.71-.106,1.431,1.431,0,0,0,.506-.287,1.154,1.154,0,0,0,.3-.416,1.249,1.249,0,0,0,.1-.5.853.853,0,0,0-.174-.544,1.564,1.564,0,0,0-.468-.37,3.586,3.586,0,0,0-.665-.264c-.249-.076-.5-.159-.763-.242s-.514-.181-.763-.287a2.779,2.779,0,0,1-.665-.4,1.828,1.828,0,0,1-.468-.6,1.9,1.9,0,0,1-.174-.869,2.08,2.08,0,0,1,.189-.876,2.185,2.185,0,0,1,.552-.74,2.793,2.793,0,0,1,.884-.506,3.457,3.457,0,0,1,1.2-.189,3.756,3.756,0,0,1,1.405.249,3.369,3.369,0,0,1,1.08.68l-.317.506Z" transform="translate(-268.368 -70.612)" fill="#1d1d1b"/>
        </g>
      </g>
    </g>
  </g>
</svg>
