<svg xmlns="http://www.w3.org/2000/svg" width="350" height="200" viewBox="0 0 350 200"><g transform="translate(-190 -242)"><rect width="350" height="200" transform="translate(190 242)" fill="rgba(215,199,222,0.14)"/><g transform="translate(2)"><g transform="translate(415.777 316)"><rect width="82.593" height="52.719" rx="7" fill="#195f8c"/><line y2="52.719" transform="translate(30.753)" fill="none" stroke="#ffe26a" stroke-width="9"/><line x1="82.593" transform="translate(0 26.36)" fill="none" stroke="#ffe26a" stroke-width="9"/></g><g transform="translate(-29 -37)"><g transform="translate(269.622 352.816)"><g transform="translate(22.726)"><path d="M11.512,13.812,0,18.22V0L11.512,3.967Z" fill="#804998" fill-rule="evenodd"/></g><g transform="translate(12.41 0.147)"><path d="M0,2.939v11.9l8.522,3.233V0ZM.9,13.959l-.448-.147V3.967L.9,3.82l.449-.147.449-.147V14.253l-.449-.147Zm2.243.588-.6-.147V3.379l.6-.147.6-.147.6-.147V14.988l-.6-.147Zm2.691.882-.748-.294V2.645L5.831,2.5,6.578,2.2l.9-.294V15.869l-.9-.294Z" fill="#804998" fill-rule="evenodd"/></g><g transform="translate(49.489)"><path d="M11.512,13.812,0,18.22V0L11.512,3.967Z" fill="#804998" fill-rule="evenodd"/></g><g transform="translate(39.172 0.147)"><path d="M0,2.939v11.9l8.522,3.233V0ZM.9,13.959l-.449-.147V3.967L.9,3.82l.449-.147.448-.147V14.253l-.448-.147Zm2.243.588-.6-.147V3.379l.6-.147.6-.147.6-.147V14.988l-.6-.147Zm2.691.882-.747-.294V2.645L5.831,2.5,6.579,2.2l.9-.294V15.869l-.9-.294Z" fill="#804998" fill-rule="evenodd"/></g><g transform="translate(22.726 36.147)"><path d="M11.512,13.812,0,18.22V0L11.512,3.967Z" fill="#804998" fill-rule="evenodd"/></g><g transform="translate(12.41 36.294)"><path d="M0,2.939v11.9l8.522,3.233V0ZM.9,13.959l-.448-.147V3.967L.9,3.821l.449-.147.449-.147V14.253l-.449-.147Zm2.243.588-.6-.147V3.38l.6-.147.6-.147.6-.147V14.988l-.6-.147Zm2.691.881-.748-.294V2.645L5.831,2.5,6.578,2.2l.9-.294V15.87l-.9-.294Z" fill="#804998" fill-rule="evenodd"/></g><g transform="translate(49.489 36.147)"><path d="M11.512,13.812,0,18.22V0L11.512,3.967Z" fill="#804998" fill-rule="evenodd"/></g><g transform="translate(39.172 36.294)"><path d="M0,2.939v11.9l8.522,3.233V0ZM.9,13.959l-.449-.147V3.967L.9,3.821l.449-.147.448-.147V14.253l-.448-.147Zm2.243.588-.6-.147V3.38l.6-.147.6-.147.6-.147V14.988l-.6-.147Zm2.691.881-.747-.294V2.645L5.831,2.5,6.579,2.2l.9-.294V15.87l-.9-.294Z" fill="#804998" fill-rule="evenodd"/></g><g transform="translate(37.079 18.074)"><path d="M11.363,13.812,0,18.074V0L11.363,3.967Z" fill="#804998" fill-rule="evenodd"/></g><g transform="translate(26.613 18.074)"><path d="M0,2.939v11.9l8.522,3.233V0ZM.9,13.959l-.448-.147V3.967L.9,3.82l.449-.147.449-.147V14.253l-.449-.147Zm2.243.735-.6-.147V3.526l.6-.147.6-.147.6-.147V15.135l-.6-.147Zm2.691.881-.748-.294V2.792l.748-.147.748-.294.9-.294V16.016l-.9-.294Z" fill="#804998" fill-rule="evenodd"/></g><g transform="translate(10.466 18.074)"><path d="M11.363,13.812,0,18.074V0L11.363,3.967Z" fill="#804998" fill-rule="evenodd"/></g><g transform="translate(0 18.074)"><path d="M0,2.939v11.9l8.522,3.233V0ZM.9,13.959l-.449-.147V3.967L.9,3.82l.448-.147.449-.147V14.253l-.449-.147Zm2.243.735-.6-.147V3.526l.6-.147.6-.147.6-.147V15.135l-.6-.147Zm2.691.881-.748-.294V2.792l.748-.147.748-.294.9-.294V16.016l-.9-.294Z" fill="#804998" fill-rule="evenodd"/></g><g transform="translate(63.393 18.074)"><path d="M11.363,13.812,0,18.074V0L11.363,3.967Z" fill="#804998" fill-rule="evenodd"/></g><g transform="translate(22.726)"><path d="M11.512,13.812,0,18.22V0L11.512,3.967Z" fill="#fff" fill-rule="evenodd" opacity="0.2"/></g><g transform="translate(49.489)"><path d="M11.512,13.812,0,18.22V0L11.512,3.967Z" fill="#fff" fill-rule="evenodd" opacity="0.2"/></g><g transform="translate(22.726 36.147)"><path d="M11.512,13.812,0,18.22V0L11.512,3.967Z" fill="#fff" fill-rule="evenodd" opacity="0.2"/></g><g transform="translate(49.489 36.147)"><path d="M11.512,13.812,0,18.22V0L11.512,3.967Z" fill="#fff" fill-rule="evenodd" opacity="0.2"/></g><g transform="translate(37.079 18.074)"><path d="M11.363,13.812,0,18.074V0L11.363,3.967Z" fill="#fff" fill-rule="evenodd" opacity="0.2"/></g><g transform="translate(10.466 18.074)"><path d="M11.363,13.812,0,18.074V0L11.363,3.967Z" fill="#fff" fill-rule="evenodd" opacity="0.2"/></g><g transform="translate(63.393 18.074)"><path d="M11.363,13.812,0,18.074V0L11.363,3.967Z" fill="#fff" fill-rule="evenodd" opacity="0.2"/></g><g transform="translate(52.927 18.074)"><path d="M0,2.939v11.9l8.522,3.233V0ZM.9,13.959l-.449-.147V3.967L.9,3.82l.449-.147.449-.147V14.253l-.449-.147Zm2.243.735-.6-.147V3.526l.6-.147.6-.147.6-.147V15.135l-.6-.147Zm2.691.881-.747-.294V2.792l.747-.147.748-.294.9-.294V16.016l-.9-.294Z" fill="#804998" fill-rule="evenodd"/></g></g><circle cx="49.5" cy="49.5" r="49.5" transform="translate(257 330)" fill="rgba(154,109,173,0.35)"/></g><line x2="26" transform="translate(352.5 342.5)" fill="none" stroke="#c3c3c3" stroke-linecap="square" stroke-width="17"/><g transform="translate(399 316) rotate(90)" fill="#c3c3c3"><path d="M 50.90258026123047 32.203125 L 2.097421884536743 32.203125 C 1.899841904640198 32.203125 1.731121897697449 32.09665679931641 1.646091938018799 31.91830444335938 C 1.561061859130859 31.73996543884277 1.584551930427551 31.54184532165527 1.70894193649292 31.38834571838379 L 26.11153221130371 1.273594856262207 C 26.20691108703613 1.155884861946106 26.34850120544434 1.088384866714478 26.50000190734863 1.088384866714478 C 26.65150260925293 1.088384866714478 26.79309272766113 1.155884861946106 26.88847160339355 1.273594856262207 L 51.29106140136719 31.38834571838379 C 51.41544342041016 31.54184532165527 51.43894195556641 31.73995399475098 51.35391235351562 31.91830444335938 C 51.26888275146484 32.09664535522461 51.10016250610352 32.203125 50.90258026123047 32.203125 Z" stroke="none"/><path d="M 26.50000190734863 1.588375091552734 L 2.097415924072266 31.7031192779541 C 2.097415924072266 31.70312118530273 2.097415924072266 31.70312309265137 2.097412109375 31.703125 L 50.9025764465332 31.703125 C 50.9025764465332 31.70312309265137 50.9025764465332 31.70312309265137 50.90258026123047 31.703125 L 26.50179100036621 1.588554382324219 C 26.50162124633789 1.588504791259766 26.50094223022461 1.588375091552734 26.50000190734863 1.588375091552734 M 26.50000190734863 0.58837890625 C 26.78841781616211 0.58837890625 27.07683181762695 0.71185302734375 27.27694129943848 0.9588050842285156 L 51.67952346801758 31.07355499267578 C 52.20926284790039 31.72728538513184 51.74400329589844 32.703125 50.90258026123047 32.703125 L 2.097412109375 32.703125 C 1.255992889404297 32.703125 0.790740966796875 31.72728538513184 1.320472717285156 31.07355499267578 L 25.72306251525879 0.9588050842285156 C 25.92317199707031 0.71185302734375 26.21158599853516 0.58837890625 26.50000190734863 0.58837890625 Z" stroke="none" fill="#c3c3c3"/></g></g></g></svg>