<svg xmlns="http://www.w3.org/2000/svg" xmlns:xlink="http://www.w3.org/1999/xlink" width="350" height="200" viewBox="0 0 350 200"><defs><clipPath id="a"><path fill="rgba(25,95,140,0.1)" d="M0 0h64.2v27.91H0z"/></clipPath><clipPath id="g"><path d="M0 0h350v200H0z"/></clipPath></defs><g id="f" clip-path="url(#g)"><path fill="#fff" d="M0 0h350v200H0z"/><path fill="rgba(25,95,140,0.1)" d="M0 0h350v200H0z"/><path fill="#195f8c" d="m228.6 81.71-49.12-15.1a14 14 0 0 0-8.24 0l-49.13 15.1a4.15 4.15 0 0 0 0 8.03l8.56 2.63a14 14 0 0 0-3.14 8.26 5.43 5.43 0 0 0-.45 9.34l-4.5 20.23a2.82 2.82 0 0 0 2.75 3.43h9.88a2.82 2.82 0 0 0 2.75-3.43l-4.5-20.23a5.42 5.42 0 0 0-.32-9.25 8.3 8.3 0 0 1 3.66-6.47l34.44 10.58a14 14 0 0 0 8.24 0l49.12-15.09a4.15 4.15 0 0 0 0-8.03m-47.47 28.51a19.7 19.7 0 0 1-11.55 0l-25.54-7.84-2.5 19.98c0 6.22 15.14 11.27 33.81 11.27s33.82-5.05 33.82-11.27l-2.5-19.99Z"/><g transform="rotate(-10.02 -570.718 1820.272)"><path fill="rgba(25,95,140,0.1)" d="M430.67 142.26a11.2 11.2 0 0 1 7.7 3.08 11 11 0 0 1 2.74 4.05 12 12 0 0 1 .6 2.4q.15 1.08.25 2.16a6.9 6.9 0 0 0 5 5.92 6 6 0 0 0 2.38.13 6.4 6.4 0 0 0 3.52-1.61l.53-.52a1.2 1.2 0 0 1 1.08-.35 1 1 0 0 1 .49.23c.54.4 1.07.83 1.62 1.2a1.3 1.3 0 0 1 .22 2 10 10 0 0 1-1.46 1.38 10.6 10.6 0 0 1-5.1 2.2 11 11 0 0 1-9.7-3.13 1.5 1.5 0 0 0-.67-.45 1.1 1.1 0 0 0-1.13.32 12 12 0 0 1-1.43 1.25 11 11 0 0 1-5.03 2.04 11 11 0 0 1-1.75.12 11 11 0 0 1-6.8-2.44 11 11 0 0 1-3.87-5.82 11 11 0 0 1-.38-3.36 11 11 0 0 1 3.03-7.24 11 11 0 0 1 6.24-3.38 14 14 0 0 1 1.92-.17m6.55 11.25a7 7 0 0 0-.2-1.67 6.3 6.3 0 0 0-2.92-3.97 6.4 6.4 0 0 0-4.51-.9 6.3 6.3 0 0 0-3.62 1.9 6.4 6.4 0 0 0-1.72 6 6.6 6.6 0 0 0 6.12 5.19 6.3 6.3 0 0 0 3.35-.74 6.4 6.4 0 0 0 3.5-5.81m21.9.4v-9.83a3 3 0 0 1 .16-.9 1.2 1.2 0 0 1 .83-.8 3 3 0 0 1 .88-.12h8.26a9 9 0 0 1 3.03.57 6 6 0 0 1 2.3 1.5 5.6 5.6 0 0 1 1.3 2.28 8 8 0 0 1 .28 1.77 6.5 6.5 0 0 1-.65 3.3 4 4 0 0 1-1.77 1.87l-.47.22q-.26.14 0 .28a3 3 0 0 1 .7.47 4 4 0 0 1 1.07 1.58 18 18 0 0 1 .64 2.2l1.43 5.55a1 1 0 0 1 .03.38.4.4 0 0 1-.33.4 1 1 0 0 1-.35.05h-3.2a3 3 0 0 1-.55-.06.9.9 0 0 1-.75-.72l-.34-1.4q-.51-2.1-1.05-4.2a5 5 0 0 0-.72-1.6 2.6 2.6 0 0 0-1.6-1 5 5 0 0 0-1.08-.1h-3q-.16 0-.15.16v8.18l-.01.35a.35.35 0 0 1-.32.35l-.48.05h-3.16a1 1 0 0 1-.33-.04.7.7 0 0 1-.6-.72v-.2Zm4.95-4.81v2.33c0 .23 0 .23.24.23h4.06a3 3 0 0 0 1.3-.23 2.3 2.3 0 0 0 1.4-1.56 3 3 0 0 0 .09-1.04 2.2 2.2 0 0 0-1-1.82 2.7 2.7 0 0 0-1.5-.43h-4.46q-.14 0-.12.13zm24.28-6.85h4.62a2 2 0 0 1 .4.05.34.34 0 0 1 .28.27l.05.35v2.9l-.03.29a.4.4 0 0 1-.35.34l-.33.03h-7.91a3 3 0 0 0-1.13.14 1.5 1.5 0 0 0-1 1.22 4 4 0 0 0-.05.73v1.4a.9.9 0 0 0 .8.89 4 4 0 0 0 .64.04h7.89a.4.4 0 0 1 .42.4l.05.68v2.92a6 6 0 0 1-.05.73.4.4 0 0 1-.42.4h-8.15a2 2 0 0 0-.6.1.8.8 0 0 0-.57.77q-.02.95 0 1.88a1.7 1.7 0 0 0 .5 1.2 1.7 1.7 0 0 0 .86.42 3 3 0 0 0 .68.06h8.2a.5.5 0 0 1 .54.46v3.11a1 1 0 0 1-.05.35.4.4 0 0 1-.28.26l-.43.04h-9.05a7 7 0 0 1-2.63-.48 4.7 4.7 0 0 1-2.47-2.2 6 6 0 0 1-.7-2.21 11 11 0 0 1-.07-1.33v-10.28a7 7 0 0 1 .46-2.65 5 5 0 0 1 2.26-2.55 6 6 0 0 1 2.1-.64 14 14 0 0 1 1.9-.1Zm-39.92 0a11.3 11.3 0 0 1 7.17 2.57 1.33 1.33 0 0 1 .1 2.04q-.64.67-1.32 1.33a1.33 1.33 0 0 1-1.8.1 7 7 0 0 0-1.12-.7 6.6 6.6 0 0 0-6.55.35 1 1 0 0 1-.65.18.8.8 0 0 1-.73-.53q-.24-.54-.54-1.06a11 11 0 0 0-.8-1.26.83.83 0 0 1 .24-1.23 11 11 0 0 1 4.4-1.65q.83-.1 1.6-.13m-183.78 11.37.08-.43a3.2 3.2 0 0 1 .92-1.74l7.53-7.53a3.3 3.3 0 0 1 4.7.01l2.85 2.86.12.12a10 10 0 0 1 8.32-3.18 9.8 9.8 0 0 1 6.7 3.42 10.07 10.07 0 0 1-.5 13.8 10 10 0 0 1-7.32 2.91 10 10 0 0 1-7.2-3.24l-.12.14-2.85 2.85a3.3 3.3 0 0 1-1.75.94l-.39.07h-.47l-.26-.05a3.2 3.2 0 0 1-1.8-.9l-7.59-7.58a3 3 0 0 1-.88-1.71l-.09-.46Zm16.21-6.69a10.05 10.05 0 0 0 0 13.69l.08-.07.5-.5 3.91-3.91a3.3 3.3 0 0 0 .01-4.72l-4.39-4.39zm64.95 15.77q-.36.13-.73.22a4.5 4.5 0 0 1-2.26-.08 3.3 3.3 0 0 1-2.32-2.33 5 5 0 0 1-.2-1.58v-7.18h-2.2v-1.8h2.2v-3.24c.1-.04 1.92-.05 2.16-.02v3.26h3.24a16 16 0 0 1 .02 1.8q-.27.02-.53 0h-2.7v7.13a3 3 0 0 0 .1.86 1.7 1.7 0 0 0 1.58 1.33 4 4 0 0 0 1.65-.26Zm-40.7-5.79h2.26l.1.55a4.4 4.4 0 0 0 1.03 2.19 4 4 0 0 0 2.04 1.18 5.6 5.6 0 0 0 3.28-.13 3 3 0 0 0 1.55-1.1 2.6 2.6 0 0 0 .48-1.73 2.5 2.5 0 0 0-1.1-1.95 6 6 0 0 0-1.53-.8q-1.06-.37-2.15-.67a20 20 0 0 1-2.43-.82 6 6 0 0 1-1.62-.98 3.8 3.8 0 0 1-1.34-2.51 5 5 0 0 1 .2-2.13 4.3 4.3 0 0 1 1.81-2.25 6 6 0 0 1 2.16-.85 8.6 8.6 0 0 1 4.08.17 5.4 5.4 0 0 1 2.63 1.64 5.6 5.6 0 0 1 1.22 2.48l.12.62c-.1.04-1.98.05-2.3.02q0-.1-.04-.2a3.5 3.5 0 0 0-2.5-2.66 5.3 5.3 0 0 0-3.32.07 2.6 2.6 0 0 0-1.28.9 2.3 2.3 0 0 0-.38 2.04 2 2 0 0 0 .56.9 4 4 0 0 0 .96.62 13 13 0 0 0 1.83.65l2.42.7a9 9 0 0 1 1.92.83 5 5 0 0 1 1.38 1.11 4.3 4.3 0 0 1 .98 2.19 6 6 0 0 1 0 1.9 4.5 4.5 0 0 1-1.73 2.79 6 6 0 0 1-2.46 1.12 9 9 0 0 1-4.45-.13 6 6 0 0 1-2.84-1.79 6 6 0 0 1-1.35-2.69 8 8 0 0 1-.2-1.28m32.95 5.91h-2.5a.3.3 0 0 1-.22-.11l-4.66-6.17-.13-.18-.12.1-1.66 1.53a.3.3 0 0 0-.1.25v4.56h-2.2v-18.03a27 27 0 0 1 2.2 0v10.48l.12-.1 2.87-2.55 2.88-2.55a.4.4 0 0 1 .28-.1h2.73l.01.03-5.38 4.9Zm-15.02-.01h-2.16v-.02h-.02v-12.82a22 22 0 0 1 2.18 0Zm-2.6-16.8a1.43 1.43 0 0 1 1.42-1.46 2 2 0 0 1 .7.13 1.4 1.4 0 0 1 .84 1.52 1.45 1.45 0 0 1-1.65 1.25 1.4 1.4 0 0 1-1.19-.8 1.3 1.3 0 0 1-.13-.63"/><g clip-path="url(#a)" transform="translate(513.258 140.121)"><path fill="rgba(25,95,140,0.1)" d="M12.94 14.49a2 2 0 0 1 1.22-.57.94.94 0 0 1 1.06.9c-.17.08-3.66 1.22-3.83 1.3-.08-.09-.08-.17-.16-.17.16-.16 1.7-1.46 1.7-1.46M0 21.97c0 3.91 1.7 5.94 5.13 5.94a5.8 5.8 0 0 0 3.66-1.06l.08-.08v-5.45H4.23v1.55H7v3.09a4 4 0 0 1-1.95.4c-2.04 0-3.01-1.46-3.01-4.39 0-1.7.48-3.74 2.76-3.74 1.55 0 2.12.9 2.12 1.7v.25h2.11v-.24c0-1.96-1.7-3.26-4.23-3.26-3.01 0-4.8 1.95-4.8 5.3m16.44-5.13h-6.19v10.9h6.6V26.2h-4.72v-3.4h4.3v-1.55h-4.3v-2.93h4.55v-1.55h-.24Zm27.91 0h-9.44v8.05c-.73-1.3-4.63-8.05-4.63-8.05h-2.2v10.9h1.87v-8.06c.73 1.3 4.64 8.06 4.64 8.06h2.2v-9.36h3v9.36h1.96v-9.36h2.93v-1.55Zm-20.83 0h-2.04l-4.07 10.9h1.96s1.06-2.85 1.22-3.18h3.99a88 88 0 0 0 1.22 3.18h1.87Zm-2.45 6.18c.17-.57 1.14-3.17 1.47-4.07.33.9 1.22 3.5 1.46 4.07Z"/><path fill="rgba(25,95,140,0.1)" d="M62.66 6.51c-7.16-8.87-36.13 3.66-43.94 6.92a1.25 1.25 0 0 1-1.71-.65 1.27 1.27 0 0 0 1.79.81C29.13 9.44 54.12.49 60.38 8.71c2.85 3.74 2.04 8.3-1.06 14.73a2 2 0 0 0-.24.48v.17a1.4 1.4 0 0 1-.81.65 1.3 1.3 0 0 0 1.05-.65l.33-.5c4.4-7.72 6.02-13.42 3.01-17.08"/><path fill="rgba(25,95,140,0.1)" d="M57.2 24.33c-.07-.08-1.37-1.22-2.68-2.44-6.75-6.43-27.34-26.2-36.29-21-2.52 1.47-2.93 5.78-1.38 11.47 0 .09.08.17.08.25a1.2 1.2 0 0 0 1.14.98 1.3 1.3 0 0 1-.9-.82.3.3 0 0 0-.08-.16c0-.08-.08-.16-.08-.33 0-.08 0-.16-.09-.16-.81-4.8.17-7.98 2.12-9.28 7.24-4.88 24.5 10.01 33.2 17.5 1.95 1.71 4.23 3.66 4.88 4.15a1.36 1.36 0 0 0 2.04-.49 1.3 1.3 0 0 1-1.95.33"/></g><g transform="translate(367.486 133)"><text fill="rgba(25,95,140,0.1)" font-family="Helvetica" font-size="9" transform="translate(.047 38.933)"><tspan x="0" y="0">SUNET</tspan></text><path fill="rgba(25,95,140,0.1)" d="M3.48 16.29V3.82c0-.1.2-.35.35-.35h28.39V0H3.82C2.4 0 .03.5.03 3.82v12.47a3.54 3.54 0 0 0 3.81 3.82h17.63v-3.47H3.83a.4.4 0 0 1-.35-.35"/><path fill="rgba(25,95,140,0.1)" d="M28.78 12.12v12.46c0 .1-.2.35-.34.35H.06v3.47h28.38c1.42 0 3.82-.5 3.82-3.82V12.12a3.54 3.54 0 0 0-3.82-3.82H10.81v3.46h17.63a.4.4 0 0 1 .35.35Z"/></g><path fill="rgba(25,95,140,0.1)" d="m425.73 205.31.08-.43a3.2 3.2 0 0 1 .92-1.74l7.53-7.53a3.3 3.3 0 0 1 4.69.01l2.86 2.86.12.12a10 10 0 0 1 8.32-3.18 9.8 9.8 0 0 1 6.7 3.42 10.07 10.07 0 0 1-.5 13.8 10 10 0 0 1-7.32 2.91 10 10 0 0 1-7.21-3.24l-.11.14-2.85 2.85a3.3 3.3 0 0 1-1.75.94l-.39.07h-.47l-.26-.05a3.2 3.2 0 0 1-1.81-.9l-7.58-7.58a3 3 0 0 1-.88-1.7l-.09-.47Zm16.21-6.69a10.05 10.05 0 0 0 0 13.7l.08-.08.5-.5 3.91-3.9a3.3 3.3 0 0 0 .01-4.73l-4.39-4.39zm64.95 15.77q-.36.13-.73.22a4.5 4.5 0 0 1-2.26-.08 3.3 3.3 0 0 1-2.32-2.33 5 5 0 0 1-.2-1.58v-7.18h-2.2v-1.8h2.19v-3.24c.11-.04 1.93-.05 2.17-.02v3.26h3.24a16 16 0 0 1 .02 1.8q-.27.02-.53 0h-2.7l-.01.15v6.98a3 3 0 0 0 .11.86 1.7 1.7 0 0 0 1.58 1.33 4 4 0 0 0 1.65-.26Zm-40.7-5.79h2.26l.09.55a4.4 4.4 0 0 0 1.04 2.2 4 4 0 0 0 2.04 1.17 5.6 5.6 0 0 0 3.28-.13 3 3 0 0 0 1.55-1.1 2.6 2.6 0 0 0 .48-1.73 2.5 2.5 0 0 0-1.1-1.95 6 6 0 0 0-1.53-.8q-1.06-.37-2.15-.67a20 20 0 0 1-2.43-.82 6 6 0 0 1-1.62-.98 3.8 3.8 0 0 1-1.34-2.5 5 5 0 0 1 .2-2.14 4.3 4.3 0 0 1 1.81-2.25 6 6 0 0 1 2.16-.85 8.6 8.6 0 0 1 4.08.17 5.4 5.4 0 0 1 2.63 1.64 5.6 5.6 0 0 1 1.22 2.48l.12.62c-.11.04-1.98.05-2.3.02l-.04-.2a3.5 3.5 0 0 0-2.5-2.66 5.3 5.3 0 0 0-3.32.07 2.6 2.6 0 0 0-1.28.9 2.3 2.3 0 0 0-.38 2.04 2 2 0 0 0 .56.9 4 4 0 0 0 .96.62 13 13 0 0 0 1.83.65l2.42.7a9 9 0 0 1 1.92.83 5 5 0 0 1 1.38 1.11 4.3 4.3 0 0 1 .98 2.2 6 6 0 0 1-.01 1.9 4.5 4.5 0 0 1-1.72 2.78 6 6 0 0 1-2.46 1.12 9 9 0 0 1-4.45-.13 6 6 0 0 1-2.84-1.79 6 6 0 0 1-1.35-2.69 8 8 0 0 1-.2-1.28m32.95 5.91h-2.5a.3.3 0 0 1-.22-.1l-4.66-6.18-.13-.18-.12.1-1.66 1.53a.3.3 0 0 0-.11.25v4.56h-2.2v-18.03a27 27 0 0 1 2.2 0v10.48l.13-.1 2.87-2.55 2.88-2.55a.4.4 0 0 1 .28-.1h2.73l.01.03-5.38 4.9Zm-15.02 0h-2.16l-.01-.03h-.01v-12.82a22 22 0 0 1 2.18 0Zm-2.6-16.8a1.43 1.43 0 0 1 1.42-1.47 2 2 0 0 1 .7.13 1.4 1.4 0 0 1 .84 1.52 1.45 1.45 0 0 1-1.65 1.25 1.4 1.4 0 0 1-1.19-.8 1.3 1.3 0 0 1-.13-.63"/><g transform="translate(524.877 184.181)"><text fill="rgba(25,95,140,0.1)" font-family="Helvetica" font-size="9" transform="translate(.047 38.933)"><tspan x="0" y="0">SUNET</tspan></text><path fill="rgba(25,95,140,0.1)" d="M3.48 16.29V3.82c0-.1.2-.35.35-.35h28.39V0H3.82C2.4 0 .03.5.03 3.82v12.47a3.54 3.54 0 0 0 3.81 3.82h17.63v-3.47H3.83a.4.4 0 0 1-.35-.35"/><path fill="rgba(25,95,140,0.1)" d="M28.78 12.12v12.46c0 .1-.2.35-.34.35H.06v3.47h28.38c1.42 0 3.82-.5 3.82-3.82V12.12a3.54 3.54 0 0 0-3.82-3.82H10.81v3.46h17.63a.4.4 0 0 1 .35.35Z"/></g><path fill="rgba(25,95,140,0.1)" d="M257.68 193.36a11.2 11.2 0 0 1 7.7 3.08 11 11 0 0 1 2.74 4.05 12 12 0 0 1 .6 2.4q.15 1.08.25 2.16a6.9 6.9 0 0 0 5 5.92 6 6 0 0 0 2.38.13 6.4 6.4 0 0 0 3.52-1.61l.53-.52a1.2 1.2 0 0 1 1.08-.35 1 1 0 0 1 .5.23c.53.4 1.06.83 1.61 1.2a1.3 1.3 0 0 1 .22 2 10 10 0 0 1-1.46 1.38 10.6 10.6 0 0 1-5.1 2.2 11 11 0 0 1-9.69-3.13 1.5 1.5 0 0 0-.68-.45 1.1 1.1 0 0 0-1.13.32 12 12 0 0 1-1.43 1.25 11 11 0 0 1-5.03 2.04 11 11 0 0 1-1.75.12 11 11 0 0 1-6.8-2.44 11 11 0 0 1-3.87-5.82 11 11 0 0 1-.38-3.36 11 11 0 0 1 3.03-7.24 11 11 0 0 1 6.24-3.38 14 14 0 0 1 1.92-.17m6.55 11.25a7 7 0 0 0-.2-1.67 6.3 6.3 0 0 0-2.92-3.97 6.4 6.4 0 0 0-4.5-.9 6.3 6.3 0 0 0-3.63 1.9 6.4 6.4 0 0 0-1.72 6 6.6 6.6 0 0 0 6.12 5.19 6.3 6.3 0 0 0 3.35-.74 6.4 6.4 0 0 0 3.5-5.81m21.91.4v-9.83a3 3 0 0 1 .15-.9 1.2 1.2 0 0 1 .83-.8 3 3 0 0 1 .88-.12h8.26a9 9 0 0 1 3.03.57 6 6 0 0 1 2.3 1.5 5.6 5.6 0 0 1 1.3 2.28 8 8 0 0 1 .28 1.77 6.5 6.5 0 0 1-.65 3.3 4 4 0 0 1-1.77 1.87l-.47.22q-.26.14 0 .28a3 3 0 0 1 .71.47 4 4 0 0 1 1.06 1.58 18 18 0 0 1 .64 2.2l1.43 5.55a1 1 0 0 1 .03.38.4.4 0 0 1-.33.4 1 1 0 0 1-.35.05h-3.2a3 3 0 0 1-.55-.06.9.9 0 0 1-.75-.72l-.34-1.4q-.5-2.1-1.05-4.2a5 5 0 0 0-.72-1.6 2.6 2.6 0 0 0-1.6-1 5 5 0 0 0-1.08-.1h-3q-.16 0-.15.16v8.53a.35.35 0 0 1-.33.35l-.48.05h-3.16a1 1 0 0 1-.33-.04.7.7 0 0 1-.6-.72v-.2Zm4.94-4.81v2.33c0 .23 0 .23.24.23h4.06a3 3 0 0 0 1.3-.23 2.3 2.3 0 0 0 1.4-1.56 3 3 0 0 0 .1-1.04 2.2 2.2 0 0 0-1-1.82 2.7 2.7 0 0 0-1.5-.43h-4.47q-.14 0-.12.13zm24.28-6.85h4.62a2 2 0 0 1 .4.05.34.34 0 0 1 .28.27l.05.35v2.9l-.03.29a.4.4 0 0 1-.35.34l-.33.03h-7.9a3 3 0 0 0-1.14.14 1.5 1.5 0 0 0-1 1.22 4 4 0 0 0-.05.73v1.4a.9.9 0 0 0 .8.89 4 4 0 0 0 .64.04h7.9a.4.4 0 0 1 .41.4l.05.68V206a6 6 0 0 1-.05.73.4.4 0 0 1-.42.4h-8.15a2 2 0 0 0-.6.1.8.8 0 0 0-.57.77q-.02.95 0 1.88a1.7 1.7 0 0 0 .5 1.2 1.7 1.7 0 0 0 .86.42 3 3 0 0 0 .68.06h8.2a.5.5 0 0 1 .54.46l.01.19v2.92a1 1 0 0 1-.06.35.4.4 0 0 1-.28.26l-.43.04h-9.05a7 7 0 0 1-2.63-.48 4.7 4.7 0 0 1-2.47-2.2 6 6 0 0 1-.69-2.21 11 11 0 0 1-.08-1.33v-10.28a7 7 0 0 1 .46-2.65 5 5 0 0 1 2.26-2.55 6 6 0 0 1 2.1-.64 14 14 0 0 1 1.9-.1Zm-39.92 0a11.3 11.3 0 0 1 7.17 2.57 1.33 1.33 0 0 1 .1 2.04q-.64.67-1.32 1.33a1.33 1.33 0 0 1-1.8.1 7 7 0 0 0-1.12-.7 6.6 6.6 0 0 0-6.55.35 1 1 0 0 1-.65.18.8.8 0 0 1-.73-.53q-.24-.54-.54-1.06a11 11 0 0 0-.8-1.26.83.83 0 0 1 .24-1.23 11 11 0 0 1 4.41-1.65q.82-.1 1.6-.13"/><g clip-path="url(#a)" transform="translate(340.725 191.157)"><path fill="rgba(25,95,140,0.1)" d="M12.94 14.49a2 2 0 0 1 1.22-.57.94.94 0 0 1 1.06.9c-.17.08-3.66 1.22-3.83 1.3-.08-.09-.08-.17-.16-.17.16-.16 1.7-1.46 1.7-1.46M0 21.97c0 3.91 1.7 5.94 5.13 5.94a5.8 5.8 0 0 0 3.66-1.06l.08-.08v-5.45H4.23v1.55H7v3.09a4 4 0 0 1-1.95.4c-2.04 0-3.01-1.46-3.01-4.39 0-1.7.48-3.74 2.76-3.74 1.55 0 2.12.9 2.12 1.7v.25h2.11v-.24c0-1.96-1.7-3.26-4.23-3.26-3.01 0-4.8 1.95-4.8 5.3m16.44-5.13h-6.19v10.9h6.6V26.2h-4.72v-3.4h4.3v-1.55h-4.3v-2.93h4.55v-1.55h-.24Zm27.91 0h-9.44v8.05c-.73-1.3-4.63-8.05-4.63-8.05h-2.2v10.9h1.87v-8.06c.73 1.3 4.64 8.06 4.64 8.06h2.2v-9.36h3v9.36h1.96v-9.36h2.93v-1.55Zm-20.83 0h-2.04l-4.07 10.9h1.96s1.06-2.85 1.22-3.18h3.99a88 88 0 0 0 1.22 3.18h1.87Zm-2.45 6.18c.17-.57 1.14-3.17 1.47-4.07.33.9 1.22 3.5 1.46 4.07Z"/><path fill="rgba(25,95,140,0.1)" d="M62.66 6.51c-7.16-8.87-36.13 3.66-43.94 6.92a1.25 1.25 0 0 1-1.71-.65 1.27 1.27 0 0 0 1.79.81C29.13 9.44 54.12.49 60.38 8.71c2.85 3.74 2.04 8.3-1.06 14.73a2 2 0 0 0-.24.48v.17a1.4 1.4 0 0 1-.81.65 1.3 1.3 0 0 0 1.05-.65l.33-.5c4.4-7.72 6.02-13.42 3.01-17.08"/><path fill="rgba(25,95,140,0.1)" d="M57.2 24.33c-.07-.08-1.37-1.22-2.68-2.44-6.75-6.43-27.34-26.2-36.29-21-2.52 1.47-2.93 5.78-1.38 11.47 0 .09.08.17.08.25a1.2 1.2 0 0 0 1.14.98 1.3 1.3 0 0 1-.9-.82.3.3 0 0 0-.08-.16c0-.08-.08-.16-.08-.33 0-.08 0-.16-.09-.16-.81-4.8.17-7.98 2.12-9.28 7.24-4.88 24.5 10.01 33.2 17.5 1.95 1.71 4.23 3.66 4.88 4.15a1.36 1.36 0 0 0 2.04-.49 1.3 1.3 0 0 1-1.95.33"/></g><path fill="rgba(25,95,140,0.1)" d="m264.65 256.03.08-.43a3.2 3.2 0 0 1 .92-1.74l7.53-7.53a3.3 3.3 0 0 1 4.7.01l2.85 2.86.12.12a10 10 0 0 1 8.32-3.18 9.8 9.8 0 0 1 6.7 3.42 10.07 10.07 0 0 1-.5 13.8 10 10 0 0 1-7.32 2.91 10 10 0 0 1-7.2-3.24l-.12.14-2.85 2.85a3.3 3.3 0 0 1-1.75.94l-.39.07h-.47l-.26-.05a3.2 3.2 0 0 1-1.8-.9l-7.59-7.58a3 3 0 0 1-.88-1.7l-.09-.47Zm16.21-6.69a10.05 10.05 0 0 0 0 13.7l.08-.08.5-.5 3.91-3.9a3.3 3.3 0 0 0 .01-4.73l-4.39-4.39zm64.95 15.77q-.36.13-.73.22a4.5 4.5 0 0 1-2.26-.08 3.3 3.3 0 0 1-2.32-2.33 5 5 0 0 1-.2-1.58v-7.18h-2.2v-1.8h2.2v-3.24c.1-.04 1.92-.05 2.16-.02v3.26h3.24a16 16 0 0 1 .02 1.8q-.27.02-.53 0h-2.7v7.13a3 3 0 0 0 .1.86 1.7 1.7 0 0 0 1.58 1.33 4 4 0 0 0 1.65-.26Zm-40.7-5.79h2.26l.1.55a4.4 4.4 0 0 0 1.03 2.2 4 4 0 0 0 2.04 1.17 5.6 5.6 0 0 0 3.28-.13 3 3 0 0 0 1.55-1.1 2.6 2.6 0 0 0 .48-1.73 2.5 2.5 0 0 0-1.1-1.95 6 6 0 0 0-1.53-.8q-1.06-.37-2.15-.67a20 20 0 0 1-2.43-.82 6 6 0 0 1-1.62-.98 3.8 3.8 0 0 1-1.34-2.5 5 5 0 0 1 .2-2.14 4.3 4.3 0 0 1 1.81-2.25 6 6 0 0 1 2.16-.85 8.6 8.6 0 0 1 4.08.17 5.4 5.4 0 0 1 2.63 1.64 5.6 5.6 0 0 1 1.22 2.48l.12.62c-.1.04-1.98.05-2.3.02q0-.1-.04-.2a3.5 3.5 0 0 0-2.5-2.66 5.3 5.3 0 0 0-3.32.07 2.6 2.6 0 0 0-1.28.9 2.3 2.3 0 0 0-.38 2.04 2 2 0 0 0 .56.9 4 4 0 0 0 .96.62 13 13 0 0 0 1.83.65l2.42.7a9 9 0 0 1 1.92.83 5 5 0 0 1 1.38 1.11 4.3 4.3 0 0 1 .98 2.2 6 6 0 0 1 0 1.9 4.5 4.5 0 0 1-1.73 2.78 6 6 0 0 1-2.46 1.12 9 9 0 0 1-4.45-.13 6 6 0 0 1-2.84-1.79 6 6 0 0 1-1.35-2.69 8 8 0 0 1-.2-1.28m32.95 5.91h-2.5a.3.3 0 0 1-.22-.1l-4.66-6.18-.13-.18-.12.1-1.66 1.53a.3.3 0 0 0-.1.25v4.56h-2.2v-18.03a27 27 0 0 1 2.2 0v10.48l.12-.1 2.87-2.55 2.88-2.55a.4.4 0 0 1 .28-.1h2.73l.01.03-5.38 4.9Zm-15.02 0h-2.16v-.03h-.02v-12.82a22 22 0 0 1 2.18 0Zm-2.6-16.8a1.43 1.43 0 0 1 1.42-1.47 2 2 0 0 1 .7.13 1.4 1.4 0 0 1 .84 1.52 1.45 1.45 0 0 1-1.65 1.25 1.4 1.4 0 0 1-1.19-.8 1.3 1.3 0 0 1-.13-.63"/><g clip-path="url(#a)" transform="translate(513.258 242.543)"><path fill="rgba(25,95,140,0.1)" d="M12.94 14.49a2 2 0 0 1 1.22-.57.94.94 0 0 1 1.06.9c-.17.08-3.66 1.22-3.83 1.3-.08-.09-.08-.17-.16-.17.16-.16 1.7-1.46 1.7-1.46M0 21.97c0 3.91 1.7 5.94 5.13 5.94a5.8 5.8 0 0 0 3.66-1.06l.08-.08v-5.45H4.23v1.55H7v3.09a4 4 0 0 1-1.95.4c-2.04 0-3.01-1.46-3.01-4.39 0-1.7.48-3.74 2.76-3.74 1.55 0 2.12.9 2.12 1.7v.25h2.11v-.24c0-1.96-1.7-3.26-4.23-3.26-3.01 0-4.8 1.95-4.8 5.3m16.44-5.13h-6.19v10.9h6.6V26.2h-4.72v-3.4h4.3v-1.55h-4.3v-2.93h4.55v-1.55h-.24Zm27.91 0h-9.44v8.05c-.73-1.3-4.63-8.05-4.63-8.05h-2.2v10.9h1.87v-8.06c.73 1.3 4.64 8.06 4.64 8.06h2.2v-9.36h3v9.36h1.96v-9.36h2.93v-1.55Zm-20.83 0h-2.04l-4.07 10.9h1.96s1.06-2.85 1.22-3.18h3.99a88 88 0 0 0 1.22 3.18h1.87Zm-2.45 6.18c.17-.57 1.14-3.17 1.47-4.07.33.9 1.22 3.5 1.46 4.07Z"/><path fill="rgba(25,95,140,0.1)" d="M62.66 6.51c-7.16-8.87-36.13 3.66-43.94 6.92a1.25 1.25 0 0 1-1.71-.65 1.27 1.27 0 0 0 1.79.81C29.13 9.44 54.12.49 60.38 8.71c2.85 3.74 2.04 8.3-1.06 14.73a2 2 0 0 0-.24.48v.17a1.4 1.4 0 0 1-.81.65 1.3 1.3 0 0 0 1.05-.65l.33-.5c4.4-7.72 6.02-13.42 3.01-17.08"/><path fill="rgba(25,95,140,0.1)" d="M57.2 24.33c-.07-.08-1.37-1.22-2.68-2.44-6.75-6.43-27.34-26.2-36.29-21-2.52 1.47-2.93 5.78-1.38 11.47 0 .09.08.17.08.25a1.2 1.2 0 0 0 1.14.98 1.3 1.3 0 0 1-.9-.82.3.3 0 0 0-.08-.16c0-.08-.08-.16-.08-.33 0-.08 0-.16-.09-.16-.81-4.8.17-7.98 2.12-9.28 7.24-4.88 24.5 10.01 33.2 17.5 1.95 1.71 4.23 3.66 4.88 4.15a1.36 1.36 0 0 0 2.04-.49 1.3 1.3 0 0 1-1.95.33"/></g><g transform="translate(367.486 235.362)"><text fill="rgba(25,95,140,0.1)" font-family="Helvetica" font-size="9" transform="translate(.047 38.933)"><tspan x="0" y="0">SUNET</tspan></text><path fill="rgba(25,95,140,0.1)" d="M3.48 16.29V3.82c0-.1.2-.35.35-.35h28.39V0H3.82C2.4 0 .03.5.03 3.82v12.47a3.54 3.54 0 0 0 3.81 3.82h17.63v-3.47H3.83a.4.4 0 0 1-.35-.35"/><path fill="rgba(25,95,140,0.1)" d="M28.78 12.12v12.46c0 .1-.2.35-.34.35H.06v3.47h28.38c1.42 0 3.82-.5 3.82-3.82V12.12a3.54 3.54 0 0 0-3.82-3.82H10.81v3.46h17.63a.4.4 0 0 1 .35.35Z"/></g><path fill="rgba(25,95,140,0.1)" d="m425.73 306.75.08-.43a3.2 3.2 0 0 1 .92-1.74l7.53-7.53a3.3 3.3 0 0 1 4.69.01l2.86 2.86.12.12a10 10 0 0 1 8.32-3.18 9.8 9.8 0 0 1 6.7 3.42 10.07 10.07 0 0 1-.5 13.8 10 10 0 0 1-7.32 2.91 10 10 0 0 1-7.21-3.24l-.11.14-2.85 2.85a3.3 3.3 0 0 1-1.75.94l-.39.07h-.47l-.26-.05a3.2 3.2 0 0 1-1.81-.9l-7.58-7.58a3 3 0 0 1-.88-1.7l-.09-.47Zm16.21-6.69a10.05 10.05 0 0 0 0 13.7l.08-.08.5-.5 3.91-3.9a3.3 3.3 0 0 0 .01-4.73l-4.39-4.39zm64.95 15.77q-.36.13-.73.22a4.5 4.5 0 0 1-2.26-.08 3.3 3.3 0 0 1-2.32-2.33 5 5 0 0 1-.2-1.58v-7.18h-2.2v-1.8h2.19v-3.24c.11-.04 1.93-.05 2.17-.02v3.26h3.24a16 16 0 0 1 .02 1.8q-.27.02-.53 0h-2.7l-.01.15v6.98a3 3 0 0 0 .11.86 1.7 1.7 0 0 0 1.58 1.33 4 4 0 0 0 1.65-.26Zm-40.7-5.79h2.26l.09.55a4.4 4.4 0 0 0 1.04 2.2 4 4 0 0 0 2.04 1.17 5.6 5.6 0 0 0 3.28-.13 3 3 0 0 0 1.55-1.1 2.6 2.6 0 0 0 .48-1.73 2.5 2.5 0 0 0-1.1-1.95 6 6 0 0 0-1.53-.8q-1.06-.37-2.15-.67a20 20 0 0 1-2.43-.82 6 6 0 0 1-1.62-.98 3.8 3.8 0 0 1-1.34-2.5 5 5 0 0 1 .2-2.14 4.3 4.3 0 0 1 1.81-2.25 6 6 0 0 1 2.16-.85 8.6 8.6 0 0 1 4.08.17 5.4 5.4 0 0 1 2.63 1.64 5.6 5.6 0 0 1 1.22 2.48l.12.62c-.11.04-1.98.05-2.3.02l-.04-.2a3.5 3.5 0 0 0-2.5-2.66 5.3 5.3 0 0 0-3.32.07 2.6 2.6 0 0 0-1.28.9 2.3 2.3 0 0 0-.38 2.04 2 2 0 0 0 .56.9 4 4 0 0 0 .96.62 13 13 0 0 0 1.83.65l2.42.7a9 9 0 0 1 1.92.83 5 5 0 0 1 1.38 1.11 4.3 4.3 0 0 1 .98 2.2 6 6 0 0 1-.01 1.9 4.5 4.5 0 0 1-1.72 2.78 6 6 0 0 1-2.46 1.12 9 9 0 0 1-4.45-.13 6 6 0 0 1-2.84-1.79 6 6 0 0 1-1.35-2.69 8 8 0 0 1-.2-1.28m32.95 5.91h-2.5a.3.3 0 0 1-.22-.1l-4.66-6.18-.13-.18-.12.1-1.66 1.53a.3.3 0 0 0-.11.25v4.56h-2.2V297.9a27 27 0 0 1 2.2 0v10.48l.13-.1 2.87-2.55 2.88-2.55a.4.4 0 0 1 .28-.1h2.73l.01.03-5.38 4.9Zm-15.02 0h-2.16l-.01-.03h-.01V303.1a22 22 0 0 1 2.18 0Zm-2.6-16.8a1.43 1.43 0 0 1 1.42-1.47 2 2 0 0 1 .7.13 1.4 1.4 0 0 1 .84 1.52 1.45 1.45 0 0 1-1.65 1.25 1.4 1.4 0 0 1-1.19-.8 1.3 1.3 0 0 1-.13-.63"/><g transform="translate(524.877 286.543)"><text fill="rgba(25,95,140,0.1)" font-family="Helvetica" font-size="9" transform="translate(.047 38.933)"><tspan x="0" y="0">SUNET</tspan></text><path fill="rgba(25,95,140,0.1)" d="M3.48 16.29V3.82c0-.1.2-.35.35-.35h28.39V0H3.82C2.4 0 .03.5.03 3.82v12.47a3.54 3.54 0 0 0 3.81 3.82h17.63v-3.47H3.83a.4.4 0 0 1-.35-.35"/><path fill="rgba(25,95,140,0.1)" d="M28.78 12.12v12.46c0 .1-.2.35-.34.35H.06v3.47h28.38c1.42 0 3.82-.5 3.82-3.82V12.12a3.54 3.54 0 0 0-3.82-3.82H10.81v3.46h17.63a.4.4 0 0 1 .35.35Z"/></g><path fill="rgba(25,95,140,0.1)" d="M257.68 294.83a11.2 11.2 0 0 1 7.7 3.08 11 11 0 0 1 2.74 4.05 12 12 0 0 1 .6 2.41q.15 1.07.25 2.15a6.9 6.9 0 0 0 5 5.92 6 6 0 0 0 2.38.13 6.4 6.4 0 0 0 3.52-1.6l.53-.53a1.2 1.2 0 0 1 1.08-.35 1 1 0 0 1 .5.23c.53.4 1.06.83 1.61 1.2a1.3 1.3 0 0 1 .22 2.01 10 10 0 0 1-1.46 1.37 10.6 10.6 0 0 1-5.1 2.2 11 11 0 0 1-9.69-3.13 1.5 1.5 0 0 0-.68-.45 1.1 1.1 0 0 0-1.13.32 12 12 0 0 1-1.43 1.25 11 11 0 0 1-5.03 2.04 11 11 0 0 1-1.75.12 11 11 0 0 1-6.8-2.44 11 11 0 0 1-3.87-5.82 11 11 0 0 1-.38-3.36 11 11 0 0 1 3.03-7.24 11 11 0 0 1 6.24-3.38 14 14 0 0 1 1.92-.17m6.55 11.25a7 7 0 0 0-.2-1.67 6.3 6.3 0 0 0-2.92-3.97 6.4 6.4 0 0 0-4.5-.9 6.3 6.3 0 0 0-3.63 1.9 6.4 6.4 0 0 0-1.72 6 6.6 6.6 0 0 0 6.12 5.2 6.3 6.3 0 0 0 3.35-.75 6.4 6.4 0 0 0 3.5-5.8m21.91.4v-9.84a3 3 0 0 1 .15-.9 1.2 1.2 0 0 1 .83-.79 3 3 0 0 1 .88-.13h8.26a9 9 0 0 1 3.03.57 6 6 0 0 1 2.3 1.5 5.6 5.6 0 0 1 1.3 2.28 8 8 0 0 1 .28 1.77 6.5 6.5 0 0 1-.65 3.3 4 4 0 0 1-1.77 1.87l-.47.22q-.26.14 0 .28a3 3 0 0 1 .71.47 4 4 0 0 1 1.06 1.58 18 18 0 0 1 .64 2.2l1.43 5.55a1 1 0 0 1 .03.38.4.4 0 0 1-.33.4 1 1 0 0 1-.35.05h-3.2a3 3 0 0 1-.55-.06.9.9 0 0 1-.75-.72l-.34-1.4q-.5-2.1-1.05-4.2a5 5 0 0 0-.72-1.6 2.6 2.6 0 0 0-1.6-.99 5 5 0 0 0-1.08-.1h-3q-.16 0-.15.15v8.53a.35.35 0 0 1-.33.35l-.48.05h-3.16a1 1 0 0 1-.33-.04.7.7 0 0 1-.6-.72v-.19Zm4.94-4.82v2.33c0 .23 0 .23.24.23h4.06a3 3 0 0 0 1.3-.23 2.3 2.3 0 0 0 1.4-1.56 3 3 0 0 0 .1-1.04 2.2 2.2 0 0 0-1-1.82 2.7 2.7 0 0 0-1.5-.43h-4.47q-.14 0-.12.13zm24.28-6.85h4.62a2 2 0 0 1 .4.05.34.34 0 0 1 .28.27l.05.35v2.9l-.03.3a.4.4 0 0 1-.35.33l-.33.03h-7.9a3 3 0 0 0-1.14.14 1.5 1.5 0 0 0-1 1.22 4 4 0 0 0-.05.73v1.4a.9.9 0 0 0 .8.9 4 4 0 0 0 .64.03h7.9a.4.4 0 0 1 .41.4l.05.68v2.92a6 6 0 0 1-.05.73.4.4 0 0 1-.42.4h-8.15a2 2 0 0 0-.6.1.8.8 0 0 0-.57.77q-.02.95 0 1.88a1.7 1.7 0 0 0 .5 1.2 1.7 1.7 0 0 0 .86.42 3 3 0 0 0 .68.06h8.2a.5.5 0 0 1 .54.46l.01.2v2.91a1 1 0 0 1-.06.35.4.4 0 0 1-.28.26l-.43.04h-9.05a7 7 0 0 1-2.63-.48 4.7 4.7 0 0 1-2.47-2.19 6 6 0 0 1-.69-2.22 11 11 0 0 1-.08-1.33v-10.28a7 7 0 0 1 .46-2.65 5 5 0 0 1 2.26-2.55 6 6 0 0 1 2.1-.64 14 14 0 0 1 1.9-.09Zm-39.92.01a11.3 11.3 0 0 1 7.17 2.56 1.33 1.33 0 0 1 .1 2.04q-.64.67-1.32 1.33a1.33 1.33 0 0 1-1.8.11 7 7 0 0 0-1.12-.7 6.6 6.6 0 0 0-6.55.34 1 1 0 0 1-.65.18.8.8 0 0 1-.73-.53q-.24-.54-.54-1.06a11 11 0 0 0-.8-1.26.83.83 0 0 1 .24-1.23 11 11 0 0 1 4.41-1.65q.82-.1 1.6-.13"/><g clip-path="url(#a)" transform="translate(340.725 292.876)"><path fill="rgba(25,95,140,0.1)" d="M12.94 14.49a2 2 0 0 1 1.22-.57.94.94 0 0 1 1.06.9c-.17.08-3.66 1.22-3.83 1.3-.08-.09-.08-.17-.16-.17.16-.16 1.7-1.46 1.7-1.46M0 21.97c0 3.91 1.7 5.94 5.13 5.94a5.8 5.8 0 0 0 3.66-1.06l.08-.08v-5.45H4.23v1.55H7v3.09a4 4 0 0 1-1.95.4c-2.04 0-3.01-1.46-3.01-4.39 0-1.7.48-3.74 2.76-3.74 1.55 0 2.12.9 2.12 1.7v.25h2.11v-.24c0-1.96-1.7-3.26-4.23-3.26-3.01 0-4.8 1.95-4.8 5.3m16.44-5.13h-6.19v10.9h6.6V26.2h-4.72v-3.4h4.3v-1.55h-4.3v-2.93h4.55v-1.55h-.24Zm27.91 0h-9.44v8.05c-.73-1.3-4.63-8.05-4.63-8.05h-2.2v10.9h1.87v-8.06c.73 1.3 4.64 8.06 4.64 8.06h2.2v-9.36h3v9.36h1.96v-9.36h2.93v-1.55Zm-20.83 0h-2.04l-4.07 10.9h1.96s1.06-2.85 1.22-3.18h3.99a88 88 0 0 0 1.22 3.18h1.87Zm-2.45 6.18c.17-.57 1.14-3.17 1.47-4.07.33.9 1.22 3.5 1.46 4.07Z"/><path fill="rgba(25,95,140,0.1)" d="M62.66 6.51c-7.16-8.87-36.13 3.66-43.94 6.92a1.25 1.25 0 0 1-1.71-.65 1.27 1.27 0 0 0 1.79.81C29.13 9.44 54.12.49 60.38 8.71c2.85 3.74 2.04 8.3-1.06 14.73a2 2 0 0 0-.24.48v.17a1.4 1.4 0 0 1-.81.65 1.3 1.3 0 0 0 1.05-.65l.33-.5c4.4-7.72 6.02-13.42 3.01-17.08"/><path fill="rgba(25,95,140,0.1)" d="M57.2 24.33c-.07-.08-1.37-1.22-2.68-2.44-6.75-6.43-27.34-26.2-36.29-21-2.52 1.47-2.93 5.78-1.38 11.47 0 .09.08.17.08.25a1.2 1.2 0 0 0 1.14.98 1.3 1.3 0 0 1-.9-.82.3.3 0 0 0-.08-.16c0-.08-.08-.16-.08-.33 0-.08 0-.16-.09-.16-.81-4.8.17-7.98 2.12-9.28 7.24-4.88 24.5 10.01 33.2 17.5 1.95 1.71 4.23 3.66 4.88 4.15a1.36 1.36 0 0 0 2.04-.49 1.3 1.3 0 0 1-1.95.33"/></g><path fill="rgba(25,95,140,0.1)" d="M430.67 346.98a11.2 11.2 0 0 1 7.7 3.08 11 11 0 0 1 2.74 4.05 12 12 0 0 1 .6 2.41q.15 1.07.25 2.15a6.9 6.9 0 0 0 5 5.92 6 6 0 0 0 2.38.13 6.4 6.4 0 0 0 3.52-1.6l.53-.53a1.2 1.2 0 0 1 1.08-.35 1 1 0 0 1 .49.23c.54.4 1.07.83 1.62 1.2a1.3 1.3 0 0 1 .22 2.01 10 10 0 0 1-1.46 1.37 10.6 10.6 0 0 1-5.1 2.2 11 11 0 0 1-9.7-3.13 1.5 1.5 0 0 0-.67-.45 1.1 1.1 0 0 0-1.13.32 12 12 0 0 1-1.43 1.25 11 11 0 0 1-5.03 2.04 11 11 0 0 1-1.75.12 11 11 0 0 1-6.8-2.44 11 11 0 0 1-3.87-5.82 11 11 0 0 1-.38-3.36 11 11 0 0 1 3.03-7.24 11 11 0 0 1 6.24-3.38 14 14 0 0 1 1.92-.17m6.55 11.25a7 7 0 0 0-.2-1.67 6.3 6.3 0 0 0-2.92-3.97 6.4 6.4 0 0 0-4.51-.9 6.3 6.3 0 0 0-3.62 1.9 6.4 6.4 0 0 0-1.72 6 6.6 6.6 0 0 0 6.12 5.2 6.3 6.3 0 0 0 3.35-.75 6.4 6.4 0 0 0 3.5-5.8m21.9.4v-9.84a3 3 0 0 1 .16-.9 1.2 1.2 0 0 1 .83-.79 3 3 0 0 1 .88-.13h8.26a9 9 0 0 1 3.03.57 6 6 0 0 1 2.3 1.5 5.6 5.6 0 0 1 1.3 2.28 8 8 0 0 1 .28 1.77 6.5 6.5 0 0 1-.65 3.3 4 4 0 0 1-1.77 1.87l-.47.22q-.26.14 0 .28a3 3 0 0 1 .7.47 4 4 0 0 1 1.07 1.58 18 18 0 0 1 .64 2.2l1.43 5.55a1 1 0 0 1 .03.38.4.4 0 0 1-.33.4 1 1 0 0 1-.35.05h-3.2a3 3 0 0 1-.55-.06.9.9 0 0 1-.75-.72l-.34-1.4q-.51-2.1-1.05-4.2a5 5 0 0 0-.72-1.6 2.6 2.6 0 0 0-1.6-.99 5 5 0 0 0-1.08-.1h-3q-.16 0-.15.15v8.18l-.01.35a.35.35 0 0 1-.32.35l-.48.05h-3.16a1 1 0 0 1-.33-.04.7.7 0 0 1-.6-.72v-.19Zm4.95-4.82v2.33c0 .23 0 .23.24.23h4.06a3 3 0 0 0 1.3-.23 2.3 2.3 0 0 0 1.4-1.56 3 3 0 0 0 .09-1.04 2.2 2.2 0 0 0-1-1.82 2.7 2.7 0 0 0-1.5-.43h-4.46q-.14 0-.12.13zm24.28-6.85h4.62a2 2 0 0 1 .4.05.34.34 0 0 1 .28.27l.05.35v2.9l-.03.3a.4.4 0 0 1-.35.33l-.33.03h-7.91a3 3 0 0 0-1.13.14 1.5 1.5 0 0 0-1 1.22 4 4 0 0 0-.05.73v1.4a.9.9 0 0 0 .8.9 4 4 0 0 0 .64.03h7.89a.4.4 0 0 1 .42.4l.05.68v2.92a6 6 0 0 1-.05.73.4.4 0 0 1-.42.4h-8.15a2 2 0 0 0-.6.1.8.8 0 0 0-.57.77q-.02.95 0 1.88a1.7 1.7 0 0 0 .5 1.2 1.7 1.7 0 0 0 .86.42 3 3 0 0 0 .68.06h8.2a.5.5 0 0 1 .54.46v3.11a1 1 0 0 1-.05.35.4.4 0 0 1-.28.26l-.43.04h-9.05a7 7 0 0 1-2.63-.48 4.7 4.7 0 0 1-2.47-2.19 6 6 0 0 1-.7-2.22 11 11 0 0 1-.07-1.33v-10.28a7 7 0 0 1 .46-2.65 5 5 0 0 1 2.26-2.55 6 6 0 0 1 2.1-.64 14 14 0 0 1 1.9-.09Zm-39.92.01a11.3 11.3 0 0 1 7.17 2.56 1.33 1.33 0 0 1 .1 2.04q-.64.67-1.32 1.33a1.33 1.33 0 0 1-1.8.11 7 7 0 0 0-1.12-.7 6.6 6.6 0 0 0-6.55.34 1 1 0 0 1-.65.18.8.8 0 0 1-.73-.53q-.24-.54-.54-1.06a11 11 0 0 0-.8-1.26.83.83 0 0 1 .24-1.23 11 11 0 0 1 4.4-1.65q.83-.1 1.6-.13m-183.78 11.37.08-.43a3.2 3.2 0 0 1 .92-1.74l7.53-7.53a3.3 3.3 0 0 1 4.7.01l2.85 2.86.12.12a10 10 0 0 1 8.32-3.18 9.8 9.8 0 0 1 6.7 3.42 10.07 10.07 0 0 1-.5 13.8 10 10 0 0 1-7.32 2.91 10 10 0 0 1-7.2-3.24l-.12.14-2.85 2.85a3.3 3.3 0 0 1-1.75.94l-.39.07h-.47l-.26-.05a3.2 3.2 0 0 1-1.8-.9l-7.59-7.58a3 3 0 0 1-.88-1.7l-.09-.47Zm16.21-6.69a10.05 10.05 0 0 0 0 13.7l.08-.08.5-.5 3.91-3.9a3.3 3.3 0 0 0 .01-4.73l-4.39-4.39zm64.95 15.77q-.36.13-.73.22a4.5 4.5 0 0 1-2.26-.08 3.3 3.3 0 0 1-2.32-2.33 5 5 0 0 1-.2-1.58v-7.18h-2.2v-1.8h2.2v-3.24c.1-.04 1.92-.05 2.16-.02v3.26h3.24a16 16 0 0 1 .02 1.8q-.27.02-.53 0h-2.7v7.13a3 3 0 0 0 .1.86 1.7 1.7 0 0 0 1.58 1.33 4 4 0 0 0 1.65-.26Zm-40.7-5.79h2.26l.1.55a4.4 4.4 0 0 0 1.03 2.2 4 4 0 0 0 2.04 1.17 5.6 5.6 0 0 0 3.28-.13 3 3 0 0 0 1.55-1.1 2.6 2.6 0 0 0 .48-1.73 2.5 2.5 0 0 0-1.1-1.95 6 6 0 0 0-1.53-.8q-1.06-.37-2.15-.67a20 20 0 0 1-2.43-.82 6 6 0 0 1-1.62-.98 3.8 3.8 0 0 1-1.34-2.5 5 5 0 0 1 .2-2.14 4.3 4.3 0 0 1 1.81-2.25 6 6 0 0 1 2.16-.85 8.6 8.6 0 0 1 4.08.17 5.4 5.4 0 0 1 2.63 1.64 5.6 5.6 0 0 1 1.22 2.48l.12.62c-.1.04-1.98.05-2.3.02q0-.1-.04-.2a3.5 3.5 0 0 0-2.5-2.66 5.3 5.3 0 0 0-3.32.07 2.6 2.6 0 0 0-1.28.9 2.3 2.3 0 0 0-.38 2.04 2 2 0 0 0 .56.9 4 4 0 0 0 .96.62 13 13 0 0 0 1.83.65l2.42.7a9 9 0 0 1 1.92.83 5 5 0 0 1 1.38 1.11 4.3 4.3 0 0 1 .98 2.2 6 6 0 0 1 0 1.9 4.5 4.5 0 0 1-1.73 2.78 6 6 0 0 1-2.46 1.12 9 9 0 0 1-4.45-.13 6 6 0 0 1-2.84-1.79 6 6 0 0 1-1.35-2.69 8 8 0 0 1-.2-1.28m32.95 5.91h-2.5a.3.3 0 0 1-.22-.1l-4.66-6.18-.13-.18-.12.1-1.66 1.53a.3.3 0 0 0-.1.25v4.56h-2.2v-18.03a27 27 0 0 1 2.2 0V360l.12-.1 2.87-2.55 2.88-2.55a.4.4 0 0 1 .28-.1h2.73l.01.03-5.38 4.9Zm-15.02 0h-2.16v-.03h-.02v-12.82a22 22 0 0 1 2.18 0Zm-2.6-16.8a1.43 1.43 0 0 1 1.42-1.47 2 2 0 0 1 .7.13 1.4 1.4 0 0 1 .84 1.52 1.45 1.45 0 0 1-1.65 1.25 1.4 1.4 0 0 1-1.19-.8 1.3 1.3 0 0 1-.13-.63"/><g clip-path="url(#a)" transform="translate(513.258 344.845)"><path fill="rgba(25,95,140,0.1)" d="M12.94 14.49a2 2 0 0 1 1.22-.57.94.94 0 0 1 1.06.9c-.17.08-3.66 1.22-3.83 1.3-.08-.09-.08-.17-.16-.17.16-.16 1.7-1.46 1.7-1.46M0 21.97c0 3.91 1.7 5.94 5.13 5.94a5.8 5.8 0 0 0 3.66-1.06l.08-.08v-5.45H4.23v1.55H7v3.09a4 4 0 0 1-1.95.4c-2.04 0-3.01-1.46-3.01-4.39 0-1.7.48-3.74 2.76-3.74 1.55 0 2.12.9 2.12 1.7v.25h2.11v-.24c0-1.96-1.7-3.26-4.23-3.26-3.01 0-4.8 1.95-4.8 5.3m16.44-5.13h-6.19v10.9h6.6V26.2h-4.72v-3.4h4.3v-1.55h-4.3v-2.93h4.55v-1.55h-.24Zm27.91 0h-9.44v8.05c-.73-1.3-4.63-8.05-4.63-8.05h-2.2v10.9h1.87v-8.06c.73 1.3 4.64 8.06 4.64 8.06h2.2v-9.36h3v9.36h1.96v-9.36h2.93v-1.55Zm-20.83 0h-2.04l-4.07 10.9h1.96s1.06-2.85 1.22-3.18h3.99a88 88 0 0 0 1.22 3.18h1.87Zm-2.45 6.18c.17-.57 1.14-3.17 1.47-4.07.33.9 1.22 3.5 1.46 4.07Z"/><path fill="rgba(25,95,140,0.1)" d="M62.66 6.51c-7.16-8.87-36.13 3.66-43.94 6.92a1.25 1.25 0 0 1-1.71-.65 1.27 1.27 0 0 0 1.79.81C29.13 9.44 54.12.49 60.38 8.71c2.85 3.74 2.04 8.3-1.06 14.73a2 2 0 0 0-.24.48v.17a1.4 1.4 0 0 1-.81.65 1.3 1.3 0 0 0 1.05-.65l.33-.5c4.4-7.72 6.02-13.42 3.01-17.08"/><path fill="rgba(25,95,140,0.1)" d="M57.2 24.33c-.07-.08-1.37-1.22-2.68-2.44-6.75-6.43-27.34-26.2-36.29-21-2.52 1.47-2.93 5.78-1.38 11.47 0 .09.08.17.08.25a1.2 1.2 0 0 0 1.14.98 1.3 1.3 0 0 1-.9-.82.3.3 0 0 0-.08-.16c0-.08-.08-.16-.08-.33 0-.08 0-.16-.09-.16-.81-4.8.17-7.98 2.12-9.28 7.24-4.88 24.5 10.01 33.2 17.5 1.95 1.71 4.23 3.66 4.88 4.15a1.36 1.36 0 0 0 2.04-.49 1.3 1.3 0 0 1-1.95.33"/></g><g transform="translate(367.486 337.724)"><text fill="rgba(25,95,140,0.1)" font-family="Helvetica" font-size="9" transform="translate(.047 38.933)"><tspan x="0" y="0">SUNET</tspan></text><path fill="rgba(25,95,140,0.1)" d="M3.48 16.29V3.82c0-.1.2-.35.35-.35h28.39V0H3.82C2.4 0 .03.5.03 3.82v12.47a3.54 3.54 0 0 0 3.81 3.82h17.63v-3.47H3.83a.4.4 0 0 1-.35-.35"/><path fill="rgba(25,95,140,0.1)" d="M28.78 12.12v12.46c0 .1-.2.35-.34.35H.06v3.47h28.38c1.42 0 3.82-.5 3.82-3.82V12.12a3.54 3.54 0 0 0-3.82-3.82H10.81v3.46h17.63a.4.4 0 0 1 .35.35Z"/></g><path fill="rgba(25,95,140,0.1)" d="m599.04 153.64.08-.43a3.2 3.2 0 0 1 .92-1.74l7.53-7.53a3.3 3.3 0 0 1 4.7.01l2.86 2.86.12.12a10 10 0 0 1 8.31-3.18 9.8 9.8 0 0 1 6.7 3.42 10.07 10.07 0 0 1-.5 13.8 10 10 0 0 1-7.32 2.91 10 10 0 0 1-7.2-3.24l-.12.14-2.85 2.85a3.3 3.3 0 0 1-1.75.94l-.39.07h-.47l-.26-.05a3.2 3.2 0 0 1-1.8-.9l-7.59-7.58a3 3 0 0 1-.88-1.71l-.09-.46Zm16.21-6.69a10.05 10.05 0 0 0 0 13.69l.08-.07.5-.5 3.91-3.91a3.3 3.3 0 0 0 .01-4.72l-4.39-4.39zm64.95 15.77q-.36.13-.73.22a4.5 4.5 0 0 1-2.26-.08 3.3 3.3 0 0 1-2.32-2.33 5 5 0 0 1-.2-1.58v-7.18h-2.2v-1.8h2.2v-3.24c.1-.04 1.92-.05 2.16-.02v3.26h3.24a16 16 0 0 1 .02 1.8q-.27.02-.53 0h-2.7v7.13a3 3 0 0 0 .1.86 1.7 1.7 0 0 0 1.58 1.33 4 4 0 0 0 1.65-.26Zm-40.7-5.79h2.26l.1.55a4.4 4.4 0 0 0 1.04 2.19 4 4 0 0 0 2.04 1.18 5.6 5.6 0 0 0 3.27-.13 3 3 0 0 0 1.55-1.1 2.6 2.6 0 0 0 .48-1.73 2.5 2.5 0 0 0-1.1-1.95 6 6 0 0 0-1.53-.8q-1.06-.37-2.15-.67a20 20 0 0 1-2.43-.82 6 6 0 0 1-1.62-.98 3.8 3.8 0 0 1-1.34-2.51 5 5 0 0 1 .2-2.13 4.3 4.3 0 0 1 1.81-2.25 6 6 0 0 1 2.16-.85 8.6 8.6 0 0 1 4.08.17 5.4 5.4 0 0 1 2.63 1.64 5.6 5.6 0 0 1 1.22 2.48l.12.62c-.1.04-1.98.05-2.3.02q0-.1-.04-.2a3.5 3.5 0 0 0-2.5-2.66 5.3 5.3 0 0 0-3.32.07 2.6 2.6 0 0 0-1.28.9 2.3 2.3 0 0 0-.38 2.04 2 2 0 0 0 .56.9 4 4 0 0 0 .96.62 13 13 0 0 0 1.83.65l2.42.7a9 9 0 0 1 1.92.83 5 5 0 0 1 1.38 1.11 4.3 4.3 0 0 1 .98 2.19 6 6 0 0 1 0 1.9 4.5 4.5 0 0 1-1.72 2.79 6 6 0 0 1-2.46 1.12 9 9 0 0 1-4.46-.13 6 6 0 0 1-2.84-1.79 6 6 0 0 1-1.35-2.69 8 8 0 0 1-.2-1.28m32.95 5.91h-2.5a.3.3 0 0 1-.22-.11l-4.66-6.17-.13-.18-.12.1-1.66 1.53a.3.3 0 0 0-.1.25v4.56h-2.2v-18.03a27 27 0 0 1 2.2 0v10.48l.13-.1 2.87-2.55 2.88-2.55a.4.4 0 0 1 .28-.1h2.72l.01.03-5.38 4.9Zm-15.02-.01h-2.16v-.02h-.01v-12.82a22 22 0 0 1 2.18 0Zm-2.6-16.8a1.43 1.43 0 0 1 1.42-1.46 2 2 0 0 1 .7.13 1.4 1.4 0 0 1 .84 1.52 1.45 1.45 0 0 1-1.64 1.25 1.4 1.4 0 0 1-1.2-.8 1.3 1.3 0 0 1-.13-.63m-62.74 47.32a11.2 11.2 0 0 1 7.7 3.08 11 11 0 0 1 2.74 4.05 12 12 0 0 1 .6 2.4q.15 1.08.25 2.16a6.9 6.9 0 0 0 5 5.92 6 6 0 0 0 2.38.13 6.4 6.4 0 0 0 3.52-1.61l.53-.52a1.2 1.2 0 0 1 1.08-.35 1 1 0 0 1 .5.23c.53.4 1.06.83 1.61 1.2a1.3 1.3 0 0 1 .22 2 10 10 0 0 1-1.46 1.38 10.6 10.6 0 0 1-5.1 2.2 11 11 0 0 1-9.69-3.13 1.5 1.5 0 0 0-.68-.45 1.1 1.1 0 0 0-1.13.32 12 12 0 0 1-1.43 1.25 11 11 0 0 1-5.03 2.04 11 11 0 0 1-1.75.12 11 11 0 0 1-6.8-2.44 11 11 0 0 1-3.87-5.82 11 11 0 0 1-.38-3.36 11 11 0 0 1 3.03-7.24 11 11 0 0 1 6.24-3.38 14 14 0 0 1 1.92-.17m6.55 11.25a7 7 0 0 0-.2-1.67 6.3 6.3 0 0 0-2.92-3.97 6.4 6.4 0 0 0-4.5-.9 6.3 6.3 0 0 0-3.63 1.9 6.4 6.4 0 0 0-1.72 6 6.6 6.6 0 0 0 6.12 5.19 6.3 6.3 0 0 0 3.35-.74 6.4 6.4 0 0 0 3.5-5.81m21.91.4v-9.83a3 3 0 0 1 .15-.9 1.2 1.2 0 0 1 .83-.8 3 3 0 0 1 .88-.12h8.26a9 9 0 0 1 3.03.57 6 6 0 0 1 2.3 1.5 5.6 5.6 0 0 1 1.3 2.28 8 8 0 0 1 .28 1.77 6.5 6.5 0 0 1-.65 3.3 4 4 0 0 1-1.77 1.87l-.47.22q-.26.14 0 .28a3 3 0 0 1 .71.47 4 4 0 0 1 1.06 1.58 18 18 0 0 1 .64 2.2l1.43 5.55a1 1 0 0 1 .03.38.4.4 0 0 1-.33.4 1 1 0 0 1-.35.05h-3.2a3 3 0 0 1-.55-.06.9.9 0 0 1-.75-.72l-.34-1.4q-.5-2.1-1.05-4.2a5 5 0 0 0-.72-1.6 2.6 2.6 0 0 0-1.6-1 5 5 0 0 0-1.08-.1h-3q-.16 0-.15.16v8.53a.35.35 0 0 1-.33.35l-.48.05h-3.16a1 1 0 0 1-.33-.04.7.7 0 0 1-.6-.72v-.2Zm4.94-4.81v2.33c0 .23 0 .23.24.23h4.06a3 3 0 0 0 1.3-.23 2.3 2.3 0 0 0 1.4-1.56 3 3 0 0 0 .1-1.04 2.2 2.2 0 0 0-1-1.82 2.7 2.7 0 0 0-1.5-.43h-4.47q-.14 0-.12.13zm24.28-6.85h4.62a2 2 0 0 1 .4.05.34.34 0 0 1 .28.27l.05.35v2.9l-.03.29a.4.4 0 0 1-.35.34l-.33.03h-7.9a3 3 0 0 0-1.14.14 1.5 1.5 0 0 0-1 1.22 4 4 0 0 0-.05.73v1.4a.9.9 0 0 0 .8.89 4 4 0 0 0 .64.04h7.9a.4.4 0 0 1 .41.4l.05.68V206a6 6 0 0 1-.05.73.4.4 0 0 1-.42.4h-8.15a2 2 0 0 0-.6.1.8.8 0 0 0-.57.77q-.02.95 0 1.88a1.7 1.7 0 0 0 .5 1.2 1.7 1.7 0 0 0 .86.42 3 3 0 0 0 .68.06h8.2a.5.5 0 0 1 .54.46l.01.19v2.92a1 1 0 0 1-.06.35.4.4 0 0 1-.28.26l-.43.04h-9.05a7 7 0 0 1-2.63-.48 4.7 4.7 0 0 1-2.47-2.2 6 6 0 0 1-.69-2.21 11 11 0 0 1-.08-1.33v-10.28a7 7 0 0 1 .46-2.65 5 5 0 0 1 2.26-2.55 6 6 0 0 1 2.1-.64 14 14 0 0 1 1.9-.1Zm-39.92 0a11.3 11.3 0 0 1 7.17 2.57 1.33 1.33 0 0 1 .1 2.04q-.64.67-1.32 1.33a1.33 1.33 0 0 1-1.8.1 7 7 0 0 0-1.12-.7 6.6 6.6 0 0 0-6.55.35 1 1 0 0 1-.65.18.8.8 0 0 1-.73-.53q-.24-.54-.54-1.06a11 11 0 0 0-.8-1.26.83.83 0 0 1 .24-1.23 11 11 0 0 1 4.41-1.65q.82-.1 1.6-.13m-10.8 62.66.08-.43a3.2 3.2 0 0 1 .92-1.74l7.53-7.53a3.3 3.3 0 0 1 4.7.01l2.86 2.86.12.12a10 10 0 0 1 8.31-3.18 9.8 9.8 0 0 1 6.7 3.42 10.07 10.07 0 0 1-.5 13.8 10 10 0 0 1-7.32 2.91 10 10 0 0 1-7.2-3.24l-.12.14-2.85 2.85a3.3 3.3 0 0 1-1.75.94l-.39.07h-.47l-.26-.05a3.2 3.2 0 0 1-1.8-.9l-7.6-7.58a3 3 0 0 1-.88-1.7l-.09-.47Zm16.21-6.69a10.05 10.05 0 0 0 0 13.7l.08-.08.5-.5 3.91-3.9a3.3 3.3 0 0 0 .01-4.73l-4.39-4.39zm64.95 15.77q-.36.13-.73.22a4.5 4.5 0 0 1-2.26-.08 3.3 3.3 0 0 1-2.32-2.33 5 5 0 0 1-.2-1.58v-7.18h-2.2v-1.8h2.2v-3.24c.1-.04 1.92-.05 2.16-.02v3.26h3.24a16 16 0 0 1 .02 1.8q-.27.02-.53 0h-2.7v7.13a3 3 0 0 0 .1.86 1.7 1.7 0 0 0 1.58 1.33 4 4 0 0 0 1.65-.26Zm-40.7-5.79h2.26l.1.55a4.4 4.4 0 0 0 1.04 2.2 4 4 0 0 0 2.04 1.17 5.6 5.6 0 0 0 3.27-.13 3 3 0 0 0 1.55-1.1 2.6 2.6 0 0 0 .48-1.73 2.5 2.5 0 0 0-1.1-1.95 6 6 0 0 0-1.53-.8q-1.06-.37-2.15-.67a20 20 0 0 1-2.43-.82 6 6 0 0 1-1.62-.98 3.8 3.8 0 0 1-1.34-2.5 5 5 0 0 1 .2-2.14 4.3 4.3 0 0 1 1.81-2.25 6 6 0 0 1 2.16-.85 8.6 8.6 0 0 1 4.08.17 5.4 5.4 0 0 1 2.63 1.64 5.6 5.6 0 0 1 1.22 2.48l.12.62c-.1.04-1.98.05-2.3.02q0-.1-.04-.2a3.5 3.5 0 0 0-2.5-2.66 5.3 5.3 0 0 0-3.32.07 2.6 2.6 0 0 0-1.28.9 2.3 2.3 0 0 0-.38 2.04 2 2 0 0 0 .56.9 4 4 0 0 0 .96.62 13 13 0 0 0 1.83.65l2.42.7a9 9 0 0 1 1.92.83 5 5 0 0 1 1.38 1.11 4.3 4.3 0 0 1 .98 2.2 6 6 0 0 1 0 1.9 4.5 4.5 0 0 1-1.72 2.78 6 6 0 0 1-2.46 1.12 9 9 0 0 1-4.46-.13 6 6 0 0 1-2.84-1.79 6 6 0 0 1-1.35-2.69 8 8 0 0 1-.2-1.28m32.95 5.91h-2.5a.3.3 0 0 1-.22-.1l-4.66-6.18-.13-.18-.12.1-1.66 1.53a.3.3 0 0 0-.1.25v4.56h-2.2v-18.03a27 27 0 0 1 2.2 0v10.48l.13-.1 2.87-2.55 2.88-2.55a.4.4 0 0 1 .28-.1h2.72l.01.03-5.38 4.9Zm-15.02 0h-2.16v-.03h-.01v-12.82a22 22 0 0 1 2.18 0Zm-2.6-16.8a1.43 1.43 0 0 1 1.42-1.47 2 2 0 0 1 .7.13 1.4 1.4 0 0 1 .84 1.52 1.45 1.45 0 0 1-1.64 1.25 1.4 1.4 0 0 1-1.2-.8 1.3 1.3 0 0 1-.13-.63m-62.74 46.4a11.2 11.2 0 0 1 7.7 3.08 11 11 0 0 1 2.74 4.05 12 12 0 0 1 .6 2.41q.15 1.07.25 2.15a6.9 6.9 0 0 0 5 5.92 6 6 0 0 0 2.38.13 6.4 6.4 0 0 0 3.52-1.6l.53-.53a1.2 1.2 0 0 1 1.08-.35 1 1 0 0 1 .5.23c.53.4 1.06.83 1.61 1.2a1.3 1.3 0 0 1 .22 2.01 10 10 0 0 1-1.46 1.37 10.6 10.6 0 0 1-5.1 2.2 11 11 0 0 1-9.69-3.13 1.5 1.5 0 0 0-.68-.45 1.1 1.1 0 0 0-1.13.32 12 12 0 0 1-1.43 1.25 11 11 0 0 1-5.03 2.04 11 11 0 0 1-1.75.12 11 11 0 0 1-6.8-2.44 11 11 0 0 1-3.87-5.82 11 11 0 0 1-.38-3.36 11 11 0 0 1 3.03-7.24 11 11 0 0 1 6.24-3.38 14 14 0 0 1 1.92-.17m6.55 11.25a7 7 0 0 0-.2-1.67 6.3 6.3 0 0 0-2.92-3.97 6.4 6.4 0 0 0-4.5-.9 6.3 6.3 0 0 0-3.63 1.9 6.4 6.4 0 0 0-1.72 6 6.6 6.6 0 0 0 6.12 5.2 6.3 6.3 0 0 0 3.35-.75 6.4 6.4 0 0 0 3.5-5.8m21.91.4v-9.84a3 3 0 0 1 .15-.9 1.2 1.2 0 0 1 .83-.79 3 3 0 0 1 .88-.13h8.26a9 9 0 0 1 3.03.57 6 6 0 0 1 2.3 1.5 5.6 5.6 0 0 1 1.3 2.28 8 8 0 0 1 .28 1.77 6.5 6.5 0 0 1-.65 3.3 4 4 0 0 1-1.77 1.87l-.47.22q-.26.14 0 .28a3 3 0 0 1 .71.47 4 4 0 0 1 1.06 1.58 18 18 0 0 1 .64 2.2l1.43 5.55a1 1 0 0 1 .03.38.4.4 0 0 1-.33.4 1 1 0 0 1-.35.05h-3.2a3 3 0 0 1-.55-.06.9.9 0 0 1-.75-.72l-.34-1.4q-.5-2.1-1.05-4.2a5 5 0 0 0-.72-1.6 2.6 2.6 0 0 0-1.6-.99 5 5 0 0 0-1.08-.1h-3q-.16 0-.15.15v8.53a.35.35 0 0 1-.33.35l-.48.05h-3.16a1 1 0 0 1-.33-.04.7.7 0 0 1-.6-.72v-.19Zm4.94-4.82v2.33c0 .23 0 .23.24.23h4.06a3 3 0 0 0 1.3-.23 2.3 2.3 0 0 0 1.4-1.56 3 3 0 0 0 .1-1.04 2.2 2.2 0 0 0-1-1.82 2.7 2.7 0 0 0-1.5-.43h-4.47q-.14 0-.12.13zm24.28-6.85h4.62a2 2 0 0 1 .4.05.34.34 0 0 1 .28.27l.05.35v2.9l-.03.3a.4.4 0 0 1-.35.33l-.33.03h-7.9a3 3 0 0 0-1.14.14 1.5 1.5 0 0 0-1 1.22 4 4 0 0 0-.05.73v1.4a.9.9 0 0 0 .8.9 4 4 0 0 0 .64.03h7.9a.4.4 0 0 1 .41.4l.05.68v2.92a6 6 0 0 1-.05.73.4.4 0 0 1-.42.4h-8.15a2 2 0 0 0-.6.1.8.8 0 0 0-.57.77q-.02.95 0 1.88a1.7 1.7 0 0 0 .5 1.2 1.7 1.7 0 0 0 .86.42 3 3 0 0 0 .68.06h8.2a.5.5 0 0 1 .54.46l.01.2v2.91a1 1 0 0 1-.06.35.4.4 0 0 1-.28.26l-.43.04h-9.05a7 7 0 0 1-2.63-.48 4.7 4.7 0 0 1-2.47-2.19 6 6 0 0 1-.69-2.22 11 11 0 0 1-.08-1.33v-10.28a7 7 0 0 1 .46-2.65 5 5 0 0 1 2.26-2.55 6 6 0 0 1 2.1-.64 14 14 0 0 1 1.9-.09Zm-39.92.01a11.3 11.3 0 0 1 7.17 2.56 1.33 1.33 0 0 1 .1 2.04q-.64.67-1.32 1.33a1.33 1.33 0 0 1-1.8.11 7 7 0 0 0-1.12-.7 6.6 6.6 0 0 0-6.55.34 1 1 0 0 1-.65.18.8.8 0 0 1-.73-.53q-.24-.54-.54-1.06a11 11 0 0 0-.8-1.26.83.83 0 0 1 .24-1.23 11 11 0 0 1 4.41-1.65q.82-.1 1.6-.13m-10.8 63.52.08-.43a3.2 3.2 0 0 1 .92-1.74l7.53-7.53a3.3 3.3 0 0 1 4.7.01l2.86 2.86.12.12a10 10 0 0 1 8.31-3.18 9.8 9.8 0 0 1 6.7 3.42 10.07 10.07 0 0 1-.5 13.8 10 10 0 0 1-7.32 2.91 10 10 0 0 1-7.2-3.24l-.12.14-2.85 2.85a3.3 3.3 0 0 1-1.75.94l-.39.07h-.47l-.26-.05a3.2 3.2 0 0 1-1.8-.9l-7.59-7.58a3 3 0 0 1-.88-1.7l-.09-.47Zm16.21-6.69a10.05 10.05 0 0 0 0 13.7l.08-.08.5-.5 3.91-3.9a3.3 3.3 0 0 0 .01-4.73l-4.39-4.39zm64.95 15.77q-.36.13-.73.22a4.5 4.5 0 0 1-2.26-.08 3.3 3.3 0 0 1-2.32-2.33 5 5 0 0 1-.2-1.58v-7.18h-2.2v-1.8h2.2v-3.24c.1-.04 1.92-.05 2.16-.02v3.26h3.24a16 16 0 0 1 .02 1.8q-.27.02-.53 0h-2.7v7.13a3 3 0 0 0 .1.86 1.7 1.7 0 0 0 1.58 1.33 4 4 0 0 0 1.65-.26Zm-40.7-5.79h2.26l.1.55a4.4 4.4 0 0 0 1.04 2.2 4 4 0 0 0 2.04 1.17 5.6 5.6 0 0 0 3.27-.13 3 3 0 0 0 1.55-1.1 2.6 2.6 0 0 0 .48-1.73 2.5 2.5 0 0 0-1.1-1.95 6 6 0 0 0-1.53-.8q-1.06-.37-2.15-.67a20 20 0 0 1-2.43-.82 6 6 0 0 1-1.62-.98 3.8 3.8 0 0 1-1.34-2.5 5 5 0 0 1 .2-2.14 4.3 4.3 0 0 1 1.81-2.25 6 6 0 0 1 2.16-.85 8.6 8.6 0 0 1 4.08.17 5.4 5.4 0 0 1 2.63 1.64 5.6 5.6 0 0 1 1.22 2.48l.12.62c-.1.04-1.98.05-2.3.02q0-.1-.04-.2a3.5 3.5 0 0 0-2.5-2.66 5.3 5.3 0 0 0-3.32.07 2.6 2.6 0 0 0-1.28.9 2.3 2.3 0 0 0-.38 2.04 2 2 0 0 0 .56.9 4 4 0 0 0 .96.62 13 13 0 0 0 1.83.65l2.42.7a9 9 0 0 1 1.92.83 5 5 0 0 1 1.38 1.11 4.3 4.3 0 0 1 .98 2.2 6 6 0 0 1 0 1.9 4.5 4.5 0 0 1-1.72 2.78 6 6 0 0 1-2.46 1.12 9 9 0 0 1-4.46-.13 6 6 0 0 1-2.84-1.79 6 6 0 0 1-1.35-2.69 8 8 0 0 1-.2-1.28m32.95 5.91h-2.5a.3.3 0 0 1-.22-.1l-4.66-6.18-.13-.18-.12.1-1.66 1.53a.3.3 0 0 0-.1.25v4.56h-2.2v-18.03a27 27 0 0 1 2.2 0V360l.13-.1 2.87-2.55 2.88-2.55a.4.4 0 0 1 .28-.1h2.72l.01.03-5.38 4.9Zm-15.02 0h-2.16v-.03h-.01v-12.82a22 22 0 0 1 2.18 0Zm-2.6-16.8a1.43 1.43 0 0 1 1.42-1.47 2 2 0 0 1 .7.13 1.4 1.4 0 0 1 .84 1.52 1.45 1.45 0 0 1-1.64 1.25 1.4 1.4 0 0 1-1.2-.8 1.3 1.3 0 0 1-.13-.63"/></g></g></svg>