<svg xmlns="http://www.w3.org/2000/svg" width="350" height="200" viewBox="0 0 350 200"><g transform="translate(-190 -242)"><path fill="#fff0e6" d="M190 242h350v200H190z"/><path fill="#fa690f" d="M398.47 328.4h-4.56v-13.7a28.9 28.9 0 1 0-57.82 0v13.7h-4.56a9.13 9.13 0 0 0-9.13 9.12v36.51a9.13 9.13 0 0 0 9.13 9.13h66.94a9.13 9.13 0 0 0 9.13-9.13v-36.51a9.13 9.13 0 0 0-9.13-9.13m-19.78 0h-27.38v-13.7a13.7 13.7 0 1 1 27.38 0Z"/><path fill="#fff" d="M352.7 370.5a24 24 0 0 1-6.58-.93 15 15 0 0 1-5.1-2.4l2.26-5a15 15 0 0 0 4.38 2.17 17 17 0 0 0 5.09.82 8 8 0 0 0 4.18-.84 2.5 2.5 0 0 0 1.35-2.23 2.1 2.1 0 0 0-.8-1.7 6 6 0 0 0-2.05-1.09q-1.25-.41-3.38-.9a47 47 0 0 1-5.38-1.56 9 9 0 0 1-3.58-2.5 6.8 6.8 0 0 1-1.5-4.59 8 8 0 0 1 1.35-4.53 9 9 0 0 1 4.08-3.22 17 17 0 0 1 6.66-1.19 22 22 0 0 1 5.38.66 16 16 0 0 1 4.59 1.88l-2.05 5.04a16 16 0 0 0-7.95-2.25 7.5 7.5 0 0 0-4.12.9 2.8 2.8 0 0 0-1.34 2.38 2.3 2.3 0 0 0 1.54 2.19 24 24 0 0 0 4.7 1.41 47 47 0 0 1 5.37 1.56 9 9 0 0 1 3.58 2.46 6.6 6.6 0 0 1 1.5 4.56 8 8 0 0 1-1.38 4.48 9 9 0 0 1-4.12 3.22 17 17 0 0 1-6.68 1.2m28.17-17.51a9.7 9.7 0 0 1 5.78 2.8 7.7 7.7 0 0 1 2 5.43 8.6 8.6 0 0 1-1.3 4.62 9 9 0 0 1-4 3.38 15 15 0 0 1-6.58 1.27 23 23 0 0 1-5.97-.8 15 15 0 0 1-4.98-2.27l2.58-5.09a13 13 0 0 0 3.8 1.91 15 15 0 0 0 4.4.68 7 7 0 0 0 3.94-.97 3.1 3.1 0 0 0 1.44-2.72q0-3.53-5.37-3.53h-3.04v-4.39l5.9-6.68h-12.22v-5.33h20.1v4.3Z"/></g></svg>