<svg xmlns="http://www.w3.org/2000/svg" xmlns:xlink="http://www.w3.org/1999/xlink" width="170" height="118" viewBox="0 0 170 118"><defs><filter id="Ellipse_45" width="78" height="78" x="46" y="23" filterUnits="userSpaceOnUse"><feOffset dy="3"/><feGaussianBlur result="blur" stdDeviation="3"/><feFlood flood-opacity="0.161"/><feComposite in2="blur" operator="in"/><feComposite in="SourceGraphic"/></filter></defs><g id="safespring-compute-icon" transform="translate(-614 -562)"><path id="Rectangle_343" fill="#e7eff3" d="M0 0h170v118H0z" transform="translate(614 562)"/><g id="Group_605" transform="translate(-102.423 156.577)"><g filter="url(#Ellipse_45)" transform="translate(716.42 405.42)"><circle id="Ellipse_45-2" cx="30" cy="30" r="30" fill="#fff" transform="translate(55 29)"/></g><path id="server-solid-2" fill="#417da5" d="M3.66 32A3.66 3.66 0 0 0 0 35.66v3.65a3.66 3.66 0 0 0 3.66 3.66H25.6a3.66 3.66 0 0 0 3.66-3.66v-3.65A3.66 3.66 0 0 0 25.6 32Zm16 6.86a1.37 1.37 0 1 1 1.37-1.37 1.37 1.37 0 0 1-1.37 1.37m5.48-1.37a1.37 1.37 0 1 1-1.37-1.38 1.37 1.37 0 0 1 1.37 1.38M3.66 46.63A3.66 3.66 0 0 0 0 50.28v3.66a3.66 3.66 0 0 0 3.66 3.66H25.6a3.66 3.66 0 0 0 3.66-3.66v-3.66a3.66 3.66 0 0 0-3.66-3.65Zm16 6.85a1.37 1.37 0 1 1 1.37-1.37 1.37 1.37 0 0 1-1.37 1.38m5.94-1.37a1.37 1.37 0 1 1-1.37-1.37 1.37 1.37 0 0 1 1.37 1.37" transform="translate(786.424 419.423)"/></g></g></svg>