<svg xmlns="http://www.w3.org/2000/svg" xmlns:xlink="http://www.w3.org/1999/xlink" width="350" height="200" viewBox="0 0 350 200"><defs><clipPath id="b"><path d="M0 0h350v200H0z"/></clipPath></defs><g id="a" clip-path="url(#b)"><path fill="#fff" d="M0 0h350v200H0z"/><path fill="rgba(250,105,15,0.1)" d="M0 0h350v200H0Z"/><path fill="#fa690f" d="m167.68 142.7-10.23-2.97a2 2 0 0 1-1.38-2.5l22.9-78.88a2 2 0 0 1 2.5-1.38l10.23 2.97a2 2 0 0 1 1.38 2.5l-22.9 78.89a2 2 0 0 1-2.5 1.37m-19.13-18.82 7.3-7.79a2 2 0 0 0-.13-2.88l-15.2-13.37 15.2-13.37a2 2 0 0 0 .13-2.89l-7.3-7.78a2 2 0 0 0-2.85-.09l-24.17 22.65a2 2 0 0 0 0 2.94l24.17 22.66a2 2 0 0 0 2.85-.08m54.9.1 24.17-22.67a2 2 0 0 0 0-2.93L203.45 75.7a2.03 2.03 0 0 0-2.86.08l-7.3 7.79a2 2 0 0 0 .14 2.88l15.2 13.39-15.2 13.37a2 2 0 0 0-.13 2.89l7.3 7.78a2 2 0 0 0 2.85.1"/><g transform="rotate(-10.02 196.408 -34.751)"><path fill="rgba(250,105,15,0.1)" d="M22.29 5.25a1.8 1.8 0 0 0-.9-1.03L12.89.14a2 2 0 0 0-.7-.14 3 3 0 0 0-.7.06l-8.52 4.1a1.5 1.5 0 0 0-.84 1.04l-2.1 9.18a1.8 1.8 0 0 0 .31 1.35l5.9 7.29a2 2 0 0 0 1.28.58h9.39a1.4 1.4 0 0 0 1.29-.58l5.89-7.3a2 2 0 0 0 .33-1.34zm113.04 12.21a3 3 0 0 0 1.17-.17.6.6 0 0 0 .34-.61.7.7 0 0 0-.45-.62 6 6 0 0 0-1.37-.61 11 11 0 0 1-1.29-.56 4 4 0 0 1-.97-.67 3 3 0 0 1-.62-.95 4 4 0 0 1-.22-1.31 2.9 2.9 0 0 1 1.11-2.38 4.8 4.8 0 0 1 3.05-.87 9 9 0 0 1 1.87.2 9 9 0 0 1 1.43.37l-.54 2.37c-.39-.14-.75-.22-1.14-.33a6 6 0 0 0-1.37-.14q-1.42 0-1.42.78l.05.33a1 1 0 0 0 .25.28l.48.28a5 5 0 0 0 .8.34 11 11 0 0 1 1.63.72 3 3 0 0 1 1 .79 2 2 0 0 1 .54.92 4 4 0 0 1 .16 1.17 2.7 2.7 0 0 1-1.2 2.4 6 6 0 0 1-3.35.81 9 9 0 0 1-2.37-.25q-.67-.17-1.29-.4l.5-2.45a10 10 0 0 0 1.57.48c.56.02 1.09.08 1.64.08m-15.39-3.07a7 7 0 0 1 .42-2.46 5 5 0 0 1 1.15-1.79 4.4 4.4 0 0 1 1.62-1.06 5 5 0 0 1 1.9-.36 4.7 4.7 0 0 1 3.57 1.4 5.8 5.8 0 0 1 1.32 4.08l-.03.58-.03.56h-6.81a2 2 0 0 0 .86 1.48 3.6 3.6 0 0 0 2.07.56 11 11 0 0 0 1.62-.14 6 6 0 0 0 1.31-.42l.42 2.46a4 4 0 0 1-.64.25 5 5 0 0 1-.92.2l-1.06.17q-.56.05-1.15.05a6 6 0 0 1-2.51-.42 4.5 4.5 0 0 1-2.8-2.9 9 9 0 0 1-.3-2.23m7.06-1.15a2 2 0 0 0-.14-.75 2 2 0 0 0-.33-.64 2 2 0 0 0-.59-.48 2 2 0 0 0-1.73 0 2 2 0 0 0-.61.45 2 2 0 0 0-.4.67 4 4 0 0 0-.16.75zm-15.25-6.94 3.02-.48v3.13h3.63v2.52h-3.63v3.74a3 3 0 0 0 .33 1.5 1.5 1.5 0 0 0 1.37.57 6 6 0 0 0 .98-.09 5 5 0 0 0 .95-.25l.42 2.35a9 9 0 0 1-1.23.39 8 8 0 0 1-1.65.17 5 5 0 0 1-2.04-.34 3 3 0 0 1-1.28-.92 4 4 0 0 1-.7-1.45 7 7 0 0 1-.17-1.87zm-12.2 8.07a7 7 0 0 1 .42-2.45 5 5 0 0 1 1.14-1.8 4.4 4.4 0 0 1 1.62-1.05 5 5 0 0 1 1.9-.37 4.7 4.7 0 0 1 3.58 1.4 5.8 5.8 0 0 1 1.3 4.08l-.02.59-.03.56h-6.84a2 2 0 0 0 .87 1.48 3.6 3.6 0 0 0 2.06.56 11 11 0 0 0 1.62-.14 6 6 0 0 0 1.34-.42l.42 2.46a4 4 0 0 1-.64.25 5 5 0 0 1-.92.2l-1.06.16q-.56.05-1.15.06a6 6 0 0 1-2.51-.42 4.5 4.5 0 0 1-2.8-2.9 7 7 0 0 1-.3-2.23m7.07-1.15a2 2 0 0 0-.14-.75 2 2 0 0 0-.34-.64 2 2 0 0 0-.59-.48 2 2 0 0 0-1.73 0 2 2 0 0 0-.59.45 2 2 0 0 0-.39.67 4 4 0 0 0-.16.75zM88.1 9.35q.98-.27 1.99-.43a16 16 0 0 1 2.54-.2 6 6 0 0 1 2.23.37 3 3 0 0 1 1.43.97 4 4 0 0 1 .75 1.54 8 8 0 0 1 .23 1.98v6h-3v-5.61a4 4 0 0 0-.38-2.07 1.6 1.6 0 0 0-1.43-.62 6 6 0 0 0-.7.03 4 4 0 0 0-.64.06v8.21H88.1V9.33m-2.12 2.32q-.42-.1-.95-.2a6 6 0 0 0-1.17-.11l-.7.05a4 4 0 0 0-.59.11v8.13h-3.02V9.53a15 15 0 0 1 1.9-.54 9 9 0 0 1 2.46-.25l.59.03a3 3 0 0 1 .7.08q.33.04.7.12a2 2 0 0 1 .59.16zm-18.75 2.73a7 7 0 0 1 .42-2.45 5 5 0 0 1 1.15-1.8 4.4 4.4 0 0 1 1.62-1.05 5 5 0 0 1 1.9-.37 4.7 4.7 0 0 1 3.57 1.4 5.7 5.7 0 0 1 1.32 4.06l-.03.58-.03.56H70.3a2 2 0 0 0 .86 1.48 3.6 3.6 0 0 0 2.07.56 11 11 0 0 0 1.62-.14 7 7 0 0 0 1.3-.4l.43 2.46a4 4 0 0 1-.65.25 5 5 0 0 1-.92.2l-1.06.17q-.55.04-1.14.05a6 6 0 0 1-2.52-.42 4.5 4.5 0 0 1-2.8-2.9 10 10 0 0 1-.27-2.23m7.1-1.15a2 2 0 0 0-.14-.75 2 2 0 0 0-.34-.64 2 2 0 0 0-.59-.48 2 2 0 0 0-1.73 0 2 2 0 0 0-.61.45 2 2 0 0 0-.4.67 4 4 0 0 0-.16.75zm-11.98.98q-.01-2.91-2.15-2.9a4 4 0 0 0-.92.11 2 2 0 0 0-.73.31v5.47q.22.05.56.08a6 6 0 0 0 .75.03 2.1 2.1 0 0 0 1.88-.84 4 4 0 0 0 .61-2.26m3.07.11a7 7 0 0 1-.39 2.32 5 5 0 0 1-1.05 1.76 5 5 0 0 1-1.74 1.15 7 7 0 0 1-2.34.39q-.55 0-1.15-.06l-1.17-.11q-.54-.08-1.09-.2a4 4 0 0 1-.92-.25V4.39l3-.48v5.3a7 7 0 0 1 1.07-.33 6 6 0 0 1 1.17-.11 5 5 0 0 1 2.01.42 4 4 0 0 1 1.46 1.12 5 5 0 0 1 .9 1.76 10 10 0 0 1 .24 2.26m-12.73 4.92a19 19 0 0 1-4.53.58 6 6 0 0 1-2.26-.36 4 4 0 0 1-1.43-1 4 4 0 0 1-.75-1.6 8 8 0 0 1-.22-2v-5.9h3.01v5.55a4 4 0 0 0 .4 2.1 1.5 1.5 0 0 0 1.42.64 6 6 0 0 0 .7-.03 4 4 0 0 0 .64-.08V8.97h3.02zm-17.6-6.42q.43-.5.92-1 .45-.54.92-1.04l.84-.98c.38-.45.5-.58.7-.8h3.57l-2.09 2.37q-1.03 1.13-2.23 2.32a14 14 0 0 1 1.25 1.3q.63.74 1.26 1.57c.39.53.78 1.1 1.12 1.62s.61 1.04.83 1.48h-3.46l-.75-1.14c-.41-.61-.6-.84-.87-1.29a14 14 0 0 0-1-1.23 7 7 0 0 0-1.01-.97v4.66h-3.01V4.39l3.01-.48z"/><path fill="#fff0e6" d="M20.98 14.02q-.05 0-.06-.03-.03-.03-.11-.02a1 1 0 0 0-.34-.03l-.16-.03h-.03a6 6 0 0 1-.95-.17.3.3 0 0 1-.2-.2l-.23-.05a7 7 0 0 0-.1-2.46 8 8 0 0 0-.99-2.3l.17-.16v-.03a.4.4 0 0 1 .09-.25 5 5 0 0 1 .78-.56l.17-.08.3-.17.09-.06c.03-.03 0-.02 0-.05a.55.55 0 0 0 .1-.78.5.5 0 0 0-.38-.2.7.7 0 0 0-.4.14l-.02.02-.08.06-.23.25q-.05.08-.11.11a4 4 0 0 1-.7.62l-.17.05-.11-.03h-.02l-.22.14q-.36-.33-.7-.67a7 7 0 0 0-3.64-1.45l-.02-.22v.03a.4.4 0 0 1-.14-.23 6 6 0 0 1 .05-.95v-.02l.03-.17.06-.34v-.16a.55.55 0 0 0-.48-.6.6.6 0 0 0-.47.2.6.6 0 0 0-.17.4v.14l.05.33.03.17v.03a5 5 0 0 1 .06.95.4.4 0 0 1-.14.22v.06l-.03.23q-.45.05-.95.14A6.7 6.7 0 0 0 7.17 7.8l-.16-.12h-.03l-.11.03-.17-.05A5 5 0 0 1 6 7q-.06-.07-.11-.1c-.09-.1-.14-.18-.23-.26l-.08-.05-.03-.03a.7.7 0 0 0-.4-.14.4.4 0 0 0-.38.2.6.6 0 0 0 .11.78l.03.03s.05.05.08.05l.3.17.18.09a4 4 0 0 1 .78.55.3.3 0 0 1 .08.26v-.03l.17.17-.08.14a6.6 6.6 0 0 0-.98 4.58l-.22.05-.03.03a.4.4 0 0 1-.2.2 5 5 0 0 1-.95.17l-.17.03-.33.02-.12.03q-.02 0-.05.03a.55.55 0 0 0-.45.64.5.5 0 0 0 .56.4l.14-.03q.04 0 .03-.03c-.01-.03.08 0 .1 0l.32-.11.16-.06h.03a5 5 0 0 1 .92-.25h.03a.3.3 0 0 1 .23.08l.02.03.25-.03a6.7 6.7 0 0 0 2.3 3.27 4 4 0 0 0 .75.5l-.14.2.03.03a.3.3 0 0 1 .02.28 5 5 0 0 1-.44.8v.04l-.11.14q-.09.09-.2.27l-.06.09-.03.03a.57.57 0 0 0 .22.75l.2.06a.6.6 0 0 0 .54-.34l.02-.03q0-.03.06-.08l.11-.3.06-.18a5 5 0 0 1 .36-.86.4.4 0 0 1 .22-.17q.04 0 .03-.03l.11-.22a7 7 0 0 0 2.43.45 6 6 0 0 0 1.51-.2 8 8 0 0 0 .9-.25l.1.2q.05 0 .04.02a.4.4 0 0 1 .22.17 5 5 0 0 1 .36.87v.03l.07.14a1 1 0 0 0 .11.3l.06.1.02.02a.6.6 0 0 0 .54.34l.22-.06a.5.5 0 0 0 .25-.3 1 1 0 0 0-.03-.43l-.03-.02q0-.04-.05-.09a1 1 0 0 0-.2-.28l-.11-.14v-.05a3 3 0 0 1-.45-.81.3.3 0 0 1 .03-.28l.03-.03-.09-.22a7 7 0 0 0 3.02-3.8l.22.02.03-.02a.3.3 0 0 1 .22-.09h.03a5 5 0 0 1 .9.25h.02a.4.4 0 0 0 .17.06l.3.14.12.03q.03 0 .05.03l.14.02a.6.6 0 0 0 .56-.39.7.7 0 0 0-.5-.58Zm-8.08-.86-.75.36-.75-.36-.2-.81.53-.67h.84l.53.67Zm4.56-1.82a5 5 0 0 1 .11 1.76l-2.65-.75a.46.46 0 0 1-.34-.56l.11-.2 2.1-1.9a6 6 0 0 1 .67 1.65m-1.5-2.68-2.3 1.62a.5.5 0 0 1-.61-.11.3.3 0 0 1-.09-.2l-.16-2.82a5.3 5.3 0 0 1 3.15 1.5Zm-5.07-1.43.56-.1-.14 2.78a.47.47 0 0 1-.47.45l-.23-.06L8.3 8.65a5.6 5.6 0 0 1 2.6-1.42ZM7.5 9.7l2.06 1.85a.45.45 0 0 1 .06.64.3.3 0 0 1-.23.14l-2.7.78a6 6 0 0 1 .8-3.4M7 14.41l2.77-.47a.46.46 0 0 1 .47.36.3.3 0 0 1-.03.28l-1.06 2.57A5.5 5.5 0 0 1 7 14.41m6.34 3.47a6 6 0 0 1-1.2.14 6 6 0 0 1-1.76-.28l1.37-2.49a.43.43 0 0 1 .56-.11l.22.2 1.34 2.43zm3.4-2.43a5 5 0 0 1-1.67 1.67L14 14.5a.45.45 0 0 1 .25-.54l.25-.05 2.8.47a4 4 0 0 1-.53 1.07Z"/></g><g transform="rotate(-10.02 461.484 -63.351)"><path fill="rgba(250,105,15,0.1)" d="M54.23 11.99a23 23 0 0 0-2-3.4l-8.21 2.99a15 15 0 0 1 2.41 3.25Zm-36.3 9.08L9.7 24.06a24 24 0 0 0 .65 3.9l7.8-2.85a15 15 0 0 1-.24-4.04"/><path fill="rgba(250,105,15,0.1)" d="M36.16 9.66a15 15 0 0 1 4.43 3.16l8.22-2.99A23.48 23.48 0 0 0 6.29 25.3l8.22-2.99A15.22 15.22 0 0 1 36.16 9.66m8.76 15.01a15 15 0 0 1-1.38 5.27 15.3 15.3 0 0 1-20.28 7.38 15 15 0 0 1-4.45-3.15l-8.2 2.98A23.46 23.46 0 0 0 51 33.42a23 23 0 0 0 2.12-11.73z"/><path fill="rgba(250,105,15,0.1)" d="m46.94 14.64-7.8 2.84a15.3 15.3 0 0 1 1.9 8.6l8.2-2.98a24 24 0 0 0-2.3-8.46M10.88 27.77l-7.8 2.84a24 24 0 0 0 3.67 7.95l8.2-2.98a15.3 15.3 0 0 1-4.06-7.81"/><path fill="none" d="M53.04 9.82a23 23 0 0 0-.82-1.23l-8.2 2.99a15 15 0 0 1 1 1.16Zm-35.15 12.9a15 15 0 0 1 .03-1.65l-8.21 2.99q.06.8.19 1.57zm35.22-1.03-8.2 2.98a15 15 0 0 1-.7 3.52l8.93-3.25a24 24 0 0 0-.03-3.25M10.6 37.15a23 23 0 0 0 2.09 2.54l8.92-3.25a15 15 0 0 1-2.81-2.27Z"/><path fill="rgba(250,105,15,0.1)" d="M52.69 54.53v.74h2.15v6.56h.8v-6.56h2.16v-.74Zm-4.93.74v2.42h2v.74h-2v3.4h-.81v-7.3h4.28v.74zm-3.72-.74h.82v7.3h-.82Zm-2.9 7.3v-3.44h-3.63v3.44h-.81v-7.3h.81v3.12h3.63v-3.12h.81v7.3Zm-8.66.11a3.5 3.5 0 0 1-2.45-1l.54-.6a2.8 2.8 0 0 0 1.93.86c.97 0 1.57-.48 1.57-1.25 0-.68-.4-1.06-1.74-1.54-1.57-.56-2.1-1.07-2.1-2.13 0-1.16.92-1.86 2.28-1.86a3.3 3.3 0 0 1 2.22.78l-.52.63a2.5 2.5 0 0 0-1.75-.67c-1 0-1.41.5-1.41 1.07 0 .6.27.95 1.73 1.47 1.61.58 2.11 1.13 2.11 2.2 0 1.16-.9 2.04-2.42 2.04m-5.74-.11-2.67-3.98c-.18-.28-.42-.64-.52-.83l.03 1.6v3.2h-1.45v-7.29h1.4l2.59 3.86c.18.27.41.63.5.82l-.01-1.6v-3.08h1.44v7.3zm-11.5 0v-7.3h5.07v1.43h-3.6v1.26h2.1v1.42h-2.11v1.76h3.76v1.43Zm-4.14-2.59H9.48v2.58H8.02v-7.29h3.19a2.26 2.26 0 0 1 2.51 2.31c0 1.7-1.12 2.4-2.64 2.4m.08-3.29H9.48v1.88h1.7q1.03 0 1.04-.95c.01-.95-.42-.93-1.06-.93m-7.95 5.99C1.3 61.94 0 60.54 0 58.19s1.32-3.77 3.23-3.77 3.2 1.4 3.2 3.75-1.32 3.77-3.22 3.77m-.01-6.07c-1.02 0-1.7.82-1.7 2.3s.7 2.32 1.73 2.32 1.7-.82 1.7-2.3-.7-2.32-1.73-2.32"/></g><g transform="rotate(-10.02 -35.27 -1083.902)"><path fill="rgba(250,105,15,0.1)" d="M54.23 11.99a23 23 0 0 0-2-3.4l-8.21 2.99a15 15 0 0 1 2.41 3.25Zm-36.3 9.08L9.7 24.06a24 24 0 0 0 .65 3.9l7.8-2.85a15 15 0 0 1-.24-4.04"/><path fill="rgba(250,105,15,0.1)" d="M36.16 9.66a15 15 0 0 1 4.43 3.16l8.22-2.99A23.48 23.48 0 0 0 6.29 25.3l8.22-2.99A15.22 15.22 0 0 1 36.16 9.66m8.76 15.01a15 15 0 0 1-1.38 5.27 15.3 15.3 0 0 1-20.28 7.38 15 15 0 0 1-4.45-3.15l-8.2 2.98A23.46 23.46 0 0 0 51 33.42a23 23 0 0 0 2.12-11.73z"/><path fill="rgba(250,105,15,0.1)" d="m46.94 14.64-7.8 2.84a15.3 15.3 0 0 1 1.9 8.6l8.2-2.98a24 24 0 0 0-2.3-8.46M10.88 27.77l-7.8 2.84a24 24 0 0 0 3.67 7.95l8.2-2.98a15.3 15.3 0 0 1-4.06-7.81"/><path fill="none" d="M53.04 9.82a23 23 0 0 0-.82-1.23l-8.2 2.99a15 15 0 0 1 1 1.16Zm-35.15 12.9a15 15 0 0 1 .03-1.65l-8.21 2.99q.06.8.19 1.57zm35.22-1.03-8.2 2.98a15 15 0 0 1-.7 3.52l8.93-3.25a24 24 0 0 0-.03-3.25M10.6 37.15a23 23 0 0 0 2.09 2.54l8.92-3.25a15 15 0 0 1-2.81-2.27Z"/><path fill="rgba(250,105,15,0.1)" d="M52.69 54.53v.74h2.15v6.56h.8v-6.56h2.16v-.74Zm-4.93.74v2.42h2v.74h-2v3.4h-.81v-7.3h4.28v.74zm-3.72-.74h.82v7.3h-.82Zm-2.9 7.3v-3.44h-3.63v3.44h-.81v-7.3h.81v3.12h3.63v-3.12h.81v7.3Zm-8.66.11a3.5 3.5 0 0 1-2.45-1l.54-.6a2.8 2.8 0 0 0 1.93.86c.97 0 1.57-.48 1.57-1.25 0-.68-.4-1.06-1.74-1.54-1.57-.56-2.1-1.07-2.1-2.13 0-1.16.92-1.86 2.28-1.86a3.3 3.3 0 0 1 2.22.78l-.52.63a2.5 2.5 0 0 0-1.75-.67c-1 0-1.41.5-1.41 1.07 0 .6.27.95 1.73 1.47 1.61.58 2.11 1.13 2.11 2.2 0 1.16-.9 2.04-2.42 2.04m-5.74-.11-2.67-3.98c-.18-.28-.42-.64-.52-.83l.03 1.6v3.2h-1.45v-7.29h1.4l2.59 3.86c.18.27.41.63.5.82l-.01-1.6v-3.08h1.44v7.3zm-11.5 0v-7.3h5.07v1.43h-3.6v1.26h2.1v1.42h-2.11v1.76h3.76v1.43Zm-4.14-2.59H9.48v2.58H8.02v-7.29h3.19a2.26 2.26 0 0 1 2.51 2.31c0 1.7-1.12 2.4-2.64 2.4m.08-3.29H9.48v1.88h1.7q1.03 0 1.04-.95c.01-.95-.42-.93-1.06-.93m-7.95 5.99C1.3 61.94 0 60.54 0 58.19s1.32-3.77 3.23-3.77 3.2 1.4 3.2 3.75-1.32 3.77-3.22 3.77m-.01-6.07c-1.02 0-1.7.82-1.7 2.3s.7 2.32 1.73 2.32 1.7-.82 1.7-2.3-.7-2.32-1.73-2.32"/></g><g transform="rotate(-10.02 774.723 -1271.42)"><path fill="rgba(250,105,15,0.1)" d="M22.29 5.25a1.8 1.8 0 0 0-.9-1.03L12.89.14a2 2 0 0 0-.7-.14 3 3 0 0 0-.7.06l-8.52 4.1a1.5 1.5 0 0 0-.84 1.04l-2.1 9.18a1.8 1.8 0 0 0 .31 1.35l5.9 7.29a2 2 0 0 0 1.28.58h9.39a1.4 1.4 0 0 0 1.29-.58l5.89-7.3a2 2 0 0 0 .33-1.34zm113.04 12.21a3 3 0 0 0 1.17-.17.6.6 0 0 0 .34-.61.7.7 0 0 0-.45-.62 6 6 0 0 0-1.37-.61 11 11 0 0 1-1.29-.56 4 4 0 0 1-.97-.67 3 3 0 0 1-.62-.95 4 4 0 0 1-.22-1.31 2.9 2.9 0 0 1 1.11-2.38 4.8 4.8 0 0 1 3.05-.87 9 9 0 0 1 1.87.2 9 9 0 0 1 1.43.37l-.54 2.37c-.39-.14-.75-.22-1.14-.33a6 6 0 0 0-1.37-.14q-1.42 0-1.42.78l.05.33a1 1 0 0 0 .25.28l.48.28a5 5 0 0 0 .8.34 11 11 0 0 1 1.63.72 3 3 0 0 1 1 .79 2 2 0 0 1 .54.92 4 4 0 0 1 .16 1.17 2.7 2.7 0 0 1-1.2 2.4 6 6 0 0 1-3.35.81 9 9 0 0 1-2.37-.25q-.67-.17-1.29-.4l.5-2.45a10 10 0 0 0 1.57.48c.56.02 1.09.08 1.64.08m-15.39-3.07a7 7 0 0 1 .42-2.46 5 5 0 0 1 1.15-1.79 4.4 4.4 0 0 1 1.62-1.06 5 5 0 0 1 1.9-.36 4.7 4.7 0 0 1 3.57 1.4 5.8 5.8 0 0 1 1.32 4.08l-.03.58-.03.56h-6.81a2 2 0 0 0 .86 1.48 3.6 3.6 0 0 0 2.07.56 11 11 0 0 0 1.62-.14 6 6 0 0 0 1.31-.42l.42 2.46a4 4 0 0 1-.64.25 5 5 0 0 1-.92.2l-1.06.17q-.56.05-1.15.05a6 6 0 0 1-2.51-.42 4.5 4.5 0 0 1-2.8-2.9 9 9 0 0 1-.3-2.23m7.06-1.15a2 2 0 0 0-.14-.75 2 2 0 0 0-.33-.64 2 2 0 0 0-.59-.48 2 2 0 0 0-1.73 0 2 2 0 0 0-.61.45 2 2 0 0 0-.4.67 4 4 0 0 0-.16.75zm-15.25-6.94 3.02-.48v3.13h3.63v2.52h-3.63v3.74a3 3 0 0 0 .33 1.5 1.5 1.5 0 0 0 1.37.57 6 6 0 0 0 .98-.09 5 5 0 0 0 .95-.25l.42 2.35a9 9 0 0 1-1.23.39 8 8 0 0 1-1.65.17 5 5 0 0 1-2.04-.34 3 3 0 0 1-1.28-.92 4 4 0 0 1-.7-1.45 7 7 0 0 1-.17-1.87zm-12.2 8.07a7 7 0 0 1 .42-2.45 5 5 0 0 1 1.14-1.8 4.4 4.4 0 0 1 1.62-1.05 5 5 0 0 1 1.9-.37 4.7 4.7 0 0 1 3.58 1.4 5.8 5.8 0 0 1 1.3 4.08l-.02.59-.03.56h-6.84a2 2 0 0 0 .87 1.48 3.6 3.6 0 0 0 2.06.56 11 11 0 0 0 1.62-.14 6 6 0 0 0 1.34-.42l.42 2.46a4 4 0 0 1-.64.25 5 5 0 0 1-.92.2l-1.06.16q-.56.05-1.15.06a6 6 0 0 1-2.51-.42 4.5 4.5 0 0 1-2.8-2.9 7 7 0 0 1-.3-2.23m7.07-1.15a2 2 0 0 0-.14-.75 2 2 0 0 0-.34-.64 2 2 0 0 0-.59-.48 2 2 0 0 0-1.73 0 2 2 0 0 0-.59.45 2 2 0 0 0-.39.67 4 4 0 0 0-.16.75zM88.1 9.35q.98-.27 1.99-.43a16 16 0 0 1 2.54-.2 6 6 0 0 1 2.23.37 3 3 0 0 1 1.43.97 4 4 0 0 1 .75 1.54 8 8 0 0 1 .23 1.98v6h-3v-5.61a4 4 0 0 0-.38-2.07 1.6 1.6 0 0 0-1.43-.62 6 6 0 0 0-.7.03 4 4 0 0 0-.64.06v8.21H88.1V9.33m-2.12 2.32q-.42-.1-.95-.2a6 6 0 0 0-1.17-.11l-.7.05a4 4 0 0 0-.59.11v8.13h-3.02V9.53a15 15 0 0 1 1.9-.54 9 9 0 0 1 2.46-.25l.59.03a3 3 0 0 1 .7.08q.33.04.7.12a2 2 0 0 1 .59.16zm-18.75 2.73a7 7 0 0 1 .42-2.45 5 5 0 0 1 1.15-1.8 4.4 4.4 0 0 1 1.62-1.05 5 5 0 0 1 1.9-.37 4.7 4.7 0 0 1 3.57 1.4 5.7 5.7 0 0 1 1.32 4.06l-.03.58-.03.56H70.3a2 2 0 0 0 .86 1.48 3.6 3.6 0 0 0 2.07.56 11 11 0 0 0 1.62-.14 7 7 0 0 0 1.3-.4l.43 2.46a4 4 0 0 1-.65.25 5 5 0 0 1-.92.2l-1.06.17q-.55.04-1.14.05a6 6 0 0 1-2.52-.42 4.5 4.5 0 0 1-2.8-2.9 10 10 0 0 1-.27-2.23m7.1-1.15a2 2 0 0 0-.14-.75 2 2 0 0 0-.34-.64 2 2 0 0 0-.59-.48 2 2 0 0 0-1.73 0 2 2 0 0 0-.61.45 2 2 0 0 0-.4.67 4 4 0 0 0-.16.75zm-11.98.98q-.01-2.91-2.15-2.9a4 4 0 0 0-.92.11 2 2 0 0 0-.73.31v5.47q.22.05.56.08a6 6 0 0 0 .75.03 2.1 2.1 0 0 0 1.88-.84 4 4 0 0 0 .61-2.26m3.07.11a7 7 0 0 1-.39 2.32 5 5 0 0 1-1.05 1.76 5 5 0 0 1-1.74 1.15 7 7 0 0 1-2.34.39q-.55 0-1.15-.06l-1.17-.11q-.54-.08-1.09-.2a4 4 0 0 1-.92-.25V4.39l3-.48v5.3a7 7 0 0 1 1.07-.33 6 6 0 0 1 1.17-.11 5 5 0 0 1 2.01.42 4 4 0 0 1 1.46 1.12 5 5 0 0 1 .9 1.76 10 10 0 0 1 .24 2.26m-12.73 4.92a19 19 0 0 1-4.53.58 6 6 0 0 1-2.26-.36 4 4 0 0 1-1.43-1 4 4 0 0 1-.75-1.6 8 8 0 0 1-.22-2v-5.9h3.01v5.55a4 4 0 0 0 .4 2.1 1.5 1.5 0 0 0 1.42.64 6 6 0 0 0 .7-.03 4 4 0 0 0 .64-.08V8.97h3.02zm-17.6-6.42q.43-.5.92-1 .45-.54.92-1.04l.84-.98c.38-.45.5-.58.7-.8h3.57l-2.09 2.37q-1.03 1.13-2.23 2.32a14 14 0 0 1 1.25 1.3q.63.74 1.26 1.57c.39.53.78 1.1 1.12 1.62s.61 1.04.83 1.48h-3.46l-.75-1.14c-.41-.61-.6-.84-.87-1.29a14 14 0 0 0-1-1.23 7 7 0 0 0-1.01-.97v4.66h-3.01V4.39l3.01-.48z"/><path fill="#fff0e6" d="M20.98 14.02q-.05 0-.06-.03-.03-.03-.11-.02a1 1 0 0 0-.34-.03l-.16-.03h-.03a6 6 0 0 1-.95-.17.3.3 0 0 1-.2-.2l-.23-.05a7 7 0 0 0-.1-2.46 8 8 0 0 0-.99-2.3l.17-.16v-.03a.4.4 0 0 1 .09-.25 5 5 0 0 1 .78-.56l.17-.08.3-.17.09-.06c.03-.03 0-.02 0-.05a.55.55 0 0 0 .1-.78.5.5 0 0 0-.38-.2.7.7 0 0 0-.4.14l-.02.02-.08.06-.23.25q-.05.08-.11.11a4 4 0 0 1-.7.62l-.17.05-.11-.03h-.02l-.22.14q-.36-.33-.7-.67a7 7 0 0 0-3.64-1.45l-.02-.22v.03a.4.4 0 0 1-.14-.23 6 6 0 0 1 .05-.95v-.02l.03-.17.06-.34v-.16a.55.55 0 0 0-.48-.6.6.6 0 0 0-.47.2.6.6 0 0 0-.17.4v.14l.05.33.03.17v.03a5 5 0 0 1 .06.95.4.4 0 0 1-.14.22v.06l-.03.23q-.45.05-.95.14A6.7 6.7 0 0 0 7.17 7.8l-.16-.12h-.03l-.11.03-.17-.05A5 5 0 0 1 6 7q-.06-.07-.11-.1c-.09-.1-.14-.18-.23-.26l-.08-.05-.03-.03a.7.7 0 0 0-.4-.14.4.4 0 0 0-.38.2.6.6 0 0 0 .11.78l.03.03s.05.05.08.05l.3.17.18.09a4 4 0 0 1 .78.55.3.3 0 0 1 .08.26v-.03l.17.17-.08.14a6.6 6.6 0 0 0-.98 4.58l-.22.05-.03.03a.4.4 0 0 1-.2.2 5 5 0 0 1-.95.17l-.17.03-.33.02-.12.03q-.02 0-.05.03a.55.55 0 0 0-.45.64.5.5 0 0 0 .56.4l.14-.03q.04 0 .03-.03c-.01-.03.08 0 .1 0l.32-.11.16-.06h.03a5 5 0 0 1 .92-.25h.03a.3.3 0 0 1 .23.08l.02.03.25-.03a6.7 6.7 0 0 0 2.3 3.27 4 4 0 0 0 .75.5l-.14.2.03.03a.3.3 0 0 1 .02.28 5 5 0 0 1-.44.8v.04l-.11.14q-.09.09-.2.27l-.06.09-.03.03a.57.57 0 0 0 .22.75l.2.06a.6.6 0 0 0 .54-.34l.02-.03q0-.03.06-.08l.11-.3.06-.18a5 5 0 0 1 .36-.86.4.4 0 0 1 .22-.17q.04 0 .03-.03l.11-.22a7 7 0 0 0 2.43.45 6 6 0 0 0 1.51-.2 8 8 0 0 0 .9-.25l.1.2q.05 0 .04.02a.4.4 0 0 1 .22.17 5 5 0 0 1 .36.87v.03l.07.14a1 1 0 0 0 .11.3l.06.1.02.02a.6.6 0 0 0 .54.34l.22-.06a.5.5 0 0 0 .25-.3 1 1 0 0 0-.03-.43l-.03-.02q0-.04-.05-.09a1 1 0 0 0-.2-.28l-.11-.14v-.05a3 3 0 0 1-.45-.81.3.3 0 0 1 .03-.28l.03-.03-.09-.22a7 7 0 0 0 3.02-3.8l.22.02.03-.02a.3.3 0 0 1 .22-.09h.03a5 5 0 0 1 .9.25h.02a.4.4 0 0 0 .17.06l.3.14.12.03q.03 0 .05.03l.14.02a.6.6 0 0 0 .56-.39.7.7 0 0 0-.5-.58Zm-8.08-.86-.75.36-.75-.36-.2-.81.53-.67h.84l.53.67Zm4.56-1.82a5 5 0 0 1 .11 1.76l-2.65-.75a.46.46 0 0 1-.34-.56l.11-.2 2.1-1.9a6 6 0 0 1 .67 1.65m-1.5-2.68-2.3 1.62a.5.5 0 0 1-.61-.11.3.3 0 0 1-.09-.2l-.16-2.82a5.3 5.3 0 0 1 3.15 1.5Zm-5.07-1.43.56-.1-.14 2.78a.47.47 0 0 1-.47.45l-.23-.06L8.3 8.65a5.6 5.6 0 0 1 2.6-1.42ZM7.5 9.7l2.06 1.85a.45.45 0 0 1 .06.64.3.3 0 0 1-.23.14l-2.7.78a6 6 0 0 1 .8-3.4M7 14.41l2.77-.47a.46.46 0 0 1 .47.36.3.3 0 0 1-.03.28l-1.06 2.57A5.5 5.5 0 0 1 7 14.41m6.34 3.47a6 6 0 0 1-1.2.14 6 6 0 0 1-1.76-.28l1.37-2.49a.43.43 0 0 1 .56-.11l.22.2 1.34 2.43zm3.4-2.43a5 5 0 0 1-1.67 1.67L14 14.5a.45.45 0 0 1 .25-.54l.25-.05 2.8.47a4 4 0 0 1-.53 1.07Z"/></g><path fill="rgba(250,105,15,0.1)" d="m67.7 179.05-11.26 1.99-1.23 5.57-5.76 1.02 6.53-26.17 5.55-.98 15.13 22.34-5.9 1.05Zm-2.52-3.95-5.49-8.61-2.2 9.97Zm20.22-18.84a14 14 0 0 1 5.8.1 8.4 8.4 0 0 1 4.19 2.4 8.5 8.5 0 0 1 2.1 4.45 8.6 8.6 0 0 1-.45 4.89 8.3 8.3 0 0 1-3.12 3.7 14 14 0 0 1-5.41 2.04l-4.89.87 1.19 6.68-5.62 1-4.29-24.27Zm1.99 13.06a6 6 0 0 0 3.65-1.78 3.9 3.9 0 0 0 .77-3.33 3.9 3.9 0 0 0-1.87-2.9 6 6 0 0 0-4.04-.42l-4.57.81 1.48 8.42Zm12.53-15.62 5.62-1 4.28 24.27-5.61.99Zm178.34-80.05L267 75.64l-1.23 5.57-5.75 1.02 6.52-26.17 5.55-.98 15.13 22.34-5.9 1.05Zm-2.52-3.95-5.49-8.61-2.2 9.97Zm20.22-18.84a14 14 0 0 1 5.8.1 8.4 8.4 0 0 1 4.19 2.4 8.5 8.5 0 0 1 2.1 4.45 8.6 8.6 0 0 1-.45 4.89 8.3 8.3 0 0 1-3.12 3.7 14 14 0 0 1-5.41 2.04l-4.89.87 1.19 6.68-5.62 1-4.29-24.27Zm1.99 13.06a6 6 0 0 0 3.65-1.78 3.9 3.9 0 0 0 .77-3.33 3.9 3.9 0 0 0-1.87-2.9 6 6 0 0 0-4.04-.42l-4.57.81 1.49 8.42Zm12.54-15.62 5.61-1 4.29 24.27-5.62.99ZM70.15 4.05 58.9 6.04l-1.23 5.57-5.75 1.02 6.53-26.17 5.54-.98L79.11 7.82l-5.89 1.05ZM67.63.1l-5.49-8.61-2.2 9.97Zm20.23-18.84a14 14 0 0 1 5.78.1 8.4 8.4 0 0 1 4.2 2.4 8.5 8.5 0 0 1 2.1 4.45 8.6 8.6 0 0 1-.45 4.89 8.3 8.3 0 0 1-3.12 3.7 14 14 0 0 1-5.4 2.04l-4.9.87 1.19 6.68-5.62 1-4.28-24.27Zm1.98 13.06a6 6 0 0 0 3.65-1.78 3.9 3.9 0 0 0 .77-3.33 3.9 3.9 0 0 0-1.87-2.9 6 6 0 0 0-4.04-.42l-4.57.81 1.49 8.42Zm12.54-15.62 5.61-1 4.29 24.27-5.62.99Z"/><g transform="rotate(-10.02 1070.82 -1585.307)"><path fill="rgba(250,105,15,0.1)" d="M54.23 11.99a23 23 0 0 0-2-3.4l-8.21 2.99a15 15 0 0 1 2.41 3.25Zm-36.3 9.08L9.7 24.06a24 24 0 0 0 .65 3.9l7.8-2.85a15 15 0 0 1-.24-4.04"/><path fill="rgba(250,105,15,0.1)" d="M36.16 9.66a15 15 0 0 1 4.43 3.16l8.22-2.99A23.48 23.48 0 0 0 6.29 25.3l8.22-2.99A15.22 15.22 0 0 1 36.16 9.66m8.76 15.01a15 15 0 0 1-1.38 5.27 15.3 15.3 0 0 1-20.28 7.38 15 15 0 0 1-4.45-3.15l-8.2 2.98A23.46 23.46 0 0 0 51 33.42a23 23 0 0 0 2.12-11.73z"/><path fill="rgba(250,105,15,0.1)" d="m46.94 14.64-7.8 2.84a15.3 15.3 0 0 1 1.9 8.6l8.2-2.98a24 24 0 0 0-2.3-8.46M10.88 27.77l-7.8 2.84a24 24 0 0 0 3.67 7.95l8.2-2.98a15.3 15.3 0 0 1-4.06-7.81"/><path fill="none" d="M53.04 9.82a23 23 0 0 0-.82-1.23l-8.2 2.99a15 15 0 0 1 1 1.16Zm-35.15 12.9a15 15 0 0 1 .03-1.65l-8.21 2.99q.06.8.19 1.57zm35.22-1.03-8.2 2.98a15 15 0 0 1-.7 3.52l8.93-3.25a24 24 0 0 0-.03-3.25M10.6 37.15a23 23 0 0 0 2.09 2.54l8.92-3.25a15 15 0 0 1-2.81-2.27Z"/><path fill="rgba(250,105,15,0.1)" d="M52.69 54.53v.74h2.15v6.56h.8v-6.56h2.16v-.74Zm-4.93.74v2.42h2v.74h-2v3.4h-.81v-7.3h4.28v.74zm-3.72-.74h.82v7.3h-.82Zm-2.9 7.3v-3.44h-3.63v3.44h-.81v-7.3h.81v3.12h3.63v-3.12h.81v7.3Zm-8.66.11a3.5 3.5 0 0 1-2.45-1l.54-.6a2.8 2.8 0 0 0 1.93.86c.97 0 1.57-.48 1.57-1.25 0-.68-.4-1.06-1.74-1.54-1.57-.56-2.1-1.07-2.1-2.13 0-1.16.92-1.86 2.28-1.86a3.3 3.3 0 0 1 2.22.78l-.52.63a2.5 2.5 0 0 0-1.75-.67c-1 0-1.41.5-1.41 1.07 0 .6.27.95 1.73 1.47 1.61.58 2.11 1.13 2.11 2.2 0 1.16-.9 2.04-2.42 2.04m-5.74-.11-2.67-3.98c-.18-.28-.42-.64-.52-.83l.03 1.6v3.2h-1.45v-7.29h1.4l2.59 3.86c.18.27.41.63.5.82l-.01-1.6v-3.08h1.44v7.3zm-11.5 0v-7.3h5.07v1.43h-3.6v1.26h2.1v1.42h-2.11v1.76h3.76v1.43Zm-4.14-2.59H9.48v2.58H8.02v-7.29h3.19a2.26 2.26 0 0 1 2.51 2.31c0 1.7-1.12 2.4-2.64 2.4m.08-3.29H9.48v1.88h1.7q1.03 0 1.04-.95c.01-.95-.42-.93-1.06-.93m-7.95 5.99C1.3 61.94 0 60.54 0 58.19s1.32-3.77 3.23-3.77 3.2 1.4 3.2 3.75-1.32 3.77-3.22 3.77m-.01-6.07c-1.02 0-1.7.82-1.7 2.3s.7 2.32 1.73 2.32 1.7-.82 1.7-2.3-.7-2.32-1.73-2.32"/></g><path fill="rgba(250,105,15,0.1)" d="M203.22 186.44a17 17 0 0 1-4.7.17 11 11 0 0 1-3.85-1.04l.95-3.77a11 11 0 0 0 3.33.98 12 12 0 0 0 3.64-.06 6 6 0 0 0 2.81-1.1 1.8 1.8 0 0 0 .67-1.72 1.5 1.5 0 0 0-.77-1.09 4 4 0 0 0-1.56-.5q-.92-.13-2.47-.21a33 33 0 0 1-3.93-.43 6 6 0 0 1-2.8-1.3 4.8 4.8 0 0 1-1.62-3.01 5.7 5.7 0 0 1 .39-3.32 6.4 6.4 0 0 1 2.44-2.75 12 12 0 0 1 4.5-1.64 16 16 0 0 1 3.82-.2 11 11 0 0 1 3.43.73l-.8 3.77a11.3 11.3 0 0 0-5.82-.6 5.3 5.3 0 0 0-2.76 1.14 2 2 0 0 0-.64 1.82 1.65 1.65 0 0 0 1.34 1.34 17 17 0 0 0 3.45.4 33 33 0 0 1 3.93.43 6 6 0 0 1 2.8 1.27 4.7 4.7 0 0 1 1.6 3 5.5 5.5 0 0 1-.4 3.3 6.5 6.5 0 0 1-2.48 2.74 12 12 0 0 1-4.5 1.65m17.47-15.66a7 7 0 0 1 4.37 1.24 5.5 5.5 0 0 1 2.07 3.54 6 6 0 0 1-.35 3.37 6.5 6.5 0 0 1-2.37 2.85 11 11 0 0 1-4.42 1.7 16 16 0 0 1-4.26.18 11 11 0 0 1-3.75-.98l1.17-3.86a9 9 0 0 0 2.88.86 10 10 0 0 0 3.15-.07 5 5 0 0 0 2.63-1.15 2.2 2.2 0 0 0 .66-2.08q-.43-2.46-4.18-1.8l-2.1.38-.55-3.06 3.3-5.38-8.52 1.5-.65-3.7 14-2.48.52 3Z"/></g></svg>