<svg xmlns="http://www.w3.org/2000/svg" xmlns:xlink="http://www.w3.org/1999/xlink" width="350" height="250" viewBox="0 0 350 250"><defs><clipPath id="clip-safespring-webinar-29-3"><path d="M0 0h350v250H0z"/></clipPath></defs><g id="safespring-webinar-29-3" clip-path="url(#clip-safespring-webinar-29-3)"><path fill="#fff" d="M0 0h350v250H0z"/><path id="Rectangle_407" fill="#d15b5b" d="M0 0h350v79H0z"/><g id="Group_627"><path id="Path_5737" fill="#fff" d="M-25.9-26.22A12 12 0 0 1-20.35-25a8.7 8.7 0 0 1 3.74 3.72 13 13 0 0 1 1.34 6.34V0h-4.7v-14.4q0-3.8-1.75-5.71a6.4 6.4 0 0 0-4.96-1.91 8 8 0 0 0-4.1 1 6.7 6.7 0 0 0-2.72 2.9 10.5 10.5 0 0 0-.96 4.72V0h-4.7v-14.4q0-3.8-1.75-5.71a6.4 6.4 0 0 0-4.96-1.91 8 8 0 0 0-4.1 1 6.7 6.7 0 0 0-2.72 2.9 10.5 10.5 0 0 0-.96 4.72V0h-4.7v-25.95h4.5v6.9l-.76-1.76a9 9 0 0 1 3.8-4 12 12 0 0 1 5.93-1.42 11 11 0 0 1 6.4 1.84 8.8 8.8 0 0 1 3.55 5.56l-1.93-.76a10 10 0 0 1 4.1-4.81 12.7 12.7 0 0 1 6.85-1.83M9.52 0v-5.49L9.3-6.53v-9.37a6 6 0 0 0-1.75-4.61 7.4 7.4 0 0 0-5.21-1.64 14 14 0 0 0-4.53.75 12 12 0 0 0-3.73 2.03l-1.97-3.5a14 14 0 0 1 4.85-2.5 20 20 0 0 1 5.91-.86q5.32 0 8.23 2.6t2.9 7.97V0Zm-8.5.27a12.5 12.5 0 0 1-5.1-.96A7.7 7.7 0 0 1-7.43-3.4 7 7 0 0 1-8.6-7.37a7.4 7.4 0 0 1 1-3.81 7 7 0 0 1 3.3-2.75 15 15 0 0 1 6.13-1.04h8.24v3.42H2.02q-3.49 0-4.73 1.16a3.8 3.8 0 0 0-1.23 2.85 3.6 3.6 0 0 0 1.52 3.06 7 7 0 0 0 4.23 1.13 9 9 0 0 0 4.62-1.17 6.7 6.7 0 0 0 2.88-3.44l.9 3.25a7.3 7.3 0 0 1-3.29 3.66A12 12 0 0 1 1.02.27M22.72 0v-25.95h4.5v7.04l-.48-1.76a8.2 8.2 0 0 1 3.64-4.13 13 13 0 0 1 6.28-1.42v4.58l-.55-.07q-.26-.03-.53-.02a8 8 0 0 0-5.97 2.26q-2.2 2.25-2.2 6.55V0Zm27.5.27a21 21 0 0 1-6.18-.88 15 15 0 0 1-4.6-2.14l2-3.72a15 15 0 0 0 4.11 1.93 16 16 0 0 0 5 .78 9 9 0 0 0 4.72-.95 2.9 2.9 0 0 0 1.47-2.58 2.3 2.3 0 0 0-.9-1.91 6 6 0 0 0-2.34-1.04q-1.46-.36-3.22-.62t-3.52-.67a13 13 0 0 1-3.22-1.18 6 6 0 0 1-2.35-2.13 6.4 6.4 0 0 1-.89-3.58 6.6 6.6 0 0 1 1.33-4.1 8.5 8.5 0 0 1 3.74-2.74 15 15 0 0 1 5.76-.97 22 22 0 0 1 5.17.63 14 14 0 0 1 4.28 1.72l-2 3.72a12 12 0 0 0-3.68-1.59 17 17 0 0 0-3.82-.44 8.5 8.5 0 0 0-4.6 1 3 3 0 0 0-1.51 2.56 2.5 2.5 0 0 0 .89 2.03 7 7 0 0 0 2.35 1.11 27 27 0 0 0 3.22.67q1.76.26 3.51.67A14 14 0 0 1 58.16-13a6 6 0 0 1 2.35 2.07 6 6 0 0 1 .89 3.51 6.4 6.4 0 0 1-1.36 4.09 8.6 8.6 0 0 1-3.86 2.66 17 17 0 0 1-5.97.93Z" transform="translate(175 57)"/><path id="Path_5736" fill="#585858" d="M-74.88 0v-9.14l38.23-36.84a56 56 0 0 0 7.53-8.49 23 23 0 0 0 3.36-6.87 23 23 0 0 0 .85-6.03q0-7.3-5.06-11.44t-14.85-4.13a36 36 0 0 0-13.64 2.47A27 27 0 0 0-68.9-72.8l-9.12-7.87a35.3 35.3 0 0 1 14.46-10.5 52 52 0 0 1 19.87-3.7 42 42 0 0 1 17.1 3.16 25 25 0 0 1 11.17 9.03 24.4 24.4 0 0 1 3.94 13.94 34 34 0 0 1-1.22 8.99 32 32 0 0 1-4.55 9.4 72 72 0 0 1-9.71 11.1l-33.97 32.8-3.2-5.15h56.6V0ZM34-94.88q12.65 0 21.43 5.48a34.6 34.6 0 0 1 13.39 15.9q4.6 10.4 4.6 25.35 0 16.02-5.65 27a39 39 0 0 1-15.59 16.6q-9.94 5.63-23.11 5.63a59 59 0 0 1-12.7-1.33A34 34 0 0 1 5.7-4.47l5.07-10.43a24 24 0 0 0 8.38 3.49 46 46 0 0 0 9.68 1q14.28 0 22.71-8.91t8.43-26.52q0-2.8-.24-6.67a39 39 0 0 0-1.29-7.72l4.47 4.67a23.4 23.4 0 0 1-6.24 10.33 28 28 0 0 1-10.46 6.32 40 40 0 0 1-13.32 2.12 37 37 0 0 1-16.5-3.52A28 28 0 0 1 5-50.22 27 27 0 0 1 .84-65.26a28 28 0 0 1 4.38-15.72 29 29 0 0 1 11.95-10.26A38 38 0 0 1 34-94.88m.56 10.92a25 25 0 0 0-10.8 2.23 17.5 17.5 0 0 0-7.31 6.28 17 17 0 0 0-2.64 9.62q0 8.32 5.76 13.22t15.6 4.9A26 26 0 0 0 46.5-50.1a18.5 18.5 0 0 0 7.63-6.56 16.7 16.7 0 0 0 2.7-9.32 16.4 16.4 0 0 0-2.55-8.93 18.4 18.4 0 0 0-7.48-6.55 27 27 0 0 0-12.24-2.5" transform="translate(175 204)"/><path id="Path_5735" fill="#9b9b9b" d="M-51.44.18a9 9 0 0 1-2.83-.42 6 6 0 0 1-2.15-1.1l.82-1.8a7 7 0 0 0 1.88.99 7 7 0 0 0 2.28.39 5 5 0 0 0 1.6-.22 2 2 0 0 0 .9-.58 1.3 1.3 0 0 0 .29-.84 1.2 1.2 0 0 0-.41-.93 3 3 0 0 0-1.07-.56q-.66-.2-1.46-.39t-1.61-.42a7 7 0 0 1-1.46-.63 3 3 0 0 1-1.07-1.04 3 3 0 0 1-.41-1.65 3.4 3.4 0 0 1 .55-1.88 4 4 0 0 1 1.67-1.37 7 7 0 0 1 2.85-.51 9 9 0 0 1 2.25.28 7 7 0 0 1 1.95.83l-.74 1.82a7 7 0 0 0-1.74-.75 7 7 0 0 0-1.74-.24 5 5 0 0 0-1.57.23 2 2 0 0 0-.89.62 1.4 1.4 0 0 0-.28.86 1.1 1.1 0 0 0 .41.92 3 3 0 0 0 1.07.55q.66.2 1.46.39t1.6.42a7 7 0 0 1 1.46.62 3 3 0 0 1 1.08 1.03 3 3 0 0 1 .4 1.63 3.4 3.4 0 0 1-.55 1.87 4 4 0 0 1-1.69 1.36 7 7 0 0 1-2.85.52m9.79-.18v-10.62h-4.18v-1.98h10.7v1.98h-4.18V0Zm5.86 0 5.67-12.6h2.3l5.7 12.6h-2.45l-4.87-11.35h.94L-33.38 0Zm2.62-2.92.63-1.83h6.8l.64 1.83ZM-20.52 0v-12.6h5.17a7 7 0 0 1 2.87.54 4 4 0 0 1 1.85 1.54 4.4 4.4 0 0 1 .65 2.4 4.3 4.3 0 0 1-.65 2.38 4 4 0 0 1-1.85 1.54 7 7 0 0 1-2.87.54h-3.88l1.04-1.06V0Zm8.23 0-3.2-4.57h2.52L-9.77 0Zm-5.9-4.48-1.04-1.12h3.78a3.5 3.5 0 0 0 2.33-.66 2.3 2.3 0 0 0 .78-1.85 2.3 2.3 0 0 0-.78-1.86 3.6 3.6 0 0 0-2.33-.65h-3.78l1.04-1.14ZM-5 0v-10.62h-4.17v-1.98H1.52v1.98h-4.18V0ZM9.8 0v-12.35l1.08 1.13H6.97v-2.08h5.3V0Zm10.65.19a5 5 0 0 1-2.85-.8 5.5 5.5 0 0 1-1.98-2.33 9 9 0 0 1-.73-3.7 9 9 0 0 1 .73-3.72 5.5 5.5 0 0 1 1.98-2.33 5 5 0 0 1 2.84-.8 5 5 0 0 1 2.85.8 5.5 5.5 0 0 1 1.99 2.33 9 9 0 0 1 .72 3.7 9 9 0 0 1-.72 3.72A5.5 5.5 0 0 1 23.29-.6a5 5 0 0 1-2.84.8m0-2.15a2.7 2.7 0 0 0 1.6-.5A3.3 3.3 0 0 0 23.13-4a8 8 0 0 0 .4-2.64 8 8 0 0 0-.4-2.64 3.3 3.3 0 0 0-1.08-1.54 2.7 2.7 0 0 0-1.6-.5 2.7 2.7 0 0 0-1.6.5 3 3 0 0 0-1.09 1.54 8 8 0 0 0-.39 2.64 8 8 0 0 0 .4 2.64 3 3 0 0 0 1.08 1.54 2.7 2.7 0 0 0 1.6.5m8.7-5.15a1.5 1.5 0 0 1-1.1-.44 1.5 1.5 0 0 1-.45-1.13 1.5 1.5 0 0 1 .46-1.15 1.6 1.6 0 0 1 1.1-.43 1.6 1.6 0 0 1 1.1.43 1.5 1.5 0 0 1 .45 1.15 1.5 1.5 0 0 1-.45 1.13 1.5 1.5 0 0 1-1.1.44m0 7.24a1.5 1.5 0 0 1-1.1-.44 1.5 1.5 0 0 1-.45-1.13 1.5 1.5 0 0 1 .46-1.15 1.6 1.6 0 0 1 1.1-.43 1.6 1.6 0 0 1 1.1.43 1.5 1.5 0 0 1 .45 1.15 1.5 1.5 0 0 1-.45 1.13 1.5 1.5 0 0 1-1.1.44m8.72.06a5 5 0 0 1-2.85-.8 5.5 5.5 0 0 1-1.98-2.33 9 9 0 0 1-.73-3.7 9 9 0 0 1 .73-3.72 5.5 5.5 0 0 1 1.98-2.33 5 5 0 0 1 2.85-.8 5 5 0 0 1 2.84.8 5.5 5.5 0 0 1 1.99 2.33 9 9 0 0 1 .73 3.71 9 9 0 0 1-.73 3.71A5.5 5.5 0 0 1 40.71-.6a5 5 0 0 1-2.84.8Zm0-2.15a2.7 2.7 0 0 0 1.6-.5 3.3 3.3 0 0 0 1.08-1.55 8 8 0 0 0 .4-2.64 8 8 0 0 0-.4-2.64 3.3 3.3 0 0 0-1.08-1.54 2.7 2.7 0 0 0-1.6-.5 2.7 2.7 0 0 0-1.6.5 3 3 0 0 0-1.09 1.54 8 8 0 0 0-.39 2.64A8 8 0 0 0 35.18-4a3.2 3.2 0 0 0 1.09 1.55 2.7 2.7 0 0 0 1.6.5ZM50.65.19a5 5 0 0 1-2.84-.8 5.5 5.5 0 0 1-2-2.33 9 9 0 0 1-.72-3.71 9 9 0 0 1 .73-3.71 5.5 5.5 0 0 1 1.99-2.33 5 5 0 0 1 2.84-.8 5 5 0 0 1 2.84.8 5.5 5.5 0 0 1 1.99 2.33 9 9 0 0 1 .73 3.71 9 9 0 0 1-.73 3.71A5.5 5.5 0 0 1 53.5-.6a5 5 0 0 1-2.85.8m0-2.15a2.7 2.7 0 0 0 1.6-.5A3.3 3.3 0 0 0 53.34-4a8 8 0 0 0 .38-2.64 8 8 0 0 0-.38-2.64 3.3 3.3 0 0 0-1.08-1.54 2.7 2.7 0 0 0-1.61-.5 2.7 2.7 0 0 0-1.6.5 3 3 0 0 0-1.09 1.54 8 8 0 0 0-.39 2.64 8 8 0 0 0 .4 2.64 3 3 0 0 0 1.08 1.55 2.7 2.7 0 0 0 1.6.5" transform="translate(175 245)"/></g></g></svg>