<svg xmlns="http://www.w3.org/2000/svg" xmlns:xlink="http://www.w3.org/1999/xlink" width="478" height="478" viewBox="0 0 478 478"><defs><clipPath id="b"><rect width="478" height="478"/></clipPath></defs><g id="a" clip-path="url(#b)"><rect width="478" height="478" fill="#e7eff3"/><g transform="translate(9.648 30.306)"><g transform="translate(152.714 282.54)"><rect width="153.045" height="72.167" transform="translate(0 0)" fill="#195f8c" opacity="0"/><g transform="translate(17.009 18.388)"><g transform="translate(47.713 26.91)"><path d="M116.926,72.825v1.2h-.536V66.04h.536v3.655a2.692,2.692,0,0,1,2.3-1.378,2.773,2.773,0,0,1,2.714,2.9v.021a2.79,2.79,0,0,1-2.714,2.92,2.678,2.678,0,0,1-2.3-1.336Zm4.434-1.563v-.021a2.247,2.247,0,0,0-2.19-2.409,2.33,2.33,0,0,0-2.277,2.4v.021a2.33,2.33,0,0,0,2.277,2.4A2.215,2.215,0,0,0,121.36,71.262Z" transform="translate(-116.39 -66.04)" fill="#195f8c"/><path d="M136.758,71.88h.59l-2.417,5.779c-.491,1.171-1.06,1.588-1.86,1.588a2.548,2.548,0,0,1-1.105-.239l.186-.47a1.973,1.973,0,0,0,.953.206c.582,0,.961-.338,1.378-1.312L131.8,71.884h.623l2.318,4.991,2.013-4.991Z" transform="translate(-125.444 -69.471)" fill="#195f8c"/><path d="M156.71,66.824h3.436a2.78,2.78,0,0,1,2,.676,1.719,1.719,0,0,1,.516,1.27v.021a1.825,1.825,0,0,1-1.093,1.708,1.877,1.877,0,0,1,1.522,1.86v.021c0,1.369-1.126,2.1-2.834,2.1h-3.547V66.82Zm4.607,2.166c0-.6-.483-.973-1.345-.973h-1.939v2.038h1.84c.866,0,1.444-.338,1.444-1.039v-.021Zm-1.151,2.2h-2.133v2.1h2.232c.92,0,1.477-.363,1.477-1.052v-.021C161.742,71.568,161.227,71.188,160.167,71.188Z" transform="translate(-140.079 -66.498)" fill="#195f8c"/><path d="M175.494,71.244h1.324v1.3a2.044,2.044,0,0,1,2.046-1.411v1.4h-.078c-1.159,0-1.972.755-1.972,2.285v2.2H175.49V71.244Z" transform="translate(-151.113 -69.033)" fill="#195f8c"/><path d="M185.21,74.15v-.021a3.082,3.082,0,0,1,6.162-.021v.021a3.022,3.022,0,0,1-3.1,3.011,2.973,2.973,0,0,1-3.065-2.986Zm4.838,0v-.021a1.786,1.786,0,0,0-1.774-1.86,1.749,1.749,0,0,0-1.741,1.84v.021a1.759,1.759,0,1,0,3.514.021Z" transform="translate(-156.823 -69.019)" fill="#195f8c"/><path d="M202.48,75.417V75.4c0-1.25.973-1.86,2.388-1.86a4.889,4.889,0,0,1,1.555.239v-.14c0-.821-.5-1.258-1.435-1.258a3.972,3.972,0,0,0-1.654.363l-.351-1.039a4.93,4.93,0,0,1,2.178-.47,2.58,2.58,0,0,1,1.914.648,2.389,2.389,0,0,1,.623,1.786v3.428h-1.291v-.722a2.354,2.354,0,0,1-1.881.841,1.844,1.844,0,0,1-2.046-1.786ZM206.444,75v-.4a3.647,3.647,0,0,0-1.312-.231c-.854,0-1.357.363-1.357.961v.021c0,.557.491.874,1.126.874.874,0,1.543-.5,1.543-1.237Z" transform="translate(-166.97 -69.089)" fill="#195f8c"/><path d="M218.26,71.151V71.13a2.76,2.76,0,0,1,2.681-3,2.364,2.364,0,0,1,1.972,1.019V66.04h1.324v7.99h-1.324v-.961a2.309,2.309,0,0,1-1.972,1.085,2.771,2.771,0,0,1-2.681-3Zm4.673,0V71.13a1.732,1.732,0,0,0-1.675-1.848A1.705,1.705,0,0,0,219.6,71.13v.021a1.677,1.677,0,1,0,3.337,0Z" transform="translate(-176.241 -66.04)" fill="#195f8c"/><path d="M236.01,74.15v-.021a2.982,2.982,0,0,1,3.011-3.019,2.912,2.912,0,0,1,2.31,1L240.5,73a1.933,1.933,0,0,0-1.489-.722,1.745,1.745,0,0,0-1.675,1.84v.021a1.747,1.747,0,0,0,1.728,1.848,2.035,2.035,0,0,0,1.5-.709l.8.788a3.028,3.028,0,0,1-5.35-1.9Z" transform="translate(-186.67 -69.019)" fill="#195f8c"/><path d="M250.76,74.15v-.021a3.082,3.082,0,0,1,6.162-.021v.021a3.022,3.022,0,0,1-3.1,3.011,2.973,2.973,0,0,1-3.065-2.986Zm4.838,0v-.021a1.786,1.786,0,0,0-1.774-1.86,1.749,1.749,0,0,0-1.741,1.84v.021a1.759,1.759,0,1,0,3.514.021Z" transform="translate(-195.335 -69.019)" fill="#195f8c"/><path d="M268.954,71.224h1.324V72.1a2.067,2.067,0,0,1,1.761-1,1.828,1.828,0,0,1,1.728,1.019,2.318,2.318,0,0,1,1.947-1.019,1.944,1.944,0,0,1,2.025,2.211V77h-1.324V73.715c0-.92-.425-1.411-1.171-1.411s-1.237.5-1.237,1.435V77h-1.324v-3.3c0-.9-.437-1.4-1.171-1.4a1.264,1.264,0,0,0-1.237,1.435V77H268.95V71.224Z" transform="translate(-206.023 -69.013)" fill="#195f8c"/></g><g transform="translate(0 0)"><path d="M121.851,18.848,116.423,3.735a2.493,2.493,0,0,1-.173-.726A1.315,1.315,0,0,1,117.6,1.73a1.4,1.4,0,0,1,1.349,1.105l4.5,13.022L127.973,2.8a1.363,1.363,0,0,1,1.312-1.068h.14A1.42,1.42,0,0,1,130.81,2.8L135.3,15.857l4.57-13.092a1.311,1.311,0,0,1,2.59.21,2.519,2.519,0,0,1-.173.73l-5.465,15.146a1.581,1.581,0,0,1-1.452,1.2h-.107a1.5,1.5,0,0,1-1.456-1.2L129.354,6.007l-4.5,12.845a1.487,1.487,0,0,1-1.452,1.2h-.07a1.58,1.58,0,0,1-1.485-1.2" transform="translate(-68.595 -1.346)" fill="#195f8c"/><path d="M225.75,2.993a1.332,1.332,0,1,1,2.665,0V6.062a7.287,7.287,0,0,1,6.167-4.385,1.286,1.286,0,0,1,1.32,1.349,1.308,1.308,0,0,1-1.18,1.353c-3.465.417-6.307,3.011-6.307,8.179V18.63a1.332,1.332,0,1,1-2.665,0V2.993" transform="translate(-132.929 -1.294)" fill="#195f8c"/><path d="M258.637,20.132c-4.822,0-8.757-3.737-8.757-9.223v-.07c0-5.1,3.564-9.219,8.419-9.219,5.189,0,8.142,4.282,8.142,8.984a1.226,1.226,0,0,1-1.221,1.233H252.528c.367,3.84,3.048,6,6.175,6a7.116,7.116,0,0,0,5.057-2.058,1.129,1.129,0,0,1,1.9.829,1.116,1.116,0,0,1-.412.854,8.879,8.879,0,0,1-6.616,2.673m5.193-10.254c-.272-3.221-2.108-6.03-5.6-6.03-3.056,0-5.366,2.57-5.7,6.03h11.3Z" transform="translate(-147.105 -1.282)" fill="#195f8c"/><path d="M179.9,14.655v-.07c0-3.762,3.106-5.766,7.631-5.766a19.157,19.157,0,0,1,5.494.759V8.954c0-3.213-1.976-4.871-5.321-4.871a9.052,9.052,0,0,0-4.158.817,1.338,1.338,0,0,1-.483.1,1.185,1.185,0,0,1-1.18-1.138,1.107,1.107,0,0,1,.73-1.11A11.847,11.847,0,0,1,187.98,1.74a7.818,7.818,0,0,1,5.766,1.968,7.049,7.049,0,0,1,1.831,5.214v9.854a1.263,1.263,0,0,1-1.283,1.312,1.237,1.237,0,0,1-1.27-1.246v-1.7a7.824,7.824,0,0,1-6.455,3.077c-3.316,0-6.67-1.9-6.67-5.56m13.158-1.382V11.549a18.644,18.644,0,0,0-5.251-.763c-3.345,0-5.214,1.456-5.214,3.7v.07c0,2.244,2.071,3.556,4.488,3.556,3.279,0,5.973-2,5.973-4.834" transform="translate(-105.991 -1.352)" fill="#195f8c"/><path d="M5.589,2.3A2.512,2.512,0,0,0,2.211,1.043,2.471,2.471,0,0,0,.973,4.426L6.641,16.742c.891,1.93,1.831,2.945,3.593,2.945,1.881,0,2.706-1.105,3.593-2.945,0,0,4.946-10.766,4.991-10.873a.725.725,0,0,1,.714-.462.789.789,0,0,1,.784.8V16.734c0,1.621.9,2.953,2.632,2.953a2.668,2.668,0,0,0,2.665-2.953V8.121a2.648,2.648,0,0,1,2.813-2.739,2.58,2.58,0,0,1,2.7,2.739v8.613c0,1.621.9,2.953,2.632,2.953a2.673,2.673,0,0,0,2.669-2.953V8.121a2.645,2.645,0,0,1,2.809-2.739,2.58,2.58,0,0,1,2.7,2.739v8.613c0,1.621.9,2.953,2.632,2.953a2.671,2.671,0,0,0,2.669-2.953v-9.8A6.144,6.144,0,0,0,40.855.8a8.18,8.18,0,0,0-5.663,2.413A6.264,6.264,0,0,0,29.731.8c-2.854,0-5.35,2.409-5.35,2.409A6.413,6.413,0,0,0,19.613.8a5.851,5.851,0,0,0-5.758,3.914l-3.622,8.53L5.589,2.3" transform="translate(-0.716 -0.8)" fill="#195f8c"/><path d="M290.55,3.846V3.829a2.209,2.209,0,1,1,4.418-.012v.012a2.209,2.209,0,1,1-4.418.016m3.993-.016h0a1.788,1.788,0,1,0-3.576,0v.012a1.788,1.788,0,1,0,3.576-.016" transform="translate(-171 -1.276)" fill="#195f8c"/><path d="M293.86,4.539A.236.236,0,0,1,294.1,4.3h.738a.818.818,0,0,1,.623.223.652.652,0,0,1,.19.487v.008a.658.658,0,0,1-.429.652l.326.4a.273.273,0,0,1,.074.177.221.221,0,0,1-.223.219.3.3,0,0,1-.231-.12l-.458-.582h-.375v.466a.235.235,0,0,1-.47,0Zm.949.8c.231,0,.359-.115.359-.3V5.03c0-.2-.136-.305-.363-.305h-.47v.615Z" transform="translate(-172.945 -2.856)" fill="#195f8c"/></g></g></g><path d="M49.677,36.827,28.458,58.045a4.233,4.233,0,0,1-6,0L1.243,36.83a4.243,4.243,0,0,1,6-6L21.218,44.81V4.124A4.115,4.115,0,0,1,25.342,0,4.323,4.323,0,0,1,29.7,4.124V44.81L43.682,30.833a4.239,4.239,0,1,1,5.994,5.994Z" transform="translate(255.045 264.158) rotate(180)" fill="#3c9bcd"/><g transform="translate(174.255 62.894)"><path d="M98.584,22.887a25.721,25.721,0,0,0-51.129,0,25.721,25.721,0,0,0,2.832,51.285H73.019a14.356,14.356,0,1,0,0-28.712,8.378,8.378,0,1,1,5.946-14.282A2.989,2.989,0,1,0,83.2,26.962,14.354,14.354,0,1,0,73.03,51.44a8.378,8.378,0,0,1,0,16.756H50.287a19.741,19.741,0,1,1,0-39.483,2.992,2.992,0,0,0,2.992-2.992,19.74,19.74,0,1,1,39.48,0,2.992,2.992,0,0,0,3.005,2.989,19.741,19.741,0,0,1,0,39.483,2.989,2.989,0,0,0,0,5.978,25.721,25.721,0,0,0,2.819-51.285Z" transform="translate(-17.929 -0.001)" fill="#417da5"/><path d="M7.37,343.069c-.541-.216-1.027-.378-1.73-.622-1.268-.4-2.508-.862-2.508-1.916s.811-1.592,2.051-1.592a4.7,4.7,0,0,1,3.243,1.378l1.081-1.595a5.617,5.617,0,0,0-4.373-1.673c-2.268,0-4.324,1.295-4.324,3.67A3.307,3.307,0,0,0,2.835,343.8a9.478,9.478,0,0,0,1.754.676c.865.3,2.889.727,2.889,2.132s-1.27,1.835-2.457,1.835a5.271,5.271,0,0,1-3.784-1.835L0,348.117a6.147,6.147,0,0,0,4.994,2.295,5.465,5.465,0,0,0,3.562-1.135,3.641,3.641,0,0,0,1.322-2.913,3.165,3.165,0,0,0-1.024-2.376A4.93,4.93,0,0,0,7.37,343.069Z" transform="translate(0 -245.958)" fill="#417da5"/><path d="M47.354,337.05a9.9,9.9,0,0,0-4.805,1.295l.784,1.73a7.868,7.868,0,0,1,3.859-1.108c1.862,0,3.186.973,3.186,2.916v.513l-3.43.132c-2.973.135-5.019,1.405-5.019,3.916s2.051,3.968,4.424,3.968a5.255,5.255,0,0,0,4.078-1.916l.027,1.622h2.508v-7.454c0-2.186-.511-3.265-1.376-4.157A5.454,5.454,0,0,0,47.354,337.05Zm3.051,9.662a4.03,4.03,0,0,1-3.267,1.865c-1.673,0-2.646-1-2.646-2.214s.838-2.105,2.916-2.213l3-.189Z" transform="translate(-30.598 -245.958)" fill="#417da5"/><path d="M120.845,337.05a6.361,6.361,0,0,0-6.505,6.64c0,4.049,2.619,6.721,6.424,6.721a7.608,7.608,0,0,0,5.64-2.024l-1.081-1.486a7.089,7.089,0,0,1-4.238,1.486,3.954,3.954,0,0,1-4.13-4.076h9.878a11.179,11.179,0,0,0,.081-1.135A5.85,5.85,0,0,0,120.845,337.05Zm-3.859,5.532a3.773,3.773,0,0,1,3.784-3.67,3.719,3.719,0,0,1,3.7,3.67Z" transform="translate(-83.438 -245.958)" fill="#417da5"/><path d="M171.68,343.069c-.541-.216-1.027-.378-1.727-.622-1.27-.4-2.511-.862-2.511-1.916s.811-1.592,2.051-1.592a4.705,4.705,0,0,1,3.243,1.378l1.081-1.595a5.617,5.617,0,0,0-4.373-1.673c-2.268,0-4.324,1.295-4.324,3.67a3.307,3.307,0,0,0,2.024,3.078,9.632,9.632,0,0,0,1.754.676c.862.3,2.895.727,2.895,2.132s-1.268,1.835-2.457,1.835a5.265,5.265,0,0,1-3.784-1.835l-1.243,1.511a6.147,6.147,0,0,0,4.995,2.295,5.46,5.46,0,0,0,3.562-1.135,3.643,3.643,0,0,0,1.324-2.913,3.165,3.165,0,0,0-1.027-2.376A4.9,4.9,0,0,0,171.68,343.069Z" transform="translate(-119.903 -245.958)" fill="#417da5"/><path d="M213.34,337.045a5.438,5.438,0,0,0-4.562,2.267h-.054V337.3H206.24V355h2.592v-6.916l.027.027a4.982,4.982,0,0,0,4.427,2.295c3.805,0,6.235-2.916,6.235-6.721S217.118,337.045,213.34,337.045Zm-.541,11.148c-2.565,0-4.076-1.97-4.076-4.535s1.511-4.508,4.076-4.508,4.076,1.943,4.076,4.508S215.364,348.193,212.8,348.193Z" transform="translate(-150.501 -245.953)" fill="#417da5"/><rect width="2.592" height="12.821" transform="translate(79.533 91.336)" fill="#417da5"/><path d="M318.479,337.046a4.324,4.324,0,0,0-3.913,2.267h-.081l.027-2.024H311.92v12.821h2.592V343.66c0-2.457.892-4.481,3.294-4.481,2.292,0,2.67,1.622,2.67,3.784v7.154h2.592v-7.592C323.068,339.449,322.122,337.046,318.479,337.046Z" transform="translate(-227.619 -245.954)" fill="#417da5"/><path d="M369.263,337.343l.027,2.024h-.078a5.125,5.125,0,0,0-4.481-2.268,6.457,6.457,0,0,0,0,12.9,5.139,5.139,0,0,0,4.481-2.295h.054v.505a5.786,5.786,0,0,1-.97,3.592,4.375,4.375,0,0,1-3.513,1.4,8.145,8.145,0,0,1-4.594-1.622l-1.213,1.808a9.848,9.848,0,0,0,5.721,1.916,6.774,6.774,0,0,0,5.724-2.457c.946-1.162,1.4-2.7,1.4-5.532v-9.978Zm-3.995,10.54c-2.619,0-4.076-1.916-4.076-4.346s1.457-4.373,4.076-4.373,4.076,1.943,4.076,4.373S367.915,347.883,365.269,347.883Z" transform="translate(-261.647 -245.994)" fill="#417da5"/><path d="M91.665,316.779a5.408,5.408,0,0,0-.865,3.43V334.3h2.565V323.582h3.057V321.5H93.373v-1.43c0-1.459.27-2.727,1.97-2.727a4.927,4.927,0,0,1,1.081.138v-1.957a8.335,8.335,0,0,0-1.673-.151A3.875,3.875,0,0,0,91.665,316.779Z" transform="translate(-66.26 -230.141)" fill="#417da5"/><path d="M263.4,339.248h-.081l.027-1.97H260.75V350.1h2.592v-6.4a5.729,5.729,0,0,1,.781-3.243,2.7,2.7,0,0,1,2.105-1.081,3.4,3.4,0,0,1,1.405.27v-2.489a4.139,4.139,0,0,0-1.081-.13A3.361,3.361,0,0,0,263.4,339.248Z" transform="translate(-190.279 -245.942)" fill="#417da5"/><circle cx="1.686" cy="1.686" r="1.686" transform="translate(79.128 85.236)" fill="#417da5"/></g><path d="M0,53.5a1.5,1.5,0,0,1-1.42-1.018,1.5,1.5,0,0,1,.938-1.9l153-52a1.5,1.5,0,0,1,1.9.938,1.5,1.5,0,0,1-.938,1.9l-153,52A1.5,1.5,0,0,1,0,53.5Z" transform="translate(152.852 286.194)" fill="#3c9bcd"/></g></g></svg>