<svg xmlns="http://www.w3.org/2000/svg" xmlns:xlink="http://www.w3.org/1999/xlink" width="700" height="400" viewBox="0 0 700 400">
  <defs>
    <radialGradient id="radial-gradient" cx="0.5" cy="0.5" r="0.5" gradientUnits="objectBoundingBox">
      <stop offset="0" stop-color="#fff"/>
      <stop offset="1" stop-color="#e1eaef"/>
    </radialGradient>
    <clipPath id="clip-safespring-iso-2">
      <rect width="700" height="400"/>
    </clipPath>
  </defs>
  <g id="safespring-iso-2" clip-path="url(#clip-safespring-iso-2)">
    <rect width="700" height="400" fill="url(#radial-gradient)"/>
    <g id="safespring-27001-portrait" transform="translate(283.924 77.586)">
      <g id="Lager_1" data-name="Lager 1" transform="translate(0.35 0.35)">
        <rect id="Rectangle_7" data-name="Rectangle 7" width="131.452" height="244.128" fill="#fff" stroke="#1d1d1b" stroke-miterlimit="2.61" stroke-width="0.7"/>
      </g>
      <g id="Loggo" transform="translate(42.862 14.732)">
        <g id="Group_5" data-name="Group 5" transform="translate(0.024)">
          <g id="Group_4" data-name="Group 4" transform="translate(0 31.975)">
            <path id="Path_19" data-name="Path 19" d="M92.361,84.749a22.118,22.118,0,0,0-8.66-2.1c-2.568,0-4.643,1.449-4.643,4.527,0,7.194,15.721,6.539,15.721,16.532,0,6.678-5.466,9.2-12.144,9.2a37.6,37.6,0,0,1-8.463-1.212v-3.779c1.5.835,5.368,2.8,9.24,2.8,3.049,0,6.046-1.217,6.046-5.466,0-7.565-15.726-6.863-15.726-16.718,0-5.136,4.243-8.214,11.066-8.214a37.122,37.122,0,0,1,7.565.98v3.455Z" transform="translate(-73.73 -80.32)" fill="#fff" stroke="#134294" stroke-width="0.12"/>
            <path id="Path_20" data-name="Path 20" d="M92.361,84.749a22.118,22.118,0,0,0-8.66-2.1c-2.568,0-4.643,1.449-4.643,4.527,0,7.194,15.721,6.539,15.721,16.532,0,6.678-5.466,9.2-12.144,9.2a37.6,37.6,0,0,1-8.463-1.212v-3.779c1.5.835,5.368,2.8,9.24,2.8,3.049,0,6.046-1.217,6.046-5.466,0-7.565-15.726-6.863-15.726-16.718,0-5.136,4.243-8.214,11.066-8.214a37.122,37.122,0,0,1,7.565.98v3.455Z" transform="translate(-73.73 -80.32)" fill="#1d1d1b"/>
          </g>
          <path id="Path_21" data-name="Path 21" d="M116.823,45.436l-2.864,11.53H97.254L94.39,45.436l6.353,7.089,4.863-7.605,4.863,7.605,6.353-7.089" transform="translate(-82.414 -33.466)" fill="#1d1d1b"/>
          <path id="Path_22" data-name="Path 22" d="M116.26,112.515V81.282a66.95,66.95,0,0,1,9.379-.98c4.3-.093,6.973.441,9.176,2.255a8.739,8.739,0,0,1,3.165,7.078c-.214,6.579-5.692,10.133-14.469,9.628v-2.7c6.475.73,9.234-2.11,9.31-6.973.064-3.994-2.22-7.31-7.159-7.066-3.693.18-3.965.974-3.988,2.406v27.587h-5.408Z" transform="translate(-91.607 -48.334)" fill="#1d1d1b"/>
          <path id="Path_23" data-name="Path 23" d="M94.683,25.6,92.364,34.93H78.829L76.51,25.6l5.147,5.739L85.6,25.18l3.936,6.156L94.683,25.6" transform="translate(-74.899 -25.168)" fill="#1d1d1b"/>
          <path id="Path_24" data-name="Path 24" d="M137.883,25.577l-2.324,9.338H122.023l-2.313-9.338,5.142,5.745,3.942-6.162,3.936,6.162,5.153-5.745" transform="translate(-93.057 -25.16)" fill="#1d1d1b"/>
        </g>
        <g id="Group_6" data-name="Group 6" transform="translate(0 155.595)">
          <rect id="Rectangle_8" data-name="Rectangle 8" width="7.368" height="7.368" transform="translate(39.03 21.152)" fill="#1d1d1b"/>
          <path id="Path_25" data-name="Path 25" d="M89.4,306.5a4.765,4.765,0,0,0,3.24-.956,3.985,3.985,0,0,0,1.078-3.119,3.738,3.738,0,0,0-1.078-3.02,4.816,4.816,0,0,0-3.24-.939H82.528V306.5ZM91.64,293.58a9.225,9.225,0,0,1,3.461.62,7.917,7.917,0,0,1,2.638,1.7,7.449,7.449,0,0,1,1.681,2.5,7.97,7.97,0,0,1,.58,3.061,8.581,8.581,0,0,1-1.061,4.359,6.7,6.7,0,0,1-3.461,2.8v.081a4.845,4.845,0,0,1,1.919.98,5.421,5.421,0,0,1,1.24,1.559,7.4,7.4,0,0,1,.7,1.977,18.366,18.366,0,0,1,.3,2.156c.023.452.052.985.081,1.6s.075,1.241.139,1.878a12.528,12.528,0,0,0,.319,1.82,4.131,4.131,0,0,0,.661,1.461H94.562a11.062,11.062,0,0,1-.643-3.24c-.081-1.252-.2-2.452-.359-3.6a5.723,5.723,0,0,0-1.356-3.281,4.663,4.663,0,0,0-3.4-1.038H82.528v11.159H76.25V293.58h15.4Z" transform="translate(-74.765 -293.58)" fill="#1d1d1b"/>
          <rect id="Rectangle_9" data-name="Rectangle 9" width="6.278" height="28.549" transform="translate(29.031)" fill="#1d1d1b"/>
          <path id="Path_26" data-name="Path 26" d="M80.315,367.106a4.525,4.525,0,0,0,1.38,1.617,6.079,6.079,0,0,0,2.017.922,9.39,9.39,0,0,0,2.4.3,12.556,12.556,0,0,0,1.8-.139,6.213,6.213,0,0,0,1.8-.539,3.85,3.85,0,0,0,1.4-1.1,2.767,2.767,0,0,0,.556-1.78,2.51,2.51,0,0,0-.742-1.878,5.835,5.835,0,0,0-1.942-1.2,19.923,19.923,0,0,0-2.719-.841q-1.522-.357-3.078-.8a27.049,27.049,0,0,1-3.119-.98,10.7,10.7,0,0,1-2.719-1.5,6.734,6.734,0,0,1-2.684-5.64,7.48,7.48,0,0,1,.939-3.82,8.563,8.563,0,0,1,2.458-2.7,10.815,10.815,0,0,1,3.437-1.6,14.6,14.6,0,0,1,3.837-.522,18.321,18.321,0,0,1,4.3.5,10.85,10.85,0,0,1,3.658,1.617,8.2,8.2,0,0,1,2.539,2.858,8.78,8.78,0,0,1,.939,4.22H90.691a5,5,0,0,0-.539-2.116,3.529,3.529,0,0,0-1.217-1.322,5.142,5.142,0,0,0-1.739-.678,10.738,10.738,0,0,0-2.139-.2,7.119,7.119,0,0,0-1.519.162,4.026,4.026,0,0,0-1.38.562,3.435,3.435,0,0,0-1.02,1,2.678,2.678,0,0,0-.4,1.519,2.54,2.54,0,0,0,.319,1.356,2.869,2.869,0,0,0,1.258.962,16,16,0,0,0,2.6.881q1.661.443,4.336,1.119c.533.1,1.275.3,2.22.58a10.555,10.555,0,0,1,2.817,1.339,8.5,8.5,0,0,1,2.417,2.458,7,7,0,0,1,1.02,3.936,8.769,8.769,0,0,1-.759,3.64,7.846,7.846,0,0,1-2.261,2.9,10.849,10.849,0,0,1-3.716,1.9,17.613,17.613,0,0,1-5.136.678,18,18,0,0,1-4.579-.58,11.493,11.493,0,0,1-3.919-1.82,8.981,8.981,0,0,1-2.7-3.159,9.47,9.47,0,0,1-.962-4.556h6.075a5.219,5.219,0,0,0,.522,2.44" transform="translate(-73.688 -315.155)" fill="#1d1d1b"/>
          <path id="Path_27" data-name="Path 27" d="M139.011,346.09v5.275H125.018v6.121h13.147v4.875H125.018v7h13.976v5.281H118.74V346.09Z" transform="translate(-92.625 -315.651)" fill="#1d1d1b"/>
        </g>
      </g>
      <g id="Text" transform="translate(23.038 95.486)">
        <g id="Group_7" data-name="Group 7" transform="translate(0.725)">
          <path id="Path_28" data-name="Path 28" d="M50.026,174.133a.415.415,0,0,1,.325.145l.91.991a4.95,4.95,0,0,1-1.867,1.438,6.458,6.458,0,0,1-2.655.5,6.226,6.226,0,0,1-2.493-.475,5.464,5.464,0,0,1-1.89-1.316,5.764,5.764,0,0,1-1.2-2.017,7.58,7.58,0,0,1-.417-2.556,7.029,7.029,0,0,1,.464-2.574,5.868,5.868,0,0,1,1.31-2.011,5.935,5.935,0,0,1,2.017-1.316,6.948,6.948,0,0,1,2.6-.47,6.047,6.047,0,0,1,2.423.446,5.7,5.7,0,0,1,1.78,1.177l-.777,1.078a.73.73,0,0,1-.174.18.485.485,0,0,1-.3.075.69.69,0,0,1-.406-.157,5.013,5.013,0,0,0-.528-.336,4.329,4.329,0,0,0-.806-.336,4.1,4.1,0,0,0-1.235-.157,4.208,4.208,0,0,0-1.617.307,3.464,3.464,0,0,0-1.264.875A4.1,4.1,0,0,0,43.4,169a5.191,5.191,0,0,0-.3,1.832,5.555,5.555,0,0,0,.3,1.867,4.088,4.088,0,0,0,.806,1.38,3.435,3.435,0,0,0,1.194.858,3.707,3.707,0,0,0,1.484.3,6.431,6.431,0,0,0,.858-.052,3.615,3.615,0,0,0,.707-.162,3.127,3.127,0,0,0,.614-.29,3.742,3.742,0,0,0,.574-.435.926.926,0,0,1,.18-.128.5.5,0,0,1,.209-.046Z" transform="translate(-40.74 -164.47)" fill="#1d1d1b"/>
          <path id="Path_29" data-name="Path 29" d="M69.775,164.73v1.843H64.256v3.455H68.6v1.785H64.256v3.524h5.518v1.849H61.92V164.736h7.855Z" transform="translate(-49.643 -164.579)" fill="#1d1d1b"/>
          <path id="Path_30" data-name="Path 30" d="M81.379,172.318v4.863H79.06V164.73h3.8a8,8,0,0,1,2.185.261,4.167,4.167,0,0,1,1.49.736,2.828,2.828,0,0,1,.852,1.13,3.949,3.949,0,0,1,.087,2.638,3.4,3.4,0,0,1-.533,1.014,3.462,3.462,0,0,1-.864.8,4.7,4.7,0,0,1-1.165.551,2.332,2.332,0,0,1,.759.713l3.119,4.6H86.7a.992.992,0,0,1-.51-.122,1.12,1.12,0,0,1-.359-.342l-2.62-3.988a.892.892,0,0,0-.325-.319,1.119,1.119,0,0,0-.522-.093h-.991Zm0-1.664h1.449a3.571,3.571,0,0,0,1.142-.162,2.222,2.222,0,0,0,.8-.452,1.853,1.853,0,0,0,.47-.684,2.365,2.365,0,0,0,.157-.87,1.762,1.762,0,0,0-.626-1.455,3,3,0,0,0-1.907-.51H81.379Z" transform="translate(-56.847 -164.579)" fill="#1d1d1b"/>
          <path id="Path_31" data-name="Path 31" d="M105.575,164.73v1.9h-3.745v10.55H99.512v-10.55H95.75v-1.9Z" transform="translate(-63.862 -164.579)" fill="#1d1d1b"/>
          <path id="Path_32" data-name="Path 32" d="M118.054,177.181H115.73V164.73h2.324Z" transform="translate(-72.261 -164.579)" fill="#1d1d1b"/>
          <path id="Path_33" data-name="Path 33" d="M132.425,164.73v1.843h-5.518v3.687h4.661v1.849h-4.661v5.072H124.57V164.73Z" transform="translate(-75.976 -164.579)" fill="#1d1d1b"/>
          <path id="Path_34" data-name="Path 34" d="M144.074,177.181H141.75V164.73h2.324Z" transform="translate(-83.197 -164.579)" fill="#1d1d1b"/>
          <path id="Path_35" data-name="Path 35" d="M158.445,164.73v1.843h-5.518v3.455h4.348v1.785h-4.348v3.524h5.518v1.849H150.59V164.736h7.855Z" transform="translate(-86.913 -164.579)" fill="#1d1d1b"/>
          <path id="Path_36" data-name="Path 36" d="M178.654,170.956a6.7,6.7,0,0,1-.458,2.516,5.629,5.629,0,0,1-3.269,3.252,6.94,6.94,0,0,1-2.574.458H167.6V164.73h4.753a7.037,7.037,0,0,1,2.574.458,5.815,5.815,0,0,1,1.988,1.281,5.743,5.743,0,0,1,1.281,1.965,6.677,6.677,0,0,1,.458,2.516Zm-2.365,0a5.64,5.64,0,0,0-.278-1.838,3.954,3.954,0,0,0-.783-1.38,3.329,3.329,0,0,0-1.235-.864,4.221,4.221,0,0,0-1.64-.3h-2.417v8.765h2.417a4.222,4.222,0,0,0,1.64-.3,3.349,3.349,0,0,0,1.235-.864,3.954,3.954,0,0,0,.783-1.38,5.665,5.665,0,0,0,.278-1.838Z" transform="translate(-94.063 -164.579)" fill="#1d1d1b"/>
        </g>
        <g id="Group_8" data-name="Group 8" transform="translate(4.127 19.123)">
          <path id="Path_37" data-name="Path 37" d="M48.279,210.051H46.61V197.71h1.669Z" transform="translate(-46.61 -197.565)" fill="#1d1d1b"/>
          <path id="Path_38" data-name="Path 38" d="M60.787,199.539a.611.611,0,0,1-.162.191.387.387,0,0,1-.226.064.6.6,0,0,1-.342-.145c-.133-.1-.3-.2-.493-.325a4.13,4.13,0,0,0-.713-.325,3.475,3.475,0,0,0-2.006.006,2.017,2.017,0,0,0-.719.412,1.729,1.729,0,0,0-.435.609,1.9,1.9,0,0,0-.145.754,1.408,1.408,0,0,0,.255.858,2.13,2.13,0,0,0,.672.58,5.051,5.051,0,0,0,.945.417c.354.116.713.238,1.084.365s.73.267,1.084.429a3.844,3.844,0,0,1,.945.6,2.7,2.7,0,0,1,.672.887,2.969,2.969,0,0,1,.255,1.293,4.111,4.111,0,0,1-.278,1.519,3.482,3.482,0,0,1-.806,1.235,3.869,3.869,0,0,1-1.3.829,4.738,4.738,0,0,1-1.751.3,5.369,5.369,0,0,1-2.185-.435,5.078,5.078,0,0,1-1.681-1.177l.481-.794a.745.745,0,0,1,.168-.162.364.364,0,0,1,.22-.064.672.672,0,0,1,.412.191c.157.128.348.272.58.429a4.6,4.6,0,0,0,.846.429,3.384,3.384,0,0,0,1.212.191,3.185,3.185,0,0,0,1.061-.162,2.3,2.3,0,0,0,.788-.458,1.922,1.922,0,0,0,.493-.713,2.353,2.353,0,0,0,.174-.922,1.555,1.555,0,0,0-.255-.916,2.076,2.076,0,0,0-.667-.6,4.884,4.884,0,0,0-.945-.412c-.354-.11-.713-.226-1.084-.342a10.169,10.169,0,0,1-1.084-.412,3.55,3.55,0,0,1-.945-.6,2.738,2.738,0,0,1-.667-.927,3.322,3.322,0,0,1-.255-1.374,3.292,3.292,0,0,1,.991-2.348,3.606,3.606,0,0,1,1.194-.759,4.353,4.353,0,0,1,1.635-.284,5.288,5.288,0,0,1,1.884.325,4.3,4.3,0,0,1,1.49.945l-.406.794Z" transform="translate(-49.489 -197.464)" fill="#1d1d1b"/>
          <path id="Path_39" data-name="Path 39" d="M81.893,203.793a7.067,7.067,0,0,1-.441,2.545,5.8,5.8,0,0,1-1.24,1.994,5.561,5.561,0,0,1-1.925,1.3,6.965,6.965,0,0,1-4.968,0,5.459,5.459,0,0,1-1.919-1.3,5.892,5.892,0,0,1-1.24-1.994,7.2,7.2,0,0,1-.441-2.545,7.067,7.067,0,0,1,.441-2.545,5.975,5.975,0,0,1,1.24-2,5.527,5.527,0,0,1,1.919-1.3,6.349,6.349,0,0,1,2.481-.464,6.507,6.507,0,0,1,2.487.464,5.576,5.576,0,0,1,1.925,1.3,5.918,5.918,0,0,1,1.24,2A7.067,7.067,0,0,1,81.893,203.793Zm-1.716,0a6.367,6.367,0,0,0-.307-2.04,4.229,4.229,0,0,0-.881-1.53,3.873,3.873,0,0,0-1.38-.962,4.634,4.634,0,0,0-1.809-.336,4.576,4.576,0,0,0-1.8.336,3.822,3.822,0,0,0-1.38.962,4.314,4.314,0,0,0-.881,1.53,6.211,6.211,0,0,0-.307,2.04,6.305,6.305,0,0,0,.307,2.035,4.288,4.288,0,0,0,.881,1.525,3.787,3.787,0,0,0,1.38.956,4.723,4.723,0,0,0,1.8.33,4.784,4.784,0,0,0,1.809-.33,3.787,3.787,0,0,0,1.38-.956,4.288,4.288,0,0,0,.881-1.525A6.175,6.175,0,0,0,80.177,203.793Z" transform="translate(-56.324 -197.468)" fill="#1d1d1b"/>
          <path id="Path_40" data-name="Path 40" d="M103.63,197.472a4.5,4.5,0,0,1,1.467.232,3.424,3.424,0,0,1,1.177.678,3.1,3.1,0,0,1,.777,1.078,3.5,3.5,0,0,1,.284,1.449,3.773,3.773,0,0,1-.209,1.275,5.23,5.23,0,0,1-.562,1.125,8.434,8.434,0,0,1-.812,1.043c-.307.336-.632.678-.98,1.032l-3.246,3.322a5.964,5.964,0,0,1,.7-.151,4.658,4.658,0,0,1,.678-.058h4.133a.516.516,0,0,1,.394.145.511.511,0,0,1,.145.377v.927H99.34v-.528a1.013,1.013,0,0,1,.064-.336.919.919,0,0,1,.209-.319l3.953-3.971c.325-.33.626-.655.9-.962a7.032,7.032,0,0,0,.7-.927,4.5,4.5,0,0,0,.446-.945,3.269,3.269,0,0,0,.157-1.02,2.419,2.419,0,0,0-.174-.951,1.86,1.86,0,0,0-.475-.678,1.935,1.935,0,0,0-.707-.4,2.844,2.844,0,0,0-.87-.133,2.62,2.62,0,0,0-.864.139,2.3,2.3,0,0,0-1.217.962,2.262,2.262,0,0,0-.3.742.652.652,0,0,1-.209.359.554.554,0,0,1-.359.11H100.5a.893.893,0,0,1-.11-.012l-.8-.139a4.665,4.665,0,0,1,.464-1.5,3.611,3.611,0,0,1,.875-1.09,3.761,3.761,0,0,1,1.217-.667,4.7,4.7,0,0,1,1.478-.226Z" transform="translate(-68.774 -197.46)" fill="#1d1d1b"/>
          <path id="Path_41" data-name="Path 41" d="M125.064,197.71v.69a1.584,1.584,0,0,1-.064.481,2.532,2.532,0,0,1-.133.319l-5.107,10.307a1.111,1.111,0,0,1-.313.383.834.834,0,0,1-.533.157h-1.1L123,199.866c.075-.145.151-.278.226-.394a2.425,2.425,0,0,1,.261-.342h-6.44a.4.4,0,0,1-.377-.377V197.71h8.388Z" transform="translate(-76.058 -197.565)" fill="#1d1d1b"/>
          <path id="Path_42" data-name="Path 42" d="M142.13,203.793a10.056,10.056,0,0,1-.348,2.806,5.881,5.881,0,0,1-.951,1.959,3.767,3.767,0,0,1-1.426,1.154,4.131,4.131,0,0,1-1.762.377,4.2,4.2,0,0,1-1.762-.377,3.834,3.834,0,0,1-1.414-1.154,5.768,5.768,0,0,1-.945-1.959,10.014,10.014,0,0,1-.342-2.806,10.233,10.233,0,0,1,.342-2.806,5.942,5.942,0,0,1,.945-1.971,3.84,3.84,0,0,1,1.414-1.159,4.1,4.1,0,0,1,1.762-.377,4.2,4.2,0,0,1,1.762.377,3.783,3.783,0,0,1,1.426,1.159,5.946,5.946,0,0,1,.951,1.971A10.056,10.056,0,0,1,142.13,203.793Zm-1.594,0a10.139,10.139,0,0,0-.238-2.371,4.8,4.8,0,0,0-.638-1.548,2.393,2.393,0,0,0-.927-.841,2.481,2.481,0,0,0-2.191,0,2.374,2.374,0,0,0-.922.841,4.7,4.7,0,0,0-.632,1.548,11.944,11.944,0,0,0,0,4.742,4.845,4.845,0,0,0,.632,1.542,2.42,2.42,0,0,0,.922.841,2.48,2.48,0,0,0,2.191,0,2.387,2.387,0,0,0,.927-.841,4.714,4.714,0,0,0,.638-1.542A10.1,10.1,0,0,0,140.536,203.793Z" transform="translate(-82.998 -197.468)" fill="#1d1d1b"/>
          <path id="Path_43" data-name="Path 43" d="M159.36,203.793a10.055,10.055,0,0,1-.348,2.806,5.881,5.881,0,0,1-.951,1.959,3.767,3.767,0,0,1-1.426,1.154,4.131,4.131,0,0,1-1.762.377,4.2,4.2,0,0,1-1.762-.377,3.834,3.834,0,0,1-1.414-1.154,5.768,5.768,0,0,1-.945-1.959,10.014,10.014,0,0,1-.342-2.806,10.232,10.232,0,0,1,.342-2.806,5.942,5.942,0,0,1,.945-1.971,3.84,3.84,0,0,1,1.414-1.159,4.1,4.1,0,0,1,1.762-.377,4.2,4.2,0,0,1,1.762.377,3.784,3.784,0,0,1,1.426,1.159,5.946,5.946,0,0,1,.951,1.971A10.056,10.056,0,0,1,159.36,203.793Zm-1.594,0a10.14,10.14,0,0,0-.238-2.371,4.8,4.8,0,0,0-.638-1.548,2.393,2.393,0,0,0-.927-.841,2.481,2.481,0,0,0-2.191,0,2.374,2.374,0,0,0-.922.841,4.7,4.7,0,0,0-.632,1.548,11.944,11.944,0,0,0,0,4.742,4.845,4.845,0,0,0,.632,1.542,2.42,2.42,0,0,0,.922.841,2.48,2.48,0,0,0,2.191,0,2.387,2.387,0,0,0,.927-.841,4.714,4.714,0,0,0,.638-1.542A10.105,10.105,0,0,0,157.766,203.793Z" transform="translate(-90.24 -197.468)" fill="#1d1d1b"/>
          <path id="Path_44" data-name="Path 44" d="M170.47,208.859h2.655v-8.417c0-.255.006-.51.023-.765l-2.2,1.884a.531.531,0,0,1-.174.1.565.565,0,0,1-.162.029.445.445,0,0,1-.232-.058.4.4,0,0,1-.157-.133l-.481-.661,3.669-3.177h1.246v11.193h2.429v1.171H170.47v-1.171Z" transform="translate(-98.365 -197.544)" fill="#1d1d1b"/>
        </g>
        <g id="Group_9" data-name="Group 9" transform="translate(0 38.177)">
          <path id="Path_45" data-name="Path 45" d="M44.758,237.183h-.9V230.54h.9Z" transform="translate(-41.327 -230.418)" fill="#1d1d1b"/>
          <path id="Path_46" data-name="Path 46" d="M48.25,238.545v-4.7h.493a.208.208,0,0,1,.22.174l.064.51a2.648,2.648,0,0,1,.684-.545,1.777,1.777,0,0,1,.875-.209,1.666,1.666,0,0,1,.678.128,1.34,1.34,0,0,1,.493.359,1.587,1.587,0,0,1,.3.562,2.417,2.417,0,0,1,.1.73v2.991H51.34V235.56a1.273,1.273,0,0,0-.243-.829.908.908,0,0,0-.742-.3,1.412,1.412,0,0,0-.684.174,2.247,2.247,0,0,0-.585.475v3.461h-.823Z" transform="translate(-43.172 -231.78)" fill="#1d1d1b"/>
          <path id="Path_47" data-name="Path 47" d="M56.928,237.12v-3.994l-.522-.058a.6.6,0,0,1-.162-.07.176.176,0,0,1-.064-.139v-.336h.742v-.452a2.124,2.124,0,0,1,.116-.719,1.473,1.473,0,0,1,.325-.527,1.264,1.264,0,0,1,.51-.325,1.871,1.871,0,0,1,.667-.11,1.746,1.746,0,0,1,.585.093l-.017.412a.1.1,0,0,1-.081.11.962.962,0,0,1-.209.017h-.145a1.163,1.163,0,0,0-.388.058.761.761,0,0,0-.3.18.829.829,0,0,0-.191.33,1.58,1.58,0,0,0-.07.5v.429h1.356v.6H57.745v4.006h-.829Z" transform="translate(-46.505 -230.355)" fill="#1d1d1b"/>
          <path id="Path_48" data-name="Path 48" d="M64.193,233.77a2.362,2.362,0,0,1,.927.174,2.03,2.03,0,0,1,.707.487,2.168,2.168,0,0,1,.446.765,3.272,3.272,0,0,1,0,2,2.194,2.194,0,0,1-.446.759,1.978,1.978,0,0,1-.707.487,2.643,2.643,0,0,1-1.855,0,1.956,1.956,0,0,1-.707-.487,2.205,2.205,0,0,1-.452-.759,3.009,3.009,0,0,1-.157-1,2.974,2.974,0,0,1,.157-1,2.2,2.2,0,0,1,.452-.765,2.03,2.03,0,0,1,.707-.487A2.383,2.383,0,0,1,64.193,233.77Zm0,4.191a1.208,1.208,0,0,0,1.038-.464,2.174,2.174,0,0,0,.342-1.3,2.213,2.213,0,0,0-.342-1.31,1.2,1.2,0,0,0-1.038-.47,1.435,1.435,0,0,0-.614.122,1.158,1.158,0,0,0-.435.348,1.547,1.547,0,0,0-.261.556,3.259,3.259,0,0,0,0,1.5,1.548,1.548,0,0,0,.261.556,1.158,1.158,0,0,0,.435.348,1.435,1.435,0,0,0,.614.122Z" transform="translate(-48.931 -231.776)" fill="#1d1d1b"/>
          <path id="Path_49" data-name="Path 49" d="M71.44,238.532v-4.7h.475a.263.263,0,0,1,.185.052.3.3,0,0,1,.07.174l.058.73a2.086,2.086,0,0,1,.6-.765,1.317,1.317,0,0,1,.835-.278,1.339,1.339,0,0,1,.354.046,1.176,1.176,0,0,1,.29.122l-.1.614a.143.143,0,0,1-.145.116.752.752,0,0,1-.2-.046,1.248,1.248,0,0,0-.377-.046,1.044,1.044,0,0,0-.719.249,1.961,1.961,0,0,0-.487.73v2.991h-.823Z" transform="translate(-52.92 -231.768)" fill="#1d1d1b"/>
          <path id="Path_50" data-name="Path 50" d="M77.882,238.545v-4.7h.493a.208.208,0,0,1,.22.174l.058.481a2.333,2.333,0,0,1,.58-.522,1.389,1.389,0,0,1,.748-.2,1.1,1.1,0,0,1,.771.267,1.461,1.461,0,0,1,.423.713,1.49,1.49,0,0,1,.255-.441,1.509,1.509,0,0,1,.359-.307,1.419,1.419,0,0,1,.423-.174,2.024,2.024,0,0,1,.458-.058,1.793,1.793,0,0,1,.661.116,1.294,1.294,0,0,1,.493.348,1.521,1.521,0,0,1,.307.556,2.531,2.531,0,0,1,.1.759v2.991h-.823V235.56a1.248,1.248,0,0,0-.243-.835.864.864,0,0,0-.7-.284,1.1,1.1,0,0,0-.388.07.918.918,0,0,0-.325.209.966.966,0,0,0-.22.348,1.382,1.382,0,0,0-.081.487v2.991h-.823v-2.991a1.329,1.329,0,0,0-.226-.846.8.8,0,0,0-.661-.278,1.043,1.043,0,0,0-.568.162,1.927,1.927,0,0,0-.481.446v3.5H77.87Z" transform="translate(-55.622 -231.78)" fill="#1d1d1b"/>
          <path id="Path_51" data-name="Path 51" d="M94.288,238.528h-.365a.48.48,0,0,1-.2-.035.2.2,0,0,1-.1-.157l-.093-.435c-.122.11-.243.209-.359.3a2.018,2.018,0,0,1-.371.22,2.2,2.2,0,0,1-.417.139,2.526,2.526,0,0,1-.487.046,1.646,1.646,0,0,1-.51-.075,1.227,1.227,0,0,1-.417-.232,1.13,1.13,0,0,1-.278-.388,1.362,1.362,0,0,1-.1-.556,1.083,1.083,0,0,1,.151-.539,1.354,1.354,0,0,1,.493-.458,3.282,3.282,0,0,1,.893-.33,5.966,5.966,0,0,1,1.351-.128v-.371a1.291,1.291,0,0,0-.232-.835.845.845,0,0,0-.7-.284,1.457,1.457,0,0,0-.51.075,2.077,2.077,0,0,0-.359.174c-.1.064-.185.122-.261.174a.371.371,0,0,1-.214.075.24.24,0,0,1-.145-.046.3.3,0,0,1-.1-.11l-.151-.267a2.776,2.776,0,0,1,.841-.562,2.632,2.632,0,0,1,1-.186,1.891,1.891,0,0,1,.7.128,1.5,1.5,0,0,1,.516.359,1.52,1.52,0,0,1,.313.562,2.378,2.378,0,0,1,.1.725v3Zm-2.139-.5a1.721,1.721,0,0,0,.4-.046,1.428,1.428,0,0,0,.342-.128,1.964,1.964,0,0,0,.307-.2,2.425,2.425,0,0,0,.284-.267v-.968a5.72,5.72,0,0,0-.968.07,2.484,2.484,0,0,0-.649.191.887.887,0,0,0-.365.272.6.6,0,0,0-.116.354.764.764,0,0,0,.058.319.576.576,0,0,0,.162.22.7.7,0,0,0,.243.128,1,1,0,0,0,.3.041Z" transform="translate(-60.969 -231.763)" fill="#1d1d1b"/>
          <path id="Path_52" data-name="Path 52" d="M100.207,237.557a1.138,1.138,0,0,1-.858-.313,1.249,1.249,0,0,1-.3-.893v-2.875H98.48a.2.2,0,0,1-.128-.046.171.171,0,0,1-.052-.139v-.33l.771-.1.191-1.449a.2.2,0,0,1,.058-.116.18.18,0,0,1,.128-.046h.417v1.617h1.345v.6H99.865v2.817a.594.594,0,0,0,.145.441.5.5,0,0,0,.371.145.662.662,0,0,0,.226-.035.85.85,0,0,0,.162-.075,1.369,1.369,0,0,0,.116-.075.169.169,0,0,1,.087-.035.138.138,0,0,1,.116.081l.243.394a1.538,1.538,0,0,1-.516.313,1.756,1.756,0,0,1-.62.116Z" transform="translate(-64.21 -230.717)" fill="#1d1d1b"/>
          <path id="Path_53" data-name="Path 53" d="M106.161,230.927a.584.584,0,0,1-.046.226.7.7,0,0,1-.128.185.584.584,0,0,1-1-.412.636.636,0,0,1,.046-.232.69.69,0,0,1,.128-.191.574.574,0,0,1,.823,0,.554.554,0,0,1,.128.191A.519.519,0,0,1,106.161,230.927Zm-.186,1.472v4.7h-.823v-4.7Z" transform="translate(-67.022 -230.33)" fill="#1d1d1b"/>
          <path id="Path_54" data-name="Path 54" d="M110.853,233.77a2.362,2.362,0,0,1,.927.174,2.03,2.03,0,0,1,.707.487,2.168,2.168,0,0,1,.446.765,3.272,3.272,0,0,1,0,2,2.194,2.194,0,0,1-.446.759,1.978,1.978,0,0,1-.707.487,2.643,2.643,0,0,1-1.855,0,1.956,1.956,0,0,1-.707-.487,2.205,2.205,0,0,1-.452-.759,3.009,3.009,0,0,1-.157-1,2.974,2.974,0,0,1,.157-1,2.2,2.2,0,0,1,.452-.765,2.03,2.03,0,0,1,.707-.487A2.383,2.383,0,0,1,110.853,233.77Zm0,4.191a1.208,1.208,0,0,0,1.038-.464,2.174,2.174,0,0,0,.342-1.3,2.213,2.213,0,0,0-.342-1.31,1.2,1.2,0,0,0-1.038-.47,1.435,1.435,0,0,0-.614.122,1.158,1.158,0,0,0-.435.348,1.547,1.547,0,0,0-.261.556,3.259,3.259,0,0,0,0,1.5,1.548,1.548,0,0,0,.261.556,1.158,1.158,0,0,0,.435.348,1.435,1.435,0,0,0,.614.122Z" transform="translate(-68.543 -231.776)" fill="#1d1d1b"/>
          <path id="Path_55" data-name="Path 55" d="M118.09,238.545v-4.7h.493a.208.208,0,0,1,.22.174l.064.51a2.648,2.648,0,0,1,.684-.545,1.777,1.777,0,0,1,.875-.209,1.666,1.666,0,0,1,.678.128,1.34,1.34,0,0,1,.493.359,1.586,1.586,0,0,1,.3.562,2.417,2.417,0,0,1,.1.73v2.991h-.823V235.56a1.273,1.273,0,0,0-.243-.829.908.908,0,0,0-.742-.3,1.412,1.412,0,0,0-.684.174,2.247,2.247,0,0,0-.585.475v3.461H118.1Z" transform="translate(-72.528 -231.78)" fill="#1d1d1b"/>
          <path id="Path_56" data-name="Path 56" d="M132.488,234.631a.18.18,0,0,1-.174.1.312.312,0,0,1-.157-.052c-.058-.035-.133-.07-.214-.116a1.49,1.49,0,0,0-.3-.116,1.464,1.464,0,0,0-.417-.052,1.26,1.26,0,0,0-.377.052.934.934,0,0,0-.284.145.625.625,0,0,0-.18.214.584.584,0,0,0-.064.267.443.443,0,0,0,.1.3.876.876,0,0,0,.278.209,2.706,2.706,0,0,0,.388.157c.145.046.3.093.446.145s.3.11.446.168a1.723,1.723,0,0,1,.388.232,1.064,1.064,0,0,1,.278.342,1.042,1.042,0,0,1,.1.487,1.6,1.6,0,0,1-.116.6,1.265,1.265,0,0,1-.342.475,1.629,1.629,0,0,1-.556.319,2.348,2.348,0,0,1-.759.116,2.311,2.311,0,0,1-.893-.162,2.187,2.187,0,0,1-.678-.412l.2-.313a.268.268,0,0,1,.087-.093.24.24,0,0,1,.133-.035.322.322,0,0,1,.174.064c.064.041.139.093.226.145a2.073,2.073,0,0,0,.319.145,1.558,1.558,0,0,0,.47.064,1.326,1.326,0,0,0,.423-.064.888.888,0,0,0,.3-.168.666.666,0,0,0,.18-.243.727.727,0,0,0,.058-.3.507.507,0,0,0-.1-.325.9.9,0,0,0-.278-.22,2.537,2.537,0,0,0-.394-.157q-.217-.07-.452-.139c-.151-.052-.3-.1-.452-.168a1.658,1.658,0,0,1-.394-.238,1.048,1.048,0,0,1-.278-.354,1.144,1.144,0,0,1-.1-.51,1.214,1.214,0,0,1,.11-.516,1.191,1.191,0,0,1,.325-.435,1.644,1.644,0,0,1,.522-.3,2.036,2.036,0,0,1,.707-.11,2.253,2.253,0,0,1,.835.145,2.052,2.052,0,0,1,.638.4l-.186.3Z" transform="translate(-77.286 -231.784)" fill="#1d1d1b"/>
          <path id="Path_57" data-name="Path 57" d="M138.637,233.77a2.1,2.1,0,0,1,.777.139,1.724,1.724,0,0,1,.614.406,1.93,1.93,0,0,1,.406.661,2.508,2.508,0,0,1,.145.893.547.547,0,0,1-.041.261.167.167,0,0,1-.157.064h-3.124a2.569,2.569,0,0,0,.122.777,1.582,1.582,0,0,0,.307.551,1.26,1.26,0,0,0,.464.33,1.551,1.551,0,0,0,.6.11,1.777,1.777,0,0,0,.533-.07,2.459,2.459,0,0,0,.388-.157,2.659,2.659,0,0,0,.272-.157.37.37,0,0,1,.186-.07.166.166,0,0,1,.157.081l.232.3a1.786,1.786,0,0,1-.365.325,2.1,2.1,0,0,1-.458.226,2.933,2.933,0,0,1-.5.133,3.1,3.1,0,0,1-.516.046,2.382,2.382,0,0,1-.9-.162,1.992,1.992,0,0,1-.707-.481,2.253,2.253,0,0,1-.464-.788,3.239,3.239,0,0,1-.168-1.078,2.759,2.759,0,0,1,.151-.916,2.108,2.108,0,0,1,.435-.742,2.053,2.053,0,0,1,.69-.493,2.227,2.227,0,0,1,.916-.18Zm.017.609a1.251,1.251,0,0,0-.939.348,1.667,1.667,0,0,0-.429.956h2.556a1.705,1.705,0,0,0-.081-.527,1.15,1.15,0,0,0-.232-.412,1.066,1.066,0,0,0-.371-.267,1.243,1.243,0,0,0-.5-.093Z" transform="translate(-80.241 -231.776)" fill="#1d1d1b"/>
          <path id="Path_58" data-name="Path 58" d="M148.366,234.684a.517.517,0,0,1-.075.081.172.172,0,0,1-.1.029.247.247,0,0,1-.151-.058,1.5,1.5,0,0,0-.209-.128,1.883,1.883,0,0,0-.3-.128,1.4,1.4,0,0,0-.441-.058,1.444,1.444,0,0,0-.609.122,1.192,1.192,0,0,0-.441.354,1.583,1.583,0,0,0-.267.562,2.872,2.872,0,0,0-.093.736,2.8,2.8,0,0,0,.1.759,1.663,1.663,0,0,0,.272.556,1.114,1.114,0,0,0,.429.342,1.294,1.294,0,0,0,.568.116,1.494,1.494,0,0,0,.5-.07,1.3,1.3,0,0,0,.325-.162,1.864,1.864,0,0,0,.214-.162.264.264,0,0,1,.168-.07.166.166,0,0,1,.157.081l.232.3a1.783,1.783,0,0,1-.765.551,2.7,2.7,0,0,1-.968.174,2,2,0,0,1-.817-.162,1.945,1.945,0,0,1-.655-.47,2.259,2.259,0,0,1-.441-.759,3.123,3.123,0,0,1-.162-1.026,3.054,3.054,0,0,1,.145-.968,2.149,2.149,0,0,1,.429-.765,1.924,1.924,0,0,1,.7-.5,2.309,2.309,0,0,1,.945-.18,2.135,2.135,0,0,1,.87.162,2.18,2.18,0,0,1,.672.452l-.22.3Z" transform="translate(-83.768 -231.78)" fill="#1d1d1b"/>
          <path id="Path_59" data-name="Path 59" d="M153.517,233.892v3a1.245,1.245,0,0,0,.243.823.905.905,0,0,0,.742.29,1.412,1.412,0,0,0,.684-.174,2.157,2.157,0,0,0,.591-.475v-3.466h.823v4.7h-.493a.208.208,0,0,1-.22-.174l-.064-.5a2.648,2.648,0,0,1-.684.545,1.786,1.786,0,0,1-.869.209,1.666,1.666,0,0,1-.678-.128,1.34,1.34,0,0,1-.493-.359,1.586,1.586,0,0,1-.3-.562,2.42,2.42,0,0,1-.1-.73v-3h.823Z" transform="translate(-87.076 -231.822)" fill="#1d1d1b"/>
          <path id="Path_60" data-name="Path 60" d="M161.77,238.532v-4.7h.475a.263.263,0,0,1,.186.052.3.3,0,0,1,.07.174l.058.73a2.086,2.086,0,0,1,.6-.765,1.317,1.317,0,0,1,.835-.278,1.339,1.339,0,0,1,.354.046,1.176,1.176,0,0,1,.29.122l-.1.614a.143.143,0,0,1-.145.116.7.7,0,0,1-.2-.046,1.276,1.276,0,0,0-.377-.046,1.044,1.044,0,0,0-.719.249,1.961,1.961,0,0,0-.487.73v2.991h-.823Z" transform="translate(-90.888 -231.768)" fill="#1d1d1b"/>
          <path id="Path_61" data-name="Path 61" d="M169.281,230.927a.584.584,0,0,1-.046.226.7.7,0,0,1-.128.185.584.584,0,0,1-1-.412.636.636,0,0,1,.046-.232.69.69,0,0,1,.128-.191.574.574,0,0,1,.823,0,.554.554,0,0,1,.128.191A.519.519,0,0,1,169.281,230.927Zm-.191,1.472v4.7h-.823v-4.7Z" transform="translate(-93.553 -230.33)" fill="#1d1d1b"/>
          <path id="Path_62" data-name="Path 62" d="M173.387,237.557a1.138,1.138,0,0,1-.858-.313,1.249,1.249,0,0,1-.3-.893v-2.875h-.568a.191.191,0,0,1-.128-.046.171.171,0,0,1-.052-.139v-.33l.771-.1.191-1.449a.2.2,0,0,1,.058-.116.18.18,0,0,1,.128-.046h.417v1.617h1.345v.6h-1.345v2.817a.594.594,0,0,0,.145.441.5.5,0,0,0,.371.145.662.662,0,0,0,.226-.035.85.85,0,0,0,.162-.075,1.368,1.368,0,0,0,.116-.075.153.153,0,0,1,.087-.035c.046,0,.081.023.116.081l.243.394a1.538,1.538,0,0,1-.516.313,1.756,1.756,0,0,1-.62.116Z" transform="translate(-94.969 -230.717)" fill="#1d1d1b"/>
          <path id="Path_63" data-name="Path 63" d="M179.218,239.987a.5.5,0,0,1-.1.151.289.289,0,0,1-.191.058h-.614l.858-1.867-1.936-4.423h.713a.254.254,0,0,1,.168.052.321.321,0,0,1,.087.116l1.258,2.956a1.4,1.4,0,0,1,.07.2c.017.07.041.139.052.209.023-.07.041-.139.064-.209s.046-.139.075-.209l1.217-2.956a.246.246,0,0,1,.093-.122.228.228,0,0,1,.145-.046h.661l-2.62,6.087Z" transform="translate(-97.386 -231.831)" fill="#1d1d1b"/>
          <path id="Path_64" data-name="Path 64" d="M39.5,258.545v-4.7h.493a.208.208,0,0,1,.22.174l.058.481a2.333,2.333,0,0,1,.58-.522,1.389,1.389,0,0,1,.748-.2,1.1,1.1,0,0,1,.771.267,1.461,1.461,0,0,1,.423.713,1.49,1.49,0,0,1,.255-.441,1.509,1.509,0,0,1,.359-.307,1.418,1.418,0,0,1,.423-.174,2.023,2.023,0,0,1,.458-.058,1.793,1.793,0,0,1,.661.116,1.294,1.294,0,0,1,.493.348,1.521,1.521,0,0,1,.307.556,2.532,2.532,0,0,1,.1.759v2.991h-.823V255.56a1.248,1.248,0,0,0-.243-.835.864.864,0,0,0-.7-.284,1.1,1.1,0,0,0-.388.07.918.918,0,0,0-.325.209.966.966,0,0,0-.22.348,1.381,1.381,0,0,0-.081.487v2.991h-.823v-2.991a1.329,1.329,0,0,0-.226-.846.8.8,0,0,0-.661-.278,1.043,1.043,0,0,0-.568.162,1.927,1.927,0,0,0-.481.446v3.5H39.49Z" transform="translate(-39.49 -240.187)" fill="#1d1d1b"/>
          <path id="Path_65" data-name="Path 65" d="M55.918,258.528h-.365a.48.48,0,0,1-.2-.035.2.2,0,0,1-.1-.156l-.093-.435c-.122.11-.243.209-.359.3a2.017,2.017,0,0,1-.371.22,2.2,2.2,0,0,1-.417.139,2.527,2.527,0,0,1-.487.046,1.647,1.647,0,0,1-.51-.075,1.228,1.228,0,0,1-.417-.232,1.13,1.13,0,0,1-.278-.388,1.362,1.362,0,0,1-.1-.556,1.083,1.083,0,0,1,.151-.539,1.355,1.355,0,0,1,.493-.458,3.281,3.281,0,0,1,.893-.33,5.966,5.966,0,0,1,1.351-.128v-.371a1.291,1.291,0,0,0-.232-.835.845.845,0,0,0-.7-.284,1.456,1.456,0,0,0-.51.075,2.076,2.076,0,0,0-.359.174c-.1.064-.185.122-.261.174a.371.371,0,0,1-.214.075.24.24,0,0,1-.145-.046.3.3,0,0,1-.1-.11l-.151-.267a2.776,2.776,0,0,1,.841-.562,2.633,2.633,0,0,1,1-.186,1.891,1.891,0,0,1,.7.128,1.5,1.5,0,0,1,.516.359,1.52,1.52,0,0,1,.313.562,2.378,2.378,0,0,1,.1.725v3Zm-2.145-.5a1.723,1.723,0,0,0,.4-.046,1.43,1.43,0,0,0,.342-.128,1.966,1.966,0,0,0,.307-.2,2.429,2.429,0,0,0,.284-.267v-.968a5.723,5.723,0,0,0-.968.07,2.484,2.484,0,0,0-.649.191.887.887,0,0,0-.365.272.6.6,0,0,0-.116.354.764.764,0,0,0,.058.319.576.576,0,0,0,.162.22.7.7,0,0,0,.243.128,1,1,0,0,0,.3.041Z" transform="translate(-44.841 -240.17)" fill="#1d1d1b"/>
          <path id="Path_66" data-name="Path 66" d="M60.76,258.545v-4.7h.493a.208.208,0,0,1,.22.174l.064.51a2.648,2.648,0,0,1,.684-.545,1.777,1.777,0,0,1,.875-.209,1.666,1.666,0,0,1,.678.128,1.34,1.34,0,0,1,.493.359,1.586,1.586,0,0,1,.3.562,2.417,2.417,0,0,1,.1.73v2.991H63.85V255.56a1.273,1.273,0,0,0-.243-.829.908.908,0,0,0-.742-.3,1.412,1.412,0,0,0-.684.174,2.247,2.247,0,0,0-.585.475v3.461h-.823Z" transform="translate(-48.43 -240.187)" fill="#1d1d1b"/>
          <path id="Path_67" data-name="Path 67" d="M72.928,258.528h-.365a.48.48,0,0,1-.2-.035.2.2,0,0,1-.1-.156l-.093-.435c-.122.11-.243.209-.359.3a2.017,2.017,0,0,1-.371.22,2.2,2.2,0,0,1-.417.139,2.527,2.527,0,0,1-.487.046,1.647,1.647,0,0,1-.51-.075,1.228,1.228,0,0,1-.417-.232,1.13,1.13,0,0,1-.278-.388,1.362,1.362,0,0,1-.1-.556,1.083,1.083,0,0,1,.151-.539,1.355,1.355,0,0,1,.493-.458,3.281,3.281,0,0,1,.893-.33,5.966,5.966,0,0,1,1.351-.128v-.371a1.291,1.291,0,0,0-.232-.835.845.845,0,0,0-.7-.284,1.456,1.456,0,0,0-.51.075,2.076,2.076,0,0,0-.359.174c-.1.064-.185.122-.261.174a.371.371,0,0,1-.214.075.24.24,0,0,1-.145-.046.3.3,0,0,1-.1-.11l-.151-.267a2.776,2.776,0,0,1,.841-.562,2.632,2.632,0,0,1,1-.186,1.891,1.891,0,0,1,.7.128,1.5,1.5,0,0,1,.516.359,1.52,1.52,0,0,1,.313.562,2.378,2.378,0,0,1,.1.725v3Zm-2.145-.5a1.723,1.723,0,0,0,.4-.046,1.43,1.43,0,0,0,.342-.128,1.966,1.966,0,0,0,.307-.2,2.428,2.428,0,0,0,.284-.267v-.968a5.723,5.723,0,0,0-.968.07,2.484,2.484,0,0,0-.649.191.887.887,0,0,0-.365.272.6.6,0,0,0-.116.354.764.764,0,0,0,.058.319.576.576,0,0,0,.162.22.7.7,0,0,0,.243.128,1,1,0,0,0,.3.041Z" transform="translate(-51.991 -240.17)" fill="#1d1d1b"/>
          <path id="Path_68" data-name="Path 68" d="M79.023,253.76a2.289,2.289,0,0,1,.574.07,1.824,1.824,0,0,1,.487.2h1.275v.307c0,.1-.064.168-.2.2l-.533.075a1.437,1.437,0,0,1,.157.672,1.5,1.5,0,0,1-.133.626,1.414,1.414,0,0,1-.365.481,1.622,1.622,0,0,1-.556.307,2.292,2.292,0,0,1-.707.1,2.357,2.357,0,0,1-.62-.081.8.8,0,0,0-.226.209.371.371,0,0,0-.075.214.3.3,0,0,0,.133.261.9.9,0,0,0,.359.128,3.29,3.29,0,0,0,.5.041h.58a3.217,3.217,0,0,1,.58.052,1.779,1.779,0,0,1,.5.168.923.923,0,0,1,.359.325.982.982,0,0,1,.133.533,1.28,1.28,0,0,1-.151.591,1.562,1.562,0,0,1-.435.51,2.281,2.281,0,0,1-.69.359,3.024,3.024,0,0,1-.922.133,3.526,3.526,0,0,1-.9-.1,2.287,2.287,0,0,1-.643-.272,1.3,1.3,0,0,1-.383-.394A.924.924,0,0,1,77,259a.859.859,0,0,1,.22-.591,1.529,1.529,0,0,1,.6-.388.863.863,0,0,1-.319-.249.747.747,0,0,1-.081-.626.78.78,0,0,1,.116-.214,1.506,1.506,0,0,1,.186-.2,1.456,1.456,0,0,1,.261-.174,1.459,1.459,0,0,1-.545-.516,1.392,1.392,0,0,1-.2-.754,1.5,1.5,0,0,1,.133-.626,1.293,1.293,0,0,1,.371-.475,1.805,1.805,0,0,1,.562-.3,2.367,2.367,0,0,1,.719-.1Zm1.467,5.02a.428.428,0,0,0-.1-.29.587.587,0,0,0-.267-.168,1.693,1.693,0,0,0-.383-.087,3.881,3.881,0,0,0-.458-.029h-.493a1.811,1.811,0,0,1-.475-.064,1.334,1.334,0,0,0-.429.307.624.624,0,0,0-.162.435.6.6,0,0,0,.081.3.7.7,0,0,0,.249.238,1.4,1.4,0,0,0,.417.156,2.959,2.959,0,0,0,1.194-.006,1.5,1.5,0,0,0,.446-.174.88.88,0,0,0,.278-.267A.656.656,0,0,0,80.49,258.78Zm-1.467-2.539a1.278,1.278,0,0,0,.441-.07.836.836,0,0,0,.522-.5,1.151,1.151,0,0,0,.064-.383.9.9,0,0,0-.261-.684,1.06,1.06,0,0,0-.765-.255,1.045,1.045,0,0,0-.759.255.913.913,0,0,0-.261.684,1.021,1.021,0,0,0,.07.383.877.877,0,0,0,.2.3.849.849,0,0,0,.319.2A1.267,1.267,0,0,0,79.023,256.241Z" transform="translate(-55.257 -240.178)" fill="#1d1d1b"/>
          <path id="Path_69" data-name="Path 69" d="M87.557,253.77a2.1,2.1,0,0,1,.777.139,1.724,1.724,0,0,1,.614.406,1.9,1.9,0,0,1,.406.661,2.508,2.508,0,0,1,.145.893.547.547,0,0,1-.041.261.167.167,0,0,1-.157.064H86.177a2.569,2.569,0,0,0,.122.777,1.582,1.582,0,0,0,.307.551,1.259,1.259,0,0,0,.464.33,1.551,1.551,0,0,0,.6.11,1.777,1.777,0,0,0,.533-.07,2.461,2.461,0,0,0,.388-.157,2.656,2.656,0,0,0,.272-.156.353.353,0,0,1,.185-.07.166.166,0,0,1,.157.081l.232.3a1.786,1.786,0,0,1-.365.325,2.241,2.241,0,0,1-.458.226,2.932,2.932,0,0,1-.5.133,3.159,3.159,0,0,1-.516.046,2.382,2.382,0,0,1-.9-.162,1.992,1.992,0,0,1-.707-.481,2.254,2.254,0,0,1-.464-.788,3.239,3.239,0,0,1-.168-1.078,2.759,2.759,0,0,1,.151-.916,2.109,2.109,0,0,1,.435-.742,2.053,2.053,0,0,1,.69-.493,2.227,2.227,0,0,1,.916-.18Zm.017.609a1.251,1.251,0,0,0-.939.348,1.631,1.631,0,0,0-.429.956h2.556a1.706,1.706,0,0,0-.081-.528,1.15,1.15,0,0,0-.232-.412,1.066,1.066,0,0,0-.371-.267,1.243,1.243,0,0,0-.5-.093Z" transform="translate(-58.771 -240.183)" fill="#1d1d1b"/>
          <path id="Path_70" data-name="Path 70" d="M94.322,258.545v-4.7h.493a.208.208,0,0,1,.22.174l.058.481a2.333,2.333,0,0,1,.58-.522,1.389,1.389,0,0,1,.748-.2,1.1,1.1,0,0,1,.771.267,1.461,1.461,0,0,1,.423.713,1.49,1.49,0,0,1,.255-.441,1.509,1.509,0,0,1,.359-.307,1.418,1.418,0,0,1,.423-.174,2.023,2.023,0,0,1,.458-.058,1.793,1.793,0,0,1,.661.116,1.294,1.294,0,0,1,.493.348,1.521,1.521,0,0,1,.307.556,2.532,2.532,0,0,1,.1.759v2.991h-.823V255.56a1.248,1.248,0,0,0-.243-.835.864.864,0,0,0-.7-.284,1.1,1.1,0,0,0-.388.07.918.918,0,0,0-.325.209.966.966,0,0,0-.22.348,1.381,1.381,0,0,0-.081.487v2.991h-.823v-2.991a1.329,1.329,0,0,0-.226-.846.8.8,0,0,0-.661-.278,1.043,1.043,0,0,0-.568.162,1.927,1.927,0,0,0-.481.446v3.5H94.31Z" transform="translate(-62.532 -240.187)" fill="#1d1d1b"/>
          <path id="Path_71" data-name="Path 71" d="M109.077,253.77a2.1,2.1,0,0,1,.777.139,1.724,1.724,0,0,1,.614.406,1.9,1.9,0,0,1,.406.661,2.508,2.508,0,0,1,.145.893.547.547,0,0,1-.041.261.167.167,0,0,1-.157.064H107.7a2.569,2.569,0,0,0,.122.777,1.582,1.582,0,0,0,.307.551,1.259,1.259,0,0,0,.464.33,1.551,1.551,0,0,0,.6.11,1.777,1.777,0,0,0,.533-.07,2.461,2.461,0,0,0,.388-.157,2.657,2.657,0,0,0,.272-.156.353.353,0,0,1,.186-.07.166.166,0,0,1,.157.081l.232.3a1.785,1.785,0,0,1-.365.325,2.241,2.241,0,0,1-.458.226,2.932,2.932,0,0,1-.5.133,3.159,3.159,0,0,1-.516.046,2.382,2.382,0,0,1-.9-.162,1.992,1.992,0,0,1-.707-.481,2.254,2.254,0,0,1-.464-.788,3.239,3.239,0,0,1-.168-1.078,2.759,2.759,0,0,1,.151-.916,2.109,2.109,0,0,1,.435-.742,2.053,2.053,0,0,1,.69-.493,2.227,2.227,0,0,1,.916-.18Zm.017.609a1.251,1.251,0,0,0-.939.348,1.631,1.631,0,0,0-.429.956h2.556a1.706,1.706,0,0,0-.081-.528,1.15,1.15,0,0,0-.232-.412,1.066,1.066,0,0,0-.371-.267,1.243,1.243,0,0,0-.5-.093Z" transform="translate(-67.816 -240.183)" fill="#1d1d1b"/>
          <path id="Path_72" data-name="Path 72" d="M115.85,258.545v-4.7h.493a.208.208,0,0,1,.22.174l.064.51a2.555,2.555,0,0,1,.684-.545,1.777,1.777,0,0,1,.875-.209,1.666,1.666,0,0,1,.678.128,1.34,1.34,0,0,1,.493.359,1.586,1.586,0,0,1,.3.562,2.417,2.417,0,0,1,.1.73v2.991h-.823V255.56a1.273,1.273,0,0,0-.243-.829.908.908,0,0,0-.742-.3,1.412,1.412,0,0,0-.684.174,2.247,2.247,0,0,0-.585.475v3.461h-.823Z" transform="translate(-71.586 -240.187)" fill="#1d1d1b"/>
          <path id="Path_73" data-name="Path 73" d="M125.817,257.557a1.138,1.138,0,0,1-.858-.313,1.249,1.249,0,0,1-.3-.893v-2.875h-.568a.191.191,0,0,1-.128-.046.171.171,0,0,1-.052-.139v-.33l.771-.1.191-1.449a.2.2,0,0,1,.058-.116.18.18,0,0,1,.128-.046h.417v1.617h1.345v.6h-1.345v2.817a.594.594,0,0,0,.145.441.5.5,0,0,0,.371.145.662.662,0,0,0,.226-.035.848.848,0,0,0,.162-.075,1.365,1.365,0,0,0,.116-.075.153.153,0,0,1,.087-.035c.046,0,.081.023.116.081l.243.394a1.538,1.538,0,0,1-.516.313,1.755,1.755,0,0,1-.62.116Z" transform="translate(-74.974 -239.123)" fill="#1d1d1b"/>
          <path id="Path_74" data-name="Path 74" d="M136.208,254.63a.18.18,0,0,1-.174.1.312.312,0,0,1-.157-.052c-.058-.035-.133-.07-.214-.116a1.488,1.488,0,0,0-.3-.116,1.464,1.464,0,0,0-.417-.052,1.26,1.26,0,0,0-.377.052.934.934,0,0,0-.284.145.624.624,0,0,0-.18.214.584.584,0,0,0-.064.267.444.444,0,0,0,.1.3.876.876,0,0,0,.278.209,2.706,2.706,0,0,0,.388.157c.145.046.3.093.446.145s.3.11.446.168a1.724,1.724,0,0,1,.388.232,1.064,1.064,0,0,1,.278.342,1.042,1.042,0,0,1,.1.487,1.6,1.6,0,0,1-.116.6,1.265,1.265,0,0,1-.342.475,1.629,1.629,0,0,1-.556.319,2.348,2.348,0,0,1-.759.116,2.31,2.31,0,0,1-.893-.162,2.187,2.187,0,0,1-.678-.412l.2-.313a.268.268,0,0,1,.087-.093.24.24,0,0,1,.133-.035.322.322,0,0,1,.174.064c.064.041.139.093.226.145a2.068,2.068,0,0,0,.319.145,1.557,1.557,0,0,0,.47.064,1.326,1.326,0,0,0,.423-.064.886.886,0,0,0,.3-.168.666.666,0,0,0,.18-.243.727.727,0,0,0,.058-.3.507.507,0,0,0-.1-.325.9.9,0,0,0-.278-.22,2.535,2.535,0,0,0-.394-.157q-.217-.07-.452-.139c-.151-.052-.3-.1-.452-.168a1.657,1.657,0,0,1-.394-.238,1.048,1.048,0,0,1-.278-.354,1.144,1.144,0,0,1-.1-.51,1.214,1.214,0,0,1,.11-.516,1.191,1.191,0,0,1,.325-.435,1.644,1.644,0,0,1,.522-.3,2.036,2.036,0,0,1,.707-.11,2.253,2.253,0,0,1,.835.145,2.051,2.051,0,0,1,.638.4l-.186.3Z" transform="translate(-78.85 -240.191)" fill="#1d1d1b"/>
          <path id="Path_75" data-name="Path 75" d="M141.678,259.987a.5.5,0,0,1-.1.151.289.289,0,0,1-.191.058h-.614l.858-1.867-1.936-4.423h.713a.254.254,0,0,1,.168.052.321.321,0,0,1,.087.116l1.258,2.956a1.4,1.4,0,0,1,.07.2c.017.07.041.139.052.209.023-.07.041-.139.064-.209s.046-.139.075-.209l1.217-2.956a.246.246,0,0,1,.093-.122.228.228,0,0,1,.145-.046h.661l-2.62,6.087Z" transform="translate(-81.607 -240.237)" fill="#1d1d1b"/>
          <path id="Path_76" data-name="Path 76" d="M151.338,254.63a.18.18,0,0,1-.174.1.312.312,0,0,1-.157-.052c-.058-.035-.133-.07-.214-.116a1.488,1.488,0,0,0-.3-.116,1.464,1.464,0,0,0-.417-.052,1.26,1.26,0,0,0-.377.052.934.934,0,0,0-.284.145.624.624,0,0,0-.18.214.584.584,0,0,0-.064.267.444.444,0,0,0,.1.3.876.876,0,0,0,.278.209,2.706,2.706,0,0,0,.388.157c.145.046.3.093.446.145s.3.11.446.168a1.724,1.724,0,0,1,.388.232,1.064,1.064,0,0,1,.278.342,1.042,1.042,0,0,1,.1.487,1.6,1.6,0,0,1-.116.6,1.265,1.265,0,0,1-.342.475,1.629,1.629,0,0,1-.556.319,2.348,2.348,0,0,1-.759.116,2.31,2.31,0,0,1-.893-.162,2.187,2.187,0,0,1-.678-.412l.2-.313a.268.268,0,0,1,.087-.093.24.24,0,0,1,.133-.035.322.322,0,0,1,.174.064c.064.041.139.093.226.145a2.068,2.068,0,0,0,.319.145,1.557,1.557,0,0,0,.47.064,1.326,1.326,0,0,0,.423-.064.886.886,0,0,0,.3-.168.666.666,0,0,0,.18-.243.727.727,0,0,0,.058-.3.507.507,0,0,0-.1-.325.9.9,0,0,0-.278-.22,2.535,2.535,0,0,0-.394-.157q-.217-.07-.452-.139c-.151-.052-.3-.1-.452-.168a1.657,1.657,0,0,1-.394-.238,1.048,1.048,0,0,1-.278-.354,1.144,1.144,0,0,1-.1-.51,1.214,1.214,0,0,1,.11-.516,1.191,1.191,0,0,1,.325-.435,1.644,1.644,0,0,1,.522-.3,2.036,2.036,0,0,1,.707-.11,2.253,2.253,0,0,1,.835.145,2.051,2.051,0,0,1,.638.4l-.186.3Z" transform="translate(-85.209 -240.191)" fill="#1d1d1b"/>
          <path id="Path_77" data-name="Path 77" d="M156.947,257.557a1.138,1.138,0,0,1-.858-.313,1.249,1.249,0,0,1-.3-.893v-2.875h-.568a.191.191,0,0,1-.128-.046.171.171,0,0,1-.052-.139v-.33l.771-.1.191-1.449a.2.2,0,0,1,.058-.116.18.18,0,0,1,.128-.046h.417v1.617h1.345v.6h-1.345v2.817a.594.594,0,0,0,.145.441.5.5,0,0,0,.371.145.662.662,0,0,0,.226-.035.848.848,0,0,0,.162-.075,1.365,1.365,0,0,0,.116-.075.153.153,0,0,1,.087-.035c.046,0,.081.023.116.081l.243.394a1.538,1.538,0,0,1-.516.313,1.755,1.755,0,0,1-.62.116Z" transform="translate(-88.059 -239.123)" fill="#1d1d1b"/>
          <path id="Path_78" data-name="Path 78" d="M163.457,253.77a2.1,2.1,0,0,1,.777.139,1.724,1.724,0,0,1,.614.406,1.931,1.931,0,0,1,.406.661,2.508,2.508,0,0,1,.145.893.547.547,0,0,1-.041.261.167.167,0,0,1-.156.064h-3.124a2.569,2.569,0,0,0,.122.777,1.582,1.582,0,0,0,.307.551,1.259,1.259,0,0,0,.464.33,1.551,1.551,0,0,0,.6.11,1.777,1.777,0,0,0,.533-.07,2.461,2.461,0,0,0,.388-.157,2.659,2.659,0,0,0,.272-.156.37.37,0,0,1,.185-.07.166.166,0,0,1,.157.081l.232.3a1.785,1.785,0,0,1-.365.325,2.1,2.1,0,0,1-.458.226,2.932,2.932,0,0,1-.5.133,3.1,3.1,0,0,1-.516.046,2.382,2.382,0,0,1-.9-.162,1.992,1.992,0,0,1-.707-.481,2.253,2.253,0,0,1-.464-.788,3.239,3.239,0,0,1-.168-1.078,2.759,2.759,0,0,1,.151-.916,2.109,2.109,0,0,1,.435-.742,2.053,2.053,0,0,1,.69-.493,2.227,2.227,0,0,1,.916-.18Zm.017.609a1.251,1.251,0,0,0-.939.348,1.667,1.667,0,0,0-.429.956h2.556a1.706,1.706,0,0,0-.081-.528,1.15,1.15,0,0,0-.232-.412,1.066,1.066,0,0,0-.371-.267,1.243,1.243,0,0,0-.5-.093Z" transform="translate(-90.674 -240.183)" fill="#1d1d1b"/>
          <path id="Path_79" data-name="Path 79" d="M170.222,258.545v-4.7h.493a.208.208,0,0,1,.22.174l.058.481a2.334,2.334,0,0,1,.58-.522,1.389,1.389,0,0,1,.748-.2,1.1,1.1,0,0,1,.771.267,1.461,1.461,0,0,1,.423.713,1.49,1.49,0,0,1,.255-.441,1.509,1.509,0,0,1,.359-.307,1.418,1.418,0,0,1,.423-.174,2.023,2.023,0,0,1,.458-.058,1.793,1.793,0,0,1,.661.116,1.294,1.294,0,0,1,.493.348,1.521,1.521,0,0,1,.307.556,2.532,2.532,0,0,1,.1.759v2.991h-.823V255.56a1.248,1.248,0,0,0-.243-.835.864.864,0,0,0-.7-.284,1.1,1.1,0,0,0-.388.07.918.918,0,0,0-.325.209.966.966,0,0,0-.22.348,1.381,1.381,0,0,0-.081.487v2.991h-.823v-2.991a1.329,1.329,0,0,0-.226-.846.8.8,0,0,0-.661-.278,1.043,1.043,0,0,0-.568.162,1.927,1.927,0,0,0-.481.446v3.5h-.823Z" transform="translate(-94.435 -240.187)" fill="#1d1d1b"/>
          <path id="Path_80" data-name="Path 80" d="M185.768,254.63a.18.18,0,0,1-.174.1.312.312,0,0,1-.157-.052c-.058-.035-.133-.07-.214-.116a1.488,1.488,0,0,0-.3-.116,1.464,1.464,0,0,0-.417-.052,1.26,1.26,0,0,0-.377.052.934.934,0,0,0-.284.145.624.624,0,0,0-.18.214.584.584,0,0,0-.064.267.444.444,0,0,0,.1.3.876.876,0,0,0,.278.209,2.707,2.707,0,0,0,.388.157c.145.046.3.093.446.145s.3.11.446.168a1.724,1.724,0,0,1,.388.232,1.064,1.064,0,0,1,.278.342,1.042,1.042,0,0,1,.1.487,1.6,1.6,0,0,1-.116.6,1.265,1.265,0,0,1-.342.475,1.629,1.629,0,0,1-.556.319,2.349,2.349,0,0,1-.759.116,2.31,2.31,0,0,1-.893-.162,2.187,2.187,0,0,1-.678-.412l.2-.313a.268.268,0,0,1,.087-.093.24.24,0,0,1,.133-.035.322.322,0,0,1,.174.064c.064.041.139.093.226.145a2.068,2.068,0,0,0,.319.145,1.557,1.557,0,0,0,.47.064,1.326,1.326,0,0,0,.423-.064.886.886,0,0,0,.3-.168.666.666,0,0,0,.18-.243.727.727,0,0,0,.058-.3.507.507,0,0,0-.1-.325.9.9,0,0,0-.278-.22,2.534,2.534,0,0,0-.394-.157q-.217-.07-.452-.139c-.151-.052-.3-.1-.452-.168a1.658,1.658,0,0,1-.394-.238,1.048,1.048,0,0,1-.278-.354,1.144,1.144,0,0,1-.1-.51,1.214,1.214,0,0,1,.11-.516,1.191,1.191,0,0,1,.325-.435,1.644,1.644,0,0,1,.522-.3,2.036,2.036,0,0,1,.707-.11,2.253,2.253,0,0,1,.835.145,2.051,2.051,0,0,1,.638.4l-.185.3Z" transform="translate(-99.681 -240.191)" fill="#1d1d1b"/>
        </g>
      </g>
    </g>
  </g>
</svg>
