<svg xmlns="http://www.w3.org/2000/svg" width="350" height="200" viewBox="0 0 350 200"><g transform="translate(-190 -242)"><rect width="350" height="200" transform="translate(190 242)" fill="#fff0e6"/><path d="M76.073,42.6H71.508V28.908a28.908,28.908,0,1,0-57.815,0V42.6H9.129A9.131,9.131,0,0,0,0,51.729V88.244a9.131,9.131,0,0,0,9.129,9.129H76.073A9.131,9.131,0,0,0,85.2,88.244V51.729A9.131,9.131,0,0,0,76.073,42.6Zm-19.779,0H28.908V28.908a13.693,13.693,0,1,1,27.386,0Z" transform="translate(322.399 285.791)" fill="#fa690f"/><path d="M-12.3.492a23.482,23.482,0,0,1-6.58-.923,15.433,15.433,0,0,1-5.1-2.4l2.255-5a15.3,15.3,0,0,0,4.387,2.173,16.478,16.478,0,0,0,5.084.82,8.122,8.122,0,0,0,4.182-.841A2.539,2.539,0,0,0-6.724-7.913a2.136,2.136,0,0,0-.8-1.7A6.061,6.061,0,0,0-9.573-10.7q-1.251-.41-3.382-.9a46.758,46.758,0,0,1-5.371-1.558,8.726,8.726,0,0,1-3.587-2.5,6.754,6.754,0,0,1-1.5-4.592,7.988,7.988,0,0,1,1.353-4.531A9.1,9.1,0,0,1-17.979-28a16.647,16.647,0,0,1,6.663-1.189,22.061,22.061,0,0,1,5.371.656A15.867,15.867,0,0,1-1.353-26.65L-3.4-21.607a16,16,0,0,0-7.954-2.255,7.458,7.458,0,0,0-4.121.9,2.753,2.753,0,0,0-1.332,2.378,2.325,2.325,0,0,0,1.538,2.193,24.14,24.14,0,0,0,4.694,1.414,46.758,46.758,0,0,1,5.371,1.558,8.894,8.894,0,0,1,3.587,2.46A6.6,6.6,0,0,1-.123-8.4,7.837,7.837,0,0,1-1.5-3.915,9.228,9.228,0,0,1-5.617-.7,16.8,16.8,0,0,1-12.3.492ZM15.867-17.015a9.661,9.661,0,0,1,5.781,2.808,7.742,7.742,0,0,1,2.009,5.432,8.573,8.573,0,0,1-1.312,4.613,9.139,9.139,0,0,1-4,3.382A15.313,15.313,0,0,1,11.767.492,22.573,22.573,0,0,1,5.8-.308,15.366,15.366,0,0,1,.82-2.583L3.4-7.667A12.514,12.514,0,0,0,7.2-5.76a14.616,14.616,0,0,0,4.407.676,6.986,6.986,0,0,0,3.936-.963,3.1,3.1,0,0,0,1.435-2.727q0-3.526-5.371-3.526H8.569v-4.387l5.9-6.683H2.255V-28.7h20.09v4.3Z" transform="translate(365 370)" fill="#fff"/></g></svg>