<svg xmlns="http://www.w3.org/2000/svg" id="Lager_1" viewBox="0 0 340 240"><defs><style>.cls-1,.cls-2{fill:#32cd32}.cls-1{opacity:.1}</style></defs><path d="M-3.5-3.5h347v247h-347z" class="cls-1"/><path d="m218.19 87.85-46-17.68a6.3 6.3 0 0 0-4.41 0l-46 17.68a3.1 3.1 0 0 0-2 2.93V98a3.15 3.15 0 0 0 3.14 3.14h94.18a3.15 3.15 0 0 0 3.13-3.14v-7.22a3.1 3.1 0 0 0-2.04-2.93m-85.86 19.59v31.39h-3.14a3.15 3.15 0 0 0-3.14 3.14v9.42H214V142a3.15 3.15 0 0 0-3.14-3.14h-3.14v-31.42h-12.61v31.39h-18.83v-31.39h-12.56v31.39h-18.83v-31.39Zm84.76 50.23h-94.18a3.14 3.14 0 0 0-3.14 3.14v6.28a3.15 3.15 0 0 0 3.14 3.14h94.18a3.15 3.15 0 0 0 3.14-3.14v-6.28a3.14 3.14 0 0 0-3.14-3.14" class="cls-2"/></svg>