<svg xmlns="http://www.w3.org/2000/svg" xmlns:xlink="http://www.w3.org/1999/xlink" width="700" height="400" viewBox="0 0 700 400">
  <defs>
    <radialGradient id="radial-gradient" cx="0.5" cy="0.5" r="0.5" gradientUnits="objectBoundingBox">
      <stop offset="0" stop-color="#fff"/>
      <stop offset="1" stop-color="#e1eaef"/>
    </radialGradient>
    <clipPath id="clip-safesoring-iso-2">
      <rect width="700" height="400"/>
    </clipPath>
  </defs>
  <g id="safesoring-iso-2" clip-path="url(#clip-safesoring-iso-2)">
    <rect width="700" height="400" fill="url(#radial-gradient)"/>
    <path id="Path_19" data-name="Path 19" d="M-31.239,0V-27.3h5.07V0Zm20.9.39a20.358,20.358,0,0,1-6.123-.916A13.366,13.366,0,0,1-21.1-2.886l1.755-3.939A14.2,14.2,0,0,0-15.288-4.68a14.708,14.708,0,0,0,4.953.858A10.651,10.651,0,0,0-6.864-4.29a4.147,4.147,0,0,0,1.95-1.267A2.87,2.87,0,0,0-4.29-7.371a2.5,2.5,0,0,0-.9-2.009,6.624,6.624,0,0,0-2.321-1.209q-1.424-.448-3.159-.839t-3.471-.917A14.48,14.48,0,0,1-17.3-13.708a6.837,6.837,0,0,1-2.32-2.243,6.555,6.555,0,0,1-.9-3.588,7.391,7.391,0,0,1,1.189-4.076A8.194,8.194,0,0,1-15.7-26.579,14.94,14.94,0,0,1-9.516-27.69a19.436,19.436,0,0,1,4.875.624A14.1,14.1,0,0,1-.429-25.272l-1.6,3.939a15.026,15.026,0,0,0-3.783-1.618,14.354,14.354,0,0,0-3.744-.527,9.59,9.59,0,0,0-3.413.507,4.173,4.173,0,0,0-1.911,1.326,3.071,3.071,0,0,0-.6,1.872,2.528,2.528,0,0,0,.877,2.009,6.2,6.2,0,0,0,2.3,1.189q1.423.429,3.179.839t3.49.917a14.411,14.411,0,0,1,3.159,1.326,6.5,6.5,0,0,1,2.3,2.223A6.588,6.588,0,0,1,.7-7.722,7.325,7.325,0,0,1-.487-3.685,8.182,8.182,0,0,1-4.134-.722,15.079,15.079,0,0,1-10.335.39Zm28.86,0A16.025,16.025,0,0,1,12.636-.663a14.241,14.241,0,0,1-4.68-2.945A13.261,13.261,0,0,1,4.875-8.054a14.09,14.09,0,0,1-1.092-5.6,14.09,14.09,0,0,1,1.092-5.6,13.261,13.261,0,0,1,3.081-4.446,14.241,14.241,0,0,1,4.68-2.944,15.915,15.915,0,0,1,5.85-1.053,15.872,15.872,0,0,1,5.869,1.053,14.288,14.288,0,0,1,4.66,2.944A13.261,13.261,0,0,1,32.1-19.247a14.09,14.09,0,0,1,1.092,5.6A14.232,14.232,0,0,1,32.1-8.034a13.007,13.007,0,0,1-3.081,4.446,14.458,14.458,0,0,1-4.66,2.925A15.762,15.762,0,0,1,18.525.39Zm-.039-4.446a10.2,10.2,0,0,0,3.822-.7A8.81,8.81,0,0,0,25.35-6.766a9.468,9.468,0,0,0,2.008-3.042,9.914,9.914,0,0,0,.722-3.841,9.914,9.914,0,0,0-.722-3.842,9.468,9.468,0,0,0-2.008-3.042,8.81,8.81,0,0,0-3.042-2.009,10.2,10.2,0,0,0-3.822-.7,10.048,10.048,0,0,0-3.8.7,9.061,9.061,0,0,0-3.042,2.009,9.312,9.312,0,0,0-2.028,3.042,9.914,9.914,0,0,0-.721,3.842,9.955,9.955,0,0,0,.721,3.822,9.414,9.414,0,0,0,2.009,3.062,8.81,8.81,0,0,0,3.042,2.009A10.2,10.2,0,0,0,18.486-4.056ZM-55.107,48V44.607l10.842-10.3a14.522,14.522,0,0,0,2.028-2.262,5.9,5.9,0,0,0,.877-1.813,6.385,6.385,0,0,0,.215-1.58,3.515,3.515,0,0,0-1.287-2.906,5.938,5.938,0,0,0-3.783-1.034,8.974,8.974,0,0,0-3.608.7,7.3,7.3,0,0,0-2.788,2.145l-3.549-2.73A10.511,10.511,0,0,1-51.851,21.5a14.937,14.937,0,0,1,6.065-1.189,12.908,12.908,0,0,1,5.167.955,7.647,7.647,0,0,1,3.393,2.711,7.259,7.259,0,0,1,1.189,4.173,10.105,10.105,0,0,1-.351,2.632,9.292,9.292,0,0,1-1.326,2.749,20.884,20.884,0,0,1-2.847,3.237l-9.321,8.853-1.053-1.911h15.951V48ZM-27.5,48l11.271-25.272L-14.9,24.99H-30.381l2.418-2.457v7.1h-4.719V20.7h21.216v3.393L-22.074,48Zm29.757.39a10.69,10.69,0,0,1-5.831-1.638,11.049,11.049,0,0,1-4.076-4.778A17.762,17.762,0,0,1-9.126,34.35a17.762,17.762,0,0,1,1.482-7.624,11.049,11.049,0,0,1,4.076-4.778A10.69,10.69,0,0,1,2.262,20.31a10.662,10.662,0,0,1,5.85,1.638,11.223,11.223,0,0,1,4.075,4.778,17.563,17.563,0,0,1,1.5,7.624,17.563,17.563,0,0,1-1.5,7.625,11.223,11.223,0,0,1-4.075,4.778A10.662,10.662,0,0,1,2.262,48.39Zm0-4.407A5.439,5.439,0,0,0,5.577,42.95a6.725,6.725,0,0,0,2.2-3.179,15.7,15.7,0,0,0,.8-5.421,15.661,15.661,0,0,0-.8-5.44,6.727,6.727,0,0,0-2.2-3.159,5.439,5.439,0,0,0-3.315-1.034A5.4,5.4,0,0,0-.994,25.75,6.664,6.664,0,0,0-3.217,28.91a15.661,15.661,0,0,0-.8,5.44,15.7,15.7,0,0,0,.8,5.421A6.662,6.662,0,0,0-.994,42.95,5.4,5.4,0,0,0,2.262,43.983ZM28.509,48.39a10.69,10.69,0,0,1-5.83-1.638A11.049,11.049,0,0,1,18.6,41.974a17.762,17.762,0,0,1-1.482-7.625A17.762,17.762,0,0,1,18.6,26.726a11.049,11.049,0,0,1,4.076-4.778,10.69,10.69,0,0,1,5.83-1.638,10.662,10.662,0,0,1,5.85,1.638,11.223,11.223,0,0,1,4.075,4.778,17.563,17.563,0,0,1,1.5,7.624,17.563,17.563,0,0,1-1.5,7.625,11.223,11.223,0,0,1-4.075,4.778A10.662,10.662,0,0,1,28.509,48.39Zm0-4.407a5.439,5.439,0,0,0,3.315-1.034,6.725,6.725,0,0,0,2.2-3.179,15.7,15.7,0,0,0,.8-5.421,15.661,15.661,0,0,0-.8-5.44,6.727,6.727,0,0,0-2.2-3.159,5.74,5.74,0,0,0-6.572,0,6.664,6.664,0,0,0-2.223,3.159,15.661,15.661,0,0,0-.8,5.44,15.7,15.7,0,0,0,.8,5.421,6.662,6.662,0,0,0,2.223,3.179A5.4,5.4,0,0,0,28.509,43.983ZM47.7,48V22.65l2.223,2.3H41.925V20.7H52.767V48Z" transform="translate(350 190)" fill="#2f5e88"/>
  </g>
</svg>
