<svg xmlns="http://www.w3.org/2000/svg" width="170" height="114" viewBox="0 0 170 114"><g id="safespring-image" transform="translate(-614 -536.069)"><path id="Rectangle_343" fill="#e7eff3" d="M0 0h170v114H0z" transform="translate(614 536.069)"/><g id="safespring_byline_blue_svg" transform="translate(674 568.755)"><path id="Path_5563" fill="#417da5" d="M57.99 10.34a11.61 11.61 0 0 0-23.09 0 11.61 11.61 0 0 0 1.28 23.15h10.27a6.48 6.48 0 1 0 0-12.96 3.78 3.78 0 1 1 2.68-6.45 1.35 1.35 0 1 0 1.91-1.9 6.48 6.48 0 1 0-4.59 11.05 3.78 3.78 0 1 1 0 7.57H36.18a8.91 8.91 0 0 1 0-17.83 1.35 1.35 0 0 0 1.35-1.35 8.91 8.91 0 0 1 17.83 0 1.35 1.35 0 0 0 1.36 1.35 8.91 8.91 0 1 1 0 17.83 1.35 1.35 0 0 0 0 2.7 11.61 11.61 0 0 0 1.27-23.16" transform="translate(-21.571 -.001)"/><path id="Path_5564" fill="#417da5" d="m3.33 339.77-.78-.28c-.58-.19-1.13-.4-1.13-.87s.36-.72.92-.72a2 2 0 0 1 1.47.62l.48-.72a2.5 2.5 0 0 0-1.97-.75 1.75 1.75 0 0 0-1.95 1.66 1.5 1.5 0 0 0 .91 1.39 4 4 0 0 0 .8.3c.38.14 1.3.33 1.3.96s-.58.83-1.12.83a2.4 2.4 0 0 1-1.7-.83l-.56.69a2.8 2.8 0 0 0 2.26 1.03 2.5 2.5 0 0 0 1.6-.51 1.6 1.6 0 0 0 .6-1.32 1.4 1.4 0 0 0-.46-1.07 2 2 0 0 0-.67-.41" transform="translate(0 -295.919)"/><path id="Path_5565" fill="#417da5" d="M44.38 337.05a4.5 4.5 0 0 0-2.17.59l.35.78a3.6 3.6 0 0 1 1.75-.5 1.27 1.27 0 0 1 1.43 1.31v.23l-1.54.07c-1.35.06-2.27.63-2.27 1.76a1.83 1.83 0 0 0 2 1.8 2.4 2.4 0 0 0 1.84-.87l.01.73h1.14v-3.36a2.4 2.4 0 0 0-.63-1.88 2.5 2.5 0 0 0-1.91-.66m1.38 4.36a1.8 1.8 0 0 1-1.48.84 1.06 1.06 0 0 1-1.2-1c0-.54.38-.95 1.32-1l1.36-.08Z" transform="translate(-36.813 -295.919)"/><path id="Path_5566" fill="#417da5" d="M117.28 337.05a2.87 2.87 0 0 0-2.94 3 2.8 2.8 0 0 0 2.9 3.04 3.4 3.4 0 0 0 2.55-.92l-.5-.67a3.2 3.2 0 0 1-1.9.67 1.8 1.8 0 0 1-1.87-1.84h4.46l.04-.51a2.64 2.64 0 0 0-2.74-2.77m-1.75 2.5a1.7 1.7 0 0 1 1.71-1.66 1.7 1.7 0 0 1 1.67 1.66Z" transform="translate(-100.387 -295.919)"/><path id="Path_5567" fill="#417da5" d="m167.64 339.77-.78-.28c-.58-.19-1.14-.4-1.14-.87s.37-.72.93-.72a2 2 0 0 1 1.46.62l.5-.72a2.5 2.5 0 0 0-1.98-.75 1.75 1.75 0 0 0-1.95 1.66 1.5 1.5 0 0 0 .9 1.39 4 4 0 0 0 .8.3c.39.14 1.3.33 1.3.96s-.56.83-1.1.83a2.4 2.4 0 0 1-1.7-.83l-.57.69a2.8 2.8 0 0 0 2.25 1.03 2.5 2.5 0 0 0 1.61-.51 1.7 1.7 0 0 0 .6-1.32 1.4 1.4 0 0 0-.46-1.07 2 2 0 0 0-.67-.41" transform="translate(-144.259 -295.919)"/><path id="Path_5568" fill="#417da5" d="M209.45 337.04a2.5 2.5 0 0 0-2.06 1.03h-.03v-.91h-1.12v8h1.17v-3.13l.01.01a2.3 2.3 0 0 0 2 1.04 2.8 2.8 0 0 0 2.82-3.04 2.77 2.77 0 0 0-2.8-3m-.25 5.04a2.05 2.05 0 1 1 1.84-2.05 1.85 1.85 0 0 1-1.84 2.05" transform="translate(-181.072 -295.913)"/><path id="Rectangle_344" fill="#417da5" d="M0 0h1.17v5.79H0z" transform="translate(35.912 41.241)"/><path id="Path_5569" fill="#417da5" d="M314.88 337.05a2 2 0 0 0-1.76 1.02h-.04l.01-.91h-1.17v5.78h1.17v-2.9c0-1.12.4-2.03 1.49-2.03 1.03 0 1.2.73 1.2 1.7v3.24h1.17v-3.43c0-1.39-.42-2.47-2.07-2.47" transform="translate(-273.855 -295.914)"/><path id="Path_5570" fill="#417da5" d="M363.39 337.21v.91h-.03a2.3 2.3 0 0 0-2.02-1.02 2.92 2.92 0 0 0 0 5.83 2.3 2.3 0 0 0 2.02-1.04h.03v.23a2.6 2.6 0 0 1-.44 1.62 2 2 0 0 1-1.59.63 3.7 3.7 0 0 1-2.07-.73l-.55.82a4.5 4.5 0 0 0 2.58.86 3 3 0 0 0 2.59-1.1 3.7 3.7 0 0 0 .63-2.5v-4.51Zm-1.8 4.76a1.97 1.97 0 1 1 1.84-1.96 1.8 1.8 0 0 1-1.85 1.96Z" transform="translate(-314.795 -295.963)"/><path id="Path_5571" fill="#417da5" d="M91.2 316a2.4 2.4 0 0 0-.4 1.56v6.36h1.16v-4.84h1.38v-.94h-1.38v-.64c0-.66.12-1.23.9-1.23a2 2 0 0 1 .48.06v-.88a4 4 0 0 0-.75-.07 1.8 1.8 0 0 0-1.4.63" transform="translate(-79.719 -276.889)"/><path id="Path_5572" fill="#417da5" d="M261.95 338.03h-.04l.01-.89h-1.17v5.79h1.17v-2.89a2.6 2.6 0 0 1 .35-1.46 1.2 1.2 0 0 1 .95-.5 2 2 0 0 1 .64.13v-1.12a2 2 0 0 0-.49-.06 1.5 1.5 0 0 0-1.43 1" transform="translate(-228.93 -295.9)"/><circle id="Ellipse_57" cx="0.761" cy="0.761" r="0.761" fill="#417da5" transform="translate(35.729 38.487)"/></g></g></svg>