<svg xmlns="http://www.w3.org/2000/svg" xmlns:xlink="http://www.w3.org/1999/xlink" width="350" height="200" viewBox="0 0 350 200"><defs><clipPath id="b"><path d="M0 0h350v200H0z"/></clipPath></defs><g id="a" clip-path="url(#b)"><path fill="#fff" d="M0 0h350v200H0z"/><path fill="rgba(50,205,50,0.1)" d="M0 0h350v200H0Z"/><path fill="#32cd32" d="M216.36 72.4 176.9 57.25a5.4 5.4 0 0 0-3.79 0l-39.47 15.17a2.7 2.7 0 0 0-1.74 2.52v6.21a2.7 2.7 0 0 0 2.7 2.7h80.8a2.7 2.7 0 0 0 2.7-2.7v-6.21a2.7 2.7 0 0 0-1.74-2.52m-73.69 16.82v26.94h-2.7a2.7 2.7 0 0 0-2.69 2.7v8.08h75.43v-8.08a2.7 2.7 0 0 0-2.69-2.7h-2.7V89.22h-10.77v26.94H180.4V89.22h-10.8v26.94h-16.16V89.22Zm72.74 43.1h-80.82a2.7 2.7 0 0 0-2.7 2.7v5.39a2.7 2.7 0 0 0 2.7 2.7h80.82a2.7 2.7 0 0 0 2.7-2.7v-5.39a2.7 2.7 0 0 0-2.7-2.7"/><g transform="rotate(-10.02 -550.863 729.167)"><g transform="translate(120.525 125.049)"><path fill="rgba(50,205,50,0.2)" d="M42.14 39.86h-2.87a.5.5 0 0 0-.5.5.55.55 0 0 0 .5.56h2.86a.5.5 0 0 0 .5-.56.5.5 0 0 0-.5-.5m15.2-37.03a.5.5 0 0 1-.39-.17L55.26.98a.56.56 0 1 1 .78-.78l1.7 1.68a.54.54 0 0 1 0 .79.6.6 0 0 1-.4.16m27.93 0a.5.5 0 0 1-.4-.17.54.54 0 0 1 0-.79L86.58.2a.56.56 0 0 1 .78.78l-1.7 1.69a.5.5 0 0 1-.39.16M55.65 32.5a.5.5 0 0 1-.4-.16.54.54 0 0 1 0-.79l1.71-1.68a.56.56 0 0 1 .78.78l-1.7 1.7a.6.6 0 0 1-.39.16m31.3-.01a.5.5 0 0 1-.39-.16l-1.68-1.69a.56.56 0 0 1 .78-.78l1.7 1.68a.54.54 0 0 1 0 .8.5.5 0 0 1-.4.16M63.11 3.17a.5.5 0 0 1-.44-.28L61.43.87a.57.57 0 0 1 .96-.62l1.23 2.02a.6.6 0 0 1-.17.78.4.4 0 0 1-.34.12m5.5.33a.55.55 0 0 1-.56-.45L67.6.7a.58.58 0 0 1 1.13-.22l.45 2.36a.57.57 0 0 1-.45.67Zm.17 5.67a.54.54 0 0 1-.5-.4l-.73-2.23a.57.57 0 1 1 1.07-.4l.73 2.25a.6.6 0 0 1-.34.72.4.4 0 0 1-.23.06M79.5 3.16a.5.5 0 0 1-.29-.05.55.55 0 0 1-.16-.79L80.28.3a.57.57 0 0 1 .95.62L80 2.94a.7.7 0 0 1-.5.22M74 3.5h-.11a.6.6 0 0 1-.46-.68l.46-2.34A.57.57 0 1 1 75 .7l-.45 2.36a.8.8 0 0 1-.56.45m-.16 5.66a.2.2 0 0 1-.17-.05.56.56 0 0 1-.34-.73l.73-2.25a.57.57 0 1 1 1.07.4l-.73 2.23a.6.6 0 0 1-.56.4M61.88 32.5a.5.5 0 0 1-.28-.05.55.55 0 0 1-.16-.79l1.23-2.02a.57.57 0 1 1 .95.62l-1.23 2.02a.7.7 0 0 1-.5.22m6.27.01h-.1a.6.6 0 0 1-.47-.69l.46-2.34a.57.57 0 0 1 1.12.22l-.45 2.36a.6.6 0 0 1-.56.45M68 26.67a.2.2 0 0 1-.17-.05.56.56 0 0 1-.34-.73l.73-2.25a.57.57 0 0 1 1.07.4l-.73 2.23a.6.6 0 0 1-.56.4m12.73 5.84a.5.5 0 0 1-.45-.28l-1.23-2.02a.57.57 0 0 1 .95-.62l1.24 2.02a.6.6 0 0 1-.17.78zm-6.28-.01a.55.55 0 0 1-.56-.44l-.46-2.36a.58.58 0 1 1 1.13-.22l.45 2.36a.57.57 0 0 1-.45.67.1.1 0 0 0-.11 0m.17-5.84a.54.54 0 0 1-.5-.4l-.73-2.23a.57.57 0 0 1 1.07-.4l.73 2.25a.6.6 0 0 1-.34.72.4.4 0 0 1-.23.06m6.56 0a.5.5 0 0 1-.4-.16l-1.67-1.7a.56.56 0 0 1 .78-.77l1.69 1.68a.54.54 0 0 1 0 .79.5.5 0 0 1-.4.17m3.76-18.02a.5.5 0 0 1-.45-.28.6.6 0 0 1 .17-.78l2.02-1.25a.57.57 0 1 1 .6.96l-2.01 1.23c-.16.06-.22.11-.33.11m-.28 5.51a.55.55 0 0 1-.56-.45.57.57 0 0 1 .45-.67l2.36-.45a.57.57 0 1 1 .22 1.12l-2.36.45Zm-5.72.12a.54.54 0 0 1-.5-.4.6.6 0 0 1 .34-.72l2.24-.73a.57.57 0 1 1 .4 1.06l-2.25.73a.4.4 0 0 1-.23.06m8.02 11.95a.5.5 0 0 1-.28-.06l-2.03-1.23a.57.57 0 0 1 .62-.96l2.03 1.24a.55.55 0 0 1 .17.78.7.7 0 0 1-.5.23m-.01-6.29h-.13l-2.34-.45a.57.57 0 0 1 .22-1.12l2.36.45a.6.6 0 0 1 .45.67.55.55 0 0 1-.56.45m-5.78.17a.2.2 0 0 1-.16-.06l-2.25-.73a.57.57 0 0 1 .4-1.06l2.23.73a.56.56 0 0 1 .34.72.7.7 0 0 1-.57.4M57.67 8.67a.5.5 0 0 1-.28-.06l-2.02-1.23a.57.57 0 1 1 .62-.96l2.02 1.24a.55.55 0 0 1 .17.78 1 1 0 0 1-.5.23m.28 5.49h-.13l-2.34-.45a.57.57 0 0 1 .22-1.12l2.36.45a.6.6 0 0 1 .45.67.6.6 0 0 1-.56.45m5.71.12a.2.2 0 0 1-.16-.06l-2.25-.73a.57.57 0 0 1 .4-1.06l2.23.73a.56.56 0 0 1 .34.72.7.7 0 0 1-.57.4m-8.01 11.94a.5.5 0 0 1-.45-.28.6.6 0 0 1 .17-.78l2.02-1.25a.57.57 0 0 1 .61.96l-2.02 1.23zm0-6.28a.55.55 0 0 1-.56-.45.57.57 0 0 1 .45-.67l2.36-.45a.57.57 0 1 1 .22 1.12l-2.36.45Zm5.78.17a.54.54 0 0 1-.5-.4.6.6 0 0 1 .34-.72l2.24-.73a.57.57 0 0 1 .4 1.06l-2.25.73a.4.4 0 0 1-.23.06m7.79-4.82a1 1 0 0 1-.78-.34l-1.67-1.68a1.11 1.11 0 1 1 1.56-1.57L70 13.38a1.1 1.1 0 0 1 0 1.57 1 1 0 0 1-.8.34m4.18 0a1 1 0 0 1-.78-.34 1.1 1.1 0 0 1 0-1.57l1.68-1.68a1.11 1.11 0 0 1 1.57 1.56l-1.68 1.69a1 1 0 0 1-.79.34m-5.83 5.83a1 1 0 0 1-.78-.34 1.1 1.1 0 0 1 0-1.57l1.67-1.68a1.11 1.11 0 0 1 1.58 1.56l-1.69 1.7a1 1 0 0 1-.79.33m7.52 0a1 1 0 0 1-.78-.34L72.6 19.1a1.11 1.11 0 0 1 1.56-1.57l1.68 1.68a1.1 1.1 0 0 1 0 1.57 1 1 0 0 1-.78.34"/><path fill="rgba(50,205,50,0.2)" d="m48.02 40.36 3.82-3.81a.56.56 0 0 0-.79-.79l-3.81 3.82-3.82-3.82a.56.56 0 0 0-.78.79l3.81 3.81-3.81 3.82a.54.54 0 0 0 0 .78.54.54 0 0 0 .78 0l3.82-3.81 3.81 3.81a.54.54 0 0 0 .79 0 .54.54 0 0 0 0-.78Zm13.41-13.69a.5.5 0 0 1-.4-.16.54.54 0 0 1 0-.8l1.71-1.67a.56.56 0 0 1 .78.78l-1.7 1.69a.6.6 0 0 1-.39.17M63.11 8.6a.5.5 0 0 1-.39-.16l-1.68-1.69a.56.56 0 0 1 .78-.78l1.7 1.68a.54.54 0 0 1 0 .8.6.6 0 0 1-.4.15m16.38 0a.5.5 0 0 1-.4-.16.54.54 0 0 1 0-.79l1.7-1.68a.56.56 0 0 1 .79.78l-1.7 1.7a.5.5 0 0 1-.4.15M19.86 35.71a.53.53 0 0 0-.56.56v.95a4.39 4.39 0 0 0-7.74 3.14 4.6 4.6 0 0 0 4.43 4.72 4.3 4.3 0 0 0 3.3-1.57v1a.56.56 0 0 0 1.13 0v-8.23a.56.56 0 0 0-.56-.57m-.62 4.7a3.32 3.32 0 1 1-6.62 0 3.46 3.46 0 0 1 3.3-3.58 3.4 3.4 0 0 1 3.34 3.59Zm5-7.96a.56.56 0 0 0-.56.56v.45a.6.6 0 0 0 .56.62.6.6 0 0 0 .62-.62v-.45a.66.66 0 0 0-.62-.56m0 3.25a.53.53 0 0 0-.56.56v8.25a.56.56 0 0 0 .56.56.6.6 0 0 0 .62-.56v-8.25a.6.6 0 0 0-.62-.56m11.61.01a.53.53 0 0 0-.56.56v.95a4.39 4.39 0 0 0-7.74 3.14 4.6 4.6 0 0 0 4.43 4.72 4.3 4.3 0 0 0 3.3-1.57v1a.56.56 0 0 0 .57.57.6.6 0 0 0 .56-.56v-8.25a.56.56 0 0 0-.56-.56m-.62 4.7a3.32 3.32 0 1 1-6.62 0 3.46 3.46 0 0 1 3.3-3.58 3.4 3.4 0 0 1 3.34 3.59Zm-26.87-4.7a.6.6 0 0 0-.62.56v.95a4.4 4.4 0 0 0-3.3-1.57 4.66 4.66 0 0 0 0 9.31 4.4 4.4 0 0 0 3.3-1.51v.73a3.23 3.23 0 0 1-3.3 3.25 4 4 0 0 1-1.35-.28 4 4 0 0 1-1.07-.73.6.6 0 0 0-.4-.22.6.6 0 0 0-.44.17.6.6 0 0 0-.06.78 5 5 0 0 0 1.3.95l.05.06c.05 0 .05 0 .11.06l.11.05c.06 0 .06.06.11.06a4 4 0 0 0 1.58.28 5 5 0 0 0 .9-.11h.05c.28-.06.56-.17.79-.23a4 4 0 0 0 .67-.39l.17-.17.05-.05a1 1 0 0 0 .28-.23l.34-.33a.2.2 0 0 0 .06-.12 4.5 4.5 0 0 0 1.06-2.8v-7.91c.17-.28-.11-.56-.4-.56m-.55 4.64a3.3 3.3 0 1 1-3.31-3.53 3.44 3.44 0 0 1 3.31 3.53"/></g><path fill="rgba(50,205,50,0.2)" d="M328.51 154.23a4 4 0 0 0-1.76-.42c-1.5 0-2.03.56-2.03 2.14v2.42c0 1.4.48 1.92 1.75 1.92 1.13 0 1.53-.38 1.53-1.43v-1.3h-1.03a.2.2 0 0 1-.18-.2v-.6a.2.2 0 0 1 .18-.19h2.15a.2.2 0 0 1 .18.18v1.9c0 1.3-.33 2.64-2.8 2.64-2.17 0-3.18-.89-3.18-2.79v-2.59c0-1.64.4-3.16 3.35-3.16a4 4 0 0 1 2.3.57.2.2 0 0 1 .06.23l-.3.6a.2.2 0 0 1-.22.08m-28.6 7.06c-2.56 0-3.1-1.3-3.1-2.37v-3.33c0-1.96.96-2.84 3.06-2.84q3.07 0 3.07 2.8v3.01c0 2.45-1.73 2.73-3.03 2.73m.02-7.43c-1.27 0-1.78.53-1.78 1.82v2.94c0 1.47 1.47 1.55 1.76 1.55.87 0 1.67-.2 1.67-1.76v-2.78q0-1.78-1.65-1.77m44.22 7.28h-1a.2.2 0 0 1-.18-.18v-7.04h-2.13a.2.2 0 0 1-.17-.17v-.7a.2.2 0 0 1 .18-.18h5.62a.2.2 0 0 1 .2.18v.7a.2.2 0 0 1-.2.17h-2.14v7.04a.2.2 0 0 1-.18.18m-11.67 0h-1a.2.2 0 0 1-.19-.18v-7.9a.2.2 0 0 1 .18-.2h1a.2.2 0 0 1 .18.18v7.9a.2.2 0 0 1-.17.2m-10.93 0h-4.43a.2.2 0 0 1-.18-.18v-7.9a.2.2 0 0 1 .18-.2h4.25a.2.2 0 0 1 .18.18v.67a.2.2 0 0 1-.18.18h-3.14v2.4h2.6a.2.2 0 0 1 .18.18v.7a.2.2 0 0 1-.18.16h-2.58v2.72h3.3a.2.2 0 0 1 .18.18v.72a.17.17 0 0 1-.18.18Zm18.05 0h-4.43a.2.2 0 0 1-.18-.18v-7.9a.2.2 0 0 1 .18-.2h4.25a.2.2 0 0 1 .18.18v.67a.2.2 0 0 1-.18.18h-3.14v2.4h2.6a.2.2 0 0 1 .18.18v.7a.2.2 0 0 1-.18.16h-2.58v2.72h3.3a.2.2 0 0 1 .18.18v.72a.2.2 0 0 1-.18.18Zm-30.1 0h-4.28a.2.2 0 0 1-.17-.18v-7.9a.2.2 0 0 1 .17-.2h1.01a.2.2 0 0 1 .18.18v7.06h3.1a.2.2 0 0 1 .16.18v.67a.2.2 0 0 1-.18.18Zm5.95 0h-4.28a.2.2 0 0 1-.18-.18v-7.9a.2.2 0 0 1 .18-.2h1a.2.2 0 0 1 .2.18v7.06h3.07a.2.2 0 0 1 .18.18v.67a.2.2 0 0 1-.18.18Zm-27.27 0h-1.06a.2.2 0 0 1-.16-.1l-1.63-3.34h-1.43v3.25a.2.2 0 0 1-.18.18h-1.02a.2.2 0 0 1-.18-.18v-7.89a.2.2 0 0 1 .18-.18h2.51c1.97 0 3.1.88 3.1 2.4a2.2 2.2 0 0 1-1.66 2.15l1.7 3.45a.18.18 0 0 1-.17.26m-4.27-7.24v2.72h1.61a1.27 1.27 0 0 0 1.4-1.34c0-1.2-1.1-1.38-1.76-1.38Zm-20.69-1.02h-1.1a.2.2 0 0 0-.15.1l-2.18 3.61-2.17-3.62a.2.2 0 0 0-.15-.1h-1.1a.2.2 0 0 0-.18.2v7.9a.2.2 0 0 0 .18.17h1a.2.2 0 0 0 .2-.18v-6.12l1.9 3.32a.2.2 0 0 0 .14.1h.38a.2.2 0 0 0 .16-.1l1.9-3.32v6.11a.2.2 0 0 0 .17.18h1.01a.2.2 0 0 0 .18-.18v-7.9a.2.2 0 0 0-.19-.18m9.63 0h-1.1a.2.2 0 0 0-.16.1l-2.17 3.61-2.17-3.6a.2.2 0 0 0-.16-.1H266a.2.2 0 0 0-.18.18v7.9a.2.2 0 0 0 .18.18h1a.2.2 0 0 0 .18-.18v-6.12l1.9 3.32a.2.2 0 0 0 .15.1h.38a.2.2 0 0 0 .16-.1l1.9-3.32v6.12a.2.2 0 0 0 .18.18h1a.2.2 0 0 0 .2-.18v-7.9a.2.2 0 0 0-.2-.19m-18.34 8.27h-1.05a.2.2 0 0 1-.17-.12l-.54-1.75h-2.8l-.53 1.75a.2.2 0 0 1-.17.12h-.82a.18.18 0 0 1-.17-.23l2.4-7.9a.2.2 0 0 1 .17-.14h1.27a.2.2 0 0 1 .18.13l2.4 7.9a.18.18 0 0 1-.18.24Zm-3.15-6.65-1.1 3.77h2.2zm29.46 6.66h-1.05a.2.2 0 0 1-.17-.12l-.54-1.75h-2.8l-.53 1.75a.2.2 0 0 1-.17.12h-.82a.18.18 0 0 1-.17-.23l2.4-7.9a.2.2 0 0 1 .17-.14h1.28a.2.2 0 0 1 .17.13l2.4 7.9a.18.18 0 0 1-.17.24m-3.16-6.65-1.1 3.77h2.21zm-30.28 6.65h-1.08a.2.2 0 0 1-.14-.07l-2.72-3.63-.3.35v3.17a.2.2 0 0 1-.18.18h-1a.2.2 0 0 1-.19-.18v-7.9a.2.2 0 0 1 .18-.18h1a.2.2 0 0 1 .18.18v3.17l2.86-3.29a.2.2 0 0 1 .14-.06h1a.18.18 0 0 1 .15.3l-2.96 3.4 3.2 4.27a.18.18 0 0 1-.14.28Zm0 0h-1.08a.2.2 0 0 1-.14-.07l-2.72-3.63-.3.35v3.17a.2.2 0 0 1-.18.18h-1a.2.2 0 0 1-.19-.18v-7.9a.2.2 0 0 1 .18-.18h1a.2.2 0 0 1 .18.18v3.17l2.86-3.29a.2.2 0 0 1 .14-.06h1a.18.18 0 0 1 .15.3l-2.96 3.4 3.2 4.27a.18.18 0 0 1-.14.28Zm48.37 0h-1.08a.2.2 0 0 1-.15-.07l-2.72-3.63-.3.35v3.17a.2.2 0 0 1-.18.18h-1a.2.2 0 0 1-.19-.18v-7.9a.2.2 0 0 1 .18-.18h1.01a.2.2 0 0 1 .18.18v3.17l2.87-3.29a.2.2 0 0 1 .13-.06h1.02a.18.18 0 0 1 .13.3l-2.96 3.4 3.2 4.27a.18.18 0 0 1-.14.28Zm-18.34-26.11.18.5a.5.5 0 0 1-.01.41.5.5 0 0 1-.3.28.5.5 0 0 0-.3.27l-.96 2.05a.8.8 0 0 0 .38 1.04l.41.2 1.13-2.42a.54.54 0 1 1 .97.45l-1.13 2.41 1.12.52 1.13-2.4a.54.54 0 1 1 .97.44l-1.13 2.42.42.19a.8.8 0 0 0 1.03-.38l.95-2.05a.5.5 0 0 0 .02-.4.5.5 0 0 1 .02-.41.5.5 0 0 1 .3-.28l.5-.19Zm28.48 11.84a2.6 2.6 0 0 1-3.45 1.26 2.6 2.6 0 0 1-4.42-2.69l.3-.65a2.1 2.1 0 0 0 1.71.02l-.6 1.3a1.04 1.04 0 0 0 1.77 1.07 1.56 1.56 0 0 1 1.89-.46 1.04 1.04 0 0 0 .88-1.9 1.56 1.56 0 0 1-.86-1.74 1.06 1.06 0 0 0-.58-1.17 1.04 1.04 0 0 0-1.38.51l-.54 1.15a1.56 1.56 0 0 1-2.06.74l-4.28-2 1.85-.85 3.09 1.44.53-1.13a2.6 2.6 0 0 1 4.89 1.65 2.6 2.6 0 0 1 1.26 3.45m-1.7-9.18.5.18a.54.54 0 0 1 .32.7.5.5 0 0 0 .02.4l.95 2.05a.8.8 0 0 0 1.04.38l.41-.2-1.12-2.41a.54.54 0 1 1 .97-.45l1.13 2.41 1.12-.52-1.13-2.41a.54.54 0 1 1 .97-.45l1.13 2.4.41-.18a.8.8 0 0 0 .38-1.04l-.96-2.05a.5.5 0 0 0-.3-.27.54.54 0 0 1-.31-.7l.18-.5Zm-15.44 6.61a1.56 1.56 0 0 1-2.06-.74l-.54-1.14a1.04 1.04 0 0 0-1.96.66 1.56 1.56 0 0 1-.86 1.74 1.04 1.04 0 1 0 .88 1.89 1.56 1.56 0 0 1 1.89.46 1.04 1.04 0 0 0 1.77-1.07l-.6-1.3a2 2 0 0 0 1.7-.02l.3.66a2.6 2.6 0 0 1-4.41 2.68 2.6 2.6 0 0 1-2.2-4.71 2.6 2.6 0 0 1 4.9-1.65l.52 1.13 3.72-1.73-14.37-6.7a.78.78 0 0 1 .66-1.41l15.55 7.25 15.55-7.25a.78.78 0 1 1 .65 1.4Zm12.17-11.64v3.02h-14.54v-3.02zm-5.91-9.3a1.36 1.36 0 1 1-1.76-1.3v-.46h-.8v-.8h.8V120h.8v.8h.81v.81h-.8v.46a1.4 1.4 0 0 1 .95 1.3m-1.84 8.78c-.61 0-2.28-3.51-.89-6.83-3.03 0-3.27 4.49-.92 6.84h-1.66c-.9 0-2.96-2.32-2.14-5.25a3.6 3.6 0 0 1 .92-1.6c-3.54-.17-3.97 4.62-.76 6.85h-1.15c-1.53 0-3.9-2.76-2.8-5.58a3.7 3.7 0 0 1 5.2-1.67 3.2 3.2 0 0 1 2.48-.46 5 5 0 0 1 1.35.6 2 2 0 0 0 .86.2 2 2 0 0 0 .86-.2 5 5 0 0 1 1.35-.6 3.2 3.2 0 0 1 2.48.46 3.7 3.7 0 0 1 5.2 1.67c1.1 2.82-1.28 5.58-2.8 5.58h-1.16c3.21-2.23 2.78-7.02-.76-6.85a3.6 3.6 0 0 1 .92 1.6c.82 2.93-1.25 5.25-2.14 5.25h-1.66c2.35-2.35 2.1-6.84-.93-6.84 1.4 3.31-.27 6.84-.89 6.84ZM191.06 266.44a4 4 0 0 0-1.76-.42c-1.5 0-2.03.56-2.03 2.14v2.42c0 1.4.48 1.92 1.75 1.92 1.13 0 1.53-.38 1.53-1.43v-1.31h-1.03a.2.2 0 0 1-.18-.19v-.6a.2.2 0 0 1 .18-.19h2.15a.2.2 0 0 1 .18.18v1.9c0 1.3-.33 2.64-2.8 2.64-2.17 0-3.18-.89-3.18-2.79v-2.59c0-1.64.4-3.16 3.35-3.16a4 4 0 0 1 2.3.57.2.2 0 0 1 .06.23l-.3.6a.2.2 0 0 1-.22.08m-28.6 7.06c-2.56 0-3.1-1.3-3.1-2.37v-3.33c0-1.96.96-2.84 3.06-2.84q3.07 0 3.07 2.8v3.01c0 2.45-1.73 2.73-3.03 2.73m.02-7.43c-1.27 0-1.78.53-1.78 1.82v2.94c0 1.47 1.47 1.55 1.76 1.55.87 0 1.67-.21 1.67-1.76v-2.78q0-1.78-1.65-1.77m44.22 7.28h-1a.2.2 0 0 1-.18-.18v-7.04h-2.13a.2.2 0 0 1-.17-.17v-.7a.2.2 0 0 1 .18-.18h5.62a.2.2 0 0 1 .2.18v.7a.2.2 0 0 1-.2.17h-2.14v7.04a.2.2 0 0 1-.18.18m-11.67 0h-1a.2.2 0 0 1-.19-.18v-7.91a.2.2 0 0 1 .18-.19h1a.2.2 0 0 1 .18.18v7.9a.2.2 0 0 1-.17.19Zm-10.93 0h-4.43a.2.2 0 0 1-.18-.18v-7.91a.2.2 0 0 1 .18-.19h4.25a.2.2 0 0 1 .18.18v.67a.2.2 0 0 1-.18.18h-3.14v2.4h2.6a.2.2 0 0 1 .18.18v.69a.2.2 0 0 1-.18.17h-2.58v2.72h3.3a.2.2 0 0 1 .18.18v.72a.17.17 0 0 1-.18.18Zm18.05 0h-4.43a.2.2 0 0 1-.18-.18v-7.91a.2.2 0 0 1 .18-.19h4.25a.2.2 0 0 1 .18.18v.67a.2.2 0 0 1-.18.18h-3.14v2.4h2.6a.2.2 0 0 1 .18.18v.69a.2.2 0 0 1-.18.17h-2.58v2.72h3.3a.2.2 0 0 1 .18.18v.72a.2.2 0 0 1-.18.18Zm-30.1 0h-4.28a.2.2 0 0 1-.17-.18v-7.91a.2.2 0 0 1 .17-.19h1.01a.2.2 0 0 1 .18.18v7.06h3.1a.2.2 0 0 1 .16.18v.67a.2.2 0 0 1-.18.18Zm5.95 0h-4.28a.2.2 0 0 1-.18-.18v-7.91a.2.2 0 0 1 .18-.19h1a.2.2 0 0 1 .2.18v7.06h3.07a.2.2 0 0 1 .18.18v.67a.2.2 0 0 1-.18.18Zm-27.27 0h-1.06a.2.2 0 0 1-.16-.1l-1.63-3.34h-1.43v3.25a.2.2 0 0 1-.18.18h-1.02a.2.2 0 0 1-.18-.18v-7.89a.2.2 0 0 1 .18-.18h2.51c1.97 0 3.1.88 3.1 2.4a2.2 2.2 0 0 1-1.66 2.15l1.7 3.45a.18.18 0 0 1-.17.26m-4.27-7.24v2.72h1.61a1.27 1.27 0 0 0 1.4-1.34c0-1.2-1.1-1.38-1.76-1.38Zm-20.69-1.02h-1.1a.2.2 0 0 0-.15.09l-2.18 3.62-2.17-3.62a.2.2 0 0 0-.15-.1h-1.1a.2.2 0 0 0-.18.19v7.9a.2.2 0 0 0 .18.18h1a.2.2 0 0 0 .2-.18v-6.12l1.9 3.32a.2.2 0 0 0 .14.09h.38a.2.2 0 0 0 .16-.1l1.9-3.31v6.11a.2.2 0 0 0 .17.18h1.01a.2.2 0 0 0 .18-.18v-7.9a.2.2 0 0 0-.19-.18m9.63 0h-1.1a.2.2 0 0 0-.16.09l-2.17 3.62-2.17-3.61a.2.2 0 0 0-.16-.1h-1.1a.2.2 0 0 0-.18.19v7.9a.2.2 0 0 0 .18.18h1.01a.2.2 0 0 0 .18-.18v-6.12l1.9 3.32a.2.2 0 0 0 .15.09h.38a.2.2 0 0 0 .16-.1l1.9-3.31v6.12a.2.2 0 0 0 .18.18h1a.2.2 0 0 0 .2-.18v-7.91a.2.2 0 0 0-.2-.18m-18.34 8.27h-1.05a.2.2 0 0 1-.17-.12l-.54-1.75h-2.8l-.53 1.75a.2.2 0 0 1-.17.12h-.82a.18.18 0 0 1-.17-.23l2.4-7.9a.2.2 0 0 1 .17-.14h1.27a.2.2 0 0 1 .18.13l2.4 7.9a.18.18 0 0 1-.18.24Zm-3.15-6.65-1.1 3.77h2.2zm29.46 6.66h-1.05a.2.2 0 0 1-.17-.12l-.54-1.75h-2.8l-.53 1.75a.2.2 0 0 1-.17.12h-.82a.18.18 0 0 1-.17-.23l2.4-7.9a.2.2 0 0 1 .17-.14h1.28a.2.2 0 0 1 .17.13l2.4 7.9a.18.18 0 0 1-.17.24m-3.16-6.65-1.1 3.77h2.21zm-30.28 6.65h-1.08a.2.2 0 0 1-.14-.07l-2.72-3.63-.3.35v3.17a.2.2 0 0 1-.18.18h-1a.2.2 0 0 1-.19-.18v-7.9a.2.2 0 0 1 .18-.18h1a.2.2 0 0 1 .18.18v3.17l2.86-3.29a.2.2 0 0 1 .14-.06h1a.18.18 0 0 1 .15.3l-2.96 3.39 3.2 4.28a.18.18 0 0 1-.14.28Zm0 0h-1.08a.2.2 0 0 1-.14-.07l-2.72-3.63-.3.35v3.17a.2.2 0 0 1-.18.18h-1a.2.2 0 0 1-.19-.18v-7.9a.2.2 0 0 1 .18-.18h1a.2.2 0 0 1 .18.18v3.17l2.86-3.29a.2.2 0 0 1 .14-.06h1a.18.18 0 0 1 .15.3l-2.96 3.39 3.2 4.28a.18.18 0 0 1-.14.28Zm48.37 0h-1.08a.2.2 0 0 1-.15-.07l-2.72-3.63-.3.35v3.17a.2.2 0 0 1-.18.18h-1a.2.2 0 0 1-.19-.18v-7.9a.2.2 0 0 1 .18-.18h1.01a.2.2 0 0 1 .18.18v3.17l2.87-3.29a.2.2 0 0 1 .13-.06h1.02a.18.18 0 0 1 .13.3l-2.96 3.39 3.2 4.28a.18.18 0 0 1-.14.28Zm-18.34-26.11.19.5a.5.5 0 0 1-.02.4.5.5 0 0 1-.3.28.5.5 0 0 0-.3.28l-.96 2.05a.8.8 0 0 0 .38 1.04l.41.19 1.13-2.41a.54.54 0 1 1 .97.45l-1.12 2.4 1.11.53 1.13-2.41a.54.54 0 1 1 .97.45l-1.13 2.41.42.2a.8.8 0 0 0 1.03-.38l.95-2.05a.5.5 0 0 0 .02-.4.5.5 0 0 1 .02-.42.5.5 0 0 1 .3-.28l.5-.18Zm28.48 11.83a2.6 2.6 0 0 1-3.45 1.26 2.6 2.6 0 0 1-4.42-2.68l.3-.66a2.1 2.1 0 0 0 1.71.03l-.6 1.29a1.04 1.04 0 0 0 1.77 1.07 1.56 1.56 0 0 1 1.89-.46 1.04 1.04 0 0 0 .88-1.89 1.56 1.56 0 0 1-.86-1.74 1.06 1.06 0 0 0-.58-1.17 1.04 1.04 0 0 0-1.38.5l-.54 1.15a1.56 1.56 0 0 1-2.06.75l-4.27-2 1.84-.85 3.09 1.44.53-1.14a2.6 2.6 0 0 1 4.89 1.65 2.6 2.6 0 0 1 1.26 3.45m-1.7-9.17.5.18a.54.54 0 0 1 .32.69.5.5 0 0 0 .02.4l.95 2.06a.8.8 0 0 0 1.04.37l.41-.19-1.12-2.41a.54.54 0 1 1 .97-.45l1.13 2.4 1.12-.51-1.13-2.41a.54.54 0 1 1 .97-.46l1.13 2.41.41-.19a.8.8 0 0 0 .38-1.03l-.96-2.05a.5.5 0 0 0-.3-.28.54.54 0 0 1-.31-.69l.18-.5Zm-15.44 6.6a1.56 1.56 0 0 1-2.06-.73l-.54-1.15a1.04 1.04 0 0 0-1.96.66 1.56 1.56 0 0 1-.86 1.75 1.04 1.04 0 1 0 .88 1.89 1.56 1.56 0 0 1 1.89.46 1.04 1.04 0 0 0 1.77-1.08l-.6-1.29a2 2 0 0 0 1.7-.02l.3.65a2.6 2.6 0 0 1-4.41 2.69 2.6 2.6 0 0 1-2.2-4.72 2.6 2.6 0 0 1 4.9-1.65l.52 1.14 3.72-1.73-14.37-6.7a.78.78 0 0 1 .66-1.41l15.55 7.25 15.55-7.25a.78.78 0 1 1 .66 1.4Zm12.17-11.64v3.02h-14.53v-3.02zm-5.9-9.3a1.36 1.36 0 1 1-1.77-1.3v-.45h-.8V233h.8v-.8h.8v.8h.81v.81h-.8v.46a1.4 1.4 0 0 1 .95 1.3Zm-1.85 8.8c-.61 0-2.28-3.53-.89-6.85-3.03 0-3.27 4.5-.92 6.84h-1.66c-.9 0-2.96-2.32-2.14-5.25a3.6 3.6 0 0 1 .92-1.6c-3.54-.16-3.97 4.62-.76 6.86h-1.15c-1.53 0-3.9-2.77-2.8-5.58a3.7 3.7 0 0 1 5.2-1.67 3.2 3.2 0 0 1 2.49-.46 5 5 0 0 1 1.34.59 2 2 0 0 0 .86.2 2 2 0 0 0 .86-.2 5 5 0 0 1 1.35-.6 3.2 3.2 0 0 1 2.48.47 3.7 3.7 0 0 1 5.2 1.67c1.1 2.81-1.28 5.58-2.8 5.58h-1.16c3.21-2.24 2.78-7.02-.76-6.86a3.6 3.6 0 0 1 .92 1.6c.82 2.93-1.24 5.25-2.14 5.25h-1.66c2.35-2.35 2.1-6.84-.93-6.84 1.4 3.32-.27 6.84-.89 6.84Zm5.14-51.53-7.05-2.94a1.8 1.8 0 0 0-1.35 0l-7.04 2.94a1.8 1.8 0 0 0-1.1 1.62c0 7.29 4.2 12.32 8.14 13.96a1.8 1.8 0 0 0 1.35 0c3.15-1.31 8.13-5.84 8.13-13.96a1.8 1.8 0 0 0-1.08-1.62m-7.72 13.3v-13.98l6.46 2.7c-.13 5.55-3.02 9.57-6.46 11.28m24.76-8.92h2.81v5.4a8 8 0 0 1-2.5 1.25 10 10 0 0 1-2.87.43 8 8 0 0 1-3.73-.88 6.6 6.6 0 0 1-2.6-2.45 7 7 0 0 1-.93-3.55 7 7 0 0 1 .94-3.54 6.6 6.6 0 0 1 2.61-2.45 8 8 0 0 1 3.76-.88 8 8 0 0 1 3.18.59 6 6 0 0 1 2.39 1.7l-1.98 1.83a4.6 4.6 0 0 0-3.44-1.5 5 5 0 0 0-2.26.54 4 4 0 0 0-1.54 1.5 4.4 4.4 0 0 0-.55 2.21 4.4 4.4 0 0 0 .55 2.2 4 4 0 0 0 1.53 1.52 4.5 4.5 0 0 0 2.24.54 5 5 0 0 0 2.4-.57Zm5.66-6.45h6.04a8.5 8.5 0 0 1 3.83.83 6 6 0 0 1 2.59 2.33 6.6 6.6 0 0 1 .92 3.5 6.6 6.6 0 0 1-.92 3.5 6 6 0 0 1-2.58 2.32 8.5 8.5 0 0 1-3.84.82h-6.04Zm5.9 10.78a4.5 4.5 0 0 0 3.18-1.11 4 4 0 0 0 1.18-3.02 4 4 0 0 0-1.18-3 4.5 4.5 0 0 0-3.18-1.12h-2.82v8.25ZM205 190.77a7 7 0 0 1 3.07.6 4.6 4.6 0 0 1 2 1.67 4.6 4.6 0 0 1 .7 2.56 4.6 4.6 0 0 1-.7 2.56 4.5 4.5 0 0 1-2 1.67 7.5 7.5 0 0 1-3.07.58h-2.67v3.66h-3.08v-13.3Zm-.17 7.13a3.2 3.2 0 0 0 2.11-.6 2.1 2.1 0 0 0 .72-1.7 2.1 2.1 0 0 0-.72-1.72 3.2 3.2 0 0 0-2.1-.6h-2.51v4.62Zm16.6 6.17-2.56-3.7h-2.83v3.7h-3.08v-13.3h5.77a7 7 0 0 1 3.07.6 4.6 4.6 0 0 1 2 1.67 4.6 4.6 0 0 1 .7 2.56 4.5 4.5 0 0 1-.72 2.56 4.5 4.5 0 0 1-2.02 1.64l2.98 4.27Zm-.05-8.47a2.1 2.1 0 0 0-.72-1.72 3.2 3.2 0 0 0-2.1-.6h-2.52v4.64h2.51a3.2 3.2 0 0 0 2.11-.61 2.1 2.1 0 0 0 .72-1.7m269.82 17.63a4 4 0 0 0-1.75-.42c-1.5 0-2.03.56-2.03 2.14v2.42c0 1.4.48 1.92 1.75 1.92 1.13 0 1.53-.38 1.53-1.43v-1.3h-1.03a.2.2 0 0 1-.18-.2v-.6a.2.2 0 0 1 .18-.19h2.15a.2.2 0 0 1 .18.18v1.9c0 1.3-.33 2.64-2.81 2.64-2.16 0-3.17-.89-3.17-2.79v-2.59c0-1.64.4-3.16 3.35-3.16a4 4 0 0 1 2.3.57.2.2 0 0 1 .06.23l-.3.6a.2.2 0 0 1-.22.08m-28.6 7.06c-2.56 0-3.1-1.3-3.1-2.37v-3.33c0-1.96.96-2.84 3.06-2.84q3.07 0 3.07 2.8v3.01c0 2.45-1.73 2.73-3.03 2.73m.02-7.43c-1.27 0-1.78.53-1.78 1.82v2.94c0 1.47 1.47 1.55 1.76 1.55.87 0 1.67-.2 1.67-1.76v-2.78q0-1.78-1.65-1.77m44.22 7.28h-1a.2.2 0 0 1-.18-.18v-7.04h-2.13a.2.2 0 0 1-.17-.17v-.7a.2.2 0 0 1 .18-.18h5.62a.2.2 0 0 1 .19.18v.7a.2.2 0 0 1-.2.17h-2.13v7.04a.2.2 0 0 1-.18.18m-11.67 0h-1.01a.2.2 0 0 1-.18-.18v-7.9a.2.2 0 0 1 .18-.2h1a.2.2 0 0 1 .18.18v7.9a.2.2 0 0 1-.17.2m-10.93 0h-4.43a.2.2 0 0 1-.18-.18v-7.9a.2.2 0 0 1 .18-.2h4.25a.2.2 0 0 1 .18.18v.67a.2.2 0 0 1-.18.18h-3.14v2.4h2.6a.2.2 0 0 1 .18.18v.7a.2.2 0 0 1-.18.16h-2.58v2.72h3.3a.2.2 0 0 1 .18.18v.72a.17.17 0 0 1-.18.18Zm18.05 0h-4.43a.2.2 0 0 1-.18-.18v-7.9a.2.2 0 0 1 .18-.2h4.25a.2.2 0 0 1 .18.18v.67a.2.2 0 0 1-.18.18h-3.14v2.4h2.6a.2.2 0 0 1 .18.18v.7a.2.2 0 0 1-.18.16H499v2.72h3.3a.2.2 0 0 1 .18.18v.72a.2.2 0 0 1-.18.18Zm-30.1 0h-4.28a.2.2 0 0 1-.17-.18v-7.9a.2.2 0 0 1 .17-.2h1a.2.2 0 0 1 .19.18v7.06h3.09a.2.2 0 0 1 .17.18v.67a.2.2 0 0 1-.18.18Zm5.95 0h-4.28a.2.2 0 0 1-.18-.18v-7.9a.2.2 0 0 1 .18-.2h1a.2.2 0 0 1 .19.18v7.06h3.08a.2.2 0 0 1 .18.18v.67a.2.2 0 0 1-.18.18Zm-27.27 0h-1.06a.2.2 0 0 1-.16-.1l-1.63-3.34h-1.43v3.25a.2.2 0 0 1-.18.18h-1.02a.2.2 0 0 1-.18-.18v-7.89a.2.2 0 0 1 .18-.18h2.5c1.98 0 3.1.88 3.1 2.4a2.2 2.2 0 0 1-1.65 2.15l1.7 3.45a.18.18 0 0 1-.17.26m-4.27-7.24v2.72h1.6a1.27 1.27 0 0 0 1.4-1.34c0-1.2-1.1-1.38-1.75-1.38Zm-20.7-1.02h-1.1a.2.2 0 0 0-.14.1l-2.18 3.61-2.17-3.62a.2.2 0 0 0-.15-.1h-1.1a.2.2 0 0 0-.18.2v7.9a.2.2 0 0 0 .18.17h1a.2.2 0 0 0 .19-.18v-6.12l1.9 3.32a.2.2 0 0 0 .15.1h.38a.2.2 0 0 0 .16-.1l1.89-3.32v6.11a.2.2 0 0 0 .18.18h1a.2.2 0 0 0 .19-.18v-7.9a.2.2 0 0 0-.2-.18m9.64 0h-1.1a.2.2 0 0 0-.16.1l-2.17 3.61-2.17-3.6a.2.2 0 0 0-.16-.1h-1.1a.2.2 0 0 0-.18.18v7.9a.2.2 0 0 0 .18.18h1a.2.2 0 0 0 .19-.18v-6.12l1.9 3.32a.2.2 0 0 0 .15.1h.38a.2.2 0 0 0 .16-.1l1.9-3.32v6.12a.2.2 0 0 0 .18.18h1a.2.2 0 0 0 .19-.18v-7.9a.2.2 0 0 0-.2-.19Zm-18.34 8.27h-1.05a.2.2 0 0 1-.17-.12l-.54-1.75h-2.81l-.52 1.75a.2.2 0 0 1-.17.12h-.82a.18.18 0 0 1-.17-.23l2.4-7.9a.2.2 0 0 1 .17-.14h1.27a.2.2 0 0 1 .18.13l2.4 7.9a.18.18 0 0 1-.18.24Zm-3.15-6.65-1.1 3.77h2.2zm29.46 6.66h-1.05a.2.2 0 0 1-.17-.12l-.54-1.75h-2.81l-.52 1.75a.2.2 0 0 1-.17.12h-.82a.18.18 0 0 1-.17-.23l2.4-7.9a.2.2 0 0 1 .17-.14h1.28a.2.2 0 0 1 .17.13l2.4 7.9a.18.18 0 0 1-.17.24m-3.16-6.65-1.1 3.77h2.2zm-30.28 6.65H409a.2.2 0 0 1-.14-.07l-2.72-3.63-.3.35v3.17a.2.2 0 0 1-.18.18h-1.01a.2.2 0 0 1-.18-.18v-7.9a.2.2 0 0 1 .18-.18h1a.2.2 0 0 1 .18.18v3.17l2.86-3.29a.2.2 0 0 1 .14-.06h1a.18.18 0 0 1 .15.3l-2.96 3.4 3.2 4.27a.18.18 0 0 1-.14.28Zm0 0H409a.2.2 0 0 1-.14-.07l-2.72-3.63-.3.35v3.17a.2.2 0 0 1-.18.18h-1.01a.2.2 0 0 1-.18-.18v-7.9a.2.2 0 0 1 .18-.18h1a.2.2 0 0 1 .18.18v3.17l2.86-3.29a.2.2 0 0 1 .14-.06h1a.18.18 0 0 1 .15.3l-2.96 3.4 3.2 4.27a.18.18 0 0 1-.14.28Zm48.37 0h-1.08a.2.2 0 0 1-.15-.07l-2.72-3.63-.3.35v3.17a.2.2 0 0 1-.18.18H453a.2.2 0 0 1-.18-.18v-7.9a.2.2 0 0 1 .18-.18h1a.2.2 0 0 1 .19.18v3.17l2.87-3.29a.2.2 0 0 1 .13-.06h1.02a.18.18 0 0 1 .13.3l-2.96 3.4 3.2 4.27a.18.18 0 0 1-.14.28Zm-18.35-26.11.2.5a.5.5 0 0 1-.03.4.5.5 0 0 1-.3.29.5.5 0 0 0-.3.27l-.95 2.05a.8.8 0 0 0 .38 1.04l.41.19 1.12-2.41a.54.54 0 1 1 .98.45l-1.13 2.41 1.12.52 1.12-2.41a.54.54 0 1 1 .97.45l-1.12 2.41.41.2a.8.8 0 0 0 1.03-.38l.96-2.05a.5.5 0 0 0 .02-.4.5.5 0 0 1 .01-.42.5.5 0 0 1 .3-.27l.5-.19Zm28.49 11.83a2.6 2.6 0 0 1-3.46 1.26 2.6 2.6 0 0 1-4.41-2.68l.3-.65a2 2 0 0 0 1.7.02l-.6 1.29a1.04 1.04 0 0 0 1.77 1.08 1.56 1.56 0 0 1 1.9-.47 1.04 1.04 0 0 0 .88-1.88 1.56 1.56 0 0 1-.87-1.75 1.06 1.06 0 0 0-.57-1.17 1.04 1.04 0 0 0-1.39.5l-.53 1.15a1.56 1.56 0 0 1-2.07.75l-4.27-2 1.84-.85 3.1 1.44.52-1.14a2.6 2.6 0 0 1 4.9 1.65 2.6 2.6 0 0 1 1.26 3.45m-1.7-9.17.5.18a.54.54 0 0 1 .32.69.5.5 0 0 0 .01.4l.96 2.06a.8.8 0 0 0 1.03.37l.42-.19-1.12-2.41a.54.54 0 1 1 .97-.45l1.13 2.4 1.11-.51-1.12-2.41a.54.54 0 1 1 .97-.46l1.12 2.42.42-.2a.8.8 0 0 0 .37-1.03l-.95-2.05a.5.5 0 0 0-.3-.28.54.54 0 0 1-.32-.69l.19-.5Zm-15.44 6.61a1.56 1.56 0 0 1-2.07-.74l-.53-1.15a1.04 1.04 0 0 0-1.96.67 1.56 1.56 0 0 1-.86 1.74 1.04 1.04 0 1 0 .87 1.89 1.56 1.56 0 0 1 1.9.46 1.04 1.04 0 0 0 1.76-1.08l-.6-1.29a2.1 2.1 0 0 0 1.71-.02l.3.65a2.6 2.6 0 0 1-4.42 2.69 2.6 2.6 0 0 1-2.2-4.72 2.6 2.6 0 0 1 4.9-1.65l.53 1.14 3.71-1.73-14.37-6.7a.78.78 0 0 1 .66-1.41l15.55 7.25 15.55-7.25a.78.78 0 1 1 .66 1.4Zm12.17-11.64v3.01h-14.54v-3.02zm-5.91-9.3a1.36 1.36 0 1 1-1.77-1.3v-.46h-.8v-.81h.8v-.8h.81v.8h.8v.81h-.8v.46a1.4 1.4 0 0 1 .96 1.3m-1.84 8.78c-.62 0-2.28-3.52-.9-6.84-3.03 0-3.27 4.5-.92 6.84h-1.65c-.9 0-2.96-2.32-2.14-5.25a3.6 3.6 0 0 1 .92-1.6c-3.54-.16-3.98 4.62-.76 6.86h-1.15c-1.53 0-3.9-2.76-2.8-5.58a3.7 3.7 0 0 1 5.2-1.67 3.2 3.2 0 0 1 2.48-.46 5 5 0 0 1 1.34.59 2 2 0 0 0 .87.21 2 2 0 0 0 .86-.21 5 5 0 0 1 1.34-.59 3.2 3.2 0 0 1 2.49.46 3.7 3.7 0 0 1 5.2 1.67c1.09 2.81-1.28 5.58-2.81 5.58h-1.16c3.22-2.23 2.78-7.02-.75-6.86a3.6 3.6 0 0 1 .92 1.6c.81 2.93-1.25 5.25-2.15 5.25h-1.65c2.34-2.34 2.1-6.84-.93-6.84 1.4 3.32-.28 6.84-.89 6.84Z"/><g transform="translate(327.355 159.202)"><path fill="rgba(50,205,50,0.2)" d="M42.14 39.86h-2.87a.5.5 0 0 0-.5.5.55.55 0 0 0 .5.56h2.86a.5.5 0 0 0 .5-.56.5.5 0 0 0-.5-.5m15.2-37.03a.5.5 0 0 1-.39-.17L55.26.98a.56.56 0 1 1 .78-.78l1.7 1.68a.54.54 0 0 1 0 .79.6.6 0 0 1-.4.16m27.93 0a.5.5 0 0 1-.4-.17.54.54 0 0 1 0-.79L86.58.2a.56.56 0 0 1 .78.78l-1.7 1.69a.5.5 0 0 1-.39.16M55.65 32.5a.5.5 0 0 1-.4-.16.54.54 0 0 1 0-.79l1.71-1.68a.56.56 0 0 1 .78.78l-1.7 1.7a.6.6 0 0 1-.39.16m31.3-.01a.5.5 0 0 1-.39-.16l-1.68-1.69a.56.56 0 0 1 .78-.78l1.7 1.68a.54.54 0 0 1 0 .8.5.5 0 0 1-.4.16M63.11 3.17a.5.5 0 0 1-.44-.28L61.43.87a.57.57 0 0 1 .96-.62l1.23 2.02a.6.6 0 0 1-.17.78.4.4 0 0 1-.34.12m5.5.33a.55.55 0 0 1-.56-.45L67.6.7a.58.58 0 0 1 1.13-.22l.45 2.36a.57.57 0 0 1-.45.67Zm.17 5.67a.54.54 0 0 1-.5-.4l-.73-2.23a.57.57 0 1 1 1.07-.4l.73 2.25a.6.6 0 0 1-.34.72.4.4 0 0 1-.23.06M79.5 3.16a.5.5 0 0 1-.29-.05.55.55 0 0 1-.16-.79L80.28.3a.57.57 0 0 1 .95.62L80 2.94a.7.7 0 0 1-.5.22M74 3.5h-.11a.6.6 0 0 1-.46-.68l.46-2.34A.57.57 0 1 1 75 .7l-.45 2.36a.8.8 0 0 1-.56.45m-.16 5.66a.2.2 0 0 1-.17-.05.56.56 0 0 1-.34-.73l.73-2.25a.57.57 0 1 1 1.07.4l-.73 2.23a.6.6 0 0 1-.56.4M61.88 32.5a.5.5 0 0 1-.28-.05.55.55 0 0 1-.16-.79l1.23-2.02a.57.57 0 1 1 .95.62l-1.23 2.02a.7.7 0 0 1-.5.22m6.27.01h-.1a.6.6 0 0 1-.47-.69l.46-2.34a.57.57 0 0 1 1.12.22l-.45 2.36a.6.6 0 0 1-.56.45M68 26.67a.2.2 0 0 1-.17-.05.56.56 0 0 1-.34-.73l.73-2.25a.57.57 0 0 1 1.07.4l-.73 2.23a.6.6 0 0 1-.56.4m12.73 5.84a.5.5 0 0 1-.45-.28l-1.23-2.02a.57.57 0 0 1 .95-.62l1.24 2.02a.6.6 0 0 1-.17.78zm-6.28-.01a.55.55 0 0 1-.56-.44l-.46-2.36a.58.58 0 1 1 1.13-.22l.45 2.36a.57.57 0 0 1-.45.67.1.1 0 0 0-.11 0m.17-5.84a.54.54 0 0 1-.5-.4l-.73-2.23a.57.57 0 0 1 1.07-.4l.73 2.25a.6.6 0 0 1-.34.72.4.4 0 0 1-.23.06m6.56 0a.5.5 0 0 1-.4-.16l-1.67-1.7a.56.56 0 0 1 .78-.77l1.69 1.68a.54.54 0 0 1 0 .79.5.5 0 0 1-.4.17m3.76-18.02a.5.5 0 0 1-.45-.28.6.6 0 0 1 .17-.78l2.02-1.25a.57.57 0 1 1 .6.96l-2.01 1.23c-.16.06-.22.11-.33.11m-.28 5.51a.55.55 0 0 1-.56-.45.57.57 0 0 1 .45-.67l2.36-.45a.57.57 0 1 1 .22 1.12l-2.36.45Zm-5.72.12a.54.54 0 0 1-.5-.4.6.6 0 0 1 .34-.72l2.24-.73a.57.57 0 1 1 .4 1.06l-2.25.73a.4.4 0 0 1-.23.06m8.02 11.95a.5.5 0 0 1-.28-.06l-2.03-1.23a.57.57 0 0 1 .62-.96l2.03 1.24a.55.55 0 0 1 .17.78.7.7 0 0 1-.5.23m-.01-6.29h-.13l-2.34-.45a.57.57 0 0 1 .22-1.12l2.36.45a.6.6 0 0 1 .45.67.55.55 0 0 1-.56.45m-5.78.17a.2.2 0 0 1-.16-.06l-2.25-.73a.57.57 0 0 1 .4-1.06l2.23.73a.56.56 0 0 1 .34.72.7.7 0 0 1-.57.4M57.67 8.67a.5.5 0 0 1-.28-.06l-2.02-1.23a.57.57 0 1 1 .62-.96l2.02 1.24a.55.55 0 0 1 .17.78 1 1 0 0 1-.5.23m.28 5.49h-.13l-2.34-.45a.57.57 0 0 1 .22-1.12l2.36.45a.6.6 0 0 1 .45.67.6.6 0 0 1-.56.45m5.71.12a.2.2 0 0 1-.16-.06l-2.25-.73a.57.57 0 0 1 .4-1.06l2.23.73a.56.56 0 0 1 .34.72.7.7 0 0 1-.57.4m-8.01 11.94a.5.5 0 0 1-.45-.28.6.6 0 0 1 .17-.78l2.02-1.25a.57.57 0 0 1 .61.96l-2.02 1.23zm0-6.28a.55.55 0 0 1-.56-.45.57.57 0 0 1 .45-.67l2.36-.45a.57.57 0 1 1 .22 1.12l-2.36.45Zm5.78.17a.54.54 0 0 1-.5-.4.6.6 0 0 1 .34-.72l2.24-.73a.57.57 0 0 1 .4 1.06l-2.25.73a.4.4 0 0 1-.23.06m7.79-4.82a1 1 0 0 1-.78-.34l-1.67-1.68a1.11 1.11 0 1 1 1.56-1.57L70 13.38a1.1 1.1 0 0 1 0 1.57 1 1 0 0 1-.8.34m4.18 0a1 1 0 0 1-.78-.34 1.1 1.1 0 0 1 0-1.57l1.68-1.68a1.11 1.11 0 0 1 1.57 1.56l-1.68 1.69a1 1 0 0 1-.79.34m-5.83 5.83a1 1 0 0 1-.78-.34 1.1 1.1 0 0 1 0-1.57l1.67-1.68a1.11 1.11 0 0 1 1.58 1.56l-1.69 1.7a1 1 0 0 1-.79.33m7.52 0a1 1 0 0 1-.78-.34L72.6 19.1a1.11 1.11 0 0 1 1.56-1.57l1.68 1.68a1.1 1.1 0 0 1 0 1.57 1 1 0 0 1-.78.34"/><path fill="rgba(50,205,50,0.2)" d="m48.02 40.36 3.82-3.81a.56.56 0 0 0-.79-.79l-3.81 3.82-3.82-3.82a.56.56 0 0 0-.78.79l3.81 3.81-3.81 3.82a.54.54 0 0 0 0 .78.54.54 0 0 0 .78 0l3.82-3.81 3.81 3.81a.54.54 0 0 0 .79 0 .54.54 0 0 0 0-.78Zm13.41-13.69a.5.5 0 0 1-.4-.16.54.54 0 0 1 0-.8l1.71-1.67a.56.56 0 0 1 .78.78l-1.7 1.69a.6.6 0 0 1-.39.17M63.11 8.6a.5.5 0 0 1-.39-.16l-1.68-1.69a.56.56 0 0 1 .78-.78l1.7 1.68a.54.54 0 0 1 0 .8.6.6 0 0 1-.4.15m16.38 0a.5.5 0 0 1-.4-.16.54.54 0 0 1 0-.79l1.7-1.68a.56.56 0 0 1 .79.78l-1.7 1.7a.5.5 0 0 1-.4.15M19.86 35.71a.53.53 0 0 0-.56.56v.95a4.39 4.39 0 0 0-7.74 3.14 4.6 4.6 0 0 0 4.43 4.72 4.3 4.3 0 0 0 3.3-1.57v1a.56.56 0 0 0 1.13 0v-8.23a.56.56 0 0 0-.56-.57m-.62 4.7a3.32 3.32 0 1 1-6.62 0 3.46 3.46 0 0 1 3.3-3.58 3.4 3.4 0 0 1 3.34 3.59Zm5-7.96a.56.56 0 0 0-.56.56v.45a.6.6 0 0 0 .56.62.6.6 0 0 0 .62-.62v-.45a.66.66 0 0 0-.62-.56m0 3.25a.53.53 0 0 0-.56.56v8.25a.56.56 0 0 0 .56.56.6.6 0 0 0 .62-.56v-8.25a.6.6 0 0 0-.62-.56m11.61.01a.53.53 0 0 0-.56.56v.95a4.39 4.39 0 0 0-7.74 3.14 4.6 4.6 0 0 0 4.43 4.72 4.3 4.3 0 0 0 3.3-1.57v1a.56.56 0 0 0 .57.57.6.6 0 0 0 .56-.56v-8.25a.56.56 0 0 0-.56-.56m-.62 4.7a3.32 3.32 0 1 1-6.62 0 3.46 3.46 0 0 1 3.3-3.58 3.4 3.4 0 0 1 3.34 3.59Zm-26.87-4.7a.6.6 0 0 0-.62.56v.95a4.4 4.4 0 0 0-3.3-1.57 4.66 4.66 0 0 0 0 9.31 4.4 4.4 0 0 0 3.3-1.51v.73a3.23 3.23 0 0 1-3.3 3.25 4 4 0 0 1-1.35-.28 4 4 0 0 1-1.07-.73.6.6 0 0 0-.4-.22.6.6 0 0 0-.44.17.6.6 0 0 0-.06.78 5 5 0 0 0 1.3.95l.05.06c.05 0 .05 0 .11.06l.11.05c.06 0 .06.06.11.06a4 4 0 0 0 1.58.28 5 5 0 0 0 .9-.11h.05c.28-.06.56-.17.79-.23a4 4 0 0 0 .67-.39l.17-.17.05-.05a1 1 0 0 0 .28-.23l.34-.33a.2.2 0 0 0 .06-.12 4.5 4.5 0 0 0 1.06-2.8v-7.91c.17-.28-.11-.56-.4-.56m-.55 4.64a3.3 3.3 0 1 1-3.31-3.53 3.44 3.44 0 0 1 3.31 3.53"/></g><path fill="rgba(50,205,50,0.2)" d="m358.02 248.14-7.05-2.94a1.8 1.8 0 0 0-1.35 0l-7.05 2.94a1.8 1.8 0 0 0-1.08 1.62c0 7.28 4.2 12.32 8.12 13.95a1.8 1.8 0 0 0 1.36 0c3.14-1.3 8.13-5.83 8.13-13.95a1.8 1.8 0 0 0-1.08-1.62m-7.72 13.3v-13.99l6.45 2.7c-.12 5.55-3.02 9.58-6.45 11.28m24.19-8.94h2.81v5.4a8 8 0 0 1-2.5 1.25 10 10 0 0 1-2.87.44 8 8 0 0 1-3.73-.89 6.6 6.6 0 0 1-2.6-2.45 7 7 0 0 1-.93-3.54 7 7 0 0 1 .94-3.54 6.6 6.6 0 0 1 2.6-2.46 8 8 0 0 1 3.77-.88 8 8 0 0 1 3.17.59 6 6 0 0 1 2.4 1.7l-1.98 1.84a4.6 4.6 0 0 0-3.44-1.5 5 5 0 0 0-2.26.53 4 4 0 0 0-1.54 1.5 4.4 4.4 0 0 0-.55 2.22 4.4 4.4 0 0 0 .55 2.2 4 4 0 0 0 1.53 1.5 4.5 4.5 0 0 0 2.24.55 5 5 0 0 0 2.39-.57Zm5.66-6.44h6.04a8.5 8.5 0 0 1 3.83.82 6 6 0 0 1 2.59 2.33 6.6 6.6 0 0 1 .92 3.5 6.6 6.6 0 0 1-.92 3.5 6 6 0 0 1-2.58 2.32 8.5 8.5 0 0 1-3.84.83h-6.04Zm5.9 10.77a4.5 4.5 0 0 0 3.18-1.11 4 4 0 0 0 1.18-3.01 4 4 0 0 0-1.19-3.01 4.5 4.5 0 0 0-3.18-1.11h-2.81v8.24Zm15.55-10.77a7 7 0 0 1 3.07.59 4.6 4.6 0 0 1 2 1.67 4.6 4.6 0 0 1 .7 2.56 4.6 4.6 0 0 1-.7 2.56 4.5 4.5 0 0 1-2 1.67 7.5 7.5 0 0 1-3.07.58h-2.68v3.67h-3.07v-13.3Zm-.17 7.12a3.2 3.2 0 0 0 2.11-.6 2.1 2.1 0 0 0 .72-1.7 2.1 2.1 0 0 0-.72-1.72 3.2 3.2 0 0 0-2.1-.6h-2.51v4.62Zm16.6 6.18-2.56-3.7h-2.83v3.7h-3.08v-13.3h5.76a7 7 0 0 1 3.07.59 4.6 4.6 0 0 1 2 1.67 4.6 4.6 0 0 1 .7 2.56 4.5 4.5 0 0 1-.7 2.56 4.5 4.5 0 0 1-2.03 1.64l2.98 4.28Zm-.05-8.48a2.1 2.1 0 0 0-.72-1.71 3.2 3.2 0 0 0-2.11-.6h-2.5v4.63h2.5a3.2 3.2 0 0 0 2.1-.6 2.1 2.1 0 0 0 .73-1.72m-231.48 63.5-7.04-2.94a1.8 1.8 0 0 0-1.36 0l-7.04 2.94a1.8 1.8 0 0 0-1.1 1.61c0 7.28 4.2 12.32 8.13 13.95a1.8 1.8 0 0 0 1.35 0c3.15-1.3 8.13-5.83 8.13-13.95a1.8 1.8 0 0 0-1.08-1.62m-7.72 13.3v-13.98l6.46 2.7c-.13 5.54-3.02 9.57-6.46 11.28m24.2-8.94h2.81v5.4a8 8 0 0 1-2.5 1.25 10 10 0 0 1-2.88.44 8 8 0 0 1-3.72-.89 6.6 6.6 0 0 1-2.6-2.45 7 7 0 0 1-.94-3.54 7 7 0 0 1 .94-3.54 6.6 6.6 0 0 1 2.61-2.45 8 8 0 0 1 3.77-.89 8 8 0 0 1 3.17.6 6 6 0 0 1 2.4 1.7l-1.99 1.83a4.6 4.6 0 0 0-3.44-1.5 5 5 0 0 0-2.26.53 4 4 0 0 0-1.54 1.5 4.4 4.4 0 0 0-.55 2.22 4.4 4.4 0 0 0 .55 2.2 4 4 0 0 0 1.53 1.51 4.5 4.5 0 0 0 2.23.54 5 5 0 0 0 2.4-.57Zm5.66-6.44h6.04a8.5 8.5 0 0 1 3.83.83 6 6 0 0 1 2.58 2.32 6.6 6.6 0 0 1 .92 3.5 6.6 6.6 0 0 1-.92 3.5 6 6 0 0 1-2.58 2.32 8.5 8.5 0 0 1-3.83.83h-6.04Zm5.9 10.77a4.5 4.5 0 0 0 3.17-1.1 4 4 0 0 0 1.2-3.02 4 4 0 0 0-1.2-3 4.5 4.5 0 0 0-3.18-1.12h-2.82v8.24Zm15.55-10.77a7 7 0 0 1 3.07.6 4.6 4.6 0 0 1 2 1.66 4.6 4.6 0 0 1 .7 2.57 4.6 4.6 0 0 1-.7 2.55 4.5 4.5 0 0 1-2 1.67 7.5 7.5 0 0 1-3.07.58h-2.68v3.67h-3.08v-13.3Zm-.17 7.12a3.2 3.2 0 0 0 2.1-.6 2.1 2.1 0 0 0 .73-1.7 2.1 2.1 0 0 0-.72-1.7 3.2 3.2 0 0 0-2.1-.6h-2.5v4.6Zm16.6 6.18-2.55-3.7h-2.83v3.7h-3.08v-13.3h5.76a7 7 0 0 1 3.07.6 4.6 4.6 0 0 1 2 1.66 4.6 4.6 0 0 1 .7 2.57 4.5 4.5 0 0 1-.7 2.55 4.5 4.5 0 0 1-2.04 1.64l2.98 4.28Zm-.05-8.47a2.1 2.1 0 0 0-.73-1.72 3.2 3.2 0 0 0-2.1-.6h-2.5v4.63h2.5a3.2 3.2 0 0 0 2.1-.6 2.1 2.1 0 0 0 .73-1.7m244.74 14.13a4 4 0 0 0-1.75-.42c-1.5 0-2.03.56-2.03 2.14v2.42c0 1.4.48 1.92 1.75 1.92 1.13 0 1.53-.38 1.53-1.43v-1.3h-1.03a.2.2 0 0 1-.18-.2v-.6a.2.2 0 0 1 .18-.19h2.15a.2.2 0 0 1 .18.18v1.9c0 1.3-.33 2.64-2.81 2.64-2.16 0-3.17-.89-3.17-2.79v-2.59c0-1.64.4-3.16 3.35-3.16a4 4 0 0 1 2.3.57.2.2 0 0 1 .06.23l-.3.6a.2.2 0 0 1-.22.08m-28.6 7.06c-2.56 0-3.1-1.3-3.1-2.37v-3.32c0-1.96.96-2.84 3.06-2.84q3.07 0 3.07 2.8v3.01c0 2.45-1.73 2.73-3.03 2.73m.02-7.43c-1.27 0-1.78.53-1.78 1.82v2.94c0 1.47 1.47 1.55 1.76 1.55.87 0 1.67-.2 1.67-1.76v-2.78q0-1.78-1.65-1.77m44.22 7.28h-1a.2.2 0 0 1-.18-.18v-7.04h-2.13a.2.2 0 0 1-.17-.17v-.7a.2.2 0 0 1 .18-.18h5.62a.2.2 0 0 1 .19.18v.7a.2.2 0 0 1-.2.17h-2.13V338a.2.2 0 0 1-.18.18m-11.67 0h-1.01a.2.2 0 0 1-.18-.18v-7.9a.2.2 0 0 1 .18-.2h1a.2.2 0 0 1 .18.18v7.9a.2.2 0 0 1-.17.2m-10.93 0h-4.43a.2.2 0 0 1-.18-.18v-7.9a.2.2 0 0 1 .18-.2h4.25a.2.2 0 0 1 .18.18v.67a.2.2 0 0 1-.18.18h-3.14v2.4h2.6a.2.2 0 0 1 .18.18v.7a.2.2 0 0 1-.18.16h-2.58v2.72h3.3a.2.2 0 0 1 .18.18v.72a.17.17 0 0 1-.18.18Zm18.05 0h-4.43a.2.2 0 0 1-.18-.18v-7.9a.2.2 0 0 1 .18-.2h4.25a.2.2 0 0 1 .18.18v.67a.2.2 0 0 1-.18.18h-3.14v2.4h2.6a.2.2 0 0 1 .18.18v.7a.2.2 0 0 1-.18.16H499v2.72h3.3a.2.2 0 0 1 .18.18v.72a.2.2 0 0 1-.18.18Zm-30.1 0h-4.28a.2.2 0 0 1-.17-.18v-7.9a.2.2 0 0 1 .17-.2h1a.2.2 0 0 1 .19.18v7.06h3.09a.2.2 0 0 1 .17.18v.67a.2.2 0 0 1-.18.18Zm5.95 0h-4.28a.2.2 0 0 1-.18-.18v-7.9a.2.2 0 0 1 .18-.2h1a.2.2 0 0 1 .19.18v7.06h3.08a.2.2 0 0 1 .18.18v.67a.2.2 0 0 1-.18.18Zm-27.27 0h-1.06a.2.2 0 0 1-.16-.1l-1.63-3.34h-1.43v3.25a.2.2 0 0 1-.18.18h-1.02a.2.2 0 0 1-.18-.18v-7.89a.2.2 0 0 1 .18-.18h2.5c1.98 0 3.1.88 3.1 2.4a2.2 2.2 0 0 1-1.65 2.15l1.7 3.45a.18.18 0 0 1-.17.26m-4.27-7.24v2.72h1.6a1.27 1.27 0 0 0 1.4-1.34c0-1.2-1.1-1.38-1.75-1.38Zm-20.7-1.02h-1.1a.2.2 0 0 0-.14.1l-2.18 3.61-2.17-3.62a.2.2 0 0 0-.15-.1h-1.1a.2.2 0 0 0-.18.2v7.9a.2.2 0 0 0 .18.17h1a.2.2 0 0 0 .19-.18v-6.12l1.9 3.32a.2.2 0 0 0 .15.1h.38a.2.2 0 0 0 .16-.1l1.89-3.32v6.11a.2.2 0 0 0 .18.18h1a.2.2 0 0 0 .19-.18v-7.9a.2.2 0 0 0-.2-.18m9.64 0h-1.1a.2.2 0 0 0-.16.1l-2.17 3.61-2.17-3.6a.2.2 0 0 0-.16-.1h-1.1a.2.2 0 0 0-.18.18v7.9a.2.2 0 0 0 .18.18h1a.2.2 0 0 0 .19-.18v-6.12l1.9 3.32a.2.2 0 0 0 .15.1h.38a.2.2 0 0 0 .16-.1l1.9-3.32V338a.2.2 0 0 0 .18.18h1a.2.2 0 0 0 .19-.18v-7.9a.2.2 0 0 0-.2-.19Zm-18.34 8.27h-1.05a.2.2 0 0 1-.17-.12l-.54-1.75h-2.81l-.52 1.75a.2.2 0 0 1-.17.12h-.82a.18.18 0 0 1-.17-.23l2.4-7.9a.2.2 0 0 1 .17-.14h1.27a.2.2 0 0 1 .18.13l2.4 7.9a.18.18 0 0 1-.18.24Zm-3.15-6.65-1.1 3.77h2.2zm29.46 6.66h-1.05a.2.2 0 0 1-.17-.12l-.54-1.75h-2.81l-.52 1.75a.2.2 0 0 1-.17.12h-.82a.18.18 0 0 1-.17-.23l2.4-7.9a.2.2 0 0 1 .17-.14h1.28a.2.2 0 0 1 .17.13l2.4 7.9a.18.18 0 0 1-.17.24m-3.16-6.65-1.1 3.77h2.2zm-30.28 6.64H409a.2.2 0 0 1-.14-.07l-2.72-3.63-.3.35V338a.2.2 0 0 1-.18.18h-1.01a.2.2 0 0 1-.18-.18v-7.9a.2.2 0 0 1 .18-.18h1a.2.2 0 0 1 .18.18v3.17l2.86-3.29a.2.2 0 0 1 .14-.06h1a.18.18 0 0 1 .15.3l-2.96 3.4 3.2 4.27a.18.18 0 0 1-.14.28Zm0 0H409a.2.2 0 0 1-.14-.07l-2.72-3.63-.3.35V338a.2.2 0 0 1-.18.18h-1.01a.2.2 0 0 1-.18-.18v-7.9a.2.2 0 0 1 .18-.18h1a.2.2 0 0 1 .18.18v3.17l2.86-3.29a.2.2 0 0 1 .14-.06h1a.18.18 0 0 1 .15.3l-2.96 3.4 3.2 4.27a.18.18 0 0 1-.14.28Zm48.37 0h-1.08a.2.2 0 0 1-.15-.07l-2.72-3.63-.3.35V338a.2.2 0 0 1-.18.18H453a.2.2 0 0 1-.18-.18v-7.9a.2.2 0 0 1 .18-.18h1a.2.2 0 0 1 .19.18v3.17l2.87-3.29a.2.2 0 0 1 .13-.06h1.02a.18.18 0 0 1 .13.3l-2.96 3.4 3.2 4.27a.18.18 0 0 1-.14.28Zm-18.34-26.1.18.5a.5.5 0 0 1-.01.4.5.5 0 0 1-.3.28.5.5 0 0 0-.3.28l-.96 2.04a.8.8 0 0 0 .38 1.04l.4.2 1.14-2.42a.54.54 0 1 1 .97.45l-1.14 2.41 1.12.52 1.13-2.4a.54.54 0 1 1 .97.44l-1.13 2.42.4.2a.8.8 0 0 0 1.05-.39l.95-2.04a.5.5 0 0 0 .02-.4.5.5 0 0 1 0-.42.5.5 0 0 1 .3-.28l.5-.19Zm28.48 11.83a2.6 2.6 0 0 1-3.46 1.26 2.6 2.6 0 0 1-4.41-2.69l.3-.65a2 2 0 0 0 1.7.02l-.6 1.3a1.04 1.04 0 0 0 1.77 1.07 1.56 1.56 0 0 1 1.9-.46 1.05 1.05 0 0 0 .88-1.9 1.56 1.56 0 0 1-.86-1.73 1.06 1.06 0 0 0-.58-1.18 1.04 1.04 0 0 0-1.4.51l-.52 1.15a1.56 1.56 0 0 1-2.07.74l-4.27-2 1.84-.85 3.1 1.44.52-1.13a2.6 2.6 0 0 1 4.9 1.65 2.6 2.6 0 0 1 1.26 3.45m-1.7-9.18.5.18a.54.54 0 0 1 .32.7.5.5 0 0 0 0 .4l.97 2.05a.8.8 0 0 0 1.03.38l.42-.2-1.12-2.4a.54.54 0 1 1 .97-.46l1.13 2.41 1.1-.52-1.11-2.4a.54.54 0 1 1 .97-.46l1.13 2.4.4-.18a.8.8 0 0 0 .39-1.04l-.96-2.05a.5.5 0 0 0-.3-.28.54.54 0 0 1-.32-.68l.19-.5Zm-15.44 6.6a1.56 1.56 0 0 1-2.07-.74l-.53-1.15a1.04 1.04 0 0 0-1.96.67 1.56 1.56 0 0 1-.86 1.74 1.04 1.04 0 1 0 .87 1.9 1.56 1.56 0 0 1 1.9.45 1.04 1.04 0 0 0 1.76-1.08l-.6-1.28a2 2 0 0 0 1.7-.03l.3.65a2.6 2.6 0 0 1-4.4 2.7 2.6 2.6 0 0 1-2.2-4.72 2.6 2.6 0 0 1 4.89-1.66l.53 1.14 3.7-1.73-14.35-6.7a.78.78 0 0 1 .65-1.4l15.55 7.24 15.55-7.25a.78.78 0 1 1 .66 1.4Zm12.17-11.64v3.02h-14.54v-3.02zm-5.91-9.3a1.36 1.36 0 1 1-1.76-1.3v-.46h-.81v-.8h.8v-.8h.8v.8h.82v.81h-.8v.46a1.4 1.4 0 0 1 .95 1.3Zm-1.84 8.78c-.62 0-2.28-3.5-.9-6.83-3.02 0-3.27 4.48-.92 6.83h-1.65c-.9 0-2.96-2.3-2.14-5.25a3.6 3.6 0 0 1 .92-1.6c-3.54-.16-3.98 4.62-.76 6.86h-1.15c-1.53 0-3.9-2.76-2.8-5.58a3.7 3.7 0 0 1 5.2-1.67 3.2 3.2 0 0 1 2.48-.46 5 5 0 0 1 1.35.6 2 2 0 0 0 .86.2 2 2 0 0 0 .86-.2 5 5 0 0 1 1.34-.6 3.2 3.2 0 0 1 2.49.46 3.7 3.7 0 0 1 5.2 1.67c1.09 2.82-1.28 5.58-2.81 5.58h-1.15c3.2-2.23 2.78-7.02-.76-6.86a3.6 3.6 0 0 1 .92 1.6c.8 2.94-1.25 5.25-2.14 5.25h-1.66c2.34-2.34 2.1-6.83-.93-6.83 1.4 3.31-.27 6.83-.9 6.83Z"/><g transform="translate(288.955 286.834)"><path fill="rgba(50,205,50,0.2)" d="M42.14 39.86h-2.87a.5.5 0 0 0-.5.5.55.55 0 0 0 .5.56h2.86a.5.5 0 0 0 .5-.56.5.5 0 0 0-.5-.5m15.2-37.03a.5.5 0 0 1-.39-.17L55.26.98a.56.56 0 1 1 .78-.78l1.7 1.68a.54.54 0 0 1 0 .79.6.6 0 0 1-.4.16m27.93 0a.5.5 0 0 1-.4-.17.54.54 0 0 1 0-.79L86.58.2a.56.56 0 0 1 .78.78l-1.7 1.69a.5.5 0 0 1-.39.16M55.65 32.5a.5.5 0 0 1-.4-.16.54.54 0 0 1 0-.79l1.71-1.68a.56.56 0 0 1 .78.78l-1.7 1.7a.6.6 0 0 1-.39.16m31.3-.01a.5.5 0 0 1-.39-.16l-1.68-1.69a.56.56 0 0 1 .78-.78l1.7 1.68a.54.54 0 0 1 0 .8.5.5 0 0 1-.4.16M63.11 3.17a.5.5 0 0 1-.44-.28L61.43.87a.57.57 0 0 1 .96-.62l1.23 2.02a.6.6 0 0 1-.17.78.4.4 0 0 1-.34.12m5.5.33a.55.55 0 0 1-.56-.45L67.6.7a.58.58 0 0 1 1.13-.22l.45 2.36a.57.57 0 0 1-.45.67Zm.17 5.67a.54.54 0 0 1-.5-.4l-.73-2.23a.57.57 0 1 1 1.07-.4l.73 2.25a.6.6 0 0 1-.34.72.4.4 0 0 1-.23.06M79.5 3.16a.5.5 0 0 1-.29-.05.55.55 0 0 1-.16-.79L80.28.3a.57.57 0 0 1 .95.62L80 2.94a.7.7 0 0 1-.5.22M74 3.5h-.11a.6.6 0 0 1-.46-.68l.46-2.34A.57.57 0 1 1 75 .7l-.45 2.36a.8.8 0 0 1-.56.45m-.16 5.66a.2.2 0 0 1-.17-.05.56.56 0 0 1-.34-.73l.73-2.25a.57.57 0 1 1 1.07.4l-.73 2.23a.6.6 0 0 1-.56.4M61.88 32.5a.5.5 0 0 1-.28-.05.55.55 0 0 1-.16-.79l1.23-2.02a.57.57 0 1 1 .95.62l-1.23 2.02a.7.7 0 0 1-.5.22m6.27.01h-.1a.6.6 0 0 1-.47-.69l.46-2.34a.57.57 0 0 1 1.12.22l-.45 2.36a.6.6 0 0 1-.56.45M68 26.67a.2.2 0 0 1-.17-.05.56.56 0 0 1-.34-.73l.73-2.25a.57.57 0 0 1 1.07.4l-.73 2.23a.6.6 0 0 1-.56.4m12.73 5.84a.5.5 0 0 1-.45-.28l-1.23-2.02a.57.57 0 0 1 .95-.62l1.24 2.02a.6.6 0 0 1-.17.78zm-6.28-.01a.55.55 0 0 1-.56-.44l-.46-2.36a.58.58 0 1 1 1.13-.22l.45 2.36a.57.57 0 0 1-.45.67.1.1 0 0 0-.11 0m.17-5.84a.54.54 0 0 1-.5-.4l-.73-2.23a.57.57 0 0 1 1.07-.4l.73 2.25a.6.6 0 0 1-.34.72.4.4 0 0 1-.23.06m6.56 0a.5.5 0 0 1-.4-.16l-1.67-1.7a.56.56 0 0 1 .78-.77l1.69 1.68a.54.54 0 0 1 0 .79.5.5 0 0 1-.4.17m3.76-18.02a.5.5 0 0 1-.45-.28.6.6 0 0 1 .17-.78l2.02-1.25a.57.57 0 1 1 .6.96l-2.01 1.23c-.16.06-.22.11-.33.11m-.28 5.51a.55.55 0 0 1-.56-.45.57.57 0 0 1 .45-.67l2.36-.45a.57.57 0 1 1 .22 1.12l-2.36.45Zm-5.72.12a.54.54 0 0 1-.5-.4.6.6 0 0 1 .34-.72l2.24-.73a.57.57 0 1 1 .4 1.06l-2.25.73a.4.4 0 0 1-.23.06m8.02 11.95a.5.5 0 0 1-.28-.06l-2.03-1.23a.57.57 0 0 1 .62-.96l2.03 1.24a.55.55 0 0 1 .17.78.7.7 0 0 1-.5.23m-.01-6.29h-.13l-2.34-.45a.57.57 0 0 1 .22-1.12l2.36.45a.6.6 0 0 1 .45.67.55.55 0 0 1-.56.45m-5.78.17a.2.2 0 0 1-.16-.06l-2.25-.73a.57.57 0 0 1 .4-1.06l2.23.73a.56.56 0 0 1 .34.72.7.7 0 0 1-.57.4M57.67 8.67a.5.5 0 0 1-.28-.06l-2.02-1.23a.57.57 0 1 1 .62-.96l2.02 1.24a.55.55 0 0 1 .17.78 1 1 0 0 1-.5.23m.28 5.49h-.13l-2.34-.45a.57.57 0 0 1 .22-1.12l2.36.45a.6.6 0 0 1 .45.67.6.6 0 0 1-.56.45m5.71.12a.2.2 0 0 1-.16-.06l-2.25-.73a.57.57 0 0 1 .4-1.06l2.23.73a.56.56 0 0 1 .34.72.7.7 0 0 1-.57.4m-8.01 11.94a.5.5 0 0 1-.45-.28.6.6 0 0 1 .17-.78l2.02-1.25a.57.57 0 0 1 .61.96l-2.02 1.23zm0-6.28a.55.55 0 0 1-.56-.45.57.57 0 0 1 .45-.67l2.36-.45a.57.57 0 1 1 .22 1.12l-2.36.45Zm5.78.17a.54.54 0 0 1-.5-.4.6.6 0 0 1 .34-.72l2.24-.73a.57.57 0 0 1 .4 1.06l-2.25.73a.4.4 0 0 1-.23.06m7.79-4.82a1 1 0 0 1-.78-.34l-1.67-1.68a1.11 1.11 0 1 1 1.56-1.57L70 13.38a1.1 1.1 0 0 1 0 1.57 1 1 0 0 1-.8.34m4.18 0a1 1 0 0 1-.78-.34 1.1 1.1 0 0 1 0-1.57l1.68-1.68a1.11 1.11 0 0 1 1.57 1.56l-1.68 1.69a1 1 0 0 1-.79.34m-5.83 5.83a1 1 0 0 1-.78-.34 1.1 1.1 0 0 1 0-1.57l1.67-1.68a1.11 1.11 0 0 1 1.58 1.56l-1.69 1.7a1 1 0 0 1-.79.33m7.52 0a1 1 0 0 1-.78-.34L72.6 19.1a1.11 1.11 0 0 1 1.56-1.57l1.68 1.68a1.1 1.1 0 0 1 0 1.57 1 1 0 0 1-.78.34"/><path fill="rgba(50,205,50,0.2)" d="m48.02 40.36 3.82-3.81a.56.56 0 0 0-.79-.79l-3.81 3.82-3.82-3.82a.56.56 0 0 0-.78.79l3.81 3.81-3.81 3.82a.54.54 0 0 0 0 .78.54.54 0 0 0 .78 0l3.82-3.81 3.81 3.81a.54.54 0 0 0 .79 0 .54.54 0 0 0 0-.78Zm13.41-13.69a.5.5 0 0 1-.4-.16.54.54 0 0 1 0-.8l1.71-1.67a.56.56 0 0 1 .78.78l-1.7 1.69a.6.6 0 0 1-.39.17M63.11 8.6a.5.5 0 0 1-.39-.16l-1.68-1.69a.56.56 0 0 1 .78-.78l1.7 1.68a.54.54 0 0 1 0 .8.6.6 0 0 1-.4.15m16.38 0a.5.5 0 0 1-.4-.16.54.54 0 0 1 0-.79l1.7-1.68a.56.56 0 0 1 .79.78l-1.7 1.7a.5.5 0 0 1-.4.15M19.86 35.71a.53.53 0 0 0-.56.56v.95a4.39 4.39 0 0 0-7.74 3.14 4.6 4.6 0 0 0 4.43 4.72 4.3 4.3 0 0 0 3.3-1.57v1a.56.56 0 0 0 1.13 0v-8.23a.56.56 0 0 0-.56-.57m-.62 4.7a3.32 3.32 0 1 1-6.62 0 3.46 3.46 0 0 1 3.3-3.58 3.4 3.4 0 0 1 3.34 3.59Zm5-7.96a.56.56 0 0 0-.56.56v.45a.6.6 0 0 0 .56.62.6.6 0 0 0 .62-.62v-.45a.66.66 0 0 0-.62-.56m0 3.25a.53.53 0 0 0-.56.56v8.25a.56.56 0 0 0 .56.56.6.6 0 0 0 .62-.56v-8.25a.6.6 0 0 0-.62-.56m11.61.01a.53.53 0 0 0-.56.56v.95a4.39 4.39 0 0 0-7.74 3.14 4.6 4.6 0 0 0 4.43 4.72 4.3 4.3 0 0 0 3.3-1.57v1a.56.56 0 0 0 .57.57.6.6 0 0 0 .56-.56v-8.25a.56.56 0 0 0-.56-.56m-.62 4.7a3.32 3.32 0 1 1-6.62 0 3.46 3.46 0 0 1 3.3-3.58 3.4 3.4 0 0 1 3.34 3.59Zm-26.87-4.7a.6.6 0 0 0-.62.56v.95a4.4 4.4 0 0 0-3.3-1.57 4.66 4.66 0 0 0 0 9.31 4.4 4.4 0 0 0 3.3-1.51v.73a3.23 3.23 0 0 1-3.3 3.25 4 4 0 0 1-1.35-.28 4 4 0 0 1-1.07-.73.6.6 0 0 0-.4-.22.6.6 0 0 0-.44.17.6.6 0 0 0-.06.78 5 5 0 0 0 1.3.95l.05.06c.05 0 .05 0 .11.06l.11.05c.06 0 .06.06.11.06a4 4 0 0 0 1.58.28 5 5 0 0 0 .9-.11h.05c.28-.06.56-.17.79-.23a4 4 0 0 0 .67-.39l.17-.17.05-.05a1 1 0 0 0 .28-.23l.34-.33a.2.2 0 0 0 .06-.12 4.5 4.5 0 0 0 1.06-2.8v-7.91c.17-.28-.11-.56-.4-.56m-.55 4.64a3.3 3.3 0 1 1-3.31-3.53 3.44 3.44 0 0 1 3.31 3.53"/></g></g></g></svg>