<svg xmlns="http://www.w3.org/2000/svg" xmlns:xlink="http://www.w3.org/1999/xlink" width="350" height="200" viewBox="0 0 350 200"><defs><linearGradient id="linear-gradient" x1="0.171" x2="0.787" y1="1.229" y2="-0.047" gradientUnits="objectBoundingBox"><stop offset="0.511" stop-color="#fff"/><stop offset="1" stop-color="#fff" stop-opacity="0.302"/></linearGradient></defs><g id="Group_573" transform="translate(-1555 -228)"><g id="Group_572"><g id="safespring-dbaas" transform="translate(1355 -14)"><path id="Rectangle_285" fill="rgba(15,3,121,0.1)" d="M0 0h350v200H0z" transform="translate(200 242)"/></g><g id="ccx_logo" transform="translate(1643.019 283.098)"><path id="Path_5533" fill="#b80b7b" d="M.82 24.77A15.66 15.66 0 0 1 16.48 9.1h40.27A15.66 15.66 0 0 1 72.4 24.77v40.27A15.66 15.66 0 0 1 56.75 80.7H16.48A15.66 15.66 0 0 1 .82 65.04Z"/><path id="Path_5534" fill="#0a1250" d="M129.9 71.79a18 18 0 0 1-8.46-1.97 16 16 0 0 1-5.85-5.43 14.6 14.6 0 0 1-2.15-7.88 14.3 14.3 0 0 1 2.15-7.81 15.5 15.5 0 0 1 5.85-5.5 17.3 17.3 0 0 1 8.47-2.02h4.59V49h-4.24a7.6 7.6 0 0 0-4 1.01 7 7 0 0 0-2.62 2.69 8 8 0 0 0-.9 3.82 8 8 0 0 0 .9 3.88 7.4 7.4 0 0 0 2.62 2.68 8 8 0 0 0 4 .96h4.24v7.75Zm23.58 0a18 18 0 0 1-8.47-1.97 16 16 0 0 1-5.85-5.43A14.6 14.6 0 0 1 137 56.5a14.3 14.3 0 0 1 2.15-7.81 15.5 15.5 0 0 1 5.85-5.5 17.3 17.3 0 0 1 8.47-2.02h4.6V49h-4.25a7.6 7.6 0 0 0-4 1.01 7 7 0 0 0-2.62 2.69 8 8 0 0 0-.9 3.82 8 8 0 0 0 .9 3.88 7.4 7.4 0 0 0 2.63 2.68 8 8 0 0 0 4 .96h4.23v7.75Z" transform="translate(-21.107 -6.011)"/><path id="Path_5535" fill="#0a1250" d="m182.88 42.14 22.43 30.58h-10.38l-22.5-30.58Z" transform="translate(-32.163 -6.192)"/><path id="Path_5536" fill="#0a1250" d="m205.31 42.14-22.5 30.58h-10.37l22.43-30.58Z" transform="translate(-32.163 -6.192)"/><path id="Path_5537" fill="url(#linear-gradient)" d="M25.9 61.77a4.97 4.97 0 0 0 7.03 7.04l7.88-7.9a9.9 9.9 0 0 0-14.06 0Z" transform="translate(-4.428 -9.161)"/><path id="Path_5538" fill="#fff" fill-rule="evenodd" d="m48.07 34.43-7.78 7.78-5.51-5.52a8.2 8.2 0 0 0-11.58 0l-1.28 1.27 11.31 11.31-7.77 7.77a5 5 0 0 0-.49.56 5 5 0 0 1 .46-.52l.86-.86a9.9 9.9 0 0 1 14.06 0l-7.89 7.9a5 5 0 0 1-2.52 1.36 5 5 0 0 0 2.58-1.37l7.77-7.77 5.52 5.52a8.2 8.2 0 0 0 11.58 0l1.28-1.28-11.31-11.31 7.77-7.78a5 5 0 1 0-7.06-7.06" transform="translate(-3.956 -4.472)"/></g></g></g></svg>