<svg xmlns="http://www.w3.org/2000/svg" width="350" height="200" viewBox="0 0 350 200"><g transform="translate(-200 -242)"><path fill="rgba(15,3,121,0.1)" d="M200 242h350v200H200z"/><g transform="translate(296 316.152)"><rect width="30.895" height="8.888" fill="#10037d" rx="4.444" transform="translate(114.692 41.96)"/><path fill="#110389" d="M14.9 44.05q-6.97 0-10.81-3.58Q.3 36.88.05 30.37 0 29 0 25.91q0-3.13.05-4.55.25-6.47 4.1-10.05Q8.02 7.68 14.9 7.68a18 18 0 0 1 7.83 1.57 12 12 0 0 1 5.15 4.19 11 11 0 0 1 1.92 5.96v.1a1 1 0 0 1-.35.7 1 1 0 0 1-.7.26h-4.8a1.4 1.4 0 0 1-.92-.25 2 2 0 0 1-.5-.96 7.3 7.3 0 0 0-2.68-4.45 8.5 8.5 0 0 0-5-1.31q-7.27 0-7.57 8.13-.06 1.36-.06 4.2t.06 4.29q.3 8.13 7.57 8.13a8.5 8.5 0 0 0 5-1.31 7.2 7.2 0 0 0 2.68-4.45 1.7 1.7 0 0 1 .46-.96 1.6 1.6 0 0 1 .96-.25h4.8a1 1 0 0 1 .75.3.8.8 0 0 1 .3.76 11 11 0 0 1-1.92 6 12.6 12.6 0 0 1-5.15 4.2 19 19 0 0 1-7.83 1.52m34.54 0q-6.97 0-10.81-3.58-3.8-3.59-4.04-10.1-.06-1.37-.06-4.45 0-3.13.05-4.55.26-6.46 4.1-10.05 3.89-3.64 10.76-3.64a18 18 0 0 1 7.83 1.57 12 12 0 0 1 5.15 4.19 11 11 0 0 1 1.92 5.96v.1a1 1 0 0 1-.35.7 1 1 0 0 1-.7.26h-4.8a1.4 1.4 0 0 1-.92-.25 2 2 0 0 1-.5-.96 7.3 7.3 0 0 0-2.68-4.45 8.5 8.5 0 0 0-5-1.31q-7.28 0-7.58 8.13-.05 1.36-.05 4.2t.05 4.29q.3 8.13 7.58 8.13a8.5 8.5 0 0 0 5-1.31 7.2 7.2 0 0 0 2.67-4.45 1.7 1.7 0 0 1 .46-.96 1.6 1.6 0 0 1 .96-.25h4.8a1 1 0 0 1 .76.3.8.8 0 0 1 .3.76 11 11 0 0 1-1.92 6 12.6 12.6 0 0 1-5.16 4.2 19 19 0 0 1-7.82 1.52m18.13-.5a1.04 1.04 0 0 1-1.06-1.06 1.4 1.4 0 0 1 .15-.6L77.98 25.5 67.37 9.85a1 1 0 0 1-.15-.6 1.04 1.04 0 0 1 1.06-1.06h5.15a1.9 1.9 0 0 1 1.57.96l7.43 10.9 7.47-10.9a1.9 1.9 0 0 1 1.57-.97h4.9a1.04 1.04 0 0 1 1.06 1.07 1 1 0 0 1-.2.6L86.67 25.51l11.31 16.37a2 2 0 0 1 .2.6 1 1 0 0 1-.35.77 1 1 0 0 1-.7.3h-5.36a1.7 1.7 0 0 1-1.51-.91l-8.09-11.42-7.93 11.42a1.9 1.9 0 0 1-1.56.9Z"/><path fill="#0f0379" d="M119.15 50.49a5.7 5.7 0 0 1-4.9-2.83L103.2 28.5a5.7 5.7 0 0 1 0-5.66l11.06-19.16a5.7 5.7 0 0 1 4.9-2.83h22.13a5.7 5.7 0 0 1 4.9 2.83l11.06 19.16a5.7 5.7 0 0 1 0 5.65l-11.06 19.17a5.7 5.7 0 0 1-4.9 2.83Z"/><path fill="#fff" fill-rule="evenodd" d="M121.61 20.23a19.6 19.6 0 0 1 16.91 0 7 7 0 0 1-1.06.74 16.5 16.5 0 0 1-14.79 0 7 7 0 0 1-1.06-.74m-.32-.3a2.2 2.2 0 0 1-.75-1.43c0-.43.32-1.42 2.13-2.48a16.5 16.5 0 0 1 14.8 0c1.8 1.06 2.12 2.05 2.12 2.48a2.2 2.2 0 0 1-.75 1.43 19.9 19.9 0 0 0-17.55 0m21.58-1.43a5.2 5.2 0 0 1-1.42 3.45 5.2 5.2 0 0 1 1.42 3.45v.1a5.3 5.3 0 0 1-1.53 3.57 5.3 5.3 0 0 1 1.53 3.56v.1c0 4.15-5.73 7.5-12.8 7.5s-12.81-3.35-12.81-7.5v-.1a5.3 5.3 0 0 1 1.53-3.56 5.3 5.3 0 0 1-1.53-3.57v-.1a5.2 5.2 0 0 1 1.42-3.46 5.2 5.2 0 0 1-1.42-3.44c0-4.15 5.73-7.51 12.8-7.51s12.81 3.36 12.81 7.5Zm-23.9 3.76a6 6 0 0 0-.69.97 3 3 0 0 0-.14.95 4.6 4.6 0 0 0 2.2 3.57 15 15 0 0 1 5.39-2.18 13.5 13.5 0 0 1-6.76-3.32Zm7.95 3.52a16 16 0 0 0-5.7 1.9l-.51.33a19.8 19.8 0 0 0 18.72 0l-.52-.32a16 16 0 0 0-5.7-1.91 22 22 0 0 1-6.29 0m7.48-.21a15 15 0 0 1 5.4 2.18 4.6 4.6 0 0 0 2.2-3.57 3 3 0 0 0-.15-.95 6 6 0 0 0-.7-.97 13.4 13.4 0 0 1-6.75 3.3ZM130.07 33c-4.66 0-8.74-1.46-10.98-3.64a6 6 0 0 0-.82 1.1 3 3 0 0 0-.13.93c0 3.42 5.34 6.19 11.93 6.19s11.92-2.77 11.92-6.19a3 3 0 0 0-.13-.92 6 6 0 0 0-.81-1.11c-2.25 2.18-6.32 3.64-10.98 3.64"/></g></g></svg>