<svg xmlns="http://www.w3.org/2000/svg" xmlns:xlink="http://www.w3.org/1999/xlink" width="700" height="400" viewBox="0 0 700 400">
  <defs>
    <radialGradient id="radial-gradient" cx="0.5" cy="0.5" r="0.5" gradientUnits="objectBoundingBox">
      <stop offset="0" stop-color="#fff"/>
      <stop offset="1" stop-color="#e1eaef"/>
    </radialGradient>
    <clipPath id="clip-safespring-fr2000">
      <rect width="700" height="400"/>
    </clipPath>
  </defs>
  <g id="safespring-fr2000" clip-path="url(#clip-safespring-fr2000)">
    <rect width="700" height="400" fill="url(#radial-gradient)"/>
    <g id="c" transform="translate(286.314 136.315)">
      <path id="Path_188" data-name="Path 188" d="M0,0V126.147H0C0,195.816,28.515,252.3,63.686,252.3s63.686-56.483,63.686-126.153V0Z" transform="translate(127.373) rotate(180)" fill="#fff" opacity="0.7"/>
      <path id="Path_143" data-name="Path 143" d="M0,0V63.683H0a63.686,63.686,0,0,0,127.373,0V0Z" fill="#fff" opacity="0.7"/>
      <path id="Path_144" data-name="Path 144" d="M146.29,268.582h.679v-.592h-.679Zm1.015,0h.679v-.592h-.679Zm-.163,2.959a.991.991,0,0,1-.989-1.025v-.01a.976.976,0,0,1,.979-1.015.993.993,0,0,1,.989,1.025v.01a.976.976,0,0,1-.979,1.015m-.007.662a1.687,1.687,0,0,0,1.737-1.687v-.01a1.733,1.733,0,0,0-3.465.01v.01a1.67,1.67,0,0,0,1.727,1.678m-3.595-.01a1.171,1.171,0,0,0,.849-.3,1.185,1.185,0,0,0,.306-.872v-2.134h-.736v2.1c0,.376-.166.539-.439.539a.8.8,0,0,1-.6-.326l-.453.5a1.331,1.331,0,0,0,1.068.489m-3.851-.043h2.343v-.652h-1.628v-2.609h-.716Zm-1.648,0h.716v-3.262h-.716Zm-4.2,0h.7v-2.114l.909,1.378h.02l.919-1.391v2.13h.712v-3.262h-.772l-.859,1.378-.859-1.378h-.772v3.262Zm-1.947.047c.7,0,1.2-.363,1.2-1.012v-.01c0-.569-.373-.806-1.035-.979-.566-.143-.706-.213-.706-.429v-.01c0-.16.143-.283.419-.283a1.513,1.513,0,0,1,.849.323l.373-.539a1.881,1.881,0,0,0-1.212-.416,1.021,1.021,0,0,0-1.142.982v.01c0,.649.423.829,1.082,1,.546.14.656.233.656.416v.01c0,.19-.176.306-.469.306a1.5,1.5,0,0,1-.975-.4l-.423.509a2.071,2.071,0,0,0,1.385.523m-3.515-.05h.716v-2.6h.992v-.662h-2.7v.662h.992v2.6Zm-4,0h2.483v-.639h-1.771v-.686h1.538v-.639h-1.538v-.662h1.747v-.639h-2.46v3.262Zm-2.816-.629V270.8h.829c.369,0,.533.136.533.356v.01c0,.243-.19.356-.509.356h-.852Zm0-1.315v-.689h.709c.3,0,.469.12.469.336v.01c0,.243-.2.346-.519.346h-.662Zm-.7,1.944h1.551c.736,0,1.222-.3,1.222-.9v-.01a.8.8,0,0,0-.609-.8.759.759,0,0,0,.429-.7v-.01a.75.75,0,0,0-.223-.556,1.176,1.176,0,0,0-.852-.29h-1.514v3.262Zm-2.783-1.678v-.939h.712c.349,0,.563.16.563.466v.01c0,.276-.2.463-.549.463Zm-.719,1.678h.716V271.1h.566l.7,1.045h.839l-.8-1.165a1.009,1.009,0,0,0,.7-1.012v-.01a1.017,1.017,0,0,0-.28-.746,1.3,1.3,0,0,0-.952-.329h-1.491v3.262Zm-2.759-1.365.433-1.058.433,1.058Zm-1.285,1.365h.732l.3-.732h1.378l.3.732h.749l-1.4-3.285h-.662l-1.4,3.285Zm-2.862-.945a.689.689,0,0,0,.692-.689v-.01a.694.694,0,0,0-1.388,0v.01a.692.692,0,0,0,.7.689m-5.578-2.619h.679v-.592h-.679Zm1.019,0h.679v-.592H105.9Zm-.163,2.959a.991.991,0,0,1-.989-1.025v-.01a.976.976,0,0,1,.979-1.015.993.993,0,0,1,.989,1.025v.01a.976.976,0,0,1-.979,1.015m-.01.662a1.687,1.687,0,0,0,1.737-1.687v-.01a1.733,1.733,0,0,0-3.465.01v.01a1.67,1.67,0,0,0,1.727,1.678m-3.595-.01a1.06,1.06,0,0,0,1.155-1.175v-2.134h-.736v2.1c0,.376-.166.539-.439.539a.8.8,0,0,1-.6-.326l-.453.5a1.331,1.331,0,0,0,1.068.489m-3.851-.043h2.343v-.652H98.993v-2.609h-.716Zm-1.648,0h.716v-3.262H96.63Zm-4.2,0h.7v-2.114l.909,1.378h.02l.919-1.391v2.13h.712v-3.262h-.772l-.859,1.378-.859-1.378h-.772v3.262Zm-3.142-.945a.689.689,0,0,0,.692-.689v-.01a.694.694,0,0,0-1.388,0v.01a.692.692,0,0,0,.7.689m-4.617.945h.716v-2.6h.992v-.662h-2.7v.662h.992v2.6Zm-4,0h2.483v-.639H81.382v-.686H82.92v-.639H81.382v-.662h1.747v-.639H80.67v3.262Zm-2.32,0h.716v-2.6h.992v-.662h-2.7v.662h.992v2.6Zm-2.327,0h.716v-3.262h-.716Zm-2.966,0H75.4v-.652H73.773v-2.609h-.716ZM70.3,270.783l.433-1.058.433,1.058Zm-1.288,1.365h.732l.3-.732H71.42l.3.732h.749l-1.4-3.285H70.4l-1.4,3.285Zm-1.94.023H67.7l1.318-3.285h-.772l-.852,2.3-.852-2.3h-.792Zm-4.67-.023h.716v-1l.376-.393,1.012,1.388h.862l-1.388-1.877,1.328-1.385H64.44l-1.325,1.425v-1.425H62.4Z" transform="translate(-41.631 -178.791)" fill="#6a6d71"/>
      <path id="Path_145" data-name="Path 145" d="M137.322,233.98v-7.559h2.237a3.718,3.718,0,0,1,3.958,3.781v.027a3.7,3.7,0,0,1-3.958,3.751Zm-1.078,1h3.315a4.781,4.781,0,0,0,5.076-4.776v-.027a4.761,4.761,0,0,0-5.076-4.75h-3.315v9.553Zm-9.04-3.495,2.183-4.873,2.17,4.873Zm-2.663,3.495h1.105l1.132-2.523h5.2l1.118,2.523h1.158l-4.354-9.619h-1.009l-4.354,9.619Zm-8.451-4.68v-3.874h2.949c1.541,0,2.443.709,2.443,1.884v.027c0,1.228-1.022,1.964-2.456,1.964H116.09Zm-1.078,4.68h1.078v-3.711h2.729l2.769,3.711h1.325l-2.936-3.9a2.8,2.8,0,0,0,2.593-2.783v-.027a2.645,2.645,0,0,0-.736-1.884,3.768,3.768,0,0,0-2.716-.955h-4.107Zm-9.17,0h6.973v-.982H106.92v-3.342h5.212v-.982H106.92v-3.262h5.828v-.982h-6.907v9.553Zm-4.071,0h1.078v-9.553h-1.078Zm-8.983,0h1.078v-4.161h5.172v-.982H93.866v-3.412h5.785v-1H92.787v9.553Zm-4.067,0H89.8v-9.553H88.72Zm-6.391,0h1.092v-8.557H86.63v-1H79.124v1h3.205v8.557Zm-11.25-4.68v-3.874h2.949c1.541,0,2.443.709,2.443,1.884v.027c0,1.228-1.022,1.964-2.456,1.964ZM70,234.976h1.078v-3.711h2.729l2.769,3.711H77.9l-2.932-3.9a2.8,2.8,0,0,0,2.593-2.783v-.027a2.645,2.645,0,0,0-.736-1.884,3.768,3.768,0,0,0-2.716-.955H70v9.553Zm-9.17,0H67.8v-.982H61.909v-3.342h5.212v-.982H61.909v-3.262h5.828v-.982H60.831v9.553Zm-5.881.163a4.975,4.975,0,0,0,3.821-1.678l-.709-.7a4.154,4.154,0,0,1-3.085,1.378,3.771,3.771,0,0,1-3.7-3.944v-.027a3.747,3.747,0,0,1,3.7-3.918,4.145,4.145,0,0,1,3,1.311l.736-.792a4.968,4.968,0,0,0-3.725-1.514,4.81,4.81,0,0,0-4.83,4.939v.027a4.765,4.765,0,0,0,4.79,4.913" transform="translate(-33.465 -150.284)" fill="#6a6d71"/>
      <path id="Path_146" data-name="Path 146" d="M153.664,78.74a13.1,13.1,0,1,0,13.1,13.1,13.106,13.106,0,0,0-13.1-13.1Zm0,19.654a6.55,6.55,0,1,1,6.55-6.55A6.55,6.55,0,0,1,153.664,98.394Z" transform="translate(-93.776 -52.532)" fill="#afca0b"/>
      <path id="Path_147" data-name="Path 147" d="M217.634,78.74a13.1,13.1,0,1,0,13.1,13.1,13.106,13.106,0,0,0-13.1-13.1Zm0,19.654a6.55,6.55,0,1,1,6.55-6.55A6.55,6.55,0,0,1,217.634,98.394Z" transform="translate(-136.454 -52.532)" fill="#afca0b"/>
      <path id="Path_148" data-name="Path 148" d="M281.614,78.74a13.1,13.1,0,1,0,13.1,13.1,13.106,13.106,0,0,0-13.1-13.1Zm0,19.654a6.55,6.55,0,1,1,6.55-6.55A6.55,6.55,0,0,1,281.614,98.394Z" transform="translate(-179.138 -52.532)" fill="#afca0b"/>
      <path id="Path_149" data-name="Path 149" d="M111.38,115.81v.007h0Z" transform="translate(-74.308 -77.263)" fill="#ea5b0c"/>
      <path id="Path_150" data-name="Path 150" d="M340.37,81.183h.772a.685.685,0,0,1,.493.17.531.531,0,0,1,.143.386h0a.521.521,0,0,1-.363.526l.413.6H341.4l-.363-.539h-.293v.539h-.369V81.18Zm.746.819c.18,0,.283-.1.283-.24h0c0-.163-.11-.246-.293-.246h-.369V82h.376Z" transform="translate(-227.08 -54.16)" fill="#afca0b"/>
      <path id="Path_151" data-name="Path 151" d="M338.938,78.74A1.658,1.658,0,1,0,340.6,80.4,1.658,1.658,0,0,0,338.938,78.74Zm0,2.9a1.245,1.245,0,1,1,1.245-1.245A1.245,1.245,0,0,1,338.938,81.642Z" transform="translate(-225.019 -52.532)" fill="#afca0b"/>
      <path id="Path_152" data-name="Path 152" d="M48.547,35.43h0a13.1,13.1,0,0,0-13.1,13.1V74.413H42V56.4h7.2v-6.55H42V48.534a6.547,6.547,0,1,1,13.094,0h6.55a13.1,13.1,0,0,0-13.1-13.1Z" transform="translate(-23.651 -23.637)" fill="#6a6d71"/>
      <path id="Path_153" data-name="Path 153" d="M83.32,91.824a6.55,6.55,0,0,1,5.891-6.517V78.74A13.1,13.1,0,0,0,76.77,91.827v11.483h6.55V91.827Z" transform="translate(-51.218 -52.532)" fill="#6a6d71"/>
      <path id="Path_154" data-name="Path 154" d="M88.623,108.969s8.078-8.318,8.3-8.324l.01.01a13.091,13.091,0,0,0-9.05-21.874v6.574A6.545,6.545,0,0,1,91.832,96.5L72.81,115.519h27.523v-6.55H88.627Z" transform="translate(-48.576 -52.559)" fill="#afca0b"/>
    </g>
  </g>
</svg>
