<svg xmlns="http://www.w3.org/2000/svg" width="350" height="200" viewBox="0 0 350 200"><g id="safespring_logotype_blue_svg" transform="translate(60.688 75.067)"><path id="Rectangle_289" fill="#e8eff3" d="M0 0h350v200H0z" transform="translate(-60.688 -75.067)"/><path id="Path_4871" fill="#417da5" d="M720.8 492.7a14.32 14.32 0 0 0-28.46 0 14.32 14.32 0 0 0 1.57 28.57h12.65a8 8 0 0 0 0-15.98 4.66 4.66 0 1 1 3.3-7.98 1.67 1.67 0 1 0 2.36-2.34 8 8 0 1 0-5.66 13.62 4.66 4.66 0 1 1 0 9.33h-12.65a10.99 10.99 0 1 1 0-21.98 1.66 1.66 0 0 0 1.66-1.66 10.99 10.99 0 0 1 21.98 0 1.67 1.67 0 0 0 1.67 1.66 10.99 10.99 0 1 1 0 21.98 1.67 1.67 0 0 0 0 3.33 14.32 14.32 0 0 0 1.57-28.55Z" transform="translate(-680 -480)"/><path id="Path_4872" fill="#417da5" d="M843.47 541.72c-.81-.33-1.55-.57-2.61-.94-1.92-.61-3.8-1.3-3.8-2.9s1.22-2.4 3.1-2.4a7 7 0 0 1 4.9 2.08l1.64-2.41a8.5 8.5 0 0 0-6.62-2.54c-3.43 0-6.54 1.97-6.54 5.56a5 5 0 0 0 3.06 4.66 14 14 0 0 0 2.66 1.02c1.3.45 4.37 1.1 4.37 3.24s-1.92 2.78-3.72 2.78a8 8 0 0 1-5.72-2.78l-1.88 2.29a9.3 9.3 0 0 0 7.56 3.47 8.3 8.3 0 0 0 5.4-1.72 5.5 5.5 0 0 0 2-4.4 4.8 4.8 0 0 0-1.56-3.6 8 8 0 0 0-2.24-1.4Z" transform="translate(-770.425 -511.131)"/><path id="Path_4873" fill="#417da5" d="M882.46 532.61a15 15 0 0 0-7.27 1.96l1.18 2.62a12 12 0 0 1 5.84-1.68c2.82 0 4.83 1.47 4.83 4.41v.78l-5.2.2c-4.5.2-7.6 2.12-7.6 5.92s3.1 6 6.7 6a8 8 0 0 0 6.18-2.88l.04 2.45h3.8v-11.3c0-3.3-.77-4.94-2.08-6.29s-3.2-2.19-6.42-2.19m4.62 14.63a6.1 6.1 0 0 1-4.95 2.81c-2.53 0-4-1.5-4-3.35s1.27-3.18 4.41-3.35l4.54-.28Z" transform="translate(-795.205 -511.131)"/><path id="Path_4874" fill="#417da5" d="M956.5 532.61a9.63 9.63 0 0 0-9.85 10.05c0 6.13 3.97 10.17 9.73 10.17s8.29-2.86 8.53-3.06l-1.63-2.25a10.7 10.7 0 0 1-6.42 2.25c-3.6 0-6.04-2.33-6.25-6.17h14.96a17 17 0 0 0 .12-1.72 8.86 8.86 0 0 0-9.19-9.27m-5.84 8.38a5.7 5.7 0 0 1 5.73-5.56 5.63 5.63 0 0 1 5.6 5.56Z" transform="translate(-837.999 -511.131)"/><path id="Path_4875" fill="#417da5" d="M1007.77 541.72c-.82-.33-1.55-.57-2.61-.94-1.92-.61-3.8-1.3-3.8-2.9s1.23-2.4 3.1-2.4a7 7 0 0 1 4.9 2.08l1.64-2.41a8.5 8.5 0 0 0-6.62-2.54c-3.43 0-6.54 1.97-6.54 5.56a5 5 0 0 0 3.06 4.66 15 15 0 0 0 2.66 1.02c1.3.45 4.37 1.1 4.37 3.23s-1.92 2.77-3.72 2.77a8 8 0 0 1-5.72-2.77l-1.89 2.28a9.3 9.3 0 0 0 7.56 3.48 8.3 8.3 0 0 0 5.4-1.72 5.5 5.5 0 0 0 2-4.41 4.8 4.8 0 0 0-1.56-3.6 7 7 0 0 0-2.23-1.4" transform="translate(-867.518 -511.131)"/><path id="Path_4876" fill="#417da5" d="M1049.33 532.6a8.2 8.2 0 0 0-6.88 3.44h-.08v-3.06h-3.76v26.78h3.92v-10.44l.04.04a7.5 7.5 0 0 0 6.7 3.47c5.76 0 9.44-4.41 9.44-10.17s-3.66-10.05-9.38-10.05m-.81 16.88c-3.89 0-6.17-2.98-6.17-6.86s2.28-6.83 6.17-6.83 6.16 2.94 6.16 6.83-2.28 6.86-6.16 6.86" transform="translate(-892.34 -511.128)"/><path id="Rectangle_290" fill="#417da5" d="M0 0h3.92v19.4H0z" transform="translate(182.259 21.847)"/><path id="Path_4877" fill="#417da5" d="M1154.15 532.6a6.5 6.5 0 0 0-5.94 3.44h-.12l.04-3.06h-3.92v19.42h3.92v-9.78c0-3.72 1.35-6.79 4.99-6.79 3.47 0 4.04 2.46 4.04 5.73v10.84h3.92v-11.5c.01-4.66-1.41-8.3-6.93-8.3" transform="translate(-954.748 -511.128)"/><path id="Path_4878" fill="#417da5" d="m1207.08 532.98.04 3.06h-.12a7.8 7.8 0 0 0-6.78-3.43c-4.98 0-9.35 3.6-9.35 9.76s4.37 9.77 9.35 9.77a7.8 7.8 0 0 0 6.78-3.48h.08v.77a8.8 8.8 0 0 1-1.47 5.43 6.6 6.6 0 0 1-5.31 2.13 12.3 12.3 0 0 1-6.96-2.46l-1.83 2.74a15 15 0 0 0 8.66 2.9c4.82 0 7.23-1.96 8.66-3.72s2.12-4.09 2.12-8.37v-15.1Zm-6.05 15.95c-3.96 0-6.17-2.9-6.17-6.58s2.2-6.62 6.17-6.62 6.17 2.95 6.17 6.62-2.16 6.6-6.17 6.6Z" transform="translate(-982.317 -511.131)"/><path id="Path_4879" fill="#417da5" d="M924.46 513.06c-.82 1.02-1.31 2.66-1.31 5.2v21.33h3.88v-16.24h4.61v-3.14h-4.6v-2.16c0-2.21.4-4.13 2.97-4.13a8 8 0 0 1 1.64.2v-2.95a13 13 0 0 0-2.53-.23 5.9 5.9 0 0 0-4.66 2.12" transform="translate(-824.105 -498.322)"/><path id="Path_4880" fill="#417da5" d="M1097.07 535.95h-.12l.04-2.98h-3.92v19.42h3.92v-9.7a8.7 8.7 0 0 1 1.18-4.9 4.1 4.1 0 0 1 3.19-1.64 5 5 0 0 1 2.13.4v-3.76a7 7 0 0 0-1.64-.2 5.1 5.1 0 0 0-4.78 3.36" transform="translate(-924.525 -511.119)"/><circle id="Ellipse_22" cx="2.552" cy="2.552" r="2.552" fill="#417da5" transform="translate(181.646 12.615)"/></g></svg>