<svg xmlns="http://www.w3.org/2000/svg" xmlns:xlink="http://www.w3.org/1999/xlink" width="350" height="200" viewBox="0 0 350 200">
  <defs>
    <linearGradient id="linear-gradient" x1="0.171" y1="1.229" x2="0.787" y2="-0.047" gradientUnits="objectBoundingBox">
      <stop offset="0.511" stop-color="#fff"/>
      <stop offset="1" stop-color="#fff" stop-opacity="0.302"/>
    </linearGradient>
  </defs>
  <g id="Group_573" data-name="Group 573" transform="translate(-1555 -228)">
    <g id="Group_572" data-name="Group 572">
      <g id="safespring-dbaas" transform="translate(1355 -14)">
        <rect id="Rectangle_285" data-name="Rectangle 285" width="350" height="200" transform="translate(200 242)" fill="rgba(15,3,121,0.1)"/>
      </g>
      <g id="ccx_logo" transform="translate(1643.019 283.098)">
        <path id="Path_5533" data-name="Path 5533" d="M.815,24.766A15.661,15.661,0,0,1,16.477,9.1H56.748A15.661,15.661,0,0,1,72.409,24.766V65.038A15.661,15.661,0,0,1,56.748,80.7H16.477A15.661,15.661,0,0,1,.815,65.038Z" transform="translate(0)" fill="#b80b7b"/>
        <path id="Path_5534" data-name="Path 5534" d="M129.909,71.787a17.755,17.755,0,0,1-8.472-1.969,15.7,15.7,0,0,1-5.847-5.429,14.625,14.625,0,0,1-2.148-7.875,14.324,14.324,0,0,1,2.148-7.816,15.537,15.537,0,0,1,5.847-5.489,17.331,17.331,0,0,1,8.472-2.028H134.5V49h-4.236a7.556,7.556,0,0,0-4,1.014,6.817,6.817,0,0,0-2.625,2.685,7.962,7.962,0,0,0-.895,3.818,8.317,8.317,0,0,0,.895,3.878,7.381,7.381,0,0,0,2.625,2.685,7.927,7.927,0,0,0,4,.955H134.5v7.756Zm23.568,0a17.752,17.752,0,0,1-8.471-1.969,15.7,15.7,0,0,1-5.847-5.429,14.625,14.625,0,0,1-2.148-7.875,14.324,14.324,0,0,1,2.148-7.816,15.533,15.533,0,0,1,5.847-5.489,17.328,17.328,0,0,1,8.471-2.028h4.594V49h-4.236a7.556,7.556,0,0,0-4,1.014,6.817,6.817,0,0,0-2.625,2.685,7.962,7.962,0,0,0-.895,3.818,8.317,8.317,0,0,0,.895,3.878,7.381,7.381,0,0,0,2.625,2.685,7.927,7.927,0,0,0,4,.955h4.236v7.756Z" transform="translate(-21.107 -6.011)" fill="#0a1250"/>
        <path id="Path_5535" data-name="Path 5535" d="M182.877,42.144l22.433,30.576H194.929L172.437,42.144Z" transform="translate(-32.163 -6.192)" fill="#0a1250"/>
        <path id="Path_5536" data-name="Path 5536" d="M205.311,42.144,182.818,72.721H172.437L194.87,42.144Z" transform="translate(-32.163 -6.192)" fill="#0a1250"/>
        <path id="Path_5537" data-name="Path 5537" d="M25.9,61.766a4.974,4.974,0,0,0,7.029,7.04l7.885-7.9a9.915,9.915,0,0,0-14.059,0Z" transform="translate(-4.428 -9.161)" fill="url(#linear-gradient)"/>
        <path id="Path_5538" data-name="Path 5538" d="M48.069,34.43l-7.776,7.776-5.517-5.517a8.187,8.187,0,0,0-11.578,0l-1.275,1.275L33.23,49.27l-7.773,7.773a5.037,5.037,0,0,0-.484.561,5.058,5.058,0,0,1,.457-.525l.856-.857a9.915,9.915,0,0,1,14.059,0l-7.885,7.9a4.953,4.953,0,0,1-2.52,1.361,4.973,4.973,0,0,0,2.581-1.372l7.773-7.773,5.519,5.519a8.187,8.187,0,0,0,11.578,0l1.275-1.275L47.357,49.27l7.776-7.776a4.995,4.995,0,1,0-7.064-7.064Z" transform="translate(-3.956 -4.472)" fill="#fff" fill-rule="evenodd"/>
      </g>
    </g>
  </g>
</svg>
