<svg xmlns="http://www.w3.org/2000/svg" width="347" height="247" viewBox="0 0 347 247"><defs><style>.a,.b{fill:#fa690f;}.a{opacity:0.1;}</style></defs><g transform="translate(3.5 3.5)"><rect class="a" width="347" height="247" transform="translate(-3.5 -3.5)"/><path class="b" d="M218.19,87.85l-46-17.68a6.31,6.31,0,0,0-4.41,0l-46,17.68a3.14,3.14,0,0,0-2,2.93V98a3.15,3.15,0,0,0,3.14,3.14H217.1A3.15,3.15,0,0,0,220.23,98V90.78A3.14,3.14,0,0,0,218.19,87.85Zm-85.86,19.59v31.39h-3.14a3.15,3.15,0,0,0-3.14,3.14v9.42H214V142a3.15,3.15,0,0,0-3.14-3.14h-3.14V107.44H195.11v31.39H176.28V107.44H163.72v31.39H144.89V107.44Zm84.76,50.23H122.91a3.14,3.14,0,0,0-3.14,3.14v6.28a3.15,3.15,0,0,0,3.14,3.14h94.18a3.15,3.15,0,0,0,3.14-3.14v-6.28a3.14,3.14,0,0,0-3.14-3.14Z"/></g></svg>