<svg xmlns="http://www.w3.org/2000/svg" xmlns:xlink="http://www.w3.org/1999/xlink" width="350" height="200" viewBox="0 0 350 200"><defs><clipPath id="b"><rect width="350" height="200"/></clipPath></defs><g id="a" clip-path="url(#b)"><rect width="350" height="200" fill="#fff"/><path d="M0,0H350V200H0Z" fill="rgba(250,105,15,0.1)"/><path d="M46.768,85.841,36.535,82.872a2.016,2.016,0,0,1-1.376-2.5L58.058,1.49a2.016,2.016,0,0,1,2.5-1.376L70.792,3.084a2.016,2.016,0,0,1,1.376,2.5l-22.9,78.882A2.01,2.01,0,0,1,46.768,85.841ZM27.643,67.018l7.3-7.784a2.013,2.013,0,0,0-.134-2.886l-15.2-13.371,15.2-13.371a2,2,0,0,0,.134-2.886l-7.3-7.784a2.015,2.015,0,0,0-2.852-.084L.617,41.5a2,2,0,0,0,0,2.936L24.791,67.1a2,2,0,0,0,2.852-.084Zm54.892.1,24.175-22.665a2,2,0,0,0,0-2.936L82.535,18.837a2.031,2.031,0,0,0-2.852.084l-7.3,7.784a2.013,2.013,0,0,0,.134,2.886l15.2,13.387L72.52,56.349a2,2,0,0,0-.134,2.886l7.3,7.784a2.016,2.016,0,0,0,2.852.1Z" transform="translate(120.911 56.86)" fill="#fa690f"/><g transform="matrix(0.985, -0.174, 0.174, 0.985, 9.042, 33.645)"><path d="M22.289,5.251a1.808,1.808,0,0,0-.894-1.033L12.876.14a1.563,1.563,0,0,0-.7-.14,2.948,2.948,0,0,0-.7.056L2.96,4.162A1.5,1.5,0,0,0,2.122,5.2L.027,14.385a1.762,1.762,0,0,0,.307,1.341l5.894,7.29a2.034,2.034,0,0,0,1.285.587H16.9a1.392,1.392,0,0,0,1.285-.587l5.894-7.29a1.907,1.907,0,0,0,.335-1.341L22.289,5.251Z" transform="translate(0)" fill="rgba(250,105,15,0.1)"/><path d="M218.06,27.547a2.788,2.788,0,0,0,1.173-.168.622.622,0,0,0,.335-.614.706.706,0,0,0-.447-.614,6.035,6.035,0,0,0-1.369-.614,11.079,11.079,0,0,1-1.285-.559,3.808,3.808,0,0,1-.978-.67,2.65,2.65,0,0,1-.615-.95,3.511,3.511,0,0,1-.223-1.313,2.9,2.9,0,0,1,1.117-2.374,4.81,4.81,0,0,1,3.045-.866,8.522,8.522,0,0,1,1.871.2,8.886,8.886,0,0,1,1.425.363l-.531,2.374c-.391-.14-.754-.223-1.145-.335a5.7,5.7,0,0,0-1.369-.14c-.95,0-1.424.251-1.424.782a1.4,1.4,0,0,0,.056.335.792.792,0,0,0,.251.279,5.426,5.426,0,0,0,.475.279,4.75,4.75,0,0,0,.81.335,10.6,10.6,0,0,1,1.62.726,3.058,3.058,0,0,1,1.006.782,2.166,2.166,0,0,1,.531.922,4.253,4.253,0,0,1,.168,1.173,2.68,2.68,0,0,1-1.2,2.4,5.939,5.939,0,0,1-3.352.81,8.481,8.481,0,0,1-2.374-.251c-.447-.112-.866-.251-1.285-.391l.5-2.458a10.1,10.1,0,0,0,1.564.475c.559.028,1.089.084,1.648.084m-15.39-3.072a6.7,6.7,0,0,1,.419-2.458,5.288,5.288,0,0,1,1.145-1.788,4.413,4.413,0,0,1,1.62-1.061,4.99,4.99,0,0,1,1.9-.363,4.69,4.69,0,0,1,3.575,1.4,5.769,5.769,0,0,1,1.313,4.078,4.531,4.531,0,0,1-.028.587c0,.223-.028.391-.028.559h-6.815a2.008,2.008,0,0,0,.866,1.48,3.605,3.605,0,0,0,2.067.559,10.572,10.572,0,0,0,1.62-.14,5.529,5.529,0,0,0,1.313-.419l.419,2.458a4.389,4.389,0,0,1-.642.251,5.426,5.426,0,0,1-.922.2c-.335.056-.67.112-1.061.168-.363.028-.754.056-1.145.056a6.435,6.435,0,0,1-2.514-.419,4.513,4.513,0,0,1-2.793-2.9,8.963,8.963,0,0,1-.307-2.235m7.067-1.145a2.4,2.4,0,0,0-.14-.754,1.767,1.767,0,0,0-.335-.642,1.912,1.912,0,0,0-.587-.475,2.015,2.015,0,0,0-1.732,0,1.932,1.932,0,0,0-.615.447,2.016,2.016,0,0,0-.391.67,3.658,3.658,0,0,0-.168.754h3.966M194.486,16.4l3.017-.475v3.128h3.631v2.514H197.5v3.743a2.791,2.791,0,0,0,.335,1.508,1.48,1.48,0,0,0,1.369.559,5.538,5.538,0,0,0,.978-.084,5.271,5.271,0,0,0,.95-.251l.419,2.346a9,9,0,0,1-1.229.391,8.045,8.045,0,0,1-1.648.168,5.053,5.053,0,0,1-2.039-.335,3.3,3.3,0,0,1-1.285-.922,3.9,3.9,0,0,1-.7-1.452,7.08,7.08,0,0,1-.168-1.871V16.4M182.28,24.474a6.7,6.7,0,0,1,.419-2.458,5.288,5.288,0,0,1,1.145-1.788,4.413,4.413,0,0,1,1.62-1.061,4.99,4.99,0,0,1,1.9-.363,4.69,4.69,0,0,1,3.575,1.4,5.769,5.769,0,0,1,1.313,4.078,4.533,4.533,0,0,1-.028.587,4.135,4.135,0,0,0-.028.559h-6.843a2.008,2.008,0,0,0,.866,1.48,3.605,3.605,0,0,0,2.067.559,10.572,10.572,0,0,0,1.62-.14,6.185,6.185,0,0,0,1.341-.419l.419,2.458a4.389,4.389,0,0,1-.642.251,5.425,5.425,0,0,1-.922.2c-.335.056-.67.112-1.061.168-.363.028-.754.056-1.145.056a6.435,6.435,0,0,1-2.514-.419,4.513,4.513,0,0,1-2.793-2.9,6.958,6.958,0,0,1-.307-2.235m7.067-1.145a2.4,2.4,0,0,0-.14-.754,1.767,1.767,0,0,0-.335-.642,1.912,1.912,0,0,0-.587-.475,2.015,2.015,0,0,0-1.732,0,1.822,1.822,0,0,0-.587.447,2.016,2.016,0,0,0-.391.67,3.659,3.659,0,0,0-.168.754h3.938m-18.519-3.91c.642-.168,1.313-.307,1.983-.419a15.583,15.583,0,0,1,2.542-.2,6.15,6.15,0,0,1,2.235.363,3.189,3.189,0,0,1,1.425.978,3.955,3.955,0,0,1,.754,1.536,7.856,7.856,0,0,1,.223,1.983V29.67H177V24.055a4.139,4.139,0,0,0-.391-2.067,1.577,1.577,0,0,0-1.424-.614,6.076,6.076,0,0,0-.7.028,4.233,4.233,0,0,0-.642.056V29.67h-3.017V19.419m-2.123,2.318c-.279-.056-.587-.14-.95-.2a5.565,5.565,0,0,0-1.173-.112,6.384,6.384,0,0,0-.7.056,4.336,4.336,0,0,0-.587.112v8.128h-3.017V19.614a14.711,14.711,0,0,1,1.9-.531,9.2,9.2,0,0,1,2.458-.251c.2,0,.391.028.587.028a3.168,3.168,0,0,1,.7.084c.223.028.447.056.7.112a2.319,2.319,0,0,1,.587.168l-.5,2.514m-18.742,2.737a6.7,6.7,0,0,1,.419-2.458,5.288,5.288,0,0,1,1.145-1.788,4.413,4.413,0,0,1,1.62-1.061,4.99,4.99,0,0,1,1.9-.363,4.69,4.69,0,0,1,3.575,1.4,5.742,5.742,0,0,1,1.313,4.05,4.533,4.533,0,0,1-.028.587,4.133,4.133,0,0,0-.028.559h-6.843a2.008,2.008,0,0,0,.866,1.48,3.605,3.605,0,0,0,2.067.559,10.572,10.572,0,0,0,1.62-.14A7.1,7.1,0,0,0,158.9,26.9l.419,2.458a4.389,4.389,0,0,1-.642.251,5.425,5.425,0,0,1-.922.2c-.335.056-.67.112-1.061.168-.363.028-.754.056-1.145.056a6.435,6.435,0,0,1-2.514-.419,4.513,4.513,0,0,1-2.793-2.9,10.2,10.2,0,0,1-.279-2.235m7.095-1.145a2.4,2.4,0,0,0-.14-.754,1.766,1.766,0,0,0-.335-.642,1.912,1.912,0,0,0-.587-.475,2.015,2.015,0,0,0-1.732,0,1.931,1.931,0,0,0-.614.447,2.016,2.016,0,0,0-.391.67,3.658,3.658,0,0,0-.168.754h3.966m-11.983.978c0-1.955-.726-2.9-2.151-2.9a3.47,3.47,0,0,0-.922.112,2.371,2.371,0,0,0-.726.307V27.3c.14.028.335.056.559.084a6.319,6.319,0,0,0,.754.028,2.132,2.132,0,0,0,1.871-.838,4,4,0,0,0,.615-2.262m3.072.112a6.631,6.631,0,0,1-.391,2.318A4.72,4.72,0,0,1,146.7,28.5a5.065,5.065,0,0,1-1.732,1.145,6.678,6.678,0,0,1-2.346.391c-.363,0-.754-.028-1.145-.056s-.782-.084-1.173-.112c-.363-.056-.726-.112-1.089-.2a3.649,3.649,0,0,1-.922-.251V14.475L141.3,14v5.307a6.706,6.706,0,0,1,1.061-.335,5.565,5.565,0,0,1,1.173-.112,4.564,4.564,0,0,1,2.011.419A4.06,4.06,0,0,1,147,20.4a4.778,4.778,0,0,1,.894,1.76,9.853,9.853,0,0,1,.251,2.262m-12.737,4.916a19.393,19.393,0,0,1-4.525.587,6.2,6.2,0,0,1-2.262-.363,3.682,3.682,0,0,1-1.425-1.006,4.189,4.189,0,0,1-.754-1.592,8.077,8.077,0,0,1-.223-2.011V19.056h3.017v5.558a4.264,4.264,0,0,0,.391,2.095,1.529,1.529,0,0,0,1.425.642,6.076,6.076,0,0,0,.7-.028,4,4,0,0,0,.642-.084V19.056h3.017V29.334m-17.6-6.424c.307-.335.587-.67.922-1.006.307-.363.614-.7.922-1.033.307-.363.587-.67.838-.978s.5-.587.7-.81h3.575c-.726.81-1.425,1.62-2.095,2.374-.7.754-1.425,1.536-2.235,2.318a13.956,13.956,0,0,1,1.257,1.313c.419.5.838,1.006,1.257,1.564.391.531.782,1.089,1.117,1.62s.614,1.033.838,1.48h-3.464c-.223-.363-.475-.726-.754-1.145s-.587-.838-.866-1.285a13.807,13.807,0,0,0-1.006-1.229,6.639,6.639,0,0,0-1.006-.978v4.665H114.8V14.475L117.814,14v8.91" transform="translate(-82.733 -10.09)" fill="rgba(250,105,15,0.1)"/><path d="M28.517,21.719h0c-.028,0-.056,0-.056-.028s-.056-.028-.112-.028a1.36,1.36,0,0,0-.335-.028.354.354,0,0,1-.168-.028h-.028a5.645,5.645,0,0,1-.95-.168.337.337,0,0,1-.2-.2h0l-.223-.056a7.285,7.285,0,0,0-.112-2.458,7.567,7.567,0,0,0-.978-2.29l.168-.168h0v-.028a.39.39,0,0,1,.084-.251,5,5,0,0,1,.782-.559h0l.168-.084c.112-.056.2-.112.307-.168.028-.028.056-.028.084-.056s0-.028,0-.056h0a.546.546,0,0,0,.112-.782.533.533,0,0,0-.391-.2.667.667,0,0,0-.391.14h0l-.028.028c-.028.028-.056.056-.084.056a1.807,1.807,0,0,0-.223.251c-.028.056-.084.084-.112.112h0a3.673,3.673,0,0,1-.7.614.4.4,0,0,1-.168.056.168.168,0,0,1-.112-.028H24.83l-.223.14c-.223-.223-.475-.447-.7-.67a7.157,7.157,0,0,0-3.631-1.452l-.028-.223h0v.028a.384.384,0,0,1-.14-.223,5.58,5.58,0,0,1,.056-.95v-.028c0-.056.028-.112.028-.168.028-.112.028-.223.056-.335v-.168h0a.553.553,0,0,0-.475-.587.56.56,0,0,0-.475.2.551.551,0,0,0-.168.391h0v.14a1.4,1.4,0,0,0,.056.335.354.354,0,0,1,.028.168v.028a5.264,5.264,0,0,1,.056.95.384.384,0,0,1-.14.223v.056h0L19.1,13.4c-.307.028-.614.084-.95.14a6.658,6.658,0,0,0-3.436,1.955l-.168-.112h-.028c-.028,0-.056.028-.112.028a.4.4,0,0,1-.168-.056,5.15,5.15,0,0,1-.7-.642h0c-.028-.056-.084-.084-.112-.112-.084-.084-.14-.168-.223-.251-.028-.028-.056-.028-.084-.056l-.028-.028h0a.667.667,0,0,0-.391-.14.423.423,0,0,0-.391.2.6.6,0,0,0,.112.782h0a.027.027,0,0,1,.028.028s.056.056.084.056a3.047,3.047,0,0,0,.307.168l.168.084h0a3.965,3.965,0,0,1,.782.559.282.282,0,0,1,.084.251v-.028h0l.168.168c-.028.056-.056.084-.084.14a6.633,6.633,0,0,0-.978,4.581l-.223.056h0a.027.027,0,0,1-.028.028.44.44,0,0,1-.2.2,5.188,5.188,0,0,1-.95.168h0a.354.354,0,0,0-.168.028c-.112,0-.223.028-.335.028-.028,0-.056.028-.112.028-.028,0-.028,0-.056.028h0a.545.545,0,0,0-.447.642h0a.519.519,0,0,0,.559.391.252.252,0,0,0,.14-.028h0c.028,0,.028,0,.028-.028s.084,0,.112,0c.112-.028.223-.084.307-.112a.4.4,0,0,1,.168-.056h.028a4.979,4.979,0,0,1,.922-.251h.028a.317.317,0,0,1,.223.084.027.027,0,0,1,.028.028h0l.251-.028a6.742,6.742,0,0,0,2.29,3.268,4.43,4.43,0,0,0,.754.5l-.14.2h0a.027.027,0,0,0,.028.028.33.33,0,0,1,.028.279,4.583,4.583,0,0,1-.447.81v.028a.49.49,0,0,1-.112.14c-.056.056-.112.168-.2.279-.028.028-.028.056-.056.084a.027.027,0,0,1-.028.028h0a.575.575,0,0,0,.223.754.518.518,0,0,0,.2.056.626.626,0,0,0,.531-.335h0a.027.027,0,0,1,.028-.028c0-.028.028-.056.056-.084.028-.112.084-.2.112-.307l.056-.168h0a4.727,4.727,0,0,1,.363-.866.434.434,0,0,1,.223-.168c.028,0,.028,0,.028-.028h0l.112-.223a6.575,6.575,0,0,0,2.43.447,5.593,5.593,0,0,0,1.508-.2,8.346,8.346,0,0,0,.894-.251l.112.2h0c.028,0,.028,0,.028.028a.434.434,0,0,1,.223.168,4.727,4.727,0,0,1,.363.866v.028L22.93,28a1,1,0,0,0,.112.307c.028.028.028.056.056.084a.027.027,0,0,0,.028.028h0a.626.626,0,0,0,.531.335.657.657,0,0,0,.223-.056.467.467,0,0,0,.251-.307.719.719,0,0,0-.028-.419h0a.027.027,0,0,0-.028-.028c0-.028-.028-.056-.056-.084a1,1,0,0,0-.2-.279.49.49,0,0,0-.112-.14v-.056a3.3,3.3,0,0,1-.447-.81.331.331,0,0,1,.028-.279.027.027,0,0,1,.028-.028h0l-.084-.223a6.9,6.9,0,0,0,3.017-3.8l.223.028h0a.027.027,0,0,0,.028-.028.317.317,0,0,1,.223-.084h.028a4.7,4.7,0,0,1,.894.251h.028a.4.4,0,0,0,.168.056,1.5,1.5,0,0,0,.307.14c.028,0,.056.028.112.028.028,0,.028,0,.056.028h0a.252.252,0,0,0,.14.028.608.608,0,0,0,.559-.391.659.659,0,0,0-.5-.587Zm-8.072-.866-.754.363-.754-.363-.2-.81.531-.67h.838l.531.67ZM25,19.038a5.347,5.347,0,0,1,.112,1.76l-2.654-.754h0a.457.457,0,0,1-.335-.559.45.45,0,0,1,.112-.2l2.095-1.9A5.683,5.683,0,0,1,25,19.038Zm-1.508-2.681-2.29,1.62a.475.475,0,0,1-.614-.112.254.254,0,0,1-.084-.2l-.168-2.821a5.257,5.257,0,0,1,3.156,1.508h0Zm-5.056-1.425.559-.112-.14,2.793h0a.465.465,0,0,1-.475.447A.657.657,0,0,1,18.154,18l-2.318-1.648a5.547,5.547,0,0,1,2.6-1.425ZM15.026,17.39l2.067,1.843h0a.449.449,0,0,1,.056.642.314.314,0,0,1-.223.14l-2.709.782A5.88,5.88,0,0,1,15.026,17.39Zm-.475,4.72,2.765-.475a.457.457,0,0,1,.475.363.331.331,0,0,1-.028.279h0L16.7,24.848a5.5,5.5,0,0,1-2.151-2.737Zm6.34,3.464a5.652,5.652,0,0,1-1.2.14,6.26,6.26,0,0,1-1.76-.279L19.3,22.948a.433.433,0,0,1,.559-.112,1.4,1.4,0,0,1,.223.2h0l1.341,2.43A4.538,4.538,0,0,0,20.891,25.574Zm3.408-2.43a5.333,5.333,0,0,1-1.676,1.676l-1.089-2.626a.454.454,0,0,1,.251-.531.816.816,0,0,1,.251-.056l2.793.475A4.194,4.194,0,0,1,24.3,23.144Z" transform="translate(-7.541 -7.698)" fill="#fff0e6"/></g><g transform="matrix(0.985, -0.174, 0.174, 0.985, 18.061, 79.332)"><path d="M54.228,11.987a23.321,23.321,0,0,0-2-3.4l-8.212,2.989a15.351,15.351,0,0,1,2.414,3.251Zm-36.3,9.083L9.71,24.059a23.89,23.89,0,0,0,.651,3.894l7.8-2.841a15.271,15.271,0,0,1-.24-4.041" fill="rgba(250,105,15,0.1)"/><path d="M36.156,9.66a15.2,15.2,0,0,1,4.438,3.16l8.212-2.989A23.477,23.477,0,0,0,6.292,25.3l8.214-2.989A15.218,15.218,0,0,1,36.156,9.66" fill="rgba(250,105,15,0.1)"/><path d="M44.916,24.668a15.063,15.063,0,0,1-1.379,5.274,15.279,15.279,0,0,1-20.282,7.383,15.11,15.11,0,0,1-4.446-3.155l-8.2,2.983A23.464,23.464,0,0,0,51,33.421a23.254,23.254,0,0,0,2.115-11.735l-8.2,2.983Z" fill="rgba(250,105,15,0.1)"/><path d="M46.935,14.641l-7.8,2.84a15.311,15.311,0,0,1,1.91,8.595l8.2-2.981a23.665,23.665,0,0,0-2.3-8.454M10.873,27.765l-7.8,2.843a23.758,23.758,0,0,0,3.67,7.955l8.195-2.984a15.339,15.339,0,0,1-4.061-7.814" fill="rgba(250,105,15,0.1)"/><path d="M53.038,9.823c-.259-.42-.528-.834-.814-1.236l-8.212,2.989a14.608,14.608,0,0,1,1.011,1.165Zm-35.145,12.9a14.534,14.534,0,0,1,.031-1.649L9.71,24.059c.042.526.109,1.049.188,1.57l8-2.91Z" fill="none"/><path d="M53.112,21.686l-8.2,2.983a15,15,0,0,1-.693,3.525l8.921-3.253a23.556,23.556,0,0,0-.033-3.255m-42.5,15.467A23.269,23.269,0,0,0,12.7,39.689l8.922-3.254a15.164,15.164,0,0,1-2.816-2.266Z" fill="none"/><path d="M52.689,54.532v.74h2.146v6.554h.813V55.272H57.8v-.74Zm-4.929.739v2.417h2v.74h-2v3.4h-.812V54.533h4.283v.739h-3.47Zm-3.718-.738h.813v7.294h-.812Zm-2.9,7.293V58.387H37.513v3.439H36.7V54.532h.813v3.116h3.626V54.532h.813v7.294Zm-8.667.115a3.476,3.476,0,0,1-2.449-1.01l.542-.6A2.769,2.769,0,0,0,32.5,61.2c.969,0,1.574-.48,1.574-1.251,0-.678-.406-1.062-1.74-1.542-1.574-.562-2.1-1.072-2.1-2.125,0-1.167.916-1.866,2.281-1.866a3.265,3.265,0,0,1,2.22.783l-.521.635a2.539,2.539,0,0,0-1.75-.678c-1,0-1.417.5-1.417,1.074,0,.6.271.947,1.73,1.47,1.615.583,2.115,1.125,2.115,2.209,0,1.146-.9,2.031-2.417,2.031m-5.742-.115-2.677-3.98c-.177-.271-.417-.636-.511-.824,0,.271.021,1.188.021,1.594v3.21H22.124V54.532h1.4l2.585,3.855c.177.271.416.636.51.824,0-.271-.02-1.187-.02-1.6V54.532h1.438v7.294h-1.3Zm-11.5,0V54.532h5.064V55.96h-3.6v1.261h2.095v1.416H16.688V60.4h3.761v1.428Zm-4.145-2.584H9.48v2.584H8.021V54.532H11.21a2.263,2.263,0,0,1,2.511,2.313c0,1.689-1.125,2.4-2.636,2.4m.074-3.292H9.48v1.875h1.7c.677,0,1.042-.314,1.042-.949s-.417-.926-1.062-.926M3.21,61.94C1.3,61.94,0,60.544,0,58.189s1.324-3.772,3.231-3.772,3.2,1.4,3.2,3.752S5.106,61.94,3.21,61.94M3.2,55.865c-1.021,0-1.7.824-1.7,2.3s.709,2.322,1.73,2.322,1.7-.822,1.7-2.3S4.221,55.865,3.2,55.865" fill="rgba(250,105,15,0.1)"/></g><g transform="matrix(0.985, -0.174, 0.174, 0.985, 188.061, -22.667)"><path d="M54.228,11.987a23.321,23.321,0,0,0-2-3.4l-8.212,2.989a15.351,15.351,0,0,1,2.414,3.251Zm-36.3,9.083L9.71,24.059a23.89,23.89,0,0,0,.651,3.894l7.8-2.841a15.271,15.271,0,0,1-.24-4.041" fill="rgba(250,105,15,0.1)"/><path d="M36.156,9.66a15.2,15.2,0,0,1,4.438,3.16l8.212-2.989A23.477,23.477,0,0,0,6.292,25.3l8.214-2.989A15.218,15.218,0,0,1,36.156,9.66" fill="rgba(250,105,15,0.1)"/><path d="M44.916,24.668a15.063,15.063,0,0,1-1.379,5.274,15.279,15.279,0,0,1-20.282,7.383,15.11,15.11,0,0,1-4.446-3.155l-8.2,2.983A23.464,23.464,0,0,0,51,33.421a23.254,23.254,0,0,0,2.115-11.735l-8.2,2.983Z" fill="rgba(250,105,15,0.1)"/><path d="M46.935,14.641l-7.8,2.84a15.311,15.311,0,0,1,1.91,8.595l8.2-2.981a23.665,23.665,0,0,0-2.3-8.454M10.873,27.765l-7.8,2.843a23.758,23.758,0,0,0,3.67,7.955l8.195-2.984a15.339,15.339,0,0,1-4.061-7.814" fill="rgba(250,105,15,0.1)"/><path d="M53.038,9.823c-.259-.42-.528-.834-.814-1.236l-8.212,2.989a14.608,14.608,0,0,1,1.011,1.165Zm-35.145,12.9a14.534,14.534,0,0,1,.031-1.649L9.71,24.059c.042.526.109,1.049.188,1.57l8-2.91Z" fill="none"/><path d="M53.112,21.686l-8.2,2.983a15,15,0,0,1-.693,3.525l8.921-3.253a23.556,23.556,0,0,0-.033-3.255m-42.5,15.467A23.269,23.269,0,0,0,12.7,39.689l8.922-3.254a15.164,15.164,0,0,1-2.816-2.266Z" fill="none"/><path d="M52.689,54.532v.74h2.146v6.554h.813V55.272H57.8v-.74Zm-4.929.739v2.417h2v.74h-2v3.4h-.812V54.533h4.283v.739h-3.47Zm-3.718-.738h.813v7.294h-.812Zm-2.9,7.293V58.387H37.513v3.439H36.7V54.532h.813v3.116h3.626V54.532h.813v7.294Zm-8.667.115a3.476,3.476,0,0,1-2.449-1.01l.542-.6A2.769,2.769,0,0,0,32.5,61.2c.969,0,1.574-.48,1.574-1.251,0-.678-.406-1.062-1.74-1.542-1.574-.562-2.1-1.072-2.1-2.125,0-1.167.916-1.866,2.281-1.866a3.265,3.265,0,0,1,2.22.783l-.521.635a2.539,2.539,0,0,0-1.75-.678c-1,0-1.417.5-1.417,1.074,0,.6.271.947,1.73,1.47,1.615.583,2.115,1.125,2.115,2.209,0,1.146-.9,2.031-2.417,2.031m-5.742-.115-2.677-3.98c-.177-.271-.417-.636-.511-.824,0,.271.021,1.188.021,1.594v3.21H22.124V54.532h1.4l2.585,3.855c.177.271.416.636.51.824,0-.271-.02-1.187-.02-1.6V54.532h1.438v7.294h-1.3Zm-11.5,0V54.532h5.064V55.96h-3.6v1.261h2.095v1.416H16.688V60.4h3.761v1.428Zm-4.145-2.584H9.48v2.584H8.021V54.532H11.21a2.263,2.263,0,0,1,2.511,2.313c0,1.689-1.125,2.4-2.636,2.4m.074-3.292H9.48v1.875h1.7c.677,0,1.042-.314,1.042-.949s-.417-.926-1.062-.926M3.21,61.94C1.3,61.94,0,60.544,0,58.189s1.324-3.772,3.231-3.772,3.2,1.4,3.2,3.752S5.106,61.94,3.21,61.94M3.2,55.865c-1.021,0-1.7.824-1.7,2.3s.709,2.322,1.73,2.322,1.7-.822,1.7-2.3S4.221,55.865,3.2,55.865" fill="rgba(250,105,15,0.1)"/></g><g transform="matrix(0.985, -0.174, 0.174, 0.985, 233.042, 115.412)"><path d="M22.289,5.251a1.808,1.808,0,0,0-.894-1.033L12.876.14a1.563,1.563,0,0,0-.7-.14,2.948,2.948,0,0,0-.7.056L2.96,4.162A1.5,1.5,0,0,0,2.122,5.2L.027,14.385a1.762,1.762,0,0,0,.307,1.341l5.894,7.29a2.034,2.034,0,0,0,1.285.587H16.9a1.392,1.392,0,0,0,1.285-.587l5.894-7.29a1.907,1.907,0,0,0,.335-1.341L22.289,5.251Z" transform="translate(0)" fill="rgba(250,105,15,0.1)"/><path d="M218.06,27.547a2.788,2.788,0,0,0,1.173-.168.622.622,0,0,0,.335-.614.706.706,0,0,0-.447-.614,6.035,6.035,0,0,0-1.369-.614,11.079,11.079,0,0,1-1.285-.559,3.808,3.808,0,0,1-.978-.67,2.65,2.65,0,0,1-.615-.95,3.511,3.511,0,0,1-.223-1.313,2.9,2.9,0,0,1,1.117-2.374,4.81,4.81,0,0,1,3.045-.866,8.522,8.522,0,0,1,1.871.2,8.886,8.886,0,0,1,1.425.363l-.531,2.374c-.391-.14-.754-.223-1.145-.335a5.7,5.7,0,0,0-1.369-.14c-.95,0-1.424.251-1.424.782a1.4,1.4,0,0,0,.056.335.792.792,0,0,0,.251.279,5.426,5.426,0,0,0,.475.279,4.75,4.75,0,0,0,.81.335,10.6,10.6,0,0,1,1.62.726,3.058,3.058,0,0,1,1.006.782,2.166,2.166,0,0,1,.531.922,4.253,4.253,0,0,1,.168,1.173,2.68,2.68,0,0,1-1.2,2.4,5.939,5.939,0,0,1-3.352.81,8.481,8.481,0,0,1-2.374-.251c-.447-.112-.866-.251-1.285-.391l.5-2.458a10.1,10.1,0,0,0,1.564.475c.559.028,1.089.084,1.648.084m-15.39-3.072a6.7,6.7,0,0,1,.419-2.458,5.288,5.288,0,0,1,1.145-1.788,4.413,4.413,0,0,1,1.62-1.061,4.99,4.99,0,0,1,1.9-.363,4.69,4.69,0,0,1,3.575,1.4,5.769,5.769,0,0,1,1.313,4.078,4.531,4.531,0,0,1-.028.587c0,.223-.028.391-.028.559h-6.815a2.008,2.008,0,0,0,.866,1.48,3.605,3.605,0,0,0,2.067.559,10.572,10.572,0,0,0,1.62-.14,5.529,5.529,0,0,0,1.313-.419l.419,2.458a4.389,4.389,0,0,1-.642.251,5.426,5.426,0,0,1-.922.2c-.335.056-.67.112-1.061.168-.363.028-.754.056-1.145.056a6.435,6.435,0,0,1-2.514-.419,4.513,4.513,0,0,1-2.793-2.9,8.963,8.963,0,0,1-.307-2.235m7.067-1.145a2.4,2.4,0,0,0-.14-.754,1.767,1.767,0,0,0-.335-.642,1.912,1.912,0,0,0-.587-.475,2.015,2.015,0,0,0-1.732,0,1.932,1.932,0,0,0-.615.447,2.016,2.016,0,0,0-.391.67,3.658,3.658,0,0,0-.168.754h3.966M194.486,16.4l3.017-.475v3.128h3.631v2.514H197.5v3.743a2.791,2.791,0,0,0,.335,1.508,1.48,1.48,0,0,0,1.369.559,5.538,5.538,0,0,0,.978-.084,5.271,5.271,0,0,0,.95-.251l.419,2.346a9,9,0,0,1-1.229.391,8.045,8.045,0,0,1-1.648.168,5.053,5.053,0,0,1-2.039-.335,3.3,3.3,0,0,1-1.285-.922,3.9,3.9,0,0,1-.7-1.452,7.08,7.08,0,0,1-.168-1.871V16.4M182.28,24.474a6.7,6.7,0,0,1,.419-2.458,5.288,5.288,0,0,1,1.145-1.788,4.413,4.413,0,0,1,1.62-1.061,4.99,4.99,0,0,1,1.9-.363,4.69,4.69,0,0,1,3.575,1.4,5.769,5.769,0,0,1,1.313,4.078,4.533,4.533,0,0,1-.028.587,4.135,4.135,0,0,0-.028.559h-6.843a2.008,2.008,0,0,0,.866,1.48,3.605,3.605,0,0,0,2.067.559,10.572,10.572,0,0,0,1.62-.14,6.185,6.185,0,0,0,1.341-.419l.419,2.458a4.389,4.389,0,0,1-.642.251,5.425,5.425,0,0,1-.922.2c-.335.056-.67.112-1.061.168-.363.028-.754.056-1.145.056a6.435,6.435,0,0,1-2.514-.419,4.513,4.513,0,0,1-2.793-2.9,6.958,6.958,0,0,1-.307-2.235m7.067-1.145a2.4,2.4,0,0,0-.14-.754,1.767,1.767,0,0,0-.335-.642,1.912,1.912,0,0,0-.587-.475,2.015,2.015,0,0,0-1.732,0,1.822,1.822,0,0,0-.587.447,2.016,2.016,0,0,0-.391.67,3.659,3.659,0,0,0-.168.754h3.938m-18.519-3.91c.642-.168,1.313-.307,1.983-.419a15.583,15.583,0,0,1,2.542-.2,6.15,6.15,0,0,1,2.235.363,3.189,3.189,0,0,1,1.425.978,3.955,3.955,0,0,1,.754,1.536,7.856,7.856,0,0,1,.223,1.983V29.67H177V24.055a4.139,4.139,0,0,0-.391-2.067,1.577,1.577,0,0,0-1.424-.614,6.076,6.076,0,0,0-.7.028,4.233,4.233,0,0,0-.642.056V29.67h-3.017V19.419m-2.123,2.318c-.279-.056-.587-.14-.95-.2a5.565,5.565,0,0,0-1.173-.112,6.384,6.384,0,0,0-.7.056,4.336,4.336,0,0,0-.587.112v8.128h-3.017V19.614a14.711,14.711,0,0,1,1.9-.531,9.2,9.2,0,0,1,2.458-.251c.2,0,.391.028.587.028a3.168,3.168,0,0,1,.7.084c.223.028.447.056.7.112a2.319,2.319,0,0,1,.587.168l-.5,2.514m-18.742,2.737a6.7,6.7,0,0,1,.419-2.458,5.288,5.288,0,0,1,1.145-1.788,4.413,4.413,0,0,1,1.62-1.061,4.99,4.99,0,0,1,1.9-.363,4.69,4.69,0,0,1,3.575,1.4,5.742,5.742,0,0,1,1.313,4.05,4.533,4.533,0,0,1-.028.587,4.133,4.133,0,0,0-.028.559h-6.843a2.008,2.008,0,0,0,.866,1.48,3.605,3.605,0,0,0,2.067.559,10.572,10.572,0,0,0,1.62-.14A7.1,7.1,0,0,0,158.9,26.9l.419,2.458a4.389,4.389,0,0,1-.642.251,5.425,5.425,0,0,1-.922.2c-.335.056-.67.112-1.061.168-.363.028-.754.056-1.145.056a6.435,6.435,0,0,1-2.514-.419,4.513,4.513,0,0,1-2.793-2.9,10.2,10.2,0,0,1-.279-2.235m7.095-1.145a2.4,2.4,0,0,0-.14-.754,1.766,1.766,0,0,0-.335-.642,1.912,1.912,0,0,0-.587-.475,2.015,2.015,0,0,0-1.732,0,1.931,1.931,0,0,0-.614.447,2.016,2.016,0,0,0-.391.67,3.658,3.658,0,0,0-.168.754h3.966m-11.983.978c0-1.955-.726-2.9-2.151-2.9a3.47,3.47,0,0,0-.922.112,2.371,2.371,0,0,0-.726.307V27.3c.14.028.335.056.559.084a6.319,6.319,0,0,0,.754.028,2.132,2.132,0,0,0,1.871-.838,4,4,0,0,0,.615-2.262m3.072.112a6.631,6.631,0,0,1-.391,2.318A4.72,4.72,0,0,1,146.7,28.5a5.065,5.065,0,0,1-1.732,1.145,6.678,6.678,0,0,1-2.346.391c-.363,0-.754-.028-1.145-.056s-.782-.084-1.173-.112c-.363-.056-.726-.112-1.089-.2a3.649,3.649,0,0,1-.922-.251V14.475L141.3,14v5.307a6.706,6.706,0,0,1,1.061-.335,5.565,5.565,0,0,1,1.173-.112,4.564,4.564,0,0,1,2.011.419A4.06,4.06,0,0,1,147,20.4a4.778,4.778,0,0,1,.894,1.76,9.853,9.853,0,0,1,.251,2.262m-12.737,4.916a19.393,19.393,0,0,1-4.525.587,6.2,6.2,0,0,1-2.262-.363,3.682,3.682,0,0,1-1.425-1.006,4.189,4.189,0,0,1-.754-1.592,8.077,8.077,0,0,1-.223-2.011V19.056h3.017v5.558a4.264,4.264,0,0,0,.391,2.095,1.529,1.529,0,0,0,1.425.642,6.076,6.076,0,0,0,.7-.028,4,4,0,0,0,.642-.084V19.056h3.017V29.334m-17.6-6.424c.307-.335.587-.67.922-1.006.307-.363.614-.7.922-1.033.307-.363.587-.67.838-.978s.5-.587.7-.81h3.575c-.726.81-1.425,1.62-2.095,2.374-.7.754-1.425,1.536-2.235,2.318a13.956,13.956,0,0,1,1.257,1.313c.419.5.838,1.006,1.257,1.564.391.531.782,1.089,1.117,1.62s.614,1.033.838,1.48h-3.464c-.223-.363-.475-.726-.754-1.145s-.587-.838-.866-1.285a13.807,13.807,0,0,0-1.006-1.229,6.639,6.639,0,0,0-1.006-.978v4.665H114.8V14.475L117.814,14v8.91" transform="translate(-82.733 -10.09)" fill="rgba(250,105,15,0.1)"/><path d="M28.517,21.719h0c-.028,0-.056,0-.056-.028s-.056-.028-.112-.028a1.36,1.36,0,0,0-.335-.028.354.354,0,0,1-.168-.028h-.028a5.645,5.645,0,0,1-.95-.168.337.337,0,0,1-.2-.2h0l-.223-.056a7.285,7.285,0,0,0-.112-2.458,7.567,7.567,0,0,0-.978-2.29l.168-.168h0v-.028a.39.39,0,0,1,.084-.251,5,5,0,0,1,.782-.559h0l.168-.084c.112-.056.2-.112.307-.168.028-.028.056-.028.084-.056s0-.028,0-.056h0a.546.546,0,0,0,.112-.782.533.533,0,0,0-.391-.2.667.667,0,0,0-.391.14h0l-.028.028c-.028.028-.056.056-.084.056a1.807,1.807,0,0,0-.223.251c-.028.056-.084.084-.112.112h0a3.673,3.673,0,0,1-.7.614.4.4,0,0,1-.168.056.168.168,0,0,1-.112-.028H24.83l-.223.14c-.223-.223-.475-.447-.7-.67a7.157,7.157,0,0,0-3.631-1.452l-.028-.223h0v.028a.384.384,0,0,1-.14-.223,5.58,5.58,0,0,1,.056-.95v-.028c0-.056.028-.112.028-.168.028-.112.028-.223.056-.335v-.168h0a.553.553,0,0,0-.475-.587.56.56,0,0,0-.475.2.551.551,0,0,0-.168.391h0v.14a1.4,1.4,0,0,0,.056.335.354.354,0,0,1,.028.168v.028a5.264,5.264,0,0,1,.056.95.384.384,0,0,1-.14.223v.056h0L19.1,13.4c-.307.028-.614.084-.95.14a6.658,6.658,0,0,0-3.436,1.955l-.168-.112h-.028c-.028,0-.056.028-.112.028a.4.4,0,0,1-.168-.056,5.15,5.15,0,0,1-.7-.642h0c-.028-.056-.084-.084-.112-.112-.084-.084-.14-.168-.223-.251-.028-.028-.056-.028-.084-.056l-.028-.028h0a.667.667,0,0,0-.391-.14.423.423,0,0,0-.391.2.6.6,0,0,0,.112.782h0a.027.027,0,0,1,.028.028s.056.056.084.056a3.047,3.047,0,0,0,.307.168l.168.084h0a3.965,3.965,0,0,1,.782.559.282.282,0,0,1,.084.251v-.028h0l.168.168c-.028.056-.056.084-.084.14a6.633,6.633,0,0,0-.978,4.581l-.223.056h0a.027.027,0,0,1-.028.028.44.44,0,0,1-.2.2,5.188,5.188,0,0,1-.95.168h0a.354.354,0,0,0-.168.028c-.112,0-.223.028-.335.028-.028,0-.056.028-.112.028-.028,0-.028,0-.056.028h0a.545.545,0,0,0-.447.642h0a.519.519,0,0,0,.559.391.252.252,0,0,0,.14-.028h0c.028,0,.028,0,.028-.028s.084,0,.112,0c.112-.028.223-.084.307-.112a.4.4,0,0,1,.168-.056h.028a4.979,4.979,0,0,1,.922-.251h.028a.317.317,0,0,1,.223.084.027.027,0,0,1,.028.028h0l.251-.028a6.742,6.742,0,0,0,2.29,3.268,4.43,4.43,0,0,0,.754.5l-.14.2h0a.027.027,0,0,0,.028.028.33.33,0,0,1,.028.279,4.583,4.583,0,0,1-.447.81v.028a.49.49,0,0,1-.112.14c-.056.056-.112.168-.2.279-.028.028-.028.056-.056.084a.027.027,0,0,1-.028.028h0a.575.575,0,0,0,.223.754.518.518,0,0,0,.2.056.626.626,0,0,0,.531-.335h0a.027.027,0,0,1,.028-.028c0-.028.028-.056.056-.084.028-.112.084-.2.112-.307l.056-.168h0a4.727,4.727,0,0,1,.363-.866.434.434,0,0,1,.223-.168c.028,0,.028,0,.028-.028h0l.112-.223a6.575,6.575,0,0,0,2.43.447,5.593,5.593,0,0,0,1.508-.2,8.346,8.346,0,0,0,.894-.251l.112.2h0c.028,0,.028,0,.028.028a.434.434,0,0,1,.223.168,4.727,4.727,0,0,1,.363.866v.028L22.93,28a1,1,0,0,0,.112.307c.028.028.028.056.056.084a.027.027,0,0,0,.028.028h0a.626.626,0,0,0,.531.335.657.657,0,0,0,.223-.056.467.467,0,0,0,.251-.307.719.719,0,0,0-.028-.419h0a.027.027,0,0,0-.028-.028c0-.028-.028-.056-.056-.084a1,1,0,0,0-.2-.279.49.49,0,0,0-.112-.14v-.056a3.3,3.3,0,0,1-.447-.81.331.331,0,0,1,.028-.279.027.027,0,0,1,.028-.028h0l-.084-.223a6.9,6.9,0,0,0,3.017-3.8l.223.028h0a.027.027,0,0,0,.028-.028.317.317,0,0,1,.223-.084h.028a4.7,4.7,0,0,1,.894.251h.028a.4.4,0,0,0,.168.056,1.5,1.5,0,0,0,.307.14c.028,0,.056.028.112.028.028,0,.028,0,.056.028h0a.252.252,0,0,0,.14.028.608.608,0,0,0,.559-.391.659.659,0,0,0-.5-.587Zm-8.072-.866-.754.363-.754-.363-.2-.81.531-.67h.838l.531.67ZM25,19.038a5.347,5.347,0,0,1,.112,1.76l-2.654-.754h0a.457.457,0,0,1-.335-.559.45.45,0,0,1,.112-.2l2.095-1.9A5.683,5.683,0,0,1,25,19.038Zm-1.508-2.681-2.29,1.62a.475.475,0,0,1-.614-.112.254.254,0,0,1-.084-.2l-.168-2.821a5.257,5.257,0,0,1,3.156,1.508h0Zm-5.056-1.425.559-.112-.14,2.793h0a.465.465,0,0,1-.475.447A.657.657,0,0,1,18.154,18l-2.318-1.648a5.547,5.547,0,0,1,2.6-1.425ZM15.026,17.39l2.067,1.843h0a.449.449,0,0,1,.056.642.314.314,0,0,1-.223.14l-2.709.782A5.88,5.88,0,0,1,15.026,17.39Zm-.475,4.72,2.765-.475a.457.457,0,0,1,.475.363.331.331,0,0,1-.028.279h0L16.7,24.848a5.5,5.5,0,0,1-2.151-2.737Zm6.34,3.464a5.652,5.652,0,0,1-1.2.14,6.26,6.26,0,0,1-1.76-.279L19.3,22.948a.433.433,0,0,1,.559-.112,1.4,1.4,0,0,1,.223.2h0l1.341,2.43A4.538,4.538,0,0,0,20.891,25.574Zm3.408-2.43a5.333,5.333,0,0,1-1.676,1.676l-1.089-2.626a.454.454,0,0,1,.251-.531.816.816,0,0,1,.251-.056l2.793.475A4.194,4.194,0,0,1,24.3,23.144Z" transform="translate(-7.541 -7.698)" fill="#fff0e6"/></g><path d="M19.3,7.451H7.869L5.687,12.728H-.153L10.824-11.9h5.629L27.466,12.728H21.485ZM17.509,3.123,13.6-6.306,9.7,3.123ZM40.694-11.9a13.682,13.682,0,0,1,5.682,1.091,8.442,8.442,0,0,1,3.712,3.1,8.529,8.529,0,0,1,1.3,4.75,8.552,8.552,0,0,1-1.3,4.732,8.291,8.291,0,0,1-3.712,3.1,13.876,13.876,0,0,1-5.682,1.073H35.734v6.79h-5.7V-11.9ZM40.378,1.294A5.986,5.986,0,0,0,44.283.185,3.86,3.86,0,0,0,45.62-2.964a3.9,3.9,0,0,0-1.337-3.184,5.986,5.986,0,0,0-3.905-1.108H35.734V1.294ZM55.436-11.9h5.7V12.728h-5.7Z" transform="matrix(0.985, -0.174, 0.174, 0.985, 47.391, 175.067)" fill="rgba(250,105,15,0.1)"/><path d="M19.3,7.451H7.869L5.687,12.728H-.153L10.824-11.9h5.629L27.466,12.728H21.485ZM17.509,3.123,13.6-6.306,9.7,3.123ZM40.694-11.9a13.682,13.682,0,0,1,5.682,1.091,8.442,8.442,0,0,1,3.712,3.1,8.529,8.529,0,0,1,1.3,4.75,8.552,8.552,0,0,1-1.3,4.732,8.291,8.291,0,0,1-3.712,3.1,13.876,13.876,0,0,1-5.682,1.073H35.734v6.79h-5.7V-11.9ZM40.378,1.294A5.986,5.986,0,0,0,44.283.185,3.86,3.86,0,0,0,45.62-2.964a3.9,3.9,0,0,0-1.337-3.184,5.986,5.986,0,0,0-3.905-1.108H35.734V1.294ZM55.436-11.9h5.7V12.728h-5.7Z" transform="matrix(0.985, -0.174, 0.174, 0.985, 257.952, 69.667)" fill="rgba(250,105,15,0.1)"/><path d="M19.3,7.451H7.869L5.687,12.728H-.153L10.824-11.9h5.629L27.466,12.728H21.485ZM17.509,3.123,13.6-6.306,9.7,3.123ZM40.694-11.9a13.682,13.682,0,0,1,5.682,1.091,8.442,8.442,0,0,1,3.712,3.1,8.529,8.529,0,0,1,1.3,4.75,8.552,8.552,0,0,1-1.3,4.732,8.291,8.291,0,0,1-3.712,3.1,13.876,13.876,0,0,1-5.682,1.073H35.734v6.79h-5.7V-11.9ZM40.378,1.294A5.986,5.986,0,0,0,44.283.185,3.86,3.86,0,0,0,45.62-2.964a3.9,3.9,0,0,0-1.337-3.184,5.986,5.986,0,0,0-3.905-1.108H35.734V1.294ZM55.436-11.9h5.7V12.728h-5.7Z" transform="matrix(0.985, -0.174, 0.174, 0.985, 49.844, 0.067)" fill="rgba(250,105,15,0.1)"/><g transform="matrix(0.985, -0.174, 0.174, 0.985, 292.174, 162.146)"><path d="M54.228,11.987a23.321,23.321,0,0,0-2-3.4l-8.212,2.989a15.351,15.351,0,0,1,2.414,3.251Zm-36.3,9.083L9.71,24.059a23.89,23.89,0,0,0,.651,3.894l7.8-2.841a15.271,15.271,0,0,1-.24-4.041" fill="rgba(250,105,15,0.1)"/><path d="M36.156,9.66a15.2,15.2,0,0,1,4.438,3.16l8.212-2.989A23.477,23.477,0,0,0,6.292,25.3l8.214-2.989A15.218,15.218,0,0,1,36.156,9.66" fill="rgba(250,105,15,0.1)"/><path d="M44.916,24.668a15.063,15.063,0,0,1-1.379,5.274,15.279,15.279,0,0,1-20.282,7.383,15.11,15.11,0,0,1-4.446-3.155l-8.2,2.983A23.464,23.464,0,0,0,51,33.421a23.254,23.254,0,0,0,2.115-11.735l-8.2,2.983Z" fill="rgba(250,105,15,0.1)"/><path d="M46.935,14.641l-7.8,2.84a15.311,15.311,0,0,1,1.91,8.595l8.2-2.981a23.665,23.665,0,0,0-2.3-8.454M10.873,27.765l-7.8,2.843a23.758,23.758,0,0,0,3.67,7.955l8.195-2.984a15.339,15.339,0,0,1-4.061-7.814" fill="rgba(250,105,15,0.1)"/><path d="M53.038,9.823c-.259-.42-.528-.834-.814-1.236l-8.212,2.989a14.608,14.608,0,0,1,1.011,1.165Zm-35.145,12.9a14.534,14.534,0,0,1,.031-1.649L9.71,24.059c.042.526.109,1.049.188,1.57l8-2.91Z" fill="none"/><path d="M53.112,21.686l-8.2,2.983a15,15,0,0,1-.693,3.525l8.921-3.253a23.556,23.556,0,0,0-.033-3.255m-42.5,15.467A23.269,23.269,0,0,0,12.7,39.689l8.922-3.254a15.164,15.164,0,0,1-2.816-2.266Z" fill="none"/><path d="M52.689,54.532v.74h2.146v6.554h.813V55.272H57.8v-.74Zm-4.929.739v2.417h2v.74h-2v3.4h-.812V54.533h4.283v.739h-3.47Zm-3.718-.738h.813v7.294h-.812Zm-2.9,7.293V58.387H37.513v3.439H36.7V54.532h.813v3.116h3.626V54.532h.813v7.294Zm-8.667.115a3.476,3.476,0,0,1-2.449-1.01l.542-.6A2.769,2.769,0,0,0,32.5,61.2c.969,0,1.574-.48,1.574-1.251,0-.678-.406-1.062-1.74-1.542-1.574-.562-2.1-1.072-2.1-2.125,0-1.167.916-1.866,2.281-1.866a3.265,3.265,0,0,1,2.22.783l-.521.635a2.539,2.539,0,0,0-1.75-.678c-1,0-1.417.5-1.417,1.074,0,.6.271.947,1.73,1.47,1.615.583,2.115,1.125,2.115,2.209,0,1.146-.9,2.031-2.417,2.031m-5.742-.115-2.677-3.98c-.177-.271-.417-.636-.511-.824,0,.271.021,1.188.021,1.594v3.21H22.124V54.532h1.4l2.585,3.855c.177.271.416.636.51.824,0-.271-.02-1.187-.02-1.6V54.532h1.438v7.294h-1.3Zm-11.5,0V54.532h5.064V55.96h-3.6v1.261h2.095v1.416H16.688V60.4h3.761v1.428Zm-4.145-2.584H9.48v2.584H8.021V54.532H11.21a2.263,2.263,0,0,1,2.511,2.313c0,1.689-1.125,2.4-2.636,2.4m.074-3.292H9.48v1.875h1.7c.677,0,1.042-.314,1.042-.949s-.417-.926-1.062-.926M3.21,61.94C1.3,61.94,0,60.544,0,58.189s1.324-3.772,3.231-3.772,3.2,1.4,3.2,3.752S5.106,61.94,3.21,61.94M3.2,55.865c-1.021,0-1.7.824-1.7,2.3s.709,2.322,1.73,2.322,1.7-.822,1.7-2.3S4.221,55.865,3.2,55.865" fill="rgba(250,105,15,0.1)"/></g><path d="M9.077.348A16.609,16.609,0,0,1,4.423-.3,10.916,10.916,0,0,1,.812-2L2.407-5.539A10.824,10.824,0,0,0,5.51-4a11.655,11.655,0,0,0,3.6.58,5.745,5.745,0,0,0,2.958-.595A1.8,1.8,0,0,0,13.021-5.6a1.511,1.511,0,0,0-.565-1.2,4.287,4.287,0,0,0-1.45-.768q-.884-.29-2.392-.638a33.073,33.073,0,0,1-3.8-1.1,6.172,6.172,0,0,1-2.537-1.769,4.777,4.777,0,0,1-1.059-3.248,5.65,5.65,0,0,1,.957-3.2,6.438,6.438,0,0,1,2.885-2.277,11.775,11.775,0,0,1,4.713-.841,15.6,15.6,0,0,1,3.8.464A11.223,11.223,0,0,1,16.82-18.85l-1.45,3.567a11.319,11.319,0,0,0-5.626-1.6,5.275,5.275,0,0,0-2.914.638,1.947,1.947,0,0,0-.943,1.682,1.645,1.645,0,0,0,1.088,1.551,17.074,17.074,0,0,0,3.32,1,33.073,33.073,0,0,1,3.8,1.1,6.291,6.291,0,0,1,2.538,1.74A4.665,4.665,0,0,1,17.69-5.945a5.543,5.543,0,0,1-.972,3.176A6.527,6.527,0,0,1,13.8-.493,11.881,11.881,0,0,1,9.077.348ZM29-12.035a6.833,6.833,0,0,1,4.089,1.986A5.476,5.476,0,0,1,34.51-6.206a6.064,6.064,0,0,1-.928,3.263A6.464,6.464,0,0,1,30.754-.551a10.831,10.831,0,0,1-4.654.9,15.966,15.966,0,0,1-4.22-.565,10.869,10.869,0,0,1-3.523-1.61l1.827-3.6a8.851,8.851,0,0,0,2.682,1.349,10.338,10.338,0,0,0,3.118.478,4.942,4.942,0,0,0,2.784-.681,2.189,2.189,0,0,0,1.015-1.929q0-2.494-3.8-2.494H23.838v-3.1l4.176-4.727H19.372V-20.3h14.21v3.045Z" transform="matrix(0.985, -0.174, 0.174, 0.985, 194.216, 187.677)" fill="rgba(250,105,15,0.1)"/></g></svg>