<svg xmlns="http://www.w3.org/2000/svg" xmlns:xlink="http://www.w3.org/1999/xlink" width="478" height="478" viewBox="0 0 478 478"><defs><clipPath id="b"><path d="M0 0h478v478H0z"/></clipPath></defs><g id="a" clip-path="url(#b)"><path fill="#e7eff3" d="M0 0h478v478H0z"/><g transform="translate(9.648 30.306)"><g transform="translate(169.723 300.928)"><path fill="#195f8c" d="M48.25 33.69v1.2h-.54v-7.98h.54v3.66a2.7 2.7 0 0 1 2.3-1.38 2.77 2.77 0 0 1 2.71 2.9v.02a2.8 2.8 0 0 1-2.7 2.92 2.7 2.7 0 0 1-2.3-1.34m4.43-1.56v-.02a2.25 2.25 0 0 0-2.19-2.4 2.33 2.33 0 0 0-2.28 2.4v.01a2.33 2.33 0 0 0 2.28 2.4 2.2 2.2 0 0 0 2.2-2.39m6.33-2.82h.6l-2.43 5.8c-.5 1.17-1.06 1.59-1.86 1.59a3 3 0 0 1-1.1-.24l.18-.47a2 2 0 0 0 .95.2c.58 0 .96-.34 1.38-1.3l-2.67-5.58h.62l2.32 5zm5.32-2.07h3.44a2.8 2.8 0 0 1 2 .67 1.7 1.7 0 0 1 .51 1.27v.02a1.8 1.8 0 0 1-1.08 1.71 1.9 1.9 0 0 1 1.52 1.86v.02c0 1.37-1.12 2.1-2.83 2.1h-3.55zm4.6 2.16c0-.6-.48-.97-1.34-.97h-1.94v2.04h1.84c.87 0 1.45-.34 1.45-1.04zm-1.13 2.21h-2.14v2.1h2.24c.92 0 1.47-.36 1.47-1.05v-.02c0-.65-.5-1.03-1.57-1.03m4.28-2.49h1.33v1.3a2.04 2.04 0 0 1 2.04-1.41v1.4h-.08c-1.16 0-1.97.75-1.97 2.28v2.2H72.1zm4.01 2.92v-.02a3.08 3.08 0 0 1 6.16-.02v.02a3 3 0 0 1-3.1 3.01 2.97 2.97 0 0 1-3.07-2.98Zm4.84 0v-.02a1.8 1.8 0 0 0-1.78-1.86A1.75 1.75 0 0 0 77.42 32v.02a1.76 1.76 0 1 0 3.51.02m2.3 1.2v-.03c0-1.25.96-1.86 2.38-1.86a5 5 0 0 1 1.55.24v-.14q-.02-1.24-1.43-1.26a4 4 0 0 0-1.66.37l-.35-1.04a5 5 0 0 1 2.18-.47 2.6 2.6 0 0 1 1.91.64 2.4 2.4 0 0 1 .63 1.79v3.43h-1.3v-.72a2.4 2.4 0 0 1-1.87.84 1.84 1.84 0 0 1-2.05-1.79m3.95-.42v-.4a4 4 0 0 0-1.3-.23c-.86 0-1.37.36-1.37.96v.02c0 .56.5.88 1.13.88.87 0 1.54-.5 1.54-1.24Zm2.55-.8a2.76 2.76 0 0 1 2.68-3 2.4 2.4 0 0 1 1.97 1.02v-3.12h1.33v7.99h-1.33v-.96a2.3 2.3 0 0 1-1.97 1.07 2.77 2.77 0 0 1-2.68-3m4.67 0a1.73 1.73 0 0 0-1.67-1.85 1.7 1.7 0 0 0-1.66 1.85v.02a1.68 1.68 0 1 0 3.34 0Zm2.65.02v-.02a3 3 0 0 1 3.01-3.02 3 3 0 0 1 2.31 1l-.83.9a2 2 0 0 0-1.49-.73 1.75 1.75 0 0 0-1.67 1.84v.02a1.75 1.75 0 0 0 1.72 1.85 2 2 0 0 0 1.5-.71l.8.79a3.03 3.03 0 0 1-5.35-1.9Zm6.08 0v-.02a3.09 3.09 0 0 1 6.17-.02v.02a3 3 0 0 1-3.1 3.01 2.97 2.97 0 0 1-3.07-2.98Zm4.84 0v-.02a1.8 1.8 0 0 0-1.77-1.86 1.75 1.75 0 0 0-1.74 1.84v.02a1.76 1.76 0 1 0 3.51.02m2.67-2.92h1.33V30a2.1 2.1 0 0 1 1.76-1 1.8 1.8 0 0 1 1.72 1.02A2.3 2.3 0 0 1 117.4 29a1.94 1.94 0 0 1 2.03 2.2v3.71h-1.33v-3.3c0-.92-.42-1.4-1.17-1.4s-1.24.5-1.24 1.43v3.26h-1.32v-3.3c0-.9-.44-1.4-1.17-1.4a1.26 1.26 0 0 0-1.24 1.43v3.28h-1.32zM53.26 17.5 47.83 2.4a3 3 0 0 1-.17-.73A1.3 1.3 0 0 1 49 .38a1.4 1.4 0 0 1 1.35 1.1l4.5 13.03 4.53-13.06A1.36 1.36 0 0 1 60.69.4h.14a1.4 1.4 0 0 1 1.39 1.06l4.49 13.06 4.57-13.1a1.31 1.31 0 0 1 2.59.22 3 3 0 0 1-.18.73L68.23 17.5a1.6 1.6 0 0 1-1.45 1.2h-.11a1.5 1.5 0 0 1-1.46-1.2L60.76 4.65l-4.5 12.85a1.5 1.5 0 0 1-1.45 1.2h-.07a1.6 1.6 0 0 1-1.49-1.2M92.82 1.7a1.33 1.33 0 1 1 2.67 0v3.07a7.3 7.3 0 0 1 6.16-4.39 1.3 1.3 0 0 1 1.32 1.35 1.3 1.3 0 0 1-1.18 1.36c-3.46.41-6.3 3-6.3 8.17v6.08a1.33 1.33 0 1 1-2.67 0zm18.71 17.15c-4.82 0-8.75-3.74-8.75-9.22v-.07c0-5.1 3.56-9.22 8.41-9.22 5.2 0 8.15 4.28 8.15 8.98a1.23 1.23 0 0 1-1.23 1.24h-12.69c.37 3.84 3.05 6 6.18 6a7 7 0 0 0 5.06-2.06 1.13 1.13 0 0 1 1.9.83 1.1 1.1 0 0 1-.42.85 9 9 0 0 1-6.61 2.67m5.19-10.25c-.27-3.22-2.1-6.03-5.6-6.03-3.06 0-5.37 2.57-5.7 6.03zM73.9 13.3v-.07c0-3.76 3.12-5.76 7.64-5.76a19 19 0 0 1 5.5.76V7.6c0-3.21-1.98-4.87-5.33-4.87a9 9 0 0 0-4.15.82 1 1 0 0 1-.49.1A1.2 1.2 0 0 1 75.9 2.5a1.1 1.1 0 0 1 .73-1.11 12 12 0 0 1 5.37-1 7.8 7.8 0 0 1 5.76 1.97 7 7 0 0 1 1.84 5.21v9.85a1.26 1.26 0 0 1-1.29 1.32 1.24 1.24 0 0 1-1.27-1.25v-1.7a7.8 7.8 0 0 1-6.45 3.08c-3.32 0-6.67-1.9-6.67-5.56m13.16-1.38V10.2a19 19 0 0 0-5.26-.77c-3.34 0-5.2 1.46-5.2 3.7v.07c0 2.25 2.06 3.56 4.48 3.56 3.28 0 5.97-2 5.97-4.83M4.87 1.5A2.5 2.5 0 0 0 1.5.24 2.47 2.47 0 0 0 .26 3.63l5.66 12.31c.9 1.93 1.84 2.95 3.6 2.95 1.88 0 2.7-1.1 3.6-2.95L18.1 5.07a.7.7 0 0 1 .72-.46.8.8 0 0 1 .78.8v10.52c0 1.63.9 2.96 2.63 2.96a2.67 2.67 0 0 0 2.67-2.96v-8.6a2.65 2.65 0 0 1 2.81-2.75 2.6 2.6 0 0 1 2.7 2.74v8.61c0 1.63.9 2.96 2.63 2.96a2.67 2.67 0 0 0 2.67-2.96v-8.6a2.65 2.65 0 0 1 2.81-2.75 2.6 2.6 0 0 1 2.7 2.74v8.61c0 1.63.9 2.96 2.63 2.96a2.67 2.67 0 0 0 2.67-2.96v-9.8A6.14 6.14 0 0 0 40.14 0a8.2 8.2 0 0 0-5.66 2.41A6.3 6.3 0 0 0 29.02 0c-2.86 0-5.35 2.4-5.35 2.4A6.4 6.4 0 0 0 18.9 0a5.85 5.85 0 0 0-5.76 3.91l-3.62 8.53zm114.68 1.07v-.02a2.2 2.2 0 1 1 4.42 0 2.2 2.2 0 1 1-4.42.02m4-.02a1.79 1.79 0 1 0-3.58 0v.02a1.79 1.79 0 1 0 3.57-.02"/><path fill="#195f8c" d="M120.92 1.68a.24.24 0 0 1 .24-.24h.73a.8.8 0 0 1 .63.23.7.7 0 0 1 .19.48v.01a.7.7 0 0 1-.43.65l.32.4a.3.3 0 0 1 .08.18.22.22 0 0 1-.23.22.3.3 0 0 1-.23-.12l-.45-.58h-.38v.46a.24.24 0 0 1-.47 0Zm.94.8q.36 0 .36-.3t-.36-.31h-.47v.61Z"/></g><path fill="#3c9bcd" d="m205.37 227.33 21.22-21.22a4.23 4.23 0 0 1 6 0l21.21 21.22a4.24 4.24 0 0 1-6 6l-13.97-13.98v40.68a4.1 4.1 0 0 1-4.13 4.13 4.3 4.3 0 0 1-4.35-4.13v-40.68l-13.99 13.98a4.24 4.24 0 1 1-6-6"/><g transform="translate(174.255 62.894)"><path fill="#417da5" d="M80.66 22.89a25.72 25.72 0 0 0-51.13 0 25.72 25.72 0 0 0 2.83 51.28h22.73a14.36 14.36 0 1 0 0-28.71 8.38 8.38 0 1 1 5.95-14.28 2.99 2.99 0 1 0 4.23-4.22A14.35 14.35 0 1 0 55.1 51.44a8.38 8.38 0 0 1 0 16.76H32.36a19.74 19.74 0 1 1 0-39.49 3 3 0 0 0 2.99-2.99 19.74 19.74 0 1 1 39.48 0 3 3 0 0 0 3 2.99 19.74 19.74 0 0 1 0 39.48 2.99 2.99 0 0 0 0 5.98 25.72 25.72 0 0 0 2.82-51.29ZM7.37 97.11c-.54-.21-1.03-.38-1.73-.62-1.27-.4-2.5-.86-2.5-1.92s.8-1.59 2.04-1.59a4.7 4.7 0 0 1 3.25 1.38l1.08-1.6a5.6 5.6 0 0 0-4.38-1.67c-2.26 0-4.32 1.3-4.32 3.67a3.3 3.3 0 0 0 2.03 3.08 10 10 0 0 0 1.75.68c.86.3 2.89.73 2.89 2.13s-1.27 1.84-2.46 1.84a5.3 5.3 0 0 1-3.78-1.84L0 102.15a6.2 6.2 0 0 0 5 2.3 5.5 5.5 0 0 0 3.56-1.13 3.6 3.6 0 0 0 1.32-2.91 3.2 3.2 0 0 0-1.03-2.38 5 5 0 0 0-1.48-.92m9.39-6.01a10 10 0 0 0-4.8 1.29l.77 1.73A8 8 0 0 1 16.6 93c1.87 0 3.19.97 3.19 2.92v.5l-3.43.14c-2.97.14-5.02 1.4-5.02 3.92s2.05 3.96 4.43 3.96a5.3 5.3 0 0 0 4.07-1.91l.03 1.62h2.5V96.7c0-2.19-.5-3.27-1.37-4.16a5.5 5.5 0 0 0-4.23-1.46m3.05 9.65a4 4 0 0 1-3.27 1.87c-1.67 0-2.65-1-2.65-2.21s.84-2.11 2.92-2.22l3-.19ZM37.4 91.1a6.36 6.36 0 0 0-6.5 6.63c0 4.05 2.62 6.72 6.43 6.72a7.6 7.6 0 0 0 5.64-2.02l-1.08-1.49a7 7 0 0 1-4.24 1.49 3.95 3.95 0 0 1-4.13-4.08h9.87a11 11 0 0 0 .09-1.13 5.85 5.85 0 0 0-6.07-6.13m-3.85 5.52a3.77 3.77 0 0 1 3.78-3.67 3.7 3.7 0 0 1 3.7 3.67Zm18.22.5c-.54-.21-1.03-.38-1.73-.62-1.27-.4-2.51-.86-2.51-1.92s.81-1.59 2.05-1.59a4.7 4.7 0 0 1 3.24 1.38l1.08-1.6a5.6 5.6 0 0 0-4.37-1.67c-2.27 0-4.32 1.3-4.32 3.67a3.3 3.3 0 0 0 2.02 3.08 10 10 0 0 0 1.76.68c.86.3 2.89.72 2.89 2.13s-1.27 1.83-2.46 1.83a5.3 5.3 0 0 1-3.78-1.83l-1.24 1.5a6.2 6.2 0 0 0 5 2.3 5.5 5.5 0 0 0 3.55-1.13 3.6 3.6 0 0 0 1.33-2.91 3.2 3.2 0 0 0-1.03-2.38 5 5 0 0 0-1.48-.92m11.06-6.01a5.4 5.4 0 0 0-4.56 2.26h-.06v-2.01h-2.48v17.7h2.6v-6.92l.02.03a5 5 0 0 0 4.43 2.3c3.8 0 6.23-2.92 6.23-6.73s-2.4-6.64-6.18-6.64m-.54 11.14c-2.57 0-4.08-1.97-4.08-4.53s1.51-4.51 4.08-4.51 4.07 1.94 4.07 4.5-1.5 4.54-4.07 4.54m17.23-10.89h2.6v12.82h-2.6zm11.33-.24a4.3 4.3 0 0 0-3.91 2.26h-.08l.02-2.03H84.3v12.83h2.6V97.7c0-2.46.88-4.48 3.29-4.48 2.29 0 2.67 1.62 2.67 3.78v7.15h2.59v-7.59c0-3.07-.95-5.48-4.59-5.48m16.76.27.02 2.02h-.08a5.1 5.1 0 0 0-4.48-2.26 6.46 6.46 0 0 0 0 12.9 5.1 5.1 0 0 0 4.48-2.3h.06v.5a5.8 5.8 0 0 1-.97 3.6 4.4 4.4 0 0 1-3.51 1.4 8 8 0 0 1-4.6-1.62l-1.21 1.8a10 10 0 0 0 5.72 1.92 6.8 6.8 0 0 0 5.72-2.46c.95-1.16 1.4-2.7 1.4-5.53v-9.98Zm-4 10.54c-2.62 0-4.08-1.92-4.08-4.35s1.46-4.37 4.08-4.37 4.08 1.94 4.08 4.37-1.43 4.35-4.08 4.35M25.4 86.64a5.4 5.4 0 0 0-.86 3.43v14.09h2.57V93.44h3.05v-2.08h-3.05v-1.43c0-1.46.27-2.73 1.97-2.73a5 5 0 0 1 1.08.14v-1.96a8 8 0 0 0-1.67-.15 3.9 3.9 0 0 0-3.08 1.4m47.71 6.67h-.08l.03-1.96h-2.6v12.82h2.6v-6.4a5.7 5.7 0 0 1 .77-3.24 2.7 2.7 0 0 1 2.1-1.09 3.4 3.4 0 0 1 1.41.27v-2.48a4 4 0 0 0-1.08-.13 3.4 3.4 0 0 0-3.15 2.22"/><circle cx="1.686" cy="1.686" r="1.686" fill="#417da5" transform="translate(79.128 85.236)"/></g><path fill="#3c9bcd" d="M152.85 339.7a1.5 1.5 0 0 1-1.42-1.02 1.5 1.5 0 0 1 .94-1.9l153-52a1.5 1.5 0 0 1 1.9.93 1.5 1.5 0 0 1-.94 1.9l-153 52a2 2 0 0 1-.48.08"/></g></g></svg>