<svg id="Lager_1" data-name="Lager 1" xmlns="http://www.w3.org/2000/svg" viewBox="0 0 340 240"><defs><style>.cls-1{fill:#e8eff3;}.cls-2{fill:#195f8c;}</style></defs><rect class="cls-1" x="-3.5" y="-3.5" width="347" height="247"/><path class="cls-2" d="M241.26,95.77l-65.75-20.2a18.81,18.81,0,0,0-11,0L98.74,95.77a5.55,5.55,0,0,0,0,10.75L110.2,110a18.59,18.59,0,0,0-4.22,11,7.28,7.28,0,0,0-.6,12.5l-6,27.08a3.77,3.77,0,0,0,3.68,4.59h13.22a3.77,3.77,0,0,0,3.68-4.59l-6-27.08a7.25,7.25,0,0,0-.42-12.38,11.14,11.14,0,0,1,4.88-8.66l46.09,14.17a18.93,18.93,0,0,0,11,0l65.75-20.2a5.55,5.55,0,0,0,0-10.75Zm-63.53,38.16a26.46,26.46,0,0,1-15.46,0l-34.18-10.5-3.35,26.74c0,8.33,20.27,15.09,45.26,15.09s45.25-6.76,45.25-15.09l-3.34-26.74Z"/></svg>