<svg xmlns="http://www.w3.org/2000/svg" xmlns:xlink="http://www.w3.org/1999/xlink" width="1311" height="1263" viewBox="0 0 1311 1263"><defs><clipPath id="clip-Artboard_12"><path d="M0 0h1311v1263H0z"/></clipPath></defs><g id="Artboard_12" clip-path="url(#clip-Artboard_12)"><path fill="#e7eff3" d="M0 0h1311v1263H0z"/><g id="Logo" transform="rotate(31 1331.586 -518.973)"><path id="Path_5078" fill="#417da5" d="M2439.67 1021.73c-33.51-308.26-293.82-541.8-603.9-541.8s-570.38 233.54-603.9 541.8c-325.77 29.56-569.63 311.78-551.62 638.4s291.4 580.32 618.45 573.9h536.82c187.3 0 339.13-151.83 339.13-339.13s-151.84-339.14-339.13-339.14a197.86 197.86 0 1 1 140.06-338.26 70.63 70.63 0 1 0 100.15-99.63A339.13 339.13 0 1 0 1835.69 1696c109.27 0 197.86 88.58 197.86 197.85s-88.59 197.86-197.86 197.86H1298.7c-257.56 0-466.35-208.8-466.35-466.35s208.8-466.35 466.35-466.35a70.47 70.47 0 0 0 70.46-70.46c0-257.56 208.8-466.36 466.35-466.36s466.35 208.8 466.35 466.36a70.64 70.64 0 0 0 70.64 70.46c257.56 0 466.36 208.8 466.36 466.35s-208.8 466.35-466.36 466.35a70.64 70.64 0 1 0 0 141.28c323.3 1.16 590.86-251.1 608.71-573.91s-220.26-603.04-541.71-637.53Z" transform="translate(-680 -480)"/></g></g></svg>