<svg xmlns="http://www.w3.org/2000/svg" width="350" height="200" viewBox="0 0 350 200"><g id="safespring-s3" transform="translate(-190 -242)"><path id="Rectangle_287" fill="rgba(50,205,50,0.08)" d="M0 0h350v200H0z" transform="translate(190 242)"/><g id="Group_165" transform="translate(34.97 -61.03)"><circle id="Ellipse_21" cx="73.5" cy="73.5" r="73.5" fill="rgba(50,205,50,0.15)" transform="translate(257.03 330.03)"/><path id="cloud-arrow-up" fill="#32cd32" d="M17.4 86.1a17.4 17.4 0 0 1-5.78-33.8q-.03-.48-.03-.97a19.33 19.33 0 0 1 36.08-9.64 10.7 10.7 0 0 1 6.44-1.96 11.53 11.53 0 0 1 11.59 11.6 12 12 0 0 1-.77 4.17 15.46 15.46 0 0 1-3.1 30.6Zm9.53-26.2a2.8 2.8 0 0 0 0 4 2.62 2.62 0 0 0 4 0l4.82-4.61v16.2a2.9 2.9 0 0 0 5.8 0v-16.2l4.71 4.61a2.83 2.83 0 0 0 4-4l-9.66-9.66a2.8 2.8 0 0 0-4 0Z" transform="translate(291.383 341.03)"/></g></g></svg>