<svg xmlns="http://www.w3.org/2000/svg" width="350" height="200" viewBox="0 0 350 200"><g transform="translate(-190 -242)"><path fill="rgba(50,205,50,0.08)" d="M190 242h350v200H190z"/><g transform="translate(34.97 -61.03)"><circle cx="73.5" cy="73.5" r="73.5" fill="rgba(50,205,50,0.15)" transform="translate(257.03 330.03)"/><path fill="#32cd32" d="M310.93 428.83a38 38 0 0 1-10.75-1.5 25 25 0 0 1-8.35-3.92l3.69-8.18a25 25 0 0 0 7.17 3.55 27 27 0 0 0 8.3 1.34q4.63 0 6.84-1.37a4.2 4.2 0 0 0 2.21-3.65 3.5 3.5 0 0 0-1.3-2.78 10 10 0 0 0-3.35-1.78q-2.05-.67-5.53-1.47a76 76 0 0 1-8.78-2.55 14 14 0 0 1-5.86-4.09 11 11 0 0 1-2.45-7.5 13 13 0 0 1 2.21-7.4 15 15 0 0 1 6.67-5.26 27 27 0 0 1 10.89-1.94 36 36 0 0 1 8.77 1.07 26 26 0 0 1 7.5 3.08l-3.35 8.24a26 26 0 0 0-13-3.68q-4.55 0-6.73 1.47a4.5 4.5 0 0 0-2.18 3.89 3.8 3.8 0 0 0 2.52 3.58 40 40 0 0 0 7.67 2.32 76 76 0 0 1 8.78 2.54 14.5 14.5 0 0 1 5.86 4.02 10.8 10.8 0 0 1 2.45 7.43 13 13 0 0 1-2.25 7.34 15 15 0 0 1-6.73 5.26 27.5 27.5 0 0 1-10.92 1.94m46.03-28.6q6.16 1 9.45 4.58a12.7 12.7 0 0 1 3.28 8.88 14 14 0 0 1-2.15 7.54 15 15 0 0 1-6.53 5.53 25 25 0 0 1-10.75 2.07 37 37 0 0 1-9.75-1.3 25 25 0 0 1-8.14-3.72l4.22-8.3a21 21 0 0 0 6.2 3.1 24 24 0 0 0 7.2 1.11 11.4 11.4 0 0 0 6.43-1.57 5 5 0 0 0 2.35-4.46q0-5.76-8.78-5.76h-4.96v-7.17l9.65-10.92h-19.97v-8.71h32.83v7.04Z"/></g></g></svg>