<svg xmlns="http://www.w3.org/2000/svg" width="350" height="200" viewBox="0 0 350 200"><g transform="translate(-200 -242)"><rect width="350" height="200" transform="translate(200 242)" fill="rgba(15,3,121,0.1)"/><g transform="translate(296 316.152)"><rect width="30.895" height="8.888" rx="4.444" transform="translate(114.692 41.96)" fill="#10037d"/><path d="M14.9,44.054q-6.972,0-10.811-3.587Q.3,36.88.051,30.363,0,29,0,25.917q0-3.132.051-4.547Q.3,14.9,4.143,11.317,8.033,7.68,14.9,7.68a18.252,18.252,0,0,1,7.83,1.566,12.1,12.1,0,0,1,5.153,4.193,10.821,10.821,0,0,1,1.92,5.961v.1a.908.908,0,0,1-.354.707,1.071,1.071,0,0,1-.707.253h-4.8a1.4,1.4,0,0,1-.909-.253,1.941,1.941,0,0,1-.505-.96A7.254,7.254,0,0,0,19.854,14.8a8.542,8.542,0,0,0-5-1.314q-7.275,0-7.578,8.134-.051,1.364-.051,4.193t.051,4.294q.3,8.133,7.578,8.134a8.541,8.541,0,0,0,5-1.313,7.15,7.15,0,0,0,2.678-4.446,1.7,1.7,0,0,1,.455-.96,1.623,1.623,0,0,1,.96-.253h4.8a1.028,1.028,0,0,1,.758.3.826.826,0,0,1,.3.758,11.075,11.075,0,0,1-1.92,6.012,12.605,12.605,0,0,1-5.153,4.193A18.775,18.775,0,0,1,14.9,44.054Z" fill="#110389"/><path d="M49.438,44.054q-6.972,0-10.811-3.587-3.789-3.587-4.042-10.1-.051-1.364-.051-4.446,0-3.132.051-4.547.253-6.467,4.092-10.053Q42.567,7.68,49.438,7.68a18.252,18.252,0,0,1,7.831,1.566,12.1,12.1,0,0,1,5.153,4.193,10.82,10.82,0,0,1,1.92,5.961v.1a.909.909,0,0,1-.354.707,1.071,1.071,0,0,1-.707.253h-4.8a1.4,1.4,0,0,1-.909-.253,1.94,1.94,0,0,1-.505-.96A7.254,7.254,0,0,0,54.388,14.8a8.543,8.543,0,0,0-5-1.314q-7.275,0-7.578,8.134-.051,1.364-.051,4.193t.051,4.294q.3,8.133,7.578,8.134a8.542,8.542,0,0,0,5-1.313,7.151,7.151,0,0,0,2.677-4.446,1.7,1.7,0,0,1,.455-.96,1.623,1.623,0,0,1,.96-.253h4.8a1.028,1.028,0,0,1,.758.3.826.826,0,0,1,.3.758,11.074,11.074,0,0,1-1.92,6.012,12.606,12.606,0,0,1-5.153,4.193A18.775,18.775,0,0,1,49.438,44.054Z" fill="#110389"/><path d="M67.572,43.548a1.036,1.036,0,0,1-1.061-1.061,1.345,1.345,0,0,1,.152-.606L77.979,25.513,67.37,9.852a1.156,1.156,0,0,1-.152-.606A1.036,1.036,0,0,1,68.28,8.185h5.153A1.884,1.884,0,0,1,75,9.145l7.426,10.912L89.9,9.145a1.884,1.884,0,0,1,1.566-.96h4.9a1.036,1.036,0,0,1,1.061,1.061.94.94,0,0,1-.2.606L86.668,25.513,97.985,41.881a1.549,1.549,0,0,1,.2.606.957.957,0,0,1-.354.758.969.969,0,0,1-.707.3H91.771a1.7,1.7,0,0,1-1.515-.909L82.172,31.222,74.241,42.639a1.9,1.9,0,0,1-1.566.909Z" fill="#110389"/><path d="M119.153,50.485a5.656,5.656,0,0,1-4.9-2.828L103.192,28.495a5.653,5.653,0,0,1,0-5.656L114.255,3.676a5.656,5.656,0,0,1,4.9-2.828H141.28a5.658,5.658,0,0,1,4.9,2.828l11.063,19.162a5.653,5.653,0,0,1,0,5.656L146.179,47.657a5.658,5.658,0,0,1-4.9,2.828Z" fill="#0f0379"/><path d="M121.612,20.229a19.546,19.546,0,0,1,16.908,0,7.227,7.227,0,0,1-1.058.741,16.518,16.518,0,0,1-14.792,0A7.226,7.226,0,0,1,121.612,20.229Zm-.326-.3a2.194,2.194,0,0,1-.744-1.43c0-.428.319-1.415,2.128-2.476a16.519,16.519,0,0,1,14.792,0c1.809,1.061,2.128,2.048,2.128,2.476a2.193,2.193,0,0,1-.745,1.43,19.9,19.9,0,0,0-17.559,0Zm21.589-1.43a5.2,5.2,0,0,1-1.428,3.449,5.2,5.2,0,0,1,1.427,3.448V25.5a5.257,5.257,0,0,1-1.532,3.565,5.257,5.257,0,0,1,1.532,3.564v.1c0,4.147-5.734,7.508-12.808,7.508s-12.809-3.362-12.809-7.508v-.1a5.253,5.253,0,0,1,1.533-3.564,5.254,5.254,0,0,1-1.533-3.565v-.108a5.2,5.2,0,0,1,1.428-3.449,5.2,5.2,0,0,1-1.427-3.448c0-4.147,5.734-7.508,12.808-7.508S142.875,14.348,142.875,18.495Zm-23.9,3.759a6.013,6.013,0,0,0-.695.971,3.326,3.326,0,0,0-.14.95,4.583,4.583,0,0,0,2.192,3.573,15.15,15.15,0,0,1,5.395-2.186A13.447,13.447,0,0,1,118.975,22.253Zm7.948,3.522a16.126,16.126,0,0,0-5.7,1.909q-.269.157-.517.322a19.8,19.8,0,0,0,18.72,0c-.166-.11-.339-.217-.517-.322a16.142,16.142,0,0,0-5.7-1.909,21.8,21.8,0,0,1-6.286,0Zm7.481-.214a15.138,15.138,0,0,1,5.395,2.186,4.58,4.58,0,0,0,2.192-3.573,3.323,3.323,0,0,0-.14-.95,5.892,5.892,0,0,0-.695-.971A13.439,13.439,0,0,1,134.4,25.562Zm-4.338,7.446c-4.661,0-8.74-1.459-10.981-3.641a6.06,6.06,0,0,0-.811,1.105,3.306,3.306,0,0,0-.134.927c0,3.415,5.34,6.184,11.926,6.184s11.925-2.768,11.925-6.184a3.3,3.3,0,0,0-.133-.927,6.026,6.026,0,0,0-.812-1.106C138.8,31.549,134.726,33.008,130.066,33.008Z" fill="#fff" fill-rule="evenodd"/></g></g></svg>