<svg xmlns="http://www.w3.org/2000/svg" id="Lager_1" viewBox="0 0 340 240"><defs><style>.cls-1,.cls-2{fill:#fa690f}.cls-1{opacity:.1}</style></defs><path d="M-3.5-3.5h347v247h-347z" class="cls-1"/><path d="m159.36 178.88-14.3-4.15a2.8 2.8 0 0 1-1.93-3.49L175.14 61a2.83 2.83 0 0 1 3.5-1.93l14.3 4.16a2.8 2.8 0 0 1 1.93 3.49L162.86 177a2.8 2.8 0 0 1-3.5 1.88m-26.73-26.31 10.2-10.88a2.8 2.8 0 0 0-.19-4L121.39 119l21.25-18.69a2.8 2.8 0 0 0 .19-4l-10.2-10.88a2.8 2.8 0 0 0-4-.12L94.85 116.9a2.8 2.8 0 0 0 0 4.1l33.79 31.69a2.8 2.8 0 0 0 4-.12Zm76.73.14L243.15 121a2.8 2.8 0 0 0 0-4.11l-33.79-31.7a2.84 2.84 0 0 0-4 .11l-10.2 10.89a2.8 2.8 0 0 0 .19 4L216.61 119l-21.25 18.69a2.8 2.8 0 0 0-.19 4l10.2 10.88a2.8 2.8 0 0 0 4 .14Z" class="cls-2"/></svg>