<svg xmlns="http://www.w3.org/2000/svg" xmlns:xlink="http://www.w3.org/1999/xlink" width="170" height="118" viewBox="0 0 170 118">
  <defs>
    <filter id="Ellipse_45" x="46" y="23" width="78" height="78" filterUnits="userSpaceOnUse">
      <feOffset dy="3" input="SourceAlpha"/>
      <feGaussianBlur stdDeviation="3" result="blur"/>
      <feFlood flood-opacity="0.161"/>
      <feComposite operator="in" in2="blur"/>
      <feComposite in="SourceGraphic"/>
    </filter>
  </defs>
  <g id="safespring-compute-icon" transform="translate(-614 -562)">
    <rect id="Rectangle_343" data-name="Rectangle 343" width="170" height="118" transform="translate(614 562)" fill="#e7eff3"/>
    <g id="Group_605" data-name="Group 605" transform="translate(-102.423 156.577)">
      <g transform="matrix(1, 0, 0, 1, 716.42, 405.42)" filter="url(#Ellipse_45)">
        <circle id="Ellipse_45-2" data-name="Ellipse 45" cx="30" cy="30" r="30" transform="translate(55 29)" fill="#fff"/>
      </g>
      <path id="server-solid-2" d="M3.657,32A3.66,3.66,0,0,0,0,35.657v3.657a3.66,3.66,0,0,0,3.657,3.657H25.6a3.66,3.66,0,0,0,3.657-3.657V35.657A3.66,3.66,0,0,0,25.6,32Zm16,6.857a1.371,1.371,0,1,1,1.371-1.371A1.368,1.368,0,0,1,19.657,38.857Zm5.486-1.371a1.371,1.371,0,1,1-1.371-1.371A1.368,1.368,0,0,1,25.142,37.486ZM3.657,46.628A3.66,3.66,0,0,0,0,50.285v3.657A3.66,3.66,0,0,0,3.657,57.6H25.6a3.66,3.66,0,0,0,3.657-3.657V50.285A3.66,3.66,0,0,0,25.6,46.628Zm16,6.857a1.371,1.371,0,1,1,1.371-1.371A1.368,1.368,0,0,1,19.657,53.485ZM25.6,52.114a1.371,1.371,0,1,1-1.371-1.371A1.368,1.368,0,0,1,25.6,52.114Z" transform="translate(786.424 419.423)" fill="#417da5"/>
    </g>
  </g>
</svg>
