<svg xmlns="http://www.w3.org/2000/svg" width="347" height="247" viewBox="0 0 347 247"><defs><style>.a,.b{fill:#326de6;}.a{opacity:0.1;}.c{fill:#fff;}</style></defs><g transform="translate(123.339 74.562)"><rect class="a" width="347" height="247" transform="translate(-123.339 -74.562)"/><path class="b" d="M91.953,21.664A7.459,7.459,0,0,0,88.266,17.4L53.12.576A6.447,6.447,0,0,0,50.239,0a12.162,12.162,0,0,0-2.881.23L12.212,17.17a6.192,6.192,0,0,0-3.457,4.264L.112,59.345A7.27,7.27,0,0,0,1.38,64.876L25.694,94.952a8.39,8.39,0,0,0,5.3,2.42H69.713a5.743,5.743,0,0,0,5.3-2.42L99.328,64.876a7.869,7.869,0,0,0,1.383-5.531L91.953,21.664Z" transform="translate(0 0)"/><path class="c" d="M84.943,56.22h0c-.115,0-.23,0-.23-.115s-.23-.115-.461-.115a5.61,5.61,0,0,0-1.383-.115,1.462,1.462,0,0,1-.691-.115h-.115a23.288,23.288,0,0,1-3.918-.691,1.392,1.392,0,0,1-.807-.807h0l-.922-.23a30.053,30.053,0,0,0-.461-10.141,31.218,31.218,0,0,0-4.033-9.449l.691-.691h0v-.115a1.609,1.609,0,0,1,.346-1.037,20.638,20.638,0,0,1,3.227-2.3h0l.691-.346c.461-.23.807-.461,1.268-.691.115-.115.23-.115.346-.23s0-.115,0-.23h0a2.254,2.254,0,0,0,.461-3.227,2.2,2.2,0,0,0-1.613-.807,2.753,2.753,0,0,0-1.613.576h0l-.115.115c-.115.115-.23.23-.346.23a7.455,7.455,0,0,0-.922,1.037c-.115.23-.346.346-.461.461h0A15.152,15.152,0,0,1,71,29.716a1.638,1.638,0,0,1-.691.23.693.693,0,0,1-.461-.115h-.115l-.922.576c-.922-.922-1.959-1.844-2.881-2.766A29.527,29.527,0,0,0,50.95,21.65l-.115-.922h0v.115a1.583,1.583,0,0,1-.576-.922A23.021,23.021,0,0,1,50.489,16v-.115c0-.23.115-.461.115-.691.115-.461.115-.922.23-1.383v-.691h0a2.28,2.28,0,0,0-1.959-2.42,2.312,2.312,0,0,0-1.959.807,2.275,2.275,0,0,0-.691,1.613h0V13.7a5.784,5.784,0,0,0,.23,1.383,1.462,1.462,0,0,1,.115.691v.115a21.715,21.715,0,0,1,.23,3.918,1.583,1.583,0,0,1-.576.922v.23h0l-.115.922c-1.268.115-2.535.346-3.918.576a27.47,27.47,0,0,0-14.174,8.066l-.691-.461h-.115c-.115,0-.23.115-.461.115a1.638,1.638,0,0,1-.691-.23,21.247,21.247,0,0,1-2.881-2.65h0c-.115-.23-.346-.346-.461-.461-.346-.346-.576-.691-.922-1.037-.115-.115-.23-.115-.346-.23l-.115-.115h0a2.753,2.753,0,0,0-1.613-.576,1.744,1.744,0,0,0-1.613.807,2.478,2.478,0,0,0,.461,3.227h0a.113.113,0,0,1,.115.115s.23.23.346.23a12.57,12.57,0,0,0,1.268.691l.691.346h0a16.36,16.36,0,0,1,3.227,2.3,1.162,1.162,0,0,1,.346,1.037v-.115h0l.691.691c-.115.23-.23.346-.346.576a27.363,27.363,0,0,0-4.033,18.9l-.922.23h0a.113.113,0,0,1-.115.115,1.816,1.816,0,0,1-.807.807,21.4,21.4,0,0,1-3.918.691h0a1.462,1.462,0,0,0-.691.115c-.461,0-.922.115-1.383.115-.115,0-.23.115-.461.115-.115,0-.115,0-.23.115h0A2.249,2.249,0,0,0,10.5,58.64h0a2.139,2.139,0,0,0,2.3,1.613,1.039,1.039,0,0,0,.576-.115h0c.115,0,.115,0,.115-.115s.346,0,.461,0c.461-.115.922-.346,1.268-.461a1.638,1.638,0,0,1,.691-.23h.115a20.542,20.542,0,0,1,3.8-1.037h.115a1.308,1.308,0,0,1,.922.346.113.113,0,0,1,.115.115h0l1.037-.115a27.813,27.813,0,0,0,9.449,13.482A18.276,18.276,0,0,0,34.586,74.2L34.01,75h0a.113.113,0,0,0,.115.115,1.364,1.364,0,0,1,.115,1.152A18.908,18.908,0,0,1,32.4,79.613v.115a2.023,2.023,0,0,1-.461.576c-.23.23-.461.691-.807,1.152-.115.115-.115.23-.23.346a.113.113,0,0,1-.115.115h0a2.372,2.372,0,0,0,.922,3.111,2.136,2.136,0,0,0,.807.23A2.582,2.582,0,0,0,34.7,83.876h0a.113.113,0,0,1,.115-.115c0-.115.115-.23.23-.346.115-.461.346-.807.461-1.268l.23-.691h0a19.5,19.5,0,0,1,1.5-3.572,1.792,1.792,0,0,1,.922-.691c.115,0,.115,0,.115-.115h0l.461-.922A27.125,27.125,0,0,0,48.76,78a23.074,23.074,0,0,0,6.223-.807,34.429,34.429,0,0,0,3.687-1.037l.461.807h0c.115,0,.115,0,.115.115a1.792,1.792,0,0,1,.922.691,19.5,19.5,0,0,1,1.5,3.572v.115l.23.691a4.128,4.128,0,0,0,.461,1.268c.115.115.115.23.23.346a.113.113,0,0,0,.115.115h0a2.582,2.582,0,0,0,2.189,1.383,2.712,2.712,0,0,0,.922-.23,1.928,1.928,0,0,0,1.037-1.268,2.965,2.965,0,0,0-.115-1.729h0a.113.113,0,0,0-.115-.115c0-.115-.115-.23-.23-.346a4.138,4.138,0,0,0-.807-1.152,2.023,2.023,0,0,0-.461-.576v-.23a13.615,13.615,0,0,1-1.844-3.342,1.364,1.364,0,0,1,.115-1.152A.113.113,0,0,1,63.51,75h0l-.346-.922A28.483,28.483,0,0,0,75.61,58.41l.922.115h0a.113.113,0,0,0,.115-.115,1.308,1.308,0,0,1,.922-.346h.115A19.373,19.373,0,0,1,81.371,59.1h.115a1.638,1.638,0,0,0,.691.23,6.176,6.176,0,0,0,1.268.576c.115,0,.23.115.461.115.115,0,.115,0,.23.115h0a1.039,1.039,0,0,0,.576.115,2.506,2.506,0,0,0,2.3-1.613,2.717,2.717,0,0,0-2.074-2.42Zm-33.3-3.572-3.111,1.5-3.111-1.5-.807-3.342L46.8,46.541h3.457l2.189,2.766Zm18.783-7.49a22.062,22.062,0,0,1,.461,7.26L59.938,49.306h0A1.885,1.885,0,0,1,58.555,47a1.857,1.857,0,0,1,.461-.807l8.643-7.836a23.444,23.444,0,0,1,2.766,6.8ZM64.2,34.1l-9.449,6.684a1.959,1.959,0,0,1-2.535-.461,1.046,1.046,0,0,1-.346-.807L51.18,27.873A21.686,21.686,0,0,1,64.2,34.1h0ZM43.344,28.218l2.3-.461-.576,11.523h0a1.92,1.92,0,0,1-1.959,1.844,2.712,2.712,0,0,1-.922-.23l-9.564-6.8a22.883,22.883,0,0,1,10.717-5.877ZM29.286,38.359l8.527,7.605h0a1.852,1.852,0,0,1,.23,2.65,1.3,1.3,0,0,1-.922.576L25.944,52.417a24.257,24.257,0,0,1,3.342-14.058ZM27.327,57.833l11.408-1.959a1.887,1.887,0,0,1,1.959,1.5,1.364,1.364,0,0,1-.115,1.152h0L36.2,69.126a22.669,22.669,0,0,1-8.873-11.293ZM53.485,72.122a23.318,23.318,0,0,1-4.955.576,25.827,25.827,0,0,1-7.26-1.152L46.916,61.29a1.787,1.787,0,0,1,2.3-.461,5.772,5.772,0,0,1,.922.807h0l5.531,10.025A18.722,18.722,0,0,0,53.485,72.122ZM67.543,62.1a22,22,0,0,1-6.914,6.914L56.135,58.179a1.874,1.874,0,0,1,1.037-2.189,3.365,3.365,0,0,1,1.037-.23l11.523,1.959A17.3,17.3,0,0,1,67.543,62.1Z" transform="translate(1.594 1.627)"/></g></svg>