<svg xmlns="http://www.w3.org/2000/svg" xmlns:xlink="http://www.w3.org/1999/xlink" width="600" height="300" viewBox="0 0 600 300"><defs><clipPath id="clip-Logo"><path d="M0 0h600v300H0z"/></clipPath></defs><g id="Logo" clip-path="url(#clip-Logo)"><path fill="#e8eff3" d="M0 0h600v300H0z"/><g id="SciLifeLab" transform="translate(97.496 105.73)"><path id="Path_1324" d="M253.55 72.97V43.9h-5.9v-4.43h5.9v-1.02a13 13 0 0 1 .85-4.78 9.4 9.4 0 0 1 2.43-3.51 10 10 0 0 1 3.87-2.15 17 17 0 0 1 5.14-.73 19 19 0 0 1 4.39.53l-.35 4.64a20 20 0 0 0-3.45-.28 6.6 6.6 0 0 0-4.8 1.63 6.2 6.2 0 0 0-1.69 4.66v1.02h6.3v4.43h-6.3v29.07z"/><path id="Path_1325" d="M143.61 61.85a7 7 0 0 0-.54-2.79 6 6 0 0 0-1.9-2.21 16 16 0 0 0-3.68-1.89 58 58 0 0 0-5.87-1.81 54 54 0 0 1-6.75-2.18 23 23 0 0 1-5.14-2.82 12 12 0 0 1-3.26-3.64 9.4 9.4 0 0 1-1.14-4.67 10 10 0 0 1 1.23-4.88 12 12 0 0 1 3.47-3.9 17 17 0 0 1 5.39-2.58 25 25 0 0 1 7.01-.93 23 23 0 0 1 7.56 1.15 18 18 0 0 1 5.58 3.03 13 13 0 0 1 3.44 4.36 12 12 0 0 1 1.17 5.11h-6.66a9 9 0 0 0-.67-3.5 7.4 7.4 0 0 0-2.05-2.79 10 10 0 0 0-3.45-1.83 17 17 0 0 0-4.9-.65 17 17 0 0 0-4.63.56 10 10 0 0 0-3.25 1.53 6 6 0 0 0-1.9 2.31 7 7 0 0 0-.62 2.91 5 5 0 0 0 .67 2.6 7 7 0 0 0 2.09 2.17 17 17 0 0 0 3.64 1.83 49 49 0 0 0 5.33 1.61 51 51 0 0 1 7.39 2.4 21 21 0 0 1 5.13 2.99 10.3 10.3 0 0 1 3.98 8.46 10 10 0 0 1-1.24 4.98 11 11 0 0 1-3.54 3.81 18 18 0 0 1-5.52 2.43 30 30 0 0 1-11.83.46 25 25 0 0 1-4.44-1.16 21 21 0 0 1-3.94-1.92 15 15 0 0 1-3.16-2.66 12 12 0 0 1-2.11-3.41 11 11 0 0 1-.76-4.15h6.66a7.5 7.5 0 0 0 1.02 3.98 8.5 8.5 0 0 0 2.73 2.74 13 13 0 0 0 3.94 1.59 21 21 0 0 0 4.68.51q5.25 0 8.04-1.92a6 6 0 0 0 2.8-5.23"/><path id="Path_1326" d="M169.92 69.18a10 10 0 0 0 3.25-.5 9 9 0 0 0 2.74-1.36 7 7 0 0 0 1.93-2.06 6 6 0 0 0 .88-2.58h6.04a9 9 0 0 1-1.36 4.26 13 13 0 0 1-3.23 3.56 17 17 0 0 1-4.64 2.45 17 17 0 0 1-5.61.91 18 18 0 0 1-7.34-1.35 15 15 0 0 1-5.2-3.64 15 15 0 0 1-3.09-5.32 20 20 0 0 1-1.02-6.41v-1.3a20 20 0 0 1 1.02-6.41 14.6 14.6 0 0 1 8.27-8.96 20 20 0 0 1 13.28-.42 15 15 0 0 1 4.63 2.55 12 12 0 0 1 3.06 3.85 12 12 0 0 1 1.24 4.8h-6.04a8 8 0 0 0-.81-2.89 8 8 0 0 0-1.81-2.35 9 9 0 0 0-2.71-1.59 10 10 0 0 0-3.5-.59 10 10 0 0 0-4.92 1.05 9 9 0 0 0-3.14 2.77 11 11 0 0 0-1.67 3.87 20 20 0 0 0-.48 4.32v1.3a20 20 0 0 0 .48 4.38 11 11 0 0 0 1.66 3.85 9 9 0 0 0 3.14 2.76 10.4 10.4 0 0 0 4.95 1.05"/><path id="Path_1327" d="M208.66 68.38h23.82v4.86h-30.49V27.55h6.66z"/><path id="Path_1328" d="M283.82 73.59a20 20 0 0 1-7.06-1.21 16 16 0 0 1-5.4-3.36 14.5 14.5 0 0 1-3.45-5.12 17 17 0 0 1-1.21-6.5v-1.3a19 19 0 0 1 1.36-7.31 16 16 0 0 1 3.64-5.42 16 16 0 0 1 5.21-3.36 17 17 0 0 1 6.11-1.16 17.5 17.5 0 0 1 6.91 1.25 13 13 0 0 1 4.78 3.45 14 14 0 0 1 2.78 5.2 23 23 0 0 1 .9 6.53v2.57h-25.31a13 13 0 0 0 .85 4.33 10 10 0 0 0 2.21 3.5 11 11 0 0 0 3.45 2.35 11.5 11.5 0 0 0 4.57.87 12 12 0 0 0 5.73-1.24 14 14 0 0 0 4.11-3.28l3.9 2.72a15 15 0 0 1-2.18 2.4 15 15 0 0 1-2.99 2.07 17 17 0 0 1-3.92 1.46 20 20 0 0 1-4.99.56m-.79-30.03a10 10 0 0 0-3.56.63 9 9 0 0 0-2.9 1.84 10 10 0 0 0-2.12 3 14 14 0 0 0-1.16 4.12H292v-.43a15 15 0 0 0-.6-3.31 9 9 0 0 0-1.55-2.94 8 8 0 0 0-2.71-2.11 9.5 9.5 0 0 0-4.11-.8"/><path id="Path_1329" d="M309.54 68.11h23.82v4.86h-30.49V27.28h6.66z"/><path id="Path_1330" d="M359.65 72.97a6 6 0 0 1-.55-1.56q-.2-.94-.35-1.97a16 16 0 0 1-2.02 1.59 15 15 0 0 1-2.45 1.33 16 16 0 0 1-2.88.9 16 16 0 0 1-3.28.32 17 17 0 0 1-5.2-.77 13 13 0 0 1-3.97-2.11 9.5 9.5 0 0 1-2.54-3.14 8.6 8.6 0 0 1-.9-3.88 9.4 9.4 0 0 1 1.17-4.75 10 10 0 0 1 3.37-3.45 17 17 0 0 1 5.3-2.11 31 31 0 0 1 6.94-.71h6.35v-2.63a6 6 0 0 0-2-4.78q-2-1.78-5.9-1.78a12 12 0 0 0-3.28.43 9 9 0 0 0-2.54 1.16 6 6 0 0 0-1.64 1.69 4 4 0 0 0-.59 2.01h-6.42a7 7 0 0 1 1.05-3.56 11 11 0 0 1 2.99-3.17 17 17 0 0 1 4.68-2.29 20 20 0 0 1 6.13-.88 21 21 0 0 1 5.61.7 12 12 0 0 1 4.4 2.11 10 10 0 0 1 2.87 3.51 11 11 0 0 1 1.04 4.92v15.57a21 21 0 0 0 .33 3.58 13 13 0 0 0 .98 3.23v.5zm-10.6-4.37a12 12 0 0 0 3.25-.43 13 13 0 0 0 2.76-1.13 10 10 0 0 0 2.16-1.59 8 8 0 0 0 1.43-1.86v-6.87h-5.32q-5.49 0-8.46 1.53a4.9 4.9 0 0 0-2.97 4.63 6 6 0 0 0 .45 2.26 5 5 0 0 0 1.36 1.81 7 7 0 0 0 2.24 1.21 10 10 0 0 0 3.1.44"/><path id="Path_1331" d="M402.5 56.59a23 23 0 0 1-.97 6.79 16 16 0 0 1-2.83 5.39 13 13 0 0 1-4.56 3.54 14 14 0 0 1-6.15 1.27 16 16 0 0 1-6.39-1.16 12 12 0 0 1-4.56-3.33l-.31 3.87h-5.87V27.28h6.39v15.88a12.5 12.5 0 0 1 4.49-3.19 16 16 0 0 1 6.18-1.11 15 15 0 0 1 6.23 1.24 13 13 0 0 1 4.56 3.48 16 16 0 0 1 2.81 5.39 24 24 0 0 1 .97 6.98zm-6.39-.65a20 20 0 0 0-.52-4.72 11 11 0 0 0-1.67-3.88 8 8 0 0 0-3.02-2.65 10 10 0 0 0-4.56-.98 12 12 0 0 0-3.18.4 10 10 0 0 0-2.54 1.11 9 9 0 0 0-1.95 1.67 12 12 0 0 0-1.42 2.07v14.49a11 11 0 0 0 1.47 2.07 9 9 0 0 0 1.97 1.67 9 9 0 0 0 2.54 1.11 12 12 0 0 0 3.18.4 9.4 9.4 0 0 0 4.42-.96 8.5 8.5 0 0 0 3-2.6 11 11 0 0 0 1.73-3.85 19 19 0 0 0 .55-4.72Z"/><path id="Path_1332" d="M196.09 73.24h-6.39v-33.5h6.39Z"/><circle id="Ellipse_3" cx="3.76" cy="3.76" r="3.76" transform="translate(189.13 27.55)"/><circle id="Ellipse_4" cx="3.76" cy="3.76" r="3.76" transform="translate(236.54 27.28)"/><path id="Path_1333" d="M243.5 72.97h-6.39V39.48h6.39Z"/><g id="Group_67"><path id="Path_1334" fill="#a7c947" d="M57.24 51.24a11 11 0 0 0 .96-4.47 10 10 0 0 0-.49-3.04l-.08-.24-.03-.09-.05-.15-.03-.07c-.62-1.98-2.09-3.78-3.79-5.86-2.09-2.55-4.45-5.43-5.68-9.32-1.2-3.78-.91-7.3-.66-10.4.22-2.65.42-5.16-.31-7.47v-.01l-.01-.06-.04-.15-.03-.07-.07-.25-.17-.5-.03-.07-.17-.42-.01-.02a10.5 10.5 0 0 0-11.72-6.09l-.46.11-.06.01-.51.15a10.3 10.3 0 0 0-6.13 5.15 9 9 0 0 0-.43.95 10.4 10.4 0 0 0-.26 7.03v.01l.08.24.03.08.02.05.03.07.02.05.02.05c.61 1.97 2.08 3.77 3.79 5.85 2.09 2.55 4.45 5.44 5.68 9.33s.96 7.65.71 10.96c-.2 2.67-.37 4.97.25 6.91v.01l.02.06.04.15.02.08.07.25.14.41a10.46 10.46 0 0 0 13 6.41 10.3 10.3 0 0 0 6.13-5.15z"/><path id="Path_1335" fill="#a7c947" d="M88.66 24.93a12.4 12.4 0 0 0-22.58 3.99l-.06.3-.02.1-.04.21v.01l-.01.05v.01c-.54 2.39-.09 5.11.42 8.26.63 3.88 1.35 8.27.3 13.02s-3.57 8.46-5.79 11.73c-1.79 2.63-3.33 4.9-3.84 7.26v.01l-.02.06-.05.18-.03.1-.07.3a12.4 12.4 0 0 0 9.43 14.8 13 13 0 0 0 2.71.3 12.3 12.3 0 0 0 6.65-1.95 13 13 0 0 0 1.93-1.51 12.3 12.3 0 0 0 3.52-6.27l.06-.29.02-.1.04-.21v-.01l.01-.05c.54-2.4.09-5.12-.42-8.28-.63-3.87-1.35-8.26-.3-13 1.02-4.62 3.41-8.08 5.52-11.12 1.8-2.6 3.5-5.06 4.12-7.86l.01-.02.02-.06.05-.18.03-.1.07-.3a12.5 12.5 0 0 0-1.68-9.38"/><path id="Path_1336" fill="#a7c947" d="M18.82 29.34a11.16 11.16 0 1 0 5.5 6.54 11 11 0 0 0-5.5-6.54"/></g></g></g></svg>