<?xml version="1.0" encoding="UTF-8"?><svg id="b" xmlns="http://www.w3.org/2000/svg" viewBox="0 0 405 198.17"><defs><style>.d{fill:#afcb0a;}.d,.e,.f{stroke-width:0px;}.e{fill:#6b6e73;}.f{fill:#707070;}</style></defs><g id="c"><path class="d" d="M49,198.17c1.09-1.4,2.06-2.92,3.3-4.17,23.02-23.13,46.06-46.25,69.15-69.33,6.86-6.86,10.01-14.89,7.73-24.49-2.35-9.94-8.79-16.15-18.53-19.02-1.09-.32-2.2-.59-3.35-.9v-25.4c16.12.72,28.4,8.01,38.57,20.37,10.8-12.94,24.13-20.45,41.33-20.45,17.25,0,30.68,7.32,41.37,20.41,22.69-28.3,62.74-26.3,83.42.51.81-1.16,1.44-2.31,2.3-3.26,15.09-16.59,33.84-21.87,54.84-15.07,21.14,6.84,32.72,22.45,34.95,44.74.07.71.6,1.37.92,2.06v4c-.35,1.19-.88,2.36-1.02,3.57-4.23,34.98-41.22,55.42-72.97,40.28-7.64-3.64-13.88-9.06-19.27-15.93-10.79,13.44-24.38,20.84-41.47,20.87-17.11.03-30.67-7.52-41.39-20.57-21.05,26.47-59.8,28.42-82.28,1.09-11.67,11.32-23.41,22.72-35.91,34.85h45.31v25.83H49ZM244.91,105.92c.06,14.05,11.46,25.39,25.44,25.33,13.83-.07,25.65-11.99,25.36-25.57-.3-14.01-11.79-25.39-25.61-25.36-13.89.03-25.25,11.58-25.19,25.61ZM162,105.88c.01,13.98,11.52,25.48,25.38,25.36,13.75-.12,25.15-11.4,25.3-25.05.16-14.15-11.41-25.9-25.48-25.89-13.81.01-25.21,11.59-25.2,25.58ZM378.33,106.48c.25-14.37-10.89-26.03-25.01-26.18-13.6-.14-25.28,11.23-25.46,24.79-.19,14.42,10.87,25.97,25.06,26.15,13.7.18,25.17-10.99,25.41-24.76Z"/><path class="e" d="M63.92.07c20.62,3.69,37.24,24.81,38.16,46.5.03.82-.06,1.64-.12,2.85h-25.26c-.92-9.5-4.93-17.4-13.68-22.16-5.44-2.96-11.24-3.84-17.38-2.47-12.59,2.83-22,15.03-19.42,29.9h27.34v25.44h-27.71v70.03H0c0-37,0-111,0-111,0,0,1.48-2.47,1.91-3.81C7.8,16.99,19.9,5.1,38.58,0"/><path class="e" d="M101.83,55.14v24.85c-.94.34-1.97.78-3.04,1.07-12.08,3.26-19.62,12.99-19.68,25.65-.07,12.83-.01,25.65-.01,38.48,0,1.61,0,3.23,0,5.03h-24.64c-.32-.54-.63-.81-.63-1.08,0-16.48-.63-33,.22-49.44,1.13-21.87,20.99-42,42.66-44.53,1.6-.19,3.24-.02,5.13-.02Z"/><path class="f" d="M166.23,181.4c.51-.92,1.22-1.64,2.13-2.16.91-.52,1.95-.77,3.1-.77,1.42,0,2.63.37,3.64,1.12,1.01.75,1.68,1.77,2.02,3.06h-3.2c-.24-.5-.58-.88-1.01-1.14-.44-.26-.93-.39-1.49-.39-.9,0-1.62.31-2.18.93-.56.62-.83,1.46-.83,2.5s.28,1.88.83,2.5c.56.62,1.28.94,2.18.94.56,0,1.05-.13,1.49-.39.44-.26.77-.64,1.01-1.14h3.2c-.34,1.29-1.01,2.31-2.02,3.05-1.01.74-2.22,1.11-3.64,1.11-1.16,0-2.19-.26-3.1-.77-.91-.52-1.62-1.23-2.13-2.15-.51-.92-.77-1.97-.77-3.15s.25-2.23.77-3.15Z"/><path class="f" d="M182.03,180.94v2.41h3.89v2.24h-3.89v2.62h4.4v2.33h-7.31v-11.93h7.31v2.33h-4.4Z"/><path class="f" d="M194.86,190.54l-2.48-4.5h-.7v4.5h-2.91v-11.93h4.88c.94,0,1.74.16,2.41.49.66.33,1.16.78,1.49,1.35.33.57.49,1.21.49,1.91,0,.79-.22,1.5-.67,2.12s-1.11,1.07-1.98,1.33l2.75,4.73h-3.28ZM191.69,183.98h1.8c.53,0,.93-.13,1.2-.39s.4-.63.4-1.1-.13-.81-.4-1.07-.67-.39-1.2-.39h-1.8v2.96Z"/><path class="f" d="M208.56,178.61v2.33h-3.16v9.61h-2.91v-9.61h-3.16v-2.33h9.23Z"/><path class="f" d="M213,178.61v11.93h-2.91v-11.93h2.91Z"/><path class="f" d="M223.34,178.61v2.33h-4.86v2.52h3.64v2.26h-3.64v4.83h-2.91v-11.93h7.77Z"/><path class="f" d="M227.89,178.61v11.93h-2.91v-11.93h2.91Z"/><path class="f" d="M233.37,180.94v2.41h3.89v2.24h-3.89v2.62h4.4v2.33h-7.31v-11.93h7.31v2.33h-4.4Z"/><path class="f" d="M246.2,190.54l-2.48-4.5h-.7v4.5h-2.91v-11.93h4.88c.94,0,1.74.16,2.41.49.66.33,1.16.78,1.49,1.35.33.57.49,1.21.49,1.91,0,.79-.22,1.5-.67,2.12-.45.62-1.11,1.07-1.98,1.33l2.75,4.73h-3.28ZM243.03,183.98h1.8c.53,0,.93-.13,1.2-.39.27-.26.4-.63.4-1.1s-.13-.81-.4-1.07c-.27-.26-.67-.39-1.2-.39h-1.8v2.96Z"/><path class="f" d="M258.96,188.43h-4.45l-.71,2.11h-3.04l4.32-11.93h3.37l4.32,11.93h-3.08l-.71-2.11ZM258.21,186.19l-1.48-4.37-1.46,4.37h2.94Z"/><path class="f" d="M271.98,179.36c.94.5,1.67,1.2,2.18,2.1.52.9.77,1.94.77,3.12s-.26,2.2-.77,3.11c-.52.91-1.25,1.61-2.19,2.11-.95.5-2.04.75-3.29.75h-4.47v-11.93h4.47c1.26,0,2.36.25,3.3.75ZM271.06,187.12c.61-.6.92-1.45.92-2.55s-.31-1.96-.92-2.57c-.61-.61-1.47-.92-2.57-.92h-1.38v6.94h1.38c1.1,0,1.96-.3,2.57-.9Z"/><path class="f" d="M291.88,178.61l-4.23,11.93h-3.64l-4.23-11.93h3.09l2.96,9.01,2.97-9.01h3.08Z"/><path class="f" d="M296.18,180.94v2.41h3.89v2.24h-3.89v2.62h4.4v2.33h-7.31v-11.93h7.31v2.33h-4.4Z"/><path class="f" d="M309.02,190.54l-2.48-4.5h-.7v4.5h-2.91v-11.93h4.88c.94,0,1.74.16,2.41.49.66.33,1.16.78,1.49,1.35.33.57.49,1.21.49,1.91,0,.79-.22,1.5-.67,2.12-.45.62-1.11,1.07-1.98,1.33l2.75,4.73h-3.28ZM305.84,183.98h1.8c.53,0,.93-.13,1.2-.39.27-.26.4-.63.4-1.1s-.13-.81-.4-1.07c-.27-.26-.67-.39-1.2-.39h-1.8v2.96Z"/><path class="f" d="M321.21,190.54l-4.01-5.27v5.27h-2.91v-11.93h2.91v5.24l3.98-5.24h3.42l-4.62,5.85,4.79,6.09h-3.55Z"/><path class="f" d="M327.68,190.24c-.69-.28-1.24-.7-1.66-1.26-.41-.55-.63-1.22-.65-2.01h3.09c.05.44.2.78.46,1.01s.6.35,1.02.35.77-.1,1.02-.3c.25-.2.37-.47.37-.82,0-.29-.1-.54-.3-.73-.2-.19-.44-.35-.73-.48s-.7-.27-1.23-.42c-.77-.24-1.4-.48-1.89-.71-.49-.24-.91-.59-1.26-1.05-.35-.46-.53-1.07-.53-1.82,0-1.11.4-1.98,1.21-2.61s1.85-.94,3.14-.94,2.38.31,3.18.94,1.23,1.5,1.29,2.63h-3.15c-.02-.38-.16-.69-.42-.91s-.59-.33-1-.33c-.35,0-.63.09-.85.28-.22.19-.32.46-.32.81,0,.38.18.69.54.9.36.22.93.45,1.7.7.77.26,1.4.51,1.88.75s.9.58,1.25,1.04c.35.45.53,1.04.53,1.75s-.17,1.3-.52,1.85c-.35.56-.85,1-1.5,1.33-.66.33-1.43.49-2.33.49s-1.66-.14-2.35-.42Z"/><path class="f" d="M343.42,188.43h-4.45l-.71,2.11h-3.04l4.32-11.93h3.37l4.32,11.93h-3.08l-.71-2.11ZM342.67,186.19l-1.48-4.37-1.46,4.37h2.94Z"/><path class="f" d="M362.17,178.61v11.93h-2.91v-7.16l-2.67,7.16h-2.35l-2.69-7.17v7.17h-2.91v-11.93h3.43l3.35,8.26,3.32-8.26h3.42Z"/><path class="f" d="M375.07,178.61v11.93h-2.91v-4.91h-4.52v4.91h-2.91v-11.93h2.91v4.67h4.52v-4.67h2.91Z"/><path class="f" d="M380.53,180.94v2.41h3.89v2.24h-3.89v2.62h4.4v2.33h-7.31v-11.93h7.31v2.33h-4.4Z"/><path class="f" d="M395.57,178.61v2.33h-3.16v9.61h-2.91v-9.61h-3.16v-2.33h9.23Z"/></g></svg>