<svg xmlns="http://www.w3.org/2000/svg" width="898" height="538" viewBox="0 0 898 538">
  <g id="Group_523" data-name="Group 523" transform="translate(-242 -147)">
    <g id="Rectangle_276" data-name="Rectangle 276" transform="translate(242 147)" fill="none" stroke="#195f8c" stroke-width="1" stroke-dasharray="9 9">
      <rect width="898" height="538" rx="17" stroke="none"/>
      <rect x="0.5" y="0.5" width="897" height="537" rx="16.5" fill="none"/>
    </g>
    <path id="Path_433" data-name="Path 433" d="M-150.943-23.8-161.653,0h-.68l-10.71-23.8h.782L-161.993-.918-151.725-23.8Zm3.4,6.222h.68V0h-.68Zm.34-4.862a.828.828,0,0,1-.629-.272.873.873,0,0,1-.255-.612.855.855,0,0,1,.255-.629.855.855,0,0,1,.629-.255.872.872,0,0,1,.612.255.828.828,0,0,1,.272.629.846.846,0,0,1-.272.612A.846.846,0,0,1-147.2-22.44Zm23.154-2.788V0h-.68V-5.372a7.978,7.978,0,0,1-2.992,4A8.254,8.254,0,0,1-132.583.1a8.454,8.454,0,0,1-4.335-1.139A8.141,8.141,0,0,1-140-4.216a9.364,9.364,0,0,1-1.122-4.59A9.268,9.268,0,0,1-140-13.379a8.172,8.172,0,0,1,3.077-3.162,8.454,8.454,0,0,1,4.335-1.139,8.276,8.276,0,0,1,4.845,1.479,7.956,7.956,0,0,1,3.009,3.961V-25.228ZM-132.583-.544A7.8,7.8,0,0,0-128.571-1.6a7.422,7.422,0,0,0,2.822-2.941,8.828,8.828,0,0,0,1.02-4.267,8.828,8.828,0,0,0-1.02-4.267A7.3,7.3,0,0,0-128.571-16a7.9,7.9,0,0,0-4.012-1.037A7.9,7.9,0,0,0-136.6-16a7.3,7.3,0,0,0-2.822,2.924,8.828,8.828,0,0,0-1.02,4.267,8.828,8.828,0,0,0,1.02,4.267A7.422,7.422,0,0,0-136.6-1.6,7.8,7.8,0,0,0-132.583-.544Zm30.566-8.262h-15.64A8.6,8.6,0,0,0-116.6-4.539,7.554,7.554,0,0,0-113.7-1.6a8.274,8.274,0,0,0,4.165,1.054,8.292,8.292,0,0,0,3.383-.7,6.561,6.561,0,0,0,2.6-2.023l.476.476a7.663,7.663,0,0,1-2.856,2.142,8.85,8.85,0,0,1-3.6.748,8.9,8.9,0,0,1-4.505-1.139,8.189,8.189,0,0,1-3.128-3.179,9.253,9.253,0,0,1-1.139-4.59,9.749,9.749,0,0,1,1.054-4.573,7.922,7.922,0,0,1,2.907-3.162,7.793,7.793,0,0,1,4.165-1.139,7.909,7.909,0,0,1,4.148,1.122,7.968,7.968,0,0,1,2.941,3.094,9.251,9.251,0,0,1,1.071,4.488Zm-8.16-8.228a7.14,7.14,0,0,0-3.706.986,7.406,7.406,0,0,0-2.669,2.72,8.422,8.422,0,0,0-1.1,3.876h14.994a8.3,8.3,0,0,0-1.122-3.876,7.538,7.538,0,0,0-2.686-2.72A7.14,7.14,0,0,0-110.177-17.034ZM-89.811.1A8.519,8.519,0,0,1-94.18-1.037a8.022,8.022,0,0,1-3.06-3.179,9.48,9.48,0,0,1-1.105-4.59,9.382,9.382,0,0,1,1.105-4.573,8.052,8.052,0,0,1,3.06-3.162,8.519,8.519,0,0,1,4.369-1.139,8.519,8.519,0,0,1,4.369,1.139,8.052,8.052,0,0,1,3.06,3.162,9.382,9.382,0,0,1,1.1,4.573,9.48,9.48,0,0,1-1.1,4.59,8.023,8.023,0,0,1-3.06,3.179A8.519,8.519,0,0,1-89.811.1Zm0-.646A7.8,7.8,0,0,0-85.8-1.6a7.422,7.422,0,0,0,2.822-2.941,8.828,8.828,0,0,0,1.02-4.267,8.828,8.828,0,0,0-1.02-4.267A7.3,7.3,0,0,0-85.8-16a7.9,7.9,0,0,0-4.012-1.037A7.9,7.9,0,0,0-93.823-16a7.3,7.3,0,0,0-2.822,2.924,8.828,8.828,0,0,0-1.02,4.267,8.828,8.828,0,0,0,1.02,4.267A7.422,7.422,0,0,0-93.823-1.6,7.8,7.8,0,0,0-89.811-.544ZM-58.5-17.68a8.454,8.454,0,0,1,4.335,1.139,8.172,8.172,0,0,1,3.077,3.162,9.268,9.268,0,0,1,1.122,4.573,9.364,9.364,0,0,1-1.122,4.59,8.141,8.141,0,0,1-3.077,3.179A8.454,8.454,0,0,1-58.5.1a8.253,8.253,0,0,1-4.862-1.479,7.978,7.978,0,0,1-2.992-4V0h-.68V-25.228h.68V-12.24A7.956,7.956,0,0,1-63.342-16.2,8.276,8.276,0,0,1-58.5-17.68Zm0,17.136A7.8,7.8,0,0,0-54.485-1.6a7.422,7.422,0,0,0,2.822-2.941,8.828,8.828,0,0,0,1.02-4.267,8.828,8.828,0,0,0-1.02-4.267A7.3,7.3,0,0,0-54.485-16,7.9,7.9,0,0,0-58.5-17.034,7.9,7.9,0,0,0-62.509-16a7.3,7.3,0,0,0-2.822,2.924,8.828,8.828,0,0,0-1.02,4.267,8.828,8.828,0,0,0,1.02,4.267A7.422,7.422,0,0,0-62.509-1.6,7.8,7.8,0,0,0-58.5-.544ZM-30-8.806h-15.64a8.6,8.6,0,0,0,1.054,4.267A7.554,7.554,0,0,0-41.684-1.6,8.274,8.274,0,0,0-37.519-.544a8.292,8.292,0,0,0,3.383-.7,6.561,6.561,0,0,0,2.6-2.023l.476.476A7.663,7.663,0,0,1-33.915-.646a8.85,8.85,0,0,1-3.6.748,8.9,8.9,0,0,1-4.505-1.139,8.189,8.189,0,0,1-3.128-3.179,9.253,9.253,0,0,1-1.139-4.59,9.749,9.749,0,0,1,1.054-4.573,7.922,7.922,0,0,1,2.907-3.162,7.793,7.793,0,0,1,4.165-1.139,7.909,7.909,0,0,1,4.148,1.122,7.968,7.968,0,0,1,2.941,3.094A9.251,9.251,0,0,1-30-8.976Zm-8.16-8.228a7.14,7.14,0,0,0-3.706.986,7.406,7.406,0,0,0-2.669,2.72,8.422,8.422,0,0,0-1.1,3.876h14.994a8.3,8.3,0,0,0-1.122-3.876,7.538,7.538,0,0,0-2.686-2.72A7.14,7.14,0,0,0-38.165-17.034Zm19.006-.646A6.412,6.412,0,0,1-14.484-16.1a6.115,6.115,0,0,1,1.615,4.573V0h-.68V-3.74A6.378,6.378,0,0,1-16.116-.918,7.947,7.947,0,0,1-20.247.1,7.048,7.048,0,0,1-24.82-1.241a4.39,4.39,0,0,1-1.649-3.587A4.347,4.347,0,0,1-24.99-8.245q1.479-1.309,4.777-1.309h6.664v-1.938A5.588,5.588,0,0,0-14.96-15.64a5.69,5.69,0,0,0-4.165-1.394,9.435,9.435,0,0,0-3.553.663,8.96,8.96,0,0,0-2.839,1.785l-.476-.476a8.96,8.96,0,0,1,3.06-1.921A10.371,10.371,0,0,1-19.159-17.68ZM-20.247-.544a6.644,6.644,0,0,0,6.7-4.488V-8.908h-6.7a6.628,6.628,0,0,0-4.2,1.088,3.6,3.6,0,0,0-1.343,2.958A3.813,3.813,0,0,0-24.327-1.7,6.425,6.425,0,0,0-20.247-.544ZM-4.573-13.022a6.529,6.529,0,0,1,2.516-3.451A7.6,7.6,0,0,1,2.329-17.68V-17h-.2A6.2,6.2,0,0,0-2.8-14.977,8.108,8.108,0,0,0-4.573-9.452V0h-.68V-17.578h.68ZM15.963-17.68A8.454,8.454,0,0,1,20.3-16.541a8.172,8.172,0,0,1,3.077,3.162A9.268,9.268,0,0,1,24.5-8.806a9.364,9.364,0,0,1-1.122,4.59A8.141,8.141,0,0,1,20.3-1.037,8.454,8.454,0,0,1,15.963.1,8.254,8.254,0,0,1,11.1-1.377a7.978,7.978,0,0,1-2.992-4V0h-.68V-25.228h.68V-12.24A7.956,7.956,0,0,1,11.118-16.2,8.276,8.276,0,0,1,15.963-17.68Zm0,17.136A7.8,7.8,0,0,0,19.975-1.6,7.422,7.422,0,0,0,22.8-4.539a8.828,8.828,0,0,0,1.02-4.267,8.828,8.828,0,0,0-1.02-4.267A7.3,7.3,0,0,0,19.975-16a7.9,7.9,0,0,0-4.012-1.037A7.9,7.9,0,0,0,11.951-16a7.3,7.3,0,0,0-2.822,2.924,8.828,8.828,0,0,0-1.02,4.267,8.828,8.828,0,0,0,1.02,4.267A7.422,7.422,0,0,0,11.951-1.6,7.8,7.8,0,0,0,15.963-.544ZM44.455-8.806H28.815a8.6,8.6,0,0,0,1.054,4.267A7.554,7.554,0,0,0,32.776-1.6,8.274,8.274,0,0,0,36.941-.544a8.292,8.292,0,0,0,3.383-.7,6.561,6.561,0,0,0,2.6-2.023l.476.476A7.663,7.663,0,0,1,40.545-.646a8.85,8.85,0,0,1-3.6.748,8.9,8.9,0,0,1-4.505-1.139,8.189,8.189,0,0,1-3.128-3.179,9.253,9.253,0,0,1-1.139-4.59,9.749,9.749,0,0,1,1.054-4.573,7.922,7.922,0,0,1,2.907-3.162A7.793,7.793,0,0,1,36.3-17.68a7.909,7.909,0,0,1,4.148,1.122,7.968,7.968,0,0,1,2.941,3.094,9.251,9.251,0,0,1,1.071,4.488ZM36.3-17.034a7.14,7.14,0,0,0-3.706.986,7.406,7.406,0,0,0-2.669,2.72,8.422,8.422,0,0,0-1.1,3.876H43.809a8.3,8.3,0,0,0-1.122-3.876A7.538,7.538,0,0,0,40-16.048,7.14,7.14,0,0,0,36.3-17.034ZM58.157-1.156a3.7,3.7,0,0,1-1.513.935A5.843,5.843,0,0,1,54.723.1a4.112,4.112,0,0,1-3.145-1.173,4.4,4.4,0,0,1-1.1-3.145V-16.932h-3.4v-.646h3.4V-21.42h.68v3.842H57.1v.646h-5.95V-4.386a4.043,4.043,0,0,0,.918,2.856,3.492,3.492,0,0,0,2.686.986,4.1,4.1,0,0,0,2.924-1.088ZM69-17.68A6.412,6.412,0,0,1,73.678-16.1a6.115,6.115,0,0,1,1.615,4.573V0h-.68V-3.74A6.378,6.378,0,0,1,72.046-.918,7.947,7.947,0,0,1,67.915.1a7.048,7.048,0,0,1-4.573-1.343,4.39,4.39,0,0,1-1.649-3.587,4.347,4.347,0,0,1,1.479-3.417q1.479-1.309,4.777-1.309h6.664v-1.938A5.588,5.588,0,0,0,73.2-15.64a5.69,5.69,0,0,0-4.165-1.394,9.435,9.435,0,0,0-3.553.663,8.96,8.96,0,0,0-2.839,1.785l-.476-.476a8.96,8.96,0,0,1,3.06-1.921A10.371,10.371,0,0,1,69-17.68ZM67.915-.544a6.644,6.644,0,0,0,6.7-4.488V-8.908h-6.7a6.628,6.628,0,0,0-4.2,1.088,3.6,3.6,0,0,0-1.343,2.958A3.813,3.813,0,0,0,63.835-1.7,6.425,6.425,0,0,0,67.915-.544ZM86.955.1a11.55,11.55,0,0,1-3.978-.68,7.541,7.541,0,0,1-2.89-1.734l.408-.544a8.066,8.066,0,0,0,2.737,1.649,10.248,10.248,0,0,0,3.723.663,7.567,7.567,0,0,0,4.42-1.037A3.353,3.353,0,0,0,92.8-4.454a2.825,2.825,0,0,0-.765-2.091,4.6,4.6,0,0,0-1.87-1.122A27.063,27.063,0,0,0,87.125-8.4a24.937,24.937,0,0,1-3.349-.8,5.038,5.038,0,0,1-2.142-1.36,3.679,3.679,0,0,1-.867-2.6,4.022,4.022,0,0,1,1.581-3.213,7.125,7.125,0,0,1,4.641-1.309,10.9,10.9,0,0,1,3.23.493A7.465,7.465,0,0,1,92.8-15.878l-.408.544a7.352,7.352,0,0,0-2.448-1.258,9.946,9.946,0,0,0-2.958-.442,6.663,6.663,0,0,0-4.131,1.071,3.386,3.386,0,0,0-1.377,2.805,3,3,0,0,0,.782,2.193A4.672,4.672,0,0,0,84.2-9.792a24.016,24.016,0,0,0,3.06.714,27.879,27.879,0,0,1,3.3.816,4.955,4.955,0,0,1,2.074,1.309,3.5,3.5,0,0,1,.85,2.5,3.928,3.928,0,0,1-1.666,3.315A8.058,8.058,0,0,1,86.955.1Zm26.656,0a8.519,8.519,0,0,1-4.369-1.139,8.022,8.022,0,0,1-3.06-3.179,9.48,9.48,0,0,1-1.105-4.59,9.382,9.382,0,0,1,1.105-4.573,8.052,8.052,0,0,1,3.06-3.162,8.519,8.519,0,0,1,4.369-1.139,8.519,8.519,0,0,1,4.369,1.139,8.052,8.052,0,0,1,3.06,3.162,9.382,9.382,0,0,1,1.1,4.573,9.48,9.48,0,0,1-1.1,4.59,8.023,8.023,0,0,1-3.06,3.179A8.519,8.519,0,0,1,113.611.1Zm0-.646A7.8,7.8,0,0,0,117.623-1.6a7.422,7.422,0,0,0,2.822-2.941,8.828,8.828,0,0,0,1.02-4.267,8.828,8.828,0,0,0-1.02-4.267A7.3,7.3,0,0,0,117.623-16a7.9,7.9,0,0,0-4.012-1.037A7.9,7.9,0,0,0,109.6-16a7.3,7.3,0,0,0-2.822,2.924,8.828,8.828,0,0,0-1.02,4.267,8.828,8.828,0,0,0,1.02,4.267A7.422,7.422,0,0,0,109.6-1.6,7.8,7.8,0,0,0,113.611-.544ZM134.453.1A8.742,8.742,0,0,1,130-1.037,8.017,8.017,0,0,1,126.922-4.2a9.453,9.453,0,0,1-1.105-4.607,9.453,9.453,0,0,1,1.105-4.607A7.9,7.9,0,0,1,130-16.558a8.846,8.846,0,0,1,4.454-1.122,8.751,8.751,0,0,1,3.587.731,7.027,7.027,0,0,1,2.737,2.125l-.476.51a6.133,6.133,0,0,0-2.516-2.04,8.111,8.111,0,0,0-3.332-.68,8.124,8.124,0,0,0-4.1,1.037,7.272,7.272,0,0,0-2.839,2.924,8.828,8.828,0,0,0-1.02,4.267,8.8,8.8,0,0,0,1.02,4.284A7.417,7.417,0,0,0,130.356-1.6a8.021,8.021,0,0,0,4.1,1.054,8.111,8.111,0,0,0,3.332-.68,6.133,6.133,0,0,0,2.516-2.04l.476.51A7.027,7.027,0,0,1,138.04-.629,8.751,8.751,0,0,1,134.453.1ZM154.139-17.68a6.948,6.948,0,0,1,5.168,1.887,7.38,7.38,0,0,1,1.87,5.423V0h-.68V-10.37a6.864,6.864,0,0,0-1.649-4.947,6.178,6.178,0,0,0-4.675-1.717,7.192,7.192,0,0,0-5.423,2.057,7.472,7.472,0,0,0-1.989,5.423V0h-.68V-25.228h.68v12.342a6.986,6.986,0,0,1,2.72-3.519A8.182,8.182,0,0,1,154.139-17.68Zm-338.589,40a6.412,6.412,0,0,1,4.675,1.581,6.115,6.115,0,0,1,1.615,4.573V40h-.68V36.26a6.378,6.378,0,0,1-2.567,2.822,7.947,7.947,0,0,1-4.131,1.02,7.048,7.048,0,0,1-4.573-1.343,4.39,4.39,0,0,1-1.649-3.587,4.347,4.347,0,0,1,1.479-3.417q1.479-1.309,4.777-1.309h6.664V28.508a5.588,5.588,0,0,0-1.411-4.148,5.69,5.69,0,0,0-4.165-1.394,9.435,9.435,0,0,0-3.553.663,8.96,8.96,0,0,0-2.839,1.785l-.476-.476a8.96,8.96,0,0,1,3.06-1.921A10.371,10.371,0,0,1-184.45,22.32Zm-1.088,17.136a6.644,6.644,0,0,0,6.7-4.488V31.092h-6.7a6.628,6.628,0,0,0-4.2,1.088,3.6,3.6,0,0,0-1.343,2.958,3.813,3.813,0,0,0,1.462,3.162A6.425,6.425,0,0,0-185.538,39.456Zm-1.938-21.25a.828.828,0,0,1-.629-.272.873.873,0,0,1-.255-.612.855.855,0,0,1,.255-.629.855.855,0,0,1,.629-.255.872.872,0,0,1,.612.255.828.828,0,0,1,.272.629.846.846,0,0,1-.272.612A.846.846,0,0,1-187.476,18.206Zm5.576,0a.828.828,0,0,1-.629-.272.872.872,0,0,1-.255-.612.855.855,0,0,1,.255-.629.855.855,0,0,1,.629-.255.872.872,0,0,1,.612.255.828.828,0,0,1,.272.629.846.846,0,0,1-.272.612A.846.846,0,0,1-181.9,18.206Zm12.036,8.772a6.53,6.53,0,0,1,2.516-3.451,7.6,7.6,0,0,1,4.386-1.207V23h-.2a6.2,6.2,0,0,0-4.93,2.023,8.108,8.108,0,0,0-1.768,5.525V40h-.68V22.422h.68Zm28.8,11.866a3.7,3.7,0,0,1-1.513.935,5.843,5.843,0,0,1-1.921.323,4.112,4.112,0,0,1-3.145-1.173,4.4,4.4,0,0,1-1.1-3.145V23.068h-3.4v-.646h3.4V18.58h.68v3.842h5.95v.646h-5.95V35.614a4.043,4.043,0,0,0,.918,2.856,3.492,3.492,0,0,0,2.686.986,4.1,4.1,0,0,0,2.924-1.088Zm5.236-16.422h.68V40h-.68Zm.34-4.862a.828.828,0,0,1-.629-.272.873.873,0,0,1-.255-.612.855.855,0,0,1,.255-.629.855.855,0,0,1,.629-.255.872.872,0,0,1,.612.255.828.828,0,0,1,.272.629.846.846,0,0,1-.272.612A.846.846,0,0,1-135.49,17.56Zm8.16-2.788h.68V40h-.68Zm8.5,0h.68V40h-.68Zm23.7,7.65V38.436q0,4.216-2.006,6.239t-6.12,2.023a12.48,12.48,0,0,1-4.471-.782,8.572,8.572,0,0,1-3.315-2.142l.476-.476a9.337,9.337,0,0,0,3.23,2.04,11.346,11.346,0,0,0,4.08.714q3.808,0,5.627-1.819t1.819-5.7v-4.42a8,8,0,0,1-3.043,3.859,8.527,8.527,0,0,1-4.913,1.445,8.885,8.885,0,0,1-4.42-1.1,8.027,8.027,0,0,1-3.094-3.06,8.685,8.685,0,0,1-1.122-4.4,8.685,8.685,0,0,1,1.122-4.4,7.907,7.907,0,0,1,3.094-3.043,9,9,0,0,1,4.42-1.088,8.6,8.6,0,0,1,4.913,1.428,7.921,7.921,0,0,1,3.043,3.808V22.422Zm-8.636,16.354a8.342,8.342,0,0,0,4.1-1,7.158,7.158,0,0,0,2.839-2.822,8.231,8.231,0,0,0,1.02-4.1,8.136,8.136,0,0,0-1.02-4.08,7.189,7.189,0,0,0-2.839-2.805,8.342,8.342,0,0,0-4.1-1,8.342,8.342,0,0,0-4.1,1,7.189,7.189,0,0,0-2.839,2.805,8.136,8.136,0,0,0-1.02,4.08,8.231,8.231,0,0,0,1.02,4.1,7.158,7.158,0,0,0,2.839,2.822A8.342,8.342,0,0,0-103.768,38.776ZM-81.7,22.32A6.412,6.412,0,0,1-77.027,23.9a6.115,6.115,0,0,1,1.615,4.573V40h-.68V36.26a6.378,6.378,0,0,1-2.567,2.822A7.947,7.947,0,0,1-82.79,40.1a7.048,7.048,0,0,1-4.573-1.343,4.39,4.39,0,0,1-1.649-3.587,4.347,4.347,0,0,1,1.479-3.417q1.479-1.309,4.777-1.309h6.664V28.508A5.588,5.588,0,0,0-77.5,24.36a5.69,5.69,0,0,0-4.165-1.394,9.435,9.435,0,0,0-3.553.663,8.96,8.96,0,0,0-2.839,1.785l-.476-.476a8.96,8.96,0,0,1,3.06-1.921A10.371,10.371,0,0,1-81.7,22.32ZM-82.79,39.456a6.644,6.644,0,0,0,6.7-4.488V31.092h-6.7a6.628,6.628,0,0,0-4.2,1.088,3.6,3.6,0,0,0-1.343,2.958A3.813,3.813,0,0,0-86.87,38.3,6.425,6.425,0,0,0-82.79,39.456Zm-1.938-21.25a.828.828,0,0,1-.629-.272.872.872,0,0,1-.255-.612.855.855,0,0,1,.255-.629.855.855,0,0,1,.629-.255.873.873,0,0,1,.612.255.828.828,0,0,1,.272.629.846.846,0,0,1-.272.612A.846.846,0,0,1-84.728,18.206Zm5.576,0a.828.828,0,0,1-.629-.272.872.872,0,0,1-.255-.612.855.855,0,0,1,.255-.629.855.855,0,0,1,.629-.255.872.872,0,0,1,.612.255.828.828,0,0,1,.272.629.846.846,0,0,1-.272.612A.846.846,0,0,1-79.152,18.206Zm19.414,4.114a6.948,6.948,0,0,1,5.168,1.887A7.38,7.38,0,0,1-52.7,29.63V40h-.68V29.63a6.864,6.864,0,0,0-1.649-4.947A6.178,6.178,0,0,0-59.7,22.966a7.192,7.192,0,0,0-5.423,2.057,7.472,7.472,0,0,0-1.989,5.423V40h-.68V22.422h.68v4.692A6.986,6.986,0,0,1-64.4,23.6,8.182,8.182,0,0,1-59.738,22.32Zm29.852.1V38.436q0,4.216-2.006,6.239t-6.12,2.023a12.48,12.48,0,0,1-4.471-.782A8.572,8.572,0,0,1-45.8,43.774l.476-.476a9.337,9.337,0,0,0,3.23,2.04,11.346,11.346,0,0,0,4.08.714q3.808,0,5.627-1.819t1.819-5.7v-4.42a8,8,0,0,1-3.043,3.859,8.527,8.527,0,0,1-4.913,1.445,8.885,8.885,0,0,1-4.42-1.1,8.027,8.027,0,0,1-3.094-3.06,8.685,8.685,0,0,1-1.122-4.4,8.685,8.685,0,0,1,1.122-4.4,7.907,7.907,0,0,1,3.094-3.043,9,9,0,0,1,4.42-1.088,8.6,8.6,0,0,1,4.913,1.428,7.921,7.921,0,0,1,3.043,3.808V22.422Zm-8.636,16.354a8.342,8.342,0,0,0,4.1-1,7.158,7.158,0,0,0,2.839-2.822,8.231,8.231,0,0,0,1.02-4.1,8.136,8.136,0,0,0-1.02-4.08,7.189,7.189,0,0,0-2.839-2.805,8.342,8.342,0,0,0-4.1-1,8.342,8.342,0,0,0-4.1,1,7.189,7.189,0,0,0-2.839,2.805,8.136,8.136,0,0,0-1.02,4.08,8.231,8.231,0,0,0,1.02,4.1,7.158,7.158,0,0,0,2.839,2.822A8.342,8.342,0,0,0-38.522,38.776Zm16.456-24h.68V40h-.68Zm8.5,7.65h.68V40h-.68Zm.34-4.862a.828.828,0,0,1-.629-.272.872.872,0,0,1-.255-.612.855.855,0,0,1,.255-.629.855.855,0,0,1,.629-.255.872.872,0,0,1,.612.255.828.828,0,0,1,.272.629.846.846,0,0,1-.272.612A.846.846,0,0,1-13.226,17.56Zm23.358,4.862V38.436q0,4.216-2.006,6.239T2.006,46.7a12.48,12.48,0,0,1-4.471-.782A8.572,8.572,0,0,1-5.78,43.774L-5.3,43.3a9.337,9.337,0,0,0,3.23,2.04,11.346,11.346,0,0,0,4.08.714q3.808,0,5.627-1.819t1.819-5.7v-4.42a8,8,0,0,1-3.043,3.859A8.527,8.527,0,0,1,1.5,39.422a8.885,8.885,0,0,1-4.42-1.1,8.027,8.027,0,0,1-3.094-3.06,9.2,9.2,0,0,1,0-8.806,7.907,7.907,0,0,1,3.094-3.043A9,9,0,0,1,1.5,22.32a8.6,8.6,0,0,1,4.913,1.428,7.921,7.921,0,0,1,3.043,3.808V22.422ZM1.5,38.776a8.342,8.342,0,0,0,4.1-1,7.158,7.158,0,0,0,2.839-2.822,8.231,8.231,0,0,0,1.02-4.1,8.136,8.136,0,0,0-1.02-4.08,7.189,7.189,0,0,0-2.839-2.805,8.342,8.342,0,0,0-4.1-1,8.342,8.342,0,0,0-4.1,1A7.189,7.189,0,0,0-5.44,26.774a8.136,8.136,0,0,0-1.02,4.08,8.231,8.231,0,0,0,1.02,4.1A7.158,7.158,0,0,0-2.6,37.773,8.342,8.342,0,0,0,1.5,38.776ZM26.452,22.422h.68V40h-.68Zm.34-4.862a.828.828,0,0,1-.629-.272.872.872,0,0,1-.255-.612.871.871,0,0,1,.884-.884.872.872,0,0,1,.612.255.828.828,0,0,1,.272.629.933.933,0,0,1-.884.884ZM43.01,22.32a6.948,6.948,0,0,1,5.168,1.887,7.38,7.38,0,0,1,1.87,5.423V40h-.68V29.63a6.864,6.864,0,0,0-1.649-4.947,6.178,6.178,0,0,0-4.675-1.717,7.192,7.192,0,0,0-5.423,2.057,7.472,7.472,0,0,0-1.989,5.423V40h-.68V22.422h.68v4.692a6.986,6.986,0,0,1,2.72-3.519A8.182,8.182,0,0,1,43.01,22.32ZM64.124,40.1a8.519,8.519,0,0,1-4.369-1.139,8.023,8.023,0,0,1-3.06-3.179,9.48,9.48,0,0,1-1.105-4.59,9.382,9.382,0,0,1,1.105-4.573,8.052,8.052,0,0,1,3.06-3.162,8.949,8.949,0,0,1,8.738,0,8.052,8.052,0,0,1,3.06,3.162,9.382,9.382,0,0,1,1.1,4.573,9.48,9.48,0,0,1-1.1,4.59,8.023,8.023,0,0,1-3.06,3.179A8.519,8.519,0,0,1,64.124,40.1Zm0-.646A7.8,7.8,0,0,0,68.136,38.4a7.422,7.422,0,0,0,2.822-2.941,9.435,9.435,0,0,0,0-8.534A7.3,7.3,0,0,0,68.136,24a8.279,8.279,0,0,0-8.024,0,7.3,7.3,0,0,0-2.822,2.924,9.435,9.435,0,0,0,0,8.534A7.422,7.422,0,0,0,60.112,38.4,7.8,7.8,0,0,0,64.124,39.456ZM100.266,22.32a6.639,6.639,0,0,1,5.015,1.887A7.505,7.505,0,0,1,107.1,29.63V40h-.68V29.63a7,7,0,0,0-1.6-4.947,5.873,5.873,0,0,0-4.522-1.717,6.893,6.893,0,0,0-5.27,2.057,7.586,7.586,0,0,0-1.938,5.423V40h-.68V29.63a7,7,0,0,0-1.6-4.947,5.873,5.873,0,0,0-4.522-1.717,6.893,6.893,0,0,0-5.27,2.057,7.586,7.586,0,0,0-1.938,5.423V40H78.4V22.422h.68V27.08a6.778,6.778,0,0,1,2.652-3.5,7.912,7.912,0,0,1,4.522-1.258,7.007,7.007,0,0,1,4.42,1.343,6.265,6.265,0,0,1,2.244,3.893,6.925,6.925,0,0,1,2.6-3.825A7.793,7.793,0,0,1,100.266,22.32ZM129.1,29.834l-5.2,4.726V40h-.68V14.772h.68V33.744l12.41-11.322h.986l-7.65,7L138.074,40h-.884ZM148.376,40.1a8.519,8.519,0,0,1-4.369-1.139,8.023,8.023,0,0,1-3.06-3.179,9.48,9.48,0,0,1-1.1-4.59,9.382,9.382,0,0,1,1.1-4.573,8.052,8.052,0,0,1,3.06-3.162,8.949,8.949,0,0,1,8.738,0,8.052,8.052,0,0,1,3.06,3.162,9.382,9.382,0,0,1,1.1,4.573,9.48,9.48,0,0,1-1.1,4.59,8.023,8.023,0,0,1-3.06,3.179A8.519,8.519,0,0,1,148.376,40.1Zm0-.646a7.8,7.8,0,0,0,4.012-1.054,7.422,7.422,0,0,0,2.822-2.941,9.435,9.435,0,0,0,0-8.534A7.3,7.3,0,0,0,152.388,24a8.279,8.279,0,0,0-8.024,0,7.3,7.3,0,0,0-2.822,2.924,9.435,9.435,0,0,0,0,8.534,7.422,7.422,0,0,0,2.822,2.941A7.8,7.8,0,0,0,148.376,39.456Zm14.96-12.478a6.53,6.53,0,0,1,2.516-3.451,7.6,7.6,0,0,1,4.386-1.207V23h-.2a6.2,6.2,0,0,0-4.93,2.023,8.108,8.108,0,0,0-1.768,5.525V40h-.68V22.422h.68Zm20.808,11.866a3.7,3.7,0,0,1-1.513.935,5.843,5.843,0,0,1-1.921.323,4.112,4.112,0,0,1-3.145-1.173,4.4,4.4,0,0,1-1.1-3.145V23.068h-3.4v-.646h3.4V18.58h.68v3.842h5.95v.646h-5.95V35.614a4.043,4.043,0,0,0,.918,2.856,3.492,3.492,0,0,0,2.686.986,4.1,4.1,0,0,0,2.924-1.088Z" transform="translate(691 408)" fill="#323232"/>
  </g>
</svg>
