<?xml version="1.0" encoding="UTF-8"?><svg id="b" xmlns="http://www.w3.org/2000/svg" width="283.92" height="115.38" viewBox="0 0 283.92 115.38"><defs><style>.d{fill:#1a8fc6;}.e{fill:#030405;}</style></defs><g id="c"><path class="e" d="M15.6,38.45c6.02,7.1,16.54,7.61,23.22,1.19l1.82-2,6.79,5.2c-9.9,12.62-28.06,12.84-38.61,1.07C.26,34.37.25,19.75,8.67,10.11,12.74,5.45,18.55,2.2,24.79,1.55c1.96-.2,3.92-.08,5.9-.07,6.71.92,12.56,4.13,16.75,9.61l-6.86,5.14c-2.82-3.76-6.94-6.09-11.5-6.41-3.26-.21-6.13.35-8.94,1.94-9.47,5.35-11.52,18.46-4.53,26.69Z"/><path class="e" d="M83.36,34.89c0,9.78-7.95,17.71-17.75,17.71s-17.75-7.93-17.75-17.71,7.95-17.71,17.75-17.71,17.75,7.93,17.75,17.71ZM64.52,44.46c5.53.81,10.2-3.39,10.64-8.72.49-5.97-4.3-11.13-10.29-10.48-4.29.46-7.73,3.8-8.19,8.04-.12,1.09-.14,2.31,0,3.39.54,3.98,3.7,7.17,7.83,7.78Z"/><path class="e" d="M108.33,26.45c-1.47-1.07-3.01-1.12-4.69-1.07-3.83.19-6.52,3.09-7.39,6.89l-.02,19.48h-8.39s0-33.77,0-33.77h8.39s.03,4.79.03,4.79c2.23-3.85,6.43-5.64,11.01-5.56,7.65.12,11.87,5.41,12.73,12.84v21.7s-8.39,0-8.39,0l-.08-18.79c-.01-2.59-1.12-5.01-3.19-6.51Z"/><path class="e" d="M150.72,24.94l-13.68-.02v26.83s-8.64,0-8.64,0v-26.82s-6.48,0-6.48,0v-6.94s6.51,0,6.51,0c-.22-5.14.17-10.46,3.7-14.29,1.87-2.03,4.55-3.23,7.38-3.58,1.7-.21,3.43-.08,5.21-.1v7.94c-2.06-.15-4.12-.1-5.77,1.16-1.37,1.04-1.96,2.84-1.92,4.53l.02,4.33h22.31s0,33.77,0,33.77h-8.64s0-26.81,0-26.81Z"/><path class="e" d="M283.92,17.98v33.77h-8.63s-.03-4.83-.03-4.83c-2.53,3.44-6.25,5.41-10.52,5.6-5.05.22-9.54-1.65-12.82-5.52-5.58-6.59-5.68-17.57.01-24.28,3.35-3.95,8.1-5.74,13.29-5.5,3.98.18,7.61,1.95,10.04,5.06l.03-4.31h8.63ZM275.23,34.87c0-5.26-4.27-9.52-9.54-9.52s-9.54,4.26-9.54,9.52,4.27,9.52,9.54,9.52,9.54-4.26,9.54-9.52Z"/><path class="e" d="M221.61,34.77l-.09,16.98h-8.39s-.06-19.56-.06-19.56c0-1.83-.84-3.71-1.92-5.02-1.3-1.58-3.42-2.16-5.29-1.91-3.14.43-5.57,2.27-6.2,5.4l-.44,2.18-.02,18.9h-8.39s0-33.77,0-33.77h8.4s0,4.53,0,4.53l1.7-2.31c2.62-2.22,5.68-3.15,9.12-2.97,4.2.21,7.87,2.5,9.83,6.49,2.63-4.51,7.01-6.7,11.97-6.53,8,.29,11.57,5.94,12.25,13.57l.02,20.98h-8.4s-.08-18.79-.08-18.79c-.02-4.4-2.72-8.03-7.23-7.71-4.86.35-6.73,4.72-6.75,9.53Z"/><path class="e" d="M174.03,37.4l-.04,14.35h-8.63s0-33.77,0-33.77h8.63s.03,6.03.03,6.03c.77-1.35,1.44-2.65,2.43-3.8,2.98-3.47,8.4-3.78,12.57-1.8l-1.68,8.06c-4.23-1.97-8.36-1.71-10.74,2.01-1.71,2.66-2.13,5.64-2.56,8.91Z"/><path class="d" d="M179.73,115.38h-4.24c-8-.89-14.18-6.99-15.06-15.13l-.02-4.83c.84-9.65,9.06-16.1,18.87-15.25,8.33.72,14.01,6.67,14.93,14.94.21,1.87.27,3.61-.15,5.51h-27.07c1.15,5.64,4.85,8.57,10.61,8.68,4.09.08,7.8-1.7,9.9-5.26l5.62,2.26c-2.58,5.41-7.76,8.44-13.4,9.08ZM187.79,94.86c-.79-5.6-5.43-8.85-10.67-8.68s-9.21,3.56-9.98,8.69l20.65-.02Z"/><path class="d" d="M148.29,115.38h-3.78c-5.98-.89-10.42-4.56-10.78-10.93h6.15c-.03,1.92,1.06,3.59,2.82,4.46,2.58,1.28,6.01,1.18,8.37-.42,1.7-1.16,2.35-3.18,1.5-4.97-.75-1.56-2.44-2.25-4.04-2.62l-4.87-1.15c-1.61-.38-3.17-1.08-4.55-1.88-2.9-1.67-4.17-4.52-4.05-7.81.06-1.62.25-3.05,1.08-4.49,1.93-3.37,5.38-5.14,9.26-5.43h2.51c2.67.27,5.28,1,7.31,2.8s3.19,4.4,2.95,7.12h-6.19c-.1-1.96-1.38-3.22-3.14-3.88-2.64-1-5.84-.11-7.07,2.63-.28.62-.29,2.15.02,2.75.57,1.14,1.79,1.99,2.97,2.3l6.67,1.76c2.19.58,4.28,1.59,5.83,3.27,1.06,1.15,2.04,2.79,2.05,4.36l.03,3.34c-.31,2.83-2.09,5.08-4.43,6.58-2.01,1.29-4.3,1.91-6.6,2.21Z"/><polygon class="d" points="116.18 81 123.26 80.99 109.26 114.45 102.83 114.49 88.92 81.05 95.89 80.98 106.07 106.1 116.18 81"/><polygon class="d" points="80.88 114.48 74.4 114.51 74.4 86.49 68.4 86.48 68.4 80.97 74.4 80.97 74.4 68.28 80.88 68.28 80.88 80.97 88.08 80.97 88.08 86.48 80.88 86.48 80.88 114.48"/><rect class="d" x="124.56" y="80.97" width="6.48" height="33.53"/><path class="d" d="M130.97,65.78c1.37,1.35,1.64,3.25.91,4.81-.67,1.43-2.18,2.41-3.95,2.5-2.44.12-4.48-1.43-4.77-3.77s1.39-4.42,3.94-4.8c1.24-.18,2.89.3,3.87,1.26Z"/><path class="d" d="M0,114.5v-.72l18.67-48.61h7.17s18.78,49.32,18.78,49.32h-7.12s-4.73-12.44-4.73-12.44H11.74s-4.73,12.45-4.73,12.45H0ZM30.53,96.06l-8.28-21.88-8.27,21.88h16.55Z"/><path class="d" d="M52.2,99.92l-.12,14.59h-6.47s0-33.53,0-33.53h6.47s.05,6.54.05,6.54c.95-2.22,1.85-4.13,3.78-5.66,3.07-2.44,7.7-2.12,11.44-.5l-1.08,6.18c-2.76-1.15-5.23-1.62-7.77-.62-4.3,1.69-6.25,8.32-6.29,13Z"/></g></svg>