<svg width="400px" height="224px" id="Layer_1" data-name="Layer 1" xmlns="http://www.w3.org/2000/svg" viewBox="0 0 500 280"><defs><style>.cls-1{fill:none;}.cls-2{fill:#941d55;}.cls-3{fill:#fff;}</style></defs><rect class="cls-1" width="500" height="280"/><path class="cls-2" d="M366,174H105.59A5.59,5.59,0,0,1,100,168.4V111.6a5.59,5.59,0,0,1,5.59-5.59H365.5c18.65,0,34.21,14.81,34.5,33.46A34,34,0,0,1,366,174Z"/><path class="cls-3" d="M139.79,121v34.7h-4.46v-3.86a9.27,9.27,0,0,1-8.31,4.36c-7,0-11.63-5.26-11.63-12.89S120,130.37,127,130.37a9.27,9.27,0,0,1,8.31,4.36V121Zm-4.45,22.31c0-5.41-3-9.12-7.72-9.12s-7.77,3.71-7.77,9.12,3.12,9.12,7.77,9.12S135.34,148.67,135.34,143.26Z"/><path class="cls-3" d="M144.54,143.26c0-7.59,5.2-12.89,12.47-12.89s12.43,5.31,12.43,12.89-5.2,12.89-12.43,12.89S144.54,150.85,144.54,143.26Zm20.44,0c0-5.41-3.36-9.12-8-9.12s-8,3.71-8,9.12,3.36,9.12,8,9.12S165,148.67,165,143.26Z"/><path class="cls-3" d="M172.7,143.26c0-7.59,5.25-12.89,12.43-12.89a10.38,10.38,0,0,1,10.44,7.73l-3.71,1.25a6.79,6.79,0,0,0-6.73-5.21c-4.56,0-8,3.67-8,9.13s3.41,9.11,8,9.11a7.37,7.37,0,0,0,7.17-5.1l3.62,1.44a11.06,11.06,0,0,1-10.84,7.43C178,156.15,172.7,150.9,172.7,143.26Z"/><path class="cls-3" d="M222.1,130.87v24.78h-4.46V150.9a9,9,0,0,1-8.46,5.25c-5.4,0-9-3.67-9-9.66V130.87h4.46V146c0,3.87,2.08,6.34,5.59,6.34,4.3,0,7.42-3.71,7.42-10.7V130.87Z"/><path class="cls-3" d="M266.34,140.09v15.56h-4.45V140.49c0-3.87-1.88-6.35-5.3-6.35-4.11,0-7,3.67-7,10.71v10.8h-4.45V140.49c0-3.87-1.83-6.35-5.3-6.35-4.1,0-7,3.67-7,10.71v10.8h-4.46V130.87h4.46v4.71a8.74,8.74,0,0,1,16,.1,9.08,9.08,0,0,1,8.51-5.31C262.93,130.37,266.34,134,266.34,140.09Z"/><path class="cls-3" d="M291.58,140.83v14.82h-4.16v-4.26a8.32,8.32,0,0,1-7.82,4.76c-4.6,0-7.77-2.78-7.77-7.09,0-4,2.57-6.4,8.71-7.54l6.58-1.24a5.79,5.79,0,0,0-6-6,6.63,6.63,0,0,0-6.63,5.6l-3.71-1.14a10.35,10.35,0,0,1,10.54-8.38C287.32,130.37,291.58,134.59,291.58,140.83Zm-4.45,3.62v-.74l-5,.94c-4.06.8-5.84,2-5.84,4.46s1.73,3.72,4.16,3.72C284.41,152.83,287.13,149.36,287.13,144.45Z"/><path class="cls-3" d="M295.83,148.91l3.47-1.19c.69,3,3.27,4.91,6.73,4.91,3.22,0,5.25-1.59,5.25-3.87,0-1.73-1.14-2.87-3.57-3.22l-4.6-.74c-3.56-.55-6.43-3-6.43-6.89,0-4.41,3.76-7.54,9.06-7.54,4.6,0,8,2.38,9.05,6.15l-3.41,1.19c-.6-2.38-2.68-3.92-5.55-3.92s-4.8,1.54-4.8,3.77c0,1.84,1.28,2.83,3.21,3.13l4.9.79c4,.64,6.54,3.13,6.54,6.84,0,4.71-4,7.84-9.51,7.84C300.88,156.15,297,153.27,295.83,148.91Z"/><path class="cls-3" d="M335,153.08a6.47,6.47,0,0,1-5.8,3.07c-4.21,0-6.92-2.68-6.92-7.14V134.63h-4v-3.77h4v-5.55l4.45-1.88v7.43h6.58v3.77h-6.58v14.48c0,2.08,1.09,3.32,3,3.32a2.77,2.77,0,0,0,2.48-1.39Z"/><path class="cls-3" d="M359.54,144.2H340.73c.19,5.41,3.91,8.28,8.17,8.28a8,8,0,0,0,7.27-4.51l3.17,1.89a11.67,11.67,0,0,1-10.59,6.29c-6.89,0-12.38-5-12.38-12.88,0-7.59,5.05-12.89,12.13-12.89s11.14,5.15,11.14,12.34A12.73,12.73,0,0,1,359.54,144.2Zm-18.62-3.37h14.41c-.25-4-2.92-6.89-6.94-6.89A7.33,7.33,0,0,0,340.92,140.83Z"/><path class="cls-3" d="M378.73,131.36l-1.53,3.72a4.17,4.17,0,0,0-2.22-.55c-3.66,0-5.79,2.93-5.79,10.61v10.51h-4.46l0-24.79h4.35v4.27c1.39-3.32,3.62-4.66,6.34-4.66A5.9,5.9,0,0,1,378.73,131.36Z"/></svg>