<?xml version="1.0" encoding="UTF-8"?>
<svg xmlns="http://www.w3.org/2000/svg" width="180" height="76" viewBox="0 0 180 76" role="img" aria-label="DRT Solutions logo">
  <title>DRT Solutions logo</title>
  <path fill="#1391D1" fill-rule="evenodd" d="M 33.875 65.093 C 33.738 65.007 33.496 64.802 33.339 64.637 C 33.158 64.446 32.844 64.257 32.481 64.118 C 32.166 63.997 31.799 63.807 31.664 63.694 C 31.349 63.428 30.181 62.745 29.125 62.209 C 28.206 61.742 27.17 61.111 26.567 60.649 C 26.351 60.484 25.976 60.285 25.733 60.205 C 25.49 60.126 25.179 60.004 25.042 59.935 C 24.904 59.867 24.668 59.703 24.518 59.572 C 24.367 59.44 24.065 59.242 23.846 59.131 C 23.627 59.021 23.296 58.803 23.11 58.647 C 22.923 58.491 22.588 58.298 22.365 58.217 C 21.568 57.928 21.491 57.891 21.185 57.647 C 21.014 57.511 20.615 57.268 20.298 57.108 C 19.98 56.947 19.528 56.671 19.292 56.493 C 19.057 56.316 18.701 56.113 18.502 56.042 C 18.302 55.972 17.948 55.788 17.715 55.634 C 17.482 55.48 17.048 55.232 16.75 55.082 C 16.452 54.933 16.096 54.726 15.958 54.623 C 15.821 54.52 15.502 54.333 15.25 54.208 C 14.998 54.084 14.604 53.838 14.375 53.663 C 14.146 53.488 13.778 53.268 13.559 53.174 C 13.339 53.08 13.034 52.908 12.882 52.792 C 12.73 52.675 12.303 52.384 11.933 52.144 C 11.563 51.905 10.972 51.507 10.619 51.261 C 9.893 50.754 7.382 48.285 6.83 47.536 C 6.631 47.264 6.182 46.704 5.833 46.292 C 5.484 45.879 5.074 45.335 4.923 45.083 C 4.772 44.831 4.504 44.436 4.327 44.204 C 4.15 43.973 3.944 43.635 3.868 43.454 C 3.792 43.273 3.622 42.988 3.49 42.821 C 3.357 42.653 3.135 42.259 2.996 41.946 C 2.857 41.632 2.579 41.056 2.379 40.667 C 2.178 40.277 1.937 39.648 1.842 39.268 C 1.748 38.888 1.525 38.213 1.347 37.768 C 1.168 37.323 0.983 36.827 0.934 36.667 C 0.556 35.415 0.294 34.679 0.159 34.489 C 0.006 34.275 0 34.04 0 28.512 C 0 22.757 0 22.757 0.202 22.459 C 0.411 22.152 0.804 21.041 1.045 20.083 C 1.119 19.785 1.291 19.348 1.426 19.111 C 1.56 18.874 1.739 18.368 1.823 17.986 C 1.973 17.297 2.128 16.914 2.428 16.486 C 2.514 16.364 2.689 16.008 2.817 15.695 C 2.945 15.381 3.182 14.953 3.343 14.743 C 3.504 14.532 3.724 14.139 3.83 13.868 C 3.936 13.597 4.127 13.241 4.253 13.078 C 4.379 12.915 4.636 12.531 4.823 12.225 C 5.01 11.919 5.361 11.421 5.603 11.118 C 6.29 10.257 8.134 8.239 8.523 7.921 C 8.717 7.763 9.231 7.311 9.667 6.917 C 10.102 6.522 10.608 6.09 10.792 5.956 C 10.975 5.822 11.312 5.557 11.542 5.368 C 11.771 5.179 12.146 4.918 12.375 4.788 C 12.604 4.657 12.908 4.464 13.051 4.358 C 13.194 4.251 13.569 4.038 13.884 3.884 C 14.2 3.73 14.637 3.456 14.856 3.275 C 15.083 3.087 15.457 2.883 15.731 2.799 C 15.993 2.718 16.444 2.524 16.731 2.368 C 17.019 2.212 17.625 1.992 18.079 1.88 C 18.533 1.768 19.086 1.583 19.31 1.47 C 19.533 1.357 19.939 1.202 20.212 1.126 C 20.485 1.05 21.163 0.839 21.72 0.657 C 22.276 0.475 22.797 0.253 22.878 0.163 C 23.022 0.004 23.174 0 28.55 0 C 33.855 0 34.085 0.006 34.349 0.161 C 34.501 0.249 35.256 0.513 36.028 0.747 C 36.799 0.982 37.737 1.3 38.111 1.454 C 38.485 1.608 39.125 1.801 39.532 1.881 C 40.099 1.993 40.381 2.1 40.744 2.342 C 41.003 2.516 41.483 2.756 41.81 2.878 C 42.136 2.999 42.547 3.221 42.723 3.371 C 42.898 3.521 43.277 3.762 43.565 3.908 C 43.853 4.053 44.257 4.301 44.464 4.458 C 44.67 4.616 45 4.816 45.195 4.902 C 45.391 4.989 45.742 5.224 45.975 5.426 C 46.208 5.627 46.688 6.035 47.042 6.333 C 47.396 6.631 47.99 7.156 48.362 7.5 C 49.151 8.23 51.25 10.47 51.25 10.583 C 51.25 10.625 51.41 10.859 51.606 11.101 C 52.121 11.737 53.029 13.063 53.25 13.5 C 53.354 13.706 53.551 14.017 53.687 14.19 C 53.824 14.364 54.049 14.776 54.187 15.107 C 54.326 15.438 54.541 15.858 54.666 16.042 C 54.79 16.225 54.989 16.6 55.108 16.875 C 55.673 18.186 55.997 19.112 56.127 19.795 C 56.207 20.213 56.411 20.854 56.59 21.251 C 56.865 21.86 56.952 22.21 57.196 23.71 C 57.437 25.185 57.498 25.837 57.581 27.875 C 57.651 29.557 57.672 33.976 57.653 42.417 C 57.626 53.922 57.617 54.556 57.474 54.817 C 57.392 54.969 57.185 55.247 57.016 55.435 C 56.812 55.661 56.478 55.882 56.025 56.09 C 55.65 56.263 55.181 56.553 54.984 56.733 C 54.786 56.914 54.438 57.157 54.208 57.273 C 53.979 57.389 53.573 57.617 53.305 57.779 C 53.037 57.941 52.562 58.132 52.25 58.203 C 51.82 58.3 51.579 58.312 51.259 58.252 C 51.026 58.208 50.677 58.09 50.482 57.991 C 50.288 57.892 49.996 57.706 49.835 57.578 C 49.674 57.451 49.303 57.251 49.012 57.134 C 48.72 57.017 48.326 56.778 48.137 56.604 C 47.947 56.429 47.66 56.239 47.5 56.18 C 47.34 56.122 47.003 55.973 46.753 55.85 C 46.389 55.67 46.258 55.548 46.102 55.242 C 45.908 54.86 45.908 54.86 45.886 41.201 C 45.865 27.144 45.851 26.52 45.532 25.387 C 45.466 25.151 45.247 24.315 45.047 23.529 C 44.846 22.743 44.635 22.012 44.578 21.904 C 44.522 21.796 44.37 21.553 44.24 21.364 C 44.111 21.174 43.927 20.818 43.831 20.572 C 43.735 20.326 43.552 19.994 43.424 19.833 C 43.297 19.673 43.038 19.268 42.848 18.933 C 42.658 18.598 42.282 18.054 42.012 17.725 C 41.741 17.395 41.131 16.754 40.656 16.3 C 40.181 15.847 39.595 15.349 39.354 15.194 C 39.113 15.038 38.795 14.805 38.646 14.675 C 38.497 14.545 38.113 14.279 37.792 14.083 C 37.471 13.888 37.106 13.643 36.982 13.538 C 36.857 13.434 36.501 13.265 36.19 13.162 C 35.879 13.059 35.343 12.828 34.998 12.649 C 34.441 12.359 34.222 12.3 33.04 12.123 C 32.307 12.014 31.409 11.826 31.043 11.707 C 30.667 11.583 30.089 11.47 29.71 11.445 C 29.249 11.414 28.499 11.467 27.292 11.618 C 26.329 11.737 25.073 11.931 24.5 12.049 C 23.838 12.184 23.196 12.38 22.739 12.585 C 22.343 12.763 21.717 13.006 21.347 13.125 C 20.978 13.245 20.533 13.44 20.359 13.56 C 20.184 13.679 19.856 13.886 19.63 14.02 C 19.403 14.155 19.028 14.424 18.796 14.618 C 18.565 14.812 18.225 15.062 18.042 15.172 C 17.691 15.383 17.269 15.743 16.057 16.863 C 15.587 17.297 15.206 17.739 14.999 18.09 C 14.821 18.392 14.612 18.691 14.535 18.755 C 14.396 18.871 13.796 19.726 13.439 20.317 C 13.336 20.486 13.191 20.812 13.115 21.042 C 13.04 21.271 12.835 21.796 12.661 22.208 C 12.487 22.621 12.287 23.202 12.217 23.5 C 12.148 23.798 11.949 24.735 11.775 25.583 C 11.473 27.057 11.46 27.191 11.471 28.625 C 11.48 29.668 11.525 30.315 11.621 30.75 C 11.696 31.094 11.884 32 12.038 32.764 C 12.24 33.765 12.41 34.358 12.645 34.889 C 12.825 35.294 13.061 35.849 13.17 36.122 C 13.399 36.698 14.071 37.821 14.619 38.542 C 14.828 38.817 15.107 39.21 15.24 39.417 C 15.474 39.782 15.802 40.123 17.398 41.664 C 18.16 42.399 18.913 42.915 20.446 43.75 C 20.825 43.956 21.265 44.227 21.425 44.351 C 21.585 44.475 21.939 44.678 22.212 44.802 C 22.485 44.926 22.916 45.167 23.17 45.338 C 23.424 45.509 23.882 45.763 24.187 45.901 C 24.493 46.04 24.885 46.267 25.059 46.406 C 25.233 46.545 25.581 46.75 25.833 46.862 C 26.085 46.974 26.442 47.187 26.625 47.336 C 26.808 47.484 27.221 47.727 27.542 47.875 C 27.863 48.023 28.556 48.417 29.083 48.75 C 29.61 49.084 30.345 49.516 30.715 49.711 C 31.086 49.905 31.551 50.166 31.75 50.291 C 31.948 50.417 32.338 50.623 32.618 50.75 C 32.897 50.877 33.293 51.107 33.499 51.261 C 33.705 51.415 34.118 51.673 34.416 51.833 C 34.876 52.081 34.974 52.174 35.064 52.449 C 35.146 52.701 35.165 54.108 35.147 58.81 L 35.125 64.848 L 34.891 65.049 C 34.749 65.171 34.553 65.25 34.391 65.25 C 34.245 65.25 34.012 65.179 33.875 65.093 Z"/>
  <path fill="#1F2346" fill-rule="evenodd" d="M 51.101 75.127 C 50.905 75.066 50.549 74.867 50.31 74.685 C 50.071 74.502 49.693 74.274 49.471 74.178 C 49.249 74.081 48.892 73.875 48.679 73.72 C 48.466 73.564 48.085 73.335 47.833 73.209 C 47.581 73.084 47.085 72.788 46.73 72.553 C 46.322 72.283 46.038 72.028 45.959 71.862 C 45.859 71.654 45.833 71.231 45.833 69.802 C 45.833 68.338 45.858 67.941 45.968 67.666 C 46.043 67.48 46.171 67.292 46.255 67.248 C 46.338 67.203 46.467 67.167 46.542 67.167 C 46.711 67.167 48.013 67.946 48.448 68.307 C 48.625 68.454 48.995 68.651 49.271 68.744 C 49.546 68.837 49.964 69.059 50.198 69.238 C 50.433 69.417 50.743 69.623 50.887 69.696 C 51.031 69.769 51.302 69.853 51.489 69.883 C 51.715 69.919 51.973 69.89 52.258 69.797 C 52.493 69.72 52.916 69.515 53.197 69.341 C 53.478 69.167 54.004 68.866 54.365 68.671 C 54.726 68.477 55.245 68.153 55.519 67.951 C 56.011 67.589 56.664 67.331 57.078 67.336 C 57.195 67.337 57.361 67.391 57.445 67.455 C 57.529 67.519 57.631 67.714 57.672 67.89 C 57.713 68.065 57.747 68.904 57.748 69.753 L 57.75 71.298 L 57.562 71.669 C 57.451 71.89 57.177 72.199 56.885 72.432 C 56.615 72.648 56.127 72.964 55.801 73.134 C 55.475 73.304 55.078 73.555 54.919 73.693 C 54.76 73.831 54.391 74.052 54.099 74.185 C 53.806 74.317 53.369 74.557 53.127 74.718 C 52.662 75.026 52.035 75.254 51.674 75.244 C 51.555 75.241 51.298 75.189 51.101 75.127 Z M 98.213 74.804 C 98.047 74.764 97.804 74.625 97.673 74.494 C 97.531 74.351 97.397 74.094 97.342 73.857 C 97.277 73.58 97.256 71.696 97.27 67.667 L 97.292 61.875 L 97.472 61.537 C 97.572 61.351 97.752 61.155 97.872 61.1 C 98.207 60.947 98.699 60.977 98.937 61.165 C 99.063 61.264 99.185 61.485 99.244 61.72 C 99.316 62.004 99.339 63.54 99.328 67.313 C 99.314 71.993 99.326 72.528 99.446 72.649 C 99.564 72.766 99.852 72.78 101.769 72.762 C 102.973 72.751 104.141 72.777 104.364 72.82 C 104.587 72.863 104.844 72.974 104.935 73.065 C 105.159 73.289 105.219 73.879 105.057 74.267 C 104.988 74.434 104.839 74.63 104.727 74.704 C 104.551 74.819 104.112 74.84 101.519 74.856 C 99.866 74.867 98.379 74.843 98.213 74.804 Z M 136.184 74.791 C 136.002 74.712 135.867 74.569 135.782 74.366 C 135.671 74.1 135.655 73.26 135.655 67.997 C 135.655 63.384 135.679 61.852 135.759 61.587 C 135.816 61.395 135.94 61.185 136.033 61.119 C 136.127 61.054 136.337 61 136.5 61 C 136.663 61 136.873 61.054 136.967 61.119 C 137.06 61.185 137.183 61.391 137.239 61.578 C 137.314 61.831 137.341 63.456 137.342 67.991 C 137.343 73.243 137.326 74.107 137.216 74.369 C 137.128 74.579 136.999 74.71 136.797 74.795 C 136.637 74.862 136.495 74.915 136.482 74.913 C 136.469 74.912 136.335 74.857 136.184 74.791 Z M 73.042 74.779 C 72.904 74.757 72.398 74.624 71.917 74.483 C 71.435 74.343 70.873 74.141 70.667 74.035 C 70.46 73.929 70.061 73.617 69.778 73.341 C 69.179 72.756 69.059 72.436 69.31 72.094 C 69.398 71.974 69.599 71.807 69.756 71.725 C 69.956 71.619 70.169 71.583 70.464 71.605 C 70.788 71.629 71.032 71.726 71.506 72.019 C 71.846 72.229 72.312 72.466 72.542 72.545 C 73.082 72.73 74.502 72.802 75 72.668 C 75.288 72.591 75.516 72.427 75.979 71.965 L 76.583 71.363 L 76.583 70.958 C 76.583 70.722 76.513 70.408 76.416 70.206 C 76.323 70.014 76.091 69.748 75.895 69.608 C 75.701 69.469 75.335 69.252 75.083 69.125 C 74.831 68.998 74.468 68.787 74.276 68.655 C 74.084 68.523 73.612 68.304 73.228 68.169 C 72.843 68.033 72.235 67.755 71.876 67.55 C 71.517 67.345 71.092 67.055 70.933 66.904 C 70.773 66.754 70.464 66.416 70.246 66.154 C 69.961 65.812 69.824 65.557 69.758 65.251 C 69.708 65.017 69.667 64.534 69.667 64.178 C 69.667 63.822 69.707 63.308 69.756 63.036 C 69.806 62.764 69.9 62.458 69.965 62.357 C 70.031 62.255 70.293 62.011 70.548 61.815 C 70.803 61.619 71.218 61.299 71.472 61.105 C 71.738 60.901 72.153 60.684 72.455 60.59 C 72.743 60.502 73.236 60.404 73.551 60.374 C 73.867 60.344 74.366 60.359 74.661 60.408 C 74.956 60.456 75.474 60.578 75.812 60.678 C 76.302 60.824 76.525 60.948 76.915 61.297 C 77.184 61.537 77.518 61.8 77.657 61.882 C 77.796 61.965 77.953 62.136 78.006 62.264 C 78.059 62.392 78.079 62.589 78.051 62.701 C 78.023 62.813 77.942 62.963 77.871 63.034 C 77.8 63.104 77.592 63.203 77.407 63.253 C 77.163 63.318 76.947 63.317 76.611 63.247 C 76.306 63.184 76.047 63.062 75.846 62.886 C 75.679 62.74 75.48 62.574 75.405 62.516 C 75.199 62.358 74.032 62.252 73.387 62.332 C 73.038 62.375 72.755 62.461 72.648 62.555 C 72.369 62.803 71.908 63.572 71.86 63.87 C 71.827 64.073 71.884 64.291 72.076 64.694 C 72.22 64.995 72.44 65.313 72.565 65.401 C 72.69 65.488 73.015 65.642 73.288 65.744 C 73.562 65.845 74.143 66.11 74.58 66.333 C 75.017 66.556 75.694 66.89 76.083 67.075 C 76.482 67.265 77.002 67.599 77.273 67.84 C 77.537 68.075 77.924 68.506 78.132 68.797 C 78.34 69.089 78.587 69.545 78.68 69.81 C 78.784 70.106 78.851 70.511 78.853 70.86 C 78.856 71.37 78.818 71.505 78.476 72.193 C 78.174 72.803 77.971 73.08 77.485 73.552 L 76.873 74.146 L 75.916 74.456 C 75.122 74.714 74.816 74.772 74.125 74.793 C 73.667 74.808 73.179 74.801 73.042 74.779 Z M 86.085 74.665 C 85.742 74.573 85.217 74.384 84.918 74.245 C 84.558 74.077 84.184 73.804 83.806 73.433 C 83.494 73.126 83.012 72.58 82.735 72.22 C 82.459 71.86 82.157 71.395 82.066 71.188 C 81.974 70.981 81.825 70.469 81.735 70.052 C 81.622 69.53 81.556 68.821 81.525 67.792 C 81.478 66.235 81.552 65.406 81.807 64.625 C 81.882 64.396 82.064 64.021 82.211 63.792 C 82.358 63.562 82.616 63.122 82.785 62.813 C 82.953 62.504 83.211 62.158 83.358 62.043 C 84.179 61.404 84.924 60.891 85.294 60.71 C 85.525 60.597 85.975 60.467 86.294 60.421 C 86.614 60.374 87.194 60.336 87.583 60.336 C 88.146 60.336 88.429 60.384 88.958 60.569 C 89.325 60.697 89.944 61.01 90.333 61.264 C 90.723 61.517 91.213 61.901 91.423 62.116 C 91.632 62.33 91.921 62.739 92.065 63.024 C 92.209 63.309 92.498 63.919 92.706 64.381 C 92.969 64.964 93.109 65.41 93.165 65.84 C 93.209 66.18 93.245 66.871 93.246 67.375 C 93.247 67.879 93.21 68.64 93.166 69.066 C 93.121 69.492 93.021 69.961 92.945 70.108 C 92.868 70.255 92.69 70.701 92.549 71.099 C 92.36 71.631 92.17 71.974 91.833 72.391 C 91.581 72.703 91.15 73.187 90.875 73.466 C 90.441 73.906 90.248 74.027 89.417 74.38 L 88.458 74.786 L 87.583 74.809 C 86.916 74.826 86.56 74.792 86.085 74.665 Z M 88.563 72.585 C 88.758 72.497 89.226 72.166 89.604 71.85 C 89.982 71.535 90.339 71.219 90.397 71.149 C 90.455 71.079 90.576 70.726 90.665 70.365 C 90.754 70.004 90.866 69.344 90.913 68.899 C 90.961 68.454 91 67.835 91 67.524 C 91 66.724 90.78 64.947 90.624 64.493 C 90.52 64.188 90.307 63.934 89.573 63.243 C 89.066 62.765 88.589 62.35 88.513 62.318 C 88.437 62.287 87.981 62.259 87.5 62.256 C 87.019 62.253 86.475 62.292 86.292 62.342 C 86.042 62.41 85.766 62.625 85.195 63.195 L 84.432 63.958 L 84.225 64.667 C 83.771 66.221 83.708 66.591 83.712 67.667 C 83.715 68.581 83.749 68.831 83.991 69.708 C 84.142 70.258 84.301 70.825 84.344 70.967 C 84.389 71.116 84.696 71.492 85.068 71.855 C 85.693 72.463 85.793 72.52 86.542 72.692 C 86.633 72.713 87.046 72.734 87.458 72.739 C 88.034 72.745 88.291 72.709 88.563 72.585 Z M 111.459 74.772 C 111.368 74.749 110.993 74.59 110.626 74.419 C 110.085 74.166 109.838 73.982 109.324 73.449 C 108.872 72.981 108.591 72.596 108.347 72.112 C 108.141 71.701 107.973 71.222 107.923 70.903 C 107.877 70.611 107.834 68.328 107.826 65.792 C 107.813 61.846 107.829 61.166 107.938 60.907 C 108.008 60.741 108.153 60.544 108.26 60.469 C 108.366 60.394 108.609 60.333 108.798 60.333 C 109.018 60.333 109.242 60.401 109.418 60.521 C 109.569 60.624 109.771 60.814 109.867 60.944 L 110.042 61.179 L 110.06 65.235 C 110.071 67.578 110.119 69.696 110.176 70.25 C 110.229 70.777 110.328 71.33 110.396 71.48 C 110.464 71.629 110.723 71.937 110.973 72.165 C 111.222 72.393 111.569 72.622 111.743 72.675 C 111.929 72.73 112.42 72.756 112.927 72.738 C 113.605 72.713 113.856 72.669 114.084 72.536 C 114.244 72.443 114.571 72.094 114.81 71.761 C 115.061 71.412 115.324 70.917 115.43 70.598 L 115.614 70.042 L 115.661 65.542 C 115.695 62.371 115.738 60.977 115.806 60.823 C 115.86 60.703 116.01 60.522 116.14 60.42 C 116.311 60.285 116.447 60.247 116.639 60.278 C 116.784 60.301 116.998 60.383 117.114 60.459 C 117.23 60.535 117.407 60.766 117.507 60.972 L 117.688 61.347 L 117.673 65.528 C 117.664 67.827 117.622 69.99 117.578 70.333 C 117.535 70.677 117.44 71.163 117.367 71.413 C 117.295 71.663 117.147 72.038 117.04 72.246 C 116.933 72.455 116.702 72.799 116.527 73.013 C 116.352 73.226 116.1 73.54 115.967 73.711 C 115.809 73.914 115.535 74.108 115.175 74.272 C 114.873 74.409 114.422 74.592 114.174 74.678 C 113.819 74.8 113.502 74.831 112.674 74.824 C 112.097 74.818 111.55 74.795 111.459 74.772 Z M 125.658 74.645 C 125.502 74.541 125.31 74.325 125.231 74.164 L 125.088 73.872 L 125.082 69.123 C 125.079 66.512 125.101 64.253 125.132 64.105 C 125.164 63.949 125.144 63.73 125.085 63.588 C 125.029 63.452 124.895 63.283 124.786 63.212 C 124.632 63.111 124.335 63.083 123.415 63.083 C 122.769 63.083 122.077 63.042 121.877 62.992 C 121.677 62.942 121.426 62.807 121.319 62.693 C 121.162 62.526 121.125 62.395 121.125 62 C 121.125 61.605 121.162 61.474 121.319 61.307 C 121.426 61.193 121.675 61.059 121.872 61.01 C 122.105 60.951 123.69 60.919 126.413 60.919 C 130.032 60.919 130.629 60.936 130.846 61.048 C 130.995 61.125 131.16 61.319 131.255 61.526 C 131.342 61.718 131.414 62.007 131.415 62.169 C 131.416 62.331 131.358 62.546 131.287 62.649 C 131.215 62.751 131.048 62.89 130.916 62.959 C 130.729 63.055 130.348 63.083 129.222 63.083 C 127.949 63.083 127.746 63.102 127.584 63.233 L 127.4 63.382 L 127.387 68.67 C 127.376 73.417 127.361 73.99 127.236 74.265 C 127.158 74.436 126.985 74.63 126.844 74.703 C 126.705 74.775 126.445 74.833 126.266 74.833 C 126.068 74.833 125.831 74.76 125.658 74.645 Z M 146.085 74.665 C 145.742 74.573 145.217 74.384 144.918 74.245 C 144.558 74.077 144.184 73.804 143.806 73.433 C 143.494 73.126 143.012 72.58 142.735 72.22 C 142.459 71.86 142.157 71.395 142.066 71.188 C 141.974 70.981 141.825 70.469 141.735 70.052 C 141.622 69.53 141.556 68.821 141.525 67.792 C 141.478 66.238 141.552 65.41 141.806 64.625 C 141.88 64.396 142.043 64.058 142.168 63.875 C 142.292 63.692 142.497 63.335 142.623 63.083 C 142.749 62.831 142.939 62.509 143.046 62.367 C 143.333 61.984 145.136 60.738 145.663 60.558 C 145.966 60.455 146.467 60.388 147.163 60.358 L 148.208 60.312 L 148.873 60.537 C 149.239 60.661 149.862 60.967 150.258 61.218 C 150.654 61.469 151.164 61.861 151.39 62.088 C 151.616 62.316 151.92 62.736 152.064 63.022 C 152.209 63.308 152.498 63.919 152.706 64.381 C 152.969 64.964 153.109 65.41 153.165 65.84 C 153.209 66.18 153.245 66.871 153.246 67.375 C 153.247 67.879 153.21 68.64 153.166 69.066 C 153.121 69.492 153.021 69.961 152.945 70.108 C 152.868 70.255 152.69 70.701 152.549 71.099 C 152.359 71.634 152.172 71.971 151.833 72.387 C 151.581 72.698 151.195 73.146 150.974 73.385 C 150.754 73.623 150.379 73.915 150.141 74.033 C 149.903 74.151 149.427 74.369 149.083 74.518 C 148.529 74.758 148.36 74.791 147.583 74.81 C 146.919 74.826 146.558 74.791 146.085 74.665 Z M 148.563 72.585 C 148.758 72.497 149.226 72.166 149.604 71.85 C 149.982 71.535 150.339 71.219 150.396 71.15 C 150.579 70.93 150.825 69.779 150.93 68.657 C 151.011 67.798 151.01 67.331 150.928 66.41 C 150.871 65.772 150.769 65.033 150.701 64.77 C 150.634 64.507 150.51 64.198 150.427 64.083 C 150.227 63.81 148.862 62.624 148.542 62.446 C 148.404 62.369 148.03 62.289 147.707 62.269 C 147.322 62.244 146.94 62.277 146.591 62.366 C 146.285 62.445 145.897 62.623 145.673 62.787 C 145.46 62.944 145.094 63.274 144.861 63.521 C 144.525 63.875 144.399 64.091 144.261 64.547 C 143.906 65.713 143.73 66.559 143.689 67.292 C 143.643 68.114 143.743 68.755 144.155 70.281 L 144.399 71.186 L 144.97 71.766 C 145.285 72.084 145.617 72.387 145.708 72.438 C 146.03 72.617 146.715 72.736 147.458 72.741 C 148.03 72.745 148.293 72.708 148.563 72.585 Z M 157.868 74.676 C 157.727 74.59 157.54 74.375 157.452 74.197 L 157.292 73.875 L 157.292 67.914 L 157.292 61.953 L 157.453 61.596 C 157.545 61.392 157.713 61.187 157.844 61.119 C 157.971 61.054 158.254 61 158.472 61 L 158.869 61 L 159.426 61.57 C 159.732 61.883 160.085 62.34 160.21 62.586 C 160.334 62.832 160.579 63.222 160.754 63.454 C 160.928 63.686 161.151 64.09 161.249 64.353 C 161.347 64.616 161.56 64.989 161.721 65.182 C 161.883 65.375 162.139 65.779 162.29 66.079 C 162.442 66.379 162.68 66.768 162.819 66.942 C 162.958 67.116 163.171 67.518 163.292 67.834 C 163.413 68.15 163.658 68.636 163.838 68.914 C 164.017 69.191 164.238 69.563 164.329 69.741 C 164.419 69.918 164.557 70.088 164.636 70.118 C 164.72 70.15 164.834 70.118 164.911 70.042 C 165.006 69.946 165.039 69.76 165.031 69.351 C 165.025 69.044 165.017 67.292 165.013 65.458 C 165.008 63.5 165.039 61.999 165.088 61.819 C 165.133 61.65 165.284 61.416 165.425 61.298 C 165.624 61.13 165.77 61.083 166.095 61.083 C 166.324 61.083 166.583 61.122 166.671 61.169 C 166.759 61.216 166.898 61.376 166.978 61.523 L 167.125 61.792 L 167.125 67.833 C 167.125 72.699 167.103 73.937 167.012 74.194 C 166.943 74.389 166.797 74.575 166.637 74.673 C 166.492 74.761 166.226 74.832 166.042 74.831 C 165.858 74.83 165.549 74.757 165.355 74.669 C 165.105 74.556 164.934 74.395 164.771 74.12 C 164.645 73.906 164.425 73.576 164.283 73.386 C 164.14 73.196 163.919 72.835 163.792 72.583 C 163.664 72.331 163.421 71.966 163.25 71.773 C 163.068 71.565 162.88 71.223 162.792 70.939 C 162.71 70.675 162.576 70.325 162.494 70.161 C 162.412 69.998 162.285 69.813 162.21 69.751 C 162.135 69.69 161.921 69.373 161.734 69.049 C 161.546 68.724 161.268 68.304 161.116 68.115 C 160.964 67.925 160.727 67.463 160.59 67.087 C 160.319 66.345 159.835 65.424 159.625 65.25 C 159.307 64.986 159.292 65.171 159.271 69.649 C 159.257 72.432 159.218 74.052 159.161 74.227 C 159.111 74.376 158.975 74.573 158.858 74.665 C 158.74 74.758 158.527 74.833 158.385 74.833 C 158.242 74.833 158.009 74.762 157.868 74.676 Z M 174.375 74.722 C 174.1 74.664 173.526 74.509 173.099 74.377 C 172.534 74.202 172.229 74.055 171.974 73.832 C 171.782 73.663 171.467 73.427 171.274 73.306 C 171.082 73.185 170.881 73.005 170.828 72.907 C 170.776 72.809 170.729 72.604 170.725 72.452 C 170.721 72.3 170.767 72.082 170.828 71.968 C 170.889 71.854 171.047 71.716 171.179 71.662 C 171.311 71.607 171.603 71.58 171.829 71.602 C 172.1 71.628 172.56 71.799 173.182 72.105 C 173.701 72.36 174.324 72.61 174.567 72.66 C 174.809 72.709 175.281 72.75 175.614 72.75 C 175.947 72.75 176.415 72.692 176.653 72.621 C 176.891 72.551 177.214 72.38 177.371 72.243 C 177.527 72.105 177.733 71.832 177.828 71.637 C 177.922 71.441 178 71.125 178 70.935 C 178 70.745 177.925 70.388 177.832 70.142 C 177.74 69.896 177.579 69.614 177.474 69.515 C 177.369 69.417 177.074 69.264 176.818 69.176 C 176.561 69.087 176.159 68.883 175.924 68.722 C 175.69 68.56 175.19 68.309 174.814 68.164 C 174.032 67.863 173.122 67.416 172.644 67.1 C 172.307 66.877 171.707 66.061 171.285 65.25 C 171.085 64.866 171.046 64.69 171.044 64.167 C 171.042 63.633 171.081 63.459 171.311 62.974 C 171.459 62.662 171.656 62.298 171.75 62.167 C 172.009 61.803 173.232 60.905 173.758 60.692 C 174.014 60.589 174.492 60.458 174.82 60.402 C 175.333 60.314 175.538 60.32 176.295 60.449 C 176.779 60.532 177.309 60.636 177.473 60.681 C 177.638 60.727 177.945 60.925 178.157 61.121 C 178.368 61.318 178.757 61.616 179.02 61.783 C 179.284 61.951 179.561 62.183 179.637 62.299 L 179.775 62.51 L 179.612 62.729 C 179.522 62.849 179.349 63.022 179.227 63.113 C 179.097 63.21 178.826 63.292 178.563 63.314 L 178.119 63.351 L 177.747 63.05 C 177.542 62.884 177.224 62.676 177.04 62.587 C 176.856 62.499 176.444 62.384 176.124 62.333 C 175.804 62.282 175.354 62.265 175.125 62.295 C 174.896 62.325 174.552 62.439 174.361 62.549 C 174.17 62.659 173.879 62.907 173.713 63.1 C 173.548 63.294 173.382 63.566 173.346 63.705 C 173.309 63.844 173.307 64.083 173.34 64.235 C 173.374 64.387 173.504 64.658 173.628 64.838 C 173.753 65.018 174.023 65.276 174.228 65.412 C 174.432 65.548 174.793 65.722 175.029 65.8 C 175.265 65.878 175.667 66.082 175.921 66.254 C 176.176 66.427 176.682 66.67 177.046 66.796 C 177.541 66.966 177.877 67.158 178.375 67.552 C 178.742 67.843 179.21 68.23 179.417 68.413 C 179.623 68.595 179.839 68.746 179.896 68.748 C 179.976 68.749 180 69.214 180 70.786 L 180 72.822 L 179.827 72.877 C 179.731 72.907 179.401 73.171 179.092 73.462 C 178.783 73.753 178.345 74.085 178.119 74.198 C 177.893 74.312 177.427 74.484 177.083 74.582 C 176.724 74.684 176.122 74.774 175.667 74.794 C 175.205 74.814 174.666 74.784 174.375 74.722 Z M 51.167 66.636 C 51.006 66.52 50.706 66.324 50.5 66.201 C 50.294 66.079 49.929 65.848 49.689 65.688 C 49.449 65.529 49.097 65.345 48.908 65.279 C 48.718 65.214 48.465 65.109 48.344 65.046 C 48.224 64.983 48.016 64.817 47.882 64.676 C 47.739 64.526 47.397 64.331 47.049 64.202 C 46.719 64.08 46.359 63.878 46.234 63.746 C 46.111 63.616 45.971 63.366 45.922 63.192 C 45.873 63.016 45.834 62.097 45.834 61.125 C 45.834 59.623 45.854 59.334 45.979 59.088 C 46.068 58.915 46.219 58.771 46.364 58.724 C 46.522 58.673 46.71 58.678 46.919 58.741 C 47.092 58.793 47.416 58.998 47.638 59.196 C 47.86 59.395 48.125 59.602 48.226 59.655 C 48.328 59.709 48.634 59.822 48.905 59.907 C 49.37 60.051 50.146 60.547 50.825 61.134 C 50.99 61.276 51.207 61.436 51.307 61.488 C 51.652 61.669 51.944 61.596 52.518 61.188 C 53.557 60.448 54.29 60.021 54.824 59.845 C 55.23 59.712 55.472 59.56 55.839 59.21 L 56.321 58.75 L 56.737 58.75 C 57.09 58.75 57.193 58.789 57.405 59.002 C 57.573 59.169 57.675 59.371 57.71 59.606 C 57.739 59.8 57.75 60.578 57.735 61.336 L 57.708 62.713 L 57.437 63.264 C 57.287 63.567 57.081 63.869 56.978 63.935 C 56.876 64.002 56.664 64.1 56.507 64.153 C 56.351 64.207 56.032 64.397 55.799 64.575 C 55.566 64.753 55.113 65.036 54.792 65.205 C 54.471 65.373 54.021 65.624 53.792 65.763 C 52.741 66.399 52.018 66.769 51.75 66.807 C 51.527 66.838 51.39 66.798 51.167 66.636 Z M 68.83 52.146 C 68.626 52.043 68.412 51.865 68.355 51.75 C 68.273 51.585 68.256 47.187 68.272 30.708 L 68.292 9.875 L 68.48 9.523 C 68.584 9.328 68.785 9.11 68.93 9.035 L 69.191 8.9 L 78.033 8.911 C 83.245 8.918 87.179 8.956 87.615 9.005 C 88.364 9.088 88.589 9.134 89.417 9.368 C 89.669 9.44 90.368 9.593 90.972 9.708 C 91.575 9.824 92.217 9.971 92.399 10.036 C 92.582 10.1 92.893 10.255 93.091 10.38 C 93.288 10.504 93.711 10.714 94.03 10.846 C 94.349 10.977 94.768 11.214 94.961 11.373 C 95.155 11.532 95.534 11.743 95.803 11.842 C 96.072 11.941 96.466 12.146 96.68 12.297 C 96.894 12.448 97.231 12.655 97.429 12.756 C 97.774 12.932 98.23 13.3 99.241 14.216 C 99.498 14.449 99.877 14.755 100.083 14.895 C 100.29 15.036 100.574 15.276 100.716 15.43 C 100.858 15.583 101.063 15.84 101.172 16 C 101.28 16.16 101.709 16.648 102.123 17.083 C 102.538 17.519 102.985 18.062 103.116 18.292 C 103.247 18.521 103.496 18.858 103.67 19.042 C 103.903 19.288 104.033 19.537 104.167 20 C 104.286 20.407 104.465 20.775 104.679 21.055 C 104.861 21.292 105.118 21.769 105.251 22.115 C 105.385 22.461 105.574 22.902 105.672 23.094 C 105.77 23.286 105.9 23.615 105.96 23.826 C 106.021 24.036 106.132 24.527 106.207 24.917 C 106.283 25.306 106.453 26.019 106.586 26.5 C 106.72 26.981 106.894 27.844 106.973 28.417 C 107.066 29.086 107.115 29.935 107.109 30.792 C 107.104 31.525 107.042 32.67 106.97 33.336 C 106.879 34.182 106.774 34.72 106.624 35.121 C 106.505 35.436 106.301 36.169 106.17 36.751 C 106.012 37.448 105.82 38.032 105.605 38.467 C 105.425 38.829 105.228 39.256 105.166 39.417 C 105.104 39.577 104.915 39.915 104.746 40.167 C 104.578 40.419 104.305 40.906 104.14 41.25 C 103.975 41.594 103.688 42.119 103.501 42.417 C 103.104 43.051 102.315 44.076 101.667 44.802 C 101.415 45.085 101.108 45.466 100.985 45.651 C 100.862 45.835 100.525 46.145 100.235 46.34 C 99.945 46.535 99.427 46.986 99.083 47.344 C 98.641 47.803 98.263 48.1 97.792 48.359 C 96.834 48.884 96.195 49.274 95.633 49.679 C 95.362 49.874 94.85 50.136 94.493 50.262 C 94.137 50.388 93.619 50.606 93.341 50.746 C 93.064 50.886 92.508 51.076 92.106 51.169 C 91.704 51.261 91.188 51.409 90.958 51.498 C 90.274 51.764 88.708 52.071 87.342 52.206 C 86.287 52.311 84.569 52.333 77.631 52.333 L 69.202 52.333 L 68.83 52.146 Z M 84.208 42.161 C 84.987 42.026 85.831 41.875 86.083 41.824 C 86.335 41.774 86.785 41.628 87.083 41.5 C 87.381 41.372 88.019 41.128 88.5 40.957 C 89.039 40.766 89.573 40.506 89.892 40.281 C 90.176 40.079 90.904 39.418 91.509 38.812 C 92.463 37.856 92.652 37.621 92.931 37.042 C 93.107 36.675 93.345 36.206 93.458 36 C 93.571 35.794 93.725 35.363 93.799 35.042 C 93.931 34.476 94.185 33.664 94.508 32.775 C 94.621 32.465 94.681 32.003 94.718 31.15 C 94.749 30.453 94.734 29.66 94.681 29.238 C 94.619 28.735 94.492 28.282 94.262 27.738 C 94.08 27.309 93.888 26.733 93.835 26.458 C 93.777 26.159 93.591 25.701 93.37 25.316 C 93.168 24.963 92.931 24.486 92.844 24.257 C 92.688 23.847 92.299 23.359 91.125 22.103 C 90.649 21.593 90.419 21.421 89.875 21.167 C 89.508 20.995 89.064 20.739 88.888 20.597 C 88.712 20.456 88.364 20.263 88.114 20.17 C 87.865 20.076 87.624 20 87.58 20 C 87.535 20 87.209 19.85 86.854 19.666 C 86.411 19.437 86.025 19.306 85.625 19.249 C 84.894 19.145 81.025 19.038 80.725 19.113 C 80.602 19.144 80.445 19.257 80.374 19.364 C 80.261 19.537 80.247 20.823 80.249 30.671 L 80.252 41.782 L 80.397 42.077 C 80.483 42.253 80.621 42.389 80.738 42.416 C 80.847 42.44 81.353 42.448 81.863 42.433 C 82.386 42.418 83.41 42.299 84.208 42.161 Z M 113.025 52.17 C 112.879 52.081 112.699 51.917 112.627 51.806 L 112.494 51.604 L 112.499 30.721 C 112.502 14.4 112.525 9.77 112.606 9.527 C 112.672 9.327 112.805 9.161 112.98 9.059 L 113.252 8.9 L 122.48 8.911 C 127.669 8.918 132.055 8.957 132.5 9.002 C 132.935 9.046 133.779 9.212 134.375 9.371 C 134.971 9.529 135.832 9.714 136.288 9.781 C 136.951 9.879 137.253 9.973 137.788 10.249 C 138.157 10.439 138.665 10.739 138.917 10.916 C 139.169 11.093 139.675 11.444 140.042 11.696 C 140.41 11.949 140.988 12.462 141.333 12.843 C 141.677 13.223 142.067 13.685 142.2 13.871 C 142.333 14.056 142.568 14.35 142.723 14.523 C 142.877 14.696 143.108 15.055 143.237 15.32 C 143.366 15.585 143.582 15.969 143.718 16.172 C 143.854 16.375 144.01 16.645 144.064 16.771 C 144.119 16.897 144.241 17.309 144.337 17.688 C 144.432 18.066 144.598 18.656 144.705 19 C 144.812 19.344 144.945 20.043 145.001 20.554 C 145.064 21.129 145.088 22.115 145.063 23.138 C 145.032 24.444 144.986 24.949 144.843 25.542 C 144.744 25.954 144.573 26.554 144.462 26.875 C 144.352 27.196 144.182 27.733 144.085 28.069 C 143.956 28.513 143.821 28.775 143.59 29.027 C 143.414 29.219 143.169 29.581 143.043 29.833 C 142.888 30.146 142.546 30.553 141.97 31.112 C 141.505 31.563 140.848 32.145 140.509 32.404 C 140.171 32.663 139.571 33.046 139.176 33.254 C 138.781 33.463 138.29 33.733 138.083 33.853 C 137.877 33.974 137.441 34.133 137.115 34.207 C 136.72 34.297 136.459 34.408 136.335 34.54 C 136.172 34.714 136.161 34.771 136.242 35.016 C 136.292 35.169 136.496 35.482 136.695 35.71 C 136.894 35.938 137.16 36.289 137.286 36.49 C 137.523 36.867 138.007 37.482 138.637 38.208 C 138.836 38.438 139.304 39.038 139.677 39.542 C 140.051 40.046 140.514 40.627 140.706 40.833 C 140.899 41.04 141.142 41.358 141.246 41.542 C 141.431 41.868 141.79 42.341 142.625 43.358 C 142.854 43.637 143.173 44.043 143.333 44.261 C 143.884 45.008 144.369 45.625 144.679 45.971 C 144.849 46.161 145.063 46.461 145.154 46.638 C 145.245 46.814 145.662 47.352 146.082 47.833 C 146.501 48.315 146.94 48.896 147.057 49.125 C 147.19 49.385 147.595 49.855 148.135 50.376 C 148.889 51.104 149 51.246 149 51.486 C 149 51.637 148.959 51.837 148.91 51.929 C 148.86 52.022 148.693 52.151 148.538 52.215 C 148.302 52.314 147.172 52.333 141.732 52.332 L 135.208 52.33 L 134.875 52.177 C 134.692 52.093 134.446 51.927 134.328 51.808 C 134.21 51.689 134.008 51.393 133.878 51.15 C 133.748 50.907 133.478 50.515 133.279 50.279 C 133.081 50.043 132.847 49.687 132.761 49.487 C 132.674 49.288 132.483 48.975 132.335 48.792 C 132.187 48.608 131.973 48.275 131.859 48.051 C 131.576 47.493 130.696 46.189 130.364 45.833 C 130.214 45.673 129.98 45.295 129.843 44.994 C 129.707 44.693 129.459 44.283 129.292 44.083 C 129.125 43.883 128.91 43.567 128.816 43.381 C 128.721 43.194 128.484 42.835 128.289 42.583 C 128.094 42.331 127.85 41.956 127.748 41.75 C 127.645 41.544 127.436 41.235 127.283 41.065 C 127.13 40.894 126.894 40.536 126.759 40.269 C 126.624 40.001 126.383 39.626 126.223 39.434 C 126.063 39.242 125.848 38.944 125.745 38.772 C 125.643 38.599 125.355 38.149 125.105 37.771 C 124.856 37.393 124.619 37.083 124.581 37.083 C 124.542 37.083 124.479 37.13 124.442 37.188 C 124.405 37.245 124.356 40.567 124.333 44.569 L 124.292 51.847 L 124.02 52.09 L 123.747 52.333 L 118.52 52.333 L 113.292 52.333 L 113.025 52.17 Z M 128.479 27.836 C 128.857 27.784 129.335 27.691 129.541 27.629 C 129.748 27.567 130.268 27.307 130.698 27.05 C 131.128 26.794 131.52 26.534 131.571 26.473 C 131.674 26.349 132.24 25.321 132.521 24.75 C 132.677 24.431 132.709 24.202 132.736 23.213 C 132.756 22.463 132.731 21.933 132.667 21.718 C 132.556 21.348 131.758 19.984 131.474 19.679 C 131.284 19.475 130.744 19.167 130.577 19.167 C 130.524 19.167 130.153 19.019 129.752 18.839 C 129.352 18.659 128.712 18.452 128.329 18.379 C 127.947 18.307 127.004 18.21 126.233 18.163 C 125.324 18.109 124.777 18.108 124.679 18.16 C 124.596 18.204 124.481 18.297 124.424 18.366 C 124.345 18.462 124.322 19.503 124.326 22.891 C 124.328 25.311 124.331 27.359 124.332 27.441 C 124.333 27.524 124.423 27.68 124.532 27.79 L 124.731 27.989 L 126.262 27.96 C 127.103 27.944 128.101 27.888 128.479 27.836 Z M 159.458 52.206 C 159.275 52.14 159.117 52.085 159.106 52.085 C 159.096 52.084 159.03 51.972 158.96 51.837 C 158.847 51.618 158.833 49.792 158.834 35.583 C 158.835 25.567 158.805 19.52 158.755 19.427 C 158.712 19.345 158.619 19.231 158.55 19.174 C 158.454 19.094 157.456 19.066 154.26 19.055 L 150.096 19.042 L 149.866 18.87 C 149.74 18.776 149.559 18.551 149.464 18.37 L 149.292 18.042 L 149.292 13.958 L 149.292 9.875 L 149.48 9.523 C 149.586 9.324 149.785 9.11 149.936 9.032 C 150.104 8.945 150.423 8.89 150.79 8.884 C 151.112 8.879 157.816 8.884 165.688 8.896 L 180 8.917 L 180 14.004 L 180 19.09 L 175.938 19.083 C 173.703 19.079 171.731 19.078 171.556 19.08 C 171.318 19.082 171.176 19.145 170.994 19.326 L 170.752 19.569 L 170.754 35.631 L 170.756 51.693 L 170.528 51.931 C 170.403 52.061 170.168 52.205 170.005 52.25 C 169.824 52.3 167.771 52.331 164.75 52.329 C 160.648 52.327 159.734 52.305 159.458 52.206 Z"/>
</svg>
