<?xml version="1.0" encoding="UTF-8" standalone="no"?>
<!-- Generator: Adobe Illustrator 24.3.0, SVG Export Plug-In . SVG Version: 6.00 Build 0)  -->

<svg
   version="1.1"
   id="Layer_1"
   x="0px"
   y="0px"
   viewBox="0 0 1910.4436 830.75274"
   xml:space="preserve"
   width="1910.4436"
   height="830.75275"
   xmlns="http://www.w3.org/2000/svg"
   xmlns:svg="http://www.w3.org/2000/svg"><defs
   id="defs9" />
<style
   type="text/css"
   id="style1">
	.st0{fill:#FFFFFF;}
	.st1{fill:#E5004B;}
</style>
<g
   id="g9"
   transform="matrix(14,0,0,14,-21,-12.047273)">
	<g
   id="g8">
		<g
   id="g5">
			<path
   class="st0"
   d="m 28.9,31.6 c 1,-0.8 1.9,-1.2 2.7,-1.2 1.7,0.1 2.2,1.2 2.3,1.9 -0.4,0.1 -7.8,2.6 -8.2,2.7 -0.1,-0.1 -0.2,-0.3 -0.4,-0.4 0.5,-0.2 3.6,-3 3.6,-3 z"
   id="path1"
   style="fill:#003a56;fill-opacity:1" />
			<path
   class="st0"
   d="m 1.5,47.5 c 0,8.4 3.7,12.7 11,12.7 4.8,0 7.7,-2.1 7.8,-2.2 l 0.2,-0.2 V 46.2 h -10 v 3.2 c 0,0 5,0 6,0 0,0.9 0,6 0,6.5 -0.6,0.3 -2.1,1 -4.2,1 -4.3,0 -6.4,-3.1 -6.4,-9.4 0,-3.6 1,-8 6,-8 3.3,0 4.4,1.9 4.4,3.7 v 0.6 h 4.5 v -0.6 c 0,-4.1 -3.6,-6.9 -8.9,-6.9 -6.7,0 -10.4,4.1 -10.4,11.2 z"
   id="path2"
   style="fill:#003a56;fill-opacity:1" />
			<path
   class="st0"
   d="M 36.4,36.7 H 23.2 v 23.1 h 14.1 v -3.2 c 0,0 -9,0 -10,0 0,-0.9 0,-6.3 0,-7.3 1,0 9.2,0 9.2,0 v -3.2 c 0,0 -8.2,0 -9.2,0 0,-0.9 0,-5.3 0,-6.2 1,0 9.7,0 9.7,0 v -3.2 z"
   id="path3"
   style="fill:#003a56;fill-opacity:1" />
			<g
   id="g4">
				<path
   class="st0"
   d="m 95.8,36.7 h -20 c 0,0 0,13.9 0,17.1 C 74.2,51 65.9,36.7 65.9,36.7 h -4.7 v 23.1 h 3.9 c 0,0 0,-13.9 0,-17.1 1.6,2.8 9.9,17.1 9.9,17.1 h 4.7 c 0,0 0,-18.8 0,-19.9 0.9,0 5.5,0 6.4,0 0,1.1 0,19.9 0,19.9 h 4.1 c 0,0 0,-18.8 0,-19.9 0.9,0 6.2,0 6.2,0 v -3.2 z"
   id="path4"
   style="fill:#003a56;fill-opacity:1" />
			</g>
			<path
   class="st0"
   d="m 51.5,36.7 h -0.4 -4 l -8.7,23.1 h 4.2 c 0,0 2.3,-6.1 2.5,-6.8 0.7,0 7.8,0 8.5,0 0.3,0.7 2.6,6.8 2.6,6.8 h 4.2 z m -5.2,13.1 c 0.4,-1.1 2.3,-6.7 3,-8.7 0.7,2 2.6,7.5 3,8.7 -1.1,0 -4.9,0 -6,0 z"
   id="path5"
   style="fill:#003a56;fill-opacity:1" />
		</g>
		<g
   id="g6">
			<path
   class="st0"
   d="m 134.7,14.7 c -15.2,-18.8 -76.9,7.8 -93.4,14.8 -1.2,0.5 -2.7,0.4 -3.6,-1.3 0.7,1.7 2,2.3 3.7,1.7 22,-8.8 75.2,-27.9 88.5,-10.5 6,7.9 4.26192,17.6 -2.33808,31.3 -0.23654,0.53654 -0.32817,0.792311 -0.58144,1.267421 -0.28251,0.52996 -0.45657,0.975962 -1.98048,1.532579 0.8,0 1.68187,-0.497761 2.06039,-1.133469 C 127.32544,51.921388 127.6,51.5 127.8,51.1 v 0 c 9.9,-16.4 13.3,-28.6 6.9,-36.4 z"
   id="path6"
   style="fill:#003a56;fill-opacity:1" />
		</g>
		<g
   id="g7">
			<path
   class="st1"
   d="M 123.2,52.6 C 123,52.4 120.2,50 117.5,47.4 103,33.8 59.4,-8.4 40.3,2.7 34.9,5.8 33.980469,14.9 37.280469,27 c 0.05881,0.208166 0.105822,0.384911 0.170312,0.6 0.353125,1.241406 1.096989,2.131986 2.196989,2.131986 C 38.84777,29.531986 38.3,28.9 37.9,27.9 37.733791,27.415197 37.606769,26.912239 37.5,26.4 35.7,16.1 37.9,9.4 42,6.6 c 15.3,-10 52,21.6 70.4,37.5 4.2,3.7 9,7.7 10.5,8.8 2.1,1.6 3.78886,-0.08826 3.78886,-0.08826 0,0 -1.88886,1.18826 -3.48886,-0.21174 z"
   id="path7" />
		</g>
	</g>
</g>
</svg>
