<?xml version="1.0" encoding="utf-8"?>
<!-- Generator: Adobe Illustrator 23.0.0, SVG Export Plug-In . SVG Version: 6.00 Build 0)  -->
<svg version="1.1" id="Layer_1" xmlns="http://www.w3.org/2000/svg" xmlns:xlink="http://www.w3.org/1999/xlink" x="0px" y="0px"
	 viewBox="0 0 317.48 170.08" style="enable-background:new 0 0 317.48 170.08;" xml:space="preserve">
<g>
	<g>
		<path d="M259.06,111.9c-1.41-0.75-3.11-1.23-5.13-1.23c-4.39,0-5.94,1.64-5.94,6.27v7.06c0,4.09,1.39,5.61,5.12,5.61
			c3.29,0,4.46-1.1,4.46-4.19v-3.79h-3.01c-0.29,0-0.53-0.24-0.53-0.53v-1.79c0-0.29,0.23-0.53,0.53-0.53h6.31
			c0.29,0,0.53,0.24,0.53,0.53v5.48c0,3.82-0.98,7.73-8.22,7.73l0,0c-6.33,0-9.28-2.59-9.28-8.15v-7.56c0-4.8,1.19-9.24,9.8-9.24
			c3.5,0,5.65,0.96,6.73,1.67c0.22,0.14,0.3,0.43,0.19,0.68l-0.88,1.74C259.61,111.92,259.31,112.04,259.06,111.9z M175.45,132.53
			c-7.48,0-9.05-3.77-9.05-6.93v-9.74c0-5.73,2.76-8.29,8.95-8.29c5.96,0,8.98,2.75,8.98,8.18v8.81
			C184.33,131.71,179.26,132.53,175.45,132.53L175.45,132.53z M175.51,110.81c-3.71,0-5.21,1.54-5.21,5.31v8.62
			c0,4.3,4.29,4.52,5.15,4.52c2.54,0,4.89-0.62,4.89-5.15v-8.12C180.33,112.5,178.76,110.81,175.51,110.81L175.51,110.81z
			 M304.79,132.1h-2.91c-0.29,0-0.53-0.24-0.53-0.53v-20.57h-6.21c-0.29,0-0.53-0.24-0.53-0.53v-2.02c0-0.29,0.24-0.53,0.53-0.53
			h16.44c0.29,0,0.53,0.24,0.53,0.53v2.02c0,0.29-0.23,0.53-0.53,0.53h-6.27v20.57C305.32,131.87,305.08,132.1,304.79,132.1
			L304.79,132.1z M270.67,132.1h-2.95c-0.29,0-0.52-0.24-0.52-0.53v-23.12c0-0.29,0.23-0.53,0.52-0.53h2.95
			c0.29,0,0.52,0.24,0.52,0.53v23.12C271.19,131.87,270.95,132.1,270.67,132.1L270.67,132.1z M238.72,132.1h-12.95
			c-0.29,0-0.53-0.24-0.53-0.53v-23.12c0-0.29,0.23-0.53,0.53-0.53h12.42c0.29,0,0.52,0.24,0.52,0.53v1.96
			c0,0.29-0.23,0.53-0.52,0.53h-9.18v7h7.61c0.29,0,0.52,0.24,0.52,0.52v2.02c0,0.29-0.24,0.52-0.52,0.52h-7.55v7.95h9.64
			c0.29,0,0.52,0.24,0.52,0.53v2.09C239.24,131.87,239.01,132.1,238.72,132.1L238.72,132.1z M291.49,132.1h-12.95
			c-0.29,0-0.53-0.24-0.53-0.53v-23.12c0-0.29,0.24-0.53,0.53-0.53h12.42c0.29,0,0.52,0.24,0.52,0.53v1.96
			c0,0.29-0.23,0.53-0.52,0.53h-9.18v7h7.61c0.29,0,0.52,0.24,0.52,0.52v2.02c0,0.29-0.24,0.52-0.52,0.52h-7.55v7.95h9.64
			c0.29,0,0.53,0.24,0.53,0.53v2.09C292.01,131.87,291.78,132.1,291.49,132.1L291.49,132.1z M203.47,132.1h-12.48
			c-0.29,0-0.52-0.24-0.52-0.53v-23.12c0-0.29,0.23-0.53,0.52-0.53h2.95c0.29,0,0.52,0.24,0.52,0.53v20.64h9.02
			c0.29,0,0.52,0.24,0.52,0.52v1.96C203.99,131.87,203.76,132.1,203.47,132.1L203.47,132.1z M220.86,132.1h-12.48
			c-0.29,0-0.53-0.24-0.53-0.53v-23.12c0-0.29,0.23-0.53,0.53-0.53h2.94c0.29,0,0.53,0.24,0.53,0.53v20.64h9.02
			c0.29,0,0.52,0.24,0.52,0.52v1.96C221.39,131.87,221.15,132.1,220.86,132.1L220.86,132.1z M141.14,132.1h-3.08
			c-0.2,0-0.38-0.11-0.47-0.3l-4.76-9.77h-4.18v9.54c0,0.29-0.24,0.53-0.53,0.53h-2.98c-0.29,0-0.53-0.24-0.53-0.53v-23.11
			c0-0.29,0.24-0.53,0.53-0.53h7.33c5.75,0,9.05,2.57,9.05,7.03c0,3.27-2.44,5.82-4.86,6.27l4.95,10.11
			C141.78,131.69,141.53,132.1,141.14,132.1L141.14,132.1z M128.65,110.94v7.95h4.72c2.58,0,4.12-1.47,4.12-3.93
			c0-3.5-3.25-4.02-5.18-4.02H128.65L128.65,110.94z M68.16,107.94h-3.22c-0.19,0-0.36,0.1-0.45,0.26l-6.35,10.6l-6.35-10.6
			c-0.09-0.16-0.27-0.26-0.45-0.26h-3.22c-0.29,0-0.53,0.24-0.53,0.53v23.11c0,0.29,0.23,0.53,0.53,0.53h2.95
			c0.29,0,0.53-0.24,0.53-0.53v-17.89l5.54,9.7c0.09,0.16,0.27,0.27,0.46,0.27h1.11c0.19,0,0.36-0.1,0.46-0.27l5.54-9.7v17.89
			c0,0.29,0.24,0.53,0.53,0.53h2.95c0.29,0,0.53-0.24,0.53-0.53v-23.11C68.69,108.17,68.45,107.94,68.16,107.94z M96.31,107.94
			h-3.22c-0.18,0-0.36,0.1-0.45,0.26l-6.35,10.6l-6.35-10.6c-0.1-0.16-0.27-0.26-0.45-0.26h-3.22c-0.29,0-0.53,0.24-0.53,0.53v23.11
			c0,0.29,0.24,0.53,0.53,0.53h2.95c0.29,0,0.53-0.24,0.53-0.53v-17.89l5.54,9.7c0.1,0.16,0.27,0.27,0.46,0.27h1.11
			c0.19,0,0.36-0.1,0.46-0.27l5.54-9.7v17.89c0,0.29,0.24,0.53,0.53,0.53h2.95c0.29,0,0.53-0.24,0.53-0.53v-23.11
			C96.83,108.17,96.6,107.94,96.31,107.94z M42.69,132.1h-3.06c-0.23,0-0.43-0.15-0.5-0.37l-1.57-5.11h-8.22l-1.51,5.11
			c-0.06,0.22-0.27,0.37-0.5,0.37h-2.41c-0.36,0-0.61-0.36-0.5-0.68l7.03-23.12c0.07-0.22,0.27-0.38,0.5-0.38h3.73
			c0.23,0,0.44,0.15,0.5,0.37l7.02,23.12C43.3,131.75,43.05,132.1,42.69,132.1L42.69,132.1z M33.47,112.66l-3.23,11.02h6.44
			L33.47,112.66L33.47,112.66z M119.61,132.1h-3.06c-0.23,0-0.44-0.15-0.5-0.37l-1.57-5.11h-8.22l-1.5,5.11
			c-0.07,0.22-0.27,0.37-0.5,0.37h-2.41c-0.36,0-0.61-0.36-0.5-0.68l7.03-23.12c0.07-0.22,0.27-0.38,0.5-0.38h3.72
			c0.23,0,0.44,0.15,0.5,0.37l7.02,23.12C120.22,131.75,119.97,132.1,119.61,132.1L119.61,132.1z M110.39,112.66l-3.23,11.02h6.44
			L110.39,112.66L110.39,112.66z M21.85,132.1h-3.14c-0.16,0-0.32-0.08-0.42-0.21l-7.96-10.58l-0.89,1.02v9.25
			c0,0.29-0.24,0.53-0.53,0.53H5.97c-0.29,0-0.52-0.24-0.52-0.53v-23.11c0-0.29,0.23-0.53,0.52-0.53h2.94
			c0.29,0,0.53,0.24,0.53,0.53v9.28l8.35-9.62c0.1-0.12,0.24-0.19,0.4-0.19h2.96c0.45,0,0.69,0.53,0.4,0.87l-8.65,9.96l9.37,12.5
			C22.53,131.61,22.29,132.1,21.85,132.1L21.85,132.1z M21.85,132.1h-3.14c-0.16,0-0.32-0.08-0.42-0.21l-7.96-10.58l-0.89,1.02v9.25
			c0,0.29-0.24,0.53-0.53,0.53H5.97c-0.29,0-0.52-0.24-0.52-0.53v-23.11c0-0.29,0.23-0.53,0.52-0.53h2.94
			c0.29,0,0.53,0.24,0.53,0.53v9.28l8.35-9.62c0.1-0.12,0.24-0.19,0.4-0.19h2.96c0.45,0,0.69,0.53,0.4,0.87l-8.65,9.96l9.37,12.5
			C22.53,131.61,22.29,132.1,21.85,132.1L21.85,132.1z M163.27,132.1h-3.15c-0.16,0-0.32-0.08-0.42-0.21l-7.96-10.58l-0.89,1.02
			v9.25c0,0.29-0.24,0.53-0.53,0.53h-2.95c-0.29,0-0.53-0.24-0.53-0.53v-23.11c0-0.29,0.24-0.53,0.53-0.53h2.95
			c0.29,0,0.53,0.24,0.53,0.53v9.28l8.35-9.62c0.1-0.12,0.25-0.19,0.4-0.19h2.96c0.45,0,0.69,0.53,0.4,0.87l-8.65,9.96l9.37,12.5
			C163.95,131.61,163.71,132.1,163.27,132.1L163.27,132.1z"/>
	</g>
	<path d="M109.65,55.78c0.14,0.39,0.4,1.1,0.54,1.47c0.14,0.38,0.13,0.81-0.05,1.2c-0.18,0.39-0.51,0.67-0.88,0.81
		c-0.38,0.14-0.7,0.42-0.88,0.81l-2.79,5.99c-0.53,1.14-0.04,2.5,1.1,3.03l1.21,0.56l3.29-7.05c0.37-0.78,1.3-1.12,2.08-0.76
		c0.78,0.37,1.12,1.3,0.76,2.08l-3.29,7.05l3.27,1.52l3.29-7.05c0.37-0.79,1.3-1.13,2.08-0.76c0.78,0.37,1.13,1.3,0.76,2.08
		l-3.29,7.05l1.21,0.56c1.14,0.53,2.49,0.04,3.02-1.1l2.79-5.99c0.18-0.39,0.19-0.82,0.05-1.2c-0.14-0.38-0.13-0.81,0.05-1.2
		c0.18-0.39,0.51-0.67,0.88-0.81c0.38-0.14,1.08-0.39,1.47-0.54L109.65,55.78z M192.93,90.39c-1.77,3.8-6.3,5.45-10.1,3.68
		c-2.12,2.75-5.95,3.78-9.23,2.25c-3.8-1.77-5.45-6.3-3.68-10.1l0.89-1.91c1.64,0.76,3.45,0.73,4.99,0.07l-1.76,3.77
		c-0.71,1.52-0.05,3.34,1.47,4.05c1.28,0.6,2.84,0.22,3.7-0.9c1.3-1.69,3.6-2.25,5.53-1.35c1.52,0.71,3.34,0.05,4.05-1.47
		c0.71-1.52,0.05-3.34-1.47-4.05c-1.93-0.9-2.98-3.02-2.52-5.1c0.3-1.38-0.41-2.82-1.69-3.42c-1.53-0.71-3.34-0.05-4.05,1.48
		l-1.56,3.35c-1.07,2.26-3.77,3.23-6.04,2.17l-12.49-5.82l5.39-2.51l9.03,4.21l1.55-3.32c1.77-3.8,6.3-5.45,10.1-3.68
		c3.28,1.53,4.96,5.12,4.21,8.51C193.06,82.06,194.7,86.59,192.93,90.39z M187.97,63.55c0.39,0.14,1.1,0.4,1.47,0.54
		c0.38,0.14,0.7,0.42,0.88,0.81c0.18,0.39,0.19,0.82,0.05,1.2c-0.14,0.38-0.13,0.81,0.05,1.2l2.79,5.99
		c0.53,1.14,1.89,1.63,3.03,1.1l1.21-0.56l-3.29-7.05c-0.37-0.79-0.03-1.72,0.76-2.08c0.79-0.37,1.72-0.03,2.08,0.76l3.29,7.05
		l3.27-1.52l-3.29-7.05c-0.37-0.78-0.03-1.72,0.76-2.08c0.78-0.37,1.72-0.03,2.08,0.76l3.29,7.05l1.21-0.56
		c1.14-0.53,1.63-1.88,1.1-3.03l-2.79-5.99c-0.18-0.39-0.51-0.67-0.88-0.81c-0.38-0.14-0.7-0.42-0.88-0.81
		c-0.18-0.39-0.19-0.82-0.05-1.2c0.14-0.38,0.39-1.08,0.54-1.47L187.97,63.55z M142.83,82.89c-2.27,1.06-4.96,0.08-6.04-2.17
		l-1.56-3.35c-0.71-1.52-2.53-2.19-4.05-1.47c-1.28,0.6-1.99,2.03-1.69,3.41c0.46,2.08-0.59,4.2-2.52,5.1
		c-1.52,0.71-2.18,2.53-1.48,4.05c0.71,1.53,2.53,2.19,4.05,1.47c1.93-0.9,4.23-0.34,5.53,1.35c0.86,1.12,2.42,1.5,3.7,0.9
		c1.52-0.71,2.18-2.53,1.47-4.05l-1.76-3.77c1.54,0.66,3.35,0.69,4.99-0.07l0,0l0.89,1.91c1.77,3.8,0.12,8.33-3.68,10.1
		c-3.28,1.53-7.11,0.51-9.23-2.25c-3.8,1.77-8.33,0.12-10.1-3.68c-1.77-3.8-0.12-8.33,3.68-10.1c-0.74-3.39,0.93-6.98,4.21-8.51
		c3.8-1.77,8.33-0.12,10.1,3.68l1.55,3.32l10.86-5.06l-42.01-19.59c-1.14-0.53-1.63-1.88-1.1-3.02c0.53-1.14,1.88-1.63,3.02-1.1
		l45.47,21.2l45.47-21.2c1.14-0.53,2.49-0.04,3.02,1.1c0.54,1.14,0.04,2.49-1.1,3.02L142.83,82.89z M178.41,48.84v8.83h-42.52
		l0-8.83H178.41z M161.12,21.66c0,2.19-1.77,3.97-3.97,3.97c-2.19,0-3.97-1.78-3.97-3.97c0-1.78,1.17-3.29,2.79-3.79v-1.34h-2.36
		v-2.36h2.36V11.8h2.36v2.36h2.36v2.36h-2.36v1.34C159.94,18.37,161.12,19.87,161.12,21.66z M155.75,47.34
		c-1.8,0-6.67-10.29-2.6-19.99h0c-8.87,0-9.58,13.12-2.71,19.99h-4.85c-2.62,0-8.65-6.78-6.26-15.35c0.54-1.94,1.5-3.51,2.69-4.69
		c-10.35-0.47-11.62,13.51-2.22,20.05h-3.37c-4.47,0-11.4-8.08-8.2-16.32c2.59-6.67,11.01-7.57,15.21-4.88
		c2.19-1.46,4.85-1.92,7.26-1.34c1.91,0.46,3.29,1.39,3.93,1.72c0.75,0.39,1.61,0.62,2.52,0.62c0.91,0,1.77-0.22,2.52-0.62
		c0.64-0.33,2.03-1.26,3.93-1.72c2.4-0.58,5.06-0.12,7.26,1.34c4.2-2.69,12.63-1.79,15.21,4.88c3.19,8.24-3.74,16.32-8.21,16.32
		h-3.37c9.4-6.53,8.13-20.52-2.22-20.05c1.2,1.19,2.15,2.75,2.69,4.69c2.39,8.57-3.64,15.35-6.26,15.35h-4.85
		c6.86-6.86,6.16-19.99-2.71-19.99h0c4.07,9.69-0.8,19.99-2.6,19.99H155.75z"/>
</g>
</svg>
