<?xml version="1.0" encoding="UTF-8" standalone="no"?>
<!-- Created with Inkscape (http://www.inkscape.org/) -->

<svg
   xmlns:dc="http://purl.org/dc/elements/1.1/"
   xmlns:cc="http://creativecommons.org/ns#"
   xmlns:rdf="http://www.w3.org/1999/02/22-rdf-syntax-ns#"
   xmlns:svg="http://www.w3.org/2000/svg"
   xmlns="http://www.w3.org/2000/svg"
   xmlns:sodipodi="http://sodipodi.sourceforge.net/DTD/sodipodi-0.dtd"
   xmlns:inkscape="http://www.inkscape.org/namespaces/inkscape"
   width="59.525352mm"
   height="35.195892mm"
   viewBox="0 0 59.525352 35.195892"
   version="1.1"
   id="svg8"
   inkscape:version="0.92.2 5c3e80d, 2017-08-06"
   sodipodi:docname="Oslo_Metropolitan_University_(Oslo Met).svg">
  <defs
     id="defs2" />
  <sodipodi:namedview
     id="base"
     pagecolor="#ffffff"
     bordercolor="#666666"
     borderopacity="1.0"
     inkscape:pageopacity="0.0"
     inkscape:pageshadow="2"
     inkscape:zoom="0.5"
     inkscape:cx="139.14901"
     inkscape:cy="50.430449"
     inkscape:document-units="mm"
     inkscape:current-layer="layer1"
     showgrid="false"
     fit-margin-top="0"
     fit-margin-left="0"
     fit-margin-right="0"
     fit-margin-bottom="0"
     inkscape:window-width="1440"
     inkscape:window-height="809"
     inkscape:window-x="0"
     inkscape:window-y="1"
     inkscape:window-maximized="1" />
  <metadata
     id="metadata5">
    <rdf:RDF>
      <cc:Work
         rdf:about="">
        <dc:format>image/svg+xml</dc:format>
        <dc:type
           rdf:resource="http://purl.org/dc/dcmitype/StillImage" />
        <dc:title></dc:title>
      </cc:Work>
    </rdf:RDF>
  </metadata>
  <g
     inkscape:label="Layer 1"
     inkscape:groupmode="layer"
     id="layer1"
     transform="translate(130.78301,-43.70531)">
    <path
       style="fill:#000000;stroke-width:0.08475142"
       d="m -82.018999,77.967911 -0.930398,-0.933291 3.156093,-3.156934 3.156092,-3.156935 -0.898229,-0.898229 -0.89823,-0.89823 0.820193,-0.817532 c 0.451106,-0.449641 0.845982,-0.81753 0.877501,-0.81753 0.03152,0 1.277035,1.220173 2.767813,2.711498 l 2.710504,2.711497 -0.844982,0.848165 -0.844983,0.848165 -0.913077,-0.910246 -0.913076,-0.910245 -3.157412,3.156569 -3.157411,3.15657 z m -43.624661,-0.0028 c -1.60956,-0.271024 -3.21444,-1.34892 -4.18735,-2.812382 -1.06683,-1.60475 -1.25392,-3.757585 -0.47569,-5.473929 0.56316,-1.242033 1.73672,-2.469484 2.91931,-3.053378 0.9976,-0.492554 1.67772,-0.633306 2.82318,-0.58426 1.56042,0.06681 2.85814,0.653404 3.98332,1.800526 1.92523,1.962779 2.35149,4.691113 1.08913,6.970994 -1.23301,2.226859 -3.80908,3.546921 -6.1519,3.152429 z m 2.4106,-2.944922 c 0.63473,-0.312506 1.20112,-0.879901 1.5177,-1.520388 0.16984,-0.343608 0.20039,-0.533791 0.20122,-1.25263 9e-4,-0.781864 -0.02,-0.890268 -0.26918,-1.399447 -0.33118,-0.676598 -1.03706,-1.40709 -1.7023,-1.76166 -1.56497,-0.834124 -3.42583,-0.294941 -4.23468,1.227001 -0.66627,1.253675 -0.4473,2.668132 0.58851,3.801478 1.09108,1.193815 2.60104,1.544565 3.89873,0.905646 z m 34.948246,-3.291766 c -2.299996,-2.296767 -2.341325,-2.344106 -2.19201,-2.510775 0.0837,-0.09343 1.885738,-1.90203 4.004528,-4.019111 l 3.852344,-3.849239 2.375995,2.375995 2.375994,2.375995 -0.845386,0.84857 -0.845386,0.848571 -1.442895,-1.441128 c -0.793592,-0.792624 -1.473286,-1.441131 -1.51043,-1.441131 -0.111226,0 -1.419023,1.298123 -1.391371,1.381079 0.01405,0.04215 0.614464,0.664155 1.334258,1.382245 l 1.308715,1.305619 -0.801708,0.805056 -0.80171,0.805057 -1.315931,-1.314003 c -0.723761,-0.722701 -1.34537,-1.314002 -1.381353,-1.314002 -0.09432,0 -1.500551,1.397531 -1.500551,1.491262 0,0.04321 0.62928,0.706978 1.398399,1.475038 0.769119,0.768059 1.398398,1.437696 1.398398,1.48808 0,0.09865 -1.520555,1.647722 -1.617392,1.647722 -0.03207,0 -1.113202,-1.053406 -2.402508,-2.340903 z m -28.185636,-2.371546 c -0.51228,-0.137061 -1.15651,-0.497667 -1.60003,-0.89561 l -0.28638,-0.256956 0.87964,-0.880514 c 0.4838,-0.484284 0.90858,-0.880872 0.94394,-0.881308 0.0354,-4.24e-4 0.21795,0.11051 0.40574,0.246547 0.65671,0.475717 1.39873,0.412789 2.06681,-0.175279 0.70882,-0.62393 0.8384,-1.300599 0.3508,-1.831899 -0.28299,-0.308346 -0.30556,-0.316378 -0.86871,-0.3091 -0.47523,0.0061 -0.7366,0.07207 -1.46805,0.370286 -2.00306,0.816658 -2.89885,1.020073 -3.75947,0.853691 -0.6557,-0.126765 -1.12538,-0.397383 -1.58335,-0.912293 -1.21634,-1.36756 -1.10601,-3.254893 0.27668,-4.732997 0.68042,-0.727367 1.22603,-1.114543 1.91167,-1.356536 1.02464,-0.361647 2.23126,-0.217367 3.083,0.368644 0.65651,0.451694 0.66622,0.403411 -0.2682,1.334323 l -0.84173,0.838572 -0.33192,-0.186549 c -0.6099,-0.342785 -1.31798,-0.17436 -1.8594,0.442281 -0.45831,0.521991 -0.43828,1.236551 0.0435,1.552237 0.34643,0.226988 0.84725,0.151372 2.03321,-0.306984 1.65865,-0.64104 2.30486,-0.80202 3.24693,-0.808845 0.74731,-0.0054 0.84866,0.01476 1.37449,0.273569 0.97273,0.478769 1.63838,1.307935 1.85286,2.307997 0.39106,1.823464 -1.65399,4.493829 -3.82227,4.991001 -0.52788,0.121038 -1.22689,0.103648 -1.77978,-0.04428 z m 23.296594,-2.497305 -0.856385,-0.853396 1.803781,-1.837462 c 0.992079,-1.010605 1.936065,-1.962422 2.097747,-2.11515 0.161682,-0.152727 0.275047,-0.296607 0.251921,-0.319731 -0.02312,-0.02313 -0.629147,0.249634 -1.346715,0.606132 -2.001168,0.994208 -4.243674,2.067696 -4.319394,2.067696 -0.03739,0 -0.43526,-0.35381 -0.884159,-0.786245 l -0.81618,-0.786245 0.461572,-0.972347 c 0.253866,-0.53479 0.7657,-1.601626 1.13741,-2.370745 1.03022,-2.131663 1.144568,-2.381146 1.108094,-2.417619 -0.01857,-0.01857 -0.966114,0.899184 -2.105663,2.039445 -1.139548,1.140261 -2.110943,2.073202 -2.158656,2.073202 -0.04771,0 -0.462375,-0.386381 -0.92147,-0.858623 l -0.834717,-0.858625 4.013889,-4.014563 4.013898,-4.014565 1.186872,1.187478 1.186874,1.187479 -1.793934,3.579742 c -0.986663,1.968858 -1.787564,3.585685 -1.779779,3.592949 0.0078,0.0073 1.611045,-0.807901 3.562802,-1.811478 l 3.54865,-1.824685 1.197075,1.197076 1.197074,1.197075 -3.982623,3.9833 c -2.190443,2.190815 -4.011643,3.9833 -4.047111,3.9833 -0.03547,0 -0.449862,-0.384029 -0.920873,-0.853395 z m -18.931304,-7.536407 -3.98205,-3.982728 0.88744,-0.890479 c 0.4881,-0.489763 0.92216,-0.890479 0.96458,-0.890479 0.0424,0 1.43005,1.353904 3.08363,3.008676 1.65357,1.654771 3.0318,3.008675 3.06273,3.008675 0.0309,0 0.68436,-0.628504 1.45208,-1.396675 0.76773,-0.768172 1.43468,-1.397451 1.48213,-1.398399 0.0474,-9.49e-4 0.48237,0.395736 0.9665,0.881518 l 0.88023,0.883242 -2.38048,2.379688 c -1.30926,1.308829 -2.39269,2.379689 -2.40761,2.379689 -0.0149,0 -1.81905,-1.792228 -4.00918,-3.982728 z m 8.26267,-3.776967 c -0.25637,-0.0665 -0.82844,-0.30205 -1.27127,-0.523441 -0.65879,-0.329363 -0.93608,-0.533596 -1.52553,-1.123595 -0.81471,-0.815483 -1.25793,-1.514533 -1.58561,-2.500844 -0.19498,-0.586921 -0.2255,-0.82034 -0.22715,-1.737404 -0.002,-0.942171 0.0242,-1.134415 0.23366,-1.737404 0.2882,-0.829563 0.61633,-1.415135 1.15257,-2.056895 0.78403,-0.938307 1.99364,-1.716328 3.13858,-2.018733 0.72311,-0.190989 2.06051,-0.189929 2.7968,0.0022 2.774035,0.723933 4.816097,3.470102 4.636919,6.235748 -0.159298,2.458789 -1.988489,4.697022 -4.412389,5.399082 -0.78959,0.228699 -2.17933,0.257694 -2.93658,0.06127 z m 2.31689,-2.622327 c 0.90754,-0.236386 1.617267,-0.823756 2.099353,-1.737432 0.172756,-0.327418 0.201333,-0.501298 0.201968,-1.228895 6.78e-4,-0.779649 -0.02112,-0.893674 -0.272296,-1.423961 -0.659015,-1.391338 -2.136165,-2.291353 -3.522815,-2.146419 -1.0283,0.107478 -2.04286,0.814047 -2.49489,1.737512 -0.20709,0.423077 -0.2335,0.572409 -0.23426,1.324359 -7.6e-4,0.7759 0.0217,0.895146 0.26622,1.411217 0.47641,1.005544 1.57765,1.902414 2.57633,2.098206 0.56971,0.111694 0.84529,0.104789 1.38039,-0.03459 z"
       id="path861"
       inkscape:connector-curvature="0" />
  </g>
</svg>
