<?xml version="1.0" encoding="UTF-8"?><svg id="b" xmlns="http://www.w3.org/2000/svg" width="81.19" height="32" viewBox="0 0 81.19 32"><g id="c"><path d="M8.28,25.63l-1.73,6.37H0L5.06,13.6c1.34-5.63,6.3-9.66,12.35-9.66,7.15,0,12.77,5.59,12.77,12.74s-5.62,12.74-12.77,12.74c-3.61,0-6.83-1.45-9.13-3.78,0,0,0,0,0,0ZM23.85,16.68c0-3.72-2.83-6.65-6.44-6.65s-6.37,2.93-6.37,6.65,2.8,6.65,6.37,6.65,6.44-2.93,6.44-6.65ZM39.83,4.29v25.12h-6.26V4.29h6.26,0ZM43.22,16.68c0-7.15,5.62-12.74,12.77-12.74s12.7,5.59,12.7,12.74c0,2.97-.95,5.66-2.62,7.82h5.84v4.92h-15.92c-7.15,0-12.77-5.59-12.77-12.74h0ZM62.36,16.68c0-3.72-2.79-6.65-6.37-6.65s-6.44,2.93-6.44,6.65,2.83,6.65,6.44,6.65,6.37-2.93,6.37-6.65h0ZM81.19,0v29.41h-6.26V0h6.26Z"/></g></svg>