<?xml version="1.0" encoding="UTF-8"?>
<svg id="Warstwa_1" data-name="Warstwa 1" xmlns="http://www.w3.org/2000/svg" width="95" height="35" viewBox="0 0 691.48 252.9">
  <defs>
    <style>
      .cls-1 {
        fill: #0050b2;
        fill-rule: evenodd;
      }
    </style>
  </defs>
  <path class="cls-1" d="M371.14,160.69c-2.71.98-5.62,1.3-8.48.94h-12.76v33.41c6.17,0,12.53-.12,17.24.17,14.02,0,25.04-3.4,32.96-10.33,8.08-7.07,12.49-17.44,11.98-28.16.01-5.8-1.23-11.53-3.62-16.81-2.52-5.33-6.13-10.07-10.61-13.9-1.35-1.03-3.09-2.58-5.38-4.43-5.77-4.54-8.34-7.43-8.53-11.26-.19-3.82,2.28-5.46,8.79-5.46h12.15v-33.41c-5.37-.49-11.56,0-15.79,0-10.75-.42-21.26,3.31-29.34,10.42-7.42,6.74-11.53,16.37-11.26,26.39-.04,5.04.96,10.03,2.93,14.67,2.36,4.9,5.53,9.36,9.38,13.2,1.16,1.03,2.58,2.5,4.64,4.34,6.05,5.45,8.98,10.01,8.98,13.49.02,2.63-1.2,5.12-3.29,6.72Z"/>
  <path class="cls-1" d="M455.68,160.69c-2.7.98-5.59,1.3-8.44.94h-12.79v33.41c6.2,0,12.58-.12,17.24.17,14.03,0,25.05-3.4,33.01-10.33,8.07-7.07,12.47-17.44,11.97-28.16.01-5.8-1.22-11.53-3.61-16.81-2.53-5.33-6.15-10.06-10.61-13.9-1.35-1.03-3.12-2.58-5.37-4.43-5.77-4.54-8.57-7.43-8.57-11.26s2.43-5.46,8.8-5.46h12.18v-33.41c-5.37-.49-11.53,0-15.79,0-10.75-.42-21.26,3.31-29.33,10.42-7.43,6.73-11.56,16.37-11.3,26.39-.03,5.04.97,10.04,2.94,14.67,2.35,4.91,5.52,9.37,9.39,13.2,1.12,1.03,2.58,2.5,4.63,4.34,6.05,5.45,8.98,10.01,8.98,13.49.02,2.64-1.21,5.13-3.31,6.72Z"/>
  <path class="cls-1" d="M289.5,112.89c6.38-5.47,14.61-8.31,23-7.96h8.8v-33.41h-8.8c-18.66,0-34.15,5.86-46.21,17.6-12.15,11.81-18.79,28.17-18.31,45.1,0,17.94,5.87,32.65,17.6,44.01,11.75,11.21,27.07,16.81,45.93,16.81h9.68l.06.32v-33.42h-10.01c-8.11.23-15.99-2.74-21.94-8.27-5.8-5.24-9.02-12.75-8.84-20.56-.15-7.75,3.15-15.16,9.01-20.24Z"/>
  <path class="cls-1" d="M556.76,48.95c-21.74-2.95-46.46-4.46-66.84-4.52,19.81,3.26,44.47,7.48,65.11,12.64.28-2.81.86-5.53,1.72-8.12Z"/>
  <path class="cls-1" d="M652.62,79.4c-7.57-4.24-15.32-7.91-22.93-11.08-1.21,6.03-3.85,11.53-7.56,16.15,11.91,7.65,18.76,13.82,18.76,13.82,12.87,10.83,19.86,22.58,19.86,34.85,0,23.91-27.01,45.93-72.17,63.31,0,0-31.99,11.17-54.06,16.45v-.02c-54.62,13.2-123.22,20.91-197.39,20.91-49.83.21-99.59-3.55-148.83-11.23l-32.67-6.03h-.06C70.06,198.37,13.73,167.82,13.73,133.27c0-3.22.49-6.4,1.43-9.53,2.22-7.34,6.98-14.44,13.96-21.28,0,0,0,0,0,0,0,0,0,0,.01-.01.19-.2,1.78-1.83,4.8-4.38,14.54-12.24,34.62-20.86,34.93-20.99,0,0,0,0,0,0h.05c2.87-1.34,5.83-2.64,8.89-3.91,58.94-24.61,153.29-40.54,259.56-40.54,13.78,0,27.32.27,40.65.77l43.85,2.61c23.82,1.96,46.62,4.75,67.93,8.35l49.93-33.17C516.45,4.42,474.81.41,424.27.01h0s-.07,0-.07,0C423.83,0,423.47,0,423.1,0c0,0,.02.02.02.03l-39.66.62c-75.07,2.26-162.02,11.97-235.88,31.77-25.49,6.79-49.18,14.28-69.77,22.8-6.09,2.52-11.91,5.13-17.42,7.84-22.52,9.91-35.75,22.35-35.75,22.35C11.42,96.64,2.97,109.34.65,123.74c-.43,2.67-.65,5.39-.65,8.18,0,41.66,60.43,78.47,152.21,100.12l33.1,7.12c52.89,9.36,106.52,13.96,160.23,13.73,72.73,0,138.72-7.95,193.31-21.45.01,0,.02,0,.03,0,24.5-5.31,52.89-16.22,55.9-17.39.07-.03.12-.05.16-.06,0,0,0,0,.01,0,.06-.02.09-.03.09-.03,56.36-21.64,91.75-50.49,96.05-82.03,2.93-21.03-11.17-38.14-38.48-52.51ZM422.9,34.89l.93-.99c-.3.34-.61.67-.93.99Z"/>
  <path class="cls-1" d="M186.04,73.12h-31.25v120.02h31.04v-32.28h4.73c14.55,0,25.78-3.9,33.94-11.73,8.15-7.83,12.16-18.34,12.16-32.88s-4.15-25.44-12.49-32.48c-8.34-7.04-21.03-10.65-38.14-10.65ZM205.55,116.66c.2,3.93-1.36,7.75-4.26,10.42-3.29,2.71-7.48,4.07-11.73,3.81h-3.72l.03-29.07h3.38c4.35-.27,8.65,1.1,12.06,3.82,2.95,2.88,4.51,6.91,4.26,11.02Z"/>
  <path class="cls-1" d="M592.64,89.03c7.7,0,14.68-3.09,19.77-8.09,4.77-4.69,7.88-11.07,8.36-18.17.04-.64.07-1.28.07-1.93,0-15.57-12.62-28.19-28.19-28.19-11.16,0-20.81,6.49-25.38,15.9-.29.59-.56,1.2-.8,1.82-1.15,2.86-1.84,5.95-1.98,9.18-.02.43-.03.86-.03,1.3,0,.24,0,.47,0,.7.37,15.25,12.85,27.49,28.19,27.49Z"/>
</svg>