<?xml version="1.0" encoding="UTF-8"?>
<svg width="149px" height="30px" viewBox="0 0 149 30" version="1.1" xmlns="http://www.w3.org/2000/svg" xmlns:xlink="http://www.w3.org/1999/xlink">
    <!-- Generator: Sketch 55.1 (78136) - https://sketchapp.com -->
    <title>Artboard</title>
    <desc>Created with Sketch.</desc>
    <g id="Artboard" stroke="none" stroke-width="1" fill="none" fill-rule="evenodd">
        <g id="Group" transform="translate(-3.000000, -3.000000)">
            <path d="M5.5528734,15.3605272 L27.9053053,8.9691072 C29.498316,8.51360418 31.1589645,9.43573633 31.6144675,11.028747 C31.6479619,11.1458855 31.6742895,11.2649556 31.6933041,11.3852958 L33.585603,23.3613371 C33.8221902,24.8586573 32.9046108,26.2971997 31.4471266,26.7139505 L9.09469468,33.1053705 C7.50168401,33.5608735 5.84103555,32.6387414 5.38553252,31.0457307 C5.35203812,30.9285922 5.32571048,30.8095221 5.30669589,30.6891819 L3.41439698,18.7131406 C3.17780982,17.2158204 4.0953892,15.777278 5.5528734,15.3605272 Z" id="Rectangle" fill="#05E1B8" transform="translate(18.500000, 21.037239) rotate(12.000000) translate(-18.500000, -21.037239) "></path>
            <path d="M6.28898087,13.2171002 L8.87917574,26.5752316 C9.19457184,28.2017897 10.7688368,29.2646965 12.3953949,28.9493004 C12.4859936,28.9317329 12.5757335,28.9099943 12.6643282,28.8841539 L35.0094399,22.3667584" id="Line-4" stroke="#FFFFFF" stroke-width="2" stroke-linecap="square" transform="translate(20.649210, 21.511290) rotate(12.000000) translate(-20.649210, -21.511290) "></path>
            <path d="M8.66821289,23.619873 C10.8894043,23.8712294 12,24.3065321 12,24.9257812 C12,25.0243275 19.1753302,24.6167275 33.1590576,24.2478027 C33.3634935,24.2424092 33.058806,24.7025736 32.2449951,25.6282959 L12,27 L8.66821289,26.5673828 L8.66821289,23.619873 Z" id="Rectangle" fill="#FFFFFF"></path>
            <path d="M10.9878543,11.2847554 C10.0161982,11.5625892 9.40447863,12.5216175 9.56220339,13.519831 L11.4545023,25.4958723 C11.4671787,25.576099 11.4847305,25.6554791 11.5070601,25.7335714 C11.8107287,26.7955786 12.9178277,27.4103333 13.9798348,27.1066646 L36.3322667,20.7152446 C37.3039229,20.4374108 37.9156425,19.4783825 37.7579177,18.480169 L35.8656188,6.50412772 C35.8529424,6.42390096 35.8353906,6.34452089 35.813061,6.26642855 C35.5093923,5.20442144 34.4022934,4.58966667 33.3402863,4.89333535 L10.9878543,11.2847554 Z" id="Rectangle" stroke="#2862FF" stroke-width="2" transform="translate(23.660061, 16.000000) rotate(12.000000) translate(-23.660061, -16.000000) "></path>
        </g>
        <path d="M50.6,24.175 C49.4333275,24.175 48.383338,23.9708354 47.45,23.5625 C46.516662,23.1541646 45.783336,22.5750038 45.25,21.825 C44.716664,21.0749962 44.45,20.200005 44.45,19.2 L47.5,19.2 C47.566667,19.9500038 47.8624974,20.5666643 48.3875,21.05 C48.9125026,21.5333357 49.6499953,21.775 50.6,21.775 C51.5833382,21.775 52.3499973,21.5375024 52.9,21.0625 C53.45,20.5874976 53.725,19.9750037 53.725,19.225 C53.725,18.6416637 53.5541684,18.1666685 53.2125,17.8 C52.8708316,17.4333315 52.4458359,17.150001 51.9375,16.95 C51.4291641,16.749999 50.7250045,16.5333345 49.825,16.3 C48.691661,15.9999985 47.7708369,15.6958349 47.0625,15.3875 C46.3541631,15.0791651 45.7500025,14.6000033 45.25,13.95 C44.7499975,13.2999968 44.5,12.4333388 44.5,11.35 C44.5,10.349995 44.7499975,9.47500375 45.25,8.725 C45.7500025,7.97499625 46.45,7.4 47.35,7 C48.2500045,6.599998 49.2916607,6.4 50.475,6.4 C52.1583417,6.4 53.5374946,6.82082912 54.6125,7.6625 C55.6875054,8.50417087 56.2833327,9.658326 56.4,11.125 L53.25,11.125 C53.1999998,10.4916635 52.9000027,9.95000225 52.35,9.5 C51.7999973,9.04999775 51.0750045,8.825 50.175,8.825 C49.3583292,8.825 48.6916693,9.03333125 48.175,9.45 C47.6583307,9.86666875 47.4,10.4666627 47.4,11.25 C47.4,11.783336 47.5624984,12.2208316 47.8875,12.5625 C48.2125016,12.9041684 48.6249975,13.174999 49.125,13.375 C49.6250025,13.575001 50.308329,13.7916655 51.175,14.025 C52.3250058,14.3416682 53.2624964,14.6583318 53.9875,14.975 C54.7125036,15.2916683 55.3291641,15.7791634 55.8375,16.4375 C56.3458359,17.0958366 56.6,17.9749945 56.6,19.075 C56.6,19.9583377 56.3625024,20.7916628 55.8875,21.575 C55.4124976,22.3583372 54.7208379,22.9874976 53.8125,23.4625 C52.9041621,23.9375024 51.8333395,24.175 50.6,24.175 Z M72.420833,16.775 C72.420833,17.2916693 72.3875,17.7583313 72.320833,18.175 L61.795833,18.175 C61.8791667,19.2750055 62.287496,20.15833 63.020833,20.825 C63.75417,21.49167 64.654161,21.825 65.720833,21.825 C67.254174,21.825 68.3374965,21.1833398 68.970833,19.9 L72.045833,19.9 C71.6291642,21.166673 70.8750051,22.2041626 69.783333,23.0125 C68.6916609,23.8208374 67.3375077,24.225 65.720833,24.225 C64.4041597,24.225 63.2250049,23.9291696 62.183333,23.3375 C61.1416611,22.7458304 60.3250026,21.9125054 59.733333,20.8375 C59.1416634,19.7624946 58.845833,18.5166738 58.845833,17.1 C58.845833,15.6833263 59.1333301,14.4375054 59.708333,13.3625 C60.2833359,12.2874946 61.0916611,11.4583363 62.133333,10.875 C63.1750049,10.2916638 64.3708262,10 65.720833,10 C67.0208395,10 68.1791612,10.2833305 69.195833,10.85 C70.2125047,11.4166695 71.0041635,12.2124949 71.570833,13.2375 C72.1375025,14.2625051 72.420833,15.44166 72.420833,16.775 Z M69.445833,15.875 C69.4291662,14.8249947 69.05417,13.9833365 68.320833,13.35 C67.587496,12.7166635 66.6791717,12.4 65.595833,12.4 C64.6124947,12.4 63.7708365,12.7124969 63.070833,13.3375 C62.3708295,13.9625031 61.954167,14.808328 61.820833,15.875 L69.445833,15.875 Z M81.991666,10 C83.0750048,10 84.0458284,10.2249978 84.904166,10.675 C85.7625036,11.1250023 86.4333303,11.7916623 86.916666,12.675 C87.4000018,13.5583378 87.641666,14.6249938 87.641666,15.875 L87.641666,24 L84.816666,24 L84.816666,16.3 C84.816666,15.0666605 84.5083358,14.1208366 83.891666,13.4625 C83.2749963,12.8041634 82.433338,12.475 81.366666,12.475 C80.299994,12.475 79.4541691,12.8041634 78.829166,13.4625 C78.2041629,14.1208366 77.891666,15.0666605 77.891666,16.3 L77.891666,24 L75.041666,24 L75.041666,10.225 L77.891666,10.225 L77.891666,11.8 C78.358335,11.2333305 78.9541624,10.7916683 79.679166,10.475 C80.4041696,10.1583318 81.1749953,10 81.991666,10 Z M96.087499,24.225 C95.0041603,24.225 94.0333366,24.0291686 93.174999,23.6375 C92.3166614,23.2458314 91.6375015,22.7125034 91.137499,22.0375 C90.6374965,21.3624966 90.3708325,20.6083375 90.337499,19.775 L93.287499,19.775 C93.337499,20.3583363 93.6166631,20.8458314 94.124999,21.2375 C94.6333349,21.6291686 95.2708285,21.825 96.037499,21.825 C96.837499,21.825 97.4583301,21.6708349 97.899999,21.3625 C98.3416679,21.0541651 98.562499,20.6583358 98.562499,20.175 C98.562499,19.6583308 98.3166681,19.2750013 97.824999,19.025 C97.3333299,18.7749988 96.554171,18.5 95.487499,18.2 C94.4541605,17.9166653 93.6125023,17.641668 92.962499,17.375 C92.3124958,17.108332 91.7500014,16.7000028 91.274999,16.15 C90.7999966,15.5999973 90.562499,14.8750045 90.562499,13.975 C90.562499,13.241663 90.7791635,12.5708364 91.212499,11.9625 C91.6458345,11.3541636 92.2666616,10.8750018 93.074999,10.525 C93.8833364,10.1749983 94.8124938,10 95.862499,10 C97.4291735,10 98.6916609,10.3958294 99.649999,11.1875 C100.608337,11.9791706 101.120832,13.0583265 101.187499,14.425 L98.337499,14.425 C98.2874988,13.8083303 98.0375013,13.3166685 97.587499,12.95 C97.1374968,12.5833315 96.5291695,12.4 95.762499,12.4 C95.0124953,12.4 94.437501,12.5416653 94.037499,12.825 C93.637497,13.1083348 93.437499,13.483331 93.437499,13.95 C93.437499,14.3166685 93.570831,14.6249988 93.837499,14.875 C94.104167,15.1250013 94.4291638,15.3208326 94.812499,15.4625 C95.1958343,15.6041674 95.7624953,15.7833323 96.512499,16 C97.512504,16.266668 98.3333291,16.5374986 98.974999,16.8125 C99.6166689,17.0875014 100.17083,17.491664 100.637499,18.025 C101.104168,18.558336 101.345832,19.2666623 101.362499,20.15 C101.362499,20.9333373 101.145835,21.6333303 100.712499,22.25 C100.279164,22.8666698 99.6666696,23.3499983 98.874999,23.7 C98.0833284,24.0500018 97.154171,24.225 96.087499,24.225 Z M107.108332,10.225 L107.108332,24 L104.258332,24 L104.258332,10.225 L107.108332,10.225 Z M116.004165,21.45 L119.904165,10.225 L122.929165,10.225 L117.679165,24 L114.279165,24 L109.054165,10.225 L112.104165,10.225 L116.004165,21.45 Z M130.874998,24.225 C129.574991,24.225 128.400003,23.9291696 127.349998,23.3375 C126.299993,22.7458304 125.474998,21.9125054 124.874998,20.8375 C124.274995,19.7624946 123.974998,18.5166738 123.974998,17.1 C123.974998,15.699993 124.283328,14.4583388 124.899998,13.375 C125.516668,12.2916613 126.358326,11.4583363 127.424998,10.875 C128.49167,10.2916638 129.683325,10 130.999998,10 C132.316671,10 133.508326,10.2916638 134.574998,10.875 C135.64167,11.4583363 136.483328,12.2916613 137.099998,13.375 C137.716668,14.4583388 138.024998,15.699993 138.024998,17.1 C138.024998,18.5 137.708334,19.7416613 137.074998,20.825 C136.441661,21.9083388 135.57917,22.7458304 134.487498,23.3375 C133.395826,23.9291696 132.191671,24.225 130.874998,24.225 Z M130.874998,21.75 C131.608335,21.75 132.295828,21.5750018 132.937498,21.225 C133.579168,20.8749983 134.099996,20.3500035 134.499998,19.65 C134.9,18.9499965 135.099998,18.100005 135.099998,17.1 C135.099998,16.099995 134.908333,15.2541701 134.524998,14.5625 C134.141663,13.8708299 133.633335,13.3500018 132.999998,13 C132.366662,12.6499983 131.683335,12.475 130.949998,12.475 C130.216661,12.475 129.537501,12.6499983 128.912498,13 C128.287495,13.3500018 127.791667,13.8708299 127.424998,14.5625 C127.05833,15.2541701 126.874998,16.099995 126.874998,17.1 C126.874998,18.5833408 127.254161,19.7291626 128.012498,20.5375 C128.770835,21.3458374 129.724992,21.75 130.874998,21.75 Z" id="Sensivo" fill="#1F5BFF" fill-rule="nonzero"></path>
        <polygon id="Path" fill="#1F5BFF" points="107.065361 7 107.065361 9 104.22 9 104.22 7"></polygon>
    </g>
</svg>