<svg xmlns="http://www.w3.org/2000/svg" xmlns:xlink="http://www.w3.org/1999/xlink" width="350" height="250" viewBox="0 0 350 250"><defs><linearGradient id="linear-gradient" x1="0.989" x2="0.012" y1="0.018" y2="0.933" gradientUnits="objectBoundingBox"><stop offset="0" stop-color="#3c9bcd"/><stop offset="1" stop-color="#195f8c"/></linearGradient><clipPath id="clip-safespring-webinar"><path d="M0 0h350v250H0z"/></clipPath></defs><g id="safespring-webinar" clip-path="url(#clip-safespring-webinar)"><path fill="#e7eff3" d="M0 0h350v250H0z"/><g id="Group_627" transform="translate(-312 -188)"><path id="house-crack-solid" fill="#195f8c" d="M59.47 31.45a3.53 3.53 0 0 0 3.5-3.5 3 3 0 0 0-1.2-2.63L33.85.77a3.6 3.6 0 0 0-2.3-.77 3.2 3.2 0 0 0-2.4.88L1.09 25.32A3.6 3.6 0 0 0 0 27.94a3.46 3.46 0 0 0 3.5 3.51H7V49a7 7 0 0 0 7 7h11.2l-3.42-5.7a1.74 1.74 0 0 1 .38-2.25l9.34-7.8-6.58-9.06a1.75 1.75 0 0 1 2.49-2.4L40.3 38.9a1.76 1.76 0 0 1 .04 2.73L31.5 49l4.2 7h13.35a7 7 0 0 0 7-7.03l-.08-17.52z" transform="translate(383 313.791)"/><path id="cloud-arrow-up-solid_1_" fill="#3c9bcd" d="M16.46 83.2A16.46 16.46 0 0 1 11 51.22l-.02-.92a18.29 18.29 0 0 1 34.14-9.12 10.97 10.97 0 0 1 17.06 9.12 11 11 0 0 1-.73 3.95 14.63 14.63 0 0 1-2.93 28.97Zm9.03-24.8a2.74 2.74 0 0 0 3.87 3.88l4.46-4.46v15.33a2.74 2.74 0 1 0 5.49 0V57.82l4.46 4.46a2.74 2.74 0 0 0 3.87-3.88l-9.14-9.14a2.73 2.73 0 0 0-3.87 0z" transform="translate(517.138 225)"/><path id="Path_5735" fill="url(#linear-gradient)" d="M16502.72 15684.31c-13.7 0-23.99-.98-24.12-.99a1.04 1.04 0 1 1 .2-2.08c.66.06 66.39 6.17 88.04-13.36a19.3 19.3 0 0 0 6.79-14.62 1.05 1.05 0 0 1 1.04-1.04h.01a1.05 1.05 0 0 1 1.04 1.05 21.3 21.3 0 0 1-7.48 16.17c-9.41 8.49-27.39 13.4-53.41 14.6-4.2.2-8.3.27-12.12.27" transform="translate(-16020.854 -15322.712)"/><path id="Polygon_31" fill="#3c9bcd" d="M6.18 1.17a1 1 0 0 1 1.64 0l5.08 7.26a1 1 0 0 1-.82 1.57H1.92a1 1 0 0 1-.82-1.57Z" transform="translate(547 321)"/></g></g></svg>