<svg xmlns="http://www.w3.org/2000/svg" xmlns:xlink="http://www.w3.org/1999/xlink" width="350" height="250" viewBox="0 0 350 250">
  <defs>
    <linearGradient id="linear-gradient" x1="0.989" y1="0.018" x2="0.012" y2="0.933" gradientUnits="objectBoundingBox">
      <stop offset="0" stop-color="#3c9bcd"/>
      <stop offset="1" stop-color="#195f8c"/>
    </linearGradient>
    <clipPath id="clip-safespring-webinar">
      <rect width="350" height="250"/>
    </clipPath>
  </defs>
  <g id="safespring-webinar" clip-path="url(#clip-safespring-webinar)">
    <rect width="350" height="250" fill="#e7eff3"/>
    <g id="Group_627" data-name="Group 627" transform="translate(-312 -188)">
      <path id="house-crack-solid" d="M59.472,31.453a3.526,3.526,0,0,0,3.5-3.511,3,3,0,0,0-1.2-2.625L33.848.766A3.633,3.633,0,0,0,31.552,0a3.155,3.155,0,0,0-2.406.875L1.094,25.318A3.555,3.555,0,0,0,0,27.943a3.464,3.464,0,0,0,3.5,3.511H7V49a7.006,7.006,0,0,0,7,7H25.2l-3.423-5.709a1.735,1.735,0,0,1,.383-2.242l9.34-7.8-6.584-9.055a1.749,1.749,0,0,1,2.494-2.406L40.3,38.912a1.755,1.755,0,0,1,.044,2.723L31.5,49l4.2,7H49.05a6.992,6.992,0,0,0,7-7.032l-.077-17.52h3.5Z" transform="translate(383 313.791)" fill="#195f8c"/>
      <path id="cloud-arrow-up-solid_1_" data-name="cloud-arrow-up-solid (1)" d="M16.459,83.207A16.464,16.464,0,0,1,11,51.214c-.011-.309-.023-.617-.023-.926a18.29,18.29,0,0,1,34.142-9.121A10.967,10.967,0,0,1,62.18,50.288a11.1,11.1,0,0,1-.732,3.955,14.63,14.63,0,0,1-2.926,28.964Zm9.03-24.8a2.74,2.74,0,0,0,3.875,3.875l4.458-4.458V73.148a2.743,2.743,0,1,0,5.486,0V57.821l4.458,4.458A2.74,2.74,0,0,0,47.64,58.4L38.5,49.259a2.732,2.732,0,0,0-3.875,0L25.478,58.4Z" transform="translate(517.138 225)" fill="#3c9bcd"/>
      <path id="Path_5735" data-name="Path 5735" d="M16502.715,15684.31c-13.7,0-23.984-.977-24.113-.99a1.044,1.044,0,1,1,.2-2.079c.662.063,66.387,6.172,88.035-13.357a19.275,19.275,0,0,0,6.791-14.626,1.046,1.046,0,0,1,1.047-1.038h.006a1.047,1.047,0,0,1,1.039,1.051,21.28,21.28,0,0,1-7.484,16.165c-9.408,8.49-27.381,13.4-53.41,14.6C16510.621,15684.232,16506.535,15684.31,16502.715,15684.31Z" transform="translate(-16020.854 -15322.712)" fill="url(#linear-gradient)"/>
      <path id="Polygon_31" data-name="Polygon 31" d="M6.181,1.17a1,1,0,0,1,1.638,0L12.9,8.427A1,1,0,0,1,12.079,10H1.921A1,1,0,0,1,1.1,8.427Z" transform="translate(547 321)" fill="#3c9bcd"/>
    </g>
  </g>
</svg>
