<svg xmlns="http://www.w3.org/2000/svg" xmlns:xlink="http://www.w3.org/1999/xlink" width="135.988" height="192.486" viewBox="0 0 135.988 192.486"><defs><clipPath id="clip-path"><path id="Rectangle_311" fill="none" d="M0 0h31.39v26.9H0z"/></clipPath></defs><g id="dbaas-logos" transform="translate(-351 -494)"><g id="b" transform="translate(351 494)"><g id="c"><path id="Path_5437" fill="rgba(0,0,0,0.46)" d="m13.4 24.2-.12-.08a2.2 2.2 0 0 1-1.3-1.34 9 9 0 0 1-.58-3.16l-.08-2.21a3.5 3.5 0 0 1-2.46.7 6 6 0 0 1-1.25-.26 1.2 1.2 0 0 1-.91-1.06l-.33.35a1.74 1.74 0 0 1-2.68.03 7 7 0 0 1-1.5-2.43A32 32 0 0 1 .08 6.85a7.4 7.4 0 0 1 .28-3.37A4.3 4.3 0 0 1 4.18.4a10.6 10.6 0 0 1 4.76.6.6.6 0 0 0 .59-.06 5.2 5.2 0 0 1 3.4-.64 10 10 0 0 0 2.83-.19 7.6 7.6 0 0 1 6.14 1.42 3.5 3.5 0 0 1 1.53 3.3c-.06.61-.1 1.23-.23 1.84a23 23 0 0 1-2.98 7.4l-.21.36a4 4 0 0 0 1.9 0q.43-.07.87-.1a.7.7 0 0 1 .68.34.7.7 0 0 1-.06.8 3.3 3.3 0 0 1-1.48 1.15 5.6 5.6 0 0 1-3.14.43l-.29-.02q-.08.7-.12 1.4a13 13 0 0 1-.47 3.16 3.4 3.4 0 0 1-2.68 2.48l-.39.14zm-1.83-7.6v.44c.07 1.54.09 3.08.22 4.61A2.4 2.4 0 0 0 14 23.91a4 4 0 0 0 1.17-.12 2.86 2.86 0 0 0 2.48-2.5q.24-1.53.43-3.07l.2-1.68a5 5 0 0 0 2.25.08 4 4 0 0 0 2.42-1.23c.12-.14.12-.38.18-.57a2 2 0 0 0-.58-.16c-.66.05-1.32.16-1.98.2a1.3 1.3 0 0 1-1.01-.3c.68-1.36 1.4-2.65 2-3.99a16 16 0 0 0 1.47-5.87 2.8 2.8 0 0 0-.48-1.99A6 6 0 0 0 20.38 1a8.6 8.6 0 0 0-6.05-.25 1 1 0 0 1-.35.04Q13.54.7 13.1.64a5.4 5.4 0 0 0-3.52.64.7.7 0 0 1-.62.05A11 11 0 0 0 4.49.68 4 4 0 0 0 .74 3.37a7 7 0 0 0-.3 3.52q.35 2.18.92 4.32a17 17 0 0 0 1.8 4.66 5 5 0 0 0 .78 1.01 1.4 1.4 0 0 0 2.2-.08q.26-.28.49-.57l1.63-1.83 1.7.43c0 .04.03.17-.02.24-.3.38-.54.81-1.06.95q-.61.14-1.24.32c-.25.08-.54.16-.55.5s.25.46.5.58a3.7 3.7 0 0 0 2.04.26 3 3 0 0 0 1.94-1.07Zm-4.27-.54c.73-.3 1.67-.07 2.16-.9l-.93-.3a.2.2 0 0 0-.2.07z" transform="translate(.002 .011)"/><path id="Path_5438" fill="rgba(0,0,0,0.46)" d="m398.26 40.69-2.14-1.48a.4.4 0 0 0-.33-.08 9 9 0 0 1-3.63.7 10 10 0 0 1-4.72-.79 6 6 0 0 1-3.71-5.4 6.2 6.2 0 0 1 1.44-4.6 6.7 6.7 0 0 1 3.7-2.1 11.6 11.6 0 0 1 6.12.2 6.1 6.1 0 0 1 4.42 6.3 6 6 0 0 1-1.53 4.04q-.4.38-.86.77l2.24 1.53zm-6.68-1.88h.34a7 7 0 0 0 2.86-.6 5 5 0 0 0 3.08-4.65 5.3 5.3 0 0 0-3.92-5.6 9 9 0 0 0-3.89-.2 5.3 5.3 0 0 0-4.78 5.1 5.25 5.25 0 0 0 3.1 5.3 7 7 0 0 0 3.22.65Z" transform="translate(-275.31 -19.09)"/><path id="Path_5439" fill="rgba(0,0,0,0.46)" d="M349.83 30.54h-1.57q-.05-.4-.13-.77a2.4 2.4 0 0 0-1.8-1.76 8.6 8.6 0 0 0-5.07.03 2 2 0 0 0-1.38 2.51A1.6 1.6 0 0 0 341 31.8q1.24.36 2.5.61l4.36.88.36.12a2.7 2.7 0 0 1 2.02 2.36 3.1 3.1 0 0 1-1.6 3.28 7 7 0 0 1-2.74.76 14 14 0 0 1-5.1-.36 7 7 0 0 1-.76-.28 3.7 3.7 0 0 1-2.25-3.7h1.58q.04.39.12.8a2.9 2.9 0 0 0 1.98 2.16 9 9 0 0 0 3.6.4 6 6 0 0 0 2.3-.48 2.2 2.2 0 0 0 1.25-2.34 1.8 1.8 0 0 0-1.51-1.69c-1.3-.3-2.61-.5-3.92-.76-.94-.2-1.88-.37-2.8-.62a2.8 2.8 0 0 1-2.1-3.42 2.8 2.8 0 0 1 2.19-2.4 12 12 0 0 1 4.12-.42 9 9 0 0 1 2.76.45 3.3 3.3 0 0 1 2.46 3.39Z" transform="translate(-242.374 -19.14)"/><path id="Path_5440" fill="rgba(0,0,0,0.46)" d="M246.12 42.44v7.79a3.34 3.34 0 0 1-2.97 3.72 11 11 0 0 1-4.84-.1 2.7 2.7 0 0 1-2.15-2.41h1.3a2.34 2.34 0 0 0 2.4 1.83 9 9 0 0 0 2.76-.1 2.5 2.5 0 0 0 2.16-2.3 15 15 0 0 0 .01-1.82c-1.36 1.45-3.1 1.6-4.9 1.44a7 7 0 0 1-2-.49 3.4 3.4 0 0 1-2.14-3.03 6 6 0 0 1 .09-1.77 3.5 3.5 0 0 1 2.54-2.68 8 8 0 0 1 4.31-.13 4 4 0 0 1 1.83 1.15l.27.26v-1.35zm-5.14.57v.05l-.75.04a3.2 3.2 0 0 0-3.17 3.47 2.8 2.8 0 0 0 2.3 2.88 8 8 0 0 0 2.21.18 3.13 3.13 0 0 0 3.22-2.81 3.03 3.03 0 0 0-2.22-3.54 14 14 0 0 0-1.59-.26Z" transform="translate(-169.126 -30.24)"/><path id="Path_5441" fill="rgba(0,0,0,0.46)" d="m100.35 27.82.1-.03c2.64 0 5.28-.04 7.92 0a3.5 3.5 0 0 1 2.87 1.37 3.58 3.58 0 0 1-2.04 5.64 7 7 0 0 1-1.64.2q-2.7.03-5.38.01h-.3v5.33h-1.53Zm1.53 1.03V34l.15.01h5.42a5 5 0 0 0 1.1-.16 2.3 2.3 0 0 0 1.48-1 2.55 2.55 0 0 0-1.9-3.97c-2.07-.12-4.15-.02-6.25-.02Z" transform="translate(-71.999 -19.924)"/><path id="Path_5442" fill="rgba(0,0,0,0.46)" d="M307.03 46.75h-9.11a2.9 2.9 0 0 0 1.74 2.85 5.4 5.4 0 0 0 4.15.1 2.7 2.7 0 0 0 1.63-1.75h1.4a3.5 3.5 0 0 1-1.8 2.25 6.6 6.6 0 0 1-3.23.7 7 7 0 0 1-2.68-.48 4.3 4.3 0 0 1-1.56-6.82 4 4 0 0 1 1.84-1.15 8 8 0 0 1 4.77 0 4.1 4.1 0 0 1 2.85 4.29Zm-1.38-.79a2.6 2.6 0 0 0-.76-1.79 4.66 4.66 0 0 0-5.9-.35 3.4 3.4 0 0 0-1.1 2.14Z" transform="translate(-212.727 -30.201)"/><path id="Path_5443" fill="rgba(0,0,0,0.46)" d="M188.77 44.9h-1.32c-.19-1.2-.7-1.67-2.08-1.86a7 7 0 0 0-2.76.12 3 3 0 0 0-.8.34 1.1 1.1 0 0 0 .17 2 7 7 0 0 0 1.54.34c1.17.18 2.35.3 3.52.48a4 4 0 0 1 .9.28 1.8 1.8 0 0 1 1.22 1.56 2 2 0 0 1-.85 1.94 4.3 4.3 0 0 1-2.06.71 12 12 0 0 1-4.6-.23 2.55 2.55 0 0 1-2-2.48h1.39s.02 0 .02.02a1.7 1.7 0 0 0 1.41 1.72 8 8 0 0 0 4.21-.02 1.32 1.32 0 0 0-.18-2.62l-3.55-.48q-.72-.1-1.43-.27a1.8 1.8 0 0 1-1.55-1.6 1.96 1.96 0 0 1 1.3-2.24 12 12 0 0 1 2.38-.45 8 8 0 0 1 3.28.3 2.4 2.4 0 0 1 1.84 2.07l.01.2v.15Z" transform="translate(-128.896 -30.217)"/><path id="Path_5444" fill="rgba(0,0,0,0.46)" d="M145.1 50.97a16 16 0 0 1-1.87-.28 3.96 3.96 0 0 1-3.13-3.7 4 4 0 0 1 2.02-4.15 5.4 5.4 0 0 1 2.29-.67 8 8 0 0 1 3.37.31 3.85 3.85 0 0 1 2.84 3.5 4.2 4.2 0 0 1-1.19 3.68 5 5 0 0 1-2.85 1.2c-.42.05-.85.06-1.48.12Zm.03-.87c.55-.06.94-.07 1.31-.13a3 3 0 0 0 2.74-2.31 6 6 0 0 0 .1-1.74 2.85 2.85 0 0 0-2.19-2.65 6 6 0 0 0-2.74-.17 3.35 3.35 0 0 0-2.85 4.24 3 3 0 0 0 2.11 2.45 11 11 0 0 0 1.53.3Z" transform="translate(-100.506 -30.222)"/><path id="Path_5445" fill="rgba(0,0,0,0.46)" d="M442.94 27.81h1.49v11.48h9.36v1.07h-10.85z" transform="translate(-317.803 -19.95)"/><path id="Path_5446" fill="rgba(0,0,0,0.46)" d="M217.51 36.3h2.22v.87h-2.21v5.42c0 .84.24 1.13 1.08 1.2.36.04.73.01 1.13.01v.78a5 5 0 0 1-2.65-.16 1.4 1.4 0 0 1-.86-1.48v-5.77h-1.66v-.84h1.64v-2.7h1.32z" transform="translate(-153.944 -24.119)"/><path id="Path_5447" fill="rgba(0,0,0,0.46)" d="M278.88 43.85c.07-.09.1-.1.11-.14a2.3 2.3 0 0 1 2.03-1.52q1.03-.09 2.1-.13v1.09c-.53 0-1.06-.04-1.57 0a2.6 2.6 0 0 0-2.6 2.62c-.08 1.13-.05 2.27-.06 3.4v1.41h-1.27v-8.2h1.26z" transform="translate(-199.188 -30.174)"/><path id="Path_5448" fill="#fff" d="M12.43 17.43a3 3 0 0 1-1.93 1.08 3.7 3.7 0 0 1-2.06-.27c-.24-.1-.5-.24-.49-.57s.3-.43.55-.5q.62-.18 1.24-.33c.52-.14.77-.57 1.06-.95.05-.07.02-.2.03-.24l-1.71-.43-1.63 1.84-.48.56a1.4 1.4 0 0 1-2.21.08 5 5 0 0 1-.78-1.01 17 17 0 0 1-1.8-4.67 52 52 0 0 1-.93-4.3 7 7 0 0 1 .31-3.53A4 4 0 0 1 5.35 1.5a11 11 0 0 1 4.48.66.7.7 0 0 0 .62-.06 5.4 5.4 0 0 1 3.52-.64q.44.06.87.14a1 1 0 0 0 .35-.04 8.6 8.6 0 0 1 6.05.25 6 6 0 0 1 2.18 1.72 2.8 2.8 0 0 1 .48 1.99 16 16 0 0 1-1.48 5.87c-.6 1.35-1.31 2.63-2 3.99a1.3 1.3 0 0 0 1.02.3c.66-.04 1.32-.15 1.98-.2a2 2 0 0 1 .58.16c-.06.19-.06.43-.19.57a4 4 0 0 1-2.41 1.24 4.6 4.6 0 0 1-2.25-.09l-.2 1.68q-.2 1.54-.43 3.07a2.86 2.86 0 0 1-2.48 2.5 4 4 0 0 1-1.17.12 2.4 2.4 0 0 1-2.22-2.25c-.14-1.54-.16-3.08-.22-4.62zm.36 3.13.11 1.32a4 4 0 0 0 .09.73c.26.91.8 1.7 1.72 1.77 1.36.11 3.22-.34 3.48-2.36q.36-2.77.67-5.53a1.15 1.15 0 0 1 .85-1.1l.2-.09q-.83-1.45-1.63-2.89a10 10 0 0 1-1.21-3.13 1.76 1.76 0 0 1 1.84-2.24h1.19l-.06-.22a7.4 7.4 0 0 0-6.86-5.08 4.4 4.4 0 0 0-2.97.92C8.58 4.02 8.2 5.9 8 7.93l.32-.16a5 5 0 0 1 2.02-.62 1.63 1.63 0 0 1 1.82 1.26 7.5 7.5 0 0 1-.43 5.4 14 14 0 0 0-.6 1.68 1.22 1.22 0 0 1 1.65 1.25v1.59zM9.85 2.5a11 11 0 0 0-4.66-.66 3.7 3.7 0 0 0-3.4 2.88 7 7 0 0 0-.21 2.58 30 30 0 0 0 2.22 8.27 5.5 5.5 0 0 0 1.25 1.91 1.02 1.02 0 0 0 1.62-.02c.75-.8 1.46-1.65 2.21-2.5l-.37-.35a3.5 3.5 0 0 1-.94-2.82 22 22 0 0 0 .1-2.56 10.6 10.6 0 0 1 .76-4.75A6 6 0 0 1 9.84 2.5Zm5.76-.72.14.1a7.7 7.7 0 0 1 3.65 2.95 4.6 4.6 0 0 1 .97 3.82 7 7 0 0 0-.02 2.59 4.4 4.4 0 0 1-.52 3.23l.4.5c.5-.94 1-1.8 1.43-2.68a18 18 0 0 0 1.91-6.74 2.3 2.3 0 0 0-.48-1.88 9 9 0 0 0-1.62-1.35 7.7 7.7 0 0 0-5.85-.54Zm-4.78 13.44c.21-.58.38-1.16.65-1.7a7 7 0 0 0 .33-5.07 1.2 1.2 0 0 0-1.14-.95 4 4 0 0 0-2.52.79c-.1.06-.12.25-.13.38-.02.92 0 1.84-.06 2.77a5 5 0 0 0 .07 1.67 2.8 2.8 0 0 0 2.8 2.1Zm8.74-1.07.1-.07.08-.15a4 4 0 0 0 .31-2.24 10 10 0 0 1-.03-3.09q.06-.41.1-.84.08-.36-.3-.36c-.37 0-.74-.03-1.11 0a1.3 1.3 0 0 0-1.32 1.13 3 3 0 0 0 .03.8c.32 1.78 1.38 3.21 2.14 4.82M8.27 17.6v.13l.33.22a3 3 0 0 0 3.65-.85.84.84 0 0 0-.17-1.2c-.35-.28-.64-.23-1 .2l-.08.1a2.5 2.5 0 0 1-1.84 1.14 7 7 0 0 0-.89.26m15.48-1.83q-.94.14-1.73.23a2.4 2.4 0 0 1-1.58-.22.75.75 0 0 0-.87.05 1 1 0 0 0-.36 1.04c.1.32.4.29.65.32a5 5 0 0 0 2.14-.22 3.4 3.4 0 0 0 1.75-1.2" transform="translate(-.855 -.807)"/><path id="Path_5449" fill="rgba(0,0,0,0.46)" d="M30.04 19.86v-1.59a1.2 1.2 0 0 0-1.66-1.25 13 13 0 0 1 .6-1.68 7.5 7.5 0 0 0 .44-5.4 1.63 1.63 0 0 0-1.82-1.26 5 5 0 0 0-2.02.62l-.32.16c.2-2.03.6-3.91 2.22-5.27a4.4 4.4 0 0 1 2.97-.92 7.4 7.4 0 0 1 6.85 5.08l.06.22h-1.19a1.76 1.76 0 0 0-1.84 2.24 10 10 0 0 0 1.2 3.14l1.65 2.89-.21.08a1.15 1.15 0 0 0-.85 1.1q-.31 2.77-.67 5.53c-.26 2.02-2.12 2.47-3.48 2.36-.92-.07-1.46-.85-1.72-1.77a4 4 0 0 1-.09-.73V22.1q.02-.42 0-.84-.05-.7-.13-1.4Z" transform="translate(-18.123 -2.34)"/><path id="Path_5450" fill="rgba(0,0,0,0.46)" d="M10.7 4.18a6 6 0 0 0-1.41 1.98 10.6 10.6 0 0 0-.76 4.76 22 22 0 0 1-.1 2.56 3.5 3.5 0 0 0 .95 2.82l.37.34q-1.1 1.3-2.2 2.51a1.02 1.02 0 0 1-1.64.02 5.5 5.5 0 0 1-1.24-1.91 30 30 0 0 1-2.23-8.28 7 7 0 0 1 .2-2.58 3.7 3.7 0 0 1 3.4-2.88 11 11 0 0 1 4.66.66" transform="translate(-1.715 -2.491)"/><path id="Path_5451" fill="rgba(0,0,0,0.46)" d="M52.22 2.62a7.7 7.7 0 0 1 5.86.54A9 9 0 0 1 59.7 4.5a2.3 2.3 0 0 1 .48 1.87 18 18 0 0 1-1.91 6.74c-.43.9-.93 1.75-1.43 2.69l-.4-.5a4.4 4.4 0 0 0 .52-3.24 7 7 0 0 1 .02-2.58A4.6 4.6 0 0 0 56 5.66a7.7 7.7 0 0 0-3.65-2.95z" transform="translate(-37.467 -1.643)"/><path id="Path_5452" fill="rgba(0,0,0,0.46)" d="M27.9 31.38a2.8 2.8 0 0 1-2.8-2.1 5 5 0 0 1-.07-1.67c.06-.92.04-1.85.07-2.77 0-.13.03-.32.12-.38a4 4 0 0 1 2.53-.79 1.2 1.2 0 0 1 1.13.95 7 7 0 0 1-.33 5.08 18 18 0 0 0-.65 1.69Zm-.19-7.21c-.52 0-.74.2-.62.5a.76.76 0 0 0 1.24.23c.19-.2.17-.43-.08-.55a3 3 0 0 0-.54-.18" transform="translate(-17.929 -16.971)"/><path id="Path_5453" fill="rgba(0,0,0,0.46)" d="M60.68 30.02c-.76-1.6-1.82-3.04-2.14-4.81a3 3 0 0 1-.03-.8 1.3 1.3 0 0 1 1.32-1.14c.37-.03.74 0 1.11 0 .26 0 .33.13.3.36l-.1.84a10 10 0 0 0 .03 3.09 4 4 0 0 1-.32 2.24l-.08.15-.1.07ZM60 23.58l-.05.07-.3.03q-.62.14-.55.5a.7.7 0 0 0 .77.41 1 1 0 0 0 .36-.17c.11-.15.28-.37.24-.5-.05-.15-.3-.23-.47-.34" transform="translate(-41.967 -16.683)"/><path id="Path_5454" fill="rgba(0,0,0,0.46)" d="M26.25 54.68a6 6 0 0 1 .88-.27 2.5 2.5 0 0 0 1.84-1.12l.09-.1c.36-.43.65-.49 1-.2a.84.84 0 0 1 .17 1.2 3 3 0 0 1-3.66.84l-.32-.22Z" transform="translate(-18.834 -37.885)"/><path id="Path_5455" fill="rgba(0,0,0,0.46)" d="M69.4 52.66a3.4 3.4 0 0 1-1.75 1.2 5 5 0 0 1-2.14.21c-.25-.02-.55 0-.65-.3a1 1 0 0 1 .36-1.05.75.75 0 0 1 .87-.05 2.4 2.4 0 0 0 1.58.22c.55-.06 1.09-.14 1.73-.23" transform="translate(-46.515 -37.698)"/><path id="Path_5456" fill="rgba(0,0,0,0.46)" d="M42.18 61.99q.08.7.13 1.4.02.42 0 .85h-.11Z" transform="translate(-30.263 -44.474)"/><path id="Path_5457" fill="rgba(0,0,0,0.46)" d="M42.24 69.9h.12v1.3z" transform="translate(-30.306 -50.149)"/><path id="Path_5458" fill="#fff" d="M32.96 25.45a3 3 0 0 1 .54.18c.25.12.27.35.08.55a.76.76 0 0 1-1.24-.23c-.12-.3.1-.5.62-.5" transform="translate(-23.178 -18.257)"/><path id="Path_5459" fill="#fff" d="M61.53 24.4c.17.11.42.19.46.34.05.13-.12.35-.24.5a1 1 0 0 1-.35.17.7.7 0 0 1-.77-.41q-.08-.37.55-.5l.3-.04z" transform="translate(-43.496 -17.504)"/></g></g><g id="https___mariadb.com_wp-content_uploads_2019_11_mariadb-horizontal-black" transform="translate(351 661)"><path id="Path_5460" fill="rgba(0,0,0,0.46)" d="m297.9 68.81 2.41 9.32h-1.82l-1.61-6.71-3.02 6.7h-1.53l-3-6.66-1.66 6.67h-1.78l2.39-9.32h1.57l3.25 7.21 3.24-7.21Z" transform="translate(-248.642 -60.125)"/><path id="Path_5461" fill="rgba(0,0,0,0.46)" d="M406.83 88.17v-1.09h1.75v6.8h-1.75v-1.1a2.9 2.9 0 0 1-2.58 1.24 3.56 3.56 0 0 1-3.78-3.67 3.3 3.3 0 0 1 3.52-3.42 3.2 3.2 0 0 1 2.84 1.24m-4.5 2.27a2.2 2.2 0 0 0 2.32 2.32 2.16 2.16 0 0 0 2.27-2.28 2.2 2.2 0 0 0-2.35-2.3 2.13 2.13 0 0 0-2.23 2.26" transform="translate(-348.294 -75.884)"/><path id="Path_5462" fill="rgba(0,0,0,0.46)" d="M481.42 93.88h-1.76v-6.8h1.76v1.53a2.7 2.7 0 0 1 2.45-1.68 3 3 0 0 1 1.1.18l-.38 1.29a4 4 0 0 0-.93-.13 2.23 2.23 0 0 0-2.24 2.36Z" transform="translate(-417.167 -75.882)"/><path id="Path_5463" fill="rgba(0,0,0,0.46)" d="M527.09 68.26a.9.9 0 0 1 .94-.9.93.93 0 0 1 .95.93.9.9 0 0 1-.95.9.9.9 0 0 1-.94-.93m.07 1.8h1.76v4.96c0 .31.06.53.32.53l.34-.04.27 1.28a3 3 0 0 1-1.16.2c-.74 0-1.53-.21-1.53-1.88Z" transform="translate(-458.414 -58.854)"/><path id="Path_5464" fill="rgba(0,0,0,0.46)" d="M558.9 88.17v-1.09h1.76v6.8h-1.75v-1.1a2.9 2.9 0 0 1-2.58 1.24 3.56 3.56 0 0 1-3.78-3.67 3.3 3.3 0 0 1 3.52-3.42 3.2 3.2 0 0 1 2.84 1.24m-4.48 2.27a2.2 2.2 0 0 0 2.3 2.32 2.16 2.16 0 0 0 2.28-2.28 2.2 2.2 0 0 0-2.35-2.3 2.13 2.13 0 0 0-2.23 2.26" transform="translate(-480.56 -75.884)"/><path id="Path_5465" fill="rgba(0,0,0,0.46)" d="M635.51 68.81h4.2c3.54 0 5.3 1.95 5.28 4.66.03 2.81-1.92 4.66-4.96 4.66h-4.52Zm1.16.83v7.67h3.2a3.84 3.84 0 1 0 0-7.67Z" transform="translate(-552.711 -60.125)"/><path id="Path_5466" fill="rgba(0,0,0,0.46)" d="M727.7 78.13h-5.35V68.8h4.81c1.85 0 3.6.35 3.58 2.41a1.87 1.87 0 0 1-1.86 2.02 2.2 2.2 0 0 1 2.17 2.37c0 2.08-1.82 2.52-3.36 2.52m-.4-5.26c1.84 0 2.25-.7 2.25-1.6 0-1.36-.83-1.67-2.26-1.67h-3.83v3.27Zm.04.79h-3.88v3.67h4.06c1.13 0 2.33-.37 2.33-1.8 0-1.65-1.38-1.87-2.5-1.87Z" transform="translate(-628.237 -60.125)"/><path id="Path_5467" fill="rgba(0,0,0,0.46)" d="M38.98 2.28a.6.6 0 0 0-.38-.13 3 3 0 0 0-1.13.39l-.1.05a4 4 0 0 1-1.41.36c-.5.02-.94.05-1.5.1-3.34.35-4.83 2.9-6.26 5.38a17 17 0 0 1-2.7 3.82 7 7 0 0 1-.72.61 16 16 0 0 1-3.7 1.89c-1.08.41-2.25.78-3.39 1.14q-1.56.48-2.92.97l-1.06.37a8 8 0 0 0-2.29 1.07c-.33.23-.67.48-.91.67a10 10 0 0 0-1.81 1.9 11 11 0 0 1-1.51 1.82 1.4 1.4 0 0 1-1 .27 13 13 0 0 1-1.99-.25 14 14 0 0 0-2.2-.26 2.5 2.5 0 0 0-1.26.27 2 2 0 0 0-.75.7l.22.1a5 5 0 0 1 .93.66 5 5 0 0 0 .96.69 1 1 0 0 1 .3.2l-.37.49c-.77 1-1.22 1.64-.96 1.98a1 1 0 0 0 .4.1 7.4 7.4 0 0 0 3.72-1l1.06-.48a16 16 0 0 0 2.15-1.24 14 14 0 0 1 3.06-1.64 8 8 0 0 1 2.57-.37 26 26 0 0 1 3.28.29q1.21.16 2.46.26l.9.02a10 10 0 0 0 1.15-.06l.1-.03a3.4 3.4 0 0 0 1.1-1.85 4 4 0 0 1 .53-1.17l.04-.03h.07v.03a11 11 0 0 1-2.46 6.31l-.79.84a6 6 0 0 0 1.72-.24 8.6 8.6 0 0 0 5.23-4.56 19 19 0 0 0 .82-1.88c.02-.05.22-.15.2.13l-.01.26-.02.17c-.03.4-.13 1.25-.13 1.25l.7-.38c1.7-1.07 3-3.22 3.99-6.57.4-1.4.71-2.79.97-4.01a13 13 0 0 1 .92-3.21 7 7 0 0 1 1.97-1.8l.3-.2a4 4 0 0 0 2.03-2.77v-.03c.14-1.02.02-1.28-.12-1.4" transform="translate(0 -2.148)"/></g><g id="b-2" transform="translate(351 623)"><g id="c-2"><g id="Group_567"><path id="Path_5468" fill="rgba(0,0,0,0.46)" d="M351.56 24.79a32 32 0 0 1-3.16-1.14 11.9 11.9 0 0 1-6.86-8.52 12 12 0 0 1 3.42-11.61A11.8 11.8 0 0 1 353.43 0l.23.06a16 16 0 0 1-.03 1.64c-.01.13-.33.3-.51.31a10 10 0 0 0-5.06 1.63 10.2 10.2 0 0 0-4.75 9.75 10.35 10.35 0 0 0 7.76 9.1 12 12 0 0 0 2.11.27c.36.03.5.15.49.5q0 .76.03 1.52Z" transform="translate(-290.028)"/><path id="Path_5469" fill="rgba(0,0,0,0.46)" d="M0 52a13 13 0 0 1 .98-2.16 5.18 5.18 0 0 1 8.32-.21l-.87.75c-.3-.26-.6-.57-.94-.82a3.9 3.9 0 0 0-4.52-.02 4.11 4.11 0 0 0 2.1 7.43 3.34 3.34 0 0 0 3.33-2.94H4.88a1.8 1.8 0 0 1 1.69-1.2H9.8a4.66 4.66 0 0 1-3.85 5.24A5.06 5.06 0 0 1 .2 54.36l-.2-.44z" transform="translate(.01 -40.493)"/><path id="Path_5470" fill="rgba(0,0,0,0.46)" d="m838.95 58.76-.05-.01a2 2 0 0 1-2.27-1.24 31 31 0 0 0-1.88-2.72 2 2 0 0 0-.55-.36l-.15.12v4.16h-1.24V48.57a32 32 0 0 1 3.34.25 2.6 2.6 0 0 1 2.13 2.6 2.75 2.75 0 0 1-1.99 2.84l-.37.13 3.03 4.14Zm-4.92-9.1c0 1.28 0 2.36.02 3.44 0 .12.22.33.32.32a9 9 0 0 0 1.8-.31 1.46 1.46 0 0 0 .94-1.52 1.4 1.4 0 0 0-.98-1.5 21 21 0 0 0-2.1-.43" transform="translate(-707.893 -41.285)"/><path id="Path_5471" fill="rgba(0,0,0,0.46)" d="M384 32.2a7 7 0 0 0-3.3-2.34 6.2 6.2 0 0 0-6.42 1.87 6.53 6.53 0 0 0 2.35 10.24 5.37 5.37 0 0 0 7.24-3.36 5 5 0 0 0 .1-.84h-5.33l1.7-1.75a.4.4 0 0 1 .27-.08h5.54a7.8 7.8 0 0 1-1.1 4.86 7.3 7.3 0 0 1-7.5 3.36 7.9 7.9 0 0 1-6.6-6.15 8.25 8.25 0 0 1 14.1-7.55c.24.24.31.42.02.68-.28.24-.52.54-.77.8-.08.09-.17.15-.3.26" transform="translate(-315.084 -23.593)"/><path id="Path_5472" fill="rgba(0,0,0,0.46)" d="M218.44 58.6c-.54.01-1.08.05-1.62.02a.8.8 0 0 1-.46-.33l-2.52-3.59a3 3 0 0 0-.7-.49v4.39h-1.28V48.45a33 33 0 0 1 3.46.3 2.6 2.6 0 0 1 2.06 2.66 2.8 2.8 0 0 1-1.88 2.73l-.48.16q.99 1.39 1.96 2.7.55.73 1.13 1.44l.07.03v-.08zm-5.27-5.26a13 13 0 0 0 1.68-.2 1.7 1.7 0 0 0 .92-2.76 3.3 3.3 0 0 0-2.6-.69z" transform="translate(-180.081 -41.183)"/><path id="Path_5473" fill="rgba(0,0,0,0.46)" d="m61.41 56.6 4.83-10.54 4.83 10.54a9 9 0 0 1-1.15-.01.6.6 0 0 1-.38-.33c-.3-.6-.53-1.24-.85-1.83a.8.8 0 0 0-.58-.36c-1.25-.04-2.5-.01-3.76-.03a.53.53 0 0 0-.57.4c-.23.55-.53 1.08-.74 1.64a.7.7 0 0 1-.83.53 6 6 0 0 0-.8 0Zm4.83-7.72-1.75 4H68z" transform="translate(-52.197 -39.151)"/><path id="Path_5474" fill="rgba(0,0,0,0.46)" d="m254.25 56.57-.26-.21 2.03-4.55 2.63-5.75 4.79 10.45-.13.09c-1.2.05-1.29.08-1.66-1.04a1.9 1.9 0 0 0-2.35-1.53c-.82.12-1.68 0-2.52.04a.8.8 0 0 0-.57.36c-.27.45-.45.95-.67 1.43a1.2 1.2 0 0 1-1.29.71m6.16-3.69-1.76-4-1.75 4Z" transform="translate(-215.892 -39.151)"/><path id="Path_5475" fill="rgba(0,0,0,0.46)" d="M170.7 58.05v1.13l-.32.07-4.67.01c-.29 0-.45-.06-.45-.4l.01-9.5.06-.18h5.35v1.13h-4.06v2.79h3.95v1.2h-3.97v3.75z" transform="translate(-140.471 -41.803)"/><path id="Path_5476" fill="rgba(0,0,0,0.46)" d="M787.7 58.14h4.05v1.15h-5.36V49.27h5.34l.05.11c.12 1.04.12 1.04-.9 1.04h-3.18v2.74h3.95v1.22h-3.95Z" transform="translate(-668.436 -41.88)"/><path id="Path_5477" fill="rgba(0,0,0,0.46)" d="M643.4 49.18h1.2l.05.42v6.12a3.5 3.5 0 0 1-3.25 3.7 3.5 3.5 0 0 1-4.06-3.23c-.1-2.31-.02-4.63-.02-7h1.24v5.97a7 7 0 0 0 .11 1.16 2.32 2.32 0 0 0 4.56.1 8 8 0 0 0 .15-1.55q.02-2.55.01-5.12z" transform="translate(-541.704 -41.803)"/><path id="Path_5478" fill="rgba(0,0,0,0.46)" d="m700.46 49.13-.97.6a1.8 1.8 0 0 0-1.73-.92 2.5 2.5 0 0 0-1.11.45 1.12 1.12 0 0 0 .08 1.9 10 10 0 0 0 1.35.67 14 14 0 0 1 1.36.66 2.8 2.8 0 0 1 1.31 3.04 3.1 3.1 0 0 1-2.39 2.48 3.15 3.15 0 0 1-3.84-2.32l-.05-.42 1.19-.28.16.54a1.9 1.9 0 0 0 1.84 1.37 1.9 1.9 0 0 0 1.76-1.34 1.64 1.64 0 0 0-.8-2.06c-.5-.3-1.04-.5-1.56-.76a9 9 0 0 1-1.22-.68 2.37 2.37 0 0 1-.07-3.74 3.1 3.1 0 0 1 4.7.8Z" transform="translate(-590.303 -40.436)"/><path id="Path_5479" fill="rgba(0,0,0,0.46)" d="M549.47 56a5 5 0 0 1-.01 1.03 1 1 0 0 1-.38.59 5.25 5.25 0 1 1-4.24-9.59 5.5 5.5 0 0 1 3.95-.06c.52.19.78.47.7 1.03a6 6 0 0 0-.01.78 4.2 4.2 0 0 0-3.86-.8 3.8 3.8 0 0 0-2.07 1.56 4.2 4.2 0 0 0 .27 5.07c1.39 1.58 3.08 1.72 5.65.4Z" transform="translate(-460.31 -40.488)"/><path id="Path_5480" fill="rgba(0,0,0,0.46)" d="M742.02 50.34h-2.36v-1.12h5.99v1.12c-.6 0-1.22.03-1.82 0-.46-.03-.57.14-.57.57q.02 3.82.01 7.65v.7h-1.25z" transform="translate(-628.715 -41.837)"/><path id="Path_5481" fill="rgba(0,0,0,0.46)" d="M608.62 58.06v1.18h-4.27V49.2h1.22v8.86z" transform="translate(-513.701 -41.82)"/><path id="Path_5482" fill="rgba(0,0,0,0.46)" d="M131.47 49.15h1.22v8.88h3.04v1.17h-4.26Z" transform="translate(-111.749 -41.778)"/><path id="Path_5483" fill="rgba(0,0,0,0.46)" d="M447.54 7.66a1 1 0 0 1-1-1.07.97.97 0 0 1 1.02-.97 1.06 1.06 0 0 1 1.01 1 1.1 1.1 0 0 1-1.03 1.04" transform="translate(-379.568 -4.776)"/><path id="Path_5484" fill="rgba(0,0,0,0.46)" d="M488.65 105.16a.94.94 0 0 1 .98.98 1 1 0 0 1-.99 1.04 1.04 1.04 0 0 1-1.03-1.02 1 1 0 0 1 1.03-1Z" transform="translate(-414.47 -89.387)"/><path id="Path_5485" fill="rgba(0,0,0,0.46)" d="M473.14 130.73a.95.95 0 0 1-.99 1 1 1 0 0 1-1.03-1.02 1.07 1.07 0 0 1 1.06-1.01 1 1 0 0 1 .96 1.04Z" transform="translate(-400.453 -110.245)"/><path id="Path_5486" fill="rgba(0,0,0,0.46)" d="M489.63 47.83a.95.95 0 0 1-1.04.93 1.03 1.03 0 0 1-.97-1.03 1.05 1.05 0 0 1 1.07-1 1 1 0 0 1 .94 1.1" transform="translate(-414.476 -39.724)"/><path id="Path_5487" fill="rgba(0,0,0,0.46)" d="M473.14 23.27a1 1 0 0 1-.96 1.03 1.1 1.1 0 0 1-1.06-1.03 1 1 0 0 1 1.05-1 .93.93 0 0 1 .97 1" transform="translate(-400.453 -18.937)"/><path id="Path_5488" fill="rgba(0,0,0,0.46)" d="M448.59 147.2a1 1 0 0 1-1.01 1.04 1 1 0 0 1-1.01-.97 1 1 0 0 1 1-1.05 1.05 1.05 0 0 1 1.02.98" transform="translate(-379.585 -124.288)"/><path id="Path_5489" fill="rgba(0,0,0,0.46)" d="M495.53 76.98A1.03 1.03 0 0 1 494.5 78a1 1 0 1 1 1.03-1.03" transform="translate(-419.477 -64.592)"/><path id="Path_5490" fill="rgba(0,0,0,0.46)" d="M253.59 114.73v.08l-.07-.03z" transform="translate(-215.492 -97.521)"/></g></g></g><g id="b-3" transform="translate(351 568)"><g id="c-3"><path id="Path_5491" fill="rgba(0,0,0,0.46)" fill-rule="evenodd" d="M113.6 11.56a3 3 0 0 0-.66.08v.03h.03a5 5 0 0 0 .52.66l.37.78.03-.04a.9.9 0 0 0 .34-.8l-.2-.34c-.1-.16-.3-.24-.43-.37" transform="translate(-74.077 -7.585)"/><g id="Group_568"><path id="Path_5492" fill="rgba(0,0,0,0.46)" d="M13.9 78.55h-2.23q-.12-5.65-.65-10.62H11L7.6 78.55H5.9L2.53 67.93H2.5q-.38 4.78-.48 10.62H0q.2-7.1.99-13.33h2.76l3.22 9.8h.02l3.24-9.8h2.64q.87 7.29 1.03 13.33" transform="translate(0 -42.781)"/><path id="Path_5493" fill="rgba(0,0,0,0.46)" d="M51.8 75.38q-1.35 7.4-3.58 10.75-1.74 2.58-3.82 2.58a4 4 0 0 1-1.36-.33v-1.19a7 7 0 0 0 .93.06 2.3 2.3 0 0 0 1.56-.53 2 2 0 0 0 .7-1.46 10 10 0 0 0-.55-2.27l-2.45-7.6h2.2l1.75 5.68a8 8 0 0 1 .5 2.7 37 37 0 0 0 2-8.4z" transform="translate(-28.23 -49.445)"/><path id="Path_5494" fill="rgba(0,0,0,0.46)" d="M142.74 78.55h-6.34V65.22h2.13v11.69h4.2Z" transform="translate(-89.464 -42.781)"/><path id="Path_5495" fill="rgba(0,0,0,0.46)" fill-rule="evenodd" d="m110.62 78.49-2.45-1.2a5 5 0 0 0 .61-.6 8.2 8.2 0 0 0 1.56-5.44q0-6.61-5.19-6.61a5 5 0 0 0-3.97 1.67 8.2 8.2 0 0 0-1.56 5.41c0 2.38.46 4.06 1.38 5.16a4.7 4.7 0 0 0 3.82 1.48 6 6 0 0 0 1.74-.24l3.2 1.86zm-7.94-2.99a8 8 0 0 1-.81-4.18q0-5.04 3.06-5.04a2.6 2.6 0 0 1 2.35 1.2 8 8 0 0 1 .8 4.15q0 5.07-3.05 5.07a2.6 2.6 0 0 1-2.35-1.2" transform="translate(-65.34 -42.401)"/><path id="Path_5496" fill="rgba(0,0,0,0.46)" d="M80.97 74.52a3.5 3.5 0 0 1-1.24 2.78 5 5 0 0 1-3.34 1.08 6.7 6.7 0 0 1-3.79-1.24l.57-1.14a6.5 6.5 0 0 0 2.86.79 3 3 0 0 0 1.89-.53 1.8 1.8 0 0 0 .73-1.48c0-.8-.56-1.47-1.57-2.04-.94-.5-2.8-1.58-2.8-1.58a3.2 3.2 0 0 1-1.52-2.83 3.3 3.3 0 0 1 1.13-2.62 4.3 4.3 0 0 1 2.94-1 6 6 0 0 1 3.37.99l-.52 1.14a7 7 0 0 0-2.56-.55 2.3 2.3 0 0 0-1.58.5 1.7 1.7 0 0 0-.6 1.26q.02 1.2 1.6 2.06c.94.5 2.86 1.6 2.86 1.6a3.2 3.2 0 0 1 1.56 2.81" transform="translate(-47.618 -42.447)"/><path id="Path_5497" fill="rgba(0,0,0,0.46)" fill-rule="evenodd" d="M121.03 17.99a7.5 7.5 0 0 0-3.12.45c-.24.1-.63.1-.66.4.13.12.14.33.26.51a4 4 0 0 0 .83.98q.5.4 1.03.74c.63.4 1.34.62 1.95 1 .36.23.71.52 1.06.76.18.13.3.34.52.42v-.05c-.11-.14-.14-.35-.26-.52l-.48-.46a8 8 0 0 0-1.68-1.63c-.51-.35-1.64-.84-1.85-1.43l-.03-.03a6 6 0 0 0 1.11-.26c.55-.15 1.05-.12 1.61-.26l.78-.22v-.15c-.3-.29-.5-.68-.81-.95a22 22 0 0 0-2.66-1.98c-.5-.33-1.14-.53-1.67-.8-.2-.1-.52-.15-.63-.31a7 7 0 0 1-.66-1.24c-.47-.89-.92-1.87-1.32-2.8a17 17 0 0 0-.82-1.84 16 16 0 0 0-6.23-6.02 8 8 0 0 0-2.06-.66l-1.2-.07a6 6 0 0 1-.75-.56C102.37.43 100-.82 99.33.84c-.44 1.04.64 2.07 1.01 2.6a8 8 0 0 1 .82 1.21c.12.28.15.57.26.85a20 20 0 0 0 .83 2.16 8 8 0 0 0 .6 1c.14.18.36.26.4.55a5 5 0 0 0-.37 1.2 7 7 0 0 0 .47 5.42c.26.4.87 1.3 1.7.95.72-.29.56-1.2.77-2.01.05-.2.02-.32.11-.45v.03q.34.66.66 1.33a9 9 0 0 0 2.1 2.16c.39.3.7.79 1.18.97v-.05h-.04a2 2 0 0 0-.37-.32 8 8 0 0 1-.83-.97 21 21 0 0 1-1.8-2.93q-.39-.77-.7-1.54c-.1-.2-.1-.49-.25-.58a6 6 0 0 0-.78 1.1 9 9 0 0 0-.45 2.43c-.06.01-.03 0-.06.03-.52-.13-.7-.66-.89-1.11a7 7 0 0 1-.14-4.3c.11-.34.6-1.4.4-1.73-.1-.3-.42-.48-.6-.72a6 6 0 0 1-.58-1.03c-.38-.9-.58-1.9-1-2.8a9 9 0 0 0-.8-1.24 8 8 0 0 1-.9-1.26c-.07-.18-.19-.47-.06-.66a.3.3 0 0 1 .23-.21c.2-.17.8.05 1.01.15a8 8 0 0 1 1.6.8c.22.16.47.47.75.55h.34c.52.1 1.1.03 1.58.17a10 10 0 0 1 2.32 1.11 14.3 14.3 0 0 1 5.03 5.5c.19.38.27.72.45 1.1.33.8.75 1.6 1.09 2.37a11 11 0 0 0 1.15 2.16c.24.33 1.2.51 1.64.69a11 11 0 0 1 1.1.45q.83.53 1.62 1.1c.26.19 1.06.6 1.1.91" transform="translate(-65.082 -.01)"/><path id="Path_5498" fill="rgba(0,0,0,0.46)" d="M161.02 100.83h.33V99.2h-.5l-.4 1.12-.45-1.12h-.48v1.63h.31V99.6h.02l.47 1.24h.24l.46-1.24zm-2.69 0h.36v-1.35h.46v-.28h-1.3v.28h.48Z" transform="translate(-103.533 -65.068)"/></g></g></g><g id="Layer_2" transform="translate(350.99 536.99)"><g id="Layer_1" transform="translate(.01 .01)"><g id="Group_570" clip-path="url(#clip-path)"><path id="Path_5517" fill="#727272" d="M30.15 68.72c-1.67.88-10.35 4.44-12.22 5.42s-2.87.96-4.33.26-10.66-4.44-12.33-5.24Q0 68.57 0 68.1v-3.17s12.02-2.61 13.96-3.31 2.61-.72 4.26-.12 11.53 2.39 13.16 2.98v3.13c0 .32-.37.64-1.23 1.1Z" transform="translate(0 -47.985)"/><path id="Path_5518" fill="#898989" d="M30.14 56.17c-1.67.87-10.35 4.44-12.22 5.4s-2.87.96-4.33.26S2.93 57.39 1.26 56.6s-1.7-1.34-.06-1.98 10.8-4.24 12.75-4.94 2.61-.73 4.26-.12S28.5 53.6 30.12 54.2s1.7 1.09.02 1.96Z" transform="translate(.008 -38.596)"/><path id="Path_5519" fill="#727272" d="M30.15 44.6c-1.67.87-10.35 4.43-12.22 5.4s-2.86.95-4.32.25-10.67-4.42-12.34-5.22Q0 44.45 0 43.98v-3.16s12.02-2.62 13.96-3.32 2.61-.72 4.26-.1 11.53 2.37 13.16 2.97v3.13c0 .32-.37.64-1.23 1.1" transform="translate(0 -29.027)"/><path id="Path_5520" fill="#898989" d="M30.15 32.07c-1.68.88-10.35 4.44-12.22 5.4s-2.87.96-4.33.26S2.92 33.3 1.25 32.5s-1.7-1.34-.06-1.98 10.82-4.24 12.76-4.93 2.6-.73 4.25-.13 10.3 4.06 11.92 4.64 1.7 1.09.01 1.96Z" transform="translate(.005 -19.68)"/><path id="Path_5521" fill="#727272" d="M30.15 19.57c-1.67.88-10.35 4.44-12.22 5.4s-2.86.95-4.32.26S2.94 20.8 1.27 20Q0 19.43 0 18.96v-3.18s12.02-2.6 13.96-3.3 2.61-.73 4.26-.12 11.52 2.38 13.16 2.98v3.13c0 .33-.37.65-1.23 1.1" transform="translate(0 -9.369)"/><path id="Path_5522" fill="#898989" d="M30.14 7.02c-1.67.86-10.35 4.45-12.22 5.4s-2.87.95-4.33.25S2.93 8.25 1.26 7.45s-1.7-1.34-.06-1.98S12.01 1.23 13.95.53s2.61-.72 4.26-.11S28.5 4.46 30.12 5.05s1.7 1.1.02 1.96Z" transform="translate(.008 .013)"/></g><path id="Path_5523" fill="#fff" d="m61.46 8.62 2.07-.68-.56 1.34 2.1.8-2.7.28-.62 1.46-.98-1.63-3.14-.29 2.35-.84-.71-1.3z" transform="translate(-45.279 -6.099)"/><path id="Path_5524" fill="#fff" d="m57.52 39.9-5.08-2.11 7.27-1.12z" transform="translate(-41.202 -28.812)"/><path id="Path_5525" fill="#fff" d="M29.03 22.34c2.14 0 3.88.68 3.88 1.5s-1.74 1.5-3.88 1.5-3.89-.67-3.89-1.5 1.74-1.5 3.89-1.5" transform="translate(-19.751 -17.551)"/><path id="Path_5526" fill="#555" d="m107.39 20.42 4.3 1.7-4.3 1.7z" transform="translate(-84.373 -16.045)"/><path id="Path_5527" fill="#727272" d="M89.93 20.42v3.4l-.46.18-4.3-1.7z" transform="translate(-66.916 -16.045)"/><path id="Path_5528" fill="#898989" d="M184.3 36.7a4 4 0 0 1 1.34-.93 4 4 0 0 1 1.56-.34 1.4 1.4 0 0 1 1.07.34 1 1 0 0 1 .33.81 1.2 1.2 0 0 1-.33.81 1 1 0 0 1-.81.35 3.64 3.64 0 0 0-3.2 3.26v4.12a1.2 1.2 0 0 1-1.16 1.16 1 1 0 0 1-.83-.36 1.2 1.2 0 0 1-.34-.81v-8.57a1.2 1.2 0 0 1 .34-.82 1.5 1.5 0 0 1 .88-.29 1.2 1.2 0 0 1 1.16 1.16Z" transform="translate(-142.934 -27.83)"/><path id="Path_5529" fill="#898989" d="M220.6 40.06a1 1 0 0 1-.3.76 1.3 1.3 0 0 1-.8.35h-6.87a2.2 2.2 0 0 0 .75 1.4 3 3 0 0 0 2.03.98 3 3 0 0 0 2.26-.52 1.2 1.2 0 0 1 .88-.35 1 1 0 0 1 .75.3.95.95 0 0 1 .05 1.33l-.05.06a5.3 5.3 0 0 1-3.77 1.39 5 5 0 0 1-3.77-1.62 5.7 5.7 0 0 1-1.56-3.84 5.2 5.2 0 0 1 1.57-3.83 4.8 4.8 0 0 1 3.65-1.57 4.7 4.7 0 0 1 3.59 1.45 5.3 5.3 0 0 1 1.63 3.6v.1Zm-5.17-3.08a3 3 0 0 0-1.96.76 3 3 0 0 0-.93 1.5h6.1a2.7 2.7 0 0 0-1.05-1.45 3.7 3.7 0 0 0-2.14-.81" transform="translate(-165.14 -27.415)"/><path id="Path_5530" fill="#898989" d="M271.12 28.85a1.2 1.2 0 0 1-1.16 1.16 1.25 1.25 0 0 1-1.16-.93 5 5 0 0 1-2.97.93 5 5 0 0 1-3.71-1.57 5.2 5.2 0 0 1-1.51-3.83 5.5 5.5 0 0 1 1.51-3.83 5 5 0 0 1 3.72-1.63 4.8 4.8 0 0 1 2.9.93v-4.06a1 1 0 0 1 .34-.81 1.2 1.2 0 0 1 .83-.35 1 1 0 0 1 .8.35 1.2 1.2 0 0 1 .36.81v12.83Zm-5.22-1.17a2.6 2.6 0 0 0 2.03-.92 3.1 3.1 0 0 0 0-4.29 2.8 2.8 0 0 0-2.03-.94 2.5 2.5 0 0 0-2.03.93 3.1 3.1 0 0 0 0 4.29 2.7 2.7 0 0 0 2.03.93" transform="translate(-204.746 -11.673)"/><path id="Path_5531" fill="#898989" d="M317.13 16v.47a1.2 1.2 0 0 1-.36.89 1 1 0 0 1-.81.28 1 1 0 0 1-.81-.34 1.2 1.2 0 0 1-.35-.87V16a1.2 1.2 0 0 1 1.16-1.16 1 1 0 0 1 .81.35 1 1 0 0 1 .36.81m-1.96 3.55a1.1 1.1 0 0 1 .81-.35 1 1 0 0 1 .81.35 1.2 1.2 0 0 1 .34.85v8.5a1 1 0 0 1-.36.81 1.1 1.1 0 0 1-.81.35 1 1 0 0 1-.81-.35 1.1 1.1 0 0 1-.35-.81v-8.48a1.2 1.2 0 0 1 .35-.86" transform="translate(-247.321 -11.659)"/><path id="Path_5532" fill="#898989" d="M337.01 36.06a1 1 0 0 1 .47.7 1.5 1.5 0 0 1-.12.86 1.2 1.2 0 0 1-.7.47 1.2 1.2 0 0 1-.87-.18 4 4 0 0 0-1.97-.8 2 2 0 0 0-1.29.4q-.34.24-.34.4a.4.4 0 0 0 .05.29 1 1 0 0 0 .23.17 3.5 3.5 0 0 0 1.57.52 8 8 0 0 1 2.1.65 2.96 2.96 0 0 1 .52 5.22 4.7 4.7 0 0 1-2.8.87 6 6 0 0 1-3.82-1.5 1.2 1.2 0 0 1-.4-.76 1.12 1.12 0 0 1 1.8-.97 3.4 3.4 0 0 0 2.37.93 2.5 2.5 0 0 0 1.45-.41c.23-.23.4-.4.4-.58s0-.23-.05-.3c0-.05-.12-.16-.3-.22a4 4 0 0 0-1.73-.62 6 6 0 0 1-1.98-.64 3.6 3.6 0 0 1-1.39-1.21 3 3 0 0 1-.34-1.34 2.9 2.9 0 0 1 1.27-2.38 4.7 4.7 0 0 1 2.67-.81 7 7 0 0 1 3.19 1.22" transform="translate(-258.973 -27.356)"/></g></g></g></svg>