<svg xmlns="http://www.w3.org/2000/svg" xmlns:xlink="http://www.w3.org/1999/xlink" width="135.988" height="192.486" viewBox="0 0 135.988 192.486">
  <defs>
    <clipPath id="clip-path">
      <rect id="Rectangle_311" data-name="Rectangle 311" width="31.385" height="26.896" fill="none"/>
    </clipPath>
  </defs>
  <g id="dbaas-logos" transform="translate(-351 -494)">
    <g id="b" transform="translate(351 494)">
      <g id="c">
        <path id="Path_5437" data-name="Path 5437" d="M13.407,24.209a.621.621,0,0,0-.124-.093,2.23,2.23,0,0,1-1.305-1.333,8.861,8.861,0,0,1-.574-3.167c-.028-.715-.054-1.432-.082-2.209a3.542,3.542,0,0,1-2.461.7,5.767,5.767,0,0,1-1.252-.26A1.194,1.194,0,0,1,6.7,16.793c-.119.124-.22.234-.328.342a1.743,1.743,0,0,1-2.681.031,7.058,7.058,0,0,1-1.5-2.421A31.733,31.733,0,0,1,.075,6.852a7.389,7.389,0,0,1,.288-3.37A4.3,4.3,0,0,1,4.177.4,10.571,10.571,0,0,1,8.935,1,.642.642,0,0,0,9.528.942,5.171,5.171,0,0,1,12.924.3,9.81,9.81,0,0,0,15.757.111,7.637,7.637,0,0,1,21.9,1.535a3.541,3.541,0,0,1,1.534,3.294c-.062.616-.11,1.235-.232,1.839a22.554,22.554,0,0,1-2.981,7.4c-.068.113-.133.226-.212.364a4.372,4.372,0,0,0,1.9,0c.288-.042.579-.09.87-.11a.682.682,0,0,1,.684.35.719.719,0,0,1-.062.8,3.307,3.307,0,0,1-1.478,1.144,5.59,5.59,0,0,1-3.139.435c-.076-.011-.155-.014-.291-.025-.042.472-.1.935-.119,1.4a12.483,12.483,0,0,1-.477,3.161,3.391,3.391,0,0,1-2.678,2.483,3.314,3.314,0,0,0-.387.136H13.41Zm-1.836-7.6c0,.2-.006.316,0,.427.068,1.54.088,3.082.218,4.616a2.391,2.391,0,0,0,2.218,2.257,4.223,4.223,0,0,0,1.17-.119,2.864,2.864,0,0,0,2.483-2.5c.167-1.02.288-2.048.427-3.074.073-.554.136-1.107.206-1.678a4.647,4.647,0,0,0,2.249.085,3.975,3.975,0,0,0,2.415-1.237c.121-.136.124-.379.184-.571a1.862,1.862,0,0,0-.579-.155c-.661.045-1.319.161-1.98.195a1.278,1.278,0,0,1-1.014-.3c.684-1.356,1.4-2.644,1.995-3.983A15.749,15.749,0,0,0,23.041,4.7a2.813,2.813,0,0,0-.477-1.989A6.071,6.071,0,0,0,20.379.987,8.56,8.56,0,0,0,14.334.741a.954.954,0,0,1-.356.04C13.687.744,13.4.665,13.113.637a5.371,5.371,0,0,0-3.523.638.65.65,0,0,1-.624.059A10.708,10.708,0,0,0,4.488.679,4.026,4.026,0,0,0,.742,3.368,6.85,6.85,0,0,0,.434,6.894c.237,1.449.557,2.89.921,4.311A17.234,17.234,0,0,0,3.16,15.87a5.219,5.219,0,0,0,.78,1.011A1.389,1.389,0,0,0,6.149,16.8c.167-.184.316-.381.48-.568.565-.638,1.133-1.277,1.63-1.834l1.706.432c0,.042.023.17-.028.237-.288.384-.54.814-1.054.949-.412.107-.831.2-1.24.325-.257.076-.542.161-.554.5s.251.463.494.576a3.65,3.65,0,0,0,2.051.266,3.118,3.118,0,0,0,1.932-1.076ZM7.3,16.062c.726-.3,1.672-.071,2.164-.9-.325-.1-.63-.206-.938-.294a.233.233,0,0,0-.2.057C7.98,15.3,7.641,15.68,7.3,16.062Z" transform="translate(0.002 0.011)" fill="rgba(0,0,0,0.46)"/>
        <path id="Path_5438" data-name="Path 5438" d="M398.26,40.688c-.729-.5-1.43-.994-2.139-1.475a.435.435,0,0,0-.328-.082,9.046,9.046,0,0,1-3.628.706,10.034,10.034,0,0,1-4.726-.794,5.976,5.976,0,0,1-3.712-5.4,6.18,6.18,0,0,1,1.446-4.611,6.69,6.69,0,0,1,3.7-2.1,11.615,11.615,0,0,1,6.116.2,6.115,6.115,0,0,1,4.418,6.306,5.847,5.847,0,0,1-1.531,4.037c-.257.268-.548.5-.856.777l2.24,1.526-1,.915Zm-6.676-1.882h.339a7.269,7.269,0,0,0,2.859-.6,5.005,5.005,0,0,0,3.079-4.65,5.279,5.279,0,0,0-3.924-5.6,8.683,8.683,0,0,0-3.885-.192,5.275,5.275,0,0,0-4.783,5.1,5.251,5.251,0,0,0,3.1,5.3,7.022,7.022,0,0,0,3.221.641Z" transform="translate(-275.31 -19.09)" fill="rgba(0,0,0,0.46)"/>
        <path id="Path_5439" data-name="Path 5439" d="M349.831,30.537h-1.574c-.042-.266-.065-.523-.13-.771a2.418,2.418,0,0,0-1.8-1.757,8.633,8.633,0,0,0-5.068.028,2.024,2.024,0,0,0-1.382,2.517,1.618,1.618,0,0,0,1.136,1.237c.816.251,1.653.432,2.489.61,1.455.308,2.916.585,4.37.879a3.221,3.221,0,0,1,.353.116,2.671,2.671,0,0,1,2.023,2.365,3.106,3.106,0,0,1-1.591,3.28,6.7,6.7,0,0,1-2.749.763,13.672,13.672,0,0,1-5.1-.364,6.632,6.632,0,0,1-.76-.283,3.66,3.66,0,0,1-2.243-3.7h1.574c.037.257.059.534.116.8a2.886,2.886,0,0,0,1.983,2.161,9.062,9.062,0,0,0,3.6.4,5.97,5.97,0,0,0,2.3-.48A2.19,2.19,0,0,0,348.625,36a1.818,1.818,0,0,0-1.509-1.689c-1.294-.3-2.61-.5-3.913-.763-.938-.189-1.882-.364-2.805-.619a2.775,2.775,0,0,1-2.1-3.421,2.819,2.819,0,0,1,2.189-2.4,12.439,12.439,0,0,1,4.122-.421,9.08,9.08,0,0,1,2.76.452,3.322,3.322,0,0,1,2.464,3.39Z" transform="translate(-242.374 -19.14)" fill="rgba(0,0,0,0.46)"/>
        <path id="Path_5440" data-name="Path 5440" d="M246.12,42.442v7.783a3.344,3.344,0,0,1-2.975,3.721,10.827,10.827,0,0,1-4.834-.093,2.674,2.674,0,0,1-2.153-2.415h1.311a2.339,2.339,0,0,0,2.387,1.834,9.42,9.42,0,0,0,2.76-.093,2.5,2.5,0,0,0,2.164-2.3,15.134,15.134,0,0,0,.011-1.828c-1.365,1.449-3.108,1.6-4.91,1.444A7.049,7.049,0,0,1,237.893,50a3.373,3.373,0,0,1-2.144-3.029,6.027,6.027,0,0,1,.09-1.774,3.493,3.493,0,0,1,2.545-2.681,7.889,7.889,0,0,1,4.308-.13,3.839,3.839,0,0,1,1.831,1.155c.071.071.147.138.268.254v-1.35h1.325Zm-5.136.571-.008.045c-.249.014-.494.02-.743.045a3.178,3.178,0,0,0-3.175,3.464,2.808,2.808,0,0,0,2.308,2.882,8.3,8.3,0,0,0,2.209.186,3.128,3.128,0,0,0,3.218-2.819,3.033,3.033,0,0,0-2.218-3.537,13.572,13.572,0,0,0-1.593-.26Z" transform="translate(-169.126 -30.24)" fill="rgba(0,0,0,0.46)"/>
        <path id="Path_5441" data-name="Path 5441" d="M100.35,27.82a.488.488,0,0,1,.1-.028c2.642-.006,5.283-.04,7.924,0a3.493,3.493,0,0,1,2.865,1.365A3.575,3.575,0,0,1,109.2,34.8a7.271,7.271,0,0,1-1.639.206c-1.794.025-3.591.008-5.385.008h-.3v5.323H100.35Zm1.534,1.034V34c.059.006.1.011.147.011,1.805,0,3.613.008,5.419-.006a4.861,4.861,0,0,0,1.1-.153,2.289,2.289,0,0,0,1.475-.994,2.552,2.552,0,0,0-1.9-3.975c-2.068-.121-4.147-.028-6.246-.028Z" transform="translate(-71.999 -19.924)" fill="rgba(0,0,0,0.46)"/>
        <path id="Path_5442" data-name="Path 5442" d="M307.03,46.751h-9.114a2.894,2.894,0,0,0,1.746,2.853,5.373,5.373,0,0,0,4.147.1,2.741,2.741,0,0,0,1.633-1.757h1.407a3.53,3.53,0,0,1-1.808,2.257,6.567,6.567,0,0,1-3.235.7,6.872,6.872,0,0,1-2.675-.489,4.309,4.309,0,0,1-1.562-6.817,3.959,3.959,0,0,1,1.845-1.144,7.929,7.929,0,0,1,4.766,0,4.1,4.1,0,0,1,2.853,4.286Zm-1.376-.788a2.573,2.573,0,0,0-.766-1.791,4.66,4.66,0,0,0-5.9-.356,3.406,3.406,0,0,0-1.1,2.147Z" transform="translate(-212.727 -30.201)" fill="rgba(0,0,0,0.46)"/>
        <path id="Path_5443" data-name="Path 5443" d="M188.772,44.894h-1.317c-.195-1.192-.7-1.661-2.088-1.853a7.193,7.193,0,0,0-2.757.116,2.618,2.618,0,0,0-.8.345,1.1,1.1,0,0,0,.17,1.989,6.7,6.7,0,0,0,1.54.353c1.17.175,2.348.3,3.517.475a3.6,3.6,0,0,1,.9.28,1.812,1.812,0,0,1,1.223,1.562,2.021,2.021,0,0,1-.848,1.944,4.291,4.291,0,0,1-2.057.706,11.787,11.787,0,0,1-4.6-.229,2.547,2.547,0,0,1-2.006-2.486h1.387s.023.011.023.028a1.726,1.726,0,0,0,1.413,1.712,7.748,7.748,0,0,0,4.209-.014A1.319,1.319,0,0,0,186.5,47.2c-1.184-.17-2.37-.311-3.554-.48-.48-.068-.958-.155-1.427-.266a1.824,1.824,0,0,1-1.545-1.61,1.958,1.958,0,0,1,1.3-2.232,11.482,11.482,0,0,1,2.379-.449,8.066,8.066,0,0,1,3.28.305,2.391,2.391,0,0,1,1.836,2.062c.008.068.011.136.014.2,0,.042-.006.085-.011.153Z" transform="translate(-128.896 -30.217)" fill="rgba(0,0,0,0.46)"/>
        <path id="Path_5444" data-name="Path 5444" d="M145.1,50.97a16.08,16.08,0,0,1-1.873-.283,3.957,3.957,0,0,1-3.125-3.7,4.023,4.023,0,0,1,2.02-4.144,5.4,5.4,0,0,1,2.283-.67,8.234,8.234,0,0,1,3.379.311,3.845,3.845,0,0,1,2.839,3.492,4.178,4.178,0,0,1-1.189,3.681,4.958,4.958,0,0,1-2.851,1.2c-.424.054-.853.068-1.486.119Zm.034-.873c.548-.054.935-.062,1.311-.13a3.029,3.029,0,0,0,2.735-2.308,5.885,5.885,0,0,0,.1-1.74,2.845,2.845,0,0,0-2.187-2.653,6.143,6.143,0,0,0-2.746-.164,3.354,3.354,0,0,0-2.845,4.238,2.958,2.958,0,0,0,2.11,2.452,10.812,10.812,0,0,0,1.528.3Z" transform="translate(-100.506 -30.222)" fill="rgba(0,0,0,0.46)"/>
        <path id="Path_5445" data-name="Path 5445" d="M442.94,27.81h1.486V39.294h9.365v1.071H442.943V27.81Z" transform="translate(-317.803 -19.95)" fill="rgba(0,0,0,0.46)"/>
        <path id="Path_5446" data-name="Path 5446" d="M217.512,36.3h2.221v.873h-2.215v5.421c0,.833.246,1.122,1.079,1.2.367.034.737.006,1.133.006v.783a4.794,4.794,0,0,1-2.653-.167,1.41,1.41,0,0,1-.856-1.475c-.006-1.791,0-3.582,0-5.373v-.39H214.56v-.85H216.2v-2.7h1.319V36.3Z" transform="translate(-153.944 -24.119)" fill="rgba(0,0,0,0.46)"/>
        <path id="Path_5447" data-name="Path 5447" d="M278.877,43.851c.076-.09.1-.11.116-.138a2.341,2.341,0,0,1,2.023-1.52c.689-.076,1.387-.09,2.1-.133v1.09c-.525,0-1.054-.042-1.571.008a2.61,2.61,0,0,0-2.591,2.608c-.085,1.13-.051,2.271-.065,3.407-.006.46,0,.924,0,1.41H277.62v-8.2h1.257v1.469Z" transform="translate(-199.188 -30.174)" fill="rgba(0,0,0,0.46)"/>
        <path id="Path_5448" data-name="Path 5448" d="M12.427,17.431a3.118,3.118,0,0,1-1.932,1.076,3.65,3.65,0,0,1-2.051-.266c-.243-.11-.509-.246-.494-.576s.3-.427.554-.5c.41-.121.825-.215,1.24-.325.514-.136.766-.568,1.054-.949.051-.068.023-.192.028-.237l-1.706-.432c-.494.557-1.065,1.2-1.63,1.834-.164.186-.314.384-.48.568A1.389,1.389,0,0,1,4.8,17.7a5.423,5.423,0,0,1-.78-1.011,17.234,17.234,0,0,1-1.805-4.664C1.85,10.6,1.534,9.159,1.293,7.712A6.85,6.85,0,0,1,1.6,4.186,4.022,4.022,0,0,1,5.348,1.5a10.708,10.708,0,0,1,4.478.655.65.65,0,0,0,.624-.059,5.388,5.388,0,0,1,3.523-.638c.291.028.576.107.864.144a.954.954,0,0,0,.356-.04,8.576,8.576,0,0,1,6.046.246,6.071,6.071,0,0,1,2.184,1.723A2.8,2.8,0,0,1,23.9,5.517a15.8,15.8,0,0,1-1.48,5.876c-.593,1.342-1.311,2.627-1.995,3.983a1.288,1.288,0,0,0,1.014.3c.661-.034,1.319-.15,1.98-.195a1.807,1.807,0,0,1,.579.155c-.059.192-.062.435-.184.571A3.975,3.975,0,0,1,21.4,17.447a4.613,4.613,0,0,1-2.249-.085c-.071.571-.133,1.127-.206,1.678-.136,1.026-.26,2.054-.427,3.074a2.861,2.861,0,0,1-2.483,2.5,4.223,4.223,0,0,1-1.17.119,2.391,2.391,0,0,1-2.218-2.257c-.133-1.534-.153-3.077-.218-4.616-.006-.113,0-.226,0-.427Zm.362,3.13.113,1.314a4.207,4.207,0,0,0,.085.732c.263.918.8,1.7,1.723,1.774,1.362.11,3.221-.342,3.483-2.365.237-1.839.455-3.684.67-5.526a1.15,1.15,0,0,1,.842-1.1,1.523,1.523,0,0,0,.209-.085c-.557-.977-1.113-1.927-1.639-2.89a9.751,9.751,0,0,1-1.206-3.133A1.761,1.761,0,0,1,18.911,7.04c.39-.014.78,0,1.184,0-.017-.068-.034-.144-.057-.218a7.411,7.411,0,0,0-6.854-5.085,4.353,4.353,0,0,0-2.972.927C8.582,4.022,8.187,5.9,7.995,7.932c.144-.073.232-.116.319-.164a4.794,4.794,0,0,1,2.017-.622,1.633,1.633,0,0,1,1.822,1.268,7.528,7.528,0,0,1-.429,5.4,13.635,13.635,0,0,0-.607,1.675,1.216,1.216,0,0,1,1.658,1.254v1.585l.017,2.238ZM9.845,2.5a11.034,11.034,0,0,0-4.659-.661,3.732,3.732,0,0,0-3.4,2.879,6.571,6.571,0,0,0-.209,2.577A29.967,29.967,0,0,0,3.8,15.572a5.465,5.465,0,0,0,1.246,1.913,1.018,1.018,0,0,0,1.627-.02c.751-.808,1.461-1.653,2.212-2.514-.121-.11-.254-.215-.37-.336a3.544,3.544,0,0,1-.946-2.822,21.542,21.542,0,0,0,.1-2.56A10.594,10.594,0,0,1,8.43,4.477,5.7,5.7,0,0,1,9.842,2.5Zm5.766-.72a1.061,1.061,0,0,0,.141.093A7.673,7.673,0,0,1,19.4,4.825a4.593,4.593,0,0,1,.972,3.825,6.742,6.742,0,0,0-.02,2.585,4.442,4.442,0,0,1-.523,3.235l.4.5c.5-.938,1.009-1.794,1.432-2.684a17.639,17.639,0,0,0,1.913-6.738,2.283,2.283,0,0,0-.48-1.873,8.7,8.7,0,0,0-1.624-1.353,7.724,7.724,0,0,0-5.854-.542ZM10.825,15.218c.22-.582.387-1.161.653-1.692a7.141,7.141,0,0,0,.328-5.074A1.171,1.171,0,0,0,10.673,7.5a3.941,3.941,0,0,0-2.528.788c-.088.059-.119.251-.124.381-.025.921-.008,1.845-.065,2.766a4.754,4.754,0,0,0,.073,1.672,2.816,2.816,0,0,0,2.794,2.1Zm8.741-1.071c.062-.045.088-.054.1-.071a1.5,1.5,0,0,0,.082-.147,3.879,3.879,0,0,0,.314-2.243A9.535,9.535,0,0,1,20.027,8.6c.057-.274.068-.559.107-.836.031-.234-.042-.37-.3-.367-.373,0-.746-.028-1.116.006A1.3,1.3,0,0,0,17.4,8.531a2.845,2.845,0,0,0,.028.805c.319,1.769,1.384,3.207,2.139,4.811ZM8.274,17.6v.127a2.762,2.762,0,0,0,.325.223,3.017,3.017,0,0,0,3.656-.85.835.835,0,0,0-.172-1.2c-.356-.283-.638-.226-1,.206a.98.98,0,0,0-.085.1A2.474,2.474,0,0,1,9.159,17.34,7.169,7.169,0,0,0,8.274,17.6Zm15.473-1.831c-.641.088-1.184.172-1.729.232a2.407,2.407,0,0,1-1.579-.22.752.752,0,0,0-.867.045.965.965,0,0,0-.362,1.048c.1.316.4.285.647.311A5.173,5.173,0,0,0,22,16.967a3.409,3.409,0,0,0,1.752-1.2Z" transform="translate(-0.855 -0.807)" fill="#fff"/>
        <path id="Path_5449" data-name="Path 5449" d="M30.04,19.856c0-.528,0-1.057,0-1.585a1.214,1.214,0,0,0-1.658-1.254,12.915,12.915,0,0,1,.607-1.675,7.542,7.542,0,0,0,.429-5.4A1.631,1.631,0,0,0,27.6,8.677a4.876,4.876,0,0,0-2.017.622c-.085.048-.172.09-.319.164.192-2.028.588-3.913,2.218-5.269a4.353,4.353,0,0,1,2.972-.927A7.413,7.413,0,0,1,37.3,8.352c.023.073.04.15.056.218-.4,0-.794-.011-1.184,0a1.76,1.76,0,0,0-1.842,2.243,9.816,9.816,0,0,0,1.206,3.133c.525.963,1.082,1.91,1.639,2.89a1.524,1.524,0,0,1-.209.085,1.15,1.15,0,0,0-.842,1.1c-.215,1.842-.432,3.687-.67,5.526-.26,2.023-2.122,2.475-3.483,2.365-.921-.073-1.458-.856-1.723-1.774a4.428,4.428,0,0,1-.085-.732V22.1c0-.283.02-.565,0-.845-.031-.466-.088-.932-.133-1.4Z" transform="translate(-18.123 -2.34)" fill="rgba(0,0,0,0.46)"/>
        <path id="Path_5450" data-name="Path 5450" d="M10.7,4.184a5.7,5.7,0,0,0-1.413,1.98,10.594,10.594,0,0,0-.754,4.755,21.542,21.542,0,0,1-.1,2.56A3.541,3.541,0,0,0,9.383,16.3c.116.121.249.226.37.336C9,17.5,8.289,18.343,7.541,19.151a1.018,1.018,0,0,1-1.627.02,5.505,5.505,0,0,1-1.246-1.913A29.967,29.967,0,0,1,2.439,8.981,6.518,6.518,0,0,1,2.648,6.4a3.725,3.725,0,0,1,3.4-2.882A10.946,10.946,0,0,1,10.7,4.184Z" transform="translate(-1.715 -2.491)" fill="rgba(0,0,0,0.46)"/>
        <path id="Path_5451" data-name="Path 5451" d="M52.223,2.615a7.711,7.711,0,0,1,5.854.542A8.6,8.6,0,0,1,59.7,4.511a2.285,2.285,0,0,1,.48,1.873,17.589,17.589,0,0,1-1.913,6.738c-.424.893-.929,1.746-1.432,2.684l-.4-.5a4.442,4.442,0,0,0,.523-3.235,6.8,6.8,0,0,1,.02-2.585,4.593,4.593,0,0,0-.972-3.825,7.673,7.673,0,0,0-3.647-2.952,1.3,1.3,0,0,1-.141-.093Z" transform="translate(-37.467 -1.643)" fill="rgba(0,0,0,0.46)"/>
        <path id="Path_5452" data-name="Path 5452" d="M27.9,31.379a2.819,2.819,0,0,1-2.794-2.1,4.624,4.624,0,0,1-.073-1.672c.057-.921.04-1.845.065-2.766,0-.133.034-.322.124-.381a3.93,3.93,0,0,1,2.528-.788,1.171,1.171,0,0,1,1.133.952,7.141,7.141,0,0,1-.328,5.074,17.551,17.551,0,0,0-.653,1.692Zm-.189-7.213c-.525,0-.74.2-.624.5a.761.761,0,0,0,1.24.232c.189-.2.172-.432-.076-.551a3.4,3.4,0,0,0-.54-.175Z" transform="translate(-17.929 -16.971)" fill="rgba(0,0,0,0.46)"/>
        <path id="Path_5453" data-name="Path 5453" d="M60.676,30.02c-.754-1.6-1.819-3.043-2.139-4.811a2.852,2.852,0,0,1-.028-.805,1.3,1.3,0,0,1,1.317-1.133c.37-.034.743,0,1.116-.006.257,0,.331.136.3.367-.04.28-.051.562-.107.836a9.534,9.534,0,0,0,.034,3.091,3.885,3.885,0,0,1-.314,2.243,1.5,1.5,0,0,1-.082.147c-.011.017-.034.025-.1.071ZM60,23.582l-.048.065a2.708,2.708,0,0,0-.3.037c-.412.085-.607.266-.548.5a.7.7,0,0,0,.768.407.656.656,0,0,0,.353-.175c.119-.147.283-.367.24-.5-.048-.147-.3-.229-.463-.336Z" transform="translate(-41.967 -16.683)" fill="rgba(0,0,0,0.46)"/>
        <path id="Path_5454" data-name="Path 5454" d="M26.25,54.675a6.2,6.2,0,0,1,.884-.26,2.479,2.479,0,0,0,1.836-1.124.98.98,0,0,1,.085-.1c.364-.429.65-.489,1-.206a.835.835,0,0,1,.172,1.2,3.017,3.017,0,0,1-3.656.85,2.763,2.763,0,0,1-.325-.223Z" transform="translate(-18.834 -37.885)" fill="rgba(0,0,0,0.46)"/>
        <path id="Path_5455" data-name="Path 5455" d="M69.4,52.657a3.386,3.386,0,0,1-1.752,1.2,5.215,5.215,0,0,1-2.139.218c-.246-.025-.548,0-.647-.311a.965.965,0,0,1,.362-1.048.752.752,0,0,1,.867-.045,2.39,2.39,0,0,0,1.579.22c.545-.059,1.088-.144,1.729-.232Z" transform="translate(-46.515 -37.698)" fill="rgba(0,0,0,0.46)"/>
        <path id="Path_5456" data-name="Path 5456" d="M42.18,61.99c.045.466.1.929.133,1.4.02.28,0,.562,0,.845-.04,0-.076,0-.116,0Z" transform="translate(-30.263 -44.474)" fill="rgba(0,0,0,0.46)"/>
        <path id="Path_5457" data-name="Path 5457" d="M42.24,69.9c.04,0,.076,0,.116,0v1.308c-.037-.438-.076-.876-.113-1.314Z" transform="translate(-30.306 -50.149)" fill="rgba(0,0,0,0.46)"/>
        <path id="Path_5458" data-name="Path 5458" d="M32.959,25.453a3.307,3.307,0,0,1,.54.175c.249.121.266.347.076.551a.761.761,0,0,1-1.24-.232c-.113-.291.1-.494.624-.5Z" transform="translate(-23.178 -18.257)" fill="#fff"/>
        <path id="Path_5459" data-name="Path 5459" d="M61.532,24.4c.164.11.415.189.463.336.042.13-.121.35-.24.5a.656.656,0,0,1-.353.175A.7.7,0,0,1,60.633,25c-.059-.237.136-.418.548-.5.1-.02.2-.023.3-.037l.048-.065Z" transform="translate(-43.496 -17.504)" fill="#fff"/>
      </g>
    </g>
    <g id="https___mariadb.com_wp-content_uploads_2019_11_mariadb-horizontal-black" transform="translate(351 661)">
      <path id="Path_5460" data-name="Path 5460" d="M297.9,68.81l2.413,9.316H298.49l-1.613-6.71-3.019,6.71h-1.531l-3.006-6.671-1.652,6.671h-1.78l2.387-9.316h1.574l3.251,7.213,3.239-7.213Z" transform="translate(-248.642 -60.125)" fill="rgba(0,0,0,0.46)"/>
      <path id="Path_5461" data-name="Path 5461" d="M406.828,88.169V87.085h1.755v6.8h-1.755v-1.1a2.888,2.888,0,0,1-2.58,1.239,3.56,3.56,0,0,1-3.778-3.677,3.3,3.3,0,0,1,3.518-3.42A3.238,3.238,0,0,1,406.828,88.169Zm-4.49,2.271a2.185,2.185,0,0,0,2.309,2.323,2.16,2.16,0,0,0,2.271-2.284,2.2,2.2,0,0,0-2.345-2.3A2.131,2.131,0,0,0,402.338,90.44Z" transform="translate(-348.294 -75.884)" fill="rgba(0,0,0,0.46)"/>
      <path id="Path_5462" data-name="Path 5462" d="M481.415,93.883H479.66v-6.8h1.755v1.523a2.7,2.7,0,0,1,2.451-1.678,3.153,3.153,0,0,1,1.1.181l-.374,1.29a3.865,3.865,0,0,0-.929-.13,2.228,2.228,0,0,0-2.245,2.361Z" transform="translate(-417.167 -75.882)" fill="rgba(0,0,0,0.46)"/>
      <path id="Path_5463" data-name="Path 5463" d="M527.087,68.263a.892.892,0,0,1,.942-.912.925.925,0,0,1,.955.942.887.887,0,0,1-.955.9.9.9,0,0,1-.942-.933Zm.077,1.793h1.755v4.968c0,.31.065.529.323.529a1.873,1.873,0,0,0,.335-.039l.271,1.278a3.116,3.116,0,0,1-1.161.206c-.736,0-1.523-.219-1.523-1.884Z" transform="translate(-458.414 -58.854)" fill="rgba(0,0,0,0.46)"/>
      <path id="Path_5464" data-name="Path 5464" d="M558.909,88.169V87.085h1.754v6.8h-1.754v-1.1a2.891,2.891,0,0,1-2.581,1.239,3.56,3.56,0,0,1-3.778-3.677,3.3,3.3,0,0,1,3.518-3.42A3.242,3.242,0,0,1,558.909,88.169Zm-4.491,2.271a2.186,2.186,0,0,0,2.31,2.323A2.16,2.16,0,0,0,559,90.479a2.2,2.2,0,0,0-2.345-2.3A2.132,2.132,0,0,0,554.418,90.44Z" transform="translate(-480.56 -75.884)" fill="rgba(0,0,0,0.46)"/>
      <path id="Path_5465" data-name="Path 5465" d="M635.51,68.81h4.207c3.535,0,5.3,1.954,5.277,4.658.026,2.813-1.923,4.658-4.968,4.658H635.51Zm1.161.826v7.677h3.2a3.839,3.839,0,1,0,0-7.677Z" transform="translate(-552.711 -60.125)" fill="rgba(0,0,0,0.46)"/>
      <path id="Path_5466" data-name="Path 5466" d="M727.692,78.126H722.35V68.81h4.813c1.845,0,3.6.349,3.574,2.413a1.867,1.867,0,0,1-1.858,2.013,2.2,2.2,0,0,1,2.168,2.374C731.058,77.694,729.227,78.126,727.692,78.126Zm-.4-5.252c1.845,0,2.258-.71,2.258-1.613,0-1.355-.826-1.665-2.258-1.665H723.46v3.278Zm.051.782H723.46v3.677h4.056c1.136,0,2.336-.374,2.336-1.806-.005-1.646-1.386-1.864-2.509-1.864Z" transform="translate(-628.237 -60.125)" fill="rgba(0,0,0,0.46)"/>
      <path id="Path_5467" data-name="Path 5467" d="M38.982,2.278a.568.568,0,0,0-.38-.13,2.976,2.976,0,0,0-1.128.391l-.106.053a3.6,3.6,0,0,1-1.408.362c-.5.016-.937.046-1.5.1-3.343.344-4.827,2.9-6.262,5.377a17.422,17.422,0,0,1-2.693,3.815,7.155,7.155,0,0,1-.728.618,15.7,15.7,0,0,1-3.7,1.885c-1.076.412-2.251.782-3.387,1.139-1.042.328-2.021.637-2.924.972-.408.152-.754.261-1.059.369A7.857,7.857,0,0,0,11.422,18.3c-.337.231-.676.482-.912.67A9.571,9.571,0,0,0,8.7,20.87a11.229,11.229,0,0,1-1.511,1.824,1.4,1.4,0,0,1-.993.261,12.92,12.92,0,0,1-1.991-.241,13.682,13.682,0,0,0-2.2-.261,2.5,2.5,0,0,0-1.269.268,2.328,2.328,0,0,0-.741.7l.216.1a4.531,4.531,0,0,1,.925.662,4.56,4.56,0,0,0,.96.683.857.857,0,0,1,.3.2c-.091.13-.225.3-.365.489C1.261,26.557.812,27.2,1.07,27.542a.8.8,0,0,0,.391.091,7.442,7.442,0,0,0,3.725-.99c.335-.151.677-.317,1.068-.486A16.282,16.282,0,0,0,8.4,24.917a13.905,13.905,0,0,1,3.06-1.642,8.3,8.3,0,0,1,2.568-.362,26.423,26.423,0,0,1,3.277.283c.809.1,1.646.211,2.466.261.319.018.615.027.9.027a10.375,10.375,0,0,0,1.15-.06l.091-.033a3.4,3.4,0,0,0,1.107-1.847,4.324,4.324,0,0,1,.528-1.173.349.349,0,0,1,.044-.035.053.053,0,0,1,.065.01v.021a11.018,11.018,0,0,1-2.46,6.316l-.782.838a6.113,6.113,0,0,0,1.715-.24,8.552,8.552,0,0,0,5.231-4.56,19.327,19.327,0,0,0,.823-1.881c.021-.053.219-.152.2.13,0,.082-.012.173-.018.261h0c0,.056-.008.113-.01.171-.033.4-.13,1.248-.13,1.248l.7-.377c1.694-1.071,3-3.222,3.982-6.576.412-1.4.713-2.783.978-4.008A13.376,13.376,0,0,1,34.8,8.475a6.744,6.744,0,0,1,1.971-1.788l.3-.207a4.055,4.055,0,0,0,2.025-2.765v-.03C39.245,2.661,39.121,2.4,38.982,2.278Z" transform="translate(0 -2.148)" fill="rgba(0,0,0,0.46)"/>
    </g>
    <g id="b-2" data-name="b" transform="translate(351 623)">
      <g id="c-2" data-name="c" transform="translate(0)">
        <g id="Group_567" data-name="Group 567" transform="translate(0)">
          <path id="Path_5468" data-name="Path 5468" d="M351.564,24.785a32.108,32.108,0,0,1-3.166-1.131,11.875,11.875,0,0,1-6.858-8.529,11.966,11.966,0,0,1,3.424-11.608A11.746,11.746,0,0,1,353.427,0a1.394,1.394,0,0,1,.229.055,16.367,16.367,0,0,1-.024,1.648c-.012.123-.33.3-.514.309a9.744,9.744,0,0,0-5.059,1.629,10.145,10.145,0,0,0-4.746,9.745,10.35,10.35,0,0,0,7.758,9.1,11.922,11.922,0,0,0,2.109.277c.363.027.493.145.486.505-.01.5.021,1.008.036,1.512Z" transform="translate(-290.028)" fill="rgba(0,0,0,0.46)"/>
          <path id="Path_5469" data-name="Path 5469" d="M-.008,52a13.381,13.381,0,0,1,.991-2.164A5.177,5.177,0,0,1,9.3,49.628l-.868.748c-.3-.259-.6-.567-.94-.817a3.867,3.867,0,0,0-4.521-.018,4.113,4.113,0,0,0,2.1,7.431A3.336,3.336,0,0,0,8.4,54.029H4.88a1.839,1.839,0,0,1,1.687-1.194H9.8a4.661,4.661,0,0,1-3.849,5.239A5.064,5.064,0,0,1,.188,54.36a3.667,3.667,0,0,0-.2-.445V52Z" transform="translate(0.01 -40.493)" fill="rgba(0,0,0,0.46)"/>
          <path id="Path_5470" data-name="Path 5470" d="M838.951,58.757a.177.177,0,0,0-.055-.007,1.981,1.981,0,0,1-2.263-1.24,31.1,31.1,0,0,0-1.888-2.721,1.922,1.922,0,0,0-.544-.36l-.153.124v4.158H832.81V48.57a31.877,31.877,0,0,1,3.342.246,2.58,2.58,0,0,1,2.133,2.6,2.748,2.748,0,0,1-1.995,2.848c-.105.031-.208.067-.375.121l3.036,4.143Zm-4.918-9.1c0,1.284-.01,2.365.015,3.447,0,.114.22.331.318.319a9.183,9.183,0,0,0,1.8-.318,1.456,1.456,0,0,0,.94-1.518,1.426,1.426,0,0,0-.973-1.489,21.263,21.263,0,0,0-2.1-.441Z" transform="translate(-707.893 -41.285)" fill="rgba(0,0,0,0.46)"/>
          <path id="Path_5471" data-name="Path 5471" d="M384.005,32.2a6.836,6.836,0,0,0-3.306-2.343,6.214,6.214,0,0,0-6.417,1.869,6.532,6.532,0,0,0,2.347,10.24,5.369,5.369,0,0,0,7.242-3.36,5.369,5.369,0,0,0,.094-.835h-5.322c.649-.667,1.171-1.212,1.705-1.746a.4.4,0,0,1,.262-.081c1.833,0,3.667,0,5.544,0a7.8,7.8,0,0,1-1.1,4.861,7.279,7.279,0,0,1-7.506,3.354,7.875,7.875,0,0,1-6.6-6.148,8.252,8.252,0,0,1,14.1-7.554c.241.243.316.424.018.685-.279.243-.511.538-.768.807-.075.079-.167.142-.3.255Z" transform="translate(-315.084 -23.593)" fill="rgba(0,0,0,0.46)"/>
          <path id="Path_5472" data-name="Path 5472" d="M218.442,58.6c-.543.01-1.086.047-1.626.015a.749.749,0,0,1-.457-.327c-.847-1.189-1.671-2.4-2.523-3.585a3.13,3.13,0,0,0-.688-.49V58.6H211.86V48.45a32.831,32.831,0,0,1,3.46.3,2.592,2.592,0,0,1,2.062,2.664,2.8,2.8,0,0,1-1.881,2.724c-.138.048-.279.094-.484.163.67.927,1.306,1.822,1.959,2.7.363.492.756.961,1.134,1.441l.072.031v-.082l0-.006.262.217Zm-5.271-5.259a12.609,12.609,0,0,0,1.678-.2,1.686,1.686,0,0,0,.916-2.761,3.282,3.282,0,0,0-2.595-.69v3.655Z" transform="translate(-180.081 -41.183)" fill="rgba(0,0,0,0.46)"/>
          <path id="Path_5473" data-name="Path 5473" d="M61.411,56.606c1.612-3.519,3.189-6.963,4.83-10.546L71.074,56.6a9.2,9.2,0,0,1-1.155-.015.622.622,0,0,1-.379-.324c-.3-.6-.534-1.237-.852-1.828a.8.8,0,0,0-.574-.367c-1.254-.033-2.508-.006-3.762-.026a.528.528,0,0,0-.573.4c-.229.552-.531,1.075-.736,1.635a.684.684,0,0,1-.829.54,6.33,6.33,0,0,0-.8-.006ZM66.24,48.88c-.615,1.4-1.173,2.682-1.746,3.991h3.5c-.585-1.33-1.143-2.6-1.753-3.991Z" transform="translate(-52.197 -39.151)" fill="rgba(0,0,0,0.46)"/>
          <path id="Path_5474" data-name="Path 5474" d="M254.252,56.573l-.263-.217c.678-1.518,1.35-3.037,2.035-4.551.847-1.87,1.707-3.735,2.626-5.745l4.789,10.453c-.071.046-.1.081-.128.082-1.2.058-1.29.088-1.659-1.032a1.89,1.89,0,0,0-2.35-1.536c-.825.121-1.683,0-2.523.04a.832.832,0,0,0-.573.367c-.261.45-.444.946-.661,1.422a1.174,1.174,0,0,1-1.293.715Zm6.157-3.693c-.594-1.35-1.149-2.613-1.758-4l-1.752,4Z" transform="translate(-215.892 -39.151)" fill="rgba(0,0,0,0.46)"/>
          <path id="Path_5475" data-name="Path 5475" d="M170.7,58.052v1.132a1.57,1.57,0,0,1-.321.07c-1.555,0-3.111,0-4.666.007-.292,0-.453-.058-.451-.4.009-3.168.008-6.334.012-9.5a.722.722,0,0,1,.057-.183h5.35v1.131h-4.063V53.1h3.948v1.206H166.6v3.747h4.1Z" transform="translate(-140.471 -41.803)" fill="rgba(0,0,0,0.46)"/>
          <path id="Path_5476" data-name="Path 5476" d="M787.7,58.138h4.048v1.155H786.39V49.27h5.337a.456.456,0,0,1,.056.114c.119,1.033.115,1.038-.906,1.038H787.7v2.737h3.945V54.38H787.7Z" transform="translate(-668.436 -41.88)" fill="rgba(0,0,0,0.46)"/>
          <path id="Path_5477" data-name="Path 5477" d="M643.4,49.18h1.2a3.946,3.946,0,0,1,.045.421c0,2.041.009,4.083,0,6.124a3.52,3.52,0,0,1-3.246,3.7,3.485,3.485,0,0,1-4.059-3.232c-.094-2.316-.023-4.638-.023-7h1.242v.567c0,1.8-.006,3.6,0,5.394a6.669,6.669,0,0,0,.111,1.17,2.323,2.323,0,0,0,4.564.1,7.628,7.628,0,0,0,.15-1.558c.018-1.7.006-3.408.007-5.113V49.18Z" transform="translate(-541.704 -41.803)" fill="rgba(0,0,0,0.46)"/>
          <path id="Path_5478" data-name="Path 5478" d="M700.464,49.127l-.978.6a1.763,1.763,0,0,0-1.728-.916,2.459,2.459,0,0,0-1.111.451,1.115,1.115,0,0,0,.084,1.894,10.3,10.3,0,0,0,1.351.67,13.494,13.494,0,0,1,1.356.663,2.81,2.81,0,0,1,1.313,3.043,3.1,3.1,0,0,1-2.388,2.482,3.152,3.152,0,0,1-3.843-2.328,3.505,3.505,0,0,1-.049-.418l1.189-.274c.054.189.105.363.155.538a1.913,1.913,0,0,0,1.849,1.365,1.862,1.862,0,0,0,1.753-1.332,1.643,1.643,0,0,0-.79-2.064c-.5-.292-1.047-.495-1.563-.757a8.9,8.9,0,0,1-1.221-.684,2.37,2.37,0,0,1-.078-3.744,3.088,3.088,0,0,1,4.7.813Z" transform="translate(-590.303 -40.436)" fill="rgba(0,0,0,0.46)"/>
          <path id="Path_5479" data-name="Path 5479" d="M549.474,56.009a5.264,5.264,0,0,1-.016,1.023.92.92,0,0,1-.375.585,5.245,5.245,0,1,1-4.239-9.586,5.449,5.449,0,0,1,3.945-.057c.518.184.779.463.692,1.03a5.854,5.854,0,0,0-.006.777,4.224,4.224,0,0,0-3.859-.793,3.8,3.8,0,0,0-2.07,1.555,4.217,4.217,0,0,0,.273,5.062c1.39,1.585,3.081,1.722,5.655.4Z" transform="translate(-460.31 -40.488)" fill="rgba(0,0,0,0.46)"/>
          <path id="Path_5480" data-name="Path 5480" d="M742.015,50.342H739.66V49.22h5.988v1.123c-.606,0-1.216.028-1.822-.009-.459-.028-.567.142-.564.577.018,2.548.009,5.1.009,7.645v.7h-1.254V50.342Z" transform="translate(-628.715 -41.837)" fill="rgba(0,0,0,0.46)"/>
          <path id="Path_5481" data-name="Path 5481" d="M608.619,58.057v1.185H604.35V49.2h1.222v8.857h3.045Z" transform="translate(-513.701 -41.82)" fill="rgba(0,0,0,0.46)"/>
          <path id="Path_5482" data-name="Path 5482" d="M131.47,49.15h1.215v8.878h3.049V59.2H131.47Z" transform="translate(-111.749 -41.778)" fill="rgba(0,0,0,0.46)"/>
          <path id="Path_5483" data-name="Path 5483" d="M447.537,7.657a1.017,1.017,0,0,1-.988-1.068.971.971,0,0,1,1.009-.97,1.059,1.059,0,0,1,1.015,1,1.089,1.089,0,0,1-1.036,1.042Z" transform="translate(-379.568 -4.776)" fill="rgba(0,0,0,0.46)"/>
          <path id="Path_5484" data-name="Path 5484" d="M488.645,105.16a.939.939,0,0,1,.981.975.979.979,0,0,1-.985,1.045,1.037,1.037,0,0,1-1.032-1.021,1.008,1.008,0,0,1,1.036-1Z" transform="translate(-414.47 -89.387)" fill="rgba(0,0,0,0.46)"/>
          <path id="Path_5485" data-name="Path 5485" d="M473.136,130.734a.945.945,0,0,1-.982.987,1.006,1.006,0,0,1-1.035-1.011,1.066,1.066,0,0,1,1.065-1.011,1,1,0,0,1,.954,1.036Z" transform="translate(-400.453 -110.245)" fill="rgba(0,0,0,0.46)"/>
          <path id="Path_5486" data-name="Path 5486" d="M489.631,47.832a.945.945,0,0,1-1.042.927,1.03,1.03,0,0,1-.972-1.027,1.046,1.046,0,0,1,1.071-1A1,1,0,0,1,489.631,47.832Z" transform="translate(-414.476 -39.724)" fill="rgba(0,0,0,0.46)"/>
          <path id="Path_5487" data-name="Path 5487" d="M473.136,23.273a1,1,0,0,1-.96,1.026,1.093,1.093,0,0,1-1.057-1.024,1.007,1.007,0,0,1,1.05-1A.933.933,0,0,1,473.136,23.273Z" transform="translate(-400.453 -18.937)" fill="rgba(0,0,0,0.46)"/>
          <path id="Path_5488" data-name="Path 5488" d="M448.587,147.2a1.009,1.009,0,0,1-1.011,1.044.988.988,0,0,1-1.008-.973,1,1,0,0,1,1-1.053A1.049,1.049,0,0,1,448.587,147.2Z" transform="translate(-379.585 -124.288)" fill="rgba(0,0,0,0.46)"/>
          <path id="Path_5489" data-name="Path 5489" d="M495.527,76.977a1.031,1.031,0,0,1-1.032,1.029,1.008,1.008,0,1,1,1.032-1.029Z" transform="translate(-419.477 -64.592)" fill="rgba(0,0,0,0.46)"/>
          <path id="Path_5490" data-name="Path 5490" d="M253.59,114.731v.083l-.07-.032a.063.063,0,0,1,.07-.052Z" transform="translate(-215.492 -97.521)" fill="rgba(0,0,0,0.46)"/>
        </g>
      </g>
    </g>
    <g id="b-3" data-name="b" transform="translate(351 568)">
      <g id="c-3" data-name="c" transform="translate(0 0)">
        <path id="Path_5491" data-name="Path 5491" d="M113.6,11.563a2.756,2.756,0,0,0-.661.079v.031h.031a5.147,5.147,0,0,0,.516.661c.131.258.241.516.372.771l.031-.031a.9.9,0,0,0,.341-.805,3.368,3.368,0,0,1-.193-.337c-.1-.162-.306-.241-.434-.372" transform="translate(-74.077 -7.585)" fill="rgba(0,0,0,0.46)" fill-rule="evenodd"/>
        <g id="Group_568" data-name="Group 568">
          <path id="Path_5492" data-name="Path 5492" d="M13.9,78.551h-2.23q-.119-5.647-.65-10.623H11L7.6,78.551H5.9L2.529,67.928H2.509q-.377,4.78-.475,10.623H0Q.2,71.443.988,65.22H3.751l3.217,9.793h.021l3.238-9.793h2.646q.867,7.288,1.025,13.331" transform="translate(0 -42.781)" fill="rgba(0,0,0,0.46)"/>
          <path id="Path_5493" data-name="Path 5493" d="M51.808,75.38q-1.363,7.391-3.592,10.746-1.739,2.581-3.813,2.584a3.759,3.759,0,0,1-1.363-.33V87.193a6.593,6.593,0,0,0,.929.059,2.249,2.249,0,0,0,1.559-.533,1.942,1.942,0,0,0,.709-1.462,9.775,9.775,0,0,0-.554-2.271l-2.45-7.6h2.192l1.758,5.685a7.568,7.568,0,0,1,.492,2.7,37.174,37.174,0,0,0,2.013-8.393H51.8Z" transform="translate(-28.23 -49.445)" fill="rgba(0,0,0,0.46)"/>
          <path id="Path_5494" data-name="Path 5494" d="M142.738,78.551H136.4V65.22h2.133V76.909h4.2Z" transform="translate(-89.464 -42.781)" fill="rgba(0,0,0,0.46)"/>
          <path id="Path_5495" data-name="Path 5495" d="M110.618,78.49l-2.45-1.208a4.541,4.541,0,0,0,.613-.6,8.191,8.191,0,0,0,1.562-5.43q0-6.612-5.193-6.617a4.92,4.92,0,0,0-3.971,1.679,8.167,8.167,0,0,0-1.559,5.409c0,2.381.461,4.06,1.383,5.155a4.734,4.734,0,0,0,3.813,1.48,6.2,6.2,0,0,0,1.745-.234l3.19,1.858.871-1.5ZM102.679,75.5a8.212,8.212,0,0,1-.809-4.184q0-5.033,3.059-5.034a2.573,2.573,0,0,1,2.35,1.2,8.121,8.121,0,0,1,.809,4.146q0,5.074-3.059,5.076a2.566,2.566,0,0,1-2.35-1.2" transform="translate(-65.34 -42.401)" fill="rgba(0,0,0,0.46)" fill-rule="evenodd"/>
          <path id="Path_5496" data-name="Path 5496" d="M80.969,74.52A3.54,3.54,0,0,1,79.726,77.3a4.9,4.9,0,0,1-3.334,1.084A6.68,6.68,0,0,1,72.6,77.142L73.171,76a6.494,6.494,0,0,0,2.863.788,3.018,3.018,0,0,0,1.886-.53,1.81,1.81,0,0,0,.726-1.48c0-.791-.551-1.469-1.566-2.034-.936-.513-2.8-1.583-2.8-1.583a3.2,3.2,0,0,1-1.521-2.835,3.31,3.31,0,0,1,1.136-2.615,4.284,4.284,0,0,1,2.932-1A6.166,6.166,0,0,1,80.2,65.7l-.516,1.142a6.522,6.522,0,0,0-2.567-.551,2.287,2.287,0,0,0-1.579.5,1.656,1.656,0,0,0-.6,1.263c0,.788.564,1.473,1.6,2.051.946.513,2.859,1.6,2.859,1.6a3.146,3.146,0,0,1,1.559,2.818" transform="translate(-47.618 -42.447)" fill="rgba(0,0,0,0.46)"/>
          <path id="Path_5497" data-name="Path 5497" d="M121.033,17.986a7.463,7.463,0,0,0-3.124.451c-.241.1-.626.1-.661.4.131.127.145.337.258.516a3.691,3.691,0,0,0,.836.981c.337.258.678.516,1.032.74.626.389,1.335.613,1.948,1,.354.224.709.516,1.063.757.175.127.289.337.516.416V23.2c-.114-.145-.145-.354-.258-.516-.162-.158-.323-.306-.485-.465a7.593,7.593,0,0,0-1.676-1.628c-.516-.354-1.645-.84-1.851-1.431,0,0-.017-.017-.031-.034a6.435,6.435,0,0,0,1.111-.258c.547-.145,1.046-.114,1.61-.258.258-.065.516-.145.774-.224V18.24c-.292-.289-.5-.678-.805-.95a21.578,21.578,0,0,0-2.656-1.982c-.5-.323-1.146-.53-1.676-.805-.193-.1-.513-.145-.626-.306a6.55,6.55,0,0,1-.661-1.239c-.468-.884-.919-1.865-1.321-2.8a16.98,16.98,0,0,0-.822-1.834A16.2,16.2,0,0,0,107.3,2.3a7.707,7.707,0,0,0-2.061-.661c-.4-.017-.805-.048-1.208-.065a6.352,6.352,0,0,1-.74-.564C102.369.433,100-.823,99.327.836c-.434,1.046.643,2.078,1.015,2.608a7.459,7.459,0,0,1,.819,1.208c.114.275.145.564.258.853a19.584,19.584,0,0,0,.836,2.158,7.489,7.489,0,0,0,.6,1c.131.179.354.258.4.547a4.724,4.724,0,0,0-.372,1.208,7.1,7.1,0,0,0,.468,5.413c.258.4.871,1.29,1.693.95.726-.289.564-1.208.774-2.013.048-.2.017-.323.114-.451v.031c.224.451.451.884.661,1.335a9.179,9.179,0,0,0,2.1,2.158c.385.292.692.788,1.173.967v-.048h-.031a1.661,1.661,0,0,0-.372-.32,7.584,7.584,0,0,1-.836-.967,20.643,20.643,0,0,1-1.8-2.932c-.258-.5-.482-1.046-.692-1.545-.1-.193-.1-.482-.258-.578a6.237,6.237,0,0,0-.774,1.094,9.108,9.108,0,0,0-.451,2.433c-.065.017-.031,0-.065.031-.516-.127-.692-.661-.884-1.108a6.973,6.973,0,0,1-.145-4.3c.114-.337.6-1.4.4-1.724-.1-.306-.42-.482-.6-.726a6.085,6.085,0,0,1-.578-1.032c-.385-.9-.582-1.9-1-2.8a8.566,8.566,0,0,0-.805-1.239,8.043,8.043,0,0,1-.888-1.256c-.079-.179-.193-.468-.065-.661a.256.256,0,0,1,.227-.21c.21-.175.805.048,1.015.145a8.227,8.227,0,0,1,1.593.805c.227.162.468.468.757.547h.337c.516.11,1.094.031,1.579.175A10.326,10.326,0,0,1,107.851,3.7a14.312,14.312,0,0,1,5.024,5.509c.193.368.275.709.451,1.094.337.791.757,1.6,1.094,2.367a10.482,10.482,0,0,0,1.146,2.158c.241.337,1.208.516,1.641.692a11.023,11.023,0,0,1,1.111.451c.547.337,1.094.726,1.61,1.094.258.193,1.063.6,1.111.919" transform="translate(-65.082 -0.01)" fill="rgba(0,0,0,0.46)" fill-rule="evenodd"/>
          <path id="Path_5498" data-name="Path 5498" d="M161.019,100.834h.334V99.2h-.5l-.409,1.115L160,99.2h-.482v1.634h.317V99.592h.017l.465,1.242h.241l.465-1.242v1.242Zm-2.687,0h.354V99.479h.461V99.2h-1.3v.279h.482Z" transform="translate(-103.533 -65.068)" fill="rgba(0,0,0,0.46)"/>
        </g>
      </g>
    </g>
    <g id="Layer_2" data-name="Layer 2" transform="translate(350.99 536.99)">
      <g id="Layer_1" data-name="Layer 1" transform="translate(0.01 0.01)">
        <g id="Group_570" data-name="Group 570" transform="translate(0 0)" clip-path="url(#clip-path)">
          <path id="Path_5517" data-name="Path 5517" d="M30.15,68.721c-1.672.875-10.349,4.443-12.218,5.423s-2.87.952-4.332.253S2.937,69.956,1.269,69.158C.429,68.764,0,68.427,0,68.112V64.938s12.021-2.609,13.96-3.312,2.611-.72,4.259-.116S29.749,63.9,31.381,64.49v3.129c0,.326-.375.643-1.23,1.1Z" transform="translate(0 -47.985)" fill="#727272"/>
          <path id="Path_5518" data-name="Path 5518" d="M30.142,56.172c-1.672.87-10.349,4.439-12.218,5.4s-2.87.954-4.332.257S2.929,57.392,1.261,56.6s-1.7-1.344-.064-1.983,10.816-4.233,12.756-4.941,2.611-.722,4.259-.116S28.5,53.6,30.123,54.2s1.7,1.089.019,1.957Z" transform="translate(0.008 -38.596)" fill="#898989"/>
          <path id="Path_5519" data-name="Path 5519" d="M30.15,44.593c-1.672.872-10.349,4.439-12.218,5.4s-2.862.954-4.323.253S2.937,45.826,1.269,45.031C.429,44.632,0,44.3,0,43.98V40.817S12.021,38.2,13.96,37.5s2.611-.722,4.259-.109,11.53,2.379,13.161,2.975v3.129C31.381,43.817,31.005,44.143,30.15,44.593Z" transform="translate(0 -29.027)" fill="#727272"/>
          <path id="Path_5520" data-name="Path 5520" d="M30.145,32.072c-1.672.875-10.349,4.441-12.218,5.4s-2.87.956-4.332.257S2.932,33.306,1.264,32.509s-1.7-1.34-.064-1.978,10.816-4.242,12.756-4.93,2.611-.731,4.259-.133,10.289,4.06,11.911,4.641,1.7,1.091.019,1.957Z" transform="translate(0.005 -19.68)" fill="#898989"/>
          <path id="Path_5521" data-name="Path 5521" d="M30.15,19.57c-1.672.875-10.349,4.443-12.218,5.4s-2.862.954-4.323.257S2.937,20.8,1.269,20.007C.429,19.612,0,19.276,0,18.959V15.784s12.021-2.609,13.96-3.31,2.611-.722,4.259-.118,11.525,2.388,13.157,2.984V18.47C31.381,18.8,31.005,19.122,30.15,19.57Z" transform="translate(0 -9.369)" fill="#727272"/>
          <path id="Path_5522" data-name="Path 5522" d="M30.142,7.018c-1.672.857-10.349,4.448-12.218,5.4s-2.87.952-4.332.257S2.929,8.246,1.261,7.453-.439,6.109,1.2,5.47,12.013,1.23,13.953.532s2.611-.72,4.259-.116S28.5,4.456,30.123,5.052s1.7,1.091.019,1.959Z" transform="translate(0.008 0.013)" fill="#898989"/>
        </g>
        <path id="Path_5523" data-name="Path 5523" d="M61.463,8.622l2.071-.679-.562,1.342,2.107.789-2.716.283-.611,1.466-.982-1.635L57.63,9.9l2.345-.845-.705-1.3,2.193.862Z" transform="translate(-45.279 -6.099)" fill="#fff"/>
        <path id="Path_5524" data-name="Path 5524" d="M57.516,39.894,52.44,37.787l7.271-1.117-2.195,3.224Z" transform="translate(-41.202 -28.812)" fill="#fff"/>
        <path id="Path_5525" data-name="Path 5525" d="M29.028,22.34c2.143,0,3.886.675,3.886,1.5s-1.747,1.5-3.886,1.5-3.888-.675-3.888-1.5S26.883,22.34,29.028,22.34Z" transform="translate(-19.751 -17.551)" fill="#fff"/>
        <path id="Path_5526" data-name="Path 5526" d="M107.39,20.42l4.3,1.7-4.3,1.7,0-3.4Z" transform="translate(-84.373 -16.045)" fill="#555"/>
        <path id="Path_5527" data-name="Path 5527" d="M89.933,20.42l0,3.4L89.47,24l-4.3-1.7,4.763-1.882Z" transform="translate(-66.916 -16.045)" fill="#727272"/>
        <path id="Path_5528" data-name="Path 5528" d="M184.3,36.7a3.721,3.721,0,0,1,1.335-.93,4.287,4.287,0,0,1,1.565-.345,1.438,1.438,0,0,1,1.072.345,1.072,1.072,0,0,1,.326.812,1.155,1.155,0,0,1-.326.812,1.05,1.05,0,0,1-.812.349,3.642,3.642,0,0,0-3.194,3.262v4.111a1.194,1.194,0,0,1-1.162,1.16,1.055,1.055,0,0,1-.83-.358,1.149,1.149,0,0,1-.347-.812V36.537a1.147,1.147,0,0,1,.347-.812,1.543,1.543,0,0,1,.872-.292,1.183,1.183,0,0,1,1.16,1.157Z" transform="translate(-142.934 -27.83)" fill="#898989"/>
        <path id="Path_5529" data-name="Path 5529" d="M220.594,40.061a1.125,1.125,0,0,1-.289.759,1.31,1.31,0,0,1-.812.347h-6.859a2.21,2.21,0,0,0,.744,1.406,3.1,3.1,0,0,0,2.032.98,3.016,3.016,0,0,0,2.264-.523,1.183,1.183,0,0,1,.872-.349,1,1,0,0,1,.752.292.945.945,0,0,1,.056,1.338c-.017.019-.036.036-.056.056a5.249,5.249,0,0,1-3.77,1.393,4.93,4.93,0,0,1-3.766-1.625A5.717,5.717,0,0,1,210.2,40.3a5.211,5.211,0,0,1,1.565-3.833,4.842,4.842,0,0,1,3.657-1.567,4.716,4.716,0,0,1,3.588,1.453,5.311,5.311,0,0,1,1.631,3.588v.114Zm-5.166-3.076a3.044,3.044,0,0,0-1.957.757,2.823,2.823,0,0,0-.928,1.5h6.094a2.656,2.656,0,0,0-1.046-1.449,3.708,3.708,0,0,0-2.143-.817" transform="translate(-165.14 -27.415)" fill="#898989"/>
        <path id="Path_5530" data-name="Path 5530" d="M271.121,28.847a1.194,1.194,0,0,1-1.16,1.162,1.254,1.254,0,0,1-1.162-.93,4.979,4.979,0,0,1-2.964.93,5.052,5.052,0,0,1-3.715-1.567,5.174,5.174,0,0,1-1.511-3.833,5.519,5.519,0,0,1,1.511-3.83,5.112,5.112,0,0,1,3.715-1.631,4.789,4.789,0,0,1,2.9.93V16.02a1.055,1.055,0,0,1,.349-.812,1.151,1.151,0,0,1,.823-.349,1.055,1.055,0,0,1,.812.349,1.149,1.149,0,0,1,.349.812V28.847ZM265.9,27.685a2.572,2.572,0,0,0,2.03-.926,3.087,3.087,0,0,0,0-4.287,2.786,2.786,0,0,0-2.03-.939,2.5,2.5,0,0,0-2.032.93,3.087,3.087,0,0,0,0,4.287,2.677,2.677,0,0,0,2.032.926" transform="translate(-204.746 -11.673)" fill="#898989"/>
        <path id="Path_5531" data-name="Path 5531" d="M317.128,16.006v.467a1.179,1.179,0,0,1-.358.883,1,1,0,0,1-.812.289,1.042,1.042,0,0,1-.81-.345,1.166,1.166,0,0,1-.349-.87V16a1.194,1.194,0,0,1,1.16-1.162,1.072,1.072,0,0,1,.812.354,1.05,1.05,0,0,1,.356.812m-1.957,3.543a1.132,1.132,0,0,1,.812-.349,1.04,1.04,0,0,1,.812.349,1.175,1.175,0,0,1,.332.857V28.9a.975.975,0,0,1-.356.812,1.142,1.142,0,0,1-.81.349,1.05,1.05,0,0,1-.812-.349,1.132,1.132,0,0,1-.349-.812V20.415a1.155,1.155,0,0,1,.349-.857" transform="translate(-247.321 -11.659)" fill="#898989"/>
        <path id="Path_5532" data-name="Path 5532" d="M337.013,36.058a1.134,1.134,0,0,1,.465.694,1.537,1.537,0,0,1-.116.87,1.157,1.157,0,0,1-.7.463,1.2,1.2,0,0,1-.872-.174,4.031,4.031,0,0,0-1.972-.81,1.873,1.873,0,0,0-1.286.4c-.232.176-.347.292-.347.407a.429.429,0,0,0,.058.292.8.8,0,0,0,.232.174,3.47,3.47,0,0,0,1.569.521h0a8.091,8.091,0,0,1,2.088.643,2.956,2.956,0,0,1,.523,5.224,4.671,4.671,0,0,1-2.787.87,6.079,6.079,0,0,1-3.83-1.5,1.237,1.237,0,0,1-.407-.757,1.115,1.115,0,0,1,1.8-.977,3.372,3.372,0,0,0,2.379.928,2.489,2.489,0,0,0,1.451-.407c.232-.231.407-.405.407-.581s0-.231-.058-.289c0-.06-.118-.174-.292-.231a4.319,4.319,0,0,0-1.743-.613h0a6.058,6.058,0,0,1-1.972-.643,3.55,3.55,0,0,1-1.393-1.215,2.7,2.7,0,0,1-.345-1.335,2.851,2.851,0,0,1,1.275-2.381,4.677,4.677,0,0,1,2.669-.812A6.7,6.7,0,0,1,337,36.039" transform="translate(-258.973 -27.356)" fill="#898989"/>
      </g>
    </g>
  </g>
</svg>
