<svg xmlns="http://www.w3.org/2000/svg" width="111.525" height="21.091" viewBox="0 0 111.525 21.091"><g id="b"><g id="c"><g id="Group_567"><path id="Path_5468" fill="rgba(0,0,0,0.46)" d="M350.02 21.1a27 27 0 0 1-2.7-.97 10.1 10.1 0 0 1-5.83-7.26A10.2 10.2 0 0 1 344.4 3a10 10 0 0 1 7.2-3l.2.05a14 14 0 0 1-.01 1.4c-.01.1-.29.25-.44.26a8.3 8.3 0 0 0-4.31 1.39 8.6 8.6 0 0 0-4.04 8.3 8.8 8.8 0 0 0 6.6 7.74 10 10 0 0 0 1.8.23c.3.03.42.13.4.43l.04 1.3Z" transform="translate(-297.656)"/><path id="Path_5469" fill="rgba(0,0,0,0.46)" d="M0 51.35a11 11 0 0 1 .84-1.84 4.4 4.4 0 0 1 7.07-.18l-.74.64q-.36-.35-.8-.7a3.3 3.3 0 0 0-3.85-.02 3.5 3.5 0 0 0 1.79 6.33 2.84 2.84 0 0 0 2.84-2.5h-3a1.6 1.6 0 0 1 1.44-1.02h2.75a3.97 3.97 0 0 1-3.27 4.46 4.3 4.3 0 0 1-4.91-3.16l-.17-.38z" transform="translate(.01 -41.558)"/><path id="Path_5470" fill="rgba(0,0,0,0.46)" d="M838.04 57.24h-.05a1.7 1.7 0 0 1-1.93-1.06 27 27 0 0 0-1.6-2.32 2 2 0 0 0-.47-.3l-.13.1v3.54h-1.05v-8.63a27 27 0 0 1 2.84.2 2.2 2.2 0 0 1 1.82 2.23 2.34 2.34 0 0 1-1.7 2.42l-.32.1 2.58 3.53Zm-4.19-7.75.01 2.94c0 .1.2.28.27.27a8 8 0 0 0 1.54-.27 1.24 1.24 0 0 0 .8-1.3 1.2 1.2 0 0 0-.83-1.26 18 18 0 0 0-1.79-.38" transform="translate(-726.511 -42.371)"/><path id="Path_5471" fill="rgba(0,0,0,0.46)" d="M382.02 31.53a6 6 0 0 0-2.81-2 5.3 5.3 0 0 0-5.46 1.6 5.56 5.56 0 0 0 2 8.71 4.57 4.57 0 0 0 6.16-2.86 5 5 0 0 0 .08-.7h-4.53l1.45-1.5a.3.3 0 0 1 .22-.06h4.72a6.6 6.6 0 0 1-.93 4.14 6.2 6.2 0 0 1-6.39 2.85 6.7 6.7 0 0 1-5.62-5.23 7.02 7.02 0 0 1 12-6.43c.21.2.27.36.02.58-.24.2-.44.46-.66.69l-.25.22Z" transform="translate(-323.371 -24.213)"/><path id="Path_5472" fill="rgba(0,0,0,0.46)" d="M217.46 57.1c-.46 0-.92.03-1.38 0a.6.6 0 0 1-.4-.27q-1.06-1.53-2.14-3.05a3 3 0 0 0-.58-.42v3.72h-1.1v-8.63a28 28 0 0 1 2.94.25 2.2 2.2 0 0 1 1.76 2.27 2.4 2.4 0 0 1-1.6 2.32l-.42.14 1.67 2.3q.46.61.97 1.22l.06.03v-.07l.22.18Zm-4.48-4.48a11 11 0 0 0 1.42-.18 1.44 1.44 0 0 0 .78-2.35 2.8 2.8 0 0 0-2.2-.58z" transform="translate(-184.817 -42.266)"/><path id="Path_5473" fill="rgba(0,0,0,0.46)" d="m61.41 55.03 4.11-8.97 4.11 8.97a8 8 0 0 1-.98-.01.5.5 0 0 1-.32-.28c-.26-.51-.46-1.05-.73-1.55a.7.7 0 0 0-.49-.31c-1.06-.03-2.13-.01-3.2-.03a.45.45 0 0 0-.48.34c-.2.47-.46.92-.63 1.4a.6.6 0 0 1-.7.45 5 5 0 0 0-.7 0Zm4.11-6.57-1.49 3.4h2.98z" transform="translate(-53.571 -40.181)"/><path id="Path_5474" fill="rgba(0,0,0,0.46)" d="m254.21 55-.22-.18 1.73-3.87c.72-1.6 1.45-3.18 2.24-4.9l4.07 8.9q-.08.08-.1.08c-1.03.05-1.1.07-1.42-.88a1.6 1.6 0 0 0-2-1.3c-.7.1-1.43 0-2.14.03a.7.7 0 0 0-.5.31q-.3.58-.56 1.21a1 1 0 0 1-1.1.61Zm5.24-3.14-1.5-3.4-1.49 3.4Z" transform="translate(-221.57 -40.181)"/><path id="Path_5475" fill="rgba(0,0,0,0.46)" d="M169.89 56.73v.96l-.27.06-3.98.01c-.24 0-.38-.05-.38-.34l.01-8.08.05-.16h4.55v.96h-3.46v2.38h3.36v1.02h-3.37v3.19z" transform="translate(-144.165 -42.903)"/><path id="Path_5476" fill="rgba(0,0,0,0.46)" d="M787.5 56.82h3.45v.98h-4.56v-8.53h4.54l.05.1c.1.88.1.88-.77.88h-2.7v2.33h3.35v1.04h-3.36Z" transform="translate(-686.016 -42.981)"/><path id="Path_5477" fill="rgba(0,0,0,0.46)" d="M642.49 49.18h1.02l.04.36v5.21a3 3 0 0 1-2.76 3.15 2.97 2.97 0 0 1-3.45-2.75c-.08-1.97-.02-3.95-.02-5.96h1.05v5.08a6 6 0 0 0 .1 1 1.98 1.98 0 0 0 3.88.08 7 7 0 0 0 .13-1.33q.02-2.17 0-4.35z" transform="translate(-555.951 -42.903)"/><path id="Path_5478" fill="rgba(0,0,0,0.46)" d="m699.57 48.9-.83.5a1.5 1.5 0 0 0-1.47-.77 2 2 0 0 0-.95.38.95.95 0 0 0 .07 1.62 9 9 0 0 0 1.15.57 12 12 0 0 1 1.16.56 2.4 2.4 0 0 1 1.11 2.59 2.6 2.6 0 0 1-2.03 2.11 2.7 2.7 0 0 1-3.27-1.98l-.04-.36 1.01-.23q.08.24.13.46a1.6 1.6 0 0 0 1.58 1.16 1.6 1.6 0 0 0 1.49-1.13 1.4 1.4 0 0 0-.67-1.76c-.43-.25-.9-.42-1.33-.64a8 8 0 0 1-1.04-.59 2.02 2.02 0 0 1-.07-3.18 2.63 2.63 0 0 1 4 .7" transform="translate(-605.828 -41.5)"/><path id="Path_5479" fill="rgba(0,0,0,0.46)" d="M548.3 54.76a5 5 0 0 1-.02.87.8.8 0 0 1-.32.5 4.46 4.46 0 1 1-3.6-8.16 4.6 4.6 0 0 1 3.35-.04c.44.15.66.39.59.87a5 5 0 0 0 0 .66 3.6 3.6 0 0 0-3.3-.67 3.2 3.2 0 0 0-1.75 1.32 3.6 3.6 0 0 0 .23 4.31c1.18 1.35 2.62 1.47 4.81.34" transform="translate(-472.416 -41.553)"/><path id="Path_5480" fill="rgba(0,0,0,0.46)" d="M741.66 50.18h-2v-.96h5.1v.96q-.77.02-1.55-.01c-.39-.03-.48.12-.48.49q.02 3.26.01 6.5v.6h-1.07z" transform="translate(-645.25 -42.938)"/><path id="Path_5481" fill="rgba(0,0,0,0.46)" d="M607.98 56.74v1h-3.63V49.2h1.04v7.54z" transform="translate(-527.211 -42.92)"/><path id="Path_5482" fill="rgba(0,0,0,0.46)" d="M131.47 49.15h1.03v7.55h2.6v1h-3.63Z" transform="translate(-114.688 -42.877)"/><path id="Path_5483" fill="rgba(0,0,0,0.46)" d="M447.39 7.35a.87.87 0 0 1-.84-.9.83.83 0 0 1 .86-.83.9.9 0 0 1 .86.85.93.93 0 0 1-.88.88" transform="translate(-389.551 -4.901)"/><path id="Path_5484" fill="rgba(0,0,0,0.46)" d="M488.5 105.16a.8.8 0 0 1 .83.83.83.83 0 0 1-.84.89.9.9 0 0 1-.88-.87.86.86 0 0 1 .88-.85Z" transform="translate(-425.37 -91.738)"/><path id="Path_5485" fill="rgba(0,0,0,0.46)" d="M472.84 130.58a.8.8 0 0 1-.84.84.86.86 0 0 1-.88-.86.9.9 0 0 1 .9-.86.85.85 0 0 1 .82.88" transform="translate(-410.985 -113.145)"/><path id="Path_5486" fill="rgba(0,0,0,0.46)" d="M489.33 47.67a.8.8 0 0 1-.89.79.9.9 0 0 1-.82-.88.9.9 0 0 1 .9-.85.85.85 0 0 1 .81.94" transform="translate(-425.377 -40.768)"/><path id="Path_5487" fill="rgba(0,0,0,0.46)" d="M472.84 23.13a.85.85 0 0 1-.82.87.93.93 0 0 1-.9-.87.86.86 0 0 1 .9-.85.8.8 0 0 1 .82.84" transform="translate(-410.985 -19.435)"/><path id="Path_5488" fill="rgba(0,0,0,0.46)" d="M448.29 147.06a.86.86 0 0 1-.86.88.84.84 0 0 1-.86-.82.86.86 0 0 1 .85-.9.9.9 0 0 1 .87.84" transform="translate(-389.568 -127.557)"/><path id="Path_5489" fill="rgba(0,0,0,0.46)" d="M495.23 76.83a.9.9 0 0 1-.88.88.86.86 0 1 1 .88-.88" transform="translate(-430.509 -66.291)"/><path id="Path_5490" fill="rgba(0,0,0,0.46)" d="M253.58 114.73v.07l-.06-.03z" transform="translate(-221.16 -100.086)"/></g></g></g></svg>