<svg xmlns="http://www.w3.org/2000/svg" width="102.81" height="25.486" viewBox="0 0 102.81 25.486"><g id="https___mariadb.com_wp-content_uploads_2019_11_mariadb-horizontal-black"><path id="Path_5460" fill="rgba(0,0,0,0.46)" d="m297.9 68.81 2.41 9.32h-1.82l-1.61-6.71-3.02 6.7h-1.53l-3-6.66-1.66 6.67h-1.78l2.39-9.32h1.57l3.25 7.21 3.24-7.21Z" transform="translate(-248.642 -60.125)"/><path id="Path_5461" fill="rgba(0,0,0,0.46)" d="M406.83 88.17v-1.09h1.75v6.8h-1.75v-1.1a2.9 2.9 0 0 1-2.58 1.24 3.56 3.56 0 0 1-3.78-3.67 3.3 3.3 0 0 1 3.52-3.42 3.2 3.2 0 0 1 2.84 1.24m-4.5 2.27a2.2 2.2 0 0 0 2.32 2.32 2.16 2.16 0 0 0 2.27-2.28 2.2 2.2 0 0 0-2.35-2.3 2.13 2.13 0 0 0-2.23 2.26" transform="translate(-348.294 -75.884)"/><path id="Path_5462" fill="rgba(0,0,0,0.46)" d="M481.42 93.88h-1.76v-6.8h1.76v1.53a2.7 2.7 0 0 1 2.45-1.68 3 3 0 0 1 1.1.18l-.38 1.29a4 4 0 0 0-.93-.13 2.23 2.23 0 0 0-2.24 2.36Z" transform="translate(-417.167 -75.882)"/><path id="Path_5463" fill="rgba(0,0,0,0.46)" d="M527.09 68.26a.9.9 0 0 1 .94-.9.93.93 0 0 1 .95.93.9.9 0 0 1-.95.9.9.9 0 0 1-.94-.93m.07 1.8h1.76v4.96c0 .31.06.53.32.53l.34-.04.27 1.28a3 3 0 0 1-1.16.2c-.74 0-1.53-.21-1.53-1.88Z" transform="translate(-458.414 -58.854)"/><path id="Path_5464" fill="rgba(0,0,0,0.46)" d="M558.9 88.17v-1.09h1.76v6.8h-1.75v-1.1a2.9 2.9 0 0 1-2.58 1.24 3.56 3.56 0 0 1-3.78-3.67 3.3 3.3 0 0 1 3.52-3.42 3.2 3.2 0 0 1 2.84 1.24m-4.48 2.27a2.2 2.2 0 0 0 2.3 2.32 2.16 2.16 0 0 0 2.28-2.28 2.2 2.2 0 0 0-2.35-2.3 2.13 2.13 0 0 0-2.23 2.26" transform="translate(-480.56 -75.884)"/><path id="Path_5465" fill="rgba(0,0,0,0.46)" d="M635.51 68.81h4.2c3.54 0 5.3 1.95 5.28 4.66.03 2.81-1.92 4.66-4.96 4.66h-4.52Zm1.16.83v7.67h3.2a3.84 3.84 0 1 0 0-7.67Z" transform="translate(-552.711 -60.125)"/><path id="Path_5466" fill="rgba(0,0,0,0.46)" d="M727.7 78.13h-5.35V68.8h4.81c1.85 0 3.6.35 3.58 2.41a1.87 1.87 0 0 1-1.86 2.02 2.2 2.2 0 0 1 2.17 2.37c0 2.08-1.82 2.52-3.36 2.52m-.4-5.26c1.84 0 2.25-.7 2.25-1.6 0-1.36-.83-1.67-2.26-1.67h-3.83v3.27Zm.04.79h-3.88v3.67h4.06c1.13 0 2.33-.37 2.33-1.8 0-1.65-1.38-1.87-2.5-1.87Z" transform="translate(-628.237 -60.125)"/><path id="Path_5467" fill="rgba(0,0,0,0.46)" d="M38.98 2.28a.6.6 0 0 0-.38-.13 3 3 0 0 0-1.13.39l-.1.05a4 4 0 0 1-1.41.36c-.5.02-.94.05-1.5.1-3.34.35-4.83 2.9-6.26 5.38a17 17 0 0 1-2.7 3.82 7 7 0 0 1-.72.61 16 16 0 0 1-3.7 1.89c-1.08.41-2.25.78-3.39 1.14q-1.56.48-2.92.97l-1.06.37a8 8 0 0 0-2.29 1.07c-.33.23-.67.48-.91.67a10 10 0 0 0-1.81 1.9 11 11 0 0 1-1.51 1.82 1.4 1.4 0 0 1-1 .27 13 13 0 0 1-1.99-.25 14 14 0 0 0-2.2-.26 2.5 2.5 0 0 0-1.26.27 2 2 0 0 0-.75.7l.22.1a5 5 0 0 1 .93.66 5 5 0 0 0 .96.69 1 1 0 0 1 .3.2l-.37.49c-.77 1-1.22 1.64-.96 1.98a1 1 0 0 0 .4.1 7.4 7.4 0 0 0 3.72-1l1.06-.48a16 16 0 0 0 2.15-1.24 14 14 0 0 1 3.06-1.64 8 8 0 0 1 2.57-.37 26 26 0 0 1 3.28.29q1.21.16 2.46.26l.9.02a10 10 0 0 0 1.15-.06l.1-.03a3.4 3.4 0 0 0 1.1-1.85 4 4 0 0 1 .53-1.17l.04-.03h.07v.03a11 11 0 0 1-2.46 6.31l-.79.84a6 6 0 0 0 1.72-.24 8.6 8.6 0 0 0 5.23-4.56 19 19 0 0 0 .82-1.88c.02-.05.22-.15.2.13l-.01.26-.02.17c-.03.4-.13 1.25-.13 1.25l.7-.38c1.7-1.07 3-3.22 3.99-6.57.4-1.4.71-2.79.97-4.01a13 13 0 0 1 .92-3.21 7 7 0 0 1 1.97-1.8l.3-.2a4 4 0 0 0 2.03-2.77v-.03c.14-1.02.02-1.28-.12-1.4" transform="translate(0 -2.148)"/></g></svg>