<svg xmlns="http://www.w3.org/2000/svg" width="102.81" height="25.486" viewBox="0 0 102.81 25.486">
  <g id="https___mariadb.com_wp-content_uploads_2019_11_mariadb-horizontal-black" transform="translate(0)">
    <path id="Path_5460" data-name="Path 5460" d="M297.9,68.81l2.413,9.316H298.49l-1.613-6.71-3.019,6.71h-1.531l-3.006-6.671-1.652,6.671h-1.78l2.387-9.316h1.574l3.251,7.213,3.239-7.213Z" transform="translate(-248.642 -60.125)" fill="rgba(0,0,0,0.46)"/>
    <path id="Path_5461" data-name="Path 5461" d="M406.828,88.169V87.085h1.755v6.8h-1.755v-1.1a2.888,2.888,0,0,1-2.58,1.239,3.56,3.56,0,0,1-3.778-3.677,3.3,3.3,0,0,1,3.518-3.42A3.238,3.238,0,0,1,406.828,88.169Zm-4.49,2.271a2.185,2.185,0,0,0,2.309,2.323,2.16,2.16,0,0,0,2.271-2.284,2.2,2.2,0,0,0-2.345-2.3A2.131,2.131,0,0,0,402.338,90.44Z" transform="translate(-348.294 -75.884)" fill="rgba(0,0,0,0.46)"/>
    <path id="Path_5462" data-name="Path 5462" d="M481.415,93.883H479.66v-6.8h1.755v1.523a2.7,2.7,0,0,1,2.451-1.678,3.153,3.153,0,0,1,1.1.181l-.374,1.29a3.865,3.865,0,0,0-.929-.13,2.228,2.228,0,0,0-2.245,2.361Z" transform="translate(-417.167 -75.882)" fill="rgba(0,0,0,0.46)"/>
    <path id="Path_5463" data-name="Path 5463" d="M527.087,68.263a.892.892,0,0,1,.942-.912.925.925,0,0,1,.955.942.887.887,0,0,1-.955.9.9.9,0,0,1-.942-.933Zm.077,1.793h1.755v4.968c0,.31.065.529.323.529a1.873,1.873,0,0,0,.335-.039l.271,1.278a3.116,3.116,0,0,1-1.161.206c-.736,0-1.523-.219-1.523-1.884Z" transform="translate(-458.414 -58.854)" fill="rgba(0,0,0,0.46)"/>
    <path id="Path_5464" data-name="Path 5464" d="M558.909,88.169V87.085h1.754v6.8h-1.754v-1.1a2.891,2.891,0,0,1-2.581,1.239,3.56,3.56,0,0,1-3.778-3.677,3.3,3.3,0,0,1,3.518-3.42A3.242,3.242,0,0,1,558.909,88.169Zm-4.491,2.271a2.186,2.186,0,0,0,2.31,2.323A2.16,2.16,0,0,0,559,90.479a2.2,2.2,0,0,0-2.345-2.3A2.132,2.132,0,0,0,554.418,90.44Z" transform="translate(-480.56 -75.884)" fill="rgba(0,0,0,0.46)"/>
    <path id="Path_5465" data-name="Path 5465" d="M635.51,68.81h4.207c3.535,0,5.3,1.954,5.277,4.658.026,2.813-1.923,4.658-4.968,4.658H635.51Zm1.161.826v7.677h3.2a3.839,3.839,0,1,0,0-7.677Z" transform="translate(-552.711 -60.125)" fill="rgba(0,0,0,0.46)"/>
    <path id="Path_5466" data-name="Path 5466" d="M727.692,78.126H722.35V68.81h4.813c1.845,0,3.6.349,3.574,2.413a1.867,1.867,0,0,1-1.858,2.013,2.2,2.2,0,0,1,2.168,2.374C731.058,77.694,729.227,78.126,727.692,78.126Zm-.4-5.252c1.845,0,2.258-.71,2.258-1.613,0-1.355-.826-1.665-2.258-1.665H723.46v3.278Zm.051.782H723.46v3.677h4.056c1.136,0,2.336-.374,2.336-1.806-.005-1.646-1.386-1.864-2.509-1.864Z" transform="translate(-628.237 -60.125)" fill="rgba(0,0,0,0.46)"/>
    <path id="Path_5467" data-name="Path 5467" d="M38.982,2.278a.568.568,0,0,0-.38-.13,2.976,2.976,0,0,0-1.128.391l-.106.053a3.6,3.6,0,0,1-1.408.362c-.5.016-.937.046-1.5.1-3.343.344-4.827,2.9-6.262,5.377a17.422,17.422,0,0,1-2.693,3.815,7.155,7.155,0,0,1-.728.618,15.7,15.7,0,0,1-3.7,1.885c-1.076.412-2.251.782-3.387,1.139-1.042.328-2.021.637-2.924.972-.408.152-.754.261-1.059.369A7.857,7.857,0,0,0,11.422,18.3c-.337.231-.676.482-.912.67A9.571,9.571,0,0,0,8.7,20.87a11.229,11.229,0,0,1-1.511,1.824,1.4,1.4,0,0,1-.993.261,12.92,12.92,0,0,1-1.991-.241,13.682,13.682,0,0,0-2.2-.261,2.5,2.5,0,0,0-1.269.268,2.328,2.328,0,0,0-.741.7l.216.1a4.531,4.531,0,0,1,.925.662,4.56,4.56,0,0,0,.96.683.857.857,0,0,1,.3.2c-.091.13-.225.3-.365.489C1.261,26.557.812,27.2,1.07,27.542a.8.8,0,0,0,.391.091,7.442,7.442,0,0,0,3.725-.99c.335-.151.677-.317,1.068-.486A16.282,16.282,0,0,0,8.4,24.917a13.905,13.905,0,0,1,3.06-1.642,8.3,8.3,0,0,1,2.568-.362,26.423,26.423,0,0,1,3.277.283c.809.1,1.646.211,2.466.261.319.018.615.027.9.027a10.375,10.375,0,0,0,1.15-.06l.091-.033a3.4,3.4,0,0,0,1.107-1.847,4.324,4.324,0,0,1,.528-1.173.349.349,0,0,1,.044-.035.053.053,0,0,1,.065.01v.021a11.018,11.018,0,0,1-2.46,6.316l-.782.838a6.113,6.113,0,0,0,1.715-.24,8.552,8.552,0,0,0,5.231-4.56,19.327,19.327,0,0,0,.823-1.881c.021-.053.219-.152.2.13,0,.082-.012.173-.018.261h0c0,.056-.008.113-.01.171-.033.4-.13,1.248-.13,1.248l.7-.377c1.694-1.071,3-3.222,3.982-6.576.412-1.4.713-2.783.978-4.008A13.376,13.376,0,0,1,34.8,8.475a6.744,6.744,0,0,1,1.971-1.788l.3-.207a4.055,4.055,0,0,0,2.025-2.765v-.03C39.245,2.661,39.121,2.4,38.982,2.278Z" transform="translate(0 -2.148)" fill="rgba(0,0,0,0.46)"/>
  </g>
</svg>
