<svg xmlns="http://www.w3.org/2000/svg" width="50.2" height="34.091" viewBox="0 0 50.2 34.091"><g id="b"><g id="c"><path id="Path_5491" fill="rgba(0,0,0,0.46)" fill-rule="evenodd" d="M113.51 11.56a2 2 0 0 0-.57.07v.03h.03a5 5 0 0 0 .44.57l.33.67.02-.02a.8.8 0 0 0 .3-.7l-.16-.3c-.09-.14-.27-.2-.38-.32" transform="translate(-79.199 -8.109)"/><g id="Group_568"><path id="Path_5492" fill="rgba(0,0,0,0.46)" d="M12.07 76.8h-1.94q-.1-4.9-.56-9.23h-.02L6.6 76.8H5.13L2.2 67.57h-.02q-.33 4.15-.41 9.22H0q.17-6.17.86-11.57h2.4l2.79 8.5h.02l2.8-8.5h2.3q.76 6.33.9 11.57" transform="translate(0 -45.738)"/><path id="Path_5493" fill="rgba(0,0,0,0.46)" d="M50.65 75.38q-1.18 6.42-3.12 9.33-1.5 2.24-3.3 2.24a3 3 0 0 1-1.19-.28v-1.03a6 6 0 0 0 .8.05 2 2 0 0 0 1.36-.47 1.7 1.7 0 0 0 .62-1.27 9 9 0 0 0-.49-1.97l-2.12-6.6h1.9l1.52 4.94a7 7 0 0 1 .43 2.35 32 32 0 0 0 1.75-7.3z" transform="translate(-30.182 -52.863)"/><path id="Path_5494" fill="rgba(0,0,0,0.46)" d="M141.9 76.8h-5.5V65.21h1.85v10.15h3.65Z" transform="translate(-95.65 -45.738)"/><path id="Path_5495" fill="rgba(0,0,0,0.46)" fill-rule="evenodd" d="m109.17 76.67-2.13-1.05a4 4 0 0 0 .53-.52 7 7 0 0 0 1.36-4.71q0-5.75-4.5-5.75a4.3 4.3 0 0 0-3.46 1.46 7 7 0 0 0-1.35 4.7 6.8 6.8 0 0 0 1.2 4.47 4.1 4.1 0 0 0 3.31 1.29 5 5 0 0 0 1.52-.2l2.76 1.61zm-6.9-2.6a7 7 0 0 1-.7-3.63q0-4.37 2.66-4.37a2.2 2.2 0 0 1 2.04 1.04 7 7 0 0 1 .7 3.6q0 4.4-2.65 4.41a2.2 2.2 0 0 1-2.04-1.04" transform="translate(-69.858 -45.332)"/><path id="Path_5496" fill="rgba(0,0,0,0.46)" d="M79.87 73.23a3 3 0 0 1-1.08 2.41 4.3 4.3 0 0 1-2.9.95 6 6 0 0 1-3.29-1.09l.5-1a6 6 0 0 0 2.49.69 2.6 2.6 0 0 0 1.63-.46 1.6 1.6 0 0 0 .63-1.29q-.01-1.02-1.36-1.76l-2.43-1.38a2.8 2.8 0 0 1-1.32-2.46 2.9 2.9 0 0 1 .98-2.27 3.7 3.7 0 0 1 2.55-.86 5.4 5.4 0 0 1 2.93.85l-.45 1a6 6 0 0 0-2.23-.48 2 2 0 0 0-1.37.43 1.4 1.4 0 0 0-.52 1.1c0 .68.5 1.28 1.4 1.78.82.44 2.48 1.39 2.48 1.39a2.7 2.7 0 0 1 1.35 2.45" transform="translate(-50.91 -45.381)"/><path id="Path_5497" fill="rgba(0,0,0,0.46)" fill-rule="evenodd" d="M118.16 15.62a6.5 6.5 0 0 0-2.71.39c-.21.08-.55.08-.58.35.12.1.13.3.23.45a3 3 0 0 0 .72.85q.45.34.9.64c.55.34 1.16.53 1.7.87.3.19.6.44.92.65.15.11.25.3.44.36v-.04c-.1-.12-.12-.3-.22-.45l-.42-.4a7 7 0 0 0-1.46-1.41c-.44-.3-1.42-.73-1.6-1.24l-.03-.03a6 6 0 0 0 .97-.23c.47-.12.9-.1 1.4-.22l.67-.2v-.12c-.26-.25-.44-.59-.7-.82a19 19 0 0 0-2.3-1.73c-.44-.28-1-.46-1.46-.7-.17-.08-.45-.12-.55-.26a6 6 0 0 1-.57-1.08c-.4-.77-.8-1.62-1.15-2.43a15 15 0 0 0-.71-1.6A14 14 0 0 0 106.23 2a7 7 0 0 0-1.79-.57l-1.05-.06a6 6 0 0 1-.64-.5c-.8-.5-2.85-1.58-3.44-.14-.37.9.56 1.8.88 2.26a7 7 0 0 1 .71 1.05c.1.24.13.5.23.74a17 17 0 0 0 .72 1.87 7 7 0 0 0 .52.87c.12.16.31.23.35.48a4 4 0 0 0-.32 1.04 6.2 6.2 0 0 0 .4 4.7c.23.36.76 1.13 1.47.83.63-.25.5-1.05.68-1.75.04-.17.01-.28.1-.39v.03q.3.58.57 1.16a8 8 0 0 0 1.82 1.87c.33.25.6.68 1.02.84v-.04h-.03a1 1 0 0 0-.32-.28 7 7 0 0 1-.73-.84 18 18 0 0 1-1.56-2.54q-.34-.67-.6-1.35c-.09-.16-.09-.41-.23-.5a5 5 0 0 0-.67.95 8 8 0 0 0-.39 2.12l-.06.02c-.44-.1-.6-.57-.76-.96a6 6 0 0 1-.13-3.73c.1-.3.52-1.22.35-1.5-.08-.27-.36-.42-.52-.63a5 5 0 0 1-.5-.9c-.33-.79-.5-1.65-.86-2.43a7 7 0 0 0-.7-1.08 7 7 0 0 1-.77-1.1c-.07-.15-.17-.4-.06-.56a.2.2 0 0 1 .2-.19c.18-.15.7.05.88.13a7 7 0 0 1 1.38.7c.2.14.41.4.66.47h.3c.44.1.94.03 1.36.16a9 9 0 0 1 2.02.96A12.4 12.4 0 0 1 111.08 8c.16.32.23.62.39.95.29.69.65 1.39.95 2.06a9 9 0 0 0 1 1.87c.2.3 1.04.45 1.42.6a10 10 0 0 1 .96.39q.72.46 1.4.95c.23.17.93.52.97.8" transform="translate(-69.582 -.01)"/><path id="Path_5498" fill="rgba(0,0,0,0.46)" d="M160.6 100.62h.29V99.2h-.44l-.35.97-.39-.97h-.41v1.42h.28v-1.08h.01l.4 1.08h.2l.4-1.08zm-2.33 0h.3v-1.18h.4v-.24h-1.12v.24h.42Z" transform="translate(-110.691 -69.567)"/></g></g></g></svg>