<svg xmlns="http://www.w3.org/2000/svg" width="50.2" height="34.091" viewBox="0 0 50.2 34.091">
  <g id="b" transform="translate(0)">
    <g id="c" transform="translate(0 0)">
      <path id="Path_5491" data-name="Path 5491" d="M113.514,11.563a2.393,2.393,0,0,0-.574.069v.027h.027a4.468,4.468,0,0,0,.448.574c.114.224.209.448.323.669l.027-.027a.785.785,0,0,0,.3-.7,2.924,2.924,0,0,1-.167-.293c-.084-.14-.266-.209-.376-.323" transform="translate(-79.199 -8.109)" fill="rgba(0,0,0,0.46)" fill-rule="evenodd"/>
      <g id="Group_568" data-name="Group 568">
        <path id="Path_5492" data-name="Path 5492" d="M12.07,76.794H10.134q-.1-4.9-.565-9.223H9.551L6.6,76.794H5.127L2.2,67.571H2.178q-.327,4.15-.412,9.223H0Q.17,70.623.857,65.22h2.4l2.793,8.5h.018l2.811-8.5h2.3q.753,6.328.89,11.574" transform="translate(0 -45.738)" fill="rgba(0,0,0,0.46)"/>
        <path id="Path_5493" data-name="Path 5493" d="M50.652,75.38q-1.183,6.417-3.119,9.33-1.51,2.241-3.31,2.244a3.263,3.263,0,0,1-1.183-.287V85.636a5.725,5.725,0,0,0,.807.051,1.953,1.953,0,0,0,1.353-.463,1.686,1.686,0,0,0,.615-1.27,8.487,8.487,0,0,0-.481-1.972l-2.127-6.6h1.9l1.527,4.935a6.57,6.57,0,0,1,.427,2.348,32.275,32.275,0,0,0,1.748-7.287h1.834Z" transform="translate(-30.182 -52.863)" fill="rgba(0,0,0,0.46)"/>
        <path id="Path_5494" data-name="Path 5494" d="M141.9,76.794h-5.5V65.22h1.852V75.369H141.9Z" transform="translate(-95.65 -45.738)" fill="rgba(0,0,0,0.46)"/>
        <path id="Path_5495" data-name="Path 5495" d="M109.168,76.665l-2.127-1.049a3.942,3.942,0,0,0,.532-.517,7.111,7.111,0,0,0,1.356-4.714q0-5.741-4.508-5.745a4.272,4.272,0,0,0-3.448,1.458,7.091,7.091,0,0,0-1.353,4.7,6.807,6.807,0,0,0,1.2,4.475,4.11,4.11,0,0,0,3.31,1.285,5.384,5.384,0,0,0,1.515-.2l2.769,1.613.756-1.3Zm-6.892-2.593a7.13,7.13,0,0,1-.7-3.633q0-4.369,2.656-4.371a2.234,2.234,0,0,1,2.04,1.046,7.051,7.051,0,0,1,.7,3.6q0,4.405-2.656,4.407a2.228,2.228,0,0,1-2.04-1.046" transform="translate(-69.858 -45.332)" fill="rgba(0,0,0,0.46)" fill-rule="evenodd"/>
        <path id="Path_5496" data-name="Path 5496" d="M79.866,73.227a3.074,3.074,0,0,1-1.079,2.417,4.252,4.252,0,0,1-2.895.941A5.8,5.8,0,0,1,72.6,75.5l.5-.995a5.638,5.638,0,0,0,2.486.684,2.621,2.621,0,0,0,1.637-.46,1.572,1.572,0,0,0,.63-1.285c0-.687-.478-1.276-1.359-1.766-.813-.445-2.435-1.374-2.435-1.374a2.775,2.775,0,0,1-1.321-2.462,2.874,2.874,0,0,1,.986-2.271,3.719,3.719,0,0,1,2.545-.866,5.353,5.353,0,0,1,2.931.857l-.448.992a5.662,5.662,0,0,0-2.229-.478,1.986,1.986,0,0,0-1.371.43,1.438,1.438,0,0,0-.52,1.1c0,.684.49,1.279,1.392,1.781.822.445,2.483,1.392,2.483,1.392a2.732,2.732,0,0,1,1.353,2.447" transform="translate(-50.91 -45.381)" fill="rgba(0,0,0,0.46)"/>
        <path id="Path_5497" data-name="Path 5497" d="M118.159,15.617a6.479,6.479,0,0,0-2.713.391c-.209.084-.544.084-.574.35.114.111.125.293.224.448a3.2,3.2,0,0,0,.726.851c.293.224.589.448.9.642.544.338,1.159.532,1.691.866.308.194.615.448.923.657.152.111.251.293.448.361v-.042c-.1-.125-.125-.308-.224-.448-.14-.137-.281-.266-.421-.4a6.592,6.592,0,0,0-1.455-1.413c-.448-.308-1.428-.729-1.607-1.243,0,0-.015-.015-.027-.03a5.587,5.587,0,0,0,.965-.224c.475-.125.908-.1,1.4-.224.224-.057.448-.125.672-.194v-.125c-.254-.251-.433-.589-.7-.825a18.734,18.734,0,0,0-2.306-1.721c-.433-.281-.995-.46-1.455-.7-.167-.084-.445-.125-.544-.266a5.686,5.686,0,0,1-.574-1.076c-.406-.768-.8-1.619-1.147-2.432a14.743,14.743,0,0,0-.714-1.592A14.063,14.063,0,0,0,106.233,2a6.691,6.691,0,0,0-1.79-.574c-.35-.015-.7-.042-1.049-.057a5.516,5.516,0,0,1-.642-.49c-.8-.5-2.853-1.592-3.439-.152-.376.908.559,1.8.881,2.265a6.476,6.476,0,0,1,.711,1.049c.1.239.125.49.224.741a17,17,0,0,0,.726,1.873,6.5,6.5,0,0,0,.517.866c.114.155.308.224.35.475a4.1,4.1,0,0,0-.323,1.049,6.166,6.166,0,0,0,.406,4.7c.224.35.756,1.12,1.47.825.63-.251.49-1.049.672-1.748.042-.17.015-.281.1-.391v.027c.194.391.391.768.574,1.159a7.969,7.969,0,0,0,1.819,1.873c.335.254.6.684,1.019.84v-.042h-.027a1.442,1.442,0,0,0-.323-.278,6.583,6.583,0,0,1-.726-.84,17.923,17.923,0,0,1-1.565-2.545c-.224-.433-.418-.908-.6-1.341-.084-.167-.084-.418-.224-.5a5.416,5.416,0,0,0-.672.95,7.908,7.908,0,0,0-.391,2.112c-.057.015-.027,0-.057.027-.448-.111-.6-.574-.768-.962a6.054,6.054,0,0,1-.125-3.734c.1-.293.517-1.216.35-1.5-.084-.266-.364-.418-.517-.63a5.283,5.283,0,0,1-.5-.9c-.335-.783-.5-1.649-.866-2.432a7.437,7.437,0,0,0-.7-1.076,6.983,6.983,0,0,1-.771-1.09c-.069-.155-.167-.406-.057-.574a.222.222,0,0,1,.2-.182c.182-.152.7.042.881.125a7.143,7.143,0,0,1,1.383.7c.2.14.406.406.657.475h.293c.448.1.95.027,1.371.152a8.965,8.965,0,0,1,2.014.965A12.426,12.426,0,0,1,111.076,8c.167.32.239.615.391.95.293.687.657,1.386.95,2.055a9.1,9.1,0,0,0,.995,1.873c.209.293,1.049.448,1.425.6a9.571,9.571,0,0,1,.965.391c.475.293.95.63,1.4.95.224.167.923.517.965.8" transform="translate(-69.582 -0.01)" fill="rgba(0,0,0,0.46)" fill-rule="evenodd"/>
        <path id="Path_5498" data-name="Path 5498" d="M160.6,100.619h.29V99.2h-.436l-.356.968-.385-.968H159.3v1.419h.275V99.541h.015l.4,1.079h.209l.4-1.079v1.079Zm-2.333,0h.308V99.442h.4V99.2H157.85v.242h.418Z" transform="translate(-110.691 -69.567)" fill="rgba(0,0,0,0.46)"/>
      </g>
    </g>
  </g>
</svg>
