<svg id="b" xmlns="http://www.w3.org/2000/svg" width="135.988" height="24.22" viewBox="0 0 135.988 24.22">
  <g id="c">
    <path id="Path_5437" data-name="Path 5437" d="M13.407,24.209a.621.621,0,0,0-.124-.093,2.23,2.23,0,0,1-1.305-1.333,8.861,8.861,0,0,1-.574-3.167c-.028-.715-.054-1.432-.082-2.209a3.542,3.542,0,0,1-2.461.7,5.767,5.767,0,0,1-1.252-.26A1.194,1.194,0,0,1,6.7,16.793c-.119.124-.22.234-.328.342a1.743,1.743,0,0,1-2.681.031,7.058,7.058,0,0,1-1.5-2.421A31.733,31.733,0,0,1,.075,6.852a7.389,7.389,0,0,1,.288-3.37A4.3,4.3,0,0,1,4.177.4,10.571,10.571,0,0,1,8.935,1,.642.642,0,0,0,9.528.942,5.171,5.171,0,0,1,12.924.3,9.81,9.81,0,0,0,15.757.111,7.637,7.637,0,0,1,21.9,1.535a3.541,3.541,0,0,1,1.534,3.294c-.062.616-.11,1.235-.232,1.839a22.554,22.554,0,0,1-2.981,7.4c-.068.113-.133.226-.212.364a4.372,4.372,0,0,0,1.9,0c.288-.042.579-.09.87-.11a.682.682,0,0,1,.684.35.719.719,0,0,1-.062.8,3.307,3.307,0,0,1-1.478,1.144,5.59,5.59,0,0,1-3.139.435c-.076-.011-.155-.014-.291-.025-.042.472-.1.935-.119,1.4a12.483,12.483,0,0,1-.477,3.161,3.391,3.391,0,0,1-2.678,2.483,3.314,3.314,0,0,0-.387.136H13.41Zm-1.836-7.6c0,.2-.006.316,0,.427.068,1.54.088,3.082.218,4.616a2.391,2.391,0,0,0,2.218,2.257,4.223,4.223,0,0,0,1.17-.119,2.864,2.864,0,0,0,2.483-2.5c.167-1.02.288-2.048.427-3.074.073-.554.136-1.107.206-1.678a4.647,4.647,0,0,0,2.249.085,3.975,3.975,0,0,0,2.415-1.237c.121-.136.124-.379.184-.571a1.862,1.862,0,0,0-.579-.155c-.661.045-1.319.161-1.98.195a1.278,1.278,0,0,1-1.014-.3c.684-1.356,1.4-2.644,1.995-3.983A15.749,15.749,0,0,0,23.041,4.7a2.813,2.813,0,0,0-.477-1.989A6.071,6.071,0,0,0,20.379.987,8.56,8.56,0,0,0,14.334.741a.954.954,0,0,1-.356.04C13.687.744,13.4.665,13.113.637a5.371,5.371,0,0,0-3.523.638.65.65,0,0,1-.624.059A10.708,10.708,0,0,0,4.488.679,4.026,4.026,0,0,0,.742,3.368,6.85,6.85,0,0,0,.434,6.894c.237,1.449.557,2.89.921,4.311A17.234,17.234,0,0,0,3.16,15.87a5.219,5.219,0,0,0,.78,1.011A1.389,1.389,0,0,0,6.149,16.8c.167-.184.316-.381.48-.568.565-.638,1.133-1.277,1.63-1.834l1.706.432c0,.042.023.17-.028.237-.288.384-.54.814-1.054.949-.412.107-.831.2-1.24.325-.257.076-.542.161-.554.5s.251.463.494.576a3.65,3.65,0,0,0,2.051.266,3.118,3.118,0,0,0,1.932-1.076ZM7.3,16.062c.726-.3,1.672-.071,2.164-.9-.325-.1-.63-.206-.938-.294a.233.233,0,0,0-.2.057C7.98,15.3,7.641,15.68,7.3,16.062Z" transform="translate(0.002 0.011)" fill="rgba(0,0,0,0.46)"/>
    <path id="Path_5438" data-name="Path 5438" d="M398.26,40.688c-.729-.5-1.43-.994-2.139-1.475a.435.435,0,0,0-.328-.082,9.046,9.046,0,0,1-3.628.706,10.034,10.034,0,0,1-4.726-.794,5.976,5.976,0,0,1-3.712-5.4,6.18,6.18,0,0,1,1.446-4.611,6.69,6.69,0,0,1,3.7-2.1,11.615,11.615,0,0,1,6.116.2,6.115,6.115,0,0,1,4.418,6.306,5.847,5.847,0,0,1-1.531,4.037c-.257.268-.548.5-.856.777l2.24,1.526-1,.915Zm-6.676-1.882h.339a7.269,7.269,0,0,0,2.859-.6,5.005,5.005,0,0,0,3.079-4.65,5.279,5.279,0,0,0-3.924-5.6,8.683,8.683,0,0,0-3.885-.192,5.275,5.275,0,0,0-4.783,5.1,5.251,5.251,0,0,0,3.1,5.3,7.022,7.022,0,0,0,3.221.641Z" transform="translate(-275.31 -19.09)" fill="rgba(0,0,0,0.46)"/>
    <path id="Path_5439" data-name="Path 5439" d="M349.831,30.537h-1.574c-.042-.266-.065-.523-.13-.771a2.418,2.418,0,0,0-1.8-1.757,8.633,8.633,0,0,0-5.068.028,2.024,2.024,0,0,0-1.382,2.517,1.618,1.618,0,0,0,1.136,1.237c.816.251,1.653.432,2.489.61,1.455.308,2.916.585,4.37.879a3.221,3.221,0,0,1,.353.116,2.671,2.671,0,0,1,2.023,2.365,3.106,3.106,0,0,1-1.591,3.28,6.7,6.7,0,0,1-2.749.763,13.672,13.672,0,0,1-5.1-.364,6.632,6.632,0,0,1-.76-.283,3.66,3.66,0,0,1-2.243-3.7h1.574c.037.257.059.534.116.8a2.886,2.886,0,0,0,1.983,2.161,9.062,9.062,0,0,0,3.6.4,5.97,5.97,0,0,0,2.3-.48A2.19,2.19,0,0,0,348.625,36a1.818,1.818,0,0,0-1.509-1.689c-1.294-.3-2.61-.5-3.913-.763-.938-.189-1.882-.364-2.805-.619a2.775,2.775,0,0,1-2.1-3.421,2.819,2.819,0,0,1,2.189-2.4,12.439,12.439,0,0,1,4.122-.421,9.08,9.08,0,0,1,2.76.452,3.322,3.322,0,0,1,2.464,3.39Z" transform="translate(-242.374 -19.14)" fill="rgba(0,0,0,0.46)"/>
    <path id="Path_5440" data-name="Path 5440" d="M246.12,42.442v7.783a3.344,3.344,0,0,1-2.975,3.721,10.827,10.827,0,0,1-4.834-.093,2.674,2.674,0,0,1-2.153-2.415h1.311a2.339,2.339,0,0,0,2.387,1.834,9.42,9.42,0,0,0,2.76-.093,2.5,2.5,0,0,0,2.164-2.3,15.134,15.134,0,0,0,.011-1.828c-1.365,1.449-3.108,1.6-4.91,1.444A7.049,7.049,0,0,1,237.893,50a3.373,3.373,0,0,1-2.144-3.029,6.027,6.027,0,0,1,.09-1.774,3.493,3.493,0,0,1,2.545-2.681,7.889,7.889,0,0,1,4.308-.13,3.839,3.839,0,0,1,1.831,1.155c.071.071.147.138.268.254v-1.35h1.325Zm-5.136.571-.008.045c-.249.014-.494.02-.743.045a3.178,3.178,0,0,0-3.175,3.464,2.808,2.808,0,0,0,2.308,2.882,8.3,8.3,0,0,0,2.209.186,3.128,3.128,0,0,0,3.218-2.819,3.033,3.033,0,0,0-2.218-3.537,13.572,13.572,0,0,0-1.593-.26Z" transform="translate(-169.126 -30.24)" fill="rgba(0,0,0,0.46)"/>
    <path id="Path_5441" data-name="Path 5441" d="M100.35,27.82a.488.488,0,0,1,.1-.028c2.642-.006,5.283-.04,7.924,0a3.493,3.493,0,0,1,2.865,1.365A3.575,3.575,0,0,1,109.2,34.8a7.271,7.271,0,0,1-1.639.206c-1.794.025-3.591.008-5.385.008h-.3v5.323H100.35Zm1.534,1.034V34c.059.006.1.011.147.011,1.805,0,3.613.008,5.419-.006a4.861,4.861,0,0,0,1.1-.153,2.289,2.289,0,0,0,1.475-.994,2.552,2.552,0,0,0-1.9-3.975c-2.068-.121-4.147-.028-6.246-.028Z" transform="translate(-71.999 -19.924)" fill="rgba(0,0,0,0.46)"/>
    <path id="Path_5442" data-name="Path 5442" d="M307.03,46.751h-9.114a2.894,2.894,0,0,0,1.746,2.853,5.373,5.373,0,0,0,4.147.1,2.741,2.741,0,0,0,1.633-1.757h1.407a3.53,3.53,0,0,1-1.808,2.257,6.567,6.567,0,0,1-3.235.7,6.872,6.872,0,0,1-2.675-.489,4.309,4.309,0,0,1-1.562-6.817,3.959,3.959,0,0,1,1.845-1.144,7.929,7.929,0,0,1,4.766,0,4.1,4.1,0,0,1,2.853,4.286Zm-1.376-.788a2.573,2.573,0,0,0-.766-1.791,4.66,4.66,0,0,0-5.9-.356,3.406,3.406,0,0,0-1.1,2.147Z" transform="translate(-212.727 -30.201)" fill="rgba(0,0,0,0.46)"/>
    <path id="Path_5443" data-name="Path 5443" d="M188.772,44.894h-1.317c-.195-1.192-.7-1.661-2.088-1.853a7.193,7.193,0,0,0-2.757.116,2.618,2.618,0,0,0-.8.345,1.1,1.1,0,0,0,.17,1.989,6.7,6.7,0,0,0,1.54.353c1.17.175,2.348.3,3.517.475a3.6,3.6,0,0,1,.9.28,1.812,1.812,0,0,1,1.223,1.562,2.021,2.021,0,0,1-.848,1.944,4.291,4.291,0,0,1-2.057.706,11.787,11.787,0,0,1-4.6-.229,2.547,2.547,0,0,1-2.006-2.486h1.387s.023.011.023.028a1.726,1.726,0,0,0,1.413,1.712,7.748,7.748,0,0,0,4.209-.014A1.319,1.319,0,0,0,186.5,47.2c-1.184-.17-2.37-.311-3.554-.48-.48-.068-.958-.155-1.427-.266a1.824,1.824,0,0,1-1.545-1.61,1.958,1.958,0,0,1,1.3-2.232,11.482,11.482,0,0,1,2.379-.449,8.066,8.066,0,0,1,3.28.305,2.391,2.391,0,0,1,1.836,2.062c.008.068.011.136.014.2,0,.042-.006.085-.011.153Z" transform="translate(-128.896 -30.217)" fill="rgba(0,0,0,0.46)"/>
    <path id="Path_5444" data-name="Path 5444" d="M145.1,50.97a16.08,16.08,0,0,1-1.873-.283,3.957,3.957,0,0,1-3.125-3.7,4.023,4.023,0,0,1,2.02-4.144,5.4,5.4,0,0,1,2.283-.67,8.234,8.234,0,0,1,3.379.311,3.845,3.845,0,0,1,2.839,3.492,4.178,4.178,0,0,1-1.189,3.681,4.958,4.958,0,0,1-2.851,1.2c-.424.054-.853.068-1.486.119Zm.034-.873c.548-.054.935-.062,1.311-.13a3.029,3.029,0,0,0,2.735-2.308,5.885,5.885,0,0,0,.1-1.74,2.845,2.845,0,0,0-2.187-2.653,6.143,6.143,0,0,0-2.746-.164,3.354,3.354,0,0,0-2.845,4.238,2.958,2.958,0,0,0,2.11,2.452,10.812,10.812,0,0,0,1.528.3Z" transform="translate(-100.506 -30.222)" fill="rgba(0,0,0,0.46)"/>
    <path id="Path_5445" data-name="Path 5445" d="M442.94,27.81h1.486V39.294h9.365v1.071H442.943V27.81Z" transform="translate(-317.803 -19.95)" fill="rgba(0,0,0,0.46)"/>
    <path id="Path_5446" data-name="Path 5446" d="M217.512,36.3h2.221v.873h-2.215v5.421c0,.833.246,1.122,1.079,1.2.367.034.737.006,1.133.006v.783a4.794,4.794,0,0,1-2.653-.167,1.41,1.41,0,0,1-.856-1.475c-.006-1.791,0-3.582,0-5.373v-.39H214.56v-.85H216.2v-2.7h1.319V36.3Z" transform="translate(-153.944 -24.119)" fill="rgba(0,0,0,0.46)"/>
    <path id="Path_5447" data-name="Path 5447" d="M278.877,43.851c.076-.09.1-.11.116-.138a2.341,2.341,0,0,1,2.023-1.52c.689-.076,1.387-.09,2.1-.133v1.09c-.525,0-1.054-.042-1.571.008a2.61,2.61,0,0,0-2.591,2.608c-.085,1.13-.051,2.271-.065,3.407-.006.46,0,.924,0,1.41H277.62v-8.2h1.257v1.469Z" transform="translate(-199.188 -30.174)" fill="rgba(0,0,0,0.46)"/>
    <path id="Path_5448" data-name="Path 5448" d="M12.427,17.431a3.118,3.118,0,0,1-1.932,1.076,3.65,3.65,0,0,1-2.051-.266c-.243-.11-.509-.246-.494-.576s.3-.427.554-.5c.41-.121.825-.215,1.24-.325.514-.136.766-.568,1.054-.949.051-.068.023-.192.028-.237l-1.706-.432c-.494.557-1.065,1.2-1.63,1.834-.164.186-.314.384-.48.568A1.389,1.389,0,0,1,4.8,17.7a5.423,5.423,0,0,1-.78-1.011,17.234,17.234,0,0,1-1.805-4.664C1.85,10.6,1.534,9.159,1.293,7.712A6.85,6.85,0,0,1,1.6,4.186,4.022,4.022,0,0,1,5.348,1.5a10.708,10.708,0,0,1,4.478.655.65.65,0,0,0,.624-.059,5.388,5.388,0,0,1,3.523-.638c.291.028.576.107.864.144a.954.954,0,0,0,.356-.04,8.576,8.576,0,0,1,6.046.246,6.071,6.071,0,0,1,2.184,1.723A2.8,2.8,0,0,1,23.9,5.517a15.8,15.8,0,0,1-1.48,5.876c-.593,1.342-1.311,2.627-1.995,3.983a1.288,1.288,0,0,0,1.014.3c.661-.034,1.319-.15,1.98-.195a1.807,1.807,0,0,1,.579.155c-.059.192-.062.435-.184.571A3.975,3.975,0,0,1,21.4,17.447a4.613,4.613,0,0,1-2.249-.085c-.071.571-.133,1.127-.206,1.678-.136,1.026-.26,2.054-.427,3.074a2.861,2.861,0,0,1-2.483,2.5,4.223,4.223,0,0,1-1.17.119,2.391,2.391,0,0,1-2.218-2.257c-.133-1.534-.153-3.077-.218-4.616-.006-.113,0-.226,0-.427Zm.362,3.13.113,1.314a4.207,4.207,0,0,0,.085.732c.263.918.8,1.7,1.723,1.774,1.362.11,3.221-.342,3.483-2.365.237-1.839.455-3.684.67-5.526a1.15,1.15,0,0,1,.842-1.1,1.523,1.523,0,0,0,.209-.085c-.557-.977-1.113-1.927-1.639-2.89a9.751,9.751,0,0,1-1.206-3.133A1.761,1.761,0,0,1,18.911,7.04c.39-.014.78,0,1.184,0-.017-.068-.034-.144-.057-.218a7.411,7.411,0,0,0-6.854-5.085,4.353,4.353,0,0,0-2.972.927C8.582,4.022,8.187,5.9,7.995,7.932c.144-.073.232-.116.319-.164a4.794,4.794,0,0,1,2.017-.622,1.633,1.633,0,0,1,1.822,1.268,7.528,7.528,0,0,1-.429,5.4,13.635,13.635,0,0,0-.607,1.675,1.216,1.216,0,0,1,1.658,1.254v1.585l.017,2.238ZM9.845,2.5a11.034,11.034,0,0,0-4.659-.661,3.732,3.732,0,0,0-3.4,2.879,6.571,6.571,0,0,0-.209,2.577A29.967,29.967,0,0,0,3.8,15.572a5.465,5.465,0,0,0,1.246,1.913,1.018,1.018,0,0,0,1.627-.02c.751-.808,1.461-1.653,2.212-2.514-.121-.11-.254-.215-.37-.336a3.544,3.544,0,0,1-.946-2.822,21.542,21.542,0,0,0,.1-2.56A10.594,10.594,0,0,1,8.43,4.477,5.7,5.7,0,0,1,9.842,2.5Zm5.766-.72a1.061,1.061,0,0,0,.141.093A7.673,7.673,0,0,1,19.4,4.825a4.593,4.593,0,0,1,.972,3.825,6.742,6.742,0,0,0-.02,2.585,4.442,4.442,0,0,1-.523,3.235l.4.5c.5-.938,1.009-1.794,1.432-2.684a17.639,17.639,0,0,0,1.913-6.738,2.283,2.283,0,0,0-.48-1.873,8.7,8.7,0,0,0-1.624-1.353,7.724,7.724,0,0,0-5.854-.542ZM10.825,15.218c.22-.582.387-1.161.653-1.692a7.141,7.141,0,0,0,.328-5.074A1.171,1.171,0,0,0,10.673,7.5a3.941,3.941,0,0,0-2.528.788c-.088.059-.119.251-.124.381-.025.921-.008,1.845-.065,2.766a4.754,4.754,0,0,0,.073,1.672,2.816,2.816,0,0,0,2.794,2.1Zm8.741-1.071c.062-.045.088-.054.1-.071a1.5,1.5,0,0,0,.082-.147,3.879,3.879,0,0,0,.314-2.243A9.535,9.535,0,0,1,20.027,8.6c.057-.274.068-.559.107-.836.031-.234-.042-.37-.3-.367-.373,0-.746-.028-1.116.006A1.3,1.3,0,0,0,17.4,8.531a2.845,2.845,0,0,0,.028.805c.319,1.769,1.384,3.207,2.139,4.811ZM8.274,17.6v.127a2.762,2.762,0,0,0,.325.223,3.017,3.017,0,0,0,3.656-.85.835.835,0,0,0-.172-1.2c-.356-.283-.638-.226-1,.206a.98.98,0,0,0-.085.1A2.474,2.474,0,0,1,9.159,17.34,7.169,7.169,0,0,0,8.274,17.6Zm15.473-1.831c-.641.088-1.184.172-1.729.232a2.407,2.407,0,0,1-1.579-.22.752.752,0,0,0-.867.045.965.965,0,0,0-.362,1.048c.1.316.4.285.647.311A5.173,5.173,0,0,0,22,16.967a3.409,3.409,0,0,0,1.752-1.2Z" transform="translate(-0.855 -0.807)" fill="#fff"/>
    <path id="Path_5449" data-name="Path 5449" d="M30.04,19.856c0-.528,0-1.057,0-1.585a1.214,1.214,0,0,0-1.658-1.254,12.915,12.915,0,0,1,.607-1.675,7.542,7.542,0,0,0,.429-5.4A1.631,1.631,0,0,0,27.6,8.677a4.876,4.876,0,0,0-2.017.622c-.085.048-.172.09-.319.164.192-2.028.588-3.913,2.218-5.269a4.353,4.353,0,0,1,2.972-.927A7.413,7.413,0,0,1,37.3,8.352c.023.073.04.15.056.218-.4,0-.794-.011-1.184,0a1.76,1.76,0,0,0-1.842,2.243,9.816,9.816,0,0,0,1.206,3.133c.525.963,1.082,1.91,1.639,2.89a1.524,1.524,0,0,1-.209.085,1.15,1.15,0,0,0-.842,1.1c-.215,1.842-.432,3.687-.67,5.526-.26,2.023-2.122,2.475-3.483,2.365-.921-.073-1.458-.856-1.723-1.774a4.428,4.428,0,0,1-.085-.732V22.1c0-.283.02-.565,0-.845-.031-.466-.088-.932-.133-1.4Z" transform="translate(-18.123 -2.34)" fill="rgba(0,0,0,0.46)"/>
    <path id="Path_5450" data-name="Path 5450" d="M10.7,4.184a5.7,5.7,0,0,0-1.413,1.98,10.594,10.594,0,0,0-.754,4.755,21.542,21.542,0,0,1-.1,2.56A3.541,3.541,0,0,0,9.383,16.3c.116.121.249.226.37.336C9,17.5,8.289,18.343,7.541,19.151a1.018,1.018,0,0,1-1.627.02,5.505,5.505,0,0,1-1.246-1.913A29.967,29.967,0,0,1,2.439,8.981,6.518,6.518,0,0,1,2.648,6.4a3.725,3.725,0,0,1,3.4-2.882A10.946,10.946,0,0,1,10.7,4.184Z" transform="translate(-1.715 -2.491)" fill="rgba(0,0,0,0.46)"/>
    <path id="Path_5451" data-name="Path 5451" d="M52.223,2.615a7.711,7.711,0,0,1,5.854.542A8.6,8.6,0,0,1,59.7,4.511a2.285,2.285,0,0,1,.48,1.873,17.589,17.589,0,0,1-1.913,6.738c-.424.893-.929,1.746-1.432,2.684l-.4-.5a4.442,4.442,0,0,0,.523-3.235,6.8,6.8,0,0,1,.02-2.585,4.593,4.593,0,0,0-.972-3.825,7.673,7.673,0,0,0-3.647-2.952,1.3,1.3,0,0,1-.141-.093Z" transform="translate(-37.467 -1.643)" fill="rgba(0,0,0,0.46)"/>
    <path id="Path_5452" data-name="Path 5452" d="M27.9,31.379a2.819,2.819,0,0,1-2.794-2.1,4.624,4.624,0,0,1-.073-1.672c.057-.921.04-1.845.065-2.766,0-.133.034-.322.124-.381a3.93,3.93,0,0,1,2.528-.788,1.171,1.171,0,0,1,1.133.952,7.141,7.141,0,0,1-.328,5.074,17.551,17.551,0,0,0-.653,1.692Zm-.189-7.213c-.525,0-.74.2-.624.5a.761.761,0,0,0,1.24.232c.189-.2.172-.432-.076-.551a3.4,3.4,0,0,0-.54-.175Z" transform="translate(-17.929 -16.971)" fill="rgba(0,0,0,0.46)"/>
    <path id="Path_5453" data-name="Path 5453" d="M60.676,30.02c-.754-1.6-1.819-3.043-2.139-4.811a2.852,2.852,0,0,1-.028-.805,1.3,1.3,0,0,1,1.317-1.133c.37-.034.743,0,1.116-.006.257,0,.331.136.3.367-.04.28-.051.562-.107.836a9.534,9.534,0,0,0,.034,3.091,3.885,3.885,0,0,1-.314,2.243,1.5,1.5,0,0,1-.082.147c-.011.017-.034.025-.1.071ZM60,23.582l-.048.065a2.708,2.708,0,0,0-.3.037c-.412.085-.607.266-.548.5a.7.7,0,0,0,.768.407.656.656,0,0,0,.353-.175c.119-.147.283-.367.24-.5-.048-.147-.3-.229-.463-.336Z" transform="translate(-41.967 -16.683)" fill="rgba(0,0,0,0.46)"/>
    <path id="Path_5454" data-name="Path 5454" d="M26.25,54.675a6.2,6.2,0,0,1,.884-.26,2.479,2.479,0,0,0,1.836-1.124.98.98,0,0,1,.085-.1c.364-.429.65-.489,1-.206a.835.835,0,0,1,.172,1.2,3.017,3.017,0,0,1-3.656.85,2.763,2.763,0,0,1-.325-.223Z" transform="translate(-18.834 -37.885)" fill="rgba(0,0,0,0.46)"/>
    <path id="Path_5455" data-name="Path 5455" d="M69.4,52.657a3.386,3.386,0,0,1-1.752,1.2,5.215,5.215,0,0,1-2.139.218c-.246-.025-.548,0-.647-.311a.965.965,0,0,1,.362-1.048.752.752,0,0,1,.867-.045,2.39,2.39,0,0,0,1.579.22c.545-.059,1.088-.144,1.729-.232Z" transform="translate(-46.515 -37.698)" fill="rgba(0,0,0,0.46)"/>
    <path id="Path_5456" data-name="Path 5456" d="M42.18,61.99c.045.466.1.929.133,1.4.02.28,0,.562,0,.845-.04,0-.076,0-.116,0Z" transform="translate(-30.263 -44.474)" fill="rgba(0,0,0,0.46)"/>
    <path id="Path_5457" data-name="Path 5457" d="M42.24,69.9c.04,0,.076,0,.116,0v1.308c-.037-.438-.076-.876-.113-1.314Z" transform="translate(-30.306 -50.149)" fill="rgba(0,0,0,0.46)"/>
    <path id="Path_5458" data-name="Path 5458" d="M32.959,25.453a3.307,3.307,0,0,1,.54.175c.249.121.266.347.076.551a.761.761,0,0,1-1.24-.232c-.113-.291.1-.494.624-.5Z" transform="translate(-23.178 -18.257)" fill="#fff"/>
    <path id="Path_5459" data-name="Path 5459" d="M61.532,24.4c.164.11.415.189.463.336.042.13-.121.35-.24.5a.656.656,0,0,1-.353.175A.7.7,0,0,1,60.633,25c-.059-.237.136-.418.548-.5.1-.02.2-.023.3-.037l.048-.065Z" transform="translate(-43.496 -17.504)" fill="#fff"/>
  </g>
</svg>
