<svg xmlns="http://www.w3.org/2000/svg" id="b" width="135.988" height="24.22" viewBox="0 0 135.988 24.22"><g id="c"><path id="Path_5437" fill="rgba(0,0,0,0.46)" d="m13.4 24.2-.12-.08a2.2 2.2 0 0 1-1.3-1.34 9 9 0 0 1-.58-3.16l-.08-2.21a3.5 3.5 0 0 1-2.46.7 6 6 0 0 1-1.25-.26 1.2 1.2 0 0 1-.91-1.06l-.33.35a1.74 1.74 0 0 1-2.68.03 7 7 0 0 1-1.5-2.43A32 32 0 0 1 .08 6.85a7.4 7.4 0 0 1 .28-3.37A4.3 4.3 0 0 1 4.18.4a10.6 10.6 0 0 1 4.76.6.6.6 0 0 0 .59-.06 5.2 5.2 0 0 1 3.4-.64 10 10 0 0 0 2.83-.19 7.6 7.6 0 0 1 6.14 1.42 3.5 3.5 0 0 1 1.53 3.3c-.06.61-.1 1.23-.23 1.84a23 23 0 0 1-2.98 7.4l-.21.36a4 4 0 0 0 1.9 0q.43-.07.87-.1a.7.7 0 0 1 .68.34.7.7 0 0 1-.06.8 3.3 3.3 0 0 1-1.48 1.15 5.6 5.6 0 0 1-3.14.43l-.29-.02q-.08.7-.12 1.4a13 13 0 0 1-.47 3.16 3.4 3.4 0 0 1-2.68 2.48l-.39.14zm-1.83-7.6v.44c.07 1.54.09 3.08.22 4.61A2.4 2.4 0 0 0 14 23.91a4 4 0 0 0 1.17-.12 2.86 2.86 0 0 0 2.48-2.5q.24-1.53.43-3.07l.2-1.68a5 5 0 0 0 2.25.08 4 4 0 0 0 2.42-1.23c.12-.14.12-.38.18-.57a2 2 0 0 0-.58-.16c-.66.05-1.32.16-1.98.2a1.3 1.3 0 0 1-1.01-.3c.68-1.36 1.4-2.65 2-3.99a16 16 0 0 0 1.47-5.87 2.8 2.8 0 0 0-.48-1.99A6 6 0 0 0 20.38 1a8.6 8.6 0 0 0-6.05-.25 1 1 0 0 1-.35.04Q13.54.7 13.1.64a5.4 5.4 0 0 0-3.52.64.7.7 0 0 1-.62.05A11 11 0 0 0 4.49.68 4 4 0 0 0 .74 3.37a7 7 0 0 0-.3 3.52q.35 2.18.92 4.32a17 17 0 0 0 1.8 4.66 5 5 0 0 0 .78 1.01 1.4 1.4 0 0 0 2.2-.08q.26-.28.49-.57l1.63-1.83 1.7.43c0 .04.03.17-.02.24-.3.38-.54.81-1.06.95q-.61.14-1.24.32c-.25.08-.54.16-.55.5s.25.46.5.58a3.7 3.7 0 0 0 2.04.26 3 3 0 0 0 1.94-1.07Zm-4.27-.54c.73-.3 1.67-.07 2.16-.9l-.93-.3a.2.2 0 0 0-.2.07z" transform="translate(.002 .011)"/><path id="Path_5438" fill="rgba(0,0,0,0.46)" d="m398.26 40.69-2.14-1.48a.4.4 0 0 0-.33-.08 9 9 0 0 1-3.63.7 10 10 0 0 1-4.72-.79 6 6 0 0 1-3.71-5.4 6.2 6.2 0 0 1 1.44-4.6 6.7 6.7 0 0 1 3.7-2.1 11.6 11.6 0 0 1 6.12.2 6.1 6.1 0 0 1 4.42 6.3 6 6 0 0 1-1.53 4.04q-.4.38-.86.77l2.24 1.53zm-6.68-1.88h.34a7 7 0 0 0 2.86-.6 5 5 0 0 0 3.08-4.65 5.3 5.3 0 0 0-3.92-5.6 9 9 0 0 0-3.89-.2 5.3 5.3 0 0 0-4.78 5.1 5.25 5.25 0 0 0 3.1 5.3 7 7 0 0 0 3.22.65Z" transform="translate(-275.31 -19.09)"/><path id="Path_5439" fill="rgba(0,0,0,0.46)" d="M349.83 30.54h-1.57q-.05-.4-.13-.77a2.4 2.4 0 0 0-1.8-1.76 8.6 8.6 0 0 0-5.07.03 2 2 0 0 0-1.38 2.51A1.6 1.6 0 0 0 341 31.8q1.24.36 2.5.61l4.36.88.36.12a2.7 2.7 0 0 1 2.02 2.36 3.1 3.1 0 0 1-1.6 3.28 7 7 0 0 1-2.74.76 14 14 0 0 1-5.1-.36 7 7 0 0 1-.76-.28 3.7 3.7 0 0 1-2.25-3.7h1.58q.04.39.12.8a2.9 2.9 0 0 0 1.98 2.16 9 9 0 0 0 3.6.4 6 6 0 0 0 2.3-.48 2.2 2.2 0 0 0 1.25-2.34 1.8 1.8 0 0 0-1.51-1.69c-1.3-.3-2.61-.5-3.92-.76-.94-.2-1.88-.37-2.8-.62a2.8 2.8 0 0 1-2.1-3.42 2.8 2.8 0 0 1 2.19-2.4 12 12 0 0 1 4.12-.42 9 9 0 0 1 2.76.45 3.3 3.3 0 0 1 2.46 3.39Z" transform="translate(-242.374 -19.14)"/><path id="Path_5440" fill="rgba(0,0,0,0.46)" d="M246.12 42.44v7.79a3.34 3.34 0 0 1-2.97 3.72 11 11 0 0 1-4.84-.1 2.7 2.7 0 0 1-2.15-2.41h1.3a2.34 2.34 0 0 0 2.4 1.83 9 9 0 0 0 2.76-.1 2.5 2.5 0 0 0 2.16-2.3 15 15 0 0 0 .01-1.82c-1.36 1.45-3.1 1.6-4.9 1.44a7 7 0 0 1-2-.49 3.4 3.4 0 0 1-2.14-3.03 6 6 0 0 1 .09-1.77 3.5 3.5 0 0 1 2.54-2.68 8 8 0 0 1 4.31-.13 4 4 0 0 1 1.83 1.15l.27.26v-1.35zm-5.14.57v.05l-.75.04a3.2 3.2 0 0 0-3.17 3.47 2.8 2.8 0 0 0 2.3 2.88 8 8 0 0 0 2.21.18 3.13 3.13 0 0 0 3.22-2.81 3.03 3.03 0 0 0-2.22-3.54 14 14 0 0 0-1.59-.26Z" transform="translate(-169.126 -30.24)"/><path id="Path_5441" fill="rgba(0,0,0,0.46)" d="m100.35 27.82.1-.03c2.64 0 5.28-.04 7.92 0a3.5 3.5 0 0 1 2.87 1.37 3.58 3.58 0 0 1-2.04 5.64 7 7 0 0 1-1.64.2q-2.7.03-5.38.01h-.3v5.33h-1.53Zm1.53 1.03V34l.15.01h5.42a5 5 0 0 0 1.1-.16 2.3 2.3 0 0 0 1.48-1 2.55 2.55 0 0 0-1.9-3.97c-2.07-.12-4.15-.02-6.25-.02Z" transform="translate(-71.999 -19.924)"/><path id="Path_5442" fill="rgba(0,0,0,0.46)" d="M307.03 46.75h-9.11a2.9 2.9 0 0 0 1.74 2.85 5.4 5.4 0 0 0 4.15.1 2.7 2.7 0 0 0 1.63-1.75h1.4a3.5 3.5 0 0 1-1.8 2.25 6.6 6.6 0 0 1-3.23.7 7 7 0 0 1-2.68-.48 4.3 4.3 0 0 1-1.56-6.82 4 4 0 0 1 1.84-1.15 8 8 0 0 1 4.77 0 4.1 4.1 0 0 1 2.85 4.29Zm-1.38-.79a2.6 2.6 0 0 0-.76-1.79 4.66 4.66 0 0 0-5.9-.35 3.4 3.4 0 0 0-1.1 2.14Z" transform="translate(-212.727 -30.201)"/><path id="Path_5443" fill="rgba(0,0,0,0.46)" d="M188.77 44.9h-1.32c-.19-1.2-.7-1.67-2.08-1.86a7 7 0 0 0-2.76.12 3 3 0 0 0-.8.34 1.1 1.1 0 0 0 .17 2 7 7 0 0 0 1.54.34c1.17.18 2.35.3 3.52.48a4 4 0 0 1 .9.28 1.8 1.8 0 0 1 1.22 1.56 2 2 0 0 1-.85 1.94 4.3 4.3 0 0 1-2.06.71 12 12 0 0 1-4.6-.23 2.55 2.55 0 0 1-2-2.48h1.39s.02 0 .02.02a1.7 1.7 0 0 0 1.41 1.72 8 8 0 0 0 4.21-.02 1.32 1.32 0 0 0-.18-2.62l-3.55-.48q-.72-.1-1.43-.27a1.8 1.8 0 0 1-1.55-1.6 1.96 1.96 0 0 1 1.3-2.24 12 12 0 0 1 2.38-.45 8 8 0 0 1 3.28.3 2.4 2.4 0 0 1 1.84 2.07l.01.2v.15Z" transform="translate(-128.896 -30.217)"/><path id="Path_5444" fill="rgba(0,0,0,0.46)" d="M145.1 50.97a16 16 0 0 1-1.87-.28 3.96 3.96 0 0 1-3.13-3.7 4 4 0 0 1 2.02-4.15 5.4 5.4 0 0 1 2.29-.67 8 8 0 0 1 3.37.31 3.85 3.85 0 0 1 2.84 3.5 4.2 4.2 0 0 1-1.19 3.68 5 5 0 0 1-2.85 1.2c-.42.05-.85.06-1.48.12Zm.03-.87c.55-.06.94-.07 1.31-.13a3 3 0 0 0 2.74-2.31 6 6 0 0 0 .1-1.74 2.85 2.85 0 0 0-2.19-2.65 6 6 0 0 0-2.74-.17 3.35 3.35 0 0 0-2.85 4.24 3 3 0 0 0 2.11 2.45 11 11 0 0 0 1.53.3Z" transform="translate(-100.506 -30.222)"/><path id="Path_5445" fill="rgba(0,0,0,0.46)" d="M442.94 27.81h1.49v11.48h9.36v1.07h-10.85z" transform="translate(-317.803 -19.95)"/><path id="Path_5446" fill="rgba(0,0,0,0.46)" d="M217.51 36.3h2.22v.87h-2.21v5.42c0 .84.24 1.13 1.08 1.2.36.04.73.01 1.13.01v.78a5 5 0 0 1-2.65-.16 1.4 1.4 0 0 1-.86-1.48v-5.77h-1.66v-.84h1.64v-2.7h1.32z" transform="translate(-153.944 -24.119)"/><path id="Path_5447" fill="rgba(0,0,0,0.46)" d="M278.88 43.85c.07-.09.1-.1.11-.14a2.3 2.3 0 0 1 2.03-1.52q1.03-.09 2.1-.13v1.09c-.53 0-1.06-.04-1.57 0a2.6 2.6 0 0 0-2.6 2.62c-.08 1.13-.05 2.27-.06 3.4v1.41h-1.27v-8.2h1.26z" transform="translate(-199.188 -30.174)"/><path id="Path_5448" fill="#fff" d="M12.43 17.43a3 3 0 0 1-1.93 1.08 3.7 3.7 0 0 1-2.06-.27c-.24-.1-.5-.24-.49-.57s.3-.43.55-.5q.62-.18 1.24-.33c.52-.14.77-.57 1.06-.95.05-.07.02-.2.03-.24l-1.71-.43-1.63 1.84-.48.56a1.4 1.4 0 0 1-2.21.08 5 5 0 0 1-.78-1.01 17 17 0 0 1-1.8-4.67 52 52 0 0 1-.93-4.3 7 7 0 0 1 .31-3.53A4 4 0 0 1 5.35 1.5a11 11 0 0 1 4.48.66.7.7 0 0 0 .62-.06 5.4 5.4 0 0 1 3.52-.64q.44.06.87.14a1 1 0 0 0 .35-.04 8.6 8.6 0 0 1 6.05.25 6 6 0 0 1 2.18 1.72 2.8 2.8 0 0 1 .48 1.99 16 16 0 0 1-1.48 5.87c-.6 1.35-1.31 2.63-2 3.99a1.3 1.3 0 0 0 1.02.3c.66-.04 1.32-.15 1.98-.2a2 2 0 0 1 .58.16c-.06.19-.06.43-.19.57a4 4 0 0 1-2.41 1.24 4.6 4.6 0 0 1-2.25-.09l-.2 1.68q-.2 1.54-.43 3.07a2.86 2.86 0 0 1-2.48 2.5 4 4 0 0 1-1.17.12 2.4 2.4 0 0 1-2.22-2.25c-.14-1.54-.16-3.08-.22-4.62zm.36 3.13.11 1.32a4 4 0 0 0 .09.73c.26.91.8 1.7 1.72 1.77 1.36.11 3.22-.34 3.48-2.36q.36-2.77.67-5.53a1.15 1.15 0 0 1 .85-1.1l.2-.09q-.83-1.45-1.63-2.89a10 10 0 0 1-1.21-3.13 1.76 1.76 0 0 1 1.84-2.24h1.19l-.06-.22a7.4 7.4 0 0 0-6.86-5.08 4.4 4.4 0 0 0-2.97.92C8.58 4.02 8.2 5.9 8 7.93l.32-.16a5 5 0 0 1 2.02-.62 1.63 1.63 0 0 1 1.82 1.26 7.5 7.5 0 0 1-.43 5.4 14 14 0 0 0-.6 1.68 1.22 1.22 0 0 1 1.65 1.25v1.59zM9.85 2.5a11 11 0 0 0-4.66-.66 3.7 3.7 0 0 0-3.4 2.88 7 7 0 0 0-.21 2.58 30 30 0 0 0 2.22 8.27 5.5 5.5 0 0 0 1.25 1.91 1.02 1.02 0 0 0 1.62-.02c.75-.8 1.46-1.65 2.21-2.5l-.37-.35a3.5 3.5 0 0 1-.94-2.82 22 22 0 0 0 .1-2.56 10.6 10.6 0 0 1 .76-4.75A6 6 0 0 1 9.84 2.5Zm5.76-.72.14.1a7.7 7.7 0 0 1 3.65 2.95 4.6 4.6 0 0 1 .97 3.82 7 7 0 0 0-.02 2.59 4.4 4.4 0 0 1-.52 3.23l.4.5c.5-.94 1-1.8 1.43-2.68a18 18 0 0 0 1.91-6.74 2.3 2.3 0 0 0-.48-1.88 9 9 0 0 0-1.62-1.35 7.7 7.7 0 0 0-5.85-.54Zm-4.78 13.44c.21-.58.38-1.16.65-1.7a7 7 0 0 0 .33-5.07 1.2 1.2 0 0 0-1.14-.95 4 4 0 0 0-2.52.79c-.1.06-.12.25-.13.38-.02.92 0 1.84-.06 2.77a5 5 0 0 0 .07 1.67 2.8 2.8 0 0 0 2.8 2.1Zm8.74-1.07.1-.07.08-.15a4 4 0 0 0 .31-2.24 10 10 0 0 1-.03-3.09q.06-.41.1-.84.08-.36-.3-.36c-.37 0-.74-.03-1.11 0a1.3 1.3 0 0 0-1.32 1.13 3 3 0 0 0 .03.8c.32 1.78 1.38 3.21 2.14 4.82M8.27 17.6v.13l.33.22a3 3 0 0 0 3.65-.85.84.84 0 0 0-.17-1.2c-.35-.28-.64-.23-1 .2l-.08.1a2.5 2.5 0 0 1-1.84 1.14 7 7 0 0 0-.89.26m15.48-1.83q-.94.14-1.73.23a2.4 2.4 0 0 1-1.58-.22.75.75 0 0 0-.87.05 1 1 0 0 0-.36 1.04c.1.32.4.29.65.32a5 5 0 0 0 2.14-.22 3.4 3.4 0 0 0 1.75-1.2" transform="translate(-.855 -.807)"/><path id="Path_5449" fill="rgba(0,0,0,0.46)" d="M30.04 19.86v-1.59a1.2 1.2 0 0 0-1.66-1.25 13 13 0 0 1 .6-1.68 7.5 7.5 0 0 0 .44-5.4 1.63 1.63 0 0 0-1.82-1.26 5 5 0 0 0-2.02.62l-.32.16c.2-2.03.6-3.91 2.22-5.27a4.4 4.4 0 0 1 2.97-.92 7.4 7.4 0 0 1 6.85 5.08l.06.22h-1.19a1.76 1.76 0 0 0-1.84 2.24 10 10 0 0 0 1.2 3.14l1.65 2.89-.21.08a1.15 1.15 0 0 0-.85 1.1q-.31 2.77-.67 5.53c-.26 2.02-2.12 2.47-3.48 2.36-.92-.07-1.46-.85-1.72-1.77a4 4 0 0 1-.09-.73V22.1q.02-.42 0-.84-.05-.7-.13-1.4Z" transform="translate(-18.123 -2.34)"/><path id="Path_5450" fill="rgba(0,0,0,0.46)" d="M10.7 4.18a6 6 0 0 0-1.41 1.98 10.6 10.6 0 0 0-.76 4.76 22 22 0 0 1-.1 2.56 3.5 3.5 0 0 0 .95 2.82l.37.34q-1.1 1.3-2.2 2.51a1.02 1.02 0 0 1-1.64.02 5.5 5.5 0 0 1-1.24-1.91 30 30 0 0 1-2.23-8.28 7 7 0 0 1 .2-2.58 3.7 3.7 0 0 1 3.4-2.88 11 11 0 0 1 4.66.66" transform="translate(-1.715 -2.491)"/><path id="Path_5451" fill="rgba(0,0,0,0.46)" d="M52.22 2.62a7.7 7.7 0 0 1 5.86.54A9 9 0 0 1 59.7 4.5a2.3 2.3 0 0 1 .48 1.87 18 18 0 0 1-1.91 6.74c-.43.9-.93 1.75-1.43 2.69l-.4-.5a4.4 4.4 0 0 0 .52-3.24 7 7 0 0 1 .02-2.58A4.6 4.6 0 0 0 56 5.66a7.7 7.7 0 0 0-3.65-2.95z" transform="translate(-37.467 -1.643)"/><path id="Path_5452" fill="rgba(0,0,0,0.46)" d="M27.9 31.38a2.8 2.8 0 0 1-2.8-2.1 5 5 0 0 1-.07-1.67c.06-.92.04-1.85.07-2.77 0-.13.03-.32.12-.38a4 4 0 0 1 2.53-.79 1.2 1.2 0 0 1 1.13.95 7 7 0 0 1-.33 5.08 18 18 0 0 0-.65 1.69Zm-.19-7.21c-.52 0-.74.2-.62.5a.76.76 0 0 0 1.24.23c.19-.2.17-.43-.08-.55a3 3 0 0 0-.54-.18" transform="translate(-17.929 -16.971)"/><path id="Path_5453" fill="rgba(0,0,0,0.46)" d="M60.68 30.02c-.76-1.6-1.82-3.04-2.14-4.81a3 3 0 0 1-.03-.8 1.3 1.3 0 0 1 1.32-1.14c.37-.03.74 0 1.11 0 .26 0 .33.13.3.36l-.1.84a10 10 0 0 0 .03 3.09 4 4 0 0 1-.32 2.24l-.08.15-.1.07ZM60 23.58l-.05.07-.3.03q-.62.14-.55.5a.7.7 0 0 0 .77.41 1 1 0 0 0 .36-.17c.11-.15.28-.37.24-.5-.05-.15-.3-.23-.47-.34" transform="translate(-41.967 -16.683)"/><path id="Path_5454" fill="rgba(0,0,0,0.46)" d="M26.25 54.68a6 6 0 0 1 .88-.27 2.5 2.5 0 0 0 1.84-1.12l.09-.1c.36-.43.65-.49 1-.2a.84.84 0 0 1 .17 1.2 3 3 0 0 1-3.66.84l-.32-.22Z" transform="translate(-18.834 -37.885)"/><path id="Path_5455" fill="rgba(0,0,0,0.46)" d="M69.4 52.66a3.4 3.4 0 0 1-1.75 1.2 5 5 0 0 1-2.14.21c-.25-.02-.55 0-.65-.3a1 1 0 0 1 .36-1.05.75.75 0 0 1 .87-.05 2.4 2.4 0 0 0 1.58.22c.55-.06 1.09-.14 1.73-.23" transform="translate(-46.515 -37.698)"/><path id="Path_5456" fill="rgba(0,0,0,0.46)" d="M42.18 61.99q.08.7.13 1.4.02.42 0 .85h-.11Z" transform="translate(-30.263 -44.474)"/><path id="Path_5457" fill="rgba(0,0,0,0.46)" d="M42.24 69.9h.12v1.3z" transform="translate(-30.306 -50.149)"/><path id="Path_5458" fill="#fff" d="M32.96 25.45a3 3 0 0 1 .54.18c.25.12.27.35.08.55a.76.76 0 0 1-1.24-.23c-.12-.3.1-.5.62-.5" transform="translate(-23.178 -18.257)"/><path id="Path_5459" fill="#fff" d="M61.53 24.4c.17.11.42.19.46.34.05.13-.12.35-.24.5a1 1 0 0 1-.35.17.7.7 0 0 1-.77-.41q-.08-.37.55-.5l.3-.04z" transform="translate(-43.496 -17.504)"/></g></svg>