<svg xmlns="http://www.w3.org/2000/svg" width="31" height="31" viewBox="0 0 31 31">
  <g id="Group_114" data-name="Group 114" transform="translate(-227 -3997)">
    <circle id="Ellipse_9" data-name="Ellipse 9" cx="15.5" cy="15.5" r="15.5" transform="translate(227 3997)" fill="rgba(25,95,140,0.1)"/>
    <path id="safespring_youtube" d="M29.661,65.659a1.892,1.892,0,0,0-1.333-1.341A44.718,44.718,0,0,0,22.438,64a44.718,44.718,0,0,0-5.89.317,1.892,1.892,0,0,0-1.333,1.341,21.346,21.346,0,0,0,0,7.3,1.868,1.868,0,0,0,1.333,1.319,44.72,44.72,0,0,0,5.89.317,44.72,44.72,0,0,0,5.89-.317,1.868,1.868,0,0,0,1.333-1.319,21.346,21.346,0,0,0,0-7.3Zm-8.766,5.893V67.069l3.939,2.241-3.939,2.241Z" transform="translate(220.563 3943.216)" fill="#195f8c"/>
  </g>
</svg>
