<svg xmlns="http://www.w3.org/2000/svg" width="31" height="31" viewBox="0 0 31 31"><g id="Group_114" transform="translate(-227 -3997)"><circle id="Ellipse_9" cx="15.5" cy="15.5" r="15.5" fill="rgba(25,95,140,0.1)" transform="translate(227 3997)"/><path id="safespring_youtube" fill="#195f8c" d="M29.66 65.66a1.9 1.9 0 0 0-1.33-1.34 45 45 0 0 0-5.9-.32 45 45 0 0 0-5.88.32 1.9 1.9 0 0 0-1.34 1.34 21 21 0 0 0 0 7.3 1.9 1.9 0 0 0 1.34 1.32 45 45 0 0 0 5.89.31 45 45 0 0 0 5.89-.31 1.9 1.9 0 0 0 1.33-1.32 21 21 0 0 0 0-7.3m-8.76 5.9v-4.5l3.93 2.25z" transform="translate(220.563 3943.216)"/></g></svg>