<svg xmlns="http://www.w3.org/2000/svg" width="31" height="31" viewBox="0 0 31 31">
  <g id="Group_112" data-name="Group 112" transform="translate(-107 -3997)">
    <circle id="Ellipse_5" data-name="Ellipse 5" cx="15.5" cy="15.5" r="15.5" transform="translate(107 3997)" fill="rgba(25,95,140,0.1)"/>
    <path id="safespring_linkedin" d="M2.869,12.814H.212V4.259H2.869ZM1.539,3.092A1.546,1.546,0,1,1,3.078,1.539,1.552,1.552,0,0,1,1.539,3.092Zm11.273,9.722H10.16V8.65c0-.993-.02-2.265-1.382-2.265-1.382,0-1.593,1.078-1.593,2.194v4.236H4.531V4.259H7.079V5.426h.037A2.792,2.792,0,0,1,9.631,4.045c2.689,0,3.184,1.771,3.184,4.07v4.7Z" transform="translate(116.093 4005)" fill="#195f8c"/>
  </g>
</svg>
