<svg xmlns="http://www.w3.org/2000/svg" width="31" height="31" viewBox="0 0 31 31"><g id="Group_112" transform="translate(-107 -3997)"><circle id="Ellipse_5" cx="15.5" cy="15.5" r="15.5" fill="rgba(25,95,140,0.1)" transform="translate(107 3997)"/><path id="safespring_linkedin" fill="#195f8c" d="M2.87 12.81H.2V4.26h2.66ZM1.54 3.1a1.55 1.55 0 1 1 1.54-1.55A1.55 1.55 0 0 1 1.54 3.1m11.27 9.72h-2.65V8.65c0-1-.02-2.26-1.38-2.26-1.38 0-1.6 1.07-1.6 2.19v4.24H4.54V4.26h2.55v1.17h.04a2.8 2.8 0 0 1 2.51-1.38c2.69 0 3.18 1.77 3.18 4.07z" transform="translate(116.093 4005)"/></g></svg>