<svg xmlns="http://www.w3.org/2000/svg" width="31" height="31" viewBox="0 0 31 31"><g id="Group_113" transform="translate(-187 -3997)"><circle id="Ellipse_8" cx="15.5" cy="15.5" r="15.5" fill="rgba(25,95,140,0.1)" transform="translate(187 3997)"/><path id="safespring_github" fill="#195f8c" d="M5.16 20.1q-.02.1-.17.11c-.15.01-.17-.04-.17-.11s.07-.11.16-.11.18.04.18.11m-.97-.14q-.02.1.13.15a.15.15 0 0 0 .2-.06q.02-.1-.14-.16a.2.2 0 0 0-.2.07m1.37-.05q-.14.04-.14.15c0 .1.09.1.18.08s.16-.08.15-.14-.1-.1-.19-.09M7.61 8A7.45 7.45 0 0 0 0 15.58a7.8 7.8 0 0 0 5.27 7.44c.4.07.54-.18.54-.38l-.01-1.9s-2.18.46-2.63-.93c0 0-.36-.9-.87-1.14 0 0-.7-.49.05-.48a1.6 1.6 0 0 1 1.2.8 1.64 1.64 0 0 0 2.27.65 1.7 1.7 0 0 1 .5-1.05c-1.74-.19-3.49-.44-3.49-3.43a2.4 2.4 0 0 1 .73-1.83 3 3 0 0 1 .08-2.11c.65-.2 2.15.84 2.15.84a7.3 7.3 0 0 1 3.9 0s1.5-1.05 2.14-.84a3 3 0 0 1 .08 2.1 2.4 2.4 0 0 1 .8 1.84c0 3-1.83 3.24-3.56 3.43a1.8 1.8 0 0 1 .52 1.45v2.6c0 .2.14.44.53.37a7.7 7.7 0 0 0 5.22-7.43A7.6 7.6 0 0 0 7.6 8M3.02 18.72q-.06.06.02.16c.08.1.12.07.16.03s.04-.1-.02-.16-.12-.07-.16-.03m-.34-.25q-.03.07.08.12a.1.1 0 0 0 .13-.02q.03-.08-.07-.12c-.1-.04-.11-.01-.13.02m1.01 1.1c-.05.04-.03.14.04.2s.16.08.2.03.02-.14-.04-.2-.16-.08-.2-.03m-.35-.45q-.07.05 0 .18c.07.13.13.1.17.07a.14.14 0 0 0 0-.2q-.08-.1-.17-.05" transform="translate(194.792 3997)"/></g></svg>