<svg xmlns="http://www.w3.org/2000/svg" width="31" height="31" viewBox="0 0 31 31"><g id="Group_111" transform="translate(-147 -3996)"><circle id="Ellipse_6" cx="15.5" cy="15.5" r="15.5" fill="rgba(25,95,140,0.1)" transform="translate(147 3996)"/><path id="safespring_twitter" fill="#195f8c" d="M13.4 51.22v.4a8.65 8.65 0 0 1-8.7 8.7A8.6 8.6 0 0 1 0 58.95a6 6 0 0 0 .74.03 6 6 0 0 0 3.8-1.3 3.1 3.1 0 0 1-2.86-2.12 4 4 0 0 0 .58.04 3 3 0 0 0 .8-.1 3.06 3.06 0 0 1-2.46-3v-.04a3 3 0 0 0 1.39.4 3.07 3.07 0 0 1-.95-4.1 8.7 8.7 0 0 0 6.31 3.2 4 4 0 0 1-.08-.7 3.06 3.06 0 0 1 5.3-2.1 6 6 0 0 0 1.94-.73 3 3 0 0 1-1.34 1.68 6 6 0 0 0 1.76-.47 7 7 0 0 1-1.54 1.58" transform="translate(155.537 3956.8)"/></g></svg>