<svg xmlns="http://www.w3.org/2000/svg" width="31" height="31" viewBox="0 0 31 31">
  <g id="Group_113" data-name="Group 113" transform="translate(-187 -3997)">
    <circle id="Ellipse_8" data-name="Ellipse 8" cx="15.5" cy="15.5" r="15.5" transform="translate(187 3997)" fill="rgba(25,95,140,0.1)"/>
    <path id="safespring_github" d="M5.156,20.1c0,.062-.071.112-.162.112s-.174-.04-.174-.112.071-.112.162-.112S5.156,20.031,5.156,20.1Zm-.967-.14c-.022.062.04.134.134.152a.146.146,0,0,0,.193-.062c.019-.062-.04-.134-.134-.162a.16.16,0,0,0-.193.071Zm1.374-.053c-.09.022-.152.081-.143.152s.09.1.183.081.152-.081.143-.143S5.653,19.9,5.563,19.91ZM7.608,8A7.453,7.453,0,0,0,0,15.584a7.792,7.792,0,0,0,5.268,7.434c.4.071.538-.174.538-.376S5.8,21.386,5.8,20.734c0,0-2.176.466-2.632-.926,0,0-.354-.9-.864-1.138,0,0-.712-.488.05-.479a1.641,1.641,0,0,1,1.2.8,1.643,1.643,0,0,0,2.266.65,1.727,1.727,0,0,1,.5-1.047c-1.737-.193-3.49-.444-3.49-3.434a2.356,2.356,0,0,1,.733-1.831,2.937,2.937,0,0,1,.081-2.11c.65-.2,2.145.839,2.145.839a7.342,7.342,0,0,1,3.9,0s1.495-1.044,2.145-.839a2.935,2.935,0,0,1,.081,2.11,2.416,2.416,0,0,1,.8,1.831c0,3-1.831,3.239-3.568,3.434a1.838,1.838,0,0,1,.528,1.442c0,1.047-.009,2.343-.009,2.6,0,.2.143.448.538.376a7.72,7.72,0,0,0,5.215-7.428A7.621,7.621,0,0,0,7.608,8ZM3.021,18.72c-.04.031-.031.1.022.162s.121.071.162.031.031-.1-.022-.162S3.061,18.679,3.021,18.72Zm-.336-.252c-.022.04.009.09.071.121a.092.092,0,0,0,.134-.022c.022-.04-.009-.09-.071-.121S2.707,18.437,2.685,18.468Zm1.007,1.106c-.05.04-.031.134.04.193s.162.081.2.031.022-.134-.04-.193S3.733,19.525,3.692,19.574Zm-.354-.457c-.05.031-.05.112,0,.183s.134.1.174.071a.142.142,0,0,0,0-.193c-.044-.071-.124-.1-.174-.062Z" transform="translate(194.792 3997)" fill="#195f8c"/>
  </g>
</svg>
