<svg xmlns="http://www.w3.org/2000/svg" xmlns:xlink="http://www.w3.org/1999/xlink" width="432" height="285" viewBox="0 0 432 285">
  <defs>
    <filter id="Path_5093" x="288" y="0" width="144" height="144" filterUnits="userSpaceOnUse">
      <feOffset dy="3" input="SourceAlpha"/>
      <feGaussianBlur stdDeviation="3" result="blur"/>
      <feFlood flood-opacity="0.161"/>
      <feComposite operator="in" in2="blur"/>
      <feComposite in="SourceGraphic"/>
    </filter>
    <filter id="Path_295" x="0" y="0" width="144" height="144" filterUnits="userSpaceOnUse">
      <feOffset dy="3" input="SourceAlpha"/>
      <feGaussianBlur stdDeviation="3" result="blur-2"/>
      <feFlood flood-opacity="0.161"/>
      <feComposite operator="in" in2="blur-2"/>
      <feComposite in="SourceGraphic"/>
    </filter>
    <filter id="Path_294" x="288" y="141" width="144" height="144" filterUnits="userSpaceOnUse">
      <feOffset dy="3" input="SourceAlpha"/>
      <feGaussianBlur stdDeviation="3" result="blur-3"/>
      <feFlood flood-opacity="0.161"/>
      <feComposite operator="in" in2="blur-3"/>
      <feComposite in="SourceGraphic"/>
    </filter>
    <filter id="Path_293" x="144" y="0" width="144" height="144" filterUnits="userSpaceOnUse">
      <feOffset dy="3" input="SourceAlpha"/>
      <feGaussianBlur stdDeviation="3" result="blur-4"/>
      <feFlood flood-opacity="0.161"/>
      <feComposite operator="in" in2="blur-4"/>
      <feComposite in="SourceGraphic"/>
    </filter>
    <filter id="Path_292" x="0" y="141" width="144" height="144" filterUnits="userSpaceOnUse">
      <feOffset dy="3" input="SourceAlpha"/>
      <feGaussianBlur stdDeviation="3" result="blur-5"/>
      <feFlood flood-opacity="0.161"/>
      <feComposite operator="in" in2="blur-5"/>
      <feComposite in="SourceGraphic"/>
    </filter>
    <filter id="Path_291" x="144" y="141" width="144" height="144" filterUnits="userSpaceOnUse">
      <feOffset dy="3" input="SourceAlpha"/>
      <feGaussianBlur stdDeviation="3" result="blur-6"/>
      <feFlood flood-opacity="0.161"/>
      <feComposite operator="in" in2="blur-6"/>
      <feComposite in="SourceGraphic"/>
    </filter>
  </defs>
  <g id="safespring_key-points-dbaas" transform="translate(-89 -82)">
    <g id="Rutor">
      <g transform="matrix(1, 0, 0, 1, 89, 82)" filter="url(#Path_5093)">
        <path id="Path_5093-2" data-name="Path 5093" d="M7,0H119a7,7,0,0,1,7,7V119a7,7,0,0,1-7,7H7a7,7,0,0,1-7-7V7A7,7,0,0,1,7,0Z" transform="translate(297 6)" fill="#fff"/>
      </g>
      <g transform="matrix(1, 0, 0, 1, 89, 82)" filter="url(#Path_295)">
        <path id="Path_295-2" data-name="Path 295" d="M7,0H119a7,7,0,0,1,7,7V119a7,7,0,0,1-7,7H7a7,7,0,0,1-7-7V7A7,7,0,0,1,7,0Z" transform="translate(9 6)" fill="#fff"/>
      </g>
      <g transform="matrix(1, 0, 0, 1, 89, 82)" filter="url(#Path_294)">
        <path id="Path_294-2" data-name="Path 294" d="M7,0H119a7,7,0,0,1,7,7V119a7,7,0,0,1-7,7H7a7,7,0,0,1-7-7V7A7,7,0,0,1,7,0Z" transform="translate(297 147)" fill="#fff"/>
      </g>
      <g transform="matrix(1, 0, 0, 1, 89, 82)" filter="url(#Path_293)">
        <path id="Path_293-2" data-name="Path 293" d="M7,0H119a7,7,0,0,1,7,7V119a7,7,0,0,1-7,7H7a7,7,0,0,1-7-7V7A7,7,0,0,1,7,0Z" transform="translate(153 6)" fill="#fff"/>
      </g>
      <g transform="matrix(1, 0, 0, 1, 89, 82)" filter="url(#Path_292)">
        <path id="Path_292-2" data-name="Path 292" d="M7,0H119a7,7,0,0,1,7,7V119a7,7,0,0,1-7,7H7a7,7,0,0,1-7-7V7A7,7,0,0,1,7,0Z" transform="translate(9 147)" fill="#fff"/>
      </g>
      <g transform="matrix(1, 0, 0, 1, 89, 82)" filter="url(#Path_291)">
        <path id="Path_291-2" data-name="Path 291" d="M7,0H119a7,7,0,0,1,7,7V119a7,7,0,0,1-7,7H7a7,7,0,0,1-7-7V7A7,7,0,0,1,7,0Z" transform="translate(153 147)" fill="#fff"/>
      </g>
    </g>
    <g id="Ikoner">
      <path id="lock-open-solid" d="M32.1,0A11.6,11.6,0,0,0,20.619,11.635v5.344H3.639A3.64,3.64,0,0,0,0,20.618V35.172a3.64,3.64,0,0,0,3.639,3.639H30.322a3.64,3.64,0,0,0,3.639-3.639V20.618a3.64,3.64,0,0,0-3.639-3.639H26.683v-5.39A5.458,5.458,0,1,1,37.6,11.521v6.064A1.815,1.815,0,0,0,39.418,19.4h2.426a1.815,1.815,0,0,0,1.819-1.819V11.521A11.535,11.535,0,0,0,32.1,0Z" transform="translate(140.169 254.617)" fill="#fa690f"/>
      <path id="arrows-rotate-solid" d="M55.37,16a2.811,2.811,0,0,0-2.812,2.812v6.511a19.065,19.065,0,0,0-33.606,5.282,2.813,2.813,0,0,0,5.353,1.73,13.438,13.438,0,0,1,23.719-3.681h-3.9a2.812,2.812,0,0,0,0,5.624H55.37a2.811,2.811,0,0,0,2.812-2.812V18.812A2.81,2.81,0,0,0,55.37,16ZM53.419,40.044a2.81,2.81,0,0,0-3.541,1.809,13.439,13.439,0,0,1-23.718,3.674h3.9a2.812,2.812,0,0,0,0-5.624H18.812A2.811,2.811,0,0,0,16,42.715V55.37a2.812,2.812,0,0,0,5.624,0V48.859A19,19,0,0,0,55.15,43.576,2.669,2.669,0,0,0,53.419,40.044Z" transform="translate(124.909 99.812)" fill="#3c9bcd"/>
      <path id="sliders-solid" d="M0,47.153a2.491,2.491,0,0,1,2.492-2.492H6.749a6.226,6.226,0,0,1,5.712-3.738,6.294,6.294,0,0,1,5.709,3.738H37.383a2.492,2.492,0,0,1,0,4.984H18.17a6.294,6.294,0,0,1-5.709,3.738,6.226,6.226,0,0,1-5.712-3.738H2.492A2.491,2.491,0,0,1,0,47.153Zm14.953,0a2.492,2.492,0,1,0-2.492,2.492A2.49,2.49,0,0,0,14.953,47.153ZM27.414,28.461A6.294,6.294,0,0,1,33.123,32.2h4.26a2.492,2.492,0,0,1,0,4.984h-4.26a6.294,6.294,0,0,1-5.709,3.738,6.218,6.218,0,0,1-5.709-3.738H2.492a2.492,2.492,0,0,1,0-4.984H21.706A6.218,6.218,0,0,1,27.414,28.461Zm2.492,6.231a2.492,2.492,0,1,0-2.492,2.492A2.49,2.49,0,0,0,29.907,34.692Zm7.477-14.953a2.492,2.492,0,1,1,0,4.984H20.662a6.294,6.294,0,0,1-5.709,3.738,6.218,6.218,0,0,1-5.709-3.738H2.492a2.492,2.492,0,1,1,0-4.984H9.245A6.225,6.225,0,0,1,14.953,16a6.3,6.3,0,0,1,5.709,3.738ZM12.461,22.231a2.492,2.492,0,1,0,2.492-2.492A2.49,2.49,0,0,0,12.461,22.231Z" transform="translate(430 102.457)" fill="#195f8c"/>
      <path id="gauge-high-solid-2" d="M42.182,21.091A21.091,21.091,0,1,1,21.091,0,21.089,21.089,0,0,1,42.182,21.091ZM21.091,5.273a2.636,2.636,0,1,0,2.636,2.636A2.635,2.635,0,0,0,21.091,5.273Zm0,29a5.273,5.273,0,0,0,3.782-8.947l5.207-12a1.9,1.9,0,0,0-.939-2.612,1.988,1.988,0,0,0-2.612,1.013l-5.281,12c-.049,0-.107-.074-.157-.074A5.341,5.341,0,0,0,15.818,29a5.278,5.278,0,0,0,5.273,5.273ZM11.864,9.227A2.636,2.636,0,1,0,14.5,11.864,2.634,2.634,0,0,0,11.864,9.227Zm-3.955,14.5a2.636,2.636,0,1,0-2.636-2.636A2.634,2.634,0,0,0,7.909,23.727Zm26.364-5.273a2.636,2.636,0,1,0,2.636,2.636A2.634,2.634,0,0,0,34.273,18.454Z" transform="translate(282.909 115.812)" fill="#32cd32"/>
      <path id="Path_5430" data-name="Path 5430" d="M45.429,14.041a15.791,15.791,0,0,0-31.39,0A15.791,15.791,0,0,0,15.78,45.526H29.734a8.814,8.814,0,1,0,0-17.627,5.143,5.143,0,1,1,3.644-8.768,1.838,1.838,0,0,0,2.6-2.6,8.814,8.814,0,1,0-6.246,15.028,5.143,5.143,0,1,1,0,10.286H15.78a12.12,12.12,0,1,1,0-24.24,1.837,1.837,0,0,0,1.834-1.834,12.12,12.12,0,1,1,24.24,0,1.834,1.834,0,0,0,1.834,1.834,12.12,12.12,0,1,1,0,24.24,1.837,1.837,0,0,0,0,3.671,15.791,15.791,0,0,0,1.741-31.478Z" transform="translate(275.297 250.915)" fill="#417da5"/>
      <path id="history-solid" d="M51.823,26.274a25.5,25.5,0,0,1-41.5,19.9,2.466,2.466,0,0,1-.189-3.661l1.159-1.159a2.472,2.472,0,0,1,3.279-.2A18.92,18.92,0,1,0,13.36,12.537l5.219,5.219a1.645,1.645,0,0,1-1.163,2.808H2.468A1.645,1.645,0,0,1,.823,18.919V3.972A1.645,1.645,0,0,1,3.631,2.808L8.708,7.885A25.5,25.5,0,0,1,51.823,26.274Zm-18.6,8.1,1.01-1.3a2.468,2.468,0,0,0-.433-3.463l-4.185-3.255V15.629a2.468,2.468,0,0,0-2.468-2.468H25.5a2.468,2.468,0,0,0-2.468,2.468V29.577l6.726,5.231A2.468,2.468,0,0,0,33.221,34.375Z" transform="translate(423.177 247.081)" fill="#3c9bcd"/>
    </g>
    <g id="Text" transform="translate(-285 -92)">
      <path id="Path_5436" data-name="Path 5436" d="M-27.84,0h1.7l-3.13-7h-1.6l-3.12,7h1.66l.62-1.5h3.25Zm-3.35-2.73,1.11-2.68,1.11,2.68ZM-22.45.12a2.9,2.9,0,0,0,3.17-3.2V-7h-1.6v3.86c0,1.33-.57,1.88-1.56,1.88S-24-1.81-24-3.14V-7h-1.62v3.92A2.9,2.9,0,0,0-22.45.12Zm6.1-.12h1.62V-5.68h2.24V-7h-6.1v1.32h2.24Zm8.02.12A3.622,3.622,0,0,0-4.5-3.5,3.622,3.622,0,0,0-8.33-7.12,3.622,3.622,0,0,0-12.16-3.5,3.622,3.622,0,0,0-8.33.12Zm0-1.38A2.135,2.135,0,0,1-10.52-3.5,2.135,2.135,0,0,1-8.33-5.74,2.135,2.135,0,0,1-6.14-3.5,2.135,2.135,0,0,1-8.33-1.26ZM4.61,0,4.59-7H3.26L.68-2.65-1.94-7H-3.28V0h1.52V-4.11L.29-.74h.73L3.08-4.2,3.09,0ZM11.5,0h1.7L10.07-7H8.47L5.35,0H7.01l.62-1.5h3.25ZM8.15-2.73,9.26-5.41l1.11,2.68ZM15.03,0h1.62V-5.68h2.24V-7h-6.1v1.32h2.24Zm6.34-1.3V-2.92h3.25V-4.18H21.37V-5.7h3.68V-7H19.76V0h5.42V-1.3ZM26.47,0h3.18c2.29,0,3.86-1.38,3.86-3.5S31.94-7,29.65-7H26.47Zm1.62-1.33V-5.67h1.48a2.089,2.089,0,0,1,2.3,2.17,2.089,2.089,0,0,1-2.3,2.17ZM-30.475,13.12a3.622,3.622,0,0,0,3.83-3.62,3.622,3.622,0,0,0-3.83-3.62,3.622,3.622,0,0,0-3.83,3.62A3.622,3.622,0,0,0-30.475,13.12Zm0-1.38a2.135,2.135,0,0,1-2.19-2.24,2.135,2.135,0,0,1,2.19-2.24,2.135,2.135,0,0,1,2.19,2.24A2.135,2.135,0,0,1-30.475,11.74ZM-22.4,6h-3.03v7h1.62V11.07h1.41c1.87,0,3.04-.97,3.04-2.53S-20.525,6-22.4,6Zm-.09,3.75h-1.32V7.32h1.32c.99,0,1.49.45,1.49,1.22S-21.5,9.75-22.485,9.75Zm5.89,1.95V10.08h3.25V8.82h-3.25V7.3h3.68V6H-18.2v7h5.42V11.7Zm11.3,1.3-1.57-2.25a2.276,2.276,0,0,0,1.44-2.21c0-1.57-1.17-2.54-3.04-2.54h-3.03v7h1.62V11.05h1.49L-7.035,13Zm-1.77-4.46c0,.76-.5,1.22-1.49,1.22h-1.32V7.32h1.32C-7.565,7.32-7.065,7.77-7.065,8.54ZM1.085,13h1.7L-.345,6h-1.6l-3.12,7h1.66l.62-1.5H.465Zm-3.35-2.73,1.11-2.68,1.11,2.68ZM4.615,13h1.62V7.32h2.24V6h-6.1V7.32h2.24Zm4.73,0h1.62V6H9.345Zm6.67.12a3.626,3.626,0,1,0,0-7.24,3.626,3.626,0,1,0,0,7.24Zm0-1.38a2.135,2.135,0,0,1-2.19-2.24,2.191,2.191,0,1,1,4.38,0A2.135,2.135,0,0,1,16.015,11.74ZM25.885,6v4.25L22.405,6h-1.34v7h1.6V8.75L26.155,13h1.33V6Zm5.56,7.12c2,0,2.97-1,2.97-2.17,0-2.57-4.07-1.68-4.07-2.97,0-.44.37-.8,1.33-.8a3.954,3.954,0,0,1,1.94.55l.5-1.23a4.7,4.7,0,0,0-2.43-.62c-1.99,0-2.95.99-2.95,2.18,0,2.6,4.07,1.7,4.07,3.01,0,.43-.39.75-1.35.75a4.117,4.117,0,0,1-2.31-.73l-.55,1.22A4.989,4.989,0,0,0,31.445,13.12Z" transform="translate(446.5 271.006)" fill="#3c9bcd"/>
      <path id="Path_5435" data-name="Path 5435" d="M-11.005.12A3.622,3.622,0,0,0-7.175-3.5a3.622,3.622,0,0,0-3.83-3.62,3.622,3.622,0,0,0-3.83,3.62A3.622,3.622,0,0,0-11.005.12Zm0-1.38A2.135,2.135,0,0,1-13.2-3.5a2.135,2.135,0,0,1,2.19-2.24A2.135,2.135,0,0,1-8.815-3.5,2.135,2.135,0,0,1-11.005-1.26ZM-2.925-7h-3.03V0h1.62V-1.93h1.41c1.87,0,3.04-.97,3.04-2.53S-1.055-7-2.925-7Zm-.09,3.75h-1.32V-5.68h1.32c.99,0,1.49.45,1.49,1.22S-2.025-3.25-3.015-3.25ZM2.875-1.3V-2.92h3.25V-4.18H2.875V-5.7h3.68V-7H1.265V0h5.42V-1.3ZM12.8-7v4.25L9.315-7H7.975V0h1.6V-4.25L13.065,0H14.4V-7ZM-29.7,13.12c2,0,2.97-1,2.97-2.17,0-2.57-4.07-1.68-4.07-2.97,0-.44.37-.8,1.33-.8a3.954,3.954,0,0,1,1.94.55l.5-1.23a4.7,4.7,0,0,0-2.43-.62c-1.99,0-2.95.99-2.95,2.18,0,2.6,4.07,1.7,4.07,3.01,0,.43-.39.75-1.35.75A4.117,4.117,0,0,1-32,11.09l-.55,1.22A4.989,4.989,0,0,0-29.7,13.12Zm5.43-.12h1.62V7.32h2.24V6h-6.1V7.32h2.24Zm9.61,0h1.7l-3.13-7h-1.6l-3.12,7h1.66l.62-1.5h3.25Zm-3.35-2.73,1.11-2.68,1.11,2.68ZM-7.41,6v4.25L-10.89,6h-1.34v7h1.6V8.75L-7.14,13h1.33V6Zm3.26,7H-.97c2.29,0,3.86-1.38,3.86-3.5S1.32,6-.97,6H-4.15Zm1.62-1.33V7.33h1.48A2.089,2.089,0,0,1,1.25,9.5a2.089,2.089,0,0,1-2.3,2.17ZM9.24,13h1.7L7.81,6H6.21L3.09,13H4.75l.62-1.5H8.62ZM5.89,10.27,7,7.59l1.11,2.68ZM17.87,13,16.3,10.75a2.276,2.276,0,0,0,1.44-2.21C17.74,6.97,16.57,6,14.7,6H11.67v7h1.62V11.05h1.49L16.13,13ZM16.1,8.54c0,.76-.5,1.22-1.49,1.22H13.29V7.32h1.32C15.6,7.32,16.1,7.77,16.1,8.54ZM19.02,13H22.2c2.29,0,3.86-1.38,3.86-3.5S24.49,6,22.2,6H19.02Zm1.62-1.33V7.33h1.48a2.089,2.089,0,0,1,2.3,2.17,2.089,2.089,0,0,1-2.3,2.17Zm8.94,1.45c2,0,2.97-1,2.97-2.17,0-2.57-4.07-1.68-4.07-2.97,0-.44.37-.8,1.33-.8a3.954,3.954,0,0,1,1.94.55l.5-1.23a4.7,4.7,0,0,0-2.43-.62c-1.99,0-2.95.99-2.95,2.18,0,2.6,4.07,1.7,4.07,3.01,0,.43-.39.75-1.35.75a4.117,4.117,0,0,1-2.31-.73l-.55,1.22A4.989,4.989,0,0,0,29.58,13.12Z" transform="translate(446 413.097)" fill="#fa690f"/>
      <path id="Path_5434" data-name="Path 5434" d="M-7.945-7v2.76h-3.18V-7h-1.62V0h1.62V-2.87h3.18V0h1.62V-7Zm3.28,7h1.62V-7h-1.62Zm8.01-1.56a2.572,2.572,0,0,1-1.26.3A2.161,2.161,0,0,1-.185-3.5a2.155,2.155,0,0,1,2.29-2.24,2.369,2.369,0,0,1,1.81.79l1.04-.96a3.732,3.732,0,0,0-2.93-1.21A3.611,3.611,0,0,0-1.825-3.5,3.6,3.6,0,0,0,1.995.12a4.83,4.83,0,0,0,2.83-.89V-3.61H3.345ZM11.125-7v2.76H7.945V-7H6.325V0h1.62V-2.87h3.18V0h1.62V-7ZM-30,13h1.7l-3.13-7h-1.6l-3.12,7h1.66l.62-1.5h3.25Zm-3.35-2.73,1.11-2.68,1.11,2.68ZM-22.83,6l-2.16,5-2.13-5h-1.75l3.02,7h1.6l3.03-7Zm7.19,7h1.7l-3.13-7h-1.6l-3.12,7h1.66l.62-1.5h3.25Zm-3.35-2.73,1.11-2.68,1.11,2.68ZM-13.21,13h1.62V6h-1.62Zm3.28,0H-4.8V11.68H-8.31V6H-9.93ZM1.4,13H3.1L-.03,6h-1.6l-3.12,7h1.66l.62-1.5H.78Zm-3.35-2.73L-.84,7.59.27,10.27ZM8.97,9.36A1.683,1.683,0,0,0,9.9,7.82C9.9,6.73,9,6,7.25,6H3.83v7H7.45c1.84,0,2.8-.7,2.8-1.91A1.729,1.729,0,0,0,8.97,9.36ZM7.05,7.22c.79,0,1.22.27,1.22.82s-.43.83-1.22.83H5.44V7.22Zm.28,4.56H5.44V10.05H7.33c.84,0,1.29.28,1.29.87S8.17,11.78,7.33,11.78ZM11.48,13H13.1V6H11.48Zm3.28,0h5.13V11.68H16.38V6H14.76Zm6.04,0h1.62V6H20.8Zm4.73,0h1.62V7.32h2.24V6h-6.1V7.32h2.24ZM36.21,6H34.62L32.75,9.11,30.88,6H29.16l2.71,4.5V13h1.62V10.52Z" transform="translate(590 272.013)" fill="#32cd32"/>
      <path id="Path_5433" data-name="Path 5433" d="M-27.84,0h1.7l-3.13-7h-1.6l-3.12,7h1.66l.62-1.5h3.25Zm-3.35-2.73,1.11-2.68,1.11,2.68ZM-22.45.12a2.9,2.9,0,0,0,3.17-3.2V-7h-1.6v3.86c0,1.33-.57,1.88-1.56,1.88S-24-1.81-24-3.14V-7h-1.62v3.92A2.9,2.9,0,0,0-22.45.12Zm6.1-.12h1.62V-5.68h2.24V-7h-6.1v1.32h2.24Zm8.02.12A3.622,3.622,0,0,0-4.5-3.5,3.622,3.622,0,0,0-8.33-7.12,3.622,3.622,0,0,0-12.16-3.5,3.622,3.622,0,0,0-8.33.12Zm0-1.38A2.135,2.135,0,0,1-10.52-3.5,2.135,2.135,0,0,1-8.33-5.74,2.135,2.135,0,0,1-6.14-3.5,2.135,2.135,0,0,1-8.33-1.26ZM4.61,0,4.59-7H3.26L.68-2.65-1.94-7H-3.28V0h1.52V-4.11L.29-.74h.73L3.08-4.2,3.09,0ZM11.5,0h1.7L10.07-7H8.47L5.35,0H7.01l.62-1.5h3.25ZM8.15-2.73,9.26-5.41l1.11,2.68ZM15.03,0h1.62V-5.68h2.24V-7h-6.1v1.32h2.24Zm6.34-1.3V-2.92h3.25V-4.18H21.37V-5.7h3.68V-7H19.76V0h5.42V-1.3ZM26.47,0h3.18c2.29,0,3.86-1.38,3.86-3.5S31.94-7,29.65-7H26.47Zm1.62-1.33V-5.67h1.48a2.089,2.089,0,0,1,2.3,2.17,2.089,2.089,0,0,1-2.3,2.17ZM-19.74,9.36a1.683,1.683,0,0,0,.93-1.54c0-1.09-.9-1.82-2.65-1.82h-3.42v7h3.62c1.84,0,2.8-.7,2.8-1.91A1.729,1.729,0,0,0-19.74,9.36Zm-1.92-2.14c.79,0,1.22.27,1.22.82s-.43.83-1.22.83h-1.61V7.22Zm.28,4.56h-1.89V10.05h1.89c.84,0,1.29.28,1.29.87S-20.54,11.78-21.38,11.78ZM-12,13h1.7l-3.13-7h-1.6l-3.12,7h1.66l.62-1.5h3.25Zm-3.35-2.73,1.11-2.68,1.11,2.68Zm9.03,2.85a3.6,3.6,0,0,0,2.89-1.25l-1.04-.96a2.231,2.231,0,0,1-1.76.83A2.147,2.147,0,0,1-8.47,9.5,2.147,2.147,0,0,1-6.23,7.26a2.252,2.252,0,0,1,1.76.82l1.04-.96A3.614,3.614,0,0,0-6.31,5.88a3.6,3.6,0,0,0-3.8,3.62A3.594,3.594,0,0,0-6.32,13.12ZM2.45,13H4.34L1.27,9.12,4.17,6H2.37L-.73,9.27V6H-2.34v7H-.73V11.23l.94-.98Zm5.62.12a2.9,2.9,0,0,0,3.17-3.2V6H9.64V9.86c0,1.33-.57,1.88-1.56,1.88s-1.56-.55-1.56-1.88V6H4.9V9.92A2.9,2.9,0,0,0,8.07,13.12ZM15.87,6H12.84v7h1.62V11.07h1.41c1.87,0,3.04-.97,3.04-2.53S17.74,6,15.87,6Zm-.09,3.75H14.46V7.32h1.32c.99,0,1.49.45,1.49,1.22S16.77,9.75,15.78,9.75Zm6.68,3.37c2,0,2.97-1,2.97-2.17,0-2.57-4.07-1.68-4.07-2.97,0-.44.37-.8,1.33-.8a3.954,3.954,0,0,1,1.94.55l.5-1.23a4.7,4.7,0,0,0-2.43-.62c-1.99,0-2.95.99-2.95,2.18,0,2.6,4.07,1.7,4.07,3.01,0,.43-.39.75-1.35.75a4.117,4.117,0,0,1-2.31-.73l-.55,1.22A4.989,4.989,0,0,0,22.46,13.12Z" transform="translate(734 413.097)" fill="#3c9bcd"/>
      <path id="Path_5432" data-name="Path 5432" d="M-30.45.12c2,0,2.97-1,2.97-2.17,0-2.57-4.07-1.68-4.07-2.97,0-.44.37-.8,1.33-.8a3.954,3.954,0,0,1,1.94.55l.5-1.23a4.7,4.7,0,0,0-2.43-.62c-1.99,0-2.95.99-2.95,2.18,0,2.6,4.07,1.7,4.07,3.01,0,.43-.39.75-1.35.75a4.117,4.117,0,0,1-2.31-.73L-33.3-.69A4.989,4.989,0,0,0-30.45.12ZM-21.14,0h1.7l-3.13-7h-1.6l-3.12,7h1.66l.62-1.5h3.25Zm-3.35-2.73,1.11-2.68,1.11,2.68ZM-13.42-5.7V-7h-5.29V0h1.62V-2.55h3.24v-1.3h-3.24V-5.7Zm2.71,4.4V-2.92h3.25V-4.18h-3.25V-5.7h3.68V-7h-5.29V0H-6.9V-1.3ZM-3.31.12c2,0,2.97-1,2.97-2.17,0-2.57-4.07-1.68-4.07-2.97,0-.44.37-.8,1.33-.8a3.954,3.954,0,0,1,1.94.55l.5-1.23a4.7,4.7,0,0,0-2.43-.62c-1.99,0-2.95.99-2.95,2.18,0,2.6,4.07,1.7,4.07,3.01,0,.43-.39.75-1.35.75a4.117,4.117,0,0,1-2.31-.73L-6.16-.69A4.989,4.989,0,0,0-3.31.12ZM3.8-7H.77V0H2.39V-1.93H3.8c1.87,0,3.04-.97,3.04-2.53S5.67-7,3.8-7ZM3.71-3.25H2.39V-5.68H3.71c.99,0,1.49.45,1.49,1.22S4.7-3.25,3.71-3.25ZM14.19,0,12.62-2.25a2.276,2.276,0,0,0,1.44-2.21C14.06-6.03,12.89-7,11.02-7H7.99V0H9.61V-1.95H11.1L12.45,0ZM12.42-4.46c0,.76-.5,1.22-1.49,1.22H9.61V-5.68h1.32C11.92-5.68,12.42-5.23,12.42-4.46ZM15.34,0h1.62V-7H15.34Zm8.1-7v4.25L19.96-7H18.62V0h1.6V-4.25L23.71,0h1.33V-7Zm7.99,5.44a2.572,2.572,0,0,1-1.26.3A2.161,2.161,0,0,1,27.9-3.5a2.155,2.155,0,0,1,2.29-2.24A2.369,2.369,0,0,1,32-4.95l1.04-.96a3.732,3.732,0,0,0-2.93-1.21A3.611,3.611,0,0,0,26.26-3.5,3.6,3.6,0,0,0,30.08.12a4.83,4.83,0,0,0,2.83-.89V-3.61H31.43ZM-47.025,13h1.62V6h-1.62Zm8.1-7v4.25L-42.405,6h-1.34v7h1.6V8.75l3.49,4.25h1.33V6Zm8.55,1.3V6h-5.29v7h1.62V10.45h3.24V9.15h-3.24V7.3Zm7.3,5.7-1.57-2.25A2.276,2.276,0,0,0-23.2,8.54c0-1.57-1.17-2.54-3.04-2.54h-3.03v7h1.62V11.05h1.49l1.35,1.95Zm-1.77-4.46c0,.76-.5,1.22-1.49,1.22h-1.32V7.32h1.32C-25.345,7.32-24.845,7.77-24.845,8.54Zm8.15,4.46h1.7l-3.13-7h-1.6l-3.12,7h1.66l.62-1.5h3.25Zm-3.35-2.73,1.11-2.68,1.11,2.68Zm8.08,2.85c2,0,2.97-1,2.97-2.17,0-2.57-4.07-1.68-4.07-2.97,0-.44.37-.8,1.33-.8a3.954,3.954,0,0,1,1.94.55l.5-1.23a4.7,4.7,0,0,0-2.43-.62c-1.99,0-2.95.99-2.95,2.18,0,2.6,4.07,1.7,4.07,3.01,0,.43-.39.75-1.35.75a4.117,4.117,0,0,1-2.31-.73l-.55,1.22A4.989,4.989,0,0,0-11.965,13.12Zm5.43-.12h1.62V7.32h2.24V6h-6.1V7.32h2.24ZM4.4,13l-1.57-2.25a2.276,2.276,0,0,0,1.44-2.21C4.265,6.97,3.1,6,1.225,6H-1.8v7h1.62V11.05h1.49L2.655,13ZM2.625,8.54c0,.76-.5,1.22-1.49,1.22H-.185V7.32h1.32C2.125,7.32,2.625,7.77,2.625,8.54Zm6.03,4.58a2.9,2.9,0,0,0,3.17-3.2V6h-1.6V9.86c0,1.33-.57,1.88-1.56,1.88s-1.56-.55-1.56-1.88V6H5.485V9.92A2.9,2.9,0,0,0,8.655,13.12Zm8.12,0a3.6,3.6,0,0,0,2.89-1.25l-1.04-.96a2.231,2.231,0,0,1-1.76.83,2.147,2.147,0,0,1-2.24-2.24,2.147,2.147,0,0,1,2.24-2.24,2.252,2.252,0,0,1,1.76.82l1.04-.96a3.614,3.614,0,0,0-2.88-1.24,3.624,3.624,0,1,0-.01,7.24Zm5.36-.12h1.62V7.32h2.24V6H19.9V7.32h2.24Zm7.72.12a2.9,2.9,0,0,0,3.17-3.2V6h-1.6V9.86c0,1.33-.57,1.88-1.56,1.88s-1.56-.55-1.56-1.88V6h-1.62V9.92A2.9,2.9,0,0,0,29.855,13.12ZM40.825,13l-1.57-2.25A2.276,2.276,0,0,0,40.7,8.54c0-1.57-1.17-2.54-3.04-2.54h-3.03v7h1.62V11.05h1.49L39.085,13Zm-1.77-4.46c0,.76-.5,1.22-1.49,1.22h-1.32V7.32h1.32C38.555,7.32,39.055,7.77,39.055,8.54Zm4.53,3.16V10.08h3.25V8.82h-3.25V7.3h3.68V6h-5.29v7H47.4V11.7Z" transform="translate(590 413.097)" fill="#417da5"/>
      <path id="Path_5431" data-name="Path 5431" d="M-24.345,0h1.7l-3.13-7h-1.6l-3.12,7h1.66l.62-1.5h3.25Zm-3.35-2.73,1.11-2.68,1.11,2.68ZM-21.915,0h3.18c2.29,0,3.86-1.38,3.86-3.5S-16.445-7-18.735-7h-3.18Zm1.62-1.33V-5.67h1.48a2.089,2.089,0,0,1,2.3,2.17,2.089,2.089,0,0,1-2.3,2.17ZM-8.765-7l-2.16,5-2.13-5H-14.8l3.02,7h1.6l3.03-7Zm7.19,7h1.7L-3-7H-4.6l-3.12,7h1.66l.62-1.5h3.25Zm-3.35-2.73,1.11-2.68L-2.7-2.73ZM5.675-7v4.25L2.2-7H.855V0h1.6V-4.25L5.945,0h1.33V-7ZM12.285.12a3.6,3.6,0,0,0,2.89-1.25l-1.04-.96a2.231,2.231,0,0,1-1.76.83,2.147,2.147,0,0,1-2.24-2.24,2.147,2.147,0,0,1,2.24-2.24,2.252,2.252,0,0,1,1.76.82l1.04-.96A3.614,3.614,0,0,0,12.3-7.12a3.6,3.6,0,0,0-3.8,3.62A3.594,3.594,0,0,0,12.285.12Zm5.59-1.42V-2.92h3.25V-4.18h-3.25V-5.7h3.68V-7h-5.29V0h5.42V-1.3Zm5.1,1.3h3.18c2.29,0,3.86-1.38,3.86-3.5S28.445-7,26.155-7h-3.18ZM24.6-1.33V-5.67h1.48a2.089,2.089,0,0,1,2.3,2.17,2.089,2.089,0,0,1-2.3,2.17ZM-44.085,13h1.62V7.32h2.24V6h-6.1V7.32h2.24Zm10.93,0-1.57-2.25a2.276,2.276,0,0,0,1.44-2.21c0-1.57-1.17-2.54-3.04-2.54h-3.03v7h1.62V11.05h1.49L-34.9,13Zm-1.77-4.46c0,.76-.5,1.22-1.49,1.22h-1.32V7.32h1.32C-35.425,7.32-34.925,7.77-34.925,8.54Zm8.15,4.46h1.7l-3.13-7h-1.6l-3.12,7h1.66l.62-1.5h3.25Zm-3.35-2.73,1.11-2.68,1.11,2.68Zm11.07-2.97V6h-5.29v7h1.62V10.45h3.24V9.15h-3.24V7.3Zm1.1,5.7h1.62V6h-1.62Zm6.63.12a3.6,3.6,0,0,0,2.89-1.25l-1.04-.96a2.231,2.231,0,0,1-1.76.83,2.147,2.147,0,0,1-2.24-2.24,2.147,2.147,0,0,1,2.24-2.24,2.252,2.252,0,0,1,1.76.82l1.04-.96a3.614,3.614,0,0,0-2.88-1.24,3.6,3.6,0,0,0-3.8,3.62A3.594,3.594,0,0,0-11.325,13.12Zm10.16,0a3.6,3.6,0,0,0,2.89-1.25l-1.04-.96a2.231,2.231,0,0,1-1.76.83A2.147,2.147,0,0,1-3.315,9.5a2.147,2.147,0,0,1,2.24-2.24,2.252,2.252,0,0,1,1.76.82l1.04-.96a3.614,3.614,0,0,0-2.88-1.24,3.6,3.6,0,0,0-3.8,3.62A3.594,3.594,0,0,0-1.165,13.12Zm7.22,0a3.626,3.626,0,1,0,0-7.24,3.626,3.626,0,1,0,0,7.24Zm0-1.38A2.135,2.135,0,0,1,3.865,9.5a2.135,2.135,0,0,1,2.19-2.24A2.135,2.135,0,0,1,8.245,9.5,2.135,2.135,0,0,1,6.055,11.74ZM15.925,6v4.25L12.445,6H11.1v7h1.6V8.75L16.195,13h1.33V6Zm4.71,7h1.62V7.32h2.24V6H18.4V7.32h2.24Zm10.93,0-1.57-2.25a2.276,2.276,0,0,0,1.44-2.21c0-1.57-1.17-2.54-3.04-2.54h-3.03v7h1.62V11.05h1.49L29.825,13ZM29.8,8.54c0,.76-.5,1.22-1.49,1.22h-1.32V7.32h1.32C29.3,7.32,29.8,7.77,29.8,8.54Zm6.31,4.58a3.626,3.626,0,1,0,0-7.24,3.626,3.626,0,1,0,0,7.24Zm0-1.38a2.135,2.135,0,0,1-2.19-2.24,2.191,2.191,0,1,1,4.38,0A2.135,2.135,0,0,1,36.1,11.74ZM41.155,13h5.13V11.68h-3.51V6h-1.62Z" transform="translate(734 272.109)" fill="#195f8c"/>
    </g>
  </g>
</svg>
