<svg xmlns="http://www.w3.org/2000/svg" width="350" height="250" viewBox="0 0 350 250">
  <g id="safespring-backup" transform="translate(-190 -242)">
    <rect id="Rectangle_287" data-name="Rectangle 287" width="350" height="250" transform="translate(190 242)" fill="rgba(50,205,50,0.08)"/>
    <g id="Group_165" data-name="Group 165" transform="translate(34.97 -36.03)">
      <circle id="Ellipse_21" data-name="Ellipse 21" cx="73.5" cy="73.5" r="73.5" transform="translate(257.03 330.03)" fill="rgba(50,205,50,0.15)"/>
      <path id="cloud-arrow-up" d="M17.391,86.107a17.4,17.4,0,0,1-5.773-33.8q-.024-.489-.024-.978A19.325,19.325,0,0,1,47.67,41.686a10.741,10.741,0,0,1,6.437-1.957A11.528,11.528,0,0,1,65.7,51.324a11.724,11.724,0,0,1-.773,4.179,15.458,15.458,0,0,1-3.092,30.6ZM26.933,59.9a2.792,2.792,0,0,0,0,4,2.624,2.624,0,0,0,4,0l4.819-4.614v16.2a2.9,2.9,0,0,0,5.8,0v-16.2l4.71,4.614a2.827,2.827,0,0,0,4-4l-9.662-9.662a2.792,2.792,0,0,0-4,0Z" transform="translate(291.383 341.03)" fill="#32cd32"/>
    </g>
  </g>
</svg>
