<svg xmlns="http://www.w3.org/2000/svg" width="31" height="31" viewBox="0 0 31 31">
  <g id="Group_111" data-name="Group 111" transform="translate(-147 -3996)">
    <circle id="Ellipse_6" data-name="Ellipse 6" cx="15.5" cy="15.5" r="15.5" transform="translate(147 3996)" fill="rgba(25,95,140,0.1)"/>
    <path id="safespring_twitter" d="M13.393,51.217c.009.131.009.265.009.4A8.646,8.646,0,0,1,4.7,60.319,8.63,8.63,0,0,1,0,58.946a6.156,6.156,0,0,0,.738.038,6.139,6.139,0,0,0,3.8-1.306,3.066,3.066,0,0,1-2.86-2.122,3.761,3.761,0,0,0,.577.047,3.205,3.205,0,0,0,.8-.1,3.057,3.057,0,0,1-2.452-3v-.038a3.063,3.063,0,0,0,1.382.388,3.065,3.065,0,0,1-.947-4.093A8.7,8.7,0,0,0,7.35,51.958a3.5,3.5,0,0,1-.076-.7,3.063,3.063,0,0,1,5.294-2.093,6,6,0,0,0,1.942-.738,3.053,3.053,0,0,1-1.344,1.685,6.165,6.165,0,0,0,1.761-.472,6.62,6.62,0,0,1-1.533,1.577Z" transform="translate(155.537 3956.8)" fill="#195f8c"/>
  </g>
</svg>
