<svg xmlns="http://www.w3.org/2000/svg" width="305" height="205" viewBox="0 0 305 205"><g transform="translate(-281 -248)"><path d="M12,0H289a12,12,0,0,1,12,12V189a12,12,0,0,1-12,12H12A12,12,0,0,1,0,189V12A12,12,0,0,1,12,0Z" transform="translate(283 250)" fill="#e7eff3"/><path d="M0,100c20,0,50,7.3,42.7-7.3s21.9-14.6,14.6,0S80,100,100,100s50-7.3,42.7,7.3,21.9,14.6,14.6,0S180,100,200,100s50-7.3,42.7,7.3,21.9,14.6,14.6,0S280,100,300,100M100,0c0,20-7.3,50,7.3,42.7s14.6,21.9,0,14.6S100,80,100,100s7.3,50-7.3,42.7-14.6,21.9,0,14.6S100,180,100,200M200,0c0,20-7.3,50,7.3,42.7s14.6,21.9,0,14.6S200,80,200,100s7.3,50-7.3,42.7-14.6,21.9,0,14.6S200,180,200,200" transform="translate(283.5 250.5)" fill="none" stroke="#fafefe" stroke-linecap="round" stroke-linejoin="round" stroke-width="5"/><path d="M2.508-1.76l-.1-2.057L6.094-7.7h1.98L4.752-4.125l-.99,1.056ZM.913,0V-7.7H2.684V0ZM6.182,0,3.443-3.355,4.609-4.62,8.261,0Zm5.324.088a3.468,3.468,0,0,1-1.677-.4A3.015,3.015,0,0,1,8.674-1.391,2.927,2.927,0,0,1,8.25-2.959a2.948,2.948,0,0,1,.424-1.579A2.974,2.974,0,0,1,9.828-5.615a3.507,3.507,0,0,1,1.677-.391,3.516,3.516,0,0,1,1.672.391,2.938,2.938,0,0,1,1.155,1.073,2.97,2.97,0,0,1,.418,1.584,2.957,2.957,0,0,1-.418,1.567A2.964,2.964,0,0,1,13.178-.308,3.476,3.476,0,0,1,11.506.088Zm0-1.408a1.505,1.505,0,0,0,.77-.2,1.41,1.41,0,0,0,.539-.567,1.822,1.822,0,0,0,.2-.874,1.815,1.815,0,0,0-.2-.88,1.419,1.419,0,0,0-.539-.561,1.505,1.505,0,0,0-.77-.2,1.505,1.505,0,0,0-.77.2,1.457,1.457,0,0,0-.545.561,1.774,1.774,0,0,0-.2.88,1.782,1.782,0,0,0,.2.874,1.447,1.447,0,0,0,.545.567A1.505,1.505,0,0,0,11.506-1.32Zm7.986-4.686a2.755,2.755,0,0,1,1.259.28,2.034,2.034,0,0,1,.875.858,3.04,3.04,0,0,1,.319,1.479V0H20.229V-3.124a1.521,1.521,0,0,0-.313-1.056,1.143,1.143,0,0,0-.886-.341,1.549,1.549,0,0,0-.731.17,1.183,1.183,0,0,0-.506.523,1.964,1.964,0,0,0-.181.9V0H15.895V-5.918h1.639v1.639l-.308-.495a2.192,2.192,0,0,1,.913-.913A2.814,2.814,0,0,1,19.492-6.006ZM25.916.088a2.323,2.323,0,0,1-1.628-.534,2.048,2.048,0,0,1-.583-1.59V-7.227h1.716v5.17a.794.794,0,0,0,.2.578.717.717,0,0,0,.539.2,1.1,1.1,0,0,0,.693-.22l.462,1.21a1.885,1.885,0,0,1-.632.281A3.1,3.1,0,0,1,25.916.088ZM22.792-4.466v-1.32h4.1v1.32ZM28.281,0V-5.918H30V0Zm.858-6.743a1.088,1.088,0,0,1-.77-.275.892.892,0,0,1-.3-.682.892.892,0,0,1,.3-.682,1.088,1.088,0,0,1,.77-.275,1.13,1.13,0,0,1,.77.259.842.842,0,0,1,.3.665.943.943,0,0,1-.292.71A1.071,1.071,0,0,1,29.139-6.743Zm6.05.737a2.755,2.755,0,0,1,1.259.28,2.034,2.034,0,0,1,.875.858,3.04,3.04,0,0,1,.319,1.479V0H35.926V-3.124a1.521,1.521,0,0,0-.313-1.056,1.143,1.143,0,0,0-.886-.341,1.549,1.549,0,0,0-.731.17,1.183,1.183,0,0,0-.506.523,1.964,1.964,0,0,0-.181.9V0H31.592V-5.918h1.639v1.639l-.308-.495a2.192,2.192,0,0,1,.913-.913A2.814,2.814,0,0,1,35.189-6.006ZM41.69.088A2.923,2.923,0,0,1,40.375-.2a2.025,2.025,0,0,1-.9-.875,3.132,3.132,0,0,1-.319-1.5V-5.918h1.716v3.091a1.58,1.58,0,0,0,.314,1.083,1.133,1.133,0,0,0,.885.346,1.429,1.429,0,0,0,.7-.17,1.174,1.174,0,0,0,.484-.528,2.023,2.023,0,0,0,.176-.9V-5.918h1.716V0H43.527V-1.628l.3.473a2.03,2.03,0,0,1-.875.929A2.6,2.6,0,0,1,41.69.088ZM46.75,0V-5.918h1.716V0Zm.858-6.743a1.088,1.088,0,0,1-.77-.275.892.892,0,0,1-.3-.682.892.892,0,0,1,.3-.682,1.088,1.088,0,0,1,.77-.275,1.13,1.13,0,0,1,.77.259.842.842,0,0,1,.3.665.943.943,0,0,1-.292.71A1.071,1.071,0,0,1,47.608-6.743ZM52.481.088a2.323,2.323,0,0,1-1.628-.534,2.048,2.048,0,0,1-.583-1.59V-7.227h1.716v5.17a.794.794,0,0,0,.2.578.717.717,0,0,0,.539.2,1.1,1.1,0,0,0,.693-.22l.462,1.21a1.885,1.885,0,0,1-.632.281A3.1,3.1,0,0,1,52.481.088ZM49.357-4.466v-1.32h4.1v1.32ZM57.6.088a3.81,3.81,0,0,1-1.777-.4,2.92,2.92,0,0,1-1.182-1.083,2.957,2.957,0,0,1-.418-1.567,3.008,3.008,0,0,1,.412-1.579,2.924,2.924,0,0,1,1.127-1.078,3.318,3.318,0,0,1,1.617-.391,3.307,3.307,0,0,1,1.568.369,2.759,2.759,0,0,1,1.105,1.056,3.171,3.171,0,0,1,.407,1.645q0,.1-.011.225t-.022.237H55.616v-1h3.9l-.66.3a1.645,1.645,0,0,0-.187-.8,1.365,1.365,0,0,0-.517-.534,1.5,1.5,0,0,0-.77-.193,1.531,1.531,0,0,0-.776.193,1.345,1.345,0,0,0-.522.539,1.7,1.7,0,0,0-.187.819v.264a1.664,1.664,0,0,0,.215.853,1.4,1.4,0,0,0,.6.561,2.055,2.055,0,0,0,.918.192,2.226,2.226,0,0,0,.831-.143,2.023,2.023,0,0,0,.654-.429l.913.99a2.66,2.66,0,0,1-1.023.71A3.785,3.785,0,0,1,57.6.088Zm6.424,0a2.323,2.323,0,0,1-1.628-.534,2.048,2.048,0,0,1-.583-1.59V-7.227h1.716v5.17a.794.794,0,0,0,.2.578.717.717,0,0,0,.539.2,1.1,1.1,0,0,0,.693-.22l.462,1.21a1.885,1.885,0,0,1-.632.281A3.1,3.1,0,0,1,64.02.088ZM60.9-4.466v-1.32H65v1.32Z" transform="translate(302 304)" fill="#195f8c"/><path d="M4.631.132A4.672,4.672,0,0,1,2.954-.16,3.948,3.948,0,0,1,1.622-.99a3.815,3.815,0,0,1-.88-1.265,3.981,3.981,0,0,1-.313-1.6,3.981,3.981,0,0,1,.313-1.6A3.777,3.777,0,0,1,1.628-6.71,4,4,0,0,1,2.97-7.541a4.749,4.749,0,0,1,1.694-.292,4.755,4.755,0,0,1,1.842.341,3.649,3.649,0,0,1,1.381.99L6.743-5.445A2.792,2.792,0,0,0,5.83-6.1a2.682,2.682,0,0,0-1.078-.215,2.853,2.853,0,0,0-1.023.176,2.279,2.279,0,0,0-.8.506,2.271,2.271,0,0,0-.517.781,2.659,2.659,0,0,0-.181,1,2.628,2.628,0,0,0,.181.99,2.329,2.329,0,0,0,.517.786,2.251,2.251,0,0,0,.792.511,2.776,2.776,0,0,0,1.007.176,3.168,3.168,0,0,0,1.029-.17,2.968,2.968,0,0,0,.973-.578L7.744-.847a4.642,4.642,0,0,1-1.457.726A5.656,5.656,0,0,1,4.631.132Zm1.485-1.21V-3.971H7.744V-.847ZM12.21.088a3.81,3.81,0,0,1-1.776-.4A2.92,2.92,0,0,1,9.251-1.391a2.957,2.957,0,0,1-.418-1.567,3.008,3.008,0,0,1,.412-1.579,2.924,2.924,0,0,1,1.128-1.078,3.318,3.318,0,0,1,1.617-.391,3.307,3.307,0,0,1,1.568.369,2.759,2.759,0,0,1,1.106,1.056,3.171,3.171,0,0,1,.407,1.645q0,.1-.011.225t-.022.237H10.23v-1h3.905l-.66.3a1.645,1.645,0,0,0-.187-.8,1.365,1.365,0,0,0-.517-.534A1.5,1.5,0,0,0,12-4.708a1.531,1.531,0,0,0-.775.193,1.344,1.344,0,0,0-.523.539,1.7,1.7,0,0,0-.187.819v.264a1.664,1.664,0,0,0,.215.853,1.4,1.4,0,0,0,.6.561,2.055,2.055,0,0,0,.918.192,2.226,2.226,0,0,0,.83-.143,2.023,2.023,0,0,0,.655-.429l.913.99a2.66,2.66,0,0,1-1.023.71A3.785,3.785,0,0,1,12.21.088Zm6.82,0a3.468,3.468,0,0,1-1.677-.4A3.015,3.015,0,0,1,16.2-1.391a2.927,2.927,0,0,1-.424-1.567A2.948,2.948,0,0,1,16.2-4.537a2.974,2.974,0,0,1,1.155-1.078,3.507,3.507,0,0,1,1.677-.391,3.516,3.516,0,0,1,1.672.391,2.938,2.938,0,0,1,1.155,1.073,2.97,2.97,0,0,1,.418,1.584,2.957,2.957,0,0,1-.418,1.567A2.964,2.964,0,0,1,20.7-.308,3.476,3.476,0,0,1,19.03.088Zm0-1.408a1.505,1.505,0,0,0,.77-.2,1.41,1.41,0,0,0,.539-.567,1.822,1.822,0,0,0,.2-.874,1.815,1.815,0,0,0-.2-.88A1.419,1.419,0,0,0,19.8-4.4a1.505,1.505,0,0,0-.77-.2,1.505,1.505,0,0,0-.77.2,1.457,1.457,0,0,0-.545.561,1.774,1.774,0,0,0-.2.88,1.782,1.782,0,0,0,.2.874,1.447,1.447,0,0,0,.545.567A1.505,1.505,0,0,0,19.03-1.32ZM26.917.088a2.534,2.534,0,0,1-1.309-.33,2.2,2.2,0,0,1-.875-1.006,4.074,4.074,0,0,1-.314-1.71,4.264,4.264,0,0,1,.3-1.716,2.108,2.108,0,0,1,.858-1,2.6,2.6,0,0,1,1.342-.33,2.977,2.977,0,0,1,1.5.379,2.8,2.8,0,0,1,1.056,1.062,3.177,3.177,0,0,1,.391,1.606,3.2,3.2,0,0,1-.391,1.617A2.756,2.756,0,0,1,28.419-.286,3.011,3.011,0,0,1,26.917.088Zm-3.5,2.046V-5.918h1.639v1.21l-.033,1.76.11,1.749V2.134Zm3.2-3.454a1.476,1.476,0,0,0,.764-.2,1.46,1.46,0,0,0,.539-.567,1.782,1.782,0,0,0,.2-.874,1.774,1.774,0,0,0-.2-.88,1.47,1.47,0,0,0-.539-.561,1.476,1.476,0,0,0-.764-.2,1.505,1.505,0,0,0-.77.2,1.419,1.419,0,0,0-.539.561,1.815,1.815,0,0,0-.2.88,1.822,1.822,0,0,0,.2.874,1.41,1.41,0,0,0,.539.567A1.505,1.505,0,0,0,26.62-1.32Zm7.2,1.408a3.468,3.468,0,0,1-1.678-.4,3.015,3.015,0,0,1-1.155-1.083,2.927,2.927,0,0,1-.424-1.567,2.948,2.948,0,0,1,.424-1.579,2.974,2.974,0,0,1,1.155-1.078,3.507,3.507,0,0,1,1.678-.391,3.516,3.516,0,0,1,1.672.391,2.938,2.938,0,0,1,1.155,1.073,2.97,2.97,0,0,1,.418,1.584,2.957,2.957,0,0,1-.418,1.567A2.964,2.964,0,0,1,35.5-.308,3.476,3.476,0,0,1,33.825.088Zm0-1.408a1.505,1.505,0,0,0,.77-.2,1.41,1.41,0,0,0,.539-.567,1.822,1.822,0,0,0,.2-.874,1.815,1.815,0,0,0-.2-.88A1.419,1.419,0,0,0,34.6-4.4a1.505,1.505,0,0,0-.77-.2,1.505,1.505,0,0,0-.77.2,1.457,1.457,0,0,0-.545.561,1.774,1.774,0,0,0-.2.88,1.782,1.782,0,0,0,.2.874,1.447,1.447,0,0,0,.545.567A1.505,1.505,0,0,0,33.825-1.32ZM38.214,0V-8.162H39.93V0Zm3.311,0V-5.918h1.716V0Zm.858-6.743a1.088,1.088,0,0,1-.77-.275.892.892,0,0,1-.3-.682.892.892,0,0,1,.3-.682,1.088,1.088,0,0,1,.77-.275,1.13,1.13,0,0,1,.77.259.842.842,0,0,1,.3.665.943.943,0,0,1-.292.71A1.071,1.071,0,0,1,42.383-6.743ZM47.256.088a2.323,2.323,0,0,1-1.628-.534,2.048,2.048,0,0,1-.583-1.59V-7.227h1.716v5.17a.794.794,0,0,0,.2.578.717.717,0,0,0,.539.2,1.1,1.1,0,0,0,.693-.22l.462,1.21a1.885,1.885,0,0,1-.632.281A3.1,3.1,0,0,1,47.256.088ZM44.132-4.466v-1.32h4.1v1.32ZM49.621,0V-5.918h1.716V0Zm.858-6.743a1.088,1.088,0,0,1-.77-.275.892.892,0,0,1-.3-.682.892.892,0,0,1,.3-.682,1.088,1.088,0,0,1,.77-.275,1.13,1.13,0,0,1,.77.259.842.842,0,0,1,.3.665.943.943,0,0,1-.292.71A1.071,1.071,0,0,1,50.479-6.743ZM54.351-1.21,54.4-3.3l2.761-2.618H59.2L56.551-3.223,55.66-2.5ZM52.932,0V-8.162h1.716V0Zm4.411,0-2-2.486,1.078-1.331,3,3.817Z" transform="translate(410 304)" fill="#195f8c"/><path d="M2.332.132A3.488,3.488,0,0,1,.9-.16,2.744,2.744,0,0,1-.176-.99l.99-1.188a2.5,2.5,0,0,0,.671.633,1.433,1.433,0,0,0,.759.214q1.089,0,1.089-1.276V-6.27H.627V-7.7H5.1v4.994A2.9,2.9,0,0,1,4.4-.572,2.8,2.8,0,0,1,2.332.132ZM9.24.088A2.923,2.923,0,0,1,7.925-.2a2.025,2.025,0,0,1-.9-.875,3.132,3.132,0,0,1-.319-1.5V-5.918H8.426v3.091A1.58,1.58,0,0,0,8.74-1.743a1.133,1.133,0,0,0,.885.346,1.429,1.429,0,0,0,.7-.17,1.174,1.174,0,0,0,.484-.528,2.023,2.023,0,0,0,.176-.9V-5.918H12.7V0H11.077V-1.628l.3.473a2.03,2.03,0,0,1-.875.929A2.6,2.6,0,0,1,9.24.088ZM14.3,0V-5.918h1.639v1.672l-.231-.484a1.9,1.9,0,0,1,.847-.951,2.879,2.879,0,0,1,1.419-.325v1.584q-.11-.011-.2-.016t-.187-.006a1.611,1.611,0,0,0-1.139.4,1.623,1.623,0,0,0-.434,1.248V0ZM19,0V-5.918h1.716V0Zm.858-6.743a1.088,1.088,0,0,1-.77-.275.892.892,0,0,1-.3-.682.892.892,0,0,1,.3-.682,1.088,1.088,0,0,1,.77-.275,1.13,1.13,0,0,1,.77.259.842.842,0,0,1,.3.665.943.943,0,0,1-.292.71A1.071,1.071,0,0,1,19.855-6.743ZM24.849.088a3.007,3.007,0,0,1-1.507-.38,2.785,2.785,0,0,1-1.062-1.062,3.177,3.177,0,0,1-.39-1.606,3.2,3.2,0,0,1,.39-1.617,2.745,2.745,0,0,1,1.062-1.056,3.042,3.042,0,0,1,1.507-.374,2.534,2.534,0,0,1,1.309.33,2.169,2.169,0,0,1,.869,1,4.13,4.13,0,0,1,.308,1.716,4.273,4.273,0,0,1-.3,1.71,2.115,2.115,0,0,1-.852,1.006A2.571,2.571,0,0,1,24.849.088Zm.3-1.408a1.484,1.484,0,0,0,.759-.2,1.447,1.447,0,0,0,.545-.567,1.782,1.782,0,0,0,.2-.874,1.774,1.774,0,0,0-.2-.88,1.457,1.457,0,0,0-.545-.561,1.484,1.484,0,0,0-.759-.2,1.505,1.505,0,0,0-.77.2,1.457,1.457,0,0,0-.545.561,1.774,1.774,0,0,0-.2.88,1.782,1.782,0,0,0,.2.874,1.447,1.447,0,0,0,.545.567A1.505,1.505,0,0,0,25.146-1.32ZM26.7,0V-1.21l.033-1.76-.11-1.749V-8.162h1.716V0ZM29.92,0V-5.918h1.716V0Zm.858-6.743a1.088,1.088,0,0,1-.77-.275.892.892,0,0,1-.3-.682.892.892,0,0,1,.3-.682,1.088,1.088,0,0,1,.77-.275,1.13,1.13,0,0,1,.77.259.842.842,0,0,1,.3.665.943.943,0,0,1-.292.71A1.071,1.071,0,0,1,30.778-6.743ZM34.65-1.21l.044-2.09,2.761-2.618H39.5L36.85-3.223l-.891.726ZM33.231,0V-8.162h1.716V0Zm4.411,0-2-2.486,1.078-1.331,3,3.817Z" transform="translate(513 304)" fill="#195f8c"/><path d="M.913,0V-7.7H2.7V0Zm5.2,0V-6.248H3.652V-7.7h6.71v1.452H7.9V0Zm4.466-2.409V-3.784H13.7v1.375Zm6.457,2.5a5.773,5.773,0,0,1-1.458-.182A3.609,3.609,0,0,1,14.476-.55l.572-1.232a3.806,3.806,0,0,0,.963.413,3.953,3.953,0,0,0,1.094.16,1.794,1.794,0,0,0,.841-.143.44.44,0,0,0,.248-.4A.337.337,0,0,0,18-2.062a1.685,1.685,0,0,0-.511-.16q-.319-.055-.7-.11t-.764-.148a2.593,2.593,0,0,1-.7-.28,1.439,1.439,0,0,1-.512-.506,1.579,1.579,0,0,1-.193-.825,1.6,1.6,0,0,1,.325-.99,2.147,2.147,0,0,1,.941-.676,3.949,3.949,0,0,1,1.474-.247,5.97,5.97,0,0,1,1.232.132,3.345,3.345,0,0,1,1.045.385l-.572,1.221a2.9,2.9,0,0,0-.864-.346,4,4,0,0,0-.841-.094,1.725,1.725,0,0,0-.836.154.453.453,0,0,0-.264.4.357.357,0,0,0,.193.33,1.761,1.761,0,0,0,.511.176q.319.066.7.115a6.384,6.384,0,0,1,.764.148,2.756,2.756,0,0,1,.7.28,1.468,1.468,0,0,1,.511.5,1.515,1.515,0,0,1,.2.819,1.54,1.54,0,0,1-.33.973,2.167,2.167,0,0,1-.951.666A4.179,4.179,0,0,1,17.039.088ZM24.519,0V-1.155l-.11-.253V-3.476a1.106,1.106,0,0,0-.336-.858,1.48,1.48,0,0,0-1.028-.308,2.987,2.987,0,0,0-.93.148,2.459,2.459,0,0,0-.775.4l-.616-1.2a3.711,3.711,0,0,1,1.166-.528,5.218,5.218,0,0,1,1.386-.187,3.141,3.141,0,0,1,2.1.638,2.476,2.476,0,0,1,.748,1.991V0Zm-1.8.088a2.735,2.735,0,0,1-1.188-.237,1.8,1.8,0,0,1-.759-.643,1.642,1.642,0,0,1-.264-.913,1.652,1.652,0,0,1,.259-.924,1.693,1.693,0,0,1,.819-.622,3.98,3.98,0,0,1,1.463-.225h1.573v1H23.232a1.29,1.29,0,0,0-.83.2.632.632,0,0,0-.226.495.617.617,0,0,0,.258.523,1.164,1.164,0,0,0,.71.192,1.473,1.473,0,0,0,.77-.2,1.166,1.166,0,0,0,.5-.6l.264.792a1.532,1.532,0,0,1-.682.869A2.453,2.453,0,0,1,22.715.088Zm1.848-6.82a.753.753,0,0,1-.539-.209.724.724,0,0,1-.22-.55.724.724,0,0,1,.22-.55.753.753,0,0,1,.539-.209.772.772,0,0,1,.545.209.715.715,0,0,1,.226.55.715.715,0,0,1-.226.55A.772.772,0,0,1,24.563-6.732Zm-2.222,0a.772.772,0,0,1-.545-.209.715.715,0,0,1-.226-.55.715.715,0,0,1,.226-.55.772.772,0,0,1,.545-.209.753.753,0,0,1,.539.209.724.724,0,0,1,.22.55.724.724,0,0,1-.22.55A.753.753,0,0,1,22.341-6.732ZM29.1-1.21l.044-2.09L31.9-5.918h2.046L31.3-3.223,30.4-2.5ZM27.676,0V-8.162h1.716V0Zm4.411,0-2-2.486,1.078-1.331,3,3.817ZM37.62.088a3.81,3.81,0,0,1-1.777-.4,2.92,2.92,0,0,1-1.182-1.083,2.957,2.957,0,0,1-.418-1.567,3.008,3.008,0,0,1,.412-1.579,2.924,2.924,0,0,1,1.127-1.078A3.318,3.318,0,0,1,37.4-6.006a3.307,3.307,0,0,1,1.568.369,2.759,2.759,0,0,1,1.105,1.056,3.171,3.171,0,0,1,.407,1.645q0,.1-.011.225t-.022.237H35.64v-1h3.9l-.66.3a1.645,1.645,0,0,0-.187-.8,1.365,1.365,0,0,0-.517-.534,1.5,1.5,0,0,0-.77-.193,1.531,1.531,0,0,0-.776.193,1.345,1.345,0,0,0-.522.539,1.7,1.7,0,0,0-.187.819v.264a1.664,1.664,0,0,0,.215.853,1.4,1.4,0,0,0,.6.561,2.055,2.055,0,0,0,.918.192,2.226,2.226,0,0,0,.831-.143,2.023,2.023,0,0,0,.654-.429l.913.99a2.66,2.66,0,0,1-1.023.71A3.785,3.785,0,0,1,37.62.088Zm4-.088V-5.918h1.639v1.672l-.231-.484a1.9,1.9,0,0,1,.847-.951A2.879,2.879,0,0,1,45.3-6.006v1.584q-.11-.011-.2-.016t-.187-.006a1.611,1.611,0,0,0-1.139.4,1.623,1.623,0,0,0-.435,1.248V0Zm8.294-6.006a2.755,2.755,0,0,1,1.259.28,2.034,2.034,0,0,1,.875.858,3.04,3.04,0,0,1,.319,1.479V0H50.655V-3.124a1.521,1.521,0,0,0-.313-1.056,1.143,1.143,0,0,0-.885-.341,1.549,1.549,0,0,0-.732.17,1.183,1.183,0,0,0-.506.523,1.964,1.964,0,0,0-.181.9V0H46.321V-8.162h1.716v3.883l-.385-.495a2.192,2.192,0,0,1,.913-.913A2.814,2.814,0,0,1,49.918-6.006ZM56.9.088a3.81,3.81,0,0,1-1.777-.4,2.92,2.92,0,0,1-1.182-1.083,2.957,2.957,0,0,1-.418-1.567,3.008,3.008,0,0,1,.412-1.579,2.924,2.924,0,0,1,1.127-1.078,3.318,3.318,0,0,1,1.617-.391,3.307,3.307,0,0,1,1.568.369,2.759,2.759,0,0,1,1.105,1.056,3.171,3.171,0,0,1,.407,1.645q0,.1-.011.225t-.022.237H54.923v-1h3.9l-.66.3a1.645,1.645,0,0,0-.187-.8,1.365,1.365,0,0,0-.517-.534,1.5,1.5,0,0,0-.77-.193,1.531,1.531,0,0,0-.776.193,1.345,1.345,0,0,0-.522.539,1.7,1.7,0,0,0-.187.819v.264a1.664,1.664,0,0,0,.215.853,1.4,1.4,0,0,0,.6.561,2.055,2.055,0,0,0,.918.192,2.226,2.226,0,0,0,.831-.143,2.023,2.023,0,0,0,.654-.429l.913.99a2.66,2.66,0,0,1-1.023.71A3.785,3.785,0,0,1,56.9.088Zm6.424,0A2.323,2.323,0,0,1,61.7-.446a2.048,2.048,0,0,1-.583-1.59V-7.227h1.716v5.17a.794.794,0,0,0,.2.578.717.717,0,0,0,.539.2,1.1,1.1,0,0,0,.693-.22l.462,1.21a1.885,1.885,0,0,1-.632.281A3.1,3.1,0,0,1,63.327.088ZM60.2-4.466v-1.32h4.1v1.32Z" transform="translate(296 403)" fill="#195f8c"/><path d="M.913,0V-7.7H4.246a4.329,4.329,0,0,1,1.782.335A2.609,2.609,0,0,1,7.183-6.4a2.687,2.687,0,0,1,.407,1.5,2.64,2.64,0,0,1-.407,1.48,2.588,2.588,0,0,1-1.155.952,4.392,4.392,0,0,1-1.782.33H1.9L2.7-2.926V0Zm4.9,0L3.883-2.794h1.9L7.733,0ZM2.7-2.728,1.9-3.564H4.147a1.824,1.824,0,0,0,1.232-.357,1.242,1.242,0,0,0,.407-.985,1.239,1.239,0,0,0-.407-.99,1.843,1.843,0,0,0-1.232-.352H1.9L2.7-7.095ZM12.452,0V-1.155l-.11-.253V-3.476a1.106,1.106,0,0,0-.335-.858,1.48,1.48,0,0,0-1.029-.308,2.987,2.987,0,0,0-.929.148,2.459,2.459,0,0,0-.776.4l-.616-1.2a3.711,3.711,0,0,1,1.166-.528,5.218,5.218,0,0,1,1.386-.187,3.141,3.141,0,0,1,2.1.638,2.476,2.476,0,0,1,.748,1.991V0Zm-1.8.088A2.735,2.735,0,0,1,9.46-.149,1.8,1.8,0,0,1,8.7-.792a1.642,1.642,0,0,1-.264-.913A1.652,1.652,0,0,1,8.7-2.629a1.693,1.693,0,0,1,.819-.622,3.98,3.98,0,0,1,1.463-.225h1.573v1H11.165a1.29,1.29,0,0,0-.831.2.632.632,0,0,0-.226.495.617.617,0,0,0,.259.523,1.164,1.164,0,0,0,.709.192,1.473,1.473,0,0,0,.77-.2,1.166,1.166,0,0,0,.495-.6l.264.792a1.532,1.532,0,0,1-.682.869A2.453,2.453,0,0,1,10.648.088Zm.726-6.6a1.348,1.348,0,0,1-.687-.181,1.333,1.333,0,0,1-.49-.478,1.291,1.291,0,0,1-.176-.671,1.3,1.3,0,0,1,.176-.666,1.319,1.319,0,0,1,.49-.484,1.348,1.348,0,0,1,.688-.181,1.36,1.36,0,0,1,.7.181,1.376,1.376,0,0,1,.49.484,1.269,1.269,0,0,1,.182.666,1.261,1.261,0,0,1-.182.671,1.391,1.391,0,0,1-.49.478A1.36,1.36,0,0,1,11.374-6.512Zm.011-.66a.641.641,0,0,0,.473-.187.641.641,0,0,0,.187-.473.674.674,0,0,0-.187-.489.645.645,0,0,0-.484-.193.646.646,0,0,0-.467.187.645.645,0,0,0-.193.484.645.645,0,0,0,.193.484A.66.66,0,0,0,11.385-7.172ZM18.194.088a3.007,3.007,0,0,1-1.507-.38,2.785,2.785,0,0,1-1.062-1.062,3.177,3.177,0,0,1-.391-1.606,3.2,3.2,0,0,1,.391-1.617,2.745,2.745,0,0,1,1.062-1.056,3.042,3.042,0,0,1,1.507-.374,2.534,2.534,0,0,1,1.309.33,2.169,2.169,0,0,1,.869,1,4.13,4.13,0,0,1,.308,1.716,4.273,4.273,0,0,1-.3,1.71,2.115,2.115,0,0,1-.852,1.006A2.571,2.571,0,0,1,18.194.088Zm.3-1.408a1.484,1.484,0,0,0,.759-.2,1.447,1.447,0,0,0,.545-.567,1.782,1.782,0,0,0,.2-.874,1.774,1.774,0,0,0-.2-.88A1.457,1.457,0,0,0,19.25-4.4a1.484,1.484,0,0,0-.759-.2,1.505,1.505,0,0,0-.77.2,1.457,1.457,0,0,0-.545.561,1.774,1.774,0,0,0-.2.88,1.782,1.782,0,0,0,.2.874,1.447,1.447,0,0,0,.545.567A1.505,1.505,0,0,0,18.491-1.32ZM20.042,0V-1.21l.033-1.76-.11-1.749V-8.162h1.716V0Zm3.223,0V-5.918h1.716V0Zm.858-6.743a1.088,1.088,0,0,1-.77-.275.892.892,0,0,1-.3-.682.892.892,0,0,1,.3-.682,1.088,1.088,0,0,1,.77-.275,1.13,1.13,0,0,1,.77.259.842.842,0,0,1,.3.665.943.943,0,0,1-.291.71A1.071,1.071,0,0,1,24.123-6.743Zm5.236,8.965a6.323,6.323,0,0,1-1.611-.2,3.5,3.5,0,0,1-1.293-.61L27.137.176a2.8,2.8,0,0,0,.951.489,3.783,3.783,0,0,0,1.139.182A1.833,1.833,0,0,0,30.552.44a1.629,1.629,0,0,0,.413-1.21v-.891l.11-1.485-.022-1.5V-5.918h1.628V-.99a3.133,3.133,0,0,1-.858,2.431A3.536,3.536,0,0,1,29.359,2.222ZM29.1-.286A3.1,3.1,0,0,1,27.6-.643a2.8,2.8,0,0,1-1.067-1,2.777,2.777,0,0,1-.4-1.5,2.8,2.8,0,0,1,.4-1.513,2.757,2.757,0,0,1,1.067-1A3.138,3.138,0,0,1,29.1-6.006a2.782,2.782,0,0,1,1.32.3,2.08,2.08,0,0,1,.891.935,3.6,3.6,0,0,1,.319,1.622,3.572,3.572,0,0,1-.319,1.612,2.113,2.113,0,0,1-.891.941A2.741,2.741,0,0,1,29.1-.286Zm.341-1.408a1.727,1.727,0,0,0,.8-.181,1.347,1.347,0,0,0,.55-.511,1.446,1.446,0,0,0,.2-.759,1.439,1.439,0,0,0-.2-.764,1.359,1.359,0,0,0-.55-.506,1.727,1.727,0,0,0-.8-.181,1.727,1.727,0,0,0-.8.181,1.4,1.4,0,0,0-.556.506,1.409,1.409,0,0,0-.2.764,1.416,1.416,0,0,0,.2.759,1.385,1.385,0,0,0,.556.511A1.727,1.727,0,0,0,29.436-1.694Zm8.437-4.312a2.755,2.755,0,0,1,1.259.28,2.034,2.034,0,0,1,.875.858,3.04,3.04,0,0,1,.319,1.479V0H38.61V-3.124A1.521,1.521,0,0,0,38.3-4.18a1.143,1.143,0,0,0-.885-.341,1.549,1.549,0,0,0-.732.17,1.183,1.183,0,0,0-.506.523,1.964,1.964,0,0,0-.181.9V0H34.276V-8.162h1.716v3.883l-.385-.495a2.192,2.192,0,0,1,.913-.913A2.814,2.814,0,0,1,37.873-6.006ZM44.858.088a3.81,3.81,0,0,1-1.777-.4A2.92,2.92,0,0,1,41.9-1.391a2.957,2.957,0,0,1-.418-1.567,3.008,3.008,0,0,1,.412-1.579,2.924,2.924,0,0,1,1.127-1.078,3.318,3.318,0,0,1,1.617-.391,3.307,3.307,0,0,1,1.568.369,2.759,2.759,0,0,1,1.105,1.056,3.171,3.171,0,0,1,.407,1.645q0,.1-.011.225t-.022.237H42.878v-1h3.9l-.66.3a1.645,1.645,0,0,0-.187-.8,1.365,1.365,0,0,0-.517-.534,1.5,1.5,0,0,0-.77-.193,1.531,1.531,0,0,0-.776.193,1.345,1.345,0,0,0-.522.539,1.7,1.7,0,0,0-.187.819v.264a1.664,1.664,0,0,0,.215.853,1.4,1.4,0,0,0,.6.561,2.055,2.055,0,0,0,.918.192,2.226,2.226,0,0,0,.831-.143,2.023,2.023,0,0,0,.654-.429l.913.99a2.66,2.66,0,0,1-1.023.71A3.785,3.785,0,0,1,44.858.088Zm6.424,0a2.323,2.323,0,0,1-1.628-.534,2.048,2.048,0,0,1-.583-1.59V-7.227h1.716v5.17a.794.794,0,0,0,.2.578.717.717,0,0,0,.539.2,1.1,1.1,0,0,0,.693-.22l.462,1.21a1.885,1.885,0,0,1-.632.281A3.1,3.1,0,0,1,51.282.088ZM48.158-4.466v-1.32h4.1v1.32Z" transform="translate(400 404)" fill="#195f8c"/><path d="M.913,0V-7.7H2.387L6.93-2.156H6.215V-7.7h1.76V0H6.512L1.958-5.544h.715V0Zm12.4,0V-1.155l-.11-.253V-3.476a1.106,1.106,0,0,0-.335-.858,1.48,1.48,0,0,0-1.029-.308,2.987,2.987,0,0,0-.929.148,2.459,2.459,0,0,0-.776.4l-.616-1.2a3.711,3.711,0,0,1,1.166-.528,5.218,5.218,0,0,1,1.386-.187,3.141,3.141,0,0,1,2.1.638,2.476,2.476,0,0,1,.748,1.991V0Zm-1.8.088a2.735,2.735,0,0,1-1.188-.237,1.8,1.8,0,0,1-.759-.643,1.642,1.642,0,0,1-.264-.913,1.652,1.652,0,0,1,.259-.924,1.693,1.693,0,0,1,.819-.622,3.98,3.98,0,0,1,1.463-.225h1.573v1H12.023a1.29,1.29,0,0,0-.831.2.632.632,0,0,0-.226.495.617.617,0,0,0,.259.523,1.164,1.164,0,0,0,.709.192,1.473,1.473,0,0,0,.77-.2,1.166,1.166,0,0,0,.495-.6l.264.792a1.532,1.532,0,0,1-.682.869A2.453,2.453,0,0,1,11.506.088Zm1.848-6.82a.753.753,0,0,1-.539-.209.724.724,0,0,1-.22-.55.724.724,0,0,1,.22-.55.753.753,0,0,1,.539-.209.772.772,0,0,1,.544.209.715.715,0,0,1,.226.55.715.715,0,0,1-.226.55A.772.772,0,0,1,13.354-6.732Zm-2.222,0a.772.772,0,0,1-.545-.209.715.715,0,0,1-.226-.55.715.715,0,0,1,.226-.55.772.772,0,0,1,.545-.209.753.753,0,0,1,.539.209.724.724,0,0,1,.22.55.724.724,0,0,1-.22.55A.753.753,0,0,1,11.132-6.732ZM16.467,0V-5.918h1.639v1.672l-.231-.484a1.9,1.9,0,0,1,.847-.951,2.879,2.879,0,0,1,1.419-.325v1.584q-.11-.011-.2-.016t-.187-.006a1.611,1.611,0,0,0-1.139.4,1.623,1.623,0,0,0-.434,1.248V0Zm4.7,0V-5.918H22.88V0Zm.858-6.743a1.088,1.088,0,0,1-.77-.275.892.892,0,0,1-.3-.682.892.892,0,0,1,.3-.682,1.088,1.088,0,0,1,.77-.275,1.13,1.13,0,0,1,.77.259.842.842,0,0,1,.3.665.943.943,0,0,1-.292.71A1.071,1.071,0,0,1,22.022-6.743Zm6.05.737a2.755,2.755,0,0,1,1.26.28,2.034,2.034,0,0,1,.875.858,3.04,3.04,0,0,1,.319,1.479V0H28.809V-3.124A1.521,1.521,0,0,0,28.5-4.18a1.143,1.143,0,0,0-.885-.341,1.549,1.549,0,0,0-.732.17,1.183,1.183,0,0,0-.506.523,1.964,1.964,0,0,0-.182.9V0H24.475V-5.918h1.639v1.639l-.308-.495a2.192,2.192,0,0,1,.913-.913A2.814,2.814,0,0,1,28.072-6.006ZM34.9,2.222a6.323,6.323,0,0,1-1.611-.2A3.5,3.5,0,0,1,32,1.408L32.681.176a2.8,2.8,0,0,0,.951.489,3.783,3.783,0,0,0,1.139.182A1.833,1.833,0,0,0,36.1.44a1.629,1.629,0,0,0,.412-1.21v-.891l.11-1.485-.022-1.5V-5.918h1.628V-.99a3.133,3.133,0,0,1-.858,2.431A3.536,3.536,0,0,1,34.9,2.222ZM34.639-.286a3.1,3.1,0,0,1-1.491-.357,2.8,2.8,0,0,1-1.067-1,2.777,2.777,0,0,1-.4-1.5,2.8,2.8,0,0,1,.4-1.513,2.757,2.757,0,0,1,1.067-1,3.138,3.138,0,0,1,1.491-.352,2.782,2.782,0,0,1,1.32.3,2.08,2.08,0,0,1,.891.935,3.6,3.6,0,0,1,.319,1.622,3.572,3.572,0,0,1-.319,1.612,2.113,2.113,0,0,1-.891.941A2.741,2.741,0,0,1,34.639-.286Zm.341-1.408a1.727,1.727,0,0,0,.8-.181,1.347,1.347,0,0,0,.55-.511,1.446,1.446,0,0,0,.2-.759,1.439,1.439,0,0,0-.2-.764,1.359,1.359,0,0,0-.55-.506,1.727,1.727,0,0,0-.8-.181,1.727,1.727,0,0,0-.8.181,1.4,1.4,0,0,0-.556.506,1.409,1.409,0,0,0-.2.764,1.416,1.416,0,0,0,.2.759,1.385,1.385,0,0,0,.556.511A1.727,1.727,0,0,0,34.98-1.694ZM41.811.088a5.773,5.773,0,0,1-1.458-.182A3.609,3.609,0,0,1,39.248-.55l.572-1.232a3.806,3.806,0,0,0,.963.413,3.953,3.953,0,0,0,1.094.16,1.794,1.794,0,0,0,.841-.143.44.44,0,0,0,.248-.4.337.337,0,0,0-.193-.314,1.685,1.685,0,0,0-.511-.16q-.319-.055-.7-.11T40.8-2.48a2.593,2.593,0,0,1-.7-.28,1.439,1.439,0,0,1-.512-.506,1.579,1.579,0,0,1-.193-.825,1.6,1.6,0,0,1,.325-.99,2.147,2.147,0,0,1,.94-.676,3.949,3.949,0,0,1,1.474-.247,5.97,5.97,0,0,1,1.232.132,3.345,3.345,0,0,1,1.045.385l-.572,1.221a2.9,2.9,0,0,0-.863-.346,4,4,0,0,0-.841-.094,1.725,1.725,0,0,0-.836.154.453.453,0,0,0-.264.4.357.357,0,0,0,.193.33,1.762,1.762,0,0,0,.512.176q.319.066.7.115a6.384,6.384,0,0,1,.764.148,2.756,2.756,0,0,1,.7.28,1.468,1.468,0,0,1,.511.5,1.515,1.515,0,0,1,.2.819,1.54,1.54,0,0,1-.33.973,2.167,2.167,0,0,1-.951.666A4.179,4.179,0,0,1,41.811.088Zm7.348,0a2.534,2.534,0,0,1-1.309-.33,2.2,2.2,0,0,1-.875-1.006,4.074,4.074,0,0,1-.313-1.71,4.264,4.264,0,0,1,.3-1.716,2.108,2.108,0,0,1,.858-1,2.6,2.6,0,0,1,1.342-.33,2.977,2.977,0,0,1,1.5.379,2.8,2.8,0,0,1,1.056,1.062,3.177,3.177,0,0,1,.39,1.606,3.2,3.2,0,0,1-.39,1.617A2.756,2.756,0,0,1,50.66-.286,3.011,3.011,0,0,1,49.159.088Zm-3.5,2.046V-5.918H47.3v1.21l-.033,1.76.11,1.749V2.134Zm3.2-3.454a1.476,1.476,0,0,0,.764-.2,1.46,1.46,0,0,0,.539-.567,1.782,1.782,0,0,0,.2-.874,1.774,1.774,0,0,0-.2-.88,1.47,1.47,0,0,0-.539-.561,1.476,1.476,0,0,0-.764-.2,1.505,1.505,0,0,0-.77.2,1.419,1.419,0,0,0-.539.561,1.815,1.815,0,0,0-.2.88,1.822,1.822,0,0,0,.2.874,1.41,1.41,0,0,0,.539.567A1.505,1.505,0,0,0,48.862-1.32ZM56.067.088a3.468,3.468,0,0,1-1.678-.4,3.015,3.015,0,0,1-1.155-1.083,2.927,2.927,0,0,1-.424-1.567,2.948,2.948,0,0,1,.424-1.579,2.974,2.974,0,0,1,1.155-1.078,3.507,3.507,0,0,1,1.678-.391,3.516,3.516,0,0,1,1.672.391,2.938,2.938,0,0,1,1.155,1.073,2.97,2.97,0,0,1,.418,1.584,2.957,2.957,0,0,1-.418,1.567A2.964,2.964,0,0,1,57.739-.308,3.476,3.476,0,0,1,56.067.088Zm0-1.408a1.505,1.505,0,0,0,.77-.2,1.41,1.41,0,0,0,.539-.567,1.822,1.822,0,0,0,.2-.874,1.815,1.815,0,0,0-.2-.88,1.419,1.419,0,0,0-.539-.561,1.505,1.505,0,0,0-.77-.2,1.505,1.505,0,0,0-.77.2,1.457,1.457,0,0,0-.545.561,1.774,1.774,0,0,0-.2.88,1.782,1.782,0,0,0,.2.874,1.447,1.447,0,0,0,.545.567A1.505,1.505,0,0,0,56.067-1.32ZM60.456,0V-8.162h1.716V0Zm3.311,0V-5.918h1.716V0Zm.858-6.743a1.088,1.088,0,0,1-.77-.275.892.892,0,0,1-.3-.682.892.892,0,0,1,.3-.682,1.088,1.088,0,0,1,.77-.275,1.13,1.13,0,0,1,.77.259.842.842,0,0,1,.3.665.943.943,0,0,1-.292.71A1.071,1.071,0,0,1,64.625-6.743ZM69.5.088A2.323,2.323,0,0,1,67.87-.446a2.048,2.048,0,0,1-.583-1.59V-7.227H69v5.17a.794.794,0,0,0,.2.578.717.717,0,0,0,.539.2,1.1,1.1,0,0,0,.693-.22L70.9-.286a1.885,1.885,0,0,1-.632.281A3.1,3.1,0,0,1,69.5.088ZM66.374-4.466v-1.32h4.1v1.32ZM71.863,0V-5.918h1.716V0Zm.858-6.743a1.088,1.088,0,0,1-.77-.275.892.892,0,0,1-.3-.682.892.892,0,0,1,.3-.682,1.088,1.088,0,0,1,.77-.275,1.13,1.13,0,0,1,.77.259.842.842,0,0,1,.3.665.943.943,0,0,1-.292.71A1.071,1.071,0,0,1,72.721-6.743ZM76.593-1.21l.044-2.09L79.4-5.918h2.046L78.793-3.223,77.9-2.5ZM75.174,0V-8.162H76.89V0Zm4.411,0-2-2.486,1.078-1.331,3,3.817Z" transform="translate(492 404)" fill="#195f8c"/></g></svg>