<svg xmlns="http://www.w3.org/2000/svg" xmlns:xlink="http://www.w3.org/1999/xlink" width="350" height="250" viewBox="0 0 350 250">
  <defs>
    <linearGradient id="linear-gradient" x1="0.5" x2="0.5" y2="1" gradientUnits="objectBoundingBox">
      <stop offset="0" stop-color="#fafefe"/>
      <stop offset="1" stop-color="#fff"/>
    </linearGradient>
    <clipPath id="clip-safespring_card_45">
      <rect width="350" height="250"/>
    </clipPath>
  </defs>
  <g id="safespring_card_45" clip-path="url(#clip-safespring_card_45)">
    <rect width="350" height="250" fill="#fff"/>
    <rect id="Rectangle_386" data-name="Rectangle 386" width="350" height="250" transform="translate(-0.432)" fill="url(#linear-gradient)"/>
    <g id="Group_615" data-name="Group 615" transform="translate(88.568 99)">
      <path id="Path_5669" data-name="Path 5669" d="M285.809,36.952c.459.325.78.513,1.055.75a25.223,25.223,0,0,0,8.362,4.961,13.216,13.216,0,0,0,5.632.775,6.03,6.03,0,0,0,3.472-1.522,3.7,3.7,0,0,0-.346-5.865,9.07,9.07,0,0,0-2.564-1.338c-2.276-.717-4.61-1.255-6.895-1.947a26.685,26.685,0,0,1-9.175-4.285,9.415,9.415,0,0,1-3.093-4.956,16.247,16.247,0,0,1-.267-8.037,11.682,11.682,0,0,1,5.878-7.945c3.6-2.084,7.491-2.564,11.539-2.439a27.029,27.029,0,0,1,11.768,3.051c1.226.638,2.355,1.467,3.531,2.2.3.188.609.35,1.03.588-1.872,2.835-3.547,5.34-5.448,7.791a11.28,11.28,0,0,1-1.025-.579,20.577,20.577,0,0,0-6.8-3.293c-2.247-.563-4.531-1.142-6.853-.267a4.22,4.22,0,0,0-2.964,2.947,3.3,3.3,0,0,0,1.617,4.006,25.056,25.056,0,0,0,4.394,1.83c2.764.884,5.6,1.551,8.354,2.468a16.016,16.016,0,0,1,6.257,3.843,10.337,10.337,0,0,1,2.943,6.415,16.622,16.622,0,0,1-.333,6.611,12.389,12.389,0,0,1-4.615,6.62,15.247,15.247,0,0,1-7.633,3.039c-1.346.125-2.689.392-4.031.388a27.328,27.328,0,0,1-15.861-4.869c-1.138-.792-2.214-1.672-3.3-2.53a7.316,7.316,0,0,1-.8-.871c2.068-2.526,4.094-5,6.178-7.545Z" transform="translate(-163.072 -2.966)" fill="#444b53"/>
      <path id="Path_5670" data-name="Path 5670" d="M216.632,43.875c-.909.921-1.667,1.763-2.505,2.522a23.894,23.894,0,0,1-6.649,4.414,24.293,24.293,0,0,1-12.2,1.88,25.8,25.8,0,0,1-8.333-2.1A22.59,22.59,0,0,1,175.4,38.965a26.141,26.141,0,0,1-1.767-12.326,22.435,22.435,0,0,1,1.121-5.794,21.811,21.811,0,0,1,5.924-9.183A23.527,23.527,0,0,1,186.331,7.6a23.009,23.009,0,0,1,10.113-2.48,37.455,37.455,0,0,1,5.3.179,27.63,27.63,0,0,1,5.019,1.284,22.823,22.823,0,0,1,9.225,6.228c.254.271.471.575.788.975-2.059,2.526-4.231,4.861-6.428,7.312-.417-.4-.7-.638-.95-.909a16.368,16.368,0,0,0-4.848-3.714,14.456,14.456,0,0,0-8-1.317,13.284,13.284,0,0,0-10.638,6.916,13.839,13.839,0,0,0-1.63,8.145,13.884,13.884,0,0,0,2.384,7.007,12.361,12.361,0,0,0,7.174,5.19c5.9,1.48,10.872-.138,15.028-4.481a11.1,11.1,0,0,0,.8-1.063c2.551,2.214,4.61,4.569,6.97,6.995Z" transform="translate(-101.21 -2.982)" fill="#444b53"/>
      <path id="Path_5671" data-name="Path 5671" d="M42.092,50.831c-2.03.071-4.11.129-6.19.213-5.757.233-11.505-.071-17.258-.183-.488-.008-.971,0-1.459-.008a17.488,17.488,0,0,1-15.04-9,29.937,29.937,0,0,1-1.6-4.248A13.434,13.434,0,0,1,.01,32.577,16.361,16.361,0,0,1,3.633,22.4a16.823,16.823,0,0,1,5.744-4.861c1.075-.546,2.209-.984,3.335-1.43a1.36,1.36,0,0,0,.875-1.159,19.56,19.56,0,0,1,1.926-5.565A17.77,17.77,0,0,1,34.017.254,17.735,17.735,0,0,1,44.084,5.665a15.272,15.272,0,0,1,3.906,6.87q.331,1.351.6,2.722a1.66,1.66,0,0,0,1.05,1.3,19.167,19.167,0,0,1,6.249,4.018,18.447,18.447,0,0,1,4.544,7.574,18.489,18.489,0,0,1,.363,8.637A17.408,17.408,0,0,1,47.815,50.335a19.464,19.464,0,0,1-5.719.5ZM17.381,19.446c-.367.071-.6.121-.838.154a14.123,14.123,0,0,0-6.72,2.555,13.725,13.725,0,0,0-5.69,9.425A13.284,13.284,0,0,0,5.98,40.164a12.7,12.7,0,0,0,4.569,4.606,11.79,11.79,0,0,0,4.731,1.755,10.594,10.594,0,0,0,5.227-.975,13.88,13.88,0,0,0,8.408-11.188c.188-1.3.175-2.622.242-3.935,0-.092-.079-.183-.2-.45a8.953,8.953,0,0,0-1.367.513c-1.23.709-2.414,1.5-3.652,2.193A2.01,2.01,0,0,1,21.5,32.6a2.174,2.174,0,0,1-.709-2.505,11.038,11.038,0,0,1,1.434-1.23c2.772-1.713,5.54-3.439,8.383-5.031a14.048,14.048,0,0,0,3.031-2.326A17.159,17.159,0,0,1,42.717,16.4a11.77,11.77,0,0,0,1.713-.613,12.192,12.192,0,0,0-.342-2.138A14.731,14.731,0,0,0,40.066,7.57a13.438,13.438,0,0,0-16.9-.817A12.722,12.722,0,0,0,19.1,11.417a14.328,14.328,0,0,0-1.617,7.028,7.316,7.316,0,0,1-.1.992Zm9.7,27.266c.067.1.133.188.2.283a11.612,11.612,0,0,0,1.309.1c4.961-.121,9.917-.3,14.878-.367a13.368,13.368,0,0,0,7.87-2.539A13.8,13.8,0,0,0,57.107,34.14a12.253,12.253,0,0,0-1.246-6.553,13.227,13.227,0,0,0-5.415-6.019,8.46,8.46,0,0,0-5.2-1.43,13.29,13.29,0,0,0-8.521,4.285,1.238,1.238,0,0,0-.233,1.588c1.255,2.626,2.468,5.269,3.672,7.92a4.527,4.527,0,0,1,.354,1.3,1.922,1.922,0,0,1-1.884,2.251A2.185,2.185,0,0,1,36.6,36.1c-.717-1.421-1.321-2.893-2.005-4.331a9.794,9.794,0,0,0-.709-1.1c-.746.283-.688.817-.742,1.334-.179,1.684-.3,3.385-.621,5.04a15.572,15.572,0,0,1-4.706,8.5,5.413,5.413,0,0,0-.729,1.167Z" transform="translate(-0.003 0)" fill="#1e91cc"/>
      <path id="Path_5672" data-name="Path 5672" d="M371.563,25.484c.8-1.572,1.542-3.022,2.293-4.5.909.488,1.7.9,2.476,1.342a8.554,8.554,0,0,0,4.952,1.146c1.663-.113,3.431-1.513,3.61-2.922.267-2.109-1.159-3.485-2.939-4.06a9.1,9.1,0,0,0-4.706.079c-.229.046-.463.071-.884.133a12.509,12.509,0,0,0-.017-1.905,4.787,4.787,0,0,1,1.68-4.235c.863-.9,1.647-1.876,2.439-2.839a7.657,7.657,0,0,0,.579-1.08,10.144,10.144,0,0,0-1.53-.263c-1.7-.029-3.4-.013-5.1-.013h-1.246v-4.7c5.211-.121,10.442-.042,15.824-.063a24.173,24.173,0,0,1-.063,4c-.117.663-.838,1.234-1.326,1.809-1.009,1.188-2.055,2.347-3.064,3.535a6.083,6.083,0,0,0-.521.913c.742.325,1.355.625,1.988.863a6.185,6.185,0,0,1,3.618,3.518,8.687,8.687,0,0,1-.88,8.679,7.753,7.753,0,0,1-3.9,2.8c-2.4.9-4.9.638-7.307.384-2.08-.221-3.968-1.342-5.986-2.626Z" transform="translate(-216.669 -0.935)" fill="#1e91cc"/>
    </g>
  </g>
</svg>
