<svg xmlns="http://www.w3.org/2000/svg" xmlns:xlink="http://www.w3.org/1999/xlink" width="350" height="250" viewBox="0 0 350 250"><defs><linearGradient id="linear-gradient" x1="0.5" x2="0.5" y2="1" gradientUnits="objectBoundingBox"><stop offset="0" stop-color="#fafefe"/><stop offset="1" stop-color="#fff"/></linearGradient><clipPath id="clip-safespring_card_45"><path d="M0 0h350v250H0z"/></clipPath></defs><g id="safespring_card_45" clip-path="url(#clip-safespring_card_45)"><path fill="#fff" d="M0 0h350v250H0z"/><path id="Rectangle_386" fill="url(#linear-gradient)" d="M0 0h350v250H0z" transform="translate(-.432)"/><g id="Group_615" transform="translate(88.568 99)"><path id="Path_5669" fill="#444b53" d="M285.8 36.95c.47.33.79.51 1.06.75a25 25 0 0 0 8.37 4.96 13 13 0 0 0 5.63.78 6 6 0 0 0 3.47-1.52 3.7 3.7 0 0 0-.35-5.87 9 9 0 0 0-2.56-1.34c-2.28-.71-4.61-1.25-6.9-1.94a27 27 0 0 1-9.17-4.29 9.4 9.4 0 0 1-3.1-4.96 16 16 0 0 1-.26-8.03 11.7 11.7 0 0 1 5.88-7.95c3.6-2.08 7.49-2.56 11.54-2.44a27 27 0 0 1 11.76 3.05c1.23.64 2.36 1.47 3.54 2.2.3.2.6.35 1.03.6a124 124 0 0 1-5.45 7.78 11 11 0 0 1-1.03-.58 21 21 0 0 0-6.8-3.29c-2.24-.56-4.53-1.14-6.85-.27a4.2 4.2 0 0 0-2.96 2.95 3.3 3.3 0 0 0 1.61 4 25 25 0 0 0 4.4 1.84c2.76.88 5.6 1.55 8.35 2.47a16 16 0 0 1 6.26 3.84 10.3 10.3 0 0 1 2.94 6.41 17 17 0 0 1-.33 6.61 12.4 12.4 0 0 1-4.62 6.62 15 15 0 0 1-7.63 3.04c-1.35.13-2.69.4-4.03.4a27.3 27.3 0 0 1-15.86-4.88c-1.14-.79-2.22-1.67-3.3-2.53a7 7 0 0 1-.8-.87l6.18-7.54Z" transform="translate(-163.072 -2.966)"/><path id="Path_5670" fill="#444b53" d="M216.63 43.88c-.9.92-1.66 1.76-2.5 2.52a24 24 0 0 1-6.65 4.41 24.3 24.3 0 0 1-12.2 1.88 26 26 0 0 1-8.33-2.1 22.6 22.6 0 0 1-11.55-11.62 26 26 0 0 1-1.77-12.33 22 22 0 0 1 1.12-5.8 22 22 0 0 1 5.93-9.18 24 24 0 0 1 5.65-4.06 23 23 0 0 1 10.11-2.48 38 38 0 0 1 5.3.18 28 28 0 0 1 5.02 1.28 23 23 0 0 1 9.23 6.23c.25.27.47.58.79.98-2.06 2.52-4.23 4.86-6.43 7.3-.42-.4-.7-.63-.95-.9a16 16 0 0 0-4.85-3.72 14.5 14.5 0 0 0-8-1.31 13.3 13.3 0 0 0-10.64 6.91 14 14 0 0 0-1.63 8.15 14 14 0 0 0 2.39 7 12.4 12.4 0 0 0 7.17 5.2c5.9 1.48 10.87-.14 15.03-4.49a11 11 0 0 0 .8-1.06c2.55 2.22 4.6 4.57 6.97 7Z" transform="translate(-101.21 -2.982)"/><path id="Path_5671" fill="#1e91cc" d="m42.1 50.83-6.2.21c-5.75.24-11.5-.07-17.26-.18H17.2a17.5 17.5 0 0 1-15.04-9 30 30 0 0 1-1.6-4.25A13 13 0 0 1 0 32.58 16.4 16.4 0 0 1 3.63 22.4a17 17 0 0 1 5.75-4.86c1.07-.55 2.2-.99 3.33-1.43a1.4 1.4 0 0 0 .88-1.16 20 20 0 0 1 1.92-5.57A17.8 17.8 0 0 1 34.01.25a17.7 17.7 0 0 1 10.07 5.42A15 15 0 0 1 48 12.54q.33 1.35.6 2.72a1.7 1.7 0 0 0 1.05 1.3 19 19 0 0 1 6.25 4.01 18.5 18.5 0 0 1 4.54 7.58 18.5 18.5 0 0 1 .37 8.64 17.4 17.4 0 0 1-12.98 13.55 20 20 0 0 1-5.72.5ZM17.37 19.45c-.37.07-.6.12-.84.15a14 14 0 0 0-6.72 2.56 13.7 13.7 0 0 0-5.69 9.42 13.3 13.3 0 0 0 1.85 8.58 12.7 12.7 0 0 0 4.57 4.61 12 12 0 0 0 4.73 1.76 10.6 10.6 0 0 0 5.23-.98 13.9 13.9 0 0 0 8.4-11.19c.2-1.3.18-2.62.25-3.93 0-.1-.08-.19-.2-.45a9 9 0 0 0-1.37.51c-1.23.7-2.41 1.5-3.65 2.2a2 2 0 0 1-2.44-.09 2.2 2.2 0 0 1-.7-2.5 11 11 0 0 1 1.42-1.23c2.78-1.72 5.55-3.44 8.39-5.04a14 14 0 0 0 3.03-2.32 17 17 0 0 1 9.08-5.11 12 12 0 0 0 1.71-.61 12 12 0 0 0-.34-2.14 15 15 0 0 0-4.02-6.08 13.44 13.44 0 0 0-16.9-.82 13 13 0 0 0-4.07 4.67 14.3 14.3 0 0 0-1.62 7.03 7 7 0 0 1-.1.99Zm9.7 27.26.2.29a12 12 0 0 0 1.31.1c4.96-.13 9.92-.3 14.88-.37a13.4 13.4 0 0 0 7.87-2.54 13.8 13.8 0 0 0 5.77-10.05 12.3 12.3 0 0 0-1.25-6.55 13.2 13.2 0 0 0-5.41-6.02 8.5 8.5 0 0 0-5.2-1.43 13.3 13.3 0 0 0-8.53 4.28 1.24 1.24 0 0 0-.23 1.6q1.88 3.93 3.67 7.91a5 5 0 0 1 .36 1.3 1.92 1.92 0 0 1-1.89 2.25 2.2 2.2 0 0 1-2.03-1.38c-.72-1.42-1.32-2.9-2-4.33a10 10 0 0 0-.71-1.1c-.75.28-.7.82-.75 1.33-.18 1.69-.3 3.39-.62 5.04a15.6 15.6 0 0 1-4.7 8.5 5 5 0 0 0-.73 1.17Z" transform="translate(-.003)"/><path id="Path_5672" fill="#1e91cc" d="m371.56 25.48 2.3-4.5c.9.5 1.7.9 2.47 1.35a8.6 8.6 0 0 0 4.95 1.14c1.67-.11 3.44-1.51 3.61-2.92.27-2.1-1.15-3.48-2.93-4.06a9 9 0 0 0-4.71.08c-.23.05-.46.07-.89.13a13 13 0 0 0-.01-1.9 4.8 4.8 0 0 1 1.68-4.24c.86-.9 1.64-1.87 2.44-2.84a8 8 0 0 0 .58-1.08 10 10 0 0 0-1.53-.26q-2.55-.03-5.1-.01h-1.25v-4.7c5.21-.12 10.44-.04 15.82-.07a24 24 0 0 1-.06 4c-.12.67-.84 1.24-1.32 1.81-1.01 1.2-2.06 2.35-3.07 3.54a6 6 0 0 0-.52.91c.74.33 1.36.63 1.99.86a6.2 6.2 0 0 1 3.62 3.52 8.7 8.7 0 0 1-.88 8.68 8 8 0 0 1-3.9 2.8c-2.4.9-4.9.64-7.31.39-2.08-.23-3.97-1.35-5.99-2.63Z" transform="translate(-216.669 -.935)"/></g></g></svg>