<svg xmlns="http://www.w3.org/2000/svg" xmlns:xlink="http://www.w3.org/1999/xlink" width="350" height="250" viewBox="0 0 350 250"><defs><clipPath id="clip-safespring_card_49"><path d="M0 0h350v250H0z"/></clipPath></defs><g id="safespring_card_49" clip-path="url(#clip-safespring_card_49)"><path fill="#e7eff3" d="M0 0h350v250H0z"/><rect id="Rectangle_423" width="68.503" height="46.803" fill="#9f7ac2" rx="9" transform="rotate(90 37.127 161.127)"/><rect id="Rectangle_421" width="133" height="84" fill="#ee3c39" rx="9" transform="translate(95.345 89)"/><path id="blå" fill="#263b70" d="M9 0h40v46.8H9a9 9 0 0 1-9-9V9a9 9 0 0 1 9-9" transform="rotate(90 37.127 161.127)"/><rect id="gul" width="97.376" height="79.803" fill="#f7c72a" rx="9" transform="rotate(90 98.579 156.076)"/><path id="Rectangle_426" fill="#87c4b2" d="M9 0h56.87v44.5a9 9 0 0 1-9 9H0V9a9 9 0 0 1 9-9" transform="rotate(90 69.672 158.673)"/><path id="vit" fill="#fff" d="M9 0h21.87v14.4a9 9 0 0 1-9 9H0V9a9 9 0 0 1 9-9" transform="rotate(90 37.127 161.127)"/></g></svg>