<svg xmlns="http://www.w3.org/2000/svg" xmlns:xlink="http://www.w3.org/1999/xlink" width="3840" height="2160" viewBox="0 0 3840 2160">
  <defs>
    <clipPath id="clip-safespring-background">
      <rect width="3840" height="2160"/>
    </clipPath>
  </defs>
  <g id="safespring-background" clip-path="url(#clip-safespring-background)">
    <rect width="3840" height="2160" fill="#e8eff3"/>
    <circle id="Ellipse_5" data-name="Ellipse 5" cx="715.5" cy="715.5" r="715.5" transform="translate(1360 345)" fill="rgba(60,155,205,0.1)"/>
    <circle id="Ellipse_4" data-name="Ellipse 4" cx="445.5" cy="445.5" r="445.5" transform="translate(1946 -196)" fill="rgba(60,155,205,0.08)"/>
    <circle id="Ellipse_1" data-name="Ellipse 1" cx="1457.5" cy="1457.5" r="1457.5" transform="translate(1920 895)" fill="rgba(60,155,205,0.1)"/>
    <circle id="Ellipse_3" data-name="Ellipse 3" cx="1024" cy="1024" r="1024" transform="translate(-374 273)" fill="rgba(60,155,205,0.1)"/>
    <g id="Logo" transform="translate(1117 295)" style="isolation: isolate">
      <g id="safespring_logotype_blue_svg" transform="translate(14.006 616.055)">
        <path id="Path_4872" data-name="Path 4872" d="M909.07,595.287c-5.632-2.251-10.693-3.939-18.012-6.445-13.2-4.221-26.117-9.006-26.117-19.981s8.442-16.579,21.364-16.579a48.946,48.946,0,0,1,33.772,14.355l11.258-16.606c-8.442-8.979-21.923-17.42-45.539-17.42s-45.029,13.509-45.029,38.22a34.441,34.441,0,0,0,21.077,32.058,98.662,98.662,0,0,0,18.266,7.052c9.006,3.1,30.116,7.6,30.116,22.292S897,651.34,884.641,651.34a54.88,54.88,0,0,1-39.4-19.107L832.32,647.966a64.017,64.017,0,0,0,52.012,23.871,56.9,56.9,0,0,0,37.091-11.822,37.91,37.91,0,0,0,13.764-30.337,32.96,32.96,0,0,0-10.666-24.739,51.331,51.331,0,0,0-15.451-9.652Z" transform="translate(-401.637 -384.385)" fill="#417da5"/>
        <path id="Path_4873" data-name="Path 4873" d="M930.759,532.61a102.805,102.805,0,0,0-50.043,13.509l8.138,17.985a81.924,81.924,0,0,1,40.19-11.54c19.389,0,33.18,10.129,33.18,30.381v5.349l-35.714,1.4c-30.961,1.378-52.266,14.61-52.266,40.754s21.359,41.318,46.071,41.318a54.641,54.641,0,0,0,42.468-19.84l.283,16.889h26.117V591.067c0-22.786-5.323-34-14.328-43.288S952.964,532.61,930.759,532.61Zm31.775,100.643a42.017,42.017,0,0,1-34.026,19.389c-17.421,0-27.555-10.411-27.555-23.052s8.724-21.923,30.381-23.052l31.211-1.969Z" transform="translate(-325.58 -384.385)" fill="#417da5"/>
        <path id="Path_4874" data-name="Path 4874" d="M1014.4,532.61c-37.092,0-67.744,26.99-67.744,69.15s27.272,69.985,66.9,69.985,57.046-19.7,58.739-21.082l-11.257-15.478a73.829,73.829,0,0,1-44.134,15.478c-24.739,0-41.595-16.015-43.006-42.441h102.894a116,116,0,0,0,.846-11.821C1077.624,559.036,1051.5,532.61,1014.4,532.61Zm-40.19,57.643a39.288,39.288,0,0,1,39.4-38.247,38.736,38.736,0,0,1,38.519,38.247Z" transform="translate(-194.17 -384.385)" fill="#417da5"/>
        <path id="Path_4875" data-name="Path 4875" d="M1073.4,595.287c-5.626-2.251-10.693-3.939-17.985-6.445-13.227-4.221-26.144-9.006-26.144-19.981s8.442-16.579,21.359-16.579a49,49,0,0,1,33.772,14.355l11.257-16.606c-8.442-8.979-21.923-17.42-45.539-17.42s-45.029,13.509-45.029,38.22a34.435,34.435,0,0,0,21.082,32.057,100.31,100.31,0,0,0,18.267,7.053c8.979,3.1,30.088,7.6,30.088,22.205s-13.2,19.113-25.585,19.113a54.819,54.819,0,0,1-39.382-19.13l-12.945,15.733a64.015,64.015,0,0,0,52.011,23.871,56.856,56.856,0,0,0,37.1-11.821,37.938,37.938,0,0,0,13.791-30.337,32.964,32.964,0,0,0-10.693-24.739A51,51,0,0,0,1073.4,595.287Z" transform="translate(-103.519 -384.385)" fill="#417da5"/>
        <path id="Path_4876" data-name="Path 4876" d="M1112.385,532.62a56.622,56.622,0,0,0-47.366,23.616h-.543V535.154h-25.862V719.475h26.99V647.6l.282.282A51.876,51.876,0,0,0,1112,671.749c39.6,0,64.929-30.381,64.929-69.985S1151.734,532.62,1112.385,532.62Zm-5.626,116.1c-26.708,0-42.441-20.518-42.441-47.2s15.733-46.944,42.441-46.944,42.441,20.236,42.441,46.944S1133.478,648.72,1106.759,648.72Z" transform="translate(-27.309 -384.395)" fill="#417da5"/>
        <rect id="Rectangle_290" data-name="Rectangle 290" width="26.99" height="133.519" transform="translate(1258.926 150.759)" fill="#417da5"/>
        <path id="Path_4877" data-name="Path 4877" d="M1212.6,532.62a45.029,45.029,0,0,0-40.84,23.616h-.847l.283-21.082h-26.99V668.815h26.99V601.482c0-25.585,9.288-46.656,34.308-46.656,23.871,0,27.809,16.889,27.809,39.4v74.585h26.99V589.7C1260.395,557.641,1250.574,532.62,1212.6,532.62Z" transform="translate(164.276 -384.401)" fill="#417da5"/>
        <path id="Path_4878" data-name="Path 4878" d="M1302.45,535.18l.283,21.082h-.846a53.372,53.372,0,0,0-46.656-23.611c-34.282,0-64.37,24.739-64.37,67.18s30.088,67.18,64.37,67.18a53.455,53.455,0,0,0,46.656-23.871h.543V648.4c0,18.294-4.784,30.961-10.1,37.407s-16.606,14.6-36.587,14.6a84.807,84.807,0,0,1-47.844-16.888l-12.636,18.831a102.537,102.537,0,0,0,59.584,19.954c33.181,0,49.76-13.481,59.613-25.585s14.6-28.146,14.6-57.61V535.18Zm-41.595,109.762c-27.272,0-42.441-19.954-42.441-45.257s15.191-45.539,42.441-45.539,42.441,20.236,42.441,45.539-14.887,45.4-42.441,45.4Z" transform="translate(248.925 -384.422)" fill="#417da5"/>
        <path id="Path_4879" data-name="Path 4879" d="M932.156,525.548c-5.626,7.053-9.006,18.267-9.006,35.714v146.86h26.708V596.363h31.748V574.749H949.858V559.862c0-15.19,2.816-28.4,20.518-28.4a51.3,51.3,0,0,1,11.257,1.432V512.522a86.822,86.822,0,0,0-17.42-1.573,40.446,40.446,0,0,0-32.058,14.6Z" transform="translate(-236.831 -423.703)" fill="#417da5"/>
        <path id="Path_4880" data-name="Path 4880" d="M1120.625,555.688h-.846l.282-20.518h-26.99V668.809h26.99v-66.73c0-19.7,5.626-30.088,8.138-33.772a28.145,28.145,0,0,1,21.923-11.257,35.355,35.355,0,0,1,14.648,2.815V533.944a44.444,44.444,0,0,0-11.258-1.351,35,35,0,0,0-32.886,23.1Z" transform="translate(71.485 -384.412)" fill="#417da5"/>
        <circle id="Ellipse_22" data-name="Ellipse 22" cx="17.561" cy="17.561" r="17.561" transform="translate(1254.705 87.235)" fill="#417da5"/>
        <path id="Path_4871" data-name="Path 4871" d="M964.819,567.766a98.505,98.505,0,0,0-195.849,0,98.505,98.505,0,0,0,10.85,196.593h87.053a55,55,0,0,0,0-109.991,32.085,32.085,0,1,1,22.71-54.854A11.453,11.453,0,1,0,905.8,583.347,55,55,0,1,0,866.873,677.1a32.085,32.085,0,1,1,0,64.169h-87.08a75.626,75.626,0,1,1,0-151.252,11.426,11.426,0,0,0,11.425-11.422,75.626,75.626,0,1,1,151.252,0,11.453,11.453,0,0,0,11.45,11.425,75.626,75.626,0,1,1,0,151.252,11.454,11.454,0,1,0,0,22.908,98.505,98.505,0,0,0,10.85-196.452Z" transform="translate(-679.303 -479.939)" fill="#417da5"/>
      </g>
    </g>
  </g>
</svg>
