<svg xmlns="http://www.w3.org/2000/svg" xmlns:xlink="http://www.w3.org/1999/xlink" width="350" height="250" viewBox="0 0 350 250"><defs><style>.a{clip-path:url(#b);}.b,.g{fill:none;stroke-linecap:round;}.b{stroke:#195f8c;stroke-width:6px;}.c{fill:#d82f19;}.d{fill:#e6e6e6;}.e{fill:#195f8c;}.f{fill:#fff;}.g{stroke:#ffee1f;stroke-width:8px;stroke-dasharray:0 13;}.h{fill:#e7eff3;}</style><clipPath id="b"><rect width="350" height="250"/></clipPath></defs><g id="a" class="a"><rect class="h" width="350" height="250"/><path class="b" d="M6259.533,15261.717s44.378-40.7,110.64-4.891" transform="translate(-6144.263 -15165.768)"/><path class="c" d="M10,0H70.46a10,10,0,0,1,10,10V41.357a10,10,0,0,1-10,10H10a10,10,0,0,1-10-10V10A10,10,0,0,1,10,0Z" transform="translate(72.27 122.067)"/><path class="d" d="M80.46,4.828H0V-1.5H80.46Z" transform="translate(72.27 161.464)"/><path class="d" d="M80.46,4.828H0V-1.5H80.46Z" transform="translate(72.27 146.7)"/><path class="d" d="M80.46,4.828H0V-1.5H80.46Z" transform="translate(72.27 131.937)"/><path class="e" d="M10,0H33.747V29.528H0V10A10,10,0,0,1,10,0Z" transform="translate(72.27 121.999)"/><path class="f" d="M2.109,0A2.109,2.109,0,1,1,0,2.109,2.109,2.109,0,0,1,2.109,0Z" transform="translate(76.488 134.655)"/><path class="f" d="M2.109,0A2.109,2.109,0,1,1,0,2.109,2.109,2.109,0,0,1,2.109,0Z" transform="translate(87.034 126.218)"/><path class="f" d="M2.109,0A2.109,2.109,0,1,1,0,2.109,2.109,2.109,0,0,1,2.109,0Z" transform="translate(97.58 126.218)"/><path class="f" d="M2.109,0A2.109,2.109,0,1,1,0,2.109,2.109,2.109,0,0,1,2.109,0Z" transform="translate(76.488 143.091)"/><path class="f" d="M2.109,0A2.109,2.109,0,1,1,0,2.109,2.109,2.109,0,0,1,2.109,0Z" transform="translate(87.034 134.655)"/><path class="f" d="M2.109,0A2.109,2.109,0,1,1,0,2.109,2.109,2.109,0,0,1,2.109,0Z" transform="translate(87.034 143.091)"/><path class="f" d="M2.109,0A2.109,2.109,0,1,1,0,2.109,2.109,2.109,0,0,1,2.109,0Z" transform="translate(97.58 134.655)"/><path class="f" d="M2.109,0A2.109,2.109,0,1,1,0,2.109,2.109,2.109,0,0,1,2.109,0Z" transform="translate(97.58 143.091)"/><path class="f" d="M2.109,0A2.109,2.109,0,1,1,0,2.109,2.109,2.109,0,0,1,2.109,0Z" transform="translate(76.488 126.218)"/><path class="e" d="M10.978,2.56a2,2,0,0,1,3.348,0l8.955,13.7a2,2,0,0,1-1.674,3.094H3.7a2,2,0,0,1-1.674-3.094Z" transform="translate(243.154 91.241) rotate(132)"/><path class="e" d="M10,0H70.46a10,10,0,0,1,10,10V41.357a10,10,0,0,1-10,10H10a10,10,0,0,1-10-10V10A10,10,0,0,1,10,0Z" transform="translate(197.27 122.321)"/><path class="g" d="M14.277,0A14.464,14.464,0,0,1,28.554,14.645,14.464,14.464,0,0,1,14.277,29.289,14.464,14.464,0,0,1,0,14.645,14.464,14.464,0,0,1,14.277,0Z" transform="translate(223.223 133.355)"/></g></svg>