<svg xmlns="http://www.w3.org/2000/svg" xmlns:xlink="http://www.w3.org/1999/xlink" width="350" height="250" viewBox="0 0 350 250"><defs><radialGradient id="a" cx="0.5" cy="0.5" r="0.5" gradientUnits="objectBoundingBox"><stop offset="0" stop-color="#fff"/><stop offset="1" stop-color="#e7eff3"/></radialGradient><clipPath id="c"><path d="M0 0h350v250H0z"/></clipPath></defs><g id="b" clip-path="url(#c)"><path fill="url(#a)" d="M0 0h350v250H0z"/><g transform="translate(206.044 82.995)"><rect width="38.148" height="24.35" fill="#195f8c" rx="3"/><path fill="#ffe26a" d="M16.2 24.35h-4V0h4Z"/><path fill="#ffe26a" d="M38.15 14.18H0v-4h38.15Z"/></g><path fill="#3c9bcd" d="M83.27 83.27v2.49a8 8 0 0 0-2.27-.98 10 10 0 0 0-2.73-.4 6 6 0 0 0-3.85 1.14 3.6 3.6 0 0 0-1.44 3 4 4 0 0 0 .37 1.74 4 4 0 0 0 1.28 1.38 14 14 0 0 0 1.57.97q.66.35 2.03.92 1.26.54 1.91.85a15 15 0 0 1 1.66.95 7 7 0 0 1 1.53 1.28 6 6 0 0 1 .93 1.62 6 6 0 0 1 .42 2.18 5.8 5.8 0 0 1-2.13 4.84 8.5 8.5 0 0 1-5.43 1.67 12 12 0 0 1-6.38-1.58v-2.48a9 9 0 0 0 2.8 1.36 12 12 0 0 0 3.47.54 6.3 6.3 0 0 0 3.98-1.11 3.8 3.8 0 0 0 1.42-3.2 3.3 3.3 0 0 0-1.08-2.58 12 12 0 0 0-3.13-1.89l-1.26-.56-1.37-.59q-.4-.18-1.23-.61a7 7 0 0 1-1.2-.76q-.38-.32-.96-.86a4 4 0 0 1-.82-1.08 9 9 0 0 1-.47-1.28 6 6 0 0 1-.22-1.57 5.7 5.7 0 0 1 2.2-4.77 8.5 8.5 0 0 1 5.37-1.7 10.6 10.6 0 0 1 5.03 1.07m11.13 23.4-6.3-18.25h2.3l2.55 7.67 2.92 8.82q.36-1.33 2.99-8.82l2.66-7.67h2.3l-6.48 18.25Zm25.2-10.15v-.83a5.6 5.6 0 0 0-1.39-3.96 5 5 0 0 0-3.73-1.47 5 5 0 0 0-3.85 1.62 7.4 7.4 0 0 0-1.8 4.64Zm1.11 7.02v2.23a11 11 0 0 1-5.04 1.08 9 9 0 0 1-6.6-2.54 9 9 0 0 1-2.54-6.67 10 10 0 0 1 2.23-6.92 7.4 7.4 0 0 1 5.8-2.52 6.8 6.8 0 0 1 5.33 2.2 9 9 0 0 1 1.98 6.2 10 10 0 0 1-.15 1.94h-12.89a6.6 6.6 0 0 0 2.09 4.62 7 7 0 0 0 4.86 1.6 9 9 0 0 0 4.93-1.22m7.81-15.12v3.1a5.2 5.2 0 0 1 5.12-3.31q.25 0 .9.07v2.23a5 5 0 0 0-1.44-.21 3.9 3.9 0 0 0-3.26 1.92 7.4 7.4 0 0 0-1.32 4.27v10.18h-2.2V88.42Zm9.26 18.25V88.42h2.2v18.25Zm0-23a1.5 1.5 0 0 1-.44-1.08 1.5 1.5 0 0 1 .44-1.1 1.4 1.4 0 0 1 1.08-.45 1.5 1.5 0 0 1 1.1.45 1.5 1.5 0 0 1 .45 1.1 1.4 1.4 0 0 1-.46 1.08 1.5 1.5 0 0 1-1.1.43 1.5 1.5 0 0 1-1.07-.43m14.32 20.48a5.3 5.3 0 0 0 3.75-1.6 6.5 6.5 0 0 0 1.7-4.91q0-3.78-1.63-5.6a4.8 4.8 0 0 0-3.63-1.82 4.7 4.7 0 0 0-4.03 2.01 8.6 8.6 0 0 0-1.48 5.22 7 7 0 0 0 1.65 5 5 5 0 0 0 3.67 1.7m5.44-15.73h2.2v16.85q0 4.14-2.23 6.21a8 8 0 0 1-5.76 2.07 12 12 0 0 1-5.33-1.04v-2.17a11.4 11.4 0 0 0 5.14 1.12 6.2 6.2 0 0 0 4.36-1.5 6 6 0 0 0 1.62-4.69v-2.38a5.9 5.9 0 0 1-5.47 3.35 7 7 0 0 1-5.38-2.34 8.8 8.8 0 0 1-2.22-6.34 11 11 0 0 1 2.04-6.76 6.4 6.4 0 0 1 5.34-2.67 5.9 5.9 0 0 1 5.7 3.5Zm19.4 8.1v-.83a5.6 5.6 0 0 0-1.38-3.96 5 5 0 0 0-3.73-1.47 5 5 0 0 0-3.85 1.62 7.4 7.4 0 0 0-1.8 4.64Zm1.12 7.02v2.23a11 11 0 0 1-5.04 1.08 9 9 0 0 1-6.6-2.54 9 9 0 0 1-2.54-6.67 10 10 0 0 1 2.23-6.92 7.4 7.4 0 0 1 5.8-2.52 6.8 6.8 0 0 1 5.33 2.2 9 9 0 0 1 1.98 6.2 10 10 0 0 1-.15 1.94h-12.89a6.6 6.6 0 0 0 2.09 4.63 7 7 0 0 0 4.86 1.6 9 9 0 0 0 4.93-1.23m15.16-14.47v2.2a9 9 0 0 0-4.58-.97 4 4 0 0 0-2.5.74 2.4 2.4 0 0 0-.91 1.92 3 3 0 0 0 .27 1.26 3 3 0 0 0 .93 1 8 8 0 0 0 1.14.66q.46.22 1.5.65a13 13 0 0 1 3.88 2.21 4.2 4.2 0 0 1 1.35 3.26 4.4 4.4 0 0 1-1.57 3.57 6.5 6.5 0 0 1-4.3 1.32 11 11 0 0 1-5.33-1.08v-2.27a10.3 10.3 0 0 0 5.19 1.37 4.4 4.4 0 0 0 2.79-.76 2.4 2.4 0 0 0 .95-1.98 2.7 2.7 0 0 0-.99-2.23 13 13 0 0 0-3.26-1.7 12 12 0 0 1-3.49-2 4 4 0 0 1-1.3-3.18 4.3 4.3 0 0 1 1.62-3.5 6.3 6.3 0 0 1 4.07-1.32 10 10 0 0 1 4.54.83M71.1 142.67v-24.26h2.24v24.26Zm11.42-16.38v11.34q0 3.13 2.91 3.13a3.7 3.7 0 0 0 2.45-.82v2.23a4.3 4.3 0 0 1-2.41.69q-5.19 0-5.19-5.33v-11.24H77.3v-1.87h2.98v-4.57h2.24v4.57h5.22v1.87Zm9.14 7.63v-1.98h8.1v1.98Zm15.7 4.97a4.8 4.8 0 0 0 3.88 1.98 5.5 5.5 0 0 0 4.04-1.7q1.69-1.72 1.69-5.71a10 10 0 0 0-.56-3.51 5.5 5.5 0 0 0-1.44-2.27 6 6 0 0 0-1.76-1.12 5 5 0 0 0-1.75-.34 5 5 0 0 0-4.03 1.96 8.7 8.7 0 0 0-1.59 5.6 8.2 8.2 0 0 0 1.52 5.11m9.61-21.67h2.2v25.45h-2.2v-2.66a6.3 6.3 0 0 1-5.65 2.95 6.8 6.8 0 0 1-5.72-2.68 10.4 10.4 0 0 1-2.06-6.54 10.6 10.6 0 0 1 2.2-6.93 7 7 0 0 1 5.66-2.68 6.4 6.4 0 0 1 5.58 3.03Zm9.87 7.2v3.1a5.2 5.2 0 0 1 5.1-3.32q.26 0 .9.08v2.23a5 5 0 0 0-1.44-.22 3.9 3.9 0 0 0-3.26 1.93 7.4 7.4 0 0 0-1.31 4.26v10.2h-2.2v-18.26Zm9.24 18.25v-18.25h2.2v18.25Zm0-23a1.5 1.5 0 0 1-.43-1.08 1.5 1.5 0 0 1 .43-1.1 1.4 1.4 0 0 1 1.08-.45 1.54 1.54 0 0 1 1.55 1.55 1.4 1.4 0 0 1-.45 1.08 1.5 1.5 0 0 1-1.1.43 1.5 1.5 0 0 1-1.08-.43m15.92-2.41v2.16a4 4 0 0 0-1.59-.29 2.4 2.4 0 0 0-1.85.85 3.7 3.7 0 0 0-.78 2.54v1.9h4.18v1.87h-4.18v16.38h-2.2V126.3h-3.34v-1.87h3.35v-1.95a5.8 5.8 0 0 1 1.3-3.96 4.6 4.6 0 0 1 3.64-1.47 6 6 0 0 1 1.47.22Zm6.98 9.04v11.33q0 3.13 2.92 3.13a3.7 3.7 0 0 0 2.44-.82v2.23a4.3 4.3 0 0 1-2.4.69q-5.2 0-5.2-5.33v-11.24h-2.98v-1.87h2.98v-4.57h2.24v4.57h5.22v1.87Zm11.92-1.88v3.13a5.95 5.95 0 0 1 5.8-3.42 5.6 5.6 0 0 1 4.2 1.62 5.7 5.7 0 0 1 1.6 4.18v12.74h-2.2v-12.06a4.5 4.5 0 0 0-1.09-3.24 3.8 3.8 0 0 0-2.84-1.11 5.1 5.1 0 0 0-3.85 1.7 6.5 6.5 0 0 0-1.62 4.63v10.08h-2.2v-18.25Zm26.38-3.02a1.54 1.54 0 0 1-1.54-1.55 1.5 1.5 0 0 1 .45-1.11 1.5 1.5 0 0 1 1.1-.44 1.5 1.5 0 0 1 1.54 1.55 1.5 1.5 0 0 1-.43 1.1 1.5 1.5 0 0 1-1.12.45m-6.62 0a1.5 1.5 0 0 1-1.12-.45 1.5 1.5 0 0 1-.43-1.1 1.5 1.5 0 0 1 1.55-1.55 1.5 1.5 0 0 1 1.1.43 1.5 1.5 0 0 1 .45 1.12 1.54 1.54 0 0 1-1.55 1.55m7.13 12.6h-3.57a6 6 0 0 0-3.81.99 3 3 0 0 0-1.26 2.47 3.2 3.2 0 0 0 .99 2.44 4 4 0 0 0 2.9.94 5 5 0 0 0 3.45-1.19 4 4 0 0 0 1.3-3.02Zm-9.65-6.23v-2.38a10 10 0 0 1 5.15-1.26q6.7 0 6.7 7.02v11.52h-2.2v-2.12q-1.51 2.3-5.25 2.3a5.8 5.8 0 0 1-4.13-1.5 5 5 0 0 1-1.6-3.83 4.7 4.7 0 0 1 2.04-4.09 9 9 0 0 1 5.38-1.45h3.56v-.83a5.6 5.6 0 0 0-1.04-3.69 4.3 4.3 0 0 0-3.5-1.24 9 9 0 0 0-5.1 1.55m20.48-1.48v11.34q0 3.13 2.92 3.13a3.7 3.7 0 0 0 2.45-.82v2.23a4.3 4.3 0 0 1-2.41.69q-5.19 0-5.19-5.33v-11.24h-2.99v-1.87h3v-4.57h2.22v4.57h5.22v1.87ZM223 142.67l-6.3-18.25h2.3l2.55 7.67 2.92 8.82q.36-1.33 2.99-8.82l2.66-7.67h2.3l-6.47 18.25Zm25.2-10.15v-.83a5.6 5.6 0 0 0-1.39-3.96 5 5 0 0 0-3.72-1.47 5 5 0 0 0-3.86 1.62 7.4 7.4 0 0 0-1.8 4.64Zm1.11 7.02v2.23a11 11 0 0 1-5.04 1.08 9 9 0 0 1-6.6-2.54 9 9 0 0 1-2.54-6.67 10 10 0 0 1 2.23-6.92 7.4 7.4 0 0 1 5.8-2.52 6.8 6.8 0 0 1 5.33 2.2 9 9 0 0 1 1.98 6.2 10 10 0 0 1-.14 1.94h-12.9a6.6 6.6 0 0 0 2.1 4.63 7 7 0 0 0 4.85 1.6 9 9 0 0 0 4.93-1.23m7.82-15.12v3.1a5.2 5.2 0 0 1 5.1-3.31q.26 0 .9.07v2.23a5 5 0 0 0-1.43-.21 3.9 3.9 0 0 0-3.26 1.92 7.4 7.4 0 0 0-1.31 4.27v10.18h-2.2v-18.25Zm9.1 18.25v-25.45h2.2v25.45Zm5.4-9.57 7.7 9.57h-2.73l-7.63-9.57 7.41-8.68h2.7Z"/><circle cx="59" cy="59" r="59" fill="#d3e3e9" transform="translate(40 207.83)"/><circle cx="59" cy="59" r="59" fill="#d3e3e9" transform="translate(-38 164.83)"/><circle cx="59" cy="59" r="59" fill="#d3e3e9" transform="rotate(-57 323.977 -133.605)"/><circle cx="59" cy="59" r="59" fill="#d3e3e9" transform="rotate(-57 323.384 -40.309)"/></g></svg>