<svg xmlns="http://www.w3.org/2000/svg" width="340" height="240" viewBox="0 0 340 240"><g transform="translate(-233 -237)"><path fill="#f8f8f8" d="M233 237h340v240H233z"/><path fill="#606060" d="M363.54 317.7a15.7 15.7 0 0 1 15.7-15.7h70.61a15.7 15.7 0 0 1 15.7 15.7v78.46a15.7 15.7 0 0 1-15.7 15.7h-90.23A19.6 19.6 0 0 1 340 392.23v-66.7a7.85 7.85 0 0 1 15.7 0v66.7a3.92 3.92 0 1 0 7.84 0Zm15.7 5.88v19.62a5.87 5.87 0 0 0 5.88 5.88h58.85a5.87 5.87 0 0 0 5.88-5.88v-19.62a5.87 5.87 0 0 0-5.88-5.89h-58.85a5.87 5.87 0 0 0-5.89 5.89m0 45.12a3.94 3.94 0 0 0 3.92 3.92h23.54a3.92 3.92 0 1 0 0-7.85h-23.54a3.94 3.94 0 0 0-3.93 3.93Zm39.23 0a3.94 3.94 0 0 0 3.92 3.92h23.54a3.92 3.92 0 0 0 0-7.85h-23.54a3.94 3.94 0 0 0-3.92 3.93m-39.24 23.54a3.94 3.94 0 0 0 3.93 3.92h23.54a3.92 3.92 0 1 0 0-7.85h-23.54a3.94 3.94 0 0 0-3.93 3.93m39.24 0a3.94 3.94 0 0 0 3.92 3.92h23.54a3.92 3.92 0 0 0 0-7.85h-23.54a3.94 3.94 0 0 0-3.92 3.93"/></g></svg>