<svg xmlns="http://www.w3.org/2000/svg" xmlns:xlink="http://www.w3.org/1999/xlink" width="350" height="250" viewBox="0 0 350 250">
  <defs>
    <radialGradient id="radial-gradient" cx="0.5" cy="0.5" r="0.5" gradientUnits="objectBoundingBox">
      <stop offset="0" stop-color="#fafefe"/>
      <stop offset="1" stop-color="#e7eff3"/>
    </radialGradient>
    <clipPath id="clip-path">
      <rect id="Rectangle_490" data-name="Rectangle 490" width="198.292" height="33.001" fill="#fff"/>
    </clipPath>
    <clipPath id="clip-safespring_eosc">
      <rect width="350" height="250"/>
    </clipPath>
  </defs>
  <g id="safespring_eosc" clip-path="url(#clip-safespring_eosc)">
    <rect width="350" height="250" fill="url(#radial-gradient)"/>
    <g id="Group_705" data-name="Group 705" transform="translate(-7 35)">
      <g id="EOSCA_logo" transform="translate(83 73)" clip-path="url(#clip-path)">
        <path id="Path_6121" data-name="Path 6121" d="M134.642,16.706a2.033,2.033,0,0,0,.735-1.625,15.869,15.869,0,0,0-1.286-6.233,15.677,15.677,0,0,0-3.237-4.763,13.508,13.508,0,0,0-4.635-3.053A14.946,14.946,0,0,0,120.777,0,14.062,14.062,0,0,0,113.6,1.979a15.043,15.043,0,0,0-5.5,5.738,18.326,18.326,0,0,0-2.106,9.074,17.007,17.007,0,0,0,2.021,8.4A14.613,14.613,0,0,0,113.7,30.9a17.171,17.171,0,0,0,8.607,2.078,14.1,14.1,0,0,0,6.2-1.4,15.483,15.483,0,0,0,4.664-3.293,2.487,2.487,0,0,0,.976-1.894,2.007,2.007,0,0,0-.608-1.47,1.984,1.984,0,0,0-1.47-.608,2.725,2.725,0,0,0-1.583.551,14.42,14.42,0,0,1-1.922,1.682,10.154,10.154,0,0,1-2.713,1.371,12.5,12.5,0,0,1-9.71-1,10.8,10.8,0,0,1-4-4.24,12.59,12.59,0,0,1-1.414-5.314h22.2a2.542,2.542,0,0,0,1.71-.636m-20.734-9.37a9.339,9.339,0,0,1,3.237-2.078,10.242,10.242,0,0,1,3.632-.664,9.912,9.912,0,0,1,4.311.975,9.758,9.758,0,0,1,3.477,2.784,7.51,7.51,0,0,1,1.611,4.311v.495H111a11.716,11.716,0,0,1,.594-2.134,10.175,10.175,0,0,1,2.317-3.661" transform="translate(-35.935)" fill="#040305"/>
        <path id="Path_6122" data-name="Path 6122" d="M190.646,16.472a17.015,17.015,0,0,1-2.106,8.494,15.619,15.619,0,0,1-5.682,5.865,15.294,15.294,0,0,1-8.028,2.134,15.488,15.488,0,0,1-13.766-8,17.015,17.015,0,0,1-2.106-8.494,17.015,17.015,0,0,1,2.106-8.494,15.488,15.488,0,0,1,13.766-8,15.426,15.426,0,0,1,8.028,2.134,15.83,15.83,0,0,1,5.682,5.865A16.871,16.871,0,0,1,190.646,16.472Zm-4.947,0a13.015,13.015,0,0,0-1.427-6.2,11.21,11.21,0,0,0-3.9-4.212A10.224,10.224,0,0,0,174.845,4.5a10.38,10.38,0,0,0-5.583,1.555,11.311,11.311,0,0,0-3.943,4.212,12.667,12.667,0,0,0-1.47,6.2,12.539,12.539,0,0,0,1.47,6.162,11.185,11.185,0,0,0,3.943,4.24,10.312,10.312,0,0,0,5.583,1.555,10.121,10.121,0,0,0,5.526-1.555,10.964,10.964,0,0,0,3.9-4.24A12.833,12.833,0,0,0,185.7,16.472Z" transform="translate(-53.892 0.007)" fill="#040305"/>
        <path id="Path_6123" data-name="Path 6123" d="M214.962,27.362a2.877,2.877,0,0,1-.452-1.682,1.967,1.967,0,0,1,1-1.555,2.4,2.4,0,0,1,1.5-.368,2.283,2.283,0,0,1,1.5.791,13.752,13.752,0,0,0,3.9,3.208,11.172,11.172,0,0,0,5.37,1.187,12.667,12.667,0,0,0,2.9-.481,5.253,5.253,0,0,0,2.5-1.5,3.921,3.921,0,0,0,1-2.841,3.518,3.518,0,0,0-1.032-2.714,7.966,7.966,0,0,0-2.714-1.654,33.171,33.171,0,0,0-3.576-1.131c-1.342-.368-2.671-.777-3.971-1.216a14.754,14.754,0,0,1-3.505-1.738,8.414,8.414,0,0,1-2.5-2.685,7.76,7.76,0,0,1-.947-4,7.719,7.719,0,0,1,1.5-4.763,9.8,9.8,0,0,1,4-3.109A13.4,13.4,0,0,1,226.99,0a16.89,16.89,0,0,1,3.576.4A13.791,13.791,0,0,1,234.2,1.738a10.093,10.093,0,0,1,3.109,2.6,2.47,2.47,0,0,1,.608,1.526,1.983,1.983,0,0,1-.792,1.654,2.293,2.293,0,0,1-1.5.452,1.936,1.936,0,0,1-1.372-.579,8.653,8.653,0,0,0-3.265-2.417,10.65,10.65,0,0,0-4.24-.82,9.356,9.356,0,0,0-2.812.452,5.53,5.53,0,0,0-2.346,1.442,3.844,3.844,0,0,0-.947,2.742,3.847,3.847,0,0,0,1.1,2.685,7.452,7.452,0,0,0,2.812,1.682c1.173.424,2.487.848,3.9,1.258,1.3.325,2.558.707,3.759,1.131a13.2,13.2,0,0,1,3.265,1.682,7.516,7.516,0,0,1,2.318,2.657,8.671,8.671,0,0,1,.848,4.056,7.709,7.709,0,0,1-1.583,4.848,9.832,9.832,0,0,1-4.184,3.109,14.655,14.655,0,0,1-5.583,1.074,18.7,18.7,0,0,1-6.657-1.258,12.786,12.786,0,0,1-5.682-4.367" transform="translate(-72.724)" fill="#040305"/>
        <path id="Path_6124" data-name="Path 6124" d="M274.869,0a21.743,21.743,0,0,1,5.681.678,10.925,10.925,0,0,1,3.972,1.837,3.353,3.353,0,0,1,1.47,2.629,2.567,2.567,0,0,1-.551,1.583,1.79,1.79,0,0,1-1.527.735,2.39,2.39,0,0,1-1.314-.339,7.284,7.284,0,0,1-.976-.791,5.761,5.761,0,0,0-1.243-.89,9.094,9.094,0,0,0-2.134-.636,14.58,14.58,0,0,0-2.812-.269A11.006,11.006,0,0,0,269.54,6.12a11.382,11.382,0,0,0-4,4.268,12.58,12.58,0,0,0-1.47,6.106,13.046,13.046,0,0,0,1.4,6.106,10.893,10.893,0,0,0,3.915,4.282,10.576,10.576,0,0,0,5.795,1.583,12.677,12.677,0,0,0,3.392-.368,10.283,10.283,0,0,0,2.162-.862,8.191,8.191,0,0,0,1.625-1.216,2.378,2.378,0,0,1,3.237.057,2.388,2.388,0,0,1,.58,1.654,3.25,3.25,0,0,1-1.527,2.374,12.653,12.653,0,0,1-4.155,2.049,19.482,19.482,0,0,1-5.865.82,15.114,15.114,0,0,1-8.127-2.162,14.669,14.669,0,0,1-5.4-5.922,18.084,18.084,0,0,1-1.922-8.4,17.624,17.624,0,0,1,1.978-8.367A15.368,15.368,0,0,1,266.686,2.2,15.158,15.158,0,0,1,274.869,0Z" transform="translate(-87.87 0)" fill="#040305"/>
        <path id="Path_6125" data-name="Path 6125" d="M28.762,2.643a16.487,16.487,0,0,0-17.907,0,2.09,2.09,0,0,0-.961,1.583,2.19,2.19,0,0,0,.636,1.795l.89.89a2.142,2.142,0,0,0,2.671.325,10.867,10.867,0,0,1,11.434,0A2.163,2.163,0,0,0,28.2,6.911l.89-.89a2.219,2.219,0,0,0,.636-1.795A2.172,2.172,0,0,0,28.762,2.643Z" transform="translate(-3.35)" fill="#008691"/>
        <path id="Path_6126" data-name="Path 6126" d="M13.929,30.707A10.982,10.982,0,0,1,7.088,14.242a2.079,2.079,0,0,0-.311-2.572l-.89-.89a2.114,2.114,0,0,0-1.724-.608A2.047,2.047,0,0,0,2.65,11.1a16.318,16.318,0,0,0-2.629,8.9A16.536,16.536,0,0,0,13,36.092a2.194,2.194,0,0,0,.438.042,2.039,2.039,0,0,0,1.3-.466,2.1,2.1,0,0,0,.792-1.654V32.771a2.1,2.1,0,0,0-1.569-2.049" transform="translate(-0.007 -3.444)" fill="#eb5d81"/>
        <path id="Path_6127" data-name="Path 6127" d="M52.865.128A16.467,16.467,0,0,0,36.414,16.58v.156a11.064,11.064,0,0,1-8.862,10.642,1.483,1.483,0,0,0-1.187,1.456v2.516a1.533,1.533,0,0,0,.523,1.145,1.428,1.428,0,0,0,1.173.325A16.4,16.4,0,0,0,41.855,16.58a11.01,11.01,0,1,1,11.01,11.01,2.714,2.714,0,1,0,0,5.427,16.444,16.444,0,1,0,0-32.888Z" transform="translate(-8.939 -0.044)" fill="#008691"/>
      </g>
    </g>
  </g>
</svg>
