<svg xmlns="http://www.w3.org/2000/svg" xmlns:xlink="http://www.w3.org/1999/xlink" width="350" height="250" viewBox="0 0 350 250"><defs><radialGradient id="radial-gradient" cx="0.5" cy="0.5" r="0.5" gradientUnits="objectBoundingBox"><stop offset="0" stop-color="#fafefe"/><stop offset="1" stop-color="#e7eff3"/></radialGradient><clipPath id="clip-path"><path id="Rectangle_490" fill="#fff" d="M0 0h198.3v33H0z"/></clipPath><clipPath id="clip-safespring_eosc"><path d="M0 0h350v250H0z"/></clipPath></defs><g id="safespring_eosc" clip-path="url(#clip-safespring_eosc)"><path fill="url(#radial-gradient)" d="M0 0h350v250H0z"/><g id="Group_705" transform="translate(-7 35)"><g id="EOSCA_logo" clip-path="url(#clip-path)" transform="translate(83 73)"><path id="Path_6121" fill="#040305" d="M134.64 16.7a2 2 0 0 0 .74-1.62 16 16 0 0 0-1.29-6.23 16 16 0 0 0-3.24-4.77 13.5 13.5 0 0 0-4.63-3.05A15 15 0 0 0 120.78 0a14 14 0 0 0-7.18 1.98 15 15 0 0 0-5.5 5.74 18.3 18.3 0 0 0-2.1 9.07 17 17 0 0 0 2.01 8.4 14.6 14.6 0 0 0 5.69 5.71 17 17 0 0 0 8.6 2.08 14 14 0 0 0 6.2-1.4 16 16 0 0 0 4.67-3.3 2.5 2.5 0 0 0 .98-1.89 2 2 0 0 0-.61-1.47 2 2 0 0 0-1.47-.6 2.7 2.7 0 0 0-1.58.54 14 14 0 0 1-1.93 1.69 10 10 0 0 1-2.7 1.37 12.5 12.5 0 0 1-9.72-1 11 11 0 0 1-4-4.24 13 13 0 0 1-1.41-5.32h22.2a2.5 2.5 0 0 0 1.7-.63M113.9 7.36a9 9 0 0 1 3.24-2.08 10 10 0 0 1 3.63-.66 10 10 0 0 1 4.31.97 10 10 0 0 1 3.48 2.78 7.5 7.5 0 0 1 1.61 4.32v.49H111a12 12 0 0 1 .6-2.13 10 10 0 0 1 2.31-3.66" transform="translate(-35.935)"/><path id="Path_6122" fill="#040305" d="M190.65 16.47a17 17 0 0 1-2.11 8.5 15.6 15.6 0 0 1-5.68 5.86 15.3 15.3 0 0 1-8.03 2.14 15.5 15.5 0 0 1-13.77-8 17 17 0 0 1-2.1-8.5 17 17 0 0 1 2.1-8.5 15.5 15.5 0 0 1 13.77-8 15.4 15.4 0 0 1 8.03 2.14 16 16 0 0 1 5.68 5.87 17 17 0 0 1 2.1 8.5m-4.95 0a13 13 0 0 0-1.43-6.2 11 11 0 0 0-3.9-4.21 10 10 0 0 0-5.53-1.56 10.4 10.4 0 0 0-5.58 1.56 11.3 11.3 0 0 0-3.94 4.2 13 13 0 0 0-1.47 6.2 12.5 12.5 0 0 0 1.47 6.17 11 11 0 0 0 3.94 4.24 10.3 10.3 0 0 0 5.59 1.55 10 10 0 0 0 5.52-1.55 11 11 0 0 0 3.9-4.24 13 13 0 0 0 1.43-6.16" transform="translate(-53.892 .007)"/><path id="Path_6123" fill="#040305" d="M214.96 27.36a3 3 0 0 1-.45-1.68 2 2 0 0 1 1-1.55 2.4 2.4 0 0 1 1.5-.37 2.3 2.3 0 0 1 1.5.79 14 14 0 0 0 3.9 3.2 11 11 0 0 0 5.37 1.2 13 13 0 0 0 2.9-.49 5.3 5.3 0 0 0 2.5-1.5 4 4 0 0 0 1-2.84 3.5 3.5 0 0 0-1.03-2.71 8 8 0 0 0-2.72-1.66 33 33 0 0 0-3.57-1.13 72 72 0 0 1-3.97-1.21 15 15 0 0 1-3.5-1.74 8.4 8.4 0 0 1-2.5-2.69 8 8 0 0 1-.95-4 7.7 7.7 0 0 1 1.5-4.76 10 10 0 0 1 4-3.1A13 13 0 0 1 226.99 0a17 17 0 0 1 3.58.4 14 14 0 0 1 3.63 1.34 10 10 0 0 1 3.1 2.6 2.5 2.5 0 0 1 .62 1.52 2 2 0 0 1-.8 1.66 2.3 2.3 0 0 1-1.5.45 2 2 0 0 1-1.37-.58A9 9 0 0 0 231 4.97a11 11 0 0 0-4.24-.82 9 9 0 0 0-2.81.46 5.5 5.5 0 0 0-2.35 1.44 3.8 3.8 0 0 0-.95 2.74 4 4 0 0 0 1.1 2.69 7.5 7.5 0 0 0 2.81 1.68q1.78.63 3.9 1.25 1.96.5 3.76 1.14a13 13 0 0 1 3.27 1.68 7.5 7.5 0 0 1 2.32 2.65 9 9 0 0 1 .84 4.06 7.7 7.7 0 0 1-1.58 4.85 10 10 0 0 1-4.18 3.1 15 15 0 0 1-5.59 1.08 19 19 0 0 1-6.65-1.26 13 13 0 0 1-5.68-4.36" transform="translate(-72.724)"/><path id="Path_6124" fill="#040305" d="M274.87 0a22 22 0 0 1 5.68.68 11 11 0 0 1 3.97 1.84A3.4 3.4 0 0 1 286 5.14a2.6 2.6 0 0 1-.55 1.59 1.8 1.8 0 0 1-1.53.73 2.4 2.4 0 0 1-1.31-.34 7 7 0 0 1-.98-.79 6 6 0 0 0-1.24-.89 9 9 0 0 0-2.13-.63 15 15 0 0 0-2.81-.27 11 11 0 0 0-5.9 1.58 11.4 11.4 0 0 0-4 4.27 12.6 12.6 0 0 0-1.47 6.1 13 13 0 0 0 1.4 6.11 11 11 0 0 0 3.91 4.28 10.6 10.6 0 0 0 5.8 1.59 13 13 0 0 0 3.4-.37 10 10 0 0 0 2.15-.87 8 8 0 0 0 1.63-1.21 2.4 2.4 0 0 1 3.24.06 2.4 2.4 0 0 1 .58 1.65 3.3 3.3 0 0 1-1.53 2.37 13 13 0 0 1-4.16 2.05 20 20 0 0 1-5.86.82 15 15 0 0 1-8.13-2.16 14.7 14.7 0 0 1-5.4-5.92 18 18 0 0 1-1.92-8.4 17.6 17.6 0 0 1 1.98-8.37 15.4 15.4 0 0 1 5.53-5.92 15 15 0 0 1 8.18-2.2" transform="translate(-87.87)"/><path id="Path_6125" fill="#008691" d="M28.76 2.64a16.5 16.5 0 0 0-17.9 0 2.1 2.1 0 0 0-.97 1.59 2.2 2.2 0 0 0 .64 1.8l.89.88a2.14 2.14 0 0 0 2.67.33 10.9 10.9 0 0 1 11.43 0 2.16 2.16 0 0 0 2.68-.33l.89-.89a2.2 2.2 0 0 0 .64-1.8 2.2 2.2 0 0 0-.97-1.58" transform="translate(-3.35)"/><path id="Path_6126" fill="#eb5d81" d="M13.93 30.7a10.98 10.98 0 0 1-6.84-16.46 2.1 2.1 0 0 0-.31-2.57l-.9-.89a2.1 2.1 0 0 0-1.72-.6 2 2 0 0 0-1.51.92A16.3 16.3 0 0 0 .02 20 16.54 16.54 0 0 0 13 36.1a2 2 0 0 0 .44.03 2 2 0 0 0 1.3-.46 2.1 2.1 0 0 0 .79-1.66v-1.24a2.1 2.1 0 0 0-1.57-2.05" transform="translate(-.007 -3.444)"/><path id="Path_6127" fill="#008691" d="M52.87.13A16.47 16.47 0 0 0 36.4 16.58v.16a11.06 11.06 0 0 1-8.86 10.64 1.5 1.5 0 0 0-1.19 1.45v2.52a1.5 1.5 0 0 0 .53 1.14 1.4 1.4 0 0 0 1.17.33 16.4 16.4 0 0 0 13.8-16.24 11.01 11.01 0 1 1 11 11.01 2.71 2.71 0 1 0 0 5.43 16.44 16.44 0 1 0 0-32.9" transform="translate(-8.939 -.044)"/></g></g></g></svg>