<svg xmlns="http://www.w3.org/2000/svg" xmlns:xlink="http://www.w3.org/1999/xlink" width="3500" height="2500" viewBox="0 0 3500 2500"><defs><radialGradient id="radial-gradient" cx="0.5" cy="0.5" r="0.5" gradientUnits="objectBoundingBox"><stop offset="0" stop-color="#e7eff3"/><stop offset="1" stop-color="#d8e8f0"/></radialGradient><clipPath id="clip-safespring-zero-egress-cost_1"><path d="M0 0h3500v2500H0z"/></clipPath></defs><g id="safespring-zero-egress-cost_1" clip-path="url(#clip-safespring-zero-egress-cost_1)"><path fill="url(#radial-gradient)" d="M0 0h3500v2500H0z"/><g id="Group_626" transform="translate(-317 122.064)"><rect id="Rectangle_396" width="2780" height="131" fill="#bed2df" rx="39" transform="translate(677 1661.937)"/><rect id="Rectangle_397" width="2167" height="133" fill="#bed2df" rx="39" transform="translate(677 1510.937)"/><rect id="Rectangle_398" width="1792" height="131" fill="#bed2df" rx="39" transform="translate(677 1361.937)"/><rect id="Rectangle_399" width="1661" height="132" fill="#bed2df" rx="39" transform="translate(677 1211.937)"/><rect id="Rectangle_400" width="1160" height="133" fill="#bed2df" rx="39" transform="translate(677 1060.937)"/><rect id="Rectangle_401" width="547" height="131" fill="#bed2df" rx="39" transform="translate(677 911.937)"/><rect id="Rectangle_402" width="437" height="132" fill="#bed2df" rx="39" transform="translate(677 761.937)"/><rect id="Rectangle_403" width="339" height="132" fill="#bed2df" rx="39" transform="translate(677 611.937)"/><rect id="Rectangle_404" width="176" height="133" fill="#bed2df" rx="39" transform="translate(677 461.937)"/></g></g></svg>