<svg xmlns="http://www.w3.org/2000/svg" xmlns:xlink="http://www.w3.org/1999/xlink" width="350" height="250" viewBox="0 0 350 250">
  <defs>
    <clipPath id="clip-safespring_card_47">
      <rect width="350" height="250"/>
    </clipPath>
  </defs>
  <g id="safespring_card_47" clip-path="url(#clip-safespring_card_47)">
    <rect width="350" height="250" fill="#e7eff3"/>
    <g id="Group_631" data-name="Group 631" transform="translate(38 10.426)">
      <g id="Group_629" data-name="Group 629" transform="translate(39 98.35)">
        <g id="Sweden" transform="translate(0 0.475)">
          <rect id="Rectangle_36" data-name="Rectangle 36" width="80.46" height="51.357" rx="10" transform="translate(0 0)" fill="#195f8c"/>
          <circle id="Ellipse_23" data-name="Ellipse 23" cx="14.645" cy="14.645" r="14.645" transform="translate(25.666 10.483)" fill="none" stroke="#ffee1f" stroke-linecap="round" stroke-width="8" stroke-dasharray="0 13"/>
        </g>
        <g id="USA" transform="translate(116.202)">
          <rect id="Rectangle_36-2" data-name="Rectangle 36" width="80.46" height="51.357" rx="10" transform="translate(0 0.068)" fill="#d82f19"/>
          <path id="Line_6" data-name="Line 6" d="M80.46,4.828H0V-1.5H80.46Z" transform="translate(0 39.465)" fill="#e6e6e6"/>
          <path id="Line_10" data-name="Line 10" d="M80.46,4.828H0V-1.5H80.46Z" transform="translate(0 24.701)" fill="#e6e6e6"/>
          <path id="Line_11" data-name="Line 11" d="M80.46,4.828H0V-1.5H80.46Z" transform="translate(0 9.937)" fill="#e6e6e6"/>
          <path id="Rectangle_37" data-name="Rectangle 37" d="M10,0H33.747a0,0,0,0,1,0,0V29.528a0,0,0,0,1,0,0H0a0,0,0,0,1,0,0V10A10,10,0,0,1,10,0Z" transform="translate(0)" fill="#195f8c"/>
          <circle id="Ellipse_27" data-name="Ellipse 27" cx="2.109" cy="2.109" r="2.109" transform="translate(4.218 12.655)" fill="#fff"/>
          <circle id="Ellipse_28" data-name="Ellipse 28" cx="2.109" cy="2.109" r="2.109" transform="translate(14.764 4.218)" fill="#fff"/>
          <circle id="Ellipse_29" data-name="Ellipse 29" cx="2.109" cy="2.109" r="2.109" transform="translate(25.31 4.218)" fill="#fff"/>
          <circle id="Ellipse_30" data-name="Ellipse 30" cx="2.109" cy="2.109" r="2.109" transform="translate(4.218 21.092)" fill="#fff"/>
          <circle id="Ellipse_31" data-name="Ellipse 31" cx="2.109" cy="2.109" r="2.109" transform="translate(14.764 12.655)" fill="#fff"/>
          <circle id="Ellipse_33" data-name="Ellipse 33" cx="2.109" cy="2.109" r="2.109" transform="translate(14.764 21.092)" fill="#fff"/>
          <circle id="Ellipse_34" data-name="Ellipse 34" cx="2.109" cy="2.109" r="2.109" transform="translate(25.31 12.655)" fill="#fff"/>
          <circle id="Ellipse_35" data-name="Ellipse 35" cx="2.109" cy="2.109" r="2.109" transform="translate(25.31 21.092)" fill="#fff"/>
          <circle id="Ellipse_36" data-name="Ellipse 36" cx="2.109" cy="2.109" r="2.109" transform="translate(4.218 4.218)" fill="#fff"/>
        </g>
      </g>
      <path id="Path_5738" data-name="Path 5738" d="M6259.533,15261.717s44.378-40.7,110.64-4.891" transform="translate(-6178.961 -15175.01)" fill="none" stroke="#195f8c" stroke-linecap="round" stroke-width="6"/>
      <path id="Polygon_31" data-name="Polygon 31" d="M10.978,2.56a2,2,0,0,1,3.348,0l8.955,13.7a2,2,0,0,1-1.674,3.094H3.7a2,2,0,0,1-1.674-3.094Z" transform="translate(208.456 81.999) rotate(132)" fill="#195f8c"/>
      <g id="Group_630" data-name="Group 630" transform="translate(124.312 54)">
        <g id="Ellipse_66" data-name="Ellipse 66" transform="translate(0.012 -0.426)" fill="#e7eff3" stroke="#fa690f" stroke-linecap="round" stroke-width="6">
          <circle cx="13.5" cy="13.5" r="13.5" stroke="none"/>
          <circle cx="13.5" cy="13.5" r="10.5" fill="none"/>
        </g>
        <line id="Line_62" data-name="Line 62" y1="13.014" x2="16.629" transform="translate(5.422 6.868)" fill="none" stroke="#fa690f" stroke-linecap="round" stroke-width="6"/>
      </g>
    </g>
  </g>
</svg>
