<svg xmlns="http://www.w3.org/2000/svg" width="340" height="240" viewBox="0 0 340 240"><g id="safespring-green-web" transform="translate(-804 -431)"><path id="Rectangle_357" fill="#f3fcf3" d="M0 0h340v240H0z" transform="translate(804 431)"/><g id="Group_610" transform="translate(9.407 -30)"><g id="c" transform="translate(959.18 546.753)"><g id="Group_609"><path id="Path_5616" fill="#d9d4d4" d="m266.06 339 .01-10.28a1.43 1.43 0 1 1 2.84.01q-.01 8.26.02 16.53a2.2 2.2 0 0 1-.73 1.54c-.11.02-.23.03-.28.16h-1.14c-.26-.44-.57-.83-.8-1.3q-2.46-5.06-4.97-10.1c-.06-.15-.09-.4-.27-.36-.15.04-.06.28-.06.44 0 3.07-.03 6.14.01 9.22a2.2 2.2 0 0 1-1 2.1h-1.28c-.75-.93-.57-2.03-.57-3.1v-15.08c0-1.05.27-1.43 1.18-1.64.6-.14 1.18.24 1.57 1.03l4.95 10.18a1.5 1.5 0 0 0 .4.65q.06.14.12 0" transform="translate(-221.635 -280.809)"/><path id="Path_5617" fill="#d9d4d4" d="M725.46 346.91c-.75-.98-.57-2.13-.57-3.24v-14.9a1.65 1.65 0 0 1 1.16-1.7 1.7 1.7 0 0 1 1.66 1.08l4.7 9.69.26.5c.06.11.15.2.28.17s.16-.16.17-.28v-.5q.01-4.4-.01-8.8a1.6 1.6 0 0 1 .9-1.75 1.3 1.3 0 0 1 1.75.64c.03.05.13.04.2.06v12.07a.65.65 0 0 0 0 1.13v.29q-.66.35 0 .7v2.13a.83.83 0 0 0 0 1.28v.57c-.42.19-.6.64-1 .85h-1.13a12 12 0 0 0-.87-1.42q-2.36-4.95-4.8-9.87c-.1-.22-.11-.5-.4-.62l-.03.68c0 3.05-.04 6.1.02 9.14a2.2 2.2 0 0 1-1.02 2.1zm7.63-7.96-.04-.05-.04.04.06.07z" transform="translate(-622.39 -280.764)"/><path id="Path_5618" fill="#d9d4d4" d="M356.94 347.66v-.07c-1.06-.71-1-1.78-1-2.89l.01-14.97c0-1.26.54-1.82 1.81-1.8a27 27 0 0 1 4.17.13 5 5 0 0 1 3.97 4.7c-.06 3.24-.03 6.48-.01 9.72a4.8 4.8 0 0 1-2.82 4.54c-.35.19-.84.17-1.02.63h-.85a2.4 2.4 0 0 0-1.5-.12 7 7 0 0 0-2.48.12zm3.97-16.88-1.6-.01c-.2 0-.5-.09-.5.28l-.03 13.06c0 .43.13.6.57.57.51-.03 1.04.02 1.56 0a2.03 2.03 0 0 0 2.13-2.22v-9.3a2.1 2.1 0 0 0-2.13-2.38" transform="translate(-305.822 -281.511)"/><path id="Path_5619" fill="#d9d4d4" d="M98.03 1a2 2 0 0 1 .87 1.87q-.03 8.1-.02 16.24 0 1.61-1.41 1.62c-.91 0-1.42-.57-1.42-1.64q-.02-3.19 0-6.38c0-.48-.12-.67-.63-.66q-1.5.06-2.98 0c-.56-.02-.66.2-.66.7q.02 3.23.01 6.46c0 .84-.43 1.44-1.07 1.52a1.4 1.4 0 0 1-1.73-1.25 4 4 0 0 1-.04-.7q.02-7.85-.01-15.68a2.2 2.2 0 0 1 1-2.1h1a1.9 1.9 0 0 1 .87 1.86c-.06 1.91-.01 3.83-.03 5.74 0 .44.09.65.58.63q1.56-.04 3.12 0c.44.01.58-.15.57-.57q-.02-2.1 0-4.18c0-1.2-.22-2.46.7-3.48z" transform="translate(-76.727 -.999)"/><path id="Path_5620" fill="#d9d4d4" d="M640.5 347.37c.02-.31-.27-.29-.44-.37a4.95 4.95 0 0 1-3.11-4.86q.04-4.9 0-9.8a4.99 4.99 0 0 1 9.96.41c-.09 3.14-.01 6.3-.03 9.44a5 5 0 0 1-3.03 4.78c-.19.1-.51.05-.5.4h-.3l-.13-.13-.15.13h-1.84q-.08-.16-.14 0zm3.55-9.88v-4.82a2.2 2.2 0 0 0-2.18-2.32 2.4 2.4 0 0 0-2.1 2.33c.07 3.17.02 6.34.02 9.51a2.12 2.12 0 0 0 2.12 2.34 2.25 2.25 0 0 0 2.14-2.35z" transform="translate(-546.938 -281.221)"/><path id="Path_5621" fill="#d9d4d4" d="M86.3 347.32c.01-.32-.23-.35-.45-.45a4.7 4.7 0 0 1-2.96-4.5c0-3.4.04-6.8-.01-10.2a5 5 0 1 1 9.96.73c-.06 3 0 6-.03 9a5.4 5.4 0 0 1-.5 2.53 5 5 0 0 1-2.36 2.35c-.25.13-.64.12-.67.54h-.43q-.07-.17-.14 0h-1.84q-.08-.17-.14 0zm-.57-9.92v4.97a2 2 0 0 0 .14.83 2.14 2.14 0 0 0 4.1-.92q.06-4.9-.01-9.79a2.13 2.13 0 1 0-4.24.16c.03 1.59 0 3.17 0 4.75Z" transform="translate(-71.526 -281.169)"/><path id="Path_5622" fill="#d9d4d4" d="M172.42 346.94c.01-.31-.27-.29-.44-.37a5 5 0 0 1-3.11-4.86q.04-6.42-.02-12.84a1.47 1.47 0 1 1 2.88-.03c-.05 4.33-.02 8.65-.02 12.98a2.11 2.11 0 0 0 3.8 1.39 2.5 2.5 0 0 0 .45-1.68v-12.77a1.6 1.6 0 0 1 1.34-1.68 1.57 1.57 0 0 1 1.5 1.7v13.28a5 5 0 0 1-2.98 4.44c-.23.1-.54.08-.56.44h-.28q-.15-.23-.29 0H173q-.15-.23-.28 0z" transform="translate(-145.293 -280.791)"/><path id="Path_5623" fill="#d9d4d4" d="M433.52 347.63a.4.4 0 0 0-.08-.4c-.66-.53-.54-1.2-.34-1.87q1.06-3.67 2.08-7.33l2.16-7.9a13 13 0 0 1 .35-1.29 1.25 1.25 0 0 1 1.26-.95c.82.02 1.27.25 1.5 1q.7 2.4 1.36 4.83l1.9 6.8c.44 1.58.83 3.18 1.33 4.75a2.7 2.7 0 0 1-.45 2.37h-1.27a2.5 2.5 0 0 1-1.05-1.6c-.12-.67-.37-1.32-.54-1.98a.63.63 0 0 0-.74-.55c-1 .03-2.02 0-3.04 0-1.4 0-1.36.02-1.76 1.4-.3.98-.32 2.13-1.4 2.73h-.84q-.08-.17-.15 0zm5.57-6.95h1.13c.43.03.53-.1.4-.52l-1.31-4.76c-.05-.16-.03-.45-.25-.45s-.2.29-.25.45q-.55 1.97-1.08 3.95c-.44 1.58-.35 1.31 1 1.33z" transform="translate(-371.9 -281.485)"/><path id="Path_5624" fill="#d9d4d4" d="M187.9 1a.5.5 0 0 0 .22.42 1.4 1.4 0 0 1 .4 1.67 1.5 1.5 0 0 1-1.56.88q-1.74.03-3.47 0c-.5-.02-.73.09-.71.65q.05 1.99 0 3.98c-.01.5.16.65.65.64q1.6-.04 3.2 0a1.33 1.33 0 0 1 1.41 1.26 1.36 1.36 0 0 1-1.23 1.45 17 17 0 0 1-3.33.1c-.5 0-.72.1-.7.66q.04 2.28 0 4.55c-.01.5.15.65.64.64q1.92-.04 3.84 0a1.35 1.35 0 1 1-.02 2.7h-5.97a1.25 1.25 0 0 1-1.32-1.32V2.6a1.4 1.4 0 0 1 1-1.46c.15 0 .32.04.42-.14h5.82q.15.24.28 0z" transform="translate(-154.819 -.999)"/><path id="Path_5625" fill="#d9d4d4" d="M11.96 347.74v-.07c-1.1-.73-1-1.85-1-2.96q.03-7.31 0-14.62a3 3 0 0 1 .17-1.11 1.4 1.4 0 0 1 1.34-.97h5.81a1.5 1.5 0 0 1 1.48 1.43 1.4 1.4 0 0 1-1.46 1.4q-1.92.02-3.84 0c-.47-.01-.67.1-.66.62q.04 2.03 0 4.04c0 .48.16.62.62.6q1.6-.02 3.19 0a1.43 1.43 0 1 1-.02 2.83q-1.56.03-3.12 0c-.55-.03-.68.17-.67.69q.03 2.47 0 4.96c0 1.13.24 2.32-.85 3.16h-.42q-.07-.18-.15 0Z" transform="translate(-9.816 -281.589)"/><path id="Path_5626" fill="#d9d4d4" d="M12.72 1c-.04.21.12.34.26.47A1.3 1.3 0 0 1 13.32 3a1.5 1.5 0 0 1-1.38.95 9 9 0 0 1-1.56 0c-.7-.09-.8.23-.8.84q.03 7.2.01 14.4a1.33 1.33 0 0 1-1.37 1.53q-1.44.01-1.46-1.6v-8.36q-.02-3.06.01-6.1c.01-.58-.18-.76-.73-.7-.49.03-.99 0-1.49 0a1.6 1.6 0 0 1-1.62-1.21 1.45 1.45 0 0 1 1.12-1.64L4.2 1h7.95q.08.17.14 0z" transform="translate(-2.908 -.99)"/><path id="Path_5627" fill="#d9d4d4" d="M518.65 331.28v13.8a3.3 3.3 0 0 1-.72 2.66h-1.14c-.05-.12-.16-.14-.28-.15a2.3 2.3 0 0 1-.73-1.96q.03-7.24 0-14.5c-.02-.35-.3-.27-.52-.27h-2.02a1.5 1.5 0 0 1-1.27-1.58 1.6 1.6 0 0 1 1.57-1.26h7.36a1.4 1.4 0 0 1 1.57 1.36q.02 1.34-1.42 1.48h-1.95c-.31-.02-.5.06-.45.42" transform="translate(-439.7 -281.595)"/><path id="Path_5628" fill="#d9d4d4" d="M598.97 347.54a2.5 2.5 0 0 1-1-2.4q.02-7.7 0-15.4a3 3 0 0 1 .17-1.1 1.35 1.35 0 0 1 1.67-.84 1.13 1.13 0 0 1 1 1.26l.02 17.09c0 .6-.49.89-.59 1.39z" transform="translate(-513.501 -281.385)"/><path id="Path_5629" fill="#70ba2b" d="m473.5 171.97-2.6 10.66a1.43 1.43 0 0 1-2.8 0q-2.05-8.35-4.08-16.71a1.45 1.45 0 0 1 1.05-1.87 1.4 1.4 0 0 1 1.7 1.2q1.32 5.33 2.6 10.66c0 .11-.02.25.13.25s.14-.14.13-.25l2.57-10.65a1.43 1.43 0 0 1 2.83.01l2.56 10.44.14.4c.11.13.13.05.13-.07q1.31-5.47 2.65-10.94a1.36 1.36 0 0 1 1.67-1.05 1.4 1.4 0 0 1 1.04 1.8q-2.03 8.4-4.08 16.79a1.3 1.3 0 0 1-1.4 1.14 1.35 1.35 0 0 1-1.4-1.16l-2.58-10.66c0-.11.03-.25-.13-.25s-.14.14-.13.25Z" transform="translate(-398.515 -140.865)"/><path id="Path_5630" fill="#70ba2b" d="m340.61 175.84.01-10.22a1.3 1.3 0 0 1 1.01-1.44 1.35 1.35 0 0 1 1.52.48 1.8 1.8 0 0 1 .31 1.21v16.25a1.6 1.6 0 0 1-.8 1.62 1.43 1.43 0 0 1-1.98-.8q-2.5-5.08-4.98-10.18l-.09-.19c-.1-.16-.11-.48-.34-.43-.15.03-.09.33-.09.52v9.85a1.33 1.33 0 0 1-1.35 1.36 1.36 1.36 0 0 1-1.47-1.24l-.02-.56V165.6a1.42 1.42 0 0 1 2.74-.62q.97 1.97 1.92 3.95l3.39 6.94c.01.14.08.3.2.28.16-.04.06-.2.02-.32Zm-5.38-4-.03-.02v.04Z" transform="translate(-285.578 -140.949)"/><path id="Path_5631" fill="#70ba2b" d="M689.1 174.65v-8.02c0-1.28.48-1.8 1.75-1.77a25 25 0 0 1 4.24.12 4.9 4.9 0 0 1 3.94 4.67 5.8 5.8 0 0 1-1.28 4.43c-.29.31-.04.47.13.64 1.6 1.58 1.43 6.12.27 7.57a5.2 5.2 0 0 1-4.07 2.11 65 65 0 0 1-3.4 0 1.44 1.44 0 0 1-1.58-1.6zm2.84 3.97v2.48c-.01.35.08.52.47.5.56-.03 1.13.01 1.7-.02a2.1 2.1 0 0 0 2.07-2.15q.02-.86 0-1.7a2.04 2.04 0 0 0-1.97-1.96c-.59-.03-1.18.01-1.77-.02-.42-.03-.52.15-.5.53zm0-8.33v.64c.05.65-.3 1.53.14 1.88.42.33 1.26.13 1.92.12a2.1 2.1 0 0 0 2.16-1.77c.3-1.74-.19-2.92-1.37-3.35a2 2 0 0 0-.55-.12c-.61-.02-1.23.01-1.84-.02-.39-.02-.48.15-.47.5v2.12Z" transform="translate(-591.698 -141.569)"/><path id="Path_5632" fill="#70ba2b" d="M95.94 174.63v-8.09c0-1.23.5-1.74 1.72-1.71a24 24 0 0 1 4.24.11 4.8 4.8 0 0 1 3.93 4.44 12 12 0 0 1-.05 2.83 4.6 4.6 0 0 1-2.1 3.22c-.41.27-.42.5-.26.92q1.15 3 2.27 6.03a1.4 1.4 0 0 1-.71 2 1.46 1.46 0 0 1-1.95-1.02l-2.48-6.55a1.5 1.5 0 0 0-1.68-.45c-.18.16-.09.4-.09.6V183a1.3 1.3 0 0 1-.96 1.4 1.4 1.4 0 0 1-1.6-.46 1.7 1.7 0 0 1-.28-1.14zm2.84-4.06v.85c.02.66-.22 1.56.11 1.91.43.44 1.34.15 2.04.14a2.1 2.1 0 0 0 2.08-2 14 14 0 0 0 0-1.84 2.07 2.07 0 0 0-2.1-1.98c-.56-.01-1.13.02-1.7 0-.34-.02-.44.1-.43.44z" transform="translate(-82.734 -141.541)"/><path id="Path_5633" fill="#70ba2b" d="M11.72 174.21v4.75a2.12 2.12 0 1 0 4.23.07c.02-.88-.02-1.75.01-2.63.02-.45-.15-.57-.57-.54a7 7 0 0 1-1.06 0 1.4 1.4 0 0 1-1.33-1.47 1.36 1.36 0 0 1 1.38-1.34q1.52-.04 3.05 0a1.3 1.3 0 0 1 1.33 1.23 35 35 0 0 1-.08 5.66A4.8 4.8 0 0 1 13.4 184a4.85 4.85 0 0 1-4.5-4.8q-.04-5.07 0-10.14a4.8 4.8 0 0 1 3.49-4.56 5 5 0 0 1 5.57 1.91 1.5 1.5 0 0 1-.27 2.2 1.46 1.46 0 0 1-2.02-.52 2.13 2.13 0 0 0-3.93 1.3v4.82Z" transform="translate(-8.021 -141.101)"/><path id="Path_5634" fill="#70ba2b" d="M181.17 174.78v-7.94c0-1.38.47-1.85 1.82-1.85h5.25c1.05 0 1.68.53 1.69 1.4s-.65 1.42-1.67 1.42q-1.84.02-3.7 0c-.42-.01-.57.1-.56.55q.04 2.06 0 4.11c0 .46.11.62.6.6q1.59-.03 3.18 0a1.4 1.4 0 0 1 1.56 1.38 1.43 1.43 0 0 1-1.52 1.43q-1.6.04-3.2 0c-.5-.03-.63.16-.62.64q.04 2.3 0 4.6c0 .46.11.62.6.6q1.87-.02 3.75 0a1.4 1.4 0 0 1 1.58 1.36 1.44 1.44 0 0 1-1.58 1.45q-2.76.03-5.53 0a1.47 1.47 0 0 1-1.65-1.67z" transform="translate(-155.863 -141.705)"/><path id="Path_5635" fill="#70ba2b" d="m616.73 181.7 4.12.02c.97 0 1.55.5 1.57 1.34a1.4 1.4 0 0 1-1.54 1.47q-2.8.02-5.6 0a1.4 1.4 0 0 1-1.56-1.6v-16.4a1.38 1.38 0 0 1 1.57-1.56h5.54c1 0 1.6.54 1.6 1.4s-.6 1.42-1.6 1.42q-1.88.02-3.76 0c-.33 0-.53.03-.52.45l.04 4.68q0 .15.14.11l3.54.02a1.4 1.4 0 0 1 1.57 1.35 1.42 1.42 0 0 1-1.55 1.47q-1.62.02-3.25 0c-.37 0-.5.1-.5.48q.05 2.62.05 5.23 0 .15.14.11" transform="translate(-527.009 -141.692)"/><path id="Path_5636" fill="#70ba2b" d="m259.9 173.02 3.55.02c1 .01 1.58.53 1.58 1.4s-.6 1.4-1.6 1.42h-3.2c-.34 0-.5.07-.5.46q.03 2.62.04 5.25 0 .14.13.11l4.18.02a1.4 1.4 0 1 1 .03 2.8q-2.84.05-5.68.02a1.4 1.4 0 0 1-1.52-1.56v-16.45a1.38 1.38 0 0 1 1.53-1.54q2.8-.02 5.6 0c1 0 1.58.55 1.57 1.42s-.6 1.4-1.6 1.4q-1.84.03-3.69 0c-.47-.02-.6.13-.58.59q.04 2.27.03 4.53 0 .14.13.11" transform="translate(-220.855 -141.679)"/><path id="Path_5637" fill="#bbde9a" d="M502.33 247.89c.01.1.03.24-.12.24s-.13-.13-.12-.24Z" transform="translate(-431.226 -212.843)"/><path id="Path_5638" fill="#bbde9a" d="M531.1 218.55c-.02-.12-.03-.26.12-.26s.13.14.13.25Z" transform="translate(-456.113 -187.444)"/><path id="Path_5639" fill="#bbde9a" d="M389.23 246.76c.03.11.13.28-.03.32-.11.02-.19-.15-.2-.29z" transform="translate(-334.195 -211.873)"/><path id="Path_5640" fill="#efeded" d="M634.12 282.12q-.14.04-.14-.11Z" transform="translate(-544.399 -242.12)"/><path id="Path_5641" fill="#efeded" d="M277.24 282.12q-.13.03-.12-.11z" transform="translate(-238.194 -242.12)"/><path id="Path_5642" fill="#9ccf6d" d="M561.06 248.83c0 .12-.02.2-.14.06Z" transform="translate(-481.711 -213.649)"/><path id="Path_5643" fill="#efeded" d="M634.12 221.12q-.14.04-.14-.11Z" transform="translate(-544.399 -189.778)"/><path id="Path_5644" fill="#efeded" d="M277.24 221.12q-.13.03-.12-.11z" transform="translate(-238.194 -189.778)"/><path id="Path_5645" fill="#bbde9a" d="m352.45 218.5-.03.01v-.03Z" transform="translate(-302.807 -187.608)"/></g></g><g id="green-web-smiley-good-1" transform="translate(865.593 544)"><path id="Path_5646" fill="#6abe4c" fill-rule="evenodd" d="M44.61 25.68a3.68 3.68 0 1 1-3.68 3.68 3.7 3.7 0 0 1 3.68-3.68m-15.38 0a3.68 3.68 0 1 1-3.68 3.68 3.7 3.7 0 0 1 3.68-3.68M22.91 38.7c0-.84.38-1.14.73-1.14s1 .27 1 1.32c0 2.02 4.54 9.55 12.28 9.55S49.2 40.9 49.2 38.88c0-1.05.65-1.33 1-1.33s.72.3.72 1.15c0 5.43-5.79 13-14 13s-14-7.57-14-13m14.01 19.06a20.84 20.84 0 1 1 20.84-20.84 20.84 20.84 0 0 1-20.84 20.84m0-44.87a24.03 24.03 0 1 0 24.03 24.03A24.03 24.03 0 0 0 36.92 12.9m0 54.17a30.14 30.14 0 1 1 30.14-30.14 30.14 30.14 0 0 1-30.14 30.14m0-67.06a36.92 36.92 0 1 0 36.92 36.92A36.9 36.9 0 0 0 36.92 0"/></g></g></g></svg>