<svg xmlns="http://www.w3.org/2000/svg" xmlns:xlink="http://www.w3.org/1999/xlink" width="350" height="250" viewBox="0 0 350 250"><defs><clipPath id="clip-safespring_card_47"><path d="M0 0h350v250H0z"/></clipPath></defs><g id="safespring_card_47" clip-path="url(#clip-safespring_card_47)"><path fill="#e7eff3" d="M0 0h350v250H0z"/><g id="Group_631" transform="translate(38 10.426)"><g id="Group_629" transform="translate(39 98.35)"><g id="Sweden" transform="translate(0 .475)"><rect id="Rectangle_36" width="80.46" height="51.357" fill="#195f8c" rx="10"/><circle id="Ellipse_23" cx="14.645" cy="14.645" r="14.645" fill="none" stroke="#ffee1f" stroke-dasharray="0 13" stroke-linecap="round" stroke-width="8" transform="translate(25.666 10.483)"/></g><g id="USA" transform="translate(116.202)"><rect id="Rectangle_36-2" width="80.46" height="51.357" fill="#d82f19" rx="10" transform="translate(0 .068)"/><path id="Line_6" fill="#e6e6e6" d="M80.46 4.83H0V-1.5h80.46Z" transform="translate(0 39.465)"/><path id="Line_10" fill="#e6e6e6" d="M80.46 4.83H0V-1.5h80.46Z" transform="translate(0 24.701)"/><path id="Line_11" fill="#e6e6e6" d="M80.46 4.83H0V-1.5h80.46Z" transform="translate(0 9.937)"/><path id="Rectangle_37" fill="#195f8c" d="M10 0h23.75v29.53H0V10A10 10 0 0 1 10 0"/><circle id="Ellipse_27" cx="2.109" cy="2.109" r="2.109" fill="#fff" transform="translate(4.218 12.655)"/><circle id="Ellipse_28" cx="2.109" cy="2.109" r="2.109" fill="#fff" transform="translate(14.764 4.218)"/><circle id="Ellipse_29" cx="2.109" cy="2.109" r="2.109" fill="#fff" transform="translate(25.31 4.218)"/><circle id="Ellipse_30" cx="2.109" cy="2.109" r="2.109" fill="#fff" transform="translate(4.218 21.092)"/><circle id="Ellipse_31" cx="2.109" cy="2.109" r="2.109" fill="#fff" transform="translate(14.764 12.655)"/><circle id="Ellipse_33" cx="2.109" cy="2.109" r="2.109" fill="#fff" transform="translate(14.764 21.092)"/><circle id="Ellipse_34" cx="2.109" cy="2.109" r="2.109" fill="#fff" transform="translate(25.31 12.655)"/><circle id="Ellipse_35" cx="2.109" cy="2.109" r="2.109" fill="#fff" transform="translate(25.31 21.092)"/><circle id="Ellipse_36" cx="2.109" cy="2.109" r="2.109" fill="#fff" transform="translate(4.218 4.218)"/></g></g><path id="Path_5738" fill="none" stroke="#195f8c" stroke-linecap="round" stroke-width="6" d="M6259.53 15261.72s44.38-40.7 110.64-4.9" transform="translate(-6178.961 -15175.01)"/><path id="Polygon_31" fill="#195f8c" d="M10.98 2.56a2 2 0 0 1 3.35 0l8.95 13.7a2 2 0 0 1-1.67 3.1H3.7a2 2 0 0 1-1.67-3.1Z" transform="rotate(132 85.974 87.405)"/><g id="Group_630" transform="translate(124.312 54)"><g id="Ellipse_66" fill="#e7eff3" stroke="#fa690f" stroke-linecap="round" stroke-width="6" transform="translate(.012 -.426)"><circle cx="13.5" cy="13.5" r="13.5" stroke="none"/><circle cx="13.5" cy="13.5" r="10.5" fill="none"/></g><path id="Line_62" fill="none" stroke="#fa690f" stroke-linecap="round" stroke-width="6" d="M0 13.01 16.63 0" transform="translate(5.422 6.868)"/></g></g></g></svg>