<svg xmlns="http://www.w3.org/2000/svg" xmlns:xlink="http://www.w3.org/1999/xlink" width="370" height="200" viewBox="0 0 370 200"><defs><clipPath id="clip-path"><path id="linkedin-Safespring" fill="none" d="M10 0h350a10 10 0 0 1 10 10v190H0V10A10 10 0 0 1 10 0" transform="translate(785 147)"/></clipPath><linearGradient id="linear-gradient" x1="0.5" x2="0.492" y2="0.703" gradientUnits="objectBoundingBox"><stop offset="0" stop-color="#195f8c"/><stop offset="1" stop-color="#0d3046" stop-opacity="0"/></linearGradient></defs><g id="Mask_Group_1" clip-path="url(#clip-path)" opacity="0.041" style="isolation:isolate" transform="translate(-785 -147)"><g id="safespring_symbol_blue_svg" transform="rotate(-5 2003.996 -8838.915)"><path id="Path_1" fill="url(#linear-gradient)" d="M268.41 83a93.27 93.27 0 0 0-185.4 0A93.27 93.27 0 0 0 93.3 268.98h82.42a52.06 52.06 0 0 0 0-104.12 30.38 30.38 0 1 1 21.53-51.79 10.86 10.86 0 1 0 15.36-15.34 52.06 52.06 0 1 0-36.89 88.77 30.38 30.38 0 0 1 0 60.75H93.29a71.59 71.59 0 1 1 0-143.17 10.85 10.85 0 0 0 10.83-10.84 71.59 71.59 0 0 1 143.18 0 10.83 10.83 0 0 0 10.83 10.84 71.59 71.59 0 1 1 0 143.17 10.85 10.85 0 0 0 0 21.69A93.27 93.27 0 0 0 268.41 83" transform="rotate(-14.98 344.86 45.271)"/></g></g></svg>