<svg xmlns="http://www.w3.org/2000/svg" xmlns:xlink="http://www.w3.org/1999/xlink" width="3840" height="2160" viewBox="0 0 3840 2160"><defs><clipPath id="clip-safespring-background"><path d="M0 0h3840v2160H0z"/></clipPath></defs><g id="safespring-background" clip-path="url(#clip-safespring-background)"><path fill="#e8eff3" d="M0 0h3840v2160H0z"/><circle id="Ellipse_5" cx="715.5" cy="715.5" r="715.5" fill="rgba(60,155,205,0.1)" transform="translate(1360 345)"/><circle id="Ellipse_4" cx="445.5" cy="445.5" r="445.5" fill="rgba(60,155,205,0.08)" transform="translate(1946 -196)"/><circle id="Ellipse_1" cx="1457.5" cy="1457.5" r="1457.5" fill="rgba(60,155,205,0.1)" transform="translate(1920 895)"/><circle id="Ellipse_3" cx="1024" cy="1024" r="1024" fill="rgba(60,155,205,0.1)" transform="translate(-374 273)"/><g id="Logo" style="isolation:isolate" transform="translate(1117 295)"><g id="safespring_logotype_blue_svg" transform="translate(14.006 616.055)"><path id="Path_4872" fill="#417da5" d="M909.07 595.29c-5.63-2.25-10.7-3.94-18.01-6.45-13.2-4.22-26.12-9-26.12-19.98s8.44-16.58 21.36-16.58a49 49 0 0 1 33.78 14.36l11.26-16.6c-8.45-8.99-21.93-17.43-45.54-17.43s-45.03 13.51-45.03 38.22a34.4 34.4 0 0 0 21.07 32.06 99 99 0 0 0 18.27 7.05c9 3.1 30.12 7.6 30.12 22.3s-13.23 19.1-25.59 19.1a55 55 0 0 1-39.4-19.1l-12.92 15.73a64 64 0 0 0 52.01 23.87 57 57 0 0 0 37.1-11.83 37.9 37.9 0 0 0 13.76-30.33 33 33 0 0 0-10.67-24.74 51 51 0 0 0-15.45-9.65" transform="translate(-401.637 -384.385)"/><path id="Path_4873" fill="#417da5" d="M930.76 532.61a103 103 0 0 0-50.04 13.5l8.13 18a82 82 0 0 1 40.2-11.55c19.38 0 33.17 10.13 33.17 30.39v5.34l-35.71 1.4c-30.96 1.38-52.27 14.61-52.27 40.76s21.36 41.32 46.08 41.32a54.6 54.6 0 0 0 42.46-19.84l.29 16.89h26.11v-77.75c0-22.79-5.32-34-14.32-43.3s-21.9-15.16-44.1-15.16m31.77 100.64a42 42 0 0 1-34.02 19.4c-17.42 0-27.56-10.42-27.56-23.06s8.73-21.92 30.38-23.05l31.22-1.97Z" transform="translate(-325.58 -384.385)"/><path id="Path_4874" fill="#417da5" d="M1014.4 532.61c-37.1 0-67.74 26.99-67.74 69.15s27.27 69.99 66.9 69.99 57.04-19.7 58.73-21.09l-11.25-15.47a74 74 0 0 1-44.14 15.47c-24.74 0-41.6-16.01-43-42.44h102.9a116 116 0 0 0 .84-11.82c-.02-37.36-26.14-63.79-63.24-63.79m-40.19 57.64a39.3 39.3 0 0 1 39.4-38.24 38.74 38.74 0 0 1 38.52 38.24Z" transform="translate(-194.17 -384.385)"/><path id="Path_4875" fill="#417da5" d="M1073.4 595.29c-5.63-2.25-10.7-3.94-17.98-6.45-13.23-4.22-26.15-9-26.15-19.98s8.44-16.58 21.36-16.58a49 49 0 0 1 33.77 14.36l11.26-16.6c-8.44-8.99-21.92-17.43-45.54-17.43s-45.03 13.51-45.03 38.22a34.4 34.4 0 0 0 21.08 32.06 100 100 0 0 0 18.27 7.05c8.98 3.1 30.09 7.6 30.09 22.2s-13.2 19.12-25.59 19.12a54.8 54.8 0 0 1-39.38-19.13l-12.94 15.73a64 64 0 0 0 52 23.87 57 57 0 0 0 37.1-11.82 38 38 0 0 0 13.8-30.33 33 33 0 0 0-10.7-24.74 51 51 0 0 0-15.42-9.55" transform="translate(-103.519 -384.385)"/><path id="Path_4876" fill="#417da5" d="M1112.39 532.62a56.6 56.6 0 0 0-47.37 23.62h-.54v-21.09h-25.87v184.33h27V647.6l.28.28a51.9 51.9 0 0 0 46.11 23.87c39.6 0 64.93-30.38 64.93-69.99s-25.2-69.14-64.55-69.14m-5.63 116.1c-26.7 0-42.44-20.52-42.44-47.2s15.73-46.94 42.44-46.94 42.44 20.23 42.44 46.94-15.72 47.2-42.44 47.2" transform="translate(-27.309 -384.395)"/><path id="Rectangle_290" fill="#417da5" d="M0 0h26.99v133.52H0z" transform="translate(1258.926 150.759)"/><path id="Path_4877" fill="#417da5" d="M1212.6 532.62a45 45 0 0 0-40.84 23.62h-.85l.29-21.09h-27v133.67h27v-67.34c0-25.58 9.28-46.65 34.3-46.65 23.87 0 27.81 16.88 27.81 39.4v74.58h27V589.7c.09-32.06-9.74-57.08-47.71-57.08" transform="translate(164.276 -384.401)"/><path id="Path_4878" fill="#417da5" d="m1302.45 535.18.28 21.08h-.84a53.4 53.4 0 0 0-46.66-23.6c-34.28 0-64.37 24.73-64.37 67.17s30.09 67.18 64.37 67.18a53.5 53.5 0 0 0 46.66-23.87h.54v5.26c0 18.3-4.78 30.96-10.1 37.4s-16.6 14.6-36.59 14.6a85 85 0 0 1-47.84-16.88l-12.64 18.83a102.5 102.5 0 0 0 59.59 19.95c33.18 0 49.76-13.48 59.61-25.58s14.6-28.15 14.6-57.61V535.18Zm-41.6 109.76c-27.27 0-42.44-19.95-42.44-45.26s15.2-45.53 42.44-45.53 42.45 20.23 42.45 45.54-14.9 45.4-42.44 45.4Z" transform="translate(248.925 -384.422)"/><path id="Path_4879" fill="#417da5" d="M932.16 525.55c-5.63 7.05-9.01 18.27-9.01 35.71v146.86h26.7V596.36h31.76v-21.61h-31.75v-14.89c0-15.19 2.81-28.4 20.52-28.4a51 51 0 0 1 11.25 1.43v-20.37a87 87 0 0 0-17.42-1.57 40.5 40.5 0 0 0-32.06 14.6Z" transform="translate(-236.831 -423.703)"/><path id="Path_4880" fill="#417da5" d="M1120.63 555.69h-.85l.28-20.52h-26.99v133.64h27v-66.73c0-19.7 5.62-30.09 8.13-33.77a28.2 28.2 0 0 1 21.92-11.26 35 35 0 0 1 14.65 2.82v-25.93a44 44 0 0 0-11.26-1.35 35 35 0 0 0-32.88 23.1" transform="translate(71.485 -384.412)"/><circle id="Ellipse_22" cx="17.561" cy="17.561" r="17.561" fill="#417da5" transform="translate(1254.705 87.235)"/><path id="Path_4871" fill="#417da5" d="M964.82 567.77a98.5 98.5 0 0 0-195.85 0 98.5 98.5 0 0 0 10.85 196.59h87.05a55 55 0 0 0 0-110 32.09 32.09 0 1 1 22.71-54.85 11.45 11.45 0 1 0 16.22-16.16 55 55 0 1 0-38.93 93.75 32.09 32.09 0 1 1 0 64.17H779.8a75.63 75.63 0 1 1 0-151.25 11.43 11.43 0 0 0 11.43-11.42 75.63 75.63 0 1 1 151.25 0 11.45 11.45 0 0 0 11.45 11.42 75.63 75.63 0 1 1 0 151.25 11.45 11.45 0 1 0 0 22.91 98.5 98.5 0 0 0 10.85-196.45Z" transform="translate(-679.303 -479.939)"/></g></g></g></svg>