<svg xmlns="http://www.w3.org/2000/svg" xmlns:xlink="http://www.w3.org/1999/xlink" viewBox="0 0 485.12 343.27"><defs><style>.cls-1{fill:none;}.cls-2{fill:#fafefe;}.cls-3{fill:#d9d9d9;}.cls-4{fill:#b3b3b3;}.cls-5{opacity:0.01;}.cls-6{fill:red;}.cls-7{fill:#c00000;}.cls-8{fill:#0e3a4e;}.cls-10,.cls-11,.cls-12,.cls-8,.cls-9{fill-rule:evenodd;}.cls-9{fill:#155676;}.cls-10,.cls-15{fill:#1c739d;}.cls-11{fill:#5ab5e1;}.cls-12{fill:#91ceeb;}.cls-13{fill:#f8f9f9;}.cls-14{fill:#3b9bcc;}.cls-16{fill:#f8f7f6;}.cls-17{fill:#fd7e0d;}.cls-18{fill:#fff;}.cls-19{clip-path:url(#clip-path);}.cls-20{clip-path:url(#clip-path-2);}</style><clipPath id="clip-path"><rect class="cls-1" x="272.06" y="149.86" width="78.23" height="39.12" transform="translate(-27.61 65.71) rotate(-11.55)"/></clipPath><clipPath id="clip-path-2"><rect class="cls-1" x="275.32" y="157.71" width="71.72" height="23.43" transform="translate(-27.61 65.71) rotate(-11.55)"/></clipPath></defs><g id="Lager_2" data-name="Lager 2"><g id="Lager_1-2" data-name="Lager 1"><path class="cls-2" d="M374.53,263.12c-1.41-8.62,5.84-16.55,16.19-17.72a22.1,22.1,0,0,1,12.11,2c3.87-6.07,12.91-8.38,20.2-5.15a15.21,15.21,0,0,1,3.47,2.12c3-5,10.36-7.08,16.4-4.57a12,12,0,0,1,4.26,2.94c4.86-4.76,13.45-5.35,19.18-1.31a11,11,0,0,1,4.59,6.61c8,1.81,12.65,8.66,10.49,15.3a11.53,11.53,0,0,1-.69,1.63c6.39,6.92,4.82,16.83-3.49,22.15a21.28,21.28,0,0,1-8.87,3.11c-.07,7.44-7.38,13.42-16.33,13.36a18.62,18.62,0,0,1-8.45-2c-3,8.34-13.59,13.06-23.58,10.53a19.05,19.05,0,0,1-10.25-6.33c-10.23,5.14-23.52,2.37-29.67-6.18-.08-.1-.15-.21-.23-.32-6.7.65-12.76-3.33-13.55-8.89a9.13,9.13,0,0,1,3.21-8.11c-5.8-2.84-7.75-9.08-4.35-13.93a12.54,12.54,0,0,1,9.25-5Z"/><path class="cls-3" d="M425.5,313.27a23.06,23.06,0,0,1-5.62-.69c-.66-.17-1.32-.37-1.95-.59l.33-.94c.61.21,1.23.4,1.87.56a22,22,0,0,0,5.36.66H426l0,1ZM429,313l-.15-1a20.91,20.91,0,0,0,7.31-2.59l.51.86A21.6,21.6,0,0,1,429,313Zm-13.9-2.24a18.17,18.17,0,0,1-5.49-4.38l-.32.15-.42-.9.65-.32.36-.18.25.32a17.2,17.2,0,0,0,5.44,4.42Zm-16.48-1.92h-.22v-1h.21a24.86,24.86,0,0,0,7.51-1.15l.3.95A25.59,25.59,0,0,1,398.64,308.84Zm-3.27-.2a25,25,0,0,1-7.8-2.28l.43-.9a24.28,24.28,0,0,0,7.49,2.19Zm43.84-.13-.64-.77a15.08,15.08,0,0,0,4.49-6.19l.93.35A16.1,16.1,0,0,1,439.21,308.51Zm-54.31-3.66a20.13,20.13,0,0,1-5.22-5l-.06-.1-.26,0-.06-1,.51,0,.3,0,.39.56a19.06,19.06,0,0,0,4.95,4.72Zm67.27-.75H452a19.54,19.54,0,0,1-6-1l.32-.95a18.38,18.38,0,0,0,5.69.92h.13c.63,0,1.26,0,1.87-.09l.09,1C453.49,304.07,452.83,304.1,452.17,304.1Zm5-.63-.25-1a16.46,16.46,0,0,0,6.8-3.58l.67.74A17.37,17.37,0,0,1,457.16,303.47Zm-80.9-3.79a13.65,13.65,0,0,1-7.4-3.49l.69-.72a12.6,12.6,0,0,0,6.85,3.22Zm90.2-2.32-.81-.58a11.31,11.31,0,0,0,2.22-6.55v-.44l.44-.05c.22,0,.43-.05.64-.09l.15,1-.24,0A12.35,12.35,0,0,1,466.46,297.36Zm-99.53-3.64a9.46,9.46,0,0,1-1.12-3.28,10.36,10.36,0,0,1-.08-1.25,9.09,9.09,0,0,1,.75-3.61l.92.39a8,8,0,0,0-.67,3.22,8.17,8.17,0,0,0,.07,1.11,8.42,8.42,0,0,0,1,2.93ZM472.09,290l-.27-1a19,19,0,0,0,6.87-3.57l.63.78a19.88,19.88,0,0,1-1.81,1.31A20.8,20.8,0,0,1,472.09,290Zm9.44-5.91-.76-.65a13.88,13.88,0,0,0,3.24-6.9l1,.15A14.88,14.88,0,0,1,481.53,284.08Zm-112.61-.5-.76-.66q.24-.27.51-.54a11.38,11.38,0,0,1-4.4-4.24l.87-.5a10.52,10.52,0,0,0,4.6,4.17l.67.33-.56.5A10.3,10.3,0,0,0,368.92,283.58Zm-5.75-8.39a9.12,9.12,0,0,1-.17-1.72,9.47,9.47,0,0,1,1.76-5.43c.18-.25.36-.49.56-.73l.77.64c-.18.22-.35.44-.51.67a8.45,8.45,0,0,0-1.58,4.85,7.93,7.93,0,0,0,.15,1.53Zm121-1.54a13.63,13.63,0,0,0-2.74-7.1l.8-.6a14.51,14.51,0,0,1,2.93,7.63ZM368.2,266l-.57-.82a13.82,13.82,0,0,1,6.36-2.33,13.6,13.6,0,0,1,1.18-7.79l.91.43a12.67,12.67,0,0,0-1.23,5.44A13.14,13.14,0,0,0,375,263l0,.14-.28.64-.29,0A13,13,0,0,0,368.2,266Zm113.54-2.11-.93-.35c.05-.13.09-.26.13-.39a9.88,9.88,0,0,0-.3-7.05l.92-.39a10.87,10.87,0,0,1,.33,7.75A3.66,3.66,0,0,1,481.74,263.93Zm-2.55-10.26A13.88,13.88,0,0,0,473,249.2l.35-.93a14.85,14.85,0,0,1,6.62,4.79ZM377.56,253l-.8-.59A18.24,18.24,0,0,1,383,247.2l.46.89A17.24,17.24,0,0,0,377.56,253Zm25.45-5-.4-.2a20.77,20.77,0,0,0-5.85-1.83l.16-1a21.74,21.74,0,0,1,5.73,1.73q.38-.54.81-1.05l.76.65a11.37,11.37,0,0,0-1,1.31Zm67.28-.48a10.74,10.74,0,0,0-4.24-5.73,2.82,2.82,0,0,0-.31-.21l.55-.84c.11.08.23.15.33.23a11.74,11.74,0,0,1,4.63,6.27Zm-84.14-.65-.33-.94a22.37,22.37,0,0,1,4.84-1.09,22.85,22.85,0,0,1,3.2-.14l0,1a22.31,22.31,0,0,0-3.06.13A21.48,21.48,0,0,0,386.15,246.93Zm40.79-2.32-.85-.51a12,12,0,0,1,6.45-5l.33.94A11.15,11.15,0,0,0,426.94,244.61Zm-20.62-.21-.6-.8a16.85,16.85,0,0,1,7.56-3.09l.15,1A15.69,15.69,0,0,0,406.32,244.4Zm40.82-.93-.35-.38a11.7,11.7,0,0,0-1.14-1.08l.63-.78a11.67,11.67,0,0,1,.9.82,14.29,14.29,0,0,1,5.24-3l.31.95a13.25,13.25,0,0,0-5.22,3.1Zm-23.35-.29c-.31-.16-.63-.32-1-.47a16.85,16.85,0,0,0-6.5-1.41l0-1a17.68,17.68,0,0,1,6.88,1.5c.35.16.7.32,1,.5Zm19.42-2.68-.5-.23a13.86,13.86,0,0,0-7-.92l-.13-1a14.82,14.82,0,0,1,7.54,1l.54.24Zm20-.2a15.67,15.67,0,0,0-5.63-1,19,19,0,0,0-2,.12l-.12-1a16.83,16.83,0,0,1,8.1,1Z"/><path class="cls-3" d="M409.37,305.77a15.16,15.16,0,0,1-1.94-3.08l.91-.42a14.91,14.91,0,0,0,1.81,2.88Zm34.7-4.3-.94-.34a13.43,13.43,0,0,0,.72-3.15l1,.1A14,14,0,0,1,444.07,301.47Zm-64.12-2-.1-1a14.28,14.28,0,0,0,3-.63l.31.95A15,15,0,0,1,380,299.43ZM468.8,290h-1v-.1a11,11,0,0,0-1.07-4.71l.91-.43a12,12,0,0,1,1.16,5.14Zm-93-6.17a14.51,14.51,0,0,1-6.37-1.45l.44-.89a13.72,13.72,0,0,0,6.85,1.31l.06,1C376.45,283.86,376.13,283.87,375.8,283.87Zm89.4-1.08a15.2,15.2,0,0,0-6.19-4.51l.37-.92a16.23,16.23,0,0,1,6.61,4.8Zm11.71-13-.58-.81a12.57,12.57,0,0,0,3.9-4.41l.89.46A13.43,13.43,0,0,1,476.91,269.79Zm-102.22-4.07a14.41,14.41,0,0,1-.66-2.52l1-.16a13.23,13.23,0,0,0,.61,2.34Zm31.45-15.63a18.85,18.85,0,0,0-3.54-2.25l.43-.9a19.79,19.79,0,0,1,3.74,2.37Zm65.52-.12-1,0v-.14a9.31,9.31,0,0,0-.2-1.91l1-.21a10,10,0,0,1,.23,2.12Zm-45.56-3.26-1-.25a9.86,9.86,0,0,1,1.06-2.51l.86.51A9.21,9.21,0,0,0,426.1,246.71Zm19.39-1.21-.88-.46a11.53,11.53,0,0,1,2.17-2.89l.7.72A10.37,10.37,0,0,0,445.49,245.5Z"/><path class="cls-4" d="M401,276.87a3.24,3.24,0,0,1-1.19-.61l.45-1a3.26,3.26,0,0,0,1.05.55,3.72,3.72,0,0,0,1.26.22,2.13,2.13,0,0,0,1.16-.25.76.76,0,0,0,.39-.66.68.68,0,0,0-.22-.5,1.55,1.55,0,0,0-.54-.3c-.22-.07-.52-.16-.9-.25a10.26,10.26,0,0,1-1.3-.38,2.29,2.29,0,0,1-.85-.59A1.6,1.6,0,0,1,400,272a1.82,1.82,0,0,1,.31-1.05,2.16,2.16,0,0,1,1-.76,3.79,3.79,0,0,1,1.56-.28,5,5,0,0,1,1.26.16,3.6,3.6,0,0,1,1.07.46l-.41,1a4,4,0,0,0-1-.41,3.79,3.79,0,0,0-1-.14,2.06,2.06,0,0,0-1.15.26.79.79,0,0,0-.37.69.64.64,0,0,0,.21.49,1.45,1.45,0,0,0,.55.3c.22.07.52.16.9.25a8.38,8.38,0,0,1,1.28.38,2.08,2.08,0,0,1,.85.59,1.57,1.57,0,0,1,.36,1.08,1.83,1.83,0,0,1-.32,1.05,2.21,2.21,0,0,1-.95.75,3.85,3.85,0,0,1-1.56.28A5.47,5.47,0,0,1,401,276.87Z"/><path class="cls-4" d="M406.52,276.84a2.42,2.42,0,0,1-.92-.75l.74-.89a1.69,1.69,0,0,0,1.39.8c.72,0,1.09-.43,1.09-1.29v-3.62h-2.49V270h3.79v4.64a2.56,2.56,0,0,1-.6,1.85,2.39,2.39,0,0,1-1.76.61A3,3,0,0,1,406.52,276.84Z"/><path class="cls-4" d="M412.67,276.28a3.16,3.16,0,0,1-.81-2.33V270h1.3v3.9c0,1.37.59,2.06,1.78,2.06s1.77-.69,1.77-2.06V270H418V274a3.16,3.16,0,0,1-.81,2.33,3.51,3.51,0,0,1-4.51,0Z"/><path class="cls-4" d="M426,270v7H425l-3.86-4.74V277h-1.29v-7h1.07l3.86,4.74V270Z"/><path class="cls-4" d="M433.19,275.91V277h-5.25v-7h5.11v1.09h-3.81v1.82h3.38V274h-3.38v1.93Z"/><path class="cls-4" d="M436.1,271.1h-2.32V270h5.94v1.1H437.4V277h-1.3Z"/><g class="cls-5"><path class="cls-6" d="M11.53,261.45c-1.41-8.73,5.84-16.77,16.19-18a21.94,21.94,0,0,1,12.11,2c3.87-6.15,12.91-8.49,20.2-5.22a15,15,0,0,1,3.47,2.15c3-5.1,10.36-7.17,16.4-4.63a11.87,11.87,0,0,1,4.26,3c4.86-4.83,13.45-5.42,19.18-1.33a11.15,11.15,0,0,1,4.59,6.7c8,1.83,12.65,8.77,10.49,15.5a11.4,11.4,0,0,1-.69,1.66c6.39,7,4.82,17.06-3.49,22.44a20.93,20.93,0,0,1-8.87,3.16c-.07,7.54-7.38,13.6-16.33,13.54a18.39,18.39,0,0,1-8.45-2.07c-3,8.46-13.59,13.24-23.58,10.68a19.06,19.06,0,0,1-10.25-6.42c-10.23,5.21-23.52,2.4-29.67-6.26l-.23-.33c-6.7.66-12.76-3.37-13.55-9a9.32,9.32,0,0,1,3.21-8.22c-5.8-2.88-7.75-9.2-4.35-14.12a12.51,12.51,0,0,1,9.25-5.05Z"/></g><path class="cls-7" d="M62.47,312.27a22.36,22.36,0,0,1-5.59-.7,19.6,19.6,0,0,1-10.25-6.28c-10.38,5.06-23.74,2.15-29.95-6.59l-.06-.1c-6.83.56-13-3.65-13.81-9.46A9.67,9.67,0,0,1,5.68,281,11,11,0,0,1,.3,274.28a9.48,9.48,0,0,1,1.46-7.83A13,13,0,0,1,11,261.22a14.47,14.47,0,0,1,2.94-10.81A20,20,0,0,1,27.66,243a22.54,22.54,0,0,1,12,1.9c4.12-6.07,13.24-8.33,20.58-5a16,16,0,0,1,3.15,1.87c3.3-4.95,10.65-6.9,16.71-4.35a12.64,12.64,0,0,1,4.09,2.73c5.07-4.66,13.68-5.15,19.45-1a11.83,11.83,0,0,1,4.72,6.7,15,15,0,0,1,9.56,6.89,11.49,11.49,0,0,1,.42,10.6A14.65,14.65,0,0,1,122,274.89a15.93,15.93,0,0,1-7.53,11.31,21.43,21.43,0,0,1-8.65,3.18c-.35,7.56-7.72,13.6-16.69,13.6H89a19,19,0,0,1-8.17-1.87C78.13,307.91,70.58,312.27,62.47,312.27ZM46.9,304l.26.33a18.5,18.5,0,0,0,10,6.24c9.74,2.5,20.05-2.15,23-10.36l.19-.54.51.27A17.93,17.93,0,0,0,89,302h.13c8.6,0,15.63-5.83,15.7-13.05v-.44l.44-.05a20.4,20.4,0,0,0,8.66-3.08,15,15,0,0,0,7.08-10.6,13.65,13.65,0,0,0-3.69-11.08l-.23-.26.16-.31a10.44,10.44,0,0,0-.25-10,14.07,14.07,0,0,0-9.22-6.48l-.31-.07-.07-.32a10.73,10.73,0,0,0-4.39-6.4c-5.54-3.94-13.85-3.37-18.53,1.28l-.38.37-.35-.39a11.57,11.57,0,0,0-4.09-2.85c-5.8-2.44-12.88-.46-15.77,4.42l-.3.51-.45-.38a14.82,14.82,0,0,0-3.36-2.08c-7-3.16-15.83-.9-19.57,5l-.24.38-.4-.2a21.59,21.59,0,0,0-11.83-2,19,19,0,0,0-13.06,7A13.5,13.5,0,0,0,12,261.37l0,.14-.28.64-.29,0A12,12,0,0,0,2.58,267a8.48,8.48,0,0,0-1.31,7,10.15,10.15,0,0,0,5.48,6.38l.65.32-.54.5A8.79,8.79,0,0,0,3.8,289c.75,5.37,6.59,9.23,13,8.58l.3,0,.17.25.22.32c6,8.46,19,11.19,29,6.1Z"/><path class="cls-7" d="M46.36,304.67a15.55,15.55,0,0,1-1.93-3.12l.91-.42a15.14,15.14,0,0,0,1.81,2.93Zm34.71-4.36-.94-.33a13.71,13.71,0,0,0,.72-3.2l1,.1A14.07,14.07,0,0,1,81.07,300.31ZM17,298.25l-.1-1a13.14,13.14,0,0,0,3-.64l.32.95A14.54,14.54,0,0,1,17,298.25Zm88.85-9.51h-1c0-5-3.4-9.7-8.79-11.92l.38-.92C102.16,278.26,105.85,283.3,105.8,288.74Zm-93-6.26A14.28,14.28,0,0,1,6.43,281l.45-.9a13.26,13.26,0,0,0,6.83,1.34l.07,1C13.45,282.47,13.12,282.48,12.79,282.48Zm101.12-14.27-.58-.81a12.66,12.66,0,0,0,3.9-4.47l.89.45A13.54,13.54,0,0,1,113.91,268.21ZM11.69,264.08a14.27,14.27,0,0,1-.66-2.55l1-.16a14,14,0,0,0,.61,2.37Zm31.45-15.84A18.55,18.55,0,0,0,39.59,246l.45-.89a18.72,18.72,0,0,1,3.73,2.4Zm65.52-.12-1,0a9.78,9.78,0,0,0-.2-2.08l1-.2A9.92,9.92,0,0,1,108.66,248.12Zm-45.56-3.3-1-.25A10.06,10.06,0,0,1,63.19,242l.86.51A9.25,9.25,0,0,0,63.1,244.82Zm19.39-1.23-.89-.46a12.18,12.18,0,0,1,2.17-2.92l.71.71A11,11,0,0,0,82.49,243.59Z"/><path class="cls-7" d="M34.65,275.28a3.16,3.16,0,0,1-.81-2.33V269h1.3v3.9c0,1.37.6,2.06,1.78,2.06s1.77-.69,1.77-2.06V269H40V273a3.2,3.2,0,0,1-.8,2.33,3.52,3.52,0,0,1-4.52,0Z"/><path class="cls-7" d="M48,269v7H46.93l-3.86-4.74V276H41.78v-7h1.07l3.86,4.74V269Z"/><path class="cls-7" d="M49.9,269h1.3v7H49.9Z"/><path class="cls-7" d="M59.37,269v7H58.3l-3.86-4.74V276H53.15v-7h1.07l3.86,4.74V269Z"/><path class="cls-7" d="M66.52,274.91V276H61.27v-7h5.11v1.09H62.57v1.82H66V273H62.57v1.93Z"/><path class="cls-7" d="M69.44,270.1H67.12V269h5.94v1.1H70.74V276h-1.3Z"/><path class="cls-7" d="M75.44,270.1H73.12V269h5.94v1.1H76.74V276h-1.3Z"/><polygon class="cls-8" points="250.6 157 402.1 194.87 252.85 274 99.1 194.87 250.6 157"/><polygon class="cls-9" points="250.33 104 351.1 129.4 252.12 196 149.1 129.75 250.33 104"/><polygon class="cls-10" points="402.12 195 440.1 243.6 250.6 288 61.1 243.6 99.08 195 250.6 230.5 402.12 195"/><polygon class="cls-11" points="351.35 130 388.1 177.47 250.1 212 112.1 177.47 148.85 130 250.1 153.48 351.35 130"/><path class="cls-12" d="M300.36,63.84l37.74,48.33L250.1,134l-88-21.83L250.6,0C268.19,24.91,285.64,45.28,300.36,63.84Z"/><polygon class="cls-11" points="300.36 64.08 338.1 112.25 250.1 134 250.1 0 300.36 64.08"/><polygon class="cls-10" points="351.35 130 388.1 177.47 250.1 212 250.1 212 250.1 153.48 250.1 153.48 351.35 130"/><polygon class="cls-9" points="402.02 195 440.1 243.6 250.1 288 250.1 230.5 402.02 195"/><path class="cls-2" d="M203.88,104.79l-3.73-1L199,105.36l-1.42-.37,5.28-6.59,1.36.35,1.44,8.33-1.45-.38Zm-.18-1.21-.56-3.62-2.24,2.9Z"/><path class="cls-2" d="M212.83,101.33a2.47,2.47,0,0,1,.86,1.2,2.66,2.66,0,0,1,0,1.51,2.7,2.7,0,0,1-.75,1.32,2.58,2.58,0,0,1-1.34.63,4.34,4.34,0,0,1-1.77-.11l-1.68-.44-.56,2.15-1.38-.36,1.92-7.45,3.07.79A4.3,4.3,0,0,1,212.83,101.33Zm-1.27,3.33a1.38,1.38,0,0,0,.75-1,1.36,1.36,0,0,0-.18-1.21,2.15,2.15,0,0,0-1.28-.74l-1.61-.42-.77,3,1.62.42A2.26,2.26,0,0,0,211.56,104.66Z"/><path class="cls-2" d="M220.21,103.24a2.51,2.51,0,0,1,.86,1.2,2.66,2.66,0,0,1,0,1.51,2.7,2.7,0,0,1-.75,1.32,2.58,2.58,0,0,1-1.34.63,4.34,4.34,0,0,1-1.77-.11l-1.68-.44L215,109.5l-1.38-.36,1.92-7.45,3.07.79A4.3,4.3,0,0,1,220.21,103.24Zm-1.27,3.33a1.38,1.38,0,0,0,.75-1,1.36,1.36,0,0,0-.18-1.21,2.15,2.15,0,0,0-1.28-.74l-1.62-.42-.76,3,1.62.42A2.26,2.26,0,0,0,218.94,106.57Z"/><path class="cls-2" d="M163.22,160.27a2.49,2.49,0,0,1,.88,1.19,2.65,2.65,0,0,1,0,1.51,2.69,2.69,0,0,1-.74,1.32,2.46,2.46,0,0,1-1.33.65,4.16,4.16,0,0,1-1.77-.09l-1.69-.42-.53,2.16-1.39-.34,1.84-7.48,3.08.76A4.13,4.13,0,0,1,163.22,160.27ZM162,163.61a1.56,1.56,0,0,0,.54-2.2,2.22,2.22,0,0,0-1.28-.72l-1.63-.4-.73,3,1.62.4A2.2,2.2,0,0,0,162,163.61Z"/><path class="cls-2" d="M165.94,160.6l1.39.34-1.55,6.3,3.91,1-.29,1.18-5.3-1.31Z"/><path class="cls-2" d="M175.46,169l-3.74-.92-1.16,1.55-1.44-.35,5.21-6.65,1.37.34,1.53,8.3-1.45-.35Zm-.19-1.2-.61-3.61-2.2,2.92Z"/><path class="cls-2" d="M180.91,165.53l-2.48-.61.29-1.18,6.34,1.56-.29,1.18-2.47-.61-1.56,6.3-1.38-.34Z"/><path class="cls-2" d="M187,167l-.56,2.27,3.61.89-.29,1.18-3.61-.89-.71,2.86L184,173l1.85-7.48,5.45,1.35-.28,1.16Z"/><path class="cls-2" d="M192.12,174.56a3.86,3.86,0,0,1-1.14-3.83,3.86,3.86,0,0,1,1-1.85,3.74,3.74,0,0,1,1.78-1,4.35,4.35,0,0,1,2.18,0,4.44,4.44,0,0,1,1.94,1,3.81,3.81,0,0,1,1.1,1.73,4.09,4.09,0,0,1-1,4,3.74,3.74,0,0,1-1.78,1,4.35,4.35,0,0,1-2.18,0A4.44,4.44,0,0,1,192.12,174.56Zm3.67-.22a2.54,2.54,0,0,0,1.17-.71,2.73,2.73,0,0,0,.67-1.27,2.67,2.67,0,0,0,0-1.43,2.51,2.51,0,0,0-.7-1.17,2.73,2.73,0,0,0-1.27-.67,2.88,2.88,0,0,0-1.43,0,2.63,2.63,0,0,0-1.17.71,2.73,2.73,0,0,0-.67,1.27,2.77,2.77,0,0,0,0,1.43,2.52,2.52,0,0,0,.71,1.18,2.73,2.73,0,0,0,1.26.66A2.77,2.77,0,0,0,195.79,174.34Z"/><path class="cls-2" d="M204.11,177.92l-1-2.56-.29-.06-1.69-.42-.54,2.18-1.39-.34,1.84-7.48,3.08.76a4.21,4.21,0,0,1,1.61.74,2.53,2.53,0,0,1,.88,1.19,2.66,2.66,0,0,1,0,1.51,2.58,2.58,0,0,1-.77,1.35,2.5,2.5,0,0,1-1.4.62l1.11,2.88Zm1-6a2.22,2.22,0,0,0-1.28-.72l-1.63-.4-.73,3,1.62.4a2.2,2.2,0,0,0,1.48,0,1.41,1.41,0,0,0,.74-1A1.38,1.38,0,0,0,205.07,171.88Z"/><path class="cls-2" d="M213.5,180.23l1.21-4.95-3.46,3.49-.62-.15L209.16,174l-1.2,4.89-1.32-.33,1.84-7.47,1.14.28,1.75,5.69,4.13-4.24,1.15.28-1.83,7.48Z"/><path class="cls-2" d="M113.91,223.79l1.38.35-1.89,7.46-1.38-.35Z"/><path class="cls-2" d="M123.81,226.3l-1.89,7.47-1.14-.29-2.83-6.1-1.28,5.05-1.38-.35,1.89-7.46,1.14.29,2.84,6.1,1.28-5.06Z"/><path class="cls-2" d="M126.52,228.22l-.58,2.28,3.6.91-.29,1.17-3.61-.91-.72,2.85-1.39-.35,1.89-7.46,5.45,1.38-.29,1.16Z"/><path class="cls-2" d="M135,237.07l-1-2.57-.29-.06L132,234l-.56,2.18-1.38-.36,1.89-7.46,3.07.78a4.08,4.08,0,0,1,1.61.75,2.43,2.43,0,0,1,.87,1.2,2.57,2.57,0,0,1,0,1.51,2.75,2.75,0,0,1-.78,1.35,2.58,2.58,0,0,1-1.41.6l1.09,2.89Zm1-6a2.18,2.18,0,0,0-1.28-.73l-1.62-.42-.75,3,1.62.41a2.19,2.19,0,0,0,1.47,0,1.4,1.4,0,0,0,.75-1A1.38,1.38,0,0,0,136,231Z"/><path class="cls-2" d="M142.75,237.21l-3.73-1-1.18,1.54-1.43-.36,5.25-6.61,1.37.34,1.47,8.32-1.45-.37Zm-.19-1.21-.58-3.62-2.22,2.91Z"/><path class="cls-2" d="M145.78,239.67a3.74,3.74,0,0,1-1.11-1l.76-.95a3.8,3.8,0,0,0,1,.88,4.57,4.57,0,0,0,1.28.57,2.36,2.36,0,0,0,1.31,0,.8.8,0,0,0,.59-.6.7.7,0,0,0-.1-.58,1.48,1.48,0,0,0-.49-.47q-.33-.21-.9-.51a11.74,11.74,0,0,1-1.27-.76,2.31,2.31,0,0,1-.75-.86,1.75,1.75,0,0,1-.08-1.27,2,2,0,0,1,.62-1,2.29,2.29,0,0,1,1.21-.54,4.1,4.1,0,0,1,1.74.12,5.17,5.17,0,0,1,1.3.51,3.72,3.72,0,0,1,1,.78l-.71,1a4.71,4.71,0,0,0-.92-.69,4.2,4.2,0,0,0-1-.42,2.37,2.37,0,0,0-1.29,0,.88.88,0,0,0-.59.64.67.67,0,0,0,.1.58,1.63,1.63,0,0,0,.5.47c.21.13.51.3.89.5a10.46,10.46,0,0,1,1.26.75,2.42,2.42,0,0,1,.75.87,1.72,1.72,0,0,1,.09,1.24,2.05,2.05,0,0,1-.62,1,2.33,2.33,0,0,1-1.22.54,4.44,4.44,0,0,1-1.74-.12A6,6,0,0,1,145.78,239.67Z"/><path class="cls-2" d="M154.63,235.36l-2.47-.62.29-1.18,6.34,1.61-.3,1.17-2.47-.62-1.6,6.29-1.39-.35Z"/><path class="cls-2" d="M162.59,244.08l-1-2.57a1.67,1.67,0,0,1-.29-.07l-1.69-.42-.55,2.17-1.39-.35,1.9-7.46,3.07.77a4.45,4.45,0,0,1,1.61.75,2.48,2.48,0,0,1,.89,2.71,2.53,2.53,0,0,1-.78,1.35,2.46,2.46,0,0,1-1.4.61l1.09,2.89Zm1-6a2.23,2.23,0,0,0-1.28-.73l-1.62-.41-.76,3,1.62.42a2.21,2.21,0,0,0,1.48,0,1.45,1.45,0,0,0,.75-1A1.41,1.41,0,0,0,163.59,238Z"/><path class="cls-2" d="M166.09,244.15a3.5,3.5,0,0,1-.24-2.71l1.07-4.21,1.39.36-1.06,4.15c-.37,1.47.08,2.36,1.35,2.68s2.07-.25,2.44-1.72l1.05-4.16,1.37.35-1.07,4.21a3.47,3.47,0,0,1-1.49,2.27,3.26,3.26,0,0,1-2.62.26A3.33,3.33,0,0,1,166.09,244.15Z"/><path class="cls-2" d="M174.6,246.71a3.8,3.8,0,0,1-1.08-1.73,4.1,4.1,0,0,1,1-3.95,3.76,3.76,0,0,1,1.78-1,4.64,4.64,0,0,1,3.76.76,3.42,3.42,0,0,1,1,1.26l-1.11.61a2.68,2.68,0,0,0-1.77-1.38,2.89,2.89,0,0,0-1.46,0,2.52,2.52,0,0,0-1.19.69,2.84,2.84,0,0,0-.68,1.27,2.71,2.71,0,0,0,0,1.44,2.49,2.49,0,0,0,.71,1.17,2.88,2.88,0,0,0,1.29.69,2.69,2.69,0,0,0,2.22-.38l.68,1.08a3.55,3.55,0,0,1-1.52.6,4.7,4.7,0,0,1-3.68-1.12Z"/><path class="cls-2" d="M183.59,242.71l-2.48-.63.3-1.17,6.34,1.6-.3,1.18-2.47-.63-1.6,6.29L182,249Z"/><path class="cls-2" d="M187.66,249.62a3.49,3.49,0,0,1-.24-2.71l1.07-4.21,1.39.35-1.06,4.16c-.37,1.47.08,2.36,1.34,2.68s2.08-.25,2.45-1.72l1-4.16,1.37.35L194,248.57a3.47,3.47,0,0,1-1.49,2.27,3.3,3.3,0,0,1-2.62.26A3.33,3.33,0,0,1,187.66,249.62Z"/><path class="cls-2" d="M199.54,253.45l-1-2.57-.29-.07-1.68-.42-.55,2.17-1.39-.35,1.89-7.46,3.07.77a4.37,4.37,0,0,1,1.61.75,2.52,2.52,0,0,1,.87,1.2,2.61,2.61,0,0,1,0,1.52,2.47,2.47,0,0,1-2.19,1.95l1.1,2.89Zm1-6a2.21,2.21,0,0,0-1.28-.74l-1.62-.41-.75,3,1.62.41a2.19,2.19,0,0,0,1.47,0,1.39,1.39,0,0,0,.75-1A1.36,1.36,0,0,0,200.54,247.42Z"/><path class="cls-2" d="M207.94,254.34l-.29,1.16-5.6-1.42,1.89-7.46,5.45,1.38-.29,1.16-4.07-1-.49,2,3.61.91-.29,1.14-3.61-.91-.52,2.05Z"/><path class="cls-13" d="M252.53,292.45c-1.41-8.73,5.84-16.77,16.19-18a21.94,21.94,0,0,1,12.11,2c3.87-6.15,12.91-8.49,20.2-5.22a15,15,0,0,1,3.47,2.15c3-5.1,10.36-7.17,16.4-4.63a11.87,11.87,0,0,1,4.26,3c4.86-4.83,13.45-5.42,19.18-1.33a11.15,11.15,0,0,1,4.59,6.7c8,1.83,12.65,8.77,10.49,15.5a11.4,11.4,0,0,1-.69,1.66c6.39,7,4.82,17.06-3.49,22.44a20.93,20.93,0,0,1-8.87,3.16c-.07,7.54-7.38,13.6-16.33,13.54a18.39,18.39,0,0,1-8.45-2.07c-3,8.46-13.59,13.24-23.58,10.68a19.06,19.06,0,0,1-10.25-6.42c-10.23,5.21-23.52,2.4-29.67-6.26l-.23-.33c-6.7.66-12.76-3.37-13.55-9a9.32,9.32,0,0,1,3.21-8.22c-5.8-2.88-7.75-9.2-4.35-14.12a12.51,12.51,0,0,1,9.25-5.05Z"/><path class="cls-14" d="M303.47,343.27a22.36,22.36,0,0,1-5.59-.7,19.6,19.6,0,0,1-10.25-6.28c-10.39,5.06-23.74,2.15-29.95-6.59l-.06-.1c-6.84.56-13-3.65-13.81-9.46a9.67,9.67,0,0,1,2.87-8.17,11,11,0,0,1-5.38-6.69,9.48,9.48,0,0,1,1.46-7.83,13,13,0,0,1,9.23-5.23,14.47,14.47,0,0,1,2.94-10.81A20,20,0,0,1,268.66,274a22.54,22.54,0,0,1,12,1.9c4.12-6.07,13.23-8.34,20.58-5a16,16,0,0,1,3.15,1.87c3.3-5,10.65-6.9,16.71-4.35a12.81,12.81,0,0,1,4.09,2.73c5.07-4.66,13.68-5.15,19.45-1a11.83,11.83,0,0,1,4.72,6.7,15,15,0,0,1,9.56,6.89,11.32,11.32,0,0,1,1,9.17,10.86,10.86,0,0,1-.56,1.43A14.65,14.65,0,0,1,363,305.89a15.93,15.93,0,0,1-7.53,11.31,21.43,21.43,0,0,1-8.65,3.18c-.35,7.56-7.72,13.6-16.69,13.6H330a19,19,0,0,1-8.17-1.87C319.13,338.91,311.58,343.27,303.47,343.27ZM287.9,335l.26.33a18.5,18.5,0,0,0,10,6.24c9.74,2.49,20.05-2.15,23-10.36l.2-.54.51.27a17.93,17.93,0,0,0,8.22,2h.13c8.6,0,15.63-5.83,15.7-13.05v-.44l.44-.05a20.4,20.4,0,0,0,8.66-3.08,15,15,0,0,0,7.08-10.6,13.65,13.65,0,0,0-3.69-11.08l-.23-.26.16-.31a10.44,10.44,0,0,0-.25-10,14.07,14.07,0,0,0-9.22-6.48l-.31-.07-.07-.32a10.73,10.73,0,0,0-4.39-6.4c-5.54-3.94-13.85-3.37-18.53,1.28l-.38.37-.35-.39a11.57,11.57,0,0,0-4.09-2.85c-5.8-2.44-12.88-.46-15.77,4.42l-.3.51-.45-.38a14.82,14.82,0,0,0-3.36-2.08c-7.05-3.16-15.83-.9-19.57,5l-.24.38-.4-.2a21.5,21.5,0,0,0-11.83-2,19,19,0,0,0-13.06,7,13.5,13.5,0,0,0-2.7,10.35l0,.14-.28.64-.29,0a12,12,0,0,0-8.89,4.84,8.48,8.48,0,0,0-1.31,7,10.17,10.17,0,0,0,5.47,6.38l.66.32-.54.5A8.79,8.79,0,0,0,244.8,320c.75,5.37,6.57,9.23,13,8.58l.3,0,.39.57c6,8.46,19,11.19,29,6.1Z"/><path class="cls-14" d="M287.36,335.67a15.55,15.55,0,0,1-1.93-3.12l.91-.42a15,15,0,0,0,1.81,2.93Zm34.71-4.36-.94-.33a13.71,13.71,0,0,0,.72-3.2l1,.1A14.07,14.07,0,0,1,322.07,331.31ZM258,329.25l-.1-1a13.14,13.14,0,0,0,3-.64l.32.95A14.67,14.67,0,0,1,258,329.25Zm88.85-9.51h-1c.05-5-3.4-9.7-8.79-11.92l.38-.92C343.16,309.26,346.85,314.3,346.8,319.74Zm-93-6.26a14.28,14.28,0,0,1-6.36-1.47l.44-.9a13.28,13.28,0,0,0,6.84,1.34l.07,1C254.45,313.47,254.12,313.48,253.79,313.48Zm101.12-14.27-.58-.81a12.66,12.66,0,0,0,3.9-4.47l.89.45A13.54,13.54,0,0,1,354.91,299.21Zm-102.22-4.13a14.49,14.49,0,0,1-.66-2.55l1-.16a13.1,13.1,0,0,0,.61,2.37Zm31.45-15.84a18.55,18.55,0,0,0-3.55-2.28l.45-.89a18.72,18.72,0,0,1,3.73,2.4Zm65.52-.12h-1a9.81,9.81,0,0,0-.2-2.09l1-.2A9.87,9.87,0,0,1,349.66,279.12Zm-45.56-3.3-1-.25a10.06,10.06,0,0,1,1.06-2.54l.86.51A9.25,9.25,0,0,0,304.1,275.82Zm19.39-1.23-.88-.46a11.88,11.88,0,0,1,2.16-2.92l.71.71A11.06,11.06,0,0,0,323.49,274.59Z"/><path class="cls-15" d="M284.75,303.42H286v2.79a3.78,3.78,0,0,1-1.26.66,5,5,0,0,1-1.48.23,4,4,0,0,1-1.93-.47,3.27,3.27,0,0,1-1.35-1.28,3.74,3.74,0,0,1,0-3.7,3.42,3.42,0,0,1,1.35-1.29,4.07,4.07,0,0,1,1.95-.46,4.34,4.34,0,0,1,1.6.29,3.16,3.16,0,0,1,1.21.85l-.82.8a2.81,2.81,0,0,0-3.25-.49,2.35,2.35,0,0,0-.9.87,2.46,2.46,0,0,0-.32,1.28,2.41,2.41,0,0,0,.32,1.26,2.38,2.38,0,0,0,.9.88,2.67,2.67,0,0,0,1.31.32,2.85,2.85,0,0,0,1.44-.36Z"/><path class="cls-15" d="M293,305.91V307h-5.25v-7h5.11v1.09H289v1.82h3.38V304H289v1.93Zm-4.66-7.85h1.47l1.35,1.37h-1.08Z"/><path class="cls-15" d="M299,305.38h-3.5l-.69,1.62h-1.34l3.15-7h1.28l3.16,7H299.7Zm-.43-1-1.32-3.06-1.31,3.06Z"/><path class="cls-15" d="M308.18,300v7h-1.07l-3.86-4.74V307H302v-7H303l3.86,4.74V300Z"/><path class="cls-15" d="M311.5,301.1h-2.32V300h5.94v1.1H312.8V307h-1.3Z"/><path class="cls-16" d="M125.53,290.45c-1.41-8.73,5.84-16.77,16.19-18a21.94,21.94,0,0,1,12.11,2c3.87-6.15,12.91-8.49,20.2-5.22a15,15,0,0,1,3.47,2.15c3-5.1,10.36-7.17,16.4-4.63a11.87,11.87,0,0,1,4.26,3c4.86-4.83,13.45-5.42,19.18-1.33a11.15,11.15,0,0,1,4.59,6.7c8,1.83,12.65,8.77,10.49,15.5a11.4,11.4,0,0,1-.69,1.66c6.39,7,4.82,17.06-3.49,22.44a20.93,20.93,0,0,1-8.87,3.16c-.07,7.54-7.38,13.6-16.33,13.54a18.39,18.39,0,0,1-8.45-2.07c-3,8.46-13.59,13.24-23.58,10.68a19.06,19.06,0,0,1-10.25-6.42c-10.23,5.21-23.52,2.4-29.67-6.26l-.23-.33c-6.7.66-12.76-3.37-13.55-9a9.32,9.32,0,0,1,3.21-8.22c-5.8-2.88-7.75-9.2-4.35-14.12a12.51,12.51,0,0,1,9.25-5.05Z"/><path class="cls-17" d="M176.47,341.27a22.36,22.36,0,0,1-5.59-.7,19.6,19.6,0,0,1-10.25-6.28c-10.38,5.06-23.74,2.15-29.95-6.59l-.06-.1c-6.84.56-13-3.65-13.81-9.46a9.67,9.67,0,0,1,2.87-8.17,11,11,0,0,1-5.38-6.69,9.48,9.48,0,0,1,1.46-7.83,13,13,0,0,1,9.23-5.23,14.47,14.47,0,0,1,2.94-10.81A20,20,0,0,1,141.66,272a22.54,22.54,0,0,1,12,1.9c4.12-6.07,13.24-8.33,20.58-5a16,16,0,0,1,3.15,1.87c3.3-5,10.65-6.9,16.71-4.35a12.81,12.81,0,0,1,4.09,2.73c5.07-4.66,13.68-5.15,19.45-1a11.83,11.83,0,0,1,4.72,6.7,15,15,0,0,1,9.56,6.89,11.49,11.49,0,0,1,.42,10.6A14.65,14.65,0,0,1,236,303.89a15.93,15.93,0,0,1-7.53,11.31,21.43,21.43,0,0,1-8.65,3.18c-.35,7.56-7.72,13.6-16.69,13.6H203a19,19,0,0,1-8.17-1.87C192.13,336.91,184.58,341.27,176.47,341.27ZM160.9,333l.26.33a18.5,18.5,0,0,0,10,6.24c9.73,2.5,20.05-2.15,23-10.36l.19-.54.51.27a17.93,17.93,0,0,0,8.22,2h.13c8.6,0,15.63-5.83,15.7-13.05v-.44l.44-.05a20.4,20.4,0,0,0,8.66-3.08,15,15,0,0,0,7.08-10.6,13.65,13.65,0,0,0-3.69-11.08l-.23-.26.16-.31a10.44,10.44,0,0,0-.25-10,14.07,14.07,0,0,0-9.22-6.48l-.31-.07-.07-.32a10.73,10.73,0,0,0-4.39-6.4c-5.54-3.94-13.85-3.37-18.54,1.28l-.37.37-.35-.39a11.57,11.57,0,0,0-4.09-2.85c-5.81-2.44-12.88-.46-15.77,4.42l-.3.51-.45-.38a14.82,14.82,0,0,0-3.36-2.08c-7-3.16-15.83-.9-19.57,5l-.24.38-.4-.2a21.59,21.59,0,0,0-11.83-2,19,19,0,0,0-13.06,7,13.5,13.5,0,0,0-2.7,10.35l0,.14-.28.64-.29,0a12,12,0,0,0-8.89,4.84,8.48,8.48,0,0,0-1.31,7,10.15,10.15,0,0,0,5.48,6.38l.65.32-.54.5A8.79,8.79,0,0,0,117.8,318c.75,5.37,6.59,9.23,13,8.58l.3,0,.17.25.22.32c6,8.46,19,11.19,29,6.1Z"/><path class="cls-17" d="M160.36,333.67a15.55,15.55,0,0,1-1.93-3.12l.91-.42a15.14,15.14,0,0,0,1.81,2.93Zm34.71-4.36-.94-.33a13.71,13.71,0,0,0,.72-3.2l1,.1A14.07,14.07,0,0,1,195.07,329.31ZM131,327.25l-.1-1a13.14,13.14,0,0,0,3-.64l.32.95A14.54,14.54,0,0,1,131,327.25Zm88.85-9.51h-1c0-5-3.4-9.7-8.79-11.92l.38-.92C216.16,307.26,219.85,312.3,219.8,317.74Zm-93-6.26a14.28,14.28,0,0,1-6.36-1.47l.45-.9a13.26,13.26,0,0,0,6.83,1.34l.07,1C127.45,311.47,127.12,311.48,126.79,311.48Zm101.12-14.27-.58-.81a12.66,12.66,0,0,0,3.9-4.47l.89.45A13.54,13.54,0,0,1,227.91,297.21Zm-102.22-4.13a14.27,14.27,0,0,1-.66-2.55l1-.16a14,14,0,0,0,.61,2.37Zm31.45-15.84a18.55,18.55,0,0,0-3.55-2.28l.45-.89a18.72,18.72,0,0,1,3.73,2.4Zm65.52-.12-1,0a9.78,9.78,0,0,0-.2-2.08l1-.2A9.92,9.92,0,0,1,222.66,277.12Zm-45.56-3.3-1-.25a10.06,10.06,0,0,1,1.06-2.54l.86.51A9.25,9.25,0,0,0,177.1,273.82Zm19.39-1.23-.89-.46a12.18,12.18,0,0,1,2.17-2.92l.71.71A11,11,0,0,0,196.49,272.59Z"/><path class="cls-17" d="M154.21,304.87a3.24,3.24,0,0,1-1.19-.61l.45-1a3.36,3.36,0,0,0,1.05.55,3.72,3.72,0,0,0,1.26.22,2.1,2.1,0,0,0,1.16-.25.76.76,0,0,0,.39-.66.65.65,0,0,0-.22-.5,1.55,1.55,0,0,0-.54-.3c-.22-.07-.52-.16-.9-.25a10.26,10.26,0,0,1-1.3-.38,2.29,2.29,0,0,1-.85-.59,1.65,1.65,0,0,1-.35-1.1,1.82,1.82,0,0,1,.31-1.05,2.16,2.16,0,0,1,1-.76,3.82,3.82,0,0,1,1.56-.28,5,5,0,0,1,1.26.16,3.6,3.6,0,0,1,1.07.46l-.41,1a4,4,0,0,0-1-.41,3.79,3.79,0,0,0-1-.14,2.06,2.06,0,0,0-1.15.26.79.79,0,0,0-.37.69.64.64,0,0,0,.21.49,1.53,1.53,0,0,0,.55.3c.22.07.52.16.9.25a8.38,8.38,0,0,1,1.28.38,2,2,0,0,1,.85.59,1.57,1.57,0,0,1,.36,1.08,1.83,1.83,0,0,1-.32,1.05,2.21,2.21,0,0,1-.95.75,3.85,3.85,0,0,1-1.56.28A5.52,5.52,0,0,1,154.21,304.87Z"/><path class="cls-17" d="M160.62,304.28a3.16,3.16,0,0,1-.81-2.33V298h1.3v3.9c0,1.37.59,2.06,1.78,2.06s1.77-.69,1.77-2.06V298h1.28V302a3.16,3.16,0,0,1-.81,2.33,3.51,3.51,0,0,1-4.51,0Z"/><path class="cls-17" d="M174,298v7h-1.07l-3.86-4.74V305h-1.29v-7h1.07l3.86,4.74V298Z"/><path class="cls-17" d="M181.14,303.91V305h-5.25v-7H181v1.09h-3.81v1.82h3.38V302h-3.38v1.93Z"/><path class="cls-17" d="M184.06,299.1h-2.32V298h5.94v1.1h-2.32V305h-1.3Z"/><path class="cls-18" d="M310.07,240.88a6.87,6.87,0,0,0-13.3,3.13,6.87,6.87,0,0,0,3.88,13.18l5.91-1.4a3.83,3.83,0,1,0-1.76-7.46,2.24,2.24,0,0,1-1-4.36,2.2,2.2,0,0,1,1.68.27.8.8,0,0,0,.87-1.34l0,0a3.84,3.84,0,1,0-1.14,7,2.24,2.24,0,0,1,1,4.36h0l-5.92,1.39a5.28,5.28,0,0,1-2.42-10.27.8.8,0,0,0,.6-1A5.28,5.28,0,0,1,308.73,242h0a.79.79,0,0,0,1,.59,5.28,5.28,0,0,1,2.43,10.27h0a.8.8,0,1,0,.36,1.56,6.87,6.87,0,0,0-2.4-13.51Z"/><path class="cls-18" d="M327.11,245.68c-.42-.06-.79-.09-1.33-.15-1-.07-1.91-.19-2.09-.93s.31-1.27,1.19-1.47a3.43,3.43,0,0,1,2.52.43l.5-1.31a4.09,4.09,0,0,0-3.37-.45c-1.61.38-2.85,1.64-2.45,3.32A2.43,2.43,0,0,0,324,247a6.7,6.7,0,0,0,1.36.18c.66.07,2.16,0,2.4,1s-.59,1.51-1.43,1.71a3.8,3.8,0,0,1-3-.67l-.63,1.28a4.47,4.47,0,0,0,3.91.79,3.93,3.93,0,0,0,2.33-1.4,2.62,2.62,0,0,0,.45-2.28,2.3,2.3,0,0,0-1.12-1.51A3.88,3.88,0,0,0,327.11,245.68Z"/><path class="cls-18" d="M332.74,239.86a7.33,7.33,0,0,0-3.18,1.72l.84,1.09a5.61,5.61,0,0,1,2.55-1.42,2,2,0,0,1,2.74,1.53l.08.36-2.4.67c-2.08.59-3.32,1.83-2.9,3.6a3,3,0,0,0,3.79,2.07,3.82,3.82,0,0,0,2.57-2l.29,1.14,1.77-.41-1.24-5.28a3.85,3.85,0,0,0-1.67-2.71A4,4,0,0,0,332.74,239.86Zm3.77,6.33a2.94,2.94,0,0,1-2,1.86,1.7,1.7,0,0,1-2.24-1.12c-.2-.86.24-1.63,1.69-2.05l2.09-.64Z"/><path class="cls-18" d="M347.35,236.42a4.63,4.63,0,0,0-3.5,5.78,4.52,4.52,0,0,0,5.66,3.68,5.54,5.54,0,0,0,3.66-2.37l-1-.87a5.1,5.1,0,0,1-2.75,1.76,2.86,2.86,0,0,1-3.59-2.19l7-1.65a7.37,7.37,0,0,0-.13-.82A4.25,4.25,0,0,0,347.35,236.42ZM345.54,241a2.74,2.74,0,0,1,2.06-3.23,2.7,2.7,0,0,1,3.23,2Z"/><path class="cls-18" d="M358.51,238.28c-.42-.06-.79-.09-1.32-.15-1-.07-1.92-.19-2.1-.93s.31-1.27,1.19-1.47a3.43,3.43,0,0,1,2.52.43l.5-1.31a4.09,4.09,0,0,0-3.37-.45c-1.61.38-2.85,1.64-2.45,3.32a2.43,2.43,0,0,0,1.94,1.84,7.5,7.5,0,0,0,1.36.18c.66.07,2.16,0,2.4,1s-.6,1.51-1.44,1.7a3.82,3.82,0,0,1-3-.66l-.62,1.27a4.45,4.45,0,0,0,3.91.79,4,4,0,0,0,2.33-1.39,2.66,2.66,0,0,0,.45-2.28,2.3,2.3,0,0,0-1.12-1.51A3.63,3.63,0,0,0,358.51,238.28Z"/><path class="cls-18" d="M365.33,232.18a4,4,0,0,0-2.84,2.37h0l-.34-1.43-1.75.42,2.95,12.51,1.83-.43L364,240.74h0a3.62,3.62,0,0,0,3.52.89c2.69-.63,3.92-3.1,3.28-5.79S368,231.55,365.33,232.18Zm1.47,8a3.3,3.3,0,1,1,2.13-3.89C369.36,238.09,368.62,239.73,366.8,240.16Z"/><rect class="cls-18" x="378.22" y="229.23" width="1.88" height="9.31" transform="translate(-43.54 93.21) rotate(-13.26)"/><path class="cls-18" d="M385.14,227.51a3.16,3.16,0,0,0-2.39,2.26l-.06,0-.32-1.44-1.83.43,2.14,9.08,1.83-.44-1.08-4.57c-.41-1.73-.11-3.31,1.59-3.71s2.15.7,2.51,2.23l1.2,5.06,1.83-.43-1.27-5.37C388.79,228.45,387.72,226.91,385.14,227.51Z"/><path class="cls-18" d="M397,224.89l.36,1.43h-.06a3.72,3.72,0,0,0-3.55-.85,4.69,4.69,0,0,0,2.15,9.12,3.73,3.73,0,0,0,2.79-2.37h0l.08.36a4.2,4.2,0,0,1-.09,2.7,3.16,3.16,0,0,1-2.25,1.58,5.87,5.87,0,0,1-3.51-.38l-.56,1.48a7.09,7.09,0,0,0,4.36.4,4.9,4.9,0,0,0,3.64-2.69c.48-1,.54-2.15.07-4.15l-1.66-7.05ZM396,233a3.17,3.17,0,1,1,2.16-3.75A2.88,2.88,0,0,1,396,233Z"/><path class="cls-18" d="M338.12,235.27a3.93,3.93,0,0,0,0,2.57l2.35,10,1.82-.42-1.79-7.59,2.15-.51-.34-1.47-2.16.51-.24-1c-.24-1-.26-2,.94-2.26a4.15,4.15,0,0,1,.79-.08l-.33-1.38a5.6,5.6,0,0,0-1.21.17A2.84,2.84,0,0,0,338.12,235.27Z"/><path class="cls-18" d="M373,232h0l-.31-1.4-1.83.43,2.13,9.08,1.84-.43-1.07-4.53a4.16,4.16,0,0,1,0-2.43,2,2,0,0,1,1.31-1.11,2.43,2.43,0,0,1,1,0l-.42-1.76a3.39,3.39,0,0,0-.78.09A2.45,2.45,0,0,0,373,232Z"/><circle class="cls-18" cx="377.34" cy="226.24" r="1.23"/><g id="Layer_2" data-name="Layer 2"><g id="Layer_1-2" data-name="Layer 1-2"><g id="Logo_White_Horizontal" data-name="Logo White Horizontal"><g class="cls-19"><g class="cls-20"><path class="cls-18" d="M306.27,174.24l0-.15,1.63-1c1.1-.64,1.65-1.26,1.4-2.48-.21-1-1.12-1.5-2.37-1.25a2.54,2.54,0,0,0-2.31,2.54l.15,2.24a3.07,3.07,0,0,0,.07.53c.21,1,1,1.53,2.47,1.23l2-.41-.07-1.32-2,.41c-.55.12-.86,0-.93-.36m-.18-2.5c0-.58.32-.9.94-1,.41-.08.78,0,.85.34s0,.55-.4.75l-1.33.79Z"/><polygon class="cls-18" points="311.76 165.94 309.35 166.43 309.42 167.77 310.34 167.58 310.75 173.88 309.69 174.1 309.76 175.43 313.37 174.7 313.29 173.36 312.25 173.57 311.76 165.94"/><polygon class="cls-18" points="330.14 162.01 328.65 162.31 328.75 163.99 330.25 163.68 330.14 162.01"/><polygon class="cls-18" points="330.31 164.62 327.89 165.12 327.96 166.44 328.88 166.26 329.13 170.12 328.07 170.34 328.15 171.68 331.77 170.94 331.7 169.6 330.63 169.82 330.31 164.62"/><path class="cls-18" d="M334.09,163.85h0c-1.43.29-2.42,1.16-2.16,2.44.38,1.84,2.88,1.08,3.08,2,.11.53-.41.7-.86.79l-1.92.4.08,1.31,1.9-.39c1.67-.34,2.49-1.38,2.24-2.62-.39-1.92-2.91-1.21-3.08-2-.06-.28.2-.5.83-.63l1.7-.35-.07-1.32Z"/><path class="cls-18" d="M320.92,166.53h0c-1.44.3-2.46,1.17-2.2,2.45.38,1.84,2.89,1.09,3.08,2,.11.53-.41.7-.87.8l-1.91.39.07,1.31,2-.4c1.68-.34,2.5-1.38,2.25-2.63-.4-1.91-2.91-1.21-3.08-2-.06-.28.2-.51.83-.64l1.7-.34-.08-1.32Z"/><path class="cls-18" d="M344.38,161.75h0c-1.43.29-2.43,1.16-2.16,2.44.37,1.83,2.88,1.08,3.07,2,.11.53-.41.7-.87.79l-1.91.4.07,1.31,2-.4c1.67-.34,2.49-1.38,2.23-2.63-.39-1.91-2.9-1.21-3.07-2-.06-.28.19-.51.83-.64l1.7-.34-.07-1.32Z"/><polygon class="cls-18" points="340.46 162.55 339.37 166.95 337.76 163.1 336.17 163.42 338.74 169.13 337.95 172.06 339.45 171.75 342.05 162.22 340.46 162.55"/><path class="cls-18" d="M316.69,167.4l0,.52a1.82,1.82,0,0,0-1.38-.24,2.38,2.38,0,0,0-1.94,2.55l.14,2.3c0,.11,0,.23.07.34a1.69,1.69,0,0,0,1.94,1.4l.21-.05a2.1,2.1,0,0,0,1.31-.81l.11.52,1.34-.27-.43-6.53Zm0,2.31.14,2.19a1,1,0,0,1-.9.92c-.47.1-.85-.06-.94-.47a4.57,4.57,0,0,1-.05-.52l-.1-2a1,1,0,0,1,.91-.91c.46-.1.84.07.93.47l.06.31"/><path class="cls-18" d="M326,170.38a2.34,2.34,0,0,1,0-.38l-.2-3.14,1.19-.24-.07-1.32-1.16.24-.09-1.42-1.52.31.09,1.42-1.13.23.08,1.32,1.15-.24.21,3.29a5,5,0,0,0,.06.54c.18.91.8,1.24,2.1,1l1-.21-.09-1.31-.77.16c-.6.12-.76.05-.81-.2"/><path class="cls-18" d="M278.39,188.1c-.12-2.53-.17-11.54,5.78-12.76a7.91,7.91,0,0,1,1.09-.13,3.49,3.49,0,0,1,3.7,2.72c.46,2.59-2.06,6.8-10.57,10.17"/><path class="cls-18" d="M286.81,184.38c2.64-2.37,3.45-4.76,3.13-6.63a4.45,4.45,0,0,0-4.69-3.54h0a9,9,0,0,0-1.26.15c-3.19.65-4.85,3.1-5.72,5.83.9-4.52,3.05-9.14,8-10.15a9.69,9.69,0,0,1,1.62-.2c3,.06,5.15,1.66,5.59,4.13.45,2.71-1.24,6.64-6.67,10.41"/><path class="cls-18" d="M300,167.71c.72,4.12-1.89,10-10.32,15.65a19.86,19.86,0,0,0,1.55-1.49c2.5-2.71,3.64-5.59,3.19-8.13-.52-3-3.1-4.91-6.57-5h0a10.79,10.79,0,0,0-1.79.21c-4.61.94-7.66,4.86-8.86,11.34a30,30,0,0,1,.45-3.16c1.6-8.86,5.56-14,11.74-15.29a15.65,15.65,0,0,1,2.37-.28c4.36,0,7.59,2.44,8.24,6.1"/></g></g></g></g></g></g></g></svg>