<svg xmlns="http://www.w3.org/2000/svg" xmlns:xlink="http://www.w3.org/1999/xlink" viewBox="0 0 502.84 101.18"><defs><style>.a{fill:#fbfdfe;}.b{fill:none;}</style></defs><title>safespring-scaleout</title><path class="a" d="M39.3,38.32a13.67,13.67,0,0,0-27.18,0,13.68,13.68,0,0,0,1.5,27.27H25.76a7.63,7.63,0,0,0,0-15.26,4.46,4.46,0,1,1,3.16-7.6,1.59,1.59,0,1,0,2.37-2.12l-.12-.12a7.63,7.63,0,1,0-5.41,13,4.45,4.45,0,0,1,0,8.9H13.62a10.5,10.5,0,0,1,0-21,1.6,1.6,0,0,0,1.59-1.59,10.5,10.5,0,0,1,21,0,1.59,1.59,0,0,0,1.59,1.59,10.5,10.5,0,0,1,0,21,1.59,1.59,0,1,0,0,3.18A13.68,13.68,0,0,0,39.3,38.3Z"/><path class="a" d="M70.11,55.41c-.78-.31-1.48-.55-2.5-.9C65.78,53.93,64,53.26,64,51.74s1.17-2.3,3-2.3a6.78,6.78,0,0,1,4.68,2l1.56-2.3a8.1,8.1,0,0,0-6.32-2.42c-3.28,0-6.24,1.87-6.24,5.3a4.75,4.75,0,0,0,2.92,4.45,14.27,14.27,0,0,0,2.54,1c1.25.43,4.18,1.05,4.18,3.08s-1.84,2.65-3.56,2.65a7.62,7.62,0,0,1-5.46-2.65l-1.79,2.18a8.87,8.87,0,0,0,7.22,3.32,8,8,0,0,0,5.15-1.64,5.3,5.3,0,0,0,1.91-4.21,4.64,4.64,0,0,0-1.48-3.44A7,7,0,0,0,70.11,55.41Z"/><path class="a" d="M83.68,46.71a14.24,14.24,0,0,0-7,1.87l1.14,2.5a11.31,11.31,0,0,1,5.58-1.6c2.69,0,4.6,1.4,4.6,4.21v.74l-5,.2c-4.29.19-7.25,2-7.25,5.66S78.8,66,82.2,66a7.68,7.68,0,0,0,5.89-2.77v2.34h3.67V54.82c0-3.16-.75-4.72-2-6S86.76,46.71,83.68,46.71Zm4.41,14a5.85,5.85,0,0,1-4.72,2.69c-2.46,0-3.83-1.45-3.83-3.2s1.21-3,4.22-3.2l4.33-.27Z"/><path class="a" d="M113.53,46.71a9.19,9.19,0,0,0-9.41,9c0,.22,0,.43,0,.64,0,5.89,3.78,9.71,9.28,9.71s7.93-2.73,8.16-2.92L120,61a10.33,10.33,0,0,1-6.13,2.15c-3.43,0-5.77-2.23-6-5.9h14.28c.06-.55.1-1.09.12-1.64a8.47,8.47,0,0,0-8.06-8.85Zm-5.58,8a5.46,5.46,0,0,1,5.46-5.31,5.36,5.36,0,0,1,5.35,5.31Z"/><path class="a" d="M134.3,55.41c-.78-.31-1.48-.55-2.49-.9-1.84-.58-3.63-1.25-3.63-2.77s1.17-2.3,3-2.3a6.8,6.8,0,0,1,4.69,2l1.56-2.3a8.1,8.1,0,0,0-6.32-2.42c-3.28,0-6.25,1.87-6.25,5.3a4.76,4.76,0,0,0,2.93,4.45,14.27,14.27,0,0,0,2.54,1c1.24.43,4.17,1.05,4.17,3.08S132.67,63.2,131,63.2a7.62,7.62,0,0,1-5.46-2.65l-1.8,2.18a8.89,8.89,0,0,0,7.22,3.32,7.92,7.92,0,0,0,5.15-1.64A5.3,5.3,0,0,0,138,60.2a4.64,4.64,0,0,0-1.48-3.44A7.21,7.21,0,0,0,134.3,55.41Z"/><path class="a" d="M150.29,46.71A7.83,7.83,0,0,0,143.7,50h-.08V47.09H140V72.67h3.73v-10h0a7.19,7.19,0,0,0,6.4,3.32c5.5,0,9-4.21,9-9.71S155.76,46.71,150.29,46.71Zm-.78,16.11c-3.7,0-5.89-2.85-5.89-6.55s2.19-6.52,5.89-6.52,5.9,2.81,5.9,6.52S153.22,62.82,149.51,62.82Z"/><rect class="a" x="174.43" y="47.06" width="3.75" height="18.53"/><path class="a" d="M190.76,46.71A6.25,6.25,0,0,0,185.1,50H185V47.06h-3.75V65.59H185V56.27c0-3.55,1.28-6.48,4.76-6.48,3.31,0,3.86,2.34,3.86,5.46V65.59h3.75v-11C197.44,50.18,196.07,46.71,190.76,46.71Z"/><path class="a" d="M215,47.09V50h-.11a7.42,7.42,0,0,0-6.48-3.27c-4.76,0-8.94,3.43-8.94,9.32s4.18,9.33,8.94,9.33a7.47,7.47,0,0,0,6.48-3.32H215v.73A8.4,8.4,0,0,1,213.59,68c-.74.94-2.3,2-5.07,2a11.8,11.8,0,0,1-6.64-2.34l-1.75,2.61A14.31,14.31,0,0,0,208.4,73c4.61,0,6.91-1.87,8.27-3.55s2-3.9,2-8V47.09Zm-5.78,15.25c-3.78,0-5.89-2.77-5.89-6.28s2.11-6.32,5.89-6.32,5.89,2.81,5.89,6.32-2.07,6.25-5.89,6.25Z"/><path class="a" d="M96.19,40.27c-.78,1-1.25,2.54-1.25,4.95V65.59h3.71V50.09h4.41v-3H98.65V45c0-2.11.39-3.94,2.85-3.94a6.36,6.36,0,0,1,1.56.2V38.45a11.6,11.6,0,0,0-2.42-.22A5.58,5.58,0,0,0,96.19,40.27Z"/><path class="a" d="M165.15,49.91H165V47.06H161.3V65.59H165V56.34a8,8,0,0,1,1.14-4.68,3.87,3.87,0,0,1,3-1.56,5,5,0,0,1,2,.39v-3.6a5.89,5.89,0,0,0-1.56-.18A4.83,4.83,0,0,0,165.15,49.91Z"/><circle class="a" cx="176.28" cy="40.68" r="2.44"/><line class="b" x1="243.26" y1="100.59" x2="280.11" y2="0.59"/><path class="a" d="M243.87,100.76l32.21-87.41L280.76.76c.28-.76-.93-1.08-1.2-.33L247.35,87.84l-4.64,12.59c-.28.75.93,1.08,1.21.33Z"/><image width="1476" height="520" transform="translate(287.08 16.2) scale(0.15)" xlink:href="../../../../../Downloads/SO%20White%20Flat%20(2).png"/></svg>