<svg xmlns="http://www.w3.org/2000/svg" xmlns:xlink="http://www.w3.org/1999/xlink" width="1920" height="701" viewBox="0 0 1920 701"><defs><linearGradient id="linear-gradient" x1="3.14" x2="-0.03" y1="-1.956" y2="1.026" gradientUnits="objectBoundingBox"><stop offset="0" stop-color="#195f8c" stop-opacity="0.392"/><stop offset="1" stop-color="#195f8c" stop-opacity="0"/></linearGradient><radialGradient id="radial-gradient" cx="0.5" cy="0.5" r="0.5" gradientUnits="objectBoundingBox"><stop offset="0" stop-color="#195f8c" stop-opacity="0.306"/><stop offset="1" stop-color="#195f8c" stop-opacity="0"/></radialGradient><clipPath id="clip-safespring-blue-fade_1"><path d="M0 0h1920v701H0z"/></clipPath></defs><g id="safespring-blue-fade_1" clip-path="url(#clip-safespring-blue-fade_1)"><path fill="#fff" d="M0 0h1920v701H0z"/><g id="safespring-blue-fade" transform="translate(-190 -242)"><path id="Rectangle_286" fill="url(#linear-gradient)" d="M0 0h1920v701H0z" transform="translate(190 242)"/><ellipse id="Ellipse_25" cx="713" cy="573.5" fill="url(#radial-gradient)" rx="713" ry="573.5" transform="translate(-655 19)"/><ellipse id="Ellipse_26" cx="713" cy="573.5" fill="url(#radial-gradient)" rx="713" ry="573.5" transform="translate(1360 370)"/></g><g id="Kubernetes_logo" style="mix-blend-mode:color-burn;isolation:isolate" transform="translate(1079.048 -329.939)"><path id="path10349" fill="#898989" d="M506.4 119.3c-3.17-10.15-10.79-18.4-20.3-23.47L292.53 3.17C287.46.64 281.75 0 276.67 0s-10.78 0-15.86 1.27L67.25 94.56a34.1 34.1 0 0 0-19.04 23.48L.61 326.82A40 40 0 0 0 7.6 357.3l133.9 165.63a46.2 46.2 0 0 0 29.2 13.33h213.22c11.43 1.27 22.21-3.81 29.2-13.33l133.9-165.63a43.3 43.3 0 0 0 7.6-30.47z"/><path id="path10351" fill="#fff" d="M420.64 261.47c-.64 0-1.27 0-1.27-.63s-1.27-.64-2.54-.64a31 31 0 0 0-7.61-.63 8 8 0 0 1-3.81-.64h-.64a128 128 0 0 1-21.57-3.8 7.7 7.7 0 0 1-4.44-4.45l-5.08-1.26c2.54-18.4 1.27-37.45-2.54-55.85a172 172 0 0 0-22.21-52.04l3.8-3.8v-.64c0-1.9.64-4.44 1.9-5.71a114 114 0 0 1 17.78-12.7l3.8-1.9c2.54-1.26 4.45-2.53 6.98-3.8.64-.64 1.27-.64 1.9-1.27s0-.64 0-1.27c5.72-4.44 6.99-12.06 2.54-17.77a12 12 0 0 0-8.88-4.44 15 15 0 0 0-8.88 3.17l-.63.64c-.64.63-1.27 1.26-1.9 1.26a41 41 0 0 0-5.08 5.72c-.64 1.27-1.9 1.9-2.54 2.53a84 84 0 0 1-15.86 13.97 9 9 0 0 1-3.81 1.26 3.8 3.8 0 0 1-2.54-.63h-.64l-5.07 3.17c-5.08-5.07-10.8-10.15-15.87-15.23-23.48-18.4-52.67-29.83-82.5-33l-.63-5.08v.64c-1.9-1.27-2.54-3.17-3.18-5.08 0-6.98 0-13.96 1.27-21.57v-.64c0-1.27.64-2.54.64-3.8.63-2.55.63-5.09 1.27-7.62v-3.81c.63-6.35-4.44-12.7-10.8-13.33-3.8-.63-7.6 1.27-10.78 4.44a12.5 12.5 0 0 0-3.8 8.89v3.17a32 32 0 0 0 1.26 7.62 8 8 0 0 1 .64 3.8v.64c1.27 6.98 1.27 13.96 1.27 21.58-.64 1.9-1.27 3.8-3.18 5.07v1.27l-.63 5.08c-6.98.63-13.96 1.9-21.58 3.17-29.83 6.35-57.11 22.21-78.06 44.42l-3.8-2.53h-.64c-.63 0-1.27.63-2.54.63a9 9 0 0 1-3.8-1.27 117 117 0 0 1-15.87-14.6c-.64-1.27-1.9-1.9-2.54-2.54-1.9-1.9-3.17-3.8-5.08-5.7-.63-.64-1.26-.64-1.9-1.28l-.63-.63a15 15 0 0 0-8.89-3.17c-3.8 0-6.98 1.26-8.88 4.44a13.65 13.65 0 0 0 2.53 17.77.6.6 0 0 1 .64.64s1.26 1.27 1.9 1.27a69 69 0 0 0 6.98 3.8l3.8 1.9c6.35 3.81 12.7 7.62 17.77 12.7 1.27 1.26 2.54 3.8 1.9 5.7v-.63l3.81 3.81c-.63 1.27-1.27 1.9-1.9 3.17-19.67 31.1-27.92 67.9-22.21 104.08l-5.08 1.27a.6.6 0 0 1-.63.63c-.64 1.9-2.54 3.18-4.44 4.45a118 118 0 0 1-21.58 3.8 8 8 0 0 0-3.8.64c-2.55 0-5.09.63-7.62.63-.64 0-1.27.64-2.54.64-.64 0-.64 0-1.27.63a12.4 12.4 0 0 0-10.15 14.6 11.8 11.8 0 0 0 12.69 8.89 5.7 5.7 0 0 0 3.17-.64c.64 0 .64 0 .64-.63s1.9 0 2.53 0c2.54-.64 5.08-1.9 6.98-2.54a9 9 0 0 1 3.81-1.27h.64a113 113 0 0 1 20.94-5.71h.64a7.2 7.2 0 0 1 5.07 1.9.6.6 0 0 1 .64.63l5.71-.63a153 153 0 0 0 52.04 74.25c5.71 4.44 10.79 8.25 17.14 11.42l-3.18 4.44a.6.6 0 0 0 .64.64 7.5 7.5 0 0 1 .63 6.35 104 104 0 0 1-10.15 18.4v.63a11 11 0 0 1-2.54 3.17c-1.27 1.27-2.54 3.81-4.44 6.35-.64.63-.64 1.27-1.27 1.9a.6.6 0 0 1-.64.63 13.06 13.06 0 0 0 5.08 17.14 12 12 0 0 0 4.44 1.27c5.08 0 9.52-3.18 12.06-7.62a.6.6 0 0 1 .64-.63c0-.64.63-1.27 1.26-1.9.64-2.54 1.9-4.44 2.54-6.98l1.27-3.81c1.9-6.98 5.08-13.33 8.25-19.67a10 10 0 0 1 5.08-3.81c.63 0 .63 0 .63-.64l2.54-5.07a149 149 0 0 0 55.21 10.15 127 127 0 0 0 34.27-4.44c6.98-1.27 13.96-3.81 20.31-5.71l2.54 4.44c.63 0 .63 0 .63.63a10 10 0 0 1 5.08 3.81c3.17 6.35 6.35 12.7 8.25 19.67v.64l1.27 3.8a23 23 0 0 0 2.54 6.99c.63.63.63 1.27 1.27 1.9a.6.6 0 0 0 .63.63c2.54 4.44 6.98 7.62 12.06 7.62 1.9 0 3.17-.64 5.08-1.27a10.6 10.6 0 0 0 5.7-6.97 16.3 16.3 0 0 0-.63-9.52.6.6 0 0 0-.64-.64c0-.63-.63-1.27-1.27-1.9a23 23 0 0 0-4.44-6.34 11 11 0 0 0-2.54-3.18v-1.27a75 75 0 0 1-10.15-18.4 7.5 7.5 0 0 1 .63-6.35.6.6 0 0 1 .64-.63l-1.9-5.08c32.36-19.67 57.11-50.13 68.54-86.3l5.07.63a.6.6 0 0 0 .64-.63 7.2 7.2 0 0 1 5.07-1.9h.64a107 107 0 0 1 20.3 5.7h.64a9 9 0 0 0 3.81 1.28c2.54 1.27 4.44 2.53 6.98 3.17.64 0 1.27.63 2.54.63.63 0 .63 0 1.27.64a5.7 5.7 0 0 0 3.17.63 13.8 13.8 0 0 0 12.7-8.88 15 15 0 0 0-11.43-13.33Zm-183.4-19.67-17.14 8.25-17.13-8.25-4.45-18.4 12.06-15.23h19.04l12.06 15.23Zm103.44-41.25a122 122 0 0 1 2.54 39.98l-60.3-17.13c-5.7-1.27-8.88-6.98-7.6-12.7a10 10 0 0 1 2.53-4.43l47.6-43.16a129 129 0 0 1 15.23 37.44m-34.27-60.92-52.04 36.8c-4.44 2.54-10.79 1.9-13.96-2.53a5.8 5.8 0 0 1-1.9-4.44l-3.8-64.1a119.4 119.4 0 0 1 71.7 34.26Zm-114.87-32.37 12.7-2.53-3.18 63.46c0 5.7-5.07 10.15-10.78 10.15-1.9 0-3.18-.63-5.08-1.27l-52.67-37.44a126 126 0 0 1 59.01-32.37m-77.42 55.85 46.96 41.88a10.2 10.2 0 0 1 1.27 14.6c-1.27 1.9-2.54 2.54-5.08 3.18l-61.55 17.76a133.6 133.6 0 0 1 18.4-77.42m-10.79 107.25 62.83-10.79c5.08 0 10.15 3.17 10.79 8.25a7.5 7.5 0 0 1-.64 6.35l-24.11 58.38a125 125 0 0 1-48.86-62.2Zm144.06 78.7a128 128 0 0 1-27.29 3.16c-13.33 0-27.29-2.53-39.98-6.34l31.1-56.48a9.84 9.84 0 0 1 12.7-2.54 32 32 0 0 1 5.07 4.44l30.46 55.21a103 103 0 0 0-12.06 2.54m77.42-55.22a121 121 0 0 1-38.07 38.08l-24.75-59.66a10.3 10.3 0 0 1 5.71-12.06 19 19 0 0 1 5.71-1.27l63.46 10.79c-3.17 8.89-6.98 17.14-12.06 24.12" transform="translate(55.939 57.101)"/></g><g id="Kubernetes_logo-2" style="mix-blend-mode:color-burn;isolation:isolate" transform="rotate(-25.97 1223.114 -2545.465)"><path id="path10349-2" fill="#898989" d="M829.24 195.37c-5.2-16.63-17.67-30.14-33.26-38.45L479.03 5.2c-8.3-4.16-17.66-5.2-25.97-5.2s-17.67 0-25.98 2.08L110.13 154.84a55.8 55.8 0 0 0-31.18 38.45L1.01 535.18a65.6 65.6 0 0 0 11.43 49.88l219.27 271.22c12.47 12.47 30.14 20.79 47.8 21.83h349.17c18.7 2.07 36.37-6.24 47.8-21.83l219.26-271.22a71 71 0 0 0 12.47-49.88z"/><path id="path10351-2" fill="#fff" d="M682.13 421.36c-1.04 0-2.08 0-2.08-1.04s-2.08-1.04-4.16-1.04a51 51 0 0 0-12.47-1.04 13 13 0 0 1-6.23-1.04h-1.04a210 210 0 0 1-35.34-6.24 12.6 12.6 0 0 1-7.27-7.27l-8.31-2.08c4.15-30.13 2.08-61.3-4.16-91.45a282 282 0 0 0-36.37-85.2l6.24-6.24v-1.04c0-3.12 1.03-7.28 3.11-9.36 9.36-8.3 18.7-14.54 29.1-20.78l6.24-3.12c4.16-2.08 7.27-4.15 11.43-6.23 1.04-1.04 2.08-1.04 3.12-2.08s0-1.04 0-2.08c9.35-7.27 11.43-19.74 4.15-29.1a20 20 0 0 0-14.54-7.27 25 25 0 0 0-14.55 5.2l-1.04 1.04c-1.04 1.03-2.08 2.07-3.12 2.07a67 67 0 0 0-8.31 9.36c-1.04 2.07-3.12 3.11-4.16 4.15a137 137 0 0 1-25.98 22.87c-2.08 1.03-4.16 2.07-6.23 2.07-1.04 0-3.12 0-4.16-1.04h-1.04l-8.31 5.2c-8.32-8.3-17.67-16.62-25.98-24.94-38.46-30.14-86.26-48.84-135.1-54.04l-1.04-8.31v1.04c-3.12-2.08-4.16-5.2-5.2-8.32 0-11.43 0-22.86 2.08-35.33v-1.04c0-2.07 1.04-4.15 1.04-6.23 1.04-4.16 1.04-8.31 2.08-12.47V32.7c1.03-10.4-7.28-20.78-17.67-21.82-6.24-1.04-12.47 2.08-17.67 7.27a20.5 20.5 0 0 0-6.23 14.55v5.2c0 4.16 1.04 8.31 2.08 12.47a13 13 0 0 1 1.04 6.23v1.04c2.08 11.43 2.08 22.86 2.08 35.33-1.04 3.12-2.08 6.24-5.2 8.31v2.08l-1.04 8.32c-11.43 1.03-22.86 3.11-35.33 5.2-48.84 10.39-93.53 36.37-127.82 72.74l-6.24-4.16h-1.03c-1.04 0-2.08 1.04-4.16 1.04s-4.15-1.04-6.23-2.08a192 192 0 0 1-25.98-23.9c-1.04-2.08-3.12-3.12-4.16-4.16-3.12-3.11-5.2-6.23-8.31-9.35-1.04-1.04-2.08-1.04-3.12-2.08l-1.04-1.04a25 25 0 0 0-14.55-5.2c-6.23 0-11.43 2.08-14.54 7.28a22.35 22.35 0 0 0 4.15 29.1 1 1 0 0 1 1.04 1.04s2.08 2.07 3.12 2.07a113 113 0 0 0 11.43 6.24l6.24 3.12c10.39 6.23 20.78 12.47 29.1 20.78 2.07 2.08 4.15 6.24 3.11 9.35v-1.03l6.24 6.23c-1.04 2.08-2.08 3.12-3.12 5.2C108.5 279 95 339.26 104.34 398.5l-8.31 2.08a1 1 0 0 1-1.04 1.04c-1.04 3.12-4.16 5.2-7.27 7.27a193 193 0 0 1-35.33 6.24 13 13 0 0 0-6.24 1.04c-4.16 0-8.31 1.04-12.47 1.04-1.04 0-2.08 1.04-4.16 1.04-1.04 0-1.04 0-2.07 1.03a20.3 20.3 0 0 0-16.63 23.9c2.08 9.36 11.43 15.6 20.78 14.56a9.4 9.4 0 0 0 5.2-1.04c1.04 0 1.04 0 1.04-1.04s3.12 0 4.16 0c4.15-1.04 8.3-3.12 11.43-4.16 2.08-1.04 4.15-2.08 6.23-2.08h1.04a185 185 0 0 1 34.3-9.35h1.03a11.8 11.8 0 0 1 8.31 3.12 1 1 0 0 1 1.04 1.04l9.36-1.04c15.58 47.8 44.68 90.4 85.2 121.58 9.36 7.28 17.67 13.51 28.07 18.7l-5.2 7.28a1 1 0 0 0 1.03 1.04 12.3 12.3 0 0 1 1.04 10.4c-4.15 10.38-10.39 20.78-16.62 30.13v1.04c-1.04 2.08-2.08 3.12-4.16 5.2s-4.16 6.23-7.27 10.39c-1.04 1.04-1.04 2.08-2.08 3.12a1 1 0 0 1-1.04 1.04c-5.2 10.39-1.04 22.86 8.31 28.05a19 19 0 0 0 7.28 2.08c8.3 0 15.58-5.2 19.74-12.47a1 1 0 0 1 1.04-1.04c0-1.04 1.04-2.07 2.08-3.11 1.04-4.16 3.11-7.28 4.15-11.44l2.08-6.23c3.12-11.43 8.31-21.82 13.51-32.21a16 16 0 0 1 8.31-6.24c1.04 0 1.04 0 1.04-1.04l4.16-8.31c29.1 11.43 59.23 16.63 90.4 16.63a208 208 0 0 0 56.12-7.28c11.43-2.08 22.87-6.23 33.26-9.35l4.15 7.27c1.04 0 1.04 0 1.04 1.04a16 16 0 0 1 8.32 6.24c5.2 10.39 10.39 20.78 13.5 32.21v1.04l2.08 6.23c1.04 4.16 2.08 8.32 4.16 11.44 1.04 1.03 1.04 2.07 2.08 3.11a1 1 0 0 0 1.04 1.04c4.15 7.28 11.43 12.47 19.74 12.47 3.12 0 5.2-1.04 8.31-2.08 4.16-2.07 8.32-6.23 9.36-11.43a26.7 26.7 0 0 0-1.04-15.58 1 1 0 0 0-1.04-1.04c0-1.04-1.04-2.08-2.08-3.12a37 37 0 0 0-7.27-10.4c-1.04-2.07-2.08-3.11-4.16-5.2v-2.07c-7.27-9.35-12.47-19.75-16.63-30.14a12.3 12.3 0 0 1 1.05-10.39 1 1 0 0 1 1.04-1.04l-3.12-8.31c53-32.22 93.53-82.1 112.23-141.33l8.32 1.04a1 1 0 0 0 1.03-1.04 11.8 11.8 0 0 1 8.32-3.12h1.04a175 175 0 0 1 33.25 9.36h1.04c2.08 1.03 4.16 2.07 6.23 2.07 4.16 2.08 7.28 4.16 11.44 5.2 1.03 0 2.07 1.04 4.15 1.04 1.04 0 1.04 0 2.08 1.04a9.4 9.4 0 0 0 5.2 1.04 22.6 22.6 0 0 0 20.79-14.55 24.5 24.5 0 0 0-18.71-21.82ZM381.8 389.14l-28.05 13.51-28.06-13.5L318.4 359l19.75-24.94h31.17L389.08 359Zm169.39-67.55a199 199 0 0 1 4.15 65.47L456.62 359c-9.35-2.08-14.54-11.43-12.47-20.78a17 17 0 0 1 4.16-7.28l77.94-70.66a211 211 0 0 1 24.94 61.3Zm-56.12-99.76-85.21 60.28c-7.28 4.15-17.67 3.11-22.86-4.16a9.4 9.4 0 0 1-3.12-7.28l-6.24-104.95c45.73 5.2 86.25 24.94 117.43 56.11m-188.1-53 20.8-4.15-5.2 103.92c0 9.35-8.31 16.63-17.67 16.63-3.11 0-5.2-1.04-8.3-2.08l-86.26-61.31c27.02-25.98 60.27-44.69 96.64-53ZM180.2 260.28l76.9 68.59c7.27 6.23 8.31 16.63 2.08 23.9-2.08 3.12-4.16 4.16-8.32 5.2l-100.8 29.1a219 219 0 0 1 30.14-126.79M162.54 435.9l102.88-17.67c8.3 0 16.62 5.2 17.66 13.51a12.3 12.3 0 0 1-1.04 10.4l-39.49 95.6c-36.37-23.9-65.46-60.28-80.01-101.84m235.89 128.86a210 210 0 0 1-44.68 5.2c-21.83 0-44.69-4.16-65.47-10.4l50.92-92.48c5.2-6.23 13.5-8.31 20.78-4.15a52 52 0 0 1 8.31 7.27l49.88 90.4a169 169 0 0 0-19.74 4.16m126.78-90.4a198.4 198.4 0 0 1-62.35 62.34l-40.53-97.68a16.9 16.9 0 0 1 9.35-19.75c3.12-1.04 6.24-2.07 9.36-2.07l103.91 17.66c-5.2 14.55-11.43 28.06-19.74 39.5" transform="translate(98.27 100.312)"/></g><g id="Kubernetes_logo-3" style="mix-blend-mode:color-burn;isolation:isolate" transform="translate(978.426 497.553)"><path id="path10349-3" fill="#898989" d="M412.48 97.18c-2.58-8.27-8.78-15-16.54-19.13L238.28 2.6A29 29 0 0 0 225.36 0c-4.13 0-8.79 0-12.92 1.03L54.78 77.02a27.8 27.8 0 0 0-15.5 19.13L.5 266.2a32.6 32.6 0 0 0 5.69 24.81l109.07 134.92a37.6 37.6 0 0 0 23.78 10.85h173.68c9.3 1.03 18.09-3.1 23.78-10.85l109.07-134.92a35.3 35.3 0 0 0 6.2-24.81z"/><path id="path10351-3" fill="#fff" d="M344.56 214.96c-.51 0-1.03 0-1.03-.52s-1.03-.51-2.07-.51a25 25 0 0 0-6.2-.52 6.6 6.6 0 0 1-3.1-.52h-.51a105 105 0 0 1-17.58-3.1 6.2 6.2 0 0 1-3.62-3.62l-4.13-1.03c2.07-14.99 1.03-30.5-2.07-45.49a140 140 0 0 0-18.1-42.38l3.1-3.1v-.52a7.2 7.2 0 0 1 1.56-4.65 93 93 0 0 1 14.47-10.34l3.1-1.55c2.07-1.04 3.62-2.07 5.69-3.1.52-.52 1.03-.52 1.55-1.04s0-.51 0-1.03c4.65-3.62 5.69-9.82 2.07-14.47a10 10 0 0 0-7.24-3.62 12.4 12.4 0 0 0-7.24 2.58l-.51.52c-.52.52-1.04 1.03-1.55 1.03a33 33 0 0 0-4.14 4.66c-.52 1.03-1.55 1.55-2.07 2.06a68 68 0 0 1-12.92 11.37 7 7 0 0 1-3.1 1.03 3 3 0 0 1-2.07-.51h-.52l-4.13 2.58c-4.13-4.13-8.79-8.27-12.92-12.4a132.5 132.5 0 0 0-67.2-26.88l-.52-4.14v.52c-1.55-1.04-2.07-2.59-2.58-4.14A103 103 0 0 1 190 34.56v-.52c0-1.03.52-2.07.52-3.1.51-2.07.51-4.13 1.03-6.2v-3.1a10.23 10.23 0 0 0-8.79-10.85c-3.1-.52-6.2 1.03-8.79 3.61a10.2 10.2 0 0 0-3.1 7.24v2.58a26 26 0 0 0 1.04 6.2 6.6 6.6 0 0 1 .52 3.1v.52c1.03 5.68 1.03 11.37 1.03 17.57-.52 1.55-1.03 3.1-2.59 4.14v1.03l-.51 4.14c-5.69.51-11.37 1.55-17.58 2.58a123 123 0 0 0-63.57 36.2l-3.1-2.07h-.52c-.51 0-1.03.52-2.06.52a7 7 0 0 1-3.1-1.04A95 95 0 0 1 67.5 85.22c-.52-1.04-1.55-1.56-2.07-2.07-1.55-1.55-2.58-3.1-4.13-4.65-.52-.52-1.04-.52-1.55-1.04l-.52-.52a12.4 12.4 0 0 0-7.24-2.58c-3.1 0-5.68 1.03-7.24 3.62a11.1 11.1 0 0 0 2.07 14.47.5.5 0 0 1 .52.52S48.37 94 48.89 94a56 56 0 0 0 5.69 3.1l3.1 1.55c5.17 3.1 10.34 6.2 14.47 10.34 1.03 1.03 2.07 3.1 1.55 4.65v-.52l3.1 3.1c-.52 1.04-1.03 1.55-1.55 2.59-16.02 25.33-22.74 55.3-18.1 84.77l-4.13 1.04a.5.5 0 0 1-.51.51c-.52 1.55-2.07 2.59-3.62 3.62a96 96 0 0 1-17.58 3.1 6.6 6.6 0 0 0-3.1.52c-2.06 0-4.13.52-6.2.52-.51 0-1.03.51-2.06.51-.52 0-.52 0-1.04.52a10.1 10.1 0 0 0-8.27 11.89 9.6 9.6 0 0 0 10.34 7.24 4.7 4.7 0 0 0 2.58-.52c.52 0 .52 0 .52-.52s1.55 0 2.07 0c2.07-.52 4.13-1.55 5.68-2.07a7 7 0 0 1 3.1-1.03h.52a92 92 0 0 1 17.06-4.65h.52a6 6 0 0 1 4.13 1.55.5.5 0 0 1 .52.52l4.65-.52a125 125 0 0 0 42.39 60.48 82 82 0 0 0 13.95 9.3l-2.58 3.62a.5.5 0 0 0 .52.51 6.1 6.1 0 0 1 .51 5.17 85 85 0 0 1-8.27 15v.5a9 9 0 0 1-2.07 2.6c-1.03 1.03-2.06 3.1-3.61 5.16-.52.52-.52 1.04-1.04 1.55a.5.5 0 0 1-.51.52 10.64 10.64 0 0 0 4.13 13.96 10 10 0 0 0 3.62 1.03 11.6 11.6 0 0 0 9.82-6.2.5.5 0 0 1 .52-.52c0-.51.51-1.03 1.03-1.55.52-2.06 1.55-3.61 2.07-5.68l1.03-3.1c1.55-5.69 4.14-10.86 6.72-16.03a8 8 0 0 1 4.14-3.1c.51 0 .51 0 .51-.51l2.07-4.14a122 122 0 0 0 44.97 8.27 104 104 0 0 0 27.92-3.62c5.68-1.03 11.37-3.1 16.54-4.65l2.07 3.62c.51 0 .51 0 .51.52a8 8 0 0 1 4.14 3.1c2.58 5.17 5.17 10.34 6.72 16.02v.52l1.03 3.1a19 19 0 0 0 2.07 5.68c.52.52.52 1.04 1.03 1.56a.5.5 0 0 0 .52.51 11.6 11.6 0 0 0 9.82 6.2 12 12 0 0 0 4.14-1.03 8.7 8.7 0 0 0 4.65-5.69 13.3 13.3 0 0 0-.52-7.75.5.5 0 0 0-.51-.52c0-.52-.52-1.03-1.04-1.55a19 19 0 0 0-3.62-5.17 9 9 0 0 0-2.07-2.58v-1.04a61 61 0 0 1-8.27-14.99 6.1 6.1 0 0 1 .52-5.17.5.5 0 0 1 .52-.51l-1.55-4.14c26.36-16.02 46.52-40.83 55.82-70.3l4.14.52a.5.5 0 0 0 .52-.52 6 6 0 0 1 4.13-1.55h.52a87 87 0 0 1 16.54 4.65h.52a7 7 0 0 0 3.1 1.04 28 28 0 0 0 5.68 2.58c.52 0 1.04.52 2.07.52.52 0 .52 0 1.04.52a4.7 4.7 0 0 0 2.58.51 11.2 11.2 0 0 0 10.34-7.23 12.2 12.2 0 0 0-9.3-10.86Zm-149.38-16.02-13.96 6.72-13.96-6.72-3.61-15 9.82-12.4h15.5l9.82 12.4Zm84.25-33.6a99 99 0 0 1 2.07 32.56l-49.1-13.96a8.45 8.45 0 0 1-6.2-10.33 8.3 8.3 0 0 1 2.06-3.62l38.77-35.15a105 105 0 0 1 12.4 30.5m-27.91-49.63-42.39 29.98c-3.61 2.07-8.78 1.55-11.37-2.06a4.7 4.7 0 0 1-1.55-3.62l-3.1-52.21a97.3 97.3 0 0 1 58.41 27.91m-93.56-26.36 10.34-2.07-2.58 51.7c0 4.65-4.14 8.27-8.8 8.27a12 12 0 0 1-4.13-1.04l-42.9-30.5a102.7 102.7 0 0 1 48.07-26.36M94.9 134.84l38.25 34.11a8.3 8.3 0 0 1 1.04 11.9c-1.04 1.54-2.07 2.06-4.14 2.58L79.91 197.9a109 109 0 0 1 14.99-63.06m-8.8 87.36 51.18-8.79c4.14 0 8.27 2.59 8.79 6.72a6.1 6.1 0 0 1-.52 5.17l-19.64 47.56a101.7 101.7 0 0 1-39.8-50.66Zm117.35 64.1a105 105 0 0 1-22.23 2.58 116 116 0 0 1-32.56-5.16l25.32-46.02a8 8 0 0 1 10.34-2.07 26 26 0 0 1 4.14 3.62l24.8 44.97a84 84 0 0 0-9.81 2.07Zm63.06-44.97a99 99 0 0 1-31.01 31l-20.16-48.58a8.4 8.4 0 0 1 4.65-9.82 15 15 0 0 1 4.65-1.04l51.7 8.79a78 78 0 0 1-9.83 19.64Z" transform="translate(43.623 44.53)"/></g></g></svg>