<svg xmlns="http://www.w3.org/2000/svg" xmlns:xlink="http://www.w3.org/1999/xlink" width="1920" height="701" viewBox="0 0 1920 701">
  <defs>
    <linearGradient id="linear-gradient" x1="3.14" y1="-1.956" x2="-0.03" y2="1.026" gradientUnits="objectBoundingBox">
      <stop offset="0" stop-color="#195f8c" stop-opacity="0.392"/>
      <stop offset="1" stop-color="#195f8c" stop-opacity="0"/>
    </linearGradient>
    <radialGradient id="radial-gradient" cx="0.5" cy="0.5" r="0.5" gradientUnits="objectBoundingBox">
      <stop offset="0" stop-color="#195f8c" stop-opacity="0.306"/>
      <stop offset="1" stop-color="#195f8c" stop-opacity="0"/>
    </radialGradient>
    <clipPath id="clip-safespring-blue-fade_1">
      <rect width="1920" height="701"/>
    </clipPath>
  </defs>
  <g id="safespring-blue-fade_1" data-name="safespring-blue-fade – 1" clip-path="url(#clip-safespring-blue-fade_1)">
    <rect width="1920" height="701" fill="#fff"/>
    <g id="safespring-blue-fade" transform="translate(-190 -242)">
      <rect id="Rectangle_286" data-name="Rectangle 286" width="1920" height="701" transform="translate(190 242)" fill="url(#linear-gradient)"/>
      <ellipse id="Ellipse_25" data-name="Ellipse 25" cx="713" cy="573.5" rx="713" ry="573.5" transform="translate(-655 19)" fill="url(#radial-gradient)"/>
      <ellipse id="Ellipse_26" data-name="Ellipse 26" cx="713" cy="573.5" rx="713" ry="573.5" transform="translate(1360 370)" fill="url(#radial-gradient)"/>
    </g>
    <g id="Kubernetes_logo" transform="translate(1079.048 -329.939)" style="mix-blend-mode: color-burn;isolation: isolate">
      <path id="path10349" d="M506.4,119.307c-3.173-10.154-10.788-18.4-20.308-23.481L292.54,3.173C287.463.635,281.751,0,276.675,0s-10.788,0-15.865,1.269L67.253,94.557a34.1,34.1,0,0,0-19.038,23.481L.618,326.825A40.037,40.037,0,0,0,7.6,357.287L141.5,522.92a46.2,46.2,0,0,0,29.192,13.327h213.23c11.423,1.269,22.211-3.808,29.192-13.327l133.9-165.634a43.337,43.337,0,0,0,7.615-30.461L506.4,119.307Z" transform="translate(0)" fill="#898989"/>
      <path id="path10351" d="M420.639,261.474h0c-.635,0-1.269,0-1.269-.635s-1.269-.635-2.538-.635a30.9,30.9,0,0,0-7.615-.635,8.049,8.049,0,0,1-3.808-.635h-.635a128.254,128.254,0,0,1-21.577-3.808,7.666,7.666,0,0,1-4.442-4.442h0l-5.077-1.269c2.538-18.4,1.269-37.442-2.538-55.846a171.921,171.921,0,0,0-22.211-52.038l3.808-3.808h0v-.635c0-1.9.635-4.442,1.9-5.712a113.653,113.653,0,0,1,17.769-12.692h0l3.808-1.9c2.538-1.269,4.442-2.538,6.981-3.808.635-.635,1.269-.635,1.9-1.269s0-.635,0-1.269h0c5.712-4.442,6.981-12.058,2.538-17.769a12.121,12.121,0,0,0-8.885-4.442A15.163,15.163,0,0,0,369.87,91.4h0l-.635.635c-.635.635-1.269,1.269-1.9,1.269a41.055,41.055,0,0,0-5.077,5.712c-.635,1.269-1.9,1.9-2.538,2.538h0a83.446,83.446,0,0,1-15.865,13.961,9.02,9.02,0,0,1-3.808,1.269,3.815,3.815,0,0,1-2.538-.635h-.635l-5.077,3.173c-5.077-5.077-10.788-10.154-15.865-15.231-23.481-18.4-52.673-29.827-82.5-33l-.635-5.077h0v.635c-1.9-1.269-2.538-3.173-3.173-5.077,0-6.981,0-13.961,1.269-21.577V39.36c0-1.269.635-2.538.635-3.808.635-2.538.635-5.077,1.269-7.615V24.129h0c.635-6.346-4.442-12.692-10.788-13.327-3.808-.635-7.615,1.269-10.788,4.442a12.529,12.529,0,0,0-3.808,8.885h0V27.3a31.853,31.853,0,0,0,1.269,7.615,8.049,8.049,0,0,1,.635,3.808v.635c1.269,6.981,1.269,13.961,1.269,21.577-.635,1.9-1.269,3.808-3.173,5.077v1.269h0l-.635,5.077c-6.981.635-13.961,1.9-21.577,3.173-29.827,6.346-57.115,22.211-78.057,44.423l-3.808-2.538H102.7c-.635,0-1.269.635-2.538.635a9.02,9.02,0,0,1-3.808-1.269,117.011,117.011,0,0,1-15.865-14.6h0c-.635-1.269-1.9-1.9-2.538-2.538-1.9-1.9-3.173-3.808-5.077-5.712-.635-.635-1.269-.635-1.9-1.269l-.635-.635h0a15.163,15.163,0,0,0-8.885-3.173c-3.808,0-6.981,1.269-8.885,4.442A13.649,13.649,0,0,0,55.1,111.071h0a.622.622,0,0,1,.635.635s1.269,1.269,1.9,1.269a69.22,69.22,0,0,0,6.981,3.808l3.808,1.9h0c6.346,3.808,12.692,7.615,17.769,12.692,1.269,1.269,2.538,3.808,1.9,5.712v-.635h0l3.808,3.808c-.635,1.269-1.269,1.9-1.9,3.173-19.673,31.1-27.923,67.9-22.211,104.076l-5.077,1.269h0a.622.622,0,0,1-.635.635c-.635,1.9-2.538,3.173-4.442,4.442a117.876,117.876,0,0,1-21.577,3.808h0a8.049,8.049,0,0,0-3.808.635c-2.538,0-5.077.635-7.615.635-.635,0-1.269.635-2.538.635-.635,0-.635,0-1.269.635h0a12.384,12.384,0,0,0-10.154,14.6h0a11.781,11.781,0,0,0,12.692,8.885,5.721,5.721,0,0,0,3.173-.635h0c.635,0,.635,0,.635-.635s1.9,0,2.538,0c2.538-.635,5.077-1.9,6.981-2.538a9.02,9.02,0,0,1,3.808-1.269h.635A113.127,113.127,0,0,1,62.083,272.9h.635a7.206,7.206,0,0,1,5.077,1.9.622.622,0,0,1,.635.635h0l5.712-.635a153.174,153.174,0,0,0,52.038,74.25c5.711,4.442,10.788,8.25,17.135,11.423l-3.173,4.442h0a.622.622,0,0,0,.635.635,7.509,7.509,0,0,1,.635,6.346,104.127,104.127,0,0,1-10.154,18.4v.635a11.141,11.141,0,0,1-2.538,3.173c-1.269,1.269-2.538,3.808-4.442,6.346-.635.635-.635,1.269-1.269,1.9a.622.622,0,0,1-.635.635h0a13.063,13.063,0,0,0,5.077,17.134,11.765,11.765,0,0,0,4.442,1.269c5.077,0,9.519-3.173,12.058-7.615h0a.622.622,0,0,1,.635-.635c0-.635.635-1.269,1.269-1.9.635-2.538,1.9-4.442,2.538-6.981l1.269-3.808h0c1.9-6.981,5.077-13.327,8.25-19.673a9.869,9.869,0,0,1,5.077-3.808c.635,0,.635,0,.635-.635h0l2.538-5.077a149.383,149.383,0,0,0,55.211,10.154,127.073,127.073,0,0,0,34.269-4.442c6.981-1.269,13.961-3.808,20.308-5.712l2.538,4.442h0c.635,0,.635,0,.635.635a9.869,9.869,0,0,1,5.077,3.808c3.173,6.346,6.346,12.692,8.25,19.673v.635l1.269,3.808a22.734,22.734,0,0,0,2.538,6.981c.635.635.635,1.269,1.269,1.9a.622.622,0,0,0,.635.635h0c2.538,4.442,6.981,7.615,12.058,7.615,1.9,0,3.173-.635,5.077-1.269A10.619,10.619,0,0,0,321,413.146a16.325,16.325,0,0,0-.635-9.519h0a.622.622,0,0,0-.635-.635c0-.635-.635-1.269-1.269-1.9a22.792,22.792,0,0,0-4.442-6.346,11.142,11.142,0,0,0-2.538-3.173V390.3a74.977,74.977,0,0,1-10.154-18.4,7.509,7.509,0,0,1,.635-6.346.622.622,0,0,1,.635-.635h0l-1.9-5.077c32.365-19.673,57.115-50.134,68.538-86.307l5.077.635h0a.622.622,0,0,0,.635-.635,7.206,7.206,0,0,1,5.077-1.9h.635a106.689,106.689,0,0,1,20.308,5.712h.635a9.021,9.021,0,0,0,3.808,1.269c2.538,1.269,4.442,2.538,6.981,3.173.635,0,1.269.635,2.538.635.635,0,.635,0,1.269.635h0a5.721,5.721,0,0,0,3.173.635,13.8,13.8,0,0,0,12.692-8.885,14.962,14.962,0,0,0-11.423-13.327ZM237.236,241.8l-17.135,8.25-17.135-8.25-4.442-18.4,12.058-15.231h19.038L241.678,223.4Zm103.442-41.25a121.5,121.5,0,0,1,2.538,39.981L282.928,223.4h0c-5.711-1.269-8.885-6.981-7.615-12.692a10.228,10.228,0,0,1,2.538-4.442l47.6-43.154a129.108,129.108,0,0,1,15.231,37.442Zm-34.269-60.923L254.37,176.436c-4.442,2.538-10.788,1.9-13.961-2.538a5.761,5.761,0,0,1-1.9-4.442l-3.808-64.1a119.429,119.429,0,0,1,71.711,34.269h0ZM191.544,107.263l12.692-2.538-3.173,63.461h0c0,5.712-5.077,10.154-10.788,10.154-1.9,0-3.173-.635-5.077-1.269l-52.673-37.442a126.021,126.021,0,0,1,59.019-32.365Zm-77.423,55.846,46.961,41.884h0a10.2,10.2,0,0,1,1.269,14.6c-1.269,1.9-2.538,2.538-5.077,3.173L95.717,240.532a133.586,133.586,0,0,1,18.4-77.423ZM103.333,270.359l62.827-10.788c5.077,0,10.154,3.173,10.788,8.25a7.509,7.509,0,0,1-.635,6.346h0L152.2,332.551a124.84,124.84,0,0,1-48.865-62.192ZM247.39,349.051a128.417,128.417,0,0,1-27.288,3.173c-13.327,0-27.288-2.538-39.981-6.346l31.1-56.48a9.843,9.843,0,0,1,12.692-2.538,31.783,31.783,0,0,1,5.077,4.442h0l30.461,55.211A103.1,103.1,0,0,0,247.39,349.051Zm77.423-55.211a121.177,121.177,0,0,1-38.077,38.077l-24.75-59.654A10.319,10.319,0,0,1,267.7,260.2a18.531,18.531,0,0,1,5.712-1.269l63.461,10.788C333.7,278.609,329.889,286.859,324.812,293.839Z" transform="translate(55.939 57.101)" fill="#fff"/>
    </g>
    <g id="Kubernetes_logo-2" data-name="Kubernetes_logo" transform="matrix(0.899, -0.438, 0.438, 0.899, 1238.448, 278.632)" style="mix-blend-mode: color-burn;isolation: isolate">
      <path id="path10349-2" data-name="path10349" d="M829.237,195.365c-5.2-16.627-17.666-30.136-33.254-38.45L479.034,5.2C470.721,1.039,461.368,0,453.055,0s-17.666,0-25.979,2.078L110.126,154.837a55.838,55.838,0,0,0-31.175,38.45L1.013,535.176a65.56,65.56,0,0,0,11.431,49.88L231.71,856.282c12.47,12.47,30.136,20.784,47.8,21.823H628.676c18.705,2.078,36.371-6.235,47.8-21.823L895.744,585.057a70.964,70.964,0,0,0,12.47-49.88L829.237,195.365Z" transform="translate(0 0)" fill="#898989"/>
      <path id="path10351-2" data-name="path10351" d="M682.126,421.355h0c-1.039,0-2.078,0-2.078-1.039s-2.078-1.039-4.157-1.039a50.6,50.6,0,0,0-12.47-1.039,13.18,13.18,0,0,1-6.235-1.039h-1.039a210.008,210.008,0,0,1-35.332-6.235,12.553,12.553,0,0,1-7.274-7.274h0l-8.313-2.078c4.157-30.136,2.078-61.311-4.157-91.448A281.522,281.522,0,0,0,564.7,224.951l6.235-6.235h0v-1.039c0-3.118,1.039-7.274,3.118-9.353,9.353-8.313,18.705-14.548,29.1-20.784h0l6.235-3.118c4.157-2.078,7.274-4.157,11.431-6.235,1.039-1.039,2.078-1.039,3.118-2.078s0-1.039,0-2.078h0c9.353-7.274,11.431-19.744,4.157-29.1a19.848,19.848,0,0,0-14.549-7.274,24.829,24.829,0,0,0-14.548,5.2h0l-1.039,1.039c-1.039,1.039-2.078,2.078-3.118,2.078a67.23,67.23,0,0,0-8.313,9.353c-1.039,2.078-3.118,3.118-4.157,4.157h0a136.64,136.64,0,0,1-25.979,22.862c-2.078,1.039-4.157,2.078-6.235,2.078-1.039,0-3.118,0-4.157-1.039h-1.039l-8.313,5.2c-8.313-8.313-17.666-16.627-25.979-24.94C472.212,133.5,424.41,114.8,375.569,109.6l-1.039-8.313h0v1.039c-3.118-2.078-4.157-5.2-5.2-8.313,0-11.431,0-22.862,2.078-35.332V57.643c0-2.078,1.039-4.157,1.039-6.235,1.039-4.157,1.039-8.313,2.078-12.47V32.7h0c1.039-10.392-7.274-20.784-17.666-21.823-6.235-1.039-12.47,2.078-17.666,7.274A20.517,20.517,0,0,0,332.962,32.7h0v5.2c0,4.157,1.039,8.313,2.078,12.47A13.181,13.181,0,0,1,336.08,56.6v1.039c2.078,11.431,2.078,22.862,2.078,35.332-1.039,3.118-2.078,6.235-5.2,8.313v2.078h0l-1.039,8.313c-11.431,1.039-22.862,3.118-35.332,5.2-48.841,10.392-93.526,36.371-127.819,72.742l-6.235-4.157H161.5c-1.039,0-2.078,1.039-4.157,1.039s-4.157-1.039-6.235-2.078a191.606,191.606,0,0,1-25.979-23.9h0c-1.039-2.078-3.118-3.118-4.157-4.157-3.118-3.118-5.2-6.235-8.313-9.353-1.039-1.039-2.078-1.039-3.118-2.078l-1.039-1.039h0a24.829,24.829,0,0,0-14.548-5.2c-6.235,0-11.431,2.078-14.548,7.274a22.35,22.35,0,0,0,4.157,29.1h0a1.018,1.018,0,0,1,1.039,1.039s2.078,2.078,3.118,2.078a113.35,113.35,0,0,0,11.431,6.235l6.235,3.118h0c10.392,6.235,20.784,12.47,29.1,20.784,2.078,2.078,4.157,6.235,3.118,9.353v-1.039h0l6.235,6.235c-1.039,2.078-2.078,3.118-3.118,5.2C108.5,278.988,94.991,339.26,104.343,398.493l-8.313,2.078h0a1.018,1.018,0,0,1-1.039,1.039c-1.039,3.118-4.157,5.2-7.274,7.274a193.019,193.019,0,0,1-35.332,6.235h0a13.18,13.18,0,0,0-6.235,1.039c-4.157,0-8.313,1.039-12.47,1.039-1.039,0-2.078,1.039-4.157,1.039-1.039,0-1.039,0-2.078,1.039h0a20.278,20.278,0,0,0-16.627,23.9h0C12.9,452.53,22.248,458.765,31.6,457.726a9.369,9.369,0,0,0,5.2-1.039h0c1.039,0,1.039,0,1.039-1.039s3.118,0,4.157,0c4.157-1.039,8.313-3.117,11.431-4.157,2.078-1.039,4.157-2.078,6.235-2.078H60.7a185.248,185.248,0,0,1,34.293-9.353H96.03a11.8,11.8,0,0,1,8.313,3.118,1.018,1.018,0,0,1,1.039,1.039h0l9.353-1.039c15.588,47.8,44.685,90.408,85.213,121.584,9.353,7.274,17.666,13.509,28.058,18.705l-5.2,7.274h0a1.018,1.018,0,0,0,1.039,1.039,12.3,12.3,0,0,1,1.039,10.392c-4.157,10.392-10.392,20.784-16.627,30.136v1.039c-1.039,2.078-2.078,3.118-4.157,5.2s-4.157,6.235-7.274,10.392c-1.039,1.039-1.039,2.078-2.078,3.118a1.018,1.018,0,0,1-1.039,1.039h0c-5.2,10.392-1.039,22.862,8.313,28.058a19.266,19.266,0,0,0,7.274,2.078c8.313,0,15.588-5.2,19.744-12.47h0a1.018,1.018,0,0,1,1.039-1.039c0-1.039,1.039-2.078,2.078-3.118,1.039-4.157,3.118-7.274,4.157-11.431l2.078-6.235h0c3.118-11.431,8.313-21.823,13.509-32.214a16.16,16.16,0,0,1,8.313-6.235c1.039,0,1.039,0,1.039-1.039h0l4.157-8.313c29.1,11.431,59.233,16.627,90.408,16.627a208.081,208.081,0,0,0,56.116-7.274c11.431-2.078,22.862-6.235,33.254-9.353l4.157,7.274h0c1.039,0,1.039,0,1.039,1.039a16.161,16.161,0,0,1,8.313,6.235c5.2,10.392,10.392,20.784,13.509,32.214v1.039l2.078,6.235c1.039,4.157,2.078,8.313,4.157,11.431,1.039,1.039,1.039,2.078,2.078,3.118a1.018,1.018,0,0,0,1.039,1.039h0c4.157,7.274,11.431,12.47,19.744,12.47,3.118,0,5.2-1.039,8.313-2.078,4.157-2.078,8.313-6.235,9.353-11.431a26.733,26.733,0,0,0-1.039-15.588h0a1.018,1.018,0,0,0-1.039-1.039c0-1.039-1.039-2.078-2.078-3.118a37.323,37.323,0,0,0-7.274-10.392c-1.039-2.078-2.078-3.118-4.157-5.2v-2.078c-7.274-9.353-12.47-19.744-16.627-30.136A12.3,12.3,0,0,1,487.8,591.78a1.018,1.018,0,0,1,1.039-1.039h0l-3.117-8.313c53-32.214,93.526-82.095,112.231-141.328l8.313,1.039h0a1.018,1.018,0,0,0,1.039-1.039,11.8,11.8,0,0,1,8.313-3.118h1.039a174.706,174.706,0,0,1,33.254,9.353h1.039c2.078,1.039,4.157,2.078,6.235,2.078,4.157,2.078,7.274,4.157,11.431,5.2,1.039,0,2.078,1.039,4.157,1.039,1.039,0,1.039,0,2.078,1.039h0a9.368,9.368,0,0,0,5.2,1.039,22.6,22.6,0,0,0,20.784-14.549,24.5,24.5,0,0,0-18.705-21.823ZM381.8,389.141,353.746,402.65l-28.058-13.509L318.414,359l19.744-24.94h31.175L389.078,359Zm169.386-67.547a198.949,198.949,0,0,1,4.157,65.468L456.624,359h0c-9.353-2.078-14.548-11.431-12.47-20.784a16.749,16.749,0,0,1,4.157-7.274l77.938-70.664a211.415,211.415,0,0,1,24.94,61.311Zm-56.116-99.761-85.213,60.272c-7.274,4.157-17.666,3.118-22.862-4.157a9.434,9.434,0,0,1-3.118-7.274l-6.235-104.957c45.724,5.2,86.252,24.94,117.427,56.116h0Zm-188.091-53,20.784-4.157L322.57,268.6h0c0,9.353-8.313,16.627-17.666,16.627-3.118,0-5.2-1.039-8.313-2.078l-86.252-61.312c27.019-25.979,60.272-44.685,96.644-53ZM180.2,260.283l76.9,68.586h0c7.274,6.235,8.313,16.627,2.078,23.9-2.078,3.117-4.157,4.157-8.313,5.2l-100.8,29.1A218.747,218.747,0,0,1,180.2,260.282ZM162.537,435.9l102.879-17.666c8.313,0,16.627,5.2,17.666,13.509a12.3,12.3,0,0,1-1.039,10.392h0l-39.489,95.6c-36.371-23.9-65.468-60.272-80.017-101.839ZM398.43,564.761a210.286,210.286,0,0,1-44.685,5.2c-21.823,0-44.685-4.157-65.468-10.392l50.92-92.487c5.2-6.235,13.509-8.313,20.784-4.157a52.049,52.049,0,0,1,8.313,7.274h0L418.175,560.6A168.838,168.838,0,0,0,398.43,564.761Zm126.78-90.408A198.427,198.427,0,0,1,462.859,536.7l-40.528-97.683a16.9,16.9,0,0,1,9.353-19.744c3.118-1.039,6.235-2.078,9.353-2.078l103.918,17.666C539.758,449.413,533.523,462.922,525.21,474.353Z" transform="translate(98.27 100.312)" fill="#fff"/>
    </g>
    <g id="Kubernetes_logo-3" data-name="Kubernetes_logo" transform="translate(978.426 497.553)" style="mix-blend-mode: color-burn;isolation: isolate">
      <path id="path10349-3" data-name="path10349" d="M412.482,97.179c-2.585-8.271-8.787-14.99-16.541-19.126L238.283,2.585A28.919,28.919,0,0,0,225.36,0c-4.135,0-8.788,0-12.923,1.034L54.779,77.02A27.775,27.775,0,0,0,39.272,96.146L.5,266.21A32.611,32.611,0,0,0,6.19,291.021L115.258,425.935a37.634,37.634,0,0,0,23.778,10.855H312.718c9.3,1.034,18.092-3.1,23.778-10.855L445.565,291.021a35.3,35.3,0,0,0,6.2-24.812L412.482,97.179Z" transform="translate(0 0)" fill="#898989"/>
      <path id="path10351-3" data-name="path10351" d="M344.564,214.96h0c-.517,0-1.034,0-1.034-.517s-1.034-.517-2.068-.517a25.168,25.168,0,0,0-6.2-.517,6.556,6.556,0,0,1-3.1-.517h-.517a104.467,104.467,0,0,1-17.575-3.1,6.244,6.244,0,0,1-3.618-3.618h0l-4.135-1.034c2.068-14.99,1.034-30.5-2.068-45.488a140.035,140.035,0,0,0-18.092-42.387l3.1-3.1h0v-.517a7.216,7.216,0,0,1,1.551-4.652,92.573,92.573,0,0,1,14.474-10.338h0l3.1-1.551c2.068-1.034,3.618-2.068,5.686-3.1.517-.517,1.034-.517,1.551-1.034s0-.517,0-1.034h0c4.652-3.618,5.686-9.821,2.068-14.474a9.873,9.873,0,0,0-7.237-3.618,12.351,12.351,0,0,0-7.237,2.585h0l-.517.517c-.517.517-1.034,1.034-1.551,1.034a33.44,33.44,0,0,0-4.135,4.652c-.517,1.034-1.551,1.551-2.068,2.068h0A67.969,67.969,0,0,1,282.018,96.07a7.347,7.347,0,0,1-3.1,1.034,3.108,3.108,0,0,1-2.068-.517h-.517L272.2,99.172c-4.135-4.135-8.788-8.271-12.923-12.406a132.45,132.45,0,0,0-67.2-26.879l-.517-4.135h0v.517c-1.551-1.034-2.068-2.585-2.585-4.135a103.268,103.268,0,0,1,1.034-17.575v-.517c0-1.034.517-2.068.517-3.1.517-2.068.517-4.135,1.034-6.2v-3.1h0a10.228,10.228,0,0,0-8.788-10.855c-3.1-.517-6.2,1.034-8.787,3.618a10.206,10.206,0,0,0-3.1,7.237h0V24.22a25.944,25.944,0,0,0,1.034,6.2,6.556,6.556,0,0,1,.517,3.1v.517c1.034,5.686,1.034,11.372,1.034,17.575-.517,1.551-1.034,3.1-2.585,4.135v1.034h0l-.517,4.135c-5.686.517-11.372,1.551-17.575,2.585A123.223,123.223,0,0,0,89.21,99.689l-3.1-2.068h-.517c-.517,0-1.034.517-2.068.517a7.347,7.347,0,0,1-3.1-1.034A95.309,95.309,0,0,1,67.5,85.215h0c-.517-1.034-1.551-1.551-2.068-2.068-1.551-1.551-2.585-3.1-4.135-4.652-.517-.517-1.034-.517-1.551-1.034l-.517-.517h0a12.351,12.351,0,0,0-7.237-2.585c-3.1,0-5.686,1.034-7.237,3.618a11.118,11.118,0,0,0,2.068,14.474h0a.506.506,0,0,1,.517.517S48.374,94,48.891,94a56.382,56.382,0,0,0,5.686,3.1l3.1,1.551h0c5.169,3.1,10.338,6.2,14.474,10.338,1.034,1.034,2.068,3.1,1.551,4.652v-.517h0l3.1,3.1c-.517,1.034-1.034,1.551-1.551,2.585-16.024,25.329-22.744,55.31-18.092,84.774l-4.135,1.034h0a.506.506,0,0,1-.517.517c-.517,1.551-2.068,2.585-3.618,3.618a96.014,96.014,0,0,1-17.575,3.1h0a6.556,6.556,0,0,0-3.1.517c-2.068,0-4.135.517-6.2.517-.517,0-1.034.517-2.068.517-.517,0-.517,0-1.034.517h0a10.087,10.087,0,0,0-8.271,11.889h0a9.6,9.6,0,0,0,10.338,7.237,4.66,4.66,0,0,0,2.585-.517h0c.517,0,.517,0,.517-.517s1.551,0,2.068,0c2.068-.517,4.135-1.551,5.686-2.068a7.347,7.347,0,0,1,3.1-1.034h.517a92.147,92.147,0,0,1,17.058-4.652h.517a5.87,5.87,0,0,1,4.135,1.551.506.506,0,0,1,.517.517h0l4.652-.517a124.765,124.765,0,0,0,42.387,60.479,81.982,81.982,0,0,0,13.957,9.3l-2.585,3.618h0a.506.506,0,0,0,.517.517,6.117,6.117,0,0,1,.517,5.169,84.816,84.816,0,0,1-8.271,14.99v.517a9.074,9.074,0,0,1-2.068,2.585c-1.034,1.034-2.068,3.1-3.618,5.169-.517.517-.517,1.034-1.034,1.551a.506.506,0,0,1-.517.517h0a10.641,10.641,0,0,0,4.135,13.957,9.583,9.583,0,0,0,3.618,1.034,11.583,11.583,0,0,0,9.821-6.2h0a.506.506,0,0,1,.517-.517c0-.517.517-1.034,1.034-1.551.517-2.068,1.551-3.618,2.068-5.686l1.034-3.1h0c1.551-5.686,4.135-10.855,6.72-16.024a8.038,8.038,0,0,1,4.135-3.1c.517,0,.517,0,.517-.517h0l2.068-4.135a121.677,121.677,0,0,0,44.971,8.271,103.5,103.5,0,0,0,27.913-3.618c5.686-1.034,11.372-3.1,16.541-4.652L228.776,308h0c.517,0,.517,0,.517.517a8.039,8.039,0,0,1,4.135,3.1c2.585,5.169,5.169,10.338,6.72,16.024v.517l1.034,3.1a18.517,18.517,0,0,0,2.068,5.686c.517.517.517,1.034,1.034,1.551a.506.506,0,0,0,.517.517h0a11.583,11.583,0,0,0,9.821,6.2,12.166,12.166,0,0,0,4.135-1.034,8.65,8.65,0,0,0,4.652-5.686,13.3,13.3,0,0,0-.517-7.754h0a.506.506,0,0,0-.517-.517c0-.517-.517-1.034-1.034-1.551a18.564,18.564,0,0,0-3.618-5.169,9.075,9.075,0,0,0-2.068-2.585v-1.034a61.071,61.071,0,0,1-8.271-14.99,6.116,6.116,0,0,1,.517-5.169.506.506,0,0,1,.517-.517h0l-1.551-4.135c26.362-16.024,46.522-40.836,55.826-70.3l4.135.517h0a.506.506,0,0,0,.517-.517,5.87,5.87,0,0,1,4.135-1.551H312a86.9,86.9,0,0,1,16.541,4.652h.517a7.347,7.347,0,0,0,3.1,1.034,27.7,27.7,0,0,0,5.686,2.585c.517,0,1.034.517,2.068.517.517,0,.517,0,1.034.517h0a4.66,4.66,0,0,0,2.585.517,11.243,11.243,0,0,0,10.338-7.237,12.187,12.187,0,0,0-9.3-10.855ZM195.177,198.936l-13.957,6.72-13.957-6.72-3.618-14.99,9.821-12.406h15.507l9.821,12.406Zm84.257-33.6A98.96,98.96,0,0,1,281.5,197.9l-49.107-13.957h0a8.454,8.454,0,0,1-6.2-10.338,8.331,8.331,0,0,1,2.068-3.618l38.768-35.15a105.163,105.163,0,0,1,12.406,30.5ZM251.52,115.713l-42.387,29.981c-3.618,2.068-8.788,1.551-11.372-2.068a4.693,4.693,0,0,1-1.551-3.618l-3.1-52.208a97.279,97.279,0,0,1,58.411,27.913h0ZM157.959,89.35,168.3,87.283l-2.585,51.691h0c0,4.652-4.135,8.271-8.788,8.271a12.166,12.166,0,0,1-4.135-1.034l-42.9-30.5A102.648,102.648,0,0,1,157.959,89.35ZM94.9,134.839l38.251,34.116h0a8.308,8.308,0,0,1,1.034,11.889c-1.034,1.551-2.068,2.068-4.135,2.585L79.906,197.9A108.81,108.81,0,0,1,94.9,134.839ZM86.108,222.2l51.174-8.788c4.135,0,8.271,2.585,8.788,6.72a6.117,6.117,0,0,1-.517,5.169h0l-19.643,47.556a101.686,101.686,0,0,1-39.8-50.657Zm117.339,64.1a104.6,104.6,0,0,1-22.227,2.585,115.855,115.855,0,0,1-32.565-5.169L173.983,237.7a8.017,8.017,0,0,1,10.338-2.068,25.889,25.889,0,0,1,4.135,3.618h0l24.812,44.971A83.987,83.987,0,0,0,203.447,286.294Zm63.063-44.971A98.7,98.7,0,0,1,235.5,272.337l-20.16-48.59a8.4,8.4,0,0,1,4.652-9.821,15.094,15.094,0,0,1,4.652-1.034l51.691,8.788A77.617,77.617,0,0,1,266.511,241.323Z" transform="translate(43.623 44.53)" fill="#fff"/>
    </g>
  </g>
</svg>
