<svg xmlns="http://www.w3.org/2000/svg" width="347.315" height="266.18" viewBox="0 0 347.315 266.18"><path fill="#15465c" fill-rule="evenodd" d="m173.66 145.46 138.86 35.01L175.72 253 34.8 180.48Z"/><path fill="#1c5e80" fill-rule="evenodd" d="m174.07 97.26 92.58 23.87-90.92 61-95-60.98Z"/><path fill="#1b739d" fill-rule="evenodd" d="m312.51 180.48 34.8 44.8-173.65 40.9L0 225.28l34.8-44.8 138.86 32.71Z"/><path fill="#5ab4e0" fill-rule="evenodd" d="m266.6 121.16 33.75 43.4-126.7 31.58-126.68-31.57 33.74-43.41 92.95 21.47Z"/><path fill="#9aea9a" fill-rule="evenodd" d="m219.66 60.67 34.54 44.5-80.54 20.1-80.55-20.1 34.54-44.5C142.77 40.46 172.95.04 172.95.02S197 31.1 219.66 60.67"/><path fill="#7fc77f" fill-rule="evenodd" d="M172.95 0c.02.02 65.21 84.53 81.25 105.16l-80.63 20.12c.04-19.35-.6-125.29-.62-125.28"/><path fill="#1b739d" fill-rule="evenodd" d="m266.64 121.15 33.7 43.42-126.9 31.57.18-53.51Z"/><path fill="#145576" fill-rule="evenodd" d="m312.53 180.48 34.79 44.79-173.87 40.9.23-52.97Z"/><path fill="#fafdfd" d="M94.1 148.87a4 4 0 0 1-1.64-.85 3 3 0 0 1-.93-1.47 3.4 3.4 0 0 1-.03-1.8 3.3 3.3 0 0 1 .86-1.57 3.3 3.3 0 0 1 1.52-.87 4 4 0 0 1 1.85 0 4 4 0 0 1 1.36.63 3 3 0 0 1 .9 1.06l-.95.53a2.3 2.3 0 0 0-1.51-1.16 2.5 2.5 0 0 0-1.25 0 2 2 0 0 0-1 .6 2.4 2.4 0 0 0-.58 1.08 2.4 2.4 0 0 0 0 1.23 2 2 0 0 0 .62 1 2.5 2.5 0 0 0 1.1.58 2.3 2.3 0 0 0 1.9-.35l.58.92a3 3 0 0 1-1.3.52 4 4 0 0 1-1.5-.08m6.48 1.6a4 4 0 0 1-1.65-.86 3 3 0 0 1-.94-1.47 3.3 3.3 0 0 1-.03-1.8 3.3 3.3 0 0 1 .86-1.57 3 3 0 0 1 1.52-.87 4 4 0 0 1 3.52.87 3 3 0 0 1 .94 1.47 3.3 3.3 0 0 1 .03 1.8 3.3 3.3 0 0 1-.86 1.57 3 3 0 0 1-1.52.87 4 4 0 0 1-1.87 0m.26-1.04a2.4 2.4 0 0 0 1.22 0 2 2 0 0 0 1-.61 2.4 2.4 0 0 0 .57-1.08 2.4 2.4 0 0 0 0-1.23 2 2 0 0 0-.6-1 2.5 2.5 0 0 0-2.3-.56 2 2 0 0 0-1 .6 2.4 2.4 0 0 0-.58 1.08 2.4 2.4 0 0 0 0 1.23 2 2 0 0 0 .61 1 2.4 2.4 0 0 0 1.08.57m10.29 3.54 1.03-4.23-2.96 2.98-.53-.13-1.25-3.96-1.02 4.18-1.13-.28 1.57-6.38.97.23 1.5 4.86 3.53-3.62.97.24-1.56 6.39Zm7-5.04a4 4 0 0 1 1.38.63 2 2 0 0 1 .76 1.01 2.3 2.3 0 0 1 .02 1.3 2.3 2.3 0 0 1-.62 1.12 2 2 0 0 1-1.14.56 4 4 0 0 1-1.51-.08l-1.44-.36-.46 1.85-1.18-.3 1.57-6.38Zm-.92 3.52a2 2 0 0 0 1.26-.04 1.2 1.2 0 0 0 .63-.84 1.2 1.2 0 0 0-.17-1.03 2 2 0 0 0-1.1-.62l-1.38-.34-.63 2.53Zm4.8-2.57 1.18.3-1.33 5.37 3.34.82-.25 1-4.52-1.11Zm5.42 1.33 1.18.3-1.57 6.38-1.18-.3Zm5.8 6.64-3.19-.79-1 1.32-1.21-.3 4.44-5.67 1.17.28 1.3 7.1-1.23-.31Zm-.16-1.03-.52-3.09-1.88 2.5Zm9.7-1.83-1.58 6.38-.97-.24-2.46-5.19-1.06 4.33-1.18-.3 1.57-6.38.97.24 2.47 5.2 1.06-4.33Zm2.72 1.74-2.11-.52.24-1 5.42 1.33-.25 1-2.11-.52-1.33 5.38-1.18-.3Zm-57.55.3-1.26.8-.4 1.62-1.2-.29 1.58-6.38 1.18.3-.8 3.26 3.96-2.5 1.33.34-3.38 2.19 1.97 4.23-1.38-.34Zm6.39 4.5a3 3 0 0 1-1.88-1.25 3 3 0 0 1-.21-2.3l.88-3.6 1.19.28-.88 3.56q-.46 1.88 1.16 2.28t2.08-1.48l.88-3.56 1.16.29-.89 3.6a3 3 0 0 1-1.25 1.95 2.8 2.8 0 0 1-2.24.23m9.77-1.2a1.7 1.7 0 0 1 .7.78 1.7 1.7 0 0 1 .06 1.09 1.5 1.5 0 0 1-.95 1.12 3.3 3.3 0 0 1-1.97 0l-3.18-.79 1.58-6.38 2.99.73a3 3 0 0 1 1.63.87 1.5 1.5 0 0 1 .31 1.37 2 2 0 0 1-.43.79 1.5 1.5 0 0 1-.74.41Zm-2.8-2.96-.44 1.76 1.67.41a2 2 0 0 0 1.01.01.8.8 0 0 0 .5-.57.8.8 0 0 0-.17-.74 2 2 0 0 0-.9-.46Zm.8 4.99q1.37.34 1.6-.58t-1.15-1.26l-1.92-.47-.45 1.84Zm8.6 2.05-.25 1-4.78-1.18 1.57-6.38 4.67 1.15-.25.99-3.48-.86-.4 1.66 3.07.76-.24.97-3.08-.76-.43 1.76Zm5.22 2.34-.85-2.2-.24-.04-1.44-.36-.46 1.86-1.19-.29 1.57-6.38 2.62.65a4 4 0 0 1 1.38.63 2 2 0 0 1 .75 1.01 2.3 2.3 0 0 1 .03 1.3 2.2 2.2 0 0 1-.65 1.15 2 2 0 0 1-1.2.53l.95 2.46Zm.98-4.11a1.2 1.2 0 0 0-.17-1.04 2 2 0 0 0-1.1-.62l-1.38-.34-.62 2.54 1.38.34a2 2 0 0 0 1.26-.04 1.2 1.2 0 0 0 .63-.84m8.72-.27-1.57 6.39-.98-.24-2.45-5.2-1.06 4.33-1.19-.3 1.57-6.38.97.24 2.46 5.2 1.06-4.33Zm5.14 6.98-.25 1-4.79-1.18 1.57-6.39 4.66 1.15-.24 1-3.48-.86-.4 1.66 3.08.76-.24.97-3.09-.76-.43 1.76Zm3.66-3.75-2.12-.52.24-1 5.42 1.33-.25 1-2.11-.52-1.33 5.38-1.18-.3Zm7.86 6.6-.24.98-4.8-1.17 1.58-6.39 4.66 1.15-.25 1-3.47-.86-.4 1.66 3.07.76-.24.97-3.08-.76-.43 1.76Zm3 1.88a5 5 0 0 1-1.37-.56 3 3 0 0 1-.96-.83l.64-.81a3 3 0 0 0 .84.74 4 4 0 0 0 1.1.47 2 2 0 0 0 1.11.04.7.7 0 0 0 .5-.52.6.6 0 0 0-.08-.5 1.4 1.4 0 0 0-.43-.4q-.28-.17-.77-.43a10 10 0 0 1-1.1-.64 2 2 0 0 1-.63-.73 1.5 1.5 0 0 1-.08-1.08 2 2 0 0 1 .53-.89 2 2 0 0 1 1.03-.47 4 4 0 0 1 1.48.1 5 5 0 0 1 1.11.42 3 3 0 0 1 .87.66l-.6.83a4 4 0 0 0-.78-.6 3 3 0 0 0-.85-.34 2 2 0 0 0-1.1-.02.8.8 0 0 0-.5.55.6.6 0 0 0 .08.5 2 2 0 0 0 .43.39q.28.17.77.43a9 9 0 0 1 1.08.63 2 2 0 0 1 .64.73 1.5 1.5 0 0 1 .08 1.07 1.7 1.7 0 0 1-.53.88 2 2 0 0 1-1.04.47 4 4 0 0 1-1.47-.1Z"/><path fill="#fff" d="M227.66 223.28a4.95 4.95 0 0 0-9.56 2.39 4.95 4.95 0 0 0 2.92 9.45l4.25-1.06a2.77 2.77 0 0 0-1.34-5.36 1.61 1.61 0 1 1 .44-2.95.58.58 0 1 0 .6-.99 2.77 2.77 0 1 0-.76 5.05 1.61 1.61 0 0 1 .78 3.13l-4.25 1.06a3.8 3.8 0 0 1-1.84-7.38.57.57 0 0 0 .42-.7 3.8 3.8 0 1 1 7.38-1.84.6.6 0 0 0 .7.42 3.8 3.8 0 1 1 1.84 7.38.58.58 0 0 0 .28 1.12 4.95 4.95 0 0 0-1.86-9.72m12.32 3.31-.95-.1c-.7-.04-1.39-.12-1.52-.65s.21-.91.84-1.07a2.5 2.5 0 0 1 1.82.29l.35-.95a3 3 0 0 0-2.43-.3 2.04 2.04 0 0 0-1.73 2.42 1.7 1.7 0 0 0 1.41 1.3 5 5 0 0 0 .98.13c.48.04 1.56 0 1.74.72s-.41 1.1-1.01 1.24a2.8 2.8 0 0 1-2.16-.45l-.44.92a3.2 3.2 0 0 0 2.83.53 3 3 0 0 0 1.66-1.02 1.9 1.9 0 0 0 .3-1.65 1.7 1.7 0 0 0-.81-1.08 3 3 0 0 0-.88-.28m4.02-4.25a5 5 0 0 0-2.29 1.27l.62.77a4 4 0 0 1 1.82-1.05 1.47 1.47 0 0 1 2 1.08l.06.27-1.73.5c-1.5.44-2.37 1.34-2.05 2.62a2.1 2.1 0 0 0 2.75 1.46 2.8 2.8 0 0 0 1.83-1.49l.22.82 1.27-.31-.94-3.8a2.8 2.8 0 0 0-1.23-1.93 3 3 0 0 0-2.34-.2m2.77 4.53a2.1 2.1 0 0 1-1.43 1.36 1.22 1.22 0 0 1-1.62-.8c-.16-.61.16-1.17 1.2-1.49l1.5-.47Zm7.72-7.15a3.33 3.33 0 0 0-2.46 4.2 3.26 3.26 0 0 0 4.12 2.6 4 4 0 0 0 2.6-1.74l-.73-.62a3.7 3.7 0 0 1-1.97 1.29 2.07 2.07 0 0 1-2.61-1.55l5.02-1.26-.1-.58a3.07 3.07 0 0 0-3.87-2.34m-1.26 3.3a2 2 0 0 1 1.46-2.35 1.95 1.95 0 0 1 2.34 1.4Zm9.33-2.07-.95-.1c-.7-.04-1.39-.11-1.52-.64s.2-.92.83-1.08a2.5 2.5 0 0 1 1.83.3l.34-.96a3 3 0 0 0-2.43-.3 2.04 2.04 0 0 0-1.73 2.42 1.7 1.7 0 0 0 1.42 1.3 5 5 0 0 0 .97.13c.48.04 1.56 0 1.74.72s-.41 1.1-1.01 1.24a2.8 2.8 0 0 1-2.16-.46l-.44.94a3.2 3.2 0 0 0 2.83.53 3 3 0 0 0 1.66-1.03 1.9 1.9 0 0 0 .3-1.65 1.7 1.7 0 0 0-.82-1.08 3 3 0 0 0-.86-.28m4.85-4.46a2.9 2.9 0 0 0-2.02 1.73h-.03l-.25-1.02-1.26.32 2.24 9 1.32-.34-.88-3.5h.02a2.6 2.6 0 0 0 2.54.61 3.26 3.26 0 0 0 2.31-4.2 3.2 3.2 0 0 0-3.98-2.6m1.14 5.74a2.15 2.15 0 0 1-2.64-1.8 2.15 2.15 0 1 1 4.14-1.02 2.15 2.15 0 0 1-1.5 2.82m7.37-7.73 1.31-.33 1.63 6.52-1.32.33zm5.72-1.56a2.3 2.3 0 0 0-1.7 1.65l-.04.01-.25-1.03-1.31.33 1.62 6.52 1.32-.33-.82-3.28c-.31-1.25-.11-2.39 1.1-2.7 1.17-.29 1.57.49 1.84 1.59l.91 3.64 1.32-.33-.96-3.86c-.4-1.57-1.17-2.67-3.03-2.2m8.55-2.01.27 1.03-.04.01a2.7 2.7 0 0 0-2.57-.58 3.2 3.2 0 0 0-2.32 4.06 3.2 3.2 0 0 0 3.96 2.5 2.7 2.7 0 0 0 1.98-1.74h.03l.06.25a3 3 0 0 1-.04 1.95 2.3 2.3 0 0 1-1.6 1.15 4.3 4.3 0 0 1-2.54-.24l-.39 1.07a5 5 0 0 0 3.16.25 3.6 3.6 0 0 0 2.6-1.98 4.3 4.3 0 0 0 0-2.99l-1.26-5.06Zm-.7 5.87a2.1 2.1 0 0 1-2.62-1.7 2.1 2.1 0 0 1 1.52-2.73 2.1 2.1 0 0 1 2.62 1.7 2.08 2.08 0 0 1-1.51 2.73Zm-41.66 2.16a3 3 0 0 0-.01 1.85l1.79 7.17 1.3-.32-1.36-5.45 1.55-.4-.26-1.05-1.55.39-.18-.73c-.19-.74-.21-1.42.65-1.63a3 3 0 0 1 .57-.07l-.25-1a4 4 0 0 0-.87.14 2 2 0 0 0-1.38 1.1m25.07-2.65h-.03l-.24-1-1.32.33 1.63 6.52 1.32-.33-.82-3.25a3 3 0 0 1 0-1.75 1.4 1.4 0 0 1 .92-.82 2 2 0 0 1 .75-.04l-.32-1.26a2 2 0 0 0-.56.07 1.8 1.8 0 0 0-1.32 1.53"/><ellipse cx="0.883" cy="0.883" fill="#fff" rx="0.883" ry="0.883" transform="rotate(-14 998.592 -1013.87)"/><path fill="#fafdfd" d="m131.28 88.67-.56 2.25-1.18-.3.55-2.23-1.47-4.77 1.26.31 1.1 3.58 2.66-2.64 1.17.3Zm5.4 3.83a4 4 0 0 1-1.65-.86 3 3 0 0 1-.93-1.48 3.3 3.3 0 0 1-.03-1.8 3.3 3.3 0 0 1 .86-1.56 3 3 0 0 1 1.53-.87 4 4 0 0 1 3.51.87 3 3 0 0 1 .94 1.48 3.3 3.3 0 0 1 .03 1.8 3.3 3.3 0 0 1-.87 1.57 3 3 0 0 1-1.52.86 4 4 0 0 1-1.86-.01m.26-1.04a2.4 2.4 0 0 0 1.22 0 2 2 0 0 0 1-.6 2.4 2.4 0 0 0 .58-1.08 2.4 2.4 0 0 0 0-1.23 2 2 0 0 0-.6-1 2.5 2.5 0 0 0-2.3-.57 2 2 0 0 0-1 .6 2.4 2.4 0 0 0-.58 1.08 2.4 2.4 0 0 0 0 1.22 2 2 0 0 0 .6 1 2.4 2.4 0 0 0 1.08.58m7.19 2.9a3 3 0 0 1-1.88-1.26 3 3 0 0 1-.2-2.31l.9-3.6 1.18.3-.89 3.55q-.47 1.87 1.16 2.28t2.08-1.48l.88-3.55 1.17.3-.9 3.59a3 3 0 0 1-1.26 1.94 2.8 2.8 0 0 1-2.24.24m8.65 2.06-.84-2.2-.25-.05-1.44-.36-.46 1.86-1.19-.3 1.6-6.37 2.61.65a4 4 0 0 1 1.38.64 2 2 0 0 1 .75 1.01 2.3 2.3 0 0 1 .02 1.3 2.2 2.2 0 0 1-.66 1.15 2 2 0 0 1-1.2.52l.95 2.46Zm1-4.12a1.2 1.2 0 0 0-.17-1.04 2 2 0 0 0-1.1-.62l-1.38-.34-.63 2.54 1.38.34a2 2 0 0 0 1.26-.04 1.2 1.2 0 0 0 .63-.84m-32.01 8.1a5 5 0 0 1-1.38-.57 3 3 0 0 1-.95-.83l.64-.82a3 3 0 0 0 .84.75 4 4 0 0 0 1.1.48 2 2 0 0 0 1.1.03.7.7 0 0 0 .51-.51.6.6 0 0 0-.08-.5 1.4 1.4 0 0 0-.43-.4q-.28-.18-.76-.44a10 10 0 0 1-1.1-.64 2 2 0 0 1-.64-.73 1.5 1.5 0 0 1-.07-1.08 2 2 0 0 1 .53-.89 2 2 0 0 1 1.04-.47 4 4 0 0 1 1.48.1 5 5 0 0 1 1.1.43 3 3 0 0 1 .87.66l-.6.83a4 4 0 0 0-.78-.6 3 3 0 0 0-.85-.34 2 2 0 0 0-1.1-.02.8.8 0 0 0-.5.54.6.6 0 0 0 .08.5 2 2 0 0 0 .43.4l.76.42a9 9 0 0 1 1.08.64 2 2 0 0 1 .64.73 1.5 1.5 0 0 1 .08 1.07 1.7 1.7 0 0 1-.53.88 2 2 0 0 1-1.04.46 4 4 0 0 1-1.47-.09m8.81 1.04-.24 1-4.79-1.2 1.6-6.38 4.65 1.16-.25 1-3.47-.87-.42 1.66 3.08.77-.24.97-3.08-.77-.44 1.76Zm5.26 2.36-.84-2.19-.25-.05-1.44-.36-.46 1.86-1.19-.3 1.6-6.37 2.61.65a4 4 0 0 1 1.38.63 2 2 0 0 1 .75 1.02 2.3 2.3 0 0 1 .03 1.3 2.2 2.2 0 0 1-.66 1.15 2 2 0 0 1-1.2.52l.94 2.46Zm1-4.11a1.2 1.2 0 0 0-.17-1.04 2 2 0 0 0-1.1-.62l-1.38-.34-.64 2.54 1.39.34a2 2 0 0 0 1.26-.04 1.2 1.2 0 0 0 .63-.84m8.91-.19-4.37 5.69-1.16-.3-1.2-7.07 1.28.32.9 5.45 3.37-4.38Zm.68.17 1.19.3-1.6 6.38-1.18-.3Zm4.26 7.93a4 4 0 0 1-1.64-.86 3 3 0 0 1-.93-1.47 3.5 3.5 0 0 1 .84-3.37 3.3 3.3 0 0 1 1.52-.87 4 4 0 0 1 1.86.01 4 4 0 0 1 1.36.63 3 3 0 0 1 .9 1.07l-.95.53a2.3 2.3 0 0 0-1.52-1.17 2.5 2.5 0 0 0-1.25 0 2 2 0 0 0-1 .59 2.5 2.5 0 0 0-.58 2.31 2 2 0 0 0 .61 1 2.5 2.5 0 0 0 1.1.59 2.3 2.3 0 0 0 1.9-.34l.58.92a3 3 0 0 1-1.3.52 4 4 0 0 1-1.5-.09m8.73 1.03-.24 1-4.79-1.2 1.6-6.38 4.65 1.16-.25 1-3.47-.87-.41 1.66 3.07.77-.24.97-3.08-.77-.43 1.76Zm36.36-12.92.56 2.24-1.18.3-.55-2.24-3.54-3.52 1.26-.31 2.65 2.64 1.1-3.58 1.17-.29Zm6.57.84a4 4 0 0 1-1.86.01 3 3 0 0 1-1.52-.86 3.3 3.3 0 0 1-.87-1.57 3.3 3.3 0 0 1 .03-1.8 3 3 0 0 1 .94-1.48 4 4 0 0 1 1.65-.86 4 4 0 0 1 1.86-.01 3 3 0 0 1 1.52.86 3.3 3.3 0 0 1 .87 1.57 3.3 3.3 0 0 1-.03 1.8 3 3 0 0 1-.93 1.48 4 4 0 0 1-1.66.86m-.25-1.04a2.4 2.4 0 0 0 1.07-.58 2 2 0 0 0 .6-1 2.4 2.4 0 0 0 0-1.22 2.4 2.4 0 0 0-.57-1.08 2 2 0 0 0-1-.6 2.5 2.5 0 0 0-2.3.57 2 2 0 0 0-.6 1 2.4 2.4 0 0 0 0 1.22 2.4 2.4 0 0 0 .57 1.08 2 2 0 0 0 1 .6 2.4 2.4 0 0 0 1.23.01m7.7-.82a3 3 0 0 1-2.25-.23 3 3 0 0 1-1.27-1.94l-.9-3.6 1.2-.3.88 3.56q.47 1.88 2.09 1.47t1.14-2.28l-.88-3.55 1.16-.29.9 3.6a3 3 0 0 1-.2 2.3 2.8 2.8 0 0 1-1.87 1.26m8.6-2.24-1.77-1.54-.24.07-1.44.36.46 1.86-1.18.3-1.6-6.39 2.63-.65a4 4 0 0 1 1.51-.08 2 2 0 0 1 1.14.54 2.3 2.3 0 0 1 .63 1.13 2.2 2.2 0 0 1-.04 1.33 2 2 0 0 1-.82 1.03l2 1.73Zm-1.05-4.1a1.2 1.2 0 0 0-.64-.84 2 2 0 0 0-1.26-.03l-1.38.34.64 2.54 1.38-.34a2 2 0 0 0 1.1-.63 1.2 1.2 0 0 0 .16-1.04m-21 15.5-2.11.53-.25-1 5.41-1.35.25 1-2.11.53 1.34 5.37-1.19.3Zm10.08 2.14.24 1-4.78 1.19-1.59-6.38 4.66-1.16.25 1-3.48.86.42 1.66 3.07-.77.25.97-3.08.77.44 1.76Zm5.34-1.84-3.19.8-.26 1.62-1.22.3 1.28-7.08 1.16-.3 4.47 5.67-1.23.3Zm-.62-.84-1.9-2.49-.5 3.1Zm9.55.18-1.07-4.23-1.22 4.02-.53.14-2.95-2.93 1.04 4.18-1.13.28-1.6-6.38.98-.24 3.58 3.6 1.44-4.85.97-.24 1.6 6.37ZM51.07 209.02l1.2.28-1.49 6.4-1.19-.28Zm8.62 1.99-1.48 6.4-.97-.22-2.54-5.15-1 4.33-1.18-.27 1.48-6.4.97.22 2.53 5.15 1-4.33Zm2.69 1.67-.45 1.95 3.09.71-.23 1.01-3.1-.71-.56 2.45-1.19-.28 1.48-6.4 4.68 1.08-.23 1Zm7.59 7.45-.88-2.18-.25-.05-1.44-.33-.43 1.86-1.2-.27 1.49-6.4 2.63.6a4 4 0 0 1 1.39.61 2 2 0 0 1 .76 1 2.3 2.3 0 0 1 .05 1.3 2.2 2.2 0 0 1-.64 1.17 2 2 0 0 1-1.19.54l.99 2.45Zm.92-4.13a1.2 1.2 0 0 0-.18-1.04 2 2 0 0 0-1.1-.6l-1.4-.32-.59 2.55 1.4.32a2 2 0 0 0 1.25-.06 1.2 1.2 0 0 0 .62-.85m6.08 4.18-3.2-.74-.98 1.34-1.22-.28 4.36-5.74 1.17.27 1.41 7.07-1.24-.29Zm-.18-1.02-.56-3.08-1.85 2.52Zm4.51 3.68a5 5 0 0 1-1.38-.54 3 3 0 0 1-.97-.81l.63-.83a3 3 0 0 0 .85.73 4 4 0 0 0 1.1.46 2 2 0 0 0 1.12.02.7.7 0 0 0 .49-.53.6.6 0 0 0-.1-.5 1.4 1.4 0 0 0-.43-.39l-.77-.42a10 10 0 0 1-1.1-.62 2 2 0 0 1-.66-.72 1.5 1.5 0 0 1-.1-1.08 2 2 0 0 1 .52-.9 2 2 0 0 1 1.03-.48 4 4 0 0 1 1.48.07 5 5 0 0 1 1.12.41 3 3 0 0 1 .88.65l-.6.83a4 4 0 0 0-.78-.57 3 3 0 0 0-.86-.34 2 2 0 0 0-1.1 0 .8.8 0 0 0-.5.55.6.6 0 0 0 .1.5 2 2 0 0 0 .44.38q.28.17.77.42a9 9 0 0 1 1.09.62 2 2 0 0 1 .65.72 1.5 1.5 0 0 1 .1 1.06 1.7 1.7 0 0 1-.52.9 2 2 0 0 1-1.03.48 4 4 0 0 1-1.47-.07m6.25-4.34-2.12-.49.23-1 5.44 1.25-.24 1-2.12-.48-1.24 5.4-1.2-.28Zm7.16 7.34-.87-2.18-.25-.05-1.45-.33-.43 1.87-1.2-.28 1.49-6.4 2.63.6a4 4 0 0 1 1.4.62 2 2 0 0 1 .76 1 2.3 2.3 0 0 1 .05 1.3 2.2 2.2 0 0 1-.64 1.16 2 2 0 0 1-1.19.55l.99 2.44Zm.92-4.13a1.2 1.2 0 0 0-.18-1.04 2 2 0 0 0-1.1-.6l-1.4-.32-.58 2.55 1.39.32a2 2 0 0 0 1.26-.06 1.2 1.2 0 0 0 .62-.85Zm4.32 5.44a3 3 0 0 1-1.9-1.23 3 3 0 0 1-.24-2.3l.83-3.62 1.2.28-.83 3.56q-.44 1.89 1.2 2.26t2.05-1.5l.82-3.57 1.17.27-.84 3.6a3 3 0 0 1-1.23 1.97 2.8 2.8 0 0 1-2.23.28m7.44 1.71a4 4 0 0 1-1.66-.83 3 3 0 0 1-.95-1.46 3.4 3.4 0 0 1-.06-1.8 3.3 3.3 0 0 1 .84-1.58 3.3 3.3 0 0 1 1.5-.89 4 4 0 0 1 1.86-.02 4 4 0 0 1 1.37.6 3 3 0 0 1 .92 1.05l-.94.55a2.3 2.3 0 0 0-1.54-1.15 2.5 2.5 0 0 0-1.25.02 2 2 0 0 0-1 .62 2.4 2.4 0 0 0-.56 1.09 2.4 2.4 0 0 0 .03 1.23 2 2 0 0 0 .63.99 2.5 2.5 0 0 0 1.11.56 2.3 2.3 0 0 0 1.89-.36l.6.9a3 3 0 0 1-1.29.55 4 4 0 0 1-1.5-.07m6.18-4.35-2.12-.49.24-1 5.43 1.25-.23 1-2.12-.48-1.25 5.4-1.19-.28Zm5.6 7.07a3 3 0 0 1-1.9-1.22 3 3 0 0 1-.25-2.3l.84-3.62 1.19.27-.83 3.57q-.43 1.89 1.2 2.26t2.05-1.51l.82-3.57 1.17.27-.83 3.61a3 3 0 0 1-1.23 1.97 2.8 2.8 0 0 1-2.24.27m8.68 1.91-.88-2.18-.25-.05-1.44-.33-.43 1.87-1.2-.28 1.48-6.4 2.63.6a4 4 0 0 1 1.4.62 2 2 0 0 1 .76 1 2.3 2.3 0 0 1 .05 1.3 2.2 2.2 0 0 1-.64 1.16 2 2 0 0 1-1.2.54l1 2.45Zm.92-4.13a1.2 1.2 0 0 0-.18-1.04 2 2 0 0 0-1.1-.6l-1.4-.32-.59 2.55 1.4.32a2 2 0 0 0 1.25-.06 1.2 1.2 0 0 0 .62-.85m6.62 4.82-.24 1-4.8-1.11 1.48-6.4 4.68 1.07-.23 1-3.5-.8-.38 1.66 3.1.71-.23.98-3.1-.71-.4 1.76Z"/><path fill="#fff" d="M215.16 152.97a6 6 0 0 0-1.01.17c-2.77.75-5.27 3.55-5.83 8.54q.13-.38.28-.74a5.9 5.9 0 0 1 3.78-3.58 5 5 0 0 1 .76-.13 4.2 4.2 0 0 1 3.92 1.44 4.3 4.3 0 0 1 .19 4.32 6 6 0 0 1-1.08 1.65 12 12 0 0 0 4.14-4.51c1.9-4.63-.88-7.53-5.15-7.16"/><path fill="#fff" d="M216.68 162.76c1.32-3.2-.55-5.18-3.47-4.9a4 4 0 0 0-.66.12c-1.78.48-3.44 2.23-3.97 5.3l.07-.14a4.5 4.5 0 0 1 2.81-2.63l.44-.09a2.9 2.9 0 0 1 2.8.96 3.1 3.1 0 0 1 .1 3.27 4 4 0 0 1-.55.93 8 8 0 0 0 2.43-2.81Z"/><path fill="#fff" d="M214.24 164.41c.96-2.26-.27-3.61-2.25-3.36l-.36.07c-1.85.5-3.59 3.03-2.9 7.68 0 0 4.55-2.12 5.5-4.39m10.93-5.6c-.06-.46.22-.74.72-.88.32-.08.63-.04.7.24s.02.44-.28.64l-1.05.7zm.27 2.02-.03-.12 1.27-.86c.86-.57 1.28-1.1 1.02-2.08-.22-.79-.98-1.16-1.99-.89a2.06 2.06 0 0 0-1.74 2.17l.22 1.8.09.43c.22.83.9 1.2 2.06.88l1.61-.43-.13-1.08-1.6.43q-.67.18-.78-.25m4.05-7-1.93.52.13 1.08.73-.2.64 5.09-.85.22.13 1.08 2.89-.77-.13-1.08-.84.23zm14.72-4.09-1.2.32.17 1.35 1.2-.32zm.26 2.1-1.94.53.12 1.07.75-.2.39 3.13-.85.22.13 1.08 2.9-.78-.13-1.07-.86.22zm3.03-.8c-1.15.3-1.94 1.07-1.67 2.07.4 1.48 2.38.75 2.58 1.5.12.43-.3.6-.66.7l-1.53.4.13 1.08 1.57-.42c1.35-.36 1.96-1.25 1.7-2.24-.41-1.52-2.41-.84-2.59-1.48q-.1-.35.65-.56l1.36-.36-.12-1.07-1.4.38Zm-10.56 2.82c-1.15.31-1.93 1.08-1.66 2.09.4 1.47 2.37.74 2.57 1.5.12.42-.3.59-.66.69l-1.53.4.13 1.09 1.58-.43c1.34-.36 1.95-1.25 1.69-2.24-.4-1.51-2.4-.84-2.58-1.48q-.1-.35.64-.56l1.37-.36-.13-1.07-1.4.38Zm18.8-5.04c-1.15.31-1.94 1.08-1.67 2.08.4 1.48 2.38.75 2.58 1.5.11.43-.3.6-.66.7l-1.53.4.12 1.09 1.58-.43c1.35-.36 1.96-1.25 1.7-2.24-.41-1.51-2.41-.84-2.59-1.48q-.1-.35.65-.56l1.36-.36-.12-1.06-1.41.37Zm-3.13.84-.68 3.63-1.5-3.04-1.26.34 2.36 4.5-.5 2.4 1.21-.32 1.64-7.85zm-18.95 6.98.22 1.77a.8.8 0 0 1-.69.8c-.37.1-.69-.02-.77-.33l-.07-.42-.18-1.6a.8.8 0 0 1 .67-.8c.37-.1.7.02.78.33zm-.1-1.87v.43a1.5 1.5 0 0 0-1.13-.13 1.93 1.93 0 0 0-1.43 2.15l.22 1.86.05.28a1.37 1.37 0 0 0 1.82.98 1.7 1.7 0 0 0 1.02-.72l.1.43 1.07-.3-.64-5.27Zm7.73 1.97-.05-.32-.31-2.53.95-.25-.12-1.07-.95.25-.15-1.15-1.19.32.15 1.15-.93.25.12 1.07.93-.25.33 2.65.07.44c.2.73.72.96 1.76.68l.81-.22-.14-1.07-.62.16c-.47.13-.6.08-.66-.11"/></svg>