<svg xmlns="http://www.w3.org/2000/svg" xmlns:xlink="http://www.w3.org/1999/xlink" viewBox="0 0 642.33 487.44"><defs><style>.cls-1{fill:none;}.cls-2{fill:#114055;}.cls-2,.cls-3,.cls-4,.cls-5,.cls-6,.cls-7,.cls-8{fill-rule:evenodd;}.cls-3{fill:#0a5072;}.cls-4{fill:#00628d;}.cls-5{fill:#3fa7dc;}.cls-6{fill:#b3f5ca;}.cls-7{fill:#8cdba8;}.cls-8{fill:#064564;}.cls-9{isolation:isolate;}.cls-10{fill:#0f7934;}.cls-11{fill:#fafdfe;}.cls-12{fill:#fff;}.cls-13{clip-path:url(#clip-path);}.cls-14{clip-path:url(#clip-path-2);}</style><clipPath id="clip-path"><rect class="cls-1" x="360.72" y="253.62" width="124.22" height="62.11" transform="translate(-46.98 86.93) rotate(-11.12)"/></clipPath><clipPath id="clip-path-2"><rect class="cls-1" x="365.89" y="266.07" width="113.87" height="37.21" transform="translate(-46.98 86.93) rotate(-11.12)"/></clipPath></defs><g id="Lager_2" data-name="Lager 2"><g id="Lager_1-2" data-name="Lager 1"><g id="Pyramid"><g id="Path_424" data-name="Path 424"><path class="cls-2" d="M321.16,263.73l256.77,64.18L325,462,64.4,327.91Z"/></g><g id="Path_425" data-name="Path 425"><path class="cls-3" d="M320.69,175.6,491.5,218.18,323.74,329.83,149.14,218.76Z"/></g><g id="Path_427" data-name="Path 427"><path class="cls-4" d="M578,328.13l64.37,83.26L321.16,487.44,0,411.39l64.37-83.26,256.79,60.81Z"/></g><g id="Path_428" data-name="Path 428"><path class="cls-5" d="M491.91,218l62.29,80.46L320.32,356.94,86.43,298.43,148.72,218l171.6,39.79Z"/></g><g id="Path_429" data-name="Path 429"><path class="cls-6" d="M405.5,107.81l64,81.73-149.14,36.9-149.15-36.9,64-81.73L320.32,0Z"/></g><g id="Path_430" data-name="Path 430"><path class="cls-7" d="M405.49,107.81l64,81.73-149.13,36.9V.83Z"/></g><g id="Path_431" data-name="Path 431"><path class="cls-4" d="M491.91,218l62.28,80.46L320.32,356.94h0V257.76h0Z"/></g><g id="Path_432" data-name="Path 432"><path class="cls-8" d="M577.79,328.13l64.54,83.26-322,76.05v-98.5Z"/></g><g id="ER_TJÄNST" data-name="ER TJÄNST" class="cls-9"><g class="cls-9"><path class="cls-10" d="M216.62,174.59l-.44,1.91-9.2-2.12,2.83-12.28,9,2.07-.44,1.91-6.68-1.54-.74,3.19,5.93,1.37-.43,1.88-5.93-1.37L209.7,173Z"/><path class="cls-10" d="M226.76,179l-1.68-4.18a3.71,3.71,0,0,1-.48-.09l-2.77-.64-.82,3.58-2.28-.53,2.83-12.27,5.05,1.16a7.07,7.07,0,0,1,2.66,1.17,4.15,4.15,0,0,1,1.47,1.93,4.28,4.28,0,0,1,.09,2.47,4.18,4.18,0,0,1-1.23,2.23,4.1,4.1,0,0,1-2.28,1.05l1.89,4.68Zm1.42-9.91a3.62,3.62,0,0,0-2.12-1.15l-2.66-.62-1.13,4.89,2.66.62a3.54,3.54,0,0,0,2.41-.12,2.29,2.29,0,0,0,1.19-1.64A2.24,2.24,0,0,0,228.18,169Z"/></g><g class="cls-9"><path class="cls-10" d="M241.27,171.4l-4.07-.94.44-1.93,10.42,2.4-.44,1.93-4.07-.94-2.39,10.35-2.28-.53Z"/><path class="cls-10" d="M247.85,183.51a4.3,4.3,0,0,1-1.32-1.68l1.65-1.26a3.05,3.05,0,0,0,2.12,2c1.27.3,2.08-.31,2.43-1.82l1.47-6.35-4.37-1,.44-1.91,6.65,1.54L255,181.12a4.58,4.58,0,0,1-1.8,3,4.2,4.2,0,0,1-3.34.36A5.11,5.11,0,0,1,247.85,183.51Z"/></g><g class="cls-9"><path class="cls-10" d="M267.16,185.28,261,183.86l-1.87,2.56-2.35-.54,8.36-11,2.25.52,2.7,13.55-2.38-.55Zm-.34-2-1.08-5.9-3.54,4.83Zm-2.65-10.24a1.05,1.05,0,0,1-.12-.82,1,1,0,0,1,.48-.7,1,1,0,0,1,.82-.13,1.05,1.05,0,0,1,.68.47,1.16,1.16,0,0,1-.35,1.53,1.05,1.05,0,0,1-.82.12A1,1,0,0,1,264.17,173.08Zm3.41.79a1,1,0,0,1-.13-.83,1,1,0,0,1,1.3-.82,1.06,1.06,0,0,1,.69.47,1.1,1.1,0,0,1,.12.84,1.08,1.08,0,0,1-.48.69,1.13,1.13,0,0,1-1.5-.35Z"/><path class="cls-10" d="M285.42,179.56l-2.84,12.27-1.87-.43-4.85-9.88-1.92,8.32-2.27-.52L274.51,177l1.88.43,4.85,9.88,1.92-8.32Z"/><path class="cls-10" d="M287,192.61a5.76,5.76,0,0,1-1.85-1.55l1.19-1.59a6.69,6.69,0,0,0,1.63,1.4,6.94,6.94,0,0,0,2.11.89,3.91,3.91,0,0,0,2.15,0,1.35,1.35,0,0,0,.94-1,1.16,1.16,0,0,0-.18-1,2.43,2.43,0,0,0-.83-.75c-.35-.22-.85-.49-1.48-.81a17.45,17.45,0,0,1-2.11-1.19,3.72,3.72,0,0,1-1.25-1.39,2.83,2.83,0,0,1-.18-2.06,3.35,3.35,0,0,1,1-1.72,3.76,3.76,0,0,1,2-.94,6.83,6.83,0,0,1,2.84.14,8.82,8.82,0,0,1,2.15.79,6.12,6.12,0,0,1,1.69,1.24l-1.13,1.6a7,7,0,0,0-1.52-1.1,6.19,6.19,0,0,0-1.64-.64,3.68,3.68,0,0,0-2.12,0,1.42,1.42,0,0,0-.93,1.06,1.08,1.08,0,0,0,.17.94,2.81,2.81,0,0,0,.84.75c.35.22.85.49,1.48.8a17.31,17.31,0,0,1,2.09,1.18,4,4,0,0,1,1.26,1.39,2.83,2.83,0,0,1,.18,2,3.3,3.3,0,0,1-1,1.71,3.82,3.82,0,0,1-2,.93,7,7,0,0,1-2.85-.14A9.69,9.69,0,0,1,287,192.61Z"/><path class="cls-10" d="M301.62,185.33l-4.07-.94.44-1.93,10.42,2.41-.44,1.92-4.07-.93-2.39,10.34-2.28-.52Z"/></g></g><g id="COMPLIANT_KUBERNETES" data-name="COMPLIANT KUBERNETES" class="cls-9"><g class="cls-9"><path class="cls-11" d="M163.46,270.8a6.15,6.15,0,0,1-1.79-2.82,6.79,6.79,0,0,1,1.6-6.47,6.16,6.16,0,0,1,2.9-1.66,7.56,7.56,0,0,1,6.16,1.21,5.71,5.71,0,0,1,1.73,2l-1.81,1a4.38,4.38,0,0,0-2.92-2.23,4.72,4.72,0,0,0-2.39,0A4.07,4.07,0,0,0,165,263a4.85,4.85,0,0,0-1.09,4.44,4,4,0,0,0,1.18,1.91,4.63,4.63,0,0,0,2.12,1.1,4.36,4.36,0,0,0,3.62-.64l1.13,1.76a5.81,5.81,0,0,1-2.48,1,7.51,7.51,0,0,1-2.89-.15A7.12,7.12,0,0,1,163.46,270.8Z"/><path class="cls-11" d="M175.37,273.73a6.25,6.25,0,0,1-1.81-2.83,6.46,6.46,0,0,1-.06-3.44,6.29,6.29,0,0,1,4.57-4.69,7.2,7.2,0,0,1,3.57,0,7.33,7.33,0,0,1,3.17,1.64,6.25,6.25,0,0,1,1.81,2.83,6.75,6.75,0,0,1-1.59,6.47,6.23,6.23,0,0,1-2.92,1.66,7.56,7.56,0,0,1-6.74-1.66Zm6-.36a4.07,4.07,0,0,0,1.92-1.16,4.51,4.51,0,0,0,1.1-2.07,4.56,4.56,0,0,0,0-2.35,4.07,4.07,0,0,0-1.17-1.91,4.52,4.52,0,0,0-2.06-1.1,4.63,4.63,0,0,0-2.34,0,4.24,4.24,0,0,0-1.92,1.16,4.61,4.61,0,0,0-1.1,2.07,4.45,4.45,0,0,0,0,2.35,4.12,4.12,0,0,0,1.15,1.92,4.59,4.59,0,0,0,2.07,1.09A4.52,4.52,0,0,0,181.37,273.37Z"/><path class="cls-11" d="M198.26,280l2-8.11-5.67,5.72-1-.25-2.4-7.59-2,8-2.16-.53L190,265l1.87.46,2.86,9.31,6.77-6.93,1.87.46-3,12.23Z"/><path class="cls-11" d="M213.84,271.46a4.06,4.06,0,0,1,1.44,2,4.33,4.33,0,0,1,.06,2.48,4.41,4.41,0,0,1-1.2,2.16,4.11,4.11,0,0,1-2.18,1.06,6.92,6.92,0,0,1-2.9-.15l-2.76-.68-.87,3.53-2.27-.56,3-12.24,5,1.24A7,7,0,0,1,213.84,271.46Zm-2,5.47a2.56,2.56,0,0,0,.88-3.6,3.54,3.54,0,0,0-2.09-1.18L208,271.5l-1.2,4.85,2.66.66A3.58,3.58,0,0,0,211.84,276.93Z"/><path class="cls-11" d="M218.12,272l2.28.56-2.54,10.31,6.4,1.57-.48,1.92-8.67-2.13Z"/><path class="cls-11" d="M228,274.4l2.28.56-3,12.23-2.28-.56Z"/><path class="cls-11" d="M238.67,287l-6.12-1.51-1.9,2.54-2.34-.58,8.52-10.88,2.23.55,2.51,13.59-2.37-.58Zm-.31-2-1-5.92-3.61,4.79Z"/><path class="cls-11" d="M256.45,281.39l-3,12.24-1.87-.46-4.71-9.95-2,8.28-2.26-.55,3-12.23,1.87.46,4.71,9.94,2-8.28Z"/><path class="cls-11" d="M261.19,284.59l-4.06-1,.48-1.92L268,284.23l-.47,1.92-4.06-1-2.54,10.32-2.27-.56Z"/></g><g class="cls-9"><path class="cls-11" d="M157.56,285.19l-2.43,1.52-.77,3.12-2.27-.56,3-12.23,2.27.56-1.54,6.28,7.59-4.79,2.55.63-6.48,4.2,3.78,8.11-2.65-.66Z"/><path class="cls-11" d="M165.71,291.3a5.73,5.73,0,0,1-.41-4.43L167,280l2.27.56-1.67,6.82c-.6,2.4.15,3.85,2.22,4.36s3.39-.44,4-2.84l1.68-6.81,2.24.55-1.7,6.9a5.77,5.77,0,0,1-2.41,3.74,6.37,6.37,0,0,1-7.9-1.95Z"/><path class="cls-11" d="M188.9,292.76a3.24,3.24,0,0,1,.11,2.08,2.93,2.93,0,0,1-1.82,2.16,6.35,6.35,0,0,1-3.78,0l-6.08-1.49,3-12.24,5.73,1.41a5.89,5.89,0,0,1,3.13,1.67,2.83,2.83,0,0,1,.6,2.62,3.13,3.13,0,0,1-.82,1.51,3,3,0,0,1-1.42.8A3.38,3.38,0,0,1,188.9,292.76Zm-2.12,1.29c.29-1.18-.44-2-2.2-2.41l-3.67-.91-.87,3.53,3.67.91C185.47,295.6,186.49,295.23,186.78,294.05Zm-4.61-8.46-.83,3.38,3.22.79a3.41,3.41,0,0,0,1.93,0,1.44,1.44,0,0,0,.94-1.09,1.48,1.48,0,0,0-.32-1.43,3.35,3.35,0,0,0-1.72-.87Z"/><path class="cls-11" d="M199.71,299l-.47,1.9-9.17-2.26,3-12.23,8.93,2.2-.47,1.9-6.66-1.64L194.1,292l5.91,1.46-.46,1.87-5.91-1.46-.83,3.38Z"/><path class="cls-11" d="M209.22,303.34l-1.61-4.2a4.16,4.16,0,0,1-.48-.1l-2.76-.68-.88,3.57-2.27-.56,3-12.24,5,1.24a7,7,0,0,1,2.64,1.21,4.06,4.06,0,0,1,1.44,1.95,4.69,4.69,0,0,1-1.2,4.69,4.15,4.15,0,0,1-2.29,1l1.82,4.71Zm1.56-9.89a3.58,3.58,0,0,0-2.09-1.18l-2.66-.65-1.2,4.87,2.65.66a3.6,3.6,0,0,0,2.42-.09,2.3,2.3,0,0,0,1.21-1.62A2.27,2.27,0,0,0,210.78,293.45Z"/><path class="cls-11" d="M227.32,294.82l-3,12.23-1.87-.46-4.71-9.94-2,8.28-2.25-.55,3-12.24,1.87.46,4.7,9.95,2-8.29Z"/><path class="cls-11" d="M236.68,308.08l-.47,1.9L227,307.72l3-12.23,8.94,2.2-.47,1.9L231.85,298l-.79,3.18,5.91,1.46-.46,1.87L230.6,303l-.83,3.38Z"/><path class="cls-11" d="M243.2,300.77l-4-1,.47-1.93L250,300.4l-.47,1.92-4.05-1-2.54,10.32-2.27-.56Z"/><path class="cls-11" d="M257.79,313.27l-.47,1.91-9.17-2.26,3-12.24,8.93,2.2-.47,1.91L253,303.15l-.78,3.18,5.91,1.45-.46,1.87-5.91-1.45-.83,3.37Z"/><path class="cls-11" d="M260.41,315.7a6.22,6.22,0,0,1-1.83-1.58l1.23-1.58a6.25,6.25,0,0,0,1.6,1.43,6.94,6.94,0,0,0,2.1.91,3.85,3.85,0,0,0,2.14.07,1.37,1.37,0,0,0,1-1,1.16,1.16,0,0,0-.16-1,2.74,2.74,0,0,0-.82-.76c-.36-.23-.84-.5-1.47-.83a19.85,19.85,0,0,1-2.1-1.22,3.82,3.82,0,0,1-1.23-1.41,3,3,0,0,1-.15-2.06,3.32,3.32,0,0,1,1-1.71,3.8,3.8,0,0,1,2-.91,6.73,6.73,0,0,1,2.84.18,8.86,8.86,0,0,1,2.13.82,6.37,6.37,0,0,1,1.68,1.26L269.17,308a7.53,7.53,0,0,0-1.51-1.13,6.8,6.8,0,0,0-1.63-.66,3.69,3.69,0,0,0-2.11,0,1.47,1.47,0,0,0-1,1.05,1.14,1.14,0,0,0,.17.95,2.88,2.88,0,0,0,.82.76c.35.22.84.49,1.47.82a14.8,14.8,0,0,1,2.07,1.21,4,4,0,0,1,1.24,1.4,2.84,2.84,0,0,1,.16,2,3.31,3.31,0,0,1-1,1.7,3.86,3.86,0,0,1-2,.9,6.73,6.73,0,0,1-2.84-.18A9.57,9.57,0,0,1,260.41,315.7Z"/></g></g><g id="SVENSK_INFRASTRUKTUR" data-name="SVENSK INFRASTRUKTUR" class="cls-9"><g class="cls-9"><path class="cls-11" d="M63.09,386.4a5.89,5.89,0,0,1-1.85-1.56l1.2-1.59a6.25,6.25,0,0,0,1.62,1.4,7,7,0,0,0,2.12.89,3.87,3.87,0,0,0,2.14,0,1.39,1.39,0,0,0,1-1,1.14,1.14,0,0,0-.18-.95,2.78,2.78,0,0,0-.83-.76c-.36-.22-.85-.49-1.48-.8a21,21,0,0,1-2.12-1.19,3.89,3.89,0,0,1-1.25-1.39,3,3,0,0,1-.18-2.07,3.46,3.46,0,0,1,1-1.72,3.91,3.91,0,0,1,2-.94,7.05,7.05,0,0,1,2.85.14,9.18,9.18,0,0,1,2.14.79,6.38,6.38,0,0,1,1.69,1.24l-1.13,1.61a7.14,7.14,0,0,0-1.52-1.11,6.4,6.4,0,0,0-1.64-.64,3.65,3.65,0,0,0-2.11,0,1.47,1.47,0,0,0-.94,1.06,1.14,1.14,0,0,0,.18.95,2.73,2.73,0,0,0,.83.74c.36.22.85.49,1.48.81a17.42,17.42,0,0,1,2.09,1.17,4.09,4.09,0,0,1,1.26,1.39,2.84,2.84,0,0,1,.19,2,3.35,3.35,0,0,1-1,1.71,3.82,3.82,0,0,1-2,.93,6.88,6.88,0,0,1-2.85-.14A9.67,9.67,0,0,1,63.09,386.4Z"/><path class="cls-11" d="M86.86,379.19l-8.19,11-2.24-.51L73.9,376.2l2.47.57,1.9,10.41,6.31-8.51Z"/><path class="cls-11" d="M94.76,391.93l-.44,1.91-9.21-2.12,2.83-12.28,9,2.07-.45,1.91-6.68-1.54-.73,3.19L95,386.44l-.43,1.88L88.61,387l-.78,3.38Z"/><path class="cls-11" d="M110.39,384.63l-2.83,12.27-1.88-.43-4.85-9.88-1.92,8.32-2.26-.53,2.83-12.27,1.88.43,4.85,9.88,1.92-8.32Z"/><path class="cls-11" d="M111.76,397.63a5.87,5.87,0,0,1-1.85-1.55l1.2-1.59a6.45,6.45,0,0,0,1.62,1.4,7.25,7.25,0,0,0,2.12.89,3.87,3.87,0,0,0,2.14,0,1.39,1.39,0,0,0,1-1,1.16,1.16,0,0,0-.18-1,2.63,2.63,0,0,0-.83-.75c-.36-.22-.85-.49-1.48-.81a18.31,18.31,0,0,1-2.12-1.19,3.81,3.81,0,0,1-1.25-1.39,2.94,2.94,0,0,1-.18-2.06,3.35,3.35,0,0,1,1-1.72,3.83,3.83,0,0,1,2-.94,6.83,6.83,0,0,1,2.84.14,8.68,8.68,0,0,1,2.15.79,6.12,6.12,0,0,1,1.69,1.24l-1.13,1.6a7.14,7.14,0,0,0-1.52-1.11,6.37,6.37,0,0,0-1.64-.63,3.64,3.64,0,0,0-2.11,0,1.44,1.44,0,0,0-.94,1.06,1.11,1.11,0,0,0,.18.94,2.9,2.9,0,0,0,.83.75c.36.22.85.49,1.48.8a17.31,17.31,0,0,1,2.09,1.18,4,4,0,0,1,1.26,1.39,2.83,2.83,0,0,1,.19,2,3.39,3.39,0,0,1-1,1.71,3.9,3.9,0,0,1-2,.93,7.05,7.05,0,0,1-2.85-.14A9.69,9.69,0,0,1,111.76,397.63Z"/><path class="cls-11" d="M126.88,396l-2.41,1.55-.72,3.14-2.28-.53,2.83-12.27,2.28.52-1.45,6.3,7.52-4.9,2.56.6-6.42,4.29,3.9,8.05-2.66-.61Z"/><path class="cls-11" d="M141.51,391.81l2.28.53L141,404.61l-2.28-.52Z"/><path class="cls-11" d="M157.8,395.57,155,407.85l-1.87-.44-4.85-9.87-1.92,8.31-2.26-.52,2.83-12.28,1.88.44,4.85,9.87,1.92-8.31Z"/><path class="cls-11" d="M162.72,398.72l-.86,3.74,5.93,1.37-.45,1.92-5.92-1.36-1.09,4.7-2.28-.53,2.84-12.28,9,2.07-.44,1.91Z"/><path class="cls-11" d="M177.05,412.94l-1.68-4.17a3.71,3.71,0,0,1-.48-.09l-2.77-.64-.83,3.58-2.28-.53,2.84-12.28L176.9,400a7,7,0,0,1,2.66,1.17,4.08,4.08,0,0,1,1.46,1.93,4.36,4.36,0,0,1,.1,2.47,4.32,4.32,0,0,1-1.23,2.23,4.17,4.17,0,0,1-2.28,1.05l1.89,4.68Zm1.41-9.9a3.57,3.57,0,0,0-2.11-1.16l-2.67-.61-1.13,4.89,2.67.62a3.55,3.55,0,0,0,2.41-.12,2.29,2.29,0,0,0,1.19-1.64A2.25,2.25,0,0,0,178.46,403Z"/><path class="cls-11" d="M190.24,413l-6.14-1.42-1.86,2.56-2.35-.54,8.36-11,2.24.52,2.71,13.55-2.39-.55Zm-.34-2-1.08-5.91L185.29,410Z"/><path class="cls-11" d="M195.66,417a6,6,0,0,1-1.85-1.55l1.2-1.59a6.33,6.33,0,0,0,1.63,1.4,6.83,6.83,0,0,0,2.11.89,3.91,3.91,0,0,0,2.15,0,1.37,1.37,0,0,0,.94-1,1.16,1.16,0,0,0-.18-1,2.64,2.64,0,0,0-.83-.75c-.36-.22-.85-.49-1.48-.81a17.69,17.69,0,0,1-2.12-1.19,4,4,0,0,1-1.25-1.38,2.91,2.91,0,0,1-.17-2.07,3.28,3.28,0,0,1,1-1.72,3.76,3.76,0,0,1,2-.94,6.84,6.84,0,0,1,2.84.14,8.6,8.6,0,0,1,2.14.79,6.17,6.17,0,0,1,1.69,1.24l-1.12,1.6a7.25,7.25,0,0,0-1.52-1.1,6.25,6.25,0,0,0-1.65-.64,3.65,3.65,0,0,0-2.11,0,1.45,1.45,0,0,0-.94,1.06,1.11,1.11,0,0,0,.18.94,2.69,2.69,0,0,0,.84.75c.35.22.84.49,1.47.8a17.54,17.54,0,0,1,2.1,1.18,4,4,0,0,1,1.26,1.39,2.88,2.88,0,0,1,.18,2,3.28,3.28,0,0,1-1,1.71,3.74,3.74,0,0,1-2,.93,6.88,6.88,0,0,1-2.85-.14A9.5,9.5,0,0,1,195.66,417Z"/><path class="cls-11" d="M210.07,409.67l-4.07-.94.45-1.93,10.42,2.41-.45,1.93-4.07-.94L210,420.55l-2.28-.53Z"/><path class="cls-11" d="M223.58,423.69l-1.68-4.18a3.71,3.71,0,0,1-.48-.09l-2.77-.64-.83,3.58-2.28-.53,2.84-12.27,5.05,1.16a7.14,7.14,0,0,1,2.66,1.17,4.12,4.12,0,0,1,1.46,1.93,4.4,4.4,0,0,1,.1,2.48,4.33,4.33,0,0,1-1.23,2.22,4,4,0,0,1-2.28,1.05l1.89,4.68Zm1.41-9.91a3.56,3.56,0,0,0-2.11-1.15l-2.67-.62-1.13,4.89,2.67.62a3.54,3.54,0,0,0,2.41-.12,2.29,2.29,0,0,0,1.19-1.64A2.25,2.25,0,0,0,225,413.78Z"/><path class="cls-11" d="M229.76,423.79a5.69,5.69,0,0,1-.48-4.42l1.6-6.93,2.28.53-1.58,6.84q-.83,3.62,2.29,4.33t3.94-2.89l1.58-6.84,2.24.52-1.6,6.92a5.71,5.71,0,0,1-2.35,3.77,6.35,6.35,0,0,1-7.92-1.83Z"/><path class="cls-11" d="M247.19,423.73l-2.41,1.55-.72,3.14-2.28-.53,2.83-12.28,2.28.53-1.45,6.3,7.52-4.9,2.56.59-6.42,4.3,3.9,8.05-2.66-.61Z"/><path class="cls-11" d="M258.45,420.84l-4.07-.94.44-1.93,10.42,2.41-.45,1.92-4.06-.94-2.39,10.35-2.28-.52Z"/><path class="cls-11" d="M265.29,432a5.67,5.67,0,0,1-.47-4.43l1.59-6.92,2.28.52L267.12,428q-.84,3.62,2.28,4.34c2.07.47,3.39-.49,3.94-2.9l1.58-6.84,2.25.52-1.6,6.93a5.77,5.77,0,0,1-2.36,3.77,6.38,6.38,0,0,1-7.92-1.83Z"/><path class="cls-11" d="M285.35,438l-1.68-4.18a3.71,3.71,0,0,1-.48-.09l-2.77-.64-.83,3.58-2.28-.53,2.84-12.27L285.2,425a7.14,7.14,0,0,1,2.66,1.17,4.12,4.12,0,0,1,1.46,1.93,4.68,4.68,0,0,1-1.13,4.71,4.09,4.09,0,0,1-2.28,1l1.89,4.68Zm1.41-9.91a3.56,3.56,0,0,0-2.11-1.15l-2.67-.62-1.13,4.9,2.67.61a3.54,3.54,0,0,0,2.41-.12,2.29,2.29,0,0,0,1.19-1.63A2.26,2.26,0,0,0,286.76,428Z"/></g></g><g id="Group_489" data-name="Group 489"><g id="Path_441" data-name="Path 441"><path class="cls-12" d="M401.65,408.87a13,13,0,0,0-25.07,6A13,13,0,0,0,384,439.74l11.14-2.68A7.24,7.24,0,0,0,391.78,423a4.22,4.22,0,1,1-1.95-8.22,4.17,4.17,0,0,1,3.16.5,1.51,1.51,0,0,0,1.62-2.55l0,0a7.24,7.24,0,1,0-2.09,13.2,4.22,4.22,0,1,1,2,8.21h0l-11.15,2.69a10,10,0,0,1-4.66-19.36,1.51,1.51,0,0,0,1.11-1.81h0a10,10,0,1,1,19.33-4.79.43.43,0,0,1,0,.11v0a1.52,1.52,0,0,0,1.83,1.1,10,10,0,0,1,4.67,19.36h0a1.51,1.51,0,0,0,.65,2.95h.06a13,13,0,0,0-4.67-25.49Z"/></g><g id="Path_442" data-name="Path 442"><path class="cls-12" d="M433.85,417.78c-.79-.12-1.49-.18-2.5-.27-1.82-.13-3.62-.35-4-1.75s.57-2.39,2.22-2.78a6.4,6.4,0,0,1,4.77.8l.93-2.48a7.72,7.72,0,0,0-6.37-.83c-3,.73-5.35,3.12-4.59,6.29a4.56,4.56,0,0,0,3.69,3.45,13,13,0,0,0,2.56.34c1.25.12,4.09,0,4.54,1.92s-1.1,2.86-2.68,3.24a7.26,7.26,0,0,1-5.64-1.23l-1.16,2.41a8.4,8.4,0,0,0,7.39,1.45,7.46,7.46,0,0,0,4.38-2.65,5,5,0,0,0,.83-4.31,4.33,4.33,0,0,0-2.13-2.84A6.6,6.6,0,0,0,433.85,417.78Z"/></g><g id="Path_443" data-name="Path 443"><path class="cls-12" d="M444.43,406.74a13.61,13.61,0,0,0-6,3.27l1.6,2.05a10.82,10.82,0,0,1,4.79-2.71c2.49-.6,4.57.27,5.19,2.86l.16.68-4.52,1.28c-3.93,1.14-6.25,3.49-5.44,6.84s4,4.62,7.18,3.86a7.17,7.17,0,0,0,4.82-3.85l.56,2.15,3.34-.8-2.4-9.95c-.7-2.91-1.73-4.19-3.17-5.1S447.27,406.05,444.43,406.74Zm7.17,11.9a5.53,5.53,0,0,1-3.75,3.53c-2.23.54-3.85-.48-4.24-2.1s.44-3.08,3.18-3.89l3.93-1.21Z"/></g><g id="Path_444" data-name="Path 444"><path class="cls-12" d="M472,400.1a8.72,8.72,0,0,0-6.68,10.37c0,.19.09.38.14.57,1.3,5.4,5.65,8.12,10.73,6.9s6.69-4.28,6.86-4.51l-1.91-1.63a9.76,9.76,0,0,1-5.18,3.34c-3.16.76-5.81-.77-6.81-4.11l13.17-3.17c-.06-.52-.14-1-.25-1.54a8,8,0,0,0-9.39-6.38C472.41,400,472.18,400,472,400.1Zm-3.36,8.62a5.17,5.17,0,0,1,3.86-6.11,5.1,5.1,0,0,1,6.11,3.71Z"/></g><g id="Path_445" data-name="Path 445"><path class="cls-12" d="M493.05,403.51c-.79-.11-1.49-.17-2.5-.27-1.82-.13-3.62-.35-4-1.75s.57-2.39,2.22-2.78a6.44,6.44,0,0,1,4.77.8l.93-2.48a7.72,7.72,0,0,0-6.37-.82c-3,.73-5.35,3.12-4.58,6.28a4.52,4.52,0,0,0,3.68,3.45,13,13,0,0,0,2.56.34c1.24.12,4.08,0,4.53,1.92s-1.1,2.85-2.68,3.23A7.18,7.18,0,0,1,486,410.2l-1.18,2.41a8.41,8.41,0,0,0,7.4,1.46,7.58,7.58,0,0,0,4.39-2.66,5,5,0,0,0,.83-4.31,4.37,4.37,0,0,0-2.14-2.84A6.67,6.67,0,0,0,493.05,403.51Z"/></g><g id="Path_446" data-name="Path 446"><path class="cls-12" d="M505.86,391.93a7.45,7.45,0,0,0-5.33,4.49h-.07l-.65-2.7-3.31.8,5.68,23.6,3.46-.83-2.22-9.2,0,0a6.83,6.83,0,0,0,6.64,1.64c5.07-1.22,7.38-5.89,6.15-11S510.9,390.72,505.86,391.93Zm2.87,15c-3.42.82-6.07-1.32-6.89-4.74s.56-6.5,4-7.32,6.06,1.28,6.88,4.7-.56,6.54-4,7.36Z"/></g><g id="Rectangle_33" data-name="Rectangle 33"><rect class="cls-12" x="530.21" y="386.23" width="3.55" height="17.58" transform="translate(-77.74 135.63) rotate(-13.55)"/></g><g id="Path_447" data-name="Path 447"><path class="cls-12" d="M543.22,382.93a5.93,5.93,0,0,0-4.5,4.28l-.11,0-.61-2.71-3.46.84,4.12,17.11,3.46-.84L540,393c-.79-3.28-.25-6.26,3-7,3-.73,4.07,1.3,4.77,4.19l2.3,9.55,3.46-.84-2.45-10.13C550.11,384.66,548.08,381.76,543.22,382.93Z"/></g><g id="Path_448" data-name="Path 448"><path class="cls-12" d="M565.64,377.87l.68,2.69-.11,0a7,7,0,0,0-6.7-1.58c-4.39,1.05-7.47,5.15-6.16,10.58s5.92,7.67,10.31,6.61a7,7,0,0,0,5.24-4.5H569l.16.67a7.89,7.89,0,0,1-.14,5.1,6,6,0,0,1-4.23,3,11.15,11.15,0,0,1-6.65-.68l-1,2.8a13.56,13.56,0,0,0,8.25.71c4.24-1,5.95-3.26,6.84-5.11s1-4.05.09-7.82l-3.2-13.3Zm-1.94,15.34c-3.49.84-6.05-1.25-6.83-4.49s.53-6.3,4-7.14,6.05,1.29,6.84,4.52-.51,6.28-4,7.13Z"/></g><g id="Path_449" data-name="Path 449"><path class="cls-12" d="M454.54,398c-.5,1.07-.59,2.62-.05,4.85l4.53,18.8,3.42-.83L459,406.54l4.07-1-.67-2.77-4.06,1-.46-1.9c-.47-1.95-.52-3.73,1.75-4.27a6.72,6.72,0,0,1,1.48-.17l-.63-2.6a10.91,10.91,0,0,0-2.27.33A5.36,5.36,0,0,0,454.54,398Z"/></g><g id="Path_450" data-name="Path 450"><path class="cls-12" d="M520.28,391.58l-.11,0-.6-2.64-3.46.84,4.13,17.11,3.45-.84-2.06-8.54a7.94,7.94,0,0,1,0-4.58,3.66,3.66,0,0,1,2.46-2.11,4.64,4.64,0,0,1,2-.1l-.8-3.32a6.18,6.18,0,0,0-1.48.18A4.6,4.6,0,0,0,520.28,391.58Z"/></g><g id="Ellipse_26" data-name="Ellipse 26"><circle class="cls-12" cx="528.49" cy="380.6" r="2.31"/></g></g><g id="Layer_2" data-name="Layer 2"><g id="Layer_1-2" data-name="Layer 1-2"><g id="Logo_White_Horizontal" data-name="Logo White Horizontal"><g id="Group_495" data-name="Group 495"><g class="cls-13"><g id="Group_494" data-name="Group 494"><g id="Group_493" data-name="Group 493"><g id="Group_492" data-name="Group 492"><g class="cls-14"><g id="Group_491" data-name="Group 491"><g id="Group_490" data-name="Group 490"><g id="Path_451" data-name="Path 451"><path class="cls-12" d="M415,292.27l0-.24,2.6-1.5c1.75-1,2.63-2,2.25-3.92-.31-1.57-1.75-2.4-3.75-2-2.43.48-3.8,2.13-3.69,4l.2,3.57c0,.28.06.56.1.84.33,1.63,1.59,2.44,3.92,2l3.19-.63-.1-2.09-3.2.63c-.88.18-1.37,0-1.48-.6m-.25-4c-.06-.92.51-1.42,1.51-1.61.65-.13,1.23,0,1.34.55s0,.87-.65,1.18l-2.13,1.24Z"/></g><g id="Path_452" data-name="Path 452"><path class="cls-12" d="M423.8,279.16l-3.84.75.1,2.13,1.45-.29.58,10-1.69.33.11,2.12,5.73-1.12-.1-2.13-1.66.33Z"/></g><g id="Path_453" data-name="Path 453"><path class="cls-12" d="M453,273.13l-2.38.46.15,2.67,2.38-.47Z"/></g><g id="Path_454" data-name="Path 454"><path class="cls-12" d="M453.27,277.28l-3.86.76.1,2.11,1.47-.29.36,6.14-1.69.34.11,2.12,5.75-1.13-.1-2.13-1.7.34Z"/></g><g id="Path_455" data-name="Path 455"><path class="cls-12" d="M459.28,276.1h0c-2.27.44-3.86,1.81-3.46,3.84.57,2.93,4.56,1.76,4.86,3.27.16.84-.66,1.11-1.38,1.25l-3.05.6.11,2.08,3-.6c2.67-.52,4-2.16,3.59-4.14-.6-3-4.6-1.95-4.86-3.26-.09-.45.32-.8,1.33-1l2.7-.53-.1-2.09Z"/></g><g id="Path_456" data-name="Path 456"><path class="cls-12" d="M438.32,280.21h0c-2.27.45-3.91,1.82-3.51,3.85.58,2.93,4.57,1.77,4.86,3.27.17.84-.65,1.11-1.38,1.25l-3,.6.09,2.09,3.14-.62c2.66-.52,4-2.17,3.59-4.15-.6-3-4.6-1.95-4.86-3.26-.08-.45.33-.8,1.33-1l2.7-.53-.1-2.09Z"/></g><g id="Path_457" data-name="Path 457"><path class="cls-12" d="M475.64,272.88h0c-2.28.45-3.87,1.81-3.47,3.85.58,2.92,4.57,1.76,4.86,3.26.17.84-.65,1.11-1.38,1.25l-3,.6.1,2.09,3.14-.61c2.66-.53,4-2.17,3.59-4.15-.6-3-4.6-1.95-4.87-3.26-.09-.45.32-.8,1.34-1l2.7-.53-.11-2.09Z"/></g><g id="Path_458" data-name="Path 458"><path class="cls-12" d="M469.41,274.11l-1.79,7-2.5-6.13-2.53.5,4,9.09-1.29,4.64,2.4-.47,4.24-15.1Z"/></g><g id="Path_459" data-name="Path 459"><path class="cls-12" d="M431.6,281.54l0,.82a2.87,2.87,0,0,0-2.19-.39,3.76,3.76,0,0,0-3.11,4l.2,3.65a5.12,5.12,0,0,0,.1.54,2.68,2.68,0,0,0,3.05,2.25h0l.35-.08a3.26,3.26,0,0,0,2.08-1.28l.17.84,2.13-.42-.61-10.37Zm0,3.66.2,3.48a1.61,1.61,0,0,1-1.44,1.46c-.75.14-1.35-.12-1.48-.77a7.58,7.58,0,0,1-.08-.82l-.13-3.15a1.51,1.51,0,0,1,1.45-1.44c.73-.14,1.34.13,1.47.77,0,.16.07.32.1.48"/></g><g id="Path_460" data-name="Path 460"><path class="cls-12" d="M446.37,286.38c0-.2,0-.41-.05-.61l-.27-5,1.88-.37-.09-2.09-1.85.36-.13-2.26-2.4.47.13,2.26-1.81.36.11,2.09,1.83-.36.3,5.21a8.08,8.08,0,0,0,.08.86c.29,1.45,1.26,2,3.33,1.57l1.62-.32-.12-2.08-1.23.24c-.95.19-1.2.07-1.28-.32"/></g><g id="Path_461" data-name="Path 461"><path class="cls-12" d="M370.56,314c-.18-4-.14-18.32,9.31-20.18a9.36,9.36,0,0,1,1.74-.19c3.11.05,5.41,1.76,5.85,4.35.69,4.12-3.35,10.78-16.9,16"/></g><g id="Path_462" data-name="Path 462"><path class="cls-12" d="M384,308.15c4.22-3.74,5.55-7.52,5.05-10.49-.58-3.38-3.48-5.65-7.4-5.68h0a13.45,13.45,0,0,0-2,.22c-5.08,1-7.74,4.87-9.15,9.19,1.48-7.16,4.94-14.48,12.82-16a17.14,17.14,0,0,1,2.57-.29c4.71.13,8.16,2.69,8.83,6.62.68,4.32-2,10.53-10.72,16.46"/></g><g id="Path_463" data-name="Path 463"><path class="cls-12" d="M405.09,281.83c1.11,6.55-3.11,15.88-16.55,24.73.86-.74,1.69-1.53,2.47-2.35,4-4.27,5.84-8.83,5.16-12.87-.79-4.71-4.86-7.84-10.38-7.94h0a18.16,18.16,0,0,0-2.84.32c-7.33,1.44-12.21,7.63-14.2,17.89.18-1.63.4-3.31.75-5,2.65-14.05,9-22.2,18.83-24.14a23.65,23.65,0,0,1,3.75-.42c6.93.13,12,4,13,9.78"/></g></g></g></g></g></g></g></g></g></g></g></g></g><g id="DITT_TEAM" data-name="DITT TEAM" class="cls-9"><g class="cls-9"><path class="cls-10" d="M336.75,183.4l5.34-1.33a7.87,7.87,0,0,1,3.66-.11,5.91,5.91,0,0,1,2.9,1.56,6.37,6.37,0,0,1,1.64,3,6.25,6.25,0,0,1,0,3.41,5.79,5.79,0,0,1-1.83,2.74,7.91,7.91,0,0,1-3.28,1.63l-5.35,1.33Zm7.8,9a5.29,5.29,0,0,0,2.24-1.1,3.85,3.85,0,0,0,1.21-1.86,4.85,4.85,0,0,0-1.1-4.42,3.82,3.82,0,0,0-1.94-1.08,5.34,5.34,0,0,0-2.5.08l-3,.74,2.09,8.38Z"/><path class="cls-10" d="M351.17,179.81l2.27-.57,3.05,12.23-2.27.56Z"/><path class="cls-10" d="M359.7,179.72l-4.05,1-.48-1.92,10.38-2.59.47,1.92-4,1,2.57,10.31-2.27.56Z"/><path class="cls-10" d="M370.39,177.05l-4.05,1-.48-1.92,10.37-2.58.48,1.92-4,1,2.57,10.3-2.27.57Z"/><path class="cls-10" d="M385.72,173.23l-4.05,1-.48-1.92,10.38-2.59.48,1.92-4.05,1L390.56,183l-2.27.57Z"/><path class="cls-10" d="M405,177.34l.48,1.91-9.17,2.28-3.05-12.22,8.92-2.23.48,1.91L396,170.64l.79,3.18,5.9-1.47.47,1.87-5.91,1.47.84,3.37Z"/><path class="cls-10" d="M415.25,173.81l-6.11,1.52-.5,3.13-2.34.59,2.45-13.6,2.24-.56,8.57,10.85-2.38.59Zm-1.19-1.6-3.64-4.76-1,5.91Z"/><path class="cls-10" d="M432.34,172.55l-2-8.1L428,172.16l-1,.25-5.67-5.6,2,8-2.17.54-3.05-12.22,1.87-.47,6.88,6.89,2.75-9.29,1.86-.46L434.49,172Z"/></g></g></g></g></svg>