<svg xmlns="http://www.w3.org/2000/svg" id="safespring-compliant-kubernetes-pyramid" width="739.875" height="567.034" viewBox="0 0 739.875 567.034"><path id="Path_147" fill="#15465c" fill-rule="evenodd" d="m338.04-147 295.82 74.58-291.42 154.5L42.22-72.43Z" transform="translate(31.893 456.877)"/><path id="Path_148" fill="#1c5e80" fill-rule="evenodd" d="m296.8-205.5 197.23 50.85L300.33-24.7 97.98-154.6Z" transform="translate(74.009 412.69)"/><path id="Path_149" fill="#1b739d" fill-rule="evenodd" d="m665.73-104.5 74.14 95.4-369.93 87.16L0-9.1l74.14-95.41 295.8 69.68Z" transform="translate(0 488.979)"/><path id="Path_150" fill="#5ab4e0" fill-rule="evenodd" d="m524.9-176.5 71.87 92.48-269.89 67.26L57-84.02l71.87-92.48 198.01 45.74Z" transform="translate(43.054 434.595)"/><path id="Path_151" fill="#9aea9a" fill-rule="evenodd" d="m382.58-194.31 73.59 94.81-171.59 42.82L113-99.5l73.58-94.82c32.2-43.05 96.5-129.16 96.5-129.2s51.2 66.24 99.5 129.2" transform="translate(85.353 323.551)"/><path id="Path_152" fill="#7fc77f" fill-rule="evenodd" d="M209.8-323.26c.05.04 138.94 180.07 173.1 224.03L211.15-56.38c.08-41.23-1.26-266.9-1.33-266.88" transform="translate(158.61 323.256)"/><path id="Path_153" fill="#1b739d" fill-rule="evenodd" d="m409.02-176.51 71.8 92.5L210.5-16.76l.38-114Z" transform="translate(158.999 434.588)"/><path id="Path_154" fill="#145576" fill-rule="evenodd" d="m506.77-104.5 74.1 95.41L210.5 78.06l.48-112.87Z" transform="translate(158.999 488.973)"/><path id="Path_168" fill="#fafdfd" d="M-54.38.2a8 8 0 0 1-3.83-.93 7 7 0 0 1-2.68-2.57 7 7 0 0 1-.97-3.7 7 7 0 0 1 .98-3.7 7 7 0 0 1 2.7-2.57 8 8 0 0 1 3.82-.93 8 8 0 0 1 3.14.6 6.4 6.4 0 0 1 2.4 1.74l-1.68 1.58a5 5 0 0 0-3.74-1.64 5 5 0 0 0-2.58.63 4.5 4.5 0 0 0-1.78 1.75A5 5 0 0 0-59.24-7a5 5 0 0 0 .64 2.54 4.5 4.5 0 0 0 1.78 1.75 5 5 0 0 0 2.58.63 5 5 0 0 0 3.74-1.66l1.68 1.6a6.4 6.4 0 0 1-2.4 1.74 8 8 0 0 1-3.16.6m14.23 0a8 8 0 0 1-3.86-.93 7 7 0 0 1-2.7-2.58A7 7 0 0 1-47.7-7a7 7 0 0 1 .98-3.69 7 7 0 0 1 2.7-2.58 8 8 0 0 1 3.86-.93 8 8 0 0 1 3.86.93 7 7 0 0 1 2.7 2.57 7 7 0 0 1 .98 3.7 7 7 0 0 1-.98 3.7 7 7 0 0 1-2.7 2.57 8 8 0 0 1-3.86.93m0-2.28a5 5 0 0 0 2.52-.63 4.6 4.6 0 0 0 1.76-1.76A5 5 0 0 0-35.23-7a5 5 0 0 0-.64-2.53 4.6 4.6 0 0 0-1.76-1.76 5 5 0 0 0-2.52-.63 5 5 0 0 0-2.52.63 4.6 4.6 0 0 0-1.76 1.76A5 5 0 0 0-45.07-7a5 5 0 0 0 .64 2.53 4.6 4.6 0 0 0 1.76 1.76 5 5 0 0 0 2.52.63M-17.07 0l-.02-9.28-4.6 7.68h-1.16l-4.6-7.56V0h-2.48v-14h2.14l5.56 9.28 5.46-9.28h2.14l.02 14Zm11.93-14a8 8 0 0 1 3.17.6A4.6 4.6 0 0 1 .1-11.68a5 5 0 0 1 .72 2.66A5 5 0 0 1 .1-6.37a4.6 4.6 0 0 1-2.07 1.73 8 8 0 0 1-3.17.6H-8.3V0h-2.6v-14Zm-.12 7.76a4 4 0 0 0 2.58-.72 2.5 2.5 0 0 0 .88-2.06 2.5 2.5 0 0 0-.88-2.06 4 4 0 0 0-2.58-.72H-8.3v5.56ZM3.34-14h2.6v11.8h7.32V0H3.34Zm11.9 0h2.6V0h-2.6ZM30.63-3.24h-7L22.25 0h-2.68l6.3-14h2.56l6.32 14h-2.72Zm-.86-2.04-2.64-6.12-2.62 6.12ZM48.89-14V0h-2.14l-7.72-9.48V0h-2.58v-14h2.14l7.72 9.48V-14Zm6.53 2.2h-4.64V-14h11.88v2.2h-4.64V0h-2.6ZM-63.47 18.14l-2.22 2.28V24h-2.6V10h2.6v7.18l6.92-7.18h2.92l-5.88 6.26 6.24 7.74h-3.04Zm15.5 6.06a6 6 0 0 1-4.52-1.63 6.3 6.3 0 0 1-1.61-4.67V10h2.6v7.8q0 4.12 3.56 4.12 3.54 0 3.54-4.12V10h2.56v7.9a6.4 6.4 0 0 1-1.61 4.67 6 6 0 0 1-4.51 1.63Zm19.6-7.48a3.7 3.7 0 0 1 1.84 1.27 3.5 3.5 0 0 1 .68 2.21 3.2 3.2 0 0 1-1.4 2.81 7 7 0 0 1-4.08.99h-6.96V10h6.56a6.4 6.4 0 0 1 3.82.97 3.1 3.1 0 0 1 1.34 2.67 3.5 3.5 0 0 1-.48 1.84 3.3 3.3 0 0 1-1.31 1.24Zm-7.32-4.68v3.86H-32a3.7 3.7 0 0 0 2.09-.49 1.6 1.6 0 0 0 .73-1.43 1.6 1.6 0 0 0-.73-1.45 3.7 3.7 0 0 0-2.09-.49Zm4.2 9.92q3.02 0 3.02-2.02t-3.02-2.02h-4.2v4.04Zm18.85-.14V24h-10.5V10h10.22v2.18h-7.62v3.64h6.76v2.14h-6.76v3.86ZM-.65 24l-2.86-4.1-.54.02h-3.16V24h-2.6V10h5.76a8 8 0 0 1 3.17.6 4.6 4.6 0 0 1 2.07 1.72 5 5 0 0 1 .72 2.66 4.7 4.7 0 0 1-.77 2.72 4.6 4.6 0 0 1-2.21 1.7L2.15 24Zm-.06-9.02a2.5 2.5 0 0 0-.88-2.06 4 4 0 0 0-2.58-.72h-3.04v5.58h3.04a4 4 0 0 0 2.58-.73 2.5 2.5 0 0 0 .88-2.07M17.17 10v14h-2.14l-7.72-9.48V24H4.73V10h2.14l7.72 9.48V10Zm14.19 11.82V24h-10.5V10h10.22v2.18h-7.62v3.64h6.76v2.14h-6.76v3.86Zm5.66-9.62h-4.64V10h11.88v2.2h-4.64V24h-2.6Zm19.62 9.62V24h-10.5V10h10.22v2.18h-7.62v3.64h6.76v2.14h-6.76v3.86Zm7.17 2.38a11 11 0 0 1-3.13-.46 7 7 0 0 1-2.4-1.22l.9-2.02a7 7 0 0 0 2.12 1.11 8 8 0 0 0 2.5.43 4.3 4.3 0 0 0 2.34-.5 1.5 1.5 0 0 0 .77-1.32 1.3 1.3 0 0 0-.43-.99 3 3 0 0 0-1.1-.61q-.65-.22-1.8-.5a21 21 0 0 1-2.58-.76 4 4 0 0 1-1.7-1.19 3.2 3.2 0 0 1-.71-2.19 3.7 3.7 0 0 1 .63-2.11 4.3 4.3 0 0 1 1.9-1.51 8 8 0 0 1 3.11-.56 10 10 0 0 1 2.52.32 7 7 0 0 1 2.14.92l-.82 2.02a8 8 0 0 0-1.92-.82 7 7 0 0 0-1.94-.28 4 4 0 0 0-2.29.52 1.6 1.6 0 0 0-.75 1.38 1.3 1.3 0 0 0 .43.98 3 3 0 0 0 1.09.6q.66.22 1.8.5a19 19 0 0 1 2.56.75 4.4 4.4 0 0 1 1.71 1.19 3 3 0 0 1 .71 2.16 3.7 3.7 0 0 1-.63 2.1 4.3 4.3 0 0 1-1.91 1.5 8 8 0 0 1-3.12.56" transform="rotate(13.832 -1233.425 1209.136)"/><g id="_1C_Safespring_Logotyp_Vit_RGB" transform="rotate(-14 2156.404 -1607.86)"><path id="Path_155" fill="#fff" d="M30.58 9.41a10.55 10.55 0 0 0-20.98 0 10.55 10.55 0 0 0 1.16 21.06h9.32a5.9 5.9 0 0 0 0-11.78 3.44 3.44 0 1 1 2.44-5.88 1.23 1.23 0 1 0 1.74-1.73 5.9 5.9 0 1 0-4.17 10.04 3.44 3.44 0 0 1 0 6.88h-9.33a8.1 8.1 0 0 1 0-16.2 1.2 1.2 0 0 0 1.22-1.23 8.1 8.1 0 1 1 16.2 0 1.23 1.23 0 0 0 1.23 1.23 8.1 8.1 0 1 1 0 16.2 1.23 1.23 0 0 0 0 2.45 10.55 10.55 0 0 0 1.16-21.04Z"/><path id="Path_156" fill="#fff" d="M8.22 6.71c-.6-.24-1.15-.42-1.93-.69-1.41-.45-2.8-.96-2.8-2.14s.9-1.77 2.29-1.77A5.2 5.2 0 0 1 9.4 3.65l1.2-1.78A6.3 6.3 0 0 0 5.74 0C3.2 0 .9 1.45.9 4.1a3.7 3.7 0 0 0 2.26 3.43 11 11 0 0 0 1.96.75c.97.33 3.23.81 3.23 2.39s-1.42 2.05-2.75 2.05a6 6 0 0 1-4.22-2.05L0 12.36a6.9 6.9 0 0 0 5.57 2.56 6 6 0 0 0 3.97-1.27 4 4 0 0 0 1.48-3.25 3.5 3.5 0 0 0-1.14-2.65A6 6 0 0 0 8.22 6.7" transform="translate(46.128 15.881)"/><path id="Path_157" fill="#fff" d="M6.05 0A11 11 0 0 0 .7 1.45l.87 1.92a9 9 0 0 1 4.31-1.23c2.08 0 3.55 1.08 3.55 3.25v.57l-3.82.15C2.28 6.26 0 7.68 0 10.48s2.29 4.42 4.93 4.42a5.9 5.9 0 0 0 4.56-2.12l.02 1.8h2.8V6.27c0-2.44-.57-3.64-1.53-4.63S8.43 0 6.05 0m3.4 10.78a4.5 4.5 0 0 1-3.64 2.08c-1.87 0-2.95-1.12-2.95-2.47s.93-2.35 3.25-2.47l3.34-.21Z" transform="translate(58.77 15.881)"/><path id="Path_158" fill="#fff" d="M7.26 0A7.1 7.1 0 0 0 0 7.4c0 4.52 2.92 7.5 7.17 7.5s6.1-2.1 6.29-2.25l-1.2-1.66a8 8 0 0 1-4.73 1.66A4.4 4.4 0 0 1 2.92 8.1h11.02a13 13 0 0 0 .1-1.27A6.53 6.53 0 0 0 7.25 0m-4.3 6.17a4.2 4.2 0 0 1 4.21-4.1 4.15 4.15 0 0 1 4.13 4.1Z" transform="translate(80.6 15.881)"/><path id="Path_159" fill="#fff" d="M8.23 6.71c-.6-.24-1.15-.42-1.93-.69-1.42-.45-2.8-.96-2.8-2.14s.9-1.77 2.29-1.77A5.3 5.3 0 0 1 9.4 3.65l1.2-1.78A6.3 6.3 0 0 0 5.73 0C3.2 0 .91 1.45.91 4.1a3.7 3.7 0 0 0 2.26 3.43 11 11 0 0 0 1.96.75c.96.33 3.22.81 3.22 2.38s-1.41 2.05-2.74 2.05a6 6 0 0 1-4.22-2.05L0 12.35a6.9 6.9 0 0 0 5.57 2.56 6 6 0 0 0 3.97-1.27 4 4 0 0 0 1.48-3.25 3.5 3.5 0 0 0-1.14-2.65 6 6 0 0 0-1.65-1.03" transform="translate(95.659 15.881)"/><path id="Path_160" fill="#fff" d="M7.9 0a6 6 0 0 0-5.07 2.53h-.06V.27H0v19.75h2.9v-7.7l.02.03a5.6 5.6 0 0 0 4.94 2.56c4.24 0 6.95-3.26 6.95-7.5S12.11 0 7.9 0m-.6 12.44c-2.86 0-4.55-2.2-4.55-5.06s1.7-5.03 4.55-5.03 4.55 2.17 4.55 5.03-1.69 5.06-4.55 5.06" transform="translate(108.321 15.879)"/><path id="Rectangle_29" fill="#fff" d="M0 0h2.9v14.3H0z" transform="translate(134.848 16.152)"/><path id="Path_161" fill="#fff" d="M7.33 0a4.8 4.8 0 0 0-4.38 2.53h-.09L2.9.27H0V14.6h2.9V7.38c0-2.74.99-5 3.67-5 2.55 0 2.97 1.8 2.97 4.22v7.99h2.9V6.12C12.44 2.68 11.39 0 7.33 0" transform="translate(140.157 15.879)"/><path id="Path_162" fill="#fff" d="m11.95.27.03 2.26h-.09A5.7 5.7 0 0 0 6.9 0 6.8 6.8 0 0 0 0 7.2a6.8 6.8 0 0 0 6.9 7.2 5.7 5.7 0 0 0 5-2.56h.05v.56a6.5 6.5 0 0 1-1.08 4 4.9 4.9 0 0 1-3.92 1.57 9 9 0 0 1-5.12-1.81L.47 18.18a11 11 0 0 0 6.39 2.13c3.55 0 5.32-1.44 6.38-2.74s1.56-3.01 1.56-6.17V.27ZM7.5 12.03c-2.92 0-4.55-2.14-4.55-4.85S4.58 2.3 7.5 2.3s4.55 2.17 4.55 4.88-1.6 4.86-4.55 4.86Z" transform="translate(154.221 15.881)"/><path id="Path_163" fill="#fff" d="M.97 1.57A6 6 0 0 0 0 5.39v15.73h2.86V9.15h3.4V6.84h-3.4v-1.6c0-1.63.3-3.04 2.2-3.04a6 6 0 0 1 1.2.15V.17A9 9 0 0 0 4.4 0 4.3 4.3 0 0 0 .96 1.57" transform="translate(73.512 9.347)"/><path id="Path_164" fill="#fff" d="M2.95 2.48h-.09L2.9.27H0V14.6h2.9V7.44a6.4 6.4 0 0 1 .86-3.61 3 3 0 0 1 2.35-1.21 4 4 0 0 1 1.57.3V.15A5 5 0 0 0 6.48 0a3.75 3.75 0 0 0-3.53 2.48" transform="translate(124.739 15.875)"/><ellipse id="Ellipse_1" cx="1.881" cy="1.881" fill="#fff" rx="1.881" ry="1.881" transform="translate(134.395 9.348)"/></g><path id="Path_185" fill="#fafdfd" d="M-24.81-4.94V0h-2.6v-4.9l-5.5-9.1h2.78l4.1 6.82 4.14-6.82h2.56ZM-11.67.2a8 8 0 0 1-3.86-.93 7 7 0 0 1-2.7-2.58A7 7 0 0 1-19.21-7a7 7 0 0 1 .98-3.69 7 7 0 0 1 2.7-2.58 8 8 0 0 1 3.86-.93 8 8 0 0 1 3.86.93 7 7 0 0 1 2.7 2.57A7 7 0 0 1-4.13-7a7 7 0 0 1-.98 3.7 7 7 0 0 1-2.7 2.57 8 8 0 0 1-3.86.93m0-2.28a5 5 0 0 0 2.52-.63 4.6 4.6 0 0 0 1.76-1.76A5 5 0 0 0-6.75-7a5 5 0 0 0-.64-2.53 4.6 4.6 0 0 0-1.76-1.76 5 5 0 0 0-2.52-.63 5 5 0 0 0-2.52.63 4.6 4.6 0 0 0-1.76 1.76A5 5 0 0 0-16.59-7a5 5 0 0 0 .64 2.53 4.6 4.6 0 0 0 1.76 1.76 5 5 0 0 0 2.52.63M4.67.2A6 6 0 0 1 .15-1.43 6.3 6.3 0 0 1-1.47-6.1V-14h2.6v7.8q0 4.12 3.56 4.12 3.54 0 3.54-4.12V-14h2.56v7.9a6.4 6.4 0 0 1-1.61 4.67A6 6 0 0 1 4.67.2M23.61 0l-2.86-4.1-.54.02h-3.16V0h-2.6v-14h5.76a8 8 0 0 1 3.17.6 4.6 4.6 0 0 1 2.07 1.72 5 5 0 0 1 .72 2.66 4.7 4.7 0 0 1-.77 2.72 4.6 4.6 0 0 1-2.21 1.7L26.41 0Zm-.06-9.02a2.5 2.5 0 0 0-.88-2.06 4 4 0 0 0-2.58-.72h-3.04v5.58h3.04a4 4 0 0 0 2.58-.73 2.5 2.5 0 0 0 .88-2.07M-38.44 24.2a11 11 0 0 1-3.13-.46 7 7 0 0 1-2.39-1.22l.9-2.02a7 7 0 0 0 2.11 1.11 8 8 0 0 0 2.51.43 4.3 4.3 0 0 0 2.33-.5 1.5 1.5 0 0 0 .77-1.32 1.3 1.3 0 0 0-.43-.99 3 3 0 0 0-1.09-.61q-.66-.22-1.8-.5a21 21 0 0 1-2.59-.76 4 4 0 0 1-1.7-1.19 3.2 3.2 0 0 1-.71-2.19 3.7 3.7 0 0 1 .63-2.11 4.3 4.3 0 0 1 1.9-1.51 8 8 0 0 1 3.11-.56 10 10 0 0 1 2.52.32 7 7 0 0 1 2.14.92l-.82 2.02a8 8 0 0 0-1.92-.82 7 7 0 0 0-1.94-.28 4 4 0 0 0-2.29.52 1.6 1.6 0 0 0-.75 1.38 1.3 1.3 0 0 0 .43.98 3 3 0 0 0 1.09.6q.66.22 1.8.5a19 19 0 0 1 2.56.75 4.4 4.4 0 0 1 1.71 1.19 3 3 0 0 1 .71 2.16 3.7 3.7 0 0 1-.63 2.1 4.3 4.3 0 0 1-1.91 1.5 8 8 0 0 1-3.12.56m18.76-2.38V24h-10.5V10h10.22v2.18h-7.62v3.64h6.76v2.14h-6.76v3.86ZM-7.6 24l-2.86-4.1-.54.02h-3.16V24h-2.6V10H-11a8 8 0 0 1 3.17.6 4.6 4.6 0 0 1 2.07 1.72 5 5 0 0 1 .72 2.66 4.7 4.7 0 0 1-.77 2.72 4.6 4.6 0 0 1-2.21 1.7L-4.8 24Zm-.06-9.02a2.5 2.5 0 0 0-.88-2.06 4 4 0 0 0-2.58-.72h-3.04v5.58h3.04a4 4 0 0 0 2.58-.73 2.5 2.5 0 0 0 .88-2.07M10.68 10l-6.1 14H2.02L-4.1 10h2.82l4.66 10.8L8.08 10Zm1.5 0h2.6v14h-2.6Zm12.88 14.2a8 8 0 0 1-3.83-.93 7 7 0 0 1-2.68-2.57 7 7 0 0 1-.97-3.7 7 7 0 0 1 .98-3.7 7 7 0 0 1 2.69-2.57 8 8 0 0 1 3.83-.93 8 8 0 0 1 3.14.6 6.4 6.4 0 0 1 2.4 1.74l-1.68 1.58a5 5 0 0 0-3.74-1.64 5 5 0 0 0-2.58.63 4.5 4.5 0 0 0-1.78 1.75 5.4 5.4 0 0 0 0 5.08 4.5 4.5 0 0 0 1.78 1.75 5 5 0 0 0 2.58.63 5 5 0 0 0 3.74-1.66l1.68 1.6a6.4 6.4 0 0 1-2.41 1.74 8 8 0 0 1-3.15.6m18.58-2.38V24h-10.5V10h10.22v2.18h-7.62v3.64h6.76v2.14h-6.76v3.86Z" transform="rotate(14 -661.85 1331.863)"/><path id="Path_184" fill="#fafdfd" d="M-54.05-14V0h-2.14l-7.72-9.48V0h-2.58v-14h2.14l7.72 9.48V-14ZM-43.73.2a8 8 0 0 1-3.86-.93 7 7 0 0 1-2.7-2.58A7 7 0 0 1-51.27-7a7 7 0 0 1 .98-3.69 7 7 0 0 1 2.7-2.58 8 8 0 0 1 3.86-.93 8 8 0 0 1 3.86.93 7 7 0 0 1 2.7 2.57 7 7 0 0 1 .98 3.7 7 7 0 0 1-.98 3.7 7 7 0 0 1-2.7 2.57 8 8 0 0 1-3.86.93m0-2.28a5 5 0 0 0 2.52-.63 4.6 4.6 0 0 0 1.76-1.76A5 5 0 0 0-38.81-7a5 5 0 0 0-.64-2.53 4.6 4.6 0 0 0-1.76-1.76 5 5 0 0 0-2.52-.63 5 5 0 0 0-2.52.63 4.6 4.6 0 0 0-1.76 1.76A5 5 0 0 0-48.65-7a5 5 0 0 0 .64 2.53 4.6 4.6 0 0 0 1.76 1.76 5 5 0 0 0 2.52.63M-24.25 0l-2.86-4.1-.54.02h-3.16V0h-2.6v-14h5.76a8 8 0 0 1 3.17.6 4.6 4.6 0 0 1 2.07 1.72 5 5 0 0 1 .72 2.66 4.7 4.7 0 0 1-.77 2.72 4.6 4.6 0 0 1-2.21 1.7l3.22 4.6Zm-.06-9.02a2.5 2.5 0 0 0-.88-2.06 4 4 0 0 0-2.58-.72h-3.04v5.58h3.04a4 4 0 0 0 2.58-.73 2.5 2.5 0 0 0 .88-2.07m26-4.98L-2.95 0h-2.76l-3.46-10.36L-12.69 0h-2.78l-4.64-14h2.7l3.48 10.64L-10.31-14h2.4l3.54 10.7L-.79-14ZM14.33-2.18V0H3.83v-14h10.22v2.18H6.43v3.64h6.76v2.14H6.43v3.86Zm12.42-4.98h2.46v5.58a8 8 0 0 1-2.52 1.32 10 10 0 0 1-2.96.46 8 8 0 0 1-3.86-.93 7 7 0 0 1-2.7-2.57 7 7 0 0 1-.98-3.7 7 7 0 0 1 .98-3.7 7 7 0 0 1 2.71-2.57 8 8 0 0 1 3.89-.93 9 9 0 0 1 3.2.58 6 6 0 0 1 2.42 1.7l-1.64 1.6a5.3 5.3 0 0 0-3.86-1.6 5.5 5.5 0 0 0-2.63.62 4.5 4.5 0 0 0-1.8 1.74A5 5 0 0 0 18.81-7a5 5 0 0 0 .65 2.52 4.7 4.7 0 0 0 1.8 1.76 5.3 5.3 0 0 0 2.61.64 5.6 5.6 0 0 0 2.88-.72Zm5.9-6.84h2.6V0h-2.6ZM48.13-3.24h-7L39.75 0h-2.68l6.3-14h2.56l6.32 14h-2.72Zm-.86-2.04-2.64-6.12-2.62 6.12ZM66.49-14V0h-2.14l-7.72-9.48V0h-2.58v-14h2.14l7.72 9.48V-14ZM-93.1 10h2.6v14h-2.6Zm18.84 0v14h-2.14l-7.72-9.48V24h-2.58V10h2.14l7.72 9.48V10Zm6.38 2.18v4.26h6.76v2.2h-6.76V24h-2.6V10h10.22v2.18ZM-48.56 24l-2.86-4.1-.54.02h-3.16V24h-2.6V10h5.76a8 8 0 0 1 3.17.6 4.6 4.6 0 0 1 2.07 1.72 5 5 0 0 1 .72 2.66 4.7 4.7 0 0 1-.77 2.72 4.6 4.6 0 0 1-2.21 1.7l3.22 4.6Zm-.06-9.02a2.5 2.5 0 0 0-.88-2.06 4 4 0 0 0-2.58-.72h-3.04v5.58h3.04a4 4 0 0 0 2.58-.73 2.5 2.5 0 0 0 .88-2.07M-34 20.76h-7L-42.38 24h-2.68l6.3-14h2.56l6.32 14h-2.72Zm-.86-2.04-2.64-6.12-2.62 6.12Zm11.12 5.48a11 11 0 0 1-3.13-.46 7 7 0 0 1-2.39-1.22l.9-2.02a7 7 0 0 0 2.11 1.11 8 8 0 0 0 2.51.43 4.3 4.3 0 0 0 2.33-.5 1.5 1.5 0 0 0 .77-1.32 1.3 1.3 0 0 0-.43-.99 3 3 0 0 0-1.09-.61q-.66-.22-1.8-.5a21 21 0 0 1-2.59-.76 4 4 0 0 1-1.7-1.19 3.2 3.2 0 0 1-.71-2.19 3.7 3.7 0 0 1 .63-2.11 4.3 4.3 0 0 1 1.9-1.51 8 8 0 0 1 3.11-.56 10 10 0 0 1 2.52.32 7 7 0 0 1 2.14.92l-.82 2.02a8 8 0 0 0-1.92-.82 7 7 0 0 0-1.94-.28 4 4 0 0 0-2.29.52 1.6 1.6 0 0 0-.75 1.38 1.3 1.3 0 0 0 .43.98 3 3 0 0 0 1.09.6q.66.22 1.8.5a19 19 0 0 1 2.56.75 4.4 4.4 0 0 1 1.71 1.19 3 3 0 0 1 .71 2.16 3.7 3.7 0 0 1-.63 2.1 4.3 4.3 0 0 1-1.91 1.5 8 8 0 0 1-3.12.56m10.9-12h-4.64V10H-5.6v2.2h-4.64V24h-2.6ZM5.54 24l-2.86-4.1-.54.02h-3.16V24h-2.6V10h5.76a8 8 0 0 1 3.17.6 4.6 4.6 0 0 1 2.07 1.72 5 5 0 0 1 .72 2.66 4.7 4.7 0 0 1-.77 2.72 4.6 4.6 0 0 1-2.21 1.7L8.34 24Zm-.06-9.02a2.5 2.5 0 0 0-.88-2.06 4 4 0 0 0-2.58-.72h-3.04v5.58h3.04a4 4 0 0 0 2.58-.73 2.5 2.5 0 0 0 .88-2.07m11.56 9.22a6 6 0 0 1-4.52-1.63 6.3 6.3 0 0 1-1.62-4.67V10h2.6v7.8q0 4.12 3.56 4.12 3.54 0 3.54-4.12V10h2.56v7.9a6.4 6.4 0 0 1-1.61 4.67 6 6 0 0 1-4.51 1.63m16.26 0a8 8 0 0 1-3.83-.93 7 7 0 0 1-2.68-2.57 7 7 0 0 1-.97-3.7 7 7 0 0 1 .98-3.7 7 7 0 0 1 2.69-2.57 8 8 0 0 1 3.83-.93 8 8 0 0 1 3.14.6 6.4 6.4 0 0 1 2.4 1.74l-1.68 1.58a5 5 0 0 0-3.74-1.64 5 5 0 0 0-2.58.63 4.5 4.5 0 0 0-1.78 1.75 5.4 5.4 0 0 0 0 5.08 4.5 4.5 0 0 0 1.78 1.75 5 5 0 0 0 2.58.63 5 5 0 0 0 3.74-1.66l1.68 1.6a6.4 6.4 0 0 1-2.41 1.74 8 8 0 0 1-3.15.6m10.76-12h-4.64V10H51.3v2.2h-4.64V24h-2.6Zm14.98 12a6 6 0 0 1-4.52-1.63 6.3 6.3 0 0 1-1.62-4.67V10h2.6v7.8q0 4.12 3.56 4.12 3.54 0 3.54-4.12V10h2.56v7.9a6.4 6.4 0 0 1-1.61 4.67 6 6 0 0 1-4.51 1.63m18.94-.2-2.86-4.1-.54.02h-3.16V24h-2.6V10h5.76a8 8 0 0 1 3.17.6 4.6 4.6 0 0 1 2.07 1.72 5 5 0 0 1 .72 2.66 4.7 4.7 0 0 1-.77 2.72 4.6 4.6 0 0 1-2.21 1.7l3.22 4.6Zm-.06-9.02a2.5 2.5 0 0 0-.88-2.06 4 4 0 0 0-2.58-.72h-3.04v5.58h3.04a4 4 0 0 0 2.58-.73 2.5 2.5 0 0 0 .88-2.07m16.04 6.84V24h-10.5V10h10.22v2.18h-7.62v3.64h6.76v2.14h-6.76v3.86Z" transform="rotate(14 -1798.596 1045.747)"/><path id="Path_183" fill="#fafdfd" d="M-56.49-14a8 8 0 0 1 3.17.6 4.6 4.6 0 0 1 2.07 1.72 5 5 0 0 1 .72 2.66 5 5 0 0 1-.72 2.65 4.6 4.6 0 0 1-2.07 1.73 8 8 0 0 1-3.17.6h-3.16V0h-2.6v-14Zm-.12 7.76a4 4 0 0 0 2.58-.72 2.5 2.5 0 0 0 .88-2.06 2.5 2.5 0 0 0-.88-2.06 4 4 0 0 0-2.58-.72h-3.04v5.56Zm8.7-7.76h2.6v11.8h7.32V0h-9.92Zm21.18 10.76h-7L-35.11 0h-2.68l6.3-14h2.56l6.32 14h-2.72Zm-.86-2.04-2.64-6.12-2.62 6.12Zm8.92-6.52h-4.64V-14h11.88v2.2h-4.64V0h-2.6Zm12.26 0h-4.64V-14H.83v2.2h-4.64V0h-2.6Zm11.82-.02v4.26h6.76v2.2H5.41V0h-2.6v-14h10.22v2.18ZM21.95.2a8 8 0 0 1-3.86-.93 7 7 0 0 1-2.7-2.58A7 7 0 0 1 14.41-7a7 7 0 0 1 .98-3.69 7 7 0 0 1 2.7-2.58 8 8 0 0 1 3.86-.93 8 8 0 0 1 3.86.93 7 7 0 0 1 2.7 2.57 7 7 0 0 1 .98 3.7 7 7 0 0 1-.98 3.7 7 7 0 0 1-2.7 2.57 8 8 0 0 1-3.86.93m0-2.28a5 5 0 0 0 2.52-.63 4.6 4.6 0 0 0 1.76-1.76A5 5 0 0 0 26.87-7a5 5 0 0 0-.64-2.53 4.6 4.6 0 0 0-1.76-1.76 5 5 0 0 0-2.52-.63 5 5 0 0 0-2.52.63 4.6 4.6 0 0 0-1.76 1.76A5 5 0 0 0 17.03-7a5 5 0 0 0 .64 2.53 4.6 4.6 0 0 0 1.76 1.76 5 5 0 0 0 2.52.63M41.43 0l-2.86-4.1-.54.02h-3.16V0h-2.6v-14h5.76a8 8 0 0 1 3.17.6 4.6 4.6 0 0 1 2.07 1.72 5 5 0 0 1 .72 2.66 4.7 4.7 0 0 1-.77 2.72 4.6 4.6 0 0 1-2.21 1.7L44.23 0Zm-.06-9.02a2.5 2.5 0 0 0-.88-2.06 4 4 0 0 0-2.58-.72h-3.04v5.58h3.04a4 4 0 0 0 2.58-.73 2.5 2.5 0 0 0 .88-2.07M59.77 0l-.02-9.28-4.6 7.68h-1.16l-4.6-7.56V0h-2.48v-14h2.14l5.56 9.28L60.07-14h2.14l.02 14Z" transform="rotate(-14 1647.367 -1810.486)"/><path id="Path_182" fill="#fafdfd" d="M-22.04-4.94V0h-2.6v-4.9l-5.5-9.1h2.78l4.1 6.82 4.14-6.82h2.56ZM-8.9.2a8 8 0 0 1-3.86-.93 7 7 0 0 1-2.7-2.58A7 7 0 0 1-16.44-7a7 7 0 0 1 .98-3.69 7 7 0 0 1 2.7-2.58 8 8 0 0 1 3.86-.93 8 8 0 0 1 3.86.93 7 7 0 0 1 2.7 2.57A7 7 0 0 1-1.36-7a7 7 0 0 1-.98 3.7 7 7 0 0 1-2.7 2.57A8 8 0 0 1-8.9.2m0-2.28a5 5 0 0 0 2.52-.63 4.6 4.6 0 0 0 1.76-1.76A5 5 0 0 0-3.98-7a5 5 0 0 0-.64-2.53 4.6 4.6 0 0 0-1.76-1.76 5 5 0 0 0-2.52-.63 5 5 0 0 0-2.52.63 4.6 4.6 0 0 0-1.76 1.76A5 5 0 0 0-13.82-7a5 5 0 0 0 .64 2.53 4.6 4.6 0 0 0 1.76 1.76 5 5 0 0 0 2.52.63M7.44.2a6 6 0 0 1-4.52-1.63A6.3 6.3 0 0 1 1.3-6.1V-14h2.6v7.8q0 4.12 3.56 4.12Q11-2.08 11-6.2V-14h2.56v7.9a6.4 6.4 0 0 1-1.61 4.67A6 6 0 0 1 7.44.2M26.38 0l-2.86-4.1-.54.02h-3.16V0h-2.6v-14h5.76a8 8 0 0 1 3.17.6 4.6 4.6 0 0 1 2.07 1.72 5 5 0 0 1 .72 2.66 4.7 4.7 0 0 1-.77 2.72 4.6 4.6 0 0 1-2.21 1.7L29.18 0Zm-.06-9.02a2.5 2.5 0 0 0-.88-2.06 4 4 0 0 0-2.58-.72h-3.04v5.58h3.04a4 4 0 0 0 2.58-.73 2.5 2.5 0 0 0 .88-2.07M-25.07 12.2h-4.64V10h11.88v2.2h-4.64V24h-2.6Zm19.72 9.62V24h-10.5V10h10.22v2.18h-7.62v3.64h6.76v2.14h-6.76v3.86Zm12-1.06h-7L-1.73 24h-2.68l6.3-14h2.56l6.32 14H8.05Zm-.86-2.04L3.15 12.6.53 18.72ZM25.43 24l-.02-9.28-4.6 7.68h-1.16l-4.6-7.56V24h-2.48V10h2.14l5.56 9.28L25.73 10h2.14l.02 14Z" transform="rotate(-14 1047.718 -1688.608)"/></svg>