<svg id="safespring-compliant-kubernetes-pyramid" xmlns="http://www.w3.org/2000/svg" width="739.875" height="567.034" viewBox="0 0 739.875 567.034">
  <path id="Path_147" data-name="Path 147" d="M338.044-147,633.864-72.416,342.438,82.072,42.223-72.419Z" transform="translate(31.893 456.877)" fill="#15465c" fill-rule="evenodd"/>
  <path id="Path_148" data-name="Path 148" d="M296.806-205.5l197.221,50.852L300.334-24.7,97.981-154.6Z" transform="translate(74.009 412.69)" fill="#1c5e80" fill-rule="evenodd"/>
  <path id="Path_149" data-name="Path 149" d="M665.731-104.5,739.875-9.092,369.937,78.055,0-9.092,74.144-104.5,369.937-34.819Z" transform="translate(0 488.979)" fill="#1b739d" fill-rule="evenodd"/>
  <path id="Path_150" data-name="Path 150" d="M524.892-176.5l71.874,92.482L326.883-16.764,57-84.018,128.874-176.5l198.009,45.74Z" transform="translate(43.054 434.595)" fill="#5ab4e0" fill-rule="evenodd"/>
  <path id="Path_151" data-name="Path 151" d="M382.584-194.315,456.168-99.5,284.584-56.679,113-99.5l73.584-94.818c32.193-43.054,96.49-129.158,96.5-129.2S334.28-257.283,382.584-194.315Z" transform="translate(85.353 323.551)" fill="#9aea9a" fill-rule="evenodd"/>
  <path id="Path_152" data-name="Path 152" d="M209.809-323.256c.044.031,138.927,180.062,173.1,224.026L211.136-56.384C211.223-97.606,209.88-323.272,209.809-323.256Z" transform="translate(158.61 323.256)" fill="#7fc77f" fill-rule="evenodd"/>
  <path id="Path_153" data-name="Path 153" d="M409.023-176.51l71.8,92.5L210.5-16.757h0l.378-114Z" transform="translate(158.999 434.588)" fill="#1b739d" fill-rule="evenodd"/>
  <path id="Path_154" data-name="Path 154" d="M506.773-104.509l74.1,95.423L210.5,78.062l.478-112.868Z" transform="translate(158.999 488.973)" fill="#145576" fill-rule="evenodd"/>
  <path id="Path_168" data-name="Path 168" d="M-54.376.2a7.884,7.884,0,0,1-3.83-.93,6.856,6.856,0,0,1-2.68-2.57,7.129,7.129,0,0,1-.97-3.7,7.073,7.073,0,0,1,.98-3.7,6.928,6.928,0,0,1,2.69-2.57,7.884,7.884,0,0,1,3.83-.93,7.989,7.989,0,0,1,3.14.6,6.4,6.4,0,0,1,2.4,1.74l-1.68,1.58a4.9,4.9,0,0,0-3.74-1.64,5.244,5.244,0,0,0-2.58.63A4.538,4.538,0,0,0-58.6-9.54,5.028,5.028,0,0,0-59.236-7a5.028,5.028,0,0,0,.64,2.54,4.538,4.538,0,0,0,1.78,1.75,5.244,5.244,0,0,0,2.58.63A4.873,4.873,0,0,0-50.5-3.74l1.68,1.6A6.387,6.387,0,0,1-51.226-.4,8.062,8.062,0,0,1-54.376.2Zm14.224,0a7.983,7.983,0,0,1-3.86-.93,6.887,6.887,0,0,1-2.7-2.58A7.088,7.088,0,0,1-47.692-7a7.088,7.088,0,0,1,.98-3.69,6.887,6.887,0,0,1,2.7-2.58,7.983,7.983,0,0,1,3.86-.93,7.983,7.983,0,0,1,3.86.93,6.909,6.909,0,0,1,2.7,2.57,7.073,7.073,0,0,1,.98,3.7,7.073,7.073,0,0,1-.98,3.7,6.909,6.909,0,0,1-2.7,2.57A7.983,7.983,0,0,1-40.152.2Zm0-2.28a5.05,5.05,0,0,0,2.52-.63,4.557,4.557,0,0,0,1.76-1.76A5.043,5.043,0,0,0-35.232-7a5.043,5.043,0,0,0-.64-2.53,4.557,4.557,0,0,0-1.76-1.76,5.05,5.05,0,0,0-2.52-.63,5.05,5.05,0,0,0-2.52.63,4.557,4.557,0,0,0-1.76,1.76A5.043,5.043,0,0,0-45.072-7a5.043,5.043,0,0,0,.64,2.53,4.557,4.557,0,0,0,1.76,1.76A5.05,5.05,0,0,0-40.152-2.08ZM-17.068,0l-.02-9.28-4.6,7.68h-1.16l-4.6-7.56V0h-2.48V-14h2.14l5.56,9.28,5.46-9.28h2.14l.02,14ZM-5.144-14a7.751,7.751,0,0,1,3.17.6A4.609,4.609,0,0,1,.1-11.68a4.812,4.812,0,0,1,.72,2.66A4.825,4.825,0,0,1,.1-6.37a4.587,4.587,0,0,1-2.07,1.73,7.751,7.751,0,0,1-3.17.6H-8.3V0h-2.6V-14Zm-.12,7.76a3.994,3.994,0,0,0,2.58-.72A2.509,2.509,0,0,0-1.8-9.02a2.509,2.509,0,0,0-.88-2.06,3.994,3.994,0,0,0-2.58-.72H-8.3v5.56ZM3.34-14h2.6V-2.2h7.32V0H3.34Zm11.9,0h2.6V0h-2.6ZM30.628-3.24h-7L22.248,0h-2.68l6.3-14h2.56l6.32,14h-2.72Zm-.86-2.04-2.64-6.12-2.62,6.12ZM48.892-14V0h-2.14l-7.72-9.48V0h-2.58V-14h2.14l7.72,9.48V-14Zm6.524,2.2h-4.64V-14h11.88v2.2h-4.64V0h-2.6ZM-63.468,18.14l-2.22,2.28V24h-2.6V10h2.6v7.18l6.92-7.18h2.92l-5.88,6.26,6.24,7.74h-3.04Zm15.5,6.06a6.088,6.088,0,0,1-4.52-1.63A6.343,6.343,0,0,1-54.1,17.9V10h2.6v7.8q0,4.12,3.56,4.12,3.54,0,3.54-4.12V10h2.56v7.9a6.366,6.366,0,0,1-1.61,4.67A6.054,6.054,0,0,1-47.964,24.2Zm19.6-7.48a3.694,3.694,0,0,1,1.84,1.27,3.533,3.533,0,0,1,.68,2.21,3.238,3.238,0,0,1-1.4,2.81,7.035,7.035,0,0,1-4.08.99h-6.96V10h6.56a6.442,6.442,0,0,1,3.82.97,3.116,3.116,0,0,1,1.34,2.67,3.506,3.506,0,0,1-.48,1.84A3.286,3.286,0,0,1-28.36,16.72Zm-7.32-4.68V15.9H-32a3.74,3.74,0,0,0,2.09-.49,1.614,1.614,0,0,0,.73-1.43,1.633,1.633,0,0,0-.73-1.45A3.74,3.74,0,0,0-32,12.04Zm4.2,9.92q3.02,0,3.02-2.02t-3.02-2.02h-4.2v4.04Zm18.844-.14V24h-10.5V10h10.22v2.18h-7.62v3.64h6.76v2.14h-6.76v3.86ZM-.652,24l-2.86-4.1a5.331,5.331,0,0,1-.54.02h-3.16V24h-2.6V10h5.76a7.751,7.751,0,0,1,3.17.6,4.609,4.609,0,0,1,2.07,1.72,4.812,4.812,0,0,1,.72,2.66,4.743,4.743,0,0,1-.77,2.72,4.581,4.581,0,0,1-2.21,1.7L2.148,24Zm-.06-9.02a2.509,2.509,0,0,0-.88-2.06,3.994,3.994,0,0,0-2.58-.72h-3.04v5.58h3.04a3.955,3.955,0,0,0,2.58-.73A2.539,2.539,0,0,0-.712,14.98ZM17.172,10V24h-2.14l-7.72-9.48V24H4.732V10h2.14l7.72,9.48V10ZM31.356,21.82V24h-10.5V10h10.22v2.18h-7.62v3.64h6.76v2.14h-6.76v3.86ZM37.02,12.2H32.38V10H44.26v2.2H39.62V24h-2.6Zm19.624,9.62V24h-10.5V10h10.22v2.18h-7.62v3.64H55.5v2.14h-6.76v3.86Zm7.164,2.38a10.681,10.681,0,0,1-3.13-.46,6.532,6.532,0,0,1-2.39-1.22l.9-2.02a7.09,7.09,0,0,0,2.11,1.11,7.672,7.672,0,0,0,2.51.43,4.337,4.337,0,0,0,2.33-.5,1.515,1.515,0,0,0,.77-1.32,1.278,1.278,0,0,0-.43-.99,3.019,3.019,0,0,0-1.09-.61q-.66-.22-1.8-.5A20.982,20.982,0,0,1,61,17.36a4.262,4.262,0,0,1-1.7-1.19,3.206,3.206,0,0,1-.71-2.19,3.736,3.736,0,0,1,.63-2.11,4.263,4.263,0,0,1,1.9-1.51,7.7,7.7,0,0,1,3.11-.56,10.045,10.045,0,0,1,2.52.32,6.966,6.966,0,0,1,2.14.92l-.82,2.02a8.09,8.09,0,0,0-1.92-.82,7.182,7.182,0,0,0-1.94-.28,4.053,4.053,0,0,0-2.29.52,1.6,1.6,0,0,0-.75,1.38,1.248,1.248,0,0,0,.43.98,3.107,3.107,0,0,0,1.09.6q.66.22,1.8.5a18.941,18.941,0,0,1,2.56.75,4.384,4.384,0,0,1,1.71,1.19,3.136,3.136,0,0,1,.71,2.16,3.688,3.688,0,0,1-.63,2.1,4.285,4.285,0,0,1-1.91,1.5A7.77,7.77,0,0,1,63.808,24.2Z" transform="translate(253.307 329.946) rotate(13.832)" fill="#fafdfd"/>
  <g id="_1C_Safespring_Logotyp_Vit_RGB" data-name="1C_Safespring_Logotyp_Vit_RGB" transform="translate(453.031 473.921) rotate(-14)">
    <path id="Path_155" data-name="Path 155" d="M30.578,9.411a10.552,10.552,0,0,0-20.98,0A10.552,10.552,0,0,0,10.759,30.47h9.325a5.891,5.891,0,0,0,0-11.782,3.437,3.437,0,1,1,2.433-5.876,1.227,1.227,0,1,0,1.74-1.731,5.891,5.891,0,1,0-4.17,10.042,3.437,3.437,0,0,1,0,6.874H10.759a8.1,8.1,0,0,1,0-16.2,1.224,1.224,0,0,0,1.224-1.224,8.1,8.1,0,1,1,16.2,0A1.227,1.227,0,0,0,29.412,11.8a8.1,8.1,0,1,1,0,16.2,1.227,1.227,0,0,0,0,2.454A10.552,10.552,0,0,0,30.575,9.408Z" transform="translate(0)" fill="#fff"/>
    <path id="Path_156" data-name="Path 156" d="M8.221,6.714c-.6-.241-1.146-.422-1.929-.69-1.414-.452-2.8-.965-2.8-2.141s.9-1.776,2.288-1.776A5.242,5.242,0,0,1,9.4,3.645l1.206-1.779A6.266,6.266,0,0,0,5.728,0C3.2,0,.9,1.447.9,4.094A3.689,3.689,0,0,0,3.163,7.528a10.57,10.57,0,0,0,1.957.754c.965.332,3.226.811,3.226,2.388S6.928,12.716,5.6,12.716a5.879,5.879,0,0,1-4.221-2.047L0,12.355a6.857,6.857,0,0,0,5.571,2.56,6.1,6.1,0,0,0,3.974-1.266,4.061,4.061,0,0,0,1.474-3.25,3.531,3.531,0,0,0-1.143-2.65A5.5,5.5,0,0,0,8.221,6.714Z" transform="translate(46.128 15.881)" fill="#fff"/>
    <path id="Path_157" data-name="Path 157" d="M6.051,0A11.013,11.013,0,0,0,.69,1.447l.874,1.927A8.775,8.775,0,0,1,5.87,2.138c2.077,0,3.554,1.085,3.554,3.253v.573L5.6,6.114C2.282,6.262,0,7.679,0,10.479s2.288,4.426,4.935,4.426A5.853,5.853,0,0,0,9.485,12.78l.03,1.809h2.8V6.262c0-2.439-.57-3.642-1.535-4.637S8.429,0,6.051,0Zm3.4,10.781a4.5,4.5,0,0,1-3.645,2.077c-1.866,0-2.951-1.116-2.951-2.469S3.793,8.04,6.111,7.92l3.343-.211Z" transform="translate(58.77 15.881)" fill="#fff"/>
    <path id="Path_158" data-name="Path 158" d="M7.257,0A7.1,7.1,0,0,0,0,7.407c0,4.516,2.921,7.5,7.166,7.5s6.111-2.11,6.292-2.258l-1.206-1.658a7.908,7.908,0,0,1-4.727,1.658A4.409,4.409,0,0,1,2.918,8.1H13.94a12.475,12.475,0,0,0,.091-1.266A6.53,6.53,0,0,0,7.257,0ZM2.952,6.174a4.209,4.209,0,0,1,4.221-4.1,4.149,4.149,0,0,1,4.124,4.1Z" transform="translate(80.6 15.881)" fill="#fff"/>
    <path id="Path_159" data-name="Path 159" d="M8.227,6.714c-.6-.241-1.146-.422-1.926-.69-1.417-.452-2.8-.965-2.8-2.141s.9-1.776,2.288-1.776A5.25,5.25,0,0,1,9.406,3.645l1.206-1.779A6.266,6.266,0,0,0,5.734,0C3.2,0,.911,1.447.911,4.094A3.689,3.689,0,0,0,3.169,7.528a10.743,10.743,0,0,0,1.957.754c.962.332,3.223.811,3.223,2.379s-1.414,2.047-2.74,2.047A5.872,5.872,0,0,1,1.387,10.66L0,12.346a6.857,6.857,0,0,0,5.571,2.56,6.091,6.091,0,0,0,3.974-1.266,4.064,4.064,0,0,0,1.477-3.25,3.53,3.53,0,0,0-1.146-2.65A5.466,5.466,0,0,0,8.227,6.714Z" transform="translate(95.659 15.881)" fill="#fff"/>
    <path id="Path_160" data-name="Path 160" d="M7.9,0A6.066,6.066,0,0,0,2.831,2.531h-.06V.273H0V20.017H2.891v-7.7l.03.03a5.557,5.557,0,0,0,4.938,2.56c4.245,0,6.955-3.253,6.955-7.5S12.119,0,7.9,0ZM7.3,12.438c-2.861,0-4.546-2.2-4.546-5.059S4.441,2.35,7.3,2.35s4.547,2.168,4.547,5.029S10.163,12.438,7.3,12.438Z" transform="translate(108.321 15.879)" fill="#fff"/>
    <rect id="Rectangle_29" data-name="Rectangle 29" width="2.891" height="14.302" transform="translate(134.848 16.152)" fill="#fff"/>
    <path id="Path_161" data-name="Path 161" d="M7.326,0a4.824,4.824,0,0,0-4.375,2.53h-.09L2.891.273H0V14.59H2.891V7.379c0-2.74.995-5,3.675-5,2.557,0,2.978,1.809,2.978,4.221V14.59h2.891V6.116C12.445,2.682,11.393,0,7.326,0Z" transform="translate(140.157 15.879)" fill="#fff"/>
    <path id="Path_162" data-name="Path 162" d="M11.954.271l.03,2.258h-.091A5.717,5.717,0,0,0,6.895,0,6.786,6.786,0,0,0,0,7.2a6.786,6.786,0,0,0,6.895,7.2,5.726,5.726,0,0,0,5-2.56h.06V12.4A6.448,6.448,0,0,1,10.871,16.4a4.881,4.881,0,0,1-3.919,1.565,9.085,9.085,0,0,1-5.125-1.809L.473,18.176a10.986,10.986,0,0,0,6.382,2.138c3.554,0,5.33-1.444,6.385-2.741s1.565-3.015,1.565-6.171V.271ZM7.5,12.029c-2.921,0-4.546-2.138-4.546-4.848S4.576,2.3,7.5,2.3s4.546,2.168,4.546,4.878S10.449,12.044,7.5,12.044Z" transform="translate(154.221 15.881)" fill="#fff"/>
    <path id="Path_163" data-name="Path 163" d="M.965,1.566A6.032,6.032,0,0,0,0,5.392V21.123H2.861V9.154h3.4V6.836h-3.4V5.241c0-1.628.3-3.042,2.2-3.042a5.49,5.49,0,0,1,1.206.154V.17A9.293,9.293,0,0,0,4.4,0,4.332,4.332,0,0,0,.965,1.566Z" transform="translate(73.512 9.347)" fill="#fff"/>
    <path id="Path_164" data-name="Path 164" d="M2.952,2.475H2.861l.03-2.2H0V14.595H2.891V7.444a6.391,6.391,0,0,1,.871-3.618A3.014,3.014,0,0,1,6.111,2.62a3.789,3.789,0,0,1,1.568.3V.145A4.763,4.763,0,0,0,6.473,0,3.749,3.749,0,0,0,2.952,2.475Z" transform="translate(124.739 15.875)" fill="#fff"/>
    <ellipse id="Ellipse_1" data-name="Ellipse 1" cx="1.881" cy="1.881" rx="1.881" ry="1.881" transform="translate(134.395 9.348)" fill="#fff"/>
  </g>
  <path id="Path_185" data-name="Path 185" d="M-24.81-4.94V0h-2.6V-4.9l-5.5-9.1h2.78l4.1,6.82L-21.89-14h2.56ZM-11.67.2a7.983,7.983,0,0,1-3.86-.93,6.887,6.887,0,0,1-2.7-2.58A7.088,7.088,0,0,1-19.21-7a7.088,7.088,0,0,1,.98-3.69,6.887,6.887,0,0,1,2.7-2.58,7.983,7.983,0,0,1,3.86-.93,7.983,7.983,0,0,1,3.86.93,6.909,6.909,0,0,1,2.7,2.57A7.073,7.073,0,0,1-4.13-7a7.073,7.073,0,0,1-.98,3.7A6.909,6.909,0,0,1-7.81-.73,7.983,7.983,0,0,1-11.67.2Zm0-2.28a5.05,5.05,0,0,0,2.52-.63A4.557,4.557,0,0,0-7.39-4.47,5.043,5.043,0,0,0-6.75-7a5.043,5.043,0,0,0-.64-2.53,4.557,4.557,0,0,0-1.76-1.76,5.05,5.05,0,0,0-2.52-.63,5.05,5.05,0,0,0-2.52.63,4.557,4.557,0,0,0-1.76,1.76A5.043,5.043,0,0,0-16.59-7a5.043,5.043,0,0,0,.64,2.53,4.557,4.557,0,0,0,1.76,1.76A5.05,5.05,0,0,0-11.67-2.08ZM4.67.2A6.088,6.088,0,0,1,.15-1.43,6.343,6.343,0,0,1-1.47-6.1V-14h2.6v7.8q0,4.12,3.56,4.12,3.54,0,3.54-4.12V-14h2.56v7.9A6.366,6.366,0,0,1,9.18-1.43,6.054,6.054,0,0,1,4.67.2ZM23.61,0,20.75-4.1a5.332,5.332,0,0,1-.54.02H17.05V0h-2.6V-14h5.76a7.751,7.751,0,0,1,3.17.6,4.609,4.609,0,0,1,2.07,1.72,4.812,4.812,0,0,1,.72,2.66A4.743,4.743,0,0,1,25.4-6.3a4.581,4.581,0,0,1-2.21,1.7L26.41,0Zm-.06-9.02a2.509,2.509,0,0,0-.88-2.06,3.994,3.994,0,0,0-2.58-.72H17.05v5.58h3.04a3.955,3.955,0,0,0,2.58-.73A2.539,2.539,0,0,0,23.55-9.02ZM-38.44,24.2a10.681,10.681,0,0,1-3.13-.46,6.532,6.532,0,0,1-2.39-1.22l.9-2.02a7.09,7.09,0,0,0,2.11,1.11,7.672,7.672,0,0,0,2.51.43,4.337,4.337,0,0,0,2.33-.5,1.515,1.515,0,0,0,.77-1.32,1.278,1.278,0,0,0-.43-.99,3.019,3.019,0,0,0-1.09-.61q-.66-.22-1.8-.5a20.982,20.982,0,0,1-2.59-.76,4.262,4.262,0,0,1-1.7-1.19,3.206,3.206,0,0,1-.71-2.19,3.736,3.736,0,0,1,.63-2.11,4.263,4.263,0,0,1,1.9-1.51,7.7,7.7,0,0,1,3.11-.56,10.045,10.045,0,0,1,2.52.32,6.966,6.966,0,0,1,2.14.92l-.82,2.02a8.09,8.09,0,0,0-1.92-.82,7.182,7.182,0,0,0-1.94-.28,4.053,4.053,0,0,0-2.29.52,1.6,1.6,0,0,0-.75,1.38,1.248,1.248,0,0,0,.43.98,3.107,3.107,0,0,0,1.09.6q.66.22,1.8.5a18.941,18.941,0,0,1,2.56.75,4.384,4.384,0,0,1,1.71,1.19,3.136,3.136,0,0,1,.71,2.16,3.688,3.688,0,0,1-.63,2.1,4.285,4.285,0,0,1-1.91,1.5A7.77,7.77,0,0,1-38.44,24.2Zm18.76-2.38V24h-10.5V10h10.22v2.18h-7.62v3.64h6.76v2.14h-6.76v3.86ZM-7.6,24l-2.86-4.1a5.331,5.331,0,0,1-.54.02h-3.16V24h-2.6V10H-11a7.751,7.751,0,0,1,3.17.6,4.609,4.609,0,0,1,2.07,1.72,4.812,4.812,0,0,1,.72,2.66,4.743,4.743,0,0,1-.77,2.72,4.581,4.581,0,0,1-2.21,1.7L-4.8,24Zm-.06-9.02a2.509,2.509,0,0,0-.88-2.06,3.994,3.994,0,0,0-2.58-.72h-3.04v5.58h3.04a3.955,3.955,0,0,0,2.58-.73A2.539,2.539,0,0,0-7.66,14.98ZM10.68,10,4.58,24H2.02L-4.1,10h2.82L3.38,20.8,8.08,10Zm1.5,0h2.6V24h-2.6ZM25.06,24.2a7.884,7.884,0,0,1-3.83-.93,6.856,6.856,0,0,1-2.68-2.57,7.129,7.129,0,0,1-.97-3.7,7.073,7.073,0,0,1,.98-3.7,6.928,6.928,0,0,1,2.69-2.57,7.884,7.884,0,0,1,3.83-.93,7.989,7.989,0,0,1,3.14.6,6.4,6.4,0,0,1,2.4,1.74l-1.68,1.58a4.9,4.9,0,0,0-3.74-1.64,5.244,5.244,0,0,0-2.58.63,4.538,4.538,0,0,0-1.78,1.75,5.36,5.36,0,0,0,0,5.08,4.538,4.538,0,0,0,1.78,1.75,5.244,5.244,0,0,0,2.58.63,4.873,4.873,0,0,0,3.74-1.66l1.68,1.6a6.387,6.387,0,0,1-2.41,1.74A8.062,8.062,0,0,1,25.06,24.2Zm18.58-2.38V24H33.14V10H43.36v2.18H35.74v3.64H42.5v2.14H35.74v3.86Z" transform="translate(302.547 199.678) rotate(14)" fill="#fafdfd"/>
  <path id="Path_184" data-name="Path 184" d="M-54.05-14V0h-2.14l-7.72-9.48V0h-2.58V-14h2.14l7.72,9.48V-14ZM-43.73.2a7.983,7.983,0,0,1-3.86-.93,6.887,6.887,0,0,1-2.7-2.58A7.088,7.088,0,0,1-51.27-7a7.088,7.088,0,0,1,.98-3.69,6.887,6.887,0,0,1,2.7-2.58,7.983,7.983,0,0,1,3.86-.93,7.983,7.983,0,0,1,3.86.93,6.909,6.909,0,0,1,2.7,2.57A7.073,7.073,0,0,1-36.19-7a7.073,7.073,0,0,1-.98,3.7,6.909,6.909,0,0,1-2.7,2.57A7.983,7.983,0,0,1-43.73.2Zm0-2.28a5.05,5.05,0,0,0,2.52-.63,4.557,4.557,0,0,0,1.76-1.76A5.043,5.043,0,0,0-38.81-7a5.043,5.043,0,0,0-.64-2.53,4.557,4.557,0,0,0-1.76-1.76,5.05,5.05,0,0,0-2.52-.63,5.05,5.05,0,0,0-2.52.63,4.557,4.557,0,0,0-1.76,1.76A5.043,5.043,0,0,0-48.65-7a5.043,5.043,0,0,0,.64,2.53,4.557,4.557,0,0,0,1.76,1.76A5.05,5.05,0,0,0-43.73-2.08ZM-24.25,0l-2.86-4.1a5.332,5.332,0,0,1-.54.02h-3.16V0h-2.6V-14h5.76a7.751,7.751,0,0,1,3.17.6,4.609,4.609,0,0,1,2.07,1.72,4.812,4.812,0,0,1,.72,2.66,4.743,4.743,0,0,1-.77,2.72,4.581,4.581,0,0,1-2.21,1.7L-21.45,0Zm-.06-9.02a2.509,2.509,0,0,0-.88-2.06,3.994,3.994,0,0,0-2.58-.72h-3.04v5.58h3.04a3.955,3.955,0,0,0,2.58-.73A2.539,2.539,0,0,0-24.31-9.02ZM1.69-14-2.95,0H-5.71L-9.17-10.36-12.69,0h-2.78l-4.64-14h2.7l3.48,10.64L-10.31-14h2.4L-4.37-3.3-.79-14ZM14.33-2.18V0H3.83V-14H14.05v2.18H6.43v3.64h6.76v2.14H6.43v3.86ZM26.75-7.16h2.46v5.58A7.822,7.822,0,0,1,26.69-.26,9.669,9.669,0,0,1,23.73.2a7.983,7.983,0,0,1-3.86-.93,6.909,6.909,0,0,1-2.7-2.57A7.073,7.073,0,0,1,16.19-7a7.073,7.073,0,0,1,.98-3.7,6.892,6.892,0,0,1,2.71-2.57,8.083,8.083,0,0,1,3.89-.93,8.494,8.494,0,0,1,3.2.58,6.279,6.279,0,0,1,2.42,1.7l-1.64,1.6a5.26,5.26,0,0,0-3.86-1.6,5.454,5.454,0,0,0-2.63.62,4.521,4.521,0,0,0-1.8,1.74A5.006,5.006,0,0,0,18.81-7a4.928,4.928,0,0,0,.65,2.52,4.661,4.661,0,0,0,1.8,1.76,5.275,5.275,0,0,0,2.61.64,5.632,5.632,0,0,0,2.88-.72ZM32.65-14h2.6V0h-2.6ZM48.13-3.24h-7L39.75,0H37.07l6.3-14h2.56L52.25,0H49.53Zm-.86-2.04L44.63-11.4,42.01-5.28ZM66.49-14V0H64.35L56.63-9.48V0H54.05V-14h2.14l7.72,9.48V-14ZM-93.1,10h2.6V24h-2.6Zm18.84,0V24H-76.4l-7.72-9.48V24H-86.7V10h2.14l7.72,9.48V10Zm6.38,2.18v4.26h6.76v2.2h-6.76V24h-2.6V10h10.22v2.18ZM-48.56,24l-2.86-4.1a5.331,5.331,0,0,1-.54.02h-3.16V24h-2.6V10h5.76a7.751,7.751,0,0,1,3.17.6,4.609,4.609,0,0,1,2.07,1.72A4.812,4.812,0,0,1-46,14.98a4.743,4.743,0,0,1-.77,2.72,4.581,4.581,0,0,1-2.21,1.7l3.22,4.6Zm-.06-9.02a2.509,2.509,0,0,0-.88-2.06,3.994,3.994,0,0,0-2.58-.72h-3.04v5.58h3.04a3.955,3.955,0,0,0,2.58-.73A2.539,2.539,0,0,0-48.62,14.98ZM-34,20.76h-7L-42.38,24h-2.68l6.3-14h2.56l6.32,14H-32.6Zm-.86-2.04L-37.5,12.6l-2.62,6.12Zm11.12,5.48a10.681,10.681,0,0,1-3.13-.46,6.532,6.532,0,0,1-2.39-1.22l.9-2.02a7.09,7.09,0,0,0,2.11,1.11,7.672,7.672,0,0,0,2.51.43,4.337,4.337,0,0,0,2.33-.5,1.515,1.515,0,0,0,.77-1.32,1.278,1.278,0,0,0-.43-.99,3.019,3.019,0,0,0-1.09-.61q-.66-.22-1.8-.5a20.982,20.982,0,0,1-2.59-.76,4.262,4.262,0,0,1-1.7-1.19,3.206,3.206,0,0,1-.71-2.19,3.736,3.736,0,0,1,.63-2.11,4.263,4.263,0,0,1,1.9-1.51,7.7,7.7,0,0,1,3.11-.56,10.045,10.045,0,0,1,2.52.32,6.966,6.966,0,0,1,2.14.92l-.82,2.02a8.09,8.09,0,0,0-1.92-.82,7.182,7.182,0,0,0-1.94-.28,4.053,4.053,0,0,0-2.29.52,1.6,1.6,0,0,0-.75,1.38,1.248,1.248,0,0,0,.43.98,3.107,3.107,0,0,0,1.09.6q.66.22,1.8.5a18.941,18.941,0,0,1,2.56.75,4.384,4.384,0,0,1,1.71,1.19,3.136,3.136,0,0,1,.71,2.16,3.688,3.688,0,0,1-.63,2.1,4.285,4.285,0,0,1-1.91,1.5A7.77,7.77,0,0,1-23.74,24.2Zm10.9-12h-4.64V10H-5.6v2.2h-4.64V24h-2.6ZM5.54,24,2.68,19.9a5.331,5.331,0,0,1-.54.02H-1.02V24h-2.6V10H2.14a7.751,7.751,0,0,1,3.17.6,4.609,4.609,0,0,1,2.07,1.72,4.812,4.812,0,0,1,.72,2.66,4.743,4.743,0,0,1-.77,2.72,4.581,4.581,0,0,1-2.21,1.7L8.34,24Zm-.06-9.02a2.509,2.509,0,0,0-.88-2.06,3.994,3.994,0,0,0-2.58-.72H-1.02v5.58H2.02a3.955,3.955,0,0,0,2.58-.73A2.539,2.539,0,0,0,5.48,14.98ZM17.04,24.2a6.088,6.088,0,0,1-4.52-1.63A6.343,6.343,0,0,1,10.9,17.9V10h2.6v7.8q0,4.12,3.56,4.12,3.54,0,3.54-4.12V10h2.56v7.9a6.366,6.366,0,0,1-1.61,4.67A6.054,6.054,0,0,1,17.04,24.2Zm16.26,0a7.884,7.884,0,0,1-3.83-.93,6.856,6.856,0,0,1-2.68-2.57,7.129,7.129,0,0,1-.97-3.7,7.073,7.073,0,0,1,.98-3.7,6.928,6.928,0,0,1,2.69-2.57,7.884,7.884,0,0,1,3.83-.93,7.989,7.989,0,0,1,3.14.6,6.4,6.4,0,0,1,2.4,1.74l-1.68,1.58a4.9,4.9,0,0,0-3.74-1.64,5.244,5.244,0,0,0-2.58.63,4.538,4.538,0,0,0-1.78,1.75,5.36,5.36,0,0,0,0,5.08,4.538,4.538,0,0,0,1.78,1.75,5.244,5.244,0,0,0,2.58.63,4.873,4.873,0,0,0,3.74-1.66l1.68,1.6a6.387,6.387,0,0,1-2.41,1.74A8.062,8.062,0,0,1,33.3,24.2Zm10.76-12H39.42V10H51.3v2.2H46.66V24h-2.6Zm14.98,12a6.088,6.088,0,0,1-4.52-1.63A6.343,6.343,0,0,1,52.9,17.9V10h2.6v7.8q0,4.12,3.56,4.12,3.54,0,3.54-4.12V10h2.56v7.9a6.366,6.366,0,0,1-1.61,4.67A6.054,6.054,0,0,1,59.04,24.2ZM77.98,24l-2.86-4.1a5.332,5.332,0,0,1-.54.02H71.42V24h-2.6V10h5.76a7.751,7.751,0,0,1,3.17.6,4.609,4.609,0,0,1,2.07,1.72,4.812,4.812,0,0,1,.72,2.66,4.743,4.743,0,0,1-.77,2.72,4.581,4.581,0,0,1-2.21,1.7L80.78,24Zm-.06-9.02a2.509,2.509,0,0,0-.88-2.06,3.994,3.994,0,0,0-2.58-.72H71.42v5.58h3.04a3.955,3.955,0,0,0,2.58-.73A2.539,2.539,0,0,0,77.92,14.98Zm16.04,6.84V24H83.46V10H93.68v2.18H86.06v3.64h6.76v2.14H86.06v3.86Z" transform="translate(199.563 466.183) rotate(14)" fill="#fafdfd"/>
  <path id="Path_183" data-name="Path 183" d="M-56.49-14a7.751,7.751,0,0,1,3.17.6,4.609,4.609,0,0,1,2.07,1.72,4.812,4.812,0,0,1,.72,2.66,4.825,4.825,0,0,1-.72,2.65,4.587,4.587,0,0,1-2.07,1.73,7.751,7.751,0,0,1-3.17.6h-3.16V0h-2.6V-14Zm-.12,7.76a3.994,3.994,0,0,0,2.58-.72,2.509,2.509,0,0,0,.88-2.06,2.509,2.509,0,0,0-.88-2.06,3.994,3.994,0,0,0-2.58-.72h-3.04v5.56Zm8.7-7.76h2.6V-2.2h7.32V0h-9.92ZM-26.73-3.24h-7L-35.11,0h-2.68l6.3-14h2.56l6.32,14h-2.72Zm-.86-2.04-2.64-6.12-2.62,6.12Zm8.92-6.52h-4.64V-14h11.88v2.2h-4.64V0h-2.6Zm12.26,0h-4.64V-14H.83v2.2H-3.81V0h-2.6Zm11.82-.02v4.26h6.76v2.2H5.41V0H2.81V-14H13.03v2.18ZM21.95.2a7.983,7.983,0,0,1-3.86-.93,6.887,6.887,0,0,1-2.7-2.58A7.088,7.088,0,0,1,14.41-7a7.088,7.088,0,0,1,.98-3.69,6.887,6.887,0,0,1,2.7-2.58,7.983,7.983,0,0,1,3.86-.93,7.983,7.983,0,0,1,3.86.93,6.909,6.909,0,0,1,2.7,2.57A7.073,7.073,0,0,1,29.49-7a7.073,7.073,0,0,1-.98,3.7,6.909,6.909,0,0,1-2.7,2.57A7.983,7.983,0,0,1,21.95.2Zm0-2.28a5.05,5.05,0,0,0,2.52-.63,4.557,4.557,0,0,0,1.76-1.76A5.043,5.043,0,0,0,26.87-7a5.043,5.043,0,0,0-.64-2.53,4.557,4.557,0,0,0-1.76-1.76,5.05,5.05,0,0,0-2.52-.63,5.05,5.05,0,0,0-2.52.63,4.557,4.557,0,0,0-1.76,1.76A5.043,5.043,0,0,0,17.03-7a5.043,5.043,0,0,0,.64,2.53,4.557,4.557,0,0,0,1.76,1.76A5.05,5.05,0,0,0,21.95-2.08ZM41.43,0,38.57-4.1a5.332,5.332,0,0,1-.54.02H34.87V0h-2.6V-14h5.76a7.751,7.751,0,0,1,3.17.6,4.609,4.609,0,0,1,2.07,1.72,4.812,4.812,0,0,1,.72,2.66,4.743,4.743,0,0,1-.77,2.72,4.581,4.581,0,0,1-2.21,1.7L44.23,0Zm-.06-9.02a2.509,2.509,0,0,0-.88-2.06,3.994,3.994,0,0,0-2.58-.72H34.87v5.58h3.04a3.955,3.955,0,0,0,2.58-.73A2.539,2.539,0,0,0,41.37-9.02ZM59.77,0l-.02-9.28L55.15-1.6H53.99l-4.6-7.56V0H46.91V-14h2.14l5.56,9.28L60.07-14h2.14l.02,14Z" transform="translate(486.93 344.755) rotate(-14)" fill="#fafdfd"/>
  <path id="Path_182" data-name="Path 182" d="M-22.04-4.94V0h-2.6V-4.9l-5.5-9.1h2.78l4.1,6.82L-19.12-14h2.56ZM-8.9.2a7.983,7.983,0,0,1-3.86-.93,6.887,6.887,0,0,1-2.7-2.58A7.088,7.088,0,0,1-16.44-7a7.088,7.088,0,0,1,.98-3.69,6.887,6.887,0,0,1,2.7-2.58A7.983,7.983,0,0,1-8.9-14.2a7.983,7.983,0,0,1,3.86.93,6.909,6.909,0,0,1,2.7,2.57A7.073,7.073,0,0,1-1.36-7a7.073,7.073,0,0,1-.98,3.7A6.909,6.909,0,0,1-5.04-.73,7.983,7.983,0,0,1-8.9.2Zm0-2.28a5.05,5.05,0,0,0,2.52-.63A4.557,4.557,0,0,0-4.62-4.47,5.043,5.043,0,0,0-3.98-7a5.043,5.043,0,0,0-.64-2.53,4.557,4.557,0,0,0-1.76-1.76,5.05,5.05,0,0,0-2.52-.63,5.05,5.05,0,0,0-2.52.63,4.557,4.557,0,0,0-1.76,1.76A5.043,5.043,0,0,0-13.82-7a5.043,5.043,0,0,0,.64,2.53,4.557,4.557,0,0,0,1.76,1.76A5.05,5.05,0,0,0-8.9-2.08ZM7.44.2A6.088,6.088,0,0,1,2.92-1.43,6.343,6.343,0,0,1,1.3-6.1V-14H3.9v7.8q0,4.12,3.56,4.12Q11-2.08,11-6.2V-14h2.56v7.9a6.366,6.366,0,0,1-1.61,4.67A6.054,6.054,0,0,1,7.44.2ZM26.38,0,23.52-4.1a5.332,5.332,0,0,1-.54.02H19.82V0h-2.6V-14h5.76a7.751,7.751,0,0,1,3.17.6,4.609,4.609,0,0,1,2.07,1.72,4.812,4.812,0,0,1,.72,2.66,4.743,4.743,0,0,1-.77,2.72,4.581,4.581,0,0,1-2.21,1.7L29.18,0Zm-.06-9.02a2.509,2.509,0,0,0-.88-2.06,3.994,3.994,0,0,0-2.58-.72H19.82v5.58h3.04a3.955,3.955,0,0,0,2.58-.73A2.539,2.539,0,0,0,26.32-9.02ZM-25.07,12.2h-4.64V10h11.88v2.2h-4.64V24h-2.6Zm19.72,9.62V24h-10.5V10H-5.63v2.18h-7.62v3.64h6.76v2.14h-6.76v3.86Zm12-1.06h-7L-1.73,24H-4.41l6.3-14H4.45l6.32,14H8.05Zm-.86-2.04L3.15,12.6.53,18.72ZM25.43,24l-.02-9.28-4.6,7.68H19.65l-4.6-7.56V24H12.57V10h2.14l5.56,9.28L25.73,10h2.14l.02,14Z" transform="translate(439.633 203.307) rotate(-14)" fill="#fafdfd"/>
</svg>
