<svg xmlns="http://www.w3.org/2000/svg" xmlns:xlink="http://www.w3.org/1999/xlink" width="432" height="285" viewBox="0 0 432 285"><defs><style>.a{fill:#32cd32;}.b{fill:#195f8c;}.c,.g{fill:#fff;}.d{clip-path:url(#m);}.e{fill:#fa690f;}.f,.i{fill:#3c9bcd;}.f,.g{stroke:#fff;}.f{stroke-width:0;}.g{stroke-width:0.25px;}.h{clip-path:url(#n);}.j{filter:url(#k);}.k{filter:url(#i);}.l{filter:url(#g);}.m{filter:url(#e);}.n{filter:url(#c);}.o{filter:url(#a);}</style><filter id="a" x="0" y="0" width="144" height="144" filterUnits="userSpaceOnUse"><feOffset dy="3" input="SourceAlpha"/><feGaussianBlur stdDeviation="3" result="b"/><feFlood flood-opacity="0.161"/><feComposite operator="in" in2="b"/><feComposite in="SourceGraphic"/></filter><filter id="c" x="144" y="0" width="144" height="144" filterUnits="userSpaceOnUse"><feOffset dy="3" input="SourceAlpha"/><feGaussianBlur stdDeviation="3" result="d"/><feFlood flood-opacity="0.161"/><feComposite operator="in" in2="d"/><feComposite in="SourceGraphic"/></filter><filter id="e" x="288" y="141" width="144" height="144" filterUnits="userSpaceOnUse"><feOffset dy="3" input="SourceAlpha"/><feGaussianBlur stdDeviation="3" result="f"/><feFlood flood-opacity="0.161"/><feComposite operator="in" in2="f"/><feComposite in="SourceGraphic"/></filter><filter id="g" x="144" y="141" width="144" height="144" filterUnits="userSpaceOnUse"><feOffset dy="3" input="SourceAlpha"/><feGaussianBlur stdDeviation="3" result="h"/><feFlood flood-opacity="0.161"/><feComposite operator="in" in2="h"/><feComposite in="SourceGraphic"/></filter><filter id="i" x="0" y="141" width="144" height="144" filterUnits="userSpaceOnUse"><feOffset dy="3" input="SourceAlpha"/><feGaussianBlur stdDeviation="3" result="j"/><feFlood flood-opacity="0.161"/><feComposite operator="in" in2="j"/><feComposite in="SourceGraphic"/></filter><filter id="k" x="288" y="0" width="144" height="144" filterUnits="userSpaceOnUse"><feOffset dy="3" input="SourceAlpha"/><feGaussianBlur stdDeviation="3" result="l"/><feFlood flood-opacity="0.161"/><feComposite operator="in" in2="l"/><feComposite in="SourceGraphic"/></filter><clipPath id="m"><rect class="a" width="51" height="51" transform="translate(709 200)"/></clipPath><clipPath id="n"><rect class="b" width="51" height="51" transform="translate(565 200)"/></clipPath></defs><g transform="translate(-731 -261)"><g class="o" transform="matrix(1, 0, 0, 1, 731, 261)"><rect class="c" width="126" height="126" rx="7" transform="translate(9 6)"/></g><g class="n" transform="matrix(1, 0, 0, 1, 731, 261)"><rect class="c" width="126" height="126" rx="7" transform="translate(153 6)"/></g><g class="m" transform="matrix(1, 0, 0, 1, 731, 261)"><rect class="c" width="126" height="126" rx="7" transform="translate(297 147)"/></g><g class="l" transform="matrix(1, 0, 0, 1, 731, 261)"><rect class="c" width="126" height="126" rx="7" transform="translate(153 147)"/></g><g class="k" transform="matrix(1, 0, 0, 1, 731, 261)"><rect class="c" width="126" height="126" rx="7" transform="translate(9 147)"/></g><g class="j" transform="matrix(1, 0, 0, 1, 731, 261)"><rect class="c" width="126" height="126" rx="7" transform="translate(297 6)"/></g><g class="d" transform="translate(69 226.993)"><path class="a" d="M17.85,20.4A10.2,10.2,0,1,0,7.65,10.2a10.2,10.2,0,0,0,10.2,10.2Zm7.65,5.1a5.027,5.027,0,0,1,.645-2.43,10.906,10.906,0,0,0-1.155-.12H23.659a13.872,13.872,0,0,1-11.618,0H10.71A10.712,10.712,0,0,0,0,33.658v3.317A3.825,3.825,0,0,0,3.825,40.8H26.209a5.063,5.063,0,0,1-.709-2.55Zm22.95-2.55H45.9V16.575a6.375,6.375,0,1,0-12.75,0V22.95H30.6a2.55,2.55,0,0,0-2.55,2.55V38.25A2.55,2.55,0,0,0,30.6,40.8H48.45A2.55,2.55,0,0,0,51,38.25V25.5A2.55,2.55,0,0,0,48.45,22.95ZM39.525,34.425a2.55,2.55,0,1,1,2.55-2.55A2.55,2.55,0,0,1,39.525,34.425Zm2.55-11.475h-5.1V16.575a2.55,2.55,0,0,1,5.1,0Z" transform="translate(709 205.1)"/></g><g transform="translate(648.62 85.993)"><path class="e" d="M27.761,50.987l-6.077-1.763a1.2,1.2,0,0,1-.817-1.484L34.465.9A1.2,1.2,0,0,1,35.949.083l6.077,1.763a1.2,1.2,0,0,1,.817,1.484l-13.6,46.84A1.194,1.194,0,0,1,27.761,50.987ZM16.4,39.81l4.333-4.622a1.2,1.2,0,0,0-.08-1.713l-9.025-7.939L20.658,17.6a1.187,1.187,0,0,0,.08-1.713L16.4,11.26a1.2,1.2,0,0,0-1.693-.05L.356,24.659a1.188,1.188,0,0,0,0,1.743L14.711,39.86a1.188,1.188,0,0,0,1.693-.05ZM49,39.87,63.354,26.412a1.188,1.188,0,0,0,0-1.743L49,11.2a1.206,1.206,0,0,0-1.693.05l-4.333,4.622a1.2,1.2,0,0,0,.08,1.713l9.025,7.949-9.025,7.939a1.187,1.187,0,0,0-.08,1.713l4.333,4.622A1.2,1.2,0,0,0,49,39.87Z" transform="translate(414.645 199.963)"/></g><g transform="translate(765.296 109.786)"><g transform="translate(16.326 184.752)"><path class="f" d="M38.052,184.756a2.928,2.928,0,0,0-1.115.282l-15.211,7.268a2.89,2.89,0,0,0-1.574,1.957L16.4,210.59a2.865,2.865,0,0,0,.395,2.212q.077.119.165.23l10.529,13.091a2.918,2.918,0,0,0,2.274,1.086l16.884,0a2.918,2.918,0,0,0,2.274-1.084l10.525-13.093a2.867,2.867,0,0,0,.562-2.442L56.249,194.26a2.89,2.89,0,0,0-1.574-1.957l-15.213-7.264A2.929,2.929,0,0,0,38.052,184.756Z" transform="translate(-16.326 -184.752)"/><path class="g" d="M126.156,274.06a.965.965,0,0,0-.91,1.012c0,.009,0,.017,0,.025,0,.076,0,.167,0,.233a7.6,7.6,0,0,0,.125.866,8.5,8.5,0,0,1,.1,1.652.993.993,0,0,1-.3.471l-.021.385a11.859,11.859,0,0,0-1.646.253,11.712,11.712,0,0,0-5.949,3.4c-.1-.069-.276-.195-.329-.233a.72.72,0,0,1-.541-.053,8.5,8.5,0,0,1-1.228-1.109,7.6,7.6,0,0,0-.6-.636c-.056-.048-.14-.112-.2-.161a1.083,1.083,0,0,0-.634-.239.877.877,0,0,0-.726.321.965.965,0,0,0,.224,1.342l.014.01c.06.049.134.111.189.152a7.594,7.594,0,0,0,.755.442,8.5,8.5,0,0,1,1.354.951,1.013,1.013,0,0,1,.183.525l.292.261a11.782,11.782,0,0,0-1.858,8.214l-.381.111a1.262,1.262,0,0,1-.391.395,8.5,8.5,0,0,1-1.632.268,7.614,7.614,0,0,0-.874.07c-.07.013-.167.039-.243.056l-.008,0-.014,0a.914.914,0,1,0,.4,1.774l.014,0,.018-.006c.075-.017.17-.035.235-.053a7.607,7.607,0,0,0,.817-.313,8.509,8.509,0,0,1,1.587-.467,1,1,0,0,1,.523.185l.4-.068a11.848,11.848,0,0,0,5.251,6.556l-.165.4a.9.9,0,0,1,.081.515,8.9,8.9,0,0,1-.824,1.481,7.632,7.632,0,0,0-.488.728c-.036.068-.082.173-.117.245a.914.914,0,1,0,1.644.78l0,0s0,0,0,0c.035-.071.084-.165.113-.232a7.592,7.592,0,0,0,.263-.835,6.366,6.366,0,0,1,.7-1.636.737.737,0,0,1,.392-.191l.206-.374a11.784,11.784,0,0,0,8.4.021c.058.1.166.3.195.35a.721.721,0,0,1,.465.282,8.495,8.495,0,0,1,.624,1.531,7.623,7.623,0,0,0,.265.835c.029.067.078.162.113.233a.915.915,0,1,0,1.646-.778c-.035-.072-.083-.177-.119-.245a7.6,7.6,0,0,0-.488-.726,8.506,8.506,0,0,1-.807-1.445.714.714,0,0,1,.07-.537,3.127,3.127,0,0,1-.152-.368,11.848,11.848,0,0,0,5.249-6.6c.118.019.323.055.389.068a.719.719,0,0,1,.51-.189,8.511,8.511,0,0,1,1.587.467,7.6,7.6,0,0,0,.817.315c.066.018.16.034.235.051l.018.006.014,0a.914.914,0,1,0,.4-1.774c-.078-.018-.189-.048-.265-.062a7.62,7.62,0,0,0-.873-.07,8.5,8.5,0,0,1-1.632-.268,1.021,1.021,0,0,1-.393-.395l-.368-.107a11.828,11.828,0,0,0-1.9-8.194c.094-.086.272-.243.323-.29a.719.719,0,0,1,.171-.516,8.5,8.5,0,0,1,1.354-.951,7.618,7.618,0,0,0,.757-.442c.059-.043.139-.112.2-.161a.915.915,0,1,0-1.134-1.424c-.062.049-.147.113-.2.161a7.619,7.619,0,0,0-.6.636,8.525,8.525,0,0,1-1.228,1.111,1.014,1.014,0,0,1-.553.06l-.346.247a11.932,11.932,0,0,0-7.558-3.652c-.008-.121-.019-.341-.021-.407a.72.72,0,0,1-.3-.455,8.52,8.52,0,0,1,.1-1.652,7.6,7.6,0,0,0,.125-.866c0-.073,0-.18,0-.259a.965.965,0,0,0-.91-1.012Zm-1.14,7.062-.27,4.776-.019.01a.8.8,0,0,1-1.274.615l-.008,0-3.916-2.776a9.379,9.379,0,0,1,4.517-2.461A9.6,9.6,0,0,1,125.016,281.122Zm2.282,0a9.458,9.458,0,0,1,5.455,2.63l-3.891,2.759-.014-.006a.8.8,0,0,1-1.276-.613l0,0Zm-9.19,4.412,3.576,3.2,0,.019a.8.8,0,0,1-.315,1.379l0,.016-4.583,1.323A9.377,9.377,0,0,1,118.108,285.534Zm16.071,0a9.551,9.551,0,0,1,1.372,5.918l-4.607-1.327,0-.019a.8.8,0,0,1-.315-1.379l0-.01Zm-8.756,3.443h1.465l.91,1.138-.327,1.42-1.315.632-1.319-.634-.327-1.42Zm4.7,3.895a.8.8,0,0,1,.185.014l.008-.01,4.741.8a9.389,9.389,0,0,1-3.8,4.768L129.417,294l.006-.008a.806.806,0,0,1,.7-1.121Zm-7.963.019a.8.8,0,0,1,.726,1.119l.014.017-1.821,4.4a9.428,9.428,0,0,1-3.784-4.735l4.7-.8.008.01A.812.812,0,0,1,122.156,292.893Zm3.971,1.928a.81.81,0,0,1,.735.422h.018l2.317,4.187a9.609,9.609,0,0,1-.926.259,9.415,9.415,0,0,1-5.138-.265l2.311-4.179h0A.8.8,0,0,1,126.127,294.821Z" transform="translate(-104.28 -268.5)"/></g></g><g class="h" transform="translate(357 85.993)"><path class="b" d="M46.472,8.338,27.345.369a4.8,4.8,0,0,0-3.676,0L4.543,8.338a4.777,4.777,0,0,0-2.949,4.413C1.594,32.526,13,46.193,23.66,50.636a4.8,4.8,0,0,0,3.676,0C35.873,47.08,49.411,34.8,49.411,12.751A4.783,4.783,0,0,0,46.472,8.338ZM25.512,44.46,25.5,6.505l17.523,7.3C42.7,28.89,34.847,39.818,25.512,44.46Z" transform="translate(564.997 199.998)"/></g><path class="b" d="M30.5,8A22.5,22.5,0,1,0,53,30.5,22.5,22.5,0,0,0,30.5,8ZM46.259,18.847,40.507,24.6A11.742,11.742,0,0,0,36.4,20.493l5.752-5.752A19.814,19.814,0,0,1,46.259,18.847ZM30.5,39.21a8.71,8.71,0,1,1,8.71-8.71A8.71,8.71,0,0,1,30.5,39.21ZM18.847,14.741,24.6,20.493A11.742,11.742,0,0,0,20.493,24.6l-5.752-5.752a19.812,19.812,0,0,1,4.106-4.106ZM14.741,42.153,20.493,36.4A11.742,11.742,0,0,0,24.6,40.507l-5.752,5.752A19.814,19.814,0,0,1,14.741,42.153Zm27.412,4.106L36.4,40.507A11.742,11.742,0,0,0,40.507,36.4l5.752,5.752a19.814,19.814,0,0,1-4.106,4.106Z" transform="translate(916.5 424.994)"/><path class="i" d="M28.358,5.4H21.606a5.4,5.4,0,0,0-10.8,0H4.051A4.052,4.052,0,0,0,0,9.453V39.162a4.052,4.052,0,0,0,4.051,4.051H28.358a4.052,4.052,0,0,0,4.051-4.051V9.453A4.052,4.052,0,0,0,28.358,5.4ZM8.1,35.786a2.026,2.026,0,1,1,2.026-2.026A2.021,2.021,0,0,1,8.1,35.786Zm0-8.1a2.026,2.026,0,1,1,2.026-2.026A2.021,2.021,0,0,1,8.1,27.683Zm0-8.1a2.026,2.026,0,1,1,2.026-2.026A2.021,2.021,0,0,1,8.1,19.581Zm8.1-16.2A2.026,2.026,0,1,1,14.179,5.4,2.021,2.021,0,0,1,16.2,3.376Zm10.8,31.059a.677.677,0,0,1-.675.675H14.179a.677.677,0,0,1-.675-.675v-1.35a.677.677,0,0,1,.675-.675H26.333a.677.677,0,0,1,.675.675Zm0-8.1a.677.677,0,0,1-.675.675H14.179a.677.677,0,0,1-.675-.675v-1.35a.677.677,0,0,1,.675-.675H26.333a.677.677,0,0,1,.675.675Zm0-8.1a.677.677,0,0,1-.675.675H14.179a.677.677,0,0,1-.675-.675V16.88a.677.677,0,0,1,.675-.675H26.333a.677.677,0,0,1,.675.675Z" transform="translate(1074.795 433.887)"/><path class="a" d="M-20.2-7h3.18a4.469,4.469,0,0,1,2.015.435,3.257,3.257,0,0,1,1.36,1.225A3.446,3.446,0,0,1-13.16-3.5a3.446,3.446,0,0,1-.485,1.84,3.257,3.257,0,0,1-1.36,1.225A4.469,4.469,0,0,1-17.02,0H-20.2Zm3.1,5.67a2.352,2.352,0,0,0,1.675-.585A2.066,2.066,0,0,0-14.8-3.5a2.066,2.066,0,0,0-.625-1.585A2.352,2.352,0,0,0-17.1-5.67h-1.48v4.34ZM-11.94-7h1.62V0h-1.62Zm8.01,3.39h1.48V-.77a4.228,4.228,0,0,1-1.32.66A5.125,5.125,0,0,1-5.28.12,4.092,4.092,0,0,1-7.24-.345a3.462,3.462,0,0,1-1.365-1.29A3.554,3.554,0,0,1-9.1-3.5a3.554,3.554,0,0,1,.495-1.865A3.445,3.445,0,0,1-7.23-6.655,4.172,4.172,0,0,1-5.25-7.12a4.333,4.333,0,0,1,1.67.31,3.309,3.309,0,0,1,1.26.9l-1.04.96a2.4,2.4,0,0,0-1.81-.79,2.47,2.47,0,0,0-1.19.28,2.009,2.009,0,0,0-.81.79A2.325,2.325,0,0,0-7.46-3.5a2.305,2.305,0,0,0,.29,1.16,2.051,2.051,0,0,0,.805.795A2.386,2.386,0,0,0-5.19-1.26a2.626,2.626,0,0,0,1.26-.3ZM-.95-7H.67V0H-.95ZM3.78-5.68H1.54V-7h6.1v1.32H5.4V0H3.78ZM12.77-1.5H9.52L8.9,0H7.24l3.12-7h1.6l3.13,7h-1.7Zm-.51-1.23L11.15-5.41,10.04-2.73ZM15.82-7h1.62v5.68h3.51V0H15.82ZM-33.255,13.12a5.727,5.727,0,0,1-1.6-.225A3.764,3.764,0,0,1-36.1,12.31l.55-1.22a3.732,3.732,0,0,0,1.07.53,4.019,4.019,0,0,0,1.24.2,1.981,1.981,0,0,0,1.02-.2.619.619,0,0,0,.33-.545.521.521,0,0,0-.195-.415,1.478,1.478,0,0,0-.5-.265q-.305-.1-.825-.22a11.4,11.4,0,0,1-1.31-.38,2.128,2.128,0,0,1-.875-.61,1.647,1.647,0,0,1-.365-1.12,1.948,1.948,0,0,1,.33-1.1,2.22,2.22,0,0,1,.995-.785,4.06,4.06,0,0,1,1.625-.29,5.381,5.381,0,0,1,1.31.16,3.87,3.87,0,0,1,1.12.46l-.5,1.23a3.9,3.9,0,0,0-1.94-.55,1.819,1.819,0,0,0-1.005.22.672.672,0,0,0-.325.58.567.567,0,0,0,.375.535,5.888,5.888,0,0,0,1.145.345,11.4,11.4,0,0,1,1.31.38,2.169,2.169,0,0,1,.875.6,1.609,1.609,0,0,1,.365,1.11,1.911,1.911,0,0,1-.335,1.1,2.251,2.251,0,0,1-1,.785A4.1,4.1,0,0,1-33.255,13.12Zm7.19,0a3.168,3.168,0,0,1-2.335-.83,3.2,3.2,0,0,1-.835-2.37V6h1.62V9.86q0,1.88,1.56,1.88a1.462,1.462,0,0,0,1.16-.455,2.121,2.121,0,0,0,.4-1.425V6h1.6V9.92a3.2,3.2,0,0,1-.835,2.37A3.168,3.168,0,0,1-26.065,13.12ZM-14.565,6l-3.03,7h-1.6l-3.02-7h1.75l2.13,5,2.16-5Zm6,5.7V13h-5.42V6h5.29V7.3h-3.68V8.82h3.25v1.26h-3.25V11.7Zm5.75,1.3-1.35-1.95h-1.49V13h-1.62V6h3.03a3.889,3.889,0,0,1,1.615.31,2.4,2.4,0,0,1,1.055.88A2.424,2.424,0,0,1-1.2,8.54,2.376,2.376,0,0,1-1.58,9.885a2.377,2.377,0,0,1-1.065.865L-1.075,13Zm-.03-4.46a1.109,1.109,0,0,0-.38-.9,1.7,1.7,0,0,0-1.11-.315h-1.32V9.76h1.32a1.683,1.683,0,0,0,1.11-.32A1.112,1.112,0,0,0-2.845,8.54ZM5.5,11.7V13H.075V6h5.29V7.3H1.685V8.82h3.25v1.26H1.685V11.7ZM13.205,6v7h-1.33L8.385,8.75V13h-1.6V6h1.34l3.48,4.25V6Zm1.66,0h1.62v7h-1.62ZM19.6,7.32h-2.24V6h6.1V7.32h-2.24V13H19.6Zm10.15,4.38V13h-5.42V6h5.29V7.3h-3.68V8.82h3.25v1.26h-3.25V11.7Zm2.74-4.38h-2.24V6h6.1V7.32H34.1V13h-1.62Z" transform="translate(803 499)"/><path class="e" d="M-7.98-1.5h-3.25L-11.85,0h-1.66l3.12-7h1.6l3.13,7h-1.7Zm-.51-1.23L-9.6-5.41l-1.11,2.68ZM-9.6-7.54a1.2,1.2,0,0,1-.875-.35,1.161,1.161,0,0,1-.355-.86,1.161,1.161,0,0,1,.355-.86A1.2,1.2,0,0,1-9.6-9.96a1.227,1.227,0,0,1,.89.35,1.153,1.153,0,0,1,.36.86,1.153,1.153,0,0,1-.36.86A1.227,1.227,0,0,1-9.6-7.54Zm0-.6a.591.591,0,0,0,.435-.175A.591.591,0,0,0-8.99-8.75a.591.591,0,0,0-.175-.435A.591.591,0,0,0-9.6-9.36a.579.579,0,0,0-.425.175.591.591,0,0,0-.175.435.6.6,0,0,0,.17.435A.574.574,0,0,0-9.6-8.14ZM-1.9-7a3.889,3.889,0,0,1,1.615.31A2.4,2.4,0,0,1,.77-5.81a2.424,2.424,0,0,1,.37,1.35A2.431,2.431,0,0,1,.77-3.115a2.356,2.356,0,0,1-1.055.88,3.944,3.944,0,0,1-1.615.3H-3.31V0H-4.93V-7Zm-.09,3.75A1.7,1.7,0,0,0-.88-3.565,1.1,1.1,0,0,0-.5-4.46a1.109,1.109,0,0,0-.38-.9A1.7,1.7,0,0,0-1.99-5.68H-3.31v2.43ZM7.71-1.3V0H2.29V-7H7.58v1.3H3.9v1.52H7.15v1.26H3.9V-1.3ZM15.42-7V0H14.09L10.6-4.25V0H9V-7h1.34l3.48,4.25V-7ZM-27.745,10.25l-.94.98V13H-30.3V6h1.61V9.27l3.1-3.27h1.8l-2.9,3.12,3.07,3.88h-1.89ZM-22.9,6h1.62v7H-22.9Zm3.28,0h1.62v5.68h3.51V13h-5.13Zm6.04,0h3.18a4.469,4.469,0,0,1,2.015.435A3.257,3.257,0,0,1-7.02,7.66,3.446,3.446,0,0,1-6.535,9.5a3.446,3.446,0,0,1-.485,1.84,3.257,3.257,0,0,1-1.36,1.225A4.469,4.469,0,0,1-10.4,13h-3.18Zm3.1,5.67A2.352,2.352,0,0,0-8.8,11.085,2.066,2.066,0,0,0-8.175,9.5,2.066,2.066,0,0,0-8.8,7.915a2.352,2.352,0,0,0-1.675-.585h-1.48v4.34ZM.1,11.7V13h-5.42V6h5.29V7.3h-3.68V8.82h3.25v1.26h-3.25V11.7Zm3.84-1.45-.94.98V13H1.4V6h1.61V9.27L6.105,6h1.8l-2.9,3.12L8.075,13H6.185Zm7.99,2.87a4.086,4.086,0,0,1-1.965-.47,3.488,3.488,0,0,1-1.37-1.3A3.535,3.535,0,0,1,8.105,9.5,3.535,3.535,0,0,1,8.6,7.645a3.488,3.488,0,0,1,1.37-1.3,4.086,4.086,0,0,1,1.965-.47,4.057,4.057,0,0,1,1.96.47,3.57,3.57,0,0,1,0,6.3A4.057,4.057,0,0,1,11.935,13.12Zm0-1.38a2.221,2.221,0,0,0,1.12-.285,2.045,2.045,0,0,0,.785-.8,2.5,2.5,0,0,0,0-2.32,2.045,2.045,0,0,0-.785-.8,2.343,2.343,0,0,0-2.24,0,2.045,2.045,0,0,0-.785.8,2.5,2.5,0,0,0,0,2.32,2.045,2.045,0,0,0,.785.8A2.221,2.221,0,0,0,11.935,11.74ZM16.985,6h3.18a4.469,4.469,0,0,1,2.015.435A3.257,3.257,0,0,1,23.54,7.66a3.446,3.446,0,0,1,.485,1.84,3.446,3.446,0,0,1-.485,1.84,3.257,3.257,0,0,1-1.36,1.225A4.469,4.469,0,0,1,20.165,13h-3.18Zm3.1,5.67a2.352,2.352,0,0,0,1.675-.585A2.066,2.066,0,0,0,22.385,9.5a2.066,2.066,0,0,0-.625-1.585,2.352,2.352,0,0,0-1.675-.585H18.6v4.34Zm10.58.03V13h-5.42V6h5.29V7.3h-3.68V8.82h3.25v1.26h-3.25V11.7Z" transform="translate(1095 358)"/><path class="b" d="M-11.575-7V0h-1.33L-16.4-4.25V0H-18V-7h1.34l3.48,4.25V-7ZM-6.525.12A4.086,4.086,0,0,1-8.49-.35,3.488,3.488,0,0,1-9.86-1.645,3.535,3.535,0,0,1-10.355-3.5,3.535,3.535,0,0,1-9.86-5.355a3.488,3.488,0,0,1,1.37-1.3,4.086,4.086,0,0,1,1.965-.47,4.057,4.057,0,0,1,1.96.47,3.533,3.533,0,0,1,1.37,1.3A3.508,3.508,0,0,1-2.7-3.5a3.508,3.508,0,0,1-.5,1.855A3.533,3.533,0,0,1-4.565-.35,4.057,4.057,0,0,1-6.525.12Zm0-1.38a2.221,2.221,0,0,0,1.12-.285A2.045,2.045,0,0,0-4.62-2.34,2.337,2.337,0,0,0-4.335-3.5,2.337,2.337,0,0,0-4.62-4.66a2.045,2.045,0,0,0-.785-.8,2.221,2.221,0,0,0-1.12-.285,2.221,2.221,0,0,0-1.12.285,2.045,2.045,0,0,0-.785.8A2.337,2.337,0,0,0-8.715-3.5,2.337,2.337,0,0,0-8.43-2.34a2.045,2.045,0,0,0,.785.795A2.221,2.221,0,0,0-6.525-1.26ZM2.985,0,1.635-1.95H.145V0h-1.62V-7h3.03a3.889,3.889,0,0,1,1.615.31,2.4,2.4,0,0,1,1.055.88,2.424,2.424,0,0,1,.37,1.35A2.376,2.376,0,0,1,4.22-3.115a2.377,2.377,0,0,1-1.065.865L4.725,0Zm-.03-4.46a1.109,1.109,0,0,0-.38-.9,1.7,1.7,0,0,0-1.11-.315H.145v2.44h1.32a1.683,1.683,0,0,0,1.11-.32A1.112,1.112,0,0,0,2.955-4.46ZM8.175.12A5.727,5.727,0,0,1,6.57-.1,3.764,3.764,0,0,1,5.325-.69l.55-1.22a3.732,3.732,0,0,0,1.07.53,4.019,4.019,0,0,0,1.24.2,1.981,1.981,0,0,0,1.02-.2.619.619,0,0,0,.33-.545.521.521,0,0,0-.195-.415,1.478,1.478,0,0,0-.5-.265q-.305-.1-.825-.22A11.4,11.4,0,0,1,6.7-3.21a2.128,2.128,0,0,1-.875-.61,1.647,1.647,0,0,1-.365-1.12A1.948,1.948,0,0,1,5.8-6.045,2.22,2.22,0,0,1,6.79-6.83a4.06,4.06,0,0,1,1.625-.29,5.381,5.381,0,0,1,1.31.16,3.87,3.87,0,0,1,1.12.46l-.5,1.23A3.9,3.9,0,0,0,8.4-5.82a1.819,1.819,0,0,0-1,.22.672.672,0,0,0-.325.58.567.567,0,0,0,.375.535A5.888,5.888,0,0,0,8.6-4.14a11.4,11.4,0,0,1,1.31.38,2.169,2.169,0,0,1,.875.6,1.609,1.609,0,0,1,.365,1.11A1.911,1.911,0,0,1,10.81-.955a2.251,2.251,0,0,1-1,.785A4.1,4.1,0,0,1,8.175.12ZM14.8-2.75l-.94.98V0h-1.61V-7h1.61v3.27L16.965-7h1.8l-2.9,3.12L18.935,0h-1.89Zm-37.01,15.87a5.727,5.727,0,0,1-1.6-.225,3.764,3.764,0,0,1-1.245-.585l.55-1.22a3.732,3.732,0,0,0,1.07.53,4.019,4.019,0,0,0,1.24.2,1.981,1.981,0,0,0,1.02-.2.619.619,0,0,0,.33-.545.521.521,0,0,0-.195-.415,1.478,1.478,0,0,0-.5-.265q-.3-.1-.825-.22a11.4,11.4,0,0,1-1.31-.38,2.128,2.128,0,0,1-.875-.61,1.647,1.647,0,0,1-.365-1.12,1.948,1.948,0,0,1,.33-1.1,2.22,2.22,0,0,1,1-.785,4.06,4.06,0,0,1,1.625-.29,5.381,5.381,0,0,1,1.31.16,3.87,3.87,0,0,1,1.12.46l-.5,1.23a3.9,3.9,0,0,0-1.94-.55,1.819,1.819,0,0,0-1.005.22.672.672,0,0,0-.325.58.567.567,0,0,0,.375.535,5.888,5.888,0,0,0,1.145.345,11.4,11.4,0,0,1,1.31.38,2.169,2.169,0,0,1,.875.6,1.609,1.609,0,0,1,.365,1.11,1.911,1.911,0,0,1-.335,1.1,2.251,2.251,0,0,1-1,.785A4.1,4.1,0,0,1-22.205,13.12Zm7.19,0a3.168,3.168,0,0,1-2.335-.83,3.2,3.2,0,0,1-.835-2.37V6h1.62V9.86q0,1.88,1.56,1.88a1.462,1.462,0,0,0,1.16-.455,2.121,2.121,0,0,0,.4-1.425V6h1.6V9.92a3.2,3.2,0,0,1-.835,2.37A3.168,3.168,0,0,1-15.015,13.12ZM-7.215,6A3.889,3.889,0,0,1-5.6,6.31a2.4,2.4,0,0,1,1.055.88,2.424,2.424,0,0,1,.37,1.35,2.431,2.431,0,0,1-.37,1.345,2.356,2.356,0,0,1-1.055.88,3.944,3.944,0,0,1-1.615.3h-1.41V13h-1.62V6Zm-.09,3.75A1.7,1.7,0,0,0-6.2,9.435a1.1,1.1,0,0,0,.38-.895,1.109,1.109,0,0,0-.38-.9,1.7,1.7,0,0,0-1.11-.315h-1.32V9.75ZM0,6a3.889,3.889,0,0,1,1.615.31,2.4,2.4,0,0,1,1.055.88,2.424,2.424,0,0,1,.37,1.35,2.431,2.431,0,0,1-.37,1.345,2.356,2.356,0,0,1-1.055.88A3.944,3.944,0,0,1,0,11.07h-1.41V13h-1.62V6Zm-.09,3.75a1.7,1.7,0,0,0,1.11-.315A1.1,1.1,0,0,0,1.4,8.54a1.109,1.109,0,0,0-.38-.9A1.7,1.7,0,0,0-.085,7.32h-1.32V9.75Zm7.77,3.37a4.086,4.086,0,0,1-1.965-.47,3.488,3.488,0,0,1-1.37-1.3,3.535,3.535,0,0,1-.5-1.855,3.535,3.535,0,0,1,.5-1.855,3.488,3.488,0,0,1,1.37-1.3,4.086,4.086,0,0,1,1.965-.47,4.057,4.057,0,0,1,1.96.47,3.57,3.57,0,0,1,0,6.3A4.057,4.057,0,0,1,7.685,13.12Zm0-1.38a2.221,2.221,0,0,0,1.12-.285,2.045,2.045,0,0,0,.785-.8,2.5,2.5,0,0,0,0-2.32,2.045,2.045,0,0,0-.785-.8,2.343,2.343,0,0,0-2.24,0,2.045,2.045,0,0,0-.785.8,2.5,2.5,0,0,0,0,2.32,2.045,2.045,0,0,0,.785.8A2.221,2.221,0,0,0,7.685,11.74ZM17.195,13l-1.35-1.95h-1.49V13h-1.62V6h3.03a3.889,3.889,0,0,1,1.615.31,2.4,2.4,0,0,1,1.055.88,2.424,2.424,0,0,1,.37,1.35,2.28,2.28,0,0,1-1.44,2.21L18.935,13Zm-.03-4.46a1.109,1.109,0,0,0-.38-.9,1.7,1.7,0,0,0-1.11-.315h-1.32V9.76h1.32a1.683,1.683,0,0,0,1.11-.32A1.112,1.112,0,0,0,17.165,8.54Zm4.27-1.22H19.2V6h6.1V7.32h-2.24V13h-1.62Z" transform="translate(947 500)"/><path class="i" d="M-31.78.12a5.727,5.727,0,0,1-1.6-.225A3.764,3.764,0,0,1-34.63-.69l.55-1.22a3.732,3.732,0,0,0,1.07.53,4.019,4.019,0,0,0,1.24.2,1.981,1.981,0,0,0,1.02-.2.619.619,0,0,0,.33-.545.521.521,0,0,0-.195-.415,1.478,1.478,0,0,0-.5-.265q-.3-.1-.825-.22a11.4,11.4,0,0,1-1.31-.38,2.128,2.128,0,0,1-.875-.61,1.647,1.647,0,0,1-.365-1.12,1.948,1.948,0,0,1,.33-1.105,2.22,2.22,0,0,1,.995-.785,4.06,4.06,0,0,1,1.625-.29,5.381,5.381,0,0,1,1.31.16,3.87,3.87,0,0,1,1.12.46l-.5,1.23a3.9,3.9,0,0,0-1.94-.55,1.819,1.819,0,0,0-1.005.22.672.672,0,0,0-.325.58.567.567,0,0,0,.375.535,5.888,5.888,0,0,0,1.145.345,11.4,11.4,0,0,1,1.31.38,2.169,2.169,0,0,1,.875.6,1.609,1.609,0,0,1,.365,1.11,1.911,1.911,0,0,1-.335,1.095,2.251,2.251,0,0,1-1,.785A4.1,4.1,0,0,1-31.78.12ZM-27.7-7h1.62V0H-27.7Zm5.83,4.25-.94.98V0h-1.61V-7h1.61v3.27L-19.71-7h1.8l-2.9,3.12L-17.74,0h-1.89Zm7.4,0-.94.98V0h-1.61V-7h1.61v3.27L-12.31-7h1.8l-2.9,3.12L-10.34,0h-1.89ZM-4.2-1.3V0H-9.62V-7h5.29v1.3H-8.01v1.52h3.25v1.26H-8.01V-1.3ZM1.55,0,.2-1.95H-1.29V0H-2.91V-7H.12a3.889,3.889,0,0,1,1.615.31,2.4,2.4,0,0,1,1.055.88,2.424,2.424,0,0,1,.37,1.35,2.376,2.376,0,0,1-.375,1.345A2.377,2.377,0,0,1,1.72-2.25L3.29,0ZM1.52-4.46a1.109,1.109,0,0,0-.38-.9A1.7,1.7,0,0,0,.03-5.68H-1.29v2.44H.03a1.683,1.683,0,0,0,1.11-.32A1.112,1.112,0,0,0,1.52-4.46ZM10.86-7V0H9.24V-2.87H6.06V0H4.44V-7H6.06v2.76H9.24V-7Zm7.08,5.7V0H12.52V-7h5.29v1.3H14.13v1.52h3.25v1.26H14.13V-1.3Zm2.74-4.38H18.44V-7h6.1v1.32H22.3V0H20.68ZM27.66.12a5.727,5.727,0,0,1-1.6-.225A3.764,3.764,0,0,1,24.81-.69l.55-1.22a3.732,3.732,0,0,0,1.07.53,4.019,4.019,0,0,0,1.24.2,1.981,1.981,0,0,0,1.02-.2.619.619,0,0,0,.33-.545.521.521,0,0,0-.195-.415,1.478,1.478,0,0,0-.5-.265q-.3-.1-.825-.22a11.4,11.4,0,0,1-1.31-.38,2.128,2.128,0,0,1-.875-.61,1.647,1.647,0,0,1-.365-1.12,1.948,1.948,0,0,1,.33-1.105,2.22,2.22,0,0,1,1-.785A4.06,4.06,0,0,1,27.9-7.12a5.381,5.381,0,0,1,1.31.16,3.87,3.87,0,0,1,1.12.46l-.5,1.23a3.9,3.9,0,0,0-1.94-.55,1.819,1.819,0,0,0-1.005.22.672.672,0,0,0-.325.58.567.567,0,0,0,.375.535,5.888,5.888,0,0,0,1.145.345,11.4,11.4,0,0,1,1.31.38,2.169,2.169,0,0,1,.875.6,1.609,1.609,0,0,1,.365,1.11,1.911,1.911,0,0,1-.335,1.095,2.251,2.251,0,0,1-1,.785A4.1,4.1,0,0,1,27.66.12Zm3.91-3.56H34.4v1.25H31.57ZM-14.4,6v7h-1.62V10.13h-3.18V13h-1.62V6h1.62V8.76h3.18V6Zm7.08,5.7V13h-5.42V6h5.29V7.3h-3.68V8.82h3.25v1.26h-3.25V11.7Zm5.75,1.3-1.35-1.95h-1.49V13h-1.62V6H-3a3.889,3.889,0,0,1,1.615.31,2.4,2.4,0,0,1,1.055.88,2.424,2.424,0,0,1,.37,1.35A2.376,2.376,0,0,1-.33,9.885,2.377,2.377,0,0,1-1.4,10.75L.175,13ZM-1.6,8.54a1.109,1.109,0,0,0-.38-.9,1.7,1.7,0,0,0-1.11-.315h-1.32V9.76h1.32a1.683,1.683,0,0,0,1.11-.32A1.112,1.112,0,0,0-1.6,8.54ZM1.325,6H4.5a4.469,4.469,0,0,1,2.015.435A3.257,3.257,0,0,1,7.88,7.66,3.446,3.446,0,0,1,8.365,9.5a3.446,3.446,0,0,1-.485,1.84,3.257,3.257,0,0,1-1.36,1.225A4.469,4.469,0,0,1,4.5,13H1.325Zm3.1,5.67A2.352,2.352,0,0,0,6.1,11.085,2.066,2.066,0,0,0,6.725,9.5,2.066,2.066,0,0,0,6.1,7.915,2.352,2.352,0,0,0,4.425,7.33H2.945v4.34ZM15,11.7V13H9.585V6h5.29V7.3h-3.68V8.82h3.25v1.26h-3.25V11.7Zm2.74-4.38h-2.24V6h6.1V7.32h-2.24V13h-1.62Z" transform="translate(1091 500)"/><path class="i" d="M-33.22.12a5.727,5.727,0,0,1-1.6-.225A3.764,3.764,0,0,1-36.07-.69l.55-1.22a3.732,3.732,0,0,0,1.07.53,4.019,4.019,0,0,0,1.24.2,1.981,1.981,0,0,0,1.02-.2.619.619,0,0,0,.33-.545.521.521,0,0,0-.2-.415,1.478,1.478,0,0,0-.5-.265q-.3-.1-.825-.22a11.4,11.4,0,0,1-1.31-.38,2.128,2.128,0,0,1-.875-.61,1.647,1.647,0,0,1-.365-1.12,1.948,1.948,0,0,1,.33-1.105A2.22,2.22,0,0,1-34.6-6.83a4.06,4.06,0,0,1,1.625-.29,5.381,5.381,0,0,1,1.31.16,3.87,3.87,0,0,1,1.12.46l-.5,1.23a3.9,3.9,0,0,0-1.94-.55,1.819,1.819,0,0,0-1.005.22.672.672,0,0,0-.325.58.567.567,0,0,0,.375.535A5.888,5.888,0,0,0-32.8-4.14a11.4,11.4,0,0,1,1.31.38,2.169,2.169,0,0,1,.875.6,1.609,1.609,0,0,1,.365,1.11,1.911,1.911,0,0,1-.335,1.095,2.251,2.251,0,0,1-1,.785A4.1,4.1,0,0,1-33.22.12Zm9.5-1.42V0h-5.42V-7h5.29v1.3h-3.68v1.52h3.25v1.26h-3.25V-1.3ZM-17.97,0l-1.35-1.95h-1.49V0h-1.62V-7h3.03a3.889,3.889,0,0,1,1.615.31,2.4,2.4,0,0,1,1.055.88,2.424,2.424,0,0,1,.37,1.35,2.376,2.376,0,0,1-.375,1.345A2.377,2.377,0,0,1-17.8-2.25L-16.23,0ZM-18-4.46a1.109,1.109,0,0,0-.38-.9,1.7,1.7,0,0,0-1.11-.315h-1.32v2.44h1.32a1.683,1.683,0,0,0,1.11-.32A1.112,1.112,0,0,0-18-4.46Zm4.27-1.22h-2.24V-7h6.1v1.32h-2.24V0h-1.62ZM-9-7h1.62V0H-9Zm4.9,1.3v1.85H-.86v1.3H-4.1V0H-5.72V-7H-.43v1.3ZM.67-7H2.29V0H.67ZM6.25.12A5.727,5.727,0,0,1,4.645-.1,3.764,3.764,0,0,1,3.4-.69l.55-1.22a3.732,3.732,0,0,0,1.07.53,4.019,4.019,0,0,0,1.24.2,1.981,1.981,0,0,0,1.02-.2.619.619,0,0,0,.33-.545.521.521,0,0,0-.195-.415,1.478,1.478,0,0,0-.5-.265q-.305-.1-.825-.22a11.4,11.4,0,0,1-1.31-.38,2.128,2.128,0,0,1-.875-.61A1.647,1.647,0,0,1,3.54-4.94a1.948,1.948,0,0,1,.33-1.105,2.22,2.22,0,0,1,.995-.785A4.06,4.06,0,0,1,6.49-7.12a5.381,5.381,0,0,1,1.31.16,3.87,3.87,0,0,1,1.12.46l-.5,1.23a3.9,3.9,0,0,0-1.94-.55,1.819,1.819,0,0,0-1,.22.672.672,0,0,0-.325.58.567.567,0,0,0,.375.535A5.888,5.888,0,0,0,6.67-4.14a11.4,11.4,0,0,1,1.31.38,2.169,2.169,0,0,1,.875.6A1.609,1.609,0,0,1,9.22-2.05,1.911,1.911,0,0,1,8.885-.955a2.251,2.251,0,0,1-1,.785A4.1,4.1,0,0,1,6.25.12Zm9.5-1.42V0H10.33V-7h5.29v1.3H11.94v1.52h3.25v1.26H11.94V-1.3ZM21.5,0,20.15-1.95H18.66V0H17.04V-7h3.03a3.889,3.889,0,0,1,1.615.31,2.4,2.4,0,0,1,1.055.88,2.424,2.424,0,0,1,.37,1.35,2.376,2.376,0,0,1-.375,1.345,2.377,2.377,0,0,1-1.065.865L23.24,0Zm-.03-4.46a1.109,1.109,0,0,0-.38-.9,1.7,1.7,0,0,0-1.11-.315H18.66v2.44h1.32a1.683,1.683,0,0,0,1.11-.32A1.112,1.112,0,0,0,21.47-4.46Zm4.27-1.22H23.5V-7h6.1v1.32H27.36V0H25.74ZM35.89-1.3V0H30.47V-7h5.29v1.3H32.08v1.52h3.25v1.26H32.08V-1.3Zm-60.52,13V13h-5.42V6h5.29V7.3h-3.68V8.82h3.25v1.26h-3.25V11.7Zm3.84-1.45-.94.98V13h-1.61V6h1.61V9.27L-18.63,6h1.8l-2.9,3.12L-16.66,13h-1.89Zm7,2.87a5.727,5.727,0,0,1-1.605-.225,3.764,3.764,0,0,1-1.245-.585l.55-1.22a3.732,3.732,0,0,0,1.07.53,4.019,4.019,0,0,0,1.24.2,1.981,1.981,0,0,0,1.02-.2.619.619,0,0,0,.33-.545.521.521,0,0,0-.195-.415,1.478,1.478,0,0,0-.5-.265q-.305-.1-.825-.22a11.4,11.4,0,0,1-1.31-.38,2.128,2.128,0,0,1-.875-.61A1.647,1.647,0,0,1-16.5,8.06a1.948,1.948,0,0,1,.33-1.1,2.22,2.22,0,0,1,.995-.785,4.06,4.06,0,0,1,1.625-.29,5.381,5.381,0,0,1,1.31.16,3.87,3.87,0,0,1,1.12.46l-.5,1.23a3.9,3.9,0,0,0-1.94-.55,1.819,1.819,0,0,0-1.005.22.672.672,0,0,0-.325.58.567.567,0,0,0,.375.535,5.888,5.888,0,0,0,1.145.345,11.4,11.4,0,0,1,1.31.38,2.169,2.169,0,0,1,.875.6,1.609,1.609,0,0,1,.365,1.11,1.911,1.911,0,0,1-.335,1.1,2.251,2.251,0,0,1-1,.785A4.1,4.1,0,0,1-13.79,13.12ZM-6.68,6a3.889,3.889,0,0,1,1.615.31,2.4,2.4,0,0,1,1.055.88,2.424,2.424,0,0,1,.37,1.35,2.431,2.431,0,0,1-.37,1.345,2.356,2.356,0,0,1-1.055.88,3.944,3.944,0,0,1-1.615.3H-8.09V13H-9.71V6Zm-.09,3.75a1.7,1.7,0,0,0,1.11-.315,1.1,1.1,0,0,0,.38-.895,1.109,1.109,0,0,0-.38-.9A1.7,1.7,0,0,0-6.77,7.32H-8.09V9.75Zm9.7,1.95V13H-2.49V6H2.8V7.3H-.88V8.82H2.37v1.26H-.88V11.7ZM8.68,13,7.33,11.05H5.84V13H4.22V6H7.25a3.889,3.889,0,0,1,1.615.31,2.4,2.4,0,0,1,1.055.88,2.424,2.424,0,0,1,.37,1.35,2.28,2.28,0,0,1-1.44,2.21L10.42,13ZM8.65,8.54a1.109,1.109,0,0,0-.38-.9A1.7,1.7,0,0,0,7.16,7.32H5.84V9.76H7.16a1.683,1.683,0,0,0,1.11-.32A1.112,1.112,0,0,0,8.65,8.54Zm4.27-1.22H10.68V6h6.1V7.32H14.54V13H12.92ZM23.07,11.7V13H17.65V6h5.29V7.3H19.26V8.82h3.25v1.26H19.26V11.7ZM28.82,13l-1.35-1.95H25.98V13H24.36V6h3.03a3.889,3.889,0,0,1,1.615.31,2.4,2.4,0,0,1,1.055.88,2.424,2.424,0,0,1,.37,1.35,2.28,2.28,0,0,1-1.44,2.21L30.56,13Zm-.03-4.46a1.109,1.109,0,0,0-.38-.9A1.7,1.7,0,0,0,27.3,7.32H25.98V9.76H27.3a1.683,1.683,0,0,0,1.11-.32A1.112,1.112,0,0,0,28.79,8.54Z" transform="translate(804 358)"/><path class="b" d="M-29.67-7h1.62V0h-1.62ZM-21.26.12a5.727,5.727,0,0,1-1.6-.225A3.764,3.764,0,0,1-24.11-.69l.55-1.22a3.732,3.732,0,0,0,1.07.53,4.019,4.019,0,0,0,1.24.2,1.981,1.981,0,0,0,1.02-.2.619.619,0,0,0,.33-.545.521.521,0,0,0-.195-.415,1.478,1.478,0,0,0-.5-.265q-.3-.1-.825-.22a11.4,11.4,0,0,1-1.31-.38,2.128,2.128,0,0,1-.875-.61,1.647,1.647,0,0,1-.365-1.12,1.948,1.948,0,0,1,.33-1.105,2.22,2.22,0,0,1,1-.785,4.06,4.06,0,0,1,1.625-.29,5.381,5.381,0,0,1,1.31.16,3.87,3.87,0,0,1,1.12.46l-.5,1.23a3.9,3.9,0,0,0-1.94-.55,1.819,1.819,0,0,0-1.005.22.672.672,0,0,0-.325.58.567.567,0,0,0,.375.535,5.888,5.888,0,0,0,1.145.345,11.4,11.4,0,0,1,1.31.38,2.169,2.169,0,0,1,.875.6,1.609,1.609,0,0,1,.365,1.11,1.911,1.911,0,0,1-.335,1.095,2.251,2.251,0,0,1-1,.785A4.1,4.1,0,0,1-21.26.12Zm8.69-1.62h-3.25L-16.44,0H-18.1l3.12-7h1.6l3.13,7h-1.7Zm-.51-1.23-1.11-2.68L-15.3-2.73ZM-3.15,0l-.01-4.2L-5.22-.74h-.73L-8-4.11V0H-9.52V-7h1.34l2.62,4.35L-2.98-7h1.33l.02,7ZM2.33.12A5.727,5.727,0,0,1,.725-.1,3.764,3.764,0,0,1-.52-.69L.03-1.91a3.732,3.732,0,0,0,1.07.53,4.019,4.019,0,0,0,1.24.2,1.981,1.981,0,0,0,1.02-.2.619.619,0,0,0,.33-.545A.521.521,0,0,0,3.5-2.345,1.478,1.478,0,0,0,3-2.61q-.305-.1-.825-.22A11.4,11.4,0,0,1,.86-3.21a2.128,2.128,0,0,1-.875-.61A1.647,1.647,0,0,1-.38-4.94,1.948,1.948,0,0,1-.05-6.045a2.22,2.22,0,0,1,1-.785A4.06,4.06,0,0,1,2.57-7.12a5.381,5.381,0,0,1,1.31.16A3.87,3.87,0,0,1,5-6.5L4.5-5.27a3.9,3.9,0,0,0-1.94-.55,1.819,1.819,0,0,0-1,.22.672.672,0,0,0-.325.58.567.567,0,0,0,.375.535A5.888,5.888,0,0,0,2.75-4.14a11.4,11.4,0,0,1,1.31.38,2.169,2.169,0,0,1,.875.6A1.609,1.609,0,0,1,5.3-2.05,1.911,1.911,0,0,1,4.965-.955a2.251,2.251,0,0,1-1,.785A4.1,4.1,0,0,1,2.33.12ZM13.14-7,10.11,0H8.51L5.49-7H7.24L9.37-2l2.16-5ZM18.1-1.5H14.85L14.23,0H12.57l3.12-7h1.6l3.13,7h-1.7Zm-.51-1.23L16.48-5.41,15.37-2.73ZM25.61,0,24.26-1.95H22.77V0H21.15V-7h3.03a3.889,3.889,0,0,1,1.615.31,2.4,2.4,0,0,1,1.055.88,2.424,2.424,0,0,1,.37,1.35,2.376,2.376,0,0,1-.375,1.345,2.377,2.377,0,0,1-1.065.865L27.35,0Zm-.03-4.46a1.109,1.109,0,0,0-.38-.9,1.7,1.7,0,0,0-1.11-.315H22.77v2.44h1.32a1.683,1.683,0,0,0,1.11-.32A1.112,1.112,0,0,0,25.58-4.46ZM-21.745,13l-.01-4.2-2.06,3.46h-.73l-2.05-3.37V13h-1.52V6h1.34l2.62,4.35L-21.575,6h1.33l.02,7Zm8.6-1.3V13h-5.42V6h5.29V7.3h-3.68V8.82h3.25v1.26h-3.25V11.7Zm1.29-5.7h3.18a4.469,4.469,0,0,1,2.015.435A3.257,3.257,0,0,1-5.3,7.66,3.446,3.446,0,0,1-4.815,9.5,3.446,3.446,0,0,1-5.3,11.34a3.257,3.257,0,0,1-1.36,1.225A4.469,4.469,0,0,1-8.675,13h-3.18Zm3.1,5.67a2.352,2.352,0,0,0,1.675-.585A2.066,2.066,0,0,0-6.455,9.5,2.066,2.066,0,0,0-7.08,7.915,2.352,2.352,0,0,0-8.755,7.33h-1.48v4.34ZM3.965,9.39h1.48v2.84a4.228,4.228,0,0,1-1.32.66,5.125,5.125,0,0,1-1.51.23,4.092,4.092,0,0,1-1.96-.465A3.462,3.462,0,0,1-.71,11.365,3.554,3.554,0,0,1-1.2,9.5a3.554,3.554,0,0,1,.5-1.865A3.445,3.445,0,0,1,.665,6.345a4.172,4.172,0,0,1,1.98-.465,4.333,4.333,0,0,1,1.67.31,3.309,3.309,0,0,1,1.26.9l-1.04.96a2.4,2.4,0,0,0-1.81-.79,2.47,2.47,0,0,0-1.19.28,2.009,2.009,0,0,0-.81.79,2.485,2.485,0,0,0,0,2.33,2.051,2.051,0,0,0,.805.8,2.386,2.386,0,0,0,1.175.285,2.626,2.626,0,0,0,1.26-.3ZM6.945,6h3.18a4.469,4.469,0,0,1,2.015.435A3.257,3.257,0,0,1,13.5,7.66a3.446,3.446,0,0,1,.485,1.84,3.446,3.446,0,0,1-.485,1.84,3.257,3.257,0,0,1-1.36,1.225A4.469,4.469,0,0,1,10.125,13H6.945Zm3.1,5.67a2.352,2.352,0,0,0,1.675-.585A2.066,2.066,0,0,0,12.345,9.5a2.066,2.066,0,0,0-.625-1.585,2.352,2.352,0,0,0-1.675-.585H8.565v4.34ZM18.235,6a3.889,3.889,0,0,1,1.615.31,2.4,2.4,0,0,1,1.055.88,2.424,2.424,0,0,1,.37,1.35,2.431,2.431,0,0,1-.37,1.345,2.356,2.356,0,0,1-1.055.88,3.944,3.944,0,0,1-1.615.3h-1.41V13H15.2V6Zm-.09,3.75a1.7,1.7,0,0,0,1.11-.315,1.1,1.1,0,0,0,.38-.895,1.109,1.109,0,0,0-.38-.9,1.7,1.7,0,0,0-1.11-.315h-1.32V9.75ZM26.885,13l-1.35-1.95h-1.49V13h-1.62V6h3.03a3.889,3.889,0,0,1,1.615.31,2.4,2.4,0,0,1,1.055.88,2.424,2.424,0,0,1,.37,1.35,2.28,2.28,0,0,1-1.44,2.21L28.625,13Zm-.03-4.46a1.109,1.109,0,0,0-.38-.9,1.7,1.7,0,0,0-1.11-.315h-1.32V9.76h1.32a1.683,1.683,0,0,0,1.11-.32A1.112,1.112,0,0,0,26.855,8.54Z" transform="translate(947 358)"/></g></svg>