<svg xmlns="http://www.w3.org/2000/svg" width="342" height="406.87" viewBox="0 0 342 406.87"><g id="safespring-compliant-kubernetes-chart" transform="translate(-778 -233.13)"><rect id="Rectangle_38" width="342" height="32" fill="rgba(25,95,140,0.07)" rx="5" transform="translate(778 342)"/><rect id="Rectangle_37" width="342" height="32" fill="rgba(25,95,140,0.07)" rx="5" transform="translate(778 276)"/><rect id="Rectangle_39" width="342" height="32" fill="rgba(25,95,140,0.07)" rx="5" transform="translate(778 409)"/><rect id="Rectangle_38-2" width="342" height="32" fill="rgba(25,95,140,0.07)" rx="5" transform="translate(778 542)"/><rect id="Rectangle_37-2" width="342" height="32" fill="rgba(25,95,140,0.07)" rx="5" transform="translate(778 475)"/><g id="Group_515" transform="translate(278 -160)"><circle id="Circle" cx="11.5" cy="11.5" r="11.5" fill="#32cd32" transform="translate(783 474)"/><path id="Check_mark" fill="#fff" d="M3.22 72.03.14 68.95a.47.47 0 0 1 0-.67l.67-.67a.47.47 0 0 1 .67 0l2.08 2.07L8 65.24a.47.47 0 0 1 .67 0l.67.67a.47.47 0 0 1 0 .67L3.9 72.03a.47.47 0 0 1-.67 0Z" transform="translate(789.758 416.865)"/></g><rect id="Rectangle_39-2" width="342" height="32" fill="rgba(25,95,140,0.07)" rx="5" transform="translate(778 608)"/><g id="Group_516" transform="translate(278 -127)"><circle id="Circle-2" cx="11.5" cy="11.5" r="11.5" fill="#32cd32" transform="translate(783 474)"/><path id="Check_mark-2" fill="#fff" d="M3.22 72.03.14 68.95a.47.47 0 0 1 0-.67l.67-.67a.47.47 0 0 1 .67 0l2.08 2.07L8 65.24a.47.47 0 0 1 .67 0l.67.67a.47.47 0 0 1 0 .67L3.9 72.03a.47.47 0 0 1-.67 0Z" transform="translate(789.758 416.865)"/></g><g id="Group_517" transform="translate(278 -93)"><circle id="Circle-3" cx="11.5" cy="11.5" r="11.5" fill="#32cd32" transform="translate(783 474)"/><path id="Check_mark-3" fill="#fff" d="M3.22 72.03.14 68.95a.47.47 0 0 1 0-.67l.67-.67a.47.47 0 0 1 .67 0l2.08 2.07L8 65.24a.47.47 0 0 1 .67 0l.67.67a.47.47 0 0 1 0 .67L3.9 72.03a.47.47 0 0 1-.67 0Z" transform="translate(789.758 416.865)"/></g><g id="Group_518" transform="translate(278 -60)"><circle id="Circle-4" cx="11.5" cy="11.5" r="11.5" fill="#32cd32" transform="translate(783 474)"/><path id="Check_mark-4" fill="#fff" d="M3.22 72.03.14 68.95a.47.47 0 0 1 0-.67l.67-.67a.47.47 0 0 1 .67 0l2.08 2.07L8 65.24a.47.47 0 0 1 .67 0l.67.67a.47.47 0 0 1 0 .67L3.9 72.03a.47.47 0 0 1-.67 0Z" transform="translate(789.758 416.865)"/></g><g id="Group_519" transform="translate(278 -27)"><circle id="Circle-5" cx="11.5" cy="11.5" r="11.5" fill="#32cd32" transform="translate(783 474)"/><path id="Check_mark-5" fill="#fff" d="M3.22 72.03.14 68.95a.47.47 0 0 1 0-.67l.67-.67a.47.47 0 0 1 .67 0l2.08 2.07L8 65.24a.47.47 0 0 1 .67 0l.67.67a.47.47 0 0 1 0 .67L3.9 72.03a.47.47 0 0 1-.67 0Z" transform="translate(789.758 416.865)"/></g><g id="Group_520" transform="translate(278 6)"><circle id="Circle-6" cx="11.5" cy="11.5" r="11.5" fill="#32cd32" transform="translate(783 474)"/><path id="Check_mark-6" fill="#fff" d="M3.22 72.03.14 68.95a.47.47 0 0 1 0-.67l.67-.67a.47.47 0 0 1 .67 0l2.08 2.07L8 65.24a.47.47 0 0 1 .67 0l.67.67a.47.47 0 0 1 0 .67L3.9 72.03a.47.47 0 0 1-.67 0Z" transform="translate(789.758 416.865)"/></g><g id="Group_521" transform="translate(278 39)"><circle id="Circle-7" cx="11.5" cy="11.5" r="11.5" fill="#32cd32" transform="translate(783 474)"/><path id="Check_mark-7" fill="#fff" d="M3.22 72.03.14 68.95a.47.47 0 0 1 0-.67l.67-.67a.47.47 0 0 1 .67 0l2.08 2.07L8 65.24a.47.47 0 0 1 .67 0l.67.67a.47.47 0 0 1 0 .67L3.9 72.03a.47.47 0 0 1-.67 0Z" transform="translate(789.758 416.865)"/></g><g id="Group_522" transform="translate(278 73)"><circle id="Circle-8" cx="11.5" cy="11.5" r="11.5" fill="#32cd32" transform="translate(783 474)"/><path id="Check_mark-8" fill="#fff" d="M3.22 72.03.14 68.95a.47.47 0 0 1 0-.67l.67-.67a.47.47 0 0 1 .67 0l2.08 2.07L8 65.24a.47.47 0 0 1 .67 0l.67.67a.47.47 0 0 1 0 .67L3.9 72.03a.47.47 0 0 1-.67 0Z" transform="translate(789.758 416.865)"/></g><g id="Group_523" transform="translate(278 106)"><circle id="Circle-9" cx="11.5" cy="11.5" r="11.5" fill="#32cd32" transform="translate(783 474)"/><path id="Check_mark-9" fill="#fff" d="M3.22 72.03.14 68.95a.47.47 0 0 1 0-.67l.67-.67a.47.47 0 0 1 .67 0l2.08 2.07L8 65.24a.47.47 0 0 1 .67 0l.67.67a.47.47 0 0 1 0 .67L3.9 72.03a.47.47 0 0 1-.67 0Z" transform="translate(789.758 416.865)"/></g><g id="Group_524" transform="translate(278 139)"><circle id="Circle-10" cx="11.5" cy="11.5" r="11.5" fill="#32cd32" transform="translate(783 474)"/><path id="Check_mark-10" fill="#fff" d="M3.22 72.03.14 68.95a.47.47 0 0 1 0-.67l.67-.67a.47.47 0 0 1 .67 0l2.08 2.07L8 65.24a.47.47 0 0 1 .67 0l.67.67a.47.47 0 0 1 0 .67L3.9 72.03a.47.47 0 0 1-.67 0Z" transform="translate(789.758 416.865)"/></g><g id="Group_525" transform="translate(278 -193)"><circle id="Circle-11" cx="11.5" cy="11.5" r="11.5" fill="#32cd32" transform="translate(783 474)"/><path id="Check_mark-11" fill="#fff" d="M3.22 72.03.14 68.95a.47.47 0 0 1 0-.67l.67-.67a.47.47 0 0 1 .67 0l2.08 2.07L8 65.24a.47.47 0 0 1 .67 0l.67.67a.47.47 0 0 1 0 .67L3.9 72.03a.47.47 0 0 1-.67 0Z" transform="translate(789.758 416.865)"/></g><g id="Group_526" transform="translate(192 -160)"><circle id="Circle-12" cx="11.5" cy="11.5" r="11.5" fill="#32cd32" transform="translate(783 474)"/><path id="Check_mark-12" fill="#fff" d="M3.22 72.03.14 68.95a.47.47 0 0 1 0-.67l.67-.67a.47.47 0 0 1 .67 0l2.08 2.07L8 65.24a.47.47 0 0 1 .67 0l.67.67a.47.47 0 0 1 0 .67L3.9 72.03a.47.47 0 0 1-.67 0Z" transform="translate(789.758 416.865)"/></g><g id="Group_527" transform="translate(192 -127)"><circle id="Circle-13" cx="11.5" cy="11.5" r="11.5" fill="#32cd32" transform="translate(783 474)"/><path id="Check_mark-13" fill="#fff" d="M3.22 72.03.14 68.95a.47.47 0 0 1 0-.67l.67-.67a.47.47 0 0 1 .67 0l2.08 2.07L8 65.24a.47.47 0 0 1 .67 0l.67.67a.47.47 0 0 1 0 .67L3.9 72.03a.47.47 0 0 1-.67 0Z" transform="translate(789.758 416.865)"/></g><g id="Group_537" transform="translate(-31)"><circle id="Circle-14" cx="11.5" cy="11.5" r="11.5" fill="#fa690f" transform="translate(1006 381)"/><circle id="Circle-15" cx="11.5" cy="11.5" r="11.5" fill="#fa690f" transform="translate(1006 414)"/><circle id="Circle-16" cx="11.5" cy="11.5" r="11.5" fill="#fa690f" transform="translate(1006 447)"/><circle id="Circle-17" cx="11.5" cy="11.5" r="11.5" fill="#fa690f" transform="translate(1006 480)"/><circle id="Circle-18" cx="11.5" cy="11.5" r="11.5" fill="#fa690f" transform="translate(1006 513)"/><circle id="Circle-19" cx="11.5" cy="11.5" r="11.5" fill="#fa690f" transform="translate(1006 547)"/><circle id="Circle-20" cx="11.5" cy="11.5" r="11.5" fill="#fa690f" transform="translate(1006 580)"/><circle id="Circle-21" cx="11.5" cy="11.5" r="11.5" fill="#fa690f" transform="translate(1006 613)"/><path id="x-solid" fill="#fff" d="M6.87 39.2a.58.58 0 1 1-.9.74L3.5 36.96l-2.46 2.96a.58.58 0 1 1-.9-.75l2.6-3.12-2.6-3.11a.58.58 0 0 1 .9-.75l2.46 2.96 2.47-2.96a.58.58 0 1 1 .9.75l-2.6 3.12Z" transform="translate(1013.997 556.019)"/><path id="x-solid-2" fill="#fff" d="M6.87 39.2a.58.58 0 1 1-.9.74L3.5 36.96l-2.46 2.96a.58.58 0 1 1-.9-.75l2.6-3.12-2.6-3.11a.58.58 0 0 1 .9-.75l2.46 2.96 2.47-2.96a.58.58 0 1 1 .9.75l-2.6 3.12Z" transform="translate(1013.997 523.019)"/><path id="x-solid-3" fill="#fff" d="M6.87 39.2a.58.58 0 1 1-.9.74L3.5 36.96l-2.46 2.96a.58.58 0 1 1-.9-.75l2.6-3.12-2.6-3.11a.58.58 0 0 1 .9-.75l2.46 2.96 2.47-2.96a.58.58 0 1 1 .9.75l-2.6 3.12Z" transform="translate(1013.997 490.019)"/><path id="x-solid-4" fill="#fff" d="M6.87 39.2a.58.58 0 1 1-.9.74L3.5 36.96l-2.46 2.96a.58.58 0 1 1-.9-.75l2.6-3.12-2.6-3.11a.58.58 0 0 1 .9-.75l2.46 2.96 2.47-2.96a.58.58 0 1 1 .9.75l-2.6 3.12Z" transform="translate(1013.997 456.019)"/><path id="x-solid-5" fill="#fff" d="M6.87 39.2a.58.58 0 1 1-.9.74L3.5 36.96l-2.46 2.96a.58.58 0 1 1-.9-.75l2.6-3.12-2.6-3.11a.58.58 0 0 1 .9-.75l2.46 2.96 2.47-2.96a.58.58 0 1 1 .9.75l-2.6 3.12Z" transform="translate(1013.997 423.019)"/><path id="x-solid-6" fill="#fff" d="M6.87 39.2a.58.58 0 1 1-.9.74L3.5 36.96l-2.46 2.96a.58.58 0 1 1-.9-.75l2.6-3.12-2.6-3.11a.58.58 0 0 1 .9-.75l2.46 2.96 2.47-2.96a.58.58 0 1 1 .9.75l-2.6 3.12Z" transform="translate(1013.997 390.019)"/><path id="x-solid-7" fill="#fff" d="M6.87 39.2a.58.58 0 1 1-.9.74L3.5 36.96l-2.46 2.96a.58.58 0 1 1-.9-.75l2.6-3.12-2.6-3.11a.58.58 0 0 1 .9-.75l2.46 2.96 2.47-2.96a.58.58 0 1 1 .9.75l-2.6 3.12Z" transform="translate(1013.997 589.019)"/><path id="x-solid-8" fill="#fff" d="M6.87 39.2a.58.58 0 1 1-.9.74L3.5 36.96l-2.46 2.96a.58.58 0 1 1-.9-.75l2.6-3.12-2.6-3.11a.58.58 0 0 1 .9-.75l2.46 2.96 2.47-2.96a.58.58 0 1 1 .9.75l-2.6 3.12Z" transform="translate(1013.997 357.019)"/></g><g id="Group_536" transform="translate(192 -193)"><circle id="Circle-22" cx="11.5" cy="11.5" r="11.5" fill="#32cd32" transform="translate(783 474)"/><path id="Check_mark-14" fill="#fff" d="M3.22 72.03.14 68.95a.47.47 0 0 1 0-.67l.67-.67a.47.47 0 0 1 .67 0l2.08 2.07L8 65.24a.47.47 0 0 1 .67 0l.67.67a.47.47 0 0 1 0 .67L3.9 72.03a.47.47 0 0 1-.67 0Z" transform="translate(789.758 416.865)"/></g><g id="Text"><path id="Path_5133" fill="#195f8c" d="M4.18.12a4 4 0 0 1-1.93-.46 3.5 3.5 0 0 1-1.36-1.3 3.6 3.6 0 0 1-.5-1.86 3.6 3.6 0 0 1 .5-1.87 3.5 3.5 0 0 1 1.36-1.28 4 4 0 0 1 1.94-.47 4 4 0 0 1 1.65.32 3 3 0 0 1 1.23.92l-1.04.96a2.2 2.2 0 0 0-1.76-.82 2.3 2.3 0 0 0-1.16.28 2 2 0 0 0-.8.8 2.3 2.3 0 0 0-.28 1.16 2.3 2.3 0 0 0 .28 1.16 2 2 0 0 0 .8.8 2.3 2.3 0 0 0 1.16.28 2.2 2.2 0 0 0 1.76-.83l1.04.96a3 3 0 0 1-1.24.93 4 4 0 0 1-1.65.32m3.87-7.54h1.56V0H8.05Zm5.57 7.5a3 3 0 0 1-1.52-.36 2.6 2.6 0 0 1-1.06-.98 2.7 2.7 0 0 1-.38-1.43 2.7 2.7 0 0 1 .38-1.43 2.6 2.6 0 0 1 1.06-.99 3 3 0 0 1 1.52-.35 3 3 0 0 1 1.52.36 2.7 2.7 0 0 1 1.05.98 2.7 2.7 0 0 1 .38 1.43 2.7 2.7 0 0 1-.38 1.43 2.7 2.7 0 0 1-1.05.98 3 3 0 0 1-1.52.36m0-1.28a1.3 1.3 0 0 0 .99-.4 1.5 1.5 0 0 0 .38-1.09 1.5 1.5 0 0 0-.39-1.08 1.3 1.3 0 0 0-.98-.41 1.3 1.3 0 0 0-1 .4 1.5 1.5 0 0 0-.38 1.09 1.5 1.5 0 0 0 .38 1.09 1.3 1.3 0 0 0 1 .4m9.41-4.18V0h-1.48v-.64a2 2 0 0 1-.74.54 2 2 0 0 1-.93.18 2.3 2.3 0 0 1-1.68-.61 2.4 2.4 0 0 1-.62-1.81v-3.04h1.56v2.81q0 1.3 1.09 1.3a1.2 1.2 0 0 0 .9-.36 1.5 1.5 0 0 0 .34-1.09v-2.66Zm6.93-2.04V0h-1.49v-.62a2 2 0 0 1-1.68.7 3 3 0 0 1-1.37-.34 2.4 2.4 0 0 1-.97-.97 3 3 0 0 1-.35-1.46 3 3 0 0 1 .35-1.46 2.4 2.4 0 0 1 .97-.97 3 3 0 0 1 1.37-.34 2 2 0 0 1 1.61.65v-2.61Zm-2.9 6.22a1.3 1.3 0 0 0 .98-.4 1.5 1.5 0 0 0 .39-1.09 1.5 1.5 0 0 0-.39-1.09 1.3 1.3 0 0 0-.98-.4 1.3 1.3 0 0 0-.99.4 1.5 1.5 0 0 0-.39 1.09 1.5 1.5 0 0 0 .39 1.08 1.3 1.3 0 0 0 .99.41m4.14-2.24h2.83v1.25H31.2ZM37.07.08a5 5 0 0 1-1.31-.16 3 3 0 0 1-1.02-.42l.52-1.12a3 3 0 0 0 .87.38 4 4 0 0 0 1 .14q.99 0 .99-.49a.35.35 0 0 0-.27-.33 4 4 0 0 0-.83-.17 8 8 0 0 1-1.09-.23 2 2 0 0 1-.74-.46 1.3 1.3 0 0 1-.32-.94 1.5 1.5 0 0 1 .3-.9 2 2 0 0 1 .86-.61 4 4 0 0 1 1.33-.22 5 5 0 0 1 1.14.12 3 3 0 0 1 .93.35l-.52 1.1a3 3 0 0 0-1.55-.4 2 2 0 0 0-.75.14.4.4 0 0 0-.25.36.4.4 0 0 0 .27.35 5 5 0 0 0 .86.2 9 9 0 0 1 1.08.23 1.6 1.6 0 0 1 .73.45 1.3 1.3 0 0 1 .31.92 1.4 1.4 0 0 1-.3.9 2 2 0 0 1-.87.6 4 4 0 0 1-1.37.21m6.68-5.54a3 3 0 0 1 1.37.35 2.5 2.5 0 0 1 .96.97 3 3 0 0 1 .35 1.45 3 3 0 0 1-.35 1.45 2.5 2.5 0 0 1-.96.97 3 3 0 0 1-1.37.35 2 2 0 0 1-1.62-.65v2.51h-1.56v-7.32h1.49v.62a2 2 0 0 1 1.69-.7m-.27 4.26a1.3 1.3 0 0 0 .99-.4 1.5 1.5 0 0 0 .38-1.09 1.5 1.5 0 0 0-.38-1.08 1.3 1.3 0 0 0-.99-.41 1.3 1.3 0 0 0-.98.4 1.5 1.5 0 0 0-.39 1.09 1.5 1.5 0 0 0 .39 1.09 1.3 1.3 0 0 0 .98.4m9.26-1.47-.03.42h-4.07a1.3 1.3 0 0 0 .52.79 1.7 1.7 0 0 0 1.02.29 2 2 0 0 0 .75-.12 2 2 0 0 0 .6-.4l.83.9a2.8 2.8 0 0 1-2.22.87 3.5 3.5 0 0 1-1.61-.35 2.6 2.6 0 0 1-1.08-.99 2.7 2.7 0 0 1-.38-1.43 3 3 0 0 1 .37-1.42 2.6 2.6 0 0 1 1.03-1 3 3 0 0 1 1.47-.35 3 3 0 0 1 1.43.34 2.5 2.5 0 0 1 1 .98 3 3 0 0 1 .37 1.47m-2.79-1.61a1.3 1.3 0 0 0-.89.3 1.3 1.3 0 0 0-.44.82h2.65a1.3 1.3 0 0 0-.44-.82 1.3 1.3 0 0 0-.88-.3M56.38.08a3 3 0 0 1-1.54-.35 2.7 2.7 0 0 1-1.08-.99 2.7 2.7 0 0 1-.38-1.43 2.7 2.7 0 0 1 .39-1.43 2.7 2.7 0 0 1 1.06-.98 3.3 3.3 0 0 1 1.55-.36 3 3 0 0 1 1.49.36 2 2 0 0 1 .92 1.01l-1.21.65a1.3 1.3 0 0 0-1.21-.74 1.4 1.4 0 0 0-1.01.4 1.5 1.5 0 0 0-.4 1.09 1.5 1.5 0 0 0 .4 1.09 1.4 1.4 0 0 0 1.01.4 1.3 1.3 0 0 0 1.21-.74l1.21.66a2 2 0 0 1-.92 1 3 3 0 0 1-1.49.36m3.31-5.46h1.56V0h-1.56Zm.78-.75a1 1 0 0 1-.7-.25.8.8 0 0 1-.27-.62.8.8 0 0 1 .27-.62 1 1 0 0 1 .7-.25 1 1 0 0 1 .7.24.8.8 0 0 1 .27.6 1 1 0 0 1-.27.65 1 1 0 0 1-.7.25m3.94.87h1.38v1.2h-1.34V0h-1.56v-4.06h-.83v-1.2h.83v-.24a2 2 0 0 1 .55-1.46 2 2 0 0 1 1.53-.54 3 3 0 0 1 .67.08 2 2 0 0 1 .52.21l-.41 1.13a1 1 0 0 0-.63-.19q-.71 0-.71.78Zm2.96-.12h1.56V0h-1.56Zm.78-.75a1 1 0 0 1-.7-.25.8.8 0 0 1-.27-.62.8.8 0 0 1 .27-.62 1 1 0 0 1 .7-.25 1 1 0 0 1 .7.24.8.8 0 0 1 .27.6 1 1 0 0 1-.27.65 1 1 0 0 1-.7.25M72.98.08a3 3 0 0 1-1.54-.35 2.7 2.7 0 0 1-1.07-.99 2.7 2.7 0 0 1-.39-1.43 2.7 2.7 0 0 1 .39-1.43 2.7 2.7 0 0 1 1.07-.98 3 3 0 0 1 1.54-.36 3 3 0 0 1 1.49.36 2 2 0 0 1 .92 1.01l-1.21.65a1.3 1.3 0 0 0-1.21-.74 1.4 1.4 0 0 0-1.01.4 1.5 1.5 0 0 0-.4 1.09 1.5 1.5 0 0 0 .4 1.09 1.4 1.4 0 0 0 1.01.4 1.3 1.3 0 0 0 1.21-.74l1.21.66a2 2 0 0 1-.92 1 3 3 0 0 1-1.49.36m6.14-5.46h1.56V0h-1.56Zm.78-.75a1 1 0 0 1-.7-.25.8.8 0 0 1-.27-.62.8.8 0 0 1 .27-.62 1 1 0 0 1 .7-.25 1 1 0 0 1 .7.24.8.8 0 0 1 .27.6 1 1 0 0 1-.27.65 1 1 0 0 1-.7.25m5.5.67a2.2 2.2 0 0 1 1.62.6 2.4 2.4 0 0 1 .61 1.78V0h-1.56v-2.84a1.4 1.4 0 0 0-.28-.95 1 1 0 0 0-.81-.32 1.2 1.2 0 0 0-.94.37 1.5 1.5 0 0 0-.35 1.08V0h-1.56v-5.38h1.49v.63a2 2 0 0 1 .77-.52 3 3 0 0 1 1.01-.19m7.11 5.2a2 2 0 0 1-.56.26 3 3 0 0 1-.71.08 2 2 0 0 1-1.48-.49 2 2 0 0 1-.53-1.44v-2.21h-.83v-1.2h.83v-1.31h1.56v1.31h1.34v1.2h-1.34v2.19a.7.7 0 0 0 .18.53.7.7 0 0 0 .5.18 1 1 0 0 0 .63-.2Zm5.98-2.41-.03.42h-4.07a1.3 1.3 0 0 0 .52.79 1.7 1.7 0 0 0 1.02.29 2 2 0 0 0 .74-.12 2 2 0 0 0 .6-.4l.83.9a2.8 2.8 0 0 1-2.22.87 3.5 3.5 0 0 1-1.6-.35 2.6 2.6 0 0 1-1.08-.99 2.7 2.7 0 0 1-.38-1.43 3 3 0 0 1 .38-1.42 2.6 2.6 0 0 1 1.03-1 3 3 0 0 1 1.46-.35 3 3 0 0 1 1.43.34 2.5 2.5 0 0 1 1 .98 3 3 0 0 1 .37 1.47M95.7-4.28a1.3 1.3 0 0 0-.89.3 1.3 1.3 0 0 0-.44.82h2.65a1.3 1.3 0 0 0-.44-.82 1.3 1.3 0 0 0-.88-.3m9.38-1.1V-.9a3 3 0 0 1-.77 2.2 3.2 3.2 0 0 1-2.25.72 6 6 0 0 1-1.48-.19 3 3 0 0 1-1.16-.55l.62-1.12a3 3 0 0 0 .86.44 3 3 0 0 0 1.04.17 1.7 1.7 0 0 0 1.2-.37 1.5 1.5 0 0 0 .38-1.1v-.23a2.2 2.2 0 0 1-1.7.67 3 3 0 0 1-1.35-.32 2.5 2.5 0 0 1-.98-.92 2.6 2.6 0 0 1-.36-1.36 2.6 2.6 0 0 1 .36-1.36 2.5 2.5 0 0 1 .98-.92 3 3 0 0 1 1.35-.32 2.1 2.1 0 0 1 1.78.77v-.69Zm-2.95 3.84a1.4 1.4 0 0 0 1.01-.37 1.2 1.2 0 0 0 .4-.95 1.2 1.2 0 0 0-.4-.96 1.4 1.4 0 0 0-1.01-.36 1.5 1.5 0 0 0-1.02.36 1.2 1.2 0 0 0-.4.96 1.2 1.2 0 0 0 .4.95 1.5 1.5 0 0 0 1.02.37m5.89-3.13a2 2 0 0 1 .76-.59 3 3 0 0 1 1.1-.2v1.44l-.36-.02a1.4 1.4 0 0 0-1.05.37 1.5 1.5 0 0 0-.38 1.13V0h-1.56v-5.38h1.5Zm4.92-.79a2.8 2.8 0 0 1 1.92.6 2.3 2.3 0 0 1 .67 1.8V0h-1.46v-.67a1.7 1.7 0 0 1-1.64.75 3 3 0 0 1-1.07-.21 1.6 1.6 0 0 1-.7-.58 1.5 1.5 0 0 1-.24-.84 1.4 1.4 0 0 1 .57-1.18 3 3 0 0 1 1.74-.43h1.24a1 1 0 0 0-.31-.78 1.4 1.4 0 0 0-.93-.28 3 3 0 0 0-.84.14 2 2 0 0 0-.71.36l-.56-1.09a3 3 0 0 1 1.06-.48 5 5 0 0 1 1.26-.17m-.12 4.49a1.4 1.4 0 0 0 .71-.19 1 1 0 0 0 .44-.54v-.55h-1.07q-.96 0-.96.63a.6.6 0 0 0 .24.47 1 1 0 0 0 .64.18m7.59.71a2 2 0 0 1-.56.25 3 3 0 0 1-.71.09 2 2 0 0 1-1.48-.49 2 2 0 0 1-.53-1.44v-2.21h-.83v-1.2h.83v-1.31h1.56v1.31h1.34v1.2h-1.34v2.19a.7.7 0 0 0 .18.53.7.7 0 0 0 .5.18 1 1 0 0 0 .62-.2Zm.88-5.12h1.56V0h-1.56Zm.78-.75a1 1 0 0 1-.7-.25.8.8 0 0 1-.27-.62.8.8 0 0 1 .27-.62 1 1 0 0 1 .7-.25 1 1 0 0 1 .7.24.8.8 0 0 1 .27.6 1 1 0 0 1-.27.65 1 1 0 0 1-.7.25m4.79 6.21a3 3 0 0 1-1.52-.35 2.6 2.6 0 0 1-1.06-.99 2.7 2.7 0 0 1-.38-1.43 2.7 2.7 0 0 1 .38-1.43 2.6 2.6 0 0 1 1.05-.98 3 3 0 0 1 1.53-.36 3 3 0 0 1 1.52.36 2.7 2.7 0 0 1 1.05.98 2.7 2.7 0 0 1 .38 1.43 2.7 2.7 0 0 1-.38 1.43 2.7 2.7 0 0 1-1.05.99 3 3 0 0 1-1.52.35m0-1.28a1.3 1.3 0 0 0 .99-.4 1.5 1.5 0 0 0 .38-1.09 1.5 1.5 0 0 0-.38-1.08 1.3 1.3 0 0 0-.99-.41 1.3 1.3 0 0 0-.99.4 1.5 1.5 0 0 0-.39 1.09 1.5 1.5 0 0 0 .39 1.09 1.3 1.3 0 0 0 .99.4m7.26-4.26a2.2 2.2 0 0 1 1.62.6 2.4 2.4 0 0 1 .61 1.78V0h-1.56v-2.84a1.4 1.4 0 0 0-.28-.95 1 1 0 0 0-.81-.32 1.2 1.2 0 0 0-.94.37 1.5 1.5 0 0 0-.35 1.08V0h-1.56v-5.38h1.49v.63a2 2 0 0 1 .77-.52 3 3 0 0 1 1.01-.19" transform="translate(789 329)"/><path id="Path_5132" fill="#195f8c" d="m7.2 0-.01-4.2L5.13-.74H4.4L2.35-4.11V0H.83v-7h1.34l2.62 4.35L7.37-7H8.7l.02 7Zm8.49-5.38V0h-1.48v-.64a2 2 0 0 1-.74.54 2 2 0 0 1-.93.18 2.3 2.3 0 0 1-1.68-.61 2.4 2.4 0 0 1-.62-1.81v-3.04h1.56v2.81q0 1.3 1.09 1.3a1.2 1.2 0 0 0 .9-.36 1.5 1.5 0 0 0 .34-1.09v-2.66Zm1.45-2.04h1.56V0h-1.56Zm6.87 7.16a2 2 0 0 1-.56.26 3 3 0 0 1-.7.08 2 2 0 0 1-1.49-.49 2 2 0 0 1-.52-1.44v-2.21h-.84v-1.2h.83v-1.31h1.56v1.31h1.34v1.2h-1.34v2.19a.7.7 0 0 0 .18.53.7.7 0 0 0 .49.18 1 1 0 0 0 .63-.2Zm.88-5.12h1.56V0h-1.56Zm.78-.75a1 1 0 0 1-.7-.25.8.8 0 0 1-.27-.62.8.8 0 0 1 .27-.62 1 1 0 0 1 .7-.25 1 1 0 0 1 .7.24.8.8 0 0 1 .27.6 1 1 0 0 1-.27.65 1 1 0 0 1-.7.25m2.03 2.69h2.83v1.25H27.7ZM35.26.12a4 4 0 0 1-1.93-.46 3.5 3.5 0 0 1-1.37-1.3 3.6 3.6 0 0 1-.5-1.86 3.6 3.6 0 0 1 .5-1.86 3.5 3.5 0 0 1 1.36-1.3 4 4 0 0 1 1.95-.46 4 4 0 0 1 1.65.32 3 3 0 0 1 1.23.92l-1.04.96a2.2 2.2 0 0 0-1.76-.82 2.3 2.3 0 0 0-1.16.28 2 2 0 0 0-.8.8 2.3 2.3 0 0 0-.28 1.16 2.3 2.3 0 0 0 .29 1.16 2 2 0 0 0 .8.8 2.3 2.3 0 0 0 1.15.28 2.2 2.2 0 0 0 1.76-.83l1.04.96a3 3 0 0 1-1.24.93 4 4 0 0 1-1.65.32m3.87-7.54h1.56V0h-1.56ZM44.7.08a3 3 0 0 1-1.52-.35 2.6 2.6 0 0 1-1.06-.99 2.7 2.7 0 0 1-.38-1.43 2.7 2.7 0 0 1 .38-1.43 2.6 2.6 0 0 1 1.06-.98 3 3 0 0 1 1.52-.36 3 3 0 0 1 1.52.36 2.7 2.7 0 0 1 1.05.98 2.7 2.7 0 0 1 .38 1.43 2.7 2.7 0 0 1-.38 1.43 2.7 2.7 0 0 1-1.05.98 3 3 0 0 1-1.52.36m0-1.28a1.3 1.3 0 0 0 .99-.4 1.5 1.5 0 0 0 .38-1.09 1.5 1.5 0 0 0-.38-1.08 1.3 1.3 0 0 0-.99-.41 1.3 1.3 0 0 0-.99.4 1.5 1.5 0 0 0-.39 1.09 1.5 1.5 0 0 0 .39 1.09 1.3 1.3 0 0 0 .99.4m9.41-4.18V0h-1.48v-.64a2 2 0 0 1-.74.54 2 2 0 0 1-.93.18 2.3 2.3 0 0 1-1.68-.61 2.4 2.4 0 0 1-.62-1.81v-3.04h1.56v2.81q0 1.3 1.09 1.3a1.2 1.2 0 0 0 .9-.36 1.5 1.5 0 0 0 .34-1.09v-2.66Zm6.93-2.04V0h-1.49v-.62a2 2 0 0 1-1.68.7 3 3 0 0 1-1.37-.34 2.4 2.4 0 0 1-.97-.97 3 3 0 0 1-.35-1.46 3 3 0 0 1 .35-1.46 2.4 2.4 0 0 1 .96-.97 3 3 0 0 1 1.38-.34 2 2 0 0 1 1.61.65v-2.61Zm-2.9 6.22a1.3 1.3 0 0 0 .98-.4 1.5 1.5 0 0 0 .39-1.09 1.5 1.5 0 0 0-.39-1.09 1.3 1.3 0 0 0-.98-.4 1.3 1.3 0 0 0-.99.4 1.5 1.5 0 0 0-.39 1.09 1.5 1.5 0 0 0 .39 1.08 1.3 1.3 0 0 0 .99.41" transform="translate(789 362)"/><path id="Path_5131" fill="#195f8c" d="M5.29 0 3.94-1.95H2.45V0H.83v-7h3.03a4 4 0 0 1 1.62.31 2.4 2.4 0 0 1 1.05.88 2.4 2.4 0 0 1 .37 1.35 2.4 2.4 0 0 1-.37 1.35 2.4 2.4 0 0 1-1.07.86L7.03 0Zm-.03-4.46a1.1 1.1 0 0 0-.38-.9 1.7 1.7 0 0 0-1.11-.32H2.45v2.44h1.32a1.7 1.7 0 0 0 1.11-.32 1.1 1.1 0 0 0 .38-.9m8.23-.92V0h-1.48v-.64a2 2 0 0 1-.74.54 2 2 0 0 1-.93.18 2.3 2.3 0 0 1-1.68-.61 2.4 2.4 0 0 1-.62-1.81v-3.04H9.6v2.81q0 1.3 1.09 1.3a1.2 1.2 0 0 0 .9-.36 1.5 1.5 0 0 0 .34-1.09v-2.66Zm4.72-.08a2.2 2.2 0 0 1 1.62.6 2.4 2.4 0 0 1 .61 1.78V0h-1.56v-2.84a1.4 1.4 0 0 0-.28-.96 1 1 0 0 0-.81-.31 1.2 1.2 0 0 0-.94.36 1.5 1.5 0 0 0-.35 1.09V0h-1.56v-5.38h1.49v.63a2 2 0 0 1 .77-.52 3 3 0 0 1 1.01-.19M28.14.12a4 4 0 0 1-1.94-.46 3.5 3.5 0 0 1-1.36-1.3 3.6 3.6 0 0 1-.5-1.86 3.6 3.6 0 0 1 .5-1.86 3.5 3.5 0 0 1 1.36-1.3 4 4 0 0 1 1.95-.46 4 4 0 0 1 1.65.32 3 3 0 0 1 1.23.92l-1.04.96a2.2 2.2 0 0 0-1.76-.82 2.3 2.3 0 0 0-1.16.28 2 2 0 0 0-.8.8 2.3 2.3 0 0 0-.28 1.16 2.3 2.3 0 0 0 .28 1.16 2 2 0 0 0 .8.8 2.3 2.3 0 0 0 1.16.28A2.2 2.2 0 0 0 30-2.09l1.05.96a3 3 0 0 1-1.24.93 4 4 0 0 1-1.66.32m6.24-.04a3 3 0 0 1-1.52-.35 2.6 2.6 0 0 1-1.06-.99 2.7 2.7 0 0 1-.38-1.43 2.7 2.7 0 0 1 .38-1.43 2.6 2.6 0 0 1 1.06-.98 3 3 0 0 1 1.52-.36 3 3 0 0 1 1.52.36 2.7 2.7 0 0 1 1.05.98 2.7 2.7 0 0 1 .38 1.43 2.7 2.7 0 0 1-.38 1.43 2.7 2.7 0 0 1-1.05.98 3 3 0 0 1-1.52.36m0-1.28a1.3 1.3 0 0 0 .99-.4 1.5 1.5 0 0 0 .38-1.09 1.5 1.5 0 0 0-.38-1.08 1.3 1.3 0 0 0-.99-.41 1.3 1.3 0 0 0-.99.4 1.5 1.5 0 0 0-.4 1.1 1.5 1.5 0 0 0 .39 1.09 1.3 1.3 0 0 0 .99.4m7.26-4.26a2.2 2.2 0 0 1 1.62.6 2.4 2.4 0 0 1 .61 1.78V0h-1.56v-2.84a1.4 1.4 0 0 0-.28-.95 1 1 0 0 0-.81-.32 1.2 1.2 0 0 0-.94.37 1.5 1.5 0 0 0-.35 1.08V0h-1.56v-5.38h1.49v.63a2 2 0 0 1 .77-.52 3 3 0 0 1 1.01-.19m7.11 5.2a2 2 0 0 1-.56.26 3 3 0 0 1-.7.08A2 2 0 0 1 46-.41a2 2 0 0 1-.52-1.44v-2.21h-.83v-1.2h.83v-1.31h1.56v1.31h1.34v1.2h-1.35v2.19a.7.7 0 0 0 .18.53.7.7 0 0 0 .49.18 1 1 0 0 0 .63-.2Zm3.05-5.2a2.8 2.8 0 0 1 1.92.6 2.3 2.3 0 0 1 .67 1.8V0h-1.46v-.67a1.7 1.7 0 0 1-1.64.75 3 3 0 0 1-1.07-.21 1.6 1.6 0 0 1-.7-.58 1.5 1.5 0 0 1-.24-.84 1.4 1.4 0 0 1 .56-1.18 3 3 0 0 1 1.75-.43h1.24a1 1 0 0 0-.31-.78 1.4 1.4 0 0 0-.93-.28 3 3 0 0 0-.85.14 2 2 0 0 0-.7.36l-.56-1.09a3 3 0 0 1 1.06-.48 5 5 0 0 1 1.26-.17m-.12 4.49a1.4 1.4 0 0 0 .71-.18 1 1 0 0 0 .44-.55v-.55h-1.07q-.96 0-.96.63a.6.6 0 0 0 .24.48 1 1 0 0 0 .64.17m4.12-4.41h1.56V0H55.8Zm.78-.75a1 1 0 0 1-.7-.25.8.8 0 0 1-.27-.62.8.8 0 0 1 .27-.62 1 1 0 0 1 .7-.25 1 1 0 0 1 .7.24.8.8 0 0 1 .27.6 1 1 0 0 1-.27.65 1 1 0 0 1-.7.25m5.5.67a2.2 2.2 0 0 1 1.62.6 2.4 2.4 0 0 1 .61 1.78V0h-1.56v-2.84a1.4 1.4 0 0 0-.28-.95 1 1 0 0 0-.81-.32 1.2 1.2 0 0 0-.94.37 1.5 1.5 0 0 0-.35 1.08V0h-1.56v-5.38h1.49v.63a2 2 0 0 1 .77-.52 3 3 0 0 1 1.01-.19m8.97 2.79-.03.42h-4.07a1.3 1.3 0 0 0 .52.79 1.7 1.7 0 0 0 1.02.29 2 2 0 0 0 .75-.12 2 2 0 0 0 .6-.4l.82.9a2.8 2.8 0 0 1-2.22.87 3.5 3.5 0 0 1-1.6-.35 2.6 2.6 0 0 1-1.09-.99 2.7 2.7 0 0 1-.38-1.43 3 3 0 0 1 .38-1.42 2.6 2.6 0 0 1 1.03-1 3 3 0 0 1 1.47-.35 3 3 0 0 1 1.43.34 2.5 2.5 0 0 1 1 .98 3 3 0 0 1 .37 1.47m-2.79-1.61a1.3 1.3 0 0 0-.89.3 1.3 1.3 0 0 0-.44.82h2.65a1.3 1.3 0 0 0-.44-.82 1.3 1.3 0 0 0-.88-.3m5.32-.39a2 2 0 0 1 .76-.59 3 3 0 0 1 1.1-.2v1.44l-.35-.02a1.4 1.4 0 0 0-1.05.38 1.5 1.5 0 0 0-.38 1.12V0h-1.57v-5.38h1.49ZM78.19.08a5 5 0 0 1-1.31-.16 3 3 0 0 1-1.02-.42l.52-1.12a3 3 0 0 0 .87.38 4 4 0 0 0 1 .14q.99 0 .99-.49a.35.35 0 0 0-.27-.33 4 4 0 0 0-.83-.17 8 8 0 0 1-1.09-.23 2 2 0 0 1-.74-.46 1.3 1.3 0 0 1-.32-.94 1.5 1.5 0 0 1 .3-.9 2 2 0 0 1 .85-.61 4 4 0 0 1 1.34-.22 5 5 0 0 1 1.13.12 3 3 0 0 1 .94.35l-.52 1.1a3 3 0 0 0-1.55-.4 2 2 0 0 0-.75.14.4.4 0 0 0-.25.36.4.4 0 0 0 .27.35 5 5 0 0 0 .86.2 9 9 0 0 1 1.08.23 1.6 1.6 0 0 1 .73.45 1.3 1.3 0 0 1 .31.92 1.4 1.4 0 0 1-.3.9 2 2 0 0 1-.87.6 4 4 0 0 1-1.37.21" transform="translate(789 296)"/><path id="Path_5130" fill="#195f8c" d="M4.18.12a4 4 0 0 1-1.93-.46 3.5 3.5 0 0 1-1.36-1.3 3.6 3.6 0 0 1-.5-1.86 3.6 3.6 0 0 1 .5-1.87 3.5 3.5 0 0 1 1.36-1.28 4 4 0 0 1 1.94-.47 4 4 0 0 1 1.65.32 3 3 0 0 1 1.23.92l-1.04.96a2.2 2.2 0 0 0-1.76-.82 2.3 2.3 0 0 0-1.16.28 2 2 0 0 0-.8.8 2.3 2.3 0 0 0-.28 1.16 2.3 2.3 0 0 0 .28 1.16 2 2 0 0 0 .8.8 2.3 2.3 0 0 0 1.16.28 2.2 2.2 0 0 0 1.76-.83l1.04.96a3 3 0 0 1-1.24.93 4 4 0 0 1-1.65.32m8.95-2.79-.03.42H9.03a1.3 1.3 0 0 0 .52.79 1.7 1.7 0 0 0 1.02.29 2 2 0 0 0 .74-.12 2 2 0 0 0 .61-.4l.83.9a2.8 2.8 0 0 1-2.22.87 3.5 3.5 0 0 1-1.61-.36 2.6 2.6 0 0 1-1.08-.98 2.7 2.7 0 0 1-.38-1.43 3 3 0 0 1 .38-1.42 2.6 2.6 0 0 1 1.03-1 3 3 0 0 1 1.46-.35 3 3 0 0 1 1.43.34 2.5 2.5 0 0 1 1 .98 3 3 0 0 1 .37 1.47m-2.79-1.61a1.3 1.3 0 0 0-.89.3 1.3 1.3 0 0 0-.44.82h2.65a1.3 1.3 0 0 0-.44-.82 1.3 1.3 0 0 0-.88-.3m5.32-.39a2 2 0 0 1 .76-.59 3 3 0 0 1 1.1-.2v1.44l-.35-.02a1.4 1.4 0 0 0-1.06.38 1.5 1.5 0 0 0-.38 1.12V0h-1.56v-5.38h1.49ZM22.1-.26a2 2 0 0 1-.56.26 3 3 0 0 1-.7.08 2 2 0 0 1-1.49-.49 2 2 0 0 1-.52-1.44v-2.21H18v-1.2h.83v-1.31h1.56v1.31h1.34v1.2h-1.35v2.19a.7.7 0 0 0 .18.53.7.7 0 0 0 .49.18 1 1 0 0 0 .63-.2Zm.88-5.12h1.56V0h-1.56Zm.78-.75a1 1 0 0 1-.7-.25.8.8 0 0 1-.27-.62.8.8 0 0 1 .27-.62 1 1 0 0 1 .7-.25 1 1 0 0 1 .7.24.8.8 0 0 1 .27.6 1 1 0 0 1-.27.65 1 1 0 0 1-.7.25m3.94.87h1.38v1.2h-1.34V0h-1.56v-4.06h-.83v-1.2h.83v-.24a2 2 0 0 1 .55-1.46 2 2 0 0 1 1.53-.54 3 3 0 0 1 .67.08 2 2 0 0 1 .52.21l-.41 1.13a1 1 0 0 0-.63-.19q-.71 0-.71.78Zm2.96-.12h1.56V0h-1.56Zm.78-.75a1 1 0 0 1-.7-.25.8.8 0 0 1-.27-.62.8.8 0 0 1 .27-.62 1 1 0 0 1 .7-.25 1 1 0 0 1 .7.24.8.8 0 0 1 .27.6 1 1 0 0 1-.27.65 1 1 0 0 1-.7.25M36.27.08a3 3 0 0 1-1.54-.35 2.7 2.7 0 0 1-1.07-.99 2.7 2.7 0 0 1-.39-1.43 2.7 2.7 0 0 1 .39-1.43 2.7 2.7 0 0 1 1.07-.98 3 3 0 0 1 1.54-.36 3 3 0 0 1 1.49.36 2 2 0 0 1 .92 1.01l-1.21.65a1.3 1.3 0 0 0-1.21-.74 1.4 1.4 0 0 0-1.01.4 1.5 1.5 0 0 0-.4 1.09 1.5 1.5 0 0 0 .4 1.09 1.4 1.4 0 0 0 1.01.4 1.3 1.3 0 0 0 1.21-.74l1.21.66a2 2 0 0 1-.92 1 3 3 0 0 1-1.49.36m5.48-5.54a2.8 2.8 0 0 1 1.92.6 2.3 2.3 0 0 1 .67 1.8V0h-1.46v-.67a1.7 1.7 0 0 1-1.64.75 3 3 0 0 1-1.07-.21 1.6 1.6 0 0 1-.7-.58 1.5 1.5 0 0 1-.24-.84 1.4 1.4 0 0 1 .57-1.18 3 3 0 0 1 1.75-.43h1.23a1 1 0 0 0-.3-.78 1.4 1.4 0 0 0-.94-.28 3 3 0 0 0-.84.13 2 2 0 0 0-.7.37l-.56-1.09a3 3 0 0 1 1.05-.48 5 5 0 0 1 1.26-.17m-.12 4.49a1.4 1.4 0 0 0 .71-.18 1 1 0 0 0 .44-.55v-.55h-1.07q-.96 0-.96.63a.6.6 0 0 0 .24.48 1 1 0 0 0 .64.17m7.59.71a2 2 0 0 1-.56.26 3 3 0 0 1-.71.08 2 2 0 0 1-1.48-.49 2 2 0 0 1-.53-1.44v-2.21h-.83v-1.2h.83v-1.31h1.56v1.31h1.34v1.2H47.5v2.19a.7.7 0 0 0 .18.53.7.7 0 0 0 .49.18 1 1 0 0 0 .63-.2Zm5.98-2.41-.03.42H51.1a1.3 1.3 0 0 0 .52.79 1.7 1.7 0 0 0 1.02.29 2 2 0 0 0 .75-.12 2 2 0 0 0 .6-.4l.83.9a2.8 2.8 0 0 1-2.22.87 3.5 3.5 0 0 1-1.61-.36 2.6 2.6 0 0 1-1.08-.98 2.7 2.7 0 0 1-.38-1.43 3 3 0 0 1 .37-1.43 2.6 2.6 0 0 1 1.03-.99 3 3 0 0 1 1.47-.35 3 3 0 0 1 1.43.34 2.5 2.5 0 0 1 1 .98 3 3 0 0 1 .37 1.47m-2.79-1.61a1.3 1.3 0 0 0-.89.3 1.3 1.3 0 0 0-.44.82h2.65a1.3 1.3 0 0 0-.44-.82 1.3 1.3 0 0 0-.88-.3M58.05.08a5 5 0 0 1-1.31-.16 3 3 0 0 1-1.02-.42l.52-1.12a3 3 0 0 0 .87.38 4 4 0 0 0 1 .14q.99 0 .99-.49a.35.35 0 0 0-.27-.33 4 4 0 0 0-.83-.17 8 8 0 0 1-1.09-.23 2 2 0 0 1-.74-.46 1.3 1.3 0 0 1-.32-.94 1.5 1.5 0 0 1 .3-.9 2 2 0 0 1 .86-.61 4 4 0 0 1 1.33-.22 5 5 0 0 1 1.14.12 3 3 0 0 1 .93.35l-.52 1.1a3 3 0 0 0-1.55-.4 2 2 0 0 0-.75.14.4.4 0 0 0-.25.36.4.4 0 0 0 .27.35 5 5 0 0 0 .86.2 9 9 0 0 1 1.08.23 1.6 1.6 0 0 1 .73.45 1.3 1.3 0 0 1 .31.92 1.4 1.4 0 0 1-.3.9 2 2 0 0 1-.87.6 4 4 0 0 1-1.37.21m8.5-5.54a2.8 2.8 0 0 1 1.92.6 2.3 2.3 0 0 1 .67 1.8V0h-1.46v-.67a1.7 1.7 0 0 1-1.64.75 3 3 0 0 1-1.07-.21 1.6 1.6 0 0 1-.7-.58 1.5 1.5 0 0 1-.24-.84 1.4 1.4 0 0 1 .57-1.18 3 3 0 0 1 1.75-.43h1.24a1 1 0 0 0-.32-.78 1.4 1.4 0 0 0-.93-.28 3 3 0 0 0-.84.13 2 2 0 0 0-.7.37l-.57-1.09a3 3 0 0 1 1.06-.48 5 5 0 0 1 1.26-.17m-.12 4.49a1.4 1.4 0 0 0 .71-.18 1 1 0 0 0 .44-.55v-.55h-1.07q-.96 0-.96.63a.6.6 0 0 0 .24.48 1 1 0 0 0 .64.17M72.36.08a5 5 0 0 1-1.31-.16 3 3 0 0 1-1.02-.42l.52-1.12a3 3 0 0 0 .87.38 4 4 0 0 0 1 .14q.99 0 .99-.49a.35.35 0 0 0-.27-.33 4 4 0 0 0-.83-.17 8 8 0 0 1-1.09-.23 2 2 0 0 1-.74-.46 1.3 1.3 0 0 1-.32-.94 1.5 1.5 0 0 1 .3-.9 2 2 0 0 1 .86-.61 4 4 0 0 1 1.33-.22 5 5 0 0 1 1.13.12 3 3 0 0 1 .94.35l-.52 1.1a3 3 0 0 0-1.55-.4 2 2 0 0 0-.75.14.4.4 0 0 0-.25.36.4.4 0 0 0 .27.35 5 5 0 0 0 .86.19 9 9 0 0 1 1.08.23 1.6 1.6 0 0 1 .73.46 1.3 1.3 0 0 1 .31.92 1.4 1.4 0 0 1-.3.89 2 2 0 0 1-.87.6 4 4 0 0 1-1.37.22m8.5-5.54a2.8 2.8 0 0 1 1.92.6 2.3 2.3 0 0 1 .67 1.8V0h-1.46v-.67a1.7 1.7 0 0 1-1.64.75 3 3 0 0 1-1.07-.21 1.6 1.6 0 0 1-.7-.58 1.5 1.5 0 0 1-.24-.84 1.4 1.4 0 0 1 .56-1.18 3 3 0 0 1 1.75-.43h1.24a1 1 0 0 0-.31-.78 1.4 1.4 0 0 0-.93-.28 3 3 0 0 0-.85.13 2 2 0 0 0-.7.37l-.56-1.09a3 3 0 0 1 1.06-.48 5 5 0 0 1 1.26-.17m-.12 4.49a1.4 1.4 0 0 0 .71-.18 1 1 0 0 0 .44-.55v-.55h-1.07q-.96 0-.96.63a.6.6 0 0 0 .24.48 1 1 0 0 0 .64.17M90.1.12a6 6 0 0 1-1.6-.22 4 4 0 0 1-1.25-.59l.55-1.22a4 4 0 0 0 1.07.53 4 4 0 0 0 1.24.2 2 2 0 0 0 1.02-.2.6.6 0 0 0 .33-.55.5.5 0 0 0-.2-.41 2 2 0 0 0-.5-.26q-.3-.1-.82-.22a11 11 0 0 1-1.31-.39 2 2 0 0 1-.88-.6 1.7 1.7 0 0 1-.36-1.12 2 2 0 0 1 .33-1.11 2 2 0 0 1 1-.79 4 4 0 0 1 1.62-.29 5 5 0 0 1 1.31.16 4 4 0 0 1 1.12.46l-.5 1.23a4 4 0 0 0-1.94-.55 2 2 0 0 0-1 .22.7.7 0 0 0-.33.58.6.6 0 0 0 .38.54 6 6 0 0 0 1.14.34 11 11 0 0 1 1.31.38 2 2 0 0 1 .88.6 1.6 1.6 0 0 1 .36 1.11 2 2 0 0 1-.33 1.1 2.3 2.3 0 0 1-1 .78 4 4 0 0 1-1.64.29m9.24-2.79-.03.42h-4.07a1.3 1.3 0 0 0 .52.79 1.7 1.7 0 0 0 1.02.29 2 2 0 0 0 .74-.12 2 2 0 0 0 .6-.4l.83.9a2.8 2.8 0 0 1-2.22.87 3.5 3.5 0 0 1-1.6-.35 2.6 2.6 0 0 1-1.09-.99 2.7 2.7 0 0 1-.38-1.43 3 3 0 0 1 .38-1.42 2.6 2.6 0 0 1 1.03-1 3 3 0 0 1 1.47-.35 3 3 0 0 1 1.43.34 2.5 2.5 0 0 1 1 .98 3 3 0 0 1 .37 1.47m-2.79-1.61a1.3 1.3 0 0 0-.89.3 1.3 1.3 0 0 0-.44.82h2.65a1.3 1.3 0 0 0-.44-.82 1.3 1.3 0 0 0-.88-.3m5.32-.39a2 2 0 0 1 .76-.59 3 3 0 0 1 1.1-.2v1.44l-.36-.02a1.4 1.4 0 0 0-1.05.38 1.5 1.5 0 0 0-.37 1.12V0h-1.56v-5.38h1.49Zm8.31-.71L107.91 0h-1.61l-2.26-5.38h1.61l1.49 3.66 1.54-3.66Zm.64 0h1.56V0h-1.56Zm.78-.75a1 1 0 0 1-.7-.25.8.8 0 0 1-.27-.62.8.8 0 0 1 .27-.62 1 1 0 0 1 .7-.25 1 1 0 0 1 .7.24.8.8 0 0 1 .27.6 1 1 0 0 1-.27.65 1 1 0 0 1-.7.25m4.83 6.21a3 3 0 0 1-1.54-.35 2.7 2.7 0 0 1-1.07-.99 2.7 2.7 0 0 1-.39-1.43 2.7 2.7 0 0 1 .39-1.43 2.7 2.7 0 0 1 1.07-.98 3 3 0 0 1 1.54-.36 3 3 0 0 1 1.49.36 2 2 0 0 1 .92 1.01l-1.21.65a1.3 1.3 0 0 0-1.21-.74 1.4 1.4 0 0 0-1.01.4 1.5 1.5 0 0 0-.4 1.09 1.5 1.5 0 0 0 .4 1.09 1.4 1.4 0 0 0 1.01.4 1.3 1.3 0 0 0 1.21-.74l1.21.66a2 2 0 0 1-.92 1 3 3 0 0 1-1.49.36m8.51-2.75-.03.42h-4.07a1.3 1.3 0 0 0 .52.79 1.7 1.7 0 0 0 1.02.29 2 2 0 0 0 .75-.12 2 2 0 0 0 .6-.4l.82.9a2.8 2.8 0 0 1-2.22.87 3.5 3.5 0 0 1-1.6-.35 2.6 2.6 0 0 1-1.09-.99 2.7 2.7 0 0 1-.38-1.43 3 3 0 0 1 .38-1.42 2.6 2.6 0 0 1 1.03-1 3 3 0 0 1 1.47-.35 3 3 0 0 1 1.43.34 2.5 2.5 0 0 1 1 .98 3 3 0 0 1 .37 1.47m-2.79-1.61a1.3 1.3 0 0 0-.89.3 1.3 1.3 0 0 0-.44.82h2.65a1.3 1.3 0 0 0-.44-.82 1.3 1.3 0 0 0-.88-.3" transform="translate(789 396)"/><path id="Path_5129" fill="#195f8c" d="M7.56-7 4.53 0h-1.6L-.09-7h1.75l2.13 5 2.16-5Zm5.71 1.62V0h-1.48v-.64a2 2 0 0 1-.74.54 2 2 0 0 1-.93.18 2.3 2.3 0 0 1-1.68-.61 2.4 2.4 0 0 1-.62-1.81v-3.04h1.56v2.81q0 1.3 1.09 1.3a1.2 1.2 0 0 0 .9-.36 1.5 1.5 0 0 0 .34-1.09v-2.66Zm1.45-2.04h1.56V0h-1.56ZM21-5.46a2.2 2.2 0 0 1 1.62.6 2.4 2.4 0 0 1 .61 1.78V0h-1.56v-2.84a1.4 1.4 0 0 0-.28-.95 1 1 0 0 0-.81-.32 1.2 1.2 0 0 0-.94.37 1.5 1.5 0 0 0-.35 1.08V0h-1.56v-5.38h1.49v.63a2 2 0 0 1 .77-.52 3 3 0 0 1 1.01-.2m8.97 2.79-.03.42h-4.07a1.3 1.3 0 0 0 .52.79 1.7 1.7 0 0 0 1.02.29 2 2 0 0 0 .75-.12 2 2 0 0 0 .6-.4l.83.9a2.8 2.8 0 0 1-2.22.87 3.5 3.5 0 0 1-1.61-.35 2.6 2.6 0 0 1-1.08-.99 2.7 2.7 0 0 1-.38-1.43 3 3 0 0 1 .37-1.42 2.6 2.6 0 0 1 1.03-1 3 3 0 0 1 1.47-.35 3 3 0 0 1 1.43.34 2.5 2.5 0 0 1 1 .98 3 3 0 0 1 .37 1.47m-2.79-1.61a1.3 1.3 0 0 0-.89.3 1.3 1.3 0 0 0-.44.82h2.65a1.3 1.3 0 0 0-.44-.82 1.3 1.3 0 0 0-.88-.3m5.32-.39a2 2 0 0 1 .76-.59 3 3 0 0 1 1.1-.2v1.44L34-4.04a1.4 1.4 0 0 0-1.05.38 1.5 1.5 0 0 0-.38 1.12V0H31v-5.38h1.49Zm4.92-.79a2.8 2.8 0 0 1 1.92.6 2.3 2.3 0 0 1 .67 1.8V0h-1.46v-.67a1.7 1.7 0 0 1-1.64.75 3 3 0 0 1-1.07-.21 1.6 1.6 0 0 1-.7-.58 1.5 1.5 0 0 1-.24-.84 1.4 1.4 0 0 1 .56-1.18 3 3 0 0 1 1.75-.43h1.24a1 1 0 0 0-.31-.78 1.4 1.4 0 0 0-.93-.28 3 3 0 0 0-.85.14 2 2 0 0 0-.7.36l-.56-1.09a3 3 0 0 1 1.06-.48 5 5 0 0 1 1.26-.17M37.3-.97a1.4 1.4 0 0 0 .71-.18 1 1 0 0 0 .44-.55v-.55h-1.07q-.96 0-.96.63a.6.6 0 0 0 .24.48 1 1 0 0 0 .64.17m7.3-4.49a3 3 0 0 1 1.36.35 2.5 2.5 0 0 1 .97.97 3 3 0 0 1 .35 1.45 3 3 0 0 1-.35 1.45 2.5 2.5 0 0 1-.96.97 3 3 0 0 1-1.37.35 2 2 0 0 1-1.69-.7V0h-1.49v-7.42h1.56v2.61a2 2 0 0 1 1.62-.65m-.27 4.26a1.3 1.3 0 0 0 .99-.4 1.5 1.5 0 0 0 .38-1.09 1.5 1.5 0 0 0-.38-1.08 1.3 1.3 0 0 0-.99-.41 1.3 1.3 0 0 0-.98.4 1.5 1.5 0 0 0-.39 1.09 1.5 1.5 0 0 0 .39 1.09 1.3 1.3 0 0 0 .98.4m3.99-4.18h1.56V0h-1.56Zm.78-.75a1 1 0 0 1-.7-.25.8.8 0 0 1-.27-.62.8.8 0 0 1 .27-.62 1 1 0 0 1 .7-.25 1 1 0 0 1 .7.24.8.8 0 0 1 .27.6 1 1 0 0 1-.27.65 1 1 0 0 1-.7.25m2.23-1.29h1.56V0h-1.56Zm3.01 2.04h1.56V0h-1.56Zm.78-.75a1 1 0 0 1-.7-.25.8.8 0 0 1-.27-.62.8.8 0 0 1 .27-.62 1 1 0 0 1 .7-.25 1 1 0 0 1 .7.24.8.8 0 0 1 .27.6 1 1 0 0 1-.27.65 1 1 0 0 1-.7.25m5.7 5.87a2 2 0 0 1-.56.26 3 3 0 0 1-.7.08 2 2 0 0 1-1.49-.49 2 2 0 0 1-.52-1.44v-2.21h-.83v-1.2h.83v-1.31h1.55v1.31h1.34v1.2H59.1v2.19a.7.7 0 0 0 .18.53.7.7 0 0 0 .49.18 1 1 0 0 0 .63-.2Zm6.12-5.12L64.51.33a3 3 0 0 1-.91 1.31 2.2 2.2 0 0 1-1.31.38 3 3 0 0 1-.83-.13 2 2 0 0 1-.67-.36l.56-1.11a1 1 0 0 0 .42.25 1 1 0 0 0 .46.09 1 1 0 0 0 .52-.16 1.3 1.3 0 0 0 .36-.51l.02-.05-2.33-5.42h1.61l1.51 3.65 1.52-3.65ZM72.22.08a5 5 0 0 1-1.31-.16 3 3 0 0 1-1.02-.42l.52-1.12a3 3 0 0 0 .87.38 4 4 0 0 0 1 .14q.99 0 .99-.49a.35.35 0 0 0-.27-.33 4 4 0 0 0-.83-.17 8 8 0 0 1-1.09-.23 2 2 0 0 1-.74-.46 1.3 1.3 0 0 1-.32-.94 1.5 1.5 0 0 1 .3-.9 2 2 0 0 1 .86-.61 4 4 0 0 1 1.33-.22 5 5 0 0 1 1.13.12 3 3 0 0 1 .94.35l-.52 1.1a3 3 0 0 0-1.55-.4 2 2 0 0 0-.75.14.4.4 0 0 0-.25.36.4.4 0 0 0 .27.35 5 5 0 0 0 .86.2 9 9 0 0 1 1.08.23 1.6 1.6 0 0 1 .73.45 1.3 1.3 0 0 1 .31.92 1.4 1.4 0 0 1-.3.9 2 2 0 0 1-.87.6 4 4 0 0 1-1.37.21m6.1 0a3 3 0 0 1-1.54-.35 2.7 2.7 0 0 1-1.08-.99 2.7 2.7 0 0 1-.38-1.43 2.7 2.7 0 0 1 .39-1.43 2.7 2.7 0 0 1 1.07-.98 3 3 0 0 1 1.54-.36 3 3 0 0 1 1.49.36 2 2 0 0 1 .92 1.01l-1.21.65a1.3 1.3 0 0 0-1.21-.74 1.4 1.4 0 0 0-1.01.4 1.5 1.5 0 0 0-.4 1.09 1.5 1.5 0 0 0 .4 1.09 1.4 1.4 0 0 0 1.01.4 1.3 1.3 0 0 0 1.21-.74l1.21.66a2 2 0 0 1-.92 1 3 3 0 0 1-1.49.36m5.48-5.54a2.8 2.8 0 0 1 1.92.6 2.3 2.3 0 0 1 .67 1.8V0h-1.46v-.67a1.7 1.7 0 0 1-1.64.75 3 3 0 0 1-1.07-.21 1.6 1.6 0 0 1-.7-.58 1.5 1.5 0 0 1-.24-.84 1.4 1.4 0 0 1 .57-1.18 3 3 0 0 1 1.74-.43h1.24a1 1 0 0 0-.31-.78 1.4 1.4 0 0 0-.93-.28 3 3 0 0 0-.84.14 2 2 0 0 0-.71.36l-.56-1.09a3 3 0 0 1 1.06-.48 5 5 0 0 1 1.26-.17m-.12 4.49a1.4 1.4 0 0 0 .71-.18 1 1 0 0 0 .44-.55v-.55h-1.07q-.96 0-.96.63a.6.6 0 0 0 .24.48 1 1 0 0 0 .64.17m7.39-4.49a2.2 2.2 0 0 1 1.62.6 2.4 2.4 0 0 1 .61 1.78V0h-1.56v-2.84a1.4 1.4 0 0 0-.28-.95 1 1 0 0 0-.81-.32 1.2 1.2 0 0 0-.94.37 1.5 1.5 0 0 0-.35 1.08V0H87.8v-5.38h1.49v.63a2 2 0 0 1 .77-.52 3 3 0 0 1 1.01-.19m6.91 0a2.2 2.2 0 0 1 1.62.6 2.4 2.4 0 0 1 .61 1.78V0h-1.56v-2.84a1.4 1.4 0 0 0-.28-.95 1 1 0 0 0-.81-.32 1.2 1.2 0 0 0-.94.37 1.5 1.5 0 0 0-.35 1.08V0h-1.56v-5.38h1.49v.63a2 2 0 0 1 .77-.52 3 3 0 0 1 1.01-.19m3.64.08h1.56V0h-1.56Zm.78-.75a1 1 0 0 1-.7-.25.8.8 0 0 1-.27-.62.8.8 0 0 1 .27-.62 1 1 0 0 1 .7-.25 1 1 0 0 1 .7.24.8.8 0 0 1 .27.6 1 1 0 0 1-.27.65 1 1 0 0 1-.7.25m5.5.67a2.2 2.2 0 0 1 1.62.6 2.4 2.4 0 0 1 .61 1.78V0h-1.56v-2.84a1.4 1.4 0 0 0-.28-.95 1 1 0 0 0-.81-.32 1.2 1.2 0 0 0-.94.37 1.5 1.5 0 0 0-.35 1.08V0h-1.56v-5.38h1.49v.63a2 2 0 0 1 .77-.52 3 3 0 0 1 1.01-.19m9.25.08V-.9a3 3 0 0 1-.77 2.2 3.2 3.2 0 0 1-2.25.72 6 6 0 0 1-1.48-.19 3 3 0 0 1-1.16-.55l.62-1.12a3 3 0 0 0 .86.44 3 3 0 0 0 1.04.17 1.7 1.7 0 0 0 1.19-.36 1.5 1.5 0 0 0 .39-1.1v-.24a2.2 2.2 0 0 1-1.7.67 3 3 0 0 1-1.36-.32 2.5 2.5 0 0 1-.97-.92 2.6 2.6 0 0 1-.36-1.36 2.6 2.6 0 0 1 .36-1.36 2.5 2.5 0 0 1 .97-.92 3 3 0 0 1 1.36-.32 2.1 2.1 0 0 1 1.78.77v-.69Zm-2.95 3.84a1.4 1.4 0 0 0 1.01-.36 1.2 1.2 0 0 0 .4-.96 1.2 1.2 0 0 0-.4-.95 1.4 1.4 0 0 0-1.01-.37 1.5 1.5 0 0 0-1.02.37 1.2 1.2 0 0 0-.4.95 1.2 1.2 0 0 0 .4.96 1.5 1.5 0 0 0 1.02.36" transform="translate(789 429)"/><path id="Path_5128" fill="#195f8c" d="M3.13.12a6 6 0 0 1-1.6-.22A4 4 0 0 1 .27-.69l.55-1.22a4 4 0 0 0 1.07.53 4 4 0 0 0 1.24.2 2 2 0 0 0 1.02-.2.6.6 0 0 0 .33-.55.5.5 0 0 0-.19-.42 2 2 0 0 0-.5-.26q-.3-.1-.82-.22a11 11 0 0 1-1.32-.38 2 2 0 0 1-.87-.61 1.7 1.7 0 0 1-.37-1.12 2 2 0 0 1 .33-1.1 2 2 0 0 1 1-.79 4 4 0 0 1 1.62-.29 5 5 0 0 1 1.31.16 4 4 0 0 1 1.12.46l-.5 1.23a4 4 0 0 0-1.94-.55 2 2 0 0 0-1 .22.7.7 0 0 0-.32.58.6.6 0 0 0 .37.54 6 6 0 0 0 1.14.34 11 11 0 0 1 1.31.38 2 2 0 0 1 .87.6 1.6 1.6 0 0 1 .37 1.11 2 2 0 0 1-.33 1.1 2.3 2.3 0 0 1-1 .78 4 4 0 0 1-1.64.29m9.24-2.79-.03.42H8.27a1.3 1.3 0 0 0 .52.79 1.7 1.7 0 0 0 1.02.29 2 2 0 0 0 .74-.12 2 2 0 0 0 .6-.4l.83.9a2.8 2.8 0 0 1-2.21.87 3.5 3.5 0 0 1-1.61-.36 2.6 2.6 0 0 1-1.08-.98 2.7 2.7 0 0 1-.38-1.43 3 3 0 0 1 .38-1.42 2.6 2.6 0 0 1 1.03-1 3 3 0 0 1 1.46-.35 3 3 0 0 1 1.43.34 2.5 2.5 0 0 1 1 .98 3 3 0 0 1 .37 1.47M9.58-4.28a1.3 1.3 0 0 0-.89.3 1.3 1.3 0 0 0-.44.82h2.65a1.3 1.3 0 0 0-.44-.82 1.3 1.3 0 0 0-.88-.3M16.01.08a3 3 0 0 1-1.54-.35 2.7 2.7 0 0 1-1.07-.99 2.7 2.7 0 0 1-.4-1.43 2.7 2.7 0 0 1 .39-1.43 2.7 2.7 0 0 1 1.07-.98A3 3 0 0 1 16-5.46a3 3 0 0 1 1.49.36 2 2 0 0 1 .92 1.01l-1.21.65a1.3 1.3 0 0 0-1.2-.74 1.4 1.4 0 0 0-1.01.4 1.5 1.5 0 0 0-.4 1.09 1.5 1.5 0 0 0 .4 1.09 1.4 1.4 0 0 0 1.01.4 1.3 1.3 0 0 0 1.21-.74l1.21.66a2 2 0 0 1-.92 1 3 3 0 0 1-1.5.36m8.73-5.46V0h-1.48v-.64a2 2 0 0 1-.74.54 2 2 0 0 1-.93.18 2.3 2.3 0 0 1-1.68-.61 2.4 2.4 0 0 1-.62-1.81v-3.04h1.56v2.81q0 1.3 1.09 1.3a1.2 1.2 0 0 0 .9-.36 1.5 1.5 0 0 0 .34-1.09v-2.66Zm2.94.71a2 2 0 0 1 .76-.59 3 3 0 0 1 1.09-.2v1.44l-.35-.02a1.4 1.4 0 0 0-1.05.38 1.5 1.5 0 0 0-.38 1.12V0h-1.56v-5.38h1.49Zm2.78-.71h1.56V0h-1.56Zm.78-.75a1 1 0 0 1-.7-.25.8.8 0 0 1-.27-.62.8.8 0 0 1 .27-.62 1 1 0 0 1 .7-.25 1 1 0 0 1 .7.24.8.8 0 0 1 .27.6 1 1 0 0 1-.27.65 1 1 0 0 1-.7.25m5.7 5.87a2 2 0 0 1-.56.26 3 3 0 0 1-.71.08 2 2 0 0 1-1.48-.49 2 2 0 0 1-.53-1.44v-2.21h-.83v-1.2h.83v-1.31h1.56v1.31h1.34v1.2h-1.34v2.19a.7.7 0 0 0 .18.53.7.7 0 0 0 .49.18 1 1 0 0 0 .63-.2Zm6.12-5.12L40.63.33a3 3 0 0 1-.91 1.31 2.2 2.2 0 0 1-1.32.38 3 3 0 0 1-.83-.13 2 2 0 0 1-.67-.36l.57-1.11a1 1 0 0 0 .42.25 1 1 0 0 0 .46.09 1 1 0 0 0 .52-.16 1.3 1.3 0 0 0 .36-.51l.02-.05-2.33-5.42h1.61l1.51 3.65 1.52-3.65Zm6.74-.08a2.2 2.2 0 0 1 1.62.6 2.4 2.4 0 0 1 .61 1.78V0h-1.56v-2.84a1.4 1.4 0 0 0-.28-.95 1 1 0 0 0-.81-.32 1.2 1.2 0 0 0-.94.37 1.5 1.5 0 0 0-.35 1.08V0h-1.56v-7.42h1.56v2.6a2 2 0 0 1 .75-.47 3 3 0 0 1 .96-.17m5.81 0a2.8 2.8 0 0 1 1.92.6 2.3 2.3 0 0 1 .67 1.79V0h-1.46v-.67a1.7 1.7 0 0 1-1.64.75 3 3 0 0 1-1.07-.21 1.6 1.6 0 0 1-.7-.58 1.5 1.5 0 0 1-.24-.84 1.4 1.4 0 0 1 .56-1.18 3 3 0 0 1 1.75-.43h1.24a1 1 0 0 0-.31-.78 1.4 1.4 0 0 0-.93-.28 3 3 0 0 0-.84.13 2 2 0 0 0-.7.37l-.57-1.09a3 3 0 0 1 1.06-.48 5 5 0 0 1 1.26-.17m-.12 4.49a1.4 1.4 0 0 0 .71-.18 1 1 0 0 0 .44-.55v-.55h-1.07q-.96 0-.96.63a.6.6 0 0 0 .24.48 1 1 0 0 0 .64.17m5.61-3.7a2 2 0 0 1 .76-.59 3 3 0 0 1 1.1-.2v1.44l-.35-.02a1.4 1.4 0 0 0-1.05.38 1.5 1.5 0 0 0-.38 1.12V0H59.6v-5.38h1.49Zm8.21-2.75V0h-1.49v-.62a2 2 0 0 1-1.68.7 3 3 0 0 1-1.38-.34 2.4 2.4 0 0 1-.96-.97 3 3 0 0 1-.35-1.46 3 3 0 0 1 .35-1.46 2.4 2.4 0 0 1 .96-.97 3 3 0 0 1 1.38-.34 2 2 0 0 1 1.61.65v-2.61ZM66.4-1.2a1.3 1.3 0 0 0 .98-.4 1.5 1.5 0 0 0 .39-1.09 1.5 1.5 0 0 0-.39-1.09 1.3 1.3 0 0 0-.98-.4 1.3 1.3 0 0 0-.99.4 1.5 1.5 0 0 0-.39 1.09 1.5 1.5 0 0 0 .39 1.08 1.3 1.3 0 0 0 .99.41m9.61-1.47-.03.42h-4.07a1.3 1.3 0 0 0 .52.79 1.7 1.7 0 0 0 1.02.29 2 2 0 0 0 .75-.12 2 2 0 0 0 .6-.4l.82.9a2.8 2.8 0 0 1-2.22.87 3.5 3.5 0 0 1-1.6-.35 2.6 2.6 0 0 1-1.09-.99 2.7 2.7 0 0 1-.38-1.43 3 3 0 0 1 .38-1.42 2.6 2.6 0 0 1 1.03-1 3 3 0 0 1 1.47-.35 3 3 0 0 1 1.43.34 2.5 2.5 0 0 1 1 .98 3 3 0 0 1 .37 1.47m-2.79-1.61a1.3 1.3 0 0 0-.89.3 1.3 1.3 0 0 0-.44.82h2.65a1.3 1.3 0 0 0-.44-.82 1.3 1.3 0 0 0-.88-.3m7.1-1.18a2.2 2.2 0 0 1 1.62.6 2.4 2.4 0 0 1 .61 1.78V0H81v-2.84a1.4 1.4 0 0 0-.28-.95 1 1 0 0 0-.81-.32 1.2 1.2 0 0 0-.94.37 1.5 1.5 0 0 0-.35 1.08V0h-1.56v-5.38h1.49v.63a2 2 0 0 1 .77-.52 3 3 0 0 1 1.01-.19m3.64.08h1.56V0h-1.56Zm.78-.75a1 1 0 0 1-.7-.25.8.8 0 0 1-.27-.62.8.8 0 0 1 .27-.62 1 1 0 0 1 .7-.25 1 1 0 0 1 .7.24.8.8 0 0 1 .27.6 1 1 0 0 1-.27.65 1 1 0 0 1-.7.25m5.5.67a2.2 2.2 0 0 1 1.62.6 2.4 2.4 0 0 1 .61 1.78V0h-1.56v-2.84a1.4 1.4 0 0 0-.28-.95 1 1 0 0 0-.81-.32 1.2 1.2 0 0 0-.94.37 1.5 1.5 0 0 0-.35 1.08V0h-1.56v-5.38h1.49v.63a2 2 0 0 1 .77-.52 3 3 0 0 1 1.01-.19m9.25.08V-.9a3 3 0 0 1-.77 2.2 3.2 3.2 0 0 1-2.25.72A6 6 0 0 1 95 1.83a3 3 0 0 1-1.16-.55l.62-1.12a3 3 0 0 0 .86.44 3 3 0 0 0 1.04.17 1.7 1.7 0 0 0 1.2-.36 1.5 1.5 0 0 0 .38-1.11v-.23a2.2 2.2 0 0 1-1.7.67 3 3 0 0 1-1.35-.32 2.5 2.5 0 0 1-.98-.92 2.6 2.6 0 0 1-.36-1.36 2.6 2.6 0 0 1 .36-1.36 2.5 2.5 0 0 1 .98-.92 3 3 0 0 1 1.35-.32 2.1 2.1 0 0 1 1.78.77v-.69Zm-2.95 3.84a1.4 1.4 0 0 0 1.01-.36 1.2 1.2 0 0 0 .4-.96 1.2 1.2 0 0 0-.4-.95 1.4 1.4 0 0 0-1.01-.37 1.5 1.5 0 0 0-1.02.37 1.2 1.2 0 0 0-.4.95 1.2 1.2 0 0 0 .4.96 1.5 1.5 0 0 0 1.02.36" transform="translate(789 495)"/><path id="Path_5127" fill="#195f8c" d="M.83-7h1.62v7H.83Zm6.44 1.54a2.2 2.2 0 0 1 1.62.6 2.4 2.4 0 0 1 .61 1.78V0H7.94v-2.84a1.4 1.4 0 0 0-.28-.96 1 1 0 0 0-.81-.31 1.2 1.2 0 0 0-.94.36 1.5 1.5 0 0 0-.35 1.09V0H4v-5.38h1.49v.63a2 2 0 0 1 .77-.52 3 3 0 0 1 1.01-.19m7.11 5.2a2 2 0 0 1-.57.26 3 3 0 0 1-.7.08 2 2 0 0 1-1.48-.49 2 2 0 0 1-.53-1.44v-2.21h-.83v-1.2h.83v-1.31h1.56v1.31H14v1.2h-1.34v2.19a.7.7 0 0 0 .18.53.7.7 0 0 0 .5.18 1 1 0 0 0 .63-.2Zm2.37-4.41a2 2 0 0 1 .76-.59 3 3 0 0 1 1.1-.2v1.44l-.35-.02a1.4 1.4 0 0 0-1.06.38 1.5 1.5 0 0 0-.38 1.12V0h-1.56v-5.38h1.49Zm8.24-.71V0h-1.48v-.64a2 2 0 0 1-.74.54 2 2 0 0 1-.93.18 2.3 2.3 0 0 1-1.68-.61 2.4 2.4 0 0 1-.62-1.81v-3.04h1.56v2.81q0 1.3 1.09 1.3a1.2 1.2 0 0 0 .9-.36 1.5 1.5 0 0 0 .34-1.09v-2.66ZM28.25.08a5 5 0 0 1-1.31-.16 3 3 0 0 1-1.02-.42l.52-1.12a3 3 0 0 0 .87.38 4 4 0 0 0 1 .14q.99 0 .99-.49a.35.35 0 0 0-.27-.33 4 4 0 0 0-.83-.17 8 8 0 0 1-1.09-.23 2 2 0 0 1-.74-.46 1.3 1.3 0 0 1-.32-.94 1.5 1.5 0 0 1 .3-.9 2 2 0 0 1 .86-.61 4 4 0 0 1 1.34-.22 5 5 0 0 1 1.13.12 3 3 0 0 1 .94.35l-.52 1.1a3 3 0 0 0-1.55-.4 2 2 0 0 0-.75.14.4.4 0 0 0-.25.36.4.4 0 0 0 .27.35 5 5 0 0 0 .86.2 9 9 0 0 1 1.08.23 1.6 1.6 0 0 1 .73.45 1.3 1.3 0 0 1 .3.92 1.4 1.4 0 0 1-.3.9 2 2 0 0 1-.87.6 4 4 0 0 1-1.37.21m3.5-5.46h1.56V0h-1.56Zm.78-.75a1 1 0 0 1-.7-.25.8.8 0 0 1-.27-.62.8.8 0 0 1 .27-.62 1 1 0 0 1 .7-.25 1 1 0 0 1 .7.24.8.8 0 0 1 .27.6 1 1 0 0 1-.27.65 1 1 0 0 1-.7.25M37.32.08a3 3 0 0 1-1.52-.36 2.6 2.6 0 0 1-1.06-.98 2.7 2.7 0 0 1-.38-1.43 2.7 2.7 0 0 1 .38-1.43 2.6 2.6 0 0 1 1.06-.99 3 3 0 0 1 1.52-.35 3 3 0 0 1 1.52.36 2.7 2.7 0 0 1 1.05.98 2.7 2.7 0 0 1 .38 1.43 2.7 2.7 0 0 1-.38 1.43 2.7 2.7 0 0 1-1.05.98 3 3 0 0 1-1.52.36m0-1.28a1.3 1.3 0 0 0 .99-.4 1.5 1.5 0 0 0 .38-1.09 1.5 1.5 0 0 0-.38-1.08 1.3 1.3 0 0 0-.99-.41 1.3 1.3 0 0 0-.99.4 1.5 1.5 0 0 0-.39 1.09 1.5 1.5 0 0 0 .39 1.09 1.3 1.3 0 0 0 .99.4m7.26-4.26a2.2 2.2 0 0 1 1.62.6 2.4 2.4 0 0 1 .61 1.78V0h-1.56v-2.84a1.4 1.4 0 0 0-.28-.95 1 1 0 0 0-.81-.32 1.2 1.2 0 0 0-.94.37 1.5 1.5 0 0 0-.35 1.08V0h-1.56v-5.38h1.49v.63a2 2 0 0 1 .77-.52 3 3 0 0 1 1.01-.19m11.95-1.96V0h-1.49v-.62a2 2 0 0 1-1.68.7 3 3 0 0 1-1.37-.34 2.4 2.4 0 0 1-.97-.97 3 3 0 0 1-.35-1.46 3 3 0 0 1 .35-1.46 2.4 2.4 0 0 1 .96-.97 3 3 0 0 1 1.38-.34 2 2 0 0 1 1.61.65v-2.61Zm-2.9 6.22a1.3 1.3 0 0 0 .98-.4A1.5 1.5 0 0 0 55-2.7a1.5 1.5 0 0 0-.39-1.08 1.3 1.3 0 0 0-.98-.41 1.3 1.3 0 0 0-.99.4 1.5 1.5 0 0 0-.39 1.09 1.5 1.5 0 0 0 .39 1.09 1.3 1.3 0 0 0 .99.4m9.61-1.47-.03.42h-4.07a1.3 1.3 0 0 0 .52.79 1.7 1.7 0 0 0 1.02.29 2 2 0 0 0 .75-.12 2 2 0 0 0 .6-.4l.83.9a2.8 2.8 0 0 1-2.22.87 3.5 3.5 0 0 1-1.61-.35 2.6 2.6 0 0 1-1.08-.99 2.7 2.7 0 0 1-.38-1.43 3 3 0 0 1 .37-1.42 2.6 2.6 0 0 1 1.03-1 3 3 0 0 1 1.47-.35 3 3 0 0 1 1.43.34 2.5 2.5 0 0 1 1 .98 3 3 0 0 1 .37 1.47m-2.79-1.61a1.3 1.3 0 0 0-.89.3 1.3 1.3 0 0 0-.44.82h2.65a1.3 1.3 0 0 0-.44-.82 1.3 1.3 0 0 0-.88-.3m7.3 4.02a2 2 0 0 1-.56.25 3 3 0 0 1-.7.09A2 2 0 0 1 65-.41a2 2 0 0 1-.52-1.44v-2.21h-.84v-1.2h.83v-1.31h1.56v1.31h1.34v1.2h-1.34v2.19a.7.7 0 0 0 .18.53.7.7 0 0 0 .5.18 1 1 0 0 0 .63-.2Zm5.98-2.41-.03.42h-4.07a1.3 1.3 0 0 0 .52.79 1.7 1.7 0 0 0 1.02.29 2 2 0 0 0 .74-.13 2 2 0 0 0 .6-.39l.83.9a2.8 2.8 0 0 1-2.22.87 3.5 3.5 0 0 1-1.6-.36 2.6 2.6 0 0 1-1.09-.98 2.7 2.7 0 0 1-.38-1.43 3 3 0 0 1 .38-1.43 2.6 2.6 0 0 1 1.03-.99 3 3 0 0 1 1.47-.35 3 3 0 0 1 1.43.34 2.5 2.5 0 0 1 1 .98 3 3 0 0 1 .37 1.47m-2.79-1.61a1.3 1.3 0 0 0-.89.3 1.3 1.3 0 0 0-.44.82h2.65a1.3 1.3 0 0 0-.44-.82 1.3 1.3 0 0 0-.88-.3M77.37.08a3 3 0 0 1-1.54-.35 2.7 2.7 0 0 1-1.07-.99 2.7 2.7 0 0 1-.39-1.43 2.7 2.7 0 0 1 .39-1.43 2.7 2.7 0 0 1 1.07-.98 3 3 0 0 1 1.54-.36 3 3 0 0 1 1.49.36 2 2 0 0 1 .92 1.01l-1.21.65a1.3 1.3 0 0 0-1.21-.74 1.4 1.4 0 0 0-1.01.4 1.5 1.5 0 0 0-.4 1.09 1.5 1.5 0 0 0 .4 1.09 1.4 1.4 0 0 0 1.01.4 1.3 1.3 0 0 0 1.21-.74l1.21.66a2 2 0 0 1-.92 1 3 3 0 0 1-1.49.36m6.86-.34a2 2 0 0 1-.56.26 3 3 0 0 1-.71.08 2 2 0 0 1-1.48-.49 2 2 0 0 1-.53-1.44v-2.21h-.83v-1.2h.83v-1.31h1.56v1.31h1.34v1.2h-1.34v2.19a.7.7 0 0 0 .18.53.7.7 0 0 0 .5.18 1 1 0 0 0 .63-.2Zm.88-5.12h1.56V0h-1.56Zm.78-.75a1 1 0 0 1-.7-.25.8.8 0 0 1-.27-.62.8.8 0 0 1 .27-.62 1 1 0 0 1 .7-.25 1 1 0 0 1 .7.24.8.8 0 0 1 .27.6 1 1 0 0 1-.27.65 1 1 0 0 1-.7.25M90.68.08a3 3 0 0 1-1.52-.35 2.6 2.6 0 0 1-1.06-.99 2.7 2.7 0 0 1-.38-1.43 2.7 2.7 0 0 1 .38-1.43 2.6 2.6 0 0 1 1.06-.98 3 3 0 0 1 1.52-.36 3 3 0 0 1 1.52.36 2.7 2.7 0 0 1 1.05.98 2.7 2.7 0 0 1 .38 1.43 2.7 2.7 0 0 1-.38 1.43 2.7 2.7 0 0 1-1.05.98 3 3 0 0 1-1.52.36m0-1.28a1.3 1.3 0 0 0 .99-.4 1.5 1.5 0 0 0 .38-1.09 1.5 1.5 0 0 0-.38-1.08 1.3 1.3 0 0 0-.99-.41 1.3 1.3 0 0 0-.99.4 1.5 1.5 0 0 0-.39 1.09 1.5 1.5 0 0 0 .39 1.09 1.3 1.3 0 0 0 .99.4m7.26-4.26a2.2 2.2 0 0 1 1.62.6 2.4 2.4 0 0 1 .61 1.78V0h-1.56v-2.84a1.4 1.4 0 0 0-.28-.95 1 1 0 0 0-.81-.32 1.2 1.2 0 0 0-.94.37 1.5 1.5 0 0 0-.35 1.08V0h-1.56v-5.38h1.49v.63a2 2 0 0 1 .77-.52 3 3 0 0 1 1.01-.19" transform="translate(789 462)"/><path id="Path_5126" fill="#195f8c" d="m7.2 0-.01-4.2L5.13-.74H4.4L2.35-4.11V0H.83v-7h1.34l2.62 4.35L7.37-7H8.7l.02 7Zm5.63.08a3 3 0 0 1-1.52-.35 2.6 2.6 0 0 1-1.06-.99 2.7 2.7 0 0 1-.38-1.43 2.7 2.7 0 0 1 .38-1.43 2.6 2.6 0 0 1 1.06-.98 3 3 0 0 1 1.52-.36 3 3 0 0 1 1.52.36 2.7 2.7 0 0 1 1.05.98 2.7 2.7 0 0 1 .38 1.43 2.7 2.7 0 0 1-.38 1.43 2.7 2.7 0 0 1-1.05.98 3 3 0 0 1-1.52.36m0-1.28a1.3 1.3 0 0 0 .99-.4 1.5 1.5 0 0 0 .38-1.09 1.5 1.5 0 0 0-.38-1.08 1.3 1.3 0 0 0-.99-.41 1.3 1.3 0 0 0-.99.4 1.5 1.5 0 0 0-.39 1.09 1.5 1.5 0 0 0 .39 1.09 1.3 1.3 0 0 0 .99.4m7.26-4.26a2.2 2.2 0 0 1 1.62.6 2.4 2.4 0 0 1 .61 1.78V0h-1.56v-2.84a1.4 1.4 0 0 0-.28-.95 1 1 0 0 0-.81-.32 1.2 1.2 0 0 0-.94.37 1.5 1.5 0 0 0-.35 1.08V0h-1.56v-5.38h1.49v.63a2 2 0 0 1 .77-.52 3 3 0 0 1 1.01-.19m3.64.08h1.56V0h-1.56Zm.78-.75a1 1 0 0 1-.7-.25.8.8 0 0 1-.27-.62.8.8 0 0 1 .27-.62 1 1 0 0 1 .7-.25 1 1 0 0 1 .7.24.8.8 0 0 1 .27.6 1 1 0 0 1-.27.65 1 1 0 0 1-.7.25m5.7 5.87a2 2 0 0 1-.56.26 3 3 0 0 1-.7.08 2 2 0 0 1-1.49-.49 2 2 0 0 1-.52-1.44v-2.21h-.84v-1.2h.83v-1.31h1.56v1.31h1.34v1.2h-1.34v2.19a.7.7 0 0 0 .18.53.7.7 0 0 0 .49.18 1 1 0 0 0 .63-.2Zm3.27.34a3 3 0 0 1-1.52-.35 2.6 2.6 0 0 1-1.06-.99 2.7 2.7 0 0 1-.38-1.43 2.7 2.7 0 0 1 .38-1.43 2.6 2.6 0 0 1 1.06-.98 3 3 0 0 1 1.52-.36 3 3 0 0 1 1.52.35 2.7 2.7 0 0 1 1.05.99 2.7 2.7 0 0 1 .38 1.43 2.7 2.7 0 0 1-.38 1.43A2.7 2.7 0 0 1 35-.27a3 3 0 0 1-1.52.35m0-1.28a1.3 1.3 0 0 0 .99-.4 1.5 1.5 0 0 0 .38-1.09 1.5 1.5 0 0 0-.38-1.08 1.3 1.3 0 0 0-.99-.41 1.3 1.3 0 0 0-.99.4 1.5 1.5 0 0 0-.39 1.09 1.5 1.5 0 0 0 .39 1.09 1.3 1.3 0 0 0 .99.4m5.48-3.47a2 2 0 0 1 .76-.59 3 3 0 0 1 1.1-.2v1.44l-.35-.02a1.4 1.4 0 0 0-1.05.38 1.5 1.5 0 0 0-.38 1.12V0h-1.57v-5.38h1.49Zm2.78-.71h1.56V0h-1.56Zm.78-.75a1 1 0 0 1-.7-.25.8.8 0 0 1-.27-.62.8.8 0 0 1 .27-.62 1 1 0 0 1 .7-.25 1 1 0 0 1 .7.24.8.8 0 0 1 .27.6 1 1 0 0 1-.27.65 1 1 0 0 1-.7.25m5.5.67a2.2 2.2 0 0 1 1.62.6 2.4 2.4 0 0 1 .61 1.78V0h-1.56v-2.84a1.4 1.4 0 0 0-.28-.95 1 1 0 0 0-.81-.32 1.2 1.2 0 0 0-.94.37 1.5 1.5 0 0 0-.35 1.08V0h-1.56v-5.38h1.49v.63a2 2 0 0 1 .77-.52 3 3 0 0 1 1.01-.19m9.25.08V-.9a3 3 0 0 1-.77 2.2 3.2 3.2 0 0 1-2.25.72 6 6 0 0 1-1.48-.19 3 3 0 0 1-1.16-.55l.62-1.12a3 3 0 0 0 .86.44 3 3 0 0 0 1.04.17 1.7 1.7 0 0 0 1.2-.36A1.5 1.5 0 0 0 55.7-.7v-.23a2.2 2.2 0 0 1-1.7.67 3 3 0 0 1-1.35-.32 2.5 2.5 0 0 1-.98-.92 2.6 2.6 0 0 1-.36-1.36 2.6 2.6 0 0 1 .36-1.36 2.5 2.5 0 0 1 .98-.92A3 3 0 0 1 54-5.46a2.1 2.1 0 0 1 1.78.77v-.69Zm-2.95 3.84a1.4 1.4 0 0 0 1.01-.36 1.2 1.2 0 0 0 .4-.96 1.2 1.2 0 0 0-.4-.95 1.4 1.4 0 0 0-1.01-.37 1.5 1.5 0 0 0-1.02.37 1.2 1.2 0 0 0-.4.95 1.2 1.2 0 0 0 .4.96 1.5 1.5 0 0 0 1.02.36M67.04.12l-.84-.78a3.7 3.7 0 0 1-2.34.78 4 4 0 0 1-1.37-.24 2 2 0 0 1-.95-.69 1.6 1.6 0 0 1-.35-.99 2 2 0 0 1 .37-1.14 4 4 0 0 1 1.17-.95 3 3 0 0 1-.55-.74 2 2 0 0 1-.17-.74 1.5 1.5 0 0 1 .27-.9 2 2 0 0 1 .77-.6 3 3 0 0 1 1.14-.22 2.3 2.3 0 0 1 1.46.44 1.4 1.4 0 0 1 .55 1.17 1.5 1.5 0 0 1-.32.96 3 3 0 0 1-1.05.81l1.28 1.19a5 5 0 0 0 .35-1.09l1.25.39a5 5 0 0 1-.64 1.59l.82.76Zm-2.85-6.15a.8.8 0 0 0-.56.18.6.6 0 0 0-.2.46 1 1 0 0 0 .11.4 3 3 0 0 0 .43.49 3 3 0 0 0 .71-.49.7.7 0 0 0 .2-.46.5.5 0 0 0-.18-.42.7.7 0 0 0-.51-.16m-.22 4.93a2.2 2.2 0 0 0 1.31-.41l-1.69-1.58a2 2 0 0 0-.67.53 1 1 0 0 0-.2.59.7.7 0 0 0 .34.63 1.6 1.6 0 0 0 .91.24m7.8-5.9h1.62v5.68h3.51V0h-5.13ZM80.22.08a3 3 0 0 1-1.52-.35 2.6 2.6 0 0 1-1.06-.99 2.7 2.7 0 0 1-.38-1.43 2.7 2.7 0 0 1 .38-1.43 2.6 2.6 0 0 1 1.06-.98 3 3 0 0 1 1.52-.36 3 3 0 0 1 1.52.36 2.7 2.7 0 0 1 1.05.98 2.7 2.7 0 0 1 .38 1.43 2.7 2.7 0 0 1-.38 1.43 2.7 2.7 0 0 1-1.05.98 3 3 0 0 1-1.52.36m0-1.28a1.3 1.3 0 0 0 .99-.4 1.5 1.5 0 0 0 .38-1.09 1.5 1.5 0 0 0-.38-1.08 1.3 1.3 0 0 0-.99-.41 1.3 1.3 0 0 0-.99.4 1.5 1.5 0 0 0-.39 1.09 1.5 1.5 0 0 0 .39 1.09 1.3 1.3 0 0 0 .99.4m9.54-4.18V-.9a3 3 0 0 1-.77 2.2 3.2 3.2 0 0 1-2.25.72 6 6 0 0 1-1.48-.19 3 3 0 0 1-1.16-.55l.62-1.12a3 3 0 0 0 .86.44 3 3 0 0 0 1.04.17 1.7 1.7 0 0 0 1.2-.36A1.5 1.5 0 0 0 88.2-.7v-.23a2.2 2.2 0 0 1-1.7.67 3 3 0 0 1-1.35-.32 2.5 2.5 0 0 1-.98-.92 2.6 2.6 0 0 1-.36-1.36 2.6 2.6 0 0 1 .36-1.36 2.5 2.5 0 0 1 .98-.92 3 3 0 0 1 1.35-.32 2.1 2.1 0 0 1 1.78.77v-.69Zm-2.95 3.84a1.4 1.4 0 0 0 1.01-.36 1.2 1.2 0 0 0 .4-.96 1.2 1.2 0 0 0-.4-.95 1.4 1.4 0 0 0-1.01-.37 1.5 1.5 0 0 0-1.02.37 1.2 1.2 0 0 0-.4.95 1.2 1.2 0 0 0 .4.96 1.5 1.5 0 0 0 1.02.36m9.95-3.84V-.9a3 3 0 0 1-.77 2.2 3.2 3.2 0 0 1-2.25.72 6 6 0 0 1-1.48-.19 3 3 0 0 1-1.16-.55l.62-1.12a3 3 0 0 0 .86.44 3 3 0 0 0 1.04.17 1.7 1.7 0 0 0 1.2-.36A1.5 1.5 0 0 0 95.2-.7v-.23a2.2 2.2 0 0 1-1.7.67 3 3 0 0 1-1.35-.32 2.5 2.5 0 0 1-.98-.92 2.6 2.6 0 0 1-.36-1.36 2.6 2.6 0 0 1 .36-1.36 2.5 2.5 0 0 1 .98-.92 3 3 0 0 1 1.35-.32 2.1 2.1 0 0 1 1.78.77v-.69Zm-2.95 3.84a1.4 1.4 0 0 0 1.01-.36 1.2 1.2 0 0 0 .4-.96 1.2 1.2 0 0 0-.4-.95 1.4 1.4 0 0 0-1.01-.37 1.5 1.5 0 0 0-1.02.37 1.2 1.2 0 0 0-.4.95 1.2 1.2 0 0 0 .4.96 1.5 1.5 0 0 0 1.02.36m4.4-3.84h1.56V0h-1.56Zm.78-.75a1 1 0 0 1-.7-.25.8.8 0 0 1-.27-.62.8.8 0 0 1 .27-.62 1 1 0 0 1 .7-.25 1 1 0 0 1 .7.24.8.8 0 0 1 .27.6 1 1 0 0 1-.27.65 1 1 0 0 1-.7.25m5.5.67a2.2 2.2 0 0 1 1.62.6 2.4 2.4 0 0 1 .61 1.78V0h-1.56v-2.84a1.4 1.4 0 0 0-.28-.95 1 1 0 0 0-.81-.32 1.2 1.2 0 0 0-.94.37 1.5 1.5 0 0 0-.35 1.08V0h-1.56v-5.38h1.49v.63a2 2 0 0 1 .77-.52 3 3 0 0 1 1.01-.19m9.25.08V-.9a3 3 0 0 1-.77 2.2 3.2 3.2 0 0 1-2.25.72 6 6 0 0 1-1.48-.19 3 3 0 0 1-1.16-.55l.62-1.12a3 3 0 0 0 .86.44 3 3 0 0 0 1.04.17 1.7 1.7 0 0 0 1.2-.36 1.5 1.5 0 0 0 .38-1.1v-.24a2.2 2.2 0 0 1-1.7.67 3 3 0 0 1-1.36-.32 2.5 2.5 0 0 1-.97-.92 2.6 2.6 0 0 1-.36-1.36 2.6 2.6 0 0 1 .36-1.36 2.5 2.5 0 0 1 .97-.92 3 3 0 0 1 1.36-.32 2.1 2.1 0 0 1 1.78.77v-.69Zm-2.95 3.84a1.4 1.4 0 0 0 1.01-.36 1.2 1.2 0 0 0 .4-.96 1.2 1.2 0 0 0-.4-.95 1.4 1.4 0 0 0-1.01-.37 1.5 1.5 0 0 0-1.02.37 1.2 1.2 0 0 0-.4.95 1.2 1.2 0 0 0 .4.96 1.5 1.5 0 0 0 1.02.36m9.04 1.62a5 5 0 0 1-1.31-.16 3 3 0 0 1-1.02-.42l.52-1.12a3 3 0 0 0 .87.38 4 4 0 0 0 1 .14q.99 0 .99-.49a.35.35 0 0 0-.27-.33 4 4 0 0 0-.83-.17 8 8 0 0 1-1.09-.23 2 2 0 0 1-.74-.46 1.3 1.3 0 0 1-.32-.94 1.5 1.5 0 0 1 .3-.9 2 2 0 0 1 .85-.61 4 4 0 0 1 1.34-.22 5 5 0 0 1 1.13.12 3 3 0 0 1 .94.35l-.52 1.1a3 3 0 0 0-1.55-.4 2 2 0 0 0-.75.14.4.4 0 0 0-.25.36.4.4 0 0 0 .27.35 5 5 0 0 0 .86.2 9 9 0 0 1 1.08.23 1.6 1.6 0 0 1 .73.45 1.3 1.3 0 0 1 .31.92 1.4 1.4 0 0 1-.3.9 2 2 0 0 1-.87.6 4 4 0 0 1-1.37.21m6.97-.34a2 2 0 0 1-.56.26 3 3 0 0 1-.71.08 2 2 0 0 1-1.48-.49 2 2 0 0 1-.53-1.44v-2.21h-.83v-1.2h.83v-1.31h1.56v1.31h1.34v1.2h-1.34v2.19a.7.7 0 0 0 .18.53.7.7 0 0 0 .5.18 1 1 0 0 0 .62-.2Zm3.05-5.2a2.8 2.8 0 0 1 1.92.6 2.3 2.3 0 0 1 .67 1.8V0h-1.46v-.67a1.7 1.7 0 0 1-1.64.75 3 3 0 0 1-1.08-.21 1.6 1.6 0 0 1-.69-.58 1.5 1.5 0 0 1-.24-.84 1.4 1.4 0 0 1 .56-1.18 3 3 0 0 1 1.75-.43h1.24a1 1 0 0 0-.31-.78 1.4 1.4 0 0 0-.93-.28 3 3 0 0 0-.84.14 2 2 0 0 0-.71.36l-.56-1.09a3 3 0 0 1 1.05-.48 5 5 0 0 1 1.27-.17m-.12 4.49a1.4 1.4 0 0 0 .71-.18 1 1 0 0 0 .44-.55v-.55h-1.07q-.96 0-.96.63a.6.6 0 0 0 .24.48 1 1 0 0 0 .64.17m6.78 1.05a3 3 0 0 1-1.54-.35 2.7 2.7 0 0 1-1.07-.99 2.7 2.7 0 0 1-.39-1.43 2.7 2.7 0 0 1 .39-1.43 2.7 2.7 0 0 1 1.07-.98 3 3 0 0 1 1.54-.36 3 3 0 0 1 1.49.36 2 2 0 0 1 .92 1.01l-1.21.65a1.3 1.3 0 0 0-1.21-.74 1.4 1.4 0 0 0-1.01.4 1.5 1.5 0 0 0-.4 1.09 1.5 1.5 0 0 0 .4 1.09 1.4 1.4 0 0 0 1.01.4 1.3 1.3 0 0 0 1.21-.74l1.21.66a2 2 0 0 1-.92 1 3 3 0 0 1-1.49.36m5.58-2.19-.75.74V0h-1.56v-7.42h1.56v4.2l2.28-2.16h1.86l-2.24 2.28 2.44 3.1h-1.89Z" transform="translate(789 528)"/><path id="Path_5125" fill="#195f8c" d="M4.18.12a4 4 0 0 1-1.93-.46 3.5 3.5 0 0 1-1.36-1.3 3.6 3.6 0 0 1-.5-1.86 3.6 3.6 0 0 1 .5-1.87 3.5 3.5 0 0 1 1.36-1.28 4 4 0 0 1 1.94-.47 4 4 0 0 1 1.65.32 3 3 0 0 1 1.23.92l-1.04.96a2.2 2.2 0 0 0-1.76-.82 2.3 2.3 0 0 0-1.16.28 2 2 0 0 0-.8.8 2.3 2.3 0 0 0-.28 1.16 2.3 2.3 0 0 0 .28 1.16 2 2 0 0 0 .8.8 2.3 2.3 0 0 0 1.16.28 2.2 2.2 0 0 0 1.76-.83l1.04.96a3 3 0 0 1-1.24.93 4 4 0 0 1-1.65.32M8.16-7h1.62v7H8.16ZM13.74.12a6 6 0 0 1-1.6-.22 4 4 0 0 1-1.25-.59l.55-1.22a4 4 0 0 0 1.07.53 4 4 0 0 0 1.24.2 2 2 0 0 0 1.02-.2.6.6 0 0 0 .33-.55.5.5 0 0 0-.2-.41 2 2 0 0 0-.5-.26q-.3-.1-.82-.22a11 11 0 0 1-1.31-.39 2 2 0 0 1-.87-.6 1.7 1.7 0 0 1-.37-1.12 2 2 0 0 1 .33-1.11 2 2 0 0 1 1-.79 4 4 0 0 1 1.62-.29 5 5 0 0 1 1.31.16 4 4 0 0 1 1.12.46l-.5 1.23a4 4 0 0 0-1.94-.55 2 2 0 0 0-1 .22.7.7 0 0 0-.32.58.6.6 0 0 0 .37.54 6 6 0 0 0 1.15.35 11 11 0 0 1 1.3.37 2 2 0 0 1 .88.6 1.6 1.6 0 0 1 .37 1.11 2 2 0 0 1-.34 1.1 2.3 2.3 0 0 1-1.01.78 4 4 0 0 1-1.63.29m7.47 0a4 4 0 0 1-1.96-.47 3.5 3.5 0 0 1-1.37-1.3 3.5 3.5 0 0 1-.5-1.85 3.5 3.5 0 0 1 .5-1.85 3.5 3.5 0 0 1 1.37-1.3 4 4 0 0 1 1.96-.47 4 4 0 0 1 1.96.47 3.5 3.5 0 0 1 1.37 1.3 3.5 3.5 0 0 1 .5 1.85 3.5 3.5 0 0 1-.5 1.85 3.5 3.5 0 0 1-1.37 1.3 4 4 0 0 1-1.96.47m0-1.38a2 2 0 0 0 1.12-.28 2 2 0 0 0 .79-.8 2.3 2.3 0 0 0 .28-1.16 2.3 2.3 0 0 0-.28-1.16 2 2 0 0 0-.79-.8 2 2 0 0 0-1.12-.28 2 2 0 0 0-1.12.28 2 2 0 0 0-.79.8 2.3 2.3 0 0 0-.28 1.16 2.3 2.3 0 0 0 .28 1.16 2 2 0 0 0 .79.8 2 2 0 0 0 1.12.28m13.25-6.16V0h-1.49v-.62a2 2 0 0 1-1.68.7 3 3 0 0 1-1.37-.34 2.4 2.4 0 0 1-.97-.97 3 3 0 0 1-.35-1.46 3 3 0 0 1 .35-1.46 2.4 2.4 0 0 1 .97-.97 3 3 0 0 1 1.37-.34 2 2 0 0 1 1.61.65v-2.61Zm-2.9 6.22a1.3 1.3 0 0 0 .98-.4 1.5 1.5 0 0 0 .39-1.09 1.5 1.5 0 0 0-.39-1.09 1.3 1.3 0 0 0-.98-.4 1.3 1.3 0 0 0-.99.4 1.5 1.5 0 0 0-.39 1.09 1.5 1.5 0 0 0 .39 1.08 1.3 1.3 0 0 0 .99.41m6.51-4.26a2.8 2.8 0 0 1 1.92.6 2.3 2.3 0 0 1 .67 1.8V0H39.2v-.67a1.7 1.7 0 0 1-1.64.75 3 3 0 0 1-1.07-.21 1.6 1.6 0 0 1-.7-.58 1.5 1.5 0 0 1-.24-.84 1.4 1.4 0 0 1 .56-1.18 3 3 0 0 1 1.75-.43h1.24a1 1 0 0 0-.31-.78 1.4 1.4 0 0 0-.93-.28 3 3 0 0 0-.84.14 2 2 0 0 0-.7.36l-.57-1.09a3 3 0 0 1 1.06-.48 5 5 0 0 1 1.26-.17m-.12 4.49a1.4 1.4 0 0 0 .71-.18 1 1 0 0 0 .44-.55v-.55h-1.07q-.96 0-.96.63a.6.6 0 0 0 .24.48 1 1 0 0 0 .64.17M43.88.08a5 5 0 0 1-1.31-.16 3 3 0 0 1-1.02-.42l.52-1.12a3 3 0 0 0 .87.38 4 4 0 0 0 1 .14q.99 0 .99-.49a.35.35 0 0 0-.27-.33 4 4 0 0 0-.83-.17 8 8 0 0 1-1.09-.23 2 2 0 0 1-.75-.46 1.3 1.3 0 0 1-.31-.94 1.5 1.5 0 0 1 .3-.9 2 2 0 0 1 .86-.61 4 4 0 0 1 1.33-.22 5 5 0 0 1 1.14.12 3 3 0 0 1 .93.35l-.52 1.1a3 3 0 0 0-1.55-.4 2 2 0 0 0-.75.14.4.4 0 0 0-.25.36.4.4 0 0 0 .27.35 5 5 0 0 0 .86.2 9 9 0 0 1 1.08.23 1.6 1.6 0 0 1 .73.45 1.3 1.3 0 0 1 .31.92 1.4 1.4 0 0 1-.3.9 2 2 0 0 1-.87.6 4 4 0 0 1-1.37.21m6.77-5.54a2.2 2.2 0 0 1 1.62.6 2.4 2.4 0 0 1 .61 1.78V0h-1.56v-2.84a1.4 1.4 0 0 0-.28-.95 1 1 0 0 0-.81-.32 1.2 1.2 0 0 0-.94.37 1.5 1.5 0 0 0-.35 1.08V0h-1.56v-7.42h1.56v2.6a2 2 0 0 1 .75-.47 3 3 0 0 1 .96-.17m6.82 0a3 3 0 0 1 1.37.35 2.5 2.5 0 0 1 .96.97 3 3 0 0 1 .35 1.45 3 3 0 0 1-.35 1.45 2.5 2.5 0 0 1-.96.97 3 3 0 0 1-1.37.35 2 2 0 0 1-1.69-.7V0h-1.49v-7.42h1.56v2.61a2 2 0 0 1 1.62-.65M57.2-1.2a1.3 1.3 0 0 0 .99-.4 1.5 1.5 0 0 0 .38-1.09 1.5 1.5 0 0 0-.38-1.08 1.3 1.3 0 0 0-.99-.41 1.3 1.3 0 0 0-.98.4 1.5 1.5 0 0 0-.39 1.09 1.5 1.5 0 0 0 .39 1.09 1.3 1.3 0 0 0 .98.4M63.75.08a3 3 0 0 1-1.52-.35 2.6 2.6 0 0 1-1.06-.99 2.7 2.7 0 0 1-.38-1.43 2.7 2.7 0 0 1 .38-1.43 2.6 2.6 0 0 1 1.06-.98 3 3 0 0 1 1.52-.36 3 3 0 0 1 1.52.36 2.7 2.7 0 0 1 1.05.98 2.7 2.7 0 0 1 .38 1.43 2.7 2.7 0 0 1-.38 1.43 2.7 2.7 0 0 1-1.05.98 3 3 0 0 1-1.52.36m0-1.28a1.3 1.3 0 0 0 .99-.4 1.5 1.5 0 0 0 .38-1.09 1.5 1.5 0 0 0-.38-1.08 1.3 1.3 0 0 0-.99-.41 1.3 1.3 0 0 0-.99.4 1.5 1.5 0 0 0-.39 1.09 1.5 1.5 0 0 0 .39 1.09 1.3 1.3 0 0 0 .99.4m6.07-4.26a2.8 2.8 0 0 1 1.92.6 2.3 2.3 0 0 1 .67 1.8V0h-1.46v-.67a1.7 1.7 0 0 1-1.64.75 3 3 0 0 1-1.07-.21 1.6 1.6 0 0 1-.7-.58 1.5 1.5 0 0 1-.24-.84 1.4 1.4 0 0 1 .57-1.18 3 3 0 0 1 1.74-.43h1.24a1 1 0 0 0-.31-.78 1.4 1.4 0 0 0-.93-.28 3 3 0 0 0-.84.14 2 2 0 0 0-.71.36l-.56-1.09a3 3 0 0 1 1.06-.48 5 5 0 0 1 1.26-.17M69.7-.97a1.4 1.4 0 0 0 .71-.18 1 1 0 0 0 .44-.55v-.55h-1.07q-.96 0-.96.63a.6.6 0 0 0 .24.48 1 1 0 0 0 .64.17m5.61-3.7a2 2 0 0 1 .76-.59 3 3 0 0 1 1.1-.2v1.44l-.36-.02a1.4 1.4 0 0 0-1.05.38 1.5 1.5 0 0 0-.38 1.12V0h-1.56v-5.38h1.49Zm8.21-2.75V0h-1.49v-.62a2 2 0 0 1-1.68.7 3 3 0 0 1-1.37-.34 2.4 2.4 0 0 1-.97-.97 3 3 0 0 1-.35-1.46 3 3 0 0 1 .35-1.46 2.4 2.4 0 0 1 .96-.97 3 3 0 0 1 1.38-.34 2 2 0 0 1 1.61.65v-2.61Zm-2.9 6.22a1.3 1.3 0 0 0 .98-.4 1.5 1.5 0 0 0 .39-1.09 1.5 1.5 0 0 0-.39-1.09 1.3 1.3 0 0 0-.98-.4 1.3 1.3 0 0 0-.99.4 1.5 1.5 0 0 0-.39 1.09 1.5 1.5 0 0 0 .39 1.08 1.3 1.3 0 0 0 .99.41M86.77.08a5 5 0 0 1-1.31-.16 3 3 0 0 1-1.02-.42l.52-1.12a3 3 0 0 0 .87.38 4 4 0 0 0 1 .14q.99 0 .99-.49a.35.35 0 0 0-.27-.33 4 4 0 0 0-.83-.17 8 8 0 0 1-1.09-.23 2 2 0 0 1-.74-.46 1.3 1.3 0 0 1-.32-.94 1.5 1.5 0 0 1 .3-.9 2 2 0 0 1 .85-.61 4 4 0 0 1 1.34-.22 5 5 0 0 1 1.13.12 3 3 0 0 1 .94.35l-.52 1.1a3 3 0 0 0-1.55-.4 2 2 0 0 0-.75.14.4.4 0 0 0-.25.36.4.4 0 0 0 .27.35 5 5 0 0 0 .86.2 9 9 0 0 1 1.08.23 1.6 1.6 0 0 1 .73.45 1.3 1.3 0 0 1 .31.92 1.4 1.4 0 0 1-.3.89 2 2 0 0 1-.87.6 4 4 0 0 1-1.37.22" transform="translate(789 562)"/><path id="Path_5124" fill="#195f8c" d="M5.44-1.5H2.19L1.57 0H-.09l3.12-7h1.6l3.13 7h-1.7Zm-.51-1.23L3.82-5.41 2.71-2.73Zm8.77-2.65V0h-1.48v-.64a2 2 0 0 1-.74.54 2 2 0 0 1-.93.18 2.3 2.3 0 0 1-1.68-.61 2.4 2.4 0 0 1-.62-1.81v-3.04h1.56v2.81q0 1.3 1.09 1.3a1.2 1.2 0 0 0 .9-.36 1.5 1.5 0 0 0 .34-1.09v-2.66Zm4.92 5.12a2 2 0 0 1-.56.26 3 3 0 0 1-.7.08 2 2 0 0 1-1.49-.49 2 2 0 0 1-.52-1.44v-2.21h-.83v-1.2h.83v-1.31h1.55v1.31h1.34v1.2H16.9v2.19a.7.7 0 0 0 .18.53.7.7 0 0 0 .49.18 1 1 0 0 0 .63-.2Zm3.27.34a3 3 0 0 1-1.52-.35 2.6 2.6 0 0 1-1.06-.99 2.7 2.7 0 0 1-.38-1.43 2.7 2.7 0 0 1 .38-1.43 2.6 2.6 0 0 1 1.06-.98 3 3 0 0 1 1.52-.36 3 3 0 0 1 1.52.36 2.7 2.7 0 0 1 1.05.98 2.7 2.7 0 0 1 .38 1.43 2.7 2.7 0 0 1-.38 1.43 2.7 2.7 0 0 1-1.05.98 3 3 0 0 1-1.52.36m0-1.28a1.3 1.3 0 0 0 .99-.4 1.5 1.5 0 0 0 .38-1.09 1.5 1.5 0 0 0-.38-1.08 1.3 1.3 0 0 0-.99-.41 1.3 1.3 0 0 0-.99.4 1.5 1.5 0 0 0-.39 1.09 1.5 1.5 0 0 0 .39 1.09 1.3 1.3 0 0 0 .99.4m10.88-4.26a2.2 2.2 0 0 1 1.6.6 2.4 2.4 0 0 1 .6 1.79V0h-1.56v-2.84a1.5 1.5 0 0 0-.26-.95 1 1 0 0 0-.76-.32 1.1 1.1 0 0 0-.87.36 1.5 1.5 0 0 0-.32 1.05V0h-1.56v-2.84q0-1.27-1.02-1.27a1.1 1.1 0 0 0-.86.36 1.5 1.5 0 0 0-.32 1.05V0h-1.56v-5.38h1.49v.62a2 2 0 0 1 .73-.52 3 3 0 0 1 .96-.18 2 2 0 0 1 1.03.23 2 2 0 0 1 .74.65 2 2 0 0 1 .83-.65 3 3 0 0 1 1.11-.23m5.77 0a2.8 2.8 0 0 1 1.92.6 2.3 2.3 0 0 1 .67 1.8V0h-1.46v-.67a1.7 1.7 0 0 1-1.64.75 3 3 0 0 1-1.07-.21 1.6 1.6 0 0 1-.7-.58 1.5 1.5 0 0 1-.24-.84 1.4 1.4 0 0 1 .56-1.18 3 3 0 0 1 1.75-.43h1.24a1 1 0 0 0-.31-.78 1.4 1.4 0 0 0-.93-.28 3 3 0 0 0-.85.14 2 2 0 0 0-.7.36l-.56-1.09a3 3 0 0 1 1.06-.48 5 5 0 0 1 1.26-.17m-.12 4.49a1.4 1.4 0 0 0 .71-.18 1 1 0 0 0 .44-.55v-.55H38.5q-.96 0-.96.63a.6.6 0 0 0 .24.48 1 1 0 0 0 .64.17m7.59.71a2 2 0 0 1-.56.26 3 3 0 0 1-.71.08 2 2 0 0 1-1.48-.49 2 2 0 0 1-.53-1.44v-2.21h-.83v-1.2h.83v-1.31h1.56v1.31h1.34v1.2h-1.34v2.19a.7.7 0 0 0 .18.53.7.7 0 0 0 .49.18 1 1 0 0 0 .63-.2Zm5.98-2.41-.03.42h-4.07a1.3 1.3 0 0 0 .52.79 1.7 1.7 0 0 0 1.02.29 2 2 0 0 0 .75-.12 2 2 0 0 0 .6-.4l.83.9a2.8 2.8 0 0 1-2.22.87 3.5 3.5 0 0 1-1.61-.35 2.6 2.6 0 0 1-1.08-.99 2.7 2.7 0 0 1-.38-1.43 3 3 0 0 1 .38-1.42 2.6 2.6 0 0 1 1.02-1 3 3 0 0 1 1.47-.35 3 3 0 0 1 1.43.34 2.5 2.5 0 0 1 1 .98A3 3 0 0 1 52-2.68m-2.8-1.6a1.3 1.3 0 0 0-.89.3 1.3 1.3 0 0 0-.44.82h2.65a1.3 1.3 0 0 0-.44-.82 1.3 1.3 0 0 0-.88-.3m9.31-3.14V0h-1.49v-.62a2 2 0 0 1-1.68.7 3 3 0 0 1-1.37-.34 2.4 2.4 0 0 1-.97-.97 3 3 0 0 1-.35-1.46A3 3 0 0 1 53-4.15a2.4 2.4 0 0 1 .97-.97 3 3 0 0 1 1.37-.34 2 2 0 0 1 1.61.65v-2.61Zm-2.9 6.22a1.3 1.3 0 0 0 .98-.4 1.5 1.5 0 0 0 .39-1.09 1.5 1.5 0 0 0-.39-1.09 1.3 1.3 0 0 0-.98-.4 1.3 1.3 0 0 0-.99.4 1.5 1.5 0 0 0-.39 1.09 1.5 1.5 0 0 0 .39 1.08 1.3 1.3 0 0 0 .99.41m10.35-4.26a3 3 0 0 1 1.37.35 2.5 2.5 0 0 1 .96.97 3 3 0 0 1 .35 1.45 3 3 0 0 1-.35 1.45 2.5 2.5 0 0 1-.97.97 3 3 0 0 1-1.36.35 2 2 0 0 1-1.69-.7V0h-1.49v-7.42h1.56v2.61a2 2 0 0 1 1.62-.65m-.27 4.26a1.3 1.3 0 0 0 .99-.4 1.5 1.5 0 0 0 .38-1.09 1.5 1.5 0 0 0-.38-1.08 1.3 1.3 0 0 0-.99-.41 1.3 1.3 0 0 0-.98.4 1.5 1.5 0 0 0-.39 1.09 1.5 1.5 0 0 0 .39 1.09 1.3 1.3 0 0 0 .98.4m6.07-4.26a2.8 2.8 0 0 1 1.92.6 2.3 2.3 0 0 1 .67 1.8V0h-1.46v-.67a1.7 1.7 0 0 1-1.64.75 3 3 0 0 1-1.07-.21 1.6 1.6 0 0 1-.7-.58 1.5 1.5 0 0 1-.24-.84 1.4 1.4 0 0 1 .57-1.18 3 3 0 0 1 1.74-.43h1.24a1 1 0 0 0-.31-.78 1.4 1.4 0 0 0-.93-.28 3 3 0 0 0-.84.14 2 2 0 0 0-.71.36l-.56-1.09a3 3 0 0 1 1.06-.48 5 5 0 0 1 1.26-.17m-.12 4.49a1.4 1.4 0 0 0 .71-.18 1 1 0 0 0 .44-.55v-.55h-1.07q-.96 0-.96.63a.6.6 0 0 0 .24.48 1 1 0 0 0 .64.17M78.42.08a3 3 0 0 1-1.54-.35 2.7 2.7 0 0 1-1.07-.99 2.7 2.7 0 0 1-.39-1.43 2.7 2.7 0 0 1 .39-1.43 2.7 2.7 0 0 1 1.07-.98 3 3 0 0 1 1.54-.36 3 3 0 0 1 1.49.36 2 2 0 0 1 .92 1.01l-1.21.65a1.3 1.3 0 0 0-1.21-.74 1.4 1.4 0 0 0-1.01.4 1.5 1.5 0 0 0-.4 1.09 1.5 1.5 0 0 0 .4 1.09 1.4 1.4 0 0 0 1.01.4 1.3 1.3 0 0 0 1.21-.74l1.21.66a2 2 0 0 1-.92 1 3 3 0 0 1-1.49.36M84-2.11l-.75.74V0h-1.56v-7.42h1.56v4.2l2.28-2.16h1.86L85.15-3.1 87.59 0H85.7Zm9.61-3.27V0h-1.48v-.64a2 2 0 0 1-.74.54 2 2 0 0 1-.93.18 2.3 2.3 0 0 1-1.68-.61 2.4 2.4 0 0 1-.62-1.81v-3.04h1.56v2.81q0 1.3 1.09 1.3a1.2 1.2 0 0 0 .9-.36 1.5 1.5 0 0 0 .34-1.09v-2.66Zm4.63-.08a3 3 0 0 1 1.37.35 2.5 2.5 0 0 1 .96.97 3 3 0 0 1 .35 1.45 3 3 0 0 1-.35 1.45 2.5 2.5 0 0 1-.96.97 3 3 0 0 1-1.37.35 2 2 0 0 1-1.62-.65v2.51h-1.56v-7.32h1.49v.62a2 2 0 0 1 1.69-.7m-.27 4.26a1.3 1.3 0 0 0 .99-.4 1.5 1.5 0 0 0 .38-1.09 1.5 1.5 0 0 0-.38-1.08 1.3 1.3 0 0 0-.99-.41 1.3 1.3 0 0 0-.98.4 1.5 1.5 0 0 0-.39 1.09 1.5 1.5 0 0 0 .39 1.09 1.3 1.3 0 0 0 .98.4m5.8 1.28a5 5 0 0 1-1.31-.17 3 3 0 0 1-1.02-.41l.52-1.12a3 3 0 0 0 .87.38 4 4 0 0 0 1 .14q.99 0 .99-.49a.35.35 0 0 0-.27-.33 4 4 0 0 0-.83-.17 8 8 0 0 1-1.09-.23 2 2 0 0 1-.74-.46 1.3 1.3 0 0 1-.32-.94 1.5 1.5 0 0 1 .3-.9 2 2 0 0 1 .85-.61 4 4 0 0 1 1.34-.22 5 5 0 0 1 1.13.12 3 3 0 0 1 .94.35l-.52 1.1a3 3 0 0 0-1.55-.4 2 2 0 0 0-.75.14.4.4 0 0 0-.25.36.4.4 0 0 0 .27.35 5 5 0 0 0 .86.2 9 9 0 0 1 1.08.23 1.6 1.6 0 0 1 .73.45 1.3 1.3 0 0 1 .31.92 1.4 1.4 0 0 1-.3.9 2 2 0 0 1-.87.6 4 4 0 0 1-1.37.21" transform="translate(789 595)"/><path id="Path_5123" fill="#195f8c" d="M.83-7h1.62v7H.83Zm3.28 0h3.18a4.5 4.5 0 0 1 2.02.44 3.3 3.3 0 0 1 1.35 1.22 3.5 3.5 0 0 1 .49 1.84 3.5 3.5 0 0 1-.48 1.84A3.3 3.3 0 0 1 9.3-.44a4.5 4.5 0 0 1-2 .44H4.11Zm3.1 5.67a2.4 2.4 0 0 0 1.68-.58A2 2 0 0 0 9.5-3.5a2 2 0 0 0-.62-1.58 2.4 2.4 0 0 0-1.68-.59H5.73v4.34ZM15.4-7a4 4 0 0 1 1.62.31 2.4 2.4 0 0 1 1.05.88 2.4 2.4 0 0 1 .37 1.35 2.4 2.4 0 0 1-.37 1.34 2.4 2.4 0 0 1-1.05.88 4 4 0 0 1-1.62.3h-1.41V0h-1.62v-7Zm-.09 3.75a1.7 1.7 0 0 0 1.11-.31 1.1 1.1 0 0 0 .38-.9 1.1 1.1 0 0 0-.38-.9 1.7 1.7 0 0 0-1.11-.31h-1.32v2.42ZM22.52-7h1.62v7h-1.62Zm6.44 1.54a2.2 2.2 0 0 1 1.62.6 2.4 2.4 0 0 1 .61 1.78V0h-1.56v-2.84a1.4 1.4 0 0 0-.28-.95 1 1 0 0 0-.81-.32 1.2 1.2 0 0 0-.94.37 1.5 1.5 0 0 0-.35 1.08V0h-1.56v-5.38h1.49v.63a2 2 0 0 1 .77-.52 3 3 0 0 1 1.01-.19m7.11 5.2a2 2 0 0 1-.56.26 3 3 0 0 1-.7.08 2 2 0 0 1-1.49-.49 2 2 0 0 1-.52-1.44v-2.21h-.83v-1.2h.83v-1.31h1.56v1.31h1.34v1.2h-1.35v2.19a.7.7 0 0 0 .18.53.7.7 0 0 0 .5.18 1 1 0 0 0 .62-.2Zm5.98-2.41-.03.42h-4.07a1.3 1.3 0 0 0 .52.79 1.7 1.7 0 0 0 1.02.29 2 2 0 0 0 .75-.12 2 2 0 0 0 .6-.4l.83.9a2.8 2.8 0 0 1-2.22.87 3.5 3.5 0 0 1-1.61-.35 2.6 2.6 0 0 1-1.08-.99 2.7 2.7 0 0 1-.38-1.43 3 3 0 0 1 .37-1.42 2.6 2.6 0 0 1 1.03-1 3 3 0 0 1 1.47-.35 3 3 0 0 1 1.43.34 2.5 2.5 0 0 1 1 .98 3 3 0 0 1 .37 1.47m-2.79-1.61a1.3 1.3 0 0 0-.89.3 1.3 1.3 0 0 0-.44.82h2.65a1.3 1.3 0 0 0-.44-.82 1.3 1.3 0 0 0-.88-.3m9.38-1.1V-.9a3 3 0 0 1-.77 2.2 3.2 3.2 0 0 1-2.25.72 6 6 0 0 1-1.48-.19 3 3 0 0 1-1.16-.55L43.6.16a3 3 0 0 0 .86.44 3 3 0 0 0 1.04.17 1.7 1.7 0 0 0 1.2-.36 1.5 1.5 0 0 0 .38-1.11v-.23a2.2 2.2 0 0 1-1.7.67 3 3 0 0 1-1.36-.32 2.5 2.5 0 0 1-.97-.92 2.6 2.6 0 0 1-.36-1.36 2.6 2.6 0 0 1 .36-1.36 2.5 2.5 0 0 1 .98-.92 3 3 0 0 1 1.35-.32 2.1 2.1 0 0 1 1.78.77v-.69Zm-2.95 3.84a1.4 1.4 0 0 0 1.01-.36 1.2 1.2 0 0 0 .4-.96 1.2 1.2 0 0 0-.4-.95 1.4 1.4 0 0 0-1.01-.37 1.5 1.5 0 0 0-1.02.37 1.2 1.2 0 0 0-.4.95 1.2 1.2 0 0 0 .4.96 1.5 1.5 0 0 0 1.02.36m5.89-3.13a2 2 0 0 1 .76-.59 3 3 0 0 1 1.1-.2v1.44l-.35-.02a1.4 1.4 0 0 0-1.06.38 1.5 1.5 0 0 0-.37 1.12V0h-1.57v-5.38h1.49Zm4.92-.79a2.8 2.8 0 0 1 1.92.6 2.3 2.3 0 0 1 .67 1.8V0h-1.46v-.67a1.7 1.7 0 0 1-1.64.75 3 3 0 0 1-1.07-.21 1.6 1.6 0 0 1-.7-.58 1.5 1.5 0 0 1-.24-.84 1.4 1.4 0 0 1 .56-1.18 3 3 0 0 1 1.75-.43h1.24a1 1 0 0 0-.31-.78 1.4 1.4 0 0 0-.93-.28 3 3 0 0 0-.85.14 2 2 0 0 0-.7.36l-.56-1.09a3 3 0 0 1 1.06-.48 5 5 0 0 1 1.26-.17m-.12 4.49a1.4 1.4 0 0 0 .71-.18 1 1 0 0 0 .44-.55v-.55h-1.07q-.96 0-.96.63a.6.6 0 0 0 .24.48 1 1 0 0 0 .64.17m7.59.71a2 2 0 0 1-.56.26 3 3 0 0 1-.71.08 2 2 0 0 1-1.48-.49 2 2 0 0 1-.53-1.44v-2.21h-.83v-1.2h.83v-1.31h1.56v1.31h1.34v1.2h-1.34v2.19a.7.7 0 0 0 .18.53.7.7 0 0 0 .49.18 1 1 0 0 0 .63-.2Zm.88-5.12h1.56V0h-1.56Zm.78-.75a1 1 0 0 1-.7-.25.8.8 0 0 1-.27-.62.8.8 0 0 1 .27-.62 1 1 0 0 1 .7-.25 1 1 0 0 1 .7.24.8.8 0 0 1 .27.6 1 1 0 0 1-.27.65 1 1 0 0 1-.7.25M70.42.08a3 3 0 0 1-1.52-.35 2.6 2.6 0 0 1-1.06-.99 2.7 2.7 0 0 1-.38-1.43 2.7 2.7 0 0 1 .38-1.43 2.6 2.6 0 0 1 1.06-.98 3 3 0 0 1 1.52-.36 3 3 0 0 1 1.52.36 2.7 2.7 0 0 1 1.05.98 2.7 2.7 0 0 1 .38 1.43 2.7 2.7 0 0 1-.38 1.43 2.7 2.7 0 0 1-1.05.98 3 3 0 0 1-1.52.36m0-1.28a1.3 1.3 0 0 0 .99-.4 1.5 1.5 0 0 0 .38-1.09 1.5 1.5 0 0 0-.39-1.08 1.3 1.3 0 0 0-.98-.41 1.3 1.3 0 0 0-1 .4 1.5 1.5 0 0 0-.38 1.09 1.5 1.5 0 0 0 .39 1.09 1.3 1.3 0 0 0 .99.4m7.26-4.26a2.2 2.2 0 0 1 1.62.6 2.4 2.4 0 0 1 .61 1.78V0h-1.56v-2.84a1.4 1.4 0 0 0-.28-.95 1 1 0 0 0-.81-.32 1.2 1.2 0 0 0-.94.37 1.5 1.5 0 0 0-.35 1.08V0h-1.56v-5.38h1.49v.63a2 2 0 0 1 .77-.52 3 3 0 0 1 1.01-.19" transform="translate(789 628)"/><path id="Path_5122" fill="#195f8c" d="M-23.08.12a4 4 0 0 1-1.94-.46 3.5 3.5 0 0 1-1.36-1.3 3.6 3.6 0 0 1-.5-1.86 3.6 3.6 0 0 1 .5-1.86 3.5 3.5 0 0 1 1.36-1.3 4 4 0 0 1 1.95-.46 4 4 0 0 1 1.64.32 3 3 0 0 1 1.24.92l-1.04.96A2.2 2.2 0 0 0-23-5.74a2.3 2.3 0 0 0-1.17.28 2 2 0 0 0-.8.8 2.3 2.3 0 0 0-.28 1.16 2.3 2.3 0 0 0 .28 1.16 2 2 0 0 0 .8.8 2.3 2.3 0 0 0 1.16.28 2.2 2.2 0 0 0 1.76-.82l1.04.96a3 3 0 0 1-1.24.93 4 4 0 0 1-1.64.31m6.23-.04a3 3 0 0 1-1.52-.35 2.6 2.6 0 0 1-1.05-.99 2.7 2.7 0 0 1-.38-1.43 2.7 2.7 0 0 1 .38-1.43 2.6 2.6 0 0 1 1.05-.98 3 3 0 0 1 1.53-.36 3 3 0 0 1 1.51.35 2.7 2.7 0 0 1 1.05.99 2.7 2.7 0 0 1 .38 1.43 2.7 2.7 0 0 1-.38 1.43 2.7 2.7 0 0 1-1.05.98 3 3 0 0 1-1.51.36m0-1.28a1.3 1.3 0 0 0 .99-.4 1.5 1.5 0 0 0 .39-1.09 1.5 1.5 0 0 0-.39-1.08 1.3 1.3 0 0 0-.98-.41 1.3 1.3 0 0 0-1 .4 1.5 1.5 0 0 0-.38 1.09 1.5 1.5 0 0 0 .39 1.09 1.3 1.3 0 0 0 .98.4m10.89-4.26a2.2 2.2 0 0 1 1.6.6 2.4 2.4 0 0 1 .6 1.79V0h-1.56v-2.84a1.5 1.5 0 0 0-.27-.96 1 1 0 0 0-.75-.31 1.1 1.1 0 0 0-.87.35 1.5 1.5 0 0 0-.33 1.06V0H-9.1v-2.84q0-1.27-1.02-1.27a1.1 1.1 0 0 0-.86.36 1.5 1.5 0 0 0-.32 1.05V0h-1.56v-5.38h1.49v.62a2 2 0 0 1 .73-.52 3 3 0 0 1 .96-.18 2 2 0 0 1 1.03.23 2 2 0 0 1 .74.65 2 2 0 0 1 .83-.65 3 3 0 0 1 1.12-.23m6.78 0a3 3 0 0 1 1.36.35 2.5 2.5 0 0 1 .97.97A3 3 0 0 1 3.5-2.7a3 3 0 0 1-.35 1.46 2.5 2.5 0 0 1-.96.97A3 3 0 0 1 .82.08 2 2 0 0 1-.8-.57v2.51h-1.56v-7.32h1.49v.62a2 2 0 0 1 1.69-.7M.55-1.2a1.3 1.3 0 0 0 .98-.4 1.5 1.5 0 0 0 .39-1.09 1.5 1.5 0 0 0-.39-1.08 1.3 1.3 0 0 0-.98-.41 1.3 1.3 0 0 0-.99.4 1.5 1.5 0 0 0-.38 1.09A1.5 1.5 0 0 0-.44-1.6a1.3 1.3 0 0 0 .99.4m3.99-6.22H6.1V0H4.54Zm3 2.04h1.57V0H7.55Zm.78-.75a1 1 0 0 1-.7-.25.8.8 0 0 1-.26-.62.8.8 0 0 1 .27-.62 1 1 0 0 1 .7-.25 1 1 0 0 1 .7.24.8.8 0 0 1 .26.6 1 1 0 0 1-.27.65 1 1 0 0 1-.7.25m4.4.67a2.8 2.8 0 0 1 1.92.6 2.3 2.3 0 0 1 .67 1.8V0h-1.46v-.67a1.7 1.7 0 0 1-1.63.75 3 3 0 0 1-1.08-.21 1.6 1.6 0 0 1-.7-.58 1.5 1.5 0 0 1-.24-.84 1.4 1.4 0 0 1 .57-1.18 3 3 0 0 1 1.74-.43h1.24a1 1 0 0 0-.31-.78 1.4 1.4 0 0 0-.93-.28 3 3 0 0 0-.84.14 2 2 0 0 0-.7.36l-.57-1.09a3 3 0 0 1 1.06-.48 5 5 0 0 1 1.26-.17M12.6-.97a1.4 1.4 0 0 0 .71-.18 1 1 0 0 0 .44-.55v-.55h-1.07q-.96 0-.96.63a.6.6 0 0 0 .23.48 1 1 0 0 0 .65.17M20-5.46a2.2 2.2 0 0 1 1.62.6 2.4 2.4 0 0 1 .61 1.78V0h-1.56v-2.84a1.4 1.4 0 0 0-.28-.95 1 1 0 0 0-.81-.32 1.2 1.2 0 0 0-.94.37 1.5 1.5 0 0 0-.35 1.08V0h-1.56v-5.38h1.49v.63a2 2 0 0 1 .77-.52 3 3 0 0 1 1.01-.2m7.11 5.2a2 2 0 0 1-.56.26 3 3 0 0 1-.7.08 2 2 0 0 1-1.5-.49 2 2 0 0 1-.52-1.44v-2.21H23v-1.2h.83v-1.31h1.56v1.31h1.34v1.2h-1.34v2.19a.7.7 0 0 0 .17.53.7.7 0 0 0 .5.18 1 1 0 0 0 .63-.2Zm-54.06 10.51-.94.98V13h-1.61V6h1.61v3.27l3.1-3.27h1.8l-2.9 3.12 3.07 3.88h-1.89Zm9.99-2.63V13h-1.48v-.64a2 2 0 0 1-.74.54 2 2 0 0 1-.93.18 2.3 2.3 0 0 1-1.68-.61 2.4 2.4 0 0 1-.62-1.81V7.62h1.56v2.81q0 1.3 1.09 1.3a1.2 1.2 0 0 0 .9-.36 1.5 1.5 0 0 0 .34-1.09V7.62Zm4.63-.08a3 3 0 0 1 1.36.35 2.5 2.5 0 0 1 .97.97 3 3 0 0 1 .35 1.45 3 3 0 0 1-.35 1.46 2.5 2.5 0 0 1-.96.97 3 3 0 0 1-1.37.34 2 2 0 0 1-1.69-.7V13h-1.49V5.58h1.56v2.61a2 2 0 0 1 1.62-.65m-.27 4.26a1.3 1.3 0 0 0 .98-.4 1.5 1.5 0 0 0 .39-1.08 1.5 1.5 0 0 0-.39-1.09 1.3 1.3 0 0 0-.98-.41 1.3 1.3 0 0 0-.98.4 1.5 1.5 0 0 0-.39 1.09 1.5 1.5 0 0 0 .39 1.08 1.3 1.3 0 0 0 .98.41m9.26-1.47-.03.42h-4.07a1.3 1.3 0 0 0 .52.79 1.7 1.7 0 0 0 1.02.29 2 2 0 0 0 .75-.13 2 2 0 0 0 .6-.4l.83.9a2.8 2.8 0 0 1-2.22.87 3.5 3.5 0 0 1-1.61-.35 2.6 2.6 0 0 1-1.08-.99 2.7 2.7 0 0 1-.38-1.43 3 3 0 0 1 .37-1.42 2.6 2.6 0 0 1 1.03-.99 3 3 0 0 1 1.47-.35 3 3 0 0 1 1.43.34 2.5 2.5 0 0 1 1.01.98 3 3 0 0 1 .36 1.47m-2.79-1.61a1.3 1.3 0 0 0-.89.3 1.3 1.3 0 0 0-.44.82h2.65a1.3 1.3 0 0 0-.44-.81 1.3 1.3 0 0 0-.88-.31m5.32-.39a2 2 0 0 1 .76-.59 3 3 0 0 1 1.1-.2v1.44l-.36-.02a1.4 1.4 0 0 0-1.05.38 1.5 1.5 0 0 0-.38 1.12V13H-2.3V7.62h1.49Zm6.05-.79a2.2 2.2 0 0 1 1.62.6 2.4 2.4 0 0 1 .61 1.78V13H5.91v-2.84a1.4 1.4 0 0 0-.28-.96 1 1 0 0 0-.81-.31 1.2 1.2 0 0 0-.94.36 1.5 1.5 0 0 0-.35 1.09V13H1.97V7.62h1.49v.63a2 2 0 0 1 .77-.52 3 3 0 0 1 1.01-.19m8.97 2.79-.03.42h-4.07a1.3 1.3 0 0 0 .52.79 1.7 1.7 0 0 0 1.02.29 2 2 0 0 0 .74-.13 2 2 0 0 0 .61-.4l.83.9a2.8 2.8 0 0 1-2.22.87 3.5 3.5 0 0 1-1.61-.35 2.6 2.6 0 0 1-1.08-.98 2.7 2.7 0 0 1-.38-1.43 3 3 0 0 1 .38-1.42 2.6 2.6 0 0 1 1.02-1 3.2 3.2 0 0 1 2.9-.01 2.5 2.5 0 0 1 1 .98 3 3 0 0 1 .37 1.47m-2.79-1.61a1.3 1.3 0 0 0-.89.3 1.3 1.3 0 0 0-.44.82h2.65a1.3 1.3 0 0 0-.44-.81 1.3 1.3 0 0 0-.88-.31m7.3 4.02a2 2 0 0 1-.56.26 3 3 0 0 1-.7.08 2 2 0 0 1-1.49-.49 2 2 0 0 1-.53-1.44V8.94h-.83v-1.2h.83V6.43H17v1.31h1.34v1.2H17v2.19a.7.7 0 0 0 .18.52.7.7 0 0 0 .49.19 1 1 0 0 0 .63-.2Zm5.98-2.41-.03.42H20.6a1.3 1.3 0 0 0 .52.79 1.7 1.7 0 0 0 1.02.29 2 2 0 0 0 .75-.13 2 2 0 0 0 .6-.4l.83.9a2.8 2.8 0 0 1-2.22.87 3.5 3.5 0 0 1-1.61-.35 2.6 2.6 0 0 1-1.08-.99 2.7 2.7 0 0 1-.38-1.43 3 3 0 0 1 .38-1.42 2.6 2.6 0 0 1 1.03-.99 3.2 3.2 0 0 1 2.9-.02 2.5 2.5 0 0 1 1 .98 3 3 0 0 1 .36 1.48m-2.79-1.61a1.3 1.3 0 0 0-.89.3 1.3 1.3 0 0 0-.44.82h2.65a1.3 1.3 0 0 0-.44-.81 1.3 1.3 0 0 0-.88-.31m5.64 4.36a5 5 0 0 1-1.31-.16 3 3 0 0 1-1.02-.42l.52-1.12a3 3 0 0 0 .87.38 4 4 0 0 0 1 .14q.99 0 .99-.49a.35.35 0 0 0-.27-.33 4 4 0 0 0-.83-.17 8 8 0 0 1-1.09-.23 2 2 0 0 1-.74-.46 1.3 1.3 0 0 1-.32-.94 1.5 1.5 0 0 1 .3-.9 2 2 0 0 1 .86-.61 4 4 0 0 1 1.34-.22 5 5 0 0 1 1.13.12 3 3 0 0 1 .94.35l-.52 1.1a3 3 0 0 0-1.55-.4 2 2 0 0 0-.75.14.4.4 0 0 0-.25.37.4.4 0 0 0 .27.34 5 5 0 0 0 .86.2 9 9 0 0 1 1.08.23 1.6 1.6 0 0 1 .73.45 1.3 1.3 0 0 1 .3.92 1.4 1.4 0 0 1-.3.9 2 2 0 0 1-.87.6 4 4 0 0 1-1.37.21" transform="translate(1072 241)"/><path id="Path_5121" fill="#343434" d="m-13.1 0-3.12-7h.57l2.97 6.69h-.3L-10-7h.53l-3.12 7Zm7.49 0v-1.19l-.02-.18v-1.96a1.5 1.5 0 0 0-.4-1.1 1.6 1.6 0 0 0-1.15-.39 3 3 0 0 0-1 .19 3 3 0 0 0-.8.47l-.25-.36a3 3 0 0 1 .94-.54 3 3 0 0 1 1.14-.2 2 2 0 0 1 1.5.48 2 2 0 0 1 .52 1.46V0Zm-1.88.04A3 3 0 0 1-8.5-.15a1.5 1.5 0 0 1-.65-.52 1.4 1.4 0 0 1-.22-.78 1.4 1.4 0 0 1 .18-.73 1.3 1.3 0 0 1 .62-.52 3 3 0 0 1 1.15-.2h1.92v.39h-1.9a1.7 1.7 0 0 0-1.15.3 1 1 0 0 0-.32.75 1 1 0 0 0 .38.8 1.7 1.7 0 0 0 1.07.3A2 2 0 0 0-6.3-.67a2 2 0 0 0 .68-.87l.13.34a2 2 0 0 1-.71.9 2.3 2.3 0 0 1-1.29.34m6.97-5.3a2.4 2.4 0 0 1 1.12.25 2 2 0 0 1 .74.73 2.6 2.6 0 0 1 .26 1.23V0h-.5v-3a2 2 0 0 0-.44-1.35A1.7 1.7 0 0 0-.6-4.81a2 2 0 0 0-1.06.25 1.7 1.7 0 0 0-.68.7 2.3 2.3 0 0 0-.24 1.08V0h-.5v-5.22h.48v1.45l-.07-.16a2 2 0 0 1 .8-.98 2.4 2.4 0 0 1 1.34-.35M3.66 0v-5.22h.5V0Zm.25-6.49a.4.4 0 0 1-.29-.12.4.4 0 0 1-.12-.28.4.4 0 0 1 .12-.29.4.4 0 0 1 .3-.12.4.4 0 0 1 .3.11.4.4 0 0 1 .1.29.4.4 0 0 1-.1.29.4.4 0 0 1-.3.12M6.27 0v-7.42h.5V0ZM8.9 0v-7.42h.5V0Zm5.9 0v-1.19l-.01-.18v-1.96a1.5 1.5 0 0 0-.4-1.1 1.6 1.6 0 0 0-1.16-.39 3 3 0 0 0-1 .19 3 3 0 0 0-.8.47l-.25-.36a3 3 0 0 1 .94-.54 3 3 0 0 1 1.15-.2 2 2 0 0 1 1.5.48 2 2 0 0 1 .51 1.46V0Zm-1.87.04a3 3 0 0 1-1.01-.19 1.5 1.5 0 0 1-.65-.52 1.4 1.4 0 0 1-.23-.78 1.4 1.4 0 0 1 .2-.73 1.3 1.3 0 0 1 .6-.53A3 3 0 0 1 13-2.9h1.91v.4H13a1.7 1.7 0 0 0-1.14.3 1 1 0 0 0-.33.74 1 1 0 0 0 .39.8 1.7 1.7 0 0 0 1.06.3 2 2 0 0 0 1.12-.3 2 2 0 0 0 .68-.86l.13.34a2 2 0 0 1-.7.9 2.3 2.3 0 0 1-1.3.33m-39.93 11.19-.02-.64 4.47-4.6h.61l-3.1 3.23-.3.31Zm-.44 1.77V6h.51v7Zm5.08 0-3.14-3.6.35-.37 3.42 3.97Zm3.72.04a3 3 0 0 1-1.16-.25 1.7 1.7 0 0 1-.76-.74 2.6 2.6 0 0 1-.26-1.22V7.78h.5v3a1.8 1.8 0 0 0 .45 1.35 1.7 1.7 0 0 0 1.27.46 2 2 0 0 0 1.02-.25 1.7 1.7 0 0 0 .66-.7 2.4 2.4 0 0 0 .23-1.08V7.78h.5V13h-.48v-1.45l.07.17a2 2 0 0 1-.77.97 2.3 2.3 0 0 1-1.27.35m7.2 0a2.5 2.5 0 0 1-1.26-.32 2.3 2.3 0 0 1-.88-.92 3 3 0 0 1-.32-1.41 3 3 0 0 1 .33-1.42 2.3 2.3 0 0 1 .88-.9 2.4 2.4 0 0 1 1.24-.33 2.6 2.6 0 0 1 1.32.34 2.5 2.5 0 0 1 .92.93 3 3 0 0 1 .34 1.38 3 3 0 0 1-.34 1.38 2.4 2.4 0 0 1-.92.93 2.6 2.6 0 0 1-1.32.34M-14.1 13V5.58h.5v3.89l-.1.9.09.92V13Zm2.6-.4a2 2 0 0 0 1.08-.28 2 2 0 0 0 .75-.78 2.4 2.4 0 0 0 .28-1.15 2.3 2.3 0 0 0-.28-1.16 2 2 0 0 0-.75-.77 2 2 0 0 0-1.08-.27 2 2 0 0 0-1.08.27 2 2 0 0 0-.75.77 2.3 2.3 0 0 0-.27 1.16 2.4 2.4 0 0 0 .27 1.15 2 2 0 0 0 .75.77 2 2 0 0 0 1.08.28Zm6.28.44a3 3 0 0 1-1.39-.34 2.5 2.5 0 0 1-.95-.94 3 3 0 0 1-.35-1.37A3 3 0 0 1-7.58 9a2.4 2.4 0 0 1 .9-.93 2.5 2.5 0 0 1 1.28-.34 2.5 2.5 0 0 1 1.28.33 2.4 2.4 0 0 1 .89.93 3 3 0 0 1 .32 1.37v.15h-4.62v-.4h4.35l-.2.2a2 2 0 0 0-.26-1.1 2 2 0 0 0-.72-.77 2 2 0 0 0-1.04-.27 2 2 0 0 0-1.04.27 2 2 0 0 0-.71.77 2.3 2.3 0 0 0-.26 1.1v.08a2 2 0 0 0 .28 1.14 2 2 0 0 0 .79.77 2.3 2.3 0 0 0 1.14.28 2 2 0 0 0 .93-.18 2 2 0 0 0 .74-.56l.3.33a2 2 0 0 1-.87.64 3 3 0 0 1-1.1.22Zm3.85-.04V7.78h.48v1.43l-.05-.16a2 2 0 0 1 .74-.97 2.3 2.3 0 0 1 1.3-.34v.49H.99a1.7 1.7 0 0 0-1.36.54 2.2 2.2 0 0 0-.5 1.5V13Zm6.4-5.26a2.4 2.4 0 0 1 1.12.25 2 2 0 0 1 .74.73 2.6 2.6 0 0 1 .26 1.23V13h-.5v-3a2 2 0 0 0-.44-1.35 1.7 1.7 0 0 0-1.25-.46 2 2 0 0 0-1.06.25 1.7 1.7 0 0 0-.68.7 2.3 2.3 0 0 0-.24 1.08V13h-.5V7.78h.48v1.45l-.07-.16a2 2 0 0 1 .8-.98 2.4 2.4 0 0 1 1.34-.35m6.3 5.3a3 3 0 0 1-1.4-.34 2.5 2.5 0 0 1-.94-.94 3 3 0 0 1-.34-1.37A3 3 0 0 1 8.98 9a2.4 2.4 0 0 1 .89-.93 2.6 2.6 0 0 1 2.56 0 2.4 2.4 0 0 1 .88.92 3 3 0 0 1 .33 1.37v.15H9.01v-.4h4.35l-.2.2a2 2 0 0 0-.26-1.1 2 2 0 0 0-.72-.77 2 2 0 0 0-2.79.77 2.3 2.3 0 0 0-.26 1.1v.08a2 2 0 0 0 .29 1.14 2 2 0 0 0 .78.77 2.3 2.3 0 0 0 1.14.28 2 2 0 0 0 .94-.19 2 2 0 0 0 .73-.55l.3.33a2 2 0 0 1-.87.64 3 3 0 0 1-1.1.22Zm5.37 0a1.4 1.4 0 0 1-1.05-.38 1.4 1.4 0 0 1-.37-1.04V6.64h.5v4.93a1 1 0 0 0 .25.77 1 1 0 0 0 .72.27 1.2 1.2 0 0 0 .81-.3l.2.36a1 1 0 0 1-.48.28 2 2 0 0 1-.58.09m-2.38-4.83v-.43h3.12v.43Zm6.77 4.83a3 3 0 0 1-1.4-.34 2.5 2.5 0 0 1-.95-.94 3 3 0 0 1-.34-1.37A3 3 0 0 1 18.73 9a2.4 2.4 0 0 1 .9-.93 2.6 2.6 0 0 1 2.55 0 2.4 2.4 0 0 1 .9.92 3 3 0 0 1 .32 1.37v.15h-4.62v-.4h4.34l-.2.2a2 2 0 0 0-.26-1.1 2 2 0 0 0-.71-.77 2 2 0 0 0-2.79.77 2.3 2.3 0 0 0-.26 1.1v.08a2 2 0 0 0 .29 1.14 2 2 0 0 0 .78.77 2.3 2.3 0 0 0 1.14.28 2 2 0 0 0 .94-.19 2 2 0 0 0 .73-.55l.3.33a2 2 0 0 1-.87.64 3 3 0 0 1-1.11.22m5.17 0a4 4 0 0 1-1.21-.2 2.4 2.4 0 0 1-.88-.47l.23-.4a3 3 0 0 0 .8.44 3 3 0 0 0 1.08.19 2 2 0 0 0 1.18-.27.9.9 0 0 0 .36-.71.7.7 0 0 0-.19-.51 1 1 0 0 0-.5-.28 5 5 0 0 0-.68-.17l-.74-.14a3 3 0 0 1-.68-.23 1.3 1.3 0 0 1-.5-.42 1.2 1.2 0 0 1-.19-.7 1.3 1.3 0 0 1 .23-.72 1.5 1.5 0 0 1 .66-.52 3 3 0 0 1 1.1-.19 4 4 0 0 1 .99.14 2 2 0 0 1 .8.37l-.23.4a2 2 0 0 0-.74-.35 3 3 0 0 0-.82-.12 2 2 0 0 0-1.12.28 1 1 0 0 0-.36.7.7.7 0 0 0 .19.53 1 1 0 0 0 .5.3 4 4 0 0 0 .67.17q.38.06.74.15a3 3 0 0 1 .68.22 1.3 1.3 0 0 1 .5.4 1 1 0 0 1 .18.69 1.2 1.2 0 0 1-.23.75 1.5 1.5 0 0 1-.7.5 3 3 0 0 1-1.12.17" transform="translate(986 241)"/></g></g></svg>