<svg xmlns="http://www.w3.org/2000/svg" width="347.315" height="266.18" viewBox="0 0 347.315 266.18"><path fill="#15465c" fill-rule="evenodd" d="m173.66 145.46 138.86 35.01L175.72 253 34.8 180.48Z"/><path fill="#1c5e80" fill-rule="evenodd" d="m174.07 97.26 92.58 23.87-90.92 61-95-60.98Z"/><path fill="#1b739d" fill-rule="evenodd" d="m312.51 180.48 34.8 44.8-173.65 40.9L0 225.28l34.8-44.8 138.86 32.71Z"/><path fill="#5ab4e0" fill-rule="evenodd" d="m266.6 121.16 33.75 43.4-126.7 31.58-126.68-31.57 33.74-43.41 92.95 21.47Z"/><path fill="#9aea9a" fill-rule="evenodd" d="m219.66 60.67 34.54 44.5-80.54 20.1-80.55-20.1 34.54-44.5C142.77 40.46 172.95.04 172.95.02S197 31.1 219.66 60.67"/><path fill="#7fc77f" fill-rule="evenodd" d="M172.95 0c.02.02 65.21 84.53 81.25 105.16l-80.63 20.12c.04-19.35-.6-125.29-.62-125.28"/><path fill="#1b739d" fill-rule="evenodd" d="m266.64 121.15 33.7 43.42-126.9 31.57.18-53.51Z"/><path fill="#145576" fill-rule="evenodd" d="m312.53 180.48 34.79 44.79-173.87 40.9.23-52.97Z"/><path fill="#fafdfd" d="M94.1 148.87a4 4 0 0 1-1.64-.85 3 3 0 0 1-.93-1.47 3.4 3.4 0 0 1-.03-1.8 3.3 3.3 0 0 1 .86-1.57 3.3 3.3 0 0 1 1.52-.87 4 4 0 0 1 1.85 0 4 4 0 0 1 1.36.63 3 3 0 0 1 .9 1.06l-.95.53a2.3 2.3 0 0 0-1.51-1.16 2.5 2.5 0 0 0-1.25 0 2 2 0 0 0-1 .6 2.4 2.4 0 0 0-.58 1.08 2.4 2.4 0 0 0 0 1.23 2 2 0 0 0 .62 1 2.5 2.5 0 0 0 1.1.58 2.3 2.3 0 0 0 1.9-.35l.58.92a3 3 0 0 1-1.3.52 4 4 0 0 1-1.5-.08m6.48 1.6a4 4 0 0 1-1.65-.86 3 3 0 0 1-.94-1.47 3.3 3.3 0 0 1-.03-1.8 3.3 3.3 0 0 1 .86-1.57 3 3 0 0 1 1.52-.87 4 4 0 0 1 3.52.87 3 3 0 0 1 .94 1.47 3.3 3.3 0 0 1 .03 1.8 3.3 3.3 0 0 1-.86 1.57 3 3 0 0 1-1.52.87 4 4 0 0 1-1.87 0m.26-1.04a2.4 2.4 0 0 0 1.22 0 2 2 0 0 0 1-.61 2.4 2.4 0 0 0 .57-1.08 2.4 2.4 0 0 0 0-1.23 2 2 0 0 0-.6-1 2.5 2.5 0 0 0-2.3-.56 2 2 0 0 0-1 .6 2.4 2.4 0 0 0-.58 1.08 2.4 2.4 0 0 0 0 1.23 2 2 0 0 0 .61 1 2.4 2.4 0 0 0 1.08.57m10.29 3.54 1.03-4.23-2.96 2.98-.53-.13-1.25-3.96-1.02 4.18-1.13-.28 1.57-6.38.97.23 1.5 4.86 3.53-3.62.97.24-1.56 6.39Zm7-5.04a4 4 0 0 1 1.38.63 2 2 0 0 1 .76 1.01 2.3 2.3 0 0 1 .02 1.3 2.3 2.3 0 0 1-.62 1.12 2 2 0 0 1-1.14.56 4 4 0 0 1-1.51-.08l-1.44-.36-.46 1.85-1.18-.3 1.57-6.38Zm-.92 3.52a2 2 0 0 0 1.26-.04 1.2 1.2 0 0 0 .63-.84 1.2 1.2 0 0 0-.17-1.03 2 2 0 0 0-1.1-.62l-1.38-.34-.63 2.53Zm4.8-2.57 1.18.3-1.33 5.37 3.34.82-.25 1-4.52-1.11Zm5.42 1.33 1.18.3-1.57 6.38-1.18-.3Zm5.8 6.64-3.19-.79-1 1.32-1.21-.3 4.44-5.67 1.17.28 1.3 7.1-1.23-.31Zm-.16-1.03-.52-3.09-1.88 2.5Zm9.7-1.83-1.58 6.38-.97-.24-2.46-5.19-1.06 4.33-1.18-.3 1.57-6.38.97.24 2.47 5.2 1.06-4.33Zm2.72 1.74-2.11-.52.24-1 5.42 1.33-.25 1-2.11-.52-1.33 5.38-1.18-.3Zm-57.55.3-1.26.8-.4 1.62-1.2-.29 1.58-6.38 1.18.3-.8 3.26 3.96-2.5 1.33.34-3.38 2.19 1.97 4.23-1.38-.34Zm6.39 4.5a3 3 0 0 1-1.88-1.25 3 3 0 0 1-.21-2.3l.88-3.6 1.19.28-.88 3.56q-.46 1.88 1.16 2.28t2.08-1.48l.88-3.56 1.16.29-.89 3.6a3 3 0 0 1-1.25 1.95 2.8 2.8 0 0 1-2.24.23m9.77-1.2a1.7 1.7 0 0 1 .7.78 1.7 1.7 0 0 1 .06 1.09 1.5 1.5 0 0 1-.95 1.12 3.3 3.3 0 0 1-1.97 0l-3.18-.79 1.58-6.38 2.99.73a3 3 0 0 1 1.63.87 1.5 1.5 0 0 1 .31 1.37 2 2 0 0 1-.43.79 1.5 1.5 0 0 1-.74.41Zm-2.8-2.96-.44 1.76 1.67.41a2 2 0 0 0 1.01.01.8.8 0 0 0 .5-.57.8.8 0 0 0-.17-.74 2 2 0 0 0-.9-.46Zm.8 4.99q1.37.34 1.6-.58t-1.15-1.26l-1.92-.47-.45 1.84Zm8.6 2.05-.25 1-4.78-1.18 1.57-6.38 4.67 1.15-.25.99-3.48-.86-.4 1.66 3.07.76-.24.97-3.08-.76-.43 1.76Zm5.22 2.34-.85-2.2-.24-.04-1.44-.36-.46 1.86-1.19-.29 1.57-6.38 2.62.65a4 4 0 0 1 1.38.63 2 2 0 0 1 .75 1.01 2.3 2.3 0 0 1 .03 1.3 2.2 2.2 0 0 1-.65 1.15 2 2 0 0 1-1.2.53l.95 2.46Zm.98-4.11a1.2 1.2 0 0 0-.17-1.04 2 2 0 0 0-1.1-.62l-1.38-.34-.62 2.54 1.38.34a2 2 0 0 0 1.26-.04 1.2 1.2 0 0 0 .63-.84m8.72-.27-1.57 6.39-.98-.24-2.45-5.2-1.06 4.33-1.19-.3 1.57-6.38.97.24 2.46 5.2 1.06-4.33Zm5.14 6.98-.25 1-4.79-1.18 1.57-6.39 4.66 1.15-.24 1-3.48-.86-.4 1.66 3.08.76-.24.97-3.09-.76-.43 1.76Zm3.66-3.75-2.12-.52.24-1 5.42 1.33-.25 1-2.11-.52-1.33 5.38-1.18-.3Zm7.86 6.6-.24.98-4.8-1.17 1.58-6.39 4.66 1.15-.25 1-3.47-.86-.4 1.66 3.07.76-.24.97-3.08-.76-.43 1.76Zm3 1.88a5 5 0 0 1-1.37-.56 3 3 0 0 1-.96-.83l.64-.81a3 3 0 0 0 .84.74 4 4 0 0 0 1.1.47 2 2 0 0 0 1.11.04.7.7 0 0 0 .5-.52.6.6 0 0 0-.08-.5 1.4 1.4 0 0 0-.43-.4q-.28-.17-.77-.43a10 10 0 0 1-1.1-.64 2 2 0 0 1-.63-.73 1.5 1.5 0 0 1-.08-1.08 2 2 0 0 1 .53-.89 2 2 0 0 1 1.03-.47 4 4 0 0 1 1.48.1 5 5 0 0 1 1.11.42 3 3 0 0 1 .87.66l-.6.83a4 4 0 0 0-.78-.6 3 3 0 0 0-.85-.34 2 2 0 0 0-1.1-.02.8.8 0 0 0-.5.55.6.6 0 0 0 .08.5 2 2 0 0 0 .43.39q.28.17.77.43a9 9 0 0 1 1.08.63 2 2 0 0 1 .64.73 1.5 1.5 0 0 1 .08 1.07 1.7 1.7 0 0 1-.53.88 2 2 0 0 1-1.04.47 4 4 0 0 1-1.47-.1Z"/><g transform="rotate(-14 1012.268 -754.77)"><path fill="#fff" d="M14.35 4.42a4.95 4.95 0 0 0-9.84 0 4.95 4.95 0 0 0 .54 9.88h4.38a2.77 2.77 0 0 0 0-5.53A1.61 1.61 0 1 1 10.57 6a.58.58 0 1 0 .82-.8 2.77 2.77 0 1 0-1.96 4.7 1.61 1.61 0 0 1 0 3.23H5.05a3.8 3.8 0 0 1 0-7.6.57.57 0 0 0 .58-.58 3.8 3.8 0 1 1 7.6 0 .6.6 0 0 0 .58.58 3.8 3.8 0 1 1 0 7.6.58.58 0 0 0 0 1.16 4.95 4.95 0 0 0 .54-9.88Zm11.16 6.18-.9-.32c-.67-.2-1.32-.45-1.32-1s.43-.84 1.08-.84a2.5 2.5 0 0 1 1.7.73l.56-.84a3 3 0 0 0-2.29-.87 2.04 2.04 0 0 0-2.26 1.92 1.7 1.7 0 0 0 1.06 1.6 5 5 0 0 0 .92.36c.45.16 1.51.38 1.51 1.12s-.66.96-1.28.96a2.8 2.8 0 0 1-1.99-.96l-.65.8a3.2 3.2 0 0 0 2.62 1.2 3 3 0 0 0 1.86-.6 1.9 1.9 0 0 0 .7-1.52 1.7 1.7 0 0 0-.54-1.25 3 3 0 0 0-.78-.48m4.92-3.15a5 5 0 0 0-2.52.67l.41.9a4 4 0 0 1 2.02-.57 1.47 1.47 0 0 1 1.67 1.52v.27l-1.8.08c-1.55.06-2.62.72-2.62 2.04a2.1 2.1 0 0 0 2.32 2.09 2.8 2.8 0 0 0 2.13-1l.01.84h1.32v-3.9a2.8 2.8 0 0 0-.72-2.18 3 3 0 0 0-2.22-.77m1.6 5.06a2.1 2.1 0 0 1-1.71.97 1.23 1.23 0 0 1-1.39-1.16c0-.63.44-1.1 1.53-1.16l1.57-.1Zm9.21-5.05a3.33 3.33 0 0 0-3.4 3.47 3.26 3.26 0 0 0 3.36 3.53 4 4 0 0 0 2.95-1.07l-.56-.77a3.7 3.7 0 0 1-2.22.77 2.07 2.07 0 0 1-2.16-2.14h5.17l.04-.59a3.07 3.07 0 0 0-3.18-3.2m-2.02 2.9a2 2 0 0 1 1.98-1.93 1.95 1.95 0 0 1 1.93 1.93Zm9.55.24-.9-.32c-.67-.2-1.32-.45-1.32-1s.42-.84 1.07-.84a2.5 2.5 0 0 1 1.7.73l.57-.84a3 3 0 0 0-2.3-.87 2.04 2.04 0 0 0-2.26 1.92 1.7 1.7 0 0 0 1.06 1.6 5 5 0 0 0 .92.36c.45.16 1.51.38 1.51 1.12s-.66.96-1.28.96a2.8 2.8 0 0 1-1.98-.96l-.66.8a3.2 3.2 0 0 0 2.62 1.2 3 3 0 0 0 1.87-.6 1.9 1.9 0 0 0 .69-1.53 1.7 1.7 0 0 0-.54-1.24 3 3 0 0 0-.77-.48m5.79-3.16a2.9 2.9 0 0 0-2.38 1.2h-.03V7.57h-1.3v9.27h1.35v-3.61l.02.01a2.6 2.6 0 0 0 2.32 1.2 3.26 3.26 0 0 0 3.26-3.52 3.2 3.2 0 0 0-3.24-3.48m-.28 5.84a2.15 2.15 0 0 1-2.14-2.37 2.15 2.15 0 1 1 4.27 0 2.15 2.15 0 0 1-2.13 2.37m9.02-5.7h1.36v6.72H63.3zm5.93-.13a2.3 2.3 0 0 0-2.05 1.2h-.04l.01-1.07h-1.36v6.72h1.36v-3.38c0-1.29.47-2.35 1.73-2.35 1.2 0 1.4.85 1.4 1.98v3.75h1.35v-3.98c0-1.6-.49-2.87-2.4-2.87m8.77.13.02 1.06h-.04a2.7 2.7 0 0 0-2.35-1.19 3.2 3.2 0 0 0-3.23 3.38 3.2 3.2 0 0 0 3.23 3.38 2.7 2.7 0 0 0 2.35-1.2H78v.27a3 3 0 0 1-.52 1.88 2.3 2.3 0 0 1-1.84.73 4.3 4.3 0 0 1-2.4-.85l-.63.95a5 5 0 0 0 3 1 3.6 3.6 0 0 0 3-1.29 4.3 4.3 0 0 0 .73-2.9V7.58Zm-2.09 5.52a2.1 2.1 0 0 1-2.13-2.27 2.1 2.1 0 0 1 2.13-2.3 2.1 2.1 0 0 1 2.14 2.3 2.08 2.08 0 0 1-2.14 2.28ZM34.96 5.12a3 3 0 0 0-.45 1.8v7.38h1.34V8.7h1.6V7.6h-1.6v-.74c0-.77.14-1.43 1.03-1.43a3 3 0 0 1 .57.07V4.47a4 4 0 0 0-.88-.08 2 2 0 0 0-1.6.73m24.97 3.49h-.04l.01-1.03h-1.35v6.72h1.35v-3.35a3 3 0 0 1 .41-1.7 1.4 1.4 0 0 1 1.1-.57 2 2 0 0 1 .74.14v-1.3a2 2 0 0 0-.57-.07 1.8 1.8 0 0 0-1.65 1.16"/><ellipse cx="0.883" cy="0.883" fill="#fff" rx="0.883" ry="0.883" transform="translate(63.088 4.388)"/></g><path fill="#fafdfd" d="m131.28 88.67-.56 2.25-1.18-.3.55-2.23-1.47-4.77 1.26.31 1.1 3.58 2.66-2.64 1.17.3Zm5.4 3.83a4 4 0 0 1-1.65-.86 3 3 0 0 1-.93-1.48 3.3 3.3 0 0 1-.03-1.8 3.3 3.3 0 0 1 .86-1.56 3 3 0 0 1 1.53-.87 4 4 0 0 1 3.51.87 3 3 0 0 1 .94 1.48 3.3 3.3 0 0 1 .03 1.8 3.3 3.3 0 0 1-.87 1.57 3 3 0 0 1-1.52.86 4 4 0 0 1-1.86-.01m.26-1.04a2.4 2.4 0 0 0 1.22 0 2 2 0 0 0 1-.6 2.4 2.4 0 0 0 .58-1.08 2.4 2.4 0 0 0 0-1.23 2 2 0 0 0-.6-1 2.5 2.5 0 0 0-2.3-.57 2 2 0 0 0-1 .6 2.4 2.4 0 0 0-.58 1.08 2.4 2.4 0 0 0 0 1.22 2 2 0 0 0 .6 1 2.4 2.4 0 0 0 1.08.58m7.19 2.9a3 3 0 0 1-1.88-1.26 3 3 0 0 1-.2-2.31l.9-3.6 1.18.3-.89 3.55q-.47 1.87 1.16 2.28t2.08-1.48l.88-3.55 1.17.3-.9 3.59a3 3 0 0 1-1.26 1.94 2.8 2.8 0 0 1-2.24.24m8.65 2.06-.84-2.2-.25-.05-1.44-.36-.46 1.86-1.19-.3 1.6-6.37 2.61.65a4 4 0 0 1 1.38.64 2 2 0 0 1 .75 1.01 2.3 2.3 0 0 1 .02 1.3 2.2 2.2 0 0 1-.66 1.15 2 2 0 0 1-1.2.52l.95 2.46Zm1-4.12a1.2 1.2 0 0 0-.17-1.04 2 2 0 0 0-1.1-.62l-1.38-.34-.63 2.54 1.38.34a2 2 0 0 0 1.26-.04 1.2 1.2 0 0 0 .63-.84m-32.01 8.1a5 5 0 0 1-1.38-.57 3 3 0 0 1-.95-.83l.64-.82a3 3 0 0 0 .84.75 4 4 0 0 0 1.1.48 2 2 0 0 0 1.1.03.7.7 0 0 0 .51-.51.6.6 0 0 0-.08-.5 1.4 1.4 0 0 0-.43-.4q-.28-.18-.76-.44a10 10 0 0 1-1.1-.64 2 2 0 0 1-.64-.73 1.5 1.5 0 0 1-.07-1.08 2 2 0 0 1 .53-.89 2 2 0 0 1 1.04-.47 4 4 0 0 1 1.48.1 5 5 0 0 1 1.1.43 3 3 0 0 1 .87.66l-.6.83a4 4 0 0 0-.78-.6 3 3 0 0 0-.85-.34 2 2 0 0 0-1.1-.02.8.8 0 0 0-.5.54.6.6 0 0 0 .08.5 2 2 0 0 0 .43.4l.76.42a9 9 0 0 1 1.08.64 2 2 0 0 1 .64.73 1.5 1.5 0 0 1 .08 1.07 1.7 1.7 0 0 1-.53.88 2 2 0 0 1-1.04.46 4 4 0 0 1-1.47-.09m8.81 1.04-.24 1-4.79-1.2 1.6-6.38 4.65 1.16-.25 1-3.47-.87-.42 1.66 3.08.77-.24.97-3.08-.77-.44 1.76Zm5.26 2.36-.84-2.19-.25-.05-1.44-.36-.46 1.86-1.19-.3 1.6-6.37 2.61.65a4 4 0 0 1 1.38.63 2 2 0 0 1 .75 1.02 2.3 2.3 0 0 1 .03 1.3 2.2 2.2 0 0 1-.66 1.15 2 2 0 0 1-1.2.52l.94 2.46Zm1-4.11a1.2 1.2 0 0 0-.17-1.04 2 2 0 0 0-1.1-.62l-1.38-.34-.64 2.54 1.39.34a2 2 0 0 0 1.26-.04 1.2 1.2 0 0 0 .63-.84m8.91-.19-4.37 5.69-1.16-.3-1.2-7.07 1.28.32.9 5.45 3.37-4.38Zm.68.17 1.19.3-1.6 6.38-1.18-.3Zm4.26 7.93a4 4 0 0 1-1.64-.86 3 3 0 0 1-.93-1.47 3.5 3.5 0 0 1 .84-3.37 3.3 3.3 0 0 1 1.52-.87 4 4 0 0 1 1.86.01 4 4 0 0 1 1.36.63 3 3 0 0 1 .9 1.07l-.95.53a2.3 2.3 0 0 0-1.52-1.17 2.5 2.5 0 0 0-1.25 0 2 2 0 0 0-1 .59 2.5 2.5 0 0 0-.58 2.31 2 2 0 0 0 .61 1 2.5 2.5 0 0 0 1.1.59 2.3 2.3 0 0 0 1.9-.34l.58.92a3 3 0 0 1-1.3.52 4 4 0 0 1-1.5-.09m8.73 1.03-.24 1-4.79-1.2 1.6-6.38 4.65 1.16-.25 1-3.47-.87-.41 1.66 3.07.77-.24.97-3.08-.77-.43 1.76Zm36.36-12.92.56 2.24-1.18.3-.55-2.24-3.54-3.52 1.26-.31 2.65 2.64 1.1-3.58 1.17-.29Zm6.57.84a4 4 0 0 1-1.86.01 3 3 0 0 1-1.52-.86 3.3 3.3 0 0 1-.87-1.57 3.3 3.3 0 0 1 .03-1.8 3 3 0 0 1 .94-1.48 4 4 0 0 1 1.65-.86 4 4 0 0 1 1.86-.01 3 3 0 0 1 1.52.86 3.3 3.3 0 0 1 .87 1.57 3.3 3.3 0 0 1-.03 1.8 3 3 0 0 1-.93 1.48 4 4 0 0 1-1.66.86m-.25-1.04a2.4 2.4 0 0 0 1.07-.58 2 2 0 0 0 .6-1 2.4 2.4 0 0 0 0-1.22 2.4 2.4 0 0 0-.57-1.08 2 2 0 0 0-1-.6 2.5 2.5 0 0 0-2.3.57 2 2 0 0 0-.6 1 2.4 2.4 0 0 0 0 1.22 2.4 2.4 0 0 0 .57 1.08 2 2 0 0 0 1 .6 2.4 2.4 0 0 0 1.23.01m7.7-.82a3 3 0 0 1-2.25-.23 3 3 0 0 1-1.27-1.94l-.9-3.6 1.2-.3.88 3.56q.47 1.88 2.09 1.47t1.14-2.28l-.88-3.55 1.16-.29.9 3.6a3 3 0 0 1-.2 2.3 2.8 2.8 0 0 1-1.87 1.26m8.6-2.24-1.77-1.54-.24.07-1.44.36.46 1.86-1.18.3-1.6-6.39 2.63-.65a4 4 0 0 1 1.51-.08 2 2 0 0 1 1.14.54 2.3 2.3 0 0 1 .63 1.13 2.2 2.2 0 0 1-.04 1.33 2 2 0 0 1-.82 1.03l2 1.73Zm-1.05-4.1a1.2 1.2 0 0 0-.64-.84 2 2 0 0 0-1.26-.03l-1.38.34.64 2.54 1.38-.34a2 2 0 0 0 1.1-.63 1.2 1.2 0 0 0 .16-1.04m-21 15.5-2.11.53-.25-1 5.41-1.35.25 1-2.11.53 1.34 5.37-1.19.3Zm10.08 2.14.24 1-4.78 1.19-1.59-6.38 4.66-1.16.25 1-3.48.86.42 1.66 3.07-.77.25.97-3.08.77.44 1.76Zm5.34-1.84-3.19.8-.26 1.62-1.22.3 1.28-7.08 1.16-.3 4.47 5.67-1.23.3Zm-.62-.84-1.9-2.49-.5 3.1Zm9.55.18-1.07-4.23-1.22 4.02-.53.14-2.95-2.93 1.04 4.18-1.13.28-1.6-6.38.98-.24 3.58 3.6 1.44-4.85.97-.24 1.6 6.37ZM51.07 209.02l1.2.28-1.49 6.4-1.19-.28Zm8.62 1.99-1.48 6.4-.97-.22-2.54-5.15-1 4.33-1.18-.27 1.48-6.4.97.22 2.53 5.15 1-4.33Zm2.69 1.67-.45 1.95 3.09.71-.23 1.01-3.1-.71-.56 2.45-1.19-.28 1.48-6.4 4.68 1.08-.23 1Zm7.59 7.45-.88-2.18-.25-.05-1.44-.33-.43 1.86-1.2-.27 1.49-6.4 2.63.6a4 4 0 0 1 1.39.61 2 2 0 0 1 .76 1 2.3 2.3 0 0 1 .05 1.3 2.2 2.2 0 0 1-.64 1.17 2 2 0 0 1-1.19.54l.99 2.45Zm.92-4.13a1.2 1.2 0 0 0-.18-1.04 2 2 0 0 0-1.1-.6l-1.4-.32-.59 2.55 1.4.32a2 2 0 0 0 1.25-.06 1.2 1.2 0 0 0 .62-.85m6.08 4.18-3.2-.74-.98 1.34-1.22-.28 4.36-5.74 1.17.27 1.41 7.07-1.24-.29Zm-.18-1.02-.56-3.08-1.85 2.52Zm4.51 3.68a5 5 0 0 1-1.38-.54 3 3 0 0 1-.97-.81l.63-.83a3 3 0 0 0 .85.73 4 4 0 0 0 1.1.46 2 2 0 0 0 1.12.02.7.7 0 0 0 .49-.53.6.6 0 0 0-.1-.5 1.4 1.4 0 0 0-.43-.39l-.77-.42a10 10 0 0 1-1.1-.62 2 2 0 0 1-.66-.72 1.5 1.5 0 0 1-.1-1.08 2 2 0 0 1 .52-.9 2 2 0 0 1 1.03-.48 4 4 0 0 1 1.48.07 5 5 0 0 1 1.12.41 3 3 0 0 1 .88.65l-.6.83a4 4 0 0 0-.78-.57 3 3 0 0 0-.86-.34 2 2 0 0 0-1.1 0 .8.8 0 0 0-.5.55.6.6 0 0 0 .1.5 2 2 0 0 0 .44.38q.28.17.77.42a9 9 0 0 1 1.09.62 2 2 0 0 1 .65.72 1.5 1.5 0 0 1 .1 1.06 1.7 1.7 0 0 1-.52.9 2 2 0 0 1-1.03.48 4 4 0 0 1-1.47-.07m6.25-4.34-2.12-.49.23-1 5.44 1.25-.24 1-2.12-.48-1.24 5.4-1.2-.28Zm7.16 7.34-.87-2.18-.25-.05-1.45-.33-.43 1.87-1.2-.28 1.49-6.4 2.63.6a4 4 0 0 1 1.4.62 2 2 0 0 1 .76 1 2.3 2.3 0 0 1 .05 1.3 2.2 2.2 0 0 1-.64 1.16 2 2 0 0 1-1.19.55l.99 2.44Zm.92-4.13a1.2 1.2 0 0 0-.18-1.04 2 2 0 0 0-1.1-.6l-1.4-.32-.58 2.55 1.39.32a2 2 0 0 0 1.26-.06 1.2 1.2 0 0 0 .62-.85Zm4.32 5.44a3 3 0 0 1-1.9-1.23 3 3 0 0 1-.24-2.3l.83-3.62 1.2.28-.83 3.56q-.44 1.89 1.2 2.26t2.05-1.5l.82-3.57 1.17.27-.84 3.6a3 3 0 0 1-1.23 1.97 2.8 2.8 0 0 1-2.23.28m7.44 1.71a4 4 0 0 1-1.66-.83 3 3 0 0 1-.95-1.46 3.4 3.4 0 0 1-.06-1.8 3.3 3.3 0 0 1 .84-1.58 3.3 3.3 0 0 1 1.5-.89 4 4 0 0 1 1.86-.02 4 4 0 0 1 1.37.6 3 3 0 0 1 .92 1.05l-.94.55a2.3 2.3 0 0 0-1.54-1.15 2.5 2.5 0 0 0-1.25.02 2 2 0 0 0-1 .62 2.4 2.4 0 0 0-.56 1.09 2.4 2.4 0 0 0 .03 1.23 2 2 0 0 0 .63.99 2.5 2.5 0 0 0 1.11.56 2.3 2.3 0 0 0 1.89-.36l.6.9a3 3 0 0 1-1.29.55 4 4 0 0 1-1.5-.07m6.18-4.35-2.12-.49.24-1 5.43 1.25-.23 1-2.12-.48-1.25 5.4-1.19-.28Zm5.6 7.07a3 3 0 0 1-1.9-1.22 3 3 0 0 1-.25-2.3l.84-3.62 1.19.27-.83 3.57q-.43 1.89 1.2 2.26t2.05-1.51l.82-3.57 1.17.27-.83 3.61a3 3 0 0 1-1.23 1.97 2.8 2.8 0 0 1-2.24.27m8.68 1.91-.88-2.18-.25-.05-1.44-.33-.43 1.87-1.2-.28 1.48-6.4 2.63.6a4 4 0 0 1 1.4.62 2 2 0 0 1 .76 1 2.3 2.3 0 0 1 .05 1.3 2.2 2.2 0 0 1-.64 1.16 2 2 0 0 1-1.2.54l1 2.45Zm.92-4.13a1.2 1.2 0 0 0-.18-1.04 2 2 0 0 0-1.1-.6l-1.4-.32-.59 2.55 1.4.32a2 2 0 0 0 1.25-.06 1.2 1.2 0 0 0 .62-.85m6.62 4.82-.24 1-4.8-1.11 1.48-6.4 4.68 1.07-.23 1-3.5-.8-.38 1.66 3.1.71-.23.98-3.1-.71-.4 1.76Z"/><g transform="rotate(-14.98 692.671 -701.144)"><path fill="#fff" d="M10.34.1A6 6 0 0 0 9.31 0c-2.86 0-6 2.06-7.83 6.73q.22-.34.46-.64A5.9 5.9 0 0 1 6.5 3.62a5 5 0 0 1 .77.06A4.2 4.2 0 0 1 10.7 6.1a4.3 4.3 0 0 1-.94 4.22 6 6 0 0 1-1.47 1.32 12 12 0 0 0 5.17-3.3C16.49 4.37 14.56.85 10.34.1"/><path fill="#fff" d="M9.26 9.93c2.1-2.75.8-5.14-2.08-5.63a4 4 0 0 0-.67-.06c-1.85 0-3.9 1.27-5.21 4.1l.1-.13a4.5 4.5 0 0 1 3.4-1.8l.44.02A2.9 2.9 0 0 1 7.7 8.08a3.1 3.1 0 0 1-.73 3.2 4 4 0 0 1-.78.74 8 8 0 0 0 3.07-2.08Z"/><path fill="#fff" d="M6.46 10.88c1.52-1.94.68-3.56-1.3-3.83l-.36-.02c-1.92 0-4.25 2-4.8 6.66 0 0 4.95-.87 6.46-2.8m11.97-2.52c.06-.47.4-.67.91-.67.34 0 .63.13.63.41s-.1.44-.45.55l-1.19.41zm-.27 2.02v-.13l1.46-.5c.98-.33 1.52-.73 1.52-1.74 0-.82-.65-1.38-1.69-1.38a2.06 2.06 0 0 0-2.24 1.64l-.26 1.81-.03.43c0 .85.56 1.38 1.77 1.38h1.67l.15-1.07h-1.66q-.69 0-.69-.45Zm5.73-5.71h-2l-.16 1.07h.76l-.7 5.08h-.87l-.16 1.07h3l.15-1.07h-.87zm15.28-.14h-1.25l-.19 1.34h1.25zm-.3 2.1h-2.01L36.7 7.7h.77l-.43 3.11h-.88l-.15 1.08h3l.15-1.08h-.88zm3.14 0c-1.2 0-2.15.53-2.15 1.57 0 1.53 2.1 1.34 2.1 2.12 0 .44-.44.5-.82.5h-1.59l-.15 1.07h1.63c1.4 0 2.21-.7 2.21-1.73 0-1.57-2.1-1.43-2.1-2.1q-.01-.36.77-.37h1.4l.16-1.05zm-10.93 0c-1.2 0-2.15.53-2.15 1.58 0 1.52 2.1 1.33 2.1 2.11 0 .44-.44.5-.82.5h-1.59l-.15 1.07h1.63c1.4 0 2.22-.7 2.22-1.73 0-1.56-2.11-1.43-2.11-2.1q-.01-.36.77-.37h1.4l.16-1.05zm19.46 0c-1.2 0-2.15.53-2.15 1.57 0 1.53 2.1 1.34 2.1 2.12 0 .44-.44.5-.82.5h-1.59l-.15 1.07h1.63c1.4 0 2.21-.7 2.21-1.73 0-1.57-2.1-1.43-2.1-2.1q-.01-.36.77-.37h1.4L52 6.65zm-3.25 0L45.7 9.96l-.65-3.32h-1.32l1.12 4.95-1.1 2.2h1.24l3.62-7.15zM27.2 8.47l-.25 1.76a.8.8 0 0 1-.87.6c-.39 0-.66-.2-.66-.52l.04-.42.24-1.6a.8.8 0 0 1 .86-.6c.38 0 .66.2.66.52zm.38-1.83-.1.4a1.5 1.5 0 0 0-1.07-.4 1.93 1.93 0 0 0-1.94 1.7l-.26 1.85-.02.29a1.37 1.37 0 0 0 1.5 1.42 1.7 1.7 0 0 0 1.17-.43l-.02.43h1.12l.74-5.26Zm6.96 3.9.03-.32.36-2.53h.98l.16-1.06h-.98l.16-1.15H34l-.16 1.15h-.95l-.16 1.06h.96l-.37 2.65-.04.44c0 .76.44 1.11 1.51 1.11h.85l.14-1.07h-.64c-.5 0-.6-.08-.6-.28"/></g></svg>