<svg xmlns="http://www.w3.org/2000/svg" width="342" height="406.87" viewBox="0 0 342 406.87">
  <g id="safespring-compliant-kubernetes-chart" transform="translate(-778 -233.13)">
    <rect id="Rectangle_38" data-name="Rectangle 38" width="342" height="32" rx="5" transform="translate(778 342)" fill="rgba(25,95,140,0.07)"/>
    <rect id="Rectangle_37" data-name="Rectangle 37" width="342" height="32" rx="5" transform="translate(778 276)" fill="rgba(25,95,140,0.07)"/>
    <rect id="Rectangle_39" data-name="Rectangle 39" width="342" height="32" rx="5" transform="translate(778 409)" fill="rgba(25,95,140,0.07)"/>
    <rect id="Rectangle_38-2" data-name="Rectangle 38" width="342" height="32" rx="5" transform="translate(778 542)" fill="rgba(25,95,140,0.07)"/>
    <rect id="Rectangle_37-2" data-name="Rectangle 37" width="342" height="32" rx="5" transform="translate(778 475)" fill="rgba(25,95,140,0.07)"/>
    <g id="Group_515" data-name="Group 515" transform="translate(278 -160)">
      <circle id="Circle" cx="11.5" cy="11.5" r="11.5" transform="translate(783 474)" fill="#32cd32"/>
      <path id="Check_mark" data-name="Check mark" d="M3.222,72.032.139,68.95a.474.474,0,0,1,0-.671l.671-.671a.474.474,0,0,1,.671,0l2.076,2.076L8,65.237a.474.474,0,0,1,.671,0l.671.671a.474.474,0,0,1,0,.671L3.892,72.032a.474.474,0,0,1-.671,0Z" transform="translate(789.758 416.865)" fill="#fff"/>
    </g>
    <rect id="Rectangle_39-2" data-name="Rectangle 39" width="342" height="32" rx="5" transform="translate(778 608)" fill="rgba(25,95,140,0.07)"/>
    <g id="Group_516" data-name="Group 516" transform="translate(278 -127)">
      <circle id="Circle-2" data-name="Circle" cx="11.5" cy="11.5" r="11.5" transform="translate(783 474)" fill="#32cd32"/>
      <path id="Check_mark-2" data-name="Check mark" d="M3.222,72.032.139,68.95a.474.474,0,0,1,0-.671l.671-.671a.474.474,0,0,1,.671,0l2.076,2.076L8,65.237a.474.474,0,0,1,.671,0l.671.671a.474.474,0,0,1,0,.671L3.892,72.032a.474.474,0,0,1-.671,0Z" transform="translate(789.758 416.865)" fill="#fff"/>
    </g>
    <g id="Group_517" data-name="Group 517" transform="translate(278 -93)">
      <circle id="Circle-3" data-name="Circle" cx="11.5" cy="11.5" r="11.5" transform="translate(783 474)" fill="#32cd32"/>
      <path id="Check_mark-3" data-name="Check mark" d="M3.222,72.032.139,68.95a.474.474,0,0,1,0-.671l.671-.671a.474.474,0,0,1,.671,0l2.076,2.076L8,65.237a.474.474,0,0,1,.671,0l.671.671a.474.474,0,0,1,0,.671L3.892,72.032a.474.474,0,0,1-.671,0Z" transform="translate(789.758 416.865)" fill="#fff"/>
    </g>
    <g id="Group_518" data-name="Group 518" transform="translate(278 -60)">
      <circle id="Circle-4" data-name="Circle" cx="11.5" cy="11.5" r="11.5" transform="translate(783 474)" fill="#32cd32"/>
      <path id="Check_mark-4" data-name="Check mark" d="M3.222,72.032.139,68.95a.474.474,0,0,1,0-.671l.671-.671a.474.474,0,0,1,.671,0l2.076,2.076L8,65.237a.474.474,0,0,1,.671,0l.671.671a.474.474,0,0,1,0,.671L3.892,72.032a.474.474,0,0,1-.671,0Z" transform="translate(789.758 416.865)" fill="#fff"/>
    </g>
    <g id="Group_519" data-name="Group 519" transform="translate(278 -27)">
      <circle id="Circle-5" data-name="Circle" cx="11.5" cy="11.5" r="11.5" transform="translate(783 474)" fill="#32cd32"/>
      <path id="Check_mark-5" data-name="Check mark" d="M3.222,72.032.139,68.95a.474.474,0,0,1,0-.671l.671-.671a.474.474,0,0,1,.671,0l2.076,2.076L8,65.237a.474.474,0,0,1,.671,0l.671.671a.474.474,0,0,1,0,.671L3.892,72.032a.474.474,0,0,1-.671,0Z" transform="translate(789.758 416.865)" fill="#fff"/>
    </g>
    <g id="Group_520" data-name="Group 520" transform="translate(278 6)">
      <circle id="Circle-6" data-name="Circle" cx="11.5" cy="11.5" r="11.5" transform="translate(783 474)" fill="#32cd32"/>
      <path id="Check_mark-6" data-name="Check mark" d="M3.222,72.032.139,68.95a.474.474,0,0,1,0-.671l.671-.671a.474.474,0,0,1,.671,0l2.076,2.076L8,65.237a.474.474,0,0,1,.671,0l.671.671a.474.474,0,0,1,0,.671L3.892,72.032a.474.474,0,0,1-.671,0Z" transform="translate(789.758 416.865)" fill="#fff"/>
    </g>
    <g id="Group_521" data-name="Group 521" transform="translate(278 39)">
      <circle id="Circle-7" data-name="Circle" cx="11.5" cy="11.5" r="11.5" transform="translate(783 474)" fill="#32cd32"/>
      <path id="Check_mark-7" data-name="Check mark" d="M3.222,72.032.139,68.95a.474.474,0,0,1,0-.671l.671-.671a.474.474,0,0,1,.671,0l2.076,2.076L8,65.237a.474.474,0,0,1,.671,0l.671.671a.474.474,0,0,1,0,.671L3.892,72.032a.474.474,0,0,1-.671,0Z" transform="translate(789.758 416.865)" fill="#fff"/>
    </g>
    <g id="Group_522" data-name="Group 522" transform="translate(278 73)">
      <circle id="Circle-8" data-name="Circle" cx="11.5" cy="11.5" r="11.5" transform="translate(783 474)" fill="#32cd32"/>
      <path id="Check_mark-8" data-name="Check mark" d="M3.222,72.032.139,68.95a.474.474,0,0,1,0-.671l.671-.671a.474.474,0,0,1,.671,0l2.076,2.076L8,65.237a.474.474,0,0,1,.671,0l.671.671a.474.474,0,0,1,0,.671L3.892,72.032a.474.474,0,0,1-.671,0Z" transform="translate(789.758 416.865)" fill="#fff"/>
    </g>
    <g id="Group_523" data-name="Group 523" transform="translate(278 106)">
      <circle id="Circle-9" data-name="Circle" cx="11.5" cy="11.5" r="11.5" transform="translate(783 474)" fill="#32cd32"/>
      <path id="Check_mark-9" data-name="Check mark" d="M3.222,72.032.139,68.95a.474.474,0,0,1,0-.671l.671-.671a.474.474,0,0,1,.671,0l2.076,2.076L8,65.237a.474.474,0,0,1,.671,0l.671.671a.474.474,0,0,1,0,.671L3.892,72.032a.474.474,0,0,1-.671,0Z" transform="translate(789.758 416.865)" fill="#fff"/>
    </g>
    <g id="Group_524" data-name="Group 524" transform="translate(278 139)">
      <circle id="Circle-10" data-name="Circle" cx="11.5" cy="11.5" r="11.5" transform="translate(783 474)" fill="#32cd32"/>
      <path id="Check_mark-10" data-name="Check mark" d="M3.222,72.032.139,68.95a.474.474,0,0,1,0-.671l.671-.671a.474.474,0,0,1,.671,0l2.076,2.076L8,65.237a.474.474,0,0,1,.671,0l.671.671a.474.474,0,0,1,0,.671L3.892,72.032a.474.474,0,0,1-.671,0Z" transform="translate(789.758 416.865)" fill="#fff"/>
    </g>
    <g id="Group_525" data-name="Group 525" transform="translate(278 -193)">
      <circle id="Circle-11" data-name="Circle" cx="11.5" cy="11.5" r="11.5" transform="translate(783 474)" fill="#32cd32"/>
      <path id="Check_mark-11" data-name="Check mark" d="M3.222,72.032.139,68.95a.474.474,0,0,1,0-.671l.671-.671a.474.474,0,0,1,.671,0l2.076,2.076L8,65.237a.474.474,0,0,1,.671,0l.671.671a.474.474,0,0,1,0,.671L3.892,72.032a.474.474,0,0,1-.671,0Z" transform="translate(789.758 416.865)" fill="#fff"/>
    </g>
    <g id="Group_526" data-name="Group 526" transform="translate(192 -160)">
      <circle id="Circle-12" data-name="Circle" cx="11.5" cy="11.5" r="11.5" transform="translate(783 474)" fill="#32cd32"/>
      <path id="Check_mark-12" data-name="Check mark" d="M3.222,72.032.139,68.95a.474.474,0,0,1,0-.671l.671-.671a.474.474,0,0,1,.671,0l2.076,2.076L8,65.237a.474.474,0,0,1,.671,0l.671.671a.474.474,0,0,1,0,.671L3.892,72.032a.474.474,0,0,1-.671,0Z" transform="translate(789.758 416.865)" fill="#fff"/>
    </g>
    <g id="Group_527" data-name="Group 527" transform="translate(192 -127)">
      <circle id="Circle-13" data-name="Circle" cx="11.5" cy="11.5" r="11.5" transform="translate(783 474)" fill="#32cd32"/>
      <path id="Check_mark-13" data-name="Check mark" d="M3.222,72.032.139,68.95a.474.474,0,0,1,0-.671l.671-.671a.474.474,0,0,1,.671,0l2.076,2.076L8,65.237a.474.474,0,0,1,.671,0l.671.671a.474.474,0,0,1,0,.671L3.892,72.032a.474.474,0,0,1-.671,0Z" transform="translate(789.758 416.865)" fill="#fff"/>
    </g>
    <g id="Group_537" data-name="Group 537" transform="translate(-31)">
      <circle id="Circle-14" data-name="Circle" cx="11.5" cy="11.5" r="11.5" transform="translate(1006 381)" fill="#fa690f"/>
      <circle id="Circle-15" data-name="Circle" cx="11.5" cy="11.5" r="11.5" transform="translate(1006 414)" fill="#fa690f"/>
      <circle id="Circle-16" data-name="Circle" cx="11.5" cy="11.5" r="11.5" transform="translate(1006 447)" fill="#fa690f"/>
      <circle id="Circle-17" data-name="Circle" cx="11.5" cy="11.5" r="11.5" transform="translate(1006 480)" fill="#fa690f"/>
      <circle id="Circle-18" data-name="Circle" cx="11.5" cy="11.5" r="11.5" transform="translate(1006 513)" fill="#fa690f"/>
      <circle id="Circle-19" data-name="Circle" cx="11.5" cy="11.5" r="11.5" transform="translate(1006 547)" fill="#fa690f"/>
      <circle id="Circle-20" data-name="Circle" cx="11.5" cy="11.5" r="11.5" transform="translate(1006 580)" fill="#fa690f"/>
      <circle id="Circle-21" data-name="Circle" cx="11.5" cy="11.5" r="11.5" transform="translate(1006 613)" fill="#fa690f"/>
      <path id="x-solid" d="M6.868,39.191a.583.583,0,1,1-.9.747L3.5,36.96,1.035,39.922a.583.583,0,1,1-.9-.747l2.6-3.126L.138,32.938a.583.583,0,0,1,.9-.747L3.5,35.153l2.468-2.962a.583.583,0,1,1,.9.747l-2.6,3.126Z" transform="translate(1013.997 556.019)" fill="#fff"/>
      <path id="x-solid-2" data-name="x-solid" d="M6.868,39.191a.583.583,0,1,1-.9.747L3.5,36.96,1.035,39.922a.583.583,0,1,1-.9-.747l2.6-3.126L.138,32.938a.583.583,0,0,1,.9-.747L3.5,35.153l2.468-2.962a.583.583,0,1,1,.9.747l-2.6,3.126Z" transform="translate(1013.997 523.019)" fill="#fff"/>
      <path id="x-solid-3" data-name="x-solid" d="M6.868,39.191a.583.583,0,1,1-.9.747L3.5,36.96,1.035,39.922a.583.583,0,1,1-.9-.747l2.6-3.126L.138,32.938a.583.583,0,0,1,.9-.747L3.5,35.153l2.468-2.962a.583.583,0,1,1,.9.747l-2.6,3.126Z" transform="translate(1013.997 490.019)" fill="#fff"/>
      <path id="x-solid-4" data-name="x-solid" d="M6.868,39.191a.583.583,0,1,1-.9.747L3.5,36.96,1.035,39.922a.583.583,0,1,1-.9-.747l2.6-3.126L.138,32.938a.583.583,0,0,1,.9-.747L3.5,35.153l2.468-2.962a.583.583,0,1,1,.9.747l-2.6,3.126Z" transform="translate(1013.997 456.019)" fill="#fff"/>
      <path id="x-solid-5" data-name="x-solid" d="M6.868,39.191a.583.583,0,1,1-.9.747L3.5,36.96,1.035,39.922a.583.583,0,1,1-.9-.747l2.6-3.126L.138,32.938a.583.583,0,0,1,.9-.747L3.5,35.153l2.468-2.962a.583.583,0,1,1,.9.747l-2.6,3.126Z" transform="translate(1013.997 423.019)" fill="#fff"/>
      <path id="x-solid-6" data-name="x-solid" d="M6.868,39.191a.583.583,0,1,1-.9.747L3.5,36.96,1.035,39.922a.583.583,0,1,1-.9-.747l2.6-3.126L.138,32.938a.583.583,0,0,1,.9-.747L3.5,35.153l2.468-2.962a.583.583,0,1,1,.9.747l-2.6,3.126Z" transform="translate(1013.997 390.019)" fill="#fff"/>
      <path id="x-solid-7" data-name="x-solid" d="M6.868,39.191a.583.583,0,1,1-.9.747L3.5,36.96,1.035,39.922a.583.583,0,1,1-.9-.747l2.6-3.126L.138,32.938a.583.583,0,0,1,.9-.747L3.5,35.153l2.468-2.962a.583.583,0,1,1,.9.747l-2.6,3.126Z" transform="translate(1013.997 589.019)" fill="#fff"/>
      <path id="x-solid-8" data-name="x-solid" d="M6.868,39.191a.583.583,0,1,1-.9.747L3.5,36.96,1.035,39.922a.583.583,0,1,1-.9-.747l2.6-3.126L.138,32.938a.583.583,0,0,1,.9-.747L3.5,35.153l2.468-2.962a.583.583,0,1,1,.9.747l-2.6,3.126Z" transform="translate(1013.997 357.019)" fill="#fff"/>
    </g>
    <g id="Group_536" data-name="Group 536" transform="translate(192 -193)">
      <circle id="Circle-22" data-name="Circle" cx="11.5" cy="11.5" r="11.5" transform="translate(783 474)" fill="#32cd32"/>
      <path id="Check_mark-14" data-name="Check mark" d="M3.222,72.032.139,68.95a.474.474,0,0,1,0-.671l.671-.671a.474.474,0,0,1,.671,0l2.076,2.076L8,65.237a.474.474,0,0,1,.671,0l.671.671a.474.474,0,0,1,0,.671L3.892,72.032a.474.474,0,0,1-.671,0Z" transform="translate(789.758 416.865)" fill="#fff"/>
    </g>
    <g id="Text">
      <path id="Path_5133" data-name="Path 5133" d="M4.18.12A4.021,4.021,0,0,1,2.245-.345a3.47,3.47,0,0,1-1.36-1.29A3.554,3.554,0,0,1,.39-3.5,3.554,3.554,0,0,1,.885-5.365a3.47,3.47,0,0,1,1.36-1.29A4.042,4.042,0,0,1,4.19-7.12a4.08,4.08,0,0,1,1.645.32,3.3,3.3,0,0,1,1.235.92l-1.04.96a2.236,2.236,0,0,0-1.76-.82,2.337,2.337,0,0,0-1.16.285,2.026,2.026,0,0,0-.795.8A2.337,2.337,0,0,0,2.03-3.5a2.337,2.337,0,0,0,.285,1.16,2.026,2.026,0,0,0,.795.795,2.337,2.337,0,0,0,1.16.285,2.225,2.225,0,0,0,1.76-.83l1.04.96A3.242,3.242,0,0,1,5.83-.2,4.116,4.116,0,0,1,4.18.12ZM8.05-7.42H9.61V0H8.05ZM13.62.08A3.226,3.226,0,0,1,12.1-.275,2.639,2.639,0,0,1,11.04-1.26a2.714,2.714,0,0,1-.38-1.43,2.714,2.714,0,0,1,.38-1.43A2.639,2.639,0,0,1,12.1-5.105,3.226,3.226,0,0,1,13.62-5.46a3.2,3.2,0,0,1,1.52.355,2.647,2.647,0,0,1,1.05.985,2.714,2.714,0,0,1,.38,1.43,2.714,2.714,0,0,1-.38,1.43,2.647,2.647,0,0,1-1.05.985A3.2,3.2,0,0,1,13.62.08Zm0-1.28a1.3,1.3,0,0,0,.985-.405A1.51,1.51,0,0,0,14.99-2.69,1.51,1.51,0,0,0,14.6-3.775a1.3,1.3,0,0,0-.985-.405,1.315,1.315,0,0,0-.99.405,1.5,1.5,0,0,0-.39,1.085,1.5,1.5,0,0,0,.39,1.085A1.315,1.315,0,0,0,13.62-1.2Zm9.41-4.18V0H21.55V-.64a2.069,2.069,0,0,1-.74.535,2.328,2.328,0,0,1-.93.185A2.291,2.291,0,0,1,18.2-.53a2.432,2.432,0,0,1-.62-1.81V-5.38h1.56v2.81q0,1.3,1.09,1.3a1.172,1.172,0,0,0,.9-.365,1.54,1.54,0,0,0,.34-1.085V-5.38Zm6.93-2.04V0H28.47V-.62a2.057,2.057,0,0,1-1.68.7,2.794,2.794,0,0,1-1.375-.34,2.434,2.434,0,0,1-.965-.97,2.957,2.957,0,0,1-.35-1.46,2.957,2.957,0,0,1,.35-1.46,2.434,2.434,0,0,1,.965-.97,2.794,2.794,0,0,1,1.375-.34,2.046,2.046,0,0,1,1.61.65V-7.42ZM27.06-1.2a1.3,1.3,0,0,0,.98-.405,1.5,1.5,0,0,0,.39-1.085,1.5,1.5,0,0,0-.39-1.085,1.3,1.3,0,0,0-.98-.405,1.315,1.315,0,0,0-.99.405,1.5,1.5,0,0,0-.39,1.085,1.5,1.5,0,0,0,.39,1.085A1.315,1.315,0,0,0,27.06-1.2ZM31.2-3.44h2.83v1.25H31.2ZM37.07.08a5.226,5.226,0,0,1-1.31-.165A3.423,3.423,0,0,1,34.74-.5l.52-1.12a3.273,3.273,0,0,0,.87.375,3.646,3.646,0,0,0,1,.145q.99,0,.99-.49a.347.347,0,0,0-.27-.33,4,4,0,0,0-.83-.17,8.007,8.007,0,0,1-1.09-.23,1.691,1.691,0,0,1-.745-.46,1.308,1.308,0,0,1-.315-.94,1.472,1.472,0,0,1,.295-.9,1.9,1.9,0,0,1,.86-.615,3.673,3.673,0,0,1,1.335-.22,5.239,5.239,0,0,1,1.135.125,3.173,3.173,0,0,1,.935.345l-.52,1.11a3.1,3.1,0,0,0-1.55-.4,1.577,1.577,0,0,0-.75.14.412.412,0,0,0-.25.36.357.357,0,0,0,.27.35,4.78,4.78,0,0,0,.86.19,9.206,9.206,0,0,1,1.08.235,1.622,1.622,0,0,1,.73.455,1.291,1.291,0,0,1,.31.92,1.421,1.421,0,0,1-.3.89,1.915,1.915,0,0,1-.875.605A3.9,3.9,0,0,1,37.07.08Zm6.68-5.54a2.742,2.742,0,0,1,1.365.345,2.477,2.477,0,0,1,.965.97,2.928,2.928,0,0,1,.35,1.455,2.928,2.928,0,0,1-.35,1.455,2.477,2.477,0,0,1-.965.97A2.742,2.742,0,0,1,43.75.08a2.078,2.078,0,0,1-1.62-.65V1.94H40.57V-5.38h1.49v.62A2.069,2.069,0,0,1,43.75-5.46ZM43.48-1.2a1.3,1.3,0,0,0,.985-.405A1.51,1.51,0,0,0,44.85-2.69a1.51,1.51,0,0,0-.385-1.085,1.3,1.3,0,0,0-.985-.405,1.3,1.3,0,0,0-.985.405A1.51,1.51,0,0,0,42.11-2.69a1.51,1.51,0,0,0,.385,1.085A1.3,1.3,0,0,0,43.48-1.2Zm9.26-1.47q0,.03-.03.42H48.64a1.268,1.268,0,0,0,.52.79,1.722,1.722,0,0,0,1.02.29,2.065,2.065,0,0,0,.745-.125,1.8,1.8,0,0,0,.6-.395l.83.9a2.789,2.789,0,0,1-2.22.87,3.512,3.512,0,0,1-1.61-.355,2.6,2.6,0,0,1-1.08-.985,2.714,2.714,0,0,1-.38-1.43,2.749,2.749,0,0,1,.375-1.425,2.627,2.627,0,0,1,1.03-.99A3.024,3.024,0,0,1,49.94-5.46a3,3,0,0,1,1.43.34,2.482,2.482,0,0,1,1.005.975A2.907,2.907,0,0,1,52.74-2.67ZM49.95-4.28a1.343,1.343,0,0,0-.89.3,1.277,1.277,0,0,0-.44.82h2.65a1.29,1.29,0,0,0-.44-.815A1.315,1.315,0,0,0,49.95-4.28ZM56.38.08a3.308,3.308,0,0,1-1.545-.355,2.658,2.658,0,0,1-1.07-.985,2.687,2.687,0,0,1-.385-1.43,2.687,2.687,0,0,1,.385-1.43,2.658,2.658,0,0,1,1.07-.985A3.308,3.308,0,0,1,56.38-5.46a2.994,2.994,0,0,1,1.485.355A2.105,2.105,0,0,1,58.79-4.09l-1.21.65a1.323,1.323,0,0,0-1.21-.74,1.369,1.369,0,0,0-1.01.4,1.473,1.473,0,0,0-.4,1.09,1.473,1.473,0,0,0,.4,1.09,1.369,1.369,0,0,0,1.01.4,1.309,1.309,0,0,0,1.21-.74l1.21.66a2.148,2.148,0,0,1-.925,1A2.96,2.96,0,0,1,56.38.08Zm3.31-5.46h1.56V0H59.69Zm.78-.75a.989.989,0,0,1-.7-.25A.811.811,0,0,1,59.5-7a.811.811,0,0,1,.27-.62.989.989,0,0,1,.7-.25,1.014,1.014,0,0,1,.7.24.77.77,0,0,1,.27.6.849.849,0,0,1-.27.645A.978.978,0,0,1,60.47-6.13Zm3.94.87h1.38v1.2H64.45V0H62.89V-4.06h-.83v-1.2h.83V-5.5a1.963,1.963,0,0,1,.545-1.46A2.087,2.087,0,0,1,64.97-7.5a2.863,2.863,0,0,1,.665.075,1.616,1.616,0,0,1,.525.215l-.41,1.13a1.067,1.067,0,0,0-.63-.19q-.71,0-.71.78Zm2.96-.12h1.56V0H67.37Zm.78-.75a.989.989,0,0,1-.7-.25A.811.811,0,0,1,67.18-7a.811.811,0,0,1,.27-.62.989.989,0,0,1,.7-.25,1.014,1.014,0,0,1,.7.24.77.77,0,0,1,.27.6.849.849,0,0,1-.27.645A.978.978,0,0,1,68.15-6.13ZM72.98.08a3.308,3.308,0,0,1-1.545-.355,2.658,2.658,0,0,1-1.07-.985,2.687,2.687,0,0,1-.385-1.43,2.687,2.687,0,0,1,.385-1.43,2.658,2.658,0,0,1,1.07-.985A3.308,3.308,0,0,1,72.98-5.46a2.994,2.994,0,0,1,1.485.355A2.105,2.105,0,0,1,75.39-4.09l-1.21.65a1.323,1.323,0,0,0-1.21-.74,1.369,1.369,0,0,0-1.01.4,1.473,1.473,0,0,0-.4,1.09,1.473,1.473,0,0,0,.4,1.09,1.369,1.369,0,0,0,1.01.4,1.309,1.309,0,0,0,1.21-.74l1.21.66a2.148,2.148,0,0,1-.925,1A2.96,2.96,0,0,1,72.98.08Zm6.14-5.46h1.56V0H79.12Zm.78-.75a.989.989,0,0,1-.7-.25A.811.811,0,0,1,78.93-7a.811.811,0,0,1,.27-.62.989.989,0,0,1,.7-.25,1.014,1.014,0,0,1,.7.24.77.77,0,0,1,.27.6.849.849,0,0,1-.27.645A.978.978,0,0,1,79.9-6.13Zm5.5.67a2.214,2.214,0,0,1,1.615.6,2.379,2.379,0,0,1,.615,1.78V0H86.07V-2.84a1.4,1.4,0,0,0-.28-.955,1.027,1.027,0,0,0-.81-.315,1.241,1.241,0,0,0-.94.365,1.511,1.511,0,0,0-.35,1.085V0H82.13V-5.38h1.49v.63a2.069,2.069,0,0,1,.77-.525A2.683,2.683,0,0,1,85.4-5.46Zm7.11,5.2a1.6,1.6,0,0,1-.565.255A2.857,2.857,0,0,1,91.24.08a2.094,2.094,0,0,1-1.485-.49,1.875,1.875,0,0,1-.525-1.44V-4.06H88.4v-1.2h.83V-6.57h1.56v1.31h1.34v1.2H90.79v2.19a.734.734,0,0,0,.175.525.649.649,0,0,0,.5.185,1,1,0,0,0,.63-.2Zm5.98-2.41q0,.03-.03.42H94.39a1.268,1.268,0,0,0,.52.79,1.722,1.722,0,0,0,1.02.29,2.065,2.065,0,0,0,.745-.125,1.8,1.8,0,0,0,.6-.395l.83.9a2.789,2.789,0,0,1-2.22.87,3.512,3.512,0,0,1-1.61-.355A2.6,2.6,0,0,1,93.2-1.26a2.714,2.714,0,0,1-.38-1.43,2.749,2.749,0,0,1,.375-1.425,2.627,2.627,0,0,1,1.03-.99A3.024,3.024,0,0,1,95.69-5.46a3,3,0,0,1,1.43.34,2.482,2.482,0,0,1,1,.975A2.907,2.907,0,0,1,98.49-2.67ZM95.7-4.28a1.343,1.343,0,0,0-.89.3,1.277,1.277,0,0,0-.44.82h2.65a1.29,1.29,0,0,0-.44-.815A1.315,1.315,0,0,0,95.7-4.28Zm9.38-1.1V-.9a2.875,2.875,0,0,1-.77,2.2,3.179,3.179,0,0,1-2.25.72,5.627,5.627,0,0,1-1.48-.19,3.236,3.236,0,0,1-1.16-.55l.62-1.12a2.552,2.552,0,0,0,.86.445,3.422,3.422,0,0,0,1.04.165,1.687,1.687,0,0,0,1.195-.365,1.455,1.455,0,0,0,.385-1.1V-.93a2.183,2.183,0,0,1-1.7.67,2.855,2.855,0,0,1-1.355-.325A2.477,2.477,0,0,1,99.49-1.5a2.558,2.558,0,0,1-.36-1.36,2.558,2.558,0,0,1,.36-1.36,2.477,2.477,0,0,1,.975-.915,2.855,2.855,0,0,1,1.355-.325,2.135,2.135,0,0,1,1.78.77v-.69Zm-2.95,3.84a1.437,1.437,0,0,0,1.015-.365,1.24,1.24,0,0,0,.4-.955,1.24,1.24,0,0,0-.4-.955,1.437,1.437,0,0,0-1.015-.365,1.455,1.455,0,0,0-1.02.365,1.232,1.232,0,0,0-.4.955,1.232,1.232,0,0,0,.4.955A1.455,1.455,0,0,0,102.13-1.54Zm5.89-3.13a1.735,1.735,0,0,1,.755-.59,2.8,2.8,0,0,1,1.1-.2v1.44q-.26-.02-.35-.02a1.43,1.43,0,0,0-1.05.375,1.516,1.516,0,0,0-.38,1.125V0h-1.56V-5.38h1.49Zm4.92-.79a2.8,2.8,0,0,1,1.92.6,2.277,2.277,0,0,1,.67,1.795V0h-1.46V-.67a1.738,1.738,0,0,1-1.64.75,2.545,2.545,0,0,1-1.075-.21,1.6,1.6,0,0,1-.695-.58,1.51,1.51,0,0,1-.24-.84,1.4,1.4,0,0,1,.565-1.18,2.879,2.879,0,0,1,1.745-.43h1.24a.994.994,0,0,0-.31-.785,1.365,1.365,0,0,0-.93-.275,2.715,2.715,0,0,0-.845.135,2.236,2.236,0,0,0-.705.365l-.56-1.09a3.379,3.379,0,0,1,1.055-.48A4.726,4.726,0,0,1,112.94-5.46Zm-.12,4.49a1.359,1.359,0,0,0,.71-.185,1.012,1.012,0,0,0,.44-.545v-.55H112.9q-.96,0-.96.63a.561.561,0,0,0,.235.475A1.059,1.059,0,0,0,112.82-.97Zm7.59.71a1.6,1.6,0,0,1-.565.255,2.857,2.857,0,0,1-.705.085,2.094,2.094,0,0,1-1.485-.49,1.875,1.875,0,0,1-.525-1.44V-4.06h-.83v-1.2h.83V-6.57h1.56v1.31h1.34v1.2h-1.34v2.19a.734.734,0,0,0,.175.525.649.649,0,0,0,.5.185,1,1,0,0,0,.63-.2Zm.88-5.12h1.56V0h-1.56Zm.78-.75a.989.989,0,0,1-.7-.25A.811.811,0,0,1,121.1-7a.811.811,0,0,1,.27-.62.989.989,0,0,1,.7-.25,1.014,1.014,0,0,1,.7.24.77.77,0,0,1,.27.6.849.849,0,0,1-.27.645A.978.978,0,0,1,122.07-6.13ZM126.86.08a3.226,3.226,0,0,1-1.525-.355,2.639,2.639,0,0,1-1.055-.985,2.714,2.714,0,0,1-.38-1.43,2.714,2.714,0,0,1,.38-1.43,2.639,2.639,0,0,1,1.055-.985,3.226,3.226,0,0,1,1.525-.355,3.2,3.2,0,0,1,1.52.355,2.647,2.647,0,0,1,1.05.985,2.714,2.714,0,0,1,.38,1.43,2.714,2.714,0,0,1-.38,1.43,2.647,2.647,0,0,1-1.05.985A3.2,3.2,0,0,1,126.86.08Zm0-1.28a1.3,1.3,0,0,0,.985-.405,1.51,1.51,0,0,0,.385-1.085,1.51,1.51,0,0,0-.385-1.085,1.3,1.3,0,0,0-.985-.405,1.315,1.315,0,0,0-.99.405,1.5,1.5,0,0,0-.39,1.085,1.5,1.5,0,0,0,.39,1.085A1.315,1.315,0,0,0,126.86-1.2Zm7.26-4.26a2.214,2.214,0,0,1,1.615.6,2.379,2.379,0,0,1,.615,1.78V0h-1.56V-2.84a1.4,1.4,0,0,0-.28-.955,1.027,1.027,0,0,0-.81-.315,1.241,1.241,0,0,0-.94.365,1.511,1.511,0,0,0-.35,1.085V0h-1.56V-5.38h1.49v.63a2.069,2.069,0,0,1,.77-.525A2.683,2.683,0,0,1,134.12-5.46Z" transform="translate(789 329)" fill="#195f8c"/>
      <path id="Path_5132" data-name="Path 5132" d="M7.2,0,7.19-4.2,5.13-.74H4.4L2.35-4.11V0H.83V-7H2.17L4.79-2.65,7.37-7H8.7l.02,7Zm8.49-5.38V0H14.21V-.64a2.069,2.069,0,0,1-.74.535,2.328,2.328,0,0,1-.93.185,2.291,2.291,0,0,1-1.68-.61,2.432,2.432,0,0,1-.62-1.81V-5.38H11.8v2.81q0,1.3,1.09,1.3a1.172,1.172,0,0,0,.9-.365,1.54,1.54,0,0,0,.34-1.085V-5.38Zm1.45-2.04H18.7V0H17.14ZM24.01-.26a1.6,1.6,0,0,1-.565.255,2.857,2.857,0,0,1-.7.085,2.094,2.094,0,0,1-1.485-.49,1.875,1.875,0,0,1-.525-1.44V-4.06H19.9v-1.2h.83V-6.57h1.56v1.31h1.34v1.2H22.29v2.19a.734.734,0,0,0,.175.525.649.649,0,0,0,.495.185,1,1,0,0,0,.63-.2Zm.88-5.12h1.56V0H24.89Zm.78-.75a.989.989,0,0,1-.7-.25A.811.811,0,0,1,24.7-7a.811.811,0,0,1,.27-.62.989.989,0,0,1,.7-.25,1.014,1.014,0,0,1,.7.24.77.77,0,0,1,.27.6.849.849,0,0,1-.27.645A.978.978,0,0,1,25.67-6.13ZM27.7-3.44h2.83v1.25H27.7ZM35.26.12a4.021,4.021,0,0,1-1.935-.465,3.47,3.47,0,0,1-1.36-1.29,3.554,3.554,0,0,1-.5-1.865,3.554,3.554,0,0,1,.5-1.865,3.47,3.47,0,0,1,1.36-1.29A4.042,4.042,0,0,1,35.27-7.12a4.08,4.08,0,0,1,1.645.32,3.3,3.3,0,0,1,1.235.92l-1.04.96a2.236,2.236,0,0,0-1.76-.82,2.337,2.337,0,0,0-1.16.285,2.026,2.026,0,0,0-.795.8A2.337,2.337,0,0,0,33.11-3.5,2.337,2.337,0,0,0,33.4-2.34a2.026,2.026,0,0,0,.795.795,2.337,2.337,0,0,0,1.16.285,2.225,2.225,0,0,0,1.76-.83l1.04.96a3.242,3.242,0,0,1-1.24.93A4.116,4.116,0,0,1,35.26.12Zm3.87-7.54h1.56V0H39.13ZM44.7.08a3.226,3.226,0,0,1-1.525-.355A2.639,2.639,0,0,1,42.12-1.26a2.714,2.714,0,0,1-.38-1.43,2.714,2.714,0,0,1,.38-1.43,2.639,2.639,0,0,1,1.055-.985A3.226,3.226,0,0,1,44.7-5.46a3.2,3.2,0,0,1,1.52.355,2.647,2.647,0,0,1,1.05.985,2.714,2.714,0,0,1,.38,1.43,2.714,2.714,0,0,1-.38,1.43,2.647,2.647,0,0,1-1.05.985A3.2,3.2,0,0,1,44.7.08Zm0-1.28a1.3,1.3,0,0,0,.985-.405A1.51,1.51,0,0,0,46.07-2.69a1.51,1.51,0,0,0-.385-1.085A1.3,1.3,0,0,0,44.7-4.18a1.315,1.315,0,0,0-.99.405,1.5,1.5,0,0,0-.39,1.085,1.5,1.5,0,0,0,.39,1.085A1.315,1.315,0,0,0,44.7-1.2Zm9.41-4.18V0H52.63V-.64a2.069,2.069,0,0,1-.74.535,2.328,2.328,0,0,1-.93.185,2.291,2.291,0,0,1-1.68-.61,2.432,2.432,0,0,1-.62-1.81V-5.38h1.56v2.81q0,1.3,1.09,1.3a1.172,1.172,0,0,0,.9-.365,1.54,1.54,0,0,0,.34-1.085V-5.38Zm6.93-2.04V0H59.55V-.62a2.057,2.057,0,0,1-1.68.7,2.794,2.794,0,0,1-1.375-.34,2.434,2.434,0,0,1-.965-.97,2.957,2.957,0,0,1-.35-1.46,2.957,2.957,0,0,1,.35-1.46,2.434,2.434,0,0,1,.965-.97,2.794,2.794,0,0,1,1.375-.34,2.046,2.046,0,0,1,1.61.65V-7.42ZM58.14-1.2a1.3,1.3,0,0,0,.98-.405,1.5,1.5,0,0,0,.39-1.085,1.5,1.5,0,0,0-.39-1.085,1.3,1.3,0,0,0-.98-.405,1.315,1.315,0,0,0-.99.405,1.5,1.5,0,0,0-.39,1.085,1.5,1.5,0,0,0,.39,1.085A1.315,1.315,0,0,0,58.14-1.2Z" transform="translate(789 362)" fill="#195f8c"/>
      <path id="Path_5131" data-name="Path 5131" d="M5.29,0,3.94-1.95H2.45V0H.83V-7H3.86a3.889,3.889,0,0,1,1.615.31,2.4,2.4,0,0,1,1.055.88A2.424,2.424,0,0,1,6.9-4.46a2.376,2.376,0,0,1-.375,1.345A2.377,2.377,0,0,1,5.46-2.25L7.03,0ZM5.26-4.46a1.109,1.109,0,0,0-.38-.9A1.7,1.7,0,0,0,3.77-5.68H2.45v2.44H3.77a1.683,1.683,0,0,0,1.11-.32A1.112,1.112,0,0,0,5.26-4.46Zm8.23-.92V0H12.01V-.64a2.069,2.069,0,0,1-.74.535,2.328,2.328,0,0,1-.93.185A2.291,2.291,0,0,1,8.66-.53a2.432,2.432,0,0,1-.62-1.81V-5.38H9.6v2.81q0,1.3,1.09,1.3a1.172,1.172,0,0,0,.9-.365,1.54,1.54,0,0,0,.34-1.085V-5.38Zm4.72-.08a2.214,2.214,0,0,1,1.615.6,2.379,2.379,0,0,1,.615,1.78V0H18.88V-2.84A1.4,1.4,0,0,0,18.6-3.8a1.027,1.027,0,0,0-.81-.315,1.241,1.241,0,0,0-.94.365A1.511,1.511,0,0,0,16.5-2.66V0H14.94V-5.38h1.49v.63a2.069,2.069,0,0,1,.77-.525A2.683,2.683,0,0,1,18.21-5.46ZM28.14.12A4.021,4.021,0,0,1,26.2-.345a3.47,3.47,0,0,1-1.36-1.29,3.554,3.554,0,0,1-.5-1.865,3.554,3.554,0,0,1,.5-1.865,3.47,3.47,0,0,1,1.36-1.29A4.042,4.042,0,0,1,28.15-7.12a4.08,4.08,0,0,1,1.645.32,3.3,3.3,0,0,1,1.235.92l-1.04.96a2.236,2.236,0,0,0-1.76-.82,2.337,2.337,0,0,0-1.16.285,2.026,2.026,0,0,0-.8.8A2.337,2.337,0,0,0,25.99-3.5a2.337,2.337,0,0,0,.285,1.16,2.026,2.026,0,0,0,.8.795,2.337,2.337,0,0,0,1.16.285,2.225,2.225,0,0,0,1.76-.83l1.04.96a3.242,3.242,0,0,1-1.24.93A4.116,4.116,0,0,1,28.14.12ZM34.38.08a3.226,3.226,0,0,1-1.525-.355A2.639,2.639,0,0,1,31.8-1.26a2.714,2.714,0,0,1-.38-1.43,2.714,2.714,0,0,1,.38-1.43,2.639,2.639,0,0,1,1.055-.985A3.226,3.226,0,0,1,34.38-5.46a3.2,3.2,0,0,1,1.52.355,2.647,2.647,0,0,1,1.05.985,2.714,2.714,0,0,1,.38,1.43,2.714,2.714,0,0,1-.38,1.43,2.647,2.647,0,0,1-1.05.985A3.2,3.2,0,0,1,34.38.08Zm0-1.28a1.3,1.3,0,0,0,.985-.405A1.51,1.51,0,0,0,35.75-2.69a1.51,1.51,0,0,0-.385-1.085,1.3,1.3,0,0,0-.985-.405,1.315,1.315,0,0,0-.99.405A1.5,1.5,0,0,0,33-2.69a1.5,1.5,0,0,0,.39,1.085A1.315,1.315,0,0,0,34.38-1.2Zm7.26-4.26a2.214,2.214,0,0,1,1.615.6,2.379,2.379,0,0,1,.615,1.78V0H42.31V-2.84a1.4,1.4,0,0,0-.28-.955,1.027,1.027,0,0,0-.81-.315,1.241,1.241,0,0,0-.94.365,1.511,1.511,0,0,0-.35,1.085V0H38.37V-5.38h1.49v.63a2.069,2.069,0,0,1,.77-.525A2.683,2.683,0,0,1,41.64-5.46Zm7.11,5.2a1.6,1.6,0,0,1-.565.255,2.857,2.857,0,0,1-.7.085A2.094,2.094,0,0,1,46-.41a1.875,1.875,0,0,1-.525-1.44V-4.06h-.83v-1.2h.83V-6.57h1.56v1.31h1.34v1.2H47.03v2.19a.734.734,0,0,0,.175.525.649.649,0,0,0,.495.185,1,1,0,0,0,.63-.2Zm3.05-5.2a2.8,2.8,0,0,1,1.92.6,2.277,2.277,0,0,1,.67,1.795V0H52.93V-.67a1.738,1.738,0,0,1-1.64.75,2.545,2.545,0,0,1-1.075-.21,1.6,1.6,0,0,1-.695-.58,1.51,1.51,0,0,1-.24-.84,1.4,1.4,0,0,1,.565-1.18,2.879,2.879,0,0,1,1.745-.43h1.24a.994.994,0,0,0-.31-.785,1.365,1.365,0,0,0-.93-.275,2.715,2.715,0,0,0-.845.135,2.236,2.236,0,0,0-.7.365l-.56-1.09a3.379,3.379,0,0,1,1.055-.48A4.726,4.726,0,0,1,51.8-5.46ZM51.68-.97a1.359,1.359,0,0,0,.71-.185,1.012,1.012,0,0,0,.44-.545v-.55H51.76q-.96,0-.96.63a.561.561,0,0,0,.235.475A1.059,1.059,0,0,0,51.68-.97ZM55.8-5.38h1.56V0H55.8Zm.78-.75a.989.989,0,0,1-.7-.25A.811.811,0,0,1,55.61-7a.811.811,0,0,1,.27-.62.989.989,0,0,1,.7-.25,1.014,1.014,0,0,1,.7.24.77.77,0,0,1,.27.6.849.849,0,0,1-.27.645A.978.978,0,0,1,56.58-6.13Zm5.5.67a2.214,2.214,0,0,1,1.615.6,2.379,2.379,0,0,1,.615,1.78V0H62.75V-2.84a1.4,1.4,0,0,0-.28-.955,1.027,1.027,0,0,0-.81-.315,1.241,1.241,0,0,0-.94.365,1.511,1.511,0,0,0-.35,1.085V0H58.81V-5.38H60.3v.63a2.069,2.069,0,0,1,.77-.525A2.683,2.683,0,0,1,62.08-5.46Zm8.97,2.79q0,.03-.03.42H66.95a1.268,1.268,0,0,0,.52.79,1.722,1.722,0,0,0,1.02.29,2.065,2.065,0,0,0,.745-.125,1.8,1.8,0,0,0,.6-.395l.83.9a2.789,2.789,0,0,1-2.22.87,3.512,3.512,0,0,1-1.61-.355,2.6,2.6,0,0,1-1.08-.985,2.714,2.714,0,0,1-.38-1.43,2.749,2.749,0,0,1,.375-1.425,2.627,2.627,0,0,1,1.03-.99A3.024,3.024,0,0,1,68.25-5.46a3,3,0,0,1,1.43.34,2.482,2.482,0,0,1,1,.975A2.907,2.907,0,0,1,71.05-2.67ZM68.26-4.28a1.343,1.343,0,0,0-.89.3,1.277,1.277,0,0,0-.44.82h2.65a1.29,1.29,0,0,0-.44-.815A1.315,1.315,0,0,0,68.26-4.28Zm5.32-.39a1.735,1.735,0,0,1,.755-.59,2.8,2.8,0,0,1,1.1-.2v1.44q-.26-.02-.35-.02a1.43,1.43,0,0,0-1.05.375,1.516,1.516,0,0,0-.38,1.125V0H72.09V-5.38h1.49ZM78.19.08a5.226,5.226,0,0,1-1.31-.165A3.423,3.423,0,0,1,75.86-.5l.52-1.12a3.273,3.273,0,0,0,.87.375,3.646,3.646,0,0,0,1,.145q.99,0,.99-.49a.347.347,0,0,0-.27-.33,4,4,0,0,0-.83-.17,8.007,8.007,0,0,1-1.09-.23,1.691,1.691,0,0,1-.745-.46,1.308,1.308,0,0,1-.315-.94,1.473,1.473,0,0,1,.295-.9,1.9,1.9,0,0,1,.86-.615,3.673,3.673,0,0,1,1.335-.22,5.24,5.24,0,0,1,1.135.125,3.173,3.173,0,0,1,.935.345l-.52,1.11a3.1,3.1,0,0,0-1.55-.4,1.577,1.577,0,0,0-.75.14.412.412,0,0,0-.25.36.357.357,0,0,0,.27.35,4.78,4.78,0,0,0,.86.19,9.206,9.206,0,0,1,1.08.235,1.623,1.623,0,0,1,.73.455,1.291,1.291,0,0,1,.31.92,1.421,1.421,0,0,1-.3.89,1.915,1.915,0,0,1-.875.605A3.9,3.9,0,0,1,78.19.08Z" transform="translate(789 296)" fill="#195f8c"/>
      <path id="Path_5130" data-name="Path 5130" d="M4.18.12A4.021,4.021,0,0,1,2.245-.345a3.47,3.47,0,0,1-1.36-1.29A3.554,3.554,0,0,1,.39-3.5,3.554,3.554,0,0,1,.885-5.365a3.47,3.47,0,0,1,1.36-1.29A4.042,4.042,0,0,1,4.19-7.12a4.08,4.08,0,0,1,1.645.32,3.3,3.3,0,0,1,1.235.92l-1.04.96a2.236,2.236,0,0,0-1.76-.82,2.337,2.337,0,0,0-1.16.285,2.026,2.026,0,0,0-.795.8A2.337,2.337,0,0,0,2.03-3.5a2.337,2.337,0,0,0,.285,1.16,2.026,2.026,0,0,0,.795.795,2.337,2.337,0,0,0,1.16.285,2.225,2.225,0,0,0,1.76-.83l1.04.96A3.242,3.242,0,0,1,5.83-.2,4.116,4.116,0,0,1,4.18.12Zm8.95-2.79q0,.03-.03.42H9.03a1.268,1.268,0,0,0,.52.79,1.722,1.722,0,0,0,1.02.29,2.065,2.065,0,0,0,.745-.125,1.8,1.8,0,0,0,.605-.395l.83.9a2.789,2.789,0,0,1-2.22.87A3.512,3.512,0,0,1,8.92-.275,2.6,2.6,0,0,1,7.84-1.26a2.714,2.714,0,0,1-.38-1.43,2.749,2.749,0,0,1,.375-1.425,2.627,2.627,0,0,1,1.03-.99A3.024,3.024,0,0,1,10.33-5.46a3,3,0,0,1,1.43.34,2.482,2.482,0,0,1,1,.975A2.907,2.907,0,0,1,13.13-2.67ZM10.34-4.28a1.343,1.343,0,0,0-.89.3,1.277,1.277,0,0,0-.44.82h2.65a1.29,1.29,0,0,0-.44-.815A1.315,1.315,0,0,0,10.34-4.28Zm5.32-.39a1.735,1.735,0,0,1,.755-.59,2.8,2.8,0,0,1,1.1-.2v1.44q-.26-.02-.35-.02a1.43,1.43,0,0,0-1.05.375,1.516,1.516,0,0,0-.38,1.125V0H14.17V-5.38h1.49ZM22.1-.26a1.6,1.6,0,0,1-.565.255,2.857,2.857,0,0,1-.7.085,2.094,2.094,0,0,1-1.485-.49,1.875,1.875,0,0,1-.525-1.44V-4.06h-.83v-1.2h.83V-6.57h1.56v1.31h1.34v1.2H20.38v2.19a.734.734,0,0,0,.175.525.649.649,0,0,0,.495.185,1,1,0,0,0,.63-.2Zm.88-5.12h1.56V0H22.98Zm.78-.75a.989.989,0,0,1-.7-.25A.811.811,0,0,1,22.79-7a.811.811,0,0,1,.27-.62.989.989,0,0,1,.7-.25,1.014,1.014,0,0,1,.7.24.77.77,0,0,1,.27.6.849.849,0,0,1-.27.645A.978.978,0,0,1,23.76-6.13Zm3.94.87h1.38v1.2H27.74V0H26.18V-4.06h-.83v-1.2h.83V-5.5a1.963,1.963,0,0,1,.545-1.46A2.087,2.087,0,0,1,28.26-7.5a2.863,2.863,0,0,1,.665.075,1.616,1.616,0,0,1,.525.215l-.41,1.13a1.067,1.067,0,0,0-.63-.19q-.71,0-.71.78Zm2.96-.12h1.56V0H30.66Zm.78-.75a.989.989,0,0,1-.7-.25A.811.811,0,0,1,30.47-7a.811.811,0,0,1,.27-.62.989.989,0,0,1,.7-.25,1.014,1.014,0,0,1,.7.24.77.77,0,0,1,.27.6.849.849,0,0,1-.27.645A.978.978,0,0,1,31.44-6.13ZM36.27.08a3.308,3.308,0,0,1-1.545-.355,2.658,2.658,0,0,1-1.07-.985,2.687,2.687,0,0,1-.385-1.43,2.687,2.687,0,0,1,.385-1.43,2.658,2.658,0,0,1,1.07-.985A3.308,3.308,0,0,1,36.27-5.46a2.994,2.994,0,0,1,1.485.355A2.105,2.105,0,0,1,38.68-4.09l-1.21.65a1.323,1.323,0,0,0-1.21-.74,1.369,1.369,0,0,0-1.01.4,1.473,1.473,0,0,0-.4,1.09,1.473,1.473,0,0,0,.4,1.09,1.369,1.369,0,0,0,1.01.4,1.309,1.309,0,0,0,1.21-.74l1.21.66a2.148,2.148,0,0,1-.925,1A2.96,2.96,0,0,1,36.27.08Zm5.48-5.54a2.8,2.8,0,0,1,1.92.6,2.277,2.277,0,0,1,.67,1.795V0H42.88V-.67a1.738,1.738,0,0,1-1.64.75,2.545,2.545,0,0,1-1.075-.21,1.6,1.6,0,0,1-.695-.58,1.51,1.51,0,0,1-.24-.84A1.4,1.4,0,0,1,39.8-2.73a2.879,2.879,0,0,1,1.745-.43h1.24a.994.994,0,0,0-.31-.785,1.365,1.365,0,0,0-.93-.275,2.715,2.715,0,0,0-.845.135,2.236,2.236,0,0,0-.7.365l-.56-1.09a3.379,3.379,0,0,1,1.055-.48A4.726,4.726,0,0,1,41.75-5.46ZM41.63-.97a1.359,1.359,0,0,0,.71-.185,1.012,1.012,0,0,0,.44-.545v-.55H41.71q-.96,0-.96.63a.561.561,0,0,0,.235.475A1.059,1.059,0,0,0,41.63-.97Zm7.59.71a1.6,1.6,0,0,1-.565.255A2.857,2.857,0,0,1,47.95.08a2.094,2.094,0,0,1-1.485-.49,1.875,1.875,0,0,1-.525-1.44V-4.06h-.83v-1.2h.83V-6.57H47.5v1.31h1.34v1.2H47.5v2.19a.734.734,0,0,0,.175.525.649.649,0,0,0,.495.185,1,1,0,0,0,.63-.2ZM55.2-2.67q0,.03-.03.42H51.1a1.268,1.268,0,0,0,.52.79,1.722,1.722,0,0,0,1.02.29,2.065,2.065,0,0,0,.745-.125,1.8,1.8,0,0,0,.6-.395l.83.9A2.789,2.789,0,0,1,52.6.08a3.512,3.512,0,0,1-1.61-.355,2.6,2.6,0,0,1-1.08-.985,2.714,2.714,0,0,1-.38-1.43A2.749,2.749,0,0,1,49.9-4.115a2.627,2.627,0,0,1,1.03-.99A3.024,3.024,0,0,1,52.4-5.46a3,3,0,0,1,1.43.34,2.482,2.482,0,0,1,1.005.975A2.907,2.907,0,0,1,55.2-2.67ZM52.41-4.28a1.343,1.343,0,0,0-.89.3,1.277,1.277,0,0,0-.44.82h2.65a1.29,1.29,0,0,0-.44-.815A1.315,1.315,0,0,0,52.41-4.28ZM58.05.08a5.226,5.226,0,0,1-1.31-.165A3.423,3.423,0,0,1,55.72-.5l.52-1.12a3.273,3.273,0,0,0,.87.375,3.646,3.646,0,0,0,1,.145q.99,0,.99-.49a.347.347,0,0,0-.27-.33A4,4,0,0,0,58-2.09a8.007,8.007,0,0,1-1.09-.23,1.691,1.691,0,0,1-.745-.46,1.308,1.308,0,0,1-.315-.94,1.472,1.472,0,0,1,.295-.9,1.9,1.9,0,0,1,.86-.615,3.673,3.673,0,0,1,1.335-.22,5.239,5.239,0,0,1,1.135.125,3.173,3.173,0,0,1,.935.345l-.52,1.11a3.1,3.1,0,0,0-1.55-.4,1.577,1.577,0,0,0-.75.14.412.412,0,0,0-.25.36.357.357,0,0,0,.27.35,4.78,4.78,0,0,0,.86.19,9.206,9.206,0,0,1,1.08.235,1.622,1.622,0,0,1,.73.455,1.291,1.291,0,0,1,.31.92,1.421,1.421,0,0,1-.3.89,1.915,1.915,0,0,1-.875.605A3.9,3.9,0,0,1,58.05.08Zm8.5-5.54a2.8,2.8,0,0,1,1.92.6,2.277,2.277,0,0,1,.67,1.795V0H67.68V-.67a1.738,1.738,0,0,1-1.64.75,2.545,2.545,0,0,1-1.075-.21,1.6,1.6,0,0,1-.695-.58,1.51,1.51,0,0,1-.24-.84A1.4,1.4,0,0,1,64.6-2.73a2.879,2.879,0,0,1,1.745-.43h1.24a.994.994,0,0,0-.31-.785,1.365,1.365,0,0,0-.93-.275,2.715,2.715,0,0,0-.845.135,2.236,2.236,0,0,0-.705.365l-.56-1.09a3.379,3.379,0,0,1,1.055-.48A4.726,4.726,0,0,1,66.55-5.46ZM66.43-.97a1.359,1.359,0,0,0,.71-.185,1.012,1.012,0,0,0,.44-.545v-.55H66.51q-.96,0-.96.63a.561.561,0,0,0,.235.475A1.059,1.059,0,0,0,66.43-.97ZM72.36.08a5.226,5.226,0,0,1-1.31-.165A3.423,3.423,0,0,1,70.03-.5l.52-1.12a3.273,3.273,0,0,0,.87.375,3.646,3.646,0,0,0,1,.145q.99,0,.99-.49a.347.347,0,0,0-.27-.33,4,4,0,0,0-.83-.17,8.007,8.007,0,0,1-1.09-.23,1.691,1.691,0,0,1-.745-.46,1.308,1.308,0,0,1-.315-.94,1.473,1.473,0,0,1,.295-.9,1.9,1.9,0,0,1,.86-.615,3.673,3.673,0,0,1,1.335-.22,5.24,5.24,0,0,1,1.135.125,3.173,3.173,0,0,1,.935.345L74.2-3.88a3.1,3.1,0,0,0-1.55-.4,1.577,1.577,0,0,0-.75.14.412.412,0,0,0-.25.36.357.357,0,0,0,.27.35,4.78,4.78,0,0,0,.86.19,9.206,9.206,0,0,1,1.08.235,1.623,1.623,0,0,1,.73.455,1.291,1.291,0,0,1,.31.92,1.421,1.421,0,0,1-.3.89,1.915,1.915,0,0,1-.875.605A3.9,3.9,0,0,1,72.36.08Zm8.5-5.54a2.8,2.8,0,0,1,1.92.6,2.277,2.277,0,0,1,.67,1.795V0H81.99V-.67a1.738,1.738,0,0,1-1.64.75,2.545,2.545,0,0,1-1.075-.21,1.6,1.6,0,0,1-.695-.58,1.51,1.51,0,0,1-.24-.84A1.4,1.4,0,0,1,78.9-2.73a2.879,2.879,0,0,1,1.745-.43h1.24a.994.994,0,0,0-.31-.785,1.365,1.365,0,0,0-.93-.275,2.715,2.715,0,0,0-.845.135,2.236,2.236,0,0,0-.705.365l-.56-1.09A3.379,3.379,0,0,1,79.6-5.29,4.726,4.726,0,0,1,80.86-5.46ZM80.74-.97a1.359,1.359,0,0,0,.71-.185,1.012,1.012,0,0,0,.44-.545v-.55H80.82q-.96,0-.96.63a.561.561,0,0,0,.235.475A1.059,1.059,0,0,0,80.74-.97ZM90.1.12A5.727,5.727,0,0,1,88.5-.1,3.764,3.764,0,0,1,87.25-.69l.55-1.22a3.732,3.732,0,0,0,1.07.53,4.019,4.019,0,0,0,1.24.2,1.981,1.981,0,0,0,1.02-.2.619.619,0,0,0,.33-.545.521.521,0,0,0-.195-.415,1.478,1.478,0,0,0-.5-.265q-.3-.1-.825-.22a11.4,11.4,0,0,1-1.31-.38,2.128,2.128,0,0,1-.875-.61,1.647,1.647,0,0,1-.365-1.12,1.948,1.948,0,0,1,.33-1.105,2.22,2.22,0,0,1,1-.785,4.06,4.06,0,0,1,1.625-.29,5.381,5.381,0,0,1,1.31.16,3.87,3.87,0,0,1,1.12.46l-.5,1.23a3.9,3.9,0,0,0-1.94-.55,1.819,1.819,0,0,0-1,.22A.672.672,0,0,0,89-5.02a.567.567,0,0,0,.375.535,5.888,5.888,0,0,0,1.145.345,11.4,11.4,0,0,1,1.31.38,2.169,2.169,0,0,1,.875.6,1.609,1.609,0,0,1,.365,1.11,1.911,1.911,0,0,1-.335,1.095,2.251,2.251,0,0,1-1,.785A4.1,4.1,0,0,1,90.1.12Zm9.24-2.79q0,.03-.03.42H95.24a1.268,1.268,0,0,0,.52.79,1.722,1.722,0,0,0,1.02.29,2.065,2.065,0,0,0,.745-.125,1.8,1.8,0,0,0,.6-.395l.83.9a2.789,2.789,0,0,1-2.22.87,3.512,3.512,0,0,1-1.61-.355,2.6,2.6,0,0,1-1.08-.985,2.714,2.714,0,0,1-.38-1.43,2.749,2.749,0,0,1,.375-1.425,2.627,2.627,0,0,1,1.03-.99A3.024,3.024,0,0,1,96.54-5.46a3,3,0,0,1,1.43.34,2.482,2.482,0,0,1,1,.975A2.907,2.907,0,0,1,99.34-2.67ZM96.55-4.28a1.343,1.343,0,0,0-.89.3,1.277,1.277,0,0,0-.44.82h2.65a1.29,1.29,0,0,0-.44-.815A1.315,1.315,0,0,0,96.55-4.28Zm5.32-.39a1.735,1.735,0,0,1,.755-.59,2.8,2.8,0,0,1,1.1-.2v1.44q-.26-.02-.35-.02a1.43,1.43,0,0,0-1.05.375,1.516,1.516,0,0,0-.38,1.125V0h-1.56V-5.38h1.49Zm8.31-.71L107.91,0H106.3l-2.26-5.38h1.61l1.49,3.66,1.54-3.66Zm.64,0h1.56V0h-1.56Zm.78-.75a.989.989,0,0,1-.7-.25.811.811,0,0,1-.27-.62.811.811,0,0,1,.27-.62.989.989,0,0,1,.7-.25,1.014,1.014,0,0,1,.7.24.77.77,0,0,1,.27.6.849.849,0,0,1-.27.645A.978.978,0,0,1,111.6-6.13ZM116.43.08a3.308,3.308,0,0,1-1.545-.355,2.658,2.658,0,0,1-1.07-.985,2.687,2.687,0,0,1-.385-1.43,2.687,2.687,0,0,1,.385-1.43,2.658,2.658,0,0,1,1.07-.985,3.308,3.308,0,0,1,1.545-.355,2.994,2.994,0,0,1,1.485.355,2.105,2.105,0,0,1,.925,1.015l-1.21.65a1.323,1.323,0,0,0-1.21-.74,1.369,1.369,0,0,0-1.01.4,1.473,1.473,0,0,0-.4,1.09,1.473,1.473,0,0,0,.4,1.09,1.369,1.369,0,0,0,1.01.4,1.309,1.309,0,0,0,1.21-.74l1.21.66a2.148,2.148,0,0,1-.925,1A2.96,2.96,0,0,1,116.43.08Zm8.51-2.75q0,.03-.03.42h-4.07a1.268,1.268,0,0,0,.52.79,1.722,1.722,0,0,0,1.02.29,2.065,2.065,0,0,0,.745-.125,1.8,1.8,0,0,0,.6-.395l.83.9a2.789,2.789,0,0,1-2.22.87,3.512,3.512,0,0,1-1.61-.355,2.6,2.6,0,0,1-1.08-.985,2.714,2.714,0,0,1-.38-1.43,2.749,2.749,0,0,1,.375-1.425,2.627,2.627,0,0,1,1.03-.99,3.024,3.024,0,0,1,1.465-.355,3,3,0,0,1,1.43.34,2.482,2.482,0,0,1,1,.975A2.907,2.907,0,0,1,124.94-2.67Zm-2.79-1.61a1.343,1.343,0,0,0-.89.3,1.277,1.277,0,0,0-.44.82h2.65a1.29,1.29,0,0,0-.44-.815A1.315,1.315,0,0,0,122.15-4.28Z" transform="translate(789 396)" fill="#195f8c"/>
      <path id="Path_5129" data-name="Path 5129" d="M7.56-7,4.53,0H2.93L-.09-7H1.66L3.79-2,5.95-7Zm5.71,1.62V0H11.79V-.64a2.069,2.069,0,0,1-.74.535,2.328,2.328,0,0,1-.93.185A2.291,2.291,0,0,1,8.44-.53a2.432,2.432,0,0,1-.62-1.81V-5.38H9.38v2.81q0,1.3,1.09,1.3a1.172,1.172,0,0,0,.9-.365,1.54,1.54,0,0,0,.34-1.085V-5.38Zm1.45-2.04h1.56V0H14.72ZM21-5.46a2.214,2.214,0,0,1,1.615.6,2.379,2.379,0,0,1,.615,1.78V0H21.67V-2.84a1.4,1.4,0,0,0-.28-.955,1.027,1.027,0,0,0-.81-.315,1.241,1.241,0,0,0-.94.365,1.511,1.511,0,0,0-.35,1.085V0H17.73V-5.38h1.49v.63a2.069,2.069,0,0,1,.77-.525A2.683,2.683,0,0,1,21-5.46Zm8.97,2.79q0,.03-.03.42H25.87a1.268,1.268,0,0,0,.52.79,1.722,1.722,0,0,0,1.02.29,2.065,2.065,0,0,0,.745-.125,1.8,1.8,0,0,0,.6-.395l.83.9a2.789,2.789,0,0,1-2.22.87,3.512,3.512,0,0,1-1.61-.355,2.6,2.6,0,0,1-1.08-.985,2.714,2.714,0,0,1-.38-1.43,2.749,2.749,0,0,1,.375-1.425,2.627,2.627,0,0,1,1.03-.99A3.024,3.024,0,0,1,27.17-5.46a3,3,0,0,1,1.43.34,2.482,2.482,0,0,1,1.005.975A2.907,2.907,0,0,1,29.97-2.67ZM27.18-4.28a1.343,1.343,0,0,0-.89.3,1.277,1.277,0,0,0-.44.82H28.5a1.29,1.29,0,0,0-.44-.815A1.315,1.315,0,0,0,27.18-4.28Zm5.32-.39a1.735,1.735,0,0,1,.755-.59,2.8,2.8,0,0,1,1.1-.2v1.44q-.26-.02-.35-.02a1.43,1.43,0,0,0-1.05.375,1.516,1.516,0,0,0-.38,1.125V0H31.01V-5.38H32.5Zm4.92-.79a2.8,2.8,0,0,1,1.92.6,2.277,2.277,0,0,1,.67,1.795V0H38.55V-.67a1.738,1.738,0,0,1-1.64.75,2.545,2.545,0,0,1-1.075-.21,1.6,1.6,0,0,1-.695-.58,1.51,1.51,0,0,1-.24-.84,1.4,1.4,0,0,1,.565-1.18,2.879,2.879,0,0,1,1.745-.43h1.24a.994.994,0,0,0-.31-.785,1.365,1.365,0,0,0-.93-.275,2.715,2.715,0,0,0-.845.135,2.236,2.236,0,0,0-.7.365L35.1-4.81a3.379,3.379,0,0,1,1.055-.48A4.726,4.726,0,0,1,37.42-5.46ZM37.3-.97a1.359,1.359,0,0,0,.71-.185,1.012,1.012,0,0,0,.44-.545v-.55H37.38q-.96,0-.96.63a.561.561,0,0,0,.235.475A1.059,1.059,0,0,0,37.3-.97Zm7.3-4.49a2.742,2.742,0,0,1,1.365.345,2.477,2.477,0,0,1,.965.97,2.928,2.928,0,0,1,.35,1.455,2.928,2.928,0,0,1-.35,1.455,2.477,2.477,0,0,1-.965.97A2.742,2.742,0,0,1,44.6.08a2.069,2.069,0,0,1-1.69-.7V0H41.42V-7.42h1.56v2.61A2.078,2.078,0,0,1,44.6-5.46ZM44.33-1.2a1.3,1.3,0,0,0,.985-.405A1.51,1.51,0,0,0,45.7-2.69a1.51,1.51,0,0,0-.385-1.085,1.3,1.3,0,0,0-.985-.405,1.3,1.3,0,0,0-.985.405A1.51,1.51,0,0,0,42.96-2.69a1.51,1.51,0,0,0,.385,1.085A1.3,1.3,0,0,0,44.33-1.2Zm3.99-4.18h1.56V0H48.32Zm.78-.75a.989.989,0,0,1-.7-.25A.811.811,0,0,1,48.13-7a.811.811,0,0,1,.27-.62.989.989,0,0,1,.7-.25,1.014,1.014,0,0,1,.7.24.77.77,0,0,1,.27.6.849.849,0,0,1-.27.645A.978.978,0,0,1,49.1-6.13Zm2.23-1.29h1.56V0H51.33Zm3.01,2.04H55.9V0H54.34Zm.78-.75a.989.989,0,0,1-.7-.25A.811.811,0,0,1,54.15-7a.811.811,0,0,1,.27-.62.989.989,0,0,1,.7-.25,1.014,1.014,0,0,1,.7.24.77.77,0,0,1,.27.6.849.849,0,0,1-.27.645A.978.978,0,0,1,55.12-6.13Zm5.7,5.87a1.6,1.6,0,0,1-.565.255,2.857,2.857,0,0,1-.7.085,2.094,2.094,0,0,1-1.485-.49,1.875,1.875,0,0,1-.525-1.44V-4.06h-.83v-1.2h.83V-6.57H59.1v1.31h1.34v1.2H59.1v2.19a.734.734,0,0,0,.175.525.649.649,0,0,0,.495.185,1,1,0,0,0,.63-.2Zm6.12-5.12L64.51.33A2.81,2.81,0,0,1,63.6,1.64a2.241,2.241,0,0,1-1.315.38,2.731,2.731,0,0,1-.83-.13,1.833,1.833,0,0,1-.67-.36L61.35.42a1.339,1.339,0,0,0,.415.25,1.293,1.293,0,0,0,.465.09.825.825,0,0,0,.52-.155A1.316,1.316,0,0,0,63.11.09l.02-.05L60.8-5.38h1.61l1.51,3.65,1.52-3.65ZM72.22.08a5.226,5.226,0,0,1-1.31-.165A3.423,3.423,0,0,1,69.89-.5l.52-1.12a3.273,3.273,0,0,0,.87.375,3.646,3.646,0,0,0,1,.145q.99,0,.99-.49A.347.347,0,0,0,73-1.92a4,4,0,0,0-.83-.17,8.007,8.007,0,0,1-1.09-.23,1.691,1.691,0,0,1-.745-.46,1.308,1.308,0,0,1-.315-.94,1.473,1.473,0,0,1,.295-.9,1.9,1.9,0,0,1,.86-.615,3.673,3.673,0,0,1,1.335-.22,5.24,5.24,0,0,1,1.135.125,3.173,3.173,0,0,1,.935.345l-.52,1.11a3.1,3.1,0,0,0-1.55-.4,1.577,1.577,0,0,0-.75.14.412.412,0,0,0-.25.36.357.357,0,0,0,.27.35,4.78,4.78,0,0,0,.86.19,9.206,9.206,0,0,1,1.08.235,1.623,1.623,0,0,1,.73.455,1.291,1.291,0,0,1,.31.92,1.421,1.421,0,0,1-.3.89,1.915,1.915,0,0,1-.875.605A3.9,3.9,0,0,1,72.22.08Zm6.1,0a3.308,3.308,0,0,1-1.545-.355,2.658,2.658,0,0,1-1.07-.985,2.687,2.687,0,0,1-.385-1.43,2.687,2.687,0,0,1,.385-1.43,2.658,2.658,0,0,1,1.07-.985A3.308,3.308,0,0,1,78.32-5.46a2.994,2.994,0,0,1,1.485.355A2.105,2.105,0,0,1,80.73-4.09l-1.21.65a1.323,1.323,0,0,0-1.21-.74,1.369,1.369,0,0,0-1.01.4,1.473,1.473,0,0,0-.4,1.09,1.473,1.473,0,0,0,.4,1.09,1.369,1.369,0,0,0,1.01.4,1.309,1.309,0,0,0,1.21-.74l1.21.66a2.148,2.148,0,0,1-.925,1A2.96,2.96,0,0,1,78.32.08ZM83.8-5.46a2.8,2.8,0,0,1,1.92.6,2.277,2.277,0,0,1,.67,1.795V0H84.93V-.67a1.738,1.738,0,0,1-1.64.75,2.545,2.545,0,0,1-1.075-.21,1.6,1.6,0,0,1-.695-.58,1.51,1.51,0,0,1-.24-.84,1.4,1.4,0,0,1,.565-1.18,2.879,2.879,0,0,1,1.745-.43h1.24a.994.994,0,0,0-.31-.785,1.365,1.365,0,0,0-.93-.275,2.715,2.715,0,0,0-.845.135,2.236,2.236,0,0,0-.705.365l-.56-1.09a3.379,3.379,0,0,1,1.055-.48A4.726,4.726,0,0,1,83.8-5.46ZM83.68-.97a1.359,1.359,0,0,0,.71-.185,1.012,1.012,0,0,0,.44-.545v-.55H83.76q-.96,0-.96.63a.561.561,0,0,0,.235.475A1.059,1.059,0,0,0,83.68-.97Zm7.39-4.49a2.214,2.214,0,0,1,1.615.6A2.379,2.379,0,0,1,93.3-3.08V0H91.74V-2.84a1.4,1.4,0,0,0-.28-.955,1.027,1.027,0,0,0-.81-.315,1.241,1.241,0,0,0-.94.365,1.511,1.511,0,0,0-.35,1.085V0H87.8V-5.38h1.49v.63a2.069,2.069,0,0,1,.77-.525A2.683,2.683,0,0,1,91.07-5.46Zm6.91,0a2.214,2.214,0,0,1,1.615.6,2.379,2.379,0,0,1,.615,1.78V0H98.65V-2.84a1.4,1.4,0,0,0-.28-.955,1.027,1.027,0,0,0-.81-.315,1.241,1.241,0,0,0-.94.365,1.511,1.511,0,0,0-.35,1.085V0H94.71V-5.38H96.2v.63a2.069,2.069,0,0,1,.77-.525A2.683,2.683,0,0,1,97.98-5.46Zm3.64.08h1.56V0h-1.56Zm.78-.75a.989.989,0,0,1-.7-.25.811.811,0,0,1-.27-.62.811.811,0,0,1,.27-.62.989.989,0,0,1,.7-.25,1.014,1.014,0,0,1,.7.24.77.77,0,0,1,.27.6.849.849,0,0,1-.27.645A.978.978,0,0,1,102.4-6.13Zm5.5.67a2.214,2.214,0,0,1,1.615.6,2.379,2.379,0,0,1,.615,1.78V0h-1.56V-2.84a1.4,1.4,0,0,0-.28-.955,1.027,1.027,0,0,0-.81-.315,1.241,1.241,0,0,0-.94.365,1.511,1.511,0,0,0-.35,1.085V0h-1.56V-5.38h1.49v.63a2.069,2.069,0,0,1,.77-.525A2.683,2.683,0,0,1,107.9-5.46Zm9.25.08V-.9a2.875,2.875,0,0,1-.77,2.2,3.179,3.179,0,0,1-2.25.72,5.627,5.627,0,0,1-1.48-.19,3.236,3.236,0,0,1-1.16-.55l.62-1.12a2.551,2.551,0,0,0,.86.445,3.422,3.422,0,0,0,1.04.165A1.687,1.687,0,0,0,115.2.405a1.455,1.455,0,0,0,.385-1.1V-.93a2.183,2.183,0,0,1-1.7.67,2.855,2.855,0,0,1-1.355-.325,2.477,2.477,0,0,1-.975-.915,2.558,2.558,0,0,1-.36-1.36,2.558,2.558,0,0,1,.36-1.36,2.477,2.477,0,0,1,.975-.915,2.855,2.855,0,0,1,1.355-.325,2.135,2.135,0,0,1,1.78.77v-.69ZM114.2-1.54a1.437,1.437,0,0,0,1.015-.365,1.24,1.24,0,0,0,.4-.955,1.24,1.24,0,0,0-.4-.955A1.437,1.437,0,0,0,114.2-4.18a1.455,1.455,0,0,0-1.02.365,1.232,1.232,0,0,0-.4.955,1.232,1.232,0,0,0,.4.955A1.455,1.455,0,0,0,114.2-1.54Z" transform="translate(789 429)" fill="#195f8c"/>
      <path id="Path_5128" data-name="Path 5128" d="M3.13.12A5.727,5.727,0,0,1,1.525-.1,3.764,3.764,0,0,1,.28-.69L.83-1.91a3.732,3.732,0,0,0,1.07.53,4.019,4.019,0,0,0,1.24.2,1.981,1.981,0,0,0,1.02-.2.619.619,0,0,0,.33-.545A.521.521,0,0,0,4.3-2.345a1.478,1.478,0,0,0-.5-.265q-.305-.1-.825-.22a11.4,11.4,0,0,1-1.31-.38,2.128,2.128,0,0,1-.875-.61A1.647,1.647,0,0,1,.42-4.94,1.948,1.948,0,0,1,.75-6.045a2.22,2.22,0,0,1,1-.785A4.06,4.06,0,0,1,3.37-7.12a5.381,5.381,0,0,1,1.31.16A3.87,3.87,0,0,1,5.8-6.5L5.3-5.27a3.9,3.9,0,0,0-1.94-.55,1.819,1.819,0,0,0-1,.22.672.672,0,0,0-.325.58.567.567,0,0,0,.375.535A5.888,5.888,0,0,0,3.55-4.14a11.4,11.4,0,0,1,1.31.38,2.169,2.169,0,0,1,.875.6A1.609,1.609,0,0,1,6.1-2.05,1.911,1.911,0,0,1,5.765-.955a2.251,2.251,0,0,1-1,.785A4.1,4.1,0,0,1,3.13.12Zm9.24-2.79q0,.03-.03.42H8.27a1.268,1.268,0,0,0,.52.79,1.722,1.722,0,0,0,1.02.29,2.065,2.065,0,0,0,.745-.125,1.8,1.8,0,0,0,.6-.395l.83.9A2.789,2.789,0,0,1,9.77.08,3.512,3.512,0,0,1,8.16-.275,2.6,2.6,0,0,1,7.08-1.26,2.714,2.714,0,0,1,6.7-2.69a2.749,2.749,0,0,1,.375-1.425,2.627,2.627,0,0,1,1.03-.99A3.024,3.024,0,0,1,9.57-5.46,3,3,0,0,1,11-5.12a2.482,2.482,0,0,1,1.005.975A2.907,2.907,0,0,1,12.37-2.67ZM9.58-4.28a1.343,1.343,0,0,0-.89.3,1.277,1.277,0,0,0-.44.82H10.9a1.29,1.29,0,0,0-.44-.815A1.315,1.315,0,0,0,9.58-4.28ZM16.01.08a3.308,3.308,0,0,1-1.545-.355,2.658,2.658,0,0,1-1.07-.985,2.687,2.687,0,0,1-.385-1.43,2.687,2.687,0,0,1,.385-1.43,2.658,2.658,0,0,1,1.07-.985A3.308,3.308,0,0,1,16.01-5.46a2.994,2.994,0,0,1,1.485.355A2.105,2.105,0,0,1,18.42-4.09l-1.21.65A1.323,1.323,0,0,0,16-4.18a1.369,1.369,0,0,0-1.01.4,1.473,1.473,0,0,0-.4,1.09,1.473,1.473,0,0,0,.4,1.09A1.369,1.369,0,0,0,16-1.2a1.309,1.309,0,0,0,1.21-.74l1.21.66a2.148,2.148,0,0,1-.925,1A2.96,2.96,0,0,1,16.01.08Zm8.73-5.46V0H23.26V-.64a2.069,2.069,0,0,1-.74.535,2.328,2.328,0,0,1-.93.185,2.291,2.291,0,0,1-1.68-.61,2.432,2.432,0,0,1-.62-1.81V-5.38h1.56v2.81q0,1.3,1.09,1.3a1.172,1.172,0,0,0,.9-.365,1.54,1.54,0,0,0,.34-1.085V-5.38Zm2.94.71a1.735,1.735,0,0,1,.755-.59,2.8,2.8,0,0,1,1.095-.2v1.44q-.26-.02-.35-.02a1.43,1.43,0,0,0-1.05.375,1.516,1.516,0,0,0-.38,1.125V0H26.19V-5.38h1.49Zm2.78-.71h1.56V0H30.46Zm.78-.75a.989.989,0,0,1-.7-.25A.811.811,0,0,1,30.27-7a.811.811,0,0,1,.27-.62.989.989,0,0,1,.7-.25,1.014,1.014,0,0,1,.7.24.77.77,0,0,1,.27.6.849.849,0,0,1-.27.645A.978.978,0,0,1,31.24-6.13Zm5.7,5.87a1.6,1.6,0,0,1-.565.255A2.857,2.857,0,0,1,35.67.08a2.094,2.094,0,0,1-1.485-.49,1.875,1.875,0,0,1-.525-1.44V-4.06h-.83v-1.2h.83V-6.57h1.56v1.31h1.34v1.2H35.22v2.19a.734.734,0,0,0,.175.525.649.649,0,0,0,.495.185,1,1,0,0,0,.63-.2Zm6.12-5.12L40.63.33a2.81,2.81,0,0,1-.915,1.31,2.241,2.241,0,0,1-1.315.38,2.731,2.731,0,0,1-.83-.13,1.833,1.833,0,0,1-.67-.36L37.47.42a1.339,1.339,0,0,0,.415.25,1.293,1.293,0,0,0,.465.09.825.825,0,0,0,.52-.155A1.316,1.316,0,0,0,39.23.09l.02-.05L36.92-5.38h1.61l1.51,3.65,1.52-3.65Zm6.74-.08a2.214,2.214,0,0,1,1.615.6,2.379,2.379,0,0,1,.615,1.78V0H50.47V-2.84a1.4,1.4,0,0,0-.28-.955,1.027,1.027,0,0,0-.81-.315,1.241,1.241,0,0,0-.94.365,1.511,1.511,0,0,0-.35,1.085V0H46.53V-7.42h1.56v2.6a2.075,2.075,0,0,1,.75-.475A2.713,2.713,0,0,1,49.8-5.46Zm5.81,0a2.8,2.8,0,0,1,1.92.6A2.277,2.277,0,0,1,58.2-3.07V0H56.74V-.67A1.738,1.738,0,0,1,55.1.08a2.545,2.545,0,0,1-1.075-.21,1.6,1.6,0,0,1-.695-.58,1.51,1.51,0,0,1-.24-.84,1.4,1.4,0,0,1,.565-1.18A2.879,2.879,0,0,1,55.4-3.16h1.24a.994.994,0,0,0-.31-.785,1.365,1.365,0,0,0-.93-.275,2.715,2.715,0,0,0-.845.135,2.236,2.236,0,0,0-.7.365l-.56-1.09a3.379,3.379,0,0,1,1.055-.48A4.726,4.726,0,0,1,55.61-5.46ZM55.49-.97a1.359,1.359,0,0,0,.71-.185,1.012,1.012,0,0,0,.44-.545v-.55H55.57q-.96,0-.96.63a.561.561,0,0,0,.235.475A1.059,1.059,0,0,0,55.49-.97Zm5.61-3.7a1.735,1.735,0,0,1,.755-.59,2.8,2.8,0,0,1,1.1-.2v1.44q-.26-.02-.35-.02a1.43,1.43,0,0,0-1.05.375,1.516,1.516,0,0,0-.38,1.125V0H59.61V-5.38H61.1Zm8.21-2.75V0H67.82V-.62a2.057,2.057,0,0,1-1.68.7,2.794,2.794,0,0,1-1.375-.34,2.434,2.434,0,0,1-.965-.97,2.957,2.957,0,0,1-.35-1.46,2.957,2.957,0,0,1,.35-1.46,2.434,2.434,0,0,1,.965-.97,2.794,2.794,0,0,1,1.375-.34,2.046,2.046,0,0,1,1.61.65V-7.42ZM66.41-1.2a1.3,1.3,0,0,0,.98-.405,1.5,1.5,0,0,0,.39-1.085,1.5,1.5,0,0,0-.39-1.085,1.3,1.3,0,0,0-.98-.405,1.315,1.315,0,0,0-.99.405,1.5,1.5,0,0,0-.39,1.085,1.5,1.5,0,0,0,.39,1.085A1.315,1.315,0,0,0,66.41-1.2Zm9.61-1.47q0,.03-.03.42H71.92a1.268,1.268,0,0,0,.52.79,1.722,1.722,0,0,0,1.02.29,2.065,2.065,0,0,0,.745-.125,1.8,1.8,0,0,0,.6-.395l.83.9a2.789,2.789,0,0,1-2.22.87,3.512,3.512,0,0,1-1.61-.355,2.6,2.6,0,0,1-1.08-.985,2.714,2.714,0,0,1-.38-1.43,2.749,2.749,0,0,1,.375-1.425,2.627,2.627,0,0,1,1.03-.99A3.024,3.024,0,0,1,73.22-5.46a3,3,0,0,1,1.43.34,2.482,2.482,0,0,1,1,.975A2.907,2.907,0,0,1,76.02-2.67ZM73.23-4.28a1.343,1.343,0,0,0-.89.3,1.277,1.277,0,0,0-.44.82h2.65a1.29,1.29,0,0,0-.44-.815A1.315,1.315,0,0,0,73.23-4.28Zm7.1-1.18a2.214,2.214,0,0,1,1.615.6,2.379,2.379,0,0,1,.615,1.78V0H81V-2.84a1.4,1.4,0,0,0-.28-.955,1.027,1.027,0,0,0-.81-.315,1.241,1.241,0,0,0-.94.365,1.511,1.511,0,0,0-.35,1.085V0H77.06V-5.38h1.49v.63a2.069,2.069,0,0,1,.77-.525A2.683,2.683,0,0,1,80.33-5.46Zm3.64.08h1.56V0H83.97Zm.78-.75a.989.989,0,0,1-.7-.25A.811.811,0,0,1,83.78-7a.811.811,0,0,1,.27-.62.989.989,0,0,1,.7-.25,1.014,1.014,0,0,1,.7.24.77.77,0,0,1,.27.6.849.849,0,0,1-.27.645A.978.978,0,0,1,84.75-6.13Zm5.5.67a2.214,2.214,0,0,1,1.615.6,2.379,2.379,0,0,1,.615,1.78V0H90.92V-2.84a1.4,1.4,0,0,0-.28-.955,1.027,1.027,0,0,0-.81-.315,1.241,1.241,0,0,0-.94.365,1.511,1.511,0,0,0-.35,1.085V0H86.98V-5.38h1.49v.63a2.069,2.069,0,0,1,.77-.525A2.683,2.683,0,0,1,90.25-5.46Zm9.25.08V-.9a2.875,2.875,0,0,1-.77,2.2,3.179,3.179,0,0,1-2.25.72A5.627,5.627,0,0,1,95,1.83a3.236,3.236,0,0,1-1.16-.55L94.46.16a2.551,2.551,0,0,0,.86.445A3.422,3.422,0,0,0,96.36.77,1.687,1.687,0,0,0,97.555.405,1.455,1.455,0,0,0,97.94-.7V-.93a2.183,2.183,0,0,1-1.7.67,2.855,2.855,0,0,1-1.355-.325A2.477,2.477,0,0,1,93.91-1.5a2.558,2.558,0,0,1-.36-1.36,2.558,2.558,0,0,1,.36-1.36,2.477,2.477,0,0,1,.975-.915A2.855,2.855,0,0,1,96.24-5.46a2.135,2.135,0,0,1,1.78.77v-.69ZM96.55-1.54a1.437,1.437,0,0,0,1.015-.365,1.24,1.24,0,0,0,.4-.955,1.24,1.24,0,0,0-.4-.955A1.437,1.437,0,0,0,96.55-4.18a1.455,1.455,0,0,0-1.02.365,1.232,1.232,0,0,0-.4.955,1.232,1.232,0,0,0,.4.955A1.455,1.455,0,0,0,96.55-1.54Z" transform="translate(789 495)" fill="#195f8c"/>
      <path id="Path_5127" data-name="Path 5127" d="M.83-7H2.45V0H.83ZM7.27-5.46a2.214,2.214,0,0,1,1.615.6A2.379,2.379,0,0,1,9.5-3.08V0H7.94V-2.84A1.4,1.4,0,0,0,7.66-3.8a1.027,1.027,0,0,0-.81-.315,1.241,1.241,0,0,0-.94.365A1.511,1.511,0,0,0,5.56-2.66V0H4V-5.38H5.49v.63a2.069,2.069,0,0,1,.77-.525A2.683,2.683,0,0,1,7.27-5.46Zm7.11,5.2a1.6,1.6,0,0,1-.565.255,2.857,2.857,0,0,1-.7.085,2.094,2.094,0,0,1-1.485-.49A1.875,1.875,0,0,1,11.1-1.85V-4.06h-.83v-1.2h.83V-6.57h1.56v1.31H14v1.2H12.66v2.19a.734.734,0,0,0,.175.525.649.649,0,0,0,.5.185,1,1,0,0,0,.63-.2Zm2.37-4.41a1.735,1.735,0,0,1,.755-.59,2.8,2.8,0,0,1,1.1-.2v1.44q-.26-.02-.35-.02a1.43,1.43,0,0,0-1.05.375,1.516,1.516,0,0,0-.38,1.125V0H15.26V-5.38h1.49Zm8.24-.71V0H23.51V-.64a2.069,2.069,0,0,1-.74.535,2.328,2.328,0,0,1-.93.185,2.291,2.291,0,0,1-1.68-.61,2.432,2.432,0,0,1-.62-1.81V-5.38H21.1v2.81q0,1.3,1.09,1.3a1.172,1.172,0,0,0,.9-.365,1.54,1.54,0,0,0,.34-1.085V-5.38ZM28.25.08a5.226,5.226,0,0,1-1.31-.165A3.423,3.423,0,0,1,25.92-.5l.52-1.12a3.273,3.273,0,0,0,.87.375,3.646,3.646,0,0,0,1,.145q.99,0,.99-.49a.347.347,0,0,0-.27-.33,4,4,0,0,0-.83-.17,8.007,8.007,0,0,1-1.09-.23,1.691,1.691,0,0,1-.745-.46,1.308,1.308,0,0,1-.315-.94,1.472,1.472,0,0,1,.3-.9,1.9,1.9,0,0,1,.86-.615,3.673,3.673,0,0,1,1.335-.22,5.239,5.239,0,0,1,1.135.125,3.173,3.173,0,0,1,.935.345l-.52,1.11a3.1,3.1,0,0,0-1.55-.4,1.577,1.577,0,0,0-.75.14.412.412,0,0,0-.25.36.357.357,0,0,0,.27.35,4.78,4.78,0,0,0,.86.19,9.206,9.206,0,0,1,1.08.235,1.622,1.622,0,0,1,.73.455,1.291,1.291,0,0,1,.31.92,1.421,1.421,0,0,1-.3.89,1.915,1.915,0,0,1-.875.605A3.9,3.9,0,0,1,28.25.08Zm3.5-5.46h1.56V0H31.75Zm.78-.75a.989.989,0,0,1-.7-.25A.811.811,0,0,1,31.56-7a.811.811,0,0,1,.27-.62.989.989,0,0,1,.7-.25,1.014,1.014,0,0,1,.7.24.77.77,0,0,1,.27.6.849.849,0,0,1-.27.645A.978.978,0,0,1,32.53-6.13ZM37.32.08A3.226,3.226,0,0,1,35.8-.275,2.639,2.639,0,0,1,34.74-1.26a2.714,2.714,0,0,1-.38-1.43,2.714,2.714,0,0,1,.38-1.43A2.639,2.639,0,0,1,35.8-5.105,3.226,3.226,0,0,1,37.32-5.46a3.2,3.2,0,0,1,1.52.355,2.647,2.647,0,0,1,1.05.985,2.714,2.714,0,0,1,.38,1.43,2.714,2.714,0,0,1-.38,1.43,2.647,2.647,0,0,1-1.05.985A3.2,3.2,0,0,1,37.32.08Zm0-1.28a1.3,1.3,0,0,0,.985-.405A1.51,1.51,0,0,0,38.69-2.69a1.51,1.51,0,0,0-.385-1.085,1.3,1.3,0,0,0-.985-.405,1.315,1.315,0,0,0-.99.405,1.5,1.5,0,0,0-.39,1.085,1.5,1.5,0,0,0,.39,1.085A1.315,1.315,0,0,0,37.32-1.2Zm7.26-4.26a2.214,2.214,0,0,1,1.615.6,2.379,2.379,0,0,1,.615,1.78V0H45.25V-2.84a1.4,1.4,0,0,0-.28-.955,1.027,1.027,0,0,0-.81-.315,1.241,1.241,0,0,0-.94.365,1.511,1.511,0,0,0-.35,1.085V0H41.31V-5.38H42.8v.63a2.069,2.069,0,0,1,.77-.525A2.683,2.683,0,0,1,44.58-5.46ZM56.53-7.42V0H55.04V-.62a2.057,2.057,0,0,1-1.68.7,2.794,2.794,0,0,1-1.375-.34,2.434,2.434,0,0,1-.965-.97,2.957,2.957,0,0,1-.35-1.46,2.957,2.957,0,0,1,.35-1.46,2.434,2.434,0,0,1,.965-.97,2.794,2.794,0,0,1,1.375-.34,2.046,2.046,0,0,1,1.61.65V-7.42ZM53.63-1.2a1.3,1.3,0,0,0,.98-.405A1.5,1.5,0,0,0,55-2.69a1.5,1.5,0,0,0-.39-1.085,1.3,1.3,0,0,0-.98-.405,1.315,1.315,0,0,0-.99.405,1.5,1.5,0,0,0-.39,1.085,1.5,1.5,0,0,0,.39,1.085A1.315,1.315,0,0,0,53.63-1.2Zm9.61-1.47q0,.03-.03.42H59.14a1.268,1.268,0,0,0,.52.79,1.722,1.722,0,0,0,1.02.29,2.065,2.065,0,0,0,.745-.125,1.8,1.8,0,0,0,.6-.395l.83.9a2.789,2.789,0,0,1-2.22.87,3.512,3.512,0,0,1-1.61-.355,2.6,2.6,0,0,1-1.08-.985,2.714,2.714,0,0,1-.38-1.43,2.749,2.749,0,0,1,.375-1.425,2.627,2.627,0,0,1,1.03-.99A3.024,3.024,0,0,1,60.44-5.46a3,3,0,0,1,1.43.34,2.482,2.482,0,0,1,1.005.975A2.907,2.907,0,0,1,63.24-2.67ZM60.45-4.28a1.343,1.343,0,0,0-.89.3,1.277,1.277,0,0,0-.44.82h2.65a1.29,1.29,0,0,0-.44-.815A1.315,1.315,0,0,0,60.45-4.28Zm7.3,4.02a1.6,1.6,0,0,1-.565.255,2.857,2.857,0,0,1-.7.085A2.094,2.094,0,0,1,65-.41a1.875,1.875,0,0,1-.525-1.44V-4.06h-.83v-1.2h.83V-6.57h1.56v1.31h1.34v1.2H66.03v2.19a.734.734,0,0,0,.175.525.649.649,0,0,0,.5.185,1,1,0,0,0,.63-.2Zm5.98-2.41q0,.03-.03.42H69.63a1.268,1.268,0,0,0,.52.79,1.722,1.722,0,0,0,1.02.29,2.065,2.065,0,0,0,.745-.125,1.8,1.8,0,0,0,.6-.395l.83.9a2.789,2.789,0,0,1-2.22.87,3.512,3.512,0,0,1-1.61-.355,2.6,2.6,0,0,1-1.08-.985,2.714,2.714,0,0,1-.38-1.43,2.749,2.749,0,0,1,.375-1.425,2.627,2.627,0,0,1,1.03-.99A3.024,3.024,0,0,1,70.93-5.46a3,3,0,0,1,1.43.34,2.482,2.482,0,0,1,1,.975A2.907,2.907,0,0,1,73.73-2.67ZM70.94-4.28a1.343,1.343,0,0,0-.89.3,1.277,1.277,0,0,0-.44.82h2.65a1.29,1.29,0,0,0-.44-.815A1.315,1.315,0,0,0,70.94-4.28ZM77.37.08a3.308,3.308,0,0,1-1.545-.355,2.658,2.658,0,0,1-1.07-.985,2.687,2.687,0,0,1-.385-1.43,2.687,2.687,0,0,1,.385-1.43,2.658,2.658,0,0,1,1.07-.985A3.308,3.308,0,0,1,77.37-5.46a2.994,2.994,0,0,1,1.485.355A2.105,2.105,0,0,1,79.78-4.09l-1.21.65a1.323,1.323,0,0,0-1.21-.74,1.369,1.369,0,0,0-1.01.4,1.473,1.473,0,0,0-.4,1.09,1.473,1.473,0,0,0,.4,1.09,1.369,1.369,0,0,0,1.01.4,1.309,1.309,0,0,0,1.21-.74l1.21.66a2.148,2.148,0,0,1-.925,1A2.96,2.96,0,0,1,77.37.08Zm6.86-.34a1.6,1.6,0,0,1-.565.255A2.857,2.857,0,0,1,82.96.08a2.094,2.094,0,0,1-1.485-.49,1.875,1.875,0,0,1-.525-1.44V-4.06h-.83v-1.2h.83V-6.57h1.56v1.31h1.34v1.2H82.51v2.19a.734.734,0,0,0,.175.525.649.649,0,0,0,.5.185,1,1,0,0,0,.63-.2Zm.88-5.12h1.56V0H85.11Zm.78-.75a.989.989,0,0,1-.7-.25A.811.811,0,0,1,84.92-7a.811.811,0,0,1,.27-.62.989.989,0,0,1,.7-.25,1.014,1.014,0,0,1,.7.24.77.77,0,0,1,.27.6.849.849,0,0,1-.27.645A.978.978,0,0,1,85.89-6.13ZM90.68.08a3.226,3.226,0,0,1-1.525-.355A2.639,2.639,0,0,1,88.1-1.26a2.714,2.714,0,0,1-.38-1.43,2.714,2.714,0,0,1,.38-1.43,2.639,2.639,0,0,1,1.055-.985A3.226,3.226,0,0,1,90.68-5.46a3.2,3.2,0,0,1,1.52.355,2.647,2.647,0,0,1,1.05.985,2.714,2.714,0,0,1,.38,1.43,2.714,2.714,0,0,1-.38,1.43,2.647,2.647,0,0,1-1.05.985A3.2,3.2,0,0,1,90.68.08Zm0-1.28a1.3,1.3,0,0,0,.985-.405A1.51,1.51,0,0,0,92.05-2.69a1.51,1.51,0,0,0-.385-1.085,1.3,1.3,0,0,0-.985-.405,1.315,1.315,0,0,0-.99.405A1.5,1.5,0,0,0,89.3-2.69a1.5,1.5,0,0,0,.39,1.085A1.315,1.315,0,0,0,90.68-1.2Zm7.26-4.26a2.214,2.214,0,0,1,1.615.6,2.379,2.379,0,0,1,.615,1.78V0H98.61V-2.84a1.4,1.4,0,0,0-.28-.955,1.027,1.027,0,0,0-.81-.315,1.241,1.241,0,0,0-.94.365,1.511,1.511,0,0,0-.35,1.085V0H94.67V-5.38h1.49v.63a2.069,2.069,0,0,1,.77-.525A2.683,2.683,0,0,1,97.94-5.46Z" transform="translate(789 462)" fill="#195f8c"/>
      <path id="Path_5126" data-name="Path 5126" d="M7.2,0,7.19-4.2,5.13-.74H4.4L2.35-4.11V0H.83V-7H2.17L4.79-2.65,7.37-7H8.7l.02,7Zm5.63.08a3.226,3.226,0,0,1-1.525-.355A2.639,2.639,0,0,1,10.25-1.26a2.714,2.714,0,0,1-.38-1.43,2.714,2.714,0,0,1,.38-1.43,2.639,2.639,0,0,1,1.055-.985A3.226,3.226,0,0,1,12.83-5.46a3.2,3.2,0,0,1,1.52.355,2.647,2.647,0,0,1,1.05.985,2.714,2.714,0,0,1,.38,1.43,2.714,2.714,0,0,1-.38,1.43,2.647,2.647,0,0,1-1.05.985A3.2,3.2,0,0,1,12.83.08Zm0-1.28a1.3,1.3,0,0,0,.985-.405A1.51,1.51,0,0,0,14.2-2.69a1.51,1.51,0,0,0-.385-1.085,1.3,1.3,0,0,0-.985-.405,1.315,1.315,0,0,0-.99.405,1.5,1.5,0,0,0-.39,1.085,1.5,1.5,0,0,0,.39,1.085A1.315,1.315,0,0,0,12.83-1.2Zm7.26-4.26a2.214,2.214,0,0,1,1.615.6,2.379,2.379,0,0,1,.615,1.78V0H20.76V-2.84a1.4,1.4,0,0,0-.28-.955,1.027,1.027,0,0,0-.81-.315,1.241,1.241,0,0,0-.94.365,1.511,1.511,0,0,0-.35,1.085V0H16.82V-5.38h1.49v.63a2.069,2.069,0,0,1,.77-.525A2.683,2.683,0,0,1,20.09-5.46Zm3.64.08h1.56V0H23.73Zm.78-.75a.989.989,0,0,1-.7-.25A.811.811,0,0,1,23.54-7a.811.811,0,0,1,.27-.62.989.989,0,0,1,.7-.25,1.014,1.014,0,0,1,.7.24.77.77,0,0,1,.27.6.849.849,0,0,1-.27.645A.978.978,0,0,1,24.51-6.13Zm5.7,5.87a1.6,1.6,0,0,1-.565.255,2.857,2.857,0,0,1-.7.085,2.094,2.094,0,0,1-1.485-.49,1.875,1.875,0,0,1-.525-1.44V-4.06H26.1v-1.2h.83V-6.57h1.56v1.31h1.34v1.2H28.49v2.19a.734.734,0,0,0,.175.525.649.649,0,0,0,.495.185,1,1,0,0,0,.63-.2Zm3.27.34a3.226,3.226,0,0,1-1.525-.355A2.639,2.639,0,0,1,30.9-1.26a2.714,2.714,0,0,1-.38-1.43,2.714,2.714,0,0,1,.38-1.43,2.639,2.639,0,0,1,1.055-.985A3.226,3.226,0,0,1,33.48-5.46,3.2,3.2,0,0,1,35-5.105a2.647,2.647,0,0,1,1.05.985,2.714,2.714,0,0,1,.38,1.43,2.714,2.714,0,0,1-.38,1.43A2.647,2.647,0,0,1,35-.275,3.2,3.2,0,0,1,33.48.08Zm0-1.28a1.3,1.3,0,0,0,.985-.405A1.51,1.51,0,0,0,34.85-2.69a1.51,1.51,0,0,0-.385-1.085,1.3,1.3,0,0,0-.985-.405,1.315,1.315,0,0,0-.99.405A1.5,1.5,0,0,0,32.1-2.69a1.5,1.5,0,0,0,.39,1.085A1.315,1.315,0,0,0,33.48-1.2Zm5.48-3.47a1.735,1.735,0,0,1,.755-.59,2.8,2.8,0,0,1,1.1-.2v1.44q-.26-.02-.35-.02a1.43,1.43,0,0,0-1.05.375,1.516,1.516,0,0,0-.38,1.125V0H37.47V-5.38h1.49Zm2.78-.71H43.3V0H41.74Zm.78-.75a.989.989,0,0,1-.7-.25A.811.811,0,0,1,41.55-7a.811.811,0,0,1,.27-.62.989.989,0,0,1,.7-.25,1.014,1.014,0,0,1,.7.24.77.77,0,0,1,.27.6.849.849,0,0,1-.27.645A.978.978,0,0,1,42.52-6.13Zm5.5.67a2.214,2.214,0,0,1,1.615.6,2.379,2.379,0,0,1,.615,1.78V0H48.69V-2.84a1.4,1.4,0,0,0-.28-.955,1.027,1.027,0,0,0-.81-.315,1.241,1.241,0,0,0-.94.365,1.511,1.511,0,0,0-.35,1.085V0H44.75V-5.38h1.49v.63a2.069,2.069,0,0,1,.77-.525A2.683,2.683,0,0,1,48.02-5.46Zm9.25.08V-.9a2.875,2.875,0,0,1-.77,2.2,3.179,3.179,0,0,1-2.25.72,5.627,5.627,0,0,1-1.48-.19,3.236,3.236,0,0,1-1.16-.55L52.23.16a2.552,2.552,0,0,0,.86.445A3.422,3.422,0,0,0,54.13.77,1.687,1.687,0,0,0,55.325.405,1.455,1.455,0,0,0,55.71-.7V-.93a2.183,2.183,0,0,1-1.7.67,2.855,2.855,0,0,1-1.355-.325A2.477,2.477,0,0,1,51.68-1.5a2.558,2.558,0,0,1-.36-1.36,2.558,2.558,0,0,1,.36-1.36,2.477,2.477,0,0,1,.975-.915A2.855,2.855,0,0,1,54.01-5.46a2.135,2.135,0,0,1,1.78.77v-.69ZM54.32-1.54a1.437,1.437,0,0,0,1.015-.365,1.24,1.24,0,0,0,.4-.955,1.24,1.24,0,0,0-.4-.955A1.437,1.437,0,0,0,54.32-4.18a1.455,1.455,0,0,0-1.02.365,1.232,1.232,0,0,0-.4.955,1.232,1.232,0,0,0,.4.955A1.455,1.455,0,0,0,54.32-1.54ZM67.04.12,66.2-.66a3.7,3.7,0,0,1-2.34.78,3.648,3.648,0,0,1-1.37-.245,2.242,2.242,0,0,1-.955-.685,1.563,1.563,0,0,1-.345-.99,1.878,1.878,0,0,1,.365-1.145A3.621,3.621,0,0,1,62.73-3.89a2.893,2.893,0,0,1-.55-.745,1.683,1.683,0,0,1-.17-.735,1.542,1.542,0,0,1,.27-.9,1.751,1.751,0,0,1,.765-.605A2.852,2.852,0,0,1,64.19-7.09a2.287,2.287,0,0,1,1.46.435A1.419,1.419,0,0,1,66.2-5.48a1.526,1.526,0,0,1-.325.96,3.283,3.283,0,0,1-1.045.81l1.28,1.19a4.546,4.546,0,0,0,.35-1.09l1.25.39a4.572,4.572,0,0,1-.64,1.59l.82.76ZM64.19-6.03a.812.812,0,0,0-.555.18.585.585,0,0,0-.205.46.76.76,0,0,0,.11.395,2.73,2.73,0,0,0,.43.495,2.793,2.793,0,0,0,.71-.485.672.672,0,0,0,.2-.465.535.535,0,0,0-.18-.42A.742.742,0,0,0,64.19-6.03ZM63.97-1.1a2.215,2.215,0,0,0,1.31-.41L63.59-3.09a2.269,2.269,0,0,0-.67.53.942.942,0,0,0-.2.59.738.738,0,0,0,.34.63A1.549,1.549,0,0,0,63.97-1.1ZM71.77-7h1.62v5.68H76.9V0H71.77ZM80.22.08a3.226,3.226,0,0,1-1.525-.355A2.639,2.639,0,0,1,77.64-1.26a2.714,2.714,0,0,1-.38-1.43,2.714,2.714,0,0,1,.38-1.43,2.639,2.639,0,0,1,1.055-.985A3.226,3.226,0,0,1,80.22-5.46a3.2,3.2,0,0,1,1.52.355,2.647,2.647,0,0,1,1.05.985,2.714,2.714,0,0,1,.38,1.43,2.714,2.714,0,0,1-.38,1.43,2.647,2.647,0,0,1-1.05.985A3.2,3.2,0,0,1,80.22.08Zm0-1.28a1.3,1.3,0,0,0,.985-.405A1.51,1.51,0,0,0,81.59-2.69a1.51,1.51,0,0,0-.385-1.085,1.3,1.3,0,0,0-.985-.405,1.315,1.315,0,0,0-.99.405,1.5,1.5,0,0,0-.39,1.085,1.5,1.5,0,0,0,.39,1.085A1.315,1.315,0,0,0,80.22-1.2Zm9.54-4.18V-.9a2.875,2.875,0,0,1-.77,2.2,3.179,3.179,0,0,1-2.25.72,5.627,5.627,0,0,1-1.48-.19,3.236,3.236,0,0,1-1.16-.55L84.72.16a2.551,2.551,0,0,0,.86.445A3.422,3.422,0,0,0,86.62.77,1.687,1.687,0,0,0,87.815.405,1.455,1.455,0,0,0,88.2-.7V-.93a2.183,2.183,0,0,1-1.7.67,2.855,2.855,0,0,1-1.355-.325A2.477,2.477,0,0,1,84.17-1.5a2.558,2.558,0,0,1-.36-1.36,2.558,2.558,0,0,1,.36-1.36,2.477,2.477,0,0,1,.975-.915A2.855,2.855,0,0,1,86.5-5.46a2.135,2.135,0,0,1,1.78.77v-.69ZM86.81-1.54a1.437,1.437,0,0,0,1.015-.365,1.24,1.24,0,0,0,.4-.955,1.24,1.24,0,0,0-.4-.955A1.437,1.437,0,0,0,86.81-4.18a1.455,1.455,0,0,0-1.02.365,1.232,1.232,0,0,0-.4.955,1.232,1.232,0,0,0,.4.955A1.455,1.455,0,0,0,86.81-1.54Zm9.95-3.84V-.9a2.875,2.875,0,0,1-.77,2.2,3.179,3.179,0,0,1-2.25.72,5.627,5.627,0,0,1-1.48-.19,3.236,3.236,0,0,1-1.16-.55L91.72.16a2.551,2.551,0,0,0,.86.445A3.422,3.422,0,0,0,93.62.77,1.687,1.687,0,0,0,94.815.405,1.455,1.455,0,0,0,95.2-.7V-.93a2.183,2.183,0,0,1-1.7.67,2.855,2.855,0,0,1-1.355-.325A2.477,2.477,0,0,1,91.17-1.5a2.558,2.558,0,0,1-.36-1.36,2.558,2.558,0,0,1,.36-1.36,2.477,2.477,0,0,1,.975-.915A2.855,2.855,0,0,1,93.5-5.46a2.135,2.135,0,0,1,1.78.77v-.69ZM93.81-1.54a1.437,1.437,0,0,0,1.015-.365,1.24,1.24,0,0,0,.4-.955,1.24,1.24,0,0,0-.4-.955A1.437,1.437,0,0,0,93.81-4.18a1.455,1.455,0,0,0-1.02.365,1.232,1.232,0,0,0-.4.955,1.232,1.232,0,0,0,.4.955A1.455,1.455,0,0,0,93.81-1.54Zm4.4-3.84h1.56V0H98.21Zm.78-.75a.989.989,0,0,1-.7-.25A.811.811,0,0,1,98.02-7a.811.811,0,0,1,.27-.62.989.989,0,0,1,.7-.25,1.014,1.014,0,0,1,.7.24.77.77,0,0,1,.27.6.849.849,0,0,1-.27.645A.978.978,0,0,1,98.99-6.13Zm5.5.67a2.214,2.214,0,0,1,1.615.6,2.379,2.379,0,0,1,.615,1.78V0h-1.56V-2.84a1.4,1.4,0,0,0-.28-.955,1.027,1.027,0,0,0-.81-.315,1.241,1.241,0,0,0-.94.365,1.511,1.511,0,0,0-.35,1.085V0h-1.56V-5.38h1.49v.63a2.069,2.069,0,0,1,.77-.525A2.683,2.683,0,0,1,104.49-5.46Zm9.25.08V-.9a2.875,2.875,0,0,1-.77,2.2,3.179,3.179,0,0,1-2.25.72,5.627,5.627,0,0,1-1.48-.19,3.236,3.236,0,0,1-1.16-.55L108.7.16a2.552,2.552,0,0,0,.86.445A3.422,3.422,0,0,0,110.6.77a1.687,1.687,0,0,0,1.195-.365,1.455,1.455,0,0,0,.385-1.1V-.93a2.183,2.183,0,0,1-1.7.67,2.855,2.855,0,0,1-1.355-.325,2.477,2.477,0,0,1-.975-.915,2.558,2.558,0,0,1-.36-1.36,2.558,2.558,0,0,1,.36-1.36,2.477,2.477,0,0,1,.975-.915,2.855,2.855,0,0,1,1.355-.325,2.135,2.135,0,0,1,1.78.77v-.69Zm-2.95,3.84a1.437,1.437,0,0,0,1.015-.365,1.24,1.24,0,0,0,.4-.955,1.24,1.24,0,0,0-.4-.955,1.437,1.437,0,0,0-1.015-.365,1.455,1.455,0,0,0-1.02.365,1.232,1.232,0,0,0-.4.955,1.232,1.232,0,0,0,.4.955A1.455,1.455,0,0,0,110.79-1.54ZM119.83.08a5.226,5.226,0,0,1-1.31-.165A3.423,3.423,0,0,1,117.5-.5l.52-1.12a3.273,3.273,0,0,0,.87.375,3.646,3.646,0,0,0,1,.145q.99,0,.99-.49a.347.347,0,0,0-.27-.33,4,4,0,0,0-.83-.17,8.007,8.007,0,0,1-1.09-.23,1.691,1.691,0,0,1-.745-.46,1.308,1.308,0,0,1-.315-.94,1.473,1.473,0,0,1,.295-.9,1.9,1.9,0,0,1,.86-.615,3.673,3.673,0,0,1,1.335-.22,5.24,5.24,0,0,1,1.135.125,3.173,3.173,0,0,1,.935.345l-.52,1.11a3.1,3.1,0,0,0-1.55-.4,1.577,1.577,0,0,0-.75.14.412.412,0,0,0-.25.36.357.357,0,0,0,.27.35,4.78,4.78,0,0,0,.86.19,9.206,9.206,0,0,1,1.08.235,1.623,1.623,0,0,1,.73.455,1.291,1.291,0,0,1,.31.92,1.421,1.421,0,0,1-.3.89,1.915,1.915,0,0,1-.875.605A3.9,3.9,0,0,1,119.83.08Zm6.97-.34a1.6,1.6,0,0,1-.565.255,2.857,2.857,0,0,1-.705.085,2.094,2.094,0,0,1-1.485-.49,1.875,1.875,0,0,1-.525-1.44V-4.06h-.83v-1.2h.83V-6.57h1.56v1.31h1.34v1.2h-1.34v2.19a.734.734,0,0,0,.175.525.649.649,0,0,0,.5.185,1,1,0,0,0,.63-.2Zm3.05-5.2a2.8,2.8,0,0,1,1.92.6,2.277,2.277,0,0,1,.67,1.795V0h-1.46V-.67a1.738,1.738,0,0,1-1.64.75,2.545,2.545,0,0,1-1.075-.21,1.6,1.6,0,0,1-.695-.58,1.51,1.51,0,0,1-.24-.84,1.4,1.4,0,0,1,.565-1.18,2.879,2.879,0,0,1,1.745-.43h1.24a.994.994,0,0,0-.31-.785,1.365,1.365,0,0,0-.93-.275,2.715,2.715,0,0,0-.845.135,2.236,2.236,0,0,0-.705.365l-.56-1.09a3.379,3.379,0,0,1,1.055-.48A4.726,4.726,0,0,1,129.85-5.46Zm-.12,4.49a1.359,1.359,0,0,0,.71-.185,1.012,1.012,0,0,0,.44-.545v-.55h-1.07q-.96,0-.96.63a.561.561,0,0,0,.235.475A1.059,1.059,0,0,0,129.73-.97ZM136.51.08a3.308,3.308,0,0,1-1.545-.355,2.658,2.658,0,0,1-1.07-.985,2.687,2.687,0,0,1-.385-1.43,2.687,2.687,0,0,1,.385-1.43,2.658,2.658,0,0,1,1.07-.985,3.308,3.308,0,0,1,1.545-.355,2.993,2.993,0,0,1,1.485.355,2.105,2.105,0,0,1,.925,1.015l-1.21.65a1.323,1.323,0,0,0-1.21-.74,1.369,1.369,0,0,0-1.01.4,1.473,1.473,0,0,0-.4,1.09,1.473,1.473,0,0,0,.4,1.09,1.369,1.369,0,0,0,1.01.4,1.309,1.309,0,0,0,1.21-.74l1.21.66a2.148,2.148,0,0,1-.925,1A2.96,2.96,0,0,1,136.51.08Zm5.58-2.19-.75.74V0h-1.56V-7.42h1.56v4.2l2.28-2.16h1.86L143.24-3.1,145.68,0h-1.89Z" transform="translate(789 528)" fill="#195f8c"/>
      <path id="Path_5125" data-name="Path 5125" d="M4.18.12A4.021,4.021,0,0,1,2.245-.345a3.47,3.47,0,0,1-1.36-1.29A3.554,3.554,0,0,1,.39-3.5,3.554,3.554,0,0,1,.885-5.365a3.47,3.47,0,0,1,1.36-1.29A4.042,4.042,0,0,1,4.19-7.12a4.08,4.08,0,0,1,1.645.32,3.3,3.3,0,0,1,1.235.92l-1.04.96a2.236,2.236,0,0,0-1.76-.82,2.337,2.337,0,0,0-1.16.285,2.026,2.026,0,0,0-.795.8A2.337,2.337,0,0,0,2.03-3.5a2.337,2.337,0,0,0,.285,1.16,2.026,2.026,0,0,0,.795.795,2.337,2.337,0,0,0,1.16.285,2.225,2.225,0,0,0,1.76-.83l1.04.96A3.242,3.242,0,0,1,5.83-.2,4.116,4.116,0,0,1,4.18.12ZM8.16-7H9.78V0H8.16ZM13.74.12a5.727,5.727,0,0,1-1.6-.225A3.764,3.764,0,0,1,10.89-.69l.55-1.22a3.732,3.732,0,0,0,1.07.53,4.019,4.019,0,0,0,1.24.2,1.981,1.981,0,0,0,1.02-.2.619.619,0,0,0,.33-.545.521.521,0,0,0-.195-.415,1.478,1.478,0,0,0-.5-.265q-.305-.1-.825-.22a11.4,11.4,0,0,1-1.31-.38,2.128,2.128,0,0,1-.875-.61,1.647,1.647,0,0,1-.365-1.12,1.948,1.948,0,0,1,.33-1.105,2.22,2.22,0,0,1,.995-.785,4.06,4.06,0,0,1,1.625-.29,5.381,5.381,0,0,1,1.31.16,3.87,3.87,0,0,1,1.12.46l-.5,1.23a3.9,3.9,0,0,0-1.94-.55,1.819,1.819,0,0,0-1,.22.672.672,0,0,0-.325.58.567.567,0,0,0,.375.535,5.888,5.888,0,0,0,1.145.345,11.4,11.4,0,0,1,1.31.38,2.169,2.169,0,0,1,.875.6,1.609,1.609,0,0,1,.365,1.11,1.911,1.911,0,0,1-.335,1.095A2.251,2.251,0,0,1,15.37-.17,4.1,4.1,0,0,1,13.74.12Zm7.47,0a4.086,4.086,0,0,1-1.965-.47,3.488,3.488,0,0,1-1.37-1.295,3.535,3.535,0,0,1-.5-1.855,3.535,3.535,0,0,1,.5-1.855,3.488,3.488,0,0,1,1.37-1.3,4.086,4.086,0,0,1,1.965-.47,4.057,4.057,0,0,1,1.96.47,3.533,3.533,0,0,1,1.37,1.3,3.508,3.508,0,0,1,.5,1.855,3.508,3.508,0,0,1-.5,1.855A3.533,3.533,0,0,1,23.17-.35,4.057,4.057,0,0,1,21.21.12Zm0-1.38a2.221,2.221,0,0,0,1.12-.285,2.045,2.045,0,0,0,.785-.795A2.337,2.337,0,0,0,23.4-3.5a2.337,2.337,0,0,0-.285-1.16,2.045,2.045,0,0,0-.785-.8,2.221,2.221,0,0,0-1.12-.285,2.221,2.221,0,0,0-1.12.285,2.045,2.045,0,0,0-.785.8A2.337,2.337,0,0,0,19.02-3.5a2.337,2.337,0,0,0,.285,1.16,2.045,2.045,0,0,0,.785.795A2.221,2.221,0,0,0,21.21-1.26ZM34.46-7.42V0H32.97V-.62a2.057,2.057,0,0,1-1.68.7,2.794,2.794,0,0,1-1.375-.34,2.434,2.434,0,0,1-.965-.97,2.957,2.957,0,0,1-.35-1.46,2.957,2.957,0,0,1,.35-1.46,2.434,2.434,0,0,1,.965-.97,2.794,2.794,0,0,1,1.375-.34,2.046,2.046,0,0,1,1.61.65V-7.42ZM31.56-1.2a1.3,1.3,0,0,0,.98-.405,1.5,1.5,0,0,0,.39-1.085,1.5,1.5,0,0,0-.39-1.085,1.3,1.3,0,0,0-.98-.405,1.315,1.315,0,0,0-.99.405,1.5,1.5,0,0,0-.39,1.085,1.5,1.5,0,0,0,.39,1.085A1.315,1.315,0,0,0,31.56-1.2Zm6.51-4.26a2.8,2.8,0,0,1,1.92.6,2.277,2.277,0,0,1,.67,1.795V0H39.2V-.67a1.738,1.738,0,0,1-1.64.75,2.545,2.545,0,0,1-1.075-.21,1.6,1.6,0,0,1-.695-.58,1.51,1.51,0,0,1-.24-.84,1.4,1.4,0,0,1,.565-1.18,2.879,2.879,0,0,1,1.745-.43H39.1a.994.994,0,0,0-.31-.785,1.365,1.365,0,0,0-.93-.275,2.715,2.715,0,0,0-.845.135,2.236,2.236,0,0,0-.7.365l-.56-1.09a3.379,3.379,0,0,1,1.055-.48A4.726,4.726,0,0,1,38.07-5.46ZM37.95-.97a1.359,1.359,0,0,0,.71-.185A1.012,1.012,0,0,0,39.1-1.7v-.55H38.03q-.96,0-.96.63a.561.561,0,0,0,.235.475A1.059,1.059,0,0,0,37.95-.97ZM43.88.08a5.226,5.226,0,0,1-1.31-.165A3.423,3.423,0,0,1,41.55-.5l.52-1.12a3.273,3.273,0,0,0,.87.375,3.646,3.646,0,0,0,1,.145q.99,0,.99-.49a.347.347,0,0,0-.27-.33,4,4,0,0,0-.83-.17,8.007,8.007,0,0,1-1.09-.23,1.691,1.691,0,0,1-.745-.46,1.308,1.308,0,0,1-.315-.94,1.472,1.472,0,0,1,.295-.9,1.9,1.9,0,0,1,.86-.615,3.673,3.673,0,0,1,1.335-.22,5.239,5.239,0,0,1,1.135.125,3.173,3.173,0,0,1,.935.345l-.52,1.11a3.1,3.1,0,0,0-1.55-.4,1.577,1.577,0,0,0-.75.14.412.412,0,0,0-.25.36.357.357,0,0,0,.27.35,4.78,4.78,0,0,0,.86.19,9.206,9.206,0,0,1,1.08.235,1.622,1.622,0,0,1,.73.455,1.291,1.291,0,0,1,.31.92,1.421,1.421,0,0,1-.3.89,1.915,1.915,0,0,1-.875.605A3.9,3.9,0,0,1,43.88.08Zm6.77-5.54a2.214,2.214,0,0,1,1.615.6,2.379,2.379,0,0,1,.615,1.78V0H51.32V-2.84a1.4,1.4,0,0,0-.28-.955,1.027,1.027,0,0,0-.81-.315,1.241,1.241,0,0,0-.94.365,1.511,1.511,0,0,0-.35,1.085V0H47.38V-7.42h1.56v2.6a2.075,2.075,0,0,1,.75-.475A2.713,2.713,0,0,1,50.65-5.46Zm6.82,0a2.742,2.742,0,0,1,1.365.345,2.477,2.477,0,0,1,.965.97,2.928,2.928,0,0,1,.35,1.455,2.928,2.928,0,0,1-.35,1.455,2.477,2.477,0,0,1-.965.97A2.742,2.742,0,0,1,57.47.08a2.069,2.069,0,0,1-1.69-.7V0H54.29V-7.42h1.56v2.61A2.078,2.078,0,0,1,57.47-5.46ZM57.2-1.2a1.3,1.3,0,0,0,.985-.405A1.51,1.51,0,0,0,58.57-2.69a1.51,1.51,0,0,0-.385-1.085A1.3,1.3,0,0,0,57.2-4.18a1.3,1.3,0,0,0-.985.405A1.51,1.51,0,0,0,55.83-2.69a1.51,1.51,0,0,0,.385,1.085A1.3,1.3,0,0,0,57.2-1.2ZM63.75.08a3.226,3.226,0,0,1-1.525-.355A2.639,2.639,0,0,1,61.17-1.26a2.714,2.714,0,0,1-.38-1.43,2.714,2.714,0,0,1,.38-1.43,2.639,2.639,0,0,1,1.055-.985A3.226,3.226,0,0,1,63.75-5.46a3.2,3.2,0,0,1,1.52.355,2.647,2.647,0,0,1,1.05.985,2.714,2.714,0,0,1,.38,1.43,2.714,2.714,0,0,1-.38,1.43,2.647,2.647,0,0,1-1.05.985A3.2,3.2,0,0,1,63.75.08Zm0-1.28a1.3,1.3,0,0,0,.985-.405A1.51,1.51,0,0,0,65.12-2.69a1.51,1.51,0,0,0-.385-1.085,1.3,1.3,0,0,0-.985-.405,1.315,1.315,0,0,0-.99.405,1.5,1.5,0,0,0-.39,1.085,1.5,1.5,0,0,0,.39,1.085A1.315,1.315,0,0,0,63.75-1.2Zm6.07-4.26a2.8,2.8,0,0,1,1.92.6,2.277,2.277,0,0,1,.67,1.795V0H70.95V-.67a1.738,1.738,0,0,1-1.64.75,2.545,2.545,0,0,1-1.075-.21,1.6,1.6,0,0,1-.695-.58,1.51,1.51,0,0,1-.24-.84,1.4,1.4,0,0,1,.565-1.18,2.879,2.879,0,0,1,1.745-.43h1.24a.994.994,0,0,0-.31-.785,1.365,1.365,0,0,0-.93-.275,2.715,2.715,0,0,0-.845.135,2.236,2.236,0,0,0-.705.365L67.5-4.81a3.379,3.379,0,0,1,1.055-.48A4.726,4.726,0,0,1,69.82-5.46ZM69.7-.97a1.359,1.359,0,0,0,.71-.185,1.012,1.012,0,0,0,.44-.545v-.55H69.78q-.96,0-.96.63a.561.561,0,0,0,.235.475A1.059,1.059,0,0,0,69.7-.97Zm5.61-3.7a1.735,1.735,0,0,1,.755-.59,2.8,2.8,0,0,1,1.1-.2v1.44q-.26-.02-.35-.02a1.43,1.43,0,0,0-1.05.375,1.516,1.516,0,0,0-.38,1.125V0H73.82V-5.38h1.49Zm8.21-2.75V0H82.03V-.62a2.057,2.057,0,0,1-1.68.7,2.794,2.794,0,0,1-1.375-.34,2.434,2.434,0,0,1-.965-.97,2.957,2.957,0,0,1-.35-1.46,2.957,2.957,0,0,1,.35-1.46,2.434,2.434,0,0,1,.965-.97,2.794,2.794,0,0,1,1.375-.34,2.046,2.046,0,0,1,1.61.65V-7.42ZM80.62-1.2a1.3,1.3,0,0,0,.98-.405,1.5,1.5,0,0,0,.39-1.085,1.5,1.5,0,0,0-.39-1.085,1.3,1.3,0,0,0-.98-.405,1.315,1.315,0,0,0-.99.405,1.5,1.5,0,0,0-.39,1.085,1.5,1.5,0,0,0,.39,1.085A1.315,1.315,0,0,0,80.62-1.2ZM86.77.08a5.226,5.226,0,0,1-1.31-.165A3.423,3.423,0,0,1,84.44-.5l.52-1.12a3.273,3.273,0,0,0,.87.375,3.646,3.646,0,0,0,1,.145q.99,0,.99-.49a.347.347,0,0,0-.27-.33,4,4,0,0,0-.83-.17,8.007,8.007,0,0,1-1.09-.23,1.691,1.691,0,0,1-.745-.46,1.308,1.308,0,0,1-.315-.94,1.473,1.473,0,0,1,.295-.9,1.9,1.9,0,0,1,.86-.615,3.673,3.673,0,0,1,1.335-.22,5.24,5.24,0,0,1,1.135.125,3.173,3.173,0,0,1,.935.345l-.52,1.11a3.1,3.1,0,0,0-1.55-.4,1.577,1.577,0,0,0-.75.14.412.412,0,0,0-.25.36.357.357,0,0,0,.27.35,4.78,4.78,0,0,0,.86.19,9.206,9.206,0,0,1,1.08.235A1.623,1.623,0,0,1,89-2.55a1.291,1.291,0,0,1,.31.92,1.421,1.421,0,0,1-.3.89,1.915,1.915,0,0,1-.875.605A3.9,3.9,0,0,1,86.77.08Z" transform="translate(789 562)" fill="#195f8c"/>
      <path id="Path_5124" data-name="Path 5124" d="M5.44-1.5H2.19L1.57,0H-.09L3.03-7h1.6L7.76,0H6.06ZM4.93-2.73,3.82-5.41,2.71-2.73ZM13.7-5.38V0H12.22V-.64a2.069,2.069,0,0,1-.74.535,2.328,2.328,0,0,1-.93.185A2.291,2.291,0,0,1,8.87-.53a2.432,2.432,0,0,1-.62-1.81V-5.38H9.81v2.81q0,1.3,1.09,1.3a1.172,1.172,0,0,0,.9-.365,1.54,1.54,0,0,0,.34-1.085V-5.38ZM18.62-.26a1.6,1.6,0,0,1-.565.255,2.857,2.857,0,0,1-.7.085,2.094,2.094,0,0,1-1.485-.49,1.875,1.875,0,0,1-.525-1.44V-4.06h-.83v-1.2h.83V-6.57H16.9v1.31h1.34v1.2H16.9v2.19a.734.734,0,0,0,.175.525.649.649,0,0,0,.495.185,1,1,0,0,0,.63-.2Zm3.27.34a3.226,3.226,0,0,1-1.525-.355A2.639,2.639,0,0,1,19.31-1.26a2.714,2.714,0,0,1-.38-1.43,2.714,2.714,0,0,1,.38-1.43,2.639,2.639,0,0,1,1.055-.985A3.226,3.226,0,0,1,21.89-5.46a3.2,3.2,0,0,1,1.52.355,2.647,2.647,0,0,1,1.05.985,2.714,2.714,0,0,1,.38,1.43,2.714,2.714,0,0,1-.38,1.43,2.647,2.647,0,0,1-1.05.985A3.2,3.2,0,0,1,21.89.08Zm0-1.28a1.3,1.3,0,0,0,.985-.405A1.51,1.51,0,0,0,23.26-2.69a1.51,1.51,0,0,0-.385-1.085,1.3,1.3,0,0,0-.985-.405,1.315,1.315,0,0,0-.99.405,1.5,1.5,0,0,0-.39,1.085,1.5,1.5,0,0,0,.39,1.085A1.315,1.315,0,0,0,21.89-1.2ZM32.77-5.46a2.169,2.169,0,0,1,1.6.6,2.424,2.424,0,0,1,.6,1.785V0H33.41V-2.84a1.458,1.458,0,0,0-.265-.955.932.932,0,0,0-.755-.315,1.113,1.113,0,0,0-.87.355A1.53,1.53,0,0,0,31.2-2.7V0H29.64V-2.84q0-1.27-1.02-1.27a1.1,1.1,0,0,0-.86.355A1.53,1.53,0,0,0,27.44-2.7V0H25.88V-5.38h1.49v.62a1.969,1.969,0,0,1,.735-.52,2.474,2.474,0,0,1,.955-.18,2.313,2.313,0,0,1,1.03.225,1.824,1.824,0,0,1,.74.655,2.207,2.207,0,0,1,.835-.65A2.634,2.634,0,0,1,32.77-5.46Zm5.77,0a2.8,2.8,0,0,1,1.92.6,2.277,2.277,0,0,1,.67,1.795V0H39.67V-.67a1.738,1.738,0,0,1-1.64.75,2.545,2.545,0,0,1-1.075-.21,1.6,1.6,0,0,1-.695-.58,1.51,1.51,0,0,1-.24-.84,1.4,1.4,0,0,1,.565-1.18,2.879,2.879,0,0,1,1.745-.43h1.24a.994.994,0,0,0-.31-.785,1.365,1.365,0,0,0-.93-.275,2.715,2.715,0,0,0-.845.135,2.236,2.236,0,0,0-.7.365l-.56-1.09a3.379,3.379,0,0,1,1.055-.48A4.726,4.726,0,0,1,38.54-5.46ZM38.42-.97a1.359,1.359,0,0,0,.71-.185,1.012,1.012,0,0,0,.44-.545v-.55H38.5q-.96,0-.96.63a.561.561,0,0,0,.235.475A1.059,1.059,0,0,0,38.42-.97Zm7.59.71a1.6,1.6,0,0,1-.565.255A2.857,2.857,0,0,1,44.74.08a2.094,2.094,0,0,1-1.485-.49,1.875,1.875,0,0,1-.525-1.44V-4.06H41.9v-1.2h.83V-6.57h1.56v1.31h1.34v1.2H44.29v2.19a.734.734,0,0,0,.175.525.649.649,0,0,0,.495.185,1,1,0,0,0,.63-.2Zm5.98-2.41q0,.03-.03.42H47.89a1.268,1.268,0,0,0,.52.79,1.722,1.722,0,0,0,1.02.29,2.065,2.065,0,0,0,.745-.125,1.8,1.8,0,0,0,.6-.395l.83.9a2.789,2.789,0,0,1-2.22.87,3.512,3.512,0,0,1-1.61-.355A2.6,2.6,0,0,1,46.7-1.26a2.714,2.714,0,0,1-.38-1.43,2.749,2.749,0,0,1,.375-1.425,2.627,2.627,0,0,1,1.03-.99A3.024,3.024,0,0,1,49.19-5.46a3,3,0,0,1,1.43.34,2.482,2.482,0,0,1,1.005.975A2.907,2.907,0,0,1,51.99-2.67ZM49.2-4.28a1.343,1.343,0,0,0-.89.3,1.277,1.277,0,0,0-.44.82h2.65a1.29,1.29,0,0,0-.44-.815A1.315,1.315,0,0,0,49.2-4.28Zm9.31-3.14V0H57.02V-.62a2.057,2.057,0,0,1-1.68.7,2.794,2.794,0,0,1-1.375-.34A2.434,2.434,0,0,1,53-1.23a2.957,2.957,0,0,1-.35-1.46A2.957,2.957,0,0,1,53-4.15a2.434,2.434,0,0,1,.965-.97,2.794,2.794,0,0,1,1.375-.34,2.046,2.046,0,0,1,1.61.65V-7.42ZM55.61-1.2a1.3,1.3,0,0,0,.98-.405,1.5,1.5,0,0,0,.39-1.085,1.5,1.5,0,0,0-.39-1.085,1.3,1.3,0,0,0-.98-.405,1.315,1.315,0,0,0-.99.405,1.5,1.5,0,0,0-.39,1.085,1.5,1.5,0,0,0,.39,1.085A1.315,1.315,0,0,0,55.61-1.2ZM65.96-5.46a2.742,2.742,0,0,1,1.365.345,2.477,2.477,0,0,1,.965.97,2.928,2.928,0,0,1,.35,1.455,2.928,2.928,0,0,1-.35,1.455,2.477,2.477,0,0,1-.965.97A2.742,2.742,0,0,1,65.96.08a2.069,2.069,0,0,1-1.69-.7V0H62.78V-7.42h1.56v2.61A2.078,2.078,0,0,1,65.96-5.46ZM65.69-1.2a1.3,1.3,0,0,0,.985-.405A1.51,1.51,0,0,0,67.06-2.69a1.51,1.51,0,0,0-.385-1.085,1.3,1.3,0,0,0-.985-.405,1.3,1.3,0,0,0-.985.405A1.51,1.51,0,0,0,64.32-2.69a1.51,1.51,0,0,0,.385,1.085A1.3,1.3,0,0,0,65.69-1.2Zm6.07-4.26a2.8,2.8,0,0,1,1.92.6,2.277,2.277,0,0,1,.67,1.795V0H72.89V-.67a1.738,1.738,0,0,1-1.64.75,2.545,2.545,0,0,1-1.075-.21,1.6,1.6,0,0,1-.695-.58,1.51,1.51,0,0,1-.24-.84,1.4,1.4,0,0,1,.565-1.18,2.879,2.879,0,0,1,1.745-.43h1.24a.994.994,0,0,0-.31-.785,1.365,1.365,0,0,0-.93-.275,2.715,2.715,0,0,0-.845.135A2.236,2.236,0,0,0,70-3.72l-.56-1.09A3.379,3.379,0,0,1,70.5-5.29,4.726,4.726,0,0,1,71.76-5.46ZM71.64-.97a1.359,1.359,0,0,0,.71-.185,1.012,1.012,0,0,0,.44-.545v-.55H71.72q-.96,0-.96.63A.561.561,0,0,0,71-1.145,1.059,1.059,0,0,0,71.64-.97ZM78.42.08a3.308,3.308,0,0,1-1.545-.355,2.658,2.658,0,0,1-1.07-.985,2.687,2.687,0,0,1-.385-1.43,2.687,2.687,0,0,1,.385-1.43,2.658,2.658,0,0,1,1.07-.985A3.308,3.308,0,0,1,78.42-5.46a2.994,2.994,0,0,1,1.485.355A2.105,2.105,0,0,1,80.83-4.09l-1.21.65a1.323,1.323,0,0,0-1.21-.74,1.369,1.369,0,0,0-1.01.4A1.473,1.473,0,0,0,77-2.69a1.473,1.473,0,0,0,.4,1.09,1.369,1.369,0,0,0,1.01.4,1.309,1.309,0,0,0,1.21-.74l1.21.66a2.148,2.148,0,0,1-.925,1A2.96,2.96,0,0,1,78.42.08ZM84-2.11l-.75.74V0H81.69V-7.42h1.56v4.2l2.28-2.16h1.86L85.15-3.1,87.59,0H85.7Zm9.61-3.27V0H92.13V-.64a2.069,2.069,0,0,1-.74.535,2.328,2.328,0,0,1-.93.185,2.291,2.291,0,0,1-1.68-.61,2.432,2.432,0,0,1-.62-1.81V-5.38h1.56v2.81q0,1.3,1.09,1.3a1.172,1.172,0,0,0,.9-.365,1.54,1.54,0,0,0,.34-1.085V-5.38Zm4.63-.08a2.742,2.742,0,0,1,1.365.345,2.477,2.477,0,0,1,.965.97,2.928,2.928,0,0,1,.35,1.455,2.928,2.928,0,0,1-.35,1.455,2.477,2.477,0,0,1-.965.97A2.742,2.742,0,0,1,98.24.08a2.078,2.078,0,0,1-1.62-.65V1.94H95.06V-5.38h1.49v.62A2.069,2.069,0,0,1,98.24-5.46ZM97.97-1.2a1.3,1.3,0,0,0,.985-.405A1.51,1.51,0,0,0,99.34-2.69a1.51,1.51,0,0,0-.385-1.085,1.3,1.3,0,0,0-.985-.405,1.3,1.3,0,0,0-.985.405A1.51,1.51,0,0,0,96.6-2.69a1.51,1.51,0,0,0,.385,1.085A1.3,1.3,0,0,0,97.97-1.2Zm5.8,1.28a5.226,5.226,0,0,1-1.31-.165A3.423,3.423,0,0,1,101.44-.5l.52-1.12a3.273,3.273,0,0,0,.87.375,3.646,3.646,0,0,0,1,.145q.99,0,.99-.49a.347.347,0,0,0-.27-.33,4,4,0,0,0-.83-.17,8.007,8.007,0,0,1-1.09-.23,1.691,1.691,0,0,1-.745-.46,1.308,1.308,0,0,1-.315-.94,1.473,1.473,0,0,1,.295-.9,1.9,1.9,0,0,1,.86-.615,3.673,3.673,0,0,1,1.335-.22,5.24,5.24,0,0,1,1.135.125,3.173,3.173,0,0,1,.935.345l-.52,1.11a3.1,3.1,0,0,0-1.55-.4,1.577,1.577,0,0,0-.75.14.412.412,0,0,0-.25.36.357.357,0,0,0,.27.35,4.78,4.78,0,0,0,.86.19,9.206,9.206,0,0,1,1.08.235,1.623,1.623,0,0,1,.73.455,1.291,1.291,0,0,1,.31.92,1.421,1.421,0,0,1-.3.89,1.915,1.915,0,0,1-.875.605A3.9,3.9,0,0,1,103.77.08Z" transform="translate(789 595)" fill="#195f8c"/>
      <path id="Path_5123" data-name="Path 5123" d="M.83-7H2.45V0H.83ZM4.11-7H7.29a4.469,4.469,0,0,1,2.015.435,3.257,3.257,0,0,1,1.36,1.225A3.446,3.446,0,0,1,11.15-3.5a3.446,3.446,0,0,1-.485,1.84A3.257,3.257,0,0,1,9.305-.435,4.469,4.469,0,0,1,7.29,0H4.11Zm3.1,5.67a2.352,2.352,0,0,0,1.675-.585A2.066,2.066,0,0,0,9.51-3.5a2.066,2.066,0,0,0-.625-1.585A2.352,2.352,0,0,0,7.21-5.67H5.73v4.34ZM15.4-7a3.889,3.889,0,0,1,1.615.31,2.4,2.4,0,0,1,1.055.88,2.424,2.424,0,0,1,.37,1.35,2.431,2.431,0,0,1-.37,1.345,2.356,2.356,0,0,1-1.055.88,3.944,3.944,0,0,1-1.615.3H13.99V0H12.37V-7Zm-.09,3.75a1.7,1.7,0,0,0,1.11-.315,1.1,1.1,0,0,0,.38-.895,1.109,1.109,0,0,0-.38-.9,1.7,1.7,0,0,0-1.11-.315H13.99v2.43ZM22.52-7h1.62V0H22.52Zm6.44,1.54a2.214,2.214,0,0,1,1.615.6,2.379,2.379,0,0,1,.615,1.78V0H29.63V-2.84a1.4,1.4,0,0,0-.28-.955,1.027,1.027,0,0,0-.81-.315,1.241,1.241,0,0,0-.94.365,1.511,1.511,0,0,0-.35,1.085V0H25.69V-5.38h1.49v.63a2.069,2.069,0,0,1,.77-.525A2.683,2.683,0,0,1,28.96-5.46Zm7.11,5.2a1.6,1.6,0,0,1-.565.255,2.857,2.857,0,0,1-.7.085,2.094,2.094,0,0,1-1.485-.49,1.875,1.875,0,0,1-.525-1.44V-4.06h-.83v-1.2h.83V-6.57h1.56v1.31h1.34v1.2H34.35v2.19a.734.734,0,0,0,.175.525.649.649,0,0,0,.5.185,1,1,0,0,0,.63-.2Zm5.98-2.41q0,.03-.03.42H37.95a1.268,1.268,0,0,0,.52.79,1.722,1.722,0,0,0,1.02.29,2.065,2.065,0,0,0,.745-.125,1.8,1.8,0,0,0,.6-.395l.83.9a2.789,2.789,0,0,1-2.22.87,3.512,3.512,0,0,1-1.61-.355,2.6,2.6,0,0,1-1.08-.985,2.714,2.714,0,0,1-.38-1.43,2.749,2.749,0,0,1,.375-1.425,2.627,2.627,0,0,1,1.03-.99A3.024,3.024,0,0,1,39.25-5.46a3,3,0,0,1,1.43.34,2.482,2.482,0,0,1,1.005.975A2.907,2.907,0,0,1,42.05-2.67ZM39.26-4.28a1.343,1.343,0,0,0-.89.3,1.277,1.277,0,0,0-.44.82h2.65a1.29,1.29,0,0,0-.44-.815A1.315,1.315,0,0,0,39.26-4.28Zm9.38-1.1V-.9a2.875,2.875,0,0,1-.77,2.2,3.179,3.179,0,0,1-2.25.72,5.627,5.627,0,0,1-1.48-.19,3.236,3.236,0,0,1-1.16-.55L43.6.16a2.552,2.552,0,0,0,.86.445A3.422,3.422,0,0,0,45.5.77,1.687,1.687,0,0,0,46.695.405,1.455,1.455,0,0,0,47.08-.7V-.93a2.183,2.183,0,0,1-1.7.67,2.855,2.855,0,0,1-1.355-.325A2.477,2.477,0,0,1,43.05-1.5a2.558,2.558,0,0,1-.36-1.36,2.558,2.558,0,0,1,.36-1.36,2.477,2.477,0,0,1,.975-.915A2.855,2.855,0,0,1,45.38-5.46a2.135,2.135,0,0,1,1.78.77v-.69ZM45.69-1.54A1.437,1.437,0,0,0,46.7-1.905a1.24,1.24,0,0,0,.4-.955,1.24,1.24,0,0,0-.4-.955A1.437,1.437,0,0,0,45.69-4.18a1.455,1.455,0,0,0-1.02.365,1.232,1.232,0,0,0-.4.955,1.232,1.232,0,0,0,.4.955A1.455,1.455,0,0,0,45.69-1.54Zm5.89-3.13a1.735,1.735,0,0,1,.755-.59,2.8,2.8,0,0,1,1.1-.2v1.44q-.26-.02-.35-.02a1.43,1.43,0,0,0-1.05.375,1.516,1.516,0,0,0-.38,1.125V0H50.09V-5.38h1.49Zm4.92-.79a2.8,2.8,0,0,1,1.92.6,2.277,2.277,0,0,1,.67,1.795V0H57.63V-.67a1.738,1.738,0,0,1-1.64.75,2.545,2.545,0,0,1-1.075-.21,1.6,1.6,0,0,1-.695-.58,1.51,1.51,0,0,1-.24-.84,1.4,1.4,0,0,1,.565-1.18,2.879,2.879,0,0,1,1.745-.43h1.24a.994.994,0,0,0-.31-.785,1.365,1.365,0,0,0-.93-.275,2.715,2.715,0,0,0-.845.135,2.236,2.236,0,0,0-.7.365l-.56-1.09a3.379,3.379,0,0,1,1.055-.48A4.726,4.726,0,0,1,56.5-5.46ZM56.38-.97a1.359,1.359,0,0,0,.71-.185,1.012,1.012,0,0,0,.44-.545v-.55H56.46q-.96,0-.96.63a.561.561,0,0,0,.235.475A1.059,1.059,0,0,0,56.38-.97Zm7.59.71a1.6,1.6,0,0,1-.565.255A2.857,2.857,0,0,1,62.7.08a2.094,2.094,0,0,1-1.485-.49,1.875,1.875,0,0,1-.525-1.44V-4.06h-.83v-1.2h.83V-6.57h1.56v1.31h1.34v1.2H62.25v2.19a.734.734,0,0,0,.175.525.649.649,0,0,0,.495.185,1,1,0,0,0,.63-.2Zm.88-5.12h1.56V0H64.85Zm.78-.75a.989.989,0,0,1-.7-.25A.811.811,0,0,1,64.66-7a.811.811,0,0,1,.27-.62.989.989,0,0,1,.7-.25,1.014,1.014,0,0,1,.7.24.77.77,0,0,1,.27.6.849.849,0,0,1-.27.645A.978.978,0,0,1,65.63-6.13ZM70.42.08a3.226,3.226,0,0,1-1.525-.355A2.639,2.639,0,0,1,67.84-1.26a2.714,2.714,0,0,1-.38-1.43,2.714,2.714,0,0,1,.38-1.43,2.639,2.639,0,0,1,1.055-.985A3.226,3.226,0,0,1,70.42-5.46a3.2,3.2,0,0,1,1.52.355,2.647,2.647,0,0,1,1.05.985,2.714,2.714,0,0,1,.38,1.43,2.714,2.714,0,0,1-.38,1.43,2.647,2.647,0,0,1-1.05.985A3.2,3.2,0,0,1,70.42.08Zm0-1.28a1.3,1.3,0,0,0,.985-.405A1.51,1.51,0,0,0,71.79-2.69,1.51,1.51,0,0,0,71.4-3.775a1.3,1.3,0,0,0-.985-.405,1.315,1.315,0,0,0-.99.405,1.5,1.5,0,0,0-.39,1.085,1.5,1.5,0,0,0,.39,1.085A1.315,1.315,0,0,0,70.42-1.2Zm7.26-4.26a2.214,2.214,0,0,1,1.615.6,2.379,2.379,0,0,1,.615,1.78V0H78.35V-2.84a1.4,1.4,0,0,0-.28-.955,1.027,1.027,0,0,0-.81-.315,1.241,1.241,0,0,0-.94.365,1.511,1.511,0,0,0-.35,1.085V0H74.41V-5.38H75.9v.63a2.069,2.069,0,0,1,.77-.525A2.683,2.683,0,0,1,77.68-5.46Z" transform="translate(789 628)" fill="#195f8c"/>
      <path id="Path_5122" data-name="Path 5122" d="M-23.085.12A4.021,4.021,0,0,1-25.02-.345a3.47,3.47,0,0,1-1.36-1.29,3.554,3.554,0,0,1-.5-1.865,3.554,3.554,0,0,1,.5-1.865,3.47,3.47,0,0,1,1.36-1.29,4.042,4.042,0,0,1,1.945-.465,4.08,4.08,0,0,1,1.645.32,3.3,3.3,0,0,1,1.235.92l-1.04.96a2.236,2.236,0,0,0-1.76-.82,2.337,2.337,0,0,0-1.16.285,2.026,2.026,0,0,0-.8.8,2.337,2.337,0,0,0-.285,1.16,2.337,2.337,0,0,0,.285,1.16,2.026,2.026,0,0,0,.8.795,2.337,2.337,0,0,0,1.16.285,2.225,2.225,0,0,0,1.76-.83l1.04.96a3.242,3.242,0,0,1-1.24.93A4.116,4.116,0,0,1-23.085.12Zm6.24-.04A3.226,3.226,0,0,1-18.37-.275a2.639,2.639,0,0,1-1.055-.985,2.714,2.714,0,0,1-.38-1.43,2.714,2.714,0,0,1,.38-1.43,2.639,2.639,0,0,1,1.055-.985,3.226,3.226,0,0,1,1.525-.355,3.2,3.2,0,0,1,1.52.355,2.647,2.647,0,0,1,1.05.985,2.714,2.714,0,0,1,.38,1.43,2.714,2.714,0,0,1-.38,1.43,2.647,2.647,0,0,1-1.05.985A3.2,3.2,0,0,1-16.845.08Zm0-1.28a1.3,1.3,0,0,0,.985-.405,1.51,1.51,0,0,0,.385-1.085,1.51,1.51,0,0,0-.385-1.085,1.3,1.3,0,0,0-.985-.405,1.315,1.315,0,0,0-.99.405,1.5,1.5,0,0,0-.39,1.085,1.5,1.5,0,0,0,.39,1.085A1.315,1.315,0,0,0-16.845-1.2Zm10.88-4.26a2.169,2.169,0,0,1,1.605.6,2.424,2.424,0,0,1,.6,1.785V0h-1.56V-2.84A1.458,1.458,0,0,0-5.59-3.8a.932.932,0,0,0-.755-.315,1.113,1.113,0,0,0-.87.355A1.53,1.53,0,0,0-7.535-2.7V0h-1.56V-2.84q0-1.27-1.02-1.27a1.1,1.1,0,0,0-.86.355A1.53,1.53,0,0,0-11.3-2.7V0h-1.56V-5.38h1.49v.62a1.969,1.969,0,0,1,.735-.52,2.474,2.474,0,0,1,.955-.18,2.313,2.313,0,0,1,1.03.225,1.824,1.824,0,0,1,.74.655,2.207,2.207,0,0,1,.835-.65A2.634,2.634,0,0,1-5.965-5.46Zm6.78,0a2.742,2.742,0,0,1,1.365.345,2.477,2.477,0,0,1,.965.97A2.928,2.928,0,0,1,3.5-2.69a2.928,2.928,0,0,1-.35,1.455,2.477,2.477,0,0,1-.965.97A2.742,2.742,0,0,1,.815.08,2.078,2.078,0,0,1-.8-.57V1.94h-1.56V-5.38h1.49v.62A2.069,2.069,0,0,1,.815-5.46ZM.545-1.2a1.3,1.3,0,0,0,.985-.405A1.51,1.51,0,0,0,1.915-2.69,1.51,1.51,0,0,0,1.53-3.775,1.3,1.3,0,0,0,.545-4.18a1.3,1.3,0,0,0-.985.405A1.51,1.51,0,0,0-.825-2.69,1.51,1.51,0,0,0-.44-1.605,1.3,1.3,0,0,0,.545-1.2Zm3.99-6.22H6.1V0H4.535Zm3.01,2.04h1.56V0H7.545Zm.78-.75a.989.989,0,0,1-.7-.25A.811.811,0,0,1,7.355-7a.811.811,0,0,1,.27-.62.989.989,0,0,1,.7-.25,1.014,1.014,0,0,1,.7.24.77.77,0,0,1,.27.6.849.849,0,0,1-.27.645A.978.978,0,0,1,8.325-6.13Zm4.4.67a2.8,2.8,0,0,1,1.92.6,2.277,2.277,0,0,1,.67,1.795V0h-1.46V-.67a1.738,1.738,0,0,1-1.64.75A2.545,2.545,0,0,1,11.14-.13a1.6,1.6,0,0,1-.7-.58,1.51,1.51,0,0,1-.24-.84,1.4,1.4,0,0,1,.565-1.18,2.879,2.879,0,0,1,1.745-.43h1.24a.994.994,0,0,0-.31-.785,1.365,1.365,0,0,0-.93-.275,2.715,2.715,0,0,0-.845.135,2.236,2.236,0,0,0-.7.365L10.4-4.81a3.379,3.379,0,0,1,1.055-.48A4.726,4.726,0,0,1,12.725-5.46ZM12.6-.97a1.359,1.359,0,0,0,.71-.185,1.012,1.012,0,0,0,.44-.545v-.55h-1.07q-.96,0-.96.63a.561.561,0,0,0,.235.475A1.059,1.059,0,0,0,12.6-.97ZM20-5.46a2.214,2.214,0,0,1,1.615.6,2.379,2.379,0,0,1,.615,1.78V0h-1.56V-2.84a1.4,1.4,0,0,0-.28-.955,1.027,1.027,0,0,0-.81-.315,1.241,1.241,0,0,0-.94.365,1.511,1.511,0,0,0-.35,1.085V0h-1.56V-5.38h1.49v.63a2.069,2.069,0,0,1,.77-.525A2.683,2.683,0,0,1,20-5.46Zm7.11,5.2a1.6,1.6,0,0,1-.565.255,2.857,2.857,0,0,1-.7.085A2.094,2.094,0,0,1,24.35-.41a1.875,1.875,0,0,1-.525-1.44V-4.06H23v-1.2h.83V-6.57h1.56v1.31h1.34v1.2h-1.34v2.19a.734.734,0,0,0,.175.525.649.649,0,0,0,.495.185,1,1,0,0,0,.63-.2ZM-26.95,10.25l-.94.98V13H-29.5V6h1.61V9.27L-24.79,6h1.8l-2.9,3.12L-22.82,13h-1.89Zm9.99-2.63V13h-1.48v-.64a2.069,2.069,0,0,1-.74.535,2.328,2.328,0,0,1-.93.185,2.291,2.291,0,0,1-1.68-.61,2.432,2.432,0,0,1-.62-1.81V7.62h1.56v2.81q0,1.3,1.09,1.3a1.172,1.172,0,0,0,.9-.365,1.54,1.54,0,0,0,.34-1.085V7.62Zm4.63-.08a2.742,2.742,0,0,1,1.365.345,2.477,2.477,0,0,1,.965.97,2.928,2.928,0,0,1,.35,1.455A2.928,2.928,0,0,1-10,11.765a2.477,2.477,0,0,1-.965.97,2.742,2.742,0,0,1-1.365.345,2.069,2.069,0,0,1-1.69-.7V13h-1.49V5.58h1.56V8.19A2.078,2.078,0,0,1-12.33,7.54Zm-.27,4.26a1.3,1.3,0,0,0,.985-.4,1.51,1.51,0,0,0,.385-1.085,1.51,1.51,0,0,0-.385-1.085A1.3,1.3,0,0,0-12.6,8.82a1.3,1.3,0,0,0-.985.405,1.51,1.51,0,0,0-.385,1.085,1.51,1.51,0,0,0,.385,1.085A1.3,1.3,0,0,0-12.6,11.8Zm9.26-1.47q0,.03-.03.42H-7.44a1.268,1.268,0,0,0,.52.79,1.722,1.722,0,0,0,1.02.29,2.065,2.065,0,0,0,.745-.125,1.8,1.8,0,0,0,.605-.4l.83.9a2.789,2.789,0,0,1-2.22.87,3.512,3.512,0,0,1-1.61-.355,2.6,2.6,0,0,1-1.08-.985,2.714,2.714,0,0,1-.38-1.43,2.749,2.749,0,0,1,.375-1.425,2.627,2.627,0,0,1,1.03-.99A3.024,3.024,0,0,1-6.14,7.54a3,3,0,0,1,1.43.34A2.482,2.482,0,0,1-3.7,8.855,2.907,2.907,0,0,1-3.34,10.33ZM-6.13,8.72a1.343,1.343,0,0,0-.89.3,1.277,1.277,0,0,0-.44.82h2.65a1.29,1.29,0,0,0-.44-.815A1.315,1.315,0,0,0-6.13,8.72Zm5.32-.39a1.735,1.735,0,0,1,.755-.59,2.8,2.8,0,0,1,1.1-.2V8.98Q.78,8.96.69,8.96a1.43,1.43,0,0,0-1.05.375A1.516,1.516,0,0,0-.74,10.46V13H-2.3V7.62H-.81Zm6.05-.79a2.214,2.214,0,0,1,1.615.6A2.379,2.379,0,0,1,7.47,9.92V13H5.91V10.16A1.4,1.4,0,0,0,5.63,9.2a1.027,1.027,0,0,0-.81-.315,1.241,1.241,0,0,0-.94.365,1.511,1.511,0,0,0-.35,1.085V13H1.97V7.62H3.46v.63a2.069,2.069,0,0,1,.77-.525A2.683,2.683,0,0,1,5.24,7.54Zm8.97,2.79q0,.03-.03.42H10.11a1.268,1.268,0,0,0,.52.79,1.722,1.722,0,0,0,1.02.29,2.065,2.065,0,0,0,.745-.125,1.8,1.8,0,0,0,.605-.4l.83.9a2.789,2.789,0,0,1-2.22.87A3.512,3.512,0,0,1,10,12.725a2.6,2.6,0,0,1-1.08-.985,2.714,2.714,0,0,1-.38-1.43,2.749,2.749,0,0,1,.375-1.425,2.627,2.627,0,0,1,1.03-.99A3.189,3.189,0,0,1,12.84,7.88a2.482,2.482,0,0,1,1.005.975A2.907,2.907,0,0,1,14.21,10.33ZM11.42,8.72a1.343,1.343,0,0,0-.89.3,1.277,1.277,0,0,0-.44.82h2.65a1.29,1.29,0,0,0-.44-.815A1.315,1.315,0,0,0,11.42,8.72Zm7.3,4.02a1.6,1.6,0,0,1-.565.255,2.857,2.857,0,0,1-.7.085,2.094,2.094,0,0,1-1.485-.49,1.875,1.875,0,0,1-.525-1.44V8.94h-.83V7.74h.83V6.43H17V7.74h1.34v1.2H17v2.19a.734.734,0,0,0,.175.525.649.649,0,0,0,.495.185,1,1,0,0,0,.63-.2Zm5.98-2.41q0,.03-.03.42H20.6a1.268,1.268,0,0,0,.52.79,1.722,1.722,0,0,0,1.02.29,2.065,2.065,0,0,0,.745-.125,1.8,1.8,0,0,0,.605-.4l.83.9a2.789,2.789,0,0,1-2.22.87,3.512,3.512,0,0,1-1.61-.355,2.6,2.6,0,0,1-1.08-.985,2.714,2.714,0,0,1-.38-1.43,2.749,2.749,0,0,1,.375-1.425,2.627,2.627,0,0,1,1.03-.99,3.189,3.189,0,0,1,2.9-.015,2.482,2.482,0,0,1,1,.975A2.907,2.907,0,0,1,24.7,10.33ZM21.91,8.72a1.343,1.343,0,0,0-.89.3,1.277,1.277,0,0,0-.44.82h2.65a1.29,1.29,0,0,0-.44-.815A1.315,1.315,0,0,0,21.91,8.72Zm5.64,4.36a5.226,5.226,0,0,1-1.31-.165,3.423,3.423,0,0,1-1.02-.415l.52-1.12a3.273,3.273,0,0,0,.87.375,3.646,3.646,0,0,0,1,.145q.99,0,.99-.49a.347.347,0,0,0-.27-.33,4,4,0,0,0-.83-.17,8.007,8.007,0,0,1-1.09-.23,1.691,1.691,0,0,1-.745-.46,1.308,1.308,0,0,1-.315-.94,1.472,1.472,0,0,1,.3-.9,1.9,1.9,0,0,1,.86-.615,3.673,3.673,0,0,1,1.335-.22,5.239,5.239,0,0,1,1.135.125,3.173,3.173,0,0,1,.935.345l-.52,1.11a3.1,3.1,0,0,0-1.55-.4,1.577,1.577,0,0,0-.75.14.412.412,0,0,0-.25.36.357.357,0,0,0,.27.35,4.78,4.78,0,0,0,.86.19,9.206,9.206,0,0,1,1.08.235,1.622,1.622,0,0,1,.73.455,1.291,1.291,0,0,1,.31.92,1.421,1.421,0,0,1-.3.89,1.915,1.915,0,0,1-.875.6A3.9,3.9,0,0,1,27.55,13.08Z" transform="translate(1072 241)" fill="#195f8c"/>
      <path id="Path_5121" data-name="Path 5121" d="M-13.1,0-16.22-7h.567L-12.68-.31h-.3L-10-7h.533l-3.12,7ZM-5.61,0V-1.187l-.017-.187V-3.327a1.47,1.47,0,0,0-.395-1.11,1.608,1.608,0,0,0-1.158-.38,2.75,2.75,0,0,0-1.007.182,2.576,2.576,0,0,0-.8.478l-.243-.367a2.827,2.827,0,0,1,.935-.54,3.376,3.376,0,0,1,1.148-.2,2.107,2.107,0,0,1,1.495.488,1.9,1.9,0,0,1,.522,1.458V0ZM-7.487.04A2.491,2.491,0,0,1-8.5-.147a1.458,1.458,0,0,1-.648-.527,1.381,1.381,0,0,1-.225-.78,1.435,1.435,0,0,1,.187-.722A1.327,1.327,0,0,1-8.57-2.7a2.736,2.736,0,0,1,1.153-.2H-5.5v.39H-7.407a1.7,1.7,0,0,0-1.14.3.966.966,0,0,0-.327.747.971.971,0,0,0,.383.807,1.692,1.692,0,0,0,1.067.3A1.97,1.97,0,0,0-6.3-.67a1.812,1.812,0,0,0,.677-.867l.133.34a1.783,1.783,0,0,1-.71.9A2.273,2.273,0,0,1-7.487.04ZM-.52-5.26A2.386,2.386,0,0,1,.6-5.013a1.75,1.75,0,0,1,.74.738A2.546,2.546,0,0,1,1.6-3.05V0H1.1V-3.007A1.85,1.85,0,0,0,.658-4.35,1.663,1.663,0,0,0-.59-4.807a2.153,2.153,0,0,0-1.057.247,1.671,1.671,0,0,0-.685.7A2.292,2.292,0,0,0-2.57-2.78V0h-.5V-5.22h.483v1.453l-.073-.167a1.989,1.989,0,0,1,.795-.973A2.443,2.443,0,0,1-.52-5.26ZM3.663,0V-5.22h.5V0Zm.25-6.49a.4.4,0,0,1-.29-.12.384.384,0,0,1-.12-.28.4.4,0,0,1,.12-.29.4.4,0,0,1,.29-.12.4.4,0,0,1,.3.115.387.387,0,0,1,.115.285.4.4,0,0,1-.115.29A.391.391,0,0,1,3.913-6.49ZM6.273,0V-7.42h.5V0ZM8.887,0V-7.42h.5V0Zm5.907,0V-1.187l-.017-.187V-3.327a1.47,1.47,0,0,0-.395-1.11,1.608,1.608,0,0,0-1.158-.38,2.75,2.75,0,0,0-1.007.182,2.576,2.576,0,0,0-.8.478l-.243-.367a2.827,2.827,0,0,1,.935-.54,3.376,3.376,0,0,1,1.148-.2,2.107,2.107,0,0,1,1.495.488,1.9,1.9,0,0,1,.522,1.458V0ZM12.917.04a2.491,2.491,0,0,1-1.01-.187,1.458,1.458,0,0,1-.648-.527,1.381,1.381,0,0,1-.225-.78,1.435,1.435,0,0,1,.187-.722,1.327,1.327,0,0,1,.613-.53,2.736,2.736,0,0,1,1.153-.2H14.9v.39H13a1.7,1.7,0,0,0-1.14.3.966.966,0,0,0-.327.747.971.971,0,0,0,.383.807,1.692,1.692,0,0,0,1.067.3,1.97,1.97,0,0,0,1.12-.3,1.812,1.812,0,0,0,.677-.867l.133.34a1.783,1.783,0,0,1-.71.9A2.273,2.273,0,0,1,12.917.04ZM-27.008,11.23l-.02-.643L-22.568,6h.613l-3.113,3.233-.293.31ZM-27.452,13V6h.513v7Zm5.087,0-3.147-3.6.353-.37,3.42,3.97Zm3.717.04a2.551,2.551,0,0,1-1.16-.247,1.726,1.726,0,0,1-.757-.74,2.548,2.548,0,0,1-.267-1.223V7.78h.5v3.007a1.838,1.838,0,0,0,.45,1.343,1.7,1.7,0,0,0,1.27.457,2.015,2.015,0,0,0,1.02-.247,1.651,1.651,0,0,0,.662-.7A2.354,2.354,0,0,0-16.7,10.56V7.78h.5V13h-.483V11.553l.073.167a1.99,1.99,0,0,1-.768.967A2.245,2.245,0,0,1-18.648,13.04Zm7.19,0a2.45,2.45,0,0,1-1.252-.322,2.289,2.289,0,0,1-.877-.92,2.939,2.939,0,0,1-.322-1.412,2.888,2.888,0,0,1,.325-1.413,2.325,2.325,0,0,1,.88-.912,2.437,2.437,0,0,1,1.245-.322,2.593,2.593,0,0,1,1.32.337,2.448,2.448,0,0,1,.92.93,2.749,2.749,0,0,1,.337,1.38,2.772,2.772,0,0,1-.337,1.38,2.435,2.435,0,0,1-.92.937A2.593,2.593,0,0,1-11.458,13.04ZM-14.085,13V5.58h.5V9.467l-.1.91.083.91V13Zm2.6-.407a2.1,2.1,0,0,0,1.077-.278,1.994,1.994,0,0,0,.752-.778,2.347,2.347,0,0,0,.275-1.15A2.34,2.34,0,0,0-9.66,9.232a1.98,1.98,0,0,0-.752-.77,2.115,2.115,0,0,0-1.077-.275,2.115,2.115,0,0,0-1.077.275,1.98,1.98,0,0,0-.752.77,2.34,2.34,0,0,0-.275,1.155,2.347,2.347,0,0,0,.275,1.15,1.994,1.994,0,0,0,.752.778A2.1,2.1,0,0,0-11.488,12.593Zm6.28.447A2.8,2.8,0,0,1-6.6,12.7a2.46,2.46,0,0,1-.948-.942A2.718,2.718,0,0,1-7.9,10.387a2.827,2.827,0,0,1,.323-1.372A2.407,2.407,0,0,1-6.68,8.08,2.448,2.448,0,0,1-5.4,7.74a2.469,2.469,0,0,1,1.277.332A2.361,2.361,0,0,1-3.235,9a2.818,2.818,0,0,1,.323,1.37q0,.03,0,.068t-.005.078H-7.532v-.39h4.347l-.2.187a2.228,2.228,0,0,0-.26-1.1,1.987,1.987,0,0,0-.715-.76A1.948,1.948,0,0,0-5.4,8.177a1.961,1.961,0,0,0-1.037.277,1.936,1.936,0,0,0-.715.762,2.314,2.314,0,0,0-.258,1.1v.087a2.244,2.244,0,0,0,.283,1.135,2.015,2.015,0,0,0,.783.773,2.311,2.311,0,0,0,1.143.278,2.383,2.383,0,0,0,.935-.183,1.866,1.866,0,0,0,.735-.553l.293.33a2.212,2.212,0,0,1-.86.637A2.834,2.834,0,0,1-5.208,13.04ZM-1.362,13V7.78h.483V9.213l-.05-.16A1.836,1.836,0,0,1-.19,8.082a2.328,2.328,0,0,1,1.3-.342v.49l-.06,0-.063,0A1.742,1.742,0,0,0-.37,8.765a2.168,2.168,0,0,0-.492,1.512V13Zm6.4-5.26a2.386,2.386,0,0,1,1.117.247,1.75,1.75,0,0,1,.74.738A2.546,2.546,0,0,1,7.162,9.95V13h-.5V9.993A1.85,1.85,0,0,0,6.217,8.65a1.663,1.663,0,0,0-1.248-.457,2.153,2.153,0,0,0-1.057.247,1.671,1.671,0,0,0-.685.7,2.292,2.292,0,0,0-.238,1.08V13h-.5V7.78h.483V9.233L2.9,9.067a1.989,1.989,0,0,1,.795-.973A2.443,2.443,0,0,1,5.038,7.74Zm6.3,5.3a2.8,2.8,0,0,1-1.4-.34A2.46,2.46,0,0,1,9,11.758a2.718,2.718,0,0,1-.343-1.372,2.827,2.827,0,0,1,.323-1.372A2.407,2.407,0,0,1,9.87,8.08a2.6,2.6,0,0,1,2.558-.008A2.361,2.361,0,0,1,13.315,9a2.818,2.818,0,0,1,.323,1.37q0,.03,0,.068t-.005.078H9.018v-.39h4.347l-.2.187a2.228,2.228,0,0,0-.26-1.1,1.987,1.987,0,0,0-.715-.76,1.983,1.983,0,0,0-2.79.762,2.314,2.314,0,0,0-.258,1.1v.087a2.244,2.244,0,0,0,.283,1.135,2.015,2.015,0,0,0,.783.773,2.311,2.311,0,0,0,1.143.278,2.383,2.383,0,0,0,.935-.183,1.866,1.866,0,0,0,.735-.553l.293.33a2.212,2.212,0,0,1-.86.637A2.834,2.834,0,0,1,11.342,13.04Zm5.37,0a1.4,1.4,0,0,1-1.053-.38,1.44,1.44,0,0,1-.367-1.043V6.637h.5v4.937a1.084,1.084,0,0,0,.248.767.938.938,0,0,0,.722.267,1.172,1.172,0,0,0,.813-.29l.2.357a1.192,1.192,0,0,1-.482.277A1.952,1.952,0,0,1,16.712,13.04ZM14.328,8.207V7.78h3.123v.427ZM21.1,13.04a2.8,2.8,0,0,1-1.4-.34,2.46,2.46,0,0,1-.948-.942,2.718,2.718,0,0,1-.343-1.372,2.827,2.827,0,0,1,.323-1.372,2.407,2.407,0,0,1,.892-.935,2.6,2.6,0,0,1,2.558-.008A2.361,2.361,0,0,1,23.075,9a2.818,2.818,0,0,1,.323,1.37q0,.03,0,.068t-.005.078H18.778v-.39h4.347l-.2.187a2.228,2.228,0,0,0-.26-1.1,1.987,1.987,0,0,0-.715-.76,1.983,1.983,0,0,0-2.79.762,2.314,2.314,0,0,0-.258,1.1v.087a2.244,2.244,0,0,0,.283,1.135,2.015,2.015,0,0,0,.783.773,2.311,2.311,0,0,0,1.143.278,2.383,2.383,0,0,0,.935-.183,1.866,1.866,0,0,0,.735-.553l.293.33a2.212,2.212,0,0,1-.86.637A2.834,2.834,0,0,1,21.1,13.04Zm5.167,0a3.767,3.767,0,0,1-1.212-.192,2.392,2.392,0,0,1-.878-.482l.233-.4a2.7,2.7,0,0,0,.8.443,3.064,3.064,0,0,0,1.08.187,2,2,0,0,0,1.18-.27.846.846,0,0,0,.36-.71.683.683,0,0,0-.187-.508,1.212,1.212,0,0,0-.5-.283,5.015,5.015,0,0,0-.68-.162q-.372-.063-.743-.145a3.04,3.04,0,0,1-.68-.232,1.28,1.28,0,0,1-.5-.413,1.193,1.193,0,0,1-.187-.7,1.25,1.25,0,0,1,.222-.723,1.513,1.513,0,0,1,.662-.517,2.73,2.73,0,0,1,1.1-.193,3.668,3.668,0,0,1,.992.138,2.409,2.409,0,0,1,.805.372l-.233.4a2.216,2.216,0,0,0-.738-.355,3.128,3.128,0,0,0-.828-.112,1.8,1.8,0,0,0-1.118.28.855.855,0,0,0-.355.7.731.731,0,0,0,.187.53,1.22,1.22,0,0,0,.495.3,4.412,4.412,0,0,0,.68.168q.372.063.74.145a3.226,3.226,0,0,1,.677.227,1.269,1.269,0,0,1,.495.4,1.135,1.135,0,0,1,.187.685,1.236,1.236,0,0,1-.237.75,1.512,1.512,0,0,1-.695.5A3.136,3.136,0,0,1,26.268,13.04Z" transform="translate(986 241)" fill="#343434"/>
    </g>
  </g>
</svg>
