<svg xmlns="http://www.w3.org/2000/svg" width="342" height="409" viewBox="0 0 342 409">
  <g id="Group_538" data-name="Group 538" transform="translate(-778 -231)">
    <rect id="Rectangle_38" data-name="Rectangle 38" width="342" height="32" rx="5" transform="translate(778 342)" fill="rgba(25,95,140,0.07)"/>
    <rect id="Rectangle_37" data-name="Rectangle 37" width="342" height="32" rx="5" transform="translate(778 276)" fill="rgba(25,95,140,0.07)"/>
    <rect id="Rectangle_39" data-name="Rectangle 39" width="342" height="32" rx="5" transform="translate(778 409)" fill="rgba(25,95,140,0.07)"/>
    <rect id="Rectangle_38-2" data-name="Rectangle 38" width="342" height="32" rx="5" transform="translate(778 542)" fill="rgba(25,95,140,0.07)"/>
    <rect id="Rectangle_37-2" data-name="Rectangle 37" width="342" height="32" rx="5" transform="translate(778 475)" fill="rgba(25,95,140,0.07)"/>
    <g id="Group_515" data-name="Group 515" transform="translate(278 -160)">
      <circle id="Circle" cx="11.5" cy="11.5" r="11.5" transform="translate(783 474)" fill="#32cd32"/>
      <path id="Check_mark" data-name="Check mark" d="M3.222,72.032.139,68.95a.474.474,0,0,1,0-.671l.671-.671a.474.474,0,0,1,.671,0l2.076,2.076L8,65.237a.474.474,0,0,1,.671,0l.671.671a.474.474,0,0,1,0,.671L3.892,72.032a.474.474,0,0,1-.671,0Z" transform="translate(789.758 416.865)" fill="#fff"/>
    </g>
    <rect id="Rectangle_39-2" data-name="Rectangle 39" width="342" height="32" rx="5" transform="translate(778 608)" fill="rgba(25,95,140,0.07)"/>
    <g id="Group_516" data-name="Group 516" transform="translate(278 -127)">
      <circle id="Circle-2" data-name="Circle" cx="11.5" cy="11.5" r="11.5" transform="translate(783 474)" fill="#32cd32"/>
      <path id="Check_mark-2" data-name="Check mark" d="M3.222,72.032.139,68.95a.474.474,0,0,1,0-.671l.671-.671a.474.474,0,0,1,.671,0l2.076,2.076L8,65.237a.474.474,0,0,1,.671,0l.671.671a.474.474,0,0,1,0,.671L3.892,72.032a.474.474,0,0,1-.671,0Z" transform="translate(789.758 416.865)" fill="#fff"/>
    </g>
    <g id="Group_517" data-name="Group 517" transform="translate(278 -93)">
      <circle id="Circle-3" data-name="Circle" cx="11.5" cy="11.5" r="11.5" transform="translate(783 474)" fill="#32cd32"/>
      <path id="Check_mark-3" data-name="Check mark" d="M3.222,72.032.139,68.95a.474.474,0,0,1,0-.671l.671-.671a.474.474,0,0,1,.671,0l2.076,2.076L8,65.237a.474.474,0,0,1,.671,0l.671.671a.474.474,0,0,1,0,.671L3.892,72.032a.474.474,0,0,1-.671,0Z" transform="translate(789.758 416.865)" fill="#fff"/>
    </g>
    <g id="Group_518" data-name="Group 518" transform="translate(278 -60)">
      <circle id="Circle-4" data-name="Circle" cx="11.5" cy="11.5" r="11.5" transform="translate(783 474)" fill="#32cd32"/>
      <path id="Check_mark-4" data-name="Check mark" d="M3.222,72.032.139,68.95a.474.474,0,0,1,0-.671l.671-.671a.474.474,0,0,1,.671,0l2.076,2.076L8,65.237a.474.474,0,0,1,.671,0l.671.671a.474.474,0,0,1,0,.671L3.892,72.032a.474.474,0,0,1-.671,0Z" transform="translate(789.758 416.865)" fill="#fff"/>
    </g>
    <g id="Group_519" data-name="Group 519" transform="translate(278 -27)">
      <circle id="Circle-5" data-name="Circle" cx="11.5" cy="11.5" r="11.5" transform="translate(783 474)" fill="#32cd32"/>
      <path id="Check_mark-5" data-name="Check mark" d="M3.222,72.032.139,68.95a.474.474,0,0,1,0-.671l.671-.671a.474.474,0,0,1,.671,0l2.076,2.076L8,65.237a.474.474,0,0,1,.671,0l.671.671a.474.474,0,0,1,0,.671L3.892,72.032a.474.474,0,0,1-.671,0Z" transform="translate(789.758 416.865)" fill="#fff"/>
    </g>
    <g id="Group_520" data-name="Group 520" transform="translate(278 6)">
      <circle id="Circle-6" data-name="Circle" cx="11.5" cy="11.5" r="11.5" transform="translate(783 474)" fill="#32cd32"/>
      <path id="Check_mark-6" data-name="Check mark" d="M3.222,72.032.139,68.95a.474.474,0,0,1,0-.671l.671-.671a.474.474,0,0,1,.671,0l2.076,2.076L8,65.237a.474.474,0,0,1,.671,0l.671.671a.474.474,0,0,1,0,.671L3.892,72.032a.474.474,0,0,1-.671,0Z" transform="translate(789.758 416.865)" fill="#fff"/>
    </g>
    <g id="Group_521" data-name="Group 521" transform="translate(278 39)">
      <circle id="Circle-7" data-name="Circle" cx="11.5" cy="11.5" r="11.5" transform="translate(783 474)" fill="#32cd32"/>
      <path id="Check_mark-7" data-name="Check mark" d="M3.222,72.032.139,68.95a.474.474,0,0,1,0-.671l.671-.671a.474.474,0,0,1,.671,0l2.076,2.076L8,65.237a.474.474,0,0,1,.671,0l.671.671a.474.474,0,0,1,0,.671L3.892,72.032a.474.474,0,0,1-.671,0Z" transform="translate(789.758 416.865)" fill="#fff"/>
    </g>
    <g id="Group_522" data-name="Group 522" transform="translate(278 73)">
      <circle id="Circle-8" data-name="Circle" cx="11.5" cy="11.5" r="11.5" transform="translate(783 474)" fill="#32cd32"/>
      <path id="Check_mark-8" data-name="Check mark" d="M3.222,72.032.139,68.95a.474.474,0,0,1,0-.671l.671-.671a.474.474,0,0,1,.671,0l2.076,2.076L8,65.237a.474.474,0,0,1,.671,0l.671.671a.474.474,0,0,1,0,.671L3.892,72.032a.474.474,0,0,1-.671,0Z" transform="translate(789.758 416.865)" fill="#fff"/>
    </g>
    <g id="Group_523" data-name="Group 523" transform="translate(278 106)">
      <circle id="Circle-9" data-name="Circle" cx="11.5" cy="11.5" r="11.5" transform="translate(783 474)" fill="#32cd32"/>
      <path id="Check_mark-9" data-name="Check mark" d="M3.222,72.032.139,68.95a.474.474,0,0,1,0-.671l.671-.671a.474.474,0,0,1,.671,0l2.076,2.076L8,65.237a.474.474,0,0,1,.671,0l.671.671a.474.474,0,0,1,0,.671L3.892,72.032a.474.474,0,0,1-.671,0Z" transform="translate(789.758 416.865)" fill="#fff"/>
    </g>
    <g id="Group_524" data-name="Group 524" transform="translate(278 139)">
      <circle id="Circle-10" data-name="Circle" cx="11.5" cy="11.5" r="11.5" transform="translate(783 474)" fill="#32cd32"/>
      <path id="Check_mark-10" data-name="Check mark" d="M3.222,72.032.139,68.95a.474.474,0,0,1,0-.671l.671-.671a.474.474,0,0,1,.671,0l2.076,2.076L8,65.237a.474.474,0,0,1,.671,0l.671.671a.474.474,0,0,1,0,.671L3.892,72.032a.474.474,0,0,1-.671,0Z" transform="translate(789.758 416.865)" fill="#fff"/>
    </g>
    <g id="Group_525" data-name="Group 525" transform="translate(278 -193)">
      <circle id="Circle-11" data-name="Circle" cx="11.5" cy="11.5" r="11.5" transform="translate(783 474)" fill="#32cd32"/>
      <path id="Check_mark-11" data-name="Check mark" d="M3.222,72.032.139,68.95a.474.474,0,0,1,0-.671l.671-.671a.474.474,0,0,1,.671,0l2.076,2.076L8,65.237a.474.474,0,0,1,.671,0l.671.671a.474.474,0,0,1,0,.671L3.892,72.032a.474.474,0,0,1-.671,0Z" transform="translate(789.758 416.865)" fill="#fff"/>
    </g>
    <g id="Group_526" data-name="Group 526" transform="translate(192 -160)">
      <circle id="Circle-12" data-name="Circle" cx="11.5" cy="11.5" r="11.5" transform="translate(783 474)" fill="#32cd32"/>
      <path id="Check_mark-12" data-name="Check mark" d="M3.222,72.032.139,68.95a.474.474,0,0,1,0-.671l.671-.671a.474.474,0,0,1,.671,0l2.076,2.076L8,65.237a.474.474,0,0,1,.671,0l.671.671a.474.474,0,0,1,0,.671L3.892,72.032a.474.474,0,0,1-.671,0Z" transform="translate(789.758 416.865)" fill="#fff"/>
    </g>
    <g id="Group_527" data-name="Group 527" transform="translate(192 -127)">
      <circle id="Circle-13" data-name="Circle" cx="11.5" cy="11.5" r="11.5" transform="translate(783 474)" fill="#32cd32"/>
      <path id="Check_mark-13" data-name="Check mark" d="M3.222,72.032.139,68.95a.474.474,0,0,1,0-.671l.671-.671a.474.474,0,0,1,.671,0l2.076,2.076L8,65.237a.474.474,0,0,1,.671,0l.671.671a.474.474,0,0,1,0,.671L3.892,72.032a.474.474,0,0,1-.671,0Z" transform="translate(789.758 416.865)" fill="#fff"/>
    </g>
    <g id="Group_537" data-name="Group 537" transform="translate(-31)">
      <circle id="Circle-14" data-name="Circle" cx="11.5" cy="11.5" r="11.5" transform="translate(1006 381)" fill="#fa690f"/>
      <circle id="Circle-15" data-name="Circle" cx="11.5" cy="11.5" r="11.5" transform="translate(1006 414)" fill="#fa690f"/>
      <circle id="Circle-16" data-name="Circle" cx="11.5" cy="11.5" r="11.5" transform="translate(1006 447)" fill="#fa690f"/>
      <circle id="Circle-17" data-name="Circle" cx="11.5" cy="11.5" r="11.5" transform="translate(1006 480)" fill="#fa690f"/>
      <circle id="Circle-18" data-name="Circle" cx="11.5" cy="11.5" r="11.5" transform="translate(1006 513)" fill="#fa690f"/>
      <circle id="Circle-19" data-name="Circle" cx="11.5" cy="11.5" r="11.5" transform="translate(1006 547)" fill="#fa690f"/>
      <circle id="Circle-20" data-name="Circle" cx="11.5" cy="11.5" r="11.5" transform="translate(1006 580)" fill="#fa690f"/>
      <circle id="Circle-21" data-name="Circle" cx="11.5" cy="11.5" r="11.5" transform="translate(1006 613)" fill="#fa690f"/>
      <path id="x-solid" d="M6.868,39.191a.583.583,0,1,1-.9.747L3.5,36.96,1.035,39.922a.583.583,0,1,1-.9-.747l2.6-3.126L.138,32.938a.583.583,0,0,1,.9-.747L3.5,35.153l2.468-2.962a.583.583,0,1,1,.9.747l-2.6,3.126Z" transform="translate(1013.997 555.019)" fill="#fff"/>
      <path id="x-solid-2" data-name="x-solid" d="M6.868,39.191a.583.583,0,1,1-.9.747L3.5,36.96,1.035,39.922a.583.583,0,1,1-.9-.747l2.6-3.126L.138,32.938a.583.583,0,0,1,.9-.747L3.5,35.153l2.468-2.962a.583.583,0,1,1,.9.747l-2.6,3.126Z" transform="translate(1013.997 522.019)" fill="#fff"/>
      <path id="x-solid-3" data-name="x-solid" d="M6.868,39.191a.583.583,0,1,1-.9.747L3.5,36.96,1.035,39.922a.583.583,0,1,1-.9-.747l2.6-3.126L.138,32.938a.583.583,0,0,1,.9-.747L3.5,35.153l2.468-2.962a.583.583,0,1,1,.9.747l-2.6,3.126Z" transform="translate(1013.997 489.019)" fill="#fff"/>
      <path id="x-solid-4" data-name="x-solid" d="M6.868,39.191a.583.583,0,1,1-.9.747L3.5,36.96,1.035,39.922a.583.583,0,1,1-.9-.747l2.6-3.126L.138,32.938a.583.583,0,0,1,.9-.747L3.5,35.153l2.468-2.962a.583.583,0,1,1,.9.747l-2.6,3.126Z" transform="translate(1013.997 455.019)" fill="#fff"/>
      <path id="x-solid-5" data-name="x-solid" d="M6.868,39.191a.583.583,0,1,1-.9.747L3.5,36.96,1.035,39.922a.583.583,0,1,1-.9-.747l2.6-3.126L.138,32.938a.583.583,0,0,1,.9-.747L3.5,35.153l2.468-2.962a.583.583,0,1,1,.9.747l-2.6,3.126Z" transform="translate(1013.997 422.019)" fill="#fff"/>
      <path id="x-solid-6" data-name="x-solid" d="M6.868,39.191a.583.583,0,1,1-.9.747L3.5,36.96,1.035,39.922a.583.583,0,1,1-.9-.747l2.6-3.126L.138,32.938a.583.583,0,0,1,.9-.747L3.5,35.153l2.468-2.962a.583.583,0,1,1,.9.747l-2.6,3.126Z" transform="translate(1013.997 389.019)" fill="#fff"/>
      <path id="x-solid-7" data-name="x-solid" d="M6.868,39.191a.583.583,0,1,1-.9.747L3.5,36.96,1.035,39.922a.583.583,0,1,1-.9-.747l2.6-3.126L.138,32.938a.583.583,0,0,1,.9-.747L3.5,35.153l2.468-2.962a.583.583,0,1,1,.9.747l-2.6,3.126Z" transform="translate(1013.997 588.019)" fill="#fff"/>
      <path id="x-solid-8" data-name="x-solid" d="M6.868,39.191a.583.583,0,1,1-.9.747L3.5,36.96,1.035,39.922a.583.583,0,1,1-.9-.747l2.6-3.126L.138,32.938a.583.583,0,0,1,.9-.747L3.5,35.153l2.468-2.962a.583.583,0,1,1,.9.747l-2.6,3.126Z" transform="translate(1013.997 356.019)" fill="#fff"/>
    </g>
    <g id="Group_536" data-name="Group 536" transform="translate(192 -193)">
      <circle id="Circle-22" data-name="Circle" cx="11.5" cy="11.5" r="11.5" transform="translate(783 474)" fill="#32cd32"/>
      <path id="Check_mark-14" data-name="Check mark" d="M3.222,72.032.139,68.95a.474.474,0,0,1,0-.671l.671-.671a.474.474,0,0,1,.671,0l2.076,2.076L8,65.237a.474.474,0,0,1,.671,0l.671.671a.474.474,0,0,1,0,.671L3.892,72.032a.474.474,0,0,1-.671,0Z" transform="translate(789.758 416.865)" fill="#fff"/>
    </g>
    <g id="Text">
      <text id="Cloud-specific_integration" data-name="Cloud-specific integration" transform="translate(789 329)" fill="#195f8c" font-size="10" font-family="Montserrat-Bold, Montserrat" font-weight="700"><tspan x="0" y="0">Cloud-specific integration</tspan></text>
      <text id="Multi-Cloud" transform="translate(789 362)" fill="#195f8c" font-size="10" font-family="Montserrat-Bold, Montserrat" font-weight="700"><tspan x="0" y="0">Multi-Cloud</tspan></text>
      <text id="Run_Containers" data-name="Run Containers" transform="translate(789 296)" fill="#195f8c" font-size="10" font-family="Montserrat-Bold, Montserrat" font-weight="700"><tspan x="0" y="0">Run Containers</tspan></text>
      <text id="Certificates_as_a_Service_" data-name="Certificates as a Service " transform="translate(789 396)" fill="#195f8c" font-size="10" font-family="Montserrat-Bold, Montserrat" font-weight="700"><tspan x="0" y="0">Certificates as a Service </tspan></text>
      <text id="Vulnerability_scanning" data-name="Vulnerability scanning" transform="translate(789 429)" fill="#195f8c" font-size="10" font-family="Montserrat-Bold, Montserrat" font-weight="700"><tspan x="0" y="0">Vulnerability scanning</tspan></text>
      <text id="Security_hardening" data-name="Security hardening" transform="translate(789 495)" fill="#195f8c" font-size="10" font-family="Montserrat-Bold, Montserrat" font-weight="700"><tspan x="0" y="0">Security hardening</tspan></text>
      <text id="Intrusion_detection" data-name="Intrusion detection" transform="translate(789 462)" fill="#195f8c" font-size="10" font-family="Montserrat-Bold, Montserrat" font-weight="700"><tspan x="0" y="0">Intrusion detection</tspan></text>
      <text id="Monitoring_Logging_stack" data-name="Monitoring &amp; Logging stack" transform="translate(789 528)" fill="#195f8c" font-size="10" font-family="Montserrat-Bold, Montserrat" font-weight="700"><tspan x="0" y="0">Monitoring &amp; Logging stack</tspan></text>
      <text id="CISO_dashboards" data-name="CISO dashboards" transform="translate(789 562)" fill="#195f8c" font-size="10" font-family="Montserrat-Bold, Montserrat" font-weight="700"><tspan x="0" y="0">CISO dashboards</tspan></text>
      <text id="Automated_backups" data-name="Automated backups" transform="translate(789 595)" fill="#195f8c" font-size="10" font-family="Montserrat-Bold, Montserrat" font-weight="700"><tspan x="0" y="0">Automated backups</tspan></text>
      <text id="IDP_Integration" data-name="IDP Integration" transform="translate(789 628)" fill="#195f8c" font-size="10" font-family="Montserrat-Bold, Montserrat" font-weight="700"><tspan x="0" y="0">IDP Integration</tspan></text>
      <text id="Compliant_Kubernetes" data-name="Compliant
Kubernetes" transform="translate(1072 241)" fill="#195f8c" font-size="10" font-family="Montserrat-Bold, Montserrat" font-weight="700"><tspan x="-27.265" y="0">Compliant</tspan><tspan x="-30.33" y="13">Kubernetes</tspan></text>
      <text id="Vanilla_Kubernetes" data-name="Vanilla
Kubernetes" transform="translate(986 241)" fill="#343434" font-size="10" font-family="Montserrat" font-weight="300"><tspan x="-16.277" y="0">Vanilla</tspan><tspan x="-28.672" y="13">Kubernetes</tspan></text>
    </g>
  </g>
</svg>
