<svg xmlns="http://www.w3.org/2000/svg" width="347.315" height="266.18" viewBox="0 0 347.315 266.18"><g transform="translate(0 0)"><path d="M181.089-147l138.865,35.011-136.8,72.52L42.223-111.99Z" transform="translate(-7.431 292.464)" fill="#15465c" fill-rule="evenodd"/><path d="M191.315-205.5l92.58,23.871-90.925,61-94.989-60.98Z" transform="translate(-17.245 302.76)" fill="#1c5e80" fill-rule="evenodd"/><path d="M312.51-104.5l34.8,44.787L173.658-18.8,0-59.713,34.805-104.5,173.658-71.79Z" transform="translate(0 284.984)" fill="#1b739d" fill-rule="evenodd"/><path d="M276.64-176.5l33.739,43.413-126.69,31.57L57-133.087,90.739-176.5l92.95,21.471Z" transform="translate(-10.032 297.656)" fill="#5ab4e0" fill-rule="evenodd"/><path d="M239.549-262.865l34.542,44.51-80.546,20.1L113-218.355l34.542-44.51c15.112-20.211,45.295-60.63,45.3-60.649S216.874-292.423,239.549-262.865Z" transform="translate(-19.888 323.531)" fill="#9aea9a" fill-rule="evenodd"/><path d="M209.809-323.256c.021.015,65.216,84.525,81.259,105.163L210.432-197.98C210.473-217.33,209.842-323.263,209.809-323.256Z" transform="translate(-36.864 323.256)" fill="#7fc77f" fill-rule="evenodd"/><path d="M303.692-176.51l33.7,43.421-126.9,31.57h0l.177-53.513Z" transform="translate(-37.048 297.658)" fill="#1b739d" fill-rule="evenodd"/><path d="M349.578-104.509l34.786,44.794L210.5-18.806l.224-52.983Z" transform="translate(-37.048 284.985)" fill="#145576" fill-rule="evenodd"/><path d="M6.531,6.76a3.7,3.7,0,0,1-1.8-.437A3.218,3.218,0,0,1,3.475,5.117,3.347,3.347,0,0,1,3.019,3.38a3.32,3.32,0,0,1,.46-1.737A3.252,3.252,0,0,1,4.742.437,3.7,3.7,0,0,1,6.54,0,3.75,3.75,0,0,1,8.014.282,3.006,3.006,0,0,1,9.141,1.1l-.789.742A2.3,2.3,0,0,0,6.6,1.07a2.462,2.462,0,0,0-1.211.3,2.13,2.13,0,0,0-.836.821,2.36,2.36,0,0,0-.3,1.192,2.36,2.36,0,0,0,.3,1.192,2.13,2.13,0,0,0,.836.821,2.462,2.462,0,0,0,1.211.3A2.287,2.287,0,0,0,8.352,4.91l.789.751a3,3,0,0,1-1.131.817A3.785,3.785,0,0,1,6.531,6.76Zm6.677,0A3.748,3.748,0,0,1,11.4,6.323a3.233,3.233,0,0,1-1.267-1.211,3.327,3.327,0,0,1-.46-1.732,3.327,3.327,0,0,1,.46-1.732A3.233,3.233,0,0,1,11.4.437a3.979,3.979,0,0,1,3.624,0,3.243,3.243,0,0,1,1.267,1.206,3.32,3.32,0,0,1,.46,1.737,3.32,3.32,0,0,1-.46,1.737A3.243,3.243,0,0,1,15.02,6.323,3.748,3.748,0,0,1,13.208,6.76Zm0-1.07a2.371,2.371,0,0,0,1.183-.3,2.139,2.139,0,0,0,.826-.826,2.367,2.367,0,0,0,.3-1.188,2.367,2.367,0,0,0-.3-1.188,2.139,2.139,0,0,0-.826-.826,2.514,2.514,0,0,0-2.366,0,2.139,2.139,0,0,0-.826.826,2.367,2.367,0,0,0-.3,1.188,2.367,2.367,0,0,0,.3,1.188,2.139,2.139,0,0,0,.826.826A2.371,2.371,0,0,0,13.208,5.689Zm10.836.976L24.035,2.31,21.875,5.915h-.545L19.171,2.366v4.3H18.007V.094h1l2.61,4.356L24.185.094h1L25.2,6.666Zm5.6-6.572a3.638,3.638,0,0,1,1.488.282,2.164,2.164,0,0,1,.972.807,2.259,2.259,0,0,1,.338,1.249A2.265,2.265,0,0,1,32.1,3.676a2.153,2.153,0,0,1-.972.812,3.638,3.638,0,0,1-1.488.282H28.158v1.9H26.937V.094Zm-.056,3.643A1.875,1.875,0,0,0,30.8,3.4a1.178,1.178,0,0,0,.413-.967,1.178,1.178,0,0,0-.413-.967,1.875,1.875,0,0,0-1.211-.338H28.158v2.61ZM33.624.094h1.221V5.633h3.436V6.666H33.624Zm5.588,0h1.221V6.666H39.212Zm7.222,5.051H43.148L42.5,6.666H41.242L44.2.094h1.2l2.967,6.572H47.091Zm-.4-.958L44.791,1.314l-1.23,2.873ZM55.007.094V6.666H54l-3.624-4.45v4.45H49.167V.094h1L53.8,4.544V.094ZM58.07,1.127H55.892V.094h5.577V1.127H59.29V6.666H58.07ZM2.263,15.181l-1.042,1.07v1.681H0V11.36H1.221v3.37l3.248-3.37H5.84L3.079,14.3l2.929,3.633H4.582Zm7.278,2.845a2.858,2.858,0,0,1-2.122-.765,2.977,2.977,0,0,1-.76-2.192V11.36H7.879v3.662q0,1.934,1.671,1.934t1.662-1.934V11.36h1.2v3.708a2.989,2.989,0,0,1-.756,2.192A2.842,2.842,0,0,1,9.541,18.026Zm9.2-3.511a1.734,1.734,0,0,1,.864.6,1.659,1.659,0,0,1,.319,1.037,1.52,1.52,0,0,1-.657,1.319,3.3,3.3,0,0,1-1.915.465H14.086V11.36h3.079a3.024,3.024,0,0,1,1.793.455,1.463,1.463,0,0,1,.629,1.253,1.646,1.646,0,0,1-.225.864A1.543,1.543,0,0,1,18.743,14.515Zm-3.436-2.2V14.13h1.727a1.756,1.756,0,0,0,.981-.23.758.758,0,0,0,.343-.671.767.767,0,0,0-.343-.681,1.756,1.756,0,0,0-.981-.23Zm1.972,4.657q1.418,0,1.418-.948t-1.418-.948H15.307v1.9Zm8.846-.066v1.023H21.2V11.36h4.8v1.023H22.416v1.709h3.173v1H22.416v1.812Zm5.626,1.023-1.343-1.925a2.5,2.5,0,0,1-.253.009H28.671v1.915H27.45V11.36h2.7a3.638,3.638,0,0,1,1.488.282,2.164,2.164,0,0,1,.972.807,2.259,2.259,0,0,1,.338,1.249,2.227,2.227,0,0,1-.361,1.277,2.151,2.151,0,0,1-1.037.8l1.512,2.159ZM31.722,13.7a1.178,1.178,0,0,0-.413-.967,1.875,1.875,0,0,0-1.211-.338H28.671v2.619H30.1a1.856,1.856,0,0,0,1.211-.343A1.192,1.192,0,0,0,31.722,13.7Zm8.4-2.338v6.572h-1l-3.624-4.45v4.45H34.277V11.36h1l3.624,4.45V11.36Zm6.658,5.549v1.023H41.846V11.36h4.8v1.023H43.067v1.709H46.24v1H43.067v1.812Zm2.659-4.516H47.256V11.36h5.577v1.033H50.655v5.539H49.434Zm9.212,4.516v1.023H53.717V11.36h4.8v1.023H54.938v1.709h3.173v1H54.938v1.812Zm3.363,1.117a5.014,5.014,0,0,1-1.469-.216,3.067,3.067,0,0,1-1.122-.573l.422-.948a3.328,3.328,0,0,0,.99.521,3.6,3.6,0,0,0,1.178.2,2.036,2.036,0,0,0,1.094-.235.711.711,0,0,0,.361-.62.6.6,0,0,0-.2-.465,1.417,1.417,0,0,0-.512-.286q-.31-.1-.845-.235a9.85,9.85,0,0,1-1.216-.357,2,2,0,0,1-.8-.559,1.5,1.5,0,0,1-.333-1.028,1.754,1.754,0,0,1,.3-.99,2,2,0,0,1,.892-.709,3.613,3.613,0,0,1,1.46-.263,4.715,4.715,0,0,1,1.183.15,3.27,3.27,0,0,1,1,.432l-.385.948a3.8,3.8,0,0,0-.9-.385,3.371,3.371,0,0,0-.911-.131,1.9,1.9,0,0,0-1.075.244.753.753,0,0,0-.352.648.586.586,0,0,0,.2.46,1.458,1.458,0,0,0,.512.282q.31.1.845.235a8.891,8.891,0,0,1,1.2.352,2.058,2.058,0,0,1,.8.559,1.472,1.472,0,0,1,.333,1.014,1.731,1.731,0,0,1-.3.986,2.012,2.012,0,0,1-.9.7A3.648,3.648,0,0,1,62.009,18.026Z" transform="translate(89.375 140.749) rotate(13.832)" fill="#fafdfd"/><g transform="translate(212.664 222.47) rotate(-14)"><path d="M14.354,4.418a4.953,4.953,0,0,0-9.848,0A4.953,4.953,0,0,0,5.051,14.3H9.428a2.765,2.765,0,0,0,0-5.531A1.613,1.613,0,1,1,10.57,6.014a.576.576,0,1,0,.817-.812A2.765,2.765,0,1,0,9.429,9.916a1.613,1.613,0,0,1,0,3.227H5.051a3.8,3.8,0,0,1,0-7.605.575.575,0,0,0,.575-.575,3.8,3.8,0,1,1,7.605,0,.576.576,0,0,0,.576.575,3.8,3.8,0,1,1,0,7.605.576.576,0,0,0,0,1.152,4.953,4.953,0,0,0,.546-9.878Z" transform="translate(0 0)" fill="#fff"/><path d="M3.859,3.152c-.283-.113-.538-.2-.906-.324-.664-.212-1.313-.453-1.313-1S2.065.989,2.714.989a2.461,2.461,0,0,1,1.7.722L4.979.876A2.942,2.942,0,0,0,2.689,0,2.035,2.035,0,0,0,.425,1.922a1.732,1.732,0,0,0,1.06,1.612,4.962,4.962,0,0,0,.919.354c.453.156,1.514.381,1.514,1.121s-.665.961-1.286.961A2.76,2.76,0,0,1,.65,5.008L0,5.8A3.219,3.219,0,0,0,2.615,7a2.862,2.862,0,0,0,1.865-.594,1.906,1.906,0,0,0,.692-1.526,1.657,1.657,0,0,0-.536-1.244A2.582,2.582,0,0,0,3.859,3.152Z" transform="translate(21.654 7.455)" fill="#fff"/><path d="M2.84,0A5.17,5.17,0,0,0,.324.679l.41.9A4.119,4.119,0,0,1,2.755,1,1.474,1.474,0,0,1,4.424,2.53V2.8l-1.8.071C1.071,2.939,0,3.6,0,4.919A2.124,2.124,0,0,0,2.317,7,2.748,2.748,0,0,0,4.452,6l.014.849H5.78V2.939A2.779,2.779,0,0,0,5.059.763,2.856,2.856,0,0,0,2.84,0Zm1.6,5.061a2.113,2.113,0,0,1-1.711.975A1.225,1.225,0,0,1,1.342,4.877c0-.635.439-1.1,1.527-1.159l1.569-.1Z" transform="translate(27.588 7.455)" fill="#fff"/><path d="M3.406,0A3.331,3.331,0,0,0,0,3.477,3.263,3.263,0,0,0,3.364,7a3.984,3.984,0,0,0,2.954-1.06l-.566-.778a3.712,3.712,0,0,1-2.219.778A2.07,2.07,0,0,1,1.37,3.8H6.544a5.856,5.856,0,0,0,.043-.594A3.065,3.065,0,0,0,3.406,0ZM1.385,2.9A1.976,1.976,0,0,1,3.367.975,1.948,1.948,0,0,1,5.3,2.9Z" transform="translate(37.835 7.455)" fill="#fff"/><path d="M3.862,3.152c-.283-.113-.538-.2-.9-.324-.665-.212-1.315-.453-1.315-1S2.068.989,2.717.989a2.464,2.464,0,0,1,1.7.722L4.982.876A2.942,2.942,0,0,0,2.692,0,2.035,2.035,0,0,0,.427,1.922a1.732,1.732,0,0,0,1.06,1.612,5.043,5.043,0,0,0,.918.354c.451.156,1.513.381,1.513,1.117s-.664.961-1.286.961A2.757,2.757,0,0,1,.651,5L0,5.8A3.219,3.219,0,0,0,2.615,7,2.859,2.859,0,0,0,4.481,6.4a1.908,1.908,0,0,0,.693-1.526,1.657,1.657,0,0,0-.538-1.244A2.566,2.566,0,0,0,3.862,3.152Z" transform="translate(44.904 7.455)" fill="#fff"/><path d="M3.711,0A2.848,2.848,0,0,0,1.329,1.188H1.3V.128H0V9.4H1.357V5.782l.014.014A2.609,2.609,0,0,0,3.689,7a3.256,3.256,0,0,0,3.265-3.52A3.212,3.212,0,0,0,3.711,0ZM3.428,5.839A2.146,2.146,0,0,1,1.294,3.464a2.145,2.145,0,1,1,4.268,0A2.147,2.147,0,0,1,3.428,5.839Z" transform="translate(50.848 7.454)" fill="#fff"/><rect width="1.357" height="6.714" transform="translate(63.301 7.582)" fill="#fff"/><path d="M3.439,0A2.264,2.264,0,0,0,1.385,1.188H1.343L1.357.128H0V6.849H1.357V3.464c0-1.286.467-2.346,1.725-2.346,1.2,0,1.4.849,1.4,1.981v3.75H5.838V2.871C5.842,1.259,5.348,0,3.439,0Z" transform="translate(65.793 7.454)" fill="#fff"/><path d="M5.611.127l.014,1.06H5.583A2.684,2.684,0,0,0,3.237,0,3.186,3.186,0,0,0,0,3.378,3.186,3.186,0,0,0,3.237,6.756a2.688,2.688,0,0,0,2.346-1.2h.028v.265A3.027,3.027,0,0,1,5.1,7.7a2.291,2.291,0,0,1-1.84.734A4.265,4.265,0,0,1,.858,7.586l-.635.947a5.157,5.157,0,0,0,3,1,3.547,3.547,0,0,0,3-1.287,4.282,4.282,0,0,0,.735-2.9V.127ZM3.52,5.647A2.085,2.085,0,0,1,1.385,3.371,2.1,2.1,0,0,1,3.52,1.081a2.1,2.1,0,0,1,2.134,2.29A2.083,2.083,0,0,1,3.52,5.654Z" transform="translate(72.395 7.455)" fill="#fff"/><path d="M.453.735A2.831,2.831,0,0,0,0,2.531V9.916H1.343V4.3h1.6V3.209h-1.6V2.46c0-.764.142-1.428,1.032-1.428a2.577,2.577,0,0,1,.566.072V.08A4.363,4.363,0,0,0,2.065,0,2.034,2.034,0,0,0,.453.735Z" transform="translate(34.508 4.388)" fill="#fff"/><path d="M1.386,1.162H1.343L1.357.13H0V6.851H1.357V3.494a3,3,0,0,1,.409-1.7,1.415,1.415,0,0,1,1.1-.566,1.779,1.779,0,0,1,.736.141V.068A2.236,2.236,0,0,0,3.038,0,1.76,1.76,0,0,0,1.386,1.162Z" transform="translate(58.556 7.452)" fill="#fff"/><ellipse cx="0.883" cy="0.883" rx="0.883" ry="0.883" transform="translate(63.088 4.388)" fill="#fff"/></g><path d="M8.989,4.347V6.666H7.769v-2.3L5.187.094h1.3L8.417,3.3,10.36.094h1.2ZM15.158,6.76a3.748,3.748,0,0,1-1.812-.437,3.233,3.233,0,0,1-1.267-1.211,3.327,3.327,0,0,1-.46-1.732,3.327,3.327,0,0,1,.46-1.732A3.233,3.233,0,0,1,13.346.437a3.979,3.979,0,0,1,3.624,0,3.243,3.243,0,0,1,1.267,1.206A3.32,3.32,0,0,1,18.7,3.38a3.32,3.32,0,0,1-.46,1.737A3.243,3.243,0,0,1,16.97,6.323,3.748,3.748,0,0,1,15.158,6.76Zm0-1.07a2.371,2.371,0,0,0,1.183-.3,2.139,2.139,0,0,0,.826-.826,2.367,2.367,0,0,0,.3-1.188,2.367,2.367,0,0,0-.3-1.188,2.139,2.139,0,0,0-.826-.826,2.514,2.514,0,0,0-2.366,0,2.139,2.139,0,0,0-.826.826,2.367,2.367,0,0,0-.3,1.188,2.367,2.367,0,0,0,.3,1.188,2.139,2.139,0,0,0,.826.826A2.371,2.371,0,0,0,15.158,5.689Zm7.67,1.07a2.858,2.858,0,0,1-2.122-.765,2.978,2.978,0,0,1-.76-2.192V.094h1.221V3.755q0,1.934,1.671,1.934T24.5,3.755V.094h1.2V3.8a2.989,2.989,0,0,1-.756,2.192A2.842,2.842,0,0,1,22.828,6.76Zm8.891-.094L30.376,4.741a2.5,2.5,0,0,1-.253.009H28.64V6.666H27.419V.094h2.7a3.638,3.638,0,0,1,1.488.282,2.164,2.164,0,0,1,.972.807,2.259,2.259,0,0,1,.338,1.249,2.227,2.227,0,0,1-.361,1.277,2.151,2.151,0,0,1-1.037.8l1.512,2.159Zm-.028-4.234a1.178,1.178,0,0,0-.413-.967,1.875,1.875,0,0,0-1.211-.338H28.64V3.746h1.427A1.856,1.856,0,0,0,31.278,3.4,1.192,1.192,0,0,0,31.691,2.432ZM2.591,18.026a5.014,5.014,0,0,1-1.469-.216A3.066,3.066,0,0,1,0,17.237l.422-.948a3.328,3.328,0,0,0,.99.521,3.6,3.6,0,0,0,1.178.2,2.036,2.036,0,0,0,1.094-.235.711.711,0,0,0,.361-.62.6.6,0,0,0-.2-.465,1.417,1.417,0,0,0-.512-.286q-.31-.1-.845-.235a9.85,9.85,0,0,1-1.216-.357,2,2,0,0,1-.8-.559,1.5,1.5,0,0,1-.333-1.028,1.754,1.754,0,0,1,.3-.99,2,2,0,0,1,.892-.709,3.613,3.613,0,0,1,1.46-.263,4.715,4.715,0,0,1,1.183.15,3.27,3.27,0,0,1,1,.432l-.385.948a3.8,3.8,0,0,0-.9-.385,3.371,3.371,0,0,0-.911-.131,1.9,1.9,0,0,0-1.075.244.753.753,0,0,0-.352.648.586.586,0,0,0,.2.46,1.458,1.458,0,0,0,.512.282q.31.1.845.235a8.891,8.891,0,0,1,1.2.352,2.058,2.058,0,0,1,.8.559,1.472,1.472,0,0,1,.333,1.014,1.731,1.731,0,0,1-.3.986,2.012,2.012,0,0,1-.9.7A3.648,3.648,0,0,1,2.591,18.026ZM11.4,16.909v1.023H6.469V11.36h4.8v1.023H7.689v1.709h3.173v1H7.689v1.812Zm5.671,1.023-1.343-1.925a2.5,2.5,0,0,1-.253.009H13.989v1.915H12.768V11.36h2.7a3.638,3.638,0,0,1,1.488.282,2.164,2.164,0,0,1,.972.807A2.259,2.259,0,0,1,18.27,13.7a2.227,2.227,0,0,1-.361,1.277,2.151,2.151,0,0,1-1.037.8l1.512,2.159ZM17.04,13.7a1.178,1.178,0,0,0-.413-.967,1.875,1.875,0,0,0-1.211-.338H13.989v2.619h1.427a1.856,1.856,0,0,0,1.211-.343A1.192,1.192,0,0,0,17.04,13.7Zm8.609-2.338-2.863,6.572h-1.2L18.711,11.36h1.324l2.188,5.07,2.206-5.07Zm.7,0h1.221v6.572H26.353ZM32.4,18.026a3.7,3.7,0,0,1-1.8-.437,3.218,3.218,0,0,1-1.258-1.206,3.524,3.524,0,0,1,0-3.474A3.252,3.252,0,0,1,30.611,11.7a3.7,3.7,0,0,1,1.8-.437,3.75,3.75,0,0,1,1.474.282,3.006,3.006,0,0,1,1.127.817l-.789.742a2.3,2.3,0,0,0-1.756-.77,2.462,2.462,0,0,0-1.211.3,2.13,2.13,0,0,0-.836.821,2.516,2.516,0,0,0,0,2.385,2.13,2.13,0,0,0,.836.821,2.462,2.462,0,0,0,1.211.3,2.287,2.287,0,0,0,1.756-.779l.789.751a3,3,0,0,1-1.131.817A3.785,3.785,0,0,1,32.4,18.026Zm8.722-1.117v1.023H36.193V11.36h4.8v1.023H37.413v1.709h3.173v1H37.413v1.812Z" transform="translate(123.613 82.274) rotate(14)" fill="#fafdfd"/><path d="M3.8,4.347V6.666H2.582v-2.3L0,.094H1.3L3.23,3.3,5.173.094h1.2ZM9.971,6.76a3.748,3.748,0,0,1-1.812-.437A3.233,3.233,0,0,1,6.891,5.112a3.327,3.327,0,0,1-.46-1.732,3.327,3.327,0,0,1,.46-1.732A3.233,3.233,0,0,1,8.159.437,3.748,3.748,0,0,1,9.971,0a3.748,3.748,0,0,1,1.812.437A3.243,3.243,0,0,1,13.05,1.643a3.32,3.32,0,0,1,.46,1.737,3.32,3.32,0,0,1-.46,1.737,3.243,3.243,0,0,1-1.267,1.206A3.748,3.748,0,0,1,9.971,6.76Zm0-1.07a2.371,2.371,0,0,0,1.183-.3,2.139,2.139,0,0,0,.826-.826,2.367,2.367,0,0,0,.3-1.188,2.367,2.367,0,0,0-.3-1.188,2.139,2.139,0,0,0-.826-.826,2.514,2.514,0,0,0-2.366,0,2.139,2.139,0,0,0-.826.826,2.367,2.367,0,0,0-.3,1.188,2.367,2.367,0,0,0,.3,1.188,2.139,2.139,0,0,0,.826.826A2.371,2.371,0,0,0,9.971,5.689Zm7.67,1.07a2.858,2.858,0,0,1-2.122-.765,2.978,2.978,0,0,1-.76-2.192V.094h1.221V3.755q0,1.934,1.671,1.934t1.662-1.934V.094h1.2V3.8a2.989,2.989,0,0,1-.756,2.192A2.842,2.842,0,0,1,17.641,6.76Zm8.891-.094L25.189,4.741a2.5,2.5,0,0,1-.253.009H23.452V6.666H22.232V.094h2.7a3.638,3.638,0,0,1,1.488.282,2.164,2.164,0,0,1,.972.807,2.259,2.259,0,0,1,.338,1.249,2.227,2.227,0,0,1-.361,1.277,2.151,2.151,0,0,1-1.037.8l1.512,2.159ZM26.5,2.432a1.178,1.178,0,0,0-.413-.967,1.875,1.875,0,0,0-1.211-.338H23.452V3.746h1.427A1.856,1.856,0,0,0,26.091,3.4,1.192,1.192,0,0,0,26.5,2.432ZM2.38,12.393H.2V11.36H5.779v1.033H3.6v5.539H2.38Zm9.257,4.516v1.023H6.708V11.36h4.8v1.023H7.929v1.709H11.1v1H7.929v1.812Zm5.633-.5H13.984l-.648,1.521H12.078l2.957-6.572h1.2L19.2,17.932H17.927Zm-.4-.958-1.239-2.873L14.4,15.453Zm9.219,2.479-.009-4.356-2.159,3.605h-.545l-2.159-3.549v4.3H20.049V11.36h1l2.61,4.356,2.563-4.356h1l.009,6.572Z" transform="translate(191.034 92.392) rotate(-14)" fill="#fafdfd"/><path d="M0,.094H1.221V6.666H0Zm8.844,0V6.666h-1L4.215,2.216v4.45H3V.094h1l3.624,4.45V.094Zm2.995,1.023v2h3.173V4.15H11.839V6.666H10.618V.094h4.8V1.117Zm9.069,5.549L19.566,4.741a2.5,2.5,0,0,1-.253.009H17.829V6.666H16.608V.094h2.7A3.638,3.638,0,0,1,20.8.376a2.164,2.164,0,0,1,.972.807,2.259,2.259,0,0,1,.338,1.249,2.227,2.227,0,0,1-.361,1.277,2.151,2.151,0,0,1-1.037.8l1.512,2.159ZM20.88,2.432a1.178,1.178,0,0,0-.413-.967,1.875,1.875,0,0,0-1.211-.338H17.829V3.746h1.427A1.856,1.856,0,0,0,20.467,3.4,1.192,1.192,0,0,0,20.88,2.432Zm6.863,2.713H24.457l-.648,1.521H22.551L25.509.094h1.2l2.967,6.572H28.4Zm-.4-.958L26.1,1.314,24.87,4.187Zm5.22,2.572a5.014,5.014,0,0,1-1.469-.216,3.066,3.066,0,0,1-1.122-.573l.422-.948a3.328,3.328,0,0,0,.99.521,3.6,3.6,0,0,0,1.178.2,2.036,2.036,0,0,0,1.094-.235.711.711,0,0,0,.361-.62.6.6,0,0,0-.2-.465A1.417,1.417,0,0,0,33.3,4.14q-.31-.1-.845-.235a9.85,9.85,0,0,1-1.216-.357,2,2,0,0,1-.8-.559,1.5,1.5,0,0,1-.333-1.028,1.754,1.754,0,0,1,.3-.99A2,2,0,0,1,31.3.263,3.613,3.613,0,0,1,32.756,0a4.715,4.715,0,0,1,1.183.15,3.27,3.27,0,0,1,1,.432l-.385.948a3.8,3.8,0,0,0-.9-.385,3.371,3.371,0,0,0-.911-.131,1.9,1.9,0,0,0-1.075.244.753.753,0,0,0-.352.648.586.586,0,0,0,.2.46,1.458,1.458,0,0,0,.512.282q.31.1.845.235a8.892,8.892,0,0,1,1.2.352,2.058,2.058,0,0,1,.8.559,1.472,1.472,0,0,1,.333,1.014,1.731,1.731,0,0,1-.3.986,2.012,2.012,0,0,1-.9.7A3.648,3.648,0,0,1,32.559,6.76Zm5.117-5.633H35.5V.094h5.577V1.127H38.9V6.666H37.676ZM46.3,6.666,44.961,4.741a2.5,2.5,0,0,1-.253.009H43.225V6.666H42V.094h2.7A3.638,3.638,0,0,1,46.2.376a2.164,2.164,0,0,1,.972.807,2.259,2.259,0,0,1,.338,1.249,2.227,2.227,0,0,1-.361,1.277,2.151,2.151,0,0,1-1.037.8l1.512,2.159Zm-.028-4.234a1.178,1.178,0,0,0-.413-.967,1.875,1.875,0,0,0-1.211-.338H43.225V3.746h1.427A1.856,1.856,0,0,0,45.863,3.4,1.192,1.192,0,0,0,46.276,2.432ZM51.7,6.76a2.858,2.858,0,0,1-2.122-.765A2.978,2.978,0,0,1,48.82,3.8V.094h1.221V3.755q0,1.934,1.671,1.934t1.662-1.934V.094h1.2V3.8a2.989,2.989,0,0,1-.756,2.192A2.842,2.842,0,0,1,51.7,6.76Zm7.633,0a3.7,3.7,0,0,1-1.8-.437,3.218,3.218,0,0,1-1.258-1.206,3.347,3.347,0,0,1-.455-1.737,3.32,3.32,0,0,1,.46-1.737A3.252,3.252,0,0,1,57.547.437,3.7,3.7,0,0,1,59.345,0a3.75,3.75,0,0,1,1.474.282,3.006,3.006,0,0,1,1.127.817l-.789.742A2.3,2.3,0,0,0,59.4,1.07a2.462,2.462,0,0,0-1.211.3,2.13,2.13,0,0,0-.836.821,2.36,2.36,0,0,0-.3,1.192,2.36,2.36,0,0,0,.3,1.192,2.13,2.13,0,0,0,.836.821,2.462,2.462,0,0,0,1.211.3,2.287,2.287,0,0,0,1.756-.779l.789.751a3,3,0,0,1-1.131.817A3.785,3.785,0,0,1,59.335,6.76Zm5.051-5.633H62.208V.094h5.577V1.127H65.607V6.666H64.386ZM71.418,6.76A2.858,2.858,0,0,1,69.3,5.995a2.977,2.977,0,0,1-.76-2.192V.094h1.221V3.755q0,1.934,1.671,1.934t1.662-1.934V.094h1.2V3.8a2.989,2.989,0,0,1-.756,2.192A2.842,2.842,0,0,1,71.418,6.76Zm8.891-.094L78.967,4.741a2.5,2.5,0,0,1-.253.009H77.23V6.666H76.009V.094h2.7A3.638,3.638,0,0,1,80.2.376a2.164,2.164,0,0,1,.972.807,2.259,2.259,0,0,1,.338,1.249,2.227,2.227,0,0,1-.361,1.277,2.151,2.151,0,0,1-1.037.8l1.512,2.159Zm-.028-4.234a1.178,1.178,0,0,0-.413-.967,1.875,1.875,0,0,0-1.211-.338H77.23V3.746h1.427A1.856,1.856,0,0,0,79.868,3.4,1.192,1.192,0,0,0,80.281,2.432Zm7.53,3.211V6.666H82.882V.094h4.8V1.117H84.1V2.826h3.173v1H84.1V5.642Z" transform="translate(51.094 208.929) rotate(13)" fill="#fafdfd"/><g transform="matrix(0.966, -0.259, 0.259, 0.966, 205.147, 155.563)"><path d="M43.028.091A5.875,5.875,0,0,0,42,0c-2.861,0-6.007,2.061-7.838,6.734q.222-.339.464-.646A5.9,5.9,0,0,1,39.2,3.617a4.637,4.637,0,0,1,.77.064,4.213,4.213,0,0,1,3.415,2.413,4.323,4.323,0,0,1-.94,4.221,5.911,5.911,0,0,1-1.471,1.312,11.89,11.89,0,0,0,5.171-3.288C49.174,4.358,47.249.843,43.028.091Z" transform="translate(-32.687)" fill="#fff"/><path d="M38.107,104.148c2.1-2.748.808-5.145-2.081-5.633a4.013,4.013,0,0,0-.666-.056c-1.852,0-3.9,1.262-5.21,4.1.034-.044.068-.088.1-.131a4.477,4.477,0,0,1,3.4-1.81,3.311,3.311,0,0,1,.445.03,2.909,2.909,0,0,1,2.448,1.651,3.129,3.129,0,0,1-.737,3.187,4.294,4.294,0,0,1-.777.753,7.677,7.677,0,0,0,3.076-2.088Z" transform="translate(-28.85 -94.215)" fill="#fff"/><path d="M6.461,166.893c1.514-1.942.678-3.562-1.3-3.829a2.7,2.7,0,0,0-.361-.024c-1.92,0-4.251,2-4.8,6.661C0,169.7,4.948,168.835,6.461,166.893Z" transform="translate(0 -156.011)" fill="#fff"/><path d="M393.977,109.05c.063-.463.4-.663.917-.663.337,0,.622.126.622.41s-.095.432-.443.547l-1.19.41.095-.7Zm-.263,2.02v-.126l1.454-.495c.979-.337,1.517-.737,1.517-1.747,0-.821-.643-1.377-1.685-1.377a2.058,2.058,0,0,0-2.244,1.64l-.253,1.81a3.522,3.522,0,0,0-.032.432c0,.851.558,1.378,1.77,1.378h1.666l.156-1.075-1.664,0c-.463,0-.685-.147-.685-.442h0Zm5.726-5.706h-2l-.158,1.073h.761l-.7,5.075h-.877l-.158,1.073h2.992l.158-1.073h-.873l.861-6.148Zm15.275-.144h-1.243l-.189,1.346h1.243l.19-1.346h0Zm-.295,2.1h-2.012l-.158,1.073h.769l-.432,3.115h-.874l-.158,1.073h3l.158-1.073h-.885l.59-4.188Zm3.137,0h0c-1.19,0-2.149.536-2.149,1.578,0,1.526,2.1,1.337,2.1,2.115,0,.442-.442.494-.821.495-.821,0-1.584,0-1.584,0l-.153,1.076,1.632,0c1.391,0,2.212-.7,2.212-1.727,0-1.568-2.107-1.431-2.107-2.1,0-.231.242-.368.769-.368.59,0,1.41,0,1.41,0l.155-1.058h-1.458Zm-10.929,0h0c-1.19,0-2.149.539-2.149,1.581,0,1.525,2.1,1.336,2.1,2.115,0,.441-.442.494-.821.494l-1.584,0-.155,1.075h1.635c1.391,0,2.212-.7,2.212-1.727,0-1.568-2.107-1.431-2.107-2.1,0-.232.242-.369.769-.369.59,0,1.41,0,1.41,0l.155-1.058s-.649,0-1.459,0h0Zm19.458,0h0c-1.19,0-2.149.536-2.149,1.578,0,1.526,2.1,1.337,2.1,2.115,0,.442-.442.494-.821.495-.821,0-1.584,0-1.584,0l-.157,1.076h1.637c1.391,0,2.212-.7,2.212-1.727,0-1.568-2.107-1.431-2.107-2.1,0-.231.242-.368.769-.368.59,0,1.41,0,1.41,0l.155-1.058h-1.459Zm-3.246,0-1.591,3.324-.653-3.324h-1.317l1.117,4.955-1.106,2.2h1.253l3.613-7.154H422.84Zm-20.1,1.831-.253,1.768a.816.816,0,0,1-.864.589c-.39,0-.664-.19-.664-.516a3.152,3.152,0,0,1,.042-.421l.242-1.589a.779.779,0,0,1,.853-.6c.379,0,.664.2.664.515a2.17,2.17,0,0,1-.021.253h0Zm.38-1.831-.105.41a1.453,1.453,0,0,0-1.064-.412,1.925,1.925,0,0,0-1.938,1.706l-.263,1.852a2.832,2.832,0,0,0-.021.284,1.369,1.369,0,0,0,1.5,1.42,1.682,1.682,0,0,0,1.17-.431l-.021.431h1.117l.748-5.26Zm6.959,3.9c0-.074.021-.242.031-.316l.358-2.525h.986l.158-1.063h-.985l.158-1.147h-1.233l-.158,1.147h-.958l-.158,1.063h.959l-.369,2.641a4.056,4.056,0,0,0-.042.442c0,.758.442,1.117,1.517,1.117.8,0,.845,0,.845,0l.145-1.073h-.642c-.495,0-.611-.084-.611-.284Z" transform="translate(-375.549 -100.684)" fill="#fff"/></g></g></svg>