<svg xmlns="http://www.w3.org/2000/svg" xmlns:xlink="http://www.w3.org/1999/xlink" width="432" height="285" viewBox="0 0 432 285"><defs><filter id="Path_5093" width="144" height="144" x="288" y="0" filterUnits="userSpaceOnUse"><feOffset dy="3"/><feGaussianBlur result="blur" stdDeviation="3"/><feFlood flood-opacity="0.161"/><feComposite in2="blur" operator="in"/><feComposite in="SourceGraphic"/></filter><filter id="Path_295" width="144" height="144" x="0" y="0" filterUnits="userSpaceOnUse"><feOffset dy="3"/><feGaussianBlur result="blur-2" stdDeviation="3"/><feFlood flood-opacity="0.161"/><feComposite in2="blur-2" operator="in"/><feComposite in="SourceGraphic"/></filter><filter id="Path_294" width="144" height="144" x="288" y="141" filterUnits="userSpaceOnUse"><feOffset dy="3"/><feGaussianBlur result="blur-3" stdDeviation="3"/><feFlood flood-opacity="0.161"/><feComposite in2="blur-3" operator="in"/><feComposite in="SourceGraphic"/></filter><filter id="Path_293" width="144" height="144" x="144" y="0" filterUnits="userSpaceOnUse"><feOffset dy="3"/><feGaussianBlur result="blur-4" stdDeviation="3"/><feFlood flood-opacity="0.161"/><feComposite in2="blur-4" operator="in"/><feComposite in="SourceGraphic"/></filter><filter id="Path_292" width="144" height="144" x="0" y="141" filterUnits="userSpaceOnUse"><feOffset dy="3"/><feGaussianBlur result="blur-5" stdDeviation="3"/><feFlood flood-opacity="0.161"/><feComposite in2="blur-5" operator="in"/><feComposite in="SourceGraphic"/></filter><filter id="Path_291" width="144" height="144" x="144" y="141" filterUnits="userSpaceOnUse"><feOffset dy="3"/><feGaussianBlur result="blur-6" stdDeviation="3"/><feFlood flood-opacity="0.161"/><feComposite in2="blur-6" operator="in"/><feComposite in="SourceGraphic"/></filter></defs><g id="safespring_key-points-dbaas" transform="translate(-89 -82)"><g id="Rutor"><g filter="url(#Path_5093)" transform="translate(89 82)"><path id="Path_5093-2" fill="#fff" d="M7 0h112a7 7 0 0 1 7 7v112a7 7 0 0 1-7 7H7a7 7 0 0 1-7-7V7a7 7 0 0 1 7-7" transform="translate(297 6)"/></g><g filter="url(#Path_295)" transform="translate(89 82)"><path id="Path_295-2" fill="#fff" d="M7 0h112a7 7 0 0 1 7 7v112a7 7 0 0 1-7 7H7a7 7 0 0 1-7-7V7a7 7 0 0 1 7-7" transform="translate(9 6)"/></g><g filter="url(#Path_294)" transform="translate(89 82)"><path id="Path_294-2" fill="#fff" d="M7 0h112a7 7 0 0 1 7 7v112a7 7 0 0 1-7 7H7a7 7 0 0 1-7-7V7a7 7 0 0 1 7-7" transform="translate(297 147)"/></g><g filter="url(#Path_293)" transform="translate(89 82)"><path id="Path_293-2" fill="#fff" d="M7 0h112a7 7 0 0 1 7 7v112a7 7 0 0 1-7 7H7a7 7 0 0 1-7-7V7a7 7 0 0 1 7-7" transform="translate(153 6)"/></g><g filter="url(#Path_292)" transform="translate(89 82)"><path id="Path_292-2" fill="#fff" d="M7 0h112a7 7 0 0 1 7 7v112a7 7 0 0 1-7 7H7a7 7 0 0 1-7-7V7a7 7 0 0 1 7-7" transform="translate(9 147)"/></g><g filter="url(#Path_291)" transform="translate(89 82)"><path id="Path_291-2" fill="#fff" d="M7 0h112a7 7 0 0 1 7 7v112a7 7 0 0 1-7 7H7a7 7 0 0 1-7-7V7a7 7 0 0 1 7-7" transform="translate(153 147)"/></g></g><g id="Ikoner"><path id="lock-open-solid" fill="#fa690f" d="M32.1 0a11.6 11.6 0 0 0-11.48 11.64v5.34H3.64A3.64 3.64 0 0 0 0 20.62v14.55a3.64 3.64 0 0 0 3.64 3.64h26.68a3.64 3.64 0 0 0 3.64-3.64V20.62a3.64 3.64 0 0 0-3.64-3.64h-3.64v-5.4a5.46 5.46 0 1 1 10.92-.06v6.07a1.8 1.8 0 0 0 1.82 1.81h2.42a1.8 1.8 0 0 0 1.82-1.82v-6.06A11.54 11.54 0 0 0 32.1 0" transform="translate(140.169 254.617)"/><path id="arrows-rotate-solid" fill="#3c9bcd" d="M55.37 16a2.8 2.8 0 0 0-2.81 2.81v6.51a19.07 19.07 0 0 0-33.6 5.29 2.81 2.81 0 0 0 5.34 1.73 13.44 13.44 0 0 1 23.72-3.69h-3.9a2.81 2.81 0 0 0 0 5.63h11.25a2.8 2.8 0 0 0 2.81-2.81V18.8a2.8 2.8 0 0 0-2.81-2.8m-1.95 24.04a2.8 2.8 0 0 0-3.54 1.81 13.44 13.44 0 0 1-23.72 3.68h3.9a2.81 2.81 0 0 0 0-5.63H18.81A2.8 2.8 0 0 0 16 42.72v12.65a2.81 2.81 0 0 0 5.62 0v-6.51a19 19 0 0 0 33.53-5.28 2.67 2.67 0 0 0-1.73-3.54" transform="translate(124.909 99.812)"/><path id="sliders-solid" fill="#195f8c" d="M0 47.15a2.5 2.5 0 0 1 2.5-2.49h4.25a6.2 6.2 0 0 1 5.71-3.74 6.3 6.3 0 0 1 5.71 3.74h19.21a2.5 2.5 0 0 1 0 4.99H18.17a6.3 6.3 0 0 1-5.7 3.73 6.2 6.2 0 0 1-5.72-3.73H2.49A2.5 2.5 0 0 1 0 47.15m14.95 0a2.5 2.5 0 1 0-2.49 2.5 2.5 2.5 0 0 0 2.5-2.5m12.46-18.69a6.3 6.3 0 0 1 5.71 3.74h4.26a2.5 2.5 0 0 1 0 4.98h-4.26a6.3 6.3 0 0 1-5.7 3.74 6.2 6.2 0 0 1-5.72-3.74H2.5a2.5 2.5 0 0 1 0-4.98h19.2a6.2 6.2 0 0 1 5.71-3.74m2.5 6.23a2.5 2.5 0 1 0-2.5 2.5 2.5 2.5 0 0 0 2.5-2.5m7.47-14.95a2.5 2.5 0 1 1 0 4.98H20.66a6.3 6.3 0 0 1-5.7 3.74 6.2 6.2 0 0 1-5.72-3.74H2.5a2.5 2.5 0 1 1 0-4.98h6.75a6.2 6.2 0 0 1 5.7-3.74 6.3 6.3 0 0 1 5.71 3.74Zm-24.92 2.5a2.5 2.5 0 1 0 2.5-2.5 2.5 2.5 0 0 0-2.5 2.5" transform="translate(430 102.457)"/><path id="gauge-high-solid-2" fill="#32cd32" d="M42.18 21.1A21.1 21.1 0 1 1 21.1 0a21.1 21.1 0 0 1 21.1 21.1M21.1 5.26a2.64 2.64 0 1 0 2.64 2.64 2.64 2.64 0 0 0-2.64-2.64m0 29a5.27 5.27 0 0 0 3.78-8.94l5.21-12a1.9 1.9 0 0 0-.94-2.62 2 2 0 0 0-2.61 1.02l-5.28 12c-.05 0-.1-.08-.16-.08A5.34 5.34 0 0 0 15.82 29a5.3 5.3 0 0 0 5.27 5.27M11.86 9.23a2.64 2.64 0 1 0 2.64 2.63 2.63 2.63 0 0 0-2.64-2.63m-3.95 14.5a2.64 2.64 0 1 0-2.64-2.64 2.63 2.63 0 0 0 2.64 2.64m26.36-5.28a2.64 2.64 0 1 0 2.64 2.64 2.63 2.63 0 0 0-2.64-2.64" transform="translate(282.909 115.812)"/><path id="Path_5430" fill="#417da5" d="M45.43 14.04a15.8 15.8 0 0 0-31.4 0 15.8 15.8 0 0 0 1.75 31.49h13.95a8.81 8.81 0 1 0 0-17.63 5.14 5.14 0 1 1 3.65-8.77 1.84 1.84 0 0 0 2.6-2.6 8.81 8.81 0 1 0-6.25 15.03 5.14 5.14 0 1 1 0 10.29H15.78a12.12 12.12 0 1 1 0-24.24 1.84 1.84 0 0 0 1.83-1.84 12.12 12.12 0 1 1 24.24 0 1.83 1.83 0 0 0 1.84 1.84 12.12 12.12 0 1 1 0 24.24 1.84 1.84 0 0 0 0 3.67 15.8 15.8 0 0 0 1.74-31.48" transform="translate(275.297 250.915)"/><path id="history-solid" fill="#3c9bcd" d="M51.82 26.27a25.5 25.5 0 0 1-41.5 19.9 2.47 2.47 0 0 1-.19-3.66l1.16-1.16a2.5 2.5 0 0 1 3.28-.2 18.92 18.92 0 1 0-1.21-28.61l5.22 5.22a1.65 1.65 0 0 1-1.16 2.8H2.47a1.65 1.65 0 0 1-1.65-1.64V3.97a1.65 1.65 0 0 1 2.81-1.16l5.08 5.07a25.5 25.5 0 0 1 43.11 18.4m-18.6 8.1 1.01-1.3a2.47 2.47 0 0 0-.43-3.46l-4.18-3.25V15.63a2.47 2.47 0 0 0-2.47-2.47H25.5a2.47 2.47 0 0 0-2.47 2.47v13.95l6.73 5.23a2.47 2.47 0 0 0 3.46-.44Z" transform="translate(423.177 247.081)"/></g><g id="Text" transform="translate(-285 -92)"><path id="Path_5436" fill="#3c9bcd" d="M-27.84 0h1.7l-3.13-7h-1.6l-3.12 7h1.66l.62-1.5h3.25Zm-3.35-2.73 1.11-2.68 1.11 2.68Zm8.74 2.85a2.9 2.9 0 0 0 3.17-3.2V-7h-1.6v3.86c0 1.33-.57 1.88-1.56 1.88S-24-1.81-24-3.14V-7h-1.62v3.92a2.9 2.9 0 0 0 3.17 3.2m6.1-.12h1.62v-5.68h2.24V-7h-6.1v1.32h2.24Zm8.02.12A3.6 3.6 0 0 0-4.5-3.5a3.6 3.6 0 0 0-3.83-3.62 3.6 3.6 0 0 0-3.83 3.62A3.6 3.6 0 0 0-8.33.12m0-1.38a2.13 2.13 0 0 1-2.19-2.24 2.13 2.13 0 0 1 2.19-2.24A2.13 2.13 0 0 1-6.14-3.5a2.13 2.13 0 0 1-2.19 2.24M4.61 0l-.02-7H3.26L.68-2.65-1.94-7h-1.34v7h1.52v-4.11L.29-.74h.73L3.08-4.2 3.09 0Zm6.89 0h1.7l-3.13-7h-1.6L5.35 0h1.66l.62-1.5h3.25ZM8.15-2.73l1.11-2.68 1.11 2.68ZM15.03 0h1.62v-5.68h2.24V-7h-6.1v1.32h2.24Zm6.34-1.3v-1.62h3.25v-1.26h-3.25V-5.7h3.68V-7h-5.29v7h5.42v-1.3Zm5.1 1.3h3.18c2.29 0 3.86-1.38 3.86-3.5S31.94-7 29.65-7h-3.18Zm1.62-1.33v-4.34h1.48a2.1 2.1 0 0 1 2.3 2.17 2.1 2.1 0 0 1-2.3 2.17Zm-58.56 14.45a3.6 3.6 0 0 0 3.83-3.62 3.6 3.6 0 0 0-3.83-3.62A3.6 3.6 0 0 0-34.3 9.5a3.6 3.6 0 0 0 3.82 3.62m0-1.38a2.13 2.13 0 0 1-2.2-2.24 2.13 2.13 0 0 1 2.2-2.24 2.13 2.13 0 0 1 2.19 2.24 2.13 2.13 0 0 1-2.2 2.24M-22.4 6h-3.03v7h1.62v-1.93h1.41c1.87 0 3.04-.97 3.04-2.53S-20.52 6-22.4 6m-.09 3.75h-1.32V7.32h1.32c.99 0 1.49.45 1.49 1.22s-.5 1.21-1.48 1.21Zm5.89 1.95v-1.62h3.25V8.82h-3.25V7.3h3.68V6h-5.28v7h5.42v-1.3ZM-5.3 13l-1.57-2.25a2.3 2.3 0 0 0 1.44-2.21C-5.43 6.97-6.6 6-8.47 6h-3.03v7h1.62v-1.95h1.49L-7.03 13Zm-1.77-4.46c0 .76-.5 1.22-1.49 1.22h-1.32V7.32h1.32c1 0 1.5.45 1.5 1.22ZM1.09 13h1.7L-.34 6h-1.6l-3.12 7h1.66l.62-1.5H.46Zm-3.35-2.73 1.1-2.68 1.12 2.68ZM4.62 13h1.62V7.32h2.24V6h-6.1v1.32h2.24Zm4.73 0h1.62V6H9.34Zm6.67.12a3.63 3.63 0 1 0 0-7.24 3.63 3.63 0 1 0 0 7.24m0-1.38a2.13 2.13 0 0 1-2.2-2.24 2.2 2.2 0 1 1 4.39 0 2.13 2.13 0 0 1-2.2 2.24M25.89 6v4.25L22.4 6h-1.34v7h1.6V8.75L26.15 13h1.34V6Zm5.56 7.12c2 0 2.97-1 2.97-2.17 0-2.57-4.08-1.68-4.08-2.97 0-.44.37-.8 1.33-.8a4 4 0 0 1 1.94.55l.5-1.23a4.7 4.7 0 0 0-2.43-.62c-1.99 0-2.95.99-2.95 2.18 0 2.6 4.07 1.7 4.07 3.01 0 .43-.39.75-1.35.75a4 4 0 0 1-2.3-.73l-.56 1.22a5 5 0 0 0 2.86.81" transform="translate(446.5 271.006)"/><path id="Path_5435" fill="#fa690f" d="M-11 .12A3.6 3.6 0 0 0-7.18-3.5 3.6 3.6 0 0 0-11-7.12a3.6 3.6 0 0 0-3.83 3.62A3.6 3.6 0 0 0-11.01.12m0-1.38a2.13 2.13 0 0 1-2.2-2.24 2.13 2.13 0 0 1 2.19-2.24 2.13 2.13 0 0 1 2.2 2.24 2.13 2.13 0 0 1-2.2 2.24M-2.93-7h-3.03v7h1.62v-1.93h1.4c1.88 0 3.05-.97 3.05-2.53S-1.05-7-2.92-7m-.1 3.75h-1.31v-2.43h1.32c.99 0 1.49.45 1.49 1.22s-.5 1.21-1.5 1.21m5.9 1.95v-1.62h3.25v-1.26H2.88V-5.7h3.68V-7h-5.3v7H6.7v-1.3ZM12.8-7v4.25L9.31-7H7.98v7h1.6v-4.25L13.08 0h1.33v-7Zm-42.5 20.12c2 0 2.97-1 2.97-2.17 0-2.57-4.07-1.68-4.07-2.97 0-.44.37-.8 1.33-.8a4 4 0 0 1 1.94.55l.5-1.23a4.7 4.7 0 0 0-2.43-.62c-1.99 0-2.95.99-2.95 2.18 0 2.6 4.07 1.7 4.07 3.01 0 .43-.39.75-1.35.75a4 4 0 0 1-2.31-.73l-.55 1.22a5 5 0 0 0 2.85.81m5.43-.12h1.62V7.32h2.24V6h-6.1v1.32h2.24Zm9.61 0h1.7l-3.13-7h-1.6l-3.12 7h1.66l.62-1.5h3.25Zm-3.35-2.73 1.11-2.68 1.11 2.68ZM-7.41 6v4.25L-10.89 6h-1.34v7h1.6V8.75L-7.14 13h1.33V6Zm3.26 7h3.18c2.29 0 3.86-1.38 3.86-3.5S1.32 6-.97 6h-3.18Zm1.62-1.33V7.33h1.48a2.1 2.1 0 0 1 2.3 2.17 2.1 2.1 0 0 1-2.3 2.17ZM9.24 13h1.7L7.81 6h-1.6l-3.12 7h1.66l.62-1.5h3.25Zm-3.35-2.73L7 7.59l1.11 2.68ZM17.87 13l-1.57-2.25a2.3 2.3 0 0 0 1.44-2.21C17.74 6.97 16.57 6 14.7 6h-3.03v7h1.62v-1.95h1.49L16.13 13ZM16.1 8.54c0 .76-.5 1.22-1.49 1.22h-1.32V7.32h1.32c.99 0 1.49.45 1.49 1.22M19.02 13h3.18c2.29 0 3.86-1.38 3.86-3.5S24.49 6 22.2 6h-3.18Zm1.62-1.33V7.33h1.48a2.1 2.1 0 0 1 2.3 2.17 2.1 2.1 0 0 1-2.3 2.17Zm8.94 1.45c2 0 2.97-1 2.97-2.17 0-2.57-4.07-1.68-4.07-2.97 0-.44.37-.8 1.33-.8a4 4 0 0 1 1.94.55l.5-1.23a4.7 4.7 0 0 0-2.43-.62c-1.99 0-2.95.99-2.95 2.18 0 2.6 4.07 1.7 4.07 3.01 0 .43-.39.75-1.35.75a4 4 0 0 1-2.31-.73l-.55 1.22a5 5 0 0 0 2.85.81" transform="translate(446 413.097)"/><path id="Path_5434" fill="#32cd32" d="M-7.94-7v2.76h-3.18V-7h-1.63v7h1.62v-2.87h3.19V0h1.62v-7Zm3.28 7h1.61v-7h-1.62Zm8-1.56a2.6 2.6 0 0 1-1.26.3A2.16 2.16 0 0 1-.18-3.5 2.15 2.15 0 0 1 2.1-5.74a2.4 2.4 0 0 1 1.8.79l1.05-.96a3.7 3.7 0 0 0-2.93-1.21A3.6 3.6 0 0 0-1.83-3.5 3.6 3.6 0 0 0 2 .12a5 5 0 0 0 2.83-.89v-2.84H3.35ZM11.13-7v2.76H7.94V-7H6.33v7h1.63v-2.87h3.18V0h1.61v-7ZM-30 13h1.7l-3.13-7h-1.6l-3.12 7h1.66l.62-1.5h3.25Zm-3.35-2.73 1.11-2.68 1.11 2.68ZM-22.83 6l-2.16 5-2.13-5h-1.75l3.02 7h1.6l3.03-7Zm7.19 7h1.7l-3.13-7h-1.6l-3.12 7h1.66l.62-1.5h3.25Zm-3.35-2.73 1.11-2.68 1.11 2.68Zm5.78 2.73h1.62V6h-1.62Zm3.28 0h5.13v-1.32h-3.51V6h-1.62ZM1.4 13h1.7L-.03 6h-1.6l-3.12 7h1.66l.62-1.5H.78Zm-3.35-2.73 1.11-2.68 1.11 2.68Zm10.92-.91a1.7 1.7 0 0 0 .93-1.54C9.9 6.73 9 6 7.25 6H3.83v7h3.62c1.84 0 2.8-.7 2.8-1.91a1.7 1.7 0 0 0-1.28-1.73M7.05 7.22q1.2 0 1.22.82c.02.82-.43.83-1.22.83H5.44V7.22Zm.28 4.56H5.44v-1.73h1.89q1.28 0 1.29.87c.01.87-.45.86-1.29.86M11.48 13h1.62V6h-1.62Zm3.28 0h5.13v-1.32h-3.51V6h-1.62Zm6.04 0h1.62V6H20.8Zm4.73 0h1.62V7.32h2.24V6h-6.1v1.32h2.24Zm10.68-7h-1.59l-1.87 3.11L30.88 6h-1.72l2.71 4.5V13h1.62v-2.48Z" transform="translate(590 272.013)"/><path id="Path_5433" fill="#3c9bcd" d="M-27.84 0h1.7l-3.13-7h-1.6l-3.12 7h1.66l.62-1.5h3.25Zm-3.35-2.73 1.11-2.68 1.11 2.68Zm8.74 2.85a2.9 2.9 0 0 0 3.17-3.2V-7h-1.6v3.86c0 1.33-.57 1.88-1.56 1.88S-24-1.81-24-3.14V-7h-1.62v3.92a2.9 2.9 0 0 0 3.17 3.2m6.1-.12h1.62v-5.68h2.24V-7h-6.1v1.32h2.24Zm8.02.12A3.6 3.6 0 0 0-4.5-3.5a3.6 3.6 0 0 0-3.83-3.62 3.6 3.6 0 0 0-3.83 3.62A3.6 3.6 0 0 0-8.33.12m0-1.38a2.13 2.13 0 0 1-2.19-2.24 2.13 2.13 0 0 1 2.19-2.24A2.13 2.13 0 0 1-6.14-3.5a2.13 2.13 0 0 1-2.19 2.24M4.61 0l-.02-7H3.26L.68-2.65-1.94-7h-1.34v7h1.52v-4.11L.29-.74h.73L3.08-4.2 3.09 0Zm6.89 0h1.7l-3.13-7h-1.6L5.35 0h1.66l.62-1.5h3.25ZM8.15-2.73l1.11-2.68 1.11 2.68ZM15.03 0h1.62v-5.68h2.24V-7h-6.1v1.32h2.24Zm6.34-1.3v-1.62h3.25v-1.26h-3.25V-5.7h3.68V-7h-5.29v7h5.42v-1.3Zm5.1 1.3h3.18c2.29 0 3.86-1.38 3.86-3.5S31.94-7 29.65-7h-3.18Zm1.62-1.33v-4.34h1.48a2.1 2.1 0 0 1 2.3 2.17 2.1 2.1 0 0 1-2.3 2.17ZM-19.74 9.36a1.7 1.7 0 0 0 .93-1.54c0-1.09-.9-1.82-2.65-1.82h-3.42v7h3.62c1.84 0 2.8-.7 2.8-1.91a1.7 1.7 0 0 0-1.28-1.73m-1.92-2.14q1.2 0 1.22.82c.02.82-.43.83-1.22.83h-1.61V7.22Zm.28 4.56h-1.89v-1.73h1.89q1.27 0 1.29.87c.02.87-.45.86-1.29.86M-12 13h1.7l-3.13-7h-1.6l-3.12 7h1.66l.62-1.5h3.25Zm-3.35-2.73 1.11-2.68 1.11 2.68Zm9.03 2.85a3.6 3.6 0 0 0 2.89-1.25l-1.04-.96a2.2 2.2 0 0 1-1.76.83A2.15 2.15 0 0 1-8.47 9.5a2.15 2.15 0 0 1 2.24-2.24 2.3 2.3 0 0 1 1.76.82l1.04-.96a3.6 3.6 0 0 0-2.88-1.24 3.6 3.6 0 0 0-3.8 3.62 3.6 3.6 0 0 0 3.79 3.62M2.45 13h1.89L1.27 9.12 4.17 6h-1.8l-3.1 3.27V6h-1.61v7h1.61v-1.77l.94-.98Zm5.62.12a2.9 2.9 0 0 0 3.17-3.2V6h-1.6v3.86c0 1.33-.57 1.88-1.56 1.88s-1.56-.55-1.56-1.88V6H4.9v3.92a2.9 2.9 0 0 0 3.17 3.2M15.87 6h-3.03v7h1.62v-1.93h1.41c1.87 0 3.04-.97 3.04-2.53S17.74 6 15.87 6m-.09 3.75h-1.32V7.32h1.32c.99 0 1.49.45 1.49 1.22s-.5 1.21-1.49 1.21m6.68 3.37c2 0 2.97-1 2.97-2.17 0-2.57-4.07-1.68-4.07-2.97 0-.44.37-.8 1.33-.8a4 4 0 0 1 1.94.55l.5-1.23a4.7 4.7 0 0 0-2.43-.62c-1.99 0-2.95.99-2.95 2.18 0 2.6 4.07 1.7 4.07 3.01 0 .43-.39.75-1.35.75a4 4 0 0 1-2.31-.73l-.55 1.22a5 5 0 0 0 2.85.81" transform="translate(734 413.097)"/><path id="Path_5432" fill="#417da5" d="M-30.45.12c2 0 2.97-1 2.97-2.17 0-2.57-4.07-1.68-4.07-2.97 0-.44.37-.8 1.33-.8a4 4 0 0 1 1.94.55l.5-1.23a4.7 4.7 0 0 0-2.43-.62c-1.99 0-2.95.99-2.95 2.18 0 2.6 4.07 1.7 4.07 3.01 0 .43-.39.75-1.35.75a4 4 0 0 1-2.31-.73l-.55 1.22a5 5 0 0 0 2.85.81m9.31-.12h1.7l-3.13-7h-1.6l-3.12 7h1.66l.62-1.5h3.25Zm-3.35-2.73 1.11-2.68 1.11 2.68Zm11.07-2.97V-7h-5.29v7h1.62v-2.55h3.24v-1.3h-3.24V-5.7Zm2.71 4.4v-1.62h3.25v-1.26h-3.25V-5.7h3.68V-7h-5.29v7h5.42v-1.3Zm7.4 1.42c2 0 2.97-1 2.97-2.17 0-2.57-4.07-1.68-4.07-2.97 0-.44.37-.8 1.33-.8a4 4 0 0 1 1.94.55l.5-1.23a4.7 4.7 0 0 0-2.43-.62c-1.99 0-2.95.99-2.95 2.18 0 2.6 4.07 1.7 4.07 3.01 0 .43-.39.75-1.35.75a4 4 0 0 1-2.31-.73l-.55 1.22a5 5 0 0 0 2.85.81M3.8-7H.77v7h1.62v-1.93H3.8c1.87 0 3.04-.97 3.04-2.53S5.67-7 3.8-7m-.09 3.75H2.39v-2.43h1.32c.99 0 1.49.45 1.49 1.22s-.5 1.21-1.49 1.21M14.19 0l-1.57-2.25a2.3 2.3 0 0 0 1.44-2.21c0-1.57-1.17-2.54-3.04-2.54H7.99v7h1.62v-1.95h1.49L12.45 0Zm-1.77-4.46c0 .76-.5 1.22-1.49 1.22H9.61v-2.44h1.32c.99 0 1.49.45 1.49 1.22M15.34 0h1.62v-7h-1.62Zm8.1-7v4.25L19.96-7h-1.34v7h1.6v-4.25L23.71 0h1.33v-7Zm7.99 5.44a2.6 2.6 0 0 1-1.26.3A2.16 2.16 0 0 1 27.9-3.5a2.15 2.15 0 0 1 2.29-2.24 2.4 2.4 0 0 1 1.81.79l1.04-.96a3.7 3.7 0 0 0-2.93-1.21 3.6 3.6 0 0 0-3.85 3.62A3.6 3.6 0 0 0 30.08.12a5 5 0 0 0 2.83-.89v-2.84h-1.48ZM-47.02 13h1.62V6h-1.63Zm8.1-7v4.25L-42.4 6h-1.35v7h1.6V8.75l3.5 4.25h1.32V6Zm8.55 1.3V6h-5.3v7h1.63v-2.55h3.23v-1.3h-3.24V7.3Zm7.3 5.7-1.57-2.25a2.3 2.3 0 0 0 1.44-2.21c0-1.57-1.17-2.54-3.04-2.54h-3.03v7h1.62v-1.95h1.49l1.35 1.95Zm-1.77-4.46c0 .76-.5 1.22-1.5 1.22h-1.31V7.32h1.32c.98 0 1.48.45 1.48 1.22M-16.7 13h1.7l-3.13-7h-1.6l-3.12 7h1.66l.62-1.5h3.25Zm-3.35-2.73 1.1-2.68 1.12 2.68Zm8.08 2.85c2 0 2.97-1 2.97-2.17 0-2.57-4.07-1.68-4.07-2.97 0-.44.37-.8 1.33-.8a4 4 0 0 1 1.94.55l.5-1.23a4.7 4.7 0 0 0-2.43-.62c-2 0-2.95.99-2.95 2.18 0 2.6 4.07 1.7 4.07 3.01 0 .43-.4.75-1.35.75a4 4 0 0 1-2.31-.73l-.55 1.22a5 5 0 0 0 2.85.81m5.43-.12h1.62V7.32h2.24V6h-6.1v1.32h2.24ZM4.4 13l-1.57-2.25a2.3 2.3 0 0 0 1.44-2.21C4.27 6.97 3.1 6 1.23 6H-1.8v7h1.62v-1.95h1.49L2.65 13ZM2.62 8.54c0 .76-.5 1.22-1.48 1.22H-.19V7.32h1.32c.99 0 1.49.45 1.49 1.22m6.04 4.58a2.9 2.9 0 0 0 3.17-3.2V6h-1.6v3.86c0 1.33-.57 1.88-1.56 1.88S7.1 11.19 7.1 9.86V6H5.49v3.92a2.9 2.9 0 0 0 3.16 3.2m8.12 0a3.6 3.6 0 0 0 2.88-1.25l-1.04-.96a2.2 2.2 0 0 1-1.76.83 2.15 2.15 0 0 1-2.24-2.24 2.15 2.15 0 0 1 2.24-2.24 2.3 2.3 0 0 1 1.76.82l1.04-.96a3.6 3.6 0 0 0-2.88-1.24 3.62 3.62 0 1 0 0 7.24m5.35-.12h1.62V7.32H26V6h-6.1v1.32h2.24Zm7.72.12a2.9 2.9 0 0 0 3.17-3.2V6h-1.6v3.86c0 1.33-.57 1.88-1.56 1.88s-1.56-.55-1.56-1.88V6h-1.62v3.92a2.9 2.9 0 0 0 3.18 3.2M40.83 13l-1.57-2.25a2.3 2.3 0 0 0 1.44-2.21C40.7 6.97 39.53 6 37.66 6h-3.03v7h1.62v-1.95h1.49L39.08 13Zm-1.77-4.46c0 .76-.5 1.22-1.5 1.22h-1.32V7.32h1.32c1 0 1.5.45 1.5 1.22m4.52 3.16v-1.62h3.26V8.82h-3.26V7.3h3.69V6h-5.3v7h5.43v-1.3Z" transform="translate(590 413.097)"/><path id="Path_5431" fill="#195f8c" d="M-24.34 0h1.7l-3.13-7h-1.6l-3.12 7h1.65l.62-1.5h3.25Zm-3.35-2.73 1.1-2.68 1.11 2.68ZM-21.91 0h3.18c2.29 0 3.86-1.38 3.86-3.5S-16.45-7-18.73-7h-3.18Zm1.62-1.33v-4.34h1.48a2.1 2.1 0 0 1 2.3 2.17 2.1 2.1 0 0 1-2.3 2.17ZM-8.77-7l-2.16 5-2.13-5h-1.74l3.02 7h1.6l3.03-7Zm7.2 7h1.7L-3-7h-1.6l-3.12 7h1.66l.62-1.5h3.25Zm-3.36-2.73 1.11-2.68 1.12 2.68ZM5.67-7v4.25L2.2-7H.85v7h1.6v-4.25L5.96 0h1.33v-7ZM12.3.12a3.6 3.6 0 0 0 2.89-1.25l-1.04-.96a2.2 2.2 0 0 1-1.76.83 2.15 2.15 0 0 1-2.24-2.24 2.15 2.15 0 0 1 2.24-2.24 2.3 2.3 0 0 1 1.76.82l1.04-.96a3.6 3.6 0 0 0-2.88-1.24A3.6 3.6 0 0 0 8.5-3.5 3.6 3.6 0 0 0 12.29.12m5.59-1.42v-1.62h3.25v-1.26h-3.25V-5.7h3.68V-7h-5.3v7h5.42v-1.3Zm5.1 1.3h3.18c2.29 0 3.86-1.38 3.86-3.5S28.45-7 26.16-7h-3.18Zm1.62-1.33v-4.34h1.48a2.1 2.1 0 0 1 2.3 2.17 2.1 2.1 0 0 1-2.3 2.17ZM-44.08 13h1.61V7.32h2.24V6h-6.1v1.32h2.24Zm10.92 0-1.57-2.25a2.3 2.3 0 0 0 1.44-2.21c0-1.57-1.17-2.54-3.04-2.54h-3.03v7h1.62v-1.95h1.5L-34.9 13Zm-1.77-4.46c0 .76-.5 1.22-1.49 1.22h-1.32V7.32h1.32c1 0 1.5.45 1.5 1.22m8.15 4.46h1.7l-3.13-7h-1.6l-3.12 7h1.66l.62-1.5h3.25Zm-3.35-2.73 1.11-2.68 1.11 2.68Zm11.07-2.97V6h-5.29v7h1.62v-2.55h3.24v-1.3h-3.24V7.3Zm1.1 5.7h1.62V6h-1.62Zm6.63.12a3.6 3.6 0 0 0 2.9-1.25l-1.05-.96a2.2 2.2 0 0 1-1.76.83 2.15 2.15 0 0 1-2.24-2.24 2.15 2.15 0 0 1 2.24-2.24 2.3 2.3 0 0 1 1.76.82l1.04-.96a3.6 3.6 0 0 0-2.88-1.24 3.6 3.6 0 0 0-3.8 3.62 3.6 3.6 0 0 0 3.8 3.62m10.16 0a3.6 3.6 0 0 0 2.9-1.25L.7 10.91a2.2 2.2 0 0 1-1.76.83A2.15 2.15 0 0 1-3.32 9.5a2.15 2.15 0 0 1 2.24-2.24 2.3 2.3 0 0 1 1.77.82l1.03-.96a3.6 3.6 0 0 0-2.87-1.24 3.6 3.6 0 0 0-3.8 3.62 3.6 3.6 0 0 0 3.79 3.62m7.22 0a3.63 3.63 0 1 0 0-7.24 3.63 3.63 0 1 0 0 7.24m0-1.38A2.13 2.13 0 0 1 3.87 9.5a2.13 2.13 0 0 1 2.19-2.24A2.13 2.13 0 0 1 8.24 9.5a2.13 2.13 0 0 1-2.19 2.24M15.93 6v4.25L12.45 6H11.1v7h1.6V8.75L16.2 13h1.33V6Zm4.7 7h1.63V7.32h2.24V6h-6.1v1.32h2.24Zm10.94 0L30 10.75a2.3 2.3 0 0 0 1.44-2.21C31.44 6.97 30.27 6 28.4 6h-3.03v7h1.62v-1.95h1.49L29.82 13ZM29.8 8.54c0 .76-.5 1.22-1.49 1.22h-1.32V7.32h1.32c.99 0 1.49.45 1.49 1.22m6.31 4.58a3.63 3.63 0 1 0 0-7.24 3.63 3.63 0 1 0 0 7.24m0-1.38a2.13 2.13 0 0 1-2.19-2.24 2.2 2.2 0 1 1 4.38 0 2.13 2.13 0 0 1-2.2 2.24ZM41.16 13h5.13v-1.32h-3.51V6h-1.62Z" transform="translate(734 272.109)"/></g></g></svg>