<svg xmlns="http://www.w3.org/2000/svg" width="739.875" height="567.034" viewBox="0 0 739.875 567.034"><defs><style>.a{fill:#15465c;}.a,.b,.c,.d,.e,.f,.g{fill-rule:evenodd;}.b{fill:#1c5e80;}.c{fill:#1b739d;}.d{fill:#5ab4e0;}.e{fill:#9aea9a;}.f{fill:#7fc77f;}.g{fill:#145576;}.h{fill:#fafdfd;}.i{fill:#fff;}</style></defs><path class="a" d="M338.044-147,633.864-72.416,342.438,82.072,42.223-72.419Z" transform="translate(31.893 456.877)"/><path class="b" d="M296.806-205.5l197.221,50.852L300.334-24.7,97.981-154.6Z" transform="translate(74.009 412.69)"/><path class="c" d="M665.731-104.5,739.875-9.092,369.937,78.055,0-9.092,74.144-104.5,369.937-34.819Z" transform="translate(0 488.979)"/><path class="d" d="M524.892-176.5l71.874,92.482L326.883-16.764,57-84.018,128.874-176.5l198.009,45.74Z" transform="translate(43.054 434.595)"/><path class="e" d="M382.584-194.315,456.168-99.5,284.584-56.679,113-99.5l73.584-94.818c32.193-43.054,96.49-129.158,96.5-129.2S334.28-257.283,382.584-194.315Z" transform="translate(85.353 323.551)"/><path class="f" d="M209.809-323.256c.044.031,138.927,180.062,173.1,224.026L211.136-56.384C211.223-97.606,209.88-323.272,209.809-323.256Z" transform="translate(158.61 323.256)"/><path class="c" d="M409.023-176.51l71.8,92.5L210.5-16.757h0l.378-114Z" transform="translate(158.999 434.588)"/><path class="g" d="M506.773-104.509l74.1,95.423L210.5,78.062l.478-112.868Z" transform="translate(158.999 488.973)"/><path class="h" d="M-17.69-14h6.12a8.782,8.782,0,0,1,3.98.87,6.439,6.439,0,0,1,2.7,2.46A6.96,6.96,0,0,1-3.93-7a6.96,6.96,0,0,1-.96,3.67A6.439,6.439,0,0,1-7.59-.87,8.782,8.782,0,0,1-11.57,0h-6.12Zm6,11.8a5.942,5.942,0,0,0,2.71-.59,4.221,4.221,0,0,0,1.8-1.68A4.965,4.965,0,0,0-6.55-7a4.965,4.965,0,0,0-.63-2.53,4.221,4.221,0,0,0-1.8-1.68,5.942,5.942,0,0,0-2.71-.59h-3.4v9.6ZM-1.15-14h2.6V0h-2.6Zm18.84,0V0H15.55L7.83-9.48V0H5.25V-14H7.39l7.72,9.48V-14ZM-46.95,12.2h-4.64V10h11.88v2.2h-4.64V24h-2.6Zm11.2,12a5.743,5.743,0,0,1-2.47-.53,4.839,4.839,0,0,1-1.85-1.49l1.48-1.78A3.374,3.374,0,0,0-35.81,22q2.18,0,2.18-2.58V12.18h-4.98V10h7.58v9.28a5.089,5.089,0,0,1-1.2,3.69A4.7,4.7,0,0,1-35.75,24.2Zm18.88-2.38V24h-10.5V10h10.22v2.18h-7.62v3.64h6.76v2.14h-6.76v3.86ZM-1.51,10V24H-3.65l-7.72-9.48V24h-2.58V10h2.14l7.72,9.48V10ZM12.77,21.82V24H2.27V10H12.49v2.18H4.87v3.64h6.76v2.14H4.87v3.86Zm7.26,2.38a10.681,10.681,0,0,1-3.13-.46,6.532,6.532,0,0,1-2.39-1.22l.9-2.02a7.09,7.09,0,0,0,2.11,1.11,7.672,7.672,0,0,0,2.51.43,4.337,4.337,0,0,0,2.33-.5,1.515,1.515,0,0,0,.77-1.32,1.278,1.278,0,0,0-.43-.99,3.019,3.019,0,0,0-1.09-.61q-.66-.22-1.8-.5a20.982,20.982,0,0,1-2.59-.76,4.262,4.262,0,0,1-1.7-1.19,3.206,3.206,0,0,1-.71-2.19,3.736,3.736,0,0,1,.63-2.11,4.263,4.263,0,0,1,1.9-1.51,7.7,7.7,0,0,1,3.11-.56,10.045,10.045,0,0,1,2.52.32,6.966,6.966,0,0,1,2.14.92l-.82,2.02a8.09,8.09,0,0,0-1.92-.82,7.182,7.182,0,0,0-1.94-.28,4.053,4.053,0,0,0-2.29.52,1.6,1.6,0,0,0-.75,1.38,1.248,1.248,0,0,0,.43.98,3.107,3.107,0,0,0,1.09.6q.66.22,1.8.5a18.941,18.941,0,0,1,2.56.75,4.384,4.384,0,0,1,1.71,1.19,3.136,3.136,0,0,1,.71,2.16,3.688,3.688,0,0,1-.63,2.1,4.285,4.285,0,0,1-1.91,1.5A7.77,7.77,0,0,1,20.03,24.2Zm10.9-12H26.29V10H38.17v2.2H33.53V24h-2.6Zm19.72,9.62V24H40.15V10H50.37v2.18H42.75v3.64h6.76v2.14H42.75v3.86Z" transform="matrix(0.968, 0.251, -0.251, 0.968, 297.203, 190.93)"/><path class="h" d="M-54.376.2a7.884,7.884,0,0,1-3.83-.93,6.856,6.856,0,0,1-2.68-2.57,7.129,7.129,0,0,1-.97-3.7,7.073,7.073,0,0,1,.98-3.7,6.928,6.928,0,0,1,2.69-2.57,7.884,7.884,0,0,1,3.83-.93,7.989,7.989,0,0,1,3.14.6,6.4,6.4,0,0,1,2.4,1.74l-1.68,1.58a4.9,4.9,0,0,0-3.74-1.64,5.244,5.244,0,0,0-2.58.63A4.538,4.538,0,0,0-58.6-9.54,5.028,5.028,0,0,0-59.236-7a5.028,5.028,0,0,0,.64,2.54,4.538,4.538,0,0,0,1.78,1.75,5.244,5.244,0,0,0,2.58.63A4.873,4.873,0,0,0-50.5-3.74l1.68,1.6A6.387,6.387,0,0,1-51.226-.4,8.062,8.062,0,0,1-54.376.2Zm14.224,0a7.983,7.983,0,0,1-3.86-.93,6.887,6.887,0,0,1-2.7-2.58A7.088,7.088,0,0,1-47.692-7a7.088,7.088,0,0,1,.98-3.69,6.887,6.887,0,0,1,2.7-2.58,7.983,7.983,0,0,1,3.86-.93,7.983,7.983,0,0,1,3.86.93,6.909,6.909,0,0,1,2.7,2.57,7.073,7.073,0,0,1,.98,3.7,7.073,7.073,0,0,1-.98,3.7,6.909,6.909,0,0,1-2.7,2.57A7.983,7.983,0,0,1-40.152.2Zm0-2.28a5.05,5.05,0,0,0,2.52-.63,4.557,4.557,0,0,0,1.76-1.76A5.043,5.043,0,0,0-35.232-7a5.043,5.043,0,0,0-.64-2.53,4.557,4.557,0,0,0-1.76-1.76,5.05,5.05,0,0,0-2.52-.63,5.05,5.05,0,0,0-2.52.63,4.557,4.557,0,0,0-1.76,1.76A5.043,5.043,0,0,0-45.072-7a5.043,5.043,0,0,0,.64,2.53,4.557,4.557,0,0,0,1.76,1.76A5.05,5.05,0,0,0-40.152-2.08ZM-17.068,0l-.02-9.28-4.6,7.68h-1.16l-4.6-7.56V0h-2.48V-14h2.14l5.56,9.28,5.46-9.28h2.14l.02,14ZM-5.144-14a7.751,7.751,0,0,1,3.17.6A4.609,4.609,0,0,1,.1-11.68a4.812,4.812,0,0,1,.72,2.66A4.825,4.825,0,0,1,.1-6.37a4.587,4.587,0,0,1-2.07,1.73,7.751,7.751,0,0,1-3.17.6H-8.3V0h-2.6V-14Zm-.12,7.76a3.994,3.994,0,0,0,2.58-.72A2.509,2.509,0,0,0-1.8-9.02a2.509,2.509,0,0,0-.88-2.06,3.994,3.994,0,0,0-2.58-.72H-8.3v5.56ZM3.34-14h2.6V-2.2h7.32V0H3.34Zm11.9,0h2.6V0h-2.6ZM30.628-3.24h-7L22.248,0h-2.68l6.3-14h2.56l6.32,14h-2.72Zm-.86-2.04-2.64-6.12-2.62,6.12ZM48.892-14V0h-2.14l-7.72-9.48V0h-2.58V-14h2.14l7.72,9.48V-14Zm6.524,2.2h-4.64V-14h11.88v2.2h-4.64V0h-2.6ZM-63.468,18.14l-2.22,2.28V24h-2.6V10h2.6v7.18l6.92-7.18h2.92l-5.88,6.26,6.24,7.74h-3.04Zm15.5,6.06a6.088,6.088,0,0,1-4.52-1.63A6.343,6.343,0,0,1-54.1,17.9V10h2.6v7.8q0,4.12,3.56,4.12,3.54,0,3.54-4.12V10h2.56v7.9a6.366,6.366,0,0,1-1.61,4.67A6.054,6.054,0,0,1-47.964,24.2Zm19.6-7.48a3.694,3.694,0,0,1,1.84,1.27,3.533,3.533,0,0,1,.68,2.21,3.238,3.238,0,0,1-1.4,2.81,7.035,7.035,0,0,1-4.08.99h-6.96V10h6.56a6.442,6.442,0,0,1,3.82.97,3.116,3.116,0,0,1,1.34,2.67,3.506,3.506,0,0,1-.48,1.84A3.286,3.286,0,0,1-28.36,16.72Zm-7.32-4.68V15.9H-32a3.74,3.74,0,0,0,2.09-.49,1.614,1.614,0,0,0,.73-1.43,1.633,1.633,0,0,0-.73-1.45A3.74,3.74,0,0,0-32,12.04Zm4.2,9.92q3.02,0,3.02-2.02t-3.02-2.02h-4.2v4.04Zm18.844-.14V24h-10.5V10h10.22v2.18h-7.62v3.64h6.76v2.14h-6.76v3.86ZM-.652,24l-2.86-4.1a5.331,5.331,0,0,1-.54.02h-3.16V24h-2.6V10h5.76a7.751,7.751,0,0,1,3.17.6,4.609,4.609,0,0,1,2.07,1.72,4.812,4.812,0,0,1,.72,2.66,4.743,4.743,0,0,1-.77,2.72,4.581,4.581,0,0,1-2.21,1.7L2.148,24Zm-.06-9.02a2.509,2.509,0,0,0-.88-2.06,3.994,3.994,0,0,0-2.58-.72h-3.04v5.58h3.04a3.955,3.955,0,0,0,2.58-.73A2.539,2.539,0,0,0-.712,14.98ZM17.172,10V24h-2.14l-7.72-9.48V24H4.732V10h2.14l7.72,9.48V10ZM31.356,21.82V24h-10.5V10h10.22v2.18h-7.62v3.64h6.76v2.14h-6.76v3.86ZM37.02,12.2H32.38V10H44.26v2.2H39.62V24h-2.6Zm19.624,9.62V24h-10.5V10h10.22v2.18h-7.62v3.64H55.5v2.14h-6.76v3.86Zm7.164,2.38a10.681,10.681,0,0,1-3.13-.46,6.532,6.532,0,0,1-2.39-1.22l.9-2.02a7.09,7.09,0,0,0,2.11,1.11,7.672,7.672,0,0,0,2.51.43,4.337,4.337,0,0,0,2.33-.5,1.515,1.515,0,0,0,.77-1.32,1.278,1.278,0,0,0-.43-.99,3.019,3.019,0,0,0-1.09-.61q-.66-.22-1.8-.5A20.982,20.982,0,0,1,61,17.36a4.262,4.262,0,0,1-1.7-1.19,3.206,3.206,0,0,1-.71-2.19,3.736,3.736,0,0,1,.63-2.11,4.263,4.263,0,0,1,1.9-1.51,7.7,7.7,0,0,1,3.11-.56,10.045,10.045,0,0,1,2.52.32,6.966,6.966,0,0,1,2.14.92l-.82,2.02a8.09,8.09,0,0,0-1.92-.82,7.182,7.182,0,0,0-1.94-.28,4.053,4.053,0,0,0-2.29.52,1.6,1.6,0,0,0-.75,1.38,1.248,1.248,0,0,0,.43.98,3.107,3.107,0,0,0,1.09.6q.66.22,1.8.5a18.941,18.941,0,0,1,2.56.75,4.384,4.384,0,0,1,1.71,1.19,3.136,3.136,0,0,1,.71,2.16,3.688,3.688,0,0,1-.63,2.1,4.285,4.285,0,0,1-1.91,1.5A7.77,7.77,0,0,1,63.808,24.2Z" transform="translate(253.307 329.946) rotate(13.832)"/><path class="h" d="M-36.292-14.7V0h-2.247l-8.106-9.954V0h-2.709V-14.7h2.247L-39-4.746V-14.7ZM-25.469.21a8.383,8.383,0,0,1-4.053-.976,7.232,7.232,0,0,1-2.835-2.709A7.443,7.443,0,0,1-33.386-7.35a7.443,7.443,0,0,1,1.029-3.874,7.232,7.232,0,0,1,2.835-2.709,8.383,8.383,0,0,1,4.053-.976,8.383,8.383,0,0,1,4.053.976,7.255,7.255,0,0,1,2.835,2.7A7.427,7.427,0,0,1-17.552-7.35a7.427,7.427,0,0,1-1.029,3.885,7.255,7.255,0,0,1-2.835,2.7A8.383,8.383,0,0,1-25.469.21Zm0-2.394a5.3,5.3,0,0,0,2.646-.661,4.784,4.784,0,0,0,1.848-1.848A5.3,5.3,0,0,0-20.3-7.35a5.3,5.3,0,0,0-.672-2.657,4.784,4.784,0,0,0-1.848-1.848,5.3,5.3,0,0,0-2.646-.662,5.3,5.3,0,0,0-2.646.662,4.784,4.784,0,0,0-1.848,1.848,5.3,5.3,0,0,0-.672,2.657,5.3,5.3,0,0,0,.672,2.656,4.784,4.784,0,0,0,1.848,1.848A5.3,5.3,0,0,0-25.469-2.184ZM-5.027,0l-3-4.3a5.6,5.6,0,0,1-.567.021h-3.318V0h-2.73V-14.7H-8.6a8.138,8.138,0,0,1,3.328.63A4.84,4.84,0,0,1-3.1-12.264a5.053,5.053,0,0,1,.756,2.793,4.981,4.981,0,0,1-.808,2.856A4.81,4.81,0,0,1-5.468-4.83L-2.087,0ZM-5.09-9.471a2.635,2.635,0,0,0-.924-2.163,4.193,4.193,0,0,0-2.709-.756h-3.192v5.859h3.192A4.152,4.152,0,0,0-6.014-7.3,2.666,2.666,0,0,0-5.09-9.471ZM.714-14.7H7.14a9.221,9.221,0,0,1,4.179.913A6.761,6.761,0,0,1,14.154-11.2,7.308,7.308,0,0,1,15.162-7.35,7.308,7.308,0,0,1,14.154-3.5,6.761,6.761,0,0,1,11.319-.913,9.221,9.221,0,0,1,7.14,0H.714Zm6.3,12.39A6.239,6.239,0,0,0,9.86-2.93a4.432,4.432,0,0,0,1.89-1.764,5.213,5.213,0,0,0,.662-2.656,5.213,5.213,0,0,0-.662-2.657,4.432,4.432,0,0,0-1.89-1.764,6.239,6.239,0,0,0-2.845-.619H3.444V-2.31ZM18.068-14.7H20.8V0h-2.73ZM29.333.21a11.215,11.215,0,0,1-3.287-.483,6.859,6.859,0,0,1-2.509-1.281l.945-2.121A7.444,7.444,0,0,0,26.7-2.51a8.056,8.056,0,0,0,2.635.452,4.554,4.554,0,0,0,2.447-.525,1.59,1.59,0,0,0,.808-1.386,1.342,1.342,0,0,0-.451-1.04,3.17,3.17,0,0,0-1.145-.64Q30.3-5.88,29.1-6.174a22.031,22.031,0,0,1-2.719-.8A4.475,4.475,0,0,1,24.6-8.222a3.366,3.366,0,0,1-.746-2.3,3.922,3.922,0,0,1,.662-2.216,4.476,4.476,0,0,1,1.995-1.585,8.082,8.082,0,0,1,3.266-.588,10.547,10.547,0,0,1,2.646.336,7.314,7.314,0,0,1,2.247.966l-.861,2.121a8.494,8.494,0,0,0-2.016-.861,7.541,7.541,0,0,0-2.037-.294,4.255,4.255,0,0,0-2.4.546,1.684,1.684,0,0,0-.788,1.449,1.31,1.31,0,0,0,.451,1.029,3.262,3.262,0,0,0,1.145.63q.693.231,1.89.525a19.888,19.888,0,0,1,2.688.788,4.6,4.6,0,0,1,1.8,1.25,3.293,3.293,0,0,1,.745,2.268,3.873,3.873,0,0,1-.661,2.2A4.5,4.5,0,0,1,32.609-.378,8.159,8.159,0,0,1,29.333.21ZM43.054-6.153,40.723-3.759V0h-2.73V-14.7h2.73v7.539L47.989-14.7h3.066L44.881-8.127,51.433,0H48.241ZM-90.266,10.3h2.73V25h-2.73Zm19.769,0V25h-2.247l-8.106-9.954V25h-2.709V10.3h2.247l8.106,9.954V10.3Zm6.686,2.289v4.473h7.1v2.31h-7.1V25h-2.73V10.3H-55.81v2.289ZM-43.537,25l-3-4.305a5.6,5.6,0,0,1-.567.021h-3.318V25h-2.73V10.3h6.048a8.138,8.138,0,0,1,3.329.63,4.84,4.84,0,0,1,2.174,1.806,5.053,5.053,0,0,1,.756,2.793,4.981,4.981,0,0,1-.808,2.856,4.81,4.81,0,0,1-2.32,1.785L-40.6,25Zm-.063-9.471a2.635,2.635,0,0,0-.924-2.163,4.193,4.193,0,0,0-2.709-.756h-3.192v5.859h3.192a4.152,4.152,0,0,0,2.709-.767A2.666,2.666,0,0,0-43.6,15.529ZM-28.262,21.6h-7.35L-37.061,25h-2.814l6.615-14.7h2.688L-23.936,25h-2.856Zm-.9-2.142-2.772-6.426-2.751,6.426ZM-17.5,25.21a11.215,11.215,0,0,1-3.287-.483A6.859,6.859,0,0,1-23.3,23.446l.945-2.121a7.444,7.444,0,0,0,2.215,1.165,8.056,8.056,0,0,0,2.635.451,4.554,4.554,0,0,0,2.446-.525,1.59,1.59,0,0,0,.809-1.386,1.342,1.342,0,0,0-.451-1.039,3.17,3.17,0,0,0-1.145-.641q-.693-.231-1.89-.525a22.031,22.031,0,0,1-2.719-.8,4.475,4.475,0,0,1-1.785-1.25,3.366,3.366,0,0,1-.746-2.3,3.922,3.922,0,0,1,.662-2.216,4.476,4.476,0,0,1,1.995-1.585,8.082,8.082,0,0,1,3.266-.588,10.547,10.547,0,0,1,2.646.336,7.314,7.314,0,0,1,2.247.966l-.861,2.121a8.494,8.494,0,0,0-2.016-.861,7.541,7.541,0,0,0-2.037-.294,4.255,4.255,0,0,0-2.4.546,1.684,1.684,0,0,0-.788,1.449,1.31,1.31,0,0,0,.451,1.029,3.262,3.262,0,0,0,1.145.63q.693.231,1.89.525a19.888,19.888,0,0,1,2.688.788,4.6,4.6,0,0,1,1.8,1.25,3.293,3.293,0,0,1,.746,2.268,3.873,3.873,0,0,1-.661,2.205,4.5,4.5,0,0,1-2.005,1.575A8.159,8.159,0,0,1-17.5,25.21Zm11.432-12.6h-4.872V10.3H1.533v2.31H-3.339V25h-2.73ZM13.217,25l-3-4.305a5.6,5.6,0,0,1-.567.021H6.329V25H3.6V10.3H9.647a8.138,8.138,0,0,1,3.328.63,4.84,4.84,0,0,1,2.174,1.806,5.053,5.053,0,0,1,.756,2.793,4.981,4.981,0,0,1-.808,2.856,4.81,4.81,0,0,1-2.321,1.785L16.157,25Zm-.063-9.471a2.635,2.635,0,0,0-.924-2.163,4.193,4.193,0,0,0-2.709-.756H6.329v5.859H9.521A4.152,4.152,0,0,0,12.23,17.7,2.666,2.666,0,0,0,13.154,15.529ZM25.28,25.21A6.393,6.393,0,0,1,20.534,23.5a6.66,6.66,0,0,1-1.7-4.9V10.3h2.73v8.19q0,4.326,3.738,4.326,3.717,0,3.717-4.326V10.3h2.688v8.295a6.685,6.685,0,0,1-1.691,4.9A6.356,6.356,0,0,1,25.28,25.21ZM40.6,18.847l-2.331,2.394V25h-2.73V10.3h2.73v7.539L45.532,10.3H48.6l-6.174,6.573L48.976,25H45.784ZM52.891,12.61H48.019V10.3H60.493v2.31H55.621V25h-2.73Zm15.716,12.6A6.393,6.393,0,0,1,63.861,23.5a6.66,6.66,0,0,1-1.7-4.9V10.3h2.73v8.19q0,4.326,3.738,4.326,3.717,0,3.717-4.326V10.3h2.688v8.295a6.685,6.685,0,0,1-1.69,4.9A6.356,6.356,0,0,1,68.607,25.21ZM88.481,25l-3-4.305a5.6,5.6,0,0,1-.567.021H81.593V25h-2.73V10.3h6.048a8.138,8.138,0,0,1,3.328.63,4.84,4.84,0,0,1,2.174,1.806,5.053,5.053,0,0,1,.756,2.793,4.981,4.981,0,0,1-.809,2.856,4.81,4.81,0,0,1-2.32,1.785L91.421,25Zm-.063-9.471a2.635,2.635,0,0,0-.924-2.163,4.193,4.193,0,0,0-2.709-.756H81.593v5.859h3.192a4.152,4.152,0,0,0,2.709-.767A2.666,2.666,0,0,0,88.418,15.529Z" transform="translate(197.223 466.076) rotate(14)"/><path class="h" d="M-21.74-14h6.12a8.782,8.782,0,0,1,3.98.87,6.439,6.439,0,0,1,2.7,2.46A6.96,6.96,0,0,1-7.98-7a6.96,6.96,0,0,1-.96,3.67,6.439,6.439,0,0,1-2.7,2.46A8.782,8.782,0,0,1-15.62,0h-6.12Zm6,11.8a5.942,5.942,0,0,0,2.71-.59,4.221,4.221,0,0,0,1.8-1.68A4.965,4.965,0,0,0-10.6-7a4.965,4.965,0,0,0-.63-2.53,4.221,4.221,0,0,0-1.8-1.68,5.942,5.942,0,0,0-2.71-.59h-3.4v9.6ZM-5.2-14h2.6V0H-5.2Zm9.24,2.2H-.6V-14H11.28v2.2H6.64V0H4.04Zm12.26,0H11.66V-14H23.54v2.2H18.9V0H16.3Zm-41.37,24h-4.64V10h11.88v2.2h-4.64V24h-2.6Zm19.72,9.62V24h-10.5V10H-5.63v2.18h-7.62v3.64h6.76v2.14h-6.76v3.86Zm12-1.06h-7L-1.73,24H-4.41l6.3-14H4.45l6.32,14H8.05Zm-.86-2.04L3.15,12.6.53,18.72ZM25.43,24l-.02-9.28-4.6,7.68H19.65l-4.6-7.56V24H12.57V10h2.14l5.56,9.28L25.73,10h2.14l.02,14Z" transform="translate(439.697 199.93) rotate(-14.51)"/><path class="h" d="M-56.49-14a7.751,7.751,0,0,1,3.17.6,4.609,4.609,0,0,1,2.07,1.72,4.812,4.812,0,0,1,.72,2.66,4.825,4.825,0,0,1-.72,2.65,4.587,4.587,0,0,1-2.07,1.73,7.751,7.751,0,0,1-3.17.6h-3.16V0h-2.6V-14Zm-.12,7.76a3.994,3.994,0,0,0,2.58-.72,2.509,2.509,0,0,0,.88-2.06,2.509,2.509,0,0,0-.88-2.06,3.994,3.994,0,0,0-2.58-.72h-3.04v5.56Zm8.7-7.76h2.6V-2.2h7.32V0h-9.92ZM-26.73-3.24h-7L-35.11,0h-2.68l6.3-14h2.56l6.32,14h-2.72Zm-.86-2.04-2.64-6.12-2.62,6.12Zm8.92-6.52h-4.64V-14h11.88v2.2h-4.64V0h-2.6Zm12.26,0h-4.64V-14H.83v2.2H-3.81V0h-2.6Zm11.82-.02v4.26h6.76v2.2H5.41V0H2.81V-14H13.03v2.18ZM21.95.2a7.983,7.983,0,0,1-3.86-.93,6.887,6.887,0,0,1-2.7-2.58A7.088,7.088,0,0,1,14.41-7a7.088,7.088,0,0,1,.98-3.69,6.887,6.887,0,0,1,2.7-2.58,7.983,7.983,0,0,1,3.86-.93,7.983,7.983,0,0,1,3.86.93,6.909,6.909,0,0,1,2.7,2.57A7.073,7.073,0,0,1,29.49-7a7.073,7.073,0,0,1-.98,3.7,6.909,6.909,0,0,1-2.7,2.57A7.983,7.983,0,0,1,21.95.2Zm0-2.28a5.05,5.05,0,0,0,2.52-.63,4.557,4.557,0,0,0,1.76-1.76A5.043,5.043,0,0,0,26.87-7a5.043,5.043,0,0,0-.64-2.53,4.557,4.557,0,0,0-1.76-1.76,5.05,5.05,0,0,0-2.52-.63,5.05,5.05,0,0,0-2.52.63,4.557,4.557,0,0,0-1.76,1.76A5.043,5.043,0,0,0,17.03-7a5.043,5.043,0,0,0,.64,2.53,4.557,4.557,0,0,0,1.76,1.76A5.05,5.05,0,0,0,21.95-2.08ZM41.43,0,38.57-4.1a5.332,5.332,0,0,1-.54.02H34.87V0h-2.6V-14h5.76a7.751,7.751,0,0,1,3.17.6,4.609,4.609,0,0,1,2.07,1.72,4.812,4.812,0,0,1,.72,2.66,4.743,4.743,0,0,1-.77,2.72,4.581,4.581,0,0,1-2.21,1.7L44.23,0Zm-.06-9.02a2.509,2.509,0,0,0-.88-2.06,3.994,3.994,0,0,0-2.58-.72H34.87v5.58h3.04a3.955,3.955,0,0,0,2.58-.73A2.539,2.539,0,0,0,41.37-9.02ZM59.77,0l-.02-9.28L55.15-1.6H53.99l-4.6-7.56V0H46.91V-14h2.14l5.56,9.28L60.07-14h2.14l.02,14Z" transform="translate(493.693 343.803) rotate(-14)"/><g transform="translate(453.031 473.921) rotate(-14)"><path class="i" d="M30.578,9.411a10.552,10.552,0,0,0-20.98,0A10.552,10.552,0,0,0,10.759,30.47h9.325a5.891,5.891,0,0,0,0-11.782,3.437,3.437,0,1,1,2.433-5.876,1.227,1.227,0,1,0,1.74-1.731,5.891,5.891,0,1,0-4.17,10.042,3.437,3.437,0,0,1,0,6.874H10.759a8.1,8.1,0,0,1,0-16.2,1.224,1.224,0,0,0,1.224-1.224,8.1,8.1,0,1,1,16.2,0A1.227,1.227,0,0,0,29.412,11.8a8.1,8.1,0,1,1,0,16.2,1.227,1.227,0,0,0,0,2.454A10.552,10.552,0,0,0,30.575,9.408Z" transform="translate(0)"/><path class="i" d="M8.221,6.714c-.6-.241-1.146-.422-1.929-.69-1.414-.452-2.8-.965-2.8-2.141s.9-1.776,2.288-1.776A5.242,5.242,0,0,1,9.4,3.645l1.206-1.779A6.266,6.266,0,0,0,5.728,0C3.2,0,.9,1.447.9,4.094A3.689,3.689,0,0,0,3.163,7.528a10.57,10.57,0,0,0,1.957.754c.965.332,3.226.811,3.226,2.388S6.928,12.716,5.6,12.716a5.879,5.879,0,0,1-4.221-2.047L0,12.355a6.857,6.857,0,0,0,5.571,2.56,6.1,6.1,0,0,0,3.974-1.266,4.061,4.061,0,0,0,1.474-3.25,3.531,3.531,0,0,0-1.143-2.65A5.5,5.5,0,0,0,8.221,6.714Z" transform="translate(46.128 15.881)"/><path class="i" d="M6.051,0A11.013,11.013,0,0,0,.69,1.447l.874,1.927A8.775,8.775,0,0,1,5.87,2.138c2.077,0,3.554,1.085,3.554,3.253v.573L5.6,6.114C2.282,6.262,0,7.679,0,10.479s2.288,4.426,4.935,4.426A5.853,5.853,0,0,0,9.485,12.78l.03,1.809h2.8V6.262c0-2.439-.57-3.642-1.535-4.637S8.429,0,6.051,0Zm3.4,10.781a4.5,4.5,0,0,1-3.645,2.077c-1.866,0-2.951-1.116-2.951-2.469S3.793,8.04,6.111,7.92l3.343-.211Z" transform="translate(58.77 15.881)"/><path class="i" d="M7.257,0A7.1,7.1,0,0,0,0,7.407c0,4.516,2.921,7.5,7.166,7.5s6.111-2.11,6.292-2.258l-1.206-1.658a7.908,7.908,0,0,1-4.727,1.658A4.409,4.409,0,0,1,2.918,8.1H13.94a12.475,12.475,0,0,0,.091-1.266A6.53,6.53,0,0,0,7.257,0ZM2.952,6.174a4.209,4.209,0,0,1,4.221-4.1,4.149,4.149,0,0,1,4.124,4.1Z" transform="translate(80.6 15.881)"/><path class="i" d="M8.227,6.714c-.6-.241-1.146-.422-1.926-.69-1.417-.452-2.8-.965-2.8-2.141s.9-1.776,2.288-1.776A5.25,5.25,0,0,1,9.406,3.645l1.206-1.779A6.266,6.266,0,0,0,5.734,0C3.2,0,.911,1.447.911,4.094A3.689,3.689,0,0,0,3.169,7.528a10.743,10.743,0,0,0,1.957.754c.962.332,3.223.811,3.223,2.379s-1.414,2.047-2.74,2.047A5.872,5.872,0,0,1,1.387,10.66L0,12.346a6.857,6.857,0,0,0,5.571,2.56,6.091,6.091,0,0,0,3.974-1.266,4.064,4.064,0,0,0,1.477-3.25,3.53,3.53,0,0,0-1.146-2.65A5.466,5.466,0,0,0,8.227,6.714Z" transform="translate(95.659 15.881)"/><path class="i" d="M7.9,0A6.066,6.066,0,0,0,2.831,2.531h-.06V.273H0V20.017H2.891v-7.7l.03.03a5.557,5.557,0,0,0,4.938,2.56c4.245,0,6.955-3.253,6.955-7.5S12.119,0,7.9,0ZM7.3,12.438c-2.861,0-4.546-2.2-4.546-5.059S4.441,2.35,7.3,2.35s4.547,2.168,4.547,5.029S10.163,12.438,7.3,12.438Z" transform="translate(108.321 15.879)"/><rect class="i" width="2.891" height="14.302" transform="translate(134.848 16.152)"/><path class="i" d="M7.326,0a4.824,4.824,0,0,0-4.375,2.53h-.09L2.891.273H0V14.59H2.891V7.379c0-2.74.995-5,3.675-5,2.557,0,2.978,1.809,2.978,4.221V14.59h2.891V6.116C12.445,2.682,11.393,0,7.326,0Z" transform="translate(140.157 15.879)"/><path class="i" d="M11.954.271l.03,2.258h-.091A5.717,5.717,0,0,0,6.895,0,6.786,6.786,0,0,0,0,7.2a6.786,6.786,0,0,0,6.895,7.2,5.726,5.726,0,0,0,5-2.56h.06V12.4A6.448,6.448,0,0,1,10.871,16.4a4.881,4.881,0,0,1-3.919,1.565,9.085,9.085,0,0,1-5.125-1.809L.473,18.176a10.986,10.986,0,0,0,6.382,2.138c3.554,0,5.33-1.444,6.385-2.741s1.565-3.015,1.565-6.171V.271ZM7.5,12.029c-2.921,0-4.546-2.138-4.546-4.848S4.576,2.3,7.5,2.3s4.546,2.168,4.546,4.878S10.449,12.044,7.5,12.044Z" transform="translate(154.221 15.881)"/><path class="i" d="M.965,1.566A6.032,6.032,0,0,0,0,5.392V21.123H2.861V9.154h3.4V6.836h-3.4V5.241c0-1.628.3-3.042,2.2-3.042a5.49,5.49,0,0,1,1.206.154V.17A9.293,9.293,0,0,0,4.4,0,4.332,4.332,0,0,0,.965,1.566Z" transform="translate(73.512 9.347)"/><path class="i" d="M2.952,2.475H2.861l.03-2.2H0V14.595H2.891V7.444a6.391,6.391,0,0,1,.871-3.618A3.014,3.014,0,0,1,6.111,2.62a3.789,3.789,0,0,1,1.568.3V.145A4.763,4.763,0,0,0,6.473,0,3.749,3.749,0,0,0,2.952,2.475Z" transform="translate(124.739 15.875)"/><ellipse class="i" cx="1.881" cy="1.881" rx="1.881" ry="1.881" transform="translate(134.395 9.348)"/></g></svg>