<svg xmlns="http://www.w3.org/2000/svg" xmlns:xlink="http://www.w3.org/1999/xlink" width="432" height="285" viewBox="0 0 432 285"><defs><style>.a{fill:#32cd32;}.b{fill:#195f8c;}.c,.g{fill:#fff;}.d{clip-path:url(#m);}.e{fill:#fa690f;}.f,.i{fill:#3c9bcd;}.f,.g{stroke:#fff;}.f{stroke-width:0;}.g{stroke-width:0.25px;}.h{clip-path:url(#n);}.j{filter:url(#k);}.k{filter:url(#i);}.l{filter:url(#g);}.m{filter:url(#e);}.n{filter:url(#c);}.o{filter:url(#a);}</style><filter id="a" x="0" y="0" width="144" height="144" filterUnits="userSpaceOnUse"><feOffset dy="3" input="SourceAlpha"/><feGaussianBlur stdDeviation="3" result="b"/><feFlood flood-opacity="0.161"/><feComposite operator="in" in2="b"/><feComposite in="SourceGraphic"/></filter><filter id="c" x="144" y="0" width="144" height="144" filterUnits="userSpaceOnUse"><feOffset dy="3" input="SourceAlpha"/><feGaussianBlur stdDeviation="3" result="d"/><feFlood flood-opacity="0.161"/><feComposite operator="in" in2="d"/><feComposite in="SourceGraphic"/></filter><filter id="e" x="288" y="141" width="144" height="144" filterUnits="userSpaceOnUse"><feOffset dy="3" input="SourceAlpha"/><feGaussianBlur stdDeviation="3" result="f"/><feFlood flood-opacity="0.161"/><feComposite operator="in" in2="f"/><feComposite in="SourceGraphic"/></filter><filter id="g" x="144" y="141" width="144" height="144" filterUnits="userSpaceOnUse"><feOffset dy="3" input="SourceAlpha"/><feGaussianBlur stdDeviation="3" result="h"/><feFlood flood-opacity="0.161"/><feComposite operator="in" in2="h"/><feComposite in="SourceGraphic"/></filter><filter id="i" x="0" y="141" width="144" height="144" filterUnits="userSpaceOnUse"><feOffset dy="3" input="SourceAlpha"/><feGaussianBlur stdDeviation="3" result="j"/><feFlood flood-opacity="0.161"/><feComposite operator="in" in2="j"/><feComposite in="SourceGraphic"/></filter><filter id="k" x="288" y="0" width="144" height="144" filterUnits="userSpaceOnUse"><feOffset dy="3" input="SourceAlpha"/><feGaussianBlur stdDeviation="3" result="l"/><feFlood flood-opacity="0.161"/><feComposite operator="in" in2="l"/><feComposite in="SourceGraphic"/></filter><clipPath id="m"><rect class="a" width="51" height="51" transform="translate(709 200)"/></clipPath><clipPath id="n"><rect class="b" width="51" height="51" transform="translate(565 200)"/></clipPath></defs><g transform="translate(-88 -261)"><g class="o" transform="matrix(1, 0, 0, 1, 88, 261)"><rect class="c" width="126" height="126" rx="7" transform="translate(9 6)"/></g><g class="n" transform="matrix(1, 0, 0, 1, 88, 261)"><rect class="c" width="126" height="126" rx="7" transform="translate(153 6)"/></g><g class="m" transform="matrix(1, 0, 0, 1, 88, 261)"><rect class="c" width="126" height="126" rx="7" transform="translate(297 147)"/></g><g class="l" transform="matrix(1, 0, 0, 1, 88, 261)"><rect class="c" width="126" height="126" rx="7" transform="translate(153 147)"/></g><g class="k" transform="matrix(1, 0, 0, 1, 88, 261)"><rect class="c" width="126" height="126" rx="7" transform="translate(9 147)"/></g><g class="j" transform="matrix(1, 0, 0, 1, 88, 261)"><rect class="c" width="126" height="126" rx="7" transform="translate(297 6)"/></g><g class="d" transform="translate(-574 226.993)"><path class="a" d="M17.85,20.4A10.2,10.2,0,1,0,7.65,10.2a10.2,10.2,0,0,0,10.2,10.2Zm7.65,5.1a5.027,5.027,0,0,1,.645-2.43,10.906,10.906,0,0,0-1.155-.12H23.659a13.872,13.872,0,0,1-11.618,0H10.71A10.712,10.712,0,0,0,0,33.658v3.317A3.825,3.825,0,0,0,3.825,40.8H26.209a5.063,5.063,0,0,1-.709-2.55Zm22.95-2.55H45.9V16.575a6.375,6.375,0,1,0-12.75,0V22.95H30.6a2.55,2.55,0,0,0-2.55,2.55V38.25A2.55,2.55,0,0,0,30.6,40.8H48.45A2.55,2.55,0,0,0,51,38.25V25.5A2.55,2.55,0,0,0,48.45,22.95ZM39.525,34.425a2.55,2.55,0,1,1,2.55-2.55A2.55,2.55,0,0,1,39.525,34.425Zm2.55-11.475h-5.1V16.575a2.55,2.55,0,0,1,5.1,0Z" transform="translate(709 205.1)"/></g><g transform="translate(5.62 85.993)"><path class="e" d="M27.761,50.987l-6.077-1.763a1.2,1.2,0,0,1-.817-1.484L34.465.9A1.2,1.2,0,0,1,35.949.083l6.077,1.763a1.2,1.2,0,0,1,.817,1.484l-13.6,46.84A1.194,1.194,0,0,1,27.761,50.987ZM16.4,39.81l4.333-4.622a1.2,1.2,0,0,0-.08-1.713l-9.025-7.939L20.658,17.6a1.187,1.187,0,0,0,.08-1.713L16.4,11.26a1.2,1.2,0,0,0-1.693-.05L.356,24.659a1.188,1.188,0,0,0,0,1.743L14.711,39.86a1.188,1.188,0,0,0,1.693-.05ZM49,39.87,63.354,26.412a1.188,1.188,0,0,0,0-1.743L49,11.2a1.206,1.206,0,0,0-1.693.05l-4.333,4.622a1.2,1.2,0,0,0,.08,1.713l9.025,7.949-9.025,7.939a1.187,1.187,0,0,0-.08,1.713l4.333,4.622A1.2,1.2,0,0,0,49,39.87Z" transform="translate(414.645 199.963)"/></g><g transform="translate(122.296 109.786)"><g transform="translate(16.326 184.752)"><path class="f" d="M38.052,184.756a2.928,2.928,0,0,0-1.115.282l-15.211,7.268a2.89,2.89,0,0,0-1.574,1.957L16.4,210.59a2.865,2.865,0,0,0,.395,2.212q.077.119.165.23l10.529,13.091a2.918,2.918,0,0,0,2.274,1.086l16.884,0a2.918,2.918,0,0,0,2.274-1.084l10.525-13.093a2.867,2.867,0,0,0,.562-2.442L56.249,194.26a2.89,2.89,0,0,0-1.574-1.957l-15.213-7.264A2.929,2.929,0,0,0,38.052,184.756Z" transform="translate(-16.326 -184.752)"/><path class="g" d="M126.156,274.06a.965.965,0,0,0-.91,1.012c0,.009,0,.017,0,.025,0,.076,0,.167,0,.233a7.6,7.6,0,0,0,.125.866,8.5,8.5,0,0,1,.1,1.652.993.993,0,0,1-.3.471l-.021.385a11.859,11.859,0,0,0-1.646.253,11.712,11.712,0,0,0-5.949,3.4c-.1-.069-.276-.195-.329-.233a.72.72,0,0,1-.541-.053,8.5,8.5,0,0,1-1.228-1.109,7.6,7.6,0,0,0-.6-.636c-.056-.048-.14-.112-.2-.161a1.083,1.083,0,0,0-.634-.239.877.877,0,0,0-.726.321.965.965,0,0,0,.224,1.342l.014.01c.06.049.134.111.189.152a7.594,7.594,0,0,0,.755.442,8.5,8.5,0,0,1,1.354.951,1.013,1.013,0,0,1,.183.525l.292.261a11.782,11.782,0,0,0-1.858,8.214l-.381.111a1.262,1.262,0,0,1-.391.395,8.5,8.5,0,0,1-1.632.268,7.614,7.614,0,0,0-.874.07c-.07.013-.167.039-.243.056l-.008,0-.014,0a.914.914,0,1,0,.4,1.774l.014,0,.018-.006c.075-.017.17-.035.235-.053a7.607,7.607,0,0,0,.817-.313,8.509,8.509,0,0,1,1.587-.467,1,1,0,0,1,.523.185l.4-.068a11.848,11.848,0,0,0,5.251,6.556l-.165.4a.9.9,0,0,1,.081.515,8.9,8.9,0,0,1-.824,1.481,7.632,7.632,0,0,0-.488.728c-.036.068-.082.173-.117.245a.914.914,0,1,0,1.644.78l0,0s0,0,0,0c.035-.071.084-.165.113-.232a7.592,7.592,0,0,0,.263-.835,6.366,6.366,0,0,1,.7-1.636.737.737,0,0,1,.392-.191l.206-.374a11.784,11.784,0,0,0,8.4.021c.058.1.166.3.195.35a.721.721,0,0,1,.465.282,8.495,8.495,0,0,1,.624,1.531,7.623,7.623,0,0,0,.265.835c.029.067.078.162.113.233a.915.915,0,1,0,1.646-.778c-.035-.072-.083-.177-.119-.245a7.6,7.6,0,0,0-.488-.726,8.506,8.506,0,0,1-.807-1.445.714.714,0,0,1,.07-.537,3.127,3.127,0,0,1-.152-.368,11.848,11.848,0,0,0,5.249-6.6c.118.019.323.055.389.068a.719.719,0,0,1,.51-.189,8.511,8.511,0,0,1,1.587.467,7.6,7.6,0,0,0,.817.315c.066.018.16.034.235.051l.018.006.014,0a.914.914,0,1,0,.4-1.774c-.078-.018-.189-.048-.265-.062a7.62,7.62,0,0,0-.873-.07,8.5,8.5,0,0,1-1.632-.268,1.021,1.021,0,0,1-.393-.395l-.368-.107a11.828,11.828,0,0,0-1.9-8.194c.094-.086.272-.243.323-.29a.719.719,0,0,1,.171-.516,8.5,8.5,0,0,1,1.354-.951,7.618,7.618,0,0,0,.757-.442c.059-.043.139-.112.2-.161a.915.915,0,1,0-1.134-1.424c-.062.049-.147.113-.2.161a7.619,7.619,0,0,0-.6.636,8.525,8.525,0,0,1-1.228,1.111,1.014,1.014,0,0,1-.553.06l-.346.247a11.932,11.932,0,0,0-7.558-3.652c-.008-.121-.019-.341-.021-.407a.72.72,0,0,1-.3-.455,8.52,8.52,0,0,1,.1-1.652,7.6,7.6,0,0,0,.125-.866c0-.073,0-.18,0-.259a.965.965,0,0,0-.91-1.012Zm-1.14,7.062-.27,4.776-.019.01a.8.8,0,0,1-1.274.615l-.008,0-3.916-2.776a9.379,9.379,0,0,1,4.517-2.461A9.6,9.6,0,0,1,125.016,281.122Zm2.282,0a9.458,9.458,0,0,1,5.455,2.63l-3.891,2.759-.014-.006a.8.8,0,0,1-1.276-.613l0,0Zm-9.19,4.412,3.576,3.2,0,.019a.8.8,0,0,1-.315,1.379l0,.016-4.583,1.323A9.377,9.377,0,0,1,118.108,285.534Zm16.071,0a9.551,9.551,0,0,1,1.372,5.918l-4.607-1.327,0-.019a.8.8,0,0,1-.315-1.379l0-.01Zm-8.756,3.443h1.465l.91,1.138-.327,1.42-1.315.632-1.319-.634-.327-1.42Zm4.7,3.895a.8.8,0,0,1,.185.014l.008-.01,4.741.8a9.389,9.389,0,0,1-3.8,4.768L129.417,294l.006-.008a.806.806,0,0,1,.7-1.121Zm-7.963.019a.8.8,0,0,1,.726,1.119l.014.017-1.821,4.4a9.428,9.428,0,0,1-3.784-4.735l4.7-.8.008.01A.812.812,0,0,1,122.156,292.893Zm3.971,1.928a.81.81,0,0,1,.735.422h.018l2.317,4.187a9.609,9.609,0,0,1-.926.259,9.415,9.415,0,0,1-5.138-.265l2.311-4.179h0A.8.8,0,0,1,126.127,294.821Z" transform="translate(-104.28 -268.5)"/></g></g><g class="h" transform="translate(-286 85.993)"><path class="b" d="M46.472,8.338,27.345.369a4.8,4.8,0,0,0-3.676,0L4.543,8.338a4.777,4.777,0,0,0-2.949,4.413C1.594,32.526,13,46.193,23.66,50.636a4.8,4.8,0,0,0,3.676,0C35.873,47.08,49.411,34.8,49.411,12.751A4.783,4.783,0,0,0,46.472,8.338ZM25.512,44.46,25.5,6.505l17.523,7.3C42.7,28.89,34.847,39.818,25.512,44.46Z" transform="translate(564.997 199.998)"/></g><path class="b" d="M30.5,8A22.5,22.5,0,1,0,53,30.5,22.5,22.5,0,0,0,30.5,8ZM46.259,18.847,40.507,24.6A11.742,11.742,0,0,0,36.4,20.493l5.752-5.752A19.814,19.814,0,0,1,46.259,18.847ZM30.5,39.21a8.71,8.71,0,1,1,8.71-8.71A8.71,8.71,0,0,1,30.5,39.21ZM18.847,14.741,24.6,20.493A11.742,11.742,0,0,0,20.493,24.6l-5.752-5.752a19.812,19.812,0,0,1,4.106-4.106ZM14.741,42.153,20.493,36.4A11.742,11.742,0,0,0,24.6,40.507l-5.752,5.752A19.814,19.814,0,0,1,14.741,42.153Zm27.412,4.106L36.4,40.507A11.742,11.742,0,0,0,40.507,36.4l5.752,5.752a19.814,19.814,0,0,1-4.106,4.106Z" transform="translate(273.5 424.993)"/><path class="i" d="M28.358,5.4H21.606a5.4,5.4,0,0,0-10.8,0H4.051A4.052,4.052,0,0,0,0,9.453V39.162a4.052,4.052,0,0,0,4.051,4.051H28.358a4.052,4.052,0,0,0,4.051-4.051V9.453A4.052,4.052,0,0,0,28.358,5.4ZM8.1,35.786a2.026,2.026,0,1,1,2.026-2.026A2.021,2.021,0,0,1,8.1,35.786Zm0-8.1a2.026,2.026,0,1,1,2.026-2.026A2.021,2.021,0,0,1,8.1,27.683Zm0-8.1a2.026,2.026,0,1,1,2.026-2.026A2.021,2.021,0,0,1,8.1,19.581Zm8.1-16.2A2.026,2.026,0,1,1,14.179,5.4,2.021,2.021,0,0,1,16.2,3.376Zm10.8,31.059a.677.677,0,0,1-.675.675H14.179a.677.677,0,0,1-.675-.675v-1.35a.677.677,0,0,1,.675-.675H26.333a.677.677,0,0,1,.675.675Zm0-8.1a.677.677,0,0,1-.675.675H14.179a.677.677,0,0,1-.675-.675v-1.35a.677.677,0,0,1,.675-.675H26.333a.677.677,0,0,1,.675.675Zm0-8.1a.677.677,0,0,1-.675.675H14.179a.677.677,0,0,1-.675-.675V16.88a.677.677,0,0,1,.675-.675H26.333a.677.677,0,0,1,.675.675Z" transform="translate(431.795 433.887)"/><path class="a" d="M-20.2-7h3.18a4.469,4.469,0,0,1,2.015.435,3.257,3.257,0,0,1,1.36,1.225A3.446,3.446,0,0,1-13.16-3.5a3.446,3.446,0,0,1-.485,1.84,3.257,3.257,0,0,1-1.36,1.225A4.469,4.469,0,0,1-17.02,0H-20.2Zm3.1,5.67a2.352,2.352,0,0,0,1.675-.585A2.066,2.066,0,0,0-14.8-3.5a2.066,2.066,0,0,0-.625-1.585A2.352,2.352,0,0,0-17.1-5.67h-1.48v4.34ZM-11.94-7h1.62V0h-1.62Zm8.01,3.39h1.48V-.77a4.228,4.228,0,0,1-1.32.66A5.125,5.125,0,0,1-5.28.12,4.092,4.092,0,0,1-7.24-.345a3.462,3.462,0,0,1-1.365-1.29A3.554,3.554,0,0,1-9.1-3.5a3.554,3.554,0,0,1,.495-1.865A3.445,3.445,0,0,1-7.23-6.655,4.172,4.172,0,0,1-5.25-7.12a4.333,4.333,0,0,1,1.67.31,3.309,3.309,0,0,1,1.26.9l-1.04.96a2.4,2.4,0,0,0-1.81-.79,2.47,2.47,0,0,0-1.19.28,2.009,2.009,0,0,0-.81.79A2.325,2.325,0,0,0-7.46-3.5a2.305,2.305,0,0,0,.29,1.16,2.051,2.051,0,0,0,.805.795A2.386,2.386,0,0,0-5.19-1.26a2.626,2.626,0,0,0,1.26-.3ZM-.95-7H.67V0H-.95ZM3.78-5.68H1.54V-7h6.1v1.32H5.4V0H3.78ZM12.77-1.5H9.52L8.9,0H7.24l3.12-7h1.6l3.13,7h-1.7Zm-.51-1.23L11.15-5.41,10.04-2.73ZM15.82-7h1.62v5.68h3.51V0H15.82ZM-33.73,13.12a5.727,5.727,0,0,1-1.6-.225,3.764,3.764,0,0,1-1.245-.585l.55-1.22a3.732,3.732,0,0,0,1.07.53,4.019,4.019,0,0,0,1.24.2,1.981,1.981,0,0,0,1.02-.2.619.619,0,0,0,.33-.545.521.521,0,0,0-.195-.415,1.478,1.478,0,0,0-.5-.265q-.3-.1-.825-.22a11.4,11.4,0,0,1-1.31-.38,2.128,2.128,0,0,1-.875-.61,1.647,1.647,0,0,1-.365-1.12,1.948,1.948,0,0,1,.33-1.1,2.22,2.22,0,0,1,.995-.785,4.06,4.06,0,0,1,1.625-.29,5.381,5.381,0,0,1,1.31.16,3.87,3.87,0,0,1,1.12.46l-.5,1.23a3.9,3.9,0,0,0-1.94-.55,1.819,1.819,0,0,0-1.005.22.672.672,0,0,0-.325.58.567.567,0,0,0,.375.535,5.888,5.888,0,0,0,1.145.345A11.4,11.4,0,0,1-32,9.24a2.169,2.169,0,0,1,.875.6,1.609,1.609,0,0,1,.365,1.11,1.911,1.911,0,0,1-.335,1.1,2.251,2.251,0,0,1-1,.785A4.1,4.1,0,0,1-33.73,13.12Zm7.19,0a3.168,3.168,0,0,1-2.335-.83,3.2,3.2,0,0,1-.835-2.37V6h1.62V9.86q0,1.88,1.56,1.88a1.462,1.462,0,0,0,1.16-.455,2.121,2.121,0,0,0,.4-1.425V6h1.6V9.92a3.2,3.2,0,0,1-.835,2.37A3.168,3.168,0,0,1-26.54,13.12ZM-15.04,6l-3.03,7h-1.6l-3.02-7h1.75l2.13,5,2.16-5Zm6,5.7V13h-5.42V6h5.29V7.3h-3.68V8.82H-9.6v1.26h-3.25V11.7ZM-3.29,13l-1.35-1.95H-6.13V13H-7.75V6h3.03A3.889,3.889,0,0,1-3.1,6.31a2.4,2.4,0,0,1,1.055.88,2.424,2.424,0,0,1,.37,1.35,2.376,2.376,0,0,1-.375,1.345,2.377,2.377,0,0,1-1.065.865L-1.55,13Zm-.03-4.46a1.109,1.109,0,0,0-.38-.9A1.7,1.7,0,0,0-4.81,7.32H-6.13V9.76h1.32A1.683,1.683,0,0,0-3.7,9.44,1.112,1.112,0,0,0-3.32,8.54ZM4.21,11.5H.96L.34,13H-1.32L1.8,6H3.4l3.13,7H4.83ZM3.7,10.27,2.59,7.59,1.48,10.27ZM1.59,5.38a.688.688,0,0,1-.5-.195.713.713,0,0,1,0-.99A.688.688,0,0,1,1.59,4a.69.69,0,1,1,0,1.38Zm2.02,0A.69.69,0,1,1,3.61,4a.688.688,0,0,1,.5.195.713.713,0,0,1,0,.99A.688.688,0,0,1,3.61,5.38ZM13.68,6v7H12.35L8.86,8.75V13H7.26V6H8.6l3.48,4.25V6Zm1.66,0h1.62v7H15.34Zm4.73,1.32H17.83V6h6.1V7.32H21.69V13H20.07ZM30.22,11.7V13H24.8V6h5.29V7.3H26.41V8.82h3.25v1.26H26.41V11.7Zm2.74-4.38H30.72V6h6.1V7.32H34.58V13H32.96Z" transform="translate(160 499.007)"/><path class="e" d="M-14.615.12A4.086,4.086,0,0,1-16.58-.35a3.488,3.488,0,0,1-1.37-1.295,3.535,3.535,0,0,1-.5-1.855,3.535,3.535,0,0,1,.5-1.855,3.488,3.488,0,0,1,1.37-1.3,4.086,4.086,0,0,1,1.965-.47,4.057,4.057,0,0,1,1.96.47,3.533,3.533,0,0,1,1.37,1.3,3.508,3.508,0,0,1,.5,1.855,3.508,3.508,0,0,1-.5,1.855A3.533,3.533,0,0,1-12.655-.35,4.057,4.057,0,0,1-14.615.12Zm0-1.38a2.221,2.221,0,0,0,1.12-.285,2.045,2.045,0,0,0,.785-.795,2.337,2.337,0,0,0,.285-1.16,2.337,2.337,0,0,0-.285-1.16,2.045,2.045,0,0,0-.785-.8,2.221,2.221,0,0,0-1.12-.285,2.221,2.221,0,0,0-1.12.285,2.045,2.045,0,0,0-.785.8,2.337,2.337,0,0,0-.285,1.16,2.337,2.337,0,0,0,.285,1.16,2.045,2.045,0,0,0,.785.795A2.221,2.221,0,0,0-14.615-1.26Zm-1.01-6.36a.688.688,0,0,1-.5-.195.662.662,0,0,1-.2-.495.662.662,0,0,1,.2-.5.688.688,0,0,1,.5-.195.671.671,0,0,1,.495.195.671.671,0,0,1,.195.5.671.671,0,0,1-.195.495A.671.671,0,0,1-15.625-7.62Zm2.02,0a.671.671,0,0,1-.495-.195.671.671,0,0,1-.2-.495.671.671,0,0,1,.2-.5A.671.671,0,0,1-13.605-9a.688.688,0,0,1,.5.195.662.662,0,0,1,.2.5.662.662,0,0,1-.2.495A.688.688,0,0,1-13.605-7.62Zm7.07.62a3.889,3.889,0,0,1,1.615.31,2.4,2.4,0,0,1,1.055.88A2.424,2.424,0,0,1-3.5-4.46a2.431,2.431,0,0,1-.37,1.345,2.356,2.356,0,0,1-1.055.88,3.944,3.944,0,0,1-1.615.3h-1.41V0h-1.62V-7Zm-.09,3.75a1.7,1.7,0,0,0,1.11-.315,1.1,1.1,0,0,0,.38-.895,1.109,1.109,0,0,0-.38-.9,1.7,1.7,0,0,0-1.11-.315h-1.32v2.43ZM.685-7A3.889,3.889,0,0,1,2.3-6.69a2.4,2.4,0,0,1,1.055.88,2.424,2.424,0,0,1,.37,1.35,2.431,2.431,0,0,1-.37,1.345,2.356,2.356,0,0,1-1.055.88,3.944,3.944,0,0,1-1.615.3H-.725V0h-1.62V-7ZM.595-3.25A1.7,1.7,0,0,0,1.7-3.565a1.1,1.1,0,0,0,.38-.895,1.109,1.109,0,0,0-.38-.9A1.7,1.7,0,0,0,.595-5.68H-.725v2.43Zm9.7,1.95V0H4.875V-7h5.29v1.3H6.485v1.52h3.25v1.26H6.485V-1.3ZM18-7V0h-1.33l-3.49-4.25V0h-1.6V-7h1.34L16.4-2.75V-7ZM-21.96,10.25l-.94.98V13h-1.61V6h1.61V9.27L-19.8,6H-18l-2.9,3.12L-17.83,13h-1.89Zm9.15,1.25h-3.25l-.62,1.5h-1.66l3.12-7h1.6l3.13,7h-1.7Zm-.51-1.23-1.11-2.68-1.11,2.68Zm-2.11-4.89a.688.688,0,0,1-.5-.195.662.662,0,0,1-.2-.495.662.662,0,0,1,.2-.5A.688.688,0,0,1-15.43,4a.671.671,0,0,1,.5.195.671.671,0,0,1,.195.5.671.671,0,0,1-.195.495A.671.671,0,0,1-15.43,5.38Zm2.02,0a.671.671,0,0,1-.495-.195.671.671,0,0,1-.2-.495.671.671,0,0,1,.2-.5A.671.671,0,0,1-13.41,4a.688.688,0,0,1,.5.195.662.662,0,0,1,.2.5.662.662,0,0,1-.2.495A.688.688,0,0,1-13.41,5.38ZM-9.76,6h1.62v5.68h3.51V13H-9.76Zm6.04,0H-2.1v5.68H1.41V13H-3.72Zm8.59,4.25-.94.98V13H2.32V6H3.93V9.27L7.03,6h1.8L5.93,9.12,9,13H7.11Zm7.99,2.87a4.086,4.086,0,0,1-1.965-.47,3.488,3.488,0,0,1-1.37-1.3A3.535,3.535,0,0,1,9.03,9.5a3.535,3.535,0,0,1,.495-1.855,3.488,3.488,0,0,1,1.37-1.3,4.332,4.332,0,0,1,3.925,0,3.57,3.57,0,0,1,0,6.3A4.057,4.057,0,0,1,12.86,13.12Zm0-1.38a2.221,2.221,0,0,0,1.12-.285,2.045,2.045,0,0,0,.785-.8,2.5,2.5,0,0,0,0-2.32,2.045,2.045,0,0,0-.785-.8,2.343,2.343,0,0,0-2.24,0,2.045,2.045,0,0,0-.785.8,2.5,2.5,0,0,0,0,2.32,2.045,2.045,0,0,0,.785.8A2.221,2.221,0,0,0,12.86,11.74ZM17.91,6h3.18a4.469,4.469,0,0,1,2.015.435,3.257,3.257,0,0,1,1.36,1.225A3.446,3.446,0,0,1,24.95,9.5a3.446,3.446,0,0,1-.485,1.84,3.257,3.257,0,0,1-1.36,1.225A4.469,4.469,0,0,1,21.09,13H17.91Zm3.1,5.67a2.352,2.352,0,0,0,1.675-.585A2.066,2.066,0,0,0,23.31,9.5a2.066,2.066,0,0,0-.625-1.585A2.352,2.352,0,0,0,21.01,7.33H19.53v4.34Z" transform="translate(451.62 358.007)"/><path class="b" d="M-18,.12a5.727,5.727,0,0,1-1.6-.225A3.764,3.764,0,0,1-20.85-.69l.55-1.22a3.732,3.732,0,0,0,1.07.53,4.019,4.019,0,0,0,1.24.2,1.981,1.981,0,0,0,1.02-.2.619.619,0,0,0,.33-.545.521.521,0,0,0-.195-.415,1.478,1.478,0,0,0-.5-.265q-.3-.1-.825-.22a11.4,11.4,0,0,1-1.31-.38,2.128,2.128,0,0,1-.875-.61,1.647,1.647,0,0,1-.365-1.12,1.948,1.948,0,0,1,.33-1.105,2.22,2.22,0,0,1,1-.785,4.06,4.06,0,0,1,1.625-.29,5.381,5.381,0,0,1,1.31.16,3.87,3.87,0,0,1,1.12.46l-.5,1.23a3.9,3.9,0,0,0-1.94-.55,1.819,1.819,0,0,0-1.005.22.672.672,0,0,0-.325.58.567.567,0,0,0,.375.535,5.888,5.888,0,0,0,1.145.345,11.4,11.4,0,0,1,1.31.38,2.169,2.169,0,0,1,.875.6,1.609,1.609,0,0,1,.365,1.11,1.911,1.911,0,0,1-.335,1.095,2.251,2.251,0,0,1-1,.785A4.1,4.1,0,0,1-18,.12ZM-7.19-7l-3.03,7h-1.6l-3.02-7h1.75l2.13,5L-8.8-7Zm6,5.7V0H-6.61V-7h5.29v1.3H-5v1.52h3.25v1.26H-5V-1.3ZM6.52-7V0H5.19L1.7-4.25V0H.1V-7H1.44L4.92-2.75V-7ZM10.48.12A5.727,5.727,0,0,1,8.875-.1,3.764,3.764,0,0,1,7.63-.69l.55-1.22a3.732,3.732,0,0,0,1.07.53,4.019,4.019,0,0,0,1.24.2,1.981,1.981,0,0,0,1.02-.2.619.619,0,0,0,.33-.545.521.521,0,0,0-.195-.415,1.478,1.478,0,0,0-.5-.265q-.305-.1-.825-.22a11.4,11.4,0,0,1-1.31-.38,2.128,2.128,0,0,1-.875-.61A1.647,1.647,0,0,1,7.77-4.94,1.948,1.948,0,0,1,8.1-6.045a2.22,2.22,0,0,1,.995-.785,4.06,4.06,0,0,1,1.625-.29,5.381,5.381,0,0,1,1.31.16,3.87,3.87,0,0,1,1.12.46l-.5,1.23a3.9,3.9,0,0,0-1.94-.55A1.819,1.819,0,0,0,9.7-5.6a.672.672,0,0,0-.325.58.567.567,0,0,0,.375.535A5.888,5.888,0,0,0,10.9-4.14a11.4,11.4,0,0,1,1.31.38,2.169,2.169,0,0,1,.875.6,1.609,1.609,0,0,1,.365,1.11,1.911,1.911,0,0,1-.335,1.095,2.251,2.251,0,0,1-1,.785A4.1,4.1,0,0,1,10.48.12Zm6.63-2.87-.94.98V0H14.56V-7h1.61v3.27L19.27-7h1.8l-2.9,3.12L21.24,0H19.35ZM-22.205,13.12a5.727,5.727,0,0,1-1.6-.225,3.764,3.764,0,0,1-1.245-.585l.55-1.22a3.732,3.732,0,0,0,1.07.53,4.019,4.019,0,0,0,1.24.2,1.981,1.981,0,0,0,1.02-.2.619.619,0,0,0,.33-.545.521.521,0,0,0-.195-.415,1.478,1.478,0,0,0-.5-.265q-.3-.1-.825-.22a11.4,11.4,0,0,1-1.31-.38,2.128,2.128,0,0,1-.875-.61,1.647,1.647,0,0,1-.365-1.12,1.948,1.948,0,0,1,.33-1.1,2.22,2.22,0,0,1,1-.785,4.06,4.06,0,0,1,1.625-.29,5.381,5.381,0,0,1,1.31.16,3.87,3.87,0,0,1,1.12.46l-.5,1.23a3.9,3.9,0,0,0-1.94-.55,1.819,1.819,0,0,0-1.005.22.672.672,0,0,0-.325.58.567.567,0,0,0,.375.535,5.888,5.888,0,0,0,1.145.345,11.4,11.4,0,0,1,1.31.38,2.169,2.169,0,0,1,.875.6,1.609,1.609,0,0,1,.365,1.11,1.911,1.911,0,0,1-.335,1.1,2.251,2.251,0,0,1-1,.785A4.1,4.1,0,0,1-22.205,13.12Zm7.19,0a3.168,3.168,0,0,1-2.335-.83,3.2,3.2,0,0,1-.835-2.37V6h1.62V9.86q0,1.88,1.56,1.88a1.462,1.462,0,0,0,1.16-.455,2.121,2.121,0,0,0,.4-1.425V6h1.6V9.92a3.2,3.2,0,0,1-.835,2.37A3.168,3.168,0,0,1-15.015,13.12ZM-7.215,6A3.889,3.889,0,0,1-5.6,6.31a2.4,2.4,0,0,1,1.055.88,2.424,2.424,0,0,1,.37,1.35,2.431,2.431,0,0,1-.37,1.345,2.356,2.356,0,0,1-1.055.88,3.944,3.944,0,0,1-1.615.3h-1.41V13h-1.62V6Zm-.09,3.75A1.7,1.7,0,0,0-6.2,9.435a1.1,1.1,0,0,0,.38-.895,1.109,1.109,0,0,0-.38-.9,1.7,1.7,0,0,0-1.11-.315h-1.32V9.75ZM0,6a3.889,3.889,0,0,1,1.615.31,2.4,2.4,0,0,1,1.055.88,2.424,2.424,0,0,1,.37,1.35,2.431,2.431,0,0,1-.37,1.345,2.356,2.356,0,0,1-1.055.88A3.944,3.944,0,0,1,0,11.07h-1.41V13h-1.62V6Zm-.09,3.75a1.7,1.7,0,0,0,1.11-.315A1.1,1.1,0,0,0,1.4,8.54a1.109,1.109,0,0,0-.38-.9A1.7,1.7,0,0,0-.085,7.32h-1.32V9.75Zm7.77,3.37a4.086,4.086,0,0,1-1.965-.47,3.488,3.488,0,0,1-1.37-1.3,3.535,3.535,0,0,1-.5-1.855,3.535,3.535,0,0,1,.5-1.855,3.488,3.488,0,0,1,1.37-1.3,4.086,4.086,0,0,1,1.965-.47,4.057,4.057,0,0,1,1.96.47,3.57,3.57,0,0,1,0,6.3A4.057,4.057,0,0,1,7.685,13.12Zm0-1.38a2.221,2.221,0,0,0,1.12-.285,2.045,2.045,0,0,0,.785-.8,2.5,2.5,0,0,0,0-2.32,2.045,2.045,0,0,0-.785-.8,2.343,2.343,0,0,0-2.24,0,2.045,2.045,0,0,0-.785.8,2.5,2.5,0,0,0,0,2.32,2.045,2.045,0,0,0,.785.8A2.221,2.221,0,0,0,7.685,11.74ZM17.195,13l-1.35-1.95h-1.49V13h-1.62V6h3.03a3.889,3.889,0,0,1,1.615.31,2.4,2.4,0,0,1,1.055.88,2.424,2.424,0,0,1,.37,1.35,2.28,2.28,0,0,1-1.44,2.21L18.935,13Zm-.03-4.46a1.109,1.109,0,0,0-.38-.9,1.7,1.7,0,0,0-1.11-.315h-1.32V9.76h1.32a1.683,1.683,0,0,0,1.11-.32A1.112,1.112,0,0,0,17.165,8.54Zm4.27-1.22H19.2V6h6.1V7.32h-2.24V13h-1.62Z" transform="translate(304 500.013)"/><path class="i" d="M-30.27.12a5.727,5.727,0,0,1-1.6-.225A3.764,3.764,0,0,1-33.12-.69l.55-1.22a3.732,3.732,0,0,0,1.07.53,4.019,4.019,0,0,0,1.24.2,1.981,1.981,0,0,0,1.02-.2.619.619,0,0,0,.33-.545.521.521,0,0,0-.195-.415,1.478,1.478,0,0,0-.5-.265q-.3-.1-.825-.22a11.4,11.4,0,0,1-1.31-.38,2.128,2.128,0,0,1-.875-.61,1.647,1.647,0,0,1-.365-1.12,1.948,1.948,0,0,1,.33-1.105,2.22,2.22,0,0,1,1-.785,4.06,4.06,0,0,1,1.625-.29,5.381,5.381,0,0,1,1.31.16,3.87,3.87,0,0,1,1.12.46l-.5,1.23a3.9,3.9,0,0,0-1.94-.55,1.819,1.819,0,0,0-1.005.22.672.672,0,0,0-.325.58.567.567,0,0,0,.375.535,5.888,5.888,0,0,0,1.145.345,11.4,11.4,0,0,1,1.31.38,2.169,2.169,0,0,1,.875.6A1.609,1.609,0,0,1-27.3-2.05a1.911,1.911,0,0,1-.335,1.095,2.251,2.251,0,0,1-1,.785A4.1,4.1,0,0,1-30.27.12Zm8.69-1.62h-3.25L-25.45,0h-1.66l3.12-7h1.6l3.13,7h-1.7Zm-.51-1.23L-23.2-5.41l-1.11,2.68ZM-24.2-7.62a.688.688,0,0,1-.5-.195.662.662,0,0,1-.2-.495.662.662,0,0,1,.2-.5A.688.688,0,0,1-24.2-9a.671.671,0,0,1,.5.195.671.671,0,0,1,.195.5.671.671,0,0,1-.195.495A.671.671,0,0,1-24.2-7.62Zm2.02,0a.671.671,0,0,1-.495-.195.671.671,0,0,1-.2-.495.671.671,0,0,1,.2-.5A.671.671,0,0,1-22.18-9a.688.688,0,0,1,.5.195.662.662,0,0,1,.2.5.662.662,0,0,1-.2.495A.688.688,0,0,1-22.18-7.62Zm6.2,4.87-.94.98V0h-1.61V-7h1.61v3.27L-13.82-7h1.8l-2.9,3.12L-11.85,0h-1.89ZM-5.71-1.3V0h-5.42V-7h5.29v1.3H-9.52v1.52h3.25v1.26H-9.52V-1.3ZM.04,0-1.31-1.95H-2.8V0H-4.42V-7h3.03a3.889,3.889,0,0,1,1.615.31,2.4,2.4,0,0,1,1.055.88,2.424,2.424,0,0,1,.37,1.35,2.376,2.376,0,0,1-.375,1.345A2.377,2.377,0,0,1,.21-2.25L1.78,0ZM.01-4.46a1.109,1.109,0,0,0-.38-.9A1.7,1.7,0,0,0-1.48-5.68H-2.8v2.44h1.32A1.683,1.683,0,0,0-.37-3.56,1.112,1.112,0,0,0,.01-4.46ZM9.35-7V0H7.73V-2.87H4.55V0H2.93V-7H4.55v2.76H7.73V-7Zm7.08,5.7V0H11.01V-7H16.3v1.3H12.62v1.52h3.25v1.26H12.62V-1.3Zm2.74-4.38H16.93V-7h6.1v1.32H20.79V0H19.17ZM26.15.12a5.727,5.727,0,0,1-1.6-.225A3.764,3.764,0,0,1,23.3-.69l.55-1.22a3.732,3.732,0,0,0,1.07.53,4.019,4.019,0,0,0,1.24.2,1.981,1.981,0,0,0,1.02-.2.619.619,0,0,0,.33-.545.521.521,0,0,0-.195-.415,1.478,1.478,0,0,0-.5-.265q-.3-.1-.825-.22a11.4,11.4,0,0,1-1.31-.38,2.128,2.128,0,0,1-.875-.61,1.647,1.647,0,0,1-.365-1.12,1.948,1.948,0,0,1,.33-1.105,2.22,2.22,0,0,1,1-.785,4.06,4.06,0,0,1,1.625-.29,5.381,5.381,0,0,1,1.31.16,3.87,3.87,0,0,1,1.12.46l-.5,1.23a3.9,3.9,0,0,0-1.94-.55,1.819,1.819,0,0,0-1.005.22.672.672,0,0,0-.325.58.567.567,0,0,0,.375.535,5.888,5.888,0,0,0,1.145.345,11.4,11.4,0,0,1,1.31.38,2.169,2.169,0,0,1,.875.6,1.609,1.609,0,0,1,.365,1.11,1.911,1.911,0,0,1-.335,1.095,2.251,2.251,0,0,1-1,.785A4.1,4.1,0,0,1,26.15.12Zm3.91-3.56h2.83v1.25H30.06ZM-16.335,6v7h-1.62V10.13h-3.18V13h-1.62V6h1.62V8.76h3.18V6Zm6.27,5.5h-3.25l-.62,1.5h-1.66l3.12-7h1.6l3.13,7h-1.7Zm-.51-1.23-1.11-2.68-1.11,2.68Zm-2.11-4.89a.688.688,0,0,1-.5-.195.662.662,0,0,1-.2-.495.662.662,0,0,1,.2-.5.688.688,0,0,1,.5-.195.671.671,0,0,1,.5.195.671.671,0,0,1,.195.5.671.671,0,0,1-.195.495A.671.671,0,0,1-12.685,5.38Zm2.02,0a.671.671,0,0,1-.495-.195.671.671,0,0,1-.2-.495.671.671,0,0,1,.2-.5A.671.671,0,0,1-10.665,4a.688.688,0,0,1,.5.195.662.662,0,0,1,.2.5.662.662,0,0,1-.2.495A.688.688,0,0,1-10.665,5.38ZM-2.555,13-3.9,11.05h-1.49V13h-1.62V6h3.03a3.889,3.889,0,0,1,1.615.31,2.4,2.4,0,0,1,1.055.88,2.424,2.424,0,0,1,.37,1.35A2.376,2.376,0,0,1-1.32,9.885a2.377,2.377,0,0,1-1.065.865L-.815,13Zm-.03-4.46a1.109,1.109,0,0,0-.38-.9,1.7,1.7,0,0,0-1.11-.315h-1.32V9.76h1.32a1.683,1.683,0,0,0,1.11-.32A1.112,1.112,0,0,0-2.585,8.54ZM.335,6h3.18a4.469,4.469,0,0,1,2.015.435A3.257,3.257,0,0,1,6.89,7.66,3.446,3.446,0,0,1,7.375,9.5a3.446,3.446,0,0,1-.485,1.84,3.257,3.257,0,0,1-1.36,1.225A4.469,4.469,0,0,1,3.515,13H.335Zm3.1,5.67a2.352,2.352,0,0,0,1.675-.585A2.066,2.066,0,0,0,5.735,9.5,2.066,2.066,0,0,0,5.11,7.915,2.352,2.352,0,0,0,3.435,7.33H1.955v4.34Zm9.67-.17H9.855L9.235,13H7.575L10.7,6h1.6l3.13,7h-1.7Zm-.51-1.23-1.11-2.68-1.11,2.68ZM16.155,6h3.18a4.469,4.469,0,0,1,2.015.435A3.257,3.257,0,0,1,22.71,7.66a3.446,3.446,0,0,1,.485,1.84,3.446,3.446,0,0,1-.485,1.84,3.257,3.257,0,0,1-1.36,1.225A4.469,4.469,0,0,1,19.335,13h-3.18Zm3.1,5.67a2.352,2.352,0,0,0,1.675-.585A2.066,2.066,0,0,0,21.555,9.5a2.066,2.066,0,0,0-.625-1.585,2.352,2.352,0,0,0-1.675-.585h-1.48v4.34Z" transform="translate(448 500.013)"/><path class="i" d="M-34.375.12A4.021,4.021,0,0,1-36.31-.345a3.47,3.47,0,0,1-1.36-1.29A3.554,3.554,0,0,1-38.165-3.5a3.554,3.554,0,0,1,.495-1.865,3.47,3.47,0,0,1,1.36-1.29,4.042,4.042,0,0,1,1.945-.465,4.08,4.08,0,0,1,1.645.32,3.3,3.3,0,0,1,1.235.92l-1.04.96a2.236,2.236,0,0,0-1.76-.82,2.337,2.337,0,0,0-1.16.285,2.026,2.026,0,0,0-.8.8,2.337,2.337,0,0,0-.285,1.16,2.337,2.337,0,0,0,.285,1.16,2.026,2.026,0,0,0,.8.795,2.337,2.337,0,0,0,1.16.285,2.225,2.225,0,0,0,1.76-.83l1.04.96a3.242,3.242,0,0,1-1.24.93A4.116,4.116,0,0,1-34.375.12Zm9.4-1.42V0H-30.4V-7h5.29v1.3h-3.68v1.52h3.25v1.26h-3.25V-1.3Zm5.75,1.3-1.35-1.95h-1.49V0h-1.62V-7h3.03a3.889,3.889,0,0,1,1.615.31,2.4,2.4,0,0,1,1.055.88,2.424,2.424,0,0,1,.37,1.35,2.376,2.376,0,0,1-.375,1.345,2.377,2.377,0,0,1-1.065.865L-17.485,0Zm-.03-4.46a1.109,1.109,0,0,0-.38-.9,1.7,1.7,0,0,0-1.11-.315h-1.32v2.44h1.32a1.683,1.683,0,0,0,1.11-.32A1.112,1.112,0,0,0-19.255-4.46Zm4.27-1.22h-2.24V-7h6.1v1.32h-2.24V0h-1.62ZM-10.255-7h1.62V0h-1.62Zm4.9,1.3v1.85h3.24v1.3h-3.24V0h-1.62V-7h5.29v1.3ZM-.585-7h1.62V0H-.585Zm8.7,5.7V0H2.695V-7h5.29v1.3H4.3v1.52h3.25v1.26H4.3V-1.3ZM13.865,0l-1.35-1.95h-1.49V0H9.405V-7h3.03a3.889,3.889,0,0,1,1.615.31,2.4,2.4,0,0,1,1.055.88,2.424,2.424,0,0,1,.37,1.35A2.376,2.376,0,0,1,15.1-3.115a2.377,2.377,0,0,1-1.065.865L15.605,0Zm-.03-4.46a1.109,1.109,0,0,0-.38-.9,1.7,1.7,0,0,0-1.11-.315h-1.32v2.44h1.32a1.683,1.683,0,0,0,1.11-.32A1.112,1.112,0,0,0,13.835-4.46Zm7.53,2.96h-3.25L17.495,0h-1.66l3.12-7h1.6l3.13,7h-1.7Zm-.51-1.23-1.11-2.68-1.11,2.68ZM24.415-7h3.18a4.469,4.469,0,0,1,2.015.435A3.257,3.257,0,0,1,30.97-5.34a3.446,3.446,0,0,1,.485,1.84,3.446,3.446,0,0,1-.485,1.84A3.257,3.257,0,0,1,29.61-.435,4.469,4.469,0,0,1,27.595,0h-3.18Zm3.1,5.67a2.352,2.352,0,0,0,1.675-.585A2.066,2.066,0,0,0,29.815-3.5a2.066,2.066,0,0,0-.625-1.585,2.352,2.352,0,0,0-1.675-.585h-1.48v4.34ZM38.1-1.3V0h-5.42V-7h5.29v1.3h-3.68v1.52h3.25v1.26h-3.25V-1.3Zm-59.335,13V13h-5.42V6h5.29V7.3h-3.68V8.82h3.25v1.26h-3.25V11.7Zm5.63,1.3-1.69-2.43L-18.96,13h-1.86l2.59-3.56L-20.69,6h1.84l1.61,2.27L-15.66,6h1.75l-2.44,3.38L-13.74,13Zm5.54-7a3.889,3.889,0,0,1,1.615.31A2.4,2.4,0,0,1-7.4,7.19a2.424,2.424,0,0,1,.37,1.35A2.431,2.431,0,0,1-7.4,9.885a2.356,2.356,0,0,1-1.055.88,3.944,3.944,0,0,1-1.615.3h-1.41V13H-13.1V6Zm-.09,3.75a1.7,1.7,0,0,0,1.11-.315,1.1,1.1,0,0,0,.38-.895,1.109,1.109,0,0,0-.38-.9,1.7,1.7,0,0,0-1.11-.315h-1.32V9.75Zm9.7,1.95V13H-5.88V6H-.59V7.3H-4.27V8.82h3.25v1.26H-4.27V11.7ZM5.29,13,3.94,11.05H2.45V13H.83V6H3.86a3.889,3.889,0,0,1,1.615.31,2.4,2.4,0,0,1,1.055.88A2.424,2.424,0,0,1,6.9,8.54a2.28,2.28,0,0,1-1.44,2.21L7.03,13ZM5.26,8.54a1.109,1.109,0,0,0-.38-.9A1.7,1.7,0,0,0,3.77,7.32H2.45V9.76H3.77a1.683,1.683,0,0,0,1.11-.32A1.112,1.112,0,0,0,5.26,8.54ZM9.53,7.32H7.29V6h6.1V7.32H11.15V13H9.53ZM19.68,11.7V13H14.26V6h5.29V7.3H15.87V8.82h3.25v1.26H15.87V11.7ZM25.43,13l-1.35-1.95H22.59V13H20.97V6H24a3.889,3.889,0,0,1,1.615.31,2.4,2.4,0,0,1,1.055.88,2.424,2.424,0,0,1,.37,1.35,2.28,2.28,0,0,1-1.44,2.21L27.17,13ZM25.4,8.54a1.109,1.109,0,0,0-.38-.9,1.7,1.7,0,0,0-1.11-.315H22.59V9.76h1.32a1.683,1.683,0,0,0,1.11-.32A1.112,1.112,0,0,0,25.4,8.54Z" transform="translate(160.5 358.007)"/><path class="b" d="M-9.71-3.61h1.48V-.77a4.228,4.228,0,0,1-1.32.66,5.125,5.125,0,0,1-1.51.23,4.092,4.092,0,0,1-1.96-.465,3.462,3.462,0,0,1-1.365-1.29A3.554,3.554,0,0,1-14.88-3.5a3.554,3.554,0,0,1,.495-1.865,3.445,3.445,0,0,1,1.375-1.29,4.172,4.172,0,0,1,1.98-.465,4.333,4.333,0,0,1,1.67.31,3.309,3.309,0,0,1,1.26.9l-1.04.96a2.4,2.4,0,0,0-1.81-.79,2.47,2.47,0,0,0-1.19.28,2.009,2.009,0,0,0-.81.79,2.325,2.325,0,0,0-.29,1.17,2.3,2.3,0,0,0,.29,1.16,2.051,2.051,0,0,0,.805.795,2.386,2.386,0,0,0,1.175.285,2.626,2.626,0,0,0,1.26-.3ZM-6.73-7h3.18a4.469,4.469,0,0,1,2.015.435A3.257,3.257,0,0,1-.175-5.34,3.446,3.446,0,0,1,.31-3.5,3.446,3.446,0,0,1-.175-1.66,3.257,3.257,0,0,1-1.535-.435,4.469,4.469,0,0,1-3.55,0H-6.73Zm3.1,5.67a2.352,2.352,0,0,0,1.675-.585A2.066,2.066,0,0,0-1.33-3.5a2.066,2.066,0,0,0-.625-1.585A2.352,2.352,0,0,0-3.63-5.67H-5.11v4.34ZM4.56-7a3.889,3.889,0,0,1,1.615.31,2.4,2.4,0,0,1,1.055.88A2.424,2.424,0,0,1,7.6-4.46a2.431,2.431,0,0,1-.37,1.345,2.356,2.356,0,0,1-1.055.88,3.944,3.944,0,0,1-1.615.3H3.15V0H1.53V-7ZM4.47-3.25a1.7,1.7,0,0,0,1.11-.315,1.1,1.1,0,0,0,.38-.895,1.109,1.109,0,0,0-.38-.9A1.7,1.7,0,0,0,4.47-5.68H3.15v2.43ZM13.21,0,11.86-1.95H10.37V0H8.75V-7h3.03a3.889,3.889,0,0,1,1.615.31,2.4,2.4,0,0,1,1.055.88,2.424,2.424,0,0,1,.37,1.35,2.376,2.376,0,0,1-.375,1.345,2.377,2.377,0,0,1-1.065.865L14.95,0Zm-.03-4.46a1.109,1.109,0,0,0-.38-.9,1.7,1.7,0,0,0-1.11-.315H10.37v2.44h1.32a1.683,1.683,0,0,0,1.11-.32A1.112,1.112,0,0,0,13.18-4.46ZM-27.635,13.12a4.021,4.021,0,0,1-1.935-.465,3.47,3.47,0,0,1-1.36-1.29,3.554,3.554,0,0,1-.5-1.865,3.554,3.554,0,0,1,.5-1.865,3.47,3.47,0,0,1,1.36-1.29,4.042,4.042,0,0,1,1.945-.465,4.08,4.08,0,0,1,1.645.32,3.3,3.3,0,0,1,1.235.92l-1.04.96a2.236,2.236,0,0,0-1.76-.82,2.337,2.337,0,0,0-1.16.285,2.026,2.026,0,0,0-.8.8,2.337,2.337,0,0,0-.285,1.16,2.337,2.337,0,0,0,.285,1.16,2.026,2.026,0,0,0,.8.8,2.337,2.337,0,0,0,1.16.285,2.225,2.225,0,0,0,1.76-.83l1.04.96a3.242,3.242,0,0,1-1.24.93A4.116,4.116,0,0,1-27.635,13.12Zm7.22,0a4.086,4.086,0,0,1-1.965-.47,3.488,3.488,0,0,1-1.37-1.3,3.535,3.535,0,0,1-.5-1.855,3.535,3.535,0,0,1,.5-1.855,3.488,3.488,0,0,1,1.37-1.3,4.086,4.086,0,0,1,1.965-.47,4.057,4.057,0,0,1,1.96.47,3.533,3.533,0,0,1,1.37,1.3,3.508,3.508,0,0,1,.5,1.855,3.508,3.508,0,0,1-.5,1.855,3.533,3.533,0,0,1-1.37,1.3A4.057,4.057,0,0,1-20.415,13.12Zm0-1.38a2.221,2.221,0,0,0,1.12-.285,2.045,2.045,0,0,0,.785-.8,2.337,2.337,0,0,0,.285-1.16,2.337,2.337,0,0,0-.285-1.16,2.045,2.045,0,0,0-.785-.8,2.221,2.221,0,0,0-1.12-.285,2.221,2.221,0,0,0-1.12.285,2.045,2.045,0,0,0-.785.8A2.337,2.337,0,0,0-22.6,9.5a2.337,2.337,0,0,0,.285,1.16,2.045,2.045,0,0,0,.785.8A2.221,2.221,0,0,0-20.415,11.74ZM-8.995,13l-.01-4.2-2.06,3.46h-.73l-2.05-3.37V13h-1.52V6h1.34l2.62,4.35L-8.825,6h1.33l.02,7Zm6.21-7a3.889,3.889,0,0,1,1.615.31,2.4,2.4,0,0,1,1.055.88,2.424,2.424,0,0,1,.37,1.35,2.431,2.431,0,0,1-.37,1.345,2.356,2.356,0,0,1-1.055.88,3.944,3.944,0,0,1-1.615.3H-4.2V13h-1.62V6Zm-.09,3.75a1.7,1.7,0,0,0,1.11-.315,1.1,1.1,0,0,0,.38-.895,1.109,1.109,0,0,0-.38-.9,1.7,1.7,0,0,0-1.11-.315H-4.2V9.75ZM1.4,6h1.62v5.68h3.51V13H1.4Zm6.04,0h1.62v7H7.445Zm7.89,5.5h-3.25l-.62,1.5H9.8l3.12-7h1.6l3.13,7h-1.7Zm-.51-1.23-1.11-2.68L12.6,10.27ZM24.8,6v7h-1.33l-3.49-4.25V13h-1.6V6h1.34l3.48,4.25V6Zm3.11,1.32h-2.24V6h6.1V7.32h-2.24V13h-1.62Z" transform="translate(304 358.007)"/></g></svg>