<svg xmlns="http://www.w3.org/2000/svg" xmlns:xlink="http://www.w3.org/1999/xlink" width="432" height="285" viewBox="0 0 432 285"><defs><style>.a{fill:#32cd32}.b{fill:#195f8c}.c,.g{fill:#fff}.d{clip-path:url(#m)}.e{fill:#fa690f}.f,.i{fill:#3c9bcd}.f,.g{stroke:#fff}.f{stroke-width:0}.g{stroke-width:.25px}.h{clip-path:url(#n)}.j{filter:url(#k)}.k{filter:url(#i)}.l{filter:url(#g)}.m{filter:url(#e)}.n{filter:url(#c)}.o{filter:url(#a)}</style><filter id="a" width="144" height="144" x="0" y="0" filterUnits="userSpaceOnUse"><feOffset dy="3"/><feGaussianBlur result="b" stdDeviation="3"/><feFlood flood-opacity="0.161"/><feComposite in2="b" operator="in"/><feComposite in="SourceGraphic"/></filter><filter id="c" width="144" height="144" x="144" y="0" filterUnits="userSpaceOnUse"><feOffset dy="3"/><feGaussianBlur result="d" stdDeviation="3"/><feFlood flood-opacity="0.161"/><feComposite in2="d" operator="in"/><feComposite in="SourceGraphic"/></filter><filter id="e" width="144" height="144" x="288" y="141" filterUnits="userSpaceOnUse"><feOffset dy="3"/><feGaussianBlur result="f" stdDeviation="3"/><feFlood flood-opacity="0.161"/><feComposite in2="f" operator="in"/><feComposite in="SourceGraphic"/></filter><filter id="g" width="144" height="144" x="144" y="141" filterUnits="userSpaceOnUse"><feOffset dy="3"/><feGaussianBlur result="h" stdDeviation="3"/><feFlood flood-opacity="0.161"/><feComposite in2="h" operator="in"/><feComposite in="SourceGraphic"/></filter><filter id="i" width="144" height="144" x="0" y="141" filterUnits="userSpaceOnUse"><feOffset dy="3"/><feGaussianBlur result="j" stdDeviation="3"/><feFlood flood-opacity="0.161"/><feComposite in2="j" operator="in"/><feComposite in="SourceGraphic"/></filter><filter id="k" width="144" height="144" x="288" y="0" filterUnits="userSpaceOnUse"><feOffset dy="3"/><feGaussianBlur result="l" stdDeviation="3"/><feFlood flood-opacity="0.161"/><feComposite in2="l" operator="in"/><feComposite in="SourceGraphic"/></filter><clipPath id="m"><path d="M709 200h51v51h-51z" class="a"/></clipPath><clipPath id="n"><path d="M565 200h51v51h-51z" class="b"/></clipPath></defs><g transform="translate(-88 -261)"><g class="o" transform="translate(88 261)"><rect width="126" height="126" class="c" rx="7" transform="translate(9 6)"/></g><g class="n" transform="translate(88 261)"><rect width="126" height="126" class="c" rx="7" transform="translate(153 6)"/></g><g class="m" transform="translate(88 261)"><rect width="126" height="126" class="c" rx="7" transform="translate(297 147)"/></g><g class="l" transform="translate(88 261)"><rect width="126" height="126" class="c" rx="7" transform="translate(153 147)"/></g><g class="k" transform="translate(88 261)"><rect width="126" height="126" class="c" rx="7" transform="translate(9 147)"/></g><g class="j" transform="translate(88 261)"><rect width="126" height="126" class="c" rx="7" transform="translate(297 6)"/></g><g class="d" transform="translate(-574 226.993)"><path d="M726.85 225.5a10.2 10.2 0 1 0-10.2-10.2 10.2 10.2 0 0 0 10.2 10.2m7.65 5.1a5 5 0 0 1 .65-2.43 11 11 0 0 0-1.16-.12h-1.33a14 14 0 0 1-11.62 0h-1.33a10.7 10.7 0 0 0-10.71 10.7v3.32a3.83 3.83 0 0 0 3.83 3.83h22.38a5 5 0 0 1-.71-2.55Zm22.95-2.55h-2.55v-6.38a6.38 6.38 0 1 0-12.75 0v6.38h-2.55a2.55 2.55 0 0 0-2.55 2.55v12.75a2.55 2.55 0 0 0 2.55 2.55h17.85a2.55 2.55 0 0 0 2.55-2.55V230.6a2.55 2.55 0 0 0-2.55-2.55m-8.93 11.47a2.55 2.55 0 1 1 2.55-2.55 2.55 2.55 0 0 1-2.55 2.55m2.55-11.47h-5.1v-6.38a2.55 2.55 0 0 1 5.1 0Z" class="a"/></g><path d="m448.02 336.94-6.07-1.76a1.2 1.2 0 0 1-.82-1.49l13.6-46.84a1.2 1.2 0 0 1 1.48-.8l6.08 1.75a1.2 1.2 0 0 1 .82 1.48l-13.6 46.84a1.2 1.2 0 0 1-1.48.82m-11.36-11.18 4.34-4.62a1.2 1.2 0 0 0-.08-1.7l-9.03-7.95 9.03-7.94a1.2 1.2 0 0 0 .08-1.7l-4.34-4.64a1.2 1.2 0 0 0-1.69-.05l-14.36 13.45a1.2 1.2 0 0 0 0 1.74l14.36 13.46a1.2 1.2 0 0 0 1.69-.05m32.6.06 14.35-13.46a1.2 1.2 0 0 0 0-1.74l-14.36-13.47a1.2 1.2 0 0 0-1.69.05l-4.33 4.62a1.2 1.2 0 0 0 .08 1.72l9.02 7.95-9.02 7.94a1.2 1.2 0 0 0-.08 1.7l4.33 4.63a1.2 1.2 0 0 0 1.7.06" class="e"/><g transform="translate(138.622 294.538)"><path d="M21.73 0a3 3 0 0 0-1.13.3L5.4 7.55a2.9 2.9 0 0 0-1.57 1.96L.07 25.84a3 3 0 0 0 .4 2.21l.16.23 10.53 13.1a3 3 0 0 0 2.28 1.08h16.88a3 3 0 0 0 2.27-1.09l10.53-13.09a2.9 2.9 0 0 0 .56-2.44L39.92 9.5a2.9 2.9 0 0 0-1.57-1.96L23.14.3a3 3 0 0 0-1.41-.3Z" class="f"/><path d="M21.88 5.56a.97.97 0 0 0-.91 1.01v.26a8 8 0 0 0 .12.87 9 9 0 0 1 .1 1.65 1 1 0 0 1-.3.47l-.02.38a12 12 0 0 0-1.65.26 11.7 11.7 0 0 0-5.94 3.4l-.33-.24a.7.7 0 0 1-.54-.05 9 9 0 0 1-1.23-1.1 8 8 0 0 0-.6-.64l-.2-.16a1 1 0 0 0-.64-.24 1 1 0 0 0-.72.32.97.97 0 0 0 .22 1.34h.02l.18.16a8 8 0 0 0 .76.44 9 9 0 0 1 1.35.95 1 1 0 0 1 .19.53l.29.26a11.8 11.8 0 0 0-1.86 8.21l-.38.12a1 1 0 0 1-.4.39 9 9 0 0 1-1.62.27 8 8 0 0 0-.88.07l-.24.05h-.02a.91.91 0 1 0 .4 1.78h.03l.23-.06a8 8 0 0 0 .82-.31 9 9 0 0 1 1.59-.47 1 1 0 0 1 .52.18l.4-.06a12 12 0 0 0 5.25 6.55l-.16.4a1 1 0 0 1 .08.52 9 9 0 0 1-.83 1.48 8 8 0 0 0-.48.73l-.12.24a.91.91 0 1 0 1.64.78l.12-.23a8 8 0 0 0 .26-.84 6 6 0 0 1 .7-1.63 1 1 0 0 1 .4-.2l.2-.37a11.8 11.8 0 0 0 8.4.02l.2.35a.7.7 0 0 1 .46.29 9 9 0 0 1 .62 1.53 8 8 0 0 0 .27.83l.1.23a.92.92 0 1 0 1.66-.77l-.12-.25a8 8 0 0 0-.5-.72 9 9 0 0 1-.8-1.45.7.7 0 0 1 .07-.54l-.15-.36a12 12 0 0 0 5.25-6.6l.39.06a.7.7 0 0 1 .5-.19 9 9 0 0 1 1.6.47 8 8 0 0 0 .81.32l.24.05h.03a.91.91 0 1 0 .4-1.77l-.27-.06a8 8 0 0 0-.87-.07 9 9 0 0 1-1.63-.27 1 1 0 0 1-.4-.4l-.36-.1a11.8 11.8 0 0 0-1.9-8.2l.32-.29a.7.7 0 0 1 .17-.51 9 9 0 0 1 1.36-.95 8 8 0 0 0 .75-.45l.2-.16a.92.92 0 1 0-1.13-1.42l-.2.16a8 8 0 0 0-.6.64 9 9 0 0 1-1.23 1.1 1 1 0 0 1-.55.07l-.35.24a12 12 0 0 0-7.56-3.65l-.02-.4a.7.7 0 0 1-.3-.46 9 9 0 0 1 .1-1.65 8 8 0 0 0 .13-.87v-.26a.97.97 0 0 0-.91-1Zm-1.14 7.06-.27 4.78h-.02a.8.8 0 0 1-1.28.62l-3.92-2.77a9.4 9.4 0 0 1 4.52-2.46 10 10 0 0 1 .97-.17Zm2.28 0a9.5 9.5 0 0 1 5.45 2.63l-3.89 2.76h-.01a.8.8 0 0 1-1.28-.62Zm-9.2 4.41 3.58 3.2v.02a.8.8 0 0 1-.31 1.38v.02l-4.58 1.32a9.4 9.4 0 0 1 1.32-5.94Zm16.08 0a9.6 9.6 0 0 1 1.37 5.92l-4.6-1.32v-.02a.8.8 0 0 1-.32-1.38v-.01Zm-8.76 3.45h1.47l.9 1.14-.32 1.42-1.31.63-1.32-.64-.33-1.42Zm4.7 3.9h.19l4.75.8a9.4 9.4 0 0 1-3.8 4.76l-1.84-4.44a.8.8 0 0 1 .7-1.13Zm-7.96.01a.8.8 0 0 1 .73 1.12l.01.02-1.82 4.4a9.4 9.4 0 0 1-3.78-4.74l4.7-.8v.01zm3.97 1.93a.8.8 0 0 1 .74.42h.01l2.32 4.19a10 10 0 0 1-.92.26 9.4 9.4 0 0 1-5.14-.27l2.3-4.18a.8.8 0 0 1 .69-.42Z" class="g"/></g><g class="h" transform="translate(-286 85.993)"><path d="m611.47 208.34-19.13-7.97a4.8 4.8 0 0 0-3.67 0l-19.13 7.97a4.8 4.8 0 0 0-2.95 4.4c0 19.78 11.4 33.45 22.07 37.9a4.8 4.8 0 0 0 3.67 0c8.54-3.56 22.08-15.84 22.08-37.9a4.8 4.8 0 0 0-2.94-4.4m-20.96 36.12-.01-37.96 17.52 7.3c-.32 15.09-8.18 26.02-17.51 30.66" class="b"/></g><path d="M304 433a22.5 22.5 0 1 0 22.5 22.5A22.5 22.5 0 0 0 304 433m15.76 10.84-5.75 5.75a12 12 0 0 0-4.11-4.1l5.75-5.76a20 20 0 0 1 4.1 4.11M304 464.2a8.71 8.71 0 1 1 8.71-8.7 8.7 8.7 0 0 1-8.71 8.7m-11.65-24.47 5.75 5.76a12 12 0 0 0-4.1 4.1l-5.76-5.75a20 20 0 0 1 4.1-4.1Zm-4.1 27.42 5.74-5.76a12 12 0 0 0 4.11 4.11l-5.75 5.75a20 20 0 0 1-4.1-4.1m27.4 4.1-5.75-5.75a12 12 0 0 0 4.1-4.1l5.76 5.74a20 20 0 0 1-4.1 4.11Z" class="b"/><path d="M460.15 439.29h-6.75a5.4 5.4 0 0 0-10.8 0h-6.75a4.05 4.05 0 0 0-4.06 4.05v29.7a4.05 4.05 0 0 0 4.06 4.06h24.3a4.05 4.05 0 0 0 4.05-4.05v-29.71a4.05 4.05 0 0 0-4.05-4.05m-20.25 30.38a2.03 2.03 0 1 1 2.02-2.02 2 2 0 0 1-2.02 2.02m0-8.1a2.03 2.03 0 1 1 2.02-2.02 2 2 0 0 1-2.02 2.02m0-8.1a2.03 2.03 0 1 1 2.02-2.02 2 2 0 0 1-2.02 2.02m8.1-16.2a2.03 2.03 0 1 1-2.03 2.02 2 2 0 0 1 2.02-2.03Zm10.8 31.06a.7.7 0 0 1-.68.68h-12.15a.7.7 0 0 1-.67-.68v-1.35a.7.7 0 0 1 .67-.67h12.16a.7.7 0 0 1 .67.67Zm0-8.1a.7.7 0 0 1-.68.68h-12.15a.7.7 0 0 1-.67-.68v-1.35a.7.7 0 0 1 .67-.67h12.16a.7.7 0 0 1 .67.67Zm0-8.1a.7.7 0 0 1-.68.68h-12.15a.7.7 0 0 1-.67-.68v-1.36a.7.7 0 0 1 .67-.68h12.16a.7.7 0 0 1 .67.68Z" class="i"/><path d="M139.8 492h3.18a4.5 4.5 0 0 1 2.02.44 3.3 3.3 0 0 1 1.36 1.23 3.5 3.5 0 0 1 .48 1.84 3.5 3.5 0 0 1-.48 1.84 3.3 3.3 0 0 1-1.37 1.22 4.5 4.5 0 0 1-2.01.44h-3.18Zm3.1 5.68a2.4 2.4 0 0 0 1.68-.59 2 2 0 0 0 .62-1.58 2 2 0 0 0-.62-1.59 2.4 2.4 0 0 0-1.68-.58h-1.48v4.34Zm5.16-5.67h1.62v7h-1.62Zm8.01 3.39h1.48v2.84a4 4 0 0 1-1.32.66 5 5 0 0 1-1.51.23 4 4 0 0 1-1.96-.47 3.5 3.5 0 0 1-1.36-1.29 3.6 3.6 0 0 1-.5-1.86 3.6 3.6 0 0 1 .5-1.87 3.5 3.5 0 0 1 1.37-1.29 4 4 0 0 1 1.98-.46 4 4 0 0 1 1.67.3 3 3 0 0 1 1.26.9l-1.04.97a2.4 2.4 0 0 0-1.81-.8 2.5 2.5 0 0 0-1.19.29 2 2 0 0 0-.81.79 2.3 2.3 0 0 0-.29 1.17 2.3 2.3 0 0 0 .29 1.16 2 2 0 0 0 .8.8 2.4 2.4 0 0 0 1.18.28 2.6 2.6 0 0 0 1.26-.3Zm2.98-3.4h1.62v7h-1.62Zm4.73 1.33h-2.24V492h6.1v1.32h-2.24V499h-1.62Zm8.99 4.18h-3.25l-.62 1.5h-1.66l3.12-7h1.6l3.13 7h-1.7Zm-.51-1.23-1.11-2.68-1.11 2.68Zm3.56-4.27h1.62v5.68h3.51V499h-5.13Zm-49.55 20.12a6 6 0 0 1-1.6-.23 4 4 0 0 1-1.24-.58l.55-1.22a4 4 0 0 0 1.07.53 4 4 0 0 0 1.24.2 2 2 0 0 0 1.01-.2.6.6 0 0 0 .33-.55.5.5 0 0 0-.19-.41 2 2 0 0 0-.5-.27q-.3-.1-.82-.22a11 11 0 0 1-1.32-.38 2 2 0 0 1-.87-.6 1.7 1.7 0 0 1-.37-1.13 2 2 0 0 1 .33-1.1 2 2 0 0 1 1-.78 4 4 0 0 1 1.63-.3 5 5 0 0 1 1.3.17 4 4 0 0 1 1.13.46l-.5 1.23a4 4 0 0 0-1.94-.55 2 2 0 0 0-1.01.22.7.7 0 0 0-.32.58.6.6 0 0 0 .37.53 6 6 0 0 0 1.15.35 11 11 0 0 1 1.3.37 2 2 0 0 1 .88.6 1.6 1.6 0 0 1 .36 1.1 2 2 0 0 1-.33 1.1 2.3 2.3 0 0 1-1 .8 4 4 0 0 1-1.64.28m7.19 0a3.2 3.2 0 0 1-2.33-.83 3.2 3.2 0 0 1-.84-2.37V505h1.62v3.86q0 1.88 1.56 1.88a1.5 1.5 0 0 0 1.16-.46 2 2 0 0 0 .4-1.42V505h1.6v3.92a3.2 3.2 0 0 1-.83 2.37 3.2 3.2 0 0 1-2.34.83m11.5-7.12-3.03 7h-1.6l-3.02-7h1.75l2.13 5 2.16-5Zm6 5.7v1.3h-5.42v-7h5.29v1.3h-3.68v1.52h3.25v1.26h-3.25v1.62Zm5.75 1.3-1.35-1.95h-1.49V512h-1.62v-7h3.03a4 4 0 0 1 1.62.3 2.4 2.4 0 0 1 1.06.89 2.4 2.4 0 0 1 .37 1.35 2.4 2.4 0 0 1-.38 1.34 2.4 2.4 0 0 1-1.06.87l1.56 2.25Zm-.03-4.46a1.1 1.1 0 0 0-.38-.9 1.7 1.7 0 0 0-1.11-.32h-1.32v2.44h1.32a1.7 1.7 0 0 0 1.11-.32 1.1 1.1 0 0 0 .38-.9m7.53 2.96h-3.25l-.62 1.5h-1.66l3.12-7h1.6l3.13 7h-1.7Zm-.51-1.23-1.11-2.68-1.11 2.68Zm-2.11-4.9a.7.7 0 0 1-.5-.19.7.7 0 0 1 0-.99.7.7 0 0 1 .5-.2.69.69 0 1 1 0 1.39m2.02 0a.69.69 0 1 1 0-1.37.7.7 0 0 1 .5.2.7.7 0 0 1 0 .98.7.7 0 0 1-.5.2m10.07.63v7h-1.33l-3.49-4.25V512h-1.6v-7h1.34l3.48 4.25V505Zm1.66 0h1.62v7h-1.62Zm4.73 1.32h-2.24V505h6.1v1.32h-2.24V512h-1.62Zm10.15 4.38v1.3h-5.42v-7h5.29v1.3h-3.68v1.52h3.25v1.26h-3.25v1.62Zm2.74-4.38h-2.24V505h6.1v1.32h-2.24V512h-1.62Z" class="a"/><path d="M437 358.13a4 4 0 0 1-1.96-.47 3.5 3.5 0 0 1-1.37-1.3 3.5 3.5 0 0 1-.5-1.85 3.5 3.5 0 0 1 .5-1.86 3.5 3.5 0 0 1 1.37-1.3 4 4 0 0 1 1.97-.47 4 4 0 0 1 1.96.47 3.5 3.5 0 0 1 1.36 1.3 3.5 3.5 0 0 1 .5 1.86 3.5 3.5 0 0 1-.5 1.85 3.5 3.5 0 0 1-1.36 1.3 4 4 0 0 1-1.97.47m0-1.38a2 2 0 0 0 1.12-.29 2 2 0 0 0 .79-.8 2.3 2.3 0 0 0 .28-1.15 2.3 2.3 0 0 0-.28-1.16 2 2 0 0 0-.78-.8 2 2 0 0 0-1.12-.29 2 2 0 0 0-1.12.29 2 2 0 0 0-.79.8 2.3 2.3 0 0 0-.29 1.16 2.3 2.3 0 0 0 .29 1.16 2 2 0 0 0 .78.8 2 2 0 0 0 1.13.28m-1-6.36a.7.7 0 0 1-.5-.2.7.7 0 0 1-.2-.5.7.7 0 0 1 .2-.5.7.7 0 0 1 .5-.19.7.7 0 0 1 .49.2.7.7 0 0 1 .2.5.7.7 0 0 1-.2.5.7.7 0 0 1-.5.19m2.02 0a.7.7 0 0 1-.5-.2.7.7 0 0 1-.2-.5.7.7 0 0 1 .2-.5.7.7 0 0 1 .5-.18.7.7 0 0 1 .5.2.7.7 0 0 1 .2.5.7.7 0 0 1-.2.49.7.7 0 0 1-.5.19m7.07.62a4 4 0 0 1 1.61.3 2.4 2.4 0 0 1 1.06.89 2.4 2.4 0 0 1 .36 1.35 2.4 2.4 0 0 1-.37 1.34 2.4 2.4 0 0 1-1.05.88 4 4 0 0 1-1.62.3h-1.41v1.94h-1.62v-7Zm-.1 3.75a1.7 1.7 0 0 0 1.11-.32 1.1 1.1 0 0 0 .38-.9 1.1 1.1 0 0 0-.38-.9 1.7 1.7 0 0 0-1.1-.3h-1.32v2.42Zm7.31-3.75a4 4 0 0 1 1.62.3 2.4 2.4 0 0 1 1.06.89 2.4 2.4 0 0 1 .37 1.35 2.4 2.4 0 0 1-.37 1.34 2.4 2.4 0 0 1-1.06.88 4 4 0 0 1-1.61.3h-1.42v1.94h-1.62v-7Zm-.08 3.75a1.7 1.7 0 0 0 1.1-.32 1.1 1.1 0 0 0 .38-.9 1.1 1.1 0 0 0-.38-.9 1.7 1.7 0 0 0-1.1-.31h-1.33v2.43Zm9.7 1.95v1.3h-5.43v-7h5.3v1.3h-3.69v1.52h3.25v1.26h-3.25v1.62Zm7.7-5.7v7h-1.33l-3.49-4.25V358h-1.6v-7h1.34l3.48 4.25V351Zm-39.96 17.25-.94.98V371h-1.61v-7h1.61v3.27l3.1-3.27h1.8l-2.9 3.12 3.07 3.88h-1.89Zm9.15 1.25h-3.25l-.62 1.5h-1.66l3.12-7h1.6l3.13 7h-1.7Zm-.51-1.23-1.11-2.68-1.11 2.68Zm-2.11-4.9a.7.7 0 0 1-.5-.19.7.7 0 0 1-.2-.5.7.7 0 0 1 .2-.5.7.7 0 0 1 .5-.18.7.7 0 0 1 .5.2.7.7 0 0 1 .2.5.7.7 0 0 1-.2.49.7.7 0 0 1-.5.19m2.02 0a.7.7 0 0 1-.5-.19.7.7 0 0 1-.2-.5.7.7 0 0 1 .2-.5.7.7 0 0 1 .5-.18.7.7 0 0 1 .5.2.7.7 0 0 1 .2.5.7.7 0 0 1-.2.49.7.7 0 0 1-.5.19m3.65.63h1.62v5.68h3.51V371h-5.13Zm6.04 0h1.62v5.68h3.51V371h-5.13Zm8.59 4.25-.94.98V371h-1.61v-7h1.61v3.27l3.1-3.27h1.8l-2.9 3.12 3.07 3.88h-1.89Zm7.99 2.87a4 4 0 0 1-1.96-.47 3.5 3.5 0 0 1-1.37-1.3 3.5 3.5 0 0 1-.5-1.85 3.5 3.5 0 0 1 .5-1.86 3.5 3.5 0 0 1 1.37-1.3 4.3 4.3 0 0 1 3.92 0 3.57 3.57 0 0 1 0 6.3 4 4 0 0 1-1.96.48m0-1.38a2 2 0 0 0 1.12-.29 2 2 0 0 0 .79-.8 2.5 2.5 0 0 0 0-2.32 2 2 0 0 0-.79-.8 2.3 2.3 0 0 0-2.24 0 2 2 0 0 0-.78.8 2.5 2.5 0 0 0 0 2.32 2 2 0 0 0 .78.8 2 2 0 0 0 1.12.29m5.05-5.74h3.18a4.5 4.5 0 0 1 2.02.43 3.3 3.3 0 0 1 1.36 1.23 3.5 3.5 0 0 1 .48 1.84 3.5 3.5 0 0 1-.48 1.84 3.3 3.3 0 0 1-1.36 1.22 4.5 4.5 0 0 1-2.02.44h-3.18Zm3.1 5.67a2.4 2.4 0 0 0 1.68-.59 2 2 0 0 0 .62-1.58 2 2 0 0 0-.62-1.59 2.4 2.4 0 0 0-1.68-.58h-1.48v4.34Z" class="e"/><path d="M286 500.13a6 6 0 0 1-1.6-.22 4 4 0 0 1-1.25-.59l.55-1.22a4 4 0 0 0 1.07.53 4 4 0 0 0 1.24.2 2 2 0 0 0 1.02-.2.6.6 0 0 0 .33-.54.5.5 0 0 0-.2-.42 2 2 0 0 0-.5-.26q-.3-.1-.82-.22a11 11 0 0 1-1.31-.38 2 2 0 0 1-.87-.61 1.7 1.7 0 0 1-.37-1.12 2 2 0 0 1 .33-1.1 2.2 2.2 0 0 1 1-.8 4 4 0 0 1 1.62-.28 5 5 0 0 1 1.31.16 4 4 0 0 1 1.12.46l-.5 1.23a4 4 0 0 0-1.94-.55 2 2 0 0 0-1 .22.7.7 0 0 0-.33.58.6.6 0 0 0 .38.53 6 6 0 0 0 1.15.35 11 11 0 0 1 1.3.38 2 2 0 0 1 .88.6 1.6 1.6 0 0 1 .36 1.1 2 2 0 0 1-.33 1.1 2.3 2.3 0 0 1-1 .79 4 4 0 0 1-1.64.28m10.81-7.12-3.03 7h-1.6l-3.02-7h1.75l2.13 5 2.16-5Zm6 5.7v1.3h-5.42v-7h5.29v1.3H299v1.52h3.25v1.26H299v1.62Zm7.71-5.7v7h-1.33l-3.49-4.25v4.25h-1.6v-7h1.34l3.48 4.25v-4.25Zm3.96 7.12a6 6 0 0 1-1.6-.22 4 4 0 0 1-1.25-.59l.55-1.22a4 4 0 0 0 1.07.53 4 4 0 0 0 1.24.2 2 2 0 0 0 1.02-.2.6.6 0 0 0 .33-.54.5.5 0 0 0-.2-.42 2 2 0 0 0-.5-.26q-.3-.1-.82-.22a11 11 0 0 1-1.31-.38 2 2 0 0 1-.87-.61 1.7 1.7 0 0 1-.37-1.13 2 2 0 0 1 .33-1.1 2 2 0 0 1 1-.79 4 4 0 0 1 1.62-.29 5 5 0 0 1 1.31.16 4 4 0 0 1 1.12.46l-.5 1.23a4 4 0 0 0-1.94-.55 2 2 0 0 0-1.01.22.7.7 0 0 0-.32.58.6.6 0 0 0 .37.54 6 6 0 0 0 1.15.34 11 11 0 0 1 1.31.38 2 2 0 0 1 .88.6 1.6 1.6 0 0 1 .36 1.11 2 2 0 0 1-.33 1.1 2.3 2.3 0 0 1-1 .78 4 4 0 0 1-1.64.3m6.63-2.87-.94.98v1.77h-1.61v-7h1.61v3.27l3.1-3.27h1.8l-2.9 3.12 3.07 3.88h-1.89Zm-39.31 15.87a6 6 0 0 1-1.6-.22 4 4 0 0 1-1.25-.59l.55-1.22a4 4 0 0 0 1.07.53 4 4 0 0 0 1.24.2 2 2 0 0 0 1.02-.2.6.6 0 0 0 .33-.54.5.5 0 0 0-.2-.42 2 2 0 0 0-.5-.26q-.3-.1-.82-.22a11 11 0 0 1-1.31-.38 2 2 0 0 1-.87-.61 1.7 1.7 0 0 1-.37-1.12 2 2 0 0 1 .33-1.1 2 2 0 0 1 1-.79 4 4 0 0 1 1.62-.29 5 5 0 0 1 1.31.16 4 4 0 0 1 1.12.46l-.5 1.23a4 4 0 0 0-1.94-.55 2 2 0 0 0-1 .22.7.7 0 0 0-.32.58.6.6 0 0 0 .37.54 6 6 0 0 0 1.15.34 11 11 0 0 1 1.3.38 2 2 0 0 1 .88.6 1.6 1.6 0 0 1 .36 1.11 2 2 0 0 1-.33 1.1 2.3 2.3 0 0 1-1 .79 4 4 0 0 1-1.64.27m7.19 0a3.2 3.2 0 0 1-2.34-.83 3.2 3.2 0 0 1-.83-2.37v-3.92h1.62v3.86q0 1.88 1.56 1.88a1.5 1.5 0 0 0 1.16-.45 2 2 0 0 0 .4-1.43v-3.86h1.6v3.92a3.2 3.2 0 0 1-.84 2.37 3.2 3.2 0 0 1-2.33.83m7.8-7.12a4 4 0 0 1 1.61.31 2.4 2.4 0 0 1 1.06.88 2.4 2.4 0 0 1 .37 1.35 2.4 2.4 0 0 1-.37 1.35 2.4 2.4 0 0 1-1.06.88 4 4 0 0 1-1.61.3h-1.42V513h-1.62v-7Zm-.1 3.75a1.7 1.7 0 0 0 1.11-.31 1.1 1.1 0 0 0 .38-.9 1.1 1.1 0 0 0-.38-.9 1.7 1.7 0 0 0-1.11-.31h-1.32v2.42Zm7.31-3.75a4 4 0 0 1 1.62.31 2.4 2.4 0 0 1 1.05.88 2.4 2.4 0 0 1 .37 1.35 2.4 2.4 0 0 1-.37 1.35 2.4 2.4 0 0 1-1.05.88 4 4 0 0 1-1.62.3h-1.41v1.93h-1.62v-7Zm-.09 3.75a1.7 1.7 0 0 0 1.11-.31 1.1 1.1 0 0 0 .38-.9 1.1 1.1 0 0 0-.38-.9 1.7 1.7 0 0 0-1.1-.32h-1.32v2.43Zm7.77 3.37a4 4 0 0 1-1.96-.47 3.5 3.5 0 0 1-1.37-1.3 3.5 3.5 0 0 1-.5-1.85 3.5 3.5 0 0 1 .5-1.86 3.5 3.5 0 0 1 1.37-1.3 4 4 0 0 1 1.96-.47 4 4 0 0 1 1.96.47 3.57 3.57 0 0 1 0 6.3 4 4 0 0 1-1.95.48Zm0-1.38a2 2 0 0 0 1.12-.28 2 2 0 0 0 .79-.8 2.5 2.5 0 0 0 0-2.32 2 2 0 0 0-.79-.8 2.3 2.3 0 0 0-2.24 0 2 2 0 0 0-.78.8 2.5 2.5 0 0 0 0 2.32 2 2 0 0 0 .78.8 2 2 0 0 0 1.13.28Zm9.51 1.26-1.35-1.95h-1.49v1.95h-1.62v-7h3.03a4 4 0 0 1 1.62.31 2.4 2.4 0 0 1 1.06.88 2.4 2.4 0 0 1 .37 1.35 2.3 2.3 0 0 1-1.44 2.21l1.56 2.25Zm-.03-4.46a1.1 1.1 0 0 0-.38-.9 1.7 1.7 0 0 0-1.1-.31h-1.32v2.43h1.32a1.7 1.7 0 0 0 1.1-.32 1.1 1.1 0 0 0 .39-.9m4.27-1.22h-2.23v-1.32h6.1v1.32h-2.24v5.68h-1.62Z" class="b"/><path d="M417.73 500.13a6 6 0 0 1-1.6-.22 4 4 0 0 1-1.25-.59l.55-1.22a4 4 0 0 0 1.07.53 4 4 0 0 0 1.24.2 2 2 0 0 0 1.02-.2.6.6 0 0 0 .33-.54.5.5 0 0 0-.2-.42 2 2 0 0 0-.5-.26q-.3-.1-.82-.22a11 11 0 0 1-1.31-.38 2 2 0 0 1-.87-.61 1.7 1.7 0 0 1-.37-1.12 2 2 0 0 1 .33-1.1 2.2 2.2 0 0 1 1-.8 4 4 0 0 1 1.62-.28 5 5 0 0 1 1.31.16 4 4 0 0 1 1.12.46l-.5 1.23a4 4 0 0 0-1.94-.55 2 2 0 0 0-1 .22.7.7 0 0 0-.32.58.6.6 0 0 0 .37.53 6 6 0 0 0 1.15.35 11 11 0 0 1 1.3.38 2 2 0 0 1 .88.6 1.6 1.6 0 0 1 .36 1.1 2 2 0 0 1-.33 1.1 2.3 2.3 0 0 1-1 .78 4 4 0 0 1-1.64.3m8.69-1.62h-3.25l-.62 1.5h-1.66l3.12-7h1.6l3.13 7h-1.7Zm-.51-1.23-1.11-2.68-1.11 2.68Zm-2.11-4.89a.7.7 0 0 1-.5-.2.7.7 0 0 1-.2-.49.7.7 0 0 1 .2-.5.7.7 0 0 1 .5-.19.7.7 0 0 1 .5.2.7.7 0 0 1 .2.5.7.7 0 0 1-.2.5.7.7 0 0 1-.5.18m2.02 0a.7.7 0 0 1-.5-.2.7.7 0 0 1-.2-.49.7.7 0 0 1 .2-.5.7.7 0 0 1 .5-.19.7.7 0 0 1 .5.2.7.7 0 0 1 .2.5.7.7 0 0 1-.2.5.7.7 0 0 1-.5.18m6.2 4.87-.94.98v1.77h-1.61v-7h1.61v3.27l3.1-3.27h1.8l-2.9 3.12 3.07 3.88h-1.89Zm10.27 1.45v1.3h-5.42v-7h5.29v1.3h-3.68v1.52h3.25v1.26h-3.25v1.62Zm5.75 1.3-1.35-1.95h-1.49v1.95h-1.62v-7h3.03a4 4 0 0 1 1.61.31 2.4 2.4 0 0 1 1.06.88 2.4 2.4 0 0 1 .37 1.35 2.4 2.4 0 0 1-.37 1.35 2.4 2.4 0 0 1-1.07.86l1.57 2.25Zm-.03-4.46a1.1 1.1 0 0 0-.38-.9 1.7 1.7 0 0 0-1.11-.32h-1.32v2.44h1.32a1.7 1.7 0 0 0 1.11-.32 1.1 1.1 0 0 0 .38-.9m9.34-2.54v7h-1.62v-2.87h-3.18v2.87h-1.62v-7h1.62v2.76h3.18v-2.76Zm7.08 5.7v1.3h-5.42v-7h5.29v1.3h-3.68v1.52h3.25v1.26h-3.25v1.62Zm2.74-4.38h-2.24v-1.32h6.1v1.32h-2.24v5.68h-1.62Zm6.98 5.8a6 6 0 0 1-1.6-.22 4 4 0 0 1-1.25-.59l.55-1.22a4 4 0 0 0 1.07.53 4 4 0 0 0 1.24.2 2 2 0 0 0 1.02-.2.6.6 0 0 0 .33-.54.5.5 0 0 0-.2-.42 2 2 0 0 0-.5-.26q-.3-.1-.82-.22a11 11 0 0 1-1.31-.38 2 2 0 0 1-.87-.61 1.7 1.7 0 0 1-.37-1.12 2 2 0 0 1 .33-1.1 2.2 2.2 0 0 1 1-.8 4 4 0 0 1 1.63-.28 5 5 0 0 1 1.3.16 4 4 0 0 1 1.12.46l-.5 1.23a4 4 0 0 0-1.94-.55 2 2 0 0 0-1 .22.7.7 0 0 0-.32.58.6.6 0 0 0 .37.53 6 6 0 0 0 1.15.35 11 11 0 0 1 1.3.38 2 2 0 0 1 .88.6 1.6 1.6 0 0 1 .37 1.1 2 2 0 0 1-.34 1.1 2.3 2.3 0 0 1-1 .79 4 4 0 0 1-1.64.28m3.91-3.56h2.83v1.25h-2.83Zm-46.4 9.44v7h-1.62v-2.87h-3.18v2.87h-1.62v-7h1.62v2.76h3.18v-2.76Zm6.27 5.5h-3.25l-.62 1.5h-1.66l3.12-7h1.6l3.13 7h-1.7Zm-.5-1.23-1.11-2.68-1.11 2.68Zm-2.11-4.89a.7.7 0 0 1-.5-.2.7.7 0 0 1-.2-.49.7.7 0 0 1 .2-.5.7.7 0 0 1 .5-.2.7.7 0 0 1 .5.2.7.7 0 0 1 .19.5.7.7 0 0 1-.2.5.7.7 0 0 1-.5.2m2.02 0a.7.7 0 0 1-.5-.2.7.7 0 0 1-.2-.49.7.7 0 0 1 .2-.5.7.7 0 0 1 .5-.19.7.7 0 0 1 .5.2.7.7 0 0 1 .2.5.7.7 0 0 1-.2.5.7.7 0 0 1-.5.18m8.1 7.62-1.34-1.95h-1.49v1.95h-1.62v-7h3.03a4 4 0 0 1 1.62.31 2.4 2.4 0 0 1 1.05.88 2.4 2.4 0 0 1 .37 1.35 2.4 2.4 0 0 1-.38 1.35 2.4 2.4 0 0 1-1.06.86l1.56 2.25Zm-.03-4.46a1.1 1.1 0 0 0-.38-.9 1.7 1.7 0 0 0-1.1-.31h-1.32v2.43h1.32a1.7 1.7 0 0 0 1.1-.32 1.1 1.1 0 0 0 .39-.9m2.92-2.54h3.18a4.5 4.5 0 0 1 2.02.44 3.3 3.3 0 0 1 1.36 1.22 3.5 3.5 0 0 1 .49 1.84 3.5 3.5 0 0 1-.49 1.84 3.3 3.3 0 0 1-1.36 1.23 4.5 4.5 0 0 1-2.01.43h-3.19Zm3.1 5.67a2.4 2.4 0 0 0 1.68-.58 2 2 0 0 0 .63-1.59 2 2 0 0 0-.63-1.58 2.4 2.4 0 0 0-1.68-.59h-1.48v4.34Zm9.67-.17h-3.25l-.62 1.5h-1.66l3.13-7h1.6l3.13 7h-1.7Zm-.5-1.23-1.11-2.68-1.11 2.68Zm3.55-4.27h3.18a4.5 4.5 0 0 1 2.02.44 3.3 3.3 0 0 1 1.36 1.22 3.5 3.5 0 0 1 .49 1.84 3.5 3.5 0 0 1-.49 1.84 3.3 3.3 0 0 1-1.36 1.23 4.5 4.5 0 0 1-2.02.43h-3.18Zm3.1 5.67a2.4 2.4 0 0 0 1.68-.58 2 2 0 0 0 .63-1.59 2 2 0 0 0-.63-1.58 2.4 2.4 0 0 0-1.67-.59h-1.48v4.34ZM126.13 358.13a4 4 0 0 1-1.94-.47 3.5 3.5 0 0 1-1.36-1.29 3.6 3.6 0 0 1-.5-1.86 3.6 3.6 0 0 1 .5-1.87 3.5 3.5 0 0 1 1.36-1.29 4 4 0 0 1 1.95-.46 4 4 0 0 1 1.64.32 3 3 0 0 1 1.24.92l-1.04.96a2.2 2.2 0 0 0-1.76-.82 2.3 2.3 0 0 0-1.16.28 2 2 0 0 0-.8.8 2.3 2.3 0 0 0-.29 1.16 2.3 2.3 0 0 0 .29 1.16 2 2 0 0 0 .8.8 2.3 2.3 0 0 0 1.16.28 2.2 2.2 0 0 0 1.76-.83l1.04.96a3 3 0 0 1-1.24.93 4 4 0 0 1-1.66.32m9.4-1.42v1.3h-5.43v-7h5.29v1.3h-3.68v1.52h3.25v1.26h-3.25v1.62Zm5.75 1.3-1.35-1.95h-1.5V358h-1.62v-7h3.03a4 4 0 0 1 1.62.3 2.4 2.4 0 0 1 1.06.89 2.4 2.4 0 0 1 .37 1.35 2.4 2.4 0 0 1-.38 1.34 2.4 2.4 0 0 1-1.06.87L143 358Zm-.03-4.46a1.1 1.1 0 0 0-.38-.9 1.7 1.7 0 0 0-1.11-.32h-1.32v2.44h1.32a1.7 1.7 0 0 0 1.1-.32 1.1 1.1 0 0 0 .38-.9m4.27-1.22h-2.24V351h6.1v1.32h-2.24V358h-1.62Zm4.72-1.32h1.62v7h-1.62Zm4.9 1.3v1.85h3.25v1.3h-3.24V358h-1.62v-7h5.29v1.3Zm4.78-1.3h1.62v7h-1.62Zm8.7 5.7v1.3h-5.43v-7h5.3v1.3h-3.69v1.52h3.25v1.26h-3.25v1.62Zm5.75 1.3-1.35-1.95h-1.5V358h-1.62v-7h3.03a4 4 0 0 1 1.62.3 2.4 2.4 0 0 1 1.06.89 2.4 2.4 0 0 1 .37 1.35 2.4 2.4 0 0 1-.38 1.34 2.4 2.4 0 0 1-1.06.87l1.56 2.25Zm-.03-4.46a1.1 1.1 0 0 0-.38-.9 1.7 1.7 0 0 0-1.11-.32h-1.32v2.44h1.32a1.7 1.7 0 0 0 1.1-.32 1.1 1.1 0 0 0 .39-.9m7.53 2.96h-3.25L178 358h-1.66l3.12-7h1.6l3.13 7h-1.7Zm-.51-1.23-1.11-2.68-1.11 2.68Zm3.55-4.27h3.18a4.5 4.5 0 0 1 2.02.43 3.3 3.3 0 0 1 1.36 1.23 3.5 3.5 0 0 1 .49 1.84 3.5 3.5 0 0 1-.49 1.84 3.3 3.3 0 0 1-1.36 1.22 4.5 4.5 0 0 1-2.02.44h-3.18Zm3.1 5.67a2.4 2.4 0 0 0 1.68-.59 2 2 0 0 0 .63-1.58 2 2 0 0 0-.63-1.59 2.4 2.4 0 0 0-1.67-.58h-1.49v4.34Zm10.59.03v1.3h-5.42v-7h5.29v1.3h-3.68v1.52h3.25v1.26h-3.25v1.62Zm-59.33 13v1.3h-5.43v-7h5.3v1.3h-3.68v1.52h3.24v1.26h-3.25v1.62Zm5.62 1.3-1.69-2.43-1.66 2.43h-1.86l2.59-3.56-2.46-3.44h1.84l1.61 2.27 1.58-2.27h1.75l-2.44 3.38 2.61 3.62Zm5.54-7a4 4 0 0 1 1.62.3 2.4 2.4 0 0 1 1.05.89 2.4 2.4 0 0 1 .37 1.35 2.4 2.4 0 0 1-.37 1.34 2.4 2.4 0 0 1-1.05.88 4 4 0 0 1-1.62.3H149v1.94h-1.62v-7Zm-.09 3.75a1.7 1.7 0 0 0 1.11-.32 1.1 1.1 0 0 0 .38-.9 1.1 1.1 0 0 0-.38-.9 1.7 1.7 0 0 0-1.1-.3H149v2.42Zm9.7 1.95v1.3h-5.42v-7h5.29v1.3h-3.68v1.52h3.25v1.26h-3.25v1.62Zm5.75 1.3-1.35-1.95h-1.49V371h-1.62v-7h3.03a4 4 0 0 1 1.62.3 2.4 2.4 0 0 1 1.05.89 2.4 2.4 0 0 1 .37 1.35 2.3 2.3 0 0 1-1.44 2.2l1.57 2.26Zm-.03-4.46a1.1 1.1 0 0 0-.38-.9 1.7 1.7 0 0 0-1.11-.32h-1.32v2.44h1.32a1.7 1.7 0 0 0 1.11-.32 1.1 1.1 0 0 0 .38-.9m4.27-1.22h-2.24V364h6.1v1.32h-2.24V371h-1.62Zm10.15 4.38v1.3h-5.42v-7h5.29v1.3h-3.68v1.52h3.25v1.26h-3.25v1.62Zm5.75 1.3-1.35-1.95h-1.49V371h-1.62v-7h3.03a4 4 0 0 1 1.62.3 2.4 2.4 0 0 1 1.05.89 2.4 2.4 0 0 1 .37 1.35 2.3 2.3 0 0 1-1.44 2.2l1.57 2.26Zm-.03-4.46a1.1 1.1 0 0 0-.38-.9 1.7 1.7 0 0 0-1.11-.32h-1.32v2.44h1.32a1.7 1.7 0 0 0 1.11-.32 1.1 1.1 0 0 0 .38-.9" class="i"/><path d="M294.29 354.4h1.48v2.84a4 4 0 0 1-1.32.66 5 5 0 0 1-1.51.23 4 4 0 0 1-1.96-.47 3.5 3.5 0 0 1-1.36-1.29 3.6 3.6 0 0 1-.5-1.86 3.6 3.6 0 0 1 .5-1.87 3.5 3.5 0 0 1 1.37-1.29 4 4 0 0 1 1.98-.46 4 4 0 0 1 1.67.3 3 3 0 0 1 1.26.9l-1.04.97a2.4 2.4 0 0 0-1.81-.8 2.5 2.5 0 0 0-1.19.29 2 2 0 0 0-.81.79 2.3 2.3 0 0 0-.29 1.17 2.3 2.3 0 0 0 .29 1.16 2 2 0 0 0 .8.8 2.4 2.4 0 0 0 1.18.28 2.6 2.6 0 0 0 1.26-.3Zm2.98-3.4h3.18a4.5 4.5 0 0 1 2.02.44 3.3 3.3 0 0 1 1.35 1.23 3.5 3.5 0 0 1 .49 1.84 3.5 3.5 0 0 1-.49 1.84 3.3 3.3 0 0 1-1.36 1.22 4.5 4.5 0 0 1-2.01.44h-3.18Zm3.1 5.68a2.4 2.4 0 0 0 1.68-.59 2 2 0 0 0 .62-1.58 2 2 0 0 0-.62-1.59 2.4 2.4 0 0 0-1.68-.58h-1.48v4.34Zm8.19-5.67a4 4 0 0 1 1.62.3 2.4 2.4 0 0 1 1.05.89 2.4 2.4 0 0 1 .37 1.35 2.4 2.4 0 0 1-.37 1.34 2.4 2.4 0 0 1-1.05.88 4 4 0 0 1-1.62.3h-1.41v1.94h-1.62v-7Zm-.09 3.75a1.7 1.7 0 0 0 1.11-.32 1.1 1.1 0 0 0 .38-.9 1.1 1.1 0 0 0-.38-.9 1.7 1.7 0 0 0-1.11-.31h-1.32v2.43Zm8.74 3.25-1.35-1.95h-1.49V358h-1.62v-7h3.03a4 4 0 0 1 1.62.3 2.4 2.4 0 0 1 1.05.89 2.4 2.4 0 0 1 .37 1.35 2.4 2.4 0 0 1-.37 1.34 2.4 2.4 0 0 1-1.07.87l1.57 2.25Zm-.03-4.46a1.1 1.1 0 0 0-.38-.9 1.7 1.7 0 0 0-1.11-.32h-1.32v2.44h1.32a1.7 1.7 0 0 0 1.11-.32 1.1 1.1 0 0 0 .38-.9m-40.81 17.58a4 4 0 0 1-1.94-.47 3.5 3.5 0 0 1-1.36-1.29 3.6 3.6 0 0 1-.5-1.86 3.6 3.6 0 0 1 .5-1.87 3.5 3.5 0 0 1 1.36-1.29 4 4 0 0 1 1.95-.46 4 4 0 0 1 1.64.32 3 3 0 0 1 1.24.92l-1.04.96a2.2 2.2 0 0 0-1.77-.82 2.3 2.3 0 0 0-1.16.28 2 2 0 0 0-.8.8 2.3 2.3 0 0 0-.28 1.16 2.3 2.3 0 0 0 .28 1.16 2 2 0 0 0 .8.8 2.3 2.3 0 0 0 1.16.29 2.2 2.2 0 0 0 1.76-.83l1.04.96a3 3 0 0 1-1.24.93 4 4 0 0 1-1.64.3m7.22 0a4 4 0 0 1-1.97-.47 3.5 3.5 0 0 1-1.37-1.3 3.5 3.5 0 0 1-.5-1.86 3.5 3.5 0 0 1 .5-1.85 3.5 3.5 0 0 1 1.37-1.3 4 4 0 0 1 1.97-.47 4 4 0 0 1 1.96.47 3.5 3.5 0 0 1 1.37 1.3 3.5 3.5 0 0 1 .5 1.85 3.5 3.5 0 0 1-.5 1.86 3.5 3.5 0 0 1-1.37 1.3 4 4 0 0 1-1.97.47m0-1.38a2 2 0 0 0 1.12-.29 2 2 0 0 0 .78-.8 2.3 2.3 0 0 0 .29-1.16 2.3 2.3 0 0 0-.29-1.16 2 2 0 0 0-.78-.8 2 2 0 0 0-1.12-.28 2 2 0 0 0-1.12.28 2 2 0 0 0-.79.8 2.3 2.3 0 0 0-.28 1.17 2.3 2.3 0 0 0 .28 1.16 2 2 0 0 0 .79.8 2 2 0 0 0 1.11.28M295 371l-.01-4.2-2.06 3.46h-.73l-2.05-3.37v4.1h-1.53v-7h1.34l2.62 4.36 2.59-4.35h1.33l.02 7Zm6.2-7a4 4 0 0 1 1.62.3 2.4 2.4 0 0 1 1.06.89 2.4 2.4 0 0 1 .37 1.35 2.4 2.4 0 0 1-.37 1.34 2.4 2.4 0 0 1-1.06.88 4 4 0 0 1-1.61.3h-1.42V371h-1.62v-7Zm-.09 3.75a1.7 1.7 0 0 0 1.11-.32 1.1 1.1 0 0 0 .38-.9 1.1 1.1 0 0 0-.38-.9 1.7 1.7 0 0 0-1.1-.3h-1.33v2.42Zm4.28-3.75h1.62v5.68h3.51V371h-5.13Zm6.04 0h1.62v7h-1.62Zm7.89 5.5h-3.25l-.62 1.5h-1.66l3.12-7h1.6l3.13 7h-1.7Zm-.51-1.23-1.11-2.68-1.11 2.68Zm9.98-4.27v7h-1.33l-3.49-4.25V371h-1.6v-7h1.34l3.48 4.25V364Zm3.11 1.32h-2.24V364h6.1v1.32h-2.24V371h-1.62Z" class="b"/></g></svg>