<svg xmlns="http://www.w3.org/2000/svg" width="111.525" height="21.091" viewBox="0 0 111.525 21.091">
  <g id="b" transform="translate(0)">
    <g id="c" transform="translate(0)">
      <g id="Group_567" data-name="Group 567" transform="translate(0)">
        <path id="Path_5468" data-name="Path 5468" d="M350.021,21.091a27.323,27.323,0,0,1-2.694-.962,10.105,10.105,0,0,1-5.836-7.257A10.182,10.182,0,0,1,344.4,2.993,10,10,0,0,1,351.606,0a1.186,1.186,0,0,1,.2.047,13.928,13.928,0,0,1-.02,1.4c-.01.1-.281.255-.438.263A8.292,8.292,0,0,0,347.038,3.1,8.633,8.633,0,0,0,343,11.392a8.807,8.807,0,0,0,6.6,7.746,10.145,10.145,0,0,0,1.795.236c.309.023.42.124.414.43-.009.429.018.858.031,1.287Z" transform="translate(-297.656)" fill="rgba(0,0,0,0.46)"/>
        <path id="Path_5469" data-name="Path 5469" d="M-.009,51.353a11.386,11.386,0,0,1,.844-1.842,4.406,4.406,0,0,1,7.075-.18l-.739.637c-.251-.221-.508-.482-.8-.7a3.29,3.29,0,0,0-3.847-.015A3.5,3.5,0,0,0,4.307,55.58a2.839,2.839,0,0,0,2.842-2.5h-3A1.565,1.565,0,0,1,5.587,52.06H8.34a3.966,3.966,0,0,1-3.275,4.458,4.309,4.309,0,0,1-4.906-3.16,3.12,3.12,0,0,0-.168-.379V51.352Z" transform="translate(0.01 -41.558)" fill="rgba(0,0,0,0.46)"/>
        <path id="Path_5470" data-name="Path 5470" d="M838.035,57.239a.151.151,0,0,0-.047-.006,1.686,1.686,0,0,1-1.926-1.056,26.473,26.473,0,0,0-1.607-2.315,1.636,1.636,0,0,0-.463-.306l-.13.106V57.2H832.81V48.57a27.125,27.125,0,0,1,2.844.209A2.2,2.2,0,0,1,837.469,51a2.338,2.338,0,0,1-1.7,2.424c-.089.027-.177.057-.319.1l2.583,3.525Zm-4.185-7.746c0,1.093-.009,2.013.013,2.933,0,.1.188.282.271.272a7.814,7.814,0,0,0,1.535-.271,1.239,1.239,0,0,0,.8-1.292,1.214,1.214,0,0,0-.828-1.267,18.094,18.094,0,0,0-1.789-.375Z" transform="translate(-726.511 -42.371)" fill="rgba(0,0,0,0.46)"/>
        <path id="Path_5471" data-name="Path 5471" d="M382.02,31.533a5.817,5.817,0,0,0-2.813-1.994,5.288,5.288,0,0,0-5.46,1.59,5.558,5.558,0,0,0,2,8.714,4.569,4.569,0,0,0,6.162-2.859,4.57,4.57,0,0,0,.08-.711h-4.529c.553-.568,1-1.031,1.451-1.486a.338.338,0,0,1,.223-.069c1.56,0,3.121,0,4.717,0a6.637,6.637,0,0,1-.934,4.137,6.194,6.194,0,0,1-6.387,2.854,6.7,6.7,0,0,1-5.616-5.232,7.022,7.022,0,0,1,12-6.428c.206.207.269.361.015.583-.237.207-.435.458-.654.687-.064.068-.142.121-.255.217Z" transform="translate(-323.371 -24.213)" fill="rgba(0,0,0,0.46)"/>
        <path id="Path_5472" data-name="Path 5472" d="M217.461,57.091c-.462.009-.924.04-1.384.013a.637.637,0,0,1-.389-.278c-.721-1.012-1.422-2.041-2.147-3.051a2.664,2.664,0,0,0-.586-.417v3.726h-1.1V48.45a27.938,27.938,0,0,1,2.945.251,2.206,2.206,0,0,1,1.755,2.267,2.379,2.379,0,0,1-1.6,2.318c-.117.041-.237.08-.412.139.571.789,1.112,1.551,1.667,2.3.309.419.643.818.965,1.227l.061.027v-.07l0-.005.223.185Zm-4.485-4.475a10.73,10.73,0,0,0,1.428-.172,1.435,1.435,0,0,0,.78-2.35,2.793,2.793,0,0,0-2.208-.587v3.111Z" transform="translate(-184.817 -42.266)" fill="rgba(0,0,0,0.46)"/>
        <path id="Path_5473" data-name="Path 5473" d="M61.411,55.034c1.372-2.994,2.714-5.925,4.11-8.974l4.112,8.973a7.831,7.831,0,0,1-.983-.013.529.529,0,0,1-.323-.276c-.253-.514-.454-1.053-.725-1.556a.684.684,0,0,0-.489-.313c-1.067-.028-2.134-.005-3.2-.022a.449.449,0,0,0-.488.337c-.2.47-.452.915-.627,1.391a.582.582,0,0,1-.706.459,5.386,5.386,0,0,0-.683-.005ZM65.52,48.46c-.523,1.195-1,2.282-1.486,3.4h2.979c-.5-1.132-.973-2.212-1.492-3.4Z" transform="translate(-53.571 -40.181)" fill="rgba(0,0,0,0.46)"/>
        <path id="Path_5474" data-name="Path 5474" d="M254.213,55.006l-.223-.185c.577-1.292,1.149-2.585,1.732-3.873.721-1.592,1.453-3.178,2.235-4.889l4.075,8.9c-.06.04-.083.069-.108.07-1.02.05-1.1.075-1.412-.878a1.609,1.609,0,0,0-2-1.307c-.7.1-1.432,0-2.147.034a.708.708,0,0,0-.488.313c-.222.383-.378.805-.563,1.21a1,1,0,0,1-1.1.609Zm5.24-3.142-1.5-3.4-1.491,3.4Z" transform="translate(-221.57 -40.181)" fill="rgba(0,0,0,0.46)"/>
        <path id="Path_5475" data-name="Path 5475" d="M169.888,56.73v.964a1.336,1.336,0,0,1-.273.06c-1.324,0-2.647,0-3.971.006-.249,0-.385-.05-.384-.338.008-2.7.006-5.39.01-8.086a.615.615,0,0,1,.049-.156h4.553v.962h-3.458v2.374h3.359v1.026H166.4v3.188h3.486Z" transform="translate(-144.165 -42.903)" fill="rgba(0,0,0,0.46)"/>
        <path id="Path_5476" data-name="Path 5476" d="M787.5,56.816h3.445V57.8H786.39V49.27h4.541a.39.39,0,0,1,.047.1c.1.879.1.883-.771.883h-2.7V52.58h3.357v1.039H787.5Z" transform="translate(-686.016 -42.981)" fill="rgba(0,0,0,0.46)"/>
        <path id="Path_5477" data-name="Path 5477" d="M642.49,49.18h1.024a3.35,3.35,0,0,1,.038.359c0,1.737.008,3.474,0,5.211A3,3,0,0,1,640.79,57.9a2.965,2.965,0,0,1-3.454-2.751c-.08-1.971-.019-3.947-.019-5.958h1.057v.482c0,1.53-.005,3.059,0,4.59a5.667,5.667,0,0,0,.094,1,1.977,1.977,0,0,0,3.884.086,6.487,6.487,0,0,0,.128-1.326c.015-1.45.005-2.9.006-4.351V49.18Z" transform="translate(-555.951 -42.903)" fill="rgba(0,0,0,0.46)"/>
        <path id="Path_5478" data-name="Path 5478" d="M699.57,48.9l-.832.509a1.5,1.5,0,0,0-1.47-.78,2.092,2.092,0,0,0-.946.384.949.949,0,0,0,.071,1.612,8.763,8.763,0,0,0,1.15.571,11.487,11.487,0,0,1,1.154.564,2.391,2.391,0,0,1,1.117,2.59,2.638,2.638,0,0,1-2.032,2.112,2.682,2.682,0,0,1-3.27-1.981,2.98,2.98,0,0,1-.042-.356l1.012-.234c.046.161.089.309.131.458a1.628,1.628,0,0,0,1.574,1.162,1.584,1.584,0,0,0,1.492-1.133,1.4,1.4,0,0,0-.673-1.756c-.422-.249-.891-.421-1.33-.645a7.574,7.574,0,0,1-1.039-.582,2.016,2.016,0,0,1-.066-3.186,2.628,2.628,0,0,1,4,.692Z" transform="translate(-605.828 -41.5)" fill="rgba(0,0,0,0.46)"/>
        <path id="Path_5479" data-name="Path 5479" d="M548.291,54.761a4.481,4.481,0,0,1-.014.87.783.783,0,0,1-.319.5,4.463,4.463,0,1,1-3.607-8.157,4.637,4.637,0,0,1,3.357-.049c.44.157.662.394.588.877a4.986,4.986,0,0,0-.005.661,3.594,3.594,0,0,0-3.284-.675,3.23,3.23,0,0,0-1.761,1.324,3.589,3.589,0,0,0,.232,4.308c1.183,1.349,2.622,1.465,4.812.341Z" transform="translate(-472.416 -41.553)" fill="rgba(0,0,0,0.46)"/>
        <path id="Path_5480" data-name="Path 5480" d="M741.664,50.175h-2V49.22h5.1v.956c-.516,0-1.035.024-1.551-.008-.391-.024-.482.121-.48.491.015,2.169.008,4.337.008,6.506v.594h-1.067V50.175Z" transform="translate(-645.25 -42.938)" fill="rgba(0,0,0,0.46)"/>
        <path id="Path_5481" data-name="Path 5481" d="M607.983,56.737v1.008H604.35V49.2h1.04v7.537h2.591Z" transform="translate(-527.211 -42.92)" fill="rgba(0,0,0,0.46)"/>
        <path id="Path_5482" data-name="Path 5482" d="M131.47,49.15H132.5V56.7H135.1v1H131.47Z" transform="translate(-114.688 -42.877)" fill="rgba(0,0,0,0.46)"/>
        <path id="Path_5483" data-name="Path 5483" d="M447.39,7.353a.866.866,0,0,1-.841-.909.826.826,0,0,1,.859-.826.9.9,0,0,1,.864.849.926.926,0,0,1-.882.887Z" transform="translate(-389.551 -4.901)" fill="rgba(0,0,0,0.46)"/>
        <path id="Path_5484" data-name="Path 5484" d="M488.491,105.16a.8.8,0,0,1,.835.83.833.833,0,0,1-.839.89.883.883,0,0,1-.878-.869.858.858,0,0,1,.882-.849Z" transform="translate(-425.37 -91.738)" fill="rgba(0,0,0,0.46)"/>
        <path id="Path_5485" data-name="Path 5485" d="M472.836,130.58a.8.8,0,0,1-.836.84.856.856,0,0,1-.881-.86.907.907,0,0,1,.906-.86.85.85,0,0,1,.812.882Z" transform="translate(-410.985 -113.145)" fill="rgba(0,0,0,0.46)"/>
        <path id="Path_5486" data-name="Path 5486" d="M489.331,47.668a.8.8,0,0,1-.887.789.876.876,0,0,1-.827-.874.89.89,0,0,1,.911-.849A.847.847,0,0,1,489.331,47.668Z" transform="translate(-425.377 -40.768)" fill="rgba(0,0,0,0.46)"/>
        <path id="Path_5487" data-name="Path 5487" d="M472.836,23.125a.847.847,0,0,1-.817.873.93.93,0,0,1-.9-.872.857.857,0,0,1,.893-.848A.794.794,0,0,1,472.836,23.125Z" transform="translate(-410.985 -19.435)" fill="rgba(0,0,0,0.46)"/>
        <path id="Path_5488" data-name="Path 5488" d="M448.287,147.056a.859.859,0,0,1-.86.888.841.841,0,0,1-.858-.828.855.855,0,0,1,.848-.9A.893.893,0,0,1,448.287,147.056Z" transform="translate(-389.568 -127.557)" fill="rgba(0,0,0,0.46)"/>
        <path id="Path_5489" data-name="Path 5489" d="M495.225,76.83a.878.878,0,0,1-.878.876.858.858,0,1,1,.878-.876Z" transform="translate(-430.509 -66.291)" fill="rgba(0,0,0,0.46)"/>
        <path id="Path_5490" data-name="Path 5490" d="M253.58,114.731v.07l-.06-.027a.054.054,0,0,1,.06-.045Z" transform="translate(-221.16 -100.086)" fill="rgba(0,0,0,0.46)"/>
      </g>
    </g>
  </g>
</svg>
