<svg xmlns="http://www.w3.org/2000/svg" viewBox="0 0 59.49 92.41">
  <path fill="#195F8C" d="M0,92.41V0H59.49V82c-12.26,2.11-24.19,4.14-36.12,6.22C15.58,89.58,7.79,91,0,92.41Z" />
  <path fill="#FFFFFF" d="M38,53.33a8.26,8.26,0,0,0-16.42,0,8.26,8.26,0,0,0,.91,16.47h7.3a4.61,4.61,0,1,0,0-9.22A2.69,2.69,0,1,1,31.65,56,1,1,0,1,0,33,54.64a4.56,4.56,0,0,0-3.27-1.36,4.61,4.61,0,1,0,0,9.22,2.69,2.69,0,1,1,0,5.38h-7.3a6.34,6.34,0,0,1,0-12.68,1,1,0,0,0,1-1,6.34,6.34,0,1,1,12.68,0,1,1,0,0,0,1,1,6.34,6.34,0,1,1,0,12.68,1,1,0,1,0,0,1.92A8.26,8.26,0,0,0,38,53.33Z" />
</svg>
