<svg xmlns="http://www.w3.org/2000/svg" width="350" height="200" viewBox="0 0 350 200"><g id="safespring-azure" transform="translate(-190 -242)"><path id="Path_4869" fill="#faf7fb" d="M0 0h350v200H0Z" transform="translate(190 242)"/><g id="Group_161" transform="translate(2)"><g id="Group_136" transform="translate(415.777 316)"><rect id="Rectangle_284" width="82.593" height="52.719" fill="#195f8c" rx="7"/><path id="Line_43" fill="none" stroke="#ffe26a" stroke-width="9" d="M0 0v52.72" transform="translate(30.753)"/><path id="Line_44" fill="none" stroke="#ffe26a" stroke-width="9" d="M82.6 0H0" transform="translate(0 26.36)"/></g><g id="Group_159" transform="translate(-29 -37)"><g id="Group_158" transform="translate(269.622 352.816)"><g id="Group_137" transform="translate(22.726)"><path id="Path_4833" fill="#804998" fill-rule="evenodd" d="M11.51 13.81 0 18.22V0l11.51 3.97Z"/></g><g id="Group_138" transform="translate(12.41 .147)"><path id="Path_4834" fill="#804998" fill-rule="evenodd" d="M0 2.94v11.9l8.52 3.23V0Zm.9 11.02-.45-.15V3.97l.45-.15.45-.15.45-.14v10.72l-.45-.14Zm2.24.59-.6-.15V3.38l.6-.15.6-.15.6-.14v12.05l-.6-.15Zm2.7.88-.75-.3V2.64l.74-.14.75-.3.9-.3v13.97l-.9-.3Z"/></g><g id="Group_139" transform="translate(49.489)"><path id="Path_4835" fill="#804998" fill-rule="evenodd" d="M11.51 13.81 0 18.22V0l11.51 3.97Z"/></g><g id="Group_140" transform="translate(39.172 .147)"><path id="Path_4836" fill="#804998" fill-rule="evenodd" d="M0 2.94v11.9l8.52 3.23V0Zm.9 11.02-.45-.15V3.97l.45-.15.45-.15.45-.14v10.72l-.45-.14Zm2.24.59-.6-.15V3.38l.6-.15.6-.15.6-.14v12.05l-.6-.15Zm2.7.88-.75-.3V2.64l.74-.14.75-.3.9-.3v13.97l-.9-.3Z"/></g><g id="Group_141" transform="translate(22.726 36.147)"><path id="Path_4837" fill="#804998" fill-rule="evenodd" d="M11.51 13.81 0 18.22V0l11.51 3.97Z"/></g><g id="Group_142" transform="translate(12.41 36.294)"><path id="Path_4838" fill="#804998" fill-rule="evenodd" d="M0 2.94v11.9l8.52 3.23V0Zm.9 11.02-.45-.15V3.97l.45-.15.45-.15.45-.14v10.72l-.45-.14Zm2.24.59-.6-.15V3.38l.6-.15.6-.14.6-.15v12.05l-.6-.15Zm2.7.88-.75-.3V2.64l.74-.14.75-.3.9-.3v13.97l-.9-.3Z"/></g><g id="Group_143" transform="translate(49.489 36.147)"><path id="Path_4839" fill="#804998" fill-rule="evenodd" d="M11.51 13.81 0 18.22V0l11.51 3.97Z"/></g><g id="Group_144" transform="translate(39.172 36.294)"><path id="Path_4840" fill="#804998" fill-rule="evenodd" d="M0 2.94v11.9l8.52 3.23V0Zm.9 11.02-.45-.15V3.97l.45-.15.45-.15.45-.14v10.72l-.45-.14Zm2.24.59-.6-.15V3.38l.6-.15.6-.14.6-.15v12.05l-.6-.15Zm2.7.88-.75-.3V2.64l.74-.14.75-.3.9-.3v13.97l-.9-.3Z"/></g><g id="Group_145" transform="translate(37.079 18.074)"><path id="Path_4841" fill="#804998" fill-rule="evenodd" d="M11.36 13.81 0 18.07V0l11.36 3.97Z"/></g><g id="Group_146" transform="translate(26.613 18.074)"><path id="Path_4842" fill="#804998" fill-rule="evenodd" d="M0 2.94v11.9l8.52 3.23V0Zm.9 11.02-.45-.15V3.97l.45-.15.45-.15.45-.14v10.72l-.45-.14Zm2.24.73-.6-.14V3.53l.6-.15.6-.15.6-.14v12.05l-.6-.15Zm2.7.88-.75-.29V2.8l.74-.15.75-.29.9-.3v13.97l-.9-.3Z"/></g><g id="Group_147" transform="translate(10.466 18.074)"><path id="Path_4843" fill="#804998" fill-rule="evenodd" d="M11.36 13.81 0 18.07V0l11.36 3.97Z"/></g><g id="Group_148" transform="translate(0 18.074)"><path id="Path_4844" fill="#804998" fill-rule="evenodd" d="M0 2.94v11.9l8.52 3.23V0Zm.9 11.02-.45-.15V3.97l.45-.15.45-.15.45-.14v10.72l-.45-.14Zm2.24.73-.6-.14V3.53l.6-.15.6-.15.6-.14v12.05l-.6-.15Zm2.7.88-.75-.29V2.8l.74-.15.75-.29.9-.3v13.97l-.9-.3Z"/></g><g id="Group_149" transform="translate(63.393 18.074)"><path id="Path_4845" fill="#804998" fill-rule="evenodd" d="M11.36 13.81 0 18.07V0l11.36 3.97Z"/></g><g id="Group_150" transform="translate(22.726)"><path id="Path_4846" fill="#fff" fill-rule="evenodd" d="M11.51 13.81 0 18.22V0l11.51 3.97Z" opacity="0.2"/></g><g id="Group_151" transform="translate(49.489)"><path id="Path_4847" fill="#fff" fill-rule="evenodd" d="M11.51 13.81 0 18.22V0l11.51 3.97Z" opacity="0.2"/></g><g id="Group_152" transform="translate(22.726 36.147)"><path id="Path_4848" fill="#fff" fill-rule="evenodd" d="M11.51 13.81 0 18.22V0l11.51 3.97Z" opacity="0.2"/></g><g id="Group_153" transform="translate(49.489 36.147)"><path id="Path_4849" fill="#fff" fill-rule="evenodd" d="M11.51 13.81 0 18.22V0l11.51 3.97Z" opacity="0.2"/></g><g id="Group_154" transform="translate(37.079 18.074)"><path id="Path_4850" fill="#fff" fill-rule="evenodd" d="M11.36 13.81 0 18.07V0l11.36 3.97Z" opacity="0.2"/></g><g id="Group_155" transform="translate(10.466 18.074)"><path id="Path_4851" fill="#fff" fill-rule="evenodd" d="M11.36 13.81 0 18.07V0l11.36 3.97Z" opacity="0.2"/></g><g id="Group_156" transform="translate(63.393 18.074)"><path id="Path_4852" fill="#fff" fill-rule="evenodd" d="M11.36 13.81 0 18.07V0l11.36 3.97Z" opacity="0.2"/></g><g id="Group_157" transform="translate(52.927 18.074)"><path id="Path_4853" fill="#804998" fill-rule="evenodd" d="M0 2.94v11.9l8.52 3.23V0Zm.9 11.02-.45-.15V3.97l.45-.15.45-.15.45-.14v10.72l-.45-.14Zm2.24.73-.6-.14V3.53l.6-.15.6-.15.6-.14v12.05l-.6-.15Zm2.7.88-.75-.29V2.8l.74-.15.75-.29.9-.3v13.97l-.9-.3Z"/></g></g><circle id="Ellipse_20" cx="49.5" cy="49.5" r="49.5" fill="rgba(154,109,173,0.35)" transform="translate(257 330)"/></g><path id="Line_45" fill="none" stroke="#c3c3c3" stroke-linecap="square" stroke-width="17" d="M0 0h26" transform="translate(352.5 342.5)"/><g id="Group_160" transform="rotate(90 41.5 357.5)"><path id="Path_4854" fill="#c3c3c3" d="M50.9 32.2H2.1a.5.5 0 0 1-.39-.81l24.4-30.12a.5.5 0 0 1 .78 0l24.4 30.12a.5.5 0 0 1-.39.81"/><path id="Path_4855" fill="#c3c3c3" d="M26.5 1.59 2.1 31.7h48.8zm0-1a1 1 0 0 1 .78.37l24.4 30.11a1 1 0 0 1-.78 1.63H2.1a1 1 0 0 1-.78-1.63L25.72.96a1 1 0 0 1 .78-.37"/></g></g><path id="Path_4870" fill="#faf7fb" d="M0 0h350v200H0Z" transform="translate(190 242)"/></g></svg>