<svg xmlns="http://www.w3.org/2000/svg" xmlns:xlink="http://www.w3.org/1999/xlink" width="1920" height="701" viewBox="0 0 1920 701"><defs><linearGradient id="a" x1="3.14" x2="-0.03" y1="-1.956" y2="1.026" gradientUnits="objectBoundingBox"><stop offset="0" stop-color="#0f0379" stop-opacity="0.392"/><stop offset="1" stop-color="#195f8c" stop-opacity="0"/></linearGradient><radialGradient id="b" cx="0.5" cy="0.5" r="0.5" gradientUnits="objectBoundingBox"><stop offset="0" stop-color="#0f0379" stop-opacity="0.302"/><stop offset="1" stop-color="#0f0379" stop-opacity="0"/></radialGradient><radialGradient id="c" cx="0.5" cy="0.5" r="0.5" gradientUnits="objectBoundingBox"><stop offset="0" stop-color="#0f0379" stop-opacity="0.314"/><stop offset="1" stop-color="#0f0379" stop-opacity="0"/></radialGradient><clipPath id="e"><path d="M0 0h1920v701H0z"/></clipPath></defs><g id="d" clip-path="url(#e)"><path fill="#fff" d="M0 0h1920v701H0z"/><g transform="translate(-190 -242)"><path fill="url(#a)" d="M0 0h1920v701H0z" transform="translate(190 242)"/><ellipse cx="713" cy="573.5" fill="url(#b)" rx="713" ry="573.5" transform="translate(-739 37)"/><ellipse cx="713" cy="573.5" fill="url(#c)" rx="713" ry="573.5" transform="translate(1360 370)"/></g><g opacity="0.145" style="mix-blend-mode:darken;isolation:isolate" transform="translate(953 801.152)"><path fill="#0f0379" d="M567.93-9.05a80.4 80.4 0 0 1-69.58-40.17L341.2-321.42a80.3 80.3 0 0 1 0-80.35l157.15-272.2a80.4 80.4 0 0 1 69.58-40.18h314.32a80.4 80.4 0 0 1 69.6 40.17L1109-401.78a80.3 80.3 0 0 1 0 80.36L951.83-49.22a80.4 80.4 0 0 1-69.6 40.18Z"/><path fill="#fff" fill-rule="evenodd" d="M602.86-438.84c31.37-16.86 73.52-27.31 120.1-27.31s88.72 10.45 120.09 27.32a103 103 0 0 1-15.03 10.53c-24.6 14.41-61.64 24.83-105.06 24.83s-80.48-10.42-105.07-24.83a103 103 0 0 1-15.03-10.54m-4.63-4.33c-8.62-8.89-10.57-16.3-10.57-20.3 0-6.1 4.54-20.11 30.23-35.18 24.6-14.41 61.64-24.83 105.07-24.83s80.47 10.42 105.06 24.83c25.7 15.07 30.23 29.09 30.23 35.17 0 4-1.95 11.43-10.59 20.32-32.55-17.98-76.43-29-124.7-29s-92.15 11.02-124.73 29m306.68-20.3c0 17.66-7.33 34.32-20.29 48.99 12.96 14.66 20.28 31.32 20.28 48.98v1.53c0 18.32-7.89 35.57-21.77 50.63 13.88 15.06 21.77 32.3 21.77 50.63v1.38c0 58.9-81.46 106.65-181.94 106.65S541-202.43 541-261.33v-1.37c0-18.33 7.88-35.57 21.78-50.64-13.9-15.06-21.78-32.3-21.78-50.63v-1.53c0-17.66 7.33-34.32 20.29-49-12.96-14.66-20.28-31.32-20.28-48.97 0-58.91 81.46-106.66 181.95-106.66S904.9-522.38 904.9-463.48m-339.5 53.39a85 85 0 0 0-9.87 13.79 47 47 0 0 0-2 13.5c0 18.9 11.54 36.42 31.15 50.75 20.32-13.91 46.66-24.72 76.63-31.05-40.63-8.57-74.55-25.38-95.92-47Zm112.9 50.03c-31.28 4.72-59.1 14.28-80.97 27.11q-3.81 2.23-7.34 4.58c31.02 20.34 79.05 33.4 132.96 33.4s101.93-13.06 132.96-33.4a162 162 0 0 0-7.35-4.57c-21.89-12.83-49.7-22.4-80.97-27.12a306 306 0 0 1-44.64 3.24 306 306 0 0 1-44.65-3.24m106.27-3.04c29.99 6.33 56.32 17.14 76.64 31.05 19.61-14.33 31.13-31.84 31.13-50.75a47 47 0 0 0-1.99-13.5 84 84 0 0 0-9.87-13.79c-21.35 21.61-55.27 38.42-95.91 47M722.96-257.3c-66.21 0-124.16-20.73-156-51.72a86 86 0 0 0-11.51 15.7 47 47 0 0 0-1.9 13.17c0 48.51 75.85 87.84 169.4 87.84s169.4-39.33 169.4-87.84a47 47 0 0 0-1.88-13.16 86 86 0 0 0-11.53-15.71c-31.85 30.99-89.79 51.72-155.99 51.72"/></g><g opacity="0.145" style="mix-blend-mode:darken;isolation:isolate" transform="translate(701 569.213)"><path fill="#0f0379" d="M456.5-339.85a42.7 42.7 0 0 1-36.93-21.33l-83.42-144.5a42.6 42.6 0 0 1 0-42.65l83.42-144.5a42.7 42.7 0 0 1 36.93-21.32h166.85a42.7 42.7 0 0 1 36.95 21.33l83.42 144.5a42.6 42.6 0 0 1 0 42.65L660.3-361.18a42.7 42.7 0 0 1-36.95 21.33Z"/><path fill="#fff" fill-rule="evenodd" d="M475.05-568c16.65-8.96 39.03-14.5 63.75-14.5s47.1 5.54 63.75 14.5a55 55 0 0 1-7.98 5.58c-13.05 7.66-32.72 13.19-55.77 13.19s-42.72-5.53-55.77-13.19a55 55 0 0 1-7.98-5.59m-2.46-2.3c-4.57-4.72-5.6-8.66-5.6-10.79 0-3.23 2.4-10.67 16.04-18.67 13.05-7.65 32.72-13.18 55.77-13.18s42.72 5.53 55.77 13.18c13.64 8 16.05 15.44 16.05 18.67 0 2.13-1.04 6.07-5.62 10.79-17.28-9.55-40.58-15.4-66.2-15.4s-48.92 5.85-66.2 15.4Zm162.8-10.79c0 9.38-3.9 18.22-10.77 26 6.87 7.8 10.76 16.64 10.76 26v.82c0 9.73-4.19 18.88-11.56 26.88 7.37 8 11.56 17.15 11.56 26.88v.72c0 31.27-43.24 56.62-96.58 56.62s-96.59-25.35-96.59-56.62v-.72c0-9.73 4.18-18.89 11.56-26.88-7.38-8-11.56-17.15-11.56-26.88v-.81c0-9.38 3.9-18.22 10.77-26-6.88-7.8-10.76-16.64-10.76-26 0-31.28 43.24-56.63 96.58-56.63s96.59 25.36 96.59 56.62m-180.23 28.35a45 45 0 0 0-5.24 7.32 25 25 0 0 0-1.05 7.16c0 10.04 6.12 19.34 16.53 26.95 10.79-7.39 24.77-13.13 40.68-16.49-21.57-4.55-39.57-13.47-50.92-24.94m59.94 26.56c-16.6 2.5-31.37 7.58-42.98 14.39q-2.03 1.18-3.9 2.43c16.47 10.8 41.96 17.73 70.58 17.73s54.1-6.93 70.58-17.73a86 86 0 0 0-3.9-2.43c-11.62-6.81-26.39-11.88-42.98-14.4a162 162 0 0 1-23.7 1.72 162 162 0 0 1-23.7-1.71m56.4-1.62c15.93 3.36 29.9 9.1 40.69 16.49 10.41-7.61 16.53-16.9 16.53-26.95a25 25 0 0 0-1.06-7.16 44 44 0 0 0-5.24-7.32c-11.33 11.47-29.34 20.4-50.91 24.94m-32.7 56.15c-35.15 0-65.9-11-82.8-27.45a46 46 0 0 0-6.12 8.34 25 25 0 0 0-1 6.99c0 25.75 40.26 46.63 89.92 46.63s89.92-20.88 89.92-46.63a25 25 0 0 0-1-6.99 45 45 0 0 0-6.12-8.34c-16.9 16.45-47.66 27.45-82.8 27.45"/></g><g opacity="0.145" style="mix-blend-mode:darken;isolation:isolate" transform="translate(649.566 1273.356)"><path fill="#0f0379" d="M456.5-339.85a42.7 42.7 0 0 1-36.93-21.33l-83.42-144.5a42.6 42.6 0 0 1 0-42.65l83.42-144.5a42.7 42.7 0 0 1 36.93-21.32h166.85a42.7 42.7 0 0 1 36.95 21.33l83.42 144.5a42.6 42.6 0 0 1 0 42.65L660.3-361.18a42.7 42.7 0 0 1-36.95 21.33Z"/><path fill="#fff" fill-rule="evenodd" d="M475.05-568c16.65-8.96 39.03-14.5 63.75-14.5s47.1 5.54 63.75 14.5a55 55 0 0 1-7.98 5.58c-13.05 7.66-32.72 13.19-55.77 13.19s-42.72-5.53-55.77-13.19a55 55 0 0 1-7.98-5.59m-2.46-2.3c-4.57-4.72-5.6-8.66-5.6-10.79 0-3.23 2.4-10.67 16.04-18.67 13.05-7.65 32.72-13.18 55.77-13.18s42.72 5.53 55.77 13.18c13.64 8 16.05 15.44 16.05 18.67 0 2.13-1.04 6.07-5.62 10.79-17.28-9.55-40.58-15.4-66.2-15.4s-48.92 5.85-66.2 15.4Zm162.8-10.79c0 9.38-3.9 18.22-10.77 26 6.87 7.8 10.76 16.64 10.76 26v.82c0 9.73-4.19 18.88-11.56 26.88 7.37 8 11.56 17.15 11.56 26.88v.72c0 31.27-43.24 56.62-96.58 56.62s-96.59-25.35-96.59-56.62v-.72c0-9.73 4.18-18.89 11.56-26.88-7.38-8-11.56-17.15-11.56-26.88v-.81c0-9.38 3.9-18.22 10.77-26-6.88-7.8-10.76-16.64-10.76-26 0-31.28 43.24-56.63 96.58-56.63s96.59 25.36 96.59 56.62m-180.23 28.35a45 45 0 0 0-5.24 7.32 25 25 0 0 0-1.05 7.16c0 10.04 6.12 19.34 16.53 26.95 10.79-7.39 24.77-13.13 40.68-16.49-21.57-4.55-39.57-13.47-50.92-24.94m59.94 26.56c-16.6 2.5-31.37 7.58-42.98 14.39q-2.03 1.18-3.9 2.43c16.47 10.8 41.96 17.73 70.58 17.73s54.1-6.93 70.58-17.73a86 86 0 0 0-3.9-2.43c-11.62-6.81-26.39-11.88-42.98-14.4a162 162 0 0 1-23.7 1.72 162 162 0 0 1-23.7-1.71m56.4-1.62c15.93 3.36 29.9 9.1 40.69 16.49 10.41-7.61 16.53-16.9 16.53-26.95a25 25 0 0 0-1.06-7.16 44 44 0 0 0-5.24-7.32c-11.33 11.47-29.34 20.4-50.91 24.94m-32.7 56.15c-35.15 0-65.9-11-82.8-27.45a46 46 0 0 0-6.12 8.34 25 25 0 0 0-1 6.99c0 25.75 40.26 46.63 89.92 46.63s89.92-20.88 89.92-46.63a25 25 0 0 0-1-6.99 45 45 0 0 0-6.12-8.34c-16.9 16.45-47.66 27.45-82.8 27.45"/></g></g></svg>