<svg xmlns="http://www.w3.org/2000/svg" xmlns:xlink="http://www.w3.org/1999/xlink" width="1920" height="701" viewBox="0 0 1920 701"><defs><linearGradient id="a" x1="3.14" y1="-1.956" x2="-0.03" y2="1.026" gradientUnits="objectBoundingBox"><stop offset="0" stop-color="#0f0379" stop-opacity="0.392"/><stop offset="1" stop-color="#195f8c" stop-opacity="0"/></linearGradient><radialGradient id="b" cx="0.5" cy="0.5" r="0.5" gradientUnits="objectBoundingBox"><stop offset="0" stop-color="#0f0379" stop-opacity="0.302"/><stop offset="1" stop-color="#0f0379" stop-opacity="0"/></radialGradient><radialGradient id="c" cx="0.5" cy="0.5" r="0.5" gradientUnits="objectBoundingBox"><stop offset="0" stop-color="#0f0379" stop-opacity="0.314"/><stop offset="1" stop-color="#0f0379" stop-opacity="0"/></radialGradient><clipPath id="e"><rect width="1920" height="701"/></clipPath></defs><g id="d" clip-path="url(#e)"><rect width="1920" height="701" fill="#fff"/><g transform="translate(-190 -242)"><rect width="1920" height="701" transform="translate(190 242)" fill="url(#a)"/><ellipse cx="713" cy="573.5" rx="713" ry="573.5" transform="translate(-739 37)" fill="url(#b)"/><ellipse cx="713" cy="573.5" rx="713" ry="573.5" transform="translate(1360 370)" fill="url(#c)"/></g><g transform="translate(953 801.152)" opacity="0.145" style="mix-blend-mode:darken;isolation:isolate"><g transform="translate(330.434 -714.152)"><path d="M339.934,705.956a80.346,80.346,0,0,1-69.577-40.174L113.2,393.577a80.307,80.307,0,0,1,0-80.349L270.357,41.022A80.345,80.345,0,0,1,339.934.848H654.253a80.368,80.368,0,0,1,69.591,40.174L881,313.228a80.308,80.308,0,0,1,0,80.349L723.844,665.783a80.369,80.369,0,0,1-69.591,40.174Z" transform="translate(-102.434 -0.848)" fill="#0f0379"/></g><path d="M179.12,142.282c31.365-16.862,73.512-27.312,120.091-27.312s88.726,10.454,120.091,27.317a102.66,102.66,0,0,1-15.029,10.53c-24.589,14.417-61.636,24.835-105.062,24.835s-80.472-10.418-105.062-24.835A102.648,102.648,0,0,1,179.12,142.282Zm-4.631-4.33c-8.623-8.89-10.569-16.31-10.569-20.308,0-6.086,4.531-20.106,30.229-35.172,24.589-14.417,61.636-24.834,105.062-24.834s80.473,10.417,105.062,24.834c25.7,15.066,30.229,29.087,30.229,35.172,0,4-1.946,11.421-10.583,20.313-32.558-17.981-76.438-29-124.708-29S207.062,119.975,174.49,137.953Zm306.676-20.308c0,17.661-7.33,34.321-20.285,48.991,12.955,14.667,20.271,31.324,20.271,48.982v1.53c0,18.325-7.884,35.57-21.762,50.634,13.879,15.063,21.762,32.308,21.762,50.633v1.372c0,58.906-81.453,106.658-181.94,106.658S117.257,378.694,117.257,319.788v-1.372c0-18.325,7.884-35.57,21.776-50.633-13.893-15.065-21.776-32.31-21.776-50.634v-1.53c0-17.661,7.33-34.321,20.285-48.991-12.955-14.668-20.271-31.324-20.271-48.982,0-58.906,81.453-106.658,181.94-106.658S481.166,58.739,481.166,117.645Zm-339.5,53.392a85.409,85.409,0,0,0-9.873,13.789,47.25,47.25,0,0,0-1.989,13.5c0,18.91,11.535,36.425,31.138,50.758,20.328-13.917,46.664-24.728,76.637-31.054C196.948,209.456,163.026,192.647,141.661,171.037Zm112.9,50.032c-31.28,4.726-59.094,14.283-80.97,27.113q-3.814,2.231-7.344,4.574c31.024,20.349,79.052,33.406,132.961,33.406s101.937-13.057,132.961-33.4c-2.358-1.563-4.815-3.088-7.344-4.576-21.89-12.829-49.7-22.386-80.97-27.112a305.763,305.763,0,0,1-44.647,3.235A305.566,305.566,0,0,1,254.564,221.069Zm106.269-3.037c29.987,6.327,56.324,17.137,76.637,31.053,19.617-14.333,31.138-31.848,31.138-50.758a47.205,47.205,0,0,0-1.989-13.494,83.7,83.7,0,0,0-9.873-13.789C435.4,192.651,401.475,209.459,360.834,218.032ZM299.211,323.808c-66.21,0-124.153-20.728-155.987-51.715a86.078,86.078,0,0,0-11.52,15.7,46.963,46.963,0,0,0-1.9,13.168c0,48.512,75.856,87.838,169.411,87.838s169.4-39.326,169.4-87.838a46.913,46.913,0,0,0-1.889-13.163,85.6,85.6,0,0,0-11.535-15.71C423.351,303.08,365.408,323.808,299.211,323.808Z" transform="translate(423.744 -581.12)" fill="#fff" fill-rule="evenodd"/></g><g transform="translate(701 569.213)" opacity="0.145" style="mix-blend-mode:darken;isolation:isolate"><g transform="translate(330.434 -714.152)"><path d="M228.507,375.143a42.65,42.65,0,0,1-36.934-21.326l-83.422-144.5a42.63,42.63,0,0,1,0-42.652l83.422-144.5A42.65,42.65,0,0,1,228.507.848H395.358A42.662,42.662,0,0,1,432.3,22.174l83.422,144.5a42.63,42.63,0,0,1,0,42.652L432.3,353.818a42.663,42.663,0,0,1-36.941,21.326Z" transform="translate(-102.434 -0.848)" fill="#0f0379"/></g><path d="M150.1,80.683c16.65-8.951,39.023-14.5,63.748-14.5s47.1,5.549,63.748,14.5a54.5,54.5,0,0,1-7.978,5.59c-13.053,7.653-32.719,13.183-55.77,13.183s-42.717-5.53-55.77-13.183A54.489,54.489,0,0,1,150.1,80.683Zm-2.458-2.3c-4.577-4.719-5.61-8.658-5.61-10.78,0-3.23,2.405-10.673,16.046-18.671,13.053-7.653,32.719-13.182,55.77-13.182s42.718,5.53,55.77,13.182c13.641,8,16.046,15.44,16.046,18.671,0,2.123-1.033,6.063-5.618,10.783-17.283-9.545-40.576-15.394-66.2-15.394S164.929,68.841,147.638,78.384ZM310.432,67.6c0,9.375-3.891,18.219-10.768,26.006,6.877,7.786,10.76,16.628,10.76,26v.812c0,9.727-4.185,18.882-11.552,26.878,7.367,8,11.552,17.15,11.552,26.878v.728c0,31.269-43.238,56.618-96.58,56.618s-96.587-25.349-96.587-56.618v-.728c0-9.727,4.185-18.882,11.56-26.878-7.375-8-11.56-17.151-11.56-26.878v-.812c0-9.375,3.891-18.219,10.768-26.006-6.877-7.786-10.76-16.628-10.76-26,0-31.269,43.238-56.618,96.58-56.618S310.432,36.335,310.432,67.6ZM130.212,95.946a45.338,45.338,0,0,0-5.241,7.32,25.082,25.082,0,0,0-1.056,7.167c0,10.038,6.123,19.336,16.529,26.944,10.791-7.388,24.771-13.127,40.682-16.484C159.56,116.341,141.553,107.418,130.212,95.946Zm59.933,26.559c-16.6,2.509-31.369,7.582-42.981,14.393q-2.025,1.184-3.9,2.428c16.469,10.8,41.963,17.733,70.58,17.733s54.111-6.931,70.58-17.732c-1.252-.829-2.556-1.639-3.9-2.429-11.62-6.81-26.385-11.883-42.981-14.392a162.309,162.309,0,0,1-23.7,1.717A162.2,162.2,0,0,1,190.144,122.505Zm56.411-1.612c15.918,3.359,29.9,9.1,40.681,16.484,10.414-7.608,16.529-16.906,16.529-26.944a25.058,25.058,0,0,0-1.056-7.163,44.432,44.432,0,0,0-5.241-7.32C286.136,107.42,268.129,116.342,246.556,120.893Zm-32.711,56.15c-35.147,0-65.9-11-82.8-27.452a45.693,45.693,0,0,0-6.115,8.336,24.929,24.929,0,0,0-1.01,6.99c0,25.752,40.267,46.627,89.929,46.627s89.922-20.875,89.922-46.627a24.9,24.9,0,0,0-1-6.987,45.435,45.435,0,0,0-6.123-8.339C279.742,166.039,248.984,177.043,213.844,177.043Z" transform="translate(324.953 -648.689)" fill="#fff" fill-rule="evenodd"/></g><g transform="translate(649.566 1273.356)" opacity="0.145" style="mix-blend-mode:darken;isolation:isolate"><g transform="translate(330.434 -714.152)"><path d="M228.507,375.143a42.65,42.65,0,0,1-36.934-21.326l-83.422-144.5a42.63,42.63,0,0,1,0-42.652l83.422-144.5A42.65,42.65,0,0,1,228.507.848H395.358A42.662,42.662,0,0,1,432.3,22.174l83.422,144.5a42.63,42.63,0,0,1,0,42.652L432.3,353.818a42.663,42.663,0,0,1-36.941,21.326Z" transform="translate(-102.434 -0.848)" fill="#0f0379"/></g><path d="M150.1,80.683c16.65-8.951,39.023-14.5,63.748-14.5s47.1,5.549,63.748,14.5a54.5,54.5,0,0,1-7.978,5.59c-13.053,7.653-32.719,13.183-55.77,13.183s-42.717-5.53-55.77-13.183A54.489,54.489,0,0,1,150.1,80.683Zm-2.458-2.3c-4.577-4.719-5.61-8.658-5.61-10.78,0-3.23,2.405-10.673,16.046-18.671,13.053-7.653,32.719-13.182,55.77-13.182s42.718,5.53,55.77,13.182c13.641,8,16.046,15.44,16.046,18.671,0,2.123-1.033,6.063-5.618,10.783-17.283-9.545-40.576-15.394-66.2-15.394S164.929,68.841,147.638,78.384ZM310.432,67.6c0,9.375-3.891,18.219-10.768,26.006,6.877,7.786,10.76,16.628,10.76,26v.812c0,9.727-4.185,18.882-11.552,26.878,7.367,8,11.552,17.15,11.552,26.878v.728c0,31.269-43.238,56.618-96.58,56.618s-96.587-25.349-96.587-56.618v-.728c0-9.727,4.185-18.882,11.56-26.878-7.375-8-11.56-17.151-11.56-26.878v-.812c0-9.375,3.891-18.219,10.768-26.006-6.877-7.786-10.76-16.628-10.76-26,0-31.269,43.238-56.618,96.58-56.618S310.432,36.335,310.432,67.6ZM130.212,95.946a45.338,45.338,0,0,0-5.241,7.32,25.082,25.082,0,0,0-1.056,7.167c0,10.038,6.123,19.336,16.529,26.944,10.791-7.388,24.771-13.127,40.682-16.484C159.56,116.341,141.553,107.418,130.212,95.946Zm59.933,26.559c-16.6,2.509-31.369,7.582-42.981,14.393q-2.025,1.184-3.9,2.428c16.469,10.8,41.963,17.733,70.58,17.733s54.111-6.931,70.58-17.732c-1.252-.829-2.556-1.639-3.9-2.429-11.62-6.81-26.385-11.883-42.981-14.392a162.309,162.309,0,0,1-23.7,1.717A162.2,162.2,0,0,1,190.144,122.505Zm56.411-1.612c15.918,3.359,29.9,9.1,40.681,16.484,10.414-7.608,16.529-16.906,16.529-26.944a25.058,25.058,0,0,0-1.056-7.163,44.432,44.432,0,0,0-5.241-7.32C286.136,107.42,268.129,116.342,246.556,120.893Zm-32.711,56.15c-35.147,0-65.9-11-82.8-27.452a45.693,45.693,0,0,0-6.115,8.336,24.929,24.929,0,0,0-1.01,6.99c0,25.752,40.267,46.627,89.929,46.627s89.922-20.875,89.922-46.627a24.9,24.9,0,0,0-1-6.987,45.435,45.435,0,0,0-6.123-8.339C279.742,166.039,248.984,177.043,213.844,177.043Z" transform="translate(324.953 -648.689)" fill="#fff" fill-rule="evenodd"/></g></g></svg>