<svg xmlns="http://www.w3.org/2000/svg" xmlns:xlink="http://www.w3.org/1999/xlink" width="898" height="629" viewBox="0 0 898 629"><defs><linearGradient id="a" x1="0.5" y1="0.359" x2="0.5" y2="1" gradientUnits="objectBoundingBox"><stop offset="0" stop-color="#195f8c" stop-opacity="0"/><stop offset="1" stop-color="#195f8c" stop-opacity="0.204"/></linearGradient><clipPath id="c"><rect width="898" height="629"/></clipPath></defs><g id="b" clip-path="url(#c)"><rect width="898" height="629" fill="#e8eff3"/><g transform="translate(469.138 -1562)"><path d="M46.5-14.1,50.8-16.2l2.152-4.209,2.868-4.911,1.434-2.105,1.434-3.507,4.3-1.4a31.707,31.707,0,0,1,3.586-.7c.717-.7,5.02-4.209,5.02-4.209h.717l-2.151,3.507v3.508l.717,2.806.717.7v5.612s2.151,1.4,1.434,2.105A9.961,9.961,0,0,0,70.168-16.2l-.717,4.21L66.582-8.484,67.3-4.274l.717,3.508L67.3,2.04l2.151,2.105-.717,1.4.717,2.105,2.151,1.4h2.151c.717,0,2.869-.7,3.586-.7a7.327,7.327,0,0,1,2.151.7l2.151,2.806v2.105a6.966,6.966,0,0,0-.717,2.1,10.083,10.083,0,0,0-1.434,2.105l-1.434,1.4-.717,2.105-.717,1.4h0l-1.435-1.4s0-2.105-.717-1.4c-.717,0-1.434,1.4-1.434,1.4l.717,1.4s.717,2.105,0,2.105H72.319L71.6,22.387l-2.151-.7,1.434-2.806-1.434-.7a2.244,2.244,0,0,0-1.434.7,29.816,29.816,0,0,1-.717,3.507l-.717,2.807a2.432,2.432,0,0,1,.717,1.4,2.436,2.436,0,0,1-.717,1.4v1.4a6.964,6.964,0,0,1,.717,2.105.692.692,0,0,1-.717.7v1.4a2.52,2.52,0,0,0-1.434.7l-1.435.7a2.521,2.521,0,0,0-1.434-.7c-.717,0-.717-.7-1.434,0l-.717.7.717.7h1.434v1.4a.7.7,0,0,1,.717.7l-1.434,1.4-1.434,1.4-1.434.7s-1.434-.7-1.434,0H55.825c0,.7,1.434,2.1,1.434,2.1l-2.868-2.806H52.956l2.151,1.4.717,1.4,1.434.7-.717.7-.717.7-1.434,1.4a2.52,2.52,0,0,1-1.434.7H50.8l.717.7,1.435.7s.717-.7.717,0c-.717,0-.717,0-.717.7v3.508l1.434,2.105.717.7v2.807a2.521,2.521,0,0,1-1.434.7l-2.869.7-.717,1.4,1.434.7v1.4a2.436,2.436,0,0,1-.717,1.4h1.434l2.152.7L57.259,69.4,56.542,72.2l-1.434,1.4L53.674,70.8a.7.7,0,0,0-.717.7,10.6,10.6,0,0,0-2.869,1.4,7.335,7.335,0,0,1-2.151.7h-.717l-2.151-.7L42.2,71.5a7.335,7.335,0,0,0-2.152-.7,30.357,30.357,0,0,1-4.3-1.4l-1.434.7H32.159l-1.434-.7L29.289,67.29l-.717-1.4,2.152-1.4a.692.692,0,0,0,.717-.7v-4.21a2.436,2.436,0,0,1,.717-1.4s0-2.105-.717-2.806V52.557l-1.435-2.105a5.639,5.639,0,0,1-2.151-.7,34.33,34.33,0,0,0-3.586-1.4V46.242l-.717-.7s-1.434,0-1.434.7v.7l-1.434-.7a10.2,10.2,0,0,1-1.434-2.806,1.526,1.526,0,0,0,1.434-1.4,5.275,5.275,0,0,0,1.434-2.806V36.42s-.717-.7,0-.7h.717A28.5,28.5,0,0,1,25.7,33.613v-1.4a6.966,6.966,0,0,1-.717-2.1v-.7c0-1.4-2.868-4.209-2.868-4.209H20.684V21.686l.717-2.806-.717-4.911V6.951l1.434-2.806.717-1.4.717,2.1a.958.958,0,0,0,0,1.4H25.7l.717.7,2.151,1.4,1.434,1.4,1.435.7h1.434l.717-.7v-.7l-.717-1.4a2.436,2.436,0,0,0-.717-1.4l2.151-1.4.717-1.4a.692.692,0,0,0-.717-.7H32.159l-.717-.7-.717-1.4s0-1.4.717-1.4a15.623,15.623,0,0,1,.717-2.806s-.717-1.4.717-1.4h2.151s.717-1.4,1.434-1.4c0,0,.717-.7.717,0,.717,0,0,2.105,0,2.105l-1.434,1.4a2.436,2.436,0,0,1,.717,1.4v1.4L35.027,2.04h.717v1.4l2.151-.7-.717-.7a.958.958,0,0,1,0-1.4c.717-.7.717-1.4,1.434-1.4,0-.7,0-.7,1.434-.7.717,0,2.152,1.4,2.152,1.4s.717.7,0,.7a2.435,2.435,0,0,1-.718,1.4l1.435,2.105a2.248,2.248,0,0,0-1.435.7v.7c0,.7-2.151,1.4,0,1.4,1.435,0,1.435,0,1.435-.7v-1.4h2.151l.717.7V7.654s1.434,1.4,1.434.7.717,0,0-1.4A3.413,3.413,0,0,1,46.5,4.846v-1.4c-.717-.7-1.434-.7-1.434-1.4L42.916-.065V-4.274l.717-1.4a3.413,3.413,0,0,1,.717-2.105c.717,0,0-.7.717-.7,1.434-.7.717-.7,2.151-.7.717,0,2.151.7,2.868.7l2.151.7v-.7c.718,0,.718-1.4.718-.7.717,0,.717.7,1.434,0a2.152,2.152,0,0,0,.717-1.4,2.244,2.244,0,0,0,1.434-.7,2.521,2.521,0,0,0-1.434-.7,3.6,3.6,0,0,0-2.151.7H51.521c-.717.7-.717.7-2.151.7s-1.434,0-2.151.7a2.244,2.244,0,0,1-1.434.7H43.633l-.717-.7H42.2a2.52,2.52,0,0,0-1.435.7H37.9c0,.7-1.434.7-1.434.7h-.717c0,.7.717.7,0,1.4H33.593l-.717.7-.717,1.4h-.717l-.717,2.105v.7l-1.435,1.4-.717.7.717.7v.7l-.717.7.717,1.4,1.435-.7.717,1.4-.717,1.4a2.525,2.525,0,0,1-1.435.7l-.717-.7-.717-1.4v-1.4l-2.151.7v-.7l-.717-.7a2.432,2.432,0,0,0-.717-1.4L22.836-1.468h.717c0-.7,0-.7.717-1.4,0-.7,1.434-2.105,1.434-2.105l.717-2.1,1.434-1.4.717-1.4,1.434-2.1,1.435-1.4h2.151l1.434.7,1.434-1.4,2.868-.7h.717l2.152.7h4.3ZM30.725,60.275h0l-1.435-.7a2.432,2.432,0,0,1-.717,1.4l-.717,2.105-.717.7v1.4l-2.151.7a.692.692,0,0,0,.717.7h1.434a2.432,2.432,0,0,1,.717-1.4l.717-.7c.717,0,2.152,0,2.152-.7V60.275ZM68.017,41.331h0l.717-.7a2.432,2.432,0,0,0-.717-1.4.7.7,0,0,1,.717-.7v-.7h-.717a.692.692,0,0,0-.717.7v1.4ZM87.38,60.275h0l.717-.7.717.7-.717.7-.717-.7ZM95.268,69.4h.717v.7l-.717.7V69.4Zm-2.151-1.4h0l-.717-.7h2.151l.717.7h0a.692.692,0,0,0-.717.7A2.521,2.521,0,0,1,93.117,67.992Zm3.586,0h0l-.717-1.4.717-.7.717.7-.717.7Zm15.061-4.209h0l-.717-.7.717-.7H113.2Zm-1.434.7h0V62.379l.717-.7-.717-.7h-.717l-.718-1.4H107.46l.717-.7h.717l.718-.7s1.434-2.105,2.868-2.105h2.151l1.434-1.4v-.7c.717,0,0-1.4,0-1.4v-1.4l-2.151-1.4-2.868-1.4s0-1.4-.717-1.4l.717-1.4a9.948,9.948,0,0,1,2.868-2.806,2.244,2.244,0,0,1,1.434-.7c.717,0,1.434.7,2.151,1.4h2.869v-2.1c0-.7,0,0-.718-.7l-.717-.7V35.718a6.964,6.964,0,0,0-.717-2.105,2.436,2.436,0,0,0-.717-1.4l-.717-1.4v-.7A7.137,7.137,0,0,1,117.5,27.3a3.409,3.409,0,0,0,.717-2.1l-.717-.7-2.868-.7-.717-.7a.7.7,0,0,0-.717-.7l-2.868.7a10.32,10.32,0,0,0-2.152,1.4c-1.434,0-1.434,0-2.151.7-1.434.7-1.434,1.4-2.151,2.1-.717,0-1.434,1.4-1.434,1.4-.717.7-.717.7,0,1.4,0,.7.717,0,.717,0h1.434c.717,0,.717.7,0,.7v.7l-.717.7v1.4a.7.7,0,0,1-.717.7l-1.434,1.4a.692.692,0,0,0-.717.7c0,.7,0,.7.717,1.4v.7c0,.7-.717,1.4-.717.7v-.7H98.137l1.434-1.4.717-.7v-.7H97.42l.718-.7v-1.4l.717-1.4s0-1.4.717-1.4a2.432,2.432,0,0,0,.717-1.4c.717,0,0-.7,0-.7H98.855l-1.435.7a16.552,16.552,0,0,1-2.868.7h-.717a.7.7,0,0,0-.717-.7H91.683a.692.692,0,0,0-.717.7,10.3,10.3,0,0,1,2.868,1.4h.717v.7s-.717,1.4-1.434,1.4a.7.7,0,0,1-.717.7l-1.434.7.717,1.4v1.4l-1.434-.7-2.151,1.4H87.38a.692.692,0,0,1-.717-.7l-.718,1.4a31.644,31.644,0,0,0-3.586-.7v1.4l1.434.7-1.434.7,2.868,1.4.717.7.718,2.105-.718.7,1.435,1.4a2.152,2.152,0,0,0,.717,1.4v3.508s-1.434.7-1.434,1.4h.717l1.434,1.4.717,1.4a2.432,2.432,0,0,0-.717,1.4l1.434.7H97.42l2.152-.7s1.434,1.4,2.151,1.4a.958.958,0,0,1,0,1.4.7.7,0,0,1-.717.7l.717,2.105c.717.7.717,0,.717,0l1.434,1.4a.7.7,0,0,0,.717.7h.717a.7.7,0,0,1,.717.7h2.151a.7.7,0,0,0,.717-.7h1.435v-1.4Zm0,3.508h0l-.717.7h.717l1.434.7h.717l.717-.7.717-1.4,2.151-.7h2.151l.717-.7v-.7l-1.434-1.4h-4.3v1.4c-.717.7-.717.7-1.434.7h-.717Zm-7.889,8.42h.717l.717-.7-.717-1.4-.717-.7-.717-2.1-1.434-1.4-.717-.7-.717,1.4-.717.7-.718.7a10.3,10.3,0,0,1-2.868-1.4l-1.434-.7a2.244,2.244,0,0,1-1.434-.7l-.717-.7a.692.692,0,0,0-.717-.7c0-.7-.717,0-1.434,0H86.663a.7.7,0,0,1-.718.7c-.717.7,0,2.105,0,2.105v.7l.718,1.4H84.511l.717,1.4a2.15,2.15,0,0,0,.717,1.4l.718.7,3.586.7h.717l2.868,1.4,1.434,1.4H96.7l.717-.7,2.152-.7h1.434l2.151.7h.717V77.113ZM74.47,47.646h0l-1.434-.7L71.6,44.838l-2.151-.7-.717-2.105c-.717-.7-.717,0-.717,0a3.413,3.413,0,0,1-.717,2.105H65.865l-1.434,1.4a16.584,16.584,0,0,1-2.869.7l-.717.7-4.3-.7-1.434,1.4v.7l.717,1.4.717.7h.717v1.4l.717,1.4a8.694,8.694,0,0,1,1.434,2.105c.717,1.4,0,2.1,0,2.1l2.151,2.105,1.434.7a2.521,2.521,0,0,0,1.435.7v2.105l.717,1.4.717-.7.717-.7,3.586,1.4a18.64,18.64,0,0,0,3.586,1.4l1.434-1.4c.718-.7,2.869-.7,2.869-.7a.692.692,0,0,0,.717-.7c0-.7.717-1.4.717-2.105a2.436,2.436,0,0,1,.717-1.4v-1.4l-.717-2.105.717-2.806-1.434-1.4-.717-.7v-1.4l1.434-.7V46.944l2.151-1.4.717-2.105a31.685,31.685,0,0,0-3.586-.7c-1.434,0-.717,0-.717-.7l-.717-.7-1.434.7c-.718,0-.718-1.4-.718-1.4l-1.434.7H71.6v.7c-.717.7,0,1.4.717,1.4a6.964,6.964,0,0,0,.717,2.105l.717,1.4Zm-1.434-9.823H74.47l.717-1.4a2.436,2.436,0,0,0,.718-1.4v-2.1l-.718-.7-.717-1.4L73.753,28.7H72.319v1.4a2.436,2.436,0,0,0,.717,1.4l.717.7v.7l-.717.7-.717,1.4.717,1.4ZM76.623,72.9h0l.717,2.105.717,1.4s1.434.7,1.434,0-.717-1.4,0-2.105c0-.7.717-2.105.717-2.806s.717-1.4.717-2.105a5.278,5.278,0,0,0,1.434-2.806,6.964,6.964,0,0,0,.717-2.105V62.379l-.717-2.1-.717,1.4v1.4l-1.434,2.806-.717,1.4-1.434,1.4V70.8l-.717.7v.7Zm-3.586-6.314h0l.717.7S74.47,69.4,75.188,69.4L77.34,67.29v-1.4l.717-1.4-2.151.7-1.435,1.4Zm-6.454,1.4h0L67.3,70.1a2.521,2.521,0,0,1,1.434.7l1.434,1.4a.692.692,0,0,0,.717.7l1.434-.7.717-1.4H71.6c-.717,0-1.434-1.4-1.434-1.4h-.717c-.717,0-2.151-1.4-2.151-1.4ZM55.108,65.887h0l1.434.7.717.7,1.434.7-1.434,1.4s.717,1.4,1.434.7h.717l1.434.7A2.671,2.671,0,0,0,63,71.5a.692.692,0,0,0,.717-.7V69.4L63,67.992l-.717-1.4-2.868-.7-1.434-1.4-2.151-.7h-.717Zm23.666-85.6h0v.7h1.434l1.434.7c0,.7.717,0,.717,0,.717,0,.717-.7.717-1.4l.717-.7,2.151-1.4c0-.7-1.434-.7-1.434-.7l-2.151.7-2.151.7Z" transform="translate(74.017 2026.305)" fill="rgba(25,95,140,0.2)" fill-rule="evenodd"/><path d="M173.776,633.186l-.716-1.4-4.3.7-3.587-.7,1.435-2.106.716-1.407-.716-1.4.716-2.106.718-2.107.718-1.4s0-2.81-.718-2.81c0,0-2.152-2.81-2.152-3.509l-2.869-4.212a57.374,57.374,0,0,1-4.3-5.614C157.282,603,158,603,158,602.3l1.434-2.106h3.584v-3.508c-.716,0-2.151-1.407-2.151-1.407l-2.868-1.4.716-2.81h2.869l1.434-.7,1.435-.7a3.419,3.419,0,0,0-.716-2.106c0-.7.716-3.508,1.434-3.508,0-.7-2.152-1.407-2.152-1.407s-1.434,1.407-2.151,1.407l-2.152-2.106-2.868-4.915-2.152-1.4-1.435-2.106c-.716-.7-1.434-1.4-1.434-2.107-.716-.7-1.434-3.508-1.434-3.508s-2.869-7.021-3.584-7.725v-2.8c-.718-.7-.718-1.407-1.436-1.407s-.716.7-2.151.7c-2.152,0-1.434-.7-1.434-.7v-7.017h-2.152c-.716-.7,0-2.107,0-2.107a10.384,10.384,0,0,0,.583-1.4,5.046,5.046,0,0,1-2.734-.7c-.718-.7,0-2.106,0-2.106s2.151-1.4,2.151-2.106c.718,0-1.434-.7-2.151-1.4-1.434-.7.716-2.81.716-2.81a3.413,3.413,0,0,1,.718-2.106c.358-.352-.359-.176-1.256,0s-1.972.352-2.33,0c0-1.4,2.152-3.509,2.152-3.509v-1.407l-2.87,2.106a27.815,27.815,0,0,1-2.151-2.8l2.869-3.508-2.153-.7-.716-.7,1.434-2.8.716-2.106s-1.434,1.4-2.151,1.4l-.007,0,.007,0-2.152-2.81.718,2.107-2.869.7a29.939,29.939,0,0,1-.717-3.508l-1.435-3.513.718-4.911s-.718-4.915-1.434-5.619-1.435-3.508-1.435-3.508l.526-3.6-2.71-1.326c0-1.4-2.876-4.913-3.593-7.718-1.436-2.107-4.309,0-4.309,0s-2.154,4.912-3.591,4.912a19.624,19.624,0,0,0-3.591,2.806s-3.594,4.215-5.749,5.62c-1.436,1.4-.718-1.405-1.436-4.215,0-2.806-2.155-2.1-2.155,0,.719,1.4-4.308,3.512-5.745,3.512-2.158,0-5.03,3.508-5.03,3.508l-2.155,7.02-5.745,9.83s-8.622,4.912-9.34,4.912c-.718.7-2.154,2.107-3.591,3.508-1.436,2.107-2.872,2.107-3.591,2.107-1.436,0-.718-1.4-2.875-2.107-1.437-.7-3.591,2.81-3.591,2.81L51,532.089l-4.309.7c-.718,0-3.594-1.4-4.312-.7,0,0-2.154,1.405-2.154.7s-1.436-1.4-1.436-1.4-10.058-2.107-11.494-2.809,2.158-3.508,2.158-3.508,2.873-2.107,2.154-2.107c0-.7-2.876-.7-5.03-1.405a8.878,8.878,0,0,1-3.591-.7l-2.873-2.805-.718-1.405c0-1.4-1.436-1.4-3.59-2.81s-3.594-3.508-3.594-4.21c0,0-2.873-4.913-3.591-6.317a3.326,3.326,0,0,1,0-2.81s2.154-3.508,2.872-4.912c0-1.405.718-.7,1.437-.7s4.311-.7,4.311-.7c.718,0-1.436-2.806-1.436-2.806l2.154-2.81s1.436-3.508.718-3.508a2.544,2.544,0,0,1-.718-2.107,5.494,5.494,0,0,0-2.872-1.4,8.937,8.937,0,0,0-3.594,1.4l-2.872,1.405c-.718.7-.718,0-2.155,0-1.436-.7-.718-2.107-.718-3.513,0-.7,2.155-2.1,3.591-3.508.718-2.107-2.155-2.107-2.155-2.107l-3.591-2.1,2.154-4.215-.718-2.1S7.9,465.4,7.9,464.7A1.4,1.4,0,0,0,6.463,463.3l-2.154-2.81c0-.7,2.154-1.4,2.154-2.1.718,0,2.155-2.107,2.155-2.107,0-.7-2.155-1.405-2.873-.7-.718,0-2.154,1.405-2.154,1.405L0,452.768s2.873-4.215,3.591-4.918c0-1.4,1.436-.7,2.873-.7,2.155-.7,2.155-1.4,2.155-1.4,0-.7-3.591-.7-5.027-.7l-2.873-2.81c-1.436-2.1,1.436-2.8,1.436-3.507v-3.513L3.591,429.6s1.436-1.405.718-2.107c0-.7-1.436-2.806-2.155-4.21v-2.81a15.934,15.934,0,0,1,3.591-2.1c.718,0,0-2.107,0-2.107s4.309-4.21,4.309-4.912a15.645,15.645,0,0,1,.718-2.81l-5.745.7H4.309c-.718,0-1.436-.7-1.436-2.107,0-2.1.718-1.4,2.154-2.1s1.436-1.4,1.436-2.81a2.266,2.266,0,0,1,2.155-2.1c.718-.7,4.309-3.513,5.026-4.215,0-1.405-2.154-1.405-4.308-2.107-1.436-.7-2.873-3.508-2.155-4.913.718-.7,1.437-2.1,2.155-2.1a10.084,10.084,0,0,0,1.436-2.107s-3.591-.7-4.309-.7c-.718.7-1.436-1.405-1.436-2.107a1.528,1.528,0,0,1,1.436-1.405c0-.7,2.155-1.4,2.155-2.1a6.966,6.966,0,0,0-.718-2.107l2.154-1.405c.718,0,1.436,1.405,2.155.7.718,0,1.435-2.1,1.435-2.1h-.717a13.151,13.151,0,0,1-2.155-2.81c-.718-.7,0-2.107,0-2.81,0-1.4,1.436,0,3.593.7s1.437.7,2.155,1.405a5.312,5.312,0,0,0,2.154,2.107c.718,0,1.436-1.4,1.436-1.4l-2.154-1.405a25.966,25.966,0,0,0,.718-5.615c0-2.107,2.154,0,2.154,0s2.873,2.107,4.309,1.405c.718,0,0,0,.718-2.81.958-1.872,1.277-1.871,1.383-1.871.054,0,.054,0,.054-.232.718-.7,4.312-1.4,4.312-2.107.718-.7-.718-2.107-.718-2.81a5.272,5.272,0,0,1,1.437-2.806c.718-.7,2.872,2.806,3.591,2.806.717.7,2.873,0,2.873,0a42.918,42.918,0,0,1,2.872-4.21c.718-.7,3.594,1.4,4.312,2.107.718,0,3.591,2.1,5.027-.7,1.436-2.107,0-2.81,0-2.81s-3.591-.7-5.027-2.805c-2.158-2.107,0-2.107,1.436-3.512.718-1.405.718-2.107,1.436-2.81,1.437-.7,6.464,0,6.464-.7.717,0,3.594-2.107,3.594-2.107l2.872,2.107s4.309,2.1,5.745,3.508,1.436-1.405,1.436-1.405l-1.436-3.508a5.282,5.282,0,0,1,1.436-2.81c.718,0,0-2.1,0-2.806.718-1.4,4.309-1.4,4.309-1.4s2.158-1.405,1.439-2.81c0-.7-1.439-2.1-1.439-2.1s-2.873-1.4-2.873-2.81c-.718-1.405,1.437-1.405,1.437-1.405l.718-5.614a30.487,30.487,0,0,1,4.312-1.405c1.437-.7,2.873,2.107,3.591,2.81s0,.7.718,2.107c0,.7,1.436.7,2.154.7h6.467c.718,0,1.437-2.806,1.437-2.806l1.436-.7,6.463,2.81a20.494,20.494,0,0,1,2.154,4.21c1.436,2.806,2.876.7,3.594.7,1.436,0,2.154-.7,4.309-2.81,1.436-1.4.718-1.4,2.872-1.4,1.436,0,2.873-2.1,2.873-2.1l-1.437-2.81-2.154,1.405-3.591,2.81H100.56c-.718,0,0-4.215,0-4.215a33.242,33.242,0,0,1-5.745-.7c-2.873-.7,1.435-4.913,1.435-4.913l2.155-1.405,5.03-2.8-2.876-2.81.718-1.405a32.8,32.8,0,0,0,1.436-3.508,19.623,19.623,0,0,1,3.594-2.81c2.154-1.405,2.154-2.806,2.154-3.508s1.436-4.215,4.309-7.02c2.873-2.107,3.591-1.4,3.591-1.4l2.875-2.108s3.591,2.81,4.309,2.81c1.436,0,3.591-.7,2.873-3.513,0-2.1-1.436-1.4-1.436-1.4l-5.027,1.4a14.962,14.962,0,0,0,.718-4.21c0-2.107,2.155-2.107,3.591-2.81.718-.7,2.154-.7,3.591-2.1s-.718-1.4-1.436-1.4-3.591,1.4-5.027,2.107h-2.872c-2.158,0,0-2.107-.722-2.81l4.312-2.806h5.027l1.437-2.81v-2.81l2.872-.7s3.594,2.81,3.594,2.107v-4.21s3.59-2.107,3.59-3.513a.7.7,0,0,0-.717-.7l-1.436-3.508,5.026-2.81a22.828,22.828,0,0,0-2.155-4.21,28.558,28.558,0,0,1,2.155-5.615l2.155-4.215v-7.015c0-.8.234-.688.7-.573a1.984,1.984,0,0,0,1.452-.129c.718,0,.718-2.107.718-2.107s3.594-3.513,4.312-4.21a10.635,10.635,0,0,1,2.873,1.4s4.309-.7,5.026-.7c.719-.7,1.437-4.21,1.437-4.21a8.939,8.939,0,0,0-3.591-1.405c-.718-.7-4.309.7-4.309.7-.718,0-2.873-2.806-2.873-2.806s.718-4.917,0-6.317a3.034,3.034,0,0,1,1.436-2.81c.718,0,2.154-2.107,1.436-3.508a3.034,3.034,0,0,1,1.436-2.81,15.769,15.769,0,0,1,3.591-2.108c1.435-1.4-.718-2.8-.718-2.8a15.652,15.652,0,0,0-.718-2.81l5.026-2.806s2.876-1.405,2.158-1.405c0-.7,1.436-1.4,1.436-1.4l2.873-2.81.718-1.4s-2.155-2.107-2.155-2.81c0-1.405.718-2.81.718-3.508a4.4,4.4,0,0,1,2.873-.7l1.436-2.107c0-.693.7-2.071.718-2.782.579.131,5.028.675,5.028.675l6.466-.7c.718-.7-3.59-.7-3.59-.7a31.957,31.957,0,0,1-3.594-.7l1.436-2.81s2.876-2.107,2.876-2.81a1.333,1.333,0,0,0-.718-2.1c0-.7-4.313.7-5.031.7l-2.155-2.81,2.873-4.211,6.466-.7a2.524,2.524,0,0,0,1.436-.7l2.873-1.405,4.309.7,2.876-.7.718-1.405s0-1.4-3.594-2.8c-4.309-1.405-1.436.7-2.872,2.1-2.155.7-3.591,1.405-4.309,1.405s-.718-.7-3.59-2.1c-2.158-1.4,2.872-2.107,2.872-2.81-.718-.7-6.466-4.21-7.9-3.512-.718.7-3.591.7-6.463.7-2.873.7-2.155,0-3.591,0-.718,0-3.594,3.513-5.749,3.513-2.153.7-4.308,2.8-6.463,2.8a5.048,5.048,0,0,0-2.873,1.405s0,3.512-1.436,5.615c-1.439,2.81-3.594,2.107-5.031,1.4s1.436-2.107,1.436-2.8v-2.81s6.467-5.615,6.467-7.02c.718-2.107,2.873-3.508,4.309-4.21.718,0,3.59-3.513,3.59-3.513h5.749s5.745-.7,7.9-2.1c1.436-1.405,0-2.107,0-2.107s-3.591-.7-3.591-2.81-.718-1.4-.718-1.4a19.217,19.217,0,0,1-2.873-3.508c-.718-1.405,2.155-6.317,2.155-6.317s5.027-7.02,6.463-9.128a7.225,7.225,0,0,1,4.313-1.4l4.308-4.215a7.505,7.505,0,0,1,2.873-5.615c2.155-2.107,2.873,2.81,2.873,2.81s.718,4.912.718,6.317,0,.7,4.313,7.019c2.937,4.307,3.2,3.719,3.3,3.131.047-.275.058-.549.286-.326,0,.7,0,0,3.59.7,3.591,1.405.718-2.107.718-3.508,0-.7,1.437-.7,6.467-3.512,5.027-2.107,0-.7.718-2.107v-3.508s0-2.81-1.439-3.513c-.718-1.4-1.436,1.405-1.436,2.107a10.839,10.839,0,0,1-5.745,2.107c-2.154,0-1.436-1.4-1.436-2.81v-2.1c.718-.7,0-3.513,0-4.918,0-2.1,2.872-2.1,2.872-2.8a14.252,14.252,0,0,1,5.745-5.615c3.594-.7.721,0,1.439,0,1.436-.7,7.182-2.81,7.182-2.81l-2.155-2.81s3.591-4.21,5.027-4.21,2.154-.7,4.313-1.405c.637-.313.85-.07.952.174.129.3.084.607.483-.174,0-1.405-.717-2.8-1.435-2.8a39.778,39.778,0,0,1-2.876-4.918s2.155-4.21,4.312-4.912,3.591.7,4.309.7c.718.7,1.436,0,2.873-.7.718,0-.718-1.405-2.154-3.508-1.437-1.405,0-3.513.718-4.215s2.873.7,3.591,1.405l2.873,1.4a43.773,43.773,0,0,1,1.439,6.318c0,1.4-2.876,2.81-2.876,3.507a6.968,6.968,0,0,0,.718,2.107s3.594-3.508,5.03-4.21c.718-.7,0,0,.718,0s3.591,0,5.027-1.4c2.155-.7-2.154-.7-2.154-.7-.718,0-2.154-1.405-4.308-3.508s0-2.81,0-3.512.718-2.108,4.308-2.108c2.873-.7,1.436,2.81,2.154,4.918,0,2.1,4.309,2.8,4.309,2.8s1.439-1.4,2.158-1.4c1.436,0,1.436.7,5.027,3.513,3.591,2.107,1.436-.7,1.436-.7,0-.7,0-2.81-.718-3.508s-3.591-1.4-3.591-1.4c-.718-.7-2.873-1.405-5.03-4.216-1.847-2.255-1.32-1.9-.517-1.544.446.2.978.394,1.235.144l2.158-2.107s2.154-1.405,2.873,0c1.436.7,3.591,2.107,3.591,2.107l.717.7s-2.154-3.513-1.435-4.918c.718-2.1,1.435,0,1.435,0s5.027,1.405,5.745,1.405c.718.7.718,1.405,6.467,6.318,5.027,4.912,2.155-.7,2.155-.7V49.837c-.718-.7-4.309-1.405-4.309-1.405-.718,0-2.873-2.1-2.873-2.8,0-1.405,1.436-2.107,2.873-2.107.718,0,5.745,2.81,7.182,2.81,1.436.7,1.436,0,1.436,0s1.436-1.4,1.436-2.107a7.488,7.488,0,0,1,.718-3.512c0-1.4.718-3.508,2.158-4.21.718-.7,3.59-.7,3.59-1.405V30.182c0-.7,4.309,0,4.309-.7.718,0-.718-2.107-.718-2.107s-1.436-.7-2.873-1.4c-1.436-1.405-.718-2.107-.718-2.81s2.873-.7,2.873-1.405-.718-.7-1.436-2.1,0-2.107,1.436-4.215c1.436-2.806.718,0,1.436,0,0,0,4.309,2.81,5.749,3.512,2.155.7,1.437-1.4,2.155-2.107s0-2.81,0-3.509c-.718,0-1.436-.7-2.155-.7-.721-.7-1.44-2.107-.721-2.81,0-.7,3.594-2.107,4.312-2.81,1.436-.7,2.872.7,4.309,1.4a4.51,4.51,0,0,1,2.154,3.513s-2.873,2.8-2.873,3.508c-.718,0,.719.7.719.7.717.7.717,4.21.717,4.21l-2.872,5.62-2.155,4.21-1.436,4.913v9.127s2.873,1.405,4.308.7a1.386,1.386,0,0,0,1.437-1.405l.717-6.317,1.436-4.913V25.972l2.873-4.917v-7.02l5.749-4.912,2.873,5.614-2.154,5.615-.718,4.918,4.309,3.507,2.872-5.614V18.25l-2.154-3.513,2.873-5.614L320.363,4.21,322.517,0l4.313,2.1h1.436l3.591-.7V4.21c.718,1.405,3.591,2.107,3.591,2.107V4.21l9.339,2.806,6.463-.7,4.309,2.806s5.749-2.806,7.9-2.806c1.435,0,2.154,2.1,2.154,2.1l3.59,5.615,8.621,6.317L372.8,24.567l-.718,4.913s-11.493,2.81-12.929,2.81c-2.154.7-6.467,0-8.621,0-1.436.7,1.436,2.806,1.436,2.806h5.749c2.155-.7,4.309,2.107,4.309,2.107l5.745,1.4,5.749-2.107.718,7.019s3.591-4.21,5.745-5.615c1.436-1.4,2.873,4.21,4.309,7.722,1.439,2.8-2.873,4.913-2.873,4.913l-5.745-.7.718,5.615-5.027,4.913s-3.594,2.81-2.876,5.619c.718,2.1.718,8.421.718,8.421a14.885,14.885,0,0,1-3.59.7.658.658,0,0,1-.589-.282,24.052,24.052,0,0,1-3.068,2.685l-2.9,3.5,5.069,1.4v6.3l-.726,4.2-2.17,2.8,2.9,4.2,3.62,5.6,5.067,2.8s.725-.7,5.793,0a9.677,9.677,0,0,1,6.517,5.6l2.9,3.5,4.343,2.8,2.173,2.1-.724,6.3s-2.172,3.5-1.449,6.3c0,3.5-2.171,8.4-2.171,9.8,0,.7-1.448,6.3-1.448,6.3l2.171,4.9,2.9,2.8,4.345,4.9,5.792,6.3,2.173,4.9s5.792,3.5,5.792,4.2,2.173,4.2,2.173,4.2l2.9,4.9-.725,3.5-2.171,3.5v2.1l2.171,2.8-.723,2.8,2.172,4.2-1.449,2.8,3.621,1.4s.726.7,0,2.1c-.722.7-1.448,5.6-1.448,5.6l3.621,5.6,5.069.7s2.9,0,2.9.7a9.894,9.894,0,0,1,1.448,2.8l-2.173,4.2a7.558,7.558,0,0,0,2.9,3.5c1.45.7,2.9.7,2.9,2.1.723,1.4.723,3.5,1.447,2.8a26.466,26.466,0,0,1,4.345.7l2.172,3.5,1.449,2.8v2.8c0,1.4-.725,5.6-.725,5.6l-3.62,5.6a30.647,30.647,0,0,0,5.067,4.9c2.173,1.4,5.069,3.5,5.793,3.5a22.988,22.988,0,0,1,5.792,1.4,12.418,12.418,0,0,1,4.344,2.1,67.1,67.1,0,0,0,5.794,3.5l4.343,2.1,4.344,3.5,1.45,8.4s-1.45,12.6-2.173,13.995c0,1.4-2.172,7.7-2.9,8.4-1.448.7-2.9,1.4-2.9,2.8s-2.17,9.1-2.17,9.1-2.173,4.9-2.173,6.3-2.171,5.6-2.171,7c-.725.7-2.173,6.3-2.173,6.3l-9.413,18.194-2.173,7a5.66,5.66,0,0,0-2.9,2.1c-.725,2.1-1.447,3.5-2.172,5.6,0,1.4-3.62,7.7-3.62,7.7l-1.449,3.5-2.9,3.5-2.172,1.4h-5.068l-2.173-1.4-2.173,1.4c0,.7-1.448,1.4-1.448,2.1,0,0-.723,1.4-1.448,1.4-.723.7-1.448,1.4-2.17,1.4,0,.7-1.45.7-1.45.7a2.136,2.136,0,0,1-.724,1.4s-2.172,0-2.9-.7c-.443-.426-1.154-.853-1.477-1.121a8.486,8.486,0,0,1-.7,1.822c0,.7-1.449,2.8-2.173,2.8a5.556,5.556,0,0,1-2.9-1.4H405.4v4.9a7.465,7.465,0,0,0-2.171.7s.723,1.4,0,1.4c-.724.7-1.45,1.4-2.173,1.4,0-.7-1.448-1.4-1.448-1.4a10.013,10.013,0,0,0-1.448,2.1,2.411,2.411,0,0,1-.725,1.4l-5.069,5.6c-.723,0-2.171-2.1-2.171-2.1v2.1a10.43,10.43,0,0,1-2.173,1.4c0,.7-.726,0-1.449,0,0,.7-.724.7-.724,1.4a2.424,2.424,0,0,1-.723,1.4s-1.448.7-1.448,1.4a10.393,10.393,0,0,1-2.173,1.4,1.024,1.024,0,0,1-1.447,0c-.726,0-2.173-2.1-2.173-2.1s-1.448,0-1.448.7c-.722.7-.722,1.4-1.447,1.4a2.715,2.715,0,0,1-2.173.7c-.723.7-2.17.7-2.17,1.4-.726,0-1.448,1.4-1.448,2.1s1.448.7,0,.7a10.01,10.01,0,0,1-3.621.7s-1.448.7-1.448,1.4c-.726.7,0,.7-1.449,1.4a2.553,2.553,0,0,0-1.447.7l-1.448-1.4.723-1.4s-.723-1.4-.723-.7c-.725,1.4,0,2.1,0,2.1a.7.7,0,0,0-.725.7c-.725.7,0,.7-.725,1.4a1.528,1.528,0,0,1-1.447,1.4c0,.7-.723.7-1.448.7H354c-.723,0-1.448-.7-.723-.7l1.448-.7s.724-.7,0-.7c-.715-.692-1.429-1.381-1.447-1.4.018.018.694.7-1.448.7q-2.175,1.052-2.173,0s-1.448,0-.725-.7c1.448-.7,1.448-1.4,2.173-1.4.593,0,.7-.936.721-1.658-.177-.1-.412-.24-.721-.439l-1.448-2.1a2.41,2.41,0,0,0-.725,1.4c.725.7,2.173,1.4,0,2.1h-2.17c-.726.7-2.9.7-2.9.7s-1.45,0-.725.7c0,.7,1.448,1.4,1.448,1.4s0,.7-1.448.7a3.66,3.66,0,0,1-2.173.7l-.722.7a.7.7,0,0,1-.726-.7,2.426,2.426,0,0,0,.726-1.4c0-.7.722,0,0-.7-.726-1.4-1.449-1.4-1.449-2.1a10.388,10.388,0,0,1,2.171-1.4v-1.4s-.722,0,0-.7a8.751,8.751,0,0,1,1.448-2.1,1.529,1.529,0,0,0-1.448-1.4,6.894,6.894,0,0,0-.722,2.1s.722,1.4-1.449.7c-2.173,0-3.621,0-4.346-.7,0-.7-1.447-1.4.725-1.4l2.172-.7a2.52,2.52,0,0,0,.723-2.1c-.723,0-1.448-1.4-1.448-.7a5.291,5.291,0,0,0-.725,2.1H333a2.412,2.412,0,0,1-.723-1.4l.723-2.8s1.447-.7.724-.7c0,0-1.447-.7-1.447,0-.726,0,0,.7,0,1.4s0,1.4-.726,1.4c-.723.7-3.621.7-3.621.7,0-.7-.723-.7,0-1.4v-1.4s-.723-1.4-.723-.7h-1.448v-1.4h-2.173l-.723-.7c-.726,0-.726,0-.726.7a16.9,16.9,0,0,0-2.9.7s0-1.4-.725,0c0,.7-3.619.7-3.619.7a6.876,6.876,0,0,1-.725-2.1l.725-2.1.723-.7-.723-.7h-1.45c0-.7,1.45-2.1,1.45-2.1l.723-.7c.725-.7,2.173-.7,1.447-1.4a2.561,2.561,0,0,1-1.447-.7.7.7,0,0,1-.723-.7,6.89,6.89,0,0,0,.723-2.1,2.424,2.424,0,0,0-.723-1.4c-.725,0,0,.7-1.45.7a28.852,28.852,0,0,1-2.9,2.1v-2.1c.725-.7,2.9-.7,3.621-1.4,0-.7-1.448-2.8-1.448-2.8s1.448.7.723-.7l-1.447-.7a2.514,2.514,0,0,1,.724-2.1c.723-1.4,1.448-1.4,1.448-2.1,0,0-2.172-.7-2.172-1.4s-1.448-.7,0-2.1a2.277,2.277,0,0,1,1.447-.7v-2.8c0-.7.725-.7.725-1.4-.725-.7-1.448-.7-2.172-2.1v-1.4c.724,0,1.447-.7.724-.7v-1.4l-.724-1.4a4.106,4.106,0,0,1-.723-2.8,29.381,29.381,0,0,1,.723-3.5s0-2.1-1.448-2.8a5.313,5.313,0,0,0-2.171-2.1v-2.1s-1.449-.7-1.449-1.4a6.881,6.881,0,0,0-.724-2.1s-.726,0,0-1.4v-3.5a5.229,5.229,0,0,1-1.448-2.8v-2.1a2.134,2.134,0,0,0-.725-1.4,43.069,43.069,0,0,1-2.9-4.2s-.723,0-.723-1.4a6.759,6.759,0,0,1-.726-2.8v-2.1l-2.172-2.1.724-2.8v-2.8s0-3.5.723-3.5,2.173-2.1,2.173-2.1,1.448-2.1.725-2.8a29.339,29.339,0,0,0-.725-3.5s1.448-2.1.725-2.1a17.577,17.577,0,0,0-1.448-3.5l-2.173,2.1-1.447-.7.723-2.8s-1.448-1.4-1.448-2.1,1.448-2.1,1.448-2.1a17.594,17.594,0,0,1,1.447,3.5c0,.7,1.45,1.4,1.45,1.4.723-.7.723-2.1,1.448-2.1a1.533,1.533,0,0,1,1.448,1.4l2.9-.7s-.726-.7,1.447-.7c2.173.7,2.173,0,2.173-1.4,0-.7-2.173-3.5-.725-3.5,2.173,0,2.9.7,2.9.7v1.4c0,1.4,2.172,2.8,2.172,1.4.725-1.4.725-.7.725-2.1s-1.45-1.4-2.173-2.8c0-.264-.1-.231-.229-.2-.213.054-.495.109-.495-1.2.724-2.1.724-2.8,1.447-2.8l1.45-.7c1.448,0,2.17-1.4,1.448-3.5,0-1.4-.725-2.1,0-2.8,1.448-.7.722-1.4,2.17-.7s.725.7,2.173.7c.723-.7.723-4.2.723-4.2-.723.7-2.171-.7-2.171-.7-.725,0-.725-1.4,0-2.1,0,0,0-1.4.723-1.4,1.448,0,1.448.7,2.9,0l1.447-1.4c.723-.7,1.448-.7,2.171-2.1,0-.7.725-4.9.725-4.9-.725-.7.723,0,2.173-.7.723-.7,1.448-4.9,2.171-5.6.726-1.4,2.9-4.2,2.9-4.9a47.1,47.1,0,0,1,2.173-5.6l2.9-4.9a6.778,6.778,0,0,0-.723-2.8c0-.7-.725-3.5,0-4.2.723,0,1.449-2.1,1.449-2.1v-2.8l3.62-2.1c4.344-.7,1.448-2.8,6.515-.7,0,0,2.9-.7,2.172-1.4l-2.9-2.8,1.448-2.1s2.173-1.4,0-2.1c-1.448-.7-2.9-1.4-2.9-2.1a29.3,29.3,0,0,1-.725-3.5,15.491,15.491,0,0,0-.722-2.8v-3.5a7.25,7.25,0,0,0-1.448-3.5c-.725-.7-3.621-2.8-3.621-2.8l-5.069-2.1-1.448,1.4-3.621-3.5-2.9-.7h-2.9l-2.783-5.763,2.122,4.5a8.8,8.8,0,0,0-2.152,1.4,2.152,2.152,0,0,0-.718,1.4s2.151,2.106,2.151,2.81v2.81l-1.434,1.4-1.434-2.106v-1.4c0-.7-.718-1.407-.718-2.106h-.716c-.718,0-.718-.7-1.434-1.407s0,0-.718,0a2.524,2.524,0,0,0-1.435.7,5.286,5.286,0,0,0,1.435,2.81c0,.7-.716,1.4,0,2.107v1.4c0,.7-2.15-.7-2.15-.7v-3.508c-.718-.7-1.435-1.4-2.152-1.4h-.718c0-.7,0-.7-.717-1.407-.717,0,0,.7,0,1.407h-1.434a2.519,2.519,0,0,0-1.434-.7h-1.434v1.4l-2.869,1.407-2.152.7a2.159,2.159,0,0,1-.718,1.408c-1.434.7-1.434.7-2.15.7s-1.434,1.408-1.434,1.408c0,.7.716.7,1.434.7.717.7,0,2.81,0,2.81a6.943,6.943,0,0,0-.718,2.106c-.716,0-1.434,1.4-2.868.7-.716-.7-1.434,1.4-1.434,1.4v2.107c-.716,0-1.435-1.4-1.435-2.107l-2.868-.7v2.106l.717,2.106-2.152.7s-1.434.7-1.434,1.4l-.718.7s.718,1.4,1.435,1.4.717,2.106.717,2.106,0,1.4-.717,1.4a2.248,2.248,0,0,0-1.435-.7,2.425,2.425,0,0,0-.716,1.4c-.718,0-.718,2.107-.718,2.107a29.906,29.906,0,0,1,.718,3.508,2.44,2.44,0,0,1-.718,1.407l-1.434,2.106-1.434,2.107a2.443,2.443,0,0,1-.717,1.4l-1.434,2.106,1.434,1.4.717,1.4,1.434,2.106-.716,1.408,1.434,1.4h2.15l2.869,2.106,1.435,2.81v2.106h-.717a15.651,15.651,0,0,1-.718,2.806l-2.151,2.81s-.718,2.106-1.434,2.106a2.424,2.424,0,0,1-.718,1.4l-1.434,3.513v4.208l-1.434,2.81a7.141,7.141,0,0,0-.717,2.81.7.7,0,0,1-.718.7s-1.434,3.513-2.152,3.513c0,.7-1.434.7-1.434,1.4a2.155,2.155,0,0,0-.716,1.4l-2.152,2.81a2.522,2.522,0,0,0-1.434.7l-2.151.7s-2.152,2.106-2.152,2.809l-2.152,2.107v2.106a6.963,6.963,0,0,0-.716,2.106,2.524,2.524,0,0,0-1.434-.7v.7H262.7l.717-1.407c0-.7-1.434,0-1.434,0l-1.434,1.407-.718.7V315.9l-1.434,3.513c0,.7-.716,2.107-.716,2.8a2.521,2.521,0,0,0-1.435.7c-.717.7-1.434,1.4-1.434,1.4-.716.7-1.435.7-1.435,0l-2.151,2.106-2.151,2.106a28.073,28.073,0,0,0,2.151,2.81c0,.7-1.434.7-2.151.7v1.4l-2.15,4.212c0,.7,0,.7-.718,1.4a1.007,1.007,0,0,1-1.435,0l-1.434,2.81a2.526,2.526,0,0,1-1.434.7l-.718,2.106v2.106l-1.434-.7.718,2.107-.718,2.8c0,.7-2.151,2.106-2.151,2.106l-1.435,2.106H233.3l-1.434,4.212,1.434,1.407.718,1.4,2.151,2.106-.717,4.212-.718,4.91-.716,1.408c-.718,0,.716,2.8.716,2.8s0,3.513.718,4.212c0,0,1.434,1.407,1.434,2.106l.718,2.106c0,.7-2.152,0-2.152,0l-2.152-1.4c-.716,0-1.434,1.4-1.434,1.4v2.81c-.717,0-1.435,1.4-1.435,1.4l1.435,1.407-.717,2.1v2.81h1.434l1.434,2.809a17.837,17.837,0,0,1-1.434,3.509s2.869,6.318,2.869,7.022l-1.434,2.106,2.151,2.806v1.407s2.151,1.4,2.151,2.106c.718.7-.716,2.1-.716,2.1V422.6l2.869.7h2.15a16.512,16.512,0,0,1,2.868.7v2.805l.718,1.407,2.152-2.106L251.947,424s.718,2.107,1.434,2.107l.718,2.106s2.151,2.106,2.868,2.8c.718,1.408,1.434,1.408,1.434,1.408,1.219,3.181,1.517,2.531,2.068,1.882.422-.5.991-.994,2.235.224l1.434,1.4a4.868,4.868,0,0,1,1.434,2.81c0,.7-1.434.7-1.434.7l1.434,2.81a4.441,4.441,0,0,0,2.845.337c1.172-.168,2.033-.336,2.894,1.77l1.434,1.4c0,.7,1.435.7,1.435.7l3.584,2.8,2.152,2.106-.718,1.408s-3.585,2.106-4.3,2.106a1.525,1.525,0,0,0-1.434,1.4,2.666,2.666,0,0,0-2.151.7c-1.434.7-.718.7-1.434,1.4s0,2.106,0,2.106h1.434c.716,0,1.434-1.4,1.434-1.4.717-.7,1.435,0,1.435.7s0,.7-.718,1.407c0,.7-7.171,4.211-7.171,7.017,1.434.7,6.455,3.513,6.455,5.614,0,0-2.152,2.106-2.868,2.106s-1.437-1.4-1.437-2.106c-.716-.7-1.434.7-1.434.7l.718,2.106,1.434.7a6.942,6.942,0,0,0-.718,2.106l-1.434,2.8c-2.151,1.407-.716,1.407-5.019,2.106-.718,0,0,1.408,0,2.107.716,1.407-2.152,1.407-2.152,1.407l-.716,4.212-.718.7c-.716,0,0-2.107,0-2.107l-.716-2.106-2.152-.7v-4.212l-.717-2.106s-1.435-2.81-2.151-1.407c0,2.106,1.434,8.424.716,8.424,0,1.407,0,2.106-.716,2.106v2.81s-5.736,3.509-5.736,4.212c-.718,0-2.153,2.106-2.153,2.106s-5.02,2.106-6.455,2.8c-.716,0-.716,1.408-.716,1.408l2.869.7.716,4.211-1.434,1.408-.717,1.4v1.4a8.76,8.76,0,0,1,1.435,2.106c.716.7-.718,1.407-.718,1.407l1.434,4.212v4.212c.718.7-1.434,4.208-1.434,4.208V530.7s1.434,6.318,1.434,7.017a10.212,10.212,0,0,1-1.434,2.81l2.152,6.317s-2.869,3.508-2.869,4.212.717,4.212.717,4.212.718,3.508,1.434,5.614c1.434,2.106-1.434,4.212-1.434,4.212s-1.435,4.915-1.435,5.614v6.318c.718,0-2.151,2.106-2.151,2.106l-2.151,14.038s-2.869,4.915-3.587,4.915c0,.7-2.15,2.107-3.584,2.107-2.152-.7-1.434-.7-1.434-.7l-3.587-1.4-1.434,1.4-3.586-.7s-2.869.7-3.584,0c-1.436-.7-2.87.7-2.87.7l-2.151.7s-2.869-.7-4.3,0c-.718.7-.718,1.4,1.434,2.81,2.15.7.716,1.4.716,1.4l1.434,1.4c.718,0,.718,2.106.718,2.81a.7.7,0,0,1-.718.7h-2.15c-1.434,0-.717-.7-.717-1.4-.717-.7-1.435-.7-1.435-1.4-.717,0-2.152-1.4-2.868-2.107s-.718.7-2.869,2.107-1.434,2.8-1.434,2.8v3.513a10.864,10.864,0,0,1-.718,2.8c0,1.407.718,2.106,1.434,2.106.718.7.718,2.81,1.435,3.513a10.229,10.229,0,0,0,1.434,2.8,23.345,23.345,0,0,1,3.586,2.106c.718.7-.717,2.107-.717,2.107-.717,0-1.435-1.4-1.435-1.4H198.16c-.716,0,0,1.4,0,1.4l-2.868.7-2.151.7h-2.152s-1.434-.7-1.434-1.407-2.152-.7-2.152-.7a16.5,16.5,0,0,0-2.869-.7l-1.434,2.106v1.4l-2.151,1.407-2.87,1.4a17.947,17.947,0,0,1-2.868.312A2.286,2.286,0,0,1,173.776,633.186Zm-34.422-88.447v0ZM129.312,499.11h2.152l.364-.178-1.1-.537v.7h-1.417Zm7.166-14.053-2.154,4.21-.718,4.913-.721,4.215-.047.046.062-.03.716-4.211.718-4.915,2.152-4.212V480.86l-.007-.012Zm-12.93,9.123v.211q.014-.095.028-.192v-4.206l-.028-.023Zm5.034.007-.006-.007-.7-.584Zm5.742-23.169-2.158.7,1.439,4.211,1.007,1.723-1-1.709-1.434-4.208,2.153-.7,2.152-2.107.716-3.509-.007-.007-.716,3.5-1.436,1.405h-.718Zm2.872-10.532-1.436,1.405V464l.007.007v-2.1l1.435-1.4c.718-.7,2.152,0,2.152,0l2.15-.7,2.153-2.107s2.526-1.855,2.837-2.661c-.34.818-2.834,2.647-2.834,2.647l-1.436,1.405H139.35l-.718.7h-.717Zm9.336-15.44,0,0,1.352-1.986ZM353.273,434.4Zm-208.9-18.843-3.59,3.512,0,.011,3.581-3.505,3.586-.7s4.245,0,3.6-.685c-.117.668-3.588.668-3.588.668H145.1Zm7.185-1.568c.019-.136.055-.319.1-.534h-.1Zm.718-4.047v1.091c.185-.679.369-1.329.5-1.793h-.5Zm-11.493-20.357h0c-.006-.178-.068-2.051-.718-21.745h0C140.075,368.013,140.136,369.838,140.787,389.589Zm-5.027-35.8a3.258,3.258,0,0,0-.718,4.214,7.948,7.948,0,0,0,.684,1.626,7.837,7.837,0,0,1-.675-1.609,3.257,3.257,0,0,1,.716-4.212c.6-.585.2-1.654.051-2C135.973,352.17,136.348,353.215,135.76,353.787Zm.718-9.123-1.436,2.107.718,4.913.007.014-.716-4.913,1.434-2.106v-4.211l-.007-.014Zm1.436-30.89-1.436,7.02-.718,4.917s-2.155,2.8-2.155,4.21v4.913l.723,1.414-.714-1.4v-4.911c0-1.407,2.152-4.212,2.152-4.212l.718-4.915,1.434-7.022,9.323-11.932.433-.018h-.426Zm23.233-12.479,3.306-.134.01-.02Zm10.507-80.864.169-.018h-.15Zm5.24-.571,1.184-.129.015-.015A6.192,6.192,0,0,0,176.895,219.859Zm139.6-20.485,4.234,2.073-.036-.074-4.259-2.059ZM196.816,153.726v.544c.123-.247.357-.721.595-1.242h-.595Zm.718-1.4v.429c.175-.393.342-.794.46-1.131h-.46Zm104.613.018,2.613-.641v-.016l-2.628.637Zm-91.078-7.72h3.587l.01-.02h-3.484L204,141.091l-.029.057Zm82.257-17.208-.151-.22a2.341,2.341,0,0,1-.656.776C292.844,127.982,293.138,127.674,293.326,127.416ZM238.32,125.67l.117-.019c-.061,0-.189-.007-.365-.023Zm-1.653-.312a6.7,6.7,0,0,1-1.065-.409,6.225,6.225,0,0,1-.764-.031C235.423,125.084,236.081,125.236,236.667,125.358Zm-3.367-1.091a2.009,2.009,0,0,0,.611.342,2.543,2.543,0,0,1-.464-.363,15.392,15.392,0,0,0-5.027-2.107l-.06.027A15.716,15.716,0,0,1,233.3,124.267Zm-5.543-1.959c-2.668.4-10.83-.17-10.83-.17l-.022.029C217.857,122.232,225.41,122.725,227.757,122.308Zm46.992-4.833-.4-.077a1.71,1.71,0,0,1-.349.446C274.317,117.958,274.591,117.688,274.75,117.475ZM259.145,88.706l2.9.7,5.068,5.6,4.346,4.9s6.516,4.9,7.965,5.6,9.412,2.1,10.135,2.8l.307-.4c-1.687-.742-8.411-1.968-9.725-2.611-1.436-.7-7.9-5.614-7.9-5.614l-4.309-4.918-5.03-5.615-2.874-.7v-.7h-2.86A3.867,3.867,0,0,1,259.145,88.706ZM300.417,102l7.239,1.4,2.9,2.1a1.9,1.9,0,0,0,.755-.21h-.283l-2.873-2.107-7.181-1.405-2.872-2.1-.492.288Zm11.833,2.8a.934.934,0,0,0,.667-.209h-.454Zm-66.758-5.1.9-.735-.016.013a2.523,2.523,0,0,0-1.436.7H243.5l-.038.019Zm3.981-2.368a18.1,18.1,0,0,1,3.155-.227v-.21A8.709,8.709,0,0,0,249.473,97.33Zm3.155-.587v-.056l-2.66-.52-.058.045ZM360.512,64.914v2.1a7.359,7.359,0,0,0,1.449,4.2c0,.6,2.721,2.264,3.445,2.694l.211-.206s-3.591-2.1-3.591-2.8a7.419,7.419,0,0,1-1.436-4.21V64.579a12.406,12.406,0,0,1,.153-2.164A10.824,10.824,0,0,0,360.512,64.914Zm.734-3.781c.02-.023.04-.045.061-.066a7.269,7.269,0,0,1,.134-1.258A9.175,9.175,0,0,0,361.246,61.132Zm-42.319-1.466-1.436.7a1.361,1.361,0,0,0-.339.311l1.365-.66,2.173-1.4v-.1Zm22.035-17.845c1.448,2.1,1.448,3.5,4.346,4.2l8.687,2.8,5.069.7,1.448,1.4c0,1.4,0,2.8.726,3.5a13.371,13.371,0,0,0,.7,3.424c.055-.177.091-.282.091-.282a14.019,14.019,0,0,1-.718-3.513c-.718-.7-.718-2.1-.718-3.507l-1.436-1.405h-.718l-4.312-.7-8.618-2.8c-2.872-.7-2.872-2.107-4.308-4.215-1.439-.7-4.312,0-6.467,0l-2.873,2.81-.053.155,2.641-2.555c1.449,0,3.219-.31,4.667-.31A4.375,4.375,0,0,1,340.962,41.822ZM321.8,49.837a3.1,3.1,0,0,0-2.19.945,4.375,4.375,0,0,1,1.8-.564l2.173-1.4H330.1l.134-.387h-6.282ZM241.189,594.578l.718-5.618-1.434-2.107c0-.7-.718-2.106-.718-4.212a28.955,28.955,0,0,1,1.434-4.208c0-1.407,1.434-2.106,1.434-3.513,0-2.106,0-2.8.718-4.211,0-1.4.716-2.806,1.434-2.806a17.8,17.8,0,0,1,1.435-3.513l.718-3.509a28.783,28.783,0,0,0,1.434-4.212c0-.7-.718-3.508-.718-4.211.718-.7,2.152-2.107,2.152-2.107h2.151s0,2.107-.717,2.81a2.521,2.521,0,0,0-1.434.7c0,.7,1.434,2.107,1.434,2.107v2.81l-1.434,2.809-1.434,3.509V568.6l-.718,2.107-.716,2.106-1.437,4.212.718,3.508-2.152,4.212v7.725s0,2.106-.716,2.106Zm31.556-30.187c-2.868,0,0-.7.717-2.106s1.434-2.806,1.434-2.806l-.716-2.81-1.435-2.106-2.152-2.8-.716-1.408,2.15-.7a29.906,29.906,0,0,1-.716-3.513c0-.7-.718,0-1.434-1.4-.718-.7-.718-2.81-.718-2.81a15.651,15.651,0,0,1,.718-2.8,51.487,51.487,0,0,1,3.585-4.212c2.152-2.106,1.434-2.106,1.434-3.513-.716-.7.718-1.4.718-1.4l2.151-2.106,1.434-3.509,2.152,2.106c.718,0,.718-.7.718-1.4s1.434-.7,1.434-.7a16.538,16.538,0,0,0,2.869-.7l.716-1.4s2.869-.7,4.3,0c.716.7-.717.7-.717,1.4v1.408c0,.7-.718,1.4-2.869,1.4-2.152.7-.718,2.107-.718,2.107v2.8c-.716.7-2.15,2.106-3.584,2.106a3.416,3.416,0,0,0-.717,2.106c0,.7.717,2.107.717,3.513,0,.7,0,.7.716,2.106,0,.7,1.434.7,2.152.7,0,.7,1.434,2.107.716,2.81s-1.434,1.4-2.15,1.4a10.21,10.21,0,0,1-1.434,2.81,3.33,3.33,0,0,1,0,2.81c0,1.4-1.434.7-2.152,1.4l-2.152,2.107c-.717,0-1.434,2.8-1.434,4.211v2.806c0,.7,0,0-1.434,2.106-.844.826-1.246,1.113-1.554,1.113C274.3,565.5,274.052,564.819,272.745,564.391ZM131.388,520.207l-.56.275Zm.006,0-.006,0Zm.016-.008-.016.008Zm0,0h0Zm.029-.015-.029.015Zm0,0h0Zm0,0h0Zm.011-.005-.011.005Zm0,0,0,0ZM282.315,444.9v-2.8h2.17c.726,0,1.45-.7,2.173,0s0,2.1,0,2.1c-.723.7-1.448,1.4-2.173,1.4A2.712,2.712,0,0,1,282.315,444.9Zm16.652-2.8c0-.7-1.447-1.4.725-2.1l2.174-1.4h1.448c.723-.7,2.17,0,2.17,0,0,.7.726.7-.723,1.4l-1.448.7c-.725,0,0,.7-.725.7a10.86,10.86,0,0,1-3.081,1.3C299.176,442.7,298.967,442.534,298.967,442.1Zm-4.344,0c-.723-.7-1.448-2.1-2.171-2.1s0-.7-1.449-.7c-2.172,0,0,.7-2.9,0-2.171-1.4-2.171-1.4-2.9-1.4a3.66,3.66,0,0,1-2.173-.7,3.377,3.377,0,0,1,.724-2.1c.723-.7.723-.7,1.449-.7.725-.7.725-2.8.725-2.8s2.9-1.4,2.9-.7-.724,2.8.723,2.1c.725,0,.725-1.4.725-1.4v-1.4a10.038,10.038,0,0,1-1.448-2.1s-.724-2.1.723-2.1h2.9a3.381,3.381,0,0,1,.723,2.1c.726.7,2.9,1.4,2.9.7h.725c.723.7,2.895.7,2.17,1.4,0,0-1.447,1.4-1.447,2.1-.723,0-2.9-.7-.723,1.4,1.447,2.1,2.17,1.4,2.17,2.1a1.529,1.529,0,0,1-1.447,1.4c-.723,0-1.448,0-1.448-.7-.723-.7-.723-1.4-1.448-1.4-1.448,0-.723,2.1,0,2.1l4.344,1.4s-1.447,2.1-1.447,2.8c-.578,0-1.158.894-2.107.894A1.8,1.8,0,0,1,294.623,442.1Zm55.752-2.1v-1.4a7.473,7.473,0,0,0,2.172-.7L354,439.3a10.351,10.351,0,0,1-2.17,1.4A2.562,2.562,0,0,1,350.375,440Zm-9.413,0v-1.4a2.564,2.564,0,0,1,1.448-.7s.725-.7.725,0c.725,0,1.448.7.725,1.4a2.282,2.282,0,0,1-1.45.7,1.59,1.59,0,0,1-1,.523C341.143,440.526,340.962,440.352,340.962,440ZM354,439.3Zm.057-.027L354,439.3Zm.007,0-.007,0Zm0,0h0Zm.018-.009-.018.009Zm.01,0-.01,0Zm.09-.043-.09.043Zm0,0h0Zm.206-.1-.206.1Zm0,0h0Zm.253-.122-.253.122Zm0,0ZM305.483,435.1a1.535,1.535,0,0,1,1.45-1.4c0,.7.723.7.723,1.4-.723.7-.723,1.4-1.447,1.4S305.483,435.1,305.483,435.1Zm17.38-2.8a.945.945,0,0,1,0-1.4l.723-.7a2.412,2.412,0,0,0-.723-1.4c.723-.7,2.17,0,2.17,0,0,.7,0,1.4.725.7s.723-1.4,1.448-2.1h.723a3.675,3.675,0,0,0,2.173.7s2.173-.7,2.173,0c0,0,1.447,2.1.723,2.1s-2.9-.7-3.619-.7-.725,1.4-1.45,1.4a3.211,3.211,0,0,1-2.171,2.1,3.231,3.231,0,0,0-2.173.7S322.863,433.7,322.863,432.3Zm-17.38.7c-.723-1.4,0-2.1,0-2.1.726,0,1.45-.7,1.45,0,0,0,2.172-.7.723.7a17.3,17.3,0,0,0-2.131,1.674C305.483,433.277,305.483,433.19,305.483,433Zm12.311-2.8s-.726-1.4.723-1.4h1.448c.725.7,1.448,0,1.448.7-.723.7,0,1.4-.723,1.4A7.68,7.68,0,0,1,317.794,430.2Zm-6.516-7.7c0-.7.723,0,.723-.7s-1.448-.7-.723-2.1c.723-.7.723-2.8,1.447-.7,1.448,1.4.723,1.4,1.448,2.8a2.832,2.832,0,0,1-2.243,2.57C311.368,424.378,311,423.862,311.277,422.506Zm2.17-8.4ZM171.674,167.765c0,.009,0,.019,0,.028C171.595,167.776,171.588,167.765,171.674,167.765ZM274.392,42.817,270.8,41.412a4.3,4.3,0,0,1,1.436-2.806c1.436-.7,2.872-1.4,2.872-2.107a2.1,2.1,0,0,1,0-2.81c1.437,0,1.437-1.4,3.591-1.4,1.436.7,2.155.7,2.155,2.1-.718,1.405,0,1.405-.718,2.108s-2.154.7-2.873,2.81a8.363,8.363,0,0,1-.718,3.508c0,.234-.239.312-.559.312A6.618,6.618,0,0,1,274.392,42.817Zm-12.93-3.508c0-.7-2.154-2.81-2.154-2.81,0-.7-1.436-2.108.717-2.81,1.437-1.4,6.464-3.508,7.185-3.508a42.96,42.96,0,0,1,2.873-4.21h5.027a6.3,6.3,0,0,0,4.2.644c1-.253,1.691-.505.829.757-2.154,1.4-2.873,2.107-3.591,2.107-.718.7-4.309,3.512-4.309,4.912-.718,1.405,0,1.405-.718,2.108-1.436.7-5.749,2.81-6.467,3.512-.717,0-1.613.174-2.331.174S261.462,40.011,261.462,39.31Z" transform="translate(34.116 1450.115)" fill="url(#a)"/><rect width="675" height="622" transform="translate(-6.138 1467)" fill="none"/><circle cx="4.5" cy="4.5" r="4.5" transform="translate(284.862 1898)" fill="#417da5" opacity="0.092"/><ellipse cx="5" cy="4.5" rx="5" ry="4.5" transform="translate(281.862 1908)" fill="#417da5" opacity="0.092"/><circle cx="4.5" cy="4.5" r="4.5" transform="translate(149.862 1908)" fill="#417da5" opacity="0.092"/><circle cx="4.5" cy="4.5" r="4.5" transform="translate(274.862 1901)" fill="#417da5" opacity="0.092"/><circle cx="5" cy="5" r="5" transform="translate(270.862 1910)" fill="#417da5" opacity="0.092"/></g></g></svg>