<svg xmlns="http://www.w3.org/2000/svg" width="350" height="200" viewBox="0 0 350 200"><g id="safespring-kubernetes" transform="translate(-200 -242)"><g id="Group_162" transform="translate(10)"><path id="Rectangle_285" fill="#ebf5fa" d="M0 0h350v200H0z" transform="translate(190 242)"/></g><g id="Group_163" transform="translate(261.981 322.907)"><path id="Path_4856" fill="#195f8c" d="M36.3 8.55a3 3 0 0 0-1.46-1.68L20.97.23A3 3 0 0 0 19.83 0a5 5 0 0 0-1.14.1L4.82 6.77a2.4 2.4 0 0 0-1.37 1.68L.06 23.42a3 3 0 0 0 .5 2.19l9.6 11.87a3.3 3.3 0 0 0 2.09.95h15.28a2.3 2.3 0 0 0 2.09-.95l9.6-11.87a3 3 0 0 0 .54-2.19Z"/><path id="Path_4857" fill="#fff" d="M39.86 28.66q-.08.01-.1-.05c-.01-.06-.08-.04-.17-.04a2 2 0 0 0-.55-.05l-.27-.05h-.05a9 9 0 0 1-1.54-.27.6.6 0 0 1-.32-.32l-.37-.09a12 12 0 0 0-.18-4 12 12 0 0 0-1.59-3.73l.27-.27v-.05a.6.6 0 0 1 .14-.4 8 8 0 0 1 1.27-.92l.28-.14c.18-.09.31-.18.5-.27.04-.04.09-.04.13-.09s0-.04 0-.09a.9.9 0 0 0 .18-1.27 1 1 0 0 0-.63-.32 1 1 0 0 0-.64.23l-.04.04q-.08.09-.14.1a3 3 0 0 0-.36.4c-.05.1-.14.14-.19.18a6 6 0 0 1-1.13 1 1 1 0 0 1-.28.1.3.3 0 0 1-.18-.05h-.04l-.37.23c-.36-.37-.77-.73-1.13-1.1a11.7 11.7 0 0 0-5.92-2.36l-.04-.37v.05a.6.6 0 0 1-.23-.36 9 9 0 0 1 .1-1.55v-.05l.04-.27c.04-.18.04-.36.09-.54v-.28a.9.9 0 0 0-.78-.95.9.9 0 0 0-.77.32 1 1 0 0 0-.27.63v.23a2 2 0 0 0 .09.55l.04.27v.04a9 9 0 0 1 .1 1.55.6.6 0 0 1-.23.36v.1l-.05.36q-.74.07-1.54.23a11 11 0 0 0-5.6 3.18l-.27-.18h-.04l-.19.04a1 1 0 0 1-.27-.09 8 8 0 0 1-1.14-1.04c-.04-.1-.13-.14-.18-.19l-.36-.4c-.05-.05-.1-.05-.14-.1l-.04-.04a1 1 0 0 0-.64-.23.7.7 0 0 0-.64.32 1 1 0 0 0 .18 1.27l.05.05s.09.09.14.09l.5.27.27.14a7 7 0 0 1 1.27.9.5.5 0 0 1 .14.42v-.05l.27.27c-.04.1-.1.14-.14.23a10.8 10.8 0 0 0-1.59 7.46l-.36.1-.05.04a.7.7 0 0 1-.31.32 9 9 0 0 1-1.55.27l-.27.04c-.19 0-.37.05-.55.05l-.18.04c-.05 0-.05 0-.1.05a.9.9 0 0 0-.72 1.04.84.84 0 0 0 .9.64.4.4 0 0 0 .24-.04q.05.01.04-.05c0-.06.14 0 .18 0 .19-.04.37-.13.5-.18a1 1 0 0 1 .28-.1h.04a8 8 0 0 1 1.5-.4h.05a.5.5 0 0 1 .36.14l.05.04.4-.04a11 11 0 0 0 3.73 5.32 7 7 0 0 0 1.23.82l-.23.31.05.05a.5.5 0 0 1 .04.45 8 8 0 0 1-.72 1.32v.05a1 1 0 0 1-.19.22l-.31.46c-.05.04-.05.09-.1.14l-.04.04a.94.94 0 0 0 .36 1.23 1 1 0 0 0 .32.09 1 1 0 0 0 .87-.55l.04-.04q.01-.08.1-.14c.04-.18.13-.32.17-.5l.1-.27a8 8 0 0 1 .59-1.41.7.7 0 0 1 .36-.27q.06.01.05-.05l.18-.36a11 11 0 0 0 3.95.73 9 9 0 0 0 2.46-.32 14 14 0 0 0 1.46-.41l.18.32q.05-.01.04.04a.7.7 0 0 1 .37.27 8 8 0 0 1 .59 1.41v.05l.09.27a2 2 0 0 0 .18.5c.05.05.05.1.1.14l.04.04a1 1 0 0 0 .86.55 1 1 0 0 0 .36-.1.8.8 0 0 0 .41-.5 1 1 0 0 0-.04-.67l-.05-.05q0-.07-.09-.13a2 2 0 0 0-.32-.46 1 1 0 0 0-.18-.23v-.09a5 5 0 0 1-.73-1.32.5.5 0 0 1 .05-.45l.04-.05-.13-.36a11.2 11.2 0 0 0 4.91-6.19l.36.05.05-.05a.5.5 0 0 1 .36-.13H37a8 8 0 0 1 1.45.4h.06a1 1 0 0 0 .27.1 2 2 0 0 0 .5.22c.05 0 .1.05.19.05.04 0 .04 0 .09.04a.4.4 0 0 0 .22.05 1 1 0 0 0 .91-.64 1.1 1.1 0 0 0-.82-.95Zm-13.14-1.41-1.23.59-1.23-.6-.32-1.31.87-1.1h1.36l.86 1.1Zm7.41-2.96a9 9 0 0 1 .18 2.86L30 25.93a.74.74 0 0 1-.54-.91 1 1 0 0 1 .18-.32l3.4-3.1a9 9 0 0 1 1.1 2.68Zm-2.46-4.37-3.73 2.64a.8.8 0 0 1-1-.18.4.4 0 0 1-.13-.32l-.27-4.6a8.6 8.6 0 0 1 5.13 2.46m-8.23-2.32.91-.18-.23 4.55a.76.76 0 0 1-.77.72 1 1 0 0 1-.36-.09l-3.78-2.68a9 9 0 0 1 4.23-2.32m-5.55 4 3.37 3a.73.73 0 0 1 .09 1.05.5.5 0 0 1-.37.22l-4.4 1.28a9.6 9.6 0 0 1 1.31-5.55m-.77 7.69 4.5-.78a.75.75 0 0 1 .77.6.5.5 0 0 1-.04.45l-1.73 4.18a9 9 0 0 1-3.5-4.45m10.32 5.64a9 9 0 0 1-1.95.22 10 10 0 0 1-2.87-.45l2.23-4.05a.7.7 0 0 1 .91-.18 2 2 0 0 1 .36.32l2.19 3.95a7 7 0 0 0-.87.2ZM33 30.97a9 9 0 0 1-2.73 2.73l-1.77-4.27a.74.74 0 0 1 .4-.87 1 1 0 0 1 .42-.09l4.55.78a7 7 0 0 1-.87 1.72" transform="translate(-5.704 -5.823)"/><path id="Path_4858" fill="#195f8c" d="M282.94 36.06a5 5 0 0 0 1.91-.27 1 1 0 0 0 .55-1 1.2 1.2 0 0 0-.73-1 10 10 0 0 0-2.23-1 18 18 0 0 1-2.09-.91 6 6 0 0 1-1.6-1.1 4 4 0 0 1-1-1.54 6 6 0 0 1-.36-2.14 4.7 4.7 0 0 1 1.82-3.87 8 8 0 0 1 4.96-1.4 14 14 0 0 1 3.05.31 15 15 0 0 1 2.32.6l-.87 3.86c-.63-.23-1.22-.37-1.86-.55a9 9 0 0 0-2.23-.22q-2.32-.02-2.32 1.27a2 2 0 0 0 .1.54 1.3 1.3 0 0 0 .4.46 9 9 0 0 0 .77.45 8 8 0 0 0 1.32.55 17 17 0 0 1 2.64 1.18 5 5 0 0 1 1.64 1.28 3.5 3.5 0 0 1 .86 1.5 7 7 0 0 1 .27 1.9 4.4 4.4 0 0 1-1.95 3.92 9.7 9.7 0 0 1-5.46 1.32 14 14 0 0 1-3.87-.4q-1.07-.3-2.09-.65l.82-4a17 17 0 0 0 2.55.78c.9.04 1.77.13 2.68.13m-25.06-5a11 11 0 0 1 .68-4 9 9 0 0 1 1.87-2.9 7 7 0 0 1 2.64-1.74 8 8 0 0 1 3.09-.59 7.6 7.6 0 0 1 5.82 2.28q2.13 2.26 2.14 6.64a7 7 0 0 1-.05.95c0 .37-.04.64-.04.91h-11.1a3.3 3.3 0 0 0 1.4 2.41 6 6 0 0 0 3.37.91 17 17 0 0 0 2.64-.22 9 9 0 0 0 2.14-.69l.68 4a7 7 0 0 1-1.04.41 9 9 0 0 1-1.5.32q-.8.14-1.73.27-.9.09-1.87.1a11 11 0 0 1-4.1-.69 7.4 7.4 0 0 1-4.54-4.73 15 15 0 0 1-.5-3.64m11.5-1.86a4 4 0 0 0-.22-1.23 3 3 0 0 0-.55-1.04 3 3 0 0 0-.95-.78 3.3 3.3 0 0 0-2.82 0 3 3 0 0 0-1 .73 3 3 0 0 0-.64 1.1 6 6 0 0 0-.27 1.22zm-24.83-11.29 4.9-.77v5.1h5.92v4.09h-5.91v6.09a4.5 4.5 0 0 0 .54 2.46 2.4 2.4 0 0 0 2.23.9 9 9 0 0 0 1.6-.13 9 9 0 0 0 1.54-.4l.68 3.81a15 15 0 0 1-2 .64 13 13 0 0 1-2.68.27 8 8 0 0 1-3.32-.54 5.4 5.4 0 0 1-2.1-1.5 6 6 0 0 1-1.13-2.37 12 12 0 0 1-.27-3.05zm-19.88 13.15a11 11 0 0 1 .68-4 9 9 0 0 1 1.87-2.91 7 7 0 0 1 2.64-1.73 8 8 0 0 1 3.09-.6 7.6 7.6 0 0 1 5.82 2.28q2.13 2.26 2.14 6.64a7 7 0 0 1-.05.96 7 7 0 0 0-.04.9h-11.15a3.3 3.3 0 0 0 1.41 2.42 6 6 0 0 0 3.37.9 17 17 0 0 0 2.64-.22 10 10 0 0 0 2.18-.68l.68 4a7 7 0 0 1-1.04.4 9 9 0 0 1-1.5.32c-.55.1-1.1.19-1.73.28q-.9.08-1.86.09a11 11 0 0 1-4.1-.68 7.4 7.4 0 0 1-4.55-4.73 11 11 0 0 1-.5-3.64m11.51-1.87a4 4 0 0 0-.23-1.22 3 3 0 0 0-.54-1.05 3 3 0 0 0-.96-.77 3.3 3.3 0 0 0-2.82 0 3 3 0 0 0-.95.72 3 3 0 0 0-.64 1.1 6 6 0 0 0-.27 1.22zm-30.15-6.36q1.58-.41 3.23-.68a25 25 0 0 1 4.14-.32 10 10 0 0 1 3.64.59 5 5 0 0 1 2.32 1.59 6.4 6.4 0 0 1 1.22 2.5 13 13 0 0 1 .37 3.23v9.78h-4.87v-9.15a7 7 0 0 0-.64-3.36 2.6 2.6 0 0 0-2.32-1 10 10 0 0 0-1.13.04 7 7 0 0 0-1.05.1v13.37h-4.91zm-3.46 3.78q-.68-.17-1.55-.32a9 9 0 0 0-1.9-.18 10 10 0 0 0-1.15.1 7 7 0 0 0-.95.17v13.24h-4.91V23.14a24 24 0 0 1 3.09-.86 15 15 0 0 1 4-.41c.32 0 .64.04.95.04a5 5 0 0 1 1.14.14q.54.07 1.14.18a4 4 0 0 1 .95.27zm-30.52 4.45a11 11 0 0 1 .68-4 9 9 0 0 1 1.86-2.9 7 7 0 0 1 2.64-1.73 8 8 0 0 1 3.1-.6 7.6 7.6 0 0 1 5.82 2.28c1.4 1.5 2.14 3.73 2.14 6.6a7 7 0 0 1-.05.95 7 7 0 0 0-.04.9h-11.15a3.3 3.3 0 0 0 1.41 2.42 6 6 0 0 0 3.37.91 17 17 0 0 0 2.64-.23 12 12 0 0 0 2.13-.63l.69 4a7 7 0 0 1-1.05.4 9 9 0 0 1-1.5.32q-.8.14-1.73.28-.9.08-1.86.09a11 11 0 0 1-4.1-.69 7.4 7.4 0 0 1-4.54-4.73 17 17 0 0 1-.46-3.63m11.55-1.87a4 4 0 0 0-.22-1.23 3 3 0 0 0-.55-1.04 3 3 0 0 0-.95-.78 3.3 3.3 0 0 0-2.82 0 3 3 0 0 0-1 .73 3 3 0 0 0-.64 1.1 6 6 0 0 0-.28 1.22zm-19.51 1.6c0-3.2-1.18-4.74-3.5-4.74a6 6 0 0 0-1.5.19 4 4 0 0 0-1.18.5v8.9q.34.08.9.15a10 10 0 0 0 1.24.04 3.5 3.5 0 0 0 3.04-1.36 6.5 6.5 0 0 0 1-3.69m5 .18a11 11 0 0 1-.63 3.78 8 8 0 0 1-1.73 2.86 8 8 0 0 1-2.82 1.87 11 11 0 0 1-3.82.64q-.9-.01-1.87-.1c-.97-.08-1.27-.13-1.9-.18q-.9-.12-1.78-.31a6 6 0 0 1-1.5-.41V14.77l4.9-.77v8.64a11 11 0 0 1 1.74-.54 9 9 0 0 1 1.9-.19 7.4 7.4 0 0 1 3.28.69 7 7 0 0 1 2.37 1.81 8 8 0 0 1 1.45 2.87 16 16 0 0 1 .41 3.68m-20.74 8a32 32 0 0 1-7.37.96 10 10 0 0 1-3.68-.6 6 6 0 0 1-2.32-1.63 7 7 0 0 1-1.23-2.6 13 13 0 0 1-.36-3.27v-9.6h4.9v9.05a7 7 0 0 0 .65 3.42 2.5 2.5 0 0 0 2.32 1.04 10 10 0 0 0 1.13-.04 7 7 0 0 0 1.05-.14V22.23h4.91zM119.71 28.5c.5-.55.95-1.1 1.5-1.64q.75-.88 1.5-1.68c.5-.6.95-1.1 1.36-1.6s.82-.95 1.14-1.31h5.82c-1.18 1.32-2.32 2.64-3.4 3.86a93 93 0 0 1-3.65 3.78 23 23 0 0 1 2.05 2.14c.68.82 1.36 1.63 2.05 2.54.63.87 1.27 1.78 1.82 2.64s1 1.68 1.36 2.41h-5.64c-.36-.59-.77-1.18-1.23-1.86s-.95-1.37-1.4-2.1a23 23 0 0 0-1.65-2 11 11 0 0 0-1.63-1.59v7.6h-4.91V14.77l4.9-.77z" transform="translate(-62.586 -7.633)"/></g><path id="Rectangle_291" fill="#ebf5fa" d="M0 0h350v200H0z" transform="translate(200 242)"/></g></svg>