<svg xmlns="http://www.w3.org/2000/svg" xmlns:xlink="http://www.w3.org/1999/xlink" width="1920" height="701" viewBox="0 0 1920 701"><defs><linearGradient id="linear-gradient" x1="3.14" x2="-0.03" y1="-1.956" y2="1.026" gradientUnits="objectBoundingBox"><stop offset="0" stop-color="#195f8c" stop-opacity="0.392"/><stop offset="1" stop-color="#195f8c" stop-opacity="0"/></linearGradient><radialGradient id="radial-gradient" cx="0.5" cy="0.5" r="0.5" gradientUnits="objectBoundingBox"><stop offset="0" stop-color="#195f8c" stop-opacity="0.306"/><stop offset="1" stop-color="#195f8c" stop-opacity="0"/></radialGradient><clipPath id="clip-safespring-blue-fade"><path d="M0 0h1920v701H0z"/></clipPath></defs><g id="safespring-blue-fade" clip-path="url(#clip-safespring-blue-fade)"><path fill="#fff" d="M0 0h1920v701H0z"/><g id="safespring-blue-fade-2" transform="translate(-190 -242)"><path id="Rectangle_286" fill="url(#linear-gradient)" d="M0 0h1920v701H0z" transform="translate(190 242)"/><ellipse id="Ellipse_25" cx="713" cy="573.5" fill="url(#radial-gradient)" rx="713" ry="573.5" transform="translate(-655 19)"/><ellipse id="Ellipse_26" cx="713" cy="573.5" fill="url(#radial-gradient)" rx="713" ry="573.5" transform="translate(1360 370)"/></g><g id="safespring_symbol_black_svg" opacity="0.039" transform="rotate(-11 1459.063 -4447.95)"><path id="Path_5088" fill="#195f8c" d="M719.55 222.5a250.04 250.04 0 0 0-497.04 0C90.57 237.13-6.95 352.29.37 484.84s116.96 236.26 249.7 236.23h220.96a139.56 139.56 0 0 0 0-279.11 81.44 81.44 0 1 1 57.7-138.84 29.1 29.1 0 1 0 41.2-41.12 139.56 139.56 0 1 0-98.9 237.97 81.43 81.43 0 1 1 0 162.86H250.08c-106 0-191.92-85.92-191.92-191.9S144.1 279 250.08 279a29.1 29.1 0 0 0 29.04-29.04c0-106 85.92-191.92 191.91-191.92s191.91 85.93 191.91 191.92A29.04 29.04 0 0 0 692 279c105.99 0 191.91 85.92 191.91 191.91S797.99 662.82 692 662.82a29.08 29.08 0 0 0 0 58.13c132.36-.5 241.4-104.07 248.7-236.23S851.05 237.6 719.55 222.5"/><path id="Path_5089" fill="#195f8c" d="M719.55 222.5a250.04 250.04 0 0 0-497.04 0C90.57 237.13-6.95 352.29.37 484.84s116.96 236.26 249.7 236.23h220.96a139.56 139.56 0 0 0 0-279.11 81.44 81.44 0 1 1 57.7-138.84 29.1 29.1 0 1 0 41.2-41.12 139.56 139.56 0 1 0-98.9 237.97 81.43 81.43 0 1 1 0 162.86H250.08c-106 0-191.92-85.92-191.92-191.9S144.1 279 250.08 279a29.1 29.1 0 0 0 29.04-29.04c0-106 85.92-191.92 191.91-191.92s191.91 85.93 191.91 191.92A29.04 29.04 0 0 0 692 279c105.99 0 191.91 85.92 191.91 191.91S797.99 662.82 692 662.82a29.08 29.08 0 0 0 0 58.13c132.36-.5 241.4-104.07 248.7-236.23S851.05 237.6 719.55 222.5"/></g></g></svg>