<svg xmlns="http://www.w3.org/2000/svg" xmlns:xlink="http://www.w3.org/1999/xlink" width="800" height="800" viewBox="0 0 800 800"><defs><radialGradient id="radial-gradient" cx="2.411" cy="1.417" r="2.475" gradientTransform="matrix(1 0 0 .963 0 -.007)" gradientUnits="objectBoundingBox"><stop offset="0" stop-color="#e7eff3"/><stop offset="1" stop-color="#deebf2"/></radialGradient><radialGradient id="radial-gradient-2" cx="0.5" cy="0.5" r="0.5" gradientUnits="objectBoundingBox"><stop offset="0" stop-color="#fff"/><stop offset="1" stop-color="#fff" stop-opacity="0"/></radialGradient><clipPath id="clip-safespring-kubernetes-background"><path d="M0 0h800v800H0z"/></clipPath></defs><g id="safespring-kubernetes-background" clip-path="url(#clip-safespring-kubernetes-background)"><path fill="url(#radial-gradient)" d="M0 0h800v800H0z"/><path id="Exclusion_1" fill="#c6c6c6" d="M122.2 386.1a26.5 26.5 0 0 1-20.68-9.87L5.76 257.18a26 26 0 0 1-1.5-2.09 26 26 0 0 1-3.59-20.12L34.8 86.5a26 26 0 0 1 5.11-10.52 27 27 0 0 1 9.2-7.28L187.45 2.6A27 27 0 0 1 197.59.03q.67-.03 1.34-.03a27 27 0 0 1 11.48 2.6l138.36 66.06a27 27 0 0 1 9.2 7.28 26 26 0 0 1 5.1 10.52l34.19 148.48a26 26 0 0 1-5.11 22.2L296.43 376.2a26.5 26.5 0 0 1-20.66 9.86h-.02ZM96.64 232.8a107.8 107.8 0 0 0 47.75 59.62l-1.5 3.61c.52 1.33 1.15 3.26.74 4.69-1.57 4.06-4.2 8.32-7.5 13.47q-.77 1.13-1.53 2.16a35 35 0 0 0-2.9 4.45c-.22.4-.47.94-.7 1.45l-.02.03-.35.75a9.7 9.7 0 0 0-.57 6.85 7.8 7.8 0 0 0 4.1 4.92 7.5 7.5 0 0 0 3.28.75 9.3 9.3 0 0 0 8.14-5.42v-.01l.02-.01v-.01l.33-.67.7-1.44a34 34 0 0 0 1.64-5q.33-1.27.75-2.6c.65-1.63 1.21-3.3 1.76-4.91 1.3-3.83 2.53-7.43 4.64-9.96a6.7 6.7 0 0 1 3.57-1.74l1.88-3.4a107.2 107.2 0 0 0 76.41.2l.98 1.75.04.08.75 1.35.56.17a5.8 5.8 0 0 1 3.67 2.39c2.23 3.8 3.8 8.4 5.6 13.7l.08.22q.4 1.32.73 2.55a35 35 0 0 0 1.67 5.04c.19.43.45.96.7 1.47l.03.04.3.62a9.3 9.3 0 0 0 8.15 5.43 7.5 7.5 0 0 0 3.3-.75 7.8 7.8 0 0 0 4.09-4.91 9.7 9.7 0 0 0-.57-6.85l-.3-.62-.02-.05-.76-1.56a34 34 0 0 0-2.88-4.4q-.77-1.04-1.56-2.2c-3.08-4.81-5.73-8.97-7.35-13.15a5.7 5.7 0 0 1 .41-4.3l.23-.58a12 12 0 0 1-.93-2.18l-.45-1.16a107.8 107.8 0 0 0 47.73-60.05c1.1.17 2.96.5 3.54.62l.5-.34a6 6 0 0 1 3.65-1.4l.49.02c4.35.63 8.9 2.27 14.18 4.16l.25.09q1.3.5 2.5 1.03a34 34 0 0 0 4.94 1.84c.37.1.86.2 1.33.29h.01l.8.16.08.03.08.03h.06l.06.01a10 10 0 0 0 2.14.23 8.5 8.5 0 0 0 8.55-6.28 7.8 7.8 0 0 0-1.3-6.25 9.7 9.7 0 0 0-5.72-3.83l-.9-.22c-.54-.13-1.08-.27-1.5-.35a34 34 0 0 0-5.23-.49q-1.31-.04-2.72-.14l-.14-.02c-5.62-.59-10.48-1.1-14.7-2.43-1.54-.6-2.67-2.25-3.34-3.24l-.02-.03-.22-.32-3.34-.97a107.6 107.6 0 0 0-17.25-74.52l1.52-1.37.08-.07.04-.04 1.3-1.16.04-.6a5.8 5.8 0 0 1 1.51-4.09c3.26-3.05 7.45-5.65 12.31-8.65q1.23-.7 2.4-1.31a34 34 0 0 0 4.5-2.7c.35-.26.78-.62 1.2-.96l.61-.51a9.7 9.7 0 0 0 3.58-5.95 7.8 7.8 0 0 0-1.54-6.26 8 8 0 0 0-6.3-2.91 9.8 9.8 0 0 0-6.05 2.17l-.43.34-.05.03-.02.02c-.46.36-.97.76-1.34 1.08a36 36 0 0 0-3.71 3.83q-.83.95-1.76 1.95l-.3.32c-3.9 3.95-7.25 7.35-10.86 9.79a6 6 0 0 1-3.06.65q-.87-.01-1.53-.07h-.03l-.4-.03-3.15 2.25a109 109 0 0 0-31.23-22.8 107 107 0 0 0-37.5-10.41c-.08-1.11-.18-3.13-.2-3.7l-.46-.42a5.8 5.8 0 0 1-2.25-3.72c-.35-4.34.22-9.09.88-14.58l.05-.44q.21-1.38.45-2.65a34 34 0 0 0 .69-5.23v-1.5l-.02-.85c0-5.07-3.71-9.2-8.28-9.2s-8.28 4.13-8.28 9.2l.01.11.01.12-.01.7v.02c-.01.5-.02 1 0 1.4a34 34 0 0 0 .68 5.23q.24 1.27.45 2.65l.01.14c.68 5.61 1.26 10.46.9 14.88a9 9 0 0 1-2.69 4.28l-.2 3.5a108 108 0 0 0-14.96 2.3 106.5 106.5 0 0 0-54.1 30.91c-.92-.63-2.52-1.78-2.99-2.12l-.58.09a11 11 0 0 1-1.68.17 5 5 0 0 1-2.66-.74c-3.66-2.47-7.08-5.94-11.03-9.96l-.13-.12q-.93-1.02-1.78-1.99a35 35 0 0 0-3.67-3.8c-.38-.33-.93-.76-1.37-1.1l-.09-.07-.38-.3a10 10 0 0 0-5.77-2.17h-.3a8 8 0 0 0-6.3 2.92 7.8 7.8 0 0 0-1.54 6.25 9.7 9.7 0 0 0 3.58 5.96l.06.04.06.04.48.4c.4.33.87.71 1.24.99a34 34 0 0 0 4.49 2.7q1.15.61 2.37 1.31l.02.01c4.85 3 9.04 5.59 12.3 8.64 1.13 1.21 1.43 3.21 1.6 4.4l.01.05.05.33 2.66 2.37a107.2 107.2 0 0 0-16.9 74.7l-3.47 1.01-.34.44c-.9 1.18-2.02 2.66-3.22 3.15-4.21 1.33-9.06 1.84-14.67 2.42l-.17.02q-1.4.1-2.71.15a34 34 0 0 0-5.24.49c-.43.08-.98.21-1.51.34h-.01l-.09.02-.6.15h-.03l-.04.02-.07.02-.05.01a9.7 9.7 0 0 0-5.71 3.83 7.8 7.8 0 0 0-1.3 6.26 8.5 8.5 0 0 0 8.54 6.28 10 10 0 0 0 2.15-.23h.06l.06-.02.09-.03.07-.02.53-.12.15-.03 1.46-.33a35 35 0 0 0 4.98-1.83l.02-.01q1.16-.52 2.43-1l.22-.08c5.3-1.9 9.86-3.54 14.22-4.17l.3-.01a9 9 0 0 1 4.1 1.48l.37.21zm102.37 53a85 85 0 0 1-27.55-4.56l21.02-38h.04a7.3 7.3 0 0 1 6.17-3.85h.27a7.4 7.4 0 0 1 6.42 3.84h.16l21.07 38.07a88 88 0 0 1-27.6 4.52Zm46.34-13.44-16.74-40.43.05-.07a7.32 7.32 0 0 1 6.34-10.2h.32a8 8 0 0 1 1.36.13l.07-.09 43.12 7.3a85.4 85.4 0 0 1-34.52 43.35Zm-92.6-.16a85.7 85.7 0 0 1-34.41-43.06l42.74-7.25.07.08a8 8 0 0 1 1.33-.12h.1a7.3 7.3 0 0 1 6.6 10.17l.13.16zm46.2-56.93-11.99-5.77-2.97-12.92 8.3-10.33h13.32l8.28 10.35-2.97 12.92zm-85.3-6.37a85.3 85.3 0 0 1 12.1-53.98L158.29 184l-.04.18a7.3 7.3 0 0 1-2.86 12.54l-.04.14-41.68 12.03Zm170.74-.15L242.5 196.7l-.04-.18a7.3 7.3 0 0 1-2.86-12.55l-.02-.09 32.34-28.94a87 87 0 0 1 12.48 53.82ZM178.66 165.3a7.3 7.3 0 0 1-4.3-1.4l-.07.04-35.61-25.25a85.5 85.5 0 0 1 41.08-22.38 88 88 0 0 1 8.83-1.52l-2.46 43.43-.18.09a7.3 7.3 0 0 1-7.29 6.99m40.48-.15a7.3 7.3 0 0 1-7.3-6.98l-.03-.02-2.46-43.36a86 86 0 0 1 49.6 23.92l-35.38 25.08-.12-.05a7.3 7.3 0 0 1-4.3 1.4Z" opacity="0.577" style="mix-blend-mode:color-burn;isolation:isolate" transform="translate(542.678 154.42)"/><path id="Exclusion_1-2" fill="#c6c6c6" d="M78.66 248.53a17 17 0 0 1-13.31-6.35L3.7 165.54q-.51-.63-.97-1.34a16.8 16.8 0 0 1-2.31-12.95L22.4 55.68a17 17 0 0 1 3.29-6.77 17 17 0 0 1 5.92-4.69l89.05-42.55a17 17 0 0 1 6.53-1.65l.86-.02a17 17 0 0 1 7.4 1.67L224.5 44.2a17 17 0 0 1 5.93 4.69 17 17 0 0 1 3.28 6.77l22 95.57a16.8 16.8 0 0 1-3.29 14.3l-61.61 76.64a17 17 0 0 1-13.3 6.34h-.01ZM62.2 149.85a69.4 69.4 0 0 0 30.73 38.38l-.96 2.32a5.3 5.3 0 0 1 .47 3.02 52 52 0 0 1-4.82 8.67q-.5.73-1 1.4a22 22 0 0 0-1.86 2.86c-.14.26-.3.6-.45.93v.02l-.23.48a6.2 6.2 0 0 0-.37 4.41 5 5 0 0 0 2.63 3.17 5 5 0 0 0 2.12.48 6 6 0 0 0 5.24-3.5h.01l.21-.44q.27-.51.45-.93a22 22 0 0 0 1.06-3.21q.22-.82.48-1.67.61-1.6 1.14-3.17c.83-2.46 1.62-4.78 2.99-6.4a4.3 4.3 0 0 1 2.3-1.13l1.2-2.18a69 69 0 0 0 49.2.12l.62 1.13.03.05.48.87.36.11a3.7 3.7 0 0 1 2.36 1.54 49 49 0 0 1 3.61 8.82l.05.14q.27.84.47 1.64a23 23 0 0 0 1.08 3.25q.18.43.45.94l.01.03.2.4a6 6 0 0 0 5.24 3.5 5 5 0 0 0 2.12-.49 5 5 0 0 0 2.64-3.16 6.2 6.2 0 0 0-.37-4.4l-.19-.4-.01-.04-.5-1a22 22 0 0 0-1.84-2.83q-.5-.67-1.01-1.42a50 50 0 0 1-4.73-8.46 3.7 3.7 0 0 1 .27-2.78l.14-.37a8 8 0 0 1-.6-1.4q-.15-.44-.29-.75a69.4 69.4 0 0 0 30.73-38.65c.7.11 1.9.32 2.28.4l.32-.22a3.8 3.8 0 0 1 2.35-.9l.31.01a49 49 0 0 1 9.14 2.68l.16.05q.83.33 1.6.67a22 22 0 0 0 3.18 1.18q.38.1.85.19h.01l.51.1.06.02.05.02h.04l.04.01a7 7 0 0 0 1.38.15 5.46 5.46 0 0 0 5.5-4.04 5 5 0 0 0-.84-4.03 6.2 6.2 0 0 0-3.67-2.47l-.59-.14c-.34-.08-.69-.17-.96-.22a22 22 0 0 0-3.37-.31 33 33 0 0 1-1.74-.1l-.1-.01a50 50 0 0 1-9.46-1.57 5.4 5.4 0 0 1-2.15-2.08l-.01-.02-.14-.2-2.15-.63a69.2 69.2 0 0 0-11.1-47.97l.98-.88.05-.05.02-.02c.36-.31.7-.61.84-.75q0-.2.03-.38a3.7 3.7 0 0 1 .97-2.64 50 50 0 0 1 7.92-5.56q.8-.46 1.54-.85a22 22 0 0 0 2.9-1.74l.77-.62.4-.33a6.2 6.2 0 0 0 2.3-3.83 5 5 0 0 0-1-4.02 5.1 5.1 0 0 0-4.04-1.88 6.3 6.3 0 0 0-3.9 1.4l-.28.22-.03.02-.02.01c-.29.23-.62.49-.86.7a23 23 0 0 0-2.39 2.46l-1.13 1.26-.2.2a49 49 0 0 1-6.98 6.3 4 4 0 0 1-1.97.42q-.56-.01-.99-.05h-.02l-.26-.02-2.03 1.45a70 70 0 0 0-20.1-14.67 69 69 0 0 0-24.14-6.7c-.05-.72-.11-2.02-.13-2.39l-.28-.27a3.7 3.7 0 0 1-1.46-2.4 49 49 0 0 1 .57-9.38l.04-.29q.12-.88.29-1.7a22 22 0 0 0 .43-3.36v-1.52c0-3.26-2.4-5.92-5.34-5.92s-5.32 2.66-5.32 5.92v1.51a22 22 0 0 0 .44 3.37l.29 1.7v.09a50 50 0 0 1 .6 9.58 6 6 0 0 1-1.74 2.76l-.13 2.25a70 70 0 0 0-9.63 1.48 68.5 68.5 0 0 0-34.83 19.9c-.59-.4-1.62-1.14-1.92-1.36l-.38.06a7 7 0 0 1-1.08.1 3.3 3.3 0 0 1-1.7-.47 50 50 0 0 1-7.11-6.41l-.08-.08q-.61-.65-1.15-1.28a22 22 0 0 0-2.36-2.44c-.25-.22-.6-.5-.89-.71l-.05-.05-.25-.19a6.4 6.4 0 0 0-3.7-1.4h-.2a5.1 5.1 0 0 0-4.06 1.88 5 5 0 0 0-.99 4.03 6.2 6.2 0 0 0 2.3 3.83l.04.03.04.03.3.25.8.64a22 22 0 0 0 2.89 1.74q.74.39 1.53.84a50 50 0 0 1 7.92 5.57 5.4 5.4 0 0 1 1.04 2.83v.03l.03.22 1.7 1.52a69 69 0 0 0-10.87 48.08l-2.23.65-.21.29a6 6 0 0 1-2.08 2.03 50 50 0 0 1-9.44 1.55l-.11.02q-.9.07-1.75.1a22 22 0 0 0-3.37.3l-.97.23-.06.01-.4.1h-.04l-.04.02-.04.01a6.2 6.2 0 0 0-3.67 2.47 5 5 0 0 0-.84 4.02 5.46 5.46 0 0 0 5.5 4.05 7 7 0 0 0 1.39-.15h.07l.06-.02.05-.02.34-.07.1-.02.94-.22a22 22 0 0 0 3.2-1.18h.01q.75-.33 1.57-.65l.14-.05a49 49 0 0 1 9.15-2.68l.2-.01a6 6 0 0 1 2.63.95l.24.14zm65.9 34.12a55 55 0 0 1-17.74-2.94l13.53-24.46h.02a4.7 4.7 0 0 1 3.98-2.48h.17a4.8 4.8 0 0 1 4.13 2.47h.1l13.57 24.51a57 57 0 0 1-17.77 2.9Zm29.82-8.65-10.77-26.03.04-.04a4.7 4.7 0 0 1 4.07-6.56h.2a5 5 0 0 1 .88.08l.05-.06 27.75 4.7a55 55 0 0 1-22.22 27.9Zm-59.6-.1a55.2 55.2 0 0 1-22.15-27.72l27.51-4.67.05.05a5 5 0 0 1 .85-.08h.07a4.7 4.7 0 0 1 4.25 6.55l.08.1zm29.74-36.65-7.72-3.72-1.91-8.31 5.34-6.65h8.58l5.33 6.66-1.92 8.31zm-54.9-4.1a55 55 0 0 1 7.8-34.75l20.92 18.73-.02.1a4.7 4.7 0 0 1-1.84 8.08l-.03.1zm109.9-.1-26.97-7.76-.02-.12a4.7 4.7 0 0 1-1.85-8.07v-.06l20.8-18.63a56 56 0 0 1 8.04 34.64M115 106.4a4.7 4.7 0 0 1-2.77-.9l-.05.02-22.92-16.25a55 55 0 0 1 26.44-14.4 56 56 0 0 1 5.68-.98l-1.58 27.96-.11.05a4.7 4.7 0 0 1-4.7 4.5m26.05-.1a4.7 4.7 0 0 1-4.7-4.49l-.02-.01-1.58-27.91a55.4 55.4 0 0 1 31.93 15.4l-22.78 16.14-.08-.03a4.7 4.7 0 0 1-2.77.9" opacity="0.577" style="mix-blend-mode:color-burn;isolation:isolate" transform="rotate(25 -813.498 1725.94)"/><path id="Exclusion_1-3" fill="#c6c6c6" d="M25.8 81.5a5.6 5.6 0 0 1-4.37-2.1L1.22 54.29l-.32-.44a5.5 5.5 0 0 1-.76-4.25l7.2-31.33a6 6 0 0 1 1.08-2.22 6 6 0 0 1 1.95-1.54L39.57.55A6 6 0 0 1 41.7 0l.29-.01a6 6 0 0 1 2.42.55l29.2 13.94a6 6 0 0 1 1.94 1.54 6 6 0 0 1 1.08 2.22l7.22 31.34a5.5 5.5 0 0 1-1.08 4.68L62.57 79.4a5.6 5.6 0 0 1-4.37 2.08Zm-5.4-32.37a22.8 22.8 0 0 0 10.08 12.59l-.32.76a1.7 1.7 0 0 1 .15.99 17 17 0 0 1-1.58 2.84l-.32.46a7 7 0 0 0-.61.94l-.15.3-.07.17a2 2 0 0 0-.13 1.44 1.7 1.7 0 0 0 .87 1.04 2 2 0 0 0 .7.16 2 2 0 0 0 1.71-1.15l.07-.14.15-.3a7 7 0 0 0 .34-1.05l.16-.55q.2-.53.37-1.04a7 7 0 0 1 .98-2.1 1.4 1.4 0 0 1 .76-.37l.4-.71a22.6 22.6 0 0 0 16.12.04l.21.37v.02l.17.28.11.04a1.2 1.2 0 0 1 .78.5 16 16 0 0 1 1.18 2.89l.02.05.15.53a7 7 0 0 0 .35 1.07l.15.3v.02l.06.12A2 2 0 0 0 55 70.8a2 2 0 0 0 .7-.16 1.7 1.7 0 0 0 .86-1.03 2 2 0 0 0-.12-1.45l-.06-.13-.16-.34a7 7 0 0 0-.61-.93l-.33-.46a16 16 0 0 1-1.55-2.78 1.2 1.2 0 0 1 .08-.91l.05-.12a3 3 0 0 1-.2-.46l-.1-.25A22.7 22.7 0 0 0 63.63 49.1l.75.13.1-.07a1.3 1.3 0 0 1 .77-.3h.1a16 16 0 0 1 3 .88l.05.02.53.22a7 7 0 0 0 1.04.39l.28.06.17.03h.01l.02.01h.03a2 2 0 0 0 .45.05 1.8 1.8 0 0 0 1.8-1.32 1.7 1.7 0 0 0-.27-1.32 2 2 0 0 0-1.21-.81l-.2-.05-.3-.07a7 7 0 0 0-1.1-.1q-.29 0-.58-.03h-.03a16 16 0 0 1-3.1-.52 2 2 0 0 1-.7-.68l-.05-.07-.7-.21a22.7 22.7 0 0 0-3.64-15.73l.32-.29.01-.01.01-.01.28-.24v-.13a1.2 1.2 0 0 1 .32-.86 17 17 0 0 1 2.6-1.83l.5-.28a7 7 0 0 0 .95-.57l.26-.2.13-.1a2 2 0 0 0 .75-1.26 1.7 1.7 0 0 0-.32-1.32 1.7 1.7 0 0 0-1.33-.62 2 2 0 0 0-1.28.46l-.09.07v.01l-.3.23a8 8 0 0 0-.77.8l-.37.42-.07.07a16 16 0 0 1-2.3 2.06 1.3 1.3 0 0 1-.64.14l-.32-.02h-.1l-.66.47a23 23 0 0 0-6.59-4.8 23 23 0 0 0-7.91-2.2l-.04-.79-.1-.09a1.2 1.2 0 0 1-.48-.78 16 16 0 0 1 .19-3.08l.01-.1.1-.55a7 7 0 0 0 .15-1.1v-.5a1.76 1.76 0 1 0-3.5 0v.5a7 7 0 0 0 .14 1.1l.1.56v.03a16 16 0 0 1 .19 3.14 2 2 0 0 1-.57.9l-.04.74a23 23 0 0 0-3.16.48A22.5 22.5 0 0 0 25.5 26.6l-.63-.44-.13.02-.35.03a1 1 0 0 1-.56-.15 16 16 0 0 1-2.33-2.1l-.02-.03-.38-.42a7 7 0 0 0-.77-.8l-.3-.23-.01-.02-.08-.06a2 2 0 0 0-1.22-.46h-.07a1.7 1.7 0 0 0-1.32.62 1.7 1.7 0 0 0-.33 1.32 2 2 0 0 0 .76 1.26h.01l.01.01.1.09.27.2a7 7 0 0 0 .94.58q.25.12.5.27a16 16 0 0 1 2.6 1.83 2 2 0 0 1 .34.93l.01.08.56.5a22.6 22.6 0 0 0-3.56 15.76l-.74.21-.07.1a2 2 0 0 1-.67.66 16 16 0 0 1-3.1.51h-.04l-.57.03a7 7 0 0 0-1.1.1l-.32.08h-.02l-.13.03h-.04a2 2 0 0 0-1.2.8 1.7 1.7 0 0 0-.28 1.33 1.8 1.8 0 0 0 1.8 1.32 2 2 0 0 0 .45-.05h.06l.11-.03h.03l.31-.08a7 7 0 0 0 1.05-.38l.52-.22.05-.01a16 16 0 0 1 3-.88h.06a2 2 0 0 1 .86.31l.08.05zM42 60.33a18 18 0 0 1-5.81-.97l4.43-8.02a1.6 1.6 0 0 1 1.3-.82h.06a1.6 1.6 0 0 1 1.36.81h.03l4.45 8.04a19 19 0 0 1-5.82.95m9.78-2.85-3.53-8.53.01-.01a1.55 1.55 0 0 1 1.34-2.16h.07l.28.03.02-.02 9.1 1.54a18 18 0 0 1-7.29 9.15m-19.54-.03a18 18 0 0 1-7.27-9.09L34 46.83l.02.02.28-.03h.02a1.54 1.54 0 0 1 1.4 2.15l.02.03zm9.75-12.02-2.53-1.21-.63-2.73 1.75-2.18h2.82l1.75 2.18-.63 2.73zM24 44.1a18 18 0 0 1 2.55-11.39l6.87 6.14-.01.04a1.54 1.54 0 0 1-.6 2.64v.03zm36.04-.03-8.85-2.55v-.03a1.54 1.54 0 0 1-.6-2.65v-.02l6.81-6.11a18.3 18.3 0 0 1 2.63 11.36ZM37.7 34.89a1.5 1.5 0 0 1-.9-.3l-.02.01-7.52-5.33a18 18 0 0 1 8.67-4.72 19 19 0 0 1 1.86-.32l-.51 9.16-.04.02a1.54 1.54 0 0 1-1.54 1.48m8.54-.04a1.54 1.54 0 0 1-1.54-1.47l-.53-9.15a18 18 0 0 1 10.48 5.05l-7.47 5.3-.03-.01a1.5 1.5 0 0 1-.9.28" opacity="0.577" style="mix-blend-mode:color-burn;isolation:isolate" transform="rotate(66 -31.517 615.65)"/><path id="Exclusion_1-4" fill="#c6c6c6" d="M49.7 155.03a11 11 0 0 1-4.66-1.04 11 11 0 0 1-3.74-2.92l-38.95-47.8a11 11 0 0 1-.61-.84 10.4 10.4 0 0 1-1.46-8.08l13.87-59.62a10.5 10.5 0 0 1 2.08-4.22 11 11 0 0 1 3.75-2.93L76.25 1.04A11 11 0 0 1 80.38.01l.55-.01a11 11 0 0 1 4.66 1.04l56.29 26.53a11 11 0 0 1 3.74 2.92 10.5 10.5 0 0 1 2.08 4.23l13.9 59.62a10.4 10.4 0 0 1 0 4.69 10.5 10.5 0 0 1-2.08 4.22l-38.94 47.81a11 11 0 0 1-3.74 2.92 11 11 0 0 1-4.66 1.04h-.01ZM39.3 93.48a43.4 43.4 0 0 0 19.43 23.94l-.6 1.45a3.3 3.3 0 0 1 .3 1.88 32 32 0 0 1-3.06 5.4q-.31.47-.62.87a14 14 0 0 0-1.18 1.79q-.14.25-.28.58v.01l-.15.3a3.8 3.8 0 0 0-.23 2.75 3.2 3.2 0 0 0 1.67 1.98 3 3 0 0 0 1.33.3 3.8 3.8 0 0 0 3.31-2.18l.14-.27.28-.58a13 13 0 0 0 .67-2l.3-1.05q.4-.99.72-1.97a13 13 0 0 1 1.89-4 3 3 0 0 1 1.45-.7l.76-1.36a44 44 0 0 0 31.09.07l.4.71.01.03.3.54.24.07a2.4 2.4 0 0 1 1.49.96 30 30 0 0 1 2.28 5.5l.03.09.3 1.02a14 14 0 0 0 .68 2.02l.28.59v.02l.13.24a3.8 3.8 0 0 0 3.32 2.19 3 3 0 0 0 1.34-.3 3.2 3.2 0 0 0 1.66-1.98 3.8 3.8 0 0 0-.23-2.75l-.12-.25v-.02l-.32-.62a14 14 0 0 0-1.17-1.77l-.63-.88a31 31 0 0 1-3-5.28 2.3 2.3 0 0 1 .18-1.73l.09-.23a5 5 0 0 1-.38-.88l-.18-.47a43.4 43.4 0 0 0 19.42-24.1l1.44.25.2-.14a2.4 2.4 0 0 1 1.49-.56l.2.01a31 31 0 0 1 5.77 1.67l.1.03 1.01.42a14 14 0 0 0 2.01.73q.24.08.54.12l.33.07h.04l.03.02h.05a4 4 0 0 0 .87.1 3.44 3.44 0 0 0 3.48-2.53 3.1 3.1 0 0 0-.53-2.51 4 4 0 0 0-2.32-1.54l-.37-.09-.61-.14a14 14 0 0 0-2.13-.2l-1.1-.06h-.06a32 32 0 0 1-5.98-.96 3.4 3.4 0 0 1-1.36-1.3v-.01l-.1-.13-1.35-.39a42.8 42.8 0 0 0-7.02-29.92l.62-.55.03-.03.02-.02.53-.46.01-.24a2.3 2.3 0 0 1 .62-1.64 32 32 0 0 1 5-3.48l.98-.53a14 14 0 0 0 1.83-1.08l.49-.39.25-.2a4 4 0 0 0 1.45-2.39 3.1 3.1 0 0 0-.62-2.5 3.3 3.3 0 0 0-2.56-1.18 4 4 0 0 0-2.47.87l-.17.14-.02.01-.01.01c-.18.14-.4.3-.55.43a14 14 0 0 0-1.5 1.54l-.72.79-.13.12a31 31 0 0 1-4.41 3.93 2.5 2.5 0 0 1-1.24.26q-.36 0-.63-.03h-.18l-1.28.9a44.4 44.4 0 0 0-27.96-13.35l-.08-1.48-.18-.17a2.3 2.3 0 0 1-.92-1.5 30 30 0 0 1 .36-5.85l.02-.18q.08-.55.18-1.06a14 14 0 0 0 .28-2.1V24a3.38 3.38 0 1 0-6.74 0v.94a14 14 0 0 0 .28 2.1q.1.51.18 1.07v.05a31 31 0 0 1 .38 5.98 3.6 3.6 0 0 1-1.1 1.71l-.08 1.41a45 45 0 0 0-6.09.93 43.5 43.5 0 0 0-22.01 12.4l-1.22-.85-.24.04a4 4 0 0 1-.68.07 2 2 0 0 1-1.08-.3 31 31 0 0 1-4.49-4l-.05-.05-.72-.8a14 14 0 0 0-1.5-1.53l-.55-.44-.04-.03-.15-.12a4 4 0 0 0-2.35-.87h-.13a3.3 3.3 0 0 0-2.55 1.17 3.1 3.1 0 0 0-.63 2.51 4 4 0 0 0 1.45 2.4l.03.02.02.01.2.16.5.4a14 14 0 0 0 1.82 1.09q.47.24.97.52a32 32 0 0 1 5 3.47 3.3 3.3 0 0 1 .66 1.77v.02l.02.13 1.08.95a42.6 42.6 0 0 0-6.88 30l-1.4.4-.14.18a4 4 0 0 1-1.31 1.26 32 32 0 0 1-5.97.98h-.07q-.57.05-1.1.06a14 14 0 0 0-2.13.2l-.62.14-.03.01-.25.06h-.05l-.03.01a4 4 0 0 0-2.32 1.54 3.1 3.1 0 0 0-.53 2.51 3.44 3.44 0 0 0 3.48 2.52 4 4 0 0 0 .87-.09h.05l.03-.01.03-.01.22-.05h.06l.6-.14a14 14 0 0 0 2.02-.74l1-.4.09-.03a32 32 0 0 1 5.78-1.67h.12a3.6 3.6 0 0 1 1.67.6l.15.08 1.46-.25Zm41.65 21.28a35 35 0 0 1-11.2-1.83l8.55-15.26h.01a3 3 0 0 1 2.51-1.55h.11a3 3 0 0 1 1.28.29 3 3 0 0 1 1.33 1.25h.07l8.57 15.29q-1.66.55-3.43.94a36 36 0 0 1-7.8.87m18.85-5.4L93 93.13l.02-.03a2.9 2.9 0 0 1 1.44-3.8 3 3 0 0 1 1.14-.3h.13a3 3 0 0 1 .55.06l.03-.04 17.54 2.93a34.4 34.4 0 0 1-14.04 17.41Zm-37.67-.06a35 35 0 0 1-8.35-7.4 34 34 0 0 1-5.64-9.9l17.39-2.91.02.03a3 3 0 0 1 .54-.05h.05a2.95 2.95 0 0 1 2.85 2.28 3 3 0 0 1-.17 1.8l.05.07-6.74 16.06Zm18.8-22.86-4.88-2.32-1.2-5.19 3.37-4.15h5.42l3.37 4.16-1.21 5.19zm-34.7-2.56a34 34 0 0 1 4.93-21.68l13.23 11.68-.02.07a2.9 2.9 0 0 1 .38 4.04 3 3 0 0 1-1.54 1l-.02.06zm69.45-.06-17.03-4.84-.02-.08a2.92 2.92 0 0 1-1.16-5.03l-.01-.04 13.16-11.62a34.5 34.5 0 0 1 5.07 21.6Zm-43-17.45a3 3 0 0 1-1.75-.56l-.03.01L56.41 55.7a35 35 0 0 1 16.72-8.99 36 36 0 0 1 3.59-.61l-1 17.44-.08.03a2.94 2.94 0 0 1-2.96 2.81m16.46-.06a3 3 0 0 1-2.32-1.1 3 3 0 0 1-.65-1.7h-.01l-1-17.42a35 35 0 0 1 20.18 9.6l-14.4 10.08-.05-.02a3 3 0 0 1-1.75.56" opacity="0.577" style="mix-blend-mode:color-burn;isolation:isolate" transform="rotate(28 219.652 1124.908)"/><path id="Exclusion_1-5" fill="#c6c6c6" d="M62.56 197.66a13.6 13.6 0 0 1-10.59-5.05L2.95 131.66q-.4-.51-.77-1.07a13.3 13.3 0 0 1-1.84-10.3l17.47-76a13.5 13.5 0 0 1 2.62-5.39 14 14 0 0 1 4.71-3.73L95.96 1.33a14 14 0 0 1 5.2-1.31l.68-.02a14 14 0 0 1 5.88 1.33l70.83 33.82a14 14 0 0 1 4.71 3.73 13.5 13.5 0 0 1 2.62 5.38l17.5 76.02a13.4 13.4 0 0 1-2.62 11.36l-49 60.96a13.6 13.6 0 0 1-10.58 5.05Zm-13.09-78.48a55.2 55.2 0 0 0 24.45 30.52l-.77 1.85a4 4 0 0 1 .38 2.4 41 41 0 0 1-3.84 6.9l-.78 1.1a18 18 0 0 0-1.49 2.28l-.36.74v.02l-.18.38a5 5 0 0 0-.3 3.51 4 4 0 0 0 2.1 2.52 4 4 0 0 0 1.68.38 4.8 4.8 0 0 0 4.17-2.78l.16-.35q.22-.4.36-.74a17 17 0 0 0 .84-2.55q.17-.66.39-1.33.49-1.28.9-2.52a16 16 0 0 1 2.37-5.1 3.4 3.4 0 0 1 1.83-.9l.96-1.73a55 55 0 0 0 39.12.1l.5.9.02.04.38.69.29.09a3 3 0 0 1 1.88 1.22 39 39 0 0 1 2.87 7.02l.03.11q.22.67.38 1.3a18 18 0 0 0 .86 2.58l.35.75.02.02.15.32a4.8 4.8 0 0 0 4.17 2.78 4 4 0 0 0 1.7-.38 4 4 0 0 0 2.09-2.52 5 5 0 0 0-.3-3.5l-.15-.33v-.02l-.4-.8a17 17 0 0 0-1.47-2.25q-.4-.54-.8-1.13a40 40 0 0 1-3.76-6.73 3 3 0 0 1 .2-2.2l.13-.3a6 6 0 0 1-.48-1.11l-.23-.6a55.2 55.2 0 0 0 24.45-30.73l1.81.32.26-.18a3 3 0 0 1 1.87-.71l.25.01a39 39 0 0 1 7.26 2.13l.13.04 1.27.53a17 17 0 0 0 2.53.94l.68.15h.01l.4.09h.05l.04.02h.06a5 5 0 0 0 1.1.12 4.34 4.34 0 0 0 4.38-3.21 4 4 0 0 0-.67-3.2 5 5 0 0 0-2.92-1.96l-.47-.11-.76-.18a17 17 0 0 0-2.68-.25l-1.39-.08h-.07a39 39 0 0 1-7.53-1.25 4.3 4.3 0 0 1-1.7-1.66l-.02-.01-.1-.16-1.72-.5a55 55 0 0 0-8.83-38.15c.2-.2.5-.46.78-.7l.04-.04.02-.02.66-.6.02-.3a3 3 0 0 1 .78-2.1 40 40 0 0 1 6.3-4.42q.63-.37 1.22-.68a17 17 0 0 0 2.3-1.38q.28-.21.62-.5l.31-.25a5 5 0 0 0 1.84-3.05 4 4 0 0 0-.8-3.2 4 4 0 0 0-3.22-1.5 5 5 0 0 0-3.1 1.12l-.22.17-.02.02-.01.01-.69.55a18 18 0 0 0-1.9 1.96q-.42.5-.9 1l-.16.16a39 39 0 0 1-5.55 5.01 3 3 0 0 1-1.56.33q-.45 0-.79-.03h-.02l-.2-.02-1.62 1.15a56 56 0 0 0-15.98-11.67 55 55 0 0 0-19.2-5.33c-.04-.57-.1-1.6-.1-1.9l-.23-.2a3 3 0 0 1-1.16-1.91 39 39 0 0 1 .45-7.47l.03-.22.23-1.35a18 18 0 0 0 .35-2.68v-1.2a4.26 4.26 0 1 0-8.48 0v.11l-.01.36v.73a18 18 0 0 0 .35 2.68l.23 1.35v.07a40 40 0 0 1 .47 7.62 4.6 4.6 0 0 1-1.38 2.2l-.1 1.79a55 55 0 0 0-7.66 1.17 54.5 54.5 0 0 0-27.7 15.83c-.47-.32-1.3-.92-1.53-1.1l-.3.05a6 6 0 0 1-.86.1 2.6 2.6 0 0 1-1.36-.39 39 39 0 0 1-5.65-5.1l-.06-.06q-.48-.52-.9-1.02a18 18 0 0 0-1.89-1.94l-.7-.57-.04-.03-.2-.15a5 5 0 0 0-2.96-1.12h-.15a4 4 0 0 0-3.22 1.5 4 4 0 0 0-.79 3.2 5 5 0 0 0 1.83 3.05l.04.02.03.02.24.2c.2.17.45.37.63.5a17 17 0 0 0 2.3 1.4q.6.3 1.22.66a40 40 0 0 1 6.3 4.43 4.3 4.3 0 0 1 .83 2.25v.02q0 .1.03.17L56 71.82a55 55 0 0 0-8.65 38.24l-1.77.51-.17.23a5 5 0 0 1-1.65 1.61 39 39 0 0 1-7.51 1.24l-.1.01q-.7.06-1.38.08a17 17 0 0 0-2.68.26l-.78.18h-.04l-.3.08h-.04l-.04.02h-.03a5 5 0 0 0-2.92 1.96 4 4 0 0 0-.66 3.2 4.34 4.34 0 0 0 4.37 3.22 5 5 0 0 0 1.1-.12h.06l.05-.02.04-.01.27-.06.07-.01.75-.17a18 18 0 0 0 2.55-.94h.01q.6-.28 1.25-.52l.1-.04a39 39 0 0 1 7.29-2.14h.15a4.5 4.5 0 0 1 2.1.76l.18.1zm52.41 27.13a44 44 0 0 1-14.1-2.33l10.76-19.46h.02a3.8 3.8 0 0 1 3.16-1.97h.14a3.8 3.8 0 0 1 3.28 1.97h.08L116.01 144a45 45 0 0 1-14.13 2.31m23.72-6.88-8.57-20.7.03-.04a3.75 3.75 0 0 1 3.24-5.21h.16a4 4 0 0 1 .7.06l.04-.04 22.07 3.73a43.7 43.7 0 0 1-17.67 22.2m-47.4-.08a44 44 0 0 1-17.62-22.05l21.88-3.71.04.04a4 4 0 0 1 .68-.06h.05a3.74 3.74 0 0 1 3.38 5.2l.06.09zm23.65-29.15-6.14-2.95-1.52-6.62 4.25-5.28h6.82l4.24 5.3-1.52 6.6zm-43.66-3.26a43.7 43.7 0 0 1 6.2-27.63L81.03 94.2l-.02.1a3.74 3.74 0 0 1-1.47 6.41l-.01.08zm87.4-.07-21.45-6.18-.02-.09a3.74 3.74 0 0 1-1.47-6.42v-.05l16.55-14.82a44.5 44.5 0 0 1 6.39 27.56M91.46 84.62a3.7 3.7 0 0 1-2.2-.71l-.03.02L71 71a44 44 0 0 1 21.03-11.46 45 45 0 0 1 4.52-.78L95.29 81l-.1.05a3.73 3.73 0 0 1-3.73 3.57m20.73-.08a3.74 3.74 0 0 1-3.74-3.57h-.02l-1.26-22.2A44 44 0 0 1 132.57 71l-18.12 12.84-.06-.02a3.7 3.7 0 0 1-2.2.71" opacity="0.577" style="mix-blend-mode:color-burn;isolation:isolate" transform="rotate(24 -252.09 1040.9)"/><path id="Exclusion_1-6" fill="#c6c6c6" d="M25.8 81.5a5.6 5.6 0 0 1-4.37-2.1L1.22 54.29l-.32-.44a5.5 5.5 0 0 1-.76-4.25l7.2-31.33a6 6 0 0 1 1.08-2.22 6 6 0 0 1 1.95-1.54L39.57.55A6 6 0 0 1 41.7 0l.29-.01a6 6 0 0 1 2.42.55l29.2 13.94a6 6 0 0 1 1.94 1.54 6 6 0 0 1 1.08 2.22l7.22 31.34a5.5 5.5 0 0 1-1.08 4.68L62.57 79.4a5.6 5.6 0 0 1-4.37 2.08Zm-5.4-32.37a22.8 22.8 0 0 0 10.08 12.59l-.32.76a1.7 1.7 0 0 1 .15.99 17 17 0 0 1-1.58 2.84l-.32.46a7 7 0 0 0-.61.94l-.15.3-.07.17a2 2 0 0 0-.13 1.44 1.7 1.7 0 0 0 .87 1.04 2 2 0 0 0 .7.16 2 2 0 0 0 1.71-1.15l.07-.14.15-.3a7 7 0 0 0 .34-1.05l.16-.55q.2-.53.37-1.04a7 7 0 0 1 .98-2.1 1.4 1.4 0 0 1 .76-.37l.4-.71a22.6 22.6 0 0 0 16.12.04l.21.37v.02l.17.28.11.04a1.2 1.2 0 0 1 .78.5 16 16 0 0 1 1.18 2.89l.02.05.15.53a7 7 0 0 0 .35 1.07l.15.3v.02l.06.12A2 2 0 0 0 55 70.8a2 2 0 0 0 .7-.16 1.7 1.7 0 0 0 .86-1.03 2 2 0 0 0-.12-1.45l-.06-.13-.16-.34a7 7 0 0 0-.61-.93l-.33-.46a16 16 0 0 1-1.55-2.78 1.2 1.2 0 0 1 .08-.91l.05-.12a3 3 0 0 1-.2-.46l-.1-.25A22.7 22.7 0 0 0 63.63 49.1l.75.13.1-.07a1.3 1.3 0 0 1 .77-.3h.1a16 16 0 0 1 3 .88l.05.02.53.22a7 7 0 0 0 1.04.39l.28.06.17.03h.01l.02.01h.03a2 2 0 0 0 .45.05 1.8 1.8 0 0 0 1.8-1.32 1.7 1.7 0 0 0-.27-1.32 2 2 0 0 0-1.21-.81l-.2-.05-.3-.07a7 7 0 0 0-1.1-.1q-.29 0-.58-.03h-.03a16 16 0 0 1-3.1-.52 2 2 0 0 1-.7-.68l-.05-.07-.7-.21a22.7 22.7 0 0 0-3.64-15.73l.32-.29.01-.01.01-.01.28-.24v-.13a1.2 1.2 0 0 1 .32-.86 17 17 0 0 1 2.6-1.83l.5-.28a7 7 0 0 0 .95-.57l.26-.2.13-.1a2 2 0 0 0 .75-1.26 1.7 1.7 0 0 0-.32-1.32 1.7 1.7 0 0 0-1.33-.62 2 2 0 0 0-1.28.46l-.09.07v.01l-.3.23a8 8 0 0 0-.77.8l-.37.42-.07.07a16 16 0 0 1-2.3 2.06 1.3 1.3 0 0 1-.64.14l-.32-.02h-.1l-.66.47a23 23 0 0 0-6.59-4.8 23 23 0 0 0-7.91-2.2l-.04-.79-.1-.09a1.2 1.2 0 0 1-.48-.78 16 16 0 0 1 .19-3.08l.01-.1.1-.55a7 7 0 0 0 .15-1.1v-.5a1.76 1.76 0 1 0-3.5 0v.5a7 7 0 0 0 .14 1.1l.1.56v.03a16 16 0 0 1 .19 3.14 2 2 0 0 1-.57.9l-.04.74a23 23 0 0 0-3.16.48A22.5 22.5 0 0 0 25.5 26.6l-.63-.44-.13.02-.35.03a1 1 0 0 1-.56-.15 16 16 0 0 1-2.33-2.1l-.02-.03-.38-.42a7 7 0 0 0-.77-.8l-.3-.23-.01-.02-.08-.06a2 2 0 0 0-1.22-.46h-.07a1.7 1.7 0 0 0-1.32.62 1.7 1.7 0 0 0-.33 1.32 2 2 0 0 0 .76 1.26h.01l.01.01.1.09.27.2a7 7 0 0 0 .94.58q.25.12.5.27a16 16 0 0 1 2.6 1.83 2 2 0 0 1 .34.93l.01.08.56.5a22.6 22.6 0 0 0-3.56 15.76l-.74.21-.07.1a2 2 0 0 1-.67.66 16 16 0 0 1-3.1.51h-.04l-.57.03a7 7 0 0 0-1.1.1l-.32.08h-.02l-.13.03h-.04a2 2 0 0 0-1.2.8 1.7 1.7 0 0 0-.28 1.33 1.8 1.8 0 0 0 1.8 1.32 2 2 0 0 0 .45-.05h.06l.11-.03h.03l.31-.08a7 7 0 0 0 1.05-.38l.52-.22.05-.01a16 16 0 0 1 3-.88h.06a2 2 0 0 1 .86.31l.08.05zM42 60.33a18 18 0 0 1-5.81-.97l4.43-8.02a1.6 1.6 0 0 1 1.3-.82h.06a1.6 1.6 0 0 1 1.36.81h.03l4.45 8.04a19 19 0 0 1-5.82.95m9.78-2.85-3.53-8.53.01-.01a1.55 1.55 0 0 1 1.34-2.16h.07l.28.03.02-.02 9.1 1.54a18 18 0 0 1-7.29 9.15m-19.54-.03a18 18 0 0 1-7.27-9.09L34 46.83l.02.02.28-.03h.02a1.54 1.54 0 0 1 1.4 2.15l.02.03zm9.75-12.02-2.53-1.21-.63-2.73 1.75-2.18h2.82l1.75 2.18-.63 2.73zM24 44.1a18 18 0 0 1 2.55-11.39l6.87 6.14-.01.04a1.54 1.54 0 0 1-.6 2.64v.03zm36.04-.03-8.85-2.55v-.03a1.54 1.54 0 0 1-.6-2.65v-.02l6.81-6.11a18.3 18.3 0 0 1 2.63 11.36ZM37.7 34.89a1.5 1.5 0 0 1-.9-.3l-.02.01-7.52-5.33a18 18 0 0 1 8.67-4.72 19 19 0 0 1 1.86-.32l-.51 9.16-.04.02a1.54 1.54 0 0 1-1.54 1.48m8.54-.04a1.54 1.54 0 0 1-1.54-1.47l-.53-9.15a18 18 0 0 1 10.48 5.05l-7.47 5.3-.03-.01a1.5 1.5 0 0 1-.9.28" opacity="0.577" style="mix-blend-mode:color-burn;isolation:isolate" transform="rotate(38 282.37 1053.963)"/><path id="Exclusion_1-7" fill="#c6c6c6" d="M5.78 18.28a1.3 1.3 0 0 1-.98-.47L.27 12.17l-.07-.1a1.2 1.2 0 0 1-.17-.95L1.65 4.1a1 1 0 0 1 .24-.5 1 1 0 0 1 .44-.34L8.87.12A1 1 0 0 1 9.35 0h.07a1 1 0 0 1 .54.12l6.55 3.13a1 1 0 0 1 .43.35 1 1 0 0 1 .25.5l1.61 7.02a1.2 1.2 0 0 1-.24 1.05l-4.53 5.64a1.3 1.3 0 0 1-.98.46Zm-1.2-7.26a5 5 0 0 0 2.25 2.82l-.07.17a.4.4 0 0 1 .04.22 4 4 0 0 1-.36.64l-.07.1-.14.21-.03.07-.02.04a.5.5 0 0 0-.02.32.4.4 0 0 0 .19.23l.16.04a.4.4 0 0 0 .38-.26l.02-.03.03-.07.08-.23.03-.13.09-.23a2 2 0 0 1 .22-.47.3.3 0 0 1 .17-.08l.08-.16a5 5 0 0 0 3.62 0l.05.09.03.06h.03a.3.3 0 0 1 .17.12 4 4 0 0 1 .27.65v.01l.03.12.08.24.03.07.02.03a.4.4 0 0 0 .38.25l.16-.03a.4.4 0 0 0 .2-.23.5.5 0 0 0-.03-.33l-.02-.03-.03-.07-.14-.2-.07-.1a4 4 0 0 1-.35-.63.3.3 0 0 1 .02-.2l.01-.03-.04-.1-.03-.05a5 5 0 0 0 2.26-2.84l.17.02.03-.01a.3.3 0 0 1 .17-.07h.02a4 4 0 0 1 .67.2h.02l.11.05.24.09.06.01.04.01h.01l.1.01a.4.4 0 0 0 .4-.3.4.4 0 0 0-.06-.3.5.5 0 0 0-.27-.18l-.04-.01-.07-.02-.25-.02h-.13a4 4 0 0 1-.7-.12.4.4 0 0 1-.16-.16l-.01-.01-.16-.05a5 5 0 0 0-.82-3.52l.07-.07.06-.05v-.03a.3.3 0 0 1 .08-.2 4 4 0 0 1 .58-.4l.11-.07.22-.12.05-.05.03-.02a.5.5 0 0 0 .17-.29.4.4 0 0 0-.07-.3.4.4 0 0 0-.3-.13.5.5 0 0 0-.29.1l-.02.01-.06.05-.18.18-.08.1v.02a4 4 0 0 1-.51.46.3.3 0 0 1-.15.04h-.09l-.15.1a5 5 0 0 0-1.48-1.08 5 5 0 0 0-1.77-.5v-.17l-.03-.02a.3.3 0 0 1-.1-.18 4 4 0 0 1 .03-.69v-.02l.03-.12.03-.25v-.11a.4.4 0 1 0-.78 0v.11l.03.25.02.12a4 4 0 0 1 .04.7.4.4 0 0 1-.12.2l-.01.17a5 5 0 0 0-.71.11 5 5 0 0 0-2.56 1.47l-.15-.1h-.02l-.08.01-.13-.03a4 4 0 0 1-.52-.47l-.09-.1-.17-.18-.07-.05-.02-.02a.5.5 0 0 0-.27-.1h-.02a.4.4 0 0 0-.3.14.4.4 0 0 0-.07.3.5.5 0 0 0 .17.28l.02.02.06.05.21.13.11.06a4 4 0 0 1 .59.4.4.4 0 0 1 .07.22v.01l.13.11a5 5 0 0 0-.8 3.54l-.17.05-.01.02-.15.15a4 4 0 0 1-.7.11l-.12.01-.25.02-.07.02h-.05a.5.5 0 0 0-.27.19.4.4 0 0 0-.06.3.4.4 0 0 0 .4.3l.1-.01h.04l.08-.03.23-.08.12-.05a4 4 0 0 1 .68-.2h.01a.4.4 0 0 1 .2.07l.02.01.17-.03Zm4.84 2.5a4 4 0 0 1-1.3-.2l1-1.8a.4.4 0 0 1 .29-.19h.01a.4.4 0 0 1 .3.18l1 1.8a4 4 0 0 1-1.3.22Zm2.2-.63-.8-1.91a.35.35 0 0 1 .3-.48h.08l2.04.35a4 4 0 0 1-1.63 2.05Zm-4.39 0a4 4 0 0 1-1.63-2.04l2.03-.35h.06a.35.35 0 0 1 .31.48zm2.19-2.7-.57-.27-.14-.61.39-.5h.63l.4.5-.15.6zm-4.04-.3a4 4 0 0 1 .57-2.56L7.5 8.72a.35.35 0 0 1-.13.6zm8.08 0-1.98-.58a.35.35 0 0 1-.14-.6l1.53-1.37a4 4 0 0 1 .6 2.55Zm-5-2.06a.3.3 0 0 1-.2-.07l-1.68-1.2A4 4 0 0 1 8.5 5.51l.42-.08L8.8 7.5a.35.35 0 0 1-.35.33Zm1.92-.01a.35.35 0 0 1-.35-.33l-.12-2.06a4 4 0 0 1 2.35 1.14l-1.68 1.18a.3.3 0 0 1-.2.07" opacity="0.577" style="mix-blend-mode:color-burn;isolation:isolate" transform="rotate(66 -55.027 668.135)"/><circle id="Ellipse_51" cx="322" cy="322" r="322" fill="url(#radial-gradient-2)" opacity="0.888" transform="translate(-77 -13)"/></g></svg>