<svg xmlns="http://www.w3.org/2000/svg" xmlns:xlink="http://www.w3.org/1999/xlink" width="800" height="800" viewBox="0 0 800 800"><defs><radialGradient id="a" cx="2.411" cy="1.417" r="2.475" gradientTransform="translate(0 -0.007) scale(1 0.963)" gradientUnits="objectBoundingBox"><stop offset="0" stop-color="#3c9bcd"/><stop offset="1" stop-color="#e7eff3"/></radialGradient><radialGradient id="b" cx="0.5" cy="0.5" r="0.5" gradientUnits="objectBoundingBox"><stop offset="0" stop-color="#fff"/><stop offset="1" stop-color="#fff" stop-opacity="0"/></radialGradient><clipPath id="d"><rect width="800" height="800"/></clipPath></defs><g id="c" clip-path="url(#d)"><rect width="800" height="800" fill="url(#a)"/><circle cx="322" cy="322" r="322" transform="translate(-77 -13)" opacity="0.888" fill="url(#b)"/><g transform="translate(474.758 387.859)"><path d="M66.809,9.11a9.11,9.11,0,1,0-18.221,0V24.294A24.317,24.317,0,0,0,24.294,48.588H9.11a9.11,9.11,0,1,0,0,18.221H24.294V88.066H9.11a9.11,9.11,0,0,0,0,18.221H24.294v21.257H9.11a9.11,9.11,0,0,0,0,18.221H24.294a24.317,24.317,0,0,0,24.294,24.294v15.184a9.11,9.11,0,0,0,18.221,0V170.059H88.066v15.184a9.11,9.11,0,0,0,18.221,0V170.059h21.257v15.184a9.11,9.11,0,0,0,18.221,0V170.059a24.317,24.317,0,0,0,24.294-24.294h15.184a9.11,9.11,0,0,0,0-18.221H170.059V106.287h15.184a9.11,9.11,0,0,0,0-18.221H170.059V66.809h15.184a9.11,9.11,0,0,0,0-18.221H170.059a24.317,24.317,0,0,0-24.294-24.294V9.11a9.11,9.11,0,0,0-18.221,0V24.294H106.287V9.11a9.11,9.11,0,0,0-18.221,0V24.294H66.809Zm12.147,57.7a6.119,6.119,0,0,1,5.58,3.644l15.943,36.441,5.314,12.147a6.076,6.076,0,0,1-11.122,4.9L90.913,115.4H67l-3.72,8.5A6.076,6.076,0,0,1,52.156,119l5.314-12.147L73.414,70.415a6.078,6.078,0,0,1,5.58-3.644ZM85.6,103.25,78.956,88.028,72.313,103.25H85.6Zm41.945-36.441a6.091,6.091,0,0,1,6.074,6.074v48.588a6.074,6.074,0,0,1-12.147,0V72.882A6.091,6.091,0,0,1,127.544,66.809Z" transform="translate(56.771 56.771)" fill="#c6c6c6" style="mix-blend-mode:color-burn;isolation:isolate"/><circle cx="154" cy="154" r="154" transform="translate(0.242 0.141)" fill="#e0e0e0" style="mix-blend-mode:color-burn;isolation:isolate"/></g><g transform="translate(692.013 292.496)"><path d="M29.209,3.983a3.983,3.983,0,1,0-7.966,0v6.639A10.631,10.631,0,0,0,10.622,21.243H3.983a3.983,3.983,0,1,0,0,7.966h6.639V38.5H3.983a3.983,3.983,0,1,0,0,7.966h6.639v9.294H3.983a3.983,3.983,0,0,0,0,7.966h6.639A10.631,10.631,0,0,0,21.243,74.351V80.99a3.983,3.983,0,0,0,7.966,0V74.351H38.5V80.99a3.983,3.983,0,0,0,7.966,0V74.351h9.294V80.99a3.983,3.983,0,0,0,7.966,0V74.351A10.631,10.631,0,0,0,74.351,63.73H80.99a3.983,3.983,0,0,0,0-7.966H74.351V46.47H80.99a3.983,3.983,0,0,0,0-7.966H74.351V29.209H80.99a3.983,3.983,0,0,0,0-7.966H74.351A10.631,10.631,0,0,0,63.73,10.622V3.983a3.983,3.983,0,0,0-7.966,0v6.639H46.47V3.983a3.983,3.983,0,1,0-7.966,0v6.639H29.209ZM34.52,29.209A2.675,2.675,0,0,1,36.96,30.8l6.97,15.932,2.323,5.311a2.657,2.657,0,1,1-4.863,2.141l-1.643-3.734H29.292L27.666,54.17A2.657,2.657,0,1,1,22.8,52.029l2.323-5.311L32.1,30.786a2.657,2.657,0,0,1,2.44-1.593Zm2.9,15.932-2.9-6.655-2.9,6.655h5.809ZM55.763,29.209a2.663,2.663,0,0,1,2.655,2.655V53.108a2.655,2.655,0,0,1-5.311,0V31.865A2.663,2.663,0,0,1,55.763,29.209Z" transform="translate(24.821 24.821)" fill="#c6c6c6" style="mix-blend-mode:color-burn;isolation:isolate"/><circle cx="67.5" cy="67.5" r="67.5" transform="translate(-0.013 -0.496)" fill="#e0e0e0" style="mix-blend-mode:color-burn;isolation:isolate"/></g><g transform="translate(561.516 250.91)"><path d="M29.209,3.983a3.983,3.983,0,1,0-7.966,0v6.639A10.631,10.631,0,0,0,10.622,21.243H3.983a3.983,3.983,0,1,0,0,7.966h6.639V38.5H3.983a3.983,3.983,0,1,0,0,7.966h6.639v9.294H3.983a3.983,3.983,0,0,0,0,7.966h6.639A10.631,10.631,0,0,0,21.243,74.351V80.99a3.983,3.983,0,0,0,7.966,0V74.351H38.5V80.99a3.983,3.983,0,0,0,7.966,0V74.351h9.294V80.99a3.983,3.983,0,0,0,7.966,0V74.351A10.631,10.631,0,0,0,74.351,63.73H80.99a3.983,3.983,0,0,0,0-7.966H74.351V46.47H80.99a3.983,3.983,0,0,0,0-7.966H74.351V29.209H80.99a3.983,3.983,0,0,0,0-7.966H74.351A10.631,10.631,0,0,0,63.73,10.622V3.983a3.983,3.983,0,0,0-7.966,0v6.639H46.47V3.983a3.983,3.983,0,1,0-7.966,0v6.639H29.209ZM34.52,29.209A2.675,2.675,0,0,1,36.96,30.8l6.97,15.932,2.323,5.311a2.657,2.657,0,1,1-4.863,2.141l-1.643-3.734H29.292L27.666,54.17A2.657,2.657,0,1,1,22.8,52.029l2.323-5.311L32.1,30.786a2.657,2.657,0,0,1,2.44-1.593Zm2.9,15.932-2.9-6.655-2.9,6.655h5.809ZM55.763,29.209a2.663,2.663,0,0,1,2.655,2.655V53.108a2.655,2.655,0,0,1-5.311,0V31.865A2.663,2.663,0,0,1,55.763,29.209Z" transform="translate(24.821 24.821)" fill="#c6c6c6" style="mix-blend-mode:color-burn;isolation:isolate"/><ellipse cx="67" cy="67.5" rx="67" ry="67.5" transform="translate(0.484 0.09)" fill="#e0e0e0" style="mix-blend-mode:color-burn;isolation:isolate"/></g><g transform="translate(684.125 231.55)"><path d="M14.6,1.992a1.992,1.992,0,1,0-3.983,0V5.311a5.316,5.316,0,0,0-5.311,5.311H1.992a1.992,1.992,0,1,0,0,3.983H5.311v4.647H1.992a1.992,1.992,0,1,0,0,3.983H5.311v4.647H1.992a1.992,1.992,0,0,0,0,3.983H5.311a5.316,5.316,0,0,0,5.311,5.311v3.319a1.992,1.992,0,0,0,3.983,0V37.176h4.647v3.319a1.992,1.992,0,0,0,3.983,0V37.176h4.647v3.319a1.992,1.992,0,0,0,3.983,0V37.176a5.316,5.316,0,0,0,5.311-5.311h3.319a1.992,1.992,0,0,0,0-3.983H37.176V23.235h3.319a1.992,1.992,0,0,0,0-3.983H37.176V14.6h3.319a1.992,1.992,0,0,0,0-3.983H37.176a5.316,5.316,0,0,0-5.311-5.311V1.992a1.992,1.992,0,0,0-3.983,0V5.311H23.235V1.992a1.992,1.992,0,1,0-3.983,0V5.311H14.6ZM17.26,14.6a1.338,1.338,0,0,1,1.22.8l3.485,7.966,1.162,2.655a1.328,1.328,0,0,1-2.431,1.07l-.822-1.867H14.646l-.813,1.859a1.328,1.328,0,1,1-2.431-1.07l1.162-2.655,3.485-7.966a1.329,1.329,0,0,1,1.22-.8Zm1.452,7.966L17.26,19.243l-1.452,3.328h2.9ZM27.882,14.6a1.332,1.332,0,0,1,1.328,1.328V26.554a1.328,1.328,0,0,1-2.655,0V15.932A1.332,1.332,0,0,1,27.882,14.6Z" transform="translate(12.41 12.41)" fill="#c6c6c6" style="mix-blend-mode:color-burn;isolation:isolate"/><ellipse cx="34" cy="33.5" rx="34" ry="33.5" transform="translate(-0.125 0.45)" fill="#e0e0e0" style="mix-blend-mode:color-burn;isolation:isolate"/></g><g transform="translate(765.148 420.841)"><path d="M16,2.182a2.182,2.182,0,1,0-4.364,0V5.819a5.825,5.825,0,0,0-5.819,5.819H2.182a2.182,2.182,0,1,0,0,4.364H5.819v5.092H2.182a2.182,2.182,0,1,0,0,4.364H5.819v5.092H2.182a2.182,2.182,0,0,0,0,4.364H5.819a5.825,5.825,0,0,0,5.819,5.819v3.637a2.182,2.182,0,0,0,4.364,0V40.735h5.092v3.637a2.182,2.182,0,0,0,4.364,0V40.735h5.092v3.637a2.182,2.182,0,0,0,4.364,0V40.735a5.825,5.825,0,0,0,5.819-5.819h3.637a2.182,2.182,0,0,0,0-4.364H40.735V25.459h3.637a2.182,2.182,0,0,0,0-4.364H40.735V16h3.637a2.182,2.182,0,0,0,0-4.364H40.735a5.825,5.825,0,0,0-5.819-5.819V2.182a2.182,2.182,0,0,0-4.364,0V5.819H25.459V2.182a2.182,2.182,0,1,0-4.364,0V5.819H16ZM18.913,16a1.466,1.466,0,0,1,1.337.873L24.068,25.6l1.273,2.91a1.455,1.455,0,0,1-2.664,1.173l-.9-2.046H16.049l-.891,2.037a1.455,1.455,0,1,1-2.664-1.173l1.273-2.91,3.819-8.729a1.456,1.456,0,0,1,1.337-.873ZM20.5,24.732l-1.591-3.646-1.591,3.646H20.5ZM30.551,16a1.459,1.459,0,0,1,1.455,1.455V29.1a1.455,1.455,0,1,1-2.91,0V17.458A1.459,1.459,0,0,1,30.551,16Z" transform="translate(13.599 13.599)" fill="#c6c6c6" style="mix-blend-mode:color-burn;isolation:isolate"/><circle cx="37" cy="37" r="37" transform="translate(-0.148 0.159)" fill="#e0e0e0" style="mix-blend-mode:color-burn;isolation:isolate"/></g><g transform="translate(657.596 162)"><path d="M14.6,1.992a1.992,1.992,0,1,0-3.983,0V5.311a5.316,5.316,0,0,0-5.311,5.311H1.992a1.992,1.992,0,1,0,0,3.983H5.311v4.647H1.992a1.992,1.992,0,1,0,0,3.983H5.311v4.647H1.992a1.992,1.992,0,0,0,0,3.983H5.311a5.316,5.316,0,0,0,5.311,5.311v3.319a1.992,1.992,0,0,0,3.983,0V37.176h4.647v3.319a1.992,1.992,0,0,0,3.983,0V37.176h4.647v3.319a1.992,1.992,0,0,0,3.983,0V37.176a5.316,5.316,0,0,0,5.311-5.311h3.319a1.992,1.992,0,0,0,0-3.983H37.176V23.235h3.319a1.992,1.992,0,0,0,0-3.983H37.176V14.6h3.319a1.992,1.992,0,0,0,0-3.983H37.176a5.316,5.316,0,0,0-5.311-5.311V1.992a1.992,1.992,0,0,0-3.983,0V5.311H23.235V1.992a1.992,1.992,0,1,0-3.983,0V5.311H14.6ZM17.26,14.6a1.338,1.338,0,0,1,1.22.8l3.485,7.966,1.162,2.655a1.328,1.328,0,0,1-2.431,1.07l-.822-1.867H14.646l-.813,1.859a1.328,1.328,0,1,1-2.431-1.07l1.162-2.655,3.485-7.966a1.329,1.329,0,0,1,1.22-.8Zm1.452,7.966L17.26,19.243l-1.452,3.328h2.9ZM27.882,14.6a1.332,1.332,0,0,1,1.328,1.328V26.554a1.328,1.328,0,0,1-2.655,0V15.932A1.332,1.332,0,0,1,27.882,14.6Z" transform="translate(12.41 12.41)" fill="#c6c6c6" style="mix-blend-mode:color-burn;isolation:isolate"/><circle cx="33.5" cy="33.5" r="33.5" transform="translate(0.404)" fill="#e0e0e0" style="mix-blend-mode:color-burn;isolation:isolate"/></g></g></svg>