<svg xmlns="http://www.w3.org/2000/svg" xmlns:xlink="http://www.w3.org/1999/xlink" width="1920" height="701" viewBox="0 0 1920 701"><defs><linearGradient id="a" x1="3.14" x2="-0.03" y1="-1.956" y2="1.026" gradientUnits="objectBoundingBox"><stop offset="0" stop-color="#195f8c" stop-opacity="0.392"/><stop offset="1" stop-color="#195f8c" stop-opacity="0"/></linearGradient><radialGradient id="b" cx="0.5" cy="0.5" r="0.5" gradientUnits="objectBoundingBox"><stop offset="0" stop-color="#195f8c" stop-opacity="0.306"/><stop offset="1" stop-color="#195f8c" stop-opacity="0"/></radialGradient><clipPath id="d"><path fill="#fff" d="M0 0h559.77v559.77H0z" style="mix-blend-mode:color-burn;isolation:isolate"/></clipPath><clipPath id="e"><path fill="#fff" d="M0 0h512.7v445.3H0z"/></clipPath><clipPath id="g"><path d="M0 0h1920v701H0z"/></clipPath></defs><g id="f" clip-path="url(#g)"><path fill="#fff" d="M0 0h1920v701H0z"/><g transform="translate(-190 -242)"><path fill="url(#a)" d="M0 0h1920v701H0z" transform="translate(190 242)"/><ellipse cx="1149" cy="924.5" fill="url(#b)" rx="1149" ry="924.5" transform="translate(-1091 -332)"/><ellipse cx="713" cy="573.5" fill="url(#b)" rx="713" ry="573.5" transform="translate(1360 370)"/></g><g style="mix-blend-mode:color-burn;isolation:isolate" transform="translate(1028.622 -357)"><path fill="#898989" d="M506.4 119.3c-3.17-10.15-10.79-18.4-20.3-23.47L292.53 3.17C287.46.64 281.75 0 276.67 0s-10.78 0-15.86 1.27L67.25 94.56a34.1 34.1 0 0 0-19.04 23.48L.61 326.82A40 40 0 0 0 7.6 357.3l133.9 165.63a46.2 46.2 0 0 0 29.2 13.33h213.22c11.43 1.27 22.21-3.81 29.2-13.33l133.9-165.63a43.3 43.3 0 0 0 7.6-30.47z"/><path fill="#fff" d="M476.58 318.58c-.64 0-1.27 0-1.27-.64s-1.27-.63-2.54-.63a31 31 0 0 0-7.61-.64 8 8 0 0 1-3.81-.63h-.64a128 128 0 0 1-21.57-3.81 7.7 7.7 0 0 1-4.45-4.44l-5.07-1.27c2.54-18.4 1.27-37.45-2.54-55.85a172 172 0 0 0-22.21-52.04l3.8-3.8v-.64c0-1.9.64-4.44 1.9-5.71a114 114 0 0 1 17.77-12.7l3.81-1.9c2.54-1.26 4.44-2.53 6.98-3.8.64-.64 1.27-.64 1.9-1.27s0-.64 0-1.27c5.72-4.44 6.98-12.06 2.54-17.77a12 12 0 0 0-8.88-4.44 15 15 0 0 0-8.88 3.17l-.64.64c-.63.63-1.26 1.27-1.9 1.27a41 41 0 0 0-5.07 5.7c-.64 1.28-1.9 1.9-2.54 2.54a84 84 0 0 1-15.87 13.97 9 9 0 0 1-3.8 1.27 3.8 3.8 0 0 1-2.54-.64h-.64l-5.07 3.17c-5.08-5.07-10.8-10.15-15.87-15.23-23.48-18.4-52.67-29.82-82.5-33l-.63-5.07v.63c-1.9-1.27-2.54-3.17-3.18-5.08 0-6.98 0-13.96 1.27-21.57v-.64c0-1.27.64-2.54.64-3.8.63-2.55.63-5.08 1.27-7.62v-3.81c.63-6.35-4.45-12.7-10.8-13.33-3.8-.63-7.6 1.27-10.78 4.45a12.5 12.5 0 0 0-3.8 8.88v3.17a32 32 0 0 0 1.26 7.62 8 8 0 0 1 .64 3.8v.64c1.27 6.98 1.27 13.96 1.27 21.58-.64 1.9-1.27 3.8-3.18 5.07v1.27l-.63 5.08c-6.98.63-13.96 1.9-21.58 3.17-29.83 6.35-57.11 22.21-78.06 44.43l-3.8-2.54h-.64c-.64 0-1.27.63-2.54.63a9 9 0 0 1-3.8-1.27 117 117 0 0 1-15.87-14.6c-.64-1.27-1.9-1.9-2.54-2.54-1.9-1.9-3.17-3.8-5.08-5.7-.63-.64-1.27-.64-1.9-1.28l-.63-.63a15 15 0 0 0-8.89-3.17c-3.8 0-6.98 1.26-8.88 4.44a13.65 13.65 0 0 0 2.53 17.77.6.6 0 0 1 .63.64s1.27 1.27 1.9 1.27a69 69 0 0 0 6.99 3.8l3.8 1.9c6.35 3.81 12.7 7.62 17.77 12.7 1.27 1.27 2.54 3.8 1.9 5.7v-.63l3.81 3.81c-.63 1.27-1.27 1.9-1.9 3.17-19.67 31.1-27.92 67.9-22.21 104.08l-5.08 1.27a.6.6 0 0 1-.63.63c-.64 1.9-2.54 3.18-4.44 4.45a118 118 0 0 1-21.58 3.8 8 8 0 0 0-3.81.64c-2.54 0-5.08.63-7.61.63-.64 0-1.27.64-2.54.64-.64 0-.64 0-1.27.63a12.4 12.4 0 0 0-10.16 14.6 11.8 11.8 0 0 0 12.7 8.89 5.7 5.7 0 0 0 3.17-.64c.63 0 .63 0 .63-.63s1.9 0 2.54 0c2.54-.64 5.08-1.9 6.98-2.54a9 9 0 0 1 3.81-1.27h.64a113 113 0 0 1 20.94-5.7h.64a7.2 7.2 0 0 1 5.07 1.9.6.6 0 0 1 .64.63l5.71-.64a153 153 0 0 0 52.04 74.25c5.71 4.44 10.79 8.25 17.13 11.42l-3.17 4.45a.6.6 0 0 0 .64.63 7.5 7.5 0 0 1 .63 6.35 104 104 0 0 1-10.15 18.4v.63a11 11 0 0 1-2.54 3.17c-1.27 1.27-2.54 3.81-4.44 6.35-.64.64-.64 1.27-1.27 1.9a.6.6 0 0 1-.64.64 13.06 13.06 0 0 0 5.08 17.13 12 12 0 0 0 4.44 1.27c5.08 0 9.52-3.17 12.06-7.62a.6.6 0 0 1 .63-.63c0-.64.64-1.27 1.27-1.9.64-2.54 1.9-4.44 2.54-6.98l1.27-3.81c1.9-6.98 5.08-13.33 8.25-19.67a10 10 0 0 1 5.08-3.81c.63 0 .63 0 .63-.64l2.54-5.07a149 149 0 0 0 55.21 10.15 127 127 0 0 0 34.27-4.44c6.98-1.27 13.96-3.8 20.3-5.71l2.55 4.44c.63 0 .63 0 .63.63a10 10 0 0 1 5.08 3.81c3.17 6.35 6.34 12.7 8.25 19.67v.64l1.27 3.8a23 23 0 0 0 2.54 6.99c.63.63.63 1.27 1.26 1.9a.6.6 0 0 0 .64.63c2.54 4.45 6.98 7.62 12.06 7.62 1.9 0 3.17-.64 5.07-1.27a10.6 10.6 0 0 0 5.7-6.97 16.3 16.3 0 0 0-.63-9.52.6.6 0 0 0-.63-.64c0-.63-.64-1.27-1.27-1.9a23 23 0 0 0-4.44-6.34 11 11 0 0 0-2.54-3.18v-1.27a75 75 0 0 1-10.15-18.4 7.5 7.5 0 0 1 .63-6.34.6.6 0 0 1 .64-.64l-1.9-5.08c32.36-19.67 57.11-50.13 68.53-86.3l5.08.63a.6.6 0 0 0 .64-.63 7.2 7.2 0 0 1 5.07-1.9h.64a107 107 0 0 1 20.3 5.7h.64a9 9 0 0 0 3.8 1.28c2.55 1.27 4.45 2.54 6.99 3.17.64 0 1.27.64 2.54.64.63 0 .63 0 1.27.63a5.7 5.7 0 0 0 3.17.64 13.8 13.8 0 0 0 12.7-8.89 15 15 0 0 0-11.43-13.33m-183.4-19.68-17.14 8.25-17.14-8.25-4.44-18.4 12.06-15.23h19.04l12.06 15.23Zm103.44-41.25a122 122 0 0 1 2.54 39.98l-60.3-17.13c-5.7-1.27-8.88-6.98-7.6-12.7a10 10 0 0 1 2.53-4.43l47.6-43.16a129 129 0 0 1 15.23 37.44m-34.27-60.92-52.04 36.8c-4.44 2.55-10.79 1.9-13.96-2.53a5.8 5.8 0 0 1-1.9-4.44l-3.81-64.1a119.4 119.4 0 0 1 71.71 34.27m-114.87-32.37 12.7-2.53-3.18 63.46c0 5.7-5.07 10.15-10.79 10.15-1.9 0-3.17-.63-5.07-1.27l-52.68-37.44a126 126 0 0 1 59.02-32.37m-77.42 55.85 46.96 41.88a10.2 10.2 0 0 1 1.27 14.6c-1.27 1.9-2.54 2.54-5.08 3.18l-61.55 17.76a133.6 133.6 0 0 1 18.4-77.42m-10.79 107.25 62.83-10.79c5.08 0 10.15 3.17 10.79 8.25a7.5 7.5 0 0 1-.64 6.35l-24.11 58.38a125 125 0 0 1-48.87-62.19m144.06 78.7a128 128 0 0 1-27.29 3.16c-13.33 0-27.29-2.53-39.98-6.34l31.1-56.48a9.84 9.84 0 0 1 12.7-2.54 32 32 0 0 1 5.07 4.44l30.46 55.21a103 103 0 0 0-12.06 2.54m77.42-55.22a121 121 0 0 1-38.07 38.08l-24.75-59.66a10.3 10.3 0 0 1 5.7-12.06 19 19 0 0 1 5.72-1.27l63.46 10.79c-3.17 8.89-6.98 17.14-12.06 24.12"/></g><g style="mix-blend-mode:color-burn;isolation:isolate" transform="rotate(-25.97 1139.242 -2449.675)"><path fill="#898989" d="M829.24 195.37c-5.2-16.63-17.67-30.14-33.26-38.45L479.03 5.2c-8.3-4.16-17.66-5.2-25.97-5.2s-17.67 0-25.98 2.08L110.13 154.84a55.8 55.8 0 0 0-31.18 38.45L1.01 535.18a65.6 65.6 0 0 0 11.43 49.88l219.27 271.22c12.47 12.47 30.14 20.79 47.8 21.83h349.17c18.7 2.07 36.37-6.24 47.8-21.83l219.26-271.22a71 71 0 0 0 12.47-49.88z"/><g clip-path="url(#d)" style="isolation:isolate" transform="rotate(20 -84.66 854.314)"><g clip-path="url(#e)" transform="translate(25.935 34.449)"><path fill="#fff" d="M18.08 395.33v-1.77l21.26-7.27c14.35-4.94 22.37-10.81 22.37-25.54 0-12.03-9.32-20.23-24.61-20.23-18.64 0-30.76 10.16-32.81 24.05L.56 391.04a56 56 0 0 0 0 6.34c0 12.5 8.1 20.14 25.82 20.14h23.77l2.24-15.76H28.15c-6.8 0-10.07-2.14-10.07-6.52M22 365.69c.93-6.72 5.87-9.33 13.33-9.33 4.94 0 9.32 1.87 9.32 6.06s-1.4 6.25-6.43 7.93l-17.43 6.06Zm79.89-53.79H72.6l-2.33 15.66h11.1l-10.26 74.3H58.26l-2.24 15.75h43.72l2.33-15.75H89.3Zm223.25-2.14h-18.18l-2.8 19.76h18.18Zm-4.29 30.85H291.4l-2.24 15.66h11.19L294 401.86h-12.77L279 417.6h43.81l2.33-15.75h-12.96Zm45.77-.09c-17.43 0-31.41 7.92-31.41 23.12 0 22.37 30.67 19.57 30.67 30.95 0 6.52-6.53 7.27-12.03 7.27h-23.12l-2.23 15.75h23.86c20.32 0 32.34-10.25 32.34-25.35 0-22.94-30.85-20.89-30.85-30.77 0-3.35 3.54-5.4 11.28-5.4h20.6l2.24-15.57Zm-159.68 0c-17.34 0-31.41 7.92-31.41 23.12 0 22.37 30.67 19.58 30.67 30.95 0 6.52-6.44 7.27-12.03 7.27h-23.21l-2.24 15.66h23.5c20.31 0 32.34-10.26 32.34-25.36 0-22.93-30.86-20.88-30.86-30.76 0-3.35 3.55-5.4 11.28-5.4h20.6l2.24-15.57Zm284.41 0c-17.34 0-31.42 7.92-31.42 23.12 0 22.37 30.67 19.58 30.67 30.95 0 6.52-6.43 7.27-12.02 7.27h-23.22l-2.14 15.66h23.96c20.32 0 32.34-10.26 32.34-25.36 0-22.93-30.76-20.88-30.76-30.76 0-3.35 3.54-5.4 11.19-5.4h20.6l2.33-15.48Zm-47.45.09-23.21 48.66-9.6-48.65h-19.2l16.3 72.52-16.12 32.16h18.27l52.86-104.7Zm-288.23-.09-1.58 6.06a21.2 21.2 0 0 0-15.57-6.06 27.97 27.97 0 0 0-27.97 24.98l-3.82 27.13a33 33 0 0 0 0 4.1 20.04 20.04 0 0 0 21.82 20.79 25 25 0 0 0 17.15-6.25v6.25H162l11-77Zm-5.6 26.85-3.62 25.82a12 12 0 0 1-12.68 8.67c-5.69 0-9.32-2.8-9.32-7.55a37 37 0 0 1 .65-6.16l3.54-23.3a11.37 11.37 0 0 1 12.4-8.76c5.6 0 9.32 2.99 9.32 7.55a27 27 0 0 1 0 3.73m107.1 30.2a38 38 0 0 1 .47-4.57l5.22-37.28h14.45l2.24-15.57h-14.45l2.33-16.78h-18.09l-2.23 16.78h-14.08L231 355.72h14.08l-5.41 38.68c0 2.33-.65 4.94-.65 6.43 0 11.1 6.52 16.4 22.18 16.4h12.4l2.52-15.37h-9.32c-7.28 0-9.33-1.22-9.33-4.2M132.93 278.25c4.47-29.83 25.35-134.6 97.5-134.6a77 77 0 0 1 12.96 1.02c22.84 4.94 37.28 20.79 36.63 40.46-.84 31.6-40.08 74.57-147.1 93.21"/><path fill="#fff" d="M239.57 255.13c36.44-21.34 51.64-47.16 52.29-69.72.65-25.64-17.43-46.14-46.14-52.39a93 93 0 0 0-15-1.21c-38.5 0-63.86 24.51-80.46 53.97 20.89-50.43 56.87-99.18 116.53-99.18a127 127 0 0 1 19.38 1.58c34.3 7.46 55.93 31.51 55.19 61.34-.93 33.1-29.83 74.57-102.54 105.61"/><path fill="#fff" d="M432.8 92.84c-1.4 49.69-45.76 111.86-157.25 157.63a250 250 0 0 0 21.53-13.7c35.61-25.54 55.93-56.4 56.49-86.97.93-35.8-24.42-64.5-64.7-73.17a140 140 0 0 0-22.08-1.87c-55.93 0-100.96 38.4-130.04 110.84a498 498 0 0 1 12.77-35.61C189.88 50.43 248.14 0 323.18 0a185 185 0 0 1 27.97 2.24c50.61 11 82.59 46.6 81.38 90.6"/></g></g></g><g style="mix-blend-mode:color-burn;isolation:isolate" transform="translate(928 470.492)"><path fill="#898989" d="M412.48 97.18c-2.58-8.27-8.78-15-16.54-19.13L238.28 2.6A29 29 0 0 0 225.36 0c-4.13 0-8.79 0-12.92 1.03L54.78 77.02a27.8 27.8 0 0 0-15.5 19.13L.5 266.2a32.6 32.6 0 0 0 5.69 24.81l109.07 134.92a37.6 37.6 0 0 0 23.78 10.85h173.68c9.3 1.03 18.09-3.1 23.78-10.85l109.07-134.92a35.3 35.3 0 0 0 6.2-24.81z"/><path fill="#fff" d="M388.19 259.49c-.52 0-1.04 0-1.04-.52s-1.03-.51-2.06-.51a25 25 0 0 0-6.2-.52 6.6 6.6 0 0 1-3.1-.52h-.52a105 105 0 0 1-17.58-3.1 6.2 6.2 0 0 1-3.61-3.62l-4.14-1.03c2.07-14.99 1.03-30.5-2.07-45.49a140 140 0 0 0-18.09-42.38l3.1-3.1v-.52a7.2 7.2 0 0 1 1.55-4.65 93 93 0 0 1 14.48-10.34l3.1-1.55c2.06-1.04 3.61-2.07 5.68-3.1.52-.52 1.04-.52 1.55-1.04s0-.51 0-1.03c4.65-3.62 5.69-9.82 2.07-14.47a10 10 0 0 0-7.24-3.62 12.4 12.4 0 0 0-7.23 2.58l-.52.52c-.52.52-1.03 1.03-1.55 1.03a33 33 0 0 0-4.14 4.66c-.51 1.03-1.55 1.55-2.06 2.06a68 68 0 0 1-12.93 11.37 7 7 0 0 1-3.1 1.03 3 3 0 0 1-2.07-.51h-.51l-4.14 2.58c-4.13-4.13-8.79-8.27-12.92-12.4a132.5 132.5 0 0 0-67.2-26.88l-.52-4.14v.52c-1.55-1.04-2.07-2.59-2.58-4.14a103 103 0 0 1 1.03-17.57v-.52c0-1.03.52-2.07.52-3.1.52-2.07.52-4.13 1.03-6.2v-3.1a10.23 10.23 0 0 0-8.79-10.85c-3.1-.52-6.2 1.03-8.78 3.61a10.2 10.2 0 0 0-3.1 7.24v2.58a26 26 0 0 0 1.03 6.2 6.6 6.6 0 0 1 .52 3.1v.52c1.03 5.68 1.03 11.37 1.03 17.57-.51 1.55-1.03 3.1-2.58 4.14v1.03l-.52 4.14c-5.69.51-11.37 1.55-17.57 2.58a123 123 0 0 0-63.59 36.19l-3.1-2.07h-.51c-.52 0-1.04.52-2.07.52a7 7 0 0 1-3.1-1.04 95 95 0 0 1-12.93-11.88c-.51-1.04-1.55-1.56-2.07-2.07-1.55-1.55-2.58-3.1-4.13-4.65-.52-.52-1.03-.52-1.55-1.04l-.52-.52a12.4 12.4 0 0 0-7.24-2.58c-3.1 0-5.68 1.03-7.23 3.62a11.1 11.1 0 0 0 2.07 14.47.5.5 0 0 1 .51.52s1.04 1.03 1.55 1.03a56 56 0 0 0 5.69 3.1l3.1 1.55c5.17 3.1 10.34 6.2 14.47 10.34 1.04 1.03 2.07 3.1 1.55 4.65v-.52l3.1 3.1c-.51 1.04-1.03 1.55-1.55 2.59-16.02 25.33-22.74 55.3-18.09 84.77l-4.13 1.04a.5.5 0 0 1-.52.51c-.52 1.55-2.07 2.59-3.62 3.62a96 96 0 0 1-17.57 3.1 6.6 6.6 0 0 0-3.1.52c-2.07 0-4.14.52-6.2.52-.52 0-1.04.51-2.07.51-.52 0-.52 0-1.04.52a10.1 10.1 0 0 0-8.27 11.89 9.6 9.6 0 0 0 10.34 7.24 4.7 4.7 0 0 0 2.59-.52c.51 0 .51 0 .51-.52s1.55 0 2.07 0c2.07-.52 4.14-1.55 5.69-2.07a7 7 0 0 1 3.1-1.03h.51a92 92 0 0 1 17.06-4.65h.52a6 6 0 0 1 4.13 1.55.5.5 0 0 1 .52.52l4.65-.52a125 125 0 0 0 42.4 60.48 82 82 0 0 0 13.95 9.3l-2.59 3.62a.5.5 0 0 0 .52.51 6.1 6.1 0 0 1 .52 5.17 85 85 0 0 1-8.27 15v.5a9 9 0 0 1-2.07 2.6c-1.04 1.03-2.07 3.1-3.62 5.16-.52.52-.52 1.04-1.03 1.55a.5.5 0 0 1-.52.52 10.64 10.64 0 0 0 4.13 13.96 10 10 0 0 0 3.62 1.03 11.6 11.6 0 0 0 9.82-6.2.5.5 0 0 1 .52-.52c0-.51.52-1.03 1.03-1.55.52-2.06 1.55-3.61 2.07-5.68l1.04-3.1c1.55-5.69 4.13-10.86 6.72-16.03a8 8 0 0 1 4.13-3.1c.52 0 .52 0 .52-.51l2.07-4.14a122 122 0 0 0 44.97 8.27 104 104 0 0 0 27.91-3.62c5.69-1.03 11.37-3.1 16.54-4.65l2.07 3.62c.52 0 .52 0 .52.52a8 8 0 0 1 4.13 3.1c2.59 5.17 5.17 10.34 6.72 16.02v.52l1.04 3.1a19 19 0 0 0 2.06 5.68c.52.52.52 1.04 1.04 1.55a.5.5 0 0 0 .51.52 11.6 11.6 0 0 0 9.82 6.2 12 12 0 0 0 4.14-1.03 8.7 8.7 0 0 0 4.65-5.69 13.3 13.3 0 0 0-.51-7.75.5.5 0 0 0-.52-.52c0-.52-.52-1.03-1.04-1.55a19 19 0 0 0-3.61-5.17 9 9 0 0 0-2.07-2.58v-1.04a61 61 0 0 1-8.27-14.99 6.1 6.1 0 0 1 .51-5.17.5.5 0 0 1 .52-.51l-1.55-4.14c26.36-16.02 46.52-40.83 55.83-70.3l4.13.52a.5.5 0 0 0 .52-.52 6 6 0 0 1 4.13-1.55h.52a87 87 0 0 1 16.54 4.65h.52a7 7 0 0 0 3.1 1.04 28 28 0 0 0 5.69 2.58c.51 0 1.03.52 2.06.52.52 0 .52 0 1.04.52a4.7 4.7 0 0 0 2.58.51 11.2 11.2 0 0 0 10.34-7.23 12.2 12.2 0 0 0-9.3-10.86ZM238.8 243.47l-13.96 6.72-13.95-6.72-3.62-15 9.82-12.4h15.5l9.83 12.4Zm84.26-33.6a99 99 0 0 1 2.06 32.56l-49.1-13.96a8.45 8.45 0 0 1-6.2-10.33 8.3 8.3 0 0 1 2.06-3.62l38.77-35.15a105 105 0 0 1 12.4 30.5Zm-27.92-49.63-42.38 29.98c-3.62 2.07-8.8 1.55-11.38-2.06a4.7 4.7 0 0 1-1.55-3.62l-3.1-52.21a97.3 97.3 0 0 1 58.41 27.91m-93.56-26.36 10.34-2.07-2.58 51.7c0 4.65-4.14 8.27-8.79 8.27a12 12 0 0 1-4.14-1.04l-42.9-30.5a102.7 102.7 0 0 1 48.07-26.36m-63.06 45.49 38.25 34.11a8.3 8.3 0 0 1 1.04 11.9c-1.04 1.55-2.07 2.06-4.14 2.58l-50.14 14.47a109 109 0 0 1 15-63.06m-8.79 87.36 51.18-8.79c4.13 0 8.27 2.59 8.78 6.72a6.1 6.1 0 0 1-.51 5.17l-19.65 47.56a101.7 101.7 0 0 1-39.8-50.66m117.34 64.1a105 105 0 0 1-22.23 2.59 116 116 0 0 1-32.56-5.17l25.33-46.02a8 8 0 0 1 10.33-2.07 26 26 0 0 1 4.14 3.62l24.81 44.97a84 84 0 0 0-9.82 2.07Zm63.06-44.97a99 99 0 0 1-31 31l-20.17-48.58a8.4 8.4 0 0 1 4.65-9.82 15 15 0 0 1 4.66-1.04l51.69 8.79a78 78 0 0 1-9.83 19.64Z"/></g></g></svg>