<svg xmlns="http://www.w3.org/2000/svg" width="350" height="200" viewBox="0 0 350 200">
  <g id="safespring-azure" transform="translate(-190 -242)">
    <path id="Path_4869" data-name="Path 4869" d="M0,0H350V200H0Z" transform="translate(190 242)" fill="#faf7fb"/>
    <g id="Group_161" data-name="Group 161" transform="translate(2)">
      <g id="Group_136" data-name="Group 136" transform="translate(415.777 316)">
        <rect id="Rectangle_284" data-name="Rectangle 284" width="82.593" height="52.719" rx="7" fill="#195f8c"/>
        <line id="Line_43" data-name="Line 43" y2="52.719" transform="translate(30.753)" fill="none" stroke="#ffe26a" stroke-width="9"/>
        <line id="Line_44" data-name="Line 44" x1="82.593" transform="translate(0 26.36)" fill="none" stroke="#ffe26a" stroke-width="9"/>
      </g>
      <g id="Group_159" data-name="Group 159" transform="translate(-29 -37)">
        <g id="Group_158" data-name="Group 158" transform="translate(269.622 352.816)">
          <g id="Group_137" data-name="Group 137" transform="translate(22.726)">
            <path id="Path_4833" data-name="Path 4833" d="M11.512,13.812,0,18.22V0L11.512,3.967Z" fill="#804998" fill-rule="evenodd"/>
          </g>
          <g id="Group_138" data-name="Group 138" transform="translate(12.41 0.147)">
            <path id="Path_4834" data-name="Path 4834" d="M0,2.939v11.9l8.522,3.233V0Zm.9,11.02-.448-.147V3.967L.9,3.82l.449-.147L1.8,3.526V14.253l-.449-.147Zm2.243.588-.6-.147V3.379l.6-.147.6-.147.6-.147v12.05l-.6-.147Zm2.691.882-.748-.294V2.645L5.831,2.5l.747-.3.9-.294V15.869l-.9-.294Z" fill="#804998" fill-rule="evenodd"/>
          </g>
          <g id="Group_139" data-name="Group 139" transform="translate(49.489)">
            <path id="Path_4835" data-name="Path 4835" d="M11.512,13.812,0,18.22V0L11.512,3.967Z" fill="#804998" fill-rule="evenodd"/>
          </g>
          <g id="Group_140" data-name="Group 140" transform="translate(39.172 0.147)">
            <path id="Path_4836" data-name="Path 4836" d="M0,2.939v11.9l8.522,3.233V0Zm.9,11.02-.449-.147V3.967L.9,3.82l.449-.147L1.8,3.526V14.253l-.448-.147Zm2.243.588-.6-.147V3.379l.6-.147.6-.147.6-.147v12.05l-.6-.147Zm2.691.882-.747-.294V2.645L5.831,2.5l.748-.3.9-.294V15.869l-.9-.294Z" fill="#804998" fill-rule="evenodd"/>
          </g>
          <g id="Group_141" data-name="Group 141" transform="translate(22.726 36.147)">
            <path id="Path_4837" data-name="Path 4837" d="M11.512,13.812,0,18.22V0L11.512,3.967Z" fill="#804998" fill-rule="evenodd"/>
          </g>
          <g id="Group_142" data-name="Group 142" transform="translate(12.41 36.294)">
            <path id="Path_4838" data-name="Path 4838" d="M0,2.939v11.9l8.522,3.233V0Zm.9,11.02-.448-.147V3.967L.9,3.821l.449-.147L1.8,3.527V14.253l-.449-.147Zm2.243.588-.6-.147V3.38l.6-.147.6-.147.6-.147V14.988l-.6-.147Zm2.691.881-.748-.294V2.645L5.831,2.5l.747-.3.9-.294V15.87l-.9-.294Z" fill="#804998" fill-rule="evenodd"/>
          </g>
          <g id="Group_143" data-name="Group 143" transform="translate(49.489 36.147)">
            <path id="Path_4839" data-name="Path 4839" d="M11.512,13.812,0,18.22V0L11.512,3.967Z" fill="#804998" fill-rule="evenodd"/>
          </g>
          <g id="Group_144" data-name="Group 144" transform="translate(39.172 36.294)">
            <path id="Path_4840" data-name="Path 4840" d="M0,2.939v11.9l8.522,3.233V0Zm.9,11.02-.449-.147V3.967L.9,3.821l.449-.147L1.8,3.527V14.253l-.448-.147Zm2.243.588-.6-.147V3.38l.6-.147.6-.147.6-.147V14.988l-.6-.147Zm2.691.881-.747-.294V2.645L5.831,2.5l.748-.3.9-.294V15.87l-.9-.294Z" fill="#804998" fill-rule="evenodd"/>
          </g>
          <g id="Group_145" data-name="Group 145" transform="translate(37.079 18.074)">
            <path id="Path_4841" data-name="Path 4841" d="M11.363,13.812,0,18.074V0L11.363,3.967Z" fill="#804998" fill-rule="evenodd"/>
          </g>
          <g id="Group_146" data-name="Group 146" transform="translate(26.613 18.074)">
            <path id="Path_4842" data-name="Path 4842" d="M0,2.939v11.9l8.522,3.233V0Zm.9,11.02-.448-.147V3.967L.9,3.82l.449-.147L1.8,3.526V14.253l-.449-.147Zm2.243.735-.6-.147V3.526l.6-.147.6-.147.6-.147v12.05l-.6-.147Zm2.691.881-.748-.294V2.792l.748-.147.748-.294.9-.294V16.016l-.9-.294Z" fill="#804998" fill-rule="evenodd"/>
          </g>
          <g id="Group_147" data-name="Group 147" transform="translate(10.466 18.074)">
            <path id="Path_4843" data-name="Path 4843" d="M11.363,13.812,0,18.074V0L11.363,3.967Z" fill="#804998" fill-rule="evenodd"/>
          </g>
          <g id="Group_148" data-name="Group 148" transform="translate(0 18.074)">
            <path id="Path_4844" data-name="Path 4844" d="M0,2.939v11.9l8.522,3.233V0Zm.9,11.02-.449-.147V3.967L.9,3.82l.448-.147L1.8,3.526V14.253l-.449-.147Zm2.243.735-.6-.147V3.526l.6-.147.6-.147.6-.147v12.05l-.6-.147Zm2.691.881-.748-.294V2.792l.748-.147.748-.294.9-.294V16.016l-.9-.294Z" fill="#804998" fill-rule="evenodd"/>
          </g>
          <g id="Group_149" data-name="Group 149" transform="translate(63.393 18.074)">
            <path id="Path_4845" data-name="Path 4845" d="M11.363,13.812,0,18.074V0L11.363,3.967Z" fill="#804998" fill-rule="evenodd"/>
          </g>
          <g id="Group_150" data-name="Group 150" transform="translate(22.726)">
            <path id="Path_4846" data-name="Path 4846" d="M11.512,13.812,0,18.22V0L11.512,3.967Z" fill="#fff" fill-rule="evenodd" opacity="0.2"/>
          </g>
          <g id="Group_151" data-name="Group 151" transform="translate(49.489)">
            <path id="Path_4847" data-name="Path 4847" d="M11.512,13.812,0,18.22V0L11.512,3.967Z" fill="#fff" fill-rule="evenodd" opacity="0.2"/>
          </g>
          <g id="Group_152" data-name="Group 152" transform="translate(22.726 36.147)">
            <path id="Path_4848" data-name="Path 4848" d="M11.512,13.812,0,18.22V0L11.512,3.967Z" fill="#fff" fill-rule="evenodd" opacity="0.2"/>
          </g>
          <g id="Group_153" data-name="Group 153" transform="translate(49.489 36.147)">
            <path id="Path_4849" data-name="Path 4849" d="M11.512,13.812,0,18.22V0L11.512,3.967Z" fill="#fff" fill-rule="evenodd" opacity="0.2"/>
          </g>
          <g id="Group_154" data-name="Group 154" transform="translate(37.079 18.074)">
            <path id="Path_4850" data-name="Path 4850" d="M11.363,13.812,0,18.074V0L11.363,3.967Z" fill="#fff" fill-rule="evenodd" opacity="0.2"/>
          </g>
          <g id="Group_155" data-name="Group 155" transform="translate(10.466 18.074)">
            <path id="Path_4851" data-name="Path 4851" d="M11.363,13.812,0,18.074V0L11.363,3.967Z" fill="#fff" fill-rule="evenodd" opacity="0.2"/>
          </g>
          <g id="Group_156" data-name="Group 156" transform="translate(63.393 18.074)">
            <path id="Path_4852" data-name="Path 4852" d="M11.363,13.812,0,18.074V0L11.363,3.967Z" fill="#fff" fill-rule="evenodd" opacity="0.2"/>
          </g>
          <g id="Group_157" data-name="Group 157" transform="translate(52.927 18.074)">
            <path id="Path_4853" data-name="Path 4853" d="M0,2.939v11.9l8.522,3.233V0Zm.9,11.02-.449-.147V3.967L.9,3.82l.449-.147L1.8,3.526V14.253l-.449-.147Zm2.243.735-.6-.147V3.526l.6-.147.6-.147.6-.147v12.05l-.6-.147Zm2.691.881-.747-.294V2.792l.747-.147.748-.294.9-.294V16.016l-.9-.294Z" fill="#804998" fill-rule="evenodd"/>
          </g>
        </g>
        <circle id="Ellipse_20" data-name="Ellipse 20" cx="49.5" cy="49.5" r="49.5" transform="translate(257 330)" fill="rgba(154,109,173,0.35)"/>
      </g>
      <line id="Line_45" data-name="Line 45" x2="26" transform="translate(352.5 342.5)" fill="none" stroke="#c3c3c3" stroke-linecap="square" stroke-width="17"/>
      <g id="Group_160" data-name="Group 160" transform="translate(399 316) rotate(90)">
        <path id="Path_4854" data-name="Path 4854" d="M50.9,32.2H2.1a.5.5,0,0,1-.388-.815l24.4-30.115a.5.5,0,0,1,.777,0l24.4,30.115a.5.5,0,0,1-.388.815Z" fill="#c3c3c3"/>
        <path id="Path_4855" data-name="Path 4855" d="M26.5,1.588,2.1,31.7H50.9L26.5,1.589h0m0-1a1,1,0,0,1,.777.37l24.4,30.115A1,1,0,0,1,50.9,32.7H2.1a1,1,0,0,1-.777-1.63L25.723.959A1,1,0,0,1,26.5.588Z" fill="#c3c3c3"/>
      </g>
    </g>
    <path id="Path_4870" data-name="Path 4870" d="M0,0H350V200H0Z" transform="translate(190 242)" fill="#faf7fb"/>
  </g>
</svg>
