<svg xmlns="http://www.w3.org/2000/svg" xmlns:xlink="http://www.w3.org/1999/xlink" width="800" height="800" viewBox="0 0 800 800">
  <defs>
    <radialGradient id="radial-gradient" cx="2.411" cy="1.417" r="2.475" gradientTransform="translate(0 -0.007) scale(1 0.963)" gradientUnits="objectBoundingBox">
      <stop offset="0" stop-color="#e7eff3"/>
      <stop offset="1" stop-color="#deebf2"/>
    </radialGradient>
    <radialGradient id="radial-gradient-2" cx="0.5" cy="0.5" r="0.5" gradientUnits="objectBoundingBox">
      <stop offset="0" stop-color="#fff"/>
      <stop offset="1" stop-color="#fff" stop-opacity="0"/>
    </radialGradient>
    <clipPath id="clip-safespring-kubernetes-background">
      <rect width="800" height="800"/>
    </clipPath>
  </defs>
  <g id="safespring-kubernetes-background" clip-path="url(#clip-safespring-kubernetes-background)">
    <rect width="800" height="800" fill="url(#radial-gradient)"/>
    <path id="Exclusion_1" data-name="Exclusion 1" d="M122.2,386.1h-.008a26.528,26.528,0,0,1-20.675-9.873L5.762,257.178c-.527-.66-1.033-1.362-1.5-2.086a26.06,26.06,0,0,1-3.59-20.118L34.8,86.5a26.308,26.308,0,0,1,5.11-10.519,26.583,26.583,0,0,1,9.2-7.279L187.448,2.6A26.5,26.5,0,0,1,197.586.034c.445-.022.9-.034,1.348-.034a26.789,26.789,0,0,1,11.479,2.6L348.768,68.664a26.577,26.577,0,0,1,9.2,7.279,26.3,26.3,0,0,1,5.11,10.519l34.182,148.477a26.076,26.076,0,0,1-5.113,22.2L296.434,376.214a26.544,26.544,0,0,1-20.665,9.854h-.018ZM96.641,232.8a107.783,107.783,0,0,0,47.751,59.623l-1.5,3.61c.515,1.328,1.151,3.26.737,4.682-1.566,4.06-4.206,8.321-7.494,13.471-.511.761-1.032,1.474-1.535,2.164l-.006.008a34.654,34.654,0,0,0-2.9,4.444c-.213.4-.459.935-.7,1.451l-.012.025c-.126.271-.244.528-.352.752a9.655,9.655,0,0,0-.571,6.853,7.833,7.833,0,0,0,4.092,4.915,7.525,7.525,0,0,0,3.29.747,9.277,9.277,0,0,0,8.14-5.419l.008-.008.009-.01V330.1c.1-.215.217-.446.329-.67.256-.51.517-1.03.7-1.444a33.745,33.745,0,0,0,1.645-5c.228-.842.462-1.706.743-2.594.652-1.637,1.218-3.3,1.766-4.917,1.3-3.821,2.525-7.43,4.643-9.957a6.716,6.716,0,0,1,3.57-1.74l1.875-3.4a107.147,107.147,0,0,0,76.413.194c.262.464.643,1.154.978,1.761l.04.074c.32.579.621,1.126.75,1.35.183.06.373.116.556.171l.011,0a5.81,5.81,0,0,1,3.662,2.391c2.228,3.805,3.794,8.394,5.606,13.708l.074.216c.277.873.51,1.723.735,2.544l0,.009a34.91,34.91,0,0,0,1.67,5.038c.184.422.446.951.7,1.462l.023.046c.107.215.21.423.3.613a9.277,9.277,0,0,0,8.152,5.438,7.536,7.536,0,0,0,3.3-.749,7.837,7.837,0,0,0,4.091-4.915,9.646,9.646,0,0,0-.57-6.85c-.091-.188-.191-.4-.3-.623l-.021-.044c-.251-.531-.535-1.132-.763-1.563a33.942,33.942,0,0,0-2.874-4.4c-.512-.7-1.041-1.419-1.565-2.2-3.076-4.812-5.732-8.967-7.343-13.146a5.724,5.724,0,0,1,.41-4.308c.072-.178.153-.378.226-.573a12.334,12.334,0,0,1-.934-2.179c-.165-.443-.32-.858-.447-1.165a107.749,107.749,0,0,0,47.736-60.05c1.1.174,2.953.5,3.538.62.168-.111.338-.229.5-.343a5.941,5.941,0,0,1,3.65-1.391c.154,0,.316.006.483.02,4.354.628,8.912,2.263,14.189,4.155l.249.089c.87.333,1.692.689,2.487,1.034a33.949,33.949,0,0,0,4.944,1.833c.377.1.862.2,1.331.293l.016,0c.268.054.545.11.793.165a.551.551,0,0,1,.08.026.7.7,0,0,0,.08.026.447.447,0,0,0,.061.01.4.4,0,0,1,.062.009,10.22,10.22,0,0,0,2.143.23,8.481,8.481,0,0,0,8.544-6.281,7.824,7.824,0,0,0-1.3-6.258,9.679,9.679,0,0,0-5.712-3.827c-.274-.062-.586-.14-.91-.22-.531-.132-1.073-.266-1.5-.346a33.721,33.721,0,0,0-5.226-.488c-.877-.035-1.778-.07-2.718-.148l-.139-.015c-5.622-.588-10.477-1.1-14.705-2.428-1.533-.594-2.662-2.252-3.337-3.243l-.022-.032c-.08-.117-.152-.223-.217-.315l-3.344-.975a107.563,107.563,0,0,0-17.249-74.521c.4-.368,1-.9,1.523-1.367l.083-.074.04-.036c.548-.49,1.066-.953,1.292-1.161.018-.2.033-.416.045-.6a5.791,5.791,0,0,1,1.511-4.088c3.256-3.056,7.452-5.648,12.311-8.649.816-.479,1.617-.9,2.391-1.314a33.576,33.576,0,0,0,4.5-2.7c.353-.262.784-.617,1.2-.961.217-.179.428-.354.62-.508a9.689,9.689,0,0,0,3.577-5.952,7.822,7.822,0,0,0-1.541-6.255,7.963,7.963,0,0,0-6.294-2.917,9.772,9.772,0,0,0-6.055,2.175l-.434.34-.043.034-.023.018c-.456.356-.973.759-1.341,1.075a35.45,35.45,0,0,0-3.711,3.829c-.554.635-1.127,1.292-1.755,1.958l-.309.314c-3.886,3.947-7.243,7.356-10.855,9.788a6.019,6.019,0,0,1-3.054.653c-.574,0-1.1-.041-1.531-.073l-.036,0c-.149-.011-.284-.021-.4-.028l-3.15,2.247a108.478,108.478,0,0,0-31.228-22.79,107.3,107.3,0,0,0-37.506-10.42c-.075-1.11-.171-3.127-.2-3.7-.146-.14-.3-.28-.449-.416a5.768,5.768,0,0,1-2.257-3.723c-.351-4.339.221-9.085.883-14.581l.053-.44c.131-.92.293-1.8.451-2.644a34.192,34.192,0,0,0,.682-5.229c.016-.426.005-.972,0-1.5-.006-.3-.011-.59-.012-.852,0-5.073-3.717-9.2-8.281-9.2s-8.279,4.129-8.279,9.2a1.013,1.013,0,0,0,.008.113,1.09,1.09,0,0,1,.008.116c0,.222-.007.458-.011.7v.02c-.01.494-.02,1-.005,1.408a34.16,34.16,0,0,0,.682,5.227c.157.848.319,1.723.451,2.646l.016.135c.677,5.617,1.261,10.468.9,14.886a9.071,9.071,0,0,1-2.689,4.28l-.2,3.5a108.161,108.161,0,0,0-14.967,2.3A106.484,106.484,0,0,0,120.774,126c-.92-.626-2.529-1.78-2.991-2.121-.2.027-.407.06-.588.088a10.669,10.669,0,0,1-1.675.172,5.09,5.09,0,0,1-2.656-.738c-3.667-2.47-7.083-5.941-11.039-9.96l-.124-.125c-.634-.672-1.215-1.34-1.777-1.986a34.566,34.566,0,0,0-3.674-3.8c-.381-.328-.93-.757-1.372-1.1l-.086-.067-.382-.3a9.872,9.872,0,0,0-5.768-2.175c-.1,0-.207-.005-.31-.005a7.954,7.954,0,0,0-6.288,2.924,7.827,7.827,0,0,0-1.542,6.257,9.681,9.681,0,0,0,3.576,5.951c.021.017.043.032.065.047l.058.041c.152.123.313.255.477.391.409.338.873.72,1.24.991a33.692,33.692,0,0,0,4.492,2.708c.768.409,1.562.832,2.373,1.309l.016.01c4.853,3,9.045,5.586,12.3,8.641,1.135,1.209,1.43,3.208,1.606,4.4l.007.044c.018.122.034.233.051.332l2.653,2.371A107.147,107.147,0,0,0,92.518,215l-3.469,1.01c-.107.138-.219.285-.336.438-.9,1.186-2.027,2.662-3.219,3.154-4.219,1.328-9.063,1.835-14.672,2.422l-.174.018c-.939.079-1.841.113-2.712.147a33.849,33.849,0,0,0-5.232.489c-.435.083-.985.217-1.516.346l-.009,0-.086.021-.6.144-.032.008-.039.01c-.021,0-.047.012-.072.02l-.052.016a9.682,9.682,0,0,0-5.712,3.827,7.814,7.814,0,0,0-1.294,6.257,8.48,8.48,0,0,0,8.542,6.281,10.23,10.23,0,0,0,2.145-.23.481.481,0,0,1,.053-.007h.011a.57.57,0,0,0,.059-.01.584.584,0,0,0,.084-.027.508.508,0,0,1,.077-.025c.168-.037.347-.075.529-.114l.145-.031c.52-.11,1.054-.223,1.466-.333A34.772,34.772,0,0,0,71.377,237l.025-.011c.778-.334,1.583-.68,2.433-1.005l.217-.078c5.29-1.9,9.858-3.536,14.22-4.167.094-.008.193-.011.3-.011a8.872,8.872,0,0,1,4.1,1.483c.134.078.255.148.365.209l3.607-.619Zm102.37,53.009a85.235,85.235,0,0,1-27.548-4.567l21.019-38h.036a7.328,7.328,0,0,1,6.175-3.857c.088,0,.176,0,.264,0a7.375,7.375,0,0,1,6.423,3.843h.159l21.073,38.076a87.818,87.818,0,0,1-27.6,4.513Zm46.336-13.45v0l-16.737-40.425.054-.072A7.324,7.324,0,0,1,235,221.667c.106,0,.212-.008.315-.008a7.642,7.642,0,0,1,1.366.131l.071-.087,43.116,7.288a85.378,85.378,0,0,1-34.516,43.363Zm-92.6-.159h0a85.722,85.722,0,0,1-34.411-43.062l42.747-7.253.069.088a7.447,7.447,0,0,1,1.331-.124h.1a7.3,7.3,0,0,1,6.6,10.173l.123.159-16.558,40.018Zm46.212-56.933h0L186.961,209.5l-2.973-12.917,8.3-10.332h13.321l8.281,10.351-2.973,12.915-11.96,5.751Zm-85.3-6.371v0a85.278,85.278,0,0,1,12.1-53.978L158.28,184l-.036.177a7.3,7.3,0,0,1-2.866,12.543l-.035.142-41.681,12.03Zm170.732-.142h0L242.5,196.685l-.036-.177a7.3,7.3,0,0,1-2.866-12.544l-.017-.089,32.342-28.943a86.858,86.858,0,0,1,12.473,53.817ZM178.663,165.3a7.248,7.248,0,0,1-4.3-1.4l-.071.036-35.615-25.248a85.512,85.512,0,0,1,41.082-22.38,87.586,87.586,0,0,1,8.828-1.523l-2.459,43.435-.177.09A7.28,7.28,0,0,1,178.663,165.3Zm40.479-.154a7.311,7.311,0,0,1-7.3-6.976l-.035-.019-2.459-43.364a86.019,86.019,0,0,1,49.61,23.92l-35.385,25.088-.123-.054A7.25,7.25,0,0,1,219.142,165.145Z" transform="translate(542.678 154.42)" fill="#c6c6c6" opacity="0.577" style="mix-blend-mode: color-burn;isolation: isolate"/>
    <path id="Exclusion_1-2" data-name="Exclusion 1" d="M78.658,248.534h0a17.076,17.076,0,0,1-13.309-6.355L3.709,165.545c-.34-.425-.665-.877-.968-1.343A16.775,16.775,0,0,1,.43,151.252L22.4,55.678a16.935,16.935,0,0,1,3.289-6.771,17.111,17.111,0,0,1,5.925-4.685L120.66,1.673A17.061,17.061,0,0,1,127.186.022c.286-.014.578-.022.868-.022a17.244,17.244,0,0,1,7.389,1.673L224.5,44.2a17.107,17.107,0,0,1,5.925,4.686,16.932,16.932,0,0,1,3.289,6.771l22,95.574a16.785,16.785,0,0,1-3.291,14.292l-61.613,76.646a17.086,17.086,0,0,1-13.3,6.343H177.5ZM62.207,149.851A69.38,69.38,0,0,0,92.945,188.23l-.968,2.324a5.287,5.287,0,0,1,.474,3.014,51.976,51.976,0,0,1-4.824,8.671c-.329.49-.664.949-.988,1.393l0,.005a22.308,22.308,0,0,0-1.867,2.861c-.137.258-.3.6-.449.934l-.007.016c-.081.175-.157.34-.227.484a6.215,6.215,0,0,0-.368,4.411,5.042,5.042,0,0,0,2.634,3.163,4.844,4.844,0,0,0,2.118.481,5.972,5.972,0,0,0,5.239-3.488l.005-.005.006-.006v-.006c.065-.138.139-.287.212-.432.165-.328.333-.663.449-.929a21.722,21.722,0,0,0,1.059-3.216c.147-.542.3-1.1.478-1.67.42-1.054.784-2.127,1.137-3.165.836-2.46,1.625-4.782,2.989-6.409a4.323,4.323,0,0,1,2.3-1.12l1.207-2.186a68.97,68.97,0,0,0,49.187.125c.169.3.414.743.63,1.134l.026.047c.206.373.4.725.483.869.118.039.24.075.358.11l.007,0a3.74,3.74,0,0,1,2.357,1.539,49.158,49.158,0,0,1,3.609,8.824l.047.139c.178.562.328,1.109.473,1.638l0,.006a22.47,22.47,0,0,0,1.075,3.243c.118.272.287.612.451.941l.015.03c.069.139.135.273.194.395a5.971,5.971,0,0,0,5.248,3.5,4.851,4.851,0,0,0,2.121-.482,5.045,5.045,0,0,0,2.634-3.163,6.209,6.209,0,0,0-.367-4.409c-.058-.121-.123-.258-.191-.4l-.013-.029c-.161-.342-.344-.729-.491-1.006a21.846,21.846,0,0,0-1.85-2.831c-.329-.449-.67-.913-1.007-1.418a50.034,50.034,0,0,1-4.727-8.462,3.685,3.685,0,0,1,.264-2.773c.046-.114.1-.244.145-.369a7.938,7.938,0,0,1-.6-1.4c-.106-.285-.206-.552-.288-.75a69.358,69.358,0,0,0,30.728-38.654c.707.112,1.9.323,2.277.4.108-.072.218-.147.324-.221a3.824,3.824,0,0,1,2.349-.9c.1,0,.2,0,.311.013a49.09,49.09,0,0,1,9.133,2.675l.16.058c.56.214,1.089.444,1.6.666a21.854,21.854,0,0,0,3.182,1.18c.243.065.555.128.857.189l.01,0c.172.035.351.071.51.106a.355.355,0,0,1,.052.017.452.452,0,0,0,.052.017.288.288,0,0,0,.04.006.26.26,0,0,1,.04.006,6.578,6.578,0,0,0,1.379.148,5.459,5.459,0,0,0,5.5-4.043,5.036,5.036,0,0,0-.834-4.028,6.23,6.23,0,0,0-3.677-2.464c-.176-.04-.378-.09-.585-.141-.342-.085-.69-.171-.963-.223a21.708,21.708,0,0,0-3.364-.314c-.565-.022-1.145-.045-1.749-.1l-.089-.009a49.56,49.56,0,0,1-9.466-1.563,5.353,5.353,0,0,1-2.148-2.088l-.014-.02c-.051-.075-.1-.144-.14-.2l-2.152-.627a69.238,69.238,0,0,0-11.1-47.969c.261-.237.643-.579.98-.88l.053-.047.025-.023c.353-.315.686-.613.832-.747.012-.131.021-.267.029-.387a3.728,3.728,0,0,1,.973-2.632,50.206,50.206,0,0,1,7.925-5.568c.526-.309,1.041-.582,1.539-.846a21.614,21.614,0,0,0,2.894-1.74c.227-.168.5-.4.773-.619.14-.115.276-.228.4-.327a6.237,6.237,0,0,0,2.3-3.831,5.035,5.035,0,0,0-.992-4.027,5.126,5.126,0,0,0-4.051-1.878,6.29,6.29,0,0,0-3.9,1.4l-.279.219-.028.022-.015.012c-.294.229-.626.489-.864.692a22.819,22.819,0,0,0-2.389,2.465c-.357.409-.725.831-1.129,1.26l-.2.2a48.6,48.6,0,0,1-6.987,6.3,3.875,3.875,0,0,1-1.966.42c-.37,0-.711-.026-.986-.047l-.023,0-.26-.018-2.028,1.446a69.827,69.827,0,0,0-20.1-14.67,69.069,69.069,0,0,0-24.143-6.707c-.048-.715-.11-2.013-.126-2.381-.094-.09-.193-.18-.289-.267a3.713,3.713,0,0,1-1.453-2.4,48.543,48.543,0,0,1,.569-9.386l.034-.284c.084-.592.189-1.157.29-1.7a22.008,22.008,0,0,0,.439-3.366c.01-.274,0-.626,0-.966,0-.2-.007-.38-.008-.548,0-3.266-2.393-5.923-5.331-5.923s-5.329,2.658-5.329,5.923a.652.652,0,0,0,.005.073.7.7,0,0,1,.005.075c0,.143,0,.295-.007.448v.013c-.006.318-.013.647,0,.906a21.989,21.989,0,0,0,.439,3.364c.1.546.206,1.109.29,1.7l.011.087a49.657,49.657,0,0,1,.582,9.582,5.839,5.839,0,0,1-1.731,2.755l-.126,2.256a69.623,69.623,0,0,0-9.634,1.48,68.544,68.544,0,0,0-34.826,19.9c-.592-.4-1.628-1.146-1.925-1.365-.13.018-.262.038-.379.057a6.868,6.868,0,0,1-1.078.111,3.276,3.276,0,0,1-1.709-.475,49.478,49.478,0,0,1-7.106-6.411l-.08-.081c-.408-.433-.782-.863-1.144-1.279a22.25,22.25,0,0,0-2.365-2.445c-.245-.211-.6-.487-.883-.709l-.055-.043-.246-.193a6.354,6.354,0,0,0-3.713-1.4c-.066,0-.133,0-.2,0a5.12,5.12,0,0,0-4.048,1.882,5.038,5.038,0,0,0-.993,4.028,6.231,6.231,0,0,0,2.3,3.83c.014.011.028.021.042.03l.037.026.307.251c.263.217.562.464.8.638A21.688,21.688,0,0,0,58.2,79.3c.494.263,1.006.535,1.528.842l.01.006a50.014,50.014,0,0,1,7.916,5.562,5.354,5.354,0,0,1,1.034,2.833l0,.028c.012.079.022.15.033.214l1.708,1.526a68.97,68.97,0,0,0-10.875,48.082l-2.233.65c-.069.089-.141.183-.216.282a6.313,6.313,0,0,1-2.072,2.03,49.488,49.488,0,0,1-9.444,1.559l-.112.012c-.6.051-1.185.073-1.746.095a21.788,21.788,0,0,0-3.368.315c-.28.054-.634.14-.976.223l-.006,0-.055.014-.387.093-.02.005-.025.007c-.014,0-.03.008-.046.013l-.033.01a6.232,6.232,0,0,0-3.677,2.464,5.03,5.03,0,0,0-.833,4.028,5.459,5.459,0,0,0,5.5,4.043,6.584,6.584,0,0,0,1.381-.148l.034,0h.007a.362.362,0,0,0,.038-.006.373.373,0,0,0,.054-.017.327.327,0,0,1,.049-.016l.341-.073.093-.02c.335-.071.679-.144.944-.214a22.383,22.383,0,0,0,3.2-1.18l.016-.007c.5-.215,1.019-.438,1.566-.647l.14-.05a49.332,49.332,0,0,1,9.153-2.682c.061-.005.124-.007.19-.007a5.711,5.711,0,0,1,2.64.955c.086.05.164.1.235.135l2.322-.4Zm65.9,34.122a54.865,54.865,0,0,1-17.733-2.94L123.9,156.57h.023a4.717,4.717,0,0,1,3.975-2.483c.057,0,.113,0,.17,0a4.747,4.747,0,0,1,4.135,2.474h.1l13.565,24.51a56.528,56.528,0,0,1-17.766,2.905Zm29.827-8.658h0l-10.774-26.021.035-.046a4.714,4.714,0,0,1,4.077-6.559c.068,0,.136-.005.2-.005a4.92,4.92,0,0,1,.879.084l.046-.056,27.754,4.691a54.958,54.958,0,0,1-22.218,27.913Zm-59.608-.1h0a55.179,55.179,0,0,1-22.15-27.719l27.516-4.669.044.057a4.792,4.792,0,0,1,.856-.08h.066a4.7,4.7,0,0,1,4.249,6.548l.079.1-10.658,25.76Zm29.746-36.648h0l-7.72-3.713-1.913-8.315,5.342-6.651h8.575l5.331,6.663-1.913,8.313-7.7,3.7Zm-54.9-4.1h0a54.894,54.894,0,0,1,7.79-34.745l20.932,18.723-.023.114a4.7,4.7,0,0,1-1.845,8.074l-.023.091-26.83,7.744Zm109.9-.091h0L156.1,126.606l-.023-.114a4.7,4.7,0,0,1-1.845-8.075l-.011-.058,20.818-18.631a55.911,55.911,0,0,1,8.029,34.642ZM115.005,106.4a4.665,4.665,0,0,1-2.767-.9l-.046.023L89.267,89.274a55.044,55.044,0,0,1,26.444-14.406,56.379,56.379,0,0,1,5.683-.98l-1.583,27.959-.114.058A4.686,4.686,0,0,1,115.005,106.4Zm26.056-.1a4.706,4.706,0,0,1-4.7-4.49l-.023-.012-1.583-27.913a55.37,55.37,0,0,1,31.934,15.4l-22.777,16.149-.079-.035A4.667,4.667,0,0,1,141.061,106.3Z" transform="translate(653.195 505.506) rotate(25)" fill="#c6c6c6" opacity="0.577" style="mix-blend-mode: color-burn;isolation: isolate"/>
    <path id="Exclusion_1-3" data-name="Exclusion 1" d="M25.791,81.491h0a5.6,5.6,0,0,1-4.364-2.084L1.216,54.28C1.1,54.141,1,53.992.9,53.84a5.5,5.5,0,0,1-.758-4.246l7.2-31.337a5.553,5.553,0,0,1,1.078-2.22A5.611,5.611,0,0,1,10.365,14.5L39.563.549A5.594,5.594,0,0,1,41.7.007C41.8,0,41.892,0,41.987,0A5.654,5.654,0,0,1,44.41.549l29.2,13.944a5.609,5.609,0,0,1,1.943,1.536,5.552,5.552,0,0,1,1.078,2.22l7.214,31.337a5.5,5.5,0,0,1-1.079,4.686L62.565,79.4a5.6,5.6,0,0,1-4.361,2.08h0ZM20.4,49.134A22.749,22.749,0,0,0,30.475,61.718l-.317.762a1.734,1.734,0,0,1,.156.988,17.042,17.042,0,0,1-1.582,2.843c-.108.161-.218.311-.324.457v0a7.314,7.314,0,0,0-.612.938c-.045.085-.1.2-.147.306l0,.005c-.027.057-.052.112-.074.159a2.038,2.038,0,0,0-.121,1.446,1.653,1.653,0,0,0,.864,1.037,1.588,1.588,0,0,0,.694.158,1.958,1.958,0,0,0,1.718-1.144l0,0,0,0v0c.021-.045.046-.094.069-.141.054-.108.109-.217.147-.3a7.122,7.122,0,0,0,.347-1.055c.048-.178.1-.36.157-.548.138-.345.257-.7.373-1.038a6.612,6.612,0,0,1,.98-2.1,1.417,1.417,0,0,1,.753-.367l.4-.717a22.614,22.614,0,0,0,16.128.041c.055.1.136.244.206.372l.009.016c.067.122.131.238.158.285l.117.036h0a1.226,1.226,0,0,1,.773.5,16.119,16.119,0,0,1,1.183,2.893l.016.046c.058.184.108.364.155.537v0a7.367,7.367,0,0,0,.352,1.063c.039.089.094.2.148.309l0,.01.064.129a1.958,1.958,0,0,0,1.721,1.148,1.591,1.591,0,0,0,.7-.158,1.654,1.654,0,0,0,.864-1.037,2.036,2.036,0,0,0-.12-1.446l-.063-.131,0-.009c-.053-.112-.113-.239-.161-.33a7.163,7.163,0,0,0-.607-.928c-.108-.147-.22-.3-.33-.465a16.405,16.405,0,0,1-1.55-2.775A1.208,1.208,0,0,1,53.8,62.6c.015-.038.032-.08.048-.121a2.6,2.6,0,0,1-.2-.46c-.035-.093-.067-.181-.094-.246A22.742,22.742,0,0,0,63.631,49.1c.232.037.623.106.747.131l.106-.072a1.254,1.254,0,0,1,.77-.294c.032,0,.067,0,.1,0a16.1,16.1,0,0,1,2.995.877l.052.019c.184.07.357.146.525.218a7.166,7.166,0,0,0,1.043.387c.08.021.182.042.281.062h0l.167.035.017.005.017.005.013,0,.013,0a2.157,2.157,0,0,0,.452.049,1.79,1.79,0,0,0,1.8-1.326,1.651,1.651,0,0,0-.273-1.321,2.043,2.043,0,0,0-1.206-.808l-.192-.046c-.112-.028-.226-.056-.316-.073a7.118,7.118,0,0,0-1.1-.1c-.185-.007-.375-.015-.574-.031l-.029,0a16.251,16.251,0,0,1-3.1-.513,1.755,1.755,0,0,1-.7-.685l0-.007-.046-.066-.706-.206a22.7,22.7,0,0,0-3.641-15.728c.085-.078.211-.19.321-.288l.017-.016.008-.008c.116-.1.225-.2.273-.245,0-.043.007-.088.01-.127a1.222,1.222,0,0,1,.319-.863,16.461,16.461,0,0,1,2.6-1.826c.172-.1.341-.191.5-.277a7.086,7.086,0,0,0,.949-.57c.074-.055.165-.13.254-.2l.131-.107a2.045,2.045,0,0,0,.755-1.256,1.651,1.651,0,0,0-.325-1.32,1.681,1.681,0,0,0-1.328-.616,2.062,2.062,0,0,0-1.278.459l-.092.072-.009.007,0,0c-.1.075-.205.16-.283.227a7.481,7.481,0,0,0-.783.808c-.117.134-.238.273-.37.413l-.065.066a15.936,15.936,0,0,1-2.291,2.066,1.27,1.27,0,0,1-.645.138c-.121,0-.233-.009-.323-.015h-.008l-.085-.006-.665.474a22.9,22.9,0,0,0-6.591-4.81,22.647,22.647,0,0,0-7.916-2.2c-.016-.234-.036-.66-.041-.781l-.095-.088a1.217,1.217,0,0,1-.476-.786,15.917,15.917,0,0,1,.186-3.077l.011-.093c.028-.194.062-.379.1-.558a7.216,7.216,0,0,0,.144-1.1c0-.09,0-.205,0-.317,0-.064,0-.125,0-.18a1.757,1.757,0,1,0-3.5,0,.213.213,0,0,0,0,.024.229.229,0,0,1,0,.025c0,.047,0,.1,0,.147v0c0,.1,0,.212,0,.3a7.21,7.21,0,0,0,.144,1.1c.033.179.067.364.1.559l0,.029a16.282,16.282,0,0,1,.191,3.142,1.915,1.915,0,0,1-.567.9l-.041.74a22.829,22.829,0,0,0-3.159.485A22.475,22.475,0,0,0,25.49,26.594c-.194-.132-.534-.376-.631-.448l-.124.019a2.252,2.252,0,0,1-.353.036,1.074,1.074,0,0,1-.561-.156,16.223,16.223,0,0,1-2.33-2.1l-.026-.026c-.134-.142-.256-.283-.375-.419a7.3,7.3,0,0,0-.775-.8c-.08-.069-.2-.16-.29-.233l-.018-.014-.081-.063a2.084,2.084,0,0,0-1.217-.459h-.065a1.679,1.679,0,0,0-1.327.617,1.652,1.652,0,0,0-.325,1.321,2.043,2.043,0,0,0,.755,1.256l.014.01.012.009.1.082c.086.071.184.152.262.209a7.111,7.111,0,0,0,.948.572c.162.086.33.176.5.276l0,0a16.4,16.4,0,0,1,2.6,1.824,1.756,1.756,0,0,1,.339.929v.009c0,.026.007.049.011.07l.56.5a22.614,22.614,0,0,0-3.566,15.765l-.732.213-.071.093a2.07,2.07,0,0,1-.679.666,16.226,16.226,0,0,1-3.1.511l-.037,0c-.2.017-.388.024-.572.031a7.146,7.146,0,0,0-1.1.1c-.092.018-.208.046-.32.073h0l-.018,0-.127.03-.007,0-.008,0-.015,0-.011,0a2.043,2.043,0,0,0-1.206.808,1.649,1.649,0,0,0-.273,1.321,1.79,1.79,0,0,0,1.8,1.326,2.159,2.159,0,0,0,.453-.049l.011,0h0l.012,0,.018-.006.016-.005.112-.024.031-.006c.11-.023.222-.047.309-.07a7.339,7.339,0,0,0,1.05-.387l.005,0c.164-.07.334-.143.513-.212l.046-.016a16.175,16.175,0,0,1,3-.879l.062,0a1.872,1.872,0,0,1,.865.313l.077.044.761-.131ZM42,60.322a17.99,17.99,0,0,1-5.814-.964l4.436-8.021h.007a1.547,1.547,0,0,1,1.3-.814h.056a1.557,1.557,0,0,1,1.356.811h.033l4.448,8.036A18.535,18.535,0,0,1,42,60.322Zm9.78-2.839h0L48.25,48.951l.011-.015A1.546,1.546,0,0,1,49.6,46.785l.066,0a1.613,1.613,0,0,1,.288.028l.015-.018,9.1,1.538a18.02,18.02,0,0,1-7.285,9.152ZM32.238,57.45h0a18.093,18.093,0,0,1-7.263-9.089L34,46.83l.015.019a1.572,1.572,0,0,1,.281-.026h.022a1.541,1.541,0,0,1,1.393,2.147l.026.034-3.495,8.446Zm9.753-12.016h0L39.46,44.216l-.627-2.726,1.751-2.181H43.4l1.748,2.185-.627,2.726-2.524,1.214Zm-18-1.345h0A18,18,0,0,1,26.543,32.7l6.863,6.139-.007.037a1.54,1.54,0,0,1-.6,2.647l-.007.03-8.8,2.539Zm36.035-.03h0l-8.842-2.546-.008-.037a1.541,1.541,0,0,1-.6-2.648l0-.019L57.391,32.7a18.332,18.332,0,0,1,2.632,11.359ZM37.709,34.888a1.53,1.53,0,0,1-.907-.295l-.015.008-7.517-5.329a18.048,18.048,0,0,1,8.671-4.724,18.486,18.486,0,0,1,1.863-.321l-.519,9.167-.037.019A1.537,1.537,0,0,1,37.709,34.888Zm8.543-.033a1.543,1.543,0,0,1-1.542-1.472l-.007,0-.519-9.152a18.155,18.155,0,0,1,10.471,5.049l-7.468,5.3-.026-.011A1.53,1.53,0,0,1,46.252,34.855Z" transform="translate(543.726 394.035) rotate(66)" fill="#c6c6c6" opacity="0.577" style="mix-blend-mode: color-burn;isolation: isolate"/>
    <path id="Exclusion_1-4" data-name="Exclusion 1" d="M49.709,155.032h0a11.015,11.015,0,0,1-4.667-1.042,10.79,10.79,0,0,1-3.743-2.922l-38.951-47.8c-.215-.265-.42-.547-.612-.838a10.351,10.351,0,0,1-1.46-8.078L14.154,34.731a10.508,10.508,0,0,1,2.079-4.224,10.792,10.792,0,0,1,3.744-2.923L76.252,1.044A10.9,10.9,0,0,1,80.376.014C80.557,0,80.742,0,80.925,0a11.017,11.017,0,0,1,4.67,1.044l56.282,26.527a10.79,10.79,0,0,1,3.744,2.923,10.506,10.506,0,0,1,2.079,4.224l13.9,59.618a10.383,10.383,0,0,1,0,4.69,10.506,10.506,0,0,1-2.079,4.225l-38.937,47.811a10.8,10.8,0,0,1-3.743,2.916,11.022,11.022,0,0,1-4.664,1.041h-.007Zm-10.4-61.557a43.388,43.388,0,0,0,19.425,23.94l-.612,1.45a3.26,3.26,0,0,1,.3,1.88,32.3,32.3,0,0,1-3.048,5.409c-.208.306-.42.592-.625.869l0,0a13.9,13.9,0,0,0-1.18,1.785c-.087.161-.187.375-.284.583l0,.01c-.051.109-.1.212-.143.3a3.831,3.831,0,0,0-.232,2.751,3.156,3.156,0,0,0,1.665,1.973,3.1,3.1,0,0,0,1.338.3,3.776,3.776,0,0,0,3.311-2.176l0,0,0,0v0c.041-.086.088-.179.134-.269.1-.2.21-.413.284-.58a13.427,13.427,0,0,0,.669-2.006c.093-.338.188-.685.3-1.042.265-.657.5-1.327.719-1.974a12.507,12.507,0,0,1,1.889-4,2.746,2.746,0,0,1,1.452-.7l.763-1.363a44.107,44.107,0,0,0,31.084.078c.107.186.261.463.4.707l.016.03c.13.233.253.452.305.542.075.024.152.047.226.069h0a2.367,2.367,0,0,1,1.49.96,30.443,30.443,0,0,1,2.281,5.5l.03.087c.113.351.207.692.3,1.021v0a13.889,13.889,0,0,0,.679,2.023c.075.169.182.382.285.587l.009.018c.043.086.085.17.123.246a3.775,3.775,0,0,0,3.316,2.183,3.1,3.1,0,0,0,1.341-.3,3.158,3.158,0,0,0,1.664-1.973,3.827,3.827,0,0,0-.232-2.751l-.121-.25-.009-.018c-.1-.213-.217-.454-.31-.628a13.611,13.611,0,0,0-1.169-1.766c-.208-.28-.423-.57-.636-.884a31.1,31.1,0,0,1-2.987-5.279,2.272,2.272,0,0,1,.167-1.73c.029-.071.062-.152.092-.23a4.92,4.92,0,0,1-.38-.875c-.067-.178-.13-.344-.182-.468A43.368,43.368,0,0,0,122.642,93.41c.447.07,1.2.2,1.439.249.068-.045.138-.092.2-.138a2.435,2.435,0,0,1,1.485-.559c.063,0,.129,0,.2.008a31.334,31.334,0,0,1,5.772,1.668l.1.036c.354.134.688.277,1.012.415a13.926,13.926,0,0,0,2.011.736c.154.041.351.08.541.118h.007c.109.022.222.044.323.066a.226.226,0,0,1,.033.01l.033.01.025,0,.025,0a4.209,4.209,0,0,0,.872.092,3.444,3.444,0,0,0,3.476-2.522,3.109,3.109,0,0,0-.527-2.513,3.94,3.94,0,0,0-2.324-1.537c-.111-.025-.239-.056-.37-.088-.216-.053-.436-.107-.608-.139a13.892,13.892,0,0,0-2.126-.2c-.357-.014-.723-.028-1.106-.059l-.056-.006A31.7,31.7,0,0,1,127.1,88.1a3.362,3.362,0,0,1-1.357-1.3l-.009-.013c-.032-.047-.062-.09-.088-.126l-1.36-.391a42.749,42.749,0,0,0-7.017-29.922c.165-.148.406-.361.62-.549l.034-.03.016-.014c.223-.2.434-.383.526-.466.008-.082.013-.167.018-.241a2.307,2.307,0,0,1,.615-1.642,31.732,31.732,0,0,1,5.008-3.473c.332-.193.658-.363.973-.528a13.7,13.7,0,0,0,1.829-1.085c.144-.105.319-.248.489-.386.088-.072.174-.142.252-.2a3.882,3.882,0,0,0,1.455-2.39,3.111,3.111,0,0,0-.627-2.512,3.256,3.256,0,0,0-2.56-1.171,4.007,4.007,0,0,0-2.463.873l-.177.136-.018.014-.009.007c-.185.143-.4.3-.546.432a14.319,14.319,0,0,0-1.51,1.537c-.225.255-.458.519-.714.786l-.126.126a30.583,30.583,0,0,1-4.416,3.93,2.475,2.475,0,0,1-1.242.262c-.234,0-.449-.016-.623-.029h-.015l-.164-.011-1.281.9A44.369,44.369,0,0,0,84.648,37.281c-.031-.446-.07-1.256-.08-1.485-.06-.056-.122-.112-.183-.167a2.312,2.312,0,0,1-.918-1.495,29.9,29.9,0,0,1,.359-5.855l.022-.177c.053-.37.119-.721.183-1.062a13.56,13.56,0,0,0,.278-2.1c.006-.171,0-.39,0-.6,0-.122,0-.237,0-.342a3.383,3.383,0,1,0-6.737,0,.4.4,0,0,0,0,.045.432.432,0,0,1,0,.047c0,.089,0,.184,0,.279v.008c0,.2-.008.4,0,.565a13.548,13.548,0,0,0,.277,2.1c.064.34.13.692.183,1.063l.007.054a30.58,30.58,0,0,1,.368,5.977,3.637,3.637,0,0,1-1.094,1.719l-.08,1.407a44.535,44.535,0,0,0-6.089.923A43.456,43.456,0,0,0,49.13,50.594c-.374-.251-1.029-.715-1.217-.852-.082.011-.166.024-.239.035a4.4,4.4,0,0,1-.681.069,2.091,2.091,0,0,1-1.08-.3,31.133,31.133,0,0,1-4.49-4l-.05-.05c-.258-.27-.494-.538-.723-.8a13.961,13.961,0,0,0-1.495-1.525c-.155-.132-.378-.3-.558-.443l-.035-.027-.156-.12a4.047,4.047,0,0,0-2.346-.873l-.126,0a3.253,3.253,0,0,0-2.558,1.174,3.112,3.112,0,0,0-.627,2.512A3.878,3.878,0,0,0,34.2,47.788l.026.019.024.016.194.157c.167.136.355.289.5.4a13.743,13.743,0,0,0,1.827,1.088c.312.164.636.334.965.525l.007,0a31.612,31.612,0,0,1,5,3.47,3.313,3.313,0,0,1,.653,1.767l0,.018c.007.049.014.094.021.133l1.079.952a42.581,42.581,0,0,0-6.873,29.993l-1.411.406-.137.176a3.966,3.966,0,0,1-1.309,1.266,31.649,31.649,0,0,1-5.968.973l-.071.007c-.382.032-.749.045-1.1.059a13.944,13.944,0,0,0-2.128.2c-.177.034-.4.087-.617.139h0l-.035.008-.244.058-.013,0-.016,0-.029.008-.021.006a3.941,3.941,0,0,0-2.324,1.537,3.105,3.105,0,0,0-.527,2.512,3.444,3.444,0,0,0,3.475,2.522,4.214,4.214,0,0,0,.872-.092l.022,0h0l.024,0a.237.237,0,0,0,.034-.011.209.209,0,0,1,.031-.01l.215-.046.059-.012c.212-.044.429-.09.6-.134a14.263,14.263,0,0,0,2.023-.736l.01,0c.316-.134.644-.273.99-.4l.088-.031a31.488,31.488,0,0,1,5.785-1.673c.038,0,.079,0,.12,0a3.638,3.638,0,0,1,1.668.6l.148.084,1.467-.248Zm41.643,21.285a35.085,35.085,0,0,1-11.206-1.834l8.55-15.26h.014a2.985,2.985,0,0,1,2.512-1.549l.108,0a2.954,2.954,0,0,1,1.282.293,2.923,2.923,0,0,1,1.331,1.25h.065l8.572,15.289c-1.109.366-2.261.684-3.426.944A35.7,35.7,0,0,1,80.956,114.759Zm18.849-5.4h0L93,93.126l.022-.029a2.91,2.91,0,0,1,1.439-3.8,2.984,2.984,0,0,1,1.137-.291c.043,0,.086,0,.128,0a3.148,3.148,0,0,1,.556.053l.029-.035,17.539,2.926a34.364,34.364,0,0,1-14.041,17.411Zm-37.67-.064h0A34.838,34.838,0,0,1,53.78,101.9,34.179,34.179,0,0,1,48.136,92l17.389-2.912.028.035a3.067,3.067,0,0,1,.541-.05h.042a2.951,2.951,0,0,1,2.85,2.28,2.871,2.871,0,0,1-.165,1.8l.05.064-6.736,16.068Zm18.8-22.86h0l-4.879-2.316-1.209-5.187,3.376-4.149H83.64l3.369,4.156L85.8,84.125l-4.865,2.309Zm-34.7-2.558h0A33.886,33.886,0,0,1,51.159,62.2L64.387,73.882l-.014.071a2.894,2.894,0,0,1,.374,4.035,2.954,2.954,0,0,1-1.54,1l-.014.057-16.955,4.83Zm69.452-.057h0L98.646,78.975l-.014-.071a2.916,2.916,0,0,1-1.166-5.037l-.007-.036L110.615,62.21a34.515,34.515,0,0,1,5.074,21.609ZM72.679,66.372a2.974,2.974,0,0,1-1.749-.561l-.029.014L56.413,55.688A34.921,34.921,0,0,1,73.125,46.7a36.056,36.056,0,0,1,3.591-.612l-1,17.44-.072.036A2.944,2.944,0,0,1,72.679,66.372Zm16.466-.062a2.972,2.972,0,0,1-2.324-1.1,2.886,2.886,0,0,1-.648-1.7l-.014-.008-1-17.412a35.177,35.177,0,0,1,20.181,9.6L90.945,65.769l-.05-.022A2.975,2.975,0,0,1,89.145,66.311Z" transform="translate(553.823 28.553) rotate(28)" fill="#c6c6c6" opacity="0.577" style="mix-blend-mode: color-burn;isolation: isolate"/>
    <path id="Exclusion_1-5" data-name="Exclusion 1" d="M62.558,197.661h0a13.581,13.581,0,0,1-10.584-5.054L2.95,131.659c-.27-.338-.529-.7-.77-1.068a13.341,13.341,0,0,1-1.838-10.3L17.813,44.282A13.468,13.468,0,0,1,20.429,38.9a13.609,13.609,0,0,1,4.712-3.726L95.962,1.331a13.569,13.569,0,0,1,5.19-1.313c.228-.011.46-.017.69-.017a13.714,13.714,0,0,1,5.877,1.331l70.829,33.821a13.605,13.605,0,0,1,4.712,3.727,13.466,13.466,0,0,1,2.616,5.385l17.5,76.011a13.349,13.349,0,0,1-2.617,11.367l-49,60.958a13.589,13.589,0,0,1-10.579,5.045h-.009ZM49.474,119.178A55.178,55.178,0,0,0,73.92,149.7l-.77,1.848a4.2,4.2,0,0,1,.377,2.4,41.337,41.337,0,0,1-3.836,6.9c-.261.39-.528.755-.786,1.108l0,0a17.741,17.741,0,0,0-1.484,2.275c-.109.205-.235.479-.357.743l-.006.013c-.064.139-.125.27-.18.385a4.943,4.943,0,0,0-.292,3.508,4.01,4.01,0,0,0,2.095,2.516,3.852,3.852,0,0,0,1.684.382A4.749,4.749,0,0,0,74.527,169l0,0,0-.005v0c.051-.11.111-.228.168-.343.131-.261.265-.527.357-.739a17.275,17.275,0,0,0,.842-2.558c.117-.431.236-.873.381-1.328.334-.838.624-1.692.9-2.517a16.038,16.038,0,0,1,2.377-5.1,3.438,3.438,0,0,1,1.827-.891l.96-1.738a54.852,54.852,0,0,0,39.119.1c.134.238.329.591.5.9l.021.038c.164.3.318.577.384.691.094.031.191.06.284.088l.005,0a2.974,2.974,0,0,1,1.875,1.224,39.1,39.1,0,0,1,2.87,7.018l.038.11c.142.447.261.882.376,1.3v0a17.871,17.871,0,0,0,.855,2.579c.094.216.228.487.358.749l.012.023c.055.11.107.217.154.314a4.749,4.749,0,0,0,4.174,2.784,3.858,3.858,0,0,0,1.687-.383,4.012,4.012,0,0,0,2.095-2.516,4.938,4.938,0,0,0-.292-3.507c-.047-.1-.1-.205-.152-.319l-.011-.023c-.128-.272-.274-.579-.391-.8a17.374,17.374,0,0,0-1.472-2.251c-.262-.357-.533-.726-.8-1.127a39.792,39.792,0,0,1-3.759-6.73,2.931,2.931,0,0,1,.21-2.206c.037-.091.078-.194.116-.293a6.314,6.314,0,0,1-.478-1.116c-.085-.227-.164-.439-.229-.6A55.161,55.161,0,0,0,154.342,119.1c.562.089,1.512.257,1.811.317.086-.057.173-.117.257-.175a3.042,3.042,0,0,1,1.869-.712c.079,0,.162,0,.247.01a39.041,39.041,0,0,1,7.264,2.127l.127.046c.445.17.866.353,1.273.529a17.382,17.382,0,0,0,2.531.938c.193.052.441.1.681.15h.008c.137.028.279.056.406.085a.282.282,0,0,1,.041.013.362.362,0,0,0,.041.013.23.23,0,0,0,.031.005l.032,0a5.231,5.231,0,0,0,1.1.118,4.342,4.342,0,0,0,4.374-3.216,4.006,4.006,0,0,0-.663-3.2,4.955,4.955,0,0,0-2.924-1.959c-.14-.032-.3-.071-.466-.112-.272-.067-.549-.136-.766-.177a17.262,17.262,0,0,0-2.675-.25c-.449-.018-.91-.036-1.391-.076l-.071-.008a39.416,39.416,0,0,1-7.528-1.243,4.257,4.257,0,0,1-1.708-1.66l-.011-.016c-.041-.06-.078-.114-.111-.161l-1.712-.5a55.066,55.066,0,0,0-8.831-38.15c.207-.188.511-.46.78-.7l.042-.038.02-.018c.281-.251.546-.488.661-.594.009-.1.017-.213.023-.308a2.965,2.965,0,0,1,.774-2.093,39.929,39.929,0,0,1,6.3-4.428c.418-.245.828-.463,1.224-.673a17.189,17.189,0,0,0,2.3-1.384c.181-.134.4-.316.615-.492.111-.092.219-.181.317-.26a4.96,4.96,0,0,0,1.831-3.047,4,4,0,0,0-.789-3.2,4.077,4.077,0,0,0-3.222-1.494,5,5,0,0,0-3.1,1.113l-.222.174-.022.017-.012.009c-.233.182-.5.389-.687.55a18.149,18.149,0,0,0-1.9,1.96c-.284.325-.577.661-.9,1l-.158.161A38.655,38.655,0,0,1,145.9,63.1a3.082,3.082,0,0,1-1.564.334c-.294,0-.566-.021-.784-.038h-.018l-.207-.015-1.613,1.15a55.534,55.534,0,0,0-15.987-11.667,54.931,54.931,0,0,0-19.2-5.334c-.038-.568-.088-1.6-.1-1.893-.075-.071-.154-.143-.23-.213a2.953,2.953,0,0,1-1.155-1.906,38.607,38.607,0,0,1,.452-7.464l.027-.225c.067-.471.15-.92.231-1.354A17.5,17.5,0,0,0,106.1,31.8c.008-.218,0-.5,0-.769,0-.155-.006-.3-.006-.436a4.263,4.263,0,1,0-8.478,0,.519.519,0,0,0,0,.058.557.557,0,0,1,0,.059c0,.113,0,.234-.006.356v.01c-.005.253-.01.514,0,.721a17.487,17.487,0,0,0,.349,2.676c.08.434.163.882.231,1.355l.008.069a39.493,39.493,0,0,1,.463,7.621,4.644,4.644,0,0,1-1.376,2.191l-.1,1.794a55.371,55.371,0,0,0-7.662,1.177,54.513,54.513,0,0,0-27.7,15.823c-.471-.32-1.295-.911-1.531-1.086-.1.014-.208.03-.3.045a5.462,5.462,0,0,1-.857.088,2.606,2.606,0,0,1-1.36-.378,39.35,39.35,0,0,1-5.651-5.1l-.063-.064c-.325-.344-.622-.686-.909-1.017a17.7,17.7,0,0,0-1.881-1.945c-.195-.168-.476-.387-.7-.564l-.044-.034-.2-.153a5.054,5.054,0,0,0-2.953-1.114l-.158,0A4.072,4.072,0,0,0,42,54.679a4.007,4.007,0,0,0-.789,3.2,4.956,4.956,0,0,0,1.831,3.046l.033.024.03.021.244.2c.21.173.447.369.635.507a17.248,17.248,0,0,0,2.3,1.387c.393.209.8.426,1.215.67l.008,0a39.777,39.777,0,0,1,6.3,4.424,4.258,4.258,0,0,1,.822,2.253l0,.022c.009.062.018.119.026.17l1.358,1.214a54.853,54.853,0,0,0-8.649,38.24l-1.776.517-.172.224a5.021,5.021,0,0,1-1.648,1.615,39.358,39.358,0,0,1-7.511,1.24l-.089.009c-.481.04-.942.058-1.388.076A17.328,17.328,0,0,0,32.1,114c-.223.043-.5.111-.776.177h0l-.044.011-.307.074-.016,0-.02.005-.037.01-.026.008a4.957,4.957,0,0,0-2.924,1.959,4,4,0,0,0-.663,3.2,4.341,4.341,0,0,0,4.373,3.216,5.237,5.237,0,0,0,1.1-.118l.027,0h.006l.03-.005a.3.3,0,0,0,.043-.014.26.26,0,0,1,.039-.013l.271-.058.074-.016c.266-.056.54-.114.751-.17a17.8,17.8,0,0,0,2.546-.938l.013-.006c.4-.171.81-.348,1.245-.515l.111-.04a39.234,39.234,0,0,1,7.28-2.133c.048,0,.1-.006.151-.006a4.542,4.542,0,0,1,2.1.759l.187.107,1.847-.317Zm52.407,27.137a43.634,43.634,0,0,1-14.1-2.338l10.76-19.455h.018a3.752,3.752,0,0,1,3.161-1.975l.135,0a3.776,3.776,0,0,1,3.288,1.968h.081L116.01,144a44.958,44.958,0,0,1-14.129,2.31ZM125.6,139.43h0l-8.568-20.7.028-.037a3.749,3.749,0,0,1,3.242-5.216c.054,0,.108,0,.161,0a3.912,3.912,0,0,1,.7.067l.036-.045,22.073,3.731a43.708,43.708,0,0,1-17.67,22.2ZM78.2,139.348h0A43.885,43.885,0,0,1,60.578,117.3l21.884-3.713.035.045a3.811,3.811,0,0,1,.681-.063h.052a3.737,3.737,0,0,1,3.379,5.208l.063.081L78.2,139.347ZM101.853,110.2h0l-6.14-2.953-1.522-6.613,4.248-5.289h6.82l4.24,5.3-1.522,6.612-6.123,2.944ZM58.187,106.94h0a43.657,43.657,0,0,1,6.2-27.633L81.03,94.2l-.018.091a3.735,3.735,0,0,1-1.467,6.422l-.018.072L58.188,106.94Zm87.4-.073h0l-21.447-6.177-.018-.09a3.738,3.738,0,0,1-1.467-6.422l-.009-.046,16.557-14.817a44.466,44.466,0,0,1,6.385,27.551ZM91.464,84.623a3.71,3.71,0,0,1-2.2-.715l-.036.018L70.995,71A43.777,43.777,0,0,1,92.026,59.543a44.838,44.838,0,0,1,4.52-.78L95.286,81l-.091.046A3.727,3.727,0,0,1,91.464,84.623Zm20.723-.079a3.743,3.743,0,0,1-3.74-3.571l-.018-.01-1.259-22.2a44.036,44.036,0,0,1,25.4,12.246L114.452,83.853l-.063-.027A3.711,3.711,0,0,1,112.187,84.544Z" transform="translate(401.578 192.525) rotate(24)" fill="#c6c6c6" opacity="0.577" style="mix-blend-mode: color-burn;isolation: isolate"/>
    <path id="Exclusion_1-6" data-name="Exclusion 1" d="M25.791,81.491h0a5.6,5.6,0,0,1-4.364-2.084L1.216,54.28C1.1,54.141,1,53.992.9,53.84a5.5,5.5,0,0,1-.758-4.246l7.2-31.337a5.553,5.553,0,0,1,1.078-2.22A5.611,5.611,0,0,1,10.365,14.5L39.563.549A5.594,5.594,0,0,1,41.7.007C41.8,0,41.892,0,41.987,0A5.654,5.654,0,0,1,44.41.549l29.2,13.944a5.609,5.609,0,0,1,1.943,1.536,5.552,5.552,0,0,1,1.078,2.22l7.214,31.337a5.5,5.5,0,0,1-1.079,4.686L62.565,79.4a5.6,5.6,0,0,1-4.361,2.08h0ZM20.4,49.134A22.749,22.749,0,0,0,30.475,61.718l-.317.762a1.734,1.734,0,0,1,.156.988,17.042,17.042,0,0,1-1.582,2.843c-.108.161-.218.311-.324.457v0a7.314,7.314,0,0,0-.612.938c-.045.085-.1.2-.147.306l0,.005c-.027.057-.052.112-.074.159a2.038,2.038,0,0,0-.121,1.446,1.653,1.653,0,0,0,.864,1.037,1.588,1.588,0,0,0,.694.158,1.958,1.958,0,0,0,1.718-1.144l0,0,0,0v0c.021-.045.046-.094.069-.141.054-.108.109-.217.147-.3a7.122,7.122,0,0,0,.347-1.055c.048-.178.1-.36.157-.548.138-.345.257-.7.373-1.038a6.612,6.612,0,0,1,.98-2.1,1.417,1.417,0,0,1,.753-.367l.4-.717a22.614,22.614,0,0,0,16.128.041c.055.1.136.244.206.372l.009.016c.067.122.131.238.158.285l.117.036h0a1.226,1.226,0,0,1,.773.5,16.119,16.119,0,0,1,1.183,2.893l.016.046c.058.184.108.364.155.537v0a7.367,7.367,0,0,0,.352,1.063c.039.089.094.2.148.309l0,.01.064.129a1.958,1.958,0,0,0,1.721,1.148,1.591,1.591,0,0,0,.7-.158,1.654,1.654,0,0,0,.864-1.037,2.036,2.036,0,0,0-.12-1.446l-.063-.131,0-.009c-.053-.112-.113-.239-.161-.33a7.163,7.163,0,0,0-.607-.928c-.108-.147-.22-.3-.33-.465a16.405,16.405,0,0,1-1.55-2.775A1.208,1.208,0,0,1,53.8,62.6c.015-.038.032-.08.048-.121a2.6,2.6,0,0,1-.2-.46c-.035-.093-.067-.181-.094-.246A22.742,22.742,0,0,0,63.631,49.1c.232.037.623.106.747.131l.106-.072a1.254,1.254,0,0,1,.77-.294c.032,0,.067,0,.1,0a16.1,16.1,0,0,1,2.995.877l.052.019c.184.07.357.146.525.218a7.166,7.166,0,0,0,1.043.387c.08.021.182.042.281.062h0l.167.035.017.005.017.005.013,0,.013,0a2.157,2.157,0,0,0,.452.049,1.79,1.79,0,0,0,1.8-1.326,1.651,1.651,0,0,0-.273-1.321,2.043,2.043,0,0,0-1.206-.808l-.192-.046c-.112-.028-.226-.056-.316-.073a7.118,7.118,0,0,0-1.1-.1c-.185-.007-.375-.015-.574-.031l-.029,0a16.251,16.251,0,0,1-3.1-.513,1.755,1.755,0,0,1-.7-.685l0-.007-.046-.066-.706-.206a22.7,22.7,0,0,0-3.641-15.728c.085-.078.211-.19.321-.288l.017-.016.008-.008c.116-.1.225-.2.273-.245,0-.043.007-.088.01-.127a1.222,1.222,0,0,1,.319-.863,16.461,16.461,0,0,1,2.6-1.826c.172-.1.341-.191.5-.277a7.086,7.086,0,0,0,.949-.57c.074-.055.165-.13.254-.2l.131-.107a2.045,2.045,0,0,0,.755-1.256,1.651,1.651,0,0,0-.325-1.32,1.681,1.681,0,0,0-1.328-.616,2.062,2.062,0,0,0-1.278.459l-.092.072-.009.007,0,0c-.1.075-.205.16-.283.227a7.481,7.481,0,0,0-.783.808c-.117.134-.238.273-.37.413l-.065.066a15.936,15.936,0,0,1-2.291,2.066,1.27,1.27,0,0,1-.645.138c-.121,0-.233-.009-.323-.015h-.008l-.085-.006-.665.474a22.9,22.9,0,0,0-6.591-4.81,22.647,22.647,0,0,0-7.916-2.2c-.016-.234-.036-.66-.041-.781l-.095-.088a1.217,1.217,0,0,1-.476-.786,15.917,15.917,0,0,1,.186-3.077l.011-.093c.028-.194.062-.379.1-.558a7.216,7.216,0,0,0,.144-1.1c0-.09,0-.205,0-.317,0-.064,0-.125,0-.18a1.757,1.757,0,1,0-3.5,0,.213.213,0,0,0,0,.024.229.229,0,0,1,0,.025c0,.047,0,.1,0,.147v0c0,.1,0,.212,0,.3a7.21,7.21,0,0,0,.144,1.1c.033.179.067.364.1.559l0,.029a16.282,16.282,0,0,1,.191,3.142,1.915,1.915,0,0,1-.567.9l-.041.74a22.829,22.829,0,0,0-3.159.485A22.475,22.475,0,0,0,25.49,26.594c-.194-.132-.534-.376-.631-.448l-.124.019a2.252,2.252,0,0,1-.353.036,1.074,1.074,0,0,1-.561-.156,16.223,16.223,0,0,1-2.33-2.1l-.026-.026c-.134-.142-.256-.283-.375-.419a7.3,7.3,0,0,0-.775-.8c-.08-.069-.2-.16-.29-.233l-.018-.014-.081-.063a2.084,2.084,0,0,0-1.217-.459h-.065a1.679,1.679,0,0,0-1.327.617,1.652,1.652,0,0,0-.325,1.321,2.043,2.043,0,0,0,.755,1.256l.014.01.012.009.1.082c.086.071.184.152.262.209a7.111,7.111,0,0,0,.948.572c.162.086.33.176.5.276l0,0a16.4,16.4,0,0,1,2.6,1.824,1.756,1.756,0,0,1,.339.929v.009c0,.026.007.049.011.07l.56.5a22.614,22.614,0,0,0-3.566,15.765l-.732.213-.071.093a2.07,2.07,0,0,1-.679.666,16.226,16.226,0,0,1-3.1.511l-.037,0c-.2.017-.388.024-.572.031a7.146,7.146,0,0,0-1.1.1c-.092.018-.208.046-.32.073h0l-.018,0-.127.03-.007,0-.008,0-.015,0-.011,0a2.043,2.043,0,0,0-1.206.808,1.649,1.649,0,0,0-.273,1.321,1.79,1.79,0,0,0,1.8,1.326,2.159,2.159,0,0,0,.453-.049l.011,0h0l.012,0,.018-.006.016-.005.112-.024.031-.006c.11-.023.222-.047.309-.07a7.339,7.339,0,0,0,1.05-.387l.005,0c.164-.07.334-.143.513-.212l.046-.016a16.175,16.175,0,0,1,3-.879l.062,0a1.872,1.872,0,0,1,.865.313l.077.044.761-.131ZM42,60.322a17.99,17.99,0,0,1-5.814-.964l4.436-8.021h.007a1.547,1.547,0,0,1,1.3-.814h.056a1.557,1.557,0,0,1,1.356.811h.033l4.448,8.036A18.535,18.535,0,0,1,42,60.322Zm9.78-2.839h0L48.25,48.951l.011-.015A1.546,1.546,0,0,1,49.6,46.785l.066,0a1.613,1.613,0,0,1,.288.028l.015-.018,9.1,1.538a18.02,18.02,0,0,1-7.285,9.152ZM32.238,57.45h0a18.093,18.093,0,0,1-7.263-9.089L34,46.83l.015.019a1.572,1.572,0,0,1,.281-.026h.022a1.541,1.541,0,0,1,1.393,2.147l.026.034-3.495,8.446Zm9.753-12.016h0L39.46,44.216l-.627-2.726,1.751-2.181H43.4l1.748,2.185-.627,2.726-2.524,1.214Zm-18-1.345h0A18,18,0,0,1,26.543,32.7l6.863,6.139-.007.037a1.54,1.54,0,0,1-.6,2.647l-.007.03-8.8,2.539Zm36.035-.03h0l-8.842-2.546-.008-.037a1.541,1.541,0,0,1-.6-2.648l0-.019L57.391,32.7a18.332,18.332,0,0,1,2.632,11.359ZM37.709,34.888a1.53,1.53,0,0,1-.907-.295l-.015.008-7.517-5.329a18.048,18.048,0,0,1,8.671-4.724,18.486,18.486,0,0,1,1.863-.321l-.519,9.167-.037.019A1.537,1.537,0,0,1,37.709,34.888Zm8.543-.033a1.543,1.543,0,0,1-1.542-1.472l-.007,0-.519-9.152a18.155,18.155,0,0,1,10.471,5.049l-7.468,5.3-.026-.011A1.53,1.53,0,0,1,46.252,34.855Z" transform="translate(708.744 49.584) rotate(38)" fill="#c6c6c6" opacity="0.577" style="mix-blend-mode: color-burn;isolation: isolate"/>
    <path id="Exclusion_1-7" data-name="Exclusion 1" d="M5.784,18.276h0a1.256,1.256,0,0,1-.979-.467L.273,12.174c-.025-.031-.049-.064-.071-.1a1.234,1.234,0,0,1-.17-.952L1.647,4.094a1.245,1.245,0,0,1,.242-.5,1.258,1.258,0,0,1,.436-.345L8.873.123A1.255,1.255,0,0,1,9.353,0l.064,0A1.268,1.268,0,0,1,9.96.123L16.509,3.25a1.258,1.258,0,0,1,.436.345,1.245,1.245,0,0,1,.242.5L18.8,11.121a1.234,1.234,0,0,1-.242,1.051l-4.531,5.636a1.256,1.256,0,0,1-.978.466h0Zm-1.21-7.257a5.1,5.1,0,0,0,2.26,2.822l-.071.171a.389.389,0,0,1,.035.222,3.822,3.822,0,0,1-.355.638c-.024.036-.049.07-.073.1h0a1.64,1.64,0,0,0-.137.21c-.01.019-.022.044-.033.069h0l-.017.036a.457.457,0,0,0-.027.324.371.371,0,0,0,.194.233.356.356,0,0,0,.156.035.439.439,0,0,0,.385-.257h0l.016-.032c.012-.024.024-.049.033-.068a1.6,1.6,0,0,0,.078-.237c.011-.04.022-.081.035-.123.031-.077.058-.156.084-.233a1.483,1.483,0,0,1,.22-.471.318.318,0,0,1,.169-.082l.089-.161a5.072,5.072,0,0,0,3.617.009l.046.083,0,0,.036.064.026.008h0a.275.275,0,0,1,.173.113,3.615,3.615,0,0,1,.265.649l0,.01c.013.041.024.082.035.12h0a1.652,1.652,0,0,0,.079.238c.009.02.021.045.033.069v0l.014.029a.439.439,0,0,0,.386.257.357.357,0,0,0,.156-.035.371.371,0,0,0,.194-.233.457.457,0,0,0-.027-.324l-.014-.029v0c-.012-.025-.025-.054-.036-.074a1.606,1.606,0,0,0-.136-.208c-.024-.033-.049-.067-.074-.1a3.679,3.679,0,0,1-.348-.622.271.271,0,0,1,.019-.2l.011-.027a.584.584,0,0,1-.044-.1c-.008-.021-.015-.041-.021-.055a5.1,5.1,0,0,0,2.26-2.842l.167.029.024-.016a.281.281,0,0,1,.173-.066h.023a3.61,3.61,0,0,1,.672.2l.012,0c.041.016.08.033.118.049a1.607,1.607,0,0,0,.234.087l.063.014h0l.038.008h.013a.484.484,0,0,0,.1.011.4.4,0,0,0,.4-.3.37.37,0,0,0-.061-.3.458.458,0,0,0-.27-.181l-.043-.01-.071-.016a1.6,1.6,0,0,0-.247-.023c-.042,0-.084,0-.129-.007h-.007a3.645,3.645,0,0,1-.7-.115.394.394,0,0,1-.158-.154v0l-.01-.015-.158-.046a5.091,5.091,0,0,0-.816-3.527l.072-.065,0,0,0,0,.061-.055c0-.01,0-.02,0-.028a.274.274,0,0,1,.072-.194,3.692,3.692,0,0,1,.583-.409c.039-.023.077-.043.113-.062a1.589,1.589,0,0,0,.213-.128l.057-.045.029-.024a.459.459,0,0,0,.169-.282.37.37,0,0,0-.073-.3.377.377,0,0,0-.3-.138.463.463,0,0,0-.287.1l-.021.016,0,0h0l-.064.051a1.678,1.678,0,0,0-.176.181c-.026.03-.053.061-.083.093L14,5.371a3.574,3.574,0,0,1-.514.463.285.285,0,0,1-.145.031c-.027,0-.052,0-.072,0h-.021l-.149.106a5.135,5.135,0,0,0-1.478-1.079A5.079,5.079,0,0,0,9.85,4.395c0-.053-.008-.148-.009-.175L9.819,4.2a.273.273,0,0,1-.107-.176,3.57,3.57,0,0,1,.042-.69l0-.021c.006-.044.014-.085.021-.125A1.618,1.618,0,0,0,9.81,2.94c0-.02,0-.046,0-.071s0-.028,0-.04a.394.394,0,1,0-.784,0,.048.048,0,0,0,0,.005.052.052,0,0,1,0,.006c0,.01,0,.022,0,.033h0c0,.023,0,.048,0,.067a1.617,1.617,0,0,0,.032.247c.007.04.015.082.021.125v.006a3.652,3.652,0,0,1,.043.7.429.429,0,0,1-.127.2l-.009.166a5.12,5.12,0,0,0-.708.109A5.04,5.04,0,0,0,5.717,5.964c-.044-.03-.12-.084-.142-.1l-.028,0a.505.505,0,0,1-.079.008.241.241,0,0,1-.126-.035A3.638,3.638,0,0,1,4.82,5.37l-.006-.006c-.03-.032-.058-.063-.084-.094a1.636,1.636,0,0,0-.174-.18c-.018-.016-.044-.036-.065-.052l0,0-.018-.014a.467.467,0,0,0-.273-.1H4.181a.376.376,0,0,0-.3.138.37.37,0,0,0-.073.3.458.458,0,0,0,.169.282l0,0,0,0,.023.018c.019.016.041.034.059.047a1.6,1.6,0,0,0,.213.128c.036.019.074.039.112.062h0a3.678,3.678,0,0,1,.582.409.394.394,0,0,1,.076.208v0l0,.016.126.112a5.072,5.072,0,0,0-.8,3.536l-.164.048-.016.021a.464.464,0,0,1-.152.149,3.639,3.639,0,0,1-.694.115H3.344c-.044,0-.087.005-.128.007a1.6,1.6,0,0,0-.248.023l-.072.016h0l-.028.007H2.854a.458.458,0,0,0-.27.181.37.37,0,0,0-.061.3.4.4,0,0,0,.4.3.484.484,0,0,0,.1-.011h.013l.025-.005h.007l.069-.016a1.646,1.646,0,0,0,.235-.087h0c.037-.016.075-.032.115-.048l.01,0a3.628,3.628,0,0,1,.673-.2h.014a.42.42,0,0,1,.194.07l.017.01.171-.029ZM9.42,13.529a4.035,4.035,0,0,1-1.3-.216l.995-1.8h0a.347.347,0,0,1,.292-.183h.013a.349.349,0,0,1,.3.182h.008l1,1.8a4.157,4.157,0,0,1-1.306.214Zm2.193-.637h0l-.792-1.914,0,0a.347.347,0,0,1,.3-.482h.015a.362.362,0,0,1,.065.006l0,0,2.041.345a4.041,4.041,0,0,1-1.634,2.053ZM7.23,12.884h0A4.058,4.058,0,0,1,5.6,10.846L7.625,10.5l0,0a.352.352,0,0,1,.063-.006h0a.346.346,0,0,1,.312.482l.006.008L7.23,12.884ZM9.418,10.19h0L8.85,9.916l-.141-.611L9.1,8.816h.631l.392.49-.141.611-.566.272Zm-4.037-.3h0a4.037,4.037,0,0,1,.573-2.555L7.492,8.71l0,.008a.345.345,0,0,1-.136.594l0,.007L5.38,9.888Zm8.082-.007h0L11.479,9.31l0-.008a.346.346,0,0,1-.136-.594v0l1.531-1.37a4.111,4.111,0,0,1,.59,2.547Zm-5-2.057a.343.343,0,0,1-.2-.066l0,0-1.686-1.2A4.048,4.048,0,0,1,8.509,5.505a4.146,4.146,0,0,1,.418-.072L8.81,7.489l-.008,0A.345.345,0,0,1,8.457,7.824Zm1.916-.007a.346.346,0,0,1-.346-.33h0L9.909,5.433a4.072,4.072,0,0,1,2.348,1.132L10.582,7.753l-.006,0A.343.343,0,0,1,10.373,7.817Z" transform="translate(577.726 446.649) rotate(66)" fill="#c6c6c6" opacity="0.577" style="mix-blend-mode: color-burn;isolation: isolate"/>
    <circle id="Ellipse_51" data-name="Ellipse 51" cx="322" cy="322" r="322" transform="translate(-77 -13)" opacity="0.888" fill="url(#radial-gradient-2)"/>
  </g>
</svg>
