<svg xmlns="http://www.w3.org/2000/svg" xmlns:xlink="http://www.w3.org/1999/xlink" width="898" height="629" viewBox="0 0 898 629"><defs><linearGradient id="a" x1="0.5" x2="0.5" y1="0.359" y2="1" gradientUnits="objectBoundingBox"><stop offset="0" stop-color="#195f8c" stop-opacity="0"/><stop offset="1" stop-color="#195f8c" stop-opacity="0.204"/></linearGradient><clipPath id="c"><path d="M0 0h898v629H0z"/></clipPath></defs><g id="b" clip-path="url(#c)"><path fill="#e8eff3" d="M0 0h898v629H0z"/><g transform="translate(469.138 -1562)"><path fill="rgba(25,95,140,0.2)" fill-rule="evenodd" d="m120.52 2012.2 4.3-2.1 2.15-4.2 2.87-4.92 1.43-2.1 1.43-3.5 4.3-1.4a32 32 0 0 1 3.6-.7c.7-.7 5.01-4.22 5.01-4.22h.72l-2.15 3.51v3.5l.71 2.81.72.7v5.62s2.15 1.4 1.44 2.1a10 10 0 0 0-2.87 2.8l-.71 4.22-2.87 3.5.72 4.21.71 3.5-.71 2.82 2.15 2.1-.72 1.4.72 2.1 2.15 1.4h2.15c.72 0 2.87-.7 3.59-.7a7 7 0 0 1 2.15.7l2.15 2.81v2.1a7 7 0 0 0-.72 2.1 10 10 0 0 0-1.43 2.11l-1.44 1.4-.71 2.1-.72 1.4-1.44-1.4s0-2.1-.71-1.4c-.72 0-1.44 1.4-1.44 1.4l.72 1.4s.72 2.11 0 2.11h-1.43l-.72-2.79-2.15-.7 1.43-2.8-1.43-.7a2.2 2.2 0 0 0-1.44.7 30 30 0 0 1-.72 3.5l-.71 2.81a2.4 2.4 0 0 1 .71 1.4 2.4 2.4 0 0 1-.71 1.4v1.4a7 7 0 0 1 .71 2.1.7.7 0 0 1-.71.7v1.4a2.5 2.5 0 0 0-1.44.7l-1.43.7a2.5 2.5 0 0 0-1.44-.7c-.71 0-.71-.7-1.43 0l-.72.7.72.7h1.43v1.4a.7.7 0 0 1 .72.7l-1.43 1.4-1.44 1.4-1.43.7s-1.43-.7-1.43 0h-1.44c0 .7 1.44 2.1 1.44 2.1l-2.87-2.8h-1.44l2.15 1.4.72 1.4 1.44.7-.72.7-.72.7-1.43 1.4a2.5 2.5 0 0 1-1.44.7h-2.15l.71.7 1.44.7s.72-.7.72 0c-.72 0-.72 0-.72.7v3.5l1.43 2.11.72.7v2.8a2.5 2.5 0 0 1-1.43.7l-2.87.7-.72 1.4 1.43.7v1.4a2.4 2.4 0 0 1-.71 1.4h1.43l2.15.7 2.88 3.6-.72 2.8-1.44 1.4-1.43-2.8a.7.7 0 0 0-.72.7 11 11 0 0 0-2.86 1.4 7 7 0 0 1-2.16.7h-.71l-2.15-.7-2.87-1.4a7 7 0 0 0-2.16-.7 30 30 0 0 1-4.3-1.4l-1.43.7h-2.15l-1.44-.7-1.43-2.11-.72-1.4 2.15-1.4a.7.7 0 0 0 .72-.7v-4.21a2.4 2.4 0 0 1 .72-1.4s0-2.11-.72-2.81v-2.82l-1.44-2.1a6 6 0 0 1-2.15-.7 34 34 0 0 0-3.58-1.4v-2.11l-.72-.7s-1.43 0-1.43.7v.7l-1.44-.7a10 10 0 0 1-1.43-2.8 1.5 1.5 0 0 0 1.43-1.4 5.3 5.3 0 0 0 1.44-2.82v-2.8s-.72-.7 0-.7h.71a29 29 0 0 1 2.87-2.11v-1.4a7 7 0 0 1-.72-2.1v-.7c0-1.4-2.87-4.21-2.87-4.21H94.7v-3.52l.72-2.8-.72-4.92v-7.01l1.43-2.81.72-1.4.72 2.1a.96.96 0 0 0 0 1.4h2.15l.71.7 2.15 1.4 1.44 1.4 1.43.7h1.44l.71-.7v-.7l-.71-1.4a2.4 2.4 0 0 0-.72-1.4l2.15-1.4.72-1.4a.7.7 0 0 0-.72-.7h-2.14l-.72-.7-.72-1.4s0-1.4.72-1.4a16 16 0 0 1 .72-2.8s-.72-1.4.71-1.4h2.15s.72-1.4 1.44-1.4c0 0 .71-.7.71 0 .72 0 0 2.1 0 2.1l-1.43 1.4a2.4 2.4 0 0 1 .72 1.4v1.4l-1.44 2.1h.72v1.4l2.15-.7-.72-.7a.96.96 0 0 1 0-1.4c.72-.7.72-1.4 1.44-1.4 0-.7 0-.7 1.43-.7.72 0 2.15 1.4 2.15 1.4s.72.7 0 .7a2.4 2.4 0 0 1-.71 1.4l1.43 2.1a2.3 2.3 0 0 0-1.43.7v.7c0 .7-2.15 1.4 0 1.4 1.43 0 1.43 0 1.43-.7v-1.4h2.15l.72.7v2.1s1.43 1.4 1.43.7.72 0 0-1.4a3.4 3.4 0 0 1-.71-2.1v-1.4c-.72-.7-1.44-.7-1.44-1.4l-2.15-2.11v-4.2l.72-1.4a3.4 3.4 0 0 1 .72-2.11c.71 0 0-.7.71-.7 1.44-.7.72-.7 2.15-.7.72 0 2.16.7 2.87.7l2.15.7v-.7c.72 0 .72-1.4.72-.7.72 0 .72.7 1.44 0a2.2 2.2 0 0 0 .71-1.4 2.2 2.2 0 0 0 1.44-.7 2.5 2.5 0 0 0-1.44-.7 3.6 3.6 0 0 0-2.15.7h-1.43c-.72.7-.72.7-2.15.7s-1.44 0-2.15.7a2.2 2.2 0 0 1-1.44.7h-2.15l-.72-.7h-.71a2.5 2.5 0 0 0-1.44.7h-2.86c0 .7-1.44.7-1.44.7h-.71c0 .7.71.7 0 1.4h-2.16l-.72.7-.71 1.4h-.72l-.72 2.1v.7l-1.43 1.4-.72.7.72.7v.7l-.72.7.72 1.4 1.43-.7.72 1.4-.72 1.4a2.5 2.5 0 0 1-1.43.7l-.72-.7-.72-1.4v-1.4l-2.15.7v-.7l-.71-.7a2.4 2.4 0 0 0-.72-1.4l-1.44-2.1h.72c0-.7 0-.7.72-1.4 0-.7 1.43-2.1 1.43-2.1l.72-2.1 1.43-1.4.72-1.4 1.43-2.1 1.44-1.4h2.15l1.43.7 1.44-1.4 2.86-.7h.72l2.15.7h4.3Zm-15.78 74.38-1.43-.7a2.4 2.4 0 0 1-.72 1.4l-.72 2.1-.71.7v1.4l-2.16.7a.7.7 0 0 0 .72.7h1.44a2.4 2.4 0 0 1 .71-1.4l.72-.7c.72 0 2.15 0 2.15-.7zm37.3-18.94.71-.7a2.4 2.4 0 0 0-.72-1.4.7.7 0 0 1 .72-.7v-.7h-.72a.7.7 0 0 0-.71.7v1.4Zm19.36 18.94.71-.7.72.7-.72.7zm7.88 9.13h.72v.7l-.71.7zm-2.15-1.4-.71-.7h2.15l.71.7a.7.7 0 0 0-.71.7 2.5 2.5 0 0 1-1.44-.71Zm3.59 0-.72-1.4.72-.7.72.7-.72.7Zm15.06-4.21-.72-.7.72-.7h1.44Zm-1.43.7v-2.12l.71-.7-.71-.7h-.72l-.72-1.4h-1.43l.71-.7h.72l.72-.7s1.43-2.1 2.87-2.1h2.15l1.43-1.4v-.7c.72 0 0-1.4 0-1.4v-1.4l-2.15-1.4-2.87-1.4s0-1.4-.71-1.4l.71-1.4a10 10 0 0 1 2.87-2.8 2.2 2.2 0 0 1 1.43-.7c.72 0 1.44.7 2.16 1.4h2.86v-2.1c0-.7 0 0-.71-.7l-.72-.7v-4.26a7 7 0 0 0-.72-2.1 2.4 2.4 0 0 0-.71-1.4l-.72-1.4v-.7a7 7 0 0 1 .72-2.82 3.4 3.4 0 0 0 .71-2.1l-.71-.7-2.87-.7-.72-.7a.7.7 0 0 0-.72-.7l-2.86.7a10 10 0 0 0-2.16 1.4c-1.43 0-1.43 0-2.15.7-1.43.7-1.43 1.4-2.15 2.1-.71 0-1.43 1.4-1.43 1.4-.72.7-.72.7 0 1.4 0 .7.72 0 .72 0h1.43c.72 0 .72.7 0 .7v.7l-.72.7v1.4a.7.7 0 0 1-.71.7l-1.44 1.4a.7.7 0 0 0-.72.7c0 .7 0 .7.72 1.4v.7c0 .7-.72 1.4-.72.7v-.7h-2.87l1.44-1.4.71-.7v-.7h-2.86l.72-.7v-1.4l.71-1.4s0-1.4.72-1.4a2.4 2.4 0 0 0 .72-1.4c.71 0 0-.7 0-.7h-1.44l-1.43.7a17 17 0 0 1-2.87.7h-.72a.7.7 0 0 0-.71-.7h-1.44a.7.7 0 0 0-.72.7 10 10 0 0 1 2.87 1.4h.72v.7s-.72 1.4-1.44 1.4a.7.7 0 0 1-.71.7l-1.44.7.72 1.4v1.4l-1.43-.7-2.16 1.4h-.71a.7.7 0 0 1-.72-.7l-.72 1.4a32 32 0 0 0-3.58-.7v1.4l1.43.7-1.43.7 2.86 1.4.72.7.72 2.11-.72.7 1.44 1.4a2.2 2.2 0 0 0 .71 1.4v3.5s-1.43.7-1.43 1.4h.72l1.43 1.4.72 1.4a2.4 2.4 0 0 0-.72 1.4l1.43.7h7.18l2.15-.7s1.43 1.4 2.15 1.4a.96.96 0 0 1 0 1.4.7.7 0 0 1-.72.7l.72 2.11c.72.7.72 0 .72 0l1.43 1.4a.7.7 0 0 0 .72.7h.72a.7.7 0 0 1 .71.7h2.15a.7.7 0 0 0 .72-.7h1.44v-1.4Zm0 3.5-.72.7h.72l1.43.7h.72l.72-.7.71-1.4 2.15-.7h2.15l.72-.7v-.7l-1.43-1.4h-4.3v1.4c-.72.7-.72.7-1.44.7h-.71Zm-7.9 8.42h.73l.71-.7-.71-1.4-.72-.7-.72-2.1-1.43-1.4-.72-.7-.72 1.4-.71.7-.72.7a10 10 0 0 1-2.87-1.4l-1.43-.7a2.2 2.2 0 0 1-1.44-.7l-.72-.7a.7.7 0 0 0-.71-.7c0-.7-.72 0-1.44 0h-2.15a.7.7 0 0 1-.72.7c-.71.7 0 2.1 0 2.1v.7l.72 1.4h-2.15l.71 1.4a2.2 2.2 0 0 0 .72 1.4l.72.7 3.59.7h.71l2.87 1.4 1.44 1.4h1.43l.71-.7 2.16-.7h1.43l2.15.7h.72v-2.1Zm-27.96-28.77-1.44-.7-1.43-2.1-2.15-.7-.72-2.11c-.72-.7-.72 0-.72 0a3.4 3.4 0 0 1-.72 2.1h-1.43l-1.43 1.4a17 17 0 0 1-2.87.7l-.72.7-4.3-.7-1.43 1.4v.7l.71 1.4.72.7h.72v1.4l.72 1.4a9 9 0 0 1 1.43 2.1c.72 1.4 0 2.1 0 2.1l2.15 2.11 1.44.7a2.5 2.5 0 0 0 1.43.7v2.1l.72 1.4.71-.7.72-.7 3.59 1.4a19 19 0 0 0 3.58 1.4l1.44-1.4c.72-.7 2.87-.7 2.87-.7a.7.7 0 0 0 .71-.7c0-.7.72-1.4.72-2.1a2.4 2.4 0 0 1 .72-1.4v-1.4l-.72-2.1.72-2.8-1.44-1.4-.71-.7v-1.4l1.43-.7v-2.1l2.15-1.4.72-2.1a32 32 0 0 0-3.59-.7c-1.43 0-.71 0-.71-.7l-.72-.7-1.44.7c-.71 0-.71-1.4-.71-1.4l-1.44.7h-2.15v.7c-.72.7 0 1.4.71 1.4a7 7 0 0 0 .72 2.1l.72 1.4Zm-1.44-9.82h1.44l.71-1.4a2.4 2.4 0 0 0 .72-1.4v-2.1l-.72-.7-.71-1.4-.72-2.12h-1.43v1.4a2.4 2.4 0 0 0 .71 1.4l.72.7v.7l-.72.7-.71 1.4.71 1.4Zm3.59 35.07.72 2.11.71 1.4s1.44.7 1.44 0-.72-1.4 0-2.1c0-.7.72-2.11.72-2.81s.71-1.4.71-2.1a5.3 5.3 0 0 0 1.44-2.81 7 7 0 0 0 .71-2.1v-2.1l-.71-2.1-.72 1.4v1.4l-1.44 2.8-.71 1.4-1.44 1.4v2.12l-.71.7v.7Zm-3.59-6.3.72.7s.72 2.1 1.43 2.1l2.16-2.1v-1.4l.71-1.4-2.15.7-1.43 1.4Zm-6.45 1.4.72 2.1a2.5 2.5 0 0 1 1.43.7l1.44 1.4a.7.7 0 0 0 .71.7l1.44-.7.71-1.4h-1.43c-.72 0-1.44-1.4-1.44-1.4h-.71c-.72 0-2.16-1.4-2.16-1.4Zm-11.47-2.1 1.43.7.72.7 1.43.7-1.43 1.4s.71 1.4 1.43.7h.72l1.43.7a2.7 2.7 0 0 0 2.16.7.7.7 0 0 0 .71-.7v-1.4l-.71-1.4-.72-1.4-2.87-.7-1.43-1.4-2.15-.7h-.72Zm23.66-85.6v.7h1.44l1.43.7c0 .7.72 0 .72 0 .71 0 .71-.7.71-1.4l.72-.7 2.15-1.4c0-.7-1.43-.7-1.43-.7l-2.15.7-2.15.7Z"/><path fill="url(#a)" d="m173.78 633.19-.72-1.4-4.3.7-3.59-.7 1.44-2.11.71-1.4-.71-1.4.71-2.11.72-2.11.72-1.4s0-2.81-.72-2.81c0 0-2.15-2.81-2.15-3.5l-2.87-4.22a57 57 0 0 1-4.3-5.61c-1.44-2.12-.72-2.12-.72-2.82l1.43-2.1h3.59v-3.51c-.72 0-2.15-1.41-2.15-1.41l-2.87-1.4.71-2.81h2.87l1.44-.7 1.43-.7a3.4 3.4 0 0 0-.71-2.1c0-.7.71-3.52 1.43-3.52 0-.7-2.15-1.4-2.15-1.4s-1.44 1.4-2.15 1.4l-2.15-2.1-2.87-4.92-2.15-1.4-1.44-2.1c-.71-.7-1.43-1.4-1.43-2.1-.72-.7-1.44-3.52-1.44-3.52s-2.87-7.02-3.58-7.72v-2.8c-.72-.7-.72-1.4-1.44-1.4s-.71.7-2.15.7c-2.15 0-1.43-.7-1.43-.7v-7.03h-2.15c-.72-.7 0-2.1 0-2.1a10 10 0 0 0 .58-1.4 5 5 0 0 1-2.73-.7c-.72-.7 0-2.1 0-2.1s2.15-1.4 2.15-2.12c.71 0-1.44-.7-2.15-1.4-1.44-.7.71-2.8.71-2.8a3.4 3.4 0 0 1 .72-2.11c.36-.35-.36-.18-1.26 0s-1.97.35-2.33 0c0-1.4 2.15-3.51 2.15-3.51v-1.4l-2.87 2.1a28 28 0 0 1-2.15-2.8l2.87-3.5-2.15-.7-.72-.7 1.44-2.8.71-2.12s-1.43 1.4-2.15 1.4l-2.15-2.8.72 2.1-2.87.7a30 30 0 0 1-.72-3.5l-1.43-3.52.72-4.91s-.72-4.92-1.44-5.62-1.43-3.5-1.43-3.5l.52-3.6-2.7-1.33c0-1.4-2.88-4.92-3.6-7.72-1.44-2.1-4.3 0-4.3 0s-2.16 4.91-3.6 4.91a20 20 0 0 0-3.6 2.8s-3.59 4.22-5.74 5.63c-1.44 1.4-.72-1.4-1.44-4.22 0-2.8-2.15-2.1-2.15 0 .72 1.4-4.3 3.51-5.75 3.51-2.15 0-5.03 3.51-5.03 3.51l-2.15 7.02-5.75 9.83s-8.62 4.91-9.34 4.91l-3.59 3.51c-1.43 2.1-2.87 2.1-3.59 2.1-1.43 0-.72-1.4-2.87-2.1-1.44-.7-3.6 2.81-3.6 2.81L51 532.1l-4.3.7c-.73 0-3.6-1.4-4.32-.7 0 0-2.15 1.4-2.15.7s-1.44-1.4-1.44-1.4-10.06-2.1-11.5-2.81 2.16-3.5 2.16-3.5 2.88-2.11 2.16-2.11c0-.7-2.88-.7-5.03-1.41a9 9 0 0 1-3.6-.7l-2.87-2.8-.71-1.41c0-1.4-1.44-1.4-3.6-2.81s-3.59-3.5-3.59-4.21c0 0-2.87-4.91-3.59-6.32a3.3 3.3 0 0 1 0-2.8s2.15-3.51 2.87-4.92c0-1.4.72-.7 1.44-.7s4.31-.7 4.31-.7c.72 0-1.44-2.8-1.44-2.8l2.16-2.81s1.43-3.51.72-3.51a2.5 2.5 0 0 1-.72-2.11 5.5 5.5 0 0 0-2.87-1.4 9 9 0 0 0-3.6 1.4l-2.87 1.4c-.72.7-.72 0-2.15 0-1.44-.7-.72-2.1-.72-3.5 0-.7 2.15-2.1 3.59-3.52.72-2.1-2.16-2.1-2.16-2.1l-3.59-2.1 2.16-4.22-.72-2.1s2.87-1.42 2.87-2.12a1.4 1.4 0 0 0-1.44-1.4l-2.15-2.81c0-.7 2.15-1.4 2.15-2.1.72 0 2.16-2.1 2.16-2.1 0-.7-2.16-1.41-2.87-.7-.72 0-2.16 1.4-2.16 1.4L0 452.77s2.87-4.22 3.6-4.92c0-1.4 1.43-.7 2.86-.7 2.16-.7 2.16-1.4 2.16-1.4 0-.7-3.6-.7-5.03-.7l-2.87-2.81c-1.44-2.1 1.43-2.8 1.43-3.5v-3.52l1.44-5.62s1.44-1.4.72-2.1c0-.7-1.44-2.81-2.16-4.22v-2.8a16 16 0 0 1 3.6-2.1c.71 0 0-2.11 0-2.11s4.3-4.21 4.3-4.92a16 16 0 0 1 .72-2.8l-5.74.7H4.3c-.72 0-1.44-.7-1.44-2.11 0-2.1.72-1.4 2.16-2.1s1.43-1.4 1.43-2.81a2.3 2.3 0 0 1 2.16-2.1c.72-.7 4.3-3.52 5.02-4.22 0-1.4-2.15-1.4-4.3-2.1-1.44-.7-2.88-3.51-2.16-4.92.72-.7 1.44-2.1 2.16-2.1a10 10 0 0 0 1.43-2.1s-3.59-.7-4.3-.7c-.72.7-1.44-1.41-1.44-2.11a1.5 1.5 0 0 1 1.43-1.4c0-.7 2.16-1.4 2.16-2.1a7 7 0 0 0-.72-2.11l2.15-1.4c.72 0 1.44 1.4 2.16.7.72 0 1.43-2.1 1.43-2.1h-.71a13 13 0 0 1-2.16-2.82c-.72-.7 0-2.1 0-2.8 0-1.4 1.44 0 3.6.7s1.43.7 2.15 1.4a5.3 5.3 0 0 0 2.15 2.1c.72 0 1.44-1.4 1.44-1.4l-2.15-1.4a26 26 0 0 0 .71-5.62c0-2.1 2.16 0 2.16 0s2.87 2.11 4.3 1.4c.73 0 0 0 .73-2.8.95-1.87 1.27-1.87 1.38-1.87.05 0 .05 0 .05-.24.72-.7 4.31-1.4 4.31-2.1.72-.7-.71-2.1-.71-2.81a5.3 5.3 0 0 1 1.43-2.8c.72-.7 2.88 2.8 3.6 2.8.71.7 2.87 0 2.87 0a43 43 0 0 1 2.87-4.21c.72-.7 3.6 1.4 4.31 2.1.72 0 3.6 2.1 5.03-.7 1.43-2.1 0-2.8 0-2.8s-3.6-.7-5.03-2.81c-2.16-2.1 0-2.1 1.44-3.51.71-1.4.71-2.1 1.43-2.81 1.44-.7 6.47 0 6.47-.7.71 0 3.6-2.1 3.6-2.1l2.86 2.1s4.31 2.1 5.75 3.5 1.43-1.4 1.43-1.4l-1.43-3.5a5.3 5.3 0 0 1 1.43-2.82c.72 0 0-2.1 0-2.8.72-1.4 4.31-1.4 4.31-1.4s2.16-1.4 1.44-2.81c0-.7-1.44-2.1-1.44-2.1s-2.87-1.4-2.87-2.81c-.72-1.4 1.44-1.4 1.44-1.4l.71-5.62a31 31 0 0 1 4.32-1.4c1.43-.7 2.87 2.1 3.59 2.8s0 .7.72 2.11c0 .7 1.43.7 2.15.7h6.47c.71 0 1.43-2.8 1.43-2.8l1.44-.7 6.46 2.8a21 21 0 0 1 2.16 4.21c1.43 2.81 2.87.7 3.6.7 1.43 0 2.14-.7 4.3-2.8 1.44-1.4.72-1.4 2.87-1.4 1.44 0 2.87-2.1 2.87-2.1l-1.43-2.82-2.16 1.4-3.59 2.82h-7.18c-.72 0 0-4.22 0-4.22a33 33 0 0 1-5.74-.7c-2.88-.7 1.43-4.9 1.43-4.9l2.15-1.41 5.03-2.8-2.87-2.81.72-1.4a33 33 0 0 0 1.43-3.52 20 20 0 0 1 3.6-2.8c2.15-1.41 2.15-2.81 2.15-3.52s1.44-4.21 4.31-7.02c2.87-2.1 3.6-1.4 3.6-1.4l2.87-2.1s3.59 2.8 4.3 2.8c1.44 0 3.6-.7 2.88-3.5 0-2.1-1.44-1.4-1.44-1.4l-5.03 1.4a15 15 0 0 0 .72-4.22c0-2.1 2.16-2.1 3.6-2.8.71-.7 2.15-.7 3.58-2.1s-.71-1.4-1.43-1.4-3.6 1.4-5.03 2.1h-2.87c-2.16 0 0-2.1-.72-2.8l4.31-2.81h5.03l1.43-2.81v-2.81l2.88-.7s3.59 2.8 3.59 2.1v-4.2s3.59-2.11 3.59-3.52a.7.7 0 0 0-.72-.7l-1.43-3.5 5.02-2.82a23 23 0 0 0-2.15-4.2 29 29 0 0 1 2.15-5.62l2.16-4.22v-7.01c0-.8.23-.7.7-.58a2 2 0 0 0 1.45-.13c.72 0 .72-2.1.72-2.1l4.31-4.21a11 11 0 0 1 2.87 1.4s4.31-.7 5.03-.7c.72-.7 1.44-4.21 1.44-4.21a9 9 0 0 0-3.6-1.4c-.71-.7-4.3.7-4.3.7-.72 0-2.88-2.81-2.88-2.81s.72-4.92 0-6.32a3 3 0 0 1 1.44-2.81c.72 0 2.15-2.1 1.43-3.5a3 3 0 0 1 1.44-2.82 16 16 0 0 1 3.6-2.1c1.43-1.4-.73-2.8-.73-2.8a16 16 0 0 0-.71-2.82l5.02-2.8s2.88-1.4 2.16-1.4c0-.7 1.44-1.4 1.44-1.4l2.87-2.82.72-1.4s-2.16-2.1-2.16-2.8c0-1.41.72-2.82.72-3.52a4.4 4.4 0 0 1 2.87-.7l1.44-2.1c0-.7.7-2.07.72-2.78.58.13 5.02.67 5.02.67l6.47-.7c.72-.7-3.59-.7-3.59-.7a32 32 0 0 1-3.6-.7l1.44-2.81s2.88-2.1 2.88-2.81a1.33 1.33 0 0 0-.72-2.1c0-.7-4.31.7-5.03.7l-2.15-2.81 2.87-4.21 6.46-.7a2.5 2.5 0 0 0 1.44-.7l2.87-1.4 4.31.7 2.88-.7.72-1.41s0-1.4-3.6-2.8c-4.3-1.4-1.43.7-2.87 2.1-2.16.7-3.6 1.4-4.3 1.4s-.73-.7-3.6-2.1c-2.16-1.4 2.87-2.1 2.87-2.8-.72-.7-6.46-4.22-7.9-3.52-.72.7-3.59.7-6.46.7-2.87.7-2.16 0-3.6 0-.7 0-3.59 3.52-5.74 3.52-2.15.7-4.3 2.8-6.46 2.8a5 5 0 0 0-2.88 1.4s0 3.51-1.43 5.62c-1.44 2.8-3.6 2.1-5.03 1.4s1.43-2.11 1.43-2.8v-2.81s6.47-5.62 6.47-7.02c.72-2.11 2.87-3.51 4.3-4.21.73 0 3.6-3.52 3.6-3.52h5.75s5.74-.7 7.9-2.1c1.43-1.4 0-2.1 0-2.1s-3.6-.7-3.6-2.81-.71-1.4-.71-1.4a19 19 0 0 1-2.87-3.51c-.72-1.4 2.15-6.32 2.15-6.32s5.03-7.02 6.46-9.13a7.2 7.2 0 0 1 4.32-1.4l4.3-4.21a7.5 7.5 0 0 1 2.88-5.62c2.15-2.1 2.87 2.81 2.87 2.81s.72 4.91.72 6.32 0 .7 4.31 7.02c2.94 4.3 3.2 3.72 3.3 3.13.05-.28.06-.55.29-.33 0 .7 0 0 3.59.7 3.59 1.4.72-2.1.72-3.5 0-.7 1.43-.7 6.46-3.52 5.03-2.1 0-.7.72-2.1v-3.51s0-2.81-1.44-3.51c-.72-1.4-1.43 1.4-1.43 2.1a11 11 0 0 1-5.75 2.1c-2.15 0-1.44-1.4-1.44-2.8v-2.1c.72-.7 0-3.51 0-4.92 0-2.1 2.88-2.1 2.88-2.8a14.3 14.3 0 0 1 5.74-5.61c3.6-.7.72 0 1.44 0 1.44-.7 7.18-2.81 7.18-2.81l-2.15-2.81s3.59-4.21 5.02-4.21 2.16-.7 4.32-1.4c.63-.32.85-.08.95.17.13.3.08.6.48-.18 0-1.4-.71-2.8-1.43-2.8a40 40 0 0 1-2.88-4.92s2.16-4.2 4.31-4.9 3.6.7 4.31.7c.72.7 1.44 0 2.88-.7.71 0-.72-1.41-2.16-3.52-1.44-1.4 0-3.51.72-4.21s2.87.7 3.6 1.4l2.86 1.4a44 44 0 0 1 1.44 6.32c0 1.4-2.87 2.81-2.87 3.5a7 7 0 0 0 .71 2.12s3.6-3.51 5.03-4.21c.72-.7 0 0 .72 0s3.6 0 5.03-1.4c2.15-.7-2.15-.7-2.15-.7-.72 0-2.16-1.41-4.31-3.51s0-2.81 0-3.51.72-2.11 4.3-2.11c2.88-.7 1.44 2.8 2.16 4.92 0 2.1 4.3 2.8 4.3 2.8s1.45-1.4 2.17-1.4c1.43 0 1.43.7 5.02 3.5 3.6 2.12 1.44-.7 1.44-.7 0-.7 0-2.8-.72-3.5s-3.59-1.4-3.59-1.4c-.72-.7-2.87-1.4-5.03-4.22-1.85-2.25-1.32-1.9-.52-1.54.45.2.98.4 1.24.14l2.16-2.1s2.15-1.4 2.87 0c1.44.7 3.6 2.1 3.6 2.1l.7.7s-2.15-3.5-1.43-4.91c.72-2.1 1.44 0 1.44 0s5.02 1.4 5.74 1.4c.72.7.72 1.4 6.47 6.32 5.03 4.91 2.15-.7 2.15-.7v-5.7c-.71-.7-4.3-1.4-4.3-1.4-.72 0-2.88-2.1-2.88-2.8 0-1.41 1.44-2.11 2.88-2.11.71 0 5.74 2.8 7.18 2.8 1.43.7 1.43 0 1.43 0s1.44-1.4 1.44-2.1a7.5 7.5 0 0 1 .72-3.51c0-1.4.72-3.51 2.16-4.21.71-.7 3.59-.7 3.59-1.4v-4.93c0-.7 4.3 0 4.3-.7.72 0-.71-2.1-.71-2.1l-2.88-1.4c-1.43-1.41-.71-2.11-.71-2.81s2.87-.7 2.87-1.41-.72-.7-1.44-2.1 0-2.1 1.44-4.21c1.43-2.81.72 0 1.43 0 0 0 4.31 2.8 5.75 3.5 2.16.7 1.44-1.4 2.16-2.1s0-2.81 0-3.5c-.72 0-1.44-.7-2.16-.7-.72-.7-1.44-2.12-.72-2.82 0-.7 3.6-2.1 4.31-2.8 1.44-.7 2.88.7 4.31 1.4a4.5 4.5 0 0 1 2.16 3.5s-2.88 2.8-2.88 3.51c-.71 0 .72.7.72.7.72.7.72 4.21.72 4.21l-2.87 5.62-2.16 4.21-1.43 4.92v9.12s2.87 1.4 4.3.7a1.4 1.4 0 0 0 1.44-1.4l.72-6.32 1.44-4.91v-6.32l2.87-4.91v-7.02l5.75-4.92 2.87 5.62-2.15 5.61-.72 4.92 4.3 3.5 2.88-5.6v-4.92l-2.15-3.51 2.87-5.62-2.87-4.91L322.52 0l4.31 2.1h1.44l3.59-.7v2.81c.71 1.4 3.59 2.1 3.59 2.1v-2.1l9.34 2.8 6.46-.7 4.3 2.81s5.76-2.8 7.9-2.8c1.44 0 2.16 2.1 2.16 2.1l3.6 5.61 8.61 6.32-5.02 4.22-.72 4.91s-11.5 2.81-12.93 2.81c-2.15.7-6.46 0-8.62 0-1.43.7 1.44 2.8 1.44 2.8h5.75c2.15-.7 4.3 2.11 4.3 2.11l5.75 1.4 5.75-2.1.72 7.01s3.59-4.2 5.74-5.61c1.44-1.4 2.88 4.21 4.31 7.72 1.44 2.8-2.87 4.91-2.87 4.91l-5.75-.7.72 5.62-5.02 4.91s-3.6 2.81-2.88 5.62c.72 2.1.72 8.42.72 8.42a15 15 0 0 1-3.6.7.7.7 0 0 1-.58-.28 24 24 0 0 1-3.07 2.69l-2.9 3.5 5.07 1.4v6.3l-.73 4.2-2.17 2.8 2.9 4.2 3.62 5.6 5.07 2.8s.73-.7 5.8 0a9.7 9.7 0 0 1 6.51 5.6l2.9 3.5 4.34 2.8 2.18 2.1-.73 6.3s-2.17 3.5-1.45 6.3c0 3.5-2.17 8.4-2.17 9.8 0 .7-1.45 6.3-1.45 6.3l2.18 4.9 2.9 2.8 4.34 4.9 5.8 6.3 2.17 4.9s5.79 3.5 5.79 4.2 2.17 4.2 2.17 4.2l2.9 4.9-.72 3.5-2.18 3.5v2.1l2.18 2.8-.73 2.8 2.17 4.2-1.44 2.8 3.62 1.4s.72.7 0 2.1c-.73.7-1.45 5.6-1.45 5.6l3.62 5.6 5.07.7s2.9 0 2.9.7a10 10 0 0 1 1.45 2.8l-2.18 4.2a7.6 7.6 0 0 0 2.9 3.5c1.45.7 2.9.7 2.9 2.1.73 1.4.73 3.5 1.45 2.8a27 27 0 0 1 4.35.7l2.17 3.5 1.45 2.8v2.8c0 1.4-.73 5.6-.73 5.6l-3.62 5.6a31 31 0 0 0 5.07 4.9c2.17 1.4 5.07 3.5 5.8 3.5a23 23 0 0 1 5.78 1.4 12 12 0 0 1 4.35 2.1 67 67 0 0 0 5.8 3.5l4.33 2.1 4.35 3.5 1.45 8.4s-1.45 12.6-2.17 14c0 1.4-2.18 7.7-2.9 8.4-1.45.7-2.9 1.4-2.9 2.8s-2.17 9.1-2.17 9.1-2.18 4.9-2.18 6.3-2.17 5.6-2.17 7c-.72.7-2.17 6.3-2.17 6.3l-9.41 18.19-2.18 7a5.7 5.7 0 0 0-2.9 2.1c-.72 2.1-1.44 3.5-2.17 5.6 0 1.4-3.62 7.7-3.62 7.7l-1.45 3.5-2.9 3.5-2.17 1.4h-5.07l-2.17-1.4-2.17 1.4c0 .7-1.45 1.4-1.45 2.1 0 0-.73 1.4-1.45 1.4-.72.7-1.45 1.4-2.17 1.4 0 .7-1.45.7-1.45.7a2 2 0 0 1-.72 1.4s-2.18 0-2.9-.7c-.45-.43-1.16-.86-1.48-1.13a9 9 0 0 1-.7 1.83c0 .7-1.45 2.8-2.17 2.8a5.6 5.6 0 0 1-2.9-1.4h-1.45v4.9a8 8 0 0 0-2.17.7s.72 1.4 0 1.4c-.73.7-1.45 1.4-2.17 1.4 0-.7-1.45-1.4-1.45-1.4a10 10 0 0 0-1.45 2.1 2.4 2.4 0 0 1-.72 1.4l-5.07 5.6c-.73 0-2.18-2.1-2.18-2.1v2.1a10 10 0 0 1-2.17 1.4c0 .7-.72 0-1.45 0 0 .7-.72.7-.72 1.4a2.4 2.4 0 0 1-.72 1.4s-1.45.7-1.45 1.4a10 10 0 0 1-2.18 1.4 1 1 0 0 1-1.44 0c-.73 0-2.18-2.1-2.18-2.1s-1.44 0-1.44.7c-.72.7-.72 1.4-1.45 1.4a2.7 2.7 0 0 1-2.17.7c-.73.7-2.17.7-2.17 1.4-.73 0-1.45 1.4-1.45 2.1s1.45.7 0 .7a10 10 0 0 1-3.62.7s-1.45.7-1.45 1.4c-.73.7 0 .7-1.45 1.4a2.6 2.6 0 0 0-1.45.7l-1.44-1.4.72-1.4s-.72-1.4-.72-.7c-.73 1.4 0 2.1 0 2.1a.7.7 0 0 0-.73.7c-.72.7 0 .7-.72 1.4a1.53 1.53 0 0 1-1.45 1.4c0 .7-.72.7-1.45.7H354c-.72 0-1.45-.7-.72-.7l1.45-.7s.72-.7 0-.7l-1.45-1.4c.02.01.7.7-1.45.7q-2.17 1.05-2.17 0s-1.45 0-.73-.7c1.45-.7 1.45-1.4 2.17-1.4.6 0 .7-.94.73-1.66q-.27-.15-.73-.44l-1.44-2.1a2.4 2.4 0 0 0-.73 1.4c.73.7 2.17 1.4 0 2.1h-2.17c-.72.7-2.9.7-2.9.7s-1.45 0-.72.7c0 .7 1.44 1.4 1.44 1.4s0 .7-1.44.7a3.7 3.7 0 0 1-2.18.7l-.72.7a.7.7 0 0 1-.72-.7 2.4 2.4 0 0 0 .72-1.4c0-.7.72 0 0-.7-.72-1.4-1.45-1.4-1.45-2.1a10 10 0 0 1 2.17-1.4v-1.4s-.72 0 0-.7a9 9 0 0 1 1.45-2.1 1.53 1.53 0 0 0-1.45-1.4 7 7 0 0 0-.72 2.1s.72 1.4-1.45.7c-2.17 0-3.62 0-4.34-.7 0-.7-1.45-1.4.72-1.4l2.17-.7a2.5 2.5 0 0 0 .73-2.1c-.73 0-1.45-1.4-1.45-.7a5 5 0 0 0-.73 2.1H333a2.4 2.4 0 0 1-.72-1.4l.72-2.8s1.45-.7.72-.7c0 0-1.44-.7-1.44 0-.73 0 0 .7 0 1.4s0 1.4-.73 1.4c-.72.7-3.62.7-3.62.7 0-.7-.72-.7 0-1.4v-1.4s-.72-1.4-.72-.7h-1.45v-1.4h-2.17l-.73-.7c-.72 0-.72 0-.72.7a17 17 0 0 0-2.9.7s0-1.4-.73 0c0 .7-3.62.7-3.62.7a7 7 0 0 1-.72-2.1l.72-2.1.73-.7-.73-.7h-1.45c0-.7 1.45-2.1 1.45-2.1l.73-.7c.72-.7 2.17-.7 1.44-1.4a2.6 2.6 0 0 1-1.44-.7.7.7 0 0 1-.73-.7 7 7 0 0 0 .73-2.1 2.4 2.4 0 0 0-.73-1.4c-.72 0 0 .7-1.45.7a29 29 0 0 1-2.9 2.1v-2.1c.73-.7 2.9-.7 3.62-1.4 0-.7-1.44-2.8-1.44-2.8s1.44.7.72-.7l-1.45-.7a2.5 2.5 0 0 1 .73-2.1c.72-1.4 1.44-1.4 1.44-2.1 0 0-2.17-.7-2.17-1.4s-1.45-.7 0-2.1a2.3 2.3 0 0 1 1.45-.7V389c0-.7.72-.7.72-1.4-.72-.7-1.44-.7-2.17-2.1v-1.4c.73 0 1.45-.7.73-.7V382l-.73-1.4a4 4 0 0 1-.72-2.8 29 29 0 0 1 .72-3.5s0-2.1-1.45-2.8a5.3 5.3 0 0 0-2.17-2.1v-2.1s-1.45-.7-1.45-1.4a7 7 0 0 0-.72-2.1s-.73 0 0-1.4v-3.5a5.2 5.2 0 0 1-1.45-2.8V354a2 2 0 0 0-.72-1.4 43 43 0 0 1-2.9-4.2s-.73 0-.73-1.4a7 7 0 0 1-.72-2.8v-2.1l-2.17-2.1.72-2.8v-2.8s0-3.5.72-3.5 2.18-2.1 2.18-2.1 1.44-2.1.72-2.8a29 29 0 0 0-.72-3.5s1.44-2.1.72-2.1a18 18 0 0 0-1.45-3.5l-2.17 2.1-1.45-.7.73-2.8s-1.45-1.4-1.45-2.1 1.45-2.1 1.45-2.1a18 18 0 0 1 1.44 3.5c0 .7 1.45 1.4 1.45 1.4.73-.7.73-2.1 1.45-2.1a1.53 1.53 0 0 1 1.45 1.4l2.9-.7s-.73-.7 1.45-.7c2.17.7 2.17 0 2.17-1.4 0-.7-2.17-3.5-.73-3.5 2.18 0 2.9.7 2.9.7v1.4c0 1.4 2.18 2.8 2.18 1.4.72-1.4.72-.7.72-2.1s-1.45-1.4-2.17-2.8c0-.27-.1-.23-.23-.2-.21.05-.5.1-.5-1.2.73-2.1.73-2.8 1.45-2.8l1.45-.7c1.45 0 2.17-1.4 1.45-3.5 0-1.4-.73-2.1 0-2.8 1.45-.7.72-1.4 2.17-.7s.72.7 2.17.7c.72-.7.72-4.2.72-4.2-.72.7-2.17-.7-2.17-.7-.72 0-.72-1.4 0-2.1 0 0 0-1.4.73-1.4 1.45 0 1.45.7 2.9 0l1.44-1.4c.73-.7 1.45-.7 2.17-2.1 0-.7.73-4.9.73-4.9-.72-.7.72 0 2.17-.7.73-.7 1.45-4.9 2.17-5.6.73-1.4 2.9-4.2 2.9-4.9a47 47 0 0 1 2.18-5.6l2.9-4.9a7 7 0 0 0-.73-2.8c0-.7-.72-3.5 0-4.2.73 0 1.45-2.1 1.45-2.1v-2.8l3.62-2.1c4.35-.7 1.45-2.8 6.52-.7 0 0 2.9-.7 2.17-1.4l-2.9-2.8 1.45-2.1s2.17-1.4 0-2.1c-1.45-.7-2.9-1.4-2.9-2.1a29 29 0 0 1-.73-3.5 16 16 0 0 0-.72-2.8v-3.5a7 7 0 0 0-1.45-3.5c-.72-.7-3.62-2.8-3.62-2.8l-5.07-2.1-1.45 1.4-3.62-3.5-2.9-.7h-2.9l-2.78-5.76 2.12 4.5a9 9 0 0 0-2.15 1.4 2.2 2.2 0 0 0-.72 1.4s2.15 2.1 2.15 2.8v2.82l-1.43 1.4-1.43-2.11v-1.4c0-.7-.72-1.4-.72-2.1h-.72c-.72 0-.72-.7-1.43-1.41s0 0-.72 0a2.5 2.5 0 0 0-1.44.7 5.3 5.3 0 0 0 1.44 2.8c0 .7-.72 1.4 0 2.11v1.4c0 .7-2.15-.7-2.15-.7v-3.5c-.72-.7-1.43-1.4-2.15-1.4h-.72c0-.7 0-.7-.72-1.41-.71 0 0 .7 0 1.4h-1.43a2.5 2.5 0 0 0-1.44-.7h-1.43v1.4l-2.87 1.41-2.15.7a2.2 2.2 0 0 1-.72 1.41c-1.43.7-1.43.7-2.15.7s-1.43 1.4-1.43 1.4c0 .7.71.7 1.43.7.72.7 0 2.82 0 2.82a7 7 0 0 0-.72 2.1c-.71 0-1.43 1.4-2.86.7-.72-.7-1.44 1.4-1.44 1.4V231c-.71 0-1.43-1.4-1.43-2.1l-2.87-.7v2.1l.72 2.1-2.16.7s-1.43.7-1.43 1.4l-.72.7s.72 1.4 1.44 1.4.71 2.11.71 2.11 0 1.4-.71 1.4a2.3 2.3 0 0 0-1.44-.7 2.4 2.4 0 0 0-.71 1.4c-.72 0-.72 2.11-.72 2.11a30 30 0 0 1 .72 3.5 2.4 2.4 0 0 1-.72 1.41l-1.44 2.11-1.43 2.1a2.4 2.4 0 0 1-.72 1.4l-1.43 2.11 1.43 1.4.72 1.4 1.43 2.11-.71 1.4 1.43 1.4h2.15l2.87 2.11 1.44 2.81v2.11h-.72a16 16 0 0 1-.72 2.8l-2.15 2.82s-.72 2.1-1.43 2.1a2.4 2.4 0 0 1-.72 1.4l-1.44 3.51v4.21l-1.43 2.81a7 7 0 0 0-.72 2.81.7.7 0 0 1-.72.7s-1.43 3.52-2.15 3.52c0 .7-1.43.7-1.43 1.4a2.2 2.2 0 0 0-.72 1.4l-2.15 2.8a2.5 2.5 0 0 0-1.43.7l-2.15.7s-2.16 2.11-2.16 2.81l-2.15 2.11v2.1a7 7 0 0 0-.71 2.11 2.5 2.5 0 0 0-1.44-.7v.7h-2.14l.72-1.4c0-.7-1.44 0-1.44 0l-1.43 1.4-.72.7v2.11l-1.43 3.51c0 .7-.72 2.11-.72 2.8a2.5 2.5 0 0 0-1.43.7l-1.44 1.4c-.71.7-1.43.7-1.43 0l-2.15 2.1-2.16 2.11a28 28 0 0 0 2.16 2.81c0 .7-1.44.7-2.16.7v1.4l-2.15 4.22c0 .7 0 .7-.71 1.4a1 1 0 0 1-1.44 0l-1.43 2.8a2.5 2.5 0 0 1-1.44.7l-.71 2.11v2.1l-1.44-.7.72 2.12-.72 2.8c0 .7-2.15 2.1-2.15 2.1l-1.43 2.1h-2.87l-1.43 4.22 1.43 1.4.72 1.4 2.15 2.11-.72 4.21-.72 4.91-.71 1.41c-.72 0 .71 2.8.71 2.8s0 3.52.72 4.21c0 0 1.44 1.41 1.44 2.11l.71 2.1c0 .7-2.15 0-2.15 0l-2.15-1.4c-.72 0-1.43 1.4-1.43 1.4v2.82c-.72 0-1.44 1.4-1.44 1.4l1.44 1.4-.72 2.1v2.81h1.43l1.44 2.81a18 18 0 0 1-1.44 3.51s2.87 6.32 2.87 7.02l-1.43 2.11 2.15 2.8v1.41s2.15 1.4 2.15 2.1c.72.7-.72 2.1-.72 2.1v2.15l2.87.7h2.15a17 17 0 0 1 2.87.7v2.8l.72 1.41 2.15-2.1 3.59-2.11s.72 2.1 1.43 2.1l.72 2.11 2.87 2.8c.71 1.41 1.43 1.41 1.43 1.41 1.22 3.18 1.52 2.53 2.07 1.88.42-.5.99-1 2.23.23l1.44 1.4a5 5 0 0 1 1.43 2.8c0 .7-1.43.7-1.43.7l1.43 2.82a4.4 4.4 0 0 0 2.85.33c1.17-.16 2.03-.33 2.9 1.77l1.43 1.4c0 .7 1.43.7 1.43.7l3.58 2.8 2.16 2.11-.72 1.4s-3.59 2.11-4.3 2.11a1.53 1.53 0 0 0-1.44 1.4 2.7 2.7 0 0 0-2.15.7c-1.43.7-.71.7-1.43 1.4s0 2.11 0 2.11h1.43c.72 0 1.44-1.4 1.44-1.4.71-.7 1.43 0 1.43.7s0 .7-.72 1.4c0 .7-7.17 4.22-7.17 7.02 1.44.7 6.46 3.52 6.46 5.62 0 0-2.15 2.1-2.87 2.1s-1.44-1.4-1.44-2.1c-.71-.7-1.43.7-1.43.7l.72 2.1 1.43.7a7 7 0 0 0-.72 2.11l-1.43 2.8c-2.15 1.4-.72 1.4-5.02 2.1-.72 0 0 1.41 0 2.11.72 1.41-2.15 1.41-2.15 1.41l-.72 4.21-.72.7c-.71 0 0-2.1 0-2.1l-.71-2.11-2.15-.7v-4.21l-.72-2.1s-1.44-2.82-2.15-1.42c0 2.11 1.43 8.43.71 8.43 0 1.4 0 2.1-.71 2.1v2.81s-5.74 3.51-5.74 4.22c-.72 0-2.15 2.1-2.15 2.1s-5.02 2.1-6.46 2.8c-.71 0-.71 1.41-.71 1.41l2.87.7.71 4.21-1.43 1.4-.72 1.4v1.4a9 9 0 0 1 1.44 2.11c.71.7-.72 1.41-.72 1.41l1.43 4.21v4.22c.72.7-1.43 4.2-1.43 4.2v1.45s1.43 6.32 1.43 7.02a10 10 0 0 1-1.43 2.8l2.15 6.32s-2.87 3.51-2.87 4.22.72 4.2.72 4.2.72 3.52 1.43 5.62c1.44 2.1-1.43 4.21-1.43 4.21s-1.44 4.92-1.44 5.62v6.32c.72 0-2.15 2.1-2.15 2.1l-2.15 14.04s-2.87 4.92-3.59 4.92c0 .7-2.15 2.1-3.58 2.1-2.15-.7-1.43-.7-1.43-.7l-3.59-1.4-1.43 1.4-3.59-.7s-2.87.7-3.58 0c-1.44-.7-2.87.7-2.87.7l-2.16.7s-2.86-.7-4.3 0c-.71.7-.71 1.4 1.44 2.81 2.15.7.71 1.4.71 1.4l1.44 1.4c.72 0 .72 2.1.72 2.81a.7.7 0 0 1-.72.7h-2.15c-1.44 0-.72-.7-.72-1.4-.72-.7-1.43-.7-1.43-1.4-.72 0-2.16-1.4-2.87-2.1s-.72.7-2.87 2.1-1.43 2.8-1.43 2.8v3.51a11 11 0 0 1-.72 2.8c0 1.41.72 2.11 1.43 2.11.72.7.72 2.81 1.44 3.51a10 10 0 0 0 1.43 2.8 23 23 0 0 1 3.59 2.11c.71.7-.72 2.1-.72 2.1-.72 0-1.44-1.4-1.44-1.4h-2.87c-.72 0 0 1.4 0 1.4l-2.87.7-2.15.7H191s-1.44-.7-1.44-1.4-2.15-.7-2.15-.7a17 17 0 0 0-2.87-.7l-1.43 2.1v1.4l-2.15 1.41-2.87 1.4a18 18 0 0 1-2.87.31 2.3 2.3 0 0 1-1.43-.28M129.3 499.1h2.15l.37-.18-1.1-.53v.7zm7.17-14.05-2.16 4.2-.71 4.92-.72 4.22-.05.04.06-.03.72-4.21.71-4.91 2.16-4.22v-4.21l-.01-.01Zm-12.93 9.12v.21l.03-.2V490l-.03-.02Zm5.03 0-.7-.58Zm5.74-23.16-2.15.7 1.44 4.2 1 1.73-1-1.7-1.43-4.21 2.15-.7 2.15-2.11.72-3.51-.72 3.5-1.44 1.4h-.72Zm2.88-10.53-1.44 1.4V464v-2.1l1.44-1.4c.72-.7 2.15 0 2.15 0l2.15-.7 2.16-2.1s2.52-1.85 2.83-2.66c-.34.82-2.83 2.65-2.83 2.65l-1.44 1.4h-2.87l-.72.7h-.71Zm9.33-15.44 1.35-1.99Zm-2.16-29.49-3.59 3.5v.02l3.58-3.5 3.59-.7s4.25 0 3.6-.69c-.12.67-3.59.67-3.59.67h-2.86Zm7.19-1.57.1-.54h-.1Zm.72-4.05v1.1c.18-.69.37-1.34.5-1.8h-.5Zm-11.5-20.36-.71-21.74zm-5.02-35.8a3.26 3.26 0 0 0-.72 4.22 8 8 0 0 0 .68 1.62 8 8 0 0 1-.67-1.6 3.26 3.26 0 0 1 .71-4.22c.6-.58.2-1.65.05-2 .16.37.54 1.41-.05 1.99Zm.71-9.12-1.43 2.1.72 4.92v.02l-.71-4.92 1.43-2.1v-4.23Zm1.44-30.89-1.44 7.02-.71 4.92s-2.16 2.8-2.16 4.2v4.92l.72 1.42-.71-1.4v-4.92c0-1.4 2.15-4.2 2.15-4.2l.72-4.92 1.43-7.02 9.33-11.94.43-.01h-.43Zm23.23-12.48 3.3-.13.02-.02Zm10.51-80.86.17-.02h-.15Zm5.24-.57 1.18-.13.02-.02a6 6 0 0 0-1.2.15m139.6-20.49 4.23 2.08-.03-.08-4.26-2.06Zm-119.67-45.64v.54l.6-1.24h-.6Zm.71-1.4v.42q.28-.6.46-1.13h-.46Zm104.62.01 2.61-.64v-.01l-2.63.63Zm-91.08-7.72h3.59v-.02h-3.48l-7.18-3.5-.03.05Zm82.26-17.2-.15-.22a2 2 0 0 1-.66.77c.32.01.62-.3.8-.55m-55.01-1.75.12-.02-.37-.02Zm-1.65-.31a7 7 0 0 1-1.07-.41 6 6 0 0 1-.76-.03c.58.16 1.24.32 1.83.44m-3.37-1.1a2 2 0 0 0 .61.35 3 3 0 0 1-.46-.36 15 15 0 0 0-5.03-2.11l-.06.03a16 16 0 0 1 4.94 2.1m-5.54-1.95c-2.67.4-10.83-.17-10.83-.17l-.03.03c.96.06 8.51.55 10.86.14m46.99-4.83-.4-.08a2 2 0 0 1-.35.44c.32.12.6-.15.75-.37m-15.6-28.77 2.9.7 5.06 5.6 4.35 4.9s6.51 4.9 7.96 5.6 9.42 2.1 10.14 2.8l.3-.4c-1.68-.75-8.4-1.97-9.72-2.62-1.44-.7-7.9-5.6-7.9-5.6l-4.3-4.93-5.04-5.61-2.87-.7v-.7h-2.86a4 4 0 0 1 1.97.96m41.29 13.3 7.24 1.4 2.9 2.1a2 2 0 0 0 .75-.21h-.28l-2.88-2.1-7.18-1.41-2.87-2.1-.49.29Zm11.83 2.8a1 1 0 0 0 .67-.2h-.46Zm-66.76-5.1.9-.73h-.01a2.5 2.5 0 0 0-1.44.7h-1.44l-.04.03Zm3.98-2.37a18 18 0 0 1 3.16-.22v-.21a9 9 0 0 0-3.16.43m3.16-.58v-.06l-2.66-.52-.06.04ZM360.5 64.9V67a7.4 7.4 0 0 0 1.45 4.2c0 .6 2.72 2.27 3.45 2.7l.2-.2s-3.58-2.1-3.58-2.8a7.4 7.4 0 0 1-1.44-4.22v-2.11a12 12 0 0 1 .15-2.17 11 11 0 0 0-.23 2.5m.74-3.78.06-.06a7 7 0 0 1 .13-1.26 9 9 0 0 0-.2 1.32Zm-42.32-1.46-1.44.7a1 1 0 0 0-.34.3l1.37-.65 2.17-1.4v-.1Zm22.03-17.85c1.45 2.1 1.45 3.5 4.35 4.2l8.68 2.8 5.07.7 1.45 1.4c0 1.4 0 2.8.73 3.5a13 13 0 0 0 .7 3.43l.09-.29a14 14 0 0 1-.72-3.5c-.72-.7-.72-2.1-.72-3.52l-1.43-1.4h-.72l-4.31-.7-8.62-2.8c-2.87-.7-2.87-2.1-4.3-4.22-1.45-.7-4.32 0-6.48 0l-2.87 2.81-.05.16 2.64-2.56c1.45 0 3.22-.3 4.67-.3a4 4 0 0 1 1.84.3m-19.16 8.02a3 3 0 0 0-2.19.94 4.4 4.4 0 0 1 1.8-.56l2.17-1.4h6.52l.13-.39h-6.28Zm-80.61 544.74.72-5.62-1.44-2.1c0-.7-.72-2.11-.72-4.22a29 29 0 0 1 1.44-4.2c0-1.41 1.43-2.11 1.43-3.52 0-2.1 0-2.8.72-4.21 0-1.4.72-2.8 1.43-2.8a18 18 0 0 1 1.44-3.52l.72-3.5a29 29 0 0 0 1.43-4.22c0-.7-.72-3.5-.72-4.21l2.16-2.1h2.15s0 2.1-.72 2.8a2.5 2.5 0 0 0-1.43.7c0 .7 1.43 2.1 1.43 2.1v2.82l-1.43 2.8-1.44 3.52v3.5l-.72 2.1-.71 2.11-1.44 4.22.72 3.5-2.15 4.22v7.72s0 2.1-.72 2.1Zm31.55-30.19c-2.86 0 0-.7.72-2.1l1.44-2.81-.72-2.81-1.43-2.1-2.16-2.8-.71-1.41 2.15-.7a30 30 0 0 1-.72-3.52c0-.7-.72 0-1.43-1.4-.72-.7-.72-2.8-.72-2.8a16 16 0 0 1 .72-2.8 52 52 0 0 1 3.58-4.22c2.15-2.1 1.44-2.1 1.44-3.51-.72-.7.71-1.4.71-1.4l2.15-2.1 1.44-3.52 2.15 2.1c.72 0 .72-.7.72-1.4s1.43-.7 1.43-.7a17 17 0 0 0 2.87-.7l.72-1.4s2.87-.7 4.3 0c.71.7-.72.7-.72 1.4v1.42c0 .7-.72 1.4-2.87 1.4-2.15.7-.72 2.1-.72 2.1v2.8c-.71.7-2.15 2.1-3.58 2.1a3.4 3.4 0 0 0-.72 2.11c0 .7.72 2.11.72 3.52 0 .7 0 .7.72 2.1 0 .7 1.43.7 2.15.7 0 .7 1.43 2.11.71 2.81s-1.43 1.4-2.15 1.4a10 10 0 0 1-1.43 2.81 3.3 3.3 0 0 1 0 2.81c0 1.4-1.43.7-2.15 1.4l-2.15 2.11c-.72 0-1.44 2.8-1.44 4.21v2.8c0 .7 0 0-1.43 2.11-.85.83-1.25 1.12-1.56 1.12-.47-.02-.72-.7-2.02-1.13M131.4 520.21l-.56.27Zm.02-.01h-.02Zm.03-.02-.03.02Zm150.88-75.28v-2.8h2.17c.72 0 1.45-.7 2.17 0s0 2.1 0 2.1c-.73.7-1.45 1.4-2.18 1.4a2.7 2.7 0 0 1-2.17-.7m16.65-2.8c0-.7-1.45-1.4.72-2.1l2.18-1.4h1.44c.73-.7 2.17 0 2.17 0 0 .7.73.7-.72 1.4l-1.45.7c-.72 0 0 .7-.72.7a11 11 0 0 1-3.08 1.3c-.33 0-.54-.17-.54-.6m-4.35 0c-.72-.7-1.45-2.1-2.17-2.1s0-.7-1.45-.7c-2.17 0 0 .7-2.9 0-2.17-1.4-2.17-1.4-2.9-1.4a3.7 3.7 0 0 1-2.17-.7 3.4 3.4 0 0 1 .72-2.1c.73-.7.73-.7 1.45-.7.73-.7.73-2.8.73-2.8s2.9-1.4 2.9-.7-.73 2.8.72 2.1c.73 0 .73-1.4.73-1.4v-1.4a10 10 0 0 1-1.45-2.1s-.73-2.1.72-2.1h2.9a3.4 3.4 0 0 1 .72 2.1c.73.7 2.9 1.4 2.9.7h.73c.72.7 2.9.7 2.17 1.4 0 0-1.45 1.4-1.45 2.1-.72 0-2.9-.7-.72 1.4 1.45 2.1 2.17 1.4 2.17 2.1a1.53 1.53 0 0 1-1.45 1.4c-.72 0-1.45 0-1.45-.7-.72-.7-.72-1.4-1.44-1.4-1.45 0-.73 2.1 0 2.1l4.34 1.4s-1.45 2.1-1.45 2.8c-.57 0-1.15.9-2.1.9a2 2 0 0 1-.8-.2m55.75-2.1v-1.4a8 8 0 0 0 2.18-.7l1.45 1.4a10 10 0 0 1-2.17 1.4 2.6 2.6 0 0 1-1.45-.7m-9.4 0v-1.4a2.6 2.6 0 0 1 1.44-.7s.72-.7.72 0c.73 0 1.45.7.73 1.4a2.3 2.3 0 0 1-1.45.7 1.6 1.6 0 0 1-1 .52c-.27 0-.45-.17-.45-.52m13.09-.73-.06.03Zm.02 0h-.02Zm.11-.05-.1.04Zm.2-.1-.2.1Zm.25-.12-.25.12Zm-49.16-3.9a1.54 1.54 0 0 1 1.45-1.4c0 .7.73.7.73 1.4-.73.7-.73 1.4-1.45 1.4s-.73-1.4-.73-1.4m17.38-2.8a.95.95 0 0 1 0-1.4l.73-.7a2.4 2.4 0 0 0-.73-1.4c.73-.7 2.17 0 2.17 0 0 .7 0 1.4.73.7s.72-1.4 1.45-2.1h.72a3.7 3.7 0 0 0 2.17.7s2.18-.7 2.18 0c0 0 1.44 2.1.72 2.1s-2.9-.7-3.62-.7-.73 1.4-1.45 1.4a3.2 3.2 0 0 1-2.17 2.1 3.2 3.2 0 0 0-2.17.7s-.73 0-.73-1.4m-17.38.7c-.72-1.4 0-2.1 0-2.1.73 0 1.45-.7 1.45 0 0 0 2.17-.7.73.7a17 17 0 0 0-2.14 1.67q-.05 0-.04-.27m12.31-2.8s-.72-1.4.73-1.4h1.45c.72.7 1.44 0 1.44.7-.72.7 0 1.4-.72 1.4a8 8 0 0 1-2.9-.7m-6.51-7.7c0-.7.72 0 .72-.7s-1.45-.7-.72-2.1c.72-.7.72-2.8 1.44-.7 1.45 1.4.73 1.4 1.45 2.8a2.8 2.8 0 0 1-2.24 2.57c-.56 0-.93-.5-.65-1.86ZM171.67 167.76v.03q-.11-.02 0-.03M274.4 42.82l-3.59-1.4a4.3 4.3 0 0 1 1.44-2.81c1.43-.7 2.87-1.4 2.87-2.11a2.1 2.1 0 0 1 0-2.81c1.43 0 1.43-1.4 3.59-1.4 1.44.7 2.15.7 2.15 2.1-.71 1.4 0 1.4-.71 2.1s-2.16.7-2.88 2.82a8 8 0 0 1-.72 3.5c0 .24-.23.32-.55.32a7 7 0 0 1-1.6-.31m-12.93-3.51c0-.7-2.15-2.81-2.15-2.81 0-.7-1.44-2.1.71-2.81 1.44-1.4 6.47-3.5 7.19-3.5a43 43 0 0 1 2.87-4.22h5.03a6.3 6.3 0 0 0 4.2.65c1-.26 1.7-.51.83.75-2.16 1.4-2.87 2.1-3.6 2.1-.71.7-4.3 3.52-4.3 4.92-.72 1.4 0 1.4-.72 2.1-1.44.7-5.75 2.82-6.47 3.52-.71 0-1.6.17-2.33.17s-1.26-.17-1.26-.87" transform="translate(34.116 1450.115)"/><path fill="none" d="M-6.14 1467h675v622h-675z"/><circle cx="4.5" cy="4.5" r="4.5" fill="#417da5" opacity="0.092" transform="translate(284.862 1898)"/><ellipse cx="5" cy="4.5" fill="#417da5" opacity="0.092" rx="5" ry="4.5" transform="translate(281.862 1908)"/><circle cx="4.5" cy="4.5" r="4.5" fill="#417da5" opacity="0.092" transform="translate(149.862 1908)"/><circle cx="4.5" cy="4.5" r="4.5" fill="#417da5" opacity="0.092" transform="translate(274.862 1901)"/><circle cx="5" cy="5" r="5" fill="#417da5" opacity="0.092" transform="translate(270.862 1910)"/></g></g></svg>