<svg xmlns="http://www.w3.org/2000/svg" xmlns:xlink="http://www.w3.org/1999/xlink" width="1366" height="1327.584" viewBox="0 0 1366 1327.584">
  <defs>
    <linearGradient id="linear-gradient" x1="0.5" y1="0.457" x2="0.5" y2="0.794" gradientUnits="objectBoundingBox">
      <stop offset="0" stop-color="#f5fafb"/>
      <stop offset="1" stop-color="#e8eff3" stop-opacity="0"/>
    </linearGradient>
  </defs>
  <g id="Karta" transform="translate(6 -1450)">
    <path id="Path_26" data-name="Path 26" d="M74.387,9.594l8.705-4.259,4.354-8.517,5.8-9.937,2.9-4.259,2.9-7.1,8.705-2.841a64.15,64.15,0,0,1,7.256-1.418c1.451-1.42,10.156-8.516,10.156-8.516h1.451l-4.353,7.1v7.1l1.451,5.678,1.451,1.42V-4.6s4.353,2.841,2.9,4.259c-2.9,1.42-5.8,5.678-5.8,5.678l-1.451,8.518-5.8,7.1,1.451,8.517,1.451,7.1-1.451,5.678,4.353,4.259-1.451,2.839,1.451,4.259,4.353,2.839h4.353c1.451,0,5.805-1.42,7.256-1.42s4.353,1.42,4.353,1.42l4.353,5.678v4.259s-1.451,2.839-1.451,4.257a20.4,20.4,0,0,0-2.9,4.259l-2.9,2.839-1.451,4.259-1.451,2.839h0l-2.9-2.839s0-4.259-1.451-2.839c-1.451,0-2.9,2.839-2.9,2.839l1.451,2.839s1.451,4.259,0,4.259h-2.9l-1.451-5.68-4.353-1.418,2.9-5.678-2.9-1.42a4.54,4.54,0,0,0-2.9,1.42,60.326,60.326,0,0,1-1.451,7.1l-1.451,5.68a4.921,4.921,0,0,1,1.451,2.839,4.929,4.929,0,0,1-1.451,2.839v2.839s1.451,2.839,1.451,4.259a1.4,1.4,0,0,1-1.451,1.418v2.839a5.1,5.1,0,0,0-2.9,1.42l-2.9,1.418a5.1,5.1,0,0,0-2.9-1.418c-1.451,0-1.451-1.42-2.9,0l-1.451,1.418,1.451,1.42h2.9v2.839a1.412,1.412,0,0,1,1.451,1.42l-2.9,2.839-2.9,2.839-2.9,1.42s-2.9-1.42-2.9,0h-2.9c0,1.418,2.9,4.257,2.9,4.257l-5.8-5.678h-2.9l4.353,2.839L93.25,126l2.9,1.42L94.7,128.835l-1.451,1.42-2.9,2.839a5.1,5.1,0,0,1-2.9,1.42H83.092l1.451,1.418,2.9,1.42s1.451-1.42,1.451,0c-1.451,0-1.451,0-1.451,1.418v7.1l2.9,4.259,1.451,1.418v5.68a5.1,5.1,0,0,1-2.9,1.418l-5.805,1.42L81.641,162.9l2.9,1.418v2.841A4.929,4.929,0,0,1,83.092,170h2.9l4.354,1.418,5.8,7.1L94.7,184.2l-2.9,2.839-2.9-5.678a1.412,1.412,0,0,0-1.451,1.42c-1.453,0-5.805,2.839-5.805,2.839s-2.9,1.418-4.353,1.418H75.838l-4.353-1.418-5.8-2.839s-2.9-1.42-4.354-1.42-8.705-2.839-8.705-2.839l-2.9,1.42H45.368l-2.9-1.42-2.9-4.259-1.451-2.839,4.354-2.839a1.4,1.4,0,0,0,1.451-1.418v-8.518a4.929,4.929,0,0,1,1.451-2.839s0-4.259-1.451-5.678v-5.678l-2.9-4.259a11.408,11.408,0,0,1-4.353-1.42,69.456,69.456,0,0,0-7.254-2.839v-4.259l-1.451-1.418s-2.9,0-2.9,1.418v1.42l-2.9-1.42s-2.9-4.257-2.9-5.678a3.086,3.086,0,0,0,2.9-2.839c1.451-1.418,2.9-4.259,2.9-5.678V111.8s-1.451-1.42,0-1.42H26.5a57.671,57.671,0,0,1,5.8-4.259v-2.839s-1.451-2.839-1.451-4.257v-1.42c0-2.839-5.8-8.516-5.8-8.516h-2.9v-7.1L23.6,76.313l-1.451-9.937V52.18l2.9-5.678L26.5,43.664l1.451,4.257a1.938,1.938,0,0,0,0,2.839h4.353l1.451,1.42,4.353,2.839,2.9,2.839,2.9,1.42h2.9l1.451-1.42V56.439L46.818,53.6a4.929,4.929,0,0,0-1.451-2.841l4.353-2.839,1.451-2.839a1.4,1.4,0,0,0-1.451-1.418H45.368l-1.451-1.42L42.466,39.4s0-2.839,1.451-2.839a31.61,31.61,0,0,1,1.451-5.678s-1.451-2.841,1.451-2.841h4.353s1.451-2.839,2.9-2.839c0,0,1.451-1.418,1.451,0,1.451,0,0,4.259,0,4.259l-2.9,2.839a4.929,4.929,0,0,1,1.451,2.839v2.839l-2.9,4.259h1.451v2.839l4.353-1.418-1.451-1.42a1.938,1.938,0,0,1,0-2.839c1.451-1.42,1.451-2.839,2.9-2.839,0-1.42,0-1.42,2.9-1.42,1.451,0,4.354,2.839,4.354,2.839s1.451,1.42,0,1.42a4.927,4.927,0,0,1-1.453,2.839l2.9,4.259a4.548,4.548,0,0,0-2.9,1.418v1.42c0,1.418-4.353,2.839,0,2.839,2.9,0,2.9,0,2.9-1.42V47.921h4.353l1.451,1.42V53.6s2.9,2.839,2.9,1.418,1.451,0,0-2.839c-1.451-1.42-1.451-4.259-1.451-4.259V45.082c-1.451-1.418-2.9-1.418-2.9-2.839l-4.353-4.259V29.468l1.451-2.839s0-2.839,1.451-4.259c1.451,0,0-1.418,1.451-1.418,2.9-1.42,1.451-1.42,4.353-1.42,1.451,0,4.353,1.42,5.8,1.42l4.353,1.418V20.951c1.453,0,1.453-2.841,1.453-1.42,1.451,0,1.451,1.42,2.9,0A4.354,4.354,0,0,0,91.8,16.692a4.54,4.54,0,0,0,2.9-1.42,5.1,5.1,0,0,0-2.9-1.418s-2.9,0-4.353,1.418h-2.9c-1.451,1.42-1.451,1.42-4.353,1.42s-2.9,0-4.353,1.418a4.54,4.54,0,0,1-2.9,1.42H68.583l-1.451-1.42H65.681a5.1,5.1,0,0,0-2.9,1.42h-5.8c0,1.42-2.9,1.42-2.9,1.42H52.622c0,1.418,1.451,1.418,0,2.839H48.269l-1.451,1.418-1.451,2.839H43.917l-1.451,4.259v1.42l-2.9,2.839-1.451,1.418,1.451,1.42v1.418l-1.451,1.42,1.451,2.839,2.9-1.418L43.917,46.5l-1.451,2.839a5.108,5.108,0,0,1-2.9,1.418l-1.451-1.418L36.661,46.5V43.664l-4.353,1.418V43.664l-1.451-1.42A4.921,4.921,0,0,0,29.406,39.4l-2.9-4.259h1.451c0-1.418,0-1.418,1.451-2.839,0-1.418,2.9-4.259,2.9-4.259l1.451-4.257,2.9-2.839,1.451-2.841,2.9-4.257,2.9-2.839h4.353l2.9,1.418c1.451-1.418,2.9-2.839,2.9-2.839l5.8-1.418h1.451l4.354,1.418h8.705ZM42.466,160.066h0l-2.9-1.42a4.921,4.921,0,0,1-1.451,2.839l-1.451,4.259-1.451,1.42V170l-4.353,1.418a1.4,1.4,0,0,0,1.451,1.42h2.9A4.921,4.921,0,0,1,36.661,170l1.451-1.42c1.451,0,4.354,0,4.354-1.418v-7.1Zm75.451-38.327h0l1.451-1.42a4.921,4.921,0,0,0-1.451-2.839,1.412,1.412,0,0,1,1.451-1.42v-1.418h-1.451a1.4,1.4,0,0,0-1.451,1.418V118.9Zm39.177,38.327h0l1.451-1.42,1.451,1.42-1.451,1.418-1.451-1.418Zm15.96,18.453H174.5v1.42l-1.451,1.418v-2.839ZM168.7,175.68h0l-1.451-1.42H171.6l1.451,1.42h0A1.4,1.4,0,0,0,171.6,177.1,5.1,5.1,0,0,1,168.7,175.68Zm7.254,0h0l-1.451-2.839,1.451-1.42,1.451,1.42-1.451,1.418Zm30.472-8.517h0l-1.451-1.42,1.451-1.42h2.9Zm-2.9,1.418h0v-4.259l1.451-1.418-1.451-1.42h-1.451l-1.453-2.839h-2.9l1.451-1.418h1.451l1.453-1.42s2.9-4.259,5.8-4.259h4.353l2.9-2.839V147.29c1.451,0,0-2.839,0-2.839V141.61l-4.353-2.839-5.8-2.839s0-2.839-1.451-2.839l1.451-2.839s2.9-4.259,5.8-5.678a4.54,4.54,0,0,1,2.9-1.42c1.451,0,2.9,1.42,4.353,2.839h5.805v-4.257c0-1.42,0,0-1.453-1.42l-1.451-1.42v-8.517c0-1.42-1.451-4.259-1.451-4.259a4.929,4.929,0,0,0-1.451-2.839l-1.451-2.839V99.026a14.439,14.439,0,0,1,1.451-5.68c1.451-1.418,1.451-4.257,1.451-4.257l-1.451-1.42-5.8-1.42-1.451-1.418a1.412,1.412,0,0,0-1.451-1.42l-5.8,1.42a20.879,20.879,0,0,0-4.354,2.839c-2.9,0-2.9,0-4.353,1.42-2.9,1.418-2.9,2.839-4.353,4.257-1.451,0-2.9,2.839-2.9,2.839-1.451,1.42-1.451,1.42,0,2.841,0,1.418,1.451,0,1.451,0h2.9c1.451,0,1.451,1.418,0,1.418v1.42l-1.451,1.418v2.839a1.412,1.412,0,0,1-1.451,1.42l-2.9,2.839a1.4,1.4,0,0,0-1.451,1.42c0,1.418,0,1.418,1.451,2.839v1.418c0,1.42-1.451,2.839-1.451,1.42v-1.42h-5.8l2.9-2.839,1.451-1.418v-1.42h-5.805l1.453-1.42v-2.839l1.451-2.839s0-2.839,1.451-2.839a4.921,4.921,0,0,0,1.451-2.839c1.451,0,0-1.42,0-1.42h-2.9l-2.9,1.42a33.487,33.487,0,0,1-5.8,1.42h-1.451a1.412,1.412,0,0,0-1.451-1.42h-2.9a1.4,1.4,0,0,0-1.451,1.42s4.353,1.418,5.8,2.839H171.6v1.418s-1.451,2.839-2.9,2.839a1.412,1.412,0,0,1-1.451,1.42l-2.9,1.418L165.8,111.8v2.839l-2.9-1.42-4.353,2.839h-1.451a1.4,1.4,0,0,1-1.451-1.418l-1.453,2.839a64.024,64.024,0,0,0-7.254-1.42V118.9l2.9,1.42-2.9,1.42,5.8,2.839L154.19,126l1.453,4.259-1.453,1.418,2.9,2.841a4.353,4.353,0,0,0,1.451,2.839v7.1s-2.9,1.418-2.9,2.839h1.451l2.9,2.839,1.451,2.839A4.921,4.921,0,0,0,160,155.807l2.9,1.42h14.509l4.354-1.42s2.9,2.839,4.353,2.839a1.937,1.937,0,0,1,0,2.839,1.412,1.412,0,0,1-1.451,1.42l1.451,4.259c1.451,1.418,1.451,0,1.451,0l2.9,2.839a1.411,1.411,0,0,0,1.451,1.418h1.451a1.412,1.412,0,0,1,1.451,1.42h4.353a1.412,1.412,0,0,0,1.451-1.42h2.9v-2.839Zm0,7.1h0l-1.451,1.418h1.451l2.9,1.42h1.451l1.451-1.42,1.451-2.839,4.353-1.418h4.353l1.451-1.42V170l-2.9-2.839h-8.705V170c-1.451,1.418-1.451,1.418-2.9,1.418h-1.451Zm-15.961,17.035h1.451l1.451-1.42-1.451-2.839-1.451-1.42-1.451-4.257-2.9-2.839-1.451-1.42-1.451,2.839-1.451,1.42-1.453,1.418s-4.353-1.418-5.8-2.839l-2.9-1.418a4.54,4.54,0,0,1-2.9-1.42l-1.451-1.42a1.4,1.4,0,0,0-1.451-1.418c0-1.42-1.451,0-2.9,0h-4.353a1.412,1.412,0,0,1-1.453,1.418c-1.451,1.42,0,4.259,0,4.259v1.42l1.453,2.839h-4.354l1.451,2.839a4.35,4.35,0,0,0,1.451,2.839l1.453,1.42,7.254,1.418h1.451l5.8,2.839,2.9,2.841h2.9l1.451-1.42,4.354-1.42h2.9l4.353,1.42h1.451v-4.259Zm-56.589-58.2h0l-2.9-1.42-2.9-4.259-4.353-1.418-1.451-4.259c-1.451-1.418-1.451,0-1.451,0s0,2.839-1.451,4.259h-2.9l-2.9,2.839a33.553,33.553,0,0,1-5.805,1.418l-1.451,1.42-8.705-1.42-2.9,2.841v1.418l1.451,2.839,1.451,1.42h1.451v2.839L97.6,145.87a17.59,17.59,0,0,1,2.9,4.259c1.451,2.839,0,4.257,0,4.257l4.353,4.259,2.9,1.42a5.1,5.1,0,0,0,2.9,1.418v4.259l1.451,2.839,1.451-1.418,1.451-1.42,7.254,2.839s5.8,2.839,7.254,2.839l2.9-2.839c1.452-1.418,5.805-1.418,5.805-1.418a1.4,1.4,0,0,0,1.451-1.42c0-1.42,1.451-2.839,1.451-4.259a4.929,4.929,0,0,1,1.451-2.839v-2.839l-1.451-4.259,1.451-5.678-2.9-2.839-1.451-1.42v-2.839l2.9-1.418v-4.259l4.353-2.839L146.936,126a64.106,64.106,0,0,0-7.254-1.418c-2.9,0-1.451,0-1.451-1.42l-1.451-1.418-2.9,1.418c-1.452,0-1.452-2.839-1.452-2.839l-2.9,1.42h-4.353v1.418c-1.451,1.42,0,2.839,1.451,2.839,0,1.42,1.451,4.259,1.451,4.259l1.451,2.839Zm-2.9-19.874h2.9l1.451-2.839a4.928,4.928,0,0,0,1.452-2.841V104.7l-1.452-1.42-1.451-2.839-1.451-4.259h-2.9v2.841a4.929,4.929,0,0,0,1.451,2.839l1.451,1.418v1.42l-1.451,1.418-1.451,2.839,1.451,2.841Zm7.256,70.977h0l1.451,4.259,1.451,2.839s2.9,1.418,2.9,0-1.451-2.839,0-4.259c0-1.42,1.451-4.259,1.451-5.678s1.451-2.839,1.451-4.259c1.451-1.42,2.9-4.259,2.9-5.678,0,0,1.451-2.839,1.451-4.259v-4.259l-1.451-4.257-1.451,2.839v2.839l-2.9,5.678-1.451,2.839-2.9,2.839v4.259l-1.451,1.42V184.2Zm-7.256-12.776h0l1.451,1.418s1.451,4.259,2.9,4.259l4.354-4.259v-2.839l1.451-2.839L133.878,170l-2.9,2.839Zm-13.058,2.839h0l1.451,4.259a5.1,5.1,0,0,1,2.9,1.418l2.9,2.839a1.4,1.4,0,0,0,1.451,1.42l2.9-1.42,1.451-2.839h-2.9c-1.451,0-2.9-2.839-2.9-2.839h-1.451c-1.451,0-4.353-2.839-4.353-2.839ZM91.8,171.421h0l2.9,1.42,1.451,1.418,2.9,1.42-2.9,2.839s1.451,2.839,2.9,1.42H100.5l2.9,1.418a5.4,5.4,0,0,0,4.353,1.42,1.4,1.4,0,0,0,1.451-1.42v-2.839l-1.451-2.839-1.451-2.839-5.8-1.42-2.9-2.839-4.353-1.418H91.8ZM139.681-1.762h0V-.343h2.9l2.9,1.42c0,1.418,1.451,0,1.451,0,1.451,0,1.451-1.42,1.451-2.839l1.451-1.42,4.353-2.839c0-1.42-2.9-1.42-2.9-1.42l-4.353,1.42L142.583-4.6Z" transform="translate(175.692 2577.771)" fill="rgba(25,95,140,0.2)" fill-rule="evenodd"/>
    <path id="Path_30" data-name="Path 30" d="M536.74-124.8c-2.906,0-7.265,1.412-7.265-1.421,0-1.421-4.359-5.685-4.359-5.685,0-1.421-2.906-4.264,1.453-5.685,2.906-2.833,13.077-7.1,14.536-7.1,0,0,4.359-7.1,5.812-8.518h10.171a6.443,6.443,0,0,0,4.359,1.421c2.906,1.412,8.718-2.842,5.812,1.412-4.359,2.842-5.812,4.264-7.265,4.264-1.453,1.421-8.718,7.106-8.718,9.939-1.453,2.843,0,2.843-1.453,4.264C546.918-130.48,538.193-126.217,536.74-124.8Zm18.9,5.676h0s4.359,1.421,4.359,0a16.918,16.918,0,0,0,1.453-7.1c1.453-4.263,4.359-4.263,5.812-5.685s0-1.421,1.453-4.264c0-2.833-1.453-2.833-4.359-4.254-4.359,0-4.359,2.833-7.265,2.833a4.252,4.252,0,0,0,0,5.685c0,1.421-2.906,2.842-5.812,4.263a8.7,8.7,0,0,0-2.906,5.675ZM526.569-26.806h0l5.812,1.421,10.177,11.361,8.718,9.949s13.077,9.939,15.983,11.361,18.9,4.254,20.348,5.675l4.359-5.675,5.812-4.263L596.326.179,603.6-4.075,609.409.179l14.53,2.843,5.812,4.263h1.459l1.453-1.421h2.906V4.443h0V-6.918s-4.359-2.842,0-5.685A111.887,111.887,0,0,1,645.74-21.12s2.907-1.421,2.907-5.685S645.74-42.43,645.74-42.43s-2.906-7.1-2.906-9.939c2.906-17.045-4.359-28.406,0-31.248h0l2.906-1.412,4.359-2.842v-1.421c0-7.106-8.718-14.2,1.453-15.624l4.359-2.843H669l2.906-8.518,5.812-5.685c4.359,0,10.171-1.421,13.084,0,2.906,4.264,2.906,7.106,8.718,8.528l17.436,5.675,8.725,1.422h1.453l2.906,2.842h0c0,2.842,0,5.685,1.453,7.1a28.369,28.369,0,0,0,1.453,7.106,28.358,28.358,0,0,0-1.453,7.1c-1.453,1.421-1.453,5.685-1.453,7.106v4.263c0,2.833,1.453,7.1,2.907,8.518,0,1.421,7.265,5.675,7.265,5.675l-1.453,1.421A1.4,1.4,0,0,0,740.2-53.79a30.125,30.125,0,0,0,7.264-1.421s0-12.782-1.453-17.036c-1.453-5.685,5.818-11.37,5.818-11.37l10.171-9.94-1.453-11.36,11.624,1.421s8.725-4.264,5.812-9.939c-2.906-7.106-5.812-18.466-8.718-15.624-4.359,2.842-11.624,11.361-11.624,11.361l-1.453-14.2-11.631,4.263L732.94-130.48s-4.359-5.685-8.718-4.264H712.591s-5.812-4.254-2.906-5.675c4.359,0,13.084,1.421,17.442,0,2.906,0,26.161-5.685,26.161-5.685l1.453-9.939,10.172-8.528-17.443-12.782L740.2-188.714s-1.453-4.254-4.359-4.254c-4.359,0-15.99,5.676-15.99,5.676l-8.718-5.676-13.077,1.412-18.9-5.675v4.263s-5.812-1.421-7.265-4.263v-5.685l-7.265,1.421H661.73l-8.725-4.254-4.358,8.518,5.812,9.939-5.812,11.36,4.358,7.106v9.94l-5.812,11.36-8.718-7.1,1.453-9.949,4.359-11.361-5.812-11.36-11.63,9.939v14.2l-5.812,9.949v12.782l-2.906,9.939L616.674-117.7a2.8,2.8,0,0,1-2.906,2.842c-2.906,1.421-8.718-1.421-8.718-1.421v-18.467l2.906-9.939,4.359-8.518,5.812-11.37s0-7.1-1.453-8.518c0,0-2.906-1.422-1.453-1.422,0-1.421,5.812-7.1,5.812-7.1a9.123,9.123,0,0,0-4.359-7.106c-2.906-1.421-5.812-4.254-8.718-2.842-1.453,1.421-8.724,4.264-8.724,5.685-1.453,1.421,0,4.263,1.46,5.685,1.453,0,2.906,1.421,4.359,1.421,0,1.412,1.453,5.676,0,7.1s0,5.685-4.359,4.263c-2.913-1.421-11.63-7.106-11.63-7.106-1.453,0,0-5.675-2.906,0-2.906,4.264-4.359,5.685-2.906,8.528s2.906,2.833,2.906,4.254-5.812,1.421-5.812,2.843-1.453,2.842,1.453,5.685c2.906,1.421,5.812,2.833,5.812,2.833s2.906,4.264,1.453,4.264c0,1.421-8.718,0-8.718,1.421v9.939c0,1.422-5.812,1.422-7.265,2.843-2.913,1.421-4.366,5.685-4.366,8.518a15.159,15.159,0,0,0-1.453,7.106c0,1.421-2.906,4.263-2.906,4.263s0,1.412-2.906,0c-2.906,0-13.077-5.685-14.53-5.685-2.906,0-5.812,1.421-5.812,4.263,0,1.421,4.359,5.675,5.812,5.675,0,0,7.265,1.422,8.718,2.843v11.36s5.812,11.361-4.359,1.422c-11.631-9.94-11.631-11.361-13.083-12.782-1.453,0-11.624-2.843-11.624-2.843s-1.453-4.254-2.906,0c-1.453,2.843,2.906,9.949,2.906,9.949l-1.453-1.421s-4.359-2.842-7.265-4.264c-1.453-2.842-5.812,0-5.812,0s-1.453,1.421-4.365,4.264c-1.453,1.421-7.265-4.264-1.453,2.833,4.365,5.685,8.725,7.106,10.178,8.528,0,0,5.812,1.421,7.265,2.842s1.453,5.676,1.453,7.1c0,0,4.359,5.685-2.906,1.421-7.265-5.685-7.265-7.106-10.171-7.106-1.453,0-4.365,2.842-4.365,2.842s-8.718-1.421-8.718-5.675c-1.453-4.264,1.453-11.361-4.359-9.949-7.265,0-8.718,2.842-8.718,4.264s-4.359,2.842,0,7.106,7.265,7.1,8.718,7.1c0,0,8.718,0,4.359,1.421-2.906,2.842-8.718,2.842-10.171,2.842s0-1.421-1.453,0c-2.906,1.421-10.177,8.518-10.177,8.518s-1.453-2.843-1.453-4.264,5.818-4.254,5.818-7.1-2.912-12.782-2.912-12.782L472.8-92.135c-1.453-1.422-5.812-4.264-7.265-2.843s-4.359,5.685-1.453,8.527c2.906,4.254,5.812,7.1,4.359,7.1-2.906,1.421-4.359,2.842-5.812,1.421-1.453,0-4.359-2.843-8.718-1.421s-8.724,9.939-8.724,9.939,4.359,8.527,5.818,9.948c1.453,0,2.906,2.833,2.906,5.676-1.453,2.843,0-1.421-2.906,0-4.366,1.421-5.818,2.843-8.724,2.843S432.1-42.43,432.1-42.43l4.359,5.685s-11.624,4.263-14.53,5.685c-1.453,0,4.359-1.421-2.912,0A28.842,28.842,0,0,0,407.4-19.7c0,1.421-5.812,1.421-5.812,5.675,0,2.843,1.453,8.528,0,9.949V.179c0,2.843-1.453,5.685,2.906,5.685S414.663,3.022,416.115,1.6c0-1.421,1.453-7.1,2.906-4.263,2.912,1.421,2.912,7.106,2.912,7.106v7.1c-1.453,2.842,8.718,0-1.453,4.264C410.3,21.488,407.4,21.488,407.4,22.909c0,2.833,5.812,9.939-1.453,7.1-7.265-1.422-7.265,0-7.265-1.422-1.453-1.421,1.453,7.106-7.265-5.675s-8.724-11.37-8.724-14.2-1.453-12.782-1.453-12.782-1.453-9.949-5.812-5.685C369.613-5.5,369.613,1.6,369.613,1.6L360.9,10.128c-1.46,0-4.366,0-8.725,2.833-2.906,4.264-13.077,18.467-13.077,18.467s-5.812,9.939-4.359,12.782,5.812,7.1,5.812,7.1S342,49.894,342,54.148s7.265,5.685,7.265,5.685,2.906,1.421,0,4.263c-4.359,2.833-15.983,4.254-15.983,4.254h-11.63s-5.812,7.106-7.265,7.106c-2.906,1.421-7.265,4.254-8.718,8.518,0,2.842-13.083,14.2-13.083,14.2v5.685c0,1.412-5.812,4.254-2.906,5.675s7.265,2.843,10.178-2.842c2.906-4.254,2.906-11.361,2.906-11.361s2.906-2.842,5.812-2.842c4.359,0,8.718-4.254,13.077-5.676,4.359,0,10.177-7.106,11.63-7.106,2.906,0,1.453,1.421,7.265,0,5.812,0,11.624,0,13.077-1.421,2.906-1.412,14.536,5.685,15.989,7.106,0,1.421-10.177,2.842-5.812,5.685,5.812,2.833,5.812,4.254,7.265,4.254s4.359-1.421,8.718-2.842c2.906-2.833-2.906-7.1,5.812-4.254,7.271,2.842,7.271,5.675,7.271,5.675l-1.453,2.843L385.6,98.179l-8.718-1.421L371.066,99.6a5.107,5.107,0,0,1-2.906,1.421l-13.084,1.421-5.812,8.518,4.359,5.685c1.453,0,10.177-2.842,10.177-1.421,1.453,0,2.906,2.842,1.453,4.254,0,1.421-5.818,5.685-5.818,5.685l-2.906,5.685a64.71,64.71,0,0,0,7.271,1.412s8.718,0,7.265,1.421L357.983,135.1s-11.624-1.421-10.171-1.421c0,1.421-1.453,4.264-1.453,5.685l-2.906,4.263c-1.453,0-4.359,0-5.812,1.421,0,1.412-1.453,4.254-1.453,7.1,0,1.421,4.359,5.684,4.359,5.684l-1.453,2.833-5.812,5.685s-2.906,1.421-2.906,2.842c1.453,0-4.365,2.842-4.365,2.842l-10.171,5.676a31.669,31.669,0,0,1,1.453,5.685s4.359,2.833,1.453,5.675c-2.906,1.422-5.812,2.843-7.265,4.264,0,0-2.906,1.421-2.906,5.685,1.453,2.833-1.453,7.1-2.906,7.1,0,0-2.906,1.421-2.906,5.685,1.453,2.833,0,12.782,0,12.782s4.359,5.675,5.812,5.675c0,0,7.265-2.842,8.718-1.421,2.906,0,7.265,2.843,7.265,2.843s-1.453,7.106-2.906,8.518c-1.453,0-10.171,1.421-10.171,1.421s-4.359-2.833-5.812-2.833c-1.453,1.412-8.724,8.518-8.724,8.518s0,4.263-1.453,4.263c-2.906,1.421-4.359-1.421-4.359,1.421v14.194l-4.359,8.528c-1.453,2.842-4.359,9.94-4.359,11.361,1.453,1.421,4.359,8.518,4.359,8.518L276.6,301.275l2.906,7.1a1.414,1.414,0,0,1,1.453,1.421c0,2.843-7.265,7.106-7.265,7.106v8.518c0,1.421-7.271-4.264-7.271-4.264l-5.812,1.421v5.685l-2.906,5.685H247.536l-8.724,5.676c1.46,1.421-2.906,5.685,1.46,5.685h5.812c2.906-1.421,8.718-4.263,10.171-4.263s5.812,0,2.906,2.842-5.812,2.842-7.265,4.254c-2.906,1.421-7.265,1.421-7.265,5.685a30.272,30.272,0,0,1-1.453,8.518l10.171-2.833s2.906-1.421,2.906,2.833c1.453,5.685-2.906,7.106-5.812,7.106-1.453,0-8.718-5.685-8.718-5.685l-5.819,4.264s-1.453-1.421-7.265,2.842c-5.812,5.676-8.718,12.782-8.718,14.2s0,4.254-4.359,7.1c-2.906,1.422-7.271,5.685-7.271,5.685a66.236,66.236,0,0,1-2.906,7.1l-1.453,2.843,5.818,5.685-10.177,5.675L195.215,422s-8.718,8.518-2.906,9.939a67.215,67.215,0,0,0,11.624,1.422s-1.453,8.527,0,8.527h14.536l7.265-5.685,4.359-2.842L233,439.04s-2.906,4.254-5.812,4.254c-4.359,0-2.906,0-5.812,2.842-4.359,4.264-5.812,5.685-8.718,5.685-1.453,0-4.365,4.254-7.271-1.421a41.441,41.441,0,0,0-4.359-8.518L187.95,436.2l-2.906,1.421s-1.453,5.675-2.906,5.675H169.055c-1.453,0-4.359,0-4.359-1.412-1.453-2.842,0-2.842-1.453-4.263s-4.359-7.106-7.265-5.685c-1.453,0-8.724,2.843-8.724,2.843l-1.453,11.36s-4.359,0-2.906,2.843c0,2.842,5.812,5.685,5.812,5.685s2.913,2.833,2.913,4.254c1.453,2.843-2.913,5.685-2.913,5.685s-7.265,0-8.718,2.842c0,1.421,1.453,5.675,0,5.675-1.453,1.422-2.906,4.264-2.906,5.685l2.906,7.1s0,5.685-2.906,2.842-11.624-7.1-11.624-7.1l-5.812-4.263s-5.819,4.263-7.272,4.263c0,1.412-10.171,0-13.077,1.412-1.453,1.421-1.453,2.843-2.906,5.685-2.906,2.842-7.271,2.842-2.906,7.106,2.906,4.255,10.171,5.676,10.171,5.676s2.906,1.421,0,5.685c-2.906,5.676-8.718,1.421-10.171,1.421-1.453-1.421-7.271-5.685-8.724-4.264s-5.812,8.518-5.812,8.518-4.359,1.421-5.812,0c-1.453,0-5.812-7.1-7.265-5.676s-2.906,4.255-2.906,5.676,2.906,4.264,1.453,5.685c0,1.421-7.271,2.842-8.724,4.264,0,1.412,0-1.421-2.906,4.254-1.453,5.685,0,5.685-1.453,5.685-2.906,1.421-8.718-2.842-8.718-2.842s-4.359-4.264-4.359,0a52.539,52.539,0,0,1-1.453,11.361l4.359,2.842s-1.453,2.842-2.906,2.842a10.758,10.758,0,0,1-4.359-4.264c-1.453-1.421,0-1.421-4.359-2.842s-7.271-4.255-7.271-1.421c0,1.421-1.453,4.264,0,5.685a26.6,26.6,0,0,0,4.359,5.685h1.453s-1.453,4.254-2.906,4.254c-1.453,1.421-2.906-1.421-4.359-1.421L16.458,555.5s1.453,2.842,1.453,4.264-4.359,2.842-4.359,4.255a3.091,3.091,0,0,0-2.906,2.842c0,1.421,1.453,5.685,2.906,4.264,1.453,0,8.718,1.421,8.718,1.421a20.4,20.4,0,0,1-2.906,4.264c-1.453,0-2.906,2.833-4.359,4.255-1.453,2.842,1.453,8.527,4.359,9.939,4.359,1.421,8.718,1.421,8.718,4.264-1.453,1.421-8.718,7.106-10.171,8.527-1.453,0-4.359,1.412-4.359,4.254s0,4.264-2.906,5.685-4.359,0-4.359,4.255c0,2.842,1.453,4.264,2.906,4.264h1.453l11.624-1.421a31.668,31.668,0,0,0-1.453,5.685c0,1.421-8.718,9.939-8.718,9.939s1.453,4.264,0,4.264c-2.906,1.421-5.812,2.842-7.265,4.255v5.685c1.453,2.842,4.359,7.106,4.359,8.518,1.453,1.421-1.453,4.264-1.453,4.264L4.834,674.8V681.9c0,1.421-5.812,2.842-2.906,7.1l5.812,5.685c2.906,0,10.171,0,10.171,1.421,0,0,0,1.421-4.359,2.833-2.906,0-5.812-1.412-5.812,1.421-1.453,1.421-7.265,9.948-7.265,9.948l7.265,8.518s2.906-2.842,4.359-2.842c1.453-1.421,5.812,0,5.812,1.421,0,0-2.906,4.264-4.359,4.264,0,1.421-4.359,2.842-4.359,4.255l4.359,5.685a2.827,2.827,0,0,1,2.906,2.842c0,1.421-5.812,4.264-5.812,4.264l1.453,4.255L7.74,751.5,15,755.751s5.812,0,4.359,4.264c-2.906,2.842-7.265,5.685-7.265,7.1,0,2.842-1.453,5.685,1.453,7.106,2.906,0,2.906,1.421,4.359,0l5.812-2.842s4.359-2.842,7.271-2.842c1.453,0,4.359,1.421,5.812,2.842a5.148,5.148,0,0,0,1.453,4.263c1.453,0-1.453,7.1-1.453,7.1l-4.359,5.685s4.359,5.676,2.906,5.676c0,0-7.271,1.421-8.724,1.421s-2.906-1.421-2.906,1.421c-1.453,2.842-5.812,9.939-5.812,9.939a6.729,6.729,0,0,0,0,5.685c1.453,2.842,7.265,12.782,7.265,12.782,0,1.421,2.906,5.685,7.271,8.518s7.265,2.842,7.265,5.685l1.453,2.842,5.812,5.676a17.955,17.955,0,0,0,7.265,1.421c4.359,1.421,10.177,1.421,10.177,2.842,1.453,0-4.359,4.263-4.359,4.263s-7.271,5.676-4.365,7.1,23.254,5.685,23.254,5.685,2.906,1.421,2.906,2.842,4.359-1.421,4.359-1.421c1.453-1.421,7.271,1.421,8.724,1.421l8.718-1.421,7.265-2.842s4.359-7.106,7.265-5.685c4.365,1.421,2.912,4.264,5.818,4.264,1.453,0,4.359,0,7.265-4.264,2.906-2.833,5.812-5.676,7.265-7.1,1.453,0,18.9-9.939,18.9-9.939l11.624-19.888,4.359-14.2s5.812-7.1,10.178-7.1c2.906,0,13.077-4.264,11.624-7.106,0-4.255,4.359-5.676,4.359,0,1.453,5.685,0,11.361,2.906,8.527,4.359-2.842,11.63-11.37,11.63-11.37s4.359-4.255,7.265-5.676c2.906,0,7.265-9.939,7.265-9.939s5.812-4.264,8.718,0c1.453,5.676,7.271,12.782,7.271,15.615l5.812,2.842v-11.36l10.171,8.518c1.453,1.421,1.453,9.948,1.453,9.948h2.906v-1.421l2.906,1.421,1.453-1.421,1.459-8.527,1.453-9.939,4.359-8.518v-8.527l-5.812-9.939-2.912-8.518,4.365-1.421v-1.421H273.7l2.906-2.842,1.453-7.1-2.906-2.842v-4.264l2.906-2.842h0l1.453-1.412h1.453l1.453-1.421h5.812l2.906-2.842s5.812-4.264,5.812-5.685,2.913-5.676,2.913-5.676v-7.106l-2.913-7.1,2.913-4.264,4.359-8.518-2.906-8.527-8.724-9.939-4.359-12.782-2.906-8.518,7.265-7.106,1.453-1.421h5.819s7.265,0,7.265-1.421h0v-1.412h1.453v-1.421h0v-1.421h0v-1.421h0v-1.421h0V623.67h0v-1.421h1.453v-1.421h0l-1.453-12.782-8.718-7.1-10.178-7.106-4.359-11.361-1.453-44.03S273.7,519.994,273.7,518.573c-1.453-2.842-1.453-5.685,1.453-8.527,1.453-1.412,0-4.255,0-4.255l-1.453-9.939,2.906-4.263v-8.527L270.79,471.7v-9.939c0-2.843,4.359-8.518,4.359-8.518l1.453-9.949,2.906-14.2L298.4,404.949h4.366l30.519-1.421,1.453-2.833,1.453-1.421,2.906-8.528-1.453-22.721-13.084-2.843-2.906-7.1,21.8-36.933L342,312.635l5.812-4.264a55.029,55.029,0,0,0-2.906-8.518c-1.453-1.421,1.453-9.939,1.453-9.939l1.453-9.939,2.906-11.37-7.265-24.142,4.359-4.264h5.812c1.453,0,4.359-1.412,7.271-1.412,2.906-1.421,4.359-2.842,8.718-7.106l1.453-2.843,1.453-7.1V208.96l7.265-18.466s11.63-14.2,13.083-17.046,5.812-12.782,5.812-12.782-2.906-11.361-4.359-14.2c-2.906-1.412-7.272-9.939-7.272-9.939v-7.1l8.724-5.685,2.906-5.676V106.7h0v-1.421h0v-1.412h1.453v-1.421h0v-1.421h1.453V99.6h0c0-2.842,5.812-8.518,5.812-8.518l5.812-11.37,14.536,7.106h7.265l2.906-5.685c-1.453-4.254-2.906-34.081,1.453-39.767,0,0,20.348,1.422,23.254,0,1.453,0,8.718,2.843,10.171,4.264h0a5.415,5.415,0,0,0,4.359,1.421,14.772,14.772,0,0,0,5.818,1.421l8.718-1.421,5.812-7.106-5.812-5.676C497.5,27.164,497.5,17.225,496.05,15.8,494.6,12.961,491.691.179,490.238-1.242c0-1.421,2.906-2.833,2.906-2.833h2.906A5.107,5.107,0,0,1,498.956-5.5l7.265-5.685,7.272,1.421a1.4,1.4,0,0,1,1.453-1.421A1.4,1.4,0,0,0,516.4-12.6s-4.359-8.518-1.453-12.782c1.453-2.842,2.906-2.842,5.812-2.842h5.812v1.421Z" transform="translate(74.791 1655.865)" fill="rgba(25,95,140,0.2)" fill-rule="evenodd"/>
    <path id="Path_32" data-name="Path 32" d="M106.857-52.331l-4.392-7.079-5.859-2.837-7.326-2.83v-5.66L79.025-76.4s-1.463-2.831,0-2.831c1.467-1.418,7.326-1.418,8.788-1.418v-1.412H89.28a1.4,1.4,0,0,0,1.463-1.418s-4.392-8.491-1.463-12.739v-1.419h0c2.93-2.83,8.789-2.83,11.718,0l5.859,1.419L117.113-84.9l8.792,9.909s13.185,9.909,16.114,11.327S161.063-59.41,162.526-58l4.4-5.66,5.859-4.248-1.463-2.83,7.322-4.248,5.863,4.248,14.647,2.83,5.859,4.248a4.6,4.6,0,0,0,2.93-1.418h0c1.467,0,1.467,0,2.93-1.412h0V-77.816s-4.392-2.837,0-5.667a111.189,111.189,0,0,1,10.255-8.491s2.93-1.418,2.93-5.667-2.93-15.575-2.93-15.575-2.929-7.079-2.929-9.909c2.929-16.988-4.392-29.734,0-31.146h0l2.929-1.419,4.4-2.83v-1.419c0-7.079-8.789-14.158,1.463-15.576l4.4-2.83h13.185l2.929-8.491,5.859-5.667c4.4,0,10.255-1.412,13.185,0,2.93,4.248,2.93,7.078,8.793,8.5l17.576,5.66,10.255,1.418,2.929,2.83h0c0,2.83,0,5.667,1.467,7.079a28.018,28.018,0,0,0,1.463,7.079,28.019,28.019,0,0,0-1.463,7.079c-1.467,1.418-1.467,5.667-1.467,7.079v4.248c0,2.83,1.467,7.079,2.93,8.5,0,1.411,7.326,5.66,7.326,5.66s0,1.418-7.326,7.079l-5.859,7.079,10.255,2.837v12.738l-1.467,8.5-4.392,5.66,5.859,8.5,7.326,11.327L330.992-58s1.467-1.411,11.722,0A19.577,19.577,0,0,1,355.9-46.671l5.859,7.079,8.788,5.667,4.4,4.249-1.467,12.739s-4.392,7.079-2.93,12.746c0,7.079-4.392,16.988-4.392,19.818,0,1.418-2.93,12.746-2.93,12.746l4.392,9.909,5.859,5.66,8.792,9.916L393.986,66.6l4.4,9.909S410.1,83.591,410.1,85s4.4,8.5,4.4,8.5l5.859,9.909-1.467,7.079-4.392,7.079v4.249l4.392,5.667-1.463,5.66,4.392,8.5-2.929,5.66,7.326,2.83s1.467,1.419,0,4.248c-1.463,1.418-2.929,11.328-2.929,11.328l7.326,11.327,10.255,1.419s5.859,0,5.859,1.411c1.463,1.419,2.93,5.667,2.93,5.667l-4.4,8.491a15.286,15.286,0,0,0,5.859,7.078c2.933,1.419,5.863,1.419,5.863,4.249,1.463,2.831,1.463,7.079,2.929,5.667a53.577,53.577,0,0,1,8.789,1.411l4.4,7.079,2.93,5.667v5.66c0,2.83-1.467,11.327-1.467,11.327l-7.322,11.328s5.859,7.078,10.252,9.909,10.255,7.079,11.722,7.079,8.788,1.419,11.718,2.837c1.467,0,7.326,2.83,8.788,4.242s11.722,7.085,11.722,7.085l8.788,4.242,8.789,7.079,2.933,16.995s-2.933,25.485-4.4,28.315c0,2.83-4.4,15.575-5.859,16.987-2.929,1.418-5.862,2.837-5.862,5.667s-4.392,18.406-4.392,18.406-4.4,9.909-4.4,12.739-4.392,11.327-4.392,14.158c-1.467,1.419-4.4,12.746-4.4,12.746l-19.044,36.812-4.4,14.158s-4.4,1.419-5.859,4.249c-1.466,4.249-2.929,7.079-4.4,11.327,0,2.83-7.322,15.569-7.322,15.569l-2.933,7.086-5.859,7.079-4.393,2.83H443.8l-4.4-2.83-4.4,2.83c0,1.412-2.929,2.83-2.929,4.249,0,0-1.463,2.83-2.929,2.83-1.463,1.412-2.93,2.83-4.392,2.83,0,1.419-2.934,1.419-2.934,1.419a4.323,4.323,0,0,1-1.463,2.83s-4.4,0-5.859-1.419-4.4-2.83-2.929-2.83c0,1.419-1.467,4.249-1.467,4.249,0,1.418-2.93,5.66-4.4,5.66s-4.393-1.412-5.859-2.83h-2.929v9.909c-1.463,0-4.392,1.418-4.392,1.418s1.463,2.83,0,2.83c-1.467,1.418-2.934,2.83-4.4,2.83,0-1.412-2.929-2.83-2.929-2.83a20.307,20.307,0,0,0-2.93,4.249,4.879,4.879,0,0,1-1.467,2.83l-10.255,11.327c-1.463,0-4.392-4.249-4.392-4.249v4.249a21.053,21.053,0,0,1-4.4,2.83c0,1.418-1.467,0-2.929,0,0,1.418-1.467,1.418-1.467,2.837a4.909,4.909,0,0,1-1.463,2.83s-2.929,1.419-2.929,2.83a21.053,21.053,0,0,1-4.4,2.83,2.073,2.073,0,0,1-2.929,0c-1.467,0-4.4-4.242-4.4-4.242s-2.93,0-2.93,1.412c-1.463,1.418-1.463,2.83-2.929,2.83a5.494,5.494,0,0,1-4.4,1.418c-1.463,1.419-4.392,1.419-4.392,2.83-1.467,0-2.93,2.83-2.93,4.249s2.93,1.418,0,1.418a20.264,20.264,0,0,1-7.326,1.412s-2.929,1.419-2.929,2.83c-1.467,1.419,0,1.419-2.93,2.837a5.165,5.165,0,0,0-2.929,1.412l-2.93-2.83,1.463-2.83s-1.463-2.83-1.463-1.419c-1.467,2.83,0,4.249,0,4.249a1.422,1.422,0,0,0-1.467,1.418c-1.467,1.412,0,1.412-1.467,2.83a3.094,3.094,0,0,1-2.93,2.83c0,1.418-1.463,1.418-2.929,1.418h-2.93c-1.463,0-2.929-1.418-1.463-1.418l2.93-1.412s1.463-1.419,0-1.419c-1.467-1.418-2.93-2.83-2.93-2.83s1.463,1.412-2.929,1.412q-4.4,2.128-4.4,0s-2.929,0-1.467-1.412c2.929-1.418,2.929-2.837,4.4-2.837s1.467-2.83,1.467-4.242c0,0,2.929,2.83-1.467,0l-2.929-4.249a4.879,4.879,0,0,0-1.467,2.83c1.467,1.418,4.4,2.83,0,4.249h-4.393c-1.467,1.412-5.859,1.412-5.859,1.412s-2.933,0-1.467,1.419c0,1.418,2.929,2.83,2.929,2.83s0,1.418-2.929,1.418c-1.467,1.419-4.4,1.419-4.4,1.419l-1.463,1.412a1.42,1.42,0,0,1-1.467-1.412,4.908,4.908,0,0,0,1.467-2.837c0-1.412,1.463,0,0-1.412-1.467-2.837-2.929-2.837-2.929-4.249a20.962,20.962,0,0,1,4.392-2.83v-2.837s-1.463,0,0-1.412a17.674,17.674,0,0,1,2.93-4.249,3.094,3.094,0,0,0-2.93-2.83s-1.463,2.83-1.463,4.249c0,0,1.463,2.83-2.929,1.412-4.4,0-7.326,0-8.793-1.412,0-1.419-2.929-2.837,1.467-2.837l4.4-1.412a5.1,5.1,0,0,0,1.463-4.249c-1.463,0-2.929-2.83-2.929-1.418a10.706,10.706,0,0,0-1.467,4.249h-5.859a4.882,4.882,0,0,1-1.463-2.83l1.463-5.667s2.929-1.412,1.467-1.412c0,0-2.929-1.418-2.929,0-1.467,0,0,1.412,0,2.83s0,2.83-1.467,2.83c-1.463,1.418-7.326,1.418-7.326,1.418,0-1.418-1.463-1.418,0-2.83v-2.837s-1.463-2.83-1.463-1.412h-2.929v-2.83h-4.4l-1.463-1.418c-1.467,0-1.467,0-1.467,1.418a34.2,34.2,0,0,0-5.859,1.412s0-2.83-1.467,0c0,1.418-7.322,1.418-7.322,1.418s-1.467-2.83-1.467-4.249l1.467-4.249,1.463-1.412-1.463-1.418h-2.933c0-1.418,2.933-4.249,2.933-4.249l1.463-1.418c1.467-1.412,4.4-1.412,2.93-2.83a5.181,5.181,0,0,1-2.93-1.412A1.42,1.42,0,0,1,213.8,549.4s1.463-2.83,1.463-4.249a4.908,4.908,0,0,0-1.463-2.83c-1.467,0,0,1.418-2.933,1.418a58.449,58.449,0,0,1-5.859,4.242v-4.242c1.467-1.418,5.859-1.418,7.326-2.837,0-1.412-2.929-5.66-2.929-5.66s2.929,1.418,1.463-1.419l-2.93-1.412a5.083,5.083,0,0,1,1.467-4.249c1.463-2.83,2.929-2.83,2.929-4.249,0,0-4.4-1.419-4.4-2.83s-2.93-1.419,0-4.249a4.612,4.612,0,0,1,2.93-1.419v-5.66c0-1.418,1.467-1.418,1.467-2.83-1.467-1.419-2.929-1.419-4.4-4.249v-2.83c1.467,0,2.93-1.419,1.467-1.419V495.6l-1.467-2.83c-1.463-1.419-1.463-4.249-1.463-5.667a59.463,59.463,0,0,1,1.463-7.079s0-4.249-2.93-5.66a10.753,10.753,0,0,0-4.392-4.249v-4.249s-2.93-1.418-2.93-2.83-1.467-4.249-1.467-4.249-1.467,0,0-2.83v-7.079c-1.467-1.418-2.929-4.249-2.929-5.667v-4.249a4.318,4.318,0,0,0-1.467-2.83c-1.463-1.419-5.859-8.5-5.859-8.5s-1.463,0-1.463-2.83a13.686,13.686,0,0,1-1.467-5.66V414.9l-4.4-4.249,1.467-5.66V399.32s0-7.079,1.463-7.079,4.4-4.249,4.4-4.249,2.93-4.249,1.467-5.66a59.329,59.329,0,0,0-1.467-7.079s2.93-4.249,1.467-4.249c0-1.418-2.929-7.079-2.929-7.079l-4.4,4.249-2.929-1.418,1.463-5.66s-2.929-2.837-2.929-4.249,2.929-4.248,2.929-4.248,2.93,5.66,2.93,7.079,2.933,2.83,2.933,2.83c1.463-1.412,1.463-4.249,2.929-4.249a3.1,3.1,0,0,1,2.93,2.837l5.859-1.419s-1.467-1.418,2.929-1.418c4.4,1.418,4.4,0,4.4-2.83,0-1.412-4.4-7.079-1.467-7.079,4.4,0,5.859,1.419,5.859,1.419v2.83c0,2.831,4.4,5.66,4.4,2.831,1.467-2.831,1.467-1.412,1.467-4.249s-2.933-2.83-4.4-5.66c0-1.418-1.467,1.412-1.467-2.83,1.467-4.249,1.467-5.667,2.93-5.667l2.933-1.411c2.93,0,4.392-2.837,2.93-7.086,0-2.831-1.467-4.242,0-5.66,2.93-1.418,1.463-2.83,4.392-1.418s1.467,1.418,4.4,1.418c1.463-1.418,1.463-8.5,1.463-8.5-1.463,1.418-4.392-1.411-4.392-1.411-1.467,0-1.467-2.831,0-4.249,0,0,0-2.83,1.463-2.83,2.929,0,2.929,1.412,5.863,0,1.463-1.418,1.463-1.418,2.929-2.836s2.93-1.412,4.392-4.242c0-1.419,1.467-9.916,1.467-9.916-1.467-1.412,1.463,0,4.4-1.412,1.463-1.418,2.929-9.916,4.392-11.327,1.467-2.83,5.859-8.5,5.859-9.909s4.4-11.327,4.4-11.327l5.859-9.916a13.718,13.718,0,0,0-1.463-5.66c0-1.418-1.467-7.078,0-8.5,1.463,0,2.929-4.249,2.929-4.249v-5.66l7.326-4.248c8.789-1.412,2.93-5.66,13.181-1.412,0,0,5.863-1.419,4.4-2.837l-5.859-5.66,2.929-4.248s4.4-2.83,0-4.249c-2.929-1.412-5.858-2.831-5.858-4.248a59.312,59.312,0,0,1-1.467-7.079c0-1.412-1.463-5.66-1.463-5.66V174.2c0-1.418-1.467-5.667-2.929-7.078S268,161.457,268,161.457l-10.255-4.249-2.929,2.838-7.326-7.079-5.859-1.418h-5.858l-10.255-21.237-8.789-4.248-5.863-5.667v-7.079l-4.392-5.66s1.463-4.249,1.463-5.66c1.467-1.418,4.4-8.5,4.4-8.5a59.625,59.625,0,0,1-1.467-7.078c0-1.418,1.467-8.5,1.467-8.5l-1.467-7.079L193.291,51.02l1.463-8.49-1.463-4.249c-1.467-4.248-1.467-4.248,0-7.079V29.784L187.432,31.2l-4.4-5.667,1.467-7.079L181.569,1.469l2.933-8.5L175.71-11.27l-5.859-8.5s-1.463,2.83-2.929,1.412-8.789-12.739-8.789-12.739l-13.185-4.249-5.859-2.83-7.326-1.418s-1.467,2.83-2.929,0a26.588,26.588,0,0,0-4.4-5.661l-5.859,1.412-4.4-5.66h-2.929A20.949,20.949,0,0,0,106.857-52.331ZM285.579,610.278h0v2.837a5.182,5.182,0,0,0,2.934,1.412,20.96,20.96,0,0,0,4.392-2.83h0l-2.929-2.83S287.046,610.278,285.579,610.278Zm-19.044,0h0v2.837c0,1.412,1.467,1.412,2.93,0A4.616,4.616,0,0,0,272.4,611.7c1.463-1.418,0-2.83-1.467-2.83,0-1.418-1.467,0-1.467,0A5.183,5.183,0,0,0,266.536,610.278ZM231.378,593.29h0l-1.463,1.418a1.913,1.913,0,0,0,0,2.83c0,2.83,1.463,2.83,1.463,2.83a6.539,6.539,0,0,1,4.4-1.419c1.463,0,4.392-2.83,4.392-4.242,1.467,0,1.467-2.837,2.934-2.837s5.859,1.418,7.322,1.418-1.463-4.249-1.463-4.249c0-1.412-4.4,0-4.4,0s-2.93,0-4.4-1.412H238.7c-1.467,1.412-1.467,2.83-2.929,4.242s-1.467,0-1.467-1.412c0,0-2.929-1.419-4.392,0A4.882,4.882,0,0,1,231.378,593.29Zm-11.718,0h0a15.532,15.532,0,0,0,5.859,1.418c1.463,0,0-1.418,1.463-2.837,0-1.412-1.463,0-2.929-1.412h-2.93C218.194,590.46,219.66,593.29,219.66,593.29Zm-13.185-15.576h0c-1.467,7.079,5.859,2.837,5.859-1.412-1.467-2.837,0-2.837-2.929-5.667-1.467-4.249-1.467,0-2.93,1.418-1.467,2.83,1.463,2.83,1.463,4.249S206.476,576.3,206.476,577.714Zm-11.722,16.994h0s-1.463,1.412,0,4.242c0,1.419,0,0,4.4-2.83,2.93-2.83-1.463-1.412-1.463-1.412C197.687,593.29,196.22,594.709,194.754,594.709Zm0,8.49h0s0,2.837,1.467,2.837,1.467-1.419,2.929-2.837c0-1.412-1.463-1.412-1.463-2.83A3.1,3.1,0,0,0,194.754,603.2Zm-4.392,7.079h-2.93l-4.4,2.837c-4.4,1.412-1.467,2.83-1.467,4.242,0,2.837,4.4,0,7.326-1.412,1.467,0,0-1.419,1.467-1.419l2.929-1.412c2.929-1.419,1.463-1.419,1.463-2.837C194.754,610.278,191.824,608.866,190.361,610.278Zm-38.091,7.079h0c1.467,0,2.933-1.412,4.4,0s0,4.249,0,4.249c-1.463,1.419-2.929,2.837-4.4,2.837a5.49,5.49,0,0,1-4.392-1.418v-5.667Zm11.722-21.236h0s0,2.83-1.467,2.83c-2.929,1.419-1.463-2.83-1.463-4.242s-5.859,1.412-5.859,1.412,0,4.249-1.467,5.667c-1.467,0-1.467,0-2.929,1.412s-1.467,4.249-1.467,4.249c1.467,1.418,4.4,1.418,4.4,1.418,1.467,0,1.467,0,5.859,2.83,5.859,1.419,1.467,0,5.859,0,2.933,0,1.467,1.419,2.933,1.419s2.929,2.83,4.392,4.242c2.93,1.418,4.4-1.412,5.859-1.412,0-1.419,2.93-5.667,2.93-5.667l-8.789-2.83c-1.463,0-2.929-4.249,0-4.249,1.467,0,1.467,1.418,2.93,2.837,0,1.412,1.467,1.412,2.929,1.412a3.094,3.094,0,0,0,2.93-2.83c0-1.418-1.463,0-4.392-4.249-4.4-4.249,0-2.83,1.463-2.83,0-1.419,2.93-4.249,2.93-4.249,1.467-1.418-2.93-1.418-4.392-2.83H175.71c0,1.412-4.392,0-5.859-1.419,0,0,0-2.83-1.463-4.249h-5.863c-2.929,0-1.463,4.249-1.463,4.249a20.293,20.293,0,0,0,2.929,4.249Z" transform="translate(498.578 1727.232)" fill="rgba(25,95,140,0.2)" fill-rule="evenodd"/>
    <path id="Path_28" data-name="Path 28" d="M409.249-51.278v-1.414s-2.9-5.684-1.449-8.522v-2.847l-5.807,1.424-4.351-5.675,1.449-7.107-2.9-17.044,2.9-8.522-8.705-4.261-5.8-8.522s-1.449,2.847-2.9,1.423-8.705-12.783-8.705-12.783l-13.06-4.261-5.8-2.838-7.256-1.424s-1.449,2.847-2.9,0a26.512,26.512,0,0,0-4.351-5.675l-5.807,1.415-4.351-5.675h-2.9a20.943,20.943,0,0,0-4.354-2.847l-4.351-7.1-5.8-2.838-7.256-2.847v-5.675l-10.158-5.684s-1.449-2.838,0-2.838c1.453-1.423,5.8-1.423,8.705-1.423l-7.253-1.415-8.709,7.1h-4.351s-2.9,1.415-2.9,2.838c1.449,1.424,4.351,14.206,5.8,17.044,1.449,1.423,1.449,11.36-4.354,18.467l5.8,5.675-5.8,7.1-8.705,1.424s-8.705-1.424-10.158-2.838-8.705-4.261-10.154-4.261c-2.9,1.424-23.217,0-23.217,0-4.351,5.675-2.9,35.5-1.449,39.763l-2.9,5.684H217.72l-14.509-7.1L197.4-74s-5.8,5.684-5.8,8.522c0,1.414-2.9,7.1-2.9,7.1v11.359l-2.9,5.684-8.705,5.684v7.1s4.354,8.522,7.256,9.945c1.449,2.838,4.351,14.2,4.351,14.2s-4.351,9.945-5.8,12.783-13.06,17.044-13.06,17.044l-7.253,18.458V56.659l-1.453,7.107L150.973,73.7l-13.056,1.424-4.354,4.261,7.256,24.142-2.9,11.36-1.453,9.945s-2.9,8.522-1.449,9.945a55.111,55.111,0,0,1,2.9,8.522l-5.8,4.261,1.449,8.513L111.8,193.008l2.9,7.1,13.06,2.838,1.449,22.728-4.351,9.936-1.453,2.847L88.583,239.87,69.72,264.012l-2.9,14.206-1.453,9.946s-4.354,5.675-4.354,8.521v9.936l5.807,11.36V326.5l-2.9,4.261,1.449,9.945s1.453,2.838,0,4.261c-2.9,2.838-2.9,5.684-1.449,8.522,0,1.423,10.154,19.881,10.154,19.881L75.524,417.4l4.351,11.359,10.158,7.1,8.705,7.1,1.453,12.783s-2.9,9.945-2.9,11.369c1.449,1.414-7.256,1.414-7.256,1.414l-7.256,1.423-7.253,7.1,2.9,8.522,4.351,12.783,8.709,9.945,2.9,8.522-4.354,8.522-2.9,4.261,2.9,7.1v7.1s-2.9,4.261-2.9,5.684-5.8,5.675-5.8,5.675l-4.354,4.261-4.351,1.423s-2.9-1.423-4.354,0l-2.9,2.838v4.261l2.9,2.847-1.449,7.1-4.354,4.261-4.354,1.423,2.9,8.513,5.807,9.945v8.522l-4.354,8.522-1.453,9.945-1.449,8.522-2.9,1.414H52.306s0-8.522-1.449-9.936L40.7,620.5v8.522l-1.449,9.936s1.449,5.684,2.9,7.1,2.9,11.368,2.9,11.368L43.6,667.357l2.9,7.108a60.51,60.51,0,0,0,1.453,7.1l5.8-1.423-1.453-4.261,4.354,5.684h0c1.449,0,4.351-2.838,4.351-2.838l-1.449,4.261-2.9,5.675,1.449,1.423,4.354,1.423-5.8,7.1a56.3,56.3,0,0,0,4.351,5.675l5.807-4.261v2.847s-4.354,4.261-4.354,7.1c1.453,1.423,8.705-1.423,7.256,0s-1.453,4.261-1.453,4.261-4.351,4.261-1.449,5.684c1.449,1.414,5.8,2.838,4.351,2.838,0,1.423-4.351,4.261-4.351,4.261s-1.453,2.838,0,4.261,5.8,1.423,5.8,1.423v-1.423c0,1.423-1.453,4.261-1.453,4.261s-1.449,2.838,0,4.261h4.354v14.2s-1.453,1.423,2.9,1.423c2.9,0,2.9-1.423,4.351-1.423s1.453,1.423,2.905,2.847v5.675c1.449,1.423,7.253,15.629,7.253,15.629s1.453,5.675,2.9,7.1c0,1.423,1.453,2.838,2.9,4.261l2.9,4.261,4.354,2.838,5.8,9.945,4.354,4.261c1.449,0,4.351-2.847,4.351-2.847s4.354,1.423,4.354,2.847c-1.453,0-2.9,5.675-2.9,7.1,1.449,1.423,1.449,4.261,1.449,4.261l-2.9,1.423L117.6,825h-5.8l-1.449,5.684,5.8,2.838s2.9,2.847,4.351,2.847v7.1H113.25l-2.9,4.261c0,1.423-1.453,1.423,1.449,5.684,1.453,2.838,8.705,11.359,8.705,11.359l5.8,8.522c0,1.414,4.354,7.1,4.354,7.1,1.453,0,1.453,5.684,1.453,5.684l-1.453,2.838-1.453,4.261-1.449,4.261,1.449,2.838-1.449,2.847-2.9,4.261,7.256,1.414,8.705-1.414,1.449,2.838c1.453,1.423,8.705,0,8.705,0l5.807-2.838,4.351-2.847V901.7l2.9-4.261a33.391,33.391,0,0,1,5.8,1.423s4.354,0,4.354,1.414,2.9,2.847,2.9,2.847h4.354L185.8,901.7l5.8-1.423s-1.449-2.838,0-2.838h5.8s1.453,2.838,2.905,2.838c0,0,2.9-2.838,1.449-4.261s-7.256-4.261-7.256-4.261-2.9-4.261-2.9-5.675c-1.449-1.423-1.449-5.684-2.9-7.108-1.449,0-2.9-1.414-2.9-4.261,1.453-4.261,1.453-5.675,1.453-5.675v-7.108s-1.453-2.838,2.9-5.675,4.351-5.684,5.8-4.261,4.354,4.261,5.8,4.261c0,1.414,1.453,1.414,2.9,2.838,0,1.423-1.449,2.838,1.453,2.838h4.351a1.411,1.411,0,0,0,1.453-1.414c0-1.423,0-5.684-1.453-5.684-1.449-1.414-2.9-2.838-2.9-2.838s2.9-1.423-1.449-2.838c-4.354-2.847-4.354-4.261-2.9-5.684,2.9-1.423,8.705,0,8.705,0l4.351-1.423s2.9-2.838,5.807-1.414c1.449,1.414,7.253,0,7.253,0l7.256,1.414,2.9-2.838,7.256,2.838s-1.453,0,2.9,1.423c2.9,0,7.253-2.838,7.253-4.261,1.453,0,7.256-9.945,7.256-9.945l4.354-28.4s5.8-4.261,4.351-4.261V783.816c0-1.414,2.9-11.359,2.9-11.359s5.8-4.261,2.9-8.522c-1.449-4.261-2.9-11.359-2.9-11.359s-1.449-7.1-1.449-8.522,5.8-8.522,5.8-8.522l-4.354-12.783s2.9-4.261,2.9-5.684-2.9-14.2-2.9-14.2v-2.847s4.354-7.1,2.9-8.513v-8.522l-2.9-8.522s2.9-1.423,1.452-2.847a17.716,17.716,0,0,0-2.9-4.261V664.52l1.449-2.838,2.9-2.847-1.449-8.522-5.8-1.414s0-2.847,1.449-2.847c2.9-1.414,13.06-5.675,13.06-5.675s2.9-4.261,4.354-4.261c0-1.423,11.607-8.522,11.607-8.522v-5.684c1.449,0,1.449-1.414,1.449-4.261,1.453,0-1.449-12.783-1.449-17.044,1.449-2.838,4.351,2.847,4.351,2.847l1.453,4.261v8.522l4.354,1.414,1.449,4.261s-1.449,4.261,0,4.261l1.453-1.414,1.449-8.522s5.8,0,4.354-2.847c0-1.414-1.453-4.261,0-4.261,8.705-1.414,5.8-1.414,10.154-4.261l2.9-5.675c0-1.423,1.453-4.261,1.453-4.261l-2.9-1.423-1.453-4.261s1.453-2.838,2.9-1.423c0,1.423,1.453,4.261,2.905,4.261s5.8-4.261,5.8-4.261c0-4.252-10.158-9.936-13.06-11.359,0-5.675,14.509-12.783,14.509-14.2,1.453-1.423,1.453-1.423,1.453-2.847s-1.453-2.838-2.9-1.414c0,0-1.453,2.838-2.9,2.838h-2.9s-1.453-2.838,0-4.261,0-1.423,2.9-2.838a5.392,5.392,0,0,1,4.351-1.423,3.084,3.084,0,0,1,2.9-2.838c1.453,0,8.705-4.261,8.705-4.261l1.453-2.847-4.354-4.261-7.253-5.675s-2.9,0-2.9-1.423l-2.9-2.838c-2.9-7.1-5.807-1.423-11.61-4.261l-2.9-5.684s2.9,0,2.9-1.414c0-2.847-2.9-5.684-2.9-5.684l-2.9-2.838c-5.8-5.684-4.351,7.1-8.705-4.261,0,0-1.449,0-2.9-2.847-1.453-1.414-5.8-5.675-5.8-5.675l-1.453-4.261c-1.449,0-2.9-4.261-2.9-4.261l-7.253,4.261-4.354,4.261-1.453-2.847v-5.675a33.387,33.387,0,0,0-5.8-1.423h-4.351l-5.8-1.423v-4.261s2.9-2.838,1.449-4.252c0-1.423-4.351-4.261-4.351-4.261v-2.847l-4.354-5.675,2.9-4.261c0-1.423-5.8-14.206-5.8-14.206s2.9-5.684,2.9-7.1l-2.9-5.684h-2.9v-5.684l1.449-4.252-2.9-2.847s1.453-2.838,2.9-2.838V410.3s1.453-2.838,2.9-2.838l4.354,2.838s4.354,1.423,4.354,0l-1.453-4.261c0-1.414-2.9-4.261-2.9-4.261-1.453-1.414-1.453-8.522-1.453-8.522s-2.9-5.675-1.449-5.675l1.449-2.847,1.453-9.936,1.453-8.522-4.354-4.261-1.453-2.838-2.9-2.847,2.9-8.522h5.807l2.9-4.261s4.351-2.838,4.351-4.261l1.452-5.675-1.452-4.261,2.9,1.414V326.5l1.453-4.261a5.112,5.112,0,0,0,2.9-1.414l2.9-5.684a2.035,2.035,0,0,0,2.9,0c1.453-1.424,1.453-1.424,1.453-2.838l4.351-8.522v-2.838c1.453,0,4.354,0,4.354-1.424a56.8,56.8,0,0,1-4.354-5.684l4.354-4.261,4.351-4.261c0,1.423,1.453,1.423,2.9,0,0,0,1.453-1.415,2.9-2.838a5.1,5.1,0,0,1,2.905-1.424c0-1.414,1.449-4.261,1.449-5.675l2.9-7.107v-4.261l1.453-1.415,2.9-2.847s2.9-1.414,2.9,0L322.19,262.6h4.354v-1.423a5.1,5.1,0,0,1,2.9,1.423c0-1.423,1.449-4.261,1.449-4.261v-4.261s2.9-2.838,4.354-4.261c0-1.424,4.354-5.684,4.354-5.684l4.351-1.415a5.1,5.1,0,0,1,2.9-1.423l4.354-5.684a4.36,4.36,0,0,1,1.449-2.838c0-1.423,2.9-1.423,2.9-2.838,1.453,0,4.354-7.107,4.354-7.107a1.411,1.411,0,0,0,1.453-1.415,14.452,14.452,0,0,1,1.449-5.684l2.9-5.684V201.53l2.9-7.108a4.9,4.9,0,0,0,1.452-2.838c1.449,0,2.9-4.261,2.9-4.261l4.351-5.684a31.678,31.678,0,0,0,1.453-5.675h1.453V171.7l-2.905-5.684-5.8-4.261h-4.351l-2.9-2.837,1.449-2.847-2.9-4.261-1.449-2.838-2.9-2.838,2.9-4.261a4.943,4.943,0,0,0,1.449-2.838l2.9-4.261,2.9-4.261a4.939,4.939,0,0,0,1.452-2.847,60.518,60.518,0,0,0-1.452-7.1s0-4.261,1.452-4.261a4.908,4.908,0,0,1,1.449-2.838,4.546,4.546,0,0,1,2.9,1.415c1.453,0,1.453-2.838,1.453-2.838s0-4.261-1.453-4.261-2.9-2.838-2.9-2.838l1.453-1.424c0-1.423,2.9-2.838,2.9-2.838l4.354-1.423-1.453-4.261V90.746l5.8,1.423c0,1.424,1.453,4.261,2.9,4.261V92.17s1.453-4.261,2.9-2.838c2.9,1.415,4.354-1.423,5.8-1.423,0-1.424,1.453-4.261,1.453-4.261s1.449-4.261,0-5.684c-1.453,0-2.9,0-2.9-1.415,0,0,1.449-2.847,2.9-2.847s1.449,0,4.351-1.414a4.367,4.367,0,0,0,1.453-2.847l4.354-1.415,5.8-2.847V62.343h2.9a5.1,5.1,0,0,1,2.9,1.424h2.9c0-1.424-1.453-2.847,0-2.847,1.449,1.423,1.449,1.423,1.449,2.847h1.453c1.453,0,2.9,1.414,4.354,2.838v7.1s4.351,2.847,4.351,1.424V72.289c-1.449-1.424,0-2.847,0-4.261-1.449-1.423-2.9-4.261-2.9-5.684a5.1,5.1,0,0,1,2.9-1.423c1.453,0,0-1.415,1.453,0s1.449,2.847,2.9,2.847h1.449c0,1.414,1.453,2.838,1.453,4.261v2.838l2.9,4.261,2.9-2.838V66.6c0-1.424-4.354-5.684-4.354-5.684a4.354,4.354,0,0,1,1.453-2.838,17.762,17.762,0,0,1,4.354-2.838l-8.709-18.467-8.705-4.261-5.8-5.675V19.734l-4.354-5.675a31.612,31.612,0,0,0,1.453-5.684c1.449-1.423,4.354-8.521,4.354-8.521a60.5,60.5,0,0,1-1.453-7.1c0-1.423,1.453-8.522,1.453-8.522l-1.453-7.1L407.8-42.757l1.449-8.521ZM278.66,832.11h0l1.453-11.368-2.9-4.261c0-1.414-1.452-4.261-1.452-8.522,1.452-4.261,1.452-5.675,2.9-8.513,0-2.847,2.9-4.261,2.9-7.108,0-4.261,0-5.675,1.453-8.522,0-2.838,1.449-5.675,2.9-5.675,0-1.423,2.9-7.108,2.9-7.108l1.453-7.1s2.9-7.1,2.9-8.522-1.453-7.1-1.453-8.522c1.453-1.414,4.354-4.261,4.354-4.261h4.351s0,4.261-1.449,5.684a5.1,5.1,0,0,0-2.9,1.414c0,1.423,2.9,4.261,2.9,4.261v5.684l-2.9,5.684-2.9,7.1v7.1l-1.453,4.261-1.449,4.261-2.905,8.522,1.453,7.1-4.354,8.522v15.629s0,4.261-1.449,4.261Zm59.491-86.633h0L336.7,742.63l4.351-1.414a60.457,60.457,0,0,1-1.449-7.108c0-1.414-1.453,0-2.9-2.838-1.453-1.423-1.453-5.684-1.453-5.684a31.686,31.686,0,0,1,1.453-5.675,104.421,104.421,0,0,1,7.253-8.522c4.354-4.261,2.9-4.261,2.9-7.108-1.449-1.414,1.453-2.838,1.453-2.838l4.351-4.261,2.9-7.1,4.354,4.261c1.453,0,1.453-1.423,1.453-2.838s2.9-1.423,2.9-1.423a33.473,33.473,0,0,0,5.8-1.423l1.449-2.838s5.8-1.423,8.709,0c1.449,1.423-1.453,1.423-1.453,2.838v2.847c0,1.414-1.453,2.838-5.8,2.838-4.354,1.414-1.453,4.261-1.453,4.261v5.675c-1.449,1.423-4.351,4.261-7.253,4.261-1.453,1.423-1.453,4.261-1.453,4.261,0,1.423,1.453,4.261,1.453,7.107,0,1.414,0,1.414,1.449,4.261,0,1.414,2.9,1.414,4.354,1.414,0,1.423,2.9,4.261,1.449,5.684s-2.9,2.838-4.351,2.838c0,1.423-2.9,5.684-2.9,5.684a6.741,6.741,0,0,1,0,5.684c0,2.838-2.9,1.414-4.354,2.838l-4.354,4.261c-1.449,0-2.9,5.675-2.9,8.522v5.675c0,1.423,0,0-2.9,4.261-4.351,4.261-2.9,1.423-7.253,0-5.8,0,0-1.414,1.449-4.261s2.9-5.675,2.9-5.675l-1.449-5.684-2.9-4.261Z" transform="translate(284.589 1820.981)" fill="rgba(25,95,140,0.2)" fill-rule="evenodd"/>
    <rect id="Background" width="1366" height="1292" transform="translate(-6 1450)" fill="url(#linear-gradient)"/>
    <g id="Ellipse_20" data-name="Ellipse 20" transform="translate(583 2356)" fill="#417da5" stroke="#417da5" stroke-width="1">
      <circle cx="9.5" cy="9.5" r="9.5" stroke="none"/>
      <circle cx="9.5" cy="9.5" r="9" fill="none"/>
    </g>
    <g id="Ellipse_21" data-name="Ellipse 21" transform="translate(577 2377)" fill="#417da5" stroke="#417da5" stroke-width="1">
      <ellipse cx="10" cy="9.5" rx="10" ry="9.5" stroke="none"/>
      <ellipse cx="10" cy="9.5" rx="9.5" ry="9" fill="none"/>
    </g>
    <g id="Ellipse_22" data-name="Ellipse 22" transform="translate(309 2377)" fill="#417da5" stroke="#417da5" stroke-width="1">
      <circle cx="9.5" cy="9.5" r="9.5" stroke="none"/>
      <circle cx="9.5" cy="9.5" r="9" fill="none"/>
    </g>
    <g id="Ellipse_23" data-name="Ellipse 23" transform="translate(562 2361)" fill="#417da5" stroke="#417da5" stroke-width="1">
      <ellipse cx="9.5" cy="10" rx="9.5" ry="10" stroke="none"/>
      <ellipse cx="9.5" cy="10" rx="9" ry="9.5" fill="none"/>
    </g>
    <g id="Ellipse_24" data-name="Ellipse 24" transform="translate(555 2381)" fill="#417da5" stroke="#417da5" stroke-width="1">
      <circle cx="9.5" cy="9.5" r="9.5" stroke="none"/>
      <circle cx="9.5" cy="9.5" r="9" fill="none"/>
    </g>
  </g>
</svg>
