<svg xmlns="http://www.w3.org/2000/svg" xmlns:xlink="http://www.w3.org/1999/xlink" width="800" height="800" viewBox="0 0 800 800"><defs><radialGradient id="radial-gradient" cx="2.411" cy="1.417" r="2.475" gradientTransform="matrix(1 0 0 .963 0 -.007)" gradientUnits="objectBoundingBox"><stop offset="0" stop-color="#fa690f"/><stop offset="1" stop-color="#fffbf8"/></radialGradient><radialGradient id="radial-gradient-2" cx="0.5" cy="0.5" r="0.5" gradientUnits="objectBoundingBox"><stop offset="0" stop-color="#fff"/><stop offset="1" stop-color="#fff" stop-opacity="0"/></radialGradient><clipPath id="clip-path"><path id="Rectangle_317" fill="#c6c6c6" d="M0 0h149v149H0z"/></clipPath><clipPath id="clip-path-2"><path id="Rectangle_318" fill="#c6c6c6" d="M0 0h89v89H0z" transform="translate(.418 .418)"/></clipPath><clipPath id="clip-path-4"><path id="Rectangle_320" fill="#c6c6c6" d="M0 0h33v33H0z" transform="translate(.078 .078)"/></clipPath><clipPath id="clip-safespring-storage-background"><path d="M0 0h800v800H0z"/></clipPath></defs><g id="safespring-storage-background" clip-path="url(#clip-safespring-storage-background)"><path fill="url(#radial-gradient)" d="M0 0h800v800H0z"/><circle id="Ellipse_45" cx="163.5" cy="163.5" r="163.5" fill="#e0e0e0" style="mix-blend-mode:color-burn;isolation:isolate" transform="translate(523 42)"/><circle id="Ellipse_51" cx="322" cy="322" r="322" fill="url(#radial-gradient-2)" opacity="0.888" transform="translate(-111 54)"/><g id="a" clip-path="url(#clip-path)" style="mix-blend-mode:color-burn;isolation:isolate" transform="translate(612 131)"><path id="Path_5549" fill="#c6c6c6" d="M28.3 82.14c25.6 0 38.03-12.72 38.03-27.61 0-32.7-52.07-21.39-52.07-37.78 0-5.58 4.73-10.17 17.03-10.17a51 51 0 0 1 24.83 6.99L62.5-2.07a60.4 60.4 0 0 0-31.11-7.89c-25.48 0-37.8 12.6-37.8 27.73 0 33.08 52.07 21.63 52.07 38.3 0 5.46-5 9.53-17.29 9.53a53 53 0 0 1-29.58-9.3l-6.97 15.53a64 64 0 0 0 36.49 10.3m87.96-54.27L136.5 4.93V-8.39H73.75V8.14h38.12L93.47 28.8v13.61h9.48c11.78 0 16.73 4.2 16.73 10.94 0 7.25-6.4 11.44-16.74 11.44a43.7 43.7 0 0 1-25.6-8.01L69.27 72.6a62 62 0 0 0 34.19 9.54c25.47 0 37.13-13.73 37.13-28.75a25.36 25.36 0 0 0-24.33-25.52Z" transform="translate(8.19 38.298)"/></g><circle id="Ellipse_52" cx="98.5" cy="98.5" r="98.5" fill="#e0e0e0" style="mix-blend-mode:color-burn;isolation:isolate" transform="translate(359 258)"/><g id="a-2" clip-path="url(#clip-path-2)" style="mix-blend-mode:color-burn;isolation:isolate" transform="translate(412.582 311.582)"><path id="Path_5550" fill="#c6c6c6" d="M13.78 45.48c15.41 0 22.9-7.66 22.9-16.62C36.68 9.18 5.33 16 5.33 6.12c0-3.36 2.85-6.13 10.25-6.13A30.6 30.6 0 0 1 30.53 4.2l3.83-9.42a36.4 36.4 0 0 0-18.73-4.74C.29-9.96-7.13-2.38-7.13 6.74c0 19.9 31.35 13.01 31.35 23.05 0 3.29-3 5.74-10.4 5.74A32 32 0 0 1-4 29.93l-4.2 9.35a38.6 38.6 0 0 0 21.96 6.2Zm52.96-32.67L78.9-1v-8.02H41.14V.93H64.1L53.01 13.37v8.2h5.7c7.1 0 10.08 2.53 10.08 6.58 0 4.37-3.85 6.9-10.08 6.9a26.3 26.3 0 0 1-15.41-4.83l-4.86 9.52a37.3 37.3 0 0 0 20.58 5.74c15.34 0 22.36-8.27 22.36-17.3A15.27 15.27 0 0 0 66.74 12.8" transform="translate(8.19 27.025)"/></g><circle id="Ellipse_53" cx="98.5" cy="98.5" r="98.5" fill="#e0e0e0" style="mix-blend-mode:color-burn;isolation:isolate" transform="translate(527 365)"/><g id="a-3" clip-path="url(#clip-path-2)" style="mix-blend-mode:color-burn;isolation:isolate" transform="translate(580.582 418.582)"><path id="Path_5551" fill="#c6c6c6" d="M13.78 45.48c15.41 0 22.9-7.66 22.9-16.62C36.68 9.18 5.33 16 5.33 6.12c0-3.36 2.85-6.13 10.25-6.13A30.6 30.6 0 0 1 30.53 4.2l3.83-9.42a36.4 36.4 0 0 0-18.73-4.74C.29-9.96-7.13-2.38-7.13 6.74c0 19.9 31.35 13.01 31.35 23.05 0 3.29-3 5.74-10.4 5.74A32 32 0 0 1-4 29.93l-4.2 9.35a38.6 38.6 0 0 0 21.96 6.2Zm52.96-32.67L78.9-1v-8.02H41.14V.93H64.1L53.01 13.37v8.2h5.7c7.1 0 10.08 2.53 10.08 6.58 0 4.37-3.85 6.9-10.08 6.9a26.3 26.3 0 0 1-15.41-4.83l-4.86 9.52a37.3 37.3 0 0 0 20.58 5.74c15.34 0 22.36-8.27 22.36-17.3A15.27 15.27 0 0 0 66.74 12.8" transform="translate(8.19 27.025)"/></g><circle id="Ellipse_54" cx="36.5" cy="36.5" r="36.5" fill="#e0e0e0" style="mix-blend-mode:color-burn;isolation:isolate" transform="translate(710 363)"/><g id="a-4" clip-path="url(#clip-path-4)" style="mix-blend-mode:color-burn;isolation:isolate" transform="translate(729.922 382.922)"><path id="Path_5552" fill="#c6c6c6" d="M-.09 10.49c5.7 0 8.45-2.83 8.45-6.13C8.36-2.9-3.2-.4-3.2-4.04c0-1.23 1.05-2.25 3.78-2.25A11.3 11.3 0 0 1 6.1-4.74l1.42-3.47A13.4 13.4 0 0 0 .6-9.97c-5.66 0-8.4 2.8-8.4 6.16C-7.8 3.54 3.77 1 3.77 4.7c0 1.21-1.11 2.12-3.84 2.12a12 12 0 0 1-6.57-2.07L-8.2 8.2a14.3 14.3 0 0 0 8.1 2.29ZM19.45-1.56l4.5-5.1v-2.96H10v3.67h8.47l-4.1 4.6v3.02h2.1c2.63 0 3.73.93 3.73 2.42 0 1.61-1.43 2.55-3.72 2.55a9.7 9.7 0 0 1-5.69-1.78L9 8.36a14 14 0 0 0 7.6 2.13c5.66 0 8.25-3.05 8.25-6.39a5.63 5.63 0 0 0-5.4-5.66" transform="translate(8.036 16.107)"/></g><circle id="Ellipse_55" cx="36.5" cy="36.5" r="36.5" fill="#e0e0e0" style="mix-blend-mode:color-burn;isolation:isolate" transform="translate(455 454)"/><g id="a-5" clip-path="url(#clip-path-4)" style="mix-blend-mode:color-burn;isolation:isolate" transform="translate(474.922 473.922)"><path id="Path_5553" fill="#c6c6c6" d="M-.09 10.49c5.7 0 8.45-2.83 8.45-6.13C8.36-2.9-3.2-.4-3.2-4.04c0-1.23 1.05-2.25 3.78-2.25A11.3 11.3 0 0 1 6.1-4.74l1.42-3.47A13.4 13.4 0 0 0 .6-9.97c-5.66 0-8.4 2.8-8.4 6.16C-7.8 3.54 3.77 1 3.77 4.7c0 1.21-1.11 2.12-3.84 2.12a12 12 0 0 1-6.57-2.07L-8.2 8.2a14.3 14.3 0 0 0 8.1 2.29ZM19.45-1.56l4.5-5.1v-2.96H10v3.67h8.47l-4.1 4.6v3.02h2.1c2.63 0 3.73.93 3.73 2.42 0 1.61-1.43 2.55-3.72 2.55a9.7 9.7 0 0 1-5.69-1.78L9 8.36a14 14 0 0 0 7.6 2.13c5.66 0 8.25-3.05 8.25-6.39a5.63 5.63 0 0 0-5.4-5.66" transform="translate(8.036 16.107)"/></g><circle id="Ellipse_56" cx="36.5" cy="36.5" r="36.5" fill="#e0e0e0" style="mix-blend-mode:color-burn;isolation:isolate" transform="translate(447 187)"/><g id="a-6" clip-path="url(#clip-path-4)" style="mix-blend-mode:color-burn;isolation:isolate" transform="translate(466.922 206.922)"><path id="Path_5554" fill="#c6c6c6" d="M-.09 10.49c5.7 0 8.45-2.83 8.45-6.13C8.36-2.9-3.2-.4-3.2-4.04c0-1.23 1.05-2.25 3.78-2.25A11.3 11.3 0 0 1 6.1-4.74l1.42-3.47A13.4 13.4 0 0 0 .6-9.97c-5.66 0-8.4 2.8-8.4 6.16C-7.8 3.54 3.77 1 3.77 4.7c0 1.21-1.11 2.12-3.84 2.12a12 12 0 0 1-6.57-2.07L-8.2 8.2a14.3 14.3 0 0 0 8.1 2.29ZM19.45-1.56l4.5-5.1v-2.96H10v3.67h8.47l-4.1 4.6v3.02h2.1c2.63 0 3.73.93 3.73 2.42 0 1.61-1.43 2.55-3.72 2.55a9.7 9.7 0 0 1-5.69-1.78L9 8.36a14 14 0 0 0 7.6 2.13c5.66 0 8.25-3.05 8.25-6.39a5.63 5.63 0 0 0-5.4-5.66" transform="translate(8.036 16.107)"/></g></g></svg>