<svg xmlns="http://www.w3.org/2000/svg" xmlns:xlink="http://www.w3.org/1999/xlink" width="1366" height="1327.584" viewBox="0 0 1366 1327.584"><defs><linearGradient id="linear-gradient" x1="0.5" x2="0.5" y1="0.457" y2="0.794" gradientUnits="objectBoundingBox"><stop offset="0" stop-color="#f5fafb"/><stop offset="1" stop-color="#e8eff3" stop-opacity="0"/></linearGradient></defs><g id="Karta" transform="translate(6 -1450)"><path id="Path_26" fill="rgba(25,95,140,0.2)" fill-rule="evenodd" d="m74.39 9.6 8.7-4.27 4.36-8.51 5.8-9.94 2.9-4.26 2.9-7.1 8.7-2.84a64 64 0 0 1 7.26-1.42c1.45-1.42 10.15-8.51 10.15-8.51h1.45l-4.35 7.1v7.1l1.45 5.68 1.45 1.42V-4.6s4.36 2.84 2.9 4.26c-2.9 1.42-5.8 5.68-5.8 5.68l-1.45 8.52-5.8 7.1 1.45 8.51 1.45 7.1-1.45 5.68 4.36 4.26-1.46 2.84 1.46 4.26 4.35 2.84h4.35c1.45 0 5.8-1.42 7.26-1.42s4.35 1.42 4.35 1.42l4.35 5.67v4.26s-1.45 2.84-1.45 4.26a20 20 0 0 0-2.9 4.26l-2.9 2.84-1.45 4.26-1.45 2.84-2.9-2.84s0-4.26-1.45-2.84c-1.45 0-2.9 2.84-2.9 2.84l1.45 2.84s1.45 4.25 0 4.25h-2.9l-1.45-5.68-4.35-1.41 2.9-5.68-2.9-1.42a4.5 4.5 0 0 0-2.9 1.42 60 60 0 0 1-1.45 7.1l-1.45 5.68a5 5 0 0 1 1.45 2.84 5 5 0 0 1-1.45 2.84v2.84s1.45 2.83 1.45 4.25a1.4 1.4 0 0 1-1.45 1.42v2.84a5 5 0 0 0-2.9 1.42l-2.9 1.42a5 5 0 0 0-2.9-1.42c-1.46 0-1.46-1.42-2.9 0l-1.46 1.42 1.46 1.42h2.9v2.84a1.4 1.4 0 0 1 1.45 1.42l-2.9 2.84-2.9 2.84-2.9 1.42s-2.9-1.42-2.9 0h-2.9c0 1.41 2.9 4.25 2.9 4.25l-5.8-5.67h-2.9l4.35 2.84 1.42 2.83 2.9 1.42-1.45 1.42-1.45 1.42-2.9 2.83a5 5 0 0 1-2.9 1.42h-4.36l1.45 1.42 2.9 1.42s1.45-1.42 1.45 0c-1.45 0-1.45 0-1.45 1.42v7.1l2.9 4.26 1.45 1.42v5.68a5 5 0 0 1-2.9 1.41l-5.8 1.42-1.45 2.84 2.9 1.42v2.84A5 5 0 0 1 83.1 170H86l4.36 1.42 5.8 7.1-1.45 5.68-2.9 2.84-2.9-5.68a1.4 1.4 0 0 0-1.45 1.42c-1.45 0-5.8 2.84-5.8 2.84s-2.9 1.42-4.36 1.42h-1.45l-4.36-1.42-5.8-2.84s-2.9-1.42-4.35-1.42-8.7-2.84-8.7-2.84l-2.9 1.42h-4.36l-2.9-1.42-2.9-4.26-1.45-2.84 4.35-2.84a1.4 1.4 0 0 0 1.45-1.41v-8.52a5 5 0 0 1 1.45-2.84s0-4.26-1.45-5.68v-5.68l-2.9-4.26a11 11 0 0 1-4.35-1.42 70 70 0 0 0-7.25-2.83v-4.26l-1.46-1.42s-2.9 0-2.9 1.42v1.42l-2.9-1.42s-2.9-4.26-2.9-5.68a3.1 3.1 0 0 0 2.9-2.84c1.46-1.42 2.9-4.26 2.9-5.68v-5.68s-1.45-1.42 0-1.42h1.44a58 58 0 0 1 5.8-4.26v-2.84s-1.45-2.84-1.45-4.26V97.6c0-2.83-5.8-8.51-5.8-8.51h-2.9v-7.1l1.45-5.68-1.45-9.93v-14.2l2.9-5.68 1.45-2.84 1.45 4.26a1.94 1.94 0 0 0 0 2.84h4.35l1.46 1.42 4.35 2.84 2.9 2.84 2.9 1.42h2.9l1.45-1.42v-1.42l-1.44-2.84a5 5 0 0 0-1.45-2.84l4.35-2.84 1.45-2.84a1.4 1.4 0 0 0-1.45-1.42h-4.35l-1.45-1.42-1.45-2.84s0-2.84 1.45-2.84a32 32 0 0 1 1.45-5.68s-1.45-2.84 1.45-2.84h4.35s1.45-2.84 2.9-2.84c0 0 1.45-1.41 1.45 0 1.45 0 0 4.26 0 4.26l-2.9 2.84a5 5 0 0 1 1.45 2.84v2.84l-2.9 4.26h1.46v2.84l4.35-1.42-1.45-1.42a1.94 1.94 0 0 1 0-2.84c1.45-1.42 1.45-2.84 2.9-2.84 0-1.42 0-1.42 2.9-1.42 1.45 0 4.35 2.84 4.35 2.84s1.45 1.42 0 1.42a5 5 0 0 1-1.45 2.84l2.9 4.26a4.6 4.6 0 0 0-2.9 1.42v1.42c0 1.41-4.35 2.83 0 2.83 2.9 0 2.9 0 2.9-1.42v-2.83h4.35l1.45 1.42v4.26s2.9 2.84 2.9 1.42 1.45 0 0-2.84c-1.45-1.42-1.45-4.26-1.45-4.26v-2.84c-1.45-1.42-2.9-1.42-2.9-2.84l-4.35-4.26v-8.51l1.45-2.84s0-2.84 1.45-4.26c1.45 0 0-1.42 1.45-1.42 2.9-1.42 1.45-1.42 4.35-1.42 1.45 0 4.36 1.42 5.8 1.42L86 22.37v-1.42c1.45 0 1.45-2.84 1.45-1.42 1.45 0 1.45 1.42 2.9 0a4.4 4.4 0 0 0 1.46-2.84 4.5 4.5 0 0 0 2.9-1.42 5 5 0 0 0-2.9-1.42s-2.9 0-4.35 1.42h-2.9c-1.45 1.42-1.45 1.42-4.36 1.42s-2.9 0-4.35 1.42a4.5 4.5 0 0 1-2.9 1.42h-4.36l-1.45-1.42h-1.45a5 5 0 0 0-2.9 1.42h-5.8c0 1.42-2.9 1.42-2.9 1.42h-1.46c0 1.42 1.45 1.42 0 2.84h-4.35l-1.45 1.42-1.45 2.84h-1.45l-1.45 4.25v1.43l-2.9 2.83-1.45 1.42 1.45 1.42v1.42l-1.45 1.42 1.45 2.84 2.9-1.42 1.45 2.84-1.45 2.84a5 5 0 0 1-2.9 1.42l-1.45-1.42-1.46-2.84v-2.84l-4.35 1.42v-1.42l-1.45-1.42a5 5 0 0 0-1.45-2.84l-2.9-4.26h1.45c0-1.42 0-1.42 1.45-2.84 0-1.42 2.9-4.26 2.9-4.26l1.45-4.25 2.9-2.84 1.45-2.84 2.9-4.26 2.9-2.84h4.35l2.9 1.42 2.9-2.84 5.8-1.42h1.45l4.36 1.42h8.7ZM42.47 160.06l-2.9-1.42a5 5 0 0 1-1.45 2.84l-1.46 4.25-1.45 1.42V170l-4.35 1.42a1.4 1.4 0 0 0 1.45 1.42h2.9a5 5 0 0 1 1.45-2.84l1.45-1.42c1.45 0 4.36 0 4.36-1.42zm75.45-38.33 1.45-1.42a5 5 0 0 0-1.45-2.84 1.4 1.4 0 0 1 1.45-1.42v-1.42h-1.45a1.4 1.4 0 0 0-1.45 1.42v2.84Zm39.17 38.33 1.45-1.42 1.46 1.42-1.46 1.41zm15.96 18.45h1.45v1.42l-1.45 1.42zm-4.35-2.84-1.45-1.42h4.35l1.45 1.42a1.4 1.4 0 0 0-1.45 1.42 5 5 0 0 1-2.9-1.42m7.25 0-1.45-2.84 1.45-1.42 1.45 1.42-1.45 1.42Zm30.48-8.52-1.46-1.42 1.46-1.42h2.9Zm-2.9 1.42v-4.26l1.45-1.42-1.45-1.42h-1.46l-1.45-2.83h-2.9l1.45-1.42h1.45l1.46-1.42s2.9-4.26 5.8-4.26h4.35l2.9-2.84v-1.42c1.45 0 0-2.84 0-2.84v-2.84l-4.35-2.84-5.8-2.84s0-2.84-1.45-2.84l1.45-2.84s2.9-4.25 5.8-5.67a4.5 4.5 0 0 1 2.9-1.42c1.45 0 2.9 1.42 4.35 2.84h5.8v-4.26c0-1.42 0 0-1.45-1.42l-1.45-1.42v-8.52c0-1.42-1.45-4.26-1.45-4.26a5 5 0 0 0-1.45-2.84l-1.45-2.84v-1.41a14 14 0 0 1 1.45-5.68c1.45-1.42 1.45-4.26 1.45-4.26l-1.45-1.42-5.8-1.42-1.45-1.42a1.4 1.4 0 0 0-1.45-1.42l-5.8 1.42a21 21 0 0 0-4.36 2.84c-2.9 0-2.9 0-4.35 1.42-2.9 1.42-2.9 2.84-4.35 4.26-1.45 0-2.9 2.84-2.9 2.84-1.45 1.42-1.45 1.42 0 2.84 0 1.41 1.45 0 1.45 0h2.9c1.45 0 1.45 1.41 0 1.41v1.42l-1.45 1.42v2.84a1.4 1.4 0 0 1-1.45 1.42l-2.9 2.84a1.4 1.4 0 0 0-1.46 1.42c0 1.42 0 1.42 1.46 2.84v1.42c0 1.42-1.46 2.84-1.46 1.42v-1.42h-5.8l2.9-2.84 1.46-1.42v-1.42h-5.8l1.44-1.42v-2.84l1.45-2.84s0-2.84 1.46-2.84a5 5 0 0 0 1.45-2.83c1.45 0 0-1.42 0-1.42h-2.9l-2.9 1.42a34 34 0 0 1-5.8 1.42h-1.45a1.4 1.4 0 0 0-1.46-1.42h-2.9a1.4 1.4 0 0 0-1.45 1.42s4.36 1.41 5.8 2.83h1.44v1.42s-1.45 2.84-2.9 2.84a1.4 1.4 0 0 1-1.45 1.42l-2.9 1.42 1.45 2.84v2.84l-2.9-1.42-4.35 2.84h-1.45a1.4 1.4 0 0 1-1.45-1.42l-1.46 2.84a64 64 0 0 0-7.25-1.42v2.84l2.9 1.42-2.9 1.42 5.8 2.84 1.45 1.42 1.45 4.26-1.45 1.42 2.9 2.84a4.4 4.4 0 0 0 1.45 2.84v7.1s-2.9 1.42-2.9 2.84h1.45l2.9 2.84 1.45 2.83a5 5 0 0 0-1.44 2.84l2.9 1.42h14.5l4.36-1.42s2.9 2.84 4.36 2.84a1.94 1.94 0 0 1 0 2.83 1.4 1.4 0 0 1-1.45 1.42l1.45 4.26c1.45 1.42 1.45 0 1.45 0l2.9 2.84a1.4 1.4 0 0 0 1.45 1.42h1.45a1.4 1.4 0 0 1 1.45 1.42h4.35a1.4 1.4 0 0 0 1.45-1.42h2.9zm0 7.1-1.46 1.42h1.46l2.9 1.42h1.45l1.45-1.42 1.45-2.84 4.35-1.42h4.35l1.46-1.42V170l-2.9-2.84h-8.7V170c-1.46 1.42-1.46 1.42-2.9 1.42h-1.46Zm-15.97 17.04h1.46l1.45-1.42-1.45-2.84-1.46-1.42-1.45-4.26-2.9-2.84-1.45-1.42-1.45 2.84-1.45 1.42-1.45 1.42s-4.36-1.42-5.8-2.84l-2.9-1.42a4.5 4.5 0 0 1-2.9-1.42l-1.45-1.42a1.4 1.4 0 0 0-1.45-1.42c0-1.42-1.46 0-2.9 0h-4.36a1.4 1.4 0 0 1-1.45 1.42c-1.45 1.42 0 4.26 0 4.26v1.42l1.45 2.84h-4.35l1.45 2.84a4.4 4.4 0 0 0 1.45 2.84l1.45 1.42 7.26 1.42h1.45l5.8 2.83 2.9 2.85h2.9l1.45-1.42 4.35-1.42h2.9l4.36 1.42h1.45v-4.26Zm-56.58-58.2-2.9-1.42-2.9-4.26-4.36-1.42-1.45-4.26c-1.45-1.42-1.45 0-1.45 0s0 2.84-1.45 4.26h-2.9l-2.9 2.84a34 34 0 0 1-5.8 1.42l-1.46 1.42-8.7-1.42-2.9 2.84v1.42l1.45 2.83 1.45 1.42h1.45v2.84l1.44 2.84a18 18 0 0 1 2.9 4.26c1.45 2.84 0 4.26 0 4.26l4.35 4.26 2.9 1.42a5 5 0 0 0 2.9 1.41v4.26l1.45 2.84 1.46-1.42 1.45-1.42 7.25 2.84s5.8 2.84 7.25 2.84l2.9-2.84c1.46-1.42 5.8-1.42 5.8-1.42a1.4 1.4 0 0 0 1.46-1.42c0-1.42 1.45-2.83 1.45-4.25a5 5 0 0 1 1.45-2.84v-2.84l-1.45-4.26 1.45-5.68-2.9-2.84-1.45-1.42v-2.84l2.9-1.42v-4.25l4.35-2.84 1.47-4.26a64 64 0 0 0-7.26-1.42c-2.9 0-1.45 0-1.45-1.42l-1.45-1.42-2.9 1.42c-1.45 0-1.45-2.84-1.45-2.84l-2.9 1.42h-4.35v1.42c-1.46 1.42 0 2.84 1.45 2.84 0 1.42 1.45 4.26 1.45 4.26l1.45 2.84Zm-2.9-19.88h2.9l1.45-2.84a5 5 0 0 0 1.45-2.84v-4.26l-1.45-1.42-1.45-2.84-1.46-4.26h-2.9v2.84a5 5 0 0 0 1.46 2.84l1.45 1.42v1.42l-1.45 1.42-1.46 2.84 1.46 2.84Zm7.25 70.98 1.45 4.26 1.45 2.84s2.9 1.42 2.9 0-1.45-2.84 0-4.26c0-1.42 1.45-4.26 1.45-5.68s1.46-2.84 1.46-4.26c1.45-1.42 2.9-4.26 2.9-5.68 0 0 1.45-2.84 1.45-4.26v-4.26l-1.45-4.25-1.46 2.84v2.84l-2.9 5.67-1.45 2.84-2.9 2.84v4.26l-1.45 1.42v1.42Zm-7.25-12.78 1.45 1.42s1.45 4.26 2.9 4.26l4.35-4.26v-2.84l1.45-2.84-4.35 1.42-2.9 2.84Zm-13.06 2.84 1.45 4.26a5 5 0 0 1 2.9 1.42l2.9 2.84a1.4 1.4 0 0 0 1.45 1.42l2.9-1.42 1.45-2.84h-2.9c-1.45 0-2.9-2.84-2.9-2.84h-1.45c-1.45 0-4.35-2.84-4.35-2.84Zm-23.22-4.26 2.9 1.42 1.45 1.42 2.9 1.42-2.9 2.84s1.45 2.84 2.9 1.42h1.45l2.9 1.42a5.4 5.4 0 0 0 4.35 1.42 1.4 1.4 0 0 0 1.45-1.42v-2.84l-1.45-2.84-1.45-2.84-5.8-1.42-2.9-2.84-4.35-1.42H91.8ZM139.68-1.76v1.42h2.9l2.9 1.42c0 1.41 1.45 0 1.45 0 1.45 0 1.45-1.42 1.45-2.84l1.45-1.42 4.36-2.84c0-1.42-2.9-1.42-2.9-1.42l-4.36 1.42-4.35 1.42Z" transform="translate(175.692 2577.771)"/><path id="Path_30" fill="rgba(25,95,140,0.2)" fill-rule="evenodd" d="M536.74-124.8c-2.9 0-7.26 1.41-7.26-1.42 0-1.42-4.36-5.69-4.36-5.69 0-1.42-2.91-4.26 1.45-5.68 2.9-2.83 13.08-7.1 14.53-7.1 0 0 4.36-7.1 5.82-8.52h10.17a6.4 6.4 0 0 0 4.36 1.42c2.9 1.41 8.71-2.84 5.8 1.41-4.35 2.85-5.8 4.27-7.26 4.27-1.45 1.42-8.71 7.1-8.71 9.94-1.46 2.84 0 2.84-1.46 4.26-2.9 1.43-11.63 5.7-13.08 7.11m18.9 5.68s4.36 1.42 4.36 0a17 17 0 0 0 1.45-7.1c1.45-4.27 4.36-4.27 5.81-5.69s0-1.42 1.46-4.26c0-2.84-1.46-2.84-4.36-4.26-4.36 0-4.36 2.84-7.27 2.84a4.25 4.25 0 0 0 0 5.68c0 1.42-2.9 2.84-5.8 4.26a8.7 8.7 0 0 0-2.92 5.68Zm-29.07 92.31 5.81 1.43 10.18 11.36 8.72 9.95s13.07 9.93 15.98 11.36 18.9 4.25 20.35 5.67l4.36-5.67 5.8-4.27-1.44-2.84 7.27-4.25 5.8 4.25 14.54 2.84 5.81 4.27h1.46l1.45-1.43h2.9V-6.92s-4.35-2.84 0-5.68a112 112 0 0 1 10.18-8.52s2.9-1.42 2.9-5.68-2.9-15.63-2.9-15.63-2.9-7.1-2.9-9.94c2.9-17.04-4.36-28.4 0-31.25l2.9-1.4 4.36-2.85v-1.42c0-7.1-8.72-14.2 1.45-15.63l4.36-2.84H669l2.9-8.52 5.82-5.68c4.36 0 10.17-1.42 13.08 0 2.9 4.26 2.9 7.1 8.72 8.53l17.44 5.67 8.72 1.42h1.45l2.91 2.84c0 2.85 0 5.69 1.45 7.1a28 28 0 0 0 1.46 7.11 28 28 0 0 0-1.46 7.1c-1.45 1.42-1.45 5.69-1.45 7.1v4.27c0 2.83 1.45 7.1 2.9 8.52 0 1.42 7.27 5.67 7.27 5.67l-1.45 1.42a1.4 1.4 0 0 0 1.44 1.42 30 30 0 0 0 7.26-1.42s0-12.78-1.45-17.04c-1.45-5.68 5.82-11.37 5.82-11.37L762-93.56l-1.45-11.36 11.62 1.42s8.73-4.26 5.81-9.93c-2.9-7.11-5.8-18.47-8.71-15.63-4.36 2.84-11.63 11.36-11.63 11.36l-1.45-14.2-11.63 4.27-11.62-2.85s-4.36-5.68-8.72-4.26H712.6s-5.81-4.26-2.9-5.68c4.35 0 13.08 1.42 17.44 0 2.9 0 26.16-5.68 26.16-5.68l1.45-9.94 10.17-8.53-17.44-12.78-7.27-11.36s-1.45-4.26-4.36-4.26c-4.36 0-15.99 5.68-15.99 5.68l-8.72-5.68-13.07 1.41-18.9-5.67v4.26s-5.82-1.42-7.27-4.26v-5.69l-7.26 1.42h-2.9l-8.72-4.25-4.36 8.52 5.8 9.94-5.8 11.36 4.36 7.1v9.94l-5.82 11.36-8.72-7.1 1.46-9.95 4.36-11.36-5.81-11.36-11.63 9.94v14.2l-5.82 9.95v12.78l-2.9 9.94-1.46 12.79a2.8 2.8 0 0 1-2.9 2.84c-2.9 1.42-8.72-1.42-8.72-1.42v-18.47l2.9-9.94 4.36-8.51 5.82-11.37s0-7.1-1.46-8.52c0 0-2.9-1.42-1.45-1.42 0-1.42 5.81-7.1 5.81-7.1a9.1 9.1 0 0 0-4.36-7.1c-2.9-1.43-5.8-4.26-8.71-2.85-1.46 1.42-8.73 4.26-8.73 5.68-1.45 1.42 0 4.27 1.46 5.69 1.46 0 2.9 1.42 4.36 1.42 0 1.41 1.45 5.68 0 7.1s0 5.68-4.36 4.26c-2.91-1.42-11.63-7.1-11.63-7.1-1.45 0 0-5.68-2.9 0-2.91 4.26-4.36 5.68-2.91 8.52s2.9 2.84 2.9 4.26-5.8 1.42-5.8 2.84-1.46 2.84 1.45 5.69l5.8 2.83s2.92 4.26 1.46 4.26c0 1.42-8.72 0-8.72 1.42v9.94c0 1.43-5.8 1.43-7.26 2.85-2.91 1.42-4.37 5.68-4.37 8.51a15 15 0 0 0-1.45 7.11c0 1.42-2.9 4.26-2.9 4.26s0 1.42-2.91 0c-2.9 0-13.08-5.68-14.53-5.68-2.9 0-5.81 1.42-5.81 4.26 0 1.42 4.36 5.68 5.8 5.68 0 0 7.27 1.42 8.73 2.84v11.36s5.8 11.36-4.36 1.42c-11.63-9.94-11.63-11.36-13.09-12.78-1.45 0-11.62-2.84-11.62-2.84s-1.45-4.26-2.9 0c-1.46 2.84 2.9 9.95 2.9 9.95l-1.45-1.43s-4.36-2.84-7.27-4.26c-1.45-2.84-5.81 0-5.81 0l-4.36 4.26c-1.46 1.43-7.27-4.26-1.46 2.84 4.37 5.68 8.73 7.1 10.18 8.53 0 0 5.81 1.42 7.27 2.84s1.45 5.67 1.45 7.1c0 0 4.36 5.68-2.9 1.42-7.27-5.69-7.27-7.1-10.18-7.1-1.45 0-4.36 2.83-4.36 2.83s-8.72-1.42-8.72-5.67c-1.45-4.26 1.45-11.36-4.36-9.95-7.27 0-8.72 2.84-8.72 4.26s-4.36 2.85 0 7.11 7.27 7.1 8.72 7.1c0 0 8.72 0 4.36 1.42-2.9 2.84-8.72 2.84-10.17 2.84s0-1.42-1.46 0c-2.9 1.42-10.17 8.52-10.17 8.52s-1.46-2.84-1.46-4.26 5.82-4.26 5.82-7.1-2.91-12.78-2.91-12.78l-5.81-2.84c-1.45-1.43-5.81-4.27-7.26-2.85s-4.36 5.69-1.46 8.53c2.9 4.25 5.81 7.1 4.36 7.1-2.9 1.42-4.36 2.84-5.81 1.42-1.45 0-4.36-2.84-8.72-1.42s-8.72 9.94-8.72 9.94 4.36 8.52 5.82 9.95c1.45 0 2.9 2.83 2.9 5.67-1.45 2.84 0-1.42-2.9 0-4.37 1.42-5.82 2.84-8.73 2.84s-10.18 8.52-10.18 8.52l4.36 5.69s-11.62 4.26-14.53 5.68c-1.45 0 4.36-1.42-2.91 0A29 29 0 0 0 407.4-19.7c0 1.42-5.81 1.42-5.81 5.68 0 2.84 1.45 8.52 0 9.94V.18c0 2.84-1.46 5.68 2.9 5.68s10.17-2.84 11.63-4.26c0-1.42 1.45-7.1 2.9-4.26 2.91 1.42 2.91 7.1 2.91 7.1v7.1c-1.45 2.85 8.72 0-1.45 4.27-10.18 5.68-13.08 5.68-13.08 7.1 0 2.83 5.81 9.94-1.45 7.1-7.27-1.42-7.27 0-7.27-1.42-1.45-1.42 1.46 7.1-7.26-5.68s-8.73-11.37-8.73-14.2-1.45-12.78-1.45-12.78-1.45-9.95-5.81-5.68C369.6-5.5 369.6 1.6 369.6 1.6l-8.71 8.53c-1.46 0-4.37 0-8.72 2.83-2.91 4.26-13.08 18.47-13.08 18.47s-5.81 9.94-4.36 12.78 5.81 7.1 5.81 7.1 1.45-1.42 1.45 2.84 7.27 5.68 7.27 5.68 2.9 1.42 0 4.27c-4.36 2.83-15.99 4.25-15.99 4.25h-11.63s-5.81 7.1-7.26 7.1c-2.9 1.43-7.27 4.26-8.72 8.52 0 2.85-13.08 14.2-13.08 14.2v5.69c0 1.41-5.82 4.25-2.91 5.67s7.26 2.85 10.18-2.84c2.9-4.25 2.9-11.36 2.9-11.36s2.91-2.84 5.82-2.84c4.35 0 8.71-4.25 13.07-5.68 4.36 0 10.18-7.1 11.63-7.1 2.9 0 1.46 1.42 7.27 0 5.81 0 11.62 0 13.07-1.42 2.91-1.42 14.54 5.68 16 7.1 0 1.42-10.18 2.84-5.82 5.69 5.81 2.83 5.81 4.25 7.27 4.25s4.36-1.42 8.71-2.84c2.91-2.83-2.9-7.1 5.82-4.25 7.27 2.84 7.27 5.67 7.27 5.67l-1.46 2.84-5.81 1.43-8.72-1.42-5.81 2.84a5 5 0 0 1-2.91 1.42l-13.08 1.42-5.82 8.52 4.36 5.69c1.46 0 10.18-2.85 10.18-1.43 1.45 0 2.9 2.85 1.45 4.26 0 1.42-5.82 5.68-5.82 5.68l-2.9 5.69a65 65 0 0 0 7.27 1.41s8.72 0 7.26 1.42l-13.08 1.42s-11.62-1.42-10.17-1.42c0 1.42-1.45 4.26-1.45 5.68l-2.9 4.27c-1.46 0-4.37 0-5.82 1.42 0 1.41-1.45 4.25-1.45 7.1 0 1.42 4.36 5.68 4.36 5.68l-1.46 2.83-5.8 5.69s-2.91 1.42-2.91 2.84c1.45 0-4.37 2.84-4.37 2.84l-10.17 5.68a32 32 0 0 1 1.45 5.69s4.36 2.83 1.46 5.67c-2.91 1.42-5.82 2.84-7.27 4.26 0 0-2.9 1.43-2.9 5.69 1.45 2.83-1.46 7.1-2.91 7.1 0 0-2.9 1.42-2.9 5.68 1.45 2.84 0 12.79 0 12.79s4.35 5.67 5.8 5.67c0 0 7.27-2.84 8.72-1.42 2.9 0 7.27 2.84 7.27 2.84s-1.46 7.1-2.9 8.52c-1.46 0-10.18 1.42-10.18 1.42s-4.36-2.83-5.81-2.83l-8.73 8.52s0 4.26-1.45 4.26c-2.9 1.42-4.36-1.42-4.36 1.42v14.2l-4.36 8.52c-1.45 2.85-4.35 9.94-4.35 11.36 1.45 1.43 4.35 8.52 4.35 8.52l-10.17 5.69 2.9 7.1a1.4 1.4 0 0 1 1.46 1.42c0 2.84-7.27 7.1-7.27 7.1v8.52c0 1.42-7.27-4.26-7.27-4.26l-5.8 1.42v5.68l-2.92 5.69h-10.16l-8.73 5.67c1.46 1.42-2.9 5.69 1.46 5.69h5.81c2.91-1.42 8.72-4.27 10.18-4.27s5.8 0 2.9 2.85-5.81 2.84-7.26 4.25c-2.91 1.42-7.27 1.42-7.27 5.69a30 30 0 0 1-1.45 8.51l10.17-2.83s2.9-1.42 2.9 2.83c1.46 5.69-2.9 7.11-5.8 7.11-1.46 0-8.72-5.69-8.72-5.69l-5.82 4.27s-1.46-1.42-7.27 2.84c-5.81 5.68-8.72 12.78-8.72 14.2s0 4.25-4.36 7.1c-2.9 1.42-7.27 5.69-7.27 5.69a66 66 0 0 1-2.9 7.1l-1.46 2.84 5.82 5.68-10.17 5.68-4.37 2.84s-8.71 8.52-2.9 9.94a67 67 0 0 0 11.62 1.42s-1.45 8.53 0 8.53h14.54l7.26-5.69 4.36-2.84 2.91 5.68s-2.9 4.25-5.81 4.25c-4.36 0-2.9 0-5.81 2.85-4.36 4.26-5.82 5.68-8.72 5.68-1.46 0-4.37 4.26-7.27-1.42a41 41 0 0 0-4.36-8.52l-13.08-5.68-2.9 1.42s-1.46 5.68-2.91 5.68h-13.08c-1.46 0-4.36 0-4.36-1.42-1.46-2.84 0-2.84-1.46-4.26s-4.36-7.1-7.26-5.68c-1.45 0-8.73 2.84-8.73 2.84l-1.45 11.36s-4.36 0-2.9 2.84c0 2.84 5.8 5.69 5.8 5.69s2.92 2.83 2.92 4.25c1.45 2.84-2.91 5.69-2.91 5.69s-7.27 0-8.72 2.84c0 1.42 1.45 5.67 0 5.67-1.45 1.43-2.9 4.27-2.9 5.69l2.9 7.1s0 5.68-2.9 2.84-11.63-7.1-11.63-7.1l-5.81-4.26s-5.82 4.26-7.27 4.26c0 1.41-10.18 0-13.08 1.41-1.45 1.42-1.45 2.85-2.9 5.69-2.91 2.84-7.28 2.84-2.91 7.1 2.9 4.26 10.17 5.68 10.17 5.68s2.9 1.42 0 5.68c-2.9 5.68-8.72 1.43-10.17 1.43-1.46-1.43-7.27-5.69-8.73-4.27s-5.81 8.52-5.81 8.52-4.36 1.42-5.81 0c-1.45 0-5.81-7.1-7.27-5.68s-2.9 4.26-2.9 5.68 2.9 4.26 1.45 5.68c0 1.42-7.27 2.85-8.72 4.27 0 1.41 0-1.42-2.91 4.25-1.45 5.69 0 5.69-1.45 5.69-2.9 1.42-8.72-2.85-8.72-2.85s-4.36-4.26-4.36 0a53 53 0 0 1-1.45 11.37l4.36 2.84s-1.46 2.84-2.91 2.84a11 11 0 0 1-4.36-4.26c-1.45-1.43 0-1.43-4.36-2.85s-7.27-4.25-7.27-1.42c0 1.42-1.45 4.27 0 5.69a27 27 0 0 0 4.36 5.68h1.45s-1.45 4.26-2.9 4.26c-1.46 1.42-2.9-1.42-4.36-1.42l-4.36 2.84s1.45 2.84 1.45 4.26-4.36 2.85-4.36 4.26a3.1 3.1 0 0 0-2.9 2.84c0 1.42 1.45 5.69 2.9 4.26 1.45 0 8.72 1.43 8.72 1.43a20 20 0 0 1-2.9 4.26c-1.46 0-2.91 2.83-4.37 4.26-1.45 2.84 1.46 8.52 4.36 9.93 4.36 1.43 8.72 1.43 8.72 4.27-1.45 1.42-8.72 7.1-10.17 8.53-1.45 0-4.36 1.4-4.36 4.25s0 4.26-2.9 5.68-4.36 0-4.36 4.26c0 2.84 1.45 4.26 2.9 4.26h1.46l11.62-1.42a32 32 0 0 0-1.45 5.69c0 1.42-8.72 9.94-8.72 9.94s1.45 4.26 0 4.26c-2.9 1.42-5.81 2.84-7.27 4.25v5.69c1.46 2.84 4.36 7.1 4.36 8.52 1.46 1.42-1.45 4.26-1.45 4.26l-2.9 11.36v7.1c0 1.42-5.82 2.84-2.91 7.1l5.81 5.69c2.9 0 10.17 0 10.17 1.42 0 0 0 1.42-4.36 2.83-2.9 0-5.81-1.41-5.81 1.42-1.45 1.42-7.26 9.95-7.26 9.95l7.26 8.52s2.9-2.85 4.36-2.85c1.45-1.42 5.81 0 5.81 1.43 0 0-2.9 4.26-4.36 4.26 0 1.42-4.36 2.84-4.36 4.25l4.36 5.69a2.83 2.83 0 0 1 2.9 2.84c0 1.42-5.8 4.26-5.8 4.26l1.45 4.26-4.36 8.53 7.26 4.25s5.81 0 4.36 4.26c-2.9 2.85-7.27 5.69-7.27 7.1 0 2.85-1.45 5.69 1.46 7.11 2.9 0 2.9 1.42 4.36 0l5.8-2.84s4.37-2.84 7.28-2.84c1.45 0 4.36 1.42 5.81 2.84a5.2 5.2 0 0 0 1.45 4.26c1.46 0-1.45 7.1-1.45 7.1l-4.36 5.69s4.36 5.67 2.9 5.67c0 0-7.26 1.42-8.72 1.42s-2.9-1.42-2.9 1.43a235 235 0 0 1-5.81 9.93 6.7 6.7 0 0 0 0 5.69 497 497 0 0 0 7.26 12.78c0 1.42 2.9 5.69 7.27 8.52s7.27 2.84 7.27 5.68l1.45 2.85 5.81 5.67a18 18 0 0 0 7.27 1.42c4.36 1.42 10.17 1.42 10.17 2.85 1.46 0-4.35 4.26-4.35 4.26s-7.28 5.67-4.37 7.1 23.25 5.68 23.25 5.68 2.91 1.42 2.91 2.85 4.36-1.43 4.36-1.43c1.45-1.42 7.27 1.43 8.72 1.43l8.72-1.43 7.27-2.84s4.36-7.1 7.26-5.68c4.37 1.42 2.91 4.26 5.82 4.26 1.45 0 4.36 0 7.26-4.26l7.27-7.1c1.45 0 18.9-9.94 18.9-9.94l11.62-19.89 4.36-14.2s5.81-7.1 10.18-7.1c2.9 0 13.08-4.26 11.62-7.1 0-4.26 4.36-5.68 4.36 0 1.46 5.68 0 11.36 2.9 8.52 4.37-2.84 11.64-11.37 11.64-11.37s4.36-4.25 7.26-5.67c2.91 0 7.27-9.94 7.27-9.94s5.81-4.27 8.72 0c1.45 5.67 7.27 12.78 7.27 15.61l5.81 2.84v-11.36l10.17 8.52c1.45 1.42 1.45 9.95 1.45 9.95h2.91v-1.42l2.9 1.42 1.46-1.42 1.46-8.53 1.45-9.94 4.36-8.52v-8.52l-5.81-9.94-2.91-8.52 4.36-1.42v-1.42h1.46l2.9-2.84 1.46-7.1-2.9-2.85v-4.26l2.9-2.84 1.45-1.41h1.45l1.46-1.43h5.81l2.9-2.84s5.82-4.26 5.82-5.68 2.91-5.68 2.91-5.68v-7.1l-2.91-7.1 2.91-4.27 4.36-8.52-2.9-8.52-8.73-9.94-4.36-12.78-2.9-8.52 7.26-7.1 1.45-1.43h5.82s7.27 0 7.27-1.42v-1.41h1.45v-8.53h1.45v-1.42l-1.45-12.78-8.72-7.1-10.18-7.11-4.36-11.36-1.45-44.03s-10.17-18.46-10.17-19.88c-1.45-2.84-1.45-5.68 1.45-8.52 1.46-1.42 0-4.26 0-4.26l-1.45-9.94 2.9-4.26v-8.53l-5.81-11.36v-9.94c0-2.84 4.36-8.52 4.36-8.52l1.45-9.95 2.9-14.2 18.9-24.14h4.37l30.51-1.42 1.46-2.83 1.45-1.43 2.9-8.52-1.45-22.73-13.08-2.84-2.9-7.1 21.8-36.93-1.46-8.51 5.81-4.27a55 55 0 0 0-2.9-8.52c-1.46-1.42 1.45-9.94 1.45-9.94l1.45-9.94 2.9-11.37-7.26-24.14 4.36-4.26h5.81c1.46 0 4.36-1.41 7.27-1.41 2.91-1.42 4.36-2.85 8.72-7.1l1.46-2.85 1.45-7.1v-12.78l7.26-18.47s11.63-14.2 13.09-17.04 5.8-12.78 5.8-12.78-2.9-11.36-4.35-14.2c-2.9-1.42-7.27-9.94-7.27-9.94v-7.1l8.72-5.69 2.9-5.67v-14.2h1.46v-2.85h1.45V99.6c0-2.84 5.82-8.52 5.82-8.52l5.8-11.37 14.54 7.1H435l2.9-5.68c-1.45-4.25-2.9-34.08 1.46-39.76 0 0 20.35 1.42 23.25 0 1.45 0 8.72 2.84 10.17 4.26a5.4 5.4 0 0 0 4.36 1.42 15 15 0 0 0 5.82 1.42l8.72-1.42 5.81-7.1-5.81-5.68c5.81-7.1 5.81-17.05 4.36-18.47-1.45-2.84-4.36-15.62-5.81-17.04 0-1.42 2.9-2.84 2.9-2.84h2.91a5 5 0 0 1 2.9-1.42l7.27-5.68 7.27 1.42a1.4 1.4 0 0 1 1.46-1.42 1.4 1.4 0 0 0 1.45-1.42s-4.36-8.52-1.45-12.78c1.45-2.84 2.9-2.84 5.8-2.84h5.82z" transform="translate(74.791 1655.865)"/><path id="Path_32" fill="rgba(25,95,140,0.2)" fill-rule="evenodd" d="m106.86-52.33-4.4-7.08-5.85-2.84-7.33-2.83v-5.66L79.03-76.4s-1.47-2.83 0-2.83c1.46-1.42 7.32-1.42 8.78-1.42v-1.41h1.47a1.4 1.4 0 0 0 1.46-1.42s-4.39-8.49-1.46-12.74v-1.42c2.93-2.83 8.79-2.83 11.72 0l5.86 1.42L117.1-84.9l8.8 9.9s13.18 9.92 16.1 11.34 19.05 4.25 20.52 5.66l4.4-5.66 5.86-4.25-1.47-2.83 7.32-4.25 5.87 4.25 14.64 2.83 5.86 4.25a4.6 4.6 0 0 0 2.93-1.42c1.47 0 1.47 0 2.93-1.41v-11.33s-4.39-2.83 0-5.66a111 111 0 0 1 10.26-8.5s2.93-1.41 2.93-5.66-2.93-15.58-2.93-15.58-2.93-7.08-2.93-9.9c2.93-17-4.4-29.74 0-31.15l2.93-1.42 4.4-2.83v-1.42c0-7.08-8.8-14.16 1.46-15.58l4.4-2.83h13.19l2.93-8.49 5.85-5.66c4.4 0 10.26-1.42 13.19 0 2.93 4.24 2.93 7.07 8.8 8.5l17.57 5.66 10.25 1.41 2.93 2.83c0 2.83 0 5.67 1.47 7.08a28 28 0 0 0 1.46 7.08 28 28 0 0 0-1.46 7.08c-1.47 1.42-1.47 5.67-1.47 7.08v4.25c0 2.83 1.47 7.08 2.93 8.5 0 1.41 7.33 5.66 7.33 5.66s0 1.42-7.33 7.08l-5.86 7.08 10.26 2.83v12.74l-1.47 8.5-4.4 5.66 5.87 8.5 7.32 11.33L331-58s1.47-1.41 11.72 0a19.6 19.6 0 0 1 13.19 11.33l5.86 7.08 8.79 5.67 4.4 4.24-1.47 12.74s-4.4 7.08-2.93 12.75c0 7.08-4.4 16.99-4.4 19.82 0 1.42-2.92 12.74-2.92 12.74l4.39 9.91 5.86 5.66 8.8 9.92 11.7 12.74 4.4 9.9s11.72 7.1 11.72 8.5 4.4 8.5 4.4 8.5l5.86 9.9-1.47 7.09-4.39 7.08v4.25l4.4 5.66-1.47 5.66 4.4 8.5-2.94 5.66 7.33 2.83s1.46 1.42 0 4.25c-1.47 1.42-2.93 11.33-2.93 11.33l7.33 11.33 10.25 1.42s5.86 0 5.86 1.4c1.46 1.43 2.93 5.67 2.93 5.67l-4.4 8.5a15.3 15.3 0 0 0 5.86 7.07c2.93 1.42 5.86 1.42 5.86 4.25 1.46 2.83 1.46 7.08 2.93 5.67a54 54 0 0 1 8.79 1.4l4.4 7.09 2.93 5.67v5.66c0 2.83-1.47 11.32-1.47 11.32l-7.32 11.33s5.86 7.08 10.25 9.9 10.26 7.09 11.72 7.09 8.8 1.42 11.72 2.83c1.47 0 7.33 2.83 8.79 4.25s11.72 7.08 11.72 7.08l8.79 4.24 8.79 7.08 2.93 17s-2.93 25.48-4.4 28.31c0 2.83-4.4 15.58-5.86 16.99-2.93 1.42-5.86 2.84-5.86 5.67s-4.4 18.4-4.4 18.4-4.4 9.91-4.4 12.74-4.38 11.33-4.38 14.16c-1.47 1.42-4.4 12.75-4.4 12.75l-19.05 36.8-4.4 14.17s-4.4 1.42-5.86 4.25c-1.46 4.24-2.92 7.07-4.4 11.32 0 2.83-7.32 15.57-7.32 15.57l-2.93 7.09-5.86 7.08-4.4 2.83H443.8l-4.4-2.83-4.4 2.83c0 1.4-2.93 2.83-2.93 4.25 0 0-1.46 2.83-2.93 2.83-1.46 1.4-2.93 2.83-4.39 2.83 0 1.41-2.93 1.41-2.93 1.41a4.3 4.3 0 0 1-1.47 2.83s-4.4 0-5.86-1.41-4.4-2.83-2.92-2.83c0 1.41-1.47 4.24-1.47 4.24 0 1.42-2.93 5.66-4.4 5.66s-4.4-1.4-5.86-2.83h-2.93v9.91c-1.46 0-4.4 1.42-4.4 1.42s1.47 2.83 0 2.83c-1.46 1.42-2.93 2.83-4.4 2.83 0-1.41-2.92-2.83-2.92-2.83a20 20 0 0 0-2.93 4.25 5 5 0 0 1-1.47 2.83l-10.25 11.33c-1.47 0-4.4-4.25-4.4-4.25v4.25a21 21 0 0 1-4.4 2.83c0 1.42-1.46 0-2.92 0 0 1.42-1.47 1.42-1.47 2.83a5 5 0 0 1-1.46 2.83s-2.93 1.42-2.93 2.83a21 21 0 0 1-4.4 2.83 2.07 2.07 0 0 1-2.93 0c-1.47 0-4.4-4.24-4.4-4.24s-2.93 0-2.93 1.41c-1.46 1.42-1.46 2.83-2.93 2.83a5.5 5.5 0 0 1-4.4 1.42c-1.46 1.42-4.4 1.42-4.4 2.83-1.46 0-2.92 2.83-2.92 4.25s2.93 1.42 0 1.42a20 20 0 0 1-7.33 1.41s-2.93 1.42-2.93 2.83c-1.46 1.42 0 1.42-2.93 2.84a5 5 0 0 0-2.93 1.41l-2.93-2.83 1.47-2.83s-1.47-2.83-1.47-1.42c-1.46 2.83 0 4.25 0 4.25a1.4 1.4 0 0 0-1.46 1.42c-1.47 1.41 0 1.41-1.47 2.83a3.1 3.1 0 0 1-2.93 2.83c0 1.42-1.46 1.42-2.93 1.42h-2.93c-1.46 0-2.93-1.42-1.46-1.42l2.93-1.41s1.46-1.42 0-1.42l-2.93-2.83s1.46 1.4-2.93 1.4q-4.4 2.14-4.4 0s-2.93 0-1.47-1.4c2.93-1.42 2.93-2.84 4.4-2.84s1.47-2.83 1.47-4.24c0 0 2.93 2.83-1.47 0l-2.93-4.25a5 5 0 0 0-1.46 2.83c1.46 1.42 4.4 2.83 0 4.25h-4.4c-1.46 1.41-5.86 1.41-5.86 1.41s-2.93 0-1.46 1.42c0 1.42 2.93 2.83 2.93 2.83s0 1.42-2.93 1.42c-1.47 1.42-4.4 1.42-4.4 1.42l-1.47 1.4a1.4 1.4 0 0 1-1.46-1.4 5 5 0 0 0 1.46-2.84c0-1.41 1.47 0 0-1.41-1.46-2.84-2.93-2.84-2.93-4.25a21 21 0 0 1 4.4-2.83v-2.84s-1.47 0 0-1.41a18 18 0 0 1 2.93-4.25 3.1 3.1 0 0 0-2.93-2.83s-1.47 2.83-1.47 4.25c0 0 1.47 2.83-2.93 1.41-4.4 0-7.32 0-8.79-1.41 0-1.42-2.93-2.84 1.47-2.84l4.4-1.41a5.1 5.1 0 0 0 1.46-4.25c-1.46 0-2.93-2.83-2.93-1.42a11 11 0 0 0-1.46 4.25h-5.86a5 5 0 0 1-1.47-2.83l1.47-5.66s2.93-1.42 1.46-1.42c0 0-2.93-1.41-2.93 0-1.46 0 0 1.42 0 2.83s0 2.83-1.46 2.83c-1.47 1.42-7.33 1.42-7.33 1.42 0-1.42-1.46-1.42 0-2.83v-2.84s-1.46-2.83-1.46-1.4h-2.93v-2.84h-4.4l-1.46-1.42c-1.47 0-1.47 0-1.47 1.42a34 34 0 0 0-5.86 1.41s0-2.83-1.47 0c0 1.42-7.32 1.42-7.32 1.42s-1.47-2.83-1.47-4.25l1.47-4.25 1.46-1.4-1.46-1.43h-2.93c0-1.41 2.93-4.24 2.93-4.24l1.46-1.42c1.47-1.41 4.4-1.41 2.93-2.83a5 5 0 0 1-2.93-1.41 1.4 1.4 0 0 1-1.43-1.42s1.46-2.83 1.46-4.25a5 5 0 0 0-1.46-2.83c-1.47 0 0 1.42-2.93 1.42a59 59 0 0 1-5.86 4.24v-4.24c1.47-1.42 5.86-1.42 7.32-2.84 0-1.41-2.93-5.66-2.93-5.66s2.93 1.42 1.47-1.42l-2.93-1.4a5 5 0 0 1 1.46-4.26c1.47-2.83 2.93-2.83 2.93-4.25 0 0-4.4-1.42-4.4-2.83s-2.93-1.42 0-4.25a4.6 4.6 0 0 1 2.93-1.42v-5.66c0-1.41 1.47-1.41 1.47-2.83-1.47-1.41-2.93-1.41-4.4-4.24v-2.83c1.47 0 2.93-1.42 1.47-1.42v-2.83l-1.47-2.83c-1.46-1.42-1.46-4.25-1.46-5.67a60 60 0 0 1 1.46-7.08s0-4.24-2.93-5.66a11 11 0 0 0-4.4-4.24v-4.25s-2.92-1.42-2.92-2.83-1.47-4.25-1.47-4.25-1.47 0 0-2.83v-7.08c-1.47-1.42-2.93-4.25-2.93-5.67v-4.25a4.3 4.3 0 0 0-1.46-2.83c-1.47-1.42-5.86-8.5-5.86-8.5s-1.47 0-1.47-2.83a14 14 0 0 1-1.46-5.66v-4.24l-4.4-4.25 1.46-5.66v-5.67s0-7.08 1.47-7.08 4.4-4.25 4.4-4.25 2.93-4.25 1.46-5.66a59 59 0 0 0-1.46-7.08s2.93-4.25 1.46-4.25c0-1.41-2.93-7.08-2.93-7.08l-4.4 4.25-2.92-1.41 1.46-5.66s-2.93-2.84-2.93-4.25 2.93-4.25 2.93-4.25 2.93 5.66 2.93 7.08 2.93 2.83 2.93 2.83c1.46-1.41 1.46-4.25 2.93-4.25a3.1 3.1 0 0 1 2.93 2.84l5.86-1.42s-1.47-1.42 2.93-1.42c4.4 1.42 4.4 0 4.4-2.83 0-1.41-4.4-7.08-1.47-7.08 4.4 0 5.86 1.42 5.86 1.42v2.83c0 2.83 4.4 5.66 4.4 2.83 1.47-2.83 1.47-1.41 1.47-4.25s-2.94-2.83-4.4-5.66c0-1.42-1.47 1.41-1.47-2.83 1.47-4.25 1.47-5.67 2.93-5.67l2.93-1.4c2.93 0 4.4-2.84 2.93-7.1 0-2.82-1.46-4.24 0-5.65 2.93-1.42 1.47-2.83 4.4-1.42s1.46 1.42 4.4 1.42c1.46-1.42 1.46-8.5 1.46-8.5-1.46 1.41-4.4-1.41-4.4-1.41-1.46 0-1.46-2.84 0-4.25 0 0 0-2.83 1.47-2.83 2.93 0 2.93 1.4 5.86 0l2.93-2.84c1.46-1.42 2.93-1.41 4.4-4.24 0-1.42 1.46-9.92 1.46-9.92-1.47-1.4 1.46 0 4.4-1.4 1.46-1.43 2.93-9.93 4.4-11.34 1.46-2.83 5.85-8.5 5.85-9.9s4.4-11.33 4.4-11.33l5.86-9.92a14 14 0 0 0-1.46-5.66c0-1.42-1.47-7.08 0-8.5 1.46 0 2.93-4.25 2.93-4.25v-5.66l7.32-4.25c8.8-1.4 2.93-5.66 13.18-1.4 0 0 5.87-1.43 4.4-2.84l-5.86-5.66 2.93-4.25s4.4-2.83 0-4.25c-2.93-1.41-5.85-2.83-5.85-4.25a59 59 0 0 1-1.47-7.08c0-1.41-1.46-5.66-1.46-5.66v-7.08c0-1.42-1.47-5.67-2.93-7.08s-7.34-5.66-7.34-5.66l-10.25-4.25-2.93 2.84-7.33-7.08-5.86-1.42h-5.86l-10.25-21.24-8.8-4.25-5.85-5.66v-7.08l-4.4-5.66s1.47-4.25 1.47-5.66c1.46-1.42 4.4-8.5 4.4-8.5a60 60 0 0 1-1.47-7.08c0-1.42 1.47-8.5 1.47-8.5l-1.47-7.08-17.58-19.82 1.46-8.49-1.46-4.25c-1.47-4.25-1.47-4.25 0-7.08v-1.42l-5.86 1.42-4.4-5.67 1.47-7.08-2.93-16.98 2.93-8.5-8.79-4.24-5.86-8.5s-1.46 2.83-2.93 1.41-8.79-12.74-8.79-12.74l-13.18-4.25-5.86-2.83-7.33-1.41s-1.46 2.83-2.93 0a27 27 0 0 0-4.4-5.66l-5.86 1.4-4.4-5.65h-2.92a21 21 0 0 0-4.4-2.83m178.72 662.6v2.85a5 5 0 0 0 2.93 1.4 21 21 0 0 0 4.4-2.82l-2.93-2.83s-2.93 1.4-4.4 1.4m-19.04 0v2.85c0 1.4 1.46 1.4 2.93 0a4.6 4.6 0 0 0 2.93-1.42c1.46-1.42 0-2.83-1.47-2.83 0-1.42-1.46 0-1.46 0a5 5 0 0 0-2.93 1.4m-35.16-16.98-1.47 1.42a1.9 1.9 0 0 0 0 2.83c0 2.83 1.47 2.83 1.47 2.83a6.5 6.5 0 0 1 4.4-1.42c1.46 0 4.39-2.83 4.39-4.24 1.47 0 1.47-2.84 2.93-2.84s5.86 1.42 7.33 1.42-1.47-4.25-1.47-4.25c0-1.41-4.4 0-4.4 0s-2.93 0-4.4-1.41h-1.46c-1.47 1.4-1.47 2.83-2.93 4.24s-1.47 0-1.47-1.41c0 0-2.93-1.42-4.39 0a5 5 0 0 1 1.47 2.83m-11.72 0a16 16 0 0 0 5.86 1.42c1.46 0 0-1.42 1.46-2.84 0-1.41-1.46 0-2.93-1.41h-2.93c-2.93 0-1.46 2.83-1.46 2.83m-13.18-15.58c-1.47 7.08 5.85 2.84 5.85-1.4-1.46-2.85 0-2.85-2.93-5.68-1.46-4.24-1.46 0-2.93 1.42-1.46 2.83 1.47 2.83 1.47 4.25s-1.46 0-1.46 1.41m-11.73 17s-1.46 1.41 0 4.24c0 1.42 0 0 4.4-2.83 2.93-2.83-1.46-1.41-1.46-1.41 0-1.42-1.47 0-2.94 0m0 8.49s0 2.83 1.47 2.83 1.47-1.41 2.93-2.83c0-1.41-1.46-1.41-1.46-2.83a3.1 3.1 0 0 0-2.94 2.83m-4.39 7.08h-2.93l-4.4 2.83c-4.4 1.42-1.47 2.83-1.47 4.25 0 2.83 4.4 0 7.33-1.42 1.47 0 0-1.42 1.47-1.42l2.93-1.4c2.92-1.43 1.46-1.43 1.46-2.84 0 0-2.93-1.41-4.39 0m-38.09 7.08c1.47 0 2.93-1.42 4.4 0s0 4.24 0 4.24c-1.46 1.42-2.93 2.84-4.4 2.84a5.5 5.5 0 0 1-4.4-1.42v-5.66Zm11.72-21.24s0 2.83-1.47 2.83c-2.92 1.42-1.46-2.83-1.46-4.24s-5.86 1.41-5.86 1.41 0 4.25-1.46 5.67c-1.47 0-1.47 0-2.93 1.4s-1.47 4.26-1.47 4.26c1.47 1.42 4.4 1.42 4.4 1.42 1.47 0 1.47 0 5.86 2.83 5.86 1.42 1.47 0 5.86 0 2.93 0 1.46 1.42 2.93 1.42s2.93 2.83 4.4 4.24c2.92 1.42 4.4-1.41 5.85-1.41 0-1.42 2.93-5.67 2.93-5.67l-8.79-2.83c-1.46 0-2.93-4.25 0-4.25 1.47 0 1.47 1.42 2.93 2.84 0 1.4 1.47 1.4 2.93 1.4a3.1 3.1 0 0 0 2.93-2.82c0-1.42-1.46 0-4.39-4.25-4.4-4.25 0-2.83 1.46-2.83 0-1.42 2.93-4.25 2.93-4.25 1.47-1.42-2.93-1.42-4.39-2.83h-1.47c0 1.41-4.4 0-5.86-1.42 0 0 0-2.83-1.46-4.25h-5.86c-2.93 0-1.47 4.25-1.47 4.25a20 20 0 0 0 2.93 4.25Z" transform="translate(498.578 1727.232)"/><path id="Path_28" fill="rgba(25,95,140,0.2)" fill-rule="evenodd" d="M409.25-51.28v-1.41s-2.9-5.69-1.45-8.52v-2.85l-5.8 1.42-4.36-5.67 1.45-7.1-2.9-17.05 2.9-8.52-8.7-4.27-5.8-8.52s-1.45 2.85-2.9 1.42-8.7-12.78-8.7-12.78l-13.07-4.26-5.8-2.84-7.25-1.42s-1.45 2.85-2.9 0a27 27 0 0 0-4.36-5.68l-5.8 1.42-4.35-5.68h-2.9a21 21 0 0 0-4.36-2.84l-4.35-7.1-5.8-2.84-7.25-2.85v-5.67l-10.16-5.69s-1.45-2.84 0-2.84c1.45-1.42 5.8-1.42 8.7-1.42l-7.25-1.41-8.71 7.1h-4.35s-2.9 1.41-2.9 2.83c1.45 1.43 4.35 14.21 5.8 17.05 1.45 1.42 1.45 11.36-4.35 18.47l5.8 5.67-5.8 7.1-8.71 1.42s-8.7-1.42-10.16-2.83-8.7-4.26-10.15-4.26c-2.9 1.42-23.22 0-23.22 0-4.35 5.67-2.9 35.5-1.45 39.76l-2.9 5.68h-7.27l-14.5-7.1L197.4-74s-5.8 5.68-5.8 8.52c0 1.42-2.9 7.1-2.9 7.1v11.36l-2.9 5.69-8.7 5.68v7.1s4.35 8.52 7.25 9.94c1.45 2.84 4.35 14.2 4.35 14.2s-4.35 9.95-5.8 12.79-13.06 17.04-13.06 17.04l-7.25 18.46v12.78l-1.45 7.1-10.17 9.94-13.05 1.42-4.36 4.27 7.26 24.14-2.9 11.36-1.45 9.94s-2.9 8.52-1.45 9.95a55 55 0 0 1 2.9 8.52l-5.8 4.26 1.45 8.51-21.77 36.94 2.9 7.1 13.06 2.84 1.45 22.72-4.35 9.94-1.45 2.85-34.83 1.41-18.86 24.14-2.9 14.2-1.45 9.95S61 293.84 61 296.7v9.93l5.81 11.36v8.52l-2.9 4.26 1.45 9.95s1.45 2.83 0 4.26c-2.9 2.84-2.9 5.68-1.45 8.52 0 1.42 10.15 19.88 10.15 19.88l1.45 44.03 4.36 11.36 10.15 7.1 8.7 7.1 1.46 12.78s-2.9 9.95-2.9 11.37c1.45 1.41-7.26 1.41-7.26 1.41l-7.25 1.43-7.25 7.1 2.9 8.52 4.35 12.78 8.7 9.95 2.9 8.52-4.35 8.52-2.9 4.26 2.9 7.1v7.1s-2.9 4.26-2.9 5.69-5.8 5.67-5.8 5.67l-4.35 4.26-4.35 1.43s-2.9-1.43-4.36 0l-2.9 2.83v4.27l2.9 2.84-1.45 7.1-4.35 4.26-4.35 1.43 2.9 8.5 5.8 9.95v8.53l-4.35 8.52-1.45 9.94-1.45 8.53-2.9 1.4H52.3s0-8.51-1.45-9.93L40.7 620.5v8.52l-1.45 9.94s1.45 5.68 2.9 7.1 2.9 11.37 2.9 11.37l-1.45 9.93 2.9 7.1a61 61 0 0 0 1.45 7.1l5.8-1.42-1.45-4.26 4.35 5.68c1.45 0 4.35-2.83 4.35-2.83l-1.44 4.26-2.9 5.67 1.45 1.43 4.35 1.42-5.8 7.1a56 56 0 0 0 4.35 5.67l5.8-4.26v2.85s-4.35 4.26-4.35 7.1c1.46 1.42 8.7-1.42 7.26 0s-1.45 4.26-1.45 4.26-4.36 4.26-1.45 5.68c1.45 1.42 5.8 2.84 4.35 2.84 0 1.43-4.35 4.26-4.35 4.26s-1.46 2.84 0 4.26 5.8 1.43 5.8 1.43v-1.43c0 1.43-1.46 4.27-1.46 4.27s-1.45 2.83 0 4.26h4.36V754s-1.46 1.42 2.9 1.42c2.9 0 2.9-1.42 4.35-1.42s1.45 1.42 2.9 2.84v5.68c1.45 1.42 7.26 15.63 7.26 15.63s1.45 5.67 2.9 7.1c0 1.42 1.45 2.84 2.9 4.26l2.9 4.26 4.35 2.84 5.8 9.94 4.36 4.26c1.44 0 4.35-2.84 4.35-2.84s4.35 1.42 4.35 2.84c-1.45 0-2.9 5.68-2.9 7.1 1.45 1.43 1.45 4.26 1.45 4.26l-2.9 1.43-2.89 1.4h-5.8l-1.45 5.68 5.8 2.84s2.9 2.85 4.35 2.85v7.1h-7.25l-2.9 4.26c0 1.42-1.45 1.42 1.45 5.68 1.45 2.84 8.7 11.36 8.7 11.36l5.8 8.52c0 1.42 4.36 7.1 4.36 7.1 1.45 0 1.45 5.69 1.45 5.69l-1.45 2.84-1.46 4.26-1.44 4.26 1.44 2.84-1.44 2.84-2.9 4.26 7.25 1.42 8.7-1.42 1.46 2.84c1.45 1.43 8.7 0 8.7 0l5.8-2.84 4.36-2.84v-2.84l2.9-4.26a33 33 0 0 1 5.8 1.42s4.35 0 4.35 1.42 2.9 2.84 2.9 2.84h4.36l4.36-1.42 5.8-1.42s-1.45-2.84 0-2.84h5.8s1.45 2.84 2.9 2.84c0 0 2.9-2.84 1.45-4.26s-7.25-4.26-7.25-4.26-2.9-4.27-2.9-5.68c-1.45-1.42-1.45-5.68-2.9-7.1-1.45 0-2.9-1.42-2.9-4.27 1.45-4.26 1.45-5.67 1.45-5.67v-7.11s-1.45-2.84 2.9-5.68 4.35-5.68 5.8-4.26 4.36 4.26 5.8 4.26c0 1.42 1.45 1.42 2.9 2.84 0 1.42-1.45 2.84 1.45 2.84h4.36a1.4 1.4 0 0 0 1.45-1.41c0-1.43 0-5.69-1.45-5.69l-2.9-2.84s2.9-1.42-1.45-2.83c-4.36-2.85-4.36-4.27-2.9-5.69 2.9-1.42 8.7 0 8.7 0l4.35-1.42s2.9-2.84 5.8-1.42c1.46 1.42 7.26 0 7.26 0l7.26 1.42 2.9-2.84 7.25 2.84s-1.45 0 2.9 1.42c2.9 0 7.26-2.84 7.26-4.26 1.45 0 7.25-9.94 7.25-9.94l4.36-28.4s5.8-4.27 4.35-4.27v-12.78c0-1.42 2.9-11.36 2.9-11.36s5.8-4.26 2.9-8.53c-1.45-4.26-2.9-11.35-2.9-11.35s-1.45-7.1-1.45-8.53 5.8-8.52 5.8-8.52l-4.36-12.78s2.9-4.26 2.9-5.69-2.9-14.2-2.9-14.2v-2.84s4.36-7.1 2.9-8.52v-8.52l-2.9-8.52s2.9-1.42 1.46-2.85a18 18 0 0 0-2.9-4.26v-2.83l1.45-2.84 2.9-2.84-1.45-8.53-5.8-1.41s0-2.85 1.45-2.85c2.9-1.41 13.06-5.67 13.06-5.67s2.9-4.26 4.35-4.26c0-1.43 11.6-8.53 11.6-8.53v-5.68c1.46 0 1.46-1.41 1.46-4.26 1.45 0-1.45-12.78-1.45-17.04 1.45-2.84 4.35 2.84 4.35 2.84l1.45 4.26v8.53l4.35 1.4 1.45 4.27s-1.45 4.26 0 4.26l1.46-1.41 1.45-8.52s5.8 0 4.35-2.85c0-1.42-1.45-4.26 0-4.26 8.7-1.42 5.8-1.42 10.15-4.26l2.9-5.68c0-1.42 1.46-4.26 1.46-4.26l-2.9-1.42-1.46-4.26s1.46-2.84 2.9-1.43c0 1.43 1.46 4.26 2.9 4.26s5.8-4.26 5.8-4.26c0-4.25-10.15-9.93-13.05-11.36 0-5.67 14.5-12.78 14.5-14.2 1.46-1.42 1.46-1.42 1.46-2.84s-1.45-2.84-2.9-1.42c0 0-1.45 2.84-2.9 2.84h-2.9s-1.45-2.84 0-4.26 0-1.42 2.9-2.84a5.4 5.4 0 0 1 4.35-1.42 3.1 3.1 0 0 1 2.9-2.84c1.45 0 8.7-4.26 8.7-4.26l1.46-2.85-4.35-4.26-7.26-5.67s-2.9 0-2.9-1.43l-2.9-2.83c-2.9-7.1-5.8-1.43-11.6-4.26l-2.9-5.69s2.9 0 2.9-1.41c0-2.85-2.9-5.69-2.9-5.69l-2.9-2.83c-5.8-5.69-4.36 7.1-8.71-4.27 0 0-1.45 0-2.9-2.84l-5.8-5.68-1.46-4.26c-1.44 0-2.9-4.26-2.9-4.26l-7.25 4.26-4.35 4.26-1.45-2.84v-5.68a33 33 0 0 0-5.8-1.42h-4.36l-5.8-1.43v-4.26s2.9-2.83 1.45-4.25c0-1.42-4.35-4.26-4.35-4.26v-2.85l-4.35-5.67 2.9-4.26c0-1.43-5.8-14.2-5.8-14.2s2.9-5.7 2.9-7.1l-2.9-5.7h-2.9v-5.68l1.45-4.25-2.9-2.85s1.45-2.83 2.9-2.83v-5.68s1.45-2.84 2.9-2.84l4.35 2.84s4.36 1.42 4.36 0l-1.46-4.26c0-1.42-2.9-4.26-2.9-4.26-1.45-1.42-1.45-8.52-1.45-8.52s-2.9-5.68-1.45-5.68l1.45-2.85 1.45-9.93 1.46-8.52-4.36-4.26-1.45-2.84-2.9-2.85 2.9-8.52h5.8l2.9-4.26s4.36-2.84 4.36-4.26l1.45-5.68-1.45-4.26 2.9 1.41v-4.26l1.45-4.26a5 5 0 0 0 2.9-1.42l2.9-5.68a2.04 2.04 0 0 0 2.9 0c1.45-1.42 1.45-1.42 1.45-2.84l4.35-8.52v-2.84c1.46 0 4.36 0 4.36-1.42a57 57 0 0 1-4.36-5.69l4.36-4.26 4.35-4.26c0 1.43 1.45 1.43 2.9 0l2.9-2.84a5 5 0 0 1 2.9-1.42c0-1.41 1.45-4.26 1.45-5.67l2.9-7.11V264l1.45-1.42 2.9-2.84s2.9-1.42 2.9 0l-1.44 2.85h4.35v-1.42a5 5 0 0 1 2.9 1.42c0-1.42 1.45-4.26 1.45-4.26v-4.26l4.36-4.26c0-1.43 4.35-5.69 4.35-5.69l4.35-1.41a5 5 0 0 1 2.9-1.42l4.36-5.69a4.4 4.4 0 0 1 1.44-2.84c0-1.42 2.9-1.42 2.9-2.83 1.46 0 4.36-7.11 4.36-7.11a1.4 1.4 0 0 0 1.45-1.42 14.5 14.5 0 0 1 1.45-5.68l2.9-5.68v-8.52l2.9-7.1a5 5 0 0 0 1.45-2.85c1.45 0 2.9-4.26 2.9-4.26l4.35-5.68a32 32 0 0 0 1.46-5.68h1.45v-4.26l-2.9-5.68-5.8-4.27h-4.36l-2.9-2.83 1.45-2.85-2.9-4.26-1.45-2.84-2.9-2.84 2.9-4.26a5 5 0 0 0 1.45-2.83l2.9-4.27 2.9-4.26a5 5 0 0 0 1.45-2.84 61 61 0 0 0-1.45-7.1s0-4.26 1.45-4.26a5 5 0 0 1 1.45-2.84 4.6 4.6 0 0 1 2.9 1.41c1.46 0 1.46-2.84 1.46-2.84s0-4.26-1.46-4.26-2.9-2.83-2.9-2.83l1.46-1.43c0-1.42 2.9-2.84 2.9-2.84l4.35-1.42-1.45-4.26v-4.25l5.8 1.42c0 1.42 1.45 4.26 2.9 4.26v-4.26s1.45-4.26 2.9-2.84c2.9 1.42 4.35-1.42 5.8-1.42 0-1.42 1.45-4.26 1.45-4.26s1.45-4.26 0-5.69c-1.45 0-2.9 0-2.9-1.41 0 0 1.45-2.85 2.9-2.85s1.45 0 4.35-1.41a4.4 4.4 0 0 0 1.45-2.85l4.36-1.41 5.8-2.85v-2.84h2.9a5 5 0 0 1 2.9 1.43h2.9c0-1.43-1.45-2.85 0-2.85 1.45 1.42 1.45 1.42 1.45 2.85h1.45c1.45 0 2.9 1.41 4.35 2.84v7.1s4.36 2.84 4.36 1.42v-2.84c-1.45-1.43 0-2.85 0-4.26-1.45-1.42-2.9-4.26-2.9-5.69a5 5 0 0 1 2.9-1.42c1.45 0 0-1.41 1.45 0s1.45 2.85 2.9 2.85h1.45c0 1.41 1.45 2.84 1.45 4.26v2.84l2.9 4.26 2.9-2.84V66.6c0-1.42-4.35-5.68-4.35-5.68a4.4 4.4 0 0 1 1.45-2.84 18 18 0 0 1 4.35-2.84l-8.7-18.47-8.71-4.26-5.8-5.67v-7.1l-4.35-5.68a32 32 0 0 0 1.45-5.68c1.45-1.43 4.35-8.53 4.35-8.53a61 61 0 0 1-1.45-7.1c0-1.42 1.45-8.52 1.45-8.52l-1.45-7.1-17.38-19.89zM278.66 832.11l1.45-11.37-2.9-4.26c0-1.41-1.45-4.26-1.45-8.52 1.45-4.26 1.45-5.68 2.9-8.51 0-2.85 2.9-4.27 2.9-7.11 0-4.26 0-5.68 1.45-8.52 0-2.84 1.45-5.68 2.9-5.68 0-1.42 2.9-7.1 2.9-7.1l1.46-7.1s2.9-7.1 2.9-8.53-1.46-7.1-1.46-8.52l4.36-4.26h4.35s0 4.26-1.45 5.68a5 5 0 0 0-2.9 1.42c0 1.42 2.9 4.26 2.9 4.26v5.68l-2.9 5.68-2.9 7.1v7.1l-1.45 4.27-1.45 4.26-2.9 8.52 1.45 7.1-4.36 8.52v15.63s0 4.26-1.45 4.26Zm59.5-86.63-1.46-2.85 4.35-1.41a61 61 0 0 1-1.45-7.11c0-1.42-1.45 0-2.9-2.84-1.45-1.42-1.45-5.68-1.45-5.68a32 32 0 0 1 1.45-5.68 104 104 0 0 1 7.26-8.52c4.35-4.26 2.9-4.26 2.9-7.1-1.45-1.42 1.45-2.85 1.45-2.85l4.35-4.26 2.9-7.1 4.35 4.26c1.46 0 1.46-1.42 1.46-2.83s2.9-1.43 2.9-1.43a34 34 0 0 0 5.8-1.42l1.44-2.84s5.8-1.42 8.71 0c1.45 1.42-1.45 1.42-1.45 2.84v2.85c0 1.41-1.45 2.83-5.8 2.83-4.35 1.42-1.45 4.27-1.45 4.27v5.67c-1.45 1.42-4.35 4.26-7.26 4.26-1.45 1.42-1.45 4.26-1.45 4.26 0 1.43 1.45 4.26 1.45 7.1 0 1.42 0 1.42 1.45 4.27 0 1.41 2.9 1.41 4.36 1.41 0 1.43 2.9 4.26 1.45 5.69s-2.9 2.84-4.35 2.84c0 1.42-2.9 5.68-2.9 5.68a6.7 6.7 0 0 1 0 5.68c0 2.84-2.9 1.42-4.36 2.84l-4.35 4.26c-1.45 0-2.9 5.68-2.9 8.52v5.68c0 1.42 0 0-2.9 4.26-4.35 4.26-2.9 1.42-7.25 0-5.8 0 0-1.41 1.44-4.26s2.9-5.68 2.9-5.68l-1.44-5.68-2.9-4.26Z" transform="translate(284.589 1820.981)"/><path id="Background" fill="url(#linear-gradient)" d="M0 0h1366v1292H0z" transform="translate(-6 1450)"/><g id="Ellipse_20" fill="#417da5" stroke="#417da5" stroke-width="1" transform="translate(583 2356)"><circle cx="9.5" cy="9.5" r="9.5" stroke="none"/><circle cx="9.5" cy="9.5" r="9" fill="none"/></g><g id="Ellipse_21" fill="#417da5" stroke="#417da5" stroke-width="1" transform="translate(577 2377)"><ellipse cx="10" cy="9.5" stroke="none" rx="10" ry="9.5"/><ellipse cx="10" cy="9.5" fill="none" rx="9.5" ry="9"/></g><g id="Ellipse_22" fill="#417da5" stroke="#417da5" stroke-width="1" transform="translate(309 2377)"><circle cx="9.5" cy="9.5" r="9.5" stroke="none"/><circle cx="9.5" cy="9.5" r="9" fill="none"/></g><g id="Ellipse_23" fill="#417da5" stroke="#417da5" stroke-width="1" transform="translate(562 2361)"><ellipse cx="9.5" cy="10" stroke="none" rx="9.5" ry="10"/><ellipse cx="9.5" cy="10" fill="none" rx="9" ry="9.5"/></g><g id="Ellipse_24" fill="#417da5" stroke="#417da5" stroke-width="1" transform="translate(555 2381)"><circle cx="9.5" cy="9.5" r="9.5" stroke="none"/><circle cx="9.5" cy="9.5" r="9" fill="none"/></g></g></svg>