<svg xmlns="http://www.w3.org/2000/svg" xmlns:xlink="http://www.w3.org/1999/xlink" width="898" height="629" viewBox="0 0 898 629">
  <defs>
    <linearGradient id="linear-gradient" x1="0.5" y1="0.359" x2="0.5" y2="1" gradientUnits="objectBoundingBox">
      <stop offset="0" stop-color="#195f8c" stop-opacity="0"/>
      <stop offset="1" stop-color="#195f8c" stop-opacity="0.204"/>
    </linearGradient>
    <clipPath id="clip-safespring-datacenter-map-container">
      <rect width="898" height="629"/>
    </clipPath>
  </defs>
  <g id="safespring-datacenter-map-container" clip-path="url(#clip-safespring-datacenter-map-container)">
    <rect width="898" height="629" fill="#e8eff3"/>
    <g id="Karta" transform="translate(343.138 -1801)">
      <path id="Path_26" data-name="Path 26" d="M61.707-1.179l6.7-3.28,3.353-6.558,4.469-7.652,2.234-3.28L80.7-27.412,87.4-29.6a49.4,49.4,0,0,1,5.587-1.092c1.117-1.094,7.821-6.558,7.821-6.558h1.117l-3.352,5.464v5.466L99.7-21.948l1.117,1.094v8.744s3.352,2.188,2.234,3.28c-2.234,1.094-4.469,4.372-4.469,4.372L97.461,2.1,92.992,7.567l1.117,6.558,1.117,5.466-1.117,4.372,3.352,3.28-1.117,2.186,1.117,3.28,3.352,2.186h3.352c1.117,0,4.47-1.094,5.587-1.094a11.416,11.416,0,0,1,3.352,1.094l3.352,4.372v3.28a10.852,10.852,0,0,0-1.117,3.278A15.709,15.709,0,0,0,113.1,49.1l-2.234,2.186-1.117,3.28-1.117,2.186h0L106.4,54.569s0-3.28-1.117-2.186c-1.117,0-2.234,2.186-2.234,2.186l1.117,2.186s1.117,3.28,0,3.28H101.93l-1.117-4.373-3.352-1.092L99.7,50.2,97.461,49.1A3.5,3.5,0,0,0,95.226,50.2a46.453,46.453,0,0,1-1.117,5.464l-1.117,4.373a3.79,3.79,0,0,1,1.117,2.186,3.8,3.8,0,0,1-1.117,2.186v2.186a10.85,10.85,0,0,1,1.117,3.28,1.078,1.078,0,0,1-1.117,1.092v2.186a3.926,3.926,0,0,0-2.234,1.094l-2.236,1.092a3.928,3.928,0,0,0-2.234-1.092c-1.117,0-1.117-1.094-2.234,0l-1.117,1.092,1.117,1.094h2.234v2.186A1.087,1.087,0,0,1,87.4,79.71L85.17,81.9l-2.234,2.186L80.7,85.176s-2.234-1.094-2.234,0H76.232c0,1.092,2.234,3.278,2.234,3.278L74,84.082H71.763l3.352,2.186,1.117,2.186,2.234,1.094L77.349,90.64l-1.117,1.094L74,93.92a3.926,3.926,0,0,1-2.234,1.094H68.41l1.117,1.092L71.763,97.2s1.117-1.094,1.117,0c-1.117,0-1.117,0-1.117,1.092v5.466L74,107.037l1.117,1.092V112.5A3.927,3.927,0,0,1,72.88,113.6l-4.47,1.094-1.117,2.186,2.234,1.092v2.188a3.8,3.8,0,0,1-1.117,2.186h2.234L74,123.433l4.469,5.466-1.117,4.372-2.234,2.186-2.234-4.372a1.087,1.087,0,0,0-1.117,1.094c-1.119,0-4.47,2.186-4.47,2.186a11.427,11.427,0,0,1-3.352,1.092H62.824l-3.352-1.092L55,132.179a11.428,11.428,0,0,0-3.353-1.094c-1.117,0-6.7-2.186-6.7-2.186l-2.234,1.094H39.361L37.127,128.9l-2.236-3.28-1.117-2.186,3.353-2.186a1.078,1.078,0,0,0,1.117-1.092V113.6a3.8,3.8,0,0,1,1.117-2.186s0-3.28-1.117-4.372v-4.372l-2.236-3.28a8.785,8.785,0,0,1-3.352-1.094,53.484,53.484,0,0,0-5.586-2.186v-3.28l-1.117-1.092s-2.234,0-2.234,1.092V93.92l-2.234-1.094s-2.234-3.278-2.234-4.372a2.377,2.377,0,0,0,2.234-2.186A8.218,8.218,0,0,0,23.719,81.9V77.524s-1.117-1.094,0-1.094h1.117a44.408,44.408,0,0,1,4.469-3.28V70.965a10.852,10.852,0,0,1-1.117-3.278V66.593c0-2.186-4.469-6.558-4.469-6.558H21.484V54.569L22.6,50.2l-1.117-7.652V31.614l2.234-4.372,1.117-2.186,1.117,3.278a1.492,1.492,0,0,0,0,2.186H29.3l1.117,1.094L33.774,33.8l2.234,2.186,2.236,1.094h2.234L41.6,35.986V34.894l-1.117-2.186a3.8,3.8,0,0,0-1.117-2.188l3.352-2.186,1.117-2.186a1.078,1.078,0,0,0-1.117-1.092H39.361l-1.117-1.094-1.117-2.186s0-2.186,1.117-2.186a24.341,24.341,0,0,1,1.117-4.372s-1.117-2.188,1.117-2.188H43.83s1.117-2.186,2.234-2.186c0,0,1.117-1.092,1.117,0,1.117,0,0,3.28,0,3.28l-2.234,2.186A3.8,3.8,0,0,1,46.065,18.5v2.186l-2.234,3.28h1.117v2.186L48.3,25.056l-1.117-1.094a1.492,1.492,0,0,1,0-2.186C48.3,20.683,48.3,19.59,49.416,19.59c0-1.094,0-1.094,2.234-1.094C52.768,18.5,55,20.683,55,20.683s1.117,1.094,0,1.094a3.794,3.794,0,0,1-1.118,2.186l2.236,3.28a3.5,3.5,0,0,0-2.236,1.092v1.094c0,1.092-3.352,2.186,0,2.186,2.236,0,2.236,0,2.236-1.094V28.334h3.352l1.117,1.094v3.28s2.234,2.186,2.234,1.092,1.117,0,0-2.186a5.317,5.317,0,0,1-1.117-3.28V26.148c-1.117-1.092-2.234-1.092-2.234-2.186l-3.352-3.28V14.125l1.117-2.186a5.317,5.317,0,0,1,1.117-3.28c1.117,0,0-1.092,1.117-1.092,2.234-1.094,1.117-1.094,3.352-1.094,1.117,0,3.352,1.094,4.469,1.094l3.352,1.092V7.567c1.119,0,1.119-2.188,1.119-1.094,1.117,0,1.117,1.094,2.234,0a3.352,3.352,0,0,0,1.117-2.186,3.5,3.5,0,0,0,2.234-1.094A3.928,3.928,0,0,0,75.115,2.1a5.606,5.606,0,0,0-3.352,1.092H69.528C68.41,4.287,68.41,4.287,66.176,4.287s-2.234,0-3.352,1.092A3.5,3.5,0,0,1,60.59,6.473H57.238L56.121,5.379H55a3.926,3.926,0,0,0-2.236,1.094H48.3c0,1.094-2.234,1.094-2.234,1.094H44.947c0,1.092,1.117,1.092,0,2.186H41.6l-1.117,1.092-1.117,2.186H38.244l-1.117,3.28V17.4L34.891,19.59l-1.117,1.092,1.117,1.094v1.092l-1.117,1.094,1.117,2.186,2.236-1.092,1.117,2.186-1.117,2.186a3.933,3.933,0,0,1-2.236,1.092l-1.117-1.092-1.117-2.186V25.056L29.3,26.148V25.056l-1.117-1.094a3.79,3.79,0,0,0-1.117-2.186L24.836,18.5h1.117c0-1.092,0-1.092,1.117-2.186,0-1.092,2.234-3.28,2.234-3.28l1.117-3.278,2.234-2.186,1.117-2.188L36.008,2.1,38.244-.085H41.6L43.83,1.007l2.234-2.186,4.469-1.092h1.117L55-1.179h6.7ZM37.127,114.689h0L34.891,113.6a3.79,3.79,0,0,1-1.117,2.186l-1.117,3.28-1.117,1.094v2.186l-3.352,1.092a1.079,1.079,0,0,0,1.117,1.094h2.234a3.79,3.79,0,0,1,1.117-2.186l1.117-1.094c1.117,0,3.353,0,3.353-1.092v-5.466Zm58.1-29.513h0l1.117-1.094A3.79,3.79,0,0,0,95.226,81.9,1.087,1.087,0,0,1,96.343,80.8V79.71H95.226A1.078,1.078,0,0,0,94.109,80.8v2.186Zm30.168,29.513h0l1.117-1.094,1.117,1.094-1.117,1.092-1.117-1.092Zm12.289,14.21H138.8v1.094l-1.117,1.092V128.9Zm-3.352-2.186h0l-1.117-1.094h3.352l1.117,1.094h0a1.078,1.078,0,0,0-1.117,1.092A3.928,3.928,0,0,1,134.332,126.713Zm5.586,0h0l-1.117-2.186,1.117-1.094,1.117,1.094-1.117,1.092Zm23.464-6.558h0l-1.117-1.094,1.117-1.094h2.234Zm-2.234,1.092h0v-3.28l1.117-1.092-1.117-1.094H160.03l-1.119-2.186h-2.234l1.117-1.092h1.117l1.119-1.094s2.234-3.28,4.469-3.28h3.352l2.234-2.186v-1.092c1.117,0,0-2.186,0-2.186v-2.187l-3.352-2.186-4.469-2.186s0-2.186-1.117-2.186l1.117-2.186s2.234-3.28,4.469-4.372a3.5,3.5,0,0,1,2.234-1.094c1.117,0,2.234,1.094,3.352,2.186h4.47V85.176c0-1.094,0,0-1.119-1.094l-1.117-1.094V76.431a10.85,10.85,0,0,0-1.117-3.28,3.8,3.8,0,0,0-1.117-2.186L171.2,68.779V67.687a11.119,11.119,0,0,1,1.117-4.374,5.311,5.311,0,0,0,1.117-3.278l-1.117-1.094-4.469-1.094-1.117-1.092a1.087,1.087,0,0,0-1.117-1.094l-4.469,1.094a16.078,16.078,0,0,0-3.353,2.186c-2.234,0-2.234,0-3.352,1.094-2.234,1.092-2.234,2.186-3.352,3.278-1.117,0-2.234,2.186-2.234,2.186-1.117,1.094-1.117,1.094,0,2.188,0,1.092,1.117,0,1.117,0h2.234c1.117,0,1.117,1.092,0,1.092v1.094l-1.117,1.092v2.186a1.087,1.087,0,0,1-1.117,1.094l-2.234,2.186a1.079,1.079,0,0,0-1.117,1.094c0,1.092,0,1.092,1.117,2.186V80.8c0,1.094-1.117,2.186-1.117,1.094V80.8h-4.469l2.234-2.186,1.117-1.092V76.431h-4.47l1.119-1.094V73.151l1.117-2.186s0-2.186,1.117-2.186a3.79,3.79,0,0,0,1.117-2.186c1.117,0,0-1.094,0-1.094h-2.234l-2.236,1.094a25.787,25.787,0,0,1-4.469,1.094h-1.117a1.087,1.087,0,0,0-1.117-1.094H132.1a1.079,1.079,0,0,0-1.117,1.094s3.352,1.092,4.469,2.186h1.117v1.092s-1.117,2.186-2.234,2.186a1.087,1.087,0,0,1-1.117,1.094l-2.234,1.092,1.117,2.188V79.71l-2.234-1.094L126.511,80.8h-1.117a1.078,1.078,0,0,1-1.117-1.092L123.158,81.9a49.3,49.3,0,0,0-5.586-1.094v2.186l2.234,1.094-2.234,1.094,4.469,2.186,1.117,1.092,1.119,3.28-1.119,1.092,2.236,2.188a3.352,3.352,0,0,0,1.117,2.186v5.466s-2.234,1.092-2.234,2.186h1.117l2.234,2.186,1.117,2.186a3.79,3.79,0,0,0-1.117,2.186l2.234,1.094h11.172l3.353-1.094s2.234,2.186,3.352,2.186a1.492,1.492,0,0,1,0,2.186,1.087,1.087,0,0,1-1.117,1.094l1.117,3.28c1.117,1.092,1.117,0,1.117,0l2.234,2.186a1.087,1.087,0,0,0,1.117,1.092h1.117a1.087,1.087,0,0,1,1.117,1.094h3.352a1.087,1.087,0,0,0,1.117-1.094h2.236v-2.186Zm0,5.466h0l-1.117,1.092h1.117l2.234,1.094H164.5l1.117-1.094,1.117-2.186,3.352-1.092h3.352l1.117-1.094v-1.092l-2.234-2.186h-6.7v2.186c-1.117,1.092-1.117,1.092-2.234,1.092h-1.117ZM148.857,139.83h1.117l1.117-1.094-1.117-2.186-1.117-1.094-1.117-3.278-2.234-2.186-1.117-1.094-1.117,2.186-1.117,1.094-1.119,1.092s-3.352-1.092-4.469-2.186l-2.234-1.092A3.5,3.5,0,0,1,132.1,128.9l-1.117-1.094a1.078,1.078,0,0,0-1.117-1.092c0-1.094-1.117,0-2.234,0h-3.352a1.088,1.088,0,0,1-1.119,1.092c-1.117,1.094,0,3.28,0,3.28v1.094l1.119,2.186h-3.353l1.117,2.186a3.349,3.349,0,0,0,1.117,2.186l1.119,1.094,5.586,1.092h1.117l4.469,2.186,2.234,2.188h2.234l1.117-1.094,3.353-1.094h2.234l3.352,1.094h1.117v-3.28ZM105.281,95.014h0l-2.234-1.094-2.234-3.28-3.352-1.092-1.117-3.28c-1.117-1.092-1.117,0-1.117,0a5.317,5.317,0,0,1-1.117,3.28H91.875L89.64,91.734a25.837,25.837,0,0,1-4.47,1.092L84.053,93.92l-6.7-1.094-2.234,2.188v1.092l1.117,2.186,1.117,1.094h1.117v2.186l1.117,2.186a13.545,13.545,0,0,1,2.234,3.28c1.117,2.186,0,3.278,0,3.278l3.352,3.28,2.234,1.094a3.928,3.928,0,0,0,2.236,1.092v3.28l1.117,2.186,1.117-1.092,1.117-1.094,5.586,2.186s4.469,2.186,5.586,2.186l2.234-2.186c1.118-1.092,4.47-1.092,4.47-1.092a1.079,1.079,0,0,0,1.117-1.094c0-1.094,1.117-2.186,1.117-3.28a3.8,3.8,0,0,1,1.117-2.186v-2.186l-1.117-3.28,1.117-4.372-2.234-2.186-1.117-1.094V98.292L113.1,97.2V93.92l3.352-2.186,1.117-3.28a49.364,49.364,0,0,0-5.586-1.092c-2.234,0-1.117,0-1.117-1.094l-1.117-1.092-2.234,1.092c-1.118,0-1.118-2.186-1.118-2.186l-2.234,1.094h-3.352v1.092c-1.117,1.094,0,2.186,1.117,2.186a10.85,10.85,0,0,0,1.117,3.28l1.117,2.186Zm-2.234-15.3h2.234l1.117-2.186a3.8,3.8,0,0,0,1.118-2.188V72.059L106.4,70.965l-1.117-2.186-1.117-3.28H101.93v2.188a3.8,3.8,0,0,0,1.117,2.186l1.117,1.092v1.094l-1.117,1.092-1.117,2.186,1.117,2.188Zm5.587,54.654h0l1.117,3.28,1.117,2.186s2.234,1.092,2.234,0-1.117-2.186,0-3.28c0-1.094,1.117-3.28,1.117-4.372s1.117-2.186,1.117-3.28a8.222,8.222,0,0,0,2.234-4.372,10.849,10.849,0,0,0,1.117-3.28v-3.28l-1.117-3.278-1.117,2.186v2.186l-2.234,4.372-1.117,2.186-2.234,2.186v3.28l-1.117,1.094v1.092Zm-5.587-9.838h0l1.117,1.092s1.117,3.28,2.234,3.28l3.353-3.28v-2.186l1.117-2.186-3.352,1.094-2.236,2.186Zm-10.055,2.186h0l1.117,3.28a3.928,3.928,0,0,1,2.234,1.092l2.234,2.186a1.079,1.079,0,0,0,1.117,1.094l2.234-1.094,1.117-2.186h-2.234c-1.117,0-2.234-2.186-2.234-2.186H97.461c-1.117,0-3.352-2.186-3.352-2.186Zm-17.877-3.28h0l2.234,1.094,1.117,1.092,2.234,1.094L78.467,128.9s1.117,2.186,2.234,1.094h1.117l2.234,1.092a4.161,4.161,0,0,0,3.352,1.094,1.079,1.079,0,0,0,1.117-1.094V128.9L87.4,126.713l-1.117-2.186-4.469-1.094-2.234-2.186-3.352-1.092H75.115ZM111.986-9.923h0v1.092h2.234l2.234,1.094c0,1.092,1.117,0,1.117,0,1.117,0,1.117-1.094,1.117-2.186l1.117-1.094,3.352-2.186c0-1.094-2.234-1.094-2.234-1.094L117.572-13.2,114.22-12.11Z" transform="translate(129.481 2327.011)" fill="rgba(25,95,140,0.2)" fill-rule="evenodd"/>
      <path id="Union_2" data-name="Union 2" d="M270.736,986.476l-1.115-2.185-6.7,1.089-5.588-1.089,2.235-3.281,1.115-2.192-1.115-2.185,1.115-3.281,1.119-3.282,1.119-2.184s0-4.377-1.119-4.377c0,0-3.353-4.377-3.353-5.466l-4.47-6.563s-5.584-6.561-6.7-8.747c-2.234-3.281-1.115-3.281-1.115-4.377l2.234-3.281h5.584v-5.466c-1.115,0-3.351-2.192-3.351-2.192l-4.468-2.185,1.115-4.377h4.469l2.234-1.089,2.235-1.1a5.327,5.327,0,0,0-1.116-3.281c0-1.1,1.116-5.466,2.234-5.466,0-1.1-3.353-2.192-3.353-2.192s-2.234,2.192-3.351,2.192l-3.353-3.281-4.468-7.658-3.353-2.185-2.236-3.281c-1.115-1.1-2.234-2.185-2.234-3.282-1.116-1.1-2.234-5.466-2.234-5.466s-4.47-10.939-5.584-12.035v-4.37c-1.119-1.1-1.119-2.192-2.238-2.192s-1.115,1.1-3.351,1.1c-3.353,0-2.234-1.1-2.234-1.1V855.241h-3.353c-1.116-1.1,0-3.282,0-3.282a16.178,16.178,0,0,0,.909-2.188c-.751-.021-3.312-.162-4.259-1.093-1.119-1.1,0-3.281,0-3.281s3.351-2.185,3.351-3.281c1.119,0-2.234-1.1-3.351-2.185-2.234-1.1,1.116-4.377,1.116-4.377a5.318,5.318,0,0,1,1.118-3.281c.558-.548-.56-.274-1.957,0s-3.073.548-3.63,0c0-2.185,3.353-5.466,3.353-5.466v-2.192l-4.472,3.281a43.331,43.331,0,0,1-3.351-4.37l4.47-5.466-3.354-1.1-1.116-1.1,2.234-4.37,1.116-3.281s-2.234,2.184-3.351,2.184l-.01,0,.01,0-3.353-4.377,1.119,3.282-4.47,1.1A46.643,46.643,0,0,1,197,804.936l-2.235-5.472,1.119-7.652s-1.119-7.658-2.234-8.754-2.235-5.466-2.235-5.466l.819-5.615-4.222-2.065c0-2.182-4.48-7.654-5.6-12.024-2.238-3.283-6.713,0-6.713,0s-3.356,7.653-5.594,7.653a30.573,30.573,0,0,0-5.595,4.371s-5.6,6.566-8.956,8.756c-2.237,2.182-1.119-2.189-2.237-6.566,0-4.371-3.358-3.277-3.358,0,1.121,2.188-6.712,5.471-8.95,5.471-3.362,0-7.837,5.465-7.837,5.465l-3.357,10.937-8.95,15.314s-13.432,7.653-14.551,7.653c-1.119,1.1-3.356,3.283-5.594,5.465-2.238,3.283-4.475,3.283-5.594,3.283-2.238,0-1.119-2.188-4.479-3.283-2.239-1.094-5.595,4.378-5.595,4.378l-5.594,2.188-6.713,1.094c-1.119,0-5.6-2.188-6.718-1.094,0,0-3.356,2.189-3.356,1.094s-2.237-2.188-2.237-2.188S44.759,824.6,42.521,823.5s3.362-5.465,3.362-5.465,4.476-3.283,3.356-3.283c0-1.1-4.48-1.1-7.837-2.189a13.832,13.832,0,0,1-5.595-1.094L31.333,807.1l-1.119-2.189c0-2.188-2.237-2.188-5.593-4.377s-5.6-5.465-5.6-6.559c0,0-4.476-7.654-5.594-9.842a5.182,5.182,0,0,1,0-4.378s3.356-5.465,4.475-7.653c0-2.189,1.119-1.1,2.238-1.1s6.717-1.094,6.717-1.094c1.119,0-2.237-4.371-2.237-4.371l3.356-4.377s2.237-5.465,1.119-5.465a3.964,3.964,0,0,1-1.119-3.283,8.559,8.559,0,0,0-4.475-2.188c-2.244,0-5.6,2.188-5.6,2.188L13.427,754.6c-1.119,1.094-1.119,0-3.357,0-2.238-1.094-1.119-3.283-1.119-5.472,0-1.087,3.357-3.276,5.595-5.465,1.119-3.283-3.357-3.283-3.357-3.283l-5.594-3.276,3.356-6.566-1.119-3.276s4.476-2.189,4.476-3.283a2.177,2.177,0,0,0-2.238-2.189l-3.356-4.377c0-1.088,3.356-2.182,3.356-3.276,1.119,0,3.357-3.283,3.357-3.283,0-1.1-3.357-2.189-4.476-1.1-1.119,0-3.356,2.189-3.356,2.189L0,705.393s4.476-6.566,5.594-7.662c0-2.182,2.238-1.094,4.476-1.094,3.357-1.088,3.357-2.182,3.357-2.182,0-1.094-5.595-1.094-7.833-1.094l-4.476-4.378c-2.238-3.276,2.238-4.37,2.238-5.464v-5.472L5.594,669.3s2.238-2.189,1.119-3.283c0-1.088-2.238-4.371-3.357-6.559V655.08A24.826,24.826,0,0,1,8.951,651.8c1.119,0,0-3.283,0-3.283s6.713-6.559,6.713-7.653a24.375,24.375,0,0,1,1.119-4.378l-8.951,1.1H6.713c-1.119,0-2.238-1.1-2.238-3.283,0-3.277,1.119-2.182,3.356-3.277s2.238-2.188,2.238-4.377a3.531,3.531,0,0,1,3.357-3.276c1.119-1.1,6.713-5.472,7.831-6.566,0-2.189-3.355-2.189-6.712-3.283-2.238-1.088-4.476-5.465-3.357-7.654,1.119-1.094,2.238-3.276,3.357-3.276a15.709,15.709,0,0,0,2.238-3.283s-5.595-1.094-6.713-1.094c-1.119,1.094-2.238-2.189-2.238-3.283a2.38,2.38,0,0,1,2.238-2.189c0-1.088,3.357-2.182,3.357-3.276a10.852,10.852,0,0,0-1.119-3.283l3.356-2.189c1.119,0,2.238,2.189,3.357,1.094,1.119,0,2.236-3.276,2.236-3.276H20.14a20.488,20.488,0,0,1-3.357-4.377c-1.119-1.094,0-3.283,0-4.377,0-2.182,2.238,0,5.6,1.094s2.239,1.094,3.358,2.189a8.276,8.276,0,0,0,3.355,3.282c1.119,0,2.238-2.188,2.238-2.188l-3.356-2.189a40.453,40.453,0,0,0,1.119-8.748c0-3.283,3.356,0,3.356,0s4.476,3.283,6.713,2.189c1.119,0,0,0,1.119-4.377,1.493-2.917,1.99-2.916,2.154-2.916.083,0,.083,0,.083-.361,1.119-1.094,6.718-2.188,6.718-3.283,1.119-1.094-1.119-3.283-1.119-4.377A8.214,8.214,0,0,1,50.359,549c1.119-1.094,4.475,4.371,5.594,4.371,1.118,1.094,4.476,0,4.476,0a66.863,66.863,0,0,1,4.475-6.559c1.119-1.094,5.6,2.188,6.718,3.283,1.119,0,5.594,3.276,7.832-1.1,2.238-3.282,0-4.377,0-4.377s-5.594-1.094-7.832-4.371c-3.362-3.282,0-3.282,2.238-5.471,1.119-2.189,1.119-3.283,2.237-4.377,2.238-1.088,10.07,0,10.07-1.088,1.118,0,5.6-3.283,5.6-3.283l4.475,3.283s6.713,3.276,8.951,5.465,2.238-2.189,2.238-2.189l-2.238-5.465a8.229,8.229,0,0,1,2.238-4.377c1.119,0,0-3.276,0-4.371,1.119-2.188,6.713-2.188,6.713-2.188s3.362-2.189,2.243-4.378c0-1.094-2.243-3.276-2.243-3.276s-4.476-2.188-4.476-4.377c-1.119-2.189,2.238-2.189,2.238-2.189l1.118-8.747s5.6-2.189,6.717-2.189c2.239-1.1,4.476,3.283,5.595,4.377s0,1.094,1.119,3.283c0,1.088,2.237,1.088,3.356,1.088h10.075c1.119,0,2.238-4.371,2.238-4.371l2.237-1.094,10.069,4.377a31.929,31.929,0,0,1,3.356,6.559c2.238,4.371,4.48,1.1,5.6,1.1,2.238,0,3.356-1.1,6.713-4.378,2.238-2.188,1.119-2.188,4.475-2.188,2.238,0,4.476-3.277,4.476-3.277l-2.238-4.377-3.356,2.189-5.595,4.377H156.668c-1.119,0,0-6.566,0-6.566a51.791,51.791,0,0,1-8.95-1.094c-4.476-1.1,2.236-7.654,2.236-7.654l3.358-2.189,7.836-4.37-4.48-4.377,1.119-2.189a51.1,51.1,0,0,0,2.238-5.465,30.57,30.57,0,0,1,5.6-4.377c3.356-2.189,3.356-4.371,3.356-5.465s2.238-6.566,6.713-10.937c4.476-3.283,5.594-2.188,5.594-2.188l4.479-3.284s5.595,4.378,6.713,4.378c2.238,0,5.594-1.094,4.476-5.472,0-3.276-2.238-2.182-2.238-2.182l-7.832,2.182a23.311,23.311,0,0,0,1.119-6.559c0-3.283,3.357-3.283,5.595-4.377,1.119-1.088,3.356-1.088,5.594-3.277s-1.119-2.188-2.238-2.188-5.594,2.188-7.833,3.283h-4.474c-3.362,0,0-3.283-1.125-4.377l6.718-4.371h7.832l2.238-4.377v-4.378l4.475-1.094s5.6,4.377,5.6,3.283v-6.559s5.593-3.283,5.593-5.472a1.088,1.088,0,0,0-1.118-1.094l-2.238-5.465,7.831-4.378s-2.236-5.464-3.357-6.559c0-1.094,2.239-6.559,3.357-8.748s3.357-6.566,3.357-6.566v-10.93c0-1.251.365-1.072,1.095-.893a3.091,3.091,0,0,0,2.262-.2c1.119,0,1.119-3.283,1.119-3.283s5.6-5.472,6.718-6.559c1.119,0,4.476,2.182,4.476,2.182s6.713-1.1,7.831-1.1c1.121-1.086,2.239-6.559,2.239-6.559s-3.356-2.189-5.594-2.189c-1.119-1.094-6.713,1.1-6.713,1.1-1.119,0-4.476-4.371-4.476-4.371s1.119-7.66,0-9.842a4.727,4.727,0,0,1,2.238-4.377c1.119,0,3.356-3.283,2.238-5.465a4.727,4.727,0,0,1,2.238-4.377,24.568,24.568,0,0,1,5.594-3.284c2.236-2.188-1.119-4.37-1.119-4.37a24.385,24.385,0,0,0-1.119-4.377l7.831-4.371s4.481-2.189,3.362-2.189c0-1.094,2.238-2.188,2.238-2.188l4.476-4.378,1.119-2.182s-3.357-3.283-3.357-4.377c0-2.189,1.119-4.377,1.119-5.465,1.119-1.094,3.357-1.094,4.476-1.094l2.238-3.283c0-1.08,1.09-3.226,1.118-4.335.9.2,7.833,1.052,7.833,1.052l10.074-1.1c1.119-1.094-5.593-1.094-5.593-1.094a49.787,49.787,0,0,1-5.6-1.087l2.238-4.378s4.48-3.283,4.48-4.377c1.118-1.088,0-3.276-1.119-3.276,0-1.1-6.719,1.094-7.837,1.094l-3.357-4.377,4.476-6.56,10.074-1.094a3.932,3.932,0,0,0,2.237-1.094l4.476-2.189,6.713,1.1,4.481-1.1,1.119-2.189s0-2.182-5.6-4.37c-6.713-2.189-2.238,1.094-4.475,3.276-3.357,1.094-5.595,2.189-6.714,2.189s-1.119-1.1-5.593-3.277c-3.362-2.188,4.474-3.282,4.474-4.377-1.119-1.094-10.074-6.559-12.312-5.471-1.119,1.094-5.595,1.094-10.07,1.094-4.476,1.094-3.357,0-5.595,0-1.119,0-5.6,5.472-8.957,5.472-3.355,1.094-6.711,4.37-10.068,4.37-2.238,0-4.476,2.189-4.476,2.189s0,5.471-2.238,8.748c-2.243,4.377-5.6,3.283-7.837,2.188s2.238-3.283,2.238-4.37v-4.377s10.075-8.748,10.075-10.937c1.119-3.283,4.476-5.465,6.713-6.559,1.119,0,5.593-5.472,5.593-5.472h8.957s8.951-1.094,12.308-3.276c2.238-2.189,0-3.283,0-3.283s-5.594-1.094-5.594-4.378-1.119-2.188-1.119-2.188a29.938,29.938,0,0,1-4.476-5.465c-1.119-2.189,3.357-9.842,3.357-9.842s7.832-10.937,10.07-14.22a11.256,11.256,0,0,1,6.719-2.182c1.117-1.094,6.712-6.566,6.712-6.566a11.693,11.693,0,0,1,4.476-8.748c3.357-3.283,4.476,4.378,4.476,4.378s1.119,7.653,1.119,9.842,0,1.094,6.719,10.936c4.576,6.71,4.992,5.794,5.148,4.878.074-.429.09-.856.446-.507,0,1.094,0,0,5.593,1.094,5.594,2.189,1.119-3.283,1.119-5.465,0-1.094,2.239-1.094,10.075-5.471,7.832-3.283,0-1.1,1.119-3.283v-5.465s0-4.378-2.243-5.472c-1.119-2.182-2.237,2.189-2.237,3.283a16.886,16.886,0,0,1-8.95,3.283c-3.356,0-2.238-2.188-2.238-4.377V155.3c1.119-1.1,0-5.472,0-7.662,0-3.276,4.475-3.276,4.475-4.37a22.2,22.2,0,0,1,8.951-8.748c5.6-1.1,1.124,0,2.243,0,2.238-1.1,11.189-4.377,11.189-4.377l-3.357-4.378s5.595-6.559,7.832-6.559,3.356-1.1,6.719-2.189c.993-.487,1.324-.108,1.483.27.2.472.131.946.753-.27,0-2.189-1.118-4.37-2.236-4.37-1.124-1.1-4.481-7.662-4.481-7.662s3.357-6.559,6.717-7.653,5.594,1.094,6.713,1.094c1.119,1.1,2.238,0,4.476-1.094,1.119,0-1.119-2.189-3.356-5.465-2.238-2.189,0-5.472,1.119-6.566s4.476,1.094,5.594,2.189l4.476,2.188s2.243,7.654,2.243,9.843-4.48,4.377-4.48,5.464a10.856,10.856,0,0,0,1.119,3.283s5.6-5.465,7.836-6.559c1.118-1.094,0,0,1.118,0s5.595,0,7.833-2.188c3.357-1.1-3.356-1.1-3.356-1.1-1.119,0-3.355-2.189-6.712-5.465s0-4.377,0-5.471,1.118-3.284,6.712-3.284c4.476-1.086,2.237,4.378,3.356,7.662,0,3.276,6.713,4.37,6.713,4.37s2.243-2.188,3.362-2.188c2.238,0,2.238,1.094,7.832,5.472,5.594,3.282,2.238-1.1,2.238-1.1,0-1.094,0-4.377-1.119-5.465s-5.595-2.188-5.595-2.188c-1.119-1.1-4.476-2.189-7.837-6.568-2.877-3.512-2.056-2.958-.805-2.4.7.307,1.524.614,1.924.224q3.364-3.284,3.362-3.283s3.356-2.189,4.476,0c2.238,1.094,5.594,3.283,5.594,3.283l1.118,1.094s-3.355-5.472-2.236-7.662c1.119-3.276,2.236,0,2.236,0s7.832,2.189,8.951,2.189c1.119,1.1,1.119,2.189,10.075,9.843,7.832,7.653,3.357-1.1,3.357-1.1V77.644c-1.119-1.094-6.713-2.189-6.713-2.189-1.119,0-4.476-3.276-4.476-4.37,0-2.189,2.238-3.283,4.476-3.283,1.119,0,8.951,4.377,11.188,4.377,2.238,1.088,2.238,0,2.238,0s2.238-2.188,2.238-3.283a11.666,11.666,0,0,1,1.119-5.471c0-2.182,1.119-5.465,3.361-6.559,1.118-1.1,5.593-1.1,5.593-2.189V47.022c0-1.094,6.713,0,6.713-1.094,1.119,0-1.119-3.283-1.119-3.283s-2.238-1.088-4.476-2.182c-2.237-2.189-1.119-3.283-1.119-4.377s4.476-1.1,4.476-2.189-1.119-1.094-2.237-3.276,0-3.283,2.237-6.566c2.238-4.371,1.119,0,2.238,0,0,0,6.713,4.377,8.956,5.471,3.357,1.1,2.238-2.188,3.357-3.282s0-4.378,0-5.466c-1.119,0-2.238-1.094-3.357-1.094-1.124-1.094-2.243-3.283-1.124-4.377,0-1.094,5.6-3.283,6.718-4.377,2.238-1.088,4.475,1.094,6.713,2.188a7.026,7.026,0,0,1,3.355,5.472s-4.476,4.37-4.476,5.465c-1.119,0,1.12,1.094,1.12,1.094,1.118,1.1,1.118,6.559,1.118,6.559l-4.474,8.756-3.357,6.559-2.238,7.654V68.9s4.476,2.189,6.712,1.1a2.16,2.16,0,0,0,2.239-2.189l1.118-9.842,2.238-7.654V40.463l4.476-7.66V21.866l8.956-7.653,4.476,8.747L492.4,31.708l-1.119,7.662,6.713,5.464,4.474-8.747V28.432l-3.355-5.472,4.476-8.747-4.476-7.654L502.468,0l6.719,3.276h2.237l5.595-1.094V6.559c1.119,2.189,5.595,3.283,5.595,3.283V6.559l14.55,4.371,10.069-1.088,6.713,4.371s8.956-4.371,12.313-4.371c2.236,0,3.356,3.276,3.356,3.276l5.593,8.748,13.432,9.842-7.832,6.566-1.119,7.654s-17.906,4.377-20.144,4.377c-3.356,1.094-10.075,0-13.432,0-2.238,1.094,2.237,4.371,2.237,4.371h8.956c3.357-1.1,6.714,3.283,6.714,3.283l8.95,2.188,8.956-3.282L583.046,67.8s5.594-6.559,8.951-8.748c2.237-2.188,4.476,6.559,6.713,12.031,2.242,4.37-4.476,7.654-4.476,7.654l-8.951-1.1,1.119,8.748-7.833,7.654s-5.6,4.377-4.48,8.754c1.119,3.277,1.119,13.119,1.119,13.119a23.19,23.19,0,0,1-5.593,1.094,1.025,1.025,0,0,1-.917-.439,37.473,37.473,0,0,1-4.779,4.183l-4.512,5.451,7.9,2.184V138.2l-1.13,6.544-3.381,4.358,4.512,6.544,5.64,8.722,7.894,4.358s1.13-1.086,9.026,0a15.077,15.077,0,0,1,10.154,8.723l4.512,5.45,6.767,4.363,3.385,3.272-1.128,9.81s-3.383,5.451-2.257,9.815c0,5.451-3.382,13.082-3.382,15.261,0,1.091-2.256,9.815-2.256,9.815l3.382,7.63,4.512,4.358,6.769,7.635,9.023,9.81,3.386,7.63s9.023,5.455,9.023,6.543,3.385,6.543,3.385,6.543l4.511,7.63-1.129,5.451-3.382,5.451v3.271l3.382,4.365-1.126,4.358,3.383,6.543-2.257,4.358,5.641,2.179s1.13,1.093,0,3.272c-1.125,1.093-2.255,8.723-2.255,8.723l5.641,8.722,7.9,1.093s4.512,0,4.512,1.086c1.126,1.093,2.256,4.363,2.256,4.363l-3.386,6.539a11.774,11.774,0,0,0,4.511,5.45c2.259,1.093,4.516,1.093,4.516,3.272,1.126,2.179,1.126,5.451,2.255,4.363a41.233,41.233,0,0,1,6.769,1.088l3.384,5.45,2.257,4.365v4.358c0,2.179-1.129,8.722-1.129,8.722l-5.639,8.723s4.512,5.45,7.895,7.63,7.9,5.45,9.026,5.45a35.815,35.815,0,0,1,9.023,2.185c1.129,0,5.642,2.179,6.767,3.266s9.027,5.456,9.027,5.456l6.767,3.267,6.767,5.451,2.259,13.085s-2.259,19.624-3.385,21.8c0,2.179-3.384,11.994-4.512,13.082-2.255,1.092-4.514,2.184-4.514,4.364s-3.381,14.173-3.381,14.173-3.386,7.63-3.386,9.81-3.382,8.722-3.382,10.9c-1.129,1.091-3.385,9.815-3.385,9.815l-14.665,28.346-3.385,10.9s-3.384,1.091-4.512,3.271c-1.129,3.272-2.255,5.451-3.384,8.723,0,2.179-5.639,11.989-5.639,11.989l-2.258,5.456-4.511,5.45-3.383,2.179h-7.9l-3.385-2.179-3.386,2.179c0,1.088-2.256,2.18-2.256,3.272,0,0-1.126,2.179-2.255,2.179-1.126,1.088-2.256,2.179-3.381,2.179,0,1.093-2.259,1.093-2.259,1.093a3.327,3.327,0,0,1-1.128,2.179s-3.384,0-4.511-1.093c-.689-.663-1.8-1.328-2.3-1.746a13.222,13.222,0,0,1-1.084,2.839c0,1.093-2.257,4.358-3.386,4.358a8.657,8.657,0,0,1-4.512-2.179H631.6v7.63a11.63,11.63,0,0,0-3.383,1.091s1.126,2.18,0,2.18c-1.128,1.091-2.259,2.179-3.385,2.179,0-1.088-2.255-2.179-2.255-2.179a15.6,15.6,0,0,0-2.256,3.271,3.756,3.756,0,0,1-1.129,2.179l-7.9,8.723c-1.126,0-3.382-3.272-3.382-3.272V652.8a16.251,16.251,0,0,1-3.385,2.179c0,1.091-1.13,0-2.257,0,0,1.091-1.128,1.091-1.128,2.184a3.777,3.777,0,0,1-1.126,2.179s-2.256,1.093-2.256,2.179a16.191,16.191,0,0,1-3.386,2.179,1.6,1.6,0,0,1-2.255,0c-1.13,0-3.386-3.266-3.386-3.266s-2.256,0-2.256,1.086c-1.125,1.093-1.125,2.179-2.255,2.179a4.23,4.23,0,0,1-3.386,1.093c-1.126,1.093-3.381,1.093-3.381,2.179-1.13,0-2.256,2.179-2.256,3.272s2.256,1.091,0,1.091a15.594,15.594,0,0,1-5.641,1.088s-2.255,1.091-2.255,2.179c-1.13,1.091,0,1.091-2.257,2.184a3.978,3.978,0,0,0-2.255,1.086l-2.256-2.179,1.126-2.179s-1.126-2.179-1.126-1.091c-1.129,2.179,0,3.271,0,3.271a1.1,1.1,0,0,0-1.129,1.093c-1.13,1.086,0,1.086-1.13,2.179a2.381,2.381,0,0,1-2.255,2.179c0,1.093-1.126,1.093-2.256,1.093H551.51c-1.126,0-2.256-1.093-1.126-1.093l2.255-1.086s1.127-1.093,0-1.093c-1.114-1.079-2.226-2.151-2.254-2.179.028.028,1.081,1.086-2.256,1.086q-3.389,1.639-3.386,0s-2.256,0-1.13-1.086c2.256-1.093,2.256-2.184,3.386-2.184.924,0,1.092-1.458,1.123-2.584-.276-.152-.643-.374-1.123-.683l-2.256-3.271a3.755,3.755,0,0,0-1.13,2.179c1.13,1.091,3.386,2.179,0,3.271h-3.381c-1.13,1.088-4.512,1.088-4.512,1.088s-2.259,0-1.13,1.091c0,1.093,2.256,2.179,2.256,2.179s0,1.093-2.256,1.093a5.7,5.7,0,0,1-3.385,1.093l-1.125,1.086a1.094,1.094,0,0,1-1.13-1.086,3.78,3.78,0,0,0,1.13-2.185c0-1.086,1.125,0,0-1.086-1.13-2.184-2.257-2.184-2.257-3.272a16.182,16.182,0,0,1,3.382-2.179v-2.184s-1.125,0,0-1.087a13.634,13.634,0,0,1,2.256-3.272,2.382,2.382,0,0,0-2.256-2.179,10.742,10.742,0,0,0-1.125,3.272s1.125,2.179-2.257,1.086c-3.385,0-5.641,0-6.771-1.086,0-1.093-2.255-2.185,1.13-2.185l3.384-1.087a3.926,3.926,0,0,0,1.126-3.272c-1.126,0-2.255-2.179-2.255-1.091a8.243,8.243,0,0,0-1.129,3.271H518.8a3.757,3.757,0,0,1-1.126-2.179l1.126-4.363s2.255-1.088,1.128-1.088c0,0-2.255-1.091-2.255,0-1.13,0,0,1.088,0,2.179s0,2.18-1.13,2.18c-1.126,1.091-5.641,1.091-5.641,1.091,0-1.091-1.126-1.091,0-2.179v-2.184s-1.126-2.179-1.126-1.088h-2.256v-2.179h-3.385l-1.126-1.091c-1.13,0-1.13,0-1.13,1.091a26.325,26.325,0,0,0-4.511,1.088s0-2.179-1.129,0c0,1.091-5.638,1.091-5.638,1.091a10.713,10.713,0,0,1-1.13-3.271l1.13-3.272,1.126-1.087-1.126-1.093h-2.259c0-1.093,2.259-3.272,2.259-3.272l1.126-1.091c1.13-1.088,3.385-1.088,2.255-2.179a3.99,3.99,0,0,1-2.255-1.088,1.093,1.093,0,0,1-1.126-1.093,10.734,10.734,0,0,0,1.126-3.271,3.777,3.777,0,0,0-1.126-2.179c-1.13,0,0,1.091-2.259,1.091a44.942,44.942,0,0,1-4.511,3.267v-3.267c1.13-1.091,4.511-1.091,5.641-2.184,0-1.086-2.256-4.358-2.256-4.358s2.256,1.093,1.126-1.093l-2.255-1.086a3.917,3.917,0,0,1,1.128-3.272c1.126-2.179,2.256-2.179,2.256-3.271,0,0-3.384-1.093-3.384-2.18s-2.256-1.091,0-3.271a3.547,3.547,0,0,1,2.255-1.093v-4.358c0-1.093,1.129-1.093,1.129-2.179-1.129-1.093-2.256-1.093-3.384-3.272v-2.179c1.128,0,2.255-1.091,1.128-1.091v-2.179l-1.128-2.18c-1.126-1.091-1.126-3.271-1.126-4.363a45.775,45.775,0,0,1,1.126-5.451s0-3.271-2.256-4.358a8.277,8.277,0,0,0-3.382-3.271v-3.272s-2.257-1.093-2.257-2.179a10.72,10.72,0,0,0-1.128-3.272s-1.13,0,0-2.179v-5.451a8.147,8.147,0,0,1-2.256-4.363V551.4a3.325,3.325,0,0,0-1.129-2.179,67.1,67.1,0,0,1-4.511-6.543s-1.126,0-1.126-2.179a10.53,10.53,0,0,1-1.13-4.358V532.87l-3.384-3.272,1.128-4.358v-4.363s0-5.451,1.126-5.451,3.386-3.272,3.386-3.272,2.256-3.272,1.13-4.358a45.71,45.71,0,0,0-1.13-5.451s2.256-3.271,1.13-3.271c0-1.093-2.256-5.451-2.256-5.451l-3.386,3.272L462.4,495.8l1.126-4.358s-2.256-2.184-2.256-3.272,2.256-3.271,2.256-3.271,2.255,4.358,2.255,5.45,2.259,2.18,2.259,2.18c1.126-1.088,1.126-3.272,2.256-3.272a2.389,2.389,0,0,1,2.255,2.184l4.512-1.093s-1.13-1.092,2.255-1.092c3.386,1.092,3.386,0,3.386-2.179,0-1.088-3.386-5.451-1.129-5.451,3.385,0,4.512,1.093,4.512,1.093V484.9c0,2.179,3.384,4.358,3.384,2.179,1.13-2.179,1.13-1.088,1.13-3.272s-2.259-2.179-3.386-4.358c0-.411-.159-.36-.357-.309-.332.085-.771.169-.771-1.87,1.128-3.272,1.128-4.365,2.255-4.365l2.259-1.086c2.256,0,3.381-2.184,2.256-5.456,0-2.179-1.13-3.266,0-4.358,2.255-1.093,1.125-2.179,3.381-1.093S497.365,462,499.621,462c1.126-1.093,1.126-6.543,1.126-6.543-1.126,1.091-3.382-1.088-3.382-1.088-1.129,0-1.129-2.179,0-3.272,0,0,0-2.179,1.126-2.179,2.256,0,2.256,1.088,4.515,0l2.255-2.184c1.126-1.087,2.256-1.087,3.383-3.266,0-1.093,1.129-7.635,1.129-7.635-1.129-1.088,1.126,0,3.385-1.088,1.126-1.091,2.255-7.635,3.382-8.722,1.13-2.179,4.512-6.544,4.512-7.63s3.385-8.722,3.385-8.722l4.512-7.637a10.561,10.561,0,0,0-1.126-4.358c0-1.092-1.13-5.45,0-6.543,1.126,0,2.257-3.272,2.257-3.272v-4.358l5.64-3.271c6.767-1.088,2.256-4.36,10.15-1.088,0,0,4.514-1.093,3.384-2.184l-4.511-4.358L547,369.334s3.385-2.179,0-3.272c-2.256-1.086-4.512-2.179-4.512-3.271a45.655,45.655,0,0,1-1.13-5.451,24.133,24.133,0,0,0-1.125-4.358V347.53a11.3,11.3,0,0,0-2.256-5.451c-1.129-1.091-5.641-4.363-5.641-4.363l-7.9-3.272-2.255,2.185-5.642-5.452-4.512-1.091h-4.511l-4.335-8.979,3.307,7.011a13.715,13.715,0,0,0-3.353,2.185,3.353,3.353,0,0,0-1.118,2.185s3.352,3.281,3.352,4.377v4.377l-2.233,2.184-2.234-3.281v-2.185c0-1.1-1.119-2.192-1.119-3.281h-1.115c-1.119,0-1.119-1.1-2.234-2.192s0,0-1.119,0a3.932,3.932,0,0,0-2.235,1.1,8.236,8.236,0,0,0,2.235,4.377c0,1.089-1.116,2.185,0,3.282v2.184c0,1.1-3.35-1.1-3.35-1.1v-5.465c-1.119-1.1-2.235-2.185-3.353-2.185h-1.119c0-1.1,0-1.1-1.117-2.192-1.118,0,0,1.1,0,2.192h-2.234a3.925,3.925,0,0,0-2.234-1.1h-2.233v2.185l-4.47,2.192-3.353,1.089a3.364,3.364,0,0,1-1.119,2.193c-2.233,1.088-2.233,1.088-3.35,1.088s-2.234,2.193-2.234,2.193c0,1.089,1.115,1.089,2.234,1.089,1.117,1.1,0,4.377,0,4.377a10.816,10.816,0,0,0-1.119,3.281c-1.115,0-2.234,2.185-4.468,1.1-1.116-1.1-2.234,2.184-2.234,2.184v3.282c-1.116,0-2.235-2.185-2.235-3.282l-4.468-1.1v3.281l1.118,3.281-3.353,1.1s-2.234,1.089-2.234,2.185l-1.119,1.1s1.119,2.185,2.235,2.185,1.118,3.281,1.118,3.281,0,2.185-1.118,2.185a3.5,3.5,0,0,0-2.235-1.089,3.778,3.778,0,0,0-1.115,2.184c-1.119,0-1.119,3.282-1.119,3.282a46.591,46.591,0,0,1,1.119,5.466,3.8,3.8,0,0,1-1.119,2.192l-2.234,3.281-2.234,3.282a3.806,3.806,0,0,1-1.117,2.184l-2.233,3.281,2.233,2.185,1.117,2.185,2.234,3.281-1.116,2.193,2.234,2.184h3.35l4.47,3.281,2.236,4.377v3.281h-1.118a24.383,24.383,0,0,1-1.119,4.371l-3.351,4.377s-1.119,3.281-2.234,3.281a3.776,3.776,0,0,1-1.119,2.185l-2.234,5.472v6.555l-2.234,4.377a11.125,11.125,0,0,0-1.117,4.377,1.086,1.086,0,0,1-1.118,1.089s-2.234,5.474-3.353,5.474c0,1.089-2.234,1.089-2.234,2.184A3.358,3.358,0,0,0,431.629,467l-3.353,4.377a3.93,3.93,0,0,0-2.234,1.1l-3.351,1.09s-3.353,3.281-3.353,4.376c-1.119,1.1-3.353,3.282-3.353,3.282V484.5a10.849,10.849,0,0,0-1.116,3.281,3.932,3.932,0,0,0-2.234-1.1v1.1h-3.353l1.117-2.192c0-1.089-2.233,0-2.233,0l-2.234,2.192-1.119,1.089v3.282l-2.234,5.472c0,1.089-1.116,3.282-1.116,4.37a3.927,3.927,0,0,0-2.236,1.1c-1.117,1.1-2.234,2.185-2.234,2.185-1.116,1.1-2.235,1.1-2.235,0l-3.351,3.281-3.352,3.281a43.737,43.737,0,0,0,3.352,4.377c0,1.1-2.234,1.1-3.352,1.1V519.5l-3.35,6.561c0,1.089,0,1.089-1.119,2.185a1.569,1.569,0,0,1-2.235,0l-2.234,4.377a3.935,3.935,0,0,1-2.234,1.089l-1.119,3.281v3.281l-2.234-1.089,1.119,3.282-1.119,4.37c0,1.1-3.351,3.281-3.351,3.281l-2.236,3.281h-4.47l-2.234,6.563,2.234,2.192,1.119,2.185,3.352,3.281-1.117,6.563-1.119,7.65-1.115,2.193c-1.119,0,1.115,4.37,1.115,4.37s0,5.472,1.119,6.563c0,0,2.234,2.192,2.234,3.281l1.119,3.281c0,1.1-3.353,0-3.353,0l-3.353-2.184c-1.116,0-2.234,2.184-2.234,2.184V605.9c-1.117,0-2.236,2.185-2.236,2.185l2.236,2.192-1.117,3.274v4.377h2.234l2.235,4.376c0,1.09-2.235,5.466-2.235,5.466s4.469,9.843,4.469,10.94l-2.234,3.281,3.352,4.371v2.192s3.351,2.184,3.351,3.281c1.119,1.089-1.115,3.274-1.115,3.274v3.281l4.469,1.1H378a25.725,25.725,0,0,1,4.468,1.1v4.371l1.119,2.192,3.353-3.281,5.585-3.282s1.119,3.282,2.234,3.282l1.119,3.281s3.351,3.281,4.469,4.37c1.118,2.193,2.234,2.193,2.234,2.193,1.9,4.955,2.364,3.944,3.222,2.932.657-.775,1.544-1.549,3.481.349l2.234,2.184s2.234,2.185,2.234,4.377c0,1.089-2.234,1.089-2.234,1.089l2.234,4.377a6.918,6.918,0,0,0,4.433.525c1.826-.262,3.167-.523,4.508,2.757l2.234,2.184c0,1.1,2.235,1.1,2.235,1.1l5.584,4.37,3.353,3.281-1.119,2.193s-5.585,3.281-6.7,3.281a2.375,2.375,0,0,0-2.234,2.185,4.154,4.154,0,0,0-3.351,1.1c-2.234,1.089-1.119,1.089-2.234,2.185s0,3.281,0,3.281h2.234c1.115,0,2.234-2.184,2.234-2.184,1.117-1.1,2.235,0,2.235,1.089s0,1.1-1.119,2.192c0,1.089-11.173,6.561-11.173,10.932,2.235,1.1,10.056,5.472,10.056,8.747,0,0-3.353,3.281-4.468,3.281s-2.238-2.184-2.238-3.281c-1.115-1.089-2.234,1.1-2.234,1.1L417.1,742.6l2.234,1.1a10.816,10.816,0,0,0-1.119,3.281l-2.234,4.37c-3.351,2.192-1.116,2.192-7.819,3.281-1.118,0,0,2.193,0,3.282,1.116,2.192-3.354,2.192-3.354,2.192l-1.115,6.563-1.119,1.089c-1.116,0,0-3.282,0-3.282l-1.116-3.281-3.353-1.089v-6.563l-1.118-3.281s-2.235-4.377-3.351-2.192c0,3.281,2.234,13.124,1.115,13.124,0,2.192,0,3.281-1.115,3.281v4.377s-8.937,5.466-8.937,6.563c-1.119,0-3.354,3.281-3.354,3.281s-7.821,3.281-10.057,4.37c-1.115,0-1.115,2.193-1.115,2.193l4.469,1.089,1.115,6.561-2.234,2.193-1.117,2.184v2.185a13.648,13.648,0,0,1,2.235,3.281c1.115,1.1-1.119,2.192-1.119,2.192l2.234,6.563v6.563c1.119,1.089-2.234,6.555-2.234,6.555v2.192s2.234,9.843,2.234,10.932-2.234,4.377-2.234,4.377l3.353,9.842s-4.469,5.466-4.469,6.563,1.117,6.563,1.117,6.563,1.119,5.466,2.234,8.747c2.235,3.281-2.234,6.563-2.234,6.563s-2.236,7.658-2.236,8.747v9.843c1.119,0-3.351,3.281-3.351,3.281l-3.352,21.871s-4.469,7.658-5.588,7.658c0,1.1-3.35,3.282-5.584,3.282-3.353-1.1-2.234-1.1-2.234-1.1l-5.588-2.186-2.233,2.186-5.587-1.089s-4.469,1.089-5.584,0c-2.238-1.1-4.472,1.089-4.472,1.089l-3.351,1.1s-4.469-1.1-6.7,0c-1.119,1.1-1.119,2.184,2.234,4.377,3.35,1.089,1.116,2.184,1.116,2.184s1.119,1.1,2.234,2.185c1.119,0,1.119,3.281,1.119,4.377a1.087,1.087,0,0,1-1.119,1.089H319.9c-2.234,0-1.118-1.089-1.118-2.185-1.117-1.1-2.235-1.1-2.235-2.184-1.117,0-3.353-2.185-4.468-3.282s-1.119,1.1-4.469,3.282-2.234,4.37-2.234,4.37v5.474a16.927,16.927,0,0,1-1.118,4.37c0,2.192,1.118,3.281,2.233,3.281,1.119,1.1,1.119,4.377,2.235,5.474,0,1.089,2.234,4.37,2.234,4.37s4.47,2.192,5.587,3.281-1.117,3.282-1.117,3.282c-1.117,0-2.236-2.185-2.236-2.185h-4.468c-1.116,0,0,2.185,0,2.185l-4.469,1.1-3.351,1.1h-3.353s-2.234-1.1-2.234-2.192-3.353-1.089-3.353-1.089a25.7,25.7,0,0,0-4.47-1.1l-2.234,3.281V982.1l-3.351,2.192-4.472,2.185a27.96,27.96,0,0,1-4.468.487A3.562,3.562,0,0,1,270.736,986.476Zm-53.628-137.8v0Zm-15.645-71.087h3.353l.567-.277-1.712-.837v1.094h-2.208ZM212.627,755.7l-3.356,6.559-1.119,7.654-1.124,6.566-.074.072.1-.047,1.116-6.561,1.119-7.658,3.353-6.562v-6.561l-.011-.019Zm-20.145,14.213v.329q.021-.147.044-.3v-6.552l-.044-.037Zm7.842.01-.01-.01-1.087-.91Zm8.946-36.1-3.362,1.094,2.243,6.56,1.569,2.684-1.554-2.663-2.234-6.555,3.354-1.1,3.353-3.282,1.116-5.466-.011-.011-1.116,5.451-2.238,2.189h-1.119Zm4.475-16.408-2.237,2.189v3.282l.011.011V719.63l2.235-2.185c1.118-1.1,3.353,0,3.353,0l3.35-1.1,3.354-3.282s3.936-2.89,4.419-4.145c-.53,1.274-4.416,4.124-4.416,4.124l-2.238,2.189H217.1l-1.119,1.094h-1.118Zm14.545-24.055,0,.006,2.106-3.094Zm322.093-16.579Zm-325.45-29.357L219.34,652.9a.115.115,0,0,1,.006.018l5.58-5.461,5.587-1.1s6.613,0,5.61-1.067c-.182,1.041-5.59,1.041-5.59,1.041h-4.481Zm11.194-2.443c.03-.212.085-.5.159-.832h-.159Zm1.119-6.3v1.7c.289-1.058.574-2.071.781-2.794h-.781ZM219.34,606.963h0c-.009-.277-.105-3.2-1.118-33.878h0C218.231,573.348,218.325,576.191,219.34,606.963Zm-7.832-55.778a5.075,5.075,0,0,0-1.119,6.565,12.383,12.383,0,0,0,1.066,2.534,12.211,12.211,0,0,1-1.052-2.507,5.075,5.075,0,0,1,1.115-6.561c.931-.912.313-2.576.08-3.111C211.84,548.666,212.424,550.294,211.508,551.185Zm1.119-14.213-2.238,3.282,1.119,7.654.01.021-1.115-7.654,2.234-3.281v-6.561l-.011-.022Zm2.238-48.125-2.238,10.937-1.119,7.66s-3.357,4.37-3.357,6.559v7.654l1.127,2.2-1.112-2.175v-7.652c0-2.192,3.353-6.561,3.353-6.561l1.119-7.658,2.234-10.94,14.525-18.59.675-.027h-.664Zm36.2-19.443,5.15-.209.016-.032Zm16.37-125.983.263-.029h-.233Zm8.164-.89,1.845-.2.024-.023A9.646,9.646,0,0,0,275.595,342.532Zm217.484-31.915,6.6,3.23-.056-.115-6.636-3.207ZM306.63,239.5v.848c.192-.385.556-1.123.926-1.935h-.926Zm1.119-2.182v.669c.272-.612.533-1.238.716-1.763h-.716Zm162.983.029,4.071-1v-.025l-4.095.992Zm-141.9-12.027h5.588l.016-.031h-5.428l-11.194-5.472-.045.089ZM456.99,198.508l-.236-.342a3.647,3.647,0,0,1-1.022,1.209C456.238,199.39,456.7,198.911,456.99,198.508Zm-85.7-2.721.182-.03c-.1,0-.294-.01-.569-.036Zm-2.576-.486a10.435,10.435,0,0,1-1.659-.637,9.7,9.7,0,0,1-1.191-.049C366.778,194.876,367.8,195.112,368.717,195.3Zm-5.245-1.7a3.13,3.13,0,0,0,.952.534,3.961,3.961,0,0,1-.723-.566c-1.119-1.094-6.713-3.283-7.832-3.283-.029.014-.061.028-.094.042C357.127,190.462,362.392,192.541,363.472,193.6Zm-8.636-3.051c-4.157.625-16.873-.264-16.873-.264l-.034.045C339.412,190.432,351.179,191.2,354.836,190.551Zm73.212-7.53-.623-.121a2.665,2.665,0,0,1-.543.7C427.374,183.773,427.8,183.354,428.048,183.021ZM403.736,138.2l4.511,1.093,7.9,8.723,6.771,7.63s10.152,7.629,12.409,8.722,14.664,3.272,15.79,4.358l.479-.617c-2.629-1.156-13.1-3.067-15.15-4.068-2.238-1.094-12.308-8.747-12.308-8.747l-6.713-7.662-7.836-8.748-4.477-1.094V136.7h-4.456A6.025,6.025,0,0,1,403.736,138.2Zm64.3,20.717,11.278,2.179,4.512,3.272a2.967,2.967,0,0,0,1.176-.326h-.441l-4.476-3.282L468.9,158.571l-4.475-3.276-.767.449Zm18.436,4.356a1.456,1.456,0,0,0,1.04-.325H486.8Zm-104.006-7.948,1.4-1.145-.025.02a3.931,3.931,0,0,0-2.238,1.1H379.37l-.059.03Zm6.2-3.69a28.207,28.207,0,0,1,4.916-.353v-.328A13.569,13.569,0,0,0,388.668,151.636Zm4.916-.915v-.088l-4.144-.81-.091.071Zm168.079-49.588V104.4c0,2.179,1.13,5.451,2.257,6.544,0,.942,4.24,3.527,5.368,4.2l.329-.321s-5.594-3.276-5.594-4.37c-1.119-1.094-2.238-4.377-2.238-6.559v-3.283a19.325,19.325,0,0,1,.238-3.371A16.862,16.862,0,0,0,561.662,101.133Zm1.144-5.891c.031-.036.063-.07.1-.1a11.324,11.324,0,0,1,.208-1.96A14.294,14.294,0,0,0,562.806,95.242Zm-65.932-2.284-2.237,1.088a2.12,2.12,0,0,0-.528.485l2.126-1.028,3.385-2.179v-.155Zm34.33-27.8c2.256,3.271,2.256,5.45,6.771,6.543l13.535,4.358,7.9,1.091,2.255,2.18c0,2.179,0,4.363,1.13,5.45a20.832,20.832,0,0,0,1.087,5.334c.085-.276.141-.439.141-.439A21.84,21.84,0,0,1,562.9,84.2c-1.119-1.086-1.119-3.276-1.119-5.464l-2.238-2.189h-1.119l-6.718-1.1-13.427-4.37c-4.474-1.094-4.474-3.283-6.712-6.566-2.243-1.094-6.718,0-10.075,0L517.019,68.9l-.082.241,4.115-3.98c2.257,0,5.015-.483,7.271-.483A6.816,6.816,0,0,1,531.2,65.156ZM501.351,77.644c-1.87.261-2.911.772-3.412,1.472a6.817,6.817,0,0,1,2.809-.879l3.386-2.179h10.152l.208-.6h-9.787ZM375.763,926.327l1.119-8.753-2.234-3.282c0-1.089-1.119-3.281-1.119-6.561,1.119-3.281,1.119-4.371,2.234-6.555,0-2.192,2.235-3.281,2.235-5.474,0-3.281,0-4.37,1.118-6.561,0-2.185,1.116-4.371,2.234-4.371,0-1.1,2.235-5.472,2.235-5.472l1.119-5.466s2.233-5.466,2.233-6.563-1.119-5.466-1.119-6.561c1.119-1.089,3.353-3.282,3.353-3.282h3.351s0,3.282-1.117,4.377a3.927,3.927,0,0,0-2.234,1.089c0,1.1,2.234,3.282,2.234,3.282v4.377l-2.234,4.376-2.234,5.467v5.465l-1.119,3.282-1.115,3.281-2.238,6.563,1.119,5.466-3.353,6.561v12.035s0,3.281-1.116,3.281Zm49.163-47.03c-4.468,0,0-1.089,1.117-3.281s2.234-4.371,2.234-4.371l-1.115-4.377-2.235-3.281-3.353-4.37-1.115-2.193,3.349-1.089a46.591,46.591,0,0,1-1.115-5.472c0-1.089-1.119,0-2.234-2.185-1.119-1.1-1.119-4.377-1.119-4.377a24.382,24.382,0,0,1,1.119-4.37,80.225,80.225,0,0,1,5.584-6.563c3.353-3.281,2.234-3.281,2.234-5.472-1.115-1.089,1.119-2.185,1.119-2.185l3.351-3.281,2.234-5.466,3.353,3.281c1.118,0,1.118-1.1,1.118-2.184s2.234-1.1,2.234-1.1a25.765,25.765,0,0,0,4.469-1.1l1.115-2.184s4.47-1.1,6.706,0c1.116,1.1-1.118,1.1-1.118,2.184v2.193c0,1.089-1.119,2.184-4.469,2.184-3.353,1.089-1.119,3.282-1.119,3.282v4.37c-1.115,1.1-3.35,3.281-5.584,3.281a5.322,5.322,0,0,0-1.118,3.281c0,1.1,1.118,3.282,1.118,5.474,0,1.089,0,1.089,1.116,3.281,0,1.089,2.234,1.089,3.353,1.089,0,1.1,2.234,3.282,1.115,4.377s-2.234,2.185-3.35,2.185c0,1.1-2.234,4.377-2.234,4.377a5.189,5.189,0,0,1,0,4.377c0,2.184-2.234,1.089-3.353,2.184l-3.353,3.282c-1.117,0-2.234,4.37-2.234,6.561v4.371c0,1.1,0,0-2.234,3.281-1.314,1.288-1.942,1.733-2.421,1.734C427.348,881.031,426.961,879.964,424.925,879.3ZM204.7,810.461l-.873.429Zm.01-.005-.01.005Zm.025-.012-.025.012Zm0,0h0Zm.046-.023-.046.023Zm0,0h0Zm0,0,0,0Zm.017-.008-.017.008Zm.006,0-.006,0ZM439.835,693.135v-4.363h3.381c1.13,0,2.259-1.086,3.386,0s0,3.272,0,3.272c-1.126,1.091-2.255,2.184-3.386,2.184A4.225,4.225,0,0,1,439.835,693.135Zm25.942-4.363c0-1.086-2.255-2.179,1.129-3.266l3.387-2.185h2.255c1.126-1.086,3.381,0,3.381,0,0,1.093,1.13,1.093-1.126,2.185l-2.255,1.086c-1.129,0,0,1.093-1.129,1.093-1.557.75-3.65,2.021-4.8,2.021C466.1,689.706,465.777,689.449,465.777,688.772Zm-6.767,0c-1.126-1.086-2.256-3.266-3.383-3.266s0-1.093-2.257-1.093c-3.383,0,0,1.093-4.512,0-3.383-2.179-3.383-2.179-4.512-2.179a5.7,5.7,0,0,1-3.385-1.093,5.262,5.262,0,0,1,1.128-3.272c1.126-1.086,1.126-1.086,2.257-1.086,1.129-1.093,1.129-4.363,1.129-4.363s4.511-2.179,4.511-1.088-1.128,4.358,1.126,3.267c1.129,0,1.129-2.179,1.129-2.179V670.24a15.638,15.638,0,0,1-2.256-3.272s-1.128-3.272,1.126-3.272h4.514a5.268,5.268,0,0,1,1.126,3.272c1.13,1.093,4.512,2.179,4.512,1.093h1.13c1.126,1.087,4.51,1.087,3.381,2.179,0,0-2.255,2.179-2.255,3.271-1.126,0-4.512-1.091-1.126,2.179,2.255,3.272,3.381,2.179,3.381,3.272a2.382,2.382,0,0,1-2.255,2.179c-1.126,0-2.256,0-2.256-1.086-1.126-1.093-1.126-2.185-2.256-2.185-2.256,0-1.126,3.272,0,3.272l6.767,2.179s-2.255,3.272-2.255,4.365c-.9,0-1.8,1.393-3.282,1.393A2.8,2.8,0,0,1,459.01,688.772Zm86.859-3.266V683.32a11.642,11.642,0,0,0,3.384-1.086l2.256,2.179a16.127,16.127,0,0,1-3.381,2.179A3.991,3.991,0,0,1,545.869,685.506Zm-14.665,0V683.32a3.994,3.994,0,0,1,2.256-1.086s1.129-1.093,1.129,0c1.13,0,2.256,1.086,1.13,2.179a3.555,3.555,0,0,1-2.259,1.093,2.477,2.477,0,0,1-1.551.815C531.486,686.321,531.2,686.049,531.2,685.506Zm20.306-1.093Zm.088-.043-.088.043Zm.011-.005-.011.005Zm0,0h0Zm.029-.014-.029.014Zm.016-.008-.016.008Zm.14-.068-.14.068Zm0,0h0Zm.32-.155-.32.155Zm0,0h0Zm.394-.191-.394.191Zm0,0Zm-76.583-6.058a2.391,2.391,0,0,1,2.259-2.179c0,1.093,1.126,1.093,1.126,2.179-1.126,1.093-1.126,2.185-2.255,2.185S475.93,677.869,475.93,677.869Zm27.077-4.358a1.473,1.473,0,0,1,0-2.179l1.126-1.091a3.758,3.758,0,0,0-1.126-2.179c1.126-1.093,3.381,0,3.381,0,0,1.087,0,2.179,1.13,1.087s1.126-2.179,2.256-3.266H510.9a5.726,5.726,0,0,0,3.385,1.086s3.386-1.086,3.386,0c0,0,2.255,3.272,1.126,3.272s-4.512-1.093-5.639-1.093-1.13,2.184-2.259,2.184c0,1.088-2.255,3.267-3.382,3.267a5.034,5.034,0,0,0-3.385,1.091S503.006,675.69,503.006,673.511ZM475.93,674.6c-1.126-2.179,0-3.267,0-3.267,1.13,0,2.259-1.091,2.259,0,0,0,3.383-1.091,1.126,1.088a26.959,26.959,0,0,0-3.32,2.607C475.93,675.027,475.93,674.891,475.93,674.6Zm19.18-4.358s-1.13-2.179,1.126-2.179h2.256c1.129,1.087,2.256,0,2.256,1.087-1.126,1.093,0,2.184-1.126,2.184A11.965,11.965,0,0,1,495.109,670.24Zm-10.152-11.994c0-1.088,1.126,0,1.126-1.088s-2.256-1.093-1.126-3.272c1.126-1.091,1.126-4.363,2.255-1.091,2.256,2.179,1.126,2.179,2.256,4.363,0,2-2.114,4-3.495,4C485.1,661.162,484.519,660.359,484.957,658.246Zm3.381-13.082ZM267.46,261.371c0,.014,0,.029,0,.043C267.337,261.387,267.326,261.371,267.46,261.371ZM427.491,66.708,421.9,64.518a6.7,6.7,0,0,1,2.238-4.371c2.238-1.094,4.475-2.188,4.475-3.282a3.277,3.277,0,0,1,0-4.378c2.238,0,2.238-2.182,5.595-2.182,2.238,1.094,3.357,1.094,3.357,3.276-1.119,2.189,0,2.189-1.119,3.284s-3.356,1.094-4.476,4.377a13.029,13.029,0,0,1-1.119,5.465c0,.365-.373.486-.87.486A10.311,10.311,0,0,1,427.491,66.708Zm-20.145-5.465c0-1.1-3.356-4.377-3.356-4.377,0-1.1-2.238-3.284,1.118-4.378,2.239-2.182,10.07-5.465,11.194-5.465a66.925,66.925,0,0,1,4.476-6.559h7.832a9.823,9.823,0,0,0,6.542,1c1.558-.394,2.634-.787,1.291,1.179-3.356,2.188-4.476,3.283-5.594,3.283-1.119,1.094-6.713,5.471-6.713,7.653-1.119,2.189,0,2.189-1.119,3.284-2.237,1.094-8.956,4.377-10.075,5.471-1.117,0-2.513.271-3.631.271S407.347,62.335,407.347,61.243Z" transform="translate(56.577 1450.115)" fill="url(#linear-gradient)"/>
      <rect id="Background" width="1052" height="968" transform="translate(-6.138 1477)" fill="none"/>
      <circle id="Ellipse_20" data-name="Ellipse 20" cx="7" cy="7" r="7" transform="translate(447.862 2148)" fill="#417da5" opacity="0.741"/>
      <ellipse id="Ellipse_21" data-name="Ellipse 21" cx="7.5" cy="7" rx="7.5" ry="7" transform="translate(442.862 2164)" fill="#417da5" opacity="0.741"/>
      <circle id="Ellipse_22" data-name="Ellipse 22" cx="7" cy="7" r="7" transform="translate(236.862 2164)" fill="#417da5" opacity="0.741"/>
      <ellipse id="Ellipse_23" data-name="Ellipse 23" cx="7" cy="7.5" rx="7" ry="7.5" transform="translate(431.862 2152)" fill="#417da5" opacity="0.741"/>
      <circle id="Ellipse_24" data-name="Ellipse 24" cx="7.5" cy="7.5" r="7.5" transform="translate(425.862 2167)" fill="#417da5" opacity="0.741"/>
    </g>
  </g>
</svg>
