<svg xmlns="http://www.w3.org/2000/svg" width="350" height="200" viewBox="0 0 350 200">
  <g id="safespring-kubernetes" transform="translate(-200 -242)">
    <g id="Group_162" data-name="Group 162" transform="translate(10)">
      <rect id="Rectangle_285" data-name="Rectangle 285" width="350" height="200" transform="translate(190 242)" fill="#ebf5fa"/>
    </g>
    <g id="Group_163" data-name="Group 163" transform="translate(261.981 322.907)">
      <path id="Path_4856" data-name="Path 4856" d="M36.293,8.551a2.944,2.944,0,0,0-1.455-1.683L20.966.227A2.545,2.545,0,0,0,19.829,0a4.8,4.8,0,0,0-1.137.091L4.82,6.777A2.444,2.444,0,0,0,3.455,8.46L.044,23.423a2.869,2.869,0,0,0,.5,2.183l9.6,11.871a3.311,3.311,0,0,0,2.092.955H27.515a2.267,2.267,0,0,0,2.092-.955l9.6-11.871a3.106,3.106,0,0,0,.546-2.183Z" fill="#195f8c"/>
      <path id="Path_4857" data-name="Path 4857" d="M39.86,28.655h0c-.045,0-.091,0-.091-.045s-.091-.045-.182-.045a2.214,2.214,0,0,0-.546-.045.577.577,0,0,1-.273-.045h-.045a9.191,9.191,0,0,1-1.546-.273.549.549,0,0,1-.318-.318h0l-.364-.091a11.862,11.862,0,0,0-.182-4,12.321,12.321,0,0,0-1.592-3.729l.273-.273h0V19.74a.635.635,0,0,1,.136-.409,8.146,8.146,0,0,1,1.273-.91h0l.273-.136c.182-.091.318-.182.5-.273.045-.045.091-.045.136-.091s0-.045,0-.091h0a.89.89,0,0,0,.182-1.273.869.869,0,0,0-.637-.318,1.087,1.087,0,0,0-.637.227h0l-.045.045c-.045.045-.091.091-.136.091a2.942,2.942,0,0,0-.364.409c-.045.091-.136.136-.182.182h0a5.98,5.98,0,0,1-1.137,1,.646.646,0,0,1-.273.091.273.273,0,0,1-.182-.045h-.045l-.364.227c-.364-.364-.773-.728-1.137-1.092a11.654,11.654,0,0,0-5.913-2.365l-.045-.364h0v.045a.625.625,0,0,1-.227-.364,9.086,9.086,0,0,1,.091-1.546v-.045c0-.091.045-.182.045-.273.045-.182.045-.364.091-.546v-.273h0a.9.9,0,0,0-.773-.955.912.912,0,0,0-.773.318.9.9,0,0,0-.273.637h0v.227a2.283,2.283,0,0,0,.091.546.577.577,0,0,1,.045.273v.045a8.571,8.571,0,0,1,.091,1.546.625.625,0,0,1-.227.364v.091h0l-.045.364c-.5.045-1,.136-1.546.227a10.842,10.842,0,0,0-5.594,3.184l-.273-.182h-.045c-.045,0-.091.045-.182.045a.646.646,0,0,1-.273-.091,8.386,8.386,0,0,1-1.137-1.046h0c-.045-.091-.136-.136-.182-.182-.136-.136-.227-.273-.364-.409-.045-.045-.091-.045-.136-.091l-.045-.045h0a1.087,1.087,0,0,0-.637-.227.688.688,0,0,0-.637.318.978.978,0,0,0,.182,1.273h0a.045.045,0,0,1,.045.045s.091.091.136.091a4.961,4.961,0,0,0,.5.273l.273.136h0a6.457,6.457,0,0,1,1.273.91.458.458,0,0,1,.136.409v-.045h0l.273.273c-.045.091-.091.136-.136.227a10.8,10.8,0,0,0-1.592,7.459l-.364.091h0a.045.045,0,0,1-.045.045.717.717,0,0,1-.318.318,8.448,8.448,0,0,1-1.546.273h0a.577.577,0,0,0-.273.045c-.182,0-.364.045-.546.045-.045,0-.091.045-.182.045-.045,0-.045,0-.091.045h0a.888.888,0,0,0-.728,1.046h0a.844.844,0,0,0,.91.637.41.41,0,0,0,.227-.045h0c.045,0,.045,0,.045-.045s.136,0,.182,0c.182-.045.364-.136.5-.182a.646.646,0,0,1,.273-.091h.045a8.108,8.108,0,0,1,1.5-.409h.045a.516.516,0,0,1,.364.136.045.045,0,0,1,.045.045h0l.409-.045a10.978,10.978,0,0,0,3.729,5.321,7.213,7.213,0,0,0,1.228.819l-.227.318h0a.045.045,0,0,0,.045.045.538.538,0,0,1,.045.455,7.463,7.463,0,0,1-.728,1.319v.045a.8.8,0,0,1-.182.227c-.091.091-.182.273-.318.455-.045.045-.045.091-.091.136a.045.045,0,0,1-.045.045h0a.936.936,0,0,0,.364,1.228.843.843,0,0,0,.318.091,1.019,1.019,0,0,0,.864-.546h0a.045.045,0,0,1,.045-.045c0-.045.045-.091.091-.136.045-.182.136-.318.182-.5l.091-.273h0a7.7,7.7,0,0,1,.591-1.41.707.707,0,0,1,.364-.273c.045,0,.045,0,.045-.045h0l.182-.364a10.706,10.706,0,0,0,3.957.728,9.107,9.107,0,0,0,2.456-.318,13.588,13.588,0,0,0,1.455-.409l.182.318h0c.045,0,.045,0,.045.045a.707.707,0,0,1,.364.273,7.7,7.7,0,0,1,.591,1.41v.045l.091.273a1.629,1.629,0,0,0,.182.5c.045.045.045.091.091.136a.045.045,0,0,0,.045.045h0a1.019,1.019,0,0,0,.864.546,1.07,1.07,0,0,0,.364-.091.761.761,0,0,0,.409-.5,1.17,1.17,0,0,0-.045-.682h0a.045.045,0,0,0-.045-.045c0-.045-.045-.091-.091-.136a1.633,1.633,0,0,0-.318-.455.8.8,0,0,0-.182-.227v-.091a5.374,5.374,0,0,1-.728-1.319.538.538,0,0,1,.045-.455.045.045,0,0,1,.045-.045h0l-.136-.364a11.242,11.242,0,0,0,4.912-6.186l.364.045h0a.045.045,0,0,0,.045-.045.516.516,0,0,1,.364-.136h.045a7.647,7.647,0,0,1,1.455.409H38.5a.646.646,0,0,0,.273.091,2.438,2.438,0,0,0,.5.227c.045,0,.091.045.182.045.045,0,.045,0,.091.045h0a.41.41,0,0,0,.227.045.989.989,0,0,0,.91-.637,1.072,1.072,0,0,0-.819-.955Zm-13.144-1.41-1.228.591-1.228-.591-.318-1.319.864-1.092H26.17l.864,1.092Zm7.414-2.956a8.707,8.707,0,0,1,.182,2.865l-4.321-1.228h0a.744.744,0,0,1-.546-.91.733.733,0,0,1,.182-.318L33.038,21.6a9.253,9.253,0,0,1,1.092,2.683Zm-2.456-4.366-3.73,2.637a.773.773,0,0,1-1-.182.413.413,0,0,1-.136-.318l-.273-4.594a8.559,8.559,0,0,1,5.139,2.456ZM23.441,17.6l.91-.182-.227,4.548h0a.758.758,0,0,1-.773.728,1.07,1.07,0,0,1-.364-.091L19.212,19.92a9.032,9.032,0,0,1,4.23-2.32Zm-5.549,4,3.366,3h0a.731.731,0,0,1,.091,1.046.512.512,0,0,1-.364.227l-4.412,1.273A9.574,9.574,0,0,1,17.892,21.6Zm-.773,7.686,4.5-.773a.745.745,0,0,1,.773.591.538.538,0,0,1-.045.455h0l-1.728,4.184a8.947,8.947,0,0,1-3.5-4.457Zm10.324,5.64a9.2,9.2,0,0,1-1.956.227,10.193,10.193,0,0,1-2.865-.455l2.229-4.048a.705.705,0,0,1,.91-.182,2.278,2.278,0,0,1,.364.318h0l2.183,3.957a7.39,7.39,0,0,0-.864.188Zm5.549-3.957A8.685,8.685,0,0,1,30.263,33.7L28.49,29.428a.74.74,0,0,1,.409-.864,1.328,1.328,0,0,1,.409-.091l4.548.773a6.829,6.829,0,0,1-.864,1.728Z" transform="translate(-5.704 -5.823)" fill="#fff"/>
      <path id="Path_4858" data-name="Path 4858" d="M282.943,36.059a4.54,4.54,0,0,0,1.91-.273,1.012,1.012,0,0,0,.546-1,1.149,1.149,0,0,0-.728-1,9.827,9.827,0,0,0-2.229-1,18.045,18.045,0,0,1-2.092-.91,6.2,6.2,0,0,1-1.592-1.092,4.316,4.316,0,0,1-1-1.546,5.717,5.717,0,0,1-.364-2.138,4.721,4.721,0,0,1,1.819-3.866,7.833,7.833,0,0,1,4.958-1.41,13.876,13.876,0,0,1,3.047.318,14.469,14.469,0,0,1,2.32.591l-.864,3.866c-.637-.227-1.228-.364-1.865-.546a9.276,9.276,0,0,0-2.229-.227c-1.546,0-2.32.409-2.32,1.273a2.283,2.283,0,0,0,.091.546,1.29,1.29,0,0,0,.409.455,8.828,8.828,0,0,0,.773.455,7.735,7.735,0,0,0,1.319.546,17.256,17.256,0,0,1,2.638,1.183,4.98,4.98,0,0,1,1.637,1.273,3.527,3.527,0,0,1,.864,1.5,6.923,6.923,0,0,1,.273,1.91,4.364,4.364,0,0,1-1.956,3.911A9.67,9.67,0,0,1,282.85,40.2a13.809,13.809,0,0,1-3.866-.409c-.728-.182-1.41-.409-2.092-.637l.819-4a16.455,16.455,0,0,0,2.547.773c.91.045,1.774.136,2.683.136m-25.06-5a10.9,10.9,0,0,1,.682-4,8.611,8.611,0,0,1,1.865-2.911,7.186,7.186,0,0,1,2.638-1.728,8.126,8.126,0,0,1,3.093-.591,7.637,7.637,0,0,1,5.822,2.274c1.41,1.5,2.138,3.729,2.138,6.64a7.379,7.379,0,0,1-.046.955c0,.364-.046.637-.046.91h-11.1a3.27,3.27,0,0,0,1.41,2.411,5.871,5.871,0,0,0,3.366.91,17.215,17.215,0,0,0,2.638-.227,9,9,0,0,0,2.138-.682l.682,4a7.144,7.144,0,0,1-1.046.409,8.834,8.834,0,0,1-1.5.318c-.546.091-1.092.182-1.728.273-.591.045-1.228.091-1.865.091a10.478,10.478,0,0,1-4.093-.682,7.348,7.348,0,0,1-4.548-4.73,14.594,14.594,0,0,1-.5-3.639M269.388,29.2a3.9,3.9,0,0,0-.227-1.228,2.875,2.875,0,0,0-.546-1.046,3.113,3.113,0,0,0-.955-.773,3.281,3.281,0,0,0-2.82,0,3.145,3.145,0,0,0-1,.728,3.283,3.283,0,0,0-.637,1.092,5.954,5.954,0,0,0-.273,1.228h6.458M244.557,17.911l4.912-.773v5.094h5.913v4.093h-5.913V32.42a4.543,4.543,0,0,0,.546,2.456,2.411,2.411,0,0,0,2.229.91,9.018,9.018,0,0,0,1.592-.136,8.584,8.584,0,0,0,1.546-.409l.682,3.82a14.65,14.65,0,0,1-2,.637,13.1,13.1,0,0,1-2.683.273,8.228,8.228,0,0,1-3.32-.546,5.368,5.368,0,0,1-2.092-1.5,6.344,6.344,0,0,1-1.137-2.365,11.528,11.528,0,0,1-.273-3.047v-14.6M224.681,31.056a10.9,10.9,0,0,1,.682-4,8.61,8.61,0,0,1,1.865-2.911,7.186,7.186,0,0,1,2.638-1.728,8.126,8.126,0,0,1,3.093-.591A7.637,7.637,0,0,1,238.78,24.1c1.41,1.5,2.138,3.729,2.138,6.64a7.384,7.384,0,0,1-.046.955,6.733,6.733,0,0,0-.045.91H229.684a3.27,3.27,0,0,0,1.41,2.411,5.871,5.871,0,0,0,3.366.91A17.215,17.215,0,0,0,237.1,35.7a10.072,10.072,0,0,0,2.183-.682l.682,4a7.147,7.147,0,0,1-1.046.409,8.834,8.834,0,0,1-1.5.318c-.546.091-1.092.182-1.728.273-.591.045-1.228.091-1.865.091a10.478,10.478,0,0,1-4.093-.682,7.349,7.349,0,0,1-4.548-4.73,11.33,11.33,0,0,1-.5-3.639m11.507-1.865a3.9,3.9,0,0,0-.227-1.228,2.877,2.877,0,0,0-.546-1.046,3.113,3.113,0,0,0-.955-.773,3.281,3.281,0,0,0-2.82,0,2.967,2.967,0,0,0-.955.728,3.282,3.282,0,0,0-.637,1.092,5.959,5.959,0,0,0-.273,1.228h6.413m-30.154-6.367c1.046-.273,2.138-.5,3.229-.682a25.374,25.374,0,0,1,4.139-.318,10.013,10.013,0,0,1,3.639.591,5.193,5.193,0,0,1,2.32,1.592,6.44,6.44,0,0,1,1.228,2.5,12.794,12.794,0,0,1,.364,3.229v9.779h-4.867V30.373a6.741,6.741,0,0,0-.637-3.366,2.568,2.568,0,0,0-2.32-1,9.894,9.894,0,0,0-1.137.045,6.893,6.893,0,0,0-1.046.091V39.515h-4.912V22.823M202.577,26.6c-.455-.091-.955-.227-1.546-.318a9.061,9.061,0,0,0-1.91-.182,10.4,10.4,0,0,0-1.137.091,7.062,7.062,0,0,0-.955.182V39.606h-4.912V23.142a23.955,23.955,0,0,1,3.093-.864,14.973,14.973,0,0,1,4-.409c.318,0,.637.045.955.045a5.158,5.158,0,0,1,1.137.136c.364.045.728.091,1.137.182a3.776,3.776,0,0,1,.955.273l-.819,4.093m-30.518,4.457a10.9,10.9,0,0,1,.682-4,8.611,8.611,0,0,1,1.865-2.911,7.186,7.186,0,0,1,2.638-1.728,8.125,8.125,0,0,1,3.093-.591,7.637,7.637,0,0,1,5.822,2.274c1.41,1.5,2.138,3.729,2.138,6.595a7.384,7.384,0,0,1-.045.955,6.731,6.731,0,0,0-.045.91H177.062a3.27,3.27,0,0,0,1.41,2.411,5.871,5.871,0,0,0,3.366.91,17.215,17.215,0,0,0,2.638-.227,11.563,11.563,0,0,0,2.138-.637l.682,4a7.147,7.147,0,0,1-1.046.409,8.833,8.833,0,0,1-1.5.318c-.546.091-1.092.182-1.728.273-.591.045-1.228.091-1.865.091a10.478,10.478,0,0,1-4.093-.682,7.348,7.348,0,0,1-4.548-4.73,16.6,16.6,0,0,1-.455-3.639m11.552-1.865a3.9,3.9,0,0,0-.227-1.228,2.877,2.877,0,0,0-.546-1.046,3.113,3.113,0,0,0-.955-.773,3.281,3.281,0,0,0-2.82,0,3.145,3.145,0,0,0-1,.728,3.282,3.282,0,0,0-.637,1.092,5.958,5.958,0,0,0-.273,1.228h6.458M164.1,30.783c0-3.184-1.183-4.73-3.5-4.73a5.65,5.65,0,0,0-1.5.182,3.86,3.86,0,0,0-1.183.5v8.914c.227.045.546.091.91.136a10.29,10.29,0,0,0,1.228.045,3.472,3.472,0,0,0,3.047-1.364,6.519,6.519,0,0,0,1-3.684m5,.182a10.8,10.8,0,0,1-.637,3.775,7.687,7.687,0,0,1-1.728,2.865,8.247,8.247,0,0,1-2.82,1.865,10.873,10.873,0,0,1-3.82.637c-.591,0-1.228-.045-1.865-.091s-1.273-.136-1.91-.182c-.591-.091-1.183-.182-1.774-.318a5.942,5.942,0,0,1-1.5-.409V14.773L157.959,14v8.642a10.921,10.921,0,0,1,1.728-.546,9.061,9.061,0,0,1,1.91-.182,7.432,7.432,0,0,1,3.275.682,6.611,6.611,0,0,1,2.365,1.819,7.78,7.78,0,0,1,1.455,2.865,16.043,16.043,0,0,1,.409,3.684m-20.74,8a31.578,31.578,0,0,1-7.368.955,10.1,10.1,0,0,1-3.684-.591,6,6,0,0,1-2.32-1.637,6.821,6.821,0,0,1-1.228-2.592,13.151,13.151,0,0,1-.364-3.275v-9.6h4.912v9.051a6.943,6.943,0,0,0,.637,3.411,2.49,2.49,0,0,0,2.32,1.046,9.893,9.893,0,0,0,1.137-.045,6.509,6.509,0,0,0,1.046-.136V22.232h4.912V38.969m-28.652-10.46c.5-.546.955-1.092,1.5-1.637.5-.591,1-1.137,1.5-1.683.5-.591.955-1.092,1.364-1.592s.819-.955,1.137-1.319h5.822c-1.183,1.319-2.32,2.638-3.411,3.866-1.137,1.228-2.32,2.5-3.639,3.775a22.724,22.724,0,0,1,2.047,2.138c.682.819,1.364,1.637,2.047,2.547.637.864,1.273,1.774,1.819,2.638s1,1.683,1.364,2.411h-5.64c-.364-.591-.773-1.183-1.228-1.865s-.955-1.364-1.41-2.092a22.48,22.48,0,0,0-1.637-2,10.81,10.81,0,0,0-1.637-1.592v7.6H114.8V14.773L119.709,14V28.509" transform="translate(-62.586 -7.633)" fill="#195f8c"/>
    </g>
    <rect id="Rectangle_291" data-name="Rectangle 291" width="350" height="200" transform="translate(200 242)" fill="#ebf5fa"/>
  </g>
</svg>
