<svg xmlns="http://www.w3.org/2000/svg" xmlns:xlink="http://www.w3.org/1999/xlink" width="800" height="800" viewBox="0 0 800 800"><defs><radialGradient id="radial-gradient" cx="2.411" cy="1.417" r="2.475" gradientTransform="matrix(1 0 0 .963 0 -.007)" gradientUnits="objectBoundingBox"><stop offset="0" stop-color="#32cd32"/><stop offset="1" stop-color="#eafcea"/></radialGradient><radialGradient id="radial-gradient-2" cx="0.5" cy="0.5" r="0.5" gradientUnits="objectBoundingBox"><stop offset="0" stop-color="#fff"/><stop offset="1" stop-color="#fff" stop-opacity="0"/></radialGradient><clipPath id="clip-Backup"><path d="M0 0h800v800H0z"/></clipPath></defs><g id="Backup" clip-path="url(#clip-Backup)"><path fill="url(#radial-gradient)" d="M0 0h800v800H0z"/><circle id="Ellipse_51" cx="322" cy="322" r="322" fill="url(#radial-gradient-2)" opacity="0.888" transform="translate(-111 54)"/><g id="Bubbla" transform="translate(474.758 267.859)"><circle id="Ellipse_53" cx="154" cy="154" r="154" fill="#e0e0e0" style="mix-blend-mode:color-burn;isolation:isolate" transform="translate(.242 .141)"/><path id="cloud-arrow-up" fill="#e0e0e0" d="M51.47 192.13A51.48 51.48 0 0 1 34.4 92.1q-.08-1.45-.08-2.9a57.2 57.2 0 0 1 106.77-28.52 31.8 31.8 0 0 1 19.05-5.8 34.1 34.1 0 0 1 34.32 34.32 35 35 0 0 1-2.3 12.37 45.75 45.75 0 0 1-9.14 90.57Zm28.24-77.56a8.26 8.26 0 0 0 0 11.83 7.76 7.76 0 0 0 11.83 0l14.26-13.65v47.93a8.58 8.58 0 0 0 17.16 0v-47.93l13.94 13.65a8.37 8.37 0 1 0 11.83-11.83l-28.6-28.6a8.26 8.26 0 0 0-11.83 0Z" style="mix-blend-mode:color-burn;isolation:isolate" transform="translate(40.242 30.141)"/></g></g></svg>