<svg xmlns="http://www.w3.org/2000/svg" xmlns:xlink="http://www.w3.org/1999/xlink" width="800" height="800" viewBox="0 0 800 800">
  <defs>
    <radialGradient id="radial-gradient" cx="2.411" cy="1.417" r="2.475" gradientTransform="translate(0 -0.007) scale(1 0.963)" gradientUnits="objectBoundingBox">
      <stop offset="0" stop-color="#fa690f"/>
      <stop offset="1" stop-color="#fffbf8"/>
    </radialGradient>
    <radialGradient id="radial-gradient-2" cx="0.5" cy="0.5" r="0.5" gradientUnits="objectBoundingBox">
      <stop offset="0" stop-color="#fff"/>
      <stop offset="1" stop-color="#fff" stop-opacity="0"/>
    </radialGradient>
    <clipPath id="clip-path">
      <rect id="Rectangle_317" data-name="Rectangle 317" width="149" height="149" fill="#c6c6c6"/>
    </clipPath>
    <clipPath id="clip-path-2">
      <rect id="Rectangle_318" data-name="Rectangle 318" width="89" height="89" transform="translate(0.418 0.418)" fill="#c6c6c6"/>
    </clipPath>
    <clipPath id="clip-path-4">
      <rect id="Rectangle_320" data-name="Rectangle 320" width="33" height="33" transform="translate(0.078 0.078)" fill="#c6c6c6"/>
    </clipPath>
    <clipPath id="clip-safespring-storage-background">
      <rect width="800" height="800"/>
    </clipPath>
  </defs>
  <g id="safespring-storage-background" clip-path="url(#clip-safespring-storage-background)">
    <rect width="800" height="800" fill="url(#radial-gradient)"/>
    <circle id="Ellipse_45" data-name="Ellipse 45" cx="163.5" cy="163.5" r="163.5" transform="translate(523 42)" fill="#e0e0e0" style="mix-blend-mode: color-burn;isolation: isolate"/>
    <circle id="Ellipse_51" data-name="Ellipse 51" cx="322" cy="322" r="322" transform="translate(-111 54)" opacity="0.888" fill="url(#radial-gradient-2)"/>
    <g id="a" transform="translate(612 131)" clip-path="url(#clip-path)" style="mix-blend-mode: color-burn;isolation: isolate">
      <path id="Path_5549" data-name="Path 5549" d="M28.3,82.135c25.608,0,38.031-12.72,38.031-27.607,0-32.693-52.071-21.386-52.071-37.78,0-5.579,4.733-10.173,17.025-10.173a50.872,50.872,0,0,1,24.836,6.992l6.369-15.64A60.44,60.44,0,0,0,31.375-9.957c-25.478,0-37.8,12.59-37.8,27.728,0,33.075,52.071,21.628,52.071,38.291,0,5.467-4.993,9.54-17.286,9.54A53,53,0,0,1-1.216,56.3L-8.19,71.833A64.159,64.159,0,0,0,28.3,82.135Zm87.963-54.266L136.485,4.93V-8.394H73.748V8.138h38.124L93.47,28.8V42.412h9.475c11.781,0,16.737,4.194,16.737,10.935,0,7.253-6.4,11.446-16.737,11.446a43.7,43.7,0,0,1-25.608-8.015L69.266,72.6a61.918,61.918,0,0,0,34.19,9.54c25.478,0,37.129-13.734,37.129-28.751a25.357,25.357,0,0,0-24.325-25.515Z" transform="translate(8.19 38.298)" fill="#c6c6c6"/>
    </g>
    <circle id="Ellipse_52" data-name="Ellipse 52" cx="98.5" cy="98.5" r="98.5" transform="translate(359 258)" fill="#e0e0e0" style="mix-blend-mode: color-burn;isolation: isolate"/>
    <g id="a-2" data-name="a" transform="translate(412.582 311.582)" clip-path="url(#clip-path-2)" style="mix-blend-mode: color-burn;isolation: isolate">
      <path id="Path_5550" data-name="Path 5550" d="M13.777,45.482c15.417,0,22.9-7.658,22.9-16.621,0-19.683-31.349-12.876-31.349-22.745,0-3.359,2.849-6.124,10.25-6.124A30.627,30.627,0,0,1,30.527,4.2l3.835-9.416A36.388,36.388,0,0,0,15.63-9.962C.291-9.962-7.126-2.382-7.126,6.732c0,19.913,31.349,13.021,31.349,23.053,0,3.292-3.006,5.744-10.407,5.744a31.909,31.909,0,0,1-17.808-5.6l-4.2,9.349a38.627,38.627,0,0,0,21.967,6.2ZM66.735,12.811,78.911-1V-9.021H41.141V.932H64.093L53.014,13.371v8.2h5.7c7.093,0,10.077,2.525,10.077,6.583,0,4.367-3.852,6.891-10.077,6.891A26.311,26.311,0,0,1,43.3,30.216l-4.859,9.522a37.278,37.278,0,0,0,20.584,5.744c15.339,0,22.353-8.268,22.353-17.309A15.266,15.266,0,0,0,66.735,12.811Z" transform="translate(8.19 27.025)" fill="#c6c6c6"/>
    </g>
    <circle id="Ellipse_53" data-name="Ellipse 53" cx="98.5" cy="98.5" r="98.5" transform="translate(527 365)" fill="#e0e0e0" style="mix-blend-mode: color-burn;isolation: isolate"/>
    <g id="a-3" data-name="a" transform="translate(580.582 418.582)" clip-path="url(#clip-path-2)" style="mix-blend-mode: color-burn;isolation: isolate">
      <path id="Path_5551" data-name="Path 5551" d="M13.777,45.482c15.417,0,22.9-7.658,22.9-16.621,0-19.683-31.349-12.876-31.349-22.745,0-3.359,2.849-6.124,10.25-6.124A30.627,30.627,0,0,1,30.527,4.2l3.835-9.416A36.388,36.388,0,0,0,15.63-9.962C.291-9.962-7.126-2.382-7.126,6.732c0,19.913,31.349,13.021,31.349,23.053,0,3.292-3.006,5.744-10.407,5.744a31.909,31.909,0,0,1-17.808-5.6l-4.2,9.349a38.627,38.627,0,0,0,21.967,6.2ZM66.735,12.811,78.911-1V-9.021H41.141V.932H64.093L53.014,13.371v8.2h5.7c7.093,0,10.077,2.525,10.077,6.583,0,4.367-3.852,6.891-10.077,6.891A26.311,26.311,0,0,1,43.3,30.216l-4.859,9.522a37.278,37.278,0,0,0,20.584,5.744c15.339,0,22.353-8.268,22.353-17.309A15.266,15.266,0,0,0,66.735,12.811Z" transform="translate(8.19 27.025)" fill="#c6c6c6"/>
    </g>
    <circle id="Ellipse_54" data-name="Ellipse 54" cx="36.5" cy="36.5" r="36.5" transform="translate(710 363)" fill="#e0e0e0" style="mix-blend-mode: color-burn;isolation: isolate"/>
    <g id="a-4" data-name="a" transform="translate(729.922 382.922)" clip-path="url(#clip-path-4)" style="mix-blend-mode: color-burn;isolation: isolate">
      <path id="Path_5552" data-name="Path 5552" d="M-.086,10.488c5.688,0,8.447-2.825,8.447-6.132C8.361-2.905-3.2-.394-3.2-4.035c0-1.239,1.051-2.259,3.781-2.259A11.3,11.3,0,0,1,6.093-4.741L7.508-8.215A13.424,13.424,0,0,0,.6-9.967c-5.659,0-8.4,2.8-8.4,6.159C-7.8,3.538,3.768,1,3.768,4.7c0,1.214-1.109,2.119-3.839,2.119A11.772,11.772,0,0,1-6.641,4.75L-8.19,8.2a14.25,14.25,0,0,0,8.1,2.288ZM19.451-1.565,23.943-6.66V-9.62H10.009v3.672h8.468L14.389-1.359V1.665h2.1c2.617,0,3.717.931,3.717,2.429,0,1.611-1.421,2.542-3.717,2.542a9.707,9.707,0,0,1-5.688-1.78L9.014,8.369a13.753,13.753,0,0,0,7.594,2.119c5.659,0,8.247-3.05,8.247-6.386a5.632,5.632,0,0,0-5.4-5.667Z" transform="translate(8.036 16.107)" fill="#c6c6c6"/>
    </g>
    <circle id="Ellipse_55" data-name="Ellipse 55" cx="36.5" cy="36.5" r="36.5" transform="translate(455 454)" fill="#e0e0e0" style="mix-blend-mode: color-burn;isolation: isolate"/>
    <g id="a-5" data-name="a" transform="translate(474.922 473.922)" clip-path="url(#clip-path-4)" style="mix-blend-mode: color-burn;isolation: isolate">
      <path id="Path_5553" data-name="Path 5553" d="M-.086,10.488c5.688,0,8.447-2.825,8.447-6.132C8.361-2.905-3.2-.394-3.2-4.035c0-1.239,1.051-2.259,3.781-2.259A11.3,11.3,0,0,1,6.093-4.741L7.508-8.215A13.424,13.424,0,0,0,.6-9.967c-5.659,0-8.4,2.8-8.4,6.159C-7.8,3.538,3.768,1,3.768,4.7c0,1.214-1.109,2.119-3.839,2.119A11.772,11.772,0,0,1-6.641,4.75L-8.19,8.2a14.25,14.25,0,0,0,8.1,2.288ZM19.451-1.565,23.943-6.66V-9.62H10.009v3.672h8.468L14.389-1.359V1.665h2.1c2.617,0,3.717.931,3.717,2.429,0,1.611-1.421,2.542-3.717,2.542a9.707,9.707,0,0,1-5.688-1.78L9.014,8.369a13.753,13.753,0,0,0,7.594,2.119c5.659,0,8.247-3.05,8.247-6.386a5.632,5.632,0,0,0-5.4-5.667Z" transform="translate(8.036 16.107)" fill="#c6c6c6"/>
    </g>
    <circle id="Ellipse_56" data-name="Ellipse 56" cx="36.5" cy="36.5" r="36.5" transform="translate(447 187)" fill="#e0e0e0" style="mix-blend-mode: color-burn;isolation: isolate"/>
    <g id="a-6" data-name="a" transform="translate(466.922 206.922)" clip-path="url(#clip-path-4)" style="mix-blend-mode: color-burn;isolation: isolate">
      <path id="Path_5554" data-name="Path 5554" d="M-.086,10.488c5.688,0,8.447-2.825,8.447-6.132C8.361-2.905-3.2-.394-3.2-4.035c0-1.239,1.051-2.259,3.781-2.259A11.3,11.3,0,0,1,6.093-4.741L7.508-8.215A13.424,13.424,0,0,0,.6-9.967c-5.659,0-8.4,2.8-8.4,6.159C-7.8,3.538,3.768,1,3.768,4.7c0,1.214-1.109,2.119-3.839,2.119A11.772,11.772,0,0,1-6.641,4.75L-8.19,8.2a14.25,14.25,0,0,0,8.1,2.288ZM19.451-1.565,23.943-6.66V-9.62H10.009v3.672h8.468L14.389-1.359V1.665h2.1c2.617,0,3.717.931,3.717,2.429,0,1.611-1.421,2.542-3.717,2.542a9.707,9.707,0,0,1-5.688-1.78L9.014,8.369a13.753,13.753,0,0,0,7.594,2.119c5.659,0,8.247-3.05,8.247-6.386a5.632,5.632,0,0,0-5.4-5.667Z" transform="translate(8.036 16.107)" fill="#c6c6c6"/>
    </g>
  </g>
</svg>
