<svg xmlns="http://www.w3.org/2000/svg" xmlns:xlink="http://www.w3.org/1999/xlink" width="800" height="800" viewBox="0 0 800 800"><defs><radialGradient id="radial-gradient" cx="2.411" cy="1.417" r="2.475" gradientTransform="matrix(1 0 0 .963 0 -.007)" gradientUnits="objectBoundingBox"><stop offset="0" stop-color="#3c9bcd"/><stop offset="1" stop-color="#e7eff3"/></radialGradient><radialGradient id="radial-gradient-2" cx="0.5" cy="0.5" r="0.5" gradientUnits="objectBoundingBox"><stop offset="0" stop-color="#fff"/><stop offset="1" stop-color="#fff" stop-opacity="0"/></radialGradient><clipPath id="clip-path"><path id="Rectangle_6" fill="#c6c6c6" d="M0 0h99v99H0z" transform="translate(708.604 199.604)"/></clipPath><clipPath id="clip-path-3"><path id="Rectangle_319" fill="#c6c6c6" d="M0 0h97v97H0z"/></clipPath><clipPath id="clip-path-4"><path id="Rectangle_323" fill="#c6c6c6" d="M0 0h51v51H0z" transform="translate(565 200)"/></clipPath><clipPath id="clip-safespring-government-background"><path d="M0 0h800v800H0z"/></clipPath></defs><g id="safespring-government-background" clip-path="url(#clip-safespring-government-background)"><path fill="url(#radial-gradient)" d="M0 0h800v800H0z"/><circle id="Ellipse_51" cx="322" cy="322" r="322" fill="url(#radial-gradient-2)" opacity="0.888" transform="translate(-77 -13)"/><g id="Bubbla" transform="translate(0 -233.156)"><circle id="Ellipse_53" cx="215" cy="215" r="215" fill="#e0e0e0" style="mix-blend-mode:color-burn;isolation:isolate" transform="translate(527 365.156)"/></g><g id="Bubbla-2" transform="translate(94 205.844)"><circle id="Ellipse_53-2" cx="107.5" cy="107.5" r="107.5" fill="#e0e0e0" style="mix-blend-mode:color-burn;isolation:isolate" transform="translate(527 365.156)"/><g id="Mask_Group_3" clip-path="url(#clip-path)" style="mix-blend-mode:color-burn;isolation:isolate" transform="translate(-123.604 215.552)"><path id="user-lock-solid" fill="#c6c6c6" d="M34.37 39.28a19.64 19.64 0 1 0-19.64-19.64 19.64 19.64 0 0 0 19.64 19.64M49.1 49.1a10 10 0 0 1 1.24-4.68 21 21 0 0 0-2.22-.23h-2.56a26.7 26.7 0 0 1-22.37 0h-2.57A20.63 20.63 0 0 0 0 64.81v6.39a7.37 7.37 0 0 0 7.37 7.37h43.1a10 10 0 0 1-1.37-4.91Zm44.2-4.9h-4.91V31.91a12.28 12.28 0 1 0-24.55 0v12.27h-4.91a4.9 4.9 0 0 0-4.91 4.91v24.56a4.9 4.9 0 0 0 4.9 4.9H93.3a4.9 4.9 0 0 0 4.91-4.9V49.1a4.9 4.9 0 0 0-4.91-4.9M76.11 66.3a4.91 4.91 0 1 1 4.91-4.92 4.9 4.9 0 0 1-4.9 4.91Zm4.91-22.1H71.2V31.91a4.91 4.91 0 0 1 9.82 0Z" transform="translate(709 209.821)"/></g></g><g id="Bubbla-3" transform="translate(-110 121.844)"><circle id="Ellipse_53-3" cx="107.5" cy="107.5" r="107.5" fill="#e0e0e0" style="mix-blend-mode:color-burn;isolation:isolate" transform="translate(527 365.156)"/><g id="private_cloud" style="mix-blend-mode:color-burn;isolation:isolate" transform="translate(584.697 429.566)"><path id="Path_144" fill="#c6c6c6" d="M116.27 136.1a2.1 2.1 0 0 0-2.73 0l-5.93 4.74a4 4 0 0 1-2.57.9h-7.59a1.03 1.03 0 1 1 0-2.05h5.02a2.1 2.1 0 0 0 2.13-1.71 2.05 2.05 0 0 0-2.02-2.4H92.32a7.6 7.6 0 0 0-4.76 1.68l-2.98 2.4h-3.56a1.03 1.03 0 0 0-1.02 1.05v6.16a1.03 1.03 0 0 0 1.03 1.03h22.9a4 4 0 0 0 2.56-.9l9.71-7.77a2.05 2.05 0 0 0 .08-3.13Z" transform="translate(-47.9 -81.187)"/><path id="Path_145" fill="#c6c6c6" d="M26.43 76.19a3.07 3.07 0 0 0 3.06-3.3 3.1 3.1 0 0 0-3.11-2.84h.05a20.28 20.28 0 1 1 0-40.56 3.1 3.1 0 0 0 3.08-3.09 20.28 20.28 0 0 1 40.56 0 3.1 3.1 0 0 0 3.08 3.09 20.28 20.28 0 0 1 .04 40.56 3.13 3.13 0 0 0-3.11 2.85 3.07 3.07 0 0 0 3.06 3.3 26.42 26.42 0 0 0 2.9-52.7 26.42 26.42 0 0 0-52.52 0 26.42 26.42 0 0 0 2.92 52.69Z"/><path id="Path_146" fill="#c6c6c6" d="M117.73 85.93H99.8a1.3 1.3 0 0 1-1.28-1.28v-2.57a1.3 1.3 0 0 1 1.28-1.28h17.93a1.3 1.3 0 0 1 1.28 1.28v2.56a1.3 1.3 0 0 1-1.28 1.29m-1.92-3.53a.96.96 0 1 0 .96.96.96.96 0 0 0-.96-.96m-2.56 0a.96.96 0 1 0 .96.96.96.96 0 0 0-.96-.96m4.48 9.93H99.8a1.3 1.3 0 0 1-1.28-1.28V88.5a1.3 1.3 0 0 1 1.28-1.28h17.93a1.3 1.3 0 0 1 1.28 1.28v2.56a1.3 1.3 0 0 1-1.28 1.27m-1.92-3.53a.96.96 0 1 0 .96.97.96.96 0 0 0-.96-.96Zm-2.56 0a.96.96 0 1 0 .96.97.96.96 0 0 0-.96-.96Zm4.48 9.93H99.8a1.3 1.3 0 0 1-1.28-1.28v-2.56a1.3 1.3 0 0 1 1.28-1.28h17.93a1.3 1.3 0 0 1 1.28 1.28v2.56a1.3 1.3 0 0 1-1.28 1.28m-1.92-3.52a.96.96 0 1 0 .96.96.96.96 0 0 0-.96-.96m-2.56 0a.96.96 0 1 0 .96.96.96.96 0 0 0-.96-.96" transform="translate(-58.99 -48.39)"/></g></g><g id="Bubbla-4" transform="translate(94 -459.156)"><g id="Bubbla-5" transform="translate(-15 2)"><circle id="Ellipse_53-4" cx="107.5" cy="107.5" r="107.5" fill="#e0e0e0" style="mix-blend-mode:color-burn;isolation:isolate" transform="translate(527 365.156)"/><g id="Mask_Group_3-2" clip-path="url(#clip-path)" style="mix-blend-mode:color-burn;isolation:isolate" transform="translate(-123.604 215.552)"><path id="user-lock-solid-2" fill="#c6c6c6" d="M34.37 39.28a19.64 19.64 0 1 0-19.64-19.64 19.64 19.64 0 0 0 19.64 19.64M49.1 49.1a10 10 0 0 1 1.24-4.68 21 21 0 0 0-2.22-.23h-2.56a26.7 26.7 0 0 1-22.37 0h-2.57A20.63 20.63 0 0 0 0 64.81v6.39a7.37 7.37 0 0 0 7.37 7.37h43.1a10 10 0 0 1-1.37-4.91Zm44.2-4.9h-4.91V31.91a12.28 12.28 0 1 0-24.55 0v12.27h-4.91a4.9 4.9 0 0 0-4.91 4.91v24.56a4.9 4.9 0 0 0 4.9 4.9H93.3a4.9 4.9 0 0 0 4.91-4.9V49.1a4.9 4.9 0 0 0-4.91-4.9M76.11 66.3a4.91 4.91 0 1 1 4.91-4.92 4.9 4.9 0 0 1-4.9 4.91Zm4.91-22.1H71.2V31.91a4.91 4.91 0 0 1 9.82 0Z" transform="translate(709 209.821)"/></g></g></g><g id="Bubbla-6" transform="translate(-121 -371.156)"><circle id="Ellipse_53-5" cx="107.5" cy="107.5" r="107.5" fill="#e0e0e0" style="mix-blend-mode:color-burn;isolation:isolate" transform="translate(527 365.156)"/><g id="a" clip-path="url(#clip-path-3)" style="mix-blend-mode:color-burn;isolation:isolate" transform="translate(586 424.156)"><path id="Path_5551" fill="#c6c6c6" d="M15.8 50.57c16.83 0 25-8.36 25-18.15C40.8 10.94 6.56 18.37 6.56 7.6c0-3.66 3.1-6.68 11.18-6.68A33.4 33.4 0 0 1 34.08 5.5l4.19-10.28a40 40 0 0 0-20.45-5.18C1.07-9.96-7.03-1.7-7.03 8.27-7.03 30 27.2 22.48 27.2 33.43c0 3.6-3.28 6.27-11.36 6.27a35 35 0 0 1-19.45-6.1l-4.58 10.2a42 42 0 0 0 23.98 6.77M73.6 14.9 86.9-.18v-8.75H45.67V1.93h25.06l-12.1 13.58v8.95h6.22c7.75 0 11 2.76 11 7.19 0 4.77-4.2 7.52-11 7.52a28.7 28.7 0 0 1-16.82-5.27l-5.3 10.4a40.7 40.7 0 0 0 22.47 6.27c16.74 0 24.4-9.03 24.4-18.9a16.67 16.67 0 0 0-16-16.77" transform="translate(7.689 28.011)"/></g></g><g id="Bubbla-7" transform="translate(-114 6.844)"><circle id="Ellipse_53-6" cx="59.5" cy="59.5" r="59.5" fill="#e0e0e0" style="mix-blend-mode:color-burn;isolation:isolate" transform="translate(527 365.156)"/></g><g id="Bubbla-8" transform="translate(-67.755 -81.156)"><circle id="Ellipse_53-7" cx="36" cy="36" r="36" fill="#e0e0e0" style="mix-blend-mode:color-burn;isolation:isolate" transform="translate(520.755 377.156)"/><g id="Group_65" style="mix-blend-mode:color-burn;isolation:isolate" transform="translate(533.488 400.555)"><path id="Path_101" fill="gray" d="M104.58 105.5h-1.49a.3.3 0 1 0 0 .59h1.5a.3.3 0 0 0 0-.59" transform="translate(-82.654 -84.757)"/><g id="Group_28" transform="translate(28.654 .012)"><path id="Path_102" fill="gray" d="M133.1 36.12a.3.3 0 0 1-.23-.09l-.88-.88a.33.33 0 1 1 .47-.46l.87.87a.36.36 0 0 1 0 .47.3.3 0 0 1-.23.09" transform="translate(-131.9 -34.6)"/></g><g id="Group_29" transform="translate(44.093 .012)"><path id="Path_103" fill="gray" d="M185.02 36.12a.3.3 0 0 1-.23-.09.36.36 0 0 1 0-.47l.87-.87a.33.33 0 1 1 .47.46l-.87.88a.3.3 0 0 1-.24.09" transform="translate(-184.7 -34.6)"/></g><g id="Group_30" transform="translate(28.654 15.45)"><path id="Path_104" fill="gray" d="M132.22 88.92a.3.3 0 0 1-.23-.09.36.36 0 0 1 0-.47l.87-.87a.33.33 0 1 1 .47.47l-.87.87a.3.3 0 0 1-.24.09" transform="translate(-131.9 -87.4)"/></g><g id="Group_31" transform="translate(44.093 15.45)"><path id="Path_105" fill="gray" d="M185.9 88.92a.3.3 0 0 1-.23-.09l-.88-.87a.33.33 0 1 1 .47-.47l.87.87a.36.36 0 0 1 0 .47.3.3 0 0 1-.23.09" transform="translate(-184.7 -87.4)"/></g><g id="Group_32" transform="translate(31.888)"><path id="Path_106" fill="gray" d="M143.94 36.3a.3.3 0 0 1-.3-.17l-.64-1.06a.34.34 0 0 1 .59-.35l.64 1.05a.4.4 0 0 1-.12.47z" transform="translate(-142.959 -34.559)"/></g><g id="Group_33" transform="translate(35.17 .007)"><path id="Path_107" fill="gray" d="M154.75 36.46a.34.34 0 0 1-.33-.26l-.23-1.23a.33.33 0 0 1 .64-.12l.24 1.23a.33.33 0 0 1-.27.38Z" transform="translate(-154.185 -34.585)"/></g><g id="Group_34" transform="translate(35.098 3.035)"><path id="Path_108" fill="gray" d="M154.66 46.77a.34.34 0 0 1-.32-.24l-.38-1.17a.32.32 0 0 1 .61-.2l.38 1.17a.3.3 0 0 1-.2.41z" transform="translate(-153.938 -44.938)"/></g><g id="Group_35" transform="translate(41.04)"><path id="Path_109" fill="gray" d="M174.6 36.3a.4.4 0 0 1-.18-.06.36.36 0 0 1-.12-.47l.64-1.05a.34.34 0 0 1 .59.35l-.64 1.05a.3.3 0 0 1-.3.18" transform="translate(-174.259 -34.559)"/></g><g id="Group_36" transform="translate(38.182 .007)"><path id="Path_110" fill="gray" d="M164.81 36.46h-.06a.33.33 0 0 1-.26-.38l.23-1.23a.33.33 0 1 1 .65.12l-.24 1.23a.3.3 0 0 1-.32.26" transform="translate(-164.485 -34.585)"/></g><g id="Group_37" transform="translate(38.11 3.035)"><path id="Path_111" fill="gray" d="m164.58 46.77-.12-.03a.3.3 0 0 1-.2-.4l.38-1.18a.32.32 0 1 1 .62.2l-.38 1.17a.3.3 0 0 1-.3.24" transform="translate(-164.238 -44.938)"/></g><g id="Group_38" transform="translate(31.917 15.234)"><path id="Path_112" fill="gray" d="M143.4 88.4a.4.4 0 0 1-.18-.06.36.36 0 0 1-.12-.47l.64-1.05a.34.34 0 1 1 .59.35l-.64 1.05a.4.4 0 0 1-.3.18" transform="translate(-143.059 -86.659)"/></g><g id="Group_39" transform="translate(35.17 15.095)"><path id="Path_113" fill="gray" d="M154.51 88.06h-.06a.33.33 0 0 1-.26-.38l.23-1.23a.33.33 0 1 1 .65.12l-.24 1.23a.34.34 0 0 1-.32.26" transform="translate(-154.185 -86.185)"/></g><g id="Group_40" transform="translate(35.069 12.128)"><path id="Path_114" fill="gray" d="m154.18 77.87-.12-.03a.3.3 0 0 1-.2-.4l.38-1.18a.32.32 0 0 1 .62.2l-.38 1.17a.27.27 0 0 1-.3.24" transform="translate(-153.838 -76.038)"/></g><g id="Group_41" transform="translate(41.04 15.234)"><path id="Path_115" fill="gray" d="M175.24 88.4a.3.3 0 0 1-.3-.17l-.64-1.06a.34.34 0 1 1 .59-.35l.64 1.05a.4.4 0 0 1-.12.47.2.2 0 0 1-.17.06" transform="translate(-174.259 -86.659)"/></g><g id="Group_42" transform="translate(38.211 15.095)"><path id="Path_116" fill="gray" d="M165.15 88.06a.34.34 0 0 1-.33-.26l-.23-1.23a.33.33 0 0 1 .64-.12l.24 1.23a.33.33 0 0 1-.27.38Z" transform="translate(-164.585 -86.185)"/></g><g id="Group_43" transform="translate(38.139 12.128)"><path id="Path_117" fill="gray" d="M165.06 77.87a.34.34 0 0 1-.32-.24l-.38-1.16a.32.32 0 1 1 .61-.2l.38 1.17a.3.3 0 0 1-.2.4.1.1 0 0 1-.1.03" transform="translate(-164.338 -76.038)"/></g><g id="Group_44" transform="translate(41.081 12.439)"><path id="Path_118" fill="gray" d="M175.6 78.62a.3.3 0 0 1-.23-.09l-.88-.87a.33.33 0 0 1 .47-.47l.87.87a.36.36 0 0 1 0 .47.3.3 0 0 1-.23.09" transform="translate(-174.4 -77.1)"/></g><g id="Group_45" transform="translate(43.876 3.246)"><path id="Path_119" fill="gray" d="M184.3 46.99a.3.3 0 0 1-.3-.18.4.4 0 0 1 .12-.47l1.05-.64a.34.34 0 1 1 .35.59l-1.05.64a.4.4 0 0 1-.18.06" transform="translate(-183.959 -45.659)"/></g><g id="Group_46" transform="translate(43.737 6.557)"><path id="Path_120" fill="gray" d="M183.81 57.87a.34.34 0 0 1-.32-.27.33.33 0 0 1 .26-.38l1.23-.23a.33.33 0 1 1 .12.64l-1.23.24Z" transform="translate(-183.485 -56.985)"/></g><g id="Group_47" transform="translate(40.741 6.456)"><path id="Path_121" fill="gray" d="M173.58 57.68a.34.34 0 0 1-.32-.23.3.3 0 0 1 .2-.41l1.17-.38a.32.32 0 0 1 .2.61l-1.17.38q0 .04-.08.03" transform="translate(-173.238 -56.638)"/></g><g id="Group_48" transform="translate(43.905 12.397)"><path id="Path_122" fill="gray" d="M185.45 78.29a.4.4 0 0 1-.18-.06l-1.05-.64a.34.34 0 0 1 .35-.59l1.05.64a.35.35 0 0 1-.17.65" transform="translate(-184.059 -76.959)"/></g><g id="Group_49" transform="translate(43.737 9.569)"><path id="Path_123" fill="gray" d="M185.04 68.17h-.06l-1.23-.24a.33.33 0 1 1 .12-.64l1.23.2a.33.33 0 0 1 .26.38.34.34 0 0 1-.32.3" transform="translate(-183.485 -67.285)"/></g><g id="Group_50" transform="translate(40.771 9.497)"><path id="Path_124" fill="gray" d="m174.85 68.08-.12-.03-1.17-.38a.32.32 0 0 1 .2-.61l1.17.38a.3.3 0 0 1 .2.4.3.3 0 0 1-.28.24" transform="translate(-173.338 -67.038)"/></g><g id="Group_51" transform="translate(28.642 3.246)"><path id="Path_125" fill="gray" d="M133.25 46.99a.4.4 0 0 1-.18-.06l-1.05-.64a.34.34 0 1 1 .35-.59l1.05.64a.36.36 0 0 1 .12.47.3.3 0 0 1-.3.18" transform="translate(-131.859 -45.659)"/></g><g id="Group_52" transform="translate(28.65 6.557)"><path id="Path_126" fill="gray" d="M133.44 57.87h-.06l-1.23-.24a.33.33 0 1 1 .12-.64l1.23.23a.33.33 0 0 1 .26.38.34.34 0 0 1-.32.27" transform="translate(-131.885 -56.985)"/></g><g id="Group_53" transform="translate(31.648 6.456)"><path id="Path_127" fill="gray" d="m143.65 57.68-.12-.03-1.17-.38a.32.32 0 0 1 .2-.61l1.17.38a.3.3 0 0 1 .2.4.3.3 0 0 1-.28.24" transform="translate(-142.138 -56.638)"/></g><g id="Group_54" transform="translate(28.642 12.397)"><path id="Path_128" fill="gray" d="M132.2 78.29a.3.3 0 0 1-.3-.18.4.4 0 0 1 .12-.47l1.05-.64a.34.34 0 1 1 .35.59l-1.05.64a.4.4 0 0 1-.18.06" transform="translate(-131.859 -76.959)"/></g><g id="Group_55" transform="translate(28.65 9.569)"><path id="Path_129" fill="gray" d="M132.21 68.17a.34.34 0 0 1-.32-.27.33.33 0 0 1 .26-.38l1.23-.23a.33.33 0 0 1 .12.64l-1.23.24Z" transform="translate(-131.885 -67.285)"/></g><g id="Group_56" transform="translate(31.648 9.497)"><path id="Path_130" fill="gray" d="M142.48 68.08a.34.34 0 0 1-.32-.23.3.3 0 0 1 .2-.41l1.17-.38a.32.32 0 1 1 .2.61l-1.17.38q-.02.04-.08.03" transform="translate(-142.138 -67.038)"/></g><g id="Group_57" transform="translate(34.51 5.867)"><path id="Path_131" fill="gray" d="M153.47 56.84a.6.6 0 0 1-.47-.2l-.88-.88a.66.66 0 0 1 .94-.93l.88.87a.65.65 0 0 1 0 .94.6.6 0 0 1-.47.2" transform="translate(-151.925 -54.625)"/></g><g id="Group_58" transform="translate(37.55 5.867)"><path id="Path_132" fill="gray" d="M162.99 56.84a.6.6 0 0 1-.47-.2.65.65 0 0 1 0-.94l.88-.87a.66.66 0 0 1 .94.93l-.88.88a.7.7 0 0 1-.47.2" transform="translate(-162.325 -54.625)"/></g><g id="Group_59" transform="translate(34.51 8.879)"><path id="Path_133" fill="gray" d="M152.59 67.14a.6.6 0 0 1-.47-.2.65.65 0 0 1 0-.94l.88-.87a.66.66 0 0 1 .94.93l-.88.88a.6.6 0 0 1-.47.2" transform="translate(-151.925 -64.925)"/></g><g id="Group_60" transform="translate(37.55 8.879)"><path id="Path_134" fill="gray" d="M163.87 67.14a.6.6 0 0 1-.47-.2l-.88-.88a.66.66 0 0 1 .94-.93l.87.87a.65.65 0 0 1 0 .94.7.7 0 0 1-.46.2" transform="translate(-162.325 -64.925)"/></g><path id="Path_135" fill="gray" d="m112.48 100.32 1.96-1.96a.33.33 0 0 0-.47-.47l-1.96 1.96-1.96-1.96a.33.33 0 0 0-.46.47l1.96 1.95-1.96 1.96a.36.36 0 0 0 0 .47.36.36 0 0 0 .46 0l1.96-1.96 1.96 1.96a.36.36 0 0 0 .47 0 .36.36 0 0 0 0-.47Z" transform="translate(-87.395 -79.309)"/><g id="Group_61" transform="translate(31.666 12.439)"><path id="Path_136" fill="gray" d="M142.52 78.62a.3.3 0 0 1-.23-.09.36.36 0 0 1 0-.47l.87-.87a.33.33 0 1 1 .47.47l-.87.87a.3.3 0 0 1-.24.09" transform="translate(-142.2 -77.1)"/></g><g id="Group_62" transform="translate(31.666 3.024)"><path id="Path_137" fill="gray" d="M143.4 46.42a.3.3 0 0 1-.23-.09l-.88-.87a.33.33 0 1 1 .47-.47l.87.87a.36.36 0 0 1 0 .47.3.3 0 0 1-.23.09" transform="translate(-142.2 -44.9)"/></g><g id="Group_63" transform="translate(41.081 3.024)"><path id="Path_138" fill="gray" d="M174.72 46.42a.3.3 0 0 1-.23-.09.36.36 0 0 1 0-.47l.87-.87a.33.33 0 0 1 .47.46l-.87.88a.3.3 0 0 1-.24.09" transform="translate(-174.4 -44.9)"/></g><path id="Path_139" fill="gray" d="M58.76 98.1a.33.33 0 0 0-.33.32v.44a2.2 2.2 0 0 0-1.7-.76 2.49 2.49 0 0 0 0 4.97 2.4 2.4 0 0 0 1.7-.76v.44a.32.32 0 1 0 .65 0v-4.33a.3.3 0 0 0-.32-.32m-2.02 4.3a1.76 1.76 0 0 1-1.7-1.81 1.8 1.8 0 0 1 1.7-1.85 1.83 1.83 0 0 1 0 3.66" transform="translate(-48.406 -79.521)"/><g id="Group_64" transform="translate(12.31 16.883)"><path id="Path_140" fill="gray" d="M76.32 92.3a.3.3 0 0 0-.32.32v.24a.35.35 0 0 0 .32.35.36.36 0 0 0 .35-.35v-.24a.35.35 0 0 0-.35-.32" transform="translate(-76 -92.3)"/><path id="Path_141" fill="gray" d="M76.32 98.1a.33.33 0 0 0-.32.32v4.3a.3.3 0 0 0 .32.32.35.35 0 0 0 .35-.32v-4.3a.33.33 0 0 0-.35-.32" transform="translate(-76 -96.404)"/></g><path id="Path_142" fill="gray" d="M87.26 98.1a.3.3 0 0 0-.33.32v.44a2.2 2.2 0 0 0-1.7-.76 2.49 2.49 0 0 0 0 4.97 2.4 2.4 0 0 0 1.7-.76v.44a.32.32 0 1 0 .65 0v-4.33a.33.33 0 0 0-.32-.32m-2.02 4.3a1.76 1.76 0 0 1-1.7-1.81 1.8 1.8 0 0 1 1.7-1.85 1.83 1.83 0 0 1 0 3.66" transform="translate(-68.573 -79.521)"/><path id="Path_143" fill="gray" d="M38.29 98.1a.35.35 0 0 0-.35.32v.44a2.4 2.4 0 0 0-1.7-.76 2.46 2.46 0 0 0 0 4.91 2.2 2.2 0 0 0 1.7-.76v.32a1.65 1.65 0 0 1-1.7 1.67 2 2 0 0 1-.68-.14 2 2 0 0 1-.55-.38.4.4 0 0 0-.24-.12.3.3 0 0 0-.23.09.36.36 0 0 0-.03.46 3 3 0 0 0 .67.5l.03.03.06.03.06.03.05.03a2 2 0 0 0 .85.15 3 3 0 0 0 .5-.06h.03l.44-.15.35-.2q.05-.05.09-.06l.06-.02.17-.15.18-.18.06-.05a2.4 2.4 0 0 0 .55-1.5v-4.13a.4.4 0 0 0-.37-.32m-2.02 4.27a1.74 1.74 0 0 1-1.67-1.81 1.69 1.69 0 1 1 3.36 0 1.8 1.8 0 0 1-1.7 1.8" transform="translate(-33.9 -79.521)"/></g></g><path id="Path_5555" fill="#c6c6c6" stroke="rgba(0,0,0,0)" stroke-miterlimit="10" stroke-width="1" d="M199.47 61.68a69.32 69.32 0 0 0-137.8 0 69.32 69.32 0 0 0 7.65 138.2h61.25a38.69 38.69 0 1 0 0-77.37 22.58 22.58 0 1 1 16-38.49A8.07 8.07 0 0 0 158 72.62a38.69 38.69 0 1 0-27.42 65.97 22.58 22.58 0 1 1 0 45.15H69.32a53.2 53.2 0 1 1 0-106.4 8.06 8.06 0 0 0 8.05-8.06 53.2 53.2 0 1 1 106.4 0 8.05 8.05 0 0 0 8.05 8.05 53.2 53.2 0 1 1 0 106.41 8.06 8.06 0 0 0 0 16.11 69.32 69.32 0 0 0 7.65-138.18Z" style="mix-blend-mode:color-burn;isolation:isolate" transform="translate(612.014 236.012)"/><g id="Mask_Group_11" clip-path="url(#clip-path-4)" style="mix-blend-mode:color-burn;isolation:isolate" transform="translate(-118 202)"><path id="shield-alt-solid" fill="#c6c6c6" d="M46.47 8.34 27.35.37a4.8 4.8 0 0 0-3.68 0L4.54 8.34a4.8 4.8 0 0 0-2.95 4.41C1.6 32.53 13 46.2 23.66 50.64a4.8 4.8 0 0 0 3.68 0C35.87 47.08 49.4 34.8 49.4 12.75a4.8 4.8 0 0 0-2.94-4.41M25.51 44.46 25.5 6.51l17.52 7.3c-.32 15.08-8.17 26-17.5 30.65" transform="translate(564.997 199.998)"/></g></g></svg>