<svg xmlns="http://www.w3.org/2000/svg" xmlns:xlink="http://www.w3.org/1999/xlink" width="898" height="629" viewBox="0 0 898 629"><defs><linearGradient id="linear-gradient" x1="0.5" x2="0.5" y1="0.359" y2="1" gradientUnits="objectBoundingBox"><stop offset="0" stop-color="#195f8c" stop-opacity="0"/><stop offset="1" stop-color="#195f8c" stop-opacity="0.204"/></linearGradient><clipPath id="clip-safespring-datacenter-map-container"><path d="M0 0h898v629H0z"/></clipPath></defs><g id="safespring-datacenter-map-container" clip-path="url(#clip-safespring-datacenter-map-container)"><path fill="#e8eff3" d="M0 0h898v629H0z"/><g id="Karta" transform="translate(343.138 -1801)"><path id="Path_26" fill="rgba(25,95,140,0.2)" fill-rule="evenodd" d="m61.7-1.18 6.7-3.28 3.36-6.56 4.47-7.65 2.23-3.28 2.24-5.46 6.7-2.19a49 49 0 0 1 5.59-1.1c1.11-1.09 7.82-6.55 7.82-6.55h1.12l-3.36 5.46v5.47l1.13 4.37 1.12 1.1v8.74s3.35 2.19 2.23 3.28c-2.23 1.1-4.47 4.37-4.47 4.37L97.46 2.1 93 7.57l1.12 6.56 1.12 5.46-1.12 4.37 3.35 3.28-1.12 2.19 1.12 3.28 3.35 2.19h3.36c1.11 0 4.47-1.1 5.58-1.1a11 11 0 0 1 3.35 1.1l3.36 4.37v3.28a11 11 0 0 0-1.12 3.28 16 16 0 0 0-2.24 3.27l-2.23 2.19-1.12 3.28-1.12 2.18-2.23-2.18s0-3.28-1.12-2.19c-1.11 0-2.23 2.19-2.23 2.19l1.12 2.19s1.11 3.28 0 3.28h-2.24l-1.12-4.38-3.35-1.09 2.24-4.37-2.24-1.1a3.5 3.5 0 0 0-2.23 1.1 47 47 0 0 1-1.12 5.46L93 60.04a3.8 3.8 0 0 1 1.12 2.18A3.8 3.8 0 0 1 93 64.41v2.18a11 11 0 0 1 1.12 3.28 1.1 1.1 0 0 1-1.12 1.1v2.18a4 4 0 0 0-2.23 1.1l-2.24 1.09a4 4 0 0 0-2.23-1.1c-1.12 0-1.12-1.09-2.24 0l-1.11 1.1 1.11 1.1h2.24v2.18a1.1 1.1 0 0 1 1.11 1.09l-2.23 2.19-2.23 2.19-2.24 1.09s-2.23-1.1-2.23 0h-2.24c0 1.09 2.24 3.27 2.24 3.27L74 84.08h-2.24l3.36 2.19 1.11 2.18 2.24 1.1-1.12 1.09-1.12 1.1L74 93.91a4 4 0 0 1-2.23 1.1H68.4l1.12 1.09 2.23 1.09s1.12-1.1 1.12 0c-1.12 0-1.12 0-1.12 1.1v5.46l2.24 3.28 1.12 1.09v4.37a4 4 0 0 1-2.24 1.1l-4.47 1.1-1.12 2.18 2.24 1.1v2.18a3.8 3.8 0 0 1-1.12 2.19h2.23l3.36 1.08 4.47 5.47-1.12 4.37-2.23 2.19-2.24-4.37a1.1 1.1 0 0 0-1.11 1.09c-1.12 0-4.47 2.19-4.47 2.19a11 11 0 0 1-3.35 1.09h-1.13l-3.35-1.1-4.47-2.18a11 11 0 0 0-3.35-1.1c-1.12 0-6.7-2.18-6.7-2.18L42.7 130h-3.35l-2.23-1.1-2.24-3.28-1.12-2.19 3.36-2.18a1.1 1.1 0 0 0 1.11-1.1v-6.55a3.8 3.8 0 0 1 1.12-2.19s0-3.28-1.12-4.37v-4.37L36 99.39a9 9 0 0 1-3.35-1.1 54 54 0 0 0-5.59-2.18v-3.28l-1.12-1.1s-2.23 0-2.23 1.1v1.09l-2.23-1.1s-2.24-3.27-2.24-4.37a2.4 2.4 0 0 0 2.24-2.18 8 8 0 0 0 2.23-4.37v-4.38s-1.12-1.09 0-1.09h1.12a44 44 0 0 1 4.47-3.28v-2.19a11 11 0 0 1-1.12-3.27v-1.1c0-2.18-4.47-6.55-4.47-6.55h-2.24v-5.47l1.12-4.37-1.12-7.65V31.6l2.24-4.37 1.11-2.18 1.12 3.27a1.5 1.5 0 0 0 0 2.19h3.35l1.12 1.1 3.35 2.18L36 35.98l2.23 1.09h2.24l1.12-1.1V34.9l-1.12-2.18a3.8 3.8 0 0 0-1.11-2.19l3.35-2.19 1.12-2.18a1.1 1.1 0 0 0-1.12-1.1h-3.36l-1.12-1.09-1.11-2.18s0-2.19 1.11-2.19a24 24 0 0 1 1.12-4.37s-1.12-2.19 1.12-2.19h3.35s1.12-2.19 2.23-2.19c0 0 1.12-1.09 1.12 0 1.12 0 0 3.28 0 3.28l-2.23 2.19a3.8 3.8 0 0 1 1.11 2.19v2.19l-2.23 3.28h1.12v2.18l3.35-1.1-1.12-1.09a1.5 1.5 0 0 1 0-2.18c1.12-1.1 1.12-2.19 2.24-2.19 0-1.1 0-1.1 2.23-1.1 1.12.01 3.35 2.2 3.35 2.2s1.12 1.09 0 1.09a3.8 3.8 0 0 1-1.12 2.18l2.24 3.28a3.5 3.5 0 0 0-2.24 1.1v1.09c0 1.1-3.35 2.19 0 2.19 2.24 0 2.24 0 2.24-1.1v-2.19h3.35l1.12 1.1v3.28s2.23 2.18 2.23 1.09 1.12 0 0-2.19a5.3 5.3 0 0 1-1.12-3.28v-2.18c-1.11-1.1-2.23-1.1-2.23-2.19l-3.35-3.28v-6.55l1.11-2.2a5.3 5.3 0 0 1 1.12-3.27c1.12 0 0-1.1 1.12-1.1 2.23-1.09 1.12-1.09 3.35-1.09 1.12 0 3.35 1.1 4.47 1.1l3.35 1.09v-1.1c1.12 0 1.12-2.18 1.12-1.09 1.12 0 1.12 1.1 2.23 0A3.4 3.4 0 0 0 75.1 4.3a3.5 3.5 0 0 0 2.24-1.1 4 4 0 0 0-2.23-1.09 5.6 5.6 0 0 0-3.36 1.1h-2.23C68.4 4.3 68.4 4.3 66.17 4.3s-2.24 0-3.36 1.09a3.5 3.5 0 0 1-2.23 1.1h-3.35l-1.12-1.1H55a4 4 0 0 0-2.24 1.1H48.3c0 1.09-2.23 1.09-2.23 1.09h-1.12c0 1.09 1.11 1.09 0 2.18H41.6l-1.12 1.1-1.11 2.18h-1.13l-1.11 3.28v1.09l-2.24 2.19-1.12 1.1 1.12 1.09v1.09l-1.12 1.1 1.12 2.18 2.24-1.1 1.11 2.2-1.11 2.18a4 4 0 0 1-2.24 1.09l-1.12-1.1-1.11-2.18v-2.18l-3.36 1.09v-1.1l-1.12-1.09a3.8 3.8 0 0 0-1.11-2.18l-2.23-3.28h1.11c0-1.1 0-1.1 1.12-2.19 0-1.09 2.23-3.28 2.23-3.28l1.12-3.27 2.24-2.19 1.11-2.19 2.24-3.28 2.23-2.18h3.36L43.83 1l2.23-2.19 4.47-1.1h1.12L55-1.17zM37.14 114.7l-2.24-1.09a3.8 3.8 0 0 1-1.12 2.19l-1.11 3.28-1.12 1.09v2.19l-3.35 1.09a1.1 1.1 0 0 0 1.12 1.1h2.23a3.8 3.8 0 0 1 1.12-2.2l1.11-1.09c1.12 0 3.36 0 3.36-1.09zm58.1-29.51 1.11-1.1a3.8 3.8 0 0 0-1.11-2.18 1.1 1.1 0 0 1 1.11-1.1v-1.09h-1.11a1.1 1.1 0 0 0-1.12 1.09V83Zm30.17 29.5 1.11-1.09 1.12 1.1-1.12 1.1zm12.28 14.22h1.12v1.1l-1.12 1.08zm-3.35-2.19-1.12-1.1h3.36l1.11 1.1a1.1 1.1 0 0 0-1.11 1.1 4 4 0 0 1-2.24-1.1m5.59 0-1.12-2.18 1.12-1.1 1.12 1.1-1.12 1.09Zm23.46-6.55-1.11-1.1 1.11-1.1h2.24Zm-2.23 1.09v-3.28l1.11-1.1-1.11-1.09h-1.12l-1.12-2.18h-2.23l1.11-1.1h1.12l1.12-1.1s2.23-3.27 4.47-3.27h3.35l2.23-2.19v-1.09c1.12 0 0-2.18 0-2.18v-2.2l-3.35-2.18-4.47-2.18s0-2.19-1.11-2.19l1.11-2.19s2.24-3.28 4.47-4.37a3.5 3.5 0 0 1 2.24-1.1c1.11 0 2.23 1.1 3.35 2.2h4.47v-3.28c0-1.1 0 0-1.12-1.1l-1.12-1.1v-6.55a11 11 0 0 0-1.11-3.28 3.8 3.8 0 0 0-1.12-2.19l-1.12-2.18v-1.1a11 11 0 0 1 1.12-4.37 5.3 5.3 0 0 0 1.11-3.28l-1.11-1.09-4.47-1.1-1.12-1.09a1.1 1.1 0 0 0-1.12-1.09l-4.47 1.1a16 16 0 0 0-3.35 2.18c-2.23 0-2.23 0-3.35 1.1-2.23 1.09-2.23 2.18-3.35 3.27-1.12 0-2.24 2.19-2.24 2.19-1.11 1.1-1.11 1.1 0 2.19 0 1.09 1.12 0 1.12 0h2.23c1.12 0 1.12 1.09 0 1.09v1.1l-1.11 1.08v2.2a1.1 1.1 0 0 1-1.12 1.08l-2.23 2.2a1.1 1.1 0 0 0-1.12 1.08c0 1.1 0 1.1 1.12 2.2v1.08c0 1.1-1.12 2.19-1.12 1.1v-1.1h-4.47l2.24-2.19 1.11-1.09v-1.09h-4.47l1.12-1.1v-2.18l1.12-2.19s0-2.18 1.11-2.18a3.8 3.8 0 0 0 1.12-2.19c1.12 0 0-1.1 0-1.1h-2.23l-2.24 1.1a26 26 0 0 1-4.47 1.1h-1.11a1.1 1.1 0 0 0-1.12-1.1h-2.23a1.1 1.1 0 0 0-1.12 1.1s3.36 1.09 4.47 2.18h1.12v1.1s-1.12 2.18-2.24 2.18a1.1 1.1 0 0 1-1.11 1.1l-2.24 1.09 1.12 2.18v2.19l-2.23-1.1-3.36 2.19h-1.12a1.1 1.1 0 0 1-1.11-1.1l-1.12 2.2a49 49 0 0 0-5.59-1.1V83l2.24 1.09-2.24 1.09 4.47 2.19 1.12 1.09 1.12 3.28-1.12 1.09 2.23 2.19a3.4 3.4 0 0 0 1.12 2.18v5.47s-2.23 1.1-2.23 2.19h1.11l2.24 2.18 1.12 2.19a3.8 3.8 0 0 0-1.12 2.18l2.23 1.1h11.17l3.36-1.1s2.23 2.19 3.35 2.19a1.5 1.5 0 0 1 0 2.19 1.1 1.1 0 0 1-1.12 1.09l1.12 3.28c1.12 1.1 1.12 0 1.12 0l2.23 2.19a1.1 1.1 0 0 0 1.12 1.09h1.11a1.1 1.1 0 0 1 1.12 1.1h3.35a1.1 1.1 0 0 0 1.12-1.1h2.24zm0 5.46-1.12 1.1h1.12l2.23 1.09h1.12l1.12-1.1 1.11-2.18 3.36-1.1h3.35l1.11-1.09v-1.09l-2.23-2.18h-6.7v2.18c-1.12 1.1-1.12 1.1-2.23 1.1h-1.12Zm-12.3 13.12h1.12l1.12-1.1-1.12-2.18-1.11-1.1-1.12-3.27-2.23-2.19-1.12-1.1-1.12 2.2-1.11 1.09-1.12 1.09s-3.36-1.1-4.47-2.19l-2.24-1.09a3.5 3.5 0 0 1-2.23-1.09l-1.12-1.1a1.1 1.1 0 0 0-1.11-1.09c0-1.09-1.12 0-2.24 0h-3.35a1.1 1.1 0 0 1-1.12 1.1c-1.12 1.09 0 3.28 0 3.28v1.09l1.12 2.19h-3.35l1.11 2.18a3.4 3.4 0 0 0 1.12 2.19l1.12 1.1 5.59 1.08h1.11l4.47 2.19 2.24 2.19h2.23l1.12-1.1 3.35-1.09h2.23l3.36 1.1h1.11v-3.29Zm-43.57-44.82-2.23-1.09-2.24-3.28-3.35-1.1-1.12-3.27c-1.11-1.1-1.11 0-1.11 0a5.3 5.3 0 0 1-1.12 3.28h-2.23l-2.24 2.18a26 26 0 0 1-4.47 1.1l-1.12 1.09-6.7-1.1-2.23 2.2v1.09l1.12 2.18 1.11 1.1h1.12v2.18l1.12 2.19a14 14 0 0 1 2.23 3.28c1.12 2.18 0 3.28 0 3.28l3.35 3.28 2.24 1.09a4 4 0 0 0 2.23 1.1v3.27l1.12 2.19 1.12-1.1 1.11-1.09 5.59 2.19s4.47 2.18 5.59 2.18l2.23-2.18c1.12-1.1 4.47-1.1 4.47-1.1a1.1 1.1 0 0 0 1.12-1.09c0-1.1 1.11-2.18 1.11-3.28a3.8 3.8 0 0 1 1.12-2.18v-2.19l-1.12-3.28 1.12-4.37-2.23-2.19-1.12-1.1V98.3l2.23-1.09v-3.28l3.35-2.19 1.12-3.28a49 49 0 0 0-5.59-1.09c-2.23 0-1.11 0-1.11-1.1l-1.12-1.08-2.24 1.09c-1.11 0-1.11-2.19-1.11-2.19l-2.24 1.1h-3.35v1.09c-1.12 1.1 0 2.18 1.12 2.18a11 11 0 0 0 1.12 3.28l1.11 2.19Zm-2.23-15.3h2.23l1.12-2.18a3.8 3.8 0 0 0 1.12-2.19v-3.28l-1.12-1.1-1.12-2.18-1.11-3.28h-2.24v2.19a3.8 3.8 0 0 0 1.12 2.18l1.11 1.1v1.09l-1.11 1.1-1.12 2.18 1.12 2.18Zm5.58 54.66 1.12 3.28 1.12 2.18s2.23 1.1 2.23 0-1.11-2.18 0-3.28c0-1.09 1.12-3.28 1.12-4.37s1.12-2.18 1.12-3.28a8 8 0 0 0 2.23-4.37 11 11 0 0 0 1.12-3.28v-3.28l-1.12-3.28-1.12 2.19v2.18l-2.23 4.38-1.12 2.18-2.23 2.19v3.28l-1.12 1.1v1.08Zm-5.58-9.84 1.11 1.1s1.12 3.27 2.24 3.27l3.35-3.28v-2.18l1.12-2.19-3.35 1.1-2.24 2.18ZM93 126.73l1.12 3.28a4 4 0 0 1 2.23 1.09l2.24 2.18a1.1 1.1 0 0 0 1.11 1.1l2.24-1.1 1.12-2.18h-2.24c-1.12 0-2.23-2.19-2.23-2.19h-1.12c-1.12 0-3.35-2.18-3.35-2.18Zm-17.87-3.28 2.23 1.09 1.12 1.1 2.23 1.09-2.23 2.18s1.11 2.19 2.23 1.1h1.12l2.23 1.09a4.2 4.2 0 0 0 3.35 1.09 1.1 1.1 0 0 0 1.12-1.1v-2.18l-1.12-2.19-1.12-2.18-4.47-1.1-2.23-2.18-3.35-1.1H75.1ZM111.99-9.92v1.09h2.23l2.23 1.1c0 1.08 1.12 0 1.12 0 1.12 0 1.12-1.1 1.12-2.2l1.12-1.09 3.35-2.18c0-1.1-2.24-1.1-2.24-1.1l-3.35 1.1-3.35 1.09Z" transform="translate(129.481 2327.011)"/><path id="Union_2" fill="url(#linear-gradient)" d="m270.74 986.48-1.12-2.19-6.7 1.09-5.59-1.09 2.24-3.28 1.11-2.2-1.11-2.18 1.11-3.28 1.12-3.28 1.12-2.18s0-4.38-1.12-4.38c0 0-3.35-4.38-3.35-5.47l-4.47-6.56s-5.58-6.56-6.7-8.75c-2.23-3.28-1.12-3.28-1.12-4.37l2.24-3.28h5.58v-5.47c-1.11 0-3.35-2.2-3.35-2.2l-4.47-2.18 1.12-4.37h4.47l2.23-1.1 2.24-1.1a5.3 5.3 0 0 0-1.12-3.27c0-1.1 1.12-5.47 2.23-5.47 0-1.1-3.35-2.2-3.35-2.2s-2.23 2.2-3.35 2.2l-3.35-3.28-4.47-7.66-3.35-2.18-2.24-3.29c-1.11-1.1-2.23-2.18-2.23-3.28-1.12-1.1-2.24-5.46-2.24-5.46s-4.47-10.94-5.58-12.04v-4.37c-1.12-1.1-1.12-2.2-2.24-2.2s-1.11 1.1-3.35 1.1c-3.35 0-2.23-1.1-2.23-1.1v-10.92h-3.36c-1.11-1.1 0-3.28 0-3.28a16 16 0 0 0 .91-2.19c-.75-.02-3.31-.16-4.26-1.1-1.12-1.1 0-3.27 0-3.27s3.35-2.19 3.35-3.28c1.12 0-2.23-1.1-3.35-2.19-2.23-1.1 1.12-4.38 1.12-4.38a5.3 5.3 0 0 1 1.12-3.28c.55-.54-.56-.27-1.96 0s-3.07.55-3.63 0c0-2.18 3.35-5.46 3.35-5.46v-2.2l-4.47 3.29a43 43 0 0 1-3.35-4.37l4.47-5.47-3.35-1.1-1.12-1.1 2.23-4.37 1.12-3.28s-2.23 2.18-3.35 2.18h-.01l-3.34-4.37 1.11 3.28-4.47 1.1a47 47 0 0 1-1.11-5.46l-2.23-5.48 1.11-7.65s-1.12-7.66-2.23-8.75-2.24-5.47-2.24-5.47l.82-5.61-4.22-2.07c0-2.18-4.48-7.65-5.6-12.02-2.24-3.29-6.71 0-6.71 0s-3.36 7.65-5.6 7.65a31 31 0 0 0-5.59 4.37s-5.6 6.57-8.96 8.76c-2.23 2.18-1.12-2.2-2.23-6.57 0-4.37-3.36-3.28-3.36 0 1.12 2.19-6.71 5.47-8.95 5.47-3.36 0-7.84 5.47-7.84 5.47l-3.35 10.93-8.95 15.32s-13.44 7.65-14.56 7.65l-5.59 5.47c-2.24 3.28-4.47 3.28-5.6 3.28-2.23 0-1.11-2.19-4.47-3.28-2.24-1.1-5.6 4.37-5.6 4.37l-5.6 2.2-6.7 1.09c-1.12 0-5.6-2.2-6.72-1.1 0 0-3.36 2.2-3.36 1.1s-2.24-2.2-2.24-2.2-15.67-3.27-17.9-4.37 3.35-5.46 3.35-5.46 4.48-3.29 3.36-3.29c0-1.1-4.48-1.1-7.84-2.19a14 14 0 0 1-5.6-1.1l-4.47-4.36-1.12-2.19c0-2.19-2.23-2.19-5.59-4.38s-5.6-5.46-5.6-6.55c0 0-4.47-7.66-5.6-9.85a5.2 5.2 0 0 1 0-4.37s3.36-5.47 4.48-7.66c0-2.19 1.12-1.1 2.24-1.1s6.72-1.1 6.72-1.1c1.12 0-2.24-4.36-2.24-4.36l3.36-4.38s2.23-5.46 1.11-5.46a4 4 0 0 1-1.11-3.29 8.6 8.6 0 0 0-4.48-2.19c-2.24 0-5.6 2.2-5.6 2.2l-4.47 2.18c-1.12 1.1-1.12 0-3.36 0-2.24-1.1-1.12-3.28-1.12-5.47 0-1.09 3.36-3.28 5.6-5.47 1.11-3.28-3.36-3.28-3.36-3.28l-5.6-3.28 3.36-6.56-1.12-3.28s4.48-2.19 4.48-3.28a2.2 2.2 0 0 0-2.24-2.19l-3.36-4.38c0-1.08 3.36-2.18 3.36-3.27 1.12 0 3.36-3.29 3.36-3.29 0-1.1-3.36-2.18-4.48-1.1-1.12 0-3.35 2.2-3.35 2.2L0 705.38s4.48-6.56 5.6-7.66c0-2.18 2.23-1.1 4.47-1.1 3.36-1.08 3.36-2.18 3.36-2.18 0-1.09-5.6-1.09-7.84-1.09l-4.47-4.38c-2.24-3.27 2.24-4.37 2.24-5.46v-5.47l2.23-8.75s2.24-2.19 1.12-3.28c0-1.1-2.23-4.37-3.35-6.56v-4.38a25 25 0 0 1 5.6-3.28c1.11 0 0-3.28 0-3.28s6.7-6.56 6.7-7.66a24 24 0 0 1 1.12-4.37l-8.95 1.1H6.71c-1.12 0-2.23-1.1-2.23-3.29 0-3.27 1.11-2.18 3.35-3.27s2.24-2.2 2.24-4.38a3.53 3.53 0 0 1 3.36-3.28c1.11-1.1 6.7-5.47 7.83-6.56 0-2.2-3.36-2.2-6.72-3.29-2.23-1.08-4.47-5.46-3.35-7.65 1.12-1.1 2.24-3.28 3.35-3.28a16 16 0 0 0 2.24-3.28s-5.6-1.1-6.71-1.1c-1.12 1.1-2.24-2.18-2.24-3.28a2.4 2.4 0 0 1 2.24-2.19c0-1.08 3.36-2.18 3.36-3.27a11 11 0 0 0-1.12-3.28l3.35-2.2c1.12 0 2.24 2.2 3.36 1.1 1.12 0 2.24-3.28 2.24-3.28h-1.12a21 21 0 0 1-3.36-4.37c-1.12-1.1 0-3.28 0-4.38 0-2.18 2.24 0 5.6 1.1s2.24 1.09 3.36 2.18a8.3 8.3 0 0 0 3.36 3.29c1.12 0 2.23-2.2 2.23-2.2l-3.35-2.18a41 41 0 0 0 1.12-8.75c0-3.28 3.35 0 3.35 0s4.48 3.28 6.72 2.19c1.12 0 0 0 1.12-4.38 1.49-2.91 1.99-2.91 2.15-2.91.08 0 .08 0 .08-.36 1.12-1.1 6.72-2.2 6.72-3.29 1.12-1.1-1.12-3.28-1.12-4.37a8 8 0 0 1 2.24-4.38c1.12-1.1 4.47 4.37 5.6 4.37 1.11 1.1 4.47 0 4.47 0a67 67 0 0 1 4.47-6.56c1.12-1.1 5.6 2.19 6.72 3.29 1.12 0 5.6 3.27 7.83-1.1 2.24-3.29 0-4.38 0-4.38s-5.59-1.1-7.83-4.37c-3.36-3.28 0-3.28 2.24-5.47 1.12-2.2 1.12-3.29 2.24-4.38 2.24-1.09 10.07 0 10.07-1.09 1.12 0 5.6-3.28 5.6-3.28l4.47 3.28s6.71 3.28 8.95 5.47 2.24-2.2 2.24-2.2l-2.24-5.46a8 8 0 0 1 2.24-4.37c1.12 0 0-3.28 0-4.38 1.12-2.18 6.71-2.18 6.71-2.18s3.37-2.2 2.25-4.38c0-1.1-2.25-3.28-2.25-3.28s-4.47-2.19-4.47-4.37c-1.12-2.2 2.24-2.2 2.24-2.2l1.11-8.74s5.6-2.19 6.72-2.19c2.24-1.1 4.48 3.28 5.6 4.38s0 1.1 1.11 3.28c0 1.09 2.24 1.09 3.36 1.09h10.08c1.11 0 2.23-4.37 2.23-4.37l2.24-1.1 10.07 4.38a32 32 0 0 1 3.36 6.56c2.23 4.37 4.48 1.1 5.6 1.1 2.23 0 3.35-1.1 6.7-4.38 2.25-2.19 1.13-2.19 4.48-2.19 2.24 0 4.48-3.27 4.48-3.27l-2.24-4.38-3.35 2.19-5.6 4.38h-11.2c-1.11 0 0-6.57 0-6.57a52 52 0 0 1-8.94-1.1c-4.48-1.1 2.23-7.65 2.23-7.65l3.36-2.19 7.84-4.37-4.48-4.37 1.12-2.2a51 51 0 0 0 2.24-5.46 31 31 0 0 1 5.6-4.38c3.35-2.18 3.35-4.37 3.35-5.46s2.24-6.57 6.71-10.94c4.48-3.28 5.6-2.19 5.6-2.19l4.48-3.28s5.6 4.38 6.71 4.38c2.24 0 5.6-1.1 4.48-5.47 0-3.28-2.24-2.19-2.24-2.19l-7.83 2.19a23 23 0 0 0 1.12-6.56c0-3.29 3.35-3.29 5.59-4.38 1.12-1.09 3.36-1.09 5.6-3.28s-1.12-2.18-2.24-2.18-5.6 2.18-7.84 3.28h-4.47c-3.36 0 0-3.28-1.13-4.38l6.72-4.37h7.83l2.24-4.38v-4.37l4.48-1.1s5.6 4.38 5.6 3.28v-6.55s5.59-3.29 5.59-5.48a1.1 1.1 0 0 0-1.12-1.1l-2.24-5.46 7.83-4.37s-2.23-5.47-3.35-6.56c0-1.1 2.24-6.56 3.35-8.75l3.36-6.57v-10.93c0-1.25.37-1.07 1.1-.89a3 3 0 0 0 2.26-.2c1.12 0 1.12-3.28 1.12-3.28l6.72-6.56c1.11 0 4.47 2.18 4.47 2.18s6.71-1.1 7.83-1.1c1.12-1.09 2.24-6.56 2.24-6.56s-3.35-2.19-5.6-2.19c-1.11-1.1-6.7 1.1-6.7 1.1-1.12 0-4.48-4.37-4.48-4.37s1.12-7.66 0-9.84a4.7 4.7 0 0 1 2.24-4.38c1.12 0 3.35-3.28 2.23-5.46a4.7 4.7 0 0 1 2.24-4.38 25 25 0 0 1 5.6-3.28c2.23-2.2-1.12-4.37-1.12-4.37a24 24 0 0 0-1.12-4.38l7.83-4.37s4.48-2.2 3.36-2.2c0-1.08 2.24-2.18 2.24-2.18l4.48-4.38 1.11-2.18s-3.35-3.28-3.35-4.38c0-2.18 1.12-4.37 1.12-5.46 1.12-1.1 3.35-1.1 4.47-1.1l2.24-3.28c0-1.08 1.1-3.22 1.12-4.33.9.2 7.83 1.05 7.83 1.05l10.08-1.1c1.12-1.1-5.6-1.1-5.6-1.1a50 50 0 0 1-5.6-1.08l2.24-4.38s4.48-3.28 4.48-4.38c1.12-1.08 0-3.27-1.12-3.27 0-1.1-6.72 1.1-7.83 1.1l-3.36-4.39 4.47-6.56 10.08-1.09a4 4 0 0 0 2.23-1.1l4.48-2.18 6.71 1.1 4.49-1.1 1.11-2.2s0-2.17-5.6-4.36c-6.7-2.2-2.23 1.1-4.47 3.27-3.36 1.1-5.6 2.2-6.71 2.2s-1.12-1.1-5.6-3.28c-3.36-2.2 4.48-3.29 4.48-4.38-1.12-1.1-10.08-6.56-12.32-5.47-1.12 1.1-5.6 1.1-10.07 1.1-4.47 1.09-3.35 0-5.6 0-1.11 0-5.6 5.46-8.95 5.46-3.35 1.1-6.7 4.37-10.07 4.37-2.23 0-4.47 2.2-4.47 2.2s0 5.46-2.24 8.74c-2.24 4.38-5.6 3.28-7.84 2.19s2.24-3.28 2.24-4.37v-4.38s10.08-8.75 10.08-10.93c1.11-3.29 4.47-5.47 6.7-6.56 1.13 0 5.6-5.48 5.6-5.48h8.96s8.95-1.09 12.3-3.27c2.24-2.2 0-3.28 0-3.28s-5.59-1.1-5.59-4.38-1.12-2.2-1.12-2.2a30 30 0 0 1-4.47-5.46c-1.12-2.18 3.35-9.84 3.35-9.84s7.84-10.93 10.07-14.22a11.3 11.3 0 0 1 6.72-2.18l6.72-6.57a11.7 11.7 0 0 1 4.47-8.74c3.36-3.29 4.48 4.37 4.48 4.37s1.12 7.66 1.12 9.85 0 1.09 6.72 10.93c4.57 6.71 4.99 5.8 5.14 4.88.08-.43.1-.86.45-.5 0 1.09 0 0 5.6 1.09 5.59 2.19 1.11-3.29 1.11-5.47 0-1.1 2.24-1.1 10.08-5.47 7.83-3.28 0-1.1 1.12-3.28v-5.47s0-4.37-2.25-5.47c-1.12-2.18-2.23 2.19-2.23 3.28a17 17 0 0 1-8.95 3.29c-3.36 0-2.24-2.2-2.24-4.38v-3.27c1.12-1.1 0-5.47 0-7.66 0-3.28 4.47-3.28 4.47-4.37a22 22 0 0 1 8.95-8.75c5.6-1.1 1.13 0 2.25 0 2.24-1.1 11.19-4.38 11.19-4.38l-3.36-4.37s5.6-6.56 7.83-6.56 3.36-1.1 6.72-2.2c1-.48 1.32-.1 1.48.28.2.47.13.94.76-.27 0-2.2-1.12-4.37-2.24-4.37-1.12-1.1-4.48-7.67-4.48-7.67s3.36-6.55 6.72-7.65 5.59 1.1 6.7 1.1c1.13 1.1 2.25 0 4.49-1.1 1.11 0-1.12-2.19-3.36-5.46-2.24-2.2 0-5.48 1.12-6.57s4.47 1.1 5.6 2.19l4.47 2.19s2.24 7.65 2.24 9.84-4.48 4.38-4.48 5.46a11 11 0 0 0 1.12 3.29s5.6-5.47 7.84-6.56c1.11-1.1 0 0 1.11 0s5.6 0 7.84-2.19c3.35-1.1-3.36-1.1-3.36-1.1-1.12 0-3.35-2.19-6.71-5.46s0-4.38 0-5.48 1.12-3.28 6.71-3.28c4.48-1.09 2.24 4.38 3.36 7.66 0 3.28 6.71 4.37 6.71 4.37s2.24-2.19 3.36-2.19c2.24 0 2.24 1.1 7.83 5.48 5.6 3.28 2.24-1.1 2.24-1.1 0-1.1 0-4.38-1.12-5.47s-5.6-2.19-5.6-2.19c-1.11-1.1-4.47-2.19-7.83-6.56-2.88-3.52-2.05-2.96-.8-2.4.7.3 1.52.61 1.92.22l3.36-3.28s3.36-2.2 4.48 0c2.24 1.1 5.6 3.28 5.6 3.28l1.11 1.1s-3.35-5.48-2.24-7.67c1.12-3.27 2.24 0 2.24 0s7.83 2.2 8.95 2.2c1.12 1.1 1.12 2.18 10.08 9.83 7.83 7.66 3.35-1.1 3.35-1.1v-8.74c-1.12-1.09-6.71-2.18-6.71-2.18-1.12 0-4.48-3.28-4.48-4.37 0-2.2 2.24-3.29 4.48-3.29 1.12 0 8.95 4.38 11.19 4.38 2.24 1.09 2.24 0 2.24 0s2.23-2.19 2.23-3.28a12 12 0 0 1 1.12-5.48c0-2.18 1.12-5.46 3.36-6.55 1.12-1.1 5.6-1.1 5.6-2.2v-7.65c0-1.1 6.71 0 6.71-1.1 1.12 0-1.12-3.28-1.12-3.28l-4.47-2.18c-2.24-2.19-1.12-3.28-1.12-4.37s4.47-1.1 4.47-2.2-1.12-1.09-2.23-3.27 0-3.28 2.23-6.57c2.24-4.37 1.12 0 2.24 0 0 0 6.71 4.38 8.96 5.48 3.35 1.1 2.23-2.2 3.35-3.29s0-4.37 0-5.46c-1.12 0-2.23-1.1-3.35-1.1-1.13-1.09-2.25-3.28-1.13-4.37 0-1.1 5.6-3.29 6.72-4.38 2.24-1.09 4.48 1.1 6.71 2.19a7 7 0 0 1 3.36 5.47s-4.48 4.37-4.48 5.46c-1.12 0 1.12 1.1 1.12 1.1 1.12 1.1 1.12 6.56 1.12 6.56l-4.47 8.75-3.36 6.56-2.24 7.66V68.9s4.48 2.19 6.71 1.1a2.16 2.16 0 0 0 2.24-2.19l1.12-9.84 2.24-7.65v-9.86l4.47-7.66V21.87l8.96-7.66 4.48 8.75-3.36 8.75-1.12 7.66 6.71 5.46 4.48-8.74v-7.66l-3.36-5.47 4.48-8.75-4.48-7.65L502.47 0l6.72 3.28h2.23l5.6-1.1v4.38c1.12 2.19 5.6 3.28 5.6 3.28V6.56l14.54 4.37 10.07-1.09 6.72 4.37s8.95-4.37 12.3-4.37c2.24 0 3.36 3.28 3.36 3.28l5.6 8.75 13.43 9.84-7.83 6.56-1.12 7.66s-17.9 4.37-20.15 4.37c-3.35 1.1-10.07 0-13.43 0-2.24 1.1 2.24 4.38 2.24 4.38h8.96c3.35-1.1 6.71 3.28 6.71 3.28l8.95 2.19 8.96-3.28 1.12 10.93s5.59-6.56 8.95-8.75c2.23-2.19 4.47 6.56 6.71 12.03 2.24 4.37-4.48 7.66-4.48 7.66l-8.95-1.1 1.12 8.74-7.83 7.66s-5.6 4.38-4.48 8.75c1.12 3.28 1.12 13.12 1.12 13.12a23 23 0 0 1-5.6 1.1 1 1 0 0 1-.91-.44 38 38 0 0 1-4.78 4.18l-4.51 5.45 7.9 2.18v9.82l-1.13 6.54-3.38 4.36 4.5 6.55 5.65 8.72 7.9 4.36s1.12-1.09 9.02 0a15 15 0 0 1 10.15 8.72l4.51 5.45 6.77 4.36 3.39 3.27-1.13 9.81s-3.38 5.46-2.26 9.82c0 5.45-3.38 13.08-3.38 15.26 0 1.1-2.26 9.82-2.26 9.82l3.39 7.63 4.5 4.35 6.78 7.64 9.02 9.8 3.39 7.64s9.02 5.45 9.02 6.54 3.38 6.54 3.38 6.54l4.51 7.63-1.12 5.46-3.39 5.45v3.27l3.39 4.36-1.13 4.36 3.38 6.54-2.25 4.36 5.64 2.18s1.13 1.1 0 3.27c-1.13 1.1-2.26 8.73-2.26 8.73l5.64 8.72 7.9 1.09s4.51 0 4.51 1.09c1.13 1.09 2.26 4.36 2.26 4.36l-3.39 6.54a12 12 0 0 0 4.51 5.45c2.26 1.1 4.52 1.1 4.52 3.27 1.13 2.18 1.13 5.45 2.26 4.36a41 41 0 0 1 6.76 1.1l3.39 5.44 2.26 4.37v4.35c0 2.18-1.13 8.73-1.13 8.73l-5.64 8.72s4.51 5.45 7.9 7.63 7.9 5.45 9.02 5.45a36 36 0 0 1 9.02 2.18c1.13 0 5.64 2.18 6.77 3.27s9.03 5.46 9.03 5.46l6.76 3.26 6.77 5.45 2.26 13.09s-2.26 19.62-3.39 21.8c0 2.18-3.38 12-4.5 13.08-2.26 1.1-4.52 2.19-4.52 4.37s-3.38 14.17-3.38 14.17-3.39 7.63-3.39 9.8-3.38 8.73-3.38 10.9c-1.13 1.1-3.39 9.82-3.39 9.82l-14.66 28.35-3.39 10.9s-3.38 1.09-4.5 3.27c-1.14 3.27-2.26 5.45-3.4 8.72 0 2.18-5.63 12-5.63 12L683.5 607l-4.51 5.45-3.38 2.18h-7.9l-3.39-2.18-3.38 2.18c0 1.09-2.26 2.18-2.26 3.27 0 0-1.13 2.18-2.25 2.18-1.13 1.09-2.26 2.18-3.39 2.18 0 1.09-2.25 1.09-2.25 1.09a3.3 3.3 0 0 1-1.13 2.18s-3.39 0-4.51-1.1c-.7-.66-1.8-1.32-2.3-1.74a13 13 0 0 1-1.09 2.84c0 1.1-2.25 4.36-3.38 4.36a8.7 8.7 0 0 1-4.52-2.18h-2.26v7.63a12 12 0 0 0-3.38 1.09s1.12 2.18 0 2.18c-1.13 1.09-2.26 2.18-3.39 2.18 0-1.09-2.25-2.18-2.25-2.18a16 16 0 0 0-2.26 3.27 3.8 3.8 0 0 1-1.13 2.18l-7.9 8.72c-1.12 0-3.38-3.27-3.38-3.27v3.29a16 16 0 0 1-3.38 2.18c0 1.09-1.13 0-2.26 0 0 1.09-1.13 1.09-1.13 2.18a3.8 3.8 0 0 1-1.13 2.18s-2.25 1.1-2.25 2.18a16 16 0 0 1-3.39 2.18 1.6 1.6 0 0 1-2.25 0c-1.13 0-3.39-3.27-3.39-3.27s-2.25 0-2.25 1.09c-1.13 1.1-1.13 2.18-2.26 2.18a4.2 4.2 0 0 1-3.39 1.1c-1.12 1.08-3.38 1.08-3.38 2.17-1.13 0-2.25 2.18-2.25 3.27s2.25 1.1 0 1.1a16 16 0 0 1-5.64 1.08s-2.26 1.1-2.26 2.18c-1.13 1.1 0 1.1-2.26 2.18a4 4 0 0 0-2.25 1.1l-2.26-2.19 1.13-2.18s-1.13-2.18-1.13-1.09c-1.13 2.18 0 3.27 0 3.27a1.1 1.1 0 0 0-1.13 1.1c-1.13 1.08 0 1.08-1.13 2.17a2.4 2.4 0 0 1-2.25 2.18c0 1.1-1.13 1.1-2.26 1.1h-2.25c-1.13 0-2.26-1.1-1.13-1.1l2.26-1.08s1.13-1.1 0-1.1l-2.25-2.17c.02.02 1.08 1.08-2.26 1.08q-3.39 1.64-3.39 0s-2.25 0-1.13-1.08c2.26-1.1 2.26-2.19 3.39-2.19.92 0 1.1-1.46 1.12-2.58q-.4-.23-1.12-.69l-2.26-3.27a3.8 3.8 0 0 0-1.13 2.18c1.13 1.1 3.39 2.18 0 3.27h-3.38c-1.13 1.1-4.51 1.1-4.51 1.1s-2.26 0-1.13 1.08c0 1.1 2.26 2.18 2.26 2.18s0 1.1-2.26 1.1a5.7 5.7 0 0 1-3.38 1.09l-1.13 1.08a1.1 1.1 0 0 1-1.13-1.08 3.8 3.8 0 0 0 1.13-2.19c0-1.08 1.13 0 0-1.08-1.13-2.19-2.26-2.19-2.26-3.28a16 16 0 0 1 3.39-2.17v-2.19s-1.13 0 0-1.09a14 14 0 0 1 2.25-3.27 2.4 2.4 0 0 0-2.25-2.18 11 11 0 0 0-1.13 3.28s1.13 2.17-2.26 1.08c-3.38 0-5.64 0-6.77-1.08 0-1.1-2.25-2.19 1.13-2.19l3.39-1.09a4 4 0 0 0 1.12-3.27c-1.12 0-2.25-2.18-2.25-1.09a8 8 0 0 0-1.13 3.27h-4.51a3.8 3.8 0 0 1-1.13-2.18l1.13-4.36s2.26-1.09 1.13-1.09c0 0-2.26-1.09-2.26 0-1.13 0 0 1.09 0 2.18s0 2.18-1.13 2.18c-1.12 1.1-5.64 1.1-5.64 1.1 0-1.1-1.12-1.1 0-2.19v-2.18s-1.12-2.18-1.12-1.09h-2.26v-2.18h-3.38l-1.13-1.09c-1.13 0-1.13 0-1.13 1.1a26 26 0 0 0-4.51 1.08s0-2.18-1.13 0c0 1.1-5.64 1.1-5.64 1.1a11 11 0 0 1-1.13-3.28l1.13-3.27 1.13-1.09-1.13-1.1h-2.26c0-1.09 2.26-3.26 2.26-3.26l1.13-1.1c1.13-1.08 3.38-1.08 2.25-2.17a4 4 0 0 1-2.25-1.1 1.1 1.1 0 0 1-1.13-1.09 11 11 0 0 0 1.13-3.27 3.8 3.8 0 0 0-1.13-2.18c-1.13 0 0 1.1-2.26 1.1a45 45 0 0 1-4.5 3.26v-3.26c1.12-1.1 4.5-1.1 5.63-2.19 0-1.08-2.25-4.36-2.25-4.36s2.25 1.1 1.12-1.09l-2.25-1.09a4 4 0 0 1 1.13-3.27c1.12-2.18 2.25-2.18 2.25-3.27 0 0-3.38-1.1-3.38-2.18s-2.26-1.09 0-3.27a3.6 3.6 0 0 1 2.25-1.1v-4.35c0-1.1 1.13-1.1 1.13-2.18-1.13-1.1-2.26-1.1-3.38-3.27v-2.18c1.13 0 2.25-1.1 1.13-1.1v-2.17l-1.13-2.18c-1.13-1.1-1.13-3.27-1.13-4.36a46 46 0 0 1 1.13-5.45s0-3.27-2.26-4.36a8.3 8.3 0 0 0-3.38-3.27v-3.27s-2.26-1.1-2.26-2.18a11 11 0 0 0-1.13-3.28s-1.13 0 0-2.17v-5.46a8 8 0 0 1-2.25-4.36v-3.28a3.3 3.3 0 0 0-1.13-2.18 67 67 0 0 1-4.51-6.54s-1.13 0-1.13-2.18a10.5 10.5 0 0 1-1.13-4.36v-3.27l-3.38-3.27 1.13-4.36v-4.36s0-5.45 1.12-5.45 3.39-3.28 3.39-3.28 2.25-3.27 1.13-4.35a46 46 0 0 0-1.13-5.46s2.25-3.27 1.13-3.27c0-1.09-2.26-5.45-2.26-5.45l-3.38 3.27-2.26-1.09 1.13-4.36s-2.26-2.18-2.26-3.27 2.26-3.27 2.26-3.27 2.25 4.36 2.25 5.45 2.26 2.18 2.26 2.18c1.13-1.09 1.13-3.27 2.26-3.27a2.4 2.4 0 0 1 2.25 2.18l4.51-1.1s-1.13-1.08 2.26-1.08c3.38 1.09 3.38 0 3.38-2.18 0-1.1-3.38-5.45-1.13-5.45 3.39 0 4.52 1.09 4.52 1.09v2.18c0 2.18 3.38 4.36 3.38 2.18 1.13-2.18 1.13-1.09 1.13-3.27s-2.26-2.18-3.39-4.36c0-.41-.15-.36-.35-.31-.33.08-.77.17-.77-1.87 1.12-3.27 1.12-4.37 2.25-4.37l2.26-1.08c2.26 0 3.38-2.19 2.26-5.46 0-2.18-1.13-3.26 0-4.36 2.25-1.09 1.12-2.17 3.38-1.09s1.13 1.09 3.38 1.09c1.13-1.1 1.13-6.54 1.13-6.54-1.13 1.09-3.39-1.1-3.39-1.1-1.12 0-1.12-2.17 0-3.26 0 0 0-2.18 1.13-2.18 2.26 0 2.26 1.09 4.52 0l2.25-2.19c1.13-1.08 2.26-1.08 3.38-3.26 0-1.1 1.13-7.64 1.13-7.64-1.13-1.09 1.13 0 3.39-1.09 1.12-1.09 2.25-7.63 3.38-8.72 1.13-2.18 4.51-6.54 4.51-7.63s3.39-8.72 3.39-8.72l4.5-7.64a11 11 0 0 0-1.12-4.35c0-1.1-1.13-5.45 0-6.55 1.13 0 2.26-3.27 2.26-3.27v-4.36l5.64-3.27c6.77-1.09 2.26-4.36 10.15-1.09 0 0 4.51-1.09 3.38-2.18l-4.5-4.36 2.25-3.27s3.39-2.17 0-3.27c-2.26-1.08-4.51-2.18-4.51-3.27a46 46 0 0 1-1.13-5.45 24 24 0 0 0-1.13-4.36v-5.45a11.3 11.3 0 0 0-2.25-5.45 96 96 0 0 0-5.64-4.36l-7.9-3.28-2.26 2.19-5.64-5.45-4.51-1.1h-4.51l-4.34-8.97 3.3 7a14 14 0 0 0-3.34 2.2 3.4 3.4 0 0 0-1.12 2.18s3.35 3.28 3.35 4.37v4.38l-2.23 2.19-2.24-3.28v-2.19c0-1.1-1.12-2.2-1.12-3.28h-1.11c-1.12 0-1.12-1.1-2.24-2.2s0 0-1.11 0a4 4 0 0 0-2.24 1.1 8 8 0 0 0 2.24 4.38c0 1.1-1.12 2.19 0 3.29v2.18c0 1.1-3.35-1.1-3.35-1.1v-5.46c-1.12-1.1-2.24-2.19-3.36-2.19h-1.12c0-1.1 0-1.1-1.11-2.2-1.12 0 0 1.1 0 2.2h-2.24a4 4 0 0 0-2.23-1.1h-2.23v2.19l-4.47 2.19-3.36 1.09a3.4 3.4 0 0 1-1.12 2.19c-2.23 1.09-2.23 1.09-3.35 1.09s-2.23 2.19-2.23 2.19c0 1.09 1.11 1.09 2.23 1.09 1.12 1.1 0 4.38 0 4.38a11 11 0 0 0-1.12 3.28c-1.11 0-2.23 2.18-4.46 1.1-1.12-1.1-2.24 2.18-2.24 2.18v3.28c-1.11 0-2.23-2.18-2.23-3.28l-4.47-1.1v3.28l1.12 3.28-3.36 1.1s-2.23 1.1-2.23 2.19l-1.12 1.1s1.12 2.18 2.24 2.18 1.11 3.28 1.11 3.28 0 2.19-1.11 2.19a3.5 3.5 0 0 0-2.24-1.09 3.8 3.8 0 0 0-1.11 2.18c-1.12 0-1.12 3.29-1.12 3.29a47 47 0 0 1 1.12 5.46 3.8 3.8 0 0 1-1.12 2.2l-2.24 3.28-2.23 3.28a3.8 3.8 0 0 1-1.12 2.18l-2.23 3.28 2.23 2.19 1.12 2.18 2.23 3.28-1.11 2.2 2.23 2.18h3.35l4.47 3.28 2.24 4.38v3.28h-1.12a24 24 0 0 1-1.12 4.37l-3.35 4.38s-1.12 3.28-2.24 3.28a3.8 3.8 0 0 1-1.11 2.18l-2.24 5.48v6.55l-2.23 4.38a11 11 0 0 0-1.12 4.37 1.1 1.1 0 0 1-1.12 1.1s-2.23 5.47-3.35 5.47c0 1.09-2.23 1.09-2.23 2.18a3.4 3.4 0 0 0-1.12 2.18l-3.35 4.38a4 4 0 0 0-2.24 1.1l-3.35 1.09s-3.35 3.28-3.35 4.37l-3.35 3.28v3.28a11 11 0 0 0-1.12 3.28 4 4 0 0 0-2.23-1.1v1.1h-3.36l1.12-2.2c0-1.08-2.23 0-2.23 0l-2.24 2.2-1.12 1.09v3.28l-2.23 5.47c0 1.1-1.12 3.29-1.12 4.37a4 4 0 0 0-2.23 1.1l-2.24 2.19c-1.11 1.1-2.23 1.1-2.23 0l-3.35 3.28-3.35 3.28a44 44 0 0 0 3.35 4.38c0 1.1-2.24 1.1-3.35 1.1v2.18l-3.35 6.56c0 1.09 0 1.09-1.12 2.19a1.57 1.57 0 0 1-2.24 0l-2.23 4.37a4 4 0 0 1-2.24 1.1l-1.12 3.27v3.28l-2.23-1.09 1.12 3.29-1.12 4.37c0 1.1-3.35 3.28-3.35 3.28l-2.24 3.28h-4.47l-2.23 6.56 2.23 2.2 1.12 2.18 3.35 3.28-1.11 6.56-1.12 7.65-1.12 2.2c-1.12 0 1.12 4.37 1.12 4.37s0 5.47 1.12 6.56c0 0 2.23 2.2 2.23 3.28l1.12 3.28c0 1.1-3.35 0-3.35 0l-3.36-2.18c-1.11 0-2.23 2.18-2.23 2.18v4.38c-1.12 0-2.24 2.19-2.24 2.19l2.24 2.19-1.12 3.27v4.38h2.24l2.23 4.37c0 1.1-2.23 5.47-2.23 5.47s4.47 9.84 4.47 10.94l-2.24 3.28 3.35 4.37v2.2s3.36 2.18 3.36 3.27c1.11 1.1-1.12 3.28-1.12 3.28v3.28l4.47 1.1H378a26 26 0 0 1 4.47 1.1v4.37l1.12 2.2 3.35-3.29 5.59-3.28s1.11 3.28 2.23 3.28l1.12 3.28 4.47 4.37c1.12 2.2 2.23 2.2 2.23 2.2 1.9 4.95 2.37 3.94 3.22 2.93.66-.78 1.55-1.55 3.48.35l2.24 2.18s2.23 2.19 2.23 4.38c0 1.09-2.23 1.09-2.23 1.09l2.23 4.37a7 7 0 0 0 4.43.53c1.83-.26 3.17-.52 4.51 2.76l2.24 2.18c0 1.1 2.23 1.1 2.23 1.1l5.59 4.37 3.35 3.28-1.12 2.2s-5.59 3.27-6.7 3.27a2.4 2.4 0 0 0-2.23 2.19 4.2 4.2 0 0 0-3.36 1.1c-2.23 1.09-1.11 1.09-2.23 2.18s0 3.29 0 3.29h2.23c1.12 0 2.24-2.19 2.24-2.19 1.12-1.1 2.23 0 2.23 1.1s0 1.1-1.12 2.18c0 1.1-11.17 6.56-11.17 10.93 2.24 1.1 10.06 5.48 10.06 8.75 0 0-3.36 3.28-4.47 3.28s-2.24-2.18-2.24-3.28c-1.11-1.09-2.23 1.1-2.23 1.1l1.11 3.26 2.23 1.1a11 11 0 0 0-1.11 3.28l-2.24 4.37c-3.35 2.2-1.12 2.2-7.82 3.28-1.12 0 0 2.2 0 3.28 1.12 2.2-3.35 2.2-3.35 2.2l-1.12 6.56-1.12 1.09c-1.11 0 0-3.28 0-3.28l-1.11-3.29-3.36-1.08v-6.57l-1.11-3.28s-2.24-4.37-3.35-2.19c0 3.28 2.23 13.12 1.11 13.12 0 2.2 0 3.29-1.11 3.29v4.37s-8.94 5.47-8.94 6.56c-1.12 0-3.36 3.29-3.36 3.29s-7.82 3.28-10.05 4.37c-1.12 0-1.12 2.19-1.12 2.19l4.47 1.09 1.12 6.56-2.24 2.2-1.11 2.18v2.18a14 14 0 0 1 2.23 3.28c1.12 1.1-1.12 2.2-1.12 2.2l2.24 6.56v6.56c1.11 1.09-2.24 6.55-2.24 6.55v2.2s2.24 9.84 2.24 10.93-2.24 4.38-2.24 4.38l3.35 9.84s-4.46 5.46-4.46 6.56 1.11 6.56 1.11 6.56 1.12 5.47 2.24 8.75c2.23 3.28-2.24 6.56-2.24 6.56s-2.23 7.66-2.23 8.75V899c1.12 0-3.35 3.28-3.35 3.28l-3.36 21.88s-4.46 7.65-5.58 7.65c0 1.1-3.35 3.29-5.59 3.29-3.35-1.1-2.23-1.1-2.23-1.1l-5.59-2.19-2.23 2.19-5.59-1.1s-4.47 1.1-5.58 0c-2.24-1.1-4.48 1.1-4.48 1.1l-3.35 1.1s-4.47-1.1-6.7 0c-1.12 1.1-1.12 2.18 2.24 4.37 3.35 1.1 1.11 2.19 1.11 2.19l2.24 2.18c1.12 0 1.12 3.28 1.12 4.38a1.1 1.1 0 0 1-1.12 1.09h-3.35c-2.23 0-1.12-1.1-1.12-2.19-1.11-1.1-2.23-1.1-2.23-2.18-1.12 0-3.36-2.19-4.47-3.28s-1.12 1.1-4.47 3.28-2.23 4.37-2.23 4.37v5.47a17 17 0 0 1-1.12 4.37c0 2.2 1.12 3.28 2.23 3.28 1.12 1.1 1.12 4.38 2.24 5.48 0 1.09 2.23 4.37 2.23 4.37s4.47 2.19 5.59 3.28-1.12 3.28-1.12 3.28c-1.12 0-2.24-2.18-2.24-2.18h-4.46c-1.12 0 0 2.18 0 2.18l-4.47 1.1-3.35 1.1h-3.36s-2.23-1.1-2.23-2.2-3.35-1.08-3.35-1.08a26 26 0 0 0-4.47-1.1l-2.24 3.28v2.17l-3.35 2.2-4.47 2.18a28 28 0 0 1-4.47.48 3.6 3.6 0 0 1-2.23-.48m-69.28-208.9h3.36l.56-.27-1.7-.84v1.1h-2.22Zm11.17-21.88-3.36 6.56-1.12 7.65-1.12 6.57-.08.07.1-.05 1.12-6.56 1.12-7.66 3.35-6.56v-6.58Zm-20.15 14.21v.33l.05-.3v-6.55l-.05-.04Zm7.84.01-1.1-.92Zm8.95-36.1-3.36 1.1 2.24 6.56 1.57 2.68-1.55-2.66-2.24-6.56 3.36-1.1 3.35-3.28 1.12-5.47h-.02l-1.11 5.44-2.24 2.2h-1.12Zm4.47-16.4-2.23 2.18v3.29-3.26l2.24-2.18c1.12-1.1 3.36 0 3.36 0l3.35-1.1 3.35-3.29s3.94-2.89 4.42-4.14c-.53 1.27-4.42 4.12-4.42 4.12l-2.23 2.2h-4.48l-1.12 1.08h-1.12Zm14.55-24.06 2.1-3.09Zm-3.36-45.94-5.59 5.48v.02l5.59-5.46 5.58-1.1s6.62 0 5.61-1.07c-.18 1.04-5.59 1.04-5.59 1.04h-4.48Zm11.2-2.44q.04-.33.16-.83h-.16Zm1.12-6.3v1.7l.78-2.8h-.78Zm-17.91-31.72-1.12-33.88zm-7.83-55.78a5.1 5.1 0 0 0-1.12 6.57 12 12 0 0 0 1.07 2.53 12 12 0 0 1-1.06-2.5 5.1 5.1 0 0 1 1.12-6.56c.93-.92.31-2.58.08-3.12.24.57.82 2.2-.1 3.08m1.12-14.2-2.24 3.27 1.12 7.66v.02l-1.1-7.65zv-6.56l-.01-.02Zm2.24-48.13-2.24 10.93-1.12 7.66s-3.36 4.37-3.36 6.56v7.66l1.13 2.2-1.11-2.18v-7.65c0-2.2 3.35-6.56 3.35-6.56l1.12-7.66 2.23-10.94 14.53-18.59.67-.03h-.66Zm36.2-19.45 5.15-.2.01-.04Zm16.37-125.98.26-.03h-.24Zm8.16-.89 1.84-.2.03-.02a10 10 0 0 0-1.87.22m217.48-31.91 6.6 3.23-.05-.12-6.64-3.2ZM306.63 239.5v.85c.2-.39.56-1.12.93-1.94h-.93Zm1.12-2.18v.67c.27-.61.53-1.24.72-1.77h-.72Zm162.98.03 4.07-1v-.03l-4.1 1Zm-141.9-12.03h5.59l.02-.03H329l-11.2-5.47-.04.09ZM457 198.51l-.24-.34a4 4 0 0 1-1.02 1.2c.5.02.97-.46 1.26-.86m-85.7-2.72.18-.03q-.16 0-.57-.04Zm-2.58-.49a10 10 0 0 1-1.65-.64 10 10 0 0 1-1.2-.04c.92.26 1.94.5 2.86.68Zm-5.24-1.7a3 3 0 0 0 .95.54 4 4 0 0 1-.72-.57c-1.12-1.1-6.72-3.28-7.83-3.28l-.1.04c1.36.13 6.62 2.21 7.7 3.27m-8.64-3.05c-4.15.63-16.87-.26-16.87-.26l-.03.04c1.48.1 13.25.87 16.9.22m73.21-7.53-.62-.12a3 3 0 0 1-.54.7c.5.17.92-.25 1.17-.58Zm-24.3-44.82 4.5 1.1 7.9 8.72 6.78 7.63s10.15 7.62 12.4 8.72 14.67 3.27 15.8 4.36l.48-.62c-2.63-1.16-13.1-3.07-15.15-4.07-2.24-1.1-12.31-8.75-12.31-8.75l-6.71-7.66-7.84-8.75-4.48-1.09v-1.09h-4.45a6 6 0 0 1 3.08 1.5m64.3 20.72 11.27 2.18 4.52 3.27a3 3 0 0 0 1.17-.33h-.44l-4.47-3.28-11.19-2.19-4.47-3.27-.77.44Zm18.43 4.35a1.5 1.5 0 0 0 1.04-.32h-.71Zm-104-7.95 1.4-1.14-.03.02a4 4 0 0 0-2.24 1.1h-2.23l-.06.03Zm6.2-3.69a28 28 0 0 1 4.91-.35v-.33a14 14 0 0 0-4.91.69Zm4.91-.91v-.09l-4.14-.8-.1.06Zm168.08-49.59v3.27c0 2.18 1.13 5.45 2.26 6.54 0 .95 4.24 3.53 5.37 4.2l.33-.32s-5.6-3.27-5.6-4.37c-1.12-1.1-2.24-4.37-2.24-6.56v-3.28a19 19 0 0 1 .24-3.37 17 17 0 0 0-.36 3.9Zm1.15-5.89.1-.1a11 11 0 0 1 .2-1.96 14 14 0 0 0-.3 2.06m-65.94-2.28-2.23 1.08a2 2 0 0 0-.53.49l2.12-1.03 3.39-2.18v-.15Zm34.33-27.8c2.26 3.27 2.26 5.45 6.77 6.54l13.54 4.36 7.9 1.09 2.25 2.18c0 2.18 0 4.36 1.13 5.45a21 21 0 0 0 1.1 5.33l.13-.44a22 22 0 0 1-1.12-5.47c-1.12-1.09-1.12-3.28-1.12-5.46l-2.24-2.2h-1.12l-6.71-1.1-13.43-4.36c-4.48-1.1-4.48-3.29-6.71-6.57-2.25-1.1-6.72 0-10.08 0l-4.47 4.39-.08.24 4.11-3.98c2.26 0 5.02-.48 7.27-.48a7 7 0 0 1 2.88.48m-29.85 12.48c-1.87.27-2.91.78-3.41 1.48a7 7 0 0 1 2.8-.88l3.4-2.18h10.15l.2-.6h-9.78Zm-125.6 848.69 1.12-8.76-2.23-3.28c0-1.09-1.12-3.28-1.12-6.56 1.12-3.28 1.12-4.37 2.23-6.55 0-2.2 2.24-3.29 2.24-5.48 0-3.28 0-4.37 1.12-6.56 0-2.18 1.11-4.37 2.23-4.37 0-1.1 2.23-5.47 2.23-5.47l1.12-5.47s2.24-5.46 2.24-6.56-1.12-5.47-1.12-6.56l3.35-3.28h3.35s0 3.28-1.11 4.37a4 4 0 0 0-2.24 1.1c0 1.1 2.23 3.27 2.23 3.27v4.38l-2.23 4.38-2.23 5.46v5.47l-1.12 3.28-1.12 3.28-2.24 6.56 1.12 5.47-3.35 6.56v12.04s0 3.28-1.12 3.28Zm49.17-47.03c-4.47 0 0-1.1 1.11-3.28l2.24-4.37-1.12-4.38-2.23-3.28-3.36-4.37-1.11-2.2 3.35-1.08a47 47 0 0 1-1.12-5.48c0-1.09-1.12 0-2.23-2.18-1.12-1.1-1.12-4.38-1.12-4.38a24 24 0 0 1 1.12-4.37 80 80 0 0 1 5.58-6.56c3.36-3.28 2.24-3.28 2.24-5.47-1.12-1.1 1.12-2.19 1.12-2.19l3.35-3.28 2.23-5.47 3.35 3.29c1.12 0 1.12-1.1 1.12-2.19s2.24-1.1 2.24-1.1a26 26 0 0 0 4.46-1.1l1.12-2.18s4.47-1.1 6.7 0c1.12 1.1-1.11 1.1-1.11 2.18v2.2c0 1.08-1.12 2.18-4.47 2.18-3.35 1.09-1.12 3.28-1.12 3.28v4.37c-1.12 1.1-3.35 3.28-5.58 3.28a5.3 5.3 0 0 0-1.12 3.28c0 1.1 1.12 3.28 1.12 5.48 0 1.09 0 1.09 1.11 3.28 0 1.09 2.24 1.09 3.35 1.09 0 1.1 2.24 3.28 1.12 4.37s-2.23 2.19-3.35 2.19c0 1.1-2.23 4.38-2.23 4.38a5.2 5.2 0 0 1 0 4.37c0 2.19-2.24 1.1-3.36 2.19l-3.35 3.28c-1.12 0-2.23 4.37-2.23 6.56V876c0 1.1 0 0-2.24 3.28-1.31 1.29-1.94 1.73-2.42 1.74-.74 0-1.13-1.07-3.16-1.73ZM204.7 810.46l-.87.43Zm.01 0h-.01Zm.02-.02-.02.02Zm.05-.02-.05.02Zm.02 0h-.02Zm235.03-117.28v-4.37h3.39c1.13 0 2.25-1.08 3.38 0s0 3.27 0 3.27c-1.12 1.1-2.25 2.19-3.38 2.19a4.2 4.2 0 0 1-3.39-1.1m25.95-4.37c0-1.08-2.26-2.18 1.13-3.26l3.38-2.19h2.26c1.12-1.09 3.38 0 3.38 0 0 1.1 1.13 1.1-1.13 2.19l-2.25 1.08c-1.13 0 0 1.1-1.13 1.1-1.56.74-3.65 2.02-4.8 2.02-.52 0-.84-.26-.84-.94m-6.77 0c-1.13-1.08-2.26-3.26-3.38-3.26s0-1.1-2.26-1.1c-3.38 0 0 1.1-4.51 0-3.39-2.18-3.39-2.18-4.51-2.18a5.7 5.7 0 0 1-3.39-1.09 5.3 5.3 0 0 1 1.13-3.27c1.13-1.09 1.13-1.09 2.26-1.09 1.12-1.09 1.12-4.36 1.12-4.36s4.52-2.18 4.52-1.09-1.13 4.36 1.12 3.27c1.13 0 1.13-2.18 1.13-2.18v-2.18a16 16 0 0 1-2.25-3.27s-1.13-3.27 1.12-3.27h4.52a5.3 5.3 0 0 1 1.12 3.27c1.13 1.1 4.51 2.18 4.51 1.1h1.13c1.13 1.08 4.51 1.08 3.38 2.17 0 0-2.25 2.18-2.25 3.27-1.13 0-4.51-1.09-1.13 2.18 2.26 3.27 3.38 2.18 3.38 3.27a2.4 2.4 0 0 1-2.25 2.18c-1.13 0-2.26 0-2.26-1.09-1.12-1.09-1.12-2.18-2.25-2.18-2.26 0-1.13 3.27 0 3.27l6.76 2.18s-2.25 3.27-2.25 4.37c-.9 0-1.8 1.39-3.28 1.39a3 3 0 0 1-1.23-.3m86.86-3.26v-2.19a12 12 0 0 0 3.38-1.09l2.26 2.18a16 16 0 0 1-3.38 2.18 4 4 0 0 1-2.26-1.08m-14.67 0v-2.19a4 4 0 0 1 2.26-1.09s1.13-1.09 1.13 0c1.13 0 2.26 1.09 1.13 2.18a3.6 3.6 0 0 1-2.26 1.1 2.5 2.5 0 0 1-1.55.81c-.42 0-.71-.27-.71-.81m20.4-1.14-.09.04Zm.04-.02-.03.01Zm.15-.08-.14.07Zm.32-.15-.32.16Zm.4-.2-.4.2Zm-76.58-6.05a2.4 2.4 0 0 1 2.25-2.18c0 1.1 1.13 1.1 1.13 2.18-1.13 1.1-1.13 2.19-2.25 2.19s-1.13-2.2-1.13-2.2Zm27.07-4.36a1.47 1.47 0 0 1 0-2.18l1.13-1.09a3.8 3.8 0 0 0-1.13-2.18c1.13-1.09 3.38 0 3.38 0 0 1.1 0 2.18 1.13 1.1s1.13-2.19 2.26-3.27h1.13a5.7 5.7 0 0 0 3.39 1.08s3.38-1.08 3.38 0c0 0 2.26 3.27 1.13 3.27s-4.52-1.09-5.64-1.09-1.13 2.18-2.26 2.18c0 1.1-2.26 3.27-3.38 3.27a5 5 0 0 0-3.39 1.1s-1.12-.01-1.12-2.19Zm-27.07 1.09c-1.13-2.18 0-3.27 0-3.27 1.13 0 2.26-1.09 2.26 0 0 0 3.38-1.09 1.13 1.1a27 27 0 0 0-3.32 2.6q-.09 0-.07-.43m19.18-4.36s-1.13-2.18 1.13-2.18h2.25c1.13 1.09 2.26 0 2.26 1.09-1.13 1.1 0 2.18-1.13 2.18a12 12 0 0 1-4.51-1.09m-10.15-12c0-1.08 1.12 0 1.12-1.08s-2.25-1.1-1.12-3.27c1.12-1.1 1.12-4.36 2.25-1.1 2.26 2.19 1.13 2.19 2.26 4.37 0 2-2.12 4-3.5 4-.87 0-1.45-.8-1.01-2.91Zm-217.5-396.87v.04q-.19-.04 0-.04M427.49 66.71l-5.59-2.2a6.7 6.7 0 0 1 2.24-4.36c2.24-1.1 4.47-2.2 4.47-3.28a3.3 3.3 0 0 1 0-4.38c2.24 0 2.24-2.19 5.6-2.19 2.24 1.1 3.36 1.1 3.36 3.28-1.12 2.19 0 2.19-1.12 3.28s-3.36 1.1-4.48 4.38a13 13 0 0 1-1.12 5.47c0 .36-.37.48-.87.48a10 10 0 0 1-2.49-.48m-20.14-5.47c0-1.1-3.36-4.37-3.36-4.37 0-1.1-2.24-3.29 1.12-4.38 2.24-2.18 10.07-5.47 11.2-5.47a67 67 0 0 1 4.47-6.56h7.83a9.8 9.8 0 0 0 6.54 1c1.56-.39 2.64-.78 1.3 1.18-3.36 2.2-4.48 3.29-5.6 3.29-1.12 1.09-6.71 5.47-6.71 7.65-1.12 2.19 0 2.19-1.12 3.28-2.24 1.1-8.96 4.38-10.08 5.47-1.12 0-2.51.28-3.63.28s-1.96-.27-1.96-1.37" transform="translate(56.577 1450.115)"/><path id="Background" fill="none" d="M0 0h1052v968H0z" transform="translate(-6.138 1477)"/><circle id="Ellipse_20" cx="7" cy="7" r="7" fill="#417da5" opacity="0.741" transform="translate(447.862 2148)"/><ellipse id="Ellipse_21" cx="7.5" cy="7" fill="#417da5" opacity="0.741" rx="7.5" ry="7" transform="translate(442.862 2164)"/><circle id="Ellipse_22" cx="7" cy="7" r="7" fill="#417da5" opacity="0.741" transform="translate(236.862 2164)"/><ellipse id="Ellipse_23" cx="7" cy="7.5" fill="#417da5" opacity="0.741" rx="7" ry="7.5" transform="translate(431.862 2152)"/><circle id="Ellipse_24" cx="7.5" cy="7.5" r="7.5" fill="#417da5" opacity="0.741" transform="translate(425.862 2167)"/></g></g></svg>