<svg xmlns="http://www.w3.org/2000/svg" xmlns:xlink="http://www.w3.org/1999/xlink" width="800" height="800" viewBox="0 0 800 800">
  <defs>
    <radialGradient id="radial-gradient" cx="2.411" cy="1.417" r="2.475" gradientTransform="translate(0 -0.007) scale(1 0.963)" gradientUnits="objectBoundingBox">
      <stop offset="0" stop-color="#32cd32"/>
      <stop offset="1" stop-color="#eafcea"/>
    </radialGradient>
    <radialGradient id="radial-gradient-2" cx="0.5" cy="0.5" r="0.5" gradientUnits="objectBoundingBox">
      <stop offset="0" stop-color="#fff"/>
      <stop offset="1" stop-color="#fff" stop-opacity="0"/>
    </radialGradient>
    <clipPath id="clip-Backup">
      <rect width="800" height="800"/>
    </clipPath>
  </defs>
  <g id="Backup" clip-path="url(#clip-Backup)">
    <rect width="800" height="800" fill="url(#radial-gradient)"/>
    <circle id="Ellipse_51" data-name="Ellipse 51" cx="322" cy="322" r="322" transform="translate(-111 54)" opacity="0.888" fill="url(#radial-gradient-2)"/>
    <g id="Bubbla" transform="translate(474.758 267.859)">
      <circle id="Ellipse_53" data-name="Ellipse 53" cx="154" cy="154" r="154" transform="translate(0.242 0.141)" fill="#e0e0e0" style="mix-blend-mode: color-burn;isolation: isolate"/>
      <path id="cloud-arrow-up" d="M51.471,192.131A51.484,51.484,0,0,1,34.385,92.085q-.07-1.448-.071-2.9A57.194,57.194,0,0,1,141.08,60.666a31.789,31.789,0,0,1,19.051-5.79A34.118,34.118,0,0,1,194.445,89.19a34.7,34.7,0,0,1-2.288,12.367,45.749,45.749,0,0,1-9.15,90.574Zm28.237-77.563a8.263,8.263,0,0,0,0,11.831,7.764,7.764,0,0,0,11.831,0L105.8,112.745v47.932a8.578,8.578,0,0,0,17.157,0V112.745L136.9,126.4a8.366,8.366,0,1,0,11.831-11.831L120.134,85.973a8.263,8.263,0,0,0-11.831,0Z" transform="translate(40.242 30.141)" fill="#e0e0e0" style="mix-blend-mode: color-burn;isolation: isolate"/>
    </g>
  </g>
</svg>
