<svg xmlns="http://www.w3.org/2000/svg" width="350" height="200" viewBox="0 0 350 200">
  <g id="safespring_logotype_blue_svg" transform="translate(60.688 75.067)">
    <rect id="Rectangle_289" data-name="Rectangle 289" width="350" height="200" transform="translate(-60.688 -75.067)" fill="#e8eff3"/>
    <path id="Path_4871" data-name="Path 4871" d="M720.8,492.7a14.315,14.315,0,0,0-28.463,0,14.315,14.315,0,0,0,1.575,28.57H706.56a7.992,7.992,0,0,0,0-15.984,4.663,4.663,0,1,1,3.3-7.972,1.665,1.665,0,1,0,2.36-2.348,7.992,7.992,0,1,0-5.657,13.624,4.663,4.663,0,1,1,0,9.326H693.909a10.99,10.99,0,1,1,0-21.98,1.661,1.661,0,0,0,1.661-1.661,10.99,10.99,0,0,1,21.98,0,1.665,1.665,0,0,0,1.665,1.661,10.99,10.99,0,1,1,0,21.98,1.665,1.665,0,0,0,0,3.329,14.315,14.315,0,0,0,1.579-28.549Z" transform="translate(-680 -480)" fill="#417da5"/>
    <path id="Path_4872" data-name="Path 4872" d="M843.474,541.719c-.818-.327-1.554-.573-2.618-.937-1.918-.614-3.8-1.309-3.8-2.9s1.227-2.409,3.1-2.409a7.113,7.113,0,0,1,4.908,2.086l1.636-2.413a8.5,8.5,0,0,0-6.618-2.532c-3.432,0-6.544,1.963-6.544,5.554a5,5,0,0,0,3.063,4.659,14.344,14.344,0,0,0,2.655,1.023c1.309.45,4.377,1.1,4.377,3.24s-1.922,2.777-3.718,2.777a7.976,7.976,0,0,1-5.726-2.777l-1.877,2.286a9.3,9.3,0,0,0,7.559,3.472,8.27,8.27,0,0,0,5.391-1.718,5.509,5.509,0,0,0,2-4.409,4.789,4.789,0,0,0-1.55-3.6,7.458,7.458,0,0,0-2.245-1.4Z" transform="translate(-770.425 -511.131)" fill="#417da5"/>
    <path id="Path_4873" data-name="Path 4873" d="M882.459,532.61a14.941,14.941,0,0,0-7.272,1.963l1.186,2.614a11.906,11.906,0,0,1,5.841-1.677c2.818,0,4.822,1.472,4.822,4.413v.777l-5.19.2c-4.5.2-7.6,2.123-7.6,5.922s3.1,6,6.7,6a7.941,7.941,0,0,0,6.172-2.884l.041,2.454h3.8v-11.3c0-3.309-.773-4.941-2.082-6.291S885.686,532.61,882.459,532.61Zm4.618,14.626a6.106,6.106,0,0,1-4.945,2.818c-2.532,0-4-1.513-4-3.35s1.268-3.186,4.413-3.35l4.536-.286Z" transform="translate(-795.205 -511.131)" fill="#417da5"/>
    <path id="Path_4874" data-name="Path 4874" d="M956.5,532.61a9.626,9.626,0,0,0-9.845,10.05c0,6.127,3.963,10.172,9.722,10.172s8.291-2.863,8.536-3.064l-1.636-2.25a10.729,10.729,0,0,1-6.413,2.25c-3.6,0-6.045-2.327-6.25-6.168h14.954a16.873,16.873,0,0,0,.123-1.718A8.859,8.859,0,0,0,956.5,532.61Zm-5.841,8.377a5.71,5.71,0,0,1,5.726-5.558,5.629,5.629,0,0,1,5.6,5.558Z" transform="translate(-837.999 -511.131)" fill="#417da5"/>
    <path id="Path_4875" data-name="Path 4875" d="M1007.772,541.719c-.818-.327-1.554-.573-2.614-.937-1.922-.614-3.8-1.309-3.8-2.9s1.227-2.409,3.1-2.409a7.121,7.121,0,0,1,4.908,2.086l1.636-2.413a8.5,8.5,0,0,0-6.618-2.532c-3.432,0-6.544,1.963-6.544,5.554a5,5,0,0,0,3.063,4.659,14.574,14.574,0,0,0,2.655,1.023c1.3.45,4.372,1.1,4.372,3.227s-1.918,2.777-3.718,2.777a7.968,7.968,0,0,1-5.726-2.777l-1.881,2.286a9.3,9.3,0,0,0,7.559,3.473,8.263,8.263,0,0,0,5.391-1.718,5.514,5.514,0,0,0,2-4.409,4.79,4.79,0,0,0-1.554-3.6A7.41,7.41,0,0,0,1007.772,541.719Z" transform="translate(-867.518 -511.131)" fill="#417da5"/>
    <path id="Path_4876" data-name="Path 4876" d="M1049.334,532.607a8.229,8.229,0,0,0-6.884,3.432h-.082v-3.063h-3.759v26.786h3.922V549.315l.041.041a7.539,7.539,0,0,0,6.7,3.473c5.759,0,9.436-4.413,9.436-10.172S1055.052,532.607,1049.334,532.607Zm-.818,16.872c-3.882,0-6.168-2.982-6.168-6.863s2.286-6.822,6.168-6.822,6.168,2.941,6.168,6.822S1052.4,549.478,1048.516,549.478Z" transform="translate(-892.34 -511.128)" fill="#417da5"/>
    <rect id="Rectangle_290" data-name="Rectangle 290" width="3.922" height="19.404" transform="translate(182.259 21.847)" fill="#417da5"/>
    <path id="Path_4877" data-name="Path 4877" d="M1154.149,532.607a6.544,6.544,0,0,0-5.935,3.432h-.123l.041-3.064h-3.922V552.4h3.922v-9.784c0-3.718,1.35-6.781,4.986-6.781,3.469,0,4.041,2.454,4.041,5.726V552.4h3.922V540.9C1161.094,536.243,1159.667,532.607,1154.149,532.607Z" transform="translate(-954.748 -511.128)" fill="#417da5"/>
    <path id="Path_4878" data-name="Path 4878" d="M1207.077,532.978l.041,3.064H1207a7.756,7.756,0,0,0-6.781-3.432c-4.982,0-9.354,3.6-9.354,9.763s4.372,9.763,9.354,9.763a7.768,7.768,0,0,0,6.781-3.473h.082v.765a8.747,8.747,0,0,1-1.468,5.436,6.621,6.621,0,0,1-5.317,2.123,12.326,12.326,0,0,1-6.953-2.454l-1.837,2.736a14.9,14.9,0,0,0,8.659,2.9c4.822,0,7.231-1.959,8.663-3.718s2.123-4.09,2.123-8.373v-15.1Zm-6.045,15.952c-3.963,0-6.168-2.9-6.168-6.577s2.2-6.618,6.168-6.618,6.168,2.941,6.168,6.618-2.164,6.6-6.168,6.6Z" transform="translate(-982.317 -511.131)" fill="#417da5"/>
    <path id="Path_4879" data-name="Path 4879" d="M924.459,513.061c-.818,1.023-1.309,2.655-1.309,5.19v21.343h3.881V523.355h4.614V520.21h-4.614v-2.164c0-2.209.409-4.127,2.982-4.127a7.451,7.451,0,0,1,1.636.208v-2.961a12.614,12.614,0,0,0-2.532-.229A5.877,5.877,0,0,0,924.459,513.061Z" transform="translate(-824.105 -498.322)" fill="#417da5"/>
    <path id="Path_4880" data-name="Path 4880" d="M1097.074,535.948h-.123l.041-2.982h-3.922V552.39h3.922v-9.7a8.67,8.67,0,0,1,1.182-4.908,4.091,4.091,0,0,1,3.186-1.636,5.14,5.14,0,0,1,2.127.409v-3.767a6.455,6.455,0,0,0-1.636-.2A5.087,5.087,0,0,0,1097.074,535.948Z" transform="translate(-924.525 -511.119)" fill="#417da5"/>
    <circle id="Ellipse_22" data-name="Ellipse 22" cx="2.552" cy="2.552" r="2.552" transform="translate(181.646 12.615)" fill="#417da5"/>
    <rect id="Rectangle_291" data-name="Rectangle 291" width="350" height="200" transform="translate(-60.688 -75.067)" fill="#e8eff3"/>
  </g>
</svg>
