<svg xmlns="http://www.w3.org/2000/svg" width="220" height="102" viewBox="0 0 220 102"><g fill="none" fill-rule="evenodd"><path fill="#FF447C" fill-rule="nonzero" d="M90 79.1c0-3.7-.6-7.1-1.9-10.2s-3.2-5.7-5.8-8a27 27 0 0 0-9.6-5.1A44 44 0 0 0 59.5 54H20c-4.1 0-7.4.5-10 1.6-2.6 1-4.6 2.4-6.1 4s-2.5 3.5-3 5.6c-.6 2.1-.9 4.1-.9 6.3A22 22 0 0 0 4.5 85c7.8 10.7 18 17 37.2 17h18.4c10 0 17.4-1.9 22.4-5.8Q90 90.5 90 79.1"/><path stroke="#FFF" stroke-width="2" d="M90 78 44 66M30 88l16.8-19.8L68 54"/><path fill="#1C007B" fill-rule="nonzero" stroke="#FFF" stroke-width="2" d="M51.9 68a7 7 0 0 1-5.9 7.9 7 7 0 0 1-7.9-5.9 7 7 0 0 1 5.9-7.9c3.8-.6 7.4 2.1 7.9 5.9Z"/><path stroke="#FFF" stroke-width="2" d="m68 54 23 24"/><path fill="#1C007B" fill-rule="nonzero" stroke="#FFF" stroke-width="2" d="M96.9 76.1c.5 3.3-1.8 6.3-5.1 6.8s-6.3-1.8-6.8-5.1 1.8-6.3 5.1-6.8c3.3-.4 6.4 1.9 6.8 5.1Z"/><path fill="#2B2A69" fill-rule="nonzero" stroke="#FFF" stroke-width="2" d="M71.9 52.9c.4 2.5-1.3 4.8-3.8 5.1-2.5.4-4.8-1.3-5.1-3.8-.4-2.5 1.3-4.8 3.8-5.1 2.5-.4 4.8 1.3 5.1 3.8Z"/><path stroke="#FFF" stroke-width="2" d="m15 73 15 15"/><path fill="#1C007B" fill-rule="nonzero" stroke="#FFF" stroke-width="2" d="M20.9 72.1c.5 3.3-1.8 6.3-5.1 6.8S9.5 77.1 9 73.8s1.8-6.3 5.1-6.8a6 6 0 0 1 6.8 5.1Zm14 15.2c.4 2.7-1.7 5.3-4.7 5.7s-5.8-1.5-6.2-4.2 1.7-5.3 4.7-5.7 5.8 1.5 6.2 4.2Z"/><path fill="#1C007B" fill-rule="nonzero" d="M16 34.6V0h7.2v13.2a9.8 9.8 0 0 1 7.1-2.9c1.3 0 2.4.3 3.5.8s2 1.3 2.8 2.4 1.4 2.3 1.8 3.8.7 3.2.7 5.2c0 1.8-.2 3.5-.7 5s-1.2 2.8-2.1 4c-.9 1.1-2 2-3.2 2.6q-1.95.9-4.2.9c-.7 0-1.3-.1-1.9-.2s-1.1-.4-1.5-.6c-.5-.2-.9-.6-1.3-.9q-.6-.45-1.2-1.2l-.2 1.2c-.1.5-.3.8-.6 1s-.7.3-1.1.3zm11.7-18.9c-.5 0-1 0-1.4.1s-.8.2-1.2.4-.7.4-1 .7-.6.6-.9 1v10.2c.5.6 1.1 1 1.8 1.3.6.2 1.3.4 2 .4s1.3-.1 1.8-.4 1.1-.7 1.4-1.3c.4-.6.7-1.3.9-2.2a16 16 0 0 0 .1-6.6c-.2-.9-.5-1.6-.8-2.1q-.45-.75-1.2-1.2-.6-.3-1.5-.3M52 4.2c0 .6-.1 1.1-.4 1.6s-.6 1-1 1.3-.9.7-1.5.9c-.5.2-1.1.4-1.8.4-.6 0-1.2-.1-1.7-.4a4.2 4.2 0 0 1-2.3-2.2c-.2-.4-.3-1-.3-1.6s.1-1.1.4-1.7c.2-.5.5-1 .9-1.3A4.2 4.2 0 0 1 47.4 0q.9 0 1.8.3.75.3 1.5.9c.4.4.7.8 1 1.3s.3 1.1.3 1.7m-.9 6.6V35h-7.4V10.8zm13.5-.8c1 0 1.9.1 2.8.3s1.7.5 2.5.8H77v2.7c0 .4-.1.7-.3 1-.2.2-.6.4-1.1.5l-1.7.4c.2.7.3 1.4.3 2.2 0 1.2-.2 2.3-.7 3.3s-1.2 1.8-2 2.5a10.8 10.8 0 0 1-6.7 2.2c-.8 0-1.4 0-2.1-.1-.5.3-.8.7-.8 1.1q0 .6.6.9c.4.2 1 .3 1.6.4.7.1 1.4.1 2.3.1a25 25 0 0 1 5.4.5c.9.2 1.6.5 2.3 1s1.2 1.1 1.6 1.8.6 1.7.6 2.9c0 1.1-.2 2.2-.8 3.2s-1.3 2-2.3 2.8-2.2 1.5-3.7 1.9c-1.4.5-3.1.7-5 .7s-3.4-.2-4.8-.5c-1.3-.4-2.4-.8-3.3-1.4s-1.5-1.3-2-2q-.6-1.2-.6-2.4c0-1.1.3-2 1-2.7.6-.7 1.5-1.3 2.6-1.7-.5-.4-1-.8-1.3-1.4s-.5-1.3-.5-2.1c0-.4.1-.7.2-1.1s.3-.8.5-1.2.6-.7 1-1.1.9-.6 1.4-.9c-1.2-.7-2.2-1.6-2.9-2.7s-1.1-2.4-1.1-3.9c0-1.2.2-2.3.8-3.3.5-1 1.2-1.8 2.1-2.5s1.9-1.2 3.1-1.6q1.95-.6 3.9-.6m5.2 25.5c0-.4-.1-.7-.3-1s-.5-.4-1-.6c-.4-.1-.9-.2-1.4-.3s-1.1-.1-1.7-.1h-1.9c-.7 0-1.3-.1-2-.2-.4.3-.8.7-1.1 1-.3.4-.4.8-.4 1.3 0 .4.1.7.2.9.1.3.4.5.8.7s.9.4 1.5.5a14 14 0 0 0 4.8 0c.7-.1 1.2-.3 1.5-.5s.7-.5.8-.8c.1-.2.2-.6.2-.9m-5.2-14.3c1.2 0 2-.3 2.5-.9.6-.5.9-1.3.9-2.3s-.3-1.8-.8-2.3-1.4-.8-2.5-.8c-1.2 0-2 .3-2.5.8-.5.6-.8 1.3-.8 2.3 0 .5.1.9.2 1.3s.3.7.6 1 .6.5 1 .7.8.2 1.4.2M81 43V10.4h1.3c.2 0 .4 0 .5.1s.2.2.2.5l.2 3.7c1.1-1.4 2.3-2.6 3.7-3.5 1.4-.8 3-1.3 4.8-1.3 2.9 0 5.2 1 6.9 3.1s2.5 5.1 2.5 9.2c0 1.8-.2 3.4-.7 4.9s-1.1 2.9-2 4-2 2-3.3 2.6-2.8 1-4.5 1c-1.6 0-3.1-.3-4.2-.9-1.2-.6-2.2-1.5-3.1-2.6V43zm10-31.1c-1.6 0-3 .4-4.3 1.2s-2.4 2-3.4 3.5v12.6a7 7 0 0 0 3.1 2.9c1.1.6 2.4.8 3.8.8s2.6-.2 3.7-.8c1.1-.5 1.9-1.2 2.7-2.2.7-1 1.3-2.1 1.6-3.4.4-1.3.5-2.8.5-4.3 0-3.6-.7-6.2-2-7.9q-1.95-2.4-5.7-2.4m20-8.7c0 .3-.1.6-.2.8s-.3.5-.4.7c-.2.2-.4.3-.6.5-.2.1-.5.2-.8.2s-.5-.1-.8-.2c-.2-.1-.5-.3-.6-.5-.2-.2-.3-.4-.4-.7-.1-.2-.2-.5-.2-.8s.1-.6.2-.8c.1-.3.3-.5.4-.7.2-.2.4-.3.6-.5.2-.1.5-.2.8-.2s.5.1.8.2c.2.1.5.3.6.5.2.2.3.4.4.7.2.2.2.5.2.8m-.9 8.1V35h-2.2V11.3zm24.9 3.1c-.1.1-.1.1-.3.2-.1.1-.2.1-.3.1-.2 0-.4-.1-.7-.3s-.7-.4-1.2-.7c-.5-.2-1.1-.5-1.8-.7s-1.6-.3-2.6-.3c-1.4 0-2.7.2-3.8.7s-2 1.2-2.8 2.1-1.3 2-1.7 3.3-.6 2.7-.6 4.3.2 3.1.6 4.3 1 2.3 1.7 3.2c.8.9 1.6 1.5 2.7 2 1 .4 2.2.7 3.5.7 1.2 0 2.2-.1 3-.4s1.4-.5 2-.9q.75-.45 1.2-.9c.3-.3.5-.4.7-.4s.4.1.5.2l.7.8c-.4.5-.9.9-1.4 1.3-.6.4-1.2.8-2 1.1-.7.3-1.5.5-2.3.7-.9.2-1.7.2-2.7.2-1.6 0-3-.3-4.3-.8s-2.4-1.3-3.3-2.3-1.7-2.3-2.2-3.8a16 16 0 0 1 0-10 10.3 10.3 0 0 1 5.7-6.3c1.4-.6 3-.9 4.7-.9 1.6 0 3 .2 4.3.7 1.2.5 2.3 1.1 3.3 2zM146.9 35c-1.6 0-2.8-.5-3.7-1.3-.9-.9-1.3-2.3-1.3-4.2V12.9h-3.4c-.2 0-.3 0-.4-.1s-.2-.2-.2-.4v-.9l4-.3.5-8.6c0-.1.1-.3.2-.4s.2-.2.4-.2h1v9.2h7.3v1.7H144v16.4c0 .7.1 1.2.2 1.7.2.5.4.9.7 1.2s.6.5 1 .7c.4.1.8.2 1.3.2s1.1-.1 1.4-.2c.4-.2.8-.4 1.1-.6s.5-.4.7-.6.3-.2.4-.2.2.1.4.2l.6 1c-.6.7-1.3 1.2-2.3 1.6-.6.5-1.6.7-2.6.7m11.4-24v15.1c0 2.2.5 3.9 1.6 5.2s2.6 1.9 4.8 1.9c1.6 0 3-.4 4.4-1.2 1.3-.8 2.6-1.9 3.7-3.3V11h2.3v23.6h-1.3c-.5 0-.7-.2-.7-.6l-.2-3.5c-1.1 1.3-2.4 2.5-3.9 3.3s-3.1 1.2-5 1.2c-1.3 0-2.5-.2-3.5-.6s-1.8-1-2.5-1.8a7 7 0 0 1-1.5-2.8c-.4-1.1-.5-2.3-.5-3.7V11zM183 34V10.4h1.2c.3 0 .5.1.6.2s.2.3.2.6l.2 5c.8-1.9 1.8-3.4 3.2-4.5 1.3-1.1 2.9-1.6 4.8-1.6.8 0 1.4.1 2 .2s1.2.4 1.8.7l-.3 1.6c0 .2-.2.4-.5.4-.1 0-.3 0-.4-.1-.2-.1-.4-.1-.7-.2s-.6-.1-1-.2-.9-.1-1.4-.1c-1.9 0-3.4.6-4.5 1.7-1.2 1.1-2.1 2.7-2.9 4.8V34zm27.6-24c1.3 0 2.6.2 3.7.7 1.2.5 2.1 1.2 3 2.1.8.9 1.5 2 2 3.3s.7 2.8.7 4.5c0 .4 0 .6-.1.7s-.3.2-.5.2h-17.2v.5q0 2.7.6 4.8c.4 1.4 1 2.5 1.8 3.5.8.9 1.7 1.6 2.8 2.1s2.3.7 3.6.7c1.2 0 2.2-.1 3.1-.4s1.6-.6 2.2-.9 1.1-.6 1.4-.9.6-.4.8-.4.3.1.5.2l.6.8c-.4.5-.9.9-1.5 1.4-.6.4-1.3.8-2.1 1.1s-1.6.5-2.5.7q-1.35.3-2.7.3a10.5 10.5 0 0 1-7.9-3.4c-.9-1.1-1.7-2.5-2.2-4.1s-.8-3.4-.8-5.5c0-1.7.2-3.3.7-4.8s1.2-2.7 2.1-3.8 2-1.9 3.4-2.5q2.1-.9 4.5-.9m.1 1.7q-1.8 0-3.3.6a7.8 7.8 0 0 0-4.2 4.3c-.5 1-.7 2.2-.9 3.5H218c0-1.3-.2-2.5-.5-3.5s-.8-1.9-1.5-2.6c-.6-.7-1.4-1.3-2.3-1.6-.9-.5-1.9-.7-3-.7"/></g></svg>