<svg xmlns="http://www.w3.org/2000/svg" xmlns:xlink="http://www.w3.org/1999/xlink" width="594.525" height="34.486" viewBox="0 0 594.525 34.486"><defs><clipPath id="clip-path"><path id="Rectangle_310" fill="none" d="M0 0h30.6v26.22H0z"/></clipPath></defs><g id="dbaas-logos" style="mix-blend-mode:darken;isolation:isolate" transform="translate(-334 -592.734)"><g id="b" transform="translate(334 603)"><g id="c"><path id="Path_5438" fill="rgba(15,3,121,0.41)" d="m398.26 40.69-2.14-1.48a.4.4 0 0 0-.33-.08 9 9 0 0 1-3.63.7 10 10 0 0 1-4.72-.79 6 6 0 0 1-3.71-5.4 6.2 6.2 0 0 1 1.44-4.6 6.7 6.7 0 0 1 3.7-2.1 11.6 11.6 0 0 1 6.12.2 6.1 6.1 0 0 1 4.42 6.3 6 6 0 0 1-1.53 4.04q-.4.38-.86.77l2.24 1.53zm-6.68-1.88h.34a7 7 0 0 0 2.86-.6 5 5 0 0 0 3.08-4.65 5.3 5.3 0 0 0-3.92-5.6 9 9 0 0 0-3.89-.2 5.3 5.3 0 0 0-4.78 5.1 5.25 5.25 0 0 0 3.1 5.3 7 7 0 0 0 3.22.65Z" transform="translate(-275.31 -19.09)"/><path id="Path_5439" fill="rgba(15,3,121,0.41)" d="M349.83 30.54h-1.57q-.05-.4-.13-.77a2.4 2.4 0 0 0-1.8-1.76 8.6 8.6 0 0 0-5.07.03 2 2 0 0 0-1.38 2.51A1.6 1.6 0 0 0 341 31.8q1.24.36 2.5.61l4.36.88.36.12a2.7 2.7 0 0 1 2.02 2.36 3.1 3.1 0 0 1-1.6 3.28 7 7 0 0 1-2.74.76 14 14 0 0 1-5.1-.36 7 7 0 0 1-.76-.28 3.7 3.7 0 0 1-2.25-3.7h1.58q.04.39.12.8a2.9 2.9 0 0 0 1.98 2.16 9 9 0 0 0 3.6.4 6 6 0 0 0 2.3-.48 2.2 2.2 0 0 0 1.25-2.34 1.8 1.8 0 0 0-1.51-1.69c-1.3-.3-2.61-.5-3.92-.76-.94-.2-1.88-.37-2.8-.62a2.8 2.8 0 0 1-2.1-3.42 2.8 2.8 0 0 1 2.19-2.4 12 12 0 0 1 4.12-.42 9 9 0 0 1 2.76.45 3.3 3.3 0 0 1 2.46 3.39Z" transform="translate(-242.374 -19.14)"/><path id="Path_5440" fill="rgba(15,3,121,0.41)" d="M246.12 42.44v7.79a3.34 3.34 0 0 1-2.97 3.72 11 11 0 0 1-4.84-.1 2.7 2.7 0 0 1-2.15-2.41h1.3a2.34 2.34 0 0 0 2.4 1.83 9 9 0 0 0 2.76-.1 2.5 2.5 0 0 0 2.16-2.3 15 15 0 0 0 .01-1.82c-1.36 1.45-3.1 1.6-4.9 1.44a7 7 0 0 1-2-.49 3.4 3.4 0 0 1-2.14-3.03 6 6 0 0 1 .09-1.77 3.5 3.5 0 0 1 2.54-2.68 8 8 0 0 1 4.31-.13 4 4 0 0 1 1.83 1.15l.27.26v-1.35zm-5.14.57v.05l-.75.04a3.2 3.2 0 0 0-3.17 3.47 2.8 2.8 0 0 0 2.3 2.88 8 8 0 0 0 2.21.18 3.13 3.13 0 0 0 3.22-2.81 3.03 3.03 0 0 0-2.22-3.54 14 14 0 0 0-1.59-.26Z" transform="translate(-169.126 -30.24)"/><path id="Path_5441" fill="rgba(15,3,121,0.41)" d="m100.35 27.82.1-.03c2.64 0 5.28-.04 7.92 0a3.5 3.5 0 0 1 2.87 1.37 3.58 3.58 0 0 1-2.04 5.64 7 7 0 0 1-1.64.2q-2.7.03-5.38.01h-.3v5.33h-1.53Zm1.53 1.03V34l.15.01h5.42a5 5 0 0 0 1.1-.16 2.3 2.3 0 0 0 1.48-1 2.55 2.55 0 0 0-1.9-3.97c-2.07-.12-4.15-.02-6.25-.02Z" transform="translate(-71.999 -19.924)"/><path id="Path_5442" fill="rgba(15,3,121,0.41)" d="M307.03 46.75h-9.11a2.9 2.9 0 0 0 1.74 2.85 5.4 5.4 0 0 0 4.15.1 2.7 2.7 0 0 0 1.63-1.75h1.4a3.5 3.5 0 0 1-1.8 2.25 6.6 6.6 0 0 1-3.23.7 7 7 0 0 1-2.68-.48 4.3 4.3 0 0 1-1.56-6.82 4 4 0 0 1 1.84-1.15 8 8 0 0 1 4.77 0 4.1 4.1 0 0 1 2.85 4.29Zm-1.38-.79a2.6 2.6 0 0 0-.76-1.79 4.66 4.66 0 0 0-5.9-.35 3.4 3.4 0 0 0-1.1 2.14Z" transform="translate(-212.727 -30.201)"/><path id="Path_5443" fill="rgba(15,3,121,0.41)" d="M188.77 44.9h-1.32c-.19-1.2-.7-1.67-2.08-1.86a7 7 0 0 0-2.76.12 3 3 0 0 0-.8.34 1.1 1.1 0 0 0 .17 2 7 7 0 0 0 1.54.34c1.17.18 2.35.3 3.52.48a4 4 0 0 1 .9.28 1.8 1.8 0 0 1 1.22 1.56 2 2 0 0 1-.85 1.94 4.3 4.3 0 0 1-2.06.71 12 12 0 0 1-4.6-.23 2.55 2.55 0 0 1-2-2.48h1.39s.02 0 .02.02a1.7 1.7 0 0 0 1.41 1.72 8 8 0 0 0 4.21-.02 1.32 1.32 0 0 0-.18-2.62l-3.55-.48q-.72-.1-1.43-.27a1.8 1.8 0 0 1-1.55-1.6 1.96 1.96 0 0 1 1.3-2.24 12 12 0 0 1 2.38-.45 8 8 0 0 1 3.28.3 2.4 2.4 0 0 1 1.84 2.07l.01.2v.15Z" transform="translate(-128.896 -30.217)"/><path id="Path_5444" fill="rgba(15,3,121,0.41)" d="M145.1 50.97a16 16 0 0 1-1.87-.28 3.96 3.96 0 0 1-3.13-3.7 4 4 0 0 1 2.02-4.15 5.4 5.4 0 0 1 2.29-.67 8 8 0 0 1 3.37.31 3.85 3.85 0 0 1 2.84 3.5 4.2 4.2 0 0 1-1.19 3.68 5 5 0 0 1-2.85 1.2c-.42.05-.85.06-1.48.12Zm.03-.87c.55-.06.94-.07 1.31-.13a3 3 0 0 0 2.74-2.31 6 6 0 0 0 .1-1.74 2.85 2.85 0 0 0-2.19-2.65 6 6 0 0 0-2.74-.17 3.35 3.35 0 0 0-2.85 4.24 3 3 0 0 0 2.11 2.45 11 11 0 0 0 1.53.3Z" transform="translate(-100.506 -30.222)"/><path id="Path_5445" fill="rgba(15,3,121,0.41)" d="M442.94 27.81h1.49v11.48h9.36v1.07h-10.85z" transform="translate(-317.803 -19.95)"/><path id="Path_5446" fill="rgba(15,3,121,0.41)" d="M217.51 36.3h2.22v.87h-2.21v5.42c0 .84.24 1.13 1.08 1.2.36.04.73.01 1.13.01v.78a5 5 0 0 1-2.65-.16 1.4 1.4 0 0 1-.86-1.48v-5.77h-1.66v-.84h1.64v-2.7h1.32z" transform="translate(-153.944 -24.119)"/><path id="Path_5447" fill="rgba(15,3,121,0.41)" d="M278.88 43.85c.07-.09.1-.1.11-.14a2.3 2.3 0 0 1 2.03-1.52q1.03-.09 2.1-.13v1.09c-.53 0-1.06-.04-1.57 0a2.6 2.6 0 0 0-2.6 2.62c-.08 1.13-.05 2.27-.06 3.4v1.41h-1.27v-8.2h1.26z" transform="translate(-199.188 -30.174)"/><path id="Path_5449" fill="rgba(15,3,121,0.41)" d="M30.04 19.86v-1.59a1.2 1.2 0 0 0-1.66-1.25 13 13 0 0 1 .6-1.68 7.5 7.5 0 0 0 .44-5.4 1.63 1.63 0 0 0-1.82-1.26 5 5 0 0 0-2.02.62l-.32.16c.2-2.03.6-3.91 2.22-5.27a4.4 4.4 0 0 1 2.97-.92 7.4 7.4 0 0 1 6.85 5.08l.06.22h-1.19a1.76 1.76 0 0 0-1.84 2.24 10 10 0 0 0 1.2 3.14l1.65 2.89-.21.08a1.15 1.15 0 0 0-.85 1.1q-.31 2.77-.67 5.53c-.26 2.02-2.12 2.47-3.48 2.36-.92-.07-1.46-.85-1.72-1.77a4 4 0 0 1-.09-.73V22.1q.02-.42 0-.84-.05-.7-.13-1.4Z" transform="translate(-18.123 -2.34)"/><path id="Path_5450" fill="rgba(15,3,121,0.41)" d="M10.7 4.18a6 6 0 0 0-1.41 1.98 10.6 10.6 0 0 0-.76 4.76 22 22 0 0 1-.1 2.56 3.5 3.5 0 0 0 .95 2.82l.37.34q-1.1 1.3-2.2 2.51a1.02 1.02 0 0 1-1.64.02 5.5 5.5 0 0 1-1.24-1.91 30 30 0 0 1-2.23-8.28 7 7 0 0 1 .2-2.58 3.7 3.7 0 0 1 3.4-2.88 11 11 0 0 1 4.66.66" transform="translate(-1.715 -2.491)"/><path id="Path_5451" fill="rgba(15,3,121,0.41)" d="M52.22 2.62a7.7 7.7 0 0 1 5.86.54A9 9 0 0 1 59.7 4.5a2.3 2.3 0 0 1 .48 1.87 18 18 0 0 1-1.91 6.74c-.43.9-.93 1.75-1.43 2.69l-.4-.5a4.4 4.4 0 0 0 .52-3.24 7 7 0 0 1 .02-2.58A4.6 4.6 0 0 0 56 5.66a7.7 7.7 0 0 0-3.65-2.95z" transform="translate(-37.467 -1.643)"/><path id="Path_5452" fill="rgba(15,3,121,0.41)" d="M27.9 31.38a2.8 2.8 0 0 1-2.8-2.1 5 5 0 0 1-.07-1.67c.06-.92.04-1.85.07-2.77 0-.13.03-.32.12-.38a4 4 0 0 1 2.53-.79 1.2 1.2 0 0 1 1.13.95 7 7 0 0 1-.33 5.08 18 18 0 0 0-.65 1.69Zm-.19-7.21c-.52 0-.74.2-.62.5a.76.76 0 0 0 1.24.23c.19-.2.17-.43-.08-.55a3 3 0 0 0-.54-.18" transform="translate(-17.929 -16.971)"/><path id="Path_5453" fill="rgba(15,3,121,0.41)" d="M60.68 30.02c-.76-1.6-1.82-3.04-2.14-4.81a3 3 0 0 1-.03-.8 1.3 1.3 0 0 1 1.32-1.14c.37-.03.74 0 1.11 0 .26 0 .33.13.3.36l-.1.84a10 10 0 0 0 .03 3.09 4 4 0 0 1-.32 2.24l-.08.15-.1.07ZM60 23.58l-.05.07-.3.03q-.62.14-.55.5a.7.7 0 0 0 .77.41 1 1 0 0 0 .36-.17c.11-.15.28-.37.24-.5-.05-.15-.3-.23-.47-.34" transform="translate(-41.967 -16.683)"/><path id="Path_5454" fill="rgba(15,3,121,0.41)" d="M26.25 54.68a6 6 0 0 1 .88-.27 2.5 2.5 0 0 0 1.84-1.12l.09-.1c.36-.43.65-.49 1-.2a.84.84 0 0 1 .17 1.2 3 3 0 0 1-3.66.84l-.32-.22Z" transform="translate(-18.834 -37.885)"/><path id="Path_5455" fill="rgba(15,3,121,0.41)" d="M69.4 52.66a3.4 3.4 0 0 1-1.75 1.2 5 5 0 0 1-2.14.21c-.25-.02-.55 0-.65-.3a1 1 0 0 1 .36-1.05.75.75 0 0 1 .87-.05 2.4 2.4 0 0 0 1.58.22c.55-.06 1.09-.14 1.73-.23" transform="translate(-46.515 -37.698)"/><path id="Path_5456" fill="rgba(15,3,121,0.41)" d="M42.18 61.99q.08.7.13 1.4.02.42 0 .85h-.11Z" transform="translate(-30.263 -44.474)"/><path id="Path_5457" fill="rgba(15,3,121,0.41)" d="M42.24 69.9h.12v1.3z" transform="translate(-30.306 -50.149)"/><path id="Path_5448" fill="#fff" d="M12.43 17.43a3 3 0 0 1-1.93 1.08 3.7 3.7 0 0 1-2.06-.27c-.24-.1-.5-.24-.49-.57s.3-.43.55-.5q.62-.18 1.24-.33c.52-.14.77-.57 1.06-.95.05-.07.02-.2.03-.24l-1.71-.43-1.63 1.84-.48.56a1.4 1.4 0 0 1-2.21.08 5 5 0 0 1-.78-1.01 17 17 0 0 1-1.8-4.67 52 52 0 0 1-.93-4.3 7 7 0 0 1 .31-3.53A4 4 0 0 1 5.35 1.5a11 11 0 0 1 4.48.66.7.7 0 0 0 .62-.06 5.4 5.4 0 0 1 3.52-.64q.44.06.87.14a1 1 0 0 0 .35-.04 8.6 8.6 0 0 1 6.05.25 6 6 0 0 1 2.18 1.72 2.8 2.8 0 0 1 .48 1.99 16 16 0 0 1-1.48 5.87c-.6 1.35-1.31 2.63-2 3.99a1.3 1.3 0 0 0 1.02.3c.66-.04 1.32-.15 1.98-.2a2 2 0 0 1 .58.16c-.06.19-.06.43-.19.57a4 4 0 0 1-2.41 1.24 4.6 4.6 0 0 1-2.25-.09l-.2 1.68q-.2 1.54-.43 3.07a2.86 2.86 0 0 1-2.48 2.5 4 4 0 0 1-1.17.12 2.4 2.4 0 0 1-2.22-2.25c-.14-1.54-.16-3.08-.22-4.62zm.36 3.13.11 1.32a4 4 0 0 0 .09.73c.26.91.8 1.7 1.72 1.77 1.36.11 3.22-.34 3.48-2.36q.36-2.77.67-5.53a1.15 1.15 0 0 1 .85-1.1l.2-.09q-.83-1.45-1.63-2.89a10 10 0 0 1-1.21-3.13 1.76 1.76 0 0 1 1.84-2.24h1.19l-.06-.22a7.4 7.4 0 0 0-6.86-5.08 4.4 4.4 0 0 0-2.97.92C8.58 4.02 8.2 5.9 8 7.93l.32-.16a5 5 0 0 1 2.02-.62 1.63 1.63 0 0 1 1.82 1.26 7.5 7.5 0 0 1-.43 5.4 14 14 0 0 0-.6 1.68 1.22 1.22 0 0 1 1.65 1.25v1.59zM9.85 2.5a11 11 0 0 0-4.66-.66 3.7 3.7 0 0 0-3.4 2.88 7 7 0 0 0-.21 2.58 30 30 0 0 0 2.22 8.27 5.5 5.5 0 0 0 1.25 1.91 1.02 1.02 0 0 0 1.62-.02c.75-.8 1.46-1.65 2.21-2.5l-.37-.35a3.5 3.5 0 0 1-.94-2.82 22 22 0 0 0 .1-2.56 10.6 10.6 0 0 1 .76-4.75A6 6 0 0 1 9.84 2.5Zm5.76-.72.14.1a7.7 7.7 0 0 1 3.65 2.95 4.6 4.6 0 0 1 .97 3.82 7 7 0 0 0-.02 2.59 4.4 4.4 0 0 1-.52 3.23l.4.5c.5-.94 1-1.8 1.43-2.68a18 18 0 0 0 1.91-6.74 2.3 2.3 0 0 0-.48-1.88 9 9 0 0 0-1.62-1.35 7.7 7.7 0 0 0-5.85-.54Zm-4.78 13.44c.21-.58.38-1.16.65-1.7a7 7 0 0 0 .33-5.07 1.2 1.2 0 0 0-1.14-.95 4 4 0 0 0-2.52.79c-.1.06-.12.25-.13.38-.02.92 0 1.84-.06 2.77a5 5 0 0 0 .07 1.67 2.8 2.8 0 0 0 2.8 2.1Zm8.74-1.07.1-.07.08-.15a4 4 0 0 0 .31-2.24 10 10 0 0 1-.03-3.09q.06-.41.1-.84.08-.36-.3-.36c-.37 0-.74-.03-1.11 0a1.3 1.3 0 0 0-1.32 1.13 3 3 0 0 0 .03.8c.32 1.78 1.38 3.21 2.14 4.82M8.27 17.6v.13l.33.22a3 3 0 0 0 3.65-.85.84.84 0 0 0-.17-1.2c-.35-.28-.64-.23-1 .2l-.08.1a2.5 2.5 0 0 1-1.84 1.14 7 7 0 0 0-.89.26m15.48-1.83q-.94.14-1.73.23a2.4 2.4 0 0 1-1.58-.22.75.75 0 0 0-.87.05 1 1 0 0 0-.36 1.04c.1.32.4.29.65.32a5 5 0 0 0 2.14-.22 3.4 3.4 0 0 0 1.75-1.2" transform="translate(-.855 -.807)"/><path id="Path_5437" fill="#fff" d="m13.4 24.2-.12-.08a2.2 2.2 0 0 1-1.3-1.34 9 9 0 0 1-.58-3.16l-.08-2.21a3.5 3.5 0 0 1-2.46.7 6 6 0 0 1-1.25-.26 1.2 1.2 0 0 1-.91-1.06l-.33.35a1.74 1.74 0 0 1-2.68.03 7 7 0 0 1-1.5-2.43A32 32 0 0 1 .08 6.85a7.4 7.4 0 0 1 .28-3.37A4.3 4.3 0 0 1 4.18.4a10.6 10.6 0 0 1 4.76.6.6.6 0 0 0 .59-.06 5.2 5.2 0 0 1 3.4-.64 10 10 0 0 0 2.83-.19 7.6 7.6 0 0 1 6.14 1.42 3.5 3.5 0 0 1 1.53 3.3c-.06.61-.1 1.23-.23 1.84a23 23 0 0 1-2.98 7.4l-.21.36a4 4 0 0 0 1.9 0q.43-.07.87-.1a.7.7 0 0 1 .68.34.7.7 0 0 1-.06.8 3.3 3.3 0 0 1-1.48 1.15 5.6 5.6 0 0 1-3.14.43l-.29-.02q-.08.7-.12 1.4a13 13 0 0 1-.47 3.16 3.4 3.4 0 0 1-2.68 2.48l-.39.14zm-1.83-7.6v.44c.07 1.54.09 3.08.22 4.61A2.4 2.4 0 0 0 14 23.91a4 4 0 0 0 1.17-.12 2.86 2.86 0 0 0 2.48-2.5q.24-1.53.43-3.07l.2-1.68a5 5 0 0 0 2.25.08 4 4 0 0 0 2.42-1.23c.12-.14.12-.38.18-.57a2 2 0 0 0-.58-.16c-.66.05-1.32.16-1.98.2a1.3 1.3 0 0 1-1.01-.3c.68-1.36 1.4-2.65 2-3.99a16 16 0 0 0 1.47-5.87 2.8 2.8 0 0 0-.48-1.99A6 6 0 0 0 20.38 1a8.6 8.6 0 0 0-6.05-.25 1 1 0 0 1-.35.04Q13.54.7 13.1.64a5.4 5.4 0 0 0-3.52.64.7.7 0 0 1-.62.05A11 11 0 0 0 4.49.68 4 4 0 0 0 .74 3.37a7 7 0 0 0-.3 3.52q.35 2.18.92 4.32a17 17 0 0 0 1.8 4.66 5 5 0 0 0 .78 1.01 1.4 1.4 0 0 0 2.2-.08q.26-.28.49-.57l1.63-1.83 1.7.43c0 .04.03.17-.02.24-.3.38-.54.81-1.06.95q-.61.14-1.24.32c-.25.08-.54.16-.55.5s.25.46.5.58a3.7 3.7 0 0 0 2.04.26 3 3 0 0 0 1.94-1.07Zm-4.27-.54c.73-.3 1.67-.07 2.16-.9l-.93-.3a.2.2 0 0 0-.2.07z" transform="translate(.002 .011)"/><path id="Path_5458" fill="#fff" d="M32.96 25.45a3 3 0 0 1 .54.18c.25.12.27.35.08.55a.76.76 0 0 1-1.24-.23c-.12-.3.1-.5.62-.5" transform="translate(-23.178 -18.257)"/><path id="Path_5459" fill="#fff" d="M61.53 24.4c.17.11.42.19.46.34.05.13-.12.35-.24.5a1 1 0 0 1-.35.17.7.7 0 0 1-.77-.41q-.08-.37.55-.5l.3-.04z" transform="translate(-43.496 -17.504)"/></g></g><g id="https___mariadb.com_wp-content_uploads_2019_11_mariadb-horizontal-black" transform="translate(606 601.734)"><path id="Path_5460" fill="rgba(15,3,121,0.41)" d="m297.9 68.81 2.41 9.32h-1.82l-1.61-6.71-3.02 6.7h-1.53l-3-6.66-1.66 6.67h-1.78l2.39-9.32h1.57l3.25 7.21 3.24-7.21Z" transform="translate(-248.642 -60.125)"/><path id="Path_5461" fill="rgba(15,3,121,0.41)" d="M406.83 88.17v-1.09h1.75v6.8h-1.75v-1.1a2.9 2.9 0 0 1-2.58 1.24 3.56 3.56 0 0 1-3.78-3.67 3.3 3.3 0 0 1 3.52-3.42 3.2 3.2 0 0 1 2.84 1.24m-4.5 2.27a2.2 2.2 0 0 0 2.32 2.32 2.16 2.16 0 0 0 2.27-2.28 2.2 2.2 0 0 0-2.35-2.3 2.13 2.13 0 0 0-2.23 2.26" transform="translate(-348.294 -75.884)"/><path id="Path_5462" fill="rgba(15,3,121,0.41)" d="M481.42 93.88h-1.76v-6.8h1.76v1.53a2.7 2.7 0 0 1 2.45-1.68 3 3 0 0 1 1.1.18l-.38 1.29a4 4 0 0 0-.93-.13 2.23 2.23 0 0 0-2.24 2.36Z" transform="translate(-417.167 -75.882)"/><path id="Path_5463" fill="rgba(15,3,121,0.41)" d="M527.09 68.26a.9.9 0 0 1 .94-.9.93.93 0 0 1 .95.93.9.9 0 0 1-.95.9.9.9 0 0 1-.94-.93m.07 1.8h1.76v4.96c0 .31.06.53.32.53l.34-.04.27 1.28a3 3 0 0 1-1.16.2c-.74 0-1.53-.21-1.53-1.88Z" transform="translate(-458.414 -58.854)"/><path id="Path_5464" fill="rgba(15,3,121,0.41)" d="M558.9 88.17v-1.09h1.76v6.8h-1.75v-1.1a2.9 2.9 0 0 1-2.58 1.24 3.56 3.56 0 0 1-3.78-3.67 3.3 3.3 0 0 1 3.52-3.42 3.2 3.2 0 0 1 2.84 1.24m-4.48 2.27a2.2 2.2 0 0 0 2.3 2.32 2.16 2.16 0 0 0 2.28-2.28 2.2 2.2 0 0 0-2.35-2.3 2.13 2.13 0 0 0-2.23 2.26" transform="translate(-480.56 -75.884)"/><path id="Path_5465" fill="rgba(15,3,121,0.41)" d="M635.51 68.81h4.2c3.54 0 5.3 1.95 5.28 4.66.03 2.81-1.92 4.66-4.96 4.66h-4.52Zm1.16.83v7.67h3.2a3.84 3.84 0 1 0 0-7.67Z" transform="translate(-552.711 -60.125)"/><path id="Path_5466" fill="rgba(15,3,121,0.41)" d="M727.7 78.13h-5.35V68.8h4.81c1.85 0 3.6.35 3.58 2.41a1.87 1.87 0 0 1-1.86 2.02 2.2 2.2 0 0 1 2.17 2.37c0 2.08-1.82 2.52-3.36 2.52m-.4-5.26c1.84 0 2.25-.7 2.25-1.6 0-1.36-.83-1.67-2.26-1.67h-3.83v3.27Zm.04.79h-3.88v3.67h4.06c1.13 0 2.33-.37 2.33-1.8 0-1.65-1.38-1.87-2.5-1.87Z" transform="translate(-628.237 -60.125)"/><path id="Path_5467" fill="rgba(15,3,121,0.41)" d="M38.98 2.28a.6.6 0 0 0-.38-.13 3 3 0 0 0-1.13.39l-.1.05a4 4 0 0 1-1.41.36c-.5.02-.94.05-1.5.1-3.34.35-4.83 2.9-6.26 5.38a17 17 0 0 1-2.7 3.82 7 7 0 0 1-.72.61 16 16 0 0 1-3.7 1.89c-1.08.41-2.25.78-3.39 1.14q-1.56.48-2.92.97l-1.06.37a8 8 0 0 0-2.29 1.07c-.33.23-.67.48-.91.67a10 10 0 0 0-1.81 1.9 11 11 0 0 1-1.51 1.82 1.4 1.4 0 0 1-1 .27 13 13 0 0 1-1.99-.25 14 14 0 0 0-2.2-.26 2.5 2.5 0 0 0-1.26.27 2 2 0 0 0-.75.7l.22.1a5 5 0 0 1 .93.66 5 5 0 0 0 .96.69 1 1 0 0 1 .3.2l-.37.49c-.77 1-1.22 1.64-.96 1.98a1 1 0 0 0 .4.1 7.4 7.4 0 0 0 3.72-1l1.06-.48a16 16 0 0 0 2.15-1.24 14 14 0 0 1 3.06-1.64 8 8 0 0 1 2.57-.37 26 26 0 0 1 3.28.29q1.21.16 2.46.26l.9.02a10 10 0 0 0 1.15-.06l.1-.03a3.4 3.4 0 0 0 1.1-1.85 4 4 0 0 1 .53-1.17l.04-.03h.07v.03a11 11 0 0 1-2.46 6.31l-.79.84a6 6 0 0 0 1.72-.24 8.6 8.6 0 0 0 5.23-4.56 19 19 0 0 0 .82-1.88c.02-.05.22-.15.2.13l-.01.26-.02.17c-.03.4-.13 1.25-.13 1.25l.7-.38c1.7-1.07 3-3.22 3.99-6.57.4-1.4.71-2.79.97-4.01a13 13 0 0 1 .92-3.21 7 7 0 0 1 1.97-1.8l.3-.2a4 4 0 0 0 2.03-2.77v-.03c.14-1.02.02-1.28-.12-1.4" transform="translate(0 -2.148)"/></g><g id="b-2" transform="translate(817 605.734)"><g id="c-2"><g id="Group_567"><path id="Path_5468" fill="rgba(15,3,121,0.41)" d="M350.02 21.1a27 27 0 0 1-2.7-.97 10.1 10.1 0 0 1-5.83-7.26A10.2 10.2 0 0 1 344.4 3a10 10 0 0 1 7.2-3l.2.05a14 14 0 0 1-.01 1.4c-.01.1-.29.25-.44.26a8.3 8.3 0 0 0-4.31 1.39 8.6 8.6 0 0 0-4.04 8.3 8.8 8.8 0 0 0 6.6 7.74 10 10 0 0 0 1.8.23c.3.03.42.13.4.43l.04 1.3Z" transform="translate(-297.656)"/><path id="Path_5469" fill="rgba(15,3,121,0.41)" d="M0 51.35a11 11 0 0 1 .84-1.84 4.4 4.4 0 0 1 7.07-.18l-.74.64q-.36-.35-.8-.7a3.3 3.3 0 0 0-3.85-.02 3.5 3.5 0 0 0 1.79 6.33 2.84 2.84 0 0 0 2.84-2.5h-3a1.6 1.6 0 0 1 1.44-1.02h2.75a3.97 3.97 0 0 1-3.27 4.46 4.3 4.3 0 0 1-4.91-3.16l-.17-.38z" transform="translate(.01 -41.558)"/><path id="Path_5470" fill="rgba(15,3,121,0.41)" d="M838.04 57.24h-.05a1.7 1.7 0 0 1-1.93-1.06 27 27 0 0 0-1.6-2.32 2 2 0 0 0-.47-.3l-.13.1v3.54h-1.05v-8.63a27 27 0 0 1 2.84.2 2.2 2.2 0 0 1 1.82 2.23 2.34 2.34 0 0 1-1.7 2.42l-.32.1 2.58 3.53Zm-4.19-7.75.01 2.94c0 .1.2.28.27.27a8 8 0 0 0 1.54-.27 1.24 1.24 0 0 0 .8-1.3 1.2 1.2 0 0 0-.83-1.26 18 18 0 0 0-1.79-.38" transform="translate(-726.511 -42.371)"/><path id="Path_5471" fill="rgba(15,3,121,0.41)" d="M382.02 31.53a6 6 0 0 0-2.81-2 5.3 5.3 0 0 0-5.46 1.6 5.56 5.56 0 0 0 2 8.71 4.57 4.57 0 0 0 6.16-2.86 5 5 0 0 0 .08-.7h-4.53l1.45-1.5a.3.3 0 0 1 .22-.06h4.72a6.6 6.6 0 0 1-.93 4.14 6.2 6.2 0 0 1-6.39 2.85 6.7 6.7 0 0 1-5.62-5.23 7.02 7.02 0 0 1 12-6.43c.21.2.27.36.02.58-.24.2-.44.46-.66.69l-.25.22Z" transform="translate(-323.371 -24.213)"/><path id="Path_5472" fill="rgba(15,3,121,0.41)" d="M217.46 57.1c-.46 0-.92.03-1.38 0a.6.6 0 0 1-.4-.27q-1.06-1.53-2.14-3.05a3 3 0 0 0-.58-.42v3.72h-1.1v-8.63a28 28 0 0 1 2.94.25 2.2 2.2 0 0 1 1.76 2.27 2.4 2.4 0 0 1-1.6 2.32l-.42.14 1.67 2.3q.46.61.97 1.22l.06.03v-.07l.22.18Zm-4.48-4.48a11 11 0 0 0 1.42-.18 1.44 1.44 0 0 0 .78-2.35 2.8 2.8 0 0 0-2.2-.58z" transform="translate(-184.817 -42.266)"/><path id="Path_5473" fill="rgba(15,3,121,0.41)" d="m61.41 55.03 4.11-8.97 4.11 8.97a8 8 0 0 1-.98-.01.5.5 0 0 1-.32-.28c-.26-.51-.46-1.05-.73-1.55a.7.7 0 0 0-.49-.31c-1.06-.03-2.13-.01-3.2-.03a.45.45 0 0 0-.48.34c-.2.47-.46.92-.63 1.4a.6.6 0 0 1-.7.45 5 5 0 0 0-.7 0Zm4.11-6.57-1.49 3.4h2.98z" transform="translate(-53.571 -40.181)"/><path id="Path_5474" fill="rgba(15,3,121,0.41)" d="m254.21 55-.22-.18 1.73-3.87c.72-1.6 1.45-3.18 2.24-4.9l4.07 8.9q-.08.08-.1.08c-1.03.05-1.1.07-1.42-.88a1.6 1.6 0 0 0-2-1.3c-.7.1-1.43 0-2.14.03a.7.7 0 0 0-.5.31q-.3.58-.56 1.21a1 1 0 0 1-1.1.61Zm5.24-3.14-1.5-3.4-1.49 3.4Z" transform="translate(-221.57 -40.181)"/><path id="Path_5475" fill="rgba(15,3,121,0.41)" d="M169.89 56.73v.96l-.27.06-3.98.01c-.24 0-.38-.05-.38-.34l.01-8.08.05-.16h4.55v.96h-3.46v2.38h3.36v1.02h-3.37v3.19z" transform="translate(-144.165 -42.903)"/><path id="Path_5476" fill="rgba(15,3,121,0.41)" d="M787.5 56.82h3.45v.98h-4.56v-8.53h4.54l.05.1c.1.88.1.88-.77.88h-2.7v2.33h3.35v1.04h-3.36Z" transform="translate(-686.016 -42.981)"/><path id="Path_5477" fill="rgba(15,3,121,0.41)" d="M642.49 49.18h1.02l.04.36v5.21a3 3 0 0 1-2.76 3.15 2.97 2.97 0 0 1-3.45-2.75c-.08-1.97-.02-3.95-.02-5.96h1.05v5.08a6 6 0 0 0 .1 1 1.98 1.98 0 0 0 3.88.08 7 7 0 0 0 .13-1.33q.02-2.17 0-4.35z" transform="translate(-555.951 -42.903)"/><path id="Path_5478" fill="rgba(15,3,121,0.41)" d="m699.57 48.9-.83.5a1.5 1.5 0 0 0-1.47-.77 2 2 0 0 0-.95.38.95.95 0 0 0 .07 1.62 9 9 0 0 0 1.15.57 12 12 0 0 1 1.16.56 2.4 2.4 0 0 1 1.11 2.59 2.6 2.6 0 0 1-2.03 2.11 2.7 2.7 0 0 1-3.27-1.98l-.04-.36 1.01-.23q.08.24.13.46a1.6 1.6 0 0 0 1.58 1.16 1.6 1.6 0 0 0 1.49-1.13 1.4 1.4 0 0 0-.67-1.76c-.43-.25-.9-.42-1.33-.64a8 8 0 0 1-1.04-.59 2.02 2.02 0 0 1-.07-3.18 2.63 2.63 0 0 1 4 .7" transform="translate(-605.828 -41.5)"/><path id="Path_5479" fill="rgba(15,3,121,0.41)" d="M548.3 54.76a5 5 0 0 1-.02.87.8.8 0 0 1-.32.5 4.46 4.46 0 1 1-3.6-8.16 4.6 4.6 0 0 1 3.35-.04c.44.15.66.39.59.87a5 5 0 0 0 0 .66 3.6 3.6 0 0 0-3.3-.67 3.2 3.2 0 0 0-1.75 1.32 3.6 3.6 0 0 0 .23 4.31c1.18 1.35 2.62 1.47 4.81.34" transform="translate(-472.416 -41.553)"/><path id="Path_5480" fill="rgba(15,3,121,0.41)" d="M741.66 50.18h-2v-.96h5.1v.96q-.77.02-1.55-.01c-.39-.03-.48.12-.48.49q.02 3.26.01 6.5v.6h-1.07z" transform="translate(-645.25 -42.938)"/><path id="Path_5481" fill="rgba(15,3,121,0.41)" d="M607.98 56.74v1h-3.63V49.2h1.04v7.54z" transform="translate(-527.211 -42.92)"/><path id="Path_5482" fill="rgba(15,3,121,0.41)" d="M131.47 49.15h1.03v7.55h2.6v1h-3.63Z" transform="translate(-114.688 -42.877)"/><path id="Path_5483" fill="rgba(15,3,121,0.41)" d="M447.39 7.35a.87.87 0 0 1-.84-.9.83.83 0 0 1 .86-.83.9.9 0 0 1 .86.85.93.93 0 0 1-.88.88" transform="translate(-389.551 -4.901)"/><path id="Path_5484" fill="rgba(15,3,121,0.41)" d="M488.5 105.16a.8.8 0 0 1 .83.83.83.83 0 0 1-.84.89.9.9 0 0 1-.88-.87.86.86 0 0 1 .88-.85Z" transform="translate(-425.37 -91.738)"/><path id="Path_5485" fill="rgba(15,3,121,0.41)" d="M472.84 130.58a.8.8 0 0 1-.84.84.86.86 0 0 1-.88-.86.9.9 0 0 1 .9-.86.85.85 0 0 1 .82.88" transform="translate(-410.985 -113.145)"/><path id="Path_5486" fill="rgba(15,3,121,0.41)" d="M489.33 47.67a.8.8 0 0 1-.89.79.9.9 0 0 1-.82-.88.9.9 0 0 1 .9-.85.85.85 0 0 1 .81.94" transform="translate(-425.377 -40.768)"/><path id="Path_5487" fill="rgba(15,3,121,0.41)" d="M472.84 23.13a.85.85 0 0 1-.82.87.93.93 0 0 1-.9-.87.86.86 0 0 1 .9-.85.8.8 0 0 1 .82.84" transform="translate(-410.985 -19.435)"/><path id="Path_5488" fill="rgba(15,3,121,0.41)" d="M448.29 147.06a.86.86 0 0 1-.86.88.84.84 0 0 1-.86-.82.86.86 0 0 1 .85-.9.9.9 0 0 1 .87.84" transform="translate(-389.568 -127.557)"/><path id="Path_5489" fill="rgba(15,3,121,0.41)" d="M495.23 76.83a.9.9 0 0 1-.88.88.86.86 0 1 1 .88-.88" transform="translate(-430.509 -66.291)"/><path id="Path_5490" fill="rgba(15,3,121,0.41)" d="M253.58 114.73v.07l-.06-.03z" transform="translate(-221.16 -100.086)"/></g></g></g><g id="b-3" transform="translate(738 592.734)"><g id="c-3"><path id="Path_5491" fill="rgba(15,3,121,0.41)" fill-rule="evenodd" d="M113.51 11.56a2 2 0 0 0-.57.07v.03h.03a5 5 0 0 0 .44.57l.33.67.02-.02a.8.8 0 0 0 .3-.7l-.16-.3c-.09-.14-.27-.2-.38-.32" transform="translate(-79.199 -8.109)"/><g id="Group_568"><path id="Path_5492" fill="rgba(15,3,121,0.41)" d="M12.07 76.8h-1.94q-.1-4.9-.56-9.23h-.02L6.6 76.8H5.13L2.2 67.57h-.02q-.33 4.15-.41 9.22H0q.17-6.17.86-11.57h2.4l2.79 8.5h.02l2.8-8.5h2.3q.76 6.33.9 11.57" transform="translate(0 -45.738)"/><path id="Path_5493" fill="rgba(15,3,121,0.41)" d="M50.65 75.38q-1.18 6.42-3.12 9.33-1.5 2.24-3.3 2.24a3 3 0 0 1-1.19-.28v-1.03a6 6 0 0 0 .8.05 2 2 0 0 0 1.36-.47 1.7 1.7 0 0 0 .62-1.27 9 9 0 0 0-.49-1.97l-2.12-6.6h1.9l1.52 4.94a7 7 0 0 1 .43 2.35 32 32 0 0 0 1.75-7.3z" transform="translate(-30.182 -52.863)"/><path id="Path_5494" fill="rgba(15,3,121,0.41)" d="M141.9 76.8h-5.5V65.21h1.85v10.15h3.65Z" transform="translate(-95.65 -45.738)"/><path id="Path_5495" fill="rgba(15,3,121,0.41)" fill-rule="evenodd" d="m109.17 76.67-2.13-1.05a4 4 0 0 0 .53-.52 7 7 0 0 0 1.36-4.71q0-5.75-4.5-5.75a4.3 4.3 0 0 0-3.46 1.46 7 7 0 0 0-1.35 4.7 6.8 6.8 0 0 0 1.2 4.47 4.1 4.1 0 0 0 3.31 1.29 5 5 0 0 0 1.52-.2l2.76 1.61zm-6.9-2.6a7 7 0 0 1-.7-3.63q0-4.37 2.66-4.37a2.2 2.2 0 0 1 2.04 1.04 7 7 0 0 1 .7 3.6q0 4.4-2.65 4.41a2.2 2.2 0 0 1-2.04-1.04" transform="translate(-69.858 -45.332)"/><path id="Path_5496" fill="rgba(15,3,121,0.41)" d="M79.87 73.23a3 3 0 0 1-1.08 2.41 4.3 4.3 0 0 1-2.9.95 6 6 0 0 1-3.29-1.09l.5-1a6 6 0 0 0 2.49.69 2.6 2.6 0 0 0 1.63-.46 1.6 1.6 0 0 0 .63-1.29q-.01-1.02-1.36-1.76l-2.43-1.38a2.8 2.8 0 0 1-1.32-2.46 2.9 2.9 0 0 1 .98-2.27 3.7 3.7 0 0 1 2.55-.86 5.4 5.4 0 0 1 2.93.85l-.45 1a6 6 0 0 0-2.23-.48 2 2 0 0 0-1.37.43 1.4 1.4 0 0 0-.52 1.1c0 .68.5 1.28 1.4 1.78.82.44 2.48 1.39 2.48 1.39a2.7 2.7 0 0 1 1.35 2.45" transform="translate(-50.91 -45.381)"/><path id="Path_5497" fill="rgba(15,3,121,0.41)" fill-rule="evenodd" d="M118.16 15.62a6.5 6.5 0 0 0-2.71.39c-.21.08-.55.08-.58.35.12.1.13.3.23.45a3 3 0 0 0 .72.85q.45.34.9.64c.55.34 1.16.53 1.7.87.3.19.6.44.92.65.15.11.25.3.44.36v-.04c-.1-.12-.12-.3-.22-.45l-.42-.4a7 7 0 0 0-1.46-1.41c-.44-.3-1.42-.73-1.6-1.24l-.03-.03a6 6 0 0 0 .97-.23c.47-.12.9-.1 1.4-.22l.67-.2v-.12c-.26-.25-.44-.59-.7-.82a19 19 0 0 0-2.3-1.73c-.44-.28-1-.46-1.46-.7-.17-.08-.45-.12-.55-.26a6 6 0 0 1-.57-1.08c-.4-.77-.8-1.62-1.15-2.43a15 15 0 0 0-.71-1.6A14 14 0 0 0 106.23 2a7 7 0 0 0-1.79-.57l-1.05-.06a6 6 0 0 1-.64-.5c-.8-.5-2.85-1.58-3.44-.14-.37.9.56 1.8.88 2.26a7 7 0 0 1 .71 1.05c.1.24.13.5.23.74a17 17 0 0 0 .72 1.87 7 7 0 0 0 .52.87c.12.16.31.23.35.48a4 4 0 0 0-.32 1.04 6.2 6.2 0 0 0 .4 4.7c.23.36.76 1.13 1.47.83.63-.25.5-1.05.68-1.75.04-.17.01-.28.1-.39v.03q.3.58.57 1.16a8 8 0 0 0 1.82 1.87c.33.25.6.68 1.02.84v-.04h-.03a1 1 0 0 0-.32-.28 7 7 0 0 1-.73-.84 18 18 0 0 1-1.56-2.54q-.34-.67-.6-1.35c-.09-.16-.09-.41-.23-.5a5 5 0 0 0-.67.95 8 8 0 0 0-.39 2.12l-.06.02c-.44-.1-.6-.57-.76-.96a6 6 0 0 1-.13-3.73c.1-.3.52-1.22.35-1.5-.08-.27-.36-.42-.52-.63a5 5 0 0 1-.5-.9c-.33-.79-.5-1.65-.86-2.43a7 7 0 0 0-.7-1.08 7 7 0 0 1-.77-1.1c-.07-.15-.17-.4-.06-.56a.2.2 0 0 1 .2-.19c.18-.15.7.05.88.13a7 7 0 0 1 1.38.7c.2.14.41.4.66.47h.3c.44.1.94.03 1.36.16a9 9 0 0 1 2.02.96A12.4 12.4 0 0 1 111.08 8c.16.32.23.62.39.95.29.69.65 1.39.95 2.06a9 9 0 0 0 1 1.87c.2.3 1.04.45 1.42.6a10 10 0 0 1 .96.39q.72.46 1.4.95c.23.17.93.52.97.8" transform="translate(-69.582 -.01)"/><path id="Path_5498" fill="rgba(15,3,121,0.41)" d="M160.6 100.62h.29V99.2h-.44l-.35.97-.39-.97h-.41v1.42h.28v-1.08h.01l.4 1.08h.2l.4-1.08zm-2.33 0h.3v-1.18h.4v-.24h-1.12v.24h.42Z" transform="translate(-110.691 -69.567)"/></g></g></g><g id="Layer_2" transform="translate(498.99 600.99)"><g id="Layer_1" transform="translate(.01 .01)"><g id="Group_569" clip-path="url(#clip-path)"><path id="Path_5501" fill="#857fbc" d="M29.4 68.53c-1.64.85-10.1 4.33-11.92 5.29s-2.8.92-4.22.24-10.4-4.33-12.02-5.1Q0 68.38 0 67.94v-3.1s11.72-2.54 13.6-3.23 2.55-.7 4.16-.11S29 63.83 30.6 64.4v3.05c0 .32-.36.63-1.2 1.07Z" transform="translate(0 -48.314)"/><path id="Path_5502" fill="#9c97c8" d="M29.38 56c-1.63.84-10.08 4.32-11.9 5.26s-2.8.93-4.23.25-10.4-4.33-12.02-5.1-1.66-1.31-.06-1.93 10.54-4.13 12.43-4.82 2.55-.7 4.15-.1 10.03 3.93 11.61 4.51 1.66 1.06.02 1.9Z" transform="translate(.008 -38.86)"/><path id="Path_5503" fill="#857fbc" d="M29.4 44.4c-1.64.85-10.1 4.33-11.92 5.27s-2.79.93-4.21.24-10.4-4.31-12.03-5.08Q0 44.25 0 43.8v-3.08s11.72-2.55 13.6-3.24 2.55-.7 4.16-.1S29 39.7 30.6 40.28v3.05c0 .32-.36.63-1.2 1.07" transform="translate(0 -29.227)"/><path id="Path_5504" fill="#9c97c8" d="M29.39 31.9c-1.63.85-10.1 4.33-11.91 5.27s-2.8.93-4.23.25-10.4-4.32-12.02-5.1-1.65-1.3-.06-1.93 10.54-4.13 12.43-4.8 2.55-.72 4.15-.13 10.03 3.96 11.61 4.52 1.66 1.07.02 1.9Z" transform="translate(.005 -19.815)"/><path id="Path_5505" fill="#857fbc" d="M29.4 19.38c-1.64.85-10.1 4.33-11.92 5.27s-2.79.93-4.21.25-10.4-4.32-12.03-5.1Q0 19.25 0 18.78v-3.1s11.72-2.54 13.6-3.22 2.55-.7 4.16-.11S29 14.67 30.6 15.25v3.06c0 .32-.36.63-1.2 1.07" transform="translate(0 -9.433)"/><path id="Path_5506" fill="#9c97c8" d="M29.38 6.84c-1.63.84-10.08 4.34-11.9 5.27s-2.8.93-4.23.25-10.4-4.32-12.02-5.1-1.66-1.3-.06-1.93S11.7 1.2 13.6.52s2.55-.7 4.15-.12 10.03 3.94 11.61 4.52 1.66 1.07.02 1.91Z" transform="translate(.008 .013)"/></g><path id="Path_5507" fill="#fff" d="m61.37 8.6 2.02-.66-.55 1.3 2.05.78-2.65.27-.6 1.43-.95-1.6-3.06-.27 2.29-.82-.7-1.27z" transform="translate(-45.59 -6.141)"/><path id="Path_5508" fill="#fff" d="m57.39 39.81-4.95-2.05 7.09-1.09z" transform="translate(-41.484 -29.01)"/><path id="Path_5509" fill="#fff" d="M28.93 22.34c2.09 0 3.79.66 3.79 1.46s-1.7 1.47-3.79 1.47-3.79-.66-3.79-1.47 1.7-1.46 3.79-1.46" transform="translate(-19.887 -17.672)"/><path id="Path_5510" fill="#6f69aa" d="m107.39 20.42 4.2 1.66-4.2 1.65z" transform="translate(-84.952 -16.155)"/><path id="Path_5511" fill="#857fbc" d="M89.81 20.42v3.31l-.45.18-4.19-1.66z" transform="translate(-67.375 -16.155)"/><path id="Path_5512" fill="#9c97c8" d="M184.24 36.67a4 4 0 0 1 1.3-.9 4 4 0 0 1 1.53-.34 1.4 1.4 0 0 1 1.04.33 1 1 0 0 1 .32.8 1 1 0 0 1-.32.79 1 1 0 0 1-.79.34 3.55 3.55 0 0 0-3.11 3.18v4a1.16 1.16 0 0 1-1.14 1.14 1 1 0 0 1-.8-.35 1 1 0 0 1-.34-.8v-8.35a1 1 0 0 1 .34-.8 1.5 1.5 0 0 1 .85-.28 1.15 1.15 0 0 1 1.13 1.13Z" transform="translate(-143.914 -28.021)"/><path id="Path_5513" fill="#9c97c8" d="M220.33 39.93a1 1 0 0 1-.28.74 1.3 1.3 0 0 1-.8.34h-6.68a2.2 2.2 0 0 0 .73 1.37 3 3 0 0 0 1.98.96 3 3 0 0 0 2.2-.51 1.2 1.2 0 0 1 .85-.34 1 1 0 0 1 .74.28.9.9 0 0 1 .05 1.3l-.05.05a5 5 0 0 1-3.68 1.36 4.8 4.8 0 0 1-3.67-1.58 5.6 5.6 0 0 1-1.53-3.74 5 5 0 0 1 1.53-3.74 4.7 4.7 0 0 1 3.56-1.53 4.6 4.6 0 0 1 3.5 1.42 5.2 5.2 0 0 1 1.6 3.5v.11Zm-5.03-3a3 3 0 0 0-1.91.74 3 3 0 0 0-.9 1.46h5.94a2.6 2.6 0 0 0-1.02-1.41 3.6 3.6 0 0 0-2.1-.8" transform="translate(-166.273 -27.603)"/><path id="Path_5514" fill="#9c97c8" d="M270.86 28.5a1.16 1.16 0 0 1-1.13 1.13 1.2 1.2 0 0 1-1.14-.9 5 5 0 0 1-2.89.9 5 5 0 0 1-3.62-1.52 5 5 0 0 1-1.47-3.74 5.4 5.4 0 0 1 1.47-3.73 5 5 0 0 1 3.62-1.6 4.7 4.7 0 0 1 2.83.91V16a1 1 0 0 1 .34-.8 1 1 0 0 1 .8-.33 1 1 0 0 1 .8.34 1 1 0 0 1 .33.8v12.5Zm-5.1-1.13a2.5 2.5 0 0 0 1.99-.9 3 3 0 0 0 0-4.18 2.7 2.7 0 0 0-1.98-.92 2.4 2.4 0 0 0-1.98.91 3 3 0 0 0 0 4.18 2.6 2.6 0 0 0 1.98.9" transform="translate(-206.151 -11.754)"/><path id="Path_5515" fill="#9c97c8" d="M317.07 15.98v.45a1.2 1.2 0 0 1-.35.86 1 1 0 0 1-.8.29 1 1 0 0 1-.78-.34 1.1 1.1 0 0 1-.34-.85v-.42a1.17 1.17 0 0 1 1.13-1.13 1 1 0 0 1 .79.35 1 1 0 0 1 .35.79m-1.91 3.45a1 1 0 0 1 .79-.34 1 1 0 0 1 .8.34 1.2 1.2 0 0 1 .32.84v8.27a1 1 0 0 1-.35.8 1 1 0 0 1-.8.34 1 1 0 0 1-.78-.34 1 1 0 0 1-.34-.8v-8.26a1.1 1.1 0 0 1 .34-.84" transform="translate(-249.018 -11.739)"/><path id="Path_5516" fill="#9c97c8" d="M336.83 36.03a1 1 0 0 1 .45.67 1.5 1.5 0 0 1-.11.85 1 1 0 0 1-.68.45 1.2 1.2 0 0 1-.85-.17 4 4 0 0 0-1.92-.79 1.8 1.8 0 0 0-1.26.4q-.34.24-.34.4a.4.4 0 0 0 .06.28l.22.17a3.4 3.4 0 0 0 1.53.5 8 8 0 0 1 2.04.64 2.88 2.88 0 0 1 .51 5.09 4.6 4.6 0 0 1-2.72.84 6 6 0 0 1-3.73-1.46 1.2 1.2 0 0 1-.4-.74 1.09 1.09 0 0 1 1.75-.95 3.3 3.3 0 0 0 2.32.9 2.4 2.4 0 0 0 1.42-.4c.22-.23.4-.4.4-.57s0-.22-.06-.28c0-.06-.11-.17-.28-.22a4 4 0 0 0-1.7-.6 6 6 0 0 1-1.92-.63 3.5 3.5 0 0 1-1.36-1.18 2.6 2.6 0 0 1-.34-1.3 2.8 2.8 0 0 1 1.25-2.33 4.6 4.6 0 0 1 2.6-.79 6.5 6.5 0 0 1 3.1 1.19" transform="translate(-260.75 -27.544)"/></g></g></g></svg>