<svg xmlns="http://www.w3.org/2000/svg" width="528.525" height="34.486" viewBox="0 0 528.525 34.486">
  <g id="dbaas-logos" transform="translate(-334 -593)" style="mix-blend-mode: darken;isolation: isolate">
    <g id="b" transform="translate(334 603)">
      <g id="c">
        <path id="Path_5438" data-name="Path 5438" d="M398.26,40.688c-.729-.5-1.43-.994-2.139-1.475a.435.435,0,0,0-.328-.082,9.046,9.046,0,0,1-3.628.706,10.034,10.034,0,0,1-4.726-.794,5.976,5.976,0,0,1-3.712-5.4,6.18,6.18,0,0,1,1.446-4.611,6.69,6.69,0,0,1,3.7-2.1,11.615,11.615,0,0,1,6.116.2,6.115,6.115,0,0,1,4.418,6.306,5.847,5.847,0,0,1-1.531,4.037c-.257.268-.548.5-.856.777l2.24,1.526-1,.915Zm-6.676-1.882h.339a7.269,7.269,0,0,0,2.859-.6,5.005,5.005,0,0,0,3.079-4.65,5.279,5.279,0,0,0-3.924-5.6,8.683,8.683,0,0,0-3.885-.192,5.275,5.275,0,0,0-4.783,5.1,5.251,5.251,0,0,0,3.1,5.3,7.022,7.022,0,0,0,3.221.641Z" transform="translate(-275.31 -19.09)" fill="rgba(15,3,121,0.41)"/>
        <path id="Path_5439" data-name="Path 5439" d="M349.831,30.537h-1.574c-.042-.266-.065-.523-.13-.771a2.418,2.418,0,0,0-1.8-1.757,8.633,8.633,0,0,0-5.068.028,2.024,2.024,0,0,0-1.382,2.517,1.618,1.618,0,0,0,1.136,1.237c.816.251,1.653.432,2.489.61,1.455.308,2.916.585,4.37.879a3.221,3.221,0,0,1,.353.116,2.671,2.671,0,0,1,2.023,2.365,3.106,3.106,0,0,1-1.591,3.28,6.7,6.7,0,0,1-2.749.763,13.672,13.672,0,0,1-5.1-.364,6.632,6.632,0,0,1-.76-.283,3.66,3.66,0,0,1-2.243-3.7h1.574c.037.257.059.534.116.8a2.886,2.886,0,0,0,1.983,2.161,9.062,9.062,0,0,0,3.6.4,5.97,5.97,0,0,0,2.3-.48A2.19,2.19,0,0,0,348.625,36a1.818,1.818,0,0,0-1.509-1.689c-1.294-.3-2.61-.5-3.913-.763-.938-.189-1.882-.364-2.805-.619a2.775,2.775,0,0,1-2.1-3.421,2.819,2.819,0,0,1,2.189-2.4,12.439,12.439,0,0,1,4.122-.421,9.08,9.08,0,0,1,2.76.452,3.322,3.322,0,0,1,2.464,3.39Z" transform="translate(-242.374 -19.14)" fill="rgba(15,3,121,0.41)"/>
        <path id="Path_5440" data-name="Path 5440" d="M246.12,42.442v7.783a3.344,3.344,0,0,1-2.975,3.721,10.827,10.827,0,0,1-4.834-.093,2.674,2.674,0,0,1-2.153-2.415h1.311a2.339,2.339,0,0,0,2.387,1.834,9.42,9.42,0,0,0,2.76-.093,2.5,2.5,0,0,0,2.164-2.3,15.134,15.134,0,0,0,.011-1.828c-1.365,1.449-3.108,1.6-4.91,1.444A7.049,7.049,0,0,1,237.893,50a3.373,3.373,0,0,1-2.144-3.029,6.027,6.027,0,0,1,.09-1.774,3.493,3.493,0,0,1,2.545-2.681,7.889,7.889,0,0,1,4.308-.13,3.839,3.839,0,0,1,1.831,1.155c.071.071.147.138.268.254v-1.35h1.325Zm-5.136.571-.008.045c-.249.014-.494.02-.743.045a3.178,3.178,0,0,0-3.175,3.464,2.808,2.808,0,0,0,2.308,2.882,8.3,8.3,0,0,0,2.209.186,3.128,3.128,0,0,0,3.218-2.819,3.033,3.033,0,0,0-2.218-3.537,13.572,13.572,0,0,0-1.593-.26Z" transform="translate(-169.126 -30.24)" fill="rgba(15,3,121,0.41)"/>
        <path id="Path_5441" data-name="Path 5441" d="M100.35,27.82a.488.488,0,0,1,.1-.028c2.642-.006,5.283-.04,7.924,0a3.493,3.493,0,0,1,2.865,1.365A3.575,3.575,0,0,1,109.2,34.8a7.271,7.271,0,0,1-1.639.206c-1.794.025-3.591.008-5.385.008h-.3v5.323H100.35Zm1.534,1.034V34c.059.006.1.011.147.011,1.805,0,3.613.008,5.419-.006a4.861,4.861,0,0,0,1.1-.153,2.289,2.289,0,0,0,1.475-.994,2.552,2.552,0,0,0-1.9-3.975c-2.068-.121-4.147-.028-6.246-.028Z" transform="translate(-71.999 -19.924)" fill="rgba(15,3,121,0.41)"/>
        <path id="Path_5442" data-name="Path 5442" d="M307.03,46.751h-9.114a2.894,2.894,0,0,0,1.746,2.853,5.373,5.373,0,0,0,4.147.1,2.741,2.741,0,0,0,1.633-1.757h1.407a3.53,3.53,0,0,1-1.808,2.257,6.567,6.567,0,0,1-3.235.7,6.872,6.872,0,0,1-2.675-.489,4.309,4.309,0,0,1-1.562-6.817,3.959,3.959,0,0,1,1.845-1.144,7.929,7.929,0,0,1,4.766,0,4.1,4.1,0,0,1,2.853,4.286Zm-1.376-.788a2.573,2.573,0,0,0-.766-1.791,4.66,4.66,0,0,0-5.9-.356,3.406,3.406,0,0,0-1.1,2.147Z" transform="translate(-212.727 -30.201)" fill="rgba(15,3,121,0.41)"/>
        <path id="Path_5443" data-name="Path 5443" d="M188.772,44.894h-1.317c-.195-1.192-.7-1.661-2.088-1.853a7.193,7.193,0,0,0-2.757.116,2.618,2.618,0,0,0-.8.345,1.1,1.1,0,0,0,.17,1.989,6.7,6.7,0,0,0,1.54.353c1.17.175,2.348.3,3.517.475a3.6,3.6,0,0,1,.9.28,1.812,1.812,0,0,1,1.223,1.562,2.021,2.021,0,0,1-.848,1.944,4.291,4.291,0,0,1-2.057.706,11.787,11.787,0,0,1-4.6-.229,2.547,2.547,0,0,1-2.006-2.486h1.387s.023.011.023.028a1.726,1.726,0,0,0,1.413,1.712,7.748,7.748,0,0,0,4.209-.014A1.319,1.319,0,0,0,186.5,47.2c-1.184-.17-2.37-.311-3.554-.48-.48-.068-.958-.155-1.427-.266a1.824,1.824,0,0,1-1.545-1.61,1.958,1.958,0,0,1,1.3-2.232,11.482,11.482,0,0,1,2.379-.449,8.066,8.066,0,0,1,3.28.305,2.391,2.391,0,0,1,1.836,2.062c.008.068.011.136.014.2,0,.042-.006.085-.011.153Z" transform="translate(-128.896 -30.217)" fill="rgba(15,3,121,0.41)"/>
        <path id="Path_5444" data-name="Path 5444" d="M145.1,50.97a16.08,16.08,0,0,1-1.873-.283,3.957,3.957,0,0,1-3.125-3.7,4.023,4.023,0,0,1,2.02-4.144,5.4,5.4,0,0,1,2.283-.67,8.234,8.234,0,0,1,3.379.311,3.845,3.845,0,0,1,2.839,3.492,4.178,4.178,0,0,1-1.189,3.681,4.958,4.958,0,0,1-2.851,1.2c-.424.054-.853.068-1.486.119Zm.034-.873c.548-.054.935-.062,1.311-.13a3.029,3.029,0,0,0,2.735-2.308,5.885,5.885,0,0,0,.1-1.74,2.845,2.845,0,0,0-2.187-2.653,6.143,6.143,0,0,0-2.746-.164,3.354,3.354,0,0,0-2.845,4.238,2.958,2.958,0,0,0,2.11,2.452,10.812,10.812,0,0,0,1.528.3Z" transform="translate(-100.506 -30.222)" fill="rgba(15,3,121,0.41)"/>
        <path id="Path_5445" data-name="Path 5445" d="M442.94,27.81h1.486V39.294h9.365v1.071H442.943V27.81Z" transform="translate(-317.803 -19.95)" fill="rgba(15,3,121,0.41)"/>
        <path id="Path_5446" data-name="Path 5446" d="M217.512,36.3h2.221v.873h-2.215v5.421c0,.833.246,1.122,1.079,1.2.367.034.737.006,1.133.006v.783a4.794,4.794,0,0,1-2.653-.167,1.41,1.41,0,0,1-.856-1.475c-.006-1.791,0-3.582,0-5.373v-.39H214.56v-.85H216.2v-2.7h1.319V36.3Z" transform="translate(-153.944 -24.119)" fill="rgba(15,3,121,0.41)"/>
        <path id="Path_5447" data-name="Path 5447" d="M278.877,43.851c.076-.09.1-.11.116-.138a2.341,2.341,0,0,1,2.023-1.52c.689-.076,1.387-.09,2.1-.133v1.09c-.525,0-1.054-.042-1.571.008a2.61,2.61,0,0,0-2.591,2.608c-.085,1.13-.051,2.271-.065,3.407-.006.46,0,.924,0,1.41H277.62v-8.2h1.257v1.469Z" transform="translate(-199.188 -30.174)" fill="rgba(15,3,121,0.41)"/>
        <path id="Path_5449" data-name="Path 5449" d="M30.04,19.856c0-.528,0-1.057,0-1.585a1.214,1.214,0,0,0-1.658-1.254,12.915,12.915,0,0,1,.607-1.675,7.542,7.542,0,0,0,.429-5.4A1.631,1.631,0,0,0,27.6,8.677a4.876,4.876,0,0,0-2.017.622c-.085.048-.172.09-.319.164.192-2.028.588-3.913,2.218-5.269a4.353,4.353,0,0,1,2.972-.927A7.413,7.413,0,0,1,37.3,8.352c.023.073.04.15.056.218-.4,0-.794-.011-1.184,0a1.76,1.76,0,0,0-1.842,2.243,9.816,9.816,0,0,0,1.206,3.133c.525.963,1.082,1.91,1.639,2.89a1.524,1.524,0,0,1-.209.085,1.15,1.15,0,0,0-.842,1.1c-.215,1.842-.432,3.687-.67,5.526-.26,2.023-2.122,2.475-3.483,2.365-.921-.073-1.458-.856-1.723-1.774a4.428,4.428,0,0,1-.085-.732V22.1c0-.283.02-.565,0-.845-.031-.466-.088-.932-.133-1.4Z" transform="translate(-18.123 -2.34)" fill="rgba(15,3,121,0.41)"/>
        <path id="Path_5450" data-name="Path 5450" d="M10.7,4.184a5.7,5.7,0,0,0-1.413,1.98,10.594,10.594,0,0,0-.754,4.755,21.542,21.542,0,0,1-.1,2.56A3.541,3.541,0,0,0,9.383,16.3c.116.121.249.226.37.336C9,17.5,8.289,18.343,7.541,19.151a1.018,1.018,0,0,1-1.627.02,5.505,5.505,0,0,1-1.246-1.913A29.967,29.967,0,0,1,2.439,8.981,6.518,6.518,0,0,1,2.648,6.4a3.725,3.725,0,0,1,3.4-2.882A10.946,10.946,0,0,1,10.7,4.184Z" transform="translate(-1.715 -2.491)" fill="rgba(15,3,121,0.41)"/>
        <path id="Path_5451" data-name="Path 5451" d="M52.223,2.615a7.711,7.711,0,0,1,5.854.542A8.6,8.6,0,0,1,59.7,4.511a2.285,2.285,0,0,1,.48,1.873,17.589,17.589,0,0,1-1.913,6.738c-.424.893-.929,1.746-1.432,2.684l-.4-.5a4.442,4.442,0,0,0,.523-3.235,6.8,6.8,0,0,1,.02-2.585,4.593,4.593,0,0,0-.972-3.825,7.673,7.673,0,0,0-3.647-2.952,1.3,1.3,0,0,1-.141-.093Z" transform="translate(-37.467 -1.643)" fill="rgba(15,3,121,0.41)"/>
        <path id="Path_5452" data-name="Path 5452" d="M27.9,31.379a2.819,2.819,0,0,1-2.794-2.1,4.624,4.624,0,0,1-.073-1.672c.057-.921.04-1.845.065-2.766,0-.133.034-.322.124-.381a3.93,3.93,0,0,1,2.528-.788,1.171,1.171,0,0,1,1.133.952,7.141,7.141,0,0,1-.328,5.074,17.551,17.551,0,0,0-.653,1.692Zm-.189-7.213c-.525,0-.74.2-.624.5a.761.761,0,0,0,1.24.232c.189-.2.172-.432-.076-.551a3.4,3.4,0,0,0-.54-.175Z" transform="translate(-17.929 -16.971)" fill="rgba(15,3,121,0.41)"/>
        <path id="Path_5453" data-name="Path 5453" d="M60.676,30.02c-.754-1.6-1.819-3.043-2.139-4.811a2.852,2.852,0,0,1-.028-.805,1.3,1.3,0,0,1,1.317-1.133c.37-.034.743,0,1.116-.006.257,0,.331.136.3.367-.04.28-.051.562-.107.836a9.534,9.534,0,0,0,.034,3.091,3.885,3.885,0,0,1-.314,2.243,1.5,1.5,0,0,1-.082.147c-.011.017-.034.025-.1.071ZM60,23.582l-.048.065a2.708,2.708,0,0,0-.3.037c-.412.085-.607.266-.548.5a.7.7,0,0,0,.768.407.656.656,0,0,0,.353-.175c.119-.147.283-.367.24-.5-.048-.147-.3-.229-.463-.336Z" transform="translate(-41.967 -16.683)" fill="rgba(15,3,121,0.41)"/>
        <path id="Path_5454" data-name="Path 5454" d="M26.25,54.675a6.2,6.2,0,0,1,.884-.26,2.479,2.479,0,0,0,1.836-1.124.98.98,0,0,1,.085-.1c.364-.429.65-.489,1-.206a.835.835,0,0,1,.172,1.2,3.017,3.017,0,0,1-3.656.85,2.763,2.763,0,0,1-.325-.223Z" transform="translate(-18.834 -37.885)" fill="rgba(15,3,121,0.41)"/>
        <path id="Path_5455" data-name="Path 5455" d="M69.4,52.657a3.386,3.386,0,0,1-1.752,1.2,5.215,5.215,0,0,1-2.139.218c-.246-.025-.548,0-.647-.311a.965.965,0,0,1,.362-1.048.752.752,0,0,1,.867-.045,2.39,2.39,0,0,0,1.579.22c.545-.059,1.088-.144,1.729-.232Z" transform="translate(-46.515 -37.698)" fill="rgba(15,3,121,0.41)"/>
        <path id="Path_5456" data-name="Path 5456" d="M42.18,61.99c.045.466.1.929.133,1.4.02.28,0,.562,0,.845-.04,0-.076,0-.116,0Z" transform="translate(-30.263 -44.474)" fill="rgba(15,3,121,0.41)"/>
        <path id="Path_5457" data-name="Path 5457" d="M42.24,69.9c.04,0,.076,0,.116,0v1.308c-.037-.438-.076-.876-.113-1.314Z" transform="translate(-30.306 -50.149)" fill="rgba(15,3,121,0.41)"/>
        <path id="Path_5448" data-name="Path 5448" d="M12.427,17.431a3.118,3.118,0,0,1-1.932,1.076,3.65,3.65,0,0,1-2.051-.266c-.243-.11-.509-.246-.494-.576s.3-.427.554-.5c.41-.121.825-.215,1.24-.325.514-.136.766-.568,1.054-.949.051-.068.023-.192.028-.237l-1.706-.432c-.494.557-1.065,1.2-1.63,1.834-.164.186-.314.384-.48.568A1.389,1.389,0,0,1,4.8,17.7a5.423,5.423,0,0,1-.78-1.011,17.234,17.234,0,0,1-1.805-4.664C1.85,10.6,1.534,9.159,1.293,7.712A6.85,6.85,0,0,1,1.6,4.186,4.022,4.022,0,0,1,5.348,1.5a10.708,10.708,0,0,1,4.478.655.65.65,0,0,0,.624-.059,5.388,5.388,0,0,1,3.523-.638c.291.028.576.107.864.144a.954.954,0,0,0,.356-.04,8.576,8.576,0,0,1,6.046.246,6.071,6.071,0,0,1,2.184,1.723A2.8,2.8,0,0,1,23.9,5.517a15.8,15.8,0,0,1-1.48,5.876c-.593,1.342-1.311,2.627-1.995,3.983a1.288,1.288,0,0,0,1.014.3c.661-.034,1.319-.15,1.98-.195a1.807,1.807,0,0,1,.579.155c-.059.192-.062.435-.184.571A3.975,3.975,0,0,1,21.4,17.447a4.613,4.613,0,0,1-2.249-.085c-.071.571-.133,1.127-.206,1.678-.136,1.026-.26,2.054-.427,3.074a2.861,2.861,0,0,1-2.483,2.5,4.223,4.223,0,0,1-1.17.119,2.391,2.391,0,0,1-2.218-2.257c-.133-1.534-.153-3.077-.218-4.616-.006-.113,0-.226,0-.427Zm.362,3.13.113,1.314a4.207,4.207,0,0,0,.085.732c.263.918.8,1.7,1.723,1.774,1.362.11,3.221-.342,3.483-2.365.237-1.839.455-3.684.67-5.526a1.15,1.15,0,0,1,.842-1.1,1.523,1.523,0,0,0,.209-.085c-.557-.977-1.113-1.927-1.639-2.89a9.751,9.751,0,0,1-1.206-3.133A1.761,1.761,0,0,1,18.911,7.04c.39-.014.78,0,1.184,0-.017-.068-.034-.144-.057-.218a7.411,7.411,0,0,0-6.854-5.085,4.353,4.353,0,0,0-2.972.927C8.582,4.022,8.187,5.9,7.995,7.932c.144-.073.232-.116.319-.164a4.794,4.794,0,0,1,2.017-.622,1.633,1.633,0,0,1,1.822,1.268,7.528,7.528,0,0,1-.429,5.4,13.635,13.635,0,0,0-.607,1.675,1.216,1.216,0,0,1,1.658,1.254v1.585l.017,2.238ZM9.845,2.5a11.034,11.034,0,0,0-4.659-.661,3.732,3.732,0,0,0-3.4,2.879,6.571,6.571,0,0,0-.209,2.577A29.967,29.967,0,0,0,3.8,15.572a5.465,5.465,0,0,0,1.246,1.913,1.018,1.018,0,0,0,1.627-.02c.751-.808,1.461-1.653,2.212-2.514-.121-.11-.254-.215-.37-.336a3.544,3.544,0,0,1-.946-2.822,21.542,21.542,0,0,0,.1-2.56A10.594,10.594,0,0,1,8.43,4.477,5.7,5.7,0,0,1,9.842,2.5Zm5.766-.72a1.061,1.061,0,0,0,.141.093A7.673,7.673,0,0,1,19.4,4.825a4.593,4.593,0,0,1,.972,3.825,6.742,6.742,0,0,0-.02,2.585,4.442,4.442,0,0,1-.523,3.235l.4.5c.5-.938,1.009-1.794,1.432-2.684a17.639,17.639,0,0,0,1.913-6.738,2.283,2.283,0,0,0-.48-1.873,8.7,8.7,0,0,0-1.624-1.353,7.724,7.724,0,0,0-5.854-.542ZM10.825,15.218c.22-.582.387-1.161.653-1.692a7.141,7.141,0,0,0,.328-5.074A1.171,1.171,0,0,0,10.673,7.5a3.941,3.941,0,0,0-2.528.788c-.088.059-.119.251-.124.381-.025.921-.008,1.845-.065,2.766a4.754,4.754,0,0,0,.073,1.672,2.816,2.816,0,0,0,2.794,2.1Zm8.741-1.071c.062-.045.088-.054.1-.071a1.5,1.5,0,0,0,.082-.147,3.879,3.879,0,0,0,.314-2.243A9.535,9.535,0,0,1,20.027,8.6c.057-.274.068-.559.107-.836.031-.234-.042-.37-.3-.367-.373,0-.746-.028-1.116.006A1.3,1.3,0,0,0,17.4,8.531a2.845,2.845,0,0,0,.028.805c.319,1.769,1.384,3.207,2.139,4.811ZM8.274,17.6v.127a2.762,2.762,0,0,0,.325.223,3.017,3.017,0,0,0,3.656-.85.835.835,0,0,0-.172-1.2c-.356-.283-.638-.226-1,.206a.98.98,0,0,0-.085.1A2.474,2.474,0,0,1,9.159,17.34,7.169,7.169,0,0,0,8.274,17.6Zm15.473-1.831c-.641.088-1.184.172-1.729.232a2.407,2.407,0,0,1-1.579-.22.752.752,0,0,0-.867.045.965.965,0,0,0-.362,1.048c.1.316.4.285.647.311A5.173,5.173,0,0,0,22,16.967a3.409,3.409,0,0,0,1.752-1.2Z" transform="translate(-0.855 -0.807)" fill="#fff"/>
        <path id="Path_5437" data-name="Path 5437" d="M13.407,24.209a.621.621,0,0,0-.124-.093,2.23,2.23,0,0,1-1.305-1.333,8.861,8.861,0,0,1-.574-3.167c-.028-.715-.054-1.432-.082-2.209a3.542,3.542,0,0,1-2.461.7,5.767,5.767,0,0,1-1.252-.26A1.194,1.194,0,0,1,6.7,16.793c-.119.124-.22.234-.328.342a1.743,1.743,0,0,1-2.681.031,7.058,7.058,0,0,1-1.5-2.421A31.733,31.733,0,0,1,.075,6.852a7.389,7.389,0,0,1,.288-3.37A4.3,4.3,0,0,1,4.177.4,10.571,10.571,0,0,1,8.935,1,.642.642,0,0,0,9.528.942,5.171,5.171,0,0,1,12.924.3,9.81,9.81,0,0,0,15.757.111,7.637,7.637,0,0,1,21.9,1.535a3.541,3.541,0,0,1,1.534,3.294c-.062.616-.11,1.235-.232,1.839a22.554,22.554,0,0,1-2.981,7.4c-.068.113-.133.226-.212.364a4.372,4.372,0,0,0,1.9,0c.288-.042.579-.09.87-.11a.682.682,0,0,1,.684.35.719.719,0,0,1-.062.8,3.307,3.307,0,0,1-1.478,1.144,5.59,5.59,0,0,1-3.139.435c-.076-.011-.155-.014-.291-.025-.042.472-.1.935-.119,1.4a12.483,12.483,0,0,1-.477,3.161,3.391,3.391,0,0,1-2.678,2.483,3.314,3.314,0,0,0-.387.136H13.41Zm-1.836-7.6c0,.2-.006.316,0,.427.068,1.54.088,3.082.218,4.616a2.391,2.391,0,0,0,2.218,2.257,4.223,4.223,0,0,0,1.17-.119,2.864,2.864,0,0,0,2.483-2.5c.167-1.02.288-2.048.427-3.074.073-.554.136-1.107.206-1.678a4.647,4.647,0,0,0,2.249.085,3.975,3.975,0,0,0,2.415-1.237c.121-.136.124-.379.184-.571a1.862,1.862,0,0,0-.579-.155c-.661.045-1.319.161-1.98.195a1.278,1.278,0,0,1-1.014-.3c.684-1.356,1.4-2.644,1.995-3.983A15.749,15.749,0,0,0,23.041,4.7a2.813,2.813,0,0,0-.477-1.989A6.071,6.071,0,0,0,20.379.987,8.56,8.56,0,0,0,14.334.741a.954.954,0,0,1-.356.04C13.687.744,13.4.665,13.113.637a5.371,5.371,0,0,0-3.523.638.65.65,0,0,1-.624.059A10.708,10.708,0,0,0,4.488.679,4.026,4.026,0,0,0,.742,3.368,6.85,6.85,0,0,0,.434,6.894c.237,1.449.557,2.89.921,4.311A17.234,17.234,0,0,0,3.16,15.87a5.219,5.219,0,0,0,.78,1.011A1.389,1.389,0,0,0,6.149,16.8c.167-.184.316-.381.48-.568.565-.638,1.133-1.277,1.63-1.834l1.706.432c0,.042.023.17-.028.237-.288.384-.54.814-1.054.949-.412.107-.831.2-1.24.325-.257.076-.542.161-.554.5s.251.463.494.576a3.65,3.65,0,0,0,2.051.266,3.118,3.118,0,0,0,1.932-1.076ZM7.3,16.062c.726-.3,1.672-.071,2.164-.9-.325-.1-.63-.206-.938-.294a.233.233,0,0,0-.2.057C7.98,15.3,7.641,15.68,7.3,16.062Z" transform="translate(0.002 0.011)" fill="#fff"/>
        <path id="Path_5458" data-name="Path 5458" d="M32.959,25.453a3.307,3.307,0,0,1,.54.175c.249.121.266.347.076.551a.761.761,0,0,1-1.24-.232c-.113-.291.1-.494.624-.5Z" transform="translate(-23.178 -18.257)" fill="#fff"/>
        <path id="Path_5459" data-name="Path 5459" d="M61.532,24.4c.164.11.415.189.463.336.042.13-.121.35-.24.5a.656.656,0,0,1-.353.175A.7.7,0,0,1,60.633,25c-.059-.237.136-.418.548-.5.1-.02.2-.023.3-.037l.048-.065Z" transform="translate(-43.496 -17.504)" fill="#fff"/>
      </g>
    </g>
    <g id="https___mariadb.com_wp-content_uploads_2019_11_mariadb-horizontal-black" transform="translate(513 602)">
      <path id="Path_5460" data-name="Path 5460" d="M297.9,68.81l2.413,9.316H298.49l-1.613-6.71-3.019,6.71h-1.531l-3.006-6.671-1.652,6.671h-1.78l2.387-9.316h1.574l3.251,7.213,3.239-7.213Z" transform="translate(-248.642 -60.125)" fill="rgba(15,3,121,0.41)"/>
      <path id="Path_5461" data-name="Path 5461" d="M406.828,88.169V87.085h1.755v6.8h-1.755v-1.1a2.888,2.888,0,0,1-2.58,1.239,3.56,3.56,0,0,1-3.778-3.677,3.3,3.3,0,0,1,3.518-3.42A3.238,3.238,0,0,1,406.828,88.169Zm-4.49,2.271a2.185,2.185,0,0,0,2.309,2.323,2.16,2.16,0,0,0,2.271-2.284,2.2,2.2,0,0,0-2.345-2.3A2.131,2.131,0,0,0,402.338,90.44Z" transform="translate(-348.294 -75.884)" fill="rgba(15,3,121,0.41)"/>
      <path id="Path_5462" data-name="Path 5462" d="M481.415,93.883H479.66v-6.8h1.755v1.523a2.7,2.7,0,0,1,2.451-1.678,3.153,3.153,0,0,1,1.1.181l-.374,1.29a3.865,3.865,0,0,0-.929-.13,2.228,2.228,0,0,0-2.245,2.361Z" transform="translate(-417.167 -75.882)" fill="rgba(15,3,121,0.41)"/>
      <path id="Path_5463" data-name="Path 5463" d="M527.087,68.263a.892.892,0,0,1,.942-.912.925.925,0,0,1,.955.942.887.887,0,0,1-.955.9.9.9,0,0,1-.942-.933Zm.077,1.793h1.755v4.968c0,.31.065.529.323.529a1.873,1.873,0,0,0,.335-.039l.271,1.278a3.116,3.116,0,0,1-1.161.206c-.736,0-1.523-.219-1.523-1.884Z" transform="translate(-458.414 -58.854)" fill="rgba(15,3,121,0.41)"/>
      <path id="Path_5464" data-name="Path 5464" d="M558.909,88.169V87.085h1.754v6.8h-1.754v-1.1a2.891,2.891,0,0,1-2.581,1.239,3.56,3.56,0,0,1-3.778-3.677,3.3,3.3,0,0,1,3.518-3.42A3.242,3.242,0,0,1,558.909,88.169Zm-4.491,2.271a2.186,2.186,0,0,0,2.31,2.323A2.16,2.16,0,0,0,559,90.479a2.2,2.2,0,0,0-2.345-2.3A2.132,2.132,0,0,0,554.418,90.44Z" transform="translate(-480.56 -75.884)" fill="rgba(15,3,121,0.41)"/>
      <path id="Path_5465" data-name="Path 5465" d="M635.51,68.81h4.207c3.535,0,5.3,1.954,5.277,4.658.026,2.813-1.923,4.658-4.968,4.658H635.51Zm1.161.826v7.677h3.2a3.839,3.839,0,1,0,0-7.677Z" transform="translate(-552.711 -60.125)" fill="rgba(15,3,121,0.41)"/>
      <path id="Path_5466" data-name="Path 5466" d="M727.692,78.126H722.35V68.81h4.813c1.845,0,3.6.349,3.574,2.413a1.867,1.867,0,0,1-1.858,2.013,2.2,2.2,0,0,1,2.168,2.374C731.058,77.694,729.227,78.126,727.692,78.126Zm-.4-5.252c1.845,0,2.258-.71,2.258-1.613,0-1.355-.826-1.665-2.258-1.665H723.46v3.278Zm.051.782H723.46v3.677h4.056c1.136,0,2.336-.374,2.336-1.806-.005-1.646-1.386-1.864-2.509-1.864Z" transform="translate(-628.237 -60.125)" fill="rgba(15,3,121,0.41)"/>
      <path id="Path_5467" data-name="Path 5467" d="M38.982,2.278a.568.568,0,0,0-.38-.13,2.976,2.976,0,0,0-1.128.391l-.106.053a3.6,3.6,0,0,1-1.408.362c-.5.016-.937.046-1.5.1-3.343.344-4.827,2.9-6.262,5.377a17.422,17.422,0,0,1-2.693,3.815,7.155,7.155,0,0,1-.728.618,15.7,15.7,0,0,1-3.7,1.885c-1.076.412-2.251.782-3.387,1.139-1.042.328-2.021.637-2.924.972-.408.152-.754.261-1.059.369A7.857,7.857,0,0,0,11.422,18.3c-.337.231-.676.482-.912.67A9.571,9.571,0,0,0,8.7,20.87a11.229,11.229,0,0,1-1.511,1.824,1.4,1.4,0,0,1-.993.261,12.92,12.92,0,0,1-1.991-.241,13.682,13.682,0,0,0-2.2-.261,2.5,2.5,0,0,0-1.269.268,2.328,2.328,0,0,0-.741.7l.216.1a4.531,4.531,0,0,1,.925.662,4.56,4.56,0,0,0,.96.683.857.857,0,0,1,.3.2c-.091.13-.225.3-.365.489C1.261,26.557.812,27.2,1.07,27.542a.8.8,0,0,0,.391.091,7.442,7.442,0,0,0,3.725-.99c.335-.151.677-.317,1.068-.486A16.282,16.282,0,0,0,8.4,24.917a13.905,13.905,0,0,1,3.06-1.642,8.3,8.3,0,0,1,2.568-.362,26.423,26.423,0,0,1,3.277.283c.809.1,1.646.211,2.466.261.319.018.615.027.9.027a10.375,10.375,0,0,0,1.15-.06l.091-.033a3.4,3.4,0,0,0,1.107-1.847,4.324,4.324,0,0,1,.528-1.173.349.349,0,0,1,.044-.035.053.053,0,0,1,.065.01v.021a11.018,11.018,0,0,1-2.46,6.316l-.782.838a6.113,6.113,0,0,0,1.715-.24,8.552,8.552,0,0,0,5.231-4.56,19.327,19.327,0,0,0,.823-1.881c.021-.053.219-.152.2.13,0,.082-.012.173-.018.261h0c0,.056-.008.113-.01.171-.033.4-.13,1.248-.13,1.248l.7-.377c1.694-1.071,3-3.222,3.982-6.576.412-1.4.713-2.783.978-4.008A13.376,13.376,0,0,1,34.8,8.475a6.744,6.744,0,0,1,1.971-1.788l.3-.207a4.055,4.055,0,0,0,2.025-2.765v-.03C39.245,2.661,39.121,2.4,38.982,2.278Z" transform="translate(0 -2.148)" fill="rgba(15,3,121,0.41)"/>
    </g>
    <g id="b-2" data-name="b" transform="translate(751 606)">
      <g id="c-2" data-name="c" transform="translate(0)">
        <g id="Group_567" data-name="Group 567" transform="translate(0)">
          <path id="Path_5468" data-name="Path 5468" d="M350.021,21.091a27.323,27.323,0,0,1-2.694-.962,10.105,10.105,0,0,1-5.836-7.257A10.182,10.182,0,0,1,344.4,2.993,10,10,0,0,1,351.606,0a1.186,1.186,0,0,1,.2.047,13.928,13.928,0,0,1-.02,1.4c-.01.1-.281.255-.438.263A8.292,8.292,0,0,0,347.038,3.1,8.633,8.633,0,0,0,343,11.392a8.807,8.807,0,0,0,6.6,7.746,10.145,10.145,0,0,0,1.795.236c.309.023.42.124.414.43-.009.429.018.858.031,1.287Z" transform="translate(-297.656)" fill="rgba(15,3,121,0.41)"/>
          <path id="Path_5469" data-name="Path 5469" d="M-.009,51.353a11.386,11.386,0,0,1,.844-1.842,4.406,4.406,0,0,1,7.075-.18l-.739.637c-.251-.221-.508-.482-.8-.7a3.29,3.29,0,0,0-3.847-.015A3.5,3.5,0,0,0,4.307,55.58a2.839,2.839,0,0,0,2.842-2.5h-3A1.565,1.565,0,0,1,5.587,52.06H8.34a3.966,3.966,0,0,1-3.275,4.458,4.309,4.309,0,0,1-4.906-3.16,3.12,3.12,0,0,0-.168-.379V51.352Z" transform="translate(0.01 -41.558)" fill="rgba(15,3,121,0.41)"/>
          <path id="Path_5470" data-name="Path 5470" d="M838.035,57.239a.151.151,0,0,0-.047-.006,1.686,1.686,0,0,1-1.926-1.056,26.473,26.473,0,0,0-1.607-2.315,1.636,1.636,0,0,0-.463-.306l-.13.106V57.2H832.81V48.57a27.125,27.125,0,0,1,2.844.209A2.2,2.2,0,0,1,837.469,51a2.338,2.338,0,0,1-1.7,2.424c-.089.027-.177.057-.319.1l2.583,3.525Zm-4.185-7.746c0,1.093-.009,2.013.013,2.933,0,.1.188.282.271.272a7.814,7.814,0,0,0,1.535-.271,1.239,1.239,0,0,0,.8-1.292,1.214,1.214,0,0,0-.828-1.267,18.094,18.094,0,0,0-1.789-.375Z" transform="translate(-726.511 -42.371)" fill="rgba(15,3,121,0.41)"/>
          <path id="Path_5471" data-name="Path 5471" d="M382.02,31.533a5.817,5.817,0,0,0-2.813-1.994,5.288,5.288,0,0,0-5.46,1.59,5.558,5.558,0,0,0,2,8.714,4.569,4.569,0,0,0,6.162-2.859,4.57,4.57,0,0,0,.08-.711h-4.529c.553-.568,1-1.031,1.451-1.486a.338.338,0,0,1,.223-.069c1.56,0,3.121,0,4.717,0a6.637,6.637,0,0,1-.934,4.137,6.194,6.194,0,0,1-6.387,2.854,6.7,6.7,0,0,1-5.616-5.232,7.022,7.022,0,0,1,12-6.428c.206.207.269.361.015.583-.237.207-.435.458-.654.687-.064.068-.142.121-.255.217Z" transform="translate(-323.371 -24.213)" fill="rgba(15,3,121,0.41)"/>
          <path id="Path_5472" data-name="Path 5472" d="M217.461,57.091c-.462.009-.924.04-1.384.013a.637.637,0,0,1-.389-.278c-.721-1.012-1.422-2.041-2.147-3.051a2.664,2.664,0,0,0-.586-.417v3.726h-1.1V48.45a27.938,27.938,0,0,1,2.945.251,2.206,2.206,0,0,1,1.755,2.267,2.379,2.379,0,0,1-1.6,2.318c-.117.041-.237.08-.412.139.571.789,1.112,1.551,1.667,2.3.309.419.643.818.965,1.227l.061.027v-.07l0-.005.223.185Zm-4.485-4.475a10.73,10.73,0,0,0,1.428-.172,1.435,1.435,0,0,0,.78-2.35,2.793,2.793,0,0,0-2.208-.587v3.111Z" transform="translate(-184.817 -42.266)" fill="rgba(15,3,121,0.41)"/>
          <path id="Path_5473" data-name="Path 5473" d="M61.411,55.034c1.372-2.994,2.714-5.925,4.11-8.974l4.112,8.973a7.831,7.831,0,0,1-.983-.013.529.529,0,0,1-.323-.276c-.253-.514-.454-1.053-.725-1.556a.684.684,0,0,0-.489-.313c-1.067-.028-2.134-.005-3.2-.022a.449.449,0,0,0-.488.337c-.2.47-.452.915-.627,1.391a.582.582,0,0,1-.706.459,5.386,5.386,0,0,0-.683-.005ZM65.52,48.46c-.523,1.195-1,2.282-1.486,3.4h2.979c-.5-1.132-.973-2.212-1.492-3.4Z" transform="translate(-53.571 -40.181)" fill="rgba(15,3,121,0.41)"/>
          <path id="Path_5474" data-name="Path 5474" d="M254.213,55.006l-.223-.185c.577-1.292,1.149-2.585,1.732-3.873.721-1.592,1.453-3.178,2.235-4.889l4.075,8.9c-.06.04-.083.069-.108.07-1.02.05-1.1.075-1.412-.878a1.609,1.609,0,0,0-2-1.307c-.7.1-1.432,0-2.147.034a.708.708,0,0,0-.488.313c-.222.383-.378.805-.563,1.21a1,1,0,0,1-1.1.609Zm5.24-3.142-1.5-3.4-1.491,3.4Z" transform="translate(-221.57 -40.181)" fill="rgba(15,3,121,0.41)"/>
          <path id="Path_5475" data-name="Path 5475" d="M169.888,56.73v.964a1.336,1.336,0,0,1-.273.06c-1.324,0-2.647,0-3.971.006-.249,0-.385-.05-.384-.338.008-2.7.006-5.39.01-8.086a.615.615,0,0,1,.049-.156h4.553v.962h-3.458v2.374h3.359v1.026H166.4v3.188h3.486Z" transform="translate(-144.165 -42.903)" fill="rgba(15,3,121,0.41)"/>
          <path id="Path_5476" data-name="Path 5476" d="M787.5,56.816h3.445V57.8H786.39V49.27h4.541a.39.39,0,0,1,.047.1c.1.879.1.883-.771.883h-2.7V52.58h3.357v1.039H787.5Z" transform="translate(-686.016 -42.981)" fill="rgba(15,3,121,0.41)"/>
          <path id="Path_5477" data-name="Path 5477" d="M642.49,49.18h1.024a3.35,3.35,0,0,1,.038.359c0,1.737.008,3.474,0,5.211A3,3,0,0,1,640.79,57.9a2.965,2.965,0,0,1-3.454-2.751c-.08-1.971-.019-3.947-.019-5.958h1.057v.482c0,1.53-.005,3.059,0,4.59a5.667,5.667,0,0,0,.094,1,1.977,1.977,0,0,0,3.884.086,6.487,6.487,0,0,0,.128-1.326c.015-1.45.005-2.9.006-4.351V49.18Z" transform="translate(-555.951 -42.903)" fill="rgba(15,3,121,0.41)"/>
          <path id="Path_5478" data-name="Path 5478" d="M699.57,48.9l-.832.509a1.5,1.5,0,0,0-1.47-.78,2.092,2.092,0,0,0-.946.384.949.949,0,0,0,.071,1.612,8.763,8.763,0,0,0,1.15.571,11.487,11.487,0,0,1,1.154.564,2.391,2.391,0,0,1,1.117,2.59,2.638,2.638,0,0,1-2.032,2.112,2.682,2.682,0,0,1-3.27-1.981,2.98,2.98,0,0,1-.042-.356l1.012-.234c.046.161.089.309.131.458a1.628,1.628,0,0,0,1.574,1.162,1.584,1.584,0,0,0,1.492-1.133,1.4,1.4,0,0,0-.673-1.756c-.422-.249-.891-.421-1.33-.645a7.574,7.574,0,0,1-1.039-.582,2.016,2.016,0,0,1-.066-3.186,2.628,2.628,0,0,1,4,.692Z" transform="translate(-605.828 -41.5)" fill="rgba(15,3,121,0.41)"/>
          <path id="Path_5479" data-name="Path 5479" d="M548.291,54.761a4.481,4.481,0,0,1-.014.87.783.783,0,0,1-.319.5,4.463,4.463,0,1,1-3.607-8.157,4.637,4.637,0,0,1,3.357-.049c.44.157.662.394.588.877a4.986,4.986,0,0,0-.005.661,3.594,3.594,0,0,0-3.284-.675,3.23,3.23,0,0,0-1.761,1.324,3.589,3.589,0,0,0,.232,4.308c1.183,1.349,2.622,1.465,4.812.341Z" transform="translate(-472.416 -41.553)" fill="rgba(15,3,121,0.41)"/>
          <path id="Path_5480" data-name="Path 5480" d="M741.664,50.175h-2V49.22h5.1v.956c-.516,0-1.035.024-1.551-.008-.391-.024-.482.121-.48.491.015,2.169.008,4.337.008,6.506v.594h-1.067V50.175Z" transform="translate(-645.25 -42.938)" fill="rgba(15,3,121,0.41)"/>
          <path id="Path_5481" data-name="Path 5481" d="M607.983,56.737v1.008H604.35V49.2h1.04v7.537h2.591Z" transform="translate(-527.211 -42.92)" fill="rgba(15,3,121,0.41)"/>
          <path id="Path_5482" data-name="Path 5482" d="M131.47,49.15H132.5V56.7H135.1v1H131.47Z" transform="translate(-114.688 -42.877)" fill="rgba(15,3,121,0.41)"/>
          <path id="Path_5483" data-name="Path 5483" d="M447.39,7.353a.866.866,0,0,1-.841-.909.826.826,0,0,1,.859-.826.9.9,0,0,1,.864.849.926.926,0,0,1-.882.887Z" transform="translate(-389.551 -4.901)" fill="rgba(15,3,121,0.41)"/>
          <path id="Path_5484" data-name="Path 5484" d="M488.491,105.16a.8.8,0,0,1,.835.83.833.833,0,0,1-.839.89.883.883,0,0,1-.878-.869.858.858,0,0,1,.882-.849Z" transform="translate(-425.37 -91.738)" fill="rgba(15,3,121,0.41)"/>
          <path id="Path_5485" data-name="Path 5485" d="M472.836,130.58a.8.8,0,0,1-.836.84.856.856,0,0,1-.881-.86.907.907,0,0,1,.906-.86.85.85,0,0,1,.812.882Z" transform="translate(-410.985 -113.145)" fill="rgba(15,3,121,0.41)"/>
          <path id="Path_5486" data-name="Path 5486" d="M489.331,47.668a.8.8,0,0,1-.887.789.876.876,0,0,1-.827-.874.89.89,0,0,1,.911-.849A.847.847,0,0,1,489.331,47.668Z" transform="translate(-425.377 -40.768)" fill="rgba(15,3,121,0.41)"/>
          <path id="Path_5487" data-name="Path 5487" d="M472.836,23.125a.847.847,0,0,1-.817.873.93.93,0,0,1-.9-.872.857.857,0,0,1,.893-.848A.794.794,0,0,1,472.836,23.125Z" transform="translate(-410.985 -19.435)" fill="rgba(15,3,121,0.41)"/>
          <path id="Path_5488" data-name="Path 5488" d="M448.287,147.056a.859.859,0,0,1-.86.888.841.841,0,0,1-.858-.828.855.855,0,0,1,.848-.9A.893.893,0,0,1,448.287,147.056Z" transform="translate(-389.568 -127.557)" fill="rgba(15,3,121,0.41)"/>
          <path id="Path_5489" data-name="Path 5489" d="M495.225,76.83a.878.878,0,0,1-.878.876.858.858,0,1,1,.878-.876Z" transform="translate(-430.509 -66.291)" fill="rgba(15,3,121,0.41)"/>
          <path id="Path_5490" data-name="Path 5490" d="M253.58,114.731v.07l-.06-.027a.054.054,0,0,1,.06-.045Z" transform="translate(-221.16 -100.086)" fill="rgba(15,3,121,0.41)"/>
        </g>
      </g>
    </g>
    <g id="b-3" data-name="b" transform="translate(658 593)">
      <g id="c-3" data-name="c" transform="translate(0 0)">
        <path id="Path_5491" data-name="Path 5491" d="M113.514,11.563a2.393,2.393,0,0,0-.574.069v.027h.027a4.468,4.468,0,0,0,.448.574c.114.224.209.448.323.669l.027-.027a.785.785,0,0,0,.3-.7,2.924,2.924,0,0,1-.167-.293c-.084-.14-.266-.209-.376-.323" transform="translate(-79.199 -8.109)" fill="rgba(15,3,121,0.41)" fill-rule="evenodd"/>
        <g id="Group_568" data-name="Group 568">
          <path id="Path_5492" data-name="Path 5492" d="M12.07,76.794H10.134q-.1-4.9-.565-9.223H9.551L6.6,76.794H5.127L2.2,67.571H2.178q-.327,4.15-.412,9.223H0Q.17,70.623.857,65.22h2.4l2.793,8.5h.018l2.811-8.5h2.3q.753,6.328.89,11.574" transform="translate(0 -45.738)" fill="rgba(15,3,121,0.41)"/>
          <path id="Path_5493" data-name="Path 5493" d="M50.652,75.38q-1.183,6.417-3.119,9.33-1.51,2.241-3.31,2.244a3.263,3.263,0,0,1-1.183-.287V85.636a5.725,5.725,0,0,0,.807.051,1.953,1.953,0,0,0,1.353-.463,1.686,1.686,0,0,0,.615-1.27,8.487,8.487,0,0,0-.481-1.972l-2.127-6.6h1.9l1.527,4.935a6.57,6.57,0,0,1,.427,2.348,32.275,32.275,0,0,0,1.748-7.287h1.834Z" transform="translate(-30.182 -52.863)" fill="rgba(15,3,121,0.41)"/>
          <path id="Path_5494" data-name="Path 5494" d="M141.9,76.794h-5.5V65.22h1.852V75.369H141.9Z" transform="translate(-95.65 -45.738)" fill="rgba(15,3,121,0.41)"/>
          <path id="Path_5495" data-name="Path 5495" d="M109.168,76.665l-2.127-1.049a3.942,3.942,0,0,0,.532-.517,7.111,7.111,0,0,0,1.356-4.714q0-5.741-4.508-5.745a4.272,4.272,0,0,0-3.448,1.458,7.091,7.091,0,0,0-1.353,4.7,6.807,6.807,0,0,0,1.2,4.475,4.11,4.11,0,0,0,3.31,1.285,5.384,5.384,0,0,0,1.515-.2l2.769,1.613.756-1.3Zm-6.892-2.593a7.13,7.13,0,0,1-.7-3.633q0-4.369,2.656-4.371a2.234,2.234,0,0,1,2.04,1.046,7.051,7.051,0,0,1,.7,3.6q0,4.405-2.656,4.407a2.228,2.228,0,0,1-2.04-1.046" transform="translate(-69.858 -45.332)" fill="rgba(15,3,121,0.41)" fill-rule="evenodd"/>
          <path id="Path_5496" data-name="Path 5496" d="M79.866,73.227a3.074,3.074,0,0,1-1.079,2.417,4.252,4.252,0,0,1-2.895.941A5.8,5.8,0,0,1,72.6,75.5l.5-.995a5.638,5.638,0,0,0,2.486.684,2.621,2.621,0,0,0,1.637-.46,1.572,1.572,0,0,0,.63-1.285c0-.687-.478-1.276-1.359-1.766-.813-.445-2.435-1.374-2.435-1.374a2.775,2.775,0,0,1-1.321-2.462,2.874,2.874,0,0,1,.986-2.271,3.719,3.719,0,0,1,2.545-.866,5.353,5.353,0,0,1,2.931.857l-.448.992a5.662,5.662,0,0,0-2.229-.478,1.986,1.986,0,0,0-1.371.43,1.438,1.438,0,0,0-.52,1.1c0,.684.49,1.279,1.392,1.781.822.445,2.483,1.392,2.483,1.392a2.732,2.732,0,0,1,1.353,2.447" transform="translate(-50.91 -45.381)" fill="rgba(15,3,121,0.41)"/>
          <path id="Path_5497" data-name="Path 5497" d="M118.159,15.617a6.479,6.479,0,0,0-2.713.391c-.209.084-.544.084-.574.35.114.111.125.293.224.448a3.2,3.2,0,0,0,.726.851c.293.224.589.448.9.642.544.338,1.159.532,1.691.866.308.194.615.448.923.657.152.111.251.293.448.361v-.042c-.1-.125-.125-.308-.224-.448-.14-.137-.281-.266-.421-.4a6.592,6.592,0,0,0-1.455-1.413c-.448-.308-1.428-.729-1.607-1.243,0,0-.015-.015-.027-.03a5.587,5.587,0,0,0,.965-.224c.475-.125.908-.1,1.4-.224.224-.057.448-.125.672-.194v-.125c-.254-.251-.433-.589-.7-.825a18.734,18.734,0,0,0-2.306-1.721c-.433-.281-.995-.46-1.455-.7-.167-.084-.445-.125-.544-.266a5.686,5.686,0,0,1-.574-1.076c-.406-.768-.8-1.619-1.147-2.432a14.743,14.743,0,0,0-.714-1.592A14.063,14.063,0,0,0,106.233,2a6.691,6.691,0,0,0-1.79-.574c-.35-.015-.7-.042-1.049-.057a5.516,5.516,0,0,1-.642-.49c-.8-.5-2.853-1.592-3.439-.152-.376.908.559,1.8.881,2.265a6.476,6.476,0,0,1,.711,1.049c.1.239.125.49.224.741a17,17,0,0,0,.726,1.873,6.5,6.5,0,0,0,.517.866c.114.155.308.224.35.475a4.1,4.1,0,0,0-.323,1.049,6.166,6.166,0,0,0,.406,4.7c.224.35.756,1.12,1.47.825.63-.251.49-1.049.672-1.748.042-.17.015-.281.1-.391v.027c.194.391.391.768.574,1.159a7.969,7.969,0,0,0,1.819,1.873c.335.254.6.684,1.019.84v-.042h-.027a1.442,1.442,0,0,0-.323-.278,6.583,6.583,0,0,1-.726-.84,17.923,17.923,0,0,1-1.565-2.545c-.224-.433-.418-.908-.6-1.341-.084-.167-.084-.418-.224-.5a5.416,5.416,0,0,0-.672.95,7.908,7.908,0,0,0-.391,2.112c-.057.015-.027,0-.057.027-.448-.111-.6-.574-.768-.962a6.054,6.054,0,0,1-.125-3.734c.1-.293.517-1.216.35-1.5-.084-.266-.364-.418-.517-.63a5.283,5.283,0,0,1-.5-.9c-.335-.783-.5-1.649-.866-2.432a7.437,7.437,0,0,0-.7-1.076,6.983,6.983,0,0,1-.771-1.09c-.069-.155-.167-.406-.057-.574a.222.222,0,0,1,.2-.182c.182-.152.7.042.881.125a7.143,7.143,0,0,1,1.383.7c.2.14.406.406.657.475h.293c.448.1.95.027,1.371.152a8.965,8.965,0,0,1,2.014.965A12.426,12.426,0,0,1,111.076,8c.167.32.239.615.391.95.293.687.657,1.386.95,2.055a9.1,9.1,0,0,0,.995,1.873c.209.293,1.049.448,1.425.6a9.571,9.571,0,0,1,.965.391c.475.293.95.63,1.4.95.224.167.923.517.965.8" transform="translate(-69.582 -0.01)" fill="rgba(15,3,121,0.41)" fill-rule="evenodd"/>
          <path id="Path_5498" data-name="Path 5498" d="M160.6,100.619h.29V99.2h-.436l-.356.968-.385-.968H159.3v1.419h.275V99.541h.015l.4,1.079h.209l.4-1.079v1.079Zm-2.333,0h.308V99.442h.4V99.2H157.85v.242h.418Z" transform="translate(-110.691 -69.567)" fill="rgba(15,3,121,0.41)"/>
        </g>
      </g>
    </g>
  </g>
</svg>
