<svg xmlns="http://www.w3.org/2000/svg" xmlns:xlink="http://www.w3.org/1999/xlink" width="60.254" height="10.028" viewBox="0 0 60.254 10.028"><defs><clipPath id="a"><rect width="60.254" height="10.028" fill="#fff"/></clipPath></defs><g clip-path="url(#a)"><path d="M114.7,5.076a.618.618,0,0,0,.223-.494,4.822,4.822,0,0,0-.391-1.894,4.764,4.764,0,0,0-.984-1.447A4.1,4.1,0,0,0,112.14.314,4.542,4.542,0,0,0,110.486,0,4.273,4.273,0,0,0,108.3.6a4.571,4.571,0,0,0-1.671,1.744,5.569,5.569,0,0,0-.64,2.757,5.168,5.168,0,0,0,.614,2.551,4.44,4.44,0,0,0,1.726,1.735,5.218,5.218,0,0,0,2.615.631,4.284,4.284,0,0,0,1.885-.425,4.7,4.7,0,0,0,1.417-1,.756.756,0,0,0,.3-.575.61.61,0,0,0-.185-.447.6.6,0,0,0-.447-.185.828.828,0,0,0-.481.168,4.381,4.381,0,0,1-.584.511,3.085,3.085,0,0,1-.824.417,3.8,3.8,0,0,1-2.95-.3,3.282,3.282,0,0,1-1.215-1.288,3.826,3.826,0,0,1-.43-1.615h6.747a.772.772,0,0,0,.52-.193m-6.3-2.847a2.838,2.838,0,0,1,.984-.631,3.112,3.112,0,0,1,1.1-.2,3.012,3.012,0,0,1,1.31.3,2.965,2.965,0,0,1,1.056.846,2.282,2.282,0,0,1,.49,1.31V4h-5.828a3.561,3.561,0,0,1,.18-.648,3.092,3.092,0,0,1,.7-1.112" transform="translate(-84.705)" fill="#040305"/><path d="M168.588,4.99a5.17,5.17,0,0,1-.64,2.581,4.746,4.746,0,0,1-1.726,1.782,4.647,4.647,0,0,1-2.439.648A4.706,4.706,0,0,1,159.6,7.572a5.17,5.17,0,0,1-.64-2.581,5.17,5.17,0,0,1,.64-2.581,4.706,4.706,0,0,1,4.183-2.431,4.687,4.687,0,0,1,2.439.648,4.81,4.81,0,0,1,1.726,1.782A5.126,5.126,0,0,1,168.588,4.99Zm-1.5,0a3.955,3.955,0,0,0-.434-1.885,3.406,3.406,0,0,0-1.185-1.28,3.107,3.107,0,0,0-1.679-.472,3.154,3.154,0,0,0-1.7.472,3.437,3.437,0,0,0-1.2,1.28,3.849,3.849,0,0,0-.447,1.885,3.81,3.81,0,0,0,.447,1.872,3.4,3.4,0,0,0,1.2,1.288,3.134,3.134,0,0,0,1.7.472,3.076,3.076,0,0,0,1.679-.472,3.332,3.332,0,0,0,1.185-1.288A3.9,3.9,0,0,0,167.085,4.99Z" transform="translate(-127.032 0.017)" fill="#040305"/><path d="M214.645,8.315a.874.874,0,0,1-.137-.511.6.6,0,0,1,.3-.472.73.73,0,0,1,.455-.112.694.694,0,0,1,.455.24,4.179,4.179,0,0,0,1.185.975,3.4,3.4,0,0,0,1.632.361,3.849,3.849,0,0,0,.881-.146,1.6,1.6,0,0,0,.76-.455,1.191,1.191,0,0,0,.305-.863,1.069,1.069,0,0,0-.314-.825,2.421,2.421,0,0,0-.825-.5,10.079,10.079,0,0,0-1.087-.344c-.408-.112-.812-.236-1.207-.369a4.484,4.484,0,0,1-1.065-.528,2.557,2.557,0,0,1-.76-.816,2.358,2.358,0,0,1-.288-1.215,2.346,2.346,0,0,1,.455-1.447,2.978,2.978,0,0,1,1.215-.945A4.073,4.073,0,0,1,218.3,0a5.132,5.132,0,0,1,1.087.12,4.19,4.19,0,0,1,1.1.408,3.067,3.067,0,0,1,.945.79.75.75,0,0,1,.185.464.6.6,0,0,1-.241.5.7.7,0,0,1-.455.137.588.588,0,0,1-.417-.176,2.629,2.629,0,0,0-.992-.734,3.236,3.236,0,0,0-1.288-.249,2.843,2.843,0,0,0-.855.137,1.681,1.681,0,0,0-.713.438,1.168,1.168,0,0,0-.288.833,1.169,1.169,0,0,0,.335.816,2.264,2.264,0,0,0,.855.511c.357.129.756.258,1.185.382.4.1.777.215,1.142.344a4.011,4.011,0,0,1,.992.511,2.284,2.284,0,0,1,.7.807,2.635,2.635,0,0,1,.258,1.233,2.343,2.343,0,0,1-.481,1.473,2.988,2.988,0,0,1-1.271.945,4.453,4.453,0,0,1-1.7.326,5.684,5.684,0,0,1-2.023-.382,3.885,3.885,0,0,1-1.726-1.327" transform="translate(-171.424)" fill="#040305"/><path d="M263.948,0a6.607,6.607,0,0,1,1.726.206,3.319,3.319,0,0,1,1.207.558,1.019,1.019,0,0,1,.447.8.78.78,0,0,1-.168.481.544.544,0,0,1-.464.223.726.726,0,0,1-.4-.1,2.213,2.213,0,0,1-.3-.241,1.751,1.751,0,0,0-.378-.271,2.762,2.762,0,0,0-.649-.193,4.43,4.43,0,0,0-.855-.082,3.344,3.344,0,0,0-1.791.481,3.459,3.459,0,0,0-1.215,1.3,3.823,3.823,0,0,0-.447,1.855,3.964,3.964,0,0,0,.425,1.855,3.31,3.31,0,0,0,1.19,1.3,3.214,3.214,0,0,0,1.761.481,3.852,3.852,0,0,0,1.031-.112,3.126,3.126,0,0,0,.657-.262,2.489,2.489,0,0,0,.494-.369.723.723,0,0,1,.984.017.726.726,0,0,1,.176.5.988.988,0,0,1-.464.722,3.845,3.845,0,0,1-1.263.623,5.92,5.92,0,0,1-1.782.249,4.593,4.593,0,0,1-2.469-.657,4.458,4.458,0,0,1-1.641-1.8,5.5,5.5,0,0,1-.584-2.551,5.355,5.355,0,0,1,.6-2.542,4.67,4.67,0,0,1,1.679-1.8A4.606,4.606,0,0,1,263.948,0Z" transform="translate(-207.125 0)" fill="#040305"/><path d="M15.618.8a5.01,5.01,0,0,0-5.441,0,.635.635,0,0,0-.292.481.665.665,0,0,0,.193.545l.271.271a.651.651,0,0,0,.812.1,3.3,3.3,0,0,1,3.474,0,.657.657,0,0,0,.812-.1l.271-.271a.674.674,0,0,0,.193-.545A.66.66,0,0,0,15.618.8Z" transform="translate(-7.896)" fill="#008691"/><path d="M4.247,16.4a3.337,3.337,0,0,1-2.079-5,.632.632,0,0,0-.094-.782L1.8,10.347a.642.642,0,0,0-.524-.185.622.622,0,0,0-.46.283,4.959,4.959,0,0,0-.8,2.706,5.025,5.025,0,0,0,3.943,4.887.666.666,0,0,0,.133.013.62.62,0,0,0,.4-.142.637.637,0,0,0,.241-.5V17.03a.638.638,0,0,0-.477-.623" transform="translate(-0.017 -8.118)" fill="#eb5d81"/><path d="M34.418.128a5,5,0,0,0-5,5v.047a3.362,3.362,0,0,1-2.693,3.234.451.451,0,0,0-.361.442v.764a.466.466,0,0,0,.159.348.434.434,0,0,0,.356.1,4.982,4.982,0,0,0,4.192-4.935,3.346,3.346,0,1,1,3.346,3.346.825.825,0,1,0,0,1.649,5,5,0,1,0,0-9.994Z" transform="translate(-21.07 -0.103)" fill="#008691"/></g></svg>