<?xml version="1.0" encoding="UTF-8"?>
<svg id="Logos" xmlns="http://www.w3.org/2000/svg" viewBox="0 0 576 207.34">
  <defs>
    <style>
      .cls-1 {
        fill: #fff;
        stroke-width: 0px;
      }
    </style>
  </defs>
  <path class="cls-1" d="M206.73,92.68h-114.16v76.44h114.27v-76.44h-.12ZM171.68,113.28l1.18,3.72h3.97l-3.2,2.4,1.25,3.81-3.19-2.35-3.19,2.35,1.26-3.81-3.24-2.4h3.96l1.2-3.72ZM161.12,107.63l1.2-3.72,1.17,3.72h3.98l-3.21,2.4,1.25,3.81-3.19-2.35-3.19,2.35,1.26-3.81-3.24-2.4h3.97ZM135.51,107.67l1.2-3.72,1.18,3.72h3.97l-3.2,2.41,1.25,3.81-3.19-2.35-3.19,2.35,1.26-3.81-3.23-2.41h3.96ZM126.41,117.03l1.2-3.72,1.17,3.72h3.98l-3.21,2.4,1.24,3.81-3.19-2.35-3.19,2.35,1.25-3.81-3.23-2.4h3.97ZM119.07,129.64h3.96l1.2-3.71,1.17,3.71h3.98l-3.21,2.4,1.25,3.81-3.19-2.34-3.19,2.34,1.26-3.81-3.23-2.4ZM127.61,146.5l-3.19,2.35,1.25-3.81-3.23-2.41h3.97l1.2-3.71,1.17,3.71h3.98l-3.21,2.41,1.24,3.81-3.19-2.35ZM140.03,158.08l-3.19-2.35-3.19,2.35,1.26-3.81-3.23-2.4h3.96l1.2-3.72,1.18,3.72h3.97l-3.2,2.4,1.24,3.81ZM148.37,104.23l1.2-3.86,1.18,3.86h3.98l-3.2,2.5,1.25,3.96-3.19-2.44-3.19,2.44,1.26-3.96-3.23-2.5h3.96ZM152.9,161.43l-3.19-2.35-3.19,2.35,1.26-3.81-3.24-2.41h3.97l1.2-3.72,1.17,3.72h3.98l-3.2,2.41,1.24,3.81ZM165.52,158.05l-3.19-2.35-3.19,2.35,1.26-3.81-3.24-2.4h3.97l1.2-3.72,1.17,3.72h3.98l-3.21,2.4,1.25,3.81ZM174.87,148.82l-3.19-2.35-3.19,2.35,1.26-3.81-3.24-2.41h3.96l1.2-3.72,1.18,3.72h3.97l-3.2,2.41,1.25,3.81ZM178.39,135.82l-3.19-2.35-3.19,2.35,1.26-3.81-3.24-2.4h3.96l1.21-3.71,1.17,3.71h3.98l-3.21,2.4,1.24,3.81Z"/>
  <g>
    <path class="cls-1" d="M224.2,38.22s23.47,37.39,27.77,44.24c4.29,6.85,9.2,12.28,26.57,15.96,17.37,3.68,24.93,5.42,24.93,5.42v1.33s-11.04-2.35-25.24-5.52c-14.2-3.17-20.01-4.24-26.48-13.25-5.39-7.5-27.55-41.04-27.55-41.04v-7.15Z"/>
    <path class="cls-1" d="M224.2,80.92s21.37,22.39,27.55,28.82c6.56,6.82,14.95,9.34,26.59,11.42,11.11,1.98,25.12,4.27,25.12,4.27v1.26s-13.16-2.16-25.12-4.2c-11.73-2.01-19.94-3.13-26.66-9.32-6.02-5.54-27.48-25.67-27.48-25.67v-6.59Z"/>
    <path class="cls-1" d="M224.2,91.01s20.32,18.87,27.55,25.32c6.65,5.93,12.04,7.78,26.66,10.37,14.62,2.59,25.05,4.2,25.05,4.2v1.33s-13.23-2.17-25.12-4.07c-11.89-1.89-19.47-2.64-26.59-8.41-8.21-6.66-27.55-22.58-27.55-22.58v-6.17Z"/>
    <path class="cls-1" d="M224.2,101.76s23.21,18.42,27.55,21.64c4.34,3.22,10.08,6.98,26.73,9.39,16.51,2.39,24.98,3.57,24.98,3.57v1.4s-14.97-2.17-24.98-3.43c-10.01-1.26-17.68-1.8-26.66-7.78-8.74-5.82-27.62-19.11-27.62-19.11v-5.68Z"/>
    <path class="cls-1" d="M224.2,112.1s23.28,15.5,27.69,17.96c4.41,2.45,9.59,6.45,26.59,8.62,17,2.17,24.98,3.15,24.98,3.15v1.33s-14.06-1.54-25.05-2.73c-10.98-1.19-18.47-2.8-26.66-7.29-8.19-4.48-27.55-15.8-27.55-15.8v-5.24Z"/>
    <path class="cls-1" d="M224.2,122.44s20.58,11.2,27.55,14.69c7.77,3.9,14.49,5.77,26.66,7.22,11.95,1.42,25.05,2.8,25.05,2.8v1.26s-12.11-1.3-25.05-2.52c-12.83-1.22-17.4-1.78-26.66-5.89-8.28-3.68-27.55-12.66-27.55-12.66v-4.91Z"/>
    <path class="cls-1" d="M224.2,132.92s16.26,6.96,27.69,11.5c11.24,4.46,19.83,4.84,26.66,5.61,3.01.34,24.91,2.59,24.91,2.59v1.26s-13.08-1.05-24.98-2.1c-11.9-1.05-17.03-1.5-26.66-4.69-9.75-3.24-27.62-9.47-27.62-9.47v-4.69Z"/>
    <path class="cls-1" d="M224.2,143.61s16.42,5.09,27.62,8.03c11.2,2.94,21.48,4.14,26.66,4.48,5.18.35,24.99,1.96,24.99,1.96v1.19s-11.27-.77-25.06-1.75c-11.15-.79-20.1-1.63-26.66-3.08-7.26-1.6-27.55-6.42-27.55-6.42v-4.41Z"/>
    <path class="cls-1" d="M224.2,154.12s13.43,2.32,27.62,4.67c10.64,1.76,25.05,2.87,26.59,2.94,1.54.07,25.05,1.68,25.05,1.68v1.26s-15.05-.78-25.05-1.33c-10.42-.58-20.78-1.21-26.66-1.82-13.18-1.37-27.55-3.19-27.55-3.19v-4.21Z"/>
    <path class="cls-1" d="M224.2,165s21.18.8,27.62.94c6.44.14,51.64,1.96,51.64,1.96v1.23h-79.26v-4.13Z"/>
    <path class="cls-1" d="M278.4,104.2c-19.17-4.13-23.51-11.14-26.73-15.48-3.22-4.35-27.48-39.8-27.48-39.8v6.52c.96,1.25,21.72,29.91,27.55,37.41,6.57,8.45,16.86,10.37,26.66,12.47,9.79,2.1,25.06,5.03,25.06,5.03v-1.12s-20.1-3.97-25.06-5.03Z"/>
    <path class="cls-1" d="M278.4,109.81c-15.74-3.08-22.11-8.06-26.73-14.08-4.62-6.03-27.48-36.86-27.48-36.86v7.58c.96,1.13,21.87,26.65,27.48,33.07,6.54,7.49,15.67,9.46,26.73,11.49,11.06,2.03,25.05,4.69,25.05,4.69v-1.12s-15.97-2.99-25.05-4.76Z"/>
    <path class="cls-1" d="M278.4,115.62c-16.37-3.18-19.73-5.79-26.66-13.38-4.36-4.77-26.61-31.04-27.55-32.15v7s20.79,22.18,27.48,28.73c8.77,8.6,17,9.25,26.73,11,9.73,1.75,25.05,4.55,25.05,4.55v-1.19s-18.5-3.28-25.05-4.55Z"/>
    <g>
      <path class="cls-1" d="M38.23,93.15s54.2-5.78,69.38-7.91c24-3.36,43.64-6.94,61.81-34.79,0,0,.02-1.58,0-2.29-11.13,16.93-26.48,28.48-47.62,31.83s-83.58,8.07-83.58,8.07v5.09Z"/>
      <path class="cls-1" d="M38.22,86.24s50.23-6.29,66.78-8.61c26.18-3.66,44.59-6.95,64.41-37.33,0,0,.01-1.31,0-2.08-12.14,18.47-27.13,30.4-50.19,34.06-22.53,3.58-81,8.8-81,8.8v5.17Z"/>
    </g>
    <rect class="cls-1" x="38.25" y="165.05" width="51.25" height="4.06"/>
    <path class="cls-1" d="M169.41,82.85s.03-2.39.02-2.9c-2.41,3.67-5.58,7-9.24,9.93h3.59c2.02-2.08,3.91-4.41,5.62-7.03Z"/>
    <path class="cls-1" d="M169.41,72.05s.02-2.12.01-2.7c-5.81,8.84-14.46,15.9-24.46,20.58l5.9-.02c6.82-3.97,13.16-9.61,18.54-17.86Z"/>
    <path class="cls-1" d="M169.41,61.25s.02-1.85,0-2.49c-10.11,15.39-25.83,25.92-45.05,28.97-4.55.72-11.96,1.52-20.57,2.33l23.47-.08c15.49-3.45,29.99-10.12,42.13-28.73Z"/>
    <path class="cls-1" d="M89.51,158.21c-26.15.14-51.26.25-51.26.25v4.23s26.3-.19,51.26-.4v-4.08Z"/>
    <path class="cls-1" d="M89.51,150.95c-25.97.29-51.27.51-51.27.51v4.32s26.57-.35,51.27-.74v-4.09Z"/>
    <path class="cls-1" d="M89.5,143.67c-25.78.45-51.26.79-51.26.79v4.41s26.85-.53,51.26-1.11v-4.09Z"/>
    <path class="cls-1" d="M89.51,136.35c-25.59.63-51.27,1.1-51.27,1.1v4.49s27.16-.74,51.27-1.51v-4.09Z"/>
    <path class="cls-1" d="M89.52,129.01c-25.4.81-51.28,1.45-51.28,1.45v4.58s27.49-.96,51.28-1.94v-4.08Z"/>
    <path class="cls-1" d="M89.51,121.64c-25.2,1.02-51.27,1.82-51.27,1.82v4.66s27.83-1.22,51.27-2.43v-4.06Z"/>
    <path class="cls-1" d="M89.52,114.22c-25.01,1.24-51.29,2.23-51.29,2.23v4.75s28.2-1.51,51.29-2.96v-4.02Z"/>
    <path class="cls-1" d="M89.52,106.76c-24.82,1.48-51.29,2.69-51.29,2.69v4.83s28.58-1.84,51.29-3.54v-3.98Z"/>
    <path class="cls-1" d="M89.52,99.26c-24.65,1.74-51.29,3.2-51.29,3.2v4.92s28.96-2.22,51.29-4.18v-3.93Z"/>
    <path class="cls-1" d="M89.52,91.69c-24.5,2.03-51.3,3.76-51.3,3.76v5s29.35-2.66,51.3-4.9v-3.86Z"/>
  </g>
  <g>
    <path class="cls-1" d="M320.82,104.65c0-.49.23-.76.76-.76h13.98c.46,0,.72.27.72.72v2.36c0,.46-.19.68-.76.68h-10.37v6.54h9.19c.49,0,.76.23.76.68v2.36c0,.46-.19.68-.76.68h-9.19v7.48h10.64c.46,0,.68.23.68.72v2.32c0,.49-.19.68-.72.68h-14.17c-.53,0-.76-.23-.76-.68v-23.79Z"/>
    <path class="cls-1" d="M355.62,129.11h-2.7c-.57,0-.72-.27-.72-.72v-1.18l-.08-.04c-1.48,1.03-4.07,2.28-6.38,2.28-5.13,0-5.62-3.04-5.62-7.03v-11.17c0-.46.19-.76.72-.76h2.77c.49,0,.68.27.68.76v10.68c0,2.28.46,3.72,2.77,3.72,1.63,0,4.14-1.22,5.13-1.71v-12.69c0-.46.15-.76.72-.76h2.7c.53,0,.72.27.72.76v17.14c0,.49-.19.72-.72.72Z"/>
    <path class="cls-1" d="M365.28,128.39c0,.46-.19.72-.72.72h-2.74c-.53,0-.72-.23-.72-.72v-17.14c0-.49.19-.76.72-.76h2.7c.57,0,.76.3.76.76v1.67l.08.08c1.14-1.06,3.84-2.36,5.62-2.7.49-.11.84,0,.91.65l.27,2.55c.04.53.08.76-.72.91-2.13.42-4.83,1.18-6.16,1.75v12.23Z"/>
    <path class="cls-1" d="M382,129.42c-7.64,0-8.13-5.58-8.13-9.92,0-3.57.8-9.38,8.13-9.38s8.4,4.9,8.4,9.38-.53,9.92-8.4,9.92ZM382.03,113.77c-3.23,0-3.95,2.05-3.95,6s.72,6,3.91,6c3.46,0,4.14-1.94,4.14-6s-.65-6-4.1-6Z"/>
    <path class="cls-1" d="M402.97,129.46c-1.25,0-3-.23-4.75-.84l-.04.04v6.69c0,.42-.11.76-.72.76h-2.7c-.61,0-.72-.27-.72-.76v-24.09c0-.49.19-.76.72-.76h2.7c.53,0,.68.3.68.76v1.14l.11.08c1.37-.95,3.8-2.28,6-2.28,4.98,0,6.27,3.76,6.27,9.5,0,6.19-1.56,9.76-7.56,9.76ZM403.28,113.99c-1.56,0-3.95,1.1-5.09,1.71v9.5c1.71.49,3.08.65,4.37.65,2.74,0,3.69-1.41,3.69-6.19s-.95-5.66-2.96-5.66Z"/>
    <path class="cls-1" d="M417.83,120.95c.11,3.84,1.48,4.9,4.6,4.9,1.37,0,3.5-.27,4.94-.42.68-.08.91-.08,1.03.65l.23,1.25c.11.57.04.87-.65,1.18-1.48.57-4.25.95-6.12.95-7.26,0-8.32-4.63-8.32-9.57,0-3.69.68-9.76,8.09-9.76,6.8,0,8.02,4.41,8.13,8.51.04,1.37-.34,2.32-1.86,2.32h-10.07ZM417.87,118.1h7.52c0-2.32-.61-4.56-3.76-4.56-2.81,0-3.57,1.71-3.76,4.56Z"/>
    <path class="cls-1" d="M444.96,126.95c-1.9,1.44-4.45,2.47-6.99,2.47-4.03,0-5.21-2.2-5.21-5.39-.04-4.45,2.36-6.35,7.14-6.35h4.86v-.99c0-2.28-.84-3.08-3.95-3.08-1.25,0-3.65.19-5.17.34-.76.11-.95.08-1.06-.46l-.34-1.41c-.08-.49.04-.8.87-1.14,1.63-.57,4.64-.84,6.42-.84,6.57,0,7.37,2.7,7.37,6.95v7.33c0,1.56.19,1.6,1.37,1.75.57.04.72.15.72.57v1.6c0,.42-.27.68-.91.8-.61.11-1.22.19-1.79.19-1.79,0-2.89-.53-3.27-2.32l-.08-.04ZM444.73,120.64h-4.64c-1.9,0-3.12.68-3.12,3.19,0,1.67.57,2.2,2.36,2.2,1.63,0,3.95-.95,5.4-1.79v-3.61Z"/>
    <path class="cls-1" d="M469.09,129.11h-2.74c-.49,0-.72-.23-.72-.72l.04-10.68c0-2.24-.53-3.72-2.74-3.72-1.52,0-4.18,1.22-5.21,1.71v12.69c0,.46-.19.72-.72.72h-2.7c-.53,0-.72-.23-.72-.72v-17.14c0-.49.19-.76.72-.76h2.7c.53,0,.72.27.72.76v1.14s.08.04.11.04c1.41-.99,4.07-2.28,6.38-2.28,5.13,0,5.58,3.38,5.58,7.22v11.02c0,.46-.15.72-.72.72Z"/>
    <path class="cls-1" d="M331.01,143.62c1.86,0,4.94.27,6.95,1.1.61.27.84.57.72,1.18l-.34,1.56c-.12.46-.3.65-.99.57-1.86-.23-4.14-.49-6.12-.49-5.17,0-5.93,4.18-5.93,9.12s.95,8.89,5.93,8.89c2.2,0,4.07-.23,6.12-.49.72-.08.87.11,1.03.61l.3,1.44c.15.61-.04.95-.65,1.22-1.86.8-5.17,1.14-7.03,1.14-8.47,0-10.26-6.27-10.26-12.73s1.6-13.11,10.26-13.11Z"/>
    <path class="cls-1" d="M349.56,169.42c-7.64,0-8.13-5.58-8.13-9.92,0-3.57.8-9.38,8.13-9.38s8.4,4.9,8.4,9.38-.53,9.92-8.4,9.92ZM349.6,153.77c-3.23,0-3.95,2.05-3.95,6s.72,6,3.91,6c3.46,0,4.14-1.94,4.14-6s-.65-6-4.1-6Z"/>
    <path class="cls-1" d="M388.2,169.11h-2.74c-.53,0-.72-.23-.72-.72v-10.79c0-2.81-.68-3.61-2.58-3.61-1.41,0-3.69,1.1-4.86,1.71,0,.38.04,1.06.04,1.94v10.75c0,.46-.15.72-.72.72h-2.77c-.49,0-.65-.23-.65-.72v-10.98c0-2.32-.61-3.42-2.51-3.42-1.33,0-3.46.95-4.9,1.71v12.69c0,.46-.19.72-.72.72h-2.73c-.49,0-.68-.23-.68-.72v-17.14c0-.49.19-.76.68-.76h2.7c.57,0,.76.3.76.76v1.1l.04.04c1.48-1.03,3.57-2.17,5.66-2.24,2.2,0,4.03.46,5.21,2.66,1.9-1.41,4.26-2.66,6.69-2.66,5.01,0,5.51,3.27,5.51,7.07v11.17c0,.46-.15.72-.68.72Z"/>
    <path class="cls-1" d="M419.51,169.11h-2.74c-.53,0-.72-.23-.72-.72v-10.79c0-2.81-.68-3.61-2.58-3.61-1.41,0-3.68,1.1-4.86,1.71,0,.38.04,1.06.04,1.94v10.75c0,.46-.15.72-.72.72h-2.77c-.49,0-.65-.23-.65-.72v-10.98c0-2.32-.61-3.42-2.51-3.42-1.33,0-3.46.95-4.9,1.71v12.69c0,.46-.19.72-.72.72h-2.74c-.49,0-.68-.23-.68-.72v-17.14c0-.49.19-.76.68-.76h2.7c.57,0,.76.3.76.76v1.1l.04.04c1.48-1.03,3.57-2.17,5.66-2.24,2.2,0,4.03.46,5.21,2.66,1.9-1.41,4.25-2.66,6.69-2.66,5.02,0,5.51,3.27,5.51,7.07v11.17c0,.46-.15.72-.68.72Z"/>
    <path class="cls-1" d="M426.96,147.76c-1.98,0-2.24-1.1-2.24-2.2,0-1.22.42-2.17,2.24-2.17s2.24.87,2.24,2.17c0,1.18-.34,2.2-2.24,2.2ZM428.98,168.39c0,.42-.15.72-.68.72h-2.7c-.53,0-.76-.23-.76-.72v-17.17c0-.53.23-.72.76-.72h2.7c.53,0,.68.3.68.72v17.17Z"/>
    <path class="cls-1" d="M439.92,169.42c-1.9,0-4.45-.27-5.89-.84-.76-.3-.91-.65-.8-1.25l.27-1.25c.11-.61.38-.65.99-.57,1.67.27,4.1.46,5.4.46,2.43,0,3.42-.65,3.42-2.17,0-1.75-.65-2.13-3.04-2.47-3.72-.53-6.99-1.33-6.99-5.47,0-3.76,2.89-5.74,7.14-5.74,1.56,0,4.18.23,5.78.84.65.27.91.57.8,1.14l-.3,1.37c-.11.53-.34.61-1.03.53-1.63-.19-3.76-.42-5.17-.42-2.43,0-3,.68-3,2.13s.91,1.67,3.23,2.05c3.61.53,6.88,1.25,6.88,5.78s-3.76,5.89-7.67,5.89Z"/>
    <path class="cls-1" d="M457.37,169.42c-1.9,0-4.45-.27-5.89-.84-.76-.3-.91-.65-.8-1.25l.27-1.25c.11-.61.38-.65.99-.57,1.67.27,4.1.46,5.4.46,2.43,0,3.42-.65,3.42-2.17,0-1.75-.65-2.13-3.04-2.47-3.72-.53-6.99-1.33-6.99-5.47,0-3.76,2.89-5.74,7.14-5.74,1.56,0,4.18.23,5.78.84.65.27.91.57.8,1.14l-.3,1.37c-.11.53-.34.61-1.03.53-1.63-.19-3.76-.42-5.17-.42-2.43,0-3,.68-3,2.13s.91,1.67,3.23,2.05c3.61.53,6.88,1.25,6.88,5.78s-3.76,5.89-7.67,5.89Z"/>
    <path class="cls-1" d="M471.24,147.76c-1.98,0-2.24-1.1-2.24-2.2,0-1.22.42-2.17,2.24-2.17s2.24.87,2.24,2.17c0,1.18-.34,2.2-2.24,2.2ZM473.25,168.39c0,.42-.15.72-.68.72h-2.7c-.53,0-.76-.23-.76-.72v-17.17c0-.53.23-.72.76-.72h2.7c.53,0,.68.3.68.72v17.17Z"/>
    <path class="cls-1" d="M485.71,169.42c-7.64,0-8.13-5.58-8.13-9.92,0-3.57.8-9.38,8.13-9.38s8.4,4.9,8.4,9.38-.53,9.92-8.4,9.92ZM485.75,153.77c-3.23,0-3.95,2.05-3.95,6s.72,6,3.91,6c3.46,0,4.14-1.94,4.14-6s-.65-6-4.1-6Z"/>
    <path class="cls-1" d="M513.19,169.11h-2.74c-.49,0-.72-.23-.72-.72l.04-10.68c0-2.24-.53-3.72-2.74-3.72-1.52,0-4.18,1.22-5.21,1.71v12.69c0,.46-.19.72-.72.72h-2.7c-.53,0-.72-.23-.72-.72v-17.14c0-.49.19-.76.72-.76h2.7c.53,0,.72.27.72.76v1.14s.08.04.11.04c1.41-.99,4.07-2.28,6.38-2.28,5.13,0,5.58,3.38,5.58,7.22v11.02c0,.46-.15.72-.72.72Z"/>
  </g>
  <polygon class="cls-1" points="537.77 169.11 537.77 92.75 531.26 92.75 531.26 169.11 537.77 169.11 537.77 169.11"/>
</svg>
