<svg xmlns="http://www.w3.org/2000/svg" id="b" viewBox="0 0 405 198.17"><defs><style>.d{fill:#afcb0a}.d,.e,.f{stroke-width:0}.e{fill:#6b6e73}.f{fill:#707070}</style></defs><g id="c"><path d="M49 198.17c1.09-1.4 2.06-2.92 3.3-4.17q34.52-34.7 69.15-69.33c6.86-6.86 10.01-14.89 7.73-24.49-2.35-9.94-8.79-16.15-18.53-19.02-1.09-.32-2.2-.59-3.35-.9v-25.4c16.12.72 28.4 8.01 38.57 20.37 10.8-12.94 24.13-20.45 41.33-20.45 17.25 0 30.68 7.32 41.37 20.41 22.69-28.3 62.74-26.3 83.42.51.81-1.16 1.44-2.31 2.3-3.26 15.09-16.59 33.84-21.87 54.84-15.07 21.14 6.84 32.72 22.45 34.95 44.74.07.71.6 1.37.92 2.06v4c-.35 1.19-.88 2.36-1.02 3.57-4.23 34.98-41.22 55.42-72.97 40.28-7.64-3.64-13.88-9.06-19.27-15.93-10.79 13.44-24.38 20.84-41.47 20.87-17.11.03-30.67-7.52-41.39-20.57-21.05 26.47-59.8 28.42-82.28 1.09l-35.91 34.85H156v25.83H49Zm195.91-92.25a25.4 25.4 0 0 0 25.44 25.33c13.83-.07 25.65-11.99 25.36-25.57-.3-14.01-11.79-25.39-25.61-25.36-13.89.03-25.25 11.58-25.19 25.61Zm-82.91-.04c.01 13.98 11.52 25.48 25.38 25.36 13.75-.12 25.15-11.4 25.3-25.05.16-14.15-11.41-25.9-25.48-25.89-13.81.01-25.21 11.59-25.2 25.58m216.33.6c.25-14.37-10.89-26.03-25.01-26.18-13.6-.14-25.28 11.23-25.46 24.79-.19 14.42 10.87 25.97 25.06 26.15 13.7.18 25.17-10.99 25.41-24.76" class="d"/><path d="M63.92.07c20.62 3.69 37.24 24.81 38.16 46.5.03.82-.06 1.64-.12 2.85H76.7c-.92-9.5-4.93-17.4-13.68-22.16a24.3 24.3 0 0 0-17.38-2.47c-12.59 2.83-22 15.03-19.42 29.9h27.34v25.44H25.85v70.03H0v-111s1.48-2.47 1.91-3.81C7.8 16.99 19.9 5.1 38.58 0" class="e"/><path d="M101.83 55.14v24.85c-.94.34-1.97.78-3.04 1.07-12.08 3.26-19.62 12.99-19.68 25.65-.07 12.83-.01 25.65-.01 38.48v5.03H54.46c-.32-.54-.63-.81-.63-1.08 0-16.48-.63-33 .22-49.44 1.13-21.87 20.99-42 42.66-44.53 1.6-.19 3.24-.02 5.13-.02Z" class="e"/><path d="M166.23 181.4a5.5 5.5 0 0 1 2.13-2.16 6 6 0 0 1 3.1-.77q2.13 0 3.64 1.12a5.4 5.4 0 0 1 2.02 3.06h-3.2a2.6 2.6 0 0 0-2.5-1.53q-1.34 0-2.18.93t-.83 2.5c.01 1.56.28 1.88.83 2.5a2.8 2.8 0 0 0 2.18.94q.84 0 1.49-.39.66-.39 1.01-1.14h3.2a5.3 5.3 0 0 1-2.02 3.05 6 6 0 0 1-3.64 1.11 6 6 0 0 1-3.1-.77 5.5 5.5 0 0 1-2.13-2.15q-.77-1.38-.77-3.15c0-1.77.25-2.23.77-3.15m15.8-.46v2.41h3.89v2.24h-3.89v2.62h4.4v2.33h-7.31v-11.93h7.31v2.33zm12.83 9.6-2.48-4.5h-.7v4.5h-2.91v-11.93h4.88q1.4 0 2.41.49a3.5 3.5 0 0 1 1.98 3.26q0 1.19-.67 2.12c-.67.93-1.11 1.07-1.98 1.33l2.75 4.73zm-3.17-6.56h1.8q.8 0 1.2-.39c.4-.39.4-.63.4-1.1s-.13-.81-.4-1.07-.67-.39-1.2-.39h-1.8v2.96Zm16.87-5.37v2.33h-3.16v9.61h-2.91v-9.61h-3.16v-2.33zm4.44 0v11.93h-2.91v-11.93zm10.34 0v2.33h-4.86v2.52h3.64v2.26h-3.64v4.83h-2.91v-11.93h7.77Zm4.55 0v11.93h-2.91v-11.93zm5.48 2.33v2.41h3.89v2.24h-3.89v2.62h4.4v2.33h-7.31v-11.93h7.31v2.33zm12.83 9.6-2.48-4.5h-.7v4.5h-2.91v-11.93h4.88q1.4 0 2.41.49a3.5 3.5 0 0 1 1.98 3.26q0 1.19-.67 2.12a3.7 3.7 0 0 1-1.98 1.33l2.75 4.73zm-3.17-6.56h1.8q.8 0 1.2-.39.4-.4.4-1.1c0-.7-.13-.81-.4-1.07q-.4-.39-1.2-.39h-1.8v2.96Zm15.93 4.45h-4.45l-.71 2.11h-3.04l4.32-11.93h3.37l4.32 11.93h-3.08l-.71-2.11Zm-.75-2.24-1.48-4.37-1.46 4.37zm13.77-6.83q1.41.75 2.18 2.1t.77 3.12c0 1.77-.26 2.2-.77 3.11a5.4 5.4 0 0 1-2.19 2.11q-1.42.75-3.29.75h-4.47v-11.93h4.47q1.89 0 3.3.75Zm-.92 7.76q.92-.9.92-2.55c0-1.65-.31-1.96-.92-2.57a3.5 3.5 0 0 0-2.57-.92h-1.38v6.94h1.38q1.65 0 2.57-.9m20.82-8.51-4.23 11.93h-3.64l-4.23-11.93h3.09l2.96 9.01 2.97-9.01zm4.3 2.33v2.41h3.89v2.24h-3.89v2.62h4.4v2.33h-7.31v-11.93h7.31v2.33zm12.84 9.6-2.48-4.5h-.7v4.5h-2.91v-11.93h4.88q1.4 0 2.41.49a3.5 3.5 0 0 1 1.98 3.26q0 1.19-.67 2.12a3.7 3.7 0 0 1-1.98 1.33l2.75 4.73zm-3.18-6.56h1.8q.8 0 1.2-.39.4-.4.4-1.1c0-.7-.13-.81-.4-1.07q-.4-.39-1.2-.39h-1.8v2.96Zm15.37 6.56-4.01-5.27v5.27h-2.91v-11.93h2.91v5.24l3.98-5.24h3.42l-4.62 5.85 4.79 6.09h-3.55Zm6.47-.3a4 4 0 0 1-1.66-1.26 3.4 3.4 0 0 1-.65-2.01h3.09q.07.66.46 1.01c.39.35.6.35 1.02.35s.77-.1 1.02-.3q.37-.3.37-.82 0-.44-.3-.73t-.73-.48c-.43-.2-.7-.27-1.23-.42q-1.15-.36-1.89-.71a3.5 3.5 0 0 1-1.26-1.05 3 3 0 0 1-.53-1.82q0-1.66 1.21-2.61c1.21-.95 1.85-.94 3.14-.94s2.38.31 3.18.94 1.23 1.5 1.29 2.63h-3.15q-.03-.57-.42-.91c-.39-.34-.59-.33-1-.33q-.52 0-.85.28t-.32.81a1 1 0 0 0 .54.9q.54.33 1.7.7 1.16.39 1.88.75c.72.36.9.58 1.25 1.04q.53.68.53 1.75c0 1.07-.17 1.3-.52 1.85q-.53.84-1.5 1.33-.99.5-2.33.49c-1.34-.01-1.66-.14-2.35-.42Zm15.74-1.81h-4.45l-.71 2.11h-3.04l4.32-11.93h3.37l4.32 11.93h-3.08l-.71-2.11Zm-.75-2.24-1.48-4.37-1.46 4.37zm19.5-7.58v11.93h-2.91v-7.16l-2.67 7.16h-2.35l-2.69-7.17v7.17h-2.91v-11.93h3.43l3.35 8.26 3.32-8.26h3.42Zm12.9 0v11.93h-2.91v-4.91h-4.52v4.91h-2.91v-11.93h2.91v4.67h4.52v-4.67zm5.46 2.33v2.41h3.89v2.24h-3.89v2.62h4.4v2.33h-7.31v-11.93h7.31v2.33zm15.04-2.33v2.33h-3.16v9.61h-2.91v-9.61h-3.16v-2.33z" class="f"/></g></svg>