<svg xmlns="http://www.w3.org/2000/svg" width="683.667" height="257.44" viewBox="0 0 683.667 257.44"><defs><style>.a{fill:#0064b0}.b{fill:#0b9bdb}.c{fill:#ec421d}.d{fill:#121a50}</style></defs><path d="M579.8 78.7h-96.6a58 58 0 0 1-18.3 28.05h114.92Z" class="a"/><path d="M257.41 161.85a66.44 66.44 0 0 1-66.37-66.37q0-.54.03-1.07h-.14A95.55 95.55 0 1 0 176.44 146a95.44 95.44 0 0 0 169.77-15.43H313.7a66.4 66.4 0 0 1-56.3 31.28m-161.93 0a66.37 66.37 0 1 1 66.37-66.37 66.44 66.44 0 0 1-66.37 66.37" class="b"/><path d="M257.41 29.11a66.4 66.4 0 0 1 59 36.03h31.54A95.43 95.43 0 0 0 184.5 33.9a108 108 0 0 1 14.56 30 66.4 66.4 0 0 1 58.35-34.8" class="b"/><path d="M432.61 107.56q18.47-7.75 26.8-20.32t8.34-31.26a56 56 0 0 0-3.64-19.51 45 45 0 0 0-12.87-18.04Q442 10.28 426.1 5.2T385.66.12h-76.92a108 108 0 0 1 32.43 26.73h43.58a94 94 0 0 1 21.81 2.13A40 40 0 0 1 420.65 35a22 22 0 0 1 7.57 9.35 32 32 0 0 1 2.27 12.16 41 41 0 0 1-1.97 13.1 23 23 0 0 1-6.66 10.03q-4.7 4.14-12.88 6.4t-20.6 2.28h-4.45l55.18 102.62h38.33ZM587.71.12H453.5a70 70 0 0 1 11.64 8.18 61 61 0 0 1 15.08 19.61h107.49Zm0 163.03H482.89l14.94 27.79h89.88Z" class="a"/><path d="M654.18 112a17 17 0 0 0-4.62-1.22 52 52 0 0 0-12.34 0 17 17 0 0 0-4.62 1.22 7 7 0 0 0-2.92 2.22 5.6 5.6 0 0 0-1 3.37 5.4 5.4 0 0 0 1 3.35 7 7 0 0 0 2.92 2.16 18 18 0 0 0 4.62 1.19 52 52 0 0 0 12.34 0 18 18 0 0 0 4.63-1.19 7 7 0 0 0 2.91-2.16 5.4 5.4 0 0 0 1-3.34 5.6 5.6 0 0 0-1-3.38 7 7 0 0 0-2.92-2.22" class="c"/><path d="M603.16 190.94h80.5V.12h-80.5Zm19.25-168.72h25.78v-5.35l6.81.91v4.44h9.42v8.09H655v18.9h-5.78L622.42 30Zm2.31 42.08q3.47-3.65 9.43-3.65a17 17 0 0 1 4.7.64 17 17 0 0 1 4.23 1.92 26 26 0 0 1 4.17 3.25q2.1 1.97 4.53 4.71l2.43 2.95q1.22 1.49 2.8 3.2V60.03l7.42.91v29.13h-6.39q-2.3-2.61-4.4-5.17t-4.41-5.17q-2.25-2.55-4.08-4.47a29 29 0 0 0-3.52-3.19 14 14 0 0 0-3.38-1.92 10 10 0 0 0-3.68-.63 6.2 6.2 0 0 0-4.28 1.49 5.1 5.1 0 0 0-1.67 4.04 7.5 7.5 0 0 0 1.37 4.77q1.36 1.73 5.2 2.59l-.98 8.27a25 25 0 0 1-4.95-1.59 14 14 0 0 1-4.14-2.82 13 13 0 0 1-2.83-4.53 19 19 0 0 1-1.03-6.75q0-7.05 3.46-10.7m39.7 110.48h-6.38q-2.31-2.61-4.41-5.17t-4.4-5.17q-2.26-2.55-4.08-4.47a29 29 0 0 0-3.53-3.19 14 14 0 0 0-3.37-1.91 10 10 0 0 0-3.68-.64 6.2 6.2 0 0 0-4.29 1.49 5.1 5.1 0 0 0-1.67 4.04 7.5 7.5 0 0 0 1.37 4.78q1.37 1.73 5.2 2.58l-.97 8.27a25 25 0 0 1-4.96-1.58 14 14 0 0 1-4.13-2.83 13 13 0 0 1-2.83-4.53 19 19 0 0 1-1.04-6.75q0-7.05 3.47-10.7t9.43-3.65a17 17 0 0 1 4.7.64 17 17 0 0 1 4.23 1.92 26 26 0 0 1 4.17 3.25q2.1 1.98 4.53 4.71l2.43 2.95q1.22 1.5 2.8 3.2v-17.28l7.42.91Zm-4.25-45.41q-5.35 4.16-16.78 4.16a38 38 0 0 1-9.88-1.13 20 20 0 0 1-6.9-3.22 13 13 0 0 1-4.05-5.08 16.5 16.5 0 0 1-1.3-6.68q0-7.54 5.37-11.7t16.76-4.17q11.43 0 16.78 4.23t5.35 11.88q0 7.54-5.35 11.7" class="c"/><path d="M648.2 40.52V30.31h-14.66Z" class="c"/><path d="M135.46 239.07a7 7 0 0 0 2.67 4.87q2.13 1.5 6.35 1.5a11 11 0 0 0 3.52-.47 6 6 0 0 0 2.27-1.26 4.4 4.4 0 0 0 1.2-1.84 7 7 0 0 0 .37-2.22 7 7 0 0 0-.23-1.82 4 4 0 0 0-.87-1.6 6 6 0 0 0-1.8-1.25 12 12 0 0 0-2.94-.85l-4.04-.72a24 24 0 0 1-4.22-1.07 11 11 0 0 1-3.12-1.73 6.6 6.6 0 0 1-1.93-2.63 10 10 0 0 1-.65-3.81 8 8 0 0 1 .92-3.86 8 8 0 0 1 2.5-2.79 11 11 0 0 1 3.72-1.66 19 19 0 0 1 4.67-.54 17 17 0 0 1 5.31.7 10 10 0 0 1 3.48 1.87 8 8 0 0 1 2.04 2.67 16 16 0 0 1 1.06 3.07l-3.86.76a11 11 0 0 0-.92-2.4 5 5 0 0 0-1.48-1.75 7 7 0 0 0-2.27-1.05 13 13 0 0 0-3.28-.36 14 14 0 0 0-3.67.4 7 7 0 0 0-2.38 1.1 4 4 0 0 0-1.28 1.66 6 6 0 0 0-.38 2.04 6 6 0 0 0 .29 2.04 3.6 3.6 0 0 0 .99 1.53 6 6 0 0 0 1.81 1.08 17 17 0 0 0 2.79.74l4.48.8q4.98.95 7.32 3.13t2.33 6.4a9 9 0 0 1-.74 3.6 8 8 0 0 1-2.2 2.95 11 11 0 0 1-3.66 1.97 17 17 0 0 1-5.16.72 22 22 0 0 1-5.14-.56 12 12 0 0 1-4.01-1.77 9 9 0 0 1-2.74-3.1 11 11 0 0 1-1.26-4.5Zm29.89-22.94h20.73v3.64h-16.6v10.05h15.7v3.68h-15.7v11.04h17.45l-.67 3.64h-20.91Zm30.02 0h10.5a18 18 0 0 1 5.88.81 10 10 0 0 1 3.61 2.09 7 7 0 0 1 1.82 2.9 11 11 0 0 1 .5 3.27 10 10 0 0 1-1.28 5.2 8.4 8.4 0 0 1-4.2 3.37l6.73 14.4h-4.62l-6.06-13.41a10 10 0 0 1-1.26.1l-1.2.03h-6.34v13.28h-4.08Zm10.9 15.22a12 12 0 0 0 3.55-.43 5 5 0 0 0 2.2-1.21 4 4 0 0 0 1.12-1.9 9 9 0 0 0 .31-2.52 7 7 0 0 0-.36-2.38 4 4 0 0 0-1.23-1.77 6 6 0 0 0-2.36-1.13 16 16 0 0 0-3.77-.38h-6.28v11.72Zm17.19-15.22h4.67l9.74 26.7 9.92-26.7h4.44l-12.3 32.05h-4.17Zm36.22 0h4.13v32.05h-4.13Zm40.84 21.5a15 15 0 0 1-1.21 4.51 11 11 0 0 1-6.49 6 16 16 0 0 1-5.36.84 15 15 0 0 1-5.97-1.12 12 12 0 0 1-4.49-3.27 15 15 0 0 1-2.85-5.28 23 23 0 0 1-1.01-7.11 22 22 0 0 1 1.08-7.18 15 15 0 0 1 3-5.3 13 13 0 0 1 4.56-3.27 14 14 0 0 1 5.68-1.12 15 15 0 0 1 5.11.76 10.5 10.5 0 0 1 3.66 2.15 11 11 0 0 1 2.42 3.32 19 19 0 0 1 1.42 4.27l-4.04.67a16 16 0 0 0-1.06-3.16 8 8 0 0 0-1.66-2.4 7 7 0 0 0-2.42-1.5 10 10 0 0 0-3.43-.52 8.8 8.8 0 0 0-7.39 3.66 13 13 0 0 0-1.95 4.17 22 22 0 0 0 0 10.82 13 13 0 0 0 1.95 4.2 9 9 0 0 0 3.15 2.69 9.4 9.4 0 0 0 4.28.94 11 11 0 0 0 3.75-.56 7 7 0 0 0 2.56-1.6 8 8 0 0 0 1.59-2.46 14 14 0 0 0 .85-3.14Zm8.98-21.5h20.73v3.64h-16.6v10.05h15.7v3.68h-15.7v11.04h17.45l-.67 3.64H309.5Zm43.4 0h10.72a19 19 0 0 1 5.86.77 9 9 0 0 1 3.63 2.06 7 7 0 0 1 1.84 3.03 13 13 0 0 1 .52 3.66 14 14 0 0 1-.54 3.86 8 8 0 0 1-1.89 3.23 9 9 0 0 1-3.63 2.2 18 18 0 0 1-5.8.8h-6.63v12.44h-4.09Zm10.67 16.12a14 14 0 0 0 3.86-.45 5.5 5.5 0 0 0 2.38-1.3 4.6 4.6 0 0 0 1.19-2.05 10 10 0 0 0 .34-2.67 9 9 0 0 0-.36-2.69 4 4 0 0 0-1.26-1.93 6 6 0 0 0-2.4-1.15 16 16 0 0 0-3.8-.38h-6.54v12.61Zm20.78-16.12h10.5a18 18 0 0 1 5.88.81 10 10 0 0 1 3.62 2.09 7 7 0 0 1 1.81 2.9 11 11 0 0 1 .5 3.27 10 10 0 0 1-1.28 5.2 8.4 8.4 0 0 1-4.2 3.38l6.73 14.4h-4.62l-6.06-13.42a10 10 0 0 1-1.26.11l-1.2.03h-6.34v13.28h-4.08Zm10.9 15.22a12 12 0 0 0 3.55-.43 5 5 0 0 0 2.2-1.21 4 4 0 0 0 1.12-1.9 9 9 0 0 0 .32-2.52 7 7 0 0 0-.36-2.38 4 4 0 0 0-1.24-1.77 6 6 0 0 0-2.35-1.13 16 16 0 0 0-3.77-.38h-6.29v11.72Zm34.03 17.63a16 16 0 0 1-6-1.1 13 13 0 0 1-4.66-3.23 15 15 0 0 1-3.03-5.27 22 22 0 0 1-1.08-7.18 22 22 0 0 1 1.1-7.18 15 15 0 0 1 3.05-5.3 13 13 0 0 1 4.67-3.27 15 15 0 0 1 5.95-1.12 16 16 0 0 1 5.99 1.1 12.5 12.5 0 0 1 4.64 3.23 15 15 0 0 1 3.01 5.25 22 22 0 0 1 1.08 7.15 23 23 0 0 1-1.05 7.2 15 15 0 0 1-2.99 5.32 13 13 0 0 1-4.64 3.28 16 16 0 0 1-6.04 1.12m0-3.59a10 10 0 0 0 4.5-.94 9 9 0 0 0 3.26-2.67 12 12 0 0 0 1.98-4.18 22 22 0 0 0 0-10.86 12 12 0 0 0-2-4.2 9 9 0 0 0-3.25-2.7 10 10 0 0 0-4.5-.93 10.4 10.4 0 0 0-4.55.94 9 9 0 0 0-3.27 2.7 12 12 0 0 0-1.98 4.2 23 23 0 0 0 0 10.85 12 12 0 0 0 1.95 4.18 9 9 0 0 0 3.26 2.67 10.5 10.5 0 0 0 4.6.94m19.74-29.26h4.67l9.74 26.7 9.92-26.7h4.44l-12.3 32.05h-4.17Zm36.22 0h4.13v32.05h-4.13Zm14.59 0h11.22a19 19 0 0 1 6.26.97 12 12 0 0 1 4.66 2.94 13 13 0 0 1 2.94 4.93 21 21 0 0 1 1.04 6.96 21 21 0 0 1-1.1 7.1 12.8 12.8 0 0 1-8.2 8.12 20 20 0 0 1-6.64 1.03h-10.18Zm10.36 28.46q5.97 0 8.71-3.35t2.74-9.22a20 20 0 0 0-.6-5.2 10 10 0 0 0-1.9-3.89 8 8 0 0 0-3.3-2.42 13 13 0 0 0-4.8-.83h-7.08v24.9Zm25.05-28.46h20.73v3.64h-16.6v10.05h15.7v3.68h-15.7v11.04h17.45l-.67 3.64h-20.91Zm30.02 0h10.5a18 18 0 0 1 5.88.81 10 10 0 0 1 3.61 2.09 7 7 0 0 1 1.82 2.9 11 11 0 0 1 .5 3.27 10 10 0 0 1-1.28 5.2 8.4 8.4 0 0 1-4.2 3.38l6.73 14.4h-4.62l-6.06-13.42a10 10 0 0 1-1.25.11l-1.22.03h-6.32v13.28h-4.09Zm10.9 15.22a12 12 0 0 0 3.55-.43 5 5 0 0 0 2.2-1.21 4 4 0 0 0 1.12-1.9 9 9 0 0 0 .31-2.52 7 7 0 0 0-.36-2.38 4 4 0 0 0-1.23-1.77 6 6 0 0 0-2.36-1.13 16 16 0 0 0-3.77-.38h-6.28v11.72Z" class="d"/><path d="M603.16 257.44h80.5v-51.57h-80.5Zm51.32-9.7-11.07-8.03-11.06 8.04 4.22-13.01-11.06-8.04h13.68l4.22-13.01 4.23 13.01h13.68l-11.07 8.04Z" class="c"/></svg>