<svg xmlns="http://www.w3.org/2000/svg" id="Lager_2" viewBox="0 0 822.88 141.03"><defs><style>.cls-1{fill:#f05a2b}.cls-2{fill:#31a8df}.cls-3{fill:#2175bb}.cls-4{fill:#a7a8ab}</style></defs><g id="Layer_1"><path d="M538.04 37.82q-3.48 0-6.48-1.19-3-1.18-5.17-3.56a17 17 0 0 1-3.4-5.9q-1.24-3.53-1.24-8.17c0-4.64.41-5.82 1.24-8.19a17 17 0 0 1 3.43-5.95 14 14 0 0 1 5.17-3.63Q534.57 0 538.04 0c3.47 0 4.47.4 6.45 1.18q2.97 1.19 5.12 3.56a17 17 0 0 1 3.38 5.87q1.24 3.5 1.24 8.14c0 4.64-.4 5.87-1.21 8.24a17 17 0 0 1-3.35 5.95 14 14 0 0 1-5.12 3.63 17 17 0 0 1-6.5 1.24Zm0-2.72q3.18 0 5.6-1.19a11 11 0 0 0 4.06-3.33 15 15 0 0 0 2.47-5.12q.83-2.97.83-6.56c0-3.59-.29-4.57-.86-6.56a15 15 0 0 0-2.5-5.12 11 11 0 0 0-4.06-3.33 12.4 12.4 0 0 0-5.55-1.18q-3.28 0-5.72 1.18t-4.06 3.33a15 15 0 0 0-2.45 5.12q-.83 2.97-.83 6.56c0 3.59.27 4.57.81 6.56a15 15 0 0 0 2.45 5.12 11 11 0 0 0 4.08 3.33q2.45 1.19 5.72 1.19Zm23.8-24.16h2.92v3.88a14 14 0 0 1 3.88-3.45q2.12-1.24 5.14-1.24c3.02 0 3.57.35 4.97 1.03a10 10 0 0 1 3.48 2.85 13 13 0 0 1 2.07 4.29q.68 2.47.68 5.34 0 3.33-.83 5.92a13 13 0 0 1-2.34 4.41 10 10 0 0 1-3.66 2.77q-2.14.96-4.82.96-2.37 0-4.56-.96a10 10 0 0 1-4.01-3.38v13.31h-2.92zm2.82 14.02q0 1.71.18 3t.61 2.29a7.4 7.4 0 0 0 2.69 3.23 8 8 0 0 0 2.37 1.31q1.21.4 2.77.4a9 9 0 0 0 3.43-.63 7 7 0 0 0 2.7-1.99 10 10 0 0 0 1.79-3.55q.66-2.2.66-5.32c0-3.12-.24-3.88-.73-5.29a10 10 0 0 0-1.89-3.4 6.4 6.4 0 0 0-2.62-1.81 9 9 0 0 0-2.87-.53q-1.56 0-2.82.35-1.26.36-2.52 1.31a9 9 0 0 0-2.75 3.3 11.4 11.4 0 0 0-.98 5.07v2.27Zm49.52 5.14a9 9 0 0 1-3.23 5.5q-2.63 2.12-7.46 2.12-5.6 0-8.7-3.61t-3.1-9.91q0-3.43.88-6.05a13 13 0 0 1 2.47-4.41 10.4 10.4 0 0 1 3.73-2.7q2.14-.91 4.72-.91 3.03 0 5.14.98c2.11.98 2.56 1.55 3.45 2.67a11 11 0 0 1 1.94 4.01q.6 2.32.61 4.99v1.87h-19.97q0 2.22.55 4.16a10 10 0 0 0 1.66 3.38 8 8 0 0 0 2.77 2.27q1.67.83 3.83.83 1.97 0 3.33-.38a5 5 0 0 0 2.27-1.08 6 6 0 0 0 1.44-1.64q.53-.93.83-2.09h2.82Zm-2.57-7.96q0-2.12-.45-3.88a9 9 0 0 0-1.41-3.05 6.3 6.3 0 0 0-2.52-1.99 9 9 0 0 0-3.73-.71q-3.78 0-6.05 2.37t-2.72 7.26zM622 10.94h2.92v4.24a14 14 0 0 1 4.51-3.86 11.4 11.4 0 0 1 5.12-1.19q4.44 0 6.55 2.47c2.11 2.47 2.12 3.98 2.12 7.01v17.3h-2.92V20.42q0-4.08-1.46-5.87-1.47-1.79-4.64-1.79-1.52 0-3.2.58t-3.05 1.84a10 10 0 0 0-2.27 2.7q-.75 1.38-.76 3.81v15.23H622zm71.35 14.42q-.36 2.67-1.39 4.94a12 12 0 0 1-2.8 3.93 13 13 0 0 1-4.29 2.62q-2.52.96-5.85.96-3.53 0-6.43-1.21c-2.9-1.21-3.6-2.01-4.99-3.61a17 17 0 0 1-3.25-5.9q-1.16-3.5-1.16-8.09c0-4.59.42-5.82 1.26-8.19a18 18 0 0 1 3.4-5.95 14 14 0 0 1 4.99-3.63Q675.69 0 678.92 0c3.23 0 4.07.29 5.65.86a11.4 11.4 0 0 1 6.66 6.06 24 24 0 0 1 1.61 4.59l-2.92.66a21 21 0 0 0-1.39-3.98 9 9 0 0 0-5.22-4.84 13 13 0 0 0-4.39-.66q-2.97 0-5.29 1.21a11.4 11.4 0 0 0-3.93 3.38 16 16 0 0 0-2.47 5.14q-.86 2.97-.86 6.5c0 3.53.28 4.56.83 6.53a16 16 0 0 0 2.42 5.12 11 11 0 0 0 3.96 3.35q2.37 1.19 5.45 1.19c3.08 0 3.59-.24 4.92-.73a9 9 0 0 0 3.28-2.04 10 10 0 0 0 2.02-3.1 18 18 0 0 0 1.08-3.86h3.03ZM701.06.91h2.93v36h-2.93zm22.69 36.81q-2.87 0-5.12-.96a10 10 0 0 1-3.78-2.75 12 12 0 0 1-2.37-4.31q-.83-2.52-.83-5.65c0-3.13.29-4.03.88-5.75a13 13 0 0 1 2.47-4.39 11 11 0 0 1 3.86-2.8q2.27-.98 5.09-.98c2.82 0 3.58.32 5.09.96q2.27.96 3.83 2.75a12 12 0 0 1 2.39 4.31q.83 2.52.83 5.6c0 3.08-.29 4.03-.86 5.75a13 13 0 0 1-2.45 4.41 10.4 10.4 0 0 1-3.88 2.82q-2.3.98-5.17.98Zm.1-2.52q2.47 0 4.19-.88a8 8 0 0 0 2.82-2.39 10 10 0 0 0 1.61-3.58q.5-2.06.5-4.49c0-2.43-.17-3-.5-4.36a10 10 0 0 0-1.61-3.56 8 8 0 0 0-2.82-2.4q-1.71-.88-4.19-.88c-2.48 0-3 .29-4.16.88a8 8 0 0 0-2.82 2.4 10 10 0 0 0-1.59 3.56q-.5 2.04-.5 4.41c0 2.37.17 3.06.5 4.44q.51 2.07 1.59 3.58a7.6 7.6 0 0 0 2.82 2.39q1.74.88 4.16.88m19.67-24.26h2.92v16.49q0 4.08 1.29 5.87t4.41 1.79q1.56 0 3.13-.61 1.56-.6 2.97-1.82a10 10 0 0 0 2.22-2.7q.75-1.38.76-3.81V10.92h2.92v25.97h-2.92v-4.24q-4.09 5.04-9.43 5.04-4.44 0-6.35-2.42-1.92-2.42-1.92-7.06zm48.25 22.09a13 13 0 0 1-3.81 3.43 10 10 0 0 1-5.22 1.26q-2.87 0-4.97-1.11a10 10 0 0 1-3.45-2.97 13 13 0 0 1-2.02-4.31 20 20 0 0 1-.66-5.12q0-6.66 3.1-10.36t8.55-3.71q2.12 0 4.34.91t4.13 3.43V.91h2.92v36h-2.92zm.15-10.14q0-1.77-.2-3.05a11 11 0 0 0-.6-2.27 6 6 0 0 0-1.08-1.74q-.68-.75-1.59-1.46a9 9 0 0 0-2.4-1.31 8 8 0 0 0-2.7-.4 9 9 0 0 0-3.43.63 7 7 0 0 0-2.7 1.99 10 10 0 0 0-1.79 3.53q-.66 2.17-.66 5.29c0 3.12.24 3.89.73 5.32a10 10 0 0 0 1.89 3.43 6.6 6.6 0 0 0 2.6 1.82 8 8 0 0 0 2.9.53q1.56 0 2.8-.35a8.7 8.7 0 0 0 5.27-4.64q.96-2.02.96-5.04zm12.66 6.81q.56 3.03 2.57 4.29t5.75 1.26c3.74 0 4.3-.47 5.35-1.41a4.6 4.6 0 0 0 1.56-3.53q0-.91-.2-1.69c-.2-.78-.4-1-.78-1.44a4.5 4.5 0 0 0-1.66-1.11q-1.09-.45-2.8-.76l-3.18-.5a30 30 0 0 1-3.71-.86 9 9 0 0 1-2.77-1.34 5 5 0 0 1-1.71-2.07 7 7 0 0 1-.58-3.05q0-1.71.76-3.1.75-1.38 2.07-2.32t3.1-1.44 3.86-.5q2.67 0 4.46.53a8 8 0 0 1 2.92 1.44 7 7 0 0 1 1.77 2.12q.63 1.21.98 2.57l-2.67.55q-.4-1.15-.93-2.04a5 5 0 0 0-1.34-1.46 6 6 0 0 0-2.02-.88q-1.22-.3-3.03-.3-2.02 0-3.38.38a6 6 0 0 0-2.19 1.03q-.83.66-1.18 1.51-.35.86-.35 1.76c0 .9.07 1.15.2 1.64q.2.73.81 1.29.6.56 1.69.96t2.85.71l3.98.66q4.08.7 6.1 2.45 2.01 1.74 2.02 5.32 0 1.52-.63 2.87a6 6 0 0 1-1.87 2.34 9 9 0 0 1-3.1 1.56q-1.86.58-4.29.58c-2.43 0-3.03-.15-4.36-.45q-2-.45-3.45-1.41a8 8 0 0 1-2.37-2.47 8.5 8.5 0 0 1-1.11-3.68h2.87ZM523.92 65.02h-4.03V62.6h4.03v-2.97q0-1.92.6-3.33.6-1.4 1.59-2.32a6 6 0 0 1 2.29-1.36q1.31-.45 2.77-.45a13 13 0 0 1 3.83.56l-.61 2.47a9 9 0 0 0-2.93-.45q-1.97 0-3.3 1.03-1.34 1.03-1.34 3.76v3.08h6.91v2.42h-6.91v23.55h-2.92V65.04Zm25.41 24.35q-2.87 0-5.12-.96a10 10 0 0 1-3.78-2.75 13 13 0 0 1-2.37-4.31q-.83-2.52-.83-5.65c0-3.13.29-4.03.88-5.75a13 13 0 0 1 2.47-4.39 11 11 0 0 1 3.86-2.8q2.27-.98 5.09-.98c2.82 0 3.58.32 5.09.96q2.27.96 3.83 2.75a13 13 0 0 1 2.4 4.31q.83 2.52.83 5.6c0 3.08-.29 4.03-.86 5.75a13 13 0 0 1-2.45 4.41 10.4 10.4 0 0 1-3.88 2.82q-2.3.98-5.17.98Zm.1-2.52q2.47 0 4.19-.88a8 8 0 0 0 2.82-2.39 10 10 0 0 0 1.61-3.58q.5-2.06.5-4.49c0-2.43-.17-3-.5-4.36a10 10 0 0 0-1.61-3.56 8 8 0 0 0-2.82-2.4q-1.71-.88-4.19-.88c-2.48 0-3 .29-4.16.88a8 8 0 0 0-2.82 2.4 10 10 0 0 0-1.59 3.56q-.5 2.04-.5 4.41c0 2.37.17 3.06.5 4.44q.5 2.07 1.59 3.58a7.6 7.6 0 0 0 2.82 2.39q1.74.88 4.16.88M569.2 62.6h2.92v4.24a12 12 0 0 1 3.58-3.43 8 8 0 0 1 4.29-1.21q.55 0 1.03.03t1.03.13l-.35 2.77q-.91-.15-1.66-.15-1.3 0-2.67.48t-2.57 1.64q-1.15 1-1.92 2.45c-.77 1.45-.76 2.09-.76 3.4v15.63h-2.92zm31.36-10.04h11.29q3.88 0 6.38.86 2.49.85 3.93 2.22a7 7 0 0 1 1.97 3.13q.53 1.77.53 3.58 0 3.43-1.54 5.85t-5.02 3.68l7.77 16.69h-3.58l-7.21-15.98q-.86.1-1.76.18t-1.92.08h-7.82v15.73h-3.03v-36Zm11.7 17.55q2.73 0 4.51-.53a7 7 0 0 0 2.85-1.54 5.5 5.5 0 0 0 1.49-2.42q.43-1.41.43-3.23c0-1.82-.15-2.21-.45-3.1a4.7 4.7 0 0 0-1.59-2.24 8 8 0 0 0-3.03-1.36q-1.89-.45-4.77-.45h-8.12v14.87zm40.44 11.65a9 9 0 0 1-3.23 5.5q-2.63 2.12-7.46 2.12-5.6 0-8.7-3.61t-3.1-9.91q0-3.43.88-6.05a13 13 0 0 1 2.47-4.41 10.4 10.4 0 0 1 3.73-2.7q2.14-.91 4.71-.91 3.03 0 5.14.98a9.4 9.4 0 0 1 3.45 2.67 11 11 0 0 1 1.94 4.01q.6 2.32.6 4.99v1.87h-19.97q0 2.22.55 4.16a10 10 0 0 0 1.66 3.38 8 8 0 0 0 2.77 2.27q1.67.83 3.83.83 1.96 0 3.33-.38a7 7 0 0 0 2.27-1.08 6 6 0 0 0 1.44-1.64q.53-.93.83-2.09h2.82Zm-2.57-7.97q0-2.12-.45-3.88a9 9 0 0 0-1.41-3.05 6.3 6.3 0 0 0-2.52-1.99 9 9 0 0 0-3.73-.71q-3.78 0-6.05 2.37t-2.72 7.26zm11.95 7.56q.56 3.03 2.57 4.29t5.75 1.26c3.74 0 4.3-.47 5.34-1.41a4.6 4.6 0 0 0 1.56-3.53q0-.91-.2-1.69t-.78-1.44a4.5 4.5 0 0 0-1.66-1.11q-1.09-.45-2.8-.76l-3.18-.5a30 30 0 0 1-3.71-.86 9 9 0 0 1-2.77-1.34 5 5 0 0 1-1.71-2.07 7 7 0 0 1-.58-3.05q0-1.72.76-3.1.75-1.39 2.07-2.32t3.1-1.44 3.86-.5q2.67 0 4.46.53 1.79.52 2.92 1.44a5.3 5.3 0 0 1 1.76 2.12q.63 1.21.98 2.57l-2.67.55q-.4-1.16-.93-2.04a5 5 0 0 0-1.34-1.46 6 6 0 0 0-2.02-.88q-1.2-.3-3.03-.3-2.01 0-3.38.38a6 6 0 0 0-2.19 1.03q-.83.66-1.19 1.51-.36.86-.35 1.76c.01.9.07 1.15.2 1.64s.4.92.81 1.29q.6.56 1.69.96t2.85.71l3.98.66q4.09.7 6.1 2.45 2.01 1.74 2.02 5.32 0 1.52-.63 2.87a6 6 0 0 1-1.87 2.34 9 9 0 0 1-3.1 1.56q-1.86.58-4.29.58c-2.43 0-3.03-.15-4.36-.45s-2.48-.77-3.45-1.41a8 8 0 0 1-2.37-2.47 9 9 0 0 1-1.11-3.68h2.87Zm46.54.41a9 9 0 0 1-3.23 5.5q-2.63 2.12-7.46 2.12-5.6 0-8.7-3.61t-3.1-9.91q0-3.43.88-6.05a13 13 0 0 1 2.47-4.41 10.4 10.4 0 0 1 3.73-2.7q2.14-.91 4.71-.91 3.03 0 5.14.98a9.4 9.4 0 0 1 3.45 2.67 11 11 0 0 1 1.94 4.01q.6 2.32.6 4.99v1.87h-19.97q0 2.22.55 4.16a10 10 0 0 0 1.66 3.38 8 8 0 0 0 2.77 2.27q1.67.83 3.83.83 1.97 0 3.33-.38a7 7 0 0 0 2.27-1.08 6 6 0 0 0 1.44-1.64q.53-.93.83-2.09h2.82Zm-2.57-7.97q0-2.12-.45-3.88a9 9 0 0 0-1.41-3.05 6.3 6.3 0 0 0-2.52-1.99 9 9 0 0 0-3.73-.71q-3.78 0-6.05 2.37t-2.72 7.26zm26.93 11.09a11 11 0 0 1-6.18 3.94q-1.38.35-3.05.35-4.09 0-6.55-1.97-2.47-1.97-2.47-5.85a7.6 7.6 0 0 1 1.11-4.29 8 8 0 0 1 2.95-2.62 14 14 0 0 1 4.19-1.34q2.34-.37 4.87-.48l5.04-.2v-.81q0-3.83-1.49-5.6t-5.32-1.76q-1.86 0-3.15.3t-2.14.88-1.36 1.36-.76 1.74l-2.67-.4q1.41-6.35 10.19-6.35 2.72 0 4.59.66a7.4 7.4 0 0 1 3 1.89q1.13 1.23 1.64 3.03.5 1.78.5 4.11v17.09H733v-3.68Zm-.05-10.13-4.79.2q-2.93.1-4.89.53a10 10 0 0 0-3.18 1.21 4.6 4.6 0 0 0-1.74 1.92 6.4 6.4 0 0 0-.53 2.7q0 2.37 1.34 3.81t4.66 1.44q1.67 0 3.3-.38a6.5 6.5 0 0 0 2.7-1.24q.9-.66 1.49-1.26a5.5 5.5 0 0 0 1.49-2.98q.15-.9.15-2.12zm11.24-12.15h2.92v4.24a12 12 0 0 1 3.58-3.43 8 8 0 0 1 4.29-1.21q.55 0 1.03.03t1.03.13l-.35 2.77q-.91-.15-1.66-.15-1.3 0-2.67.48t-2.57 1.64a9 9 0 0 0-1.92 2.45q-.76 1.44-.76 3.4v15.63h-2.92zm38.73 17.49q-.75 4.38-3.48 6.83t-7.41 2.45q-2.82 0-5.04-.93a10 10 0 0 1-3.73-2.72 13 13 0 0 1-2.32-4.31q-.81-2.52-.81-5.7c0-3.18.29-4.03.86-5.75a13 13 0 0 1 2.42-4.39 11 11 0 0 1 3.81-2.8q2.25-.98 5.07-.98 4.3 0 6.83 2.19 2.55 2.19 3.35 6.18l-2.82.71q-.3-1.42-.86-2.62a6.3 6.3 0 0 0-3.55-3.43 8 8 0 0 0-3.05-.5q-2.37 0-4.03.86a8 8 0 0 0-2.77 2.35q-1.11 1.49-1.61 3.56c-.5 2.07-.5 2.87-.5 4.49s.17 3.11.5 4.49.86 2.57 1.56 3.58a7.4 7.4 0 0 0 2.75 2.37q1.7.86 4.06.86 3.78 0 5.52-1.84a9.7 9.7 0 0 0 2.34-4.92h2.92Zm7.21-27.53h2.92v14.27a14 14 0 0 1 4.51-3.86 11.4 11.4 0 0 1 5.12-1.19q4.44 0 6.55 2.47 2.12 2.47 2.12 7.01v17.3h-2.93V72.07q0-4.08-1.46-5.87-1.47-1.79-4.64-1.79-1.52 0-3.2.58t-3.05 1.84a10 10 0 0 0-2.27 2.7q-.75 1.38-.76 3.81v15.23h-2.92zm-246.83 83.98a12 12 0 0 1-4.44 3.3q-2.67 1.19-6 1.19c-3.33 0-4.19-.27-5.72-.81a10 10 0 0 1-3.68-2.17q-1.38-1.36-1.99-3.2c-.61-1.84-.6-2.53-.6-3.91a10 10 0 0 1 2.45-6.68 14 14 0 0 1 2.62-2.37q1.48-1.04 3.15-1.89-.7-.81-1.39-1.71c-.69-.9-.87-1.26-1.24-1.97q-.55-1.06-.91-2.24a9 9 0 0 1-.35-2.55 7.3 7.3 0 0 1 2.19-5.26 8 8 0 0 1 2.47-1.56 8 8 0 0 1 3.15-.58q1.92 0 3.35.58t2.4 1.54a6 6 0 0 1 1.44 2.22q.48 1.26.48 2.67 0 1.92-.61 3.3-.6 1.38-1.64 2.45-1.03 1.06-2.37 1.94-1.33.88-2.8 1.74l9.78 11.55a19 19 0 0 0 1.21-3.88q.35-1.86.45-4.29h2.92a22 22 0 0 1-.86 5.52 26 26 0 0 1-1.92 4.82l5.19 5.95h-3.63l-3.13-3.68Zm-12.6-14.68q-1.3.75-2.52 1.61-1.21.85-2.14 1.89a9 9 0 0 0-1.49 2.29q-.55 1.26-.55 2.92c0 1.66.14 2.15.43 3.13q.43 1.46 1.49 2.52a7 7 0 0 0 2.82 1.66q1.76.6 4.44.61 2.88 0 4.97-1.08a10 10 0 0 0 3.4-2.8l-10.84-12.76Zm.95-3.12q1.06-.55 2.17-1.24 1.1-.67 2.02-1.56a8 8 0 0 0 1.51-1.99q.6-1.11.61-2.52 0-2.52-1.34-3.76a5 5 0 0 0-3.56-1.23q-2.37 0-3.66 1.34-1.29 1.33-1.29 3.76 0 2.17 1.01 3.78a31 31 0 0 0 2.52 3.43Zm36.36-14.52h22.64v2.77h-19.56v13.21h18.56v2.87h-18.56v14.32h20.42l-.71 2.82h-22.79zm48.86 32.12a13 13 0 0 1-3.81 3.43 10 10 0 0 1-5.22 1.26q-2.87 0-4.97-1.11a10 10 0 0 1-3.45-2.97 13 13 0 0 1-2.02-4.31 20 20 0 0 1-.66-5.12q0-6.66 3.1-10.36t8.55-3.71q2.12 0 4.34.91t4.13 3.43v-13.56h2.92v36h-2.92zm.15-10.14q0-1.77-.2-3.05a10 10 0 0 0-.6-2.27 6 6 0 0 0-1.08-1.74q-.67-.75-1.59-1.46a9 9 0 0 0-2.39-1.31 8 8 0 0 0-2.7-.4 9 9 0 0 0-3.43.63q-1.56.63-2.7 1.99c-1.14 1.36-1.35 2.09-1.79 3.53q-.66 2.17-.66 5.29c0 3.12.24 3.89.73 5.32a10 10 0 0 0 1.89 3.43 6.6 6.6 0 0 0 2.6 1.82 8 8 0 0 0 2.9.53q1.56 0 2.8-.35a8.7 8.7 0 0 0 5.27-4.64q.96-2.02.96-5.04v-2.27Zm11-11.95h2.92v16.49q0 4.08 1.29 5.87t4.41 1.79q1.56 0 3.13-.61 1.56-.6 2.97-1.82a10 10 0 0 0 2.22-2.7q.75-1.38.76-3.81v-15.23h2.92v25.97h-2.92v-4.24q-4.09 5.04-9.43 5.04-4.44 0-6.35-2.42-1.92-2.42-1.92-7.06v-17.3Zm50.92 17.5q-.75 4.38-3.48 6.83t-7.41 2.45q-2.82 0-5.04-.93a10 10 0 0 1-3.73-2.72 13 13 0 0 1-2.32-4.31q-.81-2.52-.81-5.7c0-3.18.29-4.03.86-5.75a13 13 0 0 1 2.42-4.39 11 11 0 0 1 3.81-2.8q2.25-.98 5.07-.98 4.3 0 6.83 2.19 2.55 2.19 3.35 6.18l-2.82.71q-.3-1.41-.86-2.62a6.3 6.3 0 0 0-3.55-3.43 8 8 0 0 0-3.05-.5q-2.37 0-4.03.86a8 8 0 0 0-2.77 2.35 10 10 0 0 0-1.61 3.56q-.5 2.06-.5 4.49c0 2.43.17 3.11.5 4.49s.86 2.57 1.56 3.58a7.4 7.4 0 0 0 2.75 2.37q1.7.86 4.06.86 3.78 0 5.52-1.84a9.7 9.7 0 0 0 2.34-4.92h2.92Zm23 4.79q-.66.81-1.56 1.59c-.9.78-1.29.98-2.07 1.39a12 12 0 0 1-5.6 1.31q-4.09 0-6.55-1.97-2.47-1.97-2.47-5.85a7.6 7.6 0 0 1 1.11-4.29 8 8 0 0 1 2.95-2.62q1.84-.95 4.19-1.34c2.35-.39 3.18-.41 4.87-.48l5.04-.2v-.81q0-3.83-1.49-5.6t-5.32-1.76q-1.86 0-3.15.3t-2.14.88-1.36 1.36-.76 1.74l-2.67-.4q1.41-6.35 10.19-6.35 2.72 0 4.59.66t3 1.89c1.14 1.23 1.3 1.83 1.64 3.03q.5 1.78.5 4.11v17.09h-2.92v-3.68Zm-.05-10.14-4.79.2q-2.93.1-4.89.53a10 10 0 0 0-3.18 1.21 4.6 4.6 0 0 0-1.74 1.92 6.4 6.4 0 0 0-.53 2.7q0 2.37 1.34 3.81t4.66 1.44q1.66 0 3.3-.38a6.5 6.5 0 0 0 2.7-1.24q.9-.66 1.49-1.26a5.5 5.5 0 0 0 1.49-2.98q.15-.9.15-2.12zm12.7-9.73h-4.03v-2.42h4.03v-7.16h2.92v7.16h7.36v2.42h-7.36v16.99q0 1.92.81 3.25.81 1.34 2.82 1.34a11 11 0 0 0 3.83-.65l.61 2.37a12 12 0 0 1-4.69.8 6.7 6.7 0 0 1-3.48-.76 5 5 0 0 1-1.89-1.99q-.63-1.23-.78-2.85c-.15-1.62-.15-2.2-.15-3.38zm16.39-12.45h3.33v4.39h-3.33zm.2 10.03h2.93v25.97h-2.93zm22.69 26.78q-2.87 0-5.12-.96a10 10 0 0 1-3.78-2.75 12 12 0 0 1-2.37-4.31q-.83-2.52-.83-5.65c0-3.13.29-4.03.88-5.75a13 13 0 0 1 2.47-4.39 11 11 0 0 1 3.86-2.8q2.27-.99 5.09-.98c2.82.01 3.58.32 5.09.96q2.27.96 3.83 2.75a12 12 0 0 1 2.39 4.31q.83 2.52.83 5.6c0 3.08-.29 4.03-.86 5.75a13 13 0 0 1-2.45 4.41 10.4 10.4 0 0 1-3.88 2.82q-2.3.98-5.17.98Zm.1-2.52q2.47 0 4.19-.88a8 8 0 0 0 2.82-2.39 10 10 0 0 0 1.61-3.58q.5-2.06.5-4.49c0-2.43-.17-3-.5-4.36a10 10 0 0 0-1.61-3.56 8 8 0 0 0-2.82-2.4q-1.71-.88-4.19-.88c-2.48 0-3 .29-4.16.88a8 8 0 0 0-2.82 2.4 10 10 0 0 0-1.59 3.56q-.5 2.04-.5 4.41c0 2.37.17 3.06.5 4.44q.51 2.07 1.59 3.58a7.6 7.6 0 0 0 2.82 2.39q1.74.88 4.16.88m19.77-24.26h2.92v4.24a14 14 0 0 1 4.51-3.86 11.4 11.4 0 0 1 5.12-1.19q4.44 0 6.56 2.47t2.12 7.01v17.3h-2.93v-16.49q0-4.08-1.46-5.87-1.47-1.79-4.64-1.79-1.52 0-3.2.58t-3.05 1.84a10 10 0 0 0-2.27 2.7q-.75 1.38-.76 3.81v15.23h-2.92z" class="cls-4"/><path d="M425.92 57.86h-70.97a44 44 0 0 1-5.39 11.59 44 44 0 0 1-8.05 9.02h84.41z" class="cls-3"/><path d="M189.09 118.94a48.8 48.8 0 0 1-48.75-48.75l.02-.79h-.1C139.83 31.09 108.55.05 70.14.05S0 31.51 0 70.19s31.46 70.14 70.14 70.14a70.1 70.1 0 0 0 59.48-33.03 70.1 70.1 0 0 0 59.48 33.03 70.2 70.2 0 0 0 65.23-44.36h-23.87a48.8 48.8 0 0 1-41.35 22.98Zm-118.95 0c-26.88 0-48.75-21.87-48.75-48.75s21.87-48.75 48.75-48.75 48.75 21.87 48.75 48.75-21.87 48.75-48.75 48.75" class="cls-2"/><path d="M189.09 21.43a48.8 48.8 0 0 1 43.34 26.47h23.17C246.26 20.12 219.98.05 189.09.05a70 70 0 0 0-53.56 24.91A79 79 0 0 1 146.23 47a48.8 48.8 0 0 1 42.86-25.56Z" class="cls-2"/><path d="M317.79 79.06q13.57-5.69 19.69-14.92t6.12-22.97q0-7.07-2.67-14.33t-9.46-13.25Q324.68 7.61 313 3.87 301.32.14 283.29.14h-56.51a80 80 0 0 1 23.83 19.63h32.01q9.57 0 16.02 1.57t10.35 4.42a16 16 0 0 1 5.56 6.87 23 23 0 0 1 1.67 8.93q0 5.3-1.44 9.62a17 17 0 0 1-4.9 7.36q-3.45 3.05-9.46 4.71t-15.13 1.67h-3.27l40.53 75.39h28.16zM431.73.14h-98.59a52 52 0 0 1 8.55 6.01 45 45 0 0 1 11.08 14.41h78.96zm0 119.76h-77l10.97 20.41h66.03z" class="cls-3"/><path d="M478.71 82.33q-1.41-.62-3.39-.89t-4.53-.27c-2.54 0-3.21.09-4.53.27q-1.99.27-3.39.89-1.4.63-2.14 1.63t-.74 2.48c0 1.48.25 1.8.74 2.46s1.21 1.18 2.14 1.59q1.41.6 3.39.87 2 .27 4.53.27c2.53 0 3.21-.09 4.53-.27q2-.27 3.39-.87t2.14-1.59.74-2.46c0-1.48-.25-1.81-.74-2.48a5 5 0 0 0-2.14-1.63" class="cls-1"/><path d="M441.23.14v140.17h59.14V.14zm14.14 16.23h18.94v-3.93l5 .67v3.26h6.92v5.94h-6.92V36.2h-4.24l-19.7-14.11zm1.7 30.91q2.55-2.68 6.92-2.68 1.88 0 3.46.47 1.59.47 3.1 1.41 1.52.93 3.06 2.39a45 45 0 0 1 3.33 3.46q.9 1.07 1.79 2.17.9 1.1 2.05 2.34V44.16l5.45.67v21.39h-4.69a147 147 0 0 1-3.24-3.8 147 147 0 0 0-6.23-7.08 21 21 0 0 0-2.59-2.34 11 11 0 0 0-2.48-1.41 8 8 0 0 0-2.7-.47q-1.92 0-3.15 1.09a3.8 3.8 0 0 0-1.23 2.97q0 2.23 1.01 3.51 1 1.27 3.82 1.9l-.71 6.07a18 18 0 0 1-3.64-1.16 9.3 9.3 0 0 1-5.12-5.41 14 14 0 0 1-.76-4.96q0-5.18 2.55-7.86Zm29.16 81.16h-4.69a147 147 0 0 1-3.24-3.8 147 147 0 0 0-6.23-7.08 21 21 0 0 0-2.59-2.34 11 11 0 0 0-2.48-1.41 8 8 0 0 0-2.7-.47 4.6 4.6 0 0 0-3.15 1.09 3.8 3.8 0 0 0-1.23 2.97q0 2.23 1.01 3.51 1 1.27 3.82 1.9l-.71 6.07a18 18 0 0 1-3.64-1.16 9.3 9.3 0 0 1-5.12-5.41 14 14 0 0 1-.76-4.96q0-5.17 2.55-7.86 2.54-2.68 6.92-2.68 1.88 0 3.46.47 1.59.47 3.1 1.41t3.06 2.39 3.33 3.46q.9 1.07 1.79 2.17.9 1.1 2.05 2.34v-12.68l5.45.67zm-3.12-33.36q-3.93 3.06-12.33 3.06-4.2 0-7.26-.83a14 14 0 0 1-5.07-2.37 9.4 9.4 0 0 1-2.97-3.73q-.96-2.2-.96-4.91 0-5.54 3.95-8.6t12.31-3.06c8.35 0 9.71 1.04 12.33 3.1q3.93 3.1 3.93 8.73c0 5.63-1.31 6.56-3.93 8.6Z" class="cls-1"/><path d="M474.31 29.82v-7.51h-10.77z" class="cls-1"/></g></svg>