<svg xmlns="http://www.w3.org/2000/svg" width="683.667" height="257.44" viewBox="0 0 683.667 257.44"><defs><style>.a{fill:#0064b0;}.b{fill:#0b9bdb;}.c{fill:#ec421d;}.d{fill:#121a50;}</style></defs><path class="a" d="M579.807,78.693H483.189a57.92,57.92,0,0,1-18.29,28.061H579.807Z"/><path class="b" d="M257.41,161.848a66.444,66.444,0,0,1-66.369-66.369c0-.361.022-.715.027-1.074h-.138a95.552,95.552,0,1,0-14.486,51.59,95.435,95.435,0,0,0,169.762-15.423H313.7a66.37,66.37,0,0,1-56.295,31.276m-161.931,0a66.37,66.37,0,1,1,66.369-66.369,66.444,66.444,0,0,1-66.369,66.369"/><path class="b" d="M257.41,29.11a66.423,66.423,0,0,1,59,36.028h31.536A95.426,95.426,0,0,0,184.5,33.909a107.957,107.957,0,0,1,14.56,30,66.405,66.405,0,0,1,58.347-34.8"/><path class="a" d="M432.612,107.556q18.471-7.746,26.807-20.313t8.332-31.267a56.3,56.3,0,0,0-3.637-19.511,44.748,44.748,0,0,0-12.872-18.039Q442,10.278,426.1,5.2T385.66.119H308.737a108.335,108.335,0,0,1,32.435,26.726h43.579a94.072,94.072,0,0,1,21.81,2.137A39.766,39.766,0,0,1,420.646,35a21.987,21.987,0,0,1,7.573,9.354,31.459,31.459,0,0,1,2.272,12.159,41.157,41.157,0,0,1-1.967,13.1,22.884,22.884,0,0,1-6.665,10.022q-4.7,4.145-12.874,6.414t-20.6,2.27H383.93L439.107,190.94h38.336Z"/><path class="a" d="M587.71.119H453.5A69.891,69.891,0,0,1,465.141,8.3a60.824,60.824,0,0,1,15.082,19.614H587.71Z"/><path class="a" d="M587.71,163.147H482.891l14.942,27.792H587.71Z"/><path class="c" d="M654.181,112a17.026,17.026,0,0,0-4.622-1.216,52.356,52.356,0,0,0-12.343,0A17.01,17.01,0,0,0,632.6,112a7.081,7.081,0,0,0-2.919,2.219,5.552,5.552,0,0,0-1,3.375,5.416,5.416,0,0,0,1,3.345A6.989,6.989,0,0,0,632.6,123.1a17.782,17.782,0,0,0,4.62,1.185,52.357,52.357,0,0,0,12.343,0,17.8,17.8,0,0,0,4.622-1.185,6.992,6.992,0,0,0,2.918-2.158,5.41,5.41,0,0,0,1-3.345,5.546,5.546,0,0,0-1-3.375A7.085,7.085,0,0,0,654.181,112"/><path class="c" d="M603.164,190.94h80.5V.119h-80.5ZM622.411,22.219h25.78V16.868l6.81.912v4.439h9.424v8.087H655v18.91h-5.777L622.411,30ZM624.722,64.3q3.465-3.649,9.424-3.648a16.523,16.523,0,0,1,4.711.638,17.407,17.407,0,0,1,4.226,1.916,26.042,26.042,0,0,1,4.165,3.253q2.1,1.976,4.531,4.711,1.215,1.459,2.432,2.949t2.8,3.192V60.041l7.417.912V90.078h-6.383q-2.312-2.613-4.409-5.168t-4.409-5.168q-2.246-2.554-4.073-4.47a28.968,28.968,0,0,0-3.526-3.192,13.955,13.955,0,0,0-3.375-1.915,10.249,10.249,0,0,0-3.679-.638,6.2,6.2,0,0,0-4.285,1.489,5.14,5.14,0,0,0-1.674,4.044,7.512,7.512,0,0,0,1.37,4.773q1.367,1.732,5.2,2.584l-.972,8.269a24.793,24.793,0,0,1-4.957-1.581,13.533,13.533,0,0,1-4.134-2.827,12.605,12.605,0,0,1-2.828-4.531A19.2,19.2,0,0,1,621.255,75q0-7.053,3.467-10.7m39.7,110.481h-6.383q-2.312-2.613-4.409-5.168t-4.409-5.168q-2.246-2.554-4.073-4.47a28.967,28.967,0,0,0-3.526-3.192,13.988,13.988,0,0,0-3.375-1.915,10.249,10.249,0,0,0-3.679-.638,6.205,6.205,0,0,0-4.285,1.489,5.142,5.142,0,0,0-1.674,4.044,7.512,7.512,0,0,0,1.37,4.773q1.367,1.732,5.2,2.584l-.972,8.27a24.859,24.859,0,0,1-4.957-1.582,13.5,13.5,0,0,1-4.134-2.827,12.6,12.6,0,0,1-2.828-4.53,19.21,19.21,0,0,1-1.034-6.749q0-7.053,3.467-10.7t9.424-3.648a16.523,16.523,0,0,1,4.711.638,17.406,17.406,0,0,1,4.226,1.916,26.1,26.1,0,0,1,4.165,3.253q2.1,1.977,4.531,4.711,1.215,1.459,2.432,2.949t2.8,3.192V144.743l7.417.912Zm-4.256-45.416q-5.351,4.164-16.781,4.164a38.2,38.2,0,0,1-9.88-1.124,19.663,19.663,0,0,1-6.9-3.223,12.835,12.835,0,0,1-4.044-5.077,16.5,16.5,0,0,1-1.308-6.689q0-7.538,5.381-11.7t16.752-4.165q11.433,0,16.781,4.226t5.35,11.886q0,7.542-5.35,11.706"/><path class="c" d="M648.192,40.52V30.306H633.538Z"/><path class="d" d="M135.457,239.066a6.967,6.967,0,0,0,2.67,4.87q2.13,1.5,6.35,1.5a11.282,11.282,0,0,0,3.523-.471,6.179,6.179,0,0,0,2.267-1.257,4.4,4.4,0,0,0,1.211-1.84,6.825,6.825,0,0,0,.36-2.221,7.313,7.313,0,0,0-.225-1.817,3.749,3.749,0,0,0-.875-1.595,5.635,5.635,0,0,0-1.8-1.256A11.8,11.8,0,0,0,146,234.13l-4.04-.718a24.05,24.05,0,0,1-4.218-1.077,10.567,10.567,0,0,1-3.12-1.728,6.626,6.626,0,0,1-1.929-2.625,9.964,9.964,0,0,1-.652-3.816,7.828,7.828,0,0,1,.921-3.859,8.352,8.352,0,0,1,2.491-2.782,10.857,10.857,0,0,1,3.725-1.661,19.2,19.2,0,0,1,4.667-.539,17.376,17.376,0,0,1,5.319.7,10.015,10.015,0,0,1,3.477,1.861,7.982,7.982,0,0,1,2.043,2.671,15.747,15.747,0,0,1,1.054,3.075l-3.86.763a11.314,11.314,0,0,0-.92-2.4,5.3,5.3,0,0,0-1.48-1.751,6.525,6.525,0,0,0-2.267-1.054,12.9,12.9,0,0,0-3.277-.36,14.233,14.233,0,0,0-3.679.4,6.78,6.78,0,0,0-2.379,1.1,3.9,3.9,0,0,0-1.279,1.661,5.5,5.5,0,0,0-.382,2.041,6.438,6.438,0,0,0,.292,2.042,3.614,3.614,0,0,0,.988,1.527,5.447,5.447,0,0,0,1.818,1.076,16.536,16.536,0,0,0,2.782.742l4.488.807q4.981.942,7.315,3.12t2.333,6.4a8.884,8.884,0,0,1-.74,3.613,8.214,8.214,0,0,1-2.2,2.939,10.529,10.529,0,0,1-3.657,1.974,16.668,16.668,0,0,1-5.162.718,21.8,21.8,0,0,1-5.138-.56,11.548,11.548,0,0,1-4.017-1.773,9.106,9.106,0,0,1-2.738-3.1,11.275,11.275,0,0,1-1.257-4.488Z"/><path class="d" d="M165.346,216.132H186.08v3.635H169.474V229.82h15.709V233.5H169.474v11.04h17.459l-.673,3.635H165.346Z"/><path class="d" d="M195.37,216.132h10.5a17.975,17.975,0,0,1,5.88.808,9.842,9.842,0,0,1,3.613,2.087,6.745,6.745,0,0,1,1.817,2.9,11.156,11.156,0,0,1,.494,3.276A10.01,10.01,0,0,1,216.4,230.4a8.4,8.4,0,0,1-4.2,3.367l6.731,14.406h-4.623l-6.057-13.418a10.425,10.425,0,0,1-1.257.111c-.449.016-.853.022-1.212.022h-6.328v13.285H195.37Zm10.9,15.214a12.3,12.3,0,0,0,3.545-.426,5.329,5.329,0,0,0,2.2-1.211,4.2,4.2,0,0,0,1.123-1.908,9.379,9.379,0,0,0,.314-2.514,7.236,7.236,0,0,0-.36-2.378,4.018,4.018,0,0,0-1.234-1.772,5.854,5.854,0,0,0-2.357-1.123,15.529,15.529,0,0,0-3.769-.381h-6.283v11.713Z"/><path class="d" d="M223.463,216.132h4.668l9.738,26.7,9.919-26.7h4.444l-12.3,32.044h-4.173Z"/><path class="d" d="M0,0H4.128V32.044H0Z" transform="translate(259.68 216.132)"/><path class="d" d="M300.519,237.63a14.856,14.856,0,0,1-1.211,4.51,11.076,11.076,0,0,1-6.485,5.991,15.448,15.448,0,0,1-5.363.853,15.178,15.178,0,0,1-5.969-1.121A11.93,11.93,0,0,1,277,244.586a15.218,15.218,0,0,1-2.85-5.273,23.071,23.071,0,0,1-1.01-7.113,22.1,22.1,0,0,1,1.077-7.181,15.205,15.205,0,0,1,3.008-5.295,12.817,12.817,0,0,1,4.554-3.277,14.312,14.312,0,0,1,5.678-1.122,15.309,15.309,0,0,1,5.115.764,10.453,10.453,0,0,1,3.659,2.153,10.839,10.839,0,0,1,2.423,3.321,19.129,19.129,0,0,1,1.414,4.264l-4.04.673a16.363,16.363,0,0,0-1.054-3.163,8.019,8.019,0,0,0-1.661-2.4,6.707,6.707,0,0,0-2.423-1.5,10.06,10.06,0,0,0-3.433-.516,8.842,8.842,0,0,0-7.383,3.657,12.535,12.535,0,0,0-1.952,4.174,22.029,22.029,0,0,0,0,10.815,12.8,12.8,0,0,0,1.952,4.2,8.757,8.757,0,0,0,3.142,2.692,9.366,9.366,0,0,0,4.285.943,11.05,11.05,0,0,0,3.748-.561,6.726,6.726,0,0,0,2.558-1.594,7.524,7.524,0,0,0,1.593-2.468,14.237,14.237,0,0,0,.853-3.142Z"/><path class="d" d="M309.5,216.132h20.734v3.635H313.623V229.82h15.709V233.5H313.623v11.04h17.459l-.673,3.635H309.5Z"/><path class="d" d="M352.893,216.133h10.726a19.017,19.017,0,0,1,5.858.763,9.244,9.244,0,0,1,3.635,2.064,7.019,7.019,0,0,1,1.839,3.03,12.71,12.71,0,0,1,.517,3.657,13.668,13.668,0,0,1-.539,3.86,7.682,7.682,0,0,1-1.885,3.231,9.238,9.238,0,0,1-3.635,2.2,17.648,17.648,0,0,1-5.79.807h-6.642v12.432h-4.084Zm10.682,16.112a13.964,13.964,0,0,0,3.86-.449,5.482,5.482,0,0,0,2.378-1.3A4.61,4.61,0,0,0,371,228.453a9.789,9.789,0,0,0,.336-2.671,9.214,9.214,0,0,0-.358-2.692,4.049,4.049,0,0,0-1.257-1.931,5.915,5.915,0,0,0-2.4-1.144,15.837,15.837,0,0,0-3.792-.381h-6.553v12.611Z"/><path class="d" d="M384.354,216.132h10.5a17.975,17.975,0,0,1,5.88.808,9.842,9.842,0,0,1,3.613,2.087,6.745,6.745,0,0,1,1.817,2.9,11.189,11.189,0,0,1,.494,3.276,10.009,10.009,0,0,1-1.279,5.205,8.4,8.4,0,0,1-4.2,3.367l6.731,14.406h-4.623l-6.057-13.418a10.424,10.424,0,0,1-1.257.111c-.449.016-.853.022-1.212.022h-6.328v13.285h-4.084Zm10.9,15.214a12.3,12.3,0,0,0,3.545-.426,5.329,5.329,0,0,0,2.2-1.211,4.2,4.2,0,0,0,1.123-1.908,9.38,9.38,0,0,0,.314-2.514,7.235,7.235,0,0,0-.36-2.378,4.018,4.018,0,0,0-1.234-1.772,5.854,5.854,0,0,0-2.357-1.123,15.528,15.528,0,0,0-3.769-.381h-6.283v11.713Z"/><path class="d" d="M429.277,248.984a15.82,15.82,0,0,1-5.991-1.1,12.7,12.7,0,0,1-4.667-3.231,14.775,14.775,0,0,1-3.03-5.274,22.089,22.089,0,0,1-1.077-7.18,21.657,21.657,0,0,1,1.1-7.181,15.314,15.314,0,0,1,3.051-5.295,12.846,12.846,0,0,1,4.668-3.277,15.437,15.437,0,0,1,5.946-1.121,15.839,15.839,0,0,1,5.991,1.1,12.525,12.525,0,0,1,4.645,3.231,15.026,15.026,0,0,1,3.007,5.252A21.854,21.854,0,0,1,444,232.064a22.769,22.769,0,0,1-1.055,7.2,14.929,14.929,0,0,1-2.984,5.317,12.619,12.619,0,0,1-4.645,3.277,15.693,15.693,0,0,1-6.037,1.122m0-3.59a10.242,10.242,0,0,0,4.51-.943,8.819,8.819,0,0,0,3.255-2.67,12.276,12.276,0,0,0,1.974-4.174,22.246,22.246,0,0,0,0-10.861,12.26,12.26,0,0,0-2-4.2,8.962,8.962,0,0,0-3.253-2.693,10.126,10.126,0,0,0-4.488-.942,10.386,10.386,0,0,0-4.555.942,8.912,8.912,0,0,0-3.276,2.693,11.943,11.943,0,0,0-1.975,4.2,22.975,22.975,0,0,0,0,10.861,11.941,11.941,0,0,0,1.953,4.174,8.789,8.789,0,0,0,3.253,2.67,10.463,10.463,0,0,0,4.6.943"/><path class="d" d="M449.023,216.132h4.668l9.738,26.7,9.919-26.7h4.444l-12.3,32.044h-4.173Z"/><path class="d" d="M0,0H4.128V32.044H0Z" transform="translate(485.241 216.132)"/><path class="d" d="M499.826,216.133h11.22a18.916,18.916,0,0,1,6.261.964,11.794,11.794,0,0,1,4.667,2.941,13.263,13.263,0,0,1,2.939,4.936,21.141,21.141,0,0,1,1.034,6.957,20.893,20.893,0,0,1-1.1,7.091,12.811,12.811,0,0,1-8.19,8.123,20.109,20.109,0,0,1-6.643,1.032H499.826Zm10.368,28.453q5.968,0,8.706-3.343t2.738-9.223a20.418,20.418,0,0,0-.606-5.205,10.318,10.318,0,0,0-1.885-3.882,8.086,8.086,0,0,0-3.3-2.424,12.6,12.6,0,0,0-4.8-.831h-7.091v24.908Z"/><path class="d" d="M535.236,216.132H555.97v3.635H539.364V229.82h15.709V233.5H539.364v11.04h17.459l-.673,3.635H535.236Z"/><path class="d" d="M565.26,216.132h10.5a17.975,17.975,0,0,1,5.88.808,9.842,9.842,0,0,1,3.613,2.087,6.745,6.745,0,0,1,1.817,2.9,11.154,11.154,0,0,1,.494,3.276,10.01,10.01,0,0,1-1.279,5.205,8.4,8.4,0,0,1-4.2,3.367l6.731,14.406H584.2l-6.057-13.418a10.425,10.425,0,0,1-1.257.111c-.449.016-.853.022-1.212.022h-6.328v13.285H565.26Zm10.9,15.214a12.3,12.3,0,0,0,3.545-.426,5.329,5.329,0,0,0,2.2-1.211,4.2,4.2,0,0,0,1.123-1.908,9.379,9.379,0,0,0,.314-2.514,7.235,7.235,0,0,0-.36-2.378,4.019,4.019,0,0,0-1.234-1.772,5.854,5.854,0,0,0-2.357-1.123,15.525,15.525,0,0,0-3.768-.381h-6.284v11.713Z"/><path class="c" d="M603.163,257.44h80.5V205.872h-80.5Zm51.319-9.692-11.068-8.041-11.067,8.041,4.227-13.011L625.507,226.7h13.68l4.227-13.01,4.228,13.01h13.68l-11.067,8.041Z"/></svg>