<?xml version="1.0" encoding="UTF-8"?>
<svg id="Lager_2" data-name="Lager 2" xmlns="http://www.w3.org/2000/svg" viewBox="0 0 822.88 141.03">
  <defs>
    <style>
      .cls-1 {
        fill: #f05a2b;
      }

      .cls-2 {
        fill: #31a8df;
      }

      .cls-3 {
        fill: #2175bb;
      }

      .cls-4 {
        fill: #a7a8ab;
      }
    </style>
  </defs>
  <g id="Layer_1" data-name="Layer 1">
    <g>
      <g>
        <path class="cls-4" d="M538.04,37.82c-2.32,0-4.48-.4-6.48-1.19-2-.79-3.72-1.97-5.17-3.56-1.45-1.58-2.58-3.55-3.4-5.9-.82-2.35-1.24-5.08-1.24-8.17s.41-5.82,1.24-8.19c.82-2.37,1.97-4.35,3.43-5.95,1.46-1.6,3.18-2.81,5.17-3.63,1.98-.82,4.14-1.23,6.45-1.23s4.47.4,6.45,1.18c1.98.79,3.69,1.98,5.12,3.56,1.43,1.58,2.55,3.54,3.38,5.87.82,2.34,1.24,5.05,1.24,8.14s-.4,5.87-1.21,8.24c-.81,2.37-1.92,4.35-3.35,5.95-1.43,1.6-3.13,2.81-5.12,3.63-1.98.82-4.15,1.24-6.5,1.24ZM538.04,35.1c2.12,0,3.98-.4,5.6-1.19,1.61-.79,2.97-1.9,4.06-3.33,1.09-1.43,1.92-3.13,2.47-5.12.55-1.98.83-4.17.83-6.56s-.29-4.57-.86-6.56c-.57-1.98-1.4-3.69-2.5-5.12-1.09-1.43-2.45-2.54-4.06-3.33-1.61-.79-3.46-1.18-5.55-1.18-2.19,0-4.09.4-5.72,1.18-1.63.79-2.98,1.9-4.06,3.33-1.08,1.43-1.89,3.14-2.45,5.12-.55,1.98-.83,4.17-.83,6.56s.27,4.57.81,6.56c.54,1.98,1.35,3.69,2.45,5.12,1.09,1.43,2.45,2.54,4.08,3.33,1.63.79,3.54,1.19,5.72,1.19Z"/>
        <path class="cls-4" d="M561.84,10.94h2.92v3.88c1.18-1.48,2.47-2.63,3.88-3.45,1.41-.82,3.13-1.24,5.14-1.24s3.57.35,4.97,1.03c1.39.69,2.55,1.64,3.48,2.85.92,1.21,1.61,2.64,2.07,4.29.45,1.65.68,3.43.68,5.34,0,2.22-.28,4.19-.83,5.92-.55,1.73-1.34,3.2-2.34,4.41-1.01,1.21-2.23,2.14-3.66,2.77-1.43.64-3.03.96-4.82.96-1.58,0-3.1-.32-4.56-.96-1.46-.64-2.8-1.76-4.01-3.38v13.31h-2.92V10.94ZM564.66,24.96c0,1.14.06,2.14.18,3,.12.86.32,1.62.61,2.29.29.67.65,1.27,1.08,1.79.44.52.97,1,1.61,1.44.77.61,1.56,1.04,2.37,1.31.81.27,1.73.4,2.77.4,1.24,0,2.39-.21,3.43-.63,1.04-.42,1.94-1.08,2.7-1.99.76-.91,1.35-2.09,1.79-3.55.44-1.46.66-3.24.66-5.32s-.24-3.88-.73-5.29c-.49-1.41-1.12-2.55-1.89-3.4-.77-.86-1.65-1.46-2.62-1.81-.98-.35-1.93-.53-2.87-.53-1.04,0-1.98.12-2.82.35-.84.24-1.68.67-2.52,1.31-1.18.87-2.09,1.98-2.75,3.3-.66,1.33-.98,3.02-.98,5.07v2.27Z"/>
        <path class="cls-4" d="M614.18,30.1c-.4,2.25-1.48,4.08-3.23,5.5-1.75,1.41-4.24,2.12-7.46,2.12-3.73,0-6.63-1.2-8.7-3.61-2.07-2.4-3.1-5.71-3.1-9.91,0-2.29.29-4.3.88-6.05.59-1.75,1.41-3.22,2.47-4.41,1.06-1.19,2.3-2.09,3.73-2.7,1.43-.61,3-.91,4.72-.91,2.02,0,3.73.33,5.14.98s2.56,1.55,3.45,2.67c.89,1.13,1.54,2.46,1.94,4.01.4,1.55.61,3.21.61,4.99v1.87h-19.97c0,1.48.18,2.87.55,4.16.37,1.29.92,2.42,1.66,3.38.74.96,1.66,1.72,2.77,2.27,1.11.55,2.39.83,3.83.83,1.31,0,2.42-.13,3.33-.38s1.66-.61,2.27-1.08c.61-.47,1.08-1.02,1.44-1.64.35-.62.63-1.32.83-2.09h2.82ZM611.61,22.14c0-1.41-.15-2.71-.45-3.88-.3-1.18-.77-2.19-1.41-3.05-.64-.86-1.48-1.52-2.52-1.99-1.04-.47-2.29-.71-3.73-.71-2.52,0-4.54.79-6.05,2.37-1.51,1.58-2.42,4-2.72,7.26h16.89Z"/>
        <path class="cls-4" d="M622,10.94h2.92v4.24c1.41-1.78,2.92-3.07,4.51-3.86,1.6-.79,3.3-1.19,5.12-1.19,2.96,0,5.14.83,6.55,2.47s2.12,3.98,2.12,7.01v17.3h-2.92v-16.49c0-2.72-.49-4.68-1.46-5.87-.98-1.19-2.52-1.79-4.64-1.79-1.01,0-2.08.19-3.2.58-1.13.39-2.14,1-3.05,1.84-1.01.87-1.77,1.77-2.27,2.7-.5.92-.76,2.19-.76,3.81v15.23h-2.92V10.94Z"/>
        <path class="cls-4" d="M693.35,25.36c-.24,1.78-.7,3.43-1.39,4.94-.69,1.51-1.62,2.82-2.8,3.93-1.18,1.11-2.61,1.98-4.29,2.62-1.68.64-3.63.96-5.85.96-2.35,0-4.5-.4-6.43-1.21s-3.6-2.01-4.99-3.61c-1.4-1.6-2.48-3.56-3.25-5.9-.77-2.34-1.16-5.03-1.16-8.09s.42-5.82,1.26-8.19c.84-2.37,1.97-4.35,3.4-5.95,1.43-1.6,3.09-2.81,4.99-3.63,1.9-.82,3.93-1.23,6.08-1.23s4.07.29,5.65.86c1.58.57,2.92,1.37,4.01,2.4s1.97,2.24,2.65,3.66c.67,1.41,1.21,2.94,1.61,4.59l-2.92.66c-.37-1.48-.83-2.81-1.39-3.98-.55-1.18-1.26-2.17-2.12-2.97-.86-.81-1.89-1.43-3.1-1.87-1.21-.44-2.67-.66-4.39-.66-1.98,0-3.75.4-5.29,1.21-1.55.81-2.86,1.93-3.93,3.38-1.08,1.45-1.9,3.16-2.47,5.14-.57,1.98-.86,4.15-.86,6.5s.28,4.56.83,6.53c.55,1.97,1.36,3.67,2.42,5.12,1.06,1.45,2.38,2.56,3.96,3.35,1.58.79,3.4,1.19,5.45,1.19s3.59-.24,4.92-.73c1.33-.49,2.42-1.17,3.28-2.04.86-.87,1.53-1.91,2.02-3.1.49-1.19.85-2.48,1.08-3.86h3.03Z"/>
        <path class="cls-4" d="M701.06.91h2.93v36h-2.93V.91Z"/>
        <path class="cls-4" d="M723.75,37.72c-1.92,0-3.62-.32-5.12-.96-1.5-.64-2.76-1.55-3.78-2.75-1.03-1.19-1.82-2.63-2.37-4.31-.55-1.68-.83-3.56-.83-5.65s.29-4.03.88-5.75c.59-1.72,1.41-3.18,2.47-4.39,1.06-1.21,2.35-2.14,3.86-2.8,1.51-.66,3.21-.98,5.09-.98s3.58.32,5.09.96c1.51.64,2.79,1.56,3.83,2.75,1.04,1.19,1.84,2.63,2.39,4.31.55,1.68.83,3.55.83,5.6s-.29,4.03-.86,5.75c-.57,1.72-1.39,3.19-2.45,4.41-1.06,1.23-2.35,2.17-3.88,2.82-1.53.66-3.25.98-5.17.98ZM723.85,35.2c1.65,0,3.04-.29,4.19-.88,1.14-.59,2.08-1.39,2.82-2.39.74-1.01,1.28-2.2,1.61-3.58.34-1.38.5-2.87.5-4.49s-.17-3-.5-4.36c-.34-1.36-.87-2.55-1.61-3.56-.74-1.01-1.68-1.81-2.82-2.4-1.14-.59-2.54-.88-4.19-.88s-3,.29-4.16.88c-1.16.59-2.1,1.39-2.82,2.4-.72,1.01-1.25,2.19-1.59,3.56-.34,1.36-.5,2.83-.5,4.41s.17,3.06.5,4.44c.34,1.38.87,2.57,1.59,3.58.72,1.01,1.66,1.81,2.82,2.39,1.16.59,2.55.88,4.16.88Z"/>
        <path class="cls-4" d="M743.52,10.94h2.92v16.49c0,2.72.43,4.68,1.29,5.87.86,1.19,2.33,1.79,4.41,1.79,1.04,0,2.08-.2,3.13-.61,1.04-.4,2.03-1.01,2.97-1.82.98-.87,1.72-1.77,2.22-2.7.5-.92.76-2.19.76-3.81v-15.23h2.92v25.97h-2.92v-4.24c-2.72,3.36-5.87,5.04-9.43,5.04-2.96,0-5.08-.81-6.35-2.42-1.28-1.61-1.92-3.97-1.92-7.06V10.94Z"/>
        <path class="cls-4" d="M791.77,33.03c-1.11,1.45-2.38,2.59-3.81,3.43-1.43.84-3.17,1.26-5.22,1.26-1.92,0-3.57-.37-4.97-1.11-1.4-.74-2.55-1.73-3.45-2.97-.91-1.24-1.58-2.68-2.02-4.31-.44-1.63-.66-3.34-.66-5.12,0-4.44,1.03-7.89,3.1-10.36,2.07-2.47,4.92-3.71,8.55-3.71,1.41,0,2.86.3,4.34.91,1.48.61,2.86,1.75,4.13,3.43V.91h2.92v36h-2.92v-3.88ZM791.92,22.89c0-1.18-.07-2.19-.2-3.05-.14-.86-.34-1.61-.6-2.27-.27-.66-.63-1.23-1.08-1.74-.45-.5-.98-.99-1.59-1.46-.81-.61-1.61-1.04-2.4-1.31-.79-.27-1.69-.4-2.7-.4-1.24,0-2.39.21-3.43.63-1.04.42-1.94,1.08-2.7,1.99-.76.91-1.35,2.09-1.79,3.53-.44,1.45-.66,3.21-.66,5.29s.24,3.89.73,5.32c.49,1.43,1.12,2.57,1.89,3.43.77.86,1.64,1.46,2.6,1.82.96.35,1.92.53,2.9.53,1.04,0,1.97-.12,2.8-.35.82-.24,1.67-.67,2.55-1.31,1.18-.87,2.08-1.98,2.72-3.33.64-1.34.96-3.03.96-5.04v-2.27Z"/>
        <path class="cls-4" d="M804.58,29.7c.37,2.02,1.23,3.45,2.57,4.29,1.34.84,3.26,1.26,5.75,1.26s4.3-.47,5.35-1.41c1.04-.94,1.56-2.12,1.56-3.53,0-.61-.07-1.17-.2-1.69s-.4-1-.78-1.44c-.39-.44-.94-.81-1.66-1.11-.72-.3-1.66-.55-2.8-.76l-3.18-.5c-1.38-.24-2.61-.52-3.71-.86-1.09-.34-2.02-.78-2.77-1.34-.76-.55-1.33-1.24-1.71-2.07-.39-.82-.58-1.84-.58-3.05,0-1.14.25-2.18.76-3.1.5-.92,1.19-1.7,2.07-2.32.87-.62,1.91-1.1,3.1-1.44,1.19-.34,2.48-.5,3.86-.5,1.78,0,3.27.18,4.46.53,1.19.35,2.17.83,2.92,1.44.76.61,1.34,1.31,1.77,2.12.42.81.75,1.66.98,2.57l-2.67.55c-.27-.77-.58-1.45-.93-2.04-.35-.59-.8-1.08-1.34-1.46-.54-.39-1.21-.68-2.02-.88-.81-.2-1.82-.3-3.03-.3-1.35,0-2.47.13-3.38.38-.91.25-1.64.6-2.19,1.03-.55.44-.95.94-1.18,1.51-.24.57-.35,1.16-.35,1.76s.07,1.15.2,1.64c.13.49.4.92.81,1.29.4.37.97.69,1.69.96.72.27,1.67.5,2.85.71l3.98.66c2.72.47,4.76,1.29,6.1,2.45,1.34,1.16,2.02,2.93,2.02,5.32,0,1.01-.21,1.97-.63,2.87-.42.91-1.04,1.69-1.87,2.34-.82.66-1.86,1.18-3.1,1.56-1.24.39-2.67.58-4.29.58s-3.03-.15-4.36-.45c-1.33-.3-2.48-.77-3.45-1.41-.98-.64-1.76-1.46-2.37-2.47-.61-1.01-.98-2.24-1.11-3.68h2.87Z"/>
        <path class="cls-4" d="M523.92,65.02h-4.03v-2.42h4.03v-2.97c0-1.28.2-2.39.6-3.33.4-.94.93-1.71,1.59-2.32.66-.61,1.42-1.06,2.29-1.36.87-.3,1.8-.45,2.77-.45.71,0,1.35.04,1.94.13.59.08,1.22.23,1.89.43l-.61,2.47c-.54-.17-1.03-.29-1.49-.35-.45-.07-.93-.1-1.44-.1-1.31,0-2.41.34-3.3,1.03-.89.69-1.34,1.94-1.34,3.76v3.08h6.91v2.42h-6.91v23.55h-2.92v-23.55Z"/>
        <path class="cls-4" d="M549.33,89.37c-1.92,0-3.62-.32-5.12-.96-1.5-.64-2.76-1.55-3.78-2.75-1.03-1.19-1.81-2.63-2.37-4.31-.55-1.68-.83-3.56-.83-5.65s.29-4.03.88-5.75c.59-1.72,1.41-3.18,2.47-4.39,1.06-1.21,2.34-2.14,3.86-2.8,1.51-.66,3.21-.98,5.09-.98s3.58.32,5.09.96c1.51.64,2.79,1.56,3.83,2.75,1.04,1.19,1.84,2.63,2.4,4.31.55,1.68.83,3.55.83,5.6s-.29,4.03-.86,5.75c-.57,1.72-1.39,3.19-2.45,4.41-1.06,1.23-2.35,2.17-3.88,2.82-1.53.66-3.25.98-5.17.98ZM549.43,86.85c1.65,0,3.04-.29,4.19-.88,1.14-.59,2.08-1.39,2.82-2.39.74-1.01,1.28-2.2,1.61-3.58.34-1.38.5-2.87.5-4.49s-.17-3-.5-4.36c-.34-1.36-.87-2.55-1.61-3.56-.74-1.01-1.68-1.81-2.82-2.4-1.14-.59-2.54-.88-4.19-.88s-3,.29-4.16.88c-1.16.59-2.1,1.39-2.82,2.4-.72,1.01-1.25,2.19-1.59,3.56-.34,1.36-.5,2.83-.5,4.41s.17,3.06.5,4.44c.34,1.38.86,2.57,1.59,3.58.72,1.01,1.66,1.81,2.82,2.39,1.16.59,2.55.88,4.16.88Z"/>
        <path class="cls-4" d="M569.2,62.6h2.92v4.24c1.04-1.48,2.24-2.62,3.58-3.43,1.34-.81,2.77-1.21,4.29-1.21.37,0,.71,0,1.03.03.32.02.66.06,1.03.13l-.35,2.77c-.61-.1-1.16-.15-1.66-.15-.87,0-1.76.16-2.67.48-.91.32-1.77.87-2.57,1.64-.77.67-1.41,1.49-1.92,2.45s-.76,2.09-.76,3.4v15.63h-2.92v-25.97Z"/>
        <path class="cls-4" d="M600.56,52.56h11.29c2.59,0,4.71.29,6.38.86,1.66.57,2.97,1.31,3.93,2.22.96.91,1.61,1.95,1.97,3.13.35,1.18.53,2.37.53,3.58,0,2.29-.51,4.24-1.54,5.85-1.03,1.61-2.7,2.84-5.02,3.68l7.77,16.69h-3.58l-7.21-15.98c-.57.07-1.16.13-1.76.18-.61.05-1.24.08-1.92.08h-7.82v15.73h-3.03v-36ZM612.26,70.11c1.82,0,3.32-.18,4.51-.53,1.19-.35,2.14-.86,2.85-1.54.71-.67,1.2-1.48,1.49-2.42.29-.94.43-2.02.43-3.23s-.15-2.21-.45-3.1c-.3-.89-.83-1.64-1.59-2.24-.76-.61-1.77-1.06-3.03-1.36-1.26-.3-2.85-.45-4.77-.45h-8.12v14.87h8.67Z"/>
        <path class="cls-4" d="M652.7,81.76c-.4,2.25-1.48,4.08-3.23,5.5-1.75,1.41-4.24,2.12-7.46,2.12-3.73,0-6.63-1.2-8.7-3.61-2.07-2.4-3.1-5.71-3.1-9.91,0-2.29.29-4.3.88-6.05.59-1.75,1.41-3.22,2.47-4.41,1.06-1.19,2.3-2.09,3.73-2.7,1.43-.61,3-.91,4.71-.91,2.02,0,3.73.33,5.14.98,1.41.66,2.56,1.55,3.45,2.67.89,1.13,1.54,2.46,1.94,4.01.4,1.55.6,3.21.6,4.99v1.87h-19.97c0,1.48.18,2.87.55,4.16.37,1.29.92,2.42,1.66,3.38.74.96,1.66,1.72,2.77,2.27,1.11.55,2.39.83,3.83.83,1.31,0,2.42-.13,3.33-.38.91-.25,1.66-.61,2.27-1.08.61-.47,1.08-1.02,1.44-1.64.35-.62.63-1.32.83-2.09h2.82ZM650.13,73.79c0-1.41-.15-2.71-.45-3.88-.3-1.18-.77-2.19-1.41-3.05-.64-.86-1.48-1.52-2.52-1.99-1.04-.47-2.29-.71-3.73-.71-2.52,0-4.54.79-6.05,2.37-1.51,1.58-2.42,4-2.72,7.26h16.89Z"/>
        <path class="cls-4" d="M662.08,81.35c.37,2.02,1.23,3.45,2.57,4.29,1.34.84,3.26,1.26,5.75,1.26s4.3-.47,5.34-1.41c1.04-.94,1.56-2.12,1.56-3.53,0-.61-.07-1.17-.2-1.69-.13-.52-.4-1-.78-1.44-.39-.44-.94-.81-1.66-1.11-.72-.3-1.66-.55-2.8-.76l-3.18-.5c-1.38-.24-2.61-.52-3.71-.86-1.09-.34-2.02-.78-2.77-1.34-.76-.55-1.33-1.24-1.71-2.07-.39-.82-.58-1.84-.58-3.05,0-1.14.25-2.18.76-3.1.5-.92,1.19-1.7,2.07-2.32.87-.62,1.91-1.1,3.1-1.44,1.19-.34,2.48-.5,3.86-.5,1.78,0,3.27.18,4.46.53,1.19.35,2.17.83,2.92,1.44s1.34,1.31,1.76,2.12c.42.81.75,1.66.98,2.57l-2.67.55c-.27-.77-.58-1.45-.93-2.04-.35-.59-.8-1.08-1.34-1.46-.54-.39-1.21-.68-2.02-.88-.81-.2-1.81-.3-3.03-.3-1.34,0-2.47.13-3.38.38-.91.25-1.64.6-2.19,1.03-.55.44-.95.94-1.19,1.51-.24.57-.35,1.16-.35,1.76s.07,1.15.2,1.64.4.92.81,1.29c.4.37.97.69,1.69.96.72.27,1.67.5,2.85.71l3.98.66c2.72.47,4.76,1.29,6.1,2.45,1.34,1.16,2.02,2.93,2.02,5.32,0,1.01-.21,1.97-.63,2.87-.42.91-1.04,1.69-1.87,2.34-.82.66-1.86,1.18-3.1,1.56-1.24.39-2.67.58-4.29.58s-3.03-.15-4.36-.45-2.48-.77-3.45-1.41c-.98-.64-1.76-1.46-2.37-2.47-.6-1.01-.98-2.24-1.11-3.68h2.87Z"/>
        <path class="cls-4" d="M708.62,81.76c-.4,2.25-1.48,4.08-3.23,5.5-1.75,1.41-4.24,2.12-7.46,2.12-3.73,0-6.63-1.2-8.7-3.61-2.07-2.4-3.1-5.71-3.1-9.91,0-2.29.29-4.3.88-6.05.59-1.75,1.41-3.22,2.47-4.41,1.06-1.19,2.3-2.09,3.73-2.7,1.43-.61,3-.91,4.71-.91,2.02,0,3.73.33,5.14.98,1.41.66,2.56,1.55,3.45,2.67.89,1.13,1.54,2.46,1.94,4.01.4,1.55.6,3.21.6,4.99v1.87h-19.97c0,1.48.18,2.87.55,4.16.37,1.29.92,2.42,1.66,3.38.74.96,1.66,1.72,2.77,2.27,1.11.55,2.39.83,3.83.83,1.31,0,2.42-.13,3.33-.38.91-.25,1.66-.61,2.27-1.08.61-.47,1.08-1.02,1.44-1.64.35-.62.63-1.32.83-2.09h2.82ZM706.05,73.79c0-1.41-.15-2.71-.45-3.88-.3-1.18-.77-2.19-1.41-3.05-.64-.86-1.48-1.52-2.52-1.99-1.04-.47-2.29-.71-3.73-.71-2.52,0-4.54.79-6.05,2.37-1.51,1.58-2.42,4-2.72,7.26h16.89Z"/>
        <path class="cls-4" d="M732.98,84.88c-.44.54-.96,1.07-1.56,1.59-.61.52-1.29.98-2.07,1.39-.77.4-1.62.72-2.55.96-.92.23-1.94.35-3.05.35-2.72,0-4.91-.66-6.55-1.97-1.65-1.31-2.47-3.26-2.47-5.85,0-1.75.37-3.18,1.11-4.29.74-1.11,1.72-1.98,2.95-2.62,1.23-.64,2.62-1.08,4.19-1.34,1.56-.25,3.18-.41,4.87-.48l5.04-.2v-.81c0-2.55-.5-4.42-1.49-5.6-.99-1.18-2.77-1.76-5.32-1.76-1.24,0-2.29.1-3.15.3-.86.2-1.57.5-2.14.88-.57.39-1.03.84-1.36,1.36-.34.52-.59,1.1-.76,1.74l-2.67-.4c.94-4.23,4.34-6.35,10.19-6.35,1.81,0,3.34.22,4.59.66,1.24.44,2.24,1.07,3,1.89.76.82,1.3,1.83,1.64,3.03.34,1.19.5,2.56.5,4.11v17.09h-2.92v-3.68ZM732.93,74.75l-4.79.2c-1.95.07-3.58.25-4.89.53-1.31.29-2.37.69-3.18,1.21-.81.52-1.39,1.16-1.74,1.92-.35.76-.53,1.66-.53,2.7,0,1.58.44,2.85,1.34,3.81.89.96,2.45,1.44,4.66,1.44,1.11,0,2.21-.13,3.3-.38,1.09-.25,1.99-.66,2.7-1.24.6-.44,1.1-.86,1.49-1.26.39-.4.71-.85.96-1.34.25-.49.43-1.03.53-1.64.1-.6.15-1.31.15-2.12v-3.83Z"/>
        <path class="cls-4" d="M744.17,62.6h2.92v4.24c1.04-1.48,2.24-2.62,3.58-3.43,1.34-.81,2.77-1.21,4.29-1.21.37,0,.71,0,1.03.03.32.02.66.06,1.03.13l-.35,2.77c-.61-.1-1.16-.15-1.66-.15-.87,0-1.76.16-2.67.48-.91.32-1.76.87-2.57,1.64-.77.67-1.41,1.49-1.92,2.45-.5.96-.76,2.09-.76,3.4v15.63h-2.92v-25.97Z"/>
        <path class="cls-4" d="M782.9,80.09c-.5,2.92-1.66,5.2-3.48,6.83-1.81,1.63-4.29,2.45-7.41,2.45-1.88,0-3.56-.31-5.04-.93-1.48-.62-2.72-1.53-3.73-2.72-1.01-1.19-1.78-2.63-2.32-4.31-.54-1.68-.81-3.58-.81-5.7s.29-4.03.86-5.75c.57-1.72,1.38-3.18,2.42-4.39,1.04-1.21,2.31-2.14,3.81-2.8,1.5-.66,3.19-.98,5.07-.98,2.86,0,5.14.73,6.83,2.19,1.7,1.46,2.82,3.52,3.35,6.18l-2.82.71c-.2-.94-.49-1.82-.86-2.62-.37-.81-.84-1.5-1.41-2.07-.57-.57-1.29-1.02-2.14-1.36s-1.87-.5-3.05-.5c-1.58,0-2.92.29-4.03.86-1.11.57-2.03,1.35-2.77,2.35-.74.99-1.28,2.18-1.61,3.56s-.5,2.87-.5,4.49.17,3.11.5,4.49.86,2.57,1.56,3.58c.71,1.01,1.62,1.8,2.75,2.37,1.13.57,2.48.86,4.06.86,2.52,0,4.36-.61,5.52-1.84,1.16-1.23,1.94-2.87,2.34-4.92h2.92Z"/>
        <path class="cls-4" d="M790.11,52.56h2.92v14.27c1.41-1.78,2.92-3.07,4.51-3.86,1.6-.79,3.3-1.19,5.12-1.19,2.96,0,5.14.83,6.55,2.47,1.41,1.65,2.12,3.98,2.12,7.01v17.3h-2.93v-16.49c0-2.72-.49-4.68-1.46-5.87-.98-1.19-2.52-1.79-4.64-1.79-1.01,0-2.08.19-3.2.58-1.13.39-2.14,1-3.05,1.84-1.01.87-1.76,1.77-2.27,2.7-.5.92-.76,2.19-.76,3.81v15.23h-2.92v-36Z"/>
        <path class="cls-4" d="M543.28,136.54c-1.18,1.41-2.66,2.51-4.44,3.3-1.78.79-3.78,1.19-6,1.19s-4.19-.27-5.72-.81c-1.53-.54-2.76-1.26-3.68-2.17-.92-.91-1.59-1.97-1.99-3.2s-.6-2.53-.6-3.91.22-2.61.66-3.71c.44-1.09,1.03-2.08,1.79-2.97.76-.89,1.63-1.68,2.62-2.37.99-.69,2.04-1.32,3.15-1.89-.47-.54-.93-1.11-1.39-1.71s-.87-1.26-1.24-1.97c-.37-.71-.67-1.45-.91-2.24-.24-.79-.35-1.64-.35-2.55,0-1.04.19-2.02.58-2.92.39-.91.92-1.69,1.61-2.34.69-.66,1.51-1.18,2.47-1.56.96-.39,2.01-.58,3.15-.58,1.28,0,2.4.19,3.35.58.96.39,1.76.9,2.4,1.54.64.64,1.12,1.38,1.44,2.22.32.84.48,1.73.48,2.67,0,1.28-.2,2.38-.61,3.3-.4.92-.95,1.74-1.64,2.45-.69.71-1.48,1.35-2.37,1.94-.89.59-1.82,1.17-2.8,1.74l9.78,11.55c.57-1.35.98-2.64,1.21-3.88.23-1.24.39-2.67.45-4.29h2.92c-.07,1.95-.35,3.79-.86,5.52-.5,1.73-1.14,3.34-1.92,4.82l5.19,5.95h-3.63l-3.13-3.68ZM530.68,121.86c-.87.5-1.71,1.04-2.52,1.61-.81.57-1.52,1.2-2.14,1.89-.62.69-1.12,1.45-1.49,2.29-.37.84-.55,1.81-.55,2.92s.14,2.15.43,3.13c.29.98.78,1.81,1.49,2.52.71.71,1.65,1.26,2.82,1.66,1.18.4,2.65.61,4.44.61,1.92,0,3.57-.36,4.97-1.08,1.39-.72,2.53-1.66,3.4-2.8l-10.84-12.76ZM531.63,118.74c.71-.37,1.43-.78,2.17-1.24.74-.45,1.41-.97,2.02-1.56.6-.59,1.11-1.25,1.51-1.99.4-.74.61-1.58.61-2.52,0-1.68-.45-2.93-1.34-3.76-.89-.82-2.08-1.23-3.56-1.23-1.58,0-2.8.45-3.66,1.34-.86.89-1.29,2.14-1.29,3.76,0,1.45.34,2.71,1.01,3.78.67,1.08,1.51,2.22,2.52,3.43Z"/>
        <path class="cls-4" d="M567.99,104.22h22.64v2.77h-19.56v13.21h18.56v2.87h-18.56v14.32h20.42l-.71,2.82h-22.79v-36Z"/>
        <path class="cls-4" d="M616.85,136.34c-1.11,1.45-2.38,2.59-3.81,3.43-1.43.84-3.17,1.26-5.22,1.26-1.92,0-3.57-.37-4.97-1.11-1.4-.74-2.55-1.73-3.45-2.97-.91-1.24-1.58-2.68-2.02-4.31-.44-1.63-.66-3.34-.66-5.12,0-4.44,1.03-7.89,3.1-10.36,2.07-2.47,4.92-3.71,8.55-3.71,1.41,0,2.86.3,4.34.91,1.48.61,2.86,1.75,4.13,3.43v-13.56h2.92v36h-2.92v-3.88ZM617,126.2c0-1.18-.07-2.19-.2-3.05-.13-.86-.34-1.61-.6-2.27-.27-.66-.63-1.23-1.08-1.74-.45-.5-.98-.99-1.59-1.46-.81-.61-1.61-1.04-2.39-1.31-.79-.27-1.69-.4-2.7-.4-1.24,0-2.39.21-3.43.63-1.04.42-1.94,1.08-2.7,1.99s-1.35,2.09-1.79,3.53c-.44,1.45-.66,3.21-.66,5.29s.24,3.89.73,5.32c.49,1.43,1.12,2.57,1.89,3.43.77.86,1.64,1.46,2.6,1.82.96.35,1.92.53,2.9.53,1.04,0,1.97-.12,2.8-.35.82-.24,1.67-.67,2.55-1.31,1.18-.87,2.08-1.98,2.72-3.33.64-1.34.96-3.03.96-5.04v-2.27Z"/>
        <path class="cls-4" d="M628,114.25h2.92v16.49c0,2.72.43,4.68,1.29,5.87.86,1.19,2.33,1.79,4.41,1.79,1.04,0,2.08-.2,3.13-.61,1.04-.4,2.03-1.01,2.97-1.82.97-.87,1.71-1.77,2.22-2.7.5-.92.76-2.19.76-3.81v-15.23h2.92v25.97h-2.92v-4.24c-2.72,3.36-5.87,5.04-9.43,5.04-2.96,0-5.08-.81-6.35-2.42-1.28-1.61-1.92-3.97-1.92-7.06v-17.3Z"/>
        <path class="cls-4" d="M678.92,131.75c-.5,2.92-1.66,5.2-3.48,6.83-1.81,1.63-4.29,2.45-7.41,2.45-1.88,0-3.56-.31-5.04-.93-1.48-.62-2.72-1.53-3.73-2.72-1.01-1.19-1.78-2.63-2.32-4.31-.54-1.68-.81-3.58-.81-5.7s.29-4.03.86-5.75c.57-1.72,1.38-3.18,2.42-4.39,1.04-1.21,2.31-2.14,3.81-2.8,1.5-.66,3.19-.98,5.07-.98,2.86,0,5.14.73,6.83,2.19,1.7,1.46,2.82,3.52,3.35,6.18l-2.82.71c-.2-.94-.49-1.82-.86-2.62-.37-.81-.84-1.5-1.41-2.07-.57-.57-1.29-1.02-2.14-1.36-.86-.34-1.87-.5-3.05-.5-1.58,0-2.92.29-4.03.86-1.11.57-2.03,1.35-2.77,2.35-.74.99-1.28,2.18-1.61,3.56-.34,1.38-.5,2.87-.5,4.49s.17,3.11.5,4.49.86,2.57,1.56,3.58c.71,1.01,1.62,1.8,2.75,2.37,1.13.57,2.48.86,4.06.86,2.52,0,4.36-.61,5.52-1.84,1.16-1.23,1.94-2.87,2.34-4.92h2.92Z"/>
        <path class="cls-4" d="M701.92,136.54c-.44.54-.96,1.07-1.56,1.59s-1.29.98-2.07,1.39c-.77.4-1.62.72-2.55.96-.92.23-1.94.35-3.05.35-2.72,0-4.91-.66-6.55-1.97-1.65-1.31-2.47-3.26-2.47-5.85,0-1.75.37-3.18,1.11-4.29.74-1.11,1.72-1.98,2.95-2.62,1.23-.64,2.62-1.08,4.19-1.34s3.18-.41,4.87-.48l5.04-.2v-.81c0-2.55-.5-4.42-1.49-5.6-.99-1.18-2.77-1.76-5.32-1.76-1.24,0-2.29.1-3.15.3-.86.2-1.57.5-2.14.88-.57.39-1.03.84-1.36,1.36-.34.52-.59,1.1-.76,1.74l-2.67-.4c.94-4.23,4.34-6.35,10.19-6.35,1.82,0,3.34.22,4.59.66,1.24.44,2.24,1.07,3,1.89s1.3,1.83,1.64,3.03c.34,1.19.5,2.56.5,4.11v17.09h-2.92v-3.68ZM701.87,126.4l-4.79.2c-1.95.07-3.58.25-4.89.53-1.31.29-2.37.69-3.18,1.21-.81.52-1.39,1.16-1.74,1.92-.35.76-.53,1.66-.53,2.7,0,1.58.45,2.85,1.34,3.81.89.96,2.45,1.44,4.66,1.44,1.11,0,2.21-.13,3.3-.38,1.09-.25,1.99-.66,2.7-1.24.6-.44,1.1-.86,1.49-1.26.39-.4.71-.85.96-1.34.25-.49.43-1.03.53-1.64.1-.6.15-1.31.15-2.12v-3.83Z"/>
        <path class="cls-4" d="M714.57,116.67h-4.03v-2.42h4.03v-7.16h2.92v7.16h7.36v2.42h-7.36v16.99c0,1.28.27,2.36.81,3.25.54.89,1.48,1.34,2.82,1.34.87,0,1.61-.07,2.22-.2.6-.13,1.14-.29,1.61-.45l.61,2.37c-.5.2-1.12.39-1.84.55-.72.17-1.67.25-2.85.25-1.48,0-2.64-.25-3.48-.76-.84-.5-1.47-1.17-1.89-1.99-.42-.82-.68-1.77-.78-2.85s-.15-2.2-.15-3.38v-15.13Z"/>
        <path class="cls-4" d="M730.96,104.22h3.33v4.39h-3.33v-4.39ZM731.16,114.25h2.93v25.97h-2.93v-25.97Z"/>
        <path class="cls-4" d="M753.85,141.03c-1.92,0-3.62-.32-5.12-.96-1.5-.64-2.76-1.55-3.78-2.75-1.03-1.19-1.82-2.63-2.37-4.31-.55-1.68-.83-3.56-.83-5.65s.29-4.03.88-5.75c.59-1.72,1.41-3.18,2.47-4.39,1.06-1.21,2.35-2.14,3.86-2.8,1.51-.66,3.21-.98,5.09-.98s3.58.32,5.09.96c1.51.64,2.79,1.56,3.83,2.75,1.04,1.19,1.84,2.63,2.39,4.31.55,1.68.83,3.55.83,5.6s-.29,4.03-.86,5.75c-.57,1.72-1.39,3.19-2.45,4.41-1.06,1.23-2.35,2.17-3.88,2.82-1.53.66-3.25.98-5.17.98ZM753.95,138.51c1.65,0,3.04-.29,4.19-.88,1.14-.59,2.08-1.39,2.82-2.39.74-1.01,1.28-2.2,1.61-3.58.34-1.38.5-2.87.5-4.49s-.17-3-.5-4.36c-.34-1.36-.87-2.55-1.61-3.56-.74-1.01-1.68-1.81-2.82-2.4-1.14-.59-2.54-.88-4.19-.88s-3,.29-4.16.88c-1.16.59-2.1,1.39-2.82,2.4-.72,1.01-1.25,2.19-1.59,3.56-.34,1.36-.5,2.83-.5,4.41s.17,3.06.5,4.44c.34,1.38.87,2.57,1.59,3.58.72,1.01,1.66,1.81,2.82,2.39,1.16.59,2.55.88,4.16.88Z"/>
        <path class="cls-4" d="M773.72,114.25h2.92v4.24c1.41-1.78,2.92-3.07,4.51-3.86,1.6-.79,3.3-1.19,5.12-1.19,2.96,0,5.14.83,6.56,2.47,1.41,1.65,2.12,3.98,2.12,7.01v17.3h-2.93v-16.49c0-2.72-.49-4.68-1.46-5.87-.98-1.19-2.52-1.79-4.64-1.79-1.01,0-2.08.19-3.2.58-1.13.39-2.14,1-3.05,1.84-1.01.87-1.76,1.77-2.27,2.7-.5.92-.76,2.19-.76,3.81v15.23h-2.92v-25.97Z"/>
      </g>
      <path class="cls-3" d="M425.92,57.86h-70.97c-1.28,4.2-3.06,8.09-5.39,11.59-2.17,3.27-4.86,6.28-8.05,9.02h84.41v-20.61Z"/>
      <g>
        <path class="cls-2" d="M189.09,118.94c-26.88,0-48.75-21.87-48.75-48.75,0-.26.02-.53.02-.79h-.1C139.83,31.09,108.55.05,70.14.05S0,31.51,0,70.19s31.46,70.14,70.14,70.14c25.05,0,47.07-13.21,59.48-33.03,12.41,19.82,34.42,33.03,59.48,33.03,29.58,0,54.94-18.4,65.23-44.36h-23.87c-8.62,13.78-23.93,22.98-41.35,22.98ZM70.14,118.94c-26.88,0-48.75-21.87-48.75-48.75s21.87-48.75,48.75-48.75,48.75,21.87,48.75,48.75-21.87,48.75-48.75,48.75Z"/>
        <path class="cls-2" d="M189.09,21.43c18.85,0,35.23,10.76,43.34,26.47h23.17C246.26,20.12,219.98.05,189.09.05c-21.45,0-40.68,9.69-53.56,24.91,4.63,6.68,8.27,14.09,10.7,22.04,8.26-15.21,24.37-25.56,42.86-25.56Z"/>
      </g>
      <path class="cls-3" d="M317.79,79.06c9.05-3.79,15.61-8.77,19.69-14.92,4.08-6.15,6.12-13.81,6.12-22.97,0-4.71-.89-9.49-2.67-14.33-1.78-4.84-4.93-9.26-9.46-13.25-4.53-3.99-10.68-7.23-18.47-9.72-7.79-2.49-17.69-3.73-29.71-3.73h-56.51c9.12,4.91,17.22,11.57,23.83,19.63h32.01c6.38,0,11.72.52,16.02,1.57,4.3,1.05,7.75,2.52,10.35,4.42,2.59,1.9,4.45,4.19,5.56,6.87,1.11,2.68,1.67,5.66,1.67,8.93,0,3.53-.48,6.74-1.44,9.62-.97,2.88-2.6,5.33-4.9,7.36-2.3,2.03-5.45,3.6-9.46,4.71-4.01,1.11-9.05,1.67-15.13,1.67h-3.27l40.53,75.39h28.16l-32.93-61.25Z"/>
      <path class="cls-3" d="M431.73.14h-98.59c3.19,1.82,6.06,3.82,8.55,6.01,4.91,4.34,8.62,9.18,11.08,14.41h78.96V.14Z"/>
      <polygon class="cls-3" points="431.73 119.9 354.73 119.9 365.7 140.31 431.73 140.31 431.73 119.9"/>
      <g>
        <path class="cls-1" d="M478.71,82.33c-.94-.42-2.07-.71-3.39-.89-1.32-.18-2.84-.27-4.53-.27s-3.21.09-4.53.27c-1.32.18-2.46.48-3.39.89-.94.42-1.65.96-2.14,1.63-.49.67-.74,1.5-.74,2.48s.25,1.8.74,2.46,1.21,1.18,2.14,1.59c.94.4,2.07.69,3.39.87,1.33.18,2.84.27,4.53.27s3.21-.09,4.53-.27c1.33-.18,2.46-.47,3.39-.87.94-.4,1.65-.93,2.14-1.59.49-.65.74-1.47.74-2.46s-.25-1.81-.74-2.48c-.49-.67-1.21-1.21-2.14-1.63Z"/>
        <path class="cls-1" d="M441.23.14v140.17h59.14V.14h-59.14ZM455.37,16.37h18.94v-3.93l5,.67v3.26h6.92v5.94h-6.92v13.89h-4.24l-19.7-14.11v-5.72ZM457.07,47.28c1.7-1.79,4-2.68,6.92-2.68,1.25,0,2.41.16,3.46.47,1.06.31,2.09.78,3.1,1.41,1.01.62,2.03,1.42,3.06,2.39s2.14,2.12,3.33,3.46c.6.71,1.19,1.44,1.79,2.17.6.73,1.28,1.51,2.05,2.34v-12.68l5.45.67v21.39h-4.69c-1.13-1.28-2.21-2.55-3.24-3.8-1.03-1.25-2.11-2.52-3.24-3.8-1.1-1.25-2.1-2.34-2.99-3.28-.89-.94-1.76-1.72-2.59-2.34-.83-.62-1.66-1.09-2.48-1.41-.82-.31-1.72-.47-2.7-.47-1.28,0-2.33.36-3.15,1.09-.82.73-1.23,1.72-1.23,2.97,0,1.49.34,2.66,1.01,3.51.67.85,1.94,1.48,3.82,1.9l-.71,6.07c-1.28-.27-2.49-.65-3.64-1.16-1.15-.51-2.16-1.2-3.04-2.08-.88-.88-1.57-1.99-2.08-3.33-.51-1.34-.76-2.99-.76-4.96,0-3.45.85-6.07,2.55-7.86ZM486.23,128.44h-4.69c-1.13-1.28-2.21-2.55-3.24-3.8-1.03-1.25-2.11-2.52-3.24-3.8-1.1-1.25-2.1-2.34-2.99-3.28-.89-.94-1.76-1.72-2.59-2.34-.83-.62-1.66-1.09-2.48-1.41-.82-.31-1.72-.47-2.7-.47-1.28,0-2.33.37-3.15,1.09-.82.73-1.23,1.72-1.23,2.97,0,1.49.34,2.66,1.01,3.51.67.85,1.94,1.48,3.82,1.9l-.71,6.07c-1.28-.27-2.49-.65-3.64-1.16-1.15-.51-2.16-1.2-3.04-2.08-.88-.88-1.57-1.99-2.08-3.33-.51-1.34-.76-2.99-.76-4.96,0-3.45.85-6.07,2.55-7.86,1.7-1.79,4-2.68,6.92-2.68,1.25,0,2.41.16,3.46.47,1.06.31,2.09.78,3.1,1.41,1.01.62,2.03,1.42,3.06,2.39,1.03.97,2.14,2.12,3.33,3.46.6.71,1.19,1.44,1.79,2.17.6.73,1.28,1.51,2.05,2.34v-12.68l5.45.67v21.39ZM483.11,95.08c-2.62,2.04-6.73,3.06-12.33,3.06-2.8,0-5.22-.27-7.26-.83-2.04-.55-3.73-1.34-5.07-2.37-1.34-1.03-2.33-2.27-2.97-3.73-.64-1.46-.96-3.1-.96-4.91,0-3.69,1.32-6.56,3.95-8.6,2.64-2.04,6.74-3.06,12.31-3.06s9.71,1.04,12.33,3.1c2.62,2.07,3.93,4.98,3.93,8.73s-1.31,6.56-3.93,8.6Z"/>
        <polygon class="cls-1" points="474.31 29.82 474.31 22.31 463.54 22.31 474.31 29.82"/>
      </g>
    </g>
  </g>
</svg>