<svg xmlns="http://www.w3.org/2000/svg" width="173" height="25" fill="none" viewBox="0 0 173 25"><path fill="#151515" d="M57.57 23.41a8.7 8.7 0 0 1-4.82-1.23 5.2 5.2 0 0 1-2.35-3.44l1.85-.31q.39 1.5 1.84 2.39t3.56.89 3.33-.9 1.24-2.43q0-.84-.4-1.38-.36-.55-1.5-1a33 33 0 0 0-3.34-1.06 23 23 0 0 1-3.67-1.25q-1.32-.63-1.86-1.42a3.4 3.4 0 0 1-.53-1.96q0-1.39.8-2.43a5 5 0 0 1 2.21-1.66q1.44-.6 3.32-.6t3.37.63q1.5.6 2.42 1.72.92 1.1 1.07 2.55l-1.85.34a3.7 3.7 0 0 0-1.64-2.56 6 6 0 0 0-3.44-.97 5.5 5.5 0 0 0-3.18.78q-1.24.8-1.24 2.11 0 .75.42 1.28.44.52 1.53.96 1.1.43 3.1.93 2.43.63 3.8 1.28a4.5 4.5 0 0 1 1.93 1.55q.57.88.57 2.17a4.4 4.4 0 0 1-1.75 3.7q-1.73 1.32-4.79 1.32m16.9.03a7.7 7.7 0 0 1-4.27-1.12 7 7 0 0 1-2.64-3.14q-.9-2.03-.92-4.65.03-2.66.94-4.67a7 7 0 0 1 2.65-3.12 7.7 7.7 0 0 1 4.26-1.11q2.45 0 4.3 1.18a6 6 0 0 1 2.6 3.24l-1.75.64a5 5 0 0 0-2.01-2.44 6 6 0 0 0-3.16-.87q-2 0-3.3.92a5.4 5.4 0 0 0-1.94 2.51 10 10 0 0 0-.67 3.72q.05 3.25 1.52 5.2 1.48 1.96 4.39 1.96a5.3 5.3 0 0 0 5.14-3.23l1.78.6a7.4 7.4 0 0 1-2.75 3.27 7.7 7.7 0 0 1-4.17 1.11m15.02 0q-1.95 0-3.25-.69a4.7 4.7 0 0 1-2.57-4.28q0-1.44.6-2.4.6-.97 1.6-1.57 1.02-.6 2.24-.89 1.4-.3 3-.53 1.61-.25 3.06-.4l2.4-.3-.66.39q.06-2.74-1.03-4.07-1.08-1.35-3.82-1.34a5.4 5.4 0 0 0-3.17.88 4.6 4.6 0 0 0-1.73 2.67l-1.85-.52a6 6 0 0 1 2.33-3.53 7.6 7.6 0 0 1 4.49-1.23q2.32 0 3.9.9 1.6.9 2.22 2.55.27.67.36 1.58.1.9.1 1.8v10.51h-1.64v-4.43l.6.15A6.5 6.5 0 0 1 94 22.21a8 8 0 0 1-4.51 1.23m.09-1.65q1.72 0 3.02-.61 1.3-.63 2.09-1.74.81-1.12 1.03-2.64.15-.84.17-1.83l.02-1.45.78.5q-1.02.12-2.44.26-1.41.14-2.87.35t-2.66.51a8 8 0 0 0-1.48.6q-.74.38-1.24 1.04a3 3 0 0 0-.48 1.7q0 .78.37 1.54.4.76 1.28 1.27.9.5 2.41.5m12.5 1.18V0h1.8v22.97zm13.45.47a8 8 0 0 1-4.2-1.08 7.3 7.3 0 0 1-2.73-3.07q-.97-2-.97-4.72 0-2.77.96-4.77a7 7 0 0 1 2.72-3.1 8 8 0 0 1 4.18-1.07q2.46 0 4.2 1.12a7 7 0 0 1 2.65 3.22q.91 2.1.88 5.08h-1.88v-.63q-.07-3.46-1.56-5.28-1.5-1.8-4.25-1.81-2.87 0-4.43 1.9-1.54 1.86-1.54 5.3 0 3.42 1.54 5.29a5.4 5.4 0 0 0 4.4 1.87q1.95 0 3.4-.9a6.4 6.4 0 0 0 2.33-2.63l1.63.72a7.6 7.6 0 0 1-2.94 3.37 8 8 0 0 1-4.4 1.2m-6.66-8.39v-1.63h13.33v1.63zm24.74 8.38q-2.52 0-4.27-1.14a7.3 7.3 0 0 1-2.67-3.16q-.93-2.01-.93-4.64t.94-4.64a7 7 0 0 1 2.69-3.12 8 8 0 0 1 4.23-1.11q2.52 0 4.27 1.14a7 7 0 0 1 2.67 3.12q.93 2 .93 4.61 0 2.67-.93 4.7a7 7 0 0 1-2.68 3.12 7.7 7.7 0 0 1-4.25 1.12m0-1.75q2.98 0 4.45-2a8.5 8.5 0 0 0 1.48-5.19q0-3.25-1.48-5.19-1.5-1.93-4.46-1.93-2.01 0-3.32.92a5.5 5.5 0 0 0-1.97 2.51 10 10 0 0 0-.64 3.7q0 3.24 1.5 5.21t4.44 1.97m17.78 1.67q-1.4 0-2.5-.4a5.8 5.8 0 0 1-3.25-2.9 9 9 0 0 1-.8-2.21q-.25-1.2-.25-2.52V6.1h1.81v8.79q0 1.59.32 2.84.33 1.25.97 2.13.65.87 1.62 1.33.99.45 2.31.45 1.38 0 2.38-.47a4.4 4.4 0 0 0 1.66-1.34q.65-.86.97-2.04t.32-2.57l1.43.17q0 2.74-.94 4.51a6 6 0 0 1-2.5 2.63 7.4 7.4 0 0 1-3.55.84m5.74-.39v-3.8h-.18V6.1h1.82v16.88zm14.95-.01q-1.35.3-2.66.22a6 6 0 0 1-2.34-.58 3.4 3.4 0 0 1-1.53-1.62q-.42-.9-.47-1.8t-.05-2.08V1.41h1.82v15.67l.01 1.77q.03.69.33 1.26.57 1.08 1.78 1.32 1.22.21 3.11-.08zM161.24 7.74V6.09h10.83v1.65zM31.27 21.63a7.8 7.8 0 0 1-5.51-2.28l.96-.95a6.4 6.4 0 0 0 9.1 0 6.4 6.4 0 0 0 0-9.1 6.4 6.4 0 0 0-9.1 0L16.66 19.35a7.77 7.77 0 1 1-5.5-13.3c2.08.01 4.05.84 5.5 2.29l-.96.96a6.4 6.4 0 0 0-9.1 0 6.4 6.4 0 0 0 0 9.1 6.4 6.4 0 0 0 9.1 0L25.76 8.34a7.77 7.77 0 1 1 5.5 13.3"/><path fill="#151515" d="M31.27 25c-2.85 0-5.73-1.1-7.9-3.26l.97-.96a9.8 9.8 0 0 0 13.86 0 9.8 9.8 0 0 0-6.93-16.74 9.7 9.7 0 0 0-6.93 2.87L14.28 16.97a4.42 4.42 0 1 1 0-6.25l-.96.96a3.05 3.05 0 0 0-4.33 0 3.05 3.05 0 0 0 0 4.33 3.05 3.05 0 0 0 4.33 0L23.38 5.95a11 11 0 0 1 7.89-3.26 11 11 0 0 1 7.9 3.26 11 11 0 0 1 3.25 7.9A11.1 11.1 0 0 1 31.27 25"/><path fill="#151515" d="M11.15 25c-2.98 0-5.78-1.15-7.89-3.26A11 11 0 0 1 0 13.84c0-2.98 1.15-5.78 3.26-7.89a11 11 0 0 1 7.9-3.26c2.98 0 5.78 1.15 7.89 3.26l-.96.96a9.8 9.8 0 0 0-13.87 0 9.8 9.8 0 0 0 6.93 16.75 9.7 9.7 0 0 0 6.94-2.88l10.05-10.06a4.42 4.42 0 1 1 0 6.25l.96-.96a3.05 3.05 0 0 0 4.33 0 3.05 3.05 0 0 0 0-4.33 3.05 3.05 0 0 0-4.33 0L19.05 21.74a11 11 0 0 1-7.9 3.26"/></svg>