<svg xmlns="http://www.w3.org/2000/svg" id="Layer_1" viewBox="0 0 560 120"><defs><style>.cls-1{fill:#417da5}</style></defs><path d="M100.74 31.15a35 35 0 0 0-69.59 0A35 35 0 0 0 35 101h30.93a19.54 19.54 0 0 0 0-39.08A11.4 11.4 0 1 1 74 42.43a4.07 4.07 0 1 0 5.77-5.74A19.54 19.54 0 1 0 65.94 70a11.4 11.4 0 1 1 0 22.8H35a26.87 26.87 0 0 1 0-53.74A4.06 4.06 0 0 0 39.06 35a26.87 26.87 0 1 1 53.74 0 4.07 4.07 0 0 0 4.07 4.06 26.87 26.87 0 1 1 0 53.74 4.07 4.07 0 0 0 0 8.14 35 35 0 0 0 3.86-69.8Zm78.85 43.73c-2-.8-3.8-1.4-6.4-2.29-4.69-1.5-9.28-3.2-9.28-7.1s3-5.89 7.59-5.89a17.4 17.4 0 0 1 12 5.1l4-5.9c-3-3.19-7.79-6.19-16.18-6.19s-16 4.8-16 13.58c0 6.79 4.49 9.89 7.49 11.39 2.19 1.2 3.29 1.4 6.49 2.5S180 82.77 180 88s-4.7 6.79-9.09 6.79a19.5 19.5 0 0 1-14-6.79l-4.59 5.59c4 5.19 10.49 8.49 18.48 8.49 5.49 0 9.88-1.5 13.18-4.2a13.5 13.5 0 0 0 4.89-10.78 11.7 11.7 0 0 0-3.79-8.79 18 18 0 0 0-5.49-3.43m34.73-22.27a36.5 36.5 0 0 0-17.78 4.8l2.9 6.39a29 29 0 0 1 14.28-4.1c6.89 0 11.79 3.6 11.79 10.79v1.9l-12.69.5c-11 .49-18.57 5.19-18.57 14.48s7.59 14.68 16.37 14.68S223.81 97 225.71 95l.1 6h9.28V73.38c0-8.09-1.89-12.08-5.09-15.38s-7.79-5.39-15.68-5.39m11.29 35.76c-1.8 2.69-5.9 6.89-12.09 6.89s-9.79-3.7-9.79-8.19 3.1-7.79 10.79-8.19l11.09-.7Zm65.12-35.76c-13.18 0-24.07 9.59-24.07 24.57s9.69 24.87 23.77 24.87 20.27-7 20.87-7.49l-4-5.5a26.2 26.2 0 0 1-15.68 5.5c-8.79 0-14.78-5.69-15.28-15.08h36.56a41 41 0 0 0 .3-4.2c0-13.28-9.29-22.67-22.47-22.67m-14.28 20.48c.3-5.7 4.49-13.59 14-13.59s13.58 8.29 13.68 13.59Zm67.45 1.79c-2-.8-3.8-1.4-6.39-2.29-4.7-1.5-9.29-3.2-9.29-7.1s3-5.89 7.59-5.89a17.4 17.4 0 0 1 12 5.1l4-5.9c-3-3.19-7.79-6.19-16.18-6.19s-16 4.8-16 13.58c0 6.79 4.49 9.89 7.49 11.39 2.2 1.2 3.3 1.4 6.49 2.5s10.69 2.69 10.69 7.89-4.69 6.79-9.09 6.79a19.5 19.5 0 0 1-14-6.79l-4.6 5.59c4 5.19 10.49 8.49 18.48 8.49 5.49 0 9.89-1.5 13.18-4.2a13.5 13.5 0 0 0 4.9-10.78 11.7 11.7 0 0 0-3.8-8.79 18 18 0 0 0-5.47-3.4m40.93-22.27A20.1 20.1 0 0 0 368 61h-.2v-7.49h-9.19V119h9.59V93.46l.1.1c3.39 5.29 8.89 8.49 16.38 8.49 14.08 0 23.07-10.79 23.07-24.87s-8.94-24.57-22.92-24.57m-2 41.25c-9.49 0-15.08-7.29-15.08-16.78s5.59-16.68 15.08-16.68 15.08 7.19 15.08 16.68-5.59 16.78-15.08 16.78m63.77-40.35h9.59v47.44h-9.59zm41.91-.9A16 16 0 0 0 474 61h-.3l.1-7.49h-9.59V101h9.59V77.08c0-9.09 3.3-16.58 12.19-16.58 8.48 0 9.88 6 9.88 14V101h9.59V72.89c.03-11.39-3.46-20.28-16.95-20.28m62 .9.1 7.49h-.3c-2.79-4.39-8.29-8.39-16.58-8.39-12.18 0-22.87 8.79-22.87 23.87s10.69 23.87 22.87 23.87c8 0 13.39-3.69 16.58-8.49h.2v1.87c0 6.5-1.7 11-3.59 13.29s-5.9 5.19-13 5.19-14.48-3.8-17-6l-4.49 6.69a36.4 36.4 0 0 0 21.17 7.09c11.79 0 17.68-4.79 21.18-9.09s5.19-10 5.19-20.47V53.51Zm-14.78 39c-9.69 0-15.08-7.09-15.08-16.08s5.39-16.18 15.08-16.18 15.08 7.19 15.08 16.18-5.29 16.13-15.08 16.13ZM246.35 36.13c-2 2.5-3.2 6.49-3.2 12.69V101h9.49V61.3h11.28v-7.69h-11.28v-5.29c0-5.4 1-10.09 7.29-10.09a18 18 0 0 1 4 .51V31.5a31 31 0 0 0-6.19-.56 14.4 14.4 0 0 0-11.39 5.19M422.86 60.8h-.3l.1-7.29h-9.59V101h9.59V77.28c0-7 2-10.69 2.89-12a10 10 0 0 1 7.79-4 13 13 0 0 1 5.2 1v-9.21a16 16 0 0 0-4-.48c-5.09.02-9.38 2.82-11.68 8.21" class="cls-1"/><circle cx="451.34" cy="37.18" r="6.24" class="cls-1"/></svg>