<svg xmlns="http://www.w3.org/2000/svg" xmlns:xlink="http://www.w3.org/1999/xlink" xml:space="preserve" id="Lager_1" x="0px" y="0px" version="1.1" viewBox="0 0 576 512"><style>.st0{fill:#195f8c}</style><path d="M549.7 124.1a68.6 68.6 0 0 0-48.3-48.6C458.8 64 288 64 288 64S117.2 64 74.6 75.5c-23.5 6.3-42 24.9-48.3 48.6C14.9 167 14.9 256.4 14.9 256.4s0 89.4 11.4 132.3c6.3 23.6 24.8 41.5 48.3 47.8C117.2 448 288 448 288 448s170.8 0 213.4-11.5c23.5-6.3 42-24.2 48.3-47.8 11.4-42.9 11.4-132.3 11.4-132.3s0-89.5-11.4-132.3M232.1 337.6V175.2l142.7 81.2z" class="st0"/></svg>