<svg xmlns="http://www.w3.org/2000/svg" xmlns:svg="http://www.w3.org/2000/svg" xml:space="preserve" id="svg1376" width="117.48682" height="111.11891" version="1.1" viewBox="0 0 117.48682 111.11891"><defs id="defs1380"><clipPath id="clipPath1392" clipPathUnits="userSpaceOnUse"><path id="path1390" d="M0 87.88h94.48V0H0Z"/></clipPath></defs><g id="g1384" transform="matrix(1.33333 0 0 -1.33333 -3.333 114.148)"><g id="g1386"><g id="g1388" clip-path="url(#clipPath1392)"><g id="g1394" transform="translate(57.245 36.642)"><path id="path1396" fill="#9dcd58" fill-opacity="1" fill-rule="nonzero" stroke="none" d="M0 0a10.4 10.4 0 0 1 .47 7.51l-.09.25-.03.08-.05.15-.02.06c-.62 1.98-2.1 3.78-3.8 5.86-2.08 2.55-4.45 5.44-5.67 9.32-1.2 3.79-.91 7.3-.66 10.4.21 2.66.42 5.16-.3 7.47l-.01.01-.02.06-.04.15-.02.08-.08.25q-.07.26-.17.5 0 .04-.03.08-.07.21-.17.42v.02c-.96 2.2-2.62 4-4.78 5.11a10.4 10.4 0 0 1-6.94.97l-.46-.1-.07-.02-.51-.15a10.4 10.4 0 0 1-6.57-6.1 10.4 10.4 0 0 1-.26-7.04l.08-.24.03-.08.02-.05.04-.12.02-.05c.61-1.97 2.08-3.76 3.78-5.84 2.1-2.56 4.46-5.45 5.69-9.34 1.23-3.9.95-7.65.71-10.95-.2-2.67-.36-4.98.25-6.91v-.01l.02-.06.04-.15.03-.09.07-.24.14-.42a10.5 10.5 0 0 1 13-6.41A10.4 10.4 0 0 1 0 0"/></g><g id="g1398" transform="translate(88.664 62.958)"><path id="path1400" fill="#9dcd58" fill-opacity="1" fill-rule="nonzero" stroke="none" d="M0 0a12.43 12.43 0 0 1-22.65-4.3l-.01-.1-.04-.2-.01-.05v-.01c-.54-2.4-.1-5.11.42-8.26.64-3.88 1.35-8.27.3-13.02s-3.57-8.47-5.79-11.73c-1.78-2.63-3.33-4.9-3.84-7.26v-.01l-.02-.07-.05-.18-.03-.1-.06-.3a12.3 12.3 0 0 1 1.65-9.35 12.3 12.3 0 0 1 10.49-5.75 12.3 12.3 0 0 1 8.58 3.47 12.3 12.3 0 0 1 3.51 6.27l.07.3.01.1.04.2v.01l.01.06c.54 2.4.1 5.12-.42 8.28-.64 3.87-1.35 8.25-.3 13 1.02 4.62 3.4 8.07 5.51 11.12 1.8 2.6 3.5 5.06 4.12 7.86v.02l.02.06.05.19.02.1.07.3C2.37-6.12 1.78-2.8 0 0"/></g><g id="g1402" transform="translate(18.82 58.545)"><path id="path1404" fill="#9dcd58" fill-opacity="1" fill-rule="nonzero" stroke="none" d="M0 0a11 11 0 0 1-8.51.74 11 11 0 0 1-6.55-5.5 11 11 0 0 1-.74-8.5c.9-2.85 2.85-5.18 5.5-6.55a11 11 0 0 1 8.51-.74 11 11 0 0 1 6.54 5.5 11 11 0 0 1 .74 8.5A11 11 0 0 1 0 0"/></g></g></g></g></svg>