<svg width="150" height="32" viewBox="0 0 150 32" xmlns="http://www.w3.org/2000/svg">
    <defs>
        <linearGradient x1="30.844%" y1="37.841%" x2="57.158%" y2="58.146%" id="p4d3m8quna">
            <stop stop-color="#0A1250" offset="0%"/>
            <stop stop-color="#753FA7" offset="85%"/>
        </linearGradient>
        <linearGradient x1="18.472%" y1="37.615%" x2="91.753%" y2="69.53%" id="et121oh1kb">
            <stop stop-color="#C2328F" offset="39.583%"/>
            <stop stop-color="#3C102C" offset="100%"/>
        </linearGradient>
    </defs>
    <g fill-rule="nonzero" fill="none">
        <path d="M119.309 11.389c.18.795.58 1.524 1.158 2.102l-4.983 3.599a10.42 10.42 0 0 1-2.379-5.665 10.392 10.392 0 0 1 1.23-6.013 10.415 10.415 0 0 1 4.41-4.276 10.463 10.463 0 0 1 6.062-1.053c-7.523 4.433-5.498 11.306-5.498 11.306z" fill="#C2328F"/>
        <path d="M122.053 31.778a6.113 6.113 0 0 1-2.467-3.676 6.086 6.086 0 0 1 .666-4.369l7.037-11.12a4.319 4.319 0 0 0 .427-3.28 4.336 4.336 0 0 0-2.02-2.626 4.203 4.203 0 0 0-1.112-.43l2.903-5.454c.439.163.867.355 1.28.577a10.472 10.472 0 0 1 4.885 6.348c.72 2.677.346 5.53-1.042 7.928l-9.789 15.88a.582.582 0 0 1-.768.222z" fill="#753FA7"/>
        <path d="M119.778 8.285a4.282 4.282 0 0 0-.465 3.107S117.287 4.52 124.809.085c.921.127 1.822.375 2.678.74l-2.9 5.45a4.331 4.331 0 0 0-2.743.2 4.311 4.311 0 0 0-2.066 1.81z" fill="url(#p4d3m8quna)"/>
        <path d="M121.37 14.185c.997.573 2.18.728 3.29.432a4.33 4.33 0 0 0 2.631-2.01l-5.064 8.106c-1.367-.113-2.382-.399-3.594-1.042a10.101 10.101 0 0 1-3.136-2.594l4.953-3.587c.264.27.594.503.92.695z" fill="url(#et121oh1kb)"/>
        <path d="M.764 31.584V27.53h8.644c.278 0 .52-.058.729-.173.231-.116.405-.278.52-.486a1.22 1.22 0 0 0 .209-.693c0-.277-.07-.52-.209-.727a1.177 1.177 0 0 0-.52-.485 1.282 1.282 0 0 0-.729-.208H6.075c-1.134 0-2.164-.173-3.09-.52a4.896 4.896 0 0 1-2.187-1.733C.266 21.697 0 20.645 0 19.352c0-.993.243-1.894.729-2.703a5.679 5.679 0 0 1 2.014-1.975 5.41 5.41 0 0 1 2.811-.762h8.297v4.054H6.006c-.347 0-.66.115-.938.346-.254.231-.381.532-.381.901 0 .37.127.682.381.936.255.231.567.347.938.347h3.332c1.273 0 2.373.196 3.298.589.926.37 1.643.958 2.153 1.767.509.808.764 1.87.764 3.188a5.387 5.387 0 0 1-.764 2.807 5.886 5.886 0 0 1-2.048 2.01c-.857.485-1.817.727-2.882.727H.764zM27.153 31.584c-2.014 0-3.773-.381-5.277-1.143-1.481-.786-2.638-1.848-3.472-3.188-.81-1.34-1.215-2.842-1.215-4.505 0-1.871.382-3.5 1.146-4.886.764-1.386 1.805-2.46 3.124-3.223 1.32-.762 2.812-1.143 4.479-1.143 1.99 0 3.598.416 4.825 1.247a7.249 7.249 0 0 1 2.742 3.362c.58 1.386.868 2.933.868 4.643 0 .23-.011.508-.034.832-.024.3-.058.53-.105.692H22.258c.185.717.498 1.317.937 1.803.463.485 1.03.854 1.701 1.108.695.231 1.47.347 2.326.347h4.93v4.054h-5zm-4.93-10.5h7.394a6.274 6.274 0 0 0-.243-1.212 3.58 3.58 0 0 0-.486-1.04 3.275 3.275 0 0 0-.728-.762 3.202 3.202 0 0 0-.973-.485 4.071 4.071 0 0 0-1.214-.174c-.58 0-1.1.104-1.563.312-.44.208-.81.485-1.11.832-.301.346-.544.74-.73 1.178a6.84 6.84 0 0 0-.347 1.352zM44.085 32a5.128 5.128 0 0 1-2.846-.832c-.834-.554-1.412-1.282-1.736-2.183l-5.068-15.073h5.172l4.096 13.133a.527.527 0 0 0 .174.208c.07.046.15.069.243.069a.43.43 0 0 0 .243-.07.31.31 0 0 0 .174-.207l4.13-13.133h5.07l-5.07 15.039c-.323.9-.914 1.64-1.77 2.217-.833.555-1.77.832-2.812.832zM63.548 31.584c-2.014 0-3.772-.381-5.277-1.143-1.481-.786-2.638-1.848-3.471-3.188-.81-1.34-1.215-2.842-1.215-4.505 0-1.871.382-3.5 1.145-4.886.764-1.386 1.805-2.46 3.124-3.223 1.32-.762 2.812-1.143 4.479-1.143 1.99 0 3.599.416 4.825 1.247a7.25 7.25 0 0 1 2.743 3.362c.578 1.386.867 2.933.867 4.643 0 .23-.01.508-.034.832-.023.3-.058.53-.104.692H58.653c.185.717.498 1.317.937 1.803.463.485 1.03.854 1.701 1.108.695.231 1.47.347 2.327.347h4.929v4.054h-5zm-4.93-10.5h7.395a6.209 6.209 0 0 0-.243-1.212 3.59 3.59 0 0 0-.486-1.04 3.286 3.286 0 0 0-.73-.762 3.197 3.197 0 0 0-.971-.485 4.07 4.07 0 0 0-1.215-.174c-.579 0-1.1.104-1.562.312-.44.208-.81.485-1.111.832-.301.346-.544.74-.73 1.178a6.84 6.84 0 0 0-.347 1.352zM72.905 31.584V18.936c0-1.571.44-2.795 1.319-3.673.902-.901 2.14-1.351 3.714-1.351h4.895v4.054H78.77c-.3 0-.567.104-.798.312a1.078 1.078 0 0 0-.312.797v12.509h-4.756zM91.388 32c-1.62 0-3.032-.416-4.235-1.248-1.203-.831-2.14-1.94-2.812-3.326-.648-1.41-.972-2.957-.972-4.644 0-1.732.37-3.303 1.11-4.712a8.362 8.362 0 0 1 3.264-3.327c1.412-.831 3.101-1.247 5.068-1.247 1.99 0 3.669.416 5.034 1.247a8.247 8.247 0 0 1 3.125 3.362c.717 1.409 1.076 2.968 1.076 4.677v8.802H97.29v-2.945h-.07a7.152 7.152 0 0 1-1.319 1.698c-.509.508-1.134.912-1.874 1.212-.74.3-1.62.451-2.639.451zm1.354-4.054c.926 0 1.724-.231 2.396-.693a4.357 4.357 0 0 0 1.527-1.872c.37-.808.556-1.698.556-2.668 0-.97-.186-1.836-.556-2.598a4.357 4.357 0 0 0-1.527-1.872c-.672-.462-1.47-.693-2.396-.693-.949 0-1.77.231-2.464.693-.672.462-1.192 1.086-1.563 1.872-.347.762-.52 1.628-.52 2.598s.173 1.86.52 2.668c.37.786.891 1.41 1.563 1.872.694.462 1.515.693 2.464.693zM105.507 31.584V6.288h4.756v25.296z" fill="#0A1250"/>
        <path d="M134.544 31.584V27.53h8.645c.277 0 .52-.058.728-.173.232-.116.406-.278.521-.485a1.22 1.22 0 0 0 .209-.693c0-.277-.07-.52-.209-.728a1.177 1.177 0 0 0-.52-.485 1.282 1.282 0 0 0-.73-.208h-3.332c-1.134 0-2.164-.173-3.09-.52a4.895 4.895 0 0 1-2.187-1.732c-.532-.809-.799-1.86-.799-3.154 0-.993.243-1.894.73-2.702a5.684 5.684 0 0 1 2.013-1.976 5.41 5.41 0 0 1 2.812-.762h8.297v4.054h-7.845c-.348 0-.66.116-.938.347-.254.23-.382.531-.382.9 0 .37.128.682.382.936.255.231.567.347.938.347h3.332c1.273 0 2.372.196 3.298.589.926.37 1.643.959 2.153 1.767.509.809.763 1.871.763 3.188a5.383 5.383 0 0 1-.763 2.807 5.88 5.88 0 0 1-2.049 2.01c-.856.485-1.817.727-2.881.727h-9.096z" fill="#753FA7"/>
    </g>
</svg>
