<svg xmlns="http://www.w3.org/2000/svg" xmlns:xlink="http://www.w3.org/1999/xlink" width="1820" height="1152" viewBox="0 0 1820 1152">
  <defs>
    <radialGradient id="radial-gradient" cx="0.5" cy="0.5" r="0.5" gradientUnits="objectBoundingBox">
      <stop offset="0" stop-color="#fff"/>
      <stop offset="1" stop-color="#e7eff3"/>
    </radialGradient>
    <clipPath id="clip-FR2000_2024">
      <rect width="1820" height="1152"/>
    </clipPath>
  </defs>
  <g id="FR2000_2024" data-name="FR2000 2024" clip-path="url(#clip-FR2000_2024)">
    <rect width="1820" height="1152" fill="url(#radial-gradient)"/>
    <g id="c" transform="translate(417 335)">
      <path id="Path_6291" data-name="Path 6291" d="M49,404.267c2.653-3.408,5.015-7.108,8.033-10.151q84.058-84.459,168.334-168.773c16.7-16.7,24.368-36.247,18.817-59.617-5.721-24.2-21.4-39.315-45.108-46.3-2.653-.779-5.356-1.436-8.155-2.191V55.4c39.242,1.753,69.135,19.5,93.892,49.587,26.291-31.5,58.741-49.782,100.611-49.782,41.992,0,74.685,17.819,100.708,49.685C541.369,36,638.864,40.87,689.206,106.134c1.972-2.824,3.505-5.623,5.6-7.936,36.734-40.386,82.378-53.239,133.5-36.685,51.462,16.651,79.651,54.651,85.08,108.912.17,1.728,1.461,3.335,2.24,5.015v9.737c-.852,2.9-2.142,5.745-2.483,8.691-10.3,85.153-100.343,134.911-177.634,98.055-18.6-8.861-33.789-22.055-46.91-38.779-26.266,32.717-59.349,50.732-100.952,50.8-41.651.073-74.661-18.306-100.757-50.074-51.243,64.437-145.573,69.184-200.3,2.653-28.409,27.557-56.988,55.308-87.417,84.837h110.3v62.879H49ZM525.911,179.7a61.81,61.81,0,0,0,61.93,61.662c33.667-.17,62.441-29.188,61.735-62.246-.73-34.105-28.7-61.808-62.343-61.735-33.813.073-61.467,28.19-61.321,62.343Zm-201.831-.1c.024,34.032,28.044,62.027,61.783,61.735,33.472-.292,61.224-27.751,61.589-60.98.39-34.446-27.776-63.049-62.027-63.025-33.618.024-61.37,28.214-61.345,62.27Zm526.62,1.461c.609-34.981-26.51-63.366-60.883-63.731-33.107-.341-61.54,27.338-61.978,60.347-.463,35.1,26.461,63.22,61,63.658C822.194,241.775,850.116,214.584,850.7,181.063Z" transform="translate(70.282 78.145)" fill="#afcb0a"/>
      <path id="Path_6292" data-name="Path 6292" d="M155.6.17c50.2,8.983,90.655,60.4,92.894,113.2.073,2-.146,3.992-.292,6.938H186.714c-2.24-23.126-12-42.357-33.3-53.945A59.022,59.022,0,0,0,111.1,60.347c-30.648,6.889-53.555,36.588-47.275,72.787h66.555v61.93H62.928V365.54H0V95.329s3.6-6.013,4.65-9.275C18.988,41.359,48.443,12.415,93.917,0" fill="#6b6e73"/>
      <path id="Path_6293" data-name="Path 6293" d="M171,55.226v60.493c-2.288.828-4.8,1.9-7.4,2.6-29.407,7.936-47.762,31.622-47.908,62.441-.17,31.233-.024,62.441-.024,93.673v12.245H55.686c-.779-1.315-1.534-1.972-1.534-2.629,0-40.118-1.534-80.333.536-120.354,2.751-53.239,51.1-102.242,103.849-108.4,3.895-.463,7.887-.049,12.488-.049Z" transform="translate(76.888 79.003)" fill="#6b6e73"/>
      <path id="Path_6294" data-name="Path 6294" d="M167.334,185.6a13.459,13.459,0,0,1,5.185-5.258,14.965,14.965,0,0,1,7.546-1.874,14.421,14.421,0,0,1,8.861,2.726,13.122,13.122,0,0,1,4.917,7.449h-7.79a6.379,6.379,0,0,0-2.459-2.775,6.953,6.953,0,0,0-3.627-.949,6.8,6.8,0,0,0-5.307,2.264,8.754,8.754,0,0,0-2.021,6.086,8.871,8.871,0,0,0,2.021,6.086,6.815,6.815,0,0,0,5.307,2.288,6.953,6.953,0,0,0,3.627-.949,6.232,6.232,0,0,0,2.459-2.775h7.79a12.983,12.983,0,0,1-4.917,7.425,14.564,14.564,0,0,1-8.861,2.7,15.153,15.153,0,0,1-7.546-1.874,13.4,13.4,0,0,1-5.185-5.234,15.556,15.556,0,0,1-1.874-7.668A15.3,15.3,0,0,1,167.334,185.6Z" transform="translate(237.325 255.986)" fill="#707070"/>
      <path id="Path_6295" data-name="Path 6295" d="M186.2,184.282v5.867h9.47V195.6H186.2v6.378h10.711v5.672H179.12V178.61h17.795v5.672H186.2Z" transform="translate(256.918 256.187)" fill="#707070"/>
      <path id="Path_6296" data-name="Path 6296" d="M203.6,207.652,197.558,196.7h-1.7v10.954H188.77V178.61h11.88a13.138,13.138,0,0,1,5.867,1.193,8.387,8.387,0,0,1,3.627,3.286,9.123,9.123,0,0,1,1.193,4.65,8.57,8.57,0,0,1-1.631,5.161,8.887,8.887,0,0,1-4.82,3.238l6.694,11.514H203.6Zm-7.717-15.969h4.382a4.057,4.057,0,0,0,2.921-.949,3.55,3.55,0,0,0,.974-2.678,3.38,3.38,0,0,0-.974-2.6,4.057,4.057,0,0,0-2.921-.949h-4.382v7.206Z" transform="translate(270.76 256.187)" fill="#707070"/>
      <path id="Path_6297" data-name="Path 6297" d="M221.8,178.61v5.672h-7.693v23.394h-7.084V184.282H199.33V178.61H221.8Z" transform="translate(285.906 256.187)" fill="#707070"/>
      <path id="Path_6298" data-name="Path 6298" d="M217.174,178.61v29.042H210.09V178.61h7.084Z" transform="translate(301.34 256.187)" fill="#707070"/>
      <path id="Path_6299" data-name="Path 6299" d="M234.485,178.61v5.672H222.654v6.135h8.861v5.5h-8.861v11.758H215.57V178.634h18.915Z" transform="translate(309.2 256.187)" fill="#707070"/>
      <path id="Path_6300" data-name="Path 6300" d="M232.064,178.61v29.042H224.98V178.61h7.084Z" transform="translate(322.697 256.187)" fill="#707070"/>
      <path id="Path_6301" data-name="Path 6301" d="M237.544,184.282v5.867h9.47V195.6h-9.47v6.378h10.711v5.672H230.46V178.61h17.795v5.672H237.544Z" transform="translate(330.557 256.187)" fill="#707070"/>
      <path id="Path_6302" data-name="Path 6302" d="M254.935,207.652,248.9,196.7h-1.7v10.954H240.11V178.61h11.88a13.138,13.138,0,0,1,5.867,1.193,8.387,8.387,0,0,1,3.627,3.286,9.123,9.123,0,0,1,1.193,4.65,8.57,8.57,0,0,1-1.631,5.161,8.886,8.886,0,0,1-4.82,3.238l6.694,11.514h-7.985Zm-7.717-15.969H251.6a4.057,4.057,0,0,0,2.921-.949,3.55,3.55,0,0,0,.974-2.678,3.38,3.38,0,0,0-.974-2.6,4.057,4.057,0,0,0-2.921-.949h-4.382v7.206Z" transform="translate(344.398 256.187)" fill="#707070"/>
      <path id="Path_6303" data-name="Path 6303" d="M270.722,202.515H259.889l-1.728,5.136h-7.4l10.516-29.042h8.2L280,207.652h-7.5l-1.728-5.136Zm-1.826-5.453-3.6-10.638-3.554,10.638H268.9Z" transform="translate(359.674 256.187)" fill="#707070"/>
      <path id="Path_6304" data-name="Path 6304" d="M283.125,180.421a12.945,12.945,0,0,1,5.307,5.112,14.9,14.9,0,0,1,1.874,7.6,15.116,15.116,0,0,1-1.874,7.571,13.059,13.059,0,0,1-5.331,5.136,16.9,16.9,0,0,1-8.009,1.826H264.21V178.62h10.881a16.862,16.862,0,0,1,8.033,1.826Zm-2.24,18.89a8.321,8.321,0,0,0,2.24-6.208,7.773,7.773,0,0,0-8.5-8.5H271.27V201.5h3.359A8.554,8.554,0,0,0,280.885,199.312Z" transform="translate(378.966 256.201)" fill="#707070"/>
      <path id="Path_6305" data-name="Path 6305" d="M309.236,178.61l-10.3,29.042h-8.861l-10.3-29.042H287.3l7.206,21.933,7.23-21.933h7.5Z" transform="translate(401.299 256.187)" fill="#707070"/>
      <path id="Path_6306" data-name="Path 6306" d="M300.354,184.282v5.867h9.47V195.6h-9.47v6.378h10.711v5.672H293.27V178.61h17.795v5.672H300.354Z" transform="translate(420.648 256.187)" fill="#707070"/>
      <path id="Path_6307" data-name="Path 6307" d="M317.755,207.652,311.718,196.7h-1.7v10.954H302.93V178.61h11.88a13.138,13.138,0,0,1,5.867,1.193,8.387,8.387,0,0,1,3.627,3.286,9.123,9.123,0,0,1,1.193,4.65,8.569,8.569,0,0,1-1.631,5.161,8.886,8.886,0,0,1-4.82,3.238l6.694,11.514h-7.985Zm-7.741-15.969H314.4a4.057,4.057,0,0,0,2.921-.949,3.55,3.55,0,0,0,.974-2.678,3.379,3.379,0,0,0-.974-2.6,4.057,4.057,0,0,0-2.921-.949h-4.382v7.206Z" transform="translate(434.504 256.187)" fill="#707070"/>
      <path id="Path_6308" data-name="Path 6308" d="M331.136,207.652l-9.762-12.829v12.829H314.29V178.61h7.084v12.756l9.689-12.756h8.325l-11.247,14.241,11.66,14.825H331.16Z" transform="translate(450.798 256.187)" fill="#707070"/>
      <path id="Path_6309" data-name="Path 6309" d="M330.993,207.151a9.3,9.3,0,0,1-4.041-3.067,8.33,8.33,0,0,1-1.582-4.893h7.522a3.7,3.7,0,0,0,1.12,2.459,3.615,3.615,0,0,0,2.483.852,3.913,3.913,0,0,0,2.483-.73,2.4,2.4,0,0,0,.9-2,2.368,2.368,0,0,0-.73-1.777,6.256,6.256,0,0,0-1.777-1.168,22.988,22.988,0,0,0-2.994-1.022,36.8,36.8,0,0,1-4.6-1.728,8.557,8.557,0,0,1-3.067-2.556,7.147,7.147,0,0,1-1.29-4.431,7.593,7.593,0,0,1,2.946-6.354,12.054,12.054,0,0,1,7.644-2.288,12.3,12.3,0,0,1,7.741,2.288,8.268,8.268,0,0,1,3.14,6.4h-7.668a2.987,2.987,0,0,0-1.022-2.215,3.624,3.624,0,0,0-2.434-.8,3.032,3.032,0,0,0-2.069.682,2.644,2.644,0,0,0,.536,4.163,20.885,20.885,0,0,0,4.138,1.7,37.052,37.052,0,0,1,4.577,1.826,8.618,8.618,0,0,1,3.043,2.532,6.776,6.776,0,0,1,1.29,4.26,8.051,8.051,0,0,1-1.266,4.5,8.951,8.951,0,0,1-3.651,3.238,12.492,12.492,0,0,1-5.672,1.193,14.9,14.9,0,0,1-5.721-1.022Z" transform="translate(466.69 255.957)" fill="#707070"/>
      <path id="Path_6310" data-name="Path 6310" d="M355.182,202.515H344.349l-1.728,5.136h-7.4l10.516-29.042h8.2l10.516,29.042h-7.5l-1.728-5.136Zm-1.826-5.453-3.6-10.638L346.2,197.062Z" transform="translate(480.818 256.187)" fill="#707070"/>
      <path id="Path_6311" data-name="Path 6311" d="M381.577,178.61v29.042h-7.084v-17.43l-6.5,17.43h-5.721L355.724,190.2v17.454H348.64V178.61h8.35l8.155,20.108,8.082-20.108h8.325Z" transform="translate(500.067 256.187)" fill="#707070"/>
      <path id="Path_6312" data-name="Path 6312" d="M389.9,178.61v29.042h-7.084V195.7h-11v11.953H364.73V178.61h7.084v11.368h11V178.61H389.9Z" transform="translate(523.146 256.187)" fill="#707070"/>
      <path id="Path_6313" data-name="Path 6313" d="M384.7,184.282v5.867h9.47V195.6H384.7v6.378h10.711v5.672H377.62V178.61h17.795v5.672H384.7Z" transform="translate(541.634 256.187)" fill="#707070"/>
      <path id="Path_6314" data-name="Path 6314" d="M408.809,178.61v5.672h-7.693v23.394h-7.084V184.282H386.34V178.61Z" transform="translate(554.142 256.187)" fill="#707070"/>
    </g>
  </g>
</svg>
