<svg xmlns="http://www.w3.org/2000/svg" xmlns:xlink="http://www.w3.org/1999/xlink" width="600" height="300" viewBox="0 0 600 300">
  <defs>
    <clipPath id="clip-Custom_Size_1">
      <rect width="600" height="300"/>
    </clipPath>
  </defs>
  <g id="Custom_Size_1" data-name="Custom Size – 1" clip-path="url(#clip-Custom_Size_1)">
    <rect width="600" height="300" fill="#e8eff3"/>
    <g id="c" transform="translate(176 50.005)">
      <g id="Group_21" data-name="Group 21" transform="translate(0 -0.005)">
        <g id="Group_19" data-name="Group 19" transform="translate(0 126.524)">
          <path id="Path_91" data-name="Path 91" d="M6.37,63.6c0-7.781,5.265-12.345,12.164-12.345a17.589,17.589,0,0,1,5.5.83L25.2,51.05h.545L26,58.831h-.752c-1.764-4.746-4.279-6.095-6.925-6.095-4.124,0-8.118,3.086-8.118,10.53,0,5.809,2.9,11.1,8.948,11.1,1.738,0,3.631-.493,3.631-1.063,0-1.219.026-4.435-.078-7.184l-.13-.13L19.1,65.807V64.614h9.933v1.193l-2.568.182-.13.13c-.078,2.256-.1,4.824-.078,7.547-.415.882-3.838,2.256-7.417,2.256C11.609,75.922,6.4,71.409,6.4,63.577Z" transform="translate(10.151 -45.163)" fill="#1d1d1b"/>
          <path id="Path_92" data-name="Path 92" d="M16.6,67.583c0-8.066,4.928-12.708,11.2-12.708,7.054,0,11.152,4.98,11.152,11.982,0,8.066-4.928,12.708-11.2,12.708-7.054,0-11.126-4.954-11.126-11.982Zm18.518-.363c0-7.158-2.8-10.737-7.314-10.737s-7.366,3.579-7.366,10.737,2.8,10.737,7.314,10.737,7.391-3.579,7.391-10.737ZM22.565,50.8a1.865,1.865,0,0,1,1.919-2.023,1.736,1.736,0,0,1,1.841,1.867,1.914,1.914,0,0,1-1.945,2.023A1.743,1.743,0,0,1,22.565,50.8Zm6.639,0a1.865,1.865,0,0,1,1.919-2.023,1.736,1.736,0,0,1,1.841,1.867A1.914,1.914,0,0,1,31.02,52.67,1.743,1.743,0,0,1,29.2,50.8Z" transform="translate(26.452 -48.78)" fill="#1d1d1b"/>
          <path id="Path_93" data-name="Path 93" d="M30.641,74.408l3.787-.182.13-.156c.026-1.323.1-5.887.1-10.685s0-8.74-.1-9.959l-.1-.182H30.227c-.752,0-1.634,1.271-3.086,5.576h-.7l.285-7.781h.648l1.037.6H44.335l1.037-.6h.648l.285,7.781h-.7c-1.478-4.331-2.334-5.576-3.086-5.576H38.292l-.1.182c-.026.856-.1,5.654-.1,10.426s.078,8.948.1,10.218l.13.156,3.89.182v1.219H30.642V74.408Z" transform="translate(42.132 -45.179)" fill="#1d1d1b"/>
          <path id="Path_94" data-name="Path 94" d="M35.74,74.408l3.475-.182.13-.156c.026-1.634.1-5.887.1-10.685s-.078-8.792-.1-10.218l-.13-.13-3.475-.182V51.637H51.327l1.375-.6h.545l.259,7.781h-.7c-1.271-3.579-2.412-5.369-3.008-5.395l-6.717-.363-.1.182c-.026,1.634-.1,5.394-.1,9.363,1.608,0,5.083-.1,5.991-.182l.156-.13,1.271-2.49h.674c-.026.986-.078,2.516-.078,3.475s.026,2.9.078,3.968H50.29l-1.271-2.957-.156-.13c-1.089-.026-4.253-.1-5.991-.1,0,4.513.078,8.118.1,9.933l.1.182,7.236-.389c.6-.052,2.2-1.5,3.475-5.68h.8c-.467,6.925-.571,7.5-1.167,7.5H35.766V74.382Z" transform="translate(56.952 -45.179)" fill="#1d1d1b"/>
          <path id="Path_95" data-name="Path 95" d="M44.64,74.089l3.475-.182.13-.156c.026-1.245.1-5.887.1-10.685s-.078-8.662-.1-10.218l-.13-.13-3.475-.182V51.318c2.619,0,5.654-.078,7.729-.078a21.263,21.263,0,0,1,6.173.7c2.8.882,4.513,2.7,4.513,5.291a5.4,5.4,0,0,1-4.331,5.42v.078c3.761.182,5.991,2.386,5.991,5.265,0,4.824-4.331,7.34-11.2,7.34-2.308,0-6.043-.078-8.87-.078V74.037Zm9.337-11.852c4.176,0,5.265-2,5.265-4.72a4.189,4.189,0,0,0-2.127-4.046,8.929,8.929,0,0,0-4.2-.778c-.182,0-.571,0-.908.026l-.156.182c-.026,1.841-.13,5.317-.1,9.337h2.23Zm6.925,6.25c0-3.372-2.308-4.694-5.42-4.694H51.746c-.026,4.513.078,8.092.1,9.959l.182.156c.674.026,1.323.026,1.738.026,4.8,0,7.132-2,7.132-5.472Z" transform="translate(71.134 -44.86)" fill="#1d1d1b"/>
          <path id="Path_96" data-name="Path 96" d="M54.316,63.838c0-8.066,4.928-12.708,11.2-12.708,7.054,0,11.126,4.98,11.126,11.982,0,8.066-4.928,12.708-11.2,12.708-7.054,0-11.152-4.954-11.152-11.982Zm18.518-.363c0-7.158-2.8-10.737-7.314-10.737s-7.391,3.579-7.391,10.737,2.8,10.737,7.314,10.737,7.366-3.579,7.366-10.737Z" transform="translate(86.512 -45.035)" fill="#1d1d1b"/>
          <path id="Path_97" data-name="Path 97" d="M64.322,74.089l3.553-.182.156-.156c.026-1.037.1-5.887.1-10.685s-.078-8.61-.1-10.218l-.156-.13-3.553-.182V51.318c3.19,0,6.588-.078,8.4-.078a19.992,19.992,0,0,1,5.732.571c3.4,1.037,4.9,3.216,4.9,5.654,0,3.5-2.386,5.187-5.291,6.095v.078a67.674,67.674,0,0,1,4.565,7.6c.882,1.556,1.738,2.723,2.9,2.8h.778v1.245H81l-.13-.13c-1.323-2.671-2.23-4.824-4.461-8.792a12.938,12.938,0,0,0-1.426-2.1,25.392,25.392,0,0,1-3.527.259c-.026,4.227.078,8.2.1,9.259l.13.156,3.268.182v1.219H64.27V74.115ZM79.546,57.516a4.287,4.287,0,0,0-2.438-4.15,9.463,9.463,0,0,0-4.227-.674H71.713l-.1.1c-.026,1.53-.078,6.173-.1,10.322,6.173-.182,8.066-2.153,8.066-5.6Z" transform="translate(102.415 -44.86)" fill="#1d1d1b"/>
          <path id="Path_98" data-name="Path 98" d="M73.81,63.6c0-7.781,5.265-12.345,12.164-12.345a17.589,17.589,0,0,1,5.5.83l1.167-1.037h.545l.259,7.781h-.752c-1.764-4.746-4.279-6.095-6.925-6.095-4.124,0-8.118,3.086-8.118,10.53,0,5.809,2.9,11.1,8.948,11.1,1.738,0,3.6-.493,3.6-1.063,0-1.219.026-4.435-.078-7.184l-.13-.13-3.475-.182V64.614h9.933v1.193l-2.568.182-.13.13c-.078,2.256-.1,4.824-.078,7.547-.415.882-3.838,2.256-7.417,2.256-7.236,0-12.449-4.513-12.449-12.345Z" transform="translate(117.617 -45.163)" fill="#1d1d1b"/>
          <path id="Path_99" data-name="Path 99" d="M83.97,68.131h.83c1.245,4.513,3.268,6.38,5.732,6.38A4.422,4.422,0,0,0,95.278,70c0-6.173-10.893-4.616-10.893-12.423,0-3.294,2.594-6.328,7.106-6.328a14.5,14.5,0,0,1,4.539.83l1.063-1.037h.674l.207,7.781h-.752c-1.478-4.331-3.449-6.095-5.861-6.095a3.662,3.662,0,0,0-3.89,3.735c0,5.939,11.074,5.005,11.074,12.5,0,3.579-2.7,7.028-8.221,7.028a8.879,8.879,0,0,1-4.9-1.375l-.7,1.375H83.97V68.157Z" transform="translate(133.807 -45.179)" fill="#1d1d1b"/>
          <path id="Path_100" data-name="Path 100" d="M3.579,82.805c0-1.349.026-2.153.026-5.68,0-2.8-.026-5.031-.078-8.221l-.13-.13L0,68.593V67.4H10.141v1.193l-2.879.182-.156.13c-.026,2.671-.078,8.4-.078,13.772,0,4.461,1.037,7.5,5.732,7.5s6.354-2.879,6.354-8.17c0-4.616-.078-9.622-.13-13.1l-.13-.13-3.268-.182V67.4H25v1.193l-3.475.182-.13.13c-.1,3.787-.1,9-.078,13.408.026,6.095-2.853,9.363-8.792,9.363s-8.948-3.008-8.948-8.87Z" transform="translate(0 -19.109)" fill="#1d1d1b"/>
          <path id="Path_101" data-name="Path 101" d="M10.87,90.1l3.475-.182.13-.13c.1-3.787.1-6.588.1-10.141s0-5.5-.1-10.737l-.13-.13L10.87,68.6V67.41h6.769C21.97,73.479,26.9,80.559,30.451,85.642h.078c-.078-6.795-.13-13.227-.207-16.7l-.13-.13-3.268-.182V67.436h9.388v1.193l-3.475.182-.13.13c-.1,3.787-.1,6.588-.1,15.509v7.106H30.866c-4.409-6.25-9.648-13.59-14.109-19.97h-.078c.026,8.3.13,14.731.207,18.258l.13.13,3.268.182v1.193H10.87V90.155Z" transform="translate(17.321 -19.093)" fill="#1d1d1b"/>
          <path id="Path_102" data-name="Path 102" d="M22.33,90.119l3.475-.182.13-.13c.078-1.089.1-5.887.1-10.685s-.026-9-.1-10.218l-.13-.13-3.475-.182V67.4H33.119v1.193l-3.449.182-.13.13c-.078.96-.1,5.887-.1,10.685s.078,9.025.1,10.218l.13.13,3.449.182v1.193H22.33Z" transform="translate(35.583 -19.109)" fill="#1d1d1b"/>
          <path id="Path_103" data-name="Path 103" d="M29.777,68.7l-2.127-.1V67.4h9.285v1.193l-3.164.13-.156.13c2,5.135,4.331,11.36,6.665,17.351h.078C42.1,81.379,45.1,72.795,46.271,68.826l-.1-.1-2.879-.13V67.4h7.832v1.193l-2.049.1c-1.841,4.694-6.095,15.717-8.9,23h-.96c-3.657-8.87-6.821-16.6-9.466-23Z" transform="translate(44.06 -19.109)" fill="#1d1d1b"/>
          <path id="Path_104" data-name="Path 104" d="M37.74,90.486l3.475-.182.13-.13c.026-1.634.1-5.887.1-10.685s-.078-8.792-.1-10.218l-.13-.13L37.74,68.96V67.767H53.327l1.375-.6h.545l.259,7.781h-.7c-1.271-3.579-2.412-5.369-3.008-5.395l-6.717-.363-.1.182c-.026,1.634-.1,5.395-.1,9.363,1.608,0,5.057-.1,5.991-.182l.156-.13,1.271-2.49h.674c-.026.986-.078,2.516-.078,3.475s.026,2.9.078,3.968H52.29l-1.271-2.931-.156-.13c-1.089-.052-4.253-.1-5.991-.1,0,4.513.078,8.118.1,9.933l.1.182,7.236-.389c.6-.026,2.2-1.478,3.475-5.68h.8c-.467,6.925-.571,7.5-1.167,7.5H37.766V90.563Z" transform="translate(60.139 -19.475)" fill="#1d1d1b"/>
          <path id="Path_105" data-name="Path 105" d="M46.65,90.167l3.553-.182.13-.13c.026-1.037.1-5.887.1-10.685s-.078-8.636-.1-10.218l-.13-.13-3.553-.182V67.448c3.19,0,6.588-.078,8.4-.078a20.323,20.323,0,0,1,5.758.571c3.4,1.037,4.9,3.242,4.9,5.654,0,3.5-2.386,5.187-5.291,6.095v.078a70.8,70.8,0,0,1,4.591,7.6c.882,1.556,1.738,2.723,2.9,2.8h.778v1.245H63.378l-.13-.13c-1.323-2.671-2.23-4.824-4.461-8.792a12.939,12.939,0,0,0-1.426-2.1,25.1,25.1,0,0,1-3.527.233c-.026,4.227.078,8.2.1,9.259l.13.13,3.268.182v1.193H46.65V90.193ZM61.874,73.594a4.287,4.287,0,0,0-2.438-4.15,9.463,9.463,0,0,0-4.227-.674H54.042l-.1.1c-.026,1.53-.078,6.173-.1,10.322,6.173-.182,8.066-2.179,8.066-5.6Z" transform="translate(74.337 -19.157)" fill="#1d1d1b"/>
          <path id="Path_106" data-name="Path 106" d="M56.666,84.257h.83c1.245,4.513,3.268,6.38,5.732,6.38a4.422,4.422,0,0,0,4.746-4.513c0-6.173-10.893-4.616-10.893-12.423,0-3.294,2.594-6.328,7.106-6.328a14.8,14.8,0,0,1,4.539.8l1.063-1.037h.674l.207,7.781h-.752c-1.478-4.331-3.449-6.095-5.861-6.095a3.662,3.662,0,0,0-3.89,3.735c0,5.939,11.074,5.005,11.074,12.5,0,3.579-2.7,7.028-8.221,7.028a9.1,9.1,0,0,1-4.9-1.375l-.726,1.375H56.64V84.257Z" transform="translate(90.256 -19.523)" fill="#1d1d1b"/>
          <path id="Path_107" data-name="Path 107" d="M64.25,90.119l3.475-.182.13-.13c.078-1.089.1-5.887.1-10.685s-.026-9-.1-10.218l-.13-.13-3.475-.182V67.4H75.039v1.193l-3.449.182-.156.13c-.078.96-.1,5.887-.1,10.685s.078,9.025.1,10.218l.156.13,3.449.182v1.193H64.25Z" transform="translate(102.383 -19.109)" fill="#1d1d1b"/>
          <path id="Path_108" data-name="Path 108" d="M74.236,90.518l3.787-.182.156-.13c.026-1.323.1-5.887.1-10.685s0-8.74-.1-9.985l-.1-.182H73.847c-.752,0-1.634,1.271-3.086,5.576h-.7l.285-7.781h.648l1.037.6H87.955l1.011-.6h.648l.285,7.781h-.7c-1.478-4.331-2.334-5.576-3.086-5.576H81.886l-.1.182c-.026.856-.1,5.654-.1,10.426s.078,8.948.1,10.218l.13.13,3.89.182v1.193H74.236V90.492Z" transform="translate(111.641 -19.507)" fill="#1d1d1b"/>
          <path id="Path_109" data-name="Path 109" d="M79.34,90.486l3.475-.182.13-.13c.026-1.634.1-5.887.1-10.685s-.078-8.792-.1-10.218l-.13-.13L79.34,68.96V67.767H94.927l1.375-.6h.545l.259,7.781h-.7c-1.271-3.579-2.412-5.369-3.008-5.395l-6.717-.363-.1.182c-.026,1.634-.1,5.395-.1,9.363,1.608,0,5.083-.1,5.991-.182l.13-.13,1.271-2.49h.674c-.026.986-.078,2.516-.078,3.475s.026,2.9.078,3.968h-.674l-1.271-2.931-.13-.13c-1.089-.052-4.253-.1-5.991-.1,0,4.513.078,8.118.1,9.933l.1.182,7.236-.389c.6-.026,2.2-1.478,3.475-5.68h.8c-.467,6.925-.571,7.5-1.167,7.5H79.366V90.563Z" transform="translate(126.429 -19.475)" fill="#1d1d1b"/>
          <path id="Path_110" data-name="Path 110" d="M92.441,90.518l3.787-.182.13-.13c.026-1.323.1-5.887.1-10.685s0-8.74-.1-9.985l-.1-.182H92.027c-.752,0-1.634,1.271-3.086,5.576h-.7l.285-7.781h.648l1.037.6h15.924l1.037-.6h.648l.285,7.781h-.7c-1.478-4.331-2.334-5.576-3.086-5.576h-4.227l-.1.182c-.026.856-.1,5.654-.1,10.426s.078,8.948.1,10.218l.156.13,3.89.182v1.193H92.467V90.492Z" transform="translate(140.611 -19.507)" fill="#1d1d1b"/>
        </g>
        <g id="Group_20" data-name="Group 20" transform="translate(69.467)">
          <path id="Path_111" data-name="Path 111" d="M44.787,16.752A40.538,40.538,0,1,0,73.7,5.5,40.362,40.362,0,0,0,44.787,16.752ZM72.019,83.483a37.464,37.464,0,1,1,26.713-10.4A37.509,37.509,0,0,1,72.019,83.483Z" transform="translate(-18.035 8.755)" fill="#0064a7"/>
          <path id="Path_112" data-name="Path 112" d="M43.682,15.232A54.759,54.759,0,1,0,136.3,55.95h0A54.736,54.736,0,0,0,43.708,15.206Zm36.75,91.836a52.278,52.278,0,1,1,53.4-51.144h0a52.338,52.338,0,0,1-53.4,51.144Z" transform="translate(-26.785 0.005)" fill="#0064a7"/>
          <path id="Path_113" data-name="Path 113" d="M77.512,51.939c-20.333,3.657-36.62-4.253-39.6-14.031-1.919-6.3.882-7.677,1.323-12.241-3.527,1.867-4.176-3.008-1.063-3.423,3.294-.441,4.772,3.008,3.164,7.6-2.308,6.613,1.738,9.674,2.879,9.337a8.645,8.645,0,0,1,.648-1.556c-2.775-3.527-1.608-8.688,3.112-9.1,1.919-.182,1.738,1.219.389,1.426-3.631.519-3.449,4.565-1.945,5.083a1.151,1.151,0,0,0,.83-.337c-.052-.83.519-2,1.452-1.764,2.075.519,1.3,3.19-.156,3.4-.545,1.634-1.556,3.916-1.349,5.109.207,1.167,1.037,1.426,1.738.726.519-.493.752-1.712,1.063-3.034-.337-1.5.389-2.619,1.66-2.1.882.363.96,1.712.1,2.775-.1,1.271-.674,2.723-.545,3.709s1.478.908,1.945.389c.493-.545.986-4.02,1.167-4.772A1.745,1.745,0,0,1,55.415,36.3c1.815-.156,1.4,2.334.882,2.957.519,1.945-.311,4.124.052,4.98a1.577,1.577,0,0,0,2.438.363c.648-.7-.156-2.2.182-3.942-.622-1.5.1-2.7.986-2.775,2.023-.156,1.452,1.66,1.089,2.957a16.606,16.606,0,0,0,.778,4.1,1.1,1.1,0,0,0,2.023-.052c.285-.622-.337-2.412-.493-3.683-.882-2.049-.13-2.619.648-2.671.752-.052,1.764.363,1.634,2.386A31.6,31.6,0,0,0,66.9,44.988a.822.822,0,0,0,1.608.052c.311-.882-.285-1.945-.934-3.372-1.452-1.426-.13-2.516.7-2.568.83-.078,2.127.156,1.841,2.36.441,1.349.752,2.568,1.037,3.268a1.261,1.261,0,0,0,1.971.389c.493-.545-.441-1.478-.7-2.645-1.089-1.063-.908-2.516.363-2.619.648-.052,1.893,0,1.79,1.893a18.611,18.611,0,0,0,.908,2.723c.648,1.063,1.66.674,2.075-.285.389-.96-2.127-3.787-.156-3.942s2.308,2.438,2.957,3.034a.869.869,0,0,0,1.426-.13c.519-.571-.856-2.127.1-2.568,1.945-.882,1.893,1.323,3.268,1.349,5.991.1,10.711-9.726,10.011-12.5-2-1.193-1.3-4.15.363-4.176,4.124-.078,3.553,5.758.415,12.527-4.1,8.87-14.186,13.434-18.492,14.212Z" transform="translate(-11.831 35.397)" fill="#0064a7"/>
          <path id="Path_114" data-name="Path 114" d="M75.314,28.347a.62.62,0,0,1-.078-.182c.934-3.553,1.608-5.109,1.919-8.662a1.564,1.564,0,0,0-1.089-1.66,19.468,19.468,0,0,0-4.046-.6.453.453,0,0,1-.363-.182,9.075,9.075,0,0,1-.622-2.853c1.271-2.7-1.011-3.657-3.138-3.6-1.4-.078-2.853.571-3.008,1.634-.207,2.049,2.075,2.8,2.879,2.879a13.063,13.063,0,0,1,.519,2.282.149.149,0,0,1-.156.156c-3.631.078-8.351.7-10.737.882a.482.482,0,0,1-.571-.337c-.441-1.219-2.334-7,1.219-6.9,2.1.078,3.864-1.66,1.867-2.983a10.737,10.737,0,0,0-4.668-.415,2.366,2.366,0,0,0-1.634,2.775c.233,1.867-4.409,2.049-5.784,1.5A6.534,6.534,0,0,1,45.2,9.778c-.882-1.608-2.438-.389-2.153.467,1.919,5.809,8.092,4.876,9.674,4.98a.378.378,0,0,1,.233.156c.389,2.1,1.634,4.305,1.634,5.135-.778.856-.441,2.671.648,2.983-1.323,1.271-1.919,5.68-1.712,9.363.259,4.668,2.153,9.207,5.135,8.714,3.787-.622,2.282-9.363,3.216-10.115a3.783,3.783,0,0,1,2.127-.207c.1,0,.156.13.156.182-.311,3.423-1.115,8.948-1.323,10.4a4.859,4.859,0,0,0,.415,3.657,15.552,15.552,0,0,1,.571,11.489.384.384,0,0,1-.285.285,7.767,7.767,0,0,0-3.034,1.271c-.622.441-1.323,1.323-.856,1.867.674.622,4.98.363,6.328-1.608a1.39,1.39,0,0,0,.13-.285,21.266,21.266,0,0,1,1.478-3.06c2-3.787,2.282-8.455-.441-10.582-.752-.6-1.556-1.141-.8-2.619,1.452-2.853,1.608-5.991,1.79-8.61a1.442,1.442,0,0,1,2.49-.674c1.66,3.916.363,7.288.337,8.688a8.692,8.692,0,0,0,.674,2.879c1.141,5.109.571,9.233-.467,14.524,0,.1-.1.182-.207.233a9.569,9.569,0,0,0-2.671,1.167c-.752.545-1.063,1.219-.726,1.582,1.011,1.141,5.55-.1,5.887-1.4.856-3.242,6.977-10.711,2.7-15.509-1.945-2.179-1.945-1.3-1.971-2.412,0-.519,1.219-3.423,1.53-5.654.311-2.334-1.193-4.565-.83-5.835,0-.052.1-.1.156-.1a12.49,12.49,0,0,1,3.086,1.063c.311.156.8.026.882-1.115.078-1.245-3.112-2.464-3.735-2.7ZM57.886,38.073c-1.764-.026-2.412-11-.6-10.945C58.923,27.154,59.1,38.1,57.886,38.073ZM63.7,21.889a35.335,35.335,0,0,1,.83,4.513c.078.545-.13,1.219-.467,1.349a4.9,4.9,0,0,1-2.931-.052c-.83-.311-.259-3.579-3.268-4.15a1.637,1.637,0,0,0,.726-1.323,1.478,1.478,0,0,1,1.349-1.063,18.981,18.981,0,0,1,2.7-.182,1.145,1.145,0,0,1,1.089.908Zm8.221,4.824a4.053,4.053,0,0,1-3.838.156c-.882-.519-1.089-4.435-.648-5.5s5.031-1.089,5.394-.363S72.565,26.091,71.917,26.713Z" transform="translate(-0.92 12.306)" fill="#0064a7"/>
          <path id="Path_115" data-name="Path 115" d="M62.916,23.737c-.337-4.15-4.2-9.622-9.855-10.556C46.94,12.17,37.422,14.608,36.385,23.633c-1.063,9.311,6.069,16.235,14.627,15.587,9.285-.7,12.371-9.622,11.9-15.483Zm-5.524,6.639c.493-.052,1.452.078,1.712.752.311.752-1.764,3.086-2.723,3.372-.6.156-1.478-.726-1.3-1.582A6.884,6.884,0,0,1,57.392,30.376Zm3.164-2.957a1.355,1.355,0,0,1-1.79-.207,11.759,11.759,0,0,1-.182-3.812,1.428,1.428,0,0,1,1.738-.493C60.971,23.27,61.334,26.875,60.556,27.419Zm-1.841-7.729c-.1.571-1.063.8-1.452.752a7,7,0,0,1-2.775-2.308,1.107,1.107,0,0,1,.83-1.375c1.323-.337,3.553,2.127,3.4,2.957Zm-7.21-4.2a1.289,1.289,0,0,1,0,1.452c-.363.389-3.631.519-4.124.467a1.233,1.233,0,0,1-1.167-1.66c.622-.96,4.954-1.037,5.317-.285Zm2.645,6.043c0,.882-3.086,2.36-3.709,2-.908-.545-2.749-3.268-2.36-3.735C49.4,18.135,54.15,20.132,54.15,21.532Zm-8.377-.752c.389-.078,2.256,2.775,1.919,3.838-.285.908-3.709,2.153-4.046,1.815-1.037-1.037-.13-5.187,2.127-5.68Zm-.7,8.455c0-.545,2.775-2.412,3.864-2.023.882.337,2.256,3.787,1.5,4.15-2.023.96-5.395-1.245-5.395-2.127Zm8.636.571c-.8-.363-2.931-3.138-2.179-3.89.7-.7,3.683-2.2,4.15-1.764C57.522,25.863,55.291,30.506,53.709,29.806ZM41.416,21.428c-.778.389-1.5-.13-1.582-1.115-.078-.96,2.179-3.32,3.008-3.086a1.655,1.655,0,0,1,.934,1.556A9.092,9.092,0,0,1,41.416,21.428Zm-.545,6.562c-.441.519-1.4.856-1.893.467-.7-.571-.934-2.879-.467-3.864.311-.674,1.919-1.037,2.23-.259C40.949,24.852,41.183,27.627,40.872,27.99Zm-.389,4.02a1.54,1.54,0,0,1,1.712-1.4A7.3,7.3,0,0,1,44.788,33.2,1.356,1.356,0,0,1,43.7,34.785C42.817,34.837,40.56,32.814,40.483,32.01Zm7.132,3.942c-.622-.337-.13-1.582.752-1.712a9.331,9.331,0,0,1,3.5-.026c.571.259.986,1.452.648,1.815-.622.674-4.02.441-4.928-.052Z" transform="translate(-11.656 20.677)" fill="#0064a7"/>
          <path id="Path_116" data-name="Path 116" d="M42.368,3.18l-.259,2.1L40.76,6.889l2.1.285,1.608,1.349.259-2.1,1.349-1.608L44,4.555Z" transform="translate(-4.516 5.08)" fill="#0064a7"/>
          <path id="Path_117" data-name="Path 117" d="M58.777,41.267l-1.686-1.245-2.1-.13,1.219-1.712.13-2.1,1.712,1.245,2.1.13-1.245,1.712Z" transform="translate(18.16 57.507)" fill="#0064a7"/>
          <path id="Path_118" data-name="Path 118" d="M40.129,41.221l1.712-1.245,2.1-.1-1.219-1.712-.13-2.1-1.712,1.219-2.1.13,1.245,1.712Z" transform="translate(-7.671 57.475)" fill="#0064a7"/>
          <path id="Path_119" data-name="Path 119" d="M35.569,36.6l2.153-2.516c.986-1.141,2.542-1.063,4.02.207,1.5,1.271,1.841,2.8.856,3.942l-2.153,2.516c-.259.311-.285.493.078.778l-.752.571L37.7,40.334l.467-.83c.337.311.519.259.778-.052l2.153-2.516c.415-.493.389-1.115-.285-1.686-.674-.6-1.3-.545-1.738-.026l-2.153,2.516c-.259.311-.285.467.078.778l-.752.6L34.35,37.507l.441-.856c.337.311.519.259.778-.052Z" transform="translate(-14.73 53.045)" fill="#0064a7"/>
          <path id="Path_120" data-name="Path 120" d="M33.03,33.427l4.539-3.4.856,1.141L37,35.969a7.335,7.335,0,0,1-.363.856s.415-.389.622-.545l2-1.5c.311-.233.389-.389.1-.778l.856-.415L41.589,35.4l-.622.726c-.285-.363-.467-.363-.778-.13l-3.32,2.49c-.311.233-.363.415-.1.778l-.882.389-1.219-1.634,1.3-4.357a8.639,8.639,0,0,1,.363-.882s-.415.389-.648.571l-1.712,1.271c-.311.233-.363.415-.1.778L33,35.814,31.63,33.972l.622-.726c.285.363.441.363.778.13Z" transform="translate(-19.065 47.866)" fill="#0064a7"/>
          <path id="Path_121" data-name="Path 121" d="M36.76,27.99l1.167,2.386-.752.6c-.207-.415-.389-.441-.726-.259l-3.735,1.841c-.363.182-.441.337-.233.752l-.934.233L30.38,31.154l.752-.6c.207.415.363.441.726.259l3.735-1.841c.363-.182.441-.337.233-.752Z" transform="translate(-21.056 44.615)" fill="#0064a7"/>
          <path id="Path_122" data-name="Path 122" d="M30.552,25.575l6.121.545.545,1.815L32.368,31.7c-.363.259-.389.415-.285.83l-.96.078-.752-2.542.83-.467c.1.363.259.415.571.182l2.334-1.764a12.862,12.862,0,0,1,1.219-.648,11.484,11.484,0,0,1-1.4.078l-2.957-.285c-.389-.026-.467.13-.363.519l-.96.078L28.97,25.5l.856-.467c.13.415.233.493.674.545Z" transform="translate(-23.303 39.898)" fill="#0064a7"/>
          <path id="Path_123" data-name="Path 123" d="M35.68,21.556l.493,5.5-.908.285c-.052-.467-.207-.545-.6-.519l-4.15.389c-.415.026-.519.156-.493.622l-.96-.13L28.6,22.464l1.686-.156.207.726c-.545.13-.648.285-.6,1.089l.1,1.219,1.712-.156-.1-1.115c-.052-.467-.13-.648-.519-.6l.1-.778,1.686-.156.259.752c-.389.026-.441.207-.389.674l.1,1.115,1.867-.182-.156-1.686c-.078-.726-.285-.856-.8-.908l.078-.778,1.764.052Z" transform="translate(-23.893 34.321)" fill="#0064a7"/>
          <path id="Path_124" data-name="Path 124" d="M36.432,18.005l-.233,2.1c-1.115.908-2.853-.026-3.008,1.4l-.1.856,1.349.156c.389.052.545-.026.6-.493l.908.311-.285,2.619-.96.1c.052-.467-.078-.571-.467-.622L30.1,23.97c-.389-.052-.545.052-.6.493l-.908-.311.389-3.579C29.2,18.835,30,17.9,31.323,18.031a1.838,1.838,0,0,1,1.634,1.556,1.831,1.831,0,0,1,1.686-1.037c.6-.052.8-.156.856-.674V17.72l.934.311Zm-6.406,2.957-.1,1.063,2.023.233.1-1.011c.078-.778-.259-1.219-.882-1.3S30.1,20.21,30.026,20.962Z" transform="translate(-23.893 28.25)" fill="#0064a7"/>
          <path id="Path_125" data-name="Path 125" d="M36.605,18.938a6.158,6.158,0,0,1-1.53,2.516L33.727,20.6l.207-.622A1.768,1.768,0,0,0,35.542,18.6c.182-.545.1-1.193-.467-1.375-.493-.156-.83.156-1.4,1.193-.545,1.063-1.452,2.023-2.827,1.582-1.349-.441-1.712-1.867-1.219-3.4a6.24,6.24,0,0,1,1.323-2.334l1.271.8-.182.6a1.639,1.639,0,0,0-1.349,1.245c-.207.6-.052,1.115.389,1.271.441.13.752-.182,1.167-.96.752-1.426,1.556-2.36,3.06-1.867,1.478.467,1.79,2.049,1.3,3.527Z" transform="translate(-22.588 22.752)" fill="#0064a7"/>
          <path id="Path_126" data-name="Path 126" d="M38.079,15.112l-1.219,2.36-.934-.259c.207-.415.13-.571-.233-.752l-3.709-1.893c-.363-.182-.545-.156-.752.259l-.752-.6L31.7,11.87l.934.259c-.207.415-.13.571.233.752l3.709,1.893c.337.182.519.156.752-.259l.752.6Z" transform="translate(-20.897 18.928)" fill="#0064a7"/>
          <path id="Path_127" data-name="Path 127" d="M36.605,10.3c-.441-.233-.7-.259-1.141.363l-.415.571,3.579,2.619c.311.233.493.259.752-.13l.648.7-1.556,2.127-.882-.389c.285-.389.207-.545-.1-.778L33.908,12.76l-.415.571c-.441.6-.337.856,0,1.219l-.571.519L31.6,13.875,35.361,8.74l1.556.882-.337.7Z" transform="translate(-19.112 13.94)" fill="#0064a7"/>
          <path id="Path_128" data-name="Path 128" d="M43.2,10.436l-1.919,1.79-.778-.545c.259-.233.285-.389-.1-.6l-.519-.259-1.867,1.738.207.545c.156.389.363.337.622.1l.493.83L37.7,15.571l-.778-.545c.311-.285.337-.441.182-.856l-1.79-4.227c-.1-.259-.285-.337-.622-.026l-.493-.83L36.949,6.52l.778.545c-.337.311-.285.467-.026.6l4.124,2.1a.593.593,0,0,0,.856-.1l.493.83ZM37.131,9.269a10.484,10.484,0,0,1-1.063-.8s.519.8.7,1.167l.752,1.79,1.323-1.245Z" transform="translate(-14.969 10.402)" fill="#0064a7"/>
          <path id="Path_129" data-name="Path 129" d="M42.544,11.5a6.581,6.581,0,0,1-2.8.934l-.467-1.5.545-.337a1.79,1.79,0,0,0,2.127,0c.493-.311.83-.83.519-1.349-.285-.441-.726-.441-1.841,0-1.115.467-2.412.622-3.19-.622-.752-1.193-.1-2.542,1.271-3.4a6.159,6.159,0,0,1,2.516-.908l.441,1.426-.545.337a1.684,1.684,0,0,0-1.841.078c-.545.337-.778.83-.519,1.219.233.389.7.363,1.5.026,1.5-.6,2.7-.778,3.553.571.8,1.323.026,2.7-1.3,3.527Z" transform="translate(-10.32 6.897)" fill="#0064a7"/>
          <path id="Path_130" data-name="Path 130" d="M51.349,5.927c-.493.052-.571.233-.519.6l.078.545c.052.363.156.441.389.415l-.078.908c-1.011.207-1.167.648-2.723.856-2.075.285-3.968-.493-4.305-3.138-.337-2.412,1.063-3.864,3.346-4.15a5.434,5.434,0,0,1,2.827.389l-.182,1.634-.622.078a1.442,1.442,0,0,0-1.686-.83c-1.3.182-1.893,1.011-1.66,2.619.207,1.634.908,2.256,2.179,2.075a2.238,2.238,0,0,0,.882-.337l-.13-.882c-.052-.389-.156-.519-.648-.441h-.13l.078-.934,2.723-.363.311.908h-.13Z" transform="translate(0.871 3.059)" fill="#0064a7"/>
          <path id="Path_131" data-name="Path 131" d="M51.321,9.178c-2.153-.182-3.579-1.3-3.346-3.942.207-2.671,1.815-3.553,3.942-3.372,2.179.182,3.579,1.3,3.372,3.968S53.5,9.385,51.321,9.2Zm.493-6.043C50.7,3.057,50.128,3.6,50,5.365s.337,2.412,1.452,2.516c1.141.1,1.686-.467,1.841-2.23.13-1.764-.311-2.412-1.452-2.516Z" transform="translate(6.942 2.947)" fill="#0064a7"/>
          <path id="Path_132" data-name="Path 132" d="M57.318,5.546c.052-.493,0-.752-.752-.934l-.674-.182L54.724,8.71c-.1.389-.052.545.389.674l-.441.856-2.542-.7.052-.96c.467.13.571,0,.7-.363L54.05,3.938l-.674-.182c-.726-.207-.908,0-1.115.441l-.7-.337.648-1.66,6.147,1.686L58.1,5.649,57.318,5.6Z" transform="translate(12.694 3.518)" fill="#0064a7"/>
          <path id="Path_133" data-name="Path 133" d="M60.586,12.944l-2.334-1.193.233-.934c.415.207.571.13.752-.233l.726-1.426L57.577,7.938l-.726,1.426c-.182.337-.156.519.259.726l-.6.752L54.18,9.65l.233-.934c.415.207.571.13.752-.233l1.893-3.709c.182-.363.156-.519-.259-.752l.622-.752,2.334,1.193L59.5,5.4c-.415-.207-.545-.13-.752.233l-.571,1.141L60.586,7.99l.571-1.141c.182-.363.156-.519-.259-.752l.6-.752,2.36,1.193-.259.934c-.415-.207-.545-.13-.752.233l-1.893,3.709c-.182.363-.156.519.259.726l-.6.752Z" transform="translate(16.869 5.224)" fill="#0064a7"/>
          <path id="Path_134" data-name="Path 134" d="M59.336,12.491c-1.66-1.375-2.2-3.086-.493-5.161s3.5-1.867,5.161-.519c1.686,1.4,2.2,3.112.493,5.161-1.712,2.075-3.475,1.893-5.161.493Zm3.838-4.668c-.856-.7-1.66-.571-2.775.8s-1.115,2.179-.259,2.879c.882.726,1.66.571,2.775-.8s1.115-2.153.233-2.879Z" transform="translate(22.631 9.23)" fill="#0064a7"/>
          <path id="Path_135" data-name="Path 135" d="M62.259,15.3,60.08,12.581l.6-.752c.285.363.467.337.778.1L64.7,9.313c.311-.259.363-.415.078-.778l.856-.415,2.049,2.542c1.089,1.375,1.219,2.542.259,3.32a1.726,1.726,0,0,1-1.738.1,1.792,1.792,0,0,1-.545,2.153c-1.037.83-2.282.415-3.372-.934Zm1.686-2.9-1.608,1.3.648.8a1,1,0,0,0,1.53.259,1.04,1.04,0,0,0,.052-1.582l-.6-.752Zm.882-.726.545.674c.441.545.908.6,1.323.259.389-.311.467-.752,0-1.323l-.545-.674Z" transform="translate(26.271 12.952)" fill="#0064a7"/>
          <path id="Path_136" data-name="Path 136" d="M69.507,17.841l-2.931,1.5c-1.349.674-2.749,0-3.631-1.738s-.622-3.294.726-3.968l2.931-1.5c.363-.182.441-.337.233-.752l.934-.233,1.245,2.412-.752.6c-.207-.415-.389-.441-.752-.259l-2.957,1.5a1.119,1.119,0,0,0-.389,1.66c.415.8.986.986,1.582.7l2.957-1.5c.363-.182.441-.337.233-.752l.934-.259,1.141,2.2-.752.622c-.207-.415-.389-.441-.752-.259Z" transform="translate(30.018 17.78)" fill="#0064a7"/>
          <path id="Path_137" data-name="Path 137" d="M65.37,23.535l-.545-2.049c.7-1.271,2.671-1.011,2.308-2.412l-.207-.83-1.323.337c-.389.1-.493.233-.389.674l-.96.052-.674-2.542.856-.441c.13.467.285.519.674.415l4.02-1.063c.389-.1.493-.233.389-.674l.96-.052.934,3.475c.441,1.686,0,2.853-1.271,3.19a1.8,1.8,0,0,1-2.075-.856,1.819,1.819,0,0,1-1.193,1.582c-.519.259-.7.415-.545.934l.052.156-.96.052Zm4.9-5.057-.259-1.037-1.971.519.259.986c.207.752.674,1.037,1.3.882a.985.985,0,0,0,.7-1.375Z" transform="translate(31.848 23.836)" fill="#0064a7"/>
          <path id="Path_138" data-name="Path 138" d="M67.465,26.059c0-.493-.182-.571-.545-.571h-.545c-.363.052-.467.13-.441.363l-.908-.13a15.989,15.989,0,0,1-.622-2.8c-.1-2.1.83-3.916,3.475-4.046,2.438-.13,3.761,1.4,3.864,3.683a5.284,5.284,0,0,1-.648,2.8l-1.608-.337V24.4a1.452,1.452,0,0,0,.934-1.608c-.078-1.3-.83-1.971-2.464-1.867-1.634.078-2.334.726-2.256,2a1.963,1.963,0,0,0,.259.908l.882-.052c.389,0,.519-.13.493-.622v-.13l.934.156.13,2.749-.934.233v-.13Z" transform="translate(33.15 30.078)" fill="#0064a7"/>
          <path id="Path_139" data-name="Path 139" d="M64.148,28.108l.83-5.446.96-.052c-.078.467.078.571.441.648l4.124.622c.389.052.545,0,.622-.467l.882.337-.8,5.213L69.516,28.7v-.752c.519,0,.674-.13.778-.908l.182-1.219-1.712-.259-.156,1.089c-.078.467,0,.648.337.7l-.311.726-1.686-.259-.078-.778c.389.052.493-.1.545-.571l.156-1.089L65.73,25.1l-.259,1.686c-.1.726.078.908.571,1.063l-.259.752-1.712-.467Z" transform="translate(32.629 36.042)" fill="#0064a7"/>
          <path id="Path_140" data-name="Path 140" d="M68.241,33.973l-5.291-2,.493-1.323,4.8-1.375a5.746,5.746,0,0,1,.908-.156,6.444,6.444,0,0,1-.778-.233l-2.334-.882c-.363-.13-.545-.1-.7.337l-.8-.519.8-2.127.96.13c-.156.441-.052.571.311.726l3.89,1.478c.363.156.545.1.7-.337l.8.519-.726,1.919L66.918,31.38a5.889,5.889,0,0,1-.934.156s.545.156.8.259l2,.752c.389.13.545.1.7-.337l.8.519-.8,2.127-.96-.156c.156-.441.078-.571-.311-.7Z" transform="translate(30.844 40.966)" fill="#0064a7"/>
          <path id="Path_141" data-name="Path 141" d="M62.259,31.169a5.937,5.937,0,0,1,2.127-2.049l1.089,1.141-.337.545a1.757,1.757,0,0,0-1.893.934,1.022,1.022,0,0,0,.1,1.452c.441.285.83.078,1.634-.8.8-.908,1.893-1.608,3.112-.83,1.193.752,1.193,2.256.337,3.6a6.186,6.186,0,0,1-1.867,1.919l-1.011-1.089.337-.545a1.682,1.682,0,0,0,1.634-.856c.337-.545.337-1.063-.078-1.323-.389-.259-.778,0-1.375.648-1.089,1.193-2.1,1.893-3.423,1.037-1.323-.83-1.219-2.412-.389-3.761Z" transform="translate(28.76 46.416)" fill="#0064a7"/>
          <path id="Path_142" data-name="Path 142" d="M59.94,33.717l1.764-2,.83.467c-.311.337-.259.519,0,.778l3.112,2.775c.311.259.467.285.778-.052l.571.778-1.764,2L64.4,38c.311-.337.285-.519,0-.778l-3.112-2.775c-.285-.259-.467-.285-.778.052Z" transform="translate(26.048 50.559)" fill="#0064a7"/>
          <path id="Path_143" data-name="Path 143" d="M59.064,34.755a5.754,5.754,0,0,1,2.671-1.245l.648,1.452-.519.415a1.761,1.761,0,0,0-2.1.259c-.441.363-.752.934-.363,1.4.311.415.778.337,1.815-.233,1.063-.6,2.334-.908,3.242.233.882,1.089.389,2.516-.856,3.5a6.561,6.561,0,0,1-2.386,1.219l-.622-1.375.493-.389a1.68,1.68,0,0,0,1.815-.285c.493-.389.674-.908.363-1.271-.285-.363-.726-.259-1.5.156-1.4.778-2.594,1.115-3.579-.13-.96-1.219-.363-2.7.856-3.657Z" transform="translate(22.488 53.411)" fill="#0064a7"/>
          <path id="Path_144" data-name="Path 144" d="M45.643,44.651,42.09,43.64l.078-.96.467.13c.467.13.622.026.726-.337l1.037-3.6a2.438,2.438,0,0,1-1.4.078l.311-1.037a2.417,2.417,0,0,0,2.049-.778l1.452.415-1.582,5.472c-.1.389,0,.545.441.674l.467.13-.441.856Z" transform="translate(-2.397 59.18)" fill="#0064a7"/>
          <path id="Path_145" data-name="Path 145" d="M47.912,45.061C45.967,44.879,44.8,43.971,44.9,42.8c.1-1.011.96-1.53,1.919-1.841-.778-.441-1.4-.986-1.349-1.815.1-1.037,1.323-1.66,3.138-1.478,1.738.156,2.853.986,2.775,2.049-.078.83-.8,1.245-1.634,1.53.882.467,1.634,1.141,1.53,2.153-.1,1.193-1.452,1.841-3.346,1.66Zm.311-3.372c-.8.285-1.375.674-1.426,1.271-.052.519.467.96,1.219,1.011.726.078,1.323-.233,1.375-.752C49.443,42.623,48.95,42.13,48.224,41.689Zm.285-2.957c-.648-.052-1.089.156-1.141.622s.337.856.96,1.193c.648-.233,1.115-.545,1.141-1.011.052-.441-.363-.752-.986-.8Z" transform="translate(2.077 59.989)" fill="#0064a7"/>
          <path id="Path_146" data-name="Path 146" d="M51.3,45.065a3.513,3.513,0,0,1-1.686-.233l-.1-1.011a4.116,4.116,0,0,0,1.3.1A2.122,2.122,0,0,0,52.955,41.9a2.123,2.123,0,0,1-1.582.8,2.431,2.431,0,0,1-2.957-2.2c-.13-1.478.934-2.645,2.8-2.827a2.978,2.978,0,0,1,3.5,2.983c.207,2.23-.752,4.15-3.4,4.409Zm0-6.276A1.269,1.269,0,0,0,50.1,40.345a1.218,1.218,0,0,0,1.375,1.245,1.337,1.337,0,0,0,1.3-1.53A1.3,1.3,0,0,0,51.3,38.789Z" transform="translate(7.668 60.011)" fill="#0064a7"/>
          <path id="Path_147" data-name="Path 147" d="M57.2,43.767l-3.553.934-.441-.856.467-.13c.467-.13.545-.285.441-.674l-.96-3.631a2.38,2.38,0,0,1-1.167.778L51.7,39.151a2.363,2.363,0,0,0,1.349-1.712L54.5,37.05l1.452,5.5c.1.389.259.467.726.363l.467-.13.052.96Z" transform="translate(12.917 59.052)" fill="#0064a7"/>
        </g>
      </g>
    </g>
  </g>
</svg>
