<svg xmlns="http://www.w3.org/2000/svg" xmlns:xlink="http://www.w3.org/1999/xlink" width="350" height="250" viewBox="0 0 350 250">
  <defs>
    <clipPath id="clip-safespring-webinar-29-3">
      <rect width="350" height="250"/>
    </clipPath>
  </defs>
  <g id="safespring-webinar-29-3" clip-path="url(#clip-safespring-webinar-29-3)">
    <rect width="350" height="250" fill="#fff"/>
    <rect id="Rectangle_407" data-name="Rectangle 407" width="350" height="79" fill="#d15b5b"/>
    <g id="Group_627" data-name="Group 627">
      <path id="Path_5737" data-name="Path 5737" d="M-25.905-26.225A12.049,12.049,0,0,1-20.352-25a8.666,8.666,0,0,1,3.737,3.718,13.281,13.281,0,0,1,1.346,6.341V0h-4.7V-14.407q0-3.794-1.748-5.706a6.382,6.382,0,0,0-4.961-1.912,8.2,8.2,0,0,0-4.093,1,6.687,6.687,0,0,0-2.729,2.9,10.461,10.461,0,0,0-.96,4.728V0h-4.7V-14.407q0-3.794-1.748-5.706a6.382,6.382,0,0,0-4.961-1.912,8.2,8.2,0,0,0-4.093,1,6.687,6.687,0,0,0-2.729,2.9,10.461,10.461,0,0,0-.96,4.728V0h-4.7V-25.954h4.5v6.906l-.76-1.761a8.91,8.91,0,0,1,3.794-4,12.022,12.022,0,0,1,5.94-1.418,11.078,11.078,0,0,1,6.406,1.84,8.754,8.754,0,0,1,3.537,5.553l-1.927-.753A9.875,9.875,0,0,1-32.764-24.4,12.7,12.7,0,0,1-25.905-26.225ZM9.517,0V-5.489L9.31-6.529V-15.9a6.011,6.011,0,0,0-1.748-4.613A7.374,7.374,0,0,0,2.35-22.149a13.833,13.833,0,0,0-4.532.752A11.778,11.778,0,0,0-5.91-19.366l-1.969-3.5a14.231,14.231,0,0,1,4.844-2.5,20.118,20.118,0,0,1,5.915-.864q5.32,0,8.227,2.606t2.907,7.96V0ZM1.023.271a12.487,12.487,0,0,1-5.1-.965A7.687,7.687,0,0,1-7.429-3.4,6.924,6.924,0,0,1-8.606-7.371a7.4,7.4,0,0,1,1-3.812,7,7,0,0,1,3.293-2.747,15.054,15.054,0,0,1,6.128-1.038h8.24v3.414H2.016q-3.484,0-4.722,1.165A3.758,3.758,0,0,0-3.944-7.545,3.614,3.614,0,0,0-2.416-4.482,6.967,6.967,0,0,0,1.809-3.35,8.911,8.911,0,0,0,6.433-4.523,6.733,6.733,0,0,0,9.31-7.956l.9,3.244A7.271,7.271,0,0,1,6.923-1.053,11.875,11.875,0,0,1,1.023.271ZM22.715,0V-25.954h4.5v7.048l-.471-1.761A8.163,8.163,0,0,1,30.384-24.8a12.655,12.655,0,0,1,6.278-1.424v4.58q-.3-.041-.557-.062t-.523-.021a7.947,7.947,0,0,0-5.967,2.254q-2.2,2.254-2.2,6.556V0Zm27.5.271a21.382,21.382,0,0,1-6.176-.877,14.457,14.457,0,0,1-4.591-2.147L41.44-6.475a15.215,15.215,0,0,0,4.112,1.934,16.422,16.422,0,0,0,4.991.777,9,9,0,0,0,4.73-.947,2.928,2.928,0,0,0,1.463-2.577,2.272,2.272,0,0,0-.89-1.914A6.29,6.29,0,0,0,53.5-10.24q-1.46-.357-3.219-.617t-3.517-.673a13.405,13.405,0,0,1-3.219-1.185,6.273,6.273,0,0,1-2.35-2.125,6.431,6.431,0,0,1-.89-3.584,6.624,6.624,0,0,1,1.324-4.1,8.523,8.523,0,0,1,3.743-2.732,15.425,15.425,0,0,1,5.762-.972A22.084,22.084,0,0,1,56.3-25.6a13.6,13.6,0,0,1,4.283,1.721l-2,3.722a11.619,11.619,0,0,0-3.68-1.589,16.753,16.753,0,0,0-3.82-.447,8.489,8.489,0,0,0-4.6,1,2.973,2.973,0,0,0-1.514,2.562,2.449,2.449,0,0,0,.89,2.034,6.5,6.5,0,0,0,2.35,1.111,27.2,27.2,0,0,0,3.219.662q1.759.26,3.513.673a14.117,14.117,0,0,1,3.216,1.161,6.16,6.16,0,0,1,2.35,2.073,6.192,6.192,0,0,1,.89,3.507,6.4,6.4,0,0,1-1.36,4.088A8.63,8.63,0,0,1,56.184-.665,17.021,17.021,0,0,1,50.213.271Z" transform="translate(175 57)" fill="#fff"/>
      <path id="Path_5736" data-name="Path 5736" d="M-74.877,0V-9.139l38.226-36.837a55.467,55.467,0,0,0,7.527-8.493,23.208,23.208,0,0,0,3.363-6.868,23.323,23.323,0,0,0,.846-6.029q0-7.313-5.06-11.444t-14.848-4.131a35.639,35.639,0,0,0-13.638,2.474A27.035,27.035,0,0,0-68.9-72.8L-78.02-80.67A35.3,35.3,0,0,1-63.562-91.177a51.763,51.763,0,0,1,19.871-3.7,42.429,42.429,0,0,1,17.1,3.164,25.2,25.2,0,0,1,11.171,9.032,24.434,24.434,0,0,1,3.936,13.94A34.015,34.015,0,0,1-12.7-59.751a32.249,32.249,0,0,1-4.546,9.395,72.282,72.282,0,0,1-9.719,11.1l-33.965,32.8L-64.124-11.6h56.6V0ZM34-94.88q12.646,0,21.433,5.478A34.578,34.578,0,0,1,68.817-73.507q4.6,10.416,4.6,25.362,0,16.019-5.647,26.991a39.054,39.054,0,0,1-15.587,16.6Q42.239,1.08,29.067,1.08a58.886,58.886,0,0,1-12.7-1.334A33.479,33.479,0,0,1,5.707-4.472L10.78-14.9a23.975,23.975,0,0,0,8.375,3.488,45.87,45.87,0,0,0,9.686,1.005q14.281,0,22.711-8.915t8.429-26.519q0-2.8-.242-6.672a38.669,38.669,0,0,0-1.285-7.717l4.466,4.667A23.385,23.385,0,0,1,56.68-45.229a28.439,28.439,0,0,1-10.465,6.32A40.228,40.228,0,0,1,32.9-36.793,37.288,37.288,0,0,1,16.4-40.313,27.758,27.758,0,0,1,5-50.223,26.946,26.946,0,0,1,.837-65.26,27.792,27.792,0,0,1,5.223-80.978,29.207,29.207,0,0,1,17.167-91.237,38.272,38.272,0,0,1,34-94.88Zm.565,10.919a24.8,24.8,0,0,0-10.8,2.234,17.505,17.505,0,0,0-7.318,6.277,17.23,17.23,0,0,0-2.635,9.623q0,8.314,5.76,13.215t15.59,4.9A25.639,25.639,0,0,0,46.507-50.1a18.505,18.505,0,0,0,7.628-6.556,16.725,16.725,0,0,0,2.712-9.326,16.407,16.407,0,0,0-2.558-8.931,18.42,18.42,0,0,0-7.483-6.551A26.908,26.908,0,0,0,34.567-83.961Z" transform="translate(175 204)" fill="#585858"/>
      <path id="Path_5735" data-name="Path 5735" d="M-51.444.178a9.4,9.4,0,0,1-2.825-.423,6.184,6.184,0,0,1-2.148-1.093l.82-1.811a6.456,6.456,0,0,0,1.874.994,6.818,6.818,0,0,0,2.284.393,4.925,4.925,0,0,0,1.6-.214,1.886,1.886,0,0,0,.9-.587,1.339,1.339,0,0,0,.287-.839,1.15,1.15,0,0,0-.409-.924,3.121,3.121,0,0,0-1.07-.56q-.66-.213-1.461-.39T-53.2-5.7a6.679,6.679,0,0,1-1.462-.635,3.151,3.151,0,0,1-1.069-1.034,3.03,3.03,0,0,1-.409-1.652,3.416,3.416,0,0,1,.547-1.882,3.777,3.777,0,0,1,1.672-1.367,6.88,6.88,0,0,1,2.849-.513,9.056,9.056,0,0,1,2.254.286,6.5,6.5,0,0,1,1.95.828l-.745,1.824a6.639,6.639,0,0,0-1.739-.757,6.668,6.668,0,0,0-1.74-.242,4.451,4.451,0,0,0-1.568.233,1.9,1.9,0,0,0-.889.617,1.439,1.439,0,0,0-.278.866,1.144,1.144,0,0,0,.409.92,3.024,3.024,0,0,0,1.069.55q.66.2,1.462.388t1.6.419a6.659,6.659,0,0,1,1.461.619A3.084,3.084,0,0,1-46.753-5.2a2.987,2.987,0,0,1,.409,1.633A3.35,3.35,0,0,1-46.9-1.7,3.834,3.834,0,0,1-48.585-.336,6.92,6.92,0,0,1-51.444.178ZM-41.65,0V-10.623h-4.176V-12.6h10.688v1.977h-4.176V0Zm5.863,0,5.665-12.6h2.311L-22.131,0H-24.58l-4.867-11.352h.935L-33.38,0Zm2.618-2.917.625-1.838h6.8l.641,1.838ZM-20.523,0V-12.6h5.173a7,7,0,0,1,2.871.537,4.133,4.133,0,0,1,1.848,1.545,4.355,4.355,0,0,1,.647,2.4,4.275,4.275,0,0,1-.647,2.378A4.142,4.142,0,0,1-12.479-4.2a7.024,7.024,0,0,1-2.871.535h-3.88l1.044-1.056V0Zm8.232,0-3.19-4.574h2.51L-9.761,0Zm-5.9-4.477L-19.23-5.6h3.783a3.521,3.521,0,0,0,2.324-.662,2.288,2.288,0,0,0,.784-1.848,2.283,2.283,0,0,0-.784-1.856,3.551,3.551,0,0,0-2.324-.655H-19.23l1.044-1.142ZM-5,0V-10.623H-9.171V-12.6H1.516v1.977H-2.66V0ZM9.8,0V-12.354l1.075,1.129H6.97V-13.3h5.292V0ZM20.448.188a5.189,5.189,0,0,1-2.844-.8,5.455,5.455,0,0,1-1.987-2.325,8.565,8.565,0,0,1-.728-3.712,8.565,8.565,0,0,1,.728-3.712A5.455,5.455,0,0,1,17.6-12.688a5.189,5.189,0,0,1,2.844-.8,5.189,5.189,0,0,1,2.844.8,5.455,5.455,0,0,1,1.987,2.325,8.565,8.565,0,0,1,.728,3.712,8.565,8.565,0,0,1-.728,3.712A5.455,5.455,0,0,1,23.292-.612,5.189,5.189,0,0,1,20.448.188Zm0-2.152a2.654,2.654,0,0,0,1.606-.5,3.254,3.254,0,0,0,1.079-1.541,7.615,7.615,0,0,0,.39-2.643,7.613,7.613,0,0,0-.39-2.644,3.255,3.255,0,0,0-1.079-1.54,2.654,2.654,0,0,0-1.606-.5,2.664,2.664,0,0,0-1.6.5,3.228,3.228,0,0,0-1.087,1.54,7.613,7.613,0,0,0-.39,2.644,7.615,7.615,0,0,0,.39,2.643A3.228,3.228,0,0,0,18.85-2.466,2.664,2.664,0,0,0,20.448-1.964Zm8.71-5.142a1.518,1.518,0,0,1-1.1-.446,1.515,1.515,0,0,1-.456-1.13,1.5,1.5,0,0,1,.456-1.149,1.553,1.553,0,0,1,1.1-.428,1.553,1.553,0,0,1,1.1.428,1.5,1.5,0,0,1,.456,1.149,1.515,1.515,0,0,1-.456,1.13A1.518,1.518,0,0,1,29.158-7.106Zm0,7.239a1.518,1.518,0,0,1-1.1-.446A1.515,1.515,0,0,1,27.6-1.444a1.5,1.5,0,0,1,.456-1.15,1.553,1.553,0,0,1,1.1-.427,1.553,1.553,0,0,1,1.1.427,1.5,1.5,0,0,1,.456,1.15A1.515,1.515,0,0,1,30.26-.313,1.518,1.518,0,0,1,29.158.133Zm8.709.055a5.189,5.189,0,0,1-2.844-.8,5.455,5.455,0,0,1-1.987-2.325,8.565,8.565,0,0,1-.728-3.712,8.565,8.565,0,0,1,.728-3.712,5.455,5.455,0,0,1,1.987-2.325,5.189,5.189,0,0,1,2.844-.8,5.189,5.189,0,0,1,2.844.8A5.455,5.455,0,0,1,42.7-10.362a8.565,8.565,0,0,1,.728,3.712A8.565,8.565,0,0,1,42.7-2.938,5.455,5.455,0,0,1,40.711-.612,5.189,5.189,0,0,1,37.866.188Zm0-2.152a2.654,2.654,0,0,0,1.606-.5,3.254,3.254,0,0,0,1.079-1.541,7.615,7.615,0,0,0,.39-2.643,7.613,7.613,0,0,0-.39-2.644,3.255,3.255,0,0,0-1.079-1.54,2.654,2.654,0,0,0-1.606-.5,2.664,2.664,0,0,0-1.6.5,3.228,3.228,0,0,0-1.087,1.54,7.613,7.613,0,0,0-.39,2.644,7.615,7.615,0,0,0,.39,2.643,3.228,3.228,0,0,0,1.087,1.541A2.664,2.664,0,0,0,37.866-1.964ZM50.65.188a5.189,5.189,0,0,1-2.844-.8,5.455,5.455,0,0,1-1.987-2.325A8.565,8.565,0,0,1,45.09-6.65a8.565,8.565,0,0,1,.728-3.712,5.455,5.455,0,0,1,1.987-2.325,5.189,5.189,0,0,1,2.844-.8,5.189,5.189,0,0,1,2.844.8,5.455,5.455,0,0,1,1.987,2.325A8.565,8.565,0,0,1,56.21-6.65a8.565,8.565,0,0,1-.728,3.712A5.455,5.455,0,0,1,53.495-.612,5.189,5.189,0,0,1,50.65.188Zm0-2.152a2.654,2.654,0,0,0,1.606-.5,3.254,3.254,0,0,0,1.079-1.541,7.615,7.615,0,0,0,.39-2.643,7.613,7.613,0,0,0-.39-2.644,3.255,3.255,0,0,0-1.079-1.54,2.654,2.654,0,0,0-1.606-.5,2.664,2.664,0,0,0-1.6.5,3.228,3.228,0,0,0-1.087,1.54,7.613,7.613,0,0,0-.39,2.644,7.615,7.615,0,0,0,.39,2.643,3.228,3.228,0,0,0,1.087,1.541A2.664,2.664,0,0,0,50.65-1.964Z" transform="translate(175 245)" fill="#9b9b9b"/>
    </g>
  </g>
</svg>
