<svg xmlns="http://www.w3.org/2000/svg" xmlns:xlink="http://www.w3.org/1999/xlink" width="1311" height="1263" viewBox="0 0 1311 1263">
  <defs>
    <clipPath id="clip-Artboard_12">
      <rect width="1311" height="1263"/>
    </clipPath>
  </defs>
  <g id="Artboard_12" data-name="Artboard – 12" clip-path="url(#clip-Artboard_12)">
    <rect width="1311" height="1263" fill="#e7eff3"/>
    <g id="Logo" transform="translate(-77.097 -759.944) rotate(31)">
      <path id="Path_5078" data-name="Path 5078" d="M2439.673,1021.728c-33.517-308.257-293.821-541.794-603.895-541.794s-570.383,233.537-603.9,541.794c-325.773,29.562-569.636,311.781-551.63,638.4s291.406,580.322,618.455,573.906h536.814c187.3,0,339.132-151.837,339.132-339.134s-151.837-339.135-339.132-339.135A197.857,197.857,0,1,1,1975.58,1217.5a70.632,70.632,0,1,0,100.15-99.628A339.133,339.133,0,1,0,1835.69,1696c109.274,0,197.861,88.58,197.861,197.854s-88.587,197.859-197.861,197.859H1298.7c-257.559,0-466.354-208.795-466.354-466.352s208.8-466.351,466.354-466.351a70.465,70.465,0,0,0,70.463-70.463c0-257.561,208.791-466.354,466.352-466.354s466.35,208.794,466.35,466.354a70.639,70.639,0,0,0,70.64,70.463c257.559,0,466.354,208.791,466.354,466.351s-208.795,466.352-466.354,466.352a70.637,70.637,0,1,0,0,141.273c323.3,1.161,590.855-251.1,608.708-573.907s-220.262-603.037-541.715-637.528Z" transform="translate(-680 -480)" fill="#417da5"/>
    </g>
  </g>
</svg>
