<svg xmlns="http://www.w3.org/2000/svg" width="350" height="200" viewBox="0 0 350 200"><g transform="translate(-190 -242)"><rect width="350" height="200" transform="translate(190 242)" fill="#fff7f7"/><g transform="translate(320 294)"><path d="M78.511,13.841a36.043,36.043,0,0,0-3.1-5.255L62.722,13.206a23.724,23.724,0,0,1,3.73,5.025ZM22.406,27.879,9.71,32.5a36.921,36.921,0,0,0,1.006,6.018l12.061-4.391a23.6,23.6,0,0,1-.371-6.246" transform="translate(5.297 4.684)" fill="#c22133"/><path d="M52.486,14.929a23.5,23.5,0,0,1,6.858,4.884l12.692-4.619a36.283,36.283,0,0,0-65.7,23.912l12.694-4.619a23.519,23.519,0,0,1,33.46-19.558" transform="translate(3.392 0)" fill="#db212e"/><path d="M63.628,26.3a23.28,23.28,0,0,1-2.131,8.15A23.613,23.613,0,0,1,30.151,45.855a23.353,23.353,0,0,1-6.872-4.876L10.612,45.588a36,36,0,0,0,14.162,11.8A36.351,36.351,0,0,0,73.026,39.822a35.938,35.938,0,0,0,3.269-18.136L63.628,26.3Z" transform="translate(5.789 11.829)" fill="#db212e"/><path d="M70.864,14.641,58.8,19.03a23.663,23.663,0,0,1,2.952,13.283l12.667-4.607a36.574,36.574,0,0,0-3.558-13.065M15.129,34.924,3.069,39.317A36.718,36.718,0,0,0,8.741,51.611L21.406,47a23.706,23.706,0,0,1-6.277-12.076" transform="translate(1.674 7.986)" fill="#eb2126"/><path d="M76.673,10.5c-.4-.649-.815-1.289-1.258-1.911L62.723,13.206a22.576,22.576,0,0,1,1.563,1.8ZM22.358,30.428a22.462,22.462,0,0,1,.048-2.548L9.71,32.5c.066.813.168,1.621.29,2.426l12.358-4.5Z" transform="translate(5.296 4.684)" fill="#ad213b"/><path d="M76.294,21.686,63.627,26.295a23.175,23.175,0,0,1-1.07,5.448l13.788-5.027a36.405,36.405,0,0,0-.05-5.031M10.613,45.59a35.962,35.962,0,0,0,3.228,3.92l13.79-5.029a23.435,23.435,0,0,1-4.352-3.5Z" transform="translate(5.789 11.829)" fill="#ba2133"/><path d="M81.43,54.6v1.144h3.317V65.867H86V55.739h3.319V54.6Zm-7.617,1.143v3.736H76.9v1.144H73.813v5.249H72.557V54.6h6.618v1.142H73.813ZM68.067,54.6h1.256V65.869H68.067ZM63.579,65.867V60.553h-5.6v5.315H56.719V54.6h1.256v4.816h5.6V54.6h1.256V65.867Zm-13.394.177A5.373,5.373,0,0,1,46.4,64.484l.838-.935A4.279,4.279,0,0,0,50.233,64.9c1.5,0,2.432-.742,2.432-1.934,0-1.047-.628-1.642-2.689-2.384-2.432-.869-3.253-1.658-3.253-3.284,0-1.8,1.416-2.884,3.526-2.884a5.046,5.046,0,0,1,3.431,1.209l-.806.981a3.924,3.924,0,0,0-2.7-1.047c-1.547,0-2.191.773-2.191,1.659,0,.935.419,1.464,2.674,2.272,2.5.9,3.269,1.739,3.269,3.414,0,1.772-1.385,3.139-3.736,3.139m-8.873-.177-4.138-6.151c-.274-.419-.645-.983-.79-1.273,0,.419.033,1.835.033,2.463v4.961H34.193V54.6H36.35l4,5.958c.274.419.643.983.788,1.273,0-.419-.031-1.835-.031-2.465V54.6h2.222V65.867H41.311Zm-17.775,0V54.6h7.826V56.8H25.791V58.75h3.238v2.189H25.791v2.722H31.6v2.206Zm-6.406-3.993h-2.48v3.993H12.4V54.6h4.928c2.125,0,3.881,1.176,3.881,3.574,0,2.61-1.739,3.705-4.074,3.705m.114-5.088H14.651v2.9h2.625c1.047,0,1.611-.485,1.611-1.466s-.645-1.431-1.642-1.431M4.961,66.045C2.013,66.045,0,63.887,0,60.247s2.046-5.83,4.994-5.83c2.931,0,4.944,2.16,4.944,5.8s-2.046,5.828-4.976,5.828m-.015-9.389c-1.578,0-2.625,1.273-2.625,3.56s1.1,3.589,2.674,3.589,2.623-1.271,2.623-3.558-1.093-3.591-2.672-3.591" transform="translate(0 29.683)" fill="#241f21"/></g></g></svg>