<svg xmlns="http://www.w3.org/2000/svg" xmlns:xlink="http://www.w3.org/1999/xlink" width="350" height="200" viewBox="0 0 350 200"><defs><clipPath id="a"><rect width="64.207" height="27.913" fill="rgba(25,95,140,0.1)"/></clipPath><clipPath id="g"><rect width="350" height="200"/></clipPath></defs><g id="f" clip-path="url(#g)"><rect width="350" height="200" fill="#fff"/><rect width="350" height="200" fill="rgba(25,95,140,0.1)"/><path d="M109.609,79.708,60.483,64.614a14.069,14.069,0,0,0-8.241,0L3.114,79.708a4.146,4.146,0,0,0,0,8.029l8.565,2.631a13.878,13.878,0,0,0-3.149,8.26,5.434,5.434,0,0,0-.449,9.338L3.585,128.2a2.817,2.817,0,0,0,2.749,3.429h9.882a2.818,2.818,0,0,0,2.751-3.429l-4.5-20.232a5.42,5.42,0,0,0-.317-9.25A8.308,8.308,0,0,1,17.8,92.249L52.24,102.832a14.085,14.085,0,0,0,8.241,0l49.128-15.093A4.147,4.147,0,0,0,109.609,79.708ZM62.137,108.219a19.715,19.715,0,0,1-11.552,0l-25.541-7.846-2.5,19.982c0,6.226,15.139,11.271,33.815,11.271s33.815-5.046,33.815-11.271l-2.5-19.984Z" transform="translate(118.995 2.003)" fill="#195f8c"/><g transform="matrix(0.985, -0.174, 0.174, 0.985, -325.431, -71.545)"><g transform="translate(419.467 142.257)"><path d="M11.209.06A11.173,11.173,0,0,1,18.9,3.128a10.722,10.722,0,0,1,2.749,4.053,11.65,11.65,0,0,1,.6,2.412c.109.712.166,1.427.242,2.146A6.877,6.877,0,0,0,27.5,17.664a6.278,6.278,0,0,0,2.378.128A6.373,6.373,0,0,0,33.4,16.176c.182-.164.347-.347.525-.516a1.177,1.177,0,0,1,1.083-.35,1.2,1.2,0,0,1,.488.234c.538.4,1.067.823,1.617,1.206a1.3,1.3,0,0,1,.221,2.005,10.169,10.169,0,0,1-1.453,1.364,10.564,10.564,0,0,1-5.11,2.208,11.044,11.044,0,0,1-9.681-3.139,1.526,1.526,0,0,0-.684-.451,1.128,1.128,0,0,0-1.13.327,11.825,11.825,0,0,1-1.427,1.249,10.988,10.988,0,0,1-5.032,2.042,10.7,10.7,0,0,1-1.752.114,11.049,11.049,0,0,1-6.8-2.44A11.1,11.1,0,0,1,.4,14.208a10.736,10.736,0,0,1-.388-3.358A10.955,10.955,0,0,1,3.049,3.609,10.967,10.967,0,0,1,9.289.235,14.241,14.241,0,0,1,11.209.06ZM17.758,11.3a7,7,0,0,0-.2-1.673,6.251,6.251,0,0,0-2.921-3.966,6.385,6.385,0,0,0-4.513-.892,6.3,6.3,0,0,0-3.615,1.9,6.35,6.35,0,0,0-1.727,5.993,6.609,6.609,0,0,0,6.123,5.184,6.275,6.275,0,0,0,3.346-.736A6.358,6.358,0,0,0,17.758,11.3Z" transform="translate(-0.006 -0.051)" fill="rgba(25,95,140,0.1)"/><path d="M416.874,11.682V1.844a2.731,2.731,0,0,1,.148-.907,1.234,1.234,0,0,1,.83-.783,2.769,2.769,0,0,1,.888-.134c2.75,0,5.5-.016,8.252.009A8.714,8.714,0,0,1,430.03.59a5.957,5.957,0,0,1,2.3,1.507,5.573,5.573,0,0,1,1.289,2.271,8.016,8.016,0,0,1,.285,1.771,6.529,6.529,0,0,1-.642,3.307,4.141,4.141,0,0,1-1.771,1.86c-.153.083-.32.14-.476.22-.171.089-.171.19,0,.285a3.4,3.4,0,0,1,.713.466,4.055,4.055,0,0,1,1.064,1.578,17.712,17.712,0,0,1,.639,2.207q.709,2.777,1.427,5.553a1.2,1.2,0,0,1,.033.376.407.407,0,0,1-.33.408,1.408,1.408,0,0,1-.352.041H431a3.224,3.224,0,0,1-.542-.056.874.874,0,0,1-.748-.728q-.166-.7-.34-1.4c-.348-1.4-.691-2.806-1.053-4.205a4.445,4.445,0,0,0-.72-1.589,2.626,2.626,0,0,0-1.6-.991,4.862,4.862,0,0,0-1.083-.1c-.944.006-1.886,0-2.83,0h-.166c-.111-.009-.162.038-.154.151v8.174c0,.119,0,.238-.007.357a.35.35,0,0,1-.324.35,2.891,2.891,0,0,1-.476.044H417.8a1.375,1.375,0,0,1-.329-.032.73.73,0,0,1-.6-.722v-.19Zm4.94-4.819V9.189c0,.229,0,.229.24.231h.048c1.338,0,2.677.006,4.015,0a3.407,3.407,0,0,0,1.3-.235,2.274,2.274,0,0,0,1.408-1.557,3.124,3.124,0,0,0,.081-1.035,2.2,2.2,0,0,0-.993-1.821,2.723,2.723,0,0,0-1.5-.433c-1.45-.006-2.9,0-4.348,0h-.118c-.1,0-.126.048-.125.133V6.863Z" transform="translate(-377.217 -0.01)" fill="rgba(25,95,140,0.1)"/><path d="M625.684-.034H630.3a1.82,1.82,0,0,1,.4.041.342.342,0,0,1,.285.277,1.625,1.625,0,0,1,.048.351v2.9a1.341,1.341,0,0,1-.034.285.408.408,0,0,1-.345.341,1.483,1.483,0,0,1-.329.03h-7.916a3.018,3.018,0,0,0-1.123.142,1.506,1.506,0,0,0-1,1.221,3.929,3.929,0,0,0-.049.731v1.4a.881.881,0,0,0,.793.887,3.99,3.99,0,0,0,.638.041h7.894a.4.4,0,0,1,.421.392,6.086,6.086,0,0,1,.046.684q-.009,1.461,0,2.923a5.554,5.554,0,0,1-.043.732.415.415,0,0,1-.419.4c-.11.008-.222,0-.333,0h-7.823a1.807,1.807,0,0,0-.6.1.8.8,0,0,0-.564.773c-.016.625-.023,1.252,0,1.877a1.682,1.682,0,0,0,.493,1.2,1.7,1.7,0,0,0,.863.417,3.288,3.288,0,0,0,.684.057h8.2a.486.486,0,0,1,.533.461,1.127,1.127,0,0,1,.012.19v2.923a1.127,1.127,0,0,1-.056.349.352.352,0,0,1-.285.256,2.439,2.439,0,0,1-.424.043c-3.019,0-6.039.006-9.059-.006a6.95,6.95,0,0,1-2.622-.47,4.736,4.736,0,0,1-2.473-2.188,6.182,6.182,0,0,1-.689-2.229,10.783,10.783,0,0,1-.084-1.322q0-5.137,0-10.287a7.1,7.1,0,0,1,.476-2.642A4.877,4.877,0,0,1,618.06.694a6.182,6.182,0,0,1,2.093-.641,14.21,14.21,0,0,1,1.918-.087Z" transform="translate(-556.802 0.038)" fill="rgba(25,95,140,0.1)"/><path d="M243.376.07a11.246,11.246,0,0,1,7.164,2.562,1.325,1.325,0,0,1,.113,2.04c-.438.446-.883.887-1.332,1.332a1.332,1.332,0,0,1-1.805.11A7.249,7.249,0,0,0,246.4,5.4a6.618,6.618,0,0,0-6.546.346,1.019,1.019,0,0,1-.649.185.842.842,0,0,1-.729-.532q-.246-.539-.538-1.057a10.811,10.811,0,0,0-.806-1.26.834.834,0,0,1,.239-1.237A11.263,11.263,0,0,1,241.784.2C242.326.119,242.871.094,243.376.07Z" transform="translate(-214.414 -0.06)" fill="rgba(25,95,140,0.1)"/></g><g transform="translate(264.653 142.97)"><g transform="translate(0 0)"><path d="M0,10.676c.028-.144.058-.288.084-.43A3.225,3.225,0,0,1,.994,8.5Q4.758,4.73,8.525.969a3.316,3.316,0,0,1,4.692.015q1.43,1.427,2.858,2.856c.041.041.084.081.126.123A10,10,0,0,1,24.516.785,9.772,9.772,0,0,1,31.227,4.2a10.071,10.071,0,0,1-.514,13.8A9.9,9.9,0,0,1,23.4,20.918a10.093,10.093,0,0,1-7.212-3.244,1.332,1.332,0,0,1-.108.143q-1.422,1.424-2.846,2.847a3.324,3.324,0,0,1-1.753.937l-.389.074h-.472c-.085-.019-.17-.042-.256-.055a3.191,3.191,0,0,1-1.815-.9Q4.758,16.933.974,13.144a3.186,3.186,0,0,1-.888-1.712c-.029-.154-.057-.307-.086-.462ZM16.214,3.984a10.049,10.049,0,0,0,0,13.687c.025-.022.052-.042.076-.066l.492-.492L20.7,13.194A3.316,3.316,0,0,0,20.71,8.47L16.32,4.085C16.285,4.051,16.249,4.018,16.214,3.984Z" transform="translate(0 -0.004)" fill="rgba(25,95,140,0.1)"/><path d="M1202.7,76.745c-.246.073-.483.165-.73.217a4.535,4.535,0,0,1-2.26-.079,3.31,3.31,0,0,1-2.316-2.33,5.3,5.3,0,0,1-.208-1.586V65.806H1195V63.994h2.178V60.758c.117-.036,1.931-.047,2.177-.016v3.246h3.237a16.156,16.156,0,0,1,.018,1.813c-.176.007-.355,0-.534,0h-2.7c0,.052-.01.094-.01.136v6.988a3.088,3.088,0,0,0,.115.861,1.678,1.678,0,0,0,1.579,1.322,3.778,3.778,0,0,0,1.647-.252Z" transform="translate(-1121.541 -56.992)" fill="rgba(25,95,140,0.1)"/><path d="M658.14,41.3h2.266c.028.184.052.369.086.553a4.346,4.346,0,0,0,1.045,2.19,3.991,3.991,0,0,0,2.036,1.18,5.642,5.642,0,0,0,3.281-.13,3.139,3.139,0,0,0,1.547-1.106,2.562,2.562,0,0,0,.482-1.721,2.536,2.536,0,0,0-1.091-1.952,6.188,6.188,0,0,0-1.54-.793c-.7-.266-1.428-.466-2.151-.676a20.172,20.172,0,0,1-2.424-.826,6.407,6.407,0,0,1-1.624-.976,3.8,3.8,0,0,1-1.339-2.512,4.662,4.662,0,0,1,.2-2.123,4.331,4.331,0,0,1,1.813-2.254,6,6,0,0,1,2.152-.849,8.578,8.578,0,0,1,4.085.168,5.411,5.411,0,0,1,2.625,1.641,5.6,5.6,0,0,1,1.226,2.484c.047.205.081.414.123.62-.116.034-1.989.046-2.3.017-.014-.061-.03-.128-.045-.193a3.456,3.456,0,0,0-2.505-2.664,5.317,5.317,0,0,0-3.319.07,2.585,2.585,0,0,0-1.272.894,2.309,2.309,0,0,0-.388,2.039,1.856,1.856,0,0,0,.566.9,3.7,3.7,0,0,0,.961.621,12.531,12.531,0,0,0,1.832.646c.806.235,1.614.462,2.416.71a9.4,9.4,0,0,1,1.919.825,5.236,5.236,0,0,1,1.381,1.111,4.276,4.276,0,0,1,.984,2.188,5.561,5.561,0,0,1-.017,1.906,4.538,4.538,0,0,1-1.721,2.78,6.052,6.052,0,0,1-2.459,1.129,8.726,8.726,0,0,1-4.445-.133,5.919,5.919,0,0,1-2.842-1.79,6.18,6.18,0,0,1-1.346-2.687A7.756,7.756,0,0,1,658.14,41.3Z" transform="translate(-617.683 -27.343)" fill="rgba(25,95,140,0.1)"/><path d="M1017.144,47.245h-2.5a.246.246,0,0,1-.22-.109q-2.325-3.083-4.654-6.164l-.138-.18c-.045.038-.083.069-.119.1-.553.508-1.106,1.019-1.66,1.525a.308.308,0,0,0-.112.253q.006,2.182,0,4.364v.2h-2.186V29.2c.107-.03,2.023-.035,2.185,0V39.673c.062-.049.1-.074.133-.1l2.873-2.54q1.441-1.275,2.88-2.552a.381.381,0,0,1,.277-.1c.861,0,1.721,0,2.582,0h.155l.009.032-5.382,4.9Z" transform="translate(-943.746 -27.379)" fill="rgba(25,95,140,0.1)"/><path d="M916.274,126.692h-2.151a.081.081,0,0,1-.018-.013.028.028,0,0,1-.006-.013.384.384,0,0,1-.009-.058V113.917a.5.5,0,0,1,.007-.055,21.619,21.619,0,0,1,2.179-.006Z" transform="translate(-857.899 -106.834)" fill="rgba(25,95,140,0.1)"/><path d="M907.392,27.3a1.428,1.428,0,0,1,1.429-1.475,1.648,1.648,0,0,1,.7.133,1.415,1.415,0,0,1,.84,1.521,1.447,1.447,0,0,1-1.645,1.249,1.392,1.392,0,0,1-1.189-.8A1.331,1.331,0,0,1,907.392,27.3Z" transform="translate(-851.613 -24.239)" fill="rgba(25,95,140,0.1)"/></g></g><g transform="translate(513.258 140.121)" clip-path="url(#a)"><path d="M15.509,17.67a2.013,2.013,0,0,1,1.221-.57.944.944,0,0,1,1.058.9c-.163.081-3.662,1.221-3.825,1.3-.081-.081-.081-.163-.163-.163C13.963,18.972,15.509,17.67,15.509,17.67Z" transform="translate(-2.57 -3.184)" fill="rgba(25,95,140,0.1)"/><path d="M0,25.79C0,29.7,1.709,31.73,5.127,31.73a5.768,5.768,0,0,0,3.662-1.058l.081-.081V25.139H4.232v1.546H7v3.092a4.079,4.079,0,0,1-1.953.407c-2.034,0-3.011-1.465-3.011-4.394,0-1.709.488-3.743,2.767-3.743,1.546,0,2.116.9,2.116,1.709V24H9.033v-.244C9.033,21.8,7.324,20.5,4.8,20.5,1.79,20.5,0,22.453,0,25.79Z" transform="translate(0 -3.818)" fill="rgba(25,95,140,0.1)"/><path d="M18.785,20.681H12.6v10.9h6.592V30.04h-4.72V26.622h4.313V25.076H14.472v-2.93h4.557V20.6h-.244Z" transform="translate(-2.346 -3.836)" fill="rgba(25,95,140,0.1)"/><path d="M50.776,20.7h-9.44v8.056C40.6,27.454,36.7,20.7,36.7,20.7H34.5V31.6h1.872V23.548C37.1,24.85,41.01,31.6,41.01,31.6h2.2V22.246h3.011V31.6h1.953V22.246H51.1V20.7Z" transform="translate(-6.425 -3.855)" fill="rgba(25,95,140,0.1)"/><path d="M27.5,20.7H25.469L21.4,31.6h1.953s1.058-2.848,1.221-3.174h3.988c.081.326,1.221,3.174,1.221,3.174h1.872Zm-2.441,6.185c.163-.57,1.139-3.174,1.465-4.069.326.9,1.221,3.5,1.465,4.069Z" transform="translate(-3.985 -3.855)" fill="rgba(25,95,140,0.1)"/><path d="M66.553,7.286c-7.161-8.87-36.132,3.662-43.944,6.917a1.255,1.255,0,0,1-1.709-.651,1.273,1.273,0,0,0,1.79.814c10.335-4.15,35.318-13.1,41.584-4.883,2.848,3.743,2.034,8.3-1.058,14.729a2.3,2.3,0,0,0-.244.488v.163a1.443,1.443,0,0,1-.814.651,1.289,1.289,0,0,0,1.058-.651,4.822,4.822,0,0,0,.326-.488C67.936,16.645,69.564,10.948,66.553,7.286Z" transform="translate(-3.892 -0.776)" fill="rgba(25,95,140,0.1)"/><path d="M60.856,24.339c-.081-.081-1.383-1.221-2.685-2.441-6.754-6.429-27.343-26.2-36.294-21-2.523,1.465-2.93,5.778-1.383,11.474,0,.081.081.163.081.244a1.206,1.206,0,0,0,1.139.977,1.28,1.28,0,0,1-.9-.814.284.284,0,0,0-.081-.163c0-.081-.081-.163-.081-.326,0-.081,0-.163-.081-.163-.814-4.8.163-7.975,2.116-9.277,7.243-4.883,24.495,10.009,33.2,17.5,1.953,1.709,4.232,3.662,4.883,4.15a1.362,1.362,0,0,0,2.034-.488A1.3,1.3,0,0,1,60.856,24.339Z" transform="translate(-3.647 -0.007)" fill="rgba(25,95,140,0.1)"/></g><g transform="translate(367.486 133)"><text transform="translate(0.047 38.933)" fill="rgba(25,95,140,0.1)" font-size="9" font-family="Helvetica"><tspan x="0" y="0">SUNET</tspan></text><path d="M3.465,16.287V3.817c0-.091.194-.347.347-.347H32.2V0H3.812C2.387,0,0,.5,0,3.817V16.288a3.541,3.541,0,0,0,3.817,3.817H21.44v-3.47H3.812a.394.394,0,0,1-.347-.348Z" transform="translate(0.016)" fill="rgba(25,95,140,0.1)"/><path d="M28.9,36.852V49.319c0,.091-.194.347-.347.347H.172v3.471H28.558c1.424,0,3.817-.5,3.817-3.817V36.852a3.542,3.542,0,0,0-3.817-3.817H10.929V36.5H28.558a.393.393,0,0,1,.347.347Z" transform="translate(-0.117 -24.736)" fill="rgba(25,95,140,0.1)"/></g><g transform="translate(425.73 194.644)"><g transform="translate(0 0)"><path d="M0,10.676c.028-.144.058-.288.084-.43A3.225,3.225,0,0,1,.994,8.5Q4.758,4.73,8.525.969a3.316,3.316,0,0,1,4.692.015q1.43,1.427,2.858,2.856c.041.041.084.081.126.123A10,10,0,0,1,24.516.785,9.772,9.772,0,0,1,31.227,4.2a10.071,10.071,0,0,1-.514,13.8A9.9,9.9,0,0,1,23.4,20.918a10.093,10.093,0,0,1-7.212-3.244,1.332,1.332,0,0,1-.108.143q-1.422,1.424-2.846,2.847a3.324,3.324,0,0,1-1.753.937l-.389.074h-.472c-.085-.019-.17-.042-.256-.055a3.191,3.191,0,0,1-1.815-.9Q4.758,16.933.974,13.144a3.186,3.186,0,0,1-.888-1.712c-.029-.154-.057-.307-.086-.462ZM16.214,3.984a10.049,10.049,0,0,0,0,13.687c.025-.022.052-.042.076-.066l.492-.492L20.7,13.194A3.316,3.316,0,0,0,20.71,8.47L16.32,4.085C16.285,4.051,16.249,4.018,16.214,3.984Z" transform="translate(0 -0.004)" fill="rgba(25,95,140,0.1)"/><path d="M1202.7,76.745c-.246.073-.483.165-.73.217a4.535,4.535,0,0,1-2.26-.079,3.31,3.31,0,0,1-2.316-2.33,5.3,5.3,0,0,1-.208-1.586V65.806H1195V63.994h2.178V60.758c.117-.036,1.931-.047,2.177-.016v3.246h3.237a16.156,16.156,0,0,1,.018,1.813c-.176.007-.355,0-.534,0h-2.7c0,.052-.01.094-.01.136v6.988a3.088,3.088,0,0,0,.115.861,1.678,1.678,0,0,0,1.579,1.322,3.778,3.778,0,0,0,1.647-.252Z" transform="translate(-1121.541 -56.992)" fill="rgba(25,95,140,0.1)"/><path d="M658.14,41.3h2.266c.028.184.052.369.086.553a4.346,4.346,0,0,0,1.045,2.19,3.991,3.991,0,0,0,2.036,1.18,5.642,5.642,0,0,0,3.281-.13,3.139,3.139,0,0,0,1.547-1.106,2.562,2.562,0,0,0,.482-1.721,2.536,2.536,0,0,0-1.091-1.952,6.188,6.188,0,0,0-1.54-.793c-.7-.266-1.428-.466-2.151-.676a20.172,20.172,0,0,1-2.424-.826,6.407,6.407,0,0,1-1.624-.976,3.8,3.8,0,0,1-1.339-2.512,4.662,4.662,0,0,1,.2-2.123,4.331,4.331,0,0,1,1.813-2.254,6,6,0,0,1,2.152-.849,8.578,8.578,0,0,1,4.085.168,5.411,5.411,0,0,1,2.625,1.641,5.6,5.6,0,0,1,1.226,2.484c.047.205.081.414.123.62-.116.034-1.989.046-2.3.017-.014-.061-.03-.128-.045-.193a3.456,3.456,0,0,0-2.505-2.664,5.317,5.317,0,0,0-3.319.07,2.585,2.585,0,0,0-1.272.894,2.309,2.309,0,0,0-.388,2.039,1.856,1.856,0,0,0,.566.9,3.7,3.7,0,0,0,.961.621,12.531,12.531,0,0,0,1.832.646c.806.235,1.614.462,2.416.71a9.4,9.4,0,0,1,1.919.825,5.236,5.236,0,0,1,1.381,1.111,4.276,4.276,0,0,1,.984,2.188,5.561,5.561,0,0,1-.017,1.906,4.538,4.538,0,0,1-1.721,2.78,6.052,6.052,0,0,1-2.459,1.129,8.726,8.726,0,0,1-4.445-.133,5.919,5.919,0,0,1-2.842-1.79,6.18,6.18,0,0,1-1.346-2.687A7.756,7.756,0,0,1,658.14,41.3Z" transform="translate(-617.683 -27.343)" fill="rgba(25,95,140,0.1)"/><path d="M1017.144,47.245h-2.5a.246.246,0,0,1-.22-.109q-2.325-3.083-4.654-6.164l-.138-.18c-.045.038-.083.069-.119.1-.553.508-1.106,1.019-1.66,1.525a.308.308,0,0,0-.112.253q.006,2.182,0,4.364v.2h-2.186V29.2c.107-.03,2.023-.035,2.185,0V39.673c.062-.049.1-.074.133-.1l2.873-2.54q1.441-1.275,2.88-2.552a.381.381,0,0,1,.277-.1c.861,0,1.721,0,2.582,0h.155l.009.032-5.382,4.9Z" transform="translate(-943.746 -27.379)" fill="rgba(25,95,140,0.1)"/><path d="M916.274,126.692h-2.151a.081.081,0,0,1-.018-.013.028.028,0,0,1-.006-.013.384.384,0,0,1-.009-.058V113.917a.5.5,0,0,1,.007-.055,21.619,21.619,0,0,1,2.179-.006Z" transform="translate(-857.899 -106.834)" fill="rgba(25,95,140,0.1)"/><path d="M907.392,27.3a1.428,1.428,0,0,1,1.429-1.475,1.648,1.648,0,0,1,.7.133,1.415,1.415,0,0,1,.84,1.521,1.447,1.447,0,0,1-1.645,1.249,1.392,1.392,0,0,1-1.189-.8A1.331,1.331,0,0,1,907.392,27.3Z" transform="translate(-851.613 -24.239)" fill="rgba(25,95,140,0.1)"/></g></g><g transform="translate(524.877 184.181)"><text transform="translate(0.047 38.933)" fill="rgba(25,95,140,0.1)" font-size="9" font-family="Helvetica"><tspan x="0" y="0">SUNET</tspan></text><path d="M3.465,16.287V3.817c0-.091.194-.347.347-.347H32.2V0H3.812C2.387,0,0,.5,0,3.817V16.288a3.541,3.541,0,0,0,3.817,3.817H21.44v-3.47H3.812a.394.394,0,0,1-.347-.348Z" transform="translate(0.016)" fill="rgba(25,95,140,0.1)"/><path d="M28.9,36.852V49.319c0,.091-.194.347-.347.347H.172v3.471H28.558c1.424,0,3.817-.5,3.817-3.817V36.852a3.542,3.542,0,0,0-3.817-3.817H10.929V36.5H28.558a.393.393,0,0,1,.347.347Z" transform="translate(-0.117 -24.736)" fill="rgba(25,95,140,0.1)"/></g><g transform="translate(246.482 193.358)"><path d="M11.209.06A11.173,11.173,0,0,1,18.9,3.128a10.722,10.722,0,0,1,2.749,4.053,11.65,11.65,0,0,1,.6,2.412c.109.712.166,1.427.242,2.146A6.877,6.877,0,0,0,27.5,17.664a6.278,6.278,0,0,0,2.378.128A6.373,6.373,0,0,0,33.4,16.176c.182-.164.347-.347.525-.516a1.177,1.177,0,0,1,1.083-.35,1.2,1.2,0,0,1,.488.234c.538.4,1.067.823,1.617,1.206a1.3,1.3,0,0,1,.221,2.005,10.169,10.169,0,0,1-1.453,1.364,10.564,10.564,0,0,1-5.11,2.208,11.044,11.044,0,0,1-9.681-3.139,1.526,1.526,0,0,0-.684-.451,1.128,1.128,0,0,0-1.13.327,11.825,11.825,0,0,1-1.427,1.249,10.988,10.988,0,0,1-5.032,2.042,10.7,10.7,0,0,1-1.752.114,11.049,11.049,0,0,1-6.8-2.44A11.1,11.1,0,0,1,.4,14.208a10.736,10.736,0,0,1-.388-3.358A10.955,10.955,0,0,1,3.049,3.609,10.967,10.967,0,0,1,9.289.235,14.241,14.241,0,0,1,11.209.06ZM17.758,11.3a7,7,0,0,0-.2-1.673,6.251,6.251,0,0,0-2.921-3.966,6.385,6.385,0,0,0-4.513-.892,6.3,6.3,0,0,0-3.615,1.9,6.35,6.35,0,0,0-1.727,5.993,6.609,6.609,0,0,0,6.123,5.184,6.275,6.275,0,0,0,3.346-.736A6.358,6.358,0,0,0,17.758,11.3Z" transform="translate(-0.006 -0.051)" fill="rgba(25,95,140,0.1)"/><path d="M416.874,11.682V1.844a2.731,2.731,0,0,1,.148-.907,1.234,1.234,0,0,1,.83-.783,2.769,2.769,0,0,1,.888-.134c2.75,0,5.5-.016,8.252.009A8.714,8.714,0,0,1,430.03.59a5.957,5.957,0,0,1,2.3,1.507,5.573,5.573,0,0,1,1.289,2.271,8.016,8.016,0,0,1,.285,1.771,6.529,6.529,0,0,1-.642,3.307,4.141,4.141,0,0,1-1.771,1.86c-.153.083-.32.14-.476.22-.171.089-.171.19,0,.285a3.4,3.4,0,0,1,.713.466,4.055,4.055,0,0,1,1.064,1.578,17.712,17.712,0,0,1,.639,2.207q.709,2.777,1.427,5.553a1.2,1.2,0,0,1,.033.376.407.407,0,0,1-.33.408,1.408,1.408,0,0,1-.352.041H431a3.224,3.224,0,0,1-.542-.056.874.874,0,0,1-.748-.728q-.166-.7-.34-1.4c-.348-1.4-.691-2.806-1.053-4.205a4.445,4.445,0,0,0-.72-1.589,2.626,2.626,0,0,0-1.6-.991,4.862,4.862,0,0,0-1.083-.1c-.944.006-1.886,0-2.83,0h-.166c-.111-.009-.162.038-.154.151v8.174c0,.119,0,.238-.007.357a.35.35,0,0,1-.324.35,2.891,2.891,0,0,1-.476.044H417.8a1.375,1.375,0,0,1-.329-.032.73.73,0,0,1-.6-.722v-.19Zm4.94-4.819V9.189c0,.229,0,.229.24.231h.048c1.338,0,2.677.006,4.015,0a3.407,3.407,0,0,0,1.3-.235,2.274,2.274,0,0,0,1.408-1.557,3.124,3.124,0,0,0,.081-1.035,2.2,2.2,0,0,0-.993-1.821,2.723,2.723,0,0,0-1.5-.433c-1.45-.006-2.9,0-4.348,0h-.118c-.1,0-.126.048-.125.133V6.863Z" transform="translate(-377.217 -0.01)" fill="rgba(25,95,140,0.1)"/><path d="M625.684-.034H630.3a1.82,1.82,0,0,1,.4.041.342.342,0,0,1,.285.277,1.625,1.625,0,0,1,.048.351v2.9a1.341,1.341,0,0,1-.034.285.408.408,0,0,1-.345.341,1.483,1.483,0,0,1-.329.03h-7.916a3.018,3.018,0,0,0-1.123.142,1.506,1.506,0,0,0-1,1.221,3.929,3.929,0,0,0-.049.731v1.4a.881.881,0,0,0,.793.887,3.99,3.99,0,0,0,.638.041h7.894a.4.4,0,0,1,.421.392,6.086,6.086,0,0,1,.046.684q-.009,1.461,0,2.923a5.554,5.554,0,0,1-.043.732.415.415,0,0,1-.419.4c-.11.008-.222,0-.333,0h-7.823a1.807,1.807,0,0,0-.6.1.8.8,0,0,0-.564.773c-.016.625-.023,1.252,0,1.877a1.682,1.682,0,0,0,.493,1.2,1.7,1.7,0,0,0,.863.417,3.288,3.288,0,0,0,.684.057h8.2a.486.486,0,0,1,.533.461,1.127,1.127,0,0,1,.012.19v2.923a1.127,1.127,0,0,1-.056.349.352.352,0,0,1-.285.256,2.439,2.439,0,0,1-.424.043c-3.019,0-6.039.006-9.059-.006a6.95,6.95,0,0,1-2.622-.47,4.736,4.736,0,0,1-2.473-2.188,6.182,6.182,0,0,1-.689-2.229,10.783,10.783,0,0,1-.084-1.322q0-5.137,0-10.287a7.1,7.1,0,0,1,.476-2.642A4.877,4.877,0,0,1,618.06.694a6.182,6.182,0,0,1,2.093-.641,14.21,14.21,0,0,1,1.918-.087Z" transform="translate(-556.802 0.038)" fill="rgba(25,95,140,0.1)"/><path d="M243.376.07a11.246,11.246,0,0,1,7.164,2.562,1.325,1.325,0,0,1,.113,2.04c-.438.446-.883.887-1.332,1.332a1.332,1.332,0,0,1-1.805.11A7.249,7.249,0,0,0,246.4,5.4a6.618,6.618,0,0,0-6.546.346,1.019,1.019,0,0,1-.649.185.842.842,0,0,1-.729-.532q-.246-.539-.538-1.057a10.811,10.811,0,0,0-.806-1.26.834.834,0,0,1,.239-1.237A11.263,11.263,0,0,1,241.784.2C242.326.119,242.871.094,243.376.07Z" transform="translate(-214.414 -0.06)" fill="rgba(25,95,140,0.1)"/></g><g transform="translate(340.725 191.157)" clip-path="url(#a)"><path d="M15.509,17.67a2.013,2.013,0,0,1,1.221-.57.944.944,0,0,1,1.058.9c-.163.081-3.662,1.221-3.825,1.3-.081-.081-.081-.163-.163-.163C13.963,18.972,15.509,17.67,15.509,17.67Z" transform="translate(-2.57 -3.184)" fill="rgba(25,95,140,0.1)"/><path d="M0,25.79C0,29.7,1.709,31.73,5.127,31.73a5.768,5.768,0,0,0,3.662-1.058l.081-.081V25.139H4.232v1.546H7v3.092a4.079,4.079,0,0,1-1.953.407c-2.034,0-3.011-1.465-3.011-4.394,0-1.709.488-3.743,2.767-3.743,1.546,0,2.116.9,2.116,1.709V24H9.033v-.244C9.033,21.8,7.324,20.5,4.8,20.5,1.79,20.5,0,22.453,0,25.79Z" transform="translate(0 -3.818)" fill="rgba(25,95,140,0.1)"/><path d="M18.785,20.681H12.6v10.9h6.592V30.04h-4.72V26.622h4.313V25.076H14.472v-2.93h4.557V20.6h-.244Z" transform="translate(-2.346 -3.836)" fill="rgba(25,95,140,0.1)"/><path d="M50.776,20.7h-9.44v8.056C40.6,27.454,36.7,20.7,36.7,20.7H34.5V31.6h1.872V23.548C37.1,24.85,41.01,31.6,41.01,31.6h2.2V22.246h3.011V31.6h1.953V22.246H51.1V20.7Z" transform="translate(-6.425 -3.855)" fill="rgba(25,95,140,0.1)"/><path d="M27.5,20.7H25.469L21.4,31.6h1.953s1.058-2.848,1.221-3.174h3.988c.081.326,1.221,3.174,1.221,3.174h1.872Zm-2.441,6.185c.163-.57,1.139-3.174,1.465-4.069.326.9,1.221,3.5,1.465,4.069Z" transform="translate(-3.985 -3.855)" fill="rgba(25,95,140,0.1)"/><path d="M66.553,7.286c-7.161-8.87-36.132,3.662-43.944,6.917a1.255,1.255,0,0,1-1.709-.651,1.273,1.273,0,0,0,1.79.814c10.335-4.15,35.318-13.1,41.584-4.883,2.848,3.743,2.034,8.3-1.058,14.729a2.3,2.3,0,0,0-.244.488v.163a1.443,1.443,0,0,1-.814.651,1.289,1.289,0,0,0,1.058-.651,4.822,4.822,0,0,0,.326-.488C67.936,16.645,69.564,10.948,66.553,7.286Z" transform="translate(-3.892 -0.776)" fill="rgba(25,95,140,0.1)"/><path d="M60.856,24.339c-.081-.081-1.383-1.221-2.685-2.441-6.754-6.429-27.343-26.2-36.294-21-2.523,1.465-2.93,5.778-1.383,11.474,0,.081.081.163.081.244a1.206,1.206,0,0,0,1.139.977,1.28,1.28,0,0,1-.9-.814.284.284,0,0,0-.081-.163c0-.081-.081-.163-.081-.326,0-.081,0-.163-.081-.163-.814-4.8.163-7.975,2.116-9.277,7.243-4.883,24.495,10.009,33.2,17.5,1.953,1.709,4.232,3.662,4.883,4.15a1.362,1.362,0,0,0,2.034-.488A1.3,1.3,0,0,1,60.856,24.339Z" transform="translate(-3.647 -0.007)" fill="rgba(25,95,140,0.1)"/></g><g transform="translate(264.653 245.364)"><g transform="translate(0 0)"><path d="M0,10.676c.028-.144.058-.288.084-.43A3.225,3.225,0,0,1,.994,8.5Q4.758,4.73,8.525.969a3.316,3.316,0,0,1,4.692.015q1.43,1.427,2.858,2.856c.041.041.084.081.126.123A10,10,0,0,1,24.516.785,9.772,9.772,0,0,1,31.227,4.2a10.071,10.071,0,0,1-.514,13.8A9.9,9.9,0,0,1,23.4,20.918a10.093,10.093,0,0,1-7.212-3.244,1.332,1.332,0,0,1-.108.143q-1.422,1.424-2.846,2.847a3.324,3.324,0,0,1-1.753.937l-.389.074h-.472c-.085-.019-.17-.042-.256-.055a3.191,3.191,0,0,1-1.815-.9Q4.758,16.933.974,13.144a3.186,3.186,0,0,1-.888-1.712c-.029-.154-.057-.307-.086-.462ZM16.214,3.984a10.049,10.049,0,0,0,0,13.687c.025-.022.052-.042.076-.066l.492-.492L20.7,13.194A3.316,3.316,0,0,0,20.71,8.47L16.32,4.085C16.285,4.051,16.249,4.018,16.214,3.984Z" transform="translate(0 -0.004)" fill="rgba(25,95,140,0.1)"/><path d="M1202.7,76.745c-.246.073-.483.165-.73.217a4.535,4.535,0,0,1-2.26-.079,3.31,3.31,0,0,1-2.316-2.33,5.3,5.3,0,0,1-.208-1.586V65.806H1195V63.994h2.178V60.758c.117-.036,1.931-.047,2.177-.016v3.246h3.237a16.156,16.156,0,0,1,.018,1.813c-.176.007-.355,0-.534,0h-2.7c0,.052-.01.094-.01.136v6.988a3.088,3.088,0,0,0,.115.861,1.678,1.678,0,0,0,1.579,1.322,3.778,3.778,0,0,0,1.647-.252Z" transform="translate(-1121.541 -56.992)" fill="rgba(25,95,140,0.1)"/><path d="M658.14,41.3h2.266c.028.184.052.369.086.553a4.346,4.346,0,0,0,1.045,2.19,3.991,3.991,0,0,0,2.036,1.18,5.642,5.642,0,0,0,3.281-.13,3.139,3.139,0,0,0,1.547-1.106,2.562,2.562,0,0,0,.482-1.721,2.536,2.536,0,0,0-1.091-1.952,6.188,6.188,0,0,0-1.54-.793c-.7-.266-1.428-.466-2.151-.676a20.172,20.172,0,0,1-2.424-.826,6.407,6.407,0,0,1-1.624-.976,3.8,3.8,0,0,1-1.339-2.512,4.662,4.662,0,0,1,.2-2.123,4.331,4.331,0,0,1,1.813-2.254,6,6,0,0,1,2.152-.849,8.578,8.578,0,0,1,4.085.168,5.411,5.411,0,0,1,2.625,1.641,5.6,5.6,0,0,1,1.226,2.484c.047.205.081.414.123.62-.116.034-1.989.046-2.3.017-.014-.061-.03-.128-.045-.193a3.456,3.456,0,0,0-2.505-2.664,5.317,5.317,0,0,0-3.319.07,2.585,2.585,0,0,0-1.272.894,2.309,2.309,0,0,0-.388,2.039,1.856,1.856,0,0,0,.566.9,3.7,3.7,0,0,0,.961.621,12.531,12.531,0,0,0,1.832.646c.806.235,1.614.462,2.416.71a9.4,9.4,0,0,1,1.919.825,5.236,5.236,0,0,1,1.381,1.111,4.276,4.276,0,0,1,.984,2.188,5.561,5.561,0,0,1-.017,1.906,4.538,4.538,0,0,1-1.721,2.78,6.052,6.052,0,0,1-2.459,1.129,8.726,8.726,0,0,1-4.445-.133,5.919,5.919,0,0,1-2.842-1.79,6.18,6.18,0,0,1-1.346-2.687A7.756,7.756,0,0,1,658.14,41.3Z" transform="translate(-617.683 -27.343)" fill="rgba(25,95,140,0.1)"/><path d="M1017.144,47.245h-2.5a.246.246,0,0,1-.22-.109q-2.325-3.083-4.654-6.164l-.138-.18c-.045.038-.083.069-.119.1-.553.508-1.106,1.019-1.66,1.525a.308.308,0,0,0-.112.253q.006,2.182,0,4.364v.2h-2.186V29.2c.107-.03,2.023-.035,2.185,0V39.673c.062-.049.1-.074.133-.1l2.873-2.54q1.441-1.275,2.88-2.552a.381.381,0,0,1,.277-.1c.861,0,1.721,0,2.582,0h.155l.009.032-5.382,4.9Z" transform="translate(-943.746 -27.379)" fill="rgba(25,95,140,0.1)"/><path d="M916.274,126.692h-2.151a.081.081,0,0,1-.018-.013.028.028,0,0,1-.006-.013.384.384,0,0,1-.009-.058V113.917a.5.5,0,0,1,.007-.055,21.619,21.619,0,0,1,2.179-.006Z" transform="translate(-857.899 -106.834)" fill="rgba(25,95,140,0.1)"/><path d="M907.392,27.3a1.428,1.428,0,0,1,1.429-1.475,1.648,1.648,0,0,1,.7.133,1.415,1.415,0,0,1,.84,1.521,1.447,1.447,0,0,1-1.645,1.249,1.392,1.392,0,0,1-1.189-.8A1.331,1.331,0,0,1,907.392,27.3Z" transform="translate(-851.613 -24.239)" fill="rgba(25,95,140,0.1)"/></g></g><g transform="translate(513.258 242.543)" clip-path="url(#a)"><path d="M15.509,17.67a2.013,2.013,0,0,1,1.221-.57.944.944,0,0,1,1.058.9c-.163.081-3.662,1.221-3.825,1.3-.081-.081-.081-.163-.163-.163C13.963,18.972,15.509,17.67,15.509,17.67Z" transform="translate(-2.57 -3.184)" fill="rgba(25,95,140,0.1)"/><path d="M0,25.79C0,29.7,1.709,31.73,5.127,31.73a5.768,5.768,0,0,0,3.662-1.058l.081-.081V25.139H4.232v1.546H7v3.092a4.079,4.079,0,0,1-1.953.407c-2.034,0-3.011-1.465-3.011-4.394,0-1.709.488-3.743,2.767-3.743,1.546,0,2.116.9,2.116,1.709V24H9.033v-.244C9.033,21.8,7.324,20.5,4.8,20.5,1.79,20.5,0,22.453,0,25.79Z" transform="translate(0 -3.818)" fill="rgba(25,95,140,0.1)"/><path d="M18.785,20.681H12.6v10.9h6.592V30.04h-4.72V26.622h4.313V25.076H14.472v-2.93h4.557V20.6h-.244Z" transform="translate(-2.346 -3.836)" fill="rgba(25,95,140,0.1)"/><path d="M50.776,20.7h-9.44v8.056C40.6,27.454,36.7,20.7,36.7,20.7H34.5V31.6h1.872V23.548C37.1,24.85,41.01,31.6,41.01,31.6h2.2V22.246h3.011V31.6h1.953V22.246H51.1V20.7Z" transform="translate(-6.425 -3.855)" fill="rgba(25,95,140,0.1)"/><path d="M27.5,20.7H25.469L21.4,31.6h1.953s1.058-2.848,1.221-3.174h3.988c.081.326,1.221,3.174,1.221,3.174h1.872Zm-2.441,6.185c.163-.57,1.139-3.174,1.465-4.069.326.9,1.221,3.5,1.465,4.069Z" transform="translate(-3.985 -3.855)" fill="rgba(25,95,140,0.1)"/><path d="M66.553,7.286c-7.161-8.87-36.132,3.662-43.944,6.917a1.255,1.255,0,0,1-1.709-.651,1.273,1.273,0,0,0,1.79.814c10.335-4.15,35.318-13.1,41.584-4.883,2.848,3.743,2.034,8.3-1.058,14.729a2.3,2.3,0,0,0-.244.488v.163a1.443,1.443,0,0,1-.814.651,1.289,1.289,0,0,0,1.058-.651,4.822,4.822,0,0,0,.326-.488C67.936,16.645,69.564,10.948,66.553,7.286Z" transform="translate(-3.892 -0.776)" fill="rgba(25,95,140,0.1)"/><path d="M60.856,24.339c-.081-.081-1.383-1.221-2.685-2.441-6.754-6.429-27.343-26.2-36.294-21-2.523,1.465-2.93,5.778-1.383,11.474,0,.081.081.163.081.244a1.206,1.206,0,0,0,1.139.977,1.28,1.28,0,0,1-.9-.814.284.284,0,0,0-.081-.163c0-.081-.081-.163-.081-.326,0-.081,0-.163-.081-.163-.814-4.8.163-7.975,2.116-9.277,7.243-4.883,24.495,10.009,33.2,17.5,1.953,1.709,4.232,3.662,4.883,4.15a1.362,1.362,0,0,0,2.034-.488A1.3,1.3,0,0,1,60.856,24.339Z" transform="translate(-3.647 -0.007)" fill="rgba(25,95,140,0.1)"/></g><g transform="translate(367.486 235.362)"><text transform="translate(0.047 38.933)" fill="rgba(25,95,140,0.1)" font-size="9" font-family="Helvetica"><tspan x="0" y="0">SUNET</tspan></text><path d="M3.465,16.287V3.817c0-.091.194-.347.347-.347H32.2V0H3.812C2.387,0,0,.5,0,3.817V16.288a3.541,3.541,0,0,0,3.817,3.817H21.44v-3.47H3.812a.394.394,0,0,1-.347-.348Z" transform="translate(0.016)" fill="rgba(25,95,140,0.1)"/><path d="M28.9,36.852V49.319c0,.091-.194.347-.347.347H.172v3.471H28.558c1.424,0,3.817-.5,3.817-3.817V36.852a3.542,3.542,0,0,0-3.817-3.817H10.929V36.5H28.558a.393.393,0,0,1,.347.347Z" transform="translate(-0.117 -24.736)" fill="rgba(25,95,140,0.1)"/></g><g transform="translate(425.73 296.084)"><g transform="translate(0 0)"><path d="M0,10.676c.028-.144.058-.288.084-.43A3.225,3.225,0,0,1,.994,8.5Q4.758,4.73,8.525.969a3.316,3.316,0,0,1,4.692.015q1.43,1.427,2.858,2.856c.041.041.084.081.126.123A10,10,0,0,1,24.516.785,9.772,9.772,0,0,1,31.227,4.2a10.071,10.071,0,0,1-.514,13.8A9.9,9.9,0,0,1,23.4,20.918a10.093,10.093,0,0,1-7.212-3.244,1.332,1.332,0,0,1-.108.143q-1.422,1.424-2.846,2.847a3.324,3.324,0,0,1-1.753.937l-.389.074h-.472c-.085-.019-.17-.042-.256-.055a3.191,3.191,0,0,1-1.815-.9Q4.758,16.933.974,13.144a3.186,3.186,0,0,1-.888-1.712c-.029-.154-.057-.307-.086-.462ZM16.214,3.984a10.049,10.049,0,0,0,0,13.687c.025-.022.052-.042.076-.066l.492-.492L20.7,13.194A3.316,3.316,0,0,0,20.71,8.47L16.32,4.085C16.285,4.051,16.249,4.018,16.214,3.984Z" transform="translate(0 -0.004)" fill="rgba(25,95,140,0.1)"/><path d="M1202.7,76.745c-.246.073-.483.165-.73.217a4.535,4.535,0,0,1-2.26-.079,3.31,3.31,0,0,1-2.316-2.33,5.3,5.3,0,0,1-.208-1.586V65.806H1195V63.994h2.178V60.758c.117-.036,1.931-.047,2.177-.016v3.246h3.237a16.156,16.156,0,0,1,.018,1.813c-.176.007-.355,0-.534,0h-2.7c0,.052-.01.094-.01.136v6.988a3.088,3.088,0,0,0,.115.861,1.678,1.678,0,0,0,1.579,1.322,3.778,3.778,0,0,0,1.647-.252Z" transform="translate(-1121.541 -56.992)" fill="rgba(25,95,140,0.1)"/><path d="M658.14,41.3h2.266c.028.184.052.369.086.553a4.346,4.346,0,0,0,1.045,2.19,3.991,3.991,0,0,0,2.036,1.18,5.642,5.642,0,0,0,3.281-.13,3.139,3.139,0,0,0,1.547-1.106,2.562,2.562,0,0,0,.482-1.721,2.536,2.536,0,0,0-1.091-1.952,6.188,6.188,0,0,0-1.54-.793c-.7-.266-1.428-.466-2.151-.676a20.172,20.172,0,0,1-2.424-.826,6.407,6.407,0,0,1-1.624-.976,3.8,3.8,0,0,1-1.339-2.512,4.662,4.662,0,0,1,.2-2.123,4.331,4.331,0,0,1,1.813-2.254,6,6,0,0,1,2.152-.849,8.578,8.578,0,0,1,4.085.168,5.411,5.411,0,0,1,2.625,1.641,5.6,5.6,0,0,1,1.226,2.484c.047.205.081.414.123.62-.116.034-1.989.046-2.3.017-.014-.061-.03-.128-.045-.193a3.456,3.456,0,0,0-2.505-2.664,5.317,5.317,0,0,0-3.319.07,2.585,2.585,0,0,0-1.272.894,2.309,2.309,0,0,0-.388,2.039,1.856,1.856,0,0,0,.566.9,3.7,3.7,0,0,0,.961.621,12.531,12.531,0,0,0,1.832.646c.806.235,1.614.462,2.416.71a9.4,9.4,0,0,1,1.919.825,5.236,5.236,0,0,1,1.381,1.111,4.276,4.276,0,0,1,.984,2.188,5.561,5.561,0,0,1-.017,1.906,4.538,4.538,0,0,1-1.721,2.78,6.052,6.052,0,0,1-2.459,1.129,8.726,8.726,0,0,1-4.445-.133,5.919,5.919,0,0,1-2.842-1.79,6.18,6.18,0,0,1-1.346-2.687A7.756,7.756,0,0,1,658.14,41.3Z" transform="translate(-617.683 -27.343)" fill="rgba(25,95,140,0.1)"/><path d="M1017.144,47.245h-2.5a.246.246,0,0,1-.22-.109q-2.325-3.083-4.654-6.164l-.138-.18c-.045.038-.083.069-.119.1-.553.508-1.106,1.019-1.66,1.525a.308.308,0,0,0-.112.253q.006,2.182,0,4.364v.2h-2.186V29.2c.107-.03,2.023-.035,2.185,0V39.673c.062-.049.1-.074.133-.1l2.873-2.54q1.441-1.275,2.88-2.552a.381.381,0,0,1,.277-.1c.861,0,1.721,0,2.582,0h.155l.009.032-5.382,4.9Z" transform="translate(-943.746 -27.379)" fill="rgba(25,95,140,0.1)"/><path d="M916.274,126.692h-2.151a.081.081,0,0,1-.018-.013.028.028,0,0,1-.006-.013.384.384,0,0,1-.009-.058V113.917a.5.5,0,0,1,.007-.055,21.619,21.619,0,0,1,2.179-.006Z" transform="translate(-857.899 -106.834)" fill="rgba(25,95,140,0.1)"/><path d="M907.392,27.3a1.428,1.428,0,0,1,1.429-1.475,1.648,1.648,0,0,1,.7.133,1.415,1.415,0,0,1,.84,1.521,1.447,1.447,0,0,1-1.645,1.249,1.392,1.392,0,0,1-1.189-.8A1.331,1.331,0,0,1,907.392,27.3Z" transform="translate(-851.613 -24.239)" fill="rgba(25,95,140,0.1)"/></g></g><g transform="translate(524.877 286.543)"><text transform="translate(0.047 38.933)" fill="rgba(25,95,140,0.1)" font-size="9" font-family="Helvetica"><tspan x="0" y="0">SUNET</tspan></text><path d="M3.465,16.287V3.817c0-.091.194-.347.347-.347H32.2V0H3.812C2.387,0,0,.5,0,3.817V16.288a3.541,3.541,0,0,0,3.817,3.817H21.44v-3.47H3.812a.394.394,0,0,1-.347-.348Z" transform="translate(0.016)" fill="rgba(25,95,140,0.1)"/><path d="M28.9,36.852V49.319c0,.091-.194.347-.347.347H.172v3.471H28.558c1.424,0,3.817-.5,3.817-3.817V36.852a3.542,3.542,0,0,0-3.817-3.817H10.929V36.5H28.558a.393.393,0,0,1,.347.347Z" transform="translate(-0.117 -24.736)" fill="rgba(25,95,140,0.1)"/></g><g transform="translate(246.482 294.831)"><path d="M11.209.06A11.173,11.173,0,0,1,18.9,3.128a10.722,10.722,0,0,1,2.749,4.053,11.65,11.65,0,0,1,.6,2.412c.109.712.166,1.427.242,2.146A6.877,6.877,0,0,0,27.5,17.664a6.278,6.278,0,0,0,2.378.128A6.373,6.373,0,0,0,33.4,16.176c.182-.164.347-.347.525-.516a1.177,1.177,0,0,1,1.083-.35,1.2,1.2,0,0,1,.488.234c.538.4,1.067.823,1.617,1.206a1.3,1.3,0,0,1,.221,2.005,10.169,10.169,0,0,1-1.453,1.364,10.564,10.564,0,0,1-5.11,2.208,11.044,11.044,0,0,1-9.681-3.139,1.526,1.526,0,0,0-.684-.451,1.128,1.128,0,0,0-1.13.327,11.825,11.825,0,0,1-1.427,1.249,10.988,10.988,0,0,1-5.032,2.042,10.7,10.7,0,0,1-1.752.114,11.049,11.049,0,0,1-6.8-2.44A11.1,11.1,0,0,1,.4,14.208a10.736,10.736,0,0,1-.388-3.358A10.955,10.955,0,0,1,3.049,3.609,10.967,10.967,0,0,1,9.289.235,14.241,14.241,0,0,1,11.209.06ZM17.758,11.3a7,7,0,0,0-.2-1.673,6.251,6.251,0,0,0-2.921-3.966,6.385,6.385,0,0,0-4.513-.892,6.3,6.3,0,0,0-3.615,1.9,6.35,6.35,0,0,0-1.727,5.993,6.609,6.609,0,0,0,6.123,5.184,6.275,6.275,0,0,0,3.346-.736A6.358,6.358,0,0,0,17.758,11.3Z" transform="translate(-0.006 -0.051)" fill="rgba(25,95,140,0.1)"/><path d="M416.874,11.682V1.844a2.731,2.731,0,0,1,.148-.907,1.234,1.234,0,0,1,.83-.783,2.769,2.769,0,0,1,.888-.134c2.75,0,5.5-.016,8.252.009A8.714,8.714,0,0,1,430.03.59a5.957,5.957,0,0,1,2.3,1.507,5.573,5.573,0,0,1,1.289,2.271,8.016,8.016,0,0,1,.285,1.771,6.529,6.529,0,0,1-.642,3.307,4.141,4.141,0,0,1-1.771,1.86c-.153.083-.32.14-.476.22-.171.089-.171.19,0,.285a3.4,3.4,0,0,1,.713.466,4.055,4.055,0,0,1,1.064,1.578,17.712,17.712,0,0,1,.639,2.207q.709,2.777,1.427,5.553a1.2,1.2,0,0,1,.033.376.407.407,0,0,1-.33.408,1.408,1.408,0,0,1-.352.041H431a3.224,3.224,0,0,1-.542-.056.874.874,0,0,1-.748-.728q-.166-.7-.34-1.4c-.348-1.4-.691-2.806-1.053-4.205a4.445,4.445,0,0,0-.72-1.589,2.626,2.626,0,0,0-1.6-.991,4.862,4.862,0,0,0-1.083-.1c-.944.006-1.886,0-2.83,0h-.166c-.111-.009-.162.038-.154.151v8.174c0,.119,0,.238-.007.357a.35.35,0,0,1-.324.35,2.891,2.891,0,0,1-.476.044H417.8a1.375,1.375,0,0,1-.329-.032.73.73,0,0,1-.6-.722v-.19Zm4.94-4.819V9.189c0,.229,0,.229.24.231h.048c1.338,0,2.677.006,4.015,0a3.407,3.407,0,0,0,1.3-.235,2.274,2.274,0,0,0,1.408-1.557,3.124,3.124,0,0,0,.081-1.035,2.2,2.2,0,0,0-.993-1.821,2.723,2.723,0,0,0-1.5-.433c-1.45-.006-2.9,0-4.348,0h-.118c-.1,0-.126.048-.125.133V6.863Z" transform="translate(-377.217 -0.01)" fill="rgba(25,95,140,0.1)"/><path d="M625.684-.034H630.3a1.82,1.82,0,0,1,.4.041.342.342,0,0,1,.285.277,1.625,1.625,0,0,1,.048.351v2.9a1.341,1.341,0,0,1-.034.285.408.408,0,0,1-.345.341,1.483,1.483,0,0,1-.329.03h-7.916a3.018,3.018,0,0,0-1.123.142,1.506,1.506,0,0,0-1,1.221,3.929,3.929,0,0,0-.049.731v1.4a.881.881,0,0,0,.793.887,3.99,3.99,0,0,0,.638.041h7.894a.4.4,0,0,1,.421.392,6.086,6.086,0,0,1,.046.684q-.009,1.461,0,2.923a5.554,5.554,0,0,1-.043.732.415.415,0,0,1-.419.4c-.11.008-.222,0-.333,0h-7.823a1.807,1.807,0,0,0-.6.1.8.8,0,0,0-.564.773c-.016.625-.023,1.252,0,1.877a1.682,1.682,0,0,0,.493,1.2,1.7,1.7,0,0,0,.863.417,3.288,3.288,0,0,0,.684.057h8.2a.486.486,0,0,1,.533.461,1.127,1.127,0,0,1,.012.19v2.923a1.127,1.127,0,0,1-.056.349.352.352,0,0,1-.285.256,2.439,2.439,0,0,1-.424.043c-3.019,0-6.039.006-9.059-.006a6.95,6.95,0,0,1-2.622-.47,4.736,4.736,0,0,1-2.473-2.188,6.182,6.182,0,0,1-.689-2.229,10.783,10.783,0,0,1-.084-1.322q0-5.137,0-10.287a7.1,7.1,0,0,1,.476-2.642A4.877,4.877,0,0,1,618.06.694a6.182,6.182,0,0,1,2.093-.641,14.21,14.21,0,0,1,1.918-.087Z" transform="translate(-556.802 0.038)" fill="rgba(25,95,140,0.1)"/><path d="M243.376.07a11.246,11.246,0,0,1,7.164,2.562,1.325,1.325,0,0,1,.113,2.04c-.438.446-.883.887-1.332,1.332a1.332,1.332,0,0,1-1.805.11A7.249,7.249,0,0,0,246.4,5.4a6.618,6.618,0,0,0-6.546.346,1.019,1.019,0,0,1-.649.185.842.842,0,0,1-.729-.532q-.246-.539-.538-1.057a10.811,10.811,0,0,0-.806-1.26.834.834,0,0,1,.239-1.237A11.263,11.263,0,0,1,241.784.2C242.326.119,242.871.094,243.376.07Z" transform="translate(-214.414 -0.06)" fill="rgba(25,95,140,0.1)"/></g><g transform="translate(340.725 292.876)" clip-path="url(#a)"><path d="M15.509,17.67a2.013,2.013,0,0,1,1.221-.57.944.944,0,0,1,1.058.9c-.163.081-3.662,1.221-3.825,1.3-.081-.081-.081-.163-.163-.163C13.963,18.972,15.509,17.67,15.509,17.67Z" transform="translate(-2.57 -3.184)" fill="rgba(25,95,140,0.1)"/><path d="M0,25.79C0,29.7,1.709,31.73,5.127,31.73a5.768,5.768,0,0,0,3.662-1.058l.081-.081V25.139H4.232v1.546H7v3.092a4.079,4.079,0,0,1-1.953.407c-2.034,0-3.011-1.465-3.011-4.394,0-1.709.488-3.743,2.767-3.743,1.546,0,2.116.9,2.116,1.709V24H9.033v-.244C9.033,21.8,7.324,20.5,4.8,20.5,1.79,20.5,0,22.453,0,25.79Z" transform="translate(0 -3.818)" fill="rgba(25,95,140,0.1)"/><path d="M18.785,20.681H12.6v10.9h6.592V30.04h-4.72V26.622h4.313V25.076H14.472v-2.93h4.557V20.6h-.244Z" transform="translate(-2.346 -3.836)" fill="rgba(25,95,140,0.1)"/><path d="M50.776,20.7h-9.44v8.056C40.6,27.454,36.7,20.7,36.7,20.7H34.5V31.6h1.872V23.548C37.1,24.85,41.01,31.6,41.01,31.6h2.2V22.246h3.011V31.6h1.953V22.246H51.1V20.7Z" transform="translate(-6.425 -3.855)" fill="rgba(25,95,140,0.1)"/><path d="M27.5,20.7H25.469L21.4,31.6h1.953s1.058-2.848,1.221-3.174h3.988c.081.326,1.221,3.174,1.221,3.174h1.872Zm-2.441,6.185c.163-.57,1.139-3.174,1.465-4.069.326.9,1.221,3.5,1.465,4.069Z" transform="translate(-3.985 -3.855)" fill="rgba(25,95,140,0.1)"/><path d="M66.553,7.286c-7.161-8.87-36.132,3.662-43.944,6.917a1.255,1.255,0,0,1-1.709-.651,1.273,1.273,0,0,0,1.79.814c10.335-4.15,35.318-13.1,41.584-4.883,2.848,3.743,2.034,8.3-1.058,14.729a2.3,2.3,0,0,0-.244.488v.163a1.443,1.443,0,0,1-.814.651,1.289,1.289,0,0,0,1.058-.651,4.822,4.822,0,0,0,.326-.488C67.936,16.645,69.564,10.948,66.553,7.286Z" transform="translate(-3.892 -0.776)" fill="rgba(25,95,140,0.1)"/><path d="M60.856,24.339c-.081-.081-1.383-1.221-2.685-2.441-6.754-6.429-27.343-26.2-36.294-21-2.523,1.465-2.93,5.778-1.383,11.474,0,.081.081.163.081.244a1.206,1.206,0,0,0,1.139.977,1.28,1.28,0,0,1-.9-.814.284.284,0,0,0-.081-.163c0-.081-.081-.163-.081-.326,0-.081,0-.163-.081-.163-.814-4.8.163-7.975,2.116-9.277,7.243-4.883,24.495,10.009,33.2,17.5,1.953,1.709,4.232,3.662,4.883,4.15a1.362,1.362,0,0,0,2.034-.488A1.3,1.3,0,0,1,60.856,24.339Z" transform="translate(-3.647 -0.007)" fill="rgba(25,95,140,0.1)"/></g><g transform="translate(419.467 346.981)"><path d="M11.209.06A11.173,11.173,0,0,1,18.9,3.128a10.722,10.722,0,0,1,2.749,4.053,11.65,11.65,0,0,1,.6,2.412c.109.712.166,1.427.242,2.146A6.877,6.877,0,0,0,27.5,17.664a6.278,6.278,0,0,0,2.378.128A6.373,6.373,0,0,0,33.4,16.176c.182-.164.347-.347.525-.516a1.177,1.177,0,0,1,1.083-.35,1.2,1.2,0,0,1,.488.234c.538.4,1.067.823,1.617,1.206a1.3,1.3,0,0,1,.221,2.005,10.169,10.169,0,0,1-1.453,1.364,10.564,10.564,0,0,1-5.11,2.208,11.044,11.044,0,0,1-9.681-3.139,1.526,1.526,0,0,0-.684-.451,1.128,1.128,0,0,0-1.13.327,11.825,11.825,0,0,1-1.427,1.249,10.988,10.988,0,0,1-5.032,2.042,10.7,10.7,0,0,1-1.752.114,11.049,11.049,0,0,1-6.8-2.44A11.1,11.1,0,0,1,.4,14.208a10.736,10.736,0,0,1-.388-3.358A10.955,10.955,0,0,1,3.049,3.609,10.967,10.967,0,0,1,9.289.235,14.241,14.241,0,0,1,11.209.06ZM17.758,11.3a7,7,0,0,0-.2-1.673,6.251,6.251,0,0,0-2.921-3.966,6.385,6.385,0,0,0-4.513-.892,6.3,6.3,0,0,0-3.615,1.9,6.35,6.35,0,0,0-1.727,5.993,6.609,6.609,0,0,0,6.123,5.184,6.275,6.275,0,0,0,3.346-.736A6.358,6.358,0,0,0,17.758,11.3Z" transform="translate(-0.006 -0.051)" fill="rgba(25,95,140,0.1)"/><path d="M416.874,11.682V1.844a2.731,2.731,0,0,1,.148-.907,1.234,1.234,0,0,1,.83-.783,2.769,2.769,0,0,1,.888-.134c2.75,0,5.5-.016,8.252.009A8.714,8.714,0,0,1,430.03.59a5.957,5.957,0,0,1,2.3,1.507,5.573,5.573,0,0,1,1.289,2.271,8.016,8.016,0,0,1,.285,1.771,6.529,6.529,0,0,1-.642,3.307,4.141,4.141,0,0,1-1.771,1.86c-.153.083-.32.14-.476.22-.171.089-.171.19,0,.285a3.4,3.4,0,0,1,.713.466,4.055,4.055,0,0,1,1.064,1.578,17.712,17.712,0,0,1,.639,2.207q.709,2.777,1.427,5.553a1.2,1.2,0,0,1,.033.376.407.407,0,0,1-.33.408,1.408,1.408,0,0,1-.352.041H431a3.224,3.224,0,0,1-.542-.056.874.874,0,0,1-.748-.728q-.166-.7-.34-1.4c-.348-1.4-.691-2.806-1.053-4.205a4.445,4.445,0,0,0-.72-1.589,2.626,2.626,0,0,0-1.6-.991,4.862,4.862,0,0,0-1.083-.1c-.944.006-1.886,0-2.83,0h-.166c-.111-.009-.162.038-.154.151v8.174c0,.119,0,.238-.007.357a.35.35,0,0,1-.324.35,2.891,2.891,0,0,1-.476.044H417.8a1.375,1.375,0,0,1-.329-.032.73.73,0,0,1-.6-.722v-.19Zm4.94-4.819V9.189c0,.229,0,.229.24.231h.048c1.338,0,2.677.006,4.015,0a3.407,3.407,0,0,0,1.3-.235,2.274,2.274,0,0,0,1.408-1.557,3.124,3.124,0,0,0,.081-1.035,2.2,2.2,0,0,0-.993-1.821,2.723,2.723,0,0,0-1.5-.433c-1.45-.006-2.9,0-4.348,0h-.118c-.1,0-.126.048-.125.133V6.863Z" transform="translate(-377.217 -0.01)" fill="rgba(25,95,140,0.1)"/><path d="M625.684-.034H630.3a1.82,1.82,0,0,1,.4.041.342.342,0,0,1,.285.277,1.625,1.625,0,0,1,.048.351v2.9a1.341,1.341,0,0,1-.034.285.408.408,0,0,1-.345.341,1.483,1.483,0,0,1-.329.03h-7.916a3.018,3.018,0,0,0-1.123.142,1.506,1.506,0,0,0-1,1.221,3.929,3.929,0,0,0-.049.731v1.4a.881.881,0,0,0,.793.887,3.99,3.99,0,0,0,.638.041h7.894a.4.4,0,0,1,.421.392,6.086,6.086,0,0,1,.046.684q-.009,1.461,0,2.923a5.554,5.554,0,0,1-.043.732.415.415,0,0,1-.419.4c-.11.008-.222,0-.333,0h-7.823a1.807,1.807,0,0,0-.6.1.8.8,0,0,0-.564.773c-.016.625-.023,1.252,0,1.877a1.682,1.682,0,0,0,.493,1.2,1.7,1.7,0,0,0,.863.417,3.288,3.288,0,0,0,.684.057h8.2a.486.486,0,0,1,.533.461,1.127,1.127,0,0,1,.012.19v2.923a1.127,1.127,0,0,1-.056.349.352.352,0,0,1-.285.256,2.439,2.439,0,0,1-.424.043c-3.019,0-6.039.006-9.059-.006a6.95,6.95,0,0,1-2.622-.47,4.736,4.736,0,0,1-2.473-2.188,6.182,6.182,0,0,1-.689-2.229,10.783,10.783,0,0,1-.084-1.322q0-5.137,0-10.287a7.1,7.1,0,0,1,.476-2.642A4.877,4.877,0,0,1,618.06.694a6.182,6.182,0,0,1,2.093-.641,14.21,14.21,0,0,1,1.918-.087Z" transform="translate(-556.802 0.038)" fill="rgba(25,95,140,0.1)"/><path d="M243.376.07a11.246,11.246,0,0,1,7.164,2.562,1.325,1.325,0,0,1,.113,2.04c-.438.446-.883.887-1.332,1.332a1.332,1.332,0,0,1-1.805.11A7.249,7.249,0,0,0,246.4,5.4a6.618,6.618,0,0,0-6.546.346,1.019,1.019,0,0,1-.649.185.842.842,0,0,1-.729-.532q-.246-.539-.538-1.057a10.811,10.811,0,0,0-.806-1.26.834.834,0,0,1,.239-1.237A11.263,11.263,0,0,1,241.784.2C242.326.119,242.871.094,243.376.07Z" transform="translate(-214.414 -0.06)" fill="rgba(25,95,140,0.1)"/></g><g transform="translate(264.653 347.693)"><g transform="translate(0 0)"><path d="M0,10.676c.028-.144.058-.288.084-.43A3.225,3.225,0,0,1,.994,8.5Q4.758,4.73,8.525.969a3.316,3.316,0,0,1,4.692.015q1.43,1.427,2.858,2.856c.041.041.084.081.126.123A10,10,0,0,1,24.516.785,9.772,9.772,0,0,1,31.227,4.2a10.071,10.071,0,0,1-.514,13.8A9.9,9.9,0,0,1,23.4,20.918a10.093,10.093,0,0,1-7.212-3.244,1.332,1.332,0,0,1-.108.143q-1.422,1.424-2.846,2.847a3.324,3.324,0,0,1-1.753.937l-.389.074h-.472c-.085-.019-.17-.042-.256-.055a3.191,3.191,0,0,1-1.815-.9Q4.758,16.933.974,13.144a3.186,3.186,0,0,1-.888-1.712c-.029-.154-.057-.307-.086-.462ZM16.214,3.984a10.049,10.049,0,0,0,0,13.687c.025-.022.052-.042.076-.066l.492-.492L20.7,13.194A3.316,3.316,0,0,0,20.71,8.47L16.32,4.085C16.285,4.051,16.249,4.018,16.214,3.984Z" transform="translate(0 -0.004)" fill="rgba(25,95,140,0.1)"/><path d="M1202.7,76.745c-.246.073-.483.165-.73.217a4.535,4.535,0,0,1-2.26-.079,3.31,3.31,0,0,1-2.316-2.33,5.3,5.3,0,0,1-.208-1.586V65.806H1195V63.994h2.178V60.758c.117-.036,1.931-.047,2.177-.016v3.246h3.237a16.156,16.156,0,0,1,.018,1.813c-.176.007-.355,0-.534,0h-2.7c0,.052-.01.094-.01.136v6.988a3.088,3.088,0,0,0,.115.861,1.678,1.678,0,0,0,1.579,1.322,3.778,3.778,0,0,0,1.647-.252Z" transform="translate(-1121.541 -56.992)" fill="rgba(25,95,140,0.1)"/><path d="M658.14,41.3h2.266c.028.184.052.369.086.553a4.346,4.346,0,0,0,1.045,2.19,3.991,3.991,0,0,0,2.036,1.18,5.642,5.642,0,0,0,3.281-.13,3.139,3.139,0,0,0,1.547-1.106,2.562,2.562,0,0,0,.482-1.721,2.536,2.536,0,0,0-1.091-1.952,6.188,6.188,0,0,0-1.54-.793c-.7-.266-1.428-.466-2.151-.676a20.172,20.172,0,0,1-2.424-.826,6.407,6.407,0,0,1-1.624-.976,3.8,3.8,0,0,1-1.339-2.512,4.662,4.662,0,0,1,.2-2.123,4.331,4.331,0,0,1,1.813-2.254,6,6,0,0,1,2.152-.849,8.578,8.578,0,0,1,4.085.168,5.411,5.411,0,0,1,2.625,1.641,5.6,5.6,0,0,1,1.226,2.484c.047.205.081.414.123.62-.116.034-1.989.046-2.3.017-.014-.061-.03-.128-.045-.193a3.456,3.456,0,0,0-2.505-2.664,5.317,5.317,0,0,0-3.319.07,2.585,2.585,0,0,0-1.272.894,2.309,2.309,0,0,0-.388,2.039,1.856,1.856,0,0,0,.566.9,3.7,3.7,0,0,0,.961.621,12.531,12.531,0,0,0,1.832.646c.806.235,1.614.462,2.416.71a9.4,9.4,0,0,1,1.919.825,5.236,5.236,0,0,1,1.381,1.111,4.276,4.276,0,0,1,.984,2.188,5.561,5.561,0,0,1-.017,1.906,4.538,4.538,0,0,1-1.721,2.78,6.052,6.052,0,0,1-2.459,1.129,8.726,8.726,0,0,1-4.445-.133,5.919,5.919,0,0,1-2.842-1.79,6.18,6.18,0,0,1-1.346-2.687A7.756,7.756,0,0,1,658.14,41.3Z" transform="translate(-617.683 -27.343)" fill="rgba(25,95,140,0.1)"/><path d="M1017.144,47.245h-2.5a.246.246,0,0,1-.22-.109q-2.325-3.083-4.654-6.164l-.138-.18c-.045.038-.083.069-.119.1-.553.508-1.106,1.019-1.66,1.525a.308.308,0,0,0-.112.253q.006,2.182,0,4.364v.2h-2.186V29.2c.107-.03,2.023-.035,2.185,0V39.673c.062-.049.1-.074.133-.1l2.873-2.54q1.441-1.275,2.88-2.552a.381.381,0,0,1,.277-.1c.861,0,1.721,0,2.582,0h.155l.009.032-5.382,4.9Z" transform="translate(-943.746 -27.379)" fill="rgba(25,95,140,0.1)"/><path d="M916.274,126.692h-2.151a.081.081,0,0,1-.018-.013.028.028,0,0,1-.006-.013.384.384,0,0,1-.009-.058V113.917a.5.5,0,0,1,.007-.055,21.619,21.619,0,0,1,2.179-.006Z" transform="translate(-857.899 -106.834)" fill="rgba(25,95,140,0.1)"/><path d="M907.392,27.3a1.428,1.428,0,0,1,1.429-1.475,1.648,1.648,0,0,1,.7.133,1.415,1.415,0,0,1,.84,1.521,1.447,1.447,0,0,1-1.645,1.249,1.392,1.392,0,0,1-1.189-.8A1.331,1.331,0,0,1,907.392,27.3Z" transform="translate(-851.613 -24.239)" fill="rgba(25,95,140,0.1)"/></g></g><g transform="translate(513.258 344.845)" clip-path="url(#a)"><path d="M15.509,17.67a2.013,2.013,0,0,1,1.221-.57.944.944,0,0,1,1.058.9c-.163.081-3.662,1.221-3.825,1.3-.081-.081-.081-.163-.163-.163C13.963,18.972,15.509,17.67,15.509,17.67Z" transform="translate(-2.57 -3.184)" fill="rgba(25,95,140,0.1)"/><path d="M0,25.79C0,29.7,1.709,31.73,5.127,31.73a5.768,5.768,0,0,0,3.662-1.058l.081-.081V25.139H4.232v1.546H7v3.092a4.079,4.079,0,0,1-1.953.407c-2.034,0-3.011-1.465-3.011-4.394,0-1.709.488-3.743,2.767-3.743,1.546,0,2.116.9,2.116,1.709V24H9.033v-.244C9.033,21.8,7.324,20.5,4.8,20.5,1.79,20.5,0,22.453,0,25.79Z" transform="translate(0 -3.818)" fill="rgba(25,95,140,0.1)"/><path d="M18.785,20.681H12.6v10.9h6.592V30.04h-4.72V26.622h4.313V25.076H14.472v-2.93h4.557V20.6h-.244Z" transform="translate(-2.346 -3.836)" fill="rgba(25,95,140,0.1)"/><path d="M50.776,20.7h-9.44v8.056C40.6,27.454,36.7,20.7,36.7,20.7H34.5V31.6h1.872V23.548C37.1,24.85,41.01,31.6,41.01,31.6h2.2V22.246h3.011V31.6h1.953V22.246H51.1V20.7Z" transform="translate(-6.425 -3.855)" fill="rgba(25,95,140,0.1)"/><path d="M27.5,20.7H25.469L21.4,31.6h1.953s1.058-2.848,1.221-3.174h3.988c.081.326,1.221,3.174,1.221,3.174h1.872Zm-2.441,6.185c.163-.57,1.139-3.174,1.465-4.069.326.9,1.221,3.5,1.465,4.069Z" transform="translate(-3.985 -3.855)" fill="rgba(25,95,140,0.1)"/><path d="M66.553,7.286c-7.161-8.87-36.132,3.662-43.944,6.917a1.255,1.255,0,0,1-1.709-.651,1.273,1.273,0,0,0,1.79.814c10.335-4.15,35.318-13.1,41.584-4.883,2.848,3.743,2.034,8.3-1.058,14.729a2.3,2.3,0,0,0-.244.488v.163a1.443,1.443,0,0,1-.814.651,1.289,1.289,0,0,0,1.058-.651,4.822,4.822,0,0,0,.326-.488C67.936,16.645,69.564,10.948,66.553,7.286Z" transform="translate(-3.892 -0.776)" fill="rgba(25,95,140,0.1)"/><path d="M60.856,24.339c-.081-.081-1.383-1.221-2.685-2.441-6.754-6.429-27.343-26.2-36.294-21-2.523,1.465-2.93,5.778-1.383,11.474,0,.081.081.163.081.244a1.206,1.206,0,0,0,1.139.977,1.28,1.28,0,0,1-.9-.814.284.284,0,0,0-.081-.163c0-.081-.081-.163-.081-.326,0-.081,0-.163-.081-.163-.814-4.8.163-7.975,2.116-9.277,7.243-4.883,24.495,10.009,33.2,17.5,1.953,1.709,4.232,3.662,4.883,4.15a1.362,1.362,0,0,0,2.034-.488A1.3,1.3,0,0,1,60.856,24.339Z" transform="translate(-3.647 -0.007)" fill="rgba(25,95,140,0.1)"/></g><g transform="translate(367.486 337.724)"><text transform="translate(0.047 38.933)" fill="rgba(25,95,140,0.1)" font-size="9" font-family="Helvetica"><tspan x="0" y="0">SUNET</tspan></text><path d="M3.465,16.287V3.817c0-.091.194-.347.347-.347H32.2V0H3.812C2.387,0,0,.5,0,3.817V16.288a3.541,3.541,0,0,0,3.817,3.817H21.44v-3.47H3.812a.394.394,0,0,1-.347-.348Z" transform="translate(0.016)" fill="rgba(25,95,140,0.1)"/><path d="M28.9,36.852V49.319c0,.091-.194.347-.347.347H.172v3.471H28.558c1.424,0,3.817-.5,3.817-3.817V36.852a3.542,3.542,0,0,0-3.817-3.817H10.929V36.5H28.558a.393.393,0,0,1,.347.347Z" transform="translate(-0.117 -24.736)" fill="rgba(25,95,140,0.1)"/></g><g transform="translate(599.045 142.97)"><g transform="translate(0 0)"><path d="M0,10.676c.028-.144.058-.288.084-.43A3.225,3.225,0,0,1,.994,8.5Q4.758,4.73,8.525.969a3.316,3.316,0,0,1,4.692.015q1.43,1.427,2.858,2.856c.041.041.084.081.126.123A10,10,0,0,1,24.516.785,9.772,9.772,0,0,1,31.227,4.2a10.071,10.071,0,0,1-.514,13.8A9.9,9.9,0,0,1,23.4,20.918a10.093,10.093,0,0,1-7.212-3.244,1.332,1.332,0,0,1-.108.143q-1.422,1.424-2.846,2.847a3.324,3.324,0,0,1-1.753.937l-.389.074h-.472c-.085-.019-.17-.042-.256-.055a3.191,3.191,0,0,1-1.815-.9Q4.758,16.933.974,13.144a3.186,3.186,0,0,1-.888-1.712c-.029-.154-.057-.307-.086-.462ZM16.214,3.984a10.049,10.049,0,0,0,0,13.687c.025-.022.052-.042.076-.066l.492-.492L20.7,13.194A3.316,3.316,0,0,0,20.71,8.47L16.32,4.085C16.285,4.051,16.249,4.018,16.214,3.984Z" transform="translate(0 -0.004)" fill="rgba(25,95,140,0.1)"/><path d="M1202.7,76.745c-.246.073-.483.165-.73.217a4.535,4.535,0,0,1-2.26-.079,3.31,3.31,0,0,1-2.316-2.33,5.3,5.3,0,0,1-.208-1.586V65.806H1195V63.994h2.178V60.758c.117-.036,1.931-.047,2.177-.016v3.246h3.237a16.156,16.156,0,0,1,.018,1.813c-.176.007-.355,0-.534,0h-2.7c0,.052-.01.094-.01.136v6.988a3.088,3.088,0,0,0,.115.861,1.678,1.678,0,0,0,1.579,1.322,3.778,3.778,0,0,0,1.647-.252Z" transform="translate(-1121.541 -56.992)" fill="rgba(25,95,140,0.1)"/><path d="M658.14,41.3h2.266c.028.184.052.369.086.553a4.346,4.346,0,0,0,1.045,2.19,3.991,3.991,0,0,0,2.036,1.18,5.642,5.642,0,0,0,3.281-.13,3.139,3.139,0,0,0,1.547-1.106,2.562,2.562,0,0,0,.482-1.721,2.536,2.536,0,0,0-1.091-1.952,6.188,6.188,0,0,0-1.54-.793c-.7-.266-1.428-.466-2.151-.676a20.172,20.172,0,0,1-2.424-.826,6.407,6.407,0,0,1-1.624-.976,3.8,3.8,0,0,1-1.339-2.512,4.662,4.662,0,0,1,.2-2.123,4.331,4.331,0,0,1,1.813-2.254,6,6,0,0,1,2.152-.849,8.578,8.578,0,0,1,4.085.168,5.411,5.411,0,0,1,2.625,1.641,5.6,5.6,0,0,1,1.226,2.484c.047.205.081.414.123.62-.116.034-1.989.046-2.3.017-.014-.061-.03-.128-.045-.193a3.456,3.456,0,0,0-2.505-2.664,5.317,5.317,0,0,0-3.319.07,2.585,2.585,0,0,0-1.272.894,2.309,2.309,0,0,0-.388,2.039,1.856,1.856,0,0,0,.566.9,3.7,3.7,0,0,0,.961.621,12.531,12.531,0,0,0,1.832.646c.806.235,1.614.462,2.416.71a9.4,9.4,0,0,1,1.919.825,5.236,5.236,0,0,1,1.381,1.111,4.276,4.276,0,0,1,.984,2.188,5.561,5.561,0,0,1-.017,1.906,4.538,4.538,0,0,1-1.721,2.78,6.052,6.052,0,0,1-2.459,1.129,8.726,8.726,0,0,1-4.445-.133,5.919,5.919,0,0,1-2.842-1.79,6.18,6.18,0,0,1-1.346-2.687A7.756,7.756,0,0,1,658.14,41.3Z" transform="translate(-617.683 -27.343)" fill="rgba(25,95,140,0.1)"/><path d="M1017.144,47.245h-2.5a.246.246,0,0,1-.22-.109q-2.325-3.083-4.654-6.164l-.138-.18c-.045.038-.083.069-.119.1-.553.508-1.106,1.019-1.66,1.525a.308.308,0,0,0-.112.253q.006,2.182,0,4.364v.2h-2.186V29.2c.107-.03,2.023-.035,2.185,0V39.673c.062-.049.1-.074.133-.1l2.873-2.54q1.441-1.275,2.88-2.552a.381.381,0,0,1,.277-.1c.861,0,1.721,0,2.582,0h.155l.009.032-5.382,4.9Z" transform="translate(-943.746 -27.379)" fill="rgba(25,95,140,0.1)"/><path d="M916.274,126.692h-2.151a.081.081,0,0,1-.018-.013.028.028,0,0,1-.006-.013.384.384,0,0,1-.009-.058V113.917a.5.5,0,0,1,.007-.055,21.619,21.619,0,0,1,2.179-.006Z" transform="translate(-857.899 -106.834)" fill="rgba(25,95,140,0.1)"/><path d="M907.392,27.3a1.428,1.428,0,0,1,1.429-1.475,1.648,1.648,0,0,1,.7.133,1.415,1.415,0,0,1,.84,1.521,1.447,1.447,0,0,1-1.645,1.249,1.392,1.392,0,0,1-1.189-.8A1.331,1.331,0,0,1,907.392,27.3Z" transform="translate(-851.613 -24.239)" fill="rgba(25,95,140,0.1)"/></g></g><g transform="translate(580.874 193.358)"><path d="M11.209.06A11.173,11.173,0,0,1,18.9,3.128a10.722,10.722,0,0,1,2.749,4.053,11.65,11.65,0,0,1,.6,2.412c.109.712.166,1.427.242,2.146A6.877,6.877,0,0,0,27.5,17.664a6.278,6.278,0,0,0,2.378.128A6.373,6.373,0,0,0,33.4,16.176c.182-.164.347-.347.525-.516a1.177,1.177,0,0,1,1.083-.35,1.2,1.2,0,0,1,.488.234c.538.4,1.067.823,1.617,1.206a1.3,1.3,0,0,1,.221,2.005,10.169,10.169,0,0,1-1.453,1.364,10.564,10.564,0,0,1-5.11,2.208,11.044,11.044,0,0,1-9.681-3.139,1.526,1.526,0,0,0-.684-.451,1.128,1.128,0,0,0-1.13.327,11.825,11.825,0,0,1-1.427,1.249,10.988,10.988,0,0,1-5.032,2.042,10.7,10.7,0,0,1-1.752.114,11.049,11.049,0,0,1-6.8-2.44A11.1,11.1,0,0,1,.4,14.208a10.736,10.736,0,0,1-.388-3.358A10.955,10.955,0,0,1,3.049,3.609,10.967,10.967,0,0,1,9.289.235,14.241,14.241,0,0,1,11.209.06ZM17.758,11.3a7,7,0,0,0-.2-1.673,6.251,6.251,0,0,0-2.921-3.966,6.385,6.385,0,0,0-4.513-.892,6.3,6.3,0,0,0-3.615,1.9,6.35,6.35,0,0,0-1.727,5.993,6.609,6.609,0,0,0,6.123,5.184,6.275,6.275,0,0,0,3.346-.736A6.358,6.358,0,0,0,17.758,11.3Z" transform="translate(-0.006 -0.051)" fill="rgba(25,95,140,0.1)"/><path d="M416.874,11.682V1.844a2.731,2.731,0,0,1,.148-.907,1.234,1.234,0,0,1,.83-.783,2.769,2.769,0,0,1,.888-.134c2.75,0,5.5-.016,8.252.009A8.714,8.714,0,0,1,430.03.59a5.957,5.957,0,0,1,2.3,1.507,5.573,5.573,0,0,1,1.289,2.271,8.016,8.016,0,0,1,.285,1.771,6.529,6.529,0,0,1-.642,3.307,4.141,4.141,0,0,1-1.771,1.86c-.153.083-.32.14-.476.22-.171.089-.171.19,0,.285a3.4,3.4,0,0,1,.713.466,4.055,4.055,0,0,1,1.064,1.578,17.712,17.712,0,0,1,.639,2.207q.709,2.777,1.427,5.553a1.2,1.2,0,0,1,.033.376.407.407,0,0,1-.33.408,1.408,1.408,0,0,1-.352.041H431a3.224,3.224,0,0,1-.542-.056.874.874,0,0,1-.748-.728q-.166-.7-.34-1.4c-.348-1.4-.691-2.806-1.053-4.205a4.445,4.445,0,0,0-.72-1.589,2.626,2.626,0,0,0-1.6-.991,4.862,4.862,0,0,0-1.083-.1c-.944.006-1.886,0-2.83,0h-.166c-.111-.009-.162.038-.154.151v8.174c0,.119,0,.238-.007.357a.35.35,0,0,1-.324.35,2.891,2.891,0,0,1-.476.044H417.8a1.375,1.375,0,0,1-.329-.032.73.73,0,0,1-.6-.722v-.19Zm4.94-4.819V9.189c0,.229,0,.229.24.231h.048c1.338,0,2.677.006,4.015,0a3.407,3.407,0,0,0,1.3-.235,2.274,2.274,0,0,0,1.408-1.557,3.124,3.124,0,0,0,.081-1.035,2.2,2.2,0,0,0-.993-1.821,2.723,2.723,0,0,0-1.5-.433c-1.45-.006-2.9,0-4.348,0h-.118c-.1,0-.126.048-.125.133V6.863Z" transform="translate(-377.217 -0.01)" fill="rgba(25,95,140,0.1)"/><path d="M625.684-.034H630.3a1.82,1.82,0,0,1,.4.041.342.342,0,0,1,.285.277,1.625,1.625,0,0,1,.048.351v2.9a1.341,1.341,0,0,1-.034.285.408.408,0,0,1-.345.341,1.483,1.483,0,0,1-.329.03h-7.916a3.018,3.018,0,0,0-1.123.142,1.506,1.506,0,0,0-1,1.221,3.929,3.929,0,0,0-.049.731v1.4a.881.881,0,0,0,.793.887,3.99,3.99,0,0,0,.638.041h7.894a.4.4,0,0,1,.421.392,6.086,6.086,0,0,1,.046.684q-.009,1.461,0,2.923a5.554,5.554,0,0,1-.043.732.415.415,0,0,1-.419.4c-.11.008-.222,0-.333,0h-7.823a1.807,1.807,0,0,0-.6.1.8.8,0,0,0-.564.773c-.016.625-.023,1.252,0,1.877a1.682,1.682,0,0,0,.493,1.2,1.7,1.7,0,0,0,.863.417,3.288,3.288,0,0,0,.684.057h8.2a.486.486,0,0,1,.533.461,1.127,1.127,0,0,1,.012.19v2.923a1.127,1.127,0,0,1-.056.349.352.352,0,0,1-.285.256,2.439,2.439,0,0,1-.424.043c-3.019,0-6.039.006-9.059-.006a6.95,6.95,0,0,1-2.622-.47,4.736,4.736,0,0,1-2.473-2.188,6.182,6.182,0,0,1-.689-2.229,10.783,10.783,0,0,1-.084-1.322q0-5.137,0-10.287a7.1,7.1,0,0,1,.476-2.642A4.877,4.877,0,0,1,618.06.694a6.182,6.182,0,0,1,2.093-.641,14.21,14.21,0,0,1,1.918-.087Z" transform="translate(-556.802 0.038)" fill="rgba(25,95,140,0.1)"/><path d="M243.376.07a11.246,11.246,0,0,1,7.164,2.562,1.325,1.325,0,0,1,.113,2.04c-.438.446-.883.887-1.332,1.332a1.332,1.332,0,0,1-1.805.11A7.249,7.249,0,0,0,246.4,5.4a6.618,6.618,0,0,0-6.546.346,1.019,1.019,0,0,1-.649.185.842.842,0,0,1-.729-.532q-.246-.539-.538-1.057a10.811,10.811,0,0,0-.806-1.26.834.834,0,0,1,.239-1.237A11.263,11.263,0,0,1,241.784.2C242.326.119,242.871.094,243.376.07Z" transform="translate(-214.414 -0.06)" fill="rgba(25,95,140,0.1)"/></g><g transform="translate(599.045 245.364)"><g transform="translate(0 0)"><path d="M0,10.676c.028-.144.058-.288.084-.43A3.225,3.225,0,0,1,.994,8.5Q4.758,4.73,8.525.969a3.316,3.316,0,0,1,4.692.015q1.43,1.427,2.858,2.856c.041.041.084.081.126.123A10,10,0,0,1,24.516.785,9.772,9.772,0,0,1,31.227,4.2a10.071,10.071,0,0,1-.514,13.8A9.9,9.9,0,0,1,23.4,20.918a10.093,10.093,0,0,1-7.212-3.244,1.332,1.332,0,0,1-.108.143q-1.422,1.424-2.846,2.847a3.324,3.324,0,0,1-1.753.937l-.389.074h-.472c-.085-.019-.17-.042-.256-.055a3.191,3.191,0,0,1-1.815-.9Q4.758,16.933.974,13.144a3.186,3.186,0,0,1-.888-1.712c-.029-.154-.057-.307-.086-.462ZM16.214,3.984a10.049,10.049,0,0,0,0,13.687c.025-.022.052-.042.076-.066l.492-.492L20.7,13.194A3.316,3.316,0,0,0,20.71,8.47L16.32,4.085C16.285,4.051,16.249,4.018,16.214,3.984Z" transform="translate(0 -0.004)" fill="rgba(25,95,140,0.1)"/><path d="M1202.7,76.745c-.246.073-.483.165-.73.217a4.535,4.535,0,0,1-2.26-.079,3.31,3.31,0,0,1-2.316-2.33,5.3,5.3,0,0,1-.208-1.586V65.806H1195V63.994h2.178V60.758c.117-.036,1.931-.047,2.177-.016v3.246h3.237a16.156,16.156,0,0,1,.018,1.813c-.176.007-.355,0-.534,0h-2.7c0,.052-.01.094-.01.136v6.988a3.088,3.088,0,0,0,.115.861,1.678,1.678,0,0,0,1.579,1.322,3.778,3.778,0,0,0,1.647-.252Z" transform="translate(-1121.541 -56.992)" fill="rgba(25,95,140,0.1)"/><path d="M658.14,41.3h2.266c.028.184.052.369.086.553a4.346,4.346,0,0,0,1.045,2.19,3.991,3.991,0,0,0,2.036,1.18,5.642,5.642,0,0,0,3.281-.13,3.139,3.139,0,0,0,1.547-1.106,2.562,2.562,0,0,0,.482-1.721,2.536,2.536,0,0,0-1.091-1.952,6.188,6.188,0,0,0-1.54-.793c-.7-.266-1.428-.466-2.151-.676a20.172,20.172,0,0,1-2.424-.826,6.407,6.407,0,0,1-1.624-.976,3.8,3.8,0,0,1-1.339-2.512,4.662,4.662,0,0,1,.2-2.123,4.331,4.331,0,0,1,1.813-2.254,6,6,0,0,1,2.152-.849,8.578,8.578,0,0,1,4.085.168,5.411,5.411,0,0,1,2.625,1.641,5.6,5.6,0,0,1,1.226,2.484c.047.205.081.414.123.62-.116.034-1.989.046-2.3.017-.014-.061-.03-.128-.045-.193a3.456,3.456,0,0,0-2.505-2.664,5.317,5.317,0,0,0-3.319.07,2.585,2.585,0,0,0-1.272.894,2.309,2.309,0,0,0-.388,2.039,1.856,1.856,0,0,0,.566.9,3.7,3.7,0,0,0,.961.621,12.531,12.531,0,0,0,1.832.646c.806.235,1.614.462,2.416.71a9.4,9.4,0,0,1,1.919.825,5.236,5.236,0,0,1,1.381,1.111,4.276,4.276,0,0,1,.984,2.188,5.561,5.561,0,0,1-.017,1.906,4.538,4.538,0,0,1-1.721,2.78,6.052,6.052,0,0,1-2.459,1.129,8.726,8.726,0,0,1-4.445-.133,5.919,5.919,0,0,1-2.842-1.79,6.18,6.18,0,0,1-1.346-2.687A7.756,7.756,0,0,1,658.14,41.3Z" transform="translate(-617.683 -27.343)" fill="rgba(25,95,140,0.1)"/><path d="M1017.144,47.245h-2.5a.246.246,0,0,1-.22-.109q-2.325-3.083-4.654-6.164l-.138-.18c-.045.038-.083.069-.119.1-.553.508-1.106,1.019-1.66,1.525a.308.308,0,0,0-.112.253q.006,2.182,0,4.364v.2h-2.186V29.2c.107-.03,2.023-.035,2.185,0V39.673c.062-.049.1-.074.133-.1l2.873-2.54q1.441-1.275,2.88-2.552a.381.381,0,0,1,.277-.1c.861,0,1.721,0,2.582,0h.155l.009.032-5.382,4.9Z" transform="translate(-943.746 -27.379)" fill="rgba(25,95,140,0.1)"/><path d="M916.274,126.692h-2.151a.081.081,0,0,1-.018-.013.028.028,0,0,1-.006-.013.384.384,0,0,1-.009-.058V113.917a.5.5,0,0,1,.007-.055,21.619,21.619,0,0,1,2.179-.006Z" transform="translate(-857.899 -106.834)" fill="rgba(25,95,140,0.1)"/><path d="M907.392,27.3a1.428,1.428,0,0,1,1.429-1.475,1.648,1.648,0,0,1,.7.133,1.415,1.415,0,0,1,.84,1.521,1.447,1.447,0,0,1-1.645,1.249,1.392,1.392,0,0,1-1.189-.8A1.331,1.331,0,0,1,907.392,27.3Z" transform="translate(-851.613 -24.239)" fill="rgba(25,95,140,0.1)"/></g></g><g transform="translate(580.874 294.831)"><path d="M11.209.06A11.173,11.173,0,0,1,18.9,3.128a10.722,10.722,0,0,1,2.749,4.053,11.65,11.65,0,0,1,.6,2.412c.109.712.166,1.427.242,2.146A6.877,6.877,0,0,0,27.5,17.664a6.278,6.278,0,0,0,2.378.128A6.373,6.373,0,0,0,33.4,16.176c.182-.164.347-.347.525-.516a1.177,1.177,0,0,1,1.083-.35,1.2,1.2,0,0,1,.488.234c.538.4,1.067.823,1.617,1.206a1.3,1.3,0,0,1,.221,2.005,10.169,10.169,0,0,1-1.453,1.364,10.564,10.564,0,0,1-5.11,2.208,11.044,11.044,0,0,1-9.681-3.139,1.526,1.526,0,0,0-.684-.451,1.128,1.128,0,0,0-1.13.327,11.825,11.825,0,0,1-1.427,1.249,10.988,10.988,0,0,1-5.032,2.042,10.7,10.7,0,0,1-1.752.114,11.049,11.049,0,0,1-6.8-2.44A11.1,11.1,0,0,1,.4,14.208a10.736,10.736,0,0,1-.388-3.358A10.955,10.955,0,0,1,3.049,3.609,10.967,10.967,0,0,1,9.289.235,14.241,14.241,0,0,1,11.209.06ZM17.758,11.3a7,7,0,0,0-.2-1.673,6.251,6.251,0,0,0-2.921-3.966,6.385,6.385,0,0,0-4.513-.892,6.3,6.3,0,0,0-3.615,1.9,6.35,6.35,0,0,0-1.727,5.993,6.609,6.609,0,0,0,6.123,5.184,6.275,6.275,0,0,0,3.346-.736A6.358,6.358,0,0,0,17.758,11.3Z" transform="translate(-0.006 -0.051)" fill="rgba(25,95,140,0.1)"/><path d="M416.874,11.682V1.844a2.731,2.731,0,0,1,.148-.907,1.234,1.234,0,0,1,.83-.783,2.769,2.769,0,0,1,.888-.134c2.75,0,5.5-.016,8.252.009A8.714,8.714,0,0,1,430.03.59a5.957,5.957,0,0,1,2.3,1.507,5.573,5.573,0,0,1,1.289,2.271,8.016,8.016,0,0,1,.285,1.771,6.529,6.529,0,0,1-.642,3.307,4.141,4.141,0,0,1-1.771,1.86c-.153.083-.32.14-.476.22-.171.089-.171.19,0,.285a3.4,3.4,0,0,1,.713.466,4.055,4.055,0,0,1,1.064,1.578,17.712,17.712,0,0,1,.639,2.207q.709,2.777,1.427,5.553a1.2,1.2,0,0,1,.033.376.407.407,0,0,1-.33.408,1.408,1.408,0,0,1-.352.041H431a3.224,3.224,0,0,1-.542-.056.874.874,0,0,1-.748-.728q-.166-.7-.34-1.4c-.348-1.4-.691-2.806-1.053-4.205a4.445,4.445,0,0,0-.72-1.589,2.626,2.626,0,0,0-1.6-.991,4.862,4.862,0,0,0-1.083-.1c-.944.006-1.886,0-2.83,0h-.166c-.111-.009-.162.038-.154.151v8.174c0,.119,0,.238-.007.357a.35.35,0,0,1-.324.35,2.891,2.891,0,0,1-.476.044H417.8a1.375,1.375,0,0,1-.329-.032.73.73,0,0,1-.6-.722v-.19Zm4.94-4.819V9.189c0,.229,0,.229.24.231h.048c1.338,0,2.677.006,4.015,0a3.407,3.407,0,0,0,1.3-.235,2.274,2.274,0,0,0,1.408-1.557,3.124,3.124,0,0,0,.081-1.035,2.2,2.2,0,0,0-.993-1.821,2.723,2.723,0,0,0-1.5-.433c-1.45-.006-2.9,0-4.348,0h-.118c-.1,0-.126.048-.125.133V6.863Z" transform="translate(-377.217 -0.01)" fill="rgba(25,95,140,0.1)"/><path d="M625.684-.034H630.3a1.82,1.82,0,0,1,.4.041.342.342,0,0,1,.285.277,1.625,1.625,0,0,1,.048.351v2.9a1.341,1.341,0,0,1-.034.285.408.408,0,0,1-.345.341,1.483,1.483,0,0,1-.329.03h-7.916a3.018,3.018,0,0,0-1.123.142,1.506,1.506,0,0,0-1,1.221,3.929,3.929,0,0,0-.049.731v1.4a.881.881,0,0,0,.793.887,3.99,3.99,0,0,0,.638.041h7.894a.4.4,0,0,1,.421.392,6.086,6.086,0,0,1,.046.684q-.009,1.461,0,2.923a5.554,5.554,0,0,1-.043.732.415.415,0,0,1-.419.4c-.11.008-.222,0-.333,0h-7.823a1.807,1.807,0,0,0-.6.1.8.8,0,0,0-.564.773c-.016.625-.023,1.252,0,1.877a1.682,1.682,0,0,0,.493,1.2,1.7,1.7,0,0,0,.863.417,3.288,3.288,0,0,0,.684.057h8.2a.486.486,0,0,1,.533.461,1.127,1.127,0,0,1,.012.19v2.923a1.127,1.127,0,0,1-.056.349.352.352,0,0,1-.285.256,2.439,2.439,0,0,1-.424.043c-3.019,0-6.039.006-9.059-.006a6.95,6.95,0,0,1-2.622-.47,4.736,4.736,0,0,1-2.473-2.188,6.182,6.182,0,0,1-.689-2.229,10.783,10.783,0,0,1-.084-1.322q0-5.137,0-10.287a7.1,7.1,0,0,1,.476-2.642A4.877,4.877,0,0,1,618.06.694a6.182,6.182,0,0,1,2.093-.641,14.21,14.21,0,0,1,1.918-.087Z" transform="translate(-556.802 0.038)" fill="rgba(25,95,140,0.1)"/><path d="M243.376.07a11.246,11.246,0,0,1,7.164,2.562,1.325,1.325,0,0,1,.113,2.04c-.438.446-.883.887-1.332,1.332a1.332,1.332,0,0,1-1.805.11A7.249,7.249,0,0,0,246.4,5.4a6.618,6.618,0,0,0-6.546.346,1.019,1.019,0,0,1-.649.185.842.842,0,0,1-.729-.532q-.246-.539-.538-1.057a10.811,10.811,0,0,0-.806-1.26.834.834,0,0,1,.239-1.237A11.263,11.263,0,0,1,241.784.2C242.326.119,242.871.094,243.376.07Z" transform="translate(-214.414 -0.06)" fill="rgba(25,95,140,0.1)"/></g><g transform="translate(599.045 347.693)"><g transform="translate(0 0)"><path d="M0,10.676c.028-.144.058-.288.084-.43A3.225,3.225,0,0,1,.994,8.5Q4.758,4.73,8.525.969a3.316,3.316,0,0,1,4.692.015q1.43,1.427,2.858,2.856c.041.041.084.081.126.123A10,10,0,0,1,24.516.785,9.772,9.772,0,0,1,31.227,4.2a10.071,10.071,0,0,1-.514,13.8A9.9,9.9,0,0,1,23.4,20.918a10.093,10.093,0,0,1-7.212-3.244,1.332,1.332,0,0,1-.108.143q-1.422,1.424-2.846,2.847a3.324,3.324,0,0,1-1.753.937l-.389.074h-.472c-.085-.019-.17-.042-.256-.055a3.191,3.191,0,0,1-1.815-.9Q4.758,16.933.974,13.144a3.186,3.186,0,0,1-.888-1.712c-.029-.154-.057-.307-.086-.462ZM16.214,3.984a10.049,10.049,0,0,0,0,13.687c.025-.022.052-.042.076-.066l.492-.492L20.7,13.194A3.316,3.316,0,0,0,20.71,8.47L16.32,4.085C16.285,4.051,16.249,4.018,16.214,3.984Z" transform="translate(0 -0.004)" fill="rgba(25,95,140,0.1)"/><path d="M1202.7,76.745c-.246.073-.483.165-.73.217a4.535,4.535,0,0,1-2.26-.079,3.31,3.31,0,0,1-2.316-2.33,5.3,5.3,0,0,1-.208-1.586V65.806H1195V63.994h2.178V60.758c.117-.036,1.931-.047,2.177-.016v3.246h3.237a16.156,16.156,0,0,1,.018,1.813c-.176.007-.355,0-.534,0h-2.7c0,.052-.01.094-.01.136v6.988a3.088,3.088,0,0,0,.115.861,1.678,1.678,0,0,0,1.579,1.322,3.778,3.778,0,0,0,1.647-.252Z" transform="translate(-1121.541 -56.992)" fill="rgba(25,95,140,0.1)"/><path d="M658.14,41.3h2.266c.028.184.052.369.086.553a4.346,4.346,0,0,0,1.045,2.19,3.991,3.991,0,0,0,2.036,1.18,5.642,5.642,0,0,0,3.281-.13,3.139,3.139,0,0,0,1.547-1.106,2.562,2.562,0,0,0,.482-1.721,2.536,2.536,0,0,0-1.091-1.952,6.188,6.188,0,0,0-1.54-.793c-.7-.266-1.428-.466-2.151-.676a20.172,20.172,0,0,1-2.424-.826,6.407,6.407,0,0,1-1.624-.976,3.8,3.8,0,0,1-1.339-2.512,4.662,4.662,0,0,1,.2-2.123,4.331,4.331,0,0,1,1.813-2.254,6,6,0,0,1,2.152-.849,8.578,8.578,0,0,1,4.085.168,5.411,5.411,0,0,1,2.625,1.641,5.6,5.6,0,0,1,1.226,2.484c.047.205.081.414.123.62-.116.034-1.989.046-2.3.017-.014-.061-.03-.128-.045-.193a3.456,3.456,0,0,0-2.505-2.664,5.317,5.317,0,0,0-3.319.07,2.585,2.585,0,0,0-1.272.894,2.309,2.309,0,0,0-.388,2.039,1.856,1.856,0,0,0,.566.9,3.7,3.7,0,0,0,.961.621,12.531,12.531,0,0,0,1.832.646c.806.235,1.614.462,2.416.71a9.4,9.4,0,0,1,1.919.825,5.236,5.236,0,0,1,1.381,1.111,4.276,4.276,0,0,1,.984,2.188,5.561,5.561,0,0,1-.017,1.906,4.538,4.538,0,0,1-1.721,2.78,6.052,6.052,0,0,1-2.459,1.129,8.726,8.726,0,0,1-4.445-.133,5.919,5.919,0,0,1-2.842-1.79,6.18,6.18,0,0,1-1.346-2.687A7.756,7.756,0,0,1,658.14,41.3Z" transform="translate(-617.683 -27.343)" fill="rgba(25,95,140,0.1)"/><path d="M1017.144,47.245h-2.5a.246.246,0,0,1-.22-.109q-2.325-3.083-4.654-6.164l-.138-.18c-.045.038-.083.069-.119.1-.553.508-1.106,1.019-1.66,1.525a.308.308,0,0,0-.112.253q.006,2.182,0,4.364v.2h-2.186V29.2c.107-.03,2.023-.035,2.185,0V39.673c.062-.049.1-.074.133-.1l2.873-2.54q1.441-1.275,2.88-2.552a.381.381,0,0,1,.277-.1c.861,0,1.721,0,2.582,0h.155l.009.032-5.382,4.9Z" transform="translate(-943.746 -27.379)" fill="rgba(25,95,140,0.1)"/><path d="M916.274,126.692h-2.151a.081.081,0,0,1-.018-.013.028.028,0,0,1-.006-.013.384.384,0,0,1-.009-.058V113.917a.5.5,0,0,1,.007-.055,21.619,21.619,0,0,1,2.179-.006Z" transform="translate(-857.899 -106.834)" fill="rgba(25,95,140,0.1)"/><path d="M907.392,27.3a1.428,1.428,0,0,1,1.429-1.475,1.648,1.648,0,0,1,.7.133,1.415,1.415,0,0,1,.84,1.521,1.447,1.447,0,0,1-1.645,1.249,1.392,1.392,0,0,1-1.189-.8A1.331,1.331,0,0,1,907.392,27.3Z" transform="translate(-851.613 -24.239)" fill="rgba(25,95,140,0.1)"/></g></g></g></g></svg>