<svg xmlns="http://www.w3.org/2000/svg" xmlns:xlink="http://www.w3.org/1999/xlink" width="350" height="200" viewBox="0 0 350 200"><defs><clipPath id="b"><rect width="350" height="200"/></clipPath></defs><g id="a" clip-path="url(#b)"><rect width="350" height="200" fill="#fff"/><path d="M0,0H350V200H0Z" fill="rgba(50,205,50,0.1)"/><path d="M84.459,15.509,45,.344a5.381,5.381,0,0,0-3.783,0L1.748,15.509A2.694,2.694,0,0,0,0,18.031v6.215A2.693,2.693,0,0,0,2.694,26.94H83.512a2.693,2.693,0,0,0,2.694-2.694V18.031A2.694,2.694,0,0,0,84.459,15.509ZM10.776,32.327V59.267H8.082a2.693,2.693,0,0,0-2.694,2.694v8.082H80.818V61.961a2.693,2.693,0,0,0-2.694-2.694H75.431V32.327H64.655V59.267H48.491V32.327H37.715V59.267H21.552V32.327Zm72.737,43.1H2.694A2.693,2.693,0,0,0,0,78.125v5.388a2.693,2.693,0,0,0,2.694,2.694H83.512a2.693,2.693,0,0,0,2.694-2.694V78.125A2.693,2.693,0,0,0,83.512,75.431Z" transform="translate(131.897 56.897)" fill="#32cd32"/><g transform="matrix(0.985, -0.174, 0.174, 0.985, -135.276, -84.73)"><g transform="translate(120.525 125.049)"><g transform="translate(38.767 39.857)"><path d="M106.366,105.6H103.5a.5.5,0,0,0-.5.5.553.553,0,0,0,.5.561h2.861a.518.518,0,0,0,.5-.561A.5.5,0,0,0,106.366,105.6Z" transform="translate(-103 -105.6)" fill="rgba(50,205,50,0.2)"/></g><g transform="translate(55.092 0.025)"><path d="M134.344,37.405a.509.509,0,0,1-.393-.168l-1.683-1.683a.555.555,0,1,1,.785-.785l1.683,1.683a.542.542,0,0,1,0,.785A.606.606,0,0,1,134.344,37.405Z" transform="translate(-132.1 -34.6)" fill="rgba(50,205,50,0.2)"/></g><g transform="translate(84.714 0.025)"><path d="M185.461,37.405a.509.509,0,0,1-.393-.168.542.542,0,0,1,0-.785l1.683-1.683a.555.555,0,0,1,.785.785l-1.683,1.683A.509.509,0,0,1,185.461,37.405Z" transform="translate(-184.9 -34.6)" fill="rgba(50,205,50,0.2)"/></g><g transform="translate(55.092 29.703)"><path d="M132.661,90.305a.509.509,0,0,1-.393-.168.542.542,0,0,1,0-.785l1.683-1.683a.555.555,0,0,1,.785.785l-1.683,1.683A.606.606,0,0,1,132.661,90.305Z" transform="translate(-132.1 -87.5)" fill="rgba(50,205,50,0.2)"/></g><g transform="translate(84.714 29.703)"><path d="M187.144,90.305a.509.509,0,0,1-.393-.168l-1.683-1.683a.555.555,0,0,1,.785-.785l1.683,1.683a.542.542,0,0,1,0,.785A.509.509,0,0,1,187.144,90.305Z" transform="translate(-184.9 -87.5)" fill="rgba(50,205,50,0.2)"/></g><g transform="translate(61.351 0)"><path d="M145.02,37.722a.5.5,0,0,1-.449-.281l-1.234-2.02a.568.568,0,0,1,.954-.617l1.234,2.02a.6.6,0,0,1-.168.785A.412.412,0,0,1,145.02,37.722Z" transform="translate(-143.256 -34.556)" fill="rgba(50,205,50,0.2)"/></g><g transform="translate(67.592 0.014)"><path d="M155.4,38.07a.546.546,0,0,1-.561-.449l-.449-2.356a.572.572,0,0,1,1.122-.224l.449,2.356a.568.568,0,0,1-.449.673Z" transform="translate(-154.381 -34.581)" fill="rgba(50,205,50,0.2)"/></g><g transform="translate(67.512 5.768)"><path d="M155.507,48.239a.539.539,0,0,1-.5-.393l-.729-2.244a.568.568,0,1,1,1.066-.393l.729,2.244a.584.584,0,0,1-.337.729A.424.424,0,0,1,155.507,48.239Z" transform="translate(-154.237 -44.837)" fill="rgba(50,205,50,0.2)"/></g><g transform="translate(78.953 0.042)"><path d="M175.175,37.755a.506.506,0,0,1-.281-.056.552.552,0,0,1-.168-.785l1.234-2.02a.568.568,0,0,1,.954.617l-1.234,2.02A.685.685,0,0,1,175.175,37.755Z" transform="translate(-174.631 -34.631)" fill="rgba(50,205,50,0.2)"/></g><g transform="translate(73.429 0.016)"><path d="M165.354,38.072h-.112a.582.582,0,0,1-.449-.673l.449-2.356a.572.572,0,1,1,1.122.224l-.449,2.356A.745.745,0,0,1,165.354,38.072Z" transform="translate(-164.785 -34.585)" fill="rgba(50,205,50,0.2)"/></g><g transform="translate(73.29 5.768)"><path d="M165.077,48.239a.206.206,0,0,1-.168-.056.561.561,0,0,1-.337-.729l.729-2.244a.568.568,0,1,1,1.066.393l-.729,2.244A.584.584,0,0,1,165.077,48.239Z" transform="translate(-164.537 -44.837)" fill="rgba(50,205,50,0.2)"/></g><g transform="translate(61.337 29.384)"><path d="M143.775,90.055a.506.506,0,0,1-.281-.056.552.552,0,0,1-.168-.785l1.234-2.02a.568.568,0,1,1,.954.617l-1.234,2.02A.711.711,0,0,1,143.775,90.055Z" transform="translate(-143.231 -86.931)" fill="rgba(50,205,50,0.2)"/></g><g transform="translate(67.594 29.021)"><path d="M154.954,89.772h-.112a.582.582,0,0,1-.449-.673l.449-2.356a.572.572,0,0,1,1.122.224l-.449,2.356A.6.6,0,0,1,154.954,89.772Z" transform="translate(-154.385 -86.285)" fill="rgba(50,205,50,0.2)"/></g><g transform="translate(67.456 23.272)"><path d="M154.677,79.439a.206.206,0,0,1-.168-.056.561.561,0,0,1-.337-.729l.729-2.244a.568.568,0,0,1,1.066.393l-.729,2.244A.584.584,0,0,1,154.677,79.439Z" transform="translate(-154.137 -76.037)" fill="rgba(50,205,50,0.2)"/></g><g transform="translate(78.967 29.341)"><path d="M176.42,90.022a.5.5,0,0,1-.449-.281l-1.234-2.02a.568.568,0,0,1,.954-.617l1.234,2.02a.6.6,0,0,1-.168.785A2.2,2.2,0,0,1,176.42,90.022Z" transform="translate(-174.656 -86.856)" fill="rgba(50,205,50,0.2)"/></g><g transform="translate(73.427 29.019)"><path d="M165.8,89.77a.546.546,0,0,1-.561-.449l-.449-2.356a.572.572,0,1,1,1.122-.224l.449,2.356a.568.568,0,0,1-.449.673A.078.078,0,0,0,165.8,89.77Z" transform="translate(-164.781 -86.281)" fill="rgba(50,205,50,0.2)"/></g><g transform="translate(73.346 23.272)"><path d="M165.907,79.439a.539.539,0,0,1-.5-.393l-.729-2.244a.568.568,0,0,1,1.066-.393l.729,2.244a.584.584,0,0,1-.337.729A.424.424,0,0,1,165.907,79.439Z" transform="translate(-164.637 -76.037)" fill="rgba(50,205,50,0.2)"/></g><g transform="translate(78.936 23.868)"><path d="M176.844,79.905a.509.509,0,0,1-.393-.168l-1.683-1.683a.555.555,0,0,1,.785-.785l1.683,1.683a.542.542,0,0,1,0,.785A.509.509,0,0,1,176.844,79.905Z" transform="translate(-174.6 -77.1)" fill="rgba(50,205,50,0.2)"/></g><g transform="translate(84.409 6.283)"><path d="M184.885,48.137a.5.5,0,0,1-.449-.281.6.6,0,0,1,.168-.785l2.02-1.234a.568.568,0,1,1,.617.954l-2.02,1.234C185.054,48.081,185,48.137,184.885,48.137Z" transform="translate(-184.356 -45.756)" fill="rgba(50,205,50,0.2)"/></g><g transform="translate(84.087 12.581)"><path d="M184.353,58.563a.546.546,0,0,1-.561-.449.568.568,0,0,1,.449-.673l2.356-.449a.572.572,0,1,1,.224,1.122l-2.356.449Z" transform="translate(-183.781 -56.981)" fill="rgba(50,205,50,0.2)"/></g><g transform="translate(78.396 12.388)"><path d="M174.177,58.524a.539.539,0,0,1-.5-.393.584.584,0,0,1,.337-.729l2.244-.729a.568.568,0,1,1,.393,1.066l-2.244.729A.424.424,0,0,1,174.177,58.524Z" transform="translate(-173.637 -56.637)" fill="rgba(50,205,50,0.2)"/></g><g transform="translate(84.395 23.886)"><path d="M186.894,79.47a.506.506,0,0,1-.281-.056l-2.02-1.234a.568.568,0,0,1,.617-.954l2.02,1.234a.552.552,0,0,1,.168.785A.711.711,0,0,1,186.894,79.47Z" transform="translate(-184.331 -77.131)" fill="rgba(50,205,50,0.2)"/></g><g transform="translate(84.032 18.362)"><path d="M186.611,68.864H186.5l-2.356-.449a.572.572,0,0,1,.224-1.122l2.356.449a.582.582,0,0,1,.449.673A.546.546,0,0,1,186.611,68.864Z" transform="translate(-183.685 -67.285)" fill="rgba(50,205,50,0.2)"/></g><g transform="translate(78.396 18.223)"><path d="M176.422,68.924a.206.206,0,0,1-.168-.056l-2.244-.729a.568.568,0,0,1,.393-1.066l2.244.729a.561.561,0,0,1,.337.729A.676.676,0,0,1,176.422,68.924Z" transform="translate(-173.637 -67.037)" fill="rgba(50,205,50,0.2)"/></g><g transform="translate(55.11 6.326)"><path d="M134.694,48.17a.506.506,0,0,1-.281-.056l-2.02-1.234a.568.568,0,1,1,.617-.954l2.02,1.234a.552.552,0,0,1,.168.785A.835.835,0,0,1,134.694,48.17Z" transform="translate(-132.131 -45.831)" fill="rgba(50,205,50,0.2)"/></g><g transform="translate(55.028 12.583)"><path d="M134.911,58.564H134.8l-2.356-.449a.572.572,0,0,1,.224-1.122l2.356.449a.582.582,0,0,1,.449.673A.6.6,0,0,1,134.911,58.564Z" transform="translate(-131.985 -56.985)" fill="rgba(50,205,50,0.2)"/></g><g transform="translate(60.892 12.388)"><path d="M145.221,58.524a.206.206,0,0,1-.168-.056l-2.244-.729a.568.568,0,0,1,.393-1.066l2.244.729a.561.561,0,0,1,.337.729A.675.675,0,0,1,145.221,58.524Z" transform="translate(-142.437 -56.637)" fill="rgba(50,205,50,0.2)"/></g><g transform="translate(55.123 23.843)"><path d="M132.685,79.437a.5.5,0,0,1-.449-.281.6.6,0,0,1,.168-.785l2.02-1.234a.568.568,0,0,1,.617.954l-2.02,1.234A2.206,2.206,0,0,1,132.685,79.437Z" transform="translate(-132.156 -77.056)" fill="rgba(50,205,50,0.2)"/></g><g transform="translate(55.082 18.36)"><path d="M132.653,68.863a.546.546,0,0,1-.561-.449.568.568,0,0,1,.449-.673l2.356-.449a.572.572,0,1,1,.224,1.122l-2.356.449Z" transform="translate(-132.081 -67.281)" fill="rgba(50,205,50,0.2)"/></g><g transform="translate(60.892 18.223)"><path d="M142.977,68.924a.539.539,0,0,1-.5-.393.584.584,0,0,1,.337-.729l2.244-.729a.568.568,0,0,1,.393,1.066l-2.244.729A.424.424,0,0,1,142.977,68.924Z" transform="translate(-142.437 -67.037)" fill="rgba(50,205,50,0.2)"/></g><g transform="translate(66.425 11.358)"><path d="M155.105,58.727a1.108,1.108,0,0,1-.785-.337l-1.683-1.683a1.111,1.111,0,1,1,1.571-1.571l1.683,1.683a1.085,1.085,0,0,1,0,1.571A1.108,1.108,0,0,1,155.105,58.727Z" transform="translate(-152.3 -54.8)" fill="rgba(50,205,50,0.2)"/></g><g transform="translate(72.26 11.358)"><path d="M163.822,58.727a1.108,1.108,0,0,1-.785-.337,1.085,1.085,0,0,1,0-1.571l1.683-1.683a1.111,1.111,0,0,1,1.571,1.571l-1.683,1.683A1.108,1.108,0,0,1,163.822,58.727Z" transform="translate(-162.7 -54.8)" fill="rgba(50,205,50,0.2)"/></g><g transform="translate(66.425 17.192)"><path d="M153.422,69.127a1.108,1.108,0,0,1-.785-.337,1.085,1.085,0,0,1,0-1.571l1.683-1.683a1.111,1.111,0,0,1,1.571,1.571l-1.683,1.683A1.108,1.108,0,0,1,153.422,69.127Z" transform="translate(-152.3 -65.2)" fill="rgba(50,205,50,0.2)"/></g><g transform="translate(72.26 17.192)"><path d="M165.505,69.127a1.108,1.108,0,0,1-.785-.337l-1.683-1.683a1.111,1.111,0,0,1,1.571-1.571l1.683,1.683a1.085,1.085,0,0,1,0,1.571A1.108,1.108,0,0,1,165.505,69.127Z" transform="translate(-162.7 -65.2)" fill="rgba(50,205,50,0.2)"/></g><path d="M115.154,102.769l3.815-3.815a.555.555,0,0,0-.785-.785l-3.815,3.815-3.815-3.815a.555.555,0,0,0-.785.785l3.815,3.815-3.815,3.815a.542.542,0,0,0,0,.785.542.542,0,0,0,.785,0l3.815-3.815,3.815,3.815a.542.542,0,0,0,.785,0,.542.542,0,0,0,0-.785Z" transform="translate(-67.131 -62.406)" fill="rgba(50,205,50,0.2)"/><g transform="translate(60.871 23.868)"><path d="M142.961,79.905a.509.509,0,0,1-.393-.168.542.542,0,0,1,0-.785l1.683-1.683a.555.555,0,0,1,.785.785l-1.683,1.683A.606.606,0,0,1,142.961,79.905Z" transform="translate(-142.4 -77.1)" fill="rgba(50,205,50,0.2)"/></g><g transform="translate(60.871 5.803)"><path d="M144.644,47.705a.509.509,0,0,1-.393-.168l-1.683-1.683a.555.555,0,0,1,.785-.785l1.683,1.683a.542.542,0,0,1,0,.785A.606.606,0,0,1,144.644,47.705Z" transform="translate(-142.4 -44.9)" fill="rgba(50,205,50,0.2)"/></g><g transform="translate(78.936 5.803)"><path d="M175.161,47.705a.509.509,0,0,1-.393-.168.542.542,0,0,1,0-.785l1.683-1.683a.555.555,0,0,1,.785.785l-1.683,1.683A.509.509,0,0,1,175.161,47.705Z" transform="translate(-174.6 -44.9)" fill="rgba(50,205,50,0.2)"/></g><g transform="translate(11.557 35.65)"><path d="M62.8,98.156a.53.53,0,0,0-.561.561v.954a4.389,4.389,0,0,0-7.742,3.142,4.616,4.616,0,0,0,4.432,4.713,4.342,4.342,0,0,0,3.31-1.571v1.01a.561.561,0,0,0,1.122,0V98.717A.562.562,0,0,0,62.8,98.156Zm-.617,4.713a3.317,3.317,0,1,1-6.62,0,3.456,3.456,0,0,1,3.31-3.591A3.421,3.421,0,0,1,62.186,102.869Z" transform="translate(-54.5 -98.1)" fill="rgba(50,205,50,0.2)"/></g><g transform="translate(23.675 32.452)"><path d="M76.661,92.4a.562.562,0,0,0-.561.561v.449a.614.614,0,0,0,.561.617.623.623,0,0,0,.617-.617v-.449A.659.659,0,0,0,76.661,92.4Z" transform="translate(-76.1 -92.4)" fill="rgba(50,205,50,0.2)"/><g transform="translate(0 3.254)"><path d="M76.661,98.2a.53.53,0,0,0-.561.561v8.247a.562.562,0,0,0,.561.561.614.614,0,0,0,.617-.561V98.761A.612.612,0,0,0,76.661,98.2Z" transform="translate(-76.1 -98.2)" fill="rgba(50,205,50,0.2)"/></g></g><g transform="translate(27.546 35.65)"><path d="M91.3,98.156a.53.53,0,0,0-.561.561v.954A4.389,4.389,0,0,0,83,102.813a4.616,4.616,0,0,0,4.432,4.713,4.342,4.342,0,0,0,3.31-1.571v1.01a.562.562,0,0,0,.561.561.6.6,0,0,0,.561-.561V98.717A.562.562,0,0,0,91.3,98.156Zm-.617,4.713a3.317,3.317,0,1,1-6.62,0,3.456,3.456,0,0,1,3.31-3.591A3.421,3.421,0,0,1,90.686,102.869Z" transform="translate(-83 -98.1)" fill="rgba(50,205,50,0.2)"/></g><g transform="translate(0 35.65)"><path d="M42.259,98.156a.614.614,0,0,0-.617.561v.954a4.443,4.443,0,0,0-3.31-1.571,4.662,4.662,0,0,0,0,9.313,4.388,4.388,0,0,0,3.31-1.515v.729a3.234,3.234,0,0,1-3.31,3.254,3.857,3.857,0,0,1-1.346-.281,3.945,3.945,0,0,1-1.066-.729.568.568,0,0,0-.393-.224.637.637,0,0,0-.449.168.6.6,0,0,0-.056.785,5.116,5.116,0,0,0,1.29.954l.056.056c.056,0,.056,0,.112.056l.112.056c.056,0,.056.056.112.056a3.882,3.882,0,0,0,1.571.281,4.911,4.911,0,0,0,.9-.112h.056c.281-.056.561-.168.785-.224a4.182,4.182,0,0,0,.673-.393l.168-.168.056-.056a1.224,1.224,0,0,0,.281-.224l.337-.337a.174.174,0,0,0,.056-.112,4.483,4.483,0,0,0,1.066-2.805v-7.91C42.82,98.437,42.54,98.156,42.259,98.156Zm-.561,4.656a3.291,3.291,0,1,1-3.31-3.534A3.442,3.442,0,0,1,41.7,102.813Z" transform="translate(-33.9 -98.1)" fill="rgba(50,205,50,0.2)"/></g></g><g transform="translate(241.773 152.754)"><path d="M92.186,109.051a3.684,3.684,0,0,0-1.754-.421c-1.5,0-2.031.561-2.031,2.144v2.415c0,1.4.475,1.919,1.751,1.919,1.125,0,1.525-.376,1.525-1.433v-1.3H90.647a.182.182,0,0,1-.181-.181v-.612a.18.18,0,0,1,.181-.181H92.8a.182.182,0,0,1,.181.181v1.874c0,1.306-.335,2.644-2.811,2.644h0c-2.165,0-3.174-.886-3.174-2.787V110.73c0-1.642.407-3.16,3.352-3.16a4.161,4.161,0,0,1,2.3.571.186.186,0,0,1,.065.233l-.3.6A.169.169,0,0,1,92.186,109.051Zm-28.595,7.056c-2.558,0-3.1-1.289-3.1-2.37v-3.331c0-1.96.944-2.835,3.061-2.835,2.038,0,3.071.941,3.071,2.8v3.013c0,2.445-1.734,2.726-3.037,2.726Zm.021-7.428c-1.269,0-1.782.527-1.782,1.816v2.948c0,1.471,1.467,1.546,1.761,1.546.869,0,1.672-.212,1.672-1.761V110.45c0-1.194-.54-1.772-1.652-1.772Zm44.214,7.281h-1a.182.182,0,0,1-.181-.181v-7.035h-2.124a.182.182,0,0,1-.181-.181v-.691a.182.182,0,0,1,.181-.181h5.623a.182.182,0,0,1,.181.181v.691a.18.18,0,0,1-.181.181H108v7.035a.175.175,0,0,1-.178.181Zm-11.669,0H95.147a.18.18,0,0,1-.178-.181v-7.907a.18.18,0,0,1,.178-.181h1.009a.18.18,0,0,1,.178.181v7.907a.18.18,0,0,1-.178.181Zm-10.927,0H80.8a.182.182,0,0,1-.181-.181v-7.907a.18.18,0,0,1,.181-.181h4.248a.18.18,0,0,1,.178.181v.67a.18.18,0,0,1-.178.181h-3.14v2.394h2.6a.179.179,0,0,1,.178.178v.691a.179.179,0,0,1-.178.178H81.929v2.719h3.3a.18.18,0,0,1,.178.181v.715a.173.173,0,0,1-.174.181Zm18.048,0H98.848a.182.182,0,0,1-.181-.181v-7.907a.182.182,0,0,1,.181-.181H103.1a.18.18,0,0,1,.178.181v.67a.18.18,0,0,1-.178.181h-3.14v2.394h2.6a.179.179,0,0,1,.178.178v.691a.179.179,0,0,1-.178.178H99.977v2.719h3.3a.182.182,0,0,1,.181.181v.715a.177.177,0,0,1-.178.181Zm-30.1,0H68.905a.18.18,0,0,1-.178-.181v-7.907a.18.18,0,0,1,.178-.181h1.009a.18.18,0,0,1,.178.181v7.059h3.085a.179.179,0,0,1,.178.178v.67a.182.182,0,0,1-.181.181Zm5.947,0H74.853a.182.182,0,0,1-.181-.181v-7.907a.18.18,0,0,1,.181-.181h1.005a.182.182,0,0,1,.181.181v7.059h3.085a.179.179,0,0,1,.178.178v.67a.18.18,0,0,1-.181.181Zm-27.265,0H50.8a.176.176,0,0,1-.161-.1l-1.628-3.341h-1.43v3.263a.182.182,0,0,1-.181.181H46.384a.182.182,0,0,1-.181-.181v-7.9a.182.182,0,0,1,.181-.181h2.507c1.967,0,3.1.879,3.1,2.4a2.2,2.2,0,0,1-1.662,2.144l1.693,3.458a.18.18,0,0,1-.161.26Zm-4.272-7.237v2.719H49.2a1.266,1.266,0,0,0,1.409-1.344c0-1.2-1.112-1.375-1.772-1.375ZM26.9,107.7H25.8a.175.175,0,0,0-.154.089l-2.172,3.625L21.3,107.785a.18.18,0,0,0-.154-.089h-1.1a.182.182,0,0,0-.181.181v7.9a.18.18,0,0,0,.181.181h1.009a.182.182,0,0,0,.181-.181v-6.118l1.895,3.317a.184.184,0,0,0,.157.092h.38a.181.181,0,0,0,.157-.092l1.895-3.317v6.118a.182.182,0,0,0,.181.181h1.009a.182.182,0,0,0,.181-.181v-7.9A.2.2,0,0,0,26.9,107.7Zm9.627,0h-1.1a.18.18,0,0,0-.154.089L33.1,111.411l-2.172-3.625a.184.184,0,0,0-.154-.089h-1.1a.182.182,0,0,0-.181.181v7.9a.182.182,0,0,0,.181.181H30.68a.182.182,0,0,0,.181-.181v-6.118l1.895,3.317a.188.188,0,0,0,.157.092h.38a.181.181,0,0,0,.157-.092l1.895-3.317v6.118a.182.182,0,0,0,.181.181h1.009a.182.182,0,0,0,.181-.181v-7.9A.2.2,0,0,0,36.524,107.7Zm-18.338,8.263H17.14a.18.18,0,0,1-.171-.127l-.537-1.748H13.62l-.516,1.748a.177.177,0,0,1-.171.127h-.824a.179.179,0,0,1-.171-.233l2.4-7.907a.183.183,0,0,1,.171-.13h1.276a.177.177,0,0,1,.171.127l2.4,7.907a.183.183,0,0,1-.174.236Zm-3.153-6.649-1.1,3.769h2.2l-1.1-3.769Zm29.46,6.649H43.447a.177.177,0,0,1-.171-.127l-.537-1.748H39.927l-.513,1.748a.18.18,0,0,1-.171.127h-.824a.179.179,0,0,1-.171-.233l2.4-7.907a.183.183,0,0,1,.171-.13H42.1a.177.177,0,0,1,.171.127l2.4,7.907a.183.183,0,0,1-.174.236Zm-3.153-6.649-1.1,3.769h2.2l-1.1-3.769Zm-30.281,6.649H9.985a.185.185,0,0,1-.144-.072l-2.722-3.618-.3.349v3.164a.182.182,0,0,1-.181.181H5.628a.18.18,0,0,1-.178-.181v-7.9a.18.18,0,0,1,.178-.181H6.633a.182.182,0,0,1,.181.181v3.174l2.856-3.29a.175.175,0,0,1,.137-.065h1.012a.181.181,0,0,1,.137.3L8,111.4l3.2,4.275a.177.177,0,0,1-.144.284Zm0,0H9.985a.185.185,0,0,1-.144-.072l-2.722-3.618-.3.349v3.164a.182.182,0,0,1-.181.181H5.628a.18.18,0,0,1-.178-.181v-7.9a.18.18,0,0,1,.178-.181H6.633a.182.182,0,0,1,.181.181v3.174l2.856-3.29a.175.175,0,0,1,.137-.065h1.012a.181.181,0,0,1,.137.3L8,111.4l3.2,4.275a.177.177,0,0,1-.144.284Zm48.366,0H58.348a.185.185,0,0,1-.144-.072l-2.722-3.618-.3.349v3.164a.182.182,0,0,1-.181.181H53.987a.182.182,0,0,1-.181-.181v-7.9a.182.182,0,0,1,.181-.181H55a.182.182,0,0,1,.181.181v3.174l2.856-3.29a.18.18,0,0,1,.137-.065h1.012a.181.181,0,0,1,.137.3L56.361,111.4l3.2,4.275a.175.175,0,0,1-.14.284Z" transform="translate(-5.45 -107.57)" fill="rgba(50,205,50,0.2)"/></g><path d="M106.838,26.841c.048.133.137.376.185.5a.535.535,0,0,1-.017.41.542.542,0,0,1-.3.277.531.531,0,0,0-.3.277l-.954,2.049a.78.78,0,0,0,.376,1.036l.414.192,1.125-2.411a.536.536,0,1,1,.971.451l-1.125,2.411,1.118.52,1.125-2.411a.536.536,0,1,1,.971.451L109.3,33.008l.414.192a.776.776,0,0,0,1.033-.376l.954-2.049a.535.535,0,0,0,.017-.41.535.535,0,0,1,.017-.41.542.542,0,0,1,.3-.277c.13-.048.369-.133.5-.185ZM135.32,38.678a2.6,2.6,0,0,1-3.454,1.259,2.6,2.6,0,0,1-4.415-2.685l.3-.653a2.092,2.092,0,0,0,1.707.024l-.6,1.289a1.042,1.042,0,0,0,1.768,1.077,1.557,1.557,0,0,1,1.891-.462,1.042,1.042,0,0,0,.882-1.888,1.555,1.555,0,0,1-.862-1.744,1.055,1.055,0,0,0-.578-1.17,1.042,1.042,0,0,0-1.385.506l-.534,1.146a1.557,1.557,0,0,1-2.066.742l-4.272-1.99,1.843-.858,3.088,1.44.53-1.135a2.6,2.6,0,0,1,4.894,1.652A2.594,2.594,0,0,1,135.32,38.678Zm-1.7-9.179c.133.048.376.137.5.185a.536.536,0,0,1,.318.687.535.535,0,0,0,.017.41l.954,2.049a.78.78,0,0,0,1.036.376l.414-.192L135.741,30.6a.536.536,0,1,1,.971-.451l1.125,2.411,1.118-.52-1.125-2.411a.536.536,0,1,1,.971-.451l1.125,2.411.414-.192a.779.779,0,0,0,.376-1.036l-.954-2.049a.541.541,0,0,0-.3-.277.536.536,0,0,1-.318-.687c.048-.13.133-.369.185-.5Zm-15.438,6.614a1.561,1.561,0,0,1-2.066-.742l-.534-1.146a1.043,1.043,0,0,0-1.963.663,1.555,1.555,0,0,1-.862,1.744,1.041,1.041,0,1,0,.879,1.888,1.557,1.557,0,0,1,1.891.462,1.042,1.042,0,0,0,1.768-1.077l-.6-1.289a2.092,2.092,0,0,0,1.707-.024h0l.3.653a2.6,2.6,0,0,1-4.415,2.685,2.6,2.6,0,0,1-2.2-4.713,2.6,2.6,0,0,1,4.894-1.652l.53,1.135,3.714-1.731-14.368-6.7a.777.777,0,0,1,.657-1.409l15.551,7.25,15.551-7.25a.777.777,0,1,1,.657,1.409Zm12.169-11.645v3.02H115.812v-3.02h14.542Zm-5.913-9.3a1.358,1.358,0,1,1-1.761-1.3v-.458h-.807v-.807h.807V11.8h.807v.807h.807v.807h-.807v.458A1.364,1.364,0,0,1,124.441,15.172ZM122.6,23.955c-.616,0-2.281-3.519-.889-6.837h0c-3.034,0-3.276,4.487-.927,6.837H119.13c-.9,0-2.958-2.319-2.141-5.25a3.591,3.591,0,0,1,.92-1.6c-3.54-.161-3.974,4.62-.759,6.857H116c-1.529,0-3.9-2.763-2.8-5.582a3.688,3.688,0,0,1,5.2-1.669,3.167,3.167,0,0,1,2.483-.458,5.162,5.162,0,0,1,1.344.588,1.868,1.868,0,0,0,.862.212,1.826,1.826,0,0,0,.862-.212,5.219,5.219,0,0,1,1.344-.588,3.172,3.172,0,0,1,2.483.458,3.687,3.687,0,0,1,5.2,1.669c1.091,2.818-1.279,5.582-2.808,5.582h-1.153c3.215-2.233,2.78-7.018-.759-6.857a3.578,3.578,0,0,1,.92,1.6c.817,2.931-1.245,5.25-2.141,5.25h-1.659c2.346-2.346,2.107-6.837-.927-6.837h0c1.392,3.314-.274,6.837-.889,6.837Z" transform="translate(170.572 108.2)" fill="rgba(50,205,50,0.2)"/><g transform="translate(104.324 264.96)"><path d="M92.186,109.051a3.684,3.684,0,0,0-1.754-.421c-1.5,0-2.031.561-2.031,2.144v2.415c0,1.4.475,1.919,1.751,1.919,1.125,0,1.525-.376,1.525-1.433v-1.3H90.647a.182.182,0,0,1-.181-.181v-.612a.18.18,0,0,1,.181-.181H92.8a.182.182,0,0,1,.181.181v1.874c0,1.306-.335,2.644-2.811,2.644h0c-2.165,0-3.174-.886-3.174-2.787V110.73c0-1.642.407-3.16,3.352-3.16a4.161,4.161,0,0,1,2.3.571.186.186,0,0,1,.065.233l-.3.6A.169.169,0,0,1,92.186,109.051Zm-28.595,7.056c-2.558,0-3.1-1.289-3.1-2.37v-3.331c0-1.96.944-2.835,3.061-2.835,2.038,0,3.071.941,3.071,2.8v3.013c0,2.445-1.734,2.726-3.037,2.726Zm.021-7.428c-1.269,0-1.782.527-1.782,1.816v2.948c0,1.471,1.467,1.546,1.761,1.546.869,0,1.672-.212,1.672-1.761V110.45c0-1.194-.54-1.772-1.652-1.772Zm44.214,7.281h-1a.182.182,0,0,1-.181-.181v-7.035h-2.124a.182.182,0,0,1-.181-.181v-.691a.182.182,0,0,1,.181-.181h5.623a.182.182,0,0,1,.181.181v.691a.18.18,0,0,1-.181.181H108v7.035a.175.175,0,0,1-.178.181Zm-11.669,0H95.147a.18.18,0,0,1-.178-.181v-7.907a.18.18,0,0,1,.178-.181h1.009a.18.18,0,0,1,.178.181v7.907a.18.18,0,0,1-.178.181Zm-10.927,0H80.8a.182.182,0,0,1-.181-.181v-7.907a.18.18,0,0,1,.181-.181h4.248a.18.18,0,0,1,.178.181v.67a.18.18,0,0,1-.178.181h-3.14v2.394h2.6a.179.179,0,0,1,.178.178v.691a.179.179,0,0,1-.178.178H81.929v2.719h3.3a.18.18,0,0,1,.178.181v.715a.173.173,0,0,1-.174.181Zm18.048,0H98.848a.182.182,0,0,1-.181-.181v-7.907a.182.182,0,0,1,.181-.181H103.1a.18.18,0,0,1,.178.181v.67a.18.18,0,0,1-.178.181h-3.14v2.394h2.6a.179.179,0,0,1,.178.178v.691a.179.179,0,0,1-.178.178H99.977v2.719h3.3a.182.182,0,0,1,.181.181v.715a.177.177,0,0,1-.178.181Zm-30.1,0H68.905a.18.18,0,0,1-.178-.181v-7.907a.18.18,0,0,1,.178-.181h1.009a.18.18,0,0,1,.178.181v7.059h3.085a.179.179,0,0,1,.178.178v.67a.182.182,0,0,1-.181.181Zm5.947,0H74.853a.182.182,0,0,1-.181-.181v-7.907a.18.18,0,0,1,.181-.181h1.005a.182.182,0,0,1,.181.181v7.059h3.085a.179.179,0,0,1,.178.178v.67a.18.18,0,0,1-.181.181Zm-27.265,0H50.8a.176.176,0,0,1-.161-.1l-1.628-3.341h-1.43v3.263a.182.182,0,0,1-.181.181H46.384a.182.182,0,0,1-.181-.181v-7.9a.182.182,0,0,1,.181-.181h2.507c1.967,0,3.1.879,3.1,2.4a2.2,2.2,0,0,1-1.662,2.144l1.693,3.458a.18.18,0,0,1-.161.26Zm-4.272-7.237v2.719H49.2a1.266,1.266,0,0,0,1.409-1.344c0-1.2-1.112-1.375-1.772-1.375ZM26.9,107.7H25.8a.175.175,0,0,0-.154.089l-2.172,3.625L21.3,107.785a.18.18,0,0,0-.154-.089h-1.1a.182.182,0,0,0-.181.181v7.9a.18.18,0,0,0,.181.181h1.009a.182.182,0,0,0,.181-.181v-6.118l1.895,3.317a.184.184,0,0,0,.157.092h.38a.181.181,0,0,0,.157-.092l1.895-3.317v6.118a.182.182,0,0,0,.181.181h1.009a.182.182,0,0,0,.181-.181v-7.9A.2.2,0,0,0,26.9,107.7Zm9.627,0h-1.1a.18.18,0,0,0-.154.089L33.1,111.411l-2.172-3.625a.184.184,0,0,0-.154-.089h-1.1a.182.182,0,0,0-.181.181v7.9a.182.182,0,0,0,.181.181H30.68a.182.182,0,0,0,.181-.181v-6.118l1.895,3.317a.188.188,0,0,0,.157.092h.38a.181.181,0,0,0,.157-.092l1.895-3.317v6.118a.182.182,0,0,0,.181.181h1.009a.182.182,0,0,0,.181-.181v-7.9A.2.2,0,0,0,36.524,107.7Zm-18.338,8.263H17.14a.18.18,0,0,1-.171-.127l-.537-1.748H13.62l-.516,1.748a.177.177,0,0,1-.171.127h-.824a.179.179,0,0,1-.171-.233l2.4-7.907a.183.183,0,0,1,.171-.13h1.276a.177.177,0,0,1,.171.127l2.4,7.907a.183.183,0,0,1-.174.236Zm-3.153-6.649-1.1,3.769h2.2l-1.1-3.769Zm29.46,6.649H43.447a.177.177,0,0,1-.171-.127l-.537-1.748H39.927l-.513,1.748a.18.18,0,0,1-.171.127h-.824a.179.179,0,0,1-.171-.233l2.4-7.907a.183.183,0,0,1,.171-.13H42.1a.177.177,0,0,1,.171.127l2.4,7.907a.183.183,0,0,1-.174.236Zm-3.153-6.649-1.1,3.769h2.2l-1.1-3.769Zm-30.281,6.649H9.985a.185.185,0,0,1-.144-.072l-2.722-3.618-.3.349v3.164a.182.182,0,0,1-.181.181H5.628a.18.18,0,0,1-.178-.181v-7.9a.18.18,0,0,1,.178-.181H6.633a.182.182,0,0,1,.181.181v3.174l2.856-3.29a.175.175,0,0,1,.137-.065h1.012a.181.181,0,0,1,.137.3L8,111.4l3.2,4.275a.177.177,0,0,1-.144.284Zm0,0H9.985a.185.185,0,0,1-.144-.072l-2.722-3.618-.3.349v3.164a.182.182,0,0,1-.181.181H5.628a.18.18,0,0,1-.178-.181v-7.9a.18.18,0,0,1,.178-.181H6.633a.182.182,0,0,1,.181.181v3.174l2.856-3.29a.175.175,0,0,1,.137-.065h1.012a.181.181,0,0,1,.137.3L8,111.4l3.2,4.275a.177.177,0,0,1-.144.284Zm48.366,0H58.348a.185.185,0,0,1-.144-.072l-2.722-3.618-.3.349v3.164a.182.182,0,0,1-.181.181H53.987a.182.182,0,0,1-.181-.181v-7.9a.182.182,0,0,1,.181-.181H55a.182.182,0,0,1,.181.181v3.174l2.856-3.29a.18.18,0,0,1,.137-.065h1.012a.181.181,0,0,1,.137.3L56.361,111.4l3.2,4.275a.175.175,0,0,1-.14.284Z" transform="translate(-5.45 -107.57)" fill="rgba(50,205,50,0.2)"/></g><path d="M106.838,26.841c.048.133.137.376.185.5a.535.535,0,0,1-.017.41.542.542,0,0,1-.3.277.531.531,0,0,0-.3.277l-.954,2.049a.78.78,0,0,0,.376,1.036l.414.192,1.125-2.411a.536.536,0,1,1,.971.451l-1.125,2.411,1.118.52,1.125-2.411a.536.536,0,1,1,.971.451L109.3,33.008l.414.192a.776.776,0,0,0,1.033-.376l.954-2.049a.535.535,0,0,0,.017-.41.535.535,0,0,1,.017-.41.542.542,0,0,1,.3-.277c.13-.048.369-.133.5-.185ZM135.32,38.678a2.6,2.6,0,0,1-3.454,1.259,2.6,2.6,0,0,1-4.415-2.685l.3-.653a2.092,2.092,0,0,0,1.707.024l-.6,1.289a1.042,1.042,0,0,0,1.768,1.077,1.557,1.557,0,0,1,1.891-.462,1.042,1.042,0,0,0,.882-1.888,1.555,1.555,0,0,1-.862-1.744,1.055,1.055,0,0,0-.578-1.17,1.042,1.042,0,0,0-1.385.506l-.534,1.146a1.557,1.557,0,0,1-2.066.742l-4.272-1.99,1.843-.858,3.088,1.44.53-1.135a2.6,2.6,0,0,1,4.894,1.652A2.594,2.594,0,0,1,135.32,38.678Zm-1.7-9.179c.133.048.376.137.5.185a.536.536,0,0,1,.318.687.535.535,0,0,0,.017.41l.954,2.049a.78.78,0,0,0,1.036.376l.414-.192L135.741,30.6a.536.536,0,1,1,.971-.451l1.125,2.411,1.118-.52-1.125-2.411a.536.536,0,1,1,.971-.451l1.125,2.411.414-.192a.779.779,0,0,0,.376-1.036l-.954-2.049a.541.541,0,0,0-.3-.277.536.536,0,0,1-.318-.687c.048-.13.133-.369.185-.5Zm-15.438,6.614a1.561,1.561,0,0,1-2.066-.742l-.534-1.146a1.043,1.043,0,0,0-1.963.663,1.555,1.555,0,0,1-.862,1.744,1.041,1.041,0,1,0,.879,1.888,1.557,1.557,0,0,1,1.891.462,1.042,1.042,0,0,0,1.768-1.077l-.6-1.289a2.092,2.092,0,0,0,1.707-.024h0l.3.653a2.6,2.6,0,0,1-4.415,2.685,2.6,2.6,0,0,1-2.2-4.713,2.6,2.6,0,0,1,4.894-1.652l.53,1.135,3.714-1.731-14.368-6.7a.777.777,0,0,1,.657-1.409l15.551,7.25,15.551-7.25a.777.777,0,1,1,.657,1.409Zm12.169-11.645v3.02H115.812v-3.02h14.542Zm-5.913-9.3a1.358,1.358,0,1,1-1.761-1.3v-.458h-.807v-.807h.807V11.8h.807v.807h.807v.807h-.807v.458A1.364,1.364,0,0,1,124.441,15.172ZM122.6,23.955c-.616,0-2.281-3.519-.889-6.837h0c-3.034,0-3.276,4.487-.927,6.837H119.13c-.9,0-2.958-2.319-2.141-5.25a3.591,3.591,0,0,1,.92-1.6c-3.54-.161-3.974,4.62-.759,6.857H116c-1.529,0-3.9-2.763-2.8-5.582a3.688,3.688,0,0,1,5.2-1.669,3.167,3.167,0,0,1,2.483-.458,5.162,5.162,0,0,1,1.344.588,1.868,1.868,0,0,0,.862.212,1.826,1.826,0,0,0,.862-.212,5.219,5.219,0,0,1,1.344-.588,3.172,3.172,0,0,1,2.483.458,3.687,3.687,0,0,1,5.2,1.669c1.091,2.818-1.279,5.582-2.808,5.582h-1.153c3.215-2.233,2.78-7.018-.759-6.857a3.578,3.578,0,0,1,.92,1.6c.817,2.931-1.245,5.25-2.141,5.25h-1.659c2.346-2.346,2.107-6.837-.927-6.837h0c1.392,3.314-.274,6.837-.889,6.837Z" transform="translate(33.123 220.406)" fill="rgba(50,205,50,0.2)"/><path d="M32.531,3.1,25.486.16a1.767,1.767,0,0,0-1.354,0L17.086,3.1A1.76,1.76,0,0,0,16,4.721c0,7.284,4.2,12.319,8.128,13.955a1.767,1.767,0,0,0,1.354,0c3.145-1.31,8.132-5.835,8.132-13.955A1.762,1.762,0,0,0,32.531,3.1ZM24.811,16.4l0-13.981,6.455,2.69C31.141,10.666,28.249,14.691,24.811,16.4Z" transform="translate(128.329 189.742)" fill="rgba(50,205,50,0.2)"/><path d="M10.564-6.859h2.812v5.4A8.034,8.034,0,0,1,10.868-.209,9.737,9.737,0,0,1,8,.228,7.775,7.775,0,0,1,4.275-.655,6.577,6.577,0,0,1,1.681-3.106,6.753,6.753,0,0,1,.741-6.65a6.753,6.753,0,0,1,.94-3.543,6.545,6.545,0,0,1,2.613-2.451,7.927,7.927,0,0,1,3.762-.884,8.233,8.233,0,0,1,3.173.589,6.287,6.287,0,0,1,2.394,1.71L11.647-9.4a4.57,4.57,0,0,0-3.439-1.5,4.694,4.694,0,0,0-2.261.532,3.817,3.817,0,0,0-1.539,1.5A4.418,4.418,0,0,0,3.857-6.65a4.38,4.38,0,0,0,.551,2.2,3.9,3.9,0,0,0,1.53,1.511,4.533,4.533,0,0,0,2.233.541,4.989,4.989,0,0,0,2.394-.57ZM16.226-13.3h6.042a8.492,8.492,0,0,1,3.829.827,6.188,6.188,0,0,1,2.584,2.327,6.547,6.547,0,0,1,.922,3.5,6.547,6.547,0,0,1-.922,3.5A6.188,6.188,0,0,1,26.1-.826,8.492,8.492,0,0,1,22.268,0H16.226Zm5.89,10.773A4.47,4.47,0,0,0,25.3-3.638,3.926,3.926,0,0,0,26.486-6.65,3.926,3.926,0,0,0,25.3-9.661a4.47,4.47,0,0,0-3.182-1.111H19.3v8.246ZM37.677-13.3a7.388,7.388,0,0,1,3.068.589,4.559,4.559,0,0,1,2,1.672,4.606,4.606,0,0,1,.7,2.565,4.618,4.618,0,0,1-.7,2.555,4.477,4.477,0,0,1-2,1.672,7.494,7.494,0,0,1-3.068.579H35V0H31.92V-13.3Zm-.171,7.125a3.233,3.233,0,0,0,2.109-.6,2.085,2.085,0,0,0,.722-1.7,2.107,2.107,0,0,0-.722-1.719,3.233,3.233,0,0,0-2.109-.6H35v4.617ZM54.112,0,51.547-3.7H48.716V0H45.638V-13.3H51.4a7.388,7.388,0,0,1,3.069.589,4.559,4.559,0,0,1,2,1.672,4.606,4.606,0,0,1,.7,2.565,4.514,4.514,0,0,1-.713,2.555,4.516,4.516,0,0,1-2.023,1.644L57.418,0Zm-.057-8.474a2.107,2.107,0,0,0-.722-1.719,3.233,3.233,0,0,0-2.109-.6H48.716v4.636h2.508a3.2,3.2,0,0,0,2.109-.608A2.113,2.113,0,0,0,54.055-8.474Z" transform="translate(167.337 204.075)" fill="rgba(50,205,50,0.2)"/><g transform="translate(404.469 211.761)"><path d="M92.186,109.051a3.684,3.684,0,0,0-1.754-.421c-1.5,0-2.031.561-2.031,2.144v2.415c0,1.4.475,1.919,1.751,1.919,1.125,0,1.525-.376,1.525-1.433v-1.3H90.647a.182.182,0,0,1-.181-.181v-.612a.18.18,0,0,1,.181-.181H92.8a.182.182,0,0,1,.181.181v1.874c0,1.306-.335,2.644-2.811,2.644h0c-2.165,0-3.174-.886-3.174-2.787V110.73c0-1.642.407-3.16,3.352-3.16a4.161,4.161,0,0,1,2.3.571.186.186,0,0,1,.065.233l-.3.6A.169.169,0,0,1,92.186,109.051Zm-28.595,7.056c-2.558,0-3.1-1.289-3.1-2.37v-3.331c0-1.96.944-2.835,3.061-2.835,2.038,0,3.071.941,3.071,2.8v3.013c0,2.445-1.734,2.726-3.037,2.726Zm.021-7.428c-1.269,0-1.782.527-1.782,1.816v2.948c0,1.471,1.467,1.546,1.761,1.546.869,0,1.672-.212,1.672-1.761V110.45c0-1.194-.54-1.772-1.652-1.772Zm44.214,7.281h-1a.182.182,0,0,1-.181-.181v-7.035h-2.124a.182.182,0,0,1-.181-.181v-.691a.182.182,0,0,1,.181-.181h5.623a.182.182,0,0,1,.181.181v.691a.18.18,0,0,1-.181.181H108v7.035a.175.175,0,0,1-.178.181Zm-11.669,0H95.147a.18.18,0,0,1-.178-.181v-7.907a.18.18,0,0,1,.178-.181h1.009a.18.18,0,0,1,.178.181v7.907a.18.18,0,0,1-.178.181Zm-10.927,0H80.8a.182.182,0,0,1-.181-.181v-7.907a.18.18,0,0,1,.181-.181h4.248a.18.18,0,0,1,.178.181v.67a.18.18,0,0,1-.178.181h-3.14v2.394h2.6a.179.179,0,0,1,.178.178v.691a.179.179,0,0,1-.178.178H81.929v2.719h3.3a.18.18,0,0,1,.178.181v.715a.173.173,0,0,1-.174.181Zm18.048,0H98.848a.182.182,0,0,1-.181-.181v-7.907a.182.182,0,0,1,.181-.181H103.1a.18.18,0,0,1,.178.181v.67a.18.18,0,0,1-.178.181h-3.14v2.394h2.6a.179.179,0,0,1,.178.178v.691a.179.179,0,0,1-.178.178H99.977v2.719h3.3a.182.182,0,0,1,.181.181v.715a.177.177,0,0,1-.178.181Zm-30.1,0H68.905a.18.18,0,0,1-.178-.181v-7.907a.18.18,0,0,1,.178-.181h1.009a.18.18,0,0,1,.178.181v7.059h3.085a.179.179,0,0,1,.178.178v.67a.182.182,0,0,1-.181.181Zm5.947,0H74.853a.182.182,0,0,1-.181-.181v-7.907a.18.18,0,0,1,.181-.181h1.005a.182.182,0,0,1,.181.181v7.059h3.085a.179.179,0,0,1,.178.178v.67a.18.18,0,0,1-.181.181Zm-27.265,0H50.8a.176.176,0,0,1-.161-.1l-1.628-3.341h-1.43v3.263a.182.182,0,0,1-.181.181H46.384a.182.182,0,0,1-.181-.181v-7.9a.182.182,0,0,1,.181-.181h2.507c1.967,0,3.1.879,3.1,2.4a2.2,2.2,0,0,1-1.662,2.144l1.693,3.458a.18.18,0,0,1-.161.26Zm-4.272-7.237v2.719H49.2a1.266,1.266,0,0,0,1.409-1.344c0-1.2-1.112-1.375-1.772-1.375ZM26.9,107.7H25.8a.175.175,0,0,0-.154.089l-2.172,3.625L21.3,107.785a.18.18,0,0,0-.154-.089h-1.1a.182.182,0,0,0-.181.181v7.9a.18.18,0,0,0,.181.181h1.009a.182.182,0,0,0,.181-.181v-6.118l1.895,3.317a.184.184,0,0,0,.157.092h.38a.181.181,0,0,0,.157-.092l1.895-3.317v6.118a.182.182,0,0,0,.181.181h1.009a.182.182,0,0,0,.181-.181v-7.9A.2.2,0,0,0,26.9,107.7Zm9.627,0h-1.1a.18.18,0,0,0-.154.089L33.1,111.411l-2.172-3.625a.184.184,0,0,0-.154-.089h-1.1a.182.182,0,0,0-.181.181v7.9a.182.182,0,0,0,.181.181H30.68a.182.182,0,0,0,.181-.181v-6.118l1.895,3.317a.188.188,0,0,0,.157.092h.38a.181.181,0,0,0,.157-.092l1.895-3.317v6.118a.182.182,0,0,0,.181.181h1.009a.182.182,0,0,0,.181-.181v-7.9A.2.2,0,0,0,36.524,107.7Zm-18.338,8.263H17.14a.18.18,0,0,1-.171-.127l-.537-1.748H13.62l-.516,1.748a.177.177,0,0,1-.171.127h-.824a.179.179,0,0,1-.171-.233l2.4-7.907a.183.183,0,0,1,.171-.13h1.276a.177.177,0,0,1,.171.127l2.4,7.907a.183.183,0,0,1-.174.236Zm-3.153-6.649-1.1,3.769h2.2l-1.1-3.769Zm29.46,6.649H43.447a.177.177,0,0,1-.171-.127l-.537-1.748H39.927l-.513,1.748a.18.18,0,0,1-.171.127h-.824a.179.179,0,0,1-.171-.233l2.4-7.907a.183.183,0,0,1,.171-.13H42.1a.177.177,0,0,1,.171.127l2.4,7.907a.183.183,0,0,1-.174.236Zm-3.153-6.649-1.1,3.769h2.2l-1.1-3.769Zm-30.281,6.649H9.985a.185.185,0,0,1-.144-.072l-2.722-3.618-.3.349v3.164a.182.182,0,0,1-.181.181H5.628a.18.18,0,0,1-.178-.181v-7.9a.18.18,0,0,1,.178-.181H6.633a.182.182,0,0,1,.181.181v3.174l2.856-3.29a.175.175,0,0,1,.137-.065h1.012a.181.181,0,0,1,.137.3L8,111.4l3.2,4.275a.177.177,0,0,1-.144.284Zm0,0H9.985a.185.185,0,0,1-.144-.072l-2.722-3.618-.3.349v3.164a.182.182,0,0,1-.181.181H5.628a.18.18,0,0,1-.178-.181v-7.9a.18.18,0,0,1,.178-.181H6.633a.182.182,0,0,1,.181.181v3.174l2.856-3.29a.175.175,0,0,1,.137-.065h1.012a.181.181,0,0,1,.137.3L8,111.4l3.2,4.275a.177.177,0,0,1-.144.284Zm48.366,0H58.348a.185.185,0,0,1-.144-.072l-2.722-3.618-.3.349v3.164a.182.182,0,0,1-.181.181H53.987a.182.182,0,0,1-.181-.181v-7.9a.182.182,0,0,1,.181-.181H55a.182.182,0,0,1,.181.181v3.174l2.856-3.29a.18.18,0,0,1,.137-.065h1.012a.181.181,0,0,1,.137.3L56.361,111.4l3.2,4.275a.175.175,0,0,1-.14.284Z" transform="translate(-5.45 -107.57)" fill="rgba(50,205,50,0.2)"/></g><path d="M106.838,26.841c.048.133.137.376.185.5a.535.535,0,0,1-.017.41.542.542,0,0,1-.3.277.531.531,0,0,0-.3.277l-.954,2.049a.78.78,0,0,0,.376,1.036l.414.192,1.125-2.411a.536.536,0,1,1,.971.451l-1.125,2.411,1.118.52,1.125-2.411a.536.536,0,1,1,.971.451L109.3,33.008l.414.192a.776.776,0,0,0,1.033-.376l.954-2.049a.535.535,0,0,0,.017-.41.535.535,0,0,1,.017-.41.542.542,0,0,1,.3-.277c.13-.048.369-.133.5-.185ZM135.32,38.678a2.6,2.6,0,0,1-3.454,1.259,2.6,2.6,0,0,1-4.415-2.685l.3-.653a2.092,2.092,0,0,0,1.707.024l-.6,1.289a1.042,1.042,0,0,0,1.768,1.077,1.557,1.557,0,0,1,1.891-.462,1.042,1.042,0,0,0,.882-1.888,1.555,1.555,0,0,1-.862-1.744,1.055,1.055,0,0,0-.578-1.17,1.042,1.042,0,0,0-1.385.506l-.534,1.146a1.557,1.557,0,0,1-2.066.742l-4.272-1.99,1.843-.858,3.088,1.44.53-1.135a2.6,2.6,0,0,1,4.894,1.652A2.594,2.594,0,0,1,135.32,38.678Zm-1.7-9.179c.133.048.376.137.5.185a.536.536,0,0,1,.318.687.535.535,0,0,0,.017.41l.954,2.049a.78.78,0,0,0,1.036.376l.414-.192L135.741,30.6a.536.536,0,1,1,.971-.451l1.125,2.411,1.118-.52-1.125-2.411a.536.536,0,1,1,.971-.451l1.125,2.411.414-.192a.779.779,0,0,0,.376-1.036l-.954-2.049a.541.541,0,0,0-.3-.277.536.536,0,0,1-.318-.687c.048-.13.133-.369.185-.5Zm-15.438,6.614a1.561,1.561,0,0,1-2.066-.742l-.534-1.146a1.043,1.043,0,0,0-1.963.663,1.555,1.555,0,0,1-.862,1.744,1.041,1.041,0,1,0,.879,1.888,1.557,1.557,0,0,1,1.891.462,1.042,1.042,0,0,0,1.768-1.077l-.6-1.289a2.092,2.092,0,0,0,1.707-.024h0l.3.653a2.6,2.6,0,0,1-4.415,2.685,2.6,2.6,0,0,1-2.2-4.713,2.6,2.6,0,0,1,4.894-1.652l.53,1.135,3.714-1.731-14.368-6.7a.777.777,0,0,1,.657-1.409l15.551,7.25,15.551-7.25a.777.777,0,1,1,.657,1.409Zm12.169-11.645v3.02H115.812v-3.02h14.542Zm-5.913-9.3a1.358,1.358,0,1,1-1.761-1.3v-.458h-.807v-.807h.807V11.8h.807v.807h.807v.807h-.807v.458A1.364,1.364,0,0,1,124.441,15.172ZM122.6,23.955c-.616,0-2.281-3.519-.889-6.837h0c-3.034,0-3.276,4.487-.927,6.837H119.13c-.9,0-2.958-2.319-2.141-5.25a3.591,3.591,0,0,1,.92-1.6c-3.54-.161-3.974,4.62-.759,6.857H116c-1.529,0-3.9-2.763-2.8-5.582a3.688,3.688,0,0,1,5.2-1.669,3.167,3.167,0,0,1,2.483-.458,5.162,5.162,0,0,1,1.344.588,1.868,1.868,0,0,0,.862.212,1.826,1.826,0,0,0,.862-.212,5.219,5.219,0,0,1,1.344-.588,3.172,3.172,0,0,1,2.483.458,3.687,3.687,0,0,1,5.2,1.669c1.091,2.818-1.279,5.582-2.808,5.582h-1.153c3.215-2.233,2.78-7.018-.759-6.857a3.578,3.578,0,0,1,.92,1.6c.817,2.931-1.245,5.25-2.141,5.25h-1.659c2.346-2.346,2.107-6.837-.927-6.837h0c1.392,3.314-.274,6.837-.889,6.837Z" transform="translate(333.268 167.207)" fill="rgba(50,205,50,0.2)"/><g transform="translate(327.355 159.202)"><g transform="translate(38.767 39.857)"><path d="M106.366,105.6H103.5a.5.5,0,0,0-.5.5.553.553,0,0,0,.5.561h2.861a.518.518,0,0,0,.5-.561A.5.5,0,0,0,106.366,105.6Z" transform="translate(-103 -105.6)" fill="rgba(50,205,50,0.2)"/></g><g transform="translate(55.092 0.025)"><path d="M134.344,37.405a.509.509,0,0,1-.393-.168l-1.683-1.683a.555.555,0,1,1,.785-.785l1.683,1.683a.542.542,0,0,1,0,.785A.606.606,0,0,1,134.344,37.405Z" transform="translate(-132.1 -34.6)" fill="rgba(50,205,50,0.2)"/></g><g transform="translate(84.714 0.025)"><path d="M185.461,37.405a.509.509,0,0,1-.393-.168.542.542,0,0,1,0-.785l1.683-1.683a.555.555,0,0,1,.785.785l-1.683,1.683A.509.509,0,0,1,185.461,37.405Z" transform="translate(-184.9 -34.6)" fill="rgba(50,205,50,0.2)"/></g><g transform="translate(55.092 29.703)"><path d="M132.661,90.305a.509.509,0,0,1-.393-.168.542.542,0,0,1,0-.785l1.683-1.683a.555.555,0,0,1,.785.785l-1.683,1.683A.606.606,0,0,1,132.661,90.305Z" transform="translate(-132.1 -87.5)" fill="rgba(50,205,50,0.2)"/></g><g transform="translate(84.714 29.703)"><path d="M187.144,90.305a.509.509,0,0,1-.393-.168l-1.683-1.683a.555.555,0,0,1,.785-.785l1.683,1.683a.542.542,0,0,1,0,.785A.509.509,0,0,1,187.144,90.305Z" transform="translate(-184.9 -87.5)" fill="rgba(50,205,50,0.2)"/></g><g transform="translate(61.351 0)"><path d="M145.02,37.722a.5.5,0,0,1-.449-.281l-1.234-2.02a.568.568,0,0,1,.954-.617l1.234,2.02a.6.6,0,0,1-.168.785A.412.412,0,0,1,145.02,37.722Z" transform="translate(-143.256 -34.556)" fill="rgba(50,205,50,0.2)"/></g><g transform="translate(67.592 0.014)"><path d="M155.4,38.07a.546.546,0,0,1-.561-.449l-.449-2.356a.572.572,0,0,1,1.122-.224l.449,2.356a.568.568,0,0,1-.449.673Z" transform="translate(-154.381 -34.581)" fill="rgba(50,205,50,0.2)"/></g><g transform="translate(67.512 5.768)"><path d="M155.507,48.239a.539.539,0,0,1-.5-.393l-.729-2.244a.568.568,0,1,1,1.066-.393l.729,2.244a.584.584,0,0,1-.337.729A.424.424,0,0,1,155.507,48.239Z" transform="translate(-154.237 -44.837)" fill="rgba(50,205,50,0.2)"/></g><g transform="translate(78.953 0.042)"><path d="M175.175,37.755a.506.506,0,0,1-.281-.056.552.552,0,0,1-.168-.785l1.234-2.02a.568.568,0,0,1,.954.617l-1.234,2.02A.685.685,0,0,1,175.175,37.755Z" transform="translate(-174.631 -34.631)" fill="rgba(50,205,50,0.2)"/></g><g transform="translate(73.429 0.016)"><path d="M165.354,38.072h-.112a.582.582,0,0,1-.449-.673l.449-2.356a.572.572,0,1,1,1.122.224l-.449,2.356A.745.745,0,0,1,165.354,38.072Z" transform="translate(-164.785 -34.585)" fill="rgba(50,205,50,0.2)"/></g><g transform="translate(73.29 5.768)"><path d="M165.077,48.239a.206.206,0,0,1-.168-.056.561.561,0,0,1-.337-.729l.729-2.244a.568.568,0,1,1,1.066.393l-.729,2.244A.584.584,0,0,1,165.077,48.239Z" transform="translate(-164.537 -44.837)" fill="rgba(50,205,50,0.2)"/></g><g transform="translate(61.337 29.384)"><path d="M143.775,90.055a.506.506,0,0,1-.281-.056.552.552,0,0,1-.168-.785l1.234-2.02a.568.568,0,1,1,.954.617l-1.234,2.02A.711.711,0,0,1,143.775,90.055Z" transform="translate(-143.231 -86.931)" fill="rgba(50,205,50,0.2)"/></g><g transform="translate(67.594 29.021)"><path d="M154.954,89.772h-.112a.582.582,0,0,1-.449-.673l.449-2.356a.572.572,0,0,1,1.122.224l-.449,2.356A.6.6,0,0,1,154.954,89.772Z" transform="translate(-154.385 -86.285)" fill="rgba(50,205,50,0.2)"/></g><g transform="translate(67.456 23.272)"><path d="M154.677,79.439a.206.206,0,0,1-.168-.056.561.561,0,0,1-.337-.729l.729-2.244a.568.568,0,0,1,1.066.393l-.729,2.244A.584.584,0,0,1,154.677,79.439Z" transform="translate(-154.137 -76.037)" fill="rgba(50,205,50,0.2)"/></g><g transform="translate(78.967 29.341)"><path d="M176.42,90.022a.5.5,0,0,1-.449-.281l-1.234-2.02a.568.568,0,0,1,.954-.617l1.234,2.02a.6.6,0,0,1-.168.785A2.2,2.2,0,0,1,176.42,90.022Z" transform="translate(-174.656 -86.856)" fill="rgba(50,205,50,0.2)"/></g><g transform="translate(73.427 29.019)"><path d="M165.8,89.77a.546.546,0,0,1-.561-.449l-.449-2.356a.572.572,0,1,1,1.122-.224l.449,2.356a.568.568,0,0,1-.449.673A.078.078,0,0,0,165.8,89.77Z" transform="translate(-164.781 -86.281)" fill="rgba(50,205,50,0.2)"/></g><g transform="translate(73.346 23.272)"><path d="M165.907,79.439a.539.539,0,0,1-.5-.393l-.729-2.244a.568.568,0,0,1,1.066-.393l.729,2.244a.584.584,0,0,1-.337.729A.424.424,0,0,1,165.907,79.439Z" transform="translate(-164.637 -76.037)" fill="rgba(50,205,50,0.2)"/></g><g transform="translate(78.936 23.868)"><path d="M176.844,79.905a.509.509,0,0,1-.393-.168l-1.683-1.683a.555.555,0,0,1,.785-.785l1.683,1.683a.542.542,0,0,1,0,.785A.509.509,0,0,1,176.844,79.905Z" transform="translate(-174.6 -77.1)" fill="rgba(50,205,50,0.2)"/></g><g transform="translate(84.409 6.283)"><path d="M184.885,48.137a.5.5,0,0,1-.449-.281.6.6,0,0,1,.168-.785l2.02-1.234a.568.568,0,1,1,.617.954l-2.02,1.234C185.054,48.081,185,48.137,184.885,48.137Z" transform="translate(-184.356 -45.756)" fill="rgba(50,205,50,0.2)"/></g><g transform="translate(84.087 12.581)"><path d="M184.353,58.563a.546.546,0,0,1-.561-.449.568.568,0,0,1,.449-.673l2.356-.449a.572.572,0,1,1,.224,1.122l-2.356.449Z" transform="translate(-183.781 -56.981)" fill="rgba(50,205,50,0.2)"/></g><g transform="translate(78.396 12.388)"><path d="M174.177,58.524a.539.539,0,0,1-.5-.393.584.584,0,0,1,.337-.729l2.244-.729a.568.568,0,1,1,.393,1.066l-2.244.729A.424.424,0,0,1,174.177,58.524Z" transform="translate(-173.637 -56.637)" fill="rgba(50,205,50,0.2)"/></g><g transform="translate(84.395 23.886)"><path d="M186.894,79.47a.506.506,0,0,1-.281-.056l-2.02-1.234a.568.568,0,0,1,.617-.954l2.02,1.234a.552.552,0,0,1,.168.785A.711.711,0,0,1,186.894,79.47Z" transform="translate(-184.331 -77.131)" fill="rgba(50,205,50,0.2)"/></g><g transform="translate(84.032 18.362)"><path d="M186.611,68.864H186.5l-2.356-.449a.572.572,0,0,1,.224-1.122l2.356.449a.582.582,0,0,1,.449.673A.546.546,0,0,1,186.611,68.864Z" transform="translate(-183.685 -67.285)" fill="rgba(50,205,50,0.2)"/></g><g transform="translate(78.396 18.223)"><path d="M176.422,68.924a.206.206,0,0,1-.168-.056l-2.244-.729a.568.568,0,0,1,.393-1.066l2.244.729a.561.561,0,0,1,.337.729A.676.676,0,0,1,176.422,68.924Z" transform="translate(-173.637 -67.037)" fill="rgba(50,205,50,0.2)"/></g><g transform="translate(55.11 6.326)"><path d="M134.694,48.17a.506.506,0,0,1-.281-.056l-2.02-1.234a.568.568,0,1,1,.617-.954l2.02,1.234a.552.552,0,0,1,.168.785A.835.835,0,0,1,134.694,48.17Z" transform="translate(-132.131 -45.831)" fill="rgba(50,205,50,0.2)"/></g><g transform="translate(55.028 12.583)"><path d="M134.911,58.564H134.8l-2.356-.449a.572.572,0,0,1,.224-1.122l2.356.449a.582.582,0,0,1,.449.673A.6.6,0,0,1,134.911,58.564Z" transform="translate(-131.985 -56.985)" fill="rgba(50,205,50,0.2)"/></g><g transform="translate(60.892 12.388)"><path d="M145.221,58.524a.206.206,0,0,1-.168-.056l-2.244-.729a.568.568,0,0,1,.393-1.066l2.244.729a.561.561,0,0,1,.337.729A.675.675,0,0,1,145.221,58.524Z" transform="translate(-142.437 -56.637)" fill="rgba(50,205,50,0.2)"/></g><g transform="translate(55.123 23.843)"><path d="M132.685,79.437a.5.5,0,0,1-.449-.281.6.6,0,0,1,.168-.785l2.02-1.234a.568.568,0,0,1,.617.954l-2.02,1.234A2.206,2.206,0,0,1,132.685,79.437Z" transform="translate(-132.156 -77.056)" fill="rgba(50,205,50,0.2)"/></g><g transform="translate(55.082 18.36)"><path d="M132.653,68.863a.546.546,0,0,1-.561-.449.568.568,0,0,1,.449-.673l2.356-.449a.572.572,0,1,1,.224,1.122l-2.356.449Z" transform="translate(-132.081 -67.281)" fill="rgba(50,205,50,0.2)"/></g><g transform="translate(60.892 18.223)"><path d="M142.977,68.924a.539.539,0,0,1-.5-.393.584.584,0,0,1,.337-.729l2.244-.729a.568.568,0,0,1,.393,1.066l-2.244.729A.424.424,0,0,1,142.977,68.924Z" transform="translate(-142.437 -67.037)" fill="rgba(50,205,50,0.2)"/></g><g transform="translate(66.425 11.358)"><path d="M155.105,58.727a1.108,1.108,0,0,1-.785-.337l-1.683-1.683a1.111,1.111,0,1,1,1.571-1.571l1.683,1.683a1.085,1.085,0,0,1,0,1.571A1.108,1.108,0,0,1,155.105,58.727Z" transform="translate(-152.3 -54.8)" fill="rgba(50,205,50,0.2)"/></g><g transform="translate(72.26 11.358)"><path d="M163.822,58.727a1.108,1.108,0,0,1-.785-.337,1.085,1.085,0,0,1,0-1.571l1.683-1.683a1.111,1.111,0,0,1,1.571,1.571l-1.683,1.683A1.108,1.108,0,0,1,163.822,58.727Z" transform="translate(-162.7 -54.8)" fill="rgba(50,205,50,0.2)"/></g><g transform="translate(66.425 17.192)"><path d="M153.422,69.127a1.108,1.108,0,0,1-.785-.337,1.085,1.085,0,0,1,0-1.571l1.683-1.683a1.111,1.111,0,0,1,1.571,1.571l-1.683,1.683A1.108,1.108,0,0,1,153.422,69.127Z" transform="translate(-152.3 -65.2)" fill="rgba(50,205,50,0.2)"/></g><g transform="translate(72.26 17.192)"><path d="M165.505,69.127a1.108,1.108,0,0,1-.785-.337l-1.683-1.683a1.111,1.111,0,0,1,1.571-1.571l1.683,1.683a1.085,1.085,0,0,1,0,1.571A1.108,1.108,0,0,1,165.505,69.127Z" transform="translate(-162.7 -65.2)" fill="rgba(50,205,50,0.2)"/></g><path d="M115.154,102.769l3.815-3.815a.555.555,0,0,0-.785-.785l-3.815,3.815-3.815-3.815a.555.555,0,0,0-.785.785l3.815,3.815-3.815,3.815a.542.542,0,0,0,0,.785.542.542,0,0,0,.785,0l3.815-3.815,3.815,3.815a.542.542,0,0,0,.785,0,.542.542,0,0,0,0-.785Z" transform="translate(-67.131 -62.406)" fill="rgba(50,205,50,0.2)"/><g transform="translate(60.871 23.868)"><path d="M142.961,79.905a.509.509,0,0,1-.393-.168.542.542,0,0,1,0-.785l1.683-1.683a.555.555,0,0,1,.785.785l-1.683,1.683A.606.606,0,0,1,142.961,79.905Z" transform="translate(-142.4 -77.1)" fill="rgba(50,205,50,0.2)"/></g><g transform="translate(60.871 5.803)"><path d="M144.644,47.705a.509.509,0,0,1-.393-.168l-1.683-1.683a.555.555,0,0,1,.785-.785l1.683,1.683a.542.542,0,0,1,0,.785A.606.606,0,0,1,144.644,47.705Z" transform="translate(-142.4 -44.9)" fill="rgba(50,205,50,0.2)"/></g><g transform="translate(78.936 5.803)"><path d="M175.161,47.705a.509.509,0,0,1-.393-.168.542.542,0,0,1,0-.785l1.683-1.683a.555.555,0,0,1,.785.785l-1.683,1.683A.509.509,0,0,1,175.161,47.705Z" transform="translate(-174.6 -44.9)" fill="rgba(50,205,50,0.2)"/></g><g transform="translate(11.557 35.65)"><path d="M62.8,98.156a.53.53,0,0,0-.561.561v.954a4.389,4.389,0,0,0-7.742,3.142,4.616,4.616,0,0,0,4.432,4.713,4.342,4.342,0,0,0,3.31-1.571v1.01a.561.561,0,0,0,1.122,0V98.717A.562.562,0,0,0,62.8,98.156Zm-.617,4.713a3.317,3.317,0,1,1-6.62,0,3.456,3.456,0,0,1,3.31-3.591A3.421,3.421,0,0,1,62.186,102.869Z" transform="translate(-54.5 -98.1)" fill="rgba(50,205,50,0.2)"/></g><g transform="translate(23.675 32.452)"><path d="M76.661,92.4a.562.562,0,0,0-.561.561v.449a.614.614,0,0,0,.561.617.623.623,0,0,0,.617-.617v-.449A.659.659,0,0,0,76.661,92.4Z" transform="translate(-76.1 -92.4)" fill="rgba(50,205,50,0.2)"/><g transform="translate(0 3.254)"><path d="M76.661,98.2a.53.53,0,0,0-.561.561v8.247a.562.562,0,0,0,.561.561.614.614,0,0,0,.617-.561V98.761A.612.612,0,0,0,76.661,98.2Z" transform="translate(-76.1 -98.2)" fill="rgba(50,205,50,0.2)"/></g></g><g transform="translate(27.546 35.65)"><path d="M91.3,98.156a.53.53,0,0,0-.561.561v.954A4.389,4.389,0,0,0,83,102.813a4.616,4.616,0,0,0,4.432,4.713,4.342,4.342,0,0,0,3.31-1.571v1.01a.562.562,0,0,0,.561.561.6.6,0,0,0,.561-.561V98.717A.562.562,0,0,0,91.3,98.156Zm-.617,4.713a3.317,3.317,0,1,1-6.62,0,3.456,3.456,0,0,1,3.31-3.591A3.421,3.421,0,0,1,90.686,102.869Z" transform="translate(-83 -98.1)" fill="rgba(50,205,50,0.2)"/></g><g transform="translate(0 35.65)"><path d="M42.259,98.156a.614.614,0,0,0-.617.561v.954a4.443,4.443,0,0,0-3.31-1.571,4.662,4.662,0,0,0,0,9.313,4.388,4.388,0,0,0,3.31-1.515v.729a3.234,3.234,0,0,1-3.31,3.254,3.857,3.857,0,0,1-1.346-.281,3.945,3.945,0,0,1-1.066-.729.568.568,0,0,0-.393-.224.637.637,0,0,0-.449.168.6.6,0,0,0-.056.785,5.116,5.116,0,0,0,1.29.954l.056.056c.056,0,.056,0,.112.056l.112.056c.056,0,.056.056.112.056a3.882,3.882,0,0,0,1.571.281,4.911,4.911,0,0,0,.9-.112h.056c.281-.056.561-.168.785-.224a4.182,4.182,0,0,0,.673-.393l.168-.168.056-.056a1.224,1.224,0,0,0,.281-.224l.337-.337a.174.174,0,0,0,.056-.112,4.483,4.483,0,0,0,1.066-2.805v-7.91C42.82,98.437,42.54,98.156,42.259,98.156Zm-.561,4.656a3.291,3.291,0,1,1-3.31-3.534A3.442,3.442,0,0,1,41.7,102.813Z" transform="translate(-33.9 -98.1)" fill="rgba(50,205,50,0.2)"/></g></g><path d="M32.531,3.1,25.486.16a1.767,1.767,0,0,0-1.354,0L17.086,3.1A1.76,1.76,0,0,0,16,4.721c0,7.284,4.2,12.319,8.128,13.955a1.767,1.767,0,0,0,1.354,0c3.145-1.31,8.132-5.835,8.132-13.955A1.762,1.762,0,0,0,32.531,3.1ZM24.811,16.4l0-13.981,6.455,2.69C31.141,10.666,28.249,14.691,24.811,16.4Z" transform="translate(325.485 245.035)" fill="rgba(50,205,50,0.2)"/><path d="M10.564-6.859h2.812v5.4A8.034,8.034,0,0,1,10.868-.209,9.737,9.737,0,0,1,8,.228,7.775,7.775,0,0,1,4.275-.655,6.577,6.577,0,0,1,1.681-3.106,6.753,6.753,0,0,1,.741-6.65a6.753,6.753,0,0,1,.94-3.543,6.545,6.545,0,0,1,2.613-2.451,7.927,7.927,0,0,1,3.762-.884,8.233,8.233,0,0,1,3.173.589,6.287,6.287,0,0,1,2.394,1.71L11.647-9.4a4.57,4.57,0,0,0-3.439-1.5,4.694,4.694,0,0,0-2.261.532,3.817,3.817,0,0,0-1.539,1.5A4.418,4.418,0,0,0,3.857-6.65a4.38,4.38,0,0,0,.551,2.2,3.9,3.9,0,0,0,1.53,1.511,4.533,4.533,0,0,0,2.233.541,4.989,4.989,0,0,0,2.394-.57ZM16.226-13.3h6.042a8.492,8.492,0,0,1,3.829.827,6.188,6.188,0,0,1,2.584,2.327,6.547,6.547,0,0,1,.922,3.5,6.547,6.547,0,0,1-.922,3.5A6.188,6.188,0,0,1,26.1-.826,8.492,8.492,0,0,1,22.268,0H16.226Zm5.89,10.773A4.47,4.47,0,0,0,25.3-3.638,3.926,3.926,0,0,0,26.486-6.65,3.926,3.926,0,0,0,25.3-9.661a4.47,4.47,0,0,0-3.182-1.111H19.3v8.246ZM37.677-13.3a7.388,7.388,0,0,1,3.068.589,4.559,4.559,0,0,1,2,1.672,4.606,4.606,0,0,1,.7,2.565,4.618,4.618,0,0,1-.7,2.555,4.477,4.477,0,0,1-2,1.672,7.494,7.494,0,0,1-3.068.579H35V0H31.92V-13.3Zm-.171,7.125a3.233,3.233,0,0,0,2.109-.6,2.085,2.085,0,0,0,.722-1.7,2.107,2.107,0,0,0-.722-1.719,3.233,3.233,0,0,0-2.109-.6H35v4.617ZM54.112,0,51.547-3.7H48.716V0H45.638V-13.3H51.4a7.388,7.388,0,0,1,3.069.589,4.559,4.559,0,0,1,2,1.672,4.606,4.606,0,0,1,.7,2.565,4.514,4.514,0,0,1-.713,2.555,4.516,4.516,0,0,1-2.023,1.644L57.418,0Zm-.057-8.474a2.107,2.107,0,0,0-.722-1.719,3.233,3.233,0,0,0-2.109-.6H48.716v4.636h2.508a3.2,3.2,0,0,0,2.109-.608A2.113,2.113,0,0,0,54.055-8.474Z" transform="translate(363.925 259.348)" fill="rgba(50,205,50,0.2)"/><g transform="translate(169.962 307.581)"><path d="M32.531,3.1,25.486.16a1.767,1.767,0,0,0-1.354,0L17.086,3.1A1.76,1.76,0,0,0,16,4.721c0,7.284,4.2,12.319,8.128,13.955a1.767,1.767,0,0,0,1.354,0c3.145-1.31,8.132-5.835,8.132-13.955A1.762,1.762,0,0,0,32.531,3.1ZM24.811,16.4l0-13.981,6.455,2.69C31.141,10.666,28.249,14.691,24.811,16.4Z" transform="translate(-16 3.687)" fill="rgba(50,205,50,0.2)"/><path d="M10.564-6.859h2.812v5.4A8.034,8.034,0,0,1,10.868-.209,9.737,9.737,0,0,1,8,.228,7.775,7.775,0,0,1,4.275-.655,6.577,6.577,0,0,1,1.681-3.106,6.753,6.753,0,0,1,.741-6.65a6.753,6.753,0,0,1,.94-3.543,6.545,6.545,0,0,1,2.613-2.451,7.927,7.927,0,0,1,3.762-.884,8.233,8.233,0,0,1,3.173.589,6.287,6.287,0,0,1,2.394,1.71L11.647-9.4a4.57,4.57,0,0,0-3.439-1.5,4.694,4.694,0,0,0-2.261.532,3.817,3.817,0,0,0-1.539,1.5A4.418,4.418,0,0,0,3.857-6.65a4.38,4.38,0,0,0,.551,2.2,3.9,3.9,0,0,0,1.53,1.511,4.533,4.533,0,0,0,2.233.541,4.989,4.989,0,0,0,2.394-.57ZM16.226-13.3h6.042a8.492,8.492,0,0,1,3.829.827,6.188,6.188,0,0,1,2.584,2.327,6.547,6.547,0,0,1,.922,3.5,6.547,6.547,0,0,1-.922,3.5A6.188,6.188,0,0,1,26.1-.826,8.492,8.492,0,0,1,22.268,0H16.226Zm5.89,10.773A4.47,4.47,0,0,0,25.3-3.638,3.926,3.926,0,0,0,26.486-6.65,3.926,3.926,0,0,0,25.3-9.661a4.47,4.47,0,0,0-3.182-1.111H19.3v8.246ZM37.677-13.3a7.388,7.388,0,0,1,3.068.589,4.559,4.559,0,0,1,2,1.672,4.606,4.606,0,0,1,.7,2.565,4.618,4.618,0,0,1-.7,2.555,4.477,4.477,0,0,1-2,1.672,7.494,7.494,0,0,1-3.068.579H35V0H31.92V-13.3Zm-.171,7.125a3.233,3.233,0,0,0,2.109-.6,2.085,2.085,0,0,0,.722-1.7,2.107,2.107,0,0,0-.722-1.719,3.233,3.233,0,0,0-2.109-.6H35v4.617ZM54.112,0,51.547-3.7H48.716V0H45.638V-13.3H51.4a7.388,7.388,0,0,1,3.069.589,4.559,4.559,0,0,1,2,1.672,4.606,4.606,0,0,1,.7,2.565,4.514,4.514,0,0,1-.713,2.555,4.516,4.516,0,0,1-2.023,1.644L57.418,0Zm-.057-8.474a2.107,2.107,0,0,0-.722-1.719,3.233,3.233,0,0,0-2.109-.6H48.716v4.636h2.508a3.2,3.2,0,0,0,2.109-.608A2.113,2.113,0,0,0,54.055-8.474Z" transform="translate(22.441 18)" fill="rgba(50,205,50,0.2)"/></g><g transform="translate(404.469 297.021)"><g transform="translate(0 32.754)"><path d="M92.186,109.051a3.684,3.684,0,0,0-1.754-.421c-1.5,0-2.031.561-2.031,2.144v2.415c0,1.4.475,1.919,1.751,1.919,1.125,0,1.525-.376,1.525-1.433v-1.3H90.647a.182.182,0,0,1-.181-.181v-.612a.18.18,0,0,1,.181-.181H92.8a.182.182,0,0,1,.181.181v1.874c0,1.306-.335,2.644-2.811,2.644h0c-2.165,0-3.174-.886-3.174-2.787V110.73c0-1.642.407-3.16,3.352-3.16a4.161,4.161,0,0,1,2.3.571.186.186,0,0,1,.065.233l-.3.6A.169.169,0,0,1,92.186,109.051Zm-28.595,7.056c-2.558,0-3.1-1.289-3.1-2.37v-3.331c0-1.96.944-2.835,3.061-2.835,2.038,0,3.071.941,3.071,2.8v3.013c0,2.445-1.734,2.726-3.037,2.726Zm.021-7.428c-1.269,0-1.782.527-1.782,1.816v2.948c0,1.471,1.467,1.546,1.761,1.546.869,0,1.672-.212,1.672-1.761V110.45c0-1.194-.54-1.772-1.652-1.772Zm44.214,7.281h-1a.182.182,0,0,1-.181-.181v-7.035h-2.124a.182.182,0,0,1-.181-.181v-.691a.182.182,0,0,1,.181-.181h5.623a.182.182,0,0,1,.181.181v.691a.18.18,0,0,1-.181.181H108v7.035a.175.175,0,0,1-.178.181Zm-11.669,0H95.147a.18.18,0,0,1-.178-.181v-7.907a.18.18,0,0,1,.178-.181h1.009a.18.18,0,0,1,.178.181v7.907a.18.18,0,0,1-.178.181Zm-10.927,0H80.8a.182.182,0,0,1-.181-.181v-7.907a.18.18,0,0,1,.181-.181h4.248a.18.18,0,0,1,.178.181v.67a.18.18,0,0,1-.178.181h-3.14v2.394h2.6a.179.179,0,0,1,.178.178v.691a.179.179,0,0,1-.178.178H81.929v2.719h3.3a.18.18,0,0,1,.178.181v.715a.173.173,0,0,1-.174.181Zm18.048,0H98.848a.182.182,0,0,1-.181-.181v-7.907a.182.182,0,0,1,.181-.181H103.1a.18.18,0,0,1,.178.181v.67a.18.18,0,0,1-.178.181h-3.14v2.394h2.6a.179.179,0,0,1,.178.178v.691a.179.179,0,0,1-.178.178H99.977v2.719h3.3a.182.182,0,0,1,.181.181v.715a.177.177,0,0,1-.178.181Zm-30.1,0H68.905a.18.18,0,0,1-.178-.181v-7.907a.18.18,0,0,1,.178-.181h1.009a.18.18,0,0,1,.178.181v7.059h3.085a.179.179,0,0,1,.178.178v.67a.182.182,0,0,1-.181.181Zm5.947,0H74.853a.182.182,0,0,1-.181-.181v-7.907a.18.18,0,0,1,.181-.181h1.005a.182.182,0,0,1,.181.181v7.059h3.085a.179.179,0,0,1,.178.178v.67a.18.18,0,0,1-.181.181Zm-27.265,0H50.8a.176.176,0,0,1-.161-.1l-1.628-3.341h-1.43v3.263a.182.182,0,0,1-.181.181H46.384a.182.182,0,0,1-.181-.181v-7.9a.182.182,0,0,1,.181-.181h2.507c1.967,0,3.1.879,3.1,2.4a2.2,2.2,0,0,1-1.662,2.144l1.693,3.458a.18.18,0,0,1-.161.26Zm-4.272-7.237v2.719H49.2a1.266,1.266,0,0,0,1.409-1.344c0-1.2-1.112-1.375-1.772-1.375ZM26.9,107.7H25.8a.175.175,0,0,0-.154.089l-2.172,3.625L21.3,107.785a.18.18,0,0,0-.154-.089h-1.1a.182.182,0,0,0-.181.181v7.9a.18.18,0,0,0,.181.181h1.009a.182.182,0,0,0,.181-.181v-6.118l1.895,3.317a.184.184,0,0,0,.157.092h.38a.181.181,0,0,0,.157-.092l1.895-3.317v6.118a.182.182,0,0,0,.181.181h1.009a.182.182,0,0,0,.181-.181v-7.9A.2.2,0,0,0,26.9,107.7Zm9.627,0h-1.1a.18.18,0,0,0-.154.089L33.1,111.411l-2.172-3.625a.184.184,0,0,0-.154-.089h-1.1a.182.182,0,0,0-.181.181v7.9a.182.182,0,0,0,.181.181H30.68a.182.182,0,0,0,.181-.181v-6.118l1.895,3.317a.188.188,0,0,0,.157.092h.38a.181.181,0,0,0,.157-.092l1.895-3.317v6.118a.182.182,0,0,0,.181.181h1.009a.182.182,0,0,0,.181-.181v-7.9A.2.2,0,0,0,36.524,107.7Zm-18.338,8.263H17.14a.18.18,0,0,1-.171-.127l-.537-1.748H13.62l-.516,1.748a.177.177,0,0,1-.171.127h-.824a.179.179,0,0,1-.171-.233l2.4-7.907a.183.183,0,0,1,.171-.13h1.276a.177.177,0,0,1,.171.127l2.4,7.907a.183.183,0,0,1-.174.236Zm-3.153-6.649-1.1,3.769h2.2l-1.1-3.769Zm29.46,6.649H43.447a.177.177,0,0,1-.171-.127l-.537-1.748H39.927l-.513,1.748a.18.18,0,0,1-.171.127h-.824a.179.179,0,0,1-.171-.233l2.4-7.907a.183.183,0,0,1,.171-.13H42.1a.177.177,0,0,1,.171.127l2.4,7.907a.183.183,0,0,1-.174.236Zm-3.153-6.649-1.1,3.769h2.2l-1.1-3.769Zm-30.281,6.649H9.985a.185.185,0,0,1-.144-.072l-2.722-3.618-.3.349v3.164a.182.182,0,0,1-.181.181H5.628a.18.18,0,0,1-.178-.181v-7.9a.18.18,0,0,1,.178-.181H6.633a.182.182,0,0,1,.181.181v3.174l2.856-3.29a.175.175,0,0,1,.137-.065h1.012a.181.181,0,0,1,.137.3L8,111.4l3.2,4.275a.177.177,0,0,1-.144.284Zm0,0H9.985a.185.185,0,0,1-.144-.072l-2.722-3.618-.3.349v3.164a.182.182,0,0,1-.181.181H5.628a.18.18,0,0,1-.178-.181v-7.9a.18.18,0,0,1,.178-.181H6.633a.182.182,0,0,1,.181.181v3.174l2.856-3.29a.175.175,0,0,1,.137-.065h1.012a.181.181,0,0,1,.137.3L8,111.4l3.2,4.275a.177.177,0,0,1-.144.284Zm48.366,0H58.348a.185.185,0,0,1-.144-.072l-2.722-3.618-.3.349v3.164a.182.182,0,0,1-.181.181H53.987a.182.182,0,0,1-.181-.181v-7.9a.182.182,0,0,1,.181-.181H55a.182.182,0,0,1,.181.181v3.174l2.856-3.29a.18.18,0,0,1,.137-.065h1.012a.181.181,0,0,1,.137.3L56.361,111.4l3.2,4.275a.175.175,0,0,1-.14.284Z" transform="translate(-5.45 -107.57)" fill="rgba(50,205,50,0.2)"/></g><path d="M106.838,26.841c.048.133.137.376.185.5a.535.535,0,0,1-.017.41.542.542,0,0,1-.3.277.531.531,0,0,0-.3.277l-.954,2.049a.78.78,0,0,0,.376,1.036l.414.192,1.125-2.411a.536.536,0,1,1,.971.451l-1.125,2.411,1.118.52,1.125-2.411a.536.536,0,1,1,.971.451L109.3,33.008l.414.192a.776.776,0,0,0,1.033-.376l.954-2.049a.535.535,0,0,0,.017-.41.535.535,0,0,1,.017-.41.542.542,0,0,1,.3-.277c.13-.048.369-.133.5-.185ZM135.32,38.678a2.6,2.6,0,0,1-3.454,1.259,2.6,2.6,0,0,1-4.415-2.685l.3-.653a2.092,2.092,0,0,0,1.707.024l-.6,1.289a1.042,1.042,0,0,0,1.768,1.077,1.557,1.557,0,0,1,1.891-.462,1.042,1.042,0,0,0,.882-1.888,1.555,1.555,0,0,1-.862-1.744,1.055,1.055,0,0,0-.578-1.17,1.042,1.042,0,0,0-1.385.506l-.534,1.146a1.557,1.557,0,0,1-2.066.742l-4.272-1.99,1.843-.858,3.088,1.44.53-1.135a2.6,2.6,0,0,1,4.894,1.652A2.594,2.594,0,0,1,135.32,38.678Zm-1.7-9.179c.133.048.376.137.5.185a.536.536,0,0,1,.318.687.535.535,0,0,0,.017.41l.954,2.049a.78.78,0,0,0,1.036.376l.414-.192L135.741,30.6a.536.536,0,1,1,.971-.451l1.125,2.411,1.118-.52-1.125-2.411a.536.536,0,1,1,.971-.451l1.125,2.411.414-.192a.779.779,0,0,0,.376-1.036l-.954-2.049a.541.541,0,0,0-.3-.277.536.536,0,0,1-.318-.687c.048-.13.133-.369.185-.5Zm-15.438,6.614a1.561,1.561,0,0,1-2.066-.742l-.534-1.146a1.043,1.043,0,0,0-1.963.663,1.555,1.555,0,0,1-.862,1.744,1.041,1.041,0,1,0,.879,1.888,1.557,1.557,0,0,1,1.891.462,1.042,1.042,0,0,0,1.768-1.077l-.6-1.289a2.092,2.092,0,0,0,1.707-.024h0l.3.653a2.6,2.6,0,0,1-4.415,2.685,2.6,2.6,0,0,1-2.2-4.713,2.6,2.6,0,0,1,4.894-1.652l.53,1.135,3.714-1.731-14.368-6.7a.777.777,0,0,1,.657-1.409l15.551,7.25,15.551-7.25a.777.777,0,1,1,.657,1.409Zm12.169-11.645v3.02H115.812v-3.02h14.542Zm-5.913-9.3a1.358,1.358,0,1,1-1.761-1.3v-.458h-.807v-.807h.807V11.8h.807v.807h.807v.807h-.807v.458A1.364,1.364,0,0,1,124.441,15.172ZM122.6,23.955c-.616,0-2.281-3.519-.889-6.837h0c-3.034,0-3.276,4.487-.927,6.837H119.13c-.9,0-2.958-2.319-2.141-5.25a3.591,3.591,0,0,1,.92-1.6c-3.54-.161-3.974,4.62-.759,6.857H116c-1.529,0-3.9-2.763-2.8-5.582a3.688,3.688,0,0,1,5.2-1.669,3.167,3.167,0,0,1,2.483-.458,5.162,5.162,0,0,1,1.344.588,1.868,1.868,0,0,0,.862.212,1.826,1.826,0,0,0,.862-.212,5.219,5.219,0,0,1,1.344-.588,3.172,3.172,0,0,1,2.483.458,3.687,3.687,0,0,1,5.2,1.669c1.091,2.818-1.279,5.582-2.808,5.582h-1.153c3.215-2.233,2.78-7.018-.759-6.857a3.578,3.578,0,0,1,.92,1.6c.817,2.931-1.245,5.25-2.141,5.25h-1.659c2.346-2.346,2.107-6.837-.927-6.837h0c1.392,3.314-.274,6.837-.889,6.837Z" transform="translate(-71.201 -11.8)" fill="rgba(50,205,50,0.2)"/></g><g transform="translate(283.222 302.07)"><g transform="translate(5.733 -15.236)"><g transform="translate(38.767 39.857)"><path d="M106.366,105.6H103.5a.5.5,0,0,0-.5.5.553.553,0,0,0,.5.561h2.861a.518.518,0,0,0,.5-.561A.5.5,0,0,0,106.366,105.6Z" transform="translate(-103 -105.6)" fill="rgba(50,205,50,0.2)"/></g><g transform="translate(55.092 0.025)"><path d="M134.344,37.405a.509.509,0,0,1-.393-.168l-1.683-1.683a.555.555,0,1,1,.785-.785l1.683,1.683a.542.542,0,0,1,0,.785A.606.606,0,0,1,134.344,37.405Z" transform="translate(-132.1 -34.6)" fill="rgba(50,205,50,0.2)"/></g><g transform="translate(84.714 0.025)"><path d="M185.461,37.405a.509.509,0,0,1-.393-.168.542.542,0,0,1,0-.785l1.683-1.683a.555.555,0,0,1,.785.785l-1.683,1.683A.509.509,0,0,1,185.461,37.405Z" transform="translate(-184.9 -34.6)" fill="rgba(50,205,50,0.2)"/></g><g transform="translate(55.092 29.703)"><path d="M132.661,90.305a.509.509,0,0,1-.393-.168.542.542,0,0,1,0-.785l1.683-1.683a.555.555,0,0,1,.785.785l-1.683,1.683A.606.606,0,0,1,132.661,90.305Z" transform="translate(-132.1 -87.5)" fill="rgba(50,205,50,0.2)"/></g><g transform="translate(84.714 29.703)"><path d="M187.144,90.305a.509.509,0,0,1-.393-.168l-1.683-1.683a.555.555,0,0,1,.785-.785l1.683,1.683a.542.542,0,0,1,0,.785A.509.509,0,0,1,187.144,90.305Z" transform="translate(-184.9 -87.5)" fill="rgba(50,205,50,0.2)"/></g><g transform="translate(61.351)"><path d="M145.02,37.722a.5.5,0,0,1-.449-.281l-1.234-2.02a.568.568,0,0,1,.954-.617l1.234,2.02a.6.6,0,0,1-.168.785A.412.412,0,0,1,145.02,37.722Z" transform="translate(-143.256 -34.556)" fill="rgba(50,205,50,0.2)"/></g><g transform="translate(67.592 0.014)"><path d="M155.4,38.07a.546.546,0,0,1-.561-.449l-.449-2.356a.572.572,0,0,1,1.122-.224l.449,2.356a.568.568,0,0,1-.449.673Z" transform="translate(-154.381 -34.581)" fill="rgba(50,205,50,0.2)"/></g><g transform="translate(67.512 5.768)"><path d="M155.507,48.239a.539.539,0,0,1-.5-.393l-.729-2.244a.568.568,0,1,1,1.066-.393l.729,2.244a.584.584,0,0,1-.337.729A.424.424,0,0,1,155.507,48.239Z" transform="translate(-154.237 -44.837)" fill="rgba(50,205,50,0.2)"/></g><g transform="translate(78.953 0.042)"><path d="M175.175,37.755a.506.506,0,0,1-.281-.056.552.552,0,0,1-.168-.785l1.234-2.02a.568.568,0,0,1,.954.617l-1.234,2.02A.685.685,0,0,1,175.175,37.755Z" transform="translate(-174.631 -34.631)" fill="rgba(50,205,50,0.2)"/></g><g transform="translate(73.429 0.016)"><path d="M165.354,38.072h-.112a.582.582,0,0,1-.449-.673l.449-2.356a.572.572,0,1,1,1.122.224l-.449,2.356A.745.745,0,0,1,165.354,38.072Z" transform="translate(-164.785 -34.585)" fill="rgba(50,205,50,0.2)"/></g><g transform="translate(73.29 5.768)"><path d="M165.077,48.239a.206.206,0,0,1-.168-.056.561.561,0,0,1-.337-.729l.729-2.244a.568.568,0,1,1,1.066.393l-.729,2.244A.584.584,0,0,1,165.077,48.239Z" transform="translate(-164.537 -44.837)" fill="rgba(50,205,50,0.2)"/></g><g transform="translate(61.337 29.384)"><path d="M143.775,90.055a.506.506,0,0,1-.281-.056.552.552,0,0,1-.168-.785l1.234-2.02a.568.568,0,1,1,.954.617l-1.234,2.02A.711.711,0,0,1,143.775,90.055Z" transform="translate(-143.231 -86.931)" fill="rgba(50,205,50,0.2)"/></g><g transform="translate(67.594 29.021)"><path d="M154.954,89.772h-.112a.582.582,0,0,1-.449-.673l.449-2.356a.572.572,0,0,1,1.122.224l-.449,2.356A.6.6,0,0,1,154.954,89.772Z" transform="translate(-154.385 -86.285)" fill="rgba(50,205,50,0.2)"/></g><g transform="translate(67.456 23.272)"><path d="M154.677,79.439a.206.206,0,0,1-.168-.056.561.561,0,0,1-.337-.729l.729-2.244a.568.568,0,0,1,1.066.393l-.729,2.244A.584.584,0,0,1,154.677,79.439Z" transform="translate(-154.137 -76.037)" fill="rgba(50,205,50,0.2)"/></g><g transform="translate(78.967 29.341)"><path d="M176.42,90.022a.5.5,0,0,1-.449-.281l-1.234-2.02a.568.568,0,0,1,.954-.617l1.234,2.02a.6.6,0,0,1-.168.785A2.2,2.2,0,0,1,176.42,90.022Z" transform="translate(-174.656 -86.856)" fill="rgba(50,205,50,0.2)"/></g><g transform="translate(73.427 29.019)"><path d="M165.8,89.77a.546.546,0,0,1-.561-.449l-.449-2.356a.572.572,0,1,1,1.122-.224l.449,2.356a.568.568,0,0,1-.449.673A.078.078,0,0,0,165.8,89.77Z" transform="translate(-164.781 -86.281)" fill="rgba(50,205,50,0.2)"/></g><g transform="translate(73.346 23.272)"><path d="M165.907,79.439a.539.539,0,0,1-.5-.393l-.729-2.244a.568.568,0,0,1,1.066-.393l.729,2.244a.584.584,0,0,1-.337.729A.424.424,0,0,1,165.907,79.439Z" transform="translate(-164.637 -76.037)" fill="rgba(50,205,50,0.2)"/></g><g transform="translate(78.936 23.868)"><path d="M176.844,79.905a.509.509,0,0,1-.393-.168l-1.683-1.683a.555.555,0,0,1,.785-.785l1.683,1.683a.542.542,0,0,1,0,.785A.509.509,0,0,1,176.844,79.905Z" transform="translate(-174.6 -77.1)" fill="rgba(50,205,50,0.2)"/></g><g transform="translate(84.409 6.283)"><path d="M184.885,48.137a.5.5,0,0,1-.449-.281.6.6,0,0,1,.168-.785l2.02-1.234a.568.568,0,1,1,.617.954l-2.02,1.234C185.054,48.081,185,48.137,184.885,48.137Z" transform="translate(-184.356 -45.756)" fill="rgba(50,205,50,0.2)"/></g><g transform="translate(84.087 12.581)"><path d="M184.353,58.563a.546.546,0,0,1-.561-.449.568.568,0,0,1,.449-.673l2.356-.449a.572.572,0,1,1,.224,1.122l-2.356.449Z" transform="translate(-183.781 -56.981)" fill="rgba(50,205,50,0.2)"/></g><g transform="translate(78.396 12.388)"><path d="M174.177,58.524a.539.539,0,0,1-.5-.393.584.584,0,0,1,.337-.729l2.244-.729a.568.568,0,1,1,.393,1.066l-2.244.729A.424.424,0,0,1,174.177,58.524Z" transform="translate(-173.637 -56.637)" fill="rgba(50,205,50,0.2)"/></g><g transform="translate(84.395 23.886)"><path d="M186.894,79.47a.506.506,0,0,1-.281-.056l-2.02-1.234a.568.568,0,0,1,.617-.954l2.02,1.234a.552.552,0,0,1,.168.785A.711.711,0,0,1,186.894,79.47Z" transform="translate(-184.331 -77.131)" fill="rgba(50,205,50,0.2)"/></g><g transform="translate(84.032 18.362)"><path d="M186.611,68.864H186.5l-2.356-.449a.572.572,0,0,1,.224-1.122l2.356.449a.582.582,0,0,1,.449.673A.546.546,0,0,1,186.611,68.864Z" transform="translate(-183.685 -67.285)" fill="rgba(50,205,50,0.2)"/></g><g transform="translate(78.396 18.223)"><path d="M176.422,68.924a.206.206,0,0,1-.168-.056l-2.244-.729a.568.568,0,0,1,.393-1.066l2.244.729a.561.561,0,0,1,.337.729A.676.676,0,0,1,176.422,68.924Z" transform="translate(-173.637 -67.037)" fill="rgba(50,205,50,0.2)"/></g><g transform="translate(55.11 6.326)"><path d="M134.694,48.17a.506.506,0,0,1-.281-.056l-2.02-1.234a.568.568,0,1,1,.617-.954l2.02,1.234a.552.552,0,0,1,.168.785A.835.835,0,0,1,134.694,48.17Z" transform="translate(-132.131 -45.831)" fill="rgba(50,205,50,0.2)"/></g><g transform="translate(55.028 12.583)"><path d="M134.911,58.564H134.8l-2.356-.449a.572.572,0,0,1,.224-1.122l2.356.449a.582.582,0,0,1,.449.673A.6.6,0,0,1,134.911,58.564Z" transform="translate(-131.985 -56.985)" fill="rgba(50,205,50,0.2)"/></g><g transform="translate(60.892 12.388)"><path d="M145.221,58.524a.206.206,0,0,1-.168-.056l-2.244-.729a.568.568,0,0,1,.393-1.066l2.244.729a.561.561,0,0,1,.337.729A.675.675,0,0,1,145.221,58.524Z" transform="translate(-142.437 -56.637)" fill="rgba(50,205,50,0.2)"/></g><g transform="translate(55.123 23.843)"><path d="M132.685,79.437a.5.5,0,0,1-.449-.281.6.6,0,0,1,.168-.785l2.02-1.234a.568.568,0,0,1,.617.954l-2.02,1.234A2.206,2.206,0,0,1,132.685,79.437Z" transform="translate(-132.156 -77.056)" fill="rgba(50,205,50,0.2)"/></g><g transform="translate(55.082 18.36)"><path d="M132.653,68.863a.546.546,0,0,1-.561-.449.568.568,0,0,1,.449-.673l2.356-.449a.572.572,0,1,1,.224,1.122l-2.356.449Z" transform="translate(-132.081 -67.281)" fill="rgba(50,205,50,0.2)"/></g><g transform="translate(60.892 18.223)"><path d="M142.977,68.924a.539.539,0,0,1-.5-.393.584.584,0,0,1,.337-.729l2.244-.729a.568.568,0,0,1,.393,1.066l-2.244.729A.424.424,0,0,1,142.977,68.924Z" transform="translate(-142.437 -67.037)" fill="rgba(50,205,50,0.2)"/></g><g transform="translate(66.425 11.358)"><path d="M155.105,58.727a1.108,1.108,0,0,1-.785-.337l-1.683-1.683a1.111,1.111,0,1,1,1.571-1.571l1.683,1.683a1.085,1.085,0,0,1,0,1.571A1.108,1.108,0,0,1,155.105,58.727Z" transform="translate(-152.3 -54.8)" fill="rgba(50,205,50,0.2)"/></g><g transform="translate(72.26 11.358)"><path d="M163.822,58.727a1.108,1.108,0,0,1-.785-.337,1.085,1.085,0,0,1,0-1.571l1.683-1.683a1.111,1.111,0,0,1,1.571,1.571l-1.683,1.683A1.108,1.108,0,0,1,163.822,58.727Z" transform="translate(-162.7 -54.8)" fill="rgba(50,205,50,0.2)"/></g><g transform="translate(66.425 17.192)"><path d="M153.422,69.127a1.108,1.108,0,0,1-.785-.337,1.085,1.085,0,0,1,0-1.571l1.683-1.683a1.111,1.111,0,0,1,1.571,1.571l-1.683,1.683A1.108,1.108,0,0,1,153.422,69.127Z" transform="translate(-152.3 -65.2)" fill="rgba(50,205,50,0.2)"/></g><g transform="translate(72.26 17.192)"><path d="M165.505,69.127a1.108,1.108,0,0,1-.785-.337l-1.683-1.683a1.111,1.111,0,0,1,1.571-1.571l1.683,1.683a1.085,1.085,0,0,1,0,1.571A1.108,1.108,0,0,1,165.505,69.127Z" transform="translate(-162.7 -65.2)" fill="rgba(50,205,50,0.2)"/></g><path d="M115.154,102.769l3.815-3.815a.555.555,0,0,0-.785-.785l-3.815,3.815-3.815-3.815a.555.555,0,0,0-.785.785l3.815,3.815-3.815,3.815a.542.542,0,0,0,0,.785.542.542,0,0,0,.785,0l3.815-3.815,3.815,3.815a.542.542,0,0,0,.785,0,.542.542,0,0,0,0-.785Z" transform="translate(-67.131 -62.406)" fill="rgba(50,205,50,0.2)"/><g transform="translate(60.871 23.868)"><path d="M142.961,79.905a.509.509,0,0,1-.393-.168.542.542,0,0,1,0-.785l1.683-1.683a.555.555,0,0,1,.785.785l-1.683,1.683A.606.606,0,0,1,142.961,79.905Z" transform="translate(-142.4 -77.1)" fill="rgba(50,205,50,0.2)"/></g><g transform="translate(60.871 5.803)"><path d="M144.644,47.705a.509.509,0,0,1-.393-.168l-1.683-1.683a.555.555,0,0,1,.785-.785l1.683,1.683a.542.542,0,0,1,0,.785A.606.606,0,0,1,144.644,47.705Z" transform="translate(-142.4 -44.9)" fill="rgba(50,205,50,0.2)"/></g><g transform="translate(78.936 5.803)"><path d="M175.161,47.705a.509.509,0,0,1-.393-.168.542.542,0,0,1,0-.785l1.683-1.683a.555.555,0,0,1,.785.785l-1.683,1.683A.509.509,0,0,1,175.161,47.705Z" transform="translate(-174.6 -44.9)" fill="rgba(50,205,50,0.2)"/></g><g transform="translate(11.557 35.65)"><path d="M62.8,98.156a.53.53,0,0,0-.561.561v.954a4.389,4.389,0,0,0-7.742,3.142,4.616,4.616,0,0,0,4.432,4.713,4.342,4.342,0,0,0,3.31-1.571v1.01a.561.561,0,0,0,1.122,0V98.717A.562.562,0,0,0,62.8,98.156Zm-.617,4.713a3.317,3.317,0,1,1-6.62,0,3.456,3.456,0,0,1,3.31-3.591A3.421,3.421,0,0,1,62.186,102.869Z" transform="translate(-54.5 -98.1)" fill="rgba(50,205,50,0.2)"/></g><g transform="translate(23.675 32.452)"><path d="M76.661,92.4a.562.562,0,0,0-.561.561v.449a.614.614,0,0,0,.561.617.623.623,0,0,0,.617-.617v-.449A.659.659,0,0,0,76.661,92.4Z" transform="translate(-76.1 -92.4)" fill="rgba(50,205,50,0.2)"/><g transform="translate(0 3.254)"><path d="M76.661,98.2a.53.53,0,0,0-.561.561v8.247a.562.562,0,0,0,.561.561.614.614,0,0,0,.617-.561V98.761A.612.612,0,0,0,76.661,98.2Z" transform="translate(-76.1 -98.2)" fill="rgba(50,205,50,0.2)"/></g></g><g transform="translate(27.546 35.65)"><path d="M91.3,98.156a.53.53,0,0,0-.561.561v.954A4.389,4.389,0,0,0,83,102.813a4.616,4.616,0,0,0,4.432,4.713,4.342,4.342,0,0,0,3.31-1.571v1.01a.562.562,0,0,0,.561.561.6.6,0,0,0,.561-.561V98.717A.562.562,0,0,0,91.3,98.156Zm-.617,4.713a3.317,3.317,0,1,1-6.62,0,3.456,3.456,0,0,1,3.31-3.591A3.421,3.421,0,0,1,90.686,102.869Z" transform="translate(-83 -98.1)" fill="rgba(50,205,50,0.2)"/></g><g transform="translate(0 35.65)"><path d="M42.259,98.156a.614.614,0,0,0-.617.561v.954a4.443,4.443,0,0,0-3.31-1.571,4.662,4.662,0,0,0,0,9.313,4.388,4.388,0,0,0,3.31-1.515v.729a3.234,3.234,0,0,1-3.31,3.254,3.857,3.857,0,0,1-1.346-.281,3.945,3.945,0,0,1-1.066-.729.568.568,0,0,0-.393-.224.637.637,0,0,0-.449.168.6.6,0,0,0-.056.785,5.116,5.116,0,0,0,1.29.954l.056.056c.056,0,.056,0,.112.056l.112.056c.056,0,.056.056.112.056a3.882,3.882,0,0,0,1.571.281,4.911,4.911,0,0,0,.9-.112h.056c.281-.056.561-.168.785-.224a4.182,4.182,0,0,0,.673-.393l.168-.168.056-.056a1.224,1.224,0,0,0,.281-.224l.337-.337a.174.174,0,0,0,.056-.112,4.483,4.483,0,0,0,1.066-2.805v-7.91C42.82,98.437,42.54,98.156,42.259,98.156Zm-.561,4.656a3.291,3.291,0,1,1-3.31-3.534A3.442,3.442,0,0,1,41.7,102.813Z" transform="translate(-33.9 -98.1)" fill="rgba(50,205,50,0.2)"/></g></g></g></g></g></svg>