<?xml version="1.0" encoding="utf-8"?>
<!-- Generator: Adobe Illustrator 26.1.0, SVG Export Plug-In . SVG Version: 6.00 Build 0)  -->
<svg version="1.1" id="Lager_1" xmlns="http://www.w3.org/2000/svg" xmlns:xlink="http://www.w3.org/1999/xlink" x="0px" y="0px"
	 viewBox="0 0 270 90" style="enable-background:new 0 0 270 90;" xml:space="preserve">
<style type="text/css">
	.st0{fill:#1E1E1E;}
	.st1{fill:#30BA78;}
</style>
<g id="Layer_1">
	<g>
		<path class="st0" d="M224.9,59.8c-3.3,0-6-2.7-6-6V36.2c0-3.3,2.7-6,6-6h13.6c1.1,0,1.9,0.9,1.9,1.9s-0.9,1.9-1.9,1.9h-13.6
			c-1.2,0-2.1,0.9-2.1,2.1v7h13.3c1,0,1.8,0.8,1.8,1.8s-0.8,1.8-1.8,1.8h-13.3v7.1c0,1.2,0.9,2.1,2.1,2.1h13.6
			c1.1,0,1.9,0.9,1.9,1.9c0,1.1-0.9,1.9-1.9,1.9H224.9z M164.1,60.2c-3.9,0-6.9-1-9-2.9c-2-2-3.1-4.9-3.1-8.7V32.1
			c0-1.2,1-2.2,2.2-2.2c1.2,0,2.2,1,2.2,2.2v15.8c0,2.9,0.6,5,1.8,6.4c1.2,1.4,3.1,2.1,5.7,2.1c2.6,0,4.5-0.7,5.7-2.1
			c1.2-1.4,1.8-3.5,1.8-6.4V32.1c0-1.2,1-2.2,2.2-2.2s2.2,1,2.2,2.2v16.4c0,3.8-1,6.8-3.1,8.7C171,59.2,168,60.2,164.1,60.2
			 M197.7,60.2c-5,0-8.9-1.4-11.4-4.2c-0.7-0.8-0.7-2.1,0.1-2.9l0,0l0,0c0.4-0.4,0.9-0.6,1.5-0.6c0.6,0,1.2,0.3,1.6,0.7
			c0.7,0.8,1.5,1.5,2.4,2c1.5,0.9,3.5,1.3,5.8,1.3c2.2,0,3.9-0.4,5.2-1.1c1.3-0.8,1.9-1.9,1.9-3.3c0-1.2-0.6-2.1-1.8-2.8
			c-1.1-0.7-3-1.3-5.8-1.8c-2.7-0.5-4.9-1.1-6.5-1.9c-1.6-0.7-2.8-1.7-3.5-2.7c-0.7-1.1-1.1-2.4-1.1-4c0-1.6,0.5-3.2,1.4-4.5
			c0.9-1.3,2.2-2.4,4-3.2c1.7-0.8,3.8-1.2,6.1-1.2c2.7,0,5,0.5,6.9,1.5c1.3,0.7,2.4,1.6,3.4,2.7c0.8,0.9,0.7,2.2-0.2,3
			c-0.4,0.3-0.9,0.5-1.4,0.5c-0.7,0-1.3-0.3-1.7-0.8c-0.6-0.7-1.2-1.3-1.9-1.8c-1.3-0.8-3-1.3-5.2-1.3c-2.1,0-3.8,0.4-5,1.3
			c-1.2,0.9-1.8,2-1.8,3.4c0,1.3,0.6,2.3,1.8,3.1c1.1,0.7,3.1,1.3,6,1.9c2.7,0.5,4.8,1.1,6.3,1.8c1.5,0.7,2.7,1.6,3.4,2.7
			c0.7,1.1,1,2.4,1,4c0,1.7-0.5,3.2-1.4,4.5c-1,1.3-2.3,2.3-4.1,3C202,59.8,200,60.2,197.7,60.2 M130.8,60.2c-5,0-8.9-1.4-11.4-4.3
			c-0.7-0.8-0.7-2.1,0.1-2.9l0,0c0.4-0.4,0.9-0.6,1.5-0.6c0.6,0,1.2,0.3,1.5,0.7c0.7,0.8,1.5,1.5,2.4,2c1.5,0.9,3.5,1.3,5.8,1.3
			c2.2,0,3.9-0.4,5.2-1.1c1.3-0.8,1.9-1.9,1.9-3.3c0-1.2-0.6-2.1-1.8-2.8c-1.1-0.7-3-1.3-5.8-1.8c-2.7-0.5-4.9-1.1-6.5-1.9
			c-1.6-0.7-2.8-1.7-3.5-2.7c-0.7-1.1-1.1-2.4-1.1-4c0-1.6,0.5-3.2,1.4-4.5c0.9-1.4,2.2-2.4,4-3.2c1.7-0.8,3.8-1.2,6.1-1.2
			c2.7,0,5,0.5,6.9,1.5c1.3,0.7,2.4,1.6,3.4,2.7c0.8,0.9,0.7,2.2-0.2,3c-0.4,0.3-0.9,0.5-1.4,0.5c-0.7,0-1.3-0.3-1.7-0.8
			c-0.6-0.7-1.2-1.4-1.9-1.8c-1.3-0.8-3-1.3-5.2-1.3c-2.1,0-3.8,0.4-5,1.3c-1.2,0.9-1.8,2-1.8,3.4c0,1.3,0.6,2.3,1.8,3.1
			c1.1,0.7,3.1,1.3,6.1,1.9c2.7,0.5,4.8,1.1,6.4,1.8c1.5,0.7,2.7,1.6,3.4,2.7c0.7,1.1,1.1,2.4,1.1,4c0,1.7-0.5,3.2-1.5,4.5
			c-1,1.3-2.3,2.3-4.1,3C135.2,59.8,133.1,60.2,130.8,60.2"/>
		<path class="st1" d="M101.5,40.3c-0.5-0.5-1.3-0.5-1.7,0c-0.5,0.5-0.5,1.5,0.2,1.9c0.4,0.3,0.9,0.3,1.4,0
			C102,41.7,102.1,40.8,101.5,40.3 M100,36.1c-3.3-0.8-6.2,2.2-5.5,5.5c0.4,1.7,1.7,3,3.4,3.4c3.3,0.8,6.2-2.2,5.5-5.5
			C102.9,37.8,101.6,36.5,100,36.1 M78.3,54.6c-2.1-0.8-3-0.6-5.7-0.6c-1.9,0-2,0-4.1,0c-0.7,0-0.9,3.2,1.5,3.9
			c1.1,0.3,2.2,0.5,3,1.3c0.4,0.4,0.6,0.9-0.3,0.9h-6c-1.1,0-2,0-2.8-0.7c-1.2-1-1.8-2.4-2.4-3.8c-0.6-1.5-1.3-2.9-2.1-4.3
			c-1.6-2.7-3.7-5.2-6.5-6.7c-3.5-1.9-9.5-2.8-14.2,0.8c-5,3.8-3.9,11,0.4,14.5c1.7,1.4,4,2,6.2,1.8c4.3-0.2,7.5-3.4,6.7-7.3
			c-0.3-1.3-1-2.5-2.2-3.2c-0.8-0.5-1.8-0.6-2.7-0.6c-1,0-2.1,0.2-2.8,0.9c-0.9,0.8-1,2.3-0.3,3.3c0.4,0.5,1,1,0.9,1.7
			c-0.1,0.5-0.5,0.8-0.9,0.9c-0.8,0.2-1.5-0.3-2.1-0.8c-1.4-1.4-1.8-3.7-1.1-5.6c1-2.4,3.8-3.8,6.4-3.7c3.4,0.1,6.6,2.3,8,5.4
			c1.4,3.1,1,6.9-0.9,9.7c-4.3,6.2-14.8,5.5-19.6,0.2c-3.1-3.3-4.7-6.5-4.5-12.4c0.2-4.2,2.6-8.3,5.7-11.2c5-4.7,11.7-8,18.4-9.4
			c4.1-0.8,8.3-1,12.5-0.6c3.7,0.4,7.3,1,10.8,2.1c1.8,0.5,3.5,1.2,5.1,2c1.5,0.7,3.4,1.4,4.5,2.6c0-2.1-0.1-4.4-0.1-6
			c0-0.6,0.6-1,1.2-0.8c2.4,1.1,8,3.8,11.8,5.5c5.1,2.3,5.4,7.8,5.6,12.6c0,0.1,0,0.2,0,0.3c-0.2,0.3-1,0.2-1.3,0.2
			c-0.6,0-1.5,0-2.1,0c-1.2,0.1-2.4,0-3.6,0c-2.2-0.1-4.4-1.1-5.8-2.3c-0.1-0.1-0.6-0.3-0.8,0c-0.2,0.2-0.2,0.6,0,0.7
			c0.8,0.8,1.7,1.4,2.8,1.9c1.3,0.7,2.8,0.9,4.2,0.9c1.6,0.1,3.2,0.1,4.7-0.1c1.3-0.1,1.6-0.2,0.4,0.7c-1.1,0.8-2.4,1.4-3.8,1.9
			c-1.9,0.7-3.9,1-6,1c-1.2,0-2.4,0-3.7-0.2c-0.6-0.1-1.3-0.2-1.9-0.3c-0.5-0.1-1-0.1-1.5,0c-0.5,0.1-0.9,0.4-1.2,0.7
			c-0.4,0.5-0.5,2-0.3,2.6c0.4,1.2,1.4,1.9,2.5,2.5c1.1,0.7,2.6,0.9,2.9,2.2C91,60,88.6,60,88.4,60h-3.2c0,0-1.7,0-2.4-0.2
			c0,0,0,0-0.1,0c-0.4-0.2-0.5-0.7-0.6-1.1c-0.2-0.5-0.5-1-0.9-1.6C80.5,56.1,79.4,55,78.3,54.6 M102.3,40.5c0,1.9-1.5,3.4-3.4,3.4
			c-1.9,0-3.4-1.5-3.4-3.4c0-1.9,1.5-3.4,3.4-3.4C100.8,37.2,102.3,38.7,102.3,40.5"/>
	</g>
</g>
</svg>
