<?xml version="1.0" encoding="UTF-8" standalone="no"?>
<!-- Created with Inkscape (http://www.inkscape.org/) -->

<svg
   xmlns:dc="http://purl.org/dc/elements/1.1/"
   xmlns:cc="http://creativecommons.org/ns#"
   xmlns:rdf="http://www.w3.org/1999/02/22-rdf-syntax-ns#"
   xmlns:svg="http://www.w3.org/2000/svg"
   xmlns="http://www.w3.org/2000/svg"
   xmlns:sodipodi="http://sodipodi.sourceforge.net/DTD/sodipodi-0.dtd"
   xmlns:inkscape="http://www.inkscape.org/namespaces/inkscape"
   id="svg2"
   version="1.1"
   inkscape:version="0.48.4 r9939"
   width="244.4875"
   height="205.5125"
   xml:space="preserve"
   sodipodi:docname="Elastisys_CMYK.pdf"><metadata
     id="metadata8"><rdf:RDF><cc:Work
         rdf:about=""><dc:format>image/svg+xml</dc:format><dc:type
           rdf:resource="http://purl.org/dc/dcmitype/StillImage" /><dc:title></dc:title></cc:Work></rdf:RDF></metadata><defs
     id="defs6"><clipPath
       clipPathUnits="userSpaceOnUse"
       id="clipPath16"><path
         d="m 0,164.41 195.59,0 L 195.59,0 0,0 0,164.41 z"
         id="path18" /></clipPath></defs><sodipodi:namedview
     pagecolor="#ffffff"
     bordercolor="#666666"
     borderopacity="1"
     objecttolerance="10"
     gridtolerance="10"
     guidetolerance="10"
     inkscape:pageopacity="0"
     inkscape:pageshadow="2"
     inkscape:window-width="640"
     inkscape:window-height="480"
     id="namedview4"
     showgrid="false"
     inkscape:zoom="1.1483487"
     inkscape:cx="122.24375"
     inkscape:cy="102.75625"
     inkscape:window-x="0"
     inkscape:window-y="30"
     inkscape:window-maximized="0"
     inkscape:current-layer="g10" /><g
     id="g10"
     inkscape:groupmode="layer"
     inkscape:label="Elastisys_CMYK"
     transform="matrix(1.25,0,0,-1.25,0,205.5125)"><g
       id="g12"><g
         id="g14"
         clip-path="url(#clipPath16)"><g
           id="g20"
           transform="translate(9.4434,31.9258)"><path
             d="m 0,0 c 0.348,2.551 2.203,3.652 5.045,3.652 1.855,0 3.422,-0.695 3.422,-2.259 0,-1.508 -0.523,-2.379 -2.437,-3.016 L -0.522,-3.885 0,0 z m -1.451,-11.133 0,0.695 8.004,2.725 c 5.392,1.856 8.349,4.061 8.349,9.627 0,4.524 -3.537,7.592 -9.277,7.592 -6.959,0 -11.599,-3.822 -12.353,-9.041 L -8.119,-9.51 c -0.115,-0.869 -0.174,-1.74 -0.174,-2.379 0,-4.695 3.073,-7.595 9.742,-7.595 l 9.174,0 0.858,5.925 c 0,0 -5.508,-0.011 -9.162,-0.011 -2.551,0 -3.77,0.812 -3.77,2.437"
             style="fill:#001b69;fill-opacity:1;fill-rule:nonzero;stroke:none"
             id="path22" /></g><g
           id="g24"
           transform="translate(39.5127,52.2402)"><path
             d="m 0,0 -11.03,0 -0.87,-5.914 4.189,0 -3.868,-27.971 -4.825,0 -0.869,-5.914 16.47,0 0.869,5.914 -4.803,0 L 0,0 z"
             style="fill:#001b69;fill-opacity:1;fill-rule:nonzero;stroke:none"
             id="path26" /></g><g
           id="g28"
           transform="translate(123.6016,53.0332)"><path
             d="m 0,0 -6.843,0 -1.043,-7.422 6.842,0 L 0,0 z"
             style="fill:#001b69;fill-opacity:1;fill-rule:nonzero;stroke:none"
             id="path30" /></g><g
           id="g32"
           transform="translate(121.9785,41.4355)"><path
             d="m 0,0 -11.078,0 -0.87,-5.914 4.235,0 -2.378,-17.166 -4.814,0 -0.869,-5.914 16.527,0 0.87,5.914 -4.871,0 L 0,0 z"
             style="fill:#001b69;fill-opacity:1;fill-rule:nonzero;stroke:none"
             id="path34" /></g><g
           id="g36"
           transform="translate(139.248,41.4355)"><path
             d="m 0,0 -0.002,0 -0.01,0 c -6.552,0 -11.83,-2.957 -11.83,-8.697 0,-8.41 11.539,-7.366 11.539,-11.657 0,-2.435 -2.432,-2.724 -4.519,-2.726 -4.52,0.002 -8.717,0.014 -8.717,0.014 l -0.84,-5.928 c 0,0 4,-0.01 8.986,-0.01 7.656,0 12.177,3.838 12.177,9.52 0,8.64 -11.597,7.886 -11.597,11.599 0,1.274 1.334,2.028 4.231,2.028 3.248,0 7.761,0.025 7.761,0.025 L 8.03,0 0.001,0 0,0 z"
             style="fill:#001b69;fill-opacity:1;fill-rule:nonzero;stroke:none"
             id="path38" /></g><g
           id="g40"
           transform="translate(79.085,41.4473)"><path
             d="m 0,0 -0.002,0 -0.01,0 c -6.552,0 -11.83,-2.971 -11.83,-8.713 0,-8.408 11.539,-7.365 11.539,-11.656 0,-2.434 -2.432,-2.721 -4.519,-2.723 -4.52,0.002 -8.717,0.01 -8.717,0.01 l -0.854,-5.926 c 0,0 4.014,-0.008 9,-0.008 7.656,0 12.178,3.834 12.178,9.518 0,8.641 -11.598,7.887 -11.598,11.598 0,1.275 1.334,2.031 4.231,2.031 3.248,0 7.761,0.021 7.761,0.021 l 0.852,5.834 c 0,0 -3.571,0.012 -8.03,0.014 L 0,0 z"
             style="fill:#001b69;fill-opacity:1;fill-rule:nonzero;stroke:none"
             id="path42" /></g><g
           id="g44"
           transform="translate(186.1963,41.4355)"><path
             d="m 0,0 -0.002,0 -0.01,0 c -6.552,0 -11.83,-2.957 -11.83,-8.697 0,-8.41 11.539,-7.366 11.539,-11.657 0,-2.435 -2.431,-2.724 -4.519,-2.726 -4.52,0.002 -8.717,0.014 -8.717,0.014 l -0.867,-5.928 c 0,0 4.027,-0.008 9.013,-0.008 7.657,0 12.178,3.836 12.178,9.518 0,8.64 -11.598,7.886 -11.598,11.599 0,1.274 1.334,2.028 4.231,2.028 3.248,0 7.762,0.025 7.762,0.025 L 8.031,0 0.002,0 0,0 z"
             style="fill:#001b69;fill-opacity:1;fill-rule:nonzero;stroke:none"
             id="path46" /></g><g
           id="g48"
           transform="translate(168.3291,41.4355)"><path
             d="M 0,0 -8.756,-18.324 -12.352,0 -19.6,0 l 6.147,-27.313 -6.088,-12.119 6.9,0 L 7.25,0 0,0 z"
             style="fill:#001b69;fill-opacity:1;fill-rule:nonzero;stroke:none"
             id="path50" /></g><g
           id="g52"
           transform="translate(57.6904,31.3457)"><path
             d="m 0,0 -1.391,-9.742 c -0.289,-1.971 -2.435,-3.248 -4.755,-3.248 -2.145,0 -3.653,1.045 -3.653,2.842 0,0.697 0.115,1.507 0.232,2.32 l 1.334,8.756 c 0.348,2.203 2.378,3.304 4.697,3.304 2.088,0 3.653,-1.101 3.653,-2.839 C 0.117,0.928 0.059,0.521 0,0 M 2.089,10.09 1.509,7.83 c 0,0 -1.972,2.272 -5.857,2.272 -5.625,0 -9.916,-3.956 -10.671,-9.405 l -1.45,-10.207 c -0.057,-0.521 -0.115,-1.101 -0.115,-1.566 0,-4.813 3.306,-7.828 8.234,-7.828 4.176,0 6.438,2.377 6.438,2.377 l -0.116,-2.377 6.147,0 4.117,28.994 -6.147,0 z"
             style="fill:#001b69;fill-opacity:1;fill-rule:nonzero;stroke:none"
             id="path54" /></g><g
           id="g56"
           transform="translate(98.0898,19.9219)"><path
             d="m 0,0 c 0,0.406 0.116,1.334 0.174,1.74 l 1.971,13.916 5.424,0 0.87,5.858 -5.423,0 0.869,6.322 -6.785,0 -0.87,-6.322 -5.277,0 -0.87,-5.858 5.278,0 -2.03,-14.554 C -6.785,0.232 -6.9,-0.754 -6.9,-1.334 c 0,-4.176 2.434,-6.156 8.349,-6.156 4.408,0 4.653,0.01 4.653,0.01 l 0.798,5.914 -3.537,0 C 0.639,-1.566 0,-1.102 0,0"
             style="fill:#001b69;fill-opacity:1;fill-rule:nonzero;stroke:none"
             id="path58" /></g><g
           id="g60"
           transform="translate(69.748,58.5996)"><path
             d="M 0,0 C 1.689,11.17 9.569,50.721 36.729,50.721 38.3,50.721 39.95,50.59 41.62,50.32 50.189,48.46 55.6,42.48 55.399,35.09 55.08,23.179 40.31,7.039 0,0"
             style="fill:#1082ce;fill-opacity:1;fill-rule:nonzero;stroke:none"
             id="path62" /></g><g
           id="g64"
           transform="translate(109.9277,67.3203)"><path
             d="m 0,0 c 13.71,8.029 19.44,17.75 19.67,26.25 0.26,9.649 -6.55,17.389 -17.36,19.719 l -0.12,0.02 c -1.91,0.3 -3.81,0.46 -5.64,0.46 -14.51,0 -24.06,-9.24 -30.3,-20.32 7.97,18.98 21.53,37.33 44.14,37.33 2.35,0 4.8,-0.199 7.27,-0.59 C 30.61,60.06 38.771,51 38.46,39.77 38.12,27.299 27.21,11.709 0,0"
             style="fill:#6e87cd;fill-opacity:1;fill-rule:nonzero;stroke:none"
             id="path66" /></g><g
           id="g68"
           transform="translate(182.668,128.4199)"><path
             d="m 0,0 c -0.51,-18.7 -17.23,-42.2 -59.2,-59.35 2.88,1.639 5.58,3.36 8.099,5.17 13.401,9.61 20.96,21.23 21.271,32.73 0.37,13.489 -9.2,24.319 -24.37,27.59 l -0.12,0.02 c -2.73,0.43 -5.43,0.65 -8.031,0.65 -21.069,0 -38.019,-14.43 -49,-41.73 1.401,4.4 3,8.92 4.811,13.42 15.08,37.48 37.04,56.49 65.28,56.49 3.44,0 7.01,-0.291 10.619,-0.86 C -11.57,30 0.46,16.609 0,0"
             style="fill:#001b69;fill-opacity:1;fill-rule:nonzero;stroke:none"
             id="path70" /></g></g></g></g></svg>