<?xml version="1.0" encoding="UTF-8"?>
<svg width="113px" height="48px" viewBox="0 0 113 48" version="1.1" xmlns="http://www.w3.org/2000/svg" xmlns:xlink="http://www.w3.org/1999/xlink">
    <!-- Generator: Sketch 50.2 (55047) - http://www.bohemiancoding.com/sketch -->
    <title>Safespring partners Piql</title>
    <desc>Piql logo</desc>
    <defs></defs>
    <g id="Page-1" stroke="none" stroke-width="1" fill="none" fill-rule="evenodd">
        <g id="Group">
            <g id="eu" transform="translate(79.000000, 12.000000)">
                <polygon id="Fill-2" fill="#174489" points="0 23 34 23 34 0 0 0"></polygon>
                <polygon id="Fill-3" fill="#FFF101" points="16.3881024 5 16.9997445 4.52987404 17.6114887 5 17.3786477 4.23974594 18 3.76951233 17.2341187 3.76951233 16.9997445 3 16.7653703 3.77037356 16 3.76951233 16.6208412 4.23974594"></polygon>
                <polygon id="Fill-4" fill="#FFF101" points="12.3885113 6 13.0001533 5.5300764 13.6114887 6 13.3790566 5.24007317 14 4.77004197 13.2341187 4.77004197 12.9997445 4 12.7654725 4.77090283 12 4.77004197 12.6208412 5.24007317"></polygon>
                <polygon id="Fill-5" fill="#FFF101" points="10 7 9.76556589 7.77090283 9 7.77004197 9.6209999 8.23996557 9.38820162 9 10 8.5300764 10.6117984 9 10.3790001 8.23996557 11 7.77004197 10.2344341 7.77004197"></polygon>
                <polygon id="Fill-6" fill="#FFF101" points="9.00020444 11.5300764 9.61146887 12 9.37912706 11.2400732 10 10.7701496 9.23459062 10.7701496 9.00020444 10 8.76581826 10.7717637 8 10.7701496 8.62128182 11.2400732 8.38853113 12"></polygon>
                <polygon id="Fill-7" fill="#FFF101" points="10.2344341 14.770042 10 14 9.76556589 14.7709028 9 14.770042 9.6209999 15.2399656 9.38820162 16 10 15.5292155 10.6117984 16 10.3790001 15.2399656 11 14.770042"></polygon>
                <polygon id="Fill-8" fill="#FFF101" points="13.2341817 17.7695123 12.9997956 17 12.7658183 17.7703736 12 17.7695123 12.6208729 18.2396383 12.3885311 19 13.0002044 18.5297664 13.6114689 19 13.3791271 18.2396383 14 17.7695123"></polygon>
                <polygon id="Fill-9" fill="#FFF101" points="17.2341817 18.770042 16.9997956 18 16.7658183 18.7709028 16 18.770042 16.6208729 19.2399656 16.3885311 20 17.0002044 19.5299688 17.6114689 20 17.3787182 19.2399656 18 18.770042"></polygon>
                <polygon id="Fill-10" fill="#FFF101" points="20.2340252 17.7695123 20 17 19.7651569 17.7703736 19 17.7695123 19.6205909 18.2396383 19.3882016 19 20 18.5297664 20.6117984 19 20.3785911 18.2396383 21 17.7695123"></polygon>
                <polygon id="Fill-11" fill="#FFF101" points="23.2348431 14.770042 23 14 22.7651569 14.7709028 22 14.770042 22.6214089 15.2399656 22.3882016 16 23 15.5292155 23.6119006 16 23.3785911 15.2399656 24 14.770042"></polygon>
                <polygon id="Fill-12" fill="#FFF101" points="25 10.770042 24.2343383 10.770042 23.9995912 10 23.7656617 10.7709028 23 10.770042 23.6211548 11.2399656 23.3887583 12 23.9995912 11.5292155 24.6111395 12 24.3788452 11.2399656"></polygon>
                <polygon id="Fill-13" fill="#FFF101" points="22.3881818 9 22.9999489 8.52987404 23.6118182 9 23.3786229 8.23974594 24 7.77037356 23.2347799 7.77037356 22.9999489 7 22.7652201 7.77123479 22 7.77037356 22.6213771 8.23974594"></polygon>
                <polygon id="Fill-14" fill="#FFF101" points="20.9995912 4 20.7656617 4.77090283 20 4.7691811 20.6203373 5.23996557 20.3880429 6 21.0004088 5.52921554 21.6111395 6 21.3788452 5.23996557 22 4.7691811 21.2335207 4.7691811"></polygon>
            </g>
            <g id="piql-logo" fill="#E05F2E">
                <path d="M25.86785,35.2355382 L25.86785,11.9438287 L33.539454,11.9438287 L33.539454,35.2355382 L25.86785,35.2355382 Z M61.328396,35.2355382 L61.328396,0.0933408 L69,0.0933408 L69,35.2355382 L61.328396,35.2355382 Z M12.07184,11.3851151 C10.487003,11.3851151 9.025416,11.6644996 7.670499,12.2100039 L7.670499,12.2064114 L7.609703,12.2351513 C7.308763,12.3578483 7.015285,12.4951916 6.725676,12.6427596 L6.65659,12.675921 L6.100032,11.3851151 L0,11.3851151 L0,47.9935972 L7.670499,47.9935972 L7.670499,35.0012532 C9.040063,35.5365328 10.508835,35.8048634 12.07184,35.8048634 C15.345695,35.8048634 18.211666,34.6455976 20.598731,32.2582561 C22.986901,29.8714673 24.214701,27.0046678 24.214701,23.6636609 C24.214701,20.2532915 22.986901,17.3884264 20.598731,14.9997032 C18.211666,12.6145725 15.4134,11.3851151 12.07184,11.3851151 Z M15.190389,26.741035 C14.323496,27.6057175 13.282782,28.0285248 12.0945,28.0285248 C10.905942,28.0285248 9.865504,27.6057175 8.998887,26.741035 C8.131442,25.8749709 7.711674,24.8331515 7.711674,23.6205512 C7.711674,22.3819744 8.131442,21.3429185 8.998887,20.4749199 C9.865504,19.6080267 10.8819,19.1622828 12.0945,19.1622828 C13.308206,19.1622828 14.323496,19.6080267 15.190389,20.4749199 C16.057006,21.3429185 16.501921,22.3819744 16.501921,23.6205512 C16.501921,24.8331515 16.057006,25.8749709 15.190389,26.741035 Z M29.691492,0.0064028 C30.904645,0.0064028 31.920488,0.4518704 32.786829,1.3190399 C33.653998,2.1859331 34.099742,3.2271998 34.099742,4.4646711 C34.099742,5.6769951 33.653998,6.7190909 32.786829,7.5848787 C31.920488,8.4506665 30.879498,8.8723684 29.691492,8.8723684 C28.502934,8.8723684 27.461944,8.4506665 26.595603,7.5848787 C25.72871,6.7190909 25.308113,5.6769951 25.308113,4.4646711 C25.308113,3.2271998 25.72871,2.1859331 26.595603,1.3190399 C27.461944,0.4518704 28.478339,0.0064028 29.691492,0.0064028 Z M47.302799,11.3851151 C43.962069,11.3851151 41.163803,12.6145725 38.776738,14.9997032 C36.389672,17.3884264 35.23013,20.2532915 35.23013,23.6636609 C35.23013,27.0046678 36.389672,29.8714673 38.776738,32.2582561 C40.188306,33.6706536 41.769827,34.6491901 43.501955,35.2162493 L43.501955,47.9935972 L51.173006,47.9935972 L51.174388,47.9935972 L51.174388,35.193589 C52.879434,34.6229373 54.436913,33.6513095 55.82969,32.2582561 C58.217861,29.8714673 59.446213,27.0046678 59.446213,23.6636609 C59.446213,20.2532915 58.217861,17.3884264 55.82969,14.9997032 C53.442348,12.6145725 50.645464,11.3851151 47.302799,11.3851151 Z M50.420796,26.741035 C49.554179,27.6057175 48.512913,28.0285248 47.326012,28.0285248 C46.137177,28.0285248 45.096187,27.6057175 44.230399,26.741035 C43.36323,25.8749709 42.942081,24.8331515 42.942081,23.6205512 C42.942081,22.3819744 43.36323,21.3429185 44.230399,20.4749199 C45.096187,19.6080267 46.112583,19.1622828 47.326012,19.1622828 C48.539165,19.1622828 49.554179,19.6080267 50.420796,20.4749199 C51.287966,21.3429185 51.733986,22.3819744 51.733986,23.6205512 C51.733986,24.8331515 51.287966,25.8749709 50.420796,26.741035 Z" id="Shape"></path>
            </g>
        </g>
    </g>
</svg>
