<svg width="133" height="26" viewBox="0 0 133 26" fill="none" xmlns="http://www.w3.org/2000/svg">
<path d="M0 5.19997C0 2.32811 2.32811 0 5.19997 0H20.7999C23.6718 0 25.9999 2.32811 25.9999 5.19997V20.7999C25.9999 23.6718 23.6718 25.9999 20.7999 25.9999H5.19997C2.32811 25.9999 0 23.6718 0 20.7999V5.19997Z" fill="white"/>
<path d="M24.4769 1.52344L1.5231 24.4772C2.46411 25.4182 3.76411 26.0003 5.20004 26.0003H20.8C23.6718 26.0003 25.9999 23.6722 25.9999 20.8003V5.20037C25.9999 3.76444 25.4179 2.46445 24.4769 1.52344Z" fill="#041C39"/>
<path d="M22.0999 18.5252C22.0999 20.4996 20.4993 22.1002 18.5249 22.1002C16.5505 22.1002 14.9499 20.4996 14.9499 18.5252C14.9499 16.5508 16.5505 14.9502 18.5249 14.9502C20.4993 14.9502 22.0999 16.5508 22.0999 18.5252Z" fill="white"/>
<path fill-rule="evenodd" clip-rule="evenodd" d="M5.43637 9.09658L5.45144 9.20935C5.49517 9.53632 5.57908 9.76216 5.69053 9.90316C5.8973 10.1632 6.26416 10.3105 6.83226 10.3105C7.17544 10.3105 7.44412 10.2711 7.64383 10.1981C7.83386 10.1278 7.96626 10.0312 8.05174 9.91378C8.13681 9.79688 8.1829 9.649 8.1829 9.46233C8.1829 9.26294 8.10254 9.115 7.93315 9.00502C7.74564 8.88675 7.43903 8.77542 7.00187 8.67618L7.0012 8.67603L6.24636 8.50047C5.50308 8.32626 4.96796 8.13288 4.66156 7.91283C4.13871 7.54163 3.88615 6.96357 3.88615 6.20691C3.88615 5.51049 4.1321 4.92569 4.62373 4.46206C5.12073 3.99335 5.84015 3.76953 6.75968 3.76953C7.53657 3.76953 8.20594 3.9844 8.76048 4.41893C9.32852 4.85807 9.62083 5.49587 9.64766 6.313L9.65207 6.44727H7.96281L7.9557 6.3248C7.93212 5.91844 7.76568 5.6467 7.46283 5.48384C7.25437 5.37285 6.9882 5.31364 6.65807 5.31364C6.2912 5.31364 6.01371 5.39043 5.81333 5.53087C5.62017 5.66624 5.52517 5.84994 5.52517 6.09656C5.52517 6.31506 5.61395 6.46907 5.7989 6.57588L5.80069 6.57692C5.92649 6.65227 6.21707 6.75049 6.69406 6.86822L7.92326 7.17425C8.47112 7.31028 8.89838 7.49529 9.19352 7.73645C9.65562 8.11387 9.87999 8.65773 9.87999 9.34696C9.87999 10.0591 9.61446 10.6562 9.08676 11.1292C8.55864 11.602 7.82025 11.8295 6.89033 11.8295C5.94165 11.8295 5.1783 11.6057 4.61579 11.1428C4.05017 10.6737 3.77002 10.0295 3.77002 9.22658V9.09658H5.43637Z" fill="#041C39"/>
<path d="M45.5865 10.1839H49.5253C49.492 7.00131 46.9576 4.84912 43.0022 4.84912C39.1133 4.84912 36.313 6.96807 36.3379 10.134C36.3296 12.7183 38.1411 14.1725 41.0827 14.8456L42.861 15.2611C44.7306 15.6932 45.5699 16.2001 45.5865 17.1557C45.5699 18.1944 44.5977 18.9173 42.944 18.9173C41.1242 18.9173 39.9277 18.0697 39.8363 16.4327H35.8975C35.9473 20.413 38.7145 22.3159 42.9939 22.3159C47.2318 22.3159 49.7413 20.3964 49.7579 17.164C49.7413 14.4467 47.9049 12.7848 44.5478 12.0453L43.0853 11.7129C41.5397 11.3805 40.5592 10.8653 40.5924 9.85151C40.6007 8.92083 41.3985 8.24776 42.9939 8.24776C44.5977 8.24776 45.4785 8.97069 45.5865 10.1839Z" fill="#041C39"/>
<path d="M57.2083 22.3409C60.7981 22.3409 63.0251 20.2552 63.1331 17.0975H59.3356C59.186 18.452 58.3717 19.1915 57.2582 19.1915C55.8289 19.1915 54.8983 17.9866 54.8983 15.7181C54.8983 13.4662 55.8373 12.2613 57.2582 12.2613C58.4215 12.2613 59.1777 13.0507 59.3356 14.3553H63.1331C63.0417 11.2143 60.7482 9.17012 57.2 9.17012C53.1865 9.17012 50.7601 11.8458 50.7601 15.7596C50.7601 19.6569 53.1699 22.3409 57.2083 22.3409Z" fill="#041C39"/>
<path d="M68.2256 22.3159C70.0039 22.3159 71.2337 21.6262 71.9317 20.3216H72.0315V22.0999H75.8539V13.4246C75.8539 10.724 73.4524 9.17012 70.2033 9.17012C66.7715 9.17012 64.827 10.8985 64.5029 13.2252L68.2506 13.3582C68.4251 12.5438 69.0982 12.0453 70.1701 12.0453C71.1673 12.0453 71.7988 12.5272 71.7988 13.3831V13.4246C71.7988 14.2058 70.9512 14.3719 68.7741 14.5631C66.1898 14.7791 64.0293 15.7347 64.0293 18.56C64.0293 21.0861 65.7826 22.3159 68.2256 22.3159ZM69.4804 19.6569C68.5414 19.6569 67.8766 19.2081 67.8766 18.3606C67.8766 17.5379 68.5248 17.0393 69.6798 16.8648C70.436 16.7568 71.3667 16.5906 71.8237 16.3496V17.5628C71.8237 18.8093 70.7767 19.6569 69.4804 19.6569Z" fill="#041C39"/>
<path d="M81.8169 5.08179H77.7535V22.0999H81.8169V5.08179Z" fill="#041C39"/>
<path d="M89.7845 22.3409C93.1333 22.3409 95.3354 20.7205 95.8007 18.211L92.0697 18.103C91.7539 18.9505 90.923 19.4076 89.8593 19.4076C88.2971 19.4076 87.3332 18.3689 87.3332 16.8067V16.6986H95.8423V15.6849C95.8423 11.4802 93.2829 9.17012 89.6599 9.17012C85.8042 9.17012 83.328 11.8126 83.328 15.768C83.328 19.8563 85.771 22.3409 89.7845 22.3409ZM87.3332 14.3387C87.3914 13.0673 88.3968 12.1034 89.743 12.1034C91.0808 12.1034 92.0448 13.0341 92.0614 14.3387H87.3332Z" fill="#041C39"/>
<path d="M103.291 22.3409C107.304 22.3409 109.739 19.6901 109.739 15.7596C109.739 11.8209 107.304 9.17012 103.291 9.17012C99.277 9.17012 96.8423 11.8209 96.8423 15.7596C96.8423 19.6901 99.277 22.3409 103.291 22.3409ZM103.316 19.2746C101.811 19.2746 100.981 17.8454 100.981 15.7347C100.981 13.6158 101.811 12.1782 103.316 12.1782C104.77 12.1782 105.601 13.6158 105.601 15.7347C105.601 17.8454 104.77 19.2746 103.316 19.2746Z" fill="#041C39"/>
<path d="M119.47 16.5906C119.47 18.078 118.523 18.909 117.318 18.909C116.072 18.909 115.307 18.0614 115.299 16.6737V9.33631H111.235V17.4714C111.244 20.3549 112.997 22.2661 115.623 22.2661C117.534 22.2661 118.955 21.2855 119.52 19.7233H119.653V22.0999H123.525V9.33631H119.47V16.5906Z" fill="#041C39"/>
<path d="M132.731 9.33631H130.429V6.27838H126.366V9.33631H124.679V12.3278H126.366V18.5351C126.341 21.1194 128.02 22.4157 130.886 22.2827C131.867 22.2328 132.573 22.0334 132.964 21.9171L132.349 18.9838C132.174 19.0253 131.767 19.1084 131.46 19.1084C130.803 19.1084 130.429 18.8425 130.429 18.0863V12.3278H132.731V9.33631Z" fill="#041C39"/>
</svg>
