<?xml version="1.0" encoding="utf-8"?>
<!-- Generator: Adobe Illustrator 19.1.0, SVG Export Plug-In . SVG Version: 6.00 Build 0)  -->
<svg version="1.1" id="Layer_1" xmlns="http://www.w3.org/2000/svg" xmlns:xlink="http://www.w3.org/1999/xlink" x="0px" y="0px"
	 viewBox="0 0 219 66" style="enable-background:new 0 0 219 66;" xml:space="preserve">
<style type="text/css">
	.st0{fill:#AAABA9;}
	.st1{fill:#1B85BC;}
</style>
<g id="Layer_2">
	<g id="severalnines_logo_1_">
		<g id="Group-3_1_" transform="translate(0.000000, 21.000000)">
			<g id="Clip-2_1_">
			</g>
			<path id="Fill-1_1_" class="st0" d="M14.2,29.8c-4.1,0-7.3-0.9-10-3.5l2.4-2.4c1.9,2,4.5,2.8,7.5,2.8c4,0,6.5-1.4,6.5-4.3
				c0-2.1-1.2-3.3-4-3.5l-4-0.3C7.9,18.2,5.4,16,5.4,12c0-4.4,3.7-7,8.9-7c3.4,0,6.6,0.8,8.7,2.6l-2.3,2.3C19,8.6,16.8,8,14.2,8
				c-3.5,0-5.4,1.5-5.4,4c0,2.1,1.2,3.3,4.2,3.5l3.9,0.3c4.2,0.4,7.1,2,7.1,6.6C24.1,27.1,20.1,29.8,14.2,29.8"/>
		</g>
		<path id="Fill-4_1_" class="st0" d="M41.2,32.6c-0.9-2.2-3.1-3.6-5.7-3.6c-2.6,0-4.7,1.4-5.7,3.6c-0.5,1.3-0.6,2.1-0.7,4h12.8
			C41.8,34.7,41.7,33.9,41.2,32.6L41.2,32.6z M29.1,39.3c0,5.3,2.5,8.4,7.1,8.4c2.8,0,4.4-0.8,6.4-2.8L45,47
			c-2.5,2.5-4.7,3.7-8.9,3.7c-6.4,0-10.6-3.8-10.6-12.4c0-7.8,3.8-12.4,10-12.4c6.3,0,10,4.5,10,11.7v1.6L29.1,39.3L29.1,39.3z"/>
		<polyline id="Fill-5_1_" class="st0" points="56.5,50.5 53.3,50.5 44.4,26.2 48.3,26.2 54.9,45.7 61.5,26.2 65.4,26.2 56.5,50.5 
					"/>
		<path id="Fill-6_1_" class="st0" d="M79.7,32.6C78.8,30.4,76.6,29,74,29s-4.7,1.4-5.7,3.6c-0.5,1.3-0.6,2.1-0.7,4h12.8
			C80.4,34.7,80.3,33.9,79.7,32.6L79.7,32.6z M67.7,39.3c0,5.3,2.5,8.4,7.1,8.4c2.8,0,4.4-0.8,6.4-2.8l2.4,2.1
			c-2.5,2.5-4.7,3.7-8.9,3.7c-6.4,0-10.6-3.8-10.6-12.4c0-7.8,3.8-12.4,10-12.4c6.3,0,10,4.5,10,11.7v1.6H67.7V39.3z"/>
		<path id="Fill-7_1_" class="st0" d="M99.8,30.9c-1.3-1.3-2.3-1.8-4.2-1.8c-3.5,0-5.8,2.8-5.8,6.5v14.9h-3.5V26.2h3.5v3
			c1.3-2,4-3.3,6.8-3.3c2.3,0,4.1,0.5,5.8,2.3L99.8,30.9"/>
		<path id="Fill-8_1_" class="st0" d="M118.7,39.3h-6.8c-3.6,0-5.4,1.5-5.4,4.3s1.7,4.1,5.6,4.1c2.1,0,3.9-0.1,5.4-1.6
			c0.8-0.8,1.2-2.2,1.2-4.2L118.7,39.3L118.7,39.3z M118.7,50.5v-2.3c-2,2-3.7,2.6-7,2.6c-3.4,0-5.3-0.6-6.8-2.2
			c-1.2-1.2-1.8-3-1.8-4.9c0-4.2,3-7,8.4-7h7.3v-2.3c0-3.5-1.8-5.3-6.2-5.3c-3.1,0-4.7,0.7-6.1,2.8l-2.4-2.2
			c2.2-2.8,4.6-3.6,8.6-3.6c6.5,0,9.7,2.8,9.7,8.1v16.5h-3.7V50.5z"/>
		<path id="Fill-9_1_" class="st0" d="M130.3,50.5c-4.2,0-6.2-2.8-6.2-6.5V15.4h3.5v28.5c0,2.4,0.8,3.5,3.3,3.5h1.9v3.1H130.3"/>
		<path id="Fill-10_1_" class="st1" d="M151.1,50.5V35c0-3.5-2.2-4.7-4.2-4.7s-4.3,1.2-4.3,4.7v15.5h-6.4V24.8h6.3v2.4
			c1.7-1.8,4-2.7,6.4-2.7c2.6,0,4.6,0.8,6.1,2.3c2.1,2.1,2.6,4.5,2.6,7.3v16.4H151.1"/>
		<path id="Fill-11_1_" class="st1" d="M156.9,26.7c1.9,2.5,2.2,5.2,2.2,7.4v16.4h4.3V24.8H157v1.9"/>
		<polygon id="Fill-12_1_" class="st1" points="156.8,20.4 163.4,20.4 163.4,15.2 156.8,15.2 		"/>
		<path id="Fill-13_1_" class="st1" d="M181.3,26.8c-1.4-1.4-3.5-2.3-6.1-2.3c-2.4,0-4.7,0.9-6.4,2.7v-2.4h-3.9v25.7h4.1V35
			c0-3.5,2.3-4.7,4.3-4.7s4.2,1.2,4.2,4.7v15.5h6.4V34.1C183.9,31.3,183.4,28.9,181.3,26.8"/>
		<path id="Fill-14_1_" class="st1" d="M185.5,35.3c0-1.1,0.2-1.8,0.6-2.8c0.7-1.5,2.1-2.7,4.3-2.7s3.6,1.1,4.3,2.7
			c0.4,0.9,0.5,1.6,0.6,2.8H185.5L185.5,35.3z M201.6,36.8c0-7-4-12.3-11.2-12.3c-2.7,0-5.1,0.8-7,2.3c1.8,2.4,2.1,5.1,2.1,7.2v15.7
			c1.7,0.7,3.6,1,5.6,1c4.6,0,7.1-1.4,9.8-4L197,43c-1.6,1.6-3,2.4-5.8,2.4c-3.6,0-5.6-2.4-5.6-5.7h16.1L201.6,36.8L201.6,36.8z"/>
		<path id="Fill-15_1_" class="st1" d="M207.1,34.9l-4-0.4c0.1,0.7,0.1,1.5,0.1,2.3V40l2.6,0.2c2,0.2,2.7,1.1,2.7,2.4
			c0,1.9-2.3,2.7-4.5,2.7c-0.7,0-1.6,0-2.5-0.2l1.7,1.6l-1.1,1.1c-1,1-1.9,1.8-3.1,2.5c1.6,0.3,3.2,0.4,4.9,0.4
			c6.1,0,10.9-2.7,10.9-8.4C214.7,38.1,212.1,35.4,207.1,34.9"/>
		<path id="Fill-16_1_" class="st1" d="M201.9,30.2c0.5-0.2,1.3-0.4,2.1-0.4c2.2,0,4.5,0.4,6,1.7l3.9-4c-2.5-2.3-5.8-3-9.8-3
			c-2,0-3.9,0.4-5.5,1.2C200,26.9,201.1,28.4,201.9,30.2"/>
	</g>
</g>
</svg>
