<?xml version="1.0" encoding="UTF-8" standalone="no"?>
<svg width="249px" height="66px" viewBox="0 0 249 66" version="1.1" xmlns="http://www.w3.org/2000/svg" xmlns:xlink="http://www.w3.org/1999/xlink">
    <!-- Generator: Sketch 48.1 (47250) - http://www.bohemiancoding.com/sketch -->
    <title>Black-Blue-Text</title>
    <desc>Created with Sketch.</desc>
    <defs></defs>
    <g id="A4" stroke="none" stroke-width="1" fill="none" fill-rule="evenodd" transform="translate(-86.000000, -94.000000)">
        <g id="Black-Blue-Text" transform="translate(86.000000, 94.000000)">
            <g id="Group-2" fill="#000000">
                <path d="M7.94117647,32.1176471 C7.94117647,33.0196124 8.12744912,33.7941144 8.5,34.4411765 C8.87255088,35.0882385 9.35293824,35.617645 9.94117647,36.0294118 C10.5294147,36.4411785 11.2058785,36.7450971 11.9705882,36.9411765 C12.7352979,37.1372559 13.5294076,37.2352941 14.3529412,37.2352941 C14.9411794,37.2352941 15.5588203,37.1666674 16.2058824,37.0294118 C16.8529444,36.8921562 17.4411738,36.6764721 17.9705882,36.3823529 C18.5000026,36.0882338 18.9411747,35.6960809 19.2941176,35.2058824 C19.6470606,34.7156838 19.8235294,34.0980429 19.8235294,33.3529412 C19.8235294,32.0980329 18.9902044,31.1568659 17.3235294,30.5294118 C15.6568544,29.9019576 13.3333482,29.2745129 10.3529412,28.6470588 C9.13724882,28.3725476 7.95098618,28.0490215 6.79411765,27.6764706 C5.63724912,27.3039197 4.60784765,26.8137285 3.70588235,26.2058824 C2.80391706,25.5980362 2.07843412,24.8333379 1.52941176,23.9117647 C0.980389412,22.9901915 0.705882353,21.8627518 0.705882353,20.5294118 C0.705882353,18.5686176 1.08823147,16.9607906 1.85294118,15.7058824 C2.61765088,14.4509741 3.62744471,13.4607879 4.88235294,12.7352941 C6.13726118,12.0098003 7.54901176,11.5000015 9.11764706,11.2058824 C10.6862824,10.9117632 12.2941094,10.7647059 13.9411765,10.7647059 C15.5882435,10.7647059 17.1862668,10.9215671 18.7352941,11.2352941 C20.2843215,11.5490212 21.6666606,12.0784276 22.8823529,12.8235294 C24.0980453,13.5686312 25.1078391,14.5588174 25.9117647,15.7941176 C26.7156903,17.0294179 27.1960776,18.5882259 27.3529412,20.4705882 L19.4117647,20.4705882 C19.2941171,18.8627371 18.68628,17.7745126 17.5882353,17.2058824 C16.4901906,16.6372521 15.1960859,16.3529412 13.7058824,16.3529412 C13.2352918,16.3529412 12.7254929,16.3823526 12.1764706,16.4411765 C11.6274482,16.5000003 11.1274532,16.62745 10.6764706,16.8235294 C10.2254879,17.0196088 9.84313882,17.3039197 9.52941176,17.6764706 C9.21568471,18.0490215 9.05882353,18.5490165 9.05882353,19.1764706 C9.05882353,19.9215724 9.33333059,20.5294094 9.88235294,21 C10.4313753,21.4705906 11.1470544,21.8529397 12.0294118,22.1470588 C12.9117691,22.4411779 13.9215629,22.7058812 15.0588235,22.9411765 C16.1960841,23.1764718 17.3529353,23.4313712 18.5294118,23.7058824 C19.7451041,23.9803935 20.9313668,24.3137235 22.0882353,24.7058824 C23.2451038,25.0980412 24.2745053,25.6176438 25.1764706,26.2647059 C26.0784359,26.9117679 26.8039188,27.7156815 27.3529412,28.6764706 C27.9019635,29.6372597 28.1764706,30.8235224 28.1764706,32.2352941 C28.1764706,34.2353041 27.7745138,35.9117579 26.9705882,37.2647059 C26.1666626,38.6176538 25.1176535,39.7058782 23.8235294,40.5294118 C22.5294053,41.3529453 21.0490279,41.9313709 19.3823529,42.2647059 C17.7156779,42.5980409 16.0196165,42.7647059 14.2941176,42.7647059 C12.5294029,42.7647059 10.80393,42.5882371 9.11764706,42.2352941 C7.43136412,41.8823512 5.93137912,41.2941218 4.61764706,40.4705882 C3.303915,39.6470547 2.22549441,38.5588303 1.38235294,37.2058824 C0.539211471,35.8529344 0.0784317647,34.1568729 0,32.1176471 L7.94117647,32.1176471 Z M55.2352941,22.2941176 C54.6862718,18.8039041 52.6274688,17.0588235 49.0588235,17.0588235 C47.7254835,17.0588235 46.6078476,17.3627421 45.7058824,17.9705882 C44.8039171,18.5784344 44.0686303,19.3627403 43.5,20.3235294 C42.9313697,21.2843185 42.5294129,22.3431315 42.2941176,23.5 C42.0588224,24.6568685 41.9411765,25.8039159 41.9411765,26.9411765 C41.9411765,28.0392212 42.0588224,29.1568571 42.2941176,30.2941176 C42.5294129,31.4313782 42.9117621,32.4607797 43.4411765,33.3823529 C43.9705909,34.3039262 44.68627,35.0588206 45.5882353,35.6470588 C46.4902006,36.2352971 47.5882288,36.5294118 48.8823529,36.5294118 C50.8823629,36.5294118 52.4215632,35.9705938 53.5,34.8529412 C54.5784368,33.7352885 55.2549006,32.2353035 55.5294118,30.3529412 L63.5882353,30.3529412 C63.0392129,34.3921771 61.4706012,37.4705776 58.8823529,39.5882353 C56.2941047,41.7058929 52.9804124,42.7647059 48.9411765,42.7647059 C46.6666553,42.7647059 44.5784409,42.3823568 42.6764706,41.6176471 C40.7745003,40.8529374 39.1568694,39.7843206 37.8235294,38.4117647 C36.4901894,37.0392088 35.4509841,35.4019703 34.7058824,33.5 C33.9607806,31.5980297 33.5882353,29.5098153 33.5882353,27.2352941 C33.5882353,24.8823412 33.9313691,22.6960885 34.6176471,20.6764706 C35.303925,18.6568526 36.3137188,16.9117721 37.6470588,15.4411765 C38.9803988,13.9705809 40.6078335,12.8235335 42.5294118,12 C44.45099,11.1764665 46.6470465,10.7647059 49.1176471,10.7647059 C50.9215776,10.7647059 52.6568544,10.9999976 54.3235294,11.4705882 C55.9902044,11.9411788 57.4803856,12.6568579 58.7941176,13.6176471 C60.1078497,14.5784362 61.1764665,15.7745026 62,17.2058824 C62.8235335,18.6372621 63.2941171,20.3333235 63.4117647,22.2941176 L55.2352941,22.2941176 Z M69.4117647,20.9411765 C69.5294124,18.9803824 70.0196035,17.3529476 70.8823529,16.0588235 C71.7451024,14.7646994 72.8431306,13.7254941 74.1764706,12.9411765 C75.5098106,12.1568588 77.0097956,11.5980409 78.6764706,11.2647059 C80.3431456,10.9313709 82.0195994,10.7647059 83.7058824,10.7647059 C85.2353018,10.7647059 86.7843059,10.8725479 88.3529412,11.0882353 C89.9215765,11.3039226 91.3529347,11.7254871 92.6470588,12.3529412 C93.9411829,12.9803953 94.9999959,13.8529356 95.8235294,14.9705882 C96.6470629,16.0882409 97.0588235,17.5686182 97.0588235,19.4117647 L97.0588235,35.2352941 C97.0588235,36.60785 97.1372541,37.9215624 97.2941176,39.1764706 C97.4509812,40.4313788 97.7254882,41.3725459 98.1176471,42 L89.6470588,42 C89.4901953,41.5294094 89.3627456,41.0490221 89.2647059,40.5588235 C89.1666662,40.068625 89.0980394,39.56863 89.0588235,39.0588235 C87.7254835,40.4313794 86.1568718,41.3921541 84.3529412,41.9411765 C82.5490106,42.4901988 80.7058918,42.7647059 78.8235294,42.7647059 C77.3725418,42.7647059 76.0196141,42.5882371 74.7647059,42.2352941 C73.5097976,41.8823512 72.4117694,41.3333371 71.4705882,40.5882353 C70.5294071,39.8431335 69.7941203,38.9019665 69.2647059,37.7647059 C68.7352915,36.6274453 68.4705882,35.2745176 68.4705882,33.7058824 C68.4705882,31.9803835 68.7745068,30.5588291 69.3823529,29.4411765 C69.9901991,28.3235238 70.774505,27.4313759 71.7352941,26.7647059 C72.6960832,26.0980359 73.7941115,25.5980409 75.0294118,25.2647059 C76.2647121,24.9313709 77.5097976,24.6666676 78.7647059,24.4705882 C80.0196141,24.2745088 81.2548959,24.1176476 82.4705882,24 C83.6862806,23.8823524 84.7647012,23.7058835 85.7058824,23.4705882 C86.6470635,23.2352929 87.3921541,22.8921591 87.9411765,22.4411765 C88.4901988,21.9901938 88.7450982,21.3333376 88.7058824,20.4705882 C88.7058824,19.5686229 88.558825,18.8529438 88.2647059,18.3235294 C87.9705868,17.794115 87.5784338,17.3823544 87.0882353,17.0882353 C86.5980368,16.7941162 86.029415,16.5980397 85.3823529,16.5 C84.7352909,16.4019603 84.0392194,16.3529412 83.2941176,16.3529412 C81.6470506,16.3529412 80.3529459,16.7058788 79.4117647,17.4117647 C78.4705835,18.1176506 77.9215694,19.2941094 77.7647059,20.9411765 L69.4117647,20.9411765 Z M88.7058824,27.1176471 C88.3529394,27.4313741 87.9117674,27.6764697 87.3823529,27.8529412 C86.8529385,28.0294126 86.2843168,28.17647 85.6764706,28.2941176 C85.0686244,28.4117653 84.4313759,28.5098035 83.7647059,28.5882353 C83.0980359,28.6666671 82.4313759,28.7647053 81.7647059,28.8823529 C81.1372518,29.0000006 80.5196109,29.1568618 79.9117647,29.3529412 C79.3039185,29.5490206 78.7745121,29.8137238 78.3235294,30.1470588 C77.8725468,30.4803938 77.5098053,30.9019582 77.2352941,31.4117647 C76.9607829,31.9215712 76.8235294,32.5686235 76.8235294,33.3529412 C76.8235294,34.0980429 76.9607829,34.7254876 77.2352941,35.2352941 C77.5098053,35.7451006 77.8823506,36.1470574 78.3529412,36.4411765 C78.8235318,36.7352956 79.3725459,36.9411759 80,37.0588235 C80.6274541,37.1764712 81.2745065,37.2352941 81.9411765,37.2352941 C83.5882435,37.2352941 84.8627406,36.9607871 85.7647059,36.4117647 C86.6666712,35.8627424 87.3333312,35.2058862 87.7647059,34.4411765 C88.1960806,33.6764668 88.4607838,32.9019647 88.5588235,32.1176471 C88.6568632,31.3333294 88.7058824,30.7058847 88.7058824,30.2352941 L88.7058824,27.1176471 Z M105.235294,0 L113.588235,0 L113.588235,42 L105.235294,42 L105.235294,0 Z M142.117647,23.5294118 C141.725488,21.4117541 141.029417,19.8039271 140.029412,18.7058824 C139.029407,17.6078376 137.509814,17.0588235 135.470588,17.0588235 C134.137248,17.0588235 133.029416,17.2843115 132.147059,17.7352941 C131.264701,18.1862768 130.558826,18.7450947 130.029412,19.4117647 C129.499997,20.0784347 129.127452,20.78431 128.911765,21.5294118 C128.696077,22.2745135 128.568628,22.9411735 128.529412,23.5294118 L142.117647,23.5294118 Z M128.529412,28.8235294 C128.647059,31.5294253 129.333327,33.49019 130.588235,34.7058824 C131.843144,35.9215747 133.647047,36.5294118 136,36.5294118 C137.686283,36.5294118 139.137249,36.1078474 140.352941,35.2647059 C141.568634,34.4215644 142.313724,33.5294165 142.588235,32.5882353 L149.941176,32.5882353 C148.7647,36.2353124 146.960796,38.8431294 144.529412,40.4117647 C142.098027,41.9804 139.15688,42.7647059 135.705882,42.7647059 C133.313714,42.7647059 131.156872,42.3823568 129.235294,41.6176471 C127.313716,40.8529374 125.686281,39.7647129 124.352941,38.3529412 C123.019601,36.9411694 121.9902,35.2549118 121.264706,33.2941176 C120.539212,31.3333235 120.176471,29.1764824 120.176471,26.8235294 C120.176471,24.5490082 120.549016,22.4313824 121.294118,20.4705882 C122.039219,18.5097941 123.098032,16.8137326 124.470588,15.3823529 C125.843144,13.9509732 127.480383,12.8235335 129.382353,12 C131.284323,11.1764665 133.392145,10.7647059 135.705882,10.7647059 C138.294131,10.7647059 140.54901,11.2647009 142.470588,12.2647059 C144.392166,13.2647109 145.970582,14.6078347 147.205882,16.2941176 C148.441183,17.9804006 149.333331,19.90195 149.882353,22.0588235 C150.431375,24.2156971 150.627452,26.4705765 150.470588,28.8235294 L128.529412,28.8235294 Z M224.294118,42 L216.352941,42 L216.352941,37.7647059 L216.176471,37.7647059 C215.117642,39.5294206 213.745106,40.8039176 212.058824,41.5882353 C210.372541,42.3725529 208.647068,42.7647059 206.882353,42.7647059 C204.647048,42.7647059 202.813733,42.4705912 201.382353,41.8823529 C199.950973,41.2941147 198.823534,40.4607897 198,39.3823529 C197.176466,38.3039162 196.598041,36.9902038 196.264706,35.4411765 C195.931371,33.8921491 195.764706,32.17648 195.764706,30.2941176 L195.764706,11.5882353 L204.117647,11.5882353 L204.117647,28.7647059 C204.117647,31.2745224 204.5098,33.1470526 205.294118,34.3823529 C206.078435,35.6176532 207.470578,36.2352941 209.470588,36.2352941 C211.745109,36.2352941 213.392152,35.5588303 214.411765,34.2058824 C215.431378,32.8529344 215.941176,30.6274665 215.941176,27.5294118 L215.941176,11.5882353 L224.294118,11.5882353 L224.294118,42 Z M242.705882,11.5882353 L248.823529,11.5882353 L248.823529,17.1764706 L242.705882,17.1764706 L242.705882,32.2352941 C242.705882,33.6470659 242.941174,34.5882329 243.411765,35.0588235 C243.882355,35.5294141 244.823522,35.7647059 246.235294,35.7647059 C246.705885,35.7647059 247.156861,35.7450982 247.588235,35.7058824 C248.01961,35.6666665 248.431371,35.6078435 248.823529,35.5294118 L248.823529,42 C248.117644,42.1176476 247.333338,42.1960782 246.470588,42.2352941 C245.607839,42.27451 244.76471,42.2941176 243.941176,42.2941176 C242.647052,42.2941176 241.421574,42.2058832 240.264706,42.0294118 C239.107837,41.8529403 238.08824,41.5098065 237.205882,41 C236.323525,40.4901935 235.627454,39.7647106 235.117647,38.8235294 C234.607841,37.8823482 234.352941,36.6470665 234.352941,35.1176471 L234.352941,17.1764706 L229.294118,17.1764706 L229.294118,11.5882353 L234.352941,11.5882353 L234.352941,2.47058824 L242.705882,2.47058824 L242.705882,11.5882353 Z" id="Scaleout"></path>
                <path d="M61.3000008,59.8058824 C61.3000008,60.3686303 61.3960783,60.8490176 61.5882361,61.2470588 C61.780394,61.6451 62.0480383,61.9710772 62.3911773,62.225 C62.7343163,62.4789228 63.1289202,62.6642151 63.5750008,62.7808824 C64.0210815,62.8975496 64.5049002,62.9558824 65.0264714,62.9558824 C65.5892193,62.9558824 66.0696067,62.8906869 66.4676479,62.7602941 C66.8656891,62.6299013 67.1882349,62.4617657 67.435295,62.2558824 C67.682355,62.049999 67.8607846,61.8132366 67.9705891,61.5455882 C68.0803935,61.2779398 68.135295,61.0068641 68.135295,60.7323529 C68.135295,60.169605 68.0083354,59.7544131 67.7544126,59.4867647 C67.5004898,59.2191163 67.2225514,59.0303927 66.9205891,58.9205882 C66.3990178,58.7284304 65.791671,58.5465695 65.0985303,58.375 C64.4053895,58.2034305 63.5509863,57.9803935 62.535295,57.7058824 C61.9039193,57.5411756 61.3789245,57.3250013 60.960295,57.0573529 C60.5416654,56.7897045 60.2088256,56.4911781 59.9617655,56.1617647 C59.7147055,55.8323513 59.5397072,55.4823548 59.4367655,55.1117647 C59.3338239,54.7411746 59.2823538,54.3637274 59.2823538,53.9794118 C59.2823538,53.2382316 59.436764,52.5965713 59.7455891,52.0544118 C60.0544142,51.5122522 60.4627434,51.0627469 60.9705891,50.7058824 C61.4784348,50.3490178 62.0548996,50.0848048 62.7000008,49.9132353 C63.3451021,49.7416658 63.9970564,49.6558824 64.6558832,49.6558824 C65.4245145,49.6558824 66.1485269,49.7553912 66.827942,49.9544118 C67.5073572,50.1534324 68.10441,50.4519588 68.6191185,50.85 C69.1338269,51.2480412 69.5421562,51.7387226 69.8441185,52.3220588 C70.1460808,52.9053951 70.2970597,53.5813687 70.2970597,54.35 L67.7235303,54.35 C67.6549025,53.4029364 67.3323567,52.7338255 66.7558832,52.3426471 C66.1794097,51.9514686 65.4451033,51.7558824 64.552942,51.7558824 C64.2509797,51.7558824 63.9421593,51.7867644 63.6264714,51.8485294 C63.3107836,51.9102944 63.0225512,52.0132346 62.7617655,52.1573529 C62.5009799,52.3014713 62.2848056,52.4970576 62.1132361,52.7441176 C61.9416667,52.9911777 61.8558832,53.2999981 61.8558832,53.6705882 C61.8558832,54.1921595 62.0171561,54.6004887 62.3397067,54.8955882 C62.6622574,55.1906877 63.084312,55.4137247 63.6058832,55.5647059 C63.6607854,55.5784314 63.8769597,55.6367642 64.2544126,55.7397059 C64.6318655,55.8426476 65.0539201,55.9558817 65.5205891,56.0794118 C65.9872581,56.2029418 66.4436261,56.3230386 66.8897067,56.4397059 C67.3357874,56.5563731 67.6549018,56.6421566 67.8470597,56.6970588 C68.3274542,56.84804 68.7460775,57.0539203 69.102942,57.3147059 C69.4598065,57.5754915 69.758333,57.8740179 69.9985303,58.2102941 C70.2387275,58.5465703 70.4171571,58.9068608 70.5338244,59.2911765 C70.6504916,59.6754921 70.7088244,60.059802 70.7088244,60.4441176 C70.7088244,61.2676512 70.5406888,61.9710755 70.2044126,62.5544118 C69.8681364,63.137748 69.4254938,63.614704 68.8764714,63.9852941 C68.3274491,64.3558842 67.7029455,64.6269599 67.002942,64.7985294 C66.3029385,64.9700989 65.5892202,65.0558824 64.8617655,65.0558824 C64.0245065,65.0558824 63.2352987,64.9529422 62.4941185,64.7470588 C61.7529383,64.5411754 61.1078467,64.2254923 60.5588244,63.8 C60.009802,63.3745077 59.5705907,62.8289249 59.2411773,62.1632353 C58.9117639,61.4975457 58.740197,60.7117692 58.7264714,59.8058824 L61.3000008,59.8058824 Z M82.9588241,58.9411765 L77.441177,50.0058824 L80.4264711,50.0058824 L84.3176476,56.5941176 L88.1470594,50.0058824 L91.0294123,50.0058824 L85.5323535,58.9411765 L85.5323535,64.7058824 L82.9588241,64.7058824 L82.9588241,58.9411765 Z M100.335294,59.8058824 C100.335294,60.3686303 100.431372,60.8490176 100.62353,61.2470588 C100.815688,61.6451 101.083332,61.9710772 101.426471,62.225 C101.76961,62.4789228 102.164214,62.6642151 102.610294,62.7808824 C103.056375,62.8975496 103.540194,62.9558824 104.061765,62.9558824 C104.624513,62.9558824 105.1049,62.8906869 105.502941,62.7602941 C105.900983,62.6299013 106.223528,62.4617657 106.470589,62.2558824 C106.717649,62.049999 106.896078,61.8132366 107.005883,61.5455882 C107.115687,61.2779398 107.170589,61.0068641 107.170589,60.7323529 C107.170589,60.169605 107.043629,59.7544131 106.789706,59.4867647 C106.535783,59.2191163 106.257845,59.0303927 105.955883,58.9205882 C105.434311,58.7284304 104.826965,58.5465695 104.133824,58.375 C103.440683,58.2034305 102.58628,57.9803935 101.570589,57.7058824 C100.939213,57.5411756 100.414218,57.3250013 99.9955885,57.0573529 C99.576959,56.7897045 99.2441192,56.4911781 98.9970591,56.1617647 C98.749999,55.8323513 98.5750008,55.4823548 98.4720591,55.1117647 C98.3691174,54.7411746 98.3176473,54.3637274 98.3176473,53.9794118 C98.3176473,53.2382316 98.4720576,52.5965713 98.7808826,52.0544118 C99.0897077,51.5122522 99.498037,51.0627469 100.005883,50.7058824 C100.513728,50.3490178 101.090193,50.0848048 101.735294,49.9132353 C102.380396,49.7416658 103.03235,49.6558824 103.691177,49.6558824 C104.459808,49.6558824 105.18382,49.7553912 105.863236,49.9544118 C106.542651,50.1534324 107.139704,50.4519588 107.654412,50.85 C108.169121,51.2480412 108.57745,51.7387226 108.879412,52.3220588 C109.181374,52.9053951 109.332353,53.5813687 109.332353,54.35 L106.758824,54.35 C106.690196,53.4029364 106.36765,52.7338255 105.791177,52.3426471 C105.214703,51.9514686 104.480397,51.7558824 103.588236,51.7558824 C103.286273,51.7558824 102.977453,51.7867644 102.661765,51.8485294 C102.346077,51.9102944 102.057845,52.0132346 101.797059,52.1573529 C101.536273,52.3014713 101.320099,52.4970576 101.14853,52.7441176 C100.97696,52.9911777 100.891177,53.2999981 100.891177,53.6705882 C100.891177,54.1921595 101.05245,54.6004887 101.375,54.8955882 C101.697551,55.1906877 102.119606,55.4137247 102.641177,55.5647059 C102.696079,55.5784314 102.912253,55.6367642 103.289706,55.7397059 C103.667159,55.8426476 104.089214,55.9558817 104.555883,56.0794118 C105.022552,56.2029418 105.47892,56.3230386 105.925,56.4397059 C106.371081,56.5563731 106.690195,56.6421566 106.882353,56.6970588 C107.362748,56.84804 107.781371,57.0539203 108.138236,57.3147059 C108.4951,57.5754915 108.793627,57.8740179 109.033824,58.2102941 C109.274021,58.5465703 109.452451,58.9068608 109.569118,59.2911765 C109.685785,59.6754921 109.744118,60.059802 109.744118,60.4441176 C109.744118,61.2676512 109.575982,61.9710755 109.239706,62.5544118 C108.90343,63.137748 108.460787,63.614704 107.911765,63.9852941 C107.362743,64.3558842 106.738239,64.6269599 106.038236,64.7985294 C105.338232,64.9700989 104.624514,65.0558824 103.897059,65.0558824 C103.0598,65.0558824 102.270592,64.9529422 101.529412,64.7470588 C100.788232,64.5411754 100.14314,64.2254923 99.5941179,63.8 C99.0450956,63.3745077 98.6058843,62.8289249 98.2764709,62.1632353 C97.9470575,61.4975457 97.7754905,60.7117692 97.761765,59.8058824 L100.335294,59.8058824 Z M116.764706,50.0058824 L128.664706,50.0058824 L128.664706,52.2294118 L123.991176,52.2294118 L123.991176,64.7058824 L121.417647,64.7058824 L121.417647,52.2294118 L116.764706,52.2294118 L116.764706,50.0058824 Z M136.55,50.0058824 L147.132353,50.0058824 L147.132353,52.2294118 L139.123529,52.2294118 L139.123529,56.0794118 L146.535294,56.0794118 L146.535294,58.1794118 L139.123529,58.1794118 L139.123529,62.4823529 L147.27647,62.4823529 L147.27647,64.7058824 L136.55,64.7058824 L136.55,50.0058824 Z M155.655882,50.0058824 L159.279411,50.0058824 L163.335294,61.5147059 L163.37647,61.5147059 L167.329411,50.0058824 L170.911764,50.0058824 L170.911764,64.7058824 L168.461764,64.7058824 L168.461764,53.3617647 L168.420588,53.3617647 L164.344117,64.7058824 L162.223529,64.7058824 L158.147058,53.3617647 L158.105882,53.3617647 L158.105882,64.7058824 L155.655882,64.7058824 L155.655882,50.0058824 Z M181.864705,59.8058824 C181.864705,60.3686303 181.960783,60.8490176 182.15294,61.2470588 C182.345098,61.6451 182.612743,61.9710772 182.955882,62.225 C183.29902,62.4789228 183.693624,62.6642151 184.139705,62.7808824 C184.585786,62.8975496 185.069604,62.9558824 185.591176,62.9558824 C186.153924,62.9558824 186.634311,62.8906869 187.032352,62.7602941 C187.430393,62.6299013 187.752939,62.4617657 187.999999,62.2558824 C188.247059,62.049999 188.425489,61.8132366 188.535293,61.5455882 C188.645098,61.2779398 188.699999,61.0068641 188.699999,60.7323529 C188.699999,60.169605 188.57304,59.7544131 188.319117,59.4867647 C188.065194,59.2191163 187.787256,59.0303927 187.485293,58.9205882 C186.963722,58.7284304 186.356375,58.5465695 185.663234,58.375 C184.970094,58.2034305 184.115691,57.9803935 183.099999,57.7058824 C182.468623,57.5411756 181.943629,57.3250013 181.524999,57.0573529 C181.10637,56.7897045 180.77353,56.4911781 180.52647,56.1617647 C180.27941,55.8323513 180.104411,55.4823548 180.00147,55.1117647 C179.898528,54.7411746 179.847058,54.3637274 179.847058,53.9794118 C179.847058,53.2382316 180.001468,52.5965713 180.310293,52.0544118 C180.619118,51.5122522 181.027448,51.0627469 181.535293,50.7058824 C182.043139,50.3490178 182.619604,50.0848048 183.264705,49.9132353 C183.909806,49.7416658 184.561761,49.6558824 185.220587,49.6558824 C185.989219,49.6558824 186.713231,49.7553912 187.392646,49.9544118 C188.072061,50.1534324 188.669114,50.4519588 189.183823,50.85 C189.698531,51.2480412 190.10686,51.7387226 190.408823,52.3220588 C190.710785,52.9053951 190.861764,53.5813687 190.861764,54.35 L188.288234,54.35 C188.219607,53.4029364 187.897061,52.7338255 187.320587,52.3426471 C186.744114,51.9514686 186.009808,51.7558824 185.117646,51.7558824 C184.815684,51.7558824 184.506863,51.7867644 184.191176,51.8485294 C183.875488,51.9102944 183.587255,52.0132346 183.32647,52.1573529 C183.065684,52.3014713 182.84951,52.4970576 182.67794,52.7441176 C182.506371,52.9911777 182.420587,53.2999981 182.420587,53.6705882 C182.420587,54.1921595 182.58186,54.6004887 182.904411,54.8955882 C183.226962,55.1906877 183.649016,55.4137247 184.170587,55.5647059 C184.22549,55.5784314 184.441664,55.6367642 184.819117,55.7397059 C185.19657,55.8426476 185.618624,55.9558817 186.085293,56.0794118 C186.551962,56.2029418 187.00833,56.3230386 187.454411,56.4397059 C187.900492,56.5563731 188.219606,56.6421566 188.411764,56.6970588 C188.892158,56.84804 189.310782,57.0539203 189.667646,57.3147059 C190.024511,57.5754915 190.323037,57.8740179 190.563234,58.2102941 C190.803432,58.5465703 190.981861,58.9068608 191.098529,59.2911765 C191.215196,59.6754921 191.273529,60.059802 191.273529,60.4441176 C191.273529,61.2676512 191.105393,61.9710755 190.769117,62.5544118 C190.432841,63.137748 189.990198,63.614704 189.441176,63.9852941 C188.892153,64.3558842 188.26765,64.6269599 187.567646,64.7985294 C186.867643,64.9700989 186.153924,65.0558824 185.42647,65.0558824 C184.589211,65.0558824 183.800003,64.9529422 183.058823,64.7470588 C182.317643,64.5411754 181.672551,64.2254923 181.123529,63.8 C180.574506,63.3745077 180.135295,62.8289249 179.805882,62.1632353 C179.476468,61.4975457 179.304901,60.7117692 179.291176,59.8058824 L181.864705,59.8058824 Z" id="SYSTEMS"></path>
            </g>
            <g id="cogwheel" transform="translate(154.411765, 7.352941)">
                <path d="M36.2604827,16.1176299 C36.5521595,16.1715562 36.7647777,16.4252465 36.7647059,16.7220204 L36.7647059,20.0431163 C36.7647059,20.3396748 36.5514414,20.5940114 36.2591902,20.6460707 L33.1997431,21.1907904 L33.0490219,21.7563339 C32.9019628,22.3059364 32.8063887,22.6643916 32.6115067,23.381302 L34.9552613,25.365946 C35.1813072,25.5577396 35.2376751,25.8830923 35.0900415,26.1398702 L33.4356265,29.0075117 C33.2873467,29.2642179 32.9748461,29.3781739 32.6972433,29.2777174 L29.8093413,28.2384702 L28.202103,29.8462767 L29.2413542,32.7335212 C29.3412366,33.0123436 29.2279264,33.3236223 28.9711474,33.4719015 L26.0973913,35.1324136 C25.8394634,35.2806928 25.5134632,35.2224582 25.3228895,34.9969876 L23.3436951,32.6532422 L21.1476458,33.242697 L20.6034984,36.2610591 C20.5502182,36.5520885 20.2959524,36.7647059 19.9999672,36.7647059 L16.6850337,36.7647059 C16.3884741,36.7647059 16.1347828,36.5520885 16.082077,36.2610591 L15.5385758,33.242697 L13.3425266,32.6532422 L11.3633322,34.9969876 C11.1715378,35.2231045 10.8455376,35.2801184 10.5881842,35.1324136 L7.71442798,33.4719015 C7.45829524,33.3236223 7.34433879,33.0123436 7.44479567,32.7335212 L8.4852676,29.8419684 L6.91544032,28.2402654 L4.03184668,29.2776456 C3.75366944,29.3781739 3.44238953,29.2641461 3.29346346,29.0074399 L1.63904847,26.1397984 C1.49141491,25.8830204 1.54778278,25.5576678 1.77325427,25.3658742 L4.11270047,23.3799377 L3.5287724,21.1900005 L0.504869437,20.6458552 C0.212618177,20.5931497 0,20.3394594 0,20.0429009 L0,16.721805 C0,16.425821 0.212043727,16.1721306 0.503074282,16.1188506 L3.49696225,15.5753516 L4.08153658,13.3841938 L1.74266482,11.3982573 C1.51654708,11.2064636 1.46075366,10.881111 1.60845902,10.6249792 L3.26287402,7.75733779 C3.41057938,7.5005598 3.72121303,7.38725005 4.00003653,7.48648584 L6.88793854,8.5196295 L8.48476496,6.91792652 L7.45657189,4.02881509 C7.35726391,3.74999268 7.47129216,3.44058094 7.72677864,3.29287615 L10.6005348,1.63236411 C10.8573138,1.48351043 11.1838885,1.54109878 11.3756828,1.76779009 L13.3548773,4.11153551 L15.5509265,3.52265511 L16.0944277,0.504867465 C16.1471334,0.212617347 16.4008248,0 16.6973844,0 L20.0123179,0 C20.3082313,0 20.5625689,0.212617347 20.6152746,0.504221212 L21.1594221,3.52200886 L23.3548968,4.11088926 L25.3346657,1.76714384 C25.5258139,1.54109878 25.8530347,1.48286418 26.1091675,1.63236411 L28.9823492,3.29287615 C29.2372612,3.43993469 29.3517921,3.74812572 29.2537767,4.02572743 L28.242099,6.91483886 L29.8517788,8.51970131 L32.7402552,7.4859832 C33.0172118,7.38610115 33.3297124,7.50005716 33.4774177,7.7561889 L35.1318327,10.6238304 C35.2795381,10.8806083 35.2231702,11.2066072 34.9970525,11.3977546 L32.6539442,13.3823986 C32.8383425,14.0606774 32.9333421,14.4185581 33.0681224,14.9222049 L33.2421088,15.5741309 L36.2604827,16.1176299 Z M18.3823532,27.9977381 C23.6927836,27.9977381 27.9977381,23.6927836 27.9977381,18.3823532 C27.9977381,13.0719228 23.6927836,8.76696833 18.3823532,8.76696833 C13.0719228,8.76696833 8.76696833,13.0719228 8.76696833,18.3823532 C8.76696833,23.6927836 13.0719228,27.9977381 18.3823532,27.9977381 Z" id="Shape" fill="#216FC9" fill-rule="nonzero"></path>
                <circle id="Oval" fill="#000000" cx="18.3823529" cy="18.3823529" r="5.14705882"></circle>
            </g>
        </g>
    </g>
</svg>
