<svg xmlns="http://www.w3.org/2000/svg" width="90" height="90" viewBox="0 0 90 90"><g id="elastisys" transform="translate(-145 -385)"><path id="Rectangle_513" fill="#e7eff3" d="M0 0h90v90H0z" transform="translate(145 385)"/><g id="Lager_1-2" transform="translate(173.138 417.534)"><path id="Path_6283" fill="#3d516e" d="M1.35 316.24q.1-.62.83-.6c.3 0 .56.11.56.37s-.09.39-.4.49l-1.07.37zm-.23 1.82v-.12l1.3-.44c.88-.3 1.37-.66 1.37-1.57 0-.74-.58-1.24-1.52-1.24a1.85 1.85 0 0 0-2.01 1.47l-.23 1.63-.03.39c0 .76.5 1.24 1.59 1.24h1.5l.14-.97h-1.5q-.62 0-.62-.4Zm5.14-5.13h-1.8l-.14.96H5l-.63 4.56h-.79l-.14.97h2.7l.13-.97H5.5zM20 312.8h-1.12l-.17 1.21h1.12zm-.27 1.9h-1.8l-.15.95h.7l-.4 2.8h-.78l-.14.97h2.7l.14-.97h-.8zm2.82 0c-1.07 0-1.93.47-1.93 1.4 0 1.38 1.88 1.2 1.88 1.9 0 .4-.4.45-.73.45h-1.43l-.13.97h1.46c1.25 0 2-.63 2-1.55 0-1.41-1.9-1.29-1.9-1.9q0-.31.69-.32h1.27l.14-.96zm-9.82 0c-1.07 0-1.93.47-1.93 1.41 0 1.37 1.88 1.2 1.88 1.9 0 .4-.4.44-.73.45H10.5l-.14.96h1.47c1.25 0 2-.62 2-1.55 0-1.4-1.9-1.29-1.9-1.89q0-.31.69-.33h1.27l.13-.95zm17.49 0c-1.07 0-1.94.47-1.94 1.4 0 1.38 1.89 1.2 1.89 1.9 0 .4-.4.45-.74.45H28l-.15.97h1.48c1.25 0 1.98-.63 1.98-1.55 0-1.41-1.89-1.29-1.89-1.9q-.01-.31.7-.32h1.26l.14-.95zm-2.92 0-1.43 2.98-.59-2.99H24.1l1 4.45-.99 1.98h1.13l3.24-6.43zm-18.06 1.64L9 317.92a.7.7 0 0 1-.78.53c-.35 0-.6-.17-.6-.46l.04-.38.22-1.42a.7.7 0 0 1 .77-.54c.34 0 .6.18.6.46zm.34-1.65-.1.37a1.3 1.3 0 0 0-.95-.37 1.73 1.73 0 0 0-1.74 1.53l-.24 1.66-.02.26a1.23 1.23 0 0 0 1.34 1.28 1.5 1.5 0 0 0 1.06-.4l-.02.4h1l.67-4.73Zm6.25 3.5.03-.28.32-2.27h.89l.14-.95h-.88l.14-1.03h-1.11l-.14 1.03h-.86l-.15.96h.87l-.34 2.37-.03.4c0 .68.4 1 1.36 1h.76l.13-.97h-.58c-.44 0-.55-.07-.55-.25" transform="translate(0 -295.133)"/><path id="Path_6284" fill="#3d516e" d="M234.14.11a7 7 0 0 0-1.26-.11c-3.64 0-7.66 2.73-9.85 8.96a11 11 0 0 1 .95-1.42 8 8 0 0 1 2.62-2.23 6 6 0 0 1 2.86-.74 6 6 0 0 1 .92.08 5 5 0 0 1 4.06 2.86c.6 1.5.2 3.29-1.13 5.02a8 8 0 0 1-2.39 1.95c2.86-1.01 5.61-2.41 7.04-4.28 3.7-4.87 1.35-9.17-3.82-10.09" transform="translate(-210.433)"/><path id="Path_6285" fill="#3d516e" d="M229.2 98.89c2.57-3.36.98-6.3-2.55-6.9a5 5 0 0 0-.82-.06c-2.4 0-5.05 1.73-6.64 5.64a8 8 0 0 1 .51-.7 6 6 0 0 1 1.94-1.61 4.5 4.5 0 0 1 2.1-.55l.53.04a3.4 3.4 0 0 1 2.88 1.93 3.8 3.8 0 0 1-.89 3.75 6 6 0 0 1-1.44 1.26 10 10 0 0 0 4.37-2.8Z" transform="translate(-206.81 -86.738)"/><path id="Path_6286" fill="#3d516e" d="M203.77 156.93c1.85-2.37.83-4.35-1.59-4.68l-.44-.03c-2.34 0-5.2 2.44-5.87 8.15 0 0 6.05-1.06 7.9-3.44" transform="translate(-184.807 -143.623)"/></g></g></svg>