<svg xmlns="http://www.w3.org/2000/svg" width="90" height="90" viewBox="0 0 90 90">
  <g id="elastisys" transform="translate(-145 -385)">
    <rect id="Rectangle_513" data-name="Rectangle 513" width="90" height="90" transform="translate(145 385)" fill="#e7eff3"/>
    <g id="Lager_1-2" transform="translate(173.138 417.534)">
      <path id="Path_6283" data-name="Path 6283" d="M1.354,316.241c.057-.416.36-.6.823-.6.3,0,.559.114.559.368s-.085.387-.4.491l-1.07.369.085-.633h0Zm-.237,1.815v-.114l1.306-.444c.88-.3,1.363-.662,1.363-1.57,0-.738-.577-1.238-1.514-1.238a1.849,1.849,0,0,0-2.016,1.474l-.227,1.626a3.186,3.186,0,0,0-.029.388c0,.765.5,1.238,1.59,1.238h1.5l.14-.966-1.5,0c-.416,0-.616-.132-.616-.4h0Zm5.145-5.127h-1.8l-.142.964H5l-.631,4.56H3.585l-.142.964H6.131l.142-.964H5.489l.773-5.524Zm13.726-.129H18.871l-.17,1.21h1.117l.171-1.21h0Zm-.265,1.891H17.915l-.142.964h.691l-.388,2.8h-.786l-.142.964h2.7l.142-.964h-.795l.53-3.763h0Zm2.819,0h0c-1.07,0-1.931.482-1.931,1.418,0,1.371,1.884,1.2,1.884,1.9,0,.4-.4.444-.738.444-.738,0-1.423,0-1.423,0l-.137.966,1.467,0c1.25,0,1.988-.626,1.988-1.552,0-1.409-1.893-1.285-1.893-1.891,0-.207.217-.33.691-.33.53,0,1.267,0,1.267,0l.139-.951H22.541Zm-9.82,0h0c-1.069,0-1.931.484-1.931,1.421,0,1.371,1.884,1.2,1.884,1.9,0,.4-.4.443-.738.444l-1.423,0-.14.966h1.469c1.25,0,1.988-.625,1.988-1.551,0-1.409-1.893-1.286-1.893-1.891,0-.208.218-.331.691-.331.53,0,1.267,0,1.267,0l.139-.951-1.311,0h0Zm17.483,0h0c-1.069,0-1.931.482-1.931,1.418,0,1.371,1.884,1.2,1.884,1.9,0,.4-.4.444-.738.444-.738,0-1.423,0-1.423,0l-.142.966h1.471c1.25,0,1.988-.625,1.988-1.551,0-1.409-1.893-1.285-1.893-1.891,0-.207.218-.33.691-.33.53,0,1.267,0,1.267,0l.139-.951H30.206Zm-2.916,0-1.43,2.987-.587-2.987H24.089l1,4.453L24.1,321.12h1.126l3.247-6.429H27.289Zm-18.06,1.645L9,317.924a.733.733,0,0,1-.776.53c-.35,0-.6-.171-.6-.463a2.8,2.8,0,0,1,.038-.378l.217-1.427a.7.7,0,0,1,.767-.539c.341,0,.6.18.6.463a1.975,1.975,0,0,1-.019.227h0Zm.341-1.645-.095.368a1.305,1.305,0,0,0-.956-.371,1.729,1.729,0,0,0-1.742,1.533l-.237,1.664a2.456,2.456,0,0,0-.019.255,1.231,1.231,0,0,0,1.344,1.276,1.512,1.512,0,0,0,1.051-.387l-.019.387h1l.672-4.727Zm6.253,3.507c0-.066.019-.217.028-.284l.321-2.269h.886l.142-.955h-.885l.142-1.031H15.35l-.142,1.031h-.861l-.142.955h.861l-.332,2.373a3.6,3.6,0,0,0-.038.4c0,.681.4,1,1.363,1,.72,0,.76,0,.76,0l.13-.964h-.577c-.444,0-.549-.076-.549-.255Z" transform="translate(0 -295.133)" fill="#3d516e"/>
      <path id="Path_6284" data-name="Path 6284" d="M234.143.111A7.172,7.172,0,0,0,232.884,0c-3.643,0-7.663,2.732-9.854,8.955a11.257,11.257,0,0,1,.95-1.417A8.3,8.3,0,0,1,226.6,5.306a6.1,6.1,0,0,1,2.862-.735,5.525,5.525,0,0,1,.918.077,5.011,5.011,0,0,1,4.064,2.861c.594,1.509.193,3.291-1.13,5.019a7.841,7.841,0,0,1-2.391,1.955c2.855-1.015,5.611-2.414,7.034-4.283C241.661,5.331,239.306,1.031,234.143.111Z" transform="translate(-210.433)" fill="#3d516e"/>
      <path id="Path_6285" data-name="Path 6285" d="M229.194,98.887c2.573-3.362.988-6.292-2.545-6.889a4.872,4.872,0,0,0-.814-.068c-2.4,0-5.058,1.73-6.644,5.638a8.33,8.33,0,0,1,.511-.694,6.36,6.36,0,0,1,1.942-1.619,4.511,4.511,0,0,1,2.1-.542,3.948,3.948,0,0,1,.525.035,3.418,3.418,0,0,1,2.877,1.928,3.794,3.794,0,0,1-.882,3.753,5.742,5.742,0,0,1-1.443,1.259,10.241,10.241,0,0,0,4.371-2.8Z" transform="translate(-206.81 -86.738)" fill="#3d516e"/>
      <path id="Path_6286" data-name="Path 6286" d="M203.773,156.933c1.851-2.376.83-4.356-1.588-4.683a3.258,3.258,0,0,0-.441-.029c-2.348,0-5.2,2.443-5.873,8.147,0,0,6.052-1.058,7.9-3.434Z" transform="translate(-184.807 -143.623)" fill="#3d516e"/>
    </g>
  </g>
</svg>
