<svg xmlns="http://www.w3.org/2000/svg" xmlns:xlink="http://www.w3.org/1999/xlink" width="109" height="109" viewBox="0 0 109 109"><defs><radialGradient id="a" cx="0.5" cy="0.5" r="0.5" gradientUnits="objectBoundingBox"><stop offset="0" stop-color="#fff"/><stop offset="1" stop-color="#e7eff3"/></radialGradient><filter id="b" x="44.483" y="29.778" width="38.301" height="55.444" filterUnits="userSpaceOnUse"><feOffset dy="3" input="SourceAlpha"/><feGaussianBlur stdDeviation="3" result="c"/><feFlood flood-opacity="0.161"/><feComposite operator="in" in2="c"/><feComposite in="SourceGraphic"/></filter></defs><g transform="translate(35.185 35.333)"><rect width="109" height="109" transform="translate(-35.185 -35.333)" fill="url(#a)"/><g transform="matrix(1, 0, 0, 1, -35.18, -35.33)" filter="url(#b)"><path d="M292.2,37.658c12.955-12.4,18.781-19.843,18.9-32.635a.8.8,0,0,0-.572-.77C303.162,1.977,297.273.693,291.653.446a.805.805,0,0,0-.846.8V37.082A.825.825,0,0,0,292.2,37.658Z" transform="translate(-237.32 35.33)" fill="#fff"/></g><path d="M18.538,37.658C5.855,25.263.152,17.815.031,5.023a.8.8,0,0,1,.56-.77A77.928,77.928,0,0,1,19.906.416a6.694,6.694,0,0,1,0,.83V37.082A.805.805,0,0,1,18.538,37.658Z" transform="translate(0 0)" fill="#f3f2f2"/><path d="M176.836,232.877l-1.489,2.208H164.9l1.257,2.89c5.2.463,14.027,1.026,15.07-.378,1.489-2.005,1.324-2.876,2.173-4.719Z" transform="translate(-154.266 -217.489)" fill="#2b2b2b"/><path d="M181.6,150.09h-1.446a.4.4,0,0,0-.4.4v1.461a.4.4,0,0,0,.4.4H181.6a.4.4,0,0,0,.4-.4v-1.461A.4.4,0,0,0,181.6,150.09Zm2.616,0H182.77a.4.4,0,0,0-.4.4v1.461a.4.4,0,0,0,.4.4h1.446a.4.4,0,0,0,.4-.4v-1.461A.4.4,0,0,0,184.215,150.09Zm2.616,0h-1.446a.4.4,0,0,0-.4.4v1.461a.4.4,0,0,0,.4.4h1.446a.4.4,0,0,0,.4-.4v-1.461A.4.4,0,0,0,186.831,150.09Zm2.616,0H188a.4.4,0,0,0-.4.4v1.461a.4.4,0,0,0,.4.4h1.446a.4.4,0,0,0,.4-.4v-1.461A.4.4,0,0,0,189.446,150.09Zm2.616,0h-1.446a.4.4,0,0,0-.4.4v1.461a.4.4,0,0,0,.4.4h1.446a.4.4,0,0,0,.4-.4v-1.461A.4.4,0,0,0,192.062,150.09Zm-5.231-2.714h-1.446a.4.4,0,0,0-.4.4v1.461a.4.4,0,0,0,.4.4h1.446a.4.4,0,0,0,.4-.4V147.78A.4.4,0,0,0,186.831,147.376Zm0-2.714h-1.446a.4.4,0,0,0-.4.4v1.461a.4.4,0,0,0,.4.4h1.446a.4.4,0,0,0,.4-.4v-1.461A.4.4,0,0,0,186.831,144.662Zm-2.616,2.714H182.77a.4.4,0,0,0-.4.4v1.461a.4.4,0,0,0,.4.4h1.446a.4.4,0,0,0,.4-.4V147.78A.4.4,0,0,0,184.215,147.376Zm5.26,0h-1.446a.4.4,0,0,0-.4.4v1.461a.4.4,0,0,0,.4.4h1.446a.4.4,0,0,0,.4-.4v-1.461A.4.4,0,0,0,189.475,147.375Z" transform="translate(-168.165 -134.945)" fill="#2b2b2b"/></g></svg>