<svg width="2823" height="2483" xmlns="http://www.w3.org/2000/svg" xmlns:xlink="http://www.w3.org/1999/xlink" xml:space="preserve" overflow="hidden"><defs><clipPath id="clip0"><rect x="1327" y="844" width="178" height="143"/></clipPath><clipPath id="clip1"><rect x="1327" y="844" width="178" height="143"/></clipPath><clipPath id="clip2"><rect x="1327" y="844" width="178" height="143"/></clipPath></defs><g transform="translate(-1228 4)"><g><path d="M1654 535.969 2257.74 535.969 2257.74 560.031 1654 560.031ZM2245.7 511.907 2317.89 548 2245.7 584.094Z" fill="#3C9BCD" fill-rule="nonzero" fill-opacity="1"/><path d="M1654.5 228.042 2246.89 228.042 2246.89 250.959 1654.5 250.958ZM2235.43 205.125 2304.18 239.5 2235.43 273.875Z" fill="#3C9BCD" fill-rule="nonzero" fill-opacity="1"/><path d="M1549 939.969 2243.71 939.969 2243.71 964.031 1549 964.031ZM2231.68 915.906 2303.86 952 2231.68 988.094Z" fill="#3C9BCD" fill-rule="nonzero" fill-opacity="1"/><path d="M2330.5 72.2543C2330.5 32.6254 2362.63 0.499836 2402.25 0.499836L3973.75 0.499836C4013.37 0.499836 4045.5 32.6254 4045.5 72.2543L4045.5 2403.75C4045.5 2443.37 4013.37 2475.5 3973.75 2475.5L2402.25 2475.5C2362.63 2475.5 2330.5 2443.37 2330.5 2403.75Z" stroke="#86B2D0" stroke-width="4.58333" stroke-linecap="butt" stroke-linejoin="miter" stroke-miterlimit="8" stroke-opacity="1" fill="none" fill-rule="evenodd"/><text fill="#417DA5" fill-opacity="1" font-family="Montserrat SemiBold,Montserrat SemiBold_MSFontService,sans-serif" font-style="normal" font-variant="normal" font-weight="600" font-stretch="normal" font-size="41" text-anchor="start" direction="ltr" writing-mode="lr-tb" unicode-bidi="normal" text-decoration="none" transform="matrix(1 0 0 1 2869.26 127)">OpenShift </text><text fill="#417DA5" fill-opacity="1" font-family="Montserrat SemiBold,Montserrat SemiBold_MSFontService,sans-serif" font-style="normal" font-variant="normal" font-weight="600" font-stretch="normal" font-size="41" text-anchor="start" direction="ltr" writing-mode="lr-tb" unicode-bidi="normal" text-decoration="none" transform="matrix(1 0 0 1 3096.7 127)">Container </text><text fill="#417DA5" fill-opacity="1" font-family="Montserrat SemiBold,Montserrat SemiBold_MSFontService,sans-serif" font-style="normal" font-variant="normal" font-weight="600" font-stretch="normal" font-size="41" text-anchor="start" direction="ltr" writing-mode="lr-tb" unicode-bidi="normal" text-decoration="none" transform="matrix(1 0 0 1 3318.42 127)">Platform</text><path d="M2382 263.485C2382 227.319 2411.32 198 2447.48 198L3096.48 198C3132.64 198 3161.96 227.319 3161.96 263.485L3161.96 2211.52C3161.96 2247.68 3132.64 2277 3096.48 2277L2447.48 2277C2411.32 2277 2382 2247.68 2382 2211.52Z" fill="#E8EFF3" fill-rule="evenodd" fill-opacity="1"/><text fill="#417DA5" fill-opacity="1" font-family="Montserrat SemiBold,Montserrat SemiBold_MSFontService,sans-serif" font-style="normal" font-variant="normal" font-weight="600" font-stretch="normal" font-size="41" text-anchor="start" direction="ltr" writing-mode="lr-tb" unicode-bidi="normal" text-decoration="none" transform="matrix(1 0 0 1 2454.89 323)">CONTROL PLANE NODES (</text><text fill="#417DA5" fill-opacity="1" font-family="Montserrat SemiBold,Montserrat SemiBold_MSFontService,sans-serif" font-style="normal" font-variant="normal" font-weight="600" font-stretch="normal" font-size="41" text-anchor="start" direction="ltr" writing-mode="lr-tb" unicode-bidi="normal" text-decoration="none" transform="matrix(1 0 0 1 3017.5 323)">xN</text><text fill="#417DA5" fill-opacity="1" font-family="Montserrat SemiBold,Montserrat SemiBold_MSFontService,sans-serif" font-style="normal" font-variant="normal" font-weight="600" font-stretch="normal" font-size="41" text-anchor="start" direction="ltr" writing-mode="lr-tb" unicode-bidi="normal" text-decoration="none" transform="matrix(1 0 0 1 3074.22 323)">)</text><path d="M3213 263.485C3213 227.319 3242.32 198 3278.49 198L3927.48 198C3963.65 198 3992.96 227.319 3992.96 263.485L3992.96 2211.52C3992.96 2247.68 3963.65 2277 3927.48 2277L3278.49 2277C3242.32 2277 3213 2247.68 3213 2211.52Z" fill="#E8EFF3" fill-rule="evenodd" fill-opacity="1"/><text fill="#417DA5" fill-opacity="1" font-family="Montserrat SemiBold,Montserrat SemiBold_MSFontService,sans-serif" font-style="normal" font-variant="normal" font-weight="600" font-stretch="normal" font-size="41" text-anchor="start" direction="ltr" writing-mode="lr-tb" unicode-bidi="normal" text-decoration="none" transform="matrix(1 0 0 1 3362.11 323)">COMPUTE NODES (</text><text fill="#417DA5" fill-opacity="1" font-family="Montserrat SemiBold,Montserrat SemiBold_MSFontService,sans-serif" font-style="normal" font-variant="normal" font-weight="600" font-stretch="normal" font-size="41" text-anchor="start" direction="ltr" writing-mode="lr-tb" unicode-bidi="normal" text-decoration="none" transform="matrix(1 0 0 1 3773.46 323)">xN</text><text fill="#417DA5" fill-opacity="1" font-family="Montserrat SemiBold,Montserrat SemiBold_MSFontService,sans-serif" font-style="normal" font-variant="normal" font-weight="600" font-stretch="normal" font-size="41" text-anchor="start" direction="ltr" writing-mode="lr-tb" unicode-bidi="normal" text-decoration="none" transform="matrix(1 0 0 1 3830.18 323)">)</text><text fill="#417DA5" fill-opacity="1" font-family="Montserrat SemiBold,Montserrat SemiBold_MSFontService,sans-serif" font-style="normal" font-variant="normal" font-weight="600" font-stretch="normal" font-size="41" text-anchor="start" direction="ltr" writing-mode="lr-tb" unicode-bidi="normal" text-decoration="none" transform="matrix(1 0 0 1 3587.26 372)">--</text><path d="M2421 510C2421 466.922 2455.92 432 2499 432L3045 432C3088.08 432 3123 466.922 3123 510 3123 553.078 3088.08 588 3045 588L2499 588C2455.92 588 2421 553.078 2421 510Z" fill="#FAFEFE" fill-rule="evenodd" fill-opacity="1"/><text fill="#417DA5" fill-opacity="1" font-family="Montserrat SemiBold,Montserrat SemiBold_MSFontService,sans-serif" font-style="normal" font-variant="normal" font-weight="600" font-stretch="normal" font-size="41" text-anchor="start" direction="ltr" writing-mode="lr-tb" unicode-bidi="normal" text-decoration="none" transform="matrix(1 0 0 1 2570.05 524)">OpenShift Services</text><path d="M2421 692C2421 648.922 2455.92 614 2499 614L3045 614C3088.08 614 3123 648.922 3123 692 3123 735.078 3088.08 770 3045 770L2499 770C2455.92 770 2421 735.078 2421 692Z" fill="#FAFEFE" fill-rule="evenodd" fill-opacity="1"/><text fill="#417DA5" fill-opacity="1" font-family="Montserrat SemiBold,Montserrat SemiBold_MSFontService,sans-serif" font-style="normal" font-variant="normal" font-weight="600" font-stretch="normal" font-size="41" text-anchor="start" direction="ltr" writing-mode="lr-tb" unicode-bidi="normal" text-decoration="none" transform="matrix(1 0 0 1 2504.74 706)">Networking</text><text fill="#417DA5" fill-opacity="1" font-family="Montserrat SemiBold,Montserrat SemiBold_MSFontService,sans-serif" font-style="normal" font-variant="normal" font-weight="600" font-stretch="normal" font-size="41" text-anchor="start" direction="ltr" writing-mode="lr-tb" unicode-bidi="normal" text-decoration="none" transform="matrix(1 0 0 1 2769.43 706)">components</text><path d="M2421 859.092C2421 824.247 2449.25 796 2484.09 796L3059.91 796C3094.75 796 3123 824.247 3123 859.092L3123 1199.91C3123 1234.75 3094.75 1263 3059.91 1263L2484.09 1263C2449.25 1263 2421 1234.75 2421 1199.91Z" fill="#FAFEFE" fill-rule="evenodd" fill-opacity="1"/><text fill="#417DA5" fill-opacity="1" font-family="Montserrat SemiBold,Montserrat SemiBold_MSFontService,sans-serif" font-style="normal" font-variant="normal" font-weight="600" font-stretch="normal" font-size="41" text-anchor="start" direction="ltr" writing-mode="lr-tb" unicode-bidi="normal" text-decoration="none" transform="matrix(1 0 0 1 2556.59 945)">Kubernetes</text><text fill="#417DA5" fill-opacity="1" font-family="Montserrat SemiBold,Montserrat SemiBold_MSFontService,sans-serif" font-style="normal" font-variant="normal" font-weight="600" font-stretch="normal" font-size="41" text-anchor="start" direction="ltr" writing-mode="lr-tb" unicode-bidi="normal" text-decoration="none" transform="matrix(1 0 0 1 2815.54 945)">services</text><text fill="#86B2D0" fill-opacity="1" font-family="Montserrat,Montserrat_MSFontService,sans-serif" font-style="normal" font-variant="normal" font-weight="400" font-stretch="normal" font-size="41" text-anchor="start" direction="ltr" writing-mode="lr-tb" unicode-bidi="normal" text-decoration="none" transform="matrix(1 0 0 1 2667.16 1044)">Scheduler</text><text fill="#86B2D0" fill-opacity="1" font-family="Montserrat,Montserrat_MSFontService,sans-serif" font-style="normal" font-variant="normal" font-weight="400" font-stretch="normal" font-size="41" text-anchor="start" direction="ltr" writing-mode="lr-tb" unicode-bidi="normal" text-decoration="none" transform="matrix(1 0 0 1 2568.92 1094)">Controller</text><text fill="#86B2D0" fill-opacity="1" font-family="Montserrat,Montserrat_MSFontService,sans-serif" font-style="normal" font-variant="normal" font-weight="400" font-stretch="normal" font-size="41" text-anchor="start" direction="ltr" writing-mode="lr-tb" unicode-bidi="normal" text-decoration="none" transform="matrix(1 0 0 1 2785.48 1094)">manager</text><text fill="#86B2D0" fill-opacity="1" font-family="Montserrat,Montserrat_MSFontService,sans-serif" font-style="normal" font-variant="normal" font-weight="400" font-stretch="normal" font-size="41" text-anchor="start" direction="ltr" writing-mode="lr-tb" unicode-bidi="normal" text-decoration="none" transform="matrix(1 0 0 1 2646.26 1143)">API</text><text fill="#86B2D0" fill-opacity="1" font-family="Montserrat,Montserrat_MSFontService,sans-serif" font-style="normal" font-variant="normal" font-weight="400" font-stretch="normal" font-size="41" text-anchor="start" direction="ltr" writing-mode="lr-tb" unicode-bidi="normal" text-decoration="none" transform="matrix(1 0 0 1 2729.33 1143)">Service</text><text fill="#86B2D0" fill-opacity="1" font-family="Montserrat,Montserrat_MSFontService,sans-serif" font-style="normal" font-variant="normal" font-weight="400" font-stretch="normal" font-size="41" text-anchor="start" direction="ltr" writing-mode="lr-tb" unicode-bidi="normal" text-decoration="none" transform="matrix(1 0 0 1 2877.15 1143)">s</text><path d="M2421 1367C2421 1323.92 2455.92 1289 2499 1289L3045 1289C3088.08 1289 3123 1323.92 3123 1367 3123 1410.08 3088.08 1445 3045 1445L2499 1445C2455.92 1445 2421 1410.08 2421 1367Z" fill="#FAFEFE" fill-rule="evenodd" fill-opacity="1"/><text fill="#417DA5" fill-opacity="1" font-family="Montserrat SemiBold,Montserrat SemiBold_MSFontService,sans-serif" font-style="normal" font-variant="normal" font-weight="600" font-stretch="normal" font-size="41" text-anchor="start" direction="ltr" writing-mode="lr-tb" unicode-bidi="normal" text-decoration="none" transform="matrix(1 0 0 1 2507.89 1382)">Cluster Version Operator</text><path d="M2421 1549C2421 1505.92 2455.92 1471 2499 1471L3045 1471C3088.08 1471 3123 1505.92 3123 1549 3123 1592.08 3088.08 1627 3045 1627L2499 1627C2455.92 1627 2421 1592.08 2421 1549Z" fill="#FAFEFE" fill-rule="evenodd" fill-opacity="1"/><text fill="#417DA5" fill-opacity="1" font-family="Montserrat SemiBold,Montserrat SemiBold_MSFontService,sans-serif" font-style="normal" font-variant="normal" font-weight="600" font-stretch="normal" font-size="41" text-anchor="start" direction="ltr" writing-mode="lr-tb" unicode-bidi="normal" text-decoration="none" transform="matrix(1 0 0 1 2723.88 1564)">etcd</text><path d="M3317 514.176C3317 487.017 3339.02 465 3366.18 465L3839.82 465C3866.98 465 3889 487.017 3889 514.176L3889 779.824C3889 806.983 3866.98 829 3839.82 829L3366.18 829C3339.02 829 3317 806.983 3317 779.824Z" fill="#FAFEFE" fill-rule="evenodd" fill-opacity="1"/><text fill="#417DA5" fill-opacity="1" font-family="Montserrat SemiBold,Montserrat SemiBold_MSFontService,sans-serif" font-style="normal" font-variant="normal" font-weight="600" font-stretch="normal" font-size="41" text-anchor="start" direction="ltr" writing-mode="lr-tb" unicode-bidi="normal" text-decoration="none" transform="matrix(1 0 0 1 3514.78 562)">Logging</text><text fill="#86B2D0" fill-opacity="1" font-family="Montserrat,Montserrat_MSFontService,sans-serif" font-style="normal" font-variant="normal" font-weight="400" font-stretch="normal" font-size="41" text-anchor="start" direction="ltr" writing-mode="lr-tb" unicode-bidi="normal" text-decoration="none" transform="matrix(1 0 0 1 3531.12 661)">Kibana</text><text fill="#86B2D0" fill-opacity="1" font-family="Montserrat,Montserrat_MSFontService,sans-serif" font-style="normal" font-variant="normal" font-weight="400" font-stretch="normal" font-size="41" text-anchor="start" direction="ltr" writing-mode="lr-tb" unicode-bidi="normal" text-decoration="none" transform="matrix(1 0 0 1 3479.83 711)">Elastisearch</text><text fill="#86B2D0" fill-opacity="1" font-family="Montserrat,Montserrat_MSFontService,sans-serif" font-style="normal" font-variant="normal" font-weight="400" font-stretch="normal" font-size="41" text-anchor="start" direction="ltr" writing-mode="lr-tb" unicode-bidi="normal" text-decoration="none" transform="matrix(1 0 0 1 3473.83 760)">Grafana</text><text fill="#86B2D0" fill-opacity="1" font-family="Montserrat,Montserrat_MSFontService,sans-serif" font-style="normal" font-variant="normal" font-weight="400" font-stretch="normal" font-size="41" text-anchor="start" direction="ltr" writing-mode="lr-tb" unicode-bidi="normal" text-decoration="none" transform="matrix(1 0 0 1 3647.42 760)">Loki</text><path d="M3317 902.176C3317 875.017 3339.02 853 3366.18 853L3839.82 853C3866.98 853 3889 875.017 3889 902.176L3889 1167.82C3889 1194.98 3866.98 1217 3839.82 1217L3366.18 1217C3339.02 1217 3317 1194.98 3317 1167.82Z" fill="#FAFEFE" fill-rule="evenodd" fill-opacity="1"/><text fill="#417DA5" fill-opacity="1" font-family="Montserrat SemiBold,Montserrat SemiBold_MSFontService,sans-serif" font-style="normal" font-variant="normal" font-weight="600" font-stretch="normal" font-size="41" text-anchor="start" direction="ltr" writing-mode="lr-tb" unicode-bidi="normal" text-decoration="none" transform="matrix(1 0 0 1 3485.28 951)">Monitoring</text><text fill="#86B2D0" fill-opacity="1" font-family="Montserrat,Montserrat_MSFontService,sans-serif" font-style="normal" font-variant="normal" font-weight="400" font-stretch="normal" font-size="41" text-anchor="start" direction="ltr" writing-mode="lr-tb" unicode-bidi="normal" text-decoration="none" transform="matrix(1 0 0 1 3498.74 1050)">Scheduler</text><text fill="#86B2D0" fill-opacity="1" font-family="Montserrat,Montserrat_MSFontService,sans-serif" font-style="normal" font-variant="normal" font-weight="400" font-stretch="normal" font-size="41" text-anchor="start" direction="ltr" writing-mode="lr-tb" unicode-bidi="normal" text-decoration="none" transform="matrix(1 0 0 1 3400.49 1100)">Controller</text><text fill="#86B2D0" fill-opacity="1" font-family="Montserrat,Montserrat_MSFontService,sans-serif" font-style="normal" font-variant="normal" font-weight="400" font-stretch="normal" font-size="41" text-anchor="start" direction="ltr" writing-mode="lr-tb" unicode-bidi="normal" text-decoration="none" transform="matrix(1 0 0 1 3617.06 1100)">manager</text><text fill="#86B2D0" fill-opacity="1" font-family="Montserrat,Montserrat_MSFontService,sans-serif" font-style="normal" font-variant="normal" font-weight="400" font-stretch="normal" font-size="41" text-anchor="start" direction="ltr" writing-mode="lr-tb" unicode-bidi="normal" text-decoration="none" transform="matrix(1 0 0 1 3477.84 1149)">API</text><text fill="#86B2D0" fill-opacity="1" font-family="Montserrat,Montserrat_MSFontService,sans-serif" font-style="normal" font-variant="normal" font-weight="400" font-stretch="normal" font-size="41" text-anchor="start" direction="ltr" writing-mode="lr-tb" unicode-bidi="normal" text-decoration="none" transform="matrix(1 0 0 1 3560.91 1149)">Service</text><text fill="#86B2D0" fill-opacity="1" font-family="Montserrat,Montserrat_MSFontService,sans-serif" font-style="normal" font-variant="normal" font-weight="400" font-stretch="normal" font-size="41" text-anchor="start" direction="ltr" writing-mode="lr-tb" unicode-bidi="normal" text-decoration="none" transform="matrix(1 0 0 1 3708.72 1149)">s</text><path d="M3274.5 489.148C3274.5 450.683 3305.68 419.5 3344.15 419.5L3871.85 419.5C3910.32 419.5 3941.5 450.683 3941.5 489.148L3941.5 1193.85C3941.5 1232.32 3910.32 1263.5 3871.85 1263.5L3344.15 1263.5C3305.68 1263.5 3274.5 1232.32 3274.5 1193.85Z" stroke="#86B2D0" stroke-width="4.58333" stroke-linecap="butt" stroke-linejoin="miter" stroke-miterlimit="8" stroke-opacity="1" fill="none" fill-rule="evenodd"/><rect x="3422" y="390" width="337" height="49.9998" fill="#E8EFF3" fill-opacity="1"/><text fill="#86B2D0" fill-opacity="1" font-family="Montserrat SemiBold,Montserrat SemiBold_MSFontService,sans-serif" font-style="normal" font-variant="normal" font-weight="600" font-stretch="normal" font-size="41" text-anchor="start" direction="ltr" writing-mode="lr-tb" unicode-bidi="normal" text-decoration="none" transform="matrix(1 0 0 1 3449.44 430)">Observability</text><path d="M3252 1323.21C3252 1305.97 3265.97 1292 3283.21 1292L3922.79 1292C3940.03 1292 3954 1305.97 3954 1323.21L3954 1491.79C3954 1509.03 3940.03 1523 3922.79 1523L3283.21 1523C3265.97 1523 3252 1509.03 3252 1491.79Z" fill="#FAFEFE" fill-rule="evenodd" fill-opacity="1"/><text fill="#417DA5" fill-opacity="1" font-family="Montserrat SemiBold,Montserrat SemiBold_MSFontService,sans-serif" font-style="normal" font-variant="normal" font-weight="600" font-stretch="normal" font-size="41" text-anchor="start" direction="ltr" writing-mode="lr-tb" unicode-bidi="normal" text-decoration="none" transform="matrix(1 0 0 1 3476.69 1372)">Networking</text><text fill="#86B2D0" fill-opacity="1" font-family="Montserrat,Montserrat_MSFontService,sans-serif" font-style="normal" font-variant="normal" font-weight="400" font-stretch="normal" font-size="41" text-anchor="start" direction="ltr" writing-mode="lr-tb" unicode-bidi="normal" text-decoration="none" transform="matrix(1 0 0 1 3364.97 1471)">SDN, NTO, DNS,</text><text fill="#86B2D0" fill-opacity="1" font-family="Montserrat,Montserrat_MSFontService,sans-serif" font-style="normal" font-variant="normal" font-weight="400" font-stretch="normal" font-size="41" text-anchor="start" direction="ltr" writing-mode="lr-tb" unicode-bidi="normal" text-decoration="none" transform="matrix(1 0 0 1 3700.7 1471)">Router</text><path d="M3252 1633C3252 1589.92 3286.92 1555 3330 1555L3876 1555C3919.08 1555 3954 1589.92 3954 1633L3954 1633C3954 1676.08 3919.08 1711 3876 1711L3330 1711C3286.92 1711 3252 1676.08 3252 1633Z" fill="#FAFEFE" fill-rule="evenodd" fill-opacity="1"/><text fill="#417DA5" fill-opacity="1" font-family="Montserrat SemiBold,Montserrat SemiBold_MSFontService,sans-serif" font-style="normal" font-variant="normal" font-weight="600" font-stretch="normal" font-size="41" text-anchor="start" direction="ltr" writing-mode="lr-tb" unicode-bidi="normal" text-decoration="none" transform="matrix(1 0 0 1 3342.06 1647)">OpenShift </text><text fill="#417DA5" fill-opacity="1" font-family="Montserrat SemiBold,Montserrat SemiBold_MSFontService,sans-serif" font-style="normal" font-variant="normal" font-weight="600" font-stretch="normal" font-size="41" text-anchor="start" direction="ltr" writing-mode="lr-tb" unicode-bidi="normal" text-decoration="none" transform="matrix(1 0 0 1 3569.5 1647)">Lifecycle</text><text fill="#417DA5" fill-opacity="1" font-family="Montserrat SemiBold,Montserrat SemiBold_MSFontService,sans-serif" font-style="normal" font-variant="normal" font-weight="600" font-stretch="normal" font-size="41" text-anchor="start" direction="ltr" writing-mode="lr-tb" unicode-bidi="normal" text-decoration="none" transform="matrix(1 0 0 1 3768.88 1647)">Mgr</text><text fill="#417DA5" fill-opacity="1" font-family="Montserrat SemiBold,Montserrat SemiBold_MSFontService,sans-serif" font-style="normal" font-variant="normal" font-weight="600" font-stretch="normal" font-size="41" text-anchor="start" direction="ltr" writing-mode="lr-tb" unicode-bidi="normal" text-decoration="none" transform="matrix(1 0 0 1 3854.24 1647)">.</text><path d="M3252 1810C3252 1766.92 3286.92 1732 3330 1732L3876 1732C3919.08 1732 3954 1766.92 3954 1810L3954 1810C3954 1853.08 3919.08 1888 3876 1888L3330 1888C3286.92 1888 3252 1853.08 3252 1810Z" fill="#FAFEFE" fill-rule="evenodd" fill-opacity="1"/><text fill="#417DA5" fill-opacity="1" font-family="Montserrat SemiBold,Montserrat SemiBold_MSFontService,sans-serif" font-style="normal" font-variant="normal" font-weight="600" font-stretch="normal" font-size="41" text-anchor="start" direction="ltr" writing-mode="lr-tb" unicode-bidi="normal" text-decoration="none" transform="matrix(1 0 0 1 3321.43 1825)">Integrated</text><text fill="#417DA5" fill-opacity="1" font-family="Montserrat SemiBold,Montserrat SemiBold_MSFontService,sans-serif" font-style="normal" font-variant="normal" font-weight="600" font-stretch="normal" font-size="41" text-anchor="start" direction="ltr" writing-mode="lr-tb" unicode-bidi="normal" text-decoration="none" transform="matrix(1 0 0 1 3560.34 1825)">Image </text><text fill="#417DA5" fill-opacity="1" font-family="Montserrat SemiBold,Montserrat SemiBold_MSFontService,sans-serif" font-style="normal" font-variant="normal" font-weight="600" font-stretch="normal" font-size="41" text-anchor="start" direction="ltr" writing-mode="lr-tb" unicode-bidi="normal" text-decoration="none" transform="matrix(1 0 0 1 3708.15 1825)">Registry</text><path d="M3252 1988C3252 1944.92 3286.92 1910 3330 1910L3876 1910C3919.08 1910 3954 1944.92 3954 1988L3954 1988C3954 2031.08 3919.08 2066 3876 2066L3330 2066C3286.92 2066 3252 2031.08 3252 1988Z" fill="#FAFEFE" fill-rule="evenodd" fill-opacity="1"/><text fill="#417DA5" fill-opacity="1" font-family="Montserrat SemiBold,Montserrat SemiBold_MSFontService,sans-serif" font-style="normal" font-variant="normal" font-weight="600" font-stretch="normal" font-size="41" text-anchor="start" direction="ltr" writing-mode="lr-tb" unicode-bidi="normal" text-decoration="none" transform="matrix(1 0 0 1 3360.39 2002)">Machine</text><text fill="#417DA5" fill-opacity="1" font-family="Montserrat SemiBold,Montserrat SemiBold_MSFontService,sans-serif" font-style="normal" font-variant="normal" font-weight="600" font-stretch="normal" font-size="41" text-anchor="start" direction="ltr" writing-mode="lr-tb" unicode-bidi="normal" text-decoration="none" transform="matrix(1 0 0 1 3554.61 2002)">management</text><path d="M3252 2165C3252 2121.92 3286.92 2087 3330 2087L3876 2087C3919.08 2087 3954 2121.92 3954 2165L3954 2165C3954 2208.08 3919.08 2243 3876 2243L3330 2243C3286.92 2243 3252 2208.08 3252 2165Z" fill="#FAFEFE" fill-rule="evenodd" fill-opacity="1"/><text fill="#417DA5" fill-opacity="1" font-family="Montserrat SemiBold,Montserrat SemiBold_MSFontService,sans-serif" font-style="normal" font-variant="normal" font-weight="600" font-stretch="normal" font-size="41" text-anchor="start" direction="ltr" writing-mode="lr-tb" unicode-bidi="normal" text-decoration="none" transform="matrix(1 0 0 1 3519.66 2179)">Kubelet</text><path d="M2382 2361C2382 2325.1 2411.1 2296 2447 2296L2837 2296C2872.9 2296 2902 2325.1 2902 2361 2902 2396.9 2872.9 2426 2837 2426L2447 2426C2411.1 2426 2382 2396.9 2382 2361Z" fill="#E8EFF3" fill-rule="evenodd" fill-opacity="1"/><text fill="#417DA5" fill-opacity="1" font-family="Montserrat SemiBold,Montserrat SemiBold_MSFontService,sans-serif" font-style="normal" font-variant="normal" font-weight="600" font-stretch="normal" font-size="41" text-anchor="start" direction="ltr" writing-mode="lr-tb" unicode-bidi="normal" text-decoration="none" transform="matrix(1 0 0 1 2542.09 2376)">Compute</text><path d="M2928 2361C2928 2325.1 2957.1 2296 2993 2296L3382 2296C3417.9 2296 3447 2325.1 3447 2361 3447 2396.9 3417.9 2426 3382 2426L2993 2426C2957.1 2426 2928 2396.9 2928 2361Z" fill="#E8EFF3" fill-rule="evenodd" fill-opacity="1"/><text fill="#417DA5" fill-opacity="1" font-family="Montserrat SemiBold,Montserrat SemiBold_MSFontService,sans-serif" font-style="normal" font-variant="normal" font-weight="600" font-stretch="normal" font-size="41" text-anchor="start" direction="ltr" writing-mode="lr-tb" unicode-bidi="normal" text-decoration="none" transform="matrix(1 0 0 1 3095.27 2376)">Network</text><path d="M3473 2361C3473 2325.1 3502.1 2296 3538 2296L3928 2296C3963.9 2296 3993 2325.1 3993 2361 3993 2396.9 3963.9 2426 3928 2426L3538 2426C3502.1 2426 3473 2396.9 3473 2361Z" fill="#E8EFF3" fill-rule="evenodd" fill-opacity="1"/><text fill="#417DA5" fill-opacity="1" font-family="Montserrat SemiBold,Montserrat SemiBold_MSFontService,sans-serif" font-style="normal" font-variant="normal" font-weight="600" font-stretch="normal" font-size="41" text-anchor="start" direction="ltr" writing-mode="lr-tb" unicode-bidi="normal" text-decoration="none" transform="matrix(1 0 0 1 3649.88 2376)">Storage</text><g><g><g><path d="M172.8 54.0001C187.711 54.0001 199.8 41.9108 199.8 27 199.8 12.0893 187.718 0 172.8 0 157.889 0 145.8 12.0893 145.8 27 145.8 41.9108 157.883 54.0001 172.8 54.0001ZM43.2 54.0001C58.1108 54.0001 70.2001 41.9108 70.2001 27 70.2001 12.0893 58.1176 0 43.2 0 28.2893 0 16.2 12.0893 16.2 27 16.2 41.9108 28.2893 54.0001 43.2 54.0001ZM107.966 108C127.342 108 142.763 92.2861 142.763 72.9001 142.763 53.5141 127.055 37.8 107.966 37.8 88.5905 37.8 73.1701 53.5141 73.1701 72.9001 72.8663 92.2726 88.5938 108 107.966 108ZM124.2 135C124.2 129.367 125.347 124.045 127.109 119.016 126.326 118.969 125.618 118.8 124.841 118.8L91.1589 118.8C64.6651 118.8 43.2 138.949 43.2 163.789 43.2 168.784 47.4863 172.8 52.7851 172.8L142.594 172.8C131.456 163.89 124.2 150.356 124.2 135ZM62.0663 72.9001C62.0663 71.061 62.3979 69.3124 62.6094 67.5304 58.9276 65.5088 54.8776 64.8001 50.5913 64.8001L29.727 64.8001C13.311 64.8001 0 78.9076 0 96.2888 0 99.7651 2.66187 102.6 5.94676 102.6L73.2781 102.6C66.3863 94.5676 62.0663 84.2738 62.0663 72.9001ZM186.266 64.8001 165.395 64.8001C161.075 64.8001 156.998 65.8251 153.293 67.5811 153.495 69.3563 153.833 71.0776 153.833 72.9001 153.833 80.1462 151.934 86.8658 148.888 92.9273 155.993 88.8976 164.059 86.4001 172.8 86.4001 187.137 86.4001 199.891 92.7248 208.778 102.6L210.045 102.6C213.334 102.6 216 99.7651 216 96.2888 216 78.9076 202.703 64.8001 186.266 64.8001ZM208.609 123.761C206.913 118.358 204.022 113.427 200.256 109.347 199.691 108.719 198.748 108.562 197.995 109.001L191.525 112.738C188.793 110.413 185.653 108.593 182.261 107.398L182.261 99.5964C182.261 98.7479 181.633 97.9946 180.816 97.837 175.227 96.5805 169.51 96.6122 164.17 97.837 163.654 98.2801 163.046 99.0564 163.046 99.5964L163.046 107.102C159.655 108.296 156.512 110.117 153.782 112.442L147.282 108.705C146.56 108.266 145.617 108.423 145.022 109.051 141.252 113.135 138.363 118.065 136.699 123.465 136.448 124.313 136.793 125.192 137.516 125.6L143.985 129.37C143.358 132.887 143.358 136.529 143.985 140.049L137.516 143.819C136.762 144.227 136.448 145.107 136.699 145.954 138.363 151.358 141.252 156.255 145.022 160.369 145.618 160.998 146.529 161.155 147.282 160.715L153.782 156.979C156.514 159.303 159.655 161.123 163.046 162.318L163.046 169.824C163.046 170.673 163.644 171.426 164.46 171.583 170.083 172.839 175.766 172.808 181.105 171.583 181.922 171.426 182.55 170.673 182.55 169.824L182.55 162.318C185.942 161.125 189.084 159.304 191.815 156.979L198.284 160.715C199.007 161.155 199.98 160.998 200.545 160.369 204.315 156.285 207.204 151.358 208.899 145.954 209.15 145.107 208.805 144.227 208.051 143.819L201.581 140.049C202.24 136.532 202.24 132.887 201.581 129.37L208.051 125.6C208.811 125.483 209.149 124.605 208.609 123.761ZM172.8 145.8C166.837 145.8 162 140.964 162 135 162 129.037 166.837 124.2 172.8 124.2 178.764 124.2 183.6 129.037 183.6 135 183.6 140.974 178.774 145.8 172.8 145.8Z" fill="#417DA5" fill-rule="nonzero" fill-opacity="1" transform="matrix(1 0 0 1.00116 1307 302)"/></g></g></g><text fill="#417DA5" fill-opacity="1" font-family="Montserrat SemiBold,Montserrat SemiBold_MSFontService,sans-serif" font-style="normal" font-variant="normal" font-weight="600" font-stretch="normal" font-size="37" text-anchor="start" direction="ltr" writing-mode="lr-tb" unicode-bidi="normal" text-decoration="none" transform="matrix(1 0 0 1 1284.83 549)">DEVELOPERS</text><g clip-path="url(#clip0)"><g clip-path="url(#clip1)"><g clip-path="url(#clip2)"><path d="M61.95 70.8C81.5008 70.8 97.35 54.9508 97.35 35.4 97.35 15.8491 81.5008 0 61.95 0 42.3993 0 26.55 15.8491 26.55 35.4 26.55 54.9508 42.3993 70.8 61.95 70.8ZM49.3111 84.075C22.0697 84.075 0 106.145 0 133.386 0 137.922 3.67828 141.6 8.21391 141.6L115.686 141.6C116.184 141.6 116.654 141.545 117.152 141.462 96.0502 126.223 89.5509 102.466 88.6383 86.0939 84.1856 84.7664 79.4841 84.075 74.6166 84.075L49.3111 84.075ZM134.714 62.4202 101.526 75.6952C99.0094 76.7184 97.35 79.1522 97.35 81.8625 97.35 99.3689 104.513 128.546 134.631 141.102 136.262 141.794 138.115 141.794 139.747 141.102 169.837 128.546 177 99.3689 177 81.8625 177 79.1522 175.341 76.7184 172.824 75.6952L139.636 62.4202C138.06 61.7841 136.29 61.7841 134.714 62.4202ZM163.559 86.2875C162.48 100.309 156.037 118.562 137.175 127.689L137.175 75.7228 163.559 86.2875Z" fill="#3C9BCD" fill-rule="nonzero" fill-opacity="1" transform="matrix(1 0 0 1.00282 1328 845)"/></g></g></g><text fill="#3C9BCD" fill-opacity="1" font-family="Montserrat SemiBold,Montserrat SemiBold_MSFontService,sans-serif" font-style="normal" font-variant="normal" font-weight="600" font-stretch="normal" font-size="37" text-anchor="start" direction="ltr" writing-mode="lr-tb" unicode-bidi="normal" text-decoration="none" transform="matrix(1 0 0 1 1338.05 1061)">ADMINS</text><path d="M1742.5 156.115C1742.5 151.909 1745.91 148.5 1750.11 148.5L2132.89 148.5C2137.09 148.5 2140.5 151.909 2140.5 156.115L2140.5 322.885C2140.5 327.091 2137.09 330.5 2132.89 330.5L1750.11 330.5C1745.91 330.5 1742.5 327.091 1742.5 322.885Z" stroke="#86B2D0" stroke-width="4.58333" stroke-linecap="butt" stroke-linejoin="miter" stroke-miterlimit="8" stroke-opacity="1" fill="#FAFEFE" fill-rule="evenodd" fill-opacity="1"/><text fill="#417DA5" fill-opacity="1" font-family="Montserrat SemiBold,Montserrat SemiBold_MSFontService,sans-serif" font-style="normal" font-variant="normal" font-weight="600" font-stretch="normal" font-size="41" text-anchor="start" direction="ltr" writing-mode="lr-tb" unicode-bidi="normal" text-decoration="none" transform="matrix(1 0 0 1 1842.19 253)">SCM (Git)</text><path d="M1742.5 465.115C1742.5 460.909 1745.91 457.5 1750.11 457.5L2132.89 457.5C2137.09 457.5 2140.5 460.909 2140.5 465.115L2140.5 631.885C2140.5 636.091 2137.09 639.5 2132.89 639.5L1750.11 639.5C1745.91 639.5 1742.5 636.091 1742.5 631.885Z" stroke="#86B2D0" stroke-width="4.58333" stroke-linecap="butt" stroke-linejoin="miter" stroke-miterlimit="8" stroke-opacity="1" fill="#FAFEFE" fill-rule="evenodd" fill-opacity="1"/><text fill="#417DA5" fill-opacity="1" font-family="Montserrat SemiBold,Montserrat SemiBold_MSFontService,sans-serif" font-style="normal" font-variant="normal" font-weight="600" font-stretch="normal" font-size="41" text-anchor="start" direction="ltr" writing-mode="lr-tb" unicode-bidi="normal" text-decoration="none" transform="matrix(1 0 0 1 1868.26 562)">CI / CD</text><path d="M1742.5 840.048C1742.5 833.67 1747.67 828.5 1754.05 828.5L2128.95 828.5C2135.33 828.5 2140.5 833.67 2140.5 840.048L2140.5 1092.95C2140.5 1099.33 2135.33 1104.5 2128.95 1104.5L1754.05 1104.5C1747.67 1104.5 1742.5 1099.33 1742.5 1092.95Z" stroke="#8AC3E1" stroke-width="4.58333" stroke-linecap="butt" stroke-linejoin="miter" stroke-miterlimit="8" stroke-opacity="1" fill="#FAFEFE" fill-rule="evenodd" fill-opacity="1"/><text fill="#3C9BCD" fill-opacity="1" font-family="Montserrat SemiBold,Montserrat SemiBold_MSFontService,sans-serif" font-style="normal" font-variant="normal" font-weight="600" font-stretch="normal" font-size="41" text-anchor="start" direction="ltr" writing-mode="lr-tb" unicode-bidi="normal" text-decoration="none" transform="matrix(1 0 0 1 1855.38 931)">Existing</text><text fill="#3C9BCD" fill-opacity="1" font-family="Montserrat SemiBold,Montserrat SemiBold_MSFontService,sans-serif" font-style="normal" font-variant="normal" font-weight="600" font-stretch="normal" font-size="41" text-anchor="start" direction="ltr" writing-mode="lr-tb" unicode-bidi="normal" text-decoration="none" transform="matrix(1 0 0 1 1812.68 981)">Automation </text><text fill="#3C9BCD" fill-opacity="1" font-family="Montserrat SemiBold,Montserrat SemiBold_MSFontService,sans-serif" font-style="normal" font-variant="normal" font-weight="600" font-stretch="normal" font-size="41" text-anchor="start" direction="ltr" writing-mode="lr-tb" unicode-bidi="normal" text-decoration="none" transform="matrix(1 0 0 1 1853.08 1030)">Toolsets</text><path d="M0 0 94.7045 0 94.7045 159.461 189.409 159.461" stroke="#3C9BCD" stroke-width="22.9167" stroke-linecap="butt" stroke-linejoin="miter" stroke-miterlimit="8" stroke-opacity="1" fill="none" fill-rule="evenodd" transform="matrix(1 0 0 -1 1552.5 398.961)"/><path d="M1554.5 397.5 1648.28 397.5 1648.28 548.836 1742.06 548.836" stroke="#3C9BCD" stroke-width="22.9167" stroke-linecap="butt" stroke-linejoin="miter" stroke-miterlimit="8" stroke-opacity="1" fill="none" fill-rule="evenodd"/><path d="M1953.03 330 1953.03 397.257 1928.97 397.257 1928.97 330ZM1977.09 385.225 1941 457.413 1904.91 385.226Z" fill="#3C9BCD" fill-rule="nonzero" fill-opacity="1"/></g></g></svg>