<svg xmlns="http://www.w3.org/2000/svg" xmlns:xlink="http://www.w3.org/1999/xlink" width="432" height="285" viewBox="0 0 432 285">
  <defs>
    <filter id="Path_5093" x="288" y="0" width="144" height="144" filterUnits="userSpaceOnUse">
      <feOffset dy="3" input="SourceAlpha"/>
      <feGaussianBlur stdDeviation="3" result="blur"/>
      <feFlood flood-opacity="0.161"/>
      <feComposite operator="in" in2="blur"/>
      <feComposite in="SourceGraphic"/>
    </filter>
    <filter id="Path_295" x="0" y="0" width="144" height="144" filterUnits="userSpaceOnUse">
      <feOffset dy="3" input="SourceAlpha"/>
      <feGaussianBlur stdDeviation="3" result="blur-2"/>
      <feFlood flood-opacity="0.161"/>
      <feComposite operator="in" in2="blur-2"/>
      <feComposite in="SourceGraphic"/>
    </filter>
    <filter id="Path_294" x="288" y="141" width="144" height="144" filterUnits="userSpaceOnUse">
      <feOffset dy="3" input="SourceAlpha"/>
      <feGaussianBlur stdDeviation="3" result="blur-3"/>
      <feFlood flood-opacity="0.161"/>
      <feComposite operator="in" in2="blur-3"/>
      <feComposite in="SourceGraphic"/>
    </filter>
    <filter id="Path_293" x="144" y="0" width="144" height="144" filterUnits="userSpaceOnUse">
      <feOffset dy="3" input="SourceAlpha"/>
      <feGaussianBlur stdDeviation="3" result="blur-4"/>
      <feFlood flood-opacity="0.161"/>
      <feComposite operator="in" in2="blur-4"/>
      <feComposite in="SourceGraphic"/>
    </filter>
    <filter id="Path_292" x="0" y="141" width="144" height="144" filterUnits="userSpaceOnUse">
      <feOffset dy="3" input="SourceAlpha"/>
      <feGaussianBlur stdDeviation="3" result="blur-5"/>
      <feFlood flood-opacity="0.161"/>
      <feComposite operator="in" in2="blur-5"/>
      <feComposite in="SourceGraphic"/>
    </filter>
    <filter id="Path_291" x="144" y="141" width="144" height="144" filterUnits="userSpaceOnUse">
      <feOffset dy="3" input="SourceAlpha"/>
      <feGaussianBlur stdDeviation="3" result="blur-6"/>
      <feFlood flood-opacity="0.161"/>
      <feComposite operator="in" in2="blur-6"/>
      <feComposite in="SourceGraphic"/>
    </filter>
  </defs>
  <g id="safespring_key-points-backup" transform="translate(-89 -82)">
    <g id="Rutor">
      <g transform="matrix(1, 0, 0, 1, 89, 82)" filter="url(#Path_5093)">
        <path id="Path_5093-2" data-name="Path 5093" d="M7,0H119a7,7,0,0,1,7,7V119a7,7,0,0,1-7,7H7a7,7,0,0,1-7-7V7A7,7,0,0,1,7,0Z" transform="translate(297 6)" fill="#fff"/>
      </g>
      <g transform="matrix(1, 0, 0, 1, 89, 82)" filter="url(#Path_295)">
        <path id="Path_295-2" data-name="Path 295" d="M7,0H119a7,7,0,0,1,7,7V119a7,7,0,0,1-7,7H7a7,7,0,0,1-7-7V7A7,7,0,0,1,7,0Z" transform="translate(9 6)" fill="#fff"/>
      </g>
      <g transform="matrix(1, 0, 0, 1, 89, 82)" filter="url(#Path_294)">
        <path id="Path_294-2" data-name="Path 294" d="M7,0H119a7,7,0,0,1,7,7V119a7,7,0,0,1-7,7H7a7,7,0,0,1-7-7V7A7,7,0,0,1,7,0Z" transform="translate(297 147)" fill="#fff"/>
      </g>
      <g transform="matrix(1, 0, 0, 1, 89, 82)" filter="url(#Path_293)">
        <path id="Path_293-2" data-name="Path 293" d="M7,0H119a7,7,0,0,1,7,7V119a7,7,0,0,1-7,7H7a7,7,0,0,1-7-7V7A7,7,0,0,1,7,0Z" transform="translate(153 6)" fill="#fff"/>
      </g>
      <g transform="matrix(1, 0, 0, 1, 89, 82)" filter="url(#Path_292)">
        <path id="Path_292-2" data-name="Path 292" d="M7,0H119a7,7,0,0,1,7,7V119a7,7,0,0,1-7,7H7a7,7,0,0,1-7-7V7A7,7,0,0,1,7,0Z" transform="translate(9 147)" fill="#fff"/>
      </g>
      <g transform="matrix(1, 0, 0, 1, 89, 82)" filter="url(#Path_291)">
        <path id="Path_291-2" data-name="Path 291" d="M7,0H119a7,7,0,0,1,7,7V119a7,7,0,0,1-7,7H7a7,7,0,0,1-7-7V7A7,7,0,0,1,7,0Z" transform="translate(153 147)" fill="#fff"/>
      </g>
    </g>
    <g id="Ikoner">
      <path id="gauge-high-solid-2" d="M42.182,21.091A21.091,21.091,0,1,1,21.091,0,21.089,21.089,0,0,1,42.182,21.091ZM21.091,5.273a2.636,2.636,0,1,0,2.636,2.636A2.635,2.635,0,0,0,21.091,5.273Zm0,29a5.273,5.273,0,0,0,3.782-8.947l5.207-12a1.9,1.9,0,0,0-.939-2.612,1.988,1.988,0,0,0-2.612,1.013l-5.281,12c-.049,0-.107-.074-.157-.074A5.341,5.341,0,0,0,15.818,29a5.278,5.278,0,0,0,5.273,5.273ZM11.864,9.227A2.636,2.636,0,1,0,14.5,11.864,2.634,2.634,0,0,0,11.864,9.227Zm-3.955,14.5a2.636,2.636,0,1,0-2.636-2.636A2.634,2.634,0,0,0,7.909,23.727Zm26.364-5.273a2.636,2.636,0,1,0,2.636,2.636A2.634,2.634,0,0,0,34.273,18.454Z" transform="translate(282.909 115.812)" fill="#32cd32"/>
      <path id="Path_5430" data-name="Path 5430" d="M45.429,14.041a15.791,15.791,0,0,0-31.39,0A15.791,15.791,0,0,0,15.78,45.526H29.734a8.814,8.814,0,1,0,0-17.627,5.143,5.143,0,1,1,3.644-8.768,1.838,1.838,0,0,0,2.6-2.6,8.814,8.814,0,1,0-6.246,15.028,5.143,5.143,0,1,1,0,10.286H15.78a12.12,12.12,0,1,1,0-24.24,1.837,1.837,0,0,0,1.834-1.834,12.12,12.12,0,1,1,24.24,0,1.834,1.834,0,0,0,1.834,1.834,12.12,12.12,0,1,1,0,24.24,1.837,1.837,0,0,0,0,3.671,15.791,15.791,0,0,0,1.741-31.478Z" transform="translate(275.297 250.915)" fill="#417da5"/>
      <g id="scalability" transform="translate(9 14)">
        <circle id="Ellipse_60" data-name="Ellipse 60" cx="21.5" cy="21.5" r="21.5" transform="translate(419 101.903)" fill="#e7eff3"/>
        <path id="up-right-and-down-left-from-center-solid" d="M29.873,0h6.091a1.013,1.013,0,0,1,1.015,1.015V7.106a1.016,1.016,0,0,1-1.734.719L33.6,6.175l-3.68,3.68a1.011,1.011,0,0,1-1.434,0L27.128,8.5a1.011,1.011,0,0,1,0-1.434l3.68-3.68L29.154,1.734A1.016,1.016,0,0,1,29.873,0ZM23.106,20.979H17.015A1.013,1.013,0,0,1,16,19.964V13.873a1.016,1.016,0,0,1,1.734-.719l1.65,1.65,3.68-3.68a1.011,1.011,0,0,1,1.434,0l1.353,1.353a1.011,1.011,0,0,1,0,1.434l-3.68,3.68,1.65,1.65a1.016,1.016,0,0,1-.719,1.734Z" transform="translate(414 112.903)" fill="#195f8c"/>
      </g>
      <path id="pen-to-square" d="M42.985,8.336a4.905,4.905,0,0,1,0,6.943l-2.63,2.639-8.592-8.59L34.4,6.693a4.909,4.909,0,0,1,6.943,0ZM15.114,25.984,29.781,11.312,38.373,19.9,23.7,34.567a4.863,4.863,0,0,1-1.92,1.192l-7.785,2.6a1.977,1.977,0,0,1-2.157-.587,1.961,1.961,0,0,1-.508-2.078l2.6-7.785a4.863,4.863,0,0,1,1.192-1.92Zm1.718-15.658a2.856,2.856,0,0,1,2.805,2.805,2.753,2.753,0,0,1-2.805,2.805H8.416a2.856,2.856,0,0,0-2.805,2.805V41.265A2.8,2.8,0,0,0,8.416,44.07H30.86a2.8,2.8,0,0,0,2.805-2.805v-8.5a2.805,2.805,0,0,1,5.611,0v8.5a8.418,8.418,0,0,1-8.416,8.416H8.416A8.417,8.417,0,0,1,0,41.265V18.742a8.417,8.417,0,0,1,8.416-8.416Z" transform="translate(427 246.76)" fill="#3c9bcd"/>
      <path id="user-lock-solid" d="M20.433,23.352A11.676,11.676,0,1,0,8.757,11.676,11.675,11.675,0,0,0,20.433,23.352Zm-4.169,4.379A16.261,16.261,0,0,0,0,43.995,2.71,2.71,0,0,0,2.709,46.7h33.1a5.842,5.842,0,0,1-.784-2.919V32.109q0-.287.027-.575a16.22,16.22,0,0,0-10.454-3.8Zm31.9-5.838a2.916,2.916,0,0,1,2.919,2.919V29.19H45.245V24.812A2.916,2.916,0,0,1,48.164,21.893Zm-7.3,2.919V29.19a2.916,2.916,0,0,0-2.919,2.919V43.785A2.916,2.916,0,0,0,40.866,46.7h14.6a2.916,2.916,0,0,0,2.919-2.919V32.109a2.916,2.916,0,0,0-2.919-2.919V24.812a7.3,7.3,0,1,0-14.6,0Z" transform="translate(132.683 249.903)" fill="#fa690f"/>
      <path id="clipboard-list-check" d="M28.483,5.425H23.916a8.09,8.09,0,0,0-15.278,0H4.069A4.069,4.069,0,0,0,0,9.494v29.84A4.07,4.07,0,0,0,4.069,43.4H28.483a4.069,4.069,0,0,0,4.069-4.069V9.494A4.069,4.069,0,0,0,28.483,5.425Zm-12.207,0a2.713,2.713,0,1,1-2.713,2.713A2.713,2.713,0,0,1,16.276,5.425ZM8.138,33.231A2.035,2.035,0,1,1,10.173,31.2,2.035,2.035,0,0,1,8.138,33.231Zm1.356-8.816a1.355,1.355,0,0,1-.958-.4L5.824,21.3a1.356,1.356,0,1,1,1.918-1.918l1.753,1.756,4.467-4.467a1.356,1.356,0,1,1,1.918,1.918l-5.425,5.425A1.367,1.367,0,0,1,9.494,24.414Zm16.276,8.138H14.92a1.356,1.356,0,0,1,0-2.713H25.771a1.356,1.356,0,1,1,0,2.713Zm0-8.138H17.633a1.356,1.356,0,0,1,0-2.713h8.138a1.356,1.356,0,0,1,0,2.713Z" transform="translate(145.597 115.701)" fill="#3c9bcd"/>
    </g>
    <g id="Text" transform="translate(-285 -92)">
      <path id="Path_5578" data-name="Path 5578" d="M-33.8,0l3.12-7h1.6l3.13,7h-1.7l-2.56-6.18h.64L-32.135,0Zm1.56-1.5.43-1.23h3.6l.44,1.23ZM-23.5,0l-3.02-7h1.75l2.64,6.2h-1.03l2.68-6.2h1.61L-21.9,0Zm4.06,0,3.12-7h1.6l3.13,7h-1.7l-2.56-6.18h.64L-17.775,0Zm1.56-1.5.43-1.23h3.6l.44,1.23Zm7.02,1.5V-7h1.34l4.13,5.04h-.65V-7h1.6V0h-1.33l-4.14-5.04h.65V0ZM.575.12A4.189,4.189,0,0,1-.93-.145,3.535,3.535,0,0,1-2.135-.9a3.5,3.5,0,0,1-.8-1.15A3.619,3.619,0,0,1-3.215-3.5,3.619,3.619,0,0,1-2.93-4.95a3.468,3.468,0,0,1,.8-1.15A3.6,3.6,0,0,1-.925-6.855,4.178,4.178,0,0,1,.585-7.12,4.136,4.136,0,0,1,2.23-6.8a3.2,3.2,0,0,1,1.235.925l-1.04.96a2.434,2.434,0,0,0-.8-.615,2.245,2.245,0,0,0-.96-.2,2.455,2.455,0,0,0-.9.16,2.04,2.04,0,0,0-.71.46,2.1,2.1,0,0,0-.465.71,2.417,2.417,0,0,0-.165.91,2.417,2.417,0,0,0,.165.91,2.1,2.1,0,0,0,.465.71,2.04,2.04,0,0,0,.71.46,2.455,2.455,0,0,0,.9.16,2.245,2.245,0,0,0,.96-.205,2.381,2.381,0,0,0,.8-.625l1.04.96A3.25,3.25,0,0,1,2.23-.2,4.106,4.106,0,0,1,.575.12Zm5.47-4.3h3.37v1.26H6.045Zm.12,2.88h3.81V0H4.555V-7h5.29v1.3H6.165Zm5.1,1.3V-7h3.03a3.936,3.936,0,0,1,1.62.305,2.372,2.372,0,0,1,1.05.875,2.443,2.443,0,0,1,.37,1.36,2.4,2.4,0,0,1-.37,1.345,2.353,2.353,0,0,1-1.05.865,3.993,3.993,0,0,1-1.62.3h-2.13l.72-.71V0Zm4.45,0-1.75-2.54h1.73L17.465,0Zm-2.83-2.48-.72-.76H14.2a1.658,1.658,0,0,0,1.12-.325,1.129,1.129,0,0,0,.37-.895,1.126,1.126,0,0,0-.37-.9,1.676,1.676,0,0,0-1.12-.32h-2.04l.72-.77ZM17.695,0l3.12-7h1.6l3.13,7h-1.7l-2.56-6.18h.64L19.355,0Zm1.56-1.5.43-1.23h3.6l.44,1.23ZM26.275,0V-7h3.18a4.438,4.438,0,0,1,2.01.435,3.321,3.321,0,0,1,1.36,1.215,3.406,3.406,0,0,1,.49,1.85,3.412,3.412,0,0,1-.49,1.845,3.309,3.309,0,0,1-1.36,1.22A4.438,4.438,0,0,1,29.455,0ZM27.9-1.33h1.48A2.623,2.623,0,0,0,30.59-1.6a1.922,1.922,0,0,0,.8-.755,2.247,2.247,0,0,0,.285-1.15,2.24,2.24,0,0,0-.285-1.155,1.932,1.932,0,0,0-.8-.75,2.623,2.623,0,0,0-1.215-.265H27.9ZM-41.445,13V6h3.03a3.936,3.936,0,0,1,1.62.305,2.372,2.372,0,0,1,1.05.875,2.443,2.443,0,0,1,.37,1.36,2.4,2.4,0,0,1-.37,1.345,2.353,2.353,0,0,1-1.05.865,3.993,3.993,0,0,1-1.62.3h-2.13l.72-.71V13Zm4.45,0-1.75-2.54h1.73l1.77,2.54Zm-2.83-2.48-.72-.76h2.04a1.658,1.658,0,0,0,1.12-.325,1.129,1.129,0,0,0,.37-.895,1.126,1.126,0,0,0-.37-.9,1.676,1.676,0,0,0-1.12-.32h-2.04l.72-.77Zm4.81,2.48,3.12-7h1.6l3.13,7h-1.7l-2.56-6.18h.64L-33.355,13Zm1.56-1.5.43-1.23h3.6l.44,1.23Zm7.02,1.5V6h3.03a3.936,3.936,0,0,1,1.62.305,2.372,2.372,0,0,1,1.05.875,2.443,2.443,0,0,1,.37,1.36,2.424,2.424,0,0,1-.37,1.35,2.372,2.372,0,0,1-1.05.875,3.936,3.936,0,0,1-1.62.3h-2.13l.72-.73V13Zm1.62-2.48-.72-.77h2.04a1.676,1.676,0,0,0,1.12-.32A1.114,1.114,0,0,0-22,8.54a1.126,1.126,0,0,0-.37-.9,1.676,1.676,0,0,0-1.12-.32h-2.04l.72-.77Zm5.6,2.48V6h3.03a3.936,3.936,0,0,1,1.62.305,2.372,2.372,0,0,1,1.05.875,2.443,2.443,0,0,1,.37,1.36,2.424,2.424,0,0,1-.37,1.35,2.372,2.372,0,0,1-1.05.875,3.936,3.936,0,0,1-1.62.3h-2.13l.72-.73V13Zm1.62-2.48-.72-.77h2.04a1.676,1.676,0,0,0,1.12-.32,1.114,1.114,0,0,0,.37-.89,1.126,1.126,0,0,0-.37-.9,1.676,1.676,0,0,0-1.12-.32h-2.04l.72-.77Zm9.1,2.6a4.257,4.257,0,0,1-1.535-.27,3.632,3.632,0,0,1-1.22-.76,3.468,3.468,0,0,1-.8-1.15,3.594,3.594,0,0,1-.285-1.44,3.594,3.594,0,0,1,.285-1.44,3.434,3.434,0,0,1,.8-1.15,3.7,3.7,0,0,1,1.22-.76A4.188,4.188,0,0,1-8.5,5.88a4.177,4.177,0,0,1,1.525.27,3.654,3.654,0,0,1,1.21.76,3.546,3.546,0,0,1,.805,1.145A3.53,3.53,0,0,1-4.675,9.5a3.575,3.575,0,0,1-.29,1.445A3.462,3.462,0,0,1-5.77,12.1a3.7,3.7,0,0,1-1.21.755A4.149,4.149,0,0,1-8.495,13.12Zm-.01-1.38a2.283,2.283,0,0,0,.865-.16,2.074,2.074,0,0,0,.7-.46,2.1,2.1,0,0,0,.465-.71,2.417,2.417,0,0,0,.165-.91,2.417,2.417,0,0,0-.165-.91,2.139,2.139,0,0,0-.46-.71,2.01,2.01,0,0,0-.695-.46,2.321,2.321,0,0,0-.87-.16,2.283,2.283,0,0,0-.865.16,2.074,2.074,0,0,0-.695.46,2.1,2.1,0,0,0-.465.71,2.417,2.417,0,0,0-.165.91,2.428,2.428,0,0,0,.165.9,2.128,2.128,0,0,0,.46.715,2.01,2.01,0,0,0,.695.46A2.321,2.321,0,0,0-8.5,11.74ZM-3.455,13V6h3.03a3.936,3.936,0,0,1,1.62.305,2.372,2.372,0,0,1,1.05.875,2.443,2.443,0,0,1,.37,1.36,2.4,2.4,0,0,1-.37,1.345,2.353,2.353,0,0,1-1.05.865,3.993,3.993,0,0,1-1.62.3h-2.13l.72-.71V13ZM1,13l-1.75-2.54H.975L2.745,13Zm-2.83-2.48-.72-.76h2.04a1.658,1.658,0,0,0,1.12-.325,1.129,1.129,0,0,0,.37-.895,1.126,1.126,0,0,0-.37-.9,1.676,1.676,0,0,0-1.12-.32h-2.04l.72-.77ZM5.245,13V7.32H3.005V6h6.1V7.32H6.865V13Zm6.22-4.18h3.37v1.26h-3.37Zm.12,2.88H15.4V13H9.975V6h5.29V7.3h-3.68Zm5.1,1.3V6h3.03a3.936,3.936,0,0,1,1.62.305,2.372,2.372,0,0,1,1.05.875,2.443,2.443,0,0,1,.37,1.36,2.4,2.4,0,0,1-.37,1.345,2.353,2.353,0,0,1-1.05.865,3.993,3.993,0,0,1-1.62.3h-2.13l.72-.71V13Zm4.45,0-1.75-2.54h1.73L22.885,13Zm-2.83-2.48-.72-.76h2.04a1.658,1.658,0,0,0,1.12-.325,1.129,1.129,0,0,0,.37-.895,1.126,1.126,0,0,0-.37-.9,1.676,1.676,0,0,0-1.12-.32h-2.04l.72-.77ZM24.035,13V6h1.62v7Zm3.28,0V6h1.34l4.13,5.04h-.65V6h1.6v7h-1.33l-4.14-5.04h.65V13Zm11.46.12a4.247,4.247,0,0,1-1.525-.265,3.589,3.589,0,0,1-1.21-.755,3.468,3.468,0,0,1-.8-1.15,3.831,3.831,0,0,1,0-2.9,3.434,3.434,0,0,1,.805-1.15,3.633,3.633,0,0,1,1.22-.755,4.645,4.645,0,0,1,3.215.045,3.317,3.317,0,0,1,1.255.9l-1.04.96a2.538,2.538,0,0,0-.83-.6,2.438,2.438,0,0,0-.98-.195,2.593,2.593,0,0,0-.93.16A2.048,2.048,0,0,0,36.76,8.59a2.417,2.417,0,0,0-.165.91,2.389,2.389,0,0,0,.165.9,2.118,2.118,0,0,0,.47.715,2.047,2.047,0,0,0,.72.465,2.524,2.524,0,0,0,.915.16,2.88,2.88,0,0,0,.935-.155,2.7,2.7,0,0,0,.885-.525l.92,1.17a4.22,4.22,0,0,1-1.325.66A5.142,5.142,0,0,1,38.775,13.12Zm1.35-1.1V9.39H41.6v2.84Z" transform="translate(446.5 271.006)" fill="#3c9bcd"/>
      <path id="Path_5577" data-name="Path 5577" d="M-15.31,0V-7h1.34l2.98,4.94h-.71L-8.77-7h1.33l.02,7H-8.94l-.01-4.67h.28L-11.01-.74h-.73l-2.39-3.93h.34V0ZM-2.65.12A3.171,3.171,0,0,1-4.98-.71a3.184,3.184,0,0,1-.84-2.37V-7H-4.2v3.86A2.076,2.076,0,0,0-3.79-1.7a1.5,1.5,0,0,0,1.15.44A1.5,1.5,0,0,0-1.49-1.7a2.076,2.076,0,0,0,.41-1.44V-7H.52v3.92A3.184,3.184,0,0,1-.32-.71,3.171,3.171,0,0,1-2.65.12ZM2.12,0V-7H3.74v5.68H7.25V0ZM8.96,0V-5.68H6.72V-7h6.1v1.32H10.58V0Zm4.73,0V-7h1.62V0ZM-23.085,13V7.32h-2.24V6h6.1V7.32h-2.24V13Zm6.22-4.18h3.37v1.26h-3.37Zm.12,2.88h3.81V13h-5.42V6h5.29V7.3h-3.68Zm5.1,1.3V6h1.34l4.13,5.04h-.65V6h1.6v7h-1.33l-4.14-5.04h.65V13Zm7.16,0,3.12-7h1.6l3.13,7h-1.7L-.9,6.82h.64L-2.825,13Zm1.56-1.5.43-1.23H1.1l.44,1.23ZM4.095,13V6h1.34l4.13,5.04h-.65V6h1.6v7H9.185L5.045,7.96h.65V13Zm11.43.12a4.189,4.189,0,0,1-1.505-.265,3.5,3.5,0,0,1-2-1.9,3.831,3.831,0,0,1,0-2.9,3.468,3.468,0,0,1,.8-1.15,3.6,3.6,0,0,1,1.2-.755,4.178,4.178,0,0,1,1.51-.265A4.136,4.136,0,0,1,17.18,6.2a3.2,3.2,0,0,1,1.235.925l-1.04.96a2.434,2.434,0,0,0-.8-.615,2.245,2.245,0,0,0-.96-.2,2.455,2.455,0,0,0-.9.16,2.04,2.04,0,0,0-.71.46,2.1,2.1,0,0,0-.465.71,2.592,2.592,0,0,0,0,1.82,2.1,2.1,0,0,0,.465.71,2.04,2.04,0,0,0,.71.46,2.455,2.455,0,0,0,.9.16,2.245,2.245,0,0,0,.96-.2,2.381,2.381,0,0,0,.8-.625l1.04.96a3.25,3.25,0,0,1-1.235.93A4.106,4.106,0,0,1,15.525,13.12Zm5.65-.12V10.14l.37.98L18.465,6h1.72l2.36,3.93h-.99L23.925,6h1.59l-3.08,5.12.36-.98V13Z" transform="translate(446 413.097)" fill="#fa690f"/>
      <path id="Path_5576" data-name="Path 5576" d="M-7.9-7h1.62V0H-7.9Zm-3.18,7H-12.7V-7h1.62Zm3.3-2.87H-11.2V-4.24h3.42ZM-1.22.12A4.257,4.257,0,0,1-2.755-.15a3.632,3.632,0,0,1-1.22-.76,3.468,3.468,0,0,1-.8-1.15A3.594,3.594,0,0,1-5.06-3.5a3.594,3.594,0,0,1,.285-1.44,3.434,3.434,0,0,1,.8-1.15,3.7,3.7,0,0,1,1.22-.76,4.188,4.188,0,0,1,1.52-.27A4.177,4.177,0,0,1,.3-6.85a3.654,3.654,0,0,1,1.21.76A3.546,3.546,0,0,1,2.31-4.945,3.53,3.53,0,0,1,2.6-3.5a3.575,3.575,0,0,1-.29,1.445A3.462,3.462,0,0,1,1.505-.9,3.7,3.7,0,0,1,.3-.15,4.149,4.149,0,0,1-1.22.12Zm-.01-1.38a2.283,2.283,0,0,0,.865-.16,2.074,2.074,0,0,0,.7-.46A2.1,2.1,0,0,0,.8-2.59,2.417,2.417,0,0,0,.96-3.5,2.417,2.417,0,0,0,.8-4.41a2.139,2.139,0,0,0-.46-.71A2.01,2.01,0,0,0-.36-5.58a2.321,2.321,0,0,0-.87-.16,2.283,2.283,0,0,0-.865.16,2.074,2.074,0,0,0-.695.46,2.1,2.1,0,0,0-.465.71,2.417,2.417,0,0,0-.165.91,2.428,2.428,0,0,0,.165.9,2.128,2.128,0,0,0,.46.715,2.01,2.01,0,0,0,.695.46A2.321,2.321,0,0,0-1.23-1.26ZM-.22-7.62a.685.685,0,0,1-.49-.19.658.658,0,0,1-.2-.5.658.658,0,0,1,.2-.5A.685.685,0,0,1-.22-9a.7.7,0,0,1,.495.19.65.65,0,0,1,.2.5.65.65,0,0,1-.2.5A.7.7,0,0,1-.22-7.62Zm-2.02,0a.7.7,0,0,1-.5-.19.65.65,0,0,1-.205-.5.65.65,0,0,1,.205-.5A.7.7,0,0,1-2.24-9a.685.685,0,0,1,.49.19.658.658,0,0,1,.2.5.658.658,0,0,1-.2.5A.685.685,0,0,1-2.24-7.62ZM7.2.12A4.247,4.247,0,0,1,5.675-.145,3.589,3.589,0,0,1,4.465-.9a3.468,3.468,0,0,1-.8-1.15A3.619,3.619,0,0,1,3.38-3.5a3.619,3.619,0,0,1,.285-1.45A3.434,3.434,0,0,1,4.47-6.1a3.633,3.633,0,0,1,1.22-.755A4.317,4.317,0,0,1,7.23-7.12a4.323,4.323,0,0,1,1.675.31,3.317,3.317,0,0,1,1.255.9l-1.04.96a2.538,2.538,0,0,0-.83-.6,2.438,2.438,0,0,0-.98-.195,2.593,2.593,0,0,0-.93.16,2.072,2.072,0,0,0-.725.46,2.065,2.065,0,0,0-.47.71,2.417,2.417,0,0,0-.165.91,2.389,2.389,0,0,0,.165.9,2.118,2.118,0,0,0,.47.715,2.047,2.047,0,0,0,.72.465,2.524,2.524,0,0,0,.915.16,2.88,2.88,0,0,0,.935-.155A2.7,2.7,0,0,0,9.11-1.94l.92,1.17a4.22,4.22,0,0,1-1.325.66A5.142,5.142,0,0,1,7.2.12ZM8.55-.98V-3.61h1.48V-.77Zm-33.655,14.1a5.711,5.711,0,0,1-1.61-.225,3.767,3.767,0,0,1-1.24-.585l.55-1.22a4.018,4.018,0,0,0,1.065.525,3.914,3.914,0,0,0,1.245.2,2.593,2.593,0,0,0,.775-.095.907.907,0,0,0,.435-.265.6.6,0,0,0,.14-.39.527.527,0,0,0-.22-.445,1.806,1.806,0,0,0-.58-.27q-.36-.1-.8-.2t-.87-.235a3.68,3.68,0,0,1-.8-.36,1.769,1.769,0,0,1-.585-.58,1.71,1.71,0,0,1-.225-.92,1.953,1.953,0,0,1,.325-1.095,2.223,2.223,0,0,1,.98-.79,4.012,4.012,0,0,1,1.645-.3,5.5,5.5,0,0,1,1.3.155,3.746,3.746,0,0,1,1.13.465l-.5,1.23a4.255,4.255,0,0,0-.98-.415,3.6,3.6,0,0,0-.96-.135,2.271,2.271,0,0,0-.77.11.908.908,0,0,0-.43.285.661.661,0,0,0-.13.405.518.518,0,0,0,.22.435,1.737,1.737,0,0,0,.58.265q.36.1.8.2t.87.23a3.364,3.364,0,0,1,.8.35,1.769,1.769,0,0,1,.585.58,1.689,1.689,0,0,1,.225.91,1.892,1.892,0,0,1-.33,1.08,2.305,2.305,0,0,1-.985.79A3.982,3.982,0,0,1-25.105,13.12Zm3.16-.12,3.12-7h1.6l3.13,7h-1.7l-2.56-6.18h.64L-20.285,13Zm1.56-1.5.43-1.23h3.6l.44,1.23Zm3.37-6.12a.685.685,0,0,1-.49-.19.658.658,0,0,1-.2-.5.658.658,0,0,1,.2-.5.685.685,0,0,1,.49-.19.7.7,0,0,1,.495.19.65.65,0,0,1,.205.5.65.65,0,0,1-.205.5A.7.7,0,0,1-17.015,5.38Zm-2.02,0a.7.7,0,0,1-.495-.19.65.65,0,0,1-.205-.5.65.65,0,0,1,.205-.5A.7.7,0,0,1-19.035,4a.685.685,0,0,1,.49.19.658.658,0,0,1,.2.5.658.658,0,0,1-.2.5A.685.685,0,0,1-19.035,5.38Zm7.12,6.02-.09-1.87L-8.655,6h1.8l-3.02,3.25-.9.96Zm-1.45,1.6V6h1.61v7Zm4.79,0-2.49-3.05,1.06-1.15,3.32,4.2Zm4.1-4.18h3.37v1.26h-3.37Zm.12,2.88h3.81V13h-5.42V6h5.29V7.3h-3.68ZM.745,13V6h3.03a3.936,3.936,0,0,1,1.62.305,2.372,2.372,0,0,1,1.05.875,2.443,2.443,0,0,1,.37,1.36,2.4,2.4,0,0,1-.37,1.345,2.353,2.353,0,0,1-1.05.865,3.993,3.993,0,0,1-1.62.3H1.645l.72-.71V13Zm4.45,0-1.75-2.54h1.73L6.945,13Zm-2.83-2.48-.72-.76h2.04A1.658,1.658,0,0,0,4.8,9.435a1.129,1.129,0,0,0,.37-.895,1.126,1.126,0,0,0-.37-.9,1.676,1.676,0,0,0-1.12-.32H1.645l.72-.77ZM12.895,6h1.62v7h-1.62Zm-3.18,7H8.095V6h1.62Zm3.3-2.87H9.595V8.76h3.42Zm4.65-1.31h3.37v1.26h-3.37Zm.12,2.88H21.6V13h-5.42V6h5.29V7.3h-3.68Zm6.55,1.3V7.32H22.1V6h6.1V7.32h-2.24V13Z" transform="translate(590 272.013)" fill="#32cd32"/>
      <path id="Path_5575" data-name="Path 5575" d="M-23.92-3.85h3.36v1.3h-3.36ZM-23.8,0h-1.62V-7h5.29v1.3H-23.8Zm4.77,0V-7h1.62v5.68h3.51V0Zm7.53-4.18h3.37v1.26H-11.5Zm.12,2.88h3.81V0h-5.42V-7H-7.7v1.3h-3.68ZM-7.15,0l3.01-4.15v1.18L-7.02-7h1.84l1.99,2.81-.77.01L-2-7H-.24L-3.1-3.04V-4.2L-.07,0H-1.94L-4-2.97h.74L-5.29,0ZM.57,0V-7H2.19V0ZM3.85,0V-7H7.27a3.281,3.281,0,0,1,1.985.5A1.573,1.573,0,0,1,9.92-5.18a1.681,1.681,0,0,1-.27.955,1.768,1.768,0,0,1-.74.625,2.52,2.52,0,0,1-1.08.22l.19-.41a2.99,2.99,0,0,1,1.17.215,1.759,1.759,0,0,1,.8.635,1.792,1.792,0,0,1,.285,1.03A1.628,1.628,0,0,1,9.56-.5,3.6,3.6,0,0,1,7.47,0ZM5.46-1.22H7.35a1.807,1.807,0,0,0,.955-.2A.717.717,0,0,0,8.63-2.08a.731.731,0,0,0-.325-.655A1.739,1.739,0,0,0,7.35-2.95H5.34V-4.13H7.07a1.661,1.661,0,0,0,.9-.2A.694.694,0,0,0,8.29-4.96a.685.685,0,0,0-.315-.615,1.661,1.661,0,0,0-.9-.205H5.46Zm7.53-2.96h3.37v1.26H12.99Zm.12,2.88h3.81V0H11.5V-7h5.29v1.3H13.11ZM18.21,0V-7h1.62v5.68h3.51V0ZM-46.695,13l3.12-7h1.6l3.13,7h-1.7L-43.1,6.82h.64L-45.035,13Zm1.56-1.5.43-1.23h3.6l.44,1.23Zm7.02,1.5V6h3.18a4.438,4.438,0,0,1,2.01.435,3.321,3.321,0,0,1,1.36,1.215,3.406,3.406,0,0,1,.49,1.85,3.412,3.412,0,0,1-.49,1.845,3.309,3.309,0,0,1-1.36,1.22,4.438,4.438,0,0,1-2.01.435Zm1.62-1.33h1.48A2.623,2.623,0,0,0-33.8,11.4a1.922,1.922,0,0,0,.8-.755,2.247,2.247,0,0,0,.285-1.15A2.24,2.24,0,0,0-33,8.345a1.931,1.931,0,0,0-.8-.75,2.623,2.623,0,0,0-1.215-.265h-1.48Zm6.64,1.33V6h1.34l2.98,4.94h-.71L-23.315,6h1.33l.02,7h-1.52l-.01-4.67h.28l-2.34,3.93h-.73l-2.39-3.93h.34V13Zm9.55,0V6h1.62v7Zm3.28,0V6h1.34l4.13,5.04h-.65V6h1.6v7h-1.33l-4.14-5.04h.65V13Zm8.08,0V6h1.62v7Zm5.58.12a5.711,5.711,0,0,1-1.61-.225,3.767,3.767,0,0,1-1.24-.585l.55-1.22a4.018,4.018,0,0,0,1.065.525,3.914,3.914,0,0,0,1.245.2,2.593,2.593,0,0,0,.775-.095.907.907,0,0,0,.435-.265A.6.6,0,0,0-2,11.07a.527.527,0,0,0-.22-.445,1.806,1.806,0,0,0-.58-.27q-.36-.1-.795-.2t-.87-.235a3.68,3.68,0,0,1-.8-.36,1.769,1.769,0,0,1-.585-.58,1.71,1.71,0,0,1-.225-.92A1.953,1.953,0,0,1-5.75,6.965a2.223,2.223,0,0,1,.98-.79,4.012,4.012,0,0,1,1.645-.3,5.5,5.5,0,0,1,1.3.155A3.746,3.746,0,0,1-.695,6.5l-.5,1.23a4.255,4.255,0,0,0-.98-.415,3.6,3.6,0,0,0-.96-.135,2.271,2.271,0,0,0-.77.11.908.908,0,0,0-.43.285.661.661,0,0,0-.13.405.518.518,0,0,0,.22.435,1.737,1.737,0,0,0,.58.265q.36.1.8.2t.87.23a3.364,3.364,0,0,1,.8.35,1.769,1.769,0,0,1,.585.58,1.689,1.689,0,0,1,.225.91,1.892,1.892,0,0,1-.33,1.08,2.305,2.305,0,0,1-.985.79A3.982,3.982,0,0,1-3.365,13.12ZM2.065,13V7.32H-.175V6h6.1V7.32H3.685V13ZM6.8,13V6h3.03a3.936,3.936,0,0,1,1.62.305,2.372,2.372,0,0,1,1.05.875,2.443,2.443,0,0,1,.37,1.36,2.4,2.4,0,0,1-.37,1.345,2.353,2.353,0,0,1-1.05.865,3.993,3.993,0,0,1-1.62.3H7.7l.72-.71V13Zm4.45,0-1.75-2.54h1.73L13,13Zm-2.83-2.48L7.7,9.76h2.04a1.658,1.658,0,0,0,1.12-.325,1.129,1.129,0,0,0,.37-.895,1.126,1.126,0,0,0-.37-.9,1.676,1.676,0,0,0-1.12-.32H7.7l.72-.77ZM13.225,13l3.12-7h1.6l3.13,7h-1.7l-2.56-6.18h.64L14.885,13Zm1.56-1.5.43-1.23h3.6l.44,1.23Zm8.12,1.5V7.32h-2.24V6h6.1V7.32h-2.24V13Zm4.73,0V6h1.62v7Zm6.68.12a4.257,4.257,0,0,1-1.535-.27,3.632,3.632,0,0,1-1.22-.76,3.468,3.468,0,0,1-.8-1.15,3.78,3.78,0,0,1,0-2.88,3.434,3.434,0,0,1,.805-1.15,3.7,3.7,0,0,1,1.22-.76,4.428,4.428,0,0,1,3.045,0,3.654,3.654,0,0,1,1.21.76,3.654,3.654,0,0,1,.805,4.035,3.462,3.462,0,0,1-.805,1.15,3.7,3.7,0,0,1-1.21.755A4.149,4.149,0,0,1,34.315,13.12Zm-.01-1.38a2.283,2.283,0,0,0,.865-.16,2.074,2.074,0,0,0,.695-.46,2.1,2.1,0,0,0,.465-.71,2.592,2.592,0,0,0,0-1.82,2.139,2.139,0,0,0-.46-.71,2.01,2.01,0,0,0-.695-.46,2.321,2.321,0,0,0-.87-.16,2.283,2.283,0,0,0-.865.16,2.074,2.074,0,0,0-.695.46,2.1,2.1,0,0,0-.465.71,2.578,2.578,0,0,0,0,1.815,2.128,2.128,0,0,0,.46.715,2.01,2.01,0,0,0,.695.46A2.321,2.321,0,0,0,34.305,11.74ZM39.355,13V6h1.34l4.13,5.04h-.65V6h1.6v7h-1.33L40.3,7.96h.65V13Z" transform="translate(734 413.097)" fill="#3c9bcd"/>
      <path id="Path_5574" data-name="Path 5574" d="M-30.45.12A5.711,5.711,0,0,1-32.06-.1,3.767,3.767,0,0,1-33.3-.69l.55-1.22a4.018,4.018,0,0,0,1.065.525,3.914,3.914,0,0,0,1.245.2,2.593,2.593,0,0,0,.775-.095.907.907,0,0,0,.435-.265.6.6,0,0,0,.14-.39.527.527,0,0,0-.22-.445,1.806,1.806,0,0,0-.58-.27q-.36-.1-.8-.2t-.87-.235a3.68,3.68,0,0,1-.8-.36,1.769,1.769,0,0,1-.585-.58,1.71,1.71,0,0,1-.225-.92,1.953,1.953,0,0,1,.325-1.095,2.223,2.223,0,0,1,.98-.79,4.012,4.012,0,0,1,1.645-.3,5.5,5.5,0,0,1,1.3.155,3.746,3.746,0,0,1,1.13.465l-.5,1.23a4.255,4.255,0,0,0-.98-.415,3.6,3.6,0,0,0-.96-.135,2.271,2.271,0,0,0-.77.11.908.908,0,0,0-.43.285.661.661,0,0,0-.13.405.518.518,0,0,0,.22.435,1.737,1.737,0,0,0,.58.265q.36.1.8.2t.87.23a3.364,3.364,0,0,1,.8.35,1.769,1.769,0,0,1,.585.58,1.689,1.689,0,0,1,.225.91,1.892,1.892,0,0,1-.33,1.08,2.305,2.305,0,0,1-.985.79A3.982,3.982,0,0,1-30.45.12ZM-27.29,0l3.12-7h1.6l3.13,7h-1.7L-23.7-6.18h.64L-25.63,0Zm1.56-1.5.43-1.23h3.6l.44,1.23Zm8.52-2.35h3.36v1.3h-3.36ZM-17.09,0h-1.62V-7h5.29v1.3h-3.67Zm6.26-4.18h3.37v1.26h-3.37Zm.12,2.88H-6.9V0h-5.42V-7h5.29v1.3h-3.68ZM-3.31.12A5.711,5.711,0,0,1-4.92-.1,3.767,3.767,0,0,1-6.16-.69l.55-1.22a4.018,4.018,0,0,0,1.065.525,3.914,3.914,0,0,0,1.245.2,2.593,2.593,0,0,0,.775-.095A.907.907,0,0,0-2.09-1.54a.6.6,0,0,0,.14-.39.527.527,0,0,0-.22-.445,1.806,1.806,0,0,0-.58-.27q-.36-.1-.795-.2t-.87-.235a3.68,3.68,0,0,1-.8-.36A1.769,1.769,0,0,1-5.8-4.02a1.71,1.71,0,0,1-.225-.92A1.953,1.953,0,0,1-5.7-6.035a2.223,2.223,0,0,1,.98-.79,4.012,4.012,0,0,1,1.645-.3,5.5,5.5,0,0,1,1.3.155A3.746,3.746,0,0,1-.64-6.5l-.5,1.23a4.255,4.255,0,0,0-.98-.415,3.6,3.6,0,0,0-.96-.135,2.271,2.271,0,0,0-.77.11.908.908,0,0,0-.43.285.661.661,0,0,0-.13.405.518.518,0,0,0,.22.435,1.737,1.737,0,0,0,.58.265q.36.1.8.2t.87.23a3.364,3.364,0,0,1,.8.35,1.769,1.769,0,0,1,.585.58,1.689,1.689,0,0,1,.225.91A1.892,1.892,0,0,1-.67-.97a2.305,2.305,0,0,1-.985.79A3.982,3.982,0,0,1-3.31.12ZM.77,0V-7H3.8a3.936,3.936,0,0,1,1.62.305,2.372,2.372,0,0,1,1.05.875,2.443,2.443,0,0,1,.37,1.36,2.424,2.424,0,0,1-.37,1.35,2.372,2.372,0,0,1-1.05.875,3.936,3.936,0,0,1-1.62.3H1.67l.72-.73V0ZM2.39-2.48l-.72-.77H3.71a1.676,1.676,0,0,0,1.12-.32,1.114,1.114,0,0,0,.37-.89,1.126,1.126,0,0,0-.37-.9,1.676,1.676,0,0,0-1.12-.32H1.67l.72-.77ZM7.99,0V-7h3.03a3.936,3.936,0,0,1,1.62.305,2.372,2.372,0,0,1,1.05.875,2.443,2.443,0,0,1,.37,1.36,2.4,2.4,0,0,1-.37,1.345,2.353,2.353,0,0,1-1.05.865,3.993,3.993,0,0,1-1.62.3H8.89l.72-.71V0Zm4.45,0L10.69-2.54h1.73L14.19,0ZM9.61-2.48l-.72-.76h2.04a1.658,1.658,0,0,0,1.12-.325,1.129,1.129,0,0,0,.37-.895,1.126,1.126,0,0,0-.37-.9,1.676,1.676,0,0,0-1.12-.32H8.89l.72-.77ZM15.34,0V-7h1.62V0Zm3.28,0V-7h1.34l4.13,5.04h-.65V-7h1.6V0H23.71L19.57-5.04h.65V0ZM30.08.12a4.247,4.247,0,0,1-1.525-.265A3.589,3.589,0,0,1,27.345-.9a3.468,3.468,0,0,1-.8-1.15A3.619,3.619,0,0,1,26.26-3.5a3.619,3.619,0,0,1,.285-1.45A3.434,3.434,0,0,1,27.35-6.1a3.633,3.633,0,0,1,1.22-.755,4.317,4.317,0,0,1,1.54-.265,4.323,4.323,0,0,1,1.675.31,3.317,3.317,0,0,1,1.255.9L32-4.95a2.538,2.538,0,0,0-.83-.6,2.438,2.438,0,0,0-.98-.195,2.593,2.593,0,0,0-.93.16,2.072,2.072,0,0,0-.725.46,2.065,2.065,0,0,0-.47.71,2.417,2.417,0,0,0-.165.91,2.389,2.389,0,0,0,.165.9,2.118,2.118,0,0,0,.47.715,2.046,2.046,0,0,0,.72.465,2.524,2.524,0,0,0,.915.16,2.88,2.88,0,0,0,.935-.155,2.7,2.7,0,0,0,.885-.525l.92,1.17a4.22,4.22,0,0,1-1.325.66A5.142,5.142,0,0,1,30.08.12Zm1.35-1.1V-3.61h1.48V-.77ZM-47.025,13V6h1.62v7Zm3.28,0V6h1.34l4.13,5.04h-.65V6h1.6v7h-1.33L-42.8,7.96h.65V13Zm9.58-3.85h3.36v1.3h-3.36Zm.12,3.85h-1.62V6h5.29V7.3h-3.67Zm4.77,0V6h3.03a3.936,3.936,0,0,1,1.62.305,2.372,2.372,0,0,1,1.05.875,2.443,2.443,0,0,1,.37,1.36,2.4,2.4,0,0,1-.37,1.345,2.353,2.353,0,0,1-1.05.865,3.993,3.993,0,0,1-1.62.3h-2.13l.72-.71V13Zm4.45,0-1.75-2.54h1.73l1.77,2.54Zm-2.83-2.48-.72-.76h2.04a1.658,1.658,0,0,0,1.12-.325,1.129,1.129,0,0,0,.37-.895,1.126,1.126,0,0,0-.37-.9,1.676,1.676,0,0,0-1.12-.32h-2.04l.72-.77Zm4.81,2.48,3.12-7h1.6l3.13,7h-1.7l-2.56-6.18h.64L-21.185,13Zm1.56-1.5.43-1.23h3.6l.44,1.23Zm9.32,1.62a5.711,5.711,0,0,1-1.61-.225,3.767,3.767,0,0,1-1.24-.585l.55-1.22a4.018,4.018,0,0,0,1.065.525,3.914,3.914,0,0,0,1.245.2,2.593,2.593,0,0,0,.775-.095.907.907,0,0,0,.435-.265.6.6,0,0,0,.14-.39.527.527,0,0,0-.22-.445,1.806,1.806,0,0,0-.58-.27q-.36-.1-.795-.2t-.87-.235a3.68,3.68,0,0,1-.8-.36,1.769,1.769,0,0,1-.585-.58,1.71,1.71,0,0,1-.225-.92,1.953,1.953,0,0,1,.325-1.095,2.223,2.223,0,0,1,.98-.79,4.012,4.012,0,0,1,1.645-.3,5.5,5.5,0,0,1,1.3.155A3.746,3.746,0,0,1-9.3,6.5l-.5,1.23a4.255,4.255,0,0,0-.98-.415,3.6,3.6,0,0,0-.96-.135,2.271,2.271,0,0,0-.77.11.908.908,0,0,0-.43.285.661.661,0,0,0-.13.405.518.518,0,0,0,.22.435,1.737,1.737,0,0,0,.58.265q.36.1.8.2t.87.23a3.364,3.364,0,0,1,.8.35,1.769,1.769,0,0,1,.585.58A1.689,1.689,0,0,1-9,10.95a1.892,1.892,0,0,1-.33,1.08,2.305,2.305,0,0,1-.985.79A3.982,3.982,0,0,1-11.965,13.12Zm5.43-.12V7.32h-2.24V6h6.1V7.32h-2.24V13Zm4.73,0V6h3.03a3.936,3.936,0,0,1,1.62.305A2.372,2.372,0,0,1,3.9,7.18a2.443,2.443,0,0,1,.37,1.36A2.4,2.4,0,0,1,3.9,9.885a2.353,2.353,0,0,1-1.05.865,3.993,3.993,0,0,1-1.62.3H-.9l.72-.71V13Zm4.45,0L.9,10.46h1.73L4.4,13Zm-2.83-2.48L-.9,9.76h2.04a1.658,1.658,0,0,0,1.12-.325,1.129,1.129,0,0,0,.37-.895,1.126,1.126,0,0,0-.37-.9,1.676,1.676,0,0,0-1.12-.32H-.9l.72-.77Zm8.84,2.6a3.171,3.171,0,0,1-2.33-.83,3.184,3.184,0,0,1-.84-2.37V6h1.62V9.86a2.076,2.076,0,0,0,.41,1.44,1.5,1.5,0,0,0,1.15.44,1.5,1.5,0,0,0,1.15-.44,2.076,2.076,0,0,0,.41-1.44V6h1.6V9.92a3.184,3.184,0,0,1-.84,2.37A3.171,3.171,0,0,1,8.655,13.12Zm8.12,0a4.189,4.189,0,0,1-1.505-.265,3.5,3.5,0,0,1-2-1.9,3.831,3.831,0,0,1,0-2.9,3.468,3.468,0,0,1,.8-1.15,3.6,3.6,0,0,1,1.2-.755,4.178,4.178,0,0,1,1.51-.265A4.136,4.136,0,0,1,18.43,6.2a3.2,3.2,0,0,1,1.235.925l-1.04.96a2.434,2.434,0,0,0-.8-.615,2.245,2.245,0,0,0-.96-.2,2.455,2.455,0,0,0-.9.16,2.04,2.04,0,0,0-.71.46,2.1,2.1,0,0,0-.465.71,2.592,2.592,0,0,0,0,1.82,2.1,2.1,0,0,0,.465.71,2.04,2.04,0,0,0,.71.46,2.455,2.455,0,0,0,.9.16,2.245,2.245,0,0,0,.96-.2,2.381,2.381,0,0,0,.8-.625l1.04.96a3.25,3.25,0,0,1-1.235.93A4.106,4.106,0,0,1,16.775,13.12Zm5.36-.12V7.32H19.9V6h6.1V7.32h-2.24V13Zm7.72.12a3.171,3.171,0,0,1-2.33-.83,3.184,3.184,0,0,1-.84-2.37V6H28.3V9.86a2.076,2.076,0,0,0,.41,1.44,1.723,1.723,0,0,0,2.3,0,2.076,2.076,0,0,0,.41-1.44V6h1.6V9.92a3.184,3.184,0,0,1-.84,2.37A3.171,3.171,0,0,1,29.855,13.12Zm4.77-.12V6h3.03a3.936,3.936,0,0,1,1.62.305,2.372,2.372,0,0,1,1.05.875,2.443,2.443,0,0,1,.37,1.36,2.4,2.4,0,0,1-.37,1.345,2.353,2.353,0,0,1-1.05.865,3.993,3.993,0,0,1-1.62.3h-2.13l.72-.71V13Zm4.45,0-1.75-2.54h1.73L40.825,13Zm-2.83-2.48-.72-.76h2.04a1.658,1.658,0,0,0,1.12-.325,1.129,1.129,0,0,0,.37-.895,1.126,1.126,0,0,0-.37-.9,1.676,1.676,0,0,0-1.12-.32h-2.04l.72-.77Zm7.22-1.7h3.37v1.26h-3.37Zm.12,2.88H47.4V13h-5.42V6h5.29V7.3h-3.68Z" transform="translate(590 413.097)" fill="#417da5"/>
      <path id="Path_5573" data-name="Path 5573" d="M-23.275.12A3.171,3.171,0,0,1-25.6-.71a3.184,3.184,0,0,1-.84-2.37V-7h1.62v3.86a2.076,2.076,0,0,0,.41,1.44,1.5,1.5,0,0,0,1.15.44,1.5,1.5,0,0,0,1.15-.44,2.076,2.076,0,0,0,.41-1.44V-7h1.6v3.92a3.184,3.184,0,0,1-.84,2.37A3.171,3.171,0,0,1-23.275.12Zm6.1-.12V-5.68h-2.24V-7h6.1v1.32h-2.24V0Zm4.73,0V-7h1.34l2.98,4.94h-.71L-5.905-7h1.33l.02,7h-1.52l-.01-4.67h.28L-8.145-.74h-.73l-2.39-3.93h.34V0Zm8.63,0L-.7-7H.9l3.13,7h-1.7L-.225-6.18h.64L-2.155,0Zm1.56-1.5.43-1.23h3.6l.44,1.23Zm3.37-6.12a.685.685,0,0,1-.49-.19.658.658,0,0,1-.2-.5.658.658,0,0,1,.2-.5A.685.685,0,0,1,1.115-9a.7.7,0,0,1,.495.19.65.65,0,0,1,.2.5.65.65,0,0,1-.2.5A.7.7,0,0,1,1.115-7.62Zm-2.02,0a.7.7,0,0,1-.5-.19.65.65,0,0,1-.205-.5.65.65,0,0,1,.205-.5A.7.7,0,0,1-.905-9a.685.685,0,0,1,.49.19.658.658,0,0,1,.2.5.658.658,0,0,1-.2.5A.685.685,0,0,1-.905-7.62ZM4.765,0V-7h3.03a3.936,3.936,0,0,1,1.62.305,2.372,2.372,0,0,1,1.05.875,2.443,2.443,0,0,1,.37,1.36,2.4,2.4,0,0,1-.37,1.345,2.353,2.353,0,0,1-1.05.865,3.993,3.993,0,0,1-1.62.3H5.665l.72-.71V0Zm4.45,0L7.465-2.54h1.73L10.965,0ZM6.385-2.48l-.72-.76H7.7a1.658,1.658,0,0,0,1.12-.325,1.129,1.129,0,0,0,.37-.895,1.126,1.126,0,0,0-.37-.9A1.676,1.676,0,0,0,7.7-5.68H5.665l.72-.77Zm7.18.88-.09-1.87L16.825-7h1.8L15.6-3.75l-.9.96ZM12.115,0V-7h1.61V0ZM16.9,0l-2.49-3.05,1.06-1.15L18.8,0Zm3.58,0V-5.68h-2.24V-7h6.1v1.32H22.1V0ZM-32.27,13.12a5.711,5.711,0,0,1-1.61-.225,3.767,3.767,0,0,1-1.24-.585l.55-1.22a4.018,4.018,0,0,0,1.065.525,3.914,3.914,0,0,0,1.245.2,2.593,2.593,0,0,0,.775-.095.907.907,0,0,0,.435-.265.6.6,0,0,0,.14-.39.527.527,0,0,0-.22-.445,1.806,1.806,0,0,0-.58-.27q-.36-.1-.8-.2t-.87-.235a3.68,3.68,0,0,1-.8-.36,1.769,1.769,0,0,1-.585-.58,1.71,1.71,0,0,1-.225-.92,1.953,1.953,0,0,1,.325-1.095,2.223,2.223,0,0,1,.98-.79,4.012,4.012,0,0,1,1.645-.3,5.5,5.5,0,0,1,1.3.155A3.746,3.746,0,0,1-29.6,6.5l-.5,1.23a4.255,4.255,0,0,0-.98-.415,3.6,3.6,0,0,0-.96-.135,2.271,2.271,0,0,0-.77.11.908.908,0,0,0-.43.285.661.661,0,0,0-.13.405.518.518,0,0,0,.22.435,1.737,1.737,0,0,0,.58.265q.36.1.795.2t.87.23a3.364,3.364,0,0,1,.8.35,1.769,1.769,0,0,1,.585.58,1.689,1.689,0,0,1,.225.91,1.892,1.892,0,0,1-.33,1.08,2.305,2.305,0,0,1-.985.79A3.982,3.982,0,0,1-32.27,13.12Zm5.53-1.72-.09-1.87L-23.48,6h1.8L-24.7,9.25l-.9.96ZM-28.19,13V6h1.61v7Zm4.79,0-2.49-3.05,1.06-1.15,3.32,4.2Zm1.38,0,3.12-7h1.6l3.13,7h-1.7l-2.56-6.18h.64L-20.36,13Zm1.56-1.5.43-1.23h3.6l.44,1.23Zm7.02,1.5V6h1.62v5.68h3.51V13Zm6.04,0V6h3.42A3.281,3.281,0,0,1-2,6.5,1.573,1.573,0,0,1-1.33,7.82a1.681,1.681,0,0,1-.27.955,1.768,1.768,0,0,1-.74.625,2.52,2.52,0,0,1-1.08.22l.19-.41a2.99,2.99,0,0,1,1.17.215,1.759,1.759,0,0,1,.8.635A1.792,1.792,0,0,1-.98,11.09a1.628,1.628,0,0,1-.71,1.4A3.6,3.6,0,0,1-3.78,13Zm1.61-1.22H-3.9a1.807,1.807,0,0,0,.955-.2.717.717,0,0,0,.325-.655.731.731,0,0,0-.325-.655A1.739,1.739,0,0,0-3.9,10.05H-5.91V8.87h1.73a1.661,1.661,0,0,0,.9-.2A.694.694,0,0,0-2.96,8.04a.685.685,0,0,0-.315-.615,1.661,1.661,0,0,0-.9-.205H-5.79ZM-.67,13,2.45,6h1.6l3.13,7H5.48L2.92,6.82h.64L.99,13ZM.89,11.5l.43-1.23h3.6l.44,1.23ZM7.91,13V6h3.03a3.936,3.936,0,0,1,1.62.305,2.372,2.372,0,0,1,1.05.875,2.443,2.443,0,0,1,.37,1.36,2.4,2.4,0,0,1-.37,1.345,2.353,2.353,0,0,1-1.05.865,3.993,3.993,0,0,1-1.62.3H8.81l.72-.71V13Zm4.45,0-1.75-2.54h1.73L14.11,13ZM9.53,10.52l-.72-.76h2.04a1.658,1.658,0,0,0,1.12-.325,1.129,1.129,0,0,0,.37-.895,1.126,1.126,0,0,0-.37-.9,1.676,1.676,0,0,0-1.12-.32H8.81l.72-.77ZM20.06,6h1.62v7H20.06Zm-3.18,7H15.26V6h1.62Zm3.3-2.87H16.76V8.76h3.42Zm4.65-1.31H28.2v1.26H24.83Zm.12,2.88h3.81V13H23.34V6h5.29V7.3H24.95ZM31.5,13V7.32H29.26V6h6.1V7.32H33.12V13Z" transform="translate(734 272.109)" fill="#195f8c"/>
    </g>
  </g>
</svg>
