<svg xmlns="http://www.w3.org/2000/svg" width="387" height="387" viewBox="0 0 387 387"><g transform="translate(-233 -237)"><path fill="#f8f8f8" d="M233 237h387v387H233z"/><path fill="#606060" d="M387.27 391.27a15.7 15.7 0 0 1 15.69-15.7h70.62a15.7 15.7 0 0 1 15.7 15.7v78.46a15.7 15.7 0 0 1-15.7 15.7h-90.24a19.6 19.6 0 0 1-19.61-19.62v-66.7a7.85 7.85 0 0 1 15.69 0v66.7a3.92 3.92 0 1 0 7.85 0Zm15.69 5.88v19.62a5.87 5.87 0 0 0 5.89 5.88h58.84a5.87 5.87 0 0 0 5.89-5.88v-19.62a5.87 5.87 0 0 0-5.88-5.88h-58.86a5.87 5.87 0 0 0-5.88 5.88m0 45.12a3.94 3.94 0 0 0 3.92 3.92h23.55a3.92 3.92 0 1 0 0-7.84h-23.55a3.94 3.94 0 0 0-3.92 3.92m39.23 0a3.94 3.94 0 0 0 3.93 3.92h23.54a3.92 3.92 0 0 0 0-7.85h-23.54a3.94 3.94 0 0 0-3.93 3.93m-39.23 23.54a3.94 3.94 0 0 0 3.92 3.92h23.55a3.92 3.92 0 1 0 0-7.85h-23.55a3.94 3.94 0 0 0-3.92 3.93m39.23 0a3.94 3.94 0 0 0 3.93 3.92h23.54a3.92 3.92 0 0 0 0-7.85h-23.54a3.94 3.94 0 0 0-3.93 3.93"/></g></svg>