<svg xmlns="http://www.w3.org/2000/svg" xmlns:xlink="http://www.w3.org/1999/xlink" width="1366" height="1327.469" viewBox="0 0 1366 1327.469"><defs><linearGradient id="linear-gradient" x1="0.5" x2="0.5" y1="0.359" y2="1" gradientUnits="objectBoundingBox"><stop offset="0" stop-color="#195f8c" stop-opacity="0"/><stop offset="1" stop-color="#195f8c" stop-opacity="0.204"/></linearGradient></defs><g id="Karta" transform="translate(6 -1450.115)"><path id="Path_26" fill="rgba(25,95,140,0.2)" fill-rule="evenodd" d="m74.39 9.6 8.7-4.27 4.36-8.51 5.8-9.94 2.9-4.26 2.9-7.1 8.7-2.84a64 64 0 0 1 7.26-1.42c1.45-1.42 10.15-8.51 10.15-8.51h1.45l-4.35 7.1v7.1l1.45 5.68 1.45 1.42V-4.6s4.36 2.84 2.9 4.26c-2.9 1.42-5.8 5.68-5.8 5.68l-1.45 8.52-5.8 7.1 1.45 8.51 1.45 7.1-1.45 5.68 4.36 4.26-1.46 2.84 1.46 4.26 4.35 2.84h4.35c1.45 0 5.8-1.42 7.26-1.42s4.35 1.42 4.35 1.42l4.35 5.67v4.26s-1.45 2.84-1.45 4.26a20 20 0 0 0-2.9 4.26l-2.9 2.84-1.45 4.26-1.45 2.84-2.9-2.84s0-4.26-1.45-2.84c-1.45 0-2.9 2.84-2.9 2.84l1.45 2.84s1.45 4.25 0 4.25h-2.9l-1.45-5.68-4.35-1.41 2.9-5.68-2.9-1.42a4.5 4.5 0 0 0-2.9 1.42 60 60 0 0 1-1.45 7.1l-1.45 5.68a5 5 0 0 1 1.45 2.84 5 5 0 0 1-1.45 2.84v2.84s1.45 2.83 1.45 4.25a1.4 1.4 0 0 1-1.45 1.42v2.84a5 5 0 0 0-2.9 1.42l-2.9 1.42a5 5 0 0 0-2.9-1.42c-1.46 0-1.46-1.42-2.9 0l-1.46 1.42 1.46 1.42h2.9v2.84a1.4 1.4 0 0 1 1.45 1.42l-2.9 2.84-2.9 2.84-2.9 1.42s-2.9-1.42-2.9 0h-2.9c0 1.41 2.9 4.25 2.9 4.25l-5.8-5.67h-2.9l4.35 2.84 1.42 2.83 2.9 1.42-1.45 1.42-1.45 1.42-2.9 2.83a5 5 0 0 1-2.9 1.42h-4.36l1.45 1.42 2.9 1.42s1.45-1.42 1.45 0c-1.45 0-1.45 0-1.45 1.42v7.1l2.9 4.26 1.45 1.42v5.68a5 5 0 0 1-2.9 1.41l-5.8 1.42-1.45 2.84 2.9 1.42v2.84A5 5 0 0 1 83.1 170H86l4.36 1.42 5.8 7.1-1.45 5.68-2.9 2.84-2.9-5.68a1.4 1.4 0 0 0-1.45 1.42c-1.45 0-5.8 2.84-5.8 2.84s-2.9 1.42-4.36 1.42h-1.45l-4.36-1.42-5.8-2.84s-2.9-1.42-4.35-1.42-8.7-2.84-8.7-2.84l-2.9 1.42h-4.36l-2.9-1.42-2.9-4.26-1.45-2.84 4.35-2.84a1.4 1.4 0 0 0 1.45-1.41v-8.52a5 5 0 0 1 1.45-2.84s0-4.26-1.45-5.68v-5.68l-2.9-4.26a11 11 0 0 1-4.35-1.42 70 70 0 0 0-7.25-2.83v-4.26l-1.46-1.42s-2.9 0-2.9 1.42v1.42l-2.9-1.42s-2.9-4.26-2.9-5.68a3.1 3.1 0 0 0 2.9-2.84c1.46-1.42 2.9-4.26 2.9-5.68v-5.68s-1.45-1.42 0-1.42h1.44a58 58 0 0 1 5.8-4.26v-2.84s-1.45-2.84-1.45-4.26V97.6c0-2.83-5.8-8.51-5.8-8.51h-2.9v-7.1l1.45-5.68-1.45-9.93v-14.2l2.9-5.68 1.45-2.84 1.45 4.26a1.94 1.94 0 0 0 0 2.84h4.35l1.46 1.42 4.35 2.84 2.9 2.84 2.9 1.42h2.9l1.45-1.42v-1.42l-1.44-2.84a5 5 0 0 0-1.45-2.84l4.35-2.84 1.45-2.84a1.4 1.4 0 0 0-1.45-1.42h-4.35l-1.45-1.42-1.45-2.84s0-2.84 1.45-2.84a32 32 0 0 1 1.45-5.68s-1.45-2.84 1.45-2.84h4.35s1.45-2.84 2.9-2.84c0 0 1.45-1.41 1.45 0 1.45 0 0 4.26 0 4.26l-2.9 2.84a5 5 0 0 1 1.45 2.84v2.84l-2.9 4.26h1.46v2.84l4.35-1.42-1.45-1.42a1.94 1.94 0 0 1 0-2.84c1.45-1.42 1.45-2.84 2.9-2.84 0-1.42 0-1.42 2.9-1.42 1.45 0 4.35 2.84 4.35 2.84s1.45 1.42 0 1.42a5 5 0 0 1-1.45 2.84l2.9 4.26a4.6 4.6 0 0 0-2.9 1.42v1.42c0 1.41-4.35 2.83 0 2.83 2.9 0 2.9 0 2.9-1.42v-2.83h4.35l1.45 1.42v4.26s2.9 2.84 2.9 1.42 1.45 0 0-2.84c-1.45-1.42-1.45-4.26-1.45-4.26v-2.84c-1.45-1.42-2.9-1.42-2.9-2.84l-4.35-4.26v-8.51l1.45-2.84s0-2.84 1.45-4.26c1.45 0 0-1.42 1.45-1.42 2.9-1.42 1.45-1.42 4.35-1.42 1.45 0 4.36 1.42 5.8 1.42L86 22.37v-1.42c1.45 0 1.45-2.84 1.45-1.42 1.45 0 1.45 1.42 2.9 0a4.4 4.4 0 0 0 1.46-2.84 4.5 4.5 0 0 0 2.9-1.42 5 5 0 0 0-2.9-1.42s-2.9 0-4.35 1.42h-2.9c-1.45 1.42-1.45 1.42-4.36 1.42s-2.9 0-4.35 1.42a4.5 4.5 0 0 1-2.9 1.42h-4.36l-1.45-1.42h-1.45a5 5 0 0 0-2.9 1.42h-5.8c0 1.42-2.9 1.42-2.9 1.42h-1.46c0 1.42 1.45 1.42 0 2.84h-4.35l-1.45 1.42-1.45 2.84h-1.45l-1.45 4.25v1.43l-2.9 2.83-1.45 1.42 1.45 1.42v1.42l-1.45 1.42 1.45 2.84 2.9-1.42 1.45 2.84-1.45 2.84a5 5 0 0 1-2.9 1.42l-1.45-1.42-1.46-2.84v-2.84l-4.35 1.42v-1.42l-1.45-1.42a5 5 0 0 0-1.45-2.84l-2.9-4.26h1.45c0-1.42 0-1.42 1.45-2.84 0-1.42 2.9-4.26 2.9-4.26l1.45-4.25 2.9-2.84 1.45-2.84 2.9-4.26 2.9-2.84h4.35l2.9 1.42 2.9-2.84 5.8-1.42h1.45l4.36 1.42h8.7ZM42.47 160.06l-2.9-1.42a5 5 0 0 1-1.45 2.84l-1.46 4.25-1.45 1.42V170l-4.35 1.42a1.4 1.4 0 0 0 1.45 1.42h2.9a5 5 0 0 1 1.45-2.84l1.45-1.42c1.45 0 4.36 0 4.36-1.42zm75.45-38.33 1.45-1.42a5 5 0 0 0-1.45-2.84 1.4 1.4 0 0 1 1.45-1.42v-1.42h-1.45a1.4 1.4 0 0 0-1.45 1.42v2.84Zm39.17 38.33 1.45-1.42 1.46 1.42-1.46 1.41zm15.96 18.45h1.45v1.42l-1.45 1.42zm-4.35-2.84-1.45-1.42h4.35l1.45 1.42a1.4 1.4 0 0 0-1.45 1.42 5 5 0 0 1-2.9-1.42m7.25 0-1.45-2.84 1.45-1.42 1.45 1.42-1.45 1.42Zm30.48-8.52-1.46-1.42 1.46-1.42h2.9Zm-2.9 1.42v-4.26l1.45-1.42-1.45-1.42h-1.46l-1.45-2.83h-2.9l1.45-1.42h1.45l1.46-1.42s2.9-4.26 5.8-4.26h4.35l2.9-2.84v-1.42c1.45 0 0-2.84 0-2.84v-2.84l-4.35-2.84-5.8-2.84s0-2.84-1.45-2.84l1.45-2.84s2.9-4.25 5.8-5.67a4.5 4.5 0 0 1 2.9-1.42c1.45 0 2.9 1.42 4.35 2.84h5.8v-4.26c0-1.42 0 0-1.45-1.42l-1.45-1.42v-8.52c0-1.42-1.45-4.26-1.45-4.26a5 5 0 0 0-1.45-2.84l-1.45-2.84v-1.41a14 14 0 0 1 1.45-5.68c1.45-1.42 1.45-4.26 1.45-4.26l-1.45-1.42-5.8-1.42-1.45-1.42a1.4 1.4 0 0 0-1.45-1.42l-5.8 1.42a21 21 0 0 0-4.36 2.84c-2.9 0-2.9 0-4.35 1.42-2.9 1.42-2.9 2.84-4.35 4.26-1.45 0-2.9 2.84-2.9 2.84-1.45 1.42-1.45 1.42 0 2.84 0 1.41 1.45 0 1.45 0h2.9c1.45 0 1.45 1.41 0 1.41v1.42l-1.45 1.42v2.84a1.4 1.4 0 0 1-1.45 1.42l-2.9 2.84a1.4 1.4 0 0 0-1.46 1.42c0 1.42 0 1.42 1.46 2.84v1.42c0 1.42-1.46 2.84-1.46 1.42v-1.42h-5.8l2.9-2.84 1.46-1.42v-1.42h-5.8l1.44-1.42v-2.84l1.45-2.84s0-2.84 1.46-2.84a5 5 0 0 0 1.45-2.83c1.45 0 0-1.42 0-1.42h-2.9l-2.9 1.42a34 34 0 0 1-5.8 1.42h-1.45a1.4 1.4 0 0 0-1.46-1.42h-2.9a1.4 1.4 0 0 0-1.45 1.42s4.36 1.41 5.8 2.83h1.44v1.42s-1.45 2.84-2.9 2.84a1.4 1.4 0 0 1-1.45 1.42l-2.9 1.42 1.45 2.84v2.84l-2.9-1.42-4.35 2.84h-1.45a1.4 1.4 0 0 1-1.45-1.42l-1.46 2.84a64 64 0 0 0-7.25-1.42v2.84l2.9 1.42-2.9 1.42 5.8 2.84 1.45 1.42 1.45 4.26-1.45 1.42 2.9 2.84a4.4 4.4 0 0 0 1.45 2.84v7.1s-2.9 1.42-2.9 2.84h1.45l2.9 2.84 1.45 2.83a5 5 0 0 0-1.44 2.84l2.9 1.42h14.5l4.36-1.42s2.9 2.84 4.36 2.84a1.94 1.94 0 0 1 0 2.83 1.4 1.4 0 0 1-1.45 1.42l1.45 4.26c1.45 1.42 1.45 0 1.45 0l2.9 2.84a1.4 1.4 0 0 0 1.45 1.42h1.45a1.4 1.4 0 0 1 1.45 1.42h4.35a1.4 1.4 0 0 0 1.45-1.42h2.9zm0 7.1-1.46 1.42h1.46l2.9 1.42h1.45l1.45-1.42 1.45-2.84 4.35-1.42h4.35l1.46-1.42V170l-2.9-2.84h-8.7V170c-1.46 1.42-1.46 1.42-2.9 1.42h-1.46Zm-15.97 17.04h1.46l1.45-1.42-1.45-2.84-1.46-1.42-1.45-4.26-2.9-2.84-1.45-1.42-1.45 2.84-1.45 1.42-1.45 1.42s-4.36-1.42-5.8-2.84l-2.9-1.42a4.5 4.5 0 0 1-2.9-1.42l-1.45-1.42a1.4 1.4 0 0 0-1.45-1.42c0-1.42-1.46 0-2.9 0h-4.36a1.4 1.4 0 0 1-1.45 1.42c-1.45 1.42 0 4.26 0 4.26v1.42l1.45 2.84h-4.35l1.45 2.84a4.4 4.4 0 0 0 1.45 2.84l1.45 1.42 7.26 1.42h1.45l5.8 2.83 2.9 2.85h2.9l1.45-1.42 4.35-1.42h2.9l4.36 1.42h1.45v-4.26Zm-56.58-58.2-2.9-1.42-2.9-4.26-4.36-1.42-1.45-4.26c-1.45-1.42-1.45 0-1.45 0s0 2.84-1.45 4.26h-2.9l-2.9 2.84a34 34 0 0 1-5.8 1.42l-1.46 1.42-8.7-1.42-2.9 2.84v1.42l1.45 2.83 1.45 1.42h1.45v2.84l1.44 2.84a18 18 0 0 1 2.9 4.26c1.45 2.84 0 4.26 0 4.26l4.35 4.26 2.9 1.42a5 5 0 0 0 2.9 1.41v4.26l1.45 2.84 1.46-1.42 1.45-1.42 7.25 2.84s5.8 2.84 7.25 2.84l2.9-2.84c1.46-1.42 5.8-1.42 5.8-1.42a1.4 1.4 0 0 0 1.46-1.42c0-1.42 1.45-2.83 1.45-4.25a5 5 0 0 1 1.45-2.84v-2.84l-1.45-4.26 1.45-5.68-2.9-2.84-1.45-1.42v-2.84l2.9-1.42v-4.25l4.35-2.84 1.47-4.26a64 64 0 0 0-7.26-1.42c-2.9 0-1.45 0-1.45-1.42l-1.45-1.42-2.9 1.42c-1.45 0-1.45-2.84-1.45-2.84l-2.9 1.42h-4.35v1.42c-1.46 1.42 0 2.84 1.45 2.84 0 1.42 1.45 4.26 1.45 4.26l1.45 2.84Zm-2.9-19.88h2.9l1.45-2.84a5 5 0 0 0 1.45-2.84v-4.26l-1.45-1.42-1.45-2.84-1.46-4.26h-2.9v2.84a5 5 0 0 0 1.46 2.84l1.45 1.42v1.42l-1.45 1.42-1.46 2.84 1.46 2.84Zm7.25 70.98 1.45 4.26 1.45 2.84s2.9 1.42 2.9 0-1.45-2.84 0-4.26c0-1.42 1.45-4.26 1.45-5.68s1.46-2.84 1.46-4.26c1.45-1.42 2.9-4.26 2.9-5.68 0 0 1.45-2.84 1.45-4.26v-4.26l-1.45-4.25-1.46 2.84v2.84l-2.9 5.67-1.45 2.84-2.9 2.84v4.26l-1.45 1.42v1.42Zm-7.25-12.78 1.45 1.42s1.45 4.26 2.9 4.26l4.35-4.26v-2.84l1.45-2.84-4.35 1.42-2.9 2.84Zm-13.06 2.84 1.45 4.26a5 5 0 0 1 2.9 1.42l2.9 2.84a1.4 1.4 0 0 0 1.45 1.42l2.9-1.42 1.45-2.84h-2.9c-1.45 0-2.9-2.84-2.9-2.84h-1.45c-1.45 0-4.35-2.84-4.35-2.84Zm-23.22-4.26 2.9 1.42 1.45 1.42 2.9 1.42-2.9 2.84s1.45 2.84 2.9 1.42h1.45l2.9 1.42a5.4 5.4 0 0 0 4.35 1.42 1.4 1.4 0 0 0 1.45-1.42v-2.84l-1.45-2.84-1.45-2.84-5.8-1.42-2.9-2.84-4.35-1.42H91.8ZM139.68-1.76v1.42h2.9l2.9 1.42c0 1.41 1.45 0 1.45 0 1.45 0 1.45-1.42 1.45-2.84l1.45-1.42 4.36-2.84c0-1.42-2.9-1.42-2.9-1.42l-4.36 1.42-4.35 1.42Z" transform="translate(175.692 2577.771)"/><path id="Union_2" fill="url(#linear-gradient)" d="m-6094.4 1341.09-1.46-2.84-8.7 1.41-7.26-1.41 2.9-4.26 1.45-2.85-1.45-2.84 1.45-4.25 1.45-4.27 1.46-2.83s0-5.69-1.46-5.69c0 0-4.35-5.68-4.35-7.1l-5.8-8.52s-7.25-8.52-8.7-11.36c-2.9-4.26-1.45-4.26-1.45-5.68l2.9-4.26h7.25v-7.1c-1.45 0-4.35-2.85-4.35-2.85l-5.8-2.84 1.44-5.68h5.8l2.9-1.41 2.9-1.43s0-2.84-1.45-4.26c0-1.42 1.45-7.1 2.9-7.1 0-1.42-4.35-2.84-4.35-2.84s-2.9 2.84-4.35 2.84l-4.36-4.26-5.8-9.94-4.35-2.84-2.9-4.26c-1.45-1.43-2.9-2.84-2.9-4.26-1.45-1.43-2.9-7.1-2.9-7.1s-5.8-14.2-7.25-15.63v-5.68c-1.45-1.42-1.45-2.85-2.9-2.85s-1.45 1.43-4.36 1.43c-4.35 0-2.9-1.43-2.9-1.43v-14.2h-4.35c-1.45-1.42 0-4.26 0-4.26a21 21 0 0 0 1.18-2.84c-.98-.03-4.3-.2-5.53-1.42-1.46-1.42 0-4.26 0-4.26s4.35-2.84 4.35-4.26c1.45 0-2.9-1.42-4.35-2.84-2.9-1.42 1.45-5.68 1.45-5.68s0-2.84 1.45-4.26c.72-.71-.73-.36-2.54 0s-4 .71-4.72 0c0-2.84 4.36-7.1 4.36-7.1v-2.85l-5.81 4.26a56 56 0 0 1-4.35-5.67l5.8-7.1-4.35-1.42-1.45-1.43 2.9-5.67 1.45-4.26s-2.9 2.83-4.36 2.83l-4.35-5.68 1.45 4.26-5.8 1.42a61 61 0 0 1-1.45-7.1l-2.9-7.1 1.46-9.94s-1.46-9.95-2.9-11.37-2.9-7.1-2.9-7.1l1.06-7.3-5.48-2.67c0-2.84-5.82-9.94-7.27-15.62-2.91-4.26-8.72 0-8.72 0s-4.36 9.94-7.27 9.94c-2.9 1.42-7.26 5.67-7.26 5.67s-7.27 8.53-11.63 11.37c-2.9 2.84-1.46-2.84-2.9-8.52 0-5.68-4.36-4.26-4.36 0 1.45 2.84-8.72 7.1-11.63 7.1-4.36 0-10.17 7.1-10.17 7.1l-4.36 14.2-11.63 19.89s-17.44 9.93-18.9 9.93l-7.26 7.1c-2.9 4.27-5.81 4.27-7.27 4.27-2.9 0-1.45-2.84-5.81-4.27-2.91-1.42-7.27 5.69-7.27 5.69l-7.26 2.84-8.72 1.42c-1.45 0-7.27-2.84-8.73-1.42 0 0-4.36 2.84-4.36 1.42s-2.9-2.84-2.9-2.84-20.35-4.26-23.25-5.68 4.37-7.1 4.37-7.1 5.8-4.27 4.35-4.27c0-1.42-5.81-1.42-10.17-2.84a18 18 0 0 1-7.27-1.42l-5.81-5.68-1.45-2.84c0-2.84-2.91-2.84-7.27-5.68s-7.27-7.1-7.27-8.52c0 0-5.81-9.94-7.26-12.78a6.7 6.7 0 0 1 0-5.69s4.36-7.1 5.8-9.94c0-2.84 1.46-1.42 2.91-1.42s8.73-1.42 8.73-1.42c1.45 0-2.9-5.68-2.9-5.68l4.36-5.68s2.9-7.1 1.45-7.1a5.2 5.2 0 0 1-1.45-4.26c-1.46-1.43-4.36-2.85-5.82-2.85-2.91 0-7.27 2.85-7.27 2.85l-5.81 2.84c-1.45 1.42-1.45 0-4.36 0-2.9-1.42-1.45-4.27-1.45-7.1 0-1.42 4.36-4.26 7.26-7.1 1.46-4.27-4.35-4.27-4.35-4.27l-7.27-4.26 4.36-8.52-1.45-4.26s5.8-2.84 5.8-4.26a2.83 2.83 0 0 0-2.9-2.84l-4.36-5.69c0-1.41 4.36-2.83 4.36-4.25 1.46 0 4.36-4.27 4.36-4.27 0-1.42-4.36-2.84-5.81-1.42-1.45 0-4.36 2.84-4.36 2.84l-7.26-8.51s5.8-8.53 7.26-9.95c0-2.84 2.9-1.42 5.81-1.42 4.36-1.42 4.36-2.84 4.36-2.84 0-1.42-7.26-1.42-10.17-1.42l-5.81-5.68c-2.9-4.26 2.9-5.68 2.9-7.1v-7.11l2.91-11.36s2.9-2.85 1.45-4.27c0-1.41-2.9-5.67-4.35-8.51v-5.66c1.45-1.41 4.35-2.83 7.26-4.26 1.45 0 0-4.26 0-4.26s8.72-8.52 8.72-9.94a32 32 0 0 1 1.45-5.68l-11.65 1.42h-1.45c-1.46 0-2.9-1.42-2.9-4.26 0-4.26 1.44-2.84 4.35-4.26s2.9-2.84 2.9-5.68 2.91-4.26 4.37-4.26c1.45-1.42 8.71-7.1 10.16-8.52 0-2.85-4.35-2.85-8.71-4.27-2.9-1.41-5.81-7.1-4.36-9.94 1.45-1.42 2.9-4.25 4.36-4.25a20 20 0 0 0 2.9-4.27s-7.26-1.42-8.71-1.42c-1.46 1.42-2.91-2.84-2.91-4.26a3.1 3.1 0 0 1 2.9-2.85c0-1.4 4.37-2.83 4.37-4.25s-1.46-4.26-1.46-4.26l4.36-2.85c1.45 0 2.9 2.85 4.36 1.42 1.45 0 2.9-4.25 2.9-4.25h-1.45a27 27 0 0 1-4.36-5.68c-1.45-1.42 0-4.27 0-5.69 0-2.83 2.9 0 7.27 1.42s2.9 1.43 4.36 2.85a11 11 0 0 0 4.36 4.26c1.45 0 2.9-2.84 2.9-2.84l-4.35-2.85a53 53 0 0 0 1.45-11.36c0-4.26 4.36 0 4.36 0s5.81 4.27 8.72 2.85c1.45 0 0 0 1.45-5.69 1.94-3.79 2.58-3.78 2.8-3.78.1 0 .1 0 .1-.47 1.46-1.42 8.73-2.84 8.73-4.27 1.46-1.42-1.45-4.26-1.45-5.68s1.45-4.25 2.9-5.68 5.82 5.68 7.27 5.68c1.45 1.42 5.81 0 5.81 0s4.36-7.1 5.81-8.52 7.28 2.84 8.73 4.27c1.45 0 7.26 4.25 10.17-1.43 2.9-4.26 0-5.68 0-5.68s-7.26-1.42-10.17-5.68c-4.37-4.26 0-4.26 2.9-7.1 1.46-2.84 1.46-4.27 2.91-5.69 2.9-1.4 13.08 0 13.08-1.4 1.45 0 7.27-4.27 7.27-4.27l5.81 4.26s8.72 4.26 11.63 7.1 2.9-2.84 2.9-2.84l-2.9-7.1c0-1.42 1.45-4.26 2.9-5.68 1.46 0 0-4.26 0-5.68 1.46-2.84 8.72-2.84 8.72-2.84s4.37-2.85 2.91-5.69c0-1.42-2.91-4.25-2.91-4.25s-5.81-2.84-5.81-5.69c-1.45-2.84 2.9-2.84 2.9-2.84l1.46-11.36s7.27-2.84 8.72-2.84c2.9-1.42 5.81 4.26 7.27 5.68s0 1.42 1.45 4.27c0 1.41 2.9 1.41 4.36 1.41h13.08c1.46 0 2.9-5.68 2.9-5.68l2.91-1.42 13.08 5.69a42 42 0 0 1 4.36 8.51c2.9 5.68 5.82 1.43 7.27 1.43 2.9 0 4.36-1.43 8.72-5.69 2.9-2.84 1.45-2.84 5.81-2.84 2.9 0 5.81-4.26 5.81-4.26l-2.9-5.68-4.36 2.84-7.27 5.69h-14.53c-1.46 0 0-8.53 0-8.53a67 67 0 0 1-11.63-1.42c-5.8-1.42 2.9-9.94 2.9-9.94l4.37-2.84 10.17-5.68-5.82-5.68 1.46-2.85a66 66 0 0 0 2.9-7.1s4.37-4.26 7.27-5.68c4.36-2.84 4.36-5.68 4.36-7.1s2.9-8.53 8.72-14.2c5.81-4.26 7.27-2.84 7.27-2.84l5.81-4.27s7.27 5.69 8.72 5.69c2.9 0 7.27-1.42 5.81-7.1 0-4.26-2.9-2.84-2.9-2.84l-10.17 2.83a30 30 0 0 0 1.45-8.52c0-4.26 4.36-4.26 7.26-5.68 1.46-1.41 4.36-1.41 7.27-4.26s-1.45-2.84-2.9-2.84-7.27 2.84-10.18 4.27h-5.8c-4.37 0 0-4.27-1.47-5.69l8.73-5.67h10.17l2.9-5.69v-5.68l5.81-1.42s7.28 5.68 7.28 4.26v-8.52s7.26-4.26 7.26-7.1a1.4 1.4 0 0 0-1.45-1.43l-2.9-7.1 10.16-5.68s-2.9-7.1-4.36-8.52c0-1.42 2.91-8.52 4.36-11.36l4.36-8.53v-14.2c0-1.62.48-1.38 1.42-1.15a4 4 0 0 0 2.94-.26c1.45 0 1.45-4.26 1.45-4.26l8.73-8.52c1.45 0 5.81 2.83 5.81 2.83s8.72-1.42 10.17-1.42c1.46-1.41 2.9-8.52 2.9-8.52s-4.35-2.84-7.26-2.84c-1.45-1.42-8.71 1.42-8.71 1.42-1.46 0-5.82-5.68-5.82-5.68s1.46-9.94 0-12.78c0-4.26 2.9-5.68 2.9-5.68 1.46 0 4.37-4.27 2.92-7.1 0-4.27 2.9-5.69 2.9-5.69 1.45-1.42 4.36-2.84 7.27-4.26 2.9-2.84-1.46-5.68-1.46-5.68a32 32 0 0 0-1.45-5.68l10.17-5.68s5.82-2.84 4.37-2.84c0-1.42 2.9-2.84 2.9-2.84l5.82-5.69 1.45-2.83s-4.36-4.26-4.36-5.68c0-2.85 1.45-5.69 1.45-7.1 1.46-1.42 4.36-1.42 5.81-1.42l2.91-4.27c0-1.4 1.42-4.19 1.45-5.63 1.17.27 10.17 1.37 10.17 1.37l13.09-1.42c1.45-1.42-7.27-1.42-7.27-1.42a65 65 0 0 1-7.27-1.42l2.9-5.68s5.83-4.27 5.83-5.69c1.45-1.4 0-4.25-1.46-4.25 0-1.42-8.72 1.42-10.18 1.42l-4.35-5.68 5.8-8.52 13.09-1.42a5 5 0 0 0 2.9-1.42l5.82-2.85 8.72 1.43 5.82-1.43 1.45-2.84s0-2.83-7.27-5.67c-8.72-2.85-2.9 1.42-5.81 4.25-4.36 1.42-7.27 2.84-8.72 2.84s-1.46-1.42-7.27-4.25c-4.36-2.84 5.82-4.27 5.82-5.69-1.46-1.42-13.09-8.52-16-7.1-1.45 1.42-7.26 1.42-13.07 1.42-5.81 1.42-4.36 0-7.27 0-1.45 0-7.27 7.1-11.63 7.1-4.35 1.43-8.71 5.68-13.07 5.68-2.91 0-5.82 2.84-5.82 2.84s0 7.1-2.9 11.36c-2.91 5.69-7.27 4.27-10.18 2.85s2.9-4.27 2.9-5.68v-5.68s13.09-11.36 13.09-14.2c1.45-4.26 5.81-7.1 8.72-8.52 1.45 0 7.26-7.1 7.26-7.1h11.63s11.63-1.43 15.99-4.26c2.9-2.84 0-4.26 0-4.26s-7.27-1.42-7.27-5.69-1.45-2.84-1.45-2.84-4.36-4.25-5.81-7.1 4.36-12.78 4.36-12.78 10.17-14.2 13.07-18.47c4.36-2.83 7.27-2.83 8.73-2.83l8.72-8.53s0-7.1 5.8-11.36c4.37-4.26 5.82 5.69 5.82 5.69s1.45 9.93 1.45 12.78 0 1.42 8.73 14.2c5.94 8.71 6.48 7.52 6.68 6.33.1-.55.12-1.1.58-.66 0 1.42 0 0 7.27 1.42 7.26 2.85 1.45-4.26 1.45-7.1 0-1.42 2.9-1.42 13.08-7.1 10.18-4.26 0-1.42 1.46-4.26v-7.1s0-5.69-2.92-7.11c-1.45-2.83-2.9 2.84-2.9 4.26-1.45 1.42-7.27 4.27-11.62 4.27s-2.91-2.84-2.91-5.69v-4.25c1.45-1.42 0-7.1 0-9.95 0-4.26 5.81-4.26 5.81-5.68a29 29 0 0 1 11.62-11.36c7.28-1.42 1.46 0 2.92 0 2.9-1.42 14.53-5.68 14.53-5.68l-4.36-5.69s7.27-8.52 10.17-8.52 4.36-1.42 8.73-2.84c1.29-.63 1.72-.14 1.92.35.26.62.17 1.23.98-.35 0-2.84-1.45-5.67-2.9-5.67-1.46-1.43-5.82-9.95-5.82-9.95s4.36-8.52 8.72-9.94 7.27 1.42 8.72 1.42c1.46 1.42 2.9 0 5.82-1.42 1.45 0-1.46-2.84-4.36-7.1-2.91-2.84 0-7.1 1.45-8.53s5.81 1.42 7.26 2.84l5.82 2.85s2.9 9.94 2.9 12.78-5.8 5.68-5.8 7.1 1.44 4.26 1.44 4.26 7.28-7.1 10.18-8.52c1.45-1.42 0 0 1.45 0s7.27 0 10.17-2.84c4.36-1.42-4.35-1.42-4.35-1.42-1.46 0-4.36-2.84-8.72-7.1s0-5.68 0-7.1 1.45-4.27 8.72-4.27c5.8-1.4 2.9 5.69 4.35 9.95 0 4.26 8.72 5.68 8.72 5.68s2.92-2.84 4.37-2.84c2.9 0 2.9 1.42 10.17 7.1 7.26 4.26 2.9-1.42 2.9-1.42 0-1.42 0-5.68-1.45-7.1s-7.26-2.84-7.26-2.84c-1.46-1.42-5.81-2.84-10.18-8.53-3.74-4.56-2.67-3.84-1.05-3.12.9.4 1.98.8 2.5.29l4.37-4.27s4.36-2.84 5.81 0a92 92 0 0 1 7.27 4.27l1.45 1.42s-4.36-7.1-2.9-9.95c1.45-4.25 2.9 0 2.9 0s10.17 2.84 11.62 2.84c1.46 1.42 1.46 2.85 13.09 12.79 10.17 9.93 4.36-1.43 4.36-1.43v-11.35c-1.46-1.42-8.72-2.84-8.72-2.84-1.45 0-5.81-4.26-5.81-5.68 0-2.84 2.9-4.26 5.81-4.26 1.45 0 11.62 5.68 14.53 5.68 2.9 1.42 2.9 0 2.9 0s2.91-2.84 2.91-4.26a15 15 0 0 1 1.46-7.1c0-2.84 1.45-7.1 4.36-8.52 1.45-1.43 7.27-1.43 7.27-2.85v-9.94c0-1.42 8.71 0 8.71-1.42 1.46 0-1.45-4.26-1.45-4.26l-5.81-2.83c-2.9-2.85-1.45-4.27-1.45-5.69s5.8-1.42 5.8-2.84-1.45-1.42-2.9-4.26 0-4.26 2.9-8.52c2.91-5.68 1.46 0 2.91 0 0 0 8.72 5.68 11.63 7.1 4.36 1.42 2.91-2.84 4.36-4.26s0-5.69 0-7.1c-1.45 0-2.9-1.42-4.36-1.42-1.45-1.42-2.9-4.26-1.45-5.68 0-1.43 7.27-4.27 8.72-5.69 2.9-1.41 5.81 1.42 8.72 2.84a9.1 9.1 0 0 1 4.36 7.11s-5.82 5.67-5.82 7.1c-1.45 0 1.46 1.42 1.46 1.42 1.45 1.42 1.45 8.52 1.45 8.52l-5.81 11.37-4.36 8.52-2.9 9.94v18.46s5.8 2.85 8.71 1.43a2.8 2.8 0 0 0 2.9-2.85l1.46-12.78 2.9-9.94v-12.78l5.82-9.95V88.4l11.62-9.94 5.81 11.36-4.36 11.36-1.45 9.95 8.72 7.1 5.81-11.36v-9.94l-4.36-7.1 5.82-11.37-5.82-9.94 4.36-8.51 8.73 4.25h2.9l7.27-1.42v5.68c1.45 2.85 7.26 4.27 7.26 4.27v-4.27l18.9 5.67 13.08-1.4 8.72 5.67s11.63-5.68 15.99-5.68c2.9 0 4.36 4.26 4.36 4.26l7.26 11.36 17.44 12.78-10.17 8.52-1.45 9.94s-23.25 5.69-26.16 5.69c-4.36 1.42-13.09 0-17.44 0-2.91 1.42 2.9 5.67 2.9 5.67h11.63c4.36-1.42 8.72 4.27 8.72 4.27l11.62 2.84 11.64-4.26 1.45 14.2s7.26-8.52 11.62-11.36c2.91-2.84 5.82 8.51 8.72 15.62 2.91 5.68-5.81 9.94-5.81 9.94l-11.62-1.42 1.45 11.36-10.17 9.94s-7.27 5.68-5.82 11.37c1.45 4.25 1.45 17.04 1.45 17.04a30 30 0 0 1-7.26 1.42 1.3 1.3 0 0 1-1.2-.57 49 49 0 0 1-6.2 5.43l-5.86 7.08 10.26 2.84v12.73l-1.47 8.5-4.4 5.66 5.87 8.5 7.32 11.33 10.25 5.66s1.47-1.41 11.72 0a19.6 19.6 0 0 1 13.19 11.33l5.86 7.08 8.79 5.66 4.4 4.25-1.47 12.74s-4.4 7.08-2.93 12.75c0 7.08-4.4 16.98-4.4 19.81 0 1.42-2.92 12.75-2.92 12.75l4.39 9.91 5.86 5.66 8.79 9.92 11.72 12.73 4.4 9.91s11.72 7.09 11.72 8.5 4.4 8.5 4.4 8.5l5.85 9.91-1.46 7.08-4.4 7.08v4.25l4.4 5.67-1.47 5.66 4.4 8.5-2.93 5.66 7.32 2.83s1.47 1.41 0 4.24c-1.46 1.42-2.93 11.33-2.93 11.33l7.33 11.33 10.25 1.42s5.86 0 5.86 1.41c1.46 1.42 2.93 5.67 2.93 5.67l-4.4 8.49a15.3 15.3 0 0 0 5.86 7.08c2.93 1.42 5.86 1.42 5.86 4.25 1.47 2.83 1.47 7.07 2.93 5.66a54 54 0 0 1 8.8 1.42l4.39 7.07 2.93 5.67v5.66c0 2.83-1.47 11.33-1.47 11.33l-7.32 11.33s5.86 7.07 10.25 9.9 10.26 7.08 11.72 7.08 8.8 1.42 11.72 2.84c1.47 0 7.33 2.83 8.79 4.24s11.72 7.09 11.72 7.09l8.8 4.24 8.78 7.08 2.93 17s-2.93 25.48-4.4 28.3c0 2.84-4.4 15.58-5.86 17-2.93 1.41-5.86 2.83-5.86 5.66s-4.39 18.41-4.39 18.41-4.4 9.9-4.4 12.74-4.4 11.33-4.4 14.16c-1.46 1.41-4.4 12.74-4.4 12.74l-19.04 36.81-4.4 14.16s-4.4 1.42-5.86 4.25c-1.46 4.25-2.93 7.08-4.4 11.33 0 2.83-7.32 15.57-7.32 15.57l-2.93 7.08-5.86 7.08-4.4 2.83h-10.25l-4.4-2.83-4.4 2.83c0 1.41-2.93 2.83-2.93 4.25 0 0-1.46 2.83-2.93 2.83-1.46 1.41-2.93 2.83-4.39 2.83 0 1.42-2.93 1.42-2.93 1.42a4.3 4.3 0 0 1-1.47 2.83s-4.4 0-5.86-1.42c-.9-.86-2.33-1.72-2.98-2.27a17 17 0 0 1-1.41 3.69c0 1.42-2.93 5.66-4.4 5.66s-4.4-1.41-5.86-2.83h-2.93v9.9c-1.46 0-4.4 1.42-4.4 1.42s1.47 2.83 0 2.83c-1.46 1.42-2.93 2.83-4.4 2.83 0-1.41-2.92-2.83-2.92-2.83a20 20 0 0 0-2.93 4.25 5 5 0 0 1-1.47 2.83l-10.25 11.32c-1.47 0-4.4-4.24-4.4-4.24v4.24a21 21 0 0 1-4.4 2.83c0 1.42-1.46 0-2.93 0 0 1.42-1.46 1.42-1.46 2.84a5 5 0 0 1-1.46 2.83s-2.93 1.42-2.93 2.83a21 21 0 0 1-4.4 2.83 2.07 2.07 0 0 1-2.93 0c-1.47 0-4.4-4.24-4.4-4.24s-2.93 0-2.93 1.41c-1.46 1.42-1.46 2.83-2.93 2.83a5.5 5.5 0 0 1-4.4 1.42c-1.47 1.42-4.4 1.42-4.4 2.83-1.46 0-2.92 2.83-2.92 4.25s2.93 1.42 0 1.42a20 20 0 0 1-7.33 1.4s-2.93 1.43-2.93 2.84c-1.47 1.42 0 1.42-2.93 2.84a5 5 0 0 0-2.93 1.4l-2.93-2.82 1.46-2.83s-1.46-2.83-1.46-1.42c-1.46 2.83 0 4.25 0 4.25a1.4 1.4 0 0 0-1.46 1.42c-1.47 1.4 0 1.4-1.47 2.83a3.1 3.1 0 0 1-2.93 2.83c0 1.42-1.46 1.42-2.93 1.42h-2.93c-1.46 0-2.93-1.42-1.46-1.42l2.93-1.41s1.46-1.42 0-1.42l-2.93-2.83c.04.03 1.4 1.4-2.93 1.4q-4.4 2.14-4.4 0s-2.93 0-1.47-1.4c2.93-1.42 2.93-2.84 4.4-2.84 1.2 0 1.42-1.9 1.46-3.36q-.53-.29-1.46-.88l-2.93-4.25a5 5 0 0 0-1.46 2.83c1.46 1.42 4.4 2.83 0 4.25h-4.4c-1.46 1.4-5.86 1.4-5.86 1.4s-2.93 0-1.46 1.43c0 1.42 2.93 2.83 2.93 2.83s0 1.42-2.93 1.42c-1.47 1.41-4.4 1.41-4.4 1.41l-1.46 1.42a1.4 1.4 0 0 1-1.47-1.42 5 5 0 0 0 1.47-2.83c0-1.41 1.46 0 0-1.41-1.47-2.84-2.93-2.84-2.93-4.25a21 21 0 0 1 4.39-2.83v-2.84s-1.46 0 0-1.41a18 18 0 0 1 2.93-4.25 3.1 3.1 0 0 0-2.93-2.83s-1.46 2.83-1.46 4.25c0 0 1.46 2.83-2.93 1.4-4.4 0-7.33 0-8.8-1.4 0-1.42-2.93-2.84 1.47-2.84l4.4-1.41a5.1 5.1 0 0 0 1.46-4.25c-1.46 0-2.93-2.83-2.93-1.42a11 11 0 0 0-1.46 4.25h-5.86a5 5 0 0 1-1.46-2.83l1.46-5.67s2.93-1.41 1.47-1.41c0 0-2.93-1.42-2.93 0-1.47 0 0 1.41 0 2.83s0 2.83-1.47 2.83c-1.46 1.42-7.33 1.42-7.33 1.42 0-1.42-1.46-1.42 0-2.83v-2.84s-1.46-2.83-1.46-1.41h-2.93v-2.83h-4.4l-1.46-1.42c-1.47 0-1.47 0-1.47 1.42a34 34 0 0 0-5.86 1.41s0-2.83-1.46 0c0 1.42-7.33 1.42-7.33 1.42s-1.46-2.83-1.46-4.25l1.46-4.25 1.47-1.4-1.47-1.43h-2.93c0-1.42 2.93-4.25 2.93-4.25l1.47-1.41c1.47-1.42 4.4-1.42 2.93-2.83a5 5 0 0 1-2.93-1.42 1.4 1.4 0 0 1-1.47-1.41s1.47-2.83 1.47-4.25a5 5 0 0 0-1.47-2.83c-1.46 0 0 1.42-2.93 1.42a58 58 0 0 1-5.86 4.24v-4.24c1.47-1.42 5.86-1.42 7.33-2.84 0-1.41-2.93-5.66-2.93-5.66s2.93 1.42 1.46-1.42l-2.93-1.41a5.1 5.1 0 0 1 1.47-4.25c1.46-2.83 2.93-2.83 2.93-4.25 0 0-4.4-1.42-4.4-2.83s-2.93-1.42 0-4.25a4.6 4.6 0 0 1 2.93-1.42v-5.66c0-1.41 1.46-1.41 1.46-2.83-1.46-1.41-2.93-1.41-4.4-4.24v-2.83c1.47 0 2.93-1.42 1.47-1.42v-2.83l-1.47-2.83c-1.46-1.42-1.46-4.25-1.46-5.67a60 60 0 0 1 1.46-7.08s0-4.25-2.93-5.66a11 11 0 0 0-4.39-4.25v-4.25s-2.93-1.41-2.93-2.83-1.47-4.24-1.47-4.24-1.47 0 0-2.83V786c-1.47-1.42-2.93-4.25-2.93-5.67v-4.25a4.3 4.3 0 0 0-1.46-2.83c-1.47-1.42-5.86-8.5-5.86-8.5s-1.47 0-1.47-2.83a14 14 0 0 1-1.46-5.66v-4.25l-4.4-4.25 1.47-5.66v-5.66s0-7.08 1.46-7.08 4.4-4.25 4.4-4.25 2.93-4.25 1.47-5.66a59 59 0 0 0-1.47-7.08s2.93-4.25 1.47-4.25c0-1.42-2.93-7.08-2.93-7.08l-4.4 4.25-2.93-1.42 1.46-5.66s-2.93-2.83-2.93-4.25 2.93-4.24 2.93-4.24 2.93 5.66 2.93 7.07 2.93 2.84 2.93 2.84c1.47-1.42 1.47-4.25 2.93-4.25a3.1 3.1 0 0 1 2.93 2.83l5.86-1.41s-1.47-1.42 2.93-1.42c4.4 1.42 4.4 0 4.4-2.83 0-1.41-4.4-7.08-1.46-7.08 4.4 0 5.85 1.42 5.85 1.42v2.83c0 2.83 4.4 5.66 4.4 2.83 1.47-2.83 1.47-1.41 1.47-4.25s-2.93-2.83-4.4-5.66c0-.53-.2-.47-.46-.4-.43.1-1 .22-1-2.43 1.46-4.25 1.46-5.67 2.93-5.67l2.93-1.4c2.93 0 4.4-2.85 2.93-7.1 0-2.82-1.47-4.24 0-5.65 2.93-1.42 1.46-2.83 4.4-1.42s1.46 1.42 4.4 1.42c1.46-1.42 1.46-8.5 1.46-8.5-1.47 1.41-4.4-1.42-4.4-1.42-1.46 0-1.46-2.83 0-4.25 0 0 0-2.83 1.47-2.83 2.93 0 2.93 1.42 5.86 0l2.93-2.83c1.46-1.41 2.93-1.41 4.4-4.24 0-1.42 1.46-9.92 1.46-9.92-1.47-1.41 1.46 0 4.4-1.41 1.46-1.42 2.93-9.92 4.39-11.33 1.47-2.83 5.86-8.5 5.86-9.91s4.4-11.33 4.4-11.33l5.86-9.91a14 14 0 0 0-1.47-5.66c0-1.42-1.46-7.08 0-8.5 1.47 0 2.94-4.25 2.94-4.25v-5.66l7.32-4.25c8.79-1.41 2.93-5.66 13.18-1.41 0 0 5.86-1.42 4.4-2.84l-5.86-5.66 2.93-4.25s4.4-2.83 0-4.25c-2.93-1.4-5.86-2.83-5.86-4.24a59 59 0 0 1-1.46-7.08c0-1.42-1.47-5.66-1.47-5.66v-7.08c0-1.42-1.46-5.67-2.93-7.08s-7.32-5.67-7.32-5.67l-10.26-4.24-2.93 2.83-7.32-7.08-5.86-1.41h-5.86l-5.63-11.66 4.3 9.1a18 18 0 0 0-4.36 2.83 4.4 4.4 0 0 0-1.45 2.84s4.35 4.26 4.35 5.69v5.68l-2.9 2.84-2.9-4.26v-2.84c0-1.42-1.45-2.85-1.45-4.26h-1.45c-1.45 0-1.45-1.43-2.9-2.85s0 0-1.45 0a5 5 0 0 0-2.9 1.42c0 1.43 1.45 4.27 2.9 5.69 0 1.41-1.45 2.84 0 4.26v2.84c0 1.42-4.35-1.43-4.35-1.43v-7.1c-1.46-1.42-2.9-2.83-4.36-2.83h-1.45c0-1.43 0-1.43-1.45-2.85-1.45 0 0 1.42 0 2.85h-2.9a5 5 0 0 0-2.9-1.43h-2.9v2.84l-5.8 2.85-4.35 1.4a4.4 4.4 0 0 1-1.46 2.86c-2.9 1.41-2.9 1.41-4.35 1.41s-2.9 2.85-2.9 2.85c0 1.41 1.45 1.41 2.9 1.41 1.45 1.42 0 5.69 0 5.69s-1.45 2.83-1.45 4.26c-1.45 0-2.9 2.83-5.8 1.42-1.45-1.42-2.9 2.84-2.9 2.84v4.27c-1.45 0-2.9-2.84-2.9-4.26l-5.8-1.42v4.26l1.45 4.26-4.35 1.42s-2.9 1.41-2.9 2.84l-1.46 1.42s1.46 2.84 2.9 2.84 1.45 4.26 1.45 4.26 0 2.84-1.45 2.84a4.6 4.6 0 0 0-2.9-1.42 5 5 0 0 0-1.45 2.84c-1.45 0-1.45 4.26-1.45 4.26a61 61 0 0 1 1.45 7.1 5 5 0 0 1-1.45 2.85l-2.9 4.26-2.9 4.26a5 5 0 0 1-1.45 2.83l-2.9 4.26 2.9 2.84 1.45 2.84 2.9 4.26-1.45 2.85 2.9 2.84h4.35l5.8 4.26 2.9 5.68v4.26h-1.45a32 32 0 0 1-1.45 5.68l-4.35 5.68s-1.46 4.26-2.9 4.26a5 5 0 0 1-1.46 2.84l-2.9 7.1v8.52l-2.9 5.68a14.5 14.5 0 0 0-1.45 5.69 1.4 1.4 0 0 1-1.45 1.41s-2.9 7.1-4.35 7.1c0 1.42-2.9 1.42-2.9 2.84a4.4 4.4 0 0 0-1.45 2.84l-4.36 5.69a5 5 0 0 0-2.9 1.42l-4.35 1.41s-4.35 4.26-4.35 5.69l-4.36 4.26v4.26s-1.45 2.84-1.45 4.26a5 5 0 0 0-2.9-1.42v1.42h-4.35l1.45-2.85c0-1.41-2.9 0-2.9 0l-2.9 2.85-1.45 1.41v4.27l-2.9 7.1c0 1.42-1.45 4.26-1.45 5.68a5 5 0 0 0-2.9 1.42l-2.9 2.84c-1.45 1.42-2.9 1.42-2.9 0l-4.35 4.26-4.36 4.26a57 57 0 0 0 4.36 5.68c0 1.43-2.9 1.43-4.36 1.43v2.84l-4.35 8.52c0 1.41 0 1.41-1.45 2.83a2.04 2.04 0 0 1-2.9 0l-2.9 5.69a5 5 0 0 1-2.9 1.41l-1.45 4.26v4.26l-2.9-1.41 1.45 4.26-1.45 5.68c0 1.42-4.35 4.26-4.35 4.26l-2.9 4.26h-5.8l-2.9 8.52 2.9 2.84 1.44 2.84 4.36 4.26-1.45 8.53-1.46 9.93-1.45 2.85c-1.45 0 1.45 5.67 1.45 5.67s0 7.11 1.46 8.53c0 0 2.9 2.84 2.9 4.26l1.45 4.26c0 1.42-4.36 0-4.36 0l-4.35-2.84c-1.45 0-2.9 2.84-2.9 2.84v5.68c-1.45 0-2.9 2.84-2.9 2.84l2.9 2.84-1.45 4.26v5.68h2.9l2.9 5.68c0 1.42-2.9 7.1-2.9 7.1s5.8 12.79 5.8 14.21l-2.9 4.26 4.35 5.68v2.84s4.35 2.84 4.35 4.26c1.46 1.42-1.44 4.25-1.44 4.25V915l5.8 1.43h4.35a33 33 0 0 1 5.8 1.42v5.68l1.45 2.84 4.35-4.26 7.26-4.26s1.45 4.26 2.9 4.26l1.45 4.26 5.8 5.68c1.45 2.85 2.9 2.85 2.9 2.85 2.47 6.43 3.07 5.12 4.18 3.8.86-1 2-2 4.53.46l2.9 2.83s2.9 2.84 2.9 5.69c0 1.41-2.9 1.41-2.9 1.41l2.9 5.68a9 9 0 0 0 5.75.69c2.37-.34 4.12-.68 5.86 3.58l2.9 2.83c0 1.43 2.9 1.43 2.9 1.43l7.25 5.67 4.35 4.26-1.45 2.85s-7.25 4.26-8.7 4.26a3.1 3.1 0 0 0-2.9 2.84 5.4 5.4 0 0 0-4.36 1.42c-2.9 1.41-1.45 1.41-2.9 2.84s0 4.26 0 4.26h2.9c1.45 0 2.9-2.84 2.9-2.84 1.45-1.42 2.9 0 2.9 1.41s0 1.43-1.45 2.85c0 1.41-14.51 8.52-14.51 14.2 2.9 1.42 13.06 7.1 13.06 11.36 0 0-4.35 4.26-5.8 4.26s-2.9-2.84-2.9-4.26c-1.45-1.41-2.9 1.42-2.9 1.42l1.45 4.26 2.9 1.43s-1.46 2.83-1.46 4.26l-2.9 5.67c-4.35 2.85-1.45 2.85-10.15 4.26-1.45 0 0 2.85 0 4.26 1.45 2.85-4.36 2.85-4.36 2.85l-1.44 8.52-1.46 1.42c-1.45 0 0-4.27 0-4.27l-1.45-4.26-4.35-1.4v-8.52l-1.45-4.26s-2.9-5.69-4.35-2.85c0 4.26 2.9 17.04 1.45 17.04 0 2.85 0 4.26-1.45 4.26v5.69s-11.6 7.1-11.6 8.52c-1.46 0-4.36 4.26-4.36 4.26s-10.16 4.26-13.06 5.68c-1.45 0-1.45 2.84-1.45 2.84l5.8 1.42 1.45 8.52-2.9 2.85-1.45 2.83v2.84a18 18 0 0 1 2.9 4.26c1.44 1.43-1.46 2.85-1.46 2.85l2.9 8.52v8.52c1.46 1.42-2.9 8.52-2.9 8.52v2.84s2.9 12.78 2.9 14.2-2.9 5.69-2.9 5.69l4.36 12.78s-5.8 7.1-5.8 8.52 1.45 8.52 1.45 8.52 1.45 7.1 2.9 11.36c2.9 4.26-2.9 8.52-2.9 8.52s-2.9 9.95-2.9 11.36v12.78c1.45 0-4.35 4.26-4.35 4.26l-4.36 28.4s-5.8 9.95-7.25 9.95c0 1.42-4.35 4.26-7.26 4.26-4.35-1.42-2.9-1.42-2.9-1.42l-7.25-2.84-2.9 2.84-7.26-1.42s-5.8 1.42-7.25 0c-2.9-1.42-5.8 1.42-5.8 1.42l-4.36 1.42s-5.8-1.42-8.7 0c-1.46 1.42-1.46 2.84 2.9 5.69 4.35 1.41 1.45 2.83 1.45 2.83l2.9 2.84c1.45 0 1.45 4.26 1.45 5.68a1.4 1.4 0 0 1-1.45 1.42h-4.36c-2.9 0-1.45-1.42-1.45-2.84-1.45-1.42-2.9-1.42-2.9-2.84-1.45 0-4.35-2.83-5.8-4.26s-1.45 1.43-5.8 4.26-2.9 5.68-2.9 5.68v7.1s0 1.42-1.45 5.68c0 2.85 1.45 4.26 2.9 4.26 1.45 1.43 1.45 5.69 2.9 7.11 0 1.41 2.9 5.67 2.9 5.67s5.8 2.85 7.26 4.26-1.45 4.27-1.45 4.27c-1.45 0-2.9-2.84-2.9-2.84h-5.8c-1.45 0 0 2.84 0 2.84l-5.8 1.42-4.35 1.42h-4.36s-2.9-1.42-2.9-2.84-4.35-1.42-4.35-1.42a33 33 0 0 0-5.8-1.42l-2.9 4.26v2.84l-4.35 2.84-5.81 2.84a36 36 0 0 1-5.8.63 4.6 4.6 0 0 1-2.93-.62m-89.97-271.27h4.35l.74-.36-2.22-1.09v1.43h-2.87Zm14.5-28.43-4.36 8.52-1.45 9.94-1.46 8.52-.1.1.12-.06 1.45-8.53 1.46-9.94 4.35-8.52v-8.52l-.02-.02Zm-26.16 18.46v.42l.05-.39v-8.5l-.05-.05Zm10.18.01-.01-.01-1.41-1.19Zm11.62-46.88-4.36 1.42 2.9 8.52 2.05 3.49-2.02-3.46-2.9-8.51 4.35-1.43 4.36-4.26 1.45-7.1-.02-.01-1.45 7.08-2.9 2.84h-1.46Zm5.81-21.3-2.9 2.84v4.26l.01.01v-4.24l2.9-2.84c1.45-1.42 4.36 0 4.36 0l4.35-1.42 4.35-4.27s5.11-3.75 5.74-5.38c-.69 1.66-5.73 5.36-5.73 5.36l-2.91 2.84h-5.81l-1.45 1.42h-1.46Zm18.9-31.24 2.73-4.02Zm-4.37-59.66-7.26 7.1v.03l7.25-7.1 7.26-1.41s8.58 0 7.28-1.4c-.23 1.36-7.26 1.36-7.26 1.36h-5.82Zm14.54-3.17q.06-.43.2-1.08h-.2Zm1.45-8.19v2.2l1.02-3.62h-1.02Zm-23.25-41.19-1.45-44c0 .35.13 4.04 1.45 44m-10.17-72.43c-2.9 2.84-2.9 5.68-1.46 8.52a16 16 0 0 0 1.39 3.3 16 16 0 0 1-1.37-3.26c-1.45-2.84-1.45-5.69 1.45-8.52 1.2-1.19.4-3.35.1-4.04.32.73 1.07 2.84-.11 4m1.45-18.46-2.9 4.26 1.45 9.94.01.03-1.45-9.94 2.9-4.26v-8.52l-.01-.03Zm2.9-62.5-2.9 14.2-1.45 9.95s-4.36 5.67-4.36 8.51v9.94l1.46 2.86-1.44-2.82v-9.93c0-2.85 4.35-8.52 4.35-8.52l1.45-9.95 2.9-14.2 18.87-24.15.87-.03h-.86Zm47.01-25.25 6.7-.27.01-.04Zm21.26-163.6.34-.04h-.3Zm10.6-1.16 2.4-.26.03-.03a13 13 0 0 0-2.43.29m282.44-41.45 8.56 4.2-.07-.16-8.62-4.16Zm-242.13-92.36v1.1c.25-.5.72-1.46 1.2-2.51h-1.2Zm1.45-2.83v.87c.35-.8.7-1.6.93-2.3h-.93Zm211.66.04 5.28-1.3v-.03l-5.31 1.29Zm-184.28-15.62h7.26l.02-.04h-7.05l-14.54-7.11-.05.11Zm166.43-34.82-.3-.44a5 5 0 0 1-1.33 1.57c.65.02 1.25-.6 1.63-1.13m-111.3-3.53.25-.04-.74-.05zm-3.34-.63a14 14 0 0 1-2.15-.83 13 13 0 0 1-1.55-.07 51 51 0 0 0 3.7.9m-6.8-2.21a4 4 0 0 0 1.23.7 5 5 0 0 1-.94-.74c-1.45-1.42-8.72-4.27-10.17-4.27l-.12.06c1.75.18 8.59 2.88 10 4.25m-11.22-3.96c-5.4.8-21.91-.35-21.91-.35l-.05.06c1.93.14 17.2 1.13 21.96.29m95.07-9.78-.8-.16a4 4 0 0 1-.71.9c.64.24 1.2-.3 1.51-.74m-31.57-58.2 5.86 1.41 10.25 11.33 8.8 9.9s13.18 9.91 16.11 11.33 19.05 4.25 20.5 5.66l.63-.8c-3.41-1.5-17.02-3.98-19.67-5.28-2.91-1.42-15.99-11.36-15.99-11.36l-8.72-9.95-10.17-11.36-5.82-1.42v-1.42h-5.78a8 8 0 0 1 4 1.95Zm83.5 26.9 14.65 2.82 5.86 4.25a4 4 0 0 0 1.52-.42h-.57l-5.81-4.27-14.53-2.84-5.81-4.25-1 .58Zm23.94 5.65a2 2 0 0 0 1.35-.42h-.92Zm-135.06-10.32 1.82-1.49-.03.02a5 5 0 0 0-2.91 1.43h-2.9l-.08.04Zm8.05-4.8a37 37 0 0 1 6.38-.46v-.42c-2.25.03-4.86.17-6.38.9Zm6.38-1.18v-.12l-5.38-1.05-.12.1Zm218.28-64.4v4.24c0 2.83 1.47 7.08 2.93 8.5 0 1.23 5.5 4.58 6.97 5.45l.43-.41s-7.27-4.26-7.27-5.68c-1.45-1.42-2.9-5.68-2.9-8.52v-4.25a25 25 0 0 1 .3-4.38 22 22 0 0 0-.46 5.06Zm1.48-7.65.13-.14a15 15 0 0 1 .27-2.54 19 19 0 0 0-.4 2.69Zm-85.62-2.97-2.9 1.41a3 3 0 0 0-.69.63l2.76-1.33 4.4-2.83v-.2Zm44.58-36.1c2.93 4.25 2.93 7.08 8.8 8.5l17.57 5.66 10.26 1.42 2.93 2.83c0 2.83 0 5.67 1.47 7.08a27 27 0 0 0 1.4 6.92l.2-.57a28 28 0 0 1-1.46-7.1c-1.45-1.41-1.45-4.26-1.45-7.1l-2.91-2.85h-1.45l-8.73-1.42-17.43-5.67c-5.82-1.42-5.82-4.27-8.72-8.53-2.91-1.42-8.73 0-13.09 0l-5.8 5.68-.11.32 5.34-5.17c2.93 0 6.51-.63 9.44-.63a9 9 0 0 1 3.75.64Zm-38.77 16.22c-2.42.34-3.78 1-4.43 1.9a9 9 0 0 1 3.65-1.13l4.4-2.83h13.18l.27-.79h-12.7Zm-163.1 1102.14 1.46-11.37-2.9-4.26c0-1.41-1.45-4.26-1.45-8.52 1.45-4.26 1.45-5.68 2.9-8.51 0-2.85 2.9-4.26 2.9-7.11 0-4.26 0-5.68 1.45-8.52 0-2.84 1.45-5.68 2.9-5.68 0-1.42 2.9-7.1 2.9-7.1l1.45-7.1s2.9-7.1 2.9-8.53-1.45-7.1-1.45-8.52l4.36-4.26h4.35s0 4.26-1.45 5.68a5 5 0 0 0-2.9 1.42c0 1.42 2.9 4.26 2.9 4.26v5.68l-2.9 5.69-2.9 7.1v7.1l-1.46 4.26-1.44 4.26-2.91 8.52 1.45 7.1-4.35 8.52v15.63s0 4.26-1.45 4.26Zm63.85-61.08c-5.8 0 0-1.4 1.45-4.26s2.9-5.67 2.9-5.67l-1.44-5.69-2.9-4.26-4.36-5.67-1.45-2.85 4.35-1.41a61 61 0 0 1-1.44-7.1c0-1.42-1.46 0-2.9-2.85-1.46-1.42-1.46-5.68-1.46-5.68a32 32 0 0 1 1.46-5.68 104 104 0 0 1 7.25-8.52c4.35-4.26 2.9-4.26 2.9-7.1-1.45-1.42 1.45-2.84 1.45-2.84l4.35-4.26 2.9-7.1 4.36 4.26c1.45 0 1.45-1.43 1.45-2.84s2.9-1.42 2.9-1.42a34 34 0 0 0 5.8-1.43l1.45-2.84s5.8-1.42 8.7 0c1.46 1.43-1.45 1.43-1.45 2.84v2.85c0 1.41-1.45 2.84-5.8 2.84-4.35 1.41-1.45 4.26-1.45 4.26v5.67c-1.45 1.43-4.35 4.26-7.25 4.26-1.45 1.43-1.45 4.26-1.45 4.26 0 1.43 1.45 4.27 1.45 7.11 0 1.42 0 1.42 1.45 4.26 0 1.42 2.9 1.42 4.35 1.42 0 1.42 2.9 4.26 1.45 5.68s-2.9 2.84-4.35 2.84c0 1.42-2.9 5.68-2.9 5.68a6.7 6.7 0 0 1 0 5.68c0 2.84-2.9 1.42-4.35 2.84l-4.36 4.26c-1.45 0-2.9 5.68-2.9 8.52v5.68c0 1.42 0 0-2.9 4.26-1.7 1.67-2.52 2.25-3.14 2.25-.96.01-1.47-1.37-4.11-2.24Zm-286-89.39-1.13.56Zm.02 0h-.02Zm.03-.02-.03.01Zm.06-.03-.06.03Zm.03-.01h-.03Zm305.22-152.3v-5.67h4.4c1.46 0 2.93-1.41 4.4 0s0 4.25 0 4.25c-1.47 1.41-2.93 2.83-4.4 2.83a5.5 5.5 0 0 1-4.39-1.41Zm33.7-5.67c0-1.41-2.94-2.83 1.46-4.24l4.4-2.84h2.93c1.46-1.41 4.39 0 4.39 0 0 1.42 1.47 1.42-1.46 2.84l-2.93 1.4c-1.47 0 0 1.43-1.47 1.43-2.02.97-4.74 2.62-6.23 2.62-.67 0-1.09-.33-1.09-1.2Zm-8.8 0c-1.46-1.41-2.92-4.24-4.39-4.24s0-1.42-2.93-1.42c-4.4 0 0 1.42-5.86 0-4.4-2.83-4.4-2.83-5.86-2.83 0 0-2.93 0-4.4-1.42 0 0 0-2.83 1.47-4.25s1.46-1.41 2.93-1.41c1.47-1.42 1.47-5.67 1.47-5.67s5.85-2.83 5.85-1.41-1.46 5.66 1.47 4.24c1.46 0 1.46-2.83 1.46-2.83v-2.83a20 20 0 0 1-2.93-4.25s-1.46-4.25 1.47-4.25h5.86c1.46 1.42 1.46 4.25 1.46 4.25 1.47 1.42 5.86 2.83 5.86 1.42h1.47c1.46 1.41 5.86 1.41 4.39 2.83 0 0-2.93 2.83-2.93 4.25-1.46 0-5.86-1.42-1.46 2.83 2.93 4.25 4.39 2.83 4.39 4.25a3.1 3.1 0 0 1-2.93 2.83c-1.46 0-2.93 0-2.93-1.41-1.46-1.42-1.46-2.84-2.93-2.84-2.93 0-1.46 4.25 0 4.25l8.79 2.83s-2.93 4.25-2.93 5.67c-1.17 0-2.34 1.8-4.26 1.8a4 4 0 0 1-1.59-.39Zm112.8-4.24v-2.84c1.47 0 4.4-1.41 4.4-1.41l2.94 2.83a21 21 0 0 1-4.4 2.83 5 5 0 0 1-2.93-1.4Zm-19.04 0v-2.84a5.2 5.2 0 0 1 2.93-1.41s1.47-1.42 1.47 0c1.46 0 2.93 1.41 1.46 2.83a4.6 4.6 0 0 1-2.93 1.42 3.2 3.2 0 0 1-2.01 1.06c-.55 0-.91-.35-.91-1.06Zm26.49-1.48-.12.06Zm.01 0h-.01Zm.04-.02-.04.02Zm.02-.01h-.02Zm.18-.09-.18.09Zm.42-.2-.42.2Zm.5-.25-.5.25Zm-99.45-7.87a3.1 3.1 0 0 1 2.94-2.83c0 1.42 1.46 1.42 1.46 2.83-1.46 1.42-1.46 2.84-2.93 2.84s-1.46-2.83-1.46-2.83Zm35.17-5.66a1.9 1.9 0 0 1 0-2.83l1.46-1.41a5 5 0 0 0-1.46-2.83c1.46-1.42 4.39 0 4.39 0 0 1.4 0 2.83 1.47 1.4s1.46-2.82 2.93-4.23h1.46c1.46 1.4 4.4 1.4 4.4 1.4s4.4-1.4 4.4 0c0 0 2.93 4.26 1.46 4.26s-5.86-1.42-7.32-1.42-1.47 2.83-2.94 2.83c0 1.42-2.92 4.25-4.39 4.25a6.5 6.5 0 0 0-4.4 1.41s-1.45 0-1.45-2.83Zm-35.17 1.42c-1.46-2.83 0-4.25 0-4.25 1.47 0 2.94-1.41 2.94 0 0 0 4.4-1.41 1.46 1.42a35 35 0 0 0-4.31 3.38q-.1.01-.08-.55Zm24.91-5.66s-1.47-2.83 1.46-2.83h2.93c1.47 1.4 2.93 0 2.93 1.4-1.46 1.43 0 2.84-1.46 2.84a16 16 0 0 1-5.85-1.41Zm-13.18-15.58c0-1.41 1.46 0 1.46-1.41s-2.93-1.42-1.46-4.25c1.46-1.42 1.46-5.67 2.93-1.42 2.93 2.83 1.46 2.83 2.93 5.67 0 2.6-2.75 5.2-4.54 5.2-1.13 0-1.88-1.04-1.31-3.79Zm-282.45-515.4v.06q-.24-.06 0-.06m207.82-252.8-7.27-2.84a8.7 8.7 0 0 1 2.91-5.68c2.9-1.42 5.81-2.84 5.81-4.26a4.25 4.25 0 0 1 0-5.69c2.9 0 2.9-2.83 7.27-2.83 2.9 1.42 4.36 1.42 4.36 4.25-1.46 2.85 0 2.85-1.46 4.27s-4.35 1.42-5.8 5.68a17 17 0 0 1-1.46 7.1c0 .48-.48.63-1.13.63a13 13 0 0 1-3.22-.63Zm-26.16-7.1c0-1.42-4.36-5.68-4.36-5.68 0-1.43-2.9-4.27 1.45-5.69 2.91-2.83 13.08-7.1 14.54-7.1 0 0 4.36-7.1 5.81-8.52h10.17a6.5 6.5 0 0 0 4.36 1.42c1.16.57 2.79.23 4.14-.12 2.02-.5 3.42-1.02 1.67 1.54-4.35 2.84-5.8 4.26-7.26 4.26-1.45 1.42-8.72 7.1-8.72 9.94-1.45 2.84 0 2.84-1.45 4.26-2.9 1.42-11.63 5.69-13.09 7.1-1.45 0-3.26.36-4.71.36s-2.54-.35-2.54-1.77Z" transform="translate(6521.266 1390.115)"/><path id="Background" fill="none" d="M0 0h1366v1257H0z" transform="translate(-6 1485)"/><circle id="Ellipse_20" cx="9.5" cy="9.5" r="9.5" fill="#417da5" opacity="0.053" transform="translate(583 2356)"/><ellipse id="Ellipse_21" cx="10" cy="9.5" fill="#417da5" opacity="0.053" rx="10" ry="9.5" transform="translate(577 2377)"/><circle id="Ellipse_22" cx="9.5" cy="9.5" r="9.5" fill="#417da5" opacity="0.053" transform="translate(309 2377)"/><ellipse id="Ellipse_23" cx="9.5" cy="10" fill="#417da5" opacity="0.053" rx="9.5" ry="10" transform="translate(562 2361)"/><circle id="Ellipse_24" cx="9.5" cy="9.5" r="9.5" fill="#417da5" opacity="0.053" transform="translate(555 2381)"/></g></svg>