<svg xmlns="http://www.w3.org/2000/svg" width="739.875" height="567.034" viewBox="0 0 739.875 567.034"><g transform="translate(-234 -106)"><g transform="translate(234 106)"><path d="M338.044-147,633.864-72.416,342.438,82.072,42.223-72.419Z" transform="translate(31.893 456.877)" fill="#15465c" fill-rule="evenodd"/><path d="M296.806-205.5l197.221,50.852L300.334-24.7,97.981-154.6Z" transform="translate(74.009 412.69)" fill="#c7550e" fill-rule="evenodd"/><path d="M665.731-104.5,739.875-9.092,369.937,78.055,0-9.092,74.144-104.5,369.937-34.819Z" transform="translate(0 488.979)" fill="#1b739d" fill-rule="evenodd"/><path d="M524.892-176.5l71.874,92.482L326.883-16.764,57-84.018,128.874-176.5l198.009,45.74Z" transform="translate(43.054 434.595)" fill="#f89659" fill-rule="evenodd"/><path d="M382.584-194.315,456.168-99.5,284.584-56.679,113-99.5l73.584-94.818c32.193-43.054,96.49-129.158,96.5-129.2S334.28-257.283,382.584-194.315Z" transform="translate(85.353 323.551)" fill="#9aea9a" fill-rule="evenodd"/><path d="M209.809-323.256c.044.031,138.927,180.062,173.1,224.026L211.136-56.384C211.223-97.606,209.88-323.272,209.809-323.256Z" transform="translate(158.61 323.256)" fill="#7fc77f" fill-rule="evenodd"/><path d="M409.023-176.51l71.8,92.5L210.5-16.757h0l.378-114Z" transform="translate(158.999 434.588)" fill="#fa690f" fill-rule="evenodd"/><path d="M506.773-104.509l74.1,95.423L210.5,78.062l.478-112.868Z" transform="translate(158.999 488.973)" fill="#145576" fill-rule="evenodd"/><g transform="translate(454.994 473.413) rotate(-13)"><path d="M30.578,9.411a10.552,10.552,0,0,0-20.98,0A10.552,10.552,0,0,0,10.759,30.47h9.325a5.891,5.891,0,0,0,0-11.782,3.437,3.437,0,1,1,2.433-5.876,1.227,1.227,0,1,0,1.74-1.731,5.891,5.891,0,1,0-4.17,10.042,3.437,3.437,0,0,1,0,6.874H10.759a8.1,8.1,0,0,1,0-16.2,1.224,1.224,0,0,0,1.224-1.224,8.1,8.1,0,1,1,16.2,0A1.227,1.227,0,0,0,29.412,11.8a8.1,8.1,0,1,1,0,16.2,1.227,1.227,0,0,0,0,2.454A10.552,10.552,0,0,0,30.575,9.408Z" transform="translate(0)" fill="#fff"/><path d="M8.221,6.714c-.6-.241-1.146-.422-1.929-.69-1.414-.452-2.8-.965-2.8-2.141s.9-1.776,2.288-1.776A5.242,5.242,0,0,1,9.4,3.645l1.206-1.779A6.266,6.266,0,0,0,5.728,0C3.2,0,.9,1.447.9,4.094A3.689,3.689,0,0,0,3.163,7.528a10.57,10.57,0,0,0,1.957.754c.965.332,3.226.811,3.226,2.388S6.928,12.716,5.6,12.716a5.879,5.879,0,0,1-4.221-2.047L0,12.355a6.857,6.857,0,0,0,5.571,2.56,6.1,6.1,0,0,0,3.974-1.266,4.061,4.061,0,0,0,1.474-3.25,3.531,3.531,0,0,0-1.143-2.65A5.5,5.5,0,0,0,8.221,6.714Z" transform="translate(46.128 15.881)" fill="#fff"/><path d="M6.051,0A11.013,11.013,0,0,0,.69,1.447l.874,1.927A8.775,8.775,0,0,1,5.87,2.138c2.077,0,3.554,1.085,3.554,3.253v.573L5.6,6.114C2.282,6.262,0,7.679,0,10.479s2.288,4.426,4.935,4.426A5.853,5.853,0,0,0,9.485,12.78l.03,1.809h2.8V6.262c0-2.439-.57-3.642-1.535-4.637S8.429,0,6.051,0Zm3.4,10.781a4.5,4.5,0,0,1-3.645,2.077c-1.866,0-2.951-1.116-2.951-2.469S3.793,8.04,6.111,7.92l3.343-.211Z" transform="translate(58.77 15.881)" fill="#fff"/><path d="M7.257,0A7.1,7.1,0,0,0,0,7.407c0,4.516,2.921,7.5,7.166,7.5s6.111-2.11,6.292-2.258l-1.206-1.658a7.908,7.908,0,0,1-4.727,1.658A4.409,4.409,0,0,1,2.918,8.1H13.94a12.475,12.475,0,0,0,.091-1.266A6.53,6.53,0,0,0,7.257,0ZM2.952,6.174a4.209,4.209,0,0,1,4.221-4.1,4.149,4.149,0,0,1,4.124,4.1Z" transform="translate(80.6 15.881)" fill="#fff"/><path d="M8.227,6.714c-.6-.241-1.146-.422-1.926-.69-1.417-.452-2.8-.965-2.8-2.141s.9-1.776,2.288-1.776A5.25,5.25,0,0,1,9.406,3.645l1.206-1.779A6.266,6.266,0,0,0,5.734,0C3.2,0,.911,1.447.911,4.094A3.689,3.689,0,0,0,3.169,7.528a10.743,10.743,0,0,0,1.957.754c.962.332,3.223.811,3.223,2.379s-1.414,2.047-2.74,2.047A5.872,5.872,0,0,1,1.387,10.66L0,12.346a6.857,6.857,0,0,0,5.571,2.56,6.091,6.091,0,0,0,3.974-1.266,4.064,4.064,0,0,0,1.477-3.25,3.53,3.53,0,0,0-1.146-2.65A5.466,5.466,0,0,0,8.227,6.714Z" transform="translate(95.659 15.881)" fill="#fff"/><path d="M7.9,0A6.066,6.066,0,0,0,2.831,2.531h-.06V.273H0V20.017H2.891v-7.7l.03.03a5.557,5.557,0,0,0,4.938,2.56c4.245,0,6.955-3.253,6.955-7.5S12.119,0,7.9,0ZM7.3,12.438c-2.861,0-4.546-2.2-4.546-5.059S4.441,2.35,7.3,2.35s4.547,2.168,4.547,5.029S10.163,12.438,7.3,12.438Z" transform="translate(108.321 15.879)" fill="#fff"/><rect width="2.891" height="14.302" transform="translate(134.848 16.152)" fill="#fff"/><path d="M7.326,0a4.824,4.824,0,0,0-4.375,2.53h-.09L2.891.273H0V14.59H2.891V7.379c0-2.74.995-5,3.675-5,2.557,0,2.978,1.809,2.978,4.221V14.59h2.891V6.116C12.445,2.682,11.393,0,7.326,0Z" transform="translate(140.157 15.879)" fill="#fff"/><path d="M11.954.271l.03,2.258h-.091A5.717,5.717,0,0,0,6.895,0,6.786,6.786,0,0,0,0,7.2a6.786,6.786,0,0,0,6.895,7.2,5.726,5.726,0,0,0,5-2.56h.06V12.4A6.448,6.448,0,0,1,10.871,16.4a4.881,4.881,0,0,1-3.919,1.565,9.085,9.085,0,0,1-5.125-1.809L.473,18.176a10.986,10.986,0,0,0,6.382,2.138c3.554,0,5.33-1.444,6.385-2.741s1.565-3.015,1.565-6.171V.271ZM7.5,12.029c-2.921,0-4.546-2.138-4.546-4.848S4.576,2.3,7.5,2.3s4.546,2.168,4.546,4.878S10.449,12.044,7.5,12.044Z" transform="translate(154.221 15.881)" fill="#fff"/><path d="M.965,1.566A6.032,6.032,0,0,0,0,5.392V21.123H2.861V9.154h3.4V6.836h-3.4V5.241c0-1.628.3-3.042,2.2-3.042a5.49,5.49,0,0,1,1.206.154V.17A9.293,9.293,0,0,0,4.4,0,4.332,4.332,0,0,0,.965,1.566Z" transform="translate(73.512 9.347)" fill="#fff"/><path d="M2.952,2.475H2.861l.03-2.2H0V14.595H2.891V7.444a6.391,6.391,0,0,1,.871-3.618A3.014,3.014,0,0,1,6.111,2.62a3.789,3.789,0,0,1,1.568.3V.145A4.763,4.763,0,0,0,6.473,0,3.749,3.749,0,0,0,2.952,2.475Z" transform="translate(124.739 15.875)" fill="#fff"/><ellipse cx="1.881" cy="1.881" rx="1.881" ry="1.881" transform="translate(134.395 9.348)" fill="#fff"/></g><path d="M-107.568.16a8.545,8.545,0,0,1-2.5-.368,5.226,5.226,0,0,1-1.912-.976l.72-1.616a5.672,5.672,0,0,0,1.688.888,6.138,6.138,0,0,0,2.008.344,3.47,3.47,0,0,0,1.864-.4,1.212,1.212,0,0,0,.616-1.056,1.022,1.022,0,0,0-.344-.792A2.415,2.415,0,0,0-106.3-4.3q-.528-.176-1.44-.4a16.786,16.786,0,0,1-2.072-.608,3.41,3.41,0,0,1-1.36-.952,2.564,2.564,0,0,1-.568-1.752,2.989,2.989,0,0,1,.5-1.688,3.41,3.41,0,0,1,1.52-1.208,6.158,6.158,0,0,1,2.488-.448,8.036,8.036,0,0,1,2.016.256,5.572,5.572,0,0,1,1.712.736l-.656,1.616a6.472,6.472,0,0,0-1.536-.656,5.746,5.746,0,0,0-1.552-.224,3.242,3.242,0,0,0-1.832.416,1.283,1.283,0,0,0-.6,1.1,1,1,0,0,0,.344.784,2.485,2.485,0,0,0,.872.48q.528.176,1.44.4a15.153,15.153,0,0,1,2.048.6,3.507,3.507,0,0,1,1.368.952,2.509,2.509,0,0,1,.568,1.728,2.951,2.951,0,0,1-.5,1.68,3.428,3.428,0,0,1-1.528,1.2A6.216,6.216,0,0,1-107.568.16ZM-90.736-11.2-95.616,0h-2.048l-4.9-11.2h2.256l3.728,8.64,3.76-8.64Zm9.584,9.456V0h-8.4V-11.2h8.176v1.744h-6.1v2.912h5.408v1.712h-5.408v3.088ZM-68.88-11.2V0h-1.712l-6.176-7.584V0h-2.064V-11.2h1.712l6.176,7.584V-11.2ZM-62.4.16a8.545,8.545,0,0,1-2.5-.368,5.226,5.226,0,0,1-1.912-.976L-66.1-2.8a5.672,5.672,0,0,0,1.688.888,6.138,6.138,0,0,0,2.008.344,3.47,3.47,0,0,0,1.864-.4,1.212,1.212,0,0,0,.616-1.056,1.022,1.022,0,0,0-.344-.792,2.415,2.415,0,0,0-.872-.488q-.528-.176-1.44-.4a16.786,16.786,0,0,1-2.072-.608,3.41,3.41,0,0,1-1.36-.952,2.564,2.564,0,0,1-.568-1.752,2.989,2.989,0,0,1,.5-1.688,3.41,3.41,0,0,1,1.52-1.208,6.158,6.158,0,0,1,2.488-.448,8.036,8.036,0,0,1,2.016.256,5.572,5.572,0,0,1,1.712.736l-.656,1.616a6.472,6.472,0,0,0-1.536-.656,5.746,5.746,0,0,0-1.552-.224,3.242,3.242,0,0,0-1.832.416,1.283,1.283,0,0,0-.6,1.1,1,1,0,0,0,.344.784,2.485,2.485,0,0,0,.872.48q.528.176,1.44.4a15.153,15.153,0,0,1,2.048.6A3.507,3.507,0,0,1-58.44-4.9a2.509,2.509,0,0,1,.568,1.728,2.951,2.951,0,0,1-.5,1.68A3.428,3.428,0,0,1-59.9-.288,6.216,6.216,0,0,1-62.4.16Zm10.448-4.848-1.776,1.824V0h-2.08V-11.2h2.08v5.744l5.536-5.744h2.336l-4.7,5.008L-45.568,0H-48ZM-29.44,0l-.016-7.424-3.68,6.144h-.928l-3.68-6.048V0h-1.984V-11.2h1.712l4.448,7.424L-29.2-11.2h1.712L-27.472,0Zm10.224.16A6.387,6.387,0,0,1-22.3-.584a5.51,5.51,0,0,1-2.16-2.064A5.671,5.671,0,0,1-25.248-5.6a5.671,5.671,0,0,1,.784-2.952,5.51,5.51,0,0,1,2.16-2.064,6.387,6.387,0,0,1,3.088-.744,6.387,6.387,0,0,1,3.088.744,5.527,5.527,0,0,1,2.16,2.056,5.659,5.659,0,0,1,.784,2.96,5.659,5.659,0,0,1-.784,2.96,5.527,5.527,0,0,1-2.16,2.056A6.387,6.387,0,0,1-19.216.16Zm0-1.824a4.04,4.04,0,0,0,2.016-.5,3.645,3.645,0,0,0,1.408-1.408A4.034,4.034,0,0,0-15.28-5.6a4.034,4.034,0,0,0-.512-2.024A3.645,3.645,0,0,0-17.2-9.032a4.04,4.04,0,0,0-2.016-.5,4.04,4.04,0,0,0-2.016.5A3.645,3.645,0,0,0-22.64-7.624,4.034,4.034,0,0,0-23.152-5.6a4.034,4.034,0,0,0,.512,2.024,3.645,3.645,0,0,0,1.408,1.408A4.04,4.04,0,0,0-19.216-1.664Zm8.24-9.536H-8.9v9.44H-3.04V0h-7.936Zm19.536,0V0H6.848L.672-7.584V0H-1.392V-11.2H.32L6.5-3.616V-11.2Zm7.616,0a6.2,6.2,0,0,1,2.536.48,3.688,3.688,0,0,1,1.656,1.376,3.85,3.85,0,0,1,.576,2.128,3.86,3.86,0,0,1-.576,2.12,3.67,3.67,0,0,1-1.656,1.384,6.2,6.2,0,0,1-2.536.48H13.648V0h-2.08V-11.2Zm-.1,6.208a3.2,3.2,0,0,0,2.064-.576,2.008,2.008,0,0,0,.7-1.648,2.008,2.008,0,0,0-.7-1.648A3.2,3.2,0,0,0,16.08-9.44H13.648v4.448ZM23.024-11.2H25.1v9.44H30.96V0H23.024ZM39.952-2.592h-5.6L33.248,0H31.1l5.04-11.2h2.048L43.248,0H41.072Zm-.688-1.632-2.112-4.9-2.1,4.9Zm7.12-5.216H42.672V-11.2h9.5v1.76H48.464V0h-2.08Zm9.792,0H52.464V-11.2h9.5v1.76H58.256V0h-2.08Zm9.44-.016v3.408h5.408v1.76H65.616V0h-2.08V-11.2h8.176v1.744ZM78.832.16a6.387,6.387,0,0,1-3.088-.744,5.51,5.51,0,0,1-2.16-2.064A5.671,5.671,0,0,1,72.8-5.6a5.671,5.671,0,0,1,.784-2.952,5.51,5.51,0,0,1,2.16-2.064,6.387,6.387,0,0,1,3.088-.744,6.387,6.387,0,0,1,3.088.744A5.527,5.527,0,0,1,84.08-8.56a5.659,5.659,0,0,1,.784,2.96,5.659,5.659,0,0,1-.784,2.96A5.527,5.527,0,0,1,81.92-.584,6.387,6.387,0,0,1,78.832.16Zm0-1.824a4.04,4.04,0,0,0,2.016-.5,3.645,3.645,0,0,0,1.408-1.408A4.034,4.034,0,0,0,82.768-5.6a4.034,4.034,0,0,0-.512-2.024,3.645,3.645,0,0,0-1.408-1.408,4.04,4.04,0,0,0-2.016-.5,4.04,4.04,0,0,0-2.016.5,3.645,3.645,0,0,0-1.408,1.408A4.034,4.034,0,0,0,74.9-5.6a4.034,4.034,0,0,0,.512,2.024,3.645,3.645,0,0,0,1.408,1.408A4.04,4.04,0,0,0,78.832-1.664ZM94.4,0,92.112-3.28a4.265,4.265,0,0,1-.432.016H89.152V0h-2.08V-11.2H91.68a6.2,6.2,0,0,1,2.536.48,3.688,3.688,0,0,1,1.656,1.376,3.85,3.85,0,0,1,.576,2.128,3.8,3.8,0,0,1-.616,2.176,3.665,3.665,0,0,1-1.768,1.36L96.64,0Zm-.048-7.216a2.007,2.007,0,0,0-.7-1.648,3.2,3.2,0,0,0-2.064-.576H89.152v4.464h2.432a3.164,3.164,0,0,0,2.064-.584A2.031,2.031,0,0,0,94.352-7.216ZM109.056,0l-.016-7.424L105.36-1.28h-.928l-3.68-6.048V0H98.768V-11.2h1.712l4.448,7.424L109.3-11.2h1.712L111.024,0Z" transform="translate(197.253 478.852) rotate(13)" fill="#fff"/><path d="M-51.272.16a8.545,8.545,0,0,1-2.5-.368,5.226,5.226,0,0,1-1.912-.976l.72-1.616a5.672,5.672,0,0,0,1.688.888,6.138,6.138,0,0,0,2.008.344,3.47,3.47,0,0,0,1.864-.4,1.212,1.212,0,0,0,.616-1.056,1.022,1.022,0,0,0-.344-.792,2.415,2.415,0,0,0-.872-.488q-.528-.176-1.44-.4a16.786,16.786,0,0,1-2.072-.608,3.41,3.41,0,0,1-1.36-.952,2.564,2.564,0,0,1-.568-1.752,2.988,2.988,0,0,1,.5-1.688,3.41,3.41,0,0,1,1.52-1.208,6.158,6.158,0,0,1,2.488-.448,8.036,8.036,0,0,1,2.016.256,5.572,5.572,0,0,1,1.712.736l-.656,1.616A6.472,6.472,0,0,0-49.4-9.408a5.746,5.746,0,0,0-1.552-.224,3.242,3.242,0,0,0-1.832.416,1.283,1.283,0,0,0-.6,1.1,1,1,0,0,0,.344.784,2.485,2.485,0,0,0,.872.48q.528.176,1.44.4a15.153,15.153,0,0,1,2.048.6,3.507,3.507,0,0,1,1.368.952,2.509,2.509,0,0,1,.568,1.728,2.951,2.951,0,0,1-.5,1.68,3.428,3.428,0,0,1-1.528,1.2A6.216,6.216,0,0,1-51.272.16Zm11.408,0a4.871,4.871,0,0,1-3.616-1.3,5.074,5.074,0,0,1-1.3-3.736V-11.2h2.08v6.24q0,3.3,2.848,3.3,2.832,0,2.832-3.3V-11.2h2.048v6.32a5.093,5.093,0,0,1-1.288,3.736A4.843,4.843,0,0,1-39.864.16ZM-22.1-11.2V0h-1.712l-6.176-7.584V0h-2.064V-11.2h1.712l6.176,7.584V-11.2ZM-10.7-1.744V0h-8.4V-11.2h8.176v1.744h-6.1v2.912h5.408v1.712h-5.408v3.088ZM-6.1-9.44H-9.816V-11.2h9.5v1.76H-4.024V0H-6.1ZM5.672-11.2h4.9a7.026,7.026,0,0,1,3.184.7,5.151,5.151,0,0,1,2.16,1.968A5.568,5.568,0,0,1,16.68-5.6a5.568,5.568,0,0,1-.768,2.936A5.151,5.151,0,0,1,13.752-.7a7.026,7.026,0,0,1-3.184.7h-4.9Zm4.8,9.44a4.753,4.753,0,0,0,2.168-.472,3.377,3.377,0,0,0,1.44-1.344,3.972,3.972,0,0,0,.5-2.024,3.972,3.972,0,0,0-.5-2.024,3.377,3.377,0,0,0-1.44-1.344,4.753,4.753,0,0,0-2.168-.472H7.752v7.68ZM26.216,0,23.928-3.28a4.265,4.265,0,0,1-.432.016H20.968V0h-2.08V-11.2H23.5a6.2,6.2,0,0,1,2.536.48,3.688,3.688,0,0,1,1.656,1.376,3.85,3.85,0,0,1,.576,2.128,3.8,3.8,0,0,1-.616,2.176A3.665,3.665,0,0,1,25.88-3.68L28.456,0Zm-.048-7.216a2.008,2.008,0,0,0-.7-1.648A3.2,3.2,0,0,0,23.4-9.44H20.968v4.464H23.4a3.164,3.164,0,0,0,2.064-.584A2.031,2.031,0,0,0,26.168-7.216ZM30.584-11.2h2.08V0h-2.08Zm15.264,0L40.968,0H38.92l-4.9-11.2H36.28l3.728,8.64,3.76-8.64Zm9.584,9.456V0h-8.4V-11.2h8.176v1.744h-6.1v2.912H54.52v1.712H49.112v3.088Z" transform="translate(243.535 339.313) rotate(13)" fill="#fff"/><path d="M-21.264-11.2h4.9a7.026,7.026,0,0,1,3.184.7,5.151,5.151,0,0,1,2.16,1.968A5.568,5.568,0,0,1-10.256-5.6a5.568,5.568,0,0,1-.768,2.936A5.151,5.151,0,0,1-13.184-.7a7.026,7.026,0,0,1-3.184.7h-4.9Zm4.8,9.44A4.753,4.753,0,0,0-14.3-2.232a3.377,3.377,0,0,0,1.44-1.344,3.972,3.972,0,0,0,.5-2.024,3.972,3.972,0,0,0-.5-2.024A3.377,3.377,0,0,0-14.3-8.968a4.753,4.753,0,0,0-2.168-.472h-2.72v7.68Zm15.52-.832h-5.6L-7.648,0H-9.792l5.04-11.2H-2.7L2.352,0H.176Zm-.688-1.632-2.112-4.9-2.1,4.9ZM5.488-9.44H1.776V-11.2h9.5v1.76H7.568V0H5.488ZM19.552-2.592h-5.6L12.848,0H10.7l5.04-11.2h2.048L22.848,0H20.672Zm-.688-1.632-2.112-4.9-2.1,4.9Z" transform="translate(290.535 212.929) rotate(13)" fill="#fff"/><path d="M-48.48.16a4.871,4.871,0,0,1-3.616-1.3,5.074,5.074,0,0,1-1.3-3.736V-11.2h2.08v6.24q0,3.3,2.848,3.3,2.832,0,2.832-3.3V-11.2h2.048v6.32a5.093,5.093,0,0,1-1.288,3.736A4.843,4.843,0,0,1-48.48.16ZM-30.72-11.2V0h-1.712l-6.176-7.584V0h-2.064V-11.2h1.712l6.176,7.584V-11.2Zm3.008,0h2.08V0h-2.08Zm15.264,0L-17.328,0h-2.048l-4.9-11.2h2.256l3.728,8.64,3.76-8.64Zm9.584,9.456V0h-8.4V-11.2h8.176v1.744h-6.1v2.912h5.408v1.712H-9.184v3.088ZM6.784,0,4.5-3.28a4.265,4.265,0,0,1-.432.016H1.536V0H-.544V-11.2H4.064a6.2,6.2,0,0,1,2.536.48A3.688,3.688,0,0,1,8.256-9.344a3.85,3.85,0,0,1,.576,2.128A3.8,3.8,0,0,1,8.216-5.04,3.665,3.665,0,0,1,6.448-3.68L9.024,0ZM6.736-7.216a2.008,2.008,0,0,0-.7-1.648A3.2,3.2,0,0,0,3.968-9.44H1.536v4.464H3.968A3.164,3.164,0,0,0,6.032-5.56,2.031,2.031,0,0,0,6.736-7.216ZM14.624.16a8.545,8.545,0,0,1-2.5-.368,5.226,5.226,0,0,1-1.912-.976l.72-1.616a5.672,5.672,0,0,0,1.688.888,6.138,6.138,0,0,0,2.008.344,3.47,3.47,0,0,0,1.864-.4A1.212,1.212,0,0,0,17.1-3.024a1.022,1.022,0,0,0-.344-.792,2.415,2.415,0,0,0-.872-.488q-.528-.176-1.44-.4a16.786,16.786,0,0,1-2.072-.608,3.41,3.41,0,0,1-1.36-.952,2.564,2.564,0,0,1-.568-1.752,2.989,2.989,0,0,1,.5-1.688,3.41,3.41,0,0,1,1.52-1.208,6.158,6.158,0,0,1,2.488-.448,8.036,8.036,0,0,1,2.016.256,5.572,5.572,0,0,1,1.712.736l-.656,1.616A6.472,6.472,0,0,0,16.5-9.408a5.746,5.746,0,0,0-1.552-.224,3.242,3.242,0,0,0-1.832.416,1.283,1.283,0,0,0-.6,1.1,1,1,0,0,0,.344.784,2.485,2.485,0,0,0,.872.48q.528.176,1.44.4a15.153,15.153,0,0,1,2.048.6,3.507,3.507,0,0,1,1.368.952,2.509,2.509,0,0,1,.568,1.728,2.951,2.951,0,0,1-.5,1.68,3.428,3.428,0,0,1-1.528,1.2A6.216,6.216,0,0,1,14.624.16ZM21.216-11.2H23.3V0h-2.08Zm7.376,1.76H24.88V-11.2h9.5v1.76H30.672V0h-2.08Zm15.76,7.7V0h-8.4V-11.2h8.176v1.744h-6.1v2.912H43.44v1.712H38.032v3.088Zm4.592-7.7H45.232V-11.2h9.5v1.76H51.024V0h-2.08Z" transform="translate(446.009 210.55) rotate(-13)" fill="#fff"/><g transform="translate(468.231 311.531) rotate(-13)"><text transform="translate(0.049 55.844)" fill="#fff" font-size="14" font-family="Helvetica"><tspan x="0" y="0">SUNET</tspan></text><path d="M4.873,22.873V5.361c0-.128.273-.487.488-.487H45.223V0H5.36C3.359,0,0,.7,0,5.361V22.874a4.973,4.973,0,0,0,5.36,5.361H30.116V23.362H5.36A.554.554,0,0,1,4.873,22.873Z" fill="#fff"/><path d="M40.522,38.4V55.908c0,.128-.273.488-.487.488H.172v4.874H40.035c2,0,5.361-.7,5.361-5.361V38.4a4.974,4.974,0,0,0-5.361-5.361H15.279v4.874H40.035A.552.552,0,0,1,40.522,38.4Z" transform="translate(-0.111 -21.386)" fill="#fff"/></g></g><g transform="translate(234 106)"><path d="M338.044-147,633.864-72.416,342.438,82.072,42.223-72.419Z" transform="translate(31.893 456.877)" fill="#15465c" fill-rule="evenodd"/><path d="M296.806-205.5l197.221,50.852L300.334-24.7,97.981-154.6Z" transform="translate(74.009 412.69)" fill="#c7550e" fill-rule="evenodd"/><path d="M665.731-104.5,739.875-9.092,369.937,78.055,0-9.092,74.144-104.5,369.937-34.819Z" transform="translate(0 488.979)" fill="#1b739d" fill-rule="evenodd"/><path d="M524.892-176.5l71.874,92.482L326.883-16.764,57-84.018,128.874-176.5l198.009,45.74Z" transform="translate(43.054 434.595)" fill="#f89659" fill-rule="evenodd"/><path d="M382.584-194.315,456.168-99.5,284.584-56.679,113-99.5l73.584-94.818c32.193-43.054,96.49-129.158,96.5-129.2S334.28-257.283,382.584-194.315Z" transform="translate(85.353 323.551)" fill="#9aea9a" fill-rule="evenodd"/><path d="M209.809-323.256c.044.031,138.927,180.062,173.1,224.026L211.136-56.384C211.223-97.606,209.88-323.272,209.809-323.256Z" transform="translate(158.61 323.256)" fill="#7fc77f" fill-rule="evenodd"/><path d="M409.023-176.51l71.8,92.5L210.5-16.757h0l.378-114Z" transform="translate(158.999 434.588)" fill="#fa690f" fill-rule="evenodd"/><path d="M506.773-104.509l74.1,95.423L210.5,78.062l.478-112.868Z" transform="translate(158.999 488.973)" fill="#145576" fill-rule="evenodd"/><g transform="translate(454.994 473.413) rotate(-13)"><path d="M30.578,9.411a10.552,10.552,0,0,0-20.98,0A10.552,10.552,0,0,0,10.759,30.47h9.325a5.891,5.891,0,0,0,0-11.782,3.437,3.437,0,1,1,2.433-5.876,1.227,1.227,0,1,0,1.74-1.731,5.891,5.891,0,1,0-4.17,10.042,3.437,3.437,0,0,1,0,6.874H10.759a8.1,8.1,0,0,1,0-16.2,1.224,1.224,0,0,0,1.224-1.224,8.1,8.1,0,1,1,16.2,0A1.227,1.227,0,0,0,29.412,11.8a8.1,8.1,0,1,1,0,16.2,1.227,1.227,0,0,0,0,2.454A10.552,10.552,0,0,0,30.575,9.408Z" transform="translate(0)" fill="#fff"/><path d="M8.221,6.714c-.6-.241-1.146-.422-1.929-.69-1.414-.452-2.8-.965-2.8-2.141s.9-1.776,2.288-1.776A5.242,5.242,0,0,1,9.4,3.645l1.206-1.779A6.266,6.266,0,0,0,5.728,0C3.2,0,.9,1.447.9,4.094A3.689,3.689,0,0,0,3.163,7.528a10.57,10.57,0,0,0,1.957.754c.965.332,3.226.811,3.226,2.388S6.928,12.716,5.6,12.716a5.879,5.879,0,0,1-4.221-2.047L0,12.355a6.857,6.857,0,0,0,5.571,2.56,6.1,6.1,0,0,0,3.974-1.266,4.061,4.061,0,0,0,1.474-3.25,3.531,3.531,0,0,0-1.143-2.65A5.5,5.5,0,0,0,8.221,6.714Z" transform="translate(46.128 15.881)" fill="#fff"/><path d="M6.051,0A11.013,11.013,0,0,0,.69,1.447l.874,1.927A8.775,8.775,0,0,1,5.87,2.138c2.077,0,3.554,1.085,3.554,3.253v.573L5.6,6.114C2.282,6.262,0,7.679,0,10.479s2.288,4.426,4.935,4.426A5.853,5.853,0,0,0,9.485,12.78l.03,1.809h2.8V6.262c0-2.439-.57-3.642-1.535-4.637S8.429,0,6.051,0Zm3.4,10.781a4.5,4.5,0,0,1-3.645,2.077c-1.866,0-2.951-1.116-2.951-2.469S3.793,8.04,6.111,7.92l3.343-.211Z" transform="translate(58.77 15.881)" fill="#fff"/><path d="M7.257,0A7.1,7.1,0,0,0,0,7.407c0,4.516,2.921,7.5,7.166,7.5s6.111-2.11,6.292-2.258l-1.206-1.658a7.908,7.908,0,0,1-4.727,1.658A4.409,4.409,0,0,1,2.918,8.1H13.94a12.475,12.475,0,0,0,.091-1.266A6.53,6.53,0,0,0,7.257,0ZM2.952,6.174a4.209,4.209,0,0,1,4.221-4.1,4.149,4.149,0,0,1,4.124,4.1Z" transform="translate(80.6 15.881)" fill="#fff"/><path d="M8.227,6.714c-.6-.241-1.146-.422-1.926-.69-1.417-.452-2.8-.965-2.8-2.141s.9-1.776,2.288-1.776A5.25,5.25,0,0,1,9.406,3.645l1.206-1.779A6.266,6.266,0,0,0,5.734,0C3.2,0,.911,1.447.911,4.094A3.689,3.689,0,0,0,3.169,7.528a10.743,10.743,0,0,0,1.957.754c.962.332,3.223.811,3.223,2.379s-1.414,2.047-2.74,2.047A5.872,5.872,0,0,1,1.387,10.66L0,12.346a6.857,6.857,0,0,0,5.571,2.56,6.091,6.091,0,0,0,3.974-1.266,4.064,4.064,0,0,0,1.477-3.25,3.53,3.53,0,0,0-1.146-2.65A5.466,5.466,0,0,0,8.227,6.714Z" transform="translate(95.659 15.881)" fill="#fff"/><path d="M7.9,0A6.066,6.066,0,0,0,2.831,2.531h-.06V.273H0V20.017H2.891v-7.7l.03.03a5.557,5.557,0,0,0,4.938,2.56c4.245,0,6.955-3.253,6.955-7.5S12.119,0,7.9,0ZM7.3,12.438c-2.861,0-4.546-2.2-4.546-5.059S4.441,2.35,7.3,2.35s4.547,2.168,4.547,5.029S10.163,12.438,7.3,12.438Z" transform="translate(108.321 15.879)" fill="#fff"/><rect width="2.891" height="14.302" transform="translate(134.848 16.152)" fill="#fff"/><path d="M7.326,0a4.824,4.824,0,0,0-4.375,2.53h-.09L2.891.273H0V14.59H2.891V7.379c0-2.74.995-5,3.675-5,2.557,0,2.978,1.809,2.978,4.221V14.59h2.891V6.116C12.445,2.682,11.393,0,7.326,0Z" transform="translate(140.157 15.879)" fill="#fff"/><path d="M11.954.271l.03,2.258h-.091A5.717,5.717,0,0,0,6.895,0,6.786,6.786,0,0,0,0,7.2a6.786,6.786,0,0,0,6.895,7.2,5.726,5.726,0,0,0,5-2.56h.06V12.4A6.448,6.448,0,0,1,10.871,16.4a4.881,4.881,0,0,1-3.919,1.565,9.085,9.085,0,0,1-5.125-1.809L.473,18.176a10.986,10.986,0,0,0,6.382,2.138c3.554,0,5.33-1.444,6.385-2.741s1.565-3.015,1.565-6.171V.271ZM7.5,12.029c-2.921,0-4.546-2.138-4.546-4.848S4.576,2.3,7.5,2.3s4.546,2.168,4.546,4.878S10.449,12.044,7.5,12.044Z" transform="translate(154.221 15.881)" fill="#fff"/><path d="M.965,1.566A6.032,6.032,0,0,0,0,5.392V21.123H2.861V9.154h3.4V6.836h-3.4V5.241c0-1.628.3-3.042,2.2-3.042a5.49,5.49,0,0,1,1.206.154V.17A9.293,9.293,0,0,0,4.4,0,4.332,4.332,0,0,0,.965,1.566Z" transform="translate(73.512 9.347)" fill="#fff"/><path d="M2.952,2.475H2.861l.03-2.2H0V14.595H2.891V7.444a6.391,6.391,0,0,1,.871-3.618A3.014,3.014,0,0,1,6.111,2.62a3.789,3.789,0,0,1,1.568.3V.145A4.763,4.763,0,0,0,6.473,0,3.749,3.749,0,0,0,2.952,2.475Z" transform="translate(124.739 15.875)" fill="#fff"/><ellipse cx="1.881" cy="1.881" rx="1.881" ry="1.881" transform="translate(134.395 9.348)" fill="#fff"/></g><text transform="translate(197.253 478.852) rotate(13)" fill="#fff" font-size="16" font-family="Montserrat-SemiBold, Montserrat" font-weight="600"><tspan x="-112.512" y="0">SVENSK MOLNPLATTFORM</tspan></text><text transform="translate(243.535 339.313) rotate(13)" fill="#fff" font-size="16" font-family="Montserrat-SemiBold, Montserrat" font-weight="600"><tspan x="-56.248" y="0">SUNET DRIVE</tspan></text><text transform="translate(290.535 212.929) rotate(13)" fill="#fff" font-size="16" font-family="Montserrat-SemiBold, Montserrat" font-weight="600"><tspan x="-22.768" y="0">DATA</tspan></text><text transform="translate(446.009 210.55) rotate(-13)" fill="#fff" font-size="16" font-family="Montserrat-SemiBold, Montserrat" font-weight="600"><tspan x="-54.8" y="0">UNIVERSITET</tspan></text></g><g transform="translate(234 106)"><path d="M338.044-147,633.864-72.416,342.438,82.072,42.223-72.419Z" transform="translate(31.893 456.877)" fill="#15465c" fill-rule="evenodd"/><path d="M296.806-205.5l197.221,50.852L300.334-24.7,97.981-154.6Z" transform="translate(74.009 412.69)" fill="#1c5e80" fill-rule="evenodd"/><path d="M665.731-104.5,739.875-9.092,369.937,78.055,0-9.092,74.144-104.5,369.937-34.819Z" transform="translate(0 488.979)" fill="#1b739d" fill-rule="evenodd"/><path d="M524.892-176.5l71.874,92.482L326.883-16.764,57-84.018,128.874-176.5l198.009,45.74Z" transform="translate(43.054 434.595)" fill="#5ab4e0" fill-rule="evenodd"/><path d="M382.584-194.315,456.168-99.5,284.584-56.679,113-99.5l73.584-94.818c32.193-43.054,96.49-129.158,96.5-129.2S334.28-257.283,382.584-194.315Z" transform="translate(85.353 323.551)" fill="#9ad2eb" fill-rule="evenodd"/><path d="M209.809-323.256c.044.031,138.927,180.062,173.1,224.026L211.136-56.384C211.223-97.606,209.88-323.272,209.809-323.256Z" transform="translate(158.61 323.256)" fill="#5fa6c7" fill-rule="evenodd"/><path d="M409.023-176.51l71.8,92.5L210.5-16.757h0l.378-114Z" transform="translate(158.999 434.588)" fill="#1b739d" fill-rule="evenodd"/><path d="M506.773-104.509l74.1,95.423L210.5,78.062l.478-112.868Z" transform="translate(158.999 488.973)" fill="#145576" fill-rule="evenodd"/><g transform="translate(454.994 473.413) rotate(-13)"><path d="M30.578,9.411a10.552,10.552,0,0,0-20.98,0A10.552,10.552,0,0,0,10.759,30.47h9.325a5.891,5.891,0,0,0,0-11.782,3.437,3.437,0,1,1,2.433-5.876,1.227,1.227,0,1,0,1.74-1.731,5.891,5.891,0,1,0-4.17,10.042,3.437,3.437,0,0,1,0,6.874H10.759a8.1,8.1,0,0,1,0-16.2,1.224,1.224,0,0,0,1.224-1.224,8.1,8.1,0,1,1,16.2,0A1.227,1.227,0,0,0,29.412,11.8a8.1,8.1,0,1,1,0,16.2,1.227,1.227,0,0,0,0,2.454A10.552,10.552,0,0,0,30.575,9.408Z" transform="translate(0)" fill="#fff"/><path d="M8.221,6.714c-.6-.241-1.146-.422-1.929-.69-1.414-.452-2.8-.965-2.8-2.141s.9-1.776,2.288-1.776A5.242,5.242,0,0,1,9.4,3.645l1.206-1.779A6.266,6.266,0,0,0,5.728,0C3.2,0,.9,1.447.9,4.094A3.689,3.689,0,0,0,3.163,7.528a10.57,10.57,0,0,0,1.957.754c.965.332,3.226.811,3.226,2.388S6.928,12.716,5.6,12.716a5.879,5.879,0,0,1-4.221-2.047L0,12.355a6.857,6.857,0,0,0,5.571,2.56,6.1,6.1,0,0,0,3.974-1.266,4.061,4.061,0,0,0,1.474-3.25,3.531,3.531,0,0,0-1.143-2.65A5.5,5.5,0,0,0,8.221,6.714Z" transform="translate(46.128 15.881)" fill="#fff"/><path d="M6.051,0A11.013,11.013,0,0,0,.69,1.447l.874,1.927A8.775,8.775,0,0,1,5.87,2.138c2.077,0,3.554,1.085,3.554,3.253v.573L5.6,6.114C2.282,6.262,0,7.679,0,10.479s2.288,4.426,4.935,4.426A5.853,5.853,0,0,0,9.485,12.78l.03,1.809h2.8V6.262c0-2.439-.57-3.642-1.535-4.637S8.429,0,6.051,0Zm3.4,10.781a4.5,4.5,0,0,1-3.645,2.077c-1.866,0-2.951-1.116-2.951-2.469S3.793,8.04,6.111,7.92l3.343-.211Z" transform="translate(58.77 15.881)" fill="#fff"/><path d="M7.257,0A7.1,7.1,0,0,0,0,7.407c0,4.516,2.921,7.5,7.166,7.5s6.111-2.11,6.292-2.258l-1.206-1.658a7.908,7.908,0,0,1-4.727,1.658A4.409,4.409,0,0,1,2.918,8.1H13.94a12.475,12.475,0,0,0,.091-1.266A6.53,6.53,0,0,0,7.257,0ZM2.952,6.174a4.209,4.209,0,0,1,4.221-4.1,4.149,4.149,0,0,1,4.124,4.1Z" transform="translate(80.6 15.881)" fill="#fff"/><path d="M8.227,6.714c-.6-.241-1.146-.422-1.926-.69-1.417-.452-2.8-.965-2.8-2.141s.9-1.776,2.288-1.776A5.25,5.25,0,0,1,9.406,3.645l1.206-1.779A6.266,6.266,0,0,0,5.734,0C3.2,0,.911,1.447.911,4.094A3.689,3.689,0,0,0,3.169,7.528a10.743,10.743,0,0,0,1.957.754c.962.332,3.223.811,3.223,2.379s-1.414,2.047-2.74,2.047A5.872,5.872,0,0,1,1.387,10.66L0,12.346a6.857,6.857,0,0,0,5.571,2.56,6.091,6.091,0,0,0,3.974-1.266,4.064,4.064,0,0,0,1.477-3.25,3.53,3.53,0,0,0-1.146-2.65A5.466,5.466,0,0,0,8.227,6.714Z" transform="translate(95.659 15.881)" fill="#fff"/><path d="M7.9,0A6.066,6.066,0,0,0,2.831,2.531h-.06V.273H0V20.017H2.891v-7.7l.03.03a5.557,5.557,0,0,0,4.938,2.56c4.245,0,6.955-3.253,6.955-7.5S12.119,0,7.9,0ZM7.3,12.438c-2.861,0-4.546-2.2-4.546-5.059S4.441,2.35,7.3,2.35s4.547,2.168,4.547,5.029S10.163,12.438,7.3,12.438Z" transform="translate(108.321 15.879)" fill="#fff"/><rect width="2.891" height="14.302" transform="translate(134.848 16.152)" fill="#fff"/><path d="M7.326,0a4.824,4.824,0,0,0-4.375,2.53h-.09L2.891.273H0V14.59H2.891V7.379c0-2.74.995-5,3.675-5,2.557,0,2.978,1.809,2.978,4.221V14.59h2.891V6.116C12.445,2.682,11.393,0,7.326,0Z" transform="translate(140.157 15.879)" fill="#fff"/><path d="M11.954.271l.03,2.258h-.091A5.717,5.717,0,0,0,6.895,0,6.786,6.786,0,0,0,0,7.2a6.786,6.786,0,0,0,6.895,7.2,5.726,5.726,0,0,0,5-2.56h.06V12.4A6.448,6.448,0,0,1,10.871,16.4a4.881,4.881,0,0,1-3.919,1.565,9.085,9.085,0,0,1-5.125-1.809L.473,18.176a10.986,10.986,0,0,0,6.382,2.138c3.554,0,5.33-1.444,6.385-2.741s1.565-3.015,1.565-6.171V.271ZM7.5,12.029c-2.921,0-4.546-2.138-4.546-4.848S4.576,2.3,7.5,2.3s4.546,2.168,4.546,4.878S10.449,12.044,7.5,12.044Z" transform="translate(154.221 15.881)" fill="#fff"/><path d="M.965,1.566A6.032,6.032,0,0,0,0,5.392V21.123H2.861V9.154h3.4V6.836h-3.4V5.241c0-1.628.3-3.042,2.2-3.042a5.49,5.49,0,0,1,1.206.154V.17A9.293,9.293,0,0,0,4.4,0,4.332,4.332,0,0,0,.965,1.566Z" transform="translate(73.512 9.347)" fill="#fff"/><path d="M2.952,2.475H2.861l.03-2.2H0V14.595H2.891V7.444a6.391,6.391,0,0,1,.871-3.618A3.014,3.014,0,0,1,6.111,2.62a3.789,3.789,0,0,1,1.568.3V.145A4.763,4.763,0,0,0,6.473,0,3.749,3.749,0,0,0,2.952,2.475Z" transform="translate(124.739 15.875)" fill="#fff"/><ellipse cx="1.881" cy="1.881" rx="1.881" ry="1.881" transform="translate(134.395 9.348)" fill="#fff"/></g><g transform="translate(421.673 335.813) rotate(-13)"><path d="M24.791,7.63a8.555,8.555,0,0,0-17.009,0A8.555,8.555,0,0,0,8.723,24.7h7.56a4.776,4.776,0,0,0,0-9.552,2.786,2.786,0,1,1,1.972-4.764.995.995,0,1,0,1.41-1.4,4.776,4.776,0,1,0-3.38,8.142,2.786,2.786,0,0,1,0,5.573H8.723a6.567,6.567,0,0,1,0-13.135.992.992,0,0,0,.992-.992,6.567,6.567,0,1,1,13.135,0,1,1,0,0,0,.995.992,6.567,6.567,0,1,1,0,13.135.995.995,0,0,0,0,1.99,8.555,8.555,0,0,0,.944-17.06Z" transform="translate(0)" fill="#fff"/><path d="M6.665,5.443c-.489-.2-.929-.342-1.564-.56C3.955,4.517,2.833,4.1,2.833,3.148s.733-1.44,1.855-1.44A4.25,4.25,0,0,1,7.621,2.955L8.6,1.513A5.08,5.08,0,0,0,4.644,0C2.593,0,.733,1.173.733,3.319A2.991,2.991,0,0,0,2.564,6.1a8.569,8.569,0,0,0,1.586.611c.782.269,2.615.658,2.615,1.936s-1.149,1.66-2.222,1.66A4.766,4.766,0,0,1,1.122,8.65L0,10.016a5.559,5.559,0,0,0,4.517,2.075,4.943,4.943,0,0,0,3.221-1.027,3.292,3.292,0,0,0,1.2-2.635,2.863,2.863,0,0,0-.926-2.148A4.459,4.459,0,0,0,6.665,5.443Z" transform="translate(37.397 12.875)" fill="#fff"/><path d="M4.905,0A8.929,8.929,0,0,0,.56,1.173l.709,1.562a7.114,7.114,0,0,1,3.49-1c1.684,0,2.882.88,2.882,2.637v.464l-3.1.122C1.85,5.077,0,6.225,0,8.5s1.855,3.588,4,3.588a4.745,4.745,0,0,0,3.688-1.723l.024,1.466H9.982V5.077A4.8,4.8,0,0,0,8.738,1.317,4.932,4.932,0,0,0,4.905,0Zm2.76,8.74A3.649,3.649,0,0,1,4.71,10.424a2.115,2.115,0,0,1-2.393-2c0-1.1.758-1.9,2.637-2L7.665,6.25Z" transform="translate(47.646 12.875)" fill="#fff"/><path d="M5.883,0A5.752,5.752,0,0,0,0,6.005c0,3.661,2.368,6.079,5.81,6.079a6.881,6.881,0,0,0,5.1-1.831L9.933,8.909A6.411,6.411,0,0,1,6.1,10.253,3.574,3.574,0,0,1,2.366,6.567H11.3a10.113,10.113,0,0,0,.073-1.027A5.294,5.294,0,0,0,5.883,0ZM2.393,5.005A3.412,3.412,0,0,1,5.815,1.684,3.364,3.364,0,0,1,9.158,5.005Z" transform="translate(65.344 12.875)" fill="#fff"/><path d="M6.67,5.443c-.489-.2-.929-.342-1.562-.56C3.96,4.517,2.838,4.1,2.838,3.148s.733-1.44,1.855-1.44A4.256,4.256,0,0,1,7.626,2.955L8.6,1.513A5.08,5.08,0,0,0,4.649,0C2.6,0,.738,1.173.738,3.319A2.991,2.991,0,0,0,2.569,6.1a8.709,8.709,0,0,0,1.586.611c.78.269,2.613.658,2.613,1.928S5.622,10.3,4.546,10.3a4.761,4.761,0,0,1-3.422-1.66L0,10.009a5.559,5.559,0,0,0,4.517,2.075,4.938,4.938,0,0,0,3.221-1.027,3.3,3.3,0,0,0,1.2-2.635,2.862,2.862,0,0,0-.929-2.148A4.431,4.431,0,0,0,6.67,5.443Z" transform="translate(77.552 12.875)" fill="#fff"/><path d="M6.409,0A4.918,4.918,0,0,0,2.295,2.052H2.246V.221H0V16.228H2.344V9.986l.025.024a4.505,4.505,0,0,0,4,2.075c3.441,0,5.639-2.637,5.639-6.079S9.825,0,6.409,0ZM5.92,10.084c-2.319,0-3.686-1.782-3.686-4.1S3.6,1.905,5.92,1.905,9.606,3.663,9.606,5.982,8.239,10.084,5.92,10.084Z" transform="translate(87.818 12.874)" fill="#fff"/><rect width="2.344" height="11.595" transform="translate(109.324 13.095)" fill="#fff"/><path d="M5.939,0A3.911,3.911,0,0,0,2.393,2.052H2.319L2.344.221H0V11.829H2.344V5.982c0-2.222.807-4.052,2.979-4.052C7.4,1.93,7.738,3.4,7.738,5.352v6.477h2.344V4.958C10.089,2.174,9.237,0,5.939,0Z" transform="translate(113.628 12.874)" fill="#fff"/><path d="M9.691.22l.025,1.831H9.642A4.635,4.635,0,0,0,5.59,0,5.5,5.5,0,0,0,0,5.834a5.5,5.5,0,0,0,5.59,5.834A4.642,4.642,0,0,0,9.642,9.593h.049v.457A5.227,5.227,0,0,1,8.814,13.3a3.957,3.957,0,0,1-3.177,1.268A7.366,7.366,0,0,1,1.481,13.1l-1.1,1.635a8.906,8.906,0,0,0,5.174,1.733,6.126,6.126,0,0,0,5.177-2.222C11.59,13.2,12,11.8,12,9.244V.22ZM6.079,9.752a3.6,3.6,0,0,1-3.686-3.93c0-2.2,1.317-3.955,3.686-3.955S9.764,3.625,9.764,5.822,8.471,9.764,6.079,9.764Z" transform="translate(125.03 12.875)" fill="#fff"/><path d="M.782,1.269A4.89,4.89,0,0,0,0,4.371V17.125H2.319v-9.7H5.077V5.542H2.319V4.249c0-1.32.244-2.466,1.782-2.466a4.451,4.451,0,0,1,.978.125V.138A7.534,7.534,0,0,0,3.566,0,3.512,3.512,0,0,0,.782,1.269Z" transform="translate(59.598 7.578)" fill="#fff"/><path d="M2.393,2.007H2.319L2.344.225H0V11.832H2.344v-5.8A5.181,5.181,0,0,1,3.05,3.1a2.443,2.443,0,0,1,1.9-.978,3.072,3.072,0,0,1,1.271.244V.117A3.862,3.862,0,0,0,5.248,0,3.039,3.039,0,0,0,2.393,2.007Z" transform="translate(101.129 12.87)" fill="#fff"/><ellipse cx="1.525" cy="1.525" rx="1.525" ry="1.525" transform="translate(108.957 7.579)" fill="#fff"/></g></g><path d="M-107.568.16a8.545,8.545,0,0,1-2.5-.368,5.226,5.226,0,0,1-1.912-.976l.72-1.616a5.672,5.672,0,0,0,1.688.888,6.138,6.138,0,0,0,2.008.344,3.47,3.47,0,0,0,1.864-.4,1.212,1.212,0,0,0,.616-1.056,1.022,1.022,0,0,0-.344-.792A2.415,2.415,0,0,0-106.3-4.3q-.528-.176-1.44-.4a16.786,16.786,0,0,1-2.072-.608,3.41,3.41,0,0,1-1.36-.952,2.564,2.564,0,0,1-.568-1.752,2.989,2.989,0,0,1,.5-1.688,3.41,3.41,0,0,1,1.52-1.208,6.158,6.158,0,0,1,2.488-.448,8.036,8.036,0,0,1,2.016.256,5.572,5.572,0,0,1,1.712.736l-.656,1.616a6.472,6.472,0,0,0-1.536-.656,5.746,5.746,0,0,0-1.552-.224,3.242,3.242,0,0,0-1.832.416,1.283,1.283,0,0,0-.6,1.1,1,1,0,0,0,.344.784,2.485,2.485,0,0,0,.872.48q.528.176,1.44.4a15.153,15.153,0,0,1,2.048.6,3.507,3.507,0,0,1,1.368.952,2.509,2.509,0,0,1,.568,1.728,2.951,2.951,0,0,1-.5,1.68,3.428,3.428,0,0,1-1.528,1.2A6.216,6.216,0,0,1-107.568.16ZM-90.736-11.2-95.616,0h-2.048l-4.9-11.2h2.256l3.728,8.64,3.76-8.64Zm9.584,9.456V0h-8.4V-11.2h8.176v1.744h-6.1v2.912h5.408v1.712h-5.408v3.088ZM-68.88-11.2V0h-1.712l-6.176-7.584V0h-2.064V-11.2h1.712l6.176,7.584V-11.2ZM-62.4.16a8.545,8.545,0,0,1-2.5-.368,5.226,5.226,0,0,1-1.912-.976L-66.1-2.8a5.672,5.672,0,0,0,1.688.888,6.138,6.138,0,0,0,2.008.344,3.47,3.47,0,0,0,1.864-.4,1.212,1.212,0,0,0,.616-1.056,1.022,1.022,0,0,0-.344-.792,2.415,2.415,0,0,0-.872-.488q-.528-.176-1.44-.4a16.786,16.786,0,0,1-2.072-.608,3.41,3.41,0,0,1-1.36-.952,2.564,2.564,0,0,1-.568-1.752,2.989,2.989,0,0,1,.5-1.688,3.41,3.41,0,0,1,1.52-1.208,6.158,6.158,0,0,1,2.488-.448,8.036,8.036,0,0,1,2.016.256,5.572,5.572,0,0,1,1.712.736l-.656,1.616a6.472,6.472,0,0,0-1.536-.656,5.746,5.746,0,0,0-1.552-.224,3.242,3.242,0,0,0-1.832.416,1.283,1.283,0,0,0-.6,1.1,1,1,0,0,0,.344.784,2.485,2.485,0,0,0,.872.48q.528.176,1.44.4a15.153,15.153,0,0,1,2.048.6A3.507,3.507,0,0,1-58.44-4.9a2.509,2.509,0,0,1,.568,1.728,2.951,2.951,0,0,1-.5,1.68A3.428,3.428,0,0,1-59.9-.288,6.216,6.216,0,0,1-62.4.16Zm10.448-4.848-1.776,1.824V0h-2.08V-11.2h2.08v5.744l5.536-5.744h2.336l-4.7,5.008L-45.568,0H-48ZM-29.44,0l-.016-7.424-3.68,6.144h-.928l-3.68-6.048V0h-1.984V-11.2h1.712l4.448,7.424L-29.2-11.2h1.712L-27.472,0Zm10.224.16A6.387,6.387,0,0,1-22.3-.584a5.51,5.51,0,0,1-2.16-2.064A5.671,5.671,0,0,1-25.248-5.6a5.671,5.671,0,0,1,.784-2.952,5.51,5.51,0,0,1,2.16-2.064,6.387,6.387,0,0,1,3.088-.744,6.387,6.387,0,0,1,3.088.744,5.527,5.527,0,0,1,2.16,2.056,5.659,5.659,0,0,1,.784,2.96,5.659,5.659,0,0,1-.784,2.96,5.527,5.527,0,0,1-2.16,2.056A6.387,6.387,0,0,1-19.216.16Zm0-1.824a4.04,4.04,0,0,0,2.016-.5,3.645,3.645,0,0,0,1.408-1.408A4.034,4.034,0,0,0-15.28-5.6a4.034,4.034,0,0,0-.512-2.024A3.645,3.645,0,0,0-17.2-9.032a4.04,4.04,0,0,0-2.016-.5,4.04,4.04,0,0,0-2.016.5A3.645,3.645,0,0,0-22.64-7.624,4.034,4.034,0,0,0-23.152-5.6a4.034,4.034,0,0,0,.512,2.024,3.645,3.645,0,0,0,1.408,1.408A4.04,4.04,0,0,0-19.216-1.664Zm8.24-9.536H-8.9v9.44H-3.04V0h-7.936Zm19.536,0V0H6.848L.672-7.584V0H-1.392V-11.2H.32L6.5-3.616V-11.2Zm7.616,0a6.2,6.2,0,0,1,2.536.48,3.688,3.688,0,0,1,1.656,1.376,3.85,3.85,0,0,1,.576,2.128,3.86,3.86,0,0,1-.576,2.12,3.67,3.67,0,0,1-1.656,1.384,6.2,6.2,0,0,1-2.536.48H13.648V0h-2.08V-11.2Zm-.1,6.208a3.2,3.2,0,0,0,2.064-.576,2.008,2.008,0,0,0,.7-1.648,2.008,2.008,0,0,0-.7-1.648A3.2,3.2,0,0,0,16.08-9.44H13.648v4.448ZM23.024-11.2H25.1v9.44H30.96V0H23.024ZM39.952-2.592h-5.6L33.248,0H31.1l5.04-11.2h2.048L43.248,0H41.072Zm-.688-1.632-2.112-4.9-2.1,4.9Zm7.12-5.216H42.672V-11.2h9.5v1.76H48.464V0h-2.08Zm9.792,0H52.464V-11.2h9.5v1.76H58.256V0h-2.08Zm9.44-.016v3.408h5.408v1.76H65.616V0h-2.08V-11.2h8.176v1.744ZM78.832.16a6.387,6.387,0,0,1-3.088-.744,5.51,5.51,0,0,1-2.16-2.064A5.671,5.671,0,0,1,72.8-5.6a5.671,5.671,0,0,1,.784-2.952,5.51,5.51,0,0,1,2.16-2.064,6.387,6.387,0,0,1,3.088-.744,6.387,6.387,0,0,1,3.088.744A5.527,5.527,0,0,1,84.08-8.56a5.659,5.659,0,0,1,.784,2.96,5.659,5.659,0,0,1-.784,2.96A5.527,5.527,0,0,1,81.92-.584,6.387,6.387,0,0,1,78.832.16Zm0-1.824a4.04,4.04,0,0,0,2.016-.5,3.645,3.645,0,0,0,1.408-1.408A4.034,4.034,0,0,0,82.768-5.6a4.034,4.034,0,0,0-.512-2.024,3.645,3.645,0,0,0-1.408-1.408,4.04,4.04,0,0,0-2.016-.5,4.04,4.04,0,0,0-2.016.5,3.645,3.645,0,0,0-1.408,1.408A4.034,4.034,0,0,0,74.9-5.6a4.034,4.034,0,0,0,.512,2.024,3.645,3.645,0,0,0,1.408,1.408A4.04,4.04,0,0,0,78.832-1.664ZM94.4,0,92.112-3.28a4.265,4.265,0,0,1-.432.016H89.152V0h-2.08V-11.2H91.68a6.2,6.2,0,0,1,2.536.48,3.688,3.688,0,0,1,1.656,1.376,3.85,3.85,0,0,1,.576,2.128,3.8,3.8,0,0,1-.616,2.176,3.665,3.665,0,0,1-1.768,1.36L96.64,0Zm-.048-7.216a2.007,2.007,0,0,0-.7-1.648,3.2,3.2,0,0,0-2.064-.576H89.152v4.464h2.432a3.164,3.164,0,0,0,2.064-.584A2.031,2.031,0,0,0,94.352-7.216ZM109.056,0l-.016-7.424L105.36-1.28h-.928l-3.68-6.048V0H98.768V-11.2h1.712l4.448,7.424L109.3-11.2h1.712L111.024,0ZM-58.858,7.9h.962V17h-.962Zm6.123,2.21a2.9,2.9,0,0,1,2.054.669,2.587,2.587,0,0,1,.715,1.983V17h-.884V15.934a2.116,2.116,0,0,1-.917.832,3.208,3.208,0,0,1-1.437.3,2.813,2.813,0,0,1-1.82-.546,1.763,1.763,0,0,1-.676-1.443,1.748,1.748,0,0,1,.631-1.4,3.085,3.085,0,0,1,2.008-.533h2.171v-.416a1.752,1.752,0,0,0-.494-1.345,2.04,2.04,0,0,0-1.443-.462,3.668,3.668,0,0,0-1.248.214,3.145,3.145,0,0,0-1.027.592l-.416-.689a3.689,3.689,0,0,1,1.248-.682A4.859,4.859,0,0,1-52.735,10.11Zm-.325,6.227a2.432,2.432,0,0,0,1.339-.358,2.135,2.135,0,0,0,.832-1.033V13.828h-2.145q-1.755,0-1.755,1.222a1.118,1.118,0,0,0,.455.943A2.071,2.071,0,0,0-53.06,16.337Zm8-6.227a2.9,2.9,0,0,1,2.054.669,2.587,2.587,0,0,1,.715,1.983V17h-.884V15.934a2.116,2.116,0,0,1-.917.832,3.208,3.208,0,0,1-1.437.3,2.813,2.813,0,0,1-1.82-.546,1.763,1.763,0,0,1-.676-1.443,1.748,1.748,0,0,1,.631-1.4,3.085,3.085,0,0,1,2.008-.533h2.171v-.416a1.752,1.752,0,0,0-.494-1.345,2.04,2.04,0,0,0-1.443-.462,3.668,3.668,0,0,0-1.248.214,3.145,3.145,0,0,0-1.027.592l-.416-.689a3.689,3.689,0,0,1,1.248-.682A4.859,4.859,0,0,1-45.064,10.11Zm-.325,6.227a2.432,2.432,0,0,0,1.339-.358,2.135,2.135,0,0,0,.832-1.033V13.828h-2.145q-1.755,0-1.755,1.222a1.118,1.118,0,0,0,.455.943A2.071,2.071,0,0,0-45.389,16.337Zm8.307.741a5.846,5.846,0,0,1-1.944-.325,3.571,3.571,0,0,1-1.437-.858l.377-.741a3.61,3.61,0,0,0,1.313.8,4.8,4.8,0,0,0,1.69.306,3.089,3.089,0,0,0,1.833-.449,1.382,1.382,0,0,0,.611-1.163,1.164,1.164,0,0,0-.332-.871,2.238,2.238,0,0,0-.812-.5,13.14,13.14,0,0,0-1.339-.383,14.068,14.068,0,0,1-1.638-.5,2.689,2.689,0,0,1-1.046-.735,1.953,1.953,0,0,1-.436-1.339,2.27,2.27,0,0,1,.364-1.254,2.493,2.493,0,0,1,1.118-.9,4.576,4.576,0,0,1,1.872-.338,5.511,5.511,0,0,1,1.528.214,4.39,4.39,0,0,1,1.293.592l-.325.767a4.473,4.473,0,0,0-1.222-.566,4.561,4.561,0,0,0-1.274-.189,2.941,2.941,0,0,0-1.8.462,1.432,1.432,0,0,0-.6,1.189,1.186,1.186,0,0,0,.332.878,2.172,2.172,0,0,0,.832.507q.5.175,1.346.383a13.537,13.537,0,0,1,1.618.488,2.656,2.656,0,0,1,1.047.728,1.927,1.927,0,0,1,.429,1.32,2.241,2.241,0,0,1-.37,1.254,2.49,2.49,0,0,1-1.138.9A4.751,4.751,0,0,1-37.083,17.078Zm5.655-1.43a.658.658,0,0,1,.494.2.691.691,0,0,1,.195.5,1.4,1.4,0,0,1-.045.338,3.532,3.532,0,0,1-.136.416l-.546,1.794h-.624l.442-1.885a.653.653,0,0,1-.338-.241.69.69,0,0,1-.13-.422.691.691,0,0,1,.195-.5A.658.658,0,0,1-31.427,15.648ZM-21.769,7.9a4.11,4.11,0,0,1,2.73.832,2.831,2.831,0,0,1,.988,2.288,2.812,2.812,0,0,1-.988,2.281,4.132,4.132,0,0,1-2.73.825h-2.444V17h-.962V7.9Zm-.026,5.382a3.168,3.168,0,0,0,2.067-.591,2.047,2.047,0,0,0,.715-1.67,2.077,2.077,0,0,0-.715-1.7,3.168,3.168,0,0,0-2.067-.591h-2.418v4.55Zm6.344-1.781a2.237,2.237,0,0,1,.969-1.04,3.291,3.291,0,0,1,1.593-.351v.9l-.221-.013a2.184,2.184,0,0,0-1.69.663,2.641,2.641,0,0,0-.611,1.859V17h-.923V10.162h.884Zm4.225-1.339h.923V17h-.923Zm.468-1.495a.654.654,0,0,1-.481-.2A.638.638,0,0,1-11.434,8a.624.624,0,0,1,.195-.455.654.654,0,0,1,.481-.195.665.665,0,0,1,.481.188.6.6,0,0,1,.195.449.654.654,0,0,1-.195.481A.654.654,0,0,1-10.758,8.667Zm8.775,1.495L-5.024,17h-.949L-9,10.162h.962l2.561,5.824,2.587-5.824ZM1.5,10.11a2.9,2.9,0,0,1,2.054.669,2.587,2.587,0,0,1,.715,1.983V17H3.386V15.934a2.116,2.116,0,0,1-.917.832,3.208,3.208,0,0,1-1.437.3,2.813,2.813,0,0,1-1.82-.546,1.763,1.763,0,0,1-.676-1.443,1.748,1.748,0,0,1,.631-1.4,3.085,3.085,0,0,1,2.008-.533H3.347v-.416a1.752,1.752,0,0,0-.494-1.345,2.04,2.04,0,0,0-1.443-.462,3.668,3.668,0,0,0-1.248.214,3.145,3.145,0,0,0-1.027.592l-.416-.689a3.689,3.689,0,0,1,1.248-.682A4.859,4.859,0,0,1,1.5,10.11Zm-.325,6.227a2.432,2.432,0,0,0,1.339-.358,2.135,2.135,0,0,0,.832-1.033V13.828H1.2q-1.755,0-1.755,1.222a1.118,1.118,0,0,0,.455.943A2.071,2.071,0,0,0,1.176,16.337Zm9.2.247a1.748,1.748,0,0,1-.644.358,2.592,2.592,0,0,1-.8.124,2,2,0,0,1-1.482-.52,1.987,1.987,0,0,1-.52-1.469V10.942H5.714v-.78H6.936V8.667h.923v1.495h2.08v.78H7.859v4.082a1.292,1.292,0,0,0,.306.929,1.159,1.159,0,0,0,.877.318,1.7,1.7,0,0,0,.552-.091,1.374,1.374,0,0,0,.462-.26Zm7.384-2.717h-5.72a2.444,2.444,0,0,0,.819,1.722,2.719,2.719,0,0,0,1.872.656,2.95,2.95,0,0,0,1.17-.228,2.556,2.556,0,0,0,.923-.669l.52.6a2.928,2.928,0,0,1-1.138.832,3.847,3.847,0,0,1-1.5.286,3.8,3.8,0,0,1-1.866-.448,3.234,3.234,0,0,1-1.267-1.242,3.539,3.539,0,0,1-.455-1.794,3.665,3.665,0,0,1,.436-1.794,3.153,3.153,0,0,1,1.2-1.235,3.339,3.339,0,0,1,1.71-.442,3.3,3.3,0,0,1,1.7.442,3.133,3.133,0,0,1,1.183,1.229,3.7,3.7,0,0,1,.429,1.8Zm-3.3-2.964a2.325,2.325,0,0,0-1.658.63,2.476,2.476,0,0,0-.76,1.644h4.849a2.476,2.476,0,0,0-.76-1.644A2.342,2.342,0,0,0,14.462,10.9Zm12.753,6.175a4.966,4.966,0,0,1-2.437-.6,4.379,4.379,0,0,1-1.7-1.657,4.624,4.624,0,0,1-.617-2.372,4.624,4.624,0,0,1,.617-2.373,4.367,4.367,0,0,1,1.71-1.657,5,5,0,0,1,2.444-.6A5.063,5.063,0,0,1,29.1,8.16a3.88,3.88,0,0,1,1.456.988l-.611.611A3.625,3.625,0,0,0,27.255,8.68a3.955,3.955,0,0,0-1.963.494,3.61,3.61,0,0,0-1.385,1.352,3.948,3.948,0,0,0,0,3.848,3.61,3.61,0,0,0,1.385,1.352,3.955,3.955,0,0,0,1.963.494,3.576,3.576,0,0,0,2.691-1.092l.611.611a3.935,3.935,0,0,1-1.463.994A5.029,5.029,0,0,1,27.216,17.078Zm5.2-9.724h.923V17h-.923Zm6.292,9.711a3.554,3.554,0,0,1-1.781-.448,3.271,3.271,0,0,1-1.248-1.242,3.764,3.764,0,0,1,0-3.588,3.224,3.224,0,0,1,1.248-1.235,3.809,3.809,0,0,1,3.562,0,3.179,3.179,0,0,1,1.242,1.235,3.812,3.812,0,0,1,0,3.588,3.225,3.225,0,0,1-1.242,1.242A3.554,3.554,0,0,1,38.707,17.065Zm0-.819a2.58,2.58,0,0,0,1.306-.332,2.311,2.311,0,0,0,.9-.943,3.139,3.139,0,0,0,0-2.782,2.311,2.311,0,0,0-.9-.943,2.74,2.74,0,0,0-2.613,0,2.354,2.354,0,0,0-.91.943,3.084,3.084,0,0,0,0,2.782,2.354,2.354,0,0,0,.91.943A2.58,2.58,0,0,0,38.707,16.246Zm11.518-6.084V17h-.884V15.752a2.532,2.532,0,0,1-1,.969,3.012,3.012,0,0,1-1.456.344,2.912,2.912,0,0,1-2.113-.748A2.909,2.909,0,0,1,44,14.127V10.162h.923v3.874a2.286,2.286,0,0,0,.533,1.638,2,2,0,0,0,1.521.559,2.238,2.238,0,0,0,1.7-.656A2.545,2.545,0,0,0,49.3,13.75V10.162Zm8.827-2.808V17h-.884V15.648a2.815,2.815,0,0,1-1.1,1.053,3.222,3.222,0,0,1-1.54.364,3.471,3.471,0,0,1-1.742-.442,3.159,3.159,0,0,1-1.222-1.235,3.915,3.915,0,0,1,0-3.614,3.114,3.114,0,0,1,1.222-1.229,3.512,3.512,0,0,1,1.742-.435,3.233,3.233,0,0,1,1.5.344,2.845,2.845,0,0,1,1.1,1.007V7.354Zm-3.445,8.892a2.555,2.555,0,0,0,1.293-.332,2.354,2.354,0,0,0,.91-.943,3.084,3.084,0,0,0,0-2.782,2.354,2.354,0,0,0-.91-.943,2.715,2.715,0,0,0-2.6,0,2.354,2.354,0,0,0-.91.943,3.084,3.084,0,0,0,0,2.782,2.354,2.354,0,0,0,.91.943A2.58,2.58,0,0,0,55.607,16.246Z" transform="translate(431.253 577.852) rotate(13)" fill="#fff"/><path d="M-43.744.16a6.307,6.307,0,0,1-3.064-.744A5.485,5.485,0,0,1-48.952-2.64a5.7,5.7,0,0,1-.776-2.96,5.659,5.659,0,0,1,.784-2.96,5.542,5.542,0,0,1,2.152-2.056,6.307,6.307,0,0,1,3.064-.744,6.391,6.391,0,0,1,2.512.48A5.124,5.124,0,0,1-39.3-9.488L-40.64-8.224a3.92,3.92,0,0,0-2.992-1.312,4.2,4.2,0,0,0-2.064.5,3.631,3.631,0,0,0-1.424,1.4A4.022,4.022,0,0,0-47.632-5.6a4.022,4.022,0,0,0,.512,2.032,3.631,3.631,0,0,0,1.424,1.4,4.2,4.2,0,0,0,2.064.5A3.9,3.9,0,0,0-40.64-2.992l1.344,1.28A5.11,5.11,0,0,1-41.224-.32,6.45,6.45,0,0,1-43.744.16Zm11.44,0a6.387,6.387,0,0,1-3.088-.744,5.51,5.51,0,0,1-2.16-2.064A5.671,5.671,0,0,1-38.336-5.6a5.671,5.671,0,0,1,.784-2.952,5.51,5.51,0,0,1,2.16-2.064A6.387,6.387,0,0,1-32.3-11.36a6.387,6.387,0,0,1,3.088.744,5.527,5.527,0,0,1,2.16,2.056,5.659,5.659,0,0,1,.784,2.96,5.659,5.659,0,0,1-.784,2.96,5.527,5.527,0,0,1-2.16,2.056A6.387,6.387,0,0,1-32.3.16Zm0-1.824a4.04,4.04,0,0,0,2.016-.5A3.645,3.645,0,0,0-28.88-3.576,4.034,4.034,0,0,0-28.368-5.6a4.034,4.034,0,0,0-.512-2.024,3.645,3.645,0,0,0-1.408-1.408,4.04,4.04,0,0,0-2.016-.5,4.04,4.04,0,0,0-2.016.5,3.645,3.645,0,0,0-1.408,1.408A4.034,4.034,0,0,0-36.24-5.6a4.034,4.034,0,0,0,.512,2.024A3.645,3.645,0,0,0-34.32-2.168,4.04,4.04,0,0,0-32.3-1.664ZM-13.776,0l-.016-7.424-3.68,6.144H-18.4l-3.68-6.048V0h-1.984V-11.2h1.712L-17.9-3.776l4.368-7.424h1.712L-11.808,0Zm9.6-11.2a6.2,6.2,0,0,1,2.536.48A3.688,3.688,0,0,1,.016-9.344,3.85,3.85,0,0,1,.592-7.216,3.86,3.86,0,0,1,.016-5.1,3.67,3.67,0,0,1-1.64-3.712a6.2,6.2,0,0,1-2.536.48H-6.7V0h-2.08V-11.2Zm-.1,6.208a3.2,3.2,0,0,0,2.064-.576,2.008,2.008,0,0,0,.7-1.648,2.008,2.008,0,0,0-.7-1.648A3.2,3.2,0,0,0-4.272-9.44H-6.7v4.448ZM2.672-11.2h2.08v9.44h5.856V0H2.672Zm9.584,0h2.08V0h-2.08ZM24.624-2.592h-5.6L17.92,0H15.776l5.04-11.2h2.048L27.92,0H25.744Zm-.688-1.632-2.112-4.9-2.1,4.9ZM39.3-11.2V0H37.584L31.408-7.584V0H29.344V-11.2h1.712l6.176,7.584V-11.2Zm5.28,1.76H40.864V-11.2h9.5v1.76H46.656V0h-2.08ZM-51.048,14.312l-1.776,1.824V19H-54.9V7.8h2.08v5.744L-47.288,7.8h2.336l-4.7,5.008L-44.664,19H-47.1Zm12.464,4.848a4.871,4.871,0,0,1-3.616-1.3,5.074,5.074,0,0,1-1.3-3.736V7.8h2.08v6.24q0,3.3,2.848,3.3,2.832,0,2.832-3.3V7.8h2.048v6.32a5.093,5.093,0,0,1-1.288,3.736A4.843,4.843,0,0,1-38.584,19.16Zm15.744-5.984a2.955,2.955,0,0,1,1.472,1.016,2.827,2.827,0,0,1,.544,1.768,2.59,2.59,0,0,1-1.12,2.248A5.628,5.628,0,0,1-25.208,19h-5.568V7.8h5.248a5.153,5.153,0,0,1,3.056.776A2.493,2.493,0,0,1-21.4,10.712a2.805,2.805,0,0,1-.384,1.472A2.629,2.629,0,0,1-22.84,13.176ZM-28.7,9.432V12.52h2.944a2.992,2.992,0,0,0,1.672-.392,1.291,1.291,0,0,0,.584-1.144,1.306,1.306,0,0,0-.584-1.16,2.992,2.992,0,0,0-1.672-.392Zm3.36,7.936q2.416,0,2.416-1.616t-2.416-1.616H-28.7v3.232Zm15.136-.112V19h-8.4V7.8h8.176V9.544h-6.1v2.912h5.408v1.712H-16.52v3.088ZM-.552,19-2.84,15.72a4.265,4.265,0,0,1-.432.016H-5.8V19H-7.88V7.8h4.608a6.2,6.2,0,0,1,2.536.48A3.688,3.688,0,0,1,.92,9.656,3.85,3.85,0,0,1,1.5,11.784,3.8,3.8,0,0,1,.88,13.96,3.665,3.665,0,0,1-.888,15.32L1.688,19ZM-.6,11.784a2.008,2.008,0,0,0-.7-1.648A3.2,3.2,0,0,0-3.368,9.56H-5.8v4.464h2.432A3.164,3.164,0,0,0-1.3,13.44,2.031,2.031,0,0,0-.6,11.784ZM13.768,7.8V19H12.056L5.88,11.416V19H3.816V7.8H5.528L11.7,15.384V7.8Zm11.408,9.456V19h-8.4V7.8h8.176V9.544h-6.1v2.912h5.408v1.712H18.856v3.088Zm4.592-7.7H26.056V7.8h9.5V9.56H31.848V19h-2.08Zm15.76,7.7V19h-8.4V7.8H45.3V9.544h-6.1v2.912h5.408v1.712H39.208v3.088Zm5.792,1.9a8.545,8.545,0,0,1-2.5-.368,5.226,5.226,0,0,1-1.912-.976l.72-1.616a5.672,5.672,0,0,0,1.688.888,6.138,6.138,0,0,0,2.008.344,3.47,3.47,0,0,0,1.864-.4,1.212,1.212,0,0,0,.616-1.056,1.022,1.022,0,0,0-.344-.792,2.415,2.415,0,0,0-.872-.488q-.528-.176-1.44-.4a16.786,16.786,0,0,1-2.072-.608,3.41,3.41,0,0,1-1.36-.952,2.564,2.564,0,0,1-.568-1.752,2.988,2.988,0,0,1,.5-1.688,3.41,3.41,0,0,1,1.52-1.208,6.158,6.158,0,0,1,2.488-.448,8.036,8.036,0,0,1,2.016.256,5.572,5.572,0,0,1,1.712.736l-.656,1.616a6.472,6.472,0,0,0-1.536-.656,5.746,5.746,0,0,0-1.552-.224,3.242,3.242,0,0,0-1.832.416,1.283,1.283,0,0,0-.6,1.1,1,1,0,0,0,.344.784,2.485,2.485,0,0,0,.872.48q.528.176,1.44.4a15.153,15.153,0,0,1,2.048.6,3.507,3.507,0,0,1,1.368.952,2.509,2.509,0,0,1,.568,1.728,2.951,2.951,0,0,1-.5,1.68,3.428,3.428,0,0,1-1.528,1.2A6.216,6.216,0,0,1,51.32,19.16ZM-63.057,26.9a4.11,4.11,0,0,1,2.73.832,2.831,2.831,0,0,1,.988,2.288,2.812,2.812,0,0,1-.988,2.281,4.132,4.132,0,0,1-2.73.826H-65.5V36h-.962V26.9Zm-.026,5.382a3.168,3.168,0,0,0,2.067-.592,2.047,2.047,0,0,0,.715-1.67,2.077,2.077,0,0,0-.715-1.7,3.168,3.168,0,0,0-2.067-.591H-65.5v4.55Zm5.759-5.928h.923V36h-.923Zm5.889,2.756a2.9,2.9,0,0,1,2.054.669,2.587,2.587,0,0,1,.715,1.983V36h-.884V34.934a2.116,2.116,0,0,1-.917.832,3.208,3.208,0,0,1-1.437.3,2.813,2.813,0,0,1-1.82-.546,1.763,1.763,0,0,1-.676-1.443,1.748,1.748,0,0,1,.631-1.4,3.085,3.085,0,0,1,2.008-.533h2.171v-.416a1.752,1.752,0,0,0-.494-1.345,2.04,2.04,0,0,0-1.443-.462,3.668,3.668,0,0,0-1.248.215,3.145,3.145,0,0,0-1.027.591l-.416-.689a3.689,3.689,0,0,1,1.248-.683A4.859,4.859,0,0,1-51.435,29.11Zm-.325,6.227a2.432,2.432,0,0,0,1.339-.358,2.135,2.135,0,0,0,.832-1.034V32.828h-2.145q-1.755,0-1.755,1.222a1.118,1.118,0,0,0,.455.943A2.071,2.071,0,0,0-51.76,35.337Zm9.2.247a1.748,1.748,0,0,1-.644.358,2.592,2.592,0,0,1-.8.123,2,2,0,0,1-1.482-.52A1.987,1.987,0,0,1-46,34.076V29.942h-1.222v-.78H-46V27.667h.923v1.495H-43v.78h-2.08v4.082a1.292,1.292,0,0,0,.306.93,1.159,1.159,0,0,0,.877.319,1.7,1.7,0,0,0,.553-.091,1.374,1.374,0,0,0,.461-.26Zm3.939-8.515a1.182,1.182,0,0,0-.9.325,1.357,1.357,0,0,0-.306.962v.806h2.106v.78H-39.8V36h-.923V29.942h-1.222v-.78h1.222v-.845a2.016,2.016,0,0,1,.539-1.482,2.051,2.051,0,0,1,1.528-.546,2.581,2.581,0,0,1,.754.11,1.7,1.7,0,0,1,.611.319l-.312.689A1.524,1.524,0,0,0-38.617,27.069Zm4.823,9a3.554,3.554,0,0,1-1.781-.448,3.271,3.271,0,0,1-1.248-1.242,3.54,3.54,0,0,1-.455-1.794,3.539,3.539,0,0,1,.455-1.794,3.224,3.224,0,0,1,1.248-1.235,3.6,3.6,0,0,1,1.781-.442,3.6,3.6,0,0,1,1.781.442,3.179,3.179,0,0,1,1.242,1.235,3.58,3.58,0,0,1,.448,1.794,3.58,3.58,0,0,1-.448,1.794,3.225,3.225,0,0,1-1.242,1.242A3.554,3.554,0,0,1-33.794,36.065Zm0-.819a2.58,2.58,0,0,0,1.306-.331,2.311,2.311,0,0,0,.9-.943,2.916,2.916,0,0,0,.325-1.391,2.916,2.916,0,0,0-.325-1.391,2.311,2.311,0,0,0-.9-.943,2.58,2.58,0,0,0-1.306-.331,2.58,2.58,0,0,0-1.306.331,2.354,2.354,0,0,0-.91.943,2.87,2.87,0,0,0-.332,1.391,2.87,2.87,0,0,0,.332,1.391,2.354,2.354,0,0,0,.91.943A2.58,2.58,0,0,0-33.794,35.246Zm6.24-4.745a2.237,2.237,0,0,1,.969-1.04,3.291,3.291,0,0,1,1.593-.351v.9l-.221-.013a2.184,2.184,0,0,0-1.69.663,2.641,2.641,0,0,0-.611,1.859V36h-.923V29.162h.884ZM-14.8,29.11a2.718,2.718,0,0,1,2.022.741,2.977,2.977,0,0,1,.734,2.184V36h-.923V32.126a2.321,2.321,0,0,0-.514-1.625,1.869,1.869,0,0,0-1.45-.559,2.179,2.179,0,0,0-1.677.656,2.558,2.558,0,0,0-.611,1.813V36h-.923V32.126a2.321,2.321,0,0,0-.514-1.625,1.886,1.886,0,0,0-1.462-.559,2.183,2.183,0,0,0-1.67.656,2.542,2.542,0,0,0-.618,1.813V36h-.923V29.162h.884V30.41a2.466,2.466,0,0,1,1.014-.962,3.194,3.194,0,0,1,1.5-.338,2.926,2.926,0,0,1,1.488.364,2.238,2.238,0,0,1,.943,1.079,2.664,2.664,0,0,1,1.085-1.059A3.346,3.346,0,0,1-14.8,29.11Zm11.063,0a2.9,2.9,0,0,1,2.054.669,2.587,2.587,0,0,1,.715,1.983V36h-.884V34.934a2.116,2.116,0,0,1-.917.832,3.208,3.208,0,0,1-1.437.3,2.813,2.813,0,0,1-1.82-.546A1.763,1.763,0,0,1-6.7,34.076a1.748,1.748,0,0,1,.63-1.4,3.085,3.085,0,0,1,2.009-.533h2.171v-.416a1.752,1.752,0,0,0-.494-1.345,2.04,2.04,0,0,0-1.443-.462,3.668,3.668,0,0,0-1.248.215,3.145,3.145,0,0,0-1.027.591l-.416-.689a3.689,3.689,0,0,1,1.248-.683A4.859,4.859,0,0,1-3.738,29.11Zm-.325,6.227a2.432,2.432,0,0,0,1.339-.358,2.135,2.135,0,0,0,.832-1.034V32.828H-4.037q-1.755,0-1.755,1.222a1.118,1.118,0,0,0,.455.943A2.071,2.071,0,0,0-4.063,35.337Zm7.436.728a5.25,5.25,0,0,1-1.592-.24,3.426,3.426,0,0,1-1.19-.6l.416-.728a3.5,3.5,0,0,0,1.079.552,4.286,4.286,0,0,0,1.352.215,2.582,2.582,0,0,0,1.385-.292.931.931,0,0,0,.449-.826.742.742,0,0,0-.247-.591,1.641,1.641,0,0,0-.624-.325,8.9,8.9,0,0,0-1-.215,11.476,11.476,0,0,1-1.339-.318,1.968,1.968,0,0,1-.864-.553A1.537,1.537,0,0,1,.838,31.06a1.691,1.691,0,0,1,.715-1.4,3.211,3.211,0,0,1,1.989-.546,5.163,5.163,0,0,1,1.326.175,3.648,3.648,0,0,1,1.092.462l-.4.741A3.451,3.451,0,0,0,3.542,29.9a2.337,2.337,0,0,0-1.332.312.956.956,0,0,0-.449.819.808.808,0,0,0,.253.624A1.559,1.559,0,0,0,2.645,32a10.174,10.174,0,0,0,1.04.228A11.963,11.963,0,0,1,5,32.542a1.929,1.929,0,0,1,.845.533,1.467,1.467,0,0,1,.351,1.04,1.654,1.654,0,0,1-.747,1.424A3.554,3.554,0,0,1,3.373,36.065ZM13.7,29.11a2.9,2.9,0,0,1,2.054.669,2.587,2.587,0,0,1,.715,1.983V36H15.58V34.934a2.116,2.116,0,0,1-.917.832,3.208,3.208,0,0,1-1.436.3,2.813,2.813,0,0,1-1.82-.546,1.878,1.878,0,0,1-.045-2.847,3.085,3.085,0,0,1,2.009-.533h2.171v-.416a1.752,1.752,0,0,0-.494-1.345,2.04,2.04,0,0,0-1.443-.462,3.668,3.668,0,0,0-1.248.215,3.145,3.145,0,0,0-1.027.591l-.416-.689a3.689,3.689,0,0,1,1.248-.683A4.859,4.859,0,0,1,13.7,29.11Zm-.325,6.227a2.432,2.432,0,0,0,1.339-.358,2.135,2.135,0,0,0,.832-1.034V32.828H13.4q-1.755,0-1.755,1.222a1.118,1.118,0,0,0,.455.943A2.071,2.071,0,0,0,13.37,35.337Zm11.713.741a5.846,5.846,0,0,1-1.944-.325A3.571,3.571,0,0,1,21.7,34.9l.377-.741a3.61,3.61,0,0,0,1.313.8,4.8,4.8,0,0,0,1.69.306,3.089,3.089,0,0,0,1.833-.448,1.382,1.382,0,0,0,.611-1.164,1.164,1.164,0,0,0-.331-.871,2.238,2.238,0,0,0-.812-.5,13.14,13.14,0,0,0-1.339-.384,14.068,14.068,0,0,1-1.638-.5,2.689,2.689,0,0,1-1.046-.735,1.953,1.953,0,0,1-.435-1.339,2.27,2.27,0,0,1,.364-1.255,2.493,2.493,0,0,1,1.118-.9,4.576,4.576,0,0,1,1.872-.338,5.511,5.511,0,0,1,1.528.214,4.39,4.39,0,0,1,1.293.592l-.325.767a4.473,4.473,0,0,0-1.222-.566,4.561,4.561,0,0,0-1.274-.189,2.941,2.941,0,0,0-1.8.462,1.432,1.432,0,0,0-.6,1.189,1.186,1.186,0,0,0,.331.878,2.172,2.172,0,0,0,.832.507q.5.176,1.346.383A13.537,13.537,0,0,1,27,31.548a2.656,2.656,0,0,1,1.046.728,1.927,1.927,0,0,1,.429,1.319,2.241,2.241,0,0,1-.371,1.254,2.49,2.49,0,0,1-1.138.9A4.751,4.751,0,0,1,25.083,36.078Zm11.245-3.211h-5.72a2.444,2.444,0,0,0,.819,1.722,2.719,2.719,0,0,0,1.872.656,2.95,2.95,0,0,0,1.17-.227,2.556,2.556,0,0,0,.923-.67l.52.6a2.928,2.928,0,0,1-1.138.832,3.847,3.847,0,0,1-1.5.286,3.8,3.8,0,0,1-1.866-.448,3.234,3.234,0,0,1-1.267-1.242,3.539,3.539,0,0,1-.455-1.794,3.665,3.665,0,0,1,.436-1.794,3.153,3.153,0,0,1,1.2-1.235,3.339,3.339,0,0,1,1.709-.442,3.3,3.3,0,0,1,1.7.442,3.133,3.133,0,0,1,1.183,1.229,3.7,3.7,0,0,1,.429,1.8Zm-3.3-2.964a2.325,2.325,0,0,0-1.657.631,2.476,2.476,0,0,0-.76,1.645h4.849a2.476,2.476,0,0,0-.76-1.645A2.342,2.342,0,0,0,33.026,29.9Zm6.084.6a2.237,2.237,0,0,1,.968-1.04,3.291,3.291,0,0,1,1.592-.351v.9l-.221-.013a2.184,2.184,0,0,0-1.69.663,2.641,2.641,0,0,0-.611,1.859V36h-.923V29.162h.884Zm10.27-1.339L46.338,36h-.949L42.36,29.162h.962l2.561,5.824,2.587-5.824Zm1.3,0H51.6V36H50.68Zm.468-1.495a.654.654,0,0,1-.481-.195A.638.638,0,0,1,50.472,27a.624.624,0,0,1,.195-.455.654.654,0,0,1,.481-.195.665.665,0,0,1,.481.188.6.6,0,0,1,.195.449.666.666,0,0,1-.676.676Zm5.863,8.4a3.685,3.685,0,0,1-1.813-.442,3.2,3.2,0,0,1-1.254-1.242,3.575,3.575,0,0,1-.455-1.8,3.539,3.539,0,0,1,.455-1.794A3.212,3.212,0,0,1,55.2,29.552a3.685,3.685,0,0,1,1.813-.442,3.512,3.512,0,0,1,1.58.344,2.623,2.623,0,0,1,1.1,1.007L59,30.93a2.156,2.156,0,0,0-.858-.76,2.546,2.546,0,0,0-1.131-.253,2.678,2.678,0,0,0-1.333.331,2.329,2.329,0,0,0-.923.943,3.1,3.1,0,0,0,0,2.788,2.34,2.34,0,0,0,.923.936,2.678,2.678,0,0,0,1.333.331A2.6,2.6,0,0,0,58.142,35,2.107,2.107,0,0,0,59,34.245l.689.468a2.614,2.614,0,0,1-1.1,1.007A3.523,3.523,0,0,1,57.011,36.065Zm10.322-3.2h-5.72a2.444,2.444,0,0,0,.819,1.722,2.719,2.719,0,0,0,1.872.656,2.95,2.95,0,0,0,1.17-.227,2.556,2.556,0,0,0,.923-.67l.52.6a2.928,2.928,0,0,1-1.137.832,3.847,3.847,0,0,1-1.5.286,3.8,3.8,0,0,1-1.865-.448,3.234,3.234,0,0,1-1.267-1.242,3.54,3.54,0,0,1-.455-1.794,3.665,3.665,0,0,1,.436-1.794,3.153,3.153,0,0,1,1.2-1.235,3.339,3.339,0,0,1,1.71-.442,3.3,3.3,0,0,1,1.7.442,3.133,3.133,0,0,1,1.183,1.229,3.7,3.7,0,0,1,.429,1.8Zm-3.3-2.964a2.325,2.325,0,0,0-1.658.631,2.476,2.476,0,0,0-.761,1.645h4.849a2.476,2.476,0,0,0-.761-1.645A2.342,2.342,0,0,0,64.032,29.9Z" transform="translate(487.535 432.313) rotate(13)" fill="#fff"/><path d="M-21.264-11.2h4.9a7.026,7.026,0,0,1,3.184.7,5.151,5.151,0,0,1,2.16,1.968A5.568,5.568,0,0,1-10.256-5.6a5.568,5.568,0,0,1-.768,2.936A5.151,5.151,0,0,1-13.184-.7a7.026,7.026,0,0,1-3.184.7h-4.9Zm4.8,9.44A4.753,4.753,0,0,0-14.3-2.232a3.377,3.377,0,0,0,1.44-1.344,3.972,3.972,0,0,0,.5-2.024,3.972,3.972,0,0,0-.5-2.024A3.377,3.377,0,0,0-14.3-8.968a4.753,4.753,0,0,0-2.168-.472h-2.72v7.68Zm15.52-.832h-5.6L-7.648,0H-9.792l5.04-11.2H-2.7L2.352,0H.176Zm-.688-1.632-2.112-4.9-2.1,4.9ZM5.488-9.44H1.776V-11.2h9.5v1.76H7.568V0H5.488ZM19.552-2.592h-5.6L12.848,0H10.7l5.04-11.2h2.048L22.848,0H20.672Zm-.688-1.632-2.112-4.9-2.1,4.9Z" transform="translate(524.535 318.929) rotate(13)" fill="#fff"/><path d="M-4.609-2.289V0H-15.634V-14.7H-4.9v2.289h-8v3.822h7.1v2.247h-7.1v4.053ZM8.054,0l-3-4.3a5.6,5.6,0,0,1-.567.021H1.166V0h-2.73V-14.7H4.484a8.138,8.138,0,0,1,3.328.63,4.84,4.84,0,0,1,2.174,1.806,5.053,5.053,0,0,1,.756,2.793,4.981,4.981,0,0,1-.808,2.856A4.81,4.81,0,0,1,7.613-4.83L10.993,0ZM7.991-9.471a2.635,2.635,0,0,0-.924-2.163,4.193,4.193,0,0,0-2.709-.756H1.166v5.859H4.358A4.152,4.152,0,0,0,7.066-7.3,2.666,2.666,0,0,0,7.991-9.471ZM-35.826,12.61H-40.7V10.3h12.474v2.31H-33.1V25h-2.73Zm11.739,12.6a6.031,6.031,0,0,1-2.594-.556,5.081,5.081,0,0,1-1.943-1.564l1.554-1.869A3.543,3.543,0,0,0-24.15,22.9q2.289,0,2.289-2.709v-7.6H-27.09V10.3h7.959v9.744a5.344,5.344,0,0,1-1.26,3.874A4.936,4.936,0,0,1-24.087,25.21Zm18-3.612h-7.35L-14.889,25H-17.7l6.615-14.7H-8.4L-1.764,25H-4.62Zm-.9-2.142L-9.765,13.03l-2.751,6.426ZM-11.781,8.872a1.224,1.224,0,0,1-.9-.357,1.224,1.224,0,0,1-.357-.9,1.25,1.25,0,0,1,.357-.924,1.224,1.224,0,0,1,.9-.357,1.224,1.224,0,0,1,.9.357,1.25,1.25,0,0,1,.357.924,1.224,1.224,0,0,1-.357.9A1.224,1.224,0,0,1-11.781,8.872Zm4.074,0a1.224,1.224,0,0,1-.9-.357,1.224,1.224,0,0,1-.357-.9,1.25,1.25,0,0,1,.357-.924,1.224,1.224,0,0,1,.9-.357,1.224,1.224,0,0,1,.9.357,1.25,1.25,0,0,1,.357.924,1.224,1.224,0,0,1-.357.9A1.224,1.224,0,0,1-7.707,8.872ZM13.167,10.3V25H10.92L2.814,15.046V25H.105V10.3H2.352l8.106,9.954V10.3Zm8.505,14.91a11.215,11.215,0,0,1-3.287-.483,6.859,6.859,0,0,1-2.509-1.281l.945-2.121a7.444,7.444,0,0,0,2.215,1.165,8.056,8.056,0,0,0,2.635.451,4.554,4.554,0,0,0,2.447-.525,1.59,1.59,0,0,0,.808-1.386,1.342,1.342,0,0,0-.451-1.039,3.17,3.17,0,0,0-1.145-.641q-.693-.231-1.89-.525a22.031,22.031,0,0,1-2.719-.8,4.475,4.475,0,0,1-1.785-1.25,3.366,3.366,0,0,1-.746-2.3,3.922,3.922,0,0,1,.662-2.216,4.476,4.476,0,0,1,1.995-1.585,8.082,8.082,0,0,1,3.266-.588,10.547,10.547,0,0,1,2.646.336,7.314,7.314,0,0,1,2.247.966l-.861,2.121a8.494,8.494,0,0,0-2.016-.861,7.541,7.541,0,0,0-2.037-.294,4.255,4.255,0,0,0-2.4.546,1.684,1.684,0,0,0-.788,1.449,1.31,1.31,0,0,0,.451,1.029,3.262,3.262,0,0,0,1.145.63q.693.231,1.89.525a19.888,19.888,0,0,1,2.688.788,4.6,4.6,0,0,1,1.8,1.25,3.293,3.293,0,0,1,.745,2.268,3.873,3.873,0,0,1-.661,2.205,4.5,4.5,0,0,1-2.006,1.575A8.159,8.159,0,0,1,21.672,25.21ZM33.1,12.61H28.224V10.3H40.7v2.31H35.826V25H33.1Z" transform="translate(668 297) rotate(-13)" fill="#fff"/></g></svg>