<svg xmlns="http://www.w3.org/2000/svg" xmlns:xlink="http://www.w3.org/1999/xlink" width="336" height="382" viewBox="0 0 336 382">
  <defs>
    <filter id="Rectangle_14" x="0" y="0" width="336" height="382" filterUnits="userSpaceOnUse">
      <feOffset dy="3" input="SourceAlpha"/>
      <feGaussianBlur stdDeviation="3" result="blur"/>
      <feFlood flood-opacity="0.161"/>
      <feComposite operator="in" in2="blur"/>
      <feComposite in="SourceGraphic"/>
    </filter>
  </defs>
  <g id="safespring-list" transform="translate(-794 -1716)">
    <g transform="matrix(1, 0, 0, 1, 794, 1716)" filter="url(#Rectangle_14)">
      <rect id="Rectangle_14-2" data-name="Rectangle 14" width="318" height="364" rx="30" transform="translate(9 6)" fill="#fff"/>
    </g>
    <g id="Group_5" data-name="Group 5" transform="translate(842.25 863)">
      <path id="check-solid" d="M4.755,75.882.205,71.088a.766.766,0,0,1,0-1.043L1.2,69a.675.675,0,0,1,.99,0L5.25,72.231l6.565-6.917a.675.675,0,0,1,.99,0l.99,1.043a.766.766,0,0,1,0,1.043l-8.05,8.482a.675.675,0,0,1-.99,0Z" transform="translate(7 1092.902)" fill="#32cd32"/>
      <circle id="Ellipse_4" data-name="Ellipse 4" cx="14.5" cy="14.5" r="14.5" transform="translate(0 1149)" fill="rgba(50,205,50,0.1)"/>
    </g>
    <g id="Group_8" data-name="Group 8" transform="translate(842.25 806)">
      <path id="check-solid-2" data-name="check-solid" d="M4.755,75.882.205,71.088a.766.766,0,0,1,0-1.043L1.2,69a.675.675,0,0,1,.99,0L5.25,72.232l6.565-6.917a.675.675,0,0,1,.99,0l.99,1.043a.766.766,0,0,1,0,1.043l-8.05,8.482a.675.675,0,0,1-.99,0Z" transform="translate(7 1092.902)" fill="#32cd32"/>
      <circle id="Ellipse_4-2" data-name="Ellipse 4" cx="14.5" cy="14.5" r="14.5" transform="translate(0 1149)" fill="rgba(50,205,50,0.1)"/>
    </g>
    <g id="Group_7" data-name="Group 7" transform="translate(842.25 749)">
      <path id="check-solid-3" data-name="check-solid" d="M4.755,75.882.205,71.088a.766.766,0,0,1,0-1.043L1.2,69a.675.675,0,0,1,.99,0L5.25,72.232l6.565-6.917a.675.675,0,0,1,.99,0l.99,1.043a.766.766,0,0,1,0,1.043l-8.05,8.482a.675.675,0,0,1-.99,0Z" transform="translate(7 1092.902)" fill="#32cd32"/>
      <circle id="Ellipse_4-3" data-name="Ellipse 4" cx="14.5" cy="14.5" r="14.5" transform="translate(0 1149)" fill="rgba(50,205,50,0.1)"/>
    </g>
    <g id="Group_6" data-name="Group 6" transform="translate(842.25 692)">
      <path id="check-solid-4" data-name="check-solid" d="M4.755,75.882.205,71.088a.766.766,0,0,1,0-1.043L1.2,69a.675.675,0,0,1,.99,0L5.25,72.232l6.565-6.917a.675.675,0,0,1,.99,0l.99,1.043a.766.766,0,0,1,0,1.043l-8.05,8.482a.675.675,0,0,1-.99,0Z" transform="translate(7 1092.902)" fill="#32cd32"/>
      <circle id="Ellipse_4-4" data-name="Ellipse 4" cx="14.5" cy="14.5" r="14.5" transform="translate(0 1149)" fill="rgba(50,205,50,0.1)"/>
    </g>
    <path id="Path_69" data-name="Path 69" d="M77.95,11.8v1.932a6.252,6.252,0,0,0-1.764-.756,7.821,7.821,0,0,0-2.128-.308,4.71,4.71,0,0,0-3,.882,2.828,2.828,0,0,0-1.12,2.338A2.715,2.715,0,0,0,71.23,18.31a10.805,10.805,0,0,0,1.218.756q.518.266,1.582.714.98.42,1.484.658a12,12,0,0,1,1.288.742,5.172,5.172,0,0,1,1.19.994,4.979,4.979,0,0,1,.728,1.26,4.348,4.348,0,0,1,.322,1.694,4.51,4.51,0,0,1-1.652,3.766,6.624,6.624,0,0,1-4.228,1.3,9.431,9.431,0,0,1-4.956-1.232V27.032a7.024,7.024,0,0,0,2.17,1.064,8.923,8.923,0,0,0,2.7.42,4.9,4.9,0,0,0,3.094-.868,2.981,2.981,0,0,0,1.106-2.492,2.59,2.59,0,0,0-.84-2A8.938,8.938,0,0,0,74,21.684q-.224-.112-.98-.434t-1.064-.462q-.308-.14-.952-.476a5.23,5.23,0,0,1-.938-.588q-.294-.252-.742-.672a2.812,2.812,0,0,1-.644-.84,7.051,7.051,0,0,1-.364-.994A4.316,4.316,0,0,1,68.15,16a4.436,4.436,0,0,1,1.708-3.71,6.584,6.584,0,0,1,4.172-1.33A8.234,8.234,0,0,1,77.95,11.8ZM90.8,23.252H88.03a4.76,4.76,0,0,0-2.968.77,2.35,2.35,0,0,0-.98,1.918,2.5,2.5,0,0,0,.77,1.9,3.163,3.163,0,0,0,2.254.728,3.823,3.823,0,0,0,2.688-.924A3.05,3.05,0,0,0,90.8,25.3Zm-7.5-4.844V16.56a7.623,7.623,0,0,1,4-.98q5.208,0,5.208,5.46V30H90.8V28.348q-1.176,1.792-4.088,1.792a4.513,4.513,0,0,1-3.206-1.162A3.9,3.9,0,0,1,82.262,26a3.686,3.686,0,0,1,1.582-3.178,7.035,7.035,0,0,1,4.186-1.134H90.8V21.04a4.368,4.368,0,0,0-.812-2.87,3.371,3.371,0,0,0-2.716-.966A6.89,6.89,0,0,0,83.3,18.408Zm19.6-8.176v1.68a3.431,3.431,0,0,0-1.232-.224,1.888,1.888,0,0,0-1.442.658,2.838,2.838,0,0,0-.6,1.974V15.8h3.248V17.26H99.622V30H97.914V17.26h-2.6V15.8h2.6V14.292a4.5,4.5,0,0,1,1.008-3.08,3.565,3.565,0,0,1,2.828-1.148A4.379,4.379,0,0,1,102.9,10.232Zm12.1,11.872V21.46a4.317,4.317,0,0,0-1.078-3.08,3.785,3.785,0,0,0-2.9-1.148,3.975,3.975,0,0,0-3,1.26,5.752,5.752,0,0,0-1.4,3.612Zm.868,5.46V29.3a8.66,8.66,0,0,1-3.92.84,6.95,6.95,0,0,1-5.138-1.974,7.023,7.023,0,0,1-1.974-5.194,7.823,7.823,0,0,1,1.736-5.376,5.74,5.74,0,0,1,4.508-1.96,5.3,5.3,0,0,1,4.144,1.708,6.942,6.942,0,0,1,1.54,4.816,8.059,8.059,0,0,1-.112,1.512H106.622a5.117,5.117,0,0,0,1.624,3.6,5.544,5.544,0,0,0,3.78,1.246A6.824,6.824,0,0,0,115.862,27.564ZM127.65,16.308v1.708a7.137,7.137,0,0,0-3.556-.756,3.021,3.021,0,0,0-1.946.574,1.831,1.831,0,0,0-.714,1.5,2.165,2.165,0,0,0,.21.98,2.087,2.087,0,0,0,.728.77,6.556,6.556,0,0,0,.882.518q.364.168,1.176.5a10.234,10.234,0,0,1,3.01,1.722,3.227,3.227,0,0,1,1.05,2.534,3.445,3.445,0,0,1-1.218,2.786,5.047,5.047,0,0,1-3.346,1.022,8.782,8.782,0,0,1-4.144-.84V27.564a8.04,8.04,0,0,0,4.032,1.064,3.436,3.436,0,0,0,2.17-.588,1.871,1.871,0,0,0,.742-1.54,2.1,2.1,0,0,0-.77-1.736,10.4,10.4,0,0,0-2.534-1.316,9.053,9.053,0,0,1-2.716-1.568,3.127,3.127,0,0,1-1.008-2.464,3.336,3.336,0,0,1,1.26-2.73,4.86,4.86,0,0,1,3.164-1.022A7.774,7.774,0,0,1,127.65,16.308ZM137.59,28.6a3.858,3.858,0,0,0,3.136-1.526,6.776,6.776,0,0,0,1.232-4.354,6.317,6.317,0,0,0-1.19-3.976,3.654,3.654,0,0,0-3.01-1.54,4.26,4.26,0,0,0-3.136,1.33q-1.316,1.33-1.316,4.438a7.794,7.794,0,0,0,.434,2.73,4.293,4.293,0,0,0,1.12,1.764,4.663,4.663,0,0,0,1.372.868A3.736,3.736,0,0,0,137.59,28.6Zm-4.284-12.8v2.072a4.9,4.9,0,0,1,4.4-2.3,5.287,5.287,0,0,1,4.452,2.086,8.117,8.117,0,0,1,1.6,5.082,8.233,8.233,0,0,1-1.708,5.39,5.425,5.425,0,0,1-4.4,2.086,4.942,4.942,0,0,1-4.34-2.352V35.6H131.6V15.8Zm15.54,0v2.408a4.066,4.066,0,0,1,3.976-2.576q.2,0,.7.056v1.736a3.88,3.88,0,0,0-1.12-.168,3,3,0,0,0-2.534,1.5,5.759,5.759,0,0,0-1.022,3.318V30h-1.708V15.8Zm7.2,14.2V15.8h1.708V30Zm0-17.892a1.14,1.14,0,0,1-.336-.84,1.187,1.187,0,0,1,.336-.854,1.116,1.116,0,0,1,.84-.35,1.2,1.2,0,0,1,1.2,1.2,1.116,1.116,0,0,1-.35.84,1.187,1.187,0,0,1-.854.336A1.14,1.14,0,0,1,156.042,12.108Zm7.784,3.7V18.24a4.626,4.626,0,0,1,4.508-2.66,4.374,4.374,0,0,1,3.276,1.26,4.45,4.45,0,0,1,1.232,3.248V30h-1.708V20.62a3.482,3.482,0,0,0-.84-2.52,2.938,2.938,0,0,0-2.212-.868,3.989,3.989,0,0,0-3,1.33,5.017,5.017,0,0,0-1.26,3.6V30h-1.708V15.8ZM182,28.04a4.147,4.147,0,0,0,2.912-1.246,5.033,5.033,0,0,0,1.316-3.822,6.4,6.4,0,0,0-1.26-4.354,3.729,3.729,0,0,0-2.828-1.414A3.679,3.679,0,0,0,179,18.772a6.7,6.7,0,0,0-1.148,4.06,5.358,5.358,0,0,0,1.288,3.878A3.906,3.906,0,0,0,182,28.04ZM186.226,15.8h1.708v13.1a6.274,6.274,0,0,1-1.736,4.83,6.327,6.327,0,0,1-4.48,1.61,9.594,9.594,0,0,1-4.144-.812v-1.68a8.839,8.839,0,0,0,4,.868,4.8,4.8,0,0,0,3.388-1.162,4.75,4.75,0,0,0,1.26-3.654V27.06a4.585,4.585,0,0,1-4.256,2.6,5.547,5.547,0,0,1-4.186-1.82,6.878,6.878,0,0,1-1.722-4.928,8.427,8.427,0,0,1,1.582-5.264A4.983,4.983,0,0,1,181.8,15.58a4.618,4.618,0,0,1,4.424,2.716Z" transform="translate(834 1760)" fill="#3c9bcd"/>
    <g id="En">
      <text id="Full_GDPR_compliance" data-name="Full GDPR compliance" transform="translate(888 1861)" fill="#464646" font-size="14" font-family="Montserrat" font-weight="600"><tspan x="0" y="0">Full GDPR compliance</tspan></text>
      <text id="Automated_through_API" data-name="Automated through API" transform="translate(888 1918)" fill="#464646" font-size="14" font-family="Montserrat" font-weight="600"><tspan x="0" y="0">Automated through API</tspan></text>
      <text id="Gaia-X_member" data-name="Gaia-X member" transform="translate(888 1975)" fill="#464646" font-size="14" font-family="Montserrat" font-weight="600"><tspan x="0" y="0">Gaia-X member</tspan></text>
      <text id="Local_support" data-name="Local support" transform="translate(888 2032)" fill="#464646" font-size="14" font-family="Montserrat" font-weight="600"><tspan x="0" y="0">Local support</tspan></text>
    </g>
  </g>
</svg>
