<svg xmlns="http://www.w3.org/2000/svg" width="170" height="170" viewBox="0 0 170 170"><g transform="translate(-614 -536)"><rect width="170" height="170" transform="translate(614 536)" fill="#e7eff3"/><g transform="translate(674 596.999)"><path d="M57.989,10.335a11.614,11.614,0,0,0-23.086,0,11.614,11.614,0,0,0,1.279,23.157H46.446a6.482,6.482,0,1,0,0-12.964,3.783,3.783,0,1,1,2.685-6.449,1.35,1.35,0,1,0,1.914-1.9,6.481,6.481,0,1,0-4.593,11.053,3.783,3.783,0,1,1,0,7.566H36.182a8.914,8.914,0,0,1,0-17.828,1.351,1.351,0,0,0,1.351-1.351,8.913,8.913,0,0,1,17.827,0,1.351,1.351,0,0,0,1.357,1.35,8.914,8.914,0,1,1,0,17.828,1.35,1.35,0,0,0,0,2.7,11.614,11.614,0,0,0,1.273-23.157Z" transform="translate(-21.571)" fill="#417da5"/><path d="M3.328,339.768c-.244-.1-.464-.171-.781-.281-.572-.182-1.132-.389-1.132-.865s.366-.719.926-.719a2.122,2.122,0,0,1,1.464.622l.488-.72a2.536,2.536,0,0,0-1.974-.755,1.754,1.754,0,0,0-1.953,1.657,1.493,1.493,0,0,0,.914,1.39,4.28,4.28,0,0,0,.792.305c.391.134,1.3.328,1.3.963s-.574.829-1.109.829a2.38,2.38,0,0,1-1.708-.829L0,342.047a2.775,2.775,0,0,0,2.255,1.036,2.468,2.468,0,0,0,1.608-.513,1.644,1.644,0,0,0,.6-1.316A1.429,1.429,0,0,0,4,340.183,2.226,2.226,0,0,0,3.328,339.768Z" transform="translate(0 -295.918)" fill="#417da5"/><path d="M44.379,337.05a4.473,4.473,0,0,0-2.17.585l.354.781a3.552,3.552,0,0,1,1.743-.5,1.271,1.271,0,0,1,1.439,1.317v.232l-1.549.06c-1.342.061-2.266.635-2.266,1.768a1.831,1.831,0,0,0,2,1.791,2.373,2.373,0,0,0,1.841-.865l.012.732h1.132v-3.366a2.4,2.4,0,0,0-.621-1.877A2.463,2.463,0,0,0,44.379,337.05Zm1.378,4.363a1.82,1.82,0,0,1-1.475.842,1.056,1.056,0,0,1-1.195-1c0-.548.378-.951,1.317-1l1.353-.085Z" transform="translate(-36.813 -295.918)" fill="#417da5"/><path d="M117.277,337.05a2.872,2.872,0,0,0-2.937,3,2.814,2.814,0,0,0,2.9,3.035,3.436,3.436,0,0,0,2.547-.914l-.488-.671a3.2,3.2,0,0,1-1.913.671,1.785,1.785,0,0,1-1.865-1.84h4.46a5.052,5.052,0,0,0,.037-.513A2.642,2.642,0,0,0,117.277,337.05Zm-1.743,2.5a1.7,1.7,0,0,1,1.708-1.657,1.679,1.679,0,0,1,1.669,1.657Z" transform="translate(-100.387 -295.918)" fill="#417da5"/><path d="M167.638,339.768c-.244-.1-.464-.171-.78-.281-.574-.182-1.134-.389-1.134-.865s.366-.719.926-.719a2.125,2.125,0,0,1,1.464.622l.488-.72a2.536,2.536,0,0,0-1.974-.755,1.754,1.754,0,0,0-1.953,1.657,1.493,1.493,0,0,0,.914,1.39,4.35,4.35,0,0,0,.792.305c.389.134,1.307.328,1.307.963s-.572.829-1.109.829a2.377,2.377,0,0,1-1.708-.829l-.561.682a2.775,2.775,0,0,0,2.255,1.036,2.465,2.465,0,0,0,1.608-.513,1.645,1.645,0,0,0,.6-1.316,1.429,1.429,0,0,0-.464-1.073A2.211,2.211,0,0,0,167.638,339.768Z" transform="translate(-144.259 -295.918)" fill="#417da5"/><path d="M209.446,337.044a2.455,2.455,0,0,0-2.06,1.024h-.024v-.908H206.24v7.992h1.17v-3.123l.012.012a2.249,2.249,0,0,0,2,1.036,2.807,2.807,0,0,0,2.815-3.035A2.765,2.765,0,0,0,209.446,337.044Zm-.244,5.034a2.053,2.053,0,1,1,1.84-2.048A1.851,1.851,0,0,1,209.2,342.078Z" transform="translate(-181.072 -295.912)" fill="#417da5"/><rect width="1.17" height="5.789" transform="translate(35.912 41.242)" fill="#417da5"/><path d="M314.882,337.046a1.952,1.952,0,0,0-1.767,1.024h-.037l.012-.914h-1.17v5.789h1.17v-2.913c0-1.109.4-2.023,1.488-2.023,1.035,0,1.206.732,1.206,1.708v3.23h1.17v-3.428C316.954,338.13,316.527,337.046,314.882,337.046Z" transform="translate(-273.855 -295.913)" fill="#417da5"/><path d="M363.387,337.21l.012.914h-.035a2.314,2.314,0,0,0-2.023-1.024,2.916,2.916,0,0,0,0,5.826,2.32,2.32,0,0,0,2.023-1.036h.024v.228a2.613,2.613,0,0,1-.438,1.622,1.975,1.975,0,0,1-1.586.633,3.678,3.678,0,0,1-2.075-.732l-.548.816a4.447,4.447,0,0,0,2.583.865,3.059,3.059,0,0,0,2.585-1.109,3.693,3.693,0,0,0,.633-2.5V337.21Zm-1.8,4.759a1.973,1.973,0,1,1,1.84-1.962A1.8,1.8,0,0,1,361.584,341.969Z" transform="translate(-314.795 -295.962)" fill="#417da5"/><path d="M91.191,316.009a2.442,2.442,0,0,0-.391,1.549v6.362h1.158v-4.839h1.38v-.938H91.962V317.5c0-.659.122-1.231.89-1.231a2.223,2.223,0,0,1,.488.062v-.884a3.764,3.764,0,0,0-.755-.068A1.75,1.75,0,0,0,91.191,316.009Z" transform="translate(-79.719 -276.888)" fill="#417da5"/><path d="M261.945,338.031h-.037l.012-.89h-1.17v5.789h1.17v-2.889a2.587,2.587,0,0,1,.353-1.464,1.22,1.22,0,0,1,.951-.488,1.534,1.534,0,0,1,.635.122v-1.124a1.87,1.87,0,0,0-.488-.059A1.518,1.518,0,0,0,261.945,338.031Z" transform="translate(-228.93 -295.899)" fill="#417da5"/><circle cx="0.761" cy="0.761" r="0.761" transform="translate(35.729 38.488)" fill="#417da5"/></g></g></svg>