<svg xmlns="http://www.w3.org/2000/svg" xmlns:xlink="http://www.w3.org/1999/xlink" width="1366" height="1327.469" viewBox="0 0 1366 1327.469">
  <defs>
    <linearGradient id="linear-gradient" x1="0.5" y1="0.359" x2="0.5" y2="1" gradientUnits="objectBoundingBox">
      <stop offset="0" stop-color="#195f8c" stop-opacity="0"/>
      <stop offset="1" stop-color="#195f8c" stop-opacity="0.204"/>
    </linearGradient>
  </defs>
  <g id="Karta" transform="translate(6 -1450.115)">
    <path id="Path_26" data-name="Path 26" d="M74.387,9.594l8.705-4.259,4.354-8.517,5.8-9.937,2.9-4.259,2.9-7.1,8.705-2.841a64.15,64.15,0,0,1,7.256-1.418c1.451-1.42,10.156-8.516,10.156-8.516h1.451l-4.353,7.1v7.1l1.451,5.678,1.451,1.42V-4.6s4.353,2.841,2.9,4.259c-2.9,1.42-5.8,5.678-5.8,5.678l-1.451,8.518-5.8,7.1,1.451,8.517,1.451,7.1-1.451,5.678,4.353,4.259-1.451,2.839,1.451,4.259,4.353,2.839h4.353c1.451,0,5.805-1.42,7.256-1.42s4.353,1.42,4.353,1.42l4.353,5.678v4.259s-1.451,2.839-1.451,4.257a20.4,20.4,0,0,0-2.9,4.259l-2.9,2.839-1.451,4.259-1.451,2.839h0l-2.9-2.839s0-4.259-1.451-2.839c-1.451,0-2.9,2.839-2.9,2.839l1.451,2.839s1.451,4.259,0,4.259h-2.9l-1.451-5.68-4.353-1.418,2.9-5.678-2.9-1.42a4.54,4.54,0,0,0-2.9,1.42,60.326,60.326,0,0,1-1.451,7.1l-1.451,5.68a4.921,4.921,0,0,1,1.451,2.839,4.929,4.929,0,0,1-1.451,2.839v2.839s1.451,2.839,1.451,4.259a1.4,1.4,0,0,1-1.451,1.418v2.839a5.1,5.1,0,0,0-2.9,1.42l-2.9,1.418a5.1,5.1,0,0,0-2.9-1.418c-1.451,0-1.451-1.42-2.9,0l-1.451,1.418,1.451,1.42h2.9v2.839a1.412,1.412,0,0,1,1.451,1.42l-2.9,2.839-2.9,2.839-2.9,1.42s-2.9-1.42-2.9,0h-2.9c0,1.418,2.9,4.257,2.9,4.257l-5.8-5.678h-2.9l4.353,2.839L93.25,126l2.9,1.42L94.7,128.835l-1.451,1.42-2.9,2.839a5.1,5.1,0,0,1-2.9,1.42H83.092l1.451,1.418,2.9,1.42s1.451-1.42,1.451,0c-1.451,0-1.451,0-1.451,1.418v7.1l2.9,4.259,1.451,1.418v5.68a5.1,5.1,0,0,1-2.9,1.418l-5.805,1.42L81.641,162.9l2.9,1.418v2.841A4.929,4.929,0,0,1,83.092,170h2.9l4.354,1.418,5.8,7.1L94.7,184.2l-2.9,2.839-2.9-5.678a1.412,1.412,0,0,0-1.451,1.42c-1.453,0-5.805,2.839-5.805,2.839s-2.9,1.418-4.353,1.418H75.838l-4.353-1.418-5.8-2.839s-2.9-1.42-4.354-1.42-8.705-2.839-8.705-2.839l-2.9,1.42H45.368l-2.9-1.42-2.9-4.259-1.451-2.839,4.354-2.839a1.4,1.4,0,0,0,1.451-1.418v-8.518a4.929,4.929,0,0,1,1.451-2.839s0-4.259-1.451-5.678v-5.678l-2.9-4.259a11.408,11.408,0,0,1-4.353-1.42,69.456,69.456,0,0,0-7.254-2.839v-4.259l-1.451-1.418s-2.9,0-2.9,1.418v1.42l-2.9-1.42s-2.9-4.257-2.9-5.678a3.086,3.086,0,0,0,2.9-2.839c1.451-1.418,2.9-4.259,2.9-5.678V111.8s-1.451-1.42,0-1.42H26.5a57.671,57.671,0,0,1,5.8-4.259v-2.839s-1.451-2.839-1.451-4.257v-1.42c0-2.839-5.8-8.516-5.8-8.516h-2.9v-7.1L23.6,76.313l-1.451-9.937V52.18l2.9-5.678L26.5,43.664l1.451,4.257a1.938,1.938,0,0,0,0,2.839h4.353l1.451,1.42,4.353,2.839,2.9,2.839,2.9,1.42h2.9l1.451-1.42V56.439L46.818,53.6a4.929,4.929,0,0,0-1.451-2.841l4.353-2.839,1.451-2.839a1.4,1.4,0,0,0-1.451-1.418H45.368l-1.451-1.42L42.466,39.4s0-2.839,1.451-2.839a31.61,31.61,0,0,1,1.451-5.678s-1.451-2.841,1.451-2.841h4.353s1.451-2.839,2.9-2.839c0,0,1.451-1.418,1.451,0,1.451,0,0,4.259,0,4.259l-2.9,2.839a4.929,4.929,0,0,1,1.451,2.839v2.839l-2.9,4.259h1.451v2.839l4.353-1.418-1.451-1.42a1.938,1.938,0,0,1,0-2.839c1.451-1.42,1.451-2.839,2.9-2.839,0-1.42,0-1.42,2.9-1.42,1.451,0,4.354,2.839,4.354,2.839s1.451,1.42,0,1.42a4.927,4.927,0,0,1-1.453,2.839l2.9,4.259a4.548,4.548,0,0,0-2.9,1.418v1.42c0,1.418-4.353,2.839,0,2.839,2.9,0,2.9,0,2.9-1.42V47.921h4.353l1.451,1.42V53.6s2.9,2.839,2.9,1.418,1.451,0,0-2.839c-1.451-1.42-1.451-4.259-1.451-4.259V45.082c-1.451-1.418-2.9-1.418-2.9-2.839l-4.353-4.259V29.468l1.451-2.839s0-2.839,1.451-4.259c1.451,0,0-1.418,1.451-1.418,2.9-1.42,1.451-1.42,4.353-1.42,1.451,0,4.353,1.42,5.8,1.42l4.353,1.418V20.951c1.453,0,1.453-2.841,1.453-1.42,1.451,0,1.451,1.42,2.9,0A4.354,4.354,0,0,0,91.8,16.692a4.54,4.54,0,0,0,2.9-1.42,5.1,5.1,0,0,0-2.9-1.418s-2.9,0-4.353,1.418h-2.9c-1.451,1.42-1.451,1.42-4.353,1.42s-2.9,0-4.353,1.418a4.54,4.54,0,0,1-2.9,1.42H68.583l-1.451-1.42H65.681a5.1,5.1,0,0,0-2.9,1.42h-5.8c0,1.42-2.9,1.42-2.9,1.42H52.622c0,1.418,1.451,1.418,0,2.839H48.269l-1.451,1.418-1.451,2.839H43.917l-1.451,4.259v1.42l-2.9,2.839-1.451,1.418,1.451,1.42v1.418l-1.451,1.42,1.451,2.839,2.9-1.418L43.917,46.5l-1.451,2.839a5.108,5.108,0,0,1-2.9,1.418l-1.451-1.418L36.661,46.5V43.664l-4.353,1.418V43.664l-1.451-1.42A4.921,4.921,0,0,0,29.406,39.4l-2.9-4.259h1.451c0-1.418,0-1.418,1.451-2.839,0-1.418,2.9-4.259,2.9-4.259l1.451-4.257,2.9-2.839,1.451-2.841,2.9-4.257,2.9-2.839h4.353l2.9,1.418c1.451-1.418,2.9-2.839,2.9-2.839l5.8-1.418h1.451l4.354,1.418h8.705ZM42.466,160.066h0l-2.9-1.42a4.921,4.921,0,0,1-1.451,2.839l-1.451,4.259-1.451,1.42V170l-4.353,1.418a1.4,1.4,0,0,0,1.451,1.42h2.9A4.921,4.921,0,0,1,36.661,170l1.451-1.42c1.451,0,4.354,0,4.354-1.418v-7.1Zm75.451-38.327h0l1.451-1.42a4.921,4.921,0,0,0-1.451-2.839,1.412,1.412,0,0,1,1.451-1.42v-1.418h-1.451a1.4,1.4,0,0,0-1.451,1.418V118.9Zm39.177,38.327h0l1.451-1.42,1.451,1.42-1.451,1.418-1.451-1.418Zm15.96,18.453H174.5v1.42l-1.451,1.418v-2.839ZM168.7,175.68h0l-1.451-1.42H171.6l1.451,1.42h0A1.4,1.4,0,0,0,171.6,177.1,5.1,5.1,0,0,1,168.7,175.68Zm7.254,0h0l-1.451-2.839,1.451-1.42,1.451,1.42-1.451,1.418Zm30.472-8.517h0l-1.451-1.42,1.451-1.42h2.9Zm-2.9,1.418h0v-4.259l1.451-1.418-1.451-1.42h-1.451l-1.453-2.839h-2.9l1.451-1.418h1.451l1.453-1.42s2.9-4.259,5.8-4.259h4.353l2.9-2.839V147.29c1.451,0,0-2.839,0-2.839V141.61l-4.353-2.839-5.8-2.839s0-2.839-1.451-2.839l1.451-2.839s2.9-4.259,5.8-5.678a4.54,4.54,0,0,1,2.9-1.42c1.451,0,2.9,1.42,4.353,2.839h5.805v-4.257c0-1.42,0,0-1.453-1.42l-1.451-1.42v-8.517c0-1.42-1.451-4.259-1.451-4.259a4.929,4.929,0,0,0-1.451-2.839l-1.451-2.839V99.026a14.439,14.439,0,0,1,1.451-5.68c1.451-1.418,1.451-4.257,1.451-4.257l-1.451-1.42-5.8-1.42-1.451-1.418a1.412,1.412,0,0,0-1.451-1.42l-5.8,1.42a20.879,20.879,0,0,0-4.354,2.839c-2.9,0-2.9,0-4.353,1.42-2.9,1.418-2.9,2.839-4.353,4.257-1.451,0-2.9,2.839-2.9,2.839-1.451,1.42-1.451,1.42,0,2.841,0,1.418,1.451,0,1.451,0h2.9c1.451,0,1.451,1.418,0,1.418v1.42l-1.451,1.418v2.839a1.412,1.412,0,0,1-1.451,1.42l-2.9,2.839a1.4,1.4,0,0,0-1.451,1.42c0,1.418,0,1.418,1.451,2.839v1.418c0,1.42-1.451,2.839-1.451,1.42v-1.42h-5.8l2.9-2.839,1.451-1.418v-1.42h-5.805l1.453-1.42v-2.839l1.451-2.839s0-2.839,1.451-2.839a4.921,4.921,0,0,0,1.451-2.839c1.451,0,0-1.42,0-1.42h-2.9l-2.9,1.42a33.487,33.487,0,0,1-5.8,1.42h-1.451a1.412,1.412,0,0,0-1.451-1.42h-2.9a1.4,1.4,0,0,0-1.451,1.42s4.353,1.418,5.8,2.839H171.6v1.418s-1.451,2.839-2.9,2.839a1.412,1.412,0,0,1-1.451,1.42l-2.9,1.418L165.8,111.8v2.839l-2.9-1.42-4.353,2.839h-1.451a1.4,1.4,0,0,1-1.451-1.418l-1.453,2.839a64.024,64.024,0,0,0-7.254-1.42V118.9l2.9,1.42-2.9,1.42,5.8,2.839L154.19,126l1.453,4.259-1.453,1.418,2.9,2.841a4.353,4.353,0,0,0,1.451,2.839v7.1s-2.9,1.418-2.9,2.839h1.451l2.9,2.839,1.451,2.839A4.921,4.921,0,0,0,160,155.807l2.9,1.42h14.509l4.354-1.42s2.9,2.839,4.353,2.839a1.937,1.937,0,0,1,0,2.839,1.412,1.412,0,0,1-1.451,1.42l1.451,4.259c1.451,1.418,1.451,0,1.451,0l2.9,2.839a1.411,1.411,0,0,0,1.451,1.418h1.451a1.412,1.412,0,0,1,1.451,1.42h4.353a1.412,1.412,0,0,0,1.451-1.42h2.9v-2.839Zm0,7.1h0l-1.451,1.418h1.451l2.9,1.42h1.451l1.451-1.42,1.451-2.839,4.353-1.418h4.353l1.451-1.42V170l-2.9-2.839h-8.705V170c-1.451,1.418-1.451,1.418-2.9,1.418h-1.451Zm-15.961,17.035h1.451l1.451-1.42-1.451-2.839-1.451-1.42-1.451-4.257-2.9-2.839-1.451-1.42-1.451,2.839-1.451,1.42-1.453,1.418s-4.353-1.418-5.8-2.839l-2.9-1.418a4.54,4.54,0,0,1-2.9-1.42l-1.451-1.42a1.4,1.4,0,0,0-1.451-1.418c0-1.42-1.451,0-2.9,0h-4.353a1.412,1.412,0,0,1-1.453,1.418c-1.451,1.42,0,4.259,0,4.259v1.42l1.453,2.839h-4.354l1.451,2.839a4.35,4.35,0,0,0,1.451,2.839l1.453,1.42,7.254,1.418h1.451l5.8,2.839,2.9,2.841h2.9l1.451-1.42,4.354-1.42h2.9l4.353,1.42h1.451v-4.259Zm-56.589-58.2h0l-2.9-1.42-2.9-4.259-4.353-1.418-1.451-4.259c-1.451-1.418-1.451,0-1.451,0s0,2.839-1.451,4.259h-2.9l-2.9,2.839a33.553,33.553,0,0,1-5.805,1.418l-1.451,1.42-8.705-1.42-2.9,2.841v1.418l1.451,2.839,1.451,1.42h1.451v2.839L97.6,145.87a17.59,17.59,0,0,1,2.9,4.259c1.451,2.839,0,4.257,0,4.257l4.353,4.259,2.9,1.42a5.1,5.1,0,0,0,2.9,1.418v4.259l1.451,2.839,1.451-1.418,1.451-1.42,7.254,2.839s5.8,2.839,7.254,2.839l2.9-2.839c1.452-1.418,5.805-1.418,5.805-1.418a1.4,1.4,0,0,0,1.451-1.42c0-1.42,1.451-2.839,1.451-4.259a4.929,4.929,0,0,1,1.451-2.839v-2.839l-1.451-4.259,1.451-5.678-2.9-2.839-1.451-1.42v-2.839l2.9-1.418v-4.259l4.353-2.839L146.936,126a64.106,64.106,0,0,0-7.254-1.418c-2.9,0-1.451,0-1.451-1.42l-1.451-1.418-2.9,1.418c-1.452,0-1.452-2.839-1.452-2.839l-2.9,1.42h-4.353v1.418c-1.451,1.42,0,2.839,1.451,2.839,0,1.42,1.451,4.259,1.451,4.259l1.451,2.839Zm-2.9-19.874h2.9l1.451-2.839a4.928,4.928,0,0,0,1.452-2.841V104.7l-1.452-1.42-1.451-2.839-1.451-4.259h-2.9v2.841a4.929,4.929,0,0,0,1.451,2.839l1.451,1.418v1.42l-1.451,1.418-1.451,2.839,1.451,2.841Zm7.256,70.977h0l1.451,4.259,1.451,2.839s2.9,1.418,2.9,0-1.451-2.839,0-4.259c0-1.42,1.451-4.259,1.451-5.678s1.451-2.839,1.451-4.259c1.451-1.42,2.9-4.259,2.9-5.678,0,0,1.451-2.839,1.451-4.259v-4.259l-1.451-4.257-1.451,2.839v2.839l-2.9,5.678-1.451,2.839-2.9,2.839v4.259l-1.451,1.42V184.2Zm-7.256-12.776h0l1.451,1.418s1.451,4.259,2.9,4.259l4.354-4.259v-2.839l1.451-2.839L133.878,170l-2.9,2.839Zm-13.058,2.839h0l1.451,4.259a5.1,5.1,0,0,1,2.9,1.418l2.9,2.839a1.4,1.4,0,0,0,1.451,1.42l2.9-1.42,1.451-2.839h-2.9c-1.451,0-2.9-2.839-2.9-2.839h-1.451c-1.451,0-4.353-2.839-4.353-2.839ZM91.8,171.421h0l2.9,1.42,1.451,1.418,2.9,1.42-2.9,2.839s1.451,2.839,2.9,1.42H100.5l2.9,1.418a5.4,5.4,0,0,0,4.353,1.42,1.4,1.4,0,0,0,1.451-1.42v-2.839l-1.451-2.839-1.451-2.839-5.8-1.42-2.9-2.839-4.353-1.418H91.8ZM139.681-1.762h0V-.343h2.9l2.9,1.42c0,1.418,1.451,0,1.451,0,1.451,0,1.451-1.42,1.451-2.839l1.451-1.42,4.353-2.839c0-1.42-2.9-1.42-2.9-1.42l-4.353,1.42L142.583-4.6Z" transform="translate(175.692 2577.771)" fill="rgba(25,95,140,0.2)" fill-rule="evenodd"/>
    <path id="Union_2" data-name="Union 2" d="M-6094.409,1341.087l-1.448-2.838-8.705,1.414-7.257-1.414,2.9-4.26,1.448-2.846-1.448-2.838,1.448-4.26,1.453-4.262,1.453-2.837s0-5.684-1.453-5.684c0,0-4.354-5.684-4.354-7.1l-5.8-8.522s-7.252-8.521-8.705-11.359c-2.9-4.26-1.448-4.26-1.448-5.684l2.9-4.26h7.252v-7.1c-1.448,0-4.351-2.846-4.351-2.846l-5.8-2.838,1.448-5.684h5.8l2.9-1.414,2.9-1.424s0-2.837-1.45-4.26c0-1.424,1.45-7.1,2.9-7.1,0-1.424-4.354-2.846-4.354-2.846s-2.9,2.846-4.351,2.846l-4.354-4.26-5.8-9.945-4.354-2.838-2.9-4.26c-1.448-1.424-2.9-2.838-2.9-4.262-1.45-1.422-2.9-7.1-2.9-7.1s-5.8-14.205-7.252-15.629V1187.7c-1.453-1.424-1.453-2.846-2.906-2.846s-1.448,1.422-4.351,1.422c-4.354,0-2.9-1.422-2.9-1.422v-14.2h-4.354c-1.45-1.424,0-4.262,0-4.262a20.979,20.979,0,0,0,1.18-2.841c-.976-.028-4.3-.21-5.531-1.419-1.453-1.422,0-4.26,0-4.26s4.351-2.838,4.351-4.26c1.453,0-2.9-1.424-4.351-2.838-2.9-1.424,1.45-5.684,1.45-5.684s0-2.838,1.452-4.26c.725-.712-.727-.356-2.541,0s-3.99.712-4.715,0c0-2.838,4.354-7.1,4.354-7.1v-2.846l-5.807,4.26a56.245,56.245,0,0,1-4.351-5.675l5.8-7.1-4.354-1.424-1.45-1.424,2.9-5.675,1.45-4.26s-2.9,2.836-4.351,2.836l-.013.006.013-.006-4.354-5.684,1.453,4.262-5.8,1.422a60.562,60.562,0,0,1-1.451-7.1l-2.9-7.107,1.453-9.937s-1.453-9.945-2.9-11.369-2.9-7.1-2.9-7.1l1.064-7.292-5.483-2.682c0-2.833-5.818-9.94-7.27-15.615-2.906-4.264-8.718,0-8.718,0s-4.359,9.938-7.265,9.938c-2.906,1.422-7.265,5.676-7.265,5.676s-7.272,8.527-11.631,11.37c-2.9,2.833-1.453-2.843-2.9-8.527,0-5.676-4.361-4.256-4.361,0,1.455,2.841-8.716,7.1-11.623,7.1-4.366,0-10.178,7.1-10.178,7.1l-4.359,14.2-11.623,19.888s-17.443,9.938-18.9,9.938c-1.453,1.422-4.359,4.264-7.265,7.1-2.906,4.264-5.812,4.264-7.265,4.264-2.906,0-1.453-2.841-5.817-4.264-2.908-1.421-7.265,5.686-7.265,5.686l-7.265,2.841-8.718,1.421c-1.453,0-7.272-2.841-8.725-1.421,0,0-4.359,2.843-4.359,1.421s-2.9-2.841-2.9-2.841-20.35-4.264-23.255-5.684,4.366-7.1,4.366-7.1,5.812-4.264,4.359-4.264c0-1.422-5.819-1.422-10.178-2.843a17.959,17.959,0,0,1-7.265-1.421l-5.812-5.676-1.453-2.843c0-2.841-2.906-2.841-7.264-5.684s-7.271-7.1-7.271-8.518c0,0-5.812-9.94-7.265-12.781a6.731,6.731,0,0,1,0-5.686s4.359-7.1,5.812-9.938c0-2.843,1.453-1.422,2.906-1.422s8.723-1.421,8.723-1.421c1.453,0-2.9-5.676-2.9-5.676l4.358-5.684s2.906-7.1,1.453-7.1a5.147,5.147,0,0,1-1.453-4.264c-1.453-1.421-4.358-2.841-5.811-2.841-2.915,0-7.272,2.841-7.272,2.841l-5.812,2.843c-1.453,1.421-1.453,0-4.359,0-2.906-1.421-1.453-4.264-1.453-7.107,0-1.411,4.359-4.254,7.266-7.1,1.453-4.264-4.359-4.264-4.359-4.264l-7.265-4.254,4.359-8.527-1.453-4.254s5.813-2.843,5.813-4.264a2.827,2.827,0,0,0-2.906-2.843l-4.359-5.684c0-1.413,4.359-2.833,4.359-4.254,1.453,0,4.359-4.264,4.359-4.264,0-1.422-4.359-2.843-5.812-1.422-1.453,0-4.359,2.843-4.359,2.843l-7.265-8.518s5.812-8.527,7.265-9.95c0-2.833,2.906-1.421,5.812-1.421,4.359-1.413,4.359-2.833,4.359-2.833,0-1.421-7.266-1.421-10.171-1.421l-5.812-5.686c-2.906-4.254,2.906-5.675,2.906-7.1v-7.107l2.906-11.361s2.906-2.843,1.453-4.264c0-1.413-2.906-5.676-4.359-8.518V910.72c1.453-1.413,4.359-2.835,7.265-4.256,1.453,0,0-4.264,0-4.264s8.718-8.518,8.718-9.938a31.659,31.659,0,0,1,1.453-5.686L-6435.83,888h-1.453c-1.453,0-2.906-1.422-2.906-4.264,0-4.256,1.453-2.833,4.359-4.256s2.906-2.841,2.906-5.684,2.906-4.254,4.359-4.254c1.453-1.422,8.718-7.107,10.169-8.527,0-2.843-4.357-2.843-8.716-4.264-2.906-1.413-5.812-7.1-4.359-9.94,1.453-1.421,2.906-4.254,4.359-4.254a20.4,20.4,0,0,0,2.906-4.264s-7.265-1.421-8.718-1.421c-1.453,1.421-2.906-2.843-2.906-4.264a3.091,3.091,0,0,1,2.906-2.843c0-1.413,4.359-2.833,4.359-4.254s-1.453-4.264-1.453-4.264l4.359-2.843c1.453,0,2.906,2.843,4.359,1.421,1.453,0,2.9-4.254,2.9-4.254h-1.451a26.622,26.622,0,0,1-4.359-5.684c-1.453-1.421,0-4.264,0-5.684,0-2.833,2.906,0,7.27,1.421s2.908,1.421,4.361,2.843a10.749,10.749,0,0,0,4.358,4.262c1.453,0,2.906-2.841,2.906-2.841l-4.359-2.843a52.521,52.521,0,0,0,1.453-11.361c0-4.264,4.359,0,4.359,0s5.813,4.264,8.718,2.843c1.453,0,0,0,1.453-5.684,1.938-3.788,2.584-3.786,2.8-3.786.108,0,.108,0,.108-.469,1.453-1.421,8.725-2.841,8.725-4.264,1.453-1.421-1.453-4.264-1.453-5.684s1.453-4.254,2.906-5.676,5.812,5.676,7.265,5.676c1.452,1.421,5.813,0,5.813,0s4.357-7.1,5.811-8.518,7.271,2.841,8.725,4.264c1.453,0,7.265,4.254,10.171-1.422,2.906-4.262,0-5.684,0-5.684s-7.265-1.421-10.171-5.676c-4.366-4.262,0-4.262,2.906-7.105,1.453-2.843,1.453-4.264,2.906-5.684,2.906-1.413,13.078,0,13.078-1.413,1.452,0,7.272-4.264,7.272-4.264l5.811,4.264s8.718,4.254,11.624,7.1,2.906-2.843,2.906-2.843l-2.906-7.1c0-1.421,1.453-4.262,2.906-5.684,1.453,0,0-4.254,0-5.676,1.453-2.841,8.718-2.841,8.718-2.841s4.366-2.843,2.913-5.686c0-1.421-2.913-4.254-2.913-4.254s-5.812-2.841-5.812-5.684c-1.453-2.843,2.906-2.843,2.906-2.843l1.453-11.359s7.272-2.843,8.723-2.843c2.908-1.422,5.813,4.264,7.266,5.684s0,1.421,1.453,4.264c0,1.413,2.906,1.413,4.359,1.413h13.084c1.453,0,2.906-5.676,2.906-5.676l2.906-1.421,13.076,5.684a41.451,41.451,0,0,1,4.359,8.518c2.906,5.676,5.819,1.422,7.272,1.422,2.906,0,4.359-1.422,8.718-5.686,2.906-2.841,1.453-2.841,5.812-2.841,2.906,0,5.813-4.256,5.813-4.256l-2.906-5.684-4.359,2.843-7.265,5.684h-14.537c-1.453,0,0-8.527,0-8.527a67.26,67.26,0,0,1-11.623-1.421c-5.812-1.422,2.9-9.94,2.9-9.94l4.361-2.843,10.176-5.675-5.819-5.684,1.453-2.843a66.291,66.291,0,0,0,2.906-7.1s4.366-4.264,7.272-5.684c4.359-2.843,4.359-5.676,4.359-7.1s2.906-8.527,8.718-14.2c5.813-4.264,7.265-2.841,7.265-2.841l5.817-4.265s7.265,5.686,8.718,5.686c2.906,0,7.265-1.421,5.812-7.107,0-4.254-2.906-2.833-2.906-2.833l-10.171,2.833a30.274,30.274,0,0,0,1.453-8.518c0-4.264,4.359-4.264,7.266-5.684,1.453-1.413,4.359-1.413,7.265-4.256s-1.453-2.841-2.906-2.841-7.265,2.841-10.171,4.264h-5.811c-4.366,0,0-4.264-1.461-5.684l8.725-5.676h10.171l2.906-5.684v-5.686l5.812-1.421s7.272,5.684,7.272,4.264v-8.518s7.264-4.264,7.264-7.107a1.412,1.412,0,0,0-1.452-1.421l-2.906-7.1,10.17-5.686s-2.9-7.1-4.359-8.518c0-1.421,2.908-8.518,4.359-11.361s4.359-8.527,4.359-8.527V518.739c0-1.625.474-1.392,1.422-1.16a4.013,4.013,0,0,0,2.937-.26c1.453,0,1.453-4.264,1.453-4.264s7.271-7.107,8.725-8.518c1.453,0,5.813,2.833,5.813,2.833s8.718-1.422,10.169-1.422c1.455-1.411,2.908-8.518,2.908-8.518s-4.359-2.843-7.265-2.843c-1.453-1.421-8.718,1.422-8.718,1.422-1.453,0-5.812-5.676-5.812-5.676s1.453-9.948,0-12.781c0-4.264,2.906-5.684,2.906-5.684,1.453,0,4.359-4.264,2.906-7.1,0-4.264,2.906-5.684,2.906-5.684,1.453-1.422,4.359-2.843,7.265-4.265,2.9-2.841-1.453-5.675-1.453-5.675a31.672,31.672,0,0,0-1.453-5.684l10.17-5.676s5.819-2.843,4.366-2.843c0-1.421,2.906-2.841,2.906-2.841l5.813-5.686,1.453-2.833s-4.359-4.264-4.359-5.684c0-2.843,1.453-5.684,1.453-7.1,1.453-1.421,4.359-1.421,5.812-1.421l2.906-4.264c0-1.4,1.416-4.19,1.452-5.629,1.17.264,10.172,1.366,10.172,1.366l13.082-1.422c1.453-1.421-7.263-1.421-7.263-1.421a64.668,64.668,0,0,1-7.272-1.411l2.906-5.686s5.818-4.264,5.818-5.684c1.452-1.413,0-4.254-1.453-4.254,0-1.422-8.725,1.421-10.178,1.421l-4.359-5.684,5.812-8.519,13.083-1.421a5.106,5.106,0,0,0,2.906-1.421l5.813-2.843,8.718,1.422,5.819-1.422,1.453-2.843s0-2.833-7.271-5.675c-8.718-2.843-2.906,1.421-5.812,4.254-4.359,1.421-7.266,2.843-8.719,2.843s-1.453-1.422-7.263-4.256c-4.366-2.841,5.811-4.262,5.811-5.684-1.453-1.421-13.083-8.518-15.989-7.105-1.453,1.421-7.265,1.421-13.077,1.421-5.812,1.421-4.359,0-7.266,0-1.453,0-7.271,7.107-11.631,7.107-4.357,1.421-8.716,5.675-13.076,5.675-2.906,0-5.812,2.843-5.812,2.843s0,7.105-2.906,11.361c-2.913,5.684-7.272,4.264-10.178,2.841s2.906-4.264,2.906-5.675V363.93s13.084-11.361,13.084-14.2c1.453-4.264,5.813-7.1,8.718-8.518,1.453,0,7.264-7.107,7.264-7.107h11.631s11.625-1.421,15.984-4.254c2.906-2.843,0-4.264,0-4.264s-7.265-1.421-7.265-5.686-1.453-2.841-1.453-2.841-4.359-4.254-5.812-7.1,4.359-12.781,4.359-12.781,10.171-14.2,13.077-18.467c4.359-2.833,7.266-2.833,8.725-2.833,1.451-1.421,8.717-8.527,8.717-8.527s0-7.1,5.812-11.361c4.359-4.264,5.812,5.686,5.812,5.686s1.453,9.938,1.453,12.781,0,1.421,8.725,14.2c5.943,8.713,6.483,7.524,6.686,6.335.1-.557.117-1.112.58-.659,0,1.421,0,0,7.264,1.421,7.265,2.843,1.453-4.264,1.453-7.1,0-1.421,2.908-1.421,13.084-7.105,10.171-4.264,0-1.422,1.453-4.264v-7.1s0-5.686-2.913-7.107c-1.453-2.833-2.906,2.843-2.906,4.264-1.453,1.422-7.266,4.264-11.623,4.264s-2.906-2.841-2.906-5.684v-4.254c1.453-1.422,0-7.107,0-9.95,0-4.254,5.811-4.254,5.811-5.675a28.837,28.837,0,0,1,11.624-11.361c7.272-1.422,1.46,0,2.913,0,2.906-1.422,14.531-5.684,14.531-5.684l-4.359-5.686s7.266-8.518,10.171-8.518,4.358-1.422,8.725-2.843c1.29-.633,1.72-.141,1.927.351.261.613.17,1.228.978-.351,0-2.843-1.452-5.675-2.9-5.675-1.459-1.422-5.819-9.95-5.819-9.95s4.359-8.518,8.723-9.938,7.265,1.421,8.718,1.421c1.453,1.422,2.906,0,5.813-1.421,1.453,0-1.453-2.843-4.359-7.1-2.906-2.843,0-7.107,1.453-8.527s5.812,1.421,7.265,2.843l5.812,2.841s2.913,9.94,2.913,12.783-5.818,5.684-5.818,7.1,1.453,4.264,1.453,4.264,7.271-7.1,10.176-8.518c1.453-1.421,0,0,1.453,0s7.266,0,10.171-2.841c4.359-1.422-4.359-1.422-4.359-1.422-1.453,0-4.357-2.843-8.717-7.1s0-5.684,0-7.105,1.452-4.265,8.717-4.265c5.812-1.411,2.906,5.686,4.359,9.95,0,4.254,8.718,5.675,8.718,5.675s2.913-2.841,4.366-2.841c2.906,0,2.906,1.421,10.171,7.107,7.265,4.262,2.906-1.422,2.906-1.422,0-1.421,0-5.684-1.453-7.1s-7.265-2.841-7.265-2.841c-1.453-1.422-5.812-2.843-10.178-8.529-3.736-4.561-2.67-3.841-1.045-3.123.9.4,1.979.8,2.5.291q4.369-4.264,4.366-4.264s4.359-2.843,5.813,0c2.906,1.421,7.265,4.264,7.265,4.264l1.451,1.421s-4.357-7.107-2.9-9.95c1.453-4.254,2.9,0,2.9,0s10.171,2.843,11.625,2.843c1.453,1.422,1.453,2.843,13.084,12.783,10.171,9.938,4.359-1.422,4.359-1.422V160.832c-1.453-1.421-8.718-2.843-8.718-2.843-1.453,0-5.812-4.254-5.812-5.675,0-2.843,2.906-4.264,5.813-4.264,1.453,0,11.624,5.684,14.53,5.684,2.906,1.413,2.906,0,2.906,0s2.906-2.841,2.906-4.264a15.152,15.152,0,0,1,1.453-7.105c0-2.833,1.453-7.1,4.366-8.518,1.452-1.422,7.264-1.422,7.264-2.843v-9.94c0-1.421,8.718,0,8.718-1.421,1.453,0-1.453-4.264-1.453-4.264s-2.906-1.413-5.812-2.833c-2.9-2.843-1.453-4.264-1.453-5.684s5.812-1.422,5.812-2.843-1.453-1.421-2.906-4.254,0-4.264,2.906-8.527c2.906-5.676,1.453,0,2.906,0,0,0,8.718,5.684,11.631,7.105,4.359,1.422,2.906-2.841,4.359-4.262s0-5.686,0-7.1c-1.453,0-2.906-1.421-4.359-1.421-1.459-1.421-2.913-4.264-1.459-5.684,0-1.421,7.272-4.264,8.725-5.684,2.906-1.413,5.811,1.421,8.719,2.841a9.124,9.124,0,0,1,4.357,7.107s-5.812,5.675-5.812,7.1c-1.453,0,1.455,1.421,1.455,1.421,1.451,1.422,1.451,8.518,1.451,8.518l-5.811,11.37-4.359,8.518-2.906,9.94v18.466s5.812,2.843,8.717,1.422a2.8,2.8,0,0,0,2.908-2.843l1.451-12.781,2.906-9.94V112.548l5.812-9.948V88.4L-5808,78.458l5.813,11.359-4.359,11.361-1.453,9.95,8.718,7.1,5.811-11.359v-9.94l-4.357-7.107,5.813-11.359-5.812-9.94,4.357-8.518,8.725,4.254h2.906l7.266-1.421v5.684c1.453,2.843,7.265,4.264,7.265,4.264V68.518l18.9,5.676,13.076-1.413,8.718,5.676s11.631-5.676,15.99-5.676c2.9,0,4.359,4.254,4.359,4.254l7.264,11.361,17.443,12.781-10.171,8.527-1.453,9.94s-23.253,5.684-26.16,5.684c-4.359,1.421-13.084,0-17.443,0-2.906,1.421,2.906,5.676,2.906,5.676h11.631c4.359-1.422,8.719,4.264,8.719,4.264l11.623,2.841,11.631-4.262,1.453,14.2s7.265-8.518,11.625-11.361c2.906-2.841,5.812,8.518,8.718,15.624,2.911,5.675-5.812,9.94-5.812,9.94l-11.624-1.422,1.453,11.361-10.171,9.94s-7.272,5.684-5.819,11.369c1.453,4.256,1.453,17.037,1.453,17.037a30.121,30.121,0,0,1-7.264,1.421,1.33,1.33,0,0,1-1.191-.57,48.693,48.693,0,0,1-6.207,5.433l-5.859,7.079,10.256,2.837v12.738l-1.468,8.5-4.392,5.66,5.859,8.5,7.325,11.327,10.251,5.66s1.467-1.411,11.721,0a19.579,19.579,0,0,1,13.186,11.328l5.859,7.078,8.788,5.667,4.4,4.249-1.466,12.739s-4.394,7.079-2.931,12.746c0,7.079-4.392,16.988-4.392,19.818,0,1.417-2.93,12.746-2.93,12.746l4.393,9.909,5.859,5.66,8.791,9.916,11.718,12.739,4.4,9.909s11.718,7.084,11.718,8.5,4.4,8.5,4.4,8.5l5.858,9.909-1.466,7.079-4.392,7.079v4.247l4.392,5.668-1.463,5.66,4.394,8.5-2.931,5.66,7.325,2.83s1.468,1.419,0,4.249c-1.461,1.419-2.929,11.328-2.929,11.328l7.325,11.327,10.255,1.419s5.859,0,5.859,1.411c1.462,1.419,2.93,5.667,2.93,5.667l-4.4,8.492a15.288,15.288,0,0,0,5.857,7.078c2.934,1.419,5.864,1.419,5.864,4.249,1.463,2.83,1.463,7.079,2.929,5.667a53.54,53.54,0,0,1,8.79,1.413l4.395,7.078,2.931,5.668v5.66c0,2.83-1.466,11.327-1.466,11.327l-7.323,11.328s5.859,7.078,10.252,9.909,10.256,7.078,11.722,7.078,8.788,1.419,11.718,2.838c1.466,0,7.327,2.83,8.788,4.241s11.723,7.086,11.723,7.086l8.788,4.243,8.788,7.079,2.934,16.993s-2.934,25.485-4.4,28.315c0,2.83-4.395,15.576-5.859,16.988-2.929,1.417-5.863,2.837-5.863,5.667s-4.391,18.406-4.391,18.406-4.4,9.909-4.4,12.739-4.393,11.327-4.393,14.158c-1.466,1.417-4.4,12.746-4.4,12.746l-19.045,36.812-4.4,14.158s-4.395,1.417-5.859,4.247c-1.466,4.249-2.929,7.079-4.4,11.328,0,2.83-7.323,15.569-7.323,15.569l-2.932,7.086-5.859,7.078-4.394,2.83h-10.254l-4.4-2.83-4.4,2.83c0,1.413-2.93,2.832-2.93,4.249,0,0-1.463,2.83-2.929,2.83-1.462,1.413-2.93,2.83-4.391,2.83,0,1.419-2.934,1.419-2.934,1.419a4.322,4.322,0,0,1-1.464,2.83s-4.4,0-5.858-1.419c-.9-.861-2.335-1.725-2.988-2.268a17.175,17.175,0,0,1-1.408,3.687c0,1.419-2.931,5.66-4.4,5.66s-4.393-1.411-5.859-2.83h-2.929V885.1c-1.462,0-4.393,1.417-4.393,1.417s1.463,2.832,0,2.832c-1.466,1.417-2.934,2.83-4.4,2.83,0-1.413-2.929-2.83-2.929-2.83a20.26,20.26,0,0,0-2.93,4.247,4.877,4.877,0,0,1-1.466,2.83l-10.255,11.328c-1.463,0-4.392-4.249-4.392-4.249v4.249a21.117,21.117,0,0,1-4.4,2.83c0,1.417-1.468,0-2.931,0,0,1.417-1.466,1.417-1.466,2.837a4.9,4.9,0,0,1-1.463,2.83s-2.93,1.419-2.93,2.83a21.016,21.016,0,0,1-4.4,2.83,2.072,2.072,0,0,1-2.929,0c-1.468,0-4.4-4.241-4.4-4.241s-2.93,0-2.93,1.411c-1.461,1.419-1.461,2.83-2.929,2.83a5.493,5.493,0,0,1-4.4,1.419c-1.463,1.419-4.392,1.419-4.392,2.83-1.468,0-2.93,2.83-2.93,4.249s2.93,1.417,0,1.417a20.251,20.251,0,0,1-7.325,1.413s-2.929,1.417-2.929,2.83c-1.468,1.417,0,1.417-2.931,2.837a5.166,5.166,0,0,0-2.929,1.411l-2.93-2.83,1.462-2.83s-1.462-2.83-1.462-1.417c-1.466,2.83,0,4.247,0,4.247a1.422,1.422,0,0,0-1.466,1.419c-1.467,1.411,0,1.411-1.467,2.83a3.092,3.092,0,0,1-2.929,2.83c0,1.419-1.463,1.419-2.929,1.419h-2.93c-1.463,0-2.93-1.419-1.463-1.419l2.929-1.411s1.464-1.419,0-1.419c-1.447-1.4-2.891-2.794-2.928-2.829.037.037,1.4,1.41-2.93,1.41q-4.4,2.129-4.4,0s-2.93,0-1.467-1.411c2.93-1.419,2.93-2.837,4.4-2.837,1.2,0,1.419-1.893,1.458-3.355-.358-.2-.834-.486-1.458-.887l-2.929-4.248a4.876,4.876,0,0,0-1.467,2.83c1.467,1.417,4.4,2.83,0,4.247h-4.392c-1.468,1.413-5.859,1.413-5.859,1.413s-2.934,0-1.467,1.417c0,1.419,2.93,2.83,2.93,2.83s0,1.419-2.93,1.419c-1.466,1.419-4.4,1.419-4.4,1.419l-1.461,1.411a1.421,1.421,0,0,1-1.468-1.411,4.909,4.909,0,0,0,1.468-2.838c0-1.411,1.461,0,0-1.411-1.468-2.837-2.931-2.837-2.931-4.249a21.014,21.014,0,0,1,4.392-2.83v-2.837s-1.461,0,0-1.411a17.7,17.7,0,0,1,2.93-4.249,3.093,3.093,0,0,0-2.93-2.83s-1.461,2.83-1.461,4.249c0,0,1.461,2.83-2.931,1.411-4.4,0-7.325,0-8.792-1.411,0-1.419-2.929-2.838,1.467-2.838l4.4-1.411a5.1,5.1,0,0,0,1.463-4.249c-1.463,0-2.929-2.83-2.929-1.417a10.707,10.707,0,0,0-1.466,4.247h-5.859a4.879,4.879,0,0,1-1.463-2.83l1.463-5.667s2.929-1.413,1.466-1.413c0,0-2.929-1.417-2.929,0-1.468,0,0,1.413,0,2.83s0,2.832-1.468,2.832c-1.463,1.417-7.325,1.417-7.325,1.417,0-1.417-1.462-1.417,0-2.83v-2.837s-1.462-2.83-1.462-1.413h-2.929v-2.83h-4.4l-1.463-1.417c-1.468,0-1.468,0-1.468,1.417a34.2,34.2,0,0,0-5.859,1.413s0-2.83-1.466,0c0,1.417-7.322,1.417-7.322,1.417s-1.467-2.83-1.467-4.247l1.467-4.249,1.463-1.411-1.463-1.419h-2.934c0-1.419,2.934-4.249,2.934-4.249l1.463-1.417c1.468-1.413,4.4-1.413,2.929-2.83a5.184,5.184,0,0,1-2.929-1.413,1.42,1.42,0,0,1-1.463-1.419s1.463-2.83,1.463-4.247a4.9,4.9,0,0,0-1.463-2.83c-1.467,0,0,1.417-2.934,1.417a58.365,58.365,0,0,1-5.859,4.243v-4.243c1.467-1.417,5.859-1.417,7.325-2.837,0-1.411-2.929-5.66-2.929-5.66s2.929,1.419,1.463-1.419l-2.929-1.411a5.086,5.086,0,0,1,1.466-4.249c1.463-2.83,2.929-2.83,2.929-4.247,0,0-4.4-1.419-4.4-2.832s-2.93-1.417,0-4.247a4.608,4.608,0,0,1,2.929-1.419v-5.66c0-1.419,1.466-1.419,1.466-2.83-1.466-1.419-2.929-1.419-4.4-4.249v-2.83c1.466,0,2.929-1.417,1.466-1.417v-2.83l-1.466-2.832c-1.463-1.417-1.463-4.247-1.463-5.667a59.448,59.448,0,0,1,1.463-7.079s0-4.247-2.93-5.66a10.75,10.75,0,0,0-4.392-4.247v-4.249s-2.931-1.419-2.931-2.83-1.466-4.249-1.466-4.249-1.468,0,0-2.83v-7.079c-1.468-1.417-2.93-4.247-2.93-5.667v-4.249a4.319,4.319,0,0,0-1.466-2.83c-1.462-1.417-5.859-8.5-5.859-8.5s-1.463,0-1.463-2.83a13.677,13.677,0,0,1-1.468-5.66v-4.249l-4.395-4.249,1.466-5.66v-5.667s0-7.079,1.463-7.079,4.4-4.249,4.4-4.249,2.93-4.249,1.467-5.66a59.364,59.364,0,0,0-1.467-7.079s2.93-4.247,1.467-4.247c0-1.419-2.93-7.079-2.93-7.079l-4.4,4.249-2.929-1.419,1.463-5.66s-2.93-2.837-2.93-4.249,2.93-4.247,2.93-4.247,2.929,5.66,2.929,7.078,2.934,2.832,2.934,2.832c1.463-1.413,1.463-4.249,2.93-4.249a3.1,3.1,0,0,1,2.929,2.837l5.859-1.419s-1.468-1.417,2.929-1.417c4.4,1.417,4.4,0,4.4-2.83,0-1.413-4.4-7.079-1.466-7.079,4.4,0,5.859,1.419,5.859,1.419v2.83c0,2.83,4.4,5.66,4.4,2.83,1.467-2.83,1.467-1.413,1.467-4.249s-2.934-2.83-4.4-5.66c0-.534-.207-.468-.464-.4-.43.11-1,.22-1-2.429,1.466-4.249,1.466-5.668,2.929-5.668l2.934-1.411c2.931,0,4.392-2.837,2.931-7.086,0-2.83-1.468-4.241,0-5.66,2.929-1.419,1.461-2.83,4.391-1.419s1.466,1.419,4.4,1.419c1.463-1.419,1.463-8.5,1.463-8.5-1.463,1.417-4.393-1.413-4.393-1.413-1.466,0-1.466-2.83,0-4.249,0,0,0-2.83,1.463-2.83,2.93,0,2.93,1.413,5.864,0l2.929-2.837c1.463-1.411,2.93-1.411,4.393-4.241,0-1.419,1.466-9.916,1.466-9.916-1.466-1.413,1.462,0,4.4-1.413,1.463-1.417,2.929-9.916,4.392-11.327,1.468-2.83,5.859-8.5,5.859-9.909s4.4-11.327,4.4-11.327l5.859-9.917a13.715,13.715,0,0,0-1.463-5.66c0-1.417-1.467-7.078,0-8.5,1.463,0,2.931-4.249,2.931-4.249v-5.66l7.325-4.247c8.788-1.413,2.929-5.662,13.181-1.413,0,0,5.862-1.419,4.4-2.837l-5.858-5.66,2.929-4.249s4.4-2.83,0-4.249c-2.929-1.411-5.859-2.83-5.859-4.247a59.276,59.276,0,0,1-1.468-7.079c0-1.413-1.461-5.66-1.461-5.66V511.32c0-1.419-1.468-5.667-2.93-7.079s-7.325-5.667-7.325-5.667l-10.256-4.249-2.929,2.838-7.327-7.081-5.859-1.417h-5.858l-5.63-11.66,4.294,9.1a17.813,17.813,0,0,0-4.354,2.838,4.355,4.355,0,0,0-1.452,2.838s4.353,4.26,4.353,5.684v5.684l-2.9,2.837-2.9-4.26v-2.838c0-1.422-1.453-2.846-1.453-4.26h-1.448c-1.453,0-1.453-1.424-2.9-2.846s0,0-1.453,0a5.105,5.105,0,0,0-2.9,1.422c0,1.424,1.453,4.262,2.9,5.684,0,1.414-1.45,2.838,0,4.262v2.837c0,1.424-4.351-1.424-4.351-1.424v-7.1c-1.453-1.424-2.9-2.838-4.354-2.838h-1.453c0-1.424,0-1.424-1.45-2.846-1.452,0,0,1.422,0,2.846h-2.9a5.1,5.1,0,0,0-2.9-1.424h-2.9v2.838l-5.8,2.846-4.354,1.414a4.369,4.369,0,0,1-1.453,2.848c-2.9,1.413-2.9,1.413-4.351,1.413s-2.9,2.848-2.9,2.848c0,1.414,1.448,1.414,2.9,1.414,1.45,1.422,0,5.684,0,5.684s-1.453,2.836-1.453,4.26c-1.448,0-2.9,2.838-5.8,1.424-1.45-1.424-2.9,2.836-2.9,2.836V527.3c-1.45,0-2.9-2.838-2.9-4.262l-5.8-1.422v4.26l1.451,4.26-4.354,1.424s-2.9,1.414-2.9,2.838l-1.453,1.422s1.453,2.838,2.9,2.838,1.452,4.26,1.452,4.26,0,2.838-1.452,2.838a4.549,4.549,0,0,0-2.9-1.414,4.907,4.907,0,0,0-1.448,2.837c-1.453,0-1.453,4.262-1.453,4.262a60.492,60.492,0,0,1,1.453,7.1,4.936,4.936,0,0,1-1.453,2.846l-2.9,4.26-2.9,4.262a4.943,4.943,0,0,1-1.45,2.836l-2.9,4.26,2.9,2.838,1.45,2.838,2.9,4.26-1.45,2.848,2.9,2.837h4.351l5.8,4.26,2.9,5.684v4.26h-1.451a31.658,31.658,0,0,1-1.453,5.676l-4.351,5.684s-1.453,4.26-2.9,4.26a4.9,4.9,0,0,1-1.453,2.838l-2.9,7.107v8.513l-2.9,5.684a14.447,14.447,0,0,0-1.45,5.684,1.411,1.411,0,0,1-1.453,1.414s-2.9,7.108-4.354,7.108c0,1.414-2.9,1.414-2.9,2.837a4.361,4.361,0,0,0-1.45,2.838l-4.354,5.684a5.1,5.1,0,0,0-2.9,1.422l-4.351,1.416s-4.354,4.26-4.354,5.683c-1.453,1.424-4.354,4.262-4.354,4.262v4.26s-1.45,2.838-1.45,4.26a5.1,5.1,0,0,0-2.9-1.422v1.422h-4.354l1.451-2.846c0-1.414-2.9,0-2.9,0l-2.9,2.846-1.453,1.414v4.262l-2.9,7.107c0,1.414-1.45,4.262-1.45,5.675a5.1,5.1,0,0,0-2.9,1.424c-1.45,1.424-2.9,2.838-2.9,2.838-1.45,1.422-2.9,1.422-2.9,0l-4.351,4.26-4.353,4.26a56.77,56.77,0,0,0,4.353,5.684c0,1.424-2.9,1.424-4.353,1.424v2.838s-2.9,5.684-4.351,8.521c0,1.414,0,1.414-1.453,2.838a2.037,2.037,0,0,1-2.9,0l-2.9,5.684a5.108,5.108,0,0,1-2.9,1.414l-1.453,4.26v4.26l-2.9-1.414,1.453,4.262-1.453,5.675c0,1.424-4.351,4.26-4.351,4.26l-2.9,4.26h-5.806l-2.9,8.523,2.9,2.846,1.453,2.838,4.353,4.26-1.451,8.523-1.453,9.935-1.448,2.848c-1.453,0,1.448,5.675,1.448,5.675s0,7.107,1.453,8.523c0,0,2.9,2.846,2.9,4.26l1.453,4.26c0,1.424-4.354,0-4.354,0l-4.354-2.836c-1.45,0-2.9,2.836-2.9,2.836v5.684c-1.45,0-2.9,2.838-2.9,2.838l2.9,2.846-1.45,4.252v5.684h2.9l2.9,5.683c0,1.416-2.9,7.1-2.9,7.1s5.8,12.783,5.8,14.207l-2.9,4.26,4.353,5.676v2.846s4.351,2.837,4.351,4.26c1.453,1.414-1.448,4.252-1.448,4.252v4.26l5.8,1.424h4.351a33.42,33.42,0,0,1,5.8,1.422v5.676l1.453,2.846,4.354-4.26,7.252-4.262s1.453,4.262,2.9,4.262l1.453,4.26s4.351,4.26,5.8,5.675c1.452,2.848,2.9,2.848,2.9,2.848,2.466,6.435,3.07,5.121,4.185,3.807.853-1.006,2-2.011,4.521.453l2.9,2.837s2.9,2.838,2.9,5.684c0,1.414-2.9,1.414-2.9,1.414l2.9,5.684a8.986,8.986,0,0,0,5.757.681c2.371-.34,4.113-.68,5.854,3.581l2.9,2.836c0,1.424,2.9,1.424,2.9,1.424l7.252,5.675,4.354,4.26-1.453,2.848s-7.252,4.26-8.706,4.26a3.084,3.084,0,0,0-2.9,2.838,5.394,5.394,0,0,0-4.351,1.422c-2.9,1.414-1.453,1.414-2.9,2.838s0,4.26,0,4.26h2.9c1.448,0,2.9-2.837,2.9-2.837,1.45-1.424,2.9,0,2.9,1.414s0,1.422-1.453,2.846c0,1.414-14.51,8.521-14.51,14.2,2.9,1.422,13.06,7.107,13.06,11.359,0,0-4.354,4.26-5.8,4.26s-2.906-2.837-2.906-4.26c-1.448-1.414-2.9,1.424-2.9,1.424l1.453,4.26,2.9,1.424s-1.453,2.836-1.453,4.26l-2.9,5.675c-4.351,2.846-1.45,2.846-10.155,4.26-1.452,0,0,2.848,0,4.262,1.45,2.846-4.354,2.846-4.354,2.846l-1.448,8.522-1.453,1.414c-1.45,0,0-4.262,0-4.262l-1.45-4.26L-5929,1047.1v-8.523l-1.451-4.26s-2.9-5.684-4.351-2.846c0,4.26,2.9,17.043,1.448,17.043,0,2.846,0,4.26-1.448,4.26v5.684s-11.606,7.1-11.606,8.523c-1.453,0-4.356,4.26-4.356,4.26s-10.157,4.26-13.06,5.675c-1.448,0-1.448,2.848-1.448,2.848l5.8,1.414,1.448,8.521-2.9,2.848-1.45,2.837v2.838a17.722,17.722,0,0,1,2.9,4.26c1.448,1.424-1.453,2.846-1.453,2.846l2.9,8.522v8.523c1.453,1.414-2.9,8.513-2.9,8.513v2.846s2.9,12.783,2.9,14.2-2.9,5.684-2.9,5.684l4.354,12.781s-5.8,7.1-5.8,8.522,1.45,8.523,1.45,8.523,1.453,7.1,2.9,11.359c2.9,4.26-2.9,8.522-2.9,8.522s-2.9,9.945-2.9,11.359v12.783c1.453,0-4.351,4.26-4.351,4.26l-4.353,28.4s-5.8,9.945-7.257,9.945c0,1.424-4.351,4.262-7.252,4.262-4.354-1.424-2.9-1.424-2.9-1.424l-7.257-2.838-2.9,2.838-7.256-1.414s-5.8,1.414-7.252,0c-2.906-1.424-5.807,1.414-5.807,1.414l-4.351,1.424s-5.8-1.424-8.706,0c-1.453,1.422-1.453,2.837,2.9,5.684,4.351,1.414,1.45,2.837,1.45,2.837s1.453,1.424,2.9,2.838c1.453,0,1.453,4.26,1.453,5.684a1.412,1.412,0,0,1-1.453,1.414h-4.351c-2.9,0-1.451-1.414-1.451-2.838-1.45-1.422-2.9-1.422-2.9-2.837-1.45,0-4.354-2.838-5.8-4.262s-1.453,1.424-5.8,4.262-2.9,5.675-2.9,5.675v7.108s0,1.414-1.453,5.675c0,2.846,1.453,4.26,2.9,4.26,1.453,1.424,1.453,5.684,2.9,7.108,0,1.414,2.9,5.675,2.9,5.675s5.806,2.846,7.256,4.26-1.45,4.262-1.45,4.262c-1.451,0-2.9-2.838-2.9-2.838h-5.8c-1.45,0,0,2.838,0,2.838l-5.8,1.422-4.351,1.424h-4.354s-2.9-1.424-2.9-2.846-4.354-1.414-4.354-1.414a33.379,33.379,0,0,0-5.8-1.424l-2.9,4.26v2.838l-4.351,2.846-5.807,2.838a36.308,36.308,0,0,1-5.8.632A4.624,4.624,0,0,1-6094.409,1341.087Zm-69.645-178.95v0Zm-20.317-92.317h4.354l.737-.359-2.224-1.087v1.421h-2.867Zm14.5-28.432-4.359,8.518-1.453,9.94-1.459,8.527-.1.093.125-.061,1.45-8.521,1.453-9.945,4.354-8.522V1032.9l-.015-.025Zm-26.161,18.458v.427l.057-.388v-8.509l-.057-.047Zm10.185.014-.013-.014-1.412-1.182Zm11.618-46.877-4.366,1.421,2.913,8.519,2.038,3.485-2.019-3.458-2.9-8.513,4.354-1.422,4.354-4.262,1.45-7.1-.015-.015-1.45,7.079-2.906,2.843h-1.453Zm5.812-21.309-2.906,2.843v4.262l.014.014v-4.246l2.9-2.838c1.452-1.422,4.354,0,4.354,0l4.35-1.422,4.356-4.262s5.111-3.753,5.739-5.383c-.689,1.655-5.734,5.356-5.734,5.356l-2.906,2.843h-5.812l-1.453,1.421h-1.452Zm18.888-31.239,0,.008,2.736-4.018Zm418.287-21.53Zm-422.646-38.124-7.264,7.105a.194.194,0,0,1,.008.023l7.246-7.092,7.255-1.422s8.587,0,7.285-1.386c-.236,1.352-7.259,1.352-7.259,1.352h-5.819Zm14.537-3.173c.039-.275.111-.645.206-1.081h-.206Zm1.453-8.188v2.208c.375-1.374.746-2.689,1.015-3.628h-1.015Zm-23.254-41.187h0c-.012-.36-.137-4.149-1.452-44h0C-6162.595,804.579-6162.473,808.271-6161.154,848.233Zm-10.171-72.436c-2.906,2.841-2.906,5.684-1.453,8.526a16.081,16.081,0,0,0,1.385,3.29,15.854,15.854,0,0,1-1.366-3.256c-1.453-2.837-1.453-5.684,1.448-8.521,1.208-1.184.407-3.346.1-4.04C-6170.894,772.525-6170.136,774.64-6171.325,775.8Zm1.453-18.458-2.906,4.262,1.453,9.94.013.027c-.01-.068-.125-.857-1.447-9.94l2.9-4.26v-8.521l-.015-.029Zm2.906-62.5-2.906,14.2-1.453,9.948s-4.359,5.675-4.359,8.518v9.94l1.463,2.86-1.444-2.825V727.55c0-2.846,4.354-8.521,4.354-8.521l1.453-9.945,2.9-14.207,18.864-24.142.876-.036h-.862Zm47.007-25.249,6.688-.272.021-.041Zm21.258-163.607.341-.037h-.3Zm10.6-1.156,2.4-.261.031-.03A12.512,12.512,0,0,0-6088.1,504.829Zm282.436-41.447,8.567,4.194-.072-.149-8.618-4.165Zm-242.132-92.358v1.1c.25-.5.722-1.459,1.2-2.512h-1.2Zm1.453-2.833v.869c.354-.8.693-1.607.931-2.289h-.931Zm211.658.037,5.287-1.3V366.9l-5.317,1.288Zm-184.273-15.62h7.257l.021-.04h-7.05l-14.537-7.107-.059.115Zm166.426-34.816-.306-.444a4.74,4.74,0,0,1-1.328,1.57C-5853.507,318.938-5852.912,318.316-5852.531,317.794Zm-111.29-3.533.236-.039c-.124,0-.381-.013-.739-.047C-5964,314.23-5963.821,314.26-5963.821,314.26Zm-3.345-.631a13.538,13.538,0,0,1-2.155-.827,12.6,12.6,0,0,1-1.547-.064C-5969.684,313.076-5968.351,313.382-5967.166,313.63Zm-6.812-2.207a4.065,4.065,0,0,0,1.236.693,5.122,5.122,0,0,1-.938-.735c-1.453-1.421-8.718-4.264-10.171-4.264-.038.018-.079.037-.123.054C-5982.218,307.345-5975.38,310.045-5973.978,311.422Zm-11.215-3.963c-5.4.811-21.912-.343-21.912-.343l-.044.059C-6005.224,307.306-5989.941,308.3-5985.192,307.46Zm95.077-9.779-.808-.157a3.465,3.465,0,0,1-.706.9C-5890.992,298.657-5890.437,298.113-5890.116,297.681Zm-31.573-58.206,5.859,1.419,10.254,11.328,8.793,9.909s13.184,9.908,16.115,11.327,19.043,4.249,20.506,5.66l.622-.8c-3.414-1.5-17.017-3.982-19.675-5.283-2.906-1.421-15.983-11.359-15.983-11.359l-8.718-9.95-10.176-11.361-5.814-1.421v-1.421h-5.787A7.824,7.824,0,0,1-5921.688,239.475Zm83.5,26.9,14.647,2.83,5.859,4.249a3.855,3.855,0,0,0,1.527-.424h-.573l-5.812-4.262-14.529-2.843-5.812-4.254-1,.582Zm23.941,5.657a1.89,1.89,0,0,0,1.35-.422h-.918Zm-135.067-10.322,1.824-1.486-.033.025a5.1,5.1,0,0,0-2.906,1.422h-2.906l-.077.039Zm8.054-4.792a36.629,36.629,0,0,1,6.384-.459v-.426C-5937.128,256.064-5939.736,256.2-5941.257,256.922Zm6.384-1.188v-.114l-5.381-1.051-.118.092Zm218.275-64.4v4.247c0,2.83,1.468,7.079,2.931,8.5,0,1.223,5.506,4.58,6.971,5.451l.427-.417s-7.265-4.254-7.265-5.675c-1.453-1.421-2.906-5.684-2.906-8.518V190.66a25.086,25.086,0,0,1,.31-4.377A21.885,21.885,0,0,0-5716.6,191.337Zm1.486-7.65q.06-.07.125-.133a14.715,14.715,0,0,1,.27-2.545A18.589,18.589,0,0,0-5715.112,183.686Zm-85.622-2.966-2.906,1.413a2.743,2.743,0,0,0-.685.63l2.761-1.336,4.4-2.83v-.2Zm44.582-36.1c2.93,4.248,2.93,7.078,8.793,8.5l17.577,5.66,10.255,1.417,2.929,2.832c0,2.83,0,5.667,1.468,7.078a27.072,27.072,0,0,0,1.412,6.927c.111-.359.184-.57.184-.57a28.367,28.367,0,0,1-1.453-7.107c-1.453-1.411-1.453-4.254-1.453-7.1l-2.906-2.843h-1.453l-8.725-1.422-17.437-5.675c-5.811-1.421-5.811-4.264-8.717-8.527-2.913-1.421-8.725,0-13.084,0l-5.812,5.684-.107.313,5.345-5.169c2.931,0,6.512-.628,9.441-.628A8.852,8.852,0,0,1-5756.152,144.616Zm-38.77,16.217c-2.428.34-3.78,1-4.431,1.912a8.851,8.851,0,0,1,3.647-1.141l4.4-2.83h13.184l.27-.783h-12.71Zm-163.095,1102.143,1.453-11.367-2.9-4.262c0-1.414-1.453-4.26-1.453-8.521,1.453-4.26,1.453-5.676,2.9-8.513,0-2.846,2.9-4.26,2.9-7.108,0-4.26,0-5.675,1.452-8.521,0-2.838,1.45-5.676,2.9-5.676,0-1.422,2.9-7.107,2.9-7.107l1.453-7.1s2.9-7.1,2.9-8.523-1.453-7.1-1.453-8.521c1.453-1.414,4.354-4.262,4.354-4.262h4.351s0,4.262-1.45,5.684a5.1,5.1,0,0,0-2.9,1.414c0,1.424,2.9,4.262,2.9,4.262v5.684l-2.9,5.683-2.9,7.1v7.1l-1.453,4.262-1.448,4.26-2.906,8.523,1.453,7.1-4.354,8.521v15.629s0,4.26-1.45,4.26Zm63.845-61.075c-5.8,0,0-1.414,1.45-4.26s2.9-5.676,2.9-5.676l-1.448-5.684-2.9-4.26-4.354-5.675-1.448-2.848,4.35-1.414a60.509,60.509,0,0,1-1.448-7.107c0-1.414-1.453,0-2.9-2.838-1.453-1.422-1.453-5.684-1.453-5.684a31.668,31.668,0,0,1,1.453-5.675,104.227,104.227,0,0,1,7.252-8.523c4.354-4.26,2.9-4.26,2.9-7.107-1.448-1.414,1.453-2.838,1.453-2.838l4.351-4.26,2.9-7.1,4.354,4.26c1.453,0,1.453-1.422,1.453-2.837s2.9-1.424,2.9-1.424a33.46,33.46,0,0,0,5.8-1.424l1.448-2.837s5.8-1.424,8.708,0c1.45,1.422-1.451,1.422-1.451,2.837v2.848c0,1.414-1.453,2.837-5.8,2.837-4.354,1.414-1.453,4.262-1.453,4.262v5.675c-1.448,1.424-4.351,4.26-7.252,4.26-1.451,1.424-1.451,4.26-1.451,4.26,0,1.424,1.451,4.262,1.451,7.108,0,1.414,0,1.414,1.45,4.26,0,1.414,2.9,1.414,4.354,1.414,0,1.424,2.9,4.262,1.448,5.684s-2.9,2.838-4.351,2.838c0,1.422-2.9,5.684-2.9,5.684a6.737,6.737,0,0,1,0,5.684c0,2.837-2.9,1.414-4.354,2.837l-4.354,4.262c-1.45,0-2.9,5.675-2.9,8.521v5.676c0,1.422,0,0-2.9,4.26-1.708,1.672-2.522,2.251-3.145,2.251C-5891.025,1204.151-5891.528,1202.765-5894.171,1201.9Zm-286-89.395-1.134.557Zm.013-.007-.013.007Zm.032-.016-.032.016Zm0,0h0Zm.06-.03-.06.03Zm0,0h0Zm.005,0-.005,0Zm.021-.011-.021.011Zm.008,0-.008,0Zm305.22-152.3v-5.667h4.392c1.468,0,2.934-1.411,4.4,0s0,4.249,0,4.249c-1.463,1.417-2.929,2.836-4.4,2.836A5.487,5.487,0,0,1-5874.809,960.14Zm33.69-5.667c0-1.411-2.929-2.83,1.466-4.241l4.4-2.838h2.929c1.462-1.411,4.391,0,4.391,0,0,1.419,1.468,1.419-1.462,2.838l-2.929,1.411c-1.466,0,0,1.419-1.466,1.419-2.021.973-4.74,2.625-6.232,2.625C-5840.7,955.688-5841.119,955.354-5841.119,954.474Zm-8.788,0c-1.462-1.411-2.93-4.241-4.393-4.241s0-1.419-2.932-1.419c-4.394,0,0,1.419-5.859,0-4.393-2.83-4.393-2.83-5.859-2.83,0,0-2.931,0-4.4-1.419,0,0,0-2.83,1.466-4.249s1.463-1.411,2.931-1.411c1.466-1.419,1.466-5.667,1.466-5.667s5.859-2.83,5.859-1.413-1.466,5.66,1.463,4.243c1.466,0,1.466-2.83,1.466-2.83v-2.83a20.317,20.317,0,0,1-2.929-4.249s-1.466-4.249,1.463-4.249h5.862c1.463,1.419,1.463,4.249,1.463,4.249,1.468,1.419,5.859,2.83,5.859,1.419h1.467c1.463,1.411,5.857,1.411,4.392,2.83,0,0-2.929,2.83-2.929,4.247-1.463,0-5.859-1.417-1.463,2.83,2.929,4.249,4.392,2.83,4.392,4.249a3.093,3.093,0,0,1-2.929,2.83c-1.463,0-2.93,0-2.93-1.411-1.463-1.419-1.463-2.838-2.929-2.838-2.93,0-1.462,4.249,0,4.249l8.788,2.83s-2.929,4.249-2.929,5.668c-1.169,0-2.342,1.809-4.262,1.809A3.634,3.634,0,0,1-5849.907,954.474Zm112.8-4.241v-2.838c1.466,0,4.4-1.411,4.4-1.411l2.93,2.83a20.941,20.941,0,0,1-4.392,2.83A5.182,5.182,0,0,1-5737.107,950.233Zm-19.045,0v-2.838a5.186,5.186,0,0,1,2.93-1.411s1.466-1.419,1.466,0c1.467,0,2.93,1.411,1.467,2.83a4.617,4.617,0,0,1-2.934,1.419,3.216,3.216,0,0,1-2.014,1.058C-5755.786,951.291-5756.152,950.938-5756.152,950.233Zm26.37-1.419Zm.115-.056-.115.056Zm.015-.007-.015.007Zm0,0h0Zm.037-.018-.037.018Zm.021-.01-.021.01Zm.182-.088-.182.088Zm0,0h0Zm.417-.2-.417.2Zm0,0,0,0Zm.511-.248-.511.248Zm0,0Zm-99.454-7.868a3.1,3.1,0,0,1,2.934-2.83c0,1.419,1.463,1.419,1.463,2.83-1.463,1.419-1.463,2.838-2.929,2.838S-5827.935,940.315-5827.935,940.315Zm35.163-5.66a1.913,1.913,0,0,1,0-2.83l1.463-1.417a4.88,4.88,0,0,0-1.463-2.83c1.463-1.419,4.392,0,4.392,0,0,1.411,0,2.83,1.467,1.411s1.463-2.83,2.929-4.241h1.462c1.466,1.411,4.4,1.411,4.4,1.411s4.4-1.411,4.4,0c0,0,2.929,4.249,1.463,4.249s-5.859-1.419-7.322-1.419-1.467,2.837-2.934,2.837c0,1.413-2.929,4.243-4.392,4.243a6.539,6.539,0,0,0-4.4,1.417S-5792.771,937.485-5792.771,934.655Zm-35.163,1.413c-1.462-2.83,0-4.243,0-4.243,1.468,0,2.934-1.417,2.934,0,0,0,4.394-1.417,1.463,1.413a35.029,35.029,0,0,0-4.312,3.386C-5827.935,936.624-5827.935,936.448-5827.935,936.068Zm24.908-5.66s-1.468-2.83,1.462-2.83h2.929c1.467,1.411,2.93,0,2.93,1.411-1.463,1.419,0,2.837-1.463,2.837A15.537,15.537,0,0,1-5803.027,930.408Zm-13.185-15.576c0-1.413,1.463,0,1.463-1.413s-2.93-1.419-1.463-4.249c1.463-1.417,1.463-5.667,2.929-1.417,2.929,2.83,1.463,2.83,2.929,5.667,0,2.6-2.746,5.2-4.538,5.2C-5816.027,918.619-5816.78,917.576-5816.211,914.832Zm4.392-16.988Zm-286.843-498.413c0,.019,0,.037,0,.056C-6098.823,399.451-6098.837,399.431-6098.663,399.431Zm207.824-252.8-7.266-2.843a8.7,8.7,0,0,1,2.906-5.676c2.906-1.421,5.812-2.841,5.812-4.262a4.254,4.254,0,0,1,0-5.686c2.906,0,2.906-2.833,7.266-2.833,2.906,1.421,4.359,1.421,4.359,4.254-1.453,2.843,0,2.843-1.453,4.265s-4.359,1.421-5.812,5.684a16.916,16.916,0,0,1-1.453,7.1c0,.474-.484.631-1.13.631A13.4,13.4,0,0,1-5890.839,146.63Zm-26.16-7.1c0-1.422-4.359-5.684-4.359-5.684,0-1.422-2.906-4.265,1.451-5.686,2.908-2.833,13.078-7.1,14.537-7.1,0,0,4.359-7.1,5.813-8.518h10.171a6.445,6.445,0,0,0,4.359,1.421c1.16.565,2.788.223,4.136-.118,2.023-.511,3.421-1.023,1.676,1.531-4.359,2.841-5.812,4.264-7.265,4.264-1.453,1.421-8.718,7.105-8.718,9.938-1.453,2.843,0,2.843-1.453,4.265-2.906,1.421-11.631,5.684-13.084,7.105-1.451,0-3.264.352-4.715.352S-5917,140.952-5917,139.533Z" transform="translate(6521.266 1390.115)" fill="url(#linear-gradient)"/>
    <rect id="Background" width="1366" height="1257" transform="translate(-6 1485)" fill="none"/>
    <circle id="Ellipse_20" data-name="Ellipse 20" cx="9.5" cy="9.5" r="9.5" transform="translate(583 2356)" fill="#417da5"/>
    <ellipse id="Ellipse_21" data-name="Ellipse 21" cx="10" cy="9.5" rx="10" ry="9.5" transform="translate(577 2377)" fill="#417da5"/>
    <circle id="Ellipse_22" data-name="Ellipse 22" cx="9.5" cy="9.5" r="9.5" transform="translate(309 2377)" fill="#417da5"/>
    <ellipse id="Ellipse_23" data-name="Ellipse 23" cx="9.5" cy="10" rx="9.5" ry="10" transform="translate(562 2361)" fill="#417da5"/>
    <circle id="Ellipse_24" data-name="Ellipse 24" cx="9.5" cy="9.5" r="9.5" transform="translate(555 2381)" fill="#417da5"/>
  </g>
</svg>
