<svg xmlns="http://www.w3.org/2000/svg" width="709" height="432.2" viewBox="0 0 709 432.2"><defs><style>.a{fill:#bdd2df;}.b{fill:rgba(25,95,140,0.36);}.c{fill:#d1e0e9;}.d{fill:#195f8c;}.e,.g,.j{fill:none;}.e,.g{stroke:#bdd2df;stroke-width:3px;}.f{fill:#91b3c9;}.g{stroke-linecap:square;stroke-linejoin:round;}.h{fill:rgba(25,95,140,0.42);}.i{stroke:none;}</style></defs><g transform="translate(-482 -9272.799)"><path class="a" d="M-1322,325h-627a40.741,40.741,0,0,1-15.959-3.222,40.864,40.864,0,0,1-13.032-8.787,40.865,40.865,0,0,1-8.786-13.032A40.742,40.742,0,0,1-1990,284V57a40.742,40.742,0,0,1,3.222-15.959,40.866,40.866,0,0,1,8.786-13.032,40.864,40.864,0,0,1,13.032-8.787A40.741,40.741,0,0,1-1949,16h178v3h-178a37.753,37.753,0,0,0-14.79,2.985,37.865,37.865,0,0,0-12.08,8.145,37.855,37.855,0,0,0-8.145,12.079A37.759,37.759,0,0,0-1987,57V284a37.75,37.75,0,0,0,2.985,14.79,37.865,37.865,0,0,0,8.145,12.08,37.863,37.863,0,0,0,12.08,8.145A37.751,37.751,0,0,0-1949,322h627a37.755,37.755,0,0,0,14.791-2.985,37.872,37.872,0,0,0,12.08-8.145,37.9,37.9,0,0,0,8.145-12.08A37.751,37.751,0,0,0-1284,284V57a37.76,37.76,0,0,0-2.984-14.791,37.887,37.887,0,0,0-8.145-12.079,37.869,37.869,0,0,0-12.08-8.145A37.756,37.756,0,0,0-1322,19h-178V16h178a40.742,40.742,0,0,1,15.959,3.222,40.863,40.863,0,0,1,13.032,8.787,40.866,40.866,0,0,1,8.787,13.032A40.744,40.744,0,0,1-1281,57V284a40.744,40.744,0,0,1-3.222,15.959,40.866,40.866,0,0,1-8.787,13.032,40.862,40.862,0,0,1-13.032,8.787A40.742,40.742,0,0,1-1322,325Z" transform="translate(2472 9264)"/><path class="b" d="M7.66,15.7l-.14-3.08L14.86,5h2.92l-6.1,6.48-1.44,1.58ZM5.34,19V5h2.6V19Zm9.76,0L9.74,12.62l1.72-1.9L18.14,19Zm10.64.2a6.117,6.117,0,0,1-4.51-1.62A6.313,6.313,0,0,1,19.6,12.9V5h2.6v7.8a4.453,4.453,0,0,0,.93,3.14,3.452,3.452,0,0,0,2.63.98,3.419,3.419,0,0,0,2.62-.98,4.486,4.486,0,0,0,.92-3.14V5h2.56v7.9a6.313,6.313,0,0,1-1.63,4.68A6.089,6.089,0,0,1,25.74,19.2ZM35.5,19V5h6.56a6.327,6.327,0,0,1,3.84.99,3.146,3.146,0,0,1,1.32,2.65,3.4,3.4,0,0,1-.52,1.91,3.473,3.473,0,0,1-1.39,1.22,4.207,4.207,0,0,1-1.89.43l.36-.72a5.04,5.04,0,0,1,2.12.43,3.51,3.51,0,0,1,1.49,1.25,3.582,3.582,0,0,1,.55,2.04A3.26,3.26,0,0,1,46.56,18a6.964,6.964,0,0,1-4.1,1Zm2.6-2.04h4.2a4.3,4.3,0,0,0,2.24-.48,1.672,1.672,0,0,0,.78-1.54,1.677,1.677,0,0,0-.78-1.53,4.231,4.231,0,0,0-2.24-.49H37.9V10.9h3.88a3.8,3.8,0,0,0,2.09-.48,1.608,1.608,0,0,0,.73-1.44,1.628,1.628,0,0,0-.73-1.46,3.8,3.8,0,0,0-2.09-.48H38.1Zm15.02-6.14h6.96v2.14H53.12Zm.2,6h7.9V19H50.72V5H60.94V7.18H53.32ZM64.12,19V5h5.76a7.717,7.717,0,0,1,3.19.6,4.626,4.626,0,0,1,2.05,1.72,4.812,4.812,0,0,1,.72,2.66,4.762,4.762,0,0,1-.72,2.65,4.587,4.587,0,0,1-2.05,1.7,7.831,7.831,0,0,1-3.19.59H65.56l1.16-1.18V19Zm9.16,0-3.54-5.08h2.78L76.08,19Zm-6.56-4.98-1.16-1.24h4.2a3.91,3.91,0,0,0,2.59-.74,2.558,2.558,0,0,0,.87-2.06,2.522,2.522,0,0,0-.87-2.06,3.987,3.987,0,0,0-2.59-.72h-4.2l1.16-1.28ZM78.74,19V5h2.14l8.78,10.78H88.6V5h2.58V19H89.04L80.26,8.22h1.06V19Zm18.6-8.18h6.96v2.14H97.34Zm.2,6h7.9V19H94.94V5h10.22V7.18H97.54ZM111.18,19V7.2h-4.64V5h11.88V7.2h-4.64V19Zm11.6-8.18h6.96v2.14h-6.96Zm.2,6h7.9V19h-10.5V5H130.6V7.18h-7.62Zm15.14,2.38a10.44,10.44,0,0,1-3.14-.47,6.854,6.854,0,0,1-2.38-1.21l.9-2.02a7.284,7.284,0,0,0,2.08,1.1,7.542,7.542,0,0,0,2.54.44,5.462,5.462,0,0,0,1.78-.24,2.127,2.127,0,0,0,1-.65,1.472,1.472,0,0,0,.32-.93,1.284,1.284,0,0,0-.46-1.03,3.4,3.4,0,0,0-1.19-.62q-.73-.23-1.62-.43t-1.78-.47a7.426,7.426,0,0,1-1.62-.7,3.506,3.506,0,0,1-1.19-1.15,3.362,3.362,0,0,1-.46-1.84,3.79,3.79,0,0,1,.61-2.09,4.2,4.2,0,0,1,1.86-1.52,7.661,7.661,0,0,1,3.17-.57,9.967,9.967,0,0,1,2.5.32,7.233,7.233,0,0,1,2.16.92l-.82,2.02a7.705,7.705,0,0,0-1.94-.83,7.361,7.361,0,0,0-1.92-.27,4.918,4.918,0,0,0-1.75.26,2.14,2.14,0,0,0-.98.68,1.575,1.575,0,0,0-.31.96,1.3,1.3,0,0,0,.45,1.03,3.178,3.178,0,0,0,1.18.61q.73.22,1.63.43t1.79.47a7.39,7.39,0,0,1,1.62.68,3.332,3.332,0,0,1,1.18,1.14,3.379,3.379,0,0,1,.45,1.82,3.757,3.757,0,0,1-.61,2.07,4.2,4.2,0,0,1-1.87,1.52A7.733,7.733,0,0,1,138.12,19.2Zm20.24,0a8.162,8.162,0,0,1-2.97-.53,7.084,7.084,0,0,1-2.38-1.5,6.844,6.844,0,0,1-1.57-2.29,7.3,7.3,0,0,1-.56-2.88,7.3,7.3,0,0,1,.56-2.88,6.775,6.775,0,0,1,1.58-2.29,7.218,7.218,0,0,1,2.38-1.5,8.647,8.647,0,0,1,6.12.06,6.218,6.218,0,0,1,2.4,1.75l-1.68,1.58a4.92,4.92,0,0,0-3.74-1.64,5.419,5.419,0,0,0-2.01.36,4.617,4.617,0,0,0-2.62,2.58A5.159,5.159,0,0,0,153.5,12a5.159,5.159,0,0,0,.37,1.98,4.617,4.617,0,0,0,2.62,2.58,5.419,5.419,0,0,0,2.01.36,5.047,5.047,0,0,0,2.04-.41,4.967,4.967,0,0,0,1.7-1.25l1.68,1.6a6.4,6.4,0,0,1-2.4,1.74A8.042,8.042,0,0,1,158.36,19.2Zm8.06-.2V5h2.6V16.8h7.32V19Zm17.8.2a6.117,6.117,0,0,1-4.51-1.62,6.313,6.313,0,0,1-1.63-4.68V5h2.6v7.8a4.453,4.453,0,0,0,.93,3.14,4.006,4.006,0,0,0,5.25,0,4.486,4.486,0,0,0,.92-3.14V5h2.56v7.9a6.313,6.313,0,0,1-1.63,4.68A6.089,6.089,0,0,1,184.22,19.2Zm14.1,0a10.44,10.44,0,0,1-3.14-.47,6.854,6.854,0,0,1-2.38-1.21l.9-2.02a7.284,7.284,0,0,0,2.08,1.1,7.542,7.542,0,0,0,2.54.44,5.462,5.462,0,0,0,1.78-.24,2.127,2.127,0,0,0,1-.65,1.472,1.472,0,0,0,.32-.93,1.284,1.284,0,0,0-.46-1.03,3.4,3.4,0,0,0-1.19-.62q-.73-.23-1.62-.43t-1.78-.47a7.426,7.426,0,0,1-1.62-.7,3.506,3.506,0,0,1-1.19-1.15,3.362,3.362,0,0,1-.46-1.84,3.79,3.79,0,0,1,.61-2.09,4.2,4.2,0,0,1,1.86-1.52,7.661,7.661,0,0,1,3.17-.57,9.967,9.967,0,0,1,2.5.32,7.233,7.233,0,0,1,2.16.92l-.82,2.02a7.705,7.705,0,0,0-1.94-.83,7.361,7.361,0,0,0-1.92-.27,4.918,4.918,0,0,0-1.75.26,2.14,2.14,0,0,0-.98.68,1.575,1.575,0,0,0-.31.96,1.3,1.3,0,0,0,.45,1.03,3.178,3.178,0,0,0,1.18.61q.73.22,1.63.43t1.79.47a7.39,7.39,0,0,1,1.62.68,3.332,3.332,0,0,1,1.18,1.14,3.379,3.379,0,0,1,.45,1.82,3.757,3.757,0,0,1-.61,2.07,4.2,4.2,0,0,1-1.87,1.52A7.733,7.733,0,0,1,198.32,19.2ZM209.2,19V7.2h-4.64V5h11.88V7.2H211.8V19Zm11.6-8.18h6.96v2.14H220.8Zm.2,6h7.9V19H218.4V5h10.22V7.18H221ZM231.8,19V5h5.76a7.717,7.717,0,0,1,3.19.6,4.626,4.626,0,0,1,2.05,1.72,4.812,4.812,0,0,1,.72,2.66,4.762,4.762,0,0,1-.72,2.65,4.587,4.587,0,0,1-2.05,1.7,7.831,7.831,0,0,1-3.19.59h-4.32l1.16-1.18V19Zm9.16,0-3.54-5.08h2.78L243.76,19Zm-6.56-4.98-1.16-1.24h4.2a3.91,3.91,0,0,0,2.59-.74,2.558,2.558,0,0,0,.87-2.06,2.522,2.522,0,0,0-.87-2.06,3.987,3.987,0,0,0-2.59-.72h-4.2l1.16-1.28Z" transform="translate(713 9268)"/><rect class="c" width="681" height="104" rx="28" transform="translate(496 9301)"/><path class="d" d="M123.15,19.2a8.162,8.162,0,0,1-2.97-.53,7.083,7.083,0,0,1-2.38-1.5,6.844,6.844,0,0,1-1.57-2.29,7.3,7.3,0,0,1-.56-2.88,7.3,7.3,0,0,1,.56-2.88,6.775,6.775,0,0,1,1.58-2.29,7.218,7.218,0,0,1,2.38-1.5,8.647,8.647,0,0,1,6.12.06,6.218,6.218,0,0,1,2.4,1.75l-1.68,1.58a4.92,4.92,0,0,0-3.74-1.64,5.419,5.419,0,0,0-2.01.36,4.617,4.617,0,0,0-2.62,2.58,5.159,5.159,0,0,0-.37,1.98,5.159,5.159,0,0,0,.37,1.98,4.617,4.617,0,0,0,2.62,2.58,5.419,5.419,0,0,0,2.01.36,5.047,5.047,0,0,0,2.04-.41,4.967,4.967,0,0,0,1.7-1.25l1.68,1.6a6.4,6.4,0,0,1-2.4,1.74A8.042,8.042,0,0,1,123.15,19.2Zm12.22-.06a5.918,5.918,0,0,1-2.92-.71,5.306,5.306,0,0,1-2.02-1.95,5.4,5.4,0,0,1-.74-2.82,5.382,5.382,0,0,1,.74-2.83,5.255,5.255,0,0,1,2.02-1.93,5.986,5.986,0,0,1,2.92-.7,6.086,6.086,0,0,1,2.95.7,5.187,5.187,0,0,1,2.02,1.92,5.425,5.425,0,0,1,.73,2.84,5.453,5.453,0,0,1-.73,2.82,5.213,5.213,0,0,1-2.02,1.95A6.017,6.017,0,0,1,135.37,19.14Zm0-2.14a3.32,3.32,0,0,0,1.64-.4,2.829,2.829,0,0,0,1.13-1.16,3.694,3.694,0,0,0,.41-1.78,3.679,3.679,0,0,0-.41-1.79,2.845,2.845,0,0,0-1.13-1.15,3.5,3.5,0,0,0-3.25,0,2.93,2.93,0,0,0-1.13,1.15,3.608,3.608,0,0,0-.42,1.79,3.622,3.622,0,0,0,.42,1.78,2.914,2.914,0,0,0,1.13,1.16A3.223,3.223,0,0,0,135.37,17Zm14.16-8.8a5.093,5.093,0,0,1,2.29.5,3.664,3.664,0,0,1,1.59,1.53,5.362,5.362,0,0,1,.58,2.65V19h-2.5V13.2a2.963,2.963,0,0,0-.67-2.12,2.466,2.466,0,0,0-1.87-.7,3.284,3.284,0,0,0-1.56.36,2.467,2.467,0,0,0-1.05,1.07,3.852,3.852,0,0,0-.37,1.79V19h-2.5V8.32h2.38V11.2l-.42-.88a3.785,3.785,0,0,1,1.63-1.57A5.329,5.329,0,0,1,149.53,8.2Zm11.66,10.94a3.8,3.8,0,0,1-2.72-.91,3.535,3.535,0,0,1-.96-2.69V5.96h2.5v9.52a1.669,1.669,0,0,0,.39,1.18,1.414,1.414,0,0,0,1.09.42,2.2,2.2,0,0,0,1.4-.44l.7,1.78a2.937,2.937,0,0,1-1.08.54A4.852,4.852,0,0,1,161.19,19.14Zm-5.44-8.74v-2h7.12v2Zm9.9,8.6V8.32h2.38v2.94l-.28-.86a3.378,3.378,0,0,1,1.51-1.64,5.331,5.331,0,0,1,2.57-.56v2.38a1.759,1.759,0,0,0-.3-.05q-.14-.01-.28-.01a3.075,3.075,0,0,0-2.26.83,3.328,3.328,0,0,0-.84,2.47V19Zm13,.14a5.918,5.918,0,0,1-2.92-.71,5.306,5.306,0,0,1-2.02-1.95,5.4,5.4,0,0,1-.74-2.82,5.382,5.382,0,0,1,.74-2.83,5.255,5.255,0,0,1,2.02-1.93,5.986,5.986,0,0,1,2.92-.7,6.086,6.086,0,0,1,2.95.7,5.187,5.187,0,0,1,2.02,1.92,5.425,5.425,0,0,1,.73,2.84,5.453,5.453,0,0,1-.73,2.82,5.213,5.213,0,0,1-2.02,1.95A6.017,6.017,0,0,1,178.65,19.14Zm0-2.14a3.32,3.32,0,0,0,1.64-.4,2.829,2.829,0,0,0,1.13-1.16,3.694,3.694,0,0,0,.41-1.78,3.679,3.679,0,0,0-.41-1.79,2.845,2.845,0,0,0-1.13-1.15,3.5,3.5,0,0,0-3.25,0,2.93,2.93,0,0,0-1.13,1.15,3.608,3.608,0,0,0-.42,1.79,3.622,3.622,0,0,0,.42,1.78,2.914,2.914,0,0,0,1.13,1.16A3.223,3.223,0,0,0,178.65,17Zm8.1,2V4.16h2.5V19Zm17.22.14a4.762,4.762,0,0,1-2.37-.6,4.265,4.265,0,0,1-1.7-1.81,6.618,6.618,0,0,1-.63-3.07,6.789,6.789,0,0,1,.61-3.08,4.111,4.111,0,0,1,1.67-1.79,4.891,4.891,0,0,1,2.42-.59,5.6,5.6,0,0,1,2.79.68,5.052,5.052,0,0,1,1.92,1.9,5.625,5.625,0,0,1,.71,2.88,5.68,5.68,0,0,1-.71,2.89,5.031,5.031,0,0,1-1.92,1.91A5.6,5.6,0,0,1,203.97,19.14Zm-5.92,3.74V8.32h2.38v2.52l-.08,2.84.2,2.84v6.36ZM203.69,17a3.223,3.223,0,0,0,1.61-.4,2.914,2.914,0,0,0,1.13-1.16,3.622,3.622,0,0,0,.42-1.78,3.608,3.608,0,0,0-.42-1.79,2.93,2.93,0,0,0-1.13-1.15,3.223,3.223,0,0,0-1.61-.4,3.279,3.279,0,0,0-1.62.4,2.911,2.911,0,0,0-1.14,1.15,3.608,3.608,0,0,0-.42,1.79,3.622,3.622,0,0,0,.42,1.78,2.894,2.894,0,0,0,1.14,1.16A3.279,3.279,0,0,0,203.69,17Zm8.08,2V4.16h2.5V19Zm12.36,0V16.84l-.14-.46V12.6a2.213,2.213,0,0,0-.66-1.71,2.861,2.861,0,0,0-2-.61,5.744,5.744,0,0,0-1.77.28,4.348,4.348,0,0,0-1.47.78l-.98-1.82a5.929,5.929,0,0,1,2.05-.99,9.2,9.2,0,0,1,2.47-.33,5.283,5.283,0,0,1,3.59,1.11,4.319,4.319,0,0,1,1.27,3.43V19Zm-3.36.14a5.023,5.023,0,0,1-2.1-.41,3.245,3.245,0,0,1-1.39-1.14,2.893,2.893,0,0,1-.49-1.65,3.1,3.1,0,0,1,.43-1.62,2.9,2.9,0,0,1,1.41-1.14,6.7,6.7,0,0,1,2.6-.42h3.1v1.66h-2.92a2.6,2.6,0,0,0-1.72.41,1.326,1.326,0,0,0-.44,1.01,1.275,1.275,0,0,0,.54,1.08,2.476,2.476,0,0,0,1.5.4,3.248,3.248,0,0,0,1.65-.42,2.381,2.381,0,0,0,1.05-1.24l.42,1.5a2.779,2.779,0,0,1-1.29,1.46A4.771,4.771,0,0,1,220.77,19.14ZM235.75,8.2a5.093,5.093,0,0,1,2.29.5,3.664,3.664,0,0,1,1.59,1.53,5.362,5.362,0,0,1,.58,2.65V19h-2.5V13.2a2.963,2.963,0,0,0-.67-2.12,2.466,2.466,0,0,0-1.87-.7,3.284,3.284,0,0,0-1.56.36,2.467,2.467,0,0,0-1.05,1.07,3.852,3.852,0,0,0-.37,1.79V19h-2.5V8.32h2.38V11.2l-.42-.88a3.785,3.785,0,0,1,1.63-1.57A5.329,5.329,0,0,1,235.75,8.2Zm12.68,10.94a6.509,6.509,0,0,1-3.11-.71,5.144,5.144,0,0,1-2.06-1.95,5.453,5.453,0,0,1-.73-2.82,5.558,5.558,0,0,1,.71-2.83A5.1,5.1,0,0,1,245.2,8.9a5.732,5.732,0,0,1,2.85-.7,5.613,5.613,0,0,1,2.78.68,4.922,4.922,0,0,1,1.92,1.92,5.843,5.843,0,0,1,.7,2.92q0,.16-.01.36t-.03.38h-8.9V12.8h7.58l-.98.52a3.069,3.069,0,0,0-.38-1.62,2.927,2.927,0,0,0-1.09-1.1,3.112,3.112,0,0,0-1.59-.4,3.153,3.153,0,0,0-1.61.4,2.835,2.835,0,0,0-1.08,1.11,3.416,3.416,0,0,0-.39,1.67v.4a3.262,3.262,0,0,0,.44,1.7,2.933,2.933,0,0,0,1.24,1.14,4.061,4.061,0,0,0,1.84.4,4.44,4.44,0,0,0,1.62-.28,3.448,3.448,0,0,0,1.28-.88l1.34,1.54a4.705,4.705,0,0,1-1.81,1.29A6.479,6.479,0,0,1,248.43,19.14ZM57.081,43V29h1.641l6.272,10.576h-.872L70.322,29h1.641l.017,14h-1.92l-.017-10.971h.447l-5.51,9.278h-.916L58.5,32.029H59V43Zm25.394,0V40.76l-.085-.425V36.51a2.453,2.453,0,0,0-.713-1.883,3.01,3.01,0,0,0-2.127-.668,5.646,5.646,0,0,0-1.85.307,4.807,4.807,0,0,0-1.522.829l-.8-1.428a5.809,5.809,0,0,1,1.977-1.019,8.211,8.211,0,0,1,2.414-.353,4.861,4.861,0,0,1,3.358,1.064,4.145,4.145,0,0,1,1.187,3.249V43Zm-3.467.111a5.1,5.1,0,0,1-2.081-.394,3.138,3.138,0,0,1-1.368-1.1,2.826,2.826,0,0,1-.481-1.621,3.018,3.018,0,0,1,.409-1.556,2.857,2.857,0,0,1,1.344-1.121,6.144,6.144,0,0,1,2.5-.424H82.7v1.393H79.414a2.873,2.873,0,0,0-1.927.476,1.534,1.534,0,0,0-.505,1.161,1.475,1.475,0,0,0,.624,1.25,2.844,2.844,0,0,0,1.725.462,3.637,3.637,0,0,0,1.887-.479,2.748,2.748,0,0,0,1.174-1.4l.369,1.324a2.968,2.968,0,0,1-1.343,1.493A4.847,4.847,0,0,1,79.008,43.111ZM87.855,43V32.4h1.92V43Zm.96-12.64a1.28,1.28,0,0,1-.93-.36,1.181,1.181,0,0,1-.37-.88,1.2,1.2,0,0,1,.37-.9,1.28,1.28,0,0,1,.93-.36,1.3,1.3,0,0,1,.93.35,1.149,1.149,0,0,1,.37.87,1.249,1.249,0,0,1-1.3,1.28ZM99.088,32.3a5.005,5.005,0,0,1,2.285.5,3.636,3.636,0,0,1,1.557,1.518A5.264,5.264,0,0,1,103.5,36.9V43h-1.92V37.12a3.235,3.235,0,0,0-.752-2.329,2.811,2.811,0,0,0-2.124-.78,3.691,3.691,0,0,0-1.766.406A2.779,2.779,0,0,0,95.767,35.6a4.107,4.107,0,0,0-.41,1.93V43h-1.92V32.407h1.836v2.856l-.31-.752a3.7,3.7,0,0,1,1.605-1.635A5.25,5.25,0,0,1,99.088,32.3Zm11.6,10.815a3.418,3.418,0,0,1-2.485-.852,3.283,3.283,0,0,1-.876-2.465V30.079h1.92v9.648a1.848,1.848,0,0,0,.43,1.308,1.6,1.6,0,0,0,1.234.462,2.262,2.262,0,0,0,1.483-.488l.6,1.378a2.8,2.8,0,0,1-1.045.543A4.488,4.488,0,0,1,110.689,43.111Zm-5.175-9.125V32.407h6.778v1.579ZM121.9,43V40.76l-.085-.425V36.51a2.453,2.453,0,0,0-.713-1.883,3.01,3.01,0,0,0-2.127-.668,5.646,5.646,0,0,0-1.85.307,4.807,4.807,0,0,0-1.522.829l-.8-1.428a5.809,5.809,0,0,1,1.977-1.019,8.211,8.211,0,0,1,2.414-.353,4.861,4.861,0,0,1,3.358,1.064,4.145,4.145,0,0,1,1.187,3.249V43Zm-3.467.111a5.1,5.1,0,0,1-2.081-.394,3.138,3.138,0,0,1-1.368-1.1,2.826,2.826,0,0,1-.481-1.621,3.018,3.018,0,0,1,.409-1.556,2.857,2.857,0,0,1,1.344-1.121,6.144,6.144,0,0,1,2.5-.424h3.363v1.393h-3.282a2.873,2.873,0,0,0-1.927.476,1.534,1.534,0,0,0-.505,1.161,1.475,1.475,0,0,0,.624,1.25,2.844,2.844,0,0,0,1.725.462,3.637,3.637,0,0,0,1.887-.479,2.748,2.748,0,0,0,1.174-1.4l.369,1.324a2.968,2.968,0,0,1-1.343,1.493A4.847,4.847,0,0,1,118.432,43.111ZM127.279,43V32.4h1.92V43Zm.96-12.64a1.28,1.28,0,0,1-.93-.36,1.181,1.181,0,0,1-.37-.88,1.2,1.2,0,0,1,.37-.9,1.28,1.28,0,0,1,.93-.36,1.3,1.3,0,0,1,.93.35,1.149,1.149,0,0,1,.37.87,1.249,1.249,0,0,1-1.3,1.28ZM138.512,32.3a5.005,5.005,0,0,1,2.285.5,3.636,3.636,0,0,1,1.557,1.518,5.264,5.264,0,0,1,.569,2.588V43H141V37.12a3.235,3.235,0,0,0-.752-2.329,2.811,2.811,0,0,0-2.124-.78,3.691,3.691,0,0,0-1.766.406,2.779,2.779,0,0,0-1.171,1.185,4.107,4.107,0,0,0-.41,1.93V43h-1.92V32.407H134.7v2.856l-.31-.752a3.7,3.7,0,0,1,1.605-1.635A5.25,5.25,0,0,1,138.512,32.3Zm12.678,10.815a6.191,6.191,0,0,1-2.989-.7,5.026,5.026,0,0,1-2-1.919,5.452,5.452,0,0,1-.712-2.794,5.6,5.6,0,0,1,.688-2.795,5,5,0,0,1,1.9-1.916,5.387,5.387,0,0,1,2.737-.7,5.32,5.32,0,0,1,2.712.684,4.853,4.853,0,0,1,1.855,1.911,5.868,5.868,0,0,1,.672,2.863q0,.121-.008.285t-.025.305h-9.022V36.95H155l-.768.486a3.523,3.523,0,0,0-.428-1.815,3.264,3.264,0,0,0-1.215-1.244,3.458,3.458,0,0,0-1.78-.451,3.506,3.506,0,0,0-1.787.451,3.157,3.157,0,0,0-1.215,1.252,3.833,3.833,0,0,0-.435,1.857V37.8a3.64,3.64,0,0,0,.485,1.887,3.349,3.349,0,0,0,1.362,1.281,4.292,4.292,0,0,0,2.021.46,4.528,4.528,0,0,0,1.717-.315,3.549,3.549,0,0,0,1.347-.964l1.057,1.243a4.579,4.579,0,0,1-1.781,1.278A6.239,6.239,0,0,1,151.191,43.111Zm11.9,0a5.555,5.555,0,0,1-2.754-.678,4.924,4.924,0,0,1-1.91-1.894,6.145,6.145,0,0,1,0-5.673,4.93,4.93,0,0,1,1.91-1.891,5.555,5.555,0,0,1,2.754-.678,4.908,4.908,0,0,1,2.422.6,4.393,4.393,0,0,1,1.736,1.8,6.24,6.24,0,0,1,.65,3.006,6.4,6.4,0,0,1-.633,3,4.272,4.272,0,0,1-1.719,1.809A4.978,4.978,0,0,1,163.095,43.111Zm.152-1.681a3.607,3.607,0,0,0,1.821-.46,3.353,3.353,0,0,0,1.278-1.306,4.325,4.325,0,0,0,0-3.935,3.36,3.36,0,0,0-1.278-1.295,3.846,3.846,0,0,0-3.64,0,3.373,3.373,0,0,0-1.278,1.295,4.314,4.314,0,0,0,0,3.935,3.366,3.366,0,0,0,1.278,1.306A3.6,3.6,0,0,0,163.247,41.43ZM166.87,43V40.146l.116-2.464-.2-2.464V28.16h1.92V43Zm16.472.111a4.99,4.99,0,0,1-2.447-.6,4.257,4.257,0,0,1-1.728-1.809,6.4,6.4,0,0,1-.633-3,6.24,6.24,0,0,1,.65-3.006,4.376,4.376,0,0,1,1.745-1.8,4.921,4.921,0,0,1,2.413-.6,5.543,5.543,0,0,1,2.763.678,4.945,4.945,0,0,1,1.9,1.891,6.147,6.147,0,0,1,0,5.673,4.939,4.939,0,0,1-1.9,1.894A5.543,5.543,0,0,1,183.343,43.111ZM177.732,43V28.16h1.92v7.058l-.2,2.464.116,2.464V43Zm5.459-1.57a3.608,3.608,0,0,0,1.821-.46,3.351,3.351,0,0,0,1.278-1.306,4.327,4.327,0,0,0,0-3.935,3.358,3.358,0,0,0-1.278-1.295,3.85,3.85,0,0,0-3.642,0,3.358,3.358,0,0,0-1.278,1.295,4.327,4.327,0,0,0,0,3.935,3.351,3.351,0,0,0,1.278,1.306A3.608,3.608,0,0,0,183.191,41.43Zm8.332,5.561a4.563,4.563,0,0,1-1.486-.247,3.321,3.321,0,0,1-1.226-.724l.823-1.435a2.785,2.785,0,0,0,.872.574,2.635,2.635,0,0,0,1.021.2A1.825,1.825,0,0,0,192.683,45a3.3,3.3,0,0,0,.87-1.269l.659-1.461.184-.258,4.175-9.6h1.879L195.3,44.069a6.342,6.342,0,0,1-1.033,1.754,3.221,3.221,0,0,1-1.247.906A4.136,4.136,0,0,1,191.523,46.991Zm2.515-3.653-4.826-10.932h2l4.107,9.435Zm17.932-.177a9.523,9.523,0,0,1-3.064-.492,6.279,6.279,0,0,1-2.295-1.268l.736-1.561A6.538,6.538,0,0,0,209.384,41a7.321,7.321,0,0,0,2.583.464,5.717,5.717,0,0,0,1.975-.285,2.377,2.377,0,0,0,1.119-.775,1.808,1.808,0,0,0,.36-1.1,1.542,1.542,0,0,0-.463-1.171,3.355,3.355,0,0,0-1.212-.707,14.608,14.608,0,0,0-1.656-.47q-.906-.2-1.814-.47a7.789,7.789,0,0,1-1.657-.689,3.473,3.473,0,0,1-1.212-1.129,3.263,3.263,0,0,1-.463-1.822,3.67,3.67,0,0,1,.574-2,3.992,3.992,0,0,1,1.765-1.46,7.246,7.246,0,0,1,3.033-.551,9.23,9.23,0,0,1,2.421.325,6.849,6.849,0,0,1,2.078.922l-.659,1.587a6.831,6.831,0,0,0-1.911-.861,7.346,7.346,0,0,0-1.943-.275,5.241,5.241,0,0,0-1.93.3,2.391,2.391,0,0,0-1.108.8,1.912,1.912,0,0,0-.35,1.125,1.545,1.545,0,0,0,.463,1.174,3.265,3.265,0,0,0,1.212.7q.749.257,1.657.47t1.814.472a7.826,7.826,0,0,1,1.655.674,3.409,3.409,0,0,1,1.212,1.118,3.208,3.208,0,0,1,.463,1.8,3.6,3.6,0,0,1-.584,1.982,4.041,4.041,0,0,1-1.788,1.459A7.366,7.366,0,0,1,211.97,43.161ZM226.608,43V40.76l-.085-.425V36.51a2.453,2.453,0,0,0-.713-1.883,3.01,3.01,0,0,0-2.127-.668,5.646,5.646,0,0,0-1.85.307,4.807,4.807,0,0,0-1.522.829l-.8-1.428a5.809,5.809,0,0,1,1.977-1.019A8.211,8.211,0,0,1,223.9,32.3a4.861,4.861,0,0,1,3.358,1.064,4.145,4.145,0,0,1,1.187,3.249V43Zm-3.467.111a5.1,5.1,0,0,1-2.081-.394,3.138,3.138,0,0,1-1.368-1.1,2.826,2.826,0,0,1-.481-1.621,3.018,3.018,0,0,1,.409-1.556,2.857,2.857,0,0,1,1.344-1.121,6.144,6.144,0,0,1,2.5-.424h3.363v1.393h-3.282a2.873,2.873,0,0,0-1.927.476,1.534,1.534,0,0,0-.505,1.161,1.475,1.475,0,0,0,.624,1.25,2.844,2.844,0,0,0,1.725.462,3.637,3.637,0,0,0,1.887-.479,2.748,2.748,0,0,0,1.174-1.4l.369,1.324a2.968,2.968,0,0,1-1.343,1.493A4.847,4.847,0,0,1,223.141,43.111ZM232.273,43V31.451a3.394,3.394,0,0,1,.9-2.473,3.455,3.455,0,0,1,2.593-.928,4.764,4.764,0,0,1,1.194.146,2.549,2.549,0,0,1,.961.458l-.584,1.462a2.053,2.053,0,0,0-.669-.362,2.528,2.528,0,0,0-.8-.126,1.683,1.683,0,0,0-1.293.47,1.961,1.961,0,0,0-.439,1.384v1.423l.051.878V43Zm-1.814-9.014V32.407h6.778v1.579Zm13.151,9.125a6.191,6.191,0,0,1-2.989-.7,5.026,5.026,0,0,1-2-1.919,5.452,5.452,0,0,1-.712-2.794,5.6,5.6,0,0,1,.688-2.795,5,5,0,0,1,1.9-1.916,5.387,5.387,0,0,1,2.737-.7,5.32,5.32,0,0,1,2.712.684,4.853,4.853,0,0,1,1.855,1.911,5.868,5.868,0,0,1,.672,2.863q0,.121-.008.285t-.025.305h-9.022V36.95h8.008l-.768.486a3.523,3.523,0,0,0-.428-1.815,3.264,3.264,0,0,0-1.215-1.244,3.458,3.458,0,0,0-1.78-.451,3.506,3.506,0,0,0-1.787.451,3.157,3.157,0,0,0-1.215,1.252,3.833,3.833,0,0,0-.435,1.857V37.8a3.64,3.64,0,0,0,.485,1.887,3.349,3.349,0,0,0,1.362,1.281,4.292,4.292,0,0,0,2.021.46,4.528,4.528,0,0,0,1.717-.315,3.549,3.549,0,0,0,1.347-.964l1.057,1.243A4.579,4.579,0,0,1,246,42.672,6.239,6.239,0,0,1,243.61,43.111Zm10.569,0a8.727,8.727,0,0,1-2.521-.358,5.9,5.9,0,0,1-1.874-.876l.814-1.519a6.21,6.21,0,0,0,1.678.79,6.7,6.7,0,0,0,2.037.317,3.672,3.672,0,0,0,1.93-.387,1.2,1.2,0,0,0,.6-1.052.927.927,0,0,0-.363-.781,2.567,2.567,0,0,0-.959-.424q-.6-.146-1.314-.252t-1.436-.275a5.472,5.472,0,0,1-1.314-.484,2.561,2.561,0,0,1-.959-.868,2.625,2.625,0,0,1-.363-1.463,2.7,2.7,0,0,1,.54-1.672,3.479,3.479,0,0,1,1.528-1.115,6.3,6.3,0,0,1,2.352-.4,9.014,9.014,0,0,1,2.111.256,5.553,5.553,0,0,1,1.748.7l-.814,1.519a4.742,4.742,0,0,0-1.5-.649,6.838,6.838,0,0,0-1.559-.182,3.465,3.465,0,0,0-1.879.407,1.213,1.213,0,0,0-.618,1.046,1,1,0,0,0,.363.83,2.653,2.653,0,0,0,.959.453,11.1,11.1,0,0,0,1.314.27q.718.106,1.434.275a5.762,5.762,0,0,1,1.313.474,2.333,2.333,0,0,1,1.322,2.277,2.611,2.611,0,0,1-.555,1.669,3.522,3.522,0,0,1-1.574,1.085A6.948,6.948,0,0,1,254.178,43.111Zm12.592,0a4.922,4.922,0,0,1-2.413-.6,4.362,4.362,0,0,1-1.745-1.808,6.253,6.253,0,0,1-.65-3A6.388,6.388,0,0,1,262.6,34.7a4.27,4.27,0,0,1,1.728-1.8,4.989,4.989,0,0,1,2.447-.6,5.543,5.543,0,0,1,2.763.678,4.942,4.942,0,0,1,1.9,1.892,6.147,6.147,0,0,1,0,5.673,4.942,4.942,0,0,1-1.9,1.892A5.543,5.543,0,0,1,266.771,43.111ZM261.16,46.88V32.407H263v2.854l-.116,2.464.2,2.464V46.88Zm5.459-5.45a3.618,3.618,0,0,0,1.821-.458,3.34,3.34,0,0,0,1.278-1.3,4.327,4.327,0,0,0,0-3.935,3.37,3.37,0,0,0-1.278-1.3,3.838,3.838,0,0,0-3.642,0,3.37,3.37,0,0,0-1.278,1.3,4.327,4.327,0,0,0,0,3.935,3.34,3.34,0,0,0,1.278,1.3A3.618,3.618,0,0,0,266.619,41.43ZM274.8,43V32.407h1.836v2.877l-.192-.719a3.332,3.332,0,0,1,1.487-1.688,5.165,5.165,0,0,1,2.563-.581v1.869q-.121-.017-.227-.025t-.214-.008a3.244,3.244,0,0,0-2.435.92,3.682,3.682,0,0,0-.9,2.676V43Zm8.061,0V32.4h1.92V43Zm.96-12.64a1.28,1.28,0,0,1-.93-.36,1.181,1.181,0,0,1-.37-.88,1.2,1.2,0,0,1,.37-.9,1.28,1.28,0,0,1,.93-.36,1.3,1.3,0,0,1,.93.35,1.149,1.149,0,0,1,.37.87,1.249,1.249,0,0,1-1.3,1.28ZM294.093,32.3a5,5,0,0,1,2.285.5,3.636,3.636,0,0,1,1.557,1.518A5.264,5.264,0,0,1,298.5,36.9V43h-1.92V37.12a3.235,3.235,0,0,0-.752-2.329,2.811,2.811,0,0,0-2.124-.78,3.691,3.691,0,0,0-1.766.406,2.779,2.779,0,0,0-1.171,1.185,4.107,4.107,0,0,0-.41,1.93V43h-1.92V32.407h1.836v2.856l-.31-.752a3.7,3.7,0,0,1,1.605-1.635A5.25,5.25,0,0,1,294.093,32.3Zm12.594,14.695a10.012,10.012,0,0,1-2.823-.4,5.849,5.849,0,0,1-2.247-1.167l.938-1.479a5.461,5.461,0,0,0,1.816,1,6.92,6.92,0,0,0,2.248.369,3.809,3.809,0,0,0,2.77-.874,3.6,3.6,0,0,0,.884-2.667V39.513l.2-2.1-.116-2.112v-2.9h1.836v9.15a5.409,5.409,0,0,1-1.4,4.119A5.788,5.788,0,0,1,306.688,46.991Zm-.232-4.432a5.766,5.766,0,0,1-2.759-.65,4.914,4.914,0,0,1-1.921-1.807,5.474,5.474,0,0,1,0-5.371,4.845,4.845,0,0,1,1.921-1.8,5.839,5.839,0,0,1,2.759-.64,5.457,5.457,0,0,1,2.472.556,4.279,4.279,0,0,1,1.788,1.694,5.555,5.555,0,0,1,.675,2.872,5.558,5.558,0,0,1-.675,2.87,4.343,4.343,0,0,1-1.788,1.706A5.377,5.377,0,0,1,306.455,42.559Zm.2-1.681a3.969,3.969,0,0,0,1.895-.438,3.248,3.248,0,0,0,1.288-1.219,3.72,3.72,0,0,0,0-3.607,3.2,3.2,0,0,0-1.288-1.208,4.372,4.372,0,0,0-3.78,0,3.181,3.181,0,0,0-1.3,1.208,3.72,3.72,0,0,0,0,3.607,3.231,3.231,0,0,0,1.3,1.219A3.985,3.985,0,0,0,306.658,40.878Z" transform="translate(652 9329)"/><g class="e" transform="translate(496 9416)"><rect class="i" width="52" height="155" rx="26"/><rect class="j" x="1.5" y="1.5" width="49" height="152" rx="24.5"/></g><g class="e" transform="translate(672 9416)"><rect class="i" width="330" height="155" rx="28"/><rect class="j" x="1.5" y="1.5" width="327" height="152" rx="26.5"/></g><g class="e" transform="translate(559 9416)"><rect class="i" width="101" height="155" rx="28"/><rect class="j" x="1.5" y="1.5" width="98" height="152" rx="26.5"/></g><g class="e" transform="translate(1125 9416)"><rect class="i" width="52" height="155" rx="26"/><rect class="j" x="1.5" y="1.5" width="49" height="152" rx="24.5"/></g><g class="e" transform="translate(1013 9416)"><rect class="i" width="101" height="155" rx="28"/><rect class="j" x="1.5" y="1.5" width="98" height="152" rx="26.5"/></g><path class="f" d="M122.82,19,118.18,5h2.7l4.14,12.66h-1.34L127.98,5h2.4l4.18,12.66h-1.3L137.5,5h2.48l-4.64,14h-2.76L128.76,7.58h.72L125.6,19Zm23.04.14a5.918,5.918,0,0,1-2.92-.71,5.306,5.306,0,0,1-2.02-1.95,5.4,5.4,0,0,1-.74-2.82,5.382,5.382,0,0,1,.74-2.83,5.255,5.255,0,0,1,2.02-1.93,5.986,5.986,0,0,1,2.92-.7,6.086,6.086,0,0,1,2.95.7,5.187,5.187,0,0,1,2.02,1.92,5.425,5.425,0,0,1,.73,2.84,5.453,5.453,0,0,1-.73,2.82,5.213,5.213,0,0,1-2.02,1.95A6.017,6.017,0,0,1,145.86,19.14Zm0-2.14a3.32,3.32,0,0,0,1.64-.4,2.829,2.829,0,0,0,1.13-1.16,3.694,3.694,0,0,0,.41-1.78,3.679,3.679,0,0,0-.41-1.79,2.845,2.845,0,0,0-1.13-1.15,3.5,3.5,0,0,0-3.25,0,2.93,2.93,0,0,0-1.13,1.15,3.608,3.608,0,0,0-.42,1.79,3.622,3.622,0,0,0,.42,1.78,2.914,2.914,0,0,0,1.13,1.16A3.223,3.223,0,0,0,145.86,17Zm8.1,2V8.32h2.38v2.94l-.28-.86a3.378,3.378,0,0,1,1.51-1.64,5.331,5.331,0,0,1,2.57-.56v2.38a1.759,1.759,0,0,0-.3-.05q-.14-.01-.28-.01a3.075,3.075,0,0,0-2.26.83,3.328,3.328,0,0,0-.84,2.47V19Zm10.34-2.38.06-3.14,5.58-5.16h3l-4.74,4.76-1.32,1.1ZM162.26,19V4.16h2.5V19Zm8.06,0-3.9-4.82,1.58-2L173.36,19Zm9.24.14a6.509,6.509,0,0,1-3.11-.71,5.144,5.144,0,0,1-2.06-1.95,5.453,5.453,0,0,1-.73-2.82,5.558,5.558,0,0,1,.71-2.83,5.1,5.1,0,0,1,1.96-1.93,5.732,5.732,0,0,1,2.85-.7,5.613,5.613,0,0,1,2.78.68,4.922,4.922,0,0,1,1.92,1.92,5.843,5.843,0,0,1,.7,2.92q0,.16-.01.36t-.03.38h-8.9V12.8h7.58l-.98.52a3.069,3.069,0,0,0-.38-1.62,2.927,2.927,0,0,0-1.09-1.1,3.112,3.112,0,0,0-1.59-.4,3.153,3.153,0,0,0-1.61.4,2.835,2.835,0,0,0-1.08,1.11,3.416,3.416,0,0,0-.39,1.67v.4a3.262,3.262,0,0,0,.44,1.7,2.933,2.933,0,0,0,1.24,1.14,4.061,4.061,0,0,0,1.84.4,4.44,4.44,0,0,0,1.62-.28,3.448,3.448,0,0,0,1.28-.88l1.34,1.54a4.705,4.705,0,0,1-1.81,1.29A6.479,6.479,0,0,1,179.56,19.14Zm7.42-.14V8.32h2.38v2.94l-.28-.86a3.378,3.378,0,0,1,1.51-1.64,5.331,5.331,0,0,1,2.57-.56v2.38a1.759,1.759,0,0,0-.3-.05q-.14-.01-.28-.01a3.075,3.075,0,0,0-2.26.83,3.328,3.328,0,0,0-.84,2.47V19ZM206.96,8.2a5.093,5.093,0,0,1,2.29.5,3.664,3.664,0,0,1,1.59,1.53,5.362,5.362,0,0,1,.58,2.65V19h-2.5V13.2a2.963,2.963,0,0,0-.67-2.12,2.466,2.466,0,0,0-1.87-.7,3.284,3.284,0,0,0-1.56.36,2.467,2.467,0,0,0-1.05,1.07,3.852,3.852,0,0,0-.37,1.79V19h-2.5V8.32h2.38V11.2l-.42-.88a3.785,3.785,0,0,1,1.63-1.57A5.329,5.329,0,0,1,206.96,8.2Zm12.46,10.94a5.918,5.918,0,0,1-2.92-.71,5.306,5.306,0,0,1-2.02-1.95,5.4,5.4,0,0,1-.74-2.82,5.382,5.382,0,0,1,.74-2.83A5.255,5.255,0,0,1,216.5,8.9a5.986,5.986,0,0,1,2.92-.7,6.086,6.086,0,0,1,2.95.7,5.187,5.187,0,0,1,2.02,1.92,5.425,5.425,0,0,1,.73,2.84,5.453,5.453,0,0,1-.73,2.82,5.213,5.213,0,0,1-2.02,1.95A6.017,6.017,0,0,1,219.42,19.14Zm0-2.14a3.32,3.32,0,0,0,1.64-.4,2.829,2.829,0,0,0,1.13-1.16,3.694,3.694,0,0,0,.41-1.78,3.679,3.679,0,0,0-.41-1.79,2.845,2.845,0,0,0-1.13-1.15,3.5,3.5,0,0,0-3.25,0,2.93,2.93,0,0,0-1.13,1.15,3.608,3.608,0,0,0-.42,1.79,3.622,3.622,0,0,0,.42,1.78,2.914,2.914,0,0,0,1.13,1.16A3.223,3.223,0,0,0,219.42,17Zm12.62,2.14a5.563,5.563,0,0,1-2.77-.69,5.012,5.012,0,0,1-1.93-1.91,5.689,5.689,0,0,1-.7-2.88,5.689,5.689,0,0,1,.7-2.88,4.942,4.942,0,0,1,1.93-1.9,5.628,5.628,0,0,1,2.77-.68,4.85,4.85,0,0,1,2.4.59,4.17,4.17,0,0,1,1.68,1.79,6.7,6.7,0,0,1,.62,3.08,6.9,6.9,0,0,1-.6,3.07,4.1,4.1,0,0,1-1.66,1.81A4.867,4.867,0,0,1,232.04,19.14Zm.3-2.14a3.223,3.223,0,0,0,1.61-.4,2.981,2.981,0,0,0,1.14-1.16,3.554,3.554,0,0,0,.43-1.78,3.54,3.54,0,0,0-.43-1.79,3,3,0,0,0-1.14-1.15,3.44,3.44,0,0,0-3.22,0,3,3,0,0,0-1.14,1.15,3.54,3.54,0,0,0-.43,1.79,3.554,3.554,0,0,0,.43,1.78,2.981,2.981,0,0,0,1.14,1.16A3.223,3.223,0,0,0,232.34,17Zm3.24,2V16.48l.1-2.84-.2-2.84V4.16h2.48V19Zm10.7.14a6.509,6.509,0,0,1-3.11-.71,5.144,5.144,0,0,1-2.06-1.95,5.453,5.453,0,0,1-.73-2.82,5.558,5.558,0,0,1,.71-2.83,5.1,5.1,0,0,1,1.96-1.93,5.732,5.732,0,0,1,2.85-.7,5.613,5.613,0,0,1,2.78.68,4.922,4.922,0,0,1,1.92,1.92,5.843,5.843,0,0,1,.7,2.92q0,.16-.01.36t-.03.38h-8.9V12.8h7.58l-.98.52a3.069,3.069,0,0,0-.38-1.62,2.927,2.927,0,0,0-1.09-1.1,3.112,3.112,0,0,0-1.59-.4,3.153,3.153,0,0,0-1.61.4,2.835,2.835,0,0,0-1.08,1.11,3.416,3.416,0,0,0-.39,1.67v.4a3.262,3.262,0,0,0,.44,1.7,2.933,2.933,0,0,0,1.24,1.14,4.061,4.061,0,0,0,1.84.4,4.44,4.44,0,0,0,1.62-.28,3.448,3.448,0,0,0,1.28-.88l1.34,1.54a4.705,4.705,0,0,1-1.81,1.29A6.479,6.479,0,0,1,246.28,19.14Zm10.72,0a9.345,9.345,0,0,1-2.57-.35,6.612,6.612,0,0,1-1.95-.85l.96-1.9a6.828,6.828,0,0,0,1.72.76,6.929,6.929,0,0,0,2,.3,3.446,3.446,0,0,0,1.71-.32.97.97,0,0,0,.53-.86.746.746,0,0,0-.36-.67,2.8,2.8,0,0,0-.94-.35q-.58-.12-1.29-.22t-1.42-.27a4.9,4.9,0,0,1-1.29-.5,2.672,2.672,0,0,1-.94-.89,2.7,2.7,0,0,1-.36-1.48,2.809,2.809,0,0,1,.58-1.77,3.7,3.7,0,0,1,1.63-1.16,6.837,6.837,0,0,1,2.49-.41,10.2,10.2,0,0,1,2.18.24,5.9,5.9,0,0,1,1.82.68l-.96,1.9a5.063,5.063,0,0,0-1.53-.63,7.079,7.079,0,0,0-1.53-.17,3.29,3.29,0,0,0-1.69.34,1,1,0,0,0-.55.86.808.808,0,0,0,.36.72,2.937,2.937,0,0,0,.94.38,11.9,11.9,0,0,0,1.29.23,11.425,11.425,0,0,1,1.41.27,5.947,5.947,0,0,1,1.29.49,2.485,2.485,0,0,1,.95.87,2.661,2.661,0,0,1,.36,1.46,2.708,2.708,0,0,1-.59,1.74,3.8,3.8,0,0,1-1.67,1.15A7.274,7.274,0,0,1,257,19.14ZM114.363,43.161a8.014,8.014,0,0,1-2.968-.538,7.151,7.151,0,0,1-2.368-1.507,6.882,6.882,0,0,1-1.561-2.27,7.553,7.553,0,0,1,0-5.693,6.9,6.9,0,0,1,1.563-2.272,7.134,7.134,0,0,1,2.365-1.507,8.484,8.484,0,0,1,5.927,0,7.111,7.111,0,0,1,2.356,1.5,6.845,6.845,0,0,1,1.559,2.272,7.613,7.613,0,0,1,0,5.716,6.849,6.849,0,0,1-1.559,2.271,7.111,7.111,0,0,1-2.356,1.5A8,8,0,0,1,114.363,43.161Zm0-1.782a5.683,5.683,0,0,0,2.158-.4,5.161,5.161,0,0,0,1.721-1.131,5.229,5.229,0,0,0,1.142-1.709,5.821,5.821,0,0,0,0-4.28,5.225,5.225,0,0,0-1.14-1.7,5.169,5.169,0,0,0-1.723-1.133,6.008,6.008,0,0,0-4.321,0,5.2,5.2,0,0,0-2.875,2.84,5.787,5.787,0,0,0,0,4.269,5.267,5.267,0,0,0,1.143,1.715,5.092,5.092,0,0,0,1.73,1.135A5.769,5.769,0,0,0,114.36,41.379Zm15.832,1.731a4.922,4.922,0,0,1-2.413-.6,4.362,4.362,0,0,1-1.745-1.808,6.253,6.253,0,0,1-.65-3,6.388,6.388,0,0,1,.633-3.007,4.27,4.27,0,0,1,1.728-1.8,4.989,4.989,0,0,1,2.447-.6,5.543,5.543,0,0,1,2.763.678,4.942,4.942,0,0,1,1.9,1.892,6.147,6.147,0,0,1,0,5.673,4.942,4.942,0,0,1-1.9,1.892A5.543,5.543,0,0,1,130.192,43.111Zm-5.611,3.769V32.407h1.836v2.854l-.116,2.464.2,2.464V46.88Zm5.459-5.45a3.618,3.618,0,0,0,1.821-.458,3.34,3.34,0,0,0,1.278-1.3,4.327,4.327,0,0,0,0-3.935,3.37,3.37,0,0,0-1.278-1.3,3.838,3.838,0,0,0-3.642,0,3.37,3.37,0,0,0-1.278,1.3,4.327,4.327,0,0,0,0,3.935,3.34,3.34,0,0,0,1.278,1.3A3.618,3.618,0,0,0,130.04,41.43Zm12.9,1.681a6.191,6.191,0,0,1-2.989-.7,5.026,5.026,0,0,1-2-1.919,5.452,5.452,0,0,1-.712-2.794,5.6,5.6,0,0,1,.688-2.795,5,5,0,0,1,1.9-1.916,5.387,5.387,0,0,1,2.737-.7,5.32,5.32,0,0,1,2.712.684,4.853,4.853,0,0,1,1.855,1.911,5.868,5.868,0,0,1,.672,2.863q0,.121-.008.285t-.025.305H138.74V36.95h8.008l-.768.486a3.523,3.523,0,0,0-.428-1.815,3.264,3.264,0,0,0-1.215-1.244,3.458,3.458,0,0,0-1.78-.451,3.506,3.506,0,0,0-1.787.451,3.157,3.157,0,0,0-1.215,1.252,3.833,3.833,0,0,0-.435,1.857V37.8a3.64,3.64,0,0,0,.485,1.887,3.349,3.349,0,0,0,1.362,1.281,4.292,4.292,0,0,0,2.021.46,4.528,4.528,0,0,0,1.717-.315,3.549,3.549,0,0,0,1.347-.964l1.057,1.243a4.579,4.579,0,0,1-1.781,1.278A6.239,6.239,0,0,1,142.937,43.111Zm7.53-.111V32.407H152.3v2.877l-.192-.719a3.332,3.332,0,0,1,1.487-1.688,5.165,5.165,0,0,1,2.563-.581v1.869q-.121-.017-.227-.025t-.214-.008a3.244,3.244,0,0,0-2.435.92,3.682,3.682,0,0,0-.9,2.676V43Zm13.851,0V40.76l-.085-.425V36.51a2.453,2.453,0,0,0-.713-1.883,3.01,3.01,0,0,0-2.127-.668,5.646,5.646,0,0,0-1.85.307,4.807,4.807,0,0,0-1.522.829l-.8-1.428a5.809,5.809,0,0,1,1.977-1.019,8.211,8.211,0,0,1,2.414-.353,4.861,4.861,0,0,1,3.358,1.064,4.145,4.145,0,0,1,1.187,3.249V43Zm-3.467.111a5.1,5.1,0,0,1-2.081-.394,3.138,3.138,0,0,1-1.368-1.1,2.826,2.826,0,0,1-.481-1.621,3.018,3.018,0,0,1,.409-1.556,2.857,2.857,0,0,1,1.344-1.121,6.144,6.144,0,0,1,2.5-.424h3.363v1.393h-3.282a2.873,2.873,0,0,0-1.927.476,1.534,1.534,0,0,0-.505,1.161,1.475,1.475,0,0,0,.624,1.25,2.844,2.844,0,0,0,1.725.462,3.637,3.637,0,0,0,1.887-.479,2.748,2.748,0,0,0,1.174-1.4l.369,1.324a2.968,2.968,0,0,1-1.343,1.493A4.847,4.847,0,0,1,160.851,43.111Zm12.493,0a3.418,3.418,0,0,1-2.485-.852,3.283,3.283,0,0,1-.876-2.465V30.079h1.92v9.648a1.848,1.848,0,0,0,.43,1.308,1.6,1.6,0,0,0,1.234.462,2.262,2.262,0,0,0,1.483-.488l.6,1.378a2.8,2.8,0,0,1-1.045.543A4.488,4.488,0,0,1,173.344,43.111Zm-5.175-9.125V32.407h6.778v1.579Zm14.17,9.125a6.191,6.191,0,0,1-2.989-.7,5.026,5.026,0,0,1-2-1.919,5.452,5.452,0,0,1-.712-2.794,5.6,5.6,0,0,1,.688-2.795,5,5,0,0,1,1.9-1.916,5.387,5.387,0,0,1,2.737-.7,5.32,5.32,0,0,1,2.712.684,4.853,4.853,0,0,1,1.855,1.911,5.868,5.868,0,0,1,.672,2.863q0,.121-.008.285t-.025.305h-9.022V36.95h8.008l-.768.486a3.523,3.523,0,0,0-.428-1.815,3.264,3.264,0,0,0-1.215-1.244,3.458,3.458,0,0,0-1.78-.451,3.506,3.506,0,0,0-1.787.451,3.157,3.157,0,0,0-1.215,1.252,3.833,3.833,0,0,0-.435,1.857V37.8a3.64,3.64,0,0,0,.485,1.887,3.349,3.349,0,0,0,1.362,1.281,4.292,4.292,0,0,0,2.021.46,4.528,4.528,0,0,0,1.717-.315,3.549,3.549,0,0,0,1.347-.964l1.057,1.243a4.579,4.579,0,0,1-1.781,1.278A6.239,6.239,0,0,1,182.339,43.111Zm11.9,0a5.555,5.555,0,0,1-2.754-.678,4.924,4.924,0,0,1-1.91-1.894,6.145,6.145,0,0,1,0-5.673,4.93,4.93,0,0,1,1.91-1.891,5.555,5.555,0,0,1,2.754-.678,4.908,4.908,0,0,1,2.422.6,4.393,4.393,0,0,1,1.736,1.8,6.24,6.24,0,0,1,.65,3.006,6.4,6.4,0,0,1-.633,3,4.272,4.272,0,0,1-1.719,1.809A4.978,4.978,0,0,1,194.243,43.111Zm.152-1.681a3.607,3.607,0,0,0,1.821-.46,3.353,3.353,0,0,0,1.278-1.306,4.325,4.325,0,0,0,0-3.935,3.36,3.36,0,0,0-1.278-1.295,3.846,3.846,0,0,0-3.64,0,3.373,3.373,0,0,0-1.278,1.295,4.314,4.314,0,0,0,0,3.935,3.366,3.366,0,0,0,1.278,1.306A3.6,3.6,0,0,0,194.4,41.43ZM198.019,43V40.146l.116-2.464-.2-2.464V28.16h1.92V43Zm16.472.111a4.99,4.99,0,0,1-2.447-.6,4.257,4.257,0,0,1-1.728-1.809,6.4,6.4,0,0,1-.633-3,6.24,6.24,0,0,1,.65-3.006,4.376,4.376,0,0,1,1.745-1.8,4.921,4.921,0,0,1,2.413-.6,5.543,5.543,0,0,1,2.763.678,4.945,4.945,0,0,1,1.9,1.891,6.147,6.147,0,0,1,0,5.673,4.939,4.939,0,0,1-1.9,1.894A5.543,5.543,0,0,1,214.491,43.111ZM208.88,43V28.16h1.92v7.058l-.2,2.464.116,2.464V43Zm5.459-1.57a3.608,3.608,0,0,0,1.821-.46,3.351,3.351,0,0,0,1.278-1.306,4.327,4.327,0,0,0,0-3.935,3.358,3.358,0,0,0-1.278-1.295,3.85,3.85,0,0,0-3.642,0,3.358,3.358,0,0,0-1.278,1.295,4.327,4.327,0,0,0,0,3.935,3.351,3.351,0,0,0,1.278,1.306A3.608,3.608,0,0,0,214.339,41.43Zm8.332,5.561a4.563,4.563,0,0,1-1.486-.247,3.321,3.321,0,0,1-1.226-.724l.823-1.435a2.785,2.785,0,0,0,.872.574,2.635,2.635,0,0,0,1.021.2A1.825,1.825,0,0,0,223.832,45a3.3,3.3,0,0,0,.87-1.269l.659-1.461.184-.258,4.175-9.6H231.6l-5.145,11.662a6.342,6.342,0,0,1-1.033,1.754,3.221,3.221,0,0,1-1.247.906A4.136,4.136,0,0,1,222.671,46.991Zm2.515-3.653-4.826-10.932h2l4.107,9.435Zm14.03,3.653a4.563,4.563,0,0,1-1.486-.247,3.321,3.321,0,0,1-1.226-.724l.823-1.435a2.785,2.785,0,0,0,.872.574,2.635,2.635,0,0,0,1.021.2A1.825,1.825,0,0,0,240.377,45a3.3,3.3,0,0,0,.87-1.269l.659-1.461.184-.258,4.175-9.6h1.879L243,44.069a6.342,6.342,0,0,1-1.033,1.754,3.221,3.221,0,0,1-1.247.906A4.136,4.136,0,0,1,239.216,46.991Zm2.515-3.653-4.826-10.932h2l4.107,9.435Zm12.433-.227a5.7,5.7,0,0,1-2.828-.7,5.148,5.148,0,0,1-1.963-1.922,5.789,5.789,0,0,1,0-5.595,5.212,5.212,0,0,1,1.959-1.908,5.676,5.676,0,0,1,2.829-.695,5.745,5.745,0,0,1,2.84.694,5.1,5.1,0,0,1,1.959,1.9,5.879,5.879,0,0,1,0,5.6A5.061,5.061,0,0,1,257,42.415,5.752,5.752,0,0,1,254.164,43.111Zm0-1.681A3.641,3.641,0,0,0,256,40.97a3.3,3.3,0,0,0,1.27-1.306,4.4,4.4,0,0,0,0-3.935A3.3,3.3,0,0,0,256,34.435a3.88,3.88,0,0,0-3.657,0,3.373,3.373,0,0,0-1.278,1.295,4.314,4.314,0,0,0,0,3.935,3.368,3.368,0,0,0,1.277,1.306A3.6,3.6,0,0,0,254.164,41.43ZM266.8,43.111a5.426,5.426,0,0,1-2.4-.5,3.577,3.577,0,0,1-1.6-1.526,5.274,5.274,0,0,1-.569-2.58v-6.1h1.92v5.881a3.25,3.25,0,0,0,.747,2.329,2.783,2.783,0,0,0,2.11.78,3.535,3.535,0,0,0,1.733-.406,2.785,2.785,0,0,0,1.145-1.2,4.146,4.146,0,0,0,.407-1.92V32.407h1.92V43h-1.836V40.147l.31.753a3.742,3.742,0,0,1-1.562,1.632A4.707,4.707,0,0,1,266.8,43.111Z" transform="translate(646 9470)"/><g class="g" transform="translate(482 9601)"><rect class="i" width="709" height="104" rx="28"/><rect class="j" x="1.5" y="1.5" width="706" height="101" rx="26.5"/></g><path class="h" d="M57.44,19V5h2.6V19ZM69.64,8.2a5.093,5.093,0,0,1,2.29.5,3.664,3.664,0,0,1,1.59,1.53,5.362,5.362,0,0,1,.58,2.65V19H71.6V13.2a2.963,2.963,0,0,0-.67-2.12,2.466,2.466,0,0,0-1.87-.7,3.284,3.284,0,0,0-1.56.36,2.467,2.467,0,0,0-1.05,1.07,3.852,3.852,0,0,0-.37,1.79V19h-2.5V8.32h2.38V11.2l-.42-.88a3.785,3.785,0,0,1,1.63-1.57A5.329,5.329,0,0,1,69.64,8.2ZM77.62,19V7.72a3.677,3.677,0,0,1,.99-2.69,3.785,3.785,0,0,1,2.83-1.01,5.4,5.4,0,0,1,1.25.14,2.649,2.649,0,0,1,.99.44L83,6.48a1.945,1.945,0,0,0-.64-.33,2.518,2.518,0,0,0-.74-.11,1.534,1.534,0,0,0-1.18.43,1.835,1.835,0,0,0-.4,1.29v1.2l.08,1.12V19Zm-1.76-8.6v-2h7.12v2ZM84.68,19V8.32h2.38v2.94l-.28-.86a3.378,3.378,0,0,1,1.51-1.64,5.331,5.331,0,0,1,2.57-.56v2.38a1.759,1.759,0,0,0-.3-.05q-.14-.01-.28-.01a3.075,3.075,0,0,0-2.26.83,3.328,3.328,0,0,0-.84,2.47V19ZM98.8,19V16.84l-.14-.46V12.6A2.213,2.213,0,0,0,98,10.89a2.86,2.86,0,0,0-2-.61,5.744,5.744,0,0,0-1.77.28,4.348,4.348,0,0,0-1.47.78l-.98-1.82a5.929,5.929,0,0,1,2.05-.99A9.2,9.2,0,0,1,96.3,8.2a5.283,5.283,0,0,1,3.59,1.11,4.319,4.319,0,0,1,1.27,3.43V19Zm-3.36.14a5.023,5.023,0,0,1-2.1-.41,3.245,3.245,0,0,1-1.39-1.14,2.893,2.893,0,0,1-.49-1.65,3.1,3.1,0,0,1,.43-1.62,2.9,2.9,0,0,1,1.41-1.14,6.7,6.7,0,0,1,2.6-.42H99v1.66H96.08a2.6,2.6,0,0,0-1.72.41,1.326,1.326,0,0,0-.44,1.01,1.275,1.275,0,0,0,.54,1.08,2.476,2.476,0,0,0,1.5.4,3.248,3.248,0,0,0,1.65-.42,2.381,2.381,0,0,0,1.05-1.24l.42,1.5a2.779,2.779,0,0,1-1.29,1.46A4.771,4.771,0,0,1,95.44,19.14Zm12.22,0a9.345,9.345,0,0,1-2.57-.35,6.612,6.612,0,0,1-1.95-.85l.96-1.9a6.828,6.828,0,0,0,1.72.76,6.929,6.929,0,0,0,2,.3,3.446,3.446,0,0,0,1.71-.32.97.97,0,0,0,.53-.86.746.746,0,0,0-.36-.67,2.8,2.8,0,0,0-.94-.35q-.58-.12-1.29-.22t-1.42-.27a4.9,4.9,0,0,1-1.29-.5,2.672,2.672,0,0,1-.94-.89,2.7,2.7,0,0,1-.36-1.48,2.809,2.809,0,0,1,.58-1.77,3.7,3.7,0,0,1,1.63-1.16,6.837,6.837,0,0,1,2.49-.41,10.2,10.2,0,0,1,2.18.24,5.9,5.9,0,0,1,1.82.68l-.96,1.9a5.063,5.063,0,0,0-1.53-.63,7.079,7.079,0,0,0-1.53-.17,3.29,3.29,0,0,0-1.69.34,1,1,0,0,0-.55.86.808.808,0,0,0,.36.72,2.937,2.937,0,0,0,.94.38,11.9,11.9,0,0,0,1.29.23,11.426,11.426,0,0,1,1.41.27,5.946,5.946,0,0,1,1.29.49,2.485,2.485,0,0,1,.95.87,2.661,2.661,0,0,1,.36,1.46,2.708,2.708,0,0,1-.59,1.74,3.8,3.8,0,0,1-1.67,1.15A7.274,7.274,0,0,1,107.66,19.14Zm11.02,0a3.8,3.8,0,0,1-2.72-.91,3.535,3.535,0,0,1-.96-2.69V5.96h2.5v9.52a1.669,1.669,0,0,0,.39,1.18,1.414,1.414,0,0,0,1.09.42,2.2,2.2,0,0,0,1.4-.44l.7,1.78a2.937,2.937,0,0,1-1.08.54A4.852,4.852,0,0,1,118.68,19.14Zm-5.44-8.74v-2h7.12v2Zm9.9,8.6V8.32h2.38v2.94l-.28-.86a3.378,3.378,0,0,1,1.51-1.64,5.331,5.331,0,0,1,2.57-.56v2.38a1.759,1.759,0,0,0-.3-.05q-.14-.01-.28-.01a3.075,3.075,0,0,0-2.26.83,3.328,3.328,0,0,0-.84,2.47V19Zm12.92.14a5.386,5.386,0,0,1-2.4-.51,3.66,3.66,0,0,1-1.62-1.56,5.433,5.433,0,0,1-.58-2.65V8.32h2.5v5.76a3.094,3.094,0,0,0,.65,2.15,2.382,2.382,0,0,0,1.85.71,3.109,3.109,0,0,0,1.53-.36,2.5,2.5,0,0,0,1.02-1.08,3.866,3.866,0,0,0,.37-1.78V8.32h2.5V19H139.5V16.12l.42.88a3.676,3.676,0,0,1-1.58,1.59A4.8,4.8,0,0,1,136.06,19.14Zm14,0a6.174,6.174,0,0,1-2.99-.71,5.249,5.249,0,0,1-2.05-1.95,5.4,5.4,0,0,1-.74-2.82,5.382,5.382,0,0,1,.74-2.83,5.2,5.2,0,0,1,2.05-1.93,6.245,6.245,0,0,1,2.99-.7,5.791,5.791,0,0,1,2.75.63,4.187,4.187,0,0,1,1.81,1.85L152.7,11.8a3.071,3.071,0,0,0-1.17-1.12,3.173,3.173,0,0,0-1.49-.36,3.434,3.434,0,0,0-1.66.4,2.874,2.874,0,0,0-1.16,1.15,3.608,3.608,0,0,0-.42,1.79,3.608,3.608,0,0,0,.42,1.79,2.874,2.874,0,0,0,1.16,1.15,3.434,3.434,0,0,0,1.66.4,3.173,3.173,0,0,0,1.49-.36,3.071,3.071,0,0,0,1.17-1.12l1.92,1.12a4.328,4.328,0,0,1-1.81,1.85A5.645,5.645,0,0,1,150.06,19.14Zm10.88,0a3.8,3.8,0,0,1-2.72-.91,3.535,3.535,0,0,1-.96-2.69V5.96h2.5v9.52a1.669,1.669,0,0,0,.39,1.18,1.414,1.414,0,0,0,1.09.42,2.2,2.2,0,0,0,1.4-.44l.7,1.78a2.937,2.937,0,0,1-1.08.54A4.852,4.852,0,0,1,160.94,19.14ZM155.5,10.4v-2h7.12v2Zm14.42,8.74a5.386,5.386,0,0,1-2.4-.51,3.66,3.66,0,0,1-1.62-1.56,5.433,5.433,0,0,1-.58-2.65V8.32h2.5v5.76a3.094,3.094,0,0,0,.65,2.15,2.382,2.382,0,0,0,1.85.71,3.109,3.109,0,0,0,1.53-.36,2.5,2.5,0,0,0,1.02-1.08,3.866,3.866,0,0,0,.37-1.78V8.32h2.5V19h-2.38V16.12l.42.88a3.676,3.676,0,0,1-1.58,1.59A4.8,4.8,0,0,1,169.92,19.14Zm9.1-.14V8.32h2.38v2.94l-.28-.86a3.378,3.378,0,0,1,1.51-1.64,5.331,5.331,0,0,1,2.57-.56v2.38a1.759,1.759,0,0,0-.3-.05q-.14-.01-.28-.01a3.075,3.075,0,0,0-2.26.83,3.328,3.328,0,0,0-.84,2.47V19Zm13.22.14a6.509,6.509,0,0,1-3.11-.71,5.144,5.144,0,0,1-2.06-1.95,5.453,5.453,0,0,1-.73-2.82,5.558,5.558,0,0,1,.71-2.83,5.1,5.1,0,0,1,1.96-1.93,5.732,5.732,0,0,1,2.85-.7,5.613,5.613,0,0,1,2.78.68,4.922,4.922,0,0,1,1.92,1.92,5.843,5.843,0,0,1,.7,2.92q0,.16-.01.36t-.03.38h-8.9V12.8h7.58l-.98.52a3.069,3.069,0,0,0-.38-1.62,2.927,2.927,0,0,0-1.09-1.1,3.112,3.112,0,0,0-1.59-.4,3.153,3.153,0,0,0-1.61.4,2.835,2.835,0,0,0-1.08,1.11,3.416,3.416,0,0,0-.39,1.67v.4a3.262,3.262,0,0,0,.44,1.7,2.933,2.933,0,0,0,1.24,1.14,4.061,4.061,0,0,0,1.84.4,4.44,4.44,0,0,0,1.62-.28,3.448,3.448,0,0,0,1.28-.88l1.34,1.54a4.705,4.705,0,0,1-1.81,1.29A6.479,6.479,0,0,1,192.24,19.14Zm15.42,3.74a14.451,14.451,0,0,1-1.81-4.21,20.149,20.149,0,0,1-.63-5.15,20.382,20.382,0,0,1,.63-5.17,13.874,13.874,0,0,1,1.81-4.19h2.38a18.41,18.41,0,0,0-1.79,4.49,20.1,20.1,0,0,0-.57,4.87,20.1,20.1,0,0,0,.57,4.87,18.41,18.41,0,0,0,1.79,4.49Zm11.18-3.68a8.162,8.162,0,0,1-2.97-.53,7.084,7.084,0,0,1-2.38-1.5,6.844,6.844,0,0,1-1.57-2.29,7.3,7.3,0,0,1-.56-2.88,7.3,7.3,0,0,1,.56-2.88,6.775,6.775,0,0,1,1.58-2.29,7.218,7.218,0,0,1,2.38-1.5,8.647,8.647,0,0,1,6.12.06,6.218,6.218,0,0,1,2.4,1.75l-1.68,1.58a4.92,4.92,0,0,0-3.74-1.64,5.419,5.419,0,0,0-2.01.36,4.617,4.617,0,0,0-2.62,2.58,5.159,5.159,0,0,0-.37,1.98,5.159,5.159,0,0,0,.37,1.98,4.617,4.617,0,0,0,2.62,2.58,5.419,5.419,0,0,0,2.01.36,5.047,5.047,0,0,0,2.04-.41,4.967,4.967,0,0,0,1.7-1.25l1.68,1.6A6.4,6.4,0,0,1,222,18.6,8.042,8.042,0,0,1,218.84,19.2Zm12.22-.06a5.918,5.918,0,0,1-2.92-.71,5.306,5.306,0,0,1-2.02-1.95,5.4,5.4,0,0,1-.74-2.82,5.382,5.382,0,0,1,.74-2.83,5.255,5.255,0,0,1,2.02-1.93,5.986,5.986,0,0,1,2.92-.7,6.086,6.086,0,0,1,2.95.7,5.187,5.187,0,0,1,2.02,1.92,5.425,5.425,0,0,1,.73,2.84,5.453,5.453,0,0,1-.73,2.82,5.213,5.213,0,0,1-2.02,1.95A6.017,6.017,0,0,1,231.06,19.14Zm0-2.14a3.32,3.32,0,0,0,1.64-.4,2.829,2.829,0,0,0,1.13-1.16,3.694,3.694,0,0,0,.41-1.78,3.679,3.679,0,0,0-.41-1.79,2.845,2.845,0,0,0-1.13-1.15,3.5,3.5,0,0,0-3.25,0,2.93,2.93,0,0,0-1.13,1.15,3.608,3.608,0,0,0-.42,1.79,3.622,3.622,0,0,0,.42,1.78,2.914,2.914,0,0,0,1.13,1.16A3.223,3.223,0,0,0,231.06,17Zm21.58-8.8a4.968,4.968,0,0,1,2.27.5,3.576,3.576,0,0,1,1.55,1.53,5.521,5.521,0,0,1,.56,2.65V19h-2.5V13.2a3.12,3.12,0,0,0-.62-2.12,2.252,2.252,0,0,0-1.78-.7,2.871,2.871,0,0,0-1.45.36,2.441,2.441,0,0,0-.98,1.06,3.973,3.973,0,0,0-.35,1.78V19h-2.5V13.2a3.12,3.12,0,0,0-.62-2.12,2.252,2.252,0,0,0-1.78-.7,2.871,2.871,0,0,0-1.45.36,2.441,2.441,0,0,0-.98,1.06,3.973,3.973,0,0,0-.35,1.78V19h-2.5V8.32h2.38v2.84l-.42-.84a3.631,3.631,0,0,1,1.57-1.58,4.985,4.985,0,0,1,2.35-.54,4.6,4.6,0,0,1,2.61.74,3.563,3.563,0,0,1,1.47,2.24l-.98-.34a4.121,4.121,0,0,1,1.72-1.92A5.3,5.3,0,0,1,252.64,8.2Zm13.5,10.94a4.762,4.762,0,0,1-2.37-.6,4.265,4.265,0,0,1-1.7-1.81,6.618,6.618,0,0,1-.63-3.07,6.789,6.789,0,0,1,.61-3.08,4.111,4.111,0,0,1,1.67-1.79,4.891,4.891,0,0,1,2.42-.59,5.6,5.6,0,0,1,2.79.68,5.052,5.052,0,0,1,1.92,1.9,5.625,5.625,0,0,1,.71,2.88,5.68,5.68,0,0,1-.71,2.89,5.031,5.031,0,0,1-1.92,1.91A5.6,5.6,0,0,1,266.14,19.14Zm-5.92,3.74V8.32h2.38v2.52l-.08,2.84.2,2.84v6.36ZM265.86,17a3.223,3.223,0,0,0,1.61-.4,2.914,2.914,0,0,0,1.13-1.16,3.622,3.622,0,0,0,.42-1.78,3.608,3.608,0,0,0-.42-1.79,2.93,2.93,0,0,0-1.13-1.15,3.223,3.223,0,0,0-1.61-.4,3.279,3.279,0,0,0-1.62.4,2.91,2.91,0,0,0-1.14,1.15,3.608,3.608,0,0,0-.42,1.79,3.622,3.622,0,0,0,.42,1.78,2.894,2.894,0,0,0,1.14,1.16A3.279,3.279,0,0,0,265.86,17Zm12.6,2.14a5.385,5.385,0,0,1-2.4-.51,3.66,3.66,0,0,1-1.62-1.56,5.433,5.433,0,0,1-.58-2.65V8.32h2.5v5.76a3.094,3.094,0,0,0,.65,2.15,2.382,2.382,0,0,0,1.85.71,3.109,3.109,0,0,0,1.53-.36,2.5,2.5,0,0,0,1.02-1.08,3.866,3.866,0,0,0,.37-1.78V8.32h2.5V19H281.9V16.12l.42.88a3.676,3.676,0,0,1-1.58,1.59A4.8,4.8,0,0,1,278.46,19.14Zm13.12,0a3.8,3.8,0,0,1-2.72-.91,3.535,3.535,0,0,1-.96-2.69V5.96h2.5v9.52a1.669,1.669,0,0,0,.39,1.18,1.414,1.414,0,0,0,1.09.42,2.2,2.2,0,0,0,1.4-.44l.7,1.78a2.937,2.937,0,0,1-1.08.54A4.852,4.852,0,0,1,291.58,19.14Zm-5.44-8.74v-2h7.12v2Zm14.56,8.74a6.509,6.509,0,0,1-3.11-.71,5.144,5.144,0,0,1-2.06-1.95,5.453,5.453,0,0,1-.73-2.82,5.558,5.558,0,0,1,.71-2.83,5.1,5.1,0,0,1,1.96-1.93,5.732,5.732,0,0,1,2.85-.7,5.613,5.613,0,0,1,2.78.68,4.923,4.923,0,0,1,1.92,1.92,5.843,5.843,0,0,1,.7,2.92q0,.16-.01.36t-.03.38h-8.9V12.8h7.58l-.98.52A3.069,3.069,0,0,0,303,11.7a2.926,2.926,0,0,0-1.09-1.1,3.112,3.112,0,0,0-1.59-.4,3.153,3.153,0,0,0-1.61.4,2.835,2.835,0,0,0-1.08,1.11,3.416,3.416,0,0,0-.39,1.67v.4a3.262,3.262,0,0,0,.44,1.7,2.933,2.933,0,0,0,1.24,1.14,4.061,4.061,0,0,0,1.84.4,4.44,4.44,0,0,0,1.62-.28,3.448,3.448,0,0,0,1.28-.88L305,17.4a4.706,4.706,0,0,1-1.81,1.29A6.479,6.479,0,0,1,300.7,19.14Zm8.6,3.74h-2.38a17.966,17.966,0,0,0,1.81-4.49,20.1,20.1,0,0,0,.57-4.87,20.1,20.1,0,0,0-.57-4.87,17.966,17.966,0,0,0-1.81-4.49h2.38a13.406,13.406,0,0,1,1.82,4.19,20.694,20.694,0,0,1,.62,5.17,20.457,20.457,0,0,1-.62,5.15A13.948,13.948,0,0,1,309.3,22.88ZM57.081,43V29h1.641l6.272,10.576h-.872L70.322,29h1.641l.017,14h-1.92l-.017-10.971h.447l-5.51,9.278h-.916L58.5,32.029H59V43Zm25.394,0V40.76l-.085-.425V36.51a2.453,2.453,0,0,0-.713-1.883,3.01,3.01,0,0,0-2.127-.668,5.646,5.646,0,0,0-1.85.307,4.807,4.807,0,0,0-1.522.829l-.8-1.428a5.809,5.809,0,0,1,1.977-1.019,8.211,8.211,0,0,1,2.414-.353,4.861,4.861,0,0,1,3.358,1.064,4.145,4.145,0,0,1,1.187,3.249V43Zm-3.467.111a5.1,5.1,0,0,1-2.081-.394,3.138,3.138,0,0,1-1.368-1.1,2.826,2.826,0,0,1-.481-1.621,3.018,3.018,0,0,1,.409-1.556,2.857,2.857,0,0,1,1.344-1.121,6.144,6.144,0,0,1,2.5-.424H82.7v1.393H79.414a2.873,2.873,0,0,0-1.927.476,1.534,1.534,0,0,0-.505,1.161,1.475,1.475,0,0,0,.624,1.25,2.844,2.844,0,0,0,1.725.462,3.637,3.637,0,0,0,1.887-.479,2.748,2.748,0,0,0,1.174-1.4l.369,1.324a2.968,2.968,0,0,1-1.343,1.493A4.847,4.847,0,0,1,79.008,43.111ZM87.855,43V32.4h1.92V43Zm.96-12.64a1.28,1.28,0,0,1-.93-.36,1.181,1.181,0,0,1-.37-.88,1.2,1.2,0,0,1,.37-.9,1.28,1.28,0,0,1,.93-.36,1.3,1.3,0,0,1,.93.35,1.149,1.149,0,0,1,.37.87,1.249,1.249,0,0,1-1.3,1.28ZM99.088,32.3a5.005,5.005,0,0,1,2.285.5,3.636,3.636,0,0,1,1.557,1.518A5.264,5.264,0,0,1,103.5,36.9V43h-1.92V37.12a3.235,3.235,0,0,0-.752-2.329,2.811,2.811,0,0,0-2.124-.78,3.691,3.691,0,0,0-1.766.406A2.779,2.779,0,0,0,95.767,35.6a4.107,4.107,0,0,0-.41,1.93V43h-1.92V32.407h1.836v2.856l-.31-.752a3.7,3.7,0,0,1,1.605-1.635A5.25,5.25,0,0,1,99.088,32.3Zm11.6,10.815a3.418,3.418,0,0,1-2.485-.852,3.283,3.283,0,0,1-.876-2.465V30.079h1.92v9.648a1.848,1.848,0,0,0,.43,1.308,1.6,1.6,0,0,0,1.234.462,2.262,2.262,0,0,0,1.483-.488l.6,1.378a2.8,2.8,0,0,1-1.045.543A4.488,4.488,0,0,1,110.689,43.111Zm-5.175-9.125V32.407h6.778v1.579ZM121.9,43V40.76l-.085-.425V36.51a2.453,2.453,0,0,0-.713-1.883,3.01,3.01,0,0,0-2.127-.668,5.646,5.646,0,0,0-1.85.307,4.807,4.807,0,0,0-1.522.829l-.8-1.428a5.809,5.809,0,0,1,1.977-1.019,8.211,8.211,0,0,1,2.414-.353,4.861,4.861,0,0,1,3.358,1.064,4.145,4.145,0,0,1,1.187,3.249V43Zm-3.467.111a5.1,5.1,0,0,1-2.081-.394,3.138,3.138,0,0,1-1.368-1.1,2.826,2.826,0,0,1-.481-1.621,3.018,3.018,0,0,1,.409-1.556,2.857,2.857,0,0,1,1.344-1.121,6.144,6.144,0,0,1,2.5-.424h3.363v1.393h-3.282a2.873,2.873,0,0,0-1.927.476,1.534,1.534,0,0,0-.505,1.161,1.475,1.475,0,0,0,.624,1.25,2.844,2.844,0,0,0,1.725.462,3.637,3.637,0,0,0,1.887-.479,2.748,2.748,0,0,0,1.174-1.4l.369,1.324a2.968,2.968,0,0,1-1.343,1.493A4.847,4.847,0,0,1,118.432,43.111ZM127.279,43V32.4h1.92V43Zm.96-12.64a1.28,1.28,0,0,1-.93-.36,1.181,1.181,0,0,1-.37-.88,1.2,1.2,0,0,1,.37-.9,1.28,1.28,0,0,1,.93-.36,1.3,1.3,0,0,1,.93.35,1.149,1.149,0,0,1,.37.87,1.249,1.249,0,0,1-1.3,1.28ZM138.512,32.3a5.005,5.005,0,0,1,2.285.5,3.636,3.636,0,0,1,1.557,1.518,5.264,5.264,0,0,1,.569,2.588V43H141V37.12a3.235,3.235,0,0,0-.752-2.329,2.811,2.811,0,0,0-2.124-.78,3.691,3.691,0,0,0-1.766.406,2.779,2.779,0,0,0-1.171,1.185,4.107,4.107,0,0,0-.41,1.93V43h-1.92V32.407H134.7v2.856l-.31-.752a3.7,3.7,0,0,1,1.605-1.635A5.25,5.25,0,0,1,138.512,32.3Zm12.678,10.815a6.191,6.191,0,0,1-2.989-.7,5.026,5.026,0,0,1-2-1.919,5.452,5.452,0,0,1-.712-2.794,5.6,5.6,0,0,1,.688-2.795,5,5,0,0,1,1.9-1.916,5.387,5.387,0,0,1,2.737-.7,5.32,5.32,0,0,1,2.712.684,4.853,4.853,0,0,1,1.855,1.911,5.868,5.868,0,0,1,.672,2.863q0,.121-.008.285t-.025.305h-9.022V36.95H155l-.768.486a3.523,3.523,0,0,0-.428-1.815,3.264,3.264,0,0,0-1.215-1.244,3.458,3.458,0,0,0-1.78-.451,3.506,3.506,0,0,0-1.787.451,3.157,3.157,0,0,0-1.215,1.252,3.833,3.833,0,0,0-.435,1.857V37.8a3.64,3.64,0,0,0,.485,1.887,3.349,3.349,0,0,0,1.362,1.281,4.292,4.292,0,0,0,2.021.46,4.528,4.528,0,0,0,1.717-.315,3.549,3.549,0,0,0,1.347-.964l1.057,1.243a4.579,4.579,0,0,1-1.781,1.278A6.239,6.239,0,0,1,151.191,43.111Zm11.9,0a5.555,5.555,0,0,1-2.754-.678,4.924,4.924,0,0,1-1.91-1.894,6.145,6.145,0,0,1,0-5.673,4.93,4.93,0,0,1,1.91-1.891,5.555,5.555,0,0,1,2.754-.678,4.908,4.908,0,0,1,2.422.6,4.393,4.393,0,0,1,1.736,1.8,6.24,6.24,0,0,1,.65,3.006,6.4,6.4,0,0,1-.633,3,4.272,4.272,0,0,1-1.719,1.809A4.978,4.978,0,0,1,163.095,43.111Zm.152-1.681a3.607,3.607,0,0,0,1.821-.46,3.353,3.353,0,0,0,1.278-1.306,4.325,4.325,0,0,0,0-3.935,3.36,3.36,0,0,0-1.278-1.295,3.846,3.846,0,0,0-3.64,0,3.373,3.373,0,0,0-1.278,1.295,4.314,4.314,0,0,0,0,3.935,3.366,3.366,0,0,0,1.278,1.306A3.6,3.6,0,0,0,163.247,41.43ZM166.87,43V40.146l.116-2.464-.2-2.464V28.16h1.92V43Zm16.472.111a4.99,4.99,0,0,1-2.447-.6,4.257,4.257,0,0,1-1.728-1.809,6.4,6.4,0,0,1-.633-3,6.24,6.24,0,0,1,.65-3.006,4.376,4.376,0,0,1,1.745-1.8,4.921,4.921,0,0,1,2.413-.6,5.543,5.543,0,0,1,2.763.678,4.945,4.945,0,0,1,1.9,1.891,6.147,6.147,0,0,1,0,5.673,4.939,4.939,0,0,1-1.9,1.894A5.543,5.543,0,0,1,183.343,43.111ZM177.732,43V28.16h1.92v7.058l-.2,2.464.116,2.464V43Zm5.459-1.57a3.608,3.608,0,0,0,1.821-.46,3.351,3.351,0,0,0,1.278-1.306,4.327,4.327,0,0,0,0-3.935,3.358,3.358,0,0,0-1.278-1.295,3.85,3.85,0,0,0-3.642,0,3.358,3.358,0,0,0-1.278,1.295,4.327,4.327,0,0,0,0,3.935,3.351,3.351,0,0,0,1.278,1.306A3.608,3.608,0,0,0,183.191,41.43Zm8.332,5.561a4.563,4.563,0,0,1-1.486-.247,3.321,3.321,0,0,1-1.226-.724l.823-1.435a2.785,2.785,0,0,0,.872.574,2.635,2.635,0,0,0,1.021.2A1.825,1.825,0,0,0,192.683,45a3.3,3.3,0,0,0,.87-1.269l.659-1.461.184-.258,4.175-9.6h1.879L195.3,44.069a6.342,6.342,0,0,1-1.033,1.754,3.221,3.221,0,0,1-1.247.906A4.136,4.136,0,0,1,191.523,46.991Zm2.515-3.653-4.826-10.932h2l4.107,9.435Zm17.932-.177a9.523,9.523,0,0,1-3.064-.492,6.279,6.279,0,0,1-2.295-1.268l.736-1.561A6.538,6.538,0,0,0,209.384,41a7.321,7.321,0,0,0,2.583.464,5.717,5.717,0,0,0,1.975-.285,2.377,2.377,0,0,0,1.119-.775,1.808,1.808,0,0,0,.36-1.1,1.542,1.542,0,0,0-.463-1.171,3.355,3.355,0,0,0-1.212-.707,14.608,14.608,0,0,0-1.656-.47q-.906-.2-1.814-.47a7.789,7.789,0,0,1-1.657-.689,3.473,3.473,0,0,1-1.212-1.129,3.263,3.263,0,0,1-.463-1.822,3.67,3.67,0,0,1,.574-2,3.992,3.992,0,0,1,1.765-1.46,7.246,7.246,0,0,1,3.033-.551,9.23,9.23,0,0,1,2.421.325,6.849,6.849,0,0,1,2.078.922l-.659,1.587a6.831,6.831,0,0,0-1.911-.861,7.346,7.346,0,0,0-1.943-.275,5.241,5.241,0,0,0-1.93.3,2.391,2.391,0,0,0-1.108.8,1.912,1.912,0,0,0-.35,1.125,1.545,1.545,0,0,0,.463,1.174,3.265,3.265,0,0,0,1.212.7q.749.257,1.657.47t1.814.472a7.826,7.826,0,0,1,1.655.674,3.409,3.409,0,0,1,1.212,1.118,3.208,3.208,0,0,1,.463,1.8,3.6,3.6,0,0,1-.584,1.982,4.041,4.041,0,0,1-1.788,1.459A7.366,7.366,0,0,1,211.97,43.161ZM226.608,43V40.76l-.085-.425V36.51a2.453,2.453,0,0,0-.713-1.883,3.01,3.01,0,0,0-2.127-.668,5.646,5.646,0,0,0-1.85.307,4.807,4.807,0,0,0-1.522.829l-.8-1.428a5.809,5.809,0,0,1,1.977-1.019A8.211,8.211,0,0,1,223.9,32.3a4.861,4.861,0,0,1,3.358,1.064,4.145,4.145,0,0,1,1.187,3.249V43Zm-3.467.111a5.1,5.1,0,0,1-2.081-.394,3.138,3.138,0,0,1-1.368-1.1,2.826,2.826,0,0,1-.481-1.621,3.018,3.018,0,0,1,.409-1.556,2.857,2.857,0,0,1,1.344-1.121,6.144,6.144,0,0,1,2.5-.424h3.363v1.393h-3.282a2.873,2.873,0,0,0-1.927.476,1.534,1.534,0,0,0-.505,1.161,1.475,1.475,0,0,0,.624,1.25,2.844,2.844,0,0,0,1.725.462,3.637,3.637,0,0,0,1.887-.479,2.748,2.748,0,0,0,1.174-1.4l.369,1.324a2.968,2.968,0,0,1-1.343,1.493A4.847,4.847,0,0,1,223.141,43.111ZM232.273,43V31.451a3.394,3.394,0,0,1,.9-2.473,3.455,3.455,0,0,1,2.593-.928,4.764,4.764,0,0,1,1.194.146,2.549,2.549,0,0,1,.961.458l-.584,1.462a2.053,2.053,0,0,0-.669-.362,2.528,2.528,0,0,0-.8-.126,1.683,1.683,0,0,0-1.293.47,1.961,1.961,0,0,0-.439,1.384v1.423l.051.878V43Zm-1.814-9.014V32.407h6.778v1.579Zm13.151,9.125a6.191,6.191,0,0,1-2.989-.7,5.026,5.026,0,0,1-2-1.919,5.452,5.452,0,0,1-.712-2.794,5.6,5.6,0,0,1,.688-2.795,5,5,0,0,1,1.9-1.916,5.387,5.387,0,0,1,2.737-.7,5.32,5.32,0,0,1,2.712.684,4.853,4.853,0,0,1,1.855,1.911,5.868,5.868,0,0,1,.672,2.863q0,.121-.008.285t-.025.305h-9.022V36.95h8.008l-.768.486a3.523,3.523,0,0,0-.428-1.815,3.264,3.264,0,0,0-1.215-1.244,3.458,3.458,0,0,0-1.78-.451,3.506,3.506,0,0,0-1.787.451,3.157,3.157,0,0,0-1.215,1.252,3.833,3.833,0,0,0-.435,1.857V37.8a3.64,3.64,0,0,0,.485,1.887,3.349,3.349,0,0,0,1.362,1.281,4.292,4.292,0,0,0,2.021.46,4.528,4.528,0,0,0,1.717-.315,3.549,3.549,0,0,0,1.347-.964l1.057,1.243A4.579,4.579,0,0,1,246,42.672,6.239,6.239,0,0,1,243.61,43.111Zm10.569,0a8.727,8.727,0,0,1-2.521-.358,5.9,5.9,0,0,1-1.874-.876l.814-1.519a6.21,6.21,0,0,0,1.678.79,6.7,6.7,0,0,0,2.037.317,3.672,3.672,0,0,0,1.93-.387,1.2,1.2,0,0,0,.6-1.052.927.927,0,0,0-.363-.781,2.567,2.567,0,0,0-.959-.424q-.6-.146-1.314-.252t-1.436-.275a5.472,5.472,0,0,1-1.314-.484,2.561,2.561,0,0,1-.959-.868,2.625,2.625,0,0,1-.363-1.463,2.7,2.7,0,0,1,.54-1.672,3.479,3.479,0,0,1,1.528-1.115,6.3,6.3,0,0,1,2.352-.4,9.014,9.014,0,0,1,2.111.256,5.553,5.553,0,0,1,1.748.7l-.814,1.519a4.742,4.742,0,0,0-1.5-.649,6.838,6.838,0,0,0-1.559-.182,3.465,3.465,0,0,0-1.879.407,1.213,1.213,0,0,0-.618,1.046,1,1,0,0,0,.363.83,2.653,2.653,0,0,0,.959.453,11.1,11.1,0,0,0,1.314.27q.718.106,1.434.275a5.762,5.762,0,0,1,1.313.474,2.333,2.333,0,0,1,1.322,2.277,2.611,2.611,0,0,1-.555,1.669,3.522,3.522,0,0,1-1.574,1.085A6.948,6.948,0,0,1,254.178,43.111Zm12.592,0a4.922,4.922,0,0,1-2.413-.6,4.362,4.362,0,0,1-1.745-1.808,6.253,6.253,0,0,1-.65-3A6.388,6.388,0,0,1,262.6,34.7a4.27,4.27,0,0,1,1.728-1.8,4.989,4.989,0,0,1,2.447-.6,5.543,5.543,0,0,1,2.763.678,4.942,4.942,0,0,1,1.9,1.892,6.147,6.147,0,0,1,0,5.673,4.942,4.942,0,0,1-1.9,1.892A5.543,5.543,0,0,1,266.771,43.111ZM261.16,46.88V32.407H263v2.854l-.116,2.464.2,2.464V46.88Zm5.459-5.45a3.618,3.618,0,0,0,1.821-.458,3.34,3.34,0,0,0,1.278-1.3,4.327,4.327,0,0,0,0-3.935,3.37,3.37,0,0,0-1.278-1.3,3.838,3.838,0,0,0-3.642,0,3.37,3.37,0,0,0-1.278,1.3,4.327,4.327,0,0,0,0,3.935,3.34,3.34,0,0,0,1.278,1.3A3.618,3.618,0,0,0,266.619,41.43ZM274.8,43V32.407h1.836v2.877l-.192-.719a3.332,3.332,0,0,1,1.487-1.688,5.165,5.165,0,0,1,2.563-.581v1.869q-.121-.017-.227-.025t-.214-.008a3.244,3.244,0,0,0-2.435.92,3.682,3.682,0,0,0-.9,2.676V43Zm8.061,0V32.4h1.92V43Zm.96-12.64a1.28,1.28,0,0,1-.93-.36,1.181,1.181,0,0,1-.37-.88,1.2,1.2,0,0,1,.37-.9,1.28,1.28,0,0,1,.93-.36,1.3,1.3,0,0,1,.93.35,1.149,1.149,0,0,1,.37.87,1.249,1.249,0,0,1-1.3,1.28ZM294.093,32.3a5,5,0,0,1,2.285.5,3.636,3.636,0,0,1,1.557,1.518A5.264,5.264,0,0,1,298.5,36.9V43h-1.92V37.12a3.235,3.235,0,0,0-.752-2.329,2.811,2.811,0,0,0-2.124-.78,3.691,3.691,0,0,0-1.766.406,2.779,2.779,0,0,0-1.171,1.185,4.107,4.107,0,0,0-.41,1.93V43h-1.92V32.407h1.836v2.856l-.31-.752a3.7,3.7,0,0,1,1.605-1.635A5.25,5.25,0,0,1,294.093,32.3Zm12.594,14.695a10.012,10.012,0,0,1-2.823-.4,5.849,5.849,0,0,1-2.247-1.167l.938-1.479a5.461,5.461,0,0,0,1.816,1,6.92,6.92,0,0,0,2.248.369,3.809,3.809,0,0,0,2.77-.874,3.6,3.6,0,0,0,.884-2.667V39.513l.2-2.1-.116-2.112v-2.9h1.836v9.15a5.409,5.409,0,0,1-1.4,4.119A5.788,5.788,0,0,1,306.688,46.991Zm-.232-4.432a5.766,5.766,0,0,1-2.759-.65,4.914,4.914,0,0,1-1.921-1.807,5.474,5.474,0,0,1,0-5.371,4.845,4.845,0,0,1,1.921-1.8,5.839,5.839,0,0,1,2.759-.64,5.457,5.457,0,0,1,2.472.556,4.279,4.279,0,0,1,1.788,1.694,5.555,5.555,0,0,1,.675,2.872,5.558,5.558,0,0,1-.675,2.87,4.343,4.343,0,0,1-1.788,1.706A5.377,5.377,0,0,1,306.455,42.559Zm.2-1.681a3.969,3.969,0,0,0,1.895-.438,3.248,3.248,0,0,0,1.288-1.219,3.72,3.72,0,0,0,0-3.607,3.2,3.2,0,0,0-1.288-1.208,4.372,4.372,0,0,0-3.78,0,3.181,3.181,0,0,0-1.3,1.208,3.72,3.72,0,0,0,0,3.607,3.231,3.231,0,0,0,1.3,1.219A3.985,3.985,0,0,0,306.658,40.878Z" transform="translate(653 9629)"/></g></svg>