<svg xmlns="http://www.w3.org/2000/svg" width="387" height="387" viewBox="0 0 387 387"><g transform="translate(-233 -237)"><rect width="387" height="387" transform="translate(233 237)" fill="#f8f8f8"/><path d="M23.54,47.693A15.708,15.708,0,0,1,39.233,32h70.62a15.708,15.708,0,0,1,15.693,15.693V126.16a15.708,15.708,0,0,1-15.693,15.693H19.617A19.611,19.611,0,0,1,0,122.237V55.54a7.847,7.847,0,0,1,15.693,0v66.7a3.923,3.923,0,1,0,7.847,0Zm15.693,5.885V73.195a5.871,5.871,0,0,0,5.885,5.885h58.85a5.871,5.871,0,0,0,5.885-5.885V53.578a5.871,5.871,0,0,0-5.885-5.885H45.118A5.871,5.871,0,0,0,39.233,53.578Zm0,45.118a3.935,3.935,0,0,0,3.923,3.923H66.7a3.923,3.923,0,1,0,0-7.847H43.157A3.935,3.935,0,0,0,39.233,98.7Zm39.233,0a3.935,3.935,0,0,0,3.923,3.923h23.54a3.923,3.923,0,0,0,0-7.847H82.39A3.935,3.935,0,0,0,78.467,98.7Zm-39.233,23.54a3.935,3.935,0,0,0,3.923,3.923H66.7a3.923,3.923,0,1,0,0-7.847H43.157A3.935,3.935,0,0,0,39.233,122.237Zm39.233,0a3.935,3.935,0,0,0,3.923,3.923h23.54a3.923,3.923,0,0,0,0-7.847H82.39A3.935,3.935,0,0,0,78.467,122.237Z" transform="translate(363.727 343.573)" fill="#606060"/></g></svg>