<svg xmlns="http://www.w3.org/2000/svg" width="739.875" height="566.157" viewBox="0 0 739.875 566.157"><g transform="translate(-135 -130)"><g transform="translate(91.688 420.64)"><path d="M338.044-147,633.879-72.4,338.052-2.7,42.259-72.4Z" transform="translate(75.205 165.36)" fill="#15465c" fill-rule="evenodd"/><path d="M665.731-104.5,739.875-9.092,369.937,78.055,0-9.092,74.144-104.5,369.937-34.819Z" transform="translate(43.312 197.462)" fill="#1b739d" fill-rule="evenodd"/><path d="M506.773-104.509l74.1,95.423L210.5,78.062l.478-112.868Z" transform="translate(202.31 197.455)" fill="#145576" fill-rule="evenodd" opacity="0.791"/></g><g transform="translate(99.979 -13.673)"><path d="M296.806-205.5l197.232,50.881L295.892-108.861,97.92-154.585Z" transform="translate(108.975 556.173)" fill="#1c5e80" fill-rule="evenodd"/><path d="M524.892-176.5l71.874,92.482L326.883-16.764,57-84.018,128.874-176.5l198.009,45.74Z" transform="translate(78.021 578.078)" fill="#5ab4e0" fill-rule="evenodd"/><path d="M409.023-176.51l71.8,92.5L210.5-16.757h0l.378-114Z" transform="translate(193.965 578.07)" fill="#1b739d" fill-rule="evenodd"/></g><g transform="translate(106.611 -38.52)"><path d="M284.584-56.679,113-99.5l73.584-94.818c32.193-43.054,96.49-129.158,96.5-129.2Z" transform="translate(114.389 492.033)" fill="#75e275" fill-rule="evenodd"/><path d="M210.3-322.976c.044.031,138.44,179.782,172.615,223.746L211.75-56.147C211.837-97.368,210.367-322.992,210.3-322.976Z" transform="translate(187.164 491.739)" fill="#41b441" fill-rule="evenodd"/></g><path d="M1522.741,4214.079l1.1-1.635a7.367,7.367,0,0,0,4.156,1.465,3.956,3.956,0,0,0,3.177-1.268,5.233,5.233,0,0,0,.877-3.248v-.457H1532a4.641,4.641,0,0,1-4.052,2.075,5.84,5.84,0,0,1,0-11.669,4.633,4.633,0,0,1,4.052,2.052h.073l-.024-1.832h2.312v9.024c0,2.559-.413,3.953-1.269,5a6.126,6.126,0,0,1-5.176,2.222A8.909,8.909,0,0,1,1522.741,4214.079Zm2.009-8.914a3.6,3.6,0,0,0,3.686,3.931v.012c2.392,0,3.685-1.745,3.685-3.942s-1.317-3.955-3.685-3.955S1524.75,4202.968,1524.75,4205.165Zm-39.605,10.4v-16.007h2.246v1.832h.049a4.919,4.919,0,0,1,4.114-2.052c3.417,0,5.6,2.564,5.6,6.005s-2.2,6.08-5.638,6.08a4.505,4.505,0,0,1-4-2.076l-.024-.024v6.242Zm2.234-10.246c0,2.32,1.366,4.1,3.685,4.1s3.686-1.782,3.686-4.1-1.366-4.077-3.686-4.077S1487.379,4203,1487.379,4205.324Zm-52.655,4.036,1.123-1.366a4.768,4.768,0,0,0,3.422,1.66c1.073,0,2.222-.382,2.222-1.66s-1.834-1.667-2.615-1.936a8.6,8.6,0,0,1-1.587-.61,2.992,2.992,0,0,1-1.83-2.784c0-2.147,1.86-3.32,3.911-3.32a5.083,5.083,0,0,1,3.955,1.513l-.978,1.442a4.249,4.249,0,0,0-2.933-1.247c-1.121,0-1.855.487-1.855,1.44s1.122,1.368,2.267,1.735c.636.218,1.076.364,1.565.56a4.462,4.462,0,0,1,1.342.838,2.866,2.866,0,0,1,.927,2.148,3.29,3.29,0,0,1-1.2,2.635,4.942,4.942,0,0,1-3.222,1.027A5.559,5.559,0,0,1,1434.724,4209.359Zm40.155-.008,1.125-1.366a4.768,4.768,0,0,0,3.422,1.66c1.075,0,2.222-.39,2.222-1.66s-1.833-1.66-2.613-1.929a8.743,8.743,0,0,1-1.586-.61,2.992,2.992,0,0,1-1.83-2.784c0-2.147,1.86-3.32,3.91-3.32a5.086,5.086,0,0,1,3.955,1.513l-.979,1.442a4.256,4.256,0,0,0-2.933-1.247c-1.122,0-1.855.487-1.855,1.44s1.121,1.368,2.271,1.735c.633.218,1.073.364,1.562.56a4.438,4.438,0,0,1,1.337.831,2.868,2.868,0,0,1,.929,2.149,3.3,3.3,0,0,1-1.2,2.635,4.938,4.938,0,0,1-3.222,1.027A5.559,5.559,0,0,1,1474.88,4209.352Zm-12.209-4a5.753,5.753,0,0,1,5.883-6.005,5.3,5.3,0,0,1,5.492,5.542,10.1,10.1,0,0,1-.073,1.026h-8.936a3.574,3.574,0,0,0,3.735,3.685,6.411,6.411,0,0,0,3.832-1.344l.978,1.344a6.872,6.872,0,0,1-5.1,1.832C1465.039,4211.428,1462.671,4209.01,1462.671,4205.348Zm2.393-1h6.765a3.363,3.363,0,0,0-3.343-3.321A3.412,3.412,0,0,0,1465.064,4204.348Zm-20.092,3.492c0-2.271,1.85-3.419,4.539-3.54l3.1-.122v-.464c0-1.757-1.2-2.638-2.882-2.638a7.119,7.119,0,0,0-3.489,1l-.71-1.562a8.936,8.936,0,0,1,4.346-1.173,4.93,4.93,0,0,1,3.832,1.318,4.8,4.8,0,0,1,1.244,3.759v6.75h-2.268l-.024-1.466a4.746,4.746,0,0,1-3.688,1.724C1446.828,4211.428,1444.972,4210.11,1444.972,4207.84Zm4.955-2.076c-1.879.1-2.638.9-2.638,2a2.116,2.116,0,0,0,2.393,2,3.647,3.647,0,0,0,2.955-1.685v-2.49Zm-52.587-2.676a13.192,13.192,0,0,1,24.778-8.992,8.554,8.554,0,0,1-.946,17.06.995.995,0,0,1,0-1.989,6.567,6.567,0,1,0,0-13.134,1,1,0,0,1-.995-.994,6.568,6.568,0,0,0-13.135,0,.993.993,0,0,1-.992.994,6.567,6.567,0,1,0,0,13.134h7.563a2.786,2.786,0,0,0,0-5.573,4.776,4.776,0,1,1,3.38-8.141.995.995,0,0,1-1.41,1.4,2.786,2.786,0,1,0-1.973,4.763,4.776,4.776,0,1,1,0,9.552h-7.56l-.17,0A8.556,8.556,0,0,1,1397.34,4203.088Zm121.353,8.082v-6.477c0-1.956-.342-3.422-2.414-3.422-2.172,0-2.979,1.832-2.979,4.052v5.847h-2.344v-11.606h2.344l-.024,1.831h.073a3.913,3.913,0,0,1,3.547-2.052c3.3,0,4.151,2.173,4.143,4.957v6.871Zm-20.237,0v-11.606h2.344l-.024,1.782h.074a3.037,3.037,0,0,1,2.854-2.007,3.862,3.862,0,0,1,.978.118v2.251a3.074,3.074,0,0,0-1.272-.246,2.449,2.449,0,0,0-1.9.978,5.181,5.181,0,0,0-.707,2.934v5.8Zm-41.531,0v-12.753a4.886,4.886,0,0,1,.782-3.1,3.51,3.51,0,0,1,2.784-1.269,7.489,7.489,0,0,1,1.513.136v1.769a4.483,4.483,0,0,0-.978-.124c-1.537,0-1.782,1.146-1.782,2.466v1.293H1462v1.879h-2.757v9.7Zm49.726-.012v-11.595h2.344v11.595Zm-.367-15.587a1.525,1.525,0,1,1,1.526,1.525A1.525,1.525,0,0,1,1506.284,4195.572Z" transform="translate(-1749.591 -3303.027) rotate(-13)" fill="#fff"/><path d="M1488.968,4082.606l1.179-1.756a7.9,7.9,0,0,0,4.463,1.575,4.252,4.252,0,0,0,3.413-1.362,5.62,5.62,0,0,0,.943-3.49v-.491h-.053a4.984,4.984,0,0,1-4.354,2.229,6.273,6.273,0,0,1,0-12.534,4.977,4.977,0,0,1,4.354,2.2h.079l-.026-1.967h2.484v9.694c0,2.749-.444,4.246-1.363,5.374a6.578,6.578,0,0,1-5.561,2.387A9.566,9.566,0,0,1,1488.968,4082.606Zm2.158-9.575c0,2.361,1.416,4.222,3.96,4.222v.013c2.57,0,3.959-1.875,3.959-4.236s-1.415-4.248-3.959-4.248S1491.125,4070.67,1491.125,4073.031Zm-42.545,11.177v-17.2h2.413v1.967h.052a5.279,5.279,0,0,1,4.419-2.2c3.671,0,6.018,2.754,6.018,6.451s-2.361,6.53-6.057,6.53a4.841,4.841,0,0,1-4.3-2.229l-.027-.027v6.706Zm2.4-11.007c0,2.492,1.468,4.406,3.959,4.406s3.96-1.914,3.96-4.406-1.468-4.379-3.96-4.379S1450.98,4070.71,1450.98,4073.2Zm-56.564,4.335,1.206-1.467a5.124,5.124,0,0,0,3.676,1.783c1.152,0,2.386-.41,2.386-1.784s-1.969-1.79-2.81-2.079a9.2,9.2,0,0,1-1.7-.657,3.211,3.211,0,0,1-1.966-2.99c0-2.305,2-3.565,4.2-3.565a5.456,5.456,0,0,1,4.248,1.625l-1.05,1.549a4.569,4.569,0,0,0-3.151-1.339c-1.206,0-1.993.523-1.993,1.547s1.2,1.47,2.437,1.864c.683.234,1.155.392,1.68.6a4.776,4.776,0,0,1,1.441.9,3.073,3.073,0,0,1,1,2.308,3.537,3.537,0,0,1-1.283,2.83,5.31,5.31,0,0,1-3.461,1.1A5.971,5.971,0,0,1,1394.416,4077.536Zm43.137-.007,1.208-1.468a5.111,5.111,0,0,0,3.676,1.783c1.155,0,2.387-.417,2.387-1.783s-1.969-1.782-2.807-2.072a9.4,9.4,0,0,1-1.7-.656,3.215,3.215,0,0,1-1.966-2.991c0-2.305,2-3.565,4.2-3.565a5.456,5.456,0,0,1,4.248,1.625l-1.05,1.549a4.578,4.578,0,0,0-3.151-1.339c-1.206,0-1.993.523-1.993,1.547s1.206,1.47,2.439,1.865c.681.233,1.153.391,1.678.6a4.747,4.747,0,0,1,1.436.893,3.075,3.075,0,0,1,1,2.308,3.543,3.543,0,0,1-1.286,2.831,5.308,5.308,0,0,1-3.461,1.1A5.974,5.974,0,0,1,1437.552,4077.529Zm-13.115-4.3a6.179,6.179,0,0,1,6.32-6.451,5.686,5.686,0,0,1,5.9,5.952,10.708,10.708,0,0,1-.079,1.1h-9.6a3.84,3.84,0,0,0,4.012,3.96,6.892,6.892,0,0,0,4.117-1.444l1.051,1.444a7.4,7.4,0,0,1-5.48,1.966C1426.981,4079.757,1424.438,4077.161,1424.438,4073.227Zm2.57-1.074h7.268a3.614,3.614,0,0,0-3.592-3.568A3.665,3.665,0,0,0,1427.008,4072.153Zm-21.583,3.75c0-2.44,1.988-3.673,4.876-3.8l3.332-.131v-.5c0-1.887-1.286-2.832-3.1-2.832a7.632,7.632,0,0,0-3.75,1.076l-.761-1.678a9.591,9.591,0,0,1,4.668-1.26,5.3,5.3,0,0,1,4.117,1.415c.841.866,1.337,1.914,1.337,4.039v7.251h-2.437l-.027-1.575a5.093,5.093,0,0,1-3.962,1.851C1407.417,4079.757,1405.425,4078.343,1405.425,4075.9Zm5.322-2.229c-2.019.105-2.833.972-2.833,2.151s.945,2.15,2.571,2.15a3.921,3.921,0,0,0,3.175-1.809v-2.676Zm-56.491-2.874a14.171,14.171,0,0,1,26.617-9.66,9.19,9.19,0,0,1-1.016,18.327,1.069,1.069,0,0,1,0-2.137,7.055,7.055,0,1,0,0-14.11,1.069,1.069,0,0,1-1.069-1.066,7.055,7.055,0,1,0-14.11,0,1.066,1.066,0,0,1-1.066,1.066,7.055,7.055,0,0,0,0,14.11h8.125a2.993,2.993,0,0,0,0-5.986,5.13,5.13,0,1,1,3.631-8.746,1.068,1.068,0,0,1-1.515,1.507,2.993,2.993,0,1,0-2.119,5.117,5.13,5.13,0,1,1,0,10.261h-8.122l-.184,0A9.19,9.19,0,0,1,1354.255,4070.8Zm130.364,8.683v-6.958c0-2.1-.368-3.676-2.594-3.676-2.334,0-3.2,1.966-3.2,4.353v6.281h-2.518v-12.469h2.518l-.027,1.966h.079a4.2,4.2,0,0,1,3.81-2.2c3.542,0,4.458,2.334,4.45,5.324v7.382Zm-21.741,0v-12.469h2.519l-.027,1.914h.079a3.265,3.265,0,0,1,3.067-2.155,4.12,4.12,0,0,1,1.05.125v2.418a3.3,3.3,0,0,0-1.365-.262,2.627,2.627,0,0,0-2.045,1.051,5.566,5.566,0,0,0-.759,3.151v6.227Zm-44.614,0v-13.7a5.259,5.259,0,0,1,.84-3.333,3.774,3.774,0,0,1,2.991-1.362,8.079,8.079,0,0,1,1.625.147v1.9a4.775,4.775,0,0,0-1.05-.134c-1.652,0-1.915,1.232-1.915,2.65v1.389h2.962v2.018h-2.962v10.424Zm53.418-.012v-12.457h2.517v12.457Zm-.394-16.744a1.638,1.638,0,1,1,1.638,1.639A1.638,1.638,0,0,1,1471.289,4062.725Z" transform="translate(-1634.488 -3047.737) rotate(-13)" fill="#fff"/><path d="M2082.642,4958.027a6.567,6.567,0,0,1-2.831-1.353,5.026,5.026,0,0,1-1.562-2.28,5.122,5.122,0,0,1-.094-2.8,5.22,5.22,0,0,1,1.3-2.49,4.987,4.987,0,0,1,2.312-1.375,6.105,6.105,0,0,1,5.369,1.2,4.771,4.771,0,0,1,1.447,2.2,5.47,5.47,0,0,1,.046,2.923q-.037.166-.1.376c-.041.141-.082.268-.122.383l-7.539-1.741a2.6,2.6,0,0,0,.117.8,2.475,2.475,0,0,0,.8,1.182,3.511,3.511,0,0,0,1.47.688,3.812,3.812,0,0,0,1.447.081,3.547,3.547,0,0,0,1.28-.479l1.151,2.022a4.607,4.607,0,0,1-2,.8,5.489,5.489,0,0,1-.827.061A7.415,7.415,0,0,1,2082.642,4958.027Zm3.48-5.51a2.53,2.53,0,0,0-.082-.91,2.4,2.4,0,0,0-.666-1.106,2.553,2.553,0,0,0-1.221-.626,2.632,2.632,0,0,0-1.381.025,2.318,2.318,0,0,0-1.084.708,2.7,2.7,0,0,0-.464.778Zm-15.355,2.767a6.264,6.264,0,0,1-2.711-1.315,5.148,5.148,0,0,1,2.062-8.93,6.264,6.264,0,0,1,3.014,0,5.706,5.706,0,0,1,2.591,1.284,4.016,4.016,0,0,1,1.283,2.264l-2.5.7a2.756,2.756,0,0,0-.747-1.263,2.58,2.58,0,0,0-1.187-.623,2.773,2.773,0,0,0-1.4.022,2.451,2.451,0,0,0-1.154.726,3.467,3.467,0,0,0-.686,2.967,2.435,2.435,0,0,0,.719,1.162,2.77,2.77,0,0,0,1.248.635,2.611,2.611,0,0,0,1.34-.035,2.694,2.694,0,0,0,1.226-.812l1.944,1.726a4.062,4.062,0,0,1-2.144,1.466,5.048,5.048,0,0,1-1.429.2A6.481,6.481,0,0,1,2070.767,4955.284Zm-11.271-2.75,2.3-9.96,2.888.667-2.3,9.96Zm-9.291-2.145-1.885-10.924,2.976.687,1.19,7.412,4.427-6.115,2.767.64-6.5,8.989Zm-11.89-2.745,2.3-9.958,2.751.636-.3,1.318a3.225,3.225,0,0,1,1.251-.678,5.016,5.016,0,0,1,2.519.011l-.615,2.663c-.122-.046-.232-.084-.331-.117s-.2-.06-.3-.083a2.764,2.764,0,0,0-2.082.236,2.836,2.836,0,0,0-1.212,1.94l-1.085,4.7Zm-7.713-1.631a6.576,6.576,0,0,1-2.832-1.353,5.015,5.015,0,0,1-1.56-2.281,5.129,5.129,0,0,1-.095-2.8,5.221,5.221,0,0,1,1.3-2.49,5,5,0,0,1,2.311-1.375,6.113,6.113,0,0,1,5.369,1.2,4.774,4.774,0,0,1,1.448,2.2,5.482,5.482,0,0,1,.046,2.923c-.026.111-.06.236-.1.375s-.082.268-.121.383l-7.538-1.74a2.612,2.612,0,0,0,.117.8,2.461,2.461,0,0,0,.8,1.18,3.467,3.467,0,0,0,1.47.689,3.81,3.81,0,0,0,1.447.081,3.6,3.6,0,0,0,1.279-.478l1.151,2.021a4.6,4.6,0,0,1-2,.8,5.484,5.484,0,0,1-.832.062A7.4,7.4,0,0,1,2030.6,4946.013Zm3.479-5.51a2.531,2.531,0,0,0-.081-.91,2.383,2.383,0,0,0-.664-1.106,2.563,2.563,0,0,0-1.221-.626,2.62,2.62,0,0,0-1.381.025,2.3,2.3,0,0,0-1.084.708,2.71,2.71,0,0,0-.465.779Zm-16.7,2.538a10.9,10.9,0,0,1-2.883-1.1,7.225,7.225,0,0,1-2.051-1.6l1.541-2.034a7.895,7.895,0,0,0,3.963,2.34,4.918,4.918,0,0,0,1.484.154,1.717,1.717,0,0,0,.915-.308,1.13,1.13,0,0,0,.422-.654,1.014,1.014,0,0,0-.22-.925,3.435,3.435,0,0,0-.962-.753q-.621-.349-1.385-.708t-1.512-.8a6.772,6.772,0,0,1-1.322-1,3.116,3.116,0,0,1-.844-3.133,3.7,3.7,0,0,1,1.061-1.877,4.234,4.234,0,0,1,2.149-1.042,7.643,7.643,0,0,1,3.183.158,10.519,10.519,0,0,1,2.336.844,7.369,7.369,0,0,1,1.9,1.335l-1.46,2.056a7.83,7.83,0,0,0-1.634-1.179,7.049,7.049,0,0,0-1.721-.657,4.371,4.371,0,0,0-1.471-.128,1.734,1.734,0,0,0-.918.347,1.245,1.245,0,0,0-.418.686.994.994,0,0,0,.223.913,3.334,3.334,0,0,0,.964.74q.623.338,1.39.7t1.513.795a6.786,6.786,0,0,1,1.32.991,3.086,3.086,0,0,1,.852,3.1,3.639,3.639,0,0,1-1.064,1.858,4.28,4.28,0,0,1-2.156,1.044,5.669,5.669,0,0,1-1.118.1A9.3,9.3,0,0,1,2017.38,4943.041Zm46.18-1.522a1.872,1.872,0,0,1-1.188-.761,1.609,1.609,0,0,1,.53-2.3,1.878,1.878,0,0,1,1.4-.163,1.958,1.958,0,0,1,1.2.733,1.459,1.459,0,0,1,.241,1.237,1.631,1.631,0,0,1-.766,1.08,1.685,1.685,0,0,1-.88.235A2.363,2.363,0,0,1,2063.56,4941.519Zm-63-2.592.283-1.226a2.593,2.593,0,0,1-1.078.665,4.245,4.245,0,0,1-2.264,0,4.76,4.76,0,0,1-1.9-.854,3.068,3.068,0,0,1-1.028-1.371,3.029,3.029,0,0,1,.7-3.1,2.9,2.9,0,0,1,1.619-.73,6.848,6.848,0,0,1,2.548.189l2.3.53v0a1.892,1.892,0,0,0-.233-1.573,2.6,2.6,0,0,0-1.621-.912,5.2,5.2,0,0,0-1.613-.114,4.29,4.29,0,0,0-1.471.37l-.566-2.248a6.166,6.166,0,0,1,2.174-.443,9.146,9.146,0,0,1,2.4.231,5.429,5.429,0,0,1,3.3,1.889,4.256,4.256,0,0,1,.485,3.629l-1.313,5.689Zm-2.665-4.655a1.1,1.1,0,0,0-.572.758,1.059,1.059,0,0,0,.23.967,1.958,1.958,0,0,0,1.108.6,2.618,2.618,0,0,0,1.385-.035,1.965,1.965,0,0,0,1.069-.824h0l.235-1.017-1.976-.457a3.966,3.966,0,0,0-.869-.116A1.3,1.3,0,0,0,1997.892,4934.272Zm98.784.311a6.583,6.583,0,0,1-2.831-1.353,5.026,5.026,0,0,1-1.562-2.28,5.122,5.122,0,0,1-.094-2.8,5.21,5.21,0,0,1,1.3-2.49,4.987,4.987,0,0,1,2.312-1.375,6.108,6.108,0,0,1,5.369,1.2,4.788,4.788,0,0,1,1.447,2.205,5.468,5.468,0,0,1,.046,2.923c-.025.111-.058.236-.1.376s-.082.268-.122.383l-7.538-1.741a2.594,2.594,0,0,0,.117.8,2.468,2.468,0,0,0,.8,1.181,3.493,3.493,0,0,0,1.47.689,3.81,3.81,0,0,0,1.447.081,3.569,3.569,0,0,0,1.279-.479l1.152,2.022a4.587,4.587,0,0,1-2,.8,5.472,5.472,0,0,1-.831.062A7.407,7.407,0,0,1,2096.676,4934.583Zm3.479-5.51a2.5,2.5,0,0,0-.082-.91,2.384,2.384,0,0,0-.664-1.106,2.564,2.564,0,0,0-1.221-.626,2.632,2.632,0,0,0-1.381.025,2.312,2.312,0,0,0-1.084.708,2.7,2.7,0,0,0-.464.778Zm-119.3,5.453a9.822,9.822,0,0,1-2.367-.869,6.584,6.584,0,0,1-1.7-1.193l1.445-1.843a6.315,6.315,0,0,0,1.456,1.062,7.031,7.031,0,0,0,1.794.692,3.079,3.079,0,0,0,1.468.084.758.758,0,0,0,.572-.567.585.585,0,0,0-.2-.6,2.916,2.916,0,0,0-.8-.473q-.513-.219-1.136-.456a12.7,12.7,0,0,1-1.231-.547,4.666,4.666,0,0,1-1.073-.744,2.475,2.475,0,0,1-.664-1.047,3.01,3.01,0,0,1,.93-3.006,3.69,3.69,0,0,1,1.839-.768,6.832,6.832,0,0,1,2.57.161,10.386,10.386,0,0,1,2.031.7,5.986,5.986,0,0,1,1.61,1.039l-1.446,1.843a5.015,5.015,0,0,0-1.315-.917,6.753,6.753,0,0,0-1.373-.483,3.006,3.006,0,0,0-1.478-.068.78.78,0,0,0-.595.555.622.622,0,0,0,.2.632,2.876,2.876,0,0,0,.793.494q.511.229,1.132.467a11.738,11.738,0,0,1,1.227.55,4.894,4.894,0,0,1,1.069.742,2.444,2.444,0,0,1,.668,1.035,2.927,2.927,0,0,1-.921,2.959,3.694,3.694,0,0,1-1.859.75,5.436,5.436,0,0,1-.767.052A8.368,8.368,0,0,1,1980.852,4934.526Zm-9.552-2.353.283-1.227a2.584,2.584,0,0,1-1.078.666,4.254,4.254,0,0,1-2.263,0,4.766,4.766,0,0,1-1.905-.854,3.082,3.082,0,0,1-1.027-1.372,3.029,3.029,0,0,1,.7-3.095,2.9,2.9,0,0,1,1.619-.73,6.848,6.848,0,0,1,2.548.189l2.3.53v0a1.893,1.893,0,0,0-.233-1.573,2.591,2.591,0,0,0-1.621-.913,5.2,5.2,0,0,0-1.613-.112,4.267,4.267,0,0,0-1.471.369l-.568-2.249a6.168,6.168,0,0,1,2.174-.442,9.213,9.213,0,0,1,2.4.23,5.438,5.438,0,0,1,3.3,1.889,4.263,4.263,0,0,1,.485,3.63l-1.314,5.689Zm-2.665-4.655a1.1,1.1,0,0,0-.572.758,1.062,1.062,0,0,0,.229.967,1.975,1.975,0,0,0,1.109.6,2.608,2.608,0,0,0,1.385-.036,1.968,1.968,0,0,0,1.069-.823h0l.235-1.017-1.976-.457a3.954,3.954,0,0,0-.871-.116A1.285,1.285,0,0,0,1968.635,4927.518Zm114.392,3.766,2.3-9.959,2.751.635-.3,1.319a3.2,3.2,0,0,1,1.251-.677,5.01,5.01,0,0,1,2.519.011l-.615,2.663c-.122-.046-.231-.086-.331-.117s-.2-.06-.3-.083a2.769,2.769,0,0,0-2.083.235,2.842,2.842,0,0,0-1.211,1.94l-1.085,4.7Zm-6.355-1.467.268-1.159a3.513,3.513,0,0,1-1.145.55,4.458,4.458,0,0,1-2.236.037,5.08,5.08,0,0,1-2.105-.985,3.49,3.49,0,0,1-1.171-1.818,5.37,5.37,0,0,1,.04-2.657l1.3-5.625,2.888.667-1.2,5.192a2.74,2.74,0,0,0,.107,1.958,1.965,1.965,0,0,0,1.353.926,2.475,2.475,0,0,0,1.259-.015,2.057,2.057,0,0,0,1.023-.7,3.449,3.449,0,0,0,.646-1.437l1.137-4.927,2.888.667-2.3,9.959Zm-12.225-2.674a4.025,4.025,0,0,1-2.539-1.525,3.532,3.532,0,0,1-.36-2.9l.947-4.1-1.545-.357.513-2.216,1.544.356.561-2.431,2.888.667-.561,2.43,2.476.571-.513,2.217-2.475-.571-.936,4.052a1.405,1.405,0,0,0,.1,1.054,1.2,1.2,0,0,0,.819.556,1.953,1.953,0,0,0,1.264-.095l.295,2.211a3.134,3.134,0,0,1-1.164.22h-.074A5.484,5.484,0,0,1,2064.447,4927.142Zm-11.293-2.607a6.26,6.26,0,0,1-2.711-1.316,5.147,5.147,0,0,1,2.062-8.93,6.253,6.253,0,0,1,3.014.006,5.69,5.69,0,0,1,2.591,1.283,4.022,4.022,0,0,1,1.283,2.263l-2.5.7a2.759,2.759,0,0,0-.747-1.263,2.591,2.591,0,0,0-1.188-.624,2.774,2.774,0,0,0-1.4.022,2.436,2.436,0,0,0-1.154.727,3.062,3.062,0,0,0-.686,1.4,3.107,3.107,0,0,0,0,1.564,2.447,2.447,0,0,0,.718,1.162,2.758,2.758,0,0,0,1.249.633,2.623,2.623,0,0,0,1.339-.034,2.716,2.716,0,0,0,1.227-.812l1.944,1.725a4.06,4.06,0,0,1-2.144,1.467,5.067,5.067,0,0,1-1.429.2A6.505,6.505,0,0,1,2053.154,4924.535Zm-11.128-2.717.267-1.159a3.521,3.521,0,0,1-1.144.551,4.48,4.48,0,0,1-2.237.036,5.1,5.1,0,0,1-2.1-.984,3.5,3.5,0,0,1-1.172-1.819,5.386,5.386,0,0,1,.041-2.657l1.3-5.625,2.888.667-1.2,5.193a2.74,2.74,0,0,0,.106,1.958,1.965,1.965,0,0,0,1.354.924,2.455,2.455,0,0,0,1.258-.014,2.057,2.057,0,0,0,1.023-.7,3.452,3.452,0,0,0,.647-1.437l1.137-4.926,2.888.667-2.3,9.96Zm-16.19-3.738,2.3-9.958,2.751.636-.3,1.318a3.217,3.217,0,0,1,1.251-.677,5.016,5.016,0,0,1,2.519.011l-.615,2.663c-.122-.046-.233-.084-.331-.117s-.2-.06-.3-.083a2.768,2.768,0,0,0-2.083.236,2.831,2.831,0,0,0-1.211,1.938l-1.085,4.7Zm-4.944-.993a4.027,4.027,0,0,1-2.538-1.525,3.527,3.527,0,0,1-.36-2.9l.947-4.1-1.545-.357.511-2.216,1.546.357.561-2.431,2.888.667-.561,2.43,2.475.571-.511,2.217-2.475-.571-.935,4.052a1.406,1.406,0,0,0,.1,1.054,1.2,1.2,0,0,0,.819.556,1.949,1.949,0,0,0,1.263-.095l.3,2.211a3.145,3.145,0,0,1-1.165.22h-.074A5.512,5.512,0,0,1,2020.892,4917.086Zm-11.484-2.651a9.861,9.861,0,0,1-2.367-.868,6.627,6.627,0,0,1-1.7-1.194l1.447-1.842a6.283,6.283,0,0,0,1.455,1.062,7.009,7.009,0,0,0,1.794.69,3.08,3.08,0,0,0,1.468.085.757.757,0,0,0,.572-.568.584.584,0,0,0-.2-.6,2.892,2.892,0,0,0-.8-.474q-.513-.218-1.136-.456a12.57,12.57,0,0,1-1.231-.547,4.606,4.606,0,0,1-1.073-.744,2.488,2.488,0,0,1-.666-1.046,3.014,3.014,0,0,1,.931-3.006,3.691,3.691,0,0,1,1.839-.768,6.843,6.843,0,0,1,2.57.161,10.388,10.388,0,0,1,2.031.7,5.976,5.976,0,0,1,1.61,1.041l-1.446,1.842a5.031,5.031,0,0,0-1.315-.917,6.838,6.838,0,0,0-1.373-.482,2.979,2.979,0,0,0-1.478-.067.777.777,0,0,0-.595.554.623.623,0,0,0,.2.632,2.865,2.865,0,0,0,.793.494q.511.23,1.132.467a12.066,12.066,0,0,1,1.227.55,4.906,4.906,0,0,1,1.069.741,2.453,2.453,0,0,1,.668,1.036,2.926,2.926,0,0,1-.921,2.959,3.685,3.685,0,0,1-1.859.75,5.436,5.436,0,0,1-.767.052A8.4,8.4,0,0,1,2009.407,4914.435Zm-9.552-2.354.283-1.227a2.591,2.591,0,0,1-1.078.666,4.255,4.255,0,0,1-2.264,0,4.759,4.759,0,0,1-1.905-.854,3.078,3.078,0,0,1-1.027-1.371,3.029,3.029,0,0,1,.7-3.095,2.9,2.9,0,0,1,1.619-.73,6.848,6.848,0,0,1,2.548.189l2.3.53v0a1.893,1.893,0,0,0-.233-1.573,2.6,2.6,0,0,0-1.621-.914,5.216,5.216,0,0,0-1.613-.112,4.279,4.279,0,0,0-1.471.368l-.568-2.249a6.212,6.212,0,0,1,2.174-.442,9.234,9.234,0,0,1,2.4.23,5.439,5.439,0,0,1,3.3,1.89,4.264,4.264,0,0,1,.485,3.628l-1.314,5.689Zm-2.666-4.655a1.1,1.1,0,0,0-.572.758,1.059,1.059,0,0,0,.23.967,1.966,1.966,0,0,0,1.108.6,2.6,2.6,0,0,0,1.385-.036,1.963,1.963,0,0,0,1.069-.822h0l.235-1.017-1.975-.456a3.948,3.948,0,0,0-.872-.117A1.28,1.28,0,0,0,1997.19,4907.426Zm-11.616,1.359,2.3-9.96,2.751.636-.3,1.318a3.209,3.209,0,0,1,1.251-.676,5,5,0,0,1,2.519.01l-.615,2.663c-.122-.045-.231-.084-.331-.117s-.2-.06-.3-.083a2.774,2.774,0,0,0-2.083.236,2.839,2.839,0,0,0-1.211,1.94l-1.085,4.7Zm-7.808-1.8,1.737-7.522-1.545-.357.513-2.216,1.545.357.1-.446a3.741,3.741,0,0,1,1.618-2.458,3.937,3.937,0,0,1,3.082-.346,5.889,5.889,0,0,1,1.178.4,2.967,2.967,0,0,1,.9.626l-1.237,1.917a2.205,2.205,0,0,0-.48-.381,2.09,2.09,0,0,0-.606-.24,1.321,1.321,0,0,0-1.063.134,1.581,1.581,0,0,0-.6,1.016l-.1.422,2.56.591-.511,2.216-2.475-.571-1.737,7.522Zm-6.772-1.563,1.216-5.268a2.6,2.6,0,0,0-.12-1.894,1.974,1.974,0,0,0-1.35-.914,2.661,2.661,0,0,0-1.307,0,2.033,2.033,0,0,0-1.05.683,3.39,3.39,0,0,0-.652,1.446l-1.137,4.925-2.888-.667,2.3-9.958,2.751.634-.273,1.183a3.7,3.7,0,0,1,1.2-.558,4.9,4.9,0,0,1,2.394-.005,4.8,4.8,0,0,1,2.015.957,3.5,3.5,0,0,1,1.141,1.778,5.233,5.233,0,0,1-.036,2.621l-1.315,5.7Zm-14.095-3.255,2.991-12.958,3.006.694-2.991,12.958Zm174.744-83.137a6.576,6.576,0,0,1-2.832-1.352,5.012,5.012,0,0,1-1.561-2.281,5.13,5.13,0,0,1-.094-2.8,5.209,5.209,0,0,1,1.3-2.49,4.988,4.988,0,0,1,2.311-1.375,6.106,6.106,0,0,1,5.369,1.2,4.77,4.77,0,0,1,1.448,2.205,5.467,5.467,0,0,1,.046,2.923c-.026.111-.06.235-.1.376s-.082.268-.121.383l-7.538-1.74a2.6,2.6,0,0,0,.117.8,2.473,2.473,0,0,0,.8,1.181,3.489,3.489,0,0,0,1.469.688,3.811,3.811,0,0,0,1.447.081,3.542,3.542,0,0,0,1.279-.478l1.152,2.022a4.6,4.6,0,0,1-2,.8,5.563,5.563,0,0,1-.828.061A7.413,7.413,0,0,1,2131.643,4819.026Zm3.479-5.51a2.539,2.539,0,0,0-.082-.91,2.392,2.392,0,0,0-.665-1.106,2.571,2.571,0,0,0-1.221-.626,2.635,2.635,0,0,0-1.381.025,2.311,2.311,0,0,0-1.084.709,2.68,2.68,0,0,0-.464.778Zm-15.354,2.769a6.25,6.25,0,0,1-2.711-1.317,5.147,5.147,0,0,1,2.062-8.929,6.265,6.265,0,0,1,3.014.006,5.7,5.7,0,0,1,2.591,1.283,4.028,4.028,0,0,1,1.283,2.264l-2.5.7a2.759,2.759,0,0,0-.747-1.263,2.58,2.58,0,0,0-1.188-.622,2.741,2.741,0,0,0-1.4.022,2.427,2.427,0,0,0-1.155.726,3.071,3.071,0,0,0-.685,1.4,3.105,3.105,0,0,0,0,1.564,2.429,2.429,0,0,0,.718,1.161,2.751,2.751,0,0,0,1.25.634,2.607,2.607,0,0,0,1.339-.033,2.7,2.7,0,0,0,1.227-.814l1.943,1.726a4.053,4.053,0,0,1-2.143,1.467,5.068,5.068,0,0,1-1.429.2A6.532,6.532,0,0,1,2119.768,4816.285Zm-11.271-2.75,2.3-9.96,2.888.666-2.3,9.96Zm-9.291-2.146-1.886-10.925,2.978.688,1.19,7.411,4.427-6.114,2.766.639-6.494,8.99Zm-11.89-2.745,2.3-9.958,2.751.635-.3,1.318a3.2,3.2,0,0,1,1.251-.676,5.009,5.009,0,0,1,2.519.01l-.615,2.664c-.122-.046-.233-.086-.331-.117s-.2-.06-.3-.083a2.767,2.767,0,0,0-2.083.235,2.837,2.837,0,0,0-1.211,1.94l-1.085,4.7Zm-7.713-1.632a6.575,6.575,0,0,1-2.832-1.352,5.027,5.027,0,0,1-1.561-2.281,5.105,5.105,0,0,1-.094-2.8,5.207,5.207,0,0,1,1.3-2.49,4.994,4.994,0,0,1,2.312-1.375,6.108,6.108,0,0,1,5.369,1.2,4.782,4.782,0,0,1,1.447,2.205,5.465,5.465,0,0,1,.046,2.923c-.025.111-.058.235-.1.376s-.082.268-.122.382l-7.538-1.739a2.594,2.594,0,0,0,.116.8,2.478,2.478,0,0,0,.8,1.181,3.5,3.5,0,0,0,1.469.688,3.781,3.781,0,0,0,1.447.081,3.544,3.544,0,0,0,1.28-.478l1.151,2.022a4.621,4.621,0,0,1-2,.8,5.418,5.418,0,0,1-.827.062A7.436,7.436,0,0,1,2079.6,4807.012Zm3.479-5.51a2.54,2.54,0,0,0-.081-.91,2.4,2.4,0,0,0-.666-1.106,2.57,2.57,0,0,0-1.221-.626,2.617,2.617,0,0,0-1.38.025,2.293,2.293,0,0,0-1.084.709,2.691,2.691,0,0,0-.466.778Zm-16.7,2.538a10.876,10.876,0,0,1-2.884-1.1,7.207,7.207,0,0,1-2.05-1.605l1.539-2.033a7.895,7.895,0,0,0,3.965,2.339,4.905,4.905,0,0,0,1.484.156,1.722,1.722,0,0,0,.915-.308,1.12,1.12,0,0,0,.42-.656,1.014,1.014,0,0,0-.219-.923,3.455,3.455,0,0,0-.962-.754q-.621-.347-1.385-.708t-1.513-.8a6.808,6.808,0,0,1-1.32-1,3.113,3.113,0,0,1-.845-3.133,3.7,3.7,0,0,1,1.063-1.878,4.218,4.218,0,0,1,2.149-1.042,7.629,7.629,0,0,1,3.183.158,10.363,10.363,0,0,1,2.334.844,7.316,7.316,0,0,1,1.9,1.335l-1.458,2.056a7.78,7.78,0,0,0-1.635-1.178,6.968,6.968,0,0,0-1.72-.657,4.332,4.332,0,0,0-1.471-.128,1.709,1.709,0,0,0-.918.347,1.241,1.241,0,0,0-.418.684.992.992,0,0,0,.223.914,3.339,3.339,0,0,0,.963.74q.625.34,1.391.7t1.513.8a6.78,6.78,0,0,1,1.32.99,3.081,3.081,0,0,1,.851,3.1,3.636,3.636,0,0,1-1.064,1.856,4.278,4.278,0,0,1-2.156,1.044,5.649,5.649,0,0,1-1.12.105A9.241,9.241,0,0,1,2066.381,4804.041Zm46.18-1.521a1.886,1.886,0,0,1-1.19-.763,1.609,1.609,0,0,1,.53-2.294,1.885,1.885,0,0,1,1.4-.164,1.954,1.954,0,0,1,1.195.734,1.454,1.454,0,0,1,.241,1.236,1.622,1.622,0,0,1-.767,1.08,1.673,1.673,0,0,1-.88.236A2.379,2.379,0,0,1,2112.56,4802.52Zm-63-2.592.283-1.228a2.577,2.577,0,0,1-1.08.665,4.225,4.225,0,0,1-2.262,0,4.779,4.779,0,0,1-1.905-.853,3.063,3.063,0,0,1-1.027-1.373,3.03,3.03,0,0,1,.7-3.095,2.9,2.9,0,0,1,1.618-.729,6.871,6.871,0,0,1,2.55.188l2.3.53h0a1.893,1.893,0,0,0-.233-1.573,2.6,2.6,0,0,0-1.622-.914,5.216,5.216,0,0,0-1.613-.113,4.294,4.294,0,0,0-1.471.37l-.567-2.249a6.183,6.183,0,0,1,2.174-.442,9.171,9.171,0,0,1,2.4.23,5.442,5.442,0,0,1,3.3,1.889,4.267,4.267,0,0,1,.485,3.63l-1.314,5.688Zm-2.665-4.656a1.1,1.1,0,0,0-.574.758,1.065,1.065,0,0,0,.23.968,1.966,1.966,0,0,0,1.109.6,2.614,2.614,0,0,0,1.384-.036,1.962,1.962,0,0,0,1.069-.822l.235-1.017-1.975-.457a3.972,3.972,0,0,0-.872-.117A1.285,1.285,0,0,0,2046.893,4795.271Zm-17.042.254a9.9,9.9,0,0,1-2.367-.868,6.548,6.548,0,0,1-1.7-1.194l1.446-1.842a6.307,6.307,0,0,0,1.455,1.062,7.014,7.014,0,0,0,1.794.692,3.089,3.089,0,0,0,1.468.083.759.759,0,0,0,.574-.566.586.586,0,0,0-.205-.6,2.873,2.873,0,0,0-.8-.473q-.513-.218-1.135-.456a13.1,13.1,0,0,1-1.232-.547,4.65,4.65,0,0,1-1.071-.746,2.467,2.467,0,0,1-.666-1.046,3.013,3.013,0,0,1,.93-3,3.691,3.691,0,0,1,1.84-.768,6.845,6.845,0,0,1,2.57.161,10.32,10.32,0,0,1,2.031.7,6.006,6.006,0,0,1,1.609,1.04l-1.446,1.842a5.009,5.009,0,0,0-1.314-.917,6.81,6.81,0,0,0-1.373-.483,3.015,3.015,0,0,0-1.478-.067.776.776,0,0,0-.595.555.619.619,0,0,0,.2.631,2.907,2.907,0,0,0,.794.494q.51.229,1.132.466a11.914,11.914,0,0,1,1.226.55,4.87,4.87,0,0,1,1.07.743,2.446,2.446,0,0,1,.667,1.036,2.922,2.922,0,0,1-.921,2.959,3.7,3.7,0,0,1-1.859.749,5.364,5.364,0,0,1-.767.052A8.4,8.4,0,0,1,2029.851,4795.525Zm-9.552-2.352.283-1.227a2.578,2.578,0,0,1-1.078.665,4.235,4.235,0,0,1-2.262,0,4.779,4.779,0,0,1-1.905-.853,3.064,3.064,0,0,1-1.027-1.373,3.024,3.024,0,0,1,.7-3.095,2.914,2.914,0,0,1,1.618-.73,6.886,6.886,0,0,1,2.55.189l2.3.53v0a1.894,1.894,0,0,0-.233-1.573,2.6,2.6,0,0,0-1.621-.912,5.177,5.177,0,0,0-1.614-.113,4.264,4.264,0,0,0-1.47.368l-.568-2.247a6.14,6.14,0,0,1,2.174-.442,9.11,9.11,0,0,1,2.4.23,5.442,5.442,0,0,1,3.3,1.889,4.262,4.262,0,0,1,.484,3.63l-1.313,5.688Zm-2.664-4.656a1.1,1.1,0,0,0-.574.758,1.066,1.066,0,0,0,.23.968,1.974,1.974,0,0,0,1.109.6,2.614,2.614,0,0,0,1.384-.036,1.966,1.966,0,0,0,1.069-.822l.235-1.019-1.975-.456a3.94,3.94,0,0,0-.872-.117A1.286,1.286,0,0,0,2017.635,4788.517Zm101.734.844,1.216-5.266a2.725,2.725,0,0,0-.09-1.888,1.8,1.8,0,0,0-1.258-.893,2.306,2.306,0,0,0-1.2.024,1.977,1.977,0,0,0-.972.678,3.463,3.463,0,0,0-.615,1.4l-1.155,5-2.888-.667,1.216-5.266a2.737,2.737,0,0,0-.082-1.885,1.794,1.794,0,0,0-1.265-.895,2.313,2.313,0,0,0-1.2.023,1.969,1.969,0,0,0-.972.678,3.465,3.465,0,0,0-.616,1.4l-1.154,5-2.888-.666,2.3-9.96,2.752.635-.265,1.146a3.584,3.584,0,0,1,1.127-.541,4.541,4.541,0,0,1,2.3-.023,4.3,4.3,0,0,1,2.235,1.242,3.07,3.07,0,0,1,.676,1.133,4.209,4.209,0,0,1,1.271-.688,4.824,4.824,0,0,1,2.7-.1,4.679,4.679,0,0,1,1.99.951,3.409,3.409,0,0,1,1.106,1.771,5.391,5.391,0,0,1-.053,2.617l-1.315,5.7Zm-2.6-8.279ZM2096.6,4784.1l2.3-9.958,2.752.634-.3,1.319a3.21,3.21,0,0,1,1.252-.677,5,5,0,0,1,2.519.01l-.615,2.664c-.122-.046-.233-.086-.332-.117s-.2-.06-.3-.084a2.775,2.775,0,0,0-2.083.236,2.833,2.833,0,0,0-1.211,1.94l-1.085,4.7Zm-8.361-1.782a6.023,6.023,0,0,1-2.662-1.309,5.175,5.175,0,0,1,2.061-8.926,6.037,6.037,0,0,1,2.965-.006,6.123,6.123,0,0,1,2.673,1.307,5.042,5.042,0,0,1,1.521,2.252,5.514,5.514,0,0,1-1.223,5.306,5.031,5.031,0,0,1-2.359,1.369,5.594,5.594,0,0,1-1.456.188A6.736,6.736,0,0,1,2088.24,4782.323Zm.452-7.846a2.462,2.462,0,0,0-1.129.731,3.107,3.107,0,0,0-.682,1.4,3.146,3.146,0,0,0,0,1.556,2.445,2.445,0,0,0,.689,1.165,2.8,2.8,0,0,0,2.594.6,2.4,2.4,0,0,0,1.126-.746,3.183,3.183,0,0,0,.675-1.4,3.134,3.134,0,0,0,.008-1.556,2.428,2.428,0,0,0-.687-1.152,2.626,2.626,0,0,0-1.221-.627,2.876,2.876,0,0,0-.652-.077A2.46,2.46,0,0,0,2088.692,4774.477Zm-12.753,4.858,1.737-7.522-1.545-.357.513-2.216,1.544.356.1-.447a3.746,3.746,0,0,1,1.618-2.458,3.948,3.948,0,0,1,3.082-.346,5.864,5.864,0,0,1,1.178.406,2.948,2.948,0,0,1,.9.626l-1.237,1.917a2.153,2.153,0,0,0-.48-.381,2.091,2.091,0,0,0-.606-.242,1.326,1.326,0,0,0-1.063.136,1.578,1.578,0,0,0-.6,1.016l-.1.421,2.56.591-.511,2.216-2.475-.571-1.737,7.521Zm-5.295-1.075a4.026,4.026,0,0,1-2.538-1.526,3.526,3.526,0,0,1-.36-2.9l.947-4.1-1.545-.356.511-2.216,1.546.357.561-2.43,2.888.666-.561,2.431,2.475.572-.511,2.216-2.475-.572-.936,4.052a1.4,1.4,0,0,0,.1,1.054,1.2,1.2,0,0,0,.819.556,1.939,1.939,0,0,0,1.263-.094l.295,2.212a3.162,3.162,0,0,1-1.163.219h-.074A5.511,5.511,0,0,1,2070.644,4778.26Zm-10.287-2.522.283-1.228a2.586,2.586,0,0,1-1.079.666,4.24,4.24,0,0,1-2.263,0,4.763,4.763,0,0,1-1.9-.853,3.075,3.075,0,0,1-1.028-1.373,3.031,3.031,0,0,1,.7-3.095,2.9,2.9,0,0,1,1.619-.73,6.882,6.882,0,0,1,2.549.189l2.3.53v0a1.894,1.894,0,0,0-.233-1.573,2.6,2.6,0,0,0-1.622-.912,5.171,5.171,0,0,0-1.613-.113,4.28,4.28,0,0,0-1.471.368l-.567-2.247a6.146,6.146,0,0,1,2.174-.442,9.109,9.109,0,0,1,2.4.23,5.433,5.433,0,0,1,3.3,1.889,4.262,4.262,0,0,1,.485,3.63l-1.313,5.688Zm-2.666-4.656a1.1,1.1,0,0,0-.572.758,1.061,1.061,0,0,0,.229.967,1.975,1.975,0,0,0,1.109.6,2.618,2.618,0,0,0,1.385-.036,1.969,1.969,0,0,0,1.069-.824h0l.235-1.017-1.975-.456a3.931,3.931,0,0,0-.871-.117A1.292,1.292,0,0,0,2057.691,4771.081Zm-9.921,1.75,3.172-13.737,2.888.667-3.172,13.737Zm-14.272-3.294,2.991-12.96,5.6,1.293a7.527,7.527,0,0,1,2.879,1.26,4.487,4.487,0,0,1,1.572,2.071,4.641,4.641,0,0,1,.1,2.668,4.591,4.591,0,0,1-1.259,2.339,4.52,4.52,0,0,1-2.319,1.173,7.474,7.474,0,0,1-3.141-.128l-2.6-.6-.826,3.576Zm6.837-4.761a3.192,3.192,0,0,0,2.205-.113,2.393,2.393,0,0,0,.765-3.316,3.188,3.188,0,0,0-1.931-1.069l-2.441-.564-1.039,4.5Zm131.018-75.425a5.872,5.872,0,0,1-2.533-1.209,4.48,4.48,0,0,1-1.4-2.041,4.569,4.569,0,0,1-.084-2.5,4.661,4.661,0,0,1,1.163-2.227,4.455,4.455,0,0,1,2.068-1.231,5.144,5.144,0,0,1,2.571-.023,5.091,5.091,0,0,1,2.232,1.1,4.256,4.256,0,0,1,1.3,1.972,4.881,4.881,0,0,1,.041,2.614c-.022.1-.052.211-.09.337s-.073.239-.108.342l-6.745-1.558a2.318,2.318,0,0,0,.1.716,2.2,2.2,0,0,0,.717,1.057,3.128,3.128,0,0,0,1.315.616,3.386,3.386,0,0,0,1.294.072,3.178,3.178,0,0,0,1.145-.427l1.032,1.808a4.123,4.123,0,0,1-1.794.713,4.879,4.879,0,0,1-.742.055A6.615,6.615,0,0,1,2171.353,4689.351Zm3.113-4.929a2.257,2.257,0,0,0-.073-.815,2.151,2.151,0,0,0-.595-.989,2.3,2.3,0,0,0-1.093-.56,2.355,2.355,0,0,0-1.236.022,2.063,2.063,0,0,0-.969.635,2.417,2.417,0,0,0-.416.7Zm-13.737,2.477a5.607,5.607,0,0,1-2.427-1.177,4.606,4.606,0,0,1,1.844-7.99,5.6,5.6,0,0,1,2.7.005,5.09,5.09,0,0,1,2.317,1.148,3.6,3.6,0,0,1,1.148,2.026l-2.24.625a2.484,2.484,0,0,0-.668-1.13,2.323,2.323,0,0,0-1.063-.558,2.48,2.48,0,0,0-1.253.02,2.188,2.188,0,0,0-1.033.649,3.094,3.094,0,0,0-.612,2.654,2.186,2.186,0,0,0,.642,1.041,2.472,2.472,0,0,0,1.117.567,2.339,2.339,0,0,0,1.2-.031,2.426,2.426,0,0,0,1.1-.727l1.739,1.543a3.627,3.627,0,0,1-1.918,1.313,4.551,4.551,0,0,1-1.28.178A5.8,5.8,0,0,1,2160.729,4686.9Zm-10.086-2.461,2.058-8.911,2.583.6-2.057,8.912Zm-8.312-1.919-1.687-9.774,2.663.615,1.065,6.632,3.961-5.472,2.476.571-5.811,8.045Zm-10.638-2.455,2.057-8.911,2.461.567-.272,1.18a2.868,2.868,0,0,1,1.12-.605,4.481,4.481,0,0,1,2.254.009l-.55,2.384c-.108-.042-.208-.077-.3-.106s-.179-.052-.271-.075a2.479,2.479,0,0,0-1.864.212,2.537,2.537,0,0,0-1.083,1.736l-.972,4.2Zm-6.9-1.462a5.86,5.86,0,0,1-2.534-1.208,4.5,4.5,0,0,1-1.4-2.041,4.584,4.584,0,0,1-.083-2.506,4.662,4.662,0,0,1,1.162-2.228,4.471,4.471,0,0,1,2.068-1.23,5.473,5.473,0,0,1,4.8,1.076,4.271,4.271,0,0,1,1.3,1.973,4.9,4.9,0,0,1,.041,2.616c-.022.1-.052.211-.09.336s-.073.239-.108.343l-6.745-1.557a2.323,2.323,0,0,0,.1.715,2.2,2.2,0,0,0,.717,1.056,3.108,3.108,0,0,0,1.314.617,3.43,3.43,0,0,0,1.3.072,3.189,3.189,0,0,0,1.145-.428l1.03,1.809a4.11,4.11,0,0,1-1.793.712,4.89,4.89,0,0,1-.742.055A6.609,6.609,0,0,1,2124.791,4678.6Zm3.112-4.929a2.271,2.271,0,0,0-.072-.814,2.166,2.166,0,0,0-.595-.991,2.309,2.309,0,0,0-1.093-.56,2.354,2.354,0,0,0-1.236.022,2.06,2.06,0,0,0-.971.635,2.41,2.41,0,0,0-.415.7Zm-14.942,2.271a9.73,9.73,0,0,1-2.581-.987,6.438,6.438,0,0,1-1.834-1.436l1.378-1.819a7.081,7.081,0,0,0,3.546,2.093,4.377,4.377,0,0,0,1.329.14,1.534,1.534,0,0,0,.818-.275,1,1,0,0,0,.377-.586.9.9,0,0,0-.2-.828,3.091,3.091,0,0,0-.86-.674c-.371-.208-.784-.418-1.239-.633s-.907-.453-1.354-.716a6.04,6.04,0,0,1-1.181-.9,2.785,2.785,0,0,1-.757-2.8,3.32,3.32,0,0,1,.951-1.68,3.788,3.788,0,0,1,1.923-.932,6.846,6.846,0,0,1,2.848.142,9.276,9.276,0,0,1,2.089.754,6.564,6.564,0,0,1,1.7,1.2l-1.305,1.839a6.941,6.941,0,0,0-1.462-1.055,6.263,6.263,0,0,0-1.539-.587,3.89,3.89,0,0,0-1.315-.115,1.539,1.539,0,0,0-.823.31,1.11,1.11,0,0,0-.373.613.888.888,0,0,0,.2.818,3,3,0,0,0,.863.662q.558.3,1.244.627t1.354.713a6.037,6.037,0,0,1,1.181.887,2.757,2.757,0,0,1,.763,2.775,3.256,3.256,0,0,1-.953,1.661,3.819,3.819,0,0,1-1.929.935,5.023,5.023,0,0,1-1,.094A8.309,8.309,0,0,1,2112.961,4675.943Zm41.318-1.361a1.684,1.684,0,0,1-1.064-.681,1.439,1.439,0,0,1,.474-2.054,1.681,1.681,0,0,1,1.256-.147,1.741,1.741,0,0,1,1.069.657,1.3,1.3,0,0,1,.216,1.1,1.456,1.456,0,0,1-.686.967,1.5,1.5,0,0,1-.787.211A2.1,2.1,0,0,1,2154.279,4674.582Zm-56.371-2.319.254-1.1a2.323,2.323,0,0,1-.965.6,3.792,3.792,0,0,1-2.026,0,4.265,4.265,0,0,1-1.7-.763,2.753,2.753,0,0,1-.92-1.227,2.708,2.708,0,0,1,.631-2.77,2.6,2.6,0,0,1,1.447-.653,6.164,6.164,0,0,1,2.281.169l2.054.475v0a1.7,1.7,0,0,0-.208-1.407,2.324,2.324,0,0,0-1.451-.817,4.657,4.657,0,0,0-1.444-.1,3.843,3.843,0,0,0-1.315.33l-.508-2.011a5.5,5.5,0,0,1,1.945-.4,8.2,8.2,0,0,1,2.149.207,4.869,4.869,0,0,1,2.948,1.69,3.817,3.817,0,0,1,.434,3.248l-1.176,5.089Zm-2.384-4.165a.983.983,0,0,0-.513.678.953.953,0,0,0,.205.866,1.77,1.77,0,0,0,.992.536,2.342,2.342,0,0,0,1.24-.032,1.759,1.759,0,0,0,.956-.734l.211-.913-1.767-.408a3.558,3.558,0,0,0-.78-.1A1.148,1.148,0,0,0,2095.524,4668.1Zm-15.247.228a8.864,8.864,0,0,1-2.118-.778,5.9,5.9,0,0,1-1.52-1.068l1.293-1.648a5.637,5.637,0,0,0,1.3.949,6.264,6.264,0,0,0,1.605.62,2.792,2.792,0,0,0,1.314.076.68.68,0,0,0,.511-.509.518.518,0,0,0-.183-.536,2.585,2.585,0,0,0-.713-.424q-.459-.194-1.017-.407a11.336,11.336,0,0,1-1.1-.491,4.117,4.117,0,0,1-.959-.666,2.212,2.212,0,0,1-.595-.937,2.7,2.7,0,0,1,.831-2.689,3.315,3.315,0,0,1,1.646-.687,6.134,6.134,0,0,1,2.3.143,9.291,9.291,0,0,1,1.817.628,5.307,5.307,0,0,1,1.44.93l-1.293,1.648a4.5,4.5,0,0,0-1.176-.821,6.191,6.191,0,0,0-1.228-.432,2.673,2.673,0,0,0-1.323-.06.693.693,0,0,0-.533.5.554.554,0,0,0,.177.565,2.6,2.6,0,0,0,.709.441q.457.206,1.013.417a10.578,10.578,0,0,1,1.1.493,4.345,4.345,0,0,1,.957.665,2.172,2.172,0,0,1,.6.926,2.615,2.615,0,0,1-.824,2.648,3.3,3.3,0,0,1-1.664.671,4.827,4.827,0,0,1-.686.046A7.541,7.541,0,0,1,2080.277,4668.325Zm-8.546-2.105.253-1.1a2.319,2.319,0,0,1-.965.595,3.787,3.787,0,0,1-2.024,0,4.237,4.237,0,0,1-1.7-.763,2.744,2.744,0,0,1-.92-1.227,2.708,2.708,0,0,1,.63-2.769,2.593,2.593,0,0,1,1.448-.653,6.128,6.128,0,0,1,2.281.168l2.054.475v0a1.7,1.7,0,0,0-.208-1.407,2.319,2.319,0,0,0-1.451-.816,4.631,4.631,0,0,0-1.444-.1,3.832,3.832,0,0,0-1.315.331l-.508-2.012a5.555,5.555,0,0,1,1.945-.4,8.259,8.259,0,0,1,2.149.207,4.869,4.869,0,0,1,2.948,1.69,3.817,3.817,0,0,1,.433,3.248l-1.175,5.089Zm-2.384-4.167a.983.983,0,0,0-.513.678.952.952,0,0,0,.205.866,1.757,1.757,0,0,0,.992.536,2.336,2.336,0,0,0,1.238-.032,1.755,1.755,0,0,0,.957-.737h0l.21-.91-1.767-.408a3.536,3.536,0,0,0-.78-.1A1.161,1.161,0,0,0,2069.346,4662.053Zm90.621,1.064a5.866,5.866,0,0,1-2.533-1.209,4.475,4.475,0,0,1-1.4-2.041,4.581,4.581,0,0,1-.084-2.5,4.663,4.663,0,0,1,1.163-2.228,4.46,4.46,0,0,1,2.068-1.23,5.465,5.465,0,0,1,4.8,1.076,4.26,4.26,0,0,1,1.3,1.972,4.874,4.874,0,0,1,.041,2.616c-.022.1-.052.21-.09.336s-.072.239-.108.342l-6.745-1.557a2.31,2.31,0,0,0,.1.716,2.208,2.208,0,0,0,.717,1.057,3.13,3.13,0,0,0,1.315.617,3.428,3.428,0,0,0,1.3.071,3.179,3.179,0,0,0,1.144-.427l1.031,1.808a4.107,4.107,0,0,1-1.793.713,4.893,4.893,0,0,1-.742.055A6.585,6.585,0,0,1,2159.967,4663.117Zm3.113-4.929a2.246,2.246,0,0,0-.073-.813,2.142,2.142,0,0,0-.595-.99,2.3,2.3,0,0,0-1.093-.56,2.349,2.349,0,0,0-1.236.022,2.063,2.063,0,0,0-.969.633,2.425,2.425,0,0,0-.416.7Zm-15.325,1.978,2.057-8.911,2.463.568L2152,4653a2.88,2.88,0,0,1,1.119-.606,4.5,4.5,0,0,1,2.254.01l-.55,2.383c-.108-.041-.208-.076-.3-.1s-.179-.054-.271-.075a2.475,2.475,0,0,0-1.864.211,2.541,2.541,0,0,0-1.083,1.735l-.972,4.2Zm-5.591-1.29.254-1.1a2.312,2.312,0,0,1-.965.6,3.805,3.805,0,0,1-2.026,0,4.265,4.265,0,0,1-1.7-.764,2.739,2.739,0,0,1-.918-1.227,2.708,2.708,0,0,1,.63-2.769,2.585,2.585,0,0,1,1.448-.653,6.123,6.123,0,0,1,2.28.168l2.054.475v0a1.7,1.7,0,0,0-.208-1.407,2.322,2.322,0,0,0-1.451-.816,4.718,4.718,0,0,0-1.444-.1,3.839,3.839,0,0,0-1.315.331l-.508-2.012a5.555,5.555,0,0,1,1.945-.4,8.259,8.259,0,0,1,2.149.207,4.869,4.869,0,0,1,2.948,1.69,3.817,3.817,0,0,1,.434,3.248l-1.176,5.091Zm-2.384-4.167a.99.99,0,0,0-.513.678.949.949,0,0,0,.207.866,1.757,1.757,0,0,0,.992.536,2.322,2.322,0,0,0,1.238-.032,1.759,1.759,0,0,0,.957-.737h0l.209-.909-1.768-.408a3.536,3.536,0,0,0-.78-.1A1.161,1.161,0,0,0,2139.78,4654.709Zm-10.525,1.186-.722-6.012-3.337,5.075-2.495-.576-1.16-9.654,2.445.565.7,6.505,3.575-5.517,2.191.5.731,6.541,3.566-5.549,2.28.526-5.285,8.167Zm-12.842-2.832a3.6,3.6,0,0,1-2.271-1.365,3.154,3.154,0,0,1-.322-2.591l.847-3.669-1.382-.319.458-1.983,1.382.319.5-2.175,2.584.6-.5,2.175,2.215.511-.458,1.983-2.214-.511-.837,3.625a1.256,1.256,0,0,0,.091.943,1.078,1.078,0,0,0,.733.5,1.748,1.748,0,0,0,1.131-.084l.264,1.979a2.821,2.821,0,0,1-1.042.2h-.073A4.926,4.926,0,0,1,2116.413,4653.063Zm-10.535-2.566,1.554-6.73-1.382-.319.458-1.982,1.382.319.092-.4a3.35,3.35,0,0,1,1.447-2.2,3.526,3.526,0,0,1,2.758-.31,5.314,5.314,0,0,1,1.054.362,2.627,2.627,0,0,1,.808.56l-1.107,1.715a1.946,1.946,0,0,0-.429-.34,1.864,1.864,0,0,0-.542-.216,1.175,1.175,0,0,0-.949.122,1.4,1.4,0,0,0-.535.908l-.087.377,2.291.529-.458,1.982-2.214-.511-1.555,6.73Zm-7.795-1.667a5.387,5.387,0,0,1-2.382-1.171,4.632,4.632,0,0,1,1.843-7.987,5.405,5.405,0,0,1,2.654,0,5.478,5.478,0,0,1,2.392,1.168,4.5,4.5,0,0,1,1.36,2.015,4.938,4.938,0,0,1-1.095,4.749,4.51,4.51,0,0,1-2.11,1.225,5.036,5.036,0,0,1-1.3.167A6.031,6.031,0,0,1,2098.083,4648.831Zm.4-7.019a2.2,2.2,0,0,0-1.009.654,2.771,2.771,0,0,0-.61,1.254,2.811,2.811,0,0,0,0,1.391,2.181,2.181,0,0,0,.617,1.043,2.336,2.336,0,0,0,1.087.561,2.368,2.368,0,0,0,1.233-.025,2.161,2.161,0,0,0,1.008-.668,2.85,2.85,0,0,0,.6-1.252,2.794,2.794,0,0,0,.006-1.394,2.176,2.176,0,0,0-.615-1.031,2.355,2.355,0,0,0-1.093-.561,2.59,2.59,0,0,0-.583-.069A2.2,2.2,0,0,0,2098.487,4641.812Zm-12.048,4.4a9.8,9.8,0,0,1-2.581-.987,6.453,6.453,0,0,1-1.834-1.436l1.377-1.819a7.058,7.058,0,0,0,3.546,2.093,4.351,4.351,0,0,0,1.328.138,1.531,1.531,0,0,0,.819-.273,1.008,1.008,0,0,0,.377-.587.9.9,0,0,0-.2-.826,3.062,3.062,0,0,0-.86-.675q-.556-.311-1.239-.633t-1.354-.715a6.025,6.025,0,0,1-1.181-.9,2.786,2.786,0,0,1-.756-2.8,3.309,3.309,0,0,1,.951-1.68,3.777,3.777,0,0,1,1.922-.932,6.846,6.846,0,0,1,2.848.142,9.3,9.3,0,0,1,2.089.754,6.561,6.561,0,0,1,1.7,1.195l-1.305,1.84a6.946,6.946,0,0,0-1.462-1.055,6.263,6.263,0,0,0-1.539-.587,3.9,3.9,0,0,0-1.315-.116,1.551,1.551,0,0,0-.823.311,1.1,1.1,0,0,0-.373.614.888.888,0,0,0,.2.816,3.009,3.009,0,0,0,.864.664q.558.3,1.243.627t1.355.713a6.026,6.026,0,0,1,1.181.886,2.76,2.76,0,0,1,.763,2.775,3.273,3.273,0,0,1-.953,1.663,3.818,3.818,0,0,1-1.929.933,5.06,5.06,0,0,1-1,.094A8.292,8.292,0,0,1,2086.439,4646.215Z" transform="translate(-1694.828 -4323.463)" fill="#fff"/></g></svg>