<svg xmlns="http://www.w3.org/2000/svg" viewBox="0 0 407.68 404.44"><defs><style>.a{fill:#417da5;}</style></defs><path class="a" d="M298.43,84.68a95.17,95.17,0,0,0-189.18,0,95.17,95.17,0,0,0,10.48,189.76h84.11a53.12,53.12,0,0,0,0-106.23,31,31,0,1,1,22-52.85,11.06,11.06,0,0,0,15.68-15.6,53.11,53.11,0,1,0-37.64,90.57,31,31,0,0,1,0,62H119.73a73,73,0,0,1,0-146.09A11.07,11.07,0,0,0,130.8,95.17a73,73,0,1,1,146.08,0A11.07,11.07,0,0,0,288,106.23a73,73,0,0,1,0,146.09,11.06,11.06,0,1,0,0,22.12A95.17,95.17,0,0,0,298.43,84.68Z"/><path class="a" d="M27.27,359.32c-2-.8-3.8-1.4-6.4-2.3-4.69-1.49-9.28-3.19-9.28-7.09s3-5.89,7.59-5.89a17.39,17.39,0,0,1,12,5.1l4-5.9c-3-3.19-7.79-6.19-16.18-6.19S3,341.84,3,350.63c0,6.79,4.49,9.89,7.49,11.39,2.19,1.2,3.29,1.4,6.49,2.5s10.69,2.69,10.69,7.89-4.7,6.79-9.09,6.79a19.5,19.5,0,0,1-14-6.79L0,378c4,5.19,10.49,8.49,18.48,8.49,5.49,0,9.88-1.5,13.18-4.2a13.47,13.47,0,0,0,4.89-10.78,11.71,11.71,0,0,0-3.79-8.79A18.24,18.24,0,0,0,27.27,359.32Z"/><path class="a" d="M62,337.05a36.65,36.65,0,0,0-17.78,4.79l2.9,6.4a29.11,29.11,0,0,1,14.28-4.1c6.89,0,11.79,3.6,11.79,10.79v1.9l-12.69.49c-11,.5-18.57,5.2-18.57,14.49s7.59,14.68,16.37,14.68,13.19-5.1,15.09-7.09l.1,6h9.28V357.82c0-8.09-1.89-12.08-5.09-15.38S69.89,337.05,62,337.05ZM73.29,372.8c-1.8,2.7-5.9,6.9-12.09,6.9s-9.79-3.7-9.79-8.19,3.1-7.79,10.79-8.19l11.09-.7Z"/><path class="a" d="M138.41,337.05c-13.18,0-24.07,9.59-24.07,24.57s9.69,24.87,23.77,24.87,20.27-7,20.87-7.49l-4-5.5a26.23,26.23,0,0,1-15.68,5.5c-8.79,0-14.78-5.7-15.28-15.08h36.55a41.4,41.4,0,0,0,.3-4.2C160.88,346.44,151.59,337.05,138.41,337.05Zm-14.28,20.47c.3-5.69,4.49-13.58,14-13.58s13.58,8.29,13.68,13.58Z"/><path class="a" d="M191.58,359.32c-2-.8-3.8-1.4-6.39-2.3-4.7-1.49-9.29-3.19-9.29-7.09s3-5.89,7.59-5.89a17.41,17.41,0,0,1,12,5.1l4-5.9c-3-3.19-7.79-6.19-16.18-6.19s-16,4.79-16,13.58c0,6.79,4.49,9.89,7.49,11.39,2.2,1.2,3.3,1.4,6.49,2.5S192,367.21,192,372.41s-4.69,6.79-9.09,6.79a19.48,19.48,0,0,1-14-6.79l-4.6,5.59c4,5.19,10.49,8.49,18.48,8.49,5.49,0,9.89-1.5,13.18-4.2a13.48,13.48,0,0,0,4.9-10.78,11.71,11.71,0,0,0-3.8-8.79A18.12,18.12,0,0,0,191.58,359.32Z"/><path class="a" d="M232.51,337.05a20.12,20.12,0,0,0-16.88,8.39h-.2V338h-9.19v65.49h9.59V377.9l.1.1c3.39,5.29,8.89,8.49,16.38,8.49,14.08,0,23.07-10.79,23.07-24.87S246.49,337.05,232.51,337.05Zm-2,41.25c-9.49,0-15.08-7.29-15.08-16.78s5.59-16.68,15.08-16.68,15.08,7.19,15.08,16.68S240,378.3,230.51,378.3Z"/><rect class="a" x="294.28" y="337.95" width="9.59" height="47.44"/><path class="a" d="M336.19,337.05a16,16,0,0,0-14.48,8.39h-.3l.1-7.49h-9.59v47.44h9.59V361.52c0-9.09,3.3-16.58,12.19-16.58,8.48,0,9.88,6,9.88,14v26.47h9.59V357.32C353.17,345.94,349.67,337.05,336.19,337.05Z"/><path class="a" d="M398.19,338l.1,7.49H398c-2.79-4.39-8.29-8.39-16.58-8.39-12.18,0-22.87,8.79-22.87,23.87s10.69,23.87,22.87,23.87c8,0,13.39-3.7,16.58-8.49h.2v1.87c0,6.49-1.7,11-3.59,13.29s-5.9,5.19-13,5.19-14.48-3.8-17-6l-4.49,6.69a36.44,36.44,0,0,0,21.17,7.09c11.79,0,17.68-4.79,21.18-9.09s5.19-10,5.19-20.47V338ZM383.41,377c-9.69,0-15.08-7.09-15.08-16.08s5.39-16.18,15.08-16.18,15.08,7.19,15.08,16.18S393.2,377,383.41,377Z"/><path class="a" d="M94,320.57c-2,2.5-3.2,6.49-3.2,12.69v52.13h9.49V345.74H111.6v-7.69H100.32v-5.29c0-5.4,1-10.09,7.29-10.09a18.22,18.22,0,0,1,4,.51v-7.24a30.84,30.84,0,0,0-6.19-.56A14.34,14.34,0,0,0,94,320.57Z"/><path class="a" d="M270.54,345.24h-.3l.1-7.29h-9.59v47.44h9.59V361.72c0-7,2-10.69,2.89-12a10,10,0,0,1,7.79-4,12.57,12.57,0,0,1,5.2,1v-9.21a15.32,15.32,0,0,0-4-.48C277.13,337.05,272.84,339.85,270.54,345.24Z"/><circle class="a" cx="299.02" cy="321.62" r="6.24"/></svg>