<svg xmlns="http://www.w3.org/2000/svg" xmlns:xlink="http://www.w3.org/1999/xlink" width="432" height="285" viewBox="0 0 432 285"><defs><filter id="Rectangle_3" width="144" height="144" x="144" y="0" filterUnits="userSpaceOnUse"><feOffset dy="3"/><feGaussianBlur result="blur" stdDeviation="3"/><feFlood flood-opacity="0.161"/><feComposite in2="blur" operator="in"/><feComposite in="SourceGraphic"/></filter><filter id="Rectangle_11" width="144" height="144" x="288" y="141" filterUnits="userSpaceOnUse"><feOffset dy="3"/><feGaussianBlur result="blur-2" stdDeviation="3"/><feFlood flood-opacity="0.161"/><feComposite in2="blur-2" operator="in"/><feComposite in="SourceGraphic"/></filter><filter id="Rectangle_9" width="144" height="144" x="144" y="141" filterUnits="userSpaceOnUse"><feOffset dy="3"/><feGaussianBlur result="blur-3" stdDeviation="3"/><feFlood flood-opacity="0.161"/><feComposite in2="blur-3" operator="in"/><feComposite in="SourceGraphic"/></filter><filter id="Rectangle_7" width="144" height="144" x="0" y="141" filterUnits="userSpaceOnUse"><feOffset dy="3"/><feGaussianBlur result="blur-4" stdDeviation="3"/><feFlood flood-opacity="0.161"/><feComposite in2="blur-4" operator="in"/><feComposite in="SourceGraphic"/></filter><filter id="Rectangle_1" width="144" height="144" x="0" y="0" filterUnits="userSpaceOnUse"><feOffset dy="3"/><feGaussianBlur result="blur-5" stdDeviation="3"/><feFlood flood-opacity="0.161"/><feComposite in2="blur-5" operator="in"/><feComposite in="SourceGraphic"/></filter><filter id="Rectangle_5" width="144" height="144" x="288" y="0" filterUnits="userSpaceOnUse"><feOffset dy="3"/><feGaussianBlur result="blur-6" stdDeviation="3"/><feFlood flood-opacity="0.161"/><feComposite in2="blur-6" operator="in"/><feComposite in="SourceGraphic"/></filter></defs><g id="Key_features" transform="translate(-374 -174)"><g id="box"><g filter="url(#Rectangle_3)" transform="translate(374 174)"><rect id="Rectangle_3-2" width="126" height="126" fill="#fff" rx="7" transform="translate(153 6)"/></g><g filter="url(#Rectangle_11)" transform="translate(374 174)"><rect id="Rectangle_11-2" width="126" height="126" fill="#fff" rx="7" transform="translate(297 147)"/></g><g filter="url(#Rectangle_9)" transform="translate(374 174)"><rect id="Rectangle_9-2" width="126" height="126" fill="#fff" rx="7" transform="translate(153 147)"/></g><g filter="url(#Rectangle_7)" transform="translate(374 174)"><rect id="Rectangle_7-2" width="126" height="126" fill="#fff" rx="7" transform="translate(9 147)"/></g><g filter="url(#Rectangle_1)" transform="translate(374 174)"><rect id="Rectangle_1-2" width="126" height="126" fill="#fff" rx="7" transform="translate(9 6)"/></g><g filter="url(#Rectangle_5)" transform="translate(374 174)"><rect id="Rectangle_5-2" width="126" height="126" fill="#fff" rx="7" transform="translate(297 6)"/></g></g><g id="text"><g id="ikoner"><path id="user-lock-solid" fill="#32cd32" d="M17.85 20.4a10.2 10.2 0 1 0-10.2-10.2 10.2 10.2 0 0 0 10.2 10.2m7.65 5.1a5 5 0 0 1 .65-2.43 11 11 0 0 0-1.16-.12h-1.33a14 14 0 0 1-11.62 0h-1.33A10.7 10.7 0 0 0 0 33.65v3.33a3.83 3.83 0 0 0 3.83 3.82H26.2a5 5 0 0 1-.71-2.55Zm22.95-2.55H45.9v-6.37a6.38 6.38 0 1 0-12.75 0v6.37H30.6a2.55 2.55 0 0 0-2.55 2.55v12.75a2.55 2.55 0 0 0 2.55 2.55h17.85A2.55 2.55 0 0 0 51 38.25V25.5a2.55 2.55 0 0 0-2.55-2.55m-8.93 11.47a2.55 2.55 0 1 1 2.55-2.55 2.55 2.55 0 0 1-2.55 2.55m2.55-11.47h-5.1v-6.37a2.55 2.55 0 0 1 5.1 0Z" transform="translate(421.5 204.094)"/><path id="code-solid" fill="#32cd32" d="m27.76 50.99-6.08-1.77a1.2 1.2 0 0 1-.81-1.48L34.47.9a1.2 1.2 0 0 1 1.48-.82l6.08 1.77a1.2 1.2 0 0 1 .81 1.48l-13.6 46.84a1.2 1.2 0 0 1-1.48.82M16.4 39.8l4.33-4.62a1.2 1.2 0 0 0-.08-1.71l-9.02-7.94 9.03-7.94a1.2 1.2 0 0 0 .08-1.71l-4.34-4.63a1.2 1.2 0 0 0-1.7-.05L.37 24.66a1.2 1.2 0 0 0 0 1.74L14.7 39.86a1.2 1.2 0 0 0 1.7-.05Zm32.6.06L63.35 26.4a1.2 1.2 0 0 0 0-1.74L49 11.2a1.2 1.2 0 0 0-1.7.05l-4.33 4.62a1.2 1.2 0 0 0 .08 1.72l9.03 7.94-9.03 7.94a1.2 1.2 0 0 0-.08 1.72l4.34 4.62a1.2 1.2 0 0 0 1.69.06" transform="translate(699.645 340.963)"/><path id="lock-solid-2" fill="#006190" d="M13.56 13.56v4.51h15.06v-4.52a7.53 7.53 0 0 0-15.07 0m-6.03 4.51v-4.52a13.56 13.56 0 0 1 27.11 0v4.52h1.5a6.03 6.03 0 0 1 6.03 6.03v18.07a6.03 6.03 0 0 1-6.02 6.03H6.02A6.03 6.03 0 0 1 0 42.17V24.1a6.03 6.03 0 0 1 6.02-6.02Z" transform="translate(569 200.396)"/><path id="Path_5590" fill="#fff" d="M-9.83 0v-15.4h3.56V0Zm7.21 0v-15.4h6.67a9 9 0 0 1 3.56.67 5 5 0 0 1 2.31 1.93 5.4 5.4 0 0 1 .82 3 5.3 5.3 0 0 1-.82 2.96 5 5 0 0 1-2.3 1.93 9 9 0 0 1-3.57.67H-.64L.95-5.85V0ZM.95-5.46-.64-7.15h4.49a3.7 3.7 0 0 0 2.46-.7 2.5 2.5 0 0 0 .82-1.96 2.5 2.5 0 0 0-.82-1.98 3.7 3.7 0 0 0-2.46-.7H-.64l1.59-1.7Z" opacity="0.793" transform="translate(591 242)"/><path id="network-wired-solid" fill="#fa690f" d="M21.75 5.44h10.88v5.44H21.74ZM20.39 0a4.1 4.1 0 0 0-4.08 4.08v8.15a4.1 4.1 0 0 0 4.08 4.08h4.08v2.72H2.72a2.72 2.72 0 0 0 0 5.44h8.16v2.72H6.8a4.1 4.1 0 0 0-4.08 4.08v8.15A4.1 4.1 0 0 0 6.8 43.5h13.6a4.1 4.1 0 0 0 4.07-4.08v-8.15a4.1 4.1 0 0 0-4.08-4.08h-4.08v-2.72h21.75v2.72h-4.08a4.1 4.1 0 0 0-4.07 4.08v8.15a4.1 4.1 0 0 0 4.07 4.08h13.6a4.1 4.1 0 0 0 4.08-4.08v-8.15a4.1 4.1 0 0 0-4.08-4.08H43.5v-2.72h8.16a2.72 2.72 0 0 0 0-5.44H29.9v-2.72h4.07a4.1 4.1 0 0 0 4.08-4.07V4.07A4.1 4.1 0 0 0 33.98 0ZM8.16 38.06v-5.44h10.87v5.44Zm27.18-5.43h10.88v5.43H35.34Z" transform="translate(562.898 344.75)"/><path id="Path_5589" fill="#3c9bcd" d="M-41.68 0v-23.59h5.91l5.5 9.77q1.15 2.06 2.01 3.86a27 27 0 0 1 1.1 2.54l.28.77a57 57 0 0 1-.35-7.17v-9.77h5.4V0h-5.92l-5.64-9.76q-1.12-1.9-1.98-3.73t-1.17-2.71l-.28-.87a45 45 0 0 1 .53 7.31V0ZM-.32-23.59-8.26 0h-5.95l-7.84-23.59h5.81l2.83 9.41q.77 2.52 1.33 4.85t.74 3.38l.17 1.08a71 71 0 0 1 2.28-9.3l2.84-9.42ZM-1.05 0 .98-23.59H6.9l3.29 8.54q.84 2.13 1.44 3.92t.77 2.52l.17.7a63 63 0 0 1 2.45-7.14l3.33-8.54h5.91L26.7 0h-5.39l-.87-9.13-.45-6.9q-.91 2.62-2.52 6.9L14.14-.24h-3.19l-3.28-8.9q-.81-2.16-1.37-3.88t-.73-2.38l-.18-.63q0 2.49-.31 6.9L4.34 0Zm38.71-10.5v-.42q-.24-3.11-2.73-3.11a3 3 0 0 0-2.17.89 4.7 4.7 0 0 0-1.26 2.64Zm3.68 5.22v4.26a10.3 10.3 0 0 1-5.57 1.2 9 9 0 0 1-6.8-2.54 9 9 0 0 1-2.44-6.53 9 9 0 0 1 2.36-6.63 8 8 0 0 1 5.83-2.4 7.6 7.6 0 0 1 5.64 2.08q2.06 2.08 2.06 6.21a23 23 0 0 1-.28 2.77H31.71a4.3 4.3 0 0 0 1.82 2.27 6 6 0 0 0 3.12.8 7.6 7.6 0 0 0 4.69-1.5" transform="translate(734 246)"/></g><path id="Path_5597" fill="#195f8c" d="M-40.04-4.18h3.37v1.26h-3.37Zm.12 2.88h3.81V0h-5.42v-7h5.29v1.3h-3.68Zm5.1 1.3v-7h1.62v5.68h3.51V0Zm5.16 0 3.12-7h1.6l3.13 7h-1.7l-2.56-6.18h.64L-28 0Zm1.56-1.5.43-1.23h3.6l.44 1.23Zm9.32 1.62a6 6 0 0 1-1.61-.22 4 4 0 0 1-1.24-.59l.55-1.22a4 4 0 0 0 1.07.53 4 4 0 0 0 1.24.2 3 3 0 0 0 .78-.1 1 1 0 0 0 .43-.26.6.6 0 0 0 .14-.4.5.5 0 0 0-.22-.44 2 2 0 0 0-.58-.27l-.8-.2q-.44-.1-.87-.23a4 4 0 0 1-.8-.36 2 2 0 0 1-.58-.58 1.7 1.7 0 0 1-.23-.92 2 2 0 0 1 .33-1.1 2 2 0 0 1 .98-.79 4 4 0 0 1 1.64-.3 6 6 0 0 1 1.3.16 4 4 0 0 1 1.13.46l-.5 1.23a4 4 0 0 0-.98-.41 4 4 0 0 0-.96-.14 2 2 0 0 0-.77.11 1 1 0 0 0-.43.29 1 1 0 0 0-.13.4.5.5 0 0 0 .22.44 2 2 0 0 0 .58.26l.8.2q.44.1.87.23a3 3 0 0 1 .8.35 2 2 0 0 1 .59.58 1.7 1.7 0 0 1 .22.91 2 2 0 0 1-.33 1.08 2.3 2.3 0 0 1-.98.79 4 4 0 0 1-1.66.31m5.43-.12v-5.68h-2.24V-7h6.1v1.32h-2.24V0Zm4.73 0v-7H-7v7Zm6.63.12A4 4 0 0 1-3.5-.14 4 4 0 0 1-4.7-.9a4 4 0 0 1-.8-1.15 4 4 0 0 1-.28-1.45 4 4 0 0 1 .28-1.45 4 4 0 0 1 .8-1.15 4 4 0 0 1 1.21-.76 4 4 0 0 1 1.51-.26 4 4 0 0 1 1.65.32 3 3 0 0 1 1.23.92l-1.04.96a2.4 2.4 0 0 0-.8-.61 2 2 0 0 0-.96-.2 3 3 0 0 0-.9.16 2 2 0 0 0-.71.46 2 2 0 0 0-.47.7 2 2 0 0 0-.16.91 2 2 0 0 0 .17.91 2 2 0 0 0 .46.71 2 2 0 0 0 .71.46 3 3 0 0 0 .9.16 2 2 0 0 0 .96-.2 2.4 2.4 0 0 0 .8-.63l1.04.96A3 3 0 0 1-.33-.2 4 4 0 0 1-2 .12M4.82 0v-7h1.62v7ZM8.1 0v-7h3.03a4 4 0 0 1 1.62.3 2.4 2.4 0 0 1 1.05.88 2.4 2.4 0 0 1 .37 1.36 2.4 2.4 0 0 1-.37 1.35 2.4 2.4 0 0 1-1.05.88 4 4 0 0 1-1.62.3H9l.72-.73V0Zm1.62-2.48L9-3.25h2.04a1.7 1.7 0 0 0 1.12-.32 1.1 1.1 0 0 0 .37-.89 1.1 1.1 0 0 0-.37-.9 1.7 1.7 0 0 0-1.12-.32H9l.72-.77Zm10.03-1.37h3.36v1.3h-3.36ZM19.87 0h-1.62v-7h5.29v1.3h-3.67Zm8.1.12a4 4 0 0 1-1.53-.27 4 4 0 0 1-1.23-.76 4 4 0 0 1-.8-1.15 4 4 0 0 1-.28-1.44 4 4 0 0 1 .28-1.44 3.4 3.4 0 0 1 .81-1.15 4 4 0 0 1 1.22-.76 4 4 0 0 1 1.52-.27 4 4 0 0 1 1.52.27 4 4 0 0 1 1.21.76 4 4 0 0 1 .81 1.14 4 4 0 0 1 .29 1.45 4 4 0 0 1-.29 1.45 4 4 0 0 1-.8 1.15 4 4 0 0 1-1.21.76 4 4 0 0 1-1.52.26m-.01-1.38a2 2 0 0 0 .86-.16 2 2 0 0 0 .7-.46 2 2 0 0 0 .47-.71 2 2 0 0 0 .16-.91 2 2 0 0 0-.16-.91 2 2 0 0 0-.46-.71 2 2 0 0 0-.7-.46 2 2 0 0 0-.87-.16 2 2 0 0 0-.86.16 2 2 0 0 0-.7.46 2 2 0 0 0-.46.71 2 2 0 0 0-.17.91 2 2 0 0 0 .17.9 2 2 0 0 0 .46.72 2 2 0 0 0 .7.45 2 2 0 0 0 .86.17m1.01-6.36a.7.7 0 0 1-.49-.19.7.7 0 0 1-.2-.5.7.7 0 0 1 .2-.5.7.7 0 0 1 .49-.19.7.7 0 0 1 .5.19.7.7 0 0 1 .2.5.7.7 0 0 1-.2.5.7.7 0 0 1-.5.19m-2.02 0a.7.7 0 0 1-.5-.19.7.7 0 0 1-.2-.5.7.7 0 0 1 .2-.5.7.7 0 0 1 .5-.19.7.7 0 0 1 .49.19.7.7 0 0 1 .2.5.7.7 0 0 1-.2.5.7.7 0 0 1-.49.19M33.01 0v-7h3.03a4 4 0 0 1 1.62.3 2.4 2.4 0 0 1 1.05.88 2.4 2.4 0 0 1 .37 1.36 2.4 2.4 0 0 1-.37 1.35 2.4 2.4 0 0 1-1.05.86 4 4 0 0 1-1.62.3h-2.13l.72-.71V0Zm4.45 0-1.75-2.54h1.73L39.21 0Zm-2.83-2.48-.72-.76h2.04a1.7 1.7 0 0 0 1.12-.32 1.1 1.1 0 0 0 .37-.9 1.1 1.1 0 0 0-.37-.9 1.7 1.7 0 0 0-1.12-.32h-2.04l.72-.77ZM-51.91 13V6h1.61v5.68h3.51V13Zm5.15 0 3.13-7h1.6l3.13 7h-1.7l-2.56-6.18h.63L-45.1 13Zm1.57-1.5.43-1.23h3.6l.44 1.23Zm9.32 1.62a6 6 0 0 1-1.61-.22 4 4 0 0 1-1.24-.59l.55-1.22a4 4 0 0 0 1.06.53 4 4 0 0 0 1.25.2 3 3 0 0 0 .77-.1 1 1 0 0 0 .44-.26.6.6 0 0 0 .13-.4.5.5 0 0 0-.21-.44 2 2 0 0 0-.59-.27q-.35-.1-.79-.2t-.87-.23a4 4 0 0 1-.8-.36 2 2 0 0 1-.58-.58 1.7 1.7 0 0 1-.23-.92 2 2 0 0 1 .33-1.1 2 2 0 0 1 .98-.79 4 4 0 0 1 1.64-.3 6 6 0 0 1 1.3.16 4 4 0 0 1 1.14.47l-.5 1.23a4 4 0 0 0-.98-.41 4 4 0 0 0-.96-.14 2 2 0 0 0-.77.11 1 1 0 0 0-.43.29 1 1 0 0 0-.13.4.5.5 0 0 0 .22.44 2 2 0 0 0 .58.26l.8.2q.43.1.86.23a3 3 0 0 1 .8.35 2 2 0 0 1 .59.58 1.7 1.7 0 0 1 .22.91 2 2 0 0 1-.33 1.08 2.3 2.3 0 0 1-.98.79 4 4 0 0 1-1.66.3m5.43-.12V7.32h-2.24V6h6.1v1.32h-2.24V13Zm4.73 0V6h3.42a3.3 3.3 0 0 1 1.98.5 1.6 1.6 0 0 1 .67 1.32 1.7 1.7 0 0 1-.27.96 2 2 0 0 1-.74.62 3 3 0 0 1-1.08.22l.19-.41a3 3 0 0 1 1.17.22 2 2 0 0 1 .8.63 2 2 0 0 1 .28 1.03 1.6 1.6 0 0 1-.71 1.4 3.6 3.6 0 0 1-2.09.5Zm1.6-1.22h1.9a2 2 0 0 0 .95-.2.7.7 0 0 0 .33-.65.7.7 0 0 0-.33-.66 2 2 0 0 0-.95-.21h-2.01V8.87h1.73a2 2 0 0 0 .9-.2.7.7 0 0 0 .32-.62.7.7 0 0 0-.32-.62 2 2 0 0 0-.9-.2h-1.61Zm5.13 1.22 3.12-7h1.6l3.13 7h-1.7l-2.57-6.18h.64L-17.32 13Zm1.56-1.5.43-1.23h3.6l.44 1.23Zm7.02 1.5V6h1.62v5.68h3.5V13Zm5.16 0 3.12-7h1.6l3.13 7H.9l-2.56-6.18h.63L-3.57 13Zm1.56-1.5.43-1.23h3.6l.44 1.23ZM3.34 13V6h1.34l4.13 5.04h-.66V6h1.6v7H8.43L4.29 7.96h.65V13Zm10.38.12a6 6 0 0 1-1.61-.22 4 4 0 0 1-1.24-.59l.55-1.22a4 4 0 0 0 1.06.52 4 4 0 0 0 1.25.2 3 3 0 0 0 .77-.09 1 1 0 0 0 .44-.27.6.6 0 0 0 .14-.39.5.5 0 0 0-.22-.44 2 2 0 0 0-.58-.27l-.8-.2q-.44-.1-.87-.24a4 4 0 0 1-.8-.36 2 2 0 0 1-.58-.58 1.7 1.7 0 0 1-.23-.92 2 2 0 0 1 .33-1.09 2 2 0 0 1 .98-.79 4 4 0 0 1 1.64-.3 6 6 0 0 1 1.3.15 4 4 0 0 1 1.13.47l-.5 1.23a4 4 0 0 0-.98-.42 4 4 0 0 0-.96-.13 2 2 0 0 0-.77.11 1 1 0 0 0-.43.28.7.7 0 0 0-.13.41.5.5 0 0 0 .22.44 2 2 0 0 0 .58.26l.8.2q.44.1.87.23a3 3 0 0 1 .8.35 2 2 0 0 1 .59.58 1.7 1.7 0 0 1 .22.91 2 2 0 0 1-.33 1.08 2.3 2.3 0 0 1-.98.79 4 4 0 0 1-1.67.31m5.57-4.3h3.37v1.26h-3.37Zm.12 2.88h3.8V13h-5.4V6h5.29v1.3h-3.68Zm5.1 1.3V6h3.03a4 4 0 0 1 1.62.3 2.4 2.4 0 0 1 1.05.88 2.4 2.4 0 0 1 .37 1.36 2.4 2.4 0 0 1-.37 1.35 2.4 2.4 0 0 1-1.05.86 4 4 0 0 1-1.62.3H25.4l.72-.71V13Zm4.45 0-1.75-2.54h1.73L30.7 13Zm-2.83-2.48-.72-.76h2.04a1.7 1.7 0 0 0 1.12-.32 1.1 1.1 0 0 0 .37-.9 1.1 1.1 0 0 0-.37-.9 1.7 1.7 0 0 0-1.12-.32H25.4l.72-.77ZM30.93 13l3.12-7h1.6l3.14 7h-1.7l-2.57-6.18h.64L32.6 13Zm1.56-1.5.43-1.23h3.6l.44 1.23Zm7.02 1.5V6h3.04a4 4 0 0 1 1.62.3 2.4 2.4 0 0 1 1.04.88 2.4 2.4 0 0 1 .37 1.36 2.4 2.4 0 0 1-.37 1.35 2.4 2.4 0 0 1-1.05.86 4 4 0 0 1-1.61.3h-2.13l.71-.71V13Zm4.46 0-1.75-2.54h1.73L45.72 13Zm-2.83-2.48-.72-.76h2.04a1.7 1.7 0 0 0 1.12-.32 1.1 1.1 0 0 0 .37-.9 1.1 1.1 0 0 0-.38-.9 1.7 1.7 0 0 0-1.11-.32h-2.04l.72-.77Zm7.22-1.7h3.37v1.26h-3.37Zm.12 2.88h3.8V13h-5.41V6h5.29v1.3h-3.68Z" transform="translate(590 272)"/><path id="Path_5596" fill="#32cd32" d="M-15.06 0v-7h3.18a4.4 4.4 0 0 1 2 .44A3.3 3.3 0 0 1-8.5-5.35a3.4 3.4 0 0 1 .48 1.85 3.4 3.4 0 0 1-.49 1.85A3.3 3.3 0 0 1-9.87-.43a4.4 4.4 0 0 1-2 .43Zm1.62-1.33h1.47a3 3 0 0 0 1.22-.27 2 2 0 0 0 .8-.75 2.3 2.3 0 0 0 .29-1.15 2 2 0 0 0-.29-1.16 2 2 0 0 0-.8-.75 3 3 0 0 0-1.22-.26h-1.47ZM-7.83 0l3.13-7h1.6L.03 0h-1.7l-2.57-6.18h.64L-6.15 0Zm1.57-1.5.42-1.23h3.6l.44 1.23ZM1.85 0v-5.68H-.38V-7h6.1v1.32H3.47V0Zm3.46 0 3.12-7h1.6l3.13 7h-1.7L8.9-6.18h.64L6.98 0Zm1.56-1.5.42-1.23h3.6l.44 1.23Zm-40.6 14.62a6 6 0 0 1-1.62-.22 4 4 0 0 1-1.23-.59l.54-1.22a4 4 0 0 0 1.07.52 4 4 0 0 0 1.24.2 3 3 0 0 0 .78-.09 1 1 0 0 0 .43-.27.6.6 0 0 0 .14-.39.5.5 0 0 0-.22-.44 2 2 0 0 0-.58-.27l-.79-.2q-.43-.1-.87-.24a4 4 0 0 1-.8-.36 2 2 0 0 1-.58-.58 1.7 1.7 0 0 1-.23-.92 2 2 0 0 1 .32-1.09 2 2 0 0 1 .98-.79 4 4 0 0 1 1.65-.3 6 6 0 0 1 1.3.15 4 4 0 0 1 1.13.47l-.5 1.23a4 4 0 0 0-.98-.42 4 4 0 0 0-.96-.13 2 2 0 0 0-.77.11 1 1 0 0 0-.43.28.7.7 0 0 0-.13.41.5.5 0 0 0 .22.44 2 2 0 0 0 .58.26l.8.2q.43.1.86.23a3 3 0 0 1 .8.35 2 2 0 0 1 .59.58 1.7 1.7 0 0 1 .22.91 2 2 0 0 1-.33 1.08 2.3 2.3 0 0 1-.98.79 4 4 0 0 1-1.66.31Zm7.18 0a3.2 3.2 0 0 1-2.33-.83 3.2 3.2 0 0 1-.84-2.37V6h1.62v3.86a2 2 0 0 0 .41 1.44 1.5 1.5 0 0 0 1.15.44 1.5 1.5 0 0 0 1.15-.44 2 2 0 0 0 .41-1.44V6h1.6v3.92a3.2 3.2 0 0 1-.84 2.37 3.2 3.2 0 0 1-2.33.83m6.87-.12-3.01-7h1.75l2.64 6.2h-1.03l2.67-6.2h1.61l-3.03 7Zm6.7-4.18h3.37v1.26h-3.37Zm.13 2.88h3.8V13h-5.42V6h5.3v1.3h-3.68Zm5.1 1.3V6h3.02a4 4 0 0 1 1.62.3 2.4 2.4 0 0 1 1.05.88 2.4 2.4 0 0 1 .37 1.36 2.4 2.4 0 0 1-.37 1.35 2.4 2.4 0 0 1-1.05.86 4 4 0 0 1-1.62.3h-2.13l.72-.71V13Zm4.44 0-1.75-2.54h1.73L-1.55 13Zm-2.83-2.48-.72-.76h2.04a1.7 1.7 0 0 0 1.12-.32 1.1 1.1 0 0 0 .37-.9 1.1 1.1 0 0 0-.37-.9 1.7 1.7 0 0 0-1.12-.32h-2.04l.72-.77ZM-1.32 13 1.8 6h1.6l3.13 7h-1.7L2.27 6.82h.64L.34 13Zm1.56-1.5.43-1.23h3.6l.44 1.23Zm3.37-6.12a.7.7 0 0 1-.49-.19.7.7 0 0 1-.2-.5.7.7 0 0 1 .2-.5.7.7 0 0 1 .49-.19.7.7 0 0 1 .5.19.7.7 0 0 1 .2.5.7.7 0 0 1-.2.5.7.7 0 0 1-.5.19m-2.02 0a.7.7 0 0 1-.5-.19.7.7 0 0 1-.2-.5.7.7 0 0 1 .2-.5.7.7 0 0 1 .5-.19.7.7 0 0 1 .49.19.7.7 0 0 1 .2.5.7.7 0 0 1-.2.5.7.7 0 0 1-.49.19M7.26 13V6H8.6l4.13 5.04h-.65V6h1.6v7h-1.33L8.21 7.96h.65V13Zm8.08 0V6h1.62v7Zm4.73 0V7.32h-2.24V6h6.1v1.32h-2.24V13Zm6.22-4.18h3.37v1.26h-3.37Zm.12 2.88h3.81V13H24.8V6h5.29v1.3h-3.68Zm6.55 1.3V7.32h-2.24V6h6.1v1.32h-2.24V13Z" transform="translate(446.5 272)"/><path id="Path_5595" fill="#32cd32" d="M-12.41.12a4 4 0 0 1-1.53-.27 4 4 0 0 1-1.23-.76 4 4 0 0 1-.8-1.15 4 4 0 0 1-.28-1.44 4 4 0 0 1 .28-1.44 3 3 0 0 1 .8-1.15 4 4 0 0 1 1.23-.76 4 4 0 0 1 1.52-.27 4 4 0 0 1 1.52.27 4 4 0 0 1 1.21.76 4 4 0 0 1 .81 1.14 4 4 0 0 1 .29 1.45 4 4 0 0 1-.29 1.45 4 4 0 0 1-.8 1.15 4 4 0 0 1-1.22.75 4 4 0 0 1-1.51.27m-.01-1.38a2 2 0 0 0 .87-.16 2 2 0 0 0 .7-.46 2 2 0 0 0 .46-.71 2 2 0 0 0 .17-.91 2 2 0 0 0-.17-.91 2 2 0 0 0-.46-.71 2 2 0 0 0-.7-.46 2 2 0 0 0-.87-.16 2 2 0 0 0-.86.16 2 2 0 0 0-.7.46 2 2 0 0 0-.46.71 2 2 0 0 0-.17.91 2 2 0 0 0 .17.9 2 2 0 0 0 .46.72 2 2 0 0 0 .7.45 2 2 0 0 0 .86.17M-7.37 0v-7h3.03a4 4 0 0 1 1.62.3 2.4 2.4 0 0 1 1.05.88 2.4 2.4 0 0 1 .37 1.36 2.4 2.4 0 0 1-.37 1.35 2.4 2.4 0 0 1-1.05.88 4 4 0 0 1-1.62.3h-2.13l.72-.73V0Zm1.62-2.48-.72-.77h2.04a1.7 1.7 0 0 0 1.12-.32 1.1 1.1 0 0 0 .37-.89 1.1 1.1 0 0 0-.37-.9 1.7 1.7 0 0 0-1.12-.32h-2.04l.72-.77Zm7.09-1.7h3.37v1.26H1.34Zm.12 2.88h3.81V0H-.15v-7h5.29v1.3H1.46ZM6.56 0v-7H7.9l4.13 5.04h-.65V-7h1.6v7h-1.33L7.51-5.04h.65V0Zm-25.47 13.12a6 6 0 0 1-1.61-.22 4 4 0 0 1-1.24-.59l.55-1.22a4 4 0 0 0 1.06.52 4 4 0 0 0 1.25.2 3 3 0 0 0 .77-.09 1 1 0 0 0 .44-.27.6.6 0 0 0 .14-.39.5.5 0 0 0-.22-.44 2 2 0 0 0-.58-.27l-.8-.2q-.44-.1-.87-.24a4 4 0 0 1-.8-.36 2 2 0 0 1-.59-.58 2 2 0 0 1-.22-.92 2 2 0 0 1 .33-1.09 2 2 0 0 1 .98-.79 4 4 0 0 1 1.65-.3 6 6 0 0 1 1.3.16 4 4 0 0 1 1.13.47l-.5 1.23a4 4 0 0 0-.99-.42 4 4 0 0 0-.96-.13 2 2 0 0 0-.77.1 1 1 0 0 0-.43.29 1 1 0 0 0-.13.4.5.5 0 0 0 .22.44 2 2 0 0 0 .58.27l.8.2q.44.1.87.22a3 3 0 0 1 .8.36 2 2 0 0 1 .59.57 1.7 1.7 0 0 1 .22.92 2 2 0 0 1-.33 1.08 2.3 2.3 0 0 1-.98.79 4 4 0 0 1-1.66.3m7.48 0a4 4 0 0 1-1.54-.27 4 4 0 0 1-1.22-.76 4 4 0 0 1-.8-1.15 4 4 0 0 1-.28-1.44A4 4 0 0 1-15 8.06a3 3 0 0 1 .8-1.15 4 4 0 0 1 1.22-.76 4 4 0 0 1 1.53-.27 4 4 0 0 1 1.52.27 4 4 0 0 1 1.21.76 4 4 0 0 1 .81 1.14 4 4 0 0 1 .29 1.45 4 4 0 0 1-.3 1.45 4 4 0 0 1-.8 1.15 4 4 0 0 1-1.21.76 4 4 0 0 1-1.52.26m-.01-1.38a2 2 0 0 0 .86-.16 2 2 0 0 0 .7-.46 2 2 0 0 0 .46-.71 2 2 0 0 0 .17-.91 2 2 0 0 0-.17-.91 2 2 0 0 0-.46-.71 2 2 0 0 0-.7-.46 2 2 0 0 0-.86-.16 2 2 0 0 0-.87.16 2 2 0 0 0-.7.46 2 2 0 0 0-.46.71 2 2 0 0 0-.17.91 2 2 0 0 0 .17.9 2 2 0 0 0 .46.71 2 2 0 0 0 .7.46 2 2 0 0 0 .87.17m8.16 1.38a3.2 3.2 0 0 1-2.33-.83 3.2 3.2 0 0 1-.84-2.37V6h1.62v3.86a2 2 0 0 0 .4 1.44 1.5 1.5 0 0 0 1.16.44 1.5 1.5 0 0 0 1.15-.44 2 2 0 0 0 .4-1.44V6h1.6v3.92a3.2 3.2 0 0 1-.83 2.37 3.2 3.2 0 0 1-2.33.83M1.49 13V6h3.03a4 4 0 0 1 1.62.3 2.4 2.4 0 0 1 1.05.88 2.4 2.4 0 0 1 .37 1.36 2.4 2.4 0 0 1-.37 1.35 2.4 2.4 0 0 1-1.05.86 4 4 0 0 1-1.62.3H2.39l.71-.71V13Zm4.45 0-1.75-2.54h1.73L7.68 13ZM3.1 10.52l-.72-.76h2.04a1.7 1.7 0 0 0 1.12-.32 1.1 1.1 0 0 0 .37-.9 1.1 1.1 0 0 0-.37-.9 1.7 1.7 0 0 0-1.12-.32H2.39l.71-.77Zm9.08 2.6a4 4 0 0 1-1.51-.26 3.5 3.5 0 0 1-2-1.9 3.8 3.8 0 0 1 0-2.9 4 4 0 0 1 .8-1.16 4 4 0 0 1 1.2-.75 4 4 0 0 1 1.51-.27 4 4 0 0 1 1.65.32 3 3 0 0 1 1.24.93l-1.05.96a2.4 2.4 0 0 0-.8-.62 2 2 0 0 0-.96-.2 3 3 0 0 0-.9.16 2 2 0 0 0-.7.46 2 2 0 0 0-.47.71 2.6 2.6 0 0 0 0 1.82 2 2 0 0 0 .47.71 2 2 0 0 0 .7.46 3 3 0 0 0 .9.16 2 2 0 0 0 .97-.2 2.4 2.4 0 0 0 .8-.62l1.04.96a3 3 0 0 1-1.24.93 4 4 0 0 1-1.65.3m5.47-4.3h3.37v1.26h-3.37Zm.12 2.88h3.8V13h-5.41V6h5.28v1.3h-3.68Z" transform="translate(734 413)"/><path id="Path_5594" fill="#fa690f" d="M-19.42.12a6 6 0 0 1-1.61-.22 4 4 0 0 1-1.24-.59l.55-1.22a4 4 0 0 0 1.07.53 4 4 0 0 0 1.24.2 3 3 0 0 0 .78-.1 1 1 0 0 0 .43-.26.6.6 0 0 0 .14-.39.5.5 0 0 0-.22-.45 2 2 0 0 0-.58-.27l-.8-.2q-.44-.1-.87-.23a4 4 0 0 1-.8-.36 2 2 0 0 1-.58-.58 1.7 1.7 0 0 1-.23-.92 2 2 0 0 1 .33-1.1 2 2 0 0 1 .97-.78 4 4 0 0 1 1.65-.3 6 6 0 0 1 1.3.15 4 4 0 0 1 1.13.47l-.5 1.23a4 4 0 0 0-.98-.42 4 4 0 0 0-.96-.13 2 2 0 0 0-.77.1 1 1 0 0 0-.43.29 1 1 0 0 0-.13.4.5.5 0 0 0 .22.44 2 2 0 0 0 .58.27l.8.2q.44.1.87.23a3 3 0 0 1 .8.35 2 2 0 0 1 .58.58 1.7 1.7 0 0 1 .23.9 2 2 0 0 1-.33 1.09 2.3 2.3 0 0 1-.99.79 4 4 0 0 1-1.65.3m5.43-.12v-5.68h-2.24V-7h6.1v1.32h-2.24V0Zm3.46 0 3.12-7h1.6l3.13 7h-1.7l-2.56-6.18h.64L-8.87 0Zm1.56-1.5.43-1.23h3.6l.44 1.23ZM-1.95 0v-7h3.42a3.3 3.3 0 0 1 1.99.5 1.6 1.6 0 0 1 .66 1.32 1.7 1.7 0 0 1-.27.96 2 2 0 0 1-.74.62 3 3 0 0 1-1.08.22l.19-.41a3 3 0 0 1 1.17.22 2 2 0 0 1 .8.63 2 2 0 0 1 .28 1.03A1.6 1.6 0 0 1 3.76-.5a3.6 3.6 0 0 1-2.09.5Zm1.61-1.22h1.89a2 2 0 0 0 .96-.2.7.7 0 0 0 .32-.66.7.7 0 0 0-.33-.65 2 2 0 0 0-.95-.22H-.46v-1.18h1.73a2 2 0 0 0 .9-.2.7.7 0 0 0 .32-.63.7.7 0 0 0-.31-.61 2 2 0 0 0-.9-.21H-.34ZM5.7 0v-7h1.62v7Zm3.28 0v-7h1.62v5.68h3.51V0Zm6.84 0v-5.68h-2.24V-7h6.1v1.32h-2.24V0Zm-40.1 13V6h1.34l4.13 5.04h-.65V6h1.6v7h-1.33l-4.14-5.04h.65V13Zm7.16 0L-14 6h1.6l3.13 7h-1.7l-2.56-6.18h.64L-15.45 13Zm1.56-1.5.43-1.23h3.6l.44 1.23Zm3.37-6.12a.7.7 0 0 1-.49-.19.7.7 0 0 1-.2-.5.7.7 0 0 1 .2-.5.7.7 0 0 1 .49-.19.7.7 0 0 1 .5.19.7.7 0 0 1 .2.5.7.7 0 0 1-.2.5.7.7 0 0 1-.5.19m-2.02 0a.7.7 0 0 1-.5-.19.7.7 0 0 1-.2-.5.7.7 0 0 1 .2-.5.7.7 0 0 1 .5-.19.7.7 0 0 1 .5.19.7.7 0 0 1 .2.5.7.7 0 0 1-.2.5.7.7 0 0 1-.5.19M-7.43 13V7.32h-2.24V6h6.1v1.32h-2.25V13Zm6.7 0-3.02-7H-2l2.64 6.2H-.4L2.29 6h1.6L.88 13Zm6.7-4.18h3.37v1.26H5.97Zm.12 2.88h3.8V13H4.48V6h5.3v1.3H6.09Zm5.1 1.3V6h3.03a4 4 0 0 1 1.61.3 2.4 2.4 0 0 1 1.06.88 2.4 2.4 0 0 1 .37 1.36 2.4 2.4 0 0 1-.37 1.35 2.4 2.4 0 0 1-1.05.86 4 4 0 0 1-1.62.3h-2.14l.73-.71V13Zm4.45 0-1.75-2.54h1.73L17.39 13Zm-2.84-2.48-.72-.76h2.04a1.7 1.7 0 0 0 1.12-.32 1.1 1.1 0 0 0 .37-.9 1.1 1.1 0 0 0-.37-.9 1.7 1.7 0 0 0-1.12-.32h-2.04l.72-.77Zm7.18.88-.08-1.87L23.25 6h1.8l-3.02 3.25-.9.96ZM18.53 13V6h1.61v7Zm4.8 0-2.5-3.05L21.9 8.8l3.32 4.2Z" transform="translate(590 413)"/><path id="Path_5593" fill="#3c9bcd" d="M-31.27 0v-7h3.03a4 4 0 0 1 1.62.3 2.4 2.4 0 0 1 1.05.88 2.4 2.4 0 0 1 .37 1.36 2.4 2.4 0 0 1-.37 1.35 2.4 2.4 0 0 1-1.05.88 4 4 0 0 1-1.62.3h-2.13l.72-.73V0Zm1.62-2.48-.72-.77h2.04a1.7 1.7 0 0 0 1.12-.32 1.1 1.1 0 0 0 .37-.89 1.1 1.1 0 0 0-.37-.9 1.7 1.7 0 0 0-1.12-.32h-2.04l.72-.77Zm9.1 2.6a4 4 0 0 1-1.54-.27 4 4 0 0 1-1.22-.76 4 4 0 0 1-.8-1.15 4 4 0 0 1-.29-1.44 4 4 0 0 1 .28-1.44 3.4 3.4 0 0 1 .81-1.15 4 4 0 0 1 1.22-.76 4 4 0 0 1 1.52-.27 4 4 0 0 1 1.53.27 4 4 0 0 1 1.2.76 4 4 0 0 1 .81 1.15 4 4 0 0 1 .29 1.44 4 4 0 0 1-.29 1.45 4 4 0 0 1-.8 1.15 4 4 0 0 1-1.21.76 4 4 0 0 1-1.52.26m-.01-1.38a2 2 0 0 0 .86-.16 2 2 0 0 0 .7-.46 2 2 0 0 0 .46-.71 2 2 0 0 0 .17-.91 2 2 0 0 0-.17-.91 2 2 0 0 0-.46-.71 2 2 0 0 0-.7-.46 2 2 0 0 0-.87-.16 2 2 0 0 0-.86.16 2 2 0 0 0-.7.46 2 2 0 0 0-.46.71 2 2 0 0 0-.16.91 2 2 0 0 0 .16.9 2 2 0 0 0 .46.72 2 2 0 0 0 .7.45 2 2 0 0 0 .86.17m6.5 1.26-2.3-7h1.68l2 6.2h-.85l2.08-6.2h1.5l2 6.2h-.8L-6.72-7h1.55l-2.3 7H-9.2l-1.77-5.44h.46L-12.32 0ZM-2.8-4.18H.6v1.26h-3.37Zm.12 2.88h3.81V0h-5.42v-7h5.3v1.3h-3.69ZM2.44 0v-7h3.03a4 4 0 0 1 1.63.3 2.4 2.4 0 0 1 1.05.88 2.4 2.4 0 0 1 .36 1.36 2.4 2.4 0 0 1-.37 1.35 2.4 2.4 0 0 1-1.04.86 4 4 0 0 1-1.62.3H3.34l.73-.71V0ZM6.9 0 5.14-2.54h1.74L8.64 0ZM4.07-2.48l-.72-.76h2.04a1.7 1.7 0 0 0 1.12-.32 1.1 1.1 0 0 0 .37-.9 1.1 1.1 0 0 0-.37-.9 1.7 1.7 0 0 0-1.12-.32H3.35l.72-.77Zm7.23-1.37h3.36v1.3H11.3ZM11.41 0H9.8v-7h5.29v1.3h-3.67Zm7.89.12a3.2 3.2 0 0 1-2.33-.83 3.2 3.2 0 0 1-.84-2.37V-7h1.62v3.86a2 2 0 0 0 .41 1.44 1.5 1.5 0 0 0 1.15.44 1.5 1.5 0 0 0 1.15-.44 2 2 0 0 0 .41-1.44V-7h1.6v3.92a3.2 3.2 0 0 1-.84 2.37 3.2 3.2 0 0 1-2.33.83M24.07 0v-7h1.62v5.68h3.5V0ZM-36.4 13l3.11-7h1.6l3.13 7h-1.7l-2.56-6.18h.64L-34.74 13Zm1.55-1.5.44-1.23h3.6l.44 1.23Zm9.99 1.62a3.2 3.2 0 0 1-2.33-.83 3.2 3.2 0 0 1-.84-2.37V6h1.62v3.86a2 2 0 0 0 .4 1.44 1.5 1.5 0 0 0 1.16.44 1.5 1.5 0 0 0 1.15-.44 2 2 0 0 0 .4-1.44V6h1.6v3.92a3.2 3.2 0 0 1-.84 2.37 3.2 3.2 0 0 1-2.32.83m6.1-.12V7.32H-21V6h6.1v1.32h-2.25V13Zm8.03.12a4 4 0 0 1-1.54-.27 4 4 0 0 1-1.22-.76 4 4 0 0 1-.8-1.15 4 4 0 0 1-.29-1.44 4 4 0 0 1 .29-1.44 3 3 0 0 1 .8-1.15 4 4 0 0 1 1.22-.76 4 4 0 0 1 1.52-.27 4 4 0 0 1 1.52.27 4 4 0 0 1 1.21.76 4 4 0 0 1 .81 1.15 4 4 0 0 1 .3 1.44 4 4 0 0 1-.3 1.45A4 4 0 0 1-8 12.1a4 4 0 0 1-1.21.76 4 4 0 0 1-1.51.26m-.02-1.38a2 2 0 0 0 .87-.16 2 2 0 0 0 .7-.46 2 2 0 0 0 .46-.71 2 2 0 0 0 .17-.91 2 2 0 0 0-.17-.91 2 2 0 0 0-.46-.71 2 2 0 0 0-.69-.46 2 2 0 0 0-.87-.16 2 2 0 0 0-.87.16 2 2 0 0 0-.69.46 2 2 0 0 0-.47.71 2 2 0 0 0-.16.91 2 2 0 0 0 .16.9 2 2 0 0 0 .46.72 2 2 0 0 0 .7.46 2 2 0 0 0 .87.16M-5.7 13V6h1.34l2.98 4.94h-.71L.85 6h1.33l.02 7H.68L.66 8.33h.29l-2.35 3.93h-.73l-2.39-3.93h.34V13Zm8.63 0 3.12-7h1.6l3.13 7h-1.7L6.53 6.82h.64L4.6 13Zm1.56-1.5.43-1.23h3.6l.44 1.23Zm8.12 1.5V7.32h-2.24V6h6.1v1.32h-2.24V13Zm4.73 0V6h1.62v7Zm6.68.12a4 4 0 0 1-1.53-.27 4 4 0 0 1-1.22-.76 4 4 0 0 1-.8-1.15 3.8 3.8 0 0 1 0-2.88 3 3 0 0 1 .8-1.15 4 4 0 0 1 1.22-.76 4.4 4.4 0 0 1 3.05 0 4 4 0 0 1 1.2.76 3.65 3.65 0 0 1 .81 4.03 4 4 0 0 1-.8 1.15 4 4 0 0 1-1.22.76 4 4 0 0 1-1.5.27Zm-.01-1.38a2 2 0 0 0 .86-.16 2 2 0 0 0 .7-.46 2 2 0 0 0 .47-.71 2.6 2.6 0 0 0 0-1.82 2 2 0 0 0-.46-.71 2 2 0 0 0-.7-.46 2 2 0 0 0-.87-.16 2 2 0 0 0-.86.16 2 2 0 0 0-.7.46 2 2 0 0 0-.46.71 2.6 2.6 0 0 0 0 1.81 2 2 0 0 0 .46.72 2 2 0 0 0 .7.46 2 2 0 0 0 .87.16ZM29.07 13V6h1.34l4.13 5.04h-.65V6h1.6v7h-1.33l-4.14-5.04h.65V13Z" transform="translate(447.5 413)"/><path id="Path_5592" fill="#3c9bcd" d="M-22.21-11.27h6.97l-.3-1.03q-1.25-4.21-2.05-7.18t-.96-3.83l-.17-.86a122 122 0 0 1-3.19 11.87ZM-11.89 0l-1.76-5.93H-23.8L-25.56 0h-6.93l9.68-28.98h8.34L-4.79 0Zm17.5-14.62H7.8q5.25 0 5.25-4.77 0-4.3-4.86-4.3H5.6Zm-6.62-14.36h9.98a11.2 11.2 0 0 1 7.8 2.7 8.9 8.9 0 0 1 2.98 6.89 9.1 9.1 0 0 1-3.1 7.39 11.5 11.5 0 0 1-7.68 2.63H5.6V0H-1ZM23.63 0v-28.98h6.62V0Z" transform="translate(447.5 382)"/><path id="Path_5591" fill="#3c9bcd" d="M-35.98.12A6 6 0 0 1-37.6-.1a4 4 0 0 1-1.24-.58l.55-1.22a4 4 0 0 0 1.06.52 4 4 0 0 0 1.25.2 3 3 0 0 0 .77-.1 1 1 0 0 0 .44-.26.6.6 0 0 0 .14-.39.5.5 0 0 0-.22-.45 2 2 0 0 0-.58-.27l-.8-.2q-.44-.1-.87-.23a4 4 0 0 1-.8-.36 2 2 0 0 1-.58-.58 1.7 1.7 0 0 1-.23-.92 2 2 0 0 1 .33-1.1 2 2 0 0 1 .98-.78 4 4 0 0 1 1.64-.3 6 6 0 0 1 1.3.15 4 4 0 0 1 1.13.47l-.5 1.23a4 4 0 0 0-.98-.42 4 4 0 0 0-.95-.13 2 2 0 0 0-.78.1 1 1 0 0 0-.43.29 1 1 0 0 0-.13.4.5.5 0 0 0 .22.44 2 2 0 0 0 .58.27l.8.2q.44.1.87.23a3 3 0 0 1 .8.35 2 2 0 0 1 .59.58 2 2 0 0 1 .22.9 2 2 0 0 1-.33 1.09 2.3 2.3 0 0 1-.98.79 4 4 0 0 1-1.66.3m4.07-.12v-7h1.34l4.13 5.04h-.65V-7h1.6v7h-1.33l-4.13-5.04h.65V0Zm7.16 0 3.12-7h1.6l3.14 7h-1.7l-2.56-6.18h.64L-23.08 0Zm1.56-1.5.43-1.23h3.6l.44 1.23Zm7.02 1.5v-7h3.42a3.3 3.3 0 0 1 1.99.5 1.6 1.6 0 0 1 .66 1.32 1.7 1.7 0 0 1-.27.96 2 2 0 0 1-.74.62 3 3 0 0 1-1.08.22l.19-.41a3 3 0 0 1 1.17.22 2 2 0 0 1 .8.63 2 2 0 0 1 .28 1.03 1.6 1.6 0 0 1-.7 1.4 3.6 3.6 0 0 1-2.1.5Zm1.61-1.22h1.9a2 2 0 0 0 .95-.2.7.7 0 0 0 .32-.65.7.7 0 0 0-.32-.66 2 2 0 0 0-.96-.22h-2v-1.18h1.72a2 2 0 0 0 .9-.2.7.7 0 0 0 .32-.62.7.7 0 0 0-.32-.62 2 2 0 0 0-.9-.2h-1.6ZM-8.5 0v-7h3.41a3.3 3.3 0 0 1 1.99.5 1.6 1.6 0 0 1 .66 1.32 1.7 1.7 0 0 1-.27.96 2 2 0 0 1-.74.62 3 3 0 0 1-1.08.22l.19-.41a3 3 0 0 1 1.17.22 2 2 0 0 1 .8.63 2 2 0 0 1 .28 1.03 1.6 1.6 0 0 1-.71 1.4A3.6 3.6 0 0 1-4.9 0Zm1.6-1.22H-5a2 2 0 0 0 .95-.2.7.7 0 0 0 .32-.65.7.7 0 0 0-.32-.66 2 2 0 0 0-.96-.22h-2v-1.18h1.72a2 2 0 0 0 .9-.2.7.7 0 0 0 .32-.62.7.7 0 0 0-.32-.62 2 2 0 0 0-.9-.2H-6.9ZM1.98 0v-7H3.6v5.68h3.5V0Zm9.32.12a4 4 0 0 1-1.54-.27 4 4 0 0 1-1.22-.76 4 4 0 0 1-.8-1.15 4 4 0 0 1-.29-1.44 4 4 0 0 1 .29-1.44 3 3 0 0 1 .8-1.15 4 4 0 0 1 1.22-.76 4 4 0 0 1 1.52-.27 4 4 0 0 1 1.53.27 4 4 0 0 1 1.2.76 4 4 0 0 1 .81 1.15 4 4 0 0 1 .29 1.44 4 4 0 0 1-.29 1.45 4 4 0 0 1-.8 1.15 4 4 0 0 1-1.21.75 4 4 0 0 1-1.52.27m-.01-1.38a2 2 0 0 0 .86-.16 2 2 0 0 0 .7-.46 2 2 0 0 0 .47-.71 2 2 0 0 0 .16-.91 2 2 0 0 0-.17-.91 2 2 0 0 0-.46-.71 2 2 0 0 0-.69-.46 2 2 0 0 0-.87-.16 2 2 0 0 0-.86.16 2 2 0 0 0-.7.46 2 2 0 0 0-.47.71 2 2 0 0 0-.16.91 2 2 0 0 0 .17.9 2 2 0 0 0 .45.72 2 2 0 0 0 .7.45 2 2 0 0 0 .87.17m6.5-.34-.1-1.87L21.05-7h1.8l-3.02 3.25-.9.96ZM16.31 0v-7h1.61v7Zm4.8 0-2.5-3.05 1.06-1.15L23 0Zm1.37 0 3.12-7h1.6l3.13 7h-1.7l-2.56-6.18h.65L24.16 0Zm1.56-1.5.43-1.23h3.6l.44 1.23ZM31.07 0v-7h1.62v5.68h3.51V0Zm-70.69 13V6h3.18a4.4 4.4 0 0 1 2.01.44 3.3 3.3 0 0 1 1.36 1.21 3.4 3.4 0 0 1 .49 1.85 3.4 3.4 0 0 1-.49 1.85 3.3 3.3 0 0 1-1.36 1.22 4.4 4.4 0 0 1-2.01.43Zm1.62-1.33h1.48a3 3 0 0 0 1.22-.26 2 2 0 0 0 .8-.76 2.3 2.3 0 0 0 .28-1.15 2 2 0 0 0-.28-1.15 2 2 0 0 0-.8-.75 3 3 0 0 0-1.22-.27H-38Zm6.64 1.33V6h1.62v7Zm5.58.12a6 6 0 0 1-1.61-.22 4 4 0 0 1-1.24-.59l.55-1.22a4 4 0 0 0 1.07.52 4 4 0 0 0 1.24.2 3 3 0 0 0 .78-.09 1 1 0 0 0 .43-.27.6.6 0 0 0 .14-.39.5.5 0 0 0-.22-.44 2 2 0 0 0-.58-.27l-.8-.2q-.44-.1-.87-.24a4 4 0 0 1-.8-.36 2 2 0 0 1-.58-.58 1.7 1.7 0 0 1-.23-.92 2 2 0 0 1 .33-1.09 2 2 0 0 1 .98-.79 4 4 0 0 1 1.64-.3 6 6 0 0 1 1.3.15 4 4 0 0 1 1.13.47l-.5 1.23a4 4 0 0 0-.98-.42 4 4 0 0 0-.96-.13 2 2 0 0 0-.77.11 1 1 0 0 0-.43.28.7.7 0 0 0-.13.41.5.5 0 0 0 .22.44 2 2 0 0 0 .58.26l.8.2q.44.1.87.23a3 3 0 0 1 .8.35 2 2 0 0 1 .59.58 1.7 1.7 0 0 1 .22.91 2 2 0 0 1-.33 1.08 2.3 2.3 0 0 1-.98.79 4 4 0 0 1-1.66.31m5.53-1.72-.09-1.87L-16.99 6h1.8l-3.02 3.25-.9.96ZM-21.7 13V6h1.61v7Zm4.79 0-2.49-3.05 1.06-1.15 3.32 4.2Zm6.89 0V7.32h-2.24V6h6.1v1.32H-8.4V13Zm4.73 0V6h1.62v7Zm3.28 0V6h1.62v5.68h3.51V13Zm6.04 0V6h1.62v5.68h3.51V13Zm10.36-4.18h3.37v1.26h-3.37Zm.12 2.88h3.81V13H12.9V6h5.29v1.3h-3.68Zm6.55 1.3V7.32h-2.24V6h6.1v1.32h-2.24V13Zm7.98.12a4 4 0 0 1-1.5-.26 3.5 3.5 0 0 1-2-1.9 3.8 3.8 0 0 1 0-2.9 4 4 0 0 1 .8-1.16 4 4 0 0 1 1.2-.75 4 4 0 0 1 1.5-.27 4 4 0 0 1 1.65.32 3 3 0 0 1 1.24.92l-1.04.96a2.4 2.4 0 0 0-.8-.61 2 2 0 0 0-.96-.2 3 3 0 0 0-.9.16 2 2 0 0 0-.71.46 2 2 0 0 0-.47.71 2.6 2.6 0 0 0 0 1.82 2 2 0 0 0 .47.71 2 2 0 0 0 .7.46 3 3 0 0 0 .9.16 2 2 0 0 0 .96-.2 2.4 2.4 0 0 0 .8-.62l1.05.96a3 3 0 0 1-1.24.93 4 4 0 0 1-1.65.3m3.98-.12V6h3.18a4.4 4.4 0 0 1 2.01.44 3.3 3.3 0 0 1 1.36 1.21 3.4 3.4 0 0 1 .49 1.85 3.4 3.4 0 0 1-.49 1.85 3.3 3.3 0 0 1-1.36 1.22 4.4 4.4 0 0 1-2.01.43Zm1.62-1.33h1.48a3 3 0 0 0 1.22-.26 2 2 0 0 0 .8-.76 2.3 2.3 0 0 0 .28-1.15 2 2 0 0 0-.28-1.15 2 2 0 0 0-.8-.75 3 3 0 0 0-1.22-.27h-1.48Z" transform="translate(734 272)"/></g></g></svg>