<svg xmlns="http://www.w3.org/2000/svg" xmlns:xlink="http://www.w3.org/1999/xlink" xml:space="preserve" width="2823" height="2483" overflow="hidden"><defs><clipPath id="clip0"><path d="M1327 844h178v143h-178z"/></clipPath><clipPath id="clip1"><path d="M1327 844h178v143h-178z"/></clipPath><clipPath id="clip2"><path d="M1327 844h178v143h-178z"/></clipPath></defs><g transform="translate(-1228 4)"><path fill="#3C9BCD" d="M1654 535.97h603.74v24.06H1654Zm591.7-24.06 72.19 36.09-72.19 36.1Zm-591.2-283.87h592.39v22.92H1654.5Zm580.93-22.91 68.75 34.37-68.75 34.38ZM1549 939.97h694.71v24.06H1549Zm682.68-24.06 72.18 36.09-72.18 36.1Z"/><path fill="none" stroke="#86B2D0" stroke-miterlimit="8" stroke-width="4.58333" d="M2330.5 72.25A71.76 71.76 0 0 1 2402.25.5h1571.5a71.76 71.76 0 0 1 71.75 71.75v2331.5a71.76 71.76 0 0 1-71.75 71.75h-1571.5a71.76 71.76 0 0 1-71.75-71.75Z"/><text fill="#417DA5" font-family="Montserrat SemiBold,Montserrat SemiBold_MSFontService,sans-serif" font-size="41" font-weight="600" transform="translate(2869.26 127)">OpenShift </text><text fill="#417DA5" font-family="Montserrat SemiBold,Montserrat SemiBold_MSFontService,sans-serif" font-size="41" font-weight="600" transform="translate(3096.7 127)">Container </text><text fill="#417DA5" font-family="Montserrat SemiBold,Montserrat SemiBold_MSFontService,sans-serif" font-size="41" font-weight="600" transform="translate(3318.42 127)">Platform</text><path fill="#E8EFF3" fill-rule="evenodd" d="M2382 263.49a65.5 65.5 0 0 1 65.48-65.49h649a65.5 65.5 0 0 1 65.48 65.49v1948.03a65.5 65.5 0 0 1-65.48 65.48h-649a65.5 65.5 0 0 1-65.48-65.48Z"/><text fill="#417DA5" font-family="Montserrat SemiBold,Montserrat SemiBold_MSFontService,sans-serif" font-size="41" font-weight="600" transform="translate(2454.89 323)">CONTROL PLANE NODES (</text><text fill="#417DA5" font-family="Montserrat SemiBold,Montserrat SemiBold_MSFontService,sans-serif" font-size="41" font-weight="600" transform="translate(3017.5 323)">xN</text><text fill="#417DA5" font-family="Montserrat SemiBold,Montserrat SemiBold_MSFontService,sans-serif" font-size="41" font-weight="600" transform="translate(3074.22 323)">)</text><path fill="#E8EFF3" fill-rule="evenodd" d="M3213 263.49a65.5 65.5 0 0 1 65.49-65.49h648.99a65.5 65.5 0 0 1 65.48 65.49v1948.03a65.5 65.5 0 0 1-65.48 65.48h-648.99a65.5 65.5 0 0 1-65.49-65.48Z"/><text fill="#417DA5" font-family="Montserrat SemiBold,Montserrat SemiBold_MSFontService,sans-serif" font-size="41" font-weight="600" transform="translate(3362.11 323)">COMPUTE NODES (</text><text fill="#417DA5" font-family="Montserrat SemiBold,Montserrat SemiBold_MSFontService,sans-serif" font-size="41" font-weight="600" transform="translate(3773.46 323)">xN</text><text fill="#417DA5" font-family="Montserrat SemiBold,Montserrat SemiBold_MSFontService,sans-serif" font-size="41" font-weight="600" transform="translate(3830.18 323)">)</text><text fill="#417DA5" font-family="Montserrat SemiBold,Montserrat SemiBold_MSFontService,sans-serif" font-size="41" font-weight="600" transform="translate(3587.26 372)">--</text><path fill="#FAFEFE" fill-rule="evenodd" d="M2421 510a78 78 0 0 1 78-78h546a78 78 0 1 1 0 156h-546a78 78 0 0 1-78-78"/><text fill="#417DA5" font-family="Montserrat SemiBold,Montserrat SemiBold_MSFontService,sans-serif" font-size="41" font-weight="600" transform="translate(2570.05 524)">OpenShift Services</text><path fill="#FAFEFE" fill-rule="evenodd" d="M2421 692a78 78 0 0 1 78-78h546a78 78 0 1 1 0 156h-546a78 78 0 0 1-78-78"/><text fill="#417DA5" font-family="Montserrat SemiBold,Montserrat SemiBold_MSFontService,sans-serif" font-size="41" font-weight="600" transform="translate(2504.74 706)">Networking</text><text fill="#417DA5" font-family="Montserrat SemiBold,Montserrat SemiBold_MSFontService,sans-serif" font-size="41" font-weight="600" transform="translate(2769.43 706)">components</text><path fill="#FAFEFE" fill-rule="evenodd" d="M2421 859.1a63.1 63.1 0 0 1 63.09-63.1h575.82a63.1 63.1 0 0 1 63.09 63.1v340.81a63.1 63.1 0 0 1-63.09 63.09h-575.82a63.1 63.1 0 0 1-63.09-63.09Z"/><text fill="#417DA5" font-family="Montserrat SemiBold,Montserrat SemiBold_MSFontService,sans-serif" font-size="41" font-weight="600" transform="translate(2556.59 945)">Kubernetes</text><text fill="#417DA5" font-family="Montserrat SemiBold,Montserrat SemiBold_MSFontService,sans-serif" font-size="41" font-weight="600" transform="translate(2815.54 945)">services</text><text fill="#86B2D0" font-family="Montserrat,Montserrat_MSFontService,sans-serif" font-size="41" font-weight="400" transform="translate(2667.16 1044)">Scheduler</text><text fill="#86B2D0" font-family="Montserrat,Montserrat_MSFontService,sans-serif" font-size="41" font-weight="400" transform="translate(2568.92 1094)">Controller</text><text fill="#86B2D0" font-family="Montserrat,Montserrat_MSFontService,sans-serif" font-size="41" font-weight="400" transform="translate(2785.48 1094)">manager</text><text fill="#86B2D0" font-family="Montserrat,Montserrat_MSFontService,sans-serif" font-size="41" font-weight="400" transform="translate(2646.26 1143)">API</text><text fill="#86B2D0" font-family="Montserrat,Montserrat_MSFontService,sans-serif" font-size="41" font-weight="400" transform="translate(2729.33 1143)">Service</text><text fill="#86B2D0" font-family="Montserrat,Montserrat_MSFontService,sans-serif" font-size="41" font-weight="400" transform="translate(2877.15 1143)">s</text><path fill="#FAFEFE" fill-rule="evenodd" d="M2421 1367a78 78 0 0 1 78-78h546a78 78 0 1 1 0 156h-546a78 78 0 0 1-78-78"/><text fill="#417DA5" font-family="Montserrat SemiBold,Montserrat SemiBold_MSFontService,sans-serif" font-size="41" font-weight="600" transform="translate(2507.89 1382)">Cluster Version Operator</text><path fill="#FAFEFE" fill-rule="evenodd" d="M2421 1549a78 78 0 0 1 78-78h546a78 78 0 1 1 0 156h-546a78 78 0 0 1-78-78"/><text fill="#417DA5" font-family="Montserrat SemiBold,Montserrat SemiBold_MSFontService,sans-serif" font-size="41" font-weight="600" transform="translate(2723.88 1564)">etcd</text><path fill="#FAFEFE" fill-rule="evenodd" d="M3317 514.18a49.2 49.2 0 0 1 49.18-49.18h473.64a49.2 49.2 0 0 1 49.18 49.18v265.64a49.2 49.2 0 0 1-49.18 49.18h-473.64a49.2 49.2 0 0 1-49.18-49.18Z"/><text fill="#417DA5" font-family="Montserrat SemiBold,Montserrat SemiBold_MSFontService,sans-serif" font-size="41" font-weight="600" transform="translate(3514.78 562)">Logging</text><text fill="#86B2D0" font-family="Montserrat,Montserrat_MSFontService,sans-serif" font-size="41" font-weight="400" transform="translate(3531.12 661)">Kibana</text><text fill="#86B2D0" font-family="Montserrat,Montserrat_MSFontService,sans-serif" font-size="41" font-weight="400" transform="translate(3479.83 711)">Elastisearch</text><text fill="#86B2D0" font-family="Montserrat,Montserrat_MSFontService,sans-serif" font-size="41" font-weight="400" transform="translate(3473.83 760)">Grafana</text><text fill="#86B2D0" font-family="Montserrat,Montserrat_MSFontService,sans-serif" font-size="41" font-weight="400" transform="translate(3647.42 760)">Loki</text><path fill="#FAFEFE" fill-rule="evenodd" d="M3317 902.18a49.2 49.2 0 0 1 49.18-49.18h473.64a49.2 49.2 0 0 1 49.18 49.18v265.64a49.2 49.2 0 0 1-49.18 49.18h-473.64a49.2 49.2 0 0 1-49.18-49.18Z"/><text fill="#417DA5" font-family="Montserrat SemiBold,Montserrat SemiBold_MSFontService,sans-serif" font-size="41" font-weight="600" transform="translate(3485.28 951)">Monitoring</text><text fill="#86B2D0" font-family="Montserrat,Montserrat_MSFontService,sans-serif" font-size="41" font-weight="400" transform="translate(3498.74 1050)">Scheduler</text><text fill="#86B2D0" font-family="Montserrat,Montserrat_MSFontService,sans-serif" font-size="41" font-weight="400" transform="translate(3400.49 1100)">Controller</text><text fill="#86B2D0" font-family="Montserrat,Montserrat_MSFontService,sans-serif" font-size="41" font-weight="400" transform="translate(3617.06 1100)">manager</text><text fill="#86B2D0" font-family="Montserrat,Montserrat_MSFontService,sans-serif" font-size="41" font-weight="400" transform="translate(3477.84 1149)">API</text><text fill="#86B2D0" font-family="Montserrat,Montserrat_MSFontService,sans-serif" font-size="41" font-weight="400" transform="translate(3560.91 1149)">Service</text><text fill="#86B2D0" font-family="Montserrat,Montserrat_MSFontService,sans-serif" font-size="41" font-weight="400" transform="translate(3708.72 1149)">s</text><path fill="none" stroke="#86B2D0" stroke-miterlimit="8" stroke-width="4.58333" d="M3274.5 489.15a69.65 69.65 0 0 1 69.65-69.65h527.7a69.65 69.65 0 0 1 69.65 69.65v704.7a69.65 69.65 0 0 1-69.65 69.65h-527.7a69.65 69.65 0 0 1-69.65-69.65Z"/><path fill="#E8EFF3" d="M3422 390h337v50h-337z"/><text fill="#86B2D0" font-family="Montserrat SemiBold,Montserrat SemiBold_MSFontService,sans-serif" font-size="41" font-weight="600" transform="translate(3449.44 430)">Observability</text><path fill="#FAFEFE" fill-rule="evenodd" d="M3252 1323.21a31.2 31.2 0 0 1 31.21-31.21h639.58a31.2 31.2 0 0 1 31.21 31.21v168.58a31.2 31.2 0 0 1-31.21 31.21h-639.58a31.2 31.2 0 0 1-31.21-31.21Z"/><text fill="#417DA5" font-family="Montserrat SemiBold,Montserrat SemiBold_MSFontService,sans-serif" font-size="41" font-weight="600" transform="translate(3476.69 1372)">Networking</text><text fill="#86B2D0" font-family="Montserrat,Montserrat_MSFontService,sans-serif" font-size="41" font-weight="400" transform="translate(3364.97 1471)">SDN, NTO, DNS,</text><text fill="#86B2D0" font-family="Montserrat,Montserrat_MSFontService,sans-serif" font-size="41" font-weight="400" transform="translate(3700.7 1471)">Router</text><path fill="#FAFEFE" fill-rule="evenodd" d="M3252 1633a78 78 0 0 1 78-78h546a78 78 0 1 1 0 156h-546a78 78 0 0 1-78-78"/><text fill="#417DA5" font-family="Montserrat SemiBold,Montserrat SemiBold_MSFontService,sans-serif" font-size="41" font-weight="600" transform="translate(3342.06 1647)">OpenShift </text><text fill="#417DA5" font-family="Montserrat SemiBold,Montserrat SemiBold_MSFontService,sans-serif" font-size="41" font-weight="600" transform="translate(3569.5 1647)">Lifecycle</text><text fill="#417DA5" font-family="Montserrat SemiBold,Montserrat SemiBold_MSFontService,sans-serif" font-size="41" font-weight="600" transform="translate(3768.88 1647)">Mgr</text><text fill="#417DA5" font-family="Montserrat SemiBold,Montserrat SemiBold_MSFontService,sans-serif" font-size="41" font-weight="600" transform="translate(3854.24 1647)">.</text><path fill="#FAFEFE" fill-rule="evenodd" d="M3252 1810a78 78 0 0 1 78-78h546a78 78 0 1 1 0 156h-546a78 78 0 0 1-78-78"/><text fill="#417DA5" font-family="Montserrat SemiBold,Montserrat SemiBold_MSFontService,sans-serif" font-size="41" font-weight="600" transform="translate(3321.43 1825)">Integrated</text><text fill="#417DA5" font-family="Montserrat SemiBold,Montserrat SemiBold_MSFontService,sans-serif" font-size="41" font-weight="600" transform="translate(3560.34 1825)">Image </text><text fill="#417DA5" font-family="Montserrat SemiBold,Montserrat SemiBold_MSFontService,sans-serif" font-size="41" font-weight="600" transform="translate(3708.15 1825)">Registry</text><path fill="#FAFEFE" fill-rule="evenodd" d="M3252 1988a78 78 0 0 1 78-78h546a78 78 0 1 1 0 156h-546a78 78 0 0 1-78-78"/><text fill="#417DA5" font-family="Montserrat SemiBold,Montserrat SemiBold_MSFontService,sans-serif" font-size="41" font-weight="600" transform="translate(3360.39 2002)">Machine</text><text fill="#417DA5" font-family="Montserrat SemiBold,Montserrat SemiBold_MSFontService,sans-serif" font-size="41" font-weight="600" transform="translate(3554.61 2002)">management</text><path fill="#FAFEFE" fill-rule="evenodd" d="M3252 2165a78 78 0 0 1 78-78h546a78 78 0 1 1 0 156h-546a78 78 0 0 1-78-78"/><text fill="#417DA5" font-family="Montserrat SemiBold,Montserrat SemiBold_MSFontService,sans-serif" font-size="41" font-weight="600" transform="translate(3519.66 2179)">Kubelet</text><path fill="#E8EFF3" fill-rule="evenodd" d="M2382 2361a65 65 0 0 1 65-65h390a65 65 0 1 1 0 130h-390a65 65 0 0 1-65-65"/><text fill="#417DA5" font-family="Montserrat SemiBold,Montserrat SemiBold_MSFontService,sans-serif" font-size="41" font-weight="600" transform="translate(2542.09 2376)">Compute</text><path fill="#E8EFF3" fill-rule="evenodd" d="M2928 2361a65 65 0 0 1 65-65h389a65 65 0 1 1 0 130h-389a65 65 0 0 1-65-65"/><text fill="#417DA5" font-family="Montserrat SemiBold,Montserrat SemiBold_MSFontService,sans-serif" font-size="41" font-weight="600" transform="translate(3095.27 2376)">Network</text><path fill="#E8EFF3" fill-rule="evenodd" d="M3473 2361a65 65 0 0 1 65-65h390a65 65 0 1 1 0 130h-390a65 65 0 0 1-65-65"/><text fill="#417DA5" font-family="Montserrat SemiBold,Montserrat SemiBold_MSFontService,sans-serif" font-size="41" font-weight="600" transform="translate(3649.88 2376)">Storage</text><path fill="#417DA5" d="M1479.8 356.06c14.91 0 27-12.1 27-27.03a27.01 27.01 0 1 0-54 0 27 27 0 0 0 27 27.03m-129.6 0c14.91 0 27-12.1 27-27.03a27 27 0 0 0-27-27.03c-14.91 0-27 12.1-27 27.03a27 27 0 0 0 27 27.03m64.77 54.07c19.37 0 34.8-15.74 34.8-35.15s-15.71-35.14-34.8-35.14c-19.38 0-34.8 15.74-34.8 35.14-.3 19.4 15.42 35.15 34.8 35.15m16.23 27.03c0-5.64 1.15-10.97 2.9-16-.77-.05-1.48-.22-2.26-.22h-33.68c-26.5 0-47.96 20.17-47.96 45.04 0 5 4.29 9.02 9.59 9.02h89.8c-11.13-8.92-18.39-22.47-18.39-37.84m-62.13-62.18c0-1.84.33-3.59.54-5.37-3.68-2.03-7.73-2.73-12.02-2.73h-20.86c-16.42 0-29.73 14.12-29.73 31.52 0 3.48 2.66 6.32 5.95 6.32h67.33a45.5 45.5 0 0 1-11.21-29.74m124.2-8.1h-20.87c-4.33 0-8.4 1.02-12.1 2.78.2 1.78.53 3.5.53 5.32 0 7.26-1.9 13.99-4.94 20.06a48 48 0 0 1 23.91-6.54c14.34 0 27.1 6.33 35.98 16.22h1.27c3.28 0 5.95-2.84 5.95-6.32 0-17.4-13.3-31.52-29.73-31.52m22.34 59.02a38 38 0 0 0-8.35-14.43 1.8 1.8 0 0 0-2.27-.34l-6.46 3.74a29 29 0 0 0-9.27-5.35v-7.8c0-.86-.63-1.61-1.44-1.77a38 38 0 0 0-16.65 0c-.52.44-1.12 1.22-1.12 1.76v7.52a29 29 0 0 0-9.27 5.34l-6.5-3.74a1.8 1.8 0 0 0-2.26.35 38 38 0 0 0-8.32 14.43c-.25.85.1 1.73.82 2.14l6.47 3.77a31 31 0 0 0 0 10.7l-6.47 3.77a1.8 1.8 0 0 0-.82 2.13 38 38 0 0 0 8.32 14.44c.6.62 1.5.78 2.26.34l6.5-3.74a29 29 0 0 0 9.27 5.35v7.51c0 .85.6 1.6 1.41 1.76a38 38 0 0 0 16.64 0 1.8 1.8 0 0 0 1.45-1.76v-7.51c3.4-1.2 6.53-3.02 9.27-5.35l6.46 3.74c.73.44 1.7.28 2.27-.34a38 38 0 0 0 8.35-14.44c.25-.84-.1-1.73-.85-2.13l-6.47-3.78a29 29 0 0 0 0-10.69l6.47-3.77c.76-.12 1.1-1 .56-1.85m-35.81 22.07a10.8 10.8 0 1 1 .02-21.62 10.8 10.8 0 0 1-.02 21.62"/><text fill="#417DA5" font-family="Montserrat SemiBold,Montserrat SemiBold_MSFontService,sans-serif" font-size="37" font-weight="600" transform="translate(1284.83 549)">DEVELOPERS</text><g clip-path="url(#clip0)"><g clip-path="url(#clip1)"><g clip-path="url(#clip2)"><path fill="#3C9BCD" d="M1389.95 916c19.55 0 35.4-15.9 35.4-35.5s-15.85-35.5-35.4-35.5a35.45 35.45 0 0 0-35.4 35.5c0 19.6 15.85 35.5 35.4 35.5m-12.64 13.31a49.37 49.37 0 0 0-49.31 49.45 8.23 8.23 0 0 0 8.21 8.24h107.48q.73-.01 1.46-.14c-21.1-15.28-27.6-39.1-28.51-55.52a49 49 0 0 0-14.02-2.03zm85.4-21.71-33.18 13.3a6.7 6.7 0 0 0-4.18 6.2c0 17.55 7.16 46.8 37.28 59.4 1.63.7 3.48.7 5.12 0 30.09-12.6 37.25-41.85 37.25-59.4a6.7 6.7 0 0 0-4.18-6.2l-33.18-13.3a6.6 6.6 0 0 0-4.93 0m28.85 23.93c-1.08 14.06-7.52 32.37-26.38 41.52v-52.11z"/></g></g></g><text fill="#3C9BCD" font-family="Montserrat SemiBold,Montserrat SemiBold_MSFontService,sans-serif" font-size="37" font-weight="600" transform="translate(1338.05 1061)">ADMINS</text><path fill="#FAFEFE" fill-rule="evenodd" stroke="#86B2D0" stroke-miterlimit="8" stroke-width="4.58333" d="M1742.5 156.12a7.6 7.6 0 0 1 7.61-7.62h382.78a7.6 7.6 0 0 1 7.61 7.62v166.77c0 4.2-3.41 7.61-7.61 7.61h-382.78a7.6 7.6 0 0 1-7.61-7.62Z"/><text fill="#417DA5" font-family="Montserrat SemiBold,Montserrat SemiBold_MSFontService,sans-serif" font-size="41" font-weight="600" transform="translate(1842.19 253)">SCM (Git)</text><path fill="#FAFEFE" fill-rule="evenodd" stroke="#86B2D0" stroke-miterlimit="8" stroke-width="4.58333" d="M1742.5 465.12a7.6 7.6 0 0 1 7.61-7.62h382.78a7.6 7.6 0 0 1 7.61 7.62v166.77c0 4.2-3.41 7.61-7.61 7.61h-382.78a7.6 7.6 0 0 1-7.61-7.62Z"/><text fill="#417DA5" font-family="Montserrat SemiBold,Montserrat SemiBold_MSFontService,sans-serif" font-size="41" font-weight="600" transform="translate(1868.26 562)">CI / CD</text><path fill="#FAFEFE" fill-rule="evenodd" stroke="#8AC3E1" stroke-miterlimit="8" stroke-width="4.58333" d="M1742.5 840.05c0-6.38 5.17-11.55 11.55-11.55h374.9c6.38 0 11.55 5.17 11.55 11.55v252.9c0 6.38-5.17 11.55-11.55 11.55h-374.9a11.55 11.55 0 0 1-11.55-11.55Z"/><text fill="#3C9BCD" font-family="Montserrat SemiBold,Montserrat SemiBold_MSFontService,sans-serif" font-size="41" font-weight="600" transform="translate(1855.38 931)">Existing</text><text fill="#3C9BCD" font-family="Montserrat SemiBold,Montserrat SemiBold_MSFontService,sans-serif" font-size="41" font-weight="600" transform="translate(1812.68 981)">Automation </text><text fill="#3C9BCD" font-family="Montserrat SemiBold,Montserrat SemiBold_MSFontService,sans-serif" font-size="41" font-weight="600" transform="translate(1853.08 1030)">Toolsets</text><path fill="none" stroke="#3C9BCD" stroke-miterlimit="8" stroke-width="22.9167" d="M1552.5 398.96h94.7V239.5h94.7"/><path fill="none" stroke="#3C9BCD" stroke-miterlimit="8" stroke-width="22.9167" d="M1554.5 397.5h93.78v151.34h93.78"/><path fill="#3C9BCD" d="M1953.03 330v67.26h-24.06V330Zm24.06 55.23L1941 457.4l-36.09-72.18Z"/></g></svg>