<svg xmlns="http://www.w3.org/2000/svg" xmlns:xlink="http://www.w3.org/1999/xlink" width="642" height="425" viewBox="0 0 642 425"><defs><filter id="Rectangle_359" width="642" height="425" x="0" y="0" filterUnits="userSpaceOnUse"><feOffset dy="3"/><feGaussianBlur result="blur" stdDeviation="3"/><feFlood flood-opacity="0.161"/><feComposite in2="blur" operator="in"/><feComposite in="SourceGraphic"/></filter></defs><g id="safespring-managed-kubernetessservice-description" transform="translate(-67 -81)"><g filter="url(#Rectangle_359)" transform="translate(67 81)"><rect id="Rectangle_359-2" width="624" height="407" fill="#fff" rx="17" transform="translate(9 6)"/></g><g id="Rectangle_360" fill="none" stroke="#3c9bcd" stroke-dasharray="7 7" stroke-linecap="round" stroke-linejoin="round" stroke-width="1" transform="translate(115 123)"><rect width="154" height="191" stroke="none" rx="11"/><rect width="153" height="190" x="0.5" y="0.5" rx="10.5"/></g><rect id="Rectangle_361" width="117" height="25" fill="rgba(25,95,140,0.1)" rx="12.5" transform="translate(134 169)"/><rect id="Rectangle_362" width="117" height="25" fill="rgba(25,95,140,0.1)" rx="12.5" transform="translate(134 200)"/><rect id="Rectangle_363" width="117" height="25" fill="rgba(25,95,140,0.1)" rx="12.5" transform="translate(134 231)"/><rect id="Rectangle_364" width="117" height="25" fill="rgba(25,95,140,0.1)" rx="12.5" transform="translate(134 262)"/><g id="Rectangle_365" fill="none" stroke="#3c9bcd" stroke-dasharray="7 7" stroke-linecap="round" stroke-linejoin="round" stroke-width="1" transform="translate(507 123)"><rect width="154" height="191" stroke="none" rx="11"/><rect width="153" height="190" x="0.5" y="0.5" rx="10.5"/></g><rect id="Rectangle_366" width="117" height="25" fill="rgba(25,95,140,0.1)" rx="12.5" transform="translate(526 169)"/><rect id="Rectangle_367" width="117" height="25" fill="rgba(25,95,140,0.1)" rx="12.5" transform="translate(526 200)"/><rect id="Rectangle_368" width="117" height="25" fill="rgba(25,95,140,0.1)" rx="12.5" transform="translate(526 266)"/><rect id="Rectangle_369" width="117" height="25" fill="rgba(25,95,140,0.1)" rx="12.5" transform="translate(526 231)"/><g id="Rectangle_370" fill="none" stroke="#3c9bcd" stroke-dasharray="7 7" stroke-linecap="round" stroke-linejoin="round" stroke-width="1" transform="translate(209 335)"><rect width="358" height="124" stroke="none" rx="11"/><rect width="357" height="123" x="0.5" y="0.5" rx="10.5"/></g><rect id="Rectangle_371" width="89" height="25" fill="rgba(25,95,140,0.1)" rx="12.5" transform="translate(236 382)"/><rect id="Rectangle_372" width="97" height="25" fill="rgba(25,95,140,0.1)" rx="12.5" transform="translate(444 381)"/><rect id="Rectangle_373" width="107" height="25" fill="rgba(25,95,140,0.1)" rx="12.5" transform="translate(332 382)"/><rect id="Rectangle_374" width="71" height="25" fill="rgba(25,95,140,0.1)" rx="12.5" transform="translate(236 413)"/><rect id="Rectangle_375" width="71" height="25" fill="rgba(25,95,140,0.1)" rx="12.5" transform="translate(313 413)"/><rect id="Rectangle_376" width="71" height="25" fill="rgba(25,95,140,0.1)" rx="12.5" transform="translate(391 413)"/><rect id="Rectangle_377" width="71" height="25" fill="rgba(25,95,140,0.1)" rx="12.5" transform="translate(470 412)"/><rect id="Rectangle_378" width="117" height="63" fill="#a0bccb" rx="11" transform="translate(330 162)"/><rect id="Rectangle_379" width="131" height="63" fill="#b5cdd9" rx="11" transform="translate(323 174)"/><rect id="Rectangle_380" width="147" height="63" fill="#d2e2ea" rx="11" transform="translate(315 187)"/><rect id="Rectangle_381" width="171" height="85" fill="#e7eff3" rx="11" transform="translate(303 198)"/><rect id="Rectangle_382" width="147" height="48" fill="rgba(25,95,140,0.1)" rx="13" transform="translate(315 227)"/><rect id="Rectangle_383" width="31" height="10" fill="rgba(25,95,140,0.1)" rx="5" transform="translate(332 252)"/><rect id="Rectangle_384" width="31" height="10" fill="rgba(25,95,140,0.1)" rx="5" transform="translate(373 252)"/><rect id="Rectangle_385" width="31" height="10" fill="rgba(25,95,140,0.1)" rx="5" transform="translate(414 252)"/><g id="text"><path id="Path_5668" fill="#3c9bcd" d="M-51.65 0v-6.3h2.72a4 4 0 0 1 1.46.27 2 2 0 0 1 .94.8 2 2 0 0 1 .34 1.22 2 2 0 0 1-.34 1.21 2 2 0 0 1-.94.79 4 4 0 0 1-1.46.27h-1.92l.65-.66V0Zm1.45-2.23-.65-.7H-49a1.5 1.5 0 0 0 1-.27 1 1 0 0 0 .33-.8 1 1 0 0 0-.33-.81 1.5 1.5 0 0 0-1-.3h-1.84l.64-.68ZM-45.17 0v-6.68h1.4V0Zm5.68 0v-.94l-.09-.21v-1.7a1 1 0 0 0-.27-.7 1.2 1.2 0 0 0-.84-.25 2 2 0 0 0-.76.13 2 2 0 0 0-.64.32l-.5-.98a3 3 0 0 1 .96-.43 4 4 0 0 1 1.13-.15 2.6 2.6 0 0 1 1.72.52 2 2 0 0 1 .61 1.63V0Zm-1.47.07a2 2 0 0 1-.98-.2 1.5 1.5 0 0 1-.62-.52 1.3 1.3 0 0 1-.21-.75 1.4 1.4 0 0 1 .2-.75 1.4 1.4 0 0 1 .68-.51 3 3 0 0 1 1.2-.18h1.29v.81h-1.14a1 1 0 0 0-.68.17.5.5 0 0 0-.18.4.5.5 0 0 0 .2.43 1 1 0 0 0 .59.16 1 1 0 0 0 .63-.17 1 1 0 0 0 .4-.49l.22.65a1.3 1.3 0 0 1-.56.7 2 2 0 0 1-1.04.25m6.04 0a2 2 0 0 1-1.34-.43 1.7 1.7 0 0 1-.47-1.3v-4.25h1.4v4.23a.7.7 0 0 0 .16.47.6.6 0 0 0 .44.17 1 1 0 0 0 .57-.18l.37.99a2 2 0 0 1-.51.23 3 3 0 0 1-.62.07m-2.56-3.72v-1.08h3.36v1.08ZM-32.82 0v-4.95a1.8 1.8 0 0 1 .49-1.3 2 2 0 0 1 1.38-.5 3 3 0 0 1 .6.06 1 1 0 0 1 .47.2l-.36 1.02a1 1 0 0 0-.27-.13 1 1 0 0 0-.3-.04.6.6 0 0 0-.47.17.7.7 0 0 0-.17.53v.45l.04.6V0Zm-.75-3.65v-1.08h3.36v1.08Zm6.3 3.72a3 3 0 0 1-1.37-.32 2.5 2.5 0 0 1-.94-.89 2.4 2.4 0 0 1-.35-1.28 2.4 2.4 0 0 1 .35-1.3 2.4 2.4 0 0 1 .94-.87 3 3 0 0 1 1.37-.32 3 3 0 0 1 1.37.32 2.4 2.4 0 0 1 .95.87 2.4 2.4 0 0 1 .34 1.3 2.4 2.4 0 0 1-.34 1.29 2.4 2.4 0 0 1-.95.88 3 3 0 0 1-1.37.32m0-1.15a1 1 0 0 0 .63-.16 1 1 0 0 0 .44-.47 1.5 1.5 0 0 0 .17-.71 1.5 1.5 0 0 0-.17-.72 1 1 0 0 0-.44-.46 1 1 0 0 0-.63-.16 1 1 0 0 0-.63.16 1 1 0 0 0-.44.46 1.5 1.5 0 0 0-.17.72 1.5 1.5 0 0 0 .17.71 1 1 0 0 0 .44.47 1 1 0 0 0 .63.16m3.6 1.08v-4.84h1.34v1.37l-.2-.4a1.6 1.6 0 0 1 .7-.78 2.4 2.4 0 0 1 1.16-.27v1.3l-.16-.01h-.15a1.3 1.3 0 0 0-.93.33 1.3 1.3 0 0 0-.36 1.02V0Zm10.04-4.91a2 2 0 0 1 1.02.23 1.7 1.7 0 0 1 .7.7 2.5 2.5 0 0 1 .26 1.2V0h-1.4v-2.56a1.3 1.3 0 0 0-.25-.86 1 1 0 0 0-.68-.28 1 1 0 0 0-.55.14 1 1 0 0 0-.38.42 2 2 0 0 0-.14.71V0h-1.4v-2.56a1.3 1.3 0 0 0-.23-.86 1 1 0 0 0-.68-.28 1 1 0 0 0-.55.14 1 1 0 0 0-.38.42 2 2 0 0 0-.14.71V0h-1.4v-4.84h1.35v1.32l-.26-.39a1.7 1.7 0 0 1 .72-.75 2 2 0 0 1 1.06-.25 2 2 0 0 1 1.16.33 1.6 1.6 0 0 1 .66 1.03l-.5-.13a2 2 0 0 1 .79-.9 2.3 2.3 0 0 1 1.22-.33M-5.54.07a3 3 0 0 1-1.37-.32 2.5 2.5 0 0 1-.95-.89 2.4 2.4 0 0 1-.34-1.28 2.4 2.4 0 0 1 .35-1.3 2.4 2.4 0 0 1 .94-.87 3 3 0 0 1 1.37-.32 3 3 0 0 1 1.37.32 2.4 2.4 0 0 1 .94.87 2.4 2.4 0 0 1 .35 1.3 2.4 2.4 0 0 1-.35 1.29 2.4 2.4 0 0 1-.94.88 3 3 0 0 1-1.37.32m0-1.15a1 1 0 0 0 .63-.16 1 1 0 0 0 .44-.47 1.5 1.5 0 0 0 .16-.71 1.5 1.5 0 0 0-.16-.72 1 1 0 0 0-.44-.46 1 1 0 0 0-.63-.16 1 1 0 0 0-.63.16 1 1 0 0 0-.44.46 1.5 1.5 0 0 0-.17.72 1.5 1.5 0 0 0 .17.71 1 1 0 0 0 .44.47 1 1 0 0 0 .63.16M.91.07A2 2 0 0 1-.19-.2a1.7 1.7 0 0 1-.7-.82 4 4 0 0 1-.24-1.4 3 3 0 0 1 .26-1.4 2 2 0 0 1 .71-.82 2 2 0 0 1 1.07-.27 2.5 2.5 0 0 1 1.23.3 2.3 2.3 0 0 1 .87.87 2.6 2.6 0 0 1 .32 1.32A2.6 2.6 0 0 1 3-1.1a2.3 2.3 0 0 1-.87.86A2.4 2.4 0 0 1 .91.07M-1.95 0v-6.68h1.4v2.82l-.08 1.43.02 1.44V0ZM.67-1.08a1 1 0 0 0 .63-.16 1 1 0 0 0 .44-.47 1.5 1.5 0 0 0 .16-.71 1.5 1.5 0 0 0-.17-.72 1 1 0 0 0-.43-.46 1 1 0 0 0-.63-.16 1 1 0 0 0-.63.16 1 1 0 0 0-.44.46 1.5 1.5 0 0 0-.16.72 1.5 1.5 0 0 0 .16.71 1 1 0 0 0 .44.47 1 1 0 0 0 .63.16M5.89.07A5 5 0 0 1 4.7-.08a3 3 0 0 1-.9-.37l.47-1a3 3 0 0 0 .79.33 3 3 0 0 0 .9.13 1.5 1.5 0 0 0 .68-.12.4.4 0 0 0 .2-.32.3.3 0 0 0-.15-.26 1 1 0 0 0-.42-.13l-.58-.09-.63-.12a2 2 0 0 1-.57-.23 1 1 0 0 1-.42-.41 1.3 1.3 0 0 1-.16-.68 1.3 1.3 0 0 1 .27-.8 2 2 0 0 1 .77-.56 3 3 0 0 1 1.2-.2 5 5 0 0 1 1 .1 3 3 0 0 1 .86.32l-.46 1a2 2 0 0 0-.71-.28 3 3 0 0 0-.69-.08 1.4 1.4 0 0 0-.68.13.4.4 0 0 0-.22.32.3.3 0 0 0 .16.27 1 1 0 0 0 .42.14q.26.06.57.1l.62.12a2 2 0 0 1 .58.23 1 1 0 0 1 .41.4 1.2 1.2 0 0 1 .17.67 1.3 1.3 0 0 1-.27.8 2 2 0 0 1-.78.55 3 3 0 0 1-1.24.2m5.55 0A3 3 0 0 1 10-.25a2.4 2.4 0 0 1-.97-.89 2.4 2.4 0 0 1-.34-1.28 2.5 2.5 0 0 1 .34-1.3 2.4 2.4 0 0 1 .92-.87 3 3 0 0 1 1.32-.32 3 3 0 0 1 1.29.3 2.3 2.3 0 0 1 .9.86 2.6 2.6 0 0 1 .33 1.35v.18l-.02.2H9.82v-.82h3.2l-.54.24a1.4 1.4 0 0 0-.15-.65 1 1 0 0 0-.43-.44 1 1 0 0 0-.63-.16 1.3 1.3 0 0 0-.63.16 1 1 0 0 0-.43.44 1.4 1.4 0 0 0-.15.67v.22a1.4 1.4 0 0 0 .17.7 1 1 0 0 0 .5.46 2 2 0 0 0 .75.15 2 2 0 0 0 .68-.11 2 2 0 0 0 .53-.35l.75.8a2 2 0 0 1-.84.58 3 3 0 0 1-1.16.2M14.72 0v-4.84h1.34v1.37l-.19-.4a1.6 1.6 0 0 1 .7-.78 2.4 2.4 0 0 1 1.15-.27v1.3l-.16-.01h-.15a1.3 1.3 0 0 0-.93.33 1.3 1.3 0 0 0-.36 1.02V0Zm5.33 0L18-4.84h1.45l1.7 4.17h-.73l1.76-4.17h1.35L21.5 0Zm6.87 0v-.94l-.09-.21v-1.7a1 1 0 0 0-.27-.7 1.2 1.2 0 0 0-.84-.25 2 2 0 0 0-.76.13 2 2 0 0 0-.64.32l-.5-.98a3 3 0 0 1 .96-.43 4 4 0 0 1 1.13-.15 2.6 2.6 0 0 1 1.72.52 2 2 0 0 1 .61 1.63V0Zm-1.47.07a2 2 0 0 1-.97-.2 1.5 1.5 0 0 1-.63-.52 1.3 1.3 0 0 1-.21-.75 1.4 1.4 0 0 1 .21-.75 1.4 1.4 0 0 1 .67-.51 3 3 0 0 1 1.2-.18H27v.81h-1.13a1 1 0 0 0-.68.17.5.5 0 0 0-.18.4.5.5 0 0 0 .2.43 1 1 0 0 0 .59.16 1 1 0 0 0 .63-.17 1 1 0 0 0 .4-.49l.21.65a1.3 1.3 0 0 1-.55.7 2 2 0 0 1-1.04.25m6.92 0a2 2 0 0 1-1.1-.27 1.7 1.7 0 0 1-.7-.82 4 4 0 0 1-.24-1.4 3 3 0 0 1 .25-1.4 2 2 0 0 1 .72-.82 2 2 0 0 1 1.07-.27 2.5 2.5 0 0 1 1.23.3 2.3 2.3 0 0 1 .86.87 2.6 2.6 0 0 1 .32 1.32 2.6 2.6 0 0 1-.32 1.32 2.3 2.3 0 0 1-.86.86 2.4 2.4 0 0 1-1.23.31M29.5 0v-6.68h1.4v2.82l-.1 1.43.03 1.44V0Zm2.62-1.08a1 1 0 0 0 .62-.16 1 1 0 0 0 .44-.47 1.5 1.5 0 0 0 .17-.71 1.5 1.5 0 0 0-.17-.72 1 1 0 0 0-.44-.46 1 1 0 0 0-.62-.16 1 1 0 0 0-.63.16 1 1 0 0 0-.44.46 1.5 1.5 0 0 0-.17.72 1.5 1.5 0 0 0 .17.71 1 1 0 0 0 .44.47 1 1 0 0 0 .63.16M35.72 0v-4.84h1.4V0Zm.7-5.52a1 1 0 0 1-.63-.22.7.7 0 0 1-.25-.56.7.7 0 0 1 .25-.56 1 1 0 0 1 .63-.22 1 1 0 0 1 .63.2.7.7 0 0 1 .24.55.8.8 0 0 1-.24.58 1 1 0 0 1-.63.23m2 5.52v-6.68h1.4V0Zm2.71 0v-4.84h1.4V0Zm.7-5.52a1 1 0 0 1-.63-.22.7.7 0 0 1-.24-.56.7.7 0 0 1 .24-.56 1 1 0 0 1 .63-.22 1 1 0 0 1 .63.2.7.7 0 0 1 .25.55.8.8 0 0 1-.24.58 1 1 0 0 1-.63.23Zm4 5.6a2 2 0 0 1-1.34-.44 1.7 1.7 0 0 1-.48-1.3v-4.25h1.4v4.23a.7.7 0 0 0 .17.47.6.6 0 0 0 .44.17 1 1 0 0 0 .56-.18l.38.99a2 2 0 0 1-.51.23 3 3 0 0 1-.63.07m-2.56-3.73v-1.08h3.35v1.08Zm5.01 5.47a3 3 0 0 1-.75-.12 2 2 0 0 1-.6-.32l.52-1a1 1 0 0 0 .37.22 1 1 0 0 0 .41.08.7.7 0 0 0 .48-.14 1 1 0 0 0 .32-.46l.25-.6.1-.15 1.74-4.17h1.35L50.3.3a3 3 0 0 1-.54.92 2 2 0 0 1-.66.47 2 2 0 0 1-.81.13m.83-1.63-2.16-5.03h1.45L50.07-.8Z" transform="translate(192 150)"/><path id="Path_5667" fill="#195f8c" d="M-14.82 0v-5.6h1.07l2.39 3.95h-.57L-9.6-5.6h1.07l.01 5.6h-1.21l-.01-3.74h.22l-1.87 3.15h-.58l-1.92-3.15h.28V0Zm9.69.06a3 3 0 0 1-1.3-.28 2 2 0 0 1-.85-.8 2 2 0 0 1-.3-1.13 2 2 0 0 1 .3-1.15 2 2 0 0 1 .82-.78 2.4 2.4 0 0 1 1.17-.29 2.4 2.4 0 0 1 1.14.27 2 2 0 0 1 .8.77 2.3 2.3 0 0 1 .3 1.2v.16q0 .1-.02.17h-3.5v-.72h2.84l-.48.21a1 1 0 0 0-.14-.59 1 1 0 0 0-.37-.39 1 1 0 0 0-.56-.14 1 1 0 0 0-.57.14 1 1 0 0 0-.38.4 1 1 0 0 0-.13.6v.19a1 1 0 0 0 .15.62 1 1 0 0 0 .44.4 1.5 1.5 0 0 0 .67.15 2 2 0 0 0 .6-.1 2 2 0 0 0 .48-.31l.66.72a2 2 0 0 1-.74.5 3 3 0 0 1-1.03.18m4.67 0a1.7 1.7 0 0 1-1.18-.38 1.5 1.5 0 0 1-.43-1.16v-3.78h1.25v3.76a.6.6 0 0 0 .14.42.5.5 0 0 0 .4.15 1 1 0 0 0 .5-.16l.33.88A1 1 0 0 1 .1 0a2 2 0 0 1-.56.06m-2.27-3.3v-.97H.25v.96ZM1.26 0v-4.3h1.2v1.22l-.18-.36a1.4 1.4 0 0 1 .62-.7 2 2 0 0 1 1.03-.23v1.15h-.28a1.2 1.2 0 0 0-.83.28 1.2 1.2 0 0 0-.31.91V0Zm3.42 0v-4.3h1.24V0Zm.62-4.9a.8.8 0 0 1-.56-.2.7.7 0 0 1-.22-.5.7.7 0 0 1 .22-.5.8.8 0 0 1 .56-.2.8.8 0 0 1 .56.19.6.6 0 0 1 .22.48.7.7 0 0 1-.22.52.8.8 0 0 1-.56.21M9.16.06a3 3 0 0 1-1.24-.28 2 2 0 0 1-.85-.79 2 2 0 0 1-.3-1.14 2 2 0 0 1 .3-1.15 2 2 0 0 1 .85-.78 3 3 0 0 1 1.24-.29 2.4 2.4 0 0 1 1.19.29 1.7 1.7 0 0 1 .74.8l-.97.53a1 1 0 0 0-.42-.45 1 1 0 0 0-.55-.14 1 1 0 0 0-.57.14 1 1 0 0 0-.4.4 1.3 1.3 0 0 0-.15.65 1.3 1.3 0 0 0 .15.64 1 1 0 0 0 .4.4 1 1 0 0 0 .58.15 1 1 0 0 0 .54-.14 1 1 0 0 0 .42-.45l.97.53a1.7 1.7 0 0 1-.75.8 2.4 2.4 0 0 1-1.18.28m4.1 0a4 4 0 0 1-1.06-.13 3 3 0 0 1-.8-.33l.42-.9a3 3 0 0 0 .7.3 3 3 0 0 0 .8.12 1.3 1.3 0 0 0 .6-.1.3.3 0 0 0 .19-.3.3.3 0 0 0-.14-.22 1 1 0 0 0-.37-.12l-.51-.08-.57-.1a2 2 0 0 1-.5-.2 1 1 0 0 1-.38-.37 1 1 0 0 1-.14-.6 1.2 1.2 0 0 1 .24-.72 1.6 1.6 0 0 1 .68-.49 3 3 0 0 1 1.07-.18 4 4 0 0 1 .9.1 2 2 0 0 1 .76.28l-.41.89a2 2 0 0 0-.63-.25 3 3 0 0 0-.61-.07 1.3 1.3 0 0 0-.61.11.3.3 0 0 0-.2.29.3.3 0 0 0 .15.24 1 1 0 0 0 .37.13l.5.08.56.1a2 2 0 0 1 .51.2 1 1 0 0 1 .37.37 1 1 0 0 1 .15.6 1 1 0 0 1-.24.7 1.6 1.6 0 0 1-.7.49 3 3 0 0 1-1.1.16" transform="translate(192 185)"/><path id="Path_5666" fill="#195f8c" d="M-9.28 0v-5.6h1.3v4.54h2.8V0Zm6.76.06a2.5 2.5 0 0 1-1.22-.28 2 2 0 0 1-.84-.8 2 2 0 0 1-.3-1.13 2 2 0 0 1 .3-1.15 2 2 0 0 1 .84-.78 2.6 2.6 0 0 1 1.22-.29 2.6 2.6 0 0 1 1.22.29 2 2 0 0 1 .84.78 2 2 0 0 1 .3 1.15 2 2 0 0 1-.3 1.14 2 2 0 0 1-.84.79 2.5 2.5 0 0 1-1.22.28m0-1.02a1 1 0 0 0 .56-.14 1 1 0 0 0 .4-.41 1.3 1.3 0 0 0 .14-.64 1.3 1.3 0 0 0-.15-.64 1 1 0 0 0-.39-.41 1 1 0 0 0-.56-.14 1 1 0 0 0-.56.14 1 1 0 0 0-.4.4 1.3 1.3 0 0 0-.15.65 1.3 1.3 0 0 0 .15.63 1 1 0 0 0 .4.42 1 1 0 0 0 .56.14M2.7 1.62a5 5 0 0 1-1.17-.15 3 3 0 0 1-.94-.45l.5-.9a2 2 0 0 0 .69.36 3 3 0 0 0 .82.14 1.3 1.3 0 0 0 .96-.3 1.2 1.2 0 0 0 .3-.88v-.65l.08-1.08-.01-1.09v-.92H5.1v3.58a2.3 2.3 0 0 1-.62 1.77 2.6 2.6 0 0 1-1.79.57M2.5-.21a2 2 0 0 1-1.08-.26 2 2 0 0 1-.78-.73 2 2 0 0 1-.29-1.09 2 2 0 0 1 .3-1.1 2 2 0 0 1 .77-.72 2 2 0 0 1 1.08-.26 2 2 0 0 1 .96.22 1.5 1.5 0 0 1 .65.68 3 3 0 0 1 .23 1.18 3 3 0 0 1-.23 1.17 1.5 1.5 0 0 1-.65.69 2 2 0 0 1-.96.22m.25-1.02a1 1 0 0 0 .58-.13 1 1 0 0 0 .4-.38 1 1 0 0 0 .15-.55 1 1 0 0 0-.15-.55 1 1 0 0 0-.4-.37 1 1 0 0 0-.58-.13 1 1 0 0 0-.59.13 1 1 0 0 0-.4.37 1 1 0 0 0-.14.55 1 1 0 0 0 .14.55 1 1 0 0 0 .4.38 1.3 1.3 0 0 0 .6.13ZM7.72.07a4 4 0 0 1-1.06-.14 3 3 0 0 1-.8-.33l.42-.9a3 3 0 0 0 .7.3 3 3 0 0 0 .8.12 1.3 1.3 0 0 0 .6-.1.3.3 0 0 0 .19-.3.3.3 0 0 0-.15-.22 1 1 0 0 0-.37-.12l-.51-.08-.56-.1a2 2 0 0 1-.5-.2 1 1 0 0 1-.38-.38 1 1 0 0 1-.14-.6 1.2 1.2 0 0 1 .24-.72 1.6 1.6 0 0 1 .68-.5 3 3 0 0 1 1.08-.17 4 4 0 0 1 .9.1 2 2 0 0 1 .76.28l-.43.89a2 2 0 0 0-.63-.25 3 3 0 0 0-.6-.07 1.3 1.3 0 0 0-.62.11.3.3 0 0 0-.19.29.3.3 0 0 0 .14.24 1 1 0 0 0 .37.13q.24.05.51.08l.56.11a2 2 0 0 1 .5.2 1 1 0 0 1 .38.36 1 1 0 0 1 .14.6 1 1 0 0 1-.24.7 1.6 1.6 0 0 1-.69.5 3 3 0 0 1-1.1.16" transform="translate(192 247)"/><path id="Path_5665" fill="#195f8c" d="m-12.51 0 2.5-5.6h1.28l2.5 5.6H-7.6l-2.05-4.94h.51L-11.18 0Zm1.25-1.2.34-.98h2.88l.35.98ZM-5.74 0v-5.94h1.25V0Zm4.55.06a3 3 0 0 1-1.3-.28 2 2 0 0 1-.85-.8 2 2 0 0 1-.3-1.13 2 2 0 0 1 .3-1.15 2 2 0 0 1 .82-.78 2.4 2.4 0 0 1 1.17-.29A2.4 2.4 0 0 1-.2-4.1a2 2 0 0 1 .8.77 2.3 2.3 0 0 1 .3 1.2l-.01.16-.02.17h-3.5v-.73H.21l-.48.22a1 1 0 0 0-.14-.59 1 1 0 0 0-.37-.39 1 1 0 0 0-.56-.14 1 1 0 0 0-.57.14 1 1 0 0 0-.38.4 1 1 0 0 0-.13.6v.19a1 1 0 0 0 .15.62 1 1 0 0 0 .44.4 1.5 1.5 0 0 0 .67.15 2 2 0 0 0 .6-.1 2 2 0 0 0 .48-.32l.66.72a2 2 0 0 1-.74.51 3 3 0 0 1-1.03.18M1.72 0v-4.3h1.2v1.22l-.18-.36a1.4 1.4 0 0 1 .62-.7 2 2 0 0 1 1.03-.23v1.15h-.28a1.2 1.2 0 0 0-.83.28 1.2 1.2 0 0 0-.31.91V0Zm5.33.06a1.7 1.7 0 0 1-1.19-.38 1.5 1.5 0 0 1-.42-1.16v-3.78h1.25v3.76a.6.6 0 0 0 .14.42.5.5 0 0 0 .4.15 1 1 0 0 0 .5-.16l.33.88A1 1 0 0 1 7.6 0a2 2 0 0 1-.55.06m-2.27-3.3v-.97h2.98v.96Zm5.44 3.3a4 4 0 0 1-1.06-.13 3 3 0 0 1-.8-.33l.41-.9a3 3 0 0 0 .7.3 3 3 0 0 0 .8.12 1.3 1.3 0 0 0 .61-.1.3.3 0 0 0 .18-.3.3.3 0 0 0-.14-.22 1 1 0 0 0-.37-.12l-.5-.08-.57-.1a2 2 0 0 1-.51-.2 1 1 0 0 1-.37-.38 1 1 0 0 1-.14-.6 1.2 1.2 0 0 1 .24-.72 1.6 1.6 0 0 1 .68-.49 3 3 0 0 1 1.07-.18 4 4 0 0 1 .9.1 2 2 0 0 1 .76.28l-.41.89a2 2 0 0 0-.63-.25 3 3 0 0 0-.61-.07 1.3 1.3 0 0 0-.61.11.3.3 0 0 0-.2.29.3.3 0 0 0 .15.24 1 1 0 0 0 .37.13q.23.05.5.08l.56.11a2 2 0 0 1 .51.2 1 1 0 0 1 .37.36 1 1 0 0 1 .15.6 1 1 0 0 1-.24.7 1.6 1.6 0 0 1-.7.5 3 3 0 0 1-1.1.16" transform="translate(193 216)"/><path id="Path_5664" fill="#195f8c" d="m-19.46 0 2.5-5.6h1.28l2.5 5.6h-1.36l-2.04-4.94h.5L-18.12 0Zm1.25-1.2.35-.98h2.88l.35.98Zm8.15-3.17a2 2 0 0 1 .91.2 1.5 1.5 0 0 1 .64.63 2 2 0 0 1 .23 1.08V0h-1.25v-2.27a1 1 0 0 0-.23-.77.8.8 0 0 0-.64-.25 1 1 0 0 0-.53.13 1 1 0 0 0-.37.38 1.4 1.4 0 0 0-.13.65V0h-1.25v-4.3h1.2v1.2l-.23-.37a1.6 1.6 0 0 1 .66-.66 2 2 0 0 1 .99-.24M-4.51 0v-.84l-.08-.18v-1.5a.8.8 0 0 0-.25-.63 1 1 0 0 0-.74-.22 2 2 0 0 0-.68.1 2 2 0 0 0-.56.3l-.45-.87a3 3 0 0 1 .85-.39 4 4 0 0 1 1-.13 2.3 2.3 0 0 1 1.53.46 1.8 1.8 0 0 1 .55 1.45V0Zm-1.31.06A2 2 0 0 1-6.7-.1a1.3 1.3 0 0 1-.55-.47 1.2 1.2 0 0 1-.2-.66 1.2 1.2 0 0 1 .2-.67 1.2 1.2 0 0 1 .6-.45 3 3 0 0 1 1.06-.17h1.14v.73h-1a1 1 0 0 0-.6.14.5.5 0 0 0-.17.36.5.5 0 0 0 .19.38 1 1 0 0 0 .51.14 1 1 0 0 0 .56-.14 1 1 0 0 0 .36-.44l.2.58a1 1 0 0 1-.5.63 2 2 0 0 1-.93.21m3.6-.06v-5.94h1.25V0ZM.74 1.62a2 2 0 0 1-.67-.1 2 2 0 0 1-.53-.3l.45-.88a1 1 0 0 0 .33.2A1 1 0 0 0 .7.6a.7.7 0 0 0 .42-.13 1 1 0 0 0 .28-.4l.22-.54.1-.13 1.54-3.7h1.2L2.52.26a3 3 0 0 1-.48.82 1.5 1.5 0 0 1-.59.42 2 2 0 0 1-.71.12M1.47.17-.45-4.3H.84L2.33-.7Zm5.39-.1a1.7 1.7 0 0 1-1.19-.4 1.5 1.5 0 0 1-.42-1.15v-3.78H6.5v3.76a.6.6 0 0 0 .14.42.5.5 0 0 0 .4.15 1 1 0 0 0 .5-.16l.33.88a1 1 0 0 1-.46.2 2 2 0 0 1-.55.07ZM4.58-3.25v-.96h2.99v.96Zm4 3.25v-4.3h1.24V0Zm.62-4.9a.8.8 0 0 1-.56-.2.7.7 0 0 1-.22-.5.7.7 0 0 1 .22-.5.8.8 0 0 1 .56-.2.8.8 0 0 1 .56.19.6.6 0 0 1 .22.48.7.7 0 0 1-.22.52.8.8 0 0 1-.56.21M13.06.06a3 3 0 0 1-1.24-.28 2 2 0 0 1-.85-.79 2 2 0 0 1-.3-1.14 2 2 0 0 1 .3-1.15 2 2 0 0 1 .85-.78 3 3 0 0 1 1.24-.29 2.4 2.4 0 0 1 1.19.29 1.7 1.7 0 0 1 .74.8l-.97.53a1 1 0 0 0-.42-.45 1 1 0 0 0-.55-.14 1 1 0 0 0-.57.14 1 1 0 0 0-.4.4 1.3 1.3 0 0 0-.15.65 1.3 1.3 0 0 0 .15.64 1 1 0 0 0 .4.4 1 1 0 0 0 .57.15 1 1 0 0 0 .55-.14 1 1 0 0 0 .42-.45l.97.53a1.7 1.7 0 0 1-.75.8 2.4 2.4 0 0 1-1.18.28m4.1 0a4 4 0 0 1-1.06-.13 3 3 0 0 1-.8-.33l.42-.9a3 3 0 0 0 .7.3 3 3 0 0 0 .8.12 1.3 1.3 0 0 0 .6-.1.3.3 0 0 0 .18-.3.3.3 0 0 0-.14-.22 1 1 0 0 0-.37-.12l-.51-.08-.56-.1a2 2 0 0 1-.5-.2 1 1 0 0 1-.38-.37 1 1 0 0 1-.14-.6 1.2 1.2 0 0 1 .24-.72 1.6 1.6 0 0 1 .68-.49 3 3 0 0 1 1.07-.18 4 4 0 0 1 .9.1 2 2 0 0 1 .76.28l-.41.89a2 2 0 0 0-.64-.27 3 3 0 0 0-.61-.06 1.3 1.3 0 0 0-.61.1.3.3 0 0 0-.2.3.3.3 0 0 0 .15.24 1 1 0 0 0 .37.12l.5.09.56.1a2 2 0 0 1 .51.2 1 1 0 0 1 .37.37 1 1 0 0 1 .15.6 1 1 0 0 1-.24.7 1.6 1.6 0 0 1-.7.49 3 3 0 0 1-1.09.17" transform="translate(192 278)"/><path id="Path_5663" fill="#3c9bcd" d="m-65.7 0 2.8-6.3h1.44l2.82 6.3h-1.53l-2.3-5.56h.58L-64.21 0Zm1.4-1.35.39-1.1h3.24l.4 1.1Zm8.17 1.42a2.4 2.4 0 0 1-1.07-.23 1.7 1.7 0 0 1-.73-.72 2.6 2.6 0 0 1-.27-1.23v-2.73h1.4v2.53a1.3 1.3 0 0 0 .26.88 1 1 0 0 0 .72.29 1 1 0 0 0 .58-.14 1 1 0 0 0 .4-.43 2 2 0 0 0 .14-.74v-2.4h1.4V0h-1.33v-1.33l.24.39a1.7 1.7 0 0 1-.71.75 2 2 0 0 1-1.03.26m6.12 0a2 2 0 0 1-1.33-.43 1.7 1.7 0 0 1-.48-1.3v-4.25h1.4v4.23a.7.7 0 0 0 .17.47.6.6 0 0 0 .44.17 1 1 0 0 0 .56-.18l.38.99a2 2 0 0 1-.51.23 3 3 0 0 1-.63.07m-2.55-3.72v-1.08h3.35v1.08Zm6.64 3.72a3 3 0 0 1-1.37-.32 2.5 2.5 0 0 1-.95-.89 2.4 2.4 0 0 1-.35-1.28 2.4 2.4 0 0 1 .35-1.3 2.4 2.4 0 0 1 .95-.87 3 3 0 0 1 1.37-.32 3 3 0 0 1 1.37.32 2.4 2.4 0 0 1 .94.87 2.4 2.4 0 0 1 .34 1.3 2.4 2.4 0 0 1-.34 1.29 2.4 2.4 0 0 1-.94.88 3 3 0 0 1-1.37.32m0-1.15a1 1 0 0 0 .63-.16 1 1 0 0 0 .44-.47 1.5 1.5 0 0 0 .16-.71 1.5 1.5 0 0 0-.16-.72 1 1 0 0 0-.44-.46 1 1 0 0 0-.63-.16 1 1 0 0 0-.63.16 1 1 0 0 0-.45.46 1.5 1.5 0 0 0-.17.72 1.5 1.5 0 0 0 .17.71 1 1 0 0 0 .45.47 1 1 0 0 0 .63.16m9.79-3.83a2 2 0 0 1 1.02.23 1.7 1.7 0 0 1 .7.7 2.5 2.5 0 0 1 .26 1.2V0h-1.4v-2.56a1.3 1.3 0 0 0-.25-.86 1 1 0 0 0-.68-.28 1 1 0 0 0-.55.14 1 1 0 0 0-.38.42 2 2 0 0 0-.14.71V0h-1.4v-2.56a1.3 1.3 0 0 0-.23-.86 1 1 0 0 0-.68-.28 1 1 0 0 0-.55.14 1 1 0 0 0-.38.42 2 2 0 0 0-.14.71V0h-1.4v-4.84h1.34v1.32l-.25-.39a1.7 1.7 0 0 1 .72-.75 2 2 0 0 1 1.05-.25 2 2 0 0 1 1.17.33 1.6 1.6 0 0 1 .66 1.03l-.5-.13a2 2 0 0 1 .78-.9 2.3 2.3 0 0 1 1.23-.33M-29.92 0v-.94l-.09-.21v-1.7a1 1 0 0 0-.27-.7 1.2 1.2 0 0 0-.85-.25 2 2 0 0 0-.76.13 2 2 0 0 0-.63.32l-.5-.98a3 3 0 0 1 .95-.43 4 4 0 0 1 1.14-.15 2.6 2.6 0 0 1 1.72.52 2 2 0 0 1 .6 1.63V0Zm-1.48.07a2 2 0 0 1-.97-.2A1.5 1.5 0 0 1-33-.64a1.3 1.3 0 0 1-.22-.75 1.4 1.4 0 0 1 .21-.75 1.4 1.4 0 0 1 .67-.51 3 3 0 0 1 1.2-.18h1.29v.81h-1.13a1 1 0 0 0-.68.17.5.5 0 0 0-.19.4.5.5 0 0 0 .21.43 1 1 0 0 0 .58.16 1 1 0 0 0 .63-.17 1 1 0 0 0 .4-.49l.22.65a1.3 1.3 0 0 1-.56.7 2 2 0 0 1-1.04.25m6.04 0a2 2 0 0 1-1.33-.43 1.7 1.7 0 0 1-.48-1.3V-5.9h1.4v4.23a.7.7 0 0 0 .16.47.6.6 0 0 0 .44.17 1 1 0 0 0 .57-.18l.38.99a2 2 0 0 1-.51.23 3 3 0 0 1-.63.07m-2.56-3.72v-1.08h3.36v1.08Zm4.5 3.65v-4.84h1.4V0Zm.7-5.52a1 1 0 0 1-.63-.22.7.7 0 0 1-.24-.56.7.7 0 0 1 .24-.56 1 1 0 0 1 .63-.22 1 1 0 0 1 .63.2.7.7 0 0 1 .24.55.8.8 0 0 1-.24.58 1 1 0 0 1-.63.23m4.31 5.6a3 3 0 0 1-1.37-.33 2.5 2.5 0 0 1-.95-.89 2.4 2.4 0 0 1-.34-1.28 2.4 2.4 0 0 1 .34-1.3 2.4 2.4 0 0 1 .95-.87 3 3 0 0 1 1.37-.32 3 3 0 0 1 1.37.32 2.4 2.4 0 0 1 .94.87 2.4 2.4 0 0 1 .35 1.3 2.4 2.4 0 0 1-.35 1.28 2.4 2.4 0 0 1-.94.89 3 3 0 0 1-1.37.32m0-1.16a1 1 0 0 0 .63-.16 1 1 0 0 0 .44-.47 1.5 1.5 0 0 0 .16-.71 1.5 1.5 0 0 0-.16-.72 1 1 0 0 0-.44-.46 1 1 0 0 0-.63-.16 1 1 0 0 0-.63.16 1 1 0 0 0-.44.46 1.5 1.5 0 0 0-.17.72 1.5 1.5 0 0 0 .16.71 1 1 0 0 0 .45.47 1 1 0 0 0 .63.16m6.54-3.83a2 2 0 0 1 1.03.23 1.7 1.7 0 0 1 .71.7 2.5 2.5 0 0 1 .26 1.2V0h-1.4v-2.56a1.2 1.2 0 0 0-.26-.86 1 1 0 0 0-.72-.28 1.3 1.3 0 0 0-.6.14 1 1 0 0 0-.41.43 2 2 0 0 0-.15.74V0h-1.4v-4.84h1.34v1.34l-.25-.4a2 2 0 0 1 .74-.75 2.3 2.3 0 0 1 1.1-.26M-3.97.1a3 3 0 0 1-1.24-.23 2 2 0 0 1-.85-.6 1.4 1.4 0 0 1-.32-.9 2 2 0 0 1 .21-.84 2 2 0 0 1 .66-.7 7 7 0 0 1 1.14-.65 8 8 0 0 0 .8-.4 1.4 1.4 0 0 0 .4-.36.6.6 0 0 0 .11-.33.5.5 0 0 0-.16-.38.7.7 0 0 0-.46-.15.7.7 0 0 0-.5.17.5.5 0 0 0-.18.41l.05.27a1 1 0 0 0 .2.3l.44.42L-.35-.78-1.1.1l-3.66-3.4a4 4 0 0 1-.5-.54 2 2 0 0 1-.28-.5 2 2 0 0 1-.08-.5 1.4 1.4 0 0 1 .24-.8 1.6 1.6 0 0 1 .68-.55 3 3 0 0 1 1.04-.2 2 2 0 0 1 .95.18 1.5 1.5 0 0 1 .63.5 1.3 1.3 0 0 1 .23.77 1.4 1.4 0 0 1-.2.73 2 2 0 0 1-.62.62 7 7 0 0 1-1.1.59 4 4 0 0 0-.72.4 1.4 1.4 0 0 0-.39.4 1 1 0 0 0-.12.43.6.6 0 0 0 .14.4 1 1 0 0 0 .39.28 2 2 0 0 0 .6.1 2 2 0 0 0 1-.26A2 2 0 0 0-2.09-2a4 4 0 0 0 .46-1.24l1.12.35a4 4 0 0 1-.67 1.6 3.4 3.4 0 0 1-1.2 1.04 3.4 3.4 0 0 1-1.6.37ZM3.15 0v-6.3h1.2l2.68 4.45H6.4L9.04-6.3h1.2l.02 6.3H8.88l-.01-4.2h.25L7.02-.67h-.66L4.2-4.2h.3V0ZM14.6 0v-.94l-.09-.21v-1.7a1 1 0 0 0-.27-.7 1.2 1.2 0 0 0-.84-.25 2 2 0 0 0-.76.13 2 2 0 0 0-.64.32l-.5-.98a3 3 0 0 1 .96-.43 4 4 0 0 1 1.13-.15 2.6 2.6 0 0 1 1.72.52 2 2 0 0 1 .61 1.63V0Zm-1.47.07a2 2 0 0 1-.98-.2 1.5 1.5 0 0 1-.62-.52 1.3 1.3 0 0 1-.21-.75 1.4 1.4 0 0 1 .2-.75 1.4 1.4 0 0 1 .68-.51 3 3 0 0 1 1.2-.18h1.28v.81h-1.13a1 1 0 0 0-.68.17.5.5 0 0 0-.19.4.5.5 0 0 0 .22.43 1 1 0 0 0 .58.16 1 1 0 0 0 .63-.17 1 1 0 0 0 .4-.49l.21.65a1.3 1.3 0 0 1-.55.7 2 2 0 0 1-1.04.25m7-4.98a2 2 0 0 1 1.03.23 1.7 1.7 0 0 1 .71.7 2.5 2.5 0 0 1 .26 1.2V0h-1.4v-2.56a1.2 1.2 0 0 0-.26-.86 1 1 0 0 0-.72-.28 1.3 1.3 0 0 0-.6.14 1 1 0 0 0-.41.43 2 2 0 0 0-.15.74V0h-1.4v-4.84h1.34v1.34l-.25-.4a2 2 0 0 1 .74-.75 2.3 2.3 0 0 1 1.1-.26ZM26.38 0v-.94l-.09-.21v-1.7a1 1 0 0 0-.27-.7 1.2 1.2 0 0 0-.84-.25 2 2 0 0 0-.76.13 2 2 0 0 0-.64.32l-.5-.98a3 3 0 0 1 .96-.43 4 4 0 0 1 1.13-.15 2.6 2.6 0 0 1 1.72.52 2 2 0 0 1 .61 1.63V0Zm-1.47.07a2 2 0 0 1-.97-.2 1.5 1.5 0 0 1-.63-.52 1.3 1.3 0 0 1-.21-.75 1.4 1.4 0 0 1 .21-.75 1.4 1.4 0 0 1 .67-.51 3 3 0 0 1 1.2-.18h1.29v.81h-1.14a1 1 0 0 0-.68.17.5.5 0 0 0-.18.4.5.5 0 0 0 .2.43 1 1 0 0 0 .59.16 1 1 0 0 0 .63-.17 1 1 0 0 0 .4-.49l.21.65a1.3 1.3 0 0 1-.55.7 2 2 0 0 1-1.04.25m6.37 1.75a5 5 0 0 1-1.32-.17 3 3 0 0 1-1.06-.5l.56-1a2 2 0 0 0 .78.4 3 3 0 0 0 .93.14 1.5 1.5 0 0 0 1.09-.33 1.3 1.3 0 0 0 .33-.99v-.73l.1-1.21-.02-1.23v-1.04H34v4.03a2.6 2.6 0 0 1-.7 1.99 3 3 0 0 1-2.02.64m-.22-2.05a2.5 2.5 0 0 1-1.22-.3 2.3 2.3 0 0 1-.87-.81 2.3 2.3 0 0 1-.33-1.23 2.3 2.3 0 0 1 .33-1.24 2.3 2.3 0 0 1 .87-.81 2.6 2.6 0 0 1 1.22-.3 2 2 0 0 1 1.08.25 1.7 1.7 0 0 1 .73.77 3 3 0 0 1 .26 1.33 3 3 0 0 1-.26 1.32 1.7 1.7 0 0 1-.73.77 2 2 0 0 1-1.08.25m.28-1.16a1.4 1.4 0 0 0 .66-.15 1 1 0 0 0 .45-.41 1 1 0 0 0 .16-.62 1 1 0 0 0-.16-.63 1 1 0 0 0-.45-.41 1.4 1.4 0 0 0-.66-.15 1.4 1.4 0 0 0-.65.15 1 1 0 0 0-.46.41 1 1 0 0 0-.17.63 1 1 0 0 0 .17.62 1 1 0 0 0 .46.42 1.4 1.4 0 0 0 .65.14M37.71.07a3 3 0 0 1-1.46-.32 2.4 2.4 0 0 1-.96-.89 2.4 2.4 0 0 1-.35-1.28 2.5 2.5 0 0 1 .34-1.3 2.4 2.4 0 0 1 .93-.87 3 3 0 0 1 1.32-.32 3 3 0 0 1 1.28.3 2.3 2.3 0 0 1 .9.86 2.6 2.6 0 0 1 .34 1.35l-.01.18-.02.2h-3.93v-.82h3.2l-.55.24a1.4 1.4 0 0 0-.15-.65 1 1 0 0 0-.43-.44 1 1 0 0 0-.62-.16 1.3 1.3 0 0 0-.64.16 1 1 0 0 0-.43.44 1.4 1.4 0 0 0-.15.67v.22a1.4 1.4 0 0 0 .18.7 1 1 0 0 0 .49.46 2 2 0 0 0 .75.15 2 2 0 0 0 .68-.11 2 2 0 0 0 .54-.35l.74.8a2 2 0 0 1-.83.59 3 3 0 0 1-1.16.2m9.47-4.98a2 2 0 0 1 1.02.23 1.7 1.7 0 0 1 .7.7 2.5 2.5 0 0 1 .26 1.2V0h-1.4v-2.56a1.3 1.3 0 0 0-.24-.86 1 1 0 0 0-.69-.28 1 1 0 0 0-.54.14 1 1 0 0 0-.38.42 2 2 0 0 0-.14.71V0h-1.4v-2.56a1.3 1.3 0 0 0-.24-.86 1 1 0 0 0-.68-.28 1 1 0 0 0-.55.14 1 1 0 0 0-.37.42 2 2 0 0 0-.14.71V0H41v-4.84h1.34v1.32l-.25-.39a1.7 1.7 0 0 1 .72-.75 2 2 0 0 1 1.05-.25 2 2 0 0 1 1.17.33 1.6 1.6 0 0 1 .66 1.03l-.5-.13a2 2 0 0 1 .78-.9 2.3 2.3 0 0 1 1.22-.33M52.86.07a3 3 0 0 1-1.45-.32 2.4 2.4 0 0 1-.97-.89 2.4 2.4 0 0 1-.34-1.28 2.5 2.5 0 0 1 .34-1.3 2.4 2.4 0 0 1 .92-.87 3 3 0 0 1 1.32-.32 3 3 0 0 1 1.29.3 2.3 2.3 0 0 1 .9.86 2.6 2.6 0 0 1 .33 1.35v.18q0 .1-.03.2h-3.93v-.82h3.2l-.54.24a1.4 1.4 0 0 0-.15-.66 1 1 0 0 0-.43-.43 1 1 0 0 0-.63-.16 1.3 1.3 0 0 0-.63.16 1 1 0 0 0-.43.44 1.4 1.4 0 0 0-.15.67v.21a1.4 1.4 0 0 0 .17.7 1 1 0 0 0 .5.46 2 2 0 0 0 .75.16 2 2 0 0 0 .68-.12 2 2 0 0 0 .54-.35l.74.81a2 2 0 0 1-.83.58 3 3 0 0 1-1.17.2m6.22-4.98a2 2 0 0 1 1.03.23 1.7 1.7 0 0 1 .72.7 2.5 2.5 0 0 1 .26 1.2V0h-1.4v-2.56a1.2 1.2 0 0 0-.26-.86 1 1 0 0 0-.73-.28 1.3 1.3 0 0 0-.6.14 1 1 0 0 0-.41.43 2 2 0 0 0-.15.74V0h-1.4v-4.84h1.34v1.34l-.25-.4a2 2 0 0 1 .74-.75 2.3 2.3 0 0 1 1.11-.26M64.34.07A2 2 0 0 1 63-.36a1.7 1.7 0 0 1-.48-1.3v-4.25h1.4v4.23a.7.7 0 0 0 .17.47.6.6 0 0 0 .44.17 1 1 0 0 0 .56-.18l.38.99a2 2 0 0 1-.5.23 3 3 0 0 1-.63.07m-2.56-3.72v-1.08h3.36v1.08Z" transform="translate(584 150)"/><path id="Path_5662" fill="#195f8c" d="M-47.35 0v-5.6h1.3v4.54h2.81V0Zm4.75 0v-4.3h1.25V0Zm.62-4.9a.8.8 0 0 1-.56-.2.7.7 0 0 1-.21-.5.7.7 0 0 1 .21-.5.8.8 0 0 1 .56-.2.8.8 0 0 1 .56.19.6.6 0 0 1 .22.48.7.7 0 0 1-.21.52.8.8 0 0 1-.57.21m1.94 4.9v-4.4a1.6 1.6 0 0 1 .43-1.16A1.7 1.7 0 0 1-38.38-6a2 2 0 0 1 .52.06 1 1 0 0 1 .43.17l-.33.9-.23-.11-.27-.04a.6.6 0 0 0-.42.16.7.7 0 0 0-.15.46v.4l.03.54V0Zm-.67-3.25v-.96h2.99v.96Zm5.69 3.31a3 3 0 0 1-1.3-.28 2 2 0 0 1-.85-.8 2 2 0 0 1-.3-1.13 2 2 0 0 1 .3-1.15 2 2 0 0 1 .82-.78 2.4 2.4 0 0 1 1.17-.29 2.4 2.4 0 0 1 1.14.27 2 2 0 0 1 .8.77 2.3 2.3 0 0 1 .3 1.2v.16q0 .1-.02.17h-3.5v-.72h2.84l-.48.21a1 1 0 0 0-.14-.58 1 1 0 0 0-.37-.39 1 1 0 0 0-.56-.14 1 1 0 0 0-.57.14 1 1 0 0 0-.38.4 1 1 0 0 0-.13.6v.18a1 1 0 0 0 .15.62 1 1 0 0 0 .44.4 1.5 1.5 0 0 0 .67.15 2 2 0 0 0 .6-.1 2 2 0 0 0 .48-.31l.66.72a2 2 0 0 1-.74.51 3 3 0 0 1-1.03.17m5 0a3 3 0 0 1-1.25-.28 2 2 0 0 1-.85-.79 2 2 0 0 1-.3-1.14 2 2 0 0 1 .3-1.15 2 2 0 0 1 .85-.78 3 3 0 0 1 1.24-.29 2.4 2.4 0 0 1 1.19.29 1.7 1.7 0 0 1 .74.8l-.97.53a1 1 0 0 0-.42-.45 1 1 0 0 0-.55-.14 1 1 0 0 0-.57.14 1 1 0 0 0-.4.4 1.3 1.3 0 0 0-.15.65 1.3 1.3 0 0 0 .15.64 1 1 0 0 0 .4.4 1 1 0 0 0 .57.15 1 1 0 0 0 .55-.14 1 1 0 0 0 .42-.45l.97.53a1.7 1.7 0 0 1-.74.8 2.4 2.4 0 0 1-1.19.28m3.12 1.56a2 2 0 0 1-.66-.1 2 2 0 0 1-.54-.3l.46-.88a1 1 0 0 0 .33.2 1 1 0 0 0 .37.07.7.7 0 0 0 .42-.12 1 1 0 0 0 .28-.41l.23-.53.1-.14 1.54-3.71h1.2L-25.12.26a3 3 0 0 1-.47.82 1.5 1.5 0 0 1-.6.42 2 2 0 0 1-.71.12m.74-1.45-1.92-4.47h1.28l1.49 3.6Zm5.46-.1a3 3 0 0 1-1.24-.29 2 2 0 0 1-.85-.79 2 2 0 0 1-.31-1.14 2 2 0 0 1 .3-1.15 2 2 0 0 1 .86-.78 3 3 0 0 1 1.24-.29 2.4 2.4 0 0 1 1.18.29 1.7 1.7 0 0 1 .75.8l-.97.53a1 1 0 0 0-.42-.45 1 1 0 0 0-.55-.14 1 1 0 0 0-.57.14 1 1 0 0 0-.4.4 1.3 1.3 0 0 0-.15.65 1.3 1.3 0 0 0 .15.64 1 1 0 0 0 .4.4 1 1 0 0 0 .57.15 1 1 0 0 0 .55-.14 1 1 0 0 0 .42-.45l.97.53a1.7 1.7 0 0 1-.75.8 2.4 2.4 0 0 1-1.18.28Zm2.62-.07v-5.94h1.24V0Zm4.54.06a3 3 0 0 1-1.3-.28 2 2 0 0 1-.85-.8 2 2 0 0 1-.3-1.13 2 2 0 0 1 .29-1.15 2 2 0 0 1 .82-.78 2.4 2.4 0 0 1 1.18-.29 2.4 2.4 0 0 1 1.14.27 2 2 0 0 1 .8.77 2.3 2.3 0 0 1 .3 1.2v.16q0 .1-.02.17h-3.5v-.72h2.84l-.48.21a1 1 0 0 0-.14-.58 1 1 0 0 0-.38-.39 1 1 0 0 0-.56-.14 1 1 0 0 0-.56.14 1 1 0 0 0-.38.4 1 1 0 0 0-.14.6v.18a1 1 0 0 0 .16.62 1 1 0 0 0 .44.4 1.5 1.5 0 0 0 .67.15 2 2 0 0 0 .6-.1 2 2 0 0 0 .47-.31l.67.72a2 2 0 0 1-.75.51 3 3 0 0 1-1.02.17m10.69-4.43a2 2 0 0 1 .9.2 1.5 1.5 0 0 1 .63.63 2 2 0 0 1 .23 1.07V0h-1.25v-2.27a1.2 1.2 0 0 0-.22-.77.8.8 0 0 0-.6-.25 1 1 0 0 0-.5.13 1 1 0 0 0-.33.37 2 2 0 0 0-.12.63V0h-1.25v-2.27a1.2 1.2 0 0 0-.2-.77.8.8 0 0 0-.6-.25 1 1 0 0 0-.5.13A1 1 0 0 0-7-2.8a2 2 0 0 0-.12.63V0h-1.24v-4.3h1.19v1.18l-.23-.35a1.5 1.5 0 0 1 .64-.67 2 2 0 0 1 .94-.23 2 2 0 0 1 1.04.3 1.5 1.5 0 0 1 .58.92l-.44-.12a1.7 1.7 0 0 1 .7-.8 2 2 0 0 1 1.09-.3M2.67 0v-.84l-.08-.18v-1.5a.8.8 0 0 0-.25-.63 1 1 0 0 0-.74-.23 2 2 0 0 0-.68.11 2 2 0 0 0-.56.3l-.45-.88a3 3 0 0 1 .85-.38 4 4 0 0 1 1-.14 2.3 2.3 0 0 1 1.53.47 1.8 1.8 0 0 1 .55 1.45V0ZM1.36.06A2 2 0 0 1 .49-.1a1.3 1.3 0 0 1-.55-.47 1.2 1.2 0 0 1-.2-.66 1.2 1.2 0 0 1 .2-.67 1.2 1.2 0 0 1 .6-.45 3 3 0 0 1 1.06-.17h1.14v.73h-1a1 1 0 0 0-.6.14.5.5 0 0 0-.17.36.5.5 0 0 0 .19.38 1 1 0 0 0 .51.14 1 1 0 0 0 .56-.14 1 1 0 0 0 .36-.44l.2.58a1 1 0 0 1-.5.63 2 2 0 0 1-.93.21m6.22-4.43a2 2 0 0 1 .92.2 1.5 1.5 0 0 1 .63.63 2 2 0 0 1 .23 1.07V0H8.12v-2.27a1 1 0 0 0-.23-.77.8.8 0 0 0-.65-.25 1 1 0 0 0-.53.13 1 1 0 0 0-.37.38 1.4 1.4 0 0 0-.13.65V0H4.96v-4.3h1.2v1.2l-.23-.37a1.6 1.6 0 0 1 .67-.67 2 2 0 0 1 .98-.23M13.13 0v-.84l-.08-.18v-1.5a.8.8 0 0 0-.24-.63 1 1 0 0 0-.75-.22 2 2 0 0 0-.68.1 2 2 0 0 0-.56.3l-.45-.87a3 3 0 0 1 .85-.39 4 4 0 0 1 1-.13 2.3 2.3 0 0 1 1.54.46 1.8 1.8 0 0 1 .54 1.44V0Zm-1.31.06a2 2 0 0 1-.86-.17 1.3 1.3 0 0 1-.56-.47 1.2 1.2 0 0 1-.2-.66 1.2 1.2 0 0 1 .2-.67 1.2 1.2 0 0 1 .6-.45 3 3 0 0 1 1.06-.17h1.14v.73h-1a1 1 0 0 0-.6.14.5.5 0 0 0-.16.36.5.5 0 0 0 .18.38 1 1 0 0 0 .52.14 1 1 0 0 0 .56-.14 1 1 0 0 0 .36-.44l.2.58a1 1 0 0 1-.5.63 2 2 0 0 1-.94.21m5.66 1.56a5 5 0 0 1-1.17-.15 3 3 0 0 1-.94-.45l.5-.9a2 2 0 0 0 .7.36 3 3 0 0 0 .82.13 1.3 1.3 0 0 0 .97-.3 1.2 1.2 0 0 0 .3-.88v-.65l.08-1.08-.02-1.08v-.92h1.18v3.58a2.3 2.3 0 0 1-.62 1.77 2.6 2.6 0 0 1-1.8.57M17.3-.21a2 2 0 0 1-1.08-.26 2 2 0 0 1-.78-.73 2 2 0 0 1-.29-1.09 2 2 0 0 1 .3-1.1 2 2 0 0 1 .77-.72 2 2 0 0 1 1.08-.26 2 2 0 0 1 .96.22 1.5 1.5 0 0 1 .65.68 3 3 0 0 1 .23 1.18 3 3 0 0 1-.23 1.17 1.5 1.5 0 0 1-.65.69 2 2 0 0 1-.96.22m.25-1.02a1 1 0 0 0 .58-.13 1 1 0 0 0 .4-.38 1 1 0 0 0 .15-.55 1 1 0 0 0-.15-.55 1 1 0 0 0-.4-.37 1 1 0 0 0-.58-.13 1 1 0 0 0-.58.13 1 1 0 0 0-.4.37 1 1 0 0 0-.15.55 1 1 0 0 0 .15.55 1 1 0 0 0 .4.38 1 1 0 0 0 .58.13M23.2.07a3 3 0 0 1-1.3-.3 2 2 0 0 1-.86-.78 2 2 0 0 1-.3-1.14 2 2 0 0 1 .3-1.15 2 2 0 0 1 .82-.78 2.4 2.4 0 0 1 1.18-.29 2.4 2.4 0 0 1 1.14.27 2 2 0 0 1 .8.77 2.3 2.3 0 0 1 .3 1.2l-.01.16-.02.17h-3.5v-.72h2.85l-.48.21a1 1 0 0 0-.14-.59 1 1 0 0 0-.38-.39 1 1 0 0 0-.56-.14 1 1 0 0 0-.56.14 1 1 0 0 0-.38.4 1 1 0 0 0-.14.6v.19a1 1 0 0 0 .16.62 1 1 0 0 0 .44.4 1.5 1.5 0 0 0 .67.15 2 2 0 0 0 .6-.1 2 2 0 0 0 .47-.31l.67.72a2 2 0 0 1-.75.51 3 3 0 0 1-1.02.17m8.42-4.44a2 2 0 0 1 .9.2 1.5 1.5 0 0 1 .63.63 2 2 0 0 1 .23 1.07V0h-1.25v-2.27a1.2 1.2 0 0 0-.21-.77.8.8 0 0 0-.61-.25 1 1 0 0 0-.49.13 1 1 0 0 0-.34.37 2 2 0 0 0-.12.63V0h-1.24v-2.27a1.2 1.2 0 0 0-.22-.77.8.8 0 0 0-.6-.25 1 1 0 0 0-.49.13 1 1 0 0 0-.33.37 2 2 0 0 0-.12.63V0H26.1v-4.3h1.19v1.18l-.22-.35a1.5 1.5 0 0 1 .63-.67 2 2 0 0 1 .94-.22 2 2 0 0 1 1.04.3 1.5 1.5 0 0 1 .59.91l-.44-.12a1.7 1.7 0 0 1 .69-.8 2 2 0 0 1 1.09-.3M36.67.06a3 3 0 0 1-1.3-.28 2 2 0 0 1-.85-.8 2 2 0 0 1-.3-1.13 2 2 0 0 1 .3-1.15 2 2 0 0 1 .82-.78 2.4 2.4 0 0 1 1.17-.29 2.4 2.4 0 0 1 1.14.27 2 2 0 0 1 .8.77 2.3 2.3 0 0 1 .3 1.2v.16q0 .1-.02.17h-3.5v-.72h2.84l-.48.21a1 1 0 0 0-.14-.58 1 1 0 0 0-.37-.39 1 1 0 0 0-.56-.14 1 1 0 0 0-.57.14 1 1 0 0 0-.38.4 1 1 0 0 0-.13.6v.18a1 1 0 0 0 .15.62 1 1 0 0 0 .44.4 1.5 1.5 0 0 0 .67.15 2 2 0 0 0 .6-.1 2 2 0 0 0 .48-.31l.66.72a2 2 0 0 1-.74.51 3 3 0 0 1-1.03.17m5.53-4.43a2 2 0 0 1 .92.2 1.5 1.5 0 0 1 .63.63 2 2 0 0 1 .23 1.07V0h-1.25v-2.27a1 1 0 0 0-.23-.77.8.8 0 0 0-.64-.25 1 1 0 0 0-.54.13 1 1 0 0 0-.36.38 1.4 1.4 0 0 0-.14.65V0h-1.24v-4.3h1.2v1.2l-.23-.37a1.6 1.6 0 0 1 .66-.66 2 2 0 0 1 .99-.24M46.87.06a1.7 1.7 0 0 1-1.19-.38 1.5 1.5 0 0 1-.42-1.16v-3.78h1.25v3.76a.6.6 0 0 0 .14.42.5.5 0 0 0 .4.15 1 1 0 0 0 .5-.16l.33.88a1 1 0 0 1-.46.2 2 2 0 0 1-.55.07m-2.27-3.3v-.97h2.98v.96Z" transform="translate(584 185)"/><path id="Path_5661" fill="#195f8c" d="M-17.03.1a2.5 2.5 0 0 1-1.86-.66 2.6 2.6 0 0 1-.67-1.9V-5.6h1.3v3.09a1.7 1.7 0 0 0 .32 1.15 1.2 1.2 0 0 0 .92.35 1.2 1.2 0 0 0 .92-.35 1.7 1.7 0 0 0 .33-1.15V-5.6h1.28v3.14a2.6 2.6 0 0 1-.67 1.9 2.5 2.5 0 0 1-1.87.66m6.27-.03a2 2 0 0 1-.95-.24 1.6 1.6 0 0 1-.63-.73 3 3 0 0 1-.23-1.25 3 3 0 0 1 .21-1.25 1.5 1.5 0 0 1 .63-.73 2 2 0 0 1 .97-.24 2 2 0 0 1 1.1.28 2 2 0 0 1 .76.77 2.3 2.3 0 0 1 .28 1.17A2.3 2.3 0 0 1-8.9-.98a2 2 0 0 1-.77.77 2 2 0 0 1-1.09.27Zm-2.54 1.48V-4.3h1.2v.88l-.03 1.28.08 1.27v2.42Zm2.33-2.51a1 1 0 0 0 .55-.14 1 1 0 0 0 .4-.42 1.3 1.3 0 0 0 .14-.63 1.3 1.3 0 0 0-.14-.64 1 1 0 0 0-.4-.41 1 1 0 0 0-.55-.14 1 1 0 0 0-.56.14 1 1 0 0 0-.4.4 1.3 1.3 0 0 0-.14.65 1.3 1.3 0 0 0 .15.63 1 1 0 0 0 .39.42 1 1 0 0 0 .56.14m5.21 2.58a5 5 0 0 1-1.17-.15 3 3 0 0 1-.94-.45l.5-.9a2 2 0 0 0 .69.36 3 3 0 0 0 .83.14 1.3 1.3 0 0 0 .96-.3 1.2 1.2 0 0 0 .3-.88v-.65l.08-1.08-.01-1.09v-.92h1.18v3.58a2.3 2.3 0 0 1-.62 1.77 2.6 2.6 0 0 1-1.8.57m-.19-1.83a2 2 0 0 1-1.08-.26 2 2 0 0 1-.78-.73 2 2 0 0 1-.29-1.09 2 2 0 0 1 .3-1.1 2 2 0 0 1 .77-.72 2 2 0 0 1 1.08-.26 2 2 0 0 1 .96.22 1.5 1.5 0 0 1 .65.68 3 3 0 0 1 .23 1.18 3 3 0 0 1-.23 1.17 1.5 1.5 0 0 1-.65.69 2 2 0 0 1-.96.22m.25-1.02a1 1 0 0 0 .58-.13 1 1 0 0 0 .4-.38 1 1 0 0 0 .15-.55 1 1 0 0 0-.15-.55 1 1 0 0 0-.4-.37 1 1 0 0 0-.58-.13 1 1 0 0 0-.58.13 1 1 0 0 0-.4.37 1 1 0 0 0-.15.55 1 1 0 0 0 .15.55 1 1 0 0 0 .4.38 1 1 0 0 0 .58.13M-2.18 0v-4.3h1.2v1.22l-.18-.36a1.4 1.4 0 0 1 .62-.7 2 2 0 0 1 1.03-.23v1.15H.21a1.2 1.2 0 0 0-.83.28 1.2 1.2 0 0 0-.31.91V0ZM3.6 0v-.84l-.08-.18v-1.5a.8.8 0 0 0-.24-.63 1 1 0 0 0-.75-.22 2 2 0 0 0-.68.1 2 2 0 0 0-.56.3l-.45-.88a3 3 0 0 1 .84-.38 4 4 0 0 1 1.01-.14 2.3 2.3 0 0 1 1.53.47 1.8 1.8 0 0 1 .54 1.45V0ZM2.28.06a2 2 0 0 1-.86-.17 1.3 1.3 0 0 1-.55-.47 1.2 1.2 0 0 1-.2-.66 1.2 1.2 0 0 1 .2-.67 1.2 1.2 0 0 1 .6-.45 3 3 0 0 1 1.06-.17h1.14v.73H2.66a1 1 0 0 0-.6.14.5.5 0 0 0-.16.36.5.5 0 0 0 .18.38 1 1 0 0 0 .52.14 1 1 0 0 0 .56-.14 1 1 0 0 0 .36-.44l.2.58a1 1 0 0 1-.5.63 2 2 0 0 1-.94.21m5.5 0a2 2 0 0 1-1.1-.27 2 2 0 0 1-.78-.77 2.3 2.3 0 0 1-.28-1.17 2.3 2.3 0 0 1 .28-1.18 2 2 0 0 1 .78-.77 2 2 0 0 1 1.1-.27 2 2 0 0 1 .95.24 1.6 1.6 0 0 1 .63.73 3 3 0 0 1 .22 1.25 3 3 0 0 1-.22 1.24 1.5 1.5 0 0 1-.62.73 2 2 0 0 1-.97.24m.2-1.02a1 1 0 0 0 .56-.14 1 1 0 0 0 .4-.41 1.3 1.3 0 0 0 .15-.64 1.3 1.3 0 0 0-.15-.64 1 1 0 0 0-.4-.4 1 1 0 0 0-.55-.15 1 1 0 0 0-.56.14 1 1 0 0 0-.4.41 1.3 1.3 0 0 0-.15.64 1.3 1.3 0 0 0 .15.64 1 1 0 0 0 .4.41 1 1 0 0 0 .56.14M9.13 0v-.88l.02-1.28-.08-1.27v-2.5h1.25V0Zm4.48.06a3 3 0 0 1-1.3-.28 2 2 0 0 1-.86-.8 2 2 0 0 1-.3-1.13 2 2 0 0 1 .3-1.15 2 2 0 0 1 .82-.78 2.4 2.4 0 0 1 1.18-.29 2.4 2.4 0 0 1 1.14.27 2 2 0 0 1 .8.77 2.3 2.3 0 0 1 .3 1.2l-.01.16-.02.17h-3.5v-.72H15l-.48.21a1 1 0 0 0-.14-.59 1 1 0 0 0-.38-.38 1 1 0 0 0-.56-.14 1 1 0 0 0-.56.14 1 1 0 0 0-.38.39 1 1 0 0 0-.14.6v.19a1 1 0 0 0 .16.62 1 1 0 0 0 .44.4 2 2 0 0 0 .66.15 2 2 0 0 0 .6-.1 2 2 0 0 0 .48-.31l.66.72a2 2 0 0 1-.74.51 3 3 0 0 1-1.02.17m4.36 0a4 4 0 0 1-1.06-.13 3 3 0 0 1-.8-.33l.42-.9a3 3 0 0 0 .7.3 3 3 0 0 0 .78.12 1.3 1.3 0 0 0 .61-.1.3.3 0 0 0 .18-.29.3.3 0 0 0-.14-.23 1 1 0 0 0-.37-.11l-.5-.08q-.28-.04-.56-.11a2 2 0 0 1-.51-.2 1 1 0 0 1-.37-.37 1 1 0 0 1-.14-.6 1.2 1.2 0 0 1 .23-.72 1.6 1.6 0 0 1 .69-.49 3 3 0 0 1 1.07-.18 4 4 0 0 1 .9.1 2 2 0 0 1 .76.28l-.42.89a2 2 0 0 0-.63-.25 3 3 0 0 0-.6-.07 1.3 1.3 0 0 0-.62.11.3.3 0 0 0-.19.29.3.3 0 0 0 .14.24 1 1 0 0 0 .37.13l.51.08.56.1a2 2 0 0 1 .5.2 1 1 0 0 1 .38.37 1 1 0 0 1 .14.6 1 1 0 0 1-.24.7 1.6 1.6 0 0 1-.69.49 3 3 0 0 1-1.1.16" transform="translate(584 282)"/><path id="Path_5660" fill="#195f8c" d="M-17.46 0v-5.6h2.74a2.6 2.6 0 0 1 1.58.4 1.3 1.3 0 0 1 .54 1.06 1.4 1.4 0 0 1-.22.76 1.4 1.4 0 0 1-.59.5 2 2 0 0 1-.86.18l.15-.33a2 2 0 0 1 .94.17 1.4 1.4 0 0 1 .63.5 1.4 1.4 0 0 1 .23.83 1.3 1.3 0 0 1-.57 1.13 3 3 0 0 1-1.67.4Zm1.29-.98h1.51a1.5 1.5 0 0 0 .76-.16.6.6 0 0 0 .26-.52.6.6 0 0 0-.26-.53 1.4 1.4 0 0 0-.76-.17h-1.61v-.94h1.38a1.3 1.3 0 0 0 .73-.16.6.6 0 0 0 .25-.5.6.6 0 0 0-.25-.5 1.3 1.3 0 0 0-.73-.16h-1.29ZM-8.8 0v-.84l-.08-.18v-1.5a.8.8 0 0 0-.24-.63 1 1 0 0 0-.75-.22 2 2 0 0 0-.68.1 2 2 0 0 0-.56.3l-.45-.87a3 3 0 0 1 .85-.39 4 4 0 0 1 1-.13 2.3 2.3 0 0 1 1.54.46 1.8 1.8 0 0 1 .54 1.44V0Zm-1.31.06a2 2 0 0 1-.86-.17 1.3 1.3 0 0 1-.56-.47 1.2 1.2 0 0 1-.19-.66 1.2 1.2 0 0 1 .19-.67 1.2 1.2 0 0 1 .6-.45 3 3 0 0 1 1.06-.17h1.14v.73h-1a1 1 0 0 0-.6.14.5.5 0 0 0-.17.36.5.5 0 0 0 .19.38 1 1 0 0 0 .52.14 1 1 0 0 0 .56-.14 1 1 0 0 0 .36-.44l.19.58a1 1 0 0 1-.5.63 2 2 0 0 1-.93.21m5.72 0a3 3 0 0 1-1.24-.28 2 2 0 0 1-.85-.79 2 2 0 0 1-.31-1.14 2 2 0 0 1 .3-1.15 2 2 0 0 1 .86-.78 3 3 0 0 1 1.24-.29 2.4 2.4 0 0 1 1.18.29 1.7 1.7 0 0 1 .74.8l-.96.53a1 1 0 0 0-.42-.45 1 1 0 0 0-.55-.14 1 1 0 0 0-.57.14 1 1 0 0 0-.4.4 1.3 1.3 0 0 0-.15.65 1.3 1.3 0 0 0 .15.64 1 1 0 0 0 .4.4 1 1 0 0 0 .57.15 1 1 0 0 0 .55-.14 1 1 0 0 0 .42-.45l.97.53a1.7 1.7 0 0 1-.75.8 2.4 2.4 0 0 1-1.18.28m3.65-.94L-.7-2.4l2-1.9h1.5L.87-2.34l-.65.52ZM-1.76 0v-5.94h1.24V0Zm3.2 0L0-1.8l.78-.98L2.96 0Zm3.81.06a2 2 0 0 1-.95-.2 1.5 1.5 0 0 1-.66-.64 2.3 2.3 0 0 1-.23-1.1V-4.3h1.25v2.25a1.2 1.2 0 0 0 .23.79.8.8 0 0 0 .64.25 1 1 0 0 0 .51-.13 1 1 0 0 0 .36-.38 2 2 0 0 0 .13-.66V-4.3h1.24V0H6.6v-1.18l.21.34a1.5 1.5 0 0 1-.64.68 2 2 0 0 1-.9.22m6.23 0a2 2 0 0 1-.96-.24A1.6 1.6 0 0 1 9.9-.9a3 3 0 0 1-.23-1.24 3 3 0 0 1 .22-1.25 1.5 1.5 0 0 1 .62-.73 2 2 0 0 1 .98-.24 2 2 0 0 1 1.09.28 2 2 0 0 1 .77.77 2.3 2.3 0 0 1 .28 1.17 2.3 2.3 0 0 1-.28 1.17 2 2 0 0 1-.77.77 2 2 0 0 1-1.1.27m-2.55 1.5V-4.3h1.2v.88l-.03 1.28.08 1.27v2.42Zm2.33-2.52a1 1 0 0 0 .56-.14 1 1 0 0 0 .39-.42 1.3 1.3 0 0 0 .15-.63 1.3 1.3 0 0 0-.15-.64 1 1 0 0 0-.4-.41 1 1 0 0 0-.55-.14 1 1 0 0 0-.56.14 1 1 0 0 0-.4.4 1.3 1.3 0 0 0-.14.65 1.3 1.3 0 0 0 .15.63 1 1 0 0 0 .39.42 1 1 0 0 0 .56.14M15.9.06a4 4 0 0 1-1.06-.13 3 3 0 0 1-.8-.33l.42-.9a3 3 0 0 0 .7.3 3 3 0 0 0 .8.12 1.3 1.3 0 0 0 .6-.1.3.3 0 0 0 .19-.3.3.3 0 0 0-.15-.22 1 1 0 0 0-.37-.12l-.51-.08-.56-.1a2 2 0 0 1-.5-.2 1 1 0 0 1-.38-.37 1 1 0 0 1-.14-.6 1.2 1.2 0 0 1 .24-.72 1.6 1.6 0 0 1 .68-.49 3 3 0 0 1 1.07-.18 4 4 0 0 1 .9.1 2 2 0 0 1 .76.28l-.41.89a2 2 0 0 0-.63-.25 3 3 0 0 0-.61-.07 1.3 1.3 0 0 0-.61.11.3.3 0 0 0-.2.29.3.3 0 0 0 .15.24 1 1 0 0 0 .37.13l.5.08.56.1a2 2 0 0 1 .51.2 1 1 0 0 1 .37.37 1 1 0 0 1 .15.6 1 1 0 0 1-.24.7 1.6 1.6 0 0 1-.7.48 3 3 0 0 1-1.1.17" transform="translate(584 216)"/><path id="Path_5659" fill="#195f8c" d="M-25.41-3.34h2.7v1h-2.7Zm.1 2.3h3.05V0h-4.34v-5.6h4.23v1.04h-2.94Zm6.6-3.33a2 2 0 0 1 .92.2 1.5 1.5 0 0 1 .64.62 2 2 0 0 1 .23 1.08V0h-1.25v-2.27a1 1 0 0 0-.23-.77.8.8 0 0 0-.64-.25 1 1 0 0 0-.54.13 1 1 0 0 0-.36.38 1.4 1.4 0 0 0-.14.65V0h-1.24v-4.3h1.19v1.2l-.23-.37a1.6 1.6 0 0 1 .67-.66 2 2 0 0 1 .98-.24m4.67 4.43a1.7 1.7 0 0 1-1.18-.38 1.5 1.5 0 0 1-.42-1.16v-3.78h1.24v3.76a.6.6 0 0 0 .14.42.5.5 0 0 0 .4.15 1 1 0 0 0 .5-.16l.33.88a1 1 0 0 1-.46.2 2 2 0 0 1-.55.07m-2.27-3.3v-.97h2.99v.96Zm6 3.3a3 3 0 0 1-1.3-.28 2 2 0 0 1-.86-.8 2 2 0 0 1-.3-1.13 2 2 0 0 1 .3-1.15 2 2 0 0 1 .82-.78 2.4 2.4 0 0 1 1.18-.29 2.4 2.4 0 0 1 1.14.27 2 2 0 0 1 .8.77 2.3 2.3 0 0 1 .3 1.2l-.01.16-.02.17h-3.5v-.73h2.84l-.48.22a1 1 0 0 0-.13-.59 1 1 0 0 0-.38-.39 1 1 0 0 0-.56-.14 1 1 0 0 0-.56.14 1 1 0 0 0-.38.4 1 1 0 0 0-.14.6v.19a1 1 0 0 0 .16.62 1 1 0 0 0 .44.4 1.5 1.5 0 0 0 .67.15 2 2 0 0 0 .6-.1 2 2 0 0 0 .48-.32l.66.72a2 2 0 0 1-.74.51 3 3 0 0 1-1.04.18M-7.4 0v-4.3h1.2v1.22l-.18-.36a1.4 1.4 0 0 1 .62-.7 2 2 0 0 1 1.03-.23v1.15h-.28a1.2 1.2 0 0 0-.83.28 1.2 1.2 0 0 0-.32.91V0Zm5.96.06a2 2 0 0 1-.96-.24 1.6 1.6 0 0 1-.64-.73 3 3 0 0 1-.22-1.24 3 3 0 0 1 .22-1.25 1.5 1.5 0 0 1 .62-.73 2 2 0 0 1 .98-.24 2 2 0 0 1 1.09.28 2 2 0 0 1 .77.77A2.3 2.3 0 0 1 .7-2.15 2.3 2.3 0 0 1 .42-.98a2 2 0 0 1-.77.77 2 2 0 0 1-1.1.27Zm-2.55 1.5V-4.3h1.19v.88l-.02 1.28.08 1.27v2.42Zm2.33-2.52a1 1 0 0 0 .56-.14 1 1 0 0 0 .4-.41 1.3 1.3 0 0 0 .14-.64 1.3 1.3 0 0 0-.15-.64 1 1 0 0 0-.39-.41 1 1 0 0 0-.56-.14 1 1 0 0 0-.56.14 1 1 0 0 0-.39.4 1.3 1.3 0 0 0-.14.65 1.3 1.3 0 0 0 .14.63 1 1 0 0 0 .39.42 1 1 0 0 0 .56.14m3.2.96v-4.3h1.18v1.22l-.16-.36a1.4 1.4 0 0 1 .61-.7 2 2 0 0 1 1.03-.23v1.15h-.28a1.2 1.2 0 0 0-.82.28 1.2 1.2 0 0 0-.32.9V0Zm3.4 0v-4.3H6.2V0Zm.63-4.9a.8.8 0 0 1-.56-.2.7.7 0 0 1-.21-.5.7.7 0 0 1 .22-.5.8.8 0 0 1 .56-.2.8.8 0 0 1 .56.19.6.6 0 0 1 .21.48.7.7 0 0 1-.21.52.8.8 0 0 1-.57.21M8.8.06a4 4 0 0 1-1.06-.13 3 3 0 0 1-.8-.33l.42-.9a3 3 0 0 0 .7.3 3 3 0 0 0 .8.12 1.3 1.3 0 0 0 .6-.1.3.3 0 0 0 .19-.3.3.3 0 0 0-.15-.22 1 1 0 0 0-.37-.12l-.51-.08q-.28-.04-.55-.1a2 2 0 0 1-.51-.2 1 1 0 0 1-.38-.37 1 1 0 0 1-.14-.6 1.2 1.2 0 0 1 .24-.73 1.6 1.6 0 0 1 .68-.5 3 3 0 0 1 1.08-.17 4 4 0 0 1 .9.1 2 2 0 0 1 .76.28l-.42.89a2 2 0 0 0-.63-.26 3 3 0 0 0-.61-.06 1 1 0 0 0-.6.1.3.3 0 0 0-.2.3.3.3 0 0 0 .14.24 1 1 0 0 0 .37.12l.51.09.56.1a2 2 0 0 1 .5.2 1 1 0 0 1 .38.37 1 1 0 0 1 .14.6 1 1 0 0 1-.24.7 1.6 1.6 0 0 1-.7.49 3 3 0 0 1-1.1.17m4.94 0a3 3 0 0 1-1.3-.28 2 2 0 0 1-.86-.8 2 2 0 0 1-.3-1.13 2 2 0 0 1 .3-1.15 2 2 0 0 1 .82-.78 2.4 2.4 0 0 1 1.18-.29 2.4 2.4 0 0 1 1.14.27 2 2 0 0 1 .8.77 2.3 2.3 0 0 1 .3 1.2v.16q0 .1-.02.17h-3.5v-.73h2.84l-.48.22a1 1 0 0 0-.14-.59 1 1 0 0 0-.37-.38 1 1 0 0 0-.56-.14 1 1 0 0 0-.57.14 1 1 0 0 0-.38.39 1 1 0 0 0-.13.6v.19a1 1 0 0 0 .15.62 1 1 0 0 0 .44.4 1.5 1.5 0 0 0 .67.15 2 2 0 0 0 .6-.1 2 2 0 0 0 .48-.31l.66.72a2 2 0 0 1-.74.51 3 3 0 0 1-1.03.17m7.75.04a2.5 2.5 0 0 1-1.86-.66 2.6 2.6 0 0 1-.67-1.9V-5.6h1.3v3.09a1.7 1.7 0 0 0 .32 1.15 1.2 1.2 0 0 0 .92.35 1.2 1.2 0 0 0 .92-.35 1.7 1.7 0 0 0 .33-1.15V-5.6h1.28v3.14a2.6 2.6 0 0 1-.67 1.9 2.5 2.5 0 0 1-1.87.66m3.82-.1v-5.6h1.3V0Z" transform="translate(584 247)"/><path id="Path_5658" fill="#3c9bcd" d="M-50.41.1a5 5 0 0 1-1.45-.2 3 3 0 0 1-1.12-.52l.5-1.1a4 4 0 0 0 .96.47 4 4 0 0 0 1.12.19 2 2 0 0 0 .7-.09 1 1 0 0 0 .4-.24.5.5 0 0 0 .12-.35.5.5 0 0 0-.2-.4 2 2 0 0 0-.52-.24q-.33-.1-.72-.18t-.78-.21a3 3 0 0 1-.72-.32 2 2 0 0 1-.52-.53 1.5 1.5 0 0 1-.2-.82 2 2 0 0 1 .29-.99 2 2 0 0 1 .88-.71 4 4 0 0 1 1.48-.27 5 5 0 0 1 1.17.14 3 3 0 0 1 1.02.42l-.45 1.1a4 4 0 0 0-.88-.37 3 3 0 0 0-.87-.12 2 2 0 0 0-.69.1 1 1 0 0 0-.39.26.6.6 0 0 0-.11.36.5.5 0 0 0 .2.4 2 2 0 0 0 .52.23q.32.1.71.18t.79.21a3 3 0 0 1 .71.32 2 2 0 0 1 .53.52 1.5 1.5 0 0 1 .2.82 1.7 1.7 0 0 1-.3.97 2 2 0 0 1-.89.71 4 4 0 0 1-1.5.27m5.97-.03a3 3 0 0 1-1.45-.32 2.4 2.4 0 0 1-.97-.89 2.4 2.4 0 0 1-.34-1.28 2.5 2.5 0 0 1 .34-1.3 2.4 2.4 0 0 1 .92-.87 3 3 0 0 1 1.32-.32 3 3 0 0 1 1.29.3 2.3 2.3 0 0 1 .9.86 2.6 2.6 0 0 1 .33 1.35v.18q0 .1-.03.2h-3.93v-.82h3.2l-.55.24a1.4 1.4 0 0 0-.15-.65 1 1 0 0 0-.42-.44 1 1 0 0 0-.63-.16 1.3 1.3 0 0 0-.64.16 1 1 0 0 0-.42.44 1.4 1.4 0 0 0-.16.67v.22a1.4 1.4 0 0 0 .18.7 1 1 0 0 0 .5.46 2 2 0 0 0 .75.15 2 2 0 0 0 .67-.11 2 2 0 0 0 .54-.35l.75.8a2 2 0 0 1-.84.59 3 3 0 0 1-1.16.2m5.62 0a3 3 0 0 1-1.4-.32 2.4 2.4 0 0 1-.96-.88 2.4 2.4 0 0 1-.35-1.3 2.4 2.4 0 0 1 .35-1.28 2.4 2.4 0 0 1 .96-.88 3 3 0 0 1 1.4-.32 3 3 0 0 1 1.33.32 2 2 0 0 1 .84.9l-1.1.6a1.3 1.3 0 0 0-.46-.5 1 1 0 0 0-.62-.17 1.3 1.3 0 0 0-.65.16 1 1 0 0 0-.45.46 1.5 1.5 0 0 0-.17.72 1.5 1.5 0 0 0 .17.72 1 1 0 0 0 .45.46 1.3 1.3 0 0 0 .65.16 1.3 1.3 0 0 0 .62-.15 1.2 1.2 0 0 0 .47-.51l1.09.6a2 2 0 0 1-.84.9 3 3 0 0 1-1.33.31m5.02 0a2.4 2.4 0 0 1-1.08-.23 1.7 1.7 0 0 1-.73-.72 2.6 2.6 0 0 1-.26-1.23v-2.73h1.4v2.53a1.3 1.3 0 0 0 .26.88 1 1 0 0 0 .72.29 1 1 0 0 0 .58-.14 1 1 0 0 0 .4-.43 2 2 0 0 0 .14-.74v-2.4h1.4V0h-1.33v-1.33l.24.39a1.7 1.7 0 0 1-.71.75 2 2 0 0 1-1.03.26m4.14-.07v-4.84h1.34v1.37l-.19-.4a1.6 1.6 0 0 1 .7-.78 2.4 2.4 0 0 1 1.16-.27v1.3l-.16-.01h-.16a1.3 1.3 0 0 0-.93.33 1.3 1.3 0 0 0-.35 1.02V0Zm3.84 0v-4.84h1.4V0Zm.7-5.52a1 1 0 0 1-.63-.22.7.7 0 0 1-.24-.56.7.7 0 0 1 .24-.56 1 1 0 0 1 .63-.22 1 1 0 0 1 .63.2.7.7 0 0 1 .25.55.8.8 0 0 1-.24.58 1 1 0 0 1-.63.23Zm4 5.6a2 2 0 0 1-1.34-.44 1.7 1.7 0 0 1-.48-1.3v-4.25h1.4v4.23a.7.7 0 0 0 .17.47.6.6 0 0 0 .44.17 1 1 0 0 0 .56-.18l.38.99a2 2 0 0 1-.51.23 3 3 0 0 1-.63.07m-2.56-3.73v-1.08h3.35v1.08Zm5.01 5.47a3 3 0 0 1-.75-.12 2 2 0 0 1-.6-.32l.52-1a1 1 0 0 0 .37.22 1 1 0 0 0 .41.08.7.7 0 0 0 .48-.14 1 1 0 0 0 .32-.46l.25-.6.1-.15 1.74-4.17h1.35L-16.66.3a3 3 0 0 1-.54.92 2 2 0 0 1-.66.47 2 2 0 0 1-.81.13m.83-1.63L-20-4.84h1.45l1.67 4.05ZM-9.27.1a3 3 0 0 1-1.24-.23 2 2 0 0 1-.85-.6 1.4 1.4 0 0 1-.32-.9 2 2 0 0 1 .21-.84 2 2 0 0 1 .66-.7 7 7 0 0 1 1.14-.65 8 8 0 0 0 .8-.41 1.4 1.4 0 0 0 .4-.35.6.6 0 0 0 .1-.33.5.5 0 0 0-.15-.38.7.7 0 0 0-.46-.15.7.7 0 0 0-.5.16.5.5 0 0 0-.18.42l.05.26a1 1 0 0 0 .2.3l.44.43 3.32 3.08-.76.89-3.66-3.4a4 4 0 0 1-.5-.54 2 2 0 0 1-.28-.5 2 2 0 0 1-.08-.5 1.4 1.4 0 0 1 .24-.8 1.6 1.6 0 0 1 .68-.55 3 3 0 0 1 1.04-.2 2 2 0 0 1 .95.18 1.5 1.5 0 0 1 .63.5 1.3 1.3 0 0 1 .23.77 1.4 1.4 0 0 1-.2.73 2 2 0 0 1-.62.62 7 7 0 0 1-1.1.58 4 4 0 0 0-.72.4 1.4 1.4 0 0 0-.38.4 1 1 0 0 0-.12.43.6.6 0 0 0 .14.4 1 1 0 0 0 .4.29 2 2 0 0 0 .59.1 2 2 0 0 0 1-.26 2 2 0 0 0 .79-.77 4 4 0 0 0 .45-1.23l1.13.35a4 4 0 0 1-.68 1.59 3.4 3.4 0 0 1-1.2 1.04 3.4 3.4 0 0 1-1.6.37M.86.1A4 4 0 0 1-.5-.13a3 3 0 0 1-1.08-.68 3 3 0 0 1-.72-1.03 3 3 0 0 1-.26-1.3 3 3 0 0 1 .26-1.31 3 3 0 0 1 .72-1.04 3 3 0 0 1 1.09-.68 4 4 0 0 1 1.36-.24 4 4 0 0 1 1.48.29 3 3 0 0 1 1.11.83l-.94.86a2 2 0 0 0-.72-.55 2 2 0 0 0-.86-.19 2 2 0 0 0-.81.15 2 2 0 0 0-.64.41 2 2 0 0 0-.42.64 2 2 0 0 0-.15.82 2 2 0 0 0 .15.82 2 2 0 0 0 .42.64 2 2 0 0 0 .64.41 2 2 0 0 0 .81.15 2 2 0 0 0 .86-.19 2 2 0 0 0 .72-.56l.94.86a3 3 0 0 1-1.11.84 4 4 0 0 1-1.5.29M6.48.07A3 3 0 0 1 5.1-.25a2.5 2.5 0 0 1-.94-.89 2.4 2.4 0 0 1-.35-1.28 2.4 2.4 0 0 1 .34-1.3 2.4 2.4 0 0 1 .95-.87 3 3 0 0 1 1.37-.32 3 3 0 0 1 1.37.32 2.4 2.4 0 0 1 .95.87 2.4 2.4 0 0 1 .34 1.3 2.4 2.4 0 0 1-.35 1.29 2.4 2.4 0 0 1-.94.88 3 3 0 0 1-1.36.32m0-1.15a1 1 0 0 0 .63-.16 1 1 0 0 0 .44-.47 1.5 1.5 0 0 0 .16-.71 1.5 1.5 0 0 0-.16-.72 1 1 0 0 0-.44-.46 1 1 0 0 0-.63-.16 1 1 0 0 0-.63.16 1 1 0 0 0-.45.46 1.5 1.5 0 0 0-.17.72 1.5 1.5 0 0 0 .17.71 1 1 0 0 0 .45.47 1 1 0 0 0 .63.16m9.79-3.83a2 2 0 0 1 1.02.23 1.7 1.7 0 0 1 .7.7 2.5 2.5 0 0 1 .26 1.2V0h-1.4v-2.56a1.3 1.3 0 0 0-.25-.86 1 1 0 0 0-.68-.28 1 1 0 0 0-.55.14 1 1 0 0 0-.38.42 2 2 0 0 0-.14.71V0h-1.4v-2.56a1.3 1.3 0 0 0-.23-.86 1 1 0 0 0-.68-.28 1 1 0 0 0-.55.14 1 1 0 0 0-.38.42 2 2 0 0 0-.13.71V0h-1.4v-4.84h1.34v1.32l-.26-.39a1.7 1.7 0 0 1 .72-.75 2 2 0 0 1 1.06-.25 2 2 0 0 1 1.16.33 1.6 1.6 0 0 1 .66 1.03l-.5-.13a2 2 0 0 1 .79-.9 2.3 2.3 0 0 1 1.22-.33m6.1 4.98A2 2 0 0 1 21.3-.2a2 2 0 0 1-.71-.82 3 3 0 0 1-.26-1.4 4 4 0 0 1 .24-1.4 1.7 1.7 0 0 1 .7-.82 2 2 0 0 1 1.1-.27 2.4 2.4 0 0 1 1.23.31 2.3 2.3 0 0 1 .86.87 2.6 2.6 0 0 1 .32 1.31 2.6 2.6 0 0 1-.32 1.32 2.3 2.3 0 0 1-.86.86 2.5 2.5 0 0 1-1.23.31M19.5 1.75v-6.6h1.34v1l-.03 1.44.1 1.43v2.73Zm2.62-2.83a1 1 0 0 0 .62-.16 1 1 0 0 0 .44-.47 1.5 1.5 0 0 0 .17-.71 1.5 1.5 0 0 0-.17-.72 1 1 0 0 0-.44-.46 1 1 0 0 0-.62-.16 1 1 0 0 0-.63.16 1 1 0 0 0-.44.46 1.5 1.5 0 0 0-.17.72 1.5 1.5 0 0 0 .17.71 1 1 0 0 0 .44.47 1 1 0 0 0 .63.16M25.72 0v-6.68h1.4V0Zm2.7 0v-4.84h1.4V0Zm.7-5.52a1 1 0 0 1-.62-.22.7.7 0 0 1-.25-.56.7.7 0 0 1 .25-.56 1 1 0 0 1 .63-.22 1 1 0 0 1 .63.2.7.7 0 0 1 .24.55.8.8 0 0 1-.24.58 1 1 0 0 1-.63.23Zm5 5.52v-.94l-.1-.21v-1.7a1 1 0 0 0-.27-.7 1.2 1.2 0 0 0-.84-.25 2 2 0 0 0-.76.12 2 2 0 0 0-.63.33L31-4.33a3 3 0 0 1 .95-.43 4 4 0 0 1 1.14-.15 2.6 2.6 0 0 1 1.72.52 2 2 0 0 1 .6 1.63V0Zm-1.48.07a2 2 0 0 1-.97-.2 1.5 1.5 0 0 1-.62-.52 1.3 1.3 0 0 1-.22-.75 1.4 1.4 0 0 1 .21-.75 1.4 1.4 0 0 1 .67-.51 3 3 0 0 1 1.2-.18h1.29v.81h-1.14a1 1 0 0 0-.68.17.5.5 0 0 0-.18.4.5.5 0 0 0 .21.43 1 1 0 0 0 .58.16 1 1 0 0 0 .63-.17 1 1 0 0 0 .4-.49l.22.65a1.3 1.3 0 0 1-.56.7 2 2 0 0 1-1.04.25m7-4.98a2 2 0 0 1 1.03.23 1.7 1.7 0 0 1 .72.7 2.5 2.5 0 0 1 .26 1.2V0h-1.4v-2.56a1.2 1.2 0 0 0-.26-.86 1 1 0 0 0-.72-.28 1.3 1.3 0 0 0-.6.14 1 1 0 0 0-.42.43 2 2 0 0 0-.15.74V0h-1.4v-4.84h1.34v1.34l-.25-.4a2 2 0 0 1 .74-.75 2.3 2.3 0 0 1 1.11-.26M45.28.07a3 3 0 0 1-1.4-.32 2.4 2.4 0 0 1-.95-.88 2.4 2.4 0 0 1-.35-1.3 2.4 2.4 0 0 1 .35-1.28 2.4 2.4 0 0 1 .95-.88 3 3 0 0 1 1.4-.32 3 3 0 0 1 1.34.32 2 2 0 0 1 .83.9l-1.09.59a1.3 1.3 0 0 0-.47-.5 1 1 0 0 0-.62-.16 1.3 1.3 0 0 0-.64.16 1 1 0 0 0-.46.46 1.5 1.5 0 0 0-.17.72 1.5 1.5 0 0 0 .17.72 1 1 0 0 0 .46.46 1.3 1.3 0 0 0 .64.16 1.3 1.3 0 0 0 .62-.16 1.2 1.2 0 0 0 .47-.5l1.1.59a2 2 0 0 1-.84.9 3 3 0 0 1-1.34.32m5.32 0a3 3 0 0 1-1.45-.32 2.4 2.4 0 0 1-.97-.89 2.4 2.4 0 0 1-.34-1.28 2.5 2.5 0 0 1 .34-1.3 2.4 2.4 0 0 1 .92-.87 3 3 0 0 1 1.33-.32 3 3 0 0 1 1.28.3 2.3 2.3 0 0 1 .9.86 2.6 2.6 0 0 1 .33 1.35v.18l-.02.2h-3.94v-.82h3.2l-.54.24a1.4 1.4 0 0 0-.16-.65 1 1 0 0 0-.42-.44 1 1 0 0 0-.63-.16 1.3 1.3 0 0 0-.63.16 1 1 0 0 0-.43.44 1.4 1.4 0 0 0-.15.67v.22a1.4 1.4 0 0 0 .17.7 1 1 0 0 0 .5.46 2 2 0 0 0 .75.15 2 2 0 0 0 .68-.11 2 2 0 0 0 .53-.35l.75.8a2 2 0 0 1-.84.59 3 3 0 0 1-1.16.2Z" transform="translate(384 362)"/><path id="Path_5657" fill="#195f8c" d="M-31.5 0v-5.6h2.42a3 3 0 0 1 1.3.24 2 2 0 0 1 .84.7 2 2 0 0 1 .3 1.1 2 2 0 0 1-.3 1.07 2 2 0 0 1-.84.7 3 3 0 0 1-1.3.25h-1.7l.57-.59V0Zm1.3-1.98-.58-.62h1.63a1.3 1.3 0 0 0 .9-.26 1 1 0 0 0 .3-.7 1 1 0 0 0-.3-.73 1.3 1.3 0 0 0-.9-.25h-1.63l.57-.62ZM-25.83 0v-4.3h1.2v1.22l-.18-.36a1.4 1.4 0 0 1 .62-.7 2 2 0 0 1 1.03-.23v1.15h-.28a1.2 1.2 0 0 0-.83.28 1.2 1.2 0 0 0-.32.91V0Zm3.42 0v-4.3h1.25V0Zm.62-4.9a.8.8 0 0 1-.56-.2.7.7 0 0 1-.21-.5.7.7 0 0 1 .21-.5.8.8 0 0 1 .56-.2.8.8 0 0 1 .56.19.6.6 0 0 1 .22.49.7.7 0 0 1-.21.51.8.8 0 0 1-.57.21m2.95 4.9-1.8-4.3h1.28l1.5 3.7h-.64l1.56-3.7h1.2l-1.8 4.3Zm6.11 0v-.84l-.08-.18v-1.5a.8.8 0 0 0-.24-.63 1 1 0 0 0-.75-.22 2 2 0 0 0-.67.1 2 2 0 0 0-.57.3l-.45-.87a3 3 0 0 1 .85-.39 4 4 0 0 1 1.01-.13 2.3 2.3 0 0 1 1.53.46 1.8 1.8 0 0 1 .54 1.45V0Zm-1.3.06a2 2 0 0 1-.87-.17 1.3 1.3 0 0 1-.55-.47 1.2 1.2 0 0 1-.2-.66 1.2 1.2 0 0 1 .2-.67 1.2 1.2 0 0 1 .6-.45 3 3 0 0 1 1.06-.17h1.14v.73h-1a1 1 0 0 0-.6.14.5.5 0 0 0-.17.36.5.5 0 0 0 .19.38 1 1 0 0 0 .51.14 1 1 0 0 0 .56-.14 1 1 0 0 0 .36-.44l.2.58a1 1 0 0 1-.5.63 2 2 0 0 1-.94.21m5.36 0a1.7 1.7 0 0 1-1.18-.38 1.5 1.5 0 0 1-.43-1.16v-3.78h1.25v3.76a.6.6 0 0 0 .14.42.5.5 0 0 0 .4.15 1 1 0 0 0 .5-.16l.33.88A1 1 0 0 1-8.1 0a2 2 0 0 1-.56.06m-2.27-3.3v-.97h2.98v.96Zm5.99 3.3a3 3 0 0 1-1.3-.28 2 2 0 0 1-.85-.8 2 2 0 0 1-.3-1.13A2 2 0 0 1-7.1-3.3a2 2 0 0 1 .82-.78 2.4 2.4 0 0 1 1.18-.29 2.4 2.4 0 0 1 1.14.27 2 2 0 0 1 .8.77 2.3 2.3 0 0 1 .3 1.2v.16q0 .1-.02.17h-3.5v-.72h2.84l-.48.21a1 1 0 0 0-.14-.59 1 1 0 0 0-.37-.39 1 1 0 0 0-.56-.14 1 1 0 0 0-.57.14 1 1 0 0 0-.38.4 1 1 0 0 0-.13.6v.19a1 1 0 0 0 .15.62 1 1 0 0 0 .44.4 1.5 1.5 0 0 0 .67.15 2 2 0 0 0 .6-.1 2 2 0 0 0 .48-.31l.66.72a2 2 0 0 1-.74.51 3 3 0 0 1-1.03.17M.24 0v-4.3h1.19v1.22l-.17-.36a1.4 1.4 0 0 1 .62-.7 2 2 0 0 1 1.03-.23v1.15h-.28a1.2 1.2 0 0 0-.83.28 1.2 1.2 0 0 0-.32.9V0Zm5.5.06a3 3 0 0 1-1.28-.28 2 2 0 0 1-.86-.8 2 2 0 0 1-.3-1.13 2 2 0 0 1 .3-1.15 2 2 0 0 1 .82-.78 2.4 2.4 0 0 1 1.17-.29 2.4 2.4 0 0 1 1.14.27 2 2 0 0 1 .8.77 2.3 2.3 0 0 1 .3 1.2v.16q0 .1-.03.17H4.3v-.73h2.84l-.48.22a1 1 0 0 0-.13-.59 1 1 0 0 0-.37-.39 1 1 0 0 0-.56-.14 1 1 0 0 0-.57.14 1 1 0 0 0-.38.4 1 1 0 0 0-.13.6v.19a1 1 0 0 0 .15.62 1 1 0 0 0 .44.4 1.5 1.5 0 0 0 .67.15 2 2 0 0 0 .6-.1 2 2 0 0 0 .48-.31l.66.72a2 2 0 0 1-.74.51 3 3 0 0 1-1.03.17m4.94 1.56a5 5 0 0 1-1.17-.15 3 3 0 0 1-.94-.45l.5-.9a2 2 0 0 0 .69.36 3 3 0 0 0 .83.14 1.3 1.3 0 0 0 .96-.3 1.2 1.2 0 0 0 .3-.88v-.65l.08-1.08-.01-1.09v-.92h1.18v3.58a2.3 2.3 0 0 1-.62 1.77 2.6 2.6 0 0 1-1.8.57M10.5-.21a2 2 0 0 1-1.08-.26 2 2 0 0 1-.78-.73 2 2 0 0 1-.29-1.09 2 2 0 0 1 .3-1.1 2 2 0 0 1 .77-.72 2 2 0 0 1 1.08-.26 2 2 0 0 1 .96.22 1.5 1.5 0 0 1 .65.68 3 3 0 0 1 .23 1.18 3 3 0 0 1-.23 1.17 1.5 1.5 0 0 1-.65.69 2 2 0 0 1-.96.22m.25-1.02a1 1 0 0 0 .58-.13 1 1 0 0 0 .4-.38 1 1 0 0 0 .15-.55 1 1 0 0 0-.15-.55 1 1 0 0 0-.4-.37 1 1 0 0 0-.58-.13 1 1 0 0 0-.58.13 1 1 0 0 0-.4.37 1 1 0 0 0-.15.55 1 1 0 0 0 .15.55 1 1 0 0 0 .4.38 1 1 0 0 0 .58.13M14.26 0v-4.3h1.25V0Zm.62-4.9a.8.8 0 0 1-.56-.2.7.7 0 0 1-.21-.5.7.7 0 0 1 .21-.5.8.8 0 0 1 .56-.2.8.8 0 0 1 .56.19.6.6 0 0 1 .22.48.7.7 0 0 1-.21.52.8.8 0 0 1-.57.21M18.12.06a4 4 0 0 1-1.06-.13 3 3 0 0 1-.8-.33l.41-.9a3 3 0 0 0 .7.3 3 3 0 0 0 .8.12 1.3 1.3 0 0 0 .61-.1.3.3 0 0 0 .18-.3.3.3 0 0 0-.14-.22 1 1 0 0 0-.37-.12l-.5-.08-.57-.1a2 2 0 0 1-.51-.2 1 1 0 0 1-.37-.37 1 1 0 0 1-.14-.6 1.2 1.2 0 0 1 .23-.72 1.6 1.6 0 0 1 .69-.49 3 3 0 0 1 1.07-.18 4 4 0 0 1 .9.1 2 2 0 0 1 .76.28l-.42.89a2 2 0 0 0-.63-.25 3 3 0 0 0-.6-.07 1.3 1.3 0 0 0-.62.11.3.3 0 0 0-.19.29.3.3 0 0 0 .14.24 1 1 0 0 0 .37.13l.51.08.56.1a2 2 0 0 1 .5.2 1 1 0 0 1 .37.36 1 1 0 0 1 .14.6 1 1 0 0 1-.24.7 1.6 1.6 0 0 1-.69.5 3 3 0 0 1-1.1.16m4.56 0a1.7 1.7 0 0 1-1.19-.38 1.5 1.5 0 0 1-.42-1.16v-3.78h1.25v3.76a.6.6 0 0 0 .14.42.5.5 0 0 0 .4.15 1 1 0 0 0 .5-.16l.33.88a1 1 0 0 1-.46.2 2 2 0 0 1-.55.07m-2.28-3.3v-.97h2.98v.96Zm4 3.24v-4.3h1.2v1.22l-.18-.36a1.4 1.4 0 0 1 .62-.7 2 2 0 0 1 1.03-.23v1.15h-.28a1.2 1.2 0 0 0-.83.28 1.2 1.2 0 0 0-.32.91V0Zm4.11 1.62a2 2 0 0 1-.66-.1 2 2 0 0 1-.54-.3l.46-.88a1 1 0 0 0 .33.2 1 1 0 0 0 .37.07.7.7 0 0 0 .42-.12 1 1 0 0 0 .29-.41l.22-.54.1-.13 1.54-3.71h1.2L30.29.26a3 3 0 0 1-.47.82 1.5 1.5 0 0 1-.6.42 2 2 0 0 1-.71.12Zm.73-1.45L27.32-4.3h1.3L30.1-.7Z" transform="translate(281 398)"/><path id="Path_5656" fill="#195f8c" d="M-39.68 0v-5.6h1.3V0Zm5.15-4.37a2 2 0 0 1 .92.2 1.5 1.5 0 0 1 .63.63 2 2 0 0 1 .24 1.07V0H-34v-2.27a1 1 0 0 0-.23-.77.8.8 0 0 0-.64-.25 1 1 0 0 0-.54.13 1 1 0 0 0-.36.38 1.4 1.4 0 0 0-.14.65V0h-1.24v-4.3h1.19v1.2l-.23-.37a1.6 1.6 0 0 1 .67-.66 2 2 0 0 1 .98-.24m4.67 4.43a1.7 1.7 0 0 1-1.18-.38 1.5 1.5 0 0 1-.42-1.16v-3.78h1.24v3.76a.6.6 0 0 0 .15.42.5.5 0 0 0 .39.15 1 1 0 0 0 .5-.16l.34.88a1 1 0 0 1-.46.2 2 2 0 0 1-.56.07m-2.27-3.3v-.97h2.99v.96Zm4 3.24v-4.3h1.19v1.22l-.17-.36a1.4 1.4 0 0 1 .61-.69 2 2 0 0 1 1.04-.23v1.15l-.15-.01h-.13a1.2 1.2 0 0 0-.83.29 1.2 1.2 0 0 0-.32.9V0Zm5.26.06a2 2 0 0 1-.96-.2 1.5 1.5 0 0 1-.65-.64 2.3 2.3 0 0 1-.23-1.1V-4.3h1.25v2.25a1.2 1.2 0 0 0 .22.79.8.8 0 0 0 .65.25 1 1 0 0 0 .51-.13 1 1 0 0 0 .35-.38 2 2 0 0 0 .13-.65V-4.3h1.25V0h-1.19v-1.18l.22.34a1.5 1.5 0 0 1-.64.68 2 2 0 0 1-.91.22m5.13 0a4 4 0 0 1-1.06-.13 3 3 0 0 1-.8-.33l.42-.9a3 3 0 0 0 .7.3 3 3 0 0 0 .8.12 1.3 1.3 0 0 0 .6-.1.3.3 0 0 0 .19-.3.3.3 0 0 0-.14-.22 1 1 0 0 0-.37-.12l-.51-.08-.57-.1A2 2 0 0 1-19-2a1 1 0 0 1-.37-.37 1 1 0 0 1-.14-.6 1.2 1.2 0 0 1 .23-.72 1.6 1.6 0 0 1 .69-.49 3 3 0 0 1 1.07-.18 4 4 0 0 1 .9.1 2 2 0 0 1 .76.28l-.42.89a2 2 0 0 0-.63-.25 3 3 0 0 0-.6-.07 1.3 1.3 0 0 0-.62.11.3.3 0 0 0-.19.29.3.3 0 0 0 .14.24 1 1 0 0 0 .37.13l.51.08.56.1a2 2 0 0 1 .5.2 1 1 0 0 1 .38.37 1 1 0 0 1 .14.6 1 1 0 0 1-.24.7 1.6 1.6 0 0 1-.69.49 3 3 0 0 1-1.1.16m2.8-.06v-4.3h1.24V0Zm.62-4.9a.8.8 0 0 1-.56-.2.7.7 0 0 1-.22-.5.7.7 0 0 1 .22-.5.8.8 0 0 1 .56-.2.8.8 0 0 1 .56.19.6.6 0 0 1 .22.48.7.7 0 0 1-.22.52.8.8 0 0 1-.56.21M-10.5.06a2.5 2.5 0 0 1-1.22-.28 2 2 0 0 1-.84-.8 2 2 0 0 1-.3-1.13 2 2 0 0 1 .3-1.15 2 2 0 0 1 .84-.78 2.6 2.6 0 0 1 1.22-.29 2.6 2.6 0 0 1 1.22.29 2 2 0 0 1 .84.78 2 2 0 0 1 .3 1.15 2 2 0 0 1-.3 1.14 2 2 0 0 1-.84.79 2.5 2.5 0 0 1-1.22.28m0-1.02a1 1 0 0 0 .56-.14 1 1 0 0 0 .4-.42 1.3 1.3 0 0 0 .14-.63 1.3 1.3 0 0 0-.15-.64 1 1 0 0 0-.39-.41 1 1 0 0 0-.56-.14 1 1 0 0 0-.56.14 1 1 0 0 0-.4.4 1.3 1.3 0 0 0-.15.65 1.3 1.3 0 0 0 .15.63 1 1 0 0 0 .4.42 1 1 0 0 0 .56.14m5.81-3.4a2 2 0 0 1 .92.2 1.5 1.5 0 0 1 .63.62 2 2 0 0 1 .23 1.08V0h-1.24v-2.27a1 1 0 0 0-.23-.77.8.8 0 0 0-.65-.25 1 1 0 0 0-.53.13 1 1 0 0 0-.37.38 1.4 1.4 0 0 0-.13.65V0H-7.3v-4.3h1.2v1.2l-.22-.37a1.6 1.6 0 0 1 .66-.66 2 2 0 0 1 .98-.24M2.34.05a2 2 0 0 1-1.1-.27 2 2 0 0 1-.76-.77 2.3 2.3 0 0 1-.29-1.17 2.3 2.3 0 0 1 .29-1.18 2 2 0 0 1 .77-.77 2 2 0 0 1 1.1-.27 2 2 0 0 1 .95.24 1.6 1.6 0 0 1 .63.73 3 3 0 0 1 .23 1.24A3 3 0 0 1 3.94-.9a1.5 1.5 0 0 1-.62.73 2 2 0 0 1-.98.24m.22-1.02a1 1 0 0 0 .55-.14 1 1 0 0 0 .4-.41 1.3 1.3 0 0 0 .15-.64 1.3 1.3 0 0 0-.15-.64 1 1 0 0 0-.4-.4 1 1 0 0 0-.55-.15A1 1 0 0 0 2-3.2a1 1 0 0 0-.4.4 1.3 1.3 0 0 0-.15.65 1.3 1.3 0 0 0 .15.63 1 1 0 0 0 .4.42 1 1 0 0 0 .56.14M3.69 0v-.88l.02-1.28-.08-1.27v-2.5h1.25V0Zm4.48.06a3 3 0 0 1-1.3-.28 2 2 0 0 1-.85-.8 2 2 0 0 1-.3-1.13 2 2 0 0 1 .3-1.15 2 2 0 0 1 .82-.78A2.4 2.4 0 0 1 8-4.37a2.4 2.4 0 0 1 1.14.27 2 2 0 0 1 .8.77 2.3 2.3 0 0 1 .3 1.2v.16q0 .1-.02.17h-3.5v-.72h2.84l-.48.21a1 1 0 0 0-.14-.59 1 1 0 0 0-.37-.39 1 1 0 0 0-.56-.14 1 1 0 0 0-.57.14 1 1 0 0 0-.38.4 1 1 0 0 0-.13.6v.19a1 1 0 0 0 .15.62 1 1 0 0 0 .44.4 1.5 1.5 0 0 0 .67.15 2 2 0 0 0 .6-.1 2 2 0 0 0 .48-.31l.66.72a2 2 0 0 1-.74.5 3 3 0 0 1-1.03.18m4.67 0a1.7 1.7 0 0 1-1.18-.38 1.5 1.5 0 0 1-.43-1.16v-3.78h1.25v3.76a.6.6 0 0 0 .14.42.5.5 0 0 0 .4.15 1 1 0 0 0 .5-.16l.33.88a1 1 0 0 1-.46.2 2 2 0 0 1-.55.07m-2.27-3.3v-.97h2.98v.96Zm5.99 3.3a3 3 0 0 1-1.3-.28 2 2 0 0 1-.85-.8 2 2 0 0 1-.3-1.13 2 2 0 0 1 .29-1.15 2 2 0 0 1 .82-.78 2.4 2.4 0 0 1 1.18-.29 2.4 2.4 0 0 1 1.14.27 2 2 0 0 1 .8.77 2.3 2.3 0 0 1 .3 1.2v.16q0 .1-.02.17h-3.5v-.72h2.84l-.48.21a1 1 0 0 0-.14-.58 1 1 0 0 0-.38-.39 1 1 0 0 0-.56-.14 1 1 0 0 0-.56.14 1 1 0 0 0-.38.4 1 1 0 0 0-.14.6v.18a1 1 0 0 0 .16.62 1 1 0 0 0 .44.4 1.5 1.5 0 0 0 .67.15 2 2 0 0 0 .6-.1 2 2 0 0 0 .47-.31l.67.72a2 2 0 0 1-.75.51 3 3 0 0 1-1.02.17m5 0a3 3 0 0 1-1.25-.28 2 2 0 0 1-.85-.79 2 2 0 0 1-.3-1.14 2 2 0 0 1 .3-1.15 2 2 0 0 1 .85-.78 3 3 0 0 1 1.24-.29 2.4 2.4 0 0 1 1.19.29 1.7 1.7 0 0 1 .74.8l-.97.53a1 1 0 0 0-.42-.45 1 1 0 0 0-.55-.14 1 1 0 0 0-.57.14 1 1 0 0 0-.4.4 1.3 1.3 0 0 0-.15.65 1.3 1.3 0 0 0 .15.64 1 1 0 0 0 .4.4 1 1 0 0 0 .57.15 1 1 0 0 0 .55-.14 1 1 0 0 0 .42-.45l.97.53a1.7 1.7 0 0 1-.74.8 2.4 2.4 0 0 1-1.19.28m4.46 0a1.7 1.7 0 0 1-1.18-.38 1.5 1.5 0 0 1-.42-1.16v-3.78h1.24v3.76a.6.6 0 0 0 .15.42.5.5 0 0 0 .39.15 1 1 0 0 0 .5-.16l.34.88a1 1 0 0 1-.46.2 2 2 0 0 1-.56.07m-2.27-3.3v-.97h2.99v.96Zm4 3.24v-4.3h1.24V0Zm.62-4.9a.8.8 0 0 1-.56-.2.7.7 0 0 1-.22-.5.7.7 0 0 1 .22-.5.8.8 0 0 1 .56-.2.8.8 0 0 1 .56.19.6.6 0 0 1 .21.48.7.7 0 0 1-.2.52.8.8 0 0 1-.57.21M32.2.06a2.5 2.5 0 0 1-1.22-.28 2 2 0 0 1-.84-.8 2 2 0 0 1-.3-1.13 2 2 0 0 1 .3-1.15 2 2 0 0 1 .84-.78 2.6 2.6 0 0 1 1.22-.29 2.6 2.6 0 0 1 1.22.29 2 2 0 0 1 .84.78 2 2 0 0 1 .3 1.15 2 2 0 0 1-.3 1.14 2 2 0 0 1-.84.79 2.5 2.5 0 0 1-1.22.28m0-1.02a1 1 0 0 0 .56-.14 1 1 0 0 0 .4-.42 1.3 1.3 0 0 0 .14-.63 1.3 1.3 0 0 0-.15-.64 1 1 0 0 0-.39-.41 1 1 0 0 0-.56-.14 1 1 0 0 0-.56.14 1 1 0 0 0-.4.4 1.3 1.3 0 0 0-.15.65 1.3 1.3 0 0 0 .15.63 1 1 0 0 0 .4.42 1 1 0 0 0 .56.14m5.8-3.4a2 2 0 0 1 .92.2 1.5 1.5 0 0 1 .64.62 2 2 0 0 1 .23 1.07V0h-1.25v-2.27a1 1 0 0 0-.22-.77.8.8 0 0 0-.65-.25 1 1 0 0 0-.53.13 1 1 0 0 0-.37.38 1.4 1.4 0 0 0-.13.65V0h-1.25v-4.3h1.2v1.2l-.23-.37a1.6 1.6 0 0 1 .66-.66 2 2 0 0 1 .99-.24" transform="translate(386 398)"/><path id="Path_5655" fill="#195f8c" d="M-33.05 0v-5.6h1.3V0ZM-25-4.37a2 2 0 0 1 .9.2 1.5 1.5 0 0 1 .63.63 2 2 0 0 1 .23 1.07V0h-1.25v-2.27a1.2 1.2 0 0 0-.21-.77.8.8 0 0 0-.61-.25 1 1 0 0 0-.49.13 1 1 0 0 0-.34.37 2 2 0 0 0-.12.63V0h-1.24v-2.27a1.2 1.2 0 0 0-.22-.77.8.8 0 0 0-.6-.25 1 1 0 0 0-.48.13 1 1 0 0 0-.34.37 2 2 0 0 0-.12.63V0h-1.25v-4.3h1.2v1.18l-.23-.35a1.5 1.5 0 0 1 .64-.67 2 2 0 0 1 .94-.22 2 2 0 0 1 1.03.3 1.5 1.5 0 0 1 .59.91l-.44-.12a1.7 1.7 0 0 1 .7-.8 2 2 0 0 1 1.08-.3M-19.48 0v-.84l-.08-.18v-1.5a.8.8 0 0 0-.25-.63 1 1 0 0 0-.75-.22 2 2 0 0 0-.67.1 2 2 0 0 0-.57.3l-.44-.87a3 3 0 0 1 .84-.39 4 4 0 0 1 1.01-.13 2.3 2.3 0 0 1 1.53.46 1.8 1.8 0 0 1 .54 1.45V0Zm-1.32.06a2 2 0 0 1-.86-.17 1.3 1.3 0 0 1-.56-.47 1.2 1.2 0 0 1-.18-.66 1.2 1.2 0 0 1 .19-.67 1.2 1.2 0 0 1 .6-.45 3 3 0 0 1 1.06-.17h1.15v.73h-1.02a1 1 0 0 0-.6.14.5.5 0 0 0-.16.36.5.5 0 0 0 .18.38 1 1 0 0 0 .52.14 1 1 0 0 0 .56-.14 1 1 0 0 0 .36-.44l.19.58a1 1 0 0 1-.5.63 2 2 0 0 1-.93.21m5.66 1.56a5 5 0 0 1-1.16-.15 3 3 0 0 1-.94-.45l.5-.9a2 2 0 0 0 .7.36 3 3 0 0 0 .82.13 1.3 1.3 0 0 0 .96-.3 1.2 1.2 0 0 0 .3-.88v-.65l.08-1.08-.02-1.08v-.92h1.18v3.58a2.3 2.3 0 0 1-.62 1.77 2.6 2.6 0 0 1-1.8.57m-.19-1.83a2 2 0 0 1-1.08-.26 2 2 0 0 1-.78-.73 2 2 0 0 1-.29-1.09 2 2 0 0 1 .3-1.1 2 2 0 0 1 .77-.72 2 2 0 0 1 1.08-.26 2 2 0 0 1 .96.22 1.5 1.5 0 0 1 .65.68 3 3 0 0 1 .23 1.18 3 3 0 0 1-.23 1.17 1.5 1.5 0 0 1-.65.69 2 2 0 0 1-.95.22Zm.25-1.02a1 1 0 0 0 .58-.13 1 1 0 0 0 .4-.38 1 1 0 0 0 .15-.55 1 1 0 0 0-.15-.55 1 1 0 0 0-.4-.37 1 1 0 0 0-.58-.13 1 1 0 0 0-.58.13 1 1 0 0 0-.4.37 1 1 0 0 0-.15.55 1 1 0 0 0 .15.55 1 1 0 0 0 .4.38 1 1 0 0 0 .58.13m5.66 1.3a3 3 0 0 1-1.3-.3 2 2 0 0 1-.85-.78 2 2 0 0 1-.3-1.14 2 2 0 0 1 .3-1.15 2 2 0 0 1 .82-.78 2.4 2.4 0 0 1 1.17-.29 2.4 2.4 0 0 1 1.14.27 2 2 0 0 1 .8.77 2.3 2.3 0 0 1 .3 1.2v.16q0 .1-.02.17h-3.5v-.72h2.84l-.48.21a1 1 0 0 0-.14-.59A1 1 0 0 0-9-3.29a1 1 0 0 0-.56-.14 1 1 0 0 0-.57.14 1 1 0 0 0-.38.4 1 1 0 0 0-.13.6v.19a1 1 0 0 0 .15.62 1 1 0 0 0 .44.4 1.5 1.5 0 0 0 .67.15 2 2 0 0 0 .6-.1 2 2 0 0 0 .48-.31l.66.72a2 2 0 0 1-.74.51 3 3 0 0 1-1.03.17m6.62 0a4 4 0 0 1-1.06-.14 3 3 0 0 1-.8-.33l.42-.9a3 3 0 0 0 .7.3 3 3 0 0 0 .8.12 1.3 1.3 0 0 0 .6-.1.3.3 0 0 0 .19-.3.3.3 0 0 0-.15-.22 1 1 0 0 0-.37-.12l-.51-.08q-.28-.04-.55-.1a2 2 0 0 1-.51-.2 1 1 0 0 1-.38-.37 1 1 0 0 1-.14-.6 1.2 1.2 0 0 1 .24-.73 1.6 1.6 0 0 1 .68-.5 3 3 0 0 1 1.08-.17 4 4 0 0 1 .9.1A2 2 0 0 1-.9-4l-.42.89a2 2 0 0 0-.63-.26 3 3 0 0 0-.61-.06 1 1 0 0 0-.6.1.3.3 0 0 0-.2.3.3.3 0 0 0 .14.24 1 1 0 0 0 .37.12l.51.09.56.1a2 2 0 0 1 .5.2 1 1 0 0 1 .38.37 1 1 0 0 1 .14.6A1 1 0 0 1-1-.6a1.6 1.6 0 0 1-.7.49 3 3 0 0 1-1.1.17Zm4.88 0A3 3 0 0 1 .84-.23 2 2 0 0 1 0-1.01a2 2 0 0 1-.3-1.14A2 2 0 0 1 0-3.3a2 2 0 0 1 .85-.78 3 3 0 0 1 1.24-.29 2.4 2.4 0 0 1 1.19.29 1.7 1.7 0 0 1 .74.8l-.97.53a1 1 0 0 0-.42-.45 1 1 0 0 0-.54-.14 1 1 0 0 0-.58.14 1 1 0 0 0-.4.4 1.3 1.3 0 0 0-.15.65 1.3 1.3 0 0 0 .15.64 1 1 0 0 0 .4.4 1 1 0 0 0 .58.15 1 1 0 0 0 .54-.14 1 1 0 0 0 .42-.45l.97.53a1.7 1.7 0 0 1-.74.8 2.4 2.4 0 0 1-1.19.28M7.38 0v-.84l-.09-.18v-1.5a.8.8 0 0 0-.24-.63 1 1 0 0 0-.75-.23 2 2 0 0 0-.68.11 2 2 0 0 0-.56.3l-.45-.88a3 3 0 0 1 .85-.38 4 4 0 0 1 1-.14A2.3 2.3 0 0 1 8-3.9a1.8 1.8 0 0 1 .54 1.44V0ZM6.05.06A2 2 0 0 1 5.2-.1a1.3 1.3 0 0 1-.55-.47 1.2 1.2 0 0 1-.2-.66 1.2 1.2 0 0 1 .2-.67 1.2 1.2 0 0 1 .6-.45 3 3 0 0 1 1.05-.17h1.14v.73h-1a1 1 0 0 0-.6.14.5.5 0 0 0-.17.36.5.5 0 0 0 .19.38 1 1 0 0 0 .52.14 1 1 0 0 0 .56-.14 1 1 0 0 0 .36-.44l.19.58a1 1 0 0 1-.5.63 2 2 0 0 1-.93.21m6.22-4.43a2 2 0 0 1 .92.2 1.5 1.5 0 0 1 .64.63 2 2 0 0 1 .23 1.07V0h-1.25v-2.27a1 1 0 0 0-.23-.77.8.8 0 0 0-.64-.25 1 1 0 0 0-.53.13 1 1 0 0 0-.37.38 1.4 1.4 0 0 0-.13.65V0H9.67v-4.3h1.19v1.2l-.22-.37a1.6 1.6 0 0 1 .66-.66 2 2 0 0 1 .98-.24m5.53 0a2 2 0 0 1 .92.2 1.5 1.5 0 0 1 .63.63 2 2 0 0 1 .24 1.08V0h-1.25v-2.27a1 1 0 0 0-.23-.77.8.8 0 0 0-.64-.25 1 1 0 0 0-.54.13 1 1 0 0 0-.36.38 1.4 1.4 0 0 0-.14.65V0H15.2v-4.3h1.2v1.2l-.23-.37a1.6 1.6 0 0 1 .66-.66 2 2 0 0 1 .98-.24M20.72 0v-4.3h1.25V0Zm.63-4.9a.8.8 0 0 1-.56-.2.7.7 0 0 1-.22-.5.7.7 0 0 1 .22-.5.8.8 0 0 1 .56-.2.8.8 0 0 1 .56.19.6.6 0 0 1 .21.48.7.7 0 0 1-.2.52.8.8 0 0 1-.57.21m4.4.54a2 2 0 0 1 .91.2 1.5 1.5 0 0 1 .64.62 2 2 0 0 1 .23 1.08V0h-1.25v-2.27a1 1 0 0 0-.22-.77.8.8 0 0 0-.65-.25 1 1 0 0 0-.53.13 1 1 0 0 0-.37.38 1.4 1.4 0 0 0-.13.65V0h-1.25v-4.3h1.2v1.2l-.23-.37a1.6 1.6 0 0 1 .66-.66 2 2 0 0 1 .99-.24Zm4.97 5.98a5 5 0 0 1-1.18-.15 3 3 0 0 1-.94-.44l.5-.9a2 2 0 0 0 .7.35 3 3 0 0 0 .82.14 1.3 1.3 0 0 0 .97-.3 1.2 1.2 0 0 0 .3-.88v-.65l.08-1.08-.02-1.09v-.92h1.19v3.58a2.3 2.3 0 0 1-.63 1.77 2.6 2.6 0 0 1-1.8.57Zm-.2-1.83a2 2 0 0 1-1.08-.26 2 2 0 0 1-.78-.73 2 2 0 0 1-.29-1.09 2 2 0 0 1 .3-1.1 2 2 0 0 1 .77-.72 2 2 0 0 1 1.08-.26 2 2 0 0 1 .96.22 1.5 1.5 0 0 1 .65.68 3 3 0 0 1 .23 1.18 3 3 0 0 1-.23 1.17 1.5 1.5 0 0 1-.65.69 2 2 0 0 1-.96.22m.25-1.02a1 1 0 0 0 .59-.13 1 1 0 0 0 .4-.38 1 1 0 0 0 .14-.55 1 1 0 0 0-.14-.55 1 1 0 0 0-.4-.37 1 1 0 0 0-.59-.13 1 1 0 0 0-.58.13 1 1 0 0 0-.4.37 1 1 0 0 0-.15.55 1 1 0 0 0 .15.55 1 1 0 0 0 .4.38 1 1 0 0 0 .58.13" transform="translate(493 397)"/><path id="Path_5654" fill="#195f8c" d="m-10.35 0 2.5-5.6h1.28l2.5 5.6h-1.36l-2.05-4.94h.52L-9.02 0Zm1.25-1.2.34-.98h2.88l.36.98ZM-1.84.06a2 2 0 0 1-.95-.2 1.5 1.5 0 0 1-.65-.64 2.3 2.3 0 0 1-.24-1.1V-4.3h1.25v2.25a1.2 1.2 0 0 0 .23.79.8.8 0 0 0 .64.25 1 1 0 0 0 .52-.13 1 1 0 0 0 .35-.38 2 2 0 0 0 .13-.65V-4.3H.68V0H-.5v-1.18l.22.34a1.5 1.5 0 0 1-.64.68 2 2 0 0 1-.92.22m5.44 0a1.7 1.7 0 0 1-1.18-.38A1.5 1.5 0 0 1 2-1.48v-3.78h1.24v3.76a.6.6 0 0 0 .15.42.5.5 0 0 0 .39.15 1 1 0 0 0 .5-.16l.34.88a1 1 0 0 1-.46.2 2 2 0 0 1-.56.07m-2.27-3.3v-.97h2.99v.96Zm6.61-1.13a2 2 0 0 1 .92.2 1.5 1.5 0 0 1 .63.63 2 2 0 0 1 .23 1.07V0H8.48v-2.27a1 1 0 0 0-.23-.77.8.8 0 0 0-.65-.25 1 1 0 0 0-.53.13 1 1 0 0 0-.37.38 1.4 1.4 0 0 0-.13.65V0H5.32v-5.94h1.25v2.83l-.28-.36a1.6 1.6 0 0 1 .67-.67 2 2 0 0 1 .98-.23" transform="translate(271 429)"/><path id="Path_5653" fill="#195f8c" d="m-11.56 0 2.5-5.6h1.28l2.5 5.6h-1.36l-2.04-4.94h.5L-10.22 0Zm1.25-1.2.35-.98h2.88l.35.98ZM-3.04.06A2 2 0 0 1-4-.14a1.5 1.5 0 0 1-.65-.64 2.3 2.3 0 0 1-.23-1.1V-4.3h1.24v2.25a1.2 1.2 0 0 0 .23.79.8.8 0 0 0 .65.25 1 1 0 0 0 .5-.13 1 1 0 0 0 .36-.38 2 2 0 0 0 .13-.66V-4.3h1.25V0h-1.19v-1.18l.22.34a1.5 1.5 0 0 1-.64.68 2 2 0 0 1-.91.22m5.52 0a2 2 0 0 1-1.1-.27 2 2 0 0 1-.76-.77 2.3 2.3 0 0 1-.29-1.17 2.3 2.3 0 0 1 .29-1.18 2 2 0 0 1 .77-.77 2 2 0 0 1 1.1-.27 2 2 0 0 1 .95.24 1.6 1.6 0 0 1 .63.73 3 3 0 0 1 .23 1.24A3 3 0 0 1 4.08-.9a1.5 1.5 0 0 1-.62.73 2 2 0 0 1-.98.24M2.7-.96a1 1 0 0 0 .55-.14 1 1 0 0 0 .4-.41 1.3 1.3 0 0 0 .15-.64 1.3 1.3 0 0 0-.15-.64 1 1 0 0 0-.4-.41 1 1 0 0 0-.55-.14 1 1 0 0 0-.56.14 1 1 0 0 0-.4.4 1.3 1.3 0 0 0-.15.65 1.3 1.3 0 0 0 .15.63 1 1 0 0 0 .4.42 1 1 0 0 0 .56.14M3.83 0v-.88l.02-1.28-.08-1.27v-2.5h1.25V0Zm2.34 0v-4.3h1.25V0Zm.63-4.9a.8.8 0 0 1-.56-.2.7.7 0 0 1-.22-.5.7.7 0 0 1 .22-.5.8.8 0 0 1 .56-.2.8.8 0 0 1 .56.19.6.6 0 0 1 .22.48.7.7 0 0 1-.22.52.8.8 0 0 1-.56.21M10.34.06a1.7 1.7 0 0 1-1.18-.38 1.5 1.5 0 0 1-.43-1.16v-3.78h1.25v3.76a.6.6 0 0 0 .14.42.5.5 0 0 0 .4.15 1 1 0 0 0 .5-.16l.33.88a1 1 0 0 1-.46.2 2 2 0 0 1-.55.07m-2.27-3.3v-.97h2.98v.96Z" transform="translate(348 429)"/><path id="Path_5652" fill="#195f8c" d="M-11.3 0v-5.6h2.43a3 3 0 0 1 1.3.24 2 2 0 0 1 .84.7 2 2 0 0 1 .3 1.1 2 2 0 0 1-.3 1.07 2 2 0 0 1-.84.69 3 3 0 0 1-1.3.24h-1.7l.57-.57V0Zm3.57 0-1.4-2.03h1.38L-6.33 0ZM-10-1.98l-.58-.61h1.64a1.3 1.3 0 0 0 .9-.26 1 1 0 0 0 .3-.72 1 1 0 0 0-.3-.72 1.3 1.3 0 0 0-.9-.25h-1.63l.57-.62ZM-5.41 0v-5.6h2.73a2.6 2.6 0 0 1 1.6.4 1.3 1.3 0 0 1 .52 1.06 1.4 1.4 0 0 1-.21.76 1.4 1.4 0 0 1-.6.5 2 2 0 0 1-.86.18l.15-.33a2 2 0 0 1 .94.17 1.4 1.4 0 0 1 .64.5 1.4 1.4 0 0 1 .23.83A1.3 1.3 0 0 1-.84-.4a3 3 0 0 1-1.68.4Zm1.29-.98h1.5a1.5 1.5 0 0 0 .77-.16.6.6 0 0 0 .26-.52.6.6 0 0 0-.26-.53 1.4 1.4 0 0 0-.76-.17h-1.61v-.94h1.38a1.3 1.3 0 0 0 .73-.16.6.6 0 0 0 .25-.5.6.6 0 0 0-.25-.5 1.3 1.3 0 0 0-.73-.16h-1.28Zm4.1.98 2.5-5.6h1.27L6.25 0H4.9L2.84-4.94h.52L1.3 0Zm1.24-1.2.34-.98h2.88l.36.98ZM9.44.1a3 3 0 0 1-1.2-.21 3 3 0 0 1-.97-.6 3 3 0 0 1-.63-.92A3 3 0 0 1 6.4-2.8a3 3 0 0 1 .23-1.16 3 3 0 0 1 .64-.92 3 3 0 0 1 .96-.6 3 3 0 0 1 1.21-.22 3 3 0 0 1 1.32.25 2.6 2.6 0 0 1 .99.74l-.83.77a2 2 0 0 0-.64-.5 2 2 0 0 0-.77-.16 2 2 0 0 0-.72.13 2 2 0 0 0-.57.37 2 2 0 0 0-.37.57 2 2 0 0 0-.13.73 2 2 0 0 0 .13.72 2 2 0 0 0 .37.58 2 2 0 0 0 .57.37A2 2 0 0 0 9.5-1a2 2 0 0 0 .77-.17 2 2 0 0 0 .64-.5l.83.77a2.6 2.6 0 0 1-.99.74A3 3 0 0 1 9.44.1" transform="translate(426 429)"/><path id="Path_5651" fill="#195f8c" d="M-15.45 0v-5.6h2.43a3 3 0 0 1 1.3.24 2 2 0 0 1 .84.7 2 2 0 0 1 .3 1.1 2 2 0 0 1-.3 1.07 2 2 0 0 1-.84.7 3 3 0 0 1-1.3.25h-1.7l.57-.59V0Zm1.3-1.98-.57-.62h1.62a1.3 1.3 0 0 0 .9-.26 1 1 0 0 0 .3-.7 1 1 0 0 0-.3-.73 1.3 1.3 0 0 0-.9-.25h-1.63l.57-.62ZM-7.72.06a2.5 2.5 0 0 1-1.22-.28 2 2 0 0 1-.84-.8 2 2 0 0 1-.3-1.13 2 2 0 0 1 .3-1.15 2 2 0 0 1 .84-.78 2.6 2.6 0 0 1 1.22-.29 2.6 2.6 0 0 1 1.22.29 2 2 0 0 1 .84.78 2 2 0 0 1 .3 1.15 2 2 0 0 1-.3 1.14 2 2 0 0 1-.84.79 2.5 2.5 0 0 1-1.22.28m0-1.02a1 1 0 0 0 .56-.14 1 1 0 0 0 .4-.41 1.3 1.3 0 0 0 .14-.64 1.3 1.3 0 0 0-.15-.64 1 1 0 0 0-.39-.41 1 1 0 0 0-.56-.14 1 1 0 0 0-.56.14 1 1 0 0 0-.4.4 1.3 1.3 0 0 0-.15.65 1.3 1.3 0 0 0 .15.63 1 1 0 0 0 .4.42 1 1 0 0 0 .56.14m3.2.96v-5.94h1.24V0Zm2.4 0v-4.3h1.25V0Zm.62-4.9a.8.8 0 0 1-.56-.2.7.7 0 0 1-.22-.5.7.7 0 0 1 .22-.5.8.8 0 0 1 .56-.2.8.8 0 0 1 .56.19.6.6 0 0 1 .22.48.7.7 0 0 1-.22.52.8.8 0 0 1-.56.21M2.37.06a3 3 0 0 1-1.24-.28 2 2 0 0 1-.85-.79 2 2 0 0 1-.31-1.14 2 2 0 0 1 .3-1.15 2 2 0 0 1 .86-.78 3 3 0 0 1 1.24-.29 2.4 2.4 0 0 1 1.18.29 1.7 1.7 0 0 1 .75.8l-.97.53a1 1 0 0 0-.42-.45 1 1 0 0 0-.55-.14 1 1 0 0 0-.58.14 1 1 0 0 0-.4.4 1.3 1.3 0 0 0-.14.65 1.3 1.3 0 0 0 .14.64 1 1 0 0 0 .4.4 1 1 0 0 0 .58.15 1 1 0 0 0 .55-.14 1 1 0 0 0 .42-.45l.97.53a1.7 1.7 0 0 1-.75.8 2.4 2.4 0 0 1-1.18.28M4.98 0v-4.3h1.25V0Zm.63-4.9a.8.8 0 0 1-.56-.2.7.7 0 0 1-.22-.5.7.7 0 0 1 .22-.5.8.8 0 0 1 .56-.2.8.8 0 0 1 .56.19.6.6 0 0 1 .21.48.7.7 0 0 1-.2.52.8.8 0 0 1-.57.21M9.53.06a3 3 0 0 1-1.3-.28 2 2 0 0 1-.85-.8 2 2 0 0 1-.3-1.13 2 2 0 0 1 .3-1.15 2 2 0 0 1 .82-.78 2.4 2.4 0 0 1 1.17-.29 2.4 2.4 0 0 1 1.14.27 2 2 0 0 1 .8.77 2.3 2.3 0 0 1 .3 1.2v.16q0 .1-.02.17h-3.5v-.72h2.84l-.48.21a1 1 0 0 0-.14-.58 1 1 0 0 0-.37-.39 1 1 0 0 0-.56-.14 1 1 0 0 0-.57.14 1 1 0 0 0-.38.4 1 1 0 0 0-.13.6v.18a1 1 0 0 0 .15.62 1 1 0 0 0 .44.4 1.5 1.5 0 0 0 .67.15 2 2 0 0 0 .6-.1 2 2 0 0 0 .48-.31l.66.72a2 2 0 0 1-.74.51 3 3 0 0 1-1.03.17m4.36 0a4 4 0 0 1-1.06-.13 3 3 0 0 1-.8-.33l.41-.9a3 3 0 0 0 .7.3 3 3 0 0 0 .8.12 1.3 1.3 0 0 0 .62-.1.3.3 0 0 0 .18-.3.3.3 0 0 0-.14-.22 1 1 0 0 0-.38-.12l-.5-.08-.57-.1a2 2 0 0 1-.51-.2 1 1 0 0 1-.37-.37 1 1 0 0 1-.14-.6 1.2 1.2 0 0 1 .23-.72 1.6 1.6 0 0 1 .69-.49 3 3 0 0 1 1.07-.18 4 4 0 0 1 .9.1 2 2 0 0 1 .76.28l-.42.88a2 2 0 0 0-.63-.25 3 3 0 0 0-.61-.07 1 1 0 0 0-.6.11.3.3 0 0 0-.2.29.3.3 0 0 0 .14.24 1 1 0 0 0 .37.13q.23.05.51.08l.56.11a2 2 0 0 1 .5.2 1 1 0 0 1 .38.36 1 1 0 0 1 .14.6 1 1 0 0 1-.24.7 1.6 1.6 0 0 1-.7.5 3 3 0 0 1-1.1.16" transform="translate(504 428)"/><path id="Path_5650" fill="#3c9bcd" d="M-28.24 0v-2.57l.34.88-2.78-4.61h1.55L-27-2.76h-.9l2.14-3.54h1.43l-2.77 4.6.32-.87V0Zm6.19.07a3 3 0 0 1-1.38-.32 2.5 2.5 0 0 1-.94-.89 2.4 2.4 0 0 1-.35-1.28 2.4 2.4 0 0 1 .35-1.3 2.4 2.4 0 0 1 .94-.87 3 3 0 0 1 1.38-.32 3 3 0 0 1 1.36.32 2.4 2.4 0 0 1 .95.87 2.4 2.4 0 0 1 .34 1.3 2.4 2.4 0 0 1-.34 1.29 2.4 2.4 0 0 1-.95.88 3 3 0 0 1-1.36.32m0-1.15a1 1 0 0 0 .63-.16 1 1 0 0 0 .44-.47 1.5 1.5 0 0 0 .16-.71 1.5 1.5 0 0 0-.16-.72 1 1 0 0 0-.44-.46 1 1 0 0 0-.63-.16 1 1 0 0 0-.63.16 1 1 0 0 0-.45.46 1.5 1.5 0 0 0-.17.72 1.5 1.5 0 0 0 .17.71 1 1 0 0 0 .45.47 1 1 0 0 0 .63.16m5.63 1.15a2.4 2.4 0 0 1-1.08-.23 1.7 1.7 0 0 1-.73-.72 2.6 2.6 0 0 1-.26-1.23v-2.73h1.4v2.53a1.3 1.3 0 0 0 .25.88 1 1 0 0 0 .73.29 1 1 0 0 0 .57-.14 1 1 0 0 0 .4-.43 2 2 0 0 0 .15-.74v-2.4h1.4V0h-1.33v-1.33l.24.39a1.7 1.7 0 0 1-.72.75 2 2 0 0 1-1.02.26m4.14-.07v-4.84h1.34v1.37l-.19-.4a1.6 1.6 0 0 1 .7-.78 2.4 2.4 0 0 1 1.16-.27v1.3l-.17-.01h-.15a1.3 1.3 0 0 0-.93.33 1.3 1.3 0 0 0-.36 1.02V0Zm8.77.07a3 3 0 0 1-1.4-.32 2.4 2.4 0 0 1-.96-.88 2.4 2.4 0 0 1-.34-1.3 2.4 2.4 0 0 1 .34-1.28 2.4 2.4 0 0 1 .96-.88 3 3 0 0 1 1.4-.32 3 3 0 0 1 1.33.32 2 2 0 0 1 .84.9l-1.1.59a1.3 1.3 0 0 0-.47-.5 1 1 0 0 0-.61-.16 1.3 1.3 0 0 0-.65.16 1 1 0 0 0-.45.46 1.5 1.5 0 0 0-.17.72 1.5 1.5 0 0 0 .17.72 1 1 0 0 0 .45.46 1.3 1.3 0 0 0 .65.16 1.3 1.3 0 0 0 .61-.16 1.2 1.2 0 0 0 .48-.5l1.09.59a2 2 0 0 1-.84.9 3 3 0 0 1-1.33.32M-.57 0v-6.68h1.4V0Zm4.75.07a2.4 2.4 0 0 1-1.07-.23 1.7 1.7 0 0 1-.74-.72 2.6 2.6 0 0 1-.26-1.23v-2.73h1.4v2.53a1.3 1.3 0 0 0 .26.88 1 1 0 0 0 .72.29 1 1 0 0 0 .58-.14 1 1 0 0 0 .4-.43 2 2 0 0 0 .14-.74v-2.4h1.4V0H5.68v-1.33l.25.39a1.7 1.7 0 0 1-.72.75 2 2 0 0 1-1.03.26m5.77 0a5 5 0 0 1-1.2-.15 3 3 0 0 1-.9-.37l.47-1a3 3 0 0 0 .8.33 3 3 0 0 0 .9.13 1.5 1.5 0 0 0 .68-.12.4.4 0 0 0 .2-.32.3.3 0 0 0-.16-.26 1 1 0 0 0-.41-.13l-.58-.1q-.3-.04-.63-.11a2 2 0 0 1-.57-.23 1 1 0 0 1-.42-.41 1.3 1.3 0 0 1-.16-.68 1.3 1.3 0 0 1 .27-.8A2 2 0 0 1 9-4.72a3 3 0 0 1 1.2-.2 5 5 0 0 1 1.01.1 3 3 0 0 1 .86.32l-.47 1a2 2 0 0 0-.7-.28 3 3 0 0 0-.7-.08 1.4 1.4 0 0 0-.68.13.4.4 0 0 0-.21.32.3.3 0 0 0 .15.27 1 1 0 0 0 .42.14q.26.06.57.1l.63.12a2 2 0 0 1 .57.23 1 1 0 0 1 .42.4 1.2 1.2 0 0 1 .16.67 1.3 1.3 0 0 1-.27.8 2 2 0 0 1-.78.55 3 3 0 0 1-1.23.2m5.13 0a2 2 0 0 1-1.33-.43 1.7 1.7 0 0 1-.48-1.3v-4.25h1.4v4.23a.7.7 0 0 0 .16.47.6.6 0 0 0 .44.17 1 1 0 0 0 .57-.18l.38.99a2 2 0 0 1-.52.23 3 3 0 0 1-.62.07m-2.56-3.72v-1.08h3.36v1.08ZM19.27.07a3 3 0 0 1-1.46-.32 2.4 2.4 0 0 1-.97-.89 2.4 2.4 0 0 1-.34-1.28 2.5 2.5 0 0 1 .34-1.3 2.4 2.4 0 0 1 .92-.87 3 3 0 0 1 1.32-.32 3 3 0 0 1 1.29.3 2.3 2.3 0 0 1 .9.86 2.6 2.6 0 0 1 .33 1.35v.18q0 .1-.03.2h-3.93v-.82h3.2l-.54.24a1.4 1.4 0 0 0-.15-.66 1 1 0 0 0-.43-.43 1 1 0 0 0-.63-.16 1.3 1.3 0 0 0-.63.16 1 1 0 0 0-.43.44 1.4 1.4 0 0 0-.15.67v.21a1.4 1.4 0 0 0 .18.7 1 1 0 0 0 .5.46 2 2 0 0 0 .75.16 2 2 0 0 0 .68-.12 2 2 0 0 0 .53-.35l.75.81a2 2 0 0 1-.84.58 3 3 0 0 1-1.16.2M22.54 0v-4.84h1.34v1.37l-.19-.4a1.6 1.6 0 0 1 .7-.78 2.4 2.4 0 0 1 1.16-.27v1.3l-.16-.01h-.16a1.3 1.3 0 0 0-.93.33 1.3 1.3 0 0 0-.35 1.02V0Zm5.5.07a5 5 0 0 1-1.18-.15 3 3 0 0 1-.9-.37l.46-1a3 3 0 0 0 .8.33 3 3 0 0 0 .9.13 1.5 1.5 0 0 0 .68-.12.4.4 0 0 0 .2-.32.3.3 0 0 0-.16-.26 1 1 0 0 0-.42-.13l-.57-.1q-.3-.04-.63-.11a2 2 0 0 1-.58-.23 1 1 0 0 1-.41-.41 1.3 1.3 0 0 1-.16-.68 1.3 1.3 0 0 1 .26-.8 2 2 0 0 1 .77-.56 3 3 0 0 1 1.21-.2 5 5 0 0 1 1 .1 3 3 0 0 1 .86.32l-.47 1a2 2 0 0 0-.7-.28 3 3 0 0 0-.69-.08 1.4 1.4 0 0 0-.68.12.4.4 0 0 0-.22.33.3.3 0 0 0 .16.27 1 1 0 0 0 .42.14q.26.06.57.1l.62.12a2 2 0 0 1 .58.23 1 1 0 0 1 .41.4 1.2 1.2 0 0 1 .17.67 1.3 1.3 0 0 1-.27.8 2 2 0 0 1-.78.54 3 3 0 0 1-1.24.2" transform="translate(389 218)"/><path id="Path_5649" fill="#195f8c" d="M-34.26 0v-2.57l.33.88-2.77-4.61h1.55l2.12 3.54h-.89l2.14-3.54h1.43l-2.77 4.6.32-.87V0Zm6.18.07a3 3 0 0 1-1.37-.32 2.5 2.5 0 0 1-.94-.89 2.4 2.4 0 0 1-.35-1.28 2.4 2.4 0 0 1 .35-1.3 2.4 2.4 0 0 1 .94-.87 3 3 0 0 1 1.37-.32 3 3 0 0 1 1.37.32 2.4 2.4 0 0 1 .95.87 2.4 2.4 0 0 1 .34 1.3 2.4 2.4 0 0 1-.34 1.29 2.4 2.4 0 0 1-.95.88 3 3 0 0 1-1.36.32m0-1.15a1 1 0 0 0 .63-.16 1 1 0 0 0 .45-.47 1.5 1.5 0 0 0 .16-.71 1.5 1.5 0 0 0-.16-.72 1 1 0 0 0-.44-.46 1 1 0 0 0-.63-.16 1 1 0 0 0-.63.16 1 1 0 0 0-.45.46 1.5 1.5 0 0 0-.16.72 1.5 1.5 0 0 0 .16.71 1 1 0 0 0 .45.47 1 1 0 0 0 .63.16m5.64 1.15a2.4 2.4 0 0 1-1.08-.23 1.7 1.7 0 0 1-.73-.72 2.6 2.6 0 0 1-.26-1.23v-2.73h1.4v2.53a1.3 1.3 0 0 0 .26.88 1 1 0 0 0 .72.29 1 1 0 0 0 .58-.14 1 1 0 0 0 .4-.43 2 2 0 0 0 .14-.74v-2.4h1.4V0h-1.33v-1.33l.24.39a1.7 1.7 0 0 1-.71.75 2 2 0 0 1-1.03.26M-18.3 0v-4.84h1.34v1.37l-.19-.4a1.6 1.6 0 0 1 .7-.78 2.4 2.4 0 0 1 1.15-.26v1.3l-.16-.02h-.16a1.3 1.3 0 0 0-.93.33 1.3 1.3 0 0 0-.35 1.01V0Zm7.53 0-1.74-4.84h1.32l1.45 4.17h-.63l1.51-4.17h1.19L-6.2-.67h-.63l1.49-4.17h1.24L-5.85 0h-1.36L-8.5-3.57h.41L-9.42 0Zm9.5.07a3 3 0 0 1-1.38-.32 2.5 2.5 0 0 1-.94-.89 2.4 2.4 0 0 1-.35-1.28 2.4 2.4 0 0 1 .35-1.3 2.4 2.4 0 0 1 .94-.87 3 3 0 0 1 1.38-.32 3 3 0 0 1 1.36.32 2.4 2.4 0 0 1 .95.87 2.4 2.4 0 0 1 .34 1.3 2.4 2.4 0 0 1-.34 1.28 2.4 2.4 0 0 1-.94.89 3 3 0 0 1-1.37.32m0-1.15a1 1 0 0 0 .63-.16 1 1 0 0 0 .44-.47 1.5 1.5 0 0 0 .16-.71 1.5 1.5 0 0 0-.16-.72 1 1 0 0 0-.44-.46 1 1 0 0 0-.63-.16 1 1 0 0 0-.63.16 1 1 0 0 0-.44.46 1.5 1.5 0 0 0-.17.72 1.5 1.5 0 0 0 .17.71 1 1 0 0 0 .44.47 1 1 0 0 0 .63.16M2.32 0v-4.84h1.34v1.37l-.19-.4a1.6 1.6 0 0 1 .7-.78 2.4 2.4 0 0 1 1.15-.27v1.3l-.16-.01h-.15a1.3 1.3 0 0 0-.93.33 1.3 1.3 0 0 0-.36 1.02V0Zm5-.99.04-1.71 2.26-2.14h1.67l-2.17 2.2-.73.6ZM6.16 0v-6.68h1.4V0Zm3.61 0L8.13-2.03l.88-1.1L11.47 0Zm2.33 0v-6.68h1.4V0Zm5.01.07a3 3 0 0 1-1.37-.32 2.5 2.5 0 0 1-.94-.89 2.4 2.4 0 0 1-.35-1.28 2.4 2.4 0 0 1 .35-1.3 2.4 2.4 0 0 1 .95-.87 3 3 0 0 1 1.37-.32 3 3 0 0 1 1.37.32 2.4 2.4 0 0 1 .94.87 2.4 2.4 0 0 1 .34 1.3 2.4 2.4 0 0 1-.34 1.29 2.4 2.4 0 0 1-.94.88 3 3 0 0 1-1.38.32m0-1.15a1 1 0 0 0 .63-.16 1 1 0 0 0 .44-.47 1.5 1.5 0 0 0 .17-.71 1.5 1.5 0 0 0-.17-.72 1 1 0 0 0-.44-.46 1 1 0 0 0-.63-.16 1 1 0 0 0-.63.16 1 1 0 0 0-.44.46 1.5 1.5 0 0 0-.17.72 1.5 1.5 0 0 0 .17.71 1 1 0 0 0 .44.47 1 1 0 0 0 .63.16M23.6 0v-.94l-.09-.21v-1.7a1 1 0 0 0-.27-.7 1.2 1.2 0 0 0-.84-.25 2 2 0 0 0-.76.13 2 2 0 0 0-.64.32l-.5-.98a3 3 0 0 1 .96-.43 4 4 0 0 1 1.13-.15 2.6 2.6 0 0 1 1.72.52 2 2 0 0 1 .61 1.63V0Zm-1.47.07a2 2 0 0 1-.97-.2 1.5 1.5 0 0 1-.63-.52 1.3 1.3 0 0 1-.21-.75 1.4 1.4 0 0 1 .21-.75 1.4 1.4 0 0 1 .67-.51 3 3 0 0 1 1.2-.18h1.29v.81h-1.14a1 1 0 0 0-.68.17.5.5 0 0 0-.18.4.5.5 0 0 0 .2.43 1 1 0 0 0 .59.16 1 1 0 0 0 .63-.17 1 1 0 0 0 .4-.49l.21.65a1.3 1.3 0 0 1-.55.7 2 2 0 0 1-1.04.25m6.17 0a2.5 2.5 0 0 1-1.23-.3 2.3 2.3 0 0 1-.87-.88 2.6 2.6 0 0 1-.32-1.31 2.6 2.6 0 0 1 .32-1.32 2.3 2.3 0 0 1 .87-.87 2.5 2.5 0 0 1 1.23-.3 2 2 0 0 1 1.07.27 2 2 0 0 1 .71.81 3 3 0 0 1 .26 1.4 4 4 0 0 1-.25 1.4 1.7 1.7 0 0 1-.7.83 2 2 0 0 1-1.09.27m.24-1.15a1 1 0 0 0 .63-.16 1 1 0 0 0 .44-.47 1.5 1.5 0 0 0 .17-.71 1.5 1.5 0 0 0-.17-.72 1 1 0 0 0-.44-.46 1 1 0 0 0-.63-.16 1 1 0 0 0-.63.16 1 1 0 0 0-.44.46 1.5 1.5 0 0 0-.17.72 1.5 1.5 0 0 0 .17.71 1 1 0 0 0 .44.47 1 1 0 0 0 .64.16M29.8 0v-.99l.03-1.44-.1-1.43v-2.82h1.4V0Zm4.27.07a5 5 0 0 1-1.2-.15 3 3 0 0 1-.9-.37l.47-1a3 3 0 0 0 .79.33 3 3 0 0 0 .9.13 1.5 1.5 0 0 0 .69-.12.4.4 0 0 0 .2-.32.3.3 0 0 0-.16-.26 1 1 0 0 0-.42-.13l-.57-.1q-.31-.04-.62-.11a2 2 0 0 1-.58-.23 1 1 0 0 1-.42-.42 1.3 1.3 0 0 1-.16-.67 1.3 1.3 0 0 1 .27-.81 2 2 0 0 1 .77-.56 3 3 0 0 1 1.2-.2 5 5 0 0 1 1.01.11 3 3 0 0 1 .86.32l-.47 1a2 2 0 0 0-.7-.29 3 3 0 0 0-.7-.07 1.4 1.4 0 0 0-.68.12.4.4 0 0 0-.22.33.3.3 0 0 0 .16.27 1 1 0 0 0 .42.14q.26.06.57.1l.63.12a2 2 0 0 1 .57.23 1 1 0 0 1 .42.4 1.2 1.2 0 0 1 .16.67 1.3 1.3 0 0 1-.27.8 2 2 0 0 1-.78.54 3 3 0 0 1-1.24.2" transform="translate(389 244)"/></g></g></svg>