<svg xmlns="http://www.w3.org/2000/svg" xmlns:xlink="http://www.w3.org/1999/xlink" width="432" height="285" viewBox="0 0 432 285">
  <defs>
    <filter id="Rectangle_3" x="144" y="0" width="144" height="144" filterUnits="userSpaceOnUse">
      <feOffset dy="3" input="SourceAlpha"/>
      <feGaussianBlur stdDeviation="3" result="blur"/>
      <feFlood flood-opacity="0.161"/>
      <feComposite operator="in" in2="blur"/>
      <feComposite in="SourceGraphic"/>
    </filter>
    <filter id="Rectangle_11" x="288" y="141" width="144" height="144" filterUnits="userSpaceOnUse">
      <feOffset dy="3" input="SourceAlpha"/>
      <feGaussianBlur stdDeviation="3" result="blur-2"/>
      <feFlood flood-opacity="0.161"/>
      <feComposite operator="in" in2="blur-2"/>
      <feComposite in="SourceGraphic"/>
    </filter>
    <filter id="Rectangle_9" x="144" y="141" width="144" height="144" filterUnits="userSpaceOnUse">
      <feOffset dy="3" input="SourceAlpha"/>
      <feGaussianBlur stdDeviation="3" result="blur-3"/>
      <feFlood flood-opacity="0.161"/>
      <feComposite operator="in" in2="blur-3"/>
      <feComposite in="SourceGraphic"/>
    </filter>
    <filter id="Rectangle_7" x="0" y="141" width="144" height="144" filterUnits="userSpaceOnUse">
      <feOffset dy="3" input="SourceAlpha"/>
      <feGaussianBlur stdDeviation="3" result="blur-4"/>
      <feFlood flood-opacity="0.161"/>
      <feComposite operator="in" in2="blur-4"/>
      <feComposite in="SourceGraphic"/>
    </filter>
    <filter id="Rectangle_1" x="0" y="0" width="144" height="144" filterUnits="userSpaceOnUse">
      <feOffset dy="3" input="SourceAlpha"/>
      <feGaussianBlur stdDeviation="3" result="blur-5"/>
      <feFlood flood-opacity="0.161"/>
      <feComposite operator="in" in2="blur-5"/>
      <feComposite in="SourceGraphic"/>
    </filter>
    <filter id="Rectangle_5" x="288" y="0" width="144" height="144" filterUnits="userSpaceOnUse">
      <feOffset dy="3" input="SourceAlpha"/>
      <feGaussianBlur stdDeviation="3" result="blur-6"/>
      <feFlood flood-opacity="0.161"/>
      <feComposite operator="in" in2="blur-6"/>
      <feComposite in="SourceGraphic"/>
    </filter>
  </defs>
  <g id="Key_features" data-name="Key features" transform="translate(-374 -174)">
    <g id="box">
      <g transform="matrix(1, 0, 0, 1, 374, 174)" filter="url(#Rectangle_3)">
        <rect id="Rectangle_3-2" data-name="Rectangle 3" width="126" height="126" rx="7" transform="translate(153 6)" fill="#fff"/>
      </g>
      <g transform="matrix(1, 0, 0, 1, 374, 174)" filter="url(#Rectangle_11)">
        <rect id="Rectangle_11-2" data-name="Rectangle 11" width="126" height="126" rx="7" transform="translate(297 147)" fill="#fff"/>
      </g>
      <g transform="matrix(1, 0, 0, 1, 374, 174)" filter="url(#Rectangle_9)">
        <rect id="Rectangle_9-2" data-name="Rectangle 9" width="126" height="126" rx="7" transform="translate(153 147)" fill="#fff"/>
      </g>
      <g transform="matrix(1, 0, 0, 1, 374, 174)" filter="url(#Rectangle_7)">
        <rect id="Rectangle_7-2" data-name="Rectangle 7" width="126" height="126" rx="7" transform="translate(9 147)" fill="#fff"/>
      </g>
      <g transform="matrix(1, 0, 0, 1, 374, 174)" filter="url(#Rectangle_1)">
        <rect id="Rectangle_1-2" data-name="Rectangle 1" width="126" height="126" rx="7" transform="translate(9 6)" fill="#fff"/>
      </g>
      <g transform="matrix(1, 0, 0, 1, 374, 174)" filter="url(#Rectangle_5)">
        <rect id="Rectangle_5-2" data-name="Rectangle 5" width="126" height="126" rx="7" transform="translate(297 6)" fill="#fff"/>
      </g>
    </g>
    <g id="text">
      <g id="ikoner">
        <path id="user-lock-solid" d="M17.85,20.4A10.2,10.2,0,1,0,7.65,10.2a10.2,10.2,0,0,0,10.2,10.2Zm7.65,5.1a5.027,5.027,0,0,1,.645-2.43,10.906,10.906,0,0,0-1.155-.12H23.659a13.872,13.872,0,0,1-11.618,0H10.71A10.712,10.712,0,0,0,0,33.658v3.317A3.825,3.825,0,0,0,3.825,40.8H26.209a5.063,5.063,0,0,1-.709-2.55Zm22.95-2.55H45.9V16.575a6.375,6.375,0,1,0-12.75,0V22.95H30.6a2.55,2.55,0,0,0-2.55,2.55V38.25A2.55,2.55,0,0,0,30.6,40.8H48.45A2.55,2.55,0,0,0,51,38.25V25.5A2.55,2.55,0,0,0,48.45,22.95ZM39.525,34.425a2.55,2.55,0,1,1,2.55-2.55A2.55,2.55,0,0,1,39.525,34.425Zm2.55-11.475h-5.1V16.575a2.55,2.55,0,0,1,5.1,0Z" transform="translate(421.5 204.094)" fill="#32cd32"/>
        <path id="code-solid" d="M27.761,50.987l-6.077-1.763a1.2,1.2,0,0,1-.817-1.484L34.465.9A1.2,1.2,0,0,1,35.949.083l6.077,1.763a1.2,1.2,0,0,1,.817,1.484l-13.6,46.84A1.194,1.194,0,0,1,27.761,50.987ZM16.4,39.81l4.333-4.622a1.2,1.2,0,0,0-.08-1.713l-9.025-7.939L20.658,17.6a1.187,1.187,0,0,0,.08-1.713L16.4,11.26a1.2,1.2,0,0,0-1.693-.05L.356,24.659a1.188,1.188,0,0,0,0,1.743L14.711,39.86a1.188,1.188,0,0,0,1.693-.05ZM49,39.87,63.354,26.412a1.188,1.188,0,0,0,0-1.743L49,11.2a1.206,1.206,0,0,0-1.693.05l-4.333,4.622a1.2,1.2,0,0,0,.08,1.713l9.025,7.949-9.025,7.939a1.187,1.187,0,0,0-.08,1.713l4.333,4.622A1.2,1.2,0,0,0,49,39.87Z" transform="translate(699.645 340.963)" fill="#32cd32"/>
        <path id="lock-solid-2" d="M13.555,13.555v4.518H28.616V13.555a7.531,7.531,0,0,0-15.061,0ZM7.531,18.073V13.555a13.555,13.555,0,0,1,27.11,0v4.518h1.506A6.03,6.03,0,0,1,42.171,24.1V42.171A6.03,6.03,0,0,1,36.146,48.2H6.024A6.03,6.03,0,0,1,0,42.171V24.1a6.03,6.03,0,0,1,6.024-6.024Z" transform="translate(569 200.396)" fill="#006190"/>
        <path id="Path_5590" data-name="Path 5590" d="M-9.834,0V-15.4H-6.27V0Zm7.216,0V-15.4H4.048a8.659,8.659,0,0,1,3.564.671A5.219,5.219,0,0,1,9.922-12.8a5.374,5.374,0,0,1,.814,2.992,5.333,5.333,0,0,1-.814,2.97,5.219,5.219,0,0,1-2.31,1.925,8.659,8.659,0,0,1-3.564.671H-.638L.946-5.852V0ZM.946-5.456-.638-7.15H3.85a3.687,3.687,0,0,0,2.464-.7,2.451,2.451,0,0,0,.814-1.958,2.477,2.477,0,0,0-.814-1.98,3.687,3.687,0,0,0-2.464-.7H-.638L.946-14.19Z" transform="translate(591 242)" fill="#fff" opacity="0.793"/>
        <path id="network-wired-solid" d="M21.75,5.438H32.625v5.438H21.75ZM20.391,0a4.079,4.079,0,0,0-4.078,4.078v8.156a4.079,4.079,0,0,0,4.078,4.078h4.078v2.719H2.719a2.719,2.719,0,0,0,0,5.438h8.156v2.719H6.8a4.079,4.079,0,0,0-4.078,4.078v8.156A4.079,4.079,0,0,0,6.8,43.5H20.391a4.079,4.079,0,0,0,4.078-4.078V31.266a4.079,4.079,0,0,0-4.078-4.078H16.313V24.469h21.75v2.719H33.984a4.079,4.079,0,0,0-4.078,4.078v8.156A4.079,4.079,0,0,0,33.984,43.5H47.578a4.079,4.079,0,0,0,4.078-4.078V31.266a4.079,4.079,0,0,0-4.078-4.078H43.5V24.469h8.156a2.719,2.719,0,0,0,0-5.437H29.906V16.313h4.078a4.079,4.079,0,0,0,4.078-4.078V4.078A4.079,4.079,0,0,0,33.984,0ZM8.156,38.063V32.625H19.031v5.438Zm27.188-5.437H46.219v5.438H35.344Z" transform="translate(562.898 344.75)" fill="#fa690f"/>
        <path id="Path_5589" data-name="Path 5589" d="M-41.685,0V-23.59h5.915l5.5,9.765q1.155,2.065,2.012,3.868a26.711,26.711,0,0,1,1.1,2.538l.28.77a56.715,56.715,0,0,1-.35-7.175V-23.59h5.39V0h-5.915L-33.39-9.765q-1.12-1.89-1.978-3.727T-36.54-16.2l-.28-.875a44.974,44.974,0,0,1,.525,7.315V0ZM-.315-23.59-8.26,0h-5.95l-7.84-23.59h5.81l2.835,9.415q.77,2.52,1.33,4.848t.735,3.377l.175,1.085a70.843,70.843,0,0,1,2.275-9.31l2.835-9.415ZM-1.05,0,.98-23.59H6.9l3.29,8.54q.84,2.135,1.435,3.92t.77,2.52l.175.7a62.545,62.545,0,0,1,2.45-7.14l3.325-8.54h5.915L26.7,0h-5.39L20.44-9.135l-.455-6.9q-.91,2.625-2.52,6.9L14.14-.245H10.955l-3.29-8.89Q6.86-11.305,6.3-13.02T5.565-15.4l-.175-.63q0,2.485-.315,6.9L4.34,0ZM37.66-10.5v-.42q-.245-3.115-2.73-3.115a3.07,3.07,0,0,0-2.17.892A4.655,4.655,0,0,0,31.5-10.5Zm3.675,5.215v4.27A10.33,10.33,0,0,1,35.77.175a8.985,8.985,0,0,1-6.808-2.538A9.044,9.044,0,0,1,26.53-8.89a9.041,9.041,0,0,1,2.362-6.632,7.859,7.859,0,0,1,5.828-2.4,7.578,7.578,0,0,1,5.635,2.083q2.065,2.082,2.065,6.212a22.762,22.762,0,0,1-.28,2.765H31.71a4.3,4.3,0,0,0,1.82,2.275,5.784,5.784,0,0,0,3.115.8A7.568,7.568,0,0,0,41.335-5.285Z" transform="translate(734 246)" fill="#3c9bcd"/>
      </g>
      <path id="Path_5597" data-name="Path 5597" d="M-40.04-4.18h3.37v1.26h-3.37Zm.12,2.88h3.81V0h-5.42V-7h5.29v1.3h-3.68Zm5.1,1.3V-7h1.62v5.68h3.51V0Zm5.16,0,3.12-7h1.6l3.13,7h-1.7l-2.56-6.18h.64L-28,0Zm1.56-1.5.43-1.23h3.6l.44,1.23ZM-18.78.12A5.711,5.711,0,0,1-20.39-.1,3.767,3.767,0,0,1-21.63-.69l.55-1.22a4.018,4.018,0,0,0,1.065.525,3.914,3.914,0,0,0,1.245.2,2.593,2.593,0,0,0,.775-.095.907.907,0,0,0,.435-.265.6.6,0,0,0,.14-.39.527.527,0,0,0-.22-.445,1.806,1.806,0,0,0-.58-.27q-.36-.1-.8-.2t-.87-.235a3.68,3.68,0,0,1-.8-.36,1.769,1.769,0,0,1-.585-.58,1.71,1.71,0,0,1-.225-.92,1.953,1.953,0,0,1,.325-1.095,2.223,2.223,0,0,1,.98-.79,4.012,4.012,0,0,1,1.645-.3,5.5,5.5,0,0,1,1.3.155,3.746,3.746,0,0,1,1.13.465l-.5,1.23a4.255,4.255,0,0,0-.98-.415,3.6,3.6,0,0,0-.96-.135,2.271,2.271,0,0,0-.77.11.908.908,0,0,0-.43.285.661.661,0,0,0-.13.405.518.518,0,0,0,.22.435,1.737,1.737,0,0,0,.58.265q.36.1.8.2t.87.23a3.364,3.364,0,0,1,.8.35,1.769,1.769,0,0,1,.585.58,1.689,1.689,0,0,1,.225.91,1.892,1.892,0,0,1-.33,1.08,2.305,2.305,0,0,1-.985.79A3.982,3.982,0,0,1-18.78.12ZM-13.35,0V-5.68h-2.24V-7h6.1v1.32h-2.24V0Zm4.73,0V-7H-7V0Zm6.63.12A4.189,4.189,0,0,1-3.5-.145,3.535,3.535,0,0,1-4.7-.9a3.5,3.5,0,0,1-.8-1.15A3.619,3.619,0,0,1-5.78-3.5,3.619,3.619,0,0,1-5.5-4.95,3.468,3.468,0,0,1-4.7-6.1,3.6,3.6,0,0,1-3.49-6.855,4.178,4.178,0,0,1-1.98-7.12,4.136,4.136,0,0,1-.335-6.8,3.2,3.2,0,0,1,.9-5.88l-1.04.96a2.434,2.434,0,0,0-.8-.615,2.245,2.245,0,0,0-.96-.2,2.455,2.455,0,0,0-.9.16,2.04,2.04,0,0,0-.71.46,2.1,2.1,0,0,0-.465.71,2.417,2.417,0,0,0-.165.91,2.417,2.417,0,0,0,.165.91,2.1,2.1,0,0,0,.465.71,2.04,2.04,0,0,0,.71.46,2.455,2.455,0,0,0,.9.16,2.245,2.245,0,0,0,.96-.205,2.381,2.381,0,0,0,.8-.625L.9-1.13A3.25,3.25,0,0,1-.335-.2,4.106,4.106,0,0,1-1.99.12ZM4.82,0V-7H6.44V0ZM8.1,0V-7h3.03a3.936,3.936,0,0,1,1.62.305,2.372,2.372,0,0,1,1.05.875,2.443,2.443,0,0,1,.37,1.36,2.424,2.424,0,0,1-.37,1.35,2.372,2.372,0,0,1-1.05.875,3.936,3.936,0,0,1-1.62.3H9l.72-.73V0ZM9.72-2.48,9-3.25h2.04a1.676,1.676,0,0,0,1.12-.32,1.114,1.114,0,0,0,.37-.89,1.126,1.126,0,0,0-.37-.9,1.676,1.676,0,0,0-1.12-.32H9l.72-.77ZM19.75-3.85h3.36v1.3H19.75ZM19.87,0H18.25V-7h5.29v1.3H19.87Zm8.1.12a4.257,4.257,0,0,1-1.535-.27,3.632,3.632,0,0,1-1.22-.76,3.468,3.468,0,0,1-.8-1.15A3.594,3.594,0,0,1,24.13-3.5a3.594,3.594,0,0,1,.285-1.44,3.434,3.434,0,0,1,.805-1.15,3.7,3.7,0,0,1,1.22-.76,4.188,4.188,0,0,1,1.52-.27,4.177,4.177,0,0,1,1.525.27,3.654,3.654,0,0,1,1.21.76A3.546,3.546,0,0,1,31.5-4.945,3.53,3.53,0,0,1,31.79-3.5a3.575,3.575,0,0,1-.29,1.445A3.462,3.462,0,0,1,30.695-.9a3.7,3.7,0,0,1-1.21.755A4.149,4.149,0,0,1,27.97.12Zm-.01-1.38a2.283,2.283,0,0,0,.865-.16,2.074,2.074,0,0,0,.7-.46,2.1,2.1,0,0,0,.465-.71,2.417,2.417,0,0,0,.165-.91,2.417,2.417,0,0,0-.165-.91,2.139,2.139,0,0,0-.46-.71,2.01,2.01,0,0,0-.695-.46,2.321,2.321,0,0,0-.87-.16,2.283,2.283,0,0,0-.865.16,2.074,2.074,0,0,0-.695.46,2.1,2.1,0,0,0-.465.71,2.417,2.417,0,0,0-.165.91,2.428,2.428,0,0,0,.165.9,2.128,2.128,0,0,0,.46.715,2.01,2.01,0,0,0,.695.46A2.321,2.321,0,0,0,27.96-1.26Zm1.01-6.36a.685.685,0,0,1-.49-.19.658.658,0,0,1-.2-.5.658.658,0,0,1,.2-.5A.685.685,0,0,1,28.97-9a.7.7,0,0,1,.5.19.65.65,0,0,1,.2.5.65.65,0,0,1-.2.5A.7.7,0,0,1,28.97-7.62Zm-2.02,0a.7.7,0,0,1-.495-.19.65.65,0,0,1-.2-.5.65.65,0,0,1,.2-.5A.7.7,0,0,1,26.95-9a.685.685,0,0,1,.49.19.658.658,0,0,1,.2.5.658.658,0,0,1-.2.5A.685.685,0,0,1,26.95-7.62ZM33.01,0V-7h3.03a3.936,3.936,0,0,1,1.62.305,2.372,2.372,0,0,1,1.05.875,2.443,2.443,0,0,1,.37,1.36,2.4,2.4,0,0,1-.37,1.345,2.353,2.353,0,0,1-1.05.865,3.993,3.993,0,0,1-1.62.3H33.91l.72-.71V0Zm4.45,0L35.71-2.54h1.73L39.21,0ZM34.63-2.48l-.72-.76h2.04a1.658,1.658,0,0,0,1.12-.325,1.129,1.129,0,0,0,.37-.895,1.126,1.126,0,0,0-.37-.9,1.676,1.676,0,0,0-1.12-.32H33.91l.72-.77ZM-51.915,13V6h1.62v5.68h3.51V13Zm5.16,0,3.12-7h1.6l3.13,7h-1.7l-2.56-6.18h.64L-45.1,13Zm1.56-1.5.43-1.23h3.6l.44,1.23Zm9.32,1.62a5.711,5.711,0,0,1-1.61-.225,3.767,3.767,0,0,1-1.24-.585l.55-1.22a4.018,4.018,0,0,0,1.065.525,3.914,3.914,0,0,0,1.245.2,2.593,2.593,0,0,0,.775-.095.907.907,0,0,0,.435-.265.6.6,0,0,0,.14-.39.527.527,0,0,0-.22-.445,1.806,1.806,0,0,0-.58-.27q-.36-.1-.795-.2t-.87-.235a3.68,3.68,0,0,1-.8-.36,1.769,1.769,0,0,1-.585-.58,1.71,1.71,0,0,1-.225-.92,1.953,1.953,0,0,1,.325-1.095,2.223,2.223,0,0,1,.98-.79,4.012,4.012,0,0,1,1.645-.3,5.5,5.5,0,0,1,1.3.155A3.746,3.746,0,0,1-33.2,6.5l-.5,1.23a4.255,4.255,0,0,0-.98-.415,3.6,3.6,0,0,0-.96-.135,2.271,2.271,0,0,0-.77.11.908.908,0,0,0-.43.285.661.661,0,0,0-.13.405.518.518,0,0,0,.22.435,1.737,1.737,0,0,0,.58.265q.36.1.795.2t.87.23a3.364,3.364,0,0,1,.8.35,1.769,1.769,0,0,1,.585.58,1.689,1.689,0,0,1,.225.91,1.892,1.892,0,0,1-.33,1.08,2.305,2.305,0,0,1-.985.79A3.982,3.982,0,0,1-35.875,13.12Zm5.43-.12V7.32h-2.24V6h6.1V7.32h-2.24V13Zm4.73,0V6h3.42a3.281,3.281,0,0,1,1.985.5,1.573,1.573,0,0,1,.665,1.32,1.681,1.681,0,0,1-.27.955,1.768,1.768,0,0,1-.74.625,2.52,2.52,0,0,1-1.08.22l.19-.41a2.99,2.99,0,0,1,1.17.215,1.759,1.759,0,0,1,.8.635,1.792,1.792,0,0,1,.285,1.03,1.628,1.628,0,0,1-.71,1.4,3.6,3.6,0,0,1-2.09.505Zm1.61-1.22h1.89a1.807,1.807,0,0,0,.955-.2.717.717,0,0,0,.325-.655.731.731,0,0,0-.325-.655,1.739,1.739,0,0,0-.955-.215h-2.01V8.87h1.73a1.661,1.661,0,0,0,.905-.2.694.694,0,0,0,.315-.625.685.685,0,0,0-.315-.615,1.661,1.661,0,0,0-.905-.205H-24.1Zm5.12,1.22,3.12-7h1.6l3.13,7h-1.7L-15.4,6.82h.64L-17.325,13Zm1.56-1.5.43-1.23h3.6l.44,1.23Zm7.02,1.5V6h1.62v5.68h3.51V13Zm5.16,0,3.12-7h1.6l3.13,7H.905l-2.56-6.18h.64L-3.585,13Zm1.56-1.5.43-1.23h3.6l.44,1.23ZM3.335,13V6h1.34l4.13,5.04h-.65V6h1.6v7H8.425L4.285,7.96h.65V13Zm10.38.12a5.711,5.711,0,0,1-1.61-.225,3.767,3.767,0,0,1-1.24-.585l.55-1.22a4.018,4.018,0,0,0,1.065.525,3.914,3.914,0,0,0,1.245.2,2.593,2.593,0,0,0,.775-.095.907.907,0,0,0,.435-.265.6.6,0,0,0,.14-.39.527.527,0,0,0-.22-.445,1.806,1.806,0,0,0-.58-.27q-.36-.1-.795-.2t-.87-.235a3.68,3.68,0,0,1-.8-.36,1.769,1.769,0,0,1-.585-.58,1.71,1.71,0,0,1-.225-.92,1.953,1.953,0,0,1,.325-1.095,2.223,2.223,0,0,1,.98-.79,4.012,4.012,0,0,1,1.645-.3,5.5,5.5,0,0,1,1.3.155,3.746,3.746,0,0,1,1.13.465l-.5,1.23a4.255,4.255,0,0,0-.98-.415,3.6,3.6,0,0,0-.96-.135,2.271,2.271,0,0,0-.77.11.908.908,0,0,0-.43.285.661.661,0,0,0-.13.405.518.518,0,0,0,.22.435,1.737,1.737,0,0,0,.58.265q.36.1.8.2t.87.23a3.364,3.364,0,0,1,.8.35,1.769,1.769,0,0,1,.585.58,1.689,1.689,0,0,1,.225.91,1.892,1.892,0,0,1-.33,1.08,2.305,2.305,0,0,1-.985.79A3.982,3.982,0,0,1,13.715,13.12Zm5.57-4.3h3.37v1.26h-3.37Zm.12,2.88h3.81V13H17.8V6h5.29V7.3h-3.68ZM24.5,13V6h3.03a3.936,3.936,0,0,1,1.62.305,2.372,2.372,0,0,1,1.05.875,2.443,2.443,0,0,1,.37,1.36,2.4,2.4,0,0,1-.37,1.345,2.353,2.353,0,0,1-1.05.865,3.993,3.993,0,0,1-1.62.3H25.4l.72-.71V13Zm4.45,0L27.2,10.46h1.73L30.7,13Zm-2.83-2.48-.72-.76h2.04a1.658,1.658,0,0,0,1.12-.325,1.129,1.129,0,0,0,.37-.895,1.126,1.126,0,0,0-.37-.9,1.676,1.676,0,0,0-1.12-.32H25.4l.72-.77ZM30.935,13l3.12-7h1.6l3.13,7h-1.7l-2.56-6.18h.64L32.595,13Zm1.56-1.5.43-1.23h3.6l.44,1.23Zm7.02,1.5V6h3.03a3.936,3.936,0,0,1,1.62.305,2.372,2.372,0,0,1,1.05.875,2.443,2.443,0,0,1,.37,1.36,2.4,2.4,0,0,1-.37,1.345,2.353,2.353,0,0,1-1.05.865,3.993,3.993,0,0,1-1.62.3h-2.13l.72-.71V13Zm4.45,0-1.75-2.54h1.73L45.715,13Zm-2.83-2.48-.72-.76h2.04a1.658,1.658,0,0,0,1.12-.325,1.129,1.129,0,0,0,.37-.895,1.126,1.126,0,0,0-.37-.9,1.676,1.676,0,0,0-1.12-.32h-2.04l.72-.77Zm7.22-1.7h3.37v1.26h-3.37Zm.12,2.88h3.81V13h-5.42V6h5.29V7.3h-3.68Z" transform="translate(590 272)" fill="#195f8c"/>
      <path id="Path_5596" data-name="Path 5596" d="M-15.065,0V-7h3.18a4.438,4.438,0,0,1,2.01.435A3.321,3.321,0,0,1-8.515-5.35a3.406,3.406,0,0,1,.49,1.85,3.412,3.412,0,0,1-.49,1.845,3.309,3.309,0,0,1-1.36,1.22A4.438,4.438,0,0,1-11.885,0Zm1.62-1.33h1.48A2.623,2.623,0,0,0-10.75-1.6a1.922,1.922,0,0,0,.8-.755A2.247,2.247,0,0,0-9.665-3.5,2.24,2.24,0,0,0-9.95-4.655a1.932,1.932,0,0,0-.8-.75,2.623,2.623,0,0,0-1.215-.265h-1.48ZM-7.825,0-4.7-7h1.6L.025,0h-1.7l-2.56-6.18h.64L-6.165,0Zm1.56-1.5.43-1.23h3.6L-1.8-1.5ZM1.855,0V-5.68H-.385V-7h6.1v1.32H3.475V0Zm3.46,0,3.12-7h1.6l3.13,7h-1.7L8.9-6.18h.64L6.975,0Zm1.56-1.5L7.3-2.73h3.6l.44,1.23Zm-40.6,14.62a5.711,5.711,0,0,1-1.61-.225,3.767,3.767,0,0,1-1.24-.585l.55-1.22a4.018,4.018,0,0,0,1.065.525,3.914,3.914,0,0,0,1.245.2,2.593,2.593,0,0,0,.775-.095.907.907,0,0,0,.435-.265.6.6,0,0,0,.14-.39.527.527,0,0,0-.22-.445,1.806,1.806,0,0,0-.58-.27q-.36-.1-.795-.2t-.87-.235a3.68,3.68,0,0,1-.8-.36,1.769,1.769,0,0,1-.585-.58,1.71,1.71,0,0,1-.225-.92,1.953,1.953,0,0,1,.325-1.095,2.223,2.223,0,0,1,.98-.79,4.012,4.012,0,0,1,1.645-.3,5.5,5.5,0,0,1,1.3.155,3.746,3.746,0,0,1,1.13.465l-.5,1.23a4.255,4.255,0,0,0-.98-.415,3.6,3.6,0,0,0-.96-.135,2.271,2.271,0,0,0-.77.11.908.908,0,0,0-.43.285.661.661,0,0,0-.13.405.518.518,0,0,0,.22.435,1.737,1.737,0,0,0,.58.265q.36.1.795.2t.87.23a3.364,3.364,0,0,1,.8.35,1.769,1.769,0,0,1,.585.58,1.689,1.689,0,0,1,.225.91,1.892,1.892,0,0,1-.33,1.08,2.305,2.305,0,0,1-.985.79A3.982,3.982,0,0,1-33.73,13.12Zm7.19,0a3.171,3.171,0,0,1-2.33-.83,3.184,3.184,0,0,1-.84-2.37V6h1.62V9.86a2.076,2.076,0,0,0,.41,1.44,1.5,1.5,0,0,0,1.15.44,1.5,1.5,0,0,0,1.15-.44,2.076,2.076,0,0,0,.41-1.44V6h1.6V9.92a3.184,3.184,0,0,1-.84,2.37A3.171,3.171,0,0,1-26.54,13.12Zm6.87-.12-3.02-7h1.75l2.64,6.2h-1.03L-16.65,6h1.61l-3.03,7Zm6.7-4.18H-9.6v1.26h-3.37Zm.12,2.88h3.81V13h-5.42V6h5.29V7.3h-3.68Zm5.1,1.3V6h3.03a3.936,3.936,0,0,1,1.62.305,2.372,2.372,0,0,1,1.05.875,2.443,2.443,0,0,1,.37,1.36,2.4,2.4,0,0,1-.37,1.345,2.353,2.353,0,0,1-1.05.865,3.993,3.993,0,0,1-1.62.3H-6.85l.72-.71V13Zm4.45,0-1.75-2.54h1.73L-1.55,13Zm-2.83-2.48-.72-.76h2.04a1.658,1.658,0,0,0,1.12-.325,1.129,1.129,0,0,0,.37-.895,1.126,1.126,0,0,0-.37-.9,1.676,1.676,0,0,0-1.12-.32H-6.85l.72-.77ZM-1.32,13,1.8,6H3.4l3.13,7H4.83L2.27,6.82h.64L.34,13ZM.24,11.5l.43-1.23h3.6l.44,1.23ZM3.61,5.38a.685.685,0,0,1-.49-.19.658.658,0,0,1-.2-.5.658.658,0,0,1,.2-.5A.685.685,0,0,1,3.61,4a.7.7,0,0,1,.495.19.65.65,0,0,1,.2.5.65.65,0,0,1-.2.5A.7.7,0,0,1,3.61,5.38Zm-2.02,0a.7.7,0,0,1-.5-.19.65.65,0,0,1-.205-.5.65.65,0,0,1,.205-.5A.7.7,0,0,1,1.59,4a.685.685,0,0,1,.49.19.658.658,0,0,1,.2.5.658.658,0,0,1-.2.5A.685.685,0,0,1,1.59,5.38ZM7.26,13V6H8.6l4.13,5.04h-.65V6h1.6v7H12.35L8.21,7.96h.65V13Zm8.08,0V6h1.62v7Zm4.73,0V7.32H17.83V6h6.1V7.32H21.69V13Zm6.22-4.18h3.37v1.26H26.29Zm.12,2.88h3.81V13H24.8V6h5.29V7.3H26.41ZM32.96,13V7.32H30.72V6h6.1V7.32H34.58V13Z" transform="translate(446.5 272)" fill="#32cd32"/>
      <path id="Path_5595" data-name="Path 5595" d="M-12.41.12a4.257,4.257,0,0,1-1.535-.27,3.632,3.632,0,0,1-1.22-.76,3.468,3.468,0,0,1-.8-1.15A3.594,3.594,0,0,1-16.25-3.5a3.594,3.594,0,0,1,.285-1.44,3.434,3.434,0,0,1,.8-1.15,3.7,3.7,0,0,1,1.22-.76,4.188,4.188,0,0,1,1.52-.27,4.177,4.177,0,0,1,1.525.27,3.654,3.654,0,0,1,1.21.76A3.546,3.546,0,0,1-8.88-4.945,3.53,3.53,0,0,1-8.59-3.5a3.575,3.575,0,0,1-.29,1.445A3.462,3.462,0,0,1-9.685-.9,3.7,3.7,0,0,1-10.9-.15,4.149,4.149,0,0,1-12.41.12Zm-.01-1.38a2.283,2.283,0,0,0,.865-.16,2.074,2.074,0,0,0,.7-.46,2.1,2.1,0,0,0,.465-.71,2.417,2.417,0,0,0,.165-.91,2.417,2.417,0,0,0-.165-.91,2.139,2.139,0,0,0-.46-.71,2.01,2.01,0,0,0-.695-.46,2.321,2.321,0,0,0-.87-.16,2.283,2.283,0,0,0-.865.16,2.074,2.074,0,0,0-.695.46,2.1,2.1,0,0,0-.465.71,2.417,2.417,0,0,0-.165.91,2.428,2.428,0,0,0,.165.9,2.128,2.128,0,0,0,.46.715,2.01,2.01,0,0,0,.695.46A2.321,2.321,0,0,0-12.42-1.26ZM-7.37,0V-7h3.03a3.936,3.936,0,0,1,1.62.305,2.372,2.372,0,0,1,1.05.875A2.443,2.443,0,0,1-1.3-4.46a2.424,2.424,0,0,1-.37,1.35,2.372,2.372,0,0,1-1.05.875,3.936,3.936,0,0,1-1.62.3H-6.47l.72-.73V0Zm1.62-2.48-.72-.77h2.04a1.676,1.676,0,0,0,1.12-.32,1.114,1.114,0,0,0,.37-.89,1.126,1.126,0,0,0-.37-.9,1.676,1.676,0,0,0-1.12-.32H-6.47l.72-.77Zm7.09-1.7H4.71v1.26H1.34ZM1.46-1.3H5.27V0H-.15V-7H5.14v1.3H1.46ZM6.56,0V-7H7.9l4.13,5.04h-.65V-7h1.6V0H11.65L7.51-5.04h.65V0ZM-18.915,13.12a5.711,5.711,0,0,1-1.61-.225,3.767,3.767,0,0,1-1.24-.585l.55-1.22a4.018,4.018,0,0,0,1.065.525,3.914,3.914,0,0,0,1.245.2,2.593,2.593,0,0,0,.775-.095.907.907,0,0,0,.435-.265.6.6,0,0,0,.14-.39.527.527,0,0,0-.22-.445,1.806,1.806,0,0,0-.58-.27q-.36-.1-.8-.2t-.87-.235a3.68,3.68,0,0,1-.8-.36,1.769,1.769,0,0,1-.585-.58,1.71,1.71,0,0,1-.225-.92A1.953,1.953,0,0,1-21.3,6.965a2.223,2.223,0,0,1,.98-.79,4.012,4.012,0,0,1,1.645-.3,5.5,5.5,0,0,1,1.3.155,3.746,3.746,0,0,1,1.13.465l-.5,1.23a4.255,4.255,0,0,0-.98-.415,3.6,3.6,0,0,0-.96-.135,2.271,2.271,0,0,0-.77.11.908.908,0,0,0-.43.285.661.661,0,0,0-.13.405.518.518,0,0,0,.22.435,1.737,1.737,0,0,0,.58.265q.36.1.8.2t.87.23a3.364,3.364,0,0,1,.795.35,1.769,1.769,0,0,1,.585.58,1.689,1.689,0,0,1,.225.91,1.892,1.892,0,0,1-.33,1.08,2.305,2.305,0,0,1-.985.79A3.982,3.982,0,0,1-18.915,13.12Zm7.48,0a4.257,4.257,0,0,1-1.535-.27,3.632,3.632,0,0,1-1.22-.76,3.468,3.468,0,0,1-.8-1.15,3.594,3.594,0,0,1-.285-1.44,3.594,3.594,0,0,1,.285-1.44,3.434,3.434,0,0,1,.805-1.15,3.7,3.7,0,0,1,1.22-.76,4.188,4.188,0,0,1,1.52-.27,4.177,4.177,0,0,1,1.525.27,3.654,3.654,0,0,1,1.21.76A3.546,3.546,0,0,1-7.9,8.055,3.53,3.53,0,0,1-7.615,9.5a3.575,3.575,0,0,1-.29,1.445A3.462,3.462,0,0,1-8.71,12.1a3.7,3.7,0,0,1-1.21.755A4.149,4.149,0,0,1-11.435,13.12Zm-.01-1.38a2.283,2.283,0,0,0,.865-.16,2.074,2.074,0,0,0,.695-.46,2.1,2.1,0,0,0,.465-.71,2.417,2.417,0,0,0,.165-.91,2.417,2.417,0,0,0-.165-.91,2.139,2.139,0,0,0-.46-.71,2.01,2.01,0,0,0-.695-.46,2.321,2.321,0,0,0-.87-.16,2.283,2.283,0,0,0-.865.16,2.074,2.074,0,0,0-.7.46,2.1,2.1,0,0,0-.465.71,2.417,2.417,0,0,0-.165.91,2.428,2.428,0,0,0,.165.9,2.128,2.128,0,0,0,.46.715,2.01,2.01,0,0,0,.7.46A2.321,2.321,0,0,0-11.445,11.74Zm8.16,1.38a3.171,3.171,0,0,1-2.33-.83,3.184,3.184,0,0,1-.84-2.37V6h1.62V9.86a2.076,2.076,0,0,0,.41,1.44,1.5,1.5,0,0,0,1.15.44,1.5,1.5,0,0,0,1.15-.44,2.076,2.076,0,0,0,.41-1.44V6h1.6V9.92a3.184,3.184,0,0,1-.84,2.37A3.171,3.171,0,0,1-3.285,13.12ZM1.485,13V6h3.03a3.936,3.936,0,0,1,1.62.305,2.372,2.372,0,0,1,1.05.875,2.443,2.443,0,0,1,.37,1.36,2.4,2.4,0,0,1-.37,1.345,2.353,2.353,0,0,1-1.05.865,3.993,3.993,0,0,1-1.62.3H2.385l.72-.71V13Zm4.45,0-1.75-2.54h1.73L7.685,13Zm-2.83-2.48-.72-.76h2.04a1.658,1.658,0,0,0,1.12-.325,1.129,1.129,0,0,0,.37-.895,1.126,1.126,0,0,0-.37-.9,1.676,1.676,0,0,0-1.12-.32H2.385l.72-.77Zm9.08,2.6a4.189,4.189,0,0,1-1.505-.265,3.5,3.5,0,0,1-2-1.9,3.831,3.831,0,0,1,0-2.9,3.468,3.468,0,0,1,.8-1.15,3.6,3.6,0,0,1,1.2-.755,4.178,4.178,0,0,1,1.51-.265A4.136,4.136,0,0,1,13.84,6.2a3.2,3.2,0,0,1,1.235.925l-1.04.96a2.434,2.434,0,0,0-.8-.615,2.245,2.245,0,0,0-.96-.2,2.455,2.455,0,0,0-.9.16,2.04,2.04,0,0,0-.71.46,2.1,2.1,0,0,0-.465.71,2.592,2.592,0,0,0,0,1.82,2.1,2.1,0,0,0,.465.71,2.04,2.04,0,0,0,.71.46,2.455,2.455,0,0,0,.9.16,2.245,2.245,0,0,0,.96-.2,2.381,2.381,0,0,0,.8-.625l1.04.96a3.25,3.25,0,0,1-1.235.93A4.106,4.106,0,0,1,12.185,13.12Zm5.47-4.3h3.37v1.26h-3.37Zm.12,2.88h3.81V13h-5.42V6h5.29V7.3h-3.68Z" transform="translate(734 413)" fill="#32cd32"/>
      <path id="Path_5594" data-name="Path 5594" d="M-19.42.12A5.711,5.711,0,0,1-21.03-.1,3.767,3.767,0,0,1-22.27-.69l.55-1.22a4.018,4.018,0,0,0,1.065.525,3.914,3.914,0,0,0,1.245.2,2.593,2.593,0,0,0,.775-.095A.907.907,0,0,0-18.2-1.54a.6.6,0,0,0,.14-.39.527.527,0,0,0-.22-.445,1.806,1.806,0,0,0-.58-.27q-.36-.1-.8-.2t-.87-.235a3.68,3.68,0,0,1-.8-.36,1.769,1.769,0,0,1-.585-.58,1.71,1.71,0,0,1-.225-.92,1.953,1.953,0,0,1,.325-1.095,2.223,2.223,0,0,1,.98-.79,4.012,4.012,0,0,1,1.645-.3,5.5,5.5,0,0,1,1.3.155,3.746,3.746,0,0,1,1.13.465l-.5,1.23a4.255,4.255,0,0,0-.98-.415,3.6,3.6,0,0,0-.96-.135,2.271,2.271,0,0,0-.77.11.908.908,0,0,0-.43.285.661.661,0,0,0-.13.405.518.518,0,0,0,.22.435,1.737,1.737,0,0,0,.58.265q.36.1.8.2t.87.23a3.364,3.364,0,0,1,.795.35,1.769,1.769,0,0,1,.585.58,1.689,1.689,0,0,1,.225.91,1.892,1.892,0,0,1-.33,1.08,2.305,2.305,0,0,1-.985.79A3.982,3.982,0,0,1-19.42.12ZM-13.99,0V-5.68h-2.24V-7h6.1v1.32h-2.24V0Zm3.46,0,3.12-7h1.6l3.13,7h-1.7L-6.94-6.18h.64L-8.87,0Zm1.56-1.5.43-1.23h3.6L-4.5-1.5ZM-1.95,0V-7H1.47a3.281,3.281,0,0,1,1.985.5A1.573,1.573,0,0,1,4.12-5.18a1.681,1.681,0,0,1-.27.955,1.768,1.768,0,0,1-.74.625,2.52,2.52,0,0,1-1.08.22l.19-.41a2.99,2.99,0,0,1,1.17.215,1.759,1.759,0,0,1,.8.635A1.792,1.792,0,0,1,4.47-1.91,1.628,1.628,0,0,1,3.76-.5,3.6,3.6,0,0,1,1.67,0ZM-.34-1.22H1.55a1.807,1.807,0,0,0,.955-.2A.717.717,0,0,0,2.83-2.08.731.731,0,0,0,2.5-2.735,1.739,1.739,0,0,0,1.55-2.95H-.46V-4.13H1.27a1.661,1.661,0,0,0,.9-.2A.694.694,0,0,0,2.49-4.96a.685.685,0,0,0-.315-.615,1.661,1.661,0,0,0-.9-.205H-.34ZM5.7,0V-7H7.32V0ZM8.98,0V-7H10.6v5.68h3.51V0Zm6.84,0V-5.68H13.58V-7h6.1v1.32H17.44V0Zm-40.1,13V6h1.34l4.13,5.04h-.65V6h1.6v7h-1.33l-4.14-5.04h.65V13Zm7.16,0L-14,6h1.6l3.13,7h-1.7l-2.56-6.18h.64L-15.455,13Zm1.56-1.5.43-1.23h3.6l.44,1.23Zm3.37-6.12a.685.685,0,0,1-.49-.19.658.658,0,0,1-.2-.5.658.658,0,0,1,.2-.5.685.685,0,0,1,.49-.19.7.7,0,0,1,.495.19.65.65,0,0,1,.2.5.65.65,0,0,1-.2.5A.7.7,0,0,1-12.185,5.38Zm-2.02,0a.7.7,0,0,1-.495-.19.65.65,0,0,1-.2-.5.65.65,0,0,1,.2-.5A.7.7,0,0,1-14.205,4a.685.685,0,0,1,.49.19.658.658,0,0,1,.2.5.658.658,0,0,1-.2.5A.685.685,0,0,1-14.205,5.38ZM-7.435,13V7.32h-2.24V6h6.1V7.32h-2.24V13Zm6.7,0-3.02-7h1.75l2.64,6.2H-.4L2.285,6h1.61L.865,13Zm6.7-4.18h3.37v1.26H5.965Zm.12,2.88h3.81V13H4.475V6h5.29V7.3H6.085Zm5.1,1.3V6h3.03a3.936,3.936,0,0,1,1.62.305,2.372,2.372,0,0,1,1.05.875,2.443,2.443,0,0,1,.37,1.36,2.4,2.4,0,0,1-.37,1.345,2.353,2.353,0,0,1-1.05.865,3.993,3.993,0,0,1-1.62.3h-2.13l.72-.71V13Zm4.45,0-1.75-2.54h1.73L17.385,13ZM12.8,10.52l-.72-.76h2.04a1.658,1.658,0,0,0,1.12-.325,1.129,1.129,0,0,0,.37-.895,1.126,1.126,0,0,0-.37-.9,1.676,1.676,0,0,0-1.12-.32h-2.04l.72-.77Zm7.18.88L19.9,9.53,23.245,6h1.8l-3.02,3.25-.9.96ZM18.535,13V6h1.61v7Zm4.79,0-2.49-3.05L21.9,8.8l3.32,4.2Z" transform="translate(590 413)" fill="#fa690f"/>
      <path id="Path_5593" data-name="Path 5593" d="M-31.275,0V-7h3.03a3.936,3.936,0,0,1,1.62.305,2.372,2.372,0,0,1,1.05.875,2.443,2.443,0,0,1,.37,1.36,2.424,2.424,0,0,1-.37,1.35,2.372,2.372,0,0,1-1.05.875,3.936,3.936,0,0,1-1.62.3h-2.13l.72-.73V0Zm1.62-2.48-.72-.77h2.04a1.676,1.676,0,0,0,1.12-.32,1.114,1.114,0,0,0,.37-.89,1.126,1.126,0,0,0-.37-.9,1.676,1.676,0,0,0-1.12-.32h-2.04l.72-.77Zm9.1,2.6A4.257,4.257,0,0,1-22.09-.15a3.632,3.632,0,0,1-1.22-.76,3.468,3.468,0,0,1-.8-1.15A3.594,3.594,0,0,1-24.4-3.5a3.594,3.594,0,0,1,.285-1.44,3.434,3.434,0,0,1,.805-1.15,3.7,3.7,0,0,1,1.22-.76,4.188,4.188,0,0,1,1.52-.27,4.177,4.177,0,0,1,1.525.27,3.654,3.654,0,0,1,1.21.76,3.546,3.546,0,0,1,.805,1.145,3.53,3.53,0,0,1,.29,1.445,3.575,3.575,0,0,1-.29,1.445A3.462,3.462,0,0,1-17.83-.9a3.7,3.7,0,0,1-1.21.755A4.149,4.149,0,0,1-20.555.12Zm-.01-1.38a2.283,2.283,0,0,0,.865-.16,2.074,2.074,0,0,0,.7-.46,2.1,2.1,0,0,0,.465-.71,2.417,2.417,0,0,0,.165-.91,2.417,2.417,0,0,0-.165-.91A2.139,2.139,0,0,0-19-5.12a2.01,2.01,0,0,0-.695-.46,2.321,2.321,0,0,0-.87-.16,2.283,2.283,0,0,0-.865.16,2.074,2.074,0,0,0-.695.46,2.1,2.1,0,0,0-.465.71,2.417,2.417,0,0,0-.165.91,2.428,2.428,0,0,0,.165.9,2.128,2.128,0,0,0,.46.715,2.01,2.01,0,0,0,.695.46A2.321,2.321,0,0,0-20.565-1.26Zm6.5,1.26-2.29-7h1.68l1.99,6.2h-.84l2.08-6.2h1.5l2,6.2h-.81L-6.715-7h1.55l-2.29,7H-9.2l-1.77-5.44h.46L-12.325,0Zm11.29-4.18H.6v1.26h-3.37Zm.12,2.88h3.81V0h-5.42V-7h5.29v1.3h-3.68ZM2.445,0V-7h3.03a3.936,3.936,0,0,1,1.62.305,2.372,2.372,0,0,1,1.05.875,2.443,2.443,0,0,1,.37,1.36,2.4,2.4,0,0,1-.37,1.345A2.353,2.353,0,0,1,7.1-2.25a3.993,3.993,0,0,1-1.62.3H3.345l.72-.71V0ZM6.9,0,5.145-2.54h1.73L8.645,0ZM4.065-2.48l-.72-.76h2.04a1.658,1.658,0,0,0,1.12-.325,1.129,1.129,0,0,0,.37-.895,1.126,1.126,0,0,0-.37-.9,1.676,1.676,0,0,0-1.12-.32H3.345l.72-.77ZM11.3-3.85h3.36v1.3H11.3ZM11.415,0H9.8V-7h5.29v1.3h-3.67ZM19.3.12a3.171,3.171,0,0,1-2.33-.83,3.184,3.184,0,0,1-.84-2.37V-7h1.62v3.86a2.076,2.076,0,0,0,.41,1.44,1.5,1.5,0,0,0,1.15.44,1.5,1.5,0,0,0,1.15-.44,2.076,2.076,0,0,0,.41-1.44V-7h1.6v3.92a3.184,3.184,0,0,1-.84,2.37A3.171,3.171,0,0,1,19.3.12ZM24.065,0V-7h1.62v5.68h3.51V0Zm-60.47,13,3.12-7h1.6l3.13,7h-1.7l-2.56-6.18h.64L-34.745,13Zm1.56-1.5.43-1.23h3.6l.44,1.23Zm9.98,1.62a3.171,3.171,0,0,1-2.33-.83,3.184,3.184,0,0,1-.84-2.37V6h1.62V9.86a2.076,2.076,0,0,0,.41,1.44,1.5,1.5,0,0,0,1.15.44,1.5,1.5,0,0,0,1.15-.44,2.076,2.076,0,0,0,.41-1.44V6h1.6V9.92a3.184,3.184,0,0,1-.84,2.37A3.171,3.171,0,0,1-24.865,13.12Zm6.1-.12V7.32h-2.24V6h6.1V7.32h-2.24V13Zm8.03.12a4.257,4.257,0,0,1-1.535-.27,3.632,3.632,0,0,1-1.22-.76,3.468,3.468,0,0,1-.8-1.15,3.594,3.594,0,0,1-.285-1.44,3.594,3.594,0,0,1,.285-1.44,3.434,3.434,0,0,1,.8-1.15,3.7,3.7,0,0,1,1.22-.76,4.188,4.188,0,0,1,1.52-.27,4.177,4.177,0,0,1,1.525.27,3.654,3.654,0,0,1,1.21.76,3.546,3.546,0,0,1,.805,1.145A3.53,3.53,0,0,1-6.915,9.5a3.575,3.575,0,0,1-.29,1.445A3.462,3.462,0,0,1-8.01,12.1a3.7,3.7,0,0,1-1.21.755A4.149,4.149,0,0,1-10.735,13.12Zm-.01-1.38a2.283,2.283,0,0,0,.865-.16,2.074,2.074,0,0,0,.7-.46,2.1,2.1,0,0,0,.465-.71,2.417,2.417,0,0,0,.165-.91,2.417,2.417,0,0,0-.165-.91,2.139,2.139,0,0,0-.46-.71,2.01,2.01,0,0,0-.695-.46,2.321,2.321,0,0,0-.87-.16,2.283,2.283,0,0,0-.865.16,2.074,2.074,0,0,0-.695.46,2.1,2.1,0,0,0-.465.71,2.417,2.417,0,0,0-.165.91,2.428,2.428,0,0,0,.165.9,2.128,2.128,0,0,0,.46.715,2.01,2.01,0,0,0,.695.46A2.321,2.321,0,0,0-10.745,11.74ZM-5.7,13V6h1.34l2.98,4.94h-.71L.845,6h1.33l.02,7H.675L.665,8.33h.28L-1.4,12.26h-.73l-2.39-3.93h.34V13Zm8.63,0,3.12-7h1.6l3.13,7h-1.7L6.525,6.82h.64L4.595,13Zm1.56-1.5.43-1.23h3.6l.44,1.23Zm8.12,1.5V7.32h-2.24V6h6.1V7.32h-2.24V13Zm4.73,0V6h1.62v7Zm6.68.12a4.257,4.257,0,0,1-1.535-.27,3.632,3.632,0,0,1-1.22-.76,3.468,3.468,0,0,1-.8-1.15,3.78,3.78,0,0,1,0-2.88,3.434,3.434,0,0,1,.805-1.15,3.7,3.7,0,0,1,1.22-.76,4.428,4.428,0,0,1,3.045,0,3.654,3.654,0,0,1,1.21.76,3.654,3.654,0,0,1,.805,4.035,3.462,3.462,0,0,1-.805,1.15,3.7,3.7,0,0,1-1.21.755A4.149,4.149,0,0,1,24.025,13.12Zm-.01-1.38a2.283,2.283,0,0,0,.865-.16,2.074,2.074,0,0,0,.7-.46,2.1,2.1,0,0,0,.465-.71,2.592,2.592,0,0,0,0-1.82,2.139,2.139,0,0,0-.46-.71,2.01,2.01,0,0,0-.695-.46,2.321,2.321,0,0,0-.87-.16,2.283,2.283,0,0,0-.865.16,2.074,2.074,0,0,0-.695.46,2.1,2.1,0,0,0-.465.71,2.578,2.578,0,0,0,0,1.815,2.128,2.128,0,0,0,.46.715,2.01,2.01,0,0,0,.695.46A2.321,2.321,0,0,0,24.015,11.74ZM29.065,13V6h1.34l4.13,5.04h-.65V6h1.6v7h-1.33l-4.14-5.04h.65V13Z" transform="translate(447.5 413)" fill="#3c9bcd"/>
      <path id="Path_5592" data-name="Path 5592" d="M-22.21-11.266h6.966l-.3-1.032q-1.247-4.214-2.042-7.181t-.967-3.827l-.172-.86A122.106,122.106,0,0,1-21.909-12.3ZM-11.89,0l-1.763-5.934H-23.8L-25.564,0h-6.923l9.675-28.982h8.342L-4.795,0Zm17.5-14.62H7.8q5.246,0,5.246-4.773,0-4.3-4.859-4.3H5.611ZM-1.011-28.982H8.965a11.173,11.173,0,0,1,7.8,2.709,8.879,8.879,0,0,1,2.988,6.88A9.132,9.132,0,0,1,16.641-12,11.517,11.517,0,0,1,8.965-9.374H5.611V0H-1.011ZM23.628,0V-28.982H30.25V0Z" transform="translate(447.5 382)" fill="#3c9bcd"/>
      <path id="Path_5591" data-name="Path 5591" d="M-35.985.12A5.711,5.711,0,0,1-37.6-.1a3.767,3.767,0,0,1-1.24-.585l.55-1.22a4.018,4.018,0,0,0,1.065.525,3.914,3.914,0,0,0,1.245.2,2.593,2.593,0,0,0,.775-.095.907.907,0,0,0,.435-.265.6.6,0,0,0,.14-.39.527.527,0,0,0-.22-.445,1.806,1.806,0,0,0-.58-.27q-.36-.1-.795-.2t-.87-.235a3.68,3.68,0,0,1-.8-.36,1.769,1.769,0,0,1-.585-.58,1.71,1.71,0,0,1-.225-.92,1.953,1.953,0,0,1,.325-1.095,2.223,2.223,0,0,1,.98-.79,4.012,4.012,0,0,1,1.645-.3,5.5,5.5,0,0,1,1.3.155,3.746,3.746,0,0,1,1.13.465l-.5,1.23a4.255,4.255,0,0,0-.98-.415,3.6,3.6,0,0,0-.96-.135,2.271,2.271,0,0,0-.77.11.908.908,0,0,0-.43.285.661.661,0,0,0-.13.405.518.518,0,0,0,.22.435,1.737,1.737,0,0,0,.58.265q.36.1.8.2t.87.23a3.364,3.364,0,0,1,.8.35,1.769,1.769,0,0,1,.585.58,1.689,1.689,0,0,1,.225.91,1.892,1.892,0,0,1-.33,1.08,2.305,2.305,0,0,1-.985.79A3.982,3.982,0,0,1-35.985.12Zm4.08-.12V-7h1.34l4.13,5.04h-.65V-7h1.6V0h-1.33l-4.14-5.04h.65V0Zm7.16,0,3.12-7h1.6l3.13,7h-1.7l-2.56-6.18h.64L-23.085,0Zm1.56-1.5.43-1.23h3.6l.44,1.23Zm7.02,1.5V-7h3.42a3.281,3.281,0,0,1,1.985.5A1.573,1.573,0,0,1-10.1-5.18a1.681,1.681,0,0,1-.27.955,1.768,1.768,0,0,1-.74.625,2.52,2.52,0,0,1-1.08.22l.19-.41a2.99,2.99,0,0,1,1.17.215,1.759,1.759,0,0,1,.8.635,1.792,1.792,0,0,1,.285,1.03,1.628,1.628,0,0,1-.71,1.4,3.6,3.6,0,0,1-2.09.5Zm1.61-1.22h1.89a1.807,1.807,0,0,0,.955-.2.717.717,0,0,0,.325-.655.731.731,0,0,0-.325-.655,1.739,1.739,0,0,0-.955-.215h-2.01V-4.13h1.73a1.661,1.661,0,0,0,.9-.2.694.694,0,0,0,.315-.625.685.685,0,0,0-.315-.615,1.661,1.661,0,0,0-.9-.205h-1.61ZM-8.515,0V-7H-5.1a3.281,3.281,0,0,1,1.985.5,1.573,1.573,0,0,1,.665,1.32,1.681,1.681,0,0,1-.27.955,1.768,1.768,0,0,1-.74.625,2.52,2.52,0,0,1-1.08.22l.19-.41a2.99,2.99,0,0,1,1.17.215,1.759,1.759,0,0,1,.8.635A1.792,1.792,0,0,1-2.1-1.91a1.628,1.628,0,0,1-.71,1.4A3.6,3.6,0,0,1-4.9,0Zm1.61-1.22h1.89a1.807,1.807,0,0,0,.955-.2.717.717,0,0,0,.325-.655.731.731,0,0,0-.325-.655,1.739,1.739,0,0,0-.955-.215h-2.01V-4.13H-5.3a1.661,1.661,0,0,0,.9-.2.694.694,0,0,0,.315-.625.685.685,0,0,0-.315-.615,1.661,1.661,0,0,0-.9-.205h-1.61ZM1.965,0V-7h1.62v5.68h3.51V0Zm9.32.12A4.257,4.257,0,0,1,9.75-.15,3.632,3.632,0,0,1,8.53-.91a3.468,3.468,0,0,1-.8-1.15A3.594,3.594,0,0,1,7.445-3.5,3.594,3.594,0,0,1,7.73-4.94a3.434,3.434,0,0,1,.8-1.15,3.7,3.7,0,0,1,1.22-.76,4.188,4.188,0,0,1,1.52-.27,4.177,4.177,0,0,1,1.525.27,3.654,3.654,0,0,1,1.21.76,3.546,3.546,0,0,1,.805,1.145A3.53,3.53,0,0,1,15.1-3.5a3.575,3.575,0,0,1-.29,1.445A3.462,3.462,0,0,1,14.01-.9,3.7,3.7,0,0,1,12.8-.15,4.149,4.149,0,0,1,11.285.12Zm-.01-1.38a2.283,2.283,0,0,0,.865-.16,2.074,2.074,0,0,0,.7-.46,2.1,2.1,0,0,0,.465-.71,2.417,2.417,0,0,0,.165-.91,2.417,2.417,0,0,0-.165-.91,2.139,2.139,0,0,0-.46-.71,2.01,2.01,0,0,0-.695-.46,2.321,2.321,0,0,0-.87-.16,2.283,2.283,0,0,0-.865.16,2.074,2.074,0,0,0-.695.46,2.1,2.1,0,0,0-.465.71,2.417,2.417,0,0,0-.165.91,2.428,2.428,0,0,0,.165.9,2.128,2.128,0,0,0,.46.715,2.01,2.01,0,0,0,.695.46A2.321,2.321,0,0,0,11.275-1.26Zm6.5-.34-.09-1.87L21.035-7h1.8l-3.02,3.25-.9.96ZM16.325,0V-7h1.61V0Zm4.79,0-2.49-3.05,1.06-1.15L23,0Zm1.38,0,3.12-7h1.6l3.13,7h-1.7l-2.56-6.18h.64L24.155,0Zm1.56-1.5.43-1.23h3.6l.44,1.23ZM31.075,0V-7h1.62v5.68H36.2V0ZM-39.62,13V6h3.18a4.438,4.438,0,0,1,2.01.435A3.321,3.321,0,0,1-33.07,7.65a3.406,3.406,0,0,1,.49,1.85,3.412,3.412,0,0,1-.49,1.845,3.309,3.309,0,0,1-1.36,1.22A4.438,4.438,0,0,1-36.44,13ZM-38,11.67h1.48a2.623,2.623,0,0,0,1.215-.265,1.922,1.922,0,0,0,.8-.755A2.247,2.247,0,0,0-34.22,9.5a2.24,2.24,0,0,0-.285-1.155,1.931,1.931,0,0,0-.8-.75A2.623,2.623,0,0,0-36.52,7.33H-38ZM-31.36,13V6h1.62v7Zm5.58.12a5.711,5.711,0,0,1-1.61-.225,3.767,3.767,0,0,1-1.24-.585l.55-1.22a4.018,4.018,0,0,0,1.065.525,3.914,3.914,0,0,0,1.245.2,2.593,2.593,0,0,0,.775-.095.907.907,0,0,0,.435-.265.6.6,0,0,0,.14-.39.527.527,0,0,0-.22-.445,1.806,1.806,0,0,0-.58-.27q-.36-.1-.8-.2t-.87-.235a3.68,3.68,0,0,1-.8-.36,1.769,1.769,0,0,1-.585-.58,1.71,1.71,0,0,1-.225-.92,1.953,1.953,0,0,1,.325-1.095,2.223,2.223,0,0,1,.98-.79,4.012,4.012,0,0,1,1.645-.3,5.5,5.5,0,0,1,1.3.155,3.746,3.746,0,0,1,1.13.465l-.5,1.23a4.255,4.255,0,0,0-.98-.415,3.6,3.6,0,0,0-.96-.135,2.271,2.271,0,0,0-.77.11.908.908,0,0,0-.43.285.661.661,0,0,0-.13.405.518.518,0,0,0,.22.435,1.737,1.737,0,0,0,.58.265q.36.1.8.2t.87.23a3.364,3.364,0,0,1,.8.35,1.769,1.769,0,0,1,.585.58,1.689,1.689,0,0,1,.225.91,1.892,1.892,0,0,1-.33,1.08,2.305,2.305,0,0,1-.985.79A3.982,3.982,0,0,1-25.78,13.12Zm5.53-1.72-.09-1.87L-16.99,6h1.8l-3.02,3.25-.9.96ZM-21.7,13V6h1.61v7Zm4.79,0L-19.4,9.95l1.06-1.15,3.32,4.2Zm6.89,0V7.32h-2.24V6h6.1V7.32H-8.4V13Zm4.73,0V6h1.62v7Zm3.28,0V6H-.39v5.68H3.12V13Zm6.04,0V6H5.65v5.68H9.16V13ZM14.39,8.82h3.37v1.26H14.39Zm.12,2.88h3.81V13H12.9V6h5.29V7.3H14.51ZM21.06,13V7.32H18.82V6h6.1V7.32H22.68V13Zm7.98.12a4.189,4.189,0,0,1-1.505-.265,3.5,3.5,0,0,1-2-1.9,3.831,3.831,0,0,1,0-2.9,3.468,3.468,0,0,1,.8-1.15,3.6,3.6,0,0,1,1.2-.755,4.178,4.178,0,0,1,1.51-.265,4.136,4.136,0,0,1,1.645.315,3.2,3.2,0,0,1,1.235.925l-1.04.96a2.434,2.434,0,0,0-.8-.615,2.245,2.245,0,0,0-.96-.2,2.455,2.455,0,0,0-.9.16,2.04,2.04,0,0,0-.71.46,2.1,2.1,0,0,0-.465.71,2.592,2.592,0,0,0,0,1.82,2.1,2.1,0,0,0,.465.71,2.04,2.04,0,0,0,.71.46,2.455,2.455,0,0,0,.9.16,2.245,2.245,0,0,0,.96-.2,2.381,2.381,0,0,0,.8-.625l1.04.96a3.25,3.25,0,0,1-1.235.93A4.106,4.106,0,0,1,29.04,13.12ZM33.02,13V6H36.2a4.438,4.438,0,0,1,2.01.435A3.321,3.321,0,0,1,39.57,7.65a3.406,3.406,0,0,1,.49,1.85,3.412,3.412,0,0,1-.49,1.845,3.309,3.309,0,0,1-1.36,1.22A4.438,4.438,0,0,1,36.2,13Zm1.62-1.33h1.48a2.623,2.623,0,0,0,1.215-.265,1.922,1.922,0,0,0,.8-.755A2.247,2.247,0,0,0,38.42,9.5a2.24,2.24,0,0,0-.285-1.155,1.931,1.931,0,0,0-.8-.75A2.623,2.623,0,0,0,36.12,7.33H34.64Z" transform="translate(734 272)" fill="#3c9bcd"/>
    </g>
  </g>
</svg>
