<svg xmlns="http://www.w3.org/2000/svg" xmlns:xlink="http://www.w3.org/1999/xlink" width="336" height="382" viewBox="0 0 336 382">
  <defs>
    <filter id="Rectangle_14" x="0" y="0" width="336" height="382" filterUnits="userSpaceOnUse">
      <feOffset dy="3" input="SourceAlpha"/>
      <feGaussianBlur stdDeviation="3" result="blur"/>
      <feFlood flood-opacity="0.161"/>
      <feComposite operator="in" in2="blur"/>
      <feComposite in="SourceGraphic"/>
    </filter>
  </defs>
  <g id="safespring-list" transform="translate(-794 -1716)">
    <g transform="matrix(1, 0, 0, 1, 794, 1716)" filter="url(#Rectangle_14)">
      <rect id="Rectangle_14-2" data-name="Rectangle 14" width="318" height="364" rx="30" transform="translate(9 6)" fill="#fff"/>
    </g>
    <g id="Group_5" data-name="Group 5" transform="translate(842.25 863)">
      <path id="check-solid" d="M4.755,75.882.205,71.088a.766.766,0,0,1,0-1.043L1.2,69a.675.675,0,0,1,.99,0L5.25,72.231l6.565-6.917a.675.675,0,0,1,.99,0l.99,1.043a.766.766,0,0,1,0,1.043l-8.05,8.482a.675.675,0,0,1-.99,0Z" transform="translate(7 1092.902)" fill="#32cd32"/>
      <circle id="Ellipse_4" data-name="Ellipse 4" cx="14.5" cy="14.5" r="14.5" transform="translate(0 1149)" fill="rgba(50,205,50,0.1)"/>
    </g>
    <g id="Group_8" data-name="Group 8" transform="translate(842.25 806)">
      <path id="check-solid-2" data-name="check-solid" d="M4.755,75.882.205,71.088a.766.766,0,0,1,0-1.043L1.2,69a.675.675,0,0,1,.99,0L5.25,72.232l6.565-6.917a.675.675,0,0,1,.99,0l.99,1.043a.766.766,0,0,1,0,1.043l-8.05,8.482a.675.675,0,0,1-.99,0Z" transform="translate(7 1092.902)" fill="#32cd32"/>
      <circle id="Ellipse_4-2" data-name="Ellipse 4" cx="14.5" cy="14.5" r="14.5" transform="translate(0 1149)" fill="rgba(50,205,50,0.1)"/>
    </g>
    <g id="Group_7" data-name="Group 7" transform="translate(842.25 749)">
      <path id="check-solid-3" data-name="check-solid" d="M4.755,75.882.205,71.088a.766.766,0,0,1,0-1.043L1.2,69a.675.675,0,0,1,.99,0L5.25,72.232l6.565-6.917a.675.675,0,0,1,.99,0l.99,1.043a.766.766,0,0,1,0,1.043l-8.05,8.482a.675.675,0,0,1-.99,0Z" transform="translate(7 1092.902)" fill="#32cd32"/>
      <circle id="Ellipse_4-3" data-name="Ellipse 4" cx="14.5" cy="14.5" r="14.5" transform="translate(0 1149)" fill="rgba(50,205,50,0.1)"/>
    </g>
    <g id="Group_6" data-name="Group 6" transform="translate(842.25 692)">
      <path id="check-solid-4" data-name="check-solid" d="M4.755,75.882.205,71.088a.766.766,0,0,1,0-1.043L1.2,69a.675.675,0,0,1,.99,0L5.25,72.232l6.565-6.917a.675.675,0,0,1,.99,0l.99,1.043a.766.766,0,0,1,0,1.043l-8.05,8.482a.675.675,0,0,1-.99,0Z" transform="translate(7 1092.902)" fill="#32cd32"/>
      <circle id="Ellipse_4-4" data-name="Ellipse 4" cx="14.5" cy="14.5" r="14.5" transform="translate(0 1149)" fill="rgba(50,205,50,0.1)"/>
    </g>
    <path id="Path_69" data-name="Path 69" d="M77.95,11.8v1.932a6.252,6.252,0,0,0-1.764-.756,7.821,7.821,0,0,0-2.128-.308,4.71,4.71,0,0,0-3,.882,2.828,2.828,0,0,0-1.12,2.338A2.715,2.715,0,0,0,71.23,18.31a10.805,10.805,0,0,0,1.218.756q.518.266,1.582.714.98.42,1.484.658a12,12,0,0,1,1.288.742,5.172,5.172,0,0,1,1.19.994,4.979,4.979,0,0,1,.728,1.26,4.348,4.348,0,0,1,.322,1.694,4.51,4.51,0,0,1-1.652,3.766,6.624,6.624,0,0,1-4.228,1.3,9.431,9.431,0,0,1-4.956-1.232V27.032a7.024,7.024,0,0,0,2.17,1.064,8.923,8.923,0,0,0,2.7.42,4.9,4.9,0,0,0,3.094-.868,2.981,2.981,0,0,0,1.106-2.492,2.59,2.59,0,0,0-.84-2A8.938,8.938,0,0,0,74,21.684q-.224-.112-.98-.434t-1.064-.462q-.308-.14-.952-.476a5.23,5.23,0,0,1-.938-.588q-.294-.252-.742-.672a2.812,2.812,0,0,1-.644-.84,7.051,7.051,0,0,1-.364-.994A4.316,4.316,0,0,1,68.15,16a4.436,4.436,0,0,1,1.708-3.71,6.584,6.584,0,0,1,4.172-1.33A8.234,8.234,0,0,1,77.95,11.8ZM90.8,23.252H88.03a4.76,4.76,0,0,0-2.968.77,2.35,2.35,0,0,0-.98,1.918,2.5,2.5,0,0,0,.77,1.9,3.163,3.163,0,0,0,2.254.728,3.823,3.823,0,0,0,2.688-.924A3.05,3.05,0,0,0,90.8,25.3Zm-7.5-4.844V16.56a7.623,7.623,0,0,1,4-.98q5.208,0,5.208,5.46V30H90.8V28.348q-1.176,1.792-4.088,1.792a4.513,4.513,0,0,1-3.206-1.162A3.9,3.9,0,0,1,82.262,26a3.686,3.686,0,0,1,1.582-3.178,7.035,7.035,0,0,1,4.186-1.134H90.8V21.04a4.368,4.368,0,0,0-.812-2.87,3.371,3.371,0,0,0-2.716-.966A6.89,6.89,0,0,0,83.3,18.408Zm19.6-8.176v1.68a3.431,3.431,0,0,0-1.232-.224,1.888,1.888,0,0,0-1.442.658,2.838,2.838,0,0,0-.6,1.974V15.8h3.248V17.26H99.622V30H97.914V17.26h-2.6V15.8h2.6V14.292a4.5,4.5,0,0,1,1.008-3.08,3.565,3.565,0,0,1,2.828-1.148A4.379,4.379,0,0,1,102.9,10.232Zm12.1,11.872V21.46a4.317,4.317,0,0,0-1.078-3.08,3.785,3.785,0,0,0-2.9-1.148,3.975,3.975,0,0,0-3,1.26,5.752,5.752,0,0,0-1.4,3.612Zm.868,5.46V29.3a8.66,8.66,0,0,1-3.92.84,6.95,6.95,0,0,1-5.138-1.974,7.023,7.023,0,0,1-1.974-5.194,7.823,7.823,0,0,1,1.736-5.376,5.74,5.74,0,0,1,4.508-1.96,5.3,5.3,0,0,1,4.144,1.708,6.942,6.942,0,0,1,1.54,4.816,8.059,8.059,0,0,1-.112,1.512H106.622a5.117,5.117,0,0,0,1.624,3.6,5.544,5.544,0,0,0,3.78,1.246A6.824,6.824,0,0,0,115.862,27.564ZM127.65,16.308v1.708a7.137,7.137,0,0,0-3.556-.756,3.021,3.021,0,0,0-1.946.574,1.831,1.831,0,0,0-.714,1.5,2.165,2.165,0,0,0,.21.98,2.087,2.087,0,0,0,.728.77,6.556,6.556,0,0,0,.882.518q.364.168,1.176.5a10.234,10.234,0,0,1,3.01,1.722,3.227,3.227,0,0,1,1.05,2.534,3.445,3.445,0,0,1-1.218,2.786,5.047,5.047,0,0,1-3.346,1.022,8.782,8.782,0,0,1-4.144-.84V27.564a8.04,8.04,0,0,0,4.032,1.064,3.436,3.436,0,0,0,2.17-.588,1.871,1.871,0,0,0,.742-1.54,2.1,2.1,0,0,0-.77-1.736,10.4,10.4,0,0,0-2.534-1.316,9.053,9.053,0,0,1-2.716-1.568,3.127,3.127,0,0,1-1.008-2.464,3.336,3.336,0,0,1,1.26-2.73,4.86,4.86,0,0,1,3.164-1.022A7.774,7.774,0,0,1,127.65,16.308ZM137.59,28.6a3.858,3.858,0,0,0,3.136-1.526,6.776,6.776,0,0,0,1.232-4.354,6.317,6.317,0,0,0-1.19-3.976,3.654,3.654,0,0,0-3.01-1.54,4.26,4.26,0,0,0-3.136,1.33q-1.316,1.33-1.316,4.438a7.794,7.794,0,0,0,.434,2.73,4.293,4.293,0,0,0,1.12,1.764,4.663,4.663,0,0,0,1.372.868A3.736,3.736,0,0,0,137.59,28.6Zm-4.284-12.8v2.072a4.9,4.9,0,0,1,4.4-2.3,5.287,5.287,0,0,1,4.452,2.086,8.117,8.117,0,0,1,1.6,5.082,8.233,8.233,0,0,1-1.708,5.39,5.425,5.425,0,0,1-4.4,2.086,4.942,4.942,0,0,1-4.34-2.352V35.6H131.6V15.8Zm15.54,0v2.408a4.066,4.066,0,0,1,3.976-2.576q.2,0,.7.056v1.736a3.88,3.88,0,0,0-1.12-.168,3,3,0,0,0-2.534,1.5,5.759,5.759,0,0,0-1.022,3.318V30h-1.708V15.8Zm7.2,14.2V15.8h1.708V30Zm0-17.892a1.14,1.14,0,0,1-.336-.84,1.187,1.187,0,0,1,.336-.854,1.116,1.116,0,0,1,.84-.35,1.2,1.2,0,0,1,1.2,1.2,1.116,1.116,0,0,1-.35.84,1.187,1.187,0,0,1-.854.336A1.14,1.14,0,0,1,156.042,12.108Zm7.784,3.7V18.24a4.626,4.626,0,0,1,4.508-2.66,4.374,4.374,0,0,1,3.276,1.26,4.45,4.45,0,0,1,1.232,3.248V30h-1.708V20.62a3.482,3.482,0,0,0-.84-2.52,2.938,2.938,0,0,0-2.212-.868,3.989,3.989,0,0,0-3,1.33,5.017,5.017,0,0,0-1.26,3.6V30h-1.708V15.8ZM182,28.04a4.147,4.147,0,0,0,2.912-1.246,5.033,5.033,0,0,0,1.316-3.822,6.4,6.4,0,0,0-1.26-4.354,3.729,3.729,0,0,0-2.828-1.414A3.679,3.679,0,0,0,179,18.772a6.7,6.7,0,0,0-1.148,4.06,5.358,5.358,0,0,0,1.288,3.878A3.906,3.906,0,0,0,182,28.04ZM186.226,15.8h1.708v13.1a6.274,6.274,0,0,1-1.736,4.83,6.327,6.327,0,0,1-4.48,1.61,9.594,9.594,0,0,1-4.144-.812v-1.68a8.839,8.839,0,0,0,4,.868,4.8,4.8,0,0,0,3.388-1.162,4.75,4.75,0,0,0,1.26-3.654V27.06a4.585,4.585,0,0,1-4.256,2.6,5.547,5.547,0,0,1-4.186-1.82,6.878,6.878,0,0,1-1.722-4.928,8.427,8.427,0,0,1,1.582-5.264A4.983,4.983,0,0,1,181.8,15.58a4.618,4.618,0,0,1,4.424,2.716Z" transform="translate(834 1760)" fill="#3c9bcd"/>
    <g id="Group_116" data-name="Group 116">
      <path id="Path_73" data-name="Path 73" d="M2.988-5.287H7.873v1.529H2.988ZM3.139,0H1.322V-9.8H8.472v1.529H3.139Zm9.885.091a3.83,3.83,0,0,1-1.688-.353A2.545,2.545,0,0,1,10.2-1.35a3.806,3.806,0,0,1-.408-1.86V-7.475h1.75V-3.44A2.129,2.129,0,0,0,12-1.94a1.694,1.694,0,0,0,1.3.493A2.19,2.19,0,0,0,14.371-1.7a1.733,1.733,0,0,0,.716-.752,2.7,2.7,0,0,0,.258-1.244V-7.475h1.75V0H15.426V-2.017l.3.614a2.6,2.6,0,0,1-1.106,1.11A3.346,3.346,0,0,1,13.024.091ZM19.4,0V-10.388h1.75V0Zm4.052,0V-10.388H25.2V0Zm7.216.091a2.67,2.67,0,0,1-1.9-.635,2.454,2.454,0,0,1-.675-1.876v-6.7h1.75V-2.46a1.164,1.164,0,0,0,.274.826,1.007,1.007,0,0,0,.774.293,1.527,1.527,0,0,0,.97-.307l.5,1.247a2.136,2.136,0,0,1-.765.369A3.508,3.508,0,0,1,30.665.091Zm-3.8-6.116v-1.4h4.978v1.4ZM42.4.139a5.817,5.817,0,0,1-2.106-.371,4.979,4.979,0,0,1-1.675-1.051,4.809,4.809,0,0,1-1.1-1.6A5.071,5.071,0,0,1,37.12-4.9a5.071,5.071,0,0,1,.394-2.017,4.761,4.761,0,0,1,1.111-1.6,5.052,5.052,0,0,1,1.684-1.051,5.877,5.877,0,0,1,2.123-.371,5.92,5.92,0,0,1,2.237.4,4.436,4.436,0,0,1,1.694,1.193L45.213-7.223a3.714,3.714,0,0,0-1.239-.854,3.816,3.816,0,0,0-1.459-.273,3.934,3.934,0,0,0-1.432.253,3.353,3.353,0,0,0-1.133.715,3.184,3.184,0,0,0-.738,1.093A3.615,3.615,0,0,0,38.953-4.9a3.579,3.579,0,0,0,.259,1.373,3.246,3.246,0,0,0,.738,1.1,3.335,3.335,0,0,0,1.125.722,3.854,3.854,0,0,0,1.422.254,4.329,4.329,0,0,0,1.409-.232A3.786,3.786,0,0,0,45.2-2.461L46.23-1.107a5.316,5.316,0,0,1-1.776.93A6.873,6.873,0,0,1,42.4.139Zm2.119-1.483V-5.008H46.23v3.9ZM48.632,0V-9.8h4.282a6.07,6.07,0,0,1,2.793.613,4.613,4.613,0,0,1,1.879,1.711A4.814,4.814,0,0,1,58.26-4.9a4.818,4.818,0,0,1-.676,2.575A4.611,4.611,0,0,1,55.706-.613,6.07,6.07,0,0,1,52.913,0Zm1.817-1.54h2.373a4.086,4.086,0,0,0,1.908-.418,3.056,3.056,0,0,0,1.251-1.175A3.414,3.414,0,0,0,56.428-4.9a3.4,3.4,0,0,0-.446-1.773A3.07,3.07,0,0,0,54.73-7.842a4.086,4.086,0,0,0-1.908-.418H50.449ZM60.2,0V-9.8h4.023a5.443,5.443,0,0,1,2.233.417,3.214,3.214,0,0,1,1.437,1.2,3.387,3.387,0,0,1,.5,1.87,3.36,3.36,0,0,1-.5,1.856,3.223,3.223,0,0,1-1.437,1.2,5.432,5.432,0,0,1-2.233.418H61.2l.812-.841V0Zm1.817-3.482L61.2-4.371h2.942A2.762,2.762,0,0,0,65.95-4.88a1.762,1.762,0,0,0,.609-1.431,1.776,1.776,0,0,0-.609-1.443,2.762,2.762,0,0,0-1.807-.509H61.2l.812-.889ZM70.226,0V-9.8h4.023a5.443,5.443,0,0,1,2.233.417,3.214,3.214,0,0,1,1.437,1.2,3.387,3.387,0,0,1,.5,1.87,3.325,3.325,0,0,1-.5,1.849A3.222,3.222,0,0,1,76.482-3.27a5.463,5.463,0,0,1-2.233.416H71.231l.812-.822V0Zm6.4,0L74.147-3.558H76.1L78.6,0ZM72.043-3.482l-.812-.877h2.942a2.739,2.739,0,0,0,1.807-.515,1.78,1.78,0,0,0,.609-1.437,1.776,1.776,0,0,0-.609-1.443,2.762,2.762,0,0,0-1.807-.509H71.231l.812-.889Zm7.851.322V-4.627h3.859v1.466ZM87.981.091a6.672,6.672,0,0,1-1.8-.241,4.571,4.571,0,0,1-1.363-.589l.673-1.33a4.567,4.567,0,0,0,1.2.528,4.95,4.95,0,0,0,1.4.206,2.44,2.44,0,0,0,1.2-.22.678.678,0,0,0,.368-.607.521.521,0,0,0-.25-.464,1.931,1.931,0,0,0-.66-.247q-.41-.085-.9-.154t-.988-.189a3.607,3.607,0,0,1-.9-.347,1.8,1.8,0,0,1-.66-.624,1.931,1.931,0,0,1-.25-1.042,1.964,1.964,0,0,1,.4-1.231,2.594,2.594,0,0,1,1.139-.817,4.739,4.739,0,0,1,1.742-.29,7.007,7.007,0,0,1,1.528.172,4.177,4.177,0,0,1,1.277.482l-.673,1.33a3.478,3.478,0,0,0-1.07-.441,4.982,4.982,0,0,0-1.069-.119,2.35,2.35,0,0,0-1.185.234.693.693,0,0,0-.388.606.561.561,0,0,0,.25.5,2,2,0,0,0,.661.266q.41.1.9.166a9.924,9.924,0,0,1,.987.19,3.793,3.793,0,0,1,.9.342,1.77,1.77,0,0,1,.66.612,1.873,1.873,0,0,1,.25,1.024,1.894,1.894,0,0,1-.41,1.214,2.622,2.622,0,0,1-1.164.8A5.125,5.125,0,0,1,87.981.091ZM97.48,0V-1.516l-.09-.315V-4.481a1.544,1.544,0,0,0-.465-1.2A2.015,2.015,0,0,0,95.52-6.1a3.949,3.949,0,0,0-1.233.2,3.251,3.251,0,0,0-1.032.539l-.679-1.269A4.243,4.243,0,0,1,94.01-7.33a6.324,6.324,0,0,1,1.73-.236,3.692,3.692,0,0,1,2.51.778,3.028,3.028,0,0,1,.89,2.4V0ZM95.14.091a3.565,3.565,0,0,1-1.482-.285,2.25,2.25,0,0,1-.97-.794,2.027,2.027,0,0,1-.34-1.154,2.13,2.13,0,0,1,.3-1.132,2.075,2.075,0,0,1,.991-.8,4.638,4.638,0,0,1,1.815-.3h2.169v1.16H95.583a1.82,1.82,0,0,0-1.2.289.931.931,0,0,0-.31.709.885.885,0,0,0,.38.752,1.738,1.738,0,0,0,1.047.279,2.306,2.306,0,0,0,1.162-.291,1.65,1.65,0,0,0,.734-.864l.3,1.048a1.939,1.939,0,0,1-.9,1.018A3.366,3.366,0,0,1,95.14.091Zm15.667-7.658a3.49,3.49,0,0,1,1.6.351,2.508,2.508,0,0,1,1.086,1.076,3.877,3.877,0,0,1,.393,1.856V0h-1.75V-4.054a2.167,2.167,0,0,0-.439-1.484,1.584,1.584,0,0,0-1.244-.49,2.034,2.034,0,0,0-1.016.25,1.677,1.677,0,0,0-.686.74,2.787,2.787,0,0,0-.243,1.239V0h-1.75V-4.054a2.173,2.173,0,0,0-.437-1.484,1.583,1.583,0,0,0-1.246-.49,2.034,2.034,0,0,0-1.016.25,1.677,1.677,0,0,0-.686.74,2.787,2.787,0,0,0-.243,1.239V0h-1.75V-7.475h1.669v1.991l-.3-.592a2.556,2.556,0,0,1,1.095-1.106,3.467,3.467,0,0,1,1.655-.384,3.2,3.2,0,0,1,1.822.519,2.51,2.51,0,0,1,1.031,1.58l-.686-.239a2.875,2.875,0,0,1,1.2-1.351A3.682,3.682,0,0,1,110.807-7.566ZM118.434.091a6.672,6.672,0,0,1-1.8-.241,4.571,4.571,0,0,1-1.363-.589l.673-1.33a4.567,4.567,0,0,0,1.2.528,4.95,4.95,0,0,0,1.4.206,2.44,2.44,0,0,0,1.2-.22.678.678,0,0,0,.368-.607.521.521,0,0,0-.25-.464,1.931,1.931,0,0,0-.66-.247q-.41-.085-.9-.154t-.988-.189a3.607,3.607,0,0,1-.9-.347,1.8,1.8,0,0,1-.66-.624,1.931,1.931,0,0,1-.25-1.042,1.964,1.964,0,0,1,.4-1.231,2.594,2.594,0,0,1,1.139-.817,4.739,4.739,0,0,1,1.742-.29,7.007,7.007,0,0,1,1.528.172,4.177,4.177,0,0,1,1.277.482l-.673,1.33a3.478,3.478,0,0,0-1.07-.441,4.982,4.982,0,0,0-1.069-.119,2.35,2.35,0,0,0-1.185.234.693.693,0,0,0-.388.606.561.561,0,0,0,.25.5,2,2,0,0,0,.661.266q.41.1.9.166a9.924,9.924,0,0,1,.987.19,3.793,3.793,0,0,1,.9.342,1.77,1.77,0,0,1,.66.612,1.873,1.873,0,0,1,.25,1.024,1.894,1.894,0,0,1-.41,1.214,2.622,2.622,0,0,1-1.164.8A5.125,5.125,0,0,1,118.434.091ZM125.183,0l-3.2-7.475h1.81l2.765,6.594h-.894l2.846-6.594H130.2L126.984,0ZM135.64,0V-1.516l-.09-.315V-4.481a1.544,1.544,0,0,0-.465-1.2,2.015,2.015,0,0,0-1.406-.428,3.949,3.949,0,0,0-1.233.2,3.251,3.251,0,0,0-1.032.539l-.679-1.269a4.243,4.243,0,0,1,1.433-.693,6.324,6.324,0,0,1,1.73-.236,3.692,3.692,0,0,1,2.51.778,3.028,3.028,0,0,1,.89,2.4V0ZM133.3.091a3.565,3.565,0,0,1-1.482-.285,2.25,2.25,0,0,1-.97-.794,2.027,2.027,0,0,1-.34-1.154,2.13,2.13,0,0,1,.3-1.132,2.075,2.075,0,0,1,.991-.8,4.638,4.638,0,0,1,1.815-.3h2.169v1.16h-2.043a1.82,1.82,0,0,0-1.2.289.931.931,0,0,0-.31.709.885.885,0,0,0,.38.752,1.738,1.738,0,0,0,1.047.279,2.306,2.306,0,0,0,1.162-.291,1.651,1.651,0,0,0,.734-.864l.3,1.048a1.939,1.939,0,0,1-.9,1.018A3.366,3.366,0,0,1,133.3.091ZM139.537,0V-7.475h1.669v2.054l-.2-.6a2.307,2.307,0,0,1,1.053-1.155,3.732,3.732,0,0,1,1.793-.393V-5.9q-.112-.016-.206-.024t-.189-.008a2.162,2.162,0,0,0-1.583.578,2.325,2.325,0,0,0-.589,1.732V0Z" transform="translate(888 1861)" fill="#464646"/>
      <path id="Path_72" data-name="Path 72" d="M-.071,0,4.335-9.8h1.8L10.551,0h-1.9L4.86-8.829h.727L1.8,0ZM1.965-2.269,2.452-3.7H7.74l.5,1.429ZM14.658.091A3.83,3.83,0,0,1,12.97-.262,2.545,2.545,0,0,1,11.834-1.35a3.806,3.806,0,0,1-.408-1.86V-7.475h1.75V-3.44a2.129,2.129,0,0,0,.461,1.5,1.694,1.694,0,0,0,1.3.493A2.19,2.19,0,0,0,16.005-1.7a1.733,1.733,0,0,0,.716-.752,2.7,2.7,0,0,0,.258-1.244V-7.475h1.75V0H17.06V-2.017l.3.614a2.6,2.6,0,0,1-1.106,1.11A3.346,3.346,0,0,1,14.658.091Zm9.179,0a2.67,2.67,0,0,1-1.9-.635,2.454,2.454,0,0,1-.675-1.876v-6.7h1.75V-2.46a1.164,1.164,0,0,0,.274.826,1.007,1.007,0,0,0,.774.293,1.527,1.527,0,0,0,.97-.307l.5,1.247a2.136,2.136,0,0,1-.765.369A3.508,3.508,0,0,1,23.837.091Zm-3.8-6.116v-1.4h4.978v1.4ZM30.088.091A4.2,4.2,0,0,1,28.037-.4a3.683,3.683,0,0,1-1.419-1.361A3.779,3.779,0,0,1,26.1-3.741a3.749,3.749,0,0,1,.521-1.983,3.717,3.717,0,0,1,1.417-1.351,4.193,4.193,0,0,1,2.051-.491,4.243,4.243,0,0,1,2.059.49,3.643,3.643,0,0,1,1.417,1.349,3.794,3.794,0,0,1,.514,1.986,3.815,3.815,0,0,1-.512,1.981A3.625,3.625,0,0,1,32.145-.4,4.24,4.24,0,0,1,30.088.091Zm0-1.489a2.271,2.271,0,0,0,1.142-.284,2.034,2.034,0,0,0,.789-.816,2.558,2.558,0,0,0,.29-1.243,2.536,2.536,0,0,0-.29-1.246,2.047,2.047,0,0,0-.789-.808,2.258,2.258,0,0,0-1.136-.284,2.258,2.258,0,0,0-1.136.284,2.09,2.09,0,0,0-.8.808,2.493,2.493,0,0,0-.3,1.246,2.514,2.514,0,0,0,.3,1.243,2.078,2.078,0,0,0,.795.816A2.244,2.244,0,0,0,30.088-1.4ZM45.182-7.566a3.49,3.49,0,0,1,1.6.351,2.508,2.508,0,0,1,1.086,1.076,3.877,3.877,0,0,1,.393,1.856V0h-1.75V-4.054a2.167,2.167,0,0,0-.439-1.484,1.584,1.584,0,0,0-1.244-.49,2.034,2.034,0,0,0-1.016.25,1.677,1.677,0,0,0-.686.74A2.787,2.787,0,0,0,42.881-3.8V0h-1.75V-4.054a2.173,2.173,0,0,0-.437-1.484,1.583,1.583,0,0,0-1.246-.49,2.034,2.034,0,0,0-1.016.25,1.677,1.677,0,0,0-.686.74A2.787,2.787,0,0,0,37.5-3.8V0h-1.75V-7.475h1.669v1.991l-.3-.592a2.556,2.556,0,0,1,1.095-1.106,3.467,3.467,0,0,1,1.655-.384,3.2,3.2,0,0,1,1.822.519,2.51,2.51,0,0,1,1.031,1.58l-.686-.239a2.875,2.875,0,0,1,1.2-1.351A3.682,3.682,0,0,1,45.182-7.566ZM55.094,0V-1.516L55-1.832V-4.481a1.544,1.544,0,0,0-.465-1.2A2.015,2.015,0,0,0,53.133-6.1a3.949,3.949,0,0,0-1.233.2,3.251,3.251,0,0,0-1.032.539L50.19-6.638a4.243,4.243,0,0,1,1.433-.693,6.324,6.324,0,0,1,1.73-.236,3.692,3.692,0,0,1,2.51.778,3.028,3.028,0,0,1,.89,2.4V0ZM52.753.091A3.565,3.565,0,0,1,51.27-.194a2.25,2.25,0,0,1-.97-.794,2.027,2.027,0,0,1-.34-1.154,2.13,2.13,0,0,1,.3-1.132,2.075,2.075,0,0,1,.99-.8,4.638,4.638,0,0,1,1.815-.3h2.169v1.16H53.2a1.82,1.82,0,0,0-1.2.289.931.931,0,0,0-.31.709.885.885,0,0,0,.38.752,1.738,1.738,0,0,0,1.047.279A2.306,2.306,0,0,0,54.27-1.47,1.651,1.651,0,0,0,55-2.334l.3,1.048a1.939,1.939,0,0,1-.9,1.018A3.366,3.366,0,0,1,52.753.091Zm9.044,0a2.67,2.67,0,0,1-1.9-.635,2.454,2.454,0,0,1-.675-1.876v-6.7h1.75V-2.46a1.164,1.164,0,0,0,.274.826,1.007,1.007,0,0,0,.774.293,1.527,1.527,0,0,0,.97-.307l.5,1.247a2.136,2.136,0,0,1-.765.369A3.508,3.508,0,0,1,61.8.091ZM58-6.025v-1.4h4.978v1.4ZM64.928,0V-7.476h1.75V0Zm.882-8.708a1.1,1.1,0,0,1-.805-.308,1,1,0,0,1-.315-.742.994.994,0,0,1,.315-.749,1.118,1.118,0,0,1,.805-.3,1.149,1.149,0,0,1,.805.287.934.934,0,0,1,.315.721,1.068,1.068,0,0,1-.308.777A1.084,1.084,0,0,1,65.81-8.708ZM71.3.091a6.672,6.672,0,0,1-1.8-.241,4.571,4.571,0,0,1-1.363-.589l.673-1.33A4.567,4.567,0,0,0,70-1.54a4.95,4.95,0,0,0,1.4.206,2.44,2.44,0,0,0,1.2-.22.678.678,0,0,0,.368-.607.521.521,0,0,0-.25-.464,1.931,1.931,0,0,0-.66-.247q-.41-.085-.9-.154t-.988-.189a3.607,3.607,0,0,1-.9-.347,1.8,1.8,0,0,1-.66-.624,1.931,1.931,0,0,1-.25-1.042,1.964,1.964,0,0,1,.4-1.231,2.594,2.594,0,0,1,1.139-.817,4.739,4.739,0,0,1,1.742-.29,7.007,7.007,0,0,1,1.528.172,4.177,4.177,0,0,1,1.277.482l-.673,1.33a3.478,3.478,0,0,0-1.07-.441,4.982,4.982,0,0,0-1.069-.119,2.35,2.35,0,0,0-1.185.234.693.693,0,0,0-.388.606.561.561,0,0,0,.25.5,2,2,0,0,0,.661.266q.41.1.9.166a9.924,9.924,0,0,1,.987.19,3.793,3.793,0,0,1,.9.342,1.77,1.77,0,0,1,.66.612,1.873,1.873,0,0,1,.25,1.024,1.894,1.894,0,0,1-.41,1.214,2.622,2.622,0,0,1-1.164.8A5.125,5.125,0,0,1,71.3.091Zm8.411,0A4.585,4.585,0,0,1,77.533-.4a3.592,3.592,0,0,1-1.446-1.36,3.8,3.8,0,0,1-.513-1.976,3.884,3.884,0,0,1,.5-1.979A3.586,3.586,0,0,1,77.45-7.075a3.994,3.994,0,0,1,1.987-.492,3.932,3.932,0,0,1,1.953.478A3.453,3.453,0,0,1,82.736-5.74a4.112,4.112,0,0,1,.49,2.05q0,.107-.008.249t-.022.261H76.972V-4.34h5.3l-.69.369A2.186,2.186,0,0,0,81.316-5.1a2.016,2.016,0,0,0-.758-.77,2.189,2.189,0,0,0-1.117-.279,2.227,2.227,0,0,0-1.124.279,1.941,1.941,0,0,0-.758.776,2.409,2.409,0,0,0-.27,1.165v.281A2.28,2.28,0,0,0,77.6-2.465a2.078,2.078,0,0,0,.865.8,2.818,2.818,0,0,0,1.3.285,3.018,3.018,0,0,0,1.131-.2,2.489,2.489,0,0,0,.892-.615l.945,1.081a3.291,3.291,0,0,1-1.276.9A4.616,4.616,0,0,1,79.707.091ZM84.9,0V-7.475h1.669v2.054l-.2-.6a2.307,2.307,0,0,1,1.053-1.155,3.732,3.732,0,0,1,1.793-.393V-5.9q-.112-.016-.206-.024t-.189-.008a2.162,2.162,0,0,0-1.583.578,2.325,2.325,0,0,0-.589,1.732V0Zm8.9.091a2.67,2.67,0,0,1-1.9-.635,2.454,2.454,0,0,1-.675-1.876v-6.7h1.75V-2.46a1.164,1.164,0,0,0,.274.826,1.007,1.007,0,0,0,.774.293,1.527,1.527,0,0,0,.97-.307l.5,1.247a2.136,2.136,0,0,1-.765.369A3.508,3.508,0,0,1,93.8.091ZM90-6.025v-1.4h4.978v1.4Zm14.172,8.832a7.615,7.615,0,0,1-2.018-.269,4.331,4.331,0,0,1-1.623-.793l.784-1.315a3.784,3.784,0,0,0,1.245.656,4.849,4.849,0,0,0,1.522.246,2.492,2.492,0,0,0,1.808-.565,2.294,2.294,0,0,0,.572-1.7V-2.272l.14-1.685-.059-1.7v-1.82h1.669v6.339a3.88,3.88,0,0,1-1.037,2.987A4.278,4.278,0,0,1,104.175,2.807Zm-.214-3.142a4.064,4.064,0,0,1-1.934-.455,3.47,3.47,0,0,1-1.358-1.269,3.556,3.556,0,0,1-.5-1.9,3.555,3.555,0,0,1,.5-1.9,3.42,3.42,0,0,1,1.358-1.262,4.116,4.116,0,0,1,1.934-.448,3.755,3.755,0,0,1,1.7.38,2.849,2.849,0,0,1,1.213,1.18,4.117,4.117,0,0,1,.454,2.048,4.117,4.117,0,0,1-.454,2.049,2.893,2.893,0,0,1-1.213,1.187A3.7,3.7,0,0,1,103.961-.335Zm.255-1.489a2.508,2.508,0,0,0,1.184-.27,2.007,2.007,0,0,0,.8-.751,2.115,2.115,0,0,0,.29-1.113,2.113,2.113,0,0,0-.29-1.114,1.961,1.961,0,0,0-.8-.743,2.563,2.563,0,0,0-1.184-.263,2.575,2.575,0,0,0-1.177.263,1.958,1.958,0,0,0-.811.743,2.108,2.108,0,0,0-.291,1.114,2.11,2.11,0,0,0,.291,1.113,2,2,0,0,0,.811.751A2.519,2.519,0,0,0,104.216-1.824Zm5.528,4.638a4.008,4.008,0,0,1-.931-.105,2.076,2.076,0,0,1-.749-.329l.5-1.3a1.7,1.7,0,0,0,1.022.294.938.938,0,0,0,.742-.3A1.306,1.306,0,0,0,110.6.182V-7.476h1.75V.14a2.733,2.733,0,0,1-.679,1.953A2.516,2.516,0,0,1,109.744,2.814Zm1.722-11.522a1.1,1.1,0,0,1-.805-.308,1,1,0,0,1-.315-.742.994.994,0,0,1,.315-.749,1.118,1.118,0,0,1,.805-.3,1.149,1.149,0,0,1,.805.287.934.934,0,0,1,.315.721,1.068,1.068,0,0,1-.308.777A1.084,1.084,0,0,1,111.466-8.708Zm6.687,8.8A4.585,4.585,0,0,1,115.979-.4a3.592,3.592,0,0,1-1.446-1.36,3.8,3.8,0,0,1-.513-1.976,3.884,3.884,0,0,1,.5-1.979A3.586,3.586,0,0,1,115.9-7.075a3.994,3.994,0,0,1,1.987-.492,3.932,3.932,0,0,1,1.953.478,3.453,3.453,0,0,1,1.345,1.348,4.112,4.112,0,0,1,.49,2.05q0,.107-.008.249t-.022.261h-6.223V-4.34h5.3l-.69.369a2.186,2.186,0,0,0-.265-1.135,2.016,2.016,0,0,0-.758-.77,2.189,2.189,0,0,0-1.117-.279,2.227,2.227,0,0,0-1.124.279,1.941,1.941,0,0,0-.758.776,2.409,2.409,0,0,0-.27,1.165v.281a2.28,2.28,0,0,0,.306,1.187,2.078,2.078,0,0,0,.865.8,2.818,2.818,0,0,0,1.3.285,3.018,3.018,0,0,0,1.131-.2,2.489,2.489,0,0,0,.892-.615l.945,1.081a3.291,3.291,0,0,1-1.276.9A4.616,4.616,0,0,1,118.154.091Zm9.429-7.658a3.549,3.549,0,0,1,1.608.351A2.577,2.577,0,0,1,130.3-6.139a3.765,3.765,0,0,1,.407,1.856V0h-1.75V-4.054a2.085,2.085,0,0,0-.465-1.484,1.725,1.725,0,0,0-1.314-.49,2.3,2.3,0,0,0-1.089.251,1.721,1.721,0,0,0-.733.745,2.688,2.688,0,0,0-.258,1.251V0h-1.75V-7.475h1.669v2.021l-.3-.62a2.609,2.609,0,0,1,1.138-1.107A3.727,3.727,0,0,1,127.583-7.566Zm9.6,0a3.549,3.549,0,0,1,1.608.351A2.577,2.577,0,0,1,139.9-6.139a3.765,3.765,0,0,1,.407,1.856V0h-1.75V-4.054a2.085,2.085,0,0,0-.465-1.484,1.725,1.725,0,0,0-1.314-.49,2.3,2.3,0,0,0-1.089.251,1.721,1.721,0,0,0-.733.745,2.688,2.688,0,0,0-.258,1.251V0h-1.75V-7.475h1.669v2.021l-.3-.62a2.609,2.609,0,0,1,1.138-1.107A3.727,3.727,0,0,1,137.179-7.566ZM145.922.091a4.2,4.2,0,0,1-2.05-.493,3.683,3.683,0,0,1-1.419-1.361,3.779,3.779,0,0,1-.519-1.979,3.749,3.749,0,0,1,.521-1.983,3.717,3.717,0,0,1,1.417-1.351,4.193,4.193,0,0,1,2.051-.491,4.243,4.243,0,0,1,2.059.49A3.643,3.643,0,0,1,149.4-5.727a3.794,3.794,0,0,1,.514,1.986A3.815,3.815,0,0,1,149.4-1.76,3.625,3.625,0,0,1,147.979-.4,4.24,4.24,0,0,1,145.922.091Zm0-1.489a2.271,2.271,0,0,0,1.142-.284,2.034,2.034,0,0,0,.789-.816,2.558,2.558,0,0,0,.29-1.243,2.536,2.536,0,0,0-.29-1.246,2.047,2.047,0,0,0-.789-.808,2.258,2.258,0,0,0-1.136-.284,2.258,2.258,0,0,0-1.136.284,2.09,2.09,0,0,0-.8.808,2.493,2.493,0,0,0-.3,1.246A2.514,2.514,0,0,0,144-2.5a2.078,2.078,0,0,0,.795.816A2.244,2.244,0,0,0,145.922-1.4Zm15.095-6.169a3.49,3.49,0,0,1,1.6.351A2.508,2.508,0,0,1,163.7-6.139a3.877,3.877,0,0,1,.393,1.856V0h-1.75V-4.054a2.167,2.167,0,0,0-.439-1.484,1.584,1.584,0,0,0-1.244-.49,2.034,2.034,0,0,0-1.016.25,1.677,1.677,0,0,0-.686.74,2.787,2.787,0,0,0-.243,1.239V0h-1.75V-4.054a2.173,2.173,0,0,0-.437-1.484,1.583,1.583,0,0,0-1.246-.49,2.034,2.034,0,0,0-1.016.25,1.677,1.677,0,0,0-.686.74,2.787,2.787,0,0,0-.243,1.239V0h-1.75V-7.475h1.669v1.991l-.3-.592a2.556,2.556,0,0,1,1.095-1.106,3.467,3.467,0,0,1,1.655-.384,3.2,3.2,0,0,1,1.822.519,2.51,2.51,0,0,1,1.031,1.58l-.686-.239a2.875,2.875,0,0,1,1.2-1.351A3.682,3.682,0,0,1,161.017-7.566ZM168.967,0l4.406-9.8h1.8L179.589,0h-1.9L173.9-8.829h.727L170.84,0ZM171-2.269,171.49-3.7h5.288l.5,1.429ZM180.84,0V-9.8h4.023a5.443,5.443,0,0,1,2.233.417,3.214,3.214,0,0,1,1.437,1.2,3.387,3.387,0,0,1,.5,1.87,3.36,3.36,0,0,1-.5,1.856,3.223,3.223,0,0,1-1.437,1.2,5.432,5.432,0,0,1-2.233.418h-3.018l.812-.841V0Zm1.817-3.482-.812-.889h2.942a2.762,2.762,0,0,0,1.807-.509,1.762,1.762,0,0,0,.609-1.431,1.776,1.776,0,0,0-.609-1.443,2.762,2.762,0,0,0-1.807-.509h-2.942l.812-.889ZM190.87,0V-9.8h1.817V0Z" transform="translate(888 1918)" fill="#464646"/>
      <path id="Path_71" data-name="Path 71" d="M5.892.139A5.817,5.817,0,0,1,3.787-.232,4.979,4.979,0,0,1,2.111-1.283a4.809,4.809,0,0,1-1.1-1.6A5.071,5.071,0,0,1,.613-4.9a5.071,5.071,0,0,1,.394-2.017,4.761,4.761,0,0,1,1.111-1.6A5.052,5.052,0,0,1,3.8-9.568a5.877,5.877,0,0,1,2.123-.371,5.92,5.92,0,0,1,2.237.4A4.436,4.436,0,0,1,9.857-8.341L8.706-7.223a3.714,3.714,0,0,0-1.239-.854,3.816,3.816,0,0,0-1.459-.273A3.934,3.934,0,0,0,4.576-8.1a3.353,3.353,0,0,0-1.133.715,3.184,3.184,0,0,0-.738,1.093A3.615,3.615,0,0,0,2.446-4.9a3.579,3.579,0,0,0,.259,1.373,3.246,3.246,0,0,0,.738,1.1A3.335,3.335,0,0,0,4.568-1.7a3.854,3.854,0,0,0,1.422.254A4.329,4.329,0,0,0,7.4-1.682a3.786,3.786,0,0,0,1.292-.779L9.723-1.107a5.316,5.316,0,0,1-1.776.93A6.873,6.873,0,0,1,5.892.139ZM8.011-1.344V-5.008H9.723v3.9ZM16.551,0V-1.516l-.09-.315V-4.481A1.544,1.544,0,0,0,16-5.676,2.015,2.015,0,0,0,14.591-6.1a3.949,3.949,0,0,0-1.233.2,3.251,3.251,0,0,0-1.032.539l-.679-1.269A4.243,4.243,0,0,1,13.08-7.33a6.324,6.324,0,0,1,1.73-.236,3.692,3.692,0,0,1,2.51.778,3.028,3.028,0,0,1,.89,2.4V0ZM14.21.091a3.565,3.565,0,0,1-1.482-.285,2.25,2.25,0,0,1-.97-.794,2.027,2.027,0,0,1-.34-1.154,2.13,2.13,0,0,1,.3-1.132,2.075,2.075,0,0,1,.991-.8,4.638,4.638,0,0,1,1.815-.3H16.7v1.16H14.653a1.82,1.82,0,0,0-1.2.289.931.931,0,0,0-.31.709.885.885,0,0,0,.38.752,1.738,1.738,0,0,0,1.047.279,2.306,2.306,0,0,0,1.162-.291,1.65,1.65,0,0,0,.734-.864l.3,1.048a1.939,1.939,0,0,1-.9,1.018A3.366,3.366,0,0,1,14.21.091ZM20.446,0V-7.476H22.2V0Zm.882-8.708a1.1,1.1,0,0,1-.805-.308,1,1,0,0,1-.315-.742.994.994,0,0,1,.315-.749,1.118,1.118,0,0,1,.805-.3,1.149,1.149,0,0,1,.8.287.934.934,0,0,1,.315.721,1.068,1.068,0,0,1-.308.777A1.084,1.084,0,0,1,21.328-8.708ZM29.1,0V-1.516l-.09-.315V-4.481a1.544,1.544,0,0,0-.465-1.2A2.015,2.015,0,0,0,27.138-6.1a3.949,3.949,0,0,0-1.233.2,3.251,3.251,0,0,0-1.032.539l-.679-1.269a4.243,4.243,0,0,1,1.433-.693,6.324,6.324,0,0,1,1.73-.236,3.692,3.692,0,0,1,2.51.778,3.028,3.028,0,0,1,.89,2.4V0ZM26.757.091a3.565,3.565,0,0,1-1.482-.285,2.25,2.25,0,0,1-.97-.794,2.027,2.027,0,0,1-.34-1.154,2.13,2.13,0,0,1,.3-1.132,2.075,2.075,0,0,1,.99-.8,4.638,4.638,0,0,1,1.815-.3h2.169v1.16H27.2a1.82,1.82,0,0,0-1.2.289.931.931,0,0,0-.31.709.885.885,0,0,0,.38.752,1.738,1.738,0,0,0,1.047.279,2.306,2.306,0,0,0,1.162-.291,1.65,1.65,0,0,0,.734-.864l.3,1.048a1.939,1.939,0,0,1-.9,1.018A3.366,3.366,0,0,1,26.757.091Zm5.851-3.252V-4.627h3.859v1.466ZM37.074,0l4.136-5.689,0,1.371L37.273-9.8h2.064l2.927,4.055-.851.014L44.322-9.8h1.971L42.382-4.408V-5.728L46.54,0h-2.1L41.369-4.308l.819,0L39.158,0ZM61.1-7.566a3.49,3.49,0,0,1,1.6.351,2.508,2.508,0,0,1,1.086,1.076,3.877,3.877,0,0,1,.393,1.856V0h-1.75V-4.054a2.167,2.167,0,0,0-.439-1.484,1.584,1.584,0,0,0-1.244-.49,2.034,2.034,0,0,0-1.016.25,1.677,1.677,0,0,0-.686.74A2.787,2.787,0,0,0,58.8-3.8V0h-1.75V-4.054a2.173,2.173,0,0,0-.437-1.484,1.583,1.583,0,0,0-1.246-.49,2.034,2.034,0,0,0-1.016.25,1.677,1.677,0,0,0-.686.74A2.787,2.787,0,0,0,53.419-3.8V0h-1.75V-7.475h1.669v1.991l-.3-.592a2.556,2.556,0,0,1,1.095-1.106,3.467,3.467,0,0,1,1.655-.384,3.2,3.2,0,0,1,1.822.519,2.51,2.51,0,0,1,1.031,1.58l-.686-.239a2.875,2.875,0,0,1,1.2-1.351A3.682,3.682,0,0,1,61.1-7.566ZM69.939.091A4.585,4.585,0,0,1,67.764-.4a3.592,3.592,0,0,1-1.446-1.36A3.8,3.8,0,0,1,65.8-3.738a3.884,3.884,0,0,1,.5-1.979,3.586,3.586,0,0,1,1.377-1.357,3.994,3.994,0,0,1,1.987-.492,3.932,3.932,0,0,1,1.953.478A3.453,3.453,0,0,1,72.967-5.74a4.112,4.112,0,0,1,.49,2.05q0,.107-.008.249t-.022.261H67.2V-4.34h5.3l-.69.369A2.186,2.186,0,0,0,71.548-5.1a2.016,2.016,0,0,0-.758-.77,2.189,2.189,0,0,0-1.117-.279,2.227,2.227,0,0,0-1.124.279,1.941,1.941,0,0,0-.758.776,2.409,2.409,0,0,0-.27,1.165v.281a2.28,2.28,0,0,0,.306,1.187,2.078,2.078,0,0,0,.865.8,2.818,2.818,0,0,0,1.3.285,3.018,3.018,0,0,0,1.131-.2,2.489,2.489,0,0,0,.892-.615l.945,1.081a3.291,3.291,0,0,1-1.276.9A4.616,4.616,0,0,1,69.939.091Zm8.359,0A3.926,3.926,0,0,1,76.36-.386a3.473,3.473,0,0,1-1.351-1.335,3.989,3.989,0,0,1-.492-2.017,3.989,3.989,0,0,1,.492-2.017A3.467,3.467,0,0,1,76.36-7.09,3.932,3.932,0,0,1,78.3-7.566a3.374,3.374,0,0,1,1.676.415,2.939,2.939,0,0,1,1.178,1.259,4.68,4.68,0,0,1,.436,2.154,4.84,4.84,0,0,1-.421,2.15A2.84,2.84,0,0,1,80.005-.323,3.441,3.441,0,0,1,78.3.091ZM78.506-1.4a2.245,2.245,0,0,0,1.13-.284,2.076,2.076,0,0,0,.8-.816,2.511,2.511,0,0,0,.3-1.241,2.5,2.5,0,0,0-.3-1.247,2.09,2.09,0,0,0-.8-.808,2.245,2.245,0,0,0-1.13-.284,2.246,2.246,0,0,0-1.13.284,2.089,2.089,0,0,0-.8.808,2.5,2.5,0,0,0-.3,1.247,2.511,2.511,0,0,0,.3,1.241,2.075,2.075,0,0,0,.8.816A2.246,2.246,0,0,0,78.506-1.4ZM80.776,0V-1.767l.059-1.983L80.7-5.734v-4.654h1.75V0Zm3.971,0V-10.388H86.5V0Zm7.561.091A4.585,4.585,0,0,1,90.133-.4a3.592,3.592,0,0,1-1.446-1.36,3.8,3.8,0,0,1-.513-1.976,3.884,3.884,0,0,1,.5-1.979,3.586,3.586,0,0,1,1.377-1.357,3.994,3.994,0,0,1,1.987-.492,3.932,3.932,0,0,1,1.953.478A3.453,3.453,0,0,1,95.336-5.74a4.112,4.112,0,0,1,.49,2.05q0,.107-.008.249t-.022.261H89.573V-4.34h5.3l-.69.369A2.186,2.186,0,0,0,93.917-5.1a2.016,2.016,0,0,0-.758-.77,2.189,2.189,0,0,0-1.117-.279,2.227,2.227,0,0,0-1.124.279,1.941,1.941,0,0,0-.758.776,2.409,2.409,0,0,0-.27,1.165v.281A2.28,2.28,0,0,0,90.2-2.465a2.078,2.078,0,0,0,.865.8,2.818,2.818,0,0,0,1.3.285,3.018,3.018,0,0,0,1.131-.2A2.489,2.489,0,0,0,94.38-2.2l.945,1.081a3.291,3.291,0,0,1-1.276.9A4.616,4.616,0,0,1,92.308.091Zm14.623-7.658a3.49,3.49,0,0,1,1.6.351,2.508,2.508,0,0,1,1.086,1.076,3.877,3.877,0,0,1,.393,1.856V0h-1.75V-4.054a2.167,2.167,0,0,0-.439-1.484,1.584,1.584,0,0,0-1.244-.49,2.034,2.034,0,0,0-1.016.25,1.677,1.677,0,0,0-.686.74A2.787,2.787,0,0,0,104.63-3.8V0h-1.75V-4.054a2.173,2.173,0,0,0-.437-1.484,1.583,1.583,0,0,0-1.246-.49,2.034,2.034,0,0,0-1.016.25,1.677,1.677,0,0,0-.686.74A2.787,2.787,0,0,0,99.253-3.8V0H97.5V-7.475h1.669v1.991l-.3-.592a2.556,2.556,0,0,1,1.095-1.106,3.467,3.467,0,0,1,1.655-.384,3.2,3.2,0,0,1,1.822.519,2.51,2.51,0,0,1,1.031,1.58l-.686-.239a2.875,2.875,0,0,1,1.2-1.351A3.682,3.682,0,0,1,106.932-7.566Z" transform="translate(888 1975)" fill="#464646"/>
      <path id="Path_70" data-name="Path 70" d="M1.322,0V-9.8H3.139v8.262H8.258V0Zm11.5.091A4.2,4.2,0,0,1,10.773-.4,3.683,3.683,0,0,1,9.354-1.762a3.779,3.779,0,0,1-.519-1.979,3.749,3.749,0,0,1,.521-1.983,3.717,3.717,0,0,1,1.417-1.351,4.193,4.193,0,0,1,2.051-.491,4.243,4.243,0,0,1,2.059.49A3.643,3.643,0,0,1,16.3-5.727a3.794,3.794,0,0,1,.514,1.986A3.815,3.815,0,0,1,16.3-1.76,3.625,3.625,0,0,1,14.88-.4,4.24,4.24,0,0,1,12.823.091Zm0-1.489a2.271,2.271,0,0,0,1.142-.284,2.034,2.034,0,0,0,.789-.816,2.558,2.558,0,0,0,.29-1.243,2.536,2.536,0,0,0-.29-1.246,2.047,2.047,0,0,0-.789-.808,2.258,2.258,0,0,0-1.136-.284,2.258,2.258,0,0,0-1.136.284,2.09,2.09,0,0,0-.8.808,2.493,2.493,0,0,0-.3,1.246A2.514,2.514,0,0,0,10.9-2.5a2.078,2.078,0,0,0,.795.816A2.244,2.244,0,0,0,12.823-1.4Zm7.092-.265.046-2.2,3.9-3.613h2.1L22.638-4.148l-.924.774ZM18.489,0V-10.388h1.75V0Zm5.64,0L21.395-3.379l1.1-1.394L26.256,0Zm7.727,0V-1.516l-.09-.315V-4.481a1.544,1.544,0,0,0-.465-1.2A2.015,2.015,0,0,0,29.9-6.1a3.949,3.949,0,0,0-1.233.2,3.251,3.251,0,0,0-1.032.539l-.679-1.269a4.243,4.243,0,0,1,1.433-.693,6.324,6.324,0,0,1,1.73-.236,3.692,3.692,0,0,1,2.51.778,3.028,3.028,0,0,1,.89,2.4V0ZM29.515.091a3.565,3.565,0,0,1-1.482-.285,2.25,2.25,0,0,1-.97-.794,2.027,2.027,0,0,1-.34-1.154,2.13,2.13,0,0,1,.3-1.132,2.075,2.075,0,0,1,.99-.8,4.638,4.638,0,0,1,1.815-.3H32v1.16H29.958a1.82,1.82,0,0,0-1.2.289.931.931,0,0,0-.31.709.885.885,0,0,0,.38.752,1.738,1.738,0,0,0,1.047.279,2.306,2.306,0,0,0,1.162-.291,1.65,1.65,0,0,0,.734-.864l.3,1.048a1.939,1.939,0,0,1-.9,1.018A3.366,3.366,0,0,1,29.515.091ZM35.753,0V-10.388H37.5V0ZM46.867.139a7.312,7.312,0,0,1-2.2-.329A4.81,4.81,0,0,1,43-1.04l.637-1.409a5.022,5.022,0,0,0,1.457.773,5.3,5.3,0,0,0,1.777.306,3.83,3.83,0,0,0,1.243-.167,1.467,1.467,0,0,0,.7-.456,1.041,1.041,0,0,0,.224-.653.9.9,0,0,0-.318-.719,2.428,2.428,0,0,0-.832-.436q-.514-.166-1.136-.3T45.5-4.43a5.2,5.2,0,0,1-1.137-.494,2.451,2.451,0,0,1-.832-.8,2.356,2.356,0,0,1-.318-1.285,2.657,2.657,0,0,1,.426-1.464,2.938,2.938,0,0,1,1.3-1.063,5.351,5.351,0,0,1,2.216-.4,7.044,7.044,0,0,1,1.753.222,5.056,5.056,0,0,1,1.516.644l-.579,1.419a5.163,5.163,0,0,0-1.352-.589,5.186,5.186,0,0,0-1.353-.188,3.462,3.462,0,0,0-1.219.182,1.475,1.475,0,0,0-.692.48,1.119,1.119,0,0,0-.216.674.89.89,0,0,0,.318.716,2.352,2.352,0,0,0,.832.428q.513.159,1.137.3t1.246.326a5.179,5.179,0,0,1,1.136.481,2.4,2.4,0,0,1,.832.8,2.323,2.323,0,0,1,.318,1.27,2.606,2.606,0,0,1-.432,1.45A2.982,2.982,0,0,1,49.09-.262,5.382,5.382,0,0,1,46.867.139ZM55.639.091a3.83,3.83,0,0,1-1.688-.353A2.545,2.545,0,0,1,52.815-1.35a3.806,3.806,0,0,1-.408-1.86V-7.475h1.75V-3.44a2.129,2.129,0,0,0,.461,1.5,1.694,1.694,0,0,0,1.3.493A2.19,2.19,0,0,0,56.986-1.7,1.733,1.733,0,0,0,57.7-2.45a2.7,2.7,0,0,0,.258-1.244V-7.475h1.75V0H58.041V-2.017l.3.614a2.6,2.6,0,0,1-1.106,1.11A3.346,3.346,0,0,1,55.639.091Zm10.52,0a3.386,3.386,0,0,1-1.67-.415,2.919,2.919,0,0,1-1.185-1.265,4.689,4.689,0,0,1-.436-2.148,4.831,4.831,0,0,1,.421-2.157,2.835,2.835,0,0,1,1.169-1.258,3.451,3.451,0,0,1,1.7-.414,3.915,3.915,0,0,1,1.945.477,3.486,3.486,0,0,1,1.344,1.335,3.989,3.989,0,0,1,.492,2.017,3.989,3.989,0,0,1-.492,2.017A3.48,3.48,0,0,1,68.1-.385,3.921,3.921,0,0,1,66.159.091ZM62.012,2.716V-7.475h1.669v1.767l-.059,1.983.14,1.983V2.716ZM65.952-1.4a2.246,2.246,0,0,0,1.13-.284,2.076,2.076,0,0,0,.8-.815,2.506,2.506,0,0,0,.3-1.24,2.5,2.5,0,0,0-.3-1.248,2.087,2.087,0,0,0-.8-.809,2.246,2.246,0,0,0-1.13-.284,2.246,2.246,0,0,0-1.13.284,2.087,2.087,0,0,0-.8.809,2.5,2.5,0,0,0-.3,1.248,2.506,2.506,0,0,0,.3,1.24,2.076,2.076,0,0,0,.8.815A2.246,2.246,0,0,0,65.952-1.4ZM75.764.091a3.386,3.386,0,0,1-1.67-.415A2.919,2.919,0,0,1,72.91-1.589a4.689,4.689,0,0,1-.436-2.148A4.831,4.831,0,0,1,72.9-5.894a2.835,2.835,0,0,1,1.169-1.258,3.451,3.451,0,0,1,1.7-.414,3.915,3.915,0,0,1,1.945.477,3.486,3.486,0,0,1,1.344,1.335,3.989,3.989,0,0,1,.492,2.017,3.989,3.989,0,0,1-.492,2.017A3.48,3.48,0,0,1,77.71-.385,3.921,3.921,0,0,1,75.764.091ZM71.617,2.716V-7.475h1.669v1.767l-.059,1.983.14,1.983V2.716ZM75.557-1.4a2.246,2.246,0,0,0,1.13-.284,2.076,2.076,0,0,0,.8-.815,2.506,2.506,0,0,0,.3-1.24,2.5,2.5,0,0,0-.3-1.248,2.087,2.087,0,0,0-.8-.809,2.246,2.246,0,0,0-1.13-.284,2.246,2.246,0,0,0-1.13.284,2.087,2.087,0,0,0-.8.809,2.5,2.5,0,0,0-.3,1.248,2.506,2.506,0,0,0,.3,1.24,2.076,2.076,0,0,0,.8.815A2.246,2.246,0,0,0,75.557-1.4ZM84.585.091A4.2,4.2,0,0,1,82.535-.4a3.683,3.683,0,0,1-1.419-1.361A3.779,3.779,0,0,1,80.6-3.741a3.749,3.749,0,0,1,.521-1.983,3.716,3.716,0,0,1,1.417-1.351,4.193,4.193,0,0,1,2.051-.491,4.243,4.243,0,0,1,2.059.49A3.643,3.643,0,0,1,88.06-5.727a3.794,3.794,0,0,1,.514,1.986,3.815,3.815,0,0,1-.512,1.981A3.625,3.625,0,0,1,86.643-.4,4.24,4.24,0,0,1,84.585.091Zm0-1.489a2.271,2.271,0,0,0,1.142-.284,2.034,2.034,0,0,0,.789-.816,2.558,2.558,0,0,0,.29-1.243,2.536,2.536,0,0,0-.29-1.246,2.047,2.047,0,0,0-.789-.808,2.258,2.258,0,0,0-1.136-.284,2.258,2.258,0,0,0-1.136.284,2.09,2.09,0,0,0-.8.808,2.493,2.493,0,0,0-.3,1.246,2.514,2.514,0,0,0,.3,1.243,2.078,2.078,0,0,0,.795.816A2.244,2.244,0,0,0,84.585-1.4ZM90.251,0V-7.475H91.92v2.054l-.2-.6a2.307,2.307,0,0,1,1.053-1.155,3.732,3.732,0,0,1,1.793-.393V-5.9q-.112-.016-.206-.024t-.189-.008a2.162,2.162,0,0,0-1.583.578A2.325,2.325,0,0,0,92-3.621V0Zm8.9.091a2.67,2.67,0,0,1-1.9-.635,2.454,2.454,0,0,1-.675-1.876v-6.7h1.75V-2.46a1.164,1.164,0,0,0,.274.826,1.007,1.007,0,0,0,.774.293,1.527,1.527,0,0,0,.97-.307l.5,1.247a2.136,2.136,0,0,1-.765.369A3.508,3.508,0,0,1,99.151.091Zm-3.8-6.116v-1.4h4.978v1.4Z" transform="translate(888 2032)" fill="#464646"/>
    </g>
  </g>
</svg>
