<svg xmlns="http://www.w3.org/2000/svg" xmlns:xlink="http://www.w3.org/1999/xlink" width="336" height="382" viewBox="0 0 336 382">
  <defs>
    <filter id="Rectangle_14" x="0" y="0" width="336" height="382" filterUnits="userSpaceOnUse">
      <feOffset dy="3" input="SourceAlpha"/>
      <feGaussianBlur stdDeviation="3" result="blur"/>
      <feFlood flood-opacity="0.161"/>
      <feComposite operator="in" in2="blur"/>
      <feComposite in="SourceGraphic"/>
    </filter>
  </defs>
  <g id="safespring-list" transform="translate(-794 -1716)">
    <g transform="matrix(1, 0, 0, 1, 794, 1716)" filter="url(#Rectangle_14)">
      <rect id="Rectangle_14-2" data-name="Rectangle 14" width="318" height="364" rx="30" transform="translate(9 6)" fill="#fff"/>
    </g>
    <g id="Group_5" data-name="Group 5" transform="translate(842.25 863)">
      <path id="check-solid" d="M4.755,75.882.205,71.088a.766.766,0,0,1,0-1.043L1.2,69a.675.675,0,0,1,.99,0L5.25,72.231l6.565-6.917a.675.675,0,0,1,.99,0l.99,1.043a.766.766,0,0,1,0,1.043l-8.05,8.482a.675.675,0,0,1-.99,0Z" transform="translate(7 1092.902)" fill="#32cd32"/>
      <circle id="Ellipse_4" data-name="Ellipse 4" cx="14.5" cy="14.5" r="14.5" transform="translate(0 1149)" fill="rgba(50,205,50,0.1)"/>
    </g>
    <g id="Group_8" data-name="Group 8" transform="translate(842.25 806)">
      <path id="check-solid-2" data-name="check-solid" d="M4.755,75.882.205,71.088a.766.766,0,0,1,0-1.043L1.2,69a.675.675,0,0,1,.99,0L5.25,72.232l6.565-6.917a.675.675,0,0,1,.99,0l.99,1.043a.766.766,0,0,1,0,1.043l-8.05,8.482a.675.675,0,0,1-.99,0Z" transform="translate(7 1092.902)" fill="#32cd32"/>
      <circle id="Ellipse_4-2" data-name="Ellipse 4" cx="14.5" cy="14.5" r="14.5" transform="translate(0 1149)" fill="rgba(50,205,50,0.1)"/>
    </g>
    <g id="Group_7" data-name="Group 7" transform="translate(842.25 749)">
      <path id="check-solid-3" data-name="check-solid" d="M4.755,75.882.205,71.088a.766.766,0,0,1,0-1.043L1.2,69a.675.675,0,0,1,.99,0L5.25,72.232l6.565-6.917a.675.675,0,0,1,.99,0l.99,1.043a.766.766,0,0,1,0,1.043l-8.05,8.482a.675.675,0,0,1-.99,0Z" transform="translate(7 1092.902)" fill="#32cd32"/>
      <circle id="Ellipse_4-3" data-name="Ellipse 4" cx="14.5" cy="14.5" r="14.5" transform="translate(0 1149)" fill="rgba(50,205,50,0.1)"/>
    </g>
    <g id="Group_6" data-name="Group 6" transform="translate(842.25 692)">
      <path id="check-solid-4" data-name="check-solid" d="M4.755,75.882.205,71.088a.766.766,0,0,1,0-1.043L1.2,69a.675.675,0,0,1,.99,0L5.25,72.232l6.565-6.917a.675.675,0,0,1,.99,0l.99,1.043a.766.766,0,0,1,0,1.043l-8.05,8.482a.675.675,0,0,1-.99,0Z" transform="translate(7 1092.902)" fill="#32cd32"/>
      <circle id="Ellipse_4-4" data-name="Ellipse 4" cx="14.5" cy="14.5" r="14.5" transform="translate(0 1149)" fill="rgba(50,205,50,0.1)"/>
    </g>
    <path id="Path_73" data-name="Path 73" d="M1.316,0V-9.8h1.82v8.26H8.26V0ZM12.824.1A4.143,4.143,0,0,1,10.78-.4,3.714,3.714,0,0,1,9.366-1.764a3.777,3.777,0,0,1-.518-1.974,3.767,3.767,0,0,1,.518-1.981A3.678,3.678,0,0,1,10.78-7.07a4.19,4.19,0,0,1,2.044-.49,4.26,4.26,0,0,1,2.065.49A3.631,3.631,0,0,1,16.3-5.726a3.8,3.8,0,0,1,.511,1.988A3.817,3.817,0,0,1,16.3-1.764,3.649,3.649,0,0,1,14.889-.4,4.212,4.212,0,0,1,12.824.1Zm0-1.5a2.324,2.324,0,0,0,1.148-.28,1.981,1.981,0,0,0,.791-.812,2.586,2.586,0,0,0,.287-1.246,2.575,2.575,0,0,0-.287-1.253,1.991,1.991,0,0,0-.791-.8,2.3,2.3,0,0,0-1.134-.28A2.284,2.284,0,0,0,11.7-5.8a2.051,2.051,0,0,0-.791.8,2.526,2.526,0,0,0-.294,1.253,2.535,2.535,0,0,0,.294,1.246,2.04,2.04,0,0,0,.791.812A2.256,2.256,0,0,0,12.824-1.4Zm7.1-.266.042-2.2L23.87-7.476h2.1L22.652-4.144l-.924.77ZM18.494,0V-10.388h1.75V0Zm5.642,0-2.73-3.374,1.106-1.4L26.264,0Zm7.728,0V-1.512l-.1-.322V-4.48a1.549,1.549,0,0,0-.462-1.2A2,2,0,0,0,29.9-6.1a4.021,4.021,0,0,0-1.239.2,3.044,3.044,0,0,0-1.029.546L26.95-6.636a4.15,4.15,0,0,1,1.435-.693,6.44,6.44,0,0,1,1.729-.231,3.7,3.7,0,0,1,2.513.777,3.023,3.023,0,0,1,.889,2.4V0ZM29.512.1a3.516,3.516,0,0,1-1.47-.287,2.271,2.271,0,0,1-.973-.8,2.025,2.025,0,0,1-.343-1.155,2.169,2.169,0,0,1,.3-1.134,2.03,2.03,0,0,1,.987-.8,4.691,4.691,0,0,1,1.82-.294H32v1.162H29.96a1.823,1.823,0,0,0-1.2.287.928.928,0,0,0-.308.707.892.892,0,0,0,.378.756,1.733,1.733,0,0,0,1.05.28,2.274,2.274,0,0,0,1.155-.294,1.667,1.667,0,0,0,.735-.868l.294,1.05a1.945,1.945,0,0,1-.9,1.022A3.34,3.34,0,0,1,29.512.1ZM35.756,0V-10.388h1.75V0Zm10.22.1a6.542,6.542,0,0,1-1.8-.245,4.628,4.628,0,0,1-1.365-.595l.672-1.33a4.779,4.779,0,0,0,1.2.532,4.85,4.85,0,0,0,1.4.21,2.412,2.412,0,0,0,1.2-.224.679.679,0,0,0,.371-.6.523.523,0,0,0-.252-.469,1.96,1.96,0,0,0-.658-.245q-.406-.084-.9-.154t-.994-.189a3.43,3.43,0,0,1-.9-.35,1.871,1.871,0,0,1-.658-.623,1.892,1.892,0,0,1-.252-1.036,1.966,1.966,0,0,1,.406-1.239,2.592,2.592,0,0,1,1.141-.812,4.786,4.786,0,0,1,1.743-.287,7.142,7.142,0,0,1,1.526.168,4.13,4.13,0,0,1,1.274.476l-.672,1.33a3.544,3.544,0,0,0-1.071-.441,4.956,4.956,0,0,0-1.071-.119,2.3,2.3,0,0,0-1.183.238.7.7,0,0,0-.385.6A.565.565,0,0,0,45-4.8a2.056,2.056,0,0,0,.658.266,8.331,8.331,0,0,0,.9.161,8,8,0,0,1,.987.189,4.163,4.163,0,0,1,.9.343,1.739,1.739,0,0,1,.665.609,1.863,1.863,0,0,1,.252,1.022,1.9,1.9,0,0,1-.413,1.218,2.659,2.659,0,0,1-1.169.805A5.092,5.092,0,0,1,45.976.1ZM54.04.1a3.77,3.77,0,0,1-1.68-.357,2.562,2.562,0,0,1-1.134-1.092,3.8,3.8,0,0,1-.406-1.855v-4.27h1.75v4.032a2.166,2.166,0,0,0,.455,1.5,1.667,1.667,0,0,0,1.295.5,2.176,2.176,0,0,0,1.071-.252A1.752,1.752,0,0,0,56.1-2.45,2.706,2.706,0,0,0,56.364-3.7v-3.78h1.75V0H56.448V-2.016l.294.616A2.573,2.573,0,0,1,55.636-.287,3.361,3.361,0,0,1,54.04.1ZM64.554.1A3.333,3.333,0,0,1,62.9-.322a2.985,2.985,0,0,1-1.19-1.267,4.633,4.633,0,0,1-.441-2.149,4.752,4.752,0,0,1,.427-2.156A2.878,2.878,0,0,1,62.86-7.147a3.424,3.424,0,0,1,1.694-.413,3.918,3.918,0,0,1,1.953.476,3.536,3.536,0,0,1,1.344,1.33,3.938,3.938,0,0,1,.5,2.016,3.976,3.976,0,0,1-.5,2.023A3.522,3.522,0,0,1,66.507-.378,3.918,3.918,0,0,1,64.554.1ZM60.41,2.716V-7.476h1.666v1.764L62.02-3.724l.14,1.988V2.716ZM64.358-1.4a2.256,2.256,0,0,0,1.127-.28,2.04,2.04,0,0,0,.791-.812,2.535,2.535,0,0,0,.294-1.246,2.526,2.526,0,0,0-.294-1.253,2.051,2.051,0,0,0-.791-.8,2.256,2.256,0,0,0-1.127-.28,2.3,2.3,0,0,0-1.134.28,2.037,2.037,0,0,0-.8.8,2.526,2.526,0,0,0-.294,1.253,2.535,2.535,0,0,0,.294,1.246,2.026,2.026,0,0,0,.8.812A2.3,2.3,0,0,0,64.358-1.4Zm9.8,1.5A3.333,3.333,0,0,1,72.5-.322a2.985,2.985,0,0,1-1.19-1.267,4.633,4.633,0,0,1-.441-2.149,4.752,4.752,0,0,1,.427-2.156,2.878,2.878,0,0,1,1.169-1.253,3.424,3.424,0,0,1,1.694-.413,3.918,3.918,0,0,1,1.953.476,3.536,3.536,0,0,1,1.344,1.33,3.938,3.938,0,0,1,.5,2.016,3.976,3.976,0,0,1-.5,2.023A3.522,3.522,0,0,1,76.111-.378,3.918,3.918,0,0,1,74.158.1ZM70.014,2.716V-7.476H71.68v1.764l-.056,1.988.14,1.988V2.716ZM73.962-1.4a2.256,2.256,0,0,0,1.127-.28,2.04,2.04,0,0,0,.791-.812,2.535,2.535,0,0,0,.294-1.246,2.526,2.526,0,0,0-.294-1.253,2.051,2.051,0,0,0-.791-.8,2.256,2.256,0,0,0-1.127-.28,2.3,2.3,0,0,0-1.134.28,2.037,2.037,0,0,0-.8.8,2.526,2.526,0,0,0-.294,1.253,2.535,2.535,0,0,0,.294,1.246,2.026,2.026,0,0,0,.8.812A2.3,2.3,0,0,0,73.962-1.4ZM82.978.1a4.143,4.143,0,0,1-2.044-.5A3.714,3.714,0,0,1,79.52-1.764,3.777,3.777,0,0,1,79-3.738a3.767,3.767,0,0,1,.518-1.981A3.678,3.678,0,0,1,80.934-7.07a4.19,4.19,0,0,1,2.044-.49,4.26,4.26,0,0,1,2.065.49,3.631,3.631,0,0,1,1.414,1.344,3.8,3.8,0,0,1,.511,1.988,3.817,3.817,0,0,1-.511,1.974A3.649,3.649,0,0,1,85.043-.4,4.212,4.212,0,0,1,82.978.1Zm0-1.5a2.324,2.324,0,0,0,1.148-.28,1.981,1.981,0,0,0,.791-.812A2.585,2.585,0,0,0,85.2-3.738a2.575,2.575,0,0,0-.287-1.253,1.991,1.991,0,0,0-.791-.8,2.3,2.3,0,0,0-1.134-.28,2.284,2.284,0,0,0-1.141.28,2.051,2.051,0,0,0-.791.8,2.526,2.526,0,0,0-.294,1.253,2.535,2.535,0,0,0,.294,1.246,2.04,2.04,0,0,0,.791.812A2.256,2.256,0,0,0,82.978-1.4ZM88.648,0V-7.476h1.666v2.058l-.2-.6a2.365,2.365,0,0,1,1.057-1.148,3.731,3.731,0,0,1,1.8-.392v1.666a1.231,1.231,0,0,0-.21-.035q-.1-.007-.2-.007a2.152,2.152,0,0,0-1.582.581A2.329,2.329,0,0,0,90.4-3.626V0Zm8.9.1a2.66,2.66,0,0,1-1.9-.637,2.474,2.474,0,0,1-.672-1.883V-9.128h1.75v6.664A1.168,1.168,0,0,0,97-1.638a.99.99,0,0,0,.763.294,1.537,1.537,0,0,0,.98-.308l.49,1.246a2.056,2.056,0,0,1-.756.378A3.4,3.4,0,0,1,97.552.1ZM93.744-6.02v-1.4h4.984v1.4Z" transform="translate(885.75 2031.876)" fill="#464646"/>
    <path id="Path_72" data-name="Path 72" d="M5.894.14A5.793,5.793,0,0,1,3.787-.231a5.036,5.036,0,0,1-1.673-1.05,4.743,4.743,0,0,1-1.106-1.6A5.109,5.109,0,0,1,.616-4.9a5.109,5.109,0,0,1,.392-2.016,4.7,4.7,0,0,1,1.113-1.6,5.1,5.1,0,0,1,1.687-1.05A5.849,5.849,0,0,1,5.922-9.94a5.931,5.931,0,0,1,2.247.406,4.406,4.406,0,0,1,1.687,1.19L8.708-7.224a3.79,3.79,0,0,0-1.239-.847,3.817,3.817,0,0,0-1.463-.273,3.96,3.96,0,0,0-1.428.252,3.3,3.3,0,0,0-1.134.714,3.2,3.2,0,0,0-.735,1.092A3.611,3.611,0,0,0,2.45-4.9a3.574,3.574,0,0,0,.259,1.372,3.272,3.272,0,0,0,.735,1.1,3.279,3.279,0,0,0,1.12.721,3.888,3.888,0,0,0,1.428.252A4.339,4.339,0,0,0,7.4-1.687a3.8,3.8,0,0,0,1.3-.777L9.73-1.106a5.376,5.376,0,0,1-1.785.931A6.884,6.884,0,0,1,5.894.14ZM8.008-1.344V-5.012H9.73v3.906ZM16.562,0V-1.512l-.1-.322V-4.48A1.549,1.549,0,0,0,16-5.677,2,2,0,0,0,14.6-6.1a4.021,4.021,0,0,0-1.239.2,3.044,3.044,0,0,0-1.029.546l-.686-1.274a4.15,4.15,0,0,1,1.435-.693,6.44,6.44,0,0,1,1.729-.231,3.7,3.7,0,0,1,2.513.777,3.023,3.023,0,0,1,.889,2.4V0ZM14.21.1a3.516,3.516,0,0,1-1.47-.287,2.271,2.271,0,0,1-.973-.8,2.025,2.025,0,0,1-.343-1.155,2.169,2.169,0,0,1,.3-1.134,2.03,2.03,0,0,1,.987-.8,4.691,4.691,0,0,1,1.82-.294H16.7v1.162H14.658a1.823,1.823,0,0,0-1.2.287.928.928,0,0,0-.308.707.892.892,0,0,0,.378.756,1.733,1.733,0,0,0,1.05.28,2.274,2.274,0,0,0,1.155-.294,1.667,1.667,0,0,0,.735-.868l.294,1.05a1.945,1.945,0,0,1-.9,1.022A3.34,3.34,0,0,1,14.21.1ZM20.454,0V-7.476H22.2V0Zm.882-8.708a1.1,1.1,0,0,1-.805-.308,1,1,0,0,1-.315-.742.994.994,0,0,1,.315-.749,1.118,1.118,0,0,1,.805-.3,1.149,1.149,0,0,1,.8.287.934.934,0,0,1,.315.721,1.068,1.068,0,0,1-.308.777A1.084,1.084,0,0,1,21.336-8.708ZM29.106,0V-1.512l-.1-.322V-4.48a1.549,1.549,0,0,0-.462-1.2,2,2,0,0,0-1.4-.427,4.021,4.021,0,0,0-1.239.2,3.044,3.044,0,0,0-1.029.546l-.686-1.274a4.15,4.15,0,0,1,1.435-.693,6.44,6.44,0,0,1,1.729-.231,3.7,3.7,0,0,1,2.513.777,3.023,3.023,0,0,1,.889,2.4V0ZM26.754.1a3.516,3.516,0,0,1-1.47-.287,2.271,2.271,0,0,1-.973-.8,2.025,2.025,0,0,1-.343-1.155,2.169,2.169,0,0,1,.3-1.134,2.03,2.03,0,0,1,.987-.8,4.691,4.691,0,0,1,1.82-.294h2.17v1.162H27.2a1.823,1.823,0,0,0-1.2.287.928.928,0,0,0-.308.707.892.892,0,0,0,.378.756,1.733,1.733,0,0,0,1.05.28,2.274,2.274,0,0,0,1.155-.294,1.667,1.667,0,0,0,.735-.868l.294,1.05a1.945,1.945,0,0,1-.9,1.022A3.34,3.34,0,0,1,26.754.1ZM32.62-3.164V-4.62h3.85v1.456ZM37.086,0l4.13-5.684v1.372L37.282-9.8H39.34l2.926,4.06-.84.014,2.9-4.074H46.3L42.392-4.41V-5.726L46.55,0h-2.1L41.37-4.312H42.2L39.158,0ZM61.11-7.56a3.477,3.477,0,0,1,1.589.35,2.5,2.5,0,0,1,1.085,1.071,3.865,3.865,0,0,1,.392,1.855V0h-1.75V-4.06a2.184,2.184,0,0,0-.434-1.484,1.577,1.577,0,0,0-1.246-.49,2.009,2.009,0,0,0-1.015.252,1.709,1.709,0,0,0-.686.742A2.781,2.781,0,0,0,58.8-3.794V0H57.05V-4.06a2.184,2.184,0,0,0-.434-1.484,1.577,1.577,0,0,0-1.246-.49,2.009,2.009,0,0,0-1.015.252,1.709,1.709,0,0,0-.686.742,2.781,2.781,0,0,0-.245,1.246V0h-1.75V-7.476H53.34v1.988l-.294-.588a2.542,2.542,0,0,1,1.1-1.106A3.49,3.49,0,0,1,55.79-7.56a3.216,3.216,0,0,1,1.827.518,2.494,2.494,0,0,1,1.029,1.568l-.686-.238a2.884,2.884,0,0,1,1.2-1.344A3.709,3.709,0,0,1,61.11-7.56ZM69.944.1a4.556,4.556,0,0,1-2.177-.5,3.6,3.6,0,0,1-1.442-1.365,3.817,3.817,0,0,1-.511-1.974,3.891,3.891,0,0,1,.5-1.981A3.567,3.567,0,0,1,67.683-7.07a4.013,4.013,0,0,1,1.995-.49,3.929,3.929,0,0,1,1.946.476A3.446,3.446,0,0,1,72.968-5.74a4.09,4.09,0,0,1,.49,2.044q0,.112-.007.252t-.021.266H67.2V-4.34h5.306l-.686.364a2.148,2.148,0,0,0-.266-1.134,2.049,2.049,0,0,0-.763-.77,2.179,2.179,0,0,0-1.113-.28,2.207,2.207,0,0,0-1.127.28,1.985,1.985,0,0,0-.756.777,2.391,2.391,0,0,0-.273,1.169v.28a2.284,2.284,0,0,0,.308,1.19,2.053,2.053,0,0,0,.868.8,2.843,2.843,0,0,0,1.288.28,3.108,3.108,0,0,0,1.134-.2,2.414,2.414,0,0,0,.9-.616l.938,1.078a3.294,3.294,0,0,1-1.267.9A4.535,4.535,0,0,1,69.944.1ZM78.3.1a3.894,3.894,0,0,1-1.939-.483,3.509,3.509,0,0,1-1.351-1.337,3.982,3.982,0,0,1-.49-2.016,3.982,3.982,0,0,1,.49-2.016,3.459,3.459,0,0,1,1.351-1.33A3.94,3.94,0,0,1,78.3-7.56a3.4,3.4,0,0,1,1.68.413,2.919,2.919,0,0,1,1.176,1.253,4.687,4.687,0,0,1,.434,2.156,4.829,4.829,0,0,1-.42,2.149A2.873,2.873,0,0,1,80.01-.322,3.407,3.407,0,0,1,78.3.1Zm.21-1.5a2.256,2.256,0,0,0,1.127-.28,2.087,2.087,0,0,0,.8-.812,2.488,2.488,0,0,0,.3-1.246,2.478,2.478,0,0,0-.3-1.253,2.1,2.1,0,0,0-.8-.8,2.256,2.256,0,0,0-1.127-.28,2.256,2.256,0,0,0-1.127.28,2.1,2.1,0,0,0-.8.8,2.478,2.478,0,0,0-.3,1.253,2.488,2.488,0,0,0,.3,1.246,2.087,2.087,0,0,0,.8.812A2.256,2.256,0,0,0,78.512-1.4ZM80.78,0V-1.764l.07-1.988L80.71-5.74v-4.648h1.736V0Zm3.976,0V-10.388h1.75V0Zm7.56.1a4.556,4.556,0,0,1-2.177-.5A3.6,3.6,0,0,1,88.7-1.764a3.817,3.817,0,0,1-.511-1.974,3.891,3.891,0,0,1,.5-1.981A3.567,3.567,0,0,1,90.055-7.07a4.013,4.013,0,0,1,2-.49A3.929,3.929,0,0,1,94-7.084,3.446,3.446,0,0,1,95.34-5.74,4.09,4.09,0,0,1,95.83-3.7q0,.112-.007.252t-.021.266h-6.23V-4.34h5.306l-.686.364a2.148,2.148,0,0,0-.266-1.134,2.049,2.049,0,0,0-.763-.77,2.179,2.179,0,0,0-1.113-.28,2.207,2.207,0,0,0-1.127.28,1.985,1.985,0,0,0-.756.777,2.391,2.391,0,0,0-.273,1.169v.28a2.284,2.284,0,0,0,.308,1.19,2.053,2.053,0,0,0,.868.8,2.843,2.843,0,0,0,1.288.28,3.108,3.108,0,0,0,1.134-.2,2.414,2.414,0,0,0,.9-.616l.938,1.078a3.294,3.294,0,0,1-1.267.9A4.535,4.535,0,0,1,92.316.1Zm14.63-7.658a3.477,3.477,0,0,1,1.589.35,2.5,2.5,0,0,1,1.085,1.071,3.865,3.865,0,0,1,.392,1.855V0h-1.75V-4.06a2.184,2.184,0,0,0-.434-1.484,1.577,1.577,0,0,0-1.246-.49,2.009,2.009,0,0,0-1.015.252,1.709,1.709,0,0,0-.686.742,2.781,2.781,0,0,0-.245,1.246V0h-1.75V-4.06a2.184,2.184,0,0,0-.434-1.484,1.577,1.577,0,0,0-1.246-.49,2.009,2.009,0,0,0-1.015.252,1.709,1.709,0,0,0-.686.742,2.781,2.781,0,0,0-.245,1.246V0H97.51V-7.476h1.666v1.988l-.294-.588a2.542,2.542,0,0,1,1.1-1.106,3.49,3.49,0,0,1,1.645-.378,3.216,3.216,0,0,1,1.827.518,2.494,2.494,0,0,1,1.029,1.568l-.686-.238A2.884,2.884,0,0,1,105-7.056,3.709,3.709,0,0,1,106.946-7.56Z" transform="translate(887.75 1974.876)" fill="#464646"/>
    <path id="Path_71" data-name="Path 71" d="M-.07,0,4.34-9.8H6.132L10.556,0h-1.9L4.858-8.834h.728L1.806,0ZM1.96-2.268,2.45-3.7H7.742l.49,1.428ZM14.658.1a3.77,3.77,0,0,1-1.68-.357,2.562,2.562,0,0,1-1.134-1.092,3.8,3.8,0,0,1-.406-1.855v-4.27h1.75v4.032a2.166,2.166,0,0,0,.455,1.5,1.667,1.667,0,0,0,1.3.5,2.176,2.176,0,0,0,1.071-.252,1.752,1.752,0,0,0,.714-.756A2.706,2.706,0,0,0,16.982-3.7v-3.78h1.75V0H17.066V-2.016l.294.616A2.573,2.573,0,0,1,16.254-.287,3.361,3.361,0,0,1,14.658.1Zm9.184,0a2.66,2.66,0,0,1-1.9-.637,2.474,2.474,0,0,1-.672-1.883V-9.128h1.75v6.664a1.168,1.168,0,0,0,.273.826.99.99,0,0,0,.763.294,1.538,1.538,0,0,0,.98-.308l.49,1.246a2.056,2.056,0,0,1-.756.378A3.4,3.4,0,0,1,23.842.1ZM20.034-6.02v-1.4h4.984v1.4ZM30.072.1a4.143,4.143,0,0,1-2.044-.5,3.714,3.714,0,0,1-1.414-1.365A3.777,3.777,0,0,1,26.1-3.738a3.767,3.767,0,0,1,.518-1.981A3.679,3.679,0,0,1,28.028-7.07a4.19,4.19,0,0,1,2.044-.49,4.26,4.26,0,0,1,2.065.49,3.631,3.631,0,0,1,1.414,1.344,3.8,3.8,0,0,1,.511,1.988,3.817,3.817,0,0,1-.511,1.974A3.649,3.649,0,0,1,32.137-.4,4.212,4.212,0,0,1,30.072.1Zm0-1.5a2.324,2.324,0,0,0,1.148-.28,1.981,1.981,0,0,0,.791-.812A2.586,2.586,0,0,0,32.3-3.738a2.575,2.575,0,0,0-.287-1.253,1.991,1.991,0,0,0-.791-.8,2.3,2.3,0,0,0-1.134-.28,2.284,2.284,0,0,0-1.141.28,2.051,2.051,0,0,0-.791.8,2.526,2.526,0,0,0-.294,1.253,2.535,2.535,0,0,0,.294,1.246,2.04,2.04,0,0,0,.791.812A2.256,2.256,0,0,0,30.072-1.4ZM45.178-7.56a3.477,3.477,0,0,1,1.589.35,2.5,2.5,0,0,1,1.085,1.071,3.865,3.865,0,0,1,.392,1.855V0h-1.75V-4.06a2.184,2.184,0,0,0-.434-1.484,1.577,1.577,0,0,0-1.246-.49,2.009,2.009,0,0,0-1.015.252,1.709,1.709,0,0,0-.686.742,2.781,2.781,0,0,0-.245,1.246V0h-1.75V-4.06a2.184,2.184,0,0,0-.434-1.484,1.577,1.577,0,0,0-1.246-.49,2.009,2.009,0,0,0-1.015.252,1.709,1.709,0,0,0-.686.742,2.781,2.781,0,0,0-.245,1.246V0h-1.75V-7.476h1.666v1.988l-.294-.588a2.542,2.542,0,0,1,1.1-1.106,3.49,3.49,0,0,1,1.645-.378,3.216,3.216,0,0,1,1.827.518,2.494,2.494,0,0,1,1.029,1.568l-.686-.238a2.884,2.884,0,0,1,1.2-1.344A3.709,3.709,0,0,1,45.178-7.56ZM55.09,0V-1.512l-.1-.322V-4.48a1.549,1.549,0,0,0-.462-1.2,2,2,0,0,0-1.4-.427,4.021,4.021,0,0,0-1.239.2,3.044,3.044,0,0,0-1.029.546l-.686-1.274a4.15,4.15,0,0,1,1.435-.693A6.44,6.44,0,0,1,53.34-7.56a3.7,3.7,0,0,1,2.513.777,3.023,3.023,0,0,1,.889,2.4V0ZM52.738.1a3.516,3.516,0,0,1-1.47-.287,2.271,2.271,0,0,1-.973-.8,2.025,2.025,0,0,1-.343-1.155,2.169,2.169,0,0,1,.3-1.134,2.03,2.03,0,0,1,.987-.8,4.691,4.691,0,0,1,1.82-.294h2.17v1.162H53.186a1.823,1.823,0,0,0-1.2.287.928.928,0,0,0-.308.707.892.892,0,0,0,.378.756,1.733,1.733,0,0,0,1.05.28,2.274,2.274,0,0,0,1.155-.294,1.667,1.667,0,0,0,.735-.868l.294,1.05a1.945,1.945,0,0,1-.9,1.022A3.34,3.34,0,0,1,52.738.1ZM61.8.1a2.66,2.66,0,0,1-1.9-.637,2.474,2.474,0,0,1-.672-1.883V-9.128h1.75v6.664a1.168,1.168,0,0,0,.273.826.99.99,0,0,0,.763.294,1.537,1.537,0,0,0,.98-.308l.49,1.246a2.056,2.056,0,0,1-.756.378A3.4,3.4,0,0,1,61.8.1ZM57.988-6.02v-1.4h4.984v1.4ZM64.918,0V-7.476h1.75V0ZM65.8-8.708A1.1,1.1,0,0,1,65-9.016a1,1,0,0,1-.315-.742A.994.994,0,0,1,65-10.507a1.118,1.118,0,0,1,.805-.3,1.149,1.149,0,0,1,.805.287.934.934,0,0,1,.315.721,1.068,1.068,0,0,1-.308.777A1.084,1.084,0,0,1,65.8-8.708ZM71.274.1a6.542,6.542,0,0,1-1.8-.245A4.628,4.628,0,0,1,68.11-.742l.672-1.33a4.779,4.779,0,0,0,1.2.532,4.85,4.85,0,0,0,1.4.21,2.412,2.412,0,0,0,1.2-.224.679.679,0,0,0,.371-.6.523.523,0,0,0-.252-.469,1.96,1.96,0,0,0-.658-.245q-.406-.084-.9-.154t-.994-.189a3.43,3.43,0,0,1-.9-.35,1.871,1.871,0,0,1-.658-.623,1.892,1.892,0,0,1-.252-1.036,1.966,1.966,0,0,1,.406-1.239,2.592,2.592,0,0,1,1.141-.812,4.786,4.786,0,0,1,1.743-.287,7.142,7.142,0,0,1,1.526.168,4.13,4.13,0,0,1,1.274.476l-.672,1.33a3.544,3.544,0,0,0-1.071-.441,4.956,4.956,0,0,0-1.071-.119,2.3,2.3,0,0,0-1.183.238.7.7,0,0,0-.385.6.565.565,0,0,0,.252.5,2.056,2.056,0,0,0,.658.266,8.331,8.331,0,0,0,.9.161,8,8,0,0,1,.987.189,4.163,4.163,0,0,1,.9.343,1.739,1.739,0,0,1,.665.609,1.863,1.863,0,0,1,.252,1.022,1.9,1.9,0,0,1-.413,1.218,2.659,2.659,0,0,1-1.169.805A5.092,5.092,0,0,1,71.274.1Zm8.414,0a4.556,4.556,0,0,1-2.177-.5,3.6,3.6,0,0,1-1.442-1.365,3.817,3.817,0,0,1-.511-1.974,3.891,3.891,0,0,1,.5-1.981A3.567,3.567,0,0,1,77.427-7.07a4.013,4.013,0,0,1,1.995-.49,3.929,3.929,0,0,1,1.946.476A3.446,3.446,0,0,1,82.712-5.74,4.09,4.09,0,0,1,83.2-3.7q0,.112-.007.252t-.021.266h-6.23V-4.34H82.25l-.686.364A2.148,2.148,0,0,0,81.3-5.11a2.049,2.049,0,0,0-.763-.77,2.179,2.179,0,0,0-1.113-.28,2.207,2.207,0,0,0-1.127.28,1.985,1.985,0,0,0-.756.777,2.391,2.391,0,0,0-.273,1.169v.28a2.284,2.284,0,0,0,.308,1.19,2.053,2.053,0,0,0,.868.8,2.843,2.843,0,0,0,1.288.28,3.108,3.108,0,0,0,1.134-.2,2.414,2.414,0,0,0,.9-.616L82.7-1.12a3.294,3.294,0,0,1-1.267.9A4.535,4.535,0,0,1,79.688.1ZM84.882,0V-7.476h1.666v2.058l-.2-.6a2.364,2.364,0,0,1,1.057-1.148,3.732,3.732,0,0,1,1.8-.392v1.666A1.231,1.231,0,0,0,89-5.929q-.1-.007-.2-.007a2.152,2.152,0,0,0-1.582.581,2.329,2.329,0,0,0-.588,1.729V0Zm9.884,0V-1.512l-.1-.322V-4.48a1.549,1.549,0,0,0-.462-1.2,2,2,0,0,0-1.4-.427,4.021,4.021,0,0,0-1.239.2,3.044,3.044,0,0,0-1.029.546l-.686-1.274a4.15,4.15,0,0,1,1.435-.693,6.44,6.44,0,0,1,1.729-.231,3.7,3.7,0,0,1,2.513.777,3.023,3.023,0,0,1,.889,2.4V0ZM92.414.1a3.516,3.516,0,0,1-1.47-.287,2.271,2.271,0,0,1-.973-.8,2.025,2.025,0,0,1-.343-1.155,2.169,2.169,0,0,1,.3-1.134,2.03,2.03,0,0,1,.987-.8,4.691,4.691,0,0,1,1.82-.294h2.17v1.162H92.862a1.823,1.823,0,0,0-1.2.287.928.928,0,0,0-.308.707.892.892,0,0,0,.378.756,1.733,1.733,0,0,0,1.05.28,2.274,2.274,0,0,0,1.155-.294,1.667,1.667,0,0,0,.735-.868l.294,1.05a1.945,1.945,0,0,1-.9,1.022A3.34,3.34,0,0,1,92.414.1Zm9.058,0a2.66,2.66,0,0,1-1.9-.637A2.474,2.474,0,0,1,98.9-2.422V-9.128h1.75v6.664a1.168,1.168,0,0,0,.273.826.99.99,0,0,0,.763.294,1.537,1.537,0,0,0,.98-.308l.49,1.246a2.056,2.056,0,0,1-.756.378A3.4,3.4,0,0,1,101.472.1ZM97.664-6.02v-1.4h4.984v1.4Zm14.182,8.834a7.554,7.554,0,0,1-2.023-.273,4.331,4.331,0,0,1-1.617-.791L108.99.434a3.746,3.746,0,0,0,1.239.651,4.858,4.858,0,0,0,1.519.245,2.487,2.487,0,0,0,1.806-.567,2.293,2.293,0,0,0,.574-1.7v-1.33l.14-1.694-.056-1.694v-1.82h1.666v6.342a3.891,3.891,0,0,1-1.036,2.989A4.256,4.256,0,0,1,111.846,2.814Zm-.224-3.15A4.056,4.056,0,0,1,109.7-.791a3.45,3.45,0,0,1-1.358-1.267,3.574,3.574,0,0,1-.5-1.9,3.547,3.547,0,0,1,.5-1.89,3.4,3.4,0,0,1,1.358-1.26,4.107,4.107,0,0,1,1.925-.448,3.767,3.767,0,0,1,1.708.378,2.851,2.851,0,0,1,1.211,1.176A4.091,4.091,0,0,1,115-3.962a4.132,4.132,0,0,1-.455,2.051,2.885,2.885,0,0,1-1.211,1.19A3.71,3.71,0,0,1,111.622-.336Zm.266-1.484a2.484,2.484,0,0,0,1.176-.273,2,2,0,0,0,.805-.756,2.137,2.137,0,0,0,.287-1.113,2.137,2.137,0,0,0-.287-1.113,1.905,1.905,0,0,0-.805-.742,2.594,2.594,0,0,0-1.176-.259,2.638,2.638,0,0,0-1.183.259,1.9,1.9,0,0,0-.812.742,2.137,2.137,0,0,0-.287,1.113,2.137,2.137,0,0,0,.287,1.113,1.988,1.988,0,0,0,.812.756A2.526,2.526,0,0,0,111.888-1.82ZM121.688.1a4.556,4.556,0,0,1-2.177-.5,3.6,3.6,0,0,1-1.442-1.365,3.817,3.817,0,0,1-.511-1.974,3.891,3.891,0,0,1,.5-1.981,3.567,3.567,0,0,1,1.372-1.351,4.013,4.013,0,0,1,1.995-.49,3.929,3.929,0,0,1,1.946.476,3.446,3.446,0,0,1,1.344,1.344A4.09,4.09,0,0,1,125.2-3.7q0,.112-.007.252t-.021.266h-6.23V-4.34h5.306l-.686.364A2.148,2.148,0,0,0,123.3-5.11a2.049,2.049,0,0,0-.763-.77,2.179,2.179,0,0,0-1.113-.28,2.207,2.207,0,0,0-1.127.28,1.985,1.985,0,0,0-.756.777,2.391,2.391,0,0,0-.273,1.169v.28a2.284,2.284,0,0,0,.308,1.19,2.053,2.053,0,0,0,.868.8,2.843,2.843,0,0,0,1.288.28,3.108,3.108,0,0,0,1.134-.2,2.414,2.414,0,0,0,.9-.616L124.7-1.12a3.294,3.294,0,0,1-1.267.9A4.535,4.535,0,0,1,121.688.1Zm9.436-7.658a3.565,3.565,0,0,1,1.6.35,2.565,2.565,0,0,1,1.113,1.071,3.754,3.754,0,0,1,.406,1.855V0H132.5V-4.06a2.074,2.074,0,0,0-.469-1.484,1.726,1.726,0,0,0-1.309-.49,2.3,2.3,0,0,0-1.092.252,1.727,1.727,0,0,0-.735.749,2.7,2.7,0,0,0-.259,1.253V0h-1.75V-7.476h1.666V-5.46l-.294-.616a2.65,2.65,0,0,1,1.141-1.1A3.73,3.73,0,0,1,131.124-7.56ZM139.846.1A4.143,4.143,0,0,1,137.8-.4a3.714,3.714,0,0,1-1.414-1.365,3.777,3.777,0,0,1-.518-1.974,3.767,3.767,0,0,1,.518-1.981A3.678,3.678,0,0,1,137.8-7.07a4.19,4.19,0,0,1,2.044-.49,4.26,4.26,0,0,1,2.065.49,3.631,3.631,0,0,1,1.414,1.344,3.8,3.8,0,0,1,.511,1.988,3.817,3.817,0,0,1-.511,1.974A3.649,3.649,0,0,1,141.911-.4,4.212,4.212,0,0,1,139.846.1Zm0-1.5a2.324,2.324,0,0,0,1.148-.28,1.981,1.981,0,0,0,.791-.812,2.586,2.586,0,0,0,.287-1.246,2.576,2.576,0,0,0-.287-1.253,1.991,1.991,0,0,0-.791-.8,2.3,2.3,0,0,0-1.134-.28,2.284,2.284,0,0,0-1.141.28,2.051,2.051,0,0,0-.791.8,2.526,2.526,0,0,0-.294,1.253,2.535,2.535,0,0,0,.294,1.246,2.04,2.04,0,0,0,.791.812A2.256,2.256,0,0,0,139.846-1.4Zm15.106-6.16a3.477,3.477,0,0,1,1.589.35,2.5,2.5,0,0,1,1.085,1.071,3.865,3.865,0,0,1,.392,1.855V0h-1.75V-4.06a2.184,2.184,0,0,0-.434-1.484,1.577,1.577,0,0,0-1.246-.49,2.009,2.009,0,0,0-1.015.252,1.709,1.709,0,0,0-.686.742,2.781,2.781,0,0,0-.245,1.246V0h-1.75V-4.06a2.184,2.184,0,0,0-.434-1.484,1.577,1.577,0,0,0-1.246-.49,2.01,2.01,0,0,0-1.015.252,1.709,1.709,0,0,0-.686.742,2.781,2.781,0,0,0-.245,1.246V0h-1.75V-7.476h1.666v1.988l-.294-.588a2.542,2.542,0,0,1,1.1-1.106,3.49,3.49,0,0,1,1.645-.378,3.216,3.216,0,0,1,1.827.518,2.494,2.494,0,0,1,1.029,1.568l-.686-.238a2.884,2.884,0,0,1,1.2-1.344A3.709,3.709,0,0,1,154.952-7.56ZM162.9,0l4.41-9.8h1.792L173.53,0h-1.9l-3.794-8.834h.728L164.78,0Zm2.03-2.268.49-1.428h5.292l.49,1.428ZM174.776,0V-9.8h4.032a5.4,5.4,0,0,1,2.233.42,3.238,3.238,0,0,1,1.435,1.2,3.368,3.368,0,0,1,.5,1.862,3.368,3.368,0,0,1-.5,1.862,3.238,3.238,0,0,1-1.435,1.2,5.4,5.4,0,0,1-2.233.42h-3.024l.812-.854V0Zm1.82-3.486-.812-.882h2.94a2.763,2.763,0,0,0,1.813-.511,1.77,1.77,0,0,0,.609-1.435,1.766,1.766,0,0,0-.609-1.442,2.791,2.791,0,0,0-1.813-.5h-2.94l.812-.9ZM184.8,0V-9.8h1.82V0Z" transform="translate(887.75 1917.876)" fill="#464646"/>
    <path id="Path_70" data-name="Path 70" d="M2.982-5.292H7.868v1.54H2.982ZM3.136,0H1.316V-9.8H8.47v1.526H3.136ZM13.02.1a3.77,3.77,0,0,1-1.68-.357,2.562,2.562,0,0,1-1.134-1.092A3.8,3.8,0,0,1,9.8-3.206v-4.27h1.75v4.032a2.166,2.166,0,0,0,.455,1.5,1.667,1.667,0,0,0,1.3.5,2.176,2.176,0,0,0,1.071-.252,1.752,1.752,0,0,0,.714-.756A2.706,2.706,0,0,0,15.344-3.7v-3.78h1.75V0H15.428V-2.016l.294.616A2.573,2.573,0,0,1,14.616-.287,3.361,3.361,0,0,1,13.02.1ZM19.39,0V-10.388h1.75V0Zm4.046,0V-10.388h1.75V0ZM30.66.1a2.66,2.66,0,0,1-1.9-.637,2.474,2.474,0,0,1-.672-1.883V-9.128h1.75v6.664a1.168,1.168,0,0,0,.273.826.99.99,0,0,0,.763.294,1.538,1.538,0,0,0,.98-.308l.49,1.246a2.056,2.056,0,0,1-.756.378A3.4,3.4,0,0,1,30.66.1ZM26.852-6.02v-1.4h4.984v1.4ZM42.392.14a5.793,5.793,0,0,1-2.107-.371,5.036,5.036,0,0,1-1.673-1.05,4.743,4.743,0,0,1-1.106-1.6A5.109,5.109,0,0,1,37.114-4.9a5.109,5.109,0,0,1,.392-2.016,4.7,4.7,0,0,1,1.113-1.6,5.1,5.1,0,0,1,1.687-1.05A5.849,5.849,0,0,1,42.42-9.94a5.931,5.931,0,0,1,2.247.406,4.406,4.406,0,0,1,1.687,1.19l-1.148,1.12a3.79,3.79,0,0,0-1.239-.847A3.817,3.817,0,0,0,42.5-8.344a3.96,3.96,0,0,0-1.428.252,3.3,3.3,0,0,0-1.134.714,3.2,3.2,0,0,0-.735,1.092A3.611,3.611,0,0,0,38.948-4.9a3.574,3.574,0,0,0,.259,1.372,3.272,3.272,0,0,0,.735,1.1,3.279,3.279,0,0,0,1.12.721,3.888,3.888,0,0,0,1.428.252A4.339,4.339,0,0,0,43.9-1.687a3.8,3.8,0,0,0,1.295-.777l1.036,1.358a5.376,5.376,0,0,1-1.785.931A6.884,6.884,0,0,1,42.392.14Zm2.114-1.484V-5.012h1.722v3.906ZM48.622,0V-9.8h4.284a6.067,6.067,0,0,1,2.8.616,4.62,4.62,0,0,1,1.876,1.708A4.817,4.817,0,0,1,58.254-4.9a4.826,4.826,0,0,1-.672,2.569A4.6,4.6,0,0,1,55.706-.616a6.067,6.067,0,0,1-2.8.616Zm1.82-1.54h2.38a4.08,4.08,0,0,0,1.911-.42,3.031,3.031,0,0,0,1.246-1.176A3.437,3.437,0,0,0,56.42-4.9a3.428,3.428,0,0,0-.441-1.771A3.046,3.046,0,0,0,54.733-7.84a4.08,4.08,0,0,0-1.911-.42h-2.38ZM60.186,0V-9.8h4.032a5.4,5.4,0,0,1,2.233.42,3.238,3.238,0,0,1,1.435,1.2,3.368,3.368,0,0,1,.5,1.862,3.368,3.368,0,0,1-.5,1.862,3.238,3.238,0,0,1-1.435,1.2,5.4,5.4,0,0,1-2.233.42H61.194l.812-.854V0Zm1.82-3.486-.812-.882h2.94a2.763,2.763,0,0,0,1.813-.511,1.77,1.77,0,0,0,.609-1.435,1.766,1.766,0,0,0-.609-1.442,2.791,2.791,0,0,0-1.813-.5h-2.94l.812-.9ZM70.21,0V-9.8h4.032a5.4,5.4,0,0,1,2.233.42,3.238,3.238,0,0,1,1.435,1.2,3.368,3.368,0,0,1,.5,1.862,3.334,3.334,0,0,1-.5,1.855,3.211,3.211,0,0,1-1.435,1.19,5.482,5.482,0,0,1-2.233.413H71.218l.812-.826V0Zm6.412,0L74.144-3.556H76.09L78.582,0ZM72.03-3.486l-.812-.868h2.94a2.737,2.737,0,0,0,1.813-.518,1.791,1.791,0,0,0,.609-1.442,1.766,1.766,0,0,0-.609-1.442,2.791,2.791,0,0,0-1.813-.5h-2.94l.812-.9ZM88.844.14a5.713,5.713,0,0,1-2.079-.371A4.958,4.958,0,0,1,85.1-1.281a4.791,4.791,0,0,1-1.1-1.6A5.109,5.109,0,0,1,83.608-4.9,5.109,5.109,0,0,1,84-6.916a4.742,4.742,0,0,1,1.106-1.6,5.052,5.052,0,0,1,1.666-1.05,5.7,5.7,0,0,1,2.086-.371,5.675,5.675,0,0,1,2.2.413A4.353,4.353,0,0,1,92.736-8.3L91.56-7.2a3.557,3.557,0,0,0-1.19-.861,3.533,3.533,0,0,0-1.428-.287,3.793,3.793,0,0,0-1.407.252,3.272,3.272,0,0,0-1.106.714A3.248,3.248,0,0,0,85.7-6.286,3.611,3.611,0,0,0,85.442-4.9,3.611,3.611,0,0,0,85.7-3.514a3.248,3.248,0,0,0,.728,1.092,3.272,3.272,0,0,0,1.106.714,3.793,3.793,0,0,0,1.407.252,3.533,3.533,0,0,0,1.428-.287,3.477,3.477,0,0,0,1.19-.875L92.736-1.5A4.483,4.483,0,0,1,91.056-.28,5.629,5.629,0,0,1,88.844.14ZM97.4.1a4.143,4.143,0,0,1-2.044-.5A3.714,3.714,0,0,1,93.94-1.764a3.777,3.777,0,0,1-.518-1.974,3.767,3.767,0,0,1,.518-1.981A3.678,3.678,0,0,1,95.354-7.07,4.19,4.19,0,0,1,97.4-7.56a4.26,4.26,0,0,1,2.065.49,3.631,3.631,0,0,1,1.414,1.344,3.8,3.8,0,0,1,.511,1.988,3.817,3.817,0,0,1-.511,1.974A3.649,3.649,0,0,1,99.463-.4,4.212,4.212,0,0,1,97.4.1Zm0-1.5a2.324,2.324,0,0,0,1.148-.28,1.981,1.981,0,0,0,.791-.812,2.585,2.585,0,0,0,.287-1.246,2.575,2.575,0,0,0-.287-1.253,1.991,1.991,0,0,0-.791-.8,2.3,2.3,0,0,0-1.134-.28,2.284,2.284,0,0,0-1.141.28,2.051,2.051,0,0,0-.791.8,2.526,2.526,0,0,0-.294,1.253,2.535,2.535,0,0,0,.294,1.246,2.04,2.04,0,0,0,.791.812A2.256,2.256,0,0,0,97.4-1.4ZM112.5-7.56a3.477,3.477,0,0,1,1.589.35,2.5,2.5,0,0,1,1.085,1.071,3.865,3.865,0,0,1,.392,1.855V0h-1.75V-4.06a2.184,2.184,0,0,0-.434-1.484,1.577,1.577,0,0,0-1.246-.49,2.009,2.009,0,0,0-1.015.252,1.709,1.709,0,0,0-.686.742,2.781,2.781,0,0,0-.245,1.246V0h-1.75V-4.06a2.184,2.184,0,0,0-.434-1.484,1.577,1.577,0,0,0-1.246-.49,2.009,2.009,0,0,0-1.015.252,1.709,1.709,0,0,0-.686.742,2.781,2.781,0,0,0-.245,1.246V0h-1.75V-7.476h1.666v1.988l-.294-.588a2.542,2.542,0,0,1,1.1-1.106,3.49,3.49,0,0,1,1.645-.378,3.216,3.216,0,0,1,1.827.518,2.494,2.494,0,0,1,1.029,1.568l-.686-.238a2.884,2.884,0,0,1,1.2-1.344A3.709,3.709,0,0,1,112.5-7.56ZM121.954.1a3.333,3.333,0,0,1-1.659-.42,2.985,2.985,0,0,1-1.19-1.267,4.633,4.633,0,0,1-.441-2.149,4.752,4.752,0,0,1,.427-2.156,2.878,2.878,0,0,1,1.169-1.253,3.424,3.424,0,0,1,1.694-.413,3.918,3.918,0,0,1,1.953.476,3.536,3.536,0,0,1,1.344,1.33,3.938,3.938,0,0,1,.5,2.016,3.976,3.976,0,0,1-.5,2.023,3.522,3.522,0,0,1-1.344,1.337A3.918,3.918,0,0,1,121.954.1ZM117.81,2.716V-7.476h1.666v1.764l-.056,1.988.14,1.988V2.716ZM121.758-1.4a2.256,2.256,0,0,0,1.127-.28,2.04,2.04,0,0,0,.791-.812,2.535,2.535,0,0,0,.294-1.246,2.526,2.526,0,0,0-.294-1.253,2.051,2.051,0,0,0-.791-.8,2.256,2.256,0,0,0-1.127-.28,2.3,2.3,0,0,0-1.134.28,2.037,2.037,0,0,0-.8.8,2.526,2.526,0,0,0-.294,1.253,2.535,2.535,0,0,0,.294,1.246,2.026,2.026,0,0,0,.8.812A2.3,2.3,0,0,0,121.758-1.4ZM127.414,0V-10.388h1.75V0Zm4.046,0V-7.476h1.75V0Zm.882-8.708a1.1,1.1,0,0,1-.8-.308,1,1,0,0,1-.315-.742.994.994,0,0,1,.315-.749,1.118,1.118,0,0,1,.8-.3,1.149,1.149,0,0,1,.805.287.934.934,0,0,1,.315.721,1.068,1.068,0,0,1-.308.777A1.084,1.084,0,0,1,132.342-8.708ZM140.112,0V-1.512l-.1-.322V-4.48a1.549,1.549,0,0,0-.462-1.2,2,2,0,0,0-1.4-.427,4.021,4.021,0,0,0-1.239.2,3.044,3.044,0,0,0-1.029.546L135.2-6.636a4.15,4.15,0,0,1,1.435-.693,6.44,6.44,0,0,1,1.729-.231,3.7,3.7,0,0,1,2.513.777,3.023,3.023,0,0,1,.889,2.4V0ZM137.76.1a3.516,3.516,0,0,1-1.47-.287,2.271,2.271,0,0,1-.973-.8,2.025,2.025,0,0,1-.343-1.155,2.169,2.169,0,0,1,.3-1.134,2.03,2.03,0,0,1,.987-.8,4.691,4.691,0,0,1,1.82-.294h2.17v1.162h-2.044a1.823,1.823,0,0,0-1.2.287.928.928,0,0,0-.308.707.892.892,0,0,0,.378.756,1.733,1.733,0,0,0,1.05.28,2.274,2.274,0,0,0,1.155-.294,1.667,1.667,0,0,0,.735-.868l.294,1.05a1.945,1.945,0,0,1-.9,1.022A3.34,3.34,0,0,1,137.76.1ZM148.246-7.56a3.565,3.565,0,0,1,1.6.35,2.565,2.565,0,0,1,1.113,1.071,3.754,3.754,0,0,1,.406,1.855V0h-1.75V-4.06a2.074,2.074,0,0,0-.469-1.484,1.726,1.726,0,0,0-1.309-.49,2.3,2.3,0,0,0-1.092.252,1.727,1.727,0,0,0-.735.749,2.7,2.7,0,0,0-.259,1.253V0H144V-7.476h1.666V-5.46l-.294-.616a2.65,2.65,0,0,1,1.141-1.1A3.73,3.73,0,0,1,148.246-7.56ZM156.408.1a2.66,2.66,0,0,1-1.9-.637,2.474,2.474,0,0,1-.672-1.883V-9.128h1.75v6.664a1.168,1.168,0,0,0,.273.826.99.99,0,0,0,.763.294,1.538,1.538,0,0,0,.98-.308l.49,1.246a2.056,2.056,0,0,1-.756.378A3.4,3.4,0,0,1,156.408.1ZM152.6-6.02v-1.4h4.984v1.4Z" transform="translate(887.75 1860.876)" fill="#464646"/>
    <path id="Path_69" data-name="Path 69" d="M77.95,11.8v1.932a6.252,6.252,0,0,0-1.764-.756,7.821,7.821,0,0,0-2.128-.308,4.71,4.71,0,0,0-3,.882,2.828,2.828,0,0,0-1.12,2.338A2.715,2.715,0,0,0,71.23,18.31a10.805,10.805,0,0,0,1.218.756q.518.266,1.582.714.98.42,1.484.658a12,12,0,0,1,1.288.742,5.172,5.172,0,0,1,1.19.994,4.979,4.979,0,0,1,.728,1.26,4.348,4.348,0,0,1,.322,1.694,4.51,4.51,0,0,1-1.652,3.766,6.624,6.624,0,0,1-4.228,1.3,9.431,9.431,0,0,1-4.956-1.232V27.032a7.024,7.024,0,0,0,2.17,1.064,8.923,8.923,0,0,0,2.7.42,4.9,4.9,0,0,0,3.094-.868,2.981,2.981,0,0,0,1.106-2.492,2.59,2.59,0,0,0-.84-2A8.938,8.938,0,0,0,74,21.684q-.224-.112-.98-.434t-1.064-.462q-.308-.14-.952-.476a5.23,5.23,0,0,1-.938-.588q-.294-.252-.742-.672a2.812,2.812,0,0,1-.644-.84,7.051,7.051,0,0,1-.364-.994A4.316,4.316,0,0,1,68.15,16a4.436,4.436,0,0,1,1.708-3.71,6.584,6.584,0,0,1,4.172-1.33A8.234,8.234,0,0,1,77.95,11.8ZM90.8,23.252H88.03a4.76,4.76,0,0,0-2.968.77,2.35,2.35,0,0,0-.98,1.918,2.5,2.5,0,0,0,.77,1.9,3.163,3.163,0,0,0,2.254.728,3.823,3.823,0,0,0,2.688-.924A3.05,3.05,0,0,0,90.8,25.3Zm-7.5-4.844V16.56a7.623,7.623,0,0,1,4-.98q5.208,0,5.208,5.46V30H90.8V28.348q-1.176,1.792-4.088,1.792a4.513,4.513,0,0,1-3.206-1.162A3.9,3.9,0,0,1,82.262,26a3.686,3.686,0,0,1,1.582-3.178,7.035,7.035,0,0,1,4.186-1.134H90.8V21.04a4.368,4.368,0,0,0-.812-2.87,3.371,3.371,0,0,0-2.716-.966A6.89,6.89,0,0,0,83.3,18.408Zm19.6-8.176v1.68a3.431,3.431,0,0,0-1.232-.224,1.888,1.888,0,0,0-1.442.658,2.838,2.838,0,0,0-.6,1.974V15.8h3.248V17.26H99.622V30H97.914V17.26h-2.6V15.8h2.6V14.292a4.5,4.5,0,0,1,1.008-3.08,3.565,3.565,0,0,1,2.828-1.148A4.379,4.379,0,0,1,102.9,10.232Zm12.1,11.872V21.46a4.317,4.317,0,0,0-1.078-3.08,3.785,3.785,0,0,0-2.9-1.148,3.975,3.975,0,0,0-3,1.26,5.752,5.752,0,0,0-1.4,3.612Zm.868,5.46V29.3a8.66,8.66,0,0,1-3.92.84,6.95,6.95,0,0,1-5.138-1.974,7.023,7.023,0,0,1-1.974-5.194,7.823,7.823,0,0,1,1.736-5.376,5.74,5.74,0,0,1,4.508-1.96,5.3,5.3,0,0,1,4.144,1.708,6.942,6.942,0,0,1,1.54,4.816,8.059,8.059,0,0,1-.112,1.512H106.622a5.117,5.117,0,0,0,1.624,3.6,5.544,5.544,0,0,0,3.78,1.246A6.824,6.824,0,0,0,115.862,27.564ZM127.65,16.308v1.708a7.137,7.137,0,0,0-3.556-.756,3.021,3.021,0,0,0-1.946.574,1.831,1.831,0,0,0-.714,1.5,2.165,2.165,0,0,0,.21.98,2.087,2.087,0,0,0,.728.77,6.556,6.556,0,0,0,.882.518q.364.168,1.176.5a10.234,10.234,0,0,1,3.01,1.722,3.227,3.227,0,0,1,1.05,2.534,3.445,3.445,0,0,1-1.218,2.786,5.047,5.047,0,0,1-3.346,1.022,8.782,8.782,0,0,1-4.144-.84V27.564a8.04,8.04,0,0,0,4.032,1.064,3.436,3.436,0,0,0,2.17-.588,1.871,1.871,0,0,0,.742-1.54,2.1,2.1,0,0,0-.77-1.736,10.4,10.4,0,0,0-2.534-1.316,9.053,9.053,0,0,1-2.716-1.568,3.127,3.127,0,0,1-1.008-2.464,3.336,3.336,0,0,1,1.26-2.73,4.86,4.86,0,0,1,3.164-1.022A7.774,7.774,0,0,1,127.65,16.308ZM137.59,28.6a3.858,3.858,0,0,0,3.136-1.526,6.776,6.776,0,0,0,1.232-4.354,6.317,6.317,0,0,0-1.19-3.976,3.654,3.654,0,0,0-3.01-1.54,4.26,4.26,0,0,0-3.136,1.33q-1.316,1.33-1.316,4.438a7.794,7.794,0,0,0,.434,2.73,4.293,4.293,0,0,0,1.12,1.764,4.663,4.663,0,0,0,1.372.868A3.736,3.736,0,0,0,137.59,28.6Zm-4.284-12.8v2.072a4.9,4.9,0,0,1,4.4-2.3,5.287,5.287,0,0,1,4.452,2.086,8.117,8.117,0,0,1,1.6,5.082,8.233,8.233,0,0,1-1.708,5.39,5.425,5.425,0,0,1-4.4,2.086,4.942,4.942,0,0,1-4.34-2.352V35.6H131.6V15.8Zm15.54,0v2.408a4.066,4.066,0,0,1,3.976-2.576q.2,0,.7.056v1.736a3.88,3.88,0,0,0-1.12-.168,3,3,0,0,0-2.534,1.5,5.759,5.759,0,0,0-1.022,3.318V30h-1.708V15.8Zm7.2,14.2V15.8h1.708V30Zm0-17.892a1.14,1.14,0,0,1-.336-.84,1.187,1.187,0,0,1,.336-.854,1.116,1.116,0,0,1,.84-.35,1.2,1.2,0,0,1,1.2,1.2,1.116,1.116,0,0,1-.35.84,1.187,1.187,0,0,1-.854.336A1.14,1.14,0,0,1,156.042,12.108Zm7.784,3.7V18.24a4.626,4.626,0,0,1,4.508-2.66,4.374,4.374,0,0,1,3.276,1.26,4.45,4.45,0,0,1,1.232,3.248V30h-1.708V20.62a3.482,3.482,0,0,0-.84-2.52,2.938,2.938,0,0,0-2.212-.868,3.989,3.989,0,0,0-3,1.33,5.017,5.017,0,0,0-1.26,3.6V30h-1.708V15.8ZM182,28.04a4.147,4.147,0,0,0,2.912-1.246,5.033,5.033,0,0,0,1.316-3.822,6.4,6.4,0,0,0-1.26-4.354,3.729,3.729,0,0,0-2.828-1.414A3.679,3.679,0,0,0,179,18.772a6.7,6.7,0,0,0-1.148,4.06,5.358,5.358,0,0,0,1.288,3.878A3.906,3.906,0,0,0,182,28.04ZM186.226,15.8h1.708v13.1a6.274,6.274,0,0,1-1.736,4.83,6.327,6.327,0,0,1-4.48,1.61,9.594,9.594,0,0,1-4.144-.812v-1.68a8.839,8.839,0,0,0,4,.868,4.8,4.8,0,0,0,3.388-1.162,4.75,4.75,0,0,0,1.26-3.654V27.06a4.585,4.585,0,0,1-4.256,2.6,5.547,5.547,0,0,1-4.186-1.82,6.878,6.878,0,0,1-1.722-4.928,8.427,8.427,0,0,1,1.582-5.264A4.983,4.983,0,0,1,181.8,15.58a4.618,4.618,0,0,1,4.424,2.716Z" transform="translate(834 1760)" fill="#3c9bcd"/>
  </g>
</svg>
