<svg xmlns="http://www.w3.org/2000/svg" xmlns:xlink="http://www.w3.org/1999/xlink" width="432" height="285" viewBox="0 0 432 285"><defs><filter id="Path_5093" width="144" height="144" x="288" y="0" filterUnits="userSpaceOnUse"><feOffset dy="3"/><feGaussianBlur result="blur" stdDeviation="3"/><feFlood flood-opacity="0.161"/><feComposite in2="blur" operator="in"/><feComposite in="SourceGraphic"/></filter><filter id="Path_295" width="144" height="144" x="0" y="0" filterUnits="userSpaceOnUse"><feOffset dy="3"/><feGaussianBlur result="blur-2" stdDeviation="3"/><feFlood flood-opacity="0.161"/><feComposite in2="blur-2" operator="in"/><feComposite in="SourceGraphic"/></filter><filter id="Path_294" width="144" height="144" x="288" y="141" filterUnits="userSpaceOnUse"><feOffset dy="3"/><feGaussianBlur result="blur-3" stdDeviation="3"/><feFlood flood-opacity="0.161"/><feComposite in2="blur-3" operator="in"/><feComposite in="SourceGraphic"/></filter><filter id="Path_293" width="144" height="144" x="144" y="0" filterUnits="userSpaceOnUse"><feOffset dy="3"/><feGaussianBlur result="blur-4" stdDeviation="3"/><feFlood flood-opacity="0.161"/><feComposite in2="blur-4" operator="in"/><feComposite in="SourceGraphic"/></filter><filter id="Path_292" width="144" height="144" x="0" y="141" filterUnits="userSpaceOnUse"><feOffset dy="3"/><feGaussianBlur result="blur-5" stdDeviation="3"/><feFlood flood-opacity="0.161"/><feComposite in2="blur-5" operator="in"/><feComposite in="SourceGraphic"/></filter><filter id="Path_291" width="144" height="144" x="144" y="141" filterUnits="userSpaceOnUse"><feOffset dy="3"/><feGaussianBlur result="blur-6" stdDeviation="3"/><feFlood flood-opacity="0.161"/><feComposite in2="blur-6" operator="in"/><feComposite in="SourceGraphic"/></filter></defs><g id="safespring_key-points-backup" transform="translate(-89 -82)"><g id="Rutor"><g filter="url(#Path_5093)" transform="translate(89 82)"><path id="Path_5093-2" fill="#fff" d="M7 0h112a7 7 0 0 1 7 7v112a7 7 0 0 1-7 7H7a7 7 0 0 1-7-7V7a7 7 0 0 1 7-7" transform="translate(297 6)"/></g><g filter="url(#Path_295)" transform="translate(89 82)"><path id="Path_295-2" fill="#fff" d="M7 0h112a7 7 0 0 1 7 7v112a7 7 0 0 1-7 7H7a7 7 0 0 1-7-7V7a7 7 0 0 1 7-7" transform="translate(9 6)"/></g><g filter="url(#Path_294)" transform="translate(89 82)"><path id="Path_294-2" fill="#fff" d="M7 0h112a7 7 0 0 1 7 7v112a7 7 0 0 1-7 7H7a7 7 0 0 1-7-7V7a7 7 0 0 1 7-7" transform="translate(297 147)"/></g><g filter="url(#Path_293)" transform="translate(89 82)"><path id="Path_293-2" fill="#fff" d="M7 0h112a7 7 0 0 1 7 7v112a7 7 0 0 1-7 7H7a7 7 0 0 1-7-7V7a7 7 0 0 1 7-7" transform="translate(153 6)"/></g><g filter="url(#Path_292)" transform="translate(89 82)"><path id="Path_292-2" fill="#fff" d="M7 0h112a7 7 0 0 1 7 7v112a7 7 0 0 1-7 7H7a7 7 0 0 1-7-7V7a7 7 0 0 1 7-7" transform="translate(9 147)"/></g><g filter="url(#Path_291)" transform="translate(89 82)"><path id="Path_291-2" fill="#fff" d="M7 0h112a7 7 0 0 1 7 7v112a7 7 0 0 1-7 7H7a7 7 0 0 1-7-7V7a7 7 0 0 1 7-7" transform="translate(153 147)"/></g></g><g id="Ikoner"><path id="gauge-high-solid-2" fill="#32cd32" d="M42.18 21.1A21.1 21.1 0 1 1 21.1 0a21.1 21.1 0 0 1 21.1 21.1M21.1 5.26a2.64 2.64 0 1 0 2.64 2.64 2.64 2.64 0 0 0-2.64-2.64m0 29a5.27 5.27 0 0 0 3.78-8.94l5.21-12a1.9 1.9 0 0 0-.94-2.62 2 2 0 0 0-2.61 1.02l-5.28 12c-.05 0-.1-.08-.16-.08A5.34 5.34 0 0 0 15.82 29a5.3 5.3 0 0 0 5.27 5.27M11.86 9.23a2.64 2.64 0 1 0 2.64 2.63 2.63 2.63 0 0 0-2.64-2.63m-3.95 14.5a2.64 2.64 0 1 0-2.64-2.64 2.63 2.63 0 0 0 2.64 2.64m26.36-5.28a2.64 2.64 0 1 0 2.64 2.64 2.63 2.63 0 0 0-2.64-2.64" transform="translate(282.909 115.812)"/><path id="Path_5430" fill="#417da5" d="M45.43 14.04a15.8 15.8 0 0 0-31.4 0 15.8 15.8 0 0 0 1.75 31.49h13.95a8.81 8.81 0 1 0 0-17.63 5.14 5.14 0 1 1 3.65-8.77 1.84 1.84 0 0 0 2.6-2.6 8.81 8.81 0 1 0-6.25 15.03 5.14 5.14 0 1 1 0 10.29H15.78a12.12 12.12 0 1 1 0-24.24 1.84 1.84 0 0 0 1.83-1.84 12.12 12.12 0 1 1 24.24 0 1.83 1.83 0 0 0 1.84 1.84 12.12 12.12 0 1 1 0 24.24 1.84 1.84 0 0 0 0 3.67 15.8 15.8 0 0 0 1.74-31.48" transform="translate(275.297 250.915)"/><g id="scalability" transform="translate(9 14)"><circle id="Ellipse_60" cx="21.5" cy="21.5" r="21.5" fill="#e7eff3" transform="translate(419 101.903)"/><path id="up-right-and-down-left-from-center-solid" fill="#195f8c" d="M29.87 0h6.1a1 1 0 0 1 1 1.01v6.1a1.02 1.02 0 0 1-1.72.71L33.6 6.18l-3.68 3.69a1 1 0 0 1-1.43 0L27.13 8.5a1 1 0 0 1 0-1.43l3.68-3.68-1.66-1.66A1.02 1.02 0 0 1 29.87 0m-6.76 20.98H17a1 1 0 0 1-1-1.02v-6.09a1.02 1.02 0 0 1 1.73-.72l1.65 1.65 3.68-3.68a1 1 0 0 1 1.44 0l1.35 1.36a1 1 0 0 1 0 1.43l-3.68 3.68 1.65 1.65a1.02 1.02 0 0 1-.72 1.74Z" transform="translate(414 112.903)"/></g><path id="pen-to-square" fill="#3c9bcd" d="M42.99 8.34a4.9 4.9 0 0 1 0 6.94l-2.64 2.64-8.59-8.6L34.4 6.7a4.9 4.9 0 0 1 6.94 0ZM15.1 25.98l14.67-14.67 8.6 8.59L23.7 34.57a5 5 0 0 1-1.92 1.19L14 38.36a2 2 0 0 1-2.16-.59 2 2 0 0 1-.51-2.08l2.6-7.78a5 5 0 0 1 1.2-1.92Zm1.72-15.65a2.86 2.86 0 0 1 2.8 2.8 2.75 2.75 0 0 1-2.8 2.8h-8.4a2.86 2.86 0 0 0-2.8 2.81v22.53a2.8 2.8 0 0 0 2.8 2.8h22.44a2.8 2.8 0 0 0 2.8-2.8v-8.5a2.8 2.8 0 0 1 5.62 0v8.5a8.4 8.4 0 0 1-8.42 8.41H8.42A8.4 8.4 0 0 1 0 41.27V18.74a8.4 8.4 0 0 1 8.42-8.41Z" transform="translate(427 246.76)"/><path id="user-lock-solid" fill="#fa690f" d="M20.43 23.35A11.68 11.68 0 1 0 8.76 11.68a11.7 11.7 0 0 0 11.67 11.67m-4.17 4.38A16.26 16.26 0 0 0 0 44a2.7 2.7 0 0 0 2.7 2.71h33.1a6 6 0 0 1-.77-2.92V32.11l.02-.58a16.2 16.2 0 0 0-10.45-3.8Zm31.9-5.84a2.9 2.9 0 0 1 2.92 2.92v4.38h-5.84v-4.38a2.9 2.9 0 0 1 2.92-2.92m-7.3 2.92v4.38a2.9 2.9 0 0 0-2.91 2.92v11.67a2.9 2.9 0 0 0 2.92 2.92h14.6a2.9 2.9 0 0 0 2.92-2.92V32.11a2.9 2.9 0 0 0-2.92-2.92v-4.38a7.3 7.3 0 1 0-14.6 0Z" transform="translate(132.683 249.903)"/><path id="clipboard-list-check" fill="#3c9bcd" d="M28.48 5.43h-4.56a8.09 8.09 0 0 0-15.28 0H4.07A4.07 4.07 0 0 0 0 9.49v29.84a4.07 4.07 0 0 0 4.07 4.07h24.41a4.07 4.07 0 0 0 4.07-4.07V9.5a4.07 4.07 0 0 0-4.07-4.07m-12.2 0a2.71 2.71 0 1 1-2.72 2.7 2.7 2.7 0 0 1 2.72-2.7m-8.14 27.8a2.04 2.04 0 1 1 2.03-2.03 2.04 2.04 0 0 1-2.03 2.03m1.35-8.81a1.4 1.4 0 0 1-.95-.4L5.82 21.3a1.36 1.36 0 1 1 1.92-1.92l1.75 1.76 4.47-4.47a1.36 1.36 0 1 1 1.92 1.92L10.45 24a1.4 1.4 0 0 1-.96.4m16.28 8.13H14.92a1.36 1.36 0 0 1 0-2.71h10.85a1.36 1.36 0 1 1 0 2.71m0-8.13h-8.14a1.36 1.36 0 0 1 0-2.72h8.14a1.36 1.36 0 0 1 0 2.71Z" transform="translate(145.597 115.701)"/></g><g id="Text" transform="translate(-285 -92)"><path id="Path_5578" fill="#3c9bcd" d="m-33.8 0 3.12-7h1.6l3.13 7h-1.7l-2.56-6.18h.64L-32.13 0Zm1.56-1.5.43-1.23h3.6l.44 1.23ZM-23.5 0l-3.02-7h1.75l2.64 6.2h-1.03l2.68-6.2h1.61l-3.03 7Zm4.06 0 3.12-7h1.6l3.13 7h-1.7l-2.56-6.18h.64L-17.77 0Zm1.56-1.5.43-1.23h3.6l.44 1.23Zm7.02 1.5v-7h1.34l4.13 5.04h-.65V-7h1.6v7h-1.33l-4.14-5.04h.65V0ZM.57.12a4 4 0 0 1-1.5-.26 4 4 0 0 1-1.2-.76 4 4 0 0 1-.8-1.15 4 4 0 0 1-.28-1.45 4 4 0 0 1 .28-1.45 4 4 0 0 1 .8-1.15 4 4 0 0 1 1.2-.76A4 4 0 0 1 .6-7.11a4 4 0 0 1 1.64.32 3 3 0 0 1 1.24.93l-1.05.96a2.4 2.4 0 0 0-.8-.62 2 2 0 0 0-.96-.2 3 3 0 0 0-.9.16 2 2 0 0 0-.7.46 2 2 0 0 0-.47.71 2 2 0 0 0-.17.91 2 2 0 0 0 .17.91 2 2 0 0 0 .46.71 2 2 0 0 0 .71.46 3 3 0 0 0 .9.16 2 2 0 0 0 .96-.2 2.4 2.4 0 0 0 .8-.63l1.05.96a3 3 0 0 1-1.24.92A4 4 0 0 1 .58.12m5.47-4.3h3.37v1.26H6.06Zm.12 2.88h3.81V0H4.56v-7h5.3v1.3h-3.7Zm5.1 1.3v-7h3.03a4 4 0 0 1 1.62.3 2.4 2.4 0 0 1 1.05.88 2.4 2.4 0 0 1 .37 1.36 2.4 2.4 0 0 1-.36 1.35 2.4 2.4 0 0 1-1.05.86 4 4 0 0 1-1.63.3h-2.13l.72-.71V0Zm4.45 0-1.75-2.54h1.73L17.48 0Zm-2.83-2.48-.72-.76h2.04a1.7 1.7 0 0 0 1.12-.32 1.1 1.1 0 0 0 .37-.9 1.1 1.1 0 0 0-.37-.9 1.7 1.7 0 0 0-1.12-.32h-2.04l.72-.77ZM17.7 0l3.12-7h1.6l3.14 7h-1.7L21.3-6.18h.64L19.36 0Zm1.56-1.5.43-1.23h3.6l.44 1.23ZM26.28 0v-7h3.18a4.4 4.4 0 0 1 2.01.44 3.3 3.3 0 0 1 1.36 1.21 3.4 3.4 0 0 1 .5 1.85 3.4 3.4 0 0 1-.5 1.84 3.3 3.3 0 0 1-1.36 1.22 4.4 4.4 0 0 1-2 .44Zm1.63-1.33h1.48a3 3 0 0 0 1.21-.27 2 2 0 0 0 .8-.75 2.3 2.3 0 0 0 .28-1.15 2 2 0 0 0-.28-1.16 2 2 0 0 0-.8-.75 3 3 0 0 0-1.22-.26H27.9ZM-41.44 13V6h3.02a4 4 0 0 1 1.63.3 2.4 2.4 0 0 1 1.04.88 2.4 2.4 0 0 1 .37 1.36 2.4 2.4 0 0 1-.37 1.35 2.4 2.4 0 0 1-1.05.86 4 4 0 0 1-1.62.3h-2.12l.71-.71V13Zm4.44 0-1.74-2.54h1.73l1.76 2.54Zm-2.82-2.48-.72-.76h2.04a1.7 1.7 0 0 0 1.12-.32 1.1 1.1 0 0 0 .37-.9 1.1 1.1 0 0 0-.38-.9 1.7 1.7 0 0 0-1.11-.32h-2.04l.72-.77Zm4.8 2.48 3.13-7h1.6l3.13 7h-1.7l-2.56-6.18h.64L-33.35 13Zm1.57-1.5.43-1.23h3.6l.44 1.23Zm7.02 1.5V6h3.03a4 4 0 0 1 1.62.3 2.4 2.4 0 0 1 1.05.88 2.4 2.4 0 0 1 .37 1.36 2.4 2.4 0 0 1-.37 1.35 2.4 2.4 0 0 1-1.05.87 4 4 0 0 1-1.62.3h-2.13l.72-.73V13Zm1.62-2.48-.72-.77h2.04a1.7 1.7 0 0 0 1.12-.32 1.1 1.1 0 0 0 .37-.89 1.1 1.1 0 0 0-.37-.9 1.7 1.7 0 0 0-1.12-.32h-2.04l.72-.77Zm5.6 2.48V6h3.03a4 4 0 0 1 1.62.3 2.4 2.4 0 0 1 1.05.88 2.4 2.4 0 0 1 .37 1.36 2.4 2.4 0 0 1-.37 1.35 2.4 2.4 0 0 1-1.05.87 4 4 0 0 1-1.62.3h-2.13l.72-.73V13Zm1.62-2.48-.72-.77h2.04a1.7 1.7 0 0 0 1.12-.32 1.1 1.1 0 0 0 .37-.89 1.1 1.1 0 0 0-.37-.9 1.7 1.7 0 0 0-1.12-.32h-2.04l.72-.77Zm9.1 2.6a4 4 0 0 1-1.54-.27 4 4 0 0 1-1.22-.76 4 4 0 0 1-.8-1.15 4 4 0 0 1-.28-1.44 4 4 0 0 1 .28-1.44 3 3 0 0 1 .8-1.15 4 4 0 0 1 1.22-.76 4 4 0 0 1 1.53-.27 4 4 0 0 1 1.53.27 4 4 0 0 1 1.2.76 4 4 0 0 1 .81 1.15 4 4 0 0 1 .29 1.44 4 4 0 0 1-.3 1.45 4 4 0 0 1-.8 1.15 4 4 0 0 1-1.21.76 4 4 0 0 1-1.51.26m-.01-1.38a2 2 0 0 0 .86-.16 2 2 0 0 0 .7-.46 2 2 0 0 0 .47-.71 2 2 0 0 0 .16-.91 2 2 0 0 0-.16-.91 2 2 0 0 0-.46-.71 2 2 0 0 0-.7-.46 2 2 0 0 0-.87-.16 2 2 0 0 0-.86.16 2 2 0 0 0-.7.46 2 2 0 0 0-.46.71 2 2 0 0 0-.17.91 2 2 0 0 0 .17.9 2 2 0 0 0 .46.71 2 2 0 0 0 .69.46 2 2 0 0 0 .87.17M-3.45 13V6h3.03a4 4 0 0 1 1.61.3 2.4 2.4 0 0 1 1.06.88 2.4 2.4 0 0 1 .37 1.36 2.4 2.4 0 0 1-.37 1.35 2.4 2.4 0 0 1-1.05.86 4 4 0 0 1-1.62.3h-2.13l.72-.71V13ZM1 13l-1.75-2.54H.98L2.75 13Zm-2.83-2.48-.72-.76h2.04a1.7 1.7 0 0 0 1.12-.32 1.1 1.1 0 0 0 .37-.9 1.1 1.1 0 0 0-.37-.9 1.7 1.7 0 0 0-1.12-.32h-2.04l.72-.77ZM5.25 13V7.32H3V6h6.1v1.32H6.87V13Zm6.22-4.18h3.36v1.26h-3.36Zm.11 2.88h3.82V13H9.97V6h5.3v1.3h-3.68Zm5.1 1.3V6h3.03a4 4 0 0 1 1.62.3 2.4 2.4 0 0 1 1.06.88 2.4 2.4 0 0 1 .37 1.36 2.4 2.4 0 0 1-.37 1.35 2.4 2.4 0 0 1-1.05.86 4 4 0 0 1-1.62.3h-2.13l.72-.71V13Zm4.45 0-1.75-2.54h1.73L22.9 13Zm-2.83-2.48-.72-.76h2.05a1.7 1.7 0 0 0 1.12-.32 1.1 1.1 0 0 0 .37-.9 1.1 1.1 0 0 0-.37-.9 1.7 1.7 0 0 0-1.12-.32h-2.04l.72-.77ZM24.05 13V6h1.62v7Zm3.28 0V6h1.34l4.13 5.04h-.65V6h1.6v7H32.4l-4.14-5.04h.65V13Zm11.46.12a4 4 0 0 1-1.53-.26 4 4 0 0 1-1.21-.76 4 4 0 0 1-.8-1.15 3.8 3.8 0 0 1 0-2.9 3 3 0 0 1 .8-1.15 4 4 0 0 1 1.23-.76 4.6 4.6 0 0 1 3.21.05 3 3 0 0 1 1.26.9l-1.04.96a3 3 0 0 0-.83-.6 2.4 2.4 0 0 0-.98-.2 3 3 0 0 0-.93.16 2 2 0 0 0-1.2 1.18 2 2 0 0 0-.16.91 2 2 0 0 0 .16.9 2 2 0 0 0 .47.72 2 2 0 0 0 .72.46 3 3 0 0 0 .91.16 3 3 0 0 0 .94-.15 3 3 0 0 0 .89-.53l.91 1.17a4 4 0 0 1-1.32.66 5 5 0 0 1-1.5.23m1.35-1.1V9.39h1.47v2.84Z" transform="translate(446.5 271.006)"/><path id="Path_5577" fill="#fa690f" d="M-15.31 0v-7h1.34l2.98 4.94h-.71L-8.77-7h1.33l.02 7h-1.52l-.01-4.67h.28l-2.34 3.93h-.73l-2.39-3.93h.34V0Zm12.66.12a3.2 3.2 0 0 1-2.33-.83 3.2 3.2 0 0 1-.84-2.37V-7h1.62v3.86a2 2 0 0 0 .41 1.44 1.5 1.5 0 0 0 1.15.44 1.5 1.5 0 0 0 1.15-.44 2 2 0 0 0 .41-1.44V-7h1.6v3.92A3.2 3.2 0 0 1-.32-.71a3.2 3.2 0 0 1-2.33.83M2.12 0v-7h1.62v5.68h3.51V0Zm6.84 0v-5.68H6.72V-7h6.1v1.32h-2.24V0Zm4.73 0v-7h1.62v7Zm-36.78 13V7.32h-2.24V6h6.1v1.32h-2.24V13Zm6.22-4.18h3.37v1.26h-3.37Zm.12 2.88h3.81V13h-5.42V6h5.3v1.3h-3.69Zm5.1 1.3V6h1.34l4.13 5.04h-.65V6h1.6v7h-1.33l-4.14-5.04h.65V13Zm7.16 0 3.12-7h1.6l3.13 7h-1.7L-.9 6.82h.64L-2.82 13Zm1.56-1.5.43-1.23h3.6l.44 1.23ZM4.1 13V6h1.34l4.13 5.04h-.65V6h1.6v7H9.19L5.05 7.96h.65V13Zm11.43.12a4 4 0 0 1-1.51-.26 3.5 3.5 0 0 1-2-1.9 3.8 3.8 0 0 1 0-2.9 4 4 0 0 1 .8-1.16 4 4 0 0 1 1.2-.75 4 4 0 0 1 1.51-.27 4 4 0 0 1 1.65.32 3 3 0 0 1 1.24.93l-1.05.96a2.4 2.4 0 0 0-.8-.62 2 2 0 0 0-.96-.2 3 3 0 0 0-.9.16 2 2 0 0 0-.7.46 2 2 0 0 0-.47.71 2.6 2.6 0 0 0 0 1.82 2 2 0 0 0 .47.71 2 2 0 0 0 .7.46 3 3 0 0 0 .9.16 2 2 0 0 0 .97-.2 2.4 2.4 0 0 0 .8-.62l1.04.96a3 3 0 0 1-1.24.93 4 4 0 0 1-1.65.3m5.65-.12v-2.86l.37.98L18.46 6h1.72l2.36 3.93h-.99L23.94 6h1.59l-3.08 5.12.36-.98V13Z" transform="translate(446 413.097)"/><path id="Path_5576" fill="#32cd32" d="M-7.9-7h1.62v7H-7.9Zm-3.18 7h-1.62v-7h1.62Zm3.3-2.87h-3.42v-1.37h3.42ZM-1.22.12a4 4 0 0 1-1.53-.27 4 4 0 0 1-1.22-.76 4 4 0 0 1-.8-1.15 4 4 0 0 1-.29-1.44 4 4 0 0 1 .28-1.44 3 3 0 0 1 .8-1.15 4 4 0 0 1 1.23-.76 4 4 0 0 1 1.52-.27 4 4 0 0 1 1.53.27 4 4 0 0 1 1.21.76 4 4 0 0 1 .8 1.14A4 4 0 0 1 2.6-3.5a4 4 0 0 1-.29 1.45 4 4 0 0 1-.8 1.15A4 4 0 0 1 .3-.15a4 4 0 0 1-1.52.27m-.01-1.38a2 2 0 0 0 .87-.16 2 2 0 0 0 .7-.46 2 2 0 0 0 .46-.71 2 2 0 0 0 .16-.91 2 2 0 0 0-.16-.91 2 2 0 0 0-.46-.71 2 2 0 0 0-.7-.46 2 2 0 0 0-.87-.16 2 2 0 0 0-.86.16 2 2 0 0 0-.7.46 2 2 0 0 0-.46.71 2 2 0 0 0-.17.91 2 2 0 0 0 .17.9 2 2 0 0 0 .46.72 2 2 0 0 0 .69.45 2 2 0 0 0 .87.17m1.01-6.36a.7.7 0 0 1-.49-.19.7.7 0 0 1-.2-.5.7.7 0 0 1 .2-.5A.7.7 0 0 1-.22-9a.7.7 0 0 1 .5.19.7.7 0 0 1 .2.5.7.7 0 0 1-.2.5.7.7 0 0 1-.5.19m-2.02 0a.7.7 0 0 1-.5-.19.7.7 0 0 1-.2-.5.7.7 0 0 1 .2-.5.7.7 0 0 1 .5-.19.7.7 0 0 1 .49.19.7.7 0 0 1 .2.5.7.7 0 0 1-.2.5.7.7 0 0 1-.49.19M7.2.12a4 4 0 0 1-1.53-.26 4 4 0 0 1-1.2-.76 4 4 0 0 1-.8-1.15 4 4 0 0 1-.29-1.45 4 4 0 0 1 .28-1.45 3.4 3.4 0 0 1 .81-1.15 4 4 0 0 1 1.22-.75 4 4 0 0 1 1.54-.27 4 4 0 0 1 1.68.31 3 3 0 0 1 1.25.9l-1.04.96a3 3 0 0 0-.83-.6 2.4 2.4 0 0 0-.98-.2 3 3 0 0 0-.93.16 2 2 0 0 0-.72.46 2 2 0 0 0-.47.71 2 2 0 0 0-.17.91 2 2 0 0 0 .17.9 2 2 0 0 0 .47.72 2 2 0 0 0 .72.46 3 3 0 0 0 .91.16 3 3 0 0 0 .94-.15 3 3 0 0 0 .88-.52l.92 1.17a4 4 0 0 1-1.32.66A5 5 0 0 1 7.2.12m1.35-1.1v-2.63h1.48v2.84Zm-33.65 14.1a6 6 0 0 1-1.61-.22 4 4 0 0 1-1.24-.59l.55-1.22a4 4 0 0 0 1.06.52 4 4 0 0 0 1.25.2 3 3 0 0 0 .77-.09 1 1 0 0 0 .44-.27.6.6 0 0 0 .14-.39.5.5 0 0 0-.22-.44 2 2 0 0 0-.58-.27l-.8-.2q-.44-.1-.87-.24a4 4 0 0 1-.8-.36 2 2 0 0 1-.59-.58 2 2 0 0 1-.22-.92 2 2 0 0 1 .32-1.09 2 2 0 0 1 .98-.79 4 4 0 0 1 1.65-.3 6 6 0 0 1 1.3.15 4 4 0 0 1 1.13.47l-.5 1.23a4 4 0 0 0-.98-.42 4 4 0 0 0-.96-.13 2 2 0 0 0-.78.11 1 1 0 0 0-.43.28.7.7 0 0 0-.13.41.5.5 0 0 0 .22.44 2 2 0 0 0 .58.26l.8.2q.44.1.87.23a3 3 0 0 1 .8.35 2 2 0 0 1 .59.58 1.7 1.7 0 0 1 .23.91 2 2 0 0 1-.33 1.08 2.3 2.3 0 0 1-.99.79 4 4 0 0 1-1.66.31m3.16-.12 3.12-7h1.6l3.13 7h-1.7l-2.56-6.18h.64L-20.28 13Zm1.56-1.5.42-1.23h3.6l.44 1.23Zm3.36-6.12a.7.7 0 0 1-.49-.19.7.7 0 0 1-.2-.5.7.7 0 0 1 .2-.5A.7.7 0 0 1-17 4a.7.7 0 0 1 .49.19.7.7 0 0 1 .2.5.7.7 0 0 1-.2.5.7.7 0 0 1-.5.19m-2.02 0a.7.7 0 0 1-.49-.19.7.7 0 0 1-.2-.5.7.7 0 0 1 .2-.5.7.7 0 0 1 .5-.19.7.7 0 0 1 .49.19.7.7 0 0 1 .2.5.7.7 0 0 1-.2.5.7.7 0 0 1-.5.19m7.12 6.02L-12 9.53-8.65 6h1.8l-3.02 3.25-.9.96Zm-1.44 1.6V6h1.6v7Zm4.79 0-2.5-3.05L-10 8.8l3.32 4.2Zm4.1-4.18h3.37v1.26h-3.37Zm.12 2.88h3.8V13h-5.41V6h5.29v1.3h-3.68ZM.75 13V6h3.03a4 4 0 0 1 1.62.3 2.4 2.4 0 0 1 1.04.88 2.4 2.4 0 0 1 .37 1.36 2.4 2.4 0 0 1-.37 1.35 2.4 2.4 0 0 1-1.05.86 4 4 0 0 1-1.62.3H1.65l.72-.71V13Zm4.45 0-1.75-2.54h1.73L6.95 13Zm-2.83-2.48-.72-.76h2.04a1.7 1.7 0 0 0 1.11-.32 1.1 1.1 0 0 0 .37-.9 1.1 1.1 0 0 0-.37-.9 1.7 1.7 0 0 0-1.12-.32H1.65l.72-.77ZM12.89 6h1.62v7H12.9Zm-3.18 7H8.1V6h1.63Zm3.3-2.87H9.6V8.76h3.42Zm4.66-1.31h3.36v1.26h-3.37Zm.11 2.88h3.82V13h-5.42V6h5.29v1.3h-3.68Zm6.55 1.3V7.32H22.1V6h6.1v1.32h-2.24V13Z" transform="translate(590 272.013)"/><path id="Path_5575" fill="#3c9bcd" d="M-23.92-3.85h3.36v1.3h-3.36ZM-23.8 0h-1.62v-7h5.29v1.3h-3.67Zm4.77 0v-7h1.62v5.68h3.51V0Zm7.53-4.18h3.37v1.26h-3.37Zm.12 2.88h3.81V0h-5.42v-7h5.29v1.3h-3.68ZM-7.15 0l3.01-4.15v1.18L-7.02-7h1.84l1.99 2.81-.77.01L-2-7h1.76L-3.1-3.04V-4.2L-.07 0h-1.87L-4-2.97h.74L-5.29 0ZM.57 0v-7h1.62v7Zm3.28 0v-7h3.42a3.3 3.3 0 0 1 1.99.5 1.6 1.6 0 0 1 .66 1.32 1.7 1.7 0 0 1-.27.96 2 2 0 0 1-.74.62 3 3 0 0 1-1.08.22l.19-.41a3 3 0 0 1 1.17.22 2 2 0 0 1 .8.63 2 2 0 0 1 .28 1.03 1.6 1.6 0 0 1-.7 1.41 3.6 3.6 0 0 1-2.09.5Zm1.61-1.22h1.89a2 2 0 0 0 .96-.2.7.7 0 0 0 .32-.66.7.7 0 0 0-.32-.65 2 2 0 0 0-.96-.22H5.34v-1.18h1.73a2 2 0 0 0 .9-.2.7.7 0 0 0 .32-.63.7.7 0 0 0-.31-.61 2 2 0 0 0-.9-.21H5.45Zm7.53-2.96h3.37v1.26h-3.37Zm.12 2.88h3.81V0H11.5v-7h5.29v1.3h-3.68Zm5.1 1.3v-7h1.62v5.68h3.51V0Zm-64.9 13 3.11-7h1.6l3.13 7h-1.7l-2.55-6.18h.64L-45.03 13Zm1.55-1.5.44-1.23h3.6l.44 1.23Zm7.03 1.5V6h3.18a4.4 4.4 0 0 1 2 .44 3.3 3.3 0 0 1 1.37 1.21 3.4 3.4 0 0 1 .49 1.85 3.4 3.4 0 0 1-.5 1.85 3.3 3.3 0 0 1-1.35 1.22 4.4 4.4 0 0 1-2.01.43Zm1.62-1.33h1.48a3 3 0 0 0 1.21-.27 2 2 0 0 0 .8-.75 2.3 2.3 0 0 0 .28-1.16A2 2 0 0 0-33 8.35a2 2 0 0 0-.8-.75 3 3 0 0 0-1.22-.27h-1.47Zm6.64 1.33V6h1.34l2.98 4.94h-.71L-23.32 6h1.33l.02 7h-1.52V8.33h.27l-2.34 3.93h-.73l-2.39-3.93h.34V13Zm9.55 0V6h1.62v7Zm3.28 0V6h1.34l4.13 5.04h-.65V6h1.6v7h-1.33l-4.14-5.04h.65V13Zm8.08 0V6h1.62v7Zm5.58.12a6 6 0 0 1-1.61-.22 4 4 0 0 1-1.24-.59l.55-1.22a4 4 0 0 0 1.06.52 4 4 0 0 0 1.25.2 3 3 0 0 0 .77-.09 1 1 0 0 0 .44-.27.6.6 0 0 0 .14-.38.5.5 0 0 0-.22-.44 2 2 0 0 0-.58-.28l-.8-.2q-.44-.1-.87-.23a4 4 0 0 1-.8-.36 2 2 0 0 1-.58-.58 2 2 0 0 1-.22-.92 2 2 0 0 1 .32-1.1 2 2 0 0 1 .98-.79 4 4 0 0 1 1.65-.3 6 6 0 0 1 1.3.16A4 4 0 0 1-.7 6.5l-.5 1.23a4 4 0 0 0-.99-.41 4 4 0 0 0-.95-.14 2 2 0 0 0-.77.11 1 1 0 0 0-.43.29 1 1 0 0 0-.13.4.5.5 0 0 0 .22.44 2 2 0 0 0 .58.26l.8.2q.43.1.86.23a3 3 0 0 1 .8.35 2 2 0 0 1 .59.58 1.7 1.7 0 0 1 .22.91 2 2 0 0 1-.33 1.08 2.3 2.3 0 0 1-.98.79 4 4 0 0 1-1.67.3M2.06 13V7.32H-.17V6h6.1v1.32H3.68V13Zm4.74 0V6h3.03a4 4 0 0 1 1.62.3 2.4 2.4 0 0 1 1.05.88 2.4 2.4 0 0 1 .37 1.36 2.4 2.4 0 0 1-.37 1.35 2.4 2.4 0 0 1-1.05.86 4 4 0 0 1-1.62.3H7.7l.72-.71V13Zm4.45 0L9.5 10.46h1.73L13 13Zm-2.83-2.48-.72-.76h2.04a1.7 1.7 0 0 0 1.12-.32 1.1 1.1 0 0 0 .37-.9 1.1 1.1 0 0 0-.37-.9 1.7 1.7 0 0 0-1.12-.32H7.7l.72-.77Zm4.8 2.48 3.12-7h1.6l3.13 7h-1.7l-2.56-6.18h.65L14.88 13Zm1.56-1.5.44-1.23h3.6l.44 1.23Zm8.13 1.5V7.32h-2.24V6h6.1v1.32h-2.24V13Zm4.73 0V6h1.62v7Zm6.68.12a4 4 0 0 1-1.54-.27 4 4 0 0 1-1.22-.76 4 4 0 0 1-.8-1.15 3.8 3.8 0 0 1 0-2.88 3 3 0 0 1 .8-1.15 4 4 0 0 1 1.23-.76 4.4 4.4 0 0 1 3.04 0 4 4 0 0 1 1.21.76 3.65 3.65 0 0 1 .8 4.03 4 4 0 0 1-.8 1.15 4 4 0 0 1-1.21.76 4 4 0 0 1-1.52.27m-.02-1.38a2 2 0 0 0 .87-.16 2 2 0 0 0 .7-.46 2 2 0 0 0 .46-.71 2.6 2.6 0 0 0 0-1.82 2 2 0 0 0-.46-.71 2 2 0 0 0-.7-.46 2 2 0 0 0-.86-.16 2 2 0 0 0-.87.16 2 2 0 0 0-.7.46 2 2 0 0 0-.46.71 2.6 2.6 0 0 0 0 1.81 2 2 0 0 0 .46.72 2 2 0 0 0 .7.46 2 2 0 0 0 .87.16M39.37 13V6h1.33l4.14 5.04h-.65V6h1.6v7h-1.33L40.3 7.96h.65V13Z" transform="translate(734 413.097)"/><path id="Path_5574" fill="#417da5" d="M-30.45.12a6 6 0 0 1-1.61-.22 4 4 0 0 1-1.24-.59l.55-1.22a4 4 0 0 0 1.07.53 4 4 0 0 0 1.24.2 3 3 0 0 0 .78-.1 1 1 0 0 0 .43-.26.6.6 0 0 0 .14-.4.5.5 0 0 0-.22-.44 2 2 0 0 0-.58-.27l-.8-.2q-.44-.1-.87-.23a4 4 0 0 1-.8-.36 2 2 0 0 1-.58-.58 1.7 1.7 0 0 1-.23-.92 2 2 0 0 1 .33-1.1 2 2 0 0 1 .98-.79 4 4 0 0 1 1.64-.3 6 6 0 0 1 1.3.16 4 4 0 0 1 1.13.46l-.5 1.23a4 4 0 0 0-.98-.41 4 4 0 0 0-.96-.14 2 2 0 0 0-.77.11 1 1 0 0 0-.43.29 1 1 0 0 0-.13.4.5.5 0 0 0 .22.44 2 2 0 0 0 .58.26l.8.2q.44.1.87.23a3 3 0 0 1 .8.35 2 2 0 0 1 .59.58 1.7 1.7 0 0 1 .22.91 2 2 0 0 1-.33 1.08 2.3 2.3 0 0 1-.98.79 4 4 0 0 1-1.66.31m3.16-.12 3.12-7h1.6l3.13 7h-1.7l-2.56-6.18h.64L-25.63 0Zm1.56-1.5.43-1.23h3.6l.44 1.23Zm8.52-2.35h3.36v1.3h-3.36Zm.12 3.85h-1.62v-7h5.29v1.3h-3.67Zm6.26-4.18h3.37v1.26h-3.37Zm.12 2.88h3.81V0h-5.42v-7h5.29v1.3h-3.68Zm7.4 1.42A6 6 0 0 1-4.92-.1a4 4 0 0 1-1.24-.59l.55-1.22a4 4 0 0 0 1.07.53 4 4 0 0 0 1.24.2 3 3 0 0 0 .78-.1 1 1 0 0 0 .43-.26.6.6 0 0 0 .14-.39.5.5 0 0 0-.22-.45 2 2 0 0 0-.58-.27l-.8-.2q-.44-.1-.87-.23a4 4 0 0 1-.8-.36 2 2 0 0 1-.58-.58 2 2 0 0 1-.22-.92 2 2 0 0 1 .32-1.1 2 2 0 0 1 .98-.79 4 4 0 0 1 1.64-.3 6 6 0 0 1 1.3.16 4 4 0 0 1 1.14.47l-.5 1.23a4 4 0 0 0-.98-.41 4 4 0 0 0-.96-.14 2 2 0 0 0-.77.11 1 1 0 0 0-.43.29 1 1 0 0 0-.13.4.5.5 0 0 0 .22.44 2 2 0 0 0 .58.26l.8.2q.44.1.87.23a3 3 0 0 1 .8.35 2 2 0 0 1 .58.58 1.7 1.7 0 0 1 .23.91A2 2 0 0 1-.67-.97a2.3 2.3 0 0 1-.98.79 4 4 0 0 1-1.66.3M.77 0v-7H3.8a4 4 0 0 1 1.62.3 2.4 2.4 0 0 1 1.05.88 2.4 2.4 0 0 1 .37 1.36 2.4 2.4 0 0 1-.37 1.35 2.4 2.4 0 0 1-1.05.88 4 4 0 0 1-1.62.3H1.67l.72-.73V0Zm1.62-2.48-.72-.77h2.04a1.7 1.7 0 0 0 1.12-.32 1.1 1.1 0 0 0 .37-.89 1.1 1.1 0 0 0-.37-.9 1.7 1.7 0 0 0-1.12-.32H1.67l.72-.77ZM7.99 0v-7h3.03a4 4 0 0 1 1.62.3 2.4 2.4 0 0 1 1.05.88 2.4 2.4 0 0 1 .37 1.36 2.4 2.4 0 0 1-.37 1.35 2.4 2.4 0 0 1-1.05.86 4 4 0 0 1-1.62.3H8.89l.72-.71V0Zm4.45 0-1.75-2.54h1.73L14.19 0ZM9.61-2.48l-.72-.76h2.04a1.7 1.7 0 0 0 1.12-.32 1.1 1.1 0 0 0 .37-.9 1.1 1.1 0 0 0-.37-.9 1.7 1.7 0 0 0-1.12-.32H8.89l.72-.77ZM15.34 0v-7h1.62v7Zm3.28 0v-7h1.34l4.13 5.04h-.65V-7h1.6v7h-1.33l-4.14-5.04h.65V0Zm11.46.12a4 4 0 0 1-1.52-.26 4 4 0 0 1-1.21-.76 4 4 0 0 1-.8-1.15 4 4 0 0 1-.29-1.45 4 4 0 0 1 .28-1.45 3.4 3.4 0 0 1 .81-1.15 4 4 0 0 1 1.22-.75 4 4 0 0 1 1.54-.27 4 4 0 0 1 1.68.31 3 3 0 0 1 1.25.9L32-4.95a3 3 0 0 0-.83-.6 2.4 2.4 0 0 0-.98-.2 3 3 0 0 0-.93.16 2 2 0 0 0-.72.46 2 2 0 0 0-.47.71 2 2 0 0 0-.17.91 2 2 0 0 0 .17.9 2 2 0 0 0 .47.72 2 2 0 0 0 .72.46 3 3 0 0 0 .91.16 3 3 0 0 0 .93-.15 3 3 0 0 0 .89-.53l.92 1.17a4 4 0 0 1-1.32.66 5 5 0 0 1-1.51.24m1.35-1.1v-2.63h1.48v2.84ZM-47.02 13V6h1.62v7Zm3.28 0V6h1.34l4.13 5.04h-.65V6h1.6v7h-1.33l-4.15-5.04h.65V13Zm9.58-3.85h3.35v1.3h-3.36Zm.11 3.85h-1.62V6h5.3v1.3h-3.67Zm4.77 0V6h3.03a4 4 0 0 1 1.62.3 2.4 2.4 0 0 1 1.05.88 2.4 2.4 0 0 1 .37 1.36 2.4 2.4 0 0 1-.36 1.35 2.4 2.4 0 0 1-1.05.86 4 4 0 0 1-1.62.3h-2.14l.72-.71V13Zm4.45 0-1.75-2.54h1.73l1.77 2.54Zm-2.83-2.48-.72-.76h2.04a1.7 1.7 0 0 0 1.12-.32 1.1 1.1 0 0 0 .37-.9 1.1 1.1 0 0 0-.36-.9 1.7 1.7 0 0 0-1.12-.32h-2.05l.72-.77Zm4.81 2.48 3.12-7h1.6l3.13 7h-1.7l-2.56-6.18h.65L-21.18 13Zm1.56-1.5.43-1.23h3.6l.44 1.23Zm9.32 1.62a6 6 0 0 1-1.6-.22 4 4 0 0 1-1.25-.59l.55-1.22a4 4 0 0 0 1.07.53 4 4 0 0 0 1.24.2 3 3 0 0 0 .78-.1 1 1 0 0 0 .43-.26.6.6 0 0 0 .14-.4.5.5 0 0 0-.22-.44 2 2 0 0 0-.58-.27l-.79-.2q-.43-.1-.87-.23a4 4 0 0 1-.8-.36 2 2 0 0 1-.59-.58 2 2 0 0 1-.22-.92 2 2 0 0 1 .32-1.1 2 2 0 0 1 .98-.79 4 4 0 0 1 1.65-.3 6 6 0 0 1 1.3.16 4 4 0 0 1 1.13.47l-.5 1.23a4 4 0 0 0-.98-.41 4 4 0 0 0-.96-.14 2 2 0 0 0-.77.11 1 1 0 0 0-.43.29 1 1 0 0 0-.13.4.5.5 0 0 0 .22.44 2 2 0 0 0 .58.26l.8.2q.44.1.87.23a3 3 0 0 1 .8.35 2 2 0 0 1 .59.58 1.7 1.7 0 0 1 .21.91 2 2 0 0 1-.33 1.08 2.3 2.3 0 0 1-.98.79 4 4 0 0 1-1.65.3m5.43-.12V7.32h-2.24V6h6.1v1.32h-2.24V13Zm4.73 0V6h3.03a4 4 0 0 1 1.62.3 2.4 2.4 0 0 1 1.06.88 2.4 2.4 0 0 1 .37 1.36 2.4 2.4 0 0 1-.37 1.35 2.4 2.4 0 0 1-1.05.86 4 4 0 0 1-1.62.3H-.9l.72-.71V13Zm4.45 0L.9 10.46h1.73L4.4 13Zm-2.83-2.48-.71-.76h2.04a1.7 1.7 0 0 0 1.12-.32 1.1 1.1 0 0 0 .37-.9 1.1 1.1 0 0 0-.37-.9 1.7 1.7 0 0 0-1.12-.32H-.9l.72-.77Zm8.84 2.6a3.2 3.2 0 0 1-2.33-.83 3.2 3.2 0 0 1-.84-2.37V6H7.1v3.86a2 2 0 0 0 .41 1.44 1.5 1.5 0 0 0 1.15.44 1.5 1.5 0 0 0 1.15-.44 2 2 0 0 0 .41-1.44V6h1.6v3.92a3.2 3.2 0 0 1-.84 2.37 3.2 3.2 0 0 1-2.33.83m8.12 0a4 4 0 0 1-1.5-.26 3.5 3.5 0 0 1-2-1.9 3.8 3.8 0 0 1 0-2.9 4 4 0 0 1 .8-1.16 4 4 0 0 1 1.2-.75 4 4 0 0 1 1.51-.27 4 4 0 0 1 1.65.32 3 3 0 0 1 1.24.93l-1.05.96a2.4 2.4 0 0 0-.8-.62 2 2 0 0 0-.96-.2 3 3 0 0 0-.9.16 2 2 0 0 0-.7.46 2 2 0 0 0-.47.71 2.6 2.6 0 0 0 0 1.82 2 2 0 0 0 .47.71 2 2 0 0 0 .7.46 3 3 0 0 0 .9.16 2 2 0 0 0 .96-.2 2.4 2.4 0 0 0 .8-.62l1.04.96a3 3 0 0 1-1.23.93 4 4 0 0 1-1.66.3m5.36-.12V7.32H19.9V6H26v1.32h-2.24V13Zm7.72.12a3.2 3.2 0 0 1-2.33-.83 3.2 3.2 0 0 1-.84-2.37V6h1.62v3.86a2 2 0 0 0 .41 1.44 1.7 1.7 0 0 0 2.3 0 2 2 0 0 0 .41-1.44V6h1.6v3.92a3.2 3.2 0 0 1-.84 2.37 3.2 3.2 0 0 1-2.32.83m4.77-.12V6h3.04a4 4 0 0 1 1.62.3 2.4 2.4 0 0 1 1.04.88 2.4 2.4 0 0 1 .37 1.36 2.4 2.4 0 0 1-.37 1.35 2.4 2.4 0 0 1-1.05.86 4 4 0 0 1-1.62.3h-2.12l.71-.71V13Zm4.46 0-1.75-2.54h1.73L40.83 13Zm-2.83-2.48-.72-.76h2.04a1.7 1.7 0 0 0 1.12-.32 1.1 1.1 0 0 0 .37-.9 1.1 1.1 0 0 0-.38-.9 1.7 1.7 0 0 0-1.11-.32h-2.04l.72-.77Zm7.22-1.7h3.37v1.26h-3.38Zm.12 2.88h3.81V13h-5.42V6h5.29v1.3H43.6Z" transform="translate(590 413.097)"/><path id="Path_5573" fill="#195f8c" d="M-23.27.12a3.2 3.2 0 0 1-2.33-.83 3.2 3.2 0 0 1-.84-2.37V-7h1.62v3.86a2 2 0 0 0 .41 1.44 1.5 1.5 0 0 0 1.15.44 1.5 1.5 0 0 0 1.15-.44 2 2 0 0 0 .41-1.44V-7h1.6v3.92a3.2 3.2 0 0 1-.84 2.37 3.2 3.2 0 0 1-2.33.83m6.1-.12v-5.68h-2.24V-7h6.1v1.32h-2.24V0Zm4.73 0v-7h1.34l2.98 4.94h-.71L-5.9-7h1.33l.02 7h-1.53v-4.67h.27L-8.14-.74h-.73l-2.4-3.93h.34V0Zm8.63 0L-.7-7H.9l3.13 7h-1.7L-.23-6.18h.64L-2.14 0Zm1.56-1.5.43-1.23h3.6l.44 1.23Zm3.37-6.12a.7.7 0 0 1-.5-.19.7.7 0 0 1-.2-.5.7.7 0 0 1 .2-.5.7.7 0 0 1 .5-.19.7.7 0 0 1 .49.19.7.7 0 0 1 .2.5.7.7 0 0 1-.2.5.7.7 0 0 1-.5.19m-2.02 0a.7.7 0 0 1-.5-.19.7.7 0 0 1-.21-.5.7.7 0 0 1 .2-.5A.7.7 0 0 1-.9-9a.7.7 0 0 1 .5.19.7.7 0 0 1 .2.5.7.7 0 0 1-.2.5.7.7 0 0 1-.5.19M4.77 0v-7H7.8a4 4 0 0 1 1.62.3 2.4 2.4 0 0 1 1.04.88 2.4 2.4 0 0 1 .37 1.36 2.4 2.4 0 0 1-.37 1.35 2.4 2.4 0 0 1-1.05.86 4 4 0 0 1-1.62.3H5.67l.72-.71V0Zm4.45 0L7.46-2.54H9.2L10.97 0ZM6.38-2.48l-.72-.76H7.7a1.7 1.7 0 0 0 1.12-.32 1.1 1.1 0 0 0 .37-.9 1.1 1.1 0 0 0-.37-.9 1.7 1.7 0 0 0-1.12-.32H5.67l.72-.77Zm7.19.88-.1-1.87L16.83-7h1.8L15.6-3.75l-.9.96ZM12.12 0v-7h1.6v7Zm4.78 0-2.49-3.05 1.06-1.15L18.8 0Zm3.58 0v-5.68h-2.24V-7h6.1v1.32H22.1V0Zm-52.75 13.12a6 6 0 0 1-1.61-.22 4 4 0 0 1-1.24-.59l.55-1.22a4 4 0 0 0 1.06.52 4 4 0 0 0 1.25.2 3 3 0 0 0 .77-.09 1 1 0 0 0 .44-.27.6.6 0 0 0 .14-.39.5.5 0 0 0-.22-.44 2 2 0 0 0-.58-.27l-.8-.2q-.44-.1-.87-.24a4 4 0 0 1-.8-.36 2 2 0 0 1-.59-.58 2 2 0 0 1-.22-.92 2 2 0 0 1 .32-1.09 2 2 0 0 1 .98-.79 4 4 0 0 1 1.65-.3 6 6 0 0 1 1.3.15 4 4 0 0 1 1.14.48l-.5 1.23a4 4 0 0 0-.98-.41 4 4 0 0 0-.96-.14 2 2 0 0 0-.77.11 1 1 0 0 0-.43.29 1 1 0 0 0-.13.4.5.5 0 0 0 .22.44 2 2 0 0 0 .58.26l.8.2q.43.1.86.23a3 3 0 0 1 .8.35 2 2 0 0 1 .59.58 1.7 1.7 0 0 1 .22.91 2 2 0 0 1-.33 1.08 2.3 2.3 0 0 1-.98.79 4 4 0 0 1-1.66.3m5.53-1.72-.09-1.87L-23.48 6h1.8l-3.02 3.25-.9.96Zm-1.45 1.6V6h1.61v7Zm4.79 0-2.49-3.05 1.06-1.15 3.32 4.2Zm1.38 0 3.12-7h1.6l3.13 7h-1.7l-2.56-6.18h.64L-20.36 13Zm1.56-1.5.43-1.23h3.6l.44 1.23Zm7.02 1.5V6h1.62v5.68h3.51V13Zm6.04 0V6h3.42A3.3 3.3 0 0 1-2 6.5a1.6 1.6 0 0 1 .67 1.32 1.7 1.7 0 0 1-.27.96 2 2 0 0 1-.74.62 3 3 0 0 1-1.08.22l.19-.41a3 3 0 0 1 1.17.22 2 2 0 0 1 .8.63 2 2 0 0 1 .28 1.03 1.6 1.6 0 0 1-.71 1.4 3.6 3.6 0 0 1-2.09.51Zm1.61-1.22h1.89a2 2 0 0 0 .96-.2.7.7 0 0 0 .32-.65.7.7 0 0 0-.32-.66 2 2 0 0 0-.96-.22h-2.01V8.87h1.73a2 2 0 0 0 .9-.2.7.7 0 0 0 .32-.63.7.7 0 0 0-.31-.61 2 2 0 0 0-.9-.21H-5.8ZM-.67 13l3.12-7h1.6l3.13 7h-1.7L2.92 6.82h.64L.99 13Zm1.56-1.5.43-1.23h3.6l.44 1.23ZM7.91 13V6h3.03a4 4 0 0 1 1.62.3 2.4 2.4 0 0 1 1.05.88 2.4 2.4 0 0 1 .37 1.36 2.4 2.4 0 0 1-.37 1.35 2.4 2.4 0 0 1-1.05.86 4 4 0 0 1-1.62.3H8.81l.72-.71V13Zm4.45 0-1.75-2.54h1.73L14.11 13Zm-2.83-2.48-.72-.76h2.04a1.7 1.7 0 0 0 1.12-.32 1.1 1.1 0 0 0 .37-.9 1.1 1.1 0 0 0-.37-.9 1.7 1.7 0 0 0-1.12-.32H8.81l.72-.77ZM20.06 6h1.62v7h-1.62Zm-3.18 7h-1.62V6h1.62Zm3.3-2.87h-3.42V8.76h3.42Zm4.65-1.31h3.37v1.26h-3.37Zm.12 2.88h3.81V13h-5.42V6h5.29v1.3h-3.68ZM31.5 13V7.32h-2.24V6h6.1v1.32h-2.24V13Z" transform="translate(734 272.109)"/></g></g></svg>