<svg xmlns="http://www.w3.org/2000/svg" xmlns:xlink="http://www.w3.org/1999/xlink" width="336" height="382" viewBox="0 0 336 382"><defs><filter id="Rectangle_14" width="336" height="382" x="0" y="0" filterUnits="userSpaceOnUse"><feOffset dy="3"/><feGaussianBlur result="blur" stdDeviation="3"/><feFlood flood-opacity="0.161"/><feComposite in2="blur" operator="in"/><feComposite in="SourceGraphic"/></filter></defs><g id="safespring-list" transform="translate(-794 -1716)"><g filter="url(#Rectangle_14)" transform="translate(794 1716)"><rect id="Rectangle_14-2" width="318" height="364" fill="#fff" rx="30" transform="translate(9 6)"/></g><g id="Group_5" transform="translate(842.25 863)"><path id="check-solid" fill="#32cd32" d="M4.76 75.88.2 71.08a.77.77 0 0 1 0-1.04l1-1.04a.7.7 0 0 1 .99 0l3.06 3.23 6.57-6.92a.7.7 0 0 1 .99 0l.99 1.05a.77.77 0 0 1 0 1.04l-8.05 8.48a.7.7 0 0 1-1 0" transform="translate(7 1092.902)"/><circle id="Ellipse_4" cx="14.5" cy="14.5" r="14.5" fill="rgba(50,205,50,0.1)" transform="translate(0 1149)"/></g><g id="Group_8" transform="translate(842.25 806)"><path id="check-solid-2" fill="#32cd32" d="M4.76 75.88.2 71.08a.77.77 0 0 1 0-1.04l1-1.04a.7.7 0 0 1 .99 0l3.06 3.23 6.57-6.92a.7.7 0 0 1 .99 0l.99 1.05a.77.77 0 0 1 0 1.04l-8.05 8.48a.7.7 0 0 1-1 0Z" transform="translate(7 1092.902)"/><circle id="Ellipse_4-2" cx="14.5" cy="14.5" r="14.5" fill="rgba(50,205,50,0.1)" transform="translate(0 1149)"/></g><g id="Group_7" transform="translate(842.25 749)"><path id="check-solid-3" fill="#32cd32" d="M4.76 75.88.2 71.08a.77.77 0 0 1 0-1.04l1-1.04a.7.7 0 0 1 .99 0l3.06 3.23 6.57-6.92a.7.7 0 0 1 .99 0l.99 1.05a.77.77 0 0 1 0 1.04l-8.05 8.48a.7.7 0 0 1-1 0Z" transform="translate(7 1092.902)"/><circle id="Ellipse_4-3" cx="14.5" cy="14.5" r="14.5" fill="rgba(50,205,50,0.1)" transform="translate(0 1149)"/></g><g id="Group_6" transform="translate(842.25 692)"><path id="check-solid-4" fill="#32cd32" d="M4.76 75.88.2 71.08a.77.77 0 0 1 0-1.04l1-1.04a.7.7 0 0 1 .99 0l3.06 3.23 6.57-6.92a.7.7 0 0 1 .99 0l.99 1.05a.77.77 0 0 1 0 1.04l-8.05 8.48a.7.7 0 0 1-1 0Z" transform="translate(7 1092.902)"/><circle id="Ellipse_4-4" cx="14.5" cy="14.5" r="14.5" fill="rgba(50,205,50,0.1)" transform="translate(0 1149)"/></g><path id="Path_69" fill="#3c9bcd" d="M77.95 11.8v1.93a6 6 0 0 0-1.76-.75 8 8 0 0 0-2.13-.31 4.7 4.7 0 0 0-3 .88 2.8 2.8 0 0 0-1.12 2.34 2.7 2.7 0 0 0 1.29 2.42 11 11 0 0 0 1.22.76q.52.26 1.58.71.98.42 1.48.66a12 12 0 0 1 1.3.74 5 5 0 0 1 1.18 1 5 5 0 0 1 .73 1.25 4 4 0 0 1 .32 1.7 4.5 4.5 0 0 1-1.65 3.76 6.6 6.6 0 0 1-4.23 1.3 9.4 9.4 0 0 1-4.95-1.23v-1.93a7 7 0 0 0 2.17 1.07 9 9 0 0 0 2.7.42 5 5 0 0 0 3.09-.87 3 3 0 0 0 1.1-2.5 2.6 2.6 0 0 0-.83-2A9 9 0 0 0 74 21.69l-.98-.43-1.06-.46q-.31-.14-.96-.48a5 5 0 0 1-.93-.59q-.3-.25-.75-.67a3 3 0 0 1-.64-.84 7 7 0 0 1-.36-1 4 4 0 0 1-.17-1.21 4.4 4.4 0 0 1 1.7-3.71 6.6 6.6 0 0 1 4.18-1.33 8 8 0 0 1 3.92.84M90.8 23.25h-2.77a4.8 4.8 0 0 0-2.97.77 2.4 2.4 0 0 0-.98 1.92 2.5 2.5 0 0 0 .77 1.9 3.2 3.2 0 0 0 2.26.73 3.8 3.8 0 0 0 2.68-.93 3 3 0 0 0 1.01-2.34Zm-7.5-4.84v-1.85a7.6 7.6 0 0 1 4-.98q5.2 0 5.2 5.46V30h-1.7v-1.65q-1.18 1.79-4.09 1.79a4.5 4.5 0 0 1-3.2-1.16A4 4 0 0 1 82.26 26a3.7 3.7 0 0 1 1.58-3.18 7 7 0 0 1 4.19-1.13h2.77v-.65a4.4 4.4 0 0 0-.81-2.87 3.4 3.4 0 0 0-2.72-.97 7 7 0 0 0-3.97 1.2m19.6-8.18v1.68a3 3 0 0 0-1.23-.22 2 2 0 0 0-1.44.66 2.8 2.8 0 0 0-.6 1.97v1.48h3.24v1.46h-3.25V30h-1.7V17.26h-2.6V15.8h2.6v-1.5a4.5 4.5 0 0 1 1-3.09 3.6 3.6 0 0 1 2.83-1.15 4 4 0 0 1 1.15.17M115 22.1v-.64a4.3 4.3 0 0 0-1.08-3.08 3.8 3.8 0 0 0-2.9-1.15 4 4 0 0 0-3 1.26 5.8 5.8 0 0 0-1.4 3.61Zm.87 5.46v1.74a9 9 0 0 1-3.92.84 7 7 0 0 1-5.14-1.97 7 7 0 0 1-1.97-5.2 7.8 7.8 0 0 1 1.73-5.37 5.7 5.7 0 0 1 4.51-1.96 5.3 5.3 0 0 1 4.14 1.7 7 7 0 0 1 1.54 4.82 8 8 0 0 1-.1 1.51h-10.04a5 5 0 0 0 1.63 3.6 5.5 5.5 0 0 0 3.78 1.25 7 7 0 0 0 3.83-.96Zm11.78-11.25V18a7 7 0 0 0-3.56-.75 3 3 0 0 0-1.94.57 1.8 1.8 0 0 0-.72 1.5 2 2 0 0 0 .21.98 2 2 0 0 0 .73.77 7 7 0 0 0 .88.52q.37.17 1.18.5a10 10 0 0 1 3.01 1.72 3.2 3.2 0 0 1 1.05 2.54 3.5 3.5 0 0 1-1.22 2.78 5 5 0 0 1-3.34 1.03 9 9 0 0 1-4.15-.84v-1.77a8 8 0 0 0 4.03 1.07 3.4 3.4 0 0 0 2.17-.59 1.9 1.9 0 0 0 .75-1.54 2.1 2.1 0 0 0-.77-1.74 10 10 0 0 0-2.54-1.31 9 9 0 0 1-2.71-1.57 3.1 3.1 0 0 1-1.01-2.46 3.3 3.3 0 0 1 1.26-2.73 5 5 0 0 1 3.16-1.03 8 8 0 0 1 3.53.65m9.94 12.29a3.9 3.9 0 0 0 3.14-1.53 6.8 6.8 0 0 0 1.23-4.35 6.3 6.3 0 0 0-1.2-3.98 3.7 3.7 0 0 0-3-1.54 4.3 4.3 0 0 0-3.14 1.33q-1.31 1.33-1.31 4.44a8 8 0 0 0 .43 2.73 4.3 4.3 0 0 0 1.12 1.77 5 5 0 0 0 1.37.86 4 4 0 0 0 1.36.27m-4.28-12.8v2.07a4.9 4.9 0 0 1 4.4-2.3 5.3 5.3 0 0 1 4.45 2.09 8 8 0 0 1 1.6 5.08 8.2 8.2 0 0 1-1.71 5.39 5.4 5.4 0 0 1-4.4 2.09 5 5 0 0 1-4.34-2.36v7.74h-1.71V15.8Zm15.54 0v2.4a4.1 4.1 0 0 1 3.97-2.57q.2 0 .7.06v1.73a4 4 0 0 0-1.12-.16 3 3 0 0 0-2.53 1.5 6 6 0 0 0-1.02 3.31V30h-1.71V15.8Zm7.2 14.2V15.8h1.7V30Zm0-17.9a1.1 1.1 0 0 1-.34-.83 1.2 1.2 0 0 1 .34-.86 1.1 1.1 0 0 1 .84-.35 1.2 1.2 0 0 1 1.2 1.2 1.1 1.1 0 0 1-.35.84 1.2 1.2 0 0 1-.86.34 1.1 1.1 0 0 1-.84-.33Zm7.78 3.7v2.44a4.6 4.6 0 0 1 4.5-2.66 4.4 4.4 0 0 1 3.28 1.26 4.5 4.5 0 0 1 1.24 3.25V30h-1.71v-9.38a3.5 3.5 0 0 0-.84-2.52 3 3 0 0 0-2.21-.87 4 4 0 0 0-3 1.33 5 5 0 0 0-1.26 3.6V30h-1.71V15.8ZM182 28.05a4.2 4.2 0 0 0 2.91-1.25 5 5 0 0 0 1.32-3.82 6.4 6.4 0 0 0-1.26-4.35 3.7 3.7 0 0 0-2.83-1.42 3.7 3.7 0 0 0-3.14 1.57 6.7 6.7 0 0 0-1.15 4.06 5.4 5.4 0 0 0 1.29 3.88 4 4 0 0 0 2.86 1.33m4.23-12.24h1.7v13.1a6.3 6.3 0 0 1-1.73 4.83 6.3 6.3 0 0 1-4.48 1.61 10 10 0 0 1-4.15-.81v-1.68a9 9 0 0 0 4 .87 4.8 4.8 0 0 0 3.4-1.17 4.8 4.8 0 0 0 1.25-3.65v-1.84a4.6 4.6 0 0 1-4.25 2.6 5.6 5.6 0 0 1-4.19-1.82 7 7 0 0 1-1.72-4.93 8.4 8.4 0 0 1 1.58-5.26 5 5 0 0 1 4.16-2.07 4.6 4.6 0 0 1 4.42 2.72Z" transform="translate(834 1760)"/><g id="Group_116"><path id="Path_73" fill="#464646" d="M2.99-5.29h4.88v1.53H3ZM3.14 0H1.32v-9.8h7.15v1.53H3.14Zm9.88.1a4 4 0 0 1-1.68-.36 2.6 2.6 0 0 1-1.14-1.09 4 4 0 0 1-.4-1.86v-4.26h1.74v4.03a2 2 0 0 0 .46 1.5 1.7 1.7 0 0 0 1.3.5 2 2 0 0 0 1.07-.26 1.7 1.7 0 0 0 .72-.75 3 3 0 0 0 .25-1.25v-3.77h1.75V0h-1.66v-2.02l.3.62a2.6 2.6 0 0 1-1.11 1.1 3.4 3.4 0 0 1-1.6.4M19.4 0v-10.39h1.75V0Zm4.05 0v-10.39h1.75V0Zm7.22.1a2.7 2.7 0 0 1-1.9-.64 2.5 2.5 0 0 1-.68-1.88v-6.7h1.75v6.66a1.2 1.2 0 0 0 .28.83 1 1 0 0 0 .77.29 1.5 1.5 0 0 0 .97-.3l.5 1.24a2 2 0 0 1-.76.37 4 4 0 0 1-.94.12Zm-3.8-6.12v-1.4h4.98v1.4ZM42.4.14a6 6 0 0 1-2.1-.37 5 5 0 0 1-1.68-1.05 5 5 0 0 1-1.1-1.6 5 5 0 0 1-.4-2.02 5 5 0 0 1 .4-2.02 5 5 0 0 1 1.1-1.6 5 5 0 0 1 1.69-1.05 6 6 0 0 1 2.12-.37 6 6 0 0 1 2.24.4 4.4 4.4 0 0 1 1.7 1.2L45.2-7.23a4 4 0 0 0-1.24-.86 4 4 0 0 0-1.45-.27 4 4 0 0 0-1.44.25 3 3 0 0 0-1.13.72 3 3 0 0 0-.74 1.1 4 4 0 0 0-.26 1.38 4 4 0 0 0 .26 1.37 3 3 0 0 0 .74 1.1 3 3 0 0 0 1.13.73 4 4 0 0 0 1.42.25 4 4 0 0 0 1.4-.23 4 4 0 0 0 1.3-.78l1.03 1.35a5 5 0 0 1-1.78.93 7 7 0 0 1-2.05.32m2.12-1.48v-3.67h1.71v3.9ZM48.63 0v-9.8h4.28a6 6 0 0 1 2.8.61 4.6 4.6 0 0 1 1.88 1.71 5 5 0 0 1 .67 2.58 5 5 0 0 1-.68 2.58 4.6 4.6 0 0 1-1.87 1.7 6 6 0 0 1-2.8.62Zm1.82-1.54h2.37a4 4 0 0 0 1.91-.42 3 3 0 0 0 1.25-1.17 3.4 3.4 0 0 0 .45-1.77 3.4 3.4 0 0 0-.45-1.77 3 3 0 0 0-1.25-1.17 4 4 0 0 0-1.9-.42h-2.38ZM60.2 0v-9.8h4.02a5 5 0 0 1 2.24.42 3 3 0 0 1 1.43 1.2 3.4 3.4 0 0 1 .5 1.87 3.4 3.4 0 0 1-.5 1.85 3 3 0 0 1-1.43 1.2 5 5 0 0 1-2.24.42H61.2l.81-.84V0Zm1.82-3.48-.82-.9h2.94a2.8 2.8 0 0 0 1.81-.5 1.8 1.8 0 0 0 .6-1.43 1.8 1.8 0 0 0-.6-1.44 2.8 2.8 0 0 0-1.8-.51H61.2l.81-.9ZM70.22 0v-9.8h4.03a5 5 0 0 1 2.23.42 3 3 0 0 1 1.44 1.2 3.4 3.4 0 0 1 .5 1.87 3.3 3.3 0 0 1-.5 1.85 3 3 0 0 1-1.44 1.19 5.5 5.5 0 0 1-2.23.42h-3.02l.81-.83V0Zm6.4 0-2.47-3.56h1.95L78.6 0Zm-4.58-3.48-.8-.88h2.93a2.7 2.7 0 0 0 1.81-.51 1.8 1.8 0 0 0 .6-1.44 1.8 1.8 0 0 0-.6-1.44 2.8 2.8 0 0 0-1.8-.51h-2.95l.81-.9Zm7.85.32v-1.47h3.86v1.47ZM88 .09a7 7 0 0 1-1.8-.24 5 5 0 0 1-1.37-.59l.67-1.33a5 5 0 0 0 1.2.53 5 5 0 0 0 1.4.2 2.4 2.4 0 0 0 1.2-.21.7.7 0 0 0 .37-.61.5.5 0 0 0-.25-.47 2 2 0 0 0-.66-.24q-.41-.09-.9-.16t-.99-.19a4 4 0 0 1-.9-.34 2 2 0 0 1-.66-.63 2 2 0 0 1-.25-1.04 2 2 0 0 1 .4-1.23 2.6 2.6 0 0 1 1.14-.82 5 5 0 0 1 1.74-.29 7 7 0 0 1 1.53.18 4 4 0 0 1 1.28.48l-.68 1.33a4 4 0 0 0-1.07-.44 5 5 0 0 0-1.06-.12 2.4 2.4 0 0 0-1.19.23.7.7 0 0 0-.39.6.6.6 0 0 0 .25.5 2 2 0 0 0 .66.27q.41.1.9.17a10 10 0 0 1 .99.19 4 4 0 0 1 .9.34 2 2 0 0 1 .66.61 2 2 0 0 1 .25 1.03 2 2 0 0 1-.42 1.2 2.6 2.6 0 0 1-1.16.8 5 5 0 0 1-1.8.28M97.47 0v-1.52l-.09-.31v-2.65a1.5 1.5 0 0 0-.46-1.2 2 2 0 0 0-1.41-.42 4 4 0 0 0-1.23.2 3 3 0 0 0-1.04.54l-.67-1.27a4 4 0 0 1 1.43-.7 6 6 0 0 1 1.73-.24 3.7 3.7 0 0 1 2.51.78 3 3 0 0 1 .89 2.4V0Zm-2.34.1a4 4 0 0 1-1.48-.3 2.3 2.3 0 0 1-.97-.79 2 2 0 0 1-.34-1.15 2 2 0 0 1 .3-1.13 2 2 0 0 1 .99-.8 5 5 0 0 1 1.81-.3h2.17v1.16h-2.04a1.8 1.8 0 0 0-1.2.29 1 1 0 0 0-.3.7.9.9 0 0 0 .37.76 1.7 1.7 0 0 0 1.05.28 2.3 2.3 0 0 0 1.16-.3 1.7 1.7 0 0 0 .74-.86l.3 1.05a2 2 0 0 1-.9 1.02 3.4 3.4 0 0 1-1.66.36m15.67-7.67a3.5 3.5 0 0 1 1.6.35 2.5 2.5 0 0 1 1.08 1.08 4 4 0 0 1 .4 1.86V0h-1.75v-4.05a2.2 2.2 0 0 0-.44-1.49 1.6 1.6 0 0 0-1.25-.49 2 2 0 0 0-1.01.25 1.7 1.7 0 0 0-.69.74 3 3 0 0 0-.24 1.24V0h-1.75v-4.05a2.2 2.2 0 0 0-.44-1.49 1.6 1.6 0 0 0-1.24-.49 2 2 0 0 0-1.02.25 1.7 1.7 0 0 0-.69.74 3 3 0 0 0-.24 1.24V0h-1.75v-7.47h1.67v1.99l-.3-.6a2.6 2.6 0 0 1 1.1-1.1 3.5 3.5 0 0 1 1.65-.39 3.2 3.2 0 0 1 1.82.52 2.5 2.5 0 0 1 1.03 1.58l-.68-.24a3 3 0 0 1 1.2-1.35 3.7 3.7 0 0 1 1.94-.5ZM118.43.1a7 7 0 0 1-1.8-.24 5 5 0 0 1-1.36-.59l.67-1.33a5 5 0 0 0 1.2.53 5 5 0 0 0 1.4.2 2.4 2.4 0 0 0 1.2-.21.7.7 0 0 0 .37-.61.5.5 0 0 0-.25-.47 2 2 0 0 0-.66-.24q-.4-.09-.9-.16t-.99-.19a4 4 0 0 1-.9-.34 2 2 0 0 1-.66-.63 2 2 0 0 1-.25-1.04 2 2 0 0 1 .4-1.23 2.6 2.6 0 0 1 1.14-.82 5 5 0 0 1 1.75-.29 7 7 0 0 1 1.52.18 4 4 0 0 1 1.28.48l-.67 1.33a4 4 0 0 0-1.07-.44 5 5 0 0 0-1.07-.12 2.4 2.4 0 0 0-1.19.23.7.7 0 0 0-.38.6.6.6 0 0 0 .25.5 2 2 0 0 0 .66.27q.4.1.9.17a10 10 0 0 1 .98.19 4 4 0 0 1 .9.34 2 2 0 0 1 .66.61 2 2 0 0 1 .25 1.03 2 2 0 0 1-.4 1.21 2.6 2.6 0 0 1-1.17.8 5 5 0 0 1-1.8.28m6.75-.09-3.2-7.47h1.81l2.77 6.59h-.9l2.85-6.6h1.69L126.98 0Zm10.46 0v-1.52l-.09-.31v-2.65a1.5 1.5 0 0 0-.47-1.2 2 2 0 0 0-1.4-.43 4 4 0 0 0-1.23.2 3 3 0 0 0-1.04.54l-.68-1.27a4 4 0 0 1 1.44-.7 6 6 0 0 1 1.73-.23 3.7 3.7 0 0 1 2.5.78 3 3 0 0 1 .9 2.4V0Zm-2.34.1a4 4 0 0 1-1.48-.3 2.3 2.3 0 0 1-.97-.79 2 2 0 0 1-.34-1.15 2 2 0 0 1 .3-1.13 2 2 0 0 1 .99-.8 5 5 0 0 1 1.81-.3h2.17v1.16h-2.04a1.8 1.8 0 0 0-1.2.29 1 1 0 0 0-.31.7.9.9 0 0 0 .38.76 1.7 1.7 0 0 0 1.05.28 2.3 2.3 0 0 0 1.16-.3 1.7 1.7 0 0 0 .73-.86l.3 1.05a2 2 0 0 1-.9 1.02 3.4 3.4 0 0 1-1.65.36m6.24-.1v-7.47h1.67v2.05l-.2-.6a2.3 2.3 0 0 1 1.05-1.16 4 4 0 0 1 1.8-.39v1.67l-.21-.02-.2-.01a2.2 2.2 0 0 0-1.58.58 2.3 2.3 0 0 0-.58 1.73V0Z" transform="translate(888 1861)"/><path id="Path_72" fill="#464646" d="m-.07 0 4.4-9.8h1.8L10.56 0h-1.9l-3.8-8.83h.73L1.8 0Zm2.04-2.27.48-1.43h5.29l.5 1.43ZM14.66.1a4 4 0 0 1-1.69-.35 2.6 2.6 0 0 1-1.14-1.09 4 4 0 0 1-.4-1.86v-4.26h1.75v4.03a2 2 0 0 0 .46 1.5 1.7 1.7 0 0 0 1.3.5A2 2 0 0 0 16-1.7a1.7 1.7 0 0 0 .72-.75 3 3 0 0 0 .26-1.25v-3.77h1.75V0h-1.67v-2.02l.3.62a2.6 2.6 0 0 1-1.1 1.1 3.4 3.4 0 0 1-1.6.4m9.18 0a2.7 2.7 0 0 1-1.9-.63 2.5 2.5 0 0 1-.68-1.88v-6.7h1.75v6.66a1.2 1.2 0 0 0 .28.83 1 1 0 0 0 .77.29 1.5 1.5 0 0 0 .97-.3l.5 1.24a2 2 0 0 1-.76.37 4 4 0 0 1-.93.12m-3.8-6.11v-1.4H25v1.4ZM30.09.09a4 4 0 0 1-2.05-.49 3.7 3.7 0 0 1-1.42-1.36 4 4 0 0 1-.52-1.98 4 4 0 0 1 .52-1.98 4 4 0 0 1 1.42-1.36 4 4 0 0 1 2.05-.49 4 4 0 0 1 2.06.5 3.6 3.6 0 0 1 1.42 1.34 4 4 0 0 1 .5 1.99 4 4 0 0 1-.5 1.98A3.6 3.6 0 0 1 32.15-.4a4 4 0 0 1-2.06.5m0-1.49a2.3 2.3 0 0 0 1.14-.28 2 2 0 0 0 .79-.82 2.6 2.6 0 0 0 .29-1.24A2.5 2.5 0 0 0 32-5a2 2 0 0 0-.78-.8 2.3 2.3 0 0 0-1.14-.29 2.3 2.3 0 0 0-1.13.29 2 2 0 0 0-.8.8 2.5 2.5 0 0 0-.3 1.25 2.5 2.5 0 0 0 .3 1.24 2 2 0 0 0 .8.82 2 2 0 0 0 1.13.28Zm15.1-6.17a3.5 3.5 0 0 1 1.6.36 2.5 2.5 0 0 1 1.08 1.07 4 4 0 0 1 .4 1.86V0H46.5v-4.05a2.2 2.2 0 0 0-.44-1.49 1.6 1.6 0 0 0-1.24-.49 2 2 0 0 0-1.02.25 1.7 1.7 0 0 0-.68.74 3 3 0 0 0-.25 1.24V0h-1.75v-4.05a2.2 2.2 0 0 0-.44-1.49 1.6 1.6 0 0 0-1.24-.49 2 2 0 0 0-1.02.25 1.7 1.7 0 0 0-.68.74 3 3 0 0 0-.25 1.24V0h-1.75v-7.47h1.67v1.99l-.3-.6a2.6 2.6 0 0 1 1.1-1.1 3.5 3.5 0 0 1 1.65-.39 3.2 3.2 0 0 1 1.82.52 2.5 2.5 0 0 1 1.03 1.58l-.68-.24a3 3 0 0 1 1.2-1.35 3.7 3.7 0 0 1 1.94-.5M55.08 0v-1.52L55-1.83v-2.65a1.5 1.5 0 0 0-.46-1.2 2 2 0 0 0-1.4-.42 4 4 0 0 0-1.24.2 3 3 0 0 0-1.03.54l-.68-1.28a4 4 0 0 1 1.43-.7 6 6 0 0 1 1.73-.23 3.7 3.7 0 0 1 2.51.78 3 3 0 0 1 .9 2.4V0Zm-2.34.1a4 4 0 0 1-1.48-.3 2.3 2.3 0 0 1-.97-.79 2 2 0 0 1-.34-1.15 2 2 0 0 1 .3-1.13 2 2 0 0 1 .99-.8 5 5 0 0 1 1.82-.3h2.16v1.16H53.2a1.8 1.8 0 0 0-1.2.29 1 1 0 0 0-.31.7.9.9 0 0 0 .38.76 1.7 1.7 0 0 0 1.05.28 2.3 2.3 0 0 0 1.15-.29 1.7 1.7 0 0 0 .73-.86l.3 1.04a2 2 0 0 1-.9 1.02 3.4 3.4 0 0 1-1.65.36m9.05 0a2.7 2.7 0 0 1-1.9-.64 2.5 2.5 0 0 1-.68-1.88v-6.7h1.75v6.66a1.2 1.2 0 0 0 .28.83 1 1 0 0 0 .77.29 1.5 1.5 0 0 0 .97-.3l.5 1.24a2 2 0 0 1-.76.37 4 4 0 0 1-.93.12ZM58-6.04v-1.4h4.98v1.4ZM64.93 0v-7.48h1.75V0Zm.88-8.7a1 1 0 0 1-.8-.32 1 1 0 0 1-.32-.74 1 1 0 0 1 .32-.75 1 1 0 0 1 .8-.3 1.2 1.2 0 0 1 .8.29 1 1 0 0 1 .32.72 1 1 0 0 1-.3.78 1 1 0 0 1-.82.31M71.3.1a7 7 0 0 1-1.8-.25 5 5 0 0 1-1.36-.59l.67-1.33a5 5 0 0 0 1.19.53 5 5 0 0 0 1.4.2 2.4 2.4 0 0 0 1.2-.21.7.7 0 0 0 .37-.61.5.5 0 0 0-.25-.46 2 2 0 0 0-.66-.25q-.41-.09-.9-.16t-.99-.18a4 4 0 0 1-.9-.35 2 2 0 0 1-.66-.63 2 2 0 0 1-.25-1.04 2 2 0 0 1 .4-1.23 2.6 2.6 0 0 1 1.14-.82 5 5 0 0 1 1.74-.29 7 7 0 0 1 1.53.18 4 4 0 0 1 1.28.48l-.68 1.33a4 4 0 0 0-1.07-.44 5 5 0 0 0-1.07-.12 2.4 2.4 0 0 0-1.18.23.7.7 0 0 0-.39.6.6.6 0 0 0 .25.5 2 2 0 0 0 .66.27q.41.1.9.17a10 10 0 0 1 .99.19 4 4 0 0 1 .9.34 2 2 0 0 1 .66.61 2 2 0 0 1 .25 1.03 2 2 0 0 1-.41 1.2 2.6 2.6 0 0 1-1.16.8 5 5 0 0 1-1.8.28m8.41 0a4.6 4.6 0 0 1-2.18-.5 3.6 3.6 0 0 1-1.44-1.36 4 4 0 0 1-.52-1.98 4 4 0 0 1 .5-1.97 3.6 3.6 0 0 1 1.38-1.37 4 4 0 0 1 1.99-.49 4 4 0 0 1 1.95.48 3.5 3.5 0 0 1 1.35 1.35 4 4 0 0 1 .49 2.05l-.01.25-.02.26h-6.23v-1.16h5.3l-.69.37a2 2 0 0 0-.26-1.13 2 2 0 0 0-.76-.77 2 2 0 0 0-1.12-.28 2 2 0 0 0-1.12.28 2 2 0 0 0-.76.78 2.4 2.4 0 0 0-.27 1.16v.28a2.3 2.3 0 0 0 .31 1.19 2 2 0 0 0 .87.8 3 3 0 0 0 1.3.28 3 3 0 0 0 1.13-.2 3 3 0 0 0 .89-.61l.94 1.08a3 3 0 0 1-1.27.9 5 5 0 0 1-1.75.3ZM84.9 0v-7.47h1.67v2.05l-.2-.6a2.3 2.3 0 0 1 1.05-1.16 4 4 0 0 1 1.8-.39v1.67L89-5.92l-.19-.01a2.2 2.2 0 0 0-1.58.58 2.3 2.3 0 0 0-.6 1.73V0Zm8.9.1a2.7 2.7 0 0 1-1.9-.64 2.5 2.5 0 0 1-.67-1.88v-6.7h1.75v6.66a1.2 1.2 0 0 0 .27.83 1 1 0 0 0 .77.29 1.5 1.5 0 0 0 .97-.3l.5 1.24a2 2 0 0 1-.76.37 4 4 0 0 1-.93.12M90-6.04v-1.4h4.98v1.4Zm14.17 8.84a8 8 0 0 1-2.02-.27 4 4 0 0 1-1.62-.8l.78-1.31a4 4 0 0 0 1.25.66 5 5 0 0 0 1.52.24 2.5 2.5 0 0 0 1.81-.56 2.3 2.3 0 0 0 .57-1.7v-1.34l.14-1.69-.06-1.7v-1.82h1.67v6.34a4 4 0 0 1-1.03 2.99 4.3 4.3 0 0 1-3 .96Zm-.21-3.14a4 4 0 0 1-1.94-.46 3.5 3.5 0 0 1-1.35-1.27 3.6 3.6 0 0 1-.5-1.9 3.6 3.6 0 0 1 .5-1.9 3.4 3.4 0 0 1 1.35-1.26 4 4 0 0 1 1.94-.45 4 4 0 0 1 1.7.38 3 3 0 0 1 1.21 1.2 4 4 0 0 1 .45 2.05 4 4 0 0 1-.45 2.05 3 3 0 0 1-1.21 1.19 4 4 0 0 1-1.7.38Zm.25-1.5a2.5 2.5 0 0 0 1.19-.26 2 2 0 0 0 .8-.75 2 2 0 0 0 .29-1.12 2 2 0 0 0-.3-1.11 2 2 0 0 0-.8-.74 3 3 0 0 0-1.18-.27 3 3 0 0 0-1.17.27 2 2 0 0 0-.82.74 2 2 0 0 0-.29 1.11 2 2 0 0 0 .3 1.12 2 2 0 0 0 .8.75 2.5 2.5 0 0 0 1.19.27Zm5.53 4.64a4 4 0 0 1-.93-.1 2 2 0 0 1-.75-.33l.5-1.3a1.7 1.7 0 0 0 1.02.3 1 1 0 0 0 .75-.3 1.3 1.3 0 0 0 .27-.9v-7.66h1.75V.14a2.7 2.7 0 0 1-.68 1.95 2.5 2.5 0 0 1-1.93.72Zm1.72-11.52a1 1 0 0 1-.8-.3 1 1 0 0 1-.32-.75 1 1 0 0 1 .32-.75 1 1 0 0 1 .8-.3 1.2 1.2 0 0 1 .8.29 1 1 0 0 1 .32.72 1 1 0 0 1-.3.78 1 1 0 0 1-.81.31Zm6.69 8.8a4.6 4.6 0 0 1-2.17-.49 3.6 3.6 0 0 1-1.45-1.36 4 4 0 0 1-.51-1.98 4 4 0 0 1 .5-1.97 3.6 3.6 0 0 1 1.38-1.37 4 4 0 0 1 1.99-.49 4 4 0 0 1 1.95.48 3.5 3.5 0 0 1 1.35 1.35 4 4 0 0 1 .49 2.05l-.01.25-.03.26h-6.22v-1.16h5.3l-.69.37a2 2 0 0 0-.26-1.14 2 2 0 0 0-.76-.77 2 2 0 0 0-1.12-.27 2 2 0 0 0-1.12.27 2 2 0 0 0-.76.78 2.4 2.4 0 0 0-.27 1.17v.28a2.3 2.3 0 0 0 .3 1.18 2 2 0 0 0 .87.8 3 3 0 0 0 1.3.29 3 3 0 0 0 1.13-.2 2.5 2.5 0 0 0 .9-.62l.94 1.08a3 3 0 0 1-1.28.9 5 5 0 0 1-1.75.31m9.43-7.66a4 4 0 0 1 1.6.36 2.6 2.6 0 0 1 1.12 1.07 4 4 0 0 1 .4 1.86V0h-1.74v-4.05a2 2 0 0 0-.47-1.49 1.7 1.7 0 0 0-1.31-.49 2.3 2.3 0 0 0-1.1.25 1.7 1.7 0 0 0-.72.75 3 3 0 0 0-.26 1.25V0h-1.75v-7.47h1.67v2.02l-.3-.62a2.6 2.6 0 0 1 1.14-1.11 4 4 0 0 1 1.72-.39Zm9.6 0a4 4 0 0 1 1.6.36 2.6 2.6 0 0 1 1.12 1.07 4 4 0 0 1 .4 1.86V0h-1.74v-4.05a2 2 0 0 0-.47-1.49 1.7 1.7 0 0 0-1.31-.49 2.3 2.3 0 0 0-1.1.25 1.7 1.7 0 0 0-.72.75 3 3 0 0 0-.26 1.25V0h-1.75v-7.47h1.67v2.02l-.3-.62a2.6 2.6 0 0 1 1.14-1.11 4 4 0 0 1 1.72-.39M145.92.1a4 4 0 0 1-2.05-.5 3.7 3.7 0 0 1-1.42-1.35 4 4 0 0 1-.52-1.98 4 4 0 0 1 .52-1.98 4 4 0 0 1 1.42-1.36 4 4 0 0 1 2.05-.49 4 4 0 0 1 2.06.5 3.6 3.6 0 0 1 1.42 1.34 4 4 0 0 1 .51 1.99 4 4 0 0 1-.51 1.98 3.6 3.6 0 0 1-1.42 1.36 4 4 0 0 1-2.06.5m0-1.49a2.3 2.3 0 0 0 1.14-.28 2 2 0 0 0 .8-.82 2.6 2.6 0 0 0 .28-1.24 2.5 2.5 0 0 0-.29-1.25 2 2 0 0 0-.79-.8 2.3 2.3 0 0 0-1.13-.29 2.3 2.3 0 0 0-1.14.29 2 2 0 0 0-.8.8 2.5 2.5 0 0 0-.3 1.25A2.5 2.5 0 0 0 144-2.5a2 2 0 0 0 .8.82 2 2 0 0 0 1.12.28Zm15.1-6.17a3.5 3.5 0 0 1 1.6.35 2.5 2.5 0 0 1 1.08 1.08 4 4 0 0 1 .4 1.86V0h-1.76v-4.05a2.2 2.2 0 0 0-.44-1.49 1.6 1.6 0 0 0-1.24-.49 2 2 0 0 0-1.02.25 1.7 1.7 0 0 0-.68.74 3 3 0 0 0-.25 1.24V0h-1.75v-4.05a2.2 2.2 0 0 0-.43-1.49 1.6 1.6 0 0 0-1.25-.49 2 2 0 0 0-1.01.25 1.7 1.7 0 0 0-.69.74 3 3 0 0 0-.24 1.24V0h-1.75v-7.47h1.67v1.99l-.3-.6a2.6 2.6 0 0 1 1.1-1.1 3.5 3.5 0 0 1 1.65-.39 3.2 3.2 0 0 1 1.82.52 2.5 2.5 0 0 1 1.03 1.58l-.69-.24a3 3 0 0 1 1.2-1.35 3.7 3.7 0 0 1 1.95-.5M168.97 0l4.4-9.8h1.8L179.6 0h-1.9l-3.79-8.83h.73L170.84 0ZM171-2.27l.49-1.43h5.29l.5 1.43ZM180.84 0v-9.8h4.02a5 5 0 0 1 2.24.42 3 3 0 0 1 1.43 1.2 3.4 3.4 0 0 1 .5 1.87 3.4 3.4 0 0 1-.5 1.85 3 3 0 0 1-1.43 1.2 5 5 0 0 1-2.24.42h-3.02l.82-.84V0Zm1.82-3.48-.81-.9h2.94a2.8 2.8 0 0 0 1.8-.5 1.8 1.8 0 0 0 .61-1.43 1.8 1.8 0 0 0-.6-1.44 2.8 2.8 0 0 0-1.81-.51h-2.94l.8-.9ZM190.87 0v-9.8h1.82V0Z" transform="translate(888 1918)"/><path id="Path_71" fill="#464646" d="M5.9.14a6 6 0 0 1-2.11-.37A5 5 0 0 1 2.1-1.28 5 5 0 0 1 1-2.88 5 5 0 0 1 .6-4.9 5 5 0 0 1 1-6.92a5 5 0 0 1 1.1-1.6 5 5 0 0 1 1.7-1.05 6 6 0 0 1 2.12-.37 6 6 0 0 1 2.24.4 4.4 4.4 0 0 1 1.7 1.2L8.7-7.22a4 4 0 0 0-1.24-.86A4 4 0 0 0 6-8.35a4 4 0 0 0-1.43.25 3 3 0 0 0-1.14.72A3 3 0 0 0 2.7-6.3a4 4 0 0 0-.25 1.39 4 4 0 0 0 .26 1.37 3 3 0 0 0 .73 1.1 3 3 0 0 0 1.13.73 4 4 0 0 0 1.42.25 4 4 0 0 0 1.41-.23 4 4 0 0 0 1.3-.78l1.02 1.35a5 5 0 0 1-1.77.93 7 7 0 0 1-2.06.32M8-1.34v-3.67h1.71v3.9ZM16.55 0v-1.52l-.09-.31v-2.65a1.5 1.5 0 0 0-.46-1.2 2 2 0 0 0-1.4-.42 4 4 0 0 0-1.24.2 3 3 0 0 0-1.03.54l-.68-1.27a4 4 0 0 1 1.43-.7 6 6 0 0 1 1.73-.24 3.7 3.7 0 0 1 2.51.78 3 3 0 0 1 .89 2.4V0Zm-2.34.1a4 4 0 0 1-1.48-.3 2.3 2.3 0 0 1-.97-.79 2 2 0 0 1-.34-1.15 2 2 0 0 1 .3-1.13 2 2 0 0 1 .99-.8 5 5 0 0 1 1.81-.3h2.18v1.16h-2.05a1.8 1.8 0 0 0-1.2.29 1 1 0 0 0-.3.7.9.9 0 0 0 .37.76 1.7 1.7 0 0 0 1.05.28 2.3 2.3 0 0 0 1.16-.3 1.7 1.7 0 0 0 .74-.86l.3 1.05a2 2 0 0 1-.9 1.02 3.4 3.4 0 0 1-1.66.36m6.24-.1v-7.48h1.75V0Zm.88-8.7a1 1 0 0 1-.8-.32 1 1 0 0 1-.32-.74 1 1 0 0 1 .31-.75 1 1 0 0 1 .8-.3 1.2 1.2 0 0 1 .8.29 1 1 0 0 1 .32.72 1 1 0 0 1-.3.78 1 1 0 0 1-.81.31M29.1 0v-1.52l-.09-.31v-2.65a1.5 1.5 0 0 0-.46-1.2 2 2 0 0 0-1.41-.42 4 4 0 0 0-1.23.2 3 3 0 0 0-1.04.54l-.68-1.27a4 4 0 0 1 1.44-.7 6 6 0 0 1 1.73-.23 3.7 3.7 0 0 1 2.5.78 3 3 0 0 1 .9 2.4V0Zm-2.34.1a4 4 0 0 1-1.48-.3 2.3 2.3 0 0 1-.97-.79 2 2 0 0 1-.34-1.15 2 2 0 0 1 .3-1.13 2 2 0 0 1 .99-.8 5 5 0 0 1 1.81-.3h2.17v1.16H27.2a1.8 1.8 0 0 0-1.2.29 1 1 0 0 0-.31.7.9.9 0 0 0 .38.76 1.7 1.7 0 0 0 1.05.28 2.3 2.3 0 0 0 1.16-.3 1.7 1.7 0 0 0 .73-.86l.3 1.05a2 2 0 0 1-.9 1.02 3.4 3.4 0 0 1-1.65.36m5.85-3.26v-1.47h3.86v1.47ZM37.07 0l4.14-5.69v1.37L37.27-9.8h2.07l2.92 4.06h-.85l2.91-4.06h1.97l-3.9 5.4v-1.33L46.53 0h-2.1l-3.07-4.3h.82L39.16 0ZM61.1-7.57a3.5 3.5 0 0 1 1.6.36 2.5 2.5 0 0 1 1.09 1.07 4 4 0 0 1 .39 1.86V0h-1.75v-4.05a2.2 2.2 0 0 0-.44-1.49 1.6 1.6 0 0 0-1.24-.49 2 2 0 0 0-1.02.25 1.7 1.7 0 0 0-.69.74 3 3 0 0 0-.24 1.24V0h-1.75v-4.05a2.2 2.2 0 0 0-.44-1.49 1.6 1.6 0 0 0-1.24-.49 2 2 0 0 0-1.02.25 1.7 1.7 0 0 0-.69.74 3 3 0 0 0-.24 1.24V0h-1.75v-7.47h1.67v1.99l-.3-.6a2.6 2.6 0 0 1 1.1-1.1 3.5 3.5 0 0 1 1.65-.39 3.2 3.2 0 0 1 1.82.52 2.5 2.5 0 0 1 1.03 1.58l-.69-.24a3 3 0 0 1 1.2-1.35 3.7 3.7 0 0 1 1.95-.5M69.94.1a4.6 4.6 0 0 1-2.18-.49 3.6 3.6 0 0 1-1.44-1.36 4 4 0 0 1-.52-1.98 4 4 0 0 1 .5-1.98 3.6 3.6 0 0 1 1.38-1.35 4 4 0 0 1 1.98-.5 4 4 0 0 1 1.96.48 3.5 3.5 0 0 1 1.35 1.35 4 4 0 0 1 .49 2.05l-.01.25-.02.26H67.2v-1.16h5.3l-.69.37a2 2 0 0 0-.26-1.13 2 2 0 0 0-.76-.77 2 2 0 0 0-1.12-.28 2 2 0 0 0-1.12.28 2 2 0 0 0-.76.78 2.4 2.4 0 0 0-.27 1.16v.28a2.3 2.3 0 0 0 .3 1.19 2 2 0 0 0 .87.8 3 3 0 0 0 1.3.28 3 3 0 0 0 1.13-.2 2.5 2.5 0 0 0 .9-.61l.94 1.08a3 3 0 0 1-1.28.9 5 5 0 0 1-1.74.3m8.36 0a4 4 0 0 1-1.94-.48 3.5 3.5 0 0 1-1.35-1.33 4 4 0 0 1-.5-2.02 4 4 0 0 1 .5-2.01 3.5 3.5 0 0 1 1.35-1.34 4 4 0 0 1 1.94-.48 3.4 3.4 0 0 1 1.68.42 3 3 0 0 1 1.17 1.26 5 5 0 0 1 .44 2.15 5 5 0 0 1-.42 2.15A3 3 0 0 1 80-.32a3.4 3.4 0 0 1-1.7.41Zm.2-1.49a2.3 2.3 0 0 0 1.14-.28 2 2 0 0 0 .8-.82 2.5 2.5 0 0 0 .3-1.24 2.5 2.5 0 0 0-.3-1.25 2 2 0 0 0-.8-.8 2.3 2.3 0 0 0-1.13-.29 2 2 0 0 0-1.13.28 2 2 0 0 0-.8.81 2.5 2.5 0 0 0-.3 1.25 2.5 2.5 0 0 0 .3 1.24 2 2 0 0 0 .8.82 2 2 0 0 0 1.13.28M80.79 0v-1.77l.05-1.98-.13-1.98v-4.66h1.75V0Zm3.97 0v-10.39h1.75V0Zm7.56.1a4.6 4.6 0 0 1-2.18-.5 3.6 3.6 0 0 1-1.44-1.36 4 4 0 0 1-.52-1.98 4 4 0 0 1 .5-1.97 3.6 3.6 0 0 1 1.38-1.36 4 4 0 0 1 1.99-.5 4 4 0 0 1 1.95.48 3.5 3.5 0 0 1 1.35 1.35 4 4 0 0 1 .49 2.05l-.01.25-.02.26h-6.23v-1.16h5.3l-.69.37a2 2 0 0 0-.26-1.13 2 2 0 0 0-.76-.77 2 2 0 0 0-1.12-.28 2 2 0 0 0-1.12.28 2 2 0 0 0-.76.78 2.4 2.4 0 0 0-.27 1.16v.28a2.3 2.3 0 0 0 .31 1.19 2 2 0 0 0 .87.8 3 3 0 0 0 1.3.28 3 3 0 0 0 1.13-.2 3 3 0 0 0 .88-.62l.95 1.08a3 3 0 0 1-1.28.9A5 5 0 0 1 92.3.1m14.62-7.67a3.5 3.5 0 0 1 1.6.35 2.5 2.5 0 0 1 1.09 1.08 4 4 0 0 1 .39 1.86V0h-1.75v-4.05a2.2 2.2 0 0 0-.44-1.49 1.6 1.6 0 0 0-1.24-.49 2 2 0 0 0-1.02.25 1.7 1.7 0 0 0-.69.74 3 3 0 0 0-.24 1.24V0h-1.75v-4.05a2.2 2.2 0 0 0-.44-1.49 1.6 1.6 0 0 0-1.24-.49 2 2 0 0 0-1.02.25 1.7 1.7 0 0 0-.69.74 3 3 0 0 0-.24 1.24V0H97.5v-7.47h1.67v1.99l-.3-.6a2.6 2.6 0 0 1 1.1-1.1 3.5 3.5 0 0 1 1.65-.39 3.2 3.2 0 0 1 1.82.52 2.5 2.5 0 0 1 1.03 1.58l-.68-.24a3 3 0 0 1 1.2-1.35 3.7 3.7 0 0 1 1.94-.5Z" transform="translate(888 1975)"/><path id="Path_70" fill="#464646" d="M1.32 0v-9.8h1.82v8.26h5.12V0Zm11.5.1a4 4 0 0 1-2.05-.5 3.7 3.7 0 0 1-1.42-1.36 4 4 0 0 1-.52-1.98 4 4 0 0 1 .53-1.98 4 4 0 0 1 1.41-1.36 4 4 0 0 1 2.05-.49 4 4 0 0 1 2.06.5 3.6 3.6 0 0 1 1.42 1.34 4 4 0 0 1 .51 1.99 4 4 0 0 1-.51 1.98A3.6 3.6 0 0 1 14.88-.4a4 4 0 0 1-2.06.5m0-1.5a2.3 2.3 0 0 0 1.14-.28 2 2 0 0 0 .8-.82 2.6 2.6 0 0 0 .28-1.24A2.5 2.5 0 0 0 14.75-5a2 2 0 0 0-.79-.8 2.3 2.3 0 0 0-1.13-.29 2.3 2.3 0 0 0-1.14.29 2 2 0 0 0-.8.8 2.5 2.5 0 0 0-.3 1.25 2.5 2.5 0 0 0 .31 1.24 2 2 0 0 0 .8.82 2 2 0 0 0 1.12.28Zm7.1-.26.04-2.2 3.9-3.62h2.1l-3.32 3.33-.93.78ZM18.48 0v-10.39h1.75V0Zm5.64 0L21.4-3.38l1.1-1.4L26.26 0Zm7.73 0v-1.52l-.1-.31v-2.65a1.5 1.5 0 0 0-.46-1.2 2 2 0 0 0-1.4-.42 4 4 0 0 0-1.23.2 3 3 0 0 0-1.04.54l-.67-1.27a4 4 0 0 1 1.43-.7 6 6 0 0 1 1.73-.23 3.7 3.7 0 0 1 2.5.78 3 3 0 0 1 .9 2.4V0Zm-2.34.1a4 4 0 0 1-1.49-.3 2.3 2.3 0 0 1-.97-.79 2 2 0 0 1-.34-1.15 2 2 0 0 1 .3-1.13 2 2 0 0 1 1-.8 5 5 0 0 1 1.8-.3H32v1.16h-2.04a1.8 1.8 0 0 0-1.2.29 1 1 0 0 0-.31.7.9.9 0 0 0 .38.76 1.7 1.7 0 0 0 1.05.28 2.3 2.3 0 0 0 1.16-.3 1.7 1.7 0 0 0 .73-.86l.3 1.05a2 2 0 0 1-.9 1.02 3.4 3.4 0 0 1-1.66.36m6.23-.1V-10.4h1.75V0Zm11.12.14a7 7 0 0 1-2.2-.33A5 5 0 0 1 43-1.04l.64-1.4a5 5 0 0 0 1.45.76 5 5 0 0 0 1.78.31 4 4 0 0 0 1.24-.17 1.5 1.5 0 0 0 .7-.45 1 1 0 0 0 .23-.66 1 1 0 0 0-.32-.71 2 2 0 0 0-.83-.44q-.52-.17-1.14-.3t-1.25-.33a5 5 0 0 1-1.14-.5 2.5 2.5 0 0 1-.83-.8A2.4 2.4 0 0 1 43.21-7a2.7 2.7 0 0 1 .43-1.46 3 3 0 0 1 1.3-1.07 5 5 0 0 1 2.22-.4 7 7 0 0 1 1.75.23 5 5 0 0 1 1.51.64l-.58 1.42a5 5 0 0 0-1.35-.59 5 5 0 0 0-1.35-.19 4 4 0 0 0-1.22.18 1.5 1.5 0 0 0-.7.48 1 1 0 0 0-.2.68 1 1 0 0 0 .31.71 2 2 0 0 0 .83.43q.52.16 1.14.3t1.25.33a5 5 0 0 1 1.13.48 2.4 2.4 0 0 1 .83.8 2.3 2.3 0 0 1 .32 1.27 2.6 2.6 0 0 1-.43 1.45 3 3 0 0 1-1.31 1.06 5 5 0 0 1-2.22.4M55.64.1a4 4 0 0 1-1.69-.35 2.6 2.6 0 0 1-1.14-1.09 4 4 0 0 1-.4-1.86v-4.26h1.75v4.03a2 2 0 0 0 .46 1.5 1.7 1.7 0 0 0 1.3.5 2 2 0 0 0 1.07-.26 1.7 1.7 0 0 0 .71-.75 3 3 0 0 0 .26-1.24v-3.78h1.75V0h-1.67v-2.02l.3.62a2.6 2.6 0 0 1-1.1 1.1 3.4 3.4 0 0 1-1.6.4m10.52 0a3.4 3.4 0 0 1-1.67-.41A3 3 0 0 1 63.3-1.6a5 5 0 0 1-.43-2.15 5 5 0 0 1 .42-2.15 3 3 0 0 1 1.17-1.26 3.5 3.5 0 0 1 1.7-.42 4 4 0 0 1 1.94.48 3.5 3.5 0 0 1 1.35 1.34 4 4 0 0 1 .49 2.01 4 4 0 0 1-.5 2.02A3.5 3.5 0 0 1 68.1-.38a4 4 0 0 1-1.94.47M62 2.72v-10.2h1.67v1.77l-.06 1.99.14 1.98v4.46Zm3.94-4.12a2 2 0 0 0 1.13-.28 2 2 0 0 0 .8-.82 2.5 2.5 0 0 0 .3-1.24 2.5 2.5 0 0 0-.3-1.25 2 2 0 0 0-.8-.8 2.3 2.3 0 0 0-1.13-.29 2 2 0 0 0-1.13.28 2 2 0 0 0-.8.81 2.5 2.5 0 0 0-.3 1.25 2.5 2.5 0 0 0 .3 1.24 2 2 0 0 0 .8.82 2 2 0 0 0 1.13.28M75.76.1a3.4 3.4 0 0 1-1.67-.42 3 3 0 0 1-1.18-1.27 5 5 0 0 1-.44-2.15 5 5 0 0 1 .43-2.15 3 3 0 0 1 1.17-1.26 3.5 3.5 0 0 1 1.7-.42 4 4 0 0 1 1.94.48 3.5 3.5 0 0 1 1.35 1.34 4 4 0 0 1 .49 2.01 4 4 0 0 1-.5 2.02 3.5 3.5 0 0 1-1.34 1.34 4 4 0 0 1-1.95.47m-4.14 2.62v-10.2h1.67v1.77l-.06 1.99.14 1.98v4.46Zm3.94-4.12a2 2 0 0 0 1.13-.28 2 2 0 0 0 .8-.82 2.5 2.5 0 0 0 .3-1.24 2.5 2.5 0 0 0-.3-1.25 2 2 0 0 0-.8-.8 2.3 2.3 0 0 0-1.13-.29 2 2 0 0 0-1.13.28 2 2 0 0 0-.8.81 2.5 2.5 0 0 0-.3 1.25 2.5 2.5 0 0 0 .3 1.24 2 2 0 0 0 .8.82 2 2 0 0 0 1.13.28M84.58.1a4 4 0 0 1-2.05-.5 3.7 3.7 0 0 1-1.41-1.36 4 4 0 0 1-.52-1.98 4 4 0 0 1 .52-1.98 4 4 0 0 1 1.42-1.36 4 4 0 0 1 2.05-.49 4 4 0 0 1 2.06.5 3.6 3.6 0 0 1 1.41 1.34 4 4 0 0 1 .51 1.99 4 4 0 0 1-.5 1.98A3.6 3.6 0 0 1 86.63-.4a4 4 0 0 1-2.06.5m0-1.5a2.3 2.3 0 0 0 1.15-.28 2 2 0 0 0 .79-.82 2.6 2.6 0 0 0 .29-1.24A2.5 2.5 0 0 0 86.5-5a2 2 0 0 0-.78-.8 2.3 2.3 0 0 0-1.14-.29 2.3 2.3 0 0 0-1.14.29 2 2 0 0 0-.8.8 2.5 2.5 0 0 0-.3 1.25 2.5 2.5 0 0 0 .3 1.24 2 2 0 0 0 .8.82 2 2 0 0 0 1.13.28ZM90.26 0v-7.47h1.67v2.05l-.2-.6a2.3 2.3 0 0 1 1.05-1.16 4 4 0 0 1 1.8-.39v1.67l-.21-.02-.19-.01a2.2 2.2 0 0 0-1.58.58 2.3 2.3 0 0 0-.6 1.73V0Zm8.9.1a2.7 2.7 0 0 1-1.9-.64 2.5 2.5 0 0 1-.67-1.88v-6.7h1.75v6.66a1.2 1.2 0 0 0 .27.83 1 1 0 0 0 .77.29 1.5 1.5 0 0 0 .97-.3l.5 1.24a2 2 0 0 1-.76.37 4 4 0 0 1-.93.12m-3.8-6.12v-1.4h4.98v1.4Z" transform="translate(888 2032)"/></g></g></svg>