<svg xmlns="http://www.w3.org/2000/svg" width="170" height="170" viewBox="0 0 170 170"><g transform="translate(-614 -536)"><path fill="#e7eff3" d="M614 536h170v170H614z"/><g transform="translate(674 596.999)"><path fill="#417da5" d="M36.42 10.34a11.61 11.61 0 0 0-23.09 0 11.61 11.61 0 0 0 1.28 23.15h10.26a6.48 6.48 0 1 0 0-12.96 3.78 3.78 0 1 1 2.69-6.45 1.35 1.35 0 1 0 1.91-1.9 6.48 6.48 0 1 0-4.59 11.05 3.78 3.78 0 1 1 0 7.57H14.61a8.91 8.91 0 0 1 0-17.83 1.35 1.35 0 0 0 1.35-1.35 8.91 8.91 0 0 1 17.83 0 1.35 1.35 0 0 0 1.36 1.35 8.91 8.91 0 1 1 0 17.83 1.35 1.35 0 0 0 0 2.7 11.61 11.61 0 0 0 1.27-23.16M3.33 43.85l-.78-.28c-.58-.18-1.13-.39-1.13-.87s.36-.72.92-.72a2 2 0 0 1 1.47.63l.48-.72a2.5 2.5 0 0 0-1.97-.76A1.75 1.75 0 0 0 .37 42.8a1.5 1.5 0 0 0 .91 1.39 4 4 0 0 0 .8.3c.38.14 1.3.33 1.3.97s-.58.83-1.12.83a2.4 2.4 0 0 1-1.7-.83l-.56.68a2.8 2.8 0 0 0 2.26 1.04 2.5 2.5 0 0 0 1.6-.52 1.6 1.6 0 0 0 .6-1.31A1.4 1.4 0 0 0 4 44.26a2 2 0 0 0-.67-.41m4.24-2.72a4.5 4.5 0 0 0-2.17.59l.35.78a3.6 3.6 0 0 1 1.74-.5 1.27 1.27 0 0 1 1.44 1.32v.23l-1.55.06c-1.34.06-2.26.63-2.26 1.77a1.83 1.83 0 0 0 2 1.79 2.4 2.4 0 0 0 1.84-.87l.01.73h1.13v-3.36a2.4 2.4 0 0 0-.62-1.88 2.5 2.5 0 0 0-1.91-.66m1.37 4.37a1.8 1.8 0 0 1-1.47.84 1.06 1.06 0 0 1-1.2-1c0-.55.38-.95 1.32-1l1.35-.09Zm7.95-4.37a2.87 2.87 0 0 0-2.94 3 2.8 2.8 0 0 0 2.9 3.04 3.4 3.4 0 0 0 2.55-.92l-.49-.67a3.2 3.2 0 0 1-1.91.67 1.8 1.8 0 0 1-1.87-1.84h4.46l.04-.51a2.64 2.64 0 0 0-2.74-2.77m-1.74 2.5a1.7 1.7 0 0 1 1.7-1.65 1.7 1.7 0 0 1 1.67 1.65Zm8.23.22c-.24-.1-.46-.17-.78-.28-.57-.18-1.13-.39-1.13-.87s.36-.72.92-.72a2 2 0 0 1 1.47.63l.48-.72a2.5 2.5 0 0 0-1.97-.76 1.75 1.75 0 0 0-1.95 1.66 1.5 1.5 0 0 0 .91 1.39 4 4 0 0 0 .8.3c.38.14 1.3.33 1.3.97s-.57.83-1.11.83a2.4 2.4 0 0 1-1.7-.83l-.57.68a2.8 2.8 0 0 0 2.26 1.03 2.5 2.5 0 0 0 1.6-.5 1.7 1.7 0 0 0 .6-1.32 1.4 1.4 0 0 0-.46-1.08 2 2 0 0 0-.67-.41m4.99-2.72a2.5 2.5 0 0 0-2.06 1.03h-.02v-.91h-1.12v7.99h1.17v-3.12h.01a2.3 2.3 0 0 0 2 1.04 2.8 2.8 0 0 0 2.82-3.03 2.77 2.77 0 0 0-2.8-3m-.24 5.04a2.05 2.05 0 1 1 1.84-2.05 1.85 1.85 0 0 1-1.84 2.05m7.78-4.93h1.17v5.8h-1.17zm5.12-.11a2 2 0 0 0-1.77 1.03h-.04l.01-.92h-1.17v5.8h1.17v-2.92c0-1.11.4-2.02 1.5-2.02 1.03 0 1.2.73 1.2 1.7v3.23h1.17v-3.42c0-1.4-.43-2.48-2.07-2.48m7.57.12v.91h-.03a2.3 2.3 0 0 0-2.02-1.02 2.92 2.92 0 0 0 0 5.82 2.3 2.3 0 0 0 2.02-1.03h.02v.23a2.6 2.6 0 0 1-.44 1.62 2 2 0 0 1-1.58.63 3.7 3.7 0 0 1-2.08-.73l-.54.81a4.5 4.5 0 0 0 2.58.87 3 3 0 0 0 2.58-1.1 3.7 3.7 0 0 0 .64-2.5v-4.51ZM46.8 46a1.97 1.97 0 1 1 1.83-1.97A1.8 1.8 0 0 1 46.79 46Zm-35.33-6.88a2.4 2.4 0 0 0-.39 1.55v6.36h1.16V42.2h1.38v-.93h-1.38v-.65c0-.66.13-1.23.9-1.23a2 2 0 0 1 .48.06v-.88a4 4 0 0 0-.75-.07 1.8 1.8 0 0 0-1.4.63m21.54 3h-.03l.01-.89h-1.17v5.8h1.17v-2.9a2.6 2.6 0 0 1 .35-1.46 1.2 1.2 0 0 1 .95-.49 2 2 0 0 1 .64.12V41.2a2 2 0 0 0-.49-.06 1.5 1.5 0 0 0-1.43 1"/><circle cx="0.761" cy="0.761" r="0.761" fill="#417da5" transform="translate(35.729 38.488)"/></g></g></svg>