<svg xmlns="http://www.w3.org/2000/svg" xmlns:xlink="http://www.w3.org/1999/xlink" width="600" height="300" viewBox="0 0 600 300"><defs><clipPath id="clip-Custom_Size_1"><path d="M0 0h600v300H0z"/></clipPath></defs><g id="Custom_Size_1" clip-path="url(#clip-Custom_Size_1)"><path fill="#e8eff3" d="M0 0h600v300H0z"/><g id="footer-logo" transform="translate(100.02 95.245)"><path id="Path_1" fill="#1d1d1b" d="M255.03 412.79a82 82 0 0 1 3.07 7.68 1.36 1.36 0 0 1-1.52 1.2h-23.23a1.3 1.3 0 0 1-1.49-1.25c0-.72 2.67-7.58 2.67-7.63Z" transform="translate(-208.255 -377.205)"/><path id="Path_2" fill="#1d1d1b" d="M275.85 409.41v16a1.87 1.87 0 0 1-1.95 1.95h-18.66a2.03 2.03 0 0 1-1.94-2.19v-15.84Z" transform="translate(-172.546 -382.971)"/><path id="Path_3" fill="#1d1d1b" d="M288.85 442.19a1.2 1.2 0 0 1 .64.98c0 .62-.54.72-.91.72h-20.7c-1.25 0-1.86-.88-1.86-2.1v-40.24a2.05 2.05 0 0 1 2.1-2.08h20.86a.7.7 0 0 1 .7.72 1.3 1.3 0 0 1-.65.99 25 25 0 0 0-11.14 20.64 24.4 24.4 0 0 0 10.96 20.37" transform="translate(-151.328 -399.403)"/><path id="Path_4" fill="#1d1d1b" d="M275.88 401.62v15.33h-22.6v-15.44a2 2 0 0 1 2.07-2.08h18.35a2.1 2.1 0 0 1 2.19 2.19Z" transform="translate(-172.577 -399.47)"/><path id="Path_5" fill="#1d1d1b" d="M265.08 401.52v40.42a1.9 1.9 0 0 1-1.97 1.95h-3.36a2 2 0 0 1-1.76-1.26L239.7 401.6a3 3 0 0 1-.35-1.2.93.93 0 0 1 .96-.93h22.56a2.1 2.1 0 0 1 2.21 2.05" transform="translate(-195.773 -399.422)"/><path id="Path_6" fill="#1d1d1b" d="m250.34 401.63-16.4 40.58a2.3 2.3 0 0 1-2.22 1.63h-6.13a2.1 2.1 0 0 1-2.16-1.95V401.6a2.2 2.2 0 0 1 2.16-2.13h24c.67 0 1.07.32 1.07.88a3 3 0 0 1-.32 1.28" transform="translate(-222.304 -399.402)"/><path id="Path_7" fill="#1d1d1b" d="M308.3 399.47a2 2 0 0 1 2.17 2.14v40.31a2 2 0 0 1-2.16 1.95H285c-.48 0-.85-.19-.85-.77a1.4 1.4 0 0 1 .72-.96 24.64 24.64 0 0 0 0-40.96 1.3 1.3 0 0 1-.7-.99.7.7 0 0 1 .67-.72Z" transform="translate(-121.115 -399.407)"/><path id="Path_8" fill="#1d1d1b" d="m17.7 3.7 7.39 17.79H11Z" transform="translate(18.381 6.234)"/><path id="Path_9" fill="#1d1d1b" d="M287.83 402.47c8 0 13.17 5.76 13.17 14.4s-5.33 14.4-13.17 14.4-13.33-5.73-13.33-14.4 5.36-14.4 13.33-14.4" transform="translate(-137.196 -394.403)"/><path id="Path_10" fill="#1d1d1b" d="m234.6 438.56-1.6-4.67h-6l-1.57 4.67H223l5.65-15.76h2.67l5.62 15.76Zm-4.59-13.52-2.32 6.85h4.64Z" transform="translate(-223.02 -360.524)"/><path id="Path_11" fill="#1d1d1b" d="M231.21 430.84v5.17H229V424.6h1.95a18 18 0 0 1 .18 1.81 4.5 4.5 0 0 1 4.06-2.08v2a4.05 4.05 0 0 0-3.98 4.5Z" transform="translate(-213.021 -357.979)"/><path id="Path_12" fill="#1d1d1b" d="m239.33 439.34-3.49-5.5-1.55 1.69v3.81H232v-17.01h2.19v10.32l4.13-4.72h2.83l-4.11 4.5 4.83 6.91Z" transform="translate(-208.022 -361.307)"/><path id="Path_13" fill="#1d1d1b" d="M237.74 425.3a1.44 1.44 0 1 1 1.49-1.47 1.47 1.47 0 0 1-1.5 1.47m-1.07 13.9v-11.42h2.16v11.41Z" transform="translate(-200.772 -361.156)"/><path id="Path_14" fill="#1d1d1b" d="M243.7 438.26a3.6 3.6 0 0 1-3.92-3.92v-5.9h-1.6v-1.83h1.6v-3.47h2.16v3.47h3.25v1.84h-3.25v5.89c0 1.5.61 2.08 1.76 2.08a13 13 0 0 0 1.5 0v1.81a6 6 0 0 1-1.5.03" transform="translate(-197.723 -359.957)"/><path id="Path_15" fill="#1d1d1b" d="M243.9 430.9a3.63 3.63 0 0 0 3.79 3.39 9 9 0 0 0 3.46-.7l.59 1.84a9 9 0 0 1-4.08.83 5.76 5.76 0 0 1-5.97-5.97 5.63 5.63 0 0 1 5.6-5.95 5.8 5.8 0 0 1 5.6 6.56Zm3.41-4.56a3.3 3.3 0 0 0-3.22 2.67h6.45a3.3 3.3 0 0 0-3.23-2.67" transform="translate(-191.896 -357.957)"/><path id="Path_16" fill="#1d1d1b" d="m254.08 439.34-3.5-5.5-1.54 1.69v3.81h-2.19v-17.01h2.19v10.32l4.13-4.72H256l-4.1 4.5 4.82 6.91Z" transform="translate(-183.275 -361.307)"/><path id="Path_17" fill="#1d1d1b" d="M256.45 438.26a3.6 3.6 0 0 1-3.92-3.92v-5.9h-1.6v-1.83h1.6v-3.47h2.16v3.47h3.25v1.84h-3.25v5.89c0 1.5.61 2.08 1.76 2.08a13 13 0 0 0 1.5 0v1.81a6 6 0 0 1-1.5.03" transform="translate(-176.475 -359.957)"/><path id="Path_18" fill="#1d1d1b" d="M259.5 436.1a4.75 4.75 0 0 1-4.9-4.82v-6.85h2.19v6.61a2.7 2.7 0 1 0 5.33 0v-6.61h2.16v6.85a4.75 4.75 0 0 1-4.77 4.83Z" transform="translate(-170.36 -357.807)"/><path id="Path_19" fill="#1d1d1b" d="M261.58 430.84v5.17h-2.16V424.6h1.95c0 .59.16 1.28.18 1.81a4.5 4.5 0 0 1 4.06-2.08v2a4.05 4.05 0 0 0-4.03 4.5Z" transform="translate(-162.327 -357.979)"/><path id="Path_20" fill="#1d1d1b" d="M262.46 428.28v-2.05h7.44v2.05Z" transform="translate(-157.261 -354.807)"/><path id="Path_21" fill="#1d1d1b" d="M274.77 436.28a5.97 5.97 0 1 1 5.92-5.95 5.8 5.8 0 0 1-5.92 5.95m0-9.92a4 4 0 1 0 3.68 3.97 3.7 3.7 0 0 0-3.68-3.97" transform="translate(-146.795 -357.974)"/><path id="Path_22" fill="#1d1d1b" d="M279.7 440.63a9 9 0 0 1-4.38-1.22l.67-1.79a9 9 0 0 0 3.7 1.01c2.38 0 3.34-1.2 3.34-3.41v-.72a4.8 4.8 0 0 1-3.84 1.76 6.03 6.03 0 0 1 0-11.92 4.8 4.8 0 0 1 3.89 1.79 12 12 0 0 1 .24-1.55h1.9v10.85a5 5 0 0 1-5.53 5.2m0-14.32a4 4 0 0 0 0 8c2.29 0 3.43-1.76 3.43-3.94s-1.22-4.06-3.38-4.06Z" transform="translate(-137.938 -357.958)"/><path id="Path_23" fill="#1d1d1b" d="M291.21 439.33a11 11 0 0 1-.24-1.52 4.8 4.8 0 0 1-3.9 1.78 6 6 0 0 1 0-11.92 4.8 4.8 0 0 1 3.85 1.76v-7.09h2.13v16.99Zm-3.5-9.68a4.03 4.03 0 0 0 0 8 3.5 3.5 0 0 0 3.45-3.98c-.11-2.24-1.28-4.02-3.44-4.02Z" transform="translate(-125.082 -361.29)"/><path id="Path_24" fill="#1d1d1b" d="M289.21 430.9a3.63 3.63 0 0 0 3.76 3.39 9 9 0 0 0 3.47-.7l.59 1.84a9 9 0 0 1-4.08.83 5.76 5.76 0 0 1-5.98-5.97 5.65 5.65 0 0 1 5.63-5.95 5.8 5.8 0 0 1 5.6 6.56Zm3.42-4.56a3.3 3.3 0 0 0-3.23 2.67h6.46a3.3 3.3 0 0 0-3.23-2.67" transform="translate(-116.42 -357.957)"/><path id="Path_25" fill="#1d1d1b" d="M295.64 436.25a7 7 0 0 1-3.76-1.25l.77-1.76a6.6 6.6 0 0 0 3.02 1.04c1.22 0 1.8-.7 1.8-1.41 0-1.92-5.32-1.82-5.32-5.34a3.4 3.4 0 0 1 3.73-3.17 8 8 0 0 1 3.15.72l-.6 1.84a8 8 0 0 0-2.66-.56c-1.09 0-1.46.5-1.46 1.17 0 1.82 5.33 1.84 5.33 5.34a3.7 3.7 0 0 1-4 3.38" transform="translate(-108.233 -357.952)"/><path id="Path_26" fill="#1d1d1b" d="M297.04 425.3a1.44 1.44 0 1 1 1.49-1.47 1.47 1.47 0 0 1-1.5 1.47m-1.07 13.9v-11.42h2.16v11.41Z" transform="translate(-101.95 -361.156)"/><path id="Path_27" fill="#1d1d1b" d="M303.3 440.63a9 9 0 0 1-4.38-1.22l.67-1.8a9 9 0 0 0 3.7 1.02c2.38 0 3.34-1.2 3.34-3.41v-.72a4.8 4.8 0 0 1-3.84 1.76 6.03 6.03 0 0 1 0-11.92 4.8 4.8 0 0 1 3.78 1.76 12 12 0 0 1 .24-1.55h1.9v10.86a5 5 0 0 1-5.42 5.22m0-14.32a4 4 0 1 0 0 8c2.29 0 3.43-1.76 3.43-3.94s-1.09-4.06-3.4-4.06Z" transform="translate(-98.609 -357.957)"/><path id="Path_28" fill="#1d1d1b" d="M310.78 436.14v-7.22c0-1.9-.88-2.67-2.18-2.67-1.82 0-3.31 1.73-3.31 4.5v5.18h-2.16v-11.41h1.92a18 18 0 0 1 .24 2.02 4.4 4.4 0 0 1 3.73-2.29 3.84 3.84 0 0 1 3.95 4.35v7.33Z" transform="translate(-89.485 -358.109)"/><path id="Path_29" fill="#1d1d1b" d="M315.8 439.44v-7.22c0-1.9-.88-2.67-2.19-2.67-1.81 0-3.33 1.76-3.33 4.53v5.18h-2.16v-16.99h2.16v7.63a4.4 4.4 0 0 1 3.73-2.27 3.8 3.8 0 0 1 3.92 4.59v7.33Z" transform="translate(-81.169 -361.407)"/><path id="Path_30" fill="#1d1d1b" d="M324.3 440.63a10 10 0 0 1-4.64-1.22l.67-1.79a9 9 0 0 0 3.7 1.01c2.38 0 3.34-1.2 3.34-3.41v-.72a4.8 4.8 0 0 1-3.84 1.76 6.03 6.03 0 0 1 0-11.92 4.8 4.8 0 0 1 3.89 1.79 12 12 0 0 1 .24-1.55h1.9v10.85a4.77 4.77 0 0 1-5.26 5.2m-.21-14.32a4 4 0 0 0 0 8c2.29 0 3.44-1.76 3.44-3.94s-1.15-4.06-3.44-4.06" transform="translate(-64.046 -357.958)"/><path id="Path_31" fill="#1d1d1b" d="M327.22 436.25a7 7 0 0 1-3.76-1.25l.77-1.76a6.6 6.6 0 0 0 3.02 1.04c1.22 0 1.8-.7 1.8-1.41 0-1.92-5.32-1.82-5.32-5.34a3.4 3.4 0 0 1 3.73-3.17 8 8 0 0 1 3.15.72l-.6 1.84a8 8 0 0 0-2.66-.56c-1.09 0-1.46.5-1.46 1.17 0 1.82 5.33 1.84 5.33 5.34a3.7 3.7 0 0 1-4 3.38" transform="translate(-55.606 -357.952)"/><path id="Path_32" fill="#1d1d1b" d="m334.57 439.34-3.5-5.5-1.54 1.69v3.81h-2.19v-17.01h2.19v10.32l4.13-4.72h2.83l-4.11 4.5 4.83 6.91Z" transform="translate(-49.14 -361.307)"/><path id="Path_33" fill="#1d1d1b" d="M337.42 436.28a5.97 5.97 0 1 1 5.91-5.95 5.8 5.8 0 0 1-5.92 5.95Zm0-9.92a4 4 0 1 0 3.68 3.97 3.7 3.7 0 0 0-3.68-3.97" transform="translate(-42.391 -357.974)"/><path id="Path_34" fill="#1d1d1b" d="M339.83 439.6c-1.68 0-2.93-.58-2.93-2.31v-14.96h2.16v14.61c0 .48.27.83.96.83Z" transform="translate(-33.208 -361.307)"/><path id="Path_35" fill="#1d1d1b" d="M341.08 430.9a3.63 3.63 0 0 0 3.76 3.39 9 9 0 0 0 3.46-.7l.59 1.84a9 9 0 0 1-4.08.83 5.76 5.76 0 0 1-5.98-5.97 5.63 5.63 0 0 1 5.63-5.95 5.8 5.8 0 0 1 5.6 6.56Zm3.4-4.56a3.3 3.3 0 0 0-3.22 2.67h6.46a3.3 3.3 0 0 0-3.1-2.67Z" transform="translate(-29.997 -357.957)"/><path id="Path_36" fill="#1d1d1b" d="M351.68 436.15v-7.23c0-1.9-.88-2.66-2.19-2.66-1.81 0-3.33 1.73-3.33 4.5v5.18H344v-11.42h1.9a18 18 0 0 1 .23 2.03 4.4 4.4 0 0 1 3.74-2.3 3.84 3.84 0 0 1 4 4.67v7.33Z" transform="translate(-21.376 -358.112)"/><path id="Path_37" fill="#1d1d1b" d="M352.78 425.3a1.44 1.44 0 1 1 1.49-1.47 1.47 1.47 0 0 1-1.5 1.47m-1.07 13.9v-11.42h2.16v11.41Z" transform="translate(-9.061 -361.156)"/><path id="Path_38" fill="#1d1d1b" d="M364.17 438.98a8.13 8.13 0 1 1 8-8.14 8 8 0 0 1-8 8.14m0-14.22a6.1 6.1 0 1 0 5.76 6.08 5.76 5.76 0 0 0-5.76-6.08" transform="translate(-1.545 -360.673)"/><path id="Path_39" fill="#1d1d1b" d="M366.54 436.25a7 7 0 0 1-3.76-1.25l.77-1.76a6.6 6.6 0 0 0 3.02 1.04c1.22 0 1.8-.7 1.8-1.41 0-1.92-5.32-1.82-5.32-5.34a3.4 3.4 0 0 1 3.73-3.17 8 8 0 0 1 3.17.72l-.59 1.84a8 8 0 0 0-2.66-.56c-1.1 0-1.47.5-1.47 1.17 0 1.82 5.33 1.84 5.33 5.34a3.7 3.7 0 0 1-4.02 3.38" transform="translate(9.92 -357.952)"/><path id="Path_40" fill="#1d1d1b" d="M369.5 439.6c-1.68 0-2.93-.58-2.93-2.31v-14.96h2.16v14.61c0 .48.26.83.96.83Z" transform="translate(16.236 -361.307)"/><path id="Path_41" fill="#1d1d1b" d="M374.56 436.28a5.97 5.97 0 1 1 5.92-5.95 5.8 5.8 0 0 1-5.92 5.95m0-9.92a4 4 0 1 0 3.68 3.97 3.7 3.7 0 0 0-3.68-3.97" transform="translate(19.502 -357.974)"/><path id="Path_42" fill="#1d1d1b" d="M228.5 435.1v12.5h-1.53v-12.5H223v-1.41h9.33v1.41Z" transform="translate(-223.02 -342.376)"/><path id="Path_43" fill="#1d1d1b" d="M234.14 448.2V442c0-1.86-.88-2.66-2.21-2.66-1.82 0-3.23 1.73-3.23 4.08v4.7h-1.44v-14.78h1.44v6.8a3.9 3.9 0 0 1 3.33-2.16 3.4 3.4 0 0 1 3.58 3.7v6.43Z" transform="translate(-215.921 -342.959)"/><path id="Path_44" fill="#1d1d1b" d="M232.71 440.6a3.5 3.5 0 0 0 3.65 3.5 7 7 0 0 0 2.94-.57l.4 1.26a7.5 7.5 0 0 1-3.34.69 4.96 4.96 0 0 1-5.12-5.17 4.9 4.9 0 0 1 4.8-5.18 5 5 0 0 1 4.8 5.5Zm3.33-4.13a3.3 3.3 0 0 0-3.22 2.66h6.45a3.3 3.3 0 0 0-3.33-2.66Z" transform="translate(-209.294 -339.976)"/><path id="Path_45" fill="#1d1d1b" d="M245.02 448a7.2 7.2 0 1 1 7.04-7.2 6.96 6.96 0 0 1-7.04 7.2m0-12.96a5.79 5.79 0 1 0 5.52 5.76 5.47 5.47 0 0 0-5.52-5.76" transform="translate(-198.59 -342.525)"/><path id="Path_46" fill="#1d1d1b" d="M246.8 445.5a5.7 5.7 0 0 1-3.1-.96l.51-1.23a5.6 5.6 0 0 0 2.67.86c1.2 0 1.95-.62 1.95-1.44 0-2.03-4.78-1.84-4.78-4.94a2.67 2.67 0 0 1 3.1-2.66 6 6 0 0 1 2.66.56l-.34 1.28a7 7 0 0 0-2.2-.48c-1.16 0-1.62.64-1.62 1.25 0 1.92 4.77 1.79 4.77 4.93a3.07 3.07 0 0 1-3.62 2.83" transform="translate(-188.507 -340.031)"/><path id="Path_47" fill="#1d1d1b" d="M249.2 448.38c-1.22 0-2.18-.48-2.18-1.86v-13.15h1.47v13.07c0 .4.18.69.8.69Z" transform="translate(-182.991 -342.909)"/><path id="Path_48" fill="#1d1d1b" d="M253.77 445.47a5.17 5.17 0 1 1 5.1-5.18 5 5 0 0 1-5.1 5.18m0-8.99a3.84 3.84 0 1 0 3.66 3.81 3.63 3.63 0 0 0-3.66-3.81" transform="translate(-180.492 -339.992)"/><path id="Path_49" fill="#1d1d1b" d="M259.38 448a8 8 0 0 1-3.97-1.1l.45-1.28a8.5 8.5 0 0 0 3.5.96c1.8 0 3-.96 3-2.42 0-3.31-6.68-2.67-6.68-7.1a3.65 3.65 0 0 1 4.02-3.44 9 9 0 0 1 3.52.8l-.43 1.3a9 9 0 0 0-3.09-.71c-1.7 0-2.5.98-2.5 2.05 0 3.04 6.69 2.67 6.69 7.1a4.1 4.1 0 0 1-4.5 3.83Z" transform="translate(-169.01 -342.521)"/><path id="Path_50" fill="#1d1d1b" d="M264.5 445.47a5.17 5.17 0 1 1 0-10.35 8 8 0 0 1 3.3.67l-.3 1.3a8 8 0 0 0-2.98-.61 3.81 3.81 0 0 0 0 7.63 8 8 0 0 0 3.01-.62l.3 1.28a8 8 0 0 1-3.34.7" transform="translate(-162.494 -339.993)"/><path id="Path_51" fill="#1d1d1b" d="M270.3 448.2V442c0-1.86-.88-2.66-2.21-2.66-1.82 0-3.23 1.73-3.23 4.08v4.7h-1.44v-14.78h1.44v6.8a3.9 3.9 0 0 1 3.33-2.16 3.4 3.4 0 0 1 3.58 3.7v6.43Z" transform="translate(-155.661 -342.959)"/><path id="Path_52" fill="#1d1d1b" d="M272.57 445.47a5.17 5.17 0 1 1 5.1-5.18 5 5 0 0 1-5.1 5.18m0-8.99a3.84 3.84 0 1 0 3.66 3.81 3.63 3.63 0 0 0-3.66-3.81" transform="translate(-149.162 -339.992)"/><path id="Path_53" fill="#1d1d1b" d="M277.15 445.47a5.17 5.17 0 1 1 5.1-5.18 5 5 0 0 1-5.1 5.18m0-8.99a3.84 3.84 0 1 0 3.66 3.81 3.63 3.63 0 0 0-3.66-3.81" transform="translate(-141.529 -339.992)"/><path id="Path_54" fill="#1d1d1b" d="M278.9 448.38c-1.22 0-2.18-.48-2.18-1.86v-13.15h1.47v13.07c0 .4.18.69.8.69Z" transform="translate(-133.497 -342.909)"/><path id="Path_55" fill="#1d1d1b" d="M285.7 445.47a5.17 5.17 0 1 1 5.1-5.18 5 5 0 0 1-5.1 5.18m0-8.99a3.84 3.84 0 1 0 3.65 3.81 3.63 3.63 0 0 0-3.65-3.81" transform="translate(-127.281 -339.992)"/><path id="Path_56" fill="#1d1d1b" d="M291.27 434.8a6 6 0 0 0-1.28-.13c-1.33 0-1.84.7-1.84 1.92v1.82h3.15v1.28h-3.28v8.58h-1.44v-8.58h-1.79v-1.28h1.79v-1.82a3.07 3.07 0 0 1 3.3-3.3 7 7 0 0 1 1.58.24Z" transform="translate(-120.048 -343.065)"/><path id="Path_57" fill="#1d1d1b" d="m300.37 447.6-1.55-4.27h-5.84l-1.52 4.26h-1.65l5.2-13.89h1.81l5.15 13.9Zm-4.43-12.25-2.37 6.56h4.75Z" transform="translate(-111.683 -342.359)"/><path id="Path_58" fill="#1d1d1b" d="M296.6 440.54v4.72h-1.46v-9.9h1.3a13 13 0 0 1 .17 1.82 4 4 0 0 1 3.57-2.08v1.36a3.7 3.7 0 0 0-3.57 4.08" transform="translate(-102.8 -340.026)"/><path id="Path_59" fill="#1d1d1b" d="M302.74 445.47a5.17 5.17 0 0 1 0-10.35 8 8 0 0 1 3.3.67l-.28 1.3a8 8 0 0 0-2.99-.61 3.81 3.81 0 1 0 0 7.63 8 8 0 0 0 3.01-.62l.3 1.28a8 8 0 0 1-3.34.7" transform="translate(-98.751 -339.993)"/><path id="Path_60" fill="#1d1d1b" d="M308.51 448.2V442c0-1.86-.88-2.66-2.21-2.66-1.82 0-3.23 1.73-3.23 4.08v4.7h-1.44v-14.78h1.44v6.8a3.9 3.9 0 0 1 3.33-2.16 3.4 3.4 0 0 1 3.58 3.7v6.43Z" transform="translate(-91.985 -342.959)"/><path id="Path_61" fill="#1d1d1b" d="M306.85 435.53a1.04 1.04 0 1 1 1.04-1.04 1.04 1.04 0 0 1-1.04 1.04m-.72 12.48v-9.9h1.47v9.9Z" transform="translate(-85.019 -342.776)"/><path id="Path_62" fill="#1d1d1b" d="M312 447.33a3 3 0 0 1-3.26-3.33v-5.5h-1.44v-1.27h1.44V434h1.44v3.25h2.93v1.28h-2.93v5.5c0 1.52.64 2.1 1.81 2.1a8 8 0 0 0 1.12 0v1.2a6 6 0 0 1-1.12 0" transform="translate(-82.536 -341.859)"/><path id="Path_63" fill="#1d1d1b" d="M311.67 440.6a3.5 3.5 0 0 0 3.65 3.5 7 7 0 0 0 2.94-.57l.4 1.26a7.5 7.5 0 0 1-3.34.69 4.96 4.96 0 0 1-5.14-5.17 4.9 4.9 0 0 1 4.8-5.18 5 5 0 0 1 4.8 5.5Zm3.33-4.14a3.3 3.3 0 0 0-3.23 2.67h6.46a3.3 3.3 0 0 0-3.18-2.67Z" transform="translate(-77.759 -339.976)"/><path id="Path_64" fill="#1d1d1b" d="M319.72 445.47a5.17 5.17 0 1 1 0-10.35 8 8 0 0 1 3.31.67l-.3 1.3a8 8 0 0 0-2.98-.61 3.81 3.81 0 0 0 0 7.63 8 8 0 0 0 3.01-.62l.3 1.28a8 8 0 0 1-3.34.7" transform="translate(-70.454 -339.993)"/><path id="Path_65" fill="#1d1d1b" d="M323 447.33a3 3 0 0 1-3.26-3.33v-5.5h-1.44v-1.27h1.44V434h1.44v3.25h2.93v1.28h-2.93v5.5c0 1.52.64 2.1 1.81 2.1a8 8 0 0 0 1.12 0v1.2a6 6 0 0 1-1.12 0" transform="translate(-64.205 -341.859)"/><path id="Path_66" fill="#1d1d1b" d="M325.52 445.32a4.03 4.03 0 0 1-4.16-4.14v-5.97h1.47V441a2.69 2.69 0 1 0 5.33 0v-5.79h1.44v5.97a4.03 4.03 0 0 1-4.08 4.14" transform="translate(-59.106 -339.842)"/><path id="Path_67" fill="#1d1d1b" d="M327.09 440.54v4.72h-1.47v-9.9h1.3a13 13 0 0 1 .17 1.82 4 4 0 0 1 3.57-2.08v1.36a3.7 3.7 0 0 0-3.57 4.08" transform="translate(-52.006 -340.026)"/><path id="Path_68" fill="#1d1d1b" d="M329.45 440.61a3.5 3.5 0 0 0 3.65 3.5 7 7 0 0 0 2.93-.56l.4 1.25a7.5 7.5 0 0 1-3.23.67 4.96 4.96 0 0 1-5.12-5.18 4.9 4.9 0 0 1 4.8-5.17 5 5 0 0 1 4.8 5.5Zm3.33-4.13a3.3 3.3 0 0 0-3.23 2.67h6.46a3.3 3.3 0 0 0-3.23-2.67" transform="translate(-47.912 -339.992)"/><path id="Path_69" fill="#1d1d1b" d="M343.04 445.25a14 14 0 0 1-.22-1.54 4.2 4.2 0 0 1-3.49 1.76 5.2 5.2 0 0 1 0-10.35 4.2 4.2 0 0 1 3.5 1.76v-1.52h1.43v9.9Zm-3.58-8.74a3.84 3.84 0 1 0 3.42 3.81 3.5 3.5 0 0 0-3.42-3.84Z" transform="translate(-36.946 -339.993)"/><path id="Path_70" fill="#1d1d1b" d="M346.32 445.31v-6.16c0-1.84-.91-2.66-2.24-2.66-1.82 0-3.2 1.7-3.2 4.08v4.69h-1.47v-9.84h1.28a14 14 0 0 1 .19 1.81 3.8 3.8 0 0 1 3.3-2.16 3.4 3.4 0 0 1 3.58 3.7v6.4Z" transform="translate(-29.025 -340.078)"/><path id="Path_71" fill="#1d1d1b" d="M351.8 448.14c0-.4-.15-1.06-.2-1.54a4.2 4.2 0 0 1-3.5 1.78 5.2 5.2 0 0 1 0-10.34 4.3 4.3 0 0 1 3.5 1.78v-6.45h1.35v14.77Zm-3.57-8.77a3.84 3.84 0 1 0 3.44 3.84 3.5 3.5 0 0 0-3.44-3.81Z" transform="translate(-22.331 -342.909)"/><path id="Path_72" fill="#1d1d1b" d="M355.12 447.6h-4.72v-13.9h4.72a6.96 6.96 0 0 1 0 13.92m-.21-12.5H352v11.1h2.99a5.55 5.55 0 1 0 0-11.1Z" transform="translate(-10.711 -342.376)"/><path id="Path_73" fill="#1d1d1b" d="M356.85 440.61a3.47 3.47 0 0 0 3.65 3.47 7 7 0 0 0 2.94-.56l.4 1.25a8 8 0 0 1-3.34.7 4.96 4.96 0 0 1-5.14-5.18 4.9 4.9 0 0 1 4.8-5.17 5 5 0 0 1 4.8 5.5Zm3.33-4.16a3.3 3.3 0 0 0-3.22 2.67h6.45a3.3 3.3 0 0 0-3.2-2.64Z" transform="translate(-2.467 -339.992)"/><path id="Path_74" fill="#1d1d1b" d="M362.74 445.5a5.7 5.7 0 0 1-3.07-.96l.5-1.23a5.6 5.6 0 0 0 2.68.86c1.2 0 1.92-.62 1.92-1.44 0-2.03-4.78-1.84-4.78-4.94a2.67 2.67 0 0 1 3.1-2.66 6 6 0 0 1 2.66.56l-.35 1.28a7 7 0 0 0-2.18-.48c-1.17 0-1.63.64-1.63 1.25 0 1.92 4.77 1.79 4.77 4.93a3.07 3.07 0 0 1-3.62 2.83" transform="translate(4.737 -340.031)"/><path id="Path_75" fill="#1d1d1b" d="M363.91 435.53a1.04 1.04 0 1 1 1.04-1.04 1.04 1.04 0 0 1-1.04 1.04m-.72 12.48v-9.9h1.47v9.9Z" transform="translate(10.07 -342.776)"/><path id="Path_76" fill="#1d1d1b" d="M369.43 449.5a7.6 7.6 0 0 1-3.66-.99l.46-1.22a7 7 0 0 0 3.2.85 2.9 2.9 0 0 0 3.25-3.3v-1.13a4.2 4.2 0 0 1-3.47 1.76 5.2 5.2 0 0 1 0-10.34 4.2 4.2 0 0 1 3.47 1.78 15 15 0 0 1 .21-1.52h1.28v9.68a4.3 4.3 0 0 1-4.75 4.43Zm0-13.01a3.84 3.84 0 1 0 3.4 3.81 3.5 3.5 0 0 0-3.51-3.84Z" transform="translate(12.848 -339.976)"/><path id="Path_77" fill="#1d1d1b" d="M376.15 445.31v-6.16c0-1.86-.91-2.66-2.24-2.66-1.82 0-3.2 1.7-3.2 4.08v4.69h-1.47v-9.84h1.28a14 14 0 0 1 .19 1.81 3.8 3.8 0 0 1 3.3-2.16 3.4 3.4 0 0 1 3.58 3.7v6.4Z" transform="translate(20.686 -340.078)"/><path id="Path_78" fill="#1d1d1b" d="m323.53 426.42.91-.96-1.01-.96-.88.96a6 6 0 0 0-3.55-1.12 5.8 5.8 0 0 0-5.92 5.97 6 6 0 0 0 1.34 3.82l-1.02 1.09 1.01.96 1.02-1.07a6 6 0 0 0 3.57 1.18 5.8 5.8 0 0 0 5.92-5.95 6 6 0 0 0-1.39-3.92m-8.23 3.9a3.7 3.7 0 0 1 3.68-3.98 3.6 3.6 0 0 1 2.1.67l-5.33 5.54a4.4 4.4 0 0 1-.56-2.24Zm3.68 3.97a3.6 3.6 0 0 1-2.16-.7l5.33-5.57a4.4 4.4 0 0 1 .61 2.3 3.73 3.73 0 0 1-3.9 3.97Z" transform="translate(-72.905 -357.958)"/></g></g></svg>