<svg xmlns="http://www.w3.org/2000/svg" width="89" height="45" viewBox="0 0 89 45"><g transform="translate(-0.388)"><rect width="89" height="45" transform="translate(0.388)" fill="#e8eff3"/><g transform="translate(21.404 12.977)"><path d="M52.6.466c1.474,0,2.949.015,4.423-.01.448-.009.633.126.567.575a1.518,1.518,0,0,0,0,.34c.048.728-.31,1.875.136,2.095a6.84,6.84,0,0,0,2.661.146c.381.009.371-.254.369-.517,0-.681.017-1.361-.009-2.04-.015-.41.061-.606.546-.6,1.9.027,3.8.02,5.7,0,.39,0,.528.09.548.51.09,1.863.107,1.862-1.751,1.862-.624,0-1.247.015-1.872-.005-.337-.01-.441.117-.442.444s.128.444.453.439c.992-.014,1.984.009,2.976-.012.378-.007.539.066.56.5.092,1.865.111,1.865-1.749,1.865-.6,0-1.191.012-1.787-.005-.322-.009-.459.1-.451.432.009.317.031.548.444.543,1.021-.015,2.042.009,3.061-.01.376-.007.538.06.558.5.087,1.867.106,1.865-1.741,1.865-1.417,0-2.837-.031-4.252.015-.613.02-.875-.1-.812-.776.065-.7,0-1.417.02-2.125.014-.41-.141-.577-.541-.528a.709.709,0,0,1-.085,0c-.818.017-1.894-.274-2.386.134-.519.432-.179,1.55-.14,2.36.036.737-.148.963-.921.936-1.812-.065-1.814-.019-1.814-1.794,0-1.389-.019-2.779.01-4.167.01-.476-.117-.623-.609-.63-1.623-.022-1.623-.044-1.623,1.555,0,1.446-.019,2.893.01,4.337.01.49-.075.689-.636.694-2.091.02-2.091.044-2.091-2.023,0-1.276-.036-2.552.015-3.827.024-.619-.187-.745-.762-.737-1.673.022-1.64,0-1.659-1.686-.007-.6.22-.684.733-.674,1.445.029,2.891.01,4.337.01Z" transform="translate(-39.433 -0.379)" fill="#12089f"/><path d="M170.279,4.6c0-1.3.022-2.609-.012-3.912-.012-.49.157-.562.616-.621a2.925,2.925,0,0,1,3.4,1.634,15.407,15.407,0,0,0,1.537,2.134c.063.085.163.221.226.211.2-.034.107-.225.107-.344.008-.963.061-1.931-.014-2.889-.056-.735.3-.744.849-.733,2.236.039,1.862-.138,1.873.7.027,1.9,0,3.8.005,5.7,0,.153-.1.4.066.442.191.044.2-.22.255-.366.693-1.885,1.4-3.766,2.057-5.663.2-.582.458-.893,1.128-.812.859.1,1.933-.337,2.542.18.567.48.665,1.516.961,2.309.721,1.935,1.424,3.878,2.166,5.8.2.531.128.7-.458.648a10.432,10.432,0,0,0-1.53,0c-.551.032-1.016.005-1.089-.7-.034-.334-.306-.351-.579-.349-.6.007-1.191.017-1.785,0-.556-.017-1.1-.068-1.169.713-.031.354-.316.334-.577.334-1.389,0-2.779-.014-4.167.009a.838.838,0,0,1-.75-.441c-.858-1.2-1.731-2.384-2.6-3.572-.077-.1-.109-.306-.281-.259-.187.051-.08.238-.08.362-.005,1.077-.024,2.156.01,3.231.015.492-.077.684-.638.686-2.073.005-2.073.031-2.073-2.045V4.6Zm12.985.984c.778.182.921-.106.636-.8-.2-.49-.308-1.019-.468-1.526-.031-.1-.105-.237-.177-.247-.15-.022-.116.143-.145.237-.158.509-.281,1.031-.478,1.525-.269.674-.175,1.009.631.813Z" transform="translate(-141.293 0)" fill="#12089f"/><path d="M4.925.452A2.223,2.223,0,0,1,7.195,2.02C8.018,4.246,8.82,6.48,9.677,8.694c.235.606.094.733-.5.689a9.958,9.958,0,0,0-1.528,0c-.538.041-.95-.031-1.028-.67-.048-.388-.347-.381-.64-.378-.623,0-1.247.034-1.868-.009-.551-.037-.941.065-1.019.694-.032.26-.2.369-.471.364-.764-.014-1.528-.015-2.292,0-.434.009-.357-.177-.25-.466Q1.564,4.942,3.012.962c.134-.373.3-.56.725-.519C4.13.481,4.528.452,4.925.452ZM4.916,5.941c.657.157.978.014.645-.774-.248-.585-.4-1.21-.6-1.816a9.183,9.183,0,0,0-.691,1.843C3.939,5.892,4.19,6.094,4.916,5.941Z" transform="translate(0 -0.364)" fill="#12089f"/><path d="M4.952,77.78c-.439.092-.575-.048-.374-.575,1.045-2.75,2.084-5.5,3.07-8.273.26-.732.778-.507,1.237-.5.265.009.114.265.066.4C7.9,71.7,6.824,74.561,5.779,77.432,5.624,77.857,5.325,77.769,4.952,77.78Z" transform="translate(-3.723 -56.758)" fill="#e91f27"/><path d="M98.743,79.665c-.5.123-.817.012-.985-.633-.14-.536-.655-.008-.987-.14-.1-.039-.337-.071-.34.114-.005.308.264.223.437.2.192-.02.432-.141.458.162.02.247-.245.291-.424.32-.492.078-.951-.031-1.057-.582-.1-.521-.174-1.128.538-1.327.562-.157,1.035,0,1.126.652.06.42.177.5.517.238a1.677,1.677,0,0,1,.385-.158c.167-.068.5.1.493-.123,0-.328-.328-.216-.528-.168-.18.043-.349.1-.4-.129s.168-.267.317-.313a.819.819,0,0,1,1.1.357,1.869,1.869,0,0,1,.024,1.47c-.1.252-.408-.046-.67.058ZM99,78.993a1.081,1.081,0,0,0-.254-.1c-.136-.017-.294-.014-.366.124s.024.2.153.206A.413.413,0,0,0,99,78.993Zm-2.045-.582a.215.215,0,0,0-.225-.2.411.411,0,0,0-.282.112c-.085.128.024.192.146.189S96.864,78.568,96.953,78.411Z" transform="translate(-79.484 -64.488)" fill="#12089f"/><path d="M39.859,103.24c.539-.33.784.475,1.087.3.279-.157.342-.669.558-.984a.433.433,0,0,1,.609-.119c.291.254.01.359-.194.458a.622.622,0,0,0-.123.111c.815.575-.505,1.086-.054,1.674a.276.276,0,0,1-.221.436c-.3.014-.237-.228-.277-.417-.077-.354.23-1-.209-1.006s-.136.647-.214,1c-.041.184.041.429-.265.429s-.23-.24-.267-.427c-.073-.349.252-.972-.286-.99-.638-.022-.325.635-.388,1.006-.032.192.027.431-.279.412s-.238-.257-.24-.448.012-.4,0-.594c-.041-.577-.1-1.157.767-.846Z" transform="translate(-32.426 -84.943)" fill="#12089f"/><path d="M79.753,108.131q0-1.113,1.108-1a3.65,3.65,0,0,0,.4.1c1.184-.017,1.462.323,1.251,1.543-.026.146-.026.288-.209.3s-.322-.068-.318-.288.007-.453,0-.677.031-.509-.3-.488c-.3.019-.294.286-.288.519,0,.141.01.282,0,.424-.015.2.1.507-.262.505s-.216-.317-.247-.51c-.017-.111.007-.226-.005-.339-.026-.228.105-.579-.3-.556-.351.019-.328.322-.32.58a.507.507,0,0,1,0,.168c-.075.226.209.667-.267.645-.448-.02-.165-.446-.237-.681A.9.9,0,0,1,79.753,108.131Z" transform="translate(-66.166 -88.897)" fill="#12089f"/><path d="M265.823,1.754a2.5,2.5,0,0,1-.007.505c-.051.252.214.711-.332.676-.42-.027-.987.288-1.191-.424-.148-.512-.351-1.009-.514-1.516a1.907,1.907,0,0,1-.039-.41,17.16,17.16,0,0,1,1.846-.029c.422.036.182.449.23.691a2.632,2.632,0,0,1,.005.505Z" transform="translate(-218.861 -0.447)" fill="#12089f"/><path d="M60.618,74.514a1.321,1.321,0,0,1,.005-.339c.088-.322-.264-.846.228-.944a1.524,1.524,0,0,1,1.458.185.829.829,0,0,1,.032,1.218c-.269.335.094.563.143.846.024.138.252.308-.034.407a.335.335,0,0,1-.436-.163c-.066-.124-.119-.257-.177-.385-.09-.2-.129-.461-.437-.429-.371.039-.2.335-.231.529-.032.209.056.49-.315.463-.315-.024-.226-.271-.233-.449-.012-.311,0-.623,0-.936Zm.951-.126c.26.009.463-.075.463-.354s-.221-.337-.459-.345-.425.034-.419.351.168.374.417.349Z" transform="translate(-50.274 -60.692)" fill="#12089f"/><path d="M239.208,108.417c0,1.2-.422,1.69-1.242,1.424-.146-.048-.39-.07-.362-.279.031-.243.223-.272.449-.191s.556.1.562-.16c.007-.361-.327-.083-.5-.119-.733-.146-.6-.711-.6-1.2a.667.667,0,0,1,.781-.762c.916.022.916.017.916,1.29Zm-.514-.294a.4.4,0,0,0-.427-.5c-.32.01-.252.311-.257.519s-.015.476.332.439c.276-.031.376-.2.352-.465Z" transform="translate(-197.089 -88.899)" fill="#12089f"/><path d="M157.711,74.738c.3-.111.4-.034.339.3a1.621,1.621,0,0,1-.818.934.943.943,0,0,1-1.121-.352.741.741,0,0,1,.2-1.048c.216-.192.162-.379.131-.6a.548.548,0,0,1,.383-.664.6.6,0,0,1,.693.172.546.546,0,0,1-.005.762c-.114.145-.328.26-.133.492.105.124.209.177.33,0Zm-.463.521c-.2-.078-.187-.468-.5-.442a.35.35,0,0,0-.294.432.4.4,0,0,0,.485.342c.143-.02.359-.022.306-.332Zm-.213-1.159c.077-.083.165-.136.175-.2.019-.121-.054-.225-.189-.194-.053.012-.114.123-.116.189s.073.121.131.206Z" transform="translate(-129.428 -60.803)" fill="#12089f"/><path d="M138.855,74.678v-.934c0-.174-.01-.352.226-.376s.313.107.286.308c-.058.425.1.524.517.453a.551.551,0,0,1,.631.454,3.609,3.609,0,0,1,0,1.429c-.009.039-.145.075-.22.073-.17,0-.242-.114-.243-.277,0-.226.01-.453-.005-.679-.014-.209.056-.514-.291-.5-.248.014-.347.206-.4.466-.063.334.281.97-.281.936-.461-.027-.116-.669-.214-1.023a1.323,1.323,0,0,1-.005-.339Z" transform="translate(-115.205 -60.883)" fill="#12089f"/><path d="M183.852,103.9a6.025,6.025,0,0,1,.005-.679c.026-.228-.157-.584.208-.642.427-.068.279.32.306.534s.15.225.34.252a1.32,1.32,0,0,1,.844,1.79.241.241,0,0,1-.269.146c-.119-.014-.225-.068-.231-.2-.012-.254,0-.509-.007-.764-.005-.223.022-.509-.3-.493-.245.012-.34.208-.388.471-.061.332.293.967-.276.934-.48-.027-.119-.665-.221-1.014a1.248,1.248,0,0,1-.005-.339Z" transform="translate(-152.543 -85.121)" fill="#12089f"/><path d="M265.4,78.542c.124-.282-.242-.856.221-.905.4-.043.987-.315,1.32.218a2.348,2.348,0,0,1,.126,1.571c-.014.136-.174.133-.281.119-.185-.022-.168-.179-.2-.316-.088-.378.255-1.058-.272-1.084-.687-.032-.306.682-.393,1.07-.041.18-.063.34-.288.332-.242-.01-.231-.2-.233-.368,0-.2,0-.4,0-.635Z" transform="translate(-220.219 -64.338)" fill="#12089f"/><path d="M194.251,78.793c-.294-.9.231-1,.881-.994.7.005.824.454.808,1.021a2.47,2.47,0,0,1,0,.337c-.037.22.155.582-.243.6-.427.02-.228-.356-.265-.568a4.975,4.975,0,0,1-.01-.505c-.01-.172-.046-.351-.262-.362a.358.358,0,0,0-.408.328,1.106,1.106,0,0,1-.008.168c-.1.311.252.917-.243.9-.556-.015-.09-.648-.243-.931Z" transform="translate(-161.127 -64.562)" fill="#12089f"/><path d="M195.613,107.915c-.25-.733.206-.921.944-.885s.776.512.757,1.06c-.005.141.012.282,0,.422-.015.2.123.5-.264.485-.3-.012-.213-.254-.254-.437-.073-.344.254-.963-.286-.978-.638-.019-.322.636-.388,1.006-.034.185.043.429-.271.41-.3-.019-.237-.255-.24-.444,0-.168,0-.339,0-.64Z" transform="translate(-162.27 -88.815)" fill="#12089f"/><path d="M184.063,78.9c0,.168,0,.339,0,.507,0,.15-.043.282-.221.3-.218.019-.3-.106-.294-.306s.007-.395,0-.592c-.01-.243.051-.572-.335-.545-.325.022-.313.306-.354.568-.046.294.243.835-.225.839-.575,0-.2-.568-.274-.873-.211-.81.17-1.13.955-1.065.759.063.767.609.75,1.171Z" transform="translate(-151.281 -64.498)" fill="#12089f"/><path d="M162.684,107.09a.77.77,0,0,1,.793.408c.1.252.271.6-.192.747-.048.015-.124.085-.119.1.446.866-.228.744-.664.691-.626-.077-.662-.579-.65-1.092A.8.8,0,0,1,162.684,107.09Zm-.009.783c.15-.026.3.029.3-.123,0-.066-.136-.168-.225-.187a.23.23,0,0,0-.3.208C162.454,107.8,162.624,107.851,162.675,107.873Zm.158.386c-.23-.022-.347.049-.334.155.01.068.165.157.259.162.119.007.3-.024.254-.211C163,108.3,162.84,108.264,162.834,108.259Z" transform="translate(-134.309 -88.869)" fill="#12089f"/><path d="M98.9,109c-.536.107-1,.136-1.067-.453s.385-.667.839-.7c.111-.007.332.06.259-.174-.043-.134-.221-.15-.371-.138-.209.015-.56.31-.558-.15,0-.291.391-.293.63-.293.689,0,.955.407.885,1.053-.046.429.313,1.217-.616.853Zm-.26-.386c.1-.049.284-.085.31-.172.058-.191-.121-.2-.257-.184s-.3.008-.311.187C98.371,108.591,98.514,108.586,98.642,108.618Z" transform="translate(-81.181 -88.877)" fill="#12089f"/><path d="M230.215,78.954c-.078.211.175.682-.218.66-.444-.026-.956.288-1.351-.15-.337-.373-.123-.829.441-.99.179-.051.524.14.507-.191-.01-.206-.318-.151-.507-.106-.167.041-.351.114-.4-.129s.174-.259.32-.311C229.752,77.47,230.218,77.933,230.215,78.954Zm-.934.257c.177-.048.361-.031.364-.2,0-.2-.184-.143-.3-.146-.146-.005-.288.051-.269.22.007.058.155.1.209.131Z" transform="translate(-189.606 -64.449)" fill="#12089f"/><path d="M151.692,104.289c-.134-.412.378-1.152-.585-1.159-.109,0-.141-.151-.111-.274a.23.23,0,0,1,.254-.172c.478-.007.956-.005,1.436-.005.158,0,.267.058.279.235.008.129-.044.252-.167.24-.747-.065-.487.485-.529.849-.01.083.024.179-.005.252-.151.369.362,1.086-.306,1.089-.548,0-.111-.7-.265-1.053Z" transform="translate(-125.293 -85.208)" fill="#12089f"/><path d="M266.682,108.566c.168.046.395.094.434-.106s-.209-.219-.362-.25c-.3-.063-.541-.182-.553-.533a.523.523,0,0,1,.342-.534,1.245,1.245,0,0,1,.99.034.188.188,0,0,1,.078.286c-.116.194-.271.121-.441.073-.143-.041-.369-.129-.391.133-.017.206.2.141.322.167.323.068.625.18.645.558a.582.582,0,0,1-.492.607,1.171,1.171,0,0,1-1.052-.157.222.222,0,0,1-.034-.209c.133-.254.33-.124.512-.066Z" transform="translate(-220.865 -88.841)" fill="#12089f"/><path d="M85.773,79.251c.165.005.425.15.468-.123.029-.191-.233-.191-.395-.221-.313-.056-.517-.211-.51-.56a.541.541,0,0,1,.362-.519,1.126,1.126,0,0,1,.98.06.232.232,0,0,1,.082.2c-.051.231-.216.2-.395.155-.157-.039-.408-.126-.446.06-.061.3.254.213.417.252.306.075.533.223.539.556a.6.6,0,0,1-.512.592,1.146,1.146,0,0,1-1.045-.179c-.036-.029-.031-.16,0-.218.112-.208.284-.112.456-.058Z" transform="translate(-70.78 -64.515)" fill="#12089f"/><path d="M207.88,78.808c.039.638-.255.987-.88.977-.647-.01-.839-.419-.841-1.016,0-.625.276-.982.89-.97C207.68,77.811,207.928,78.215,207.88,78.808Zm-.909.487c.315.012.4-.18.4-.424s.014-.539-.316-.584c-.286-.039-.373.192-.39.429-.017.254-.01.509.3.579Z" transform="translate(-171.079 -64.561)" fill="#12089f"/><path d="M255.3,78.8c.056.594-.191.985-.827,1-.621.012-.88-.327-.885-.961-.005-.616.213-1.006.836-1.019s.926.337.878.982Zm-.827.514c.344-.058.335-.316.33-.57s-.092-.459-.373-.437c-.344.029-.318.318-.32.567s.073.436.362.439Z" transform="translate(-210.438 -64.577)" fill="#12089f"/><path d="M209.4,108.1c.058.647-.233.985-.863.978-.648-.007-.837-.39-.837-1,0-.635.259-.978.876-.97s.9.388.825.99Zm-.5-.015c.019-.243-.039-.475-.31-.493-.328-.022-.386.228-.386.5,0,.238.031.47.315.488.34.024.4-.223.379-.5Z" transform="translate(-172.357 -88.885)" fill="#12089f"/><path d="M124.47,108.083c.068.665-.225,1-.856,1-.647-.005-.842-.391-.844-1,0-.631.26-.98.88-.972A.761.761,0,0,1,124.47,108.083Zm-.488.032c.009-.267-.027-.531-.364-.526-.276.005-.335.228-.335.473,0,.267.02.526.366.521C123.937,108.579,123.99,108.357,123.982,108.115Z" transform="translate(-101.879 -88.885)" fill="#12089f"/><path d="M60.37,108.082c.065.619-.2.984-.837.989s-.87-.351-.873-.973.228-1,.856-1S60.436,107.447,60.37,108.082Zm-.492-.032c.01-.248-.07-.466-.342-.468-.337,0-.359.267-.361.531,0,.245.053.463.34.463.342,0,.373-.259.362-.524Z" transform="translate(-48.678 -88.877)" fill="#12089f"/><path d="M227.4,108.09c.07.659-.214,1-.847,1s-.851-.379-.854-.992c0-.631.259-.982.875-.977a.758.758,0,0,1,.825.972Zm-.858.509c.274,0,.373-.167.376-.424s.012-.536-.315-.575c-.269-.032-.381.167-.386.42S226.2,108.53,226.544,108.6Z" transform="translate(-187.294 -88.893)" fill="#12089f"/><path d="M134.315,107.925c-.313-.824.316-.825.924-.825.647,0,.79.422.769.967-.007.168.005.339,0,.507-.01.206.092.5-.277.483-.316-.01-.209-.269-.226-.446-.01-.112.01-.226,0-.339-.031-.252.131-.648-.3-.655-.448-.007-.357.388-.4.691-.036.259.233.747-.26.725-.451-.02-.148-.493-.225-.754a1.729,1.729,0,0,1,0-.356Z" transform="translate(-111.39 -88.877)" fill="#12089f"/><path d="M73.77,78.746c.005-.783.614-1.208,1.271-.9a.732.732,0,0,1,.429.83c-.056.412-.4.158-.607.228-.17.058-.493-.088-.5.114-.015.325.3.235.514.209.168-.02.359-.077.4.15s-.179.262-.323.317C74.3,79.936,73.766,79.5,73.77,78.746Zm1.142-.3a.269.269,0,0,0-.344-.2c-.087.024-.223.15-.211.2.041.172.213.107.332.105.082,0,.235.041.221-.1Z" transform="translate(-61.217 -64.519)" fill="#12089f"/><path d="M254.666,108.017a.751.751,0,0,1,.451-.859.961.961,0,0,1,.963.094.715.715,0,0,1,.284.745c-.054.361-.356.151-.541.214s-.555-.134-.572.143c-.019.3.31.225.524.172.18-.044.362-.048.4.165s-.177.262-.325.315c-.67.237-1.186-.179-1.184-.99Zm1.125-.315a.3.3,0,0,0-.362-.146c-.105.036-.231.116-.168.226.034.061.2.065.311.06C255.654,107.837,255.813,107.884,255.79,107.7Z" transform="translate(-211.325 -88.853)" fill="#12089f"/><path d="M110.981,104.6c-.665.488-.439.98,0,1.482.019.022-.053.185-.1.2-.23.048-.521.043-.606-.182a2.914,2.914,0,0,1-.226-1.829c.048-.172-.1-.514.291-.5.3.007.245.259.282.436.044.209.419.106.359.4Z" transform="translate(-91.264 -86.104)" fill="#12089f"/><path d="M217.468,77.8c.313.005.362.226.432.448.041.129.123.339.2.344.2.017.216-.2.26-.354.077-.259.184-.548.5-.4s.039.42-.039.567c-.242.453-.216,1.383-.691,1.29-.6-.117-.562-1.055-.842-1.617-.092-.184.043-.242.175-.277Z" transform="translate(-180.292 -64.557)" fill="#12089f"/><path d="M127.79,78.352c.359-.357.664-.839,1.3-.592.153.06.366.112.322.32a.258.258,0,0,1-.386.194c-.425-.208-.568,0-.585.391-.019.431.126.653.6.485a.254.254,0,0,1,.361.233c.019.187-.172.209-.284.257a.848.848,0,0,1-1.189-.67c-.034-.211.094-.454-.124-.63l-.01.01Z" transform="translate(-106.045 -64.474)" fill="#12089f"/><path d="M173.66,108.008c0-.834.536-1.268,1.208-.972.129.056.291.112.26.279a.247.247,0,0,1-.364.209c-.386-.16-.59-.053-.6.381s.116.659.594.493a.261.261,0,0,1,.376.218c.02.2-.186.25-.335.3-.645.208-1.133-.185-1.135-.905Z" transform="translate(-144.109 -88.747)" fill="#12089f"/><path d="M241.239,75.333a.262.262,0,0,1-.16.318c-.414.262-.269.648-.112.95.1.187.516.286.148.534a.47.47,0,0,1-.647-.247c-.206-.5-.073-1.081-.339-1.576.328-.1.061-.715.49-.653.356.051.248.635.619.672Z" transform="translate(-199.269 -61.953)" fill="#12089f"/><path d="M177.434,74.879V75.9c0,.157-.053.274-.23.288-.209.017-.315-.082-.315-.293q0-1.062,0-2.124c0-.158.053-.274.231-.288.209-.015.311.08.31.291,0,.368,0,.737,0,1.1Z" transform="translate(-146.79 -60.978)" fill="#12089f"/><path d="M121.045,78.275c-.548-.267-.893-.194-.87.512.005.168.005.337,0,.507,0,.185-.051.335-.284.318-.182-.014-.221-.146-.225-.291a12.307,12.307,0,0,1,0-1.349c.07-.71.626-.129.951-.291.436-.216.286.376.41.606l.01-.01Z" transform="translate(-99.289 -64.405)" fill="#12089f"/><path d="M219.66,104.109c.17-.385-.225-1.155.252-1.14.6.019.151.769.272,1.181.092.31-.119.674.133.967.129.151.318.344.061.475a.438.438,0,0,1-.6-.31,7.1,7.1,0,0,1-.117-1.171Z" transform="translate(-182.282 -85.449)" fill="#12089f"/><path d="M70.571,107.794c0-.956.2-1.144,1.047-.963.131.027.3.053.3.23,0,.151-.124.294-.254.276-.635-.09-.575.325-.6.735-.014.242.191.676-.221.686-.514.012-.185-.465-.269-.711A.829.829,0,0,1,70.571,107.794Z" transform="translate(-58.542 -88.602)" fill="#12089f"/><path d="M117.531,104.327c-.225-.429.386-.914.012-1.429-.073-.1.087-.254.255-.248s.3.158.243.272c-.3.613.18,1.212,0,1.814-.065.211.187.584-.211.616-.5.039-.225-.4-.293-.621a1.69,1.69,0,0,1-.005-.4Z" transform="translate(-97.489 -85.184)" fill="#12089f"/><path d="M34.139,104.026v1.018c0,.182-.031.337-.26.351s-.281-.134-.281-.323c0-.679,0-1.358,0-2.037,0-.17.014-.349.254-.354.3-.005.286.208.286.41v.932Z" transform="translate(-27.88 -85.209)" fill="#12089f"/><path d="M249.444,104.334c-.226-.424.376-.909.01-1.421-.063-.088.092-.274.257-.242.087.017.235.165.221.2-.243.65.16,1.288.019,1.931-.048.218.134.584-.291.56-.351-.02-.18-.344-.211-.539a3.534,3.534,0,0,1-.005-.5Z" transform="translate(-206.955 -85.199)" fill="#12089f"/><path d="M249.15,79.019c0,.17,0,.339,0,.509,0,.208,0,.42-.289.4-.247-.015-.2-.226-.208-.383-.01-.368-.015-.735,0-1.1.007-.175-.078-.441.23-.448.282-.005.272.221.267.425S249.15,78.82,249.15,79.019Z" transform="translate(-206.333 -64.728)" fill="#12089f"/><path d="M248.785,73.987c-.094-.014-.167-.124-.153-.271a.223.223,0,0,1,.277-.218c.145.024.257.114.231.272s-.129.231-.357.216Z" transform="translate(-206.323 -60.99)" fill="#12089f"/></g></g></svg>