<svg xmlns="http://www.w3.org/2000/svg" width="89" height="45" viewBox="0 0 89 45"><g transform="translate(-.388)"><path fill="#e8eff3" d="M.39 0h89v45h-89z"/><g transform="translate(21.404 12.977)"><path fill="#12089f" d="M13.17.09q2.21.01 4.42-.01c.45-.01.63.12.57.57V1c.05.73-.31 1.88.13 2.1a7 7 0 0 0 2.66.14c.39.01.38-.25.37-.51V.69c-.02-.41.06-.61.54-.6q2.85.03 5.7 0c.39 0 .53.09.55.5.09 1.87.1 1.87-1.75 1.87h-1.87c-.34-.02-.45.11-.45.44s.13.44.46.44c.99-.02 1.98 0 2.97-.02.38 0 .54.07.56.5.1 1.87.11 1.87-1.75 1.87H24.5c-.33-.01-.46.1-.45.43 0 .31.03.54.44.54l3.06-.01c.38 0 .54.06.56.5C28.2 9 28.2 9 26.37 9c-1.42 0-2.84-.03-4.25.02-.62.02-.88-.1-.82-.78.07-.7 0-1.41.02-2.12q.04-.61-.54-.53h-.08c-.82.02-1.9-.27-2.39.13-.52.44-.18 1.55-.14 2.36.04.74-.15.97-.92.94-1.81-.06-1.81-.02-1.81-1.8V3.06c.02-.48-.11-.62-.6-.63-1.63-.02-1.63-.04-1.63 1.55q-.02 2.18.01 4.34c.01.5-.07.69-.63.7-2.1.02-2.1.04-2.1-2.03 0-1.27-.03-2.55.02-3.82.03-.62-.18-.75-.76-.74-1.67.02-1.64 0-1.66-1.69 0-.6.22-.68.73-.67 1.45.03 2.9 0 4.34 0ZM28.99 4.6Q29 2.65 28.97.69c0-.5.16-.56.62-.62a2.9 2.9 0 0 1 3.4 1.63 15 15 0 0 0 1.54 2.13c.06.09.16.23.22.22.2-.04.11-.23.11-.35 0-.96.06-1.93-.01-2.89-.06-.73.3-.74.84-.73 2.24.04 1.87-.14 1.88.7q.02 2.85 0 5.7c0 .15-.1.4.07.44.19.05.2-.22.25-.36q1.06-2.83 2.06-5.67c.2-.58.46-.89 1.13-.8.86.1 1.93-.35 2.54.17.57.48.67 1.52.96 2.31q1.07 2.91 2.17 5.8c.2.53.13.7-.46.65a10 10 0 0 0-1.53 0c-.55.03-1.02 0-1.09-.7-.03-.34-.3-.35-.58-.35h-1.78c-.56-.02-1.1-.07-1.17.71-.03.36-.32.34-.58.34q-2.09-.02-4.17 0a.8.8 0 0 1-.75-.44q-1.28-1.8-2.6-3.57c-.07-.1-.1-.3-.28-.26-.18.05-.08.24-.08.36q-.02 1.62.01 3.24c.02.49-.07.68-.64.68-2.07 0-2.07.03-2.07-2.04zm12.98.98c.78.19.92-.1.64-.8-.2-.49-.31-1.02-.47-1.52-.03-.1-.1-.24-.18-.25-.15-.02-.11.14-.14.24-.16.5-.28 1.03-.48 1.52-.27.68-.18 1.01.63.82ZM4.93.09A2.2 2.2 0 0 1 7.2 1.66Q8.4 5 9.68 8.33c.23.6.1.73-.5.69a10 10 0 0 0-1.53 0c-.54.04-.95-.03-1.03-.67-.05-.39-.35-.38-.64-.38-.62 0-1.25.04-1.87 0-.55-.05-.94.06-1.02.69q-.05.38-.47.36H.33c-.43 0-.36-.18-.25-.47Q1.56 4.58 3.01.6c.14-.38.3-.56.73-.52.39.04.79 0 1.18 0m-.01 5.49c.65.15.97.01.64-.78-.25-.58-.4-1.2-.6-1.81a9 9 0 0 0-.69 1.84c-.33.7-.08.9.65.75"/><path fill="#e91f27" d="M1.23 21.02c-.44.1-.58-.05-.37-.57q1.57-4.12 3.07-8.28c.25-.73.77-.5 1.23-.5.27.01.12.27.07.4q-1.6 4.3-3.17 8.6c-.16.43-.46.34-.83.35"/><path fill="#12089f" d="M19.26 15.18c-.5.12-.82 0-.99-.64-.14-.53-.65 0-.98-.14-.1-.03-.34-.07-.34.12 0 .3.26.22.43.2.2-.02.44-.14.46.16.02.25-.24.3-.42.32-.5.08-.95-.03-1.06-.58-.1-.52-.17-1.13.54-1.33.56-.16 1.03 0 1.13.65.06.42.17.5.51.24a2 2 0 0 1 .39-.16c.16-.06.5.1.49-.12 0-.33-.33-.22-.53-.17-.18.05-.35.1-.4-.13s.17-.26.32-.31a.8.8 0 0 1 1.1.36 2 2 0 0 1 .02 1.47c-.1.25-.4-.05-.67.06m.26-.68-.26-.1c-.13-.01-.3 0-.36.13s.02.2.15.2a.4.4 0 0 0 .47-.23m-2.05-.58a.2.2 0 0 0-.22-.2.4.4 0 0 0-.29.11c-.08.13.03.2.15.2s.27.05.36-.1ZM7.43 18.3c.54-.33.79.47 1.09.3.28-.16.34-.67.56-.99a.43.43 0 0 1 .6-.12c.3.26.02.36-.19.46l-.12.11c.82.58-.5 1.09-.05 1.68a.28.28 0 0 1-.23.43c-.3.02-.23-.23-.27-.41-.08-.36.23-1-.21-1.01s-.14.65-.21 1c-.05.18.04.43-.27.43s-.23-.24-.27-.43c-.07-.35.25-.97-.28-.99-.64-.02-.33.64-.4 1-.02.2.04.44-.27.42s-.24-.26-.24-.45v-.6c-.04-.57-.1-1.15.77-.84Zm6.16.93q0-1.1 1.1-1l.4.1c1.19-.01 1.47.33 1.26 1.55-.03.14-.03.28-.21.3s-.32-.07-.32-.3v-.67c0-.23.03-.5-.3-.49-.3.02-.3.29-.29.52v.43c-.01.2.1.5-.26.5s-.22-.32-.25-.5v-.35c-.03-.23.1-.58-.3-.55-.35.02-.33.32-.32.58v.16c-.08.23.2.67-.27.65-.45-.02-.16-.45-.24-.68zM46.96 1.3a3 3 0 0 1 0 .51c-.06.25.2.71-.34.68-.42-.03-.98.29-1.19-.43-.15-.5-.35-1-.51-1.51a2 2 0 0 1-.04-.41A17 17 0 0 1 46.72.1c.43.04.19.45.23.69a3 3 0 0 1 .01.5ZM10.34 13.82a1 1 0 0 1 0-.34c.1-.32-.25-.84.24-.94a1.5 1.5 0 0 1 1.46.18.83.83 0 0 1 .03 1.22c-.27.34.1.56.14.85.02.14.25.3-.03.4a.34.34 0 0 1-.44-.16l-.18-.38c-.09-.2-.13-.46-.43-.43-.37.04-.2.33-.23.53-.04.2.05.49-.32.46-.31-.02-.23-.27-.23-.45zm.96-.12c.26 0 .46-.08.46-.36s-.22-.34-.46-.34-.43.03-.42.35.17.37.42.35m30.82 5.82q0 1.81-1.24 1.42c-.15-.05-.4-.07-.37-.28.04-.24.23-.27.45-.19s.56.1.57-.16c0-.36-.33-.08-.5-.12-.74-.14-.6-.7-.6-1.2a.67.67 0 0 1 .78-.76c.91.02.91.02.91 1.3Zm-.51-.3a.4.4 0 0 0-.43-.5c-.32.01-.25.32-.26.52s-.01.48.33.44q.4-.06.36-.46m-13.33-5.28q.44-.2.34.3a1.6 1.6 0 0 1-.82.93.94.94 0 0 1-1.12-.35.74.74 0 0 1 .2-1.05c.22-.2.17-.38.13-.6a.55.55 0 0 1 .39-.66.6.6 0 0 1 .69.17.55.55 0 0 1 0 .76c-.12.14-.33.26-.14.5.1.12.21.17.33 0m-.46.52c-.2-.08-.19-.47-.5-.45a.35.35 0 0 0-.3.44.4.4 0 0 0 .5.34c.13-.02.35-.02.3-.33m-.21-1.16c.07-.09.16-.14.17-.2.02-.12-.05-.23-.19-.2-.05.02-.11.13-.11.2s.07.11.13.2m-3.96.5v-.94c0-.17-.01-.35.23-.38s.3.11.28.31c-.06.43.1.53.52.46a.55.55 0 0 1 .63.45 4 4 0 0 1 0 1.43c0 .04-.15.07-.22.07q-.25-.01-.24-.28v-.67c-.02-.21.05-.52-.3-.5-.25.01-.35.2-.4.46-.06.34.28.97-.28.94-.46-.03-.12-.67-.21-1.03a1 1 0 0 1 0-.33Zm7.65 4.98.01-.68c.03-.23-.15-.58.21-.64.43-.07.28.32.3.53s.16.23.35.25a1.32 1.32 0 0 1 .84 1.8.24.24 0 0 1-.27.14q-.2-.01-.23-.2v-.76c-.01-.23.02-.51-.3-.5-.25.02-.34.21-.4.47-.05.34.3.97-.27.94-.48-.03-.12-.67-.22-1.02a1 1 0 0 1 0-.33Zm13.88-4.58c.12-.28-.24-.85.22-.9.4-.04.99-.32 1.32.22a2.4 2.4 0 0 1 .13 1.57c-.02.13-.18.13-.28.12-.19-.02-.17-.18-.2-.32-.1-.38.25-1.06-.28-1.08-.68-.03-.3.68-.39 1.07-.04.18-.06.34-.29.33-.24-.01-.23-.2-.23-.37zm-12.06.03c-.29-.9.23-1 .88-1 .7.01.83.46.81 1.03v.34c-.03.22.16.58-.24.6-.43.02-.23-.36-.27-.57v-.5c-.02-.18-.05-.36-.27-.37a.36.36 0 0 0-.4.33l-.01.17c-.1.3.25.91-.25.9-.55-.02-.09-.65-.24-.93Zm.22 4.87c-.25-.73.2-.92.95-.88s.77.5.75 1.06q.02.21 0 .42c-.01.2.13.5-.26.48-.3-.01-.21-.25-.25-.43-.08-.35.25-.97-.29-.98-.64-.02-.32.63-.39 1-.03.19.04.43-.27.41-.3-.02-.24-.25-.24-.44zm-.56-4.7v.5c0 .16-.04.3-.22.3-.22.03-.3-.1-.3-.3v-.59c0-.24.06-.57-.33-.54-.32.02-.31.3-.35.56-.05.3.24.84-.23.84-.57 0-.2-.56-.27-.87-.21-.81.17-1.13.95-1.06.76.06.77.6.75 1.17Zm-4.4 3.82a.8.8 0 0 1 .79.4c.1.26.27.6-.2.76-.04.01-.12.08-.11.1.44.86-.23.74-.67.69-.62-.08-.66-.58-.65-1.1a.8.8 0 0 1 .84-.85m-.01.78c.15-.02.3.03.3-.12 0-.06-.14-.17-.23-.19a.23.23 0 0 0-.3.21c0 .03.17.08.23.1m.15.39q-.34-.02-.33.16c.01.06.17.15.26.16.12 0 .3-.03.25-.21 0-.07-.17-.1-.17-.11Zm-10.8.73c-.54.11-1 .14-1.07-.45s.39-.67.84-.7c.11 0 .33.06.26-.17-.04-.14-.22-.15-.37-.14-.21.01-.56.3-.56-.15 0-.3.4-.3.63-.3.69 0 .96.41.89 1.06-.05.43.3 1.22-.62.85m-.26-.38c.1-.05.28-.09.3-.17.07-.2-.11-.2-.25-.19s-.3 0-.3.19c-.02.14.12.14.25.17M40.6 14.5c-.07.22.18.69-.2.66-.45-.02-.96.3-1.36-.15-.34-.37-.12-.82.44-.99.18-.05.53.14.5-.19 0-.2-.31-.15-.5-.1-.17.04-.35.11-.4-.13s.18-.26.32-.31c.75-.27 1.21.2 1.2 1.21m-.92.26c.17-.05.36-.03.36-.2 0-.2-.18-.14-.3-.14-.15 0-.29.05-.27.22 0 .05.16.1.2.13ZM26.4 19.08c-.13-.41.38-1.15-.59-1.16-.1 0-.14-.15-.1-.27a.23.23 0 0 1 .25-.17h1.43q.25-.02.28.23c.01.13-.04.25-.17.24-.74-.07-.48.48-.52.85-.01.08.02.17 0 .25-.16.37.35 1.08-.32 1.09-.54 0-.1-.7-.26-1.06m19.42.65c.17.04.4.09.43-.11s-.2-.22-.36-.25c-.3-.06-.54-.18-.55-.53a.5.5 0 0 1 .34-.54 1.3 1.3 0 0 1 .99.04.2.2 0 0 1 .08.28c-.12.2-.27.12-.44.08-.15-.05-.37-.13-.4.13-.01.2.2.14.33.17.32.06.62.18.64.55a.6.6 0 0 1-.5.61 1.2 1.2 0 0 1-1.04-.16.2.2 0 0 1-.04-.2c.14-.26.33-.13.52-.07M15 14.74c.16 0 .42.15.46-.13.03-.19-.23-.19-.4-.22-.3-.05-.51-.2-.5-.56a.54.54 0 0 1 .36-.52 1.1 1.1 0 0 1 .98.06.2.2 0 0 1 .08.2c-.05.23-.22.2-.4.16-.15-.04-.4-.13-.44.06-.06.3.25.21.42.25.3.08.53.22.53.56a.6.6 0 0 1-.5.59 1.2 1.2 0 0 1-1.05-.18c-.04-.03-.03-.16 0-.22.11-.2.28-.11.45-.06Zm21.8-.49q.06.96-.88.97c-.65 0-.84-.42-.84-1.01q-.01-.97.89-.97c.63.01.88.41.83 1m-.9.48c.3.02.4-.18.4-.42s0-.54-.32-.58c-.29-.04-.38.19-.4.43-.01.25 0 .5.3.57Zm8.96-.5c.06.6-.19.99-.82 1s-.88-.32-.89-.96c0-.61.21-1 .84-1.02s.92.34.87.98m-.82.52c.34-.06.33-.32.33-.57s-.1-.46-.38-.44c-.34.03-.32.32-.32.57s.08.43.36.44m-6.99 4.47q.09.98-.86.98c-.65 0-.84-.39-.84-1 0-.63.26-.98.88-.97s.9.4.82 1Zm-.5-.01c.02-.24-.04-.48-.3-.5-.33-.02-.4.23-.4.5 0 .24.04.48.32.5.34.02.4-.23.38-.5m-13.94 0q.09 1-.87 1c-.64 0-.84-.4-.84-1 0-.63.26-.98.88-.97a.76.76 0 0 1 .82.97m-.5.03c.01-.27-.02-.53-.36-.53-.28 0-.34.23-.34.48 0 .26.02.52.37.52.29 0 .34-.23.33-.47M11.7 19.2c.06.62-.2.99-.84 1s-.87-.36-.88-.98.23-1 .86-1 .92.35.85.98m-.5-.03c.01-.25-.07-.46-.34-.47-.34 0-.36.27-.36.54 0 .24.05.46.34.46.34 0 .37-.26.36-.53m28.91.03q.12 1-.84 1c-.96 0-.85-.38-.86-1 0-.63.26-.98.88-.97a.76.76 0 0 1 .82.97m-.85.5q.39-.02.37-.42c-.02-.4.02-.53-.31-.57-.27-.03-.38.16-.39.42s-.01.5.33.58Zm-16.33-.65c-.3-.83.32-.83.93-.83.65 0 .79.43.77.97v.5c-.01.21.09.5-.28.49-.32-.01-.2-.27-.23-.45v-.33c-.03-.26.14-.65-.3-.66-.44 0-.35.39-.4.7-.03.25.24.74-.26.72-.45-.02-.14-.5-.22-.76zm-10.37-4.82c0-.79.62-1.21 1.27-.9a.7.7 0 0 1 .43.83c-.05.4-.4.15-.6.22-.17.06-.5-.08-.5.12-.02.32.3.23.51.2.17-.01.36-.07.4.16s-.18.26-.32.31c-.66.25-1.2-.19-1.19-.94m1.14-.3a.27.27 0 0 0-.34-.2c-.09.02-.22.15-.21.2.04.17.21.1.33.1.08 0 .24.04.22-.1m29.65 5.23a.75.75 0 0 1 .45-.85 1 1 0 0 1 .97.09.7.7 0 0 1 .28.74c-.05.37-.36.16-.54.22s-.56-.14-.57.14c-.02.3.3.23.52.17.18-.04.36-.04.4.17s-.18.26-.32.31c-.67.24-1.2-.18-1.19-.99m1.13-.31a.3.3 0 0 0-.37-.15c-.1.04-.23.12-.16.23.03.06.2.06.3.06s.25.04.23-.14m-24.75-.35c-.67.48-.44.98 0 1.48.02.02-.06.18-.1.2-.23.05-.52.04-.6-.18a3 3 0 0 1-.24-1.83c.05-.18-.1-.52.3-.5.3 0 .24.26.28.43.04.21.42.1.36.4m17.46-5.26c.3 0 .36.23.43.45.04.13.12.34.2.34.2.02.21-.2.26-.35.07-.26.18-.55.5-.4s.04.42-.04.57c-.24.45-.22 1.38-.7 1.29-.6-.12-.55-1.06-.83-1.62-.1-.18.04-.24.17-.28Zm-15.43.64c.35-.36.66-.84 1.3-.6.15.07.36.12.32.33a.26.26 0 0 1-.39.19c-.42-.2-.57 0-.58.4-.02.42.12.64.6.48a.25.25 0 0 1 .36.23c.02.19-.17.2-.29.26a.85.85 0 0 1-1.19-.67c-.03-.21.1-.46-.12-.63zm7.8 5.38c0-.83.54-1.27 1.2-.97.14.05.3.11.27.28a.25.25 0 0 1-.37.2c-.38-.15-.59-.05-.6.39s.12.66.6.5a.26.26 0 0 1 .37.2c.02.2-.18.26-.33.3-.65.22-1.13-.18-1.14-.9m12.42-5.88a.26.26 0 0 1-.16.32c-.41.26-.27.65-.11.95.1.18.51.28.15.53a.47.47 0 0 1-.65-.25c-.2-.5-.07-1.08-.34-1.57.33-.1.06-.72.49-.65.36.05.25.63.62.67m-11.33.52v1.02q.02.26-.23.29-.3.03-.31-.3V12.8q-.02-.24.23-.28.3-.03.31.29z"/><path fill="#12089f" d="M21.76 13.87c-.55-.27-.9-.2-.87.51v.5c0 .2-.06.34-.29.33-.18-.02-.22-.15-.22-.3a12 12 0 0 1 0-1.34c.07-.71.62-.13.95-.3.43-.21.28.38.4.61h.02Zm15.62 4.79c.17-.39-.23-1.16.25-1.14.6.02.15.77.27 1.18.1.31-.12.67.13.97.13.15.32.34.07.47a.44.44 0 0 1-.6-.3 7 7 0 0 1-.12-1.18m-25.35.54c0-.96.2-1.15 1.05-.97.13.03.3.05.3.23 0 .15-.13.3-.26.27-.63-.09-.57.33-.6.74-.01.24.2.68-.22.69-.51 0-.18-.47-.27-.72zm8.01-.06c-.22-.43.39-.91.01-1.43-.07-.1.1-.25.26-.24s.3.15.24.27c-.3.61.18 1.21 0 1.81-.06.21.19.59-.2.62-.5.04-.23-.4-.3-.62a2 2 0 0 1 0-.4Zm-13.78-.32v1.01c0 .19-.03.34-.26.36s-.28-.14-.28-.33v-2.03c0-.17.01-.35.25-.36.3 0 .29.21.29.41zm36.23.32c-.23-.43.37-.91 0-1.43-.05-.08.1-.27.27-.24.08.02.23.17.22.2-.25.65.16 1.29.02 1.93-.05.22.13.59-.3.56-.35-.02-.18-.34-.2-.54l-.01-.5Zm.33-4.84v.5c0 .2 0 .42-.3.4-.24-.01-.2-.23-.2-.38v-1.1c0-.18-.08-.44.23-.45.28 0 .27.22.27.42zm-.36-1.3q-.17-.04-.15-.27a.22.22 0 0 1 .28-.22c.14.02.25.11.23.27s-.13.23-.36.22"/></g></g></svg>