<svg xmlns="http://www.w3.org/2000/svg" xmlns:xlink="http://www.w3.org/1999/xlink" width="600" height="300" viewBox="0 0 600 300"><defs><clipPath id="clip-path"><path id="Rectangle_9" fill="none" d="M0 0h530v137H0z"/></clipPath><clipPath id="clip-path-2"><path id="Path_87" fill="none" d="M66.8 71.6a8 8 0 0 0-1.5 1.31A465 465 0 0 0 20 119.24a64 64 0 0 0 42.12 26.02l.36.06q1.3.19 2.62.32.7.08 1.39.13.98.09 1.96.15 1.53.1 3.1.1H72q1.86 0 3.69-.12l1.14-.09q1.2-.08 2.4-.21l1.6-.21c.54-.08 1.18-.17 1.76-.27s1.38-.23 2.05-.36l.8-.17a64 64 0 0 0 38.65-25.38A467 467 0 0 0 78.23 72.4h-.05a9.06 9.06 0 0 0-11.39-.8" transform="translate(-20 -69.952)"/></clipPath><clipPath id="clip-path-3"><path id="Path_88" fill="none" d="M69.8 5.01c-1.06 0-2.11 0-3.2.08h-.22A64.3 64.3 0 0 0 9 49.04a465 465 0 0 1 121.71 0A64.4 64.4 0 0 0 79.87 5.8l-.97-.15-1.84-.24-1.35-.13a34 34 0 0 0-1.69-.13l-1.28-.08c-.8 0-1.67-.05-2.52-.06Z" transform="translate(-9 -5.01)"/></clipPath><clipPath id="clip-path-4"><path id="Path_89" fill="none" d="M116.07 69a3.1 3.1 0 0 0-2.23 5.23l.21.2a470 470 0 0 1 34.43 35.4 65 65 0 0 0 6.16-27.63 66 66 0 0 0-.7-9.54A436 436 0 0 0 116.2 69Z" transform="translate(-113.004 -69)"/></clipPath><clipPath id="clip-path-5"><path id="Path_90" fill="none" d="M43.44 69A435 435 0 0 0 5.7 72.67 66 66 0 0 0 5 82.2v.14a65 65 0 0 0 6.17 27.5 470 470 0 0 1 34.46-35.42l.2-.2A3.1 3.1 0 0 0 43.58 69Z" transform="translate(-5 -69)"/></clipPath><clipPath id="clip-Custom_Size_1"><path d="M0 0h600v300H0z"/></clipPath></defs><g id="Custom_Size_1" clip-path="url(#clip-Custom_Size_1)"><path fill="#e8eff3" d="M0 0h600v300H0z"/><g id="Group_19" transform="translate(50 82.169)"><g id="Group_10" transform="translate(0 -.169)"><g id="Group_9" clip-path="url(#clip-path)"><path id="Path_85" d="M204.58 52.77a4 4 0 0 0-1.03.8 5 5 0 0 0-.75 1.1 9 9 0 0 0-.5 1.2h8.85v-3.4h-5.2a3 3 0 0 0-1.36.3Zm8.48 16.01V65.3h-12.24V44.44h11.6v-3.48h-16.36v27.82Zm21.74 0V54.7a8 8 0 0 0-.46-2.81 5 5 0 0 0-1.23-1.91 5 5 0 0 0-1.76-1.1 6 6 0 0 0-2.03-.35 10 10 0 0 0-2.61.38 15 15 0 0 0-3.36 1.5 17 17 0 0 0 1.03 1.34 1.7 1.7 0 0 0 1.3.61 3 3 0 0 0 1.23-.1 4 4 0 0 1 1.19-.17 1.7 1.7 0 0 1 1.54.68 3 3 0 0 1 .47 1.81v14.2Zm-17.17-14.97v14.97h4.71V53.21a8 8 0 0 0-.29-2.17 5.4 5.4 0 0 0-1.2-2.05h-3.83a21 21 0 0 1 .61 4.8Zm25.4 15.08a22 22 0 0 0 3.3.28 8 8 0 0 0 2.53-.39 7 7 0 0 0 2.15-1.2 6 6 0 0 0 1.49-1.86 5 5 0 0 0 .56-2.33 4.6 4.6 0 0 0-.7-2.58 7 7 0 0 0-1.72-1.8 13 13 0 0 0-2.22-1.28q-1.2-.54-2.22-1.06a8 8 0 0 1-1.72-1.13 2 2 0 0 1-.69-1.49 1.7 1.7 0 0 1 .7-1.47 3 3 0 0 1 1.9-.52 13 13 0 0 1 1.87.15 19 19 0 0 1 2.34.58l1.1-3.1a17 17 0 0 0-3.1-.8 18 18 0 0 0-2.56-.2 8 8 0 0 0-3.05.52 6 6 0 0 0-2.08 1.3 5 5 0 0 0-1.18 1.76 5 5 0 0 0-.39 1.9 4.6 4.6 0 0 0 .7 2.6 7 7 0 0 0 1.72 1.74 13 13 0 0 0 2.22 1.23q1.2.5 2.22 1.03a8 8 0 0 1 1.72 1.13 2 2 0 0 1 .69 1.53 2.2 2.2 0 0 1-.73 1.6 3.2 3.2 0 0 1-2.26.68 13 13 0 0 1-2.63-.28 16 16 0 0 1-3.1-1.02l-1.11 3.2a17 17 0 0 0 4.26 1.34ZM269.8 49l-3.9 4.63-.73.9a9 9 0 0 0-.65.95 8 8 0 0 0-1.22 3.04 8 8 0 0 0 .07 3.35l2.72-3.1.61 1.33 4.53 8.7h5.2l-7.56-12.9 6.41-6.9Zm-12.93 19.8h4.63V39.76h-4.63Zm23.5-23.53a2.7 2.7 0 0 0 2 .8 2.8 2.8 0 0 0 2.86-2.7v-.13a2.8 2.8 0 0 0-.8-2.05 2.8 2.8 0 0 0-2.05-.8 2.7 2.7 0 0 0-2 .8 2.8 2.8 0 0 0-.8 2.05 2.8 2.8 0 0 0 .8 2.01Zm4.35 3.73h-4.7v19.8h4.7Zm5.86 19.79h4.63V39.77h-4.63Zm9.42-5.85a10 10 0 0 0 1.68 3.3 8 8 0 0 0 2.72 2.2 8 8 0 0 0 3.67.8 7 7 0 0 0 2.47-.5 8 8 0 0 0 2.7-1.87l.53-.8.12.8a7 7 0 0 0 .63 1.12 3 3 0 0 0 .8.8h3.52a21 21 0 0 1-.48-3.37q-.1-1.65-.1-3.6V39.77h-4.62v23.22q-2.39 2.76-4.67 2.76a3.5 3.5 0 0 1-1.91-.54 4 4 0 0 1-1.42-1.49 8 8 0 0 1-.86-2.24 12 12 0 0 1-.3-2.73 8.5 8.5 0 0 1 1.22-4.88 4.1 4.1 0 0 1 3.42-1.82 2.7 2.7 0 0 0 1.86-.8 6 6 0 0 0 1.28-1.92 15 15 0 0 0-2.28-.56 13 13 0 0 0-1.86-.13 7 7 0 0 0-3.2.8 10 10 0 0 0-2.75 2.13 10 10 0 0 0-1.92 3.2 11 11 0 0 0-.7 3.96 14 14 0 0 0 .58 4.17Zm37.27-12.21a8.2 8.2 0 0 0-6.08-2.15 17 17 0 0 0-2.97.3 15 15 0 0 0-3.42 1.1l1.14 2.96a15 15 0 0 1 2.4-.69 11 11 0 0 1 2.05-.19 4.2 4.2 0 0 1 3.34 1.27 5 5 0 0 1 1.1 3.38v6.33a8 8 0 0 1-2.23 2.02 4.6 4.6 0 0 1-2.4.7 2.6 2.6 0 0 1-1.94-.75 2.5 2.5 0 0 1-.7-1.83 2.7 2.7 0 0 1 .72-1.8 4.3 4.3 0 0 1 2.54-1.1 2.6 2.6 0 0 0 1.9-1.23 6 6 0 0 0 .74-2.1 26 26 0 0 0-5 .86 12 12 0 0 0-3.25 1.43 5 5 0 0 0-1.76 1.93 5.5 5.5 0 0 0-.51 2.4 6 6 0 0 0 .41 2.18 5 5 0 0 0 1.23 1.8 6 6 0 0 0 1.94 1.23 7 7 0 0 0 2.55.46 10 10 0 0 0 1.4-.1 6 6 0 0 0 1.33-.36 7 7 0 0 0 1.38-.75 12 12 0 0 0 1.5-1.25l.43-.68a4 4 0 0 0 .46 1.53 2.7 2.7 0 0 0 1.02 1.15h3.45a17 17 0 0 1-.52-3.16q-.1-1.55-.1-3.42v-5.35a8.2 8.2 0 0 0-2.14-6.12Zm22.43-9.76h-4.8v27.82h4.8Zm3.73 11.8a4 4 0 0 0-1.03.8 6 6 0 0 0-.75 1.12 9 9 0 0 0-.5 1.22h11.33v12.88h4.71V40.95h-4.7v11.49h-7.7a3 3 0 0 0-1.37.33m29.88-8.01a2.26 2.26 0 0 0 3.2 0 2.27 2.27 0 0 0-1.6-3.87 2.2 2.2 0 0 0-1.6.66 2.25 2.25 0 0 0-.01 3.18zm-7.46 0a2.2 2.2 0 0 0 1.6.65 2.25 2.25 0 0 0 1.62-3.83l-.02-.02a2.2 2.2 0 0 0-1.6-.66 2.26 2.26 0 0 0-1.6 3.87Zm8.89 19.14a4.34 4.34 0 0 1-7.14 0 8.5 8.5 0 0 1-1.34-5.01 8.4 8.4 0 0 1 1.34-4.98 4.33 4.33 0 0 1 7.14 0 8.5 8.5 0 0 1 1.31 4.98 8.6 8.6 0 0 1-1.31 5.01m5.53-9.34a9.5 9.5 0 0 0-2.11-3.25 9 9 0 0 0-3.14-2.05 10 10 0 0 0-3.86-.71 10 10 0 0 0-3.83.75 9 9 0 0 0-3.14 2.08 10 10 0 0 0-2.1 3.28 11 11 0 0 0-.8 4.21 12 12 0 0 0 .8 4.37 10 10 0 0 0 2.08 3.25 9 9 0 0 0 3.12 2.05 11 11 0 0 0 3.87.7 10 10 0 0 0 3.83-.75 10 10 0 0 0 3.14-2.11 10 10 0 0 0 2.12-3.27 11 11 0 0 0 .8-4.25 12 12 0 0 0-.8-4.33Zm4.17 8.56a10 10 0 0 0 1.6 3.13 8 8 0 0 0 2.51 2.15 6 6 0 0 0 3.25.7 8 8 0 0 0 2.05-.4 10 10 0 0 0 2.08-.98 8 8 0 0 0-1.36-1.6 2.2 2.2 0 0 0-1.73-.55 3 3 0 0 1-1.88-.44 4 4 0 0 1-1.25-1.4 7 7 0 0 1-.69-2.01 13 13 0 0 1-.2-2.31 8.7 8.7 0 0 1 1.48-5.34 5 5 0 0 1 4.22-1.97 11 11 0 0 1 1.28.08 12 12 0 0 1 1.51.26v16.81a7 7 0 0 1-.44 2.53 5 5 0 0 1-1.19 1.77 5 5 0 0 1-1.76 1.08 6 6 0 0 1-2.12.36 12 12 0 0 1-2.6-.3 18 18 0 0 1-3.2-1.11l-1.18 3.2a15 15 0 0 0 3.96 1.3 21 21 0 0 0 3.35.3 13 13 0 0 0 3.88-.57 8 8 0 0 0 5.13-4.74 11 11 0 0 0 .75-4.25V49.76q-1.26-.34-2.28-.57a21 21 0 0 0-3.62-.56q-.8-.06-1.6-.06a11 11 0 0 0-4.36.8 9.6 9.6 0 0 0-5.44 5.69 13 13 0 0 0-.72 4.28 12 12 0 0 0 .57 3.73Zm25.47 5.8a22 22 0 0 0 3.31.27 8 8 0 0 0 2.5-.43 7 7 0 0 0 2.16-1.2 6 6 0 0 0 1.48-1.85 5 5 0 0 0 .56-2.34 4.6 4.6 0 0 0-.7-2.58 7 7 0 0 0-1.71-1.8 12 12 0 0 0-2.22-1.28q-1.2-.55-2.22-1.06a8 8 0 0 1-1.72-1.13 1.9 1.9 0 0 1-.7-1.49 1.7 1.7 0 0 1 .7-1.47 3 3 0 0 1 1.9-.52 13 13 0 0 1 1.88.15 18 18 0 0 1 2.33.58l1.11-3.1a17 17 0 0 0-3.1-.8 18 18 0 0 0-2.56-.2 8 8 0 0 0-3.06.52 6 6 0 0 0-2.07 1.3 5 5 0 0 0-1.19 1.77 5 5 0 0 0-.38 1.89 4.6 4.6 0 0 0 .69 2.6 6 6 0 0 0 1.72 1.74 14 14 0 0 0 2.22 1.23q1.2.51 2.23 1.03a8 8 0 0 1 1.72 1.13 2 2 0 0 1 .69 1.53 2.2 2.2 0 0 1-.73 1.6 3.2 3.2 0 0 1-2.26.69 13 13 0 0 1-2.64-.3 16 16 0 0 1-3.1-1l-1.12 3.2a17 17 0 0 0 4.27 1.33Zm26.78-19.9-3.91 4.62q-.39.46-.72.9a10 10 0 0 0-.66.95 8 8 0 0 0-1.23 3.04 8 8 0 0 0 .08 3.35l2.72-3.1.61 1.34 4.52 8.67h5.2l-7.58-12.9 6.4-6.89Zm-12.94 19.77h4.63V39.77h-4.63Zm28.02-14.9a4.3 4.3 0 0 1 7.12 0 8.4 8.4 0 0 1 1.35 4.98 11 11 0 0 1-.32 2.68 7 7 0 0 1-.91 2.2 4.4 4.4 0 0 1-1.54 1.47 4 4 0 0 1-2.13.53 4 4 0 0 1-2.07-.5 4.4 4.4 0 0 1-1.56-1.41 7 7 0 0 1-.96-2.18 11 11 0 0 1-.32-2.8 8.4 8.4 0 0 1 1.34-4.96Zm-5.5 9.4a10 10 0 0 0 2.15 3.25 9 9 0 0 0 3.14 2.01 10 10 0 0 0 3.77.7 10 10 0 0 0 3.66-.7 9 9 0 0 0 3.2-2.02 10 10 0 0 0 2.21-3.25 11 11 0 0 0 .8-4.4 12 12 0 0 0-.69-4.12 9 9 0 0 0-1.99-3.27 10 10 0 0 0-3.11-2.17 10.4 10.4 0 0 0-7.5-.16 10 10 0 0 0-3.2 1.87 10 10 0 0 0-2.36 3.2 11 11 0 0 0-.92 4.63 11 11 0 0 0 .8 4.42Zm23.53-23.52v29.01h4.63V39.77Zm23.31 10.95a8.2 8.2 0 0 0-6.09-2.15 17 17 0 0 0-2.96.3 15 15 0 0 0-3.43 1.1l1.16 2.96a15 15 0 0 1 2.4-.69 11 11 0 0 1 2.05-.19 4.2 4.2 0 0 1 3.34 1.27 5 5 0 0 1 1.1 3.38v6.33a8 8 0 0 1-2.22 2.02 4.6 4.6 0 0 1-2.4.7 2.6 2.6 0 0 1-1.93-.75 2.5 2.5 0 0 1-.76-1.81 2.7 2.7 0 0 1 .72-1.8 4.3 4.3 0 0 1 2.54-1.11 2.6 2.6 0 0 0 1.9-1.22 5 5 0 0 0 .74-2.11 26 26 0 0 0-4.97.86 12 12 0 0 0-3.25 1.44 5 5 0 0 0-1.76 1.93 5.4 5.4 0 0 0-.52 2.4 6 6 0 0 0 .43 2.18 5 5 0 0 0 1.22 1.8 6 6 0 0 0 1.9 1.21 7 7 0 0 0 2.55.46 10 10 0 0 0 1.4-.1 6 6 0 0 0 1.34-.36 7 7 0 0 0 1.38-.75 11 11 0 0 0 1.5-1.25l.43-.68a4 4 0 0 0 .45 1.53 2.7 2.7 0 0 0 1.04 1.15h3.45a17 17 0 0 1-.53-3.16q-.1-1.55-.1-3.42v-5.35a8.2 8.2 0 0 0-2.14-6.12Zm24.17 18.06V54.7a8 8 0 0 0-.45-2.81 5 5 0 0 0-1.23-1.91 5 5 0 0 0-1.76-1.1 6 6 0 0 0-2.03-.35 10 10 0 0 0-2.62.38 15 15 0 0 0-3.35 1.5 17 17 0 0 0 1.04 1.34 1.7 1.7 0 0 0 1.3.61 3 3 0 0 0 1.23-.1 4 4 0 0 1 1.18-.17 1.7 1.7 0 0 1 1.53.7 3.3 3.3 0 0 1 .46 1.82v14.17Zm-17.14-14.97v14.97h4.71V53.21a8 8 0 0 0-.29-2.17 5 5 0 0 0-1.2-2.05h-3.84a21 21 0 0 1 .62 4.8Z" transform="translate(-39.068 -7.745)"/><path id="Path_86" d="M207.03 97.13a22 22 0 0 1 3.1.7l1.27-3.14q-1.11-.35-2.07-.6c-.96-.24-1.25-.3-1.83-.38s-1.16-.16-1.71-.2-1.1-.05-1.67-.05a10 10 0 0 0-3.2.48 8 8 0 0 0-2.59 1.42 6 6 0 0 0-1.75 2.24 7 7 0 0 0-.63 3.07 6.3 6.3 0 0 0 .96 3.56 10 10 0 0 0 2.4 2.55 19 19 0 0 0 3.13 1.92 33 33 0 0 1 3.12 1.69 10 10 0 0 1 2.4 1.9 3.6 3.6 0 0 1 .96 2.53 3.4 3.4 0 0 1-.37 1.6 4 4 0 0 1-1.03 1.28 5 5 0 0 1-1.6.86 7 7 0 0 1-2.1.3 16 16 0 0 1-3.2-.36 17 17 0 0 1-3.72-1.25l-1.27 3.13a20 20 0 0 0 8.39 1.97 13 13 0 0 0 3.94-.56 9 9 0 0 0 2.94-1.61 7 7 0 0 0 1.9-2.4 7 7 0 0 0 .67-3.08 7 7 0 0 0-.95-3.72 10 10 0 0 0-2.4-2.68 21 21 0 0 0-3.14-2q-1.69-.89-3.14-1.74a12 12 0 0 1-2.4-1.85 3.3 3.3 0 0 1-.96-2.4 3.2 3.2 0 0 1 1.05-2.4 4.2 4.2 0 0 1 2.97-.98 19 19 0 0 1 2.56.2Zm23.43 4.86h-5.52a8 8 0 0 0 .5 1.2 5 5 0 0 0 .73 1.08 3 3 0 0 0 1.02.8 3 3 0 0 0 1.36.3h1.92zm-9.44 18.19a6.7 6.7 0 0 0 5.3 2.04 8 8 0 0 0 1.94-.23q.98-.23 2.4-.73l-1-3.1a17 17 0 0 1-1.7.45 7 7 0 0 1-1.32.13 2.5 2.5 0 0 1-2.2-1.19 5.4 5.4 0 0 1-.8-3.13v-18.7l-4.44 1.45v4.8l-3.3.8v2.52h3.3v8.96a8.6 8.6 0 0 0 1.82 5.87Zm18.95-13.29a4.3 4.3 0 0 1 7.11 0 8.4 8.4 0 0 1 1.34 4.98 11 11 0 0 1-.3 2.68 7 7 0 0 1-.92 2.2 4.4 4.4 0 0 1-1.53 1.47 4 4 0 0 1-2.14.53 4 4 0 0 1-2.07-.5 4.4 4.4 0 0 1-1.55-1.41 7 7 0 0 1-.96-2.18 11 11 0 0 1-.32-2.8 8.4 8.4 0 0 1 1.34-4.97m-5.51 9.4a10 10 0 0 0 2.16 3.25 9 9 0 0 0 3.14 2 10 10 0 0 0 3.77.7 10 10 0 0 0 3.65-.7 9 9 0 0 0 3.15-2.02 10 10 0 0 0 2.23-3.25 11 11 0 0 0 .84-4.4 12 12 0 0 0-.69-4.11 9.2 9.2 0 0 0-5.1-5.44 10.4 10.4 0 0 0-7.5-.17 10 10 0 0 0-3.2 1.87 10 10 0 0 0-2.36 3.2 11 11 0 0 0-.92 4.63 11 11 0 0 0 .8 4.42Zm33.96 5.6a14 14 0 0 0 2.85-1.03l-1.2-3.08a11 11 0 0 1-4 .99 4.3 4.3 0 0 1-3.52-1.76 8 8 0 0 1-1.38-5.13 8 8 0 0 1 1.4-5.09 4.3 4.3 0 0 1 3.5-1.76 13 13 0 0 1 1.6.12 14 14 0 0 1 1.9.37l1.1-3.13a13 13 0 0 0-2.4-.63 13 13 0 0 0-2.25-.22 11 11 0 0 0-3.73.66 9 9 0 0 0-3.14 1.95 10 10 0 0 0-2.19 3.2 12 12 0 0 0-.8 4.5 12 12 0 0 0 .8 4.6 9 9 0 0 0 2.17 3.2 9 9 0 0 0 3.15 1.91 11 11 0 0 0 3.76.63 10 10 0 0 0 2.3-.3Zm18.85-19.93-3.9 4.62-.73.9a10 10 0 0 0-.65.95 8 8 0 0 0-1.23 3.04 8 8 0 0 0 .08 3.35l2.71-3.1.62 1.34 4.5 8.72h5.2l-7.58-12.9 6.4-6.88Zm-12.95 19.82h4.63V92.77h-4.63Zm40.34 0V107.7a8 8 0 0 0-.46-2.81 5 5 0 0 0-1.2-1.91 5 5 0 0 0-1.7-1.1 6 6 0 0 0-2-.35 10 10 0 0 0-2.4.37 15 15 0 0 0-3.3 1.47 9 9 0 0 0 1.06 1.4 1.7 1.7 0 0 0 1.28.59 2 2 0 0 0 1.1-.1 3 3 0 0 1 1.04-.17 1.5 1.5 0 0 1 1.44.7 3.4 3.4 0 0 1 .44 1.82v14.16Zm-12.44-29.01h-4.6v29.01h4.63V92.77Zm23 14.13a4.3 4.3 0 0 1 7.13 0 8.4 8.4 0 0 1 1.33 4.97 12 12 0 0 1-.3 2.68 7 7 0 0 1-.92 2.2 4.5 4.5 0 0 1-1.53 1.47 4 4 0 0 1-2.14.53 4 4 0 0 1-2.07-.5 4.4 4.4 0 0 1-1.55-1.41 7 7 0 0 1-.95-2.18 11 11 0 0 1-.33-2.8 8.4 8.4 0 0 1 1.34-4.97m-5.5 9.39a10 10 0 0 0 2.15 3.25 9 9 0 0 0 3.14 2 10 10 0 0 0 3.77.7 10 10 0 0 0 3.66-.7 9 9 0 0 0 3.16-2.02 10 10 0 0 0 2.22-3.25 11 11 0 0 0 .84-4.4 12 12 0 0 0-.7-4.11 9 9 0 0 0-1.98-3.28 10 10 0 0 0-3.12-2.16 10.4 10.4 0 0 0-7.5-.17 9.5 9.5 0 0 0-5.53 5.1 11 11 0 0 0-.92 4.62 11 11 0 0 0 .8 4.42m23.54 5.5h4.63V92.76h-4.63Zm39.57 0V107.7a8 8 0 0 0-.46-2.81 5 5 0 0 0-1.26-1.91 5 5 0 0 0-1.82-1.1 6 6 0 0 0-2.04-.35 10 10 0 0 0-2.67.4 21 21 0 0 0-3.52 1.4 6 6 0 0 0 1.09 1.42 2 2 0 0 0 1.4.6 3 3 0 0 0 1.24-.1 5 5 0 0 1 1.2-.16 1.8 1.8 0 0 1 1.6.7 3 3 0 0 1 .5 1.82v14.16Zm-12.25 0V107.7a8 8 0 0 0-.44-2.81 5 5 0 0 0-1.17-1.91 4.4 4.4 0 0 0-1.68-1.1 6 6 0 0 0-2-.35 10 10 0 0 0-2.6.39 22 22 0 0 0-3.44 1.37 9 9 0 0 0 1.08 1.42 1.8 1.8 0 0 0 1.33.62 3 3 0 0 0 1.17-.08 4 4 0 0 1 1.17-.16 1.5 1.5 0 0 1 1.45.7 3.5 3.5 0 0 1 .43 1.82v14.17Zm-17.08-17.25a21 21 0 0 1 .12 2.27v14.97h4.71V106.2a8 8 0 0 0-.29-2.17 5 5 0 0 0-1.2-2.05h-3.78a25 25 0 0 1 .44 2.55" transform="translate(-38.982 -18.306)"/></g></g><g id="Group_12" transform="translate(16.015 56.023)"><g id="Group_11" clip-path="url(#clip-path-2)"><path id="Rectangle_10" fill="#be996f" d="M0 0h111v85H0z" transform="translate(-3.015 -4.193)"/></g></g><g id="Group_14" transform="translate(7.207 4.022)"><g id="Group_13" clip-path="url(#clip-path-3)"><path id="Rectangle_11" fill="#be996f" d="M0 0h131v52H0z" transform="translate(-4.207 -4.191)"/></g></g><g id="Group_16" transform="translate(90.486 55.261)"><g id="Group_15" clip-path="url(#clip-path-4)"><path id="Rectangle_12" fill="#be996f" d="M0 0h50v49H0z" transform="translate(-3.486 -4.43)"/></g></g><g id="Group_18" transform="translate(4.004 55.261)"><g id="Group_17" clip-path="url(#clip-path-5)"><path id="Rectangle_13" fill="#be996f" d="M0 0h50v49H0z" transform="translate(-4.004 -4.43)"/></g></g></g></g></svg>