<svg xmlns="http://www.w3.org/2000/svg" xmlns:xlink="http://www.w3.org/1999/xlink" width="600" height="300" viewBox="0 0 600 300">
  <defs>
    <clipPath id="clip-path">
      <rect id="Rectangle_9" data-name="Rectangle 9" width="530" height="137" transform="translate(0 0)" fill="none"/>
    </clipPath>
    <clipPath id="clip-path-2">
      <path id="Path_87" data-name="Path 87" d="M66.795,71.592a8.4,8.4,0,0,0-1.5,1.321A465.4,465.4,0,0,0,20,119.236,63.987,63.987,0,0,0,62.119,145.26l.36.056c.865.128,1.738.24,2.618.328.464.048.929.1,1.393.128.657.056,1.305.112,1.962.152,1.025.056,2.05.088,3.091.088h.472c1.233,0,2.466-.04,3.683-.112l1.145-.088q1.2-.084,2.4-.216c.528-.064,1.057-.128,1.6-.208s1.177-.168,1.762-.264,1.377-.232,2.05-.368c.264-.048.52-.112.8-.168A64.058,64.058,0,0,0,124.1,119.212,467.06,467.06,0,0,0,78.229,72.393h-.048a9.062,9.062,0,0,0-11.386-.8" transform="translate(-20 -69.952)" fill="none"/>
    </clipPath>
    <clipPath id="clip-path-3">
      <path id="Path_88" data-name="Path 88" d="M69.808,5.01c-1.065,0-2.122,0-3.2.08h-.232A64.3,64.3,0,0,0,9,49.042a464.5,464.5,0,0,1,121.712,0A64.4,64.4,0,0,0,79.873,5.8L78.9,5.651c-.625-.088-1.249-.168-1.842-.24l-1.345-.128c-.561-.056-1.129-.1-1.69-.128l-1.281-.08c-.8,0-1.674-.056-2.522-.064Z" transform="translate(-9 -5.01)" fill="none"/>
    </clipPath>
    <clipPath id="clip-path-4">
      <path id="Path_89" data-name="Path 89" d="M116.068,69a3.107,3.107,0,0,0-2.226,5.229l.208.192a469.688,469.688,0,0,1,34.432,35.416A64.666,64.666,0,0,0,154.639,82.2a65.541,65.541,0,0,0-.7-9.537C141.507,70.946,128.927,69.641,116.2,69Z" transform="translate(-113.004 -69)" fill="none"/>
    </clipPath>
    <clipPath id="clip-path-5">
      <path id="Path_90" data-name="Path 90" d="M43.435,69c-12.724.641-25.3,1.946-37.731,3.667A65.542,65.542,0,0,0,5,82.2v.135a64.694,64.694,0,0,0,6.166,27.5A469.5,469.5,0,0,1,45.629,74.421l.208-.192A3.107,3.107,0,0,0,43.571,69Z" transform="translate(-5 -69)" fill="none"/>
    </clipPath>
    <clipPath id="clip-Custom_Size_1">
      <rect width="600" height="300"/>
    </clipPath>
  </defs>
  <g id="Custom_Size_1" data-name="Custom Size – 1" clip-path="url(#clip-Custom_Size_1)">
    <rect width="600" height="300" fill="#e8eff3"/>
    <g id="Group_19" data-name="Group 19" transform="translate(50 82.169)">
      <g id="Group_10" data-name="Group 10" transform="translate(0 -0.169)">
        <g id="Group_9" data-name="Group 9" clip-path="url(#clip-path)">
          <path id="Path_85" data-name="Path 85" d="M204.58,52.766a3.52,3.52,0,0,0-1.033.8,5,5,0,0,0-.745,1.113,8.615,8.615,0,0,0-.5,1.185h8.848V52.478h-5.2a2.867,2.867,0,0,0-1.361.3Zm8.48,16.015V65.3H200.816V44.438h11.595V40.955H196.06V68.781Zm21.74,0V54.7a7.524,7.524,0,0,0-.464-2.811,5.256,5.256,0,0,0-1.225-1.914,4.606,4.606,0,0,0-1.762-1.1,6.256,6.256,0,0,0-2.026-.344,9.852,9.852,0,0,0-2.618.384,15.054,15.054,0,0,0-3.355,1.5,16.848,16.848,0,0,0,1.033,1.337,1.675,1.675,0,0,0,1.305.609,2.843,2.843,0,0,0,1.225-.1,4.21,4.21,0,0,1,1.185-.168,1.682,1.682,0,0,1,1.545.673,3.2,3.2,0,0,1,.464,1.818v14.2ZM217.632,53.815V68.781h4.708V53.206a7.913,7.913,0,0,0-.288-2.17,5.378,5.378,0,0,0-1.2-2.042h-3.828a21.076,21.076,0,0,1,.609,4.8Zm25.4,15.078a22.1,22.1,0,0,0,3.307.272,7.557,7.557,0,0,0,2.522-.384,6.8,6.8,0,0,0,2.146-1.2,6.059,6.059,0,0,0,1.489-1.858,4.94,4.94,0,0,0,.56-2.338,4.622,4.622,0,0,0-.689-2.578,6.813,6.813,0,0,0-1.722-1.8,12.727,12.727,0,0,0-2.226-1.281c-.8-.36-1.529-.713-2.218-1.057a7.792,7.792,0,0,1-1.722-1.129,1.931,1.931,0,0,1-.689-1.489,1.707,1.707,0,0,1,.7-1.473,3.151,3.151,0,0,1,1.9-.52,12.655,12.655,0,0,1,1.874.152,18.487,18.487,0,0,1,2.338.577l1.105-3.1a16.751,16.751,0,0,0-3.1-.8,18.058,18.058,0,0,0-2.562-.192,8.053,8.053,0,0,0-3.059.512,6.248,6.248,0,0,0-2.074,1.305,4.936,4.936,0,0,0-1.185,1.762,5.151,5.151,0,0,0-.384,1.89,4.615,4.615,0,0,0,.689,2.6,6.51,6.51,0,0,0,1.73,1.746,13.184,13.184,0,0,0,2.218,1.225c.8.344,1.529.689,2.218,1.033a7.792,7.792,0,0,1,1.722,1.129,1.945,1.945,0,0,1,.689,1.529,2.155,2.155,0,0,1-.729,1.6,3.2,3.2,0,0,1-2.258.689,13.185,13.185,0,0,1-2.634-.288,15.866,15.866,0,0,1-3.107-1.017l-1.105,3.2a17.125,17.125,0,0,0,4.268,1.337Zm26.769-19.9-3.9,4.628c-.256.3-.5.609-.729.9a8.932,8.932,0,0,0-.649.945,7.869,7.869,0,0,0-1.225,3.043,8.144,8.144,0,0,0,.072,3.347l2.723-3.1.609,1.337,4.532,8.688h5.2l-7.559-12.9,6.406-6.886ZM256.868,68.781H261.5V39.77h-4.628Zm23.5-23.518a2.715,2.715,0,0,0,2,.8,2.778,2.778,0,0,0,2.858-2.7c0-.043,0-.086,0-.13a2.829,2.829,0,0,0-.8-2.05,2.78,2.78,0,0,0-2.05-.8,2.723,2.723,0,0,0-2,.8,2.829,2.829,0,0,0-.8,2.05,2.768,2.768,0,0,0,.8,2.01Zm4.356,3.731h-4.708V68.781h4.708Zm5.861,19.786h4.628V39.77h-4.628ZM300,62.927a9.547,9.547,0,0,0,1.682,3.307,8.01,8.01,0,0,0,2.714,2.2,8.116,8.116,0,0,0,3.675.8,6.74,6.74,0,0,0,2.466-.512,8.206,8.206,0,0,0,2.7-1.858l.536-.8.12.8a7.4,7.4,0,0,0,.625,1.113,2.67,2.67,0,0,0,.8.8h3.523a21.09,21.09,0,0,1-.48-3.371c-.064-1.1-.1-2.29-.1-3.6V39.77H313.64V62.991c-1.6,1.842-3.139,2.755-4.668,2.755a3.448,3.448,0,0,1-1.914-.536,4.3,4.3,0,0,1-1.417-1.489,7.523,7.523,0,0,1-.865-2.242,12.377,12.377,0,0,1-.288-2.73,8.457,8.457,0,0,1,1.209-4.884,4.116,4.116,0,0,1,3.427-1.818,2.731,2.731,0,0,0,1.858-.8,6.41,6.41,0,0,0,1.281-1.914,14.9,14.9,0,0,0-2.282-.561,13.229,13.229,0,0,0-1.858-.136,7.141,7.141,0,0,0-3.2.8,9.5,9.5,0,0,0-2.755,2.13,10.072,10.072,0,0,0-1.914,3.2,11.018,11.018,0,0,0-.7,3.964,14.416,14.416,0,0,0,.577,4.172Zm37.274-12.211a8.212,8.212,0,0,0-6.086-2.146,16.886,16.886,0,0,0-2.963.3,14.762,14.762,0,0,0-3.427,1.1l1.145,2.963a14.8,14.8,0,0,1,2.4-.689,11.427,11.427,0,0,1,2.05-.192,4.187,4.187,0,0,1,3.339,1.265,4.993,4.993,0,0,1,1.089,3.379v6.334a8.229,8.229,0,0,1-2.218,2.018,4.582,4.582,0,0,1-2.4.7,2.635,2.635,0,0,1-1.938-.745,2.474,2.474,0,0,1-.7-1.834,2.668,2.668,0,0,1,.713-1.8,4.288,4.288,0,0,1,2.538-1.105,2.587,2.587,0,0,0,1.9-1.225,5.539,5.539,0,0,0,.745-2.106,25.8,25.8,0,0,0-5,.865,11.768,11.768,0,0,0-3.251,1.433,4.931,4.931,0,0,0-1.762,1.93,5.541,5.541,0,0,0-.512,2.4,5.7,5.7,0,0,0,.416,2.178,5.143,5.143,0,0,0,1.225,1.8,6.056,6.056,0,0,0,1.946,1.233,6.749,6.749,0,0,0,2.546.456,9.888,9.888,0,0,0,1.393-.1,5.815,5.815,0,0,0,1.337-.36,7.083,7.083,0,0,0,1.377-.745,11.9,11.9,0,0,0,1.513-1.249l.424-.689a4.332,4.332,0,0,0,.456,1.537,2.72,2.72,0,0,0,1.025,1.145h3.443a16.507,16.507,0,0,1-.513-3.155c-.064-1.033-.1-2.178-.1-3.427V56.842a8.238,8.238,0,0,0-2.146-6.126ZM359.7,40.955h-4.8V68.781h4.8Zm3.731,11.811a3.925,3.925,0,0,0-1.033.8,5.614,5.614,0,0,0-.745,1.113,8.77,8.77,0,0,0-.5,1.225h11.33V68.781h4.708V40.955h-4.708V52.438h-7.7a2.81,2.81,0,0,0-1.361.328m29.883-8.007a2.258,2.258,0,0,0,3.193.01l.01-.01a2.266,2.266,0,0,0-1.6-3.868,2.169,2.169,0,0,0-1.6.657,2.25,2.25,0,0,0-.021,3.182l.021.021Zm-7.463,0a2.186,2.186,0,0,0,1.6.649,2.25,2.25,0,0,0,1.622-3.831l-.021-.021a2.225,2.225,0,0,0-1.6-.657,2.258,2.258,0,0,0-1.6,3.868ZM394.73,63.9a4.34,4.34,0,0,1-7.143,0,8.49,8.49,0,0,1-1.337-5.013,8.4,8.4,0,0,1,1.337-4.973,4.332,4.332,0,0,1,7.143,0,8.46,8.46,0,0,1,1.313,4.973A8.545,8.545,0,0,1,394.73,63.9m5.525-9.337a9.5,9.5,0,0,0-2.106-3.251,9.006,9.006,0,0,0-3.139-2.05,10.4,10.4,0,0,0-3.859-.713,9.752,9.752,0,0,0-3.828.753,9.366,9.366,0,0,0-3.139,2.082,9.714,9.714,0,0,0-2.106,3.275,11.208,11.208,0,0,0-.8,4.212,11.622,11.622,0,0,0,.8,4.364,9.618,9.618,0,0,0,2.082,3.251,8.862,8.862,0,0,0,3.123,2.05,10.469,10.469,0,0,0,3.868.7,9.912,9.912,0,0,0,3.827-.745,9.531,9.531,0,0,0,3.139-2.114,10.015,10.015,0,0,0,2.122-3.267,11.2,11.2,0,0,0,.8-4.252,11.493,11.493,0,0,0-.8-4.324Zm4.172,8.552a10.306,10.306,0,0,0,1.6,3.139,7.862,7.862,0,0,0,2.514,2.146,6.132,6.132,0,0,0,3.251.7,7.528,7.528,0,0,0,2.05-.4,10.058,10.058,0,0,0,2.082-.977,8.111,8.111,0,0,0-1.361-1.6,2.218,2.218,0,0,0-1.738-.553,2.894,2.894,0,0,1-1.874-.44,3.859,3.859,0,0,1-1.249-1.4,6.832,6.832,0,0,1-.689-2.01,12.966,12.966,0,0,1-.208-2.314,8.666,8.666,0,0,1,1.489-5.341,4.989,4.989,0,0,1,4.212-1.97,10.874,10.874,0,0,1,1.281.08,11.522,11.522,0,0,1,1.513.264V69.253a6.542,6.542,0,0,1-.44,2.522,5.123,5.123,0,0,1-1.185,1.778,4.951,4.951,0,0,1-1.762,1.073,6.284,6.284,0,0,1-2.122.368,11.717,11.717,0,0,1-2.6-.312,17.551,17.551,0,0,1-3.2-1.105l-1.185,3.2a15.174,15.174,0,0,0,3.964,1.305,21.223,21.223,0,0,0,3.347.3A12.549,12.549,0,0,0,416,77.813a8.05,8.05,0,0,0,5.133-4.74,11.085,11.085,0,0,0,.745-4.252V49.755c-.841-.224-1.6-.416-2.274-.569s-1.321-.28-1.914-.368-1.169-.152-1.706-.192-1.073-.056-1.6-.056a11.061,11.061,0,0,0-4.364.8,9.563,9.563,0,0,0-5.437,5.685,12.471,12.471,0,0,0-.721,4.284,12.016,12.016,0,0,0,.568,3.731Zm25.471,5.8a22.314,22.314,0,0,0,3.315.272,7.587,7.587,0,0,0,2.506-.424,6.963,6.963,0,0,0,2.146-1.2,6.058,6.058,0,0,0,1.489-1.858,5.037,5.037,0,0,0,.552-2.338,4.555,4.555,0,0,0-.689-2.578,6.705,6.705,0,0,0-1.722-1.8,12.374,12.374,0,0,0-2.218-1.281c-.8-.36-1.529-.713-2.218-1.057a7.792,7.792,0,0,1-1.722-1.129,1.9,1.9,0,0,1-.689-1.489,1.707,1.707,0,0,1,.7-1.473,3.152,3.152,0,0,1,1.9-.52,12.653,12.653,0,0,1,1.874.152,18.336,18.336,0,0,1,2.33.577l1.113-3.1a17.027,17.027,0,0,0-3.1-.8,18.177,18.177,0,0,0-2.562-.192,8.11,8.11,0,0,0-3.067.512,6.308,6.308,0,0,0-2.066,1.305,4.935,4.935,0,0,0-1.185,1.762,5.151,5.151,0,0,0-.384,1.89,4.615,4.615,0,0,0,.689,2.6,6.413,6.413,0,0,0,1.722,1.746,13.48,13.48,0,0,0,2.218,1.225c.8.344,1.537.689,2.226,1.033a8.015,8.015,0,0,1,1.722,1.129,1.977,1.977,0,0,1,.689,1.529,2.187,2.187,0,0,1-.729,1.6,3.2,3.2,0,0,1-2.258.689,13.324,13.324,0,0,1-2.642-.288,15.62,15.62,0,0,1-3.1-1.017l-1.113,3.2a17.237,17.237,0,0,0,4.268,1.337Zm26.777-19.9-3.908,4.628c-.256.3-.5.609-.721.9a10.36,10.36,0,0,0-.657.945,8.115,8.115,0,0,0-1.225,3.043,8.271,8.271,0,0,0,.08,3.347l2.714-3.1.617,1.337,4.516,8.672h5.2l-7.583-12.9,6.406-6.886Zm-12.94,19.77h4.636V39.77h-4.636Zm28.026-14.886a4.308,4.308,0,0,1,7.119,0,8.356,8.356,0,0,1,1.345,4.973,11.25,11.25,0,0,1-.312,2.682A6.871,6.871,0,0,1,479,63.744a4.432,4.432,0,0,1-1.537,1.473,4.114,4.114,0,0,1-2.138.536,4.194,4.194,0,0,1-2.066-.5A4.37,4.37,0,0,1,471.7,63.84a6.861,6.861,0,0,1-.961-2.178,11.255,11.255,0,0,1-.32-2.795A8.4,8.4,0,0,1,471.761,53.895Zm-5.509,9.393a9.612,9.612,0,0,0,2.162,3.251,9.2,9.2,0,0,0,3.139,2.01,10.242,10.242,0,0,0,3.771.689,9.909,9.909,0,0,0,3.651-.689,9.253,9.253,0,0,0,3.2-2.026,10.358,10.358,0,0,0,2.218-3.251,10.885,10.885,0,0,0,.8-4.4,12.027,12.027,0,0,0-.689-4.116,9.269,9.269,0,0,0-1.994-3.275,9.455,9.455,0,0,0-3.115-2.162,10.41,10.41,0,0,0-7.5-.168,9.664,9.664,0,0,0-3.2,1.874,9.811,9.811,0,0,0-2.354,3.2,10.815,10.815,0,0,0-.921,4.628,11.42,11.42,0,0,0,.8,4.42ZM489.786,39.77V68.781h4.636V39.77ZM513.1,50.716a8.171,8.171,0,0,0-6.086-2.146,16.963,16.963,0,0,0-2.963.3,14.764,14.764,0,0,0-3.427,1.1l1.153,2.963a14.719,14.719,0,0,1,2.4-.689,11.428,11.428,0,0,1,2.05-.192,4.18,4.18,0,0,1,3.347,1.265,5.005,5.005,0,0,1,1.1,3.379v6.334a8.26,8.26,0,0,1-2.226,2.018,4.582,4.582,0,0,1-2.4.7,2.61,2.61,0,0,1-1.93-.745,2.447,2.447,0,0,1-.753-1.818,2.667,2.667,0,0,1,.713-1.8,4.289,4.289,0,0,1,2.546-1.105,2.587,2.587,0,0,0,1.89-1.225,5.4,5.4,0,0,0,.745-2.106,25.59,25.59,0,0,0-4.965.865,11.712,11.712,0,0,0-3.259,1.433,4.905,4.905,0,0,0-1.754,1.93,5.424,5.424,0,0,0-.52,2.4,5.554,5.554,0,0,0,.424,2.178,5.143,5.143,0,0,0,1.225,1.8,5.929,5.929,0,0,0,1.906,1.217,6.749,6.749,0,0,0,2.546.456,9.888,9.888,0,0,0,1.393-.1,5.975,5.975,0,0,0,1.345-.36,7.333,7.333,0,0,0,1.377-.745,11.41,11.41,0,0,0,1.505-1.249l.424-.689a4.331,4.331,0,0,0,.456,1.537,2.719,2.719,0,0,0,1.033,1.145h3.451a16.5,16.5,0,0,1-.521-3.155c-.064-1.033-.1-2.178-.1-3.427V56.842a8.238,8.238,0,0,0-2.146-6.126Zm24.174,18.065V54.7a7.707,7.707,0,0,0-.456-2.811,5.255,5.255,0,0,0-1.225-1.914,4.667,4.667,0,0,0-1.762-1.1,6.3,6.3,0,0,0-2.026-.344,9.981,9.981,0,0,0-2.626.384,15.211,15.211,0,0,0-3.347,1.5,16.84,16.84,0,0,0,1.033,1.337,1.675,1.675,0,0,0,1.305.609,2.844,2.844,0,0,0,1.225-.1,4.21,4.21,0,0,1,1.185-.168,1.681,1.681,0,0,1,1.529.7,3.3,3.3,0,0,1,.456,1.818V68.781ZM520.133,53.815V68.781h4.708V53.206a7.914,7.914,0,0,0-.288-2.17,5.3,5.3,0,0,0-1.209-2.042h-3.836a21.129,21.129,0,0,1,.617,4.8Z" transform="translate(-39.068 -7.745)"/>
          <path id="Path_86" data-name="Path 86" d="M207.032,97.134a22.047,22.047,0,0,1,3.107.689l1.257-3.131c-.737-.232-1.425-.432-2.066-.593s-1.249-.3-1.834-.392-1.161-.152-1.706-.192-1.105-.056-1.666-.056a10.421,10.421,0,0,0-3.2.48,7.843,7.843,0,0,0-2.594,1.417,6.272,6.272,0,0,0-1.746,2.242,7.077,7.077,0,0,0-.633,3.067,6.31,6.31,0,0,0,.961,3.563,10.181,10.181,0,0,0,2.4,2.554,19.187,19.187,0,0,0,3.123,1.914,32.934,32.934,0,0,1,3.123,1.69,10.413,10.413,0,0,1,2.4,1.9,3.572,3.572,0,0,1,.961,2.53,3.411,3.411,0,0,1-.368,1.6,3.921,3.921,0,0,1-1.033,1.281,4.858,4.858,0,0,1-1.6.865,6.847,6.847,0,0,1-2.09.3,16.256,16.256,0,0,1-3.2-.36,17.315,17.315,0,0,1-3.731-1.249l-1.265,3.123a20.376,20.376,0,0,0,8.384,1.97,13.1,13.1,0,0,0,3.94-.553,9,9,0,0,0,2.947-1.617,6.886,6.886,0,0,0,1.9-2.4,7.081,7.081,0,0,0,.665-3.075,7,7,0,0,0-.953-3.723,10.09,10.09,0,0,0-2.4-2.674,20.72,20.72,0,0,0-3.139-2.01q-1.682-.88-3.139-1.738a11.492,11.492,0,0,1-2.4-1.85,3.3,3.3,0,0,1-.961-2.4,3.2,3.2,0,0,1,1.057-2.4,4.155,4.155,0,0,1,2.963-.977,18.543,18.543,0,0,1,2.562.192Zm23.429,4.86h-5.517a7.772,7.772,0,0,0,.5,1.2,5.369,5.369,0,0,0,.729,1.073,3.387,3.387,0,0,0,1.017.8,2.867,2.867,0,0,0,1.361.3h1.914v-3.379Zm-9.441,18.185a6.733,6.733,0,0,0,5.3,2.042,8.063,8.063,0,0,0,1.938-.232c.649-.152,1.457-.4,2.4-.729l-.993-3.091a16.914,16.914,0,0,1-1.706.44,7.172,7.172,0,0,1-1.321.128,2.539,2.539,0,0,1-2.194-1.185,5.345,5.345,0,0,1-.8-3.131V95.717L219.2,97.166v4.8l-3.291.8v2.522H219.2v8.96a8.593,8.593,0,0,0,1.818,5.877Zm18.945-13.284a4.308,4.308,0,0,1,7.119,0,8.352,8.352,0,0,1,1.337,4.973,11.2,11.2,0,0,1-.3,2.682,6.888,6.888,0,0,1-.921,2.194,4.4,4.4,0,0,1-1.529,1.473,4.114,4.114,0,0,1-2.138.536,4.242,4.242,0,0,1-2.074-.5,4.346,4.346,0,0,1-1.545-1.417,6.7,6.7,0,0,1-.961-2.178,11.254,11.254,0,0,1-.32-2.795A8.352,8.352,0,0,1,239.967,106.895Zm-5.509,9.393a9.613,9.613,0,0,0,2.162,3.251,9.2,9.2,0,0,0,3.139,2.01,10.241,10.241,0,0,0,3.771.689,9.909,9.909,0,0,0,3.651-.689,9.151,9.151,0,0,0,3.155-2.026,10.234,10.234,0,0,0,2.226-3.251,10.879,10.879,0,0,0,.841-4.4,12.029,12.029,0,0,0-.689-4.116,9.211,9.211,0,0,0-5.109-5.437,10.41,10.41,0,0,0-7.5-.168,9.664,9.664,0,0,0-3.2,1.874,9.811,9.811,0,0,0-2.354,3.2,10.814,10.814,0,0,0-.921,4.628,11.419,11.419,0,0,0,.8,4.42Zm33.967,5.605a13.621,13.621,0,0,0,2.851-1.033l-1.2-3.083a11.221,11.221,0,0,1-4,.993,4.277,4.277,0,0,1-3.523-1.762,8.16,8.16,0,0,1-1.377-5.125,8.072,8.072,0,0,1,1.393-5.093,4.317,4.317,0,0,1,3.507-1.762,12.468,12.468,0,0,1,1.6.12,13.674,13.674,0,0,1,1.89.376l1.113-3.131a13.236,13.236,0,0,0-2.4-.633,13.025,13.025,0,0,0-2.258-.216,10.614,10.614,0,0,0-3.731.657,8.84,8.84,0,0,0-3.139,1.946,9.784,9.784,0,0,0-2.186,3.2,11.5,11.5,0,0,0-.8,4.5,12.017,12.017,0,0,0,.8,4.6,9.148,9.148,0,0,0,2.162,3.2,8.646,8.646,0,0,0,3.155,1.914,11.21,11.21,0,0,0,3.755.633,10.163,10.163,0,0,0,2.314-.3Zm18.849-19.938-3.908,4.628c-.248.3-.5.609-.721.9a10.365,10.365,0,0,0-.657.945,8.116,8.116,0,0,0-1.225,3.043,8.271,8.271,0,0,0,.08,3.347l2.714-3.1.617,1.337,4.5,8.728h5.2l-7.583-12.9,6.406-6.886Zm-12.956,19.826h4.636V92.77h-4.636Zm40.341,0V107.7a7.707,7.707,0,0,0-.456-2.811,5.328,5.328,0,0,0-1.209-1.914,4.552,4.552,0,0,0-1.7-1.1,6,6,0,0,0-1.994-.344,9.458,9.458,0,0,0-2.4.368,14.586,14.586,0,0,0-3.291,1.473,8.54,8.54,0,0,0,1.049,1.393,1.7,1.7,0,0,0,1.289.593,2.266,2.266,0,0,0,1.089-.1,3.36,3.36,0,0,1,1.049-.168,1.544,1.544,0,0,1,1.433.7,3.381,3.381,0,0,1,.44,1.818v14.165ZM302.224,92.77h-4.6v29.011h4.628V92.77Zm23.005,14.125a4.308,4.308,0,0,1,7.119,0,8.407,8.407,0,0,1,1.337,4.973,11.633,11.633,0,0,1-.3,2.682,7.081,7.081,0,0,1-.921,2.194,4.474,4.474,0,0,1-1.529,1.473,4.168,4.168,0,0,1-2.146.536,4.238,4.238,0,0,1-2.066-.5,4.442,4.442,0,0,1-1.553-1.417,6.848,6.848,0,0,1-.953-2.178,11.215,11.215,0,0,1-.328-2.795A8.356,8.356,0,0,1,325.229,106.895Zm-5.517,9.393a9.613,9.613,0,0,0,2.162,3.251,9.2,9.2,0,0,0,3.139,2.01,10.258,10.258,0,0,0,3.771.689,9.986,9.986,0,0,0,3.659-.689,9.225,9.225,0,0,0,3.155-2.026,10.208,10.208,0,0,0,2.218-3.251,10.879,10.879,0,0,0,.841-4.4,11.834,11.834,0,0,0-.689-4.116,9.358,9.358,0,0,0-1.986-3.275,9.485,9.485,0,0,0-3.123-2.162,10.41,10.41,0,0,0-7.5-.168,9.521,9.521,0,0,0-5.525,5.093,10.691,10.691,0,0,0-.921,4.628A11.434,11.434,0,0,0,319.712,116.288Zm23.55,5.493h4.628V92.77h-4.628Zm39.564,0V107.7a7.706,7.706,0,0,0-.456-2.811,5.213,5.213,0,0,0-1.257-1.914,4.916,4.916,0,0,0-1.818-1.1,6.4,6.4,0,0,0-2.042-.344,9.926,9.926,0,0,0-2.674.408,21.342,21.342,0,0,0-3.523,1.393,6.393,6.393,0,0,0,1.089,1.417,1.972,1.972,0,0,0,1.4.609,3,3,0,0,0,1.241-.1,4.711,4.711,0,0,1,1.209-.168,1.808,1.808,0,0,1,1.6.7,3.067,3.067,0,0,1,.5,1.818v14.165Zm-12.243,0V107.7a8.084,8.084,0,0,0-.44-2.811,5.379,5.379,0,0,0-1.169-1.914,4.377,4.377,0,0,0-1.682-1.1,6,6,0,0,0-1.994-.344,9.708,9.708,0,0,0-2.6.384,21.627,21.627,0,0,0-3.443,1.377,8.677,8.677,0,0,0,1.073,1.417,1.777,1.777,0,0,0,1.337.617,3,3,0,0,0,1.169-.08,4.3,4.3,0,0,1,1.169-.152,1.538,1.538,0,0,1,1.449.7,3.531,3.531,0,0,1,.424,1.818v14.165Zm-17.088-17.24a20.738,20.738,0,0,1,.128,2.274v14.966h4.708V106.206a7.915,7.915,0,0,0-.288-2.17,5.268,5.268,0,0,0-1.2-2.042h-3.787a24.922,24.922,0,0,1,.44,2.546" transform="translate(-38.982 -18.306)"/>
        </g>
      </g>
      <g id="Group_12" data-name="Group 12" transform="translate(16.015 56.023)">
        <g id="Group_11" data-name="Group 11" clip-path="url(#clip-path-2)">
          <rect id="Rectangle_10" data-name="Rectangle 10" width="111" height="85" transform="translate(-3.015 -4.193)" fill="#be996f"/>
        </g>
      </g>
      <g id="Group_14" data-name="Group 14" transform="translate(7.207 4.022)">
        <g id="Group_13" data-name="Group 13" clip-path="url(#clip-path-3)">
          <rect id="Rectangle_11" data-name="Rectangle 11" width="131" height="52" transform="translate(-4.207 -4.191)" fill="#be996f"/>
        </g>
      </g>
      <g id="Group_16" data-name="Group 16" transform="translate(90.486 55.261)">
        <g id="Group_15" data-name="Group 15" clip-path="url(#clip-path-4)">
          <rect id="Rectangle_12" data-name="Rectangle 12" width="50" height="49" transform="translate(-3.486 -4.43)" fill="#be996f"/>
        </g>
      </g>
      <g id="Group_18" data-name="Group 18" transform="translate(4.004 55.261)">
        <g id="Group_17" data-name="Group 17" clip-path="url(#clip-path-5)">
          <rect id="Rectangle_13" data-name="Rectangle 13" width="50" height="49" transform="translate(-4.004 -4.43)" fill="#be996f"/>
        </g>
      </g>
    </g>
  </g>
</svg>
