<svg xmlns="http://www.w3.org/2000/svg" xmlns:xlink="http://www.w3.org/1999/xlink" width="89" height="45" viewBox="0 0 89 45"><defs><clipPath id="a"><path fill="#fff" d="M0 0h60.25v10.03H0z"/></clipPath></defs><g transform="translate(-.388)"><path fill="#e8eff3" d="M.39 0h89v45h-89z"/><g clip-path="url(#a)" transform="translate(14.388 17)"><path fill="#040305" d="M30 5.08a.6.6 0 0 0 .22-.5 5 5 0 0 0-.4-1.9 5 5 0 0 0-.98-1.44 4 4 0 0 0-1.4-.93A5 5 0 0 0 25.78 0a4.3 4.3 0 0 0-2.19.6 4.6 4.6 0 0 0-1.67 1.74 5.6 5.6 0 0 0-.64 2.76 5 5 0 0 0 .62 2.55 4.4 4.4 0 0 0 1.72 1.74 5 5 0 0 0 2.62.63 4 4 0 0 0 1.88-.43 5 5 0 0 0 1.42-1 .8.8 0 0 0 .3-.57.6.6 0 0 0-.18-.45.6.6 0 0 0-.45-.18 1 1 0 0 0-.48.16 4 4 0 0 1-.59.52 3 3 0 0 1-.82.41 3.8 3.8 0 0 1-2.95-.3 3.3 3.3 0 0 1-1.22-1.29 4 4 0 0 1-.42-1.61h6.74a.8.8 0 0 0 .52-.2m-6.3-2.84a3 3 0 0 1 .99-.63 3 3 0 0 1 1.1-.2 3 3 0 0 1 1.3.3 3 3 0 0 1 1.06.84 2.3 2.3 0 0 1 .5 1.31V4H22.8a4 4 0 0 1 .18-.65 3 3 0 0 1 .7-1.11M41.56 5a5 5 0 0 1-.64 2.59 5 5 0 0 1-1.73 1.78 4.7 4.7 0 0 1-2.44.65 4.7 4.7 0 0 1-4.18-2.43A5 5 0 0 1 31.93 5a5 5 0 0 1 .64-2.58A4.7 4.7 0 0 1 36.75 0a4.7 4.7 0 0 1 2.44.64 5 5 0 0 1 1.73 1.79A5 5 0 0 1 41.56 5m-1.5 0a4 4 0 0 0-.44-1.88 3.4 3.4 0 0 0-1.18-1.28 3 3 0 0 0-1.68-.47 3 3 0 0 0-1.7.47 3.4 3.4 0 0 0-1.2 1.28 4 4 0 0 0-.45 1.89 4 4 0 0 0 .45 1.87 3.4 3.4 0 0 0 1.2 1.29 3 3 0 0 0 1.7.47 3 3 0 0 0 1.68-.47 3.3 3.3 0 0 0 1.18-1.3 4 4 0 0 0 .43-1.86Zm3.16 3.32a1 1 0 0 1-.14-.52.6.6 0 0 1 .3-.47.7.7 0 0 1 .46-.11.7.7 0 0 1 .45.24 4 4 0 0 0 1.19.97 3.4 3.4 0 0 0 1.63.37 4 4 0 0 0 .88-.15 1.6 1.6 0 0 0 .76-.46 1.2 1.2 0 0 0 .3-.86 1 1 0 0 0-.3-.82 2.4 2.4 0 0 0-.83-.5 10 10 0 0 0-1.09-.35q-.6-.16-1.2-.37a5 5 0 0 1-1.07-.52 3 3 0 0 1-.76-.82 2.4 2.4 0 0 1-.29-1.22 2.4 2.4 0 0 1 .46-1.44 3 3 0 0 1 1.21-.95 4 4 0 0 1 1.7-.34 5 5 0 0 1 1.08.12 4 4 0 0 1 1.1.4 3 3 0 0 1 .95.8 1 1 0 0 1 .18.46.6.6 0 0 1-.24.5.7.7 0 0 1-.45.14.6.6 0 0 1-.42-.18 3 3 0 0 0-1-.73 3 3 0 0 0-1.28-.25 3 3 0 0 0-.85.14 2 2 0 0 0-.72.43 1.2 1.2 0 0 0-.29.84 1.2 1.2 0 0 0 .34.81 2 2 0 0 0 .85.51q.54.2 1.19.39.6.15 1.14.34a4 4 0 0 1 1 .51 2 2 0 0 1 .7.8 3 3 0 0 1 .25 1.24 2.3 2.3 0 0 1-.48 1.48 3 3 0 0 1-1.27.94 5 5 0 0 1-1.7.33 6 6 0 0 1-2.02-.39 4 4 0 0 1-1.73-1.32M56.82 0a7 7 0 0 1 1.73.2 3 3 0 0 1 1.2.56 1 1 0 0 1 .45.8 1 1 0 0 1-.17.49.5.5 0 0 1-.46.22 1 1 0 0 1-.4-.1l-.3-.24a2 2 0 0 0-.38-.27 3 3 0 0 0-.65-.2 4 4 0 0 0-.85-.08 3.3 3.3 0 0 0-1.8.48 3.5 3.5 0 0 0-1.2 1.3 4 4 0 0 0-.45 1.86 4 4 0 0 0 .42 1.85 3.3 3.3 0 0 0 1.2 1.3 3 3 0 0 0 1.75.48 4 4 0 0 0 1.03-.1 3 3 0 0 0 .66-.27 3 3 0 0 0 .5-.37.7.7 0 0 1 .98.02.7.7 0 0 1 .17.5 1 1 0 0 1-.46.72 4 4 0 0 1-1.26.62 6 6 0 0 1-1.79.25 4.6 4.6 0 0 1-2.46-.66 4.5 4.5 0 0 1-1.65-1.8 5.5 5.5 0 0 1-.58-2.55 5.4 5.4 0 0 1 .6-2.54 4.7 4.7 0 0 1 1.68-1.8 4.6 4.6 0 0 1 2.5-.67"/><path fill="#008691" d="M7.72.8a5 5 0 0 0-5.44 0 .6.6 0 0 0-.3.48.7.7 0 0 0 .2.55l.27.27a.65.65 0 0 0 .82.1 3.3 3.3 0 0 1 3.47 0 .66.66 0 0 0 .81-.1l.27-.27a.7.7 0 0 0 .2-.55.7.7 0 0 0-.3-.48"/><path fill="#eb5d81" d="M4.23 8.28a3.34 3.34 0 0 1-2.08-5 .6.6 0 0 0-.1-.78l-.27-.27a.6.6 0 0 0-.52-.19.6.6 0 0 0-.46.29 5 5 0 0 0-.8 2.7 5 5 0 0 0 3.94 4.89l.14.01a.6.6 0 0 0 .4-.14.6.6 0 0 0 .24-.5v-.38a.64.64 0 0 0-.48-.62"/><path fill="#008691" d="M13.35.03a5 5 0 0 0-5 5v.04a3.36 3.36 0 0 1-2.7 3.24.45.45 0 0 0-.36.44v.76a.5.5 0 0 0 .16.35.4.4 0 0 0 .36.1A5 5 0 0 0 10 5.03a3.35 3.35 0 1 1 3.34 3.34.83.83 0 1 0 0 1.65 5 5 0 1 0 0-10Z"/></g></g></svg>