<svg xmlns="http://www.w3.org/2000/svg" xmlns:xlink="http://www.w3.org/1999/xlink" width="600" height="300" viewBox="0 0 600 300"><defs><clipPath id="clip-Custom_Size_1"><path d="M0 0h600v300H0z"/></clipPath></defs><g id="Custom_Size_1" clip-path="url(#clip-Custom_Size_1)"><path fill="#e8eff3" d="M0 0h600v300H0z"/><g id="c" transform="translate(176 50.005)"><g id="Group_21" transform="translate(0 -.005)"><g id="Group_19" transform="translate(0 126.524)"><path id="Path_91" fill="#1d1d1b" d="M6.37 63.6c0-7.78 5.27-12.34 12.16-12.34a18 18 0 0 1 5.5.83l1.17-1.04h.55l.25 7.78h-.75c-1.77-4.74-4.28-6.1-6.93-6.1-4.12 0-8.11 3.1-8.11 10.54 0 5.8 2.9 11.1 8.94 11.1 1.74 0 3.63-.5 3.63-1.07 0-1.22.03-4.43-.07-7.18l-.13-.13-3.48-.18v-1.2h9.93v1.2l-2.56.18-.13.13c-.08 2.25-.1 4.82-.08 7.55-.42.88-3.84 2.25-7.42 2.25-7.23 0-12.44-4.51-12.44-12.34Z" transform="translate(10.151 -45.163)"/><path id="Path_92" fill="#1d1d1b" d="M16.6 67.58c0-8.06 4.93-12.7 11.2-12.7 7.05 0 11.15 4.97 11.15 11.98 0 8.06-4.93 12.7-11.2 12.7-7.05 0-11.12-4.95-11.12-11.98Zm18.52-.36c0-7.16-2.8-10.74-7.32-10.74s-7.36 3.58-7.36 10.74 2.8 10.74 7.31 10.74 7.4-3.58 7.4-10.74ZM22.57 50.8a1.87 1.87 0 0 1 1.91-2.02 1.74 1.74 0 0 1 1.85 1.86 1.9 1.9 0 0 1-1.95 2.03 1.74 1.74 0 0 1-1.81-1.87m6.63 0a1.87 1.87 0 0 1 1.92-2.02 1.74 1.74 0 0 1 1.84 1.86 1.9 1.9 0 0 1-1.94 2.03 1.74 1.74 0 0 1-1.82-1.87" transform="translate(26.452 -48.78)"/><path id="Path_93" fill="#1d1d1b" d="m30.64 74.4 3.79-.17.13-.16c.02-1.32.1-5.89.1-10.68s0-8.75-.1-9.96l-.1-.19h-4.23c-.76 0-1.64 1.27-3.09 5.58h-.7l.29-7.78h.64l1.04.6h15.93l1.03-.6h.65l.28 7.78h-.7c-1.47-4.33-2.33-5.58-3.08-5.58h-4.23l-.1.19c-.02.85-.1 5.65-.1 10.42s.08 8.95.1 10.22l.13.16 3.9.18v1.22H30.63z" transform="translate(42.132 -45.179)"/><path id="Path_94" fill="#1d1d1b" d="m35.74 74.4 3.48-.17.13-.16c.02-1.63.1-5.89.1-10.68s-.08-8.8-.1-10.22l-.13-.13-3.48-.19v-1.21h15.59l1.37-.6h.55l.26 7.78h-.7c-1.28-3.58-2.42-5.37-3.01-5.4l-6.72-.36-.1.18c-.03 1.64-.1 5.4-.1 9.37 1.6 0 5.08-.1 6-.19l.15-.13 1.27-2.49h.67c-.02.99-.08 2.52-.08 3.48s.03 2.9.08 3.97h-.68l-1.27-2.96-.16-.13c-1.09-.03-4.25-.1-5.99-.1 0 4.51.08 8.12.1 9.93l.1.18 7.24-.38c.6-.06 2.2-1.5 3.47-5.68h.8c-.46 6.92-.57 7.5-1.16 7.5H35.77v-1.23Z" transform="translate(56.952 -45.179)"/><path id="Path_95" fill="#1d1d1b" d="m44.64 74.09 3.48-.18.13-.16c.02-1.24.1-5.89.1-10.68s-.08-8.67-.1-10.22l-.13-.13-3.48-.18v-1.22c2.62 0 5.65-.08 7.73-.08a21 21 0 0 1 6.17.7c2.8.88 4.52 2.7 4.52 5.3a5.4 5.4 0 0 1-4.34 5.41v.08c3.76.18 6 2.39 6 5.26 0 4.83-4.34 7.34-11.2 7.34-2.31 0-6.05-.07-8.88-.07v-1.22Zm9.34-11.85c4.17 0 5.26-2 5.26-4.72a4.2 4.2 0 0 0-2.12-4.05 9 9 0 0 0-4.2-.78c-.19 0-.58 0-.91.03l-.16.18c-.03 1.84-.13 5.32-.1 9.34zm6.92 6.25c0-3.37-2.3-4.7-5.42-4.7h-3.73c-.03 4.52.07 8.1.1 9.96l.18.16c.67.02 1.32.02 1.74.02 4.8 0 7.13-2 7.13-5.47Z" transform="translate(71.134 -44.86)"/><path id="Path_96" fill="#1d1d1b" d="M54.32 63.84c0-8.07 4.92-12.71 11.2-12.71 7.05 0 11.12 4.98 11.12 11.98 0 8.07-4.93 12.71-11.2 12.71-7.05 0-11.15-4.95-11.15-11.98Zm18.51-.37c0-7.15-2.8-10.73-7.31-10.73s-7.4 3.58-7.4 10.73 2.8 10.74 7.32 10.74 7.37-3.58 7.37-10.73Z" transform="translate(86.512 -45.035)"/><path id="Path_97" fill="#1d1d1b" d="m64.32 74.09 3.56-.18.15-.16c.03-1.04.1-5.89.1-10.68s-.08-8.61-.1-10.22l-.15-.13-3.56-.18v-1.22c3.2 0 6.59-.08 8.4-.08a20 20 0 0 1 5.73.57c3.4 1.04 4.9 3.22 4.9 5.65 0 3.5-2.38 5.2-5.29 6.1v.08a68 68 0 0 1 4.57 7.6c.88 1.55 1.74 2.72 2.9 2.8h.78v1.24H81l-.13-.13c-1.32-2.67-2.23-4.82-4.46-8.79a13 13 0 0 0-1.43-2.1 25 25 0 0 1-3.52.26c-.03 4.23.07 8.2.1 9.26l.13.15 3.26.19v1.22H64.27V74.1Zm15.23-16.57a4.3 4.3 0 0 0-2.44-4.15 9.5 9.5 0 0 0-4.23-.68h-1.17l-.1.1c-.02 1.53-.07 6.18-.1 10.32 6.18-.18 8.07-2.15 8.07-5.6Z" transform="translate(102.415 -44.86)"/><path id="Path_98" fill="#1d1d1b" d="M73.81 63.6c0-7.78 5.27-12.34 12.16-12.34a18 18 0 0 1 5.5.83l1.17-1.04h.55l.26 7.78h-.76c-1.76-4.75-4.28-6.1-6.92-6.1-4.13 0-8.12 3.09-8.12 10.53 0 5.81 2.9 11.1 8.95 11.1 1.74 0 3.6-.49 3.6-1.06 0-1.22.02-4.43-.08-7.18l-.13-.13-3.47-.18v-1.2h9.93v1.2l-2.57.18-.13.13c-.08 2.25-.1 4.82-.08 7.55-.41.88-3.84 2.25-7.41 2.25-7.24 0-12.45-4.51-12.45-12.34Z" transform="translate(117.617 -45.163)"/><path id="Path_99" fill="#1d1d1b" d="M83.97 68.13h.83c1.25 4.51 3.27 6.38 5.73 6.38A4.4 4.4 0 0 0 95.28 70c0-6.17-10.9-4.62-10.9-12.42 0-3.3 2.6-6.33 7.11-6.33a15 15 0 0 1 4.54.83l1.06-1.04h.68l.2 7.78h-.75c-1.48-4.33-3.45-6.1-5.86-6.1a3.66 3.66 0 0 0-3.89 3.74c0 5.94 11.08 5 11.08 12.5 0 3.58-2.7 7.03-8.23 7.03a9 9 0 0 1-4.9-1.37l-.7 1.37h-.75v-7.83Z" transform="translate(133.807 -45.179)"/><path id="Path_100" fill="#1d1d1b" d="M3.58 82.8c0-1.34.03-2.15.03-5.67 0-2.8-.03-5.04-.08-8.23l-.13-.13L0 68.6v-1.2h10.14v1.2l-2.88.18-.15.13c-.03 2.67-.08 8.4-.08 13.77 0 4.46 1.04 7.5 5.73 7.5s6.35-2.88 6.35-8.17c0-4.62-.07-9.62-.13-13.1l-.13-.13-3.26-.18v-1.2H25v1.2l-3.47.18-.14.13c-.1 3.78-.1 9-.07 13.4.02 6.1-2.86 9.37-8.8 9.37s-8.94-3.01-8.94-8.87Z" transform="translate(0 -19.109)"/><path id="Path_101" fill="#1d1d1b" d="m10.87 90.1 3.48-.18.12-.13c.1-3.79.1-6.59.1-10.14s0-5.5-.1-10.74l-.13-.13-3.47-.18v-1.19h6.77c4.33 6.07 9.26 13.15 12.81 18.23h.08c-.08-6.8-.13-13.23-.2-16.7l-.14-.13-3.27-.18v-1.2h9.4v1.2l-3.48.18-.13.13c-.1 3.79-.1 6.59-.1 15.51v7.1h-1.74c-4.41-6.24-9.65-13.58-14.11-19.96h-.08c.02 8.3.13 14.73.2 18.25l.14.13 3.26.19v1.19h-9.41v-1.2Z" transform="translate(17.321 -19.093)"/><path id="Path_102" fill="#1d1d1b" d="m22.33 90.12 3.48-.18.13-.13c.07-1.1.1-5.89.1-10.69s-.03-9-.1-10.22l-.14-.13-3.47-.18V67.4h10.79v1.2l-3.45.18-.13.13c-.08.96-.1 5.88-.1 10.68s.08 9.03.1 10.22l.13.13 3.45.18v1.2H22.33Z" transform="translate(35.583 -19.109)"/><path id="Path_103" fill="#1d1d1b" d="m29.78 68.7-2.13-.1v-1.2h9.29v1.2l-3.17.12-.16.13c2 5.14 4.34 11.36 6.67 17.35h.08a422 422 0 0 0 5.91-17.37l-.1-.1-2.88-.13v-1.2h7.83v1.2l-2.04.1c-1.85 4.69-6.1 15.71-8.9 23h-.96l-9.47-23Z" transform="translate(44.06 -19.109)"/><path id="Path_104" fill="#1d1d1b" d="m37.74 90.49 3.48-.19.13-.13c.02-1.63.1-5.88.1-10.68s-.08-8.8-.1-10.22l-.13-.13-3.48-.18v-1.2h15.59l1.37-.6h.55l.26 7.79h-.7c-1.28-3.58-2.42-5.37-3.01-5.4l-6.72-.36-.1.18c-.03 1.64-.1 5.4-.1 9.37 1.6 0 5.06-.1 6-.19l.15-.13 1.27-2.49h.67c-.02.99-.08 2.52-.08 3.48s.03 2.9.08 3.97h-.68l-1.27-2.93-.16-.13c-1.09-.06-4.25-.1-5.99-.1 0 4.5.08 8.11.1 9.93l.1.18 7.24-.39c.6-.02 2.2-1.48 3.47-5.68h.8c-.46 6.93-.57 7.5-1.16 7.5H37.77v-1.2Z" transform="translate(60.139 -19.475)"/><path id="Path_105" fill="#1d1d1b" d="m46.65 90.17 3.55-.19.13-.13a542 542 0 0 0 0-20.9l-.13-.13-3.55-.18v-1.2c3.19 0 6.59-.07 8.4-.07a20 20 0 0 1 5.76.57c3.4 1.04 4.9 3.24 4.9 5.65 0 3.5-2.39 5.2-5.3 6.1v.08a71 71 0 0 1 4.6 7.6c.88 1.55 1.74 2.72 2.9 2.8h.78v1.24h-5.31l-.13-.13c-1.33-2.67-2.23-4.82-4.46-8.79a13 13 0 0 0-1.43-2.1 25 25 0 0 1-3.53.23c-.02 4.23.08 8.2.1 9.26l.13.13 3.27.18v1.2H46.65v-1.2Zm15.22-16.58a4.3 4.3 0 0 0-2.43-4.15 9.5 9.5 0 0 0-4.23-.67h-1.17l-.1.1c-.02 1.53-.08 6.17-.1 10.32 6.17-.18 8.07-2.18 8.07-5.6Z" transform="translate(74.337 -19.157)"/><path id="Path_106" fill="#1d1d1b" d="M56.67 84.26h.83c1.24 4.51 3.26 6.38 5.73 6.38a4.4 4.4 0 0 0 4.74-4.52c0-6.17-10.89-4.61-10.89-12.42 0-3.3 2.6-6.33 7.1-6.33a15 15 0 0 1 4.55.8l1.06-1.03h.67l.21 7.78h-.75c-1.48-4.33-3.45-6.1-5.86-6.1a3.66 3.66 0 0 0-3.9 3.74c0 5.94 11.08 5 11.08 12.5 0 3.58-2.7 7.02-8.22 7.02a9 9 0 0 1-4.9-1.37l-.73 1.38h-.75v-7.83Z" transform="translate(90.256 -19.523)"/><path id="Path_107" fill="#1d1d1b" d="m64.25 90.12 3.48-.18.12-.13c.08-1.1.1-5.89.1-10.69s-.02-9-.1-10.22l-.13-.13-3.47-.18V67.4h10.79v1.2l-3.45.18-.16.13c-.07.96-.1 5.88-.1 10.68s.08 9.03.1 10.22l.16.13 3.45.18v1.2H64.25Z" transform="translate(102.383 -19.109)"/><path id="Path_108" fill="#1d1d1b" d="m74.24 90.52 3.78-.18.16-.13c.03-1.33.1-5.9.1-10.69s0-8.74-.1-9.98l-.1-.19h-4.23c-.76 0-1.64 1.28-3.09 5.58h-.7l.29-7.78h.64l1.04.6h15.92l1.02-.6h.64l.29 7.78h-.7c-1.48-4.33-2.34-5.58-3.09-5.58H81.9l-.1.19a493 493 0 0 0 0 20.64l.13.13 3.89.18v1.2H74.24v-1.2Z" transform="translate(111.641 -19.507)"/><path id="Path_109" fill="#1d1d1b" d="m79.34 90.49 3.48-.19.13-.13c.02-1.63.1-5.88.1-10.68s-.08-8.8-.1-10.22l-.14-.13-3.47-.18v-1.2h15.59l1.37-.6h.55l.26 7.79h-.7c-1.27-3.58-2.42-5.37-3.01-5.4l-6.72-.36-.1.18c-.02 1.64-.1 5.4-.1 9.37 1.6 0 5.08-.1 6-.19l.12-.13 1.27-2.49h.68c-.03.99-.08 2.52-.08 3.48s.03 2.9.08 3.97h-.68l-1.27-2.93-.13-.13c-1.09-.06-4.25-.1-5.99-.1 0 4.5.08 8.11.1 9.93l.1.18 7.24-.39c.6-.02 2.2-1.48 3.47-5.68h.8c-.46 6.93-.57 7.5-1.16 7.5H79.37v-1.2Z" transform="translate(126.429 -19.475)"/><path id="Path_110" fill="#1d1d1b" d="m92.44 90.52 3.79-.18.13-.13c.02-1.33.1-5.9.1-10.69s0-8.74-.1-9.98l-.1-.19h-4.23c-.76 0-1.64 1.28-3.09 5.58h-.7l.29-7.78h.64l1.04.6h15.93l1.03-.6h.65l.28 7.78h-.7c-1.47-4.33-2.33-5.58-3.08-5.58h-4.23l-.1.19c-.02.85-.1 5.65-.1 10.42s.08 8.95.1 10.22l.16.13 3.89.18v1.2H92.47v-1.2Z" transform="translate(140.611 -19.507)"/></g><g id="Group_20" transform="translate(69.467)"><path id="Path_111" fill="#0064a7" d="M44.79 16.75A40.54 40.54 0 1 0 73.7 5.5a40.4 40.4 0 0 0-28.91 11.25m27.23 66.73a37.46 37.46 0 1 1 26.71-10.4 37.5 37.5 0 0 1-26.71 10.4" transform="translate(-18.035 8.755)"/><path id="Path_112" fill="#0064a7" d="M43.68 15.23a54.76 54.76 0 1 0 92.62 40.72 54.74 54.74 0 0 0-92.6-40.74Zm36.75 91.84a52.28 52.28 0 1 1 53.4-51.15 52.34 52.34 0 0 1-53.4 51.15" transform="translate(-26.785 .005)"/><path id="Path_113" fill="#0064a7" d="M77.51 51.94C57.18 55.6 40.9 47.69 37.91 37.9c-1.92-6.3.88-7.68 1.33-12.24-3.53 1.86-4.18-3.01-1.07-3.43 3.3-.44 4.77 3.01 3.17 7.6-2.31 6.62 1.73 9.68 2.87 9.34a9 9 0 0 1 .65-1.56c-2.77-3.52-1.6-8.68 3.12-9.1 1.91-.18 1.73 1.22.38 1.43-3.63.52-3.44 4.57-1.94 5.08a1.2 1.2 0 0 0 .83-.33c-.05-.83.52-2 1.45-1.77 2.08.52 1.3 3.2-.16 3.4-.54 1.64-1.55 3.92-1.34 5.11.2 1.17 1.03 1.43 1.73.73.52-.5.76-1.71 1.07-3.04-.34-1.5.39-2.62 1.66-2.1.88.37.96 1.72.1 2.78-.1 1.27-.68 2.72-.55 3.7s1.48.92 1.95.4c.49-.55.98-4.02 1.16-4.78a1.75 1.75 0 0 1 1.1-2.83c1.81-.16 1.4 2.33.88 2.96.52 1.94-.31 4.12.05 4.98a1.58 1.58 0 0 0 2.44.36c.64-.7-.16-2.2.18-3.94-.62-1.5.1-2.7.99-2.78 2.02-.15 1.45 1.66 1.08 2.96a17 17 0 0 0 .78 4.1 1.1 1.1 0 0 0 2.02-.05c.29-.62-.33-2.41-.49-3.69-.88-2.04-.13-2.61.65-2.67.75-.05 1.76.37 1.63 2.39a32 32 0 0 0 1.27 4.07.82.82 0 0 0 1.6.05c.32-.88-.28-1.94-.93-3.37-1.45-1.43-.13-2.52.7-2.57.83-.08 2.13.16 1.85 2.36.44 1.35.75 2.57 1.03 3.27a1.26 1.26 0 0 0 1.97.39c.5-.55-.44-1.48-.7-2.65-1.09-1.06-.9-2.51.37-2.62.64-.05 1.89 0 1.79 1.9a19 19 0 0 0 .9 2.72c.65 1.06 1.66.67 2.08-.29.39-.96-2.13-3.78-.16-3.94s2.31 2.44 2.96 3.04a.87.87 0 0 0 1.43-.13c.52-.57-.86-2.13.1-2.57 1.94-.88 1.89 1.32 3.26 1.35 6 .1 10.72-9.73 10.02-12.5-2-1.2-1.3-4.15.36-4.18 4.12-.08 3.55 5.76.41 12.53-4.1 8.87-14.18 13.43-18.49 14.21Z" transform="translate(-11.831 35.397)"/><path id="Path_114" fill="#0064a7" d="m75.31 28.35-.07-.19c.93-3.55 1.6-5.1 1.91-8.66a1.56 1.56 0 0 0-1.08-1.66 20 20 0 0 0-4.05-.6.5.5 0 0 1-.36-.18 9 9 0 0 1-.63-2.85c1.28-2.7-1-3.66-3.13-3.6-1.4-.08-2.86.57-3.01 1.63-.2 2.05 2.07 2.8 2.88 2.88a13 13 0 0 1 .52 2.28.15.15 0 0 1-.16.16c-3.63.08-8.35.7-10.74.88a.5.5 0 0 1-.57-.34c-.44-1.22-2.33-7 1.22-6.9 2.1.08 3.87-1.66 1.87-2.98a11 11 0 0 0-4.67-.41 2.37 2.37 0 0 0-1.63 2.77c.23 1.87-4.41 2.05-5.79 1.5a6.5 6.5 0 0 1-2.62-2.3c-.88-1.61-2.44-.4-2.15.47 1.92 5.8 8.09 4.87 9.67 4.98a.4.4 0 0 1 .23.15c.4 2.1 1.64 4.3 1.64 5.14-.78.85-.44 2.67.65 2.98-1.33 1.27-1.92 5.68-1.72 9.36.26 4.67 2.16 9.2 5.14 8.72 3.79-.63 2.28-9.37 3.22-10.12a4 4 0 0 1 2.12-.2c.1 0 .16.12.16.18-.31 3.42-1.12 8.94-1.32 10.4a5 5 0 0 0 .41 3.65 15.6 15.6 0 0 1 .57 11.5.4.4 0 0 1-.28.28 8 8 0 0 0-3.04 1.27c-.62.44-1.32 1.32-.85 1.86.67.63 4.98.37 6.32-1.6l.13-.29a21 21 0 0 1 1.48-3.06c2-3.79 2.28-8.45-.44-10.58-.75-.6-1.56-1.14-.8-2.62 1.45-2.85 1.6-5.99 1.8-8.6a1.44 1.44 0 0 1 2.48-.68c1.66 3.91.36 7.29.34 8.69a9 9 0 0 0 .67 2.87c1.14 5.11.57 9.24-.46 14.53 0 .1-.1.18-.21.23a10 10 0 0 0-2.67 1.17c-.76.54-1.07 1.22-.73 1.58 1.01 1.14 5.55-.1 5.89-1.4.85-3.24 6.98-10.71 2.7-15.5-1.95-2.19-1.95-1.3-1.97-2.42 0-.52 1.22-3.42 1.53-5.65.3-2.34-1.2-4.57-.83-5.84 0-.05.1-.1.15-.1a13 13 0 0 1 3.09 1.06c.31.16.8.03.88-1.11.08-1.25-3.11-2.47-3.73-2.7ZM57.9 38.07c-1.77-.02-2.42-11-.6-10.94 1.63.02 1.81 10.97.6 10.94m5.8-16.17a35 35 0 0 1 .83 4.51c.08.55-.13 1.22-.47 1.35a5 5 0 0 1-2.93-.05c-.83-.31-.26-3.58-3.27-4.15a1.6 1.6 0 0 0 .73-1.32 1.5 1.5 0 0 1 1.35-1.07 19 19 0 0 1 2.7-.18 1.15 1.15 0 0 1 1.09.9Zm8.22 4.82a4 4 0 0 1-3.84.16c-.88-.52-1.09-4.44-.64-5.5s5.03-1.09 5.39-.36-.27 5.08-.91 5.7" transform="translate(-.92 12.306)"/><path id="Path_115" fill="#0064a7" d="M62.92 23.74c-.34-4.15-4.2-9.62-9.86-10.56-6.12-1.01-15.64 1.43-16.68 10.45-1.06 9.31 6.07 16.24 14.63 15.59 9.29-.7 12.37-9.62 11.9-15.48Zm-5.53 6.64c.5-.06 1.45.07 1.71.75.31.75-1.76 3.08-2.72 3.37-.6.16-1.48-.73-1.3-1.58a7 7 0 0 1 2.31-2.54m3.17-2.96a1.36 1.36 0 0 1-1.8-.2 12 12 0 0 1-.18-3.82 1.4 1.4 0 0 1 1.74-.5c.65.37 1.01 3.98.24 4.52m-1.85-7.73c-.1.57-1.06.8-1.45.75a7 7 0 0 1-2.77-2.3 1.1 1.1 0 0 1 .83-1.38c1.32-.34 3.55 2.13 3.4 2.96Zm-7.2-4.2a1.3 1.3 0 0 1 0 1.45c-.37.4-3.64.52-4.13.47a1.23 1.23 0 0 1-1.17-1.66c.63-.96 4.96-1.04 5.32-.29Zm2.64 6.04c0 .88-3.09 2.36-3.7 2-.92-.54-2.76-3.27-2.37-3.73 1.32-1.66 6.07.33 6.07 1.73m-8.38-.75c.4-.08 2.26 2.78 1.92 3.84-.28.9-3.7 2.15-4.04 1.81-1.04-1.03-.13-5.18 2.12-5.68Zm-.7 8.46c0-.55 2.78-2.42 3.87-2.03.88.34 2.25 3.79 1.5 4.15-2.03.96-5.4-1.24-5.4-2.12Zm8.64.57c-.8-.37-2.93-3.14-2.18-3.9.7-.7 3.68-2.2 4.15-1.76 1.84 1.71-.39 6.36-1.97 5.66m-12.3-8.38c-.77.39-1.5-.13-1.58-1.12-.07-.96 2.18-3.32 3.01-3.08a1.7 1.7 0 0 1 .94 1.55 9 9 0 0 1-2.36 2.65m-.54 6.56c-.44.52-1.4.86-1.9.47-.7-.57-.93-2.88-.46-3.87.31-.67 1.92-1.03 2.23-.26.2.52.44 3.3.13 3.66m-.39 4.02a1.54 1.54 0 0 1 1.71-1.4 7.3 7.3 0 0 1 2.6 2.59 1.36 1.36 0 0 1-1.09 1.58c-.88.06-3.14-1.97-3.22-2.77m7.13 3.94c-.62-.33-.13-1.58.76-1.71a9 9 0 0 1 3.5-.03c.57.26.98 1.46.64 1.82-.62.67-4.02.44-4.92-.05Z" transform="translate(-11.656 20.677)"/><path id="Path_116" fill="#0064a7" d="m42.37 3.18-.26 2.1-1.35 1.6 2.1.3 1.6 1.34.27-2.1 1.35-1.6L44 4.55Z" transform="translate(-4.516 5.08)"/><path id="Path_117" fill="#0064a7" d="m58.78 41.27-1.69-1.25-2.1-.13 1.22-1.71.13-2.1 1.71 1.25 2.1.12-1.24 1.72Z" transform="translate(18.16 57.507)"/><path id="Path_118" fill="#0064a7" d="m40.13 41.22 1.71-1.24 2.1-.1-1.22-1.72-.13-2.1-1.71 1.22-2.1.13 1.24 1.72Z" transform="translate(-7.671 57.475)"/><path id="Path_119" fill="#0064a7" d="m35.57 36.6 2.15-2.52c.99-1.14 2.54-1.06 4.02.21 1.5 1.27 1.84 2.8.86 3.94l-2.15 2.52c-.26.31-.29.5.07.78l-.75.57-2.07-1.77.47-.83c.33.32.52.26.77-.05l2.16-2.51c.41-.5.39-1.12-.29-1.69-.67-.6-1.3-.54-1.73-.03l-2.16 2.52c-.26.31-.28.47.08.78l-.75.6-1.9-1.61.44-.86c.34.31.52.26.78-.05" transform="translate(-14.73 53.045)"/><path id="Path_120" fill="#0064a7" d="m33.03 33.43 4.54-3.4.86 1.14-1.43 4.8a7 7 0 0 1-.36.86s.41-.4.62-.55l2-1.5c.31-.23.39-.39.1-.78l.86-.41 1.37 1.81-.62.73c-.29-.37-.47-.37-.78-.13l-3.32 2.49c-.31.23-.36.41-.1.77l-.88.4-1.22-1.64 1.3-4.36a9 9 0 0 1 .36-.88s-.41.39-.65.57l-1.7 1.27c-.32.24-.37.42-.1.78l-.88.41-1.37-1.84.62-.72c.29.36.44.36.78.13Z" transform="translate(-19.065 47.866)"/><path id="Path_121" fill="#0064a7" d="m36.76 27.99 1.17 2.39-.76.6c-.2-.42-.38-.45-.72-.26l-3.74 1.84c-.36.18-.44.33-.23.75l-.93.23-1.17-2.39.75-.6c.2.42.36.44.73.26l3.73-1.84c.37-.18.44-.34.24-.75Z" transform="translate(-21.056 44.615)"/><path id="Path_122" fill="#0064a7" d="m30.55 25.58 6.12.54.55 1.82-4.85 3.76c-.36.26-.4.42-.29.83l-.96.08-.75-2.54.83-.47c.1.36.26.41.57.18l2.34-1.76a13 13 0 0 1 1.22-.65 12 12 0 0 1-1.4.08l-2.96-.29c-.4-.02-.47.13-.36.52l-.96.08-.68-2.26.86-.47c.13.42.23.5.67.55Z" transform="translate(-23.303 39.898)"/><path id="Path_123" fill="#0064a7" d="m35.68 21.56.5 5.5-.91.28c-.06-.47-.21-.54-.6-.52l-4.16.4c-.41.02-.51.15-.49.61l-.96-.13-.46-5.24 1.69-.15.2.72c-.54.13-.64.29-.6 1.1l.1 1.21 1.72-.15-.1-1.12c-.06-.47-.13-.65-.52-.6l.1-.78 1.68-.15.26.75c-.39.03-.44.2-.39.67l.1 1.12 1.87-.18-.16-1.69c-.07-.73-.28-.86-.8-.9l.08-.79 1.77.06Z" transform="translate(-23.893 34.321)"/><path id="Path_124" fill="#0064a7" d="m36.43 18-.23 2.1c-1.12.91-2.85-.02-3 1.4l-.1.86 1.34.16c.39.05.55-.03.6-.5l.9.32-.28 2.61-.96.1c.06-.46-.07-.57-.46-.62l-4.14-.46c-.39-.05-.55.05-.6.5l-.9-.32.38-3.58c.22-1.73 1.02-2.67 2.34-2.54a1.84 1.84 0 0 1 1.64 1.56 1.8 1.8 0 0 1 1.68-1.04c.6-.05.8-.16.86-.67v-.16l.93.31Zm-6.4 2.96-.1 1.06 2.02.24.1-1.01c.08-.78-.26-1.22-.88-1.3s-1.07.26-1.14 1.01" transform="translate(-23.893 28.25)"/><path id="Path_125" fill="#0064a7" d="M36.6 18.94a6 6 0 0 1-1.53 2.51l-1.34-.85.2-.62a1.8 1.8 0 0 0 1.61-1.38c.18-.55.1-1.2-.46-1.37-.5-.16-.83.15-1.4 1.19-.55 1.06-1.46 2.02-2.83 1.58-1.35-.44-1.71-1.87-1.22-3.4a6 6 0 0 1 1.32-2.33l1.27.8-.18.6a1.6 1.6 0 0 0-1.35 1.24c-.2.6-.05 1.12.4 1.27.43.13.74-.18 1.16-.96.75-1.42 1.55-2.36 3.06-1.86 1.48.46 1.79 2.04 1.3 3.52Z" transform="translate(-22.588 22.752)"/><path id="Path_126" fill="#0064a7" d="m38.08 15.11-1.22 2.36-.93-.26c.2-.41.13-.57-.24-.75l-3.7-1.9c-.37-.17-.55-.15-.76.27l-.75-.6 1.22-2.36.93.26c-.2.41-.13.57.24.75l3.7 1.9c.34.18.53.15.76-.26z" transform="translate(-20.897 18.928)"/><path id="Path_127" fill="#0064a7" d="M36.6 10.3c-.44-.23-.7-.26-1.14.36l-.41.57 3.58 2.62c.3.24.5.26.75-.13l.65.7-1.56 2.13-.88-.39c.29-.39.2-.54-.1-.78l-3.58-2.62-.42.57c-.44.6-.33.86 0 1.22l-.57.52-1.32-1.2 3.76-5.13 1.56.88-.34.7Z" transform="translate(-19.112 13.94)"/><path id="Path_128" fill="#0064a7" d="m43.2 10.44-1.92 1.79-.78-.55c.26-.23.29-.39-.1-.6l-.52-.26-1.86 1.74.2.54c.16.4.37.34.63.1l.49.83-1.64 1.54-.78-.54c.31-.29.34-.44.18-.86l-1.79-4.23c-.1-.26-.28-.33-.62-.02l-.5-.83 2.76-2.57.78.55c-.34.3-.29.46-.03.6l4.12 2.1a.6.6 0 0 0 .86-.1l.5.82Zm-6.07-1.17a11 11 0 0 1-1.06-.8s.52.8.7 1.17l.75 1.79 1.32-1.25Z" transform="translate(-14.969 10.402)"/><path id="Path_129" fill="#0064a7" d="M42.54 11.5a7 7 0 0 1-2.8.93l-.46-1.5.54-.33a1.8 1.8 0 0 0 2.13 0c.5-.31.83-.83.52-1.35-.29-.44-.73-.44-1.84 0-1.12.46-2.41.62-3.2-.62-.74-1.2-.1-2.55 1.28-3.4a6 6 0 0 1 2.51-.91l.45 1.42-.55.34a1.7 1.7 0 0 0-1.84.08c-.55.34-.78.83-.52 1.22.23.39.7.36 1.5.02 1.5-.6 2.7-.77 3.55.57.8 1.33.03 2.7-1.3 3.53Z" transform="translate(-10.32 6.897)"/><path id="Path_130" fill="#0064a7" d="M51.35 5.93c-.5.05-.57.23-.52.6l.08.54c.05.36.15.44.39.42l-.08.9c-1.01.21-1.17.65-2.72.86-2.08.29-3.97-.5-4.3-3.14-.35-2.4 1.05-3.86 3.34-4.15a5.4 5.4 0 0 1 2.82.4l-.18 1.63-.62.07a1.44 1.44 0 0 0-1.69-.83c-1.3.19-1.89 1.01-1.66 2.62.21 1.64.91 2.26 2.18 2.08a2 2 0 0 0 .89-.34l-.13-.88c-.06-.39-.16-.52-.65-.44h-.13l.07-.94 2.73-.36.3.9h-.12Z" transform="translate(.871 3.059)"/><path id="Path_131" fill="#0064a7" d="M51.32 9.18c-2.15-.18-3.58-1.3-3.35-3.94.21-2.67 1.82-3.56 3.95-3.38 2.18.19 3.58 1.3 3.37 3.97S53.5 9.4 51.32 9.2Zm.5-6.04c-1.12-.08-1.7.46-1.82 2.23s.34 2.4 1.45 2.51c1.14.1 1.69-.47 1.84-2.23.13-1.76-.3-2.41-1.45-2.52Z" transform="translate(6.942 2.947)"/><path id="Path_132" fill="#0064a7" d="M57.32 5.55c.05-.5 0-.76-.75-.94l-.68-.18-1.17 4.28c-.1.39-.05.55.4.67l-.45.86-2.54-.7.05-.96c.47.13.57 0 .7-.36l1.17-4.28-.67-.18c-.73-.21-.91 0-1.12.44l-.7-.34.65-1.66 6.15 1.69-.26 1.76-.78-.05Z" transform="translate(12.694 3.518)"/><path id="Path_133" fill="#0064a7" d="m60.59 12.94-2.34-1.19.23-.93c.42.2.58.13.76-.24l.72-1.42-2.38-1.22-.73 1.42c-.18.34-.16.52.26.73l-.6.75-2.33-1.19.23-.93c.42.2.57.13.76-.24l1.89-3.7c.18-.37.15-.52-.26-.76l.62-.75 2.33 1.2-.25.93c-.41-.2-.55-.13-.75.23l-.57 1.14L60.58 8l.58-1.14c.18-.36.15-.52-.26-.75l.6-.75 2.36 1.19-.26.93c-.42-.2-.55-.13-.75.24l-1.9 3.7c-.18.37-.15.52.26.73l-.6.75Z" transform="translate(16.869 5.224)"/><path id="Path_134" fill="#0064a7" d="M59.34 12.5c-1.66-1.38-2.2-3.1-.5-5.17s3.5-1.87 5.16-.52c1.69 1.4 2.2 3.11.5 5.16-1.72 2.08-3.48 1.9-5.16.5Zm3.83-4.68c-.85-.7-1.66-.57-2.77.8s-1.12 2.18-.26 2.88c.88.73 1.66.57 2.78-.8s1.11-2.15.23-2.88Z" transform="translate(22.631 9.23)"/><path id="Path_135" fill="#0064a7" d="m62.26 15.3-2.18-2.72.6-.75c.28.36.47.34.78.1L64.7 9.3c.31-.26.36-.41.08-.77l.85-.42 2.05 2.54c1.1 1.38 1.22 2.54.26 3.32a1.7 1.7 0 0 1-1.74.1 1.8 1.8 0 0 1-.54 2.16c-1.04.83-2.28.41-3.37-.94Zm1.69-2.9-1.61 1.3.64.8a1 1 0 0 0 1.54.26 1.04 1.04 0 0 0 .05-1.58l-.6-.75Zm.88-.73.54.68c.44.54.91.6 1.32.26.4-.31.47-.76 0-1.33l-.54-.67Z" transform="translate(26.271 12.952)"/><path id="Path_136" fill="#0064a7" d="m69.5 17.84-2.92 1.5c-1.35.68-2.75 0-3.63-1.74s-.63-3.3.72-3.96l2.93-1.5c.37-.19.44-.34.24-.76l.93-.23L69 13.56l-.75.6c-.2-.41-.39-.44-.75-.26l-2.96 1.5a1.12 1.12 0 0 0-.39 1.66c.42.8.99.99 1.59.7l2.95-1.5c.37-.18.44-.33.24-.75l.93-.26 1.14 2.2-.75.62c-.2-.41-.39-.44-.75-.26Z" transform="translate(30.018 17.78)"/><path id="Path_137" fill="#0064a7" d="m65.37 23.54-.55-2.05c.7-1.27 2.68-1.01 2.31-2.42l-.2-.83-1.33.34c-.39.1-.49.23-.39.68l-.96.05-.67-2.54.86-.45c.13.47.28.52.67.42l4.02-1.06c.39-.1.5-.24.39-.68l.96-.05.93 3.48c.44 1.68 0 2.85-1.27 3.19a1.8 1.8 0 0 1-2.07-.86 1.8 1.8 0 0 1-1.2 1.58c-.51.26-.7.42-.54.94l.05.15-.96.05Zm4.9-5.06-.26-1.04-1.97.52.26.99c.2.75.67 1.03 1.3.88a1 1 0 0 0 .7-1.38Z" transform="translate(31.848 23.836)"/><path id="Path_138" fill="#0064a7" d="M67.47 26.06c0-.5-.19-.57-.55-.57h-.55c-.36.05-.46.13-.44.36l-.9-.13a16 16 0 0 1-.63-2.8c-.1-2.1.83-3.92 3.48-4.05 2.44-.13 3.76 1.4 3.86 3.69a5.3 5.3 0 0 1-.64 2.8l-1.61-.34v-.62a1.45 1.45 0 0 0 .93-1.6c-.08-1.3-.83-1.98-2.46-1.88-1.64.08-2.34.73-2.26 2a2 2 0 0 0 .26.91l.88-.05c.4 0 .52-.13.5-.62v-.13l.93.15.13 2.75-.94.24v-.13Z" transform="translate(33.15 30.078)"/><path id="Path_139" fill="#0064a7" d="m64.15 28.1.83-5.44.96-.05c-.08.47.08.57.44.65l4.12.62c.4.05.55 0 .62-.47l.89.34-.8 5.21-1.7-.26v-.75c.53 0 .68-.13.78-.91l.19-1.22-1.72-.26-.15 1.1c-.08.46 0 .64.34.7l-.32.72-1.68-.26-.08-.78c.39.05.5-.1.55-.57l.15-1.09-1.84-.28-.26 1.69c-.1.72.08.9.57 1.06l-.26.75-1.7-.47Z" transform="translate(32.629 36.042)"/><path id="Path_140" fill="#0064a7" d="m68.24 33.97-5.29-2 .5-1.32 4.8-1.37a6 6 0 0 1 .9-.16 6 6 0 0 1-.78-.23L66.04 28c-.36-.13-.55-.1-.7.34l-.8-.52.8-2.13.96.13c-.16.45-.05.58.31.73l3.89 1.48c.36.15.55.1.7-.34l.8.52-.73 1.92-4.35 1.25a6 6 0 0 1-.94.16s.55.15.8.25l2 .76c.4.13.55.1.7-.34l.8.52-.8 2.13-.96-.16c.16-.44.08-.57-.3-.7Z" transform="translate(30.844 40.966)"/><path id="Path_141" fill="#0064a7" d="M62.26 31.17a6 6 0 0 1 2.13-2.05l1.08 1.14-.33.55a1.8 1.8 0 0 0-1.9.93 1 1 0 0 0 .1 1.45c.45.29.83.08 1.64-.8.8-.9 1.9-1.6 3.11-.83 1.2.75 1.2 2.26.34 3.6a6 6 0 0 1-1.87 1.92L65.55 36l.34-.54a1.7 1.7 0 0 0 1.63-.86c.34-.54.34-1.06-.08-1.32-.39-.26-.78 0-1.37.65-1.1 1.19-2.1 1.89-3.43 1.03-1.32-.83-1.21-2.4-.38-3.76Z" transform="translate(28.76 46.416)"/><path id="Path_142" fill="#0064a7" d="m59.94 33.72 1.76-2 .83.46c-.3.34-.26.52 0 .78l3.12 2.78c.3.26.46.28.77-.06l.58.78-1.77 2-.83-.46c.31-.34.28-.52 0-.78l-3.11-2.77c-.29-.26-.47-.29-.78.05Z" transform="translate(26.048 50.559)"/><path id="Path_143" fill="#0064a7" d="M59.06 34.76a6 6 0 0 1 2.67-1.25l.65 1.45-.52.42a1.8 1.8 0 0 0-2.1.26c-.44.36-.75.93-.36 1.4.31.41.78.33 1.82-.24 1.06-.6 2.33-.9 3.24.24.88 1.09.39 2.51-.86 3.5a7 7 0 0 1-2.38 1.22l-.63-1.38.5-.39a1.7 1.7 0 0 0 1.81-.28c.5-.4.68-.91.36-1.27-.28-.37-.72-.26-1.5.15-1.4.78-2.59 1.12-3.57-.13-.96-1.22-.37-2.7.85-3.66Z" transform="translate(22.488 53.411)"/><path id="Path_144" fill="#0064a7" d="m45.64 44.65-3.55-1.01.08-.96.47.13c.46.13.62.03.72-.34l1.04-3.6a2.4 2.4 0 0 1-1.4.08l.3-1.04a2.4 2.4 0 0 0 2.06-.77l1.45.41-1.58 5.47c-.1.4 0 .55.44.68l.47.13-.44.85Z" transform="translate(-2.397 59.18)"/><path id="Path_145" fill="#0064a7" d="M47.91 45.06c-1.94-.18-3.11-1.09-3.01-2.26.1-1.01.96-1.53 1.92-1.84-.78-.44-1.4-.99-1.35-1.82.1-1.03 1.32-1.66 3.14-1.47 1.74.15 2.85.98 2.77 2.04-.08.83-.8 1.25-1.63 1.53.88.47 1.63 1.15 1.53 2.16-.1 1.2-1.45 1.84-3.35 1.66Zm.31-3.37c-.8.28-1.37.67-1.42 1.27-.06.52.46.96 1.22 1.01.72.08 1.32-.23 1.37-.75.05-.6-.44-1.09-1.17-1.53m.29-2.96c-.65-.05-1.1.16-1.14.62s.33.86.96 1.2c.64-.24 1.11-.55 1.14-1.01.05-.45-.37-.76-.99-.8Z" transform="translate(2.077 59.989)"/><path id="Path_146" fill="#0064a7" d="M51.3 45.07a3.5 3.5 0 0 1-1.69-.24l-.1-1a4 4 0 0 0 1.3.1 2.1 2.1 0 0 0 2.14-2.03 2.1 2.1 0 0 1-1.58.8 2.43 2.43 0 0 1-2.95-2.2c-.13-1.48.93-2.65 2.8-2.83a2.98 2.98 0 0 1 3.5 2.99c.2 2.23-.76 4.15-3.4 4.4Zm0-6.28a1.27 1.27 0 0 0-1.2 1.55 1.22 1.22 0 0 0 1.38 1.25 1.34 1.34 0 0 0 1.3-1.53 1.3 1.3 0 0 0-1.48-1.27" transform="translate(7.668 60.011)"/><path id="Path_147" fill="#0064a7" d="m57.2 43.77-3.55.93-.44-.86.46-.13c.47-.13.55-.28.44-.67l-.96-3.63a2.4 2.4 0 0 1-1.16.78l-.29-1.04a2.4 2.4 0 0 0 1.35-1.71l1.45-.39 1.45 5.5c.1.39.26.47.73.36l.46-.13.06.96Z" transform="translate(12.917 59.052)"/></g></g></g></g></svg>