<svg xmlns="http://www.w3.org/2000/svg" xmlns:xlink="http://www.w3.org/1999/xlink" width="600" height="300" viewBox="0 0 600 300"><defs><clipPath id="clip-Custom_Size_1"><path d="M0 0h600v300H0z"/></clipPath></defs><g id="Custom_Size_1" clip-path="url(#clip-Custom_Size_1)"><path fill="#e8eff3" d="M0 0h600v300H0z"/><g id="c" transform="translate(196 51)"><g id="Group_22"><path id="Path_148" d="M0 691c2.36.2 4.72.03 7.08.08h1.73a1.2 1.2 0 0 1 .08 1.12l-2.8.53v7.74h11.85v-7.73l-2.8-.54a1.2 1.2 0 0 1 0-1.07h8.72c.28.33.19.66.1 1.07l-2.8.53v18.05a7 7 0 0 0 2.08.42c.78.1.94.45.7 1.19h-8.82c-.25-.69-.13-1.05.7-1.18 2.22-.35 2.21-.38 2.21-2.65v-6.4h-12v4.27c0 1.18.04 2.36-.02 3.54-.04.73.26.98.93 1.05.65.06 1.3.2 1.9.31a1.5 1.5 0 0 1 .05 1.15H0v-1.25a12 12 0 0 0 2.9-.4V692.7l-2.9-.47z" transform="translate(0 -546.795)"/><path id="Path_149" d="m903.83 692.24-2.95.48v19.8a1.96 1.96 0 0 1-2.36-.69q-7.16-8-14.39-15.93c-.2-.22-.33-.53-.69-.59-.25.31-.14.67-.14 1 0 4.45.02 8.9-.02 13.35-.01.9.2 1.38 1.16 1.38.4 0 .82.16 1.23.19.85.05.82.53.66 1.18h-7.73c-.3-.77-.09-1.08.72-1.2 2.14-.33 2.14-.36 2.14-2.5v-14.8a2.4 2.4 0 0 0-.13-1.19l-2.7-.51a1.1 1.1 0 0 1 0-1.12h5.14c.49 0 .7.4.98.7l13.06 14.46 1.16 1.26v-14.78l-2.74-.52c-.26-.33-.13-.67-.1-1.22h7.7z" transform="translate(-695.152 -546.795)"/><path id="Path_150" d="M435.46 867.67q-1.01-.24-2.01-.5a9.9 9.9 0 0 1-7.36-9.73 16 16 0 0 1 .42-4.24 9.64 9.64 0 0 1 8.88-7.68c3.85-.35 7.4.29 10.26 3.2 3.36 3.4 4.52 11.97-.1 16.16a11 11 0 0 1-5.16 2.58c-.2.04-.42-.01-.55.2zm-6.05-12.1a13 13 0 0 0 2.16 7.79 7.5 7.5 0 0 0 7.72 2.98c3.09-.47 4.73-2.55 5.52-5.41a14 14 0 0 0 .47-3.82 11 11 0 0 0-2.64-7.7 7.5 7.5 0 0 0-7.9-2.5c-2.98.75-4.43 2.92-5.07 5.75a10 10 0 0 0-.27 2.9Z" transform="translate(-337.168 -669.005)"/><path id="Path_151" d="M336.18 0c-.6 6.86-3 12.89-8.26 17.54a9.7 9.7 0 0 1-5.93 2.53 45 45 0 0 1 4.07-11.5 24 24 0 0 1 3.3-4.81A12.5 12.5 0 0 1 335.34 0z" transform="translate(-254.798)"/><path id="Path_152" d="M244.74 867.67a24 24 0 0 1-3.45-1.08 1.25 1.25 0 0 1-.82-1.18c-.05-1.42-.18-2.83-.28-4.24.26-.33.6-.33 1-.4l.66 2.64a3.5 3.5 0 0 0 2.45 2.6 6.3 6.3 0 0 0 4.28.15 3.63 3.63 0 0 0 1.08-6.27 17 17 0 0 0-3.2-1.74 20 20 0 0 1-2.83-1.53 6.2 6.2 0 0 1-2.61-6.75 6.1 6.1 0 0 1 5.3-4.36 18 18 0 0 1 5.46.51c.48.08.46.42.5.78.08 1.07.14 2.15.3 3.21.13.83-.15 1.1-.95.93-.26-.67-.49-1.36-.8-2.02a3.4 3.4 0 0 0-3.35-2.06 3.5 3.5 0 0 0-3.41 1.96 3.8 3.8 0 0 0 .4 4.13 9 9 0 0 0 3.5 2.37c.97.48 1.97.9 2.92 1.4 1.84.97 3.08 2.4 2.99 4.6a6.1 6.1 0 0 1-3.54 5.69c-.6.27-1.23.44-1.85.66z" transform="translate(-190.067 -669.009)"/><path id="Path_153" d="M616 0a33 33 0 0 1 6.04 4.9c2.66 2.93 4.75 6.16 5.34 10.17a8.5 8.5 0 0 1-.4 4.2c-.36.07-.54-.18-.74-.35a36 36 0 0 1-8.94-9.67c-1.71-2.86-2.66-5.88-1.72-9.24z" transform="translate(-486.832)"/><path id="Path_154" d="M401.2 0a7.9 7.9 0 0 1-3.87 6.41 22 22 0 0 1-8.4 3.2c-1.38.27-2.78.45-4.3.7a9.7 9.7 0 0 1 2.72-5c2.62-2.63 5.93-3.9 9.45-4.7q1.47-.32 2.93-.61Z" transform="translate(-304.366)"/><path id="Path_155" d="m334.72 134.65-.02-21.9c0-.8.19-1.13 1.02-1.32a151 151 0 0 1 26.12-3.33 167 167 0 0 1 28.3 1.12 127 127 0 0 1 12.93 2.24c.65.15.9.4.9 1.1l-.01 38.6a49 49 0 0 1-5.04 22.56c-5.91 11.66-15.49 17.54-28.5 17.89-6.55.17-12.8-.97-18.5-4.37-6.5-3.89-10.7-9.69-13.56-16.56a51 51 0 0 1-3.64-20.27c.03-5.25 0-10.5 0-15.75Zm.68 14.38a15 15 0 0 0-.03 3.19 48 48 0 0 0 4.42 20.3c3.39 7.2 8.44 12.79 15.9 15.93a36 36 0 0 0 17.58 2.36c9.85-.93 17.61-5.44 23.01-13.78a44.4 44.4 0 0 0 6.9-22.02 44 44 0 0 0 .14-5.98zm38.31-9.46a6.5 6.5 0 0 1 1.87-2.03 1.9 1.9 0 0 0 2.2 1.24c-.74-2.23.84-4.05.82-6.14 1.61.72 2.2.67 2.95-.17-2.12-1.24-1.33-3.5-2.03-5.31.99 0 1.9.26 2.45-.77-2.45-.88-1.76-3.51-3.19-5.13 1.16.05 1.92-.22 2.35-1.23-2.44-.4-2.2-3.12-3.88-4.1a2.16 2.16 0 0 0-.42-2.78c-1-.78-1.44.36-2.1.69-2.75-2.06-6.7-1.94-8.13.25.25.56.83.13 1.19.38.17.86.47.96 1.35.33.99-.72 1.98-1.3 3.46-.61-.86-.1-.67.4-.73.78a1.9 1.9 0 0 1-2.58 1.64 5 5 0 0 1-1.86-1.3c-.65-.79-1.26-.6-1.9-.18a14 14 0 0 0-1.41 1.21c.05.5.7.39.72.85-.54.17-.63.42-.34.98a2.4 2.4 0 0 0 3.45.76c1.02-.72 1.62-.34 2.25.41a5 5 0 0 1 1.11 2.1c.33 1.61-.32 2.5-1.96 2.56-.93.04-1.86.01-2.74.01a1.4 1.4 0 0 0 .04 1.3l1.45-.17a5 5 0 0 1 2.27.13c.53.17.98.5.97 1.09s-.54.78-1.03.86a12 12 0 0 1-1.55.1 18 18 0 0 0-1.98.05 4 4 0 0 0-2.8 1.22l4.5.96a7 7 0 0 1-2.44.48 16 16 0 0 0-3.22.23 2.3 2.3 0 0 0-1.77 1.24c1.58-.07 2.88.7 4.3.98a11 11 0 0 1-1.43.31 23 23 0 0 0-3.58.66 2.5 2.5 0 0 0-1.98 1.8c1.65-.55 3.09.03 4.56.4a24 24 0 0 0-3.61.98 4.4 4.4 0 0 0-2.72 2.54c1.8-.94 3.4.15 5.08.43a17 17 0 0 0-7.22 1.74c-1.23.54-2.57.89-2.46 2.65a1 1 0 0 1-.14.38 1.7 1.7 0 0 1-2.2.59c.42-.3 1.04-.09 1.44-.51-.2-.35-.75-.35-.8-.78-.1-1.1-.65-.65-1.04-.27-.42.41-.77.62-1.32.25a.46.46 0 0 0-.62.14c.24 1.17-.7 1.05-1.44 1.14.49.98 1.31 1.25 2.55.86.28-.09.52-.3.88-.2a24 24 0 0 0 9.3.48c1.38-.13 2.72-.03 3.5 1.36 1.09-.36 1.02-1.35 1.31-2.14.88.77 2.24.87 2.5 2.23 1.31-.79 1.51-1.5.83-3.04a13 13 0 0 1 5.62 3.29 2 2 0 0 0 1.4.53l7.5-.01c.26 0 .57.12.77-.24a63 63 0 0 0-8.32-8.49Zm12.38 1.56a7.9 7.9 0 0 1 4.05-10.9 29 29 0 0 1 5.8-1.22 6.7 6.7 0 0 0 4.06-1.68c2.13-2.23 2.23-4.87 1.26-7.57-.68-1.88-1.3-3.67-.28-5.8a3.5 3.5 0 0 0-1.8 3.2c.02 1.28.14 2.56.21 3.84.12 1.9-.5 3.24-1.8 3.77a3.2 3.2 0 0 0 .98-2.42c-.08-2.09-.94-4.07-.8-6.3a2.2 2.2 0 0 0-1.04 2.12l.27 2.8a3.3 3.3 0 0 1-1.18 2.87 13 13 0 0 1-3.24 2.05 20 20 0 0 0-4.8 3.08c-4.34 3.88-5.42 8.9-3 14.14a50 50 0 0 1 2.21 5.04h3.04a5.6 5.6 0 0 1 2.03-4.67 12 12 0 0 1 2.99-1.88 18 18 0 0 0 3.93-2.13 3.5 3.5 0 0 0 1.55-2.83 5.3 5.3 0 0 1-3.6 2.27l-2.22.58c-2.86.81-5.26 2.18-6.23 5.25-.02.04-.12.05-.18.08a8.4 8.4 0 0 1 3.86-9.76 16 16 0 0 1 3.18-1.27 15 15 0 0 0 3.68-1.44 3 3 0 0 0 1.6-2.01 6 6 0 0 1-3.28 1.22q-1.9.31-3.81.58a7.4 7.4 0 0 0-6.77 6.09c-.22.9-.42 1.8-.67 2.9m-35.72-2.7c-.7-1.23.91-1.6.8-2.62q-.44-.2-.84-.43c0-.73-.34-1.5.5-2.06.25-.16.21-.52-.15-.77q-1.05-.73-.1-1.7a1.9 1.9 0 0 0 .4-2.38c-.42-.9-1.26-.75-2-.78a2.3 2.3 0 0 0-1.9.43 17 17 0 0 1 2.7.29 1.13 1.13 0 0 1 .95 1.2c-.03.6-.49.8-1 .88a10 10 0 0 1-1.54.18q-2.67.01-5.32-.08c-.8-.03-1.06.25-1.11 1.05-.2 3.37-.1 6.74-.12 10.1a2.7 2.7 0 0 0 .1 1.45l.52.04c2.79-.03 5.59.21 8.34-.45.2-.05.42-.02.47-.3a.55.55 0 0 0-.25-.6 1.9 1.9 0 0 1-.3-1.99q.96-.96-.14-1.45Zm-5.08-23.36c.5.9.78 1.46 1.13 1.98a1.3 1.3 0 0 1 .04 1.68 5 5 0 0 0-1 2.07c2.39-.74 3.82.22 4.51 2.67a18 18 0 0 0 .93-1.6 1.73 1.73 0 0 1 2.08-1.23 12 12 0 0 0 1.78.02c-.4-.73-.68-1.32-1.06-1.85a1.4 1.4 0 0 1 0-1.8 4 4 0 0 0 .87-1.9c-2.37.68-3.74-.4-4.53-2.64-.76 2.33-2.23 3.25-4.75 2.6m43.34 8.25c.69-2.4 2.21-3.05 4.33-2.68.05 0 .1-.05.27-.14-.35-.62-.67-1.27-1.07-1.86a1.2 1.2 0 0 1 .02-1.5c.38-.57.68-1.18 1.1-1.94-.8 0-1.4-.03-2.02 0a1.6 1.6 0 0 1-1.7-1.04 3.4 3.4 0 0 0-1.2-1.63c-.44 2.55-2.18 3-4.46 2.63.44.78.7 1.35 1.05 1.85a1.36 1.36 0 0 1 .02 1.78 5 5 0 0 0-.96 1.99c2.34-.69 3.82.17 4.62 2.54m-33.16 12.03c.27 1.02-.46 1.53-.75 2.23.68.38 1.53.86 1.97.4a10 10 0 0 1 4.18-2.37c-1.11-.6-2.03-.03-3 .25-.05-1.35.78-2.06 1.73-2.74a59 59 0 0 1-5.9-5.03c-.38 1.57-1.74 2.01-2.64 2.89a9 9 0 0 0 2.38 2.66c0 .63-.53.82-.82 1.23.74 1.25 1.8 1 2.84.47Zm15.45-12.58c.31-.62 0-.81-.44-.96a17 17 0 0 0-3.14-.73c-2.95-.37-5.83-.94-8.26-2.85-.06-.05-.18 0-.3 0a1.6 1.6 0 0 0 .19 1.3 3.7 3.7 0 0 0 2.8 1.96c3.03.55 6.14.47 9.15 1.28m-24.38 3.6c1.11-.28 1.27.56 1.61 1.17l.93-.6c.68 1 1.15.07 1.7-.22.1 1.41.27 1.54 2.27 1.7.2-.35.36-.68-.03-1.02a6 6 0 0 0-3.96-1.84 3 3 0 0 1-1.3-.23c-.86-.34-1.86.28-1.7 1.06a9 9 0 0 0 .32 1.8c.29-.61 1.07-.58 1.1-1.22.02-.48-.58-.37-.96-.6Zm-3.49 1.62c-.18-.2-.24-.33-.31-.33q-1.86-.06-3.73-.08c-.25 0-.55.06-.54.36a16 16 0 0 0 .32 4.14c.81-1.2.12-2.6.5-3.9a28 28 0 0 0 3.76-.2Zm-4.42 5.76a13 13 0 0 0 2.78-.01 3 3 0 0 0-.08-1.17 5 5 0 0 0-2.72-.02 1.6 1.6 0 0 0 .02 1.2m2.55 5.65c.16-1.44-.52-1.74-2.6-1.21a1.7 1.7 0 0 0 .07 1.23 11 11 0 0 0 2.53-.02m1.96 5.58a1.87 1.87 0 0 0 2.47.56c-.22-.9-.47-1.68-1.54-1.96a1.3 1.3 0 0 1-.93 1.4m2.4-17.73c.27-1.85.15-2.2-.78-2.28s-1.42.35-1.4 1.3a2 2 0 0 1 1.57-.17c.67.2-.44 1.25.62 1.16Zm-4.4-1.79a1 1 0 0 1 .94 1.2c-.04.35.02.66.48.6.39-.07.45-.32.4-.7a14 14 0 0 1 0-1.5 1.26 1.26 0 0 0-1.8.4Zm1.48 19.9c-.15-.64-.2-1.44-.93-1.57-.64-.11-.86.6-1.1 1.1 1.02.62 1.09.63 2.03.47m-3.8-11.09c-.5 1.64-.35 3.14.32 3.54-.06-1.24.23-2.42-.32-3.53Zm32.47-19.79c-1.44.43-1.51.52-1.41 1.73 1.04-.17 1.33-.5 1.41-1.72ZM339 143.1a5 5 0 0 0-.21-3.12 4.3 4.3 0 0 0 .21 3.12m4.37-15.39c.73-.22 1.32-.36 1.4-1.08.02-.25-.22-.36-.43-.33-.72.12-.85.67-.97 1.42Zm1.89 15.96c.63 1.11 1.08 1.19 1.63.29a2.3 2.3 0 0 0-1.63-.3Zm6.53-1c-.37.34-.97.37-1.06.99 1.06.45 1.2.33 1.06-1Z" transform="translate(-264.855 -85.402)"/><path id="Path_156" d="M403.84 523.37a41 41 0 0 1-11.6 1.62c-3.87-.07-7.55-1.15-11.27-1.98a24 24 0 0 0-7.4-.45l2 .93c5.45 2.71 10.53 5.94 14.55 10.61.37.42.66.9 1.01 1.33a1.9 1.9 0 0 1 .3 2.2 2.6 2.6 0 0 1-2.12 1.5 1.6 1.6 0 0 1-1.5-.72 79 79 0 0 0-9.52-10.48 22.5 22.5 0 0 0-8.77-4.39 2.4 2.4 0 0 0-1.33.15c-5.09 1.23-8.9 4.37-12.3 8.16a84 84 0 0 0-5.41 6.48 2 2 0 0 1-2.84.36 2.17 2.17 0 0 1-.74-3 27 27 0 0 1 6.25-6.37 57 57 0 0 1 11.17-6.7 20 20 0 0 0-4.56-.04c-3.07.37-6.03 1.33-9.06 1.9a35.5 35.5 0 0 1-16.08-1.04q-.06-.04-.21-.22a21 21 0 0 1 5.82-4.05c5.07-2.43 10.42-2.74 15.9-2a54 54 0 0 1 12.13 3.26 2.2 2.2 0 0 0 1.69 0 52 52 0 0 1 14-3.48c6.94-.6 13.34.75 18.82 5.33q.4.34.78.7l.3.4Z" transform="translate(-264.618 -408.967)"/><path id="Path_157" d="M649.17 868.4c-.24-.75-.01-1.07.78-1.19 2.12-.32 2.12-.36 2.12-2.52 0-4.93-.03-9.86.02-14.8 0-.9-.25-1.32-1.16-1.38a15 15 0 0 1-1.7-.29 1.2 1.2 0 0 1-.09-.94c.06-.05.12-.13.17-.13 5.3.04 10.65-.62 15.89.5 5.41 1.16 7.64 4.9 7.36 10.05-.36 6.66-4.14 10.35-11.02 10.72-4.01.22-8.05.06-12.09.06a1 1 0 0 1-.29-.08Zm6.03-1.75a25 25 0 0 0 7.12.4 7.7 7.7 0 0 0 6.77-6.54 14 14 0 0 0-.03-4.87 8 8 0 0 0-4.72-6.32c-2.94-1.27-6.02-1.01-9.14-.83z" transform="translate(-513.628 -670.239)"/><path id="Path_158" d="m321.77 849.3-2.69-.5a1.3 1.3 0 0 1-.06-1.08h8.8a1.7 1.7 0 0 1 .07 1.05l-2.84.55v8.62a2.06 2.06 0 0 0 2.4-1.03c1.6-2.52 3.29-4.98 5.02-7.58-.68-.14-1.24-.29-1.8-.37-.75-.1-1.05-.44-.71-1.24h7.65a1.6 1.6 0 0 1 .1.98q-.17.1-.24.12c-2.34-.08-3.67 1.23-4.75 3.15-1.13 1.98-2.5 3.83-3.83 5.82l8.06 9.17a4.3 4.3 0 0 0 2.52 1.06 1.2 1.2 0 0 1 .02 1h-8.65c-.23-1.95 1.69-.9 2.29-1.78l-6.62-7.7c-.38-.43-.9-.2-1.45-.2v8.07l2.84.56v1.04h-8.85a1.4 1.4 0 0 1 0-1.07q1.04-.2 2.12-.36c.47-.07.74-.22.74-.78l-.04-17.22z" transform="translate(-252.38 -670.819)"/><path id="Path_159" d="M448.59 713.03c.24-2.05 2.16-.84 2.96-1.8v-17.86l-2.8-.53a1.3 1.3 0 0 1-.03-1.05h8.82c.21.3.08.63.08 1.01l-2.91.56V702c.78.1 1.55.2 2.06-.55q2.67-3.98 5.27-7.9c-.67-.87-2.48.15-2.49-1.76h7.74a1.1 1.1 0 0 1 .08.94 1.6 1.6 0 0 1-1.08.29 3.6 3.6 0 0 0-3.26 2.08c-1.24 2.09-2.67 4.06-4.04 6.07a.8.8 0 0 0 .04 1.17q3.47 3.97 6.9 7.95a4 4 0 0 0 2.79 1.66c.4.02.53.24.52.62 0 .41-.2.53-.59.53h-8.04c-.26-.65-.3-1.12.54-1.24.54-.08 1.08-.23 1.78-.38l-.83-1.02q-2.73-3.15-5.42-6.34a1.6 1.6 0 0 0-2.04-.61v3.24c0 1.25.05 2.5-.02 3.75-.04.82.28 1.11 1.05 1.17a18 18 0 0 1 1.82.31 1.1 1.1 0 0 1 .07 1.07z" transform="translate(-354.979 -547.42)"/><path id="Path_160" d="M629.45 489.09c-6.02 4.51-23.37 5.62-29.3.57 5.2-5.34 22.93-6.14 29.3-.57" transform="translate(-474.912 -384.002)"/><path id="Path_161" d="M290.32 489.1a11.5 11.5 0 0 1-6.03 3.23 37 37 0 0 1-14.89-.1 38 38 0 0 1-8.5-2.47c.18-.63.7-.9 1.12-1.21a16.4 16.4 0 0 1 8.42-3 35 35 0 0 1 18.11 2.6c.57.26 1.1.6 1.77.96Z" transform="translate(-206.456 -384.035)"/><path id="Path_162" d="M698.31 433.45c-5.89 6.65-16.81 10.8-28.13 8.69a4.6 4.6 0 0 1 1.32-1.8 24.5 24.5 0 0 1 13.2-6.86 37 37 0 0 1 13.36-.19c.06.01.11.07.25.16" transform="translate(-530.328 -342.464)"/><path id="Path_163" d="M198.32 433.95c10.04-3.45 23.86 1.13 28.07 8.13-7.93 2.44-22.76-1.86-28.07-8.13" transform="translate(-156.935 -342.462)"/><path id="Path_164" d="M566.96 711.38a11.3 11.3 0 0 1-7.92-2.85c-3.27-3.16-3.64-7.12-2.8-11.3a9.4 9.4 0 0 1 5.76-7.27c4.92-2.08 11.34-.53 14.2 3.36 2.6 3.54 3.53 11.3-.93 15.28-2.28 2.04-4.98 2.79-8.31 2.78m8.13-10.63a11.2 11.2 0 0 0-2.85-7.85 7.5 7.5 0 0 0-7.87-2.27c-3 .82-4.4 3.07-4.95 5.97a16 16 0 0 0 .16 6.3 10 10 0 0 0 2.12 4.59 7.5 7.5 0 0 0 7.53 2.5c2.88-.5 4.5-2.42 5.28-5.14a16 16 0 0 0 .58-4.1" transform="translate(-439.856 -545.247)"/><path id="Path_165" d="M147.91 700.98c0 6.32-4.2 10.52-10.53 10.56a16 16 0 0 1-4.83-.6 9.4 9.4 0 0 1-6.72-7.05 14 14 0 0 1 .22-7.5c1.5-4.87 5.4-7.22 10.53-7.14a12 12 0 0 1 7.16 2.17c2.74 2.05 4.17 5.33 4.17 9.56m-3.3.14v-.73c-.15-3.54-1.31-6.6-4.39-8.65a7.1 7.1 0 0 0-10.96 3.92 15 15 0 0 0-.04 7.72 10 10 0 0 0 2.11 4.36 7.6 7.6 0 0 0 7.56 2.4c2.85-.53 4.4-2.45 5.2-5.1a14 14 0 0 0 .53-3.92Z" transform="translate(-99.244 -545.419)"/><path id="Path_166" d="M199.19 352.52c8.25.23 19.14 9.45 21 17.77-7.89.42-20.05-9.87-21-17.77" transform="translate(-157.623 -278.957)"/><path id="Path_167" d="M722.43 351.47c-2.1 8.94-13.21 18.28-21.1 17.8 3.7-9.85 11.24-16.51 21.1-17.8" transform="translate(-554.977 -278.126)"/><path id="Path_168" d="M730.3 55.16c6.17 3.97 8.18 20.1 3.37 26.6-4.22-3.5-8.07-18.19-3.37-26.6" transform="translate(-576.194 -43.649)"/><path id="Path_169" d="M239.07 58.32a10.8 10.8 0 0 1 3.32 7.7 34.5 34.5 0 0 1-4.61 18.66l-.32.4a7.5 7.5 0 0 1-1.98-2.77 18.3 18.3 0 0 1-1.2-9.8 34 34 0 0 1 3.96-12.84l.6-.98z" transform="translate(-185.253 -46.15)"/><path id="Path_170" d="M667.68 351.73c1.77 10.1-3.2 20.5-11.4 24.9-1.02-10.52 4.04-18.2 11.4-24.9" transform="translate(-519.23 -278.332)"/><path id="Path_171" d="M300.84 376.29c-7.38-3.08-13.12-15.09-11.97-24.98 3.8 3.15 7.16 6.53 9.35 10.93a28 28 0 0 1 2.62 14.05" transform="translate(-228.471 -277.999)"/><path id="Path_172" d="M203.68 138.88a16 16 0 0 1-6.35-7.25c-2.59-5.57-2.89-11.43-1.9-17.4a2 2 0 0 1 .16-.37 5 5 0 0 1 1.48 1.05c3.65 3.25 5.57 7.45 6.56 12.14a32 32 0 0 1 .22 11.28z" transform="translate(-154.234 -90.1)"/><path id="Path_173" d="M261.64 703.55h8.47a1.5 1.5 0 0 1 .01 1.02c-.64.13-1.3.3-1.98.39-.5.07-.76.25-.75.78q.03 1.63.01 3.21c.55.37 1.15.03 1.7.28.09.5.24.97-.53 1.17-3.76.95-7.54 1.68-11.43 1.04-4.52-.73-8.12-2.75-9.54-7.4-1.78-5.9.5-13.64 9.73-14.56 3.44-.34 6.75.43 10.13.84.25 1.8.24 3.53.33 5.2a1 1 0 0 1-1.05.06c-.25-2.88-2.27-3.99-4.78-4.5a14 14 0 0 0-5.5-.02c-3.5.69-5.37 2.73-5.95 6.45-.81 5.14 1.48 9.9 5.73 11.89a12.6 12.6 0 0 0 7.65.77c.45-.07.55-.33.55-.72v-3.75c0-.5-.23-.68-.69-.72-.48-.05-.96-.18-1.44-.23-.74-.08-.95-.45-.68-1.2Z" transform="translate(-195.492 -545.536)"/><path id="Path_174" d="M769.09 113.08a21 21 0 0 1 1.15 7.99 24 24 0 0 1-3.32 11.8 12 12 0 0 1-3.58 3.86 5 5 0 0 1-2.47.93c-.4-9.21.94-17.77 8.21-24.58Z" transform="translate(-602.039 -89.483)"/><path id="Path_175" d="M771.38 199.69c.64 8.63-5.77 20.05-12.49 22.25.18-4.6.67-9.08 2.5-13.32a15 15 0 0 1 6.74-7.66 15 15 0 0 1 3.25-1.27" transform="translate(-600.526 -158.019)"/><path id="Path_176" d="M177.07 199.67a14.5 14.5 0 0 1 9.32 7.54 29 29 0 0 1 2.93 11.1 21 21 0 0 1 .2 3.61c-6.77-2.34-13.18-13.78-12.45-22.25" transform="translate(-140.076 -158.003)"/><path id="Path_177" d="M769.03 270.42c-1.56 7.5-11.35 17.53-18.4 18.93.34-9.17 8.4-17.11 18.4-18.93" transform="translate(-593.99 -213.989)"/><path id="Path_178" d="M180.72 290.68a28.7 28.7 0 0 1-18.99-19.01 25 25 0 0 1 10.48 4.65 23.7 23.7 0 0 1 8.51 14.36" transform="translate(-127.98 -214.978)"/><path id="Path_179" d="M717.28 259.62a9.4 9.4 0 0 1 2.85 4.73 23.3 23.3 0 0 1-.37 14.64 8.8 8.8 0 0 1-4.05 5.16 7 7 0 0 1-1.01-2.55 32 32 0 0 1-.35-16.78 10.4 10.4 0 0 1 2.93-5.2" transform="translate(-564.519 -205.443)"/><path id="Path_180" d="M253.77 259.72a7 7 0 0 1 2.68 3.07 19.4 19.4 0 0 1 1.75 8.38 35 35 0 0 1-1.67 11.68q-.17.49-.37.98l-.2.4a5 5 0 0 1-2.05-1.55 14.5 14.5 0 0 1-3.12-8.02 24 24 0 0 1 1.63-12.74 8 8 0 0 1 1.35-2.2" transform="translate(-198.282 -205.522)"/><path id="Path_181" d="M708.7 185.74c-8.26-4.23-12.22-13.33-12.44-22.18 7.55 1.7 13.4 12.1 12.44 22.18" transform="translate(-550.965 -129.429)"/><path id="Path_182" d="M255.65 163.62c.77 7.46-5.47 19.1-11.86 22.13-1.79-8.9 2.89-19.22 11.86-22.13" transform="translate(-192.62 -129.476)"/><path id="Path_183" d="M786.12 861.14c-1.8 0-.96-1.64-1.74-2.28h-5.32v8.24H787c.4 0 .48-.3.59-.6.23-.66.52-1.3.7-1.96.22-.75.63-.93 1.44-.64l-1.2 5.07h-15.5a1.7 1.7 0 0 1 .01-1.03l2.82-.56V849.3l-2.8-.54a1.3 1.3 0 0 1-.01-1.08h14.02l.41 4.55c-1.08.49-1.13-.3-1.3-.91l-.52-1.85h-6.6v7.74c1.73 0 3.42.06 5.1-.02.75-.04.54-.86.7-1.34.19-.58.3-1.19 1.22-.77a28 28 0 0 0 .04 6.06" transform="translate(-611.637 -670.787)"/><path id="Path_184" d="M775.98 710.76c.22-2.03 2.16-.75 2.89-1.8-.8-1.9-1.63-3.95-2.49-6.02h-7.14a.63.63 0 0 0-.7.45l-2 5.69c.91.6 2.1.14 2.84.9.12.12.02.46.02.78h-7.53c-.22-.67-.17-1.16.7-1.18 1.34-.04 1.97-.76 2.45-2.03 2.22-5.88 4.57-11.7 6.88-17.55.2-.53.32-1.06 1.16-1.06s1.03.46 1.28 1.06c2.4 5.84 4.88 11.65 7.23 17.52.5 1.27 1.13 2.06 2.54 2.07q1.13 0 .73 1.17zm-.26-9.4-3.33-8.06-2.97 7.85a1.2 1.2 0 0 0 .9.2z" transform="translate(-602.794 -545.173)"/><path id="Path_185" d="M290.06 13.87a21 21 0 0 1 .52 5.49 25 25 0 0 1-3.4 12.92 11.4 11.4 0 0 1-4.67 4.5 1.3 1.3 0 0 1-1.13.23c0-1.06-.03-2.15 0-3.25.15-5.03.7-9.97 3.03-14.55a11 11 0 0 1 4.42-4.85 8 8 0 0 1 .75-.36z" transform="translate(-222.649 -10.976)"/><path id="Path_186" d="M674.95 15.9a10 10 0 0 1 5.3 4.06 26 26 0 0 1 3.91 10.77 45 45 0 0 1 .66 6.94 2 2 0 0 1-.13 1.1 9 9 0 0 1-3.87-2.3c-3.26-3.16-4.78-7.18-5.63-11.5a29 29 0 0 1-.24-9.06Z" transform="translate(-533.912 -12.582)"/><path id="Path_187" d="M290.7 98.41a25 25 0 0 1-2.39 3.4 1.5 1.5 0 0 1-1 .46q-2.09.46-4.18.89c-.67.13-1.07.4-.94 1.17.05.3-.04.63.02.93.38 1.81-.53 2.74-2.07 3.5a29 29 0 0 1-10.86 3.03c2.43-7.82 11.07-15.15 21.42-13.38" transform="translate(-213.087 -77.662)"/><path id="Path_188" d="M655.06 110.2a18.7 18.7 0 0 1-12.5-2.37 2.16 2.16 0 0 1-1.34-2.38 26 26 0 0 0 .03-3.08c-1.62-.36-3.17-.74-4.73-1.04a1.5 1.5 0 0 1-1.11-.8 17 17 0 0 1-1.74-3.63c7.16-.56 18.75 6.64 21.4 13.3Z" transform="translate(-501.437 -76.656)"/><path id="Path_189" d="M541.87 848.76a1.4 1.4 0 0 1 .06-1.07h8.79a1.7 1.7 0 0 1 .03 1.06l-2.87.56 5.85 15c1.9-5.16 3.7-10.04 5.55-15.01l-2.8-.53a1.2 1.2 0 0 1-.05-1.05h6.9q.48 1.11-.68 1.24a2.1 2.1 0 0 0-1.87 1.6c-2.33 5.83-4.45 11.74-6.61 17.64-.18.49-.18 1.06-1 1.08s-.9-.51-1.08-1.01c-2.27-5.9-4.57-11.78-6.77-17.7a2 2 0 0 0-1.99-1.56 12 12 0 0 1-1.46-.26Z" transform="translate(-428.737 -670.795)"/><path id="Path_190" d="M381.44 694.8a7 7 0 0 0-1.24-2.8 3.6 3.6 0 0 0-3.66-1.2 3.3 3.3 0 0 0-2.83 2.45 3.9 3.9 0 0 0 1.35 4.3 13 13 0 0 0 2.88 1.67c.91.42 1.84.82 2.73 1.29 1.75.93 3.05 2.21 3.06 4.36 0 2.36-.73 4.46-2.9 5.63-3.35 1.8-6.72 1.21-10.02-.26a.8.8 0 0 1-.46-.75l-.29-4.52a1.4 1.4 0 0 1 1.02-.32 28 28 0 0 0 .88 3.27c.67 1.57 2.75 2.54 5.16 2.37a3.74 3.74 0 0 0 3.65-2.73 3.4 3.4 0 0 0-1.24-3.82 16 16 0 0 0-3.28-1.78 16 16 0 0 1-3.08-1.73 6.1 6.1 0 0 1-2.25-6.6c.69-2.48 2.52-3.7 4.94-4.22 1.97-.42 3.86.15 5.77.46.45.07.5.38.53.75l.27 3.33c.07.83.06.83-.99.84Z" transform="translate(-292.837 -545.43)"/><path id="Path_191" d="m693.33 707.2-1.35 5.85h-15.01c-.29-1.01-.29-1.01.7-1.2l2.04-.39V693.4l-2.8-.54a1.3 1.3 0 0 1-.04-1.04h8.76c.22.3.12.6.1 1.02l-2.88.55v17.82h7.23c.4 0 .5-.3.63-.58.4-.93.82-1.84 1.17-2.79.25-.68.63-.94 1.44-.64Z" transform="translate(-535.555 -547.452)"/><path id="Path_192" d="M577.69 59.66a15 15 0 0 1-5.74.71 21.3 21.3 0 0 1-10.47-3.08 7.5 7.5 0 0 1-3.67-4.7c5.95-1.87 15.89 1.43 19.88 7.07" transform="translate(-441.407 -41.202)"/><path id="Path_193" d="M358.28 56.8c3.08-5.34 13.75-9.8 19.47-8.12a5.8 5.8 0 0 1-1.89 3.67 18 18 0 0 1-8.92 4.44 18 18 0 0 1-7.86.25q-.4-.1-.8-.23" transform="translate(-283.515 -38.24)"/><path id="Path_194" d="M154.37 847.53a1.3 1.3 0 0 1 0 1c-.7.14-1.44.31-2.19.4-.52.07-.7.3-.7.8q.02 8.4 0 16.79c0 .54.24.74.73.8s.95.2 1.44.23c.76.05.95.43.75 1.19h-8.89c-.34-.9.11-1.13.92-1.23a5 5 0 0 0 1.92-.44v-18l-2.88-.54c-.05-.54-.32-1.12.58-1.12l8.03.02a1 1 0 0 1 .29.1" transform="translate(-115.054 -670.574)"/><path id="Path_195" d="M540.92 1.24c8.14.86 14.57 5.3 15.2 10.52a2.6 2.6 0 0 1-1.58-.14 27 27 0 0 1-9.35-3.34 8.6 8.6 0 0 1-4.2-5.33 3.4 3.4 0 0 1-.07-1.71" transform="translate(-427.973 -.981)"/><path id="Path_196" d="M475.04 608.03a4 4 0 0 1-2 .52 2.5 2.5 0 0 1-2.28-1.83 2.8 2.8 0 0 1 4.58-2.82c1.97 1.72 1.6 6-.63 7.34a2.8 2.8 0 0 1-2.5.29 1.2 1.2 0 0 1-.81-.74c-.13-.4-.1-.8.36-.94.4-.13.67.08.78.48s.07.91.63.94a1.4 1.4 0 0 0 1.21-.86 5 5 0 0 0 .66-2.39Zm.06-1.35a5.3 5.3 0 0 0-.68-2.58 1.11 1.11 0 0 0-1.96 0 3.4 3.4 0 0 0 .44 3.6 1.3 1.3 0 0 0 1.54.23 1 1 0 0 0 .66-1.26Zm.02-2.05a10 10 0 0 1-.45 6.1c1.57-1.8 1.72-4.59.45-6.1m-3.42-.33c-1.18 1.49-.84 3.14.7 3.64-1.05-1.04-.97-2.26-.7-3.64" transform="translate(-372.453 -477.327)"/><path id="Path_197" d="M449.33 611.47h-3.67c1.39-.54 1.11-1.73 1.13-2.79q-.02-1.35 0-2.7c.03-.96-.03-1.83-1.41-2.02a15 15 0 0 1 2.85-.7v3.95c0 .7.04 1.4 0 2.08a1.9 1.9 0 0 0 1.1 2.19Zm-2.46-7.64a40 40 0 0 1 .16 7.26c.22.01.52.12.62.05v-7.32a2 2 0 0 0-.78 0Z" transform="translate(-352.439 -477.365)"/><path id="Path_198" d="M508.17 605.41c-1.6.12-3.02-.38-4.24.77l.67-1.92h4.73a11.4 11.4 0 0 0-2.44 7.95 3 3 0 0 1-1.61 0c0-2.56 1.16-4.63 2.89-6.8m-1.59 3.12a6 6 0 0 0-.96 2.8c-.02.2-.13.51.25.56s.36-.22.36-.46c-.01-.98.27-1.92.35-2.9m1.75-3.9c-1.18-.08-2.39-.36-3.52.2a17 17 0 0 0 3.52-.2" transform="translate(-398.771 -478.164)"/><path id="Path_199" d="M534.18 612.14a4 4 0 0 1-1.7.06c0-2.58 1.15-4.69 2.9-6.83-1.6.13-2.98-.42-4.14.92a5 5 0 0 1 .61-2.1h4.71a10.5 10.5 0 0 0-2.38 7.95m-.05-4.4a7.6 7.6 0 0 0-1.3 3.57c-.02.23-.1.52.27.54s.34-.28.34-.52a14 14 0 0 1 .69-3.6m1.41-2.97-.02-.36c-1.18.13-2.4-.25-3.52.36Z" transform="translate(-420.381 -478.117)"/><path id="Path_200" d="M160.6 665.67a1.65 1.65 0 0 1-1.6-1.6 1.63 1.63 0 0 1 1.57-1.62 1.6 1.6 0 0 1 1.64 1.64 1.64 1.64 0 0 1-1.62 1.57" transform="translate(-125.82 -524.21)"/><path id="Path_201" d="M486.5 818.47a1.6 1.6 0 0 1-.08 3.2 1.6 1.6 0 1 1 .09-3.2Z" transform="translate(-383.662 -647.671)"/><path id="Path_202" d="M461.32 818.47a1.66 1.66 0 0 1 1.66 1.54 1.6 1.6 0 0 1-1.62 1.67 1.6 1.6 0 0 1-.04-3.21" transform="translate(-363.849 -647.673)"/><path id="Path_203" d="M185.79 665.67a1.7 1.7 0 0 1-1.64-1.56 1.7 1.7 0 0 1 1.65-1.65 1.6 1.6 0 0 1 1.56 1.6 1.6 1.6 0 0 1-1.57 1.61" transform="translate(-145.72 -524.219)"/><path id="Path_204" d="M396.24 316.97a16.5 16.5 0 0 1-.28 9.1 6 6 0 0 0 2.23-1.67c.3-.32.15-.65.06-.98a11 11 0 0 1 .83-8.19 3.5 3.5 0 0 1 1.12-1.55 21 21 0 0 1 .52 4.5 23 23 0 0 1-.49 4.57c.92-.95 1.54-1.6 1.4-2.91a11.7 11.7 0 0 1 3.32-9.9c1 3.28-.24 6.03-1.27 8.84a13 13 0 0 0 1.85-2.9 25 25 0 0 1 3.53-5.52c1.1-1.17 1.8-1.54 2.95-1.46-.53 4.55-3.27 7.67-6.55 10.5 2.57-1.04 5.05-2.31 8.12-2.37a11 11 0 0 1-5.49 4.35 18 18 0 0 1-4.77 1.02 2.3 2.3 0 0 0-1.94 1.43 15 15 0 0 1 9.21 1.82c-3.49 1-6.71 1.97-9.97.14a1.67 1.67 0 0 0-2.38.44 13 13 0 0 1-1.24 1.12 27 27 0 0 1 8.73 3.4c-4.03 1.23-7.3-.09-10.4-2.23l-3.52 1.9c3.1 1.02 5.89 2.17 8.22 4.54a10.2 10.2 0 0 1-8.75-2.56c-1.3-1.15-1.28-1.17-2.8-.32-2.7 1.53-3.4 4.05-3.13 6.85.1 1.02.87 1.35 1.76 1.44a8 8 0 0 0 2.86-.46c1-.28 1.99-.62 3-.84a3.86 3.86 0 0 1 4.54 2.07q-.1.08-.16.1a7.8 7.8 0 0 0-6.53.67 6.3 6.3 0 0 1-3.84.82 3.4 3.4 0 0 0 1.69.4 13 13 0 0 1 3 .18 1.5 1.5 0 0 1 1.34 1.52c-3.02-.44-6.1.77-8.98-.93a3.8 3.8 0 0 1-1.47 3.46c.02-1.41-.8-2.41-1.1-3.68-2.72 1.58-5.79.3-8.59 1.3a2.5 2.5 0 0 1 2.55-2.05c.86-.06 1.74-.02 2.6-.11a1.6 1.6 0 0 0 1.24-.56c-2.8.22-5.33-.74-7.97-.97-1.2-.1-2.04.18-3.99 1.37a4 4 0 0 1 2.04-2.56 7 7 0 0 1 5.07-.46 16 16 0 0 0 3.5.57 2.48 2.48 0 0 0 2.7-2.65 6.3 6.3 0 0 0-4.85-5.7c-.45-.07-.6.27-.84.49a11.6 11.6 0 0 1-8.92 2.97 1 1 0 0 1-.8-.3c1.9-2.89 4.96-3.6 8.39-4.29-1.3-.69-2.33-1.26-3.38-1.79-.37-.18-.65.16-.93.33a15.3 15.3 0 0 1-7.6 2.26 4 4 0 0 1-1.74-.21c2.03-2.63 4.93-3.24 8-3.73-.53-.62-1.29-.9-1.72-1.58a13 13 0 0 1-5.6 1.04 17 17 0 0 1-5.82-1.15c2.88-1.93 5.91-1.8 9.12-1.56a4 4 0 0 0-2.9-1.52 11.3 11.3 0 0 1-9.7-5.74 25 25 0 0 1 7.38 2.82 20.5 20.5 0 0 1-5.37-10.62 6 6 0 0 1 2.82 1.6 21 21 0 0 1 3.06 5.07 41 41 0 0 0 1.93 3.81 46 46 0 0 1-1.07-4.53 12 12 0 0 1-.02-4.77c.4-.04.53.29.7.51a13.7 13.7 0 0 1 2.71 9.4c-.12 1.8.12 2.33 1.97 3.06a14.4 14.4 0 0 1-.24-9.1 4 4 0 0 1 1.21 1.66 13 13 0 0 1 1.07 7.33c-.25 1.93-.25 2.02 1.75 3.06a21 21 0 0 1-.22-8.88c.5-.02.6.38.76.66a12.5 12.5 0 0 1 1.4 8.36 1.34 1.34 0 0 0 .8 1.73 11 11 0 0 0 2.27.94c-1.58-2.72-2.65-5.42-1.87-8.63a10.6 10.6 0 0 1 3.52 6.58 4 4 0 0 1 .15 1.23c-.2 1.42.57 2.04 1.77 2.49a12 12 0 0 1 4 2.19c.42-1.3.4-1.38-.74-1.94a10 10 0 0 1-5.34-6.59c-.07-.25-.23-.52-.06-.8 2.02.5 3.89 2.09 6.18 5.27a1.93 1.93 0 0 0-1.04-2.98 10.6 10.6 0 0 1-5.82-6.65c3.16.8 5.17 2.85 7 5.2.2-1.55.03-1.92-1.1-2.72a14.8 14.8 0 0 1-5.73-7.15 6.2 6.2 0 0 1 3.83 2.07c1.05 1.06 1.8 2.37 2.8 3.57a1.4 1.4 0 0 0-.54-1.8 12 12 0 0 1-4.43-7.67q-.06-.47-.09-.94c-.03-.47 0-.6 0-1.14 2.03 1.74 3.05 3.94 4.33 5.99-.21-2.67-.13-5.26 1.41-7.79 1.72 2.75 1.17 5.56.94 8.59 1.48-2.57 2.19-5.4 5.03-6.96a18 18 0 0 1-3.3 8.97c1.35-1.34 2.57-2.78 4.55-3.54a12 12 0 0 1-5.24 7.98c-.92.62-1.06 1.3-.9 2.48 1.88-2.42 3.74-4.6 6.54-5.9a7 7 0 0 1-.96 2.88 10 10 0 0 1-4.55 4.3c-.85.42-1.21.9-1 1.83.09.35.02.74.12 1.17a13.4 13.4 0 0 1 6.12-5.48 9.2 9.2 0 0 1-2.28 5.35 9 9 0 0 1-2.85 2.24c-1.06.49-1.04 1.2-.82 2.25a19 19 0 0 1 5.2-3.14c.63-.29.49-.77.48-1.23a12 12 0 0 1 2.44-7.39 2 2 0 0 1 .94-.86 13.3 13.3 0 0 1-1.5 8.37 7 7 0 0 0 3-1.82.9.9 0 0 0 .18-.98c-1.04-2.26-.3-4.44.33-6.6a4.2 4.2 0 0 1 1.34-2.52Z" transform="translate(-277.999 -242.928)"/></g></g></g></svg>