<svg xmlns="http://www.w3.org/2000/svg" xmlns:xlink="http://www.w3.org/1999/xlink" width="600" height="300" viewBox="0 0 600 300">
  <defs>
    <clipPath id="clip-Custom_Size_1">
      <rect width="600" height="300"/>
    </clipPath>
  </defs>
  <g id="Custom_Size_1" data-name="Custom Size – 1" clip-path="url(#clip-Custom_Size_1)">
    <rect width="600" height="300" fill="#e8eff3"/>
    <g id="KI_digital_logotyp_positiv_RGB" transform="translate(63.09 31.315)">
      <g id="Group_24" data-name="Group 24" transform="translate(223.487 72.817)">
        <path id="Path_205" data-name="Path 205" d="M614.581,246.79l-7.983-19.1h-.112v19.1H599.1V209.3h7.386v17.458h.112L614.73,209.3h7.349l-8.654,17.384L622.9,246.79Z" transform="translate(-599.1 -204.04)" fill="#870052"/>
        <g id="Group_23" data-name="Group 23">
          <path id="Path_206" data-name="Path 206" d="M681.129,244.348c-4.514.6-6.752,2.126-6.752,6.379,0,2.984,1.455,4.7,4.253,4.7a7.047,7.047,0,0,0,2.5-.485V244.348ZM678.294,260.2c-7.05,0-10.594-3.395-10.594-9.214,0-7.535,5.558-9.848,13.392-10.893v-.97c0-2.76-1.641-4.066-4.215-4.066a13.808,13.808,0,0,0-6.23,1.529l-1.455-4.626a18.278,18.278,0,0,1,9.065-2.164c5.484,0,9.662,2.723,9.662,10.781v17.5c-2.126,1.306-5.073,2.126-9.624,2.126" transform="translate(-642.11 -216.893)" fill="#870052"/>
          <path id="Path_207" data-name="Path 207" d="M750.3,235.464a5.677,5.677,0,0,0-4.849-.112v24.21H738.4V231.808c2.686-1.567,6.416-2.462,13.206-2.126Z" transform="translate(-686.436 -216.775)" fill="#870052"/>
          <path id="Path_208" data-name="Path 208" d="M789.344,234.86c-3.1,0-3.656,4.476-3.656,9.811s.6,9.7,3.656,9.7c3.171,0,3.693-4.365,3.693-9.662,0-5.334-.56-9.848-3.693-9.848m0,25.217c-7.2,0-10.744-6.528-10.744-15.257s3.544-15.22,10.744-15.22c7.237,0,10.743,6.491,10.743,15.22-.037,8.729-3.507,15.257-10.743,15.257" transform="translate(-711.64 -216.768)" fill="#870052"/>
          <path id="Path_209" data-name="Path 209" d="M851.1,237.95V197.289l7.125-2.089v42.75Z" transform="translate(-757.095 -195.2)" fill="#870052"/>
          <path id="Path_210" data-name="Path 210" d="M886.961,210.222h7.088V239.58h-7.088Zm3.506-4.812a3.838,3.838,0,0,1-3.768-3.8,3.789,3.789,0,0,1,3.768-3.8,3.837,3.837,0,0,1,3.88,3.8,3.886,3.886,0,0,1-3.88,3.8" transform="translate(-779.414 -196.83)" fill="#870052"/>
          <path id="Path_211" data-name="Path 211" d="M936.841,259.518V238.739c0-2.574-1.044-3.992-3.544-3.992a5.573,5.573,0,0,0-2.947.56v24.21H923.3V231.764a20.833,20.833,0,0,1,10.147-2.164c7.2,0,10.52,2.947,10.52,9.139v20.778Z" transform="translate(-802.361 -216.768)" fill="#870052"/>
          <path id="Path_212" data-name="Path 212" d="M998.612,260.14c-3.32,0-5.633-.709-7.312-2.164l1.753-5.185a7.169,7.169,0,0,0,4.476,1.641,2.744,2.744,0,0,0,3.059-2.723c0-2.126-.933-2.984-3.544-4.961-2.76-2.089-5.222-4.626-5.222-8.505,0-5,3.32-8.543,8.244-8.543a11.265,11.265,0,0,1,7.2,2.164l-1.679,4.514a5.678,5.678,0,0,0-3.88-1.418,2.725,2.725,0,0,0-2.835,2.76c0,1.9,1.38,3.059,3.992,4.961,3.059,2.276,5.222,4.4,5.222,8.729-.075,5.036-4.029,8.729-9.475,8.729" transform="translate(-844.995 -216.83)" fill="#870052"/>
          <path id="Path_213" data-name="Path 213" d="M1064.023,237.95l-7.461-15.369h-.112V237.95h-7.05V197.289l7.05-2.089v26.859h.112l7.5-13.467h6.976l-8.169,13.467,8.766,15.891Z" transform="translate(-881.421 -195.2)" fill="#870052"/>
          <path id="Path_214" data-name="Path 214" d="M1128.192,244.348c-4.551.6-6.752,2.126-6.752,6.379,0,2.984,1.455,4.7,4.253,4.7a7.046,7.046,0,0,0,2.5-.485V244.348Zm-2.835,15.854c-7.013,0-10.557-3.395-10.557-9.214,0-7.535,5.558-9.848,13.429-10.893v-.97c0-2.76-1.641-4.066-4.215-4.066a13.516,13.516,0,0,0-6.192,1.529l-1.455-4.626a18.277,18.277,0,0,1,9.065-2.164c5.521,0,9.624,2.723,9.624,10.781v17.5c-2.2,1.306-5.148,2.126-9.7,2.126" transform="translate(-922.425 -216.893)" fill="#870052"/>
          <rect id="Rectangle_14" data-name="Rectangle 14" width="7.461" height="37.49" transform="translate(0 51.33)" fill="#870052"/>
          <path id="Path_215" data-name="Path 215" d="M650.1,383.118V362.339c0-2.574-1.044-3.992-3.544-3.992a5.659,5.659,0,0,0-2.947.56v24.21H636.6V355.364a20.833,20.833,0,0,1,10.147-2.164c7.2,0,10.52,2.947,10.52,9.139v20.778Z" transform="translate(-622.611 -294.26)" fill="#870052"/>
          <path id="Path_216" data-name="Path 216" d="M711.812,383.577c-3.32,0-5.633-.709-7.312-2.2l1.753-5.185a6.959,6.959,0,0,0,4.476,1.641c1.865,0,3.059-1.082,3.059-2.723,0-2.126-.933-2.984-3.544-4.961-2.76-2.052-5.222-4.626-5.222-8.505,0-5.036,3.32-8.543,8.244-8.543a11.191,11.191,0,0,1,7.2,2.164l-1.679,4.514a5.947,5.947,0,0,0-3.88-1.418,2.734,2.734,0,0,0-2.835,2.8c0,1.9,1.343,3.059,3.954,4.961,3.059,2.276,5.223,4.4,5.223,8.729,0,5.036-3.992,8.729-9.438,8.729" transform="translate(-665.182 -294.197)" fill="#870052"/>
          <path id="Path_217" data-name="Path 217" d="M769.335,369.948c-4.812,0-7.423-3.283-7.423-8.431v-16H759.3v-5.3h2.611v-6.379L769,331.6v8.617h3.88v5.3H769v15.257c0,2.723.933,3.656,2.387,3.656a4.417,4.417,0,0,0,1.455-.261v5a6.943,6.943,0,0,1-3.507.783" transform="translate(-699.539 -280.718)" fill="#870052"/>
          <path id="Path_218" data-name="Path 218" d="M808.2,333.722h7.088v29.4H808.2Zm3.469-4.812a3.813,3.813,0,0,1-3.768-3.8,3.765,3.765,0,0,1,3.768-3.8,3.806,3.806,0,1,1,0,7.61" transform="translate(-730.01 -274.26)" fill="#870052"/>
          <path id="Path_219" data-name="Path 219" d="M851.435,369.948c-4.812,0-7.423-3.283-7.423-8.431v-16H841.4v-5.3h2.611v-6.379L851.1,331.6v8.617h3.88v5.3H851.1v15.257c0,2.723.933,3.656,2.387,3.656a4.622,4.622,0,0,0,1.455-.261v5a6.943,6.943,0,0,1-3.507.783" transform="translate(-751.013 -280.718)" fill="#870052"/>
          <path id="Path_220" data-name="Path 220" d="M900.8,384.518c-6.528,0-10.3-2.835-10.3-10.184V354.6h7.088v20.554c0,2.35,1.156,3.8,3.432,3.8a5.7,5.7,0,0,0,2.835-.709V354.6h7.125v27.642c-2.126,1.343-5.558,2.276-10.184,2.276" transform="translate(-781.797 -295.138)" fill="#870052"/>
          <path id="Path_221" data-name="Path 221" d="M968.735,369.948c-4.775,0-7.423-3.283-7.423-8.431v-16H958.7v-5.3h2.611v-6.379L968.4,331.6v8.617h3.88v5.3H968.4v15.257c0,2.723.933,3.656,2.387,3.656a4.417,4.417,0,0,0,1.455-.261v5a6.944,6.944,0,0,1-3.507.783" transform="translate(-824.556 -280.718)" fill="#870052"/>
          <path id="Path_222" data-name="Path 222" d="M1015.393,358.311c-2.611,0-4.327,3.581-4.253,8.766l7.946-.97c0-4.961-1.082-7.8-3.693-7.8m-3.842,13.355c.448,4.253,2.276,6.379,5.782,6.379a11.573,11.573,0,0,0,6.155-1.529l1.567,4.961c-1.865,1.306-4.738,2.2-8.692,2.2-7.722,0-11.863-5.745-11.863-15.332,0-8.841,4.029-15.145,11-15.145,7.423,0,11,6.342,10.445,16.675Z" transform="translate(-853.271 -294.26)" fill="#870052"/>
          <path id="Path_223" data-name="Path 223" d="M1082.335,369.948c-4.812,0-7.423-3.283-7.423-8.431v-16H1072.3v-5.3h2.611v-6.379L1082,331.6v8.617h3.88v5.3H1082v15.257c0,2.723.932,3.656,2.387,3.656a4.887,4.887,0,0,0,1.492-.261v5a7.118,7.118,0,0,1-3.544.783" transform="translate(-895.779 -280.718)" fill="#870052"/>
        </g>
      </g>
      <g id="Group_27" data-name="Group 27">
        <g id="Group_26" data-name="Group 26" transform="translate(37.257 37.972)">
          <g id="Group_25" data-name="Group 25">
            <path id="Path_224" data-name="Path 224" d="M149.732,443.785l-2.052-.373a1.616,1.616,0,0,0-.187-.037,1.925,1.925,0,0,0-.41-.075.728.728,0,0,0-.783.709.779.779,0,0,0,.485.746.949.949,0,0,0,.261.075.473.473,0,0,0,.224-.037l2.462-.6Z" transform="translate(-128.981 -315.904)" fill="#870052"/>
            <path id="Path_225" data-name="Path 225" d="M151.279,435.709c-.037-.037-.075-.112-.112-.149a.869.869,0,0,0-.783-.56.757.757,0,0,0-.783.746c0,.485.41.709.671.858l1.865,1.156.261-.3Z" transform="translate(-131.05 -310.7)" fill="#870052"/>
            <path id="Path_226" data-name="Path 226" d="M157.492,444.31a1.455,1.455,0,0,0-.037-2.91A1.481,1.481,0,0,0,156,442.855a1.465,1.465,0,0,0,1.492,1.455" transform="translate(-135.063 -314.713)" fill="#870052"/>
            <path id="Path_227" data-name="Path 227" d="M158.807,449.6h-.448l-.448,2.126a2.973,2.973,0,0,0-.112.56.8.8,0,0,0,.746.746.846.846,0,0,0,.821-.746,2.372,2.372,0,0,0-.112-.56Z" transform="translate(-136.191 -319.854)" fill="#870052"/>
            <path id="Path_228" data-name="Path 228" d="M164.552,450.735a.765.765,0,0,0,.783-.783.85.85,0,0,0-.6-.783c-.037-.037-.075-.037-.112-.075L162.8,447.9l-.3.3,1.38,2.126a.769.769,0,0,0,.671.41" transform="translate(-139.138 -318.788)" fill="#870052"/>
            <path id="Path_229" data-name="Path 229" d="M166.986,444.792a.747.747,0,1,0-.037-1.492,2.539,2.539,0,0,0-.56.075l-2.089.41v.448l2.089.485a.224.224,0,0,1,.149.037h0v0c.149,0,.3.037.448.037" transform="translate(-140.266 -315.904)" fill="#870052"/>
            <path id="Path_230" data-name="Path 230" d="M164.7,436.667h0c.3-.187.6-.373.6-.821a.748.748,0,0,0-.746-.746.911.911,0,0,0-.821.6c-.037.037-.037.075-.075.112L162.5,437.6l.3.3,1.753-1.119c.075-.075.112-.075.149-.112" transform="translate(-139.138 -310.763)" fill="#870052"/>
            <path id="Path_231" data-name="Path 231" d="M158.8,435.232l.448-2.089a.282.282,0,0,1,.037-.149,1.925,1.925,0,0,0,.075-.41.821.821,0,0,0-.821-.783.729.729,0,0,0-.709.485.831.831,0,0,0,0,.522l.522,2.387.448.037Z" transform="translate(-136.182 -308.694)" fill="#870052"/>
            <path id="Path_232" data-name="Path 232" d="M150.471,449.156h0c-.037.037-.075.037-.112.075a.915.915,0,0,0-.56.783.748.748,0,0,0,.746.746.783.783,0,0,0,.746-.448l1.343-2.052L152.3,448Z" transform="translate(-131.176 -318.851)" fill="#870052"/>
            <path id="Path_233" data-name="Path 233" d="M460.295,443.785l-2.052-.373a.224.224,0,0,1-.149-.037,2.436,2.436,0,0,0-.41-.075.748.748,0,0,0-.783.709.779.779,0,0,0,.485.746.949.949,0,0,0,.261.075.635.635,0,0,0,.261-.037l2.387-.6Z" transform="translate(-323.716 -315.904)" fill="#870052"/>
            <path id="Path_234" data-name="Path 234" d="M461.841,435.709a.283.283,0,0,1-.075-.149h0a.869.869,0,0,0-.783-.56.757.757,0,0,0-.783.746c0,.448.373.671.671.858l1.865,1.156.261-.3Z" transform="translate(-325.785 -310.7)" fill="#870052"/>
            <path id="Path_235" data-name="Path 235" d="M467.892,444.31a1.455,1.455,0,0,0-.037-2.91,1.455,1.455,0,1,0,.037,2.91" transform="translate(-329.672 -314.713)" fill="#870052"/>
            <path id="Path_236" data-name="Path 236" d="M469.27,449.6h-.448l-.448,2.126v.075h0a2.232,2.232,0,0,0-.075.448.8.8,0,0,0,.746.746.816.816,0,0,0,.821-.746,2.518,2.518,0,0,0-.075-.522Z" transform="translate(-330.863 -319.854)" fill="#870052"/>
            <path id="Path_237" data-name="Path 237" d="M477.449,443.2c-.149,0-.485.075-.56.075l-2.089.41v.448l2.089.485a.282.282,0,0,1,.149.037,1.6,1.6,0,0,0,.448.075.8.8,0,0,0,.746-.746.814.814,0,0,0-.783-.783" transform="translate(-334.938 -315.842)" fill="#870052"/>
            <path id="Path_238" data-name="Path 238" d="M475.238,449.231h0c-.037-.037-.075-.037-.112-.075L473.3,448l-.3.261,1.38,2.126a.739.739,0,0,0,.671.373.788.788,0,0,0,.783-.783c0-.41-.3-.6-.6-.746" transform="translate(-333.81 -318.851)" fill="#870052"/>
            <path id="Path_239" data-name="Path 239" d="M475.2,436.667h0c.3-.187.6-.373.6-.821a.748.748,0,0,0-.746-.746.861.861,0,0,0-.821.6c-.037.037-.037.075-.075.112L473,437.6l.3.3,1.753-1.119c.075-.075.112-.112.149-.112" transform="translate(-333.81 -310.763)" fill="#870052"/>
            <path id="Path_240" data-name="Path 240" d="M460.871,449.094h0c-.037.037-.075.037-.112.075a.915.915,0,0,0-.56.783.717.717,0,0,0,.746.709.783.783,0,0,0,.746-.448l1.343-2.052-.336-.261Z" transform="translate(-325.785 -318.788)" fill="#870052"/>
            <path id="Path_241" data-name="Path 241" d="M469.36,435.132l.448-2.089a.137.137,0,0,1,.037-.112,2.235,2.235,0,0,0,.075-.448.814.814,0,0,0-.783-.783.783.783,0,0,0-.709.485.952.952,0,0,0,0,.56l.522,2.35.41.037Z" transform="translate(-330.916 -308.631)" fill="#870052"/>
            <path id="Path_242" data-name="Path 242" d="M254.764,110.3l1.044-4.215c.149.3.6,1.156,1.94,3.88Zm-20.517-1.9h0a2.531,2.531,0,0,1,.634-.149c.485-.075.671.112.858.6.224.522.373.933,1.194,3.395l1.045,3.1.075.261c.485,1.418.9,2.649,1.045,3.32.112.485.112.783-.075.9l-.56.261c-.075.037-.3.112-.336.3a.364.364,0,0,0,.149.336.285.285,0,0,0,.187.075,1.153,1.153,0,0,0,.3-.075l2.089-.783,2.425-.783a.738.738,0,0,0,.373-.261.315.315,0,0,0,0-.261.386.386,0,0,0-.448-.149l-.821.224c-.187.037-.485,0-.709-.6-.3-.671-.709-1.94-1.231-3.432l-.41-1.268c.671.448,5.111,3.1,6.081,3.507a3.491,3.491,0,0,0,2.574.373l1.156-.373a19.267,19.267,0,0,1,2.872-.522l1.865-.149a.433.433,0,0,0,.373-.149.539.539,0,0,0,.075-.261.322.322,0,0,0-.112-.224.559.559,0,0,0-.373-.075l-.261.037a.513.513,0,0,1-.448-.075c-.075-.037-.112-.112-.112-.261a3.24,3.24,0,0,1,.149-1.045l.671-2.611v-.037l3.917-.448h0l1.828,3.544a.116.116,0,0,1,.037.075v.075h-.037c-.075.037-.373.075-.336.373s.336.261.634.224l3.395-.336c.6-.075.783-.112.9-.261h0a.279.279,0,0,0,.037-.187c0-.075-.037-.112-.037-.149-.037-.075-.149-.149-.373-.112h-.709c-.373-.037-.858-.3-1.641-1.641l-5.6-10.3c-.224-.373-.373-.634-.671-.6s-.41.336-.56.9l-3.245,11.6a2.528,2.528,0,0,1-.671,1.38,3.2,3.2,0,0,1-1.231.112,7.729,7.729,0,0,1-2.76-.9l-.187-.075c-.821-.373-4.961-2.611-6.081-3.283.485-.97,2.014-4.066,2.313-4.7A6.112,6.112,0,0,1,244.8,105a2.905,2.905,0,0,1,.858-.485.815.815,0,0,0,.187-.112.29.29,0,0,0,.112-.261.321.321,0,0,0-.3-.3h0c-.075,0-.187.037-.261.037l-1.94.709-1.753.522a.194.194,0,0,0-.149.075.3.3,0,0,0-.187.3.266.266,0,0,0,.112.224.49.49,0,0,0,.373.112c.037,0,.112,0,.149.149v.112a4.246,4.246,0,0,1-.336,1.119l-.075.187c-.149.373-.671,1.492-1.38,3.022l-.709,1.567-.149-.485c-.858-2.5-1.007-2.947-1.156-3.469a1.377,1.377,0,0,1-.075-.485.435.435,0,0,1,.3-.448l.448-.187a.484.484,0,0,0,.261-.187h.037v-.149a.226.226,0,0,0-.112-.224l-.037-.037a.76.76,0,0,0-.485.037l-1.977.746-2.387.746c-.187.075-.522.187-.41.485.037.112.187.187.485.075" transform="translate(-183.803 -101.791)" fill="#870052"/>
            <path id="Path_243" data-name="Path 243" d="M298.931,513.474a4.772,4.772,0,0,1-3.395-1.492,7.008,7.008,0,0,1-1.641-5.073,6,6,0,0,1,1.492-4.253,3.986,3.986,0,0,1,2.686-.97h.149a4.448,4.448,0,0,1,3.208,1.455,6.777,6.777,0,0,1,1.6,4.924h0c-.037,1.641-.522,5.409-3.954,5.409h-.149m-.149-12.982h0c-5.111-.149-7.573,3.432-7.685,6.864a7.486,7.486,0,0,0,1.6,4.887,7.129,7.129,0,0,0,5.446,2.425h.336a7.332,7.332,0,0,0,5.111-1.9,7.532,7.532,0,0,0,2.276-5.26c.112-4.178-2.611-6.864-7.088-7.013" transform="translate(-219.762 -351.759)" fill="#870052"/>
            <path id="Path_244" data-name="Path 244" d="M360.767,506.984h0c-.149.037-.9.149-1.156.187-.448.037-.56-.112-.746-.634-.261-.746-.634-2.238-1.007-3.8l-.783-3.171c-.522-2.089-.821-3.544-.97-4.178l-.075-.3c-.037-.187-.112-.336-.224-.373a.306.306,0,0,0-.261-.037c-.187.037-.336.224-.485.373-.485.6-3.171,3.507-3.283,3.581l-.037.037a.631.631,0,0,0-.149.448.4.4,0,0,0,.224.224.468.468,0,0,0,.41-.112l.448-.336a8.876,8.876,0,0,1,1.268-.933c.075,0,.112-.037.224.41v.037c.037.112.149.522.56,2.238l.671,2.723c.41,1.641.746,3.1.9,3.842.075.522.037.709-.373.9a9.085,9.085,0,0,1-1.306.448.248.248,0,0,0-.187.149.339.339,0,0,0-.037.3.307.307,0,0,0,.336.224.28.28,0,0,0,.187-.037l2.91-.783,2.872-.671a.429.429,0,0,0,.336-.224.337.337,0,0,0,0-.373c-.037-.149-.261-.149-.261-.149" transform="translate(-257.687 -348.104)" fill="#870052"/>
            <path id="Path_245" data-name="Path 245" d="M377.211,491.2a1.957,1.957,0,0,1-.373-.41h0l-.037-.037a2.219,2.219,0,0,1-.149-.3,2.008,2.008,0,0,1-.149-.821,1.366,1.366,0,0,1,.149-.671,1.94,1.94,0,0,1,1.119-1.044,1.793,1.793,0,0,1,2.387,1.119,2.6,2.6,0,0,1-.485,2.91,5,5,0,0,1-2.425-.746Zm6.267,6.565a2.153,2.153,0,0,1-1.231,1.194,2.462,2.462,0,0,1-3.208-1.455,3.648,3.648,0,0,1,.56-3.73c1.679.224,3.208.448,3.842,2.014a2.784,2.784,0,0,1,.037,1.977m-2.313-5.782h0a3.743,3.743,0,0,0,.97-3.954,2.462,2.462,0,0,0-1.38-1.418,4.1,4.1,0,0,0-3.208.224c-2.649,1.082-2.947,2.947-2.947,3.693a2.676,2.676,0,0,0,.224,1.082c.485,1.194,1.567,1.865,3.395,2.089-.149.187-.336.373-.485.56a4.813,4.813,0,0,0-1.119,2.872,3.372,3.372,0,0,0,.261,1.38,3.313,3.313,0,0,0,1.791,1.828,3.991,3.991,0,0,0,1.529.3,6.247,6.247,0,0,0,2.35-.522,5.041,5.041,0,0,0,2.91-2.686,3.681,3.681,0,0,0,0-2.947c-.858-2.089-3.208-2.387-4.29-2.5" transform="translate(-272.117 -342.911)" fill="#870052"/>
            <path id="Path_246" data-name="Path 246" d="M412.525,485.092h0a.473.473,0,0,0-.224.037,8.552,8.552,0,0,1-1.007.485c-.448.149-.6.037-.9-.373-.448-.6-1.156-1.791-1.94-3.059l-1.865-3.059-2.164-3.768-.112-.224a.637.637,0,0,0-.373-.336c-.336-.037-.56.448-.6.56-.3.671-2.014,4.29-2.089,4.4a.391.391,0,0,0,0,.485.446.446,0,0,0,.3.149c.186,0,.336-.224.373-.224.037-.037.075-.112.336-.485a8.18,8.18,0,0,1,.933-1.231l.075-.037c.075.037.149.187.261.373l2.649,4.365c.746,1.268,1.641,2.686,1.977,3.432.224.485.224.671-.075.97a13.858,13.858,0,0,1-1.119.821.277.277,0,0,0-.075.448.282.282,0,0,0,.261.149.712.712,0,0,0,.3-.112l2.574-1.6,2.537-1.455a.418.418,0,0,0,.261-.3.412.412,0,0,0-.037-.261,2.145,2.145,0,0,0-.261-.149" transform="translate(-288.778 -335.65)" fill="#870052"/>
            <path id="Path_247" data-name="Path 247" d="M433.081,469.327a1.475,1.475,0,0,1-.56,1.082,1.87,1.87,0,0,1-1.343.41c-1.306-.112-3.1-1.38-4.775-3.395-1.6-1.94-2.462-3.656-2.35-4.812a1.579,1.579,0,0,1,.522-1.082,1.823,1.823,0,0,1,1.156-.41h.224c1.567.149,3.544,1.828,4.812,3.357,1.6,1.977,2.425,3.693,2.313,4.849m-5.745-9.96h0a4.272,4.272,0,0,0-3.208,1.082c-2.537,2.126-2.238,5.446.821,9.065,1.641,1.94,3.544,3.059,5.3,3.059a4.326,4.326,0,0,0,2.8-1.082,4.462,4.462,0,0,0,1.679-3.059c.149-1.828-.709-3.88-2.5-6.006-.709-.858-2.611-2.835-4.887-3.059" transform="translate(-302.097 -325.966)" fill="#870052"/>
            <path id="Path_248" data-name="Path 248" d="M104.483,264.075c.634-2.872,3.581-4.327,7.162-3.581,4.887,1.044,4.812,3.842,4.588,5-.634,3.022-3.693,4.588-7.386,3.8-4.551-1.007-4.663-3.693-4.365-5.223m4.327,8.02h0a7.841,7.841,0,0,0,1.6.187,6.771,6.771,0,0,0,3.469-.9,7.192,7.192,0,0,0,3.395-4.924,7.144,7.144,0,0,0-5.67-8.878,6.522,6.522,0,0,0-5.073.783,7.581,7.581,0,0,0-3.1,4.961,7.483,7.483,0,0,0,1.007,6.006,7.345,7.345,0,0,0,4.365,2.76" transform="translate(-101.974 -199.349)" fill="#870052"/>
            <path id="Path_249" data-name="Path 249" d="M116.224,229.251h0a.418.418,0,0,0,.261-.3l.3-.485c.3-.41.522-.41,1.045-.224.522.224.97.41,3.395,1.567l2.835,1.306c1.343.634,2.686,1.268,3.357,1.679.448.3.634.448.6.671a1.9,1.9,0,0,1-.149.41c-.037.075-.037.149-.075.187h0a.461.461,0,0,0-.037.373.4.4,0,0,0,.149.187c.037,0,.075.037.112.037a.137.137,0,0,0,.112-.037c.112-.037.187-.149.3-.336l.485-1.119.41-.9,1.231-2.462,1.045-2.126c.373-.821.41-1.044,0-1.418a10.85,10.85,0,0,0-1.753-1.119c-.149-.075-.41-.187-.56.075a.37.37,0,0,0,.224.485,2.343,2.343,0,0,1,.709.783c.224.522,0,1.082-.41,1.94-.6,1.231-.858,1.529-1.156,1.679-.373.187-1.6-.41-3.432-1.268l-3.357-1.567c-1.977-.933-2.387-1.119-2.835-1.38-.56-.3-.634-.485-.56-.821l.224-.634a.547.547,0,0,0,.075-.41.373.373,0,0,0-.149-.187c-.3-.149-.448.224-.522.373l-.97,2.2-1.082,2.164a.616.616,0,0,0-.075.485c-.075.112.075.261.261.187" transform="translate(-109.947 -178.291)" fill="#870052"/>
            <path id="Path_250" data-name="Path 250" d="M209.214,134.891l1.045.149c1.716.224,2.35.746,2.8,1.455a2.023,2.023,0,0,1-.97,2.723,2.28,2.28,0,0,1-2.872-.224,4.084,4.084,0,0,1-.56-.671.426.426,0,0,0-.3-.261.328.328,0,0,0-.261.037c-.3.149-.112.56-.037.746l1.119,2.052c.187.3.3.448.6.448h.187a5.758,5.758,0,0,0,2.5-.933,5.289,5.289,0,0,0,2.126-2.126,4,4,0,0,0,.41-1.716,3.63,3.63,0,0,0-.56-1.94c-.9-1.492-2.164-2.126-4.924-2.5l-.6-.075c-1.716-.187-2.387-.485-2.76-1.156a1.7,1.7,0,0,1-.224-.821,1.868,1.868,0,0,1,1.082-1.567,2.108,2.108,0,0,1,1.94-.224,1.7,1.7,0,0,1,.9.709c.112.149.187.261.3.3a.354.354,0,0,0,.373-.224c.037-.149,0-.3-.187-.6l-.9-1.6-.149-.261c-.149-.261-.41-.149-.522-.149a8.04,8.04,0,0,0-2.2.933,4.62,4.62,0,0,0-2.238,2.723,3.164,3.164,0,0,0,.373,2.462c.821,1.306,2.126,2.014,4.514,2.313" transform="translate(-165.298 -117.242)" fill="#870052"/>
            <path id="Path_251" data-name="Path 251" d="M346.54,118.246a.539.539,0,0,0,.261-.075.3.3,0,0,0,.075-.373v-.037a.721.721,0,0,0-.336-.187l-.858-.224c-.41-.112-.448-.373-.448-.783.037-.746.3-2.089.56-3.693l.522-3.208c.41-2.574.522-3.134.634-3.656.149-.634.3-.746.634-.746l.522.037c.3.037.448-.037.485-.261V105l-.037-.112-.037-.037c-.075-.112-.186-.149-.448-.187l-2.126-.3-2.238-.41a.742.742,0,0,0-.522.037.815.815,0,0,0-.112.187.4.4,0,0,0,.075.3.75.75,0,0,0,.3.149c.149.037.373.075.6.149.3.112.373.373.336.9-.037.56-.112.97-.522,3.432l-.56,3.32c-.261,1.641-.522,3.059-.709,3.768-.149.56-.3.671-.485.671l-.634-.037c-.3-.037-.448.037-.485.224-.037.112,0,.373.448.41l2.2.3,2.723.522a.405.405,0,0,1,.186-.037" transform="translate(-251.032 -103.135)" fill="#870052"/>
            <path id="Path_252" data-name="Path 252" d="M412.5,148.973a.479.479,0,0,0,.149.373,6.134,6.134,0,0,0,1.9,1.9,5.2,5.2,0,0,0,2.8,1.045h.112a3.646,3.646,0,0,0,3.134-1.679c.97-1.418,1.045-2.872.187-5.484l-.187-.6c-.522-1.641-.56-2.35-.112-2.984a1.7,1.7,0,0,1,2.537-.261,2.075,2.075,0,0,1,1.007,1.679,1.984,1.984,0,0,1-.261,1.119c-.037.037-.187.261-.112.41a.248.248,0,0,0,.149.187.341.341,0,0,0,.41-.037,3.05,3.05,0,0,0,.3-.336l1.082-1.455.187-.224a.421.421,0,0,0-.112-.522,8.082,8.082,0,0,0-1.791-1.6,4.585,4.585,0,0,0-3.395-.9,3.1,3.1,0,0,0-2.089,1.38c-.9,1.306-.97,2.76-.261,5.073l.3,1.007c.522,1.641.336,2.462-.149,3.171a1.992,1.992,0,0,1-2.872.261,2.327,2.327,0,0,1-1.007-2.723,3.868,3.868,0,0,1,.373-.783c.037-.075.149-.224.112-.373a.248.248,0,0,0-.149-.187c-.3-.187-.56.187-.671.3l-1.38,1.865a.372.372,0,0,0-.186.373" transform="translate(-295.879 -125.468)" fill="#870052"/>
            <path id="Path_253" data-name="Path 253" d="M453.1,163.883c.187.187.56.634,1.38,1.529.709.783.9,1.268.9,1.567a.561.561,0,0,1-.149.41l-.112.149c-.112.149-.224.261-.224.41a.323.323,0,0,0,.112.224c.187.187.41,0,.522-.075l.037-.037v-.037h0c.224-.187,1.082-1.007,1.455-1.343.112-.112.261-.261.261-.41a.322.322,0,0,0-.112-.224l-.41-.3c-.037-.037-.522-.448-.858-.746l-4.924-5.036a17.161,17.161,0,0,1-1.156-1.306,1.25,1.25,0,0,1-.261-.485l-.112-.187-.037-.037c-.187-.187-.448-.037-.6.075-.112.075-1.529.97-1.753,1.156-.149.149-.186.224-.186.336v.037c.037.149.112.224.186.224a.62.62,0,0,0,.41-.037,1.541,1.541,0,0,1,.6-.187c.41-.075.746.187,1.418.821l1.753,1.716c-.746.709-5.036,4.924-5.073,4.961l-.187.187a28.565,28.565,0,0,1-2.537,2.35c-.41.336-.671.41-.821.3l-.485-.373c-.224-.224-.373-.261-.522-.112a.205.205,0,0,0-.112.187.546.546,0,0,0,.224.41l1.567,1.567,1.9,2.014c.149.149.261.224.373.224a.316.316,0,0,0,.224-.075.241.241,0,0,0,.075-.187.4.4,0,0,0-.187-.336l-.56-.671a.6.6,0,0,1-.112-.336,1.064,1.064,0,0,1,.336-.634,33.988,33.988,0,0,1,2.649-2.686c3.8-3.693,4.812-4.7,5.111-5" transform="translate(-314.061 -136.946)" fill="#870052"/>
            <path id="Path_254" data-name="Path 254" d="M464.657,201.02h0c-.485.261-.671.261-.821.112l-.41-.485a.517.517,0,0,0-.3-.261.28.28,0,0,0-.187.037.252.252,0,0,0-.149.224.53.53,0,0,0,.149.41l1.268,1.791,1.492,2.313a.474.474,0,0,0,.41.261.336.336,0,0,0,.186-.037c.075-.037.224-.224,0-.56l-.448-.783c-.186-.373-.075-.6.261-.858.56-.448,1.679-1.194,3.133-2.2l3.171-2.126c1.716-1.156,2.089-1.418,2.537-1.679.56-.336.746-.3.97-.075l.336.41c.224.3.41.261.56.187a.205.205,0,0,0,.112-.187c.037-.112-.037-.261-.149-.448l-1.231-1.753-1.231-1.94c-.112-.149-.336-.485-.6-.336a.373.373,0,0,0-.149.187.4.4,0,0,0,.112.373,4.279,4.279,0,0,1,.3.522c.112.3,0,.522-.41.858-.41.3-.783.56-2.537,1.753l-3.32,2.238a30.557,30.557,0,0,1-3.059,2.052" transform="translate(-327.407 -158.975)" fill="#870052"/>
            <path id="Path_255" data-name="Path 255" d="M488.345,219.977a2.065,2.065,0,0,1,.634.037c.41.075.634.448,1.044,1.268l1.044,2.2c-.933.41-6.23,2.723-6.454,2.835l-.037.037c-1.455.634-2.723,1.194-3.395,1.418-.522.149-.783.149-.9,0l-.336-.56c-.075-.149-.187-.261-.3-.261a.4.4,0,0,0-.3.075c-.149.112-.075.336,0,.522l.933,2.014,1.082,2.537a.543.543,0,0,0,.3.336h.112a.226.226,0,0,0,.224-.112c.112-.149.037-.41.037-.448l-.3-.858c0-.075-.037-.112-.037-.187,0-.261.187-.41.56-.634.634-.373,1.9-.933,3.357-1.567l.671-.3c1.455-.634,5.111-2.238,5.857-2.574.112.3.373.9.783,1.9a3.853,3.853,0,0,1,.336,1.38.711.711,0,0,1-.336.709l-.186.075c-.187.112-.373.224-.373.373a.224.224,0,0,0,.037.149c.112.261.41.149.56.112.037,0,1.9-.783,1.9-.783.187-.075.336-.149.373-.3v-.224l-.3-.448c-.037-.037-.336-.6-.56-1.045l-2.835-6.416a16.729,16.729,0,0,1-.634-1.641,1.65,1.65,0,0,1-.075-.56l-.037-.224v-.037c-.112-.261-.41-.187-.56-.149s-1.753.373-2.052.485c-.112.037-.41.187-.3.485.037.373.224.41.448.373" transform="translate(-337.74 -175.023)" fill="#870052"/>
            <path id="Path_256" data-name="Path 256" d="M497.766,265.156c-2.238.41-3.656,1.194-4.439,2.462a5.705,5.705,0,0,0-.522,4.178,5.426,5.426,0,0,0,1.977,3.469,4.822,4.822,0,0,0,3.171,1.007,13.848,13.848,0,0,0,2.5-.261l1.94-.336c2.574-.485,3.059-.56,3.618-.634.634-.075.783.037.933.336l.149.485c.037.187.075.3.224.373a.362.362,0,0,0,.41-.075.663.663,0,0,0,.037-.485l-.41-1.977c0-.037-.224-1.343-.336-2.014a1.734,1.734,0,0,0-.112-.336.274.274,0,0,0-.3-.149c-.112,0-.187.075-.187.112a.441.441,0,0,0-.037.373l.075.6c0,.485-.187.634-.709.783-.522.112-.933.224-3.283.634l-2.574.485c-1.9.336-3.32.522-4.365-.187a3.293,3.293,0,0,1-1.306-2.126,3.226,3.226,0,0,1,.3-2.2c.6-1.044,1.716-1.641,3.917-2.052l2.537-.448c2.574-.485,3.022-.56,3.581-.634.634-.075.821.037.933.336l.149.485a.451.451,0,0,0,.224.336.282.282,0,0,0,.149.037.266.266,0,0,0,.224-.112.713.713,0,0,0,0-.485l-.448-2.126-.41-2.537c-.037-.149-.112-.56-.448-.485-.3.075-.261.41-.224.522a5.573,5.573,0,0,1,.075.634c0,.522-.187.634-.709.783s-.933.224-3.544.671Z" transform="translate(-346.117 -202.221)" fill="#870052"/>
            <path id="Path_257" data-name="Path 257" d="M510.077,314.585c-.186-.037-1.753-.448-2.052-.485-.187,0-.3,0-.41.112a.4.4,0,0,0-.075.3.427.427,0,0,0,.3.261,1.371,1.371,0,0,1,.56.3c.261.224.373.522.373,1.38v.187s-.037,1.9-.037,2.462c-.97-.037-6.006-.261-7.125-.336h-.075c-1.567-.075-2.91-.149-3.618-.261-.522-.075-.746-.187-.783-.41l-.037-.634v-.037a.473.473,0,0,0-.149-.336.488.488,0,0,0-.336,0h-.037c-.112.075-.149.224-.149.448l-.037,2.2-.187,2.76a.8.8,0,0,0,.112.448.326.326,0,0,0,.41,0,.7.7,0,0,0,.149-.373l.112-.9c.075-.41.373-.485.821-.522.671-.037,1.9,0,3.32.075h.448c5.185.261,6.64.3,7.088.336-.037.261-.075.783-.149,2.052-.112,1.6-.634,1.865-.933,1.865h-.187c-.187,0-.522,0-.522.373,0,.261.261.3.448.336,0,0,.6.037,1.119.075.9.075.933.075.933.075h.149a.554.554,0,0,0,.336-.075l.112-.187-.075-.522c0-.037,0-.261-.037-1.194l.336-6.976c.037-.56.075-1.231.149-1.753a2.545,2.545,0,0,1,.149-.485l.075-.224v-.037c-.037-.149-.3-.224-.485-.3" transform="translate(-348.355 -234.901)" fill="#870052"/>
            <path id="Path_258" data-name="Path 258" d="M502.878,357.166a.308.308,0,0,0-.373-.075c-.112.037-.149.149-.224.336a6.048,6.048,0,0,1-.224.634c-.224.448-.485.485-.97.373a32.937,32.937,0,0,1-3.208-.783l-3.507-.9c-1.455-.373-2.835-.709-3.507-.97-.41-.187-.709-.336-.709-.56l.075-.6a.5.5,0,0,0-.037-.41.349.349,0,0,0-.41-.075.546.546,0,0,0-.224.41l-.261,1.194-.224.97-.485,1.753-.821,2.947c-.186.671-.261.933.3,1.231a11.281,11.281,0,0,0,1.865.709.618.618,0,0,0,.448,0c.112-.112.149-.224.112-.3-.037-.187-.261-.3-.336-.336-.634-.3-.9-.522-.97-.97a5.57,5.57,0,0,1,.187-1.6c.448-1.791.746-1.791,1.753-1.567l3.992,1.007h.037c-.112.485-.522,2.052-.634,2.35-.187.485-.373.671-.746.671l-.448-.037-.149-.037a.314.314,0,0,0-.373.261c-.075.3.261.41.41.448.037,0,.821.261,1.119.373.037,0,.634.224,1.082.373l.149.075a.221.221,0,0,0,.261-.037.205.205,0,0,0,.112-.186.548.548,0,0,0-.149-.448,1.059,1.059,0,0,1-.037-.783c.037-.261.3-1.268.634-2.686h.037l4.29,1.082h.037c-.112.448-.56,2.089-.671,2.35-.336.821-.56.858-.783.858a1.615,1.615,0,0,1-.6-.037h-.112a.318.318,0,0,0-.336.149v.075h0a.4.4,0,0,0,.261.41l.783.261.336.112.933.373.149.075h.149a.247.247,0,0,0,.261-.224v-.261l.075-.746c.075-.3.783-3.134,1.007-4.066l.336-1.156.41-1.492c.037-.261.037-.373-.075-.522Z" transform="translate(-342.984 -259.986)" fill="#870052"/>
            <path id="Path_259" data-name="Path 259" d="M490.342,396.084h0a18.887,18.887,0,0,0-1.716-1.231.484.484,0,0,0-.373-.075c-.187.075-.224.224-.187.3a.5.5,0,0,0,.187.336,1.2,1.2,0,0,1,.373.485.72.72,0,0,1,.112.373,3.876,3.876,0,0,1-.373,1.231l-.075.149c-.3.671-.783,1.716-.97,2.089l-3.432-1.679c-2.276-1.119-2.8-1.343-2.91-1.418h0l-.224-.112c-1.343-.671-2.537-1.231-3.134-1.6-.41-.261-.6-.448-.6-.6v-.075l.224-.56a.878.878,0,0,0,.075-.3v-.112l-.037-.037a.382.382,0,0,0-.336-.149h-.037a.543.543,0,0,0-.3.336l-.6,1.268-.336.746-.373.746-.858,1.716c-.075.149-.187.485.075.634a.238.238,0,0,0,.224,0,.446.446,0,0,0,.261-.261l.448-.783c.224-.336.485-.3.97-.149a30.047,30.047,0,0,1,3.32,1.529l.075.037,1.641.783.3.149c1.6.783,3.88,1.9,4.476,2.164-.112.224-.41.746-.933,1.791-.746,1.455-1.306,1.492-1.6,1.38l-.187-.075c-.187-.075-.485-.187-.634.112-.112.261.149.41.261.485l.037.037h0c.149.112.6.336,1.753.933h.037a1.422,1.422,0,0,0,.373.112.282.282,0,0,0,.261-.149v-.075a1.156,1.156,0,0,1,.075-.261l.037-.187c.037-.075.112-.3.448-1.082l3.059-6.3a12.319,12.319,0,0,1,.858-1.529,1.118,1.118,0,0,1,.336-.373l.187-.187.037-.037c.075-.224-.187-.41-.3-.522" transform="translate(-334.664 -284.431)" fill="#870052"/>
            <path id="Path_260" data-name="Path 260" d="M165.2,163.348h0c1.044,1.119,1.268,1.455,1.082,1.753a2.489,2.489,0,0,1-.485.56.413.413,0,0,0-.187.373.319.319,0,0,0,.3.3h0a.648.648,0,0,0,.41-.224l1.156-1.156.187-.187,1.641-1.455c.112-.112.41-.41.187-.634s-.485.037-.56.112a2.905,2.905,0,0,1-.709.522c-.3.149-.821-.149-1.6-.97l-4.961-5.036h.187c.821.075,3.283.261,5.558.3l7.349.187a1.29,1.29,0,0,0,.783-.149h.112v-.075a.285.285,0,0,0,.075-.187.137.137,0,0,0-.037-.112,1.24,1.24,0,0,0-.3-.41l-7.535-8.207c-.671-.746-.709-1.007-.56-1.306l.336-.373c.149-.149.224-.261.224-.373a.285.285,0,0,0-.075-.187.205.205,0,0,0-.187-.112.711.711,0,0,0-.448.261l-1.007,1.007-.224.224-1.641,1.38c-.187.187-.3.336-.3.485h0l.075.187.149.075h.037a.516.516,0,0,0,.336-.187,2.5,2.5,0,0,1,.709-.522c.336-.112.6-.037,1.343.709l5.334,5.372c-.373,0-1.007-.037-1.306-.075h-.187l-3.768-.149c-3.8-.075-7.834-.336-7.871-.336h-.261a.945.945,0,0,0-.746.112c-.3.261.075.671.224.821Z" transform="translate(-136.128 -129.696)" fill="#870052"/>
            <path id="Path_261" data-name="Path 261" d="M135,193.588a.25.25,0,0,0,.261.149c.075,0,.112-.037.149-.037a.634.634,0,0,0,.224-.224,2.365,2.365,0,0,1,.373-.448c.224-.224.485-.187.97.075.448.261.821.522,2.686,1.791l3.022,2.089c1.343.933,2.5,1.716,3.059,2.2.448.373.485.522.41.709l-.3.56a.4.4,0,0,0-.112.373.31.31,0,0,0,.336.224h.037c.112,0,.224-.112.373-.3l1.194-1.865,1.6-2.238a.7.7,0,0,0,.149-.41.326.326,0,0,0-.373-.224.58.58,0,0,0-.3.224l-.56.709c-.3.3-.522.261-.9.037-.634-.336-1.679-1.082-2.984-1.977l-2.76-1.9c-2.164-1.492-2.611-1.791-3.059-2.164-.522-.41-.56-.6-.41-.9l.261-.448c.187-.261.149-.448-.037-.56A.473.473,0,0,0,138.1,189a.705.705,0,0,0-.373.3l-1.194,1.791-1.343,1.865a1.085,1.085,0,0,0-.187.373v.261Z" transform="translate(-121.896 -156.468)" fill="#870052"/>
            <path id="Path_262" data-name="Path 262" d="M106.673,313.959c0,.037-.037.037-.149.075l-5.372.149h-.075v-.037a3.832,3.832,0,0,1-.075-.9,2.425,2.425,0,0,1,.671-1.716,3.2,3.2,0,0,1,2.313-.9h.187a2.827,2.827,0,0,1,2.35.9c.224.261.3.485.3,1.156a4.226,4.226,0,0,1-.149,1.268m1.716,2.425c1.567-.037,2.947-.075,3.693-.037.522.075.783.112.821.336l.075.6a.557.557,0,0,0,.112.373.285.285,0,0,0,.187.075.224.224,0,0,0,.149-.037.426.426,0,0,0,.187-.485l-.112-2.126-.037-2.611a.587.587,0,0,0-.149-.448.373.373,0,0,0-.448,0,.29.29,0,0,0-.075.3l-.037.858c-.037.373-.224.485-.783.56a35.533,35.533,0,0,1-3.581.187h-.373l-.037-1.492c0-.112,0-.149.037-.187l1.156-.9,1.231-.933a9.08,9.08,0,0,0,2.574-2.574,3.671,3.671,0,0,0,.3-1.977l-.037-1.679a.8.8,0,0,0-.075-.373l-.037-.075h-.037a.224.224,0,0,0-.149-.037h-.112c-.075,0-.224.075-.224.373l-.037.485a3.344,3.344,0,0,1-1.082,1.9c-.9.9-2.126,1.94-3.656,3.245l-.709.6-.112-.112-.112-.112a4.9,4.9,0,0,0-3.842-1.94,3.045,3.045,0,0,0-2.5,1.38,5.693,5.693,0,0,0-.671,3.357l.149,2.5.037,2.425c0,.149,0,.56.336.56s.336-.373.3-.485a3.028,3.028,0,0,1,.037-.634c.075-.485.3-.6.821-.671.522-.037,1.045-.075,3.432-.149Z" transform="translate(-99.873 -228.38)" fill="#870052"/>
            <path id="Path_263" data-name="Path 263" d="M114.235,356.5l-4.29-.485c.3-.224,1.156-.783,3.581-2.425Zm10.594,14.325c.448-.149.746-.224.9-.037l.336.522c.075.149.187.261.261.261h.037a.485.485,0,0,0,.336-.112.5.5,0,0,0-.075-.522L125.575,369l-1.082-2.313a.578.578,0,0,0-.3-.3.238.238,0,0,0-.224,0,.25.25,0,0,0-.149.261.274.274,0,0,0,.075.224h0c.037.075.112.261.3.746h0c0,.037.037.112.037.149,0,.224-.187.448-.522.634-.634.373-1.9,1.007-3.245,1.679l-1.194.6c.373-.709,2.35-5.484,2.649-6.491a3.606,3.606,0,0,0,.037-2.574l-.522-1.082a5.32,5.32,0,0,1-.336-.746l-.448-1.641-.112-.336-.41-1.828a.429.429,0,0,0-.224-.336.553.553,0,0,0-.261-.037c-.3.075-.224.373-.187.485l.075.261c.112.485-.075.56-.224.634a3.159,3.159,0,0,1-1.045,0l-2.686-.3h-.037l-.97-3.8h0l3.283-2.313a.137.137,0,0,1,.112-.037h0a.408.408,0,0,1,.075.149.306.306,0,0,0,.373.149c.261-.075.224-.373.149-.671l-.821-3.32-.037-.187c-.112-.41-.149-.6-.373-.671a.279.279,0,0,0-.261.075.584.584,0,0,0-.112.373l.112.709c0,.373-.149.9-1.418,1.828l-9.438,6.939c-.373.3-.56.485-.522.746.075.3.41.336.97.448l11.825,1.567a2.459,2.459,0,0,1,1.492.522,2.54,2.54,0,0,1,.224,1.194,7.808,7.808,0,0,1-.522,2.872l-.037.186c-.261.858-1.9,5.3-2.462,6.454-1.007-.336-4.253-1.418-4.961-1.679a5.482,5.482,0,0,1-1.977-1.082,3.355,3.355,0,0,1-.6-.783.369.369,0,0,0-.261-.261h-.261l-.149.149v.037a.6.6,0,0,0,.075.41l.97,1.828.783,1.641c.075.187.149.261.261.3h.224a.387.387,0,0,0,.149-.485c0-.037-.037-.112.112-.186a2.993,2.993,0,0,1,1.38.186l.112.037c.41.112,1.6.485,2.76.821l.373.112c.933.3,1.418.448,1.679.522l-.261.149c-.187.112-.336.186-.336.186l-.261.112c-1.94.97-2.387,1.194-2.872,1.38-.6.261-.783.187-.97-.075a1.635,1.635,0,0,0-.187-.336.116.116,0,0,1-.037-.075h0a.341.341,0,0,0-.485-.224c-.3.149-.112.485-.037.634l1.007,1.865,1.082,2.238c.112.187.187.336.3.373h.224c.187-.112.224-.3.075-.56a3.639,3.639,0,0,1-.261-.6c-.112-.485.037-.671.485-.933s.821-.448,3.171-1.641l2.947-1.492a35.972,35.972,0,0,1,3.395-1.641" transform="translate(-103.519 -254.884)" fill="#870052"/>
            <path id="Path_264" data-name="Path 264" d="M175.578,463.082c-.149.485-.634,1.828-1.38,3.991l-.037.075-2.35-1.865ZM175.2,474.5c-.224-.3-.41-.821.037-2.313l3.395-11.228c.112-.41.187-.709-.037-.9s-.522-.037-1.007.224l-10.408,5.857c-.858.485-1.38.671-1.977.3l-.448-.336h-.037a.333.333,0,0,0-.373,0,.276.276,0,0,0-.149.261v.037c0,.149.112.224.261.373l1.343,1.044.3.224,1.418,1.231c.112.075.261.224.41.149a.3.3,0,0,0,.187-.261c.037-.187-.149-.336-.187-.373l-.224-.149a.8.8,0,0,1-.3-.373.948.948,0,0,1,.075-.261,3.464,3.464,0,0,1,.821-.634l2.313-1.38h.037l3.059,2.462h0l-1.231,3.8c0,.037-.037.075-.037.112l-.037.037h-.037c-.224-.149-.373-.112-.485.037-.187.224.075.448.3.634l2.649,2.164c.448.336.6.448.746.448h.037a.3.3,0,0,0,.224-.186.438.438,0,0,0-.149-.373Z" transform="translate(-140.204 -326.36)" fill="#870052"/>
            <path id="Path_265" data-name="Path 265" d="M216.443,479.795l.448.187c.373.187.522.037.6-.075.149-.3-.187-.448-.373-.56l-1.268-.6-.3-.112-1.865-1.007c-.037,0-.075-.037-.112-.037-.187-.075-.373-.187-.485-.037a.376.376,0,0,0-.112.3.423.423,0,0,0,.261.3,2.823,2.823,0,0,1,.746.485.534.534,0,0,1,.149.373,3.094,3.094,0,0,1-.373,1.119c-.112.261-2.686,5.484-3.32,6.827l-.448-1.455-1.082-3.618c-1.194-3.656-2.276-7.5-2.276-7.535l-.075-.224c-.112-.373-.224-.6-.41-.671q-.168-.056-.224,0c-.149.037-.3.224-.448.522l-4.924,9.214c-.709,1.343-.97,1.679-1.306,1.6a3.976,3.976,0,0,1-.709-.261.459.459,0,0,0-.373-.075.305.305,0,0,0-.187.373c.037.149.187.224.373.336l1.455.709.261.112.41.224,1.492.821a.68.68,0,0,0,.485.112.279.279,0,0,0,.187-.373c-.037-.112-.112-.187-.3-.261a3.437,3.437,0,0,1-.709-.485c-.224-.261-.112-.821.373-1.828l3.022-6.342.037.187c.373,1.38.933,3.432,1.567,5.334l1.007,3.171,1.231,3.842a.956.956,0,0,0,.448.709h.112c.3,0,.522-.41.56-.485l5.26-9.811c.634-.933.858-1.044,1.194-1.007" transform="translate(-161.373 -334.791)" fill="#870052"/>
            <path id="Path_266" data-name="Path 266" d="M260.044,494.655l-1.38-.336-.3-.075-2.052-.634c-.224-.075-.41-.112-.56,0a.382.382,0,0,0-.149.261c0,.261.261.3.373.336a2.125,2.125,0,0,1,.821.336.628.628,0,0,1,.261.56,4.1,4.1,0,0,1-.149.933v.075c-.149.671-1.492,5.931-1.828,7.312-.224-.448-.709-1.306-.746-1.38l-1.791-3.283c-1.716-2.947-3.507-6.416-3.768-6.9l-.112-.224c-.149-.3-.261-.485-.448-.56-.373-.112-.522.41-.6.634l-2.91,10.035c-.373,1.343-.6,1.828-.933,1.828a3.28,3.28,0,0,1-.746-.112c-.112-.037-.41-.112-.522.112a.283.283,0,0,0-.037.261c.037.149.187.224.448.3l1.828.448,2.089.634c.224.075.41.112.56-.037a.252.252,0,0,0,.075-.3.48.48,0,0,0-.336-.261,2.923,2.923,0,0,1-.783-.336c-.261-.186-.261-.783,0-1.865l1.679-6.827.112.187c.448.9,1.529,2.984,2.611,4.887l1.6,2.835,2.052,3.544a1.357,1.357,0,0,0,.522.6l.075.037h0a.423.423,0,0,0,.3-.112,1.164,1.164,0,0,0,.224-.485l3.134-10.706c.3-.97.485-1.156.821-1.156l.522.075a.513.513,0,0,0,.448-.075.279.279,0,0,0,.075-.261c-.037-.149-.261-.224-.485-.3" transform="translate(-189.269 -345.847)" fill="#870052"/>
            <path id="Path_267" data-name="Path 267" d="M365.806,124.2v0l1.492.56.3.112,2.014.858c.149.037.522.187.671-.112a.238.238,0,0,0,0-.224c-.075-.149-.3-.224-.336-.261a2.478,2.478,0,0,1-.746-.41c-.261-.224-.187-.821.186-1.865l2.425-6.6.075.187c.373.933,1.194,3.134,2.052,5.148l1.306,3.022,1.641,3.73a1.191,1.191,0,0,0,.522.671h.261a.858.858,0,0,0,.373-.522l4.29-10.3c.373-.933.634-1.082.97-1.045l.485.149a.647.647,0,0,0,.448.037l.075-.037.112-.3-.037-.037c-.037-.149-.187-.224-.41-.3l-1.343-.485-.3-.112-1.977-.821c-.224-.075-.6-.224-.709.075,0,.037-.037.075-.037.112,0,.224.261.336.336.373a2.606,2.606,0,0,1,.783.41.573.573,0,0,1,.187.485,3.167,3.167,0,0,1-.261,1.045c-.522,1.418-2.238,6.043-2.649,7.125-.112-.224-.261-.671-.56-1.38l-1.455-3.507c-1.194-2.723-2.35-5.67-2.947-7.162l-.112-.336c-.112-.3-.187-.522-.41-.634a.319.319,0,0,0-.261,0c-.186.075-.3.336-.41.56l-3.991,9.662c-.56,1.418-.783,1.753-1.119,1.716a2.217,2.217,0,0,1-.709-.187c-.373-.149-.485,0-.522.112-.186.3.149.41.3.485" transform="translate(-266.382 -108.082)" fill="#870052"/>
            <path id="Path_268" data-name="Path 268" d="M425.037,335.7h0" transform="translate(-303.716 -248.443)" fill="#870052"/>
            <path id="Path_269" data-name="Path 269" d="M419.906,256.431c-4.029-7.535-13.206-5.185-14.511-4.663-4.29,1.641-6.491,5.558-6.827,9.774-3.8-5.185-2.276-11.825-2.238-12.273a15.756,15.756,0,0,0,.149-3.395,6.667,6.667,0,0,0,1.9-1.194c3.507-3.618.112-4.588-1.529-2.574.187-2.686-1.231-1.6-2.014-1.306-.075-1.9-1.418-.9-1.716-.41-.821-2.835-3.022-.56-3.618.41-3.581-.97-4.066.6-4.1.56,1.6.522,1.791.821,1.828,1.231.037.485-.746,1.156-1.828,1.194.037.149,2.089.783,2.872-.3.858-1.156.112-1.977,0-1.977a9.34,9.34,0,0,1,2.387.485c2.984.97,3.954,1.418,4.1,4.141a16.473,16.473,0,0,1-.448,3.842,27.565,27.565,0,0,0,0,8.58c.634,3.245,4.4,9.7,5.894,6.677.634-1.306.933-4.29,2.052-7.312,1.343-3.581,4.849-5.707,9.885-4.663,7.349,2.052,7.237,8.02,6.677,9.363,0,0,.112-4.327-3.73-5.633a12.242,12.242,0,0,1,.3,7.759c.336-2.462-1.231-6.006-5.857-7.05,3.432,6.23.448,14.175.149,14.474,5.521-4.476,2.686-11,2.686-11s2.872,2.8,1.231,8.916c4.476-3.059,3.32-10.333,3.357-10.3,1.044,1.828,1.268,2.984.858,6.342,0-.075.9-.037,2.164-3.768C421.174,258.669,419.906,256.431,419.906,256.431Z" transform="translate(-278.888 -187.826)" fill="#870052"/>
            <path id="Path_270" data-name="Path 270" d="M386.932,287.861a13.5,13.5,0,0,0,7.2-2.686,19.172,19.172,0,0,1-11.6-.187c-3.507-1.455-7.349-6.64-7.946-7.685-1.268-2.089-1.828-6.454-.821-10.333.746-3.022,3.432-9.177,3.581-10.669.187-1.38-1.194-1.791-1.306-1.9h-.075c-5.036,1.977-4.141,5.3-2.425,5.111.037.336-.075,1.194.746,1.455-.3.933-2.947,5.521-3.134,8.8-.448,8.468,3.917,11.825,4.887,13.206,2.126,3.022-.261,5.148-1.38,5.409a5.515,5.515,0,0,1-2.91.037,9.194,9.194,0,0,0-2.574-.6A2.586,2.586,0,0,0,366.9,289.5a17.185,17.185,0,0,1,2.35.037,5.115,5.115,0,0,1,1.455.261,6.216,6.216,0,0,1-.261,2.014,1.407,1.407,0,0,0-.037.671,3.077,3.077,0,0,0,2.35-2.2c2.014.3,2.91.336,4.1,1.045a2.9,2.9,0,0,1,.9-1.641,9.364,9.364,0,0,1,3.133-1.194c3.432,2.649,1.753,10.072,1.567,10.408s-.858.6-2.238.373c-.224.187-.448.149-.709.671-1.082-.112-3.171-.41-4.439.075a9.469,9.469,0,0,0-3.954,2.984c-.149.261-.56.933-.075,1.194a17.68,17.68,0,0,0,3.32.112c.821,0,12.87,0,13.877-.037a37.02,37.02,0,0,0,5.111-.448c.634-.187.522-.485.522-.485,0-.224-.97-2.089-3.693-2.35-3.022-.56-5.223-.522-5.372-.634.336-.373.933-.746,1.007-1.119.112-.522-.037-3.842.075-5.223a25.051,25.051,0,0,1,1.045-6.155" transform="translate(-267.289 -197.471)" fill="#870052"/>
            <path id="Path_271" data-name="Path 271" d="M184.757,288.777a75.63,75.63,0,0,1-7.013,3.357c-1.679-.037-4.887-3.581-6.192-6.491s-1.38-9.7-1.38-11.564h22.681a7.3,7.3,0,0,0-4.663,5.857C187.518,284.524,189.047,286.24,184.757,288.777Zm-10.408,8.505c.933-2.8,9.214-5.446,11.639-6.715,1.94,5.894-9.4,5.185-10.147,11.191C173.6,299.222,174.35,297.282,174.35,297.282Zm-17.085-23.725a7.2,7.2,0,0,1,2.8-7.013c3.1-2.164,8.02-2.5,11.228-1.641,1.567.41,1.194,1.007.783.933a13.556,13.556,0,0,0-8.319.783c-5.409,2.313-5.894,9.139,1.268,10.967.261,1.044.3,1.306.634,2.574C159.316,279.824,157.488,275.347,157.265,273.557Zm39.691-1.455c-.485-1.306-34.991-.6-34.991-.6s.933-5.969,10.482-4.215c3.842.709,4.887,2.611,10.818,2.574.336,0,.41-.634.112-.671-1.791-.3-1.641-1.007-1.418-1.343.261-.522,1.791.3,2.238.186.112-.037.224-.336.3-.6a.4.4,0,0,0-.224-.41c-3.1-1.828-4.849-2.052-7.2-1.6-.933.187-3.88-1.044-4.961-1.38-4.1-1.268-9.885-1.119-12.944,1.007-3.768,2.611-6.416,7.573-2.462,13.5,1.679,2.5,5.073,3.581,9.438,3.991,1.865,8.468,7.722,10.445,8.878,10.967a7.01,7.01,0,0,0-2.947,2.872c-.261.634-1.045,4.327,3.245,7.088a5.216,5.216,0,0,1-3.544,3.395c-1.007.336-1.865.3-2.537.9a3.78,3.78,0,0,0-.56,1.94h18.689a1.886,1.886,0,0,0-1.492-2.387c-1.828-.671-1.791-.336-3.544-1.716-1.9-1.231-1.679-6.491-1.6-7.088.261-.485,4.588-1.791,6.043-3.768a4.765,4.765,0,0,0,.6-5c3.88-2.76,2.984-8.505,3.283-9.885.522-2.387,1.6-3.022,3.432-3.73,1.007-.373,2.5-.224,2.872-.6.485-.261.522-2.835,0-3.432" transform="translate(-134.276 -203.012)" fill="#870052"/>
          </g>
          <path id="Path_272" data-name="Path 272" d="M294.305,232.1c-.037-1.343-.037-1.6-.037-3.208,6.379-2.313,10-4.812,11-8.766,2.835-11.228-10-13.206-11.266-13.579-.037-.858-.037-1.455-.037-2.089,8.095-2.5,10.781-6.64,10.37-10.967-.187-2.014-.783-6.528-11-9.1-.186-6.491-.522-8.841-1.268-10a2.921,2.921,0,0,0-2.425-1.529c-2.35-.075-3.283,3.134-3.656,6.006v.037c-.149,1.194-.3,2.611-.373,4.253A6.363,6.363,0,0,1,282.779,182c-1.268-.97-.671-2.462-.112-3.245a14.313,14.313,0,0,0,3.432-7.349,6.249,6.249,0,0,0-.3-2.649,2.2,2.2,0,0,0-1.268-1.455,5.551,5.551,0,0,1,.6-1.156,28.6,28.6,0,0,0,2.723-2.8c.149-.3-.149-.41-.3-.261a7.988,7.988,0,0,1-2.35,1.418c-1.044.41-.3-1.492-.112-2.686.037-.3-.261-.261-.373-.112a8.254,8.254,0,0,0-1.082,2.872c-.3,1.119.448,1.492-.149,2.462a2.611,2.611,0,0,0-1.343.261c-1.268.56-5.6,4.29-4.7,8.692.41,1.38-.933,3.544-1.194,4.663-1.38,5.67,4.7,9.55,9.139,10.408v.112c-.037,1.007-.075,1.791-.112,3.73-5.894,1.343-9.065,3.395-10.743,6.64a8.391,8.391,0,0,0,0,7.2c2.276,3.917,5.819,5.372,10.221,7.274,0,.858-.112,4.066-.112,4.066-4.849,1.306-9.139,2.8-11.3,6.342-1.418,2.276-.97,6.454.41,8.692,1.791,2.872,4.887,4.551,10.408,6.3-.037.9-.037,3.245-.112,3.842-3.544,1.082-5.67,3.208-6.342,5.819-1.343,5.521,2.387,8.356,6.043,10.184l-.187,8.617c-.075,1.343-.112,2.649-.075,3.842.037.41.373,1.306,2.462,1.791a15.244,15.244,0,0,0,4.663.336c2.014-.075,3.8-.6,4.29-1.6a4.134,4.134,0,0,0,.149-1.38l-.187-12.124-.224-8.393c4.4-1.119,9.587-3.283,10.781-7.423C307.548,237.25,300.722,233.855,294.305,232.1Zm-5-54.24c.075-1.753,1.679-1.94,1.791-.373.3,3.88.373,8.58.485,16.19a24.9,24.9,0,0,1-2.5.522S289.083,180.213,289.307,177.862Zm-10.893,3.059c.634-2.8,1.194-3.954,1.007-4.924-.709-3.544,2.462-6.043,3.134-6.528.634-.448,1.418-.336,1.641.187.522,1.194.224,3.88-2.984,8.132-.709.933-3.283,5.707,4.29,7.349-.037,1.306-.075,2.35-.112,3.618C281.063,187.934,277.668,184.2,278.414,180.921Zm-1.194,23.091c0-5.036,10.259-6.6,14.884-7.573,3.991-.821,3.917-5.26,1.418-6.491,0,0-.112-2.052-.112-3.469,3.954.783,7.162,2.649,8.281,4.961,1.455,3.022-.261,6.827-3.842,8.878-3.208,1.828-8.319,2.462-11.378,2.984s-3.8,3.581-1.567,4.514c0,1.119-.112,2.76-.149,4.066C280.8,210.8,277.22,208.489,277.22,204.012Zm14.772,14.66-2.984.522V205.542l2.723-.6Zm-16.078,11.266c0-6.827,16.675-8.543,16.637-8.58,4.141-.56,4.775-6.118,1.6-7.2,0-1.418-.112-3.171-.112-5.036,3.656.709,9.214,3.059,9.214,7.461,0,3.992-2.014,6.342-6.081,8.02-3.432,1.38-7.535,2.164-11.452,3.208-3.656.97-2.649,4.141-1.38,4.887,0,0-.075,3.283-.149,4.551C281.212,236.8,275.915,235.124,275.915,229.938Zm16.414,13.69-3.32.56V230.125l3.134-.783Zm-3.8,27.418.149-17.533,3.693-.6s.224,17.122.224,18.055C292.589,271.756,288.449,272.017,288.523,271.047Zm12.459-23.912c-1.641,1.492-6.081,2.872-12.012,3.693-4.551.634-5.521,2.649-5.148,3.842-.037.858-.075,2.238-.112,3.134-1.268-.634-3.432-2.537-3.245-4.812.485-6.081,6.939-5.819,12.571-6.864,5.633-.933,5.707-6.938,1.343-7.946,0-1.306-.037-2.537-.037-3.73,5,1.007,7.05,2.8,8.244,4.849C304.34,242.211,303.408,244.935,300.983,247.135Z" transform="translate(-208.087 -139.287)" fill="#870052"/>
        </g>
        <rect id="Rectangle_15" data-name="Rectangle 15" width="473.72" height="238.371" fill="none"/>
      </g>
    </g>
  </g>
</svg>
