<svg xmlns="http://www.w3.org/2000/svg" xmlns:xlink="http://www.w3.org/1999/xlink" width="600" height="300" viewBox="0 0 600 300"><defs><clipPath id="clip-Custom_Size_1"><path d="M0 0h600v300H0z"/></clipPath></defs><g id="Custom_Size_1" clip-path="url(#clip-Custom_Size_1)"><path fill="#e8eff3" d="M0 0h600v300H0z"/><g id="KI_digital_logotyp_positiv_RGB" transform="translate(63.09 31.315)"><g id="Group_24" transform="translate(223.487 72.817)"><path id="Path_205" fill="#870052" d="m614.58 246.79-7.98-19.1h-.11v19.1h-7.39V209.3h7.39v17.46h.1l8.14-17.46h7.35l-8.65 17.38 9.47 20.11Z" transform="translate(-599.1 -204.04)"/><g id="Group_23"><path id="Path_206" fill="#870052" d="M681.13 244.35c-4.51.6-6.75 2.12-6.75 6.38 0 2.98 1.45 4.7 4.25 4.7a7 7 0 0 0 2.5-.49zm-2.84 15.85c-7.05 0-10.59-3.4-10.59-9.21 0-7.54 5.56-9.85 13.4-10.9v-.97c0-2.76-1.65-4.06-4.22-4.06a14 14 0 0 0-6.23 1.53l-1.46-4.63a18 18 0 0 1 9.07-2.16c5.48 0 9.66 2.72 9.66 10.78v17.5c-2.13 1.3-5.07 2.12-9.62 2.12" transform="translate(-642.11 -216.893)"/><path id="Path_207" fill="#870052" d="M750.3 235.46a5.7 5.7 0 0 0-4.85-.1v24.2h-7.05v-27.75c2.69-1.57 6.42-2.46 13.2-2.13Z" transform="translate(-686.436 -216.775)"/><path id="Path_208" fill="#870052" d="M789.34 234.86c-3.1 0-3.65 4.48-3.65 9.81s.6 9.7 3.65 9.7c3.18 0 3.7-4.36 3.7-9.66 0-5.34-.56-9.85-3.7-9.85m0 25.22c-7.2 0-10.74-6.53-10.74-15.26s3.54-15.22 10.74-15.22c7.24 0 10.75 6.5 10.75 15.22-.04 8.73-3.51 15.26-10.75 15.26" transform="translate(-711.64 -216.768)"/><path id="Path_209" fill="#870052" d="M851.1 237.95v-40.66l7.13-2.09v42.75Z" transform="translate(-757.095 -195.2)"/><path id="Path_210" fill="#870052" d="M886.96 210.22h7.09v29.36h-7.09Zm3.5-4.81a3.84 3.84 0 0 1-3.76-3.8 3.8 3.8 0 0 1 3.77-3.8 3.84 3.84 0 0 1 3.88 3.8 3.9 3.9 0 0 1-3.88 3.8" transform="translate(-779.414 -196.83)"/><path id="Path_211" fill="#870052" d="M936.84 259.52v-20.78c0-2.58-1.04-4-3.54-4a5.6 5.6 0 0 0-2.95.57v24.2h-7.05v-27.75a21 21 0 0 1 10.15-2.16c7.2 0 10.52 2.95 10.52 9.14v20.78Z" transform="translate(-802.361 -216.768)"/><path id="Path_212" fill="#870052" d="M998.61 260.14c-3.32 0-5.63-.7-7.31-2.16l1.75-5.19a7.2 7.2 0 0 0 4.48 1.64 2.74 2.74 0 0 0 3.06-2.72c0-2.13-.94-2.99-3.55-4.96-2.76-2.1-5.22-4.63-5.22-8.5 0-5 3.32-8.55 8.25-8.55a11.3 11.3 0 0 1 7.2 2.16l-1.68 4.52a5.7 5.7 0 0 0-3.88-1.42 2.73 2.73 0 0 0-2.84 2.76c0 1.9 1.38 3.06 4 4.96 3.05 2.28 5.22 4.4 5.22 8.73-.08 5.04-4.03 8.73-9.48 8.73" transform="translate(-844.995 -216.83)"/><path id="Path_213" fill="#870052" d="m1064.02 237.95-7.46-15.37h-.11v15.37h-7.05v-40.66l7.05-2.09v26.86h.11l7.5-13.47h6.98l-8.17 13.47 8.77 15.89Z" transform="translate(-881.421 -195.2)"/><path id="Path_214" fill="#870052" d="M1128.2 244.35c-4.56.6-6.76 2.12-6.76 6.38 0 2.98 1.46 4.7 4.25 4.7a7 7 0 0 0 2.5-.49zm-2.84 15.85c-7.02 0-10.56-3.4-10.56-9.21 0-7.54 5.56-9.85 13.43-10.9v-.97c0-2.76-1.64-4.06-4.22-4.06a13.5 13.5 0 0 0-6.19 1.53l-1.45-4.63a18 18 0 0 1 9.06-2.16c5.52 0 9.63 2.72 9.63 10.78v17.5c-2.2 1.3-5.15 2.13-9.7 2.13" transform="translate(-922.425 -216.893)"/><path id="Rectangle_14" fill="#870052" d="M0 0h7.46v37.49H0z" transform="translate(0 51.33)"/><path id="Path_215" fill="#870052" d="M650.1 383.12v-20.78c0-2.57-1.04-4-3.54-4a5.7 5.7 0 0 0-2.95.57v24.2h-7.01v-27.75a21 21 0 0 1 10.15-2.16c7.2 0 10.52 2.95 10.52 9.14v20.78Z" transform="translate(-622.611 -294.26)"/><path id="Path_216" fill="#870052" d="M711.81 383.58c-3.32 0-5.63-.71-7.31-2.2l1.75-5.19a7 7 0 0 0 4.48 1.64c1.86 0 3.06-1.08 3.06-2.72 0-2.13-.93-2.98-3.55-4.96-2.76-2.05-5.22-4.63-5.22-8.5 0-5.04 3.32-8.55 8.25-8.55a11.2 11.2 0 0 1 7.2 2.16l-1.68 4.52a6 6 0 0 0-3.88-1.42 2.73 2.73 0 0 0-2.84 2.8c0 1.9 1.35 3.06 3.96 4.96 3.06 2.28 5.22 4.4 5.22 8.73 0 5.04-4 8.73-9.44 8.73" transform="translate(-665.182 -294.197)"/><path id="Path_217" fill="#870052" d="M769.34 369.95c-4.82 0-7.43-3.29-7.43-8.43v-16h-2.61v-5.3h2.61v-6.38l7.09-2.24v8.62h3.88v5.3H769v15.25c0 2.73.93 3.66 2.39 3.66a4 4 0 0 0 1.45-.26v5a7 7 0 0 1-3.5.78" transform="translate(-699.539 -280.718)"/><path id="Path_218" fill="#870052" d="M808.2 333.72h7.09v29.4h-7.09Zm3.47-4.81a3.8 3.8 0 0 1-3.77-3.8 3.77 3.77 0 0 1 3.77-3.8 3.8 3.8 0 1 1 0 7.61" transform="translate(-730.01 -274.26)"/><path id="Path_219" fill="#870052" d="M851.44 369.95c-4.82 0-7.43-3.29-7.43-8.43v-16h-2.61v-5.3h2.61v-6.38l7.09-2.24v8.62h3.88v5.3h-3.88v15.25c0 2.73.93 3.66 2.39 3.66a5 5 0 0 0 1.45-.26v5a7 7 0 0 1-3.5.78" transform="translate(-751.013 -280.718)"/><path id="Path_220" fill="#870052" d="M900.8 384.52c-6.53 0-10.3-2.84-10.3-10.19V354.6h7.09v20.55c0 2.35 1.15 3.8 3.43 3.8a6 6 0 0 0 2.84-.7V354.6h7.12v27.64c-2.13 1.35-5.56 2.28-10.18 2.28" transform="translate(-781.797 -295.138)"/><path id="Path_221" fill="#870052" d="M968.74 369.95c-4.78 0-7.43-3.29-7.43-8.43v-16h-2.61v-5.3h2.61v-6.38l7.09-2.24v8.62h3.88v5.3h-3.88v15.25c0 2.73.93 3.66 2.39 3.66a4 4 0 0 0 1.45-.26v5a7 7 0 0 1-3.5.78" transform="translate(-824.556 -280.718)"/><path id="Path_222" fill="#870052" d="M1015.4 358.31c-2.62 0-4.33 3.58-4.26 8.77l7.95-.97c0-4.96-1.09-7.8-3.7-7.8m-3.84 13.35c.45 4.25 2.28 6.38 5.78 6.38a11.6 11.6 0 0 0 6.16-1.53l1.57 4.96c-1.87 1.3-4.74 2.2-8.7 2.2-7.72 0-11.86-5.74-11.86-15.33 0-8.84 4.03-15.14 11-15.14 7.42 0 11 6.34 10.45 16.67Z" transform="translate(-853.271 -294.26)"/><path id="Path_223" fill="#870052" d="M1082.34 369.95c-4.82 0-7.43-3.29-7.43-8.43v-16h-2.61v-5.3h2.61v-6.38l7.09-2.24v8.62h3.88v5.3H1082v15.25c0 2.73.93 3.66 2.39 3.66a5 5 0 0 0 1.49-.26v5a7 7 0 0 1-3.55.78" transform="translate(-895.779 -280.718)"/></g></g><g id="Group_27"><g id="Group_26" transform="translate(37.257 37.972)"><g id="Group_25"><path id="Path_224" fill="#870052" d="m149.73 443.79-2.05-.38-.19-.03a2 2 0 0 0-.4-.08.73.73 0 0 0-.79.7.8.8 0 0 0 .49.76l.26.07.22-.04 2.46-.6Z" transform="translate(-128.981 -315.904)"/><path id="Path_225" fill="#870052" d="M151.28 435.7q-.06-.06-.11-.14a.9.9 0 0 0-.79-.56.76.76 0 0 0-.78.75c0 .48.41.7.67.85l1.87 1.16.26-.3Z" transform="translate(-131.05 -310.7)"/><path id="Path_226" fill="#870052" d="M157.5 444.31a1.46 1.46 0 0 0-.05-2.91 1.5 1.5 0 0 0-1.45 1.46 1.47 1.47 0 0 0 1.5 1.45" transform="translate(-135.063 -314.713)"/><path id="Path_227" fill="#870052" d="M158.8 449.6h-.44l-.45 2.13a3 3 0 0 0-.11.56.8.8 0 0 0 .74.74.85.85 0 0 0 .83-.74 2 2 0 0 0-.12-.56Z" transform="translate(-136.191 -319.854)"/><path id="Path_228" fill="#870052" d="M164.55 450.74a.77.77 0 0 0 .78-.79.85.85 0 0 0-.6-.78c-.03-.04-.07-.04-.1-.08l-1.83-1.19-.3.3 1.38 2.13a.8.8 0 0 0 .67.4" transform="translate(-139.138 -318.788)"/><path id="Path_229" fill="#870052" d="M166.99 444.8a.75.75 0 1 0-.04-1.5 3 3 0 0 0-.56.07l-2.09.41v.45l2.09.49a.2.2 0 0 1 .15.03z" transform="translate(-140.266 -315.904)"/><path id="Path_230" fill="#870052" d="M164.7 436.67c.3-.19.6-.38.6-.82a.75.75 0 0 0-.75-.75.9.9 0 0 0-.82.6l-.07.11-1.16 1.79.3.3 1.75-1.12z" transform="translate(-139.138 -310.763)"/><path id="Path_231" fill="#870052" d="m158.8 435.23.45-2.09a.3.3 0 0 1 .04-.15 2 2 0 0 0 .07-.4.8.8 0 0 0-.82-.79.7.7 0 0 0-.71.49 1 1 0 0 0 0 .52l.52 2.38z" transform="translate(-136.182 -308.694)"/><path id="Path_232" fill="#870052" d="m150.47 449.16-.11.07a.9.9 0 0 0-.56.78.75.75 0 0 0 .74.75.8.8 0 0 0 .75-.45l1.34-2.05-.33-.26Z" transform="translate(-131.176 -318.851)"/><path id="Path_233" fill="#870052" d="m460.3 443.79-2.06-.38a.2.2 0 0 1-.15-.03l-.4-.08a.75.75 0 0 0-.79.7.8.8 0 0 0 .49.76l.26.07.26-.04 2.38-.6Z" transform="translate(-323.716 -315.904)"/><path id="Path_234" fill="#870052" d="M461.84 435.7a.3.3 0 0 1-.07-.14.9.9 0 0 0-.79-.56.76.76 0 0 0-.78.75c0 .44.37.67.67.85l1.87 1.16.26-.3Z" transform="translate(-325.785 -310.7)"/><path id="Path_235" fill="#870052" d="M467.9 444.31a1.46 1.46 0 0 0-.04-2.91 1.46 1.46 0 1 0 .03 2.91" transform="translate(-329.672 -314.713)"/><path id="Path_236" fill="#870052" d="M469.27 449.6h-.45l-.45 2.13v.07a2 2 0 0 0-.07.45.8.8 0 0 0 .75.74.8.8 0 0 0 .82-.74 3 3 0 0 0-.08-.52Z" transform="translate(-330.863 -319.854)"/><path id="Path_237" fill="#870052" d="M477.45 443.2c-.15 0-.49.08-.56.08l-2.09.4v.45l2.09.49.15.03a2 2 0 0 0 .45.08.8.8 0 0 0 .74-.75.8.8 0 0 0-.78-.78" transform="translate(-334.938 -315.842)"/><path id="Path_238" fill="#870052" d="m475.24 449.23-.11-.07-1.83-1.16-.3.26 1.38 2.13a.7.7 0 0 0 .67.37.8.8 0 0 0 .78-.78c0-.41-.3-.6-.6-.75" transform="translate(-333.81 -318.851)"/><path id="Path_239" fill="#870052" d="M475.2 436.67c.3-.19.6-.38.6-.82a.75.75 0 0 0-.75-.75.9.9 0 0 0-.82.6l-.07.11-1.16 1.79.3.3 1.75-1.12q.1-.1.15-.11" transform="translate(-333.81 -310.763)"/><path id="Path_240" fill="#870052" d="m460.87 449.1-.11.07a.9.9 0 0 0-.56.78.7.7 0 0 0 .74.71.8.8 0 0 0 .75-.45l1.34-2.05-.33-.26Z" transform="translate(-325.785 -318.788)"/><path id="Path_241" fill="#870052" d="m469.36 435.13.45-2.09a.1.1 0 0 1 .03-.1 2 2 0 0 0 .08-.46.8.8 0 0 0-.78-.78.8.8 0 0 0-.71.49 1 1 0 0 0 0 .56l.52 2.35z" transform="translate(-330.916 -308.631)"/><path id="Path_242" fill="#870052" d="m254.76 110.3 1.05-4.21c.15.3.6 1.15 1.94 3.87Zm-20.51-1.9a3 3 0 0 1 .63-.15c.49-.07.67.11.86.6.22.52.37.93 1.2 3.4l1.04 3.1.07.26c.49 1.41.9 2.65 1.05 3.32.11.48.11.78-.08.9l-.56.26c-.07.03-.3.11-.33.3a.4.4 0 0 0 .15.33.3.3 0 0 0 .18.08 1 1 0 0 0 .3-.08l2.1-.78 2.42-.78a1 1 0 0 0 .37-.26.3.3 0 0 0 0-.26.4.4 0 0 0-.45-.15l-.82.22c-.19.04-.48 0-.7-.6-.3-.67-.72-1.94-1.24-3.43l-.4-1.27c.66.45 5.1 3.1 6.07 3.5a3.5 3.5 0 0 0 2.58.38l1.15-.37a19 19 0 0 1 2.87-.52l1.87-.15a.4.4 0 0 0 .37-.15l.08-.26a.3.3 0 0 0-.12-.23.6.6 0 0 0-.37-.07l-.26.03a.5.5 0 0 1-.45-.07q-.1-.05-.1-.26a3 3 0 0 1 .14-1.05l.67-2.6v-.04l3.92-.45 1.83 3.54.03.08v.07h-.03c-.08.04-.38.08-.34.37s.34.27.63.23l3.4-.34c.6-.07.78-.1.9-.26a.3.3 0 0 0 .04-.19l-.04-.14c-.04-.08-.15-.15-.37-.12h-.71c-.38-.03-.86-.3-1.64-1.64l-5.6-10.3c-.23-.37-.38-.63-.68-.6s-.4.34-.56.9l-3.24 11.6a2.5 2.5 0 0 1-.67 1.38 3 3 0 0 1-1.23.11 8 8 0 0 1-2.76-.9l-.19-.07a131 131 0 0 1-6.08-3.28l2.31-4.7a6 6 0 0 1 1.34-1.84 3 3 0 0 1 .86-.48l.19-.12a.3.3 0 0 0 .1-.26.3.3 0 0 0-.3-.3c-.07 0-.18.04-.25.04l-1.94.7-1.76.53a.2.2 0 0 0-.15.08.3.3 0 0 0-.18.3.3.3 0 0 0 .1.22.5.5 0 0 0 .38.11c.04 0 .11 0 .15.15v.11a4 4 0 0 1-.33 1.12l-.08.19c-.15.37-.67 1.49-1.38 3.02l-.7 1.57-.16-.49c-.86-2.5-1-2.94-1.15-3.47a1 1 0 0 1-.08-.48.44.44 0 0 1 .3-.45l.45-.19a.5.5 0 0 0 .26-.18h.04v-.15a.2.2 0 0 0-.11-.23l-.04-.03a1 1 0 0 0-.49.03l-1.97.75-2.4.75c-.18.07-.51.18-.4.48.04.11.19.19.48.08" transform="translate(-183.803 -101.791)"/><path id="Path_243" fill="#870052" d="M298.93 513.47a4.8 4.8 0 0 1-3.4-1.49 7 7 0 0 1-1.63-5.07 6 6 0 0 1 1.49-4.25 4 4 0 0 1 2.68-.97h.15a4.5 4.5 0 0 1 3.21 1.45 6.8 6.8 0 0 1 1.6 4.93c-.04 1.64-.52 5.4-3.95 5.4zm-.15-12.98c-5.11-.15-7.57 3.43-7.69 6.87a7.5 7.5 0 0 0 1.6 4.88 7.1 7.1 0 0 0 5.45 2.43h.34a7.3 7.3 0 0 0 5.1-1.9 7.5 7.5 0 0 0 2.28-5.26c.11-4.18-2.6-6.87-7.09-7.01" transform="translate(-219.762 -351.759)"/><path id="Path_244" fill="#870052" d="M360.77 506.98c-.15.04-.9.15-1.16.2-.45.03-.56-.12-.75-.64a50 50 0 0 1-1-3.8l-.79-3.17c-.52-2.1-.82-3.55-.97-4.18l-.07-.3q-.06-.3-.22-.38a.3.3 0 0 0-.27-.03c-.18.03-.33.22-.48.37-.49.6-3.17 3.5-3.28 3.58l-.04.04a.6.6 0 0 0-.15.45.4.4 0 0 0 .22.22.5.5 0 0 0 .41-.11l.45-.34a9 9 0 0 1 1.27-.93c.08 0 .11-.04.22.41v.04c.04.1.15.52.56 2.23l.68 2.73c.4 1.64.74 3.1.9 3.84.07.52.03.7-.38.9a9 9 0 0 1-1.3.45.3.3 0 0 0-.19.15.3.3 0 0 0-.04.3.3.3 0 0 0 .34.22.3.3 0 0 0 .19-.04l2.9-.78 2.88-.67a.4.4 0 0 0 .33-.22.3.3 0 0 0 0-.38c-.03-.15-.26-.15-.26-.15" transform="translate(-257.687 -348.104)"/><path id="Path_245" fill="#870052" d="M377.21 491.2a2 2 0 0 1-.37-.41l-.04-.04-.15-.3a2 2 0 0 1-.15-.82 1.4 1.4 0 0 1 .15-.67 2 2 0 0 1 1.12-1.04 1.8 1.8 0 0 1 2.39 1.12 2.6 2.6 0 0 1-.49 2.9 5 5 0 0 1-2.42-.74Zm6.27 6.57a2.2 2.2 0 0 1-1.23 1.19 2.46 2.46 0 0 1-3.21-1.46 3.7 3.7 0 0 1 .56-3.73c1.68.23 3.2.45 3.84 2.02a2.8 2.8 0 0 1 .04 1.97m-2.32-5.78a3.7 3.7 0 0 0 .97-3.95 2.5 2.5 0 0 0-1.38-1.42 4 4 0 0 0-3.2.22c-2.65 1.09-2.95 2.95-2.95 3.7a3 3 0 0 0 .22 1.08c.49 1.2 1.57 1.86 3.4 2.09l-.49.56a4.8 4.8 0 0 0-1.12 2.87 3 3 0 0 0 .27 1.38 3.3 3.3 0 0 0 1.79 1.83 4 4 0 0 0 1.53.3 6 6 0 0 0 2.35-.52 5 5 0 0 0 2.9-2.69 3.7 3.7 0 0 0 0-2.95c-.85-2.09-3.2-2.38-4.28-2.5" transform="translate(-272.117 -342.911)"/><path id="Path_246" fill="#870052" d="m412.53 485.1-.23.03a9 9 0 0 1-1 .48c-.45.15-.6.04-.9-.37-.45-.6-1.16-1.79-1.95-3.06l-1.86-3.06-2.16-3.77-.12-.22a.6.6 0 0 0-.37-.34c-.34-.03-.56.45-.6.56-.3.68-2.01 4.3-2.09 4.4a.4.4 0 0 0 0 .49.5.5 0 0 0 .3.15c.19 0 .34-.23.37-.23.04-.03.08-.1.34-.48a8 8 0 0 1 .93-1.23l.08-.04q.1.08.26.37l2.65 4.37c.74 1.27 1.64 2.69 1.97 3.43.23.49.23.67-.07.97a14 14 0 0 1-1.12.82.28.28 0 0 0-.07.45.3.3 0 0 0 .26.15 1 1 0 0 0 .3-.11l2.57-1.6 2.54-1.46a.4.4 0 0 0 .26-.3.4.4 0 0 0-.04-.26z" transform="translate(-288.778 -335.65)"/><path id="Path_247" fill="#870052" d="M433.08 469.33a1.5 1.5 0 0 1-.56 1.08 2 2 0 0 1-1.34.4c-1.3-.1-3.1-1.37-4.78-3.39-1.6-1.94-2.46-3.65-2.35-4.8a1.6 1.6 0 0 1 .52-1.09 1.8 1.8 0 0 1 1.16-.41h.22c1.57.15 3.55 1.83 4.82 3.36 1.6 1.97 2.42 3.69 2.31 4.85m-5.74-9.96a4.3 4.3 0 0 0-3.21 1.08c-2.54 2.12-2.24 5.44.82 9.06 1.64 1.94 3.54 3.06 5.3 3.06a4.3 4.3 0 0 0 2.8-1.08 4.5 4.5 0 0 0 1.68-3.06c.15-1.83-.71-3.88-2.5-6-.71-.86-2.61-2.84-4.89-3.06" transform="translate(-302.097 -325.966)"/><path id="Path_248" fill="#870052" d="M104.48 264.08c.64-2.88 3.58-4.33 7.17-3.59 4.88 1.05 4.8 3.85 4.58 5-.63 3.03-3.69 4.6-7.38 3.8-4.55-1-4.67-3.69-4.37-5.22m4.33 8.02a8 8 0 0 0 1.6.19 7 7 0 0 0 3.47-.9 7.2 7.2 0 0 0 3.4-4.93 7.14 7.14 0 0 0-5.68-8.87 6.5 6.5 0 0 0-5.07.78 7.6 7.6 0 0 0-3.1 4.96 7.5 7.5 0 0 0 1 6 7.4 7.4 0 0 0 4.37 2.77" transform="translate(-101.974 -199.349)"/><path id="Path_249" fill="#870052" d="M116.22 229.25a.4.4 0 0 0 .27-.3l.3-.48c.3-.41.52-.41 1.04-.23.52.23.97.41 3.4 1.57l2.83 1.3c1.34.64 2.69 1.27 3.36 1.68.44.3.63.45.6.68a2 2 0 0 1-.15.4l-.08.2a.5.5 0 0 0-.03.37.4.4 0 0 0 .14.18l.12.04a.1.1 0 0 0 .1-.04q.16-.05.3-.33l.5-1.12.4-.9 1.24-2.47 1.04-2.12c.37-.82.41-1.05 0-1.42a11 11 0 0 0-1.75-1.12c-.15-.07-.41-.18-.56.08a.37.37 0 0 0 .22.48 2 2 0 0 1 .71.79c.22.52 0 1.08-.41 1.93-.6 1.24-.86 1.53-1.16 1.68-.37.2-1.6-.4-3.43-1.26l-3.36-1.57c-1.97-.93-2.38-1.12-2.83-1.38-.56-.3-.63-.49-.56-.82l.22-.64a.6.6 0 0 0 .08-.4.4.4 0 0 0-.15-.2c-.3-.14-.45.23-.52.38l-.97 2.2-1.08 2.16a.6.6 0 0 0-.08.49c-.07.11.08.26.26.19" transform="translate(-109.947 -178.291)"/><path id="Path_250" fill="#870052" d="m209.21 134.9 1.05.14c1.71.22 2.35.75 2.8 1.46a2 2 0 0 1-.97 2.72 2.3 2.3 0 0 1-2.87-.23 4 4 0 0 1-.56-.67.4.4 0 0 0-.3-.26.3.3 0 0 0-.26.04c-.3.15-.12.56-.04.75l1.12 2.05c.18.3.3.45.6.45h.18a6 6 0 0 0 2.5-.94 5.3 5.3 0 0 0 2.13-2.12 4 4 0 0 0 .41-1.72 3.6 3.6 0 0 0-.56-1.94c-.9-1.5-2.16-2.13-4.92-2.5l-.6-.07c-1.72-.2-2.39-.49-2.76-1.16a2 2 0 0 1-.23-.82 1.9 1.9 0 0 1 1.08-1.57 2.1 2.1 0 0 1 1.94-.22 1.7 1.7 0 0 1 .9.7q.16.25.3.3a.35.35 0 0 0 .38-.22c.03-.15 0-.3-.19-.6l-.9-1.6-.15-.26c-.15-.26-.4-.15-.52-.15a8 8 0 0 0-2.2.94 4.6 4.6 0 0 0-2.24 2.72 3.2 3.2 0 0 0 .37 2.46c.83 1.3 2.13 2.01 4.52 2.31" transform="translate(-165.298 -117.242)"/><path id="Path_251" fill="#870052" d="m346.54 118.25.26-.08a.3.3 0 0 0 .08-.37v-.04a1 1 0 0 0-.34-.19l-.86-.22c-.4-.11-.45-.37-.45-.78.04-.75.3-2.1.56-3.7l.53-3.2c.4-2.58.52-3.14.63-3.66.15-.63.3-.75.63-.75l.53.04q.44.06.48-.26V105l-.04-.11-.03-.04c-.08-.11-.19-.15-.45-.19l-2.13-.3-2.23-.4a.7.7 0 0 0-.53.03l-.1.19a.4.4 0 0 0 .07.3 1 1 0 0 0 .3.15q.24.04.6.15c.3.1.37.37.33.9-.03.56-.11.97-.52 3.43l-.56 3.32a48 48 0 0 1-.7 3.77c-.16.56-.3.67-.5.67l-.63-.04q-.44-.06-.48.22c-.04.12 0 .38.45.41l2.2.3 2.72.53a.4.4 0 0 1 .18-.04" transform="translate(-251.032 -103.135)"/><path id="Path_252" fill="#870052" d="M412.5 148.97a.5.5 0 0 0 .15.38 6 6 0 0 0 1.9 1.9 5 5 0 0 0 2.8 1.04h.11a3.7 3.7 0 0 0 3.14-1.68c.97-1.42 1.04-2.87.18-5.48l-.18-.6c-.53-1.64-.56-2.35-.12-2.99a1.7 1.7 0 0 1 2.54-.26 2.1 2.1 0 0 1 1 1.68 2 2 0 0 1-.25 1.12c-.04.04-.2.26-.12.41a.3.3 0 0 0 .15.19.34.34 0 0 0 .41-.04l.3-.33 1.08-1.46.2-.22a.4.4 0 0 0-.12-.53 8 8 0 0 0-1.8-1.6 4.6 4.6 0 0 0-3.39-.9 3 3 0 0 0-2.09 1.38c-.9 1.31-.97 2.76-.26 5.08l.3 1c.53 1.64.34 2.47-.15 3.17a2 2 0 0 1-2.87.27 2.3 2.3 0 0 1-1-2.73 4 4 0 0 1 .37-.78c.04-.08.15-.22.11-.37a.3.3 0 0 0-.15-.19c-.3-.19-.56.19-.67.3l-1.38 1.87a.4.4 0 0 0-.19.37" transform="translate(-295.879 -125.468)"/><path id="Path_253" fill="#870052" d="M453.1 163.88c.19.19.56.64 1.38 1.53.7.79.9 1.27.9 1.57a.6.6 0 0 1-.15.4l-.11.16c-.11.15-.23.26-.23.4a.3.3 0 0 0 .12.23c.18.19.4 0 .52-.07l.04-.04v-.04c.22-.18 1.08-1 1.45-1.34.11-.11.26-.26.26-.41a.3.3 0 0 0-.11-.22l-.41-.3-.86-.75-4.92-5.04a17 17 0 0 1-1.16-1.3 1 1 0 0 1-.26-.49l-.11-.18-.04-.04c-.19-.19-.45-.04-.6.07-.11.08-1.53.97-1.75 1.16-.15.15-.19.22-.19.34v.03q.07.23.19.23a.6.6 0 0 0 .4-.04 2 2 0 0 1 .6-.19c.42-.07.75.19 1.43.82l1.75 1.72c-.75.7-5.04 4.92-5.07 4.96l-.19.19a29 29 0 0 1-2.54 2.35c-.4.33-.67.4-.82.3l-.48-.38q-.33-.33-.53-.1a.2.2 0 0 0-.1.18.6.6 0 0 0 .22.41l1.56 1.57 1.9 2.01q.21.23.38.23a.3.3 0 0 0 .22-.08.2.2 0 0 0 .08-.19.4.4 0 0 0-.2-.33l-.55-.67a.6.6 0 0 1-.11-.34 1 1 0 0 1 .33-.63 34 34 0 0 1 2.65-2.69c3.8-3.7 4.81-4.7 5.11-5" transform="translate(-314.061 -136.946)"/><path id="Path_254" fill="#870052" d="M464.66 201.02c-.49.26-.67.26-.82.11l-.41-.48a.5.5 0 0 0-.3-.26.3.3 0 0 0-.2.03.3.3 0 0 0-.14.23.5.5 0 0 0 .15.4l1.27 1.8 1.49 2.31a.5.5 0 0 0 .4.26.3.3 0 0 0 .2-.04c.07-.03.22-.22 0-.56l-.45-.78c-.19-.37-.08-.6.26-.86.56-.44 1.68-1.19 3.13-2.2l3.17-2.12c1.72-1.16 2.1-1.42 2.54-1.68.56-.34.74-.3.97-.08l.33.41c.23.3.41.26.56.2a.2.2 0 0 0 .12-.2q.03-.16-.15-.44l-1.23-1.76-1.23-1.94c-.12-.15-.34-.48-.6-.33a.4.4 0 0 0-.15.18.4.4 0 0 0 .1.38 4 4 0 0 1 .3.52c.12.3 0 .52-.4.86-.41.3-.78.56-2.54 1.75l-3.32 2.24a31 31 0 0 1-3.06 2.05" transform="translate(-327.407 -158.975)"/><path id="Path_255" fill="#870052" d="M488.35 219.98a2 2 0 0 1 .63.03c.4.08.63.45 1.04 1.27l1.05 2.2-6.46 2.84-.03.03c-1.46.64-2.73 1.2-3.4 1.42-.52.15-.78.15-.9 0l-.33-.56q-.13-.24-.3-.26a.4.4 0 0 0-.3.08c-.15.1-.08.33 0 .52l.93 2.01 1.08 2.54a.5.5 0 0 0 .3.34h.11a.2.2 0 0 0 .23-.12c.1-.15.03-.4.03-.44l-.3-.86c0-.08-.03-.11-.03-.19 0-.26.18-.41.56-.63.63-.38 1.9-.94 3.35-1.57l.67-.3c1.46-.64 5.12-2.24 5.86-2.58.11.3.37.9.78 1.9a4 4 0 0 1 .34 1.38.7.7 0 0 1-.34.71l-.18.08c-.19.11-.37.22-.37.37a.2.2 0 0 0 .03.15c.11.26.41.15.56.11.04 0 1.9-.78 1.9-.78q.3-.09.38-.3v-.22l-.3-.45c-.04-.04-.34-.6-.56-1.05l-2.84-6.41a17 17 0 0 1-.63-1.64 2 2 0 0 1-.08-.56l-.04-.23v-.03c-.1-.27-.4-.2-.56-.15s-1.75.37-2.05.48c-.11.04-.4.19-.3.49.04.37.23.4.45.37" transform="translate(-337.74 -175.023)"/><path id="Path_256" fill="#870052" d="M497.77 265.16c-2.24.4-3.66 1.19-4.44 2.46a5.7 5.7 0 0 0-.52 4.18 5.4 5.4 0 0 0 1.97 3.46 4.8 4.8 0 0 0 3.17 1.01 14 14 0 0 0 2.5-.26l1.94-.34c2.58-.48 3.06-.56 3.62-.63.63-.07.78.04.93.34l.15.48c.04.19.08.3.23.37a.4.4 0 0 0 .4-.07.7.7 0 0 0 .04-.49l-.4-1.97-.34-2.02-.11-.33a.3.3 0 0 0-.3-.15c-.12 0-.2.07-.2.11a.4.4 0 0 0-.03.37l.08.6c0 .49-.19.64-.71.79-.52.1-.94.22-3.29.63l-2.57.49c-1.9.33-3.32.52-4.36-.2a3.3 3.3 0 0 1-1.31-2.12 3.2 3.2 0 0 1 .3-2.2c.6-1.04 1.72-1.64 3.92-2.05l2.53-.45a68 68 0 0 1 3.58-.63c.64-.08.83.04.94.34l.15.48a.5.5 0 0 0 .22.34l.15.03a.3.3 0 0 0 .22-.1.7.7 0 0 0 0-.5l-.44-2.12-.41-2.54c-.04-.15-.12-.56-.45-.48-.3.07-.26.4-.23.52l.08.63c0 .53-.19.64-.71.79s-.93.22-3.54.67Z" transform="translate(-346.117 -202.221)"/><path id="Path_257" fill="#870052" d="M510.08 314.58c-.19-.03-1.76-.44-2.05-.48-.2 0-.3 0-.41.11a.4.4 0 0 0-.08.3.4.4 0 0 0 .3.26 1.4 1.4 0 0 1 .56.3c.26.23.37.53.37 1.38v.19l-.03 2.46c-.97-.03-6.01-.26-7.13-.33h-.07a43 43 0 0 1-3.62-.26c-.52-.08-.75-.2-.79-.41l-.03-.64v-.04a.5.5 0 0 0-.15-.33.5.5 0 0 0-.34 0h-.03q-.16.1-.15.45l-.04 2.2-.19 2.76a1 1 0 0 0 .12.44.3.3 0 0 0 .4 0 1 1 0 0 0 .15-.37l.12-.9c.07-.4.37-.48.82-.52.67-.04 1.9 0 3.32.07h.45c5.18.26 6.64.3 7.08.34-.03.26-.07.78-.15 2.05-.1 1.6-.63 1.87-.93 1.87h-.19c-.18 0-.52 0-.52.37 0 .26.26.3.45.34l1.12.07.93.08h.15a.6.6 0 0 0 .34-.08l.1-.19-.07-.52-.03-1.2.33-6.97c.04-.56.08-1.23.15-1.75a3 3 0 0 1 .15-.49l.08-.22v-.04c-.04-.15-.3-.22-.49-.3" transform="translate(-348.355 -234.901)"/><path id="Path_258" fill="#870052" d="M502.88 357.17a.3.3 0 0 0-.38-.08c-.1.04-.14.15-.22.34l-.22.63c-.23.45-.49.49-.97.37a33 33 0 0 1-3.21-.78l-3.5-.9c-1.46-.37-2.84-.7-3.52-.97-.4-.19-.7-.33-.7-.56l.07-.6a.5.5 0 0 0-.04-.4.4.4 0 0 0-.4-.08.6.6 0 0 0-.23.4l-.26 1.2-.23.97-.48 1.75-.82 2.95c-.19.67-.26.93.3 1.23a11 11 0 0 0 1.86.71.6.6 0 0 0 .45 0q.17-.17.11-.3c-.03-.19-.26-.3-.33-.34-.64-.3-.9-.52-.97-.97a6 6 0 0 1 .18-1.6c.45-1.79.75-1.79 1.76-1.56l3.99 1h.04c-.12.49-.53 2.06-.64 2.35-.18.49-.37.67-.74.67l-.45-.03-.15-.04a.3.3 0 0 0-.37.26c-.08.3.26.41.4.45.04 0 .83.26 1.13.37l1.08.38.15.07a.2.2 0 0 0 .26-.04.2.2 0 0 0 .11-.18.6.6 0 0 0-.15-.45 1 1 0 0 1-.04-.78c.04-.26.3-1.27.64-2.69h.04l4.29 1.08h.03a39 39 0 0 1-.67 2.35c-.33.82-.56.86-.78.86a2 2 0 0 1-.6-.04h-.11a.3.3 0 0 0-.34.15v.08a.4.4 0 0 0 .26.4l.78.27.34.11.93.37.15.08h.15a.25.25 0 0 0 .26-.22v-.27l.08-.74 1-4.07.34-1.15.41-1.5c.04-.26.04-.37-.07-.52Z" transform="translate(-342.984 -259.986)"/><path id="Path_259" fill="#870052" d="M490.34 396.08a19 19 0 0 0-1.71-1.23.5.5 0 0 0-.38-.07c-.18.07-.22.22-.18.3a.5.5 0 0 0 .18.33 1 1 0 0 1 .38.49 1 1 0 0 1 .1.37 4 4 0 0 1-.37 1.23l-.07.15c-.3.67-.78 1.72-.97 2.1l-3.43-1.69c-2.28-1.12-2.8-1.34-2.91-1.42l-.23-.1c-1.34-.68-2.53-1.24-3.13-1.6q-.6-.4-.6-.6v-.08l.22-.56a1 1 0 0 0 .08-.3v-.11l-.04-.04a.4.4 0 0 0-.33-.15h-.04a.5.5 0 0 0-.3.33l-.6 1.27-.34.75-.37.74-.86 1.72c-.07.15-.19.49.08.63a.2.2 0 0 0 .22 0 .5.5 0 0 0 .26-.26l.45-.78c.22-.34.48-.3.97-.15a30 30 0 0 1 3.32 1.53l.07.04 1.65.78.3.15c1.6.78 3.88 1.9 4.47 2.16-.11.23-.4.75-.93 1.8-.75 1.45-1.3 1.49-1.6 1.37l-.19-.07c-.19-.08-.48-.19-.63.11-.11.26.15.41.26.49l.04.03c.14.12.6.34 1.75.94h.04a1 1 0 0 0 .37.1.3.3 0 0 0 .26-.14v-.08l.07-.26.04-.18c.04-.08.11-.3.45-1.09l3.06-6.3a12 12 0 0 1 .86-1.52 1 1 0 0 1 .33-.38l.19-.18.04-.04c.07-.23-.19-.41-.3-.52" transform="translate(-334.664 -284.431)"/><path id="Path_260" fill="#870052" d="M165.2 163.35c1.04 1.12 1.27 1.45 1.08 1.75a3 3 0 0 1-.48.56.4.4 0 0 0-.19.37.3.3 0 0 0 .3.3.7.7 0 0 0 .41-.22l1.16-1.16.18-.18 1.64-1.46c.12-.11.41-.4.2-.63s-.5.03-.57.11a3 3 0 0 1-.7.52q-.45.24-1.6-.97l-4.97-5.03h.19c.82.07 3.28.26 5.56.3l7.34.18a1.3 1.3 0 0 0 .79-.15h.11v-.07a.3.3 0 0 0 .07-.19.1.1 0 0 0-.03-.11 1 1 0 0 0-.3-.41l-7.54-8.2c-.67-.75-.7-1.01-.56-1.31l.34-.38q.22-.2.22-.37a.3.3 0 0 0-.07-.19.2.2 0 0 0-.19-.1.7.7 0 0 0-.45.25l-1 1.01-.23.22-1.64 1.38q-.3.28-.3.49l.08.19.14.07h.04a.5.5 0 0 0 .34-.19 3 3 0 0 1 .7-.52c.34-.11.6-.03 1.35.71l5.33 5.37c-.37 0-1-.03-1.3-.07h-.19l-3.77-.15c-3.8-.08-7.83-.34-7.87-.34h-.26a1 1 0 0 0-.75.12c-.3.26.08.67.23.82Z" transform="translate(-136.128 -129.696)"/><path id="Path_261" fill="#870052" d="M135 193.59a.3.3 0 0 0 .26.15c.08 0 .11-.04.15-.04a1 1 0 0 0 .22-.22 2 2 0 0 1 .38-.45c.22-.23.48-.19.97.07.44.26.82.52 2.68 1.8l3.02 2.08c1.35.94 2.5 1.72 3.06 2.2.45.38.49.52.41.71l-.3.56a.4.4 0 0 0-.1.37.3.3 0 0 0 .33.23h.03q.17 0 .38-.3l1.2-1.87 1.6-2.23a.7.7 0 0 0 .14-.41.33.33 0 0 0-.37-.23.6.6 0 0 0-.3.23l-.56.7c-.3.3-.52.27-.9.04-.64-.33-1.68-1.08-2.99-1.98l-2.76-1.9c-2.16-1.49-2.6-1.79-3.06-2.16-.52-.4-.56-.6-.4-.9l.26-.45c.18-.26.14-.45-.04-.56l-.21-.03a.7.7 0 0 0-.37.3l-1.2 1.8-1.34 1.86a1 1 0 0 0-.19.37z" transform="translate(-121.896 -156.468)"/><path id="Path_262" fill="#870052" d="M106.67 313.96q.01.04-.15.07l-5.37.15h-.07v-.03a4 4 0 0 1-.08-.9 2.4 2.4 0 0 1 .67-1.72 3.2 3.2 0 0 1 2.32-.9h.18a2.8 2.8 0 0 1 2.35.9c.23.26.3.49.3 1.16a4 4 0 0 1-.15 1.26m1.72 2.43c1.57-.04 2.95-.08 3.7-.04.51.08.78.11.81.34l.08.6a.6.6 0 0 0 .11.37.3.3 0 0 0 .19.08.2.2 0 0 0 .15-.04.4.4 0 0 0 .18-.49l-.1-2.12-.05-2.61a.6.6 0 0 0-.14-.45.4.4 0 0 0-.45 0 .3.3 0 0 0-.08.3l-.03.86c-.04.37-.23.48-.79.56a36 36 0 0 1-3.58.18h-.37l-.04-1.49q-.01-.15.04-.18l1.15-.9 1.24-.94a9 9 0 0 0 2.57-2.57 3.7 3.7 0 0 0 .3-1.98l-.04-1.68a1 1 0 0 0-.07-.37l-.04-.08h-.04a.2.2 0 0 0-.15-.03h-.1c-.08 0-.23.07-.23.37l-.04.49a3.3 3.3 0 0 1-1.08 1.9c-.9.9-2.13 1.94-3.66 3.24l-.7.6-.12-.11-.1-.11a4.9 4.9 0 0 0-3.85-1.94 3 3 0 0 0-2.5 1.38 5.7 5.7 0 0 0-.67 3.35l.15 2.5.03 2.43c0 .15 0 .56.34.56s.34-.37.3-.49a3 3 0 0 1 .04-.63c.07-.49.3-.6.82-.67a63 63 0 0 1 3.43-.15Z" transform="translate(-99.873 -228.38)"/><path id="Path_263" fill="#870052" d="m114.24 356.5-4.3-.48c.3-.23 1.16-.79 3.59-2.43Zm10.59 14.33c.45-.15.74-.23.9-.04l.33.52c.08.15.2.26.27.26h.03a.5.5 0 0 0 .34-.11.5.5 0 0 0-.08-.52l-1.05-1.94-1.08-2.31a.6.6 0 0 0-.3-.3.2.2 0 0 0-.22 0 .3.3 0 0 0-.15.26.3.3 0 0 0 .08.22l.3.75.03.15q0 .34-.52.63c-.63.37-1.9 1-3.24 1.68l-1.2.6c.37-.7 2.35-5.48 2.65-6.5a3.6 3.6 0 0 0 .04-2.56l-.52-1.09a5 5 0 0 1-.34-.74l-.45-1.64-.11-.34-.41-1.83a.4.4 0 0 0-.22-.33l-.27-.04c-.3.07-.22.37-.18.48l.07.27c.11.48-.07.56-.22.63a3 3 0 0 1-1.05 0l-2.68-.3h-.04l-.97-3.8 3.28-2.31a.1.1 0 0 1 .12-.04l.07.15a.3.3 0 0 0 .37.15c.26-.08.23-.38.15-.67l-.82-3.32-.04-.2c-.1-.4-.14-.6-.37-.66a.3.3 0 0 0-.26.07.6.6 0 0 0-.11.38l.11.7c0 .38-.15.9-1.42 1.83l-9.44 6.94c-.37.3-.56.49-.52.75.08.3.41.33.97.45l11.83 1.56a2.5 2.5 0 0 1 1.49.53 2.5 2.5 0 0 1 .22 1.19 8 8 0 0 1-.52 2.87l-.04.19c-.26.86-1.9 5.3-2.46 6.45-1-.33-4.25-1.42-4.96-1.68a6 6 0 0 1-1.98-1.08 3 3 0 0 1-.6-.78.4.4 0 0 0-.26-.26h-.26l-.15.15v.03a.6.6 0 0 0 .08.41l.97 1.83.78 1.64c.08.19.15.26.26.3h.23a.4.4 0 0 0 .15-.48c0-.04-.04-.12.1-.19a3 3 0 0 1 1.39.19l.1.03c.42.12 1.6.49 2.77.82l.37.12 1.68.52-.26.15-.34.18-.26.12a39 39 0 0 1-2.87 1.38c-.6.26-.78.18-.97-.08l-.19-.34-.03-.07a.34.34 0 0 0-.49-.22c-.3.14-.11.48-.03.63l1 1.86 1.08 2.24q.17.3.3.38h.23q.29-.18.07-.56a4 4 0 0 1-.26-.6c-.11-.49.04-.68.49-.94s.82-.45 3.17-1.64l2.95-1.5a36 36 0 0 1 3.39-1.63" transform="translate(-103.519 -254.884)"/><path id="Path_264" fill="#870052" d="M175.58 463.08c-.15.49-.64 1.83-1.38 4l-.04.07-2.35-1.87Zm-.38 11.42c-.22-.3-.41-.82.04-2.31l3.4-11.23c.1-.41.18-.71-.04-.9s-.53-.04-1.01.22l-10.41 5.86c-.86.49-1.38.67-1.98.3l-.44-.34h-.04a.3.3 0 0 0-.38 0 .3.3 0 0 0-.14.27v.03c0 .15.1.23.26.38l1.34 1.04.3.22 1.42 1.23c.11.08.26.23.4.15a.3.3 0 0 0 .2-.26c.03-.19-.15-.33-.2-.37l-.22-.15a1 1 0 0 1-.3-.37l.08-.26a4 4 0 0 1 .82-.64l2.31-1.38h.04l3.06 2.46-1.23 3.8-.04.12-.04.03h-.03c-.23-.15-.38-.1-.49.04-.19.22.08.45.3.63l2.65 2.17c.45.33.6.45.75.45h.03a.3.3 0 0 0 .23-.19.4.4 0 0 0-.15-.37Z" transform="translate(-140.204 -326.36)"/><path id="Path_265" fill="#870052" d="m216.44 479.8.45.18c.37.19.52.04.6-.07.15-.3-.19-.45-.37-.56l-1.27-.6-.3-.11-1.86-1.01-.12-.04c-.18-.07-.37-.19-.48-.04a.4.4 0 0 0-.11.3.4.4 0 0 0 .26.3 3 3 0 0 1 .74.49.5.5 0 0 1 .15.37 3 3 0 0 1-.37 1.12c-.11.26-2.69 5.49-3.32 6.83l-.45-1.46-1.08-3.61a178 178 0 0 1-2.28-7.54l-.07-.22q-.15-.57-.41-.67-.17-.06-.23 0-.22.06-.44.52l-4.93 9.21c-.7 1.34-.97 1.68-1.3 1.6a4 4 0 0 1-.71-.26.5.5 0 0 0-.38-.07.3.3 0 0 0-.18.37c.03.15.18.22.37.33l1.46.71.26.12.4.22 1.5.82a.7.7 0 0 0 .48.11.3.3 0 0 0 .19-.37c-.04-.11-.11-.19-.3-.26a3 3 0 0 1-.7-.49c-.23-.26-.12-.82.36-1.82l3.03-6.35.03.19c.38 1.38.94 3.43 1.57 5.33l1 3.18 1.24 3.84a1 1 0 0 0 .45.7h.1c.3 0 .53-.4.57-.48l5.26-9.81c.63-.93.86-1.04 1.2-1" transform="translate(-161.373 -334.791)"/><path id="Path_266" fill="#870052" d="m260.04 494.66-1.38-.34-.3-.08-2.05-.63c-.22-.08-.4-.11-.56 0a.4.4 0 0 0-.15.26c0 .26.26.3.38.34a2 2 0 0 1 .82.33.6.6 0 0 1 .26.56 4 4 0 0 1-.15.94v.07c-.15.67-1.5 5.93-1.83 7.31-.22-.45-.7-1.3-.75-1.38l-1.79-3.28c-1.71-2.95-3.5-6.42-3.76-6.9l-.12-.22c-.15-.3-.26-.49-.44-.56-.38-.12-.53.4-.6.63l-2.91 10.04c-.38 1.34-.6 1.82-.94 1.82a3 3 0 0 1-.74-.1c-.12-.05-.41-.12-.53.1a.3.3 0 0 0-.03.26q.04.21.45.3l1.82.45 2.1.64c.22.07.4.1.55-.04a.25.25 0 0 0 .08-.3.5.5 0 0 0-.34-.26 3 3 0 0 1-.78-.34q-.39-.25 0-1.86l1.68-6.83.11.19c.45.9 1.53 2.98 2.61 4.88l1.6 2.84 2.05 3.54a1.4 1.4 0 0 0 .52.6l.08.04a.4.4 0 0 0 .3-.11 1 1 0 0 0 .22-.49l3.14-10.7c.3-.97.48-1.16.82-1.16l.52.08a.5.5 0 0 0 .45-.08.3.3 0 0 0 .07-.26c-.03-.15-.26-.22-.48-.3" transform="translate(-189.269 -345.847)"/><path id="Path_267" fill="#870052" d="m365.8 124.2 1.5.56.3.11 2.01.86c.15.04.52.19.67-.11a.2.2 0 0 0 0-.23c-.07-.14-.3-.22-.33-.26a3 3 0 0 1-.75-.4q-.38-.33.19-1.87l2.42-6.6.08.19c.37.93 1.2 3.13 2.05 5.14l1.3 3.03 1.65 3.73a1.2 1.2 0 0 0 .52.67h.26a1 1 0 0 0 .37-.53l4.3-10.3c.37-.93.63-1.08.96-1.04l.49.15a.7.7 0 0 0 .45.04l.07-.04.11-.3-.03-.04c-.04-.15-.2-.22-.41-.3l-1.35-.48-.3-.12-1.97-.82c-.23-.07-.6-.22-.71.08l-.04.11c0 .22.26.34.34.37a3 3 0 0 1 .78.41.6.6 0 0 1 .19.49 3 3 0 0 1-.27 1.04l-2.64 7.13c-.12-.23-.27-.67-.56-1.38l-1.46-3.5c-1.2-2.73-2.35-5.68-2.95-7.17l-.1-.34c-.12-.3-.2-.52-.42-.63a.3.3 0 0 0-.26 0c-.19.07-.3.34-.41.56l-4 9.66c-.55 1.42-.77 1.75-1.11 1.72a2 2 0 0 1-.7-.19c-.38-.15-.5 0-.53.11-.19.3.15.41.3.49" transform="translate(-266.382 -108.082)"/><path id="Path_269" fill="#870052" d="M419.9 256.43c-4.02-7.53-13.2-5.18-14.5-4.66-4.3 1.64-6.5 5.56-6.83 9.77-3.8-5.18-2.28-11.82-2.24-12.27a16 16 0 0 0 .15-3.4 7 7 0 0 0 1.9-1.19c3.5-3.62.11-4.59-1.53-2.57.19-2.69-1.23-1.6-2.01-1.31-.08-1.9-1.42-.9-1.72-.41-.82-2.84-3.02-.56-3.62.41-3.58-.97-4.06.6-4.1.56 1.6.52 1.8.82 1.83 1.23.04.49-.75 1.16-1.83 1.2.04.14 2.1.78 2.87-.3.86-1.16.12-1.98 0-1.98a9 9 0 0 1 2.4.48c2.97.97 3.94 1.42 4.1 4.14a17 17 0 0 1-.46 3.85 28 28 0 0 0 0 8.58c.64 3.24 4.4 9.7 5.9 6.67.63-1.3.93-4.29 2.05-7.3 1.34-3.59 4.85-5.72 9.88-4.67 7.35 2.05 7.24 8.02 6.68 9.36 0 0 .11-4.33-3.73-5.63a12.2 12.2 0 0 1 .3 7.76c.34-2.47-1.23-6-5.86-7.05 3.44 6.23.45 14.17.15 14.47 5.52-4.48 2.69-11 2.69-11s2.87 2.8 1.23 8.92c4.48-3.06 3.32-10.34 3.36-10.3 1.04 1.82 1.27 2.98.86 6.34 0-.08.9-.04 2.16-3.77 1.2-3.7-.07-5.93-.07-5.93" transform="translate(-278.888 -187.826)"/><path id="Path_270" fill="#870052" d="M386.93 287.86a13.5 13.5 0 0 0 7.2-2.69 19 19 0 0 1-11.6-.18c-3.5-1.46-7.35-6.64-7.94-7.69-1.27-2.09-1.83-6.45-.83-10.33.75-3.02 3.44-9.18 3.59-10.67.18-1.38-1.2-1.79-1.31-1.9h-.08c-5.03 1.98-4.14 5.3-2.42 5.11.04.34-.08 1.2.75 1.46-.3.93-2.95 5.52-3.14 8.8-.45 8.47 3.92 11.82 4.89 13.2 2.12 3.02-.26 5.15-1.38 5.41a5.5 5.5 0 0 1-2.91.04 9 9 0 0 0-2.58-.6 2.6 2.6 0 0 0-2.27 1.68 17 17 0 0 1 2.35.04 5 5 0 0 1 1.46.26 6 6 0 0 1-.27 2.01 1.4 1.4 0 0 0-.03.67 3.1 3.1 0 0 0 2.35-2.2c2.01.3 2.9.34 4.1 1.05a3 3 0 0 1 .9-1.64 9 9 0 0 1 3.13-1.2c3.43 2.65 1.75 10.07 1.57 10.41s-.86.6-2.24.37c-.23.2-.45.15-.71.68-1.08-.12-3.17-.41-4.44.07a9.5 9.5 0 0 0-3.95 2.98c-.15.26-.56.94-.08 1.2a18 18 0 0 0 3.32.11c.82 0 12.87 0 13.88-.04a37 37 0 0 0 5.11-.44c.63-.2.52-.49.52-.49 0-.22-.97-2.09-3.7-2.35-3.01-.56-5.21-.52-5.36-.63.33-.38.93-.75 1-1.12.12-.53-.03-3.85.08-5.23a25 25 0 0 1 1.04-6.15" transform="translate(-267.289 -197.471)"/><path id="Path_271" fill="#870052" d="M184.76 288.78a76 76 0 0 1-7.02 3.35c-1.68-.03-4.88-3.58-6.19-6.49s-1.38-9.7-1.38-11.56h22.68a7.3 7.3 0 0 0-4.66 5.86c-.67 4.58.86 6.3-3.43 8.84m-10.41 8.5c.93-2.8 9.21-5.44 11.64-6.71 1.94 5.9-9.4 5.18-10.15 11.19-2.24-2.54-1.49-4.48-1.49-4.48m-17.09-23.72a7.2 7.2 0 0 1 2.8-7.02c3.1-2.16 8.02-2.5 11.23-1.64 1.57.41 1.2 1.01.79.94a13.6 13.6 0 0 0-8.32.78c-5.41 2.31-5.9 9.14 1.26 10.97.27 1.04.3 1.3.64 2.57-6.34-.34-8.17-4.81-8.4-6.6m39.7-1.46c-.49-1.3-35-.6-35-.6s.94-5.97 10.49-4.21c3.84.7 4.88 2.6 10.81 2.57.34 0 .41-.63.12-.67-1.8-.3-1.64-1-1.42-1.34.26-.53 1.79.3 2.24.18.1-.03.22-.33.3-.6a.4.4 0 0 0-.23-.4c-3.1-1.84-4.85-2.06-7.2-1.6-.93.18-3.88-1.05-4.96-1.39-4.1-1.27-9.88-1.12-12.94 1.01-3.77 2.61-6.42 7.57-2.46 13.5 1.67 2.5 5.07 3.58 9.43 4 1.87 8.46 7.73 10.44 8.88 10.96a7 7 0 0 0-2.95 2.87c-.26.63-1.04 4.33 3.25 7.09a5.2 5.2 0 0 1-3.54 3.4c-1.01.33-1.87.3-2.54.9a4 4 0 0 0-.56 1.93h18.69a1.9 1.9 0 0 0-1.5-2.38c-1.82-.68-1.79-.34-3.54-1.72-1.9-1.23-1.68-6.5-1.6-7.09.26-.48 4.59-1.79 6.04-3.77a4.8 4.8 0 0 0 .6-5c3.88-2.76 2.99-8.5 3.29-9.88.52-2.39 1.6-3.02 3.43-3.73 1-.37 2.5-.23 2.87-.6.49-.26.52-2.84 0-3.43" transform="translate(-134.276 -203.012)"/></g><path id="Path_272" fill="#870052" d="M294.3 232.1c-.03-1.34-.03-1.6-.03-3.2 6.38-2.32 10-4.82 11-8.77 2.83-11.23-10-13.21-11.27-13.58-.03-.86-.03-1.46-.03-2.1 8.09-2.5 10.78-6.63 10.37-10.96-.2-2.01-.79-6.53-11-9.1-.2-6.49-.53-8.84-1.27-10a2.9 2.9 0 0 0-2.43-1.53c-2.35-.07-3.28 3.14-3.65 6v.04a53 53 0 0 0-.38 4.26 6.4 6.4 0 0 1-2.83-1.16c-1.27-.97-.67-2.46-.11-3.24a14.3 14.3 0 0 0 3.43-7.35 6 6 0 0 0-.3-2.65 2.2 2.2 0 0 0-1.27-1.46 6 6 0 0 1 .6-1.15 29 29 0 0 0 2.72-2.8c.15-.3-.14-.41-.3-.27a8 8 0 0 1-2.35 1.42c-1.04.41-.3-1.49-.1-2.68.03-.3-.27-.26-.38-.12a8 8 0 0 0-1.08 2.88c-.3 1.12.45 1.49-.15 2.46a2.6 2.6 0 0 0-1.35.26c-1.26.56-5.6 4.29-4.7 8.7.41 1.37-.93 3.54-1.19 4.65-1.38 5.67 4.7 9.55 9.14 10.41v.11c-.04 1.01-.07 1.8-.11 3.73-5.9 1.35-9.07 3.4-10.75 6.64a8.4 8.4 0 0 0 0 7.2c2.28 3.92 5.82 5.38 10.23 7.28 0 .86-.12 4.06-.12 4.06-4.85 1.31-9.14 2.8-11.3 6.35-1.41 2.27-.97 6.45.41 8.69 1.8 2.87 4.9 4.55 10.41 6.3-.04.9-.04 3.24-.11 3.84-3.54 1.08-5.67 3.2-6.34 5.82-1.35 5.52 2.38 8.36 6.04 10.18l-.19 8.62a45 45 0 0 0-.07 3.84c.04.41.37 1.3 2.46 1.8a15 15 0 0 0 4.66.33c2.02-.07 3.8-.6 4.3-1.6a4 4 0 0 0 .14-1.38l-.18-12.12-.23-8.4c4.4-1.12 9.59-3.28 10.78-7.42 2.13-7.68-4.7-11.08-11.12-12.83m-5-54.24c.08-1.75 1.68-1.94 1.8-.37.3 3.88.37 8.58.48 16.19a25 25 0 0 1-2.5.52s0-13.99.23-16.34Zm-10.89 3.06c.64-2.8 1.2-3.96 1-4.93-.7-3.54 2.47-6.04 3.14-6.52.64-.45 1.42-.34 1.64.18.53 1.2.23 3.88-2.98 8.14-.7.93-3.28 5.7 4.29 7.35l-.11 3.61c-4.33-.82-7.72-4.55-6.98-7.83m-1.2 23.09c0-5.04 10.27-6.6 14.9-7.57 3.98-.82 3.9-5.26 1.41-6.5 0 0-.11-2.05-.11-3.46 3.95.78 7.16 2.65 8.28 4.96 1.45 3.02-.26 6.82-3.84 8.88-3.21 1.82-8.32 2.46-11.38 2.98s-3.8 3.58-1.57 4.51c0 1.12-.11 2.76-.15 4.07-3.95-1.08-7.53-3.4-7.53-7.87ZM292 218.67l-2.98.52v-13.65l2.72-.6Zm-16.08 11.27c0-6.83 16.68-8.55 16.64-8.58 4.14-.56 4.77-6.12 1.6-7.2 0-1.42-.11-3.18-.11-5.04 3.65.7 9.21 3.06 9.21 7.46 0 4-2.01 6.34-6.08 8.02-3.43 1.38-7.53 2.17-11.45 3.2-3.66.98-2.65 4.15-1.38 4.9 0 0-.08 3.28-.15 4.55-2.98-.45-8.27-2.13-8.27-7.31Zm16.42 13.69-3.32.56v-14.06l3.13-.79Zm-3.8 27.41.15-17.53 3.69-.6s.22 17.12.22 18.06c0 .79-4.14 1.05-4.07.08Zm12.46-23.9c-1.65 1.48-6.09 2.86-12.02 3.68-4.55.64-5.52 2.65-5.15 3.85l-.1 3.13c-1.28-.63-3.44-2.54-3.25-4.81.48-6.08 6.94-5.82 12.57-6.87 5.63-.93 5.7-6.93 1.34-7.94l-.03-3.73c5 1 7.05 2.8 8.24 4.85 1.75 2.91.82 5.63-1.6 7.83Z" transform="translate(-208.087 -139.287)"/></g><path id="Rectangle_15" fill="none" d="M0 0h473.72v238.37H0z"/></g></g></g></svg>