<svg xmlns="http://www.w3.org/2000/svg" xmlns:xlink="http://www.w3.org/1999/xlink" width="600" height="300" viewBox="0 0 600 300">
  <defs>
    <clipPath id="clip-Logo">
      <rect width="600" height="300"/>
    </clipPath>
  </defs>
  <g id="Logo" clip-path="url(#clip-Logo)">
    <rect width="600" height="300" fill="#e8eff3"/>
    <g id="Group_28" data-name="Group 28" transform="translate(2048.505 482.054)">
      <rect id="Rectangle_17" data-name="Rectangle 17" width="14.665" height="79.372" transform="translate(-1513.17 -372)" fill="#37424a"/>
      <rect id="Rectangle_16" data-name="Rectangle 16" width="2.775" height="15.006" transform="translate(-1785.92 -360.548)" fill="#37424a"/>
      <rect id="Rectangle_19" data-name="Rectangle 19" width="78.402" height="78.402" transform="translate(-1786.89 -372)" fill="none"/>
      <path id="Path_273" data-name="Path 273" d="M18.042,169.658a5.634,5.634,0,0,1-7.7,0c-1.692-1.63-1.882-4.108-1.882-6.266s.191-4.614,1.882-6.244a5.632,5.632,0,0,1,7.7,0c1.7,1.63,1.886,4.087,1.886,6.244S19.738,168.028,18.042,169.658Zm-.8-11.789a4.337,4.337,0,0,0-3.045-1.165,4.344,4.344,0,0,0-3.049,1.165c-1.482,1.419-1.543,3.746-1.543,5.524s.061,4.126,1.543,5.545a4.346,4.346,0,0,0,3.049,1.165,4.334,4.334,0,0,0,3.045-1.165c1.482-1.419,1.547-3.767,1.547-5.545S18.721,159.287,17.238,157.869Zm42.215,11.789a5.639,5.639,0,0,1-7.705,0c-1.692-1.63-1.882-4.108-1.882-6.266s.191-4.614,1.882-6.244a5.636,5.636,0,0,1,7.705,0c1.692,1.63,1.882,4.087,1.882,6.244S61.145,168.028,59.453,169.658Zm-.808-11.789a4.566,4.566,0,0,0-6.094,0c-1.479,1.419-1.544,3.746-1.544,5.524s.065,4.126,1.544,5.545a4.566,4.566,0,0,0,6.094,0c1.482-1.419,1.547-3.767,1.547-5.545S60.128,159.287,58.645,157.869ZM33.024,169.72a5.945,5.945,0,0,1-4.253,1.46,5.615,5.615,0,0,1-4.192-1.606,5.072,5.072,0,0,1-1.353-2.984h1.143a4.034,4.034,0,0,0,1.1,2.307,4.62,4.62,0,0,0,3.3,1.227A4.974,4.974,0,0,0,32.178,169a2.87,2.87,0,0,0,.888-2.16,3.06,3.06,0,0,0-2.919-2.919l-2.794-.359c-2.115-.276-3.685-1.482-3.685-3.79a3.692,3.692,0,0,1,1.315-2.835,5.851,5.851,0,0,1,7.767.339,4.353,4.353,0,0,1,1.143,2.6H32.772a3.486,3.486,0,0,0-.827-1.9,4.216,4.216,0,0,0-3.262-1.291,4.385,4.385,0,0,0-2.859.909,2.835,2.835,0,0,0-1.01,2.181c0,1.778,1.269,2.454,2.645,2.625l2.835.359a4.178,4.178,0,0,1,3.914,4.084A3.816,3.816,0,0,1,33.024,169.72Zm5.717,1.186V155.9h1.1v13.97h7.786v1.036Zm89.959-1.248a5.634,5.634,0,0,1-7.7,0c-1.692-1.63-1.882-4.108-1.882-6.266s.191-4.614,1.882-6.244a5.632,5.632,0,0,1,7.7,0c1.692,1.63,1.886,4.087,1.886,6.244S130.392,168.028,128.7,169.658Zm-.8-11.789a4.571,4.571,0,0,0-6.1,0c-1.486,1.419-1.547,3.746-1.547,5.524s.061,4.126,1.547,5.545a4.571,4.571,0,0,0,6.1,0c1.479-1.419,1.54-3.767,1.54-5.545S129.378,159.287,127.9,157.869ZM81.37,170.906l-8.7-13.29v13.29h-1.1V155.9h1.246l8.724,13.27V155.9H82.62v15.006Zm16,0-1.524-3.958H88.6l-1.486,3.958H85.97L91.66,155.9h1.082l5.751,15.006ZM92.19,157.425l-3.2,8.487h6.46Zm52.794,13.482-8.7-13.29v13.29h-1.1V155.9h1.254l8.716,13.27V155.9h1.079v15.006Zm16.006,0-1.524-3.958h-7.26l-1.482,3.958h-1.14l5.69-15.006h1.082l5.755,15.006ZM155.8,157.425l-3.2,8.487h6.456Zm-50.961-.465v13.947h-1.1V156.96h-4.76V155.9h10.644v1.06Zm8.472,13.947V155.9h1.12v15.006Zm52.425,0V155.9h1.1v13.97h7.786v1.036Zm216.936,0-1.528-3.958H373.89l-1.482,3.958h-1.143l5.69-15.006h1.086l5.751,15.006Zm-5.187-13.482-3.2,8.487h6.46Zm-184.1,13.482-1.521-3.958H184.6l-1.482,3.958h-1.143l5.7-15.006h1.075l5.759,15.006ZM188.2,157.425l-3.194,8.487h6.456Zm14.192,13.755a5.7,5.7,0,0,1-3.96-1.627c-1.608-1.63-1.757-4.022-1.757-6.16s.149-4.508,1.757-6.139a5.7,5.7,0,0,1,3.96-1.628,5.183,5.183,0,0,1,5.332,4.868h-1.143a4,4,0,0,0-4.188-3.79,4.2,4.2,0,0,0-3.155,1.292c-1.353,1.4-1.414,3.6-1.414,5.4s.08,4.021,1.437,5.418a4.229,4.229,0,0,0,3.132,1.292,4,4,0,0,0,4.188-3.791h1.143A5.183,5.183,0,0,1,202.394,171.179Zm18.9-.273-1.524-3.958H212.5l-1.482,3.958h-1.143l5.69-15.006h1.079l5.762,15.006ZM216.1,157.425l-3.194,8.487h6.456Zm18.419,12a5.381,5.381,0,0,1-3.788,1.481h-4.973V155.9h4.973a5.375,5.375,0,0,1,3.788,1.482c1.654,1.586,1.818,3.915,1.818,6.01S236.171,167.837,234.517,169.425Zm-.8-11.324a4.389,4.389,0,0,0-2.984-1.122h-3.876v12.846h3.876a4.379,4.379,0,0,0,2.984-1.12c1.395-1.354,1.5-3.514,1.5-5.313S235.108,159.435,233.713,158.1Zm6.948,12.805V155.9h9.607v1.06h-8.487v5.5h7.473v1.06h-7.473v6.327h8.487v1.06Zm26.959,0v-13.42l-5.48,13.208h-.976l-5.48-13.1v13.314h-1.075V155.9h1.54l5.549,13.334,5.438-13.334h1.57v15.006Zm10.946-5.948v5.948H277.49v-5.948L272.3,155.9h1.185l4.573,7.978,4.573-7.978h1.12Zm22.717,4.7a5.63,5.63,0,0,1-7.7,0c-1.7-1.63-1.886-4.108-1.886-6.266s.191-4.614,1.886-6.244a5.627,5.627,0,0,1,7.7,0c1.7,1.63,1.886,4.087,1.886,6.244S302.979,168.028,301.282,169.658Zm-.8-11.789a4.571,4.571,0,0,0-6.1,0c-1.475,1.419-1.544,3.746-1.544,5.524s.069,4.126,1.544,5.545a4.571,4.571,0,0,0,6.1,0c1.479-1.419,1.543-3.767,1.543-5.545S301.961,159.287,300.482,157.869Zm8.4-.909v5.8h7.469v1.06h-7.469v7.089h-1.1V155.9h9.394v1.06Zm20.679,0v13.947h-1.1V156.96h-4.76V155.9h10.644v1.06Zm17.953,13.947V163.54h-8.381v7.366h-1.1V155.9h1.1v6.56h8.381V155.9h1.1v15.006Zm6.185,0V155.9h9.611v1.06h-8.487v5.5H362.3v1.06h-7.469v6.327h8.487v1.06Zm41.132-6.665,3.053,6.665H396.68l-2.942-6.392h-5.229v6.392h-1.1V155.9h5.484c3.281,0,5.057,1.716,5.057,4.317A4.064,4.064,0,0,1,394.836,164.241Zm-1.943-7.3H388.51v6.56h4.383c2.473,0,3.918-1.141,3.918-3.281S395.365,156.939,392.892,156.939Zm13.384.021v13.947h-1.1V156.96h-4.764V155.9h10.648v1.06Zm16.78,12.76a5.949,5.949,0,0,1-4.257,1.46,5.612,5.612,0,0,1-4.188-1.606,5.031,5.031,0,0,1-1.353-2.984h1.14a4.108,4.108,0,0,0,1.1,2.307,4.639,4.639,0,0,0,3.3,1.227A4.991,4.991,0,0,0,422.211,169a2.87,2.87,0,0,0,.888-2.16,3.061,3.061,0,0,0-2.923-2.919l-2.794-.359c-2.115-.276-3.682-1.482-3.682-3.79a3.693,3.693,0,0,1,1.315-2.835,5.564,5.564,0,0,1,3.7-1.313,5.507,5.507,0,0,1,4.063,1.651,4.334,4.334,0,0,1,1.147,2.6H422.8a3.454,3.454,0,0,0-.823-1.9,4.228,4.228,0,0,0-3.262-1.291,4.376,4.376,0,0,0-2.858.909,2.825,2.825,0,0,0-1.014,2.181c0,1.778,1.269,2.454,2.645,2.625l2.835.359a4.179,4.179,0,0,1,3.918,4.084A3.816,3.816,0,0,1,423.057,169.72ZM18.176,144.449l-4.063-7.089-2.584,3.025v4.064H8.8V129.443H11.53v6.922l5.987-6.922h3.327l-4.825,5.671,5.374,9.335H18.176Zm11.029.275c-3.876,0-5.884-2.455-5.884-6.031v-9.249h2.728v9.206c0,2.14.976,3.6,3.156,3.6s3.152-1.46,3.152-3.6v-9.206h2.729v9.249C35.086,142.268,33.077,144.723,29.2,144.723Zm18.568-.275-6.5-10.306v10.306H38.584V129.443h2.9l6.41,10.159V129.443h2.691v15.006H47.773Zm16.547-1.333a6.644,6.644,0,0,1-4.745,1.607,6.6,6.6,0,0,1-4.485-1.545,4.787,4.787,0,0,1-1.566-3.491h2.8a2.641,2.641,0,0,0,.778,1.84,3.58,3.58,0,0,0,2.519.806,3.635,3.635,0,0,0,2.607-.806,1.857,1.857,0,0,0,.591-1.439c0-1.1-.846-1.607-1.776-1.778-1.018-.189-2.328-.233-3.323-.4a4.143,4.143,0,0,1-2.5-7.154,6.41,6.41,0,0,1,4.4-1.589,6.2,6.2,0,0,1,4.2,1.462,4.531,4.531,0,0,1,1.521,3.2H62.54a2.435,2.435,0,0,0-.656-1.482,3.463,3.463,0,0,0-2.287-.8,3.4,3.4,0,0,0-2.435.824,1.747,1.747,0,0,0-.507,1.272,1.6,1.6,0,0,0,1.524,1.63c.953.147,2.283.253,3.259.379,2.245.318,4.131,1.778,4.131,4.338A4.247,4.247,0,0,1,64.32,143.116Zm10.019-11.133v12.466H71.606V131.983H67.163v-2.54h11.62v2.54Zm16.087,12.466V137.91H84.263v6.539H81.534V129.443h2.729v5.863h6.163v-5.863H93.15v15.006H90.425Zm31.834,0-.32-1.651a4.4,4.4,0,0,1-3.765,1.925,5.735,5.735,0,0,1-4.466-1.672c-1.566-1.63-1.947-3.641-1.947-6.095s.316-4.4,1.947-6.033a6.444,6.444,0,0,1,4.466-1.757,6.211,6.211,0,0,1,4.443,1.715,4.631,4.631,0,0,1,1.376,3.026h-2.8a2.34,2.34,0,0,0-.652-1.375,3.027,3.027,0,0,0-2.393-.909,3.543,3.543,0,0,0-2.458,1.015c-1.033,1.081-1.162,2.943-1.162,4.318s.149,3.3,1.185,4.382a3.422,3.422,0,0,0,2.435.951,3.027,3.027,0,0,0,2.245-.868,3.858,3.858,0,0,0,.972-2.919h-3.579v-2.267h6.227v8.214Zm15.328-1.333a7.532,7.532,0,0,1-9.223.062,4.774,4.774,0,0,1-1.57-3.491h2.793a2.63,2.63,0,0,0,.785,1.84,3.571,3.571,0,0,0,2.515.806,3.635,3.635,0,0,0,2.607-.806,1.871,1.871,0,0,0,.595-1.439c0-1.1-.85-1.607-1.78-1.778-1.018-.189-2.328-.233-3.323-.4a4.141,4.141,0,0,1-2.5-7.154,6.406,6.406,0,0,1,4.4-1.589,6.183,6.183,0,0,1,4.192,1.462,4.556,4.556,0,0,1,1.528,3.2h-2.8a2.448,2.448,0,0,0-.648-1.482,3.481,3.481,0,0,0-2.29-.8,3.4,3.4,0,0,0-2.435.824,1.761,1.761,0,0,0-.507,1.272,1.6,1.6,0,0,0,1.524,1.63c.953.147,2.287.253,3.258.379,2.245.318,4.127,1.778,4.127,4.338A4.225,4.225,0,0,1,137.587,143.116Zm13.884,1.333-4.066-7.089-2.58,3.025v4.064h-2.733V129.443h2.733v6.922l5.991-6.922h3.323l-4.828,5.671,5.377,9.335h-3.216Zm15.015-1.419a6.348,6.348,0,0,1-8.632,0c-1.627-1.63-1.906-3.62-1.906-6.074s.279-4.464,1.906-6.095a6.342,6.342,0,0,1,8.632,0c1.635,1.63,1.909,3.641,1.909,6.095S168.121,141.4,166.486,143.03Zm-1.947-10.392a3.318,3.318,0,0,0-4.737,0c-1.04,1.081-1.079,2.943-1.079,4.318s.038,3.217,1.079,4.3a3.318,3.318,0,0,0,4.737,0c1.04-1.081,1.082-2.92,1.082-4.3S165.579,133.719,164.539,132.638Zm7.157,11.81V129.443h2.728v12.425h6.967v2.581h-9.7Zm12.546,0V129.443h10.687v2.475h-7.957v3.493h7.008v2.454h-7.008v4.108h7.957v2.475Zm23.4,0-6.5-10.306v10.306h-2.687V129.443h2.9l6.414,10.159V129.443h2.687v15.006h-2.813Zm33.949-1.419a6.348,6.348,0,0,1-8.632,0c-1.627-1.63-1.905-3.62-1.905-6.074s.278-4.464,1.905-6.095a6.342,6.342,0,0,1,8.632,0c1.631,1.63,1.905,3.641,1.905,6.095S243.225,141.4,241.594,143.03Zm-1.948-10.392a3.318,3.318,0,0,0-4.737,0c-1.04,1.081-1.079,2.943-1.079,4.318s.038,3.217,1.079,4.3a3.318,3.318,0,0,0,4.737,0c1.037-1.081,1.082-2.92,1.082-4.3S240.683,133.719,239.646,132.638ZM256.5,143.116a7.544,7.544,0,0,1-9.231.062,4.787,4.787,0,0,1-1.566-3.491H248.5a2.642,2.642,0,0,0,.781,1.84,3.581,3.581,0,0,0,2.519.806,3.633,3.633,0,0,0,2.606-.806,1.857,1.857,0,0,0,.595-1.439c0-1.1-.85-1.607-1.78-1.778-1.018-.189-2.328-.233-3.323-.4a4.146,4.146,0,0,1-2.5-7.154,6.408,6.408,0,0,1,4.4-1.589,6.18,6.18,0,0,1,4.192,1.462,4.535,4.535,0,0,1,1.524,3.2h-2.793a2.478,2.478,0,0,0-.652-1.482,3.481,3.481,0,0,0-2.29-.8,3.394,3.394,0,0,0-2.436.824,1.747,1.747,0,0,0-.507,1.272,1.6,1.6,0,0,0,1.524,1.63c.953.147,2.287.253,3.259.379,2.245.318,4.127,1.778,4.127,4.338A4.245,4.245,0,0,1,256.5,143.116Zm4.6,1.333V129.443h2.729v12.425h6.963v2.581H261.1Zm21.952-1.419a6.353,6.353,0,0,1-8.636,0c-1.627-1.63-1.905-3.62-1.905-6.074s.278-4.464,1.905-6.095a6.347,6.347,0,0,1,8.636,0c1.631,1.63,1.905,3.641,1.905,6.095S284.682,141.4,283.05,143.03Zm-1.943-10.392a3.326,3.326,0,0,0-4.744,0c-1.037,1.081-1.079,2.943-1.079,4.318s.042,3.217,1.079,4.3a3.326,3.326,0,0,0,4.744,0c1.033-1.081,1.075-2.92,1.075-4.3S282.14,133.719,281.107,132.638ZM107,130.862a5.587,5.587,0,0,0-.7-.587l.839-1.84-1.17-.53-.8,1.747a6.53,6.53,0,0,0-2.485-.486,6.035,6.035,0,0,0-4.318,1.7c-1.631,1.63-1.905,3.641-1.905,6.095s.274,4.443,1.905,6.074a5.651,5.651,0,0,0,.5.439l-.884,1.933,1.189.55.823-1.805a6.393,6.393,0,0,0,2.691.577A6.046,6.046,0,0,0,107,143.031c1.631-1.63,1.905-3.62,1.905-6.074S108.635,132.492,107,130.862Zm-7.77,6.095c0-1.375.042-3.238,1.082-4.318a3.312,3.312,0,0,1,2.37-.995,3.379,3.379,0,0,1,1.425.334l-4.07,8.924A7.088,7.088,0,0,1,99.233,136.956Zm5.819,4.3a3.291,3.291,0,0,1-2.367.995,3.4,3.4,0,0,1-1.627-.442l4.1-9.032c.922,1.095.976,2.859.976,4.182C106.138,138.333,106.093,140.173,105.052,141.254Z" transform="translate(-2005.828 -489.991)" fill="#37424a"/>
      <rect id="Rectangle_18" data-name="Rectangle 18" width="499.52" height="79.377" transform="translate(-1998.026 -372)" fill="none"/>
    </g>
  </g>
</svg>
