<svg xmlns="http://www.w3.org/2000/svg" xmlns:xlink="http://www.w3.org/1999/xlink" width="600" height="300" viewBox="0 0 600 300"><defs><clipPath id="clip-Logo"><path d="M0 0h600v300H0z"/></clipPath></defs><g id="Logo" clip-path="url(#clip-Logo)"><path fill="#e8eff3" d="M0 0h600v300H0z"/><g id="Group_28" transform="translate(2048.505 482.054)"><path id="Rectangle_17" fill="#37424a" d="M0 0h14.67v79.37H0z" transform="translate(-1513.17 -372)"/><path id="Rectangle_16" fill="#37424a" d="M0 0h2.78v15H0z" transform="translate(-1785.92 -360.548)"/><path id="Rectangle_19" fill="none" d="M0 0h78.4v78.4H0z" transform="translate(-1786.89 -372)"/><path id="Path_273" fill="#37424a" d="M18.04 169.66a5.63 5.63 0 0 1-7.7 0c-1.69-1.63-1.88-4.11-1.88-6.27s.2-4.61 1.88-6.24a5.63 5.63 0 0 1 7.7 0c1.7 1.63 1.89 4.08 1.89 6.24s-.2 4.64-1.89 6.27m-.8-11.8a4.3 4.3 0 0 0-3.04-1.16 4.3 4.3 0 0 0-3.05 1.17c-1.48 1.42-1.54 3.74-1.54 5.52s.06 4.13 1.54 5.55a4.4 4.4 0 0 0 3.05 1.16 4.3 4.3 0 0 0 3.04-1.16c1.48-1.42 1.55-3.77 1.55-5.55s-.07-4.1-1.55-5.52Zm42.22 11.8a5.64 5.64 0 0 1-7.7 0c-1.7-1.63-1.89-4.11-1.89-6.27s.2-4.61 1.88-6.24a5.64 5.64 0 0 1 7.7 0c1.7 1.63 1.89 4.08 1.89 6.24s-.2 4.64-1.89 6.27Zm-.81-11.8a4.57 4.57 0 0 0-6.1 0c-1.47 1.43-1.54 3.75-1.54 5.53s.07 4.13 1.55 5.55a4.57 4.57 0 0 0 6.09 0c1.48-1.42 1.55-3.77 1.55-5.55s-.07-4.1-1.55-5.52Zm-25.63 11.86a6 6 0 0 1-4.25 1.46 5.6 5.6 0 0 1-4.2-1.6 5 5 0 0 1-1.34-2.99h1.14a4 4 0 0 0 1.1 2.3 4.6 4.6 0 0 0 3.3 1.23 5 5 0 0 0 3.4-1.12 3 3 0 0 0 .9-2.16 3.06 3.06 0 0 0-2.92-2.92l-2.8-.36c-2.11-.27-3.68-1.48-3.68-3.79a3.7 3.7 0 0 1 1.31-2.83 5.85 5.85 0 0 1 7.77.34 4.4 4.4 0 0 1 1.14 2.6h-1.12a3.5 3.5 0 0 0-.83-1.9 4.2 4.2 0 0 0-3.26-1.3 4.4 4.4 0 0 0-2.86.91 2.8 2.8 0 0 0-1 2.18c0 1.78 1.26 2.46 2.64 2.63l2.83.36a4.2 4.2 0 0 1 3.92 4.08 3.8 3.8 0 0 1-1.19 2.88m5.72 1.19V155.9h1.1v13.97h7.79v1.04Zm89.96-1.25a5.63 5.63 0 0 1-7.7 0c-1.7-1.63-1.88-4.11-1.88-6.27s.19-4.61 1.88-6.24a5.63 5.63 0 0 1 7.7 0c1.7 1.63 1.89 4.09 1.89 6.24s-.2 4.64-1.89 6.27m-.8-11.8a4.57 4.57 0 0 0-6.1 0c-1.49 1.43-1.55 3.76-1.55 5.53s.06 4.13 1.55 5.55a4.57 4.57 0 0 0 6.1 0c1.48-1.42 1.54-3.77 1.54-5.55s-.06-4.1-1.54-5.52m-46.53 13.05-8.7-13.3v13.3h-1.1V155.9h1.25l8.72 13.27V155.9h1.08v15Zm16 0-1.52-3.96H88.6l-1.49 3.96h-1.14l5.69-15.01h1.08l5.75 15Zm-5.18-13.48-3.2 8.48h6.46Zm52.8 13.48-8.7-13.3v13.3h-1.1V155.9h1.25l8.71 13.27V155.9h1.08v15Zm16 0-1.52-3.96h-7.26l-1.49 3.96h-1.14l5.7-15h1.08l5.75 15Zm-5.19-13.48-3.2 8.48h6.46Zm-50.96-.47v13.95h-1.1v-13.95h-4.76v-1.06h10.64v1.06Zm8.47 13.95V155.9h1.12v15Zm52.43 0V155.9h1.1v13.97h7.78v1.04Zm216.93 0-1.53-3.96h-7.25l-1.48 3.96h-1.15l5.7-15h1.08l5.75 15Zm-5.18-13.48-3.2 8.48h6.46Zm-184.1 13.48-1.53-3.96h-7.26l-1.48 3.96h-1.15l5.7-15h1.08l5.76 15Zm-5.19-13.48-3.2 8.48h6.46Zm14.2 13.75a5.7 5.7 0 0 1-3.97-1.63c-1.6-1.63-1.76-4.02-1.76-6.16s.15-4.5 1.76-6.14a5.7 5.7 0 0 1 3.96-1.62 5.2 5.2 0 0 1 5.33 4.86h-1.14a4 4 0 0 0-4.19-3.79 4.2 4.2 0 0 0-3.15 1.3c-1.36 1.4-1.42 3.6-1.42 5.4s.08 4.02 1.44 5.41a4.2 4.2 0 0 0 3.13 1.3 4 4 0 0 0 4.2-3.8h1.13a5.2 5.2 0 0 1-5.33 4.87Zm18.9-.27-1.53-3.96h-7.27l-1.48 3.96h-1.15l5.7-15h1.07l5.77 15Zm-5.2-13.48-3.2 8.48h6.46Zm18.42 12a5.4 5.4 0 0 1-3.79 1.48h-4.97V155.9h4.97a5.4 5.4 0 0 1 3.79 1.48c1.65 1.59 1.82 3.92 1.82 6.01s-.17 4.45-1.82 6.04Zm-.8-11.33a4.4 4.4 0 0 0-2.99-1.12h-3.87v12.84h3.87a4.4 4.4 0 0 0 2.99-1.12c1.4-1.35 1.5-3.5 1.5-5.3s-.11-3.97-1.5-5.3m6.95 12.8v-15h9.6v1.06h-8.48v5.5h7.47v1.06h-7.47v6.33h8.48v1.06Zm26.96 0V157.5l-5.48 13.2h-.98l-5.48-13.1v13.32h-1.08V155.9h1.54l5.55 13.33 5.44-13.33h1.57v15Zm10.94-5.94v5.95h-1.08v-5.95l-5.19-9.06h1.19l4.57 7.98 4.57-7.98h1.12Zm22.72 4.7a5.63 5.63 0 0 1-7.7 0c-1.7-1.63-1.89-4.11-1.89-6.27s.2-4.61 1.89-6.24a5.63 5.63 0 0 1 7.7 0c1.7 1.63 1.88 4.08 1.88 6.24s-.2 4.64-1.89 6.27Zm-.8-11.8a4.57 4.57 0 0 0-6.1 0c-1.48 1.43-1.55 3.75-1.55 5.53s.07 4.13 1.55 5.55a4.57 4.57 0 0 0 6.1 0c1.48-1.42 1.54-3.77 1.54-5.55s-.07-4.1-1.55-5.52Zm8.4-.9v5.8h7.47v1.06h-7.47v7.09h-1.1V155.9h9.4v1.06Zm20.68 0v13.95h-1.1v-13.95h-4.76v-1.06h10.64v1.06Zm17.95 13.95v-7.37h-8.38v7.37h-1.1V155.9h1.1v6.56h8.38v-6.56h1.1v15Zm6.19 0V155.9h9.6v1.06h-8.48v5.5h7.47v1.06h-7.47v6.33h8.49v1.06Zm41.13-6.67 3.05 6.67h-1.21l-2.94-6.4h-5.23v6.4h-1.1V155.9h5.48c3.28 0 5.06 1.72 5.06 4.32a4.06 4.06 0 0 1-3.11 4.02Zm-1.95-7.3h-4.38v6.56h4.38c2.48 0 3.92-1.14 3.92-3.28s-1.44-3.28-3.92-3.28m13.39.02v13.95h-1.1v-13.95h-4.77v-1.06h10.65v1.06Zm16.78 12.76a6 6 0 0 1-4.26 1.46 5.6 5.6 0 0 1-4.19-1.6 5 5 0 0 1-1.35-2.99h1.14a4 4 0 0 0 1.1 2.31 4.6 4.6 0 0 0 3.3 1.23 5 5 0 0 0 3.41-1.13 3 3 0 0 0 .89-2.16 3.06 3.06 0 0 0-2.92-2.92l-2.8-.36c-2.11-.27-3.68-1.48-3.68-3.79a3.7 3.7 0 0 1 1.32-2.83 5.6 5.6 0 0 1 3.7-1.32 5.5 5.5 0 0 1 4.06 1.65 4.3 4.3 0 0 1 1.14 2.6h-1.12a3.5 3.5 0 0 0-.82-1.9 4.2 4.2 0 0 0-3.26-1.29 4.4 4.4 0 0 0-2.86.91 2.8 2.8 0 0 0-1.02 2.18c0 1.78 1.27 2.46 2.65 2.63l2.83.36a4.2 4.2 0 0 1 3.92 4.08 3.8 3.8 0 0 1-1.18 2.88M18.18 144.45l-4.07-7.09-2.58 3.03v4.06H8.8v-15h2.73v6.92l5.99-6.93h3.32l-4.82 5.67 5.37 9.34zm11.02.27c-3.87 0-5.88-2.45-5.88-6.03v-9.25h2.73v9.21c0 2.14.97 3.6 3.15 3.6s3.16-1.46 3.16-3.6v-9.2h2.73v9.24c0 3.58-2.01 6.03-5.89 6.03m18.57-.27-6.5-10.3v10.3h-2.69v-15h2.9l6.41 10.15v-10.16h2.7v15zm16.55-1.33a6.6 6.6 0 0 1-4.74 1.6 6.6 6.6 0 0 1-4.49-1.54 4.8 4.8 0 0 1-1.57-3.5h2.8a2.6 2.6 0 0 0 .78 1.85 3.6 3.6 0 0 0 2.52.8 3.6 3.6 0 0 0 2.6-.8 2 2 0 0 0 .6-1.44c0-1.1-.85-1.6-1.78-1.78-1.02-.19-2.33-.23-3.32-.4a4.14 4.14 0 0 1-2.5-7.15 6.4 6.4 0 0 1 4.4-1.6 6.2 6.2 0 0 1 4.2 1.47 4.5 4.5 0 0 1 1.52 3.2h-2.8a2.4 2.4 0 0 0-.66-1.48 3.5 3.5 0 0 0-2.28-.8 3.4 3.4 0 0 0-2.44.82 1.8 1.8 0 0 0-.5 1.27 1.6 1.6 0 0 0 1.52 1.63c.95.15 2.28.26 3.26.38 2.24.32 4.13 1.78 4.13 4.34a4.3 4.3 0 0 1-1.25 3.13m10.02-11.14v12.47H71.6v-12.47h-4.45v-2.54h11.62v2.54Zm16.09 12.47v-6.54h-6.17v6.54h-2.73v-15h2.73v5.86h6.17v-5.87h2.72v15zm31.83 0-.32-1.65a4.4 4.4 0 0 1-3.76 1.92 5.7 5.7 0 0 1-4.47-1.67c-1.57-1.63-1.95-3.64-1.95-6.1s.32-4.4 1.95-6.03a6.4 6.4 0 0 1 4.47-1.75 6.2 6.2 0 0 1 4.44 1.71 4.6 4.6 0 0 1 1.37 3.03h-2.8a2.3 2.3 0 0 0-.65-1.38 3 3 0 0 0-2.4-.9 3.5 3.5 0 0 0-2.45 1c-1.03 1.09-1.16 2.95-1.16 4.33s.15 3.3 1.18 4.38a3.4 3.4 0 0 0 2.44.95 3 3 0 0 0 2.24-.87 4 4 0 0 0 .98-2.92h-3.58v-2.26H124v8.2Zm15.33-1.33a7.5 7.5 0 0 1-9.23.06 4.8 4.8 0 0 1-1.57-3.5h2.8a2.6 2.6 0 0 0 .78 1.85 3.6 3.6 0 0 0 2.52.8 3.6 3.6 0 0 0 2.6-.8 2 2 0 0 0 .6-1.44c0-1.1-.85-1.6-1.78-1.78-1.02-.19-2.33-.23-3.32-.4a4.14 4.14 0 0 1-2.5-7.15 6.4 6.4 0 0 1 4.4-1.6 6.2 6.2 0 0 1 4.19 1.47 4.6 4.6 0 0 1 1.53 3.2h-2.8a2.5 2.5 0 0 0-.65-1.48 3.5 3.5 0 0 0-2.3-.8 3.4 3.4 0 0 0-2.43.82 1.8 1.8 0 0 0-.5 1.27 1.6 1.6 0 0 0 1.52 1.63c.95.15 2.29.26 3.26.38 2.24.32 4.13 1.78 4.13 4.34a4.2 4.2 0 0 1-1.25 3.13m13.88 1.33-4.06-7.09-2.58 3.03v4.06h-2.74v-15h2.74v6.92l5.99-6.93h3.32l-4.83 5.67 5.38 9.34zm15.02-1.42a6.35 6.35 0 0 1-8.64 0c-1.62-1.63-1.9-3.62-1.9-6.07s.28-4.47 1.9-6.1a6.34 6.34 0 0 1 8.64 0c1.63 1.63 1.9 3.64 1.9 6.1s-.27 4.44-1.9 6.07m-1.95-10.4a3.3 3.3 0 0 0-4.74 0c-1.04 1.09-1.08 2.95-1.08 4.33s.04 3.21 1.08 4.3a3.3 3.3 0 0 0 4.74 0c1.04-1.08 1.08-2.92 1.08-4.3s-.04-3.24-1.08-4.32m7.16 11.82v-15h2.72v12.42h6.97v2.58zm12.54 0v-15h10.69v2.47h-7.96v3.5h7.01v2.45h-7v4.1h7.95v2.48Zm23.4 0-6.5-10.3v10.3h-2.68v-15h2.9l6.41 10.15v-10.16h2.69v15zm33.95-1.42a6.35 6.35 0 0 1-8.63 0c-1.63-1.63-1.9-3.62-1.9-6.08s.27-4.46 1.9-6.09a6.34 6.34 0 0 1 8.63 0c1.63 1.63 1.9 3.64 1.9 6.1s-.27 4.44-1.9 6.07m-1.95-10.4a3.3 3.3 0 0 0-4.73 0c-1.04 1.09-1.08 2.95-1.08 4.33s.04 3.21 1.08 4.3a3.3 3.3 0 0 0 4.73 0c1.04-1.09 1.09-2.92 1.09-4.3s-.05-3.24-1.08-4.32Zm16.86 10.49a7.54 7.54 0 0 1-9.23.06 4.8 4.8 0 0 1-1.57-3.5h2.8a2.6 2.6 0 0 0 .78 1.85 3.6 3.6 0 0 0 2.52.8 3.6 3.6 0 0 0 2.6-.8 2 2 0 0 0 .6-1.44c0-1.1-.85-1.6-1.78-1.78-1.02-.19-2.33-.23-3.32-.4a4.15 4.15 0 0 1-2.5-7.15 6.4 6.4 0 0 1 4.4-1.6 6.2 6.2 0 0 1 4.19 1.47 4.5 4.5 0 0 1 1.52 3.2h-2.79a2.5 2.5 0 0 0-.65-1.48 3.5 3.5 0 0 0-2.3-.8 3.4 3.4 0 0 0-2.43.82 1.8 1.8 0 0 0-.5 1.27 1.6 1.6 0 0 0 1.52 1.63c.95.15 2.29.26 3.26.38 2.24.32 4.13 1.78 4.13 4.34a4.3 4.3 0 0 1-1.25 3.13m4.6 1.33v-15h2.73v12.42h6.96v2.58zm21.95-1.42a6.35 6.35 0 0 1-8.63 0c-1.63-1.63-1.9-3.62-1.9-6.07s.27-4.47 1.9-6.1a6.35 6.35 0 0 1 8.63 0c1.63 1.63 1.9 3.64 1.9 6.1s-.27 4.44-1.9 6.07m-1.94-10.4a3.33 3.33 0 0 0-4.74 0c-1.04 1.09-1.08 2.95-1.08 4.33s.04 3.21 1.07 4.3a3.33 3.33 0 0 0 4.75 0c1.03-1.08 1.07-2.92 1.07-4.3s-.04-3.24-1.07-4.32ZM107 130.87a6 6 0 0 0-.7-.59l.84-1.84-1.17-.53-.8 1.75a7 7 0 0 0-2.49-.48 6 6 0 0 0-4.31 1.7c-1.64 1.63-1.9 3.64-1.9 6.1s.26 4.43 1.9 6.07l.5.43-.89 1.94 1.2.55.81-1.8a6.4 6.4 0 0 0 2.7.57 6 6 0 0 0 4.31-1.7c1.63-1.63 1.9-3.62 1.9-6.07s-.27-4.47-1.9-6.1m-7.77 6.1c0-1.38.04-3.24 1.08-4.32a3.3 3.3 0 0 1 2.37-1 3.4 3.4 0 0 1 1.43.34l-4.07 8.92a7 7 0 0 1-.8-3.94Zm5.82 4.3a3.3 3.3 0 0 1-2.37 1 3.4 3.4 0 0 1-1.63-.45l4.1-9.03c.93 1.1.98 2.86.98 4.18 0 1.37-.04 3.21-1.08 4.3" transform="translate(-2005.828 -489.991)"/><path id="Rectangle_18" fill="none" d="M0 0h499.52v79.38H0z" transform="translate(-1998.026 -372)"/></g></g></svg>