<svg xmlns="http://www.w3.org/2000/svg" xmlns:xlink="http://www.w3.org/1999/xlink" width="600" height="300" viewBox="0 0 600 300">
  <defs>
    <clipPath id="clip-Logo">
      <rect width="600" height="300"/>
    </clipPath>
  </defs>
  <g id="Logo" clip-path="url(#clip-Logo)">
    <rect width="600" height="300" fill="#e8eff3"/>
    <g id="Kungliga_biblioteket_logotyp" data-name="Kungliga biblioteket logotyp" transform="translate(205.2 50.2)">
      <path id="Path_274" data-name="Path 274" d="M16.421,74.021H13.353L4.426,64.258v9.763H.8V58.4H4.147l8.369,9.205V58.4h3.905Z" transform="translate(0 103.075)"/>
      <path id="Path_275" data-name="Path 275" d="M13.837,65.958v2.511a2.411,2.411,0,0,1-1.674.837,1.2,1.2,0,0,1-1.116-1.116q0-1.255,1.674-1.674l.837-.279Zm5.3,2.232h0c-.837.279-1.116.558-1.395.558s-.558-.279-.558-.837V63.726a3.586,3.586,0,0,0-.279-1.953c-.558-1.116-2.232-1.674-4.184-1.674a5.438,5.438,0,0,0-2.232.279,8.352,8.352,0,0,0-2.232,1.116v2.79a5.507,5.507,0,0,1,3.905-1.674c1.395,0,1.953.558,1.953,1.674h-.279l-.558.279-.558.279c-1.953.558-2.511.837-3.347,1.116A2.983,2.983,0,0,0,7.7,68.469a2.867,2.867,0,0,0,3.068,2.79,5.361,5.361,0,0,0,3.347-1.116h.279c.279.837.837,1.116,1.953,1.116a6.358,6.358,0,0,0,3.068-.837V68.19Z" transform="translate(12.348 106.118)"/>
      <path id="Path_276" data-name="Path 276" d="M20.49,64.579H16.863v3.068c0,2.232.279,2.79,1.674,2.79a7.1,7.1,0,0,0,1.953-.558h.279V72.39a6.006,6.006,0,0,1-3.068.558,3.652,3.652,0,0,1-3.347-1.674c-.558-.837-.558-1.395-.558-3.068V64.579H12.4v-.558L16.863,59h0v3.347h3.905v2.232Z" transform="translate(20.758 104.149)"/>
      <path id="Path_277" data-name="Path 277" d="M19.826,74.2H16.758V63.6h3.068ZM18.153,61.926A1.865,1.865,0,0,1,16.2,60.253,1.907,1.907,0,0,1,18.153,58.3c1.116,0,1.674.837,1.674,1.953.279.837-.558,1.674-1.674,1.674" transform="translate(27.558 102.896)"/>
      <path id="Path_278" data-name="Path 278" d="M26.869,65.5a4.715,4.715,0,0,1-.558,2.511,2.411,2.411,0,0,1-1.674.837q-2.511,0-2.511-3.347c0-2.511.837-3.626,2.232-3.626,1.674,0,2.511,1.116,2.511,3.626Zm3.626,0a4.446,4.446,0,0,0-1.116-3.347A5.746,5.746,0,0,0,24.637,60.2c-3.347,0-6.137,2.232-6.137,5.579s2.511,5.579,6.137,5.579c3.347-.279,5.858-2.511,5.858-5.858" transform="translate(31.674 106.297)"/>
      <path id="Path_279" data-name="Path 279" d="M27.426,61.774A4.822,4.822,0,0,1,30.774,60.1a3.55,3.55,0,0,1,3.347,1.953,5.506,5.506,0,0,1,.279,2.511v6.416H31.053V65.121c0-1.953-.558-2.511-1.674-2.511a2.616,2.616,0,0,0-2.232,1.674v6.695H23.8v-10.6h3.347v1.395Z" transform="translate(41.159 106.118)"/>
      <path id="Path_280" data-name="Path 280" d="M35.216,65.958v2.511a2.411,2.411,0,0,1-1.674.837,1.2,1.2,0,0,1-1.116-1.116q0-1.255,1.674-1.674l.837-.279Zm5.021,2.232h0c-.837.279-1.116.558-1.395.558s-.558-.279-.558-.837V63.726a3.586,3.586,0,0,0-.279-1.953c-.558-1.116-2.232-1.674-4.184-1.674a5.438,5.438,0,0,0-2.232.279,8.351,8.351,0,0,0-2.232,1.116v2.79a5.507,5.507,0,0,1,3.905-1.674c1.395,0,1.953.558,1.953,1.674h-.279l-.558.279-.558.279c-1.953.558-2.511.837-3.347,1.116A2.983,2.983,0,0,0,28.8,68.469a2.867,2.867,0,0,0,3.068,2.79,5.361,5.361,0,0,0,3.347-1.116h.279c.279.837.837,1.116,1.953,1.116a6.358,6.358,0,0,0,3.068-.837V68.19Z" transform="translate(50.106 106.118)"/>
      <rect id="Rectangle_20" data-name="Rectangle 20" width="3.347" height="15.621" transform="translate(92.854 161.475)"/>
      <path id="Path_281" data-name="Path 281" d="M50.595,74.021H38.6V58.4h3.905V70.953h8.09Z" transform="translate(67.643 103.075)"/>
      <path id="Path_282" data-name="Path 282" d="M47.147,74.2H44.079V63.6h3.068ZM45.753,61.926A1.865,1.865,0,0,1,43.8,60.253,1.907,1.907,0,0,1,45.753,58.3c1.116,0,1.674.837,1.674,1.953a1.608,1.608,0,0,1-1.674,1.674" transform="translate(76.949 102.896)"/>
      <path id="Path_283" data-name="Path 283" d="M49.747,66.211a5.172,5.172,0,0,1,1.953-.558c1.674,0,2.511,1.116,2.511,3.068S53.095,71.79,51.7,71.79a3.013,3.013,0,0,1-1.953-.837Zm0-7.811H46.4V74.021h3.347v-.837A5.849,5.849,0,0,0,52.816,74.3c2.79,0,5.021-2.232,5.021-5.579s-2.232-5.579-5.3-5.579a5.382,5.382,0,0,0-2.79.837V58.4Z" transform="translate(81.601 103.075)"/>
      <path id="Path_284" data-name="Path 284" d="M54.59,63.447h0a9.785,9.785,0,0,1,1.395-2.232A2.537,2.537,0,0,1,58.216,60.1a4.452,4.452,0,0,1,2.232.837l-.837,3.068a3.708,3.708,0,0,0-1.953-.837c-1.116,0-1.953,1.116-2.511,2.511v5.3H51.8v-10.6h3.347v3.068Z" transform="translate(91.265 106.118)"/>
      <path id="Path_285" data-name="Path 285" d="M61.616,65.958v2.511a2.411,2.411,0,0,1-1.674.837,1.2,1.2,0,0,1-1.116-1.116q0-1.255,1.674-1.674l.837-.279Zm5.021,2.232h0c-.837.279-1.116.558-1.395.558s-.558-.279-.558-.837V63.726a3.586,3.586,0,0,0-.279-1.953c-.558-1.116-2.232-1.674-4.184-1.674a5.438,5.438,0,0,0-2.232.279,8.352,8.352,0,0,0-2.232,1.116v2.79a5.507,5.507,0,0,1,3.905-1.674c1.395,0,1.953.558,1.953,1.674h-.279l-.558.279h-.558c-1.953.558-2.511.837-3.347,1.116A2.982,2.982,0,0,0,55.2,68.19a2.867,2.867,0,0,0,3.068,2.789,5.361,5.361,0,0,0,3.347-1.116h.279c.279.837.837,1.116,1.953,1.116a6.358,6.358,0,0,0,3.068-.837V68.19Z" transform="translate(97.349 106.118)"/>
      <path id="Path_286" data-name="Path 286" d="M63.19,63.447h0a9.786,9.786,0,0,1,1.395-2.232A2.537,2.537,0,0,1,66.816,60.1a4.452,4.452,0,0,1,2.232.837l-.837,3.068a3.708,3.708,0,0,0-1.953-.837c-1.116,0-1.953,1.116-2.511,2.511v5.3H60.4v-10.6h3.347v3.068Z" transform="translate(106.654 106.118)"/>
      <path id="Path_287" data-name="Path 287" d="M68.163,75.821H64.537l3.347-6.695L63.7,60.2h3.626l2.232,5.3,2.232-5.3h3.626Z" transform="translate(112.56 106.297)"/>
      <path id="Path_288" data-name="Path 288" d="M21.647,73.2a4.715,4.715,0,0,1-.558,2.511,2.411,2.411,0,0,1-1.674.837q-2.511,0-2.511-3.347c0-2.511.837-3.626,2.232-3.626,1.674,0,2.511,1.116,2.511,3.626Zm3.347,0a4.446,4.446,0,0,0-1.116-3.347A5.746,5.746,0,0,0,19.137,67.9C15.79,67.9,13,70.132,13,73.479s2.511,5.579,6.137,5.579c3.626-.279,5.858-2.511,5.858-5.858" transform="translate(21.832 120.076)"/>
      <path id="Path_289" data-name="Path 289" d="M24.337,71.3v2.232H22.942V81.9H19.595V73.532H18.2V71.3h1.395v-.279a5.011,5.011,0,0,1,.837-3.068,2.178,2.178,0,0,1,1.116-1.116A4.713,4.713,0,0,1,24.337,66h2.232v2.79H24.616c-1.395,0-1.953.558-1.953,2.232V71.3Z" transform="translate(31.137 116.676)"/>
      <path id="Path_290" data-name="Path 290" d="M34.958,70.284h0a10.591,10.591,0,0,0-5.021-1.674c-1.395,0-2.232.558-2.232,1.395,0,.558.837,1.116,2.511,1.953l1.116.558c3.068,1.116,4.463,2.511,4.463,5.021,0,2.789-2.511,4.742-6.137,4.742a12.364,12.364,0,0,1-4.184-.837c-.837-.279-1.116-.279-1.395-.558V76.979a7.733,7.733,0,0,0,2.511,1.395,12.277,12.277,0,0,0,2.789.558c1.674,0,2.511-.558,2.511-1.395s-.558-1.116-2.232-1.674l-.837-.279c-1.116-.558-1.953-.837-2.511-1.116a6.084,6.084,0,0,1-1.395-1.116,5.891,5.891,0,0,1-1.116-2.79c0-2.789,2.232-4.463,5.858-4.463a12.937,12.937,0,0,1,5.3,1.116v3.068Z" transform="translate(41.159 116.855)"/>
      <path id="Path_291" data-name="Path 291" d="M42.09,78.779H40.416l-2.511-5.858-2.79,5.858H33.442L28.7,67.9h3.626l2.232,5.579L36.79,67.9h1.953l2.511,5.579L43.484,67.9h3.347Z" transform="translate(49.927 120.076)"/>
      <path id="Path_292" data-name="Path 292" d="M39.605,72.263a2.2,2.2,0,0,1,2.232-2.232,2.053,2.053,0,0,1,2.232,2.232Zm7.253,3.068h0a6.094,6.094,0,0,1-3.905,1.395c-2.232,0-3.347-1.116-3.626-2.789h7.532v-.279c0-3.347-2.232-5.858-5.579-5.858A5.271,5.271,0,0,0,35.7,73.379c0,3.347,2.232,5.579,5.858,5.579a8.283,8.283,0,0,0,5.021-1.395V75.332Z" transform="translate(62.454 119.897)"/>
      <path id="Path_293" data-name="Path 293" d="M48.511,78.653a3.013,3.013,0,0,1-1.953.837c-1.674,0-2.511-1.116-2.511-3.068q0-3.347,2.511-3.347a5.172,5.172,0,0,1,1.953.558ZM51.858,66.1H48.511v5.579a4.588,4.588,0,0,0-2.789-.558c-3.068,0-5.021,2.232-5.021,5.579a5.319,5.319,0,0,0,5.021,5.579,4.647,4.647,0,0,0,3.068-1.116V82h3.347V66.1Z" transform="translate(71.401 116.855)"/>
      <path id="Path_294" data-name="Path 294" d="M49.605,72.263a2.2,2.2,0,0,1,2.232-2.232,2.053,2.053,0,0,1,2.232,2.232Zm7.253,3.068h0a6.094,6.094,0,0,1-3.905,1.395c-2.232,0-3.347-1.116-3.626-2.789h7.532v-.279c0-3.347-2.232-5.858-5.579-5.858A5.271,5.271,0,0,0,45.7,73.379c0,3.347,2.232,5.579,5.858,5.579a8.283,8.283,0,0,0,5.021-1.395V75.332Z" transform="translate(80.349 119.897)"/>
      <path id="Path_295" data-name="Path 295" d="M54.426,69.474A4.822,4.822,0,0,1,57.774,67.8a3.55,3.55,0,0,1,3.347,1.953,5.506,5.506,0,0,1,.279,2.511V78.4H58.053V72.542c0-1.953-.558-2.511-1.674-2.511a2.616,2.616,0,0,0-2.232,1.674v6.974H50.8v-10.6h3.347v1.395Z" transform="translate(89.475 119.897)"/>
      <path id="Path_296" data-name="Path 296" d="M24.779,15.947l10.879.558-3.347,3.626-9.484-.558,5.3,5.021-2.511,3.068L13.9,17.063l2.79-3.068,5.3,5.021v-.279l-1.953-8.369L22.826,7.3Z" transform="translate(23.443 11.632)"/>
      <path id="Path_297" data-name="Path 297" d="M39.153,9.432a3.965,3.965,0,0,1,.558,1.674,6.8,6.8,0,0,1,0,3.347,5.919,5.919,0,0,1-2.79,3.626,15.571,15.571,0,0,1-2.232,1.395,7.8,7.8,0,0,1-4.742.837,3.167,3.167,0,0,1-2.232-.837,6.38,6.38,0,0,1-2.79-3.626L21.3,8.037l3.626-1.674,3.068,6.974a6.434,6.434,0,0,0,1.674,2.511,3.882,3.882,0,0,0,3.905.279c1.674-.837,2.79-2.511,2.232-4.184,0-.279-.279-.558-.279-.837l-.279-.558L32.179,3.574,35.805,1.9Z" transform="translate(36.685 1.968)"/>
      <path id="Path_298" data-name="Path 298" d="M47.221,16.7H44.153L35.505,6.658l-.279,9.763H31.6V.8h3.626l8.369,9.484V.8l3.905.279Z" transform="translate(55.117 0)"/>
      <path id="Path_299" data-name="Path 299" d="M57.2,11.218h0a15.411,15.411,0,0,0-4.742-3.905C49.389,5.918,46.6,6.475,45.2,9.265c-1.116,2.511,0,5.021,2.511,6.416a8.186,8.186,0,0,0,2.79.837l.837-1.674-1.953-1.116,1.395-2.511,5.579,2.79-2.79,5.858c-1.953.558-4.463,0-6.974-1.116-5.021-2.232-6.974-6.974-5.021-11.437s6.974-5.579,11.995-3.068a14.016,14.016,0,0,1,3.347,2.232l1.674,1.674Z" transform="translate(71.639 3.809)"/>
      <path id="Path_300" data-name="Path 300" d="M55.49,27.327,47.4,18.4,59.116,7.8l2.79,3.068-9.763,8.369,5.3,6.137Z" transform="translate(83.391 12.527)"/>
      <path id="Path_301" data-name="Path 301" d="M23.069,25.337l-.279,1.674c-.279,1.674-.837,2.511-2.232,2.232-1.116-.279-1.674-1.116-1.116-2.789l.279-1.395Zm3.347-3.347L11.074,19.2,9.679,26.174A13.688,13.688,0,0,0,9.4,29.242a4.759,4.759,0,0,0,3.626,3.905,3.974,3.974,0,0,0,4.463-2.511,2.966,2.966,0,0,0,2.79,2.511,3.936,3.936,0,0,0,4.184-2.232,14.8,14.8,0,0,0,.837-3.068Zm-9.484,2.232-.279,1.674c-.558,2.511-1.116,3.347-2.511,3.068s-1.674-1.116-1.395-3.626l.279-1.953Z" transform="translate(15.39 32.927)"/>
      <rect id="Rectangle_21" data-name="Rectangle 21" width="15.621" height="3.905" transform="translate(24.606 78.289) rotate(-7.695)"/>
      <path id="Path_302" data-name="Path 302" d="M23.911,37.242l.558,1.395c.837,1.674.558,2.511-.279,3.068-1.116.558-1.953,0-2.79-1.674l-.558-1.395Zm.837-4.742L10.8,39.474l3.068,6.416A9.735,9.735,0,0,0,15.542,48.4a4.265,4.265,0,0,0,5.021.837c1.953-.837,2.511-2.511,2.232-4.742a3.918,3.918,0,0,0,3.905.558,4.15,4.15,0,0,0,1.953-4.184,9.426,9.426,0,0,0-1.116-2.79Zm-6.416,7.532.837,1.674c1.116,2.232,1.116,3.347,0,3.905-1.395.558-1.953,0-3.068-2.232l-.837-1.674Z" transform="translate(17.895 56.727)"/>
      <path id="Path_303" data-name="Path 303" d="M24.447,58.327,15.8,50.237,26.4,38.8l2.79,2.79-8.647,9.205L26.4,56.374Z" transform="translate(26.843 68.001)"/>
      <rect id="Rectangle_22" data-name="Rectangle 22" width="15.621" height="3.905" transform="translate(58.398 130.761) rotate(-60.895)"/>
      <path id="Path_304" data-name="Path 304" d="M41.23,53.921a4.6,4.6,0,0,1-5.579,3.905,4.984,4.984,0,0,1-4.184-5.579,4.6,4.6,0,0,1,5.579-3.905c3.068.558,4.742,2.511,4.184,5.579m3.905.558c.837-4.463-2.511-8.647-7.532-9.484s-9.484,1.953-10.321,6.416,2.511,8.647,7.532,9.484c5.3.837,9.763-1.953,10.321-6.416" transform="translate(47.161 78.822)"/>
      <path id="Path_305" data-name="Path 305" d="M51.721,47.068l-5.579,1.395,3.068,12.274-3.905.837L42.237,49.3l-5.579,1.395L36.1,47.626,50.884,44Z" transform="translate(63.17 77.307)"/>
      <path id="Path_306" data-name="Path 306" d="M62.411,52.853l-9.205,6.695L44,46.995,53.205,40.3l1.674,2.232-6.137,4.463,1.953,2.511,5.858-4.184,1.674,2.511-5.858,4.184L54.6,55.084l6.137-4.463Z" transform="translate(77.307 70.685)"/>
      <path id="Path_307" data-name="Path 307" d="M60,42.369l10.6-1.395L68.09,45.158l-9.484,1.395,6.137,3.626L62.79,53.527,49.4,45.437l1.953-3.347,6.137,3.626h0l-3.347-7.811L56.374,34Z" transform="translate(86.97 59.412)"/>
      <path id="Path_308" data-name="Path 308" d="M70.374,29.911,68.421,41.348,52.8,38.558,55.032,27.4l2.79.558-1.395,7.253,3.068.558,1.395-6.974,2.789.558-1.116,6.974,3.626.558,1.395-7.253Z" transform="translate(93.054 47.601)"/>
      <path id="Path_309" data-name="Path 309" d="M55.568,19l1.116,5.579,12.553-2.79.837,3.905-12.553,2.79,1.116,5.579-2.79.558L52.5,19.558Z" transform="translate(92.517 32.569)"/>
      <path id="Path_310" data-name="Path 310" d="M33.3,22.821V17.8h5.3v5.021Z" transform="translate(58.159 30.422)"/>
      <path id="Path_311" data-name="Path 311" d="M33.3,47.8V21.579l5.3-.279V47.8Z" transform="translate(58.159 36.685)"/>
      <path id="Path_312" data-name="Path 312" d="M26.216,35.821,25.1,30.8H47.974v5.021Z" transform="translate(43.485 53.685)"/>
      <path id="Path_313" data-name="Path 313" d="M56.958,36l1.116-5.3H35.2V36Z" transform="translate(61.559 53.506)"/>
      <path id="Path_314" data-name="Path 314" d="M22.9,23.514s15.063-4.184,29.011-3.905v4.742a96.4,96.4,0,0,0-27.9,3.905Z" transform="translate(39.548 33.634)"/>
      <path id="Path_315" data-name="Path 315" d="M64.211,23.514S48.869,19.33,35.2,19.609v4.742a95.5,95.5,0,0,1,27.9,3.905Z" transform="translate(61.559 33.634)"/>
      <path id="Path_316" data-name="Path 316" d="M21.816,25.258,20.7,20.516s2.232-.558,5.021-1.116l1.116,4.742Z" transform="translate(35.611 33.285)"/>
      <path id="Path_317" data-name="Path 317" d="M26.521,46.232,21.5,23.916,26.521,22.8l5.021,22.316Z" transform="translate(37.043 39.369)"/>
      <path id="Path_318" data-name="Path 318" d="M50.621,25.158l1.116-4.742s-2.232-.558-5.021-1.116L45.6,24.042Z" transform="translate(80.17 33.106)"/>
      <path id="Path_319" data-name="Path 319" d="M48.421,46.232l5.021-22.316L48.421,22.8,43.4,45.116Z" transform="translate(76.233 39.369)"/>
      <path id="Path_320" data-name="Path 320" d="M15.353,19.405a1.953,1.953,0,1,1,1.953-1.953,1.907,1.907,0,0,1-1.953,1.953" transform="translate(22.548 26.306)"/>
      <path id="Path_321" data-name="Path 321" d="M55.453,19.405a1.953,1.953,0,1,1,1.953-1.953,1.907,1.907,0,0,1-1.953,1.953" transform="translate(94.307 26.306)"/>
    </g>
  </g>
</svg>
