<svg xmlns="http://www.w3.org/2000/svg" xmlns:xlink="http://www.w3.org/1999/xlink" width="600" height="300" viewBox="0 0 600 300"><defs><clipPath id="clip-Logo"><path d="M0 0h600v300H0z"/></clipPath></defs><g id="Logo" clip-path="url(#clip-Logo)"><path fill="#e8eff3" d="M0 0h600v300H0z"/><g id="Kungliga_biblioteket_logotyp" transform="translate(205.2 50.2)"><path id="Path_274" d="M16.42 74.02h-3.07l-8.92-9.76v9.76H.8V58.4h3.35l8.37 9.2v-9.2h3.9Z" transform="translate(0 103.075)"/><path id="Path_275" d="M13.84 65.96v2.5a2.4 2.4 0 0 1-1.68.85 1.2 1.2 0 0 1-1.11-1.12q0-1.25 1.67-1.67l.84-.28Zm5.3 2.23c-.84.28-1.12.56-1.4.56s-.56-.28-.56-.84v-4.18a3.6 3.6 0 0 0-.27-1.96c-.56-1.11-2.24-1.67-4.19-1.67a5 5 0 0 0-2.23.28 8 8 0 0 0-2.23 1.11v2.8a5.5 5.5 0 0 1 3.9-1.68c1.4 0 1.96.56 1.96 1.67h-.28l-.56.28-.56.28c-1.95.56-2.51.84-3.35 1.12a3 3 0 0 0-1.67 2.5 2.87 2.87 0 0 0 3.07 2.8 5.4 5.4 0 0 0 3.35-1.12h.27c.28.84.84 1.12 1.96 1.12a6.4 6.4 0 0 0 3.07-.84V68.2Z" transform="translate(12.348 106.118)"/><path id="Path_276" d="M20.49 64.58h-3.63v3.07c0 2.23.28 2.79 1.68 2.79a7 7 0 0 0 1.95-.56h.28v2.51a6 6 0 0 1-3.07.56 3.7 3.7 0 0 1-3.35-1.68c-.55-.83-.55-1.4-.55-3.06v-3.63h-1.4v-.56L16.86 59v3.35h3.9v2.23Z" transform="translate(20.758 104.149)"/><path id="Path_277" d="M19.83 74.2h-3.07V63.6h3.07Zm-1.68-12.27a1.87 1.87 0 0 1-1.95-1.68 1.9 1.9 0 0 1 1.95-1.95c1.12 0 1.68.84 1.68 1.95.28.84-.56 1.68-1.68 1.68" transform="translate(27.558 102.896)"/><path id="Path_278" d="M26.87 65.5a4.7 4.7 0 0 1-.56 2.51 2.4 2.4 0 0 1-1.67.84q-2.51 0-2.51-3.35c0-2.51.83-3.62 2.23-3.62 1.67 0 2.5 1.11 2.5 3.62Zm3.62 0a4.5 4.5 0 0 0-1.11-3.35 5.8 5.8 0 0 0-4.74-1.95c-3.35 0-6.14 2.23-6.14 5.58s2.51 5.58 6.14 5.58c3.34-.28 5.86-2.51 5.86-5.86" transform="translate(31.674 106.297)"/><path id="Path_279" d="M27.43 61.77a4.8 4.8 0 0 1 3.34-1.67 3.6 3.6 0 0 1 3.35 1.95 5.5 5.5 0 0 1 .28 2.51v6.42h-3.35v-5.86c0-1.95-.55-2.51-1.67-2.51a2.6 2.6 0 0 0-2.23 1.67v6.7H23.8v-10.6h3.35v1.4Z" transform="translate(41.159 106.118)"/><path id="Path_280" d="M35.22 65.96v2.5a2.4 2.4 0 0 1-1.68.85 1.2 1.2 0 0 1-1.11-1.12q0-1.25 1.67-1.67l.84-.28Zm5.02 2.23c-.84.28-1.12.56-1.4.56s-.56-.28-.56-.84v-4.18a3.6 3.6 0 0 0-.28-1.96c-.55-1.11-2.23-1.67-4.18-1.67a5 5 0 0 0-2.23.28 8 8 0 0 0-2.23 1.11v2.8a5.5 5.5 0 0 1 3.9-1.68c1.4 0 1.96.56 1.96 1.67h-.28l-.56.28-.56.28c-1.95.56-2.51.84-3.35 1.12a3 3 0 0 0-1.67 2.5 2.87 2.87 0 0 0 3.07 2.8 5.4 5.4 0 0 0 3.35-1.12h.27c.28.84.84 1.12 1.96 1.12a6.4 6.4 0 0 0 3.07-.84V68.2Z" transform="translate(50.106 106.118)"/><path id="Rectangle_20" d="M0 0h3.35v15.62H0z" transform="translate(92.854 161.475)"/><path id="Path_281" d="M50.6 74.02h-12V58.4h3.9v12.55h8.1Z" transform="translate(67.643 103.075)"/><path id="Path_282" d="M47.15 74.2h-3.07V63.6h3.07Zm-1.4-12.27a1.87 1.87 0 0 1-1.95-1.68 1.9 1.9 0 0 1 1.95-1.95c1.12 0 1.68.84 1.68 1.95a1.6 1.6 0 0 1-1.68 1.68" transform="translate(76.949 102.896)"/><path id="Path_283" d="M49.75 66.21a5 5 0 0 1 1.95-.56c1.67 0 2.51 1.12 2.51 3.07S53.1 71.8 51.7 71.8a3 3 0 0 1-1.95-.84Zm0-7.81H46.4v15.62h3.35v-.84a6 6 0 0 0 3.07 1.12c2.79 0 5.02-2.23 5.02-5.58s-2.24-5.58-5.3-5.58a5.4 5.4 0 0 0-2.8.84z" transform="translate(81.601 103.075)"/><path id="Path_284" d="M54.59 63.45a10 10 0 0 1 1.4-2.24 2.5 2.5 0 0 1 2.23-1.11 4.5 4.5 0 0 1 2.23.84L59.6 64a3.7 3.7 0 0 0-1.95-.84c-1.12 0-1.96 1.11-2.51 2.5v5.3H51.8v-10.6h3.35v3.08Z" transform="translate(91.265 106.118)"/><path id="Path_285" d="M61.62 65.96v2.5a2.4 2.4 0 0 1-1.68.85 1.2 1.2 0 0 1-1.11-1.12q0-1.25 1.67-1.67l.84-.28Zm5.02 2.23c-.84.28-1.12.56-1.4.56s-.56-.28-.56-.84v-4.18a3.6 3.6 0 0 0-.28-1.96c-.55-1.11-2.23-1.67-4.18-1.67a5 5 0 0 0-2.23.28 8 8 0 0 0-2.23 1.11v2.8a5.5 5.5 0 0 1 3.9-1.68c1.4 0 1.96.56 1.96 1.67h-.28l-.56.28h-.56c-1.95.56-2.51.84-3.35 1.12a3 3 0 0 0-1.67 2.51 2.87 2.87 0 0 0 3.07 2.79 5.4 5.4 0 0 0 3.34-1.12h.28c.28.84.84 1.12 1.96 1.12a6.4 6.4 0 0 0 3.07-.84V68.2Z" transform="translate(97.349 106.118)"/><path id="Path_286" d="M63.19 63.45a10 10 0 0 1 1.4-2.24 2.5 2.5 0 0 1 2.23-1.11 4.5 4.5 0 0 1 2.23.84L68.2 64a3.7 3.7 0 0 0-1.95-.84c-1.12 0-1.96 1.11-2.51 2.5v5.3H60.4v-10.6h3.35v3.08Z" transform="translate(106.654 106.118)"/><path id="Path_287" d="M68.16 75.82h-3.62l3.34-6.7-4.18-8.92h3.63l2.23 5.3 2.23-5.3h3.63Z" transform="translate(112.56 106.297)"/><path id="Path_288" d="M21.65 73.2a4.7 4.7 0 0 1-.56 2.51 2.4 2.4 0 0 1-1.68.84q-2.5 0-2.5-3.35c0-2.51.83-3.62 2.23-3.62 1.67 0 2.5 1.11 2.5 3.62Zm3.34 0a4.5 4.5 0 0 0-1.11-3.35 5.8 5.8 0 0 0-4.74-1.95c-3.35 0-6.14 2.23-6.14 5.58s2.51 5.58 6.14 5.58c3.62-.28 5.86-2.51 5.86-5.86" transform="translate(21.832 120.076)"/><path id="Path_289" d="M24.34 71.3v2.23h-1.4v8.37H19.6v-8.37h-1.4V71.3h1.4v-.28a5 5 0 0 1 .83-3.07 2.2 2.2 0 0 1 1.12-1.11 4.7 4.7 0 0 1 2.79-.84h2.23v2.79h-1.95c-1.4 0-1.96.56-1.96 2.23v.28Z" transform="translate(31.137 116.676)"/><path id="Path_290" d="M34.96 70.28a10.6 10.6 0 0 0-5.02-1.67c-1.4 0-2.24.56-2.24 1.4 0 .55.84 1.11 2.52 1.95l1.11.56c3.07 1.11 4.46 2.5 4.46 5.02 0 2.79-2.5 4.74-6.13 4.74a12 12 0 0 1-4.19-.84c-.83-.28-1.11-.28-1.4-.56v-3.9a8 8 0 0 0 2.52 1.4 12 12 0 0 0 2.79.55c1.67 0 2.51-.56 2.51-1.4s-.56-1.1-2.23-1.67l-.84-.28c-1.12-.55-1.95-.83-2.51-1.11a6 6 0 0 1-1.4-1.12 6 6 0 0 1-1.11-2.79c0-2.79 2.23-4.46 5.86-4.46a13 13 0 0 1 5.3 1.12z" transform="translate(41.159 116.855)"/><path id="Path_291" d="M42.09 78.78h-1.67l-2.52-5.86-2.79 5.86h-1.67L28.7 67.9h3.63l2.23 5.58 2.23-5.58h1.95l2.51 5.58 2.23-5.58h3.35Z" transform="translate(49.927 120.076)"/><path id="Path_292" d="M39.6 72.26a2.2 2.2 0 0 1 2.24-2.23 2.05 2.05 0 0 1 2.23 2.23Zm7.26 3.07a6 6 0 0 1-3.9 1.4c-2.24 0-3.35-1.12-3.63-2.8h7.53v-.27c0-3.35-2.23-5.86-5.58-5.86a5.27 5.27 0 0 0-5.58 5.58c0 3.35 2.23 5.58 5.86 5.58a8.3 8.3 0 0 0 5.02-1.4v-2.23Z" transform="translate(62.454 119.897)"/><path id="Path_293" d="M48.51 78.65a3 3 0 0 1-1.95.84c-1.68 0-2.51-1.12-2.51-3.07q0-3.34 2.5-3.34a5 5 0 0 1 1.96.55Zm3.35-12.55H48.5v5.58a4.6 4.6 0 0 0-2.79-.56c-3.07 0-5.02 2.23-5.02 5.58a5.3 5.3 0 0 0 5.02 5.58 4.7 4.7 0 0 0 3.07-1.12V82h3.35V66.1Z" transform="translate(71.401 116.855)"/><path id="Path_294" d="M49.6 72.26a2.2 2.2 0 0 1 2.24-2.23 2.05 2.05 0 0 1 2.23 2.23Zm7.26 3.07a6 6 0 0 1-3.9 1.4c-2.24 0-3.35-1.12-3.63-2.8h7.53v-.27c0-3.35-2.23-5.86-5.58-5.86a5.27 5.27 0 0 0-5.58 5.58c0 3.35 2.23 5.58 5.86 5.58a8.3 8.3 0 0 0 5.02-1.4v-2.23Z" transform="translate(80.349 119.897)"/><path id="Path_295" d="M54.43 69.47a4.8 4.8 0 0 1 3.34-1.67 3.6 3.6 0 0 1 3.35 1.95 5.5 5.5 0 0 1 .28 2.51v6.14h-3.35v-5.86c0-1.95-.55-2.5-1.67-2.5a2.6 2.6 0 0 0-2.23 1.66v6.98H50.8v-10.6h3.35v1.4Z" transform="translate(89.475 119.897)"/><path id="Path_296" d="m24.78 15.95 10.88.55-3.35 3.63-9.48-.56 5.3 5.02-2.51 3.07-11.72-10.6L16.69 14l5.3 5.02v-.28l-1.95-8.37 2.79-3.07Z" transform="translate(23.443 11.632)"/><path id="Path_297" d="M39.15 9.43a4 4 0 0 1 .56 1.68 7 7 0 0 1 0 3.34 6 6 0 0 1-2.79 3.63 16 16 0 0 1-2.23 1.4 8 8 0 0 1-4.74.83 3.2 3.2 0 0 1-2.24-.84 6.4 6.4 0 0 1-2.79-3.62L21.3 8.04l3.63-1.68 3.06 6.98a6.4 6.4 0 0 0 1.68 2.5 3.9 3.9 0 0 0 3.9.29c1.68-.84 2.8-2.51 2.24-4.19 0-.28-.28-.55-.28-.83l-.28-.56-3.07-6.98L35.8 1.9Z" transform="translate(36.685 1.968)"/><path id="Path_298" d="M47.22 16.7h-3.07L35.51 6.66l-.28 9.76H31.6V.8h3.63l8.37 9.48V.8l3.9.28Z" transform="translate(55.117)"/><path id="Path_299" d="M57.2 11.22a15 15 0 0 0-4.74-3.9c-3.07-1.4-5.86-.85-7.26 1.95-1.12 2.5 0 5.02 2.51 6.41a8 8 0 0 0 2.8.84l.83-1.68-1.95-1.11 1.39-2.51L56.36 14l-2.8 5.86c-1.94.55-4.45 0-6.96-1.12-5.03-2.23-6.98-6.97-5.03-11.44s6.98-5.58 12-3.07a14 14 0 0 1 3.35 2.24l1.67 1.67Z" transform="translate(71.639 3.809)"/><path id="Path_300" d="M55.49 27.33 47.4 18.4 59.12 7.8l2.79 3.07-9.77 8.37 5.3 6.13Z" transform="translate(83.391 12.527)"/><path id="Path_301" d="M23.07 25.34 22.79 27c-.28 1.67-.84 2.51-2.23 2.23-1.12-.28-1.68-1.11-1.12-2.79l.28-1.4Zm3.35-3.35L11.07 19.2l-1.4 6.97a14 14 0 0 0-.27 3.07 4.8 4.8 0 0 0 3.63 3.9 4 4 0 0 0 4.46-2.5 3 3 0 0 0 2.79 2.5 3.94 3.94 0 0 0 4.18-2.23 15 15 0 0 0 .84-3.06Zm-9.49 2.23-.28 1.68c-.55 2.5-1.11 3.34-2.5 3.06s-1.68-1.11-1.4-3.62l.28-1.96Z" transform="translate(15.39 32.927)"/><path id="Rectangle_21" d="M0 0h15.62v3.9H0z" transform="rotate(-7.695 594.354 -143.792)"/><path id="Path_302" d="m23.91 37.24.56 1.4c.84 1.67.56 2.5-.28 3.07-1.12.55-1.95 0-2.79-1.68l-.56-1.4Zm.84-4.74L10.8 39.47l3.07 6.42a10 10 0 0 0 1.67 2.51 4.3 4.3 0 0 0 5.02.84c1.96-.84 2.51-2.51 2.24-4.74a3.9 3.9 0 0 0 3.9.55 4.2 4.2 0 0 0 1.95-4.18 9 9 0 0 0-1.11-2.8Zm-6.42 7.53.84 1.68c1.11 2.23 1.11 3.34 0 3.9-1.4.56-1.95 0-3.07-2.23l-.84-1.68Z" transform="translate(17.895 56.727)"/><path id="Path_303" d="m24.45 58.33-8.65-8.1L26.4 38.8l2.79 2.79-8.65 9.2 5.86 5.58Z" transform="translate(26.843 68.001)"/><path id="Rectangle_22" d="M0 0h15.62v3.9H0z" transform="rotate(-60.895 140.426 15.706)"/><path id="Path_304" d="M41.23 53.92a4.6 4.6 0 0 1-5.58 3.9 5 5 0 0 1-4.18-5.57 4.6 4.6 0 0 1 5.58-3.9c3.06.55 4.74 2.5 4.18 5.57m3.9.56c.84-4.46-2.5-8.65-7.53-9.48s-9.48 1.95-10.32 6.41 2.51 8.65 7.53 9.49c5.3.83 9.77-1.96 10.32-6.42" transform="translate(47.161 78.822)"/><path id="Path_305" d="m51.72 47.07-5.58 1.4 3.07 12.27-3.9.83-3.07-12.27-5.58 1.4-.56-3.07L50.88 44Z" transform="translate(63.17 77.307)"/><path id="Path_306" d="m62.41 52.85-9.2 6.7L44 47l9.2-6.7 1.68 2.23L48.74 47l1.95 2.52 5.86-4.19 1.68 2.51-5.86 4.19 2.23 3.06 6.14-4.46Z" transform="translate(77.307 70.685)"/><path id="Path_307" d="m60 42.37 10.6-1.4-2.51 4.19-9.48 1.4 6.13 3.62-1.95 3.35-13.39-8.1 1.95-3.34 6.14 3.63-3.35-7.82 2.23-3.9Z" transform="translate(86.97 59.412)"/><path id="Path_308" d="m70.37 29.91-1.95 11.44-15.62-2.8 2.23-11.15 2.8.56-1.4 7.25 3.06.56 1.4-6.98 2.79.56-1.12 6.98 3.63.55 1.4-7.25Z" transform="translate(93.054 47.601)"/><path id="Path_309" d="m55.57 19 1.11 5.58 12.56-2.8.83 3.91-12.55 2.8 1.12 5.57-2.8.56-3.34-15.06Z" transform="translate(92.517 32.569)"/><path id="Path_310" d="M33.3 22.82V17.8h5.3v5.02Z" transform="translate(58.159 30.422)"/><path id="Path_311" d="M33.3 47.8V21.58l5.3-.28v26.5Z" transform="translate(58.159 36.685)"/><path id="Path_312" d="M26.22 35.82 25.1 30.8h22.87v5.02Z" transform="translate(43.485 53.685)"/><path id="Path_313" d="m56.96 36 1.11-5.3H35.2V36Z" transform="translate(61.559 53.506)"/><path id="Path_314" d="M22.9 23.51s15.06-4.18 29.01-3.9v4.74a96 96 0 0 0-27.9 3.9Z" transform="translate(39.548 33.634)"/><path id="Path_315" d="M64.21 23.51s-15.34-4.18-29.01-3.9v4.74a96 96 0 0 1 27.9 3.9Z" transform="translate(61.559 33.634)"/><path id="Path_316" d="m21.82 25.26-1.12-4.74s2.23-.56 5.02-1.12l1.12 4.74Z" transform="translate(35.611 33.285)"/><path id="Path_317" d="M26.52 46.23 21.5 23.92l5.02-1.12 5.02 22.32Z" transform="translate(37.043 39.369)"/><path id="Path_318" d="m50.62 25.16 1.12-4.74s-2.24-.56-5.02-1.12l-1.12 4.74Z" transform="translate(80.17 33.106)"/><path id="Path_319" d="m48.42 46.23 5.02-22.31-5.02-1.12-5.02 22.32Z" transform="translate(76.233 39.369)"/><path id="Path_320" d="M15.35 19.4a1.95 1.95 0 1 1 1.96-1.95 1.9 1.9 0 0 1-1.96 1.96" transform="translate(22.548 26.306)"/><path id="Path_321" d="M55.45 19.4a1.95 1.95 0 1 1 1.96-1.95 1.9 1.9 0 0 1-1.96 1.96" transform="translate(94.307 26.306)"/></g></g></svg>