<svg xmlns="http://www.w3.org/2000/svg" xmlns:xlink="http://www.w3.org/1999/xlink" width="600" height="300" viewBox="0 0 600 300">
  <defs>
    <clipPath id="clip-Logo">
      <rect width="600" height="300"/>
    </clipPath>
  </defs>
  <g id="Logo" clip-path="url(#clip-Logo)">
    <rect width="600" height="300" fill="#e8eff3"/>
    <g id="Konstnärsnämnden_Logga" data-name="Konstnärsnämnden Logga" transform="translate(50 88.202)">
      <g id="Group_33" data-name="Group 33" transform="translate(0 0)">
        <g id="Group_29" data-name="Group 29" transform="translate(155.899 36.517)">
          <path id="Path_322" data-name="Path 322" d="M3.7,8.611,14.258,0H19.7L10.122,7.573l10.231,10.27H15.238L7.292,9.752l-3.483,2.8v5.291H0V0H3.809V8.611Z" transform="translate(0)" fill="#192f34"/>
          <path id="Path_323" data-name="Path 323" d="M29.639,10.1c0,4.15-3.483,6.847-7.945,6.847s-8.054-2.7-8.054-6.847c0-4.046,3.592-6.847,8.054-6.847S29.639,5.947,29.639,10.1Zm-3.483,0c0-2.49-1.959-3.838-4.463-3.838S17.231,7.711,17.231,10.1c0,2.49,1.959,3.942,4.462,3.942C24.2,13.935,26.156,12.587,26.156,10.1Z" transform="translate(5.517 1.315)" fill="#192f34"/>
          <path id="Path_324" data-name="Path 324" d="M26.581,3.531h3.7v1.66a6.841,6.841,0,0,1,5.007-1.867c3.7,0,5.986,2.386,5.986,6.017V16.6h-3.7V10.171c0-2.282-1.2-3.735-3.483-3.735a3.438,3.438,0,0,0-3.809,3.735V16.6h-3.7Z" transform="translate(10.752 1.344)" fill="#192f34"/>
          <path id="Path_325" data-name="Path 325" d="M40.491,11.831a8.079,8.079,0,0,0,5.986,2.282c1.959,0,3.374-.415,3.374-1.349,0-1.037-1.306-1.037-4.463-1.349-3.483-.415-6.2-1.037-6.2-3.735,0-2.594,2.612-4.357,6.748-4.357,3.265,0,5.877,1.037,7.075,2.49L50.94,7.888a6.916,6.916,0,0,0-5.224-1.867c-2.068,0-3.048.519-3.048,1.245,0,.83.98.934,3.918,1.245,3.592.415,6.748.934,6.748,3.942s-3.265,4.461-7.184,4.461c-3.265,0-6.313-1.037-7.945-2.7Z" transform="translate(15.454 1.344)" fill="#192f34"/>
          <path id="Path_326" data-name="Path 326" d="M53.017,7.452H49.752v-2.9h3.265V.813h3.592V4.547h5.877v2.9H56.609v5.187c0,1.556.871,2.075,2.83,2.075a9.859,9.859,0,0,0,3.048-.519l.653,2.9a13.721,13.721,0,0,1-4.463.726c-3.048,0-5.551-1.245-5.551-4.565V7.452Z" transform="translate(20.124 0.329)" fill="#192f34"/>
          <path id="Path_327" data-name="Path 327" d="M60.6,3.531h3.7v1.66a6.841,6.841,0,0,1,5.007-1.867c3.7,0,5.986,2.386,5.986,6.017V16.6h-3.7V10.171c0-2.282-1.2-3.735-3.483-3.735A3.438,3.438,0,0,0,64.3,10.171V16.6H60.6Z" transform="translate(24.513 1.344)" fill="#192f34"/>
          <path id="Path_328" data-name="Path 328" d="M72.458,14.109c0-2.386,2.177-3.735,5.442-4.046l5.769-.622v-.1c0-1.141-.98-1.971-3.374-1.971-1.959,0-3.7.83-4.136,1.971L73,8.3c.871-2.282,3.918-3.735,7.4-3.735,4.354,0,6.857,1.66,6.857,4.876v5.187c0,.726.327,1.037,1.959.726v2.594c-3.048.622-4.463-.311-5.116-1.66a8.624,8.624,0,0,1-5.769,1.867C74.961,18.155,72.458,16.806,72.458,14.109ZM75.288,0H79.1V3.216H75.288Zm8.381,11.93-5.224.519c-1.633.207-2.5.519-2.5,1.556s.98,1.452,2.721,1.452c2.286,0,4.9-.934,4.9-2.7v-.83ZM81.709,0h3.809V3.216H81.709Z" transform="translate(29.309)" fill="#192f34"/>
          <path id="Path_329" data-name="Path 329" d="M95.817,7.029a7.748,7.748,0,0,0-1.633-.207c-3.048,0-5.007,1.141-5.007,4.15v5.6h-3.7V3.5h3.7V5.784C90.375,4.02,92.116,3.4,94.4,3.4a5.932,5.932,0,0,1,1.524.207V7.029Z" transform="translate(34.575 1.374)" fill="#192f34"/>
          <path id="Path_330" data-name="Path 330" d="M95.2,11.831a8.079,8.079,0,0,0,5.986,2.282c1.959,0,3.374-.415,3.374-1.349,0-1.037-1.306-1.037-4.462-1.349-3.483-.415-6.2-1.037-6.2-3.735,0-2.594,2.612-4.357,6.748-4.357,3.265,0,5.877,1.037,7.075,2.49l-2.068,2.075a6.916,6.916,0,0,0-5.224-1.867c-2.068,0-3.048.519-3.048,1.245,0,.83.98.934,3.918,1.245,3.592.415,6.748.934,6.748,3.942s-3.265,4.461-7.184,4.461c-3.265,0-6.313-1.037-7.945-2.7Z" transform="translate(37.584 1.344)" fill="#192f34"/>
          <path id="Path_331" data-name="Path 331" d="M105.161,3.531h3.7v1.66a6.841,6.841,0,0,1,5.007-1.867c3.7,0,5.986,2.386,5.986,6.017V16.6h-3.7V10.171c0-2.282-1.2-3.735-3.483-3.735a3.438,3.438,0,0,0-3.809,3.735V16.6h-3.7V3.531Z" transform="translate(42.537 1.344)" fill="#192f34"/>
          <path id="Path_332" data-name="Path 332" d="M117.018,14.109c0-2.386,2.177-3.735,5.442-4.046l5.769-.622v-.1c0-1.141-.98-1.971-3.374-1.971-1.959,0-3.7.83-4.136,1.971L117.562,8.3c.871-2.282,3.918-3.735,7.4-3.735,4.354,0,6.857,1.66,6.857,4.876v5.187c0,.726.327,1.037,1.959.726v2.594c-3.048.622-4.463-.311-5.116-1.66a8.624,8.624,0,0,1-5.769,1.867C119.521,18.155,117.018,16.806,117.018,14.109ZM119.739,0h3.809V3.216h-3.809Zm8.381,11.93-5.224.519c-1.633.207-2.5.519-2.5,1.556s.98,1.452,2.721,1.452c2.286,0,4.9-.934,4.9-2.7v-.83ZM126.16,0h3.809V3.216H126.16Z" transform="translate(47.333)" fill="#192f34"/>
          <path id="Path_333" data-name="Path 333" d="M130.068,3.531h3.7v1.66a6.3,6.3,0,0,1,4.789-1.867,5.3,5.3,0,0,1,4.789,2.386A7.4,7.4,0,0,1,148.9,3.324c4.027,0,6.2,2.386,6.2,6.121V16.6h-3.7V10.067c0-2.179-.98-3.735-3.374-3.735s-3.592,1.452-3.592,3.735V16.5h-3.7V9.963c0-2.179-.98-3.735-3.374-3.735-2.5,0-3.7,1.452-3.7,3.735V16.4h-3.7V3.531Z" transform="translate(52.568 1.344)" fill="#192f34"/>
          <path id="Path_334" data-name="Path 334" d="M149.8,3.531h3.7v1.66a6.841,6.841,0,0,1,5.007-1.867c3.7,0,5.986,2.386,5.986,6.017V16.6h-3.7V10.171c0-2.282-1.2-3.735-3.483-3.735a3.438,3.438,0,0,0-3.809,3.735V16.6h-3.7V3.531Z" transform="translate(60.592 1.344)" fill="#192f34"/>
          <path id="Path_335" data-name="Path 335" d="M169.165,18.155c-4.68,0-7.51-3.112-7.51-6.847s2.721-6.847,7.51-6.847a6.751,6.751,0,0,1,5.116,1.867V0h3.7V17.843h-3.7V16.287A6.751,6.751,0,0,1,169.165,18.155Zm.653-10.789c-2.5,0-4.571,1.452-4.571,3.942,0,2.594,2.177,3.942,4.571,3.942,2.612,0,4.68-1.66,4.68-3.838V11.2C174.5,9.025,172.43,7.366,169.818,7.366Z" transform="translate(65.388)" fill="#192f34"/>
          <path id="Path_336" data-name="Path 336" d="M187.128,11.683l3.156,1.245c-.871,2.179-3.7,3.942-7.292,3.942-4.68,0-8.163-2.8-8.163-6.847,0-3.838,3.374-6.847,8.054-6.847,4.789,0,7.619,2.9,7.619,6.639v1.141h-12.19c.435,1.867,2.286,3.008,4.571,3.008C184.951,14.069,186.584,13.135,187.128,11.683Zm-8.707-3.008h8.49c-.218-1.245-1.741-2.594-4.136-2.594A4.474,4.474,0,0,0,178.421,8.674Z" transform="translate(70.717 1.285)" fill="#192f34"/>
          <path id="Path_337" data-name="Path 337" d="M187.538,3.531h3.7v1.66a6.841,6.841,0,0,1,5.007-1.867c3.7,0,5.986,2.386,5.986,6.017V16.6h-3.7V10.171c0-2.282-1.2-3.735-3.483-3.735a3.438,3.438,0,0,0-3.809,3.735V16.6h-3.7V3.531Z" transform="translate(75.858 1.344)" fill="#192f34"/>
        </g>
        <g id="Group_30" data-name="Group 30" transform="translate(154.494 66.011)">
          <path id="Path_338" data-name="Path 338" d="M7.414,2.15V16.42H5.342V2.15H0V.24H12.647V2.15Z" transform="translate(0 0.097)" fill="#192f34"/>
          <path id="Path_339" data-name="Path 339" d="M10.247.32h1.962V6.275a3.844,3.844,0,0,1,3.38-1.8c2.4,0,3.816,1.685,3.816,4.27V16.5H17.443V9.2c0-1.685-.654-2.921-2.4-2.921a2.884,2.884,0,0,0-2.835,3.034v6.966H10.247Z" transform="translate(4.145 0.129)" fill="#192f34"/>
          <path id="Path_340" data-name="Path 340" d="M18.087,9.347c0-3.483,2.181-6.067,5.233-6.067,3.162,0,4.906,2.472,4.906,5.73v.674H19.941c.109,2.472,1.526,4.045,3.489,4.045a2.877,2.877,0,0,0,2.944-2.247l1.744.674a4.638,4.638,0,0,1-4.688,3.371C20.268,15.415,18.087,12.943,18.087,9.347ZM20.05,8.111h6.105c0-1.685-.872-3.146-2.944-3.146C21.685,4.965,20.486,6.089,20.05,8.111Z" transform="translate(7.316 1.327)" fill="#192f34"/>
          <path id="Path_341" data-name="Path 341" d="M30.683,11.91a5.3,5.3,0,0,0,4.8,3.034c2.072,0,3.6-1.011,3.6-2.921S37.224,9.775,34.935,9.1c-2.508-.562-4.906-1.348-4.906-4.382C30.029,1.91,32.427,0,35.371,0A6.22,6.22,0,0,1,41.04,3.146L39.4,4.494A4.248,4.248,0,0,0,35.371,1.91c-1.853,0-3.271,1.124-3.271,2.584,0,1.685,1.417,2.022,3.707,2.584,2.617.674,5.451,1.236,5.451,4.607,0,3.034-2.617,4.944-5.669,4.944-2.726,0-5.342-1.348-6.324-3.6Z" transform="translate(11.838 0)" fill="#192f34"/>
          <path id="Path_342" data-name="Path 342" d="M46.806,3.44,49.2,12.2,51.6,3.44h1.962l-3.489,11.8H48.223l-2.4-8.764-2.4,8.764H41.681L38.192,3.44h2.072l2.4,8.764,2.4-8.764Z" transform="translate(15.449 1.391)" fill="#192f34"/>
          <path id="Path_343" data-name="Path 343" d="M49.681,9.347c0-3.483,2.181-6.067,5.233-6.067,3.162,0,4.906,2.472,4.906,5.73v.674H51.535c.109,2.472,1.526,4.045,3.489,4.045a2.877,2.877,0,0,0,2.944-2.247l1.744.674a4.638,4.638,0,0,1-4.688,3.371C51.862,15.415,49.681,12.943,49.681,9.347Zm1.962-1.236h6.105c0-1.685-.872-3.146-2.944-3.146C53.279,4.965,51.971,6.089,51.644,8.111Z" transform="translate(20.096 1.327)" fill="#192f34"/>
          <path id="Path_344" data-name="Path 344" d="M57.987,10.545c0-3.371,1.853-6.067,5.015-6.067a3.882,3.882,0,0,1,3.489,1.91V.32h1.962V16.5H66.491V14.814A4.012,4.012,0,0,1,63,16.724C59.841,16.612,57.987,13.916,57.987,10.545ZM63.33,6.163c-2.181,0-3.38,1.8-3.38,4.382,0,2.472,1.2,4.382,3.38,4.382,1.635,0,3.271-1.236,3.271-3.933v-.787C66.6,7.4,64.965,6.163,63.33,6.163Z" transform="translate(23.456 0.129)" fill="#192f34"/>
          <path id="Path_345" data-name="Path 345" d="M67.38.32h2.181V2.68H67.38Zm1.962,16.067H67.38V4.7h1.962Z" transform="translate(27.255 0.129)" fill="#192f34"/>
          <path id="Path_346" data-name="Path 346" d="M71.7,11.627a3.876,3.876,0,0,0,3.489,2.247c1.308,0,2.508-.562,2.508-1.91,0-1.236-1.09-1.461-2.944-1.91s-3.816-.9-3.816-3.258c0-2.135,1.744-3.6,4.143-3.6a4.6,4.6,0,0,1,4.361,2.472L78.025,6.8a3.318,3.318,0,0,0-3.053-1.91c-1.308,0-2.181.674-2.181,1.685,0,1.124.981,1.348,2.617,1.685,1.962.449,4.252.9,4.252,3.483,0,2.247-1.962,3.708-4.47,3.708a5.424,5.424,0,0,1-5.015-2.7Z" transform="translate(28.385 1.294)" fill="#192f34"/>
          <path id="Path_347" data-name="Path 347" d="M78.559.32h1.962V6.275a3.844,3.844,0,0,1,3.38-1.8c2.4,0,3.816,1.685,3.816,4.27V16.5H85.754V9.2c0-1.685-.654-2.921-2.4-2.921a2.884,2.884,0,0,0-2.835,3.034v6.966H78.559Z" transform="translate(31.776 0.129)" fill="#192f34"/>
          <path id="Path_348" data-name="Path 348" d="M97.977.32l6,16.18H101.9l-1.635-4.27H93.288L91.762,16.5H89.582l6-16.18Zm-4.034,10h5.669L96.777,2.792Z" transform="translate(36.235 0.129)" fill="#192f34"/>
          <path id="Path_349" data-name="Path 349" d="M107.035,5.382a2.631,2.631,0,0,0-.981-.112,3.076,3.076,0,0,0-2.944,3.371v6.4h-1.962V3.472h1.962V5.495a3.377,3.377,0,0,1,3.162-2.135h.763Z" transform="translate(40.914 1.359)" fill="#192f34"/>
          <path id="Path_350" data-name="Path 350" d="M107.628,6.129h-1.744V4.443h1.744V.96h1.962V4.443h2.617V6.129H109.59v6.854c0,1.236.545,1.461,1.635,1.461a4.344,4.344,0,0,0,1.2-.112v1.685a8.236,8.236,0,0,1-1.744.225c-1.962,0-3.053-.674-3.053-2.921Z" transform="translate(42.829 0.388)" fill="#192f34"/>
          <path id="Path_351" data-name="Path 351" d="M112.766,11.627a3.876,3.876,0,0,0,3.489,2.247c1.308,0,2.508-.562,2.508-1.91,0-1.236-1.09-1.461-2.944-1.91S112,9.155,112,6.8c0-2.135,1.744-3.6,4.143-3.6a4.6,4.6,0,0,1,4.361,2.472L119.089,6.8a3.318,3.318,0,0,0-3.053-1.91c-1.308,0-2.181.674-2.181,1.685,0,1.124.981,1.348,2.617,1.685,1.962.449,4.252.9,4.252,3.483,0,2.247-1.962,3.708-4.47,3.708a5.424,5.424,0,0,1-5.015-2.7Z" transform="translate(44.996 1.294)" fill="#192f34"/>
          <path id="Path_352" data-name="Path 352" d="M133.819,14.093a4.865,4.865,0,0,1-4.579,2.7c-4.034,0-6.978-3.371-6.978-8.315S125.206.16,129.349.16a6.144,6.144,0,0,1,6.105,4.494l-1.962.674a4.014,4.014,0,0,0-4.034-3.258c-2.944,0-5.015,2.584-5.015,6.4s2.072,6.4,5.015,6.4c2.508,0,4.252-2.022,4.252-4.831h-4.47V8.138h6.542v8.427h-1.962Z" transform="translate(49.455 0.065)" fill="#192f34"/>
          <path id="Path_353" data-name="Path 353" d="M139.639,5.382a2.631,2.631,0,0,0-.981-.112,3.076,3.076,0,0,0-2.944,3.371v6.4h-1.962V3.472h1.962V5.495a3.377,3.377,0,0,1,3.162-2.135h.763Z" transform="translate(54.102 1.359)" fill="#192f34"/>
          <path id="Path_354" data-name="Path 354" d="M138.564,12.012c0-2.36,1.744-3.258,4.361-3.82l2.726-.562V7.18c0-1.348-.763-2.135-2.29-2.135a2.428,2.428,0,0,0-2.617,2.022l-1.853-.449A4.486,4.486,0,0,1,143.47,3.36c2.508,0,4.143,1.236,4.143,3.82v5.73c0,.787.436,1.011,1.2.787V15.27q-2.617.337-2.944-1.348a4.34,4.34,0,0,1-3.489,1.573C140.309,15.382,138.564,14.147,138.564,12.012ZM145.651,9.2l-2.181.449c-1.744.337-2.944.9-2.944,2.247,0,1.124.763,1.8,2.072,1.8a2.783,2.783,0,0,0,3.053-2.584Z" transform="translate(56.048 1.359)" fill="#192f34"/>
          <path id="Path_355" data-name="Path 355" d="M147.336,3.5H149.3V5.078a3.844,3.844,0,0,1,3.38-1.8c2.4,0,3.816,1.685,3.816,4.27V15.3h-1.962V8c0-1.685-.654-2.921-2.4-2.921A2.884,2.884,0,0,0,149.3,8.111v6.966h-1.962Z" transform="translate(59.597 1.327)" fill="#192f34"/>
          <path id="Path_356" data-name="Path 356" d="M156.766,6.129h-1.744V4.443h1.744V.96h1.962V4.443h2.617V6.129h-2.617v6.854c0,1.236.545,1.461,1.635,1.461a4.344,4.344,0,0,0,1.2-.112v1.685a8.235,8.235,0,0,1-1.744.225c-1.962,0-3.053-.674-3.053-2.921Z" transform="translate(62.705 0.388)" fill="#192f34"/>
          <path id="Path_357" data-name="Path 357" d="M161.9,11.627a3.876,3.876,0,0,0,3.489,2.247c1.308,0,2.508-.562,2.508-1.91,0-1.236-1.09-1.461-2.944-1.91s-3.816-.9-3.816-3.258c0-2.135,1.744-3.6,4.143-3.6a4.6,4.6,0,0,1,4.361,2.472L168.227,6.8a3.318,3.318,0,0,0-3.053-1.91c-1.308,0-2.181.674-2.181,1.685,0,1.124.981,1.348,2.617,1.685,1.962.449,4.252.9,4.252,3.483,0,2.247-1.962,3.708-4.47,3.708a5.424,5.424,0,0,1-5.015-2.7Z" transform="translate(64.872 1.294)" fill="#192f34"/>
          <path id="Path_358" data-name="Path 358" d="M178.487,14.8a4.014,4.014,0,0,0,4.034-3.258l1.962.674a6.018,6.018,0,0,1-6,4.494c-4.034,0-7.087-3.371-7.087-8.315S174.344.08,178.487.08a6.018,6.018,0,0,1,6,4.494l-1.962.674a4.1,4.1,0,0,0-4.034-3.258c-2.944,0-4.906,2.584-4.906,6.4S175.543,14.8,178.487,14.8Z" transform="translate(69.33 0.032)" fill="#192f34"/>
          <path id="Path_359" data-name="Path 359" d="M186.99,15.415c-3.162,0-5.342-2.472-5.342-6.067s2.181-6.067,5.342-6.067,5.342,2.472,5.342,6.067C192.223,12.943,190.042,15.415,186.99,15.415Zm0-1.685c1.962,0,3.271-1.685,3.271-4.382s-1.308-4.382-3.271-4.382-3.271,1.685-3.271,4.382C183.61,12.044,184.918,13.729,186.99,13.729Z" transform="translate(73.475 1.327)" fill="#192f34"/>
          <path id="Path_360" data-name="Path 360" d="M192.537,15.19h-1.962V3.5h1.962V5.078a3.79,3.79,0,0,1,3.271-1.8A3.283,3.283,0,0,1,198.969,5.3a4.252,4.252,0,0,1,3.6-2.022c2.4,0,3.816,1.685,3.816,4.27V15.3h-1.962V8c0-1.685-.654-2.921-2.29-2.921a2.869,2.869,0,0,0-2.726,3.034V15.19h-1.962V8c0-1.685-.654-2.921-2.29-2.921a2.869,2.869,0,0,0-2.726,3.034V15.19Z" transform="translate(77.086 1.327)" fill="#192f34"/>
          <path id="Path_361" data-name="Path 361" d="M205.733,15.19h-1.962V3.5h1.962V5.078A3.79,3.79,0,0,1,209,3.28,3.283,3.283,0,0,1,212.166,5.3a4.252,4.252,0,0,1,3.6-2.022c2.4,0,3.816,1.685,3.816,4.27V15.3h-1.962V8c0-1.685-.654-2.921-2.29-2.921A2.869,2.869,0,0,0,212.6,8.111V15.19H210.64V8c0-1.685-.654-2.921-2.29-2.921a2.869,2.869,0,0,0-2.726,3.034V15.19Z" transform="translate(82.424 1.327)" fill="#192f34"/>
          <path id="Path_362" data-name="Path 362" d="M216.89.32h2.181V2.68H216.89Zm2.072,16.067H217V4.7h1.962Z" transform="translate(87.731 0.129)" fill="#192f34"/>
          <path id="Path_363" data-name="Path 363" d="M221.351,6.129h-1.744V4.443h1.744V.96h1.962V4.443h2.617V6.129h-2.617v6.854c0,1.236.545,1.461,1.635,1.461a4.344,4.344,0,0,0,1.2-.112v1.685a8.236,8.236,0,0,1-1.744.225c-1.962,0-3.053-.674-3.053-2.921Z" transform="translate(88.83 0.388)" fill="#192f34"/>
          <path id="Path_364" data-name="Path 364" d="M226.552,6.129h-1.744V4.443h1.744V.96h1.962V4.443h2.617V6.129h-2.617v6.854c0,1.236.545,1.461,1.635,1.461a4.344,4.344,0,0,0,1.2-.112v1.685a8.236,8.236,0,0,1-1.744.225c-1.962,0-3.053-.674-3.053-2.921Z" transform="translate(90.934 0.388)" fill="#192f34"/>
          <path id="Path_365" data-name="Path 365" d="M230.475,9.347c0-3.483,2.181-6.067,5.233-6.067,3.162,0,4.906,2.472,4.906,5.73v.674h-8.286c.109,2.472,1.526,4.045,3.489,4.045a2.877,2.877,0,0,0,2.944-2.247l1.744.674a4.638,4.638,0,0,1-4.688,3.371C232.655,15.415,230.475,12.943,230.475,9.347Zm1.962-1.236h6.105c0-1.685-.872-3.146-2.944-3.146C234.072,4.965,232.764,6.089,232.437,8.111Z" transform="translate(93.226 1.327)" fill="#192f34"/>
          <path id="Path_366" data-name="Path 366" d="M238.781,9.347c0-3.483,2.181-6.067,5.233-6.067,3.162,0,4.906,2.472,4.906,5.73v.674h-8.177c.109,2.472,1.526,4.045,3.489,4.045a2.877,2.877,0,0,0,2.944-2.247l1.744.674a4.638,4.638,0,0,1-4.688,3.371C240.961,15.415,238.781,12.943,238.781,9.347Zm2.072-1.236h6.105c0-1.685-.872-3.146-2.944-3.146C242.379,4.965,241.179,6.089,240.852,8.111Z" transform="translate(96.585 1.327)" fill="#192f34"/>
        </g>
        <path id="Path_367" data-name="Path 367" d="M46,58.989A59.036,59.036,0,0,0,104.989,0H46Z" transform="translate(18.607 0)" fill="#192f34"/>
        <g id="Group_31" data-name="Group 31" transform="translate(64.607 64.607)">
          <rect id="Rectangle_23" data-name="Rectangle 23" width="14.72" height="14.693" fill="#192f34"/>
          <rect id="Rectangle_24" data-name="Rectangle 24" width="14.72" height="14.693" transform="translate(14.72 14.802)" fill="#192f34"/>
          <rect id="Rectangle_25" data-name="Rectangle 25" width="14.72" height="14.693" transform="translate(29.549 29.494)" fill="#192f34"/>
          <rect id="Rectangle_26" data-name="Rectangle 26" width="14.72" height="14.693" transform="translate(0 29.494)" fill="#192f34"/>
          <rect id="Rectangle_27" data-name="Rectangle 27" width="14.72" height="14.693" transform="translate(44.269 44.296)" fill="#192f34"/>
          <rect id="Rectangle_28" data-name="Rectangle 28" width="14.72" height="14.693" transform="translate(14.72 44.296)" fill="#192f34"/>
        </g>
        <path id="Path_368" data-name="Path 368" d="M46.339,75.658v-.327A14.74,14.74,0,1,0,29.657,58.648H29.33A14.74,14.74,0,1,0,12.648,75.331v.327A14.74,14.74,0,1,0,29.33,92.341h.327A14.74,14.74,0,1,0,46.339,75.658ZM29.657,88.2H29.33A14.8,14.8,0,0,0,16.791,75.658v-.327A14.8,14.8,0,0,0,29.33,62.792h.327A14.8,14.8,0,0,0,42.2,75.331v.327A14.576,14.576,0,0,0,29.657,88.2Z" transform="translate(0 18.607)" fill="#192f34"/>
        <g id="Group_32" data-name="Group 32" transform="translate(0)">
          <path id="Path_369" data-name="Path 369" d="M0,46.858H16.869L0,29.989Z" transform="translate(0 12.13)" fill="#192f34"/>
          <path id="Path_370" data-name="Path 370" d="M0,22.8,33.63,56.544H50.5L0,6.044Z" transform="translate(0 2.445)" fill="#192f34"/>
          <path id="Path_371" data-name="Path 371" d="M5.967,0,56.575,50.5V33.739L22.836,0Z" transform="translate(2.414 0)" fill="#192f34"/>
          <path id="Path_372" data-name="Path 372" d="M29.989,0,46.858,16.869V0Z" transform="translate(12.13 0)" fill="#192f34"/>
        </g>
      </g>
    </g>
  </g>
</svg>
