<svg xmlns="http://www.w3.org/2000/svg" xmlns:xlink="http://www.w3.org/1999/xlink" width="600" height="300" viewBox="0 0 600 300"><defs><clipPath id="clip-Logo"><path d="M0 0h600v300H0z"/></clipPath></defs><g id="Logo" clip-path="url(#clip-Logo)"><path fill="#e8eff3" d="M0 0h600v300H0z"/><g id="Konstnärsnämnden_Logga" transform="translate(50 88.202)"><g id="Group_33"><g id="Group_29" transform="translate(155.899 36.517)"><path id="Path_322" fill="#192f34" d="M3.7 8.61 14.26 0h5.44l-9.58 7.57 10.23 10.27h-5.11L7.29 9.75l-3.48 2.8v5.3H0V0h3.8v8.61Z"/><path id="Path_323" fill="#192f34" d="M29.64 10.1c0 4.15-3.48 6.85-7.95 6.85s-8.05-2.7-8.05-6.85c0-4.05 3.6-6.85 8.05-6.85s7.95 2.7 7.95 6.85m-3.48 0c0-2.49-1.96-3.84-4.47-3.84s-4.46 1.45-4.46 3.84c0 2.49 1.96 3.94 4.46 3.94 2.51-.1 4.47-1.45 4.47-3.94" transform="translate(5.517 1.315)"/><path id="Path_324" fill="#192f34" d="M26.58 3.53h3.7V5.2a6.8 6.8 0 0 1 5-1.87c3.7 0 6 2.39 6 6.02v7.26h-3.7v-6.43c0-2.28-1.2-3.73-3.49-3.73a3.44 3.44 0 0 0-3.8 3.73v6.43h-3.7Z" transform="translate(10.752 1.344)"/><path id="Path_325" fill="#192f34" d="M40.5 11.83a8 8 0 0 0 5.98 2.28c1.96 0 3.37-.41 3.37-1.35 0-1.03-1.3-1.03-4.46-1.35-3.49-.41-6.2-1.03-6.2-3.73 0-2.6 2.61-4.36 6.75-4.36 3.26 0 5.87 1.04 7.07 2.5l-2.07 2.07a7 7 0 0 0-5.22-1.87c-2.07 0-3.05.52-3.05 1.25 0 .83.98.93 3.92 1.24 3.59.42 6.74.93 6.74 3.94s-3.26 4.46-7.18 4.46c-3.27 0-6.31-1.03-7.95-2.7Z" transform="translate(15.454 1.344)"/><path id="Path_326" fill="#192f34" d="M53.02 7.45h-3.27v-2.9h3.27V.81h3.59v3.74h5.88v2.9H56.6v5.18c0 1.56.87 2.08 2.83 2.08a10 10 0 0 0 3.05-.52l.65 2.9a14 14 0 0 1-4.46.73c-3.05 0-5.55-1.25-5.55-4.57v-5.8Z" transform="translate(20.124 .329)"/><path id="Path_327" fill="#192f34" d="M60.6 3.53h3.7V5.2a6.8 6.8 0 0 1 5-1.87c3.7 0 6 2.39 6 6.02v7.26h-3.7v-6.43c0-2.28-1.2-3.73-3.49-3.73a3.44 3.44 0 0 0-3.81 3.73v6.43h-3.7Z" transform="translate(24.513 1.344)"/><path id="Path_328" fill="#192f34" d="M72.46 14.1c0-2.38 2.18-3.73 5.44-4.04l5.77-.62v-.1c0-1.14-.98-1.97-3.37-1.97-1.96 0-3.7.83-4.14 1.97L73 8.3c.87-2.28 3.92-3.73 7.4-3.73 4.35 0 6.86 1.66 6.86 4.87v5.19c0 .72.32 1.04 1.96.72v2.6c-3.05.62-4.47-.31-5.12-1.66a8.6 8.6 0 0 1-5.77 1.87c-3.37 0-5.87-1.35-5.87-4.05M75.29 0h3.81v3.22h-3.81Zm8.38 11.93-5.23.52c-1.63.2-2.5.52-2.5 1.56s.98 1.45 2.73 1.45c2.28 0 4.9-.94 4.9-2.7v-.83ZM81.7 0h3.8v3.22h-3.8Z" transform="translate(29.309)"/><path id="Path_329" fill="#192f34" d="M95.82 7.03a8 8 0 0 0-1.64-.2c-3.04 0-5 1.13-5 4.14v5.6h-3.7V3.5h3.7v2.28c1.2-1.76 2.94-2.38 5.22-2.38a6 6 0 0 1 1.52.2v3.43Z" transform="translate(34.575 1.374)"/><path id="Path_330" fill="#192f34" d="M95.2 11.83a8 8 0 0 0 5.99 2.28c1.96 0 3.37-.41 3.37-1.35 0-1.03-1.3-1.03-4.46-1.35-3.48-.41-6.2-1.03-6.2-3.73 0-2.6 2.61-4.36 6.75-4.36 3.26 0 5.87 1.04 7.07 2.5l-2.07 2.07a7 7 0 0 0-5.22-1.87c-2.07 0-3.05.52-3.05 1.25 0 .83.98.93 3.92 1.24 3.6.42 6.75.93 6.75 3.94s-3.27 4.46-7.19 4.46c-3.26 0-6.31-1.03-7.94-2.7Z" transform="translate(37.584 1.344)"/><path id="Path_331" fill="#192f34" d="M105.16 3.53h3.7V5.2a6.8 6.8 0 0 1 5-1.87c3.7 0 6 2.39 6 6.02v7.26h-3.7v-6.43c0-2.28-1.2-3.73-3.49-3.73a3.44 3.44 0 0 0-3.8 3.73v6.43h-3.7z" transform="translate(42.537 1.344)"/><path id="Path_332" fill="#192f34" d="M117.02 14.1c0-2.38 2.18-3.73 5.44-4.04l5.77-.62v-.1c0-1.14-.98-1.97-3.37-1.97-1.96 0-3.7.83-4.14 1.97l-3.16-1.04c.87-2.28 3.92-3.73 7.4-3.73 4.36 0 6.86 1.66 6.86 4.87v5.19c0 .72.33 1.04 1.96.72v2.6c-3.05.62-4.46-.31-5.12-1.66a8.6 8.6 0 0 1-5.77 1.87c-3.37 0-5.87-1.35-5.87-4.05M119.74 0h3.8v3.22h-3.8Zm8.38 11.93-5.22.52c-1.64.2-2.5.52-2.5 1.56s.98 1.45 2.72 1.45c2.28 0 4.9-.94 4.9-2.7v-.83ZM126.16 0h3.8v3.22h-3.8Z" transform="translate(47.333)"/><path id="Path_333" fill="#192f34" d="M130.07 3.53h3.7V5.2a6.3 6.3 0 0 1 4.79-1.87 5.3 5.3 0 0 1 4.79 2.39 7.4 7.4 0 0 1 5.55-2.39c4.03 0 6.2 2.39 6.2 6.13v7.15h-3.7v-6.53c0-2.18-.98-3.74-3.37-3.74s-3.6 1.45-3.6 3.74v6.43h-3.7V9.96c0-2.18-.98-3.73-3.37-3.73-2.5 0-3.7 1.45-3.7 3.73v6.44h-3.7V3.53Z" transform="translate(52.568 1.344)"/><path id="Path_334" fill="#192f34" d="M149.8 3.53h3.7V5.2a6.8 6.8 0 0 1 5-1.87c3.7 0 6 2.39 6 6.02v7.26h-3.7v-6.43c0-2.28-1.2-3.73-3.49-3.73a3.44 3.44 0 0 0-3.8 3.73v6.43h-3.7z" transform="translate(60.592 1.344)"/><path id="Path_335" fill="#192f34" d="M169.17 18.16c-4.68 0-7.51-3.12-7.51-6.85s2.72-6.85 7.5-6.85a6.8 6.8 0 0 1 5.12 1.87V0h3.7v17.84h-3.7V16.3a6.8 6.8 0 0 1-5.12 1.87m.65-10.8c-2.5 0-4.57 1.46-4.57 3.95 0 2.6 2.17 3.94 4.57 3.94 2.61 0 4.68-1.66 4.68-3.84v-.21c0-2.17-2.07-3.83-4.68-3.83" transform="translate(65.388)"/><path id="Path_336" fill="#192f34" d="m187.13 11.68 3.15 1.25c-.87 2.18-3.7 3.94-7.29 3.94-4.68 0-8.16-2.8-8.16-6.85 0-3.83 3.37-6.84 8.05-6.84 4.8 0 7.62 2.9 7.62 6.64v1.14h-12.19c.44 1.86 2.29 3 4.57 3 2.07.1 3.7-.83 4.25-2.28m-8.7-3h8.48c-.22-1.25-1.74-2.6-4.13-2.6a4.5 4.5 0 0 0-4.36 2.6Z" transform="translate(70.717 1.285)"/><path id="Path_337" fill="#192f34" d="M187.54 3.53h3.7V5.2a6.8 6.8 0 0 1 5-1.87c3.7 0 6 2.39 6 6.02v7.26h-3.7v-6.43c0-2.28-1.2-3.73-3.5-3.73a3.44 3.44 0 0 0-3.8 3.73v6.43h-3.7z" transform="translate(75.858 1.344)"/></g><g id="Group_30" transform="translate(154.494 66.011)"><path id="Path_338" fill="#192f34" d="M7.41 2.15v14.27H5.34V2.15H0V.24h12.65v1.91Z" transform="translate(0 .097)"/><path id="Path_339" fill="#192f34" d="M10.25.32h1.96v5.96a3.8 3.8 0 0 1 3.38-1.8c2.4 0 3.81 1.68 3.81 4.26v7.76h-1.96V9.2c0-1.68-.65-2.92-2.4-2.92a2.9 2.9 0 0 0-2.83 3.03v6.97h-1.96Z" transform="translate(4.145 .129)"/><path id="Path_340" fill="#192f34" d="M18.09 9.35c0-3.49 2.18-6.07 5.23-6.07 3.16 0 4.9 2.47 4.9 5.73v.67h-8.28c.11 2.48 1.53 4.05 3.49 4.05a2.9 2.9 0 0 0 2.94-2.25l1.75.68a4.64 4.64 0 0 1-4.69 3.37c-3.16-.12-5.34-2.59-5.34-6.18m1.96-1.24h6.1c0-1.68-.87-3.14-2.94-3.14-1.53 0-2.72 1.12-3.16 3.14" transform="translate(7.316 1.327)"/><path id="Path_341" fill="#192f34" d="M30.68 11.91a5.3 5.3 0 0 0 4.8 3.03c2.08 0 3.6-1 3.6-2.92s-1.86-2.24-4.14-2.92c-2.51-.56-4.91-1.35-4.91-4.38 0-2.81 2.4-4.72 5.34-4.72a6.2 6.2 0 0 1 5.67 3.15L39.4 4.49a4.25 4.25 0 0 0-4.03-2.58c-1.85 0-3.27 1.12-3.27 2.58 0 1.69 1.42 2.03 3.7 2.59 2.62.67 5.46 1.23 5.46 4.6 0 3.04-2.62 4.95-5.67 4.95-2.73 0-5.34-1.35-6.32-3.6Z" transform="translate(11.838)"/><path id="Path_342" fill="#192f34" d="m46.8 3.44 2.4 8.76 2.4-8.76h1.96l-3.49 11.8h-1.85l-2.4-8.76-2.4 8.76h-1.74L38.2 3.44h2.07l2.4 8.76 2.4-8.76Z" transform="translate(15.449 1.391)"/><path id="Path_343" fill="#192f34" d="M49.68 9.35c0-3.49 2.18-6.07 5.23-6.07 3.17 0 4.91 2.47 4.91 5.73v.67h-8.29c.11 2.48 1.53 4.05 3.5 4.05a2.9 2.9 0 0 0 2.94-2.25l1.74.68a4.64 4.64 0 0 1-4.69 3.37c-3.16-.12-5.34-2.59-5.34-6.18m1.96-1.24h6.1c0-1.68-.86-3.15-2.94-3.15-1.52 0-2.83 1.13-3.16 3.15" transform="translate(20.096 1.327)"/><path id="Path_344" fill="#192f34" d="M57.99 10.55c0-3.38 1.85-6.07 5.01-6.07a3.9 3.9 0 0 1 3.5 1.9V.33h1.95V16.5H66.5v-1.69a4 4 0 0 1-3.5 1.91c-3.16-.1-5.01-2.8-5.01-6.17m5.34-4.39c-2.18 0-3.38 1.8-3.38 4.39 0 2.47 1.2 4.38 3.38 4.38 1.64 0 3.27-1.24 3.27-3.94v-.78c0-2.81-1.63-4.05-3.27-4.05" transform="translate(23.456 .129)"/><path id="Path_345" fill="#192f34" d="M67.38.32h2.18v2.36h-2.18Zm1.96 16.07h-1.96V4.7h1.96Z" transform="translate(27.255 .129)"/><path id="Path_346" fill="#192f34" d="M71.7 11.63a3.9 3.9 0 0 0 3.49 2.24c1.3 0 2.5-.56 2.5-1.9 0-1.24-1.08-1.47-2.94-1.92s-3.81-.9-3.81-3.25c0-2.14 1.74-3.6 4.14-3.6a4.6 4.6 0 0 1 4.36 2.47L78.03 6.8a3.3 3.3 0 0 0-3.06-1.91c-1.3 0-2.18.67-2.18 1.69 0 1.12.98 1.34 2.62 1.68 1.96.45 4.25.9 4.25 3.48 0 2.25-1.96 3.71-4.47 3.71a5.4 5.4 0 0 1-5.01-2.7Z" transform="translate(28.385 1.294)"/><path id="Path_347" fill="#192f34" d="M78.56.32h1.96v5.96a3.8 3.8 0 0 1 3.38-1.8c2.4 0 3.82 1.68 3.82 4.26v7.76h-1.97V9.2c0-1.68-.65-2.92-2.4-2.92a2.9 2.9 0 0 0-2.83 3.03v6.97h-1.96Z" transform="translate(31.776 .129)"/><path id="Path_348" fill="#192f34" d="m97.98.32 6 16.18h-2.08l-1.63-4.27h-6.98l-1.53 4.27h-2.18l6-16.18Zm-4.04 10h5.67l-2.83-7.53Z" transform="translate(36.235 .129)"/><path id="Path_349" fill="#192f34" d="M107.04 5.38a3 3 0 0 0-.99-.11 3.1 3.1 0 0 0-2.94 3.37v6.4h-1.96V3.47h1.96V5.5a3.4 3.4 0 0 1 3.16-2.14h.77Z" transform="translate(40.914 1.359)"/><path id="Path_350" fill="#192f34" d="M107.63 6.13h-1.75V4.44h1.75V.96h1.96v3.48h2.62v1.69h-2.62v6.85c0 1.24.55 1.46 1.64 1.46a4 4 0 0 0 1.2-.1v1.68a8 8 0 0 1-1.75.22c-1.96 0-3.05-.67-3.05-2.92Z" transform="translate(42.829 .388)"/><path id="Path_351" fill="#192f34" d="M112.77 11.63a3.9 3.9 0 0 0 3.49 2.24c1.3 0 2.5-.56 2.5-1.9 0-1.24-1.09-1.47-2.94-1.92S112 9.15 112 6.8c0-2.13 1.74-3.6 4.14-3.6a4.6 4.6 0 0 1 4.36 2.47l-1.4 1.13a3.3 3.3 0 0 0-3.05-1.91c-1.31 0-2.19.67-2.19 1.69 0 1.12.99 1.34 2.62 1.68 1.96.45 4.25.9 4.25 3.48 0 2.25-1.96 3.71-4.47 3.71a5.4 5.4 0 0 1-5.01-2.7Z" transform="translate(44.996 1.294)"/><path id="Path_352" fill="#192f34" d="M133.82 14.1a4.9 4.9 0 0 1-4.58 2.7c-4.03 0-6.98-3.38-6.98-8.32s2.95-8.32 7.09-8.32a6.14 6.14 0 0 1 6.1 4.5l-1.96.67a4 4 0 0 0-4.03-3.26c-2.95 0-5.02 2.58-5.02 6.4s2.08 6.4 5.02 6.4c2.5 0 4.25-2.02 4.25-4.83h-4.47v-1.9h6.54v8.42h-1.96Z" transform="translate(49.455 .065)"/><path id="Path_353" fill="#192f34" d="M139.64 5.38a3 3 0 0 0-.98-.11 3.1 3.1 0 0 0-2.95 3.37v6.4h-1.96V3.47h1.96V5.5a3.4 3.4 0 0 1 3.17-2.14h.76Z" transform="translate(54.102 1.359)"/><path id="Path_354" fill="#192f34" d="M138.56 12.01c0-2.36 1.75-3.26 4.36-3.82l2.73-.56v-.45c0-1.35-.76-2.13-2.29-2.13a2.43 2.43 0 0 0-2.62 2.02l-1.85-.45a4.5 4.5 0 0 1 4.58-3.26c2.5 0 4.14 1.24 4.14 3.82v5.73c0 .79.44 1.01 1.2.79v1.57q-2.61.34-2.94-1.35a4.3 4.3 0 0 1-3.49 1.57c-2.07-.1-3.82-1.34-3.82-3.48m7.1-2.81-2.19.45c-1.74.34-2.94.9-2.94 2.25 0 1.12.76 1.8 2.07 1.8a2.8 2.8 0 0 0 3.05-2.59Z" transform="translate(56.048 1.359)"/><path id="Path_355" fill="#192f34" d="M147.34 3.5h1.96v1.58a3.8 3.8 0 0 1 3.38-1.8c2.4 0 3.82 1.68 3.82 4.27v7.75h-1.97V8c0-1.68-.65-2.92-2.4-2.92a2.9 2.9 0 0 0-2.83 3.03v6.97h-1.96Z" transform="translate(59.597 1.327)"/><path id="Path_356" fill="#192f34" d="M156.77 6.13h-1.75V4.44h1.75V.96h1.96v3.48h2.61v1.69h-2.61v6.85c0 1.24.54 1.46 1.63 1.46a4 4 0 0 0 1.2-.1v1.68a8 8 0 0 1-1.74.22c-1.96 0-3.05-.67-3.05-2.92Z" transform="translate(62.705 .388)"/><path id="Path_357" fill="#192f34" d="M161.9 11.63a3.9 3.9 0 0 0 3.49 2.24c1.3 0 2.5-.56 2.5-1.9 0-1.24-1.08-1.47-2.94-1.92s-3.81-.9-3.81-3.25c0-2.14 1.74-3.6 4.14-3.6a4.6 4.6 0 0 1 4.36 2.47l-1.41 1.13a3.3 3.3 0 0 0-3.06-1.91c-1.3 0-2.18.67-2.18 1.69 0 1.12.98 1.34 2.62 1.68 1.96.45 4.25.9 4.25 3.48 0 2.25-1.96 3.71-4.47 3.71a5.4 5.4 0 0 1-5.01-2.7Z" transform="translate(64.872 1.294)"/><path id="Path_358" fill="#192f34" d="M178.49 14.8a4 4 0 0 0 4.03-3.26l1.96.68a6 6 0 0 1-6 4.49c-4.03 0-7.08-3.37-7.08-8.31s2.94-8.32 7.09-8.32a6 6 0 0 1 6 4.5l-1.97.67a4.1 4.1 0 0 0-4.03-3.26c-2.94 0-4.9 2.58-4.9 6.4s1.95 6.41 4.9 6.41" transform="translate(69.33 .032)"/><path id="Path_359" fill="#192f34" d="M186.99 15.42c-3.16 0-5.34-2.48-5.34-6.07s2.18-6.07 5.34-6.07 5.34 2.47 5.34 6.07c-.1 3.6-2.29 6.07-5.34 6.07m0-1.69c1.96 0 3.27-1.69 3.27-4.38s-1.3-4.38-3.27-4.38-3.27 1.68-3.27 4.38c-.11 2.7 1.2 4.38 3.27 4.38" transform="translate(73.475 1.327)"/><path id="Path_360" fill="#192f34" d="M192.54 15.19h-1.96V3.5h1.96v1.58a3.8 3.8 0 0 1 3.27-1.8 3.3 3.3 0 0 1 3.16 2.02 4.3 4.3 0 0 1 3.6-2.02c2.4 0 3.81 1.68 3.81 4.27v7.75h-1.96V8c0-1.68-.65-2.92-2.29-2.92a2.87 2.87 0 0 0-2.72 3.03v7.08h-1.96V8c0-1.68-.66-2.92-2.3-2.92a2.87 2.87 0 0 0-2.72 3.03v7.08Z" transform="translate(77.086 1.327)"/><path id="Path_361" fill="#192f34" d="M205.73 15.19h-1.96V3.5h1.96v1.58a3.8 3.8 0 0 1 3.27-1.8 3.3 3.3 0 0 1 3.17 2.02 4.3 4.3 0 0 1 3.6-2.02c2.4 0 3.81 1.68 3.81 4.27v7.75h-1.96V8c0-1.68-.65-2.92-2.29-2.92a2.87 2.87 0 0 0-2.73 3.03v7.08h-1.96V8c0-1.68-.65-2.92-2.29-2.92a2.87 2.87 0 0 0-2.73 3.03v7.08Z" transform="translate(82.424 1.327)"/><path id="Path_362" fill="#192f34" d="M216.89.32h2.18v2.36h-2.18Zm2.07 16.07H217V4.7h1.96Z" transform="translate(87.731 .129)"/><path id="Path_363" fill="#192f34" d="M221.35 6.13h-1.74V4.44h1.74V.96h1.96v3.48h2.62v1.69h-2.62v6.85c0 1.24.55 1.46 1.64 1.46a4 4 0 0 0 1.2-.1v1.68a8 8 0 0 1-1.75.22c-1.96 0-3.05-.67-3.05-2.92Z" transform="translate(88.83 .388)"/><path id="Path_364" fill="#192f34" d="M226.55 6.13h-1.74V4.44h1.74V.96h1.96v3.48h2.62v1.69h-2.62v6.85c0 1.24.55 1.46 1.64 1.46a4 4 0 0 0 1.2-.1v1.68a8 8 0 0 1-1.75.22c-1.96 0-3.05-.67-3.05-2.92Z" transform="translate(90.934 .388)"/><path id="Path_365" fill="#192f34" d="M230.48 9.35c0-3.49 2.18-6.07 5.23-6.07 3.16 0 4.9 2.47 4.9 5.73v.67h-8.28c.1 2.48 1.52 4.05 3.49 4.05a2.9 2.9 0 0 0 2.94-2.25l1.75.68a4.64 4.64 0 0 1-4.7 3.37c-3.16-.12-5.34-2.59-5.34-6.18m1.96-1.24h6.1c0-1.68-.87-3.15-2.94-3.15-1.53 0-2.84 1.13-3.16 3.15" transform="translate(93.226 1.327)"/><path id="Path_366" fill="#192f34" d="M238.78 9.35c0-3.49 2.18-6.07 5.23-6.07 3.17 0 4.91 2.47 4.91 5.73v.67h-8.18c.11 2.48 1.53 4.05 3.5 4.05a2.9 2.9 0 0 0 2.94-2.25l1.74.68a4.64 4.64 0 0 1-4.69 3.37c-3.27-.12-5.45-2.59-5.45-6.18m2.07-1.24h6.1c0-1.68-.86-3.15-2.94-3.15-1.63 0-2.83 1.13-3.16 3.15" transform="translate(96.585 1.327)"/></g><path id="Path_367" fill="#192f34" d="M46 58.99A59.04 59.04 0 0 0 104.99 0H46Z" transform="translate(18.607)"/><g id="Group_31" transform="translate(64.607 64.607)"><path id="Rectangle_23" fill="#192f34" d="M0 0h14.72v14.7H0z"/><path id="Rectangle_24" fill="#192f34" d="M0 0h14.72v14.7H0z" transform="translate(14.72 14.802)"/><path id="Rectangle_25" fill="#192f34" d="M0 0h14.72v14.7H0z" transform="translate(29.549 29.494)"/><path id="Rectangle_26" fill="#192f34" d="M0 0h14.72v14.7H0z" transform="translate(0 29.494)"/><path id="Rectangle_27" fill="#192f34" d="M0 0h14.72v14.7H0z" transform="translate(44.269 44.296)"/><path id="Rectangle_28" fill="#192f34" d="M0 0h14.72v14.7H0z" transform="translate(14.72 44.296)"/></g><path id="Path_368" fill="#192f34" d="M46.34 75.66v-.33a14.74 14.74 0 1 0-16.68-16.68h-.33a14.74 14.74 0 1 0-16.68 16.68v.33a14.74 14.74 0 1 0 16.68 16.68h.33a14.74 14.74 0 1 0 16.68-16.68M29.66 88.2h-.33a14.8 14.8 0 0 0-12.54-12.54v-.33A14.8 14.8 0 0 0 29.33 62.8h.33A14.8 14.8 0 0 0 42.2 75.33v.33A14.6 14.6 0 0 0 29.66 88.2" transform="translate(0 18.607)"/><g id="Group_32"><path id="Path_369" fill="#192f34" d="M0 46.86h16.87L0 29.99Z" transform="translate(0 12.13)"/><path id="Path_370" fill="#192f34" d="m0 22.8 33.63 33.74H50.5L0 6.04Z" transform="translate(0 2.445)"/><path id="Path_371" fill="#192f34" d="m5.97 0 50.6 50.5V33.74L22.85 0Z" transform="translate(2.414)"/><path id="Path_372" fill="#192f34" d="m29.99 0 16.87 16.87V0Z" transform="translate(12.13)"/></g></g></g></g></svg>