<svg xmlns="http://www.w3.org/2000/svg" xmlns:xlink="http://www.w3.org/1999/xlink" width="600" height="300" viewBox="0 0 600 300">
  <defs>
    <clipPath id="clip-Logo">
      <rect width="600" height="300"/>
    </clipPath>
  </defs>
  <g id="Logo" clip-path="url(#clip-Logo)">
    <rect width="600" height="300" fill="#e8eff3"/>
    <g id="c" transform="translate(204.992 36.646)">
      <g id="Group_34" data-name="Group 34" transform="translate(0.008)">
        <path id="Path_373" data-name="Path 373" d="M116.282,246.162c2.047-2.319,4.242-4.786,5.76-6.313a9.351,9.351,0,0,1,6.148-3s-3.565-1.749-7.328,2.005c-1.015,1.015-3.276,3.565-5.6,6.164-.842-.941-1.667-1.873-2.434-2.723.85-.933,1.65-1.783,2.311-2.451a9.351,9.351,0,0,1,6.148-3s-3.573-1.749-7.328,2.005c-.479.479-1.238,1.3-2.154,2.311-.908-1.007-1.675-1.832-2.154-2.311-3.763-3.755-7.328-2.005-7.328-2.005a9.351,9.351,0,0,1,6.148,3c.668.668,1.461,1.518,2.311,2.451l-2.434,2.723c-2.319-2.6-4.588-5.149-5.6-6.164-3.763-3.755-7.328-2.005-7.328-2.005a9.351,9.351,0,0,1,6.148,3c1.527,1.527,3.714,3.986,5.76,6.313-1.931,2.162-3.771,4.2-4.828,5.257a9.292,9.292,0,0,1-5.447,2.707s3.152,1.849,7.452-2.55c.8-.817,2.22-2.434,3.829-4.258.875,1,1.7,1.931,2.393,2.707-.52.553-.974,1.04-1.337,1.395a9.292,9.292,0,0,1-5.447,2.707s3.152,1.849,7.46-2.55c.116-.116.239-.256.38-.4l.38.4c4.3,4.4,7.452,2.55,7.452,2.55a9.292,9.292,0,0,1-5.447-2.707c-.355-.355-.817-.842-1.337-1.4.693-.776,1.518-1.708,2.393-2.7,1.609,1.832,3.037,3.449,3.829,4.258,4.3,4.4,7.452,2.55,7.452,2.55a9.292,9.292,0,0,1-5.447-2.707c-1.048-1.048-2.888-3.095-4.819-5.257Zm-4.465,2.707c-.759-.833-1.584-1.75-2.434-2.707.809-.916,1.634-1.849,2.434-2.74.8.891,1.626,1.824,2.434,2.74C113.4,247.111,112.577,248.036,111.817,248.869Z" transform="translate(-16.683 -41.323)"/>
        <path id="Path_374" data-name="Path 374" d="M19.577,89.135a3.507,3.507,0,0,0,3.54,2.4,5.06,5.06,0,0,0,1.51-.239,3.592,3.592,0,0,0,.231.338,3.829,3.829,0,0,0,.908.883.641.641,0,0,0,.891-.157.636.636,0,0,0-.165-.883,2.418,2.418,0,0,1-.6-.594c-.041-.05-.066-.091-.091-.124a4.279,4.279,0,0,0,1.56-1.584,3.33,3.33,0,0,0,.239-2.558,1.509,1.509,0,0,0-1.287-1.106.658.658,0,0,0-.124.025c-.041-.206-.1-.413-.157-.619-.619-1.964-2.393-3.54-3.747-3.425a.743.743,0,0,0-.743-.182.755.755,0,0,0-.512.578,2.355,2.355,0,0,0-.866.957,5.459,5.459,0,0,0-.256,3.994c.066.206.14.4.223.6a.621.621,0,0,0-.107.05,1.5,1.5,0,0,0-.421,1.642Zm6.866-1.824a1.991,1.991,0,0,1-.223,1.279,3.239,3.239,0,0,1-1.948,1.494,3.79,3.79,0,0,1-1.155.182,2.309,2.309,0,0,1-2.212-1.221A4.424,4.424,0,0,0,22,89.168a6.363,6.363,0,0,0,1.9-.3,5.719,5.719,0,0,0,2.55-1.56Zm-5.166-3.87a.952.952,0,0,1,.421-.47.711.711,0,0,0,.289-.173.7.7,0,0,0,.338-.025c.512-.157,1.964.916,2.476,2.525a4.691,4.691,0,0,1,.215,1.593,4.978,4.978,0,0,1-1.5.751A5.155,5.155,0,0,1,22,87.881h-.149a4.653,4.653,0,0,1-.743-1.419A4.261,4.261,0,0,1,21.277,83.441Z" transform="translate(-3.417 -14.204)"/>
        <path id="Path_375" data-name="Path 375" d="M36.248,101.794a1.511,1.511,0,0,0,1.428-.924c.016-.041,0-.083.016-.124q.248.025.5.025h.14a5.5,5.5,0,0,0,3.7-1.518,2.3,2.3,0,0,0,.635-1.122.761.761,0,0,0,.388-.652.786.786,0,0,0-.413-.668c-.322-1.329-2.352-2.5-4.448-2.451a5.352,5.352,0,0,0-.635.05.363.363,0,0,0-.017-.132,1.521,1.521,0,0,0-1.452-.866h0a3.344,3.344,0,0,0-2.608,1.345,4.339,4.339,0,0,0-.751,1.683c-.041-.008-.083-.025-.14-.041a2.638,2.638,0,0,1-.759-.388.637.637,0,0,0-.759,1.023,3.956,3.956,0,0,0,1.131.578c.165.05.281.083.4.107.058,2.368,1.568,4.085,3.582,4.085h.083Zm1.964-6.173c1.675-.058,3.177,1.007,3.185,1.518a.707.707,0,0,0,.083.338.623.623,0,0,0-.074.338.907.907,0,0,1-.305.545,4.292,4.292,0,0,1-2.806,1.131,4.753,4.753,0,0,1-1.584-.231,5.118,5.118,0,0,1-.314-1.667,4.9,4.9,0,0,1,.231-1.65,4.48,4.48,0,0,1,1.584-.322Zm-4.357,2.03a3.344,3.344,0,0,1,.627-2.129,2.056,2.056,0,0,1,1.312-.809,5.85,5.85,0,0,0-.66,2.913,5.679,5.679,0,0,0,.8,2.88c-1.18-.14-2.038-1.3-2.071-2.855Z" transform="translate(-5.391 -16.325)"/>
        <path id="Path_376" data-name="Path 376" d="M26.691,140.263a2.337,2.337,0,0,0-.008-1.287.747.747,0,0,0,.008-.759.794.794,0,0,0-.685-.371c-.941-.99-3.309-.982-5.083.074a5.894,5.894,0,0,0-.528.355.932.932,0,0,0-.083-.107,1.394,1.394,0,0,0-.85-.272,1.583,1.583,0,0,0-.842.248,3.343,3.343,0,0,0-1.593,2.459,4.374,4.374,0,0,0,.182,1.832c-.041.008-.083.017-.14.033a2.7,2.7,0,0,1-.85.041.64.64,0,0,0-.149,1.271,3.884,3.884,0,0,0,.437.025,4.075,4.075,0,0,0,.825-.091,3.923,3.923,0,0,0,.4-.1,4.224,4.224,0,0,0,3.515,2.2,3.318,3.318,0,0,0,1.708-.479,1.527,1.527,0,0,0,.776-1.51c0-.041-.033-.074-.05-.107.19-.091.38-.19.561-.3a5.508,5.508,0,0,0,2.459-3.161Zm-5.108-1.246c1.452-.867,3.26-.7,3.515-.272a.618.618,0,0,0,.248.256.6.6,0,0,0,.107.33.889.889,0,0,1,0,.627,4.266,4.266,0,0,1-1.882,2.377,4.807,4.807,0,0,1-1.485.586,4.8,4.8,0,0,1-1.1-1.287,5.111,5.111,0,0,1-.627-1.568,4.7,4.7,0,0,1,1.213-1.048Zm-2.773,3.928a3.373,3.373,0,0,1-.52-2.162,2.089,2.089,0,0,1,.734-1.353,5.868,5.868,0,0,0,.875,2.864,5.787,5.787,0,0,0,2.121,2.1,2.7,2.7,0,0,1-3.21-1.452Z" transform="translate(-2.716 -23.963)"/>
        <path id="Path_377" data-name="Path 377" d="M1.743,141.233a5.608,5.608,0,0,0,.487.413c-.025.033-.058.058-.066.1a1.521,1.521,0,0,0,.437,1.642,3.263,3.263,0,0,0,2.278.908h0A4.483,4.483,0,0,0,8.064,142.8c.1.058.215.107.363.182a3.945,3.945,0,0,0,1.221.33h.066a.637.637,0,0,0,.066-1.271,2.456,2.456,0,0,1-.825-.223c-.05-.025-.091-.041-.124-.058a4.184,4.184,0,0,0,.561-2.154,3.26,3.26,0,0,0-1.048-2.335,1.538,1.538,0,0,0-1.089-.454,1.347,1.347,0,0,0-.578.124c-.041.016-.066.058-.1.083-.14-.157-.289-.314-.446-.462-1.494-1.4-3.788-1.906-4.935-1.147a.777.777,0,0,0-.751.206.769.769,0,0,0-.157.759,2.28,2.28,0,0,0-.281,1.254,5.448,5.448,0,0,0,1.733,3.6Zm6.371-1.584a3.261,3.261,0,0,1-.966,2.261,3.217,3.217,0,0,1-2.278,1.114h0a2.03,2.03,0,0,1-1.172-.363,5.766,5.766,0,0,0,2.517-1.617,5.748,5.748,0,0,0,1.452-2.608,2.057,2.057,0,0,1,.437,1.221Zm-6.7-2.665a.634.634,0,0,0,.165-.3.609.609,0,0,0,.281-.19c.363-.38,2.162-.165,3.4.99a4.873,4.873,0,0,1,.974,1.279,4.927,4.927,0,0,1-.941,1.395,4.892,4.892,0,0,1-1.362,1.023,4.8,4.8,0,0,1-1.32-.883,4.306,4.306,0,0,1-1.337-2.715.892.892,0,0,1,.14-.611Z" transform="translate(-0.008 -23.605)"/>
        <path id="Path_378" data-name="Path 378" d="M33.864,183.8a2.288,2.288,0,0,0-.635-1.122.729.729,0,0,0-.355-.66.777.777,0,0,0-.784,0c-1.3-.413-3.375.743-4.407,2.525a6.154,6.154,0,0,0-.289.569.554.554,0,0,0-.124-.05c-.033,0-.14-.008-.173-.008a1.535,1.535,0,0,0-1.32.809,3.593,3.593,0,0,0,.842,4.432c-.033.033-.066.058-.116.1a2.65,2.65,0,0,1-.726.446.641.641,0,0,0-.347.833.632.632,0,0,0,.586.4.592.592,0,0,0,.239-.05,3.8,3.8,0,0,0,1.073-.66,3.385,3.385,0,0,0,.3-.281,4.809,4.809,0,0,0,2.385.668,3.368,3.368,0,0,0,3.012-1.683,1.513,1.513,0,0,0-.05-1.7.444.444,0,0,0-.1-.074,5.959,5.959,0,0,0,.347-.536,5.469,5.469,0,0,0,.619-3.953Zm-5.075,1.378c.85-1.461,2.509-2.187,2.946-1.939a.7.7,0,0,0,.338.107.691.691,0,0,0,.248.239.926.926,0,0,1,.305.545,4.259,4.259,0,0,1-.5,2.987,4.815,4.815,0,0,1-1,1.213,4.9,4.9,0,0,1-1.609-.578,5.307,5.307,0,0,1-1.3-1.065,4.742,4.742,0,0,1,.561-1.51Zm-.528,4.778a2.7,2.7,0,0,1-1.51-3.177,5.812,5.812,0,0,0,2.154,2.08,5.722,5.722,0,0,0,2.872.817A2.72,2.72,0,0,1,28.261,189.956Z" transform="translate(-4.434 -31.792)"/>
        <path id="Path_379" data-name="Path 379" d="M20.241,194.2a.638.638,0,0,0-.842-.322,2.48,2.48,0,0,1-.817.206c-.066,0-.107.008-.149.008a4.24,4.24,0,0,0-.363-1.807,3.31,3.31,0,0,0-2.245-1.882,1.58,1.58,0,0,0-1.609.52.774.774,0,0,0-.05.124,5.228,5.228,0,0,0-.611-.19c-1.989-.5-4.242.19-4.869,1.4a.746.746,0,0,0-.33,1.279,2.258,2.258,0,0,0,.363,1.238,5.507,5.507,0,0,0,3.268,2.3,5.571,5.571,0,0,0,.627.116c0,.041-.017.083-.017.124a1.531,1.531,0,0,0,1.18,1.221,3.538,3.538,0,0,0,.825.107h0a3.974,3.974,0,0,0,3.656-3.276h.008a3.755,3.755,0,0,0,.4-.025,3.8,3.8,0,0,0,1.23-.314.638.638,0,0,0,.322-.842ZM9.819,194.13a.91.91,0,0,1-.182-.594.7.7,0,0,0,0-.347.631.631,0,0,0,.157-.305c.132-.512,1.807-1.2,3.441-.792a4.735,4.735,0,0,1,1.477.668,5.1,5.1,0,0,1-.14,1.659,5.19,5.19,0,0,1-.668,1.551,4.637,4.637,0,0,1-1.6-.124A4.324,4.324,0,0,1,9.81,194.13Zm7.229.908a2.747,2.747,0,0,1-2.426,2.344,1.794,1.794,0,0,1-.215-.008,5.9,5.9,0,0,0,1.411-2.641,5.8,5.8,0,0,0,0-2.987,2.084,2.084,0,0,1,1.1,1.081,3.405,3.405,0,0,1,.14,2.22Z" transform="translate(-1.424 -33.267)"/>
        <path id="Path_380" data-name="Path 380" d="M59.406,226.864h.05c2.352,0,4.143-1.518,4.167-3.524a1.5,1.5,0,0,0-.875-1.452c-.041-.017-.074,0-.116-.017a5.359,5.359,0,0,0,.041-.635,5.533,5.533,0,0,0-1.386-3.755,2.242,2.242,0,0,0-1.1-.668.767.767,0,0,0-.652-.413.778.778,0,0,0-.668.388c-1.337.272-2.583,2.294-2.616,4.357a5.6,5.6,0,0,0,.025.644.363.363,0,0,0-.132.017,1.494,1.494,0,0,0-.916,1.428,3.325,3.325,0,0,0,1.246,2.649,4.351,4.351,0,0,0,1.65.809c-.017.041-.025.083-.05.14a2.5,2.5,0,0,1-.413.743.642.642,0,0,0,.1.9.6.6,0,0,0,.4.14.625.625,0,0,0,.5-.239,3.758,3.758,0,0,0,.619-1.114c.058-.157.091-.272.124-.388Zm-.248-8.838h0a.6.6,0,0,0,.347-.074.708.708,0,0,0,.338.091.921.921,0,0,1,.528.33,4.254,4.254,0,0,1,1.023,2.847,4.465,4.465,0,0,1-.305,1.576,5.247,5.247,0,0,1-1.65.256h0a5.1,5.1,0,0,1-1.642-.289,4.609,4.609,0,0,1-.264-1.593c.025-1.683,1.122-3.128,1.626-3.128Zm-2.632,5.529a5.861,5.861,0,0,0,2.971.767,5.63,5.63,0,0,0,2.831-.693,2.684,2.684,0,0,1-2.864,1.964H59.4a3.377,3.377,0,0,1-2.1-.7,2.1,2.1,0,0,1-.767-1.337Z" transform="translate(-9.659 -37.82)"/>
        <path id="Path_381" data-name="Path 381" d="M53.591,233.855a2.788,2.788,0,0,1-.619.586c-.05.033-.083.058-.124.083a3.74,3.74,0,0,0-3.194-2.063,3.553,3.553,0,0,0-.883.116,1.508,1.508,0,0,0-1.155,1.238c0,.049.017.091.017.132a5.647,5.647,0,0,0-.627.132c-1.981.545-3.615,2.245-3.557,3.615a.746.746,0,0,0,.347,1.279,2.313,2.313,0,0,0,.924.9,5.054,5.054,0,0,0,2.484.6,5.667,5.667,0,0,0,1.494-.2c.206-.058.413-.124.6-.2.017.033.025.074.041.107a1.482,1.482,0,0,0,1.164.553,1.836,1.836,0,0,0,.462-.066,3.287,3.287,0,0,0,2.022-1.56,4.541,4.541,0,0,0,.338-3.4c.107-.058.206-.124.347-.215a3.7,3.7,0,0,0,.916-.875.636.636,0,1,0-1.015-.767Zm-5.215,5.191a4.291,4.291,0,0,1-3.012-.281,1.008,1.008,0,0,1-.454-.429.639.639,0,0,0-.165-.305.677.677,0,0,0-.008-.338c-.14-.512.99-1.931,2.616-2.377a4.677,4.677,0,0,1,1.6-.157,5.179,5.179,0,0,1,.7,1.527,5.055,5.055,0,0,1,.173,1.667A4.64,4.64,0,0,1,48.375,239.045Zm3.524-.569a1.99,1.99,0,0,1-.957.866,6.12,6.12,0,0,0-1.527-5.6,2.676,2.676,0,0,1,2.69,2.269A3.259,3.259,0,0,1,51.9,238.476Z" transform="translate(-7.557 -40.627)"/>
        <path id="Path_382" data-name="Path 382" d="M94.9,246.045c.429,0,.825-.025.924-.33a.409.409,0,0,0,.017-.14.241.241,0,0,1,.016-.074c.025-.3.041-.619-4.184-1.395.041-1.543-.05-4.646-1.923-5.851a2.17,2.17,0,0,0-1.164-.371,2.479,2.479,0,0,0-2.005,1.485c-.058.1-.14.223-.215.33-.182-.149-.272-.512-.429-1.634l-.107-.718c-.173-1.18-.536-3.639-3.045-4.349a3.252,3.252,0,0,0-.9-.132c-1.807,0-2.311,1.7-2.616,2.715-.107.363-.289.974-.479,1.081-.322-.264-.314-1.906-.305-2.616v-.512c-.017-3.342-1.576-5.265-4.275-5.265a6.586,6.586,0,0,0-.825.058,2.559,2.559,0,0,0-1.857.9c-.825,1.015-.644,2.492-.487,3.8a8.048,8.048,0,0,1,.1,1.395.842.842,0,0,1-.272.041c-.446,0-.924-.487-1.477-1.5a5.023,5.023,0,0,0-4.357-2.831A5.513,5.513,0,0,0,60.5,232.85a4.908,4.908,0,0,0,4.225,7.922c.165,0,.338,0,.5-.017.182-.008.347-.017.512-.017,1.279,0,1.749.347,2.014.916a8.541,8.541,0,0,1-1.188.652c-1.18.569-2.517,1.2-2.847,2.484a2.778,2.778,0,0,0,.569,2.319,5.508,5.508,0,0,0,4.448,2.41,6.1,6.1,0,0,0,4.052-1.708c.157-.149.322-.3.487-.454.677-.635,1.6-1.51,2.129-1.51a.454.454,0,0,1,.256.074,3.1,3.1,0,0,1-.314.99,3.509,3.509,0,0,0-.3,2.822,2.944,2.944,0,0,0,1.89,1.494,5.113,5.113,0,0,0,1.675.289,5.349,5.349,0,0,0,3.945-2.047l.1-.107c.206-.215.4-.429.569-.627.594-.677.924-1.032,1.271-1.032H84.5c.025.116.049.272.066.4.116.759.355,2.608,2.6,2.377,1.807-.19,3.227-1.791,4.225-4.737a29.884,29.884,0,0,0,3.5.33Zm-7.922,2.5a1.348,1.348,0,0,1-.322-.008,2.435,2.435,0,0,1-.182-.743c-.1-.644-.256-1.716-1.337-1.948a2.767,2.767,0,0,0-.627-.074c-1.221,0-1.939.809-2.7,1.675-.165.182-.338.38-.536.586l-.107.124a3.489,3.489,0,0,1-2.533,1.428,3.416,3.416,0,0,1-1.065-.19,1.346,1.346,0,0,1-.767-.47c-.116-.248.132-.833.322-1.3.347-.85.933-2.278-.305-3.218a2.322,2.322,0,0,0-1.411-.487c-1.3,0-2.385,1.032-3.441,2.03-.157.149-.314.3-.47.437a4.181,4.181,0,0,1-2.756,1.2,3.71,3.71,0,0,1-2.9-1.626c-.124-.173-.322-.5-.264-.7.107-.421,1.147-.916,1.832-1.246,1.18-.561,2.8-1.337,2.22-2.88a3.751,3.751,0,0,0-3.862-2.311,5.816,5.816,0,0,0-.644.025,3.044,3.044,0,0,1-3-4.935,3.7,3.7,0,0,1,2.946-1.873,3.12,3.12,0,0,1,2.682,1.849c.586,1.065,1.543,2.492,3.152,2.492a3.082,3.082,0,0,0,1.155-.239c1.263-.52,1.081-2.014.916-3.334-.1-.833-.239-1.972.074-2.36.033-.041.14-.165.586-.206a4,4,0,0,1,.611-.041c.644,0,2.352,0,2.368,3.367v.5c0,1.444-.017,3.086.866,3.969a1.98,1.98,0,0,0,1.568.553c1.4-.107,1.807-1.452,2.1-2.434.429-1.444.6-1.444,1.164-1.287,1.221.347,1.485,1.518,1.675,2.789l.107.71c.2,1.444.413,2.938,2.137,3.326a1.236,1.236,0,0,0,.305.033h0c.891,0,1.362-.751,1.708-1.3.132-.206.347-.545.38-.594a.45.45,0,0,1,.149.074c.4.264,1.048,1.122,1.04,3.912-.462-.074-.949-.157-1.485-.239-7.064-1.238-15.993-4.77-18.931-5.925a7.665,7.665,0,0,0-1.007-.363.325.325,0,0,0-.239.107h0a.581.581,0,0,0-.058.083.22.22,0,0,0-.025.1.409.409,0,0,0,.017.14c.206.594,11.76,6.1,19.921,7.543.536.083,1.04.165,1.518.239-.875,2.426-1.832,3.037-2.5,3.111Z" transform="translate(-10.404 -39.894)"/>
        <path id="Path_383" data-name="Path 383" d="M32.558,84.948l.124.182.017.107H33c.14,0,.289,0,1.2-.99a9.713,9.713,0,0,0,4.291,1.37,3.467,3.467,0,0,0,1.725-.421,2.027,2.027,0,0,0,1-1.213,2.718,2.718,0,0,0-.536-2.071c-.058-.091-.124-.206-.182-.314a3.571,3.571,0,0,1,1.485.347l.792.264a7.155,7.155,0,0,0,2.319.47,3.6,3.6,0,0,0,2.806-1.23,2.518,2.518,0,0,0,.8-1.807,3.641,3.641,0,0,0-1.461-2.418,4.284,4.284,0,0,1-.718-.792c.025-.033.058-.041.157-.041a7.035,7.035,0,0,1,2.344.9l.355.173c3.326,1.584,5.942.677,6.858-2.179A2.611,2.611,0,0,0,56.2,73.2c-.553-1.164-1.89-1.626-3.078-2.03a6.858,6.858,0,0,1-1.23-.5c.058-.4.305-.9,1.989-.908a4.976,4.976,0,0,0,4.365-2.377,5.4,5.4,0,0,0-.3-5.364,4.882,4.882,0,0,0-9.036.611c-.71,1.551-1.23,1.865-1.832,1.873a8.431,8.431,0,0,1-.05-1.337c.008-1.246.017-2.665-.842-3.532a2.321,2.321,0,0,0-1.7-.66,3.54,3.54,0,0,0-.685.066,5.8,5.8,0,0,0-3.986,2.591,5.506,5.506,0,0,0-.4,4.514c.066.239.14.5.223.751.4,1.3.685,2.385.206,2.6-.157-.041-.52-.462-.743-.718a3.367,3.367,0,0,0-2.459-1.527,3.03,3.03,0,0,0-2.08.99,4.983,4.983,0,0,0-.9,5.752l.05.132c.091.239.173.454.256.66.4,1.007.487,1.337.347,1.617-.107-.033-.248-.074-.355-.116a3.928,3.928,0,0,0-1.3-.272A2.048,2.048,0,0,0,30.7,77.488c-.677,1.7.14,3.705,2.41,5.975-.693,1.131-.594,1.353-.528,1.494Zm-.1-6.767a.639.639,0,0,1,.19-.272,2.679,2.679,0,0,1,.685.173,3.632,3.632,0,0,0,1.122.239,1.486,1.486,0,0,0,1.2-.561c1.023-1.279.536-2.509.066-3.705-.074-.2-.157-.4-.239-.627l-.058-.149c-.454-1.188-.784-2.459.446-3.705.429-.4.668-.446.743-.446.264,0,.677.479,1.007.858a3.02,3.02,0,0,0,2.17,1.378,1.886,1.886,0,0,0,.767-.165c2.1-.875,1.362-3.3.875-4.9-.074-.239-.149-.479-.215-.726a3.682,3.682,0,0,1,.215-3,3.952,3.952,0,0,1,2.7-1.692,1.653,1.653,0,0,1,.33-.033c.256,0,.322.066.347.091.305.305.3,1.428.289,2.17-.008,1.3-.025,3.095,1.576,3.243,2.2.223,3.235-1.395,3.961-2.987a3.274,3.274,0,0,1,2.888-2.228,3.232,3.232,0,0,1,2.74,1.791,3.558,3.558,0,0,1,.3,3.482,3.077,3.077,0,0,1-2.732,1.4c-3.045.017-3.788,1.56-3.879,2.864-.074,1.362,1.37,1.865,2.525,2.261.743.256,1.766.611,1.972,1.048.025.05.1.206-.058.644-.487,1.51-1.37,1.683-2,1.683a5.415,5.415,0,0,1-2.212-.6l-.322-.165a7.858,7.858,0,0,0-3.21-1.106,2.012,2.012,0,0,0-1.915,1.188c-.578,1.279.47,2.278,1.164,2.938.347.33.858.817.866,1.081a.9.9,0,0,1-.3.47,1.75,1.75,0,0,1-1.4.619,5.7,5.7,0,0,1-1.708-.371l-.784-.264a6.328,6.328,0,0,0-1.981-.462,2.193,2.193,0,0,0-1.783.866c-.693.842-.132,1.783.2,2.344a3.26,3.26,0,0,1,.314.6.441.441,0,0,1-.083.058,1.6,1.6,0,0,1-.767.165,7.489,7.489,0,0,1-3-.933c.677-.8,1.56-1.857,2.7-3.26A108.175,108.175,0,0,1,52.157,66.034l.074-.058q1.164-.817,1.172-1v-.124l-.165-.223h-.157c-.124,0-.19,0-1.312.891-2.575,1.824-10.39,7.336-14.9,12.849-1.188,1.461-2.055,2.575-2.69,3.449-1.948-2.038-1.931-3.169-1.733-3.672Z" transform="translate(-5.332 -10.306)"/>
        <path id="Path_384" data-name="Path 384" d="M41.046,224.723h0c1.865,0,3.639-1.395,4.555-2.228a3.437,3.437,0,0,0,1.444.718.412.412,0,0,0,.371-.2.139.139,0,0,1,.017-.041.346.346,0,0,0,.091-.132c.058-.173.083-.3-1-1.378.677-1.1,2.509-4.159,1.3-6.222a1.88,1.88,0,0,0-1.692-1.1,3.351,3.351,0,0,0-1.543.5c-.083.041-.182.1-.272.14-.058-.215.041-.578.4-1.51l.264-.718c.38-1,1.263-3.342-.561-5.125a2.451,2.451,0,0,0-1.824-.924,3.713,3.713,0,0,0-2.418,1.353c-.256.248-.685.668-.842.668-.2-.33.685-1.915.974-2.434l.19-.347a5.6,5.6,0,0,0,.668-4.58,4.114,4.114,0,0,0-2.533-2.368,3.076,3.076,0,0,0-1.164-.248c-1.832,0-2.558,1.84-3.086,3.177a7.421,7.421,0,0,1-.553,1.213c-.38-.083-.866-.363-.891-1.939a5.053,5.053,0,0,0-1.271-3.846c-1.444-1.51-3.978-1.758-6.272-.578a5.009,5.009,0,0,0-2.9,4.4,5.379,5.379,0,0,0,3.152,4.7c1.634.726,1.865,1.271,1.824,1.84a9.772,9.772,0,0,1-1.329,0c-.347-.017-.7-.033-1.04-.033a3.436,3.436,0,0,0-2.69.9,2.652,2.652,0,0,0-.528,2.179c.446,3.045,2.434,4.935,5.2,4.935a6.777,6.777,0,0,0,1.7-.223c.248-.058.5-.124.751-.19a8.979,8.979,0,0,1,2.005-.38c.5,0,.545.14.6.272a3.086,3.086,0,0,1-.743.7,3.511,3.511,0,0,0-1.617,2.269,3.055,3.055,0,0,0,.866,2.269,4.5,4.5,0,0,0,3.425,1.551,7.155,7.155,0,0,0,2.286-.446l.182-.058c.248-.083.479-.165.693-.239a4.922,4.922,0,0,1,1.312-.355.414.414,0,0,1,.281.083c-.033.116-.1.272-.14.388-.264.677-.966,2.476,1.106,3.342a3.56,3.56,0,0,0,1.254.231Zm-2.492-5.958a5.77,5.77,0,0,0-1.948.47q-.309.111-.644.223l-.2.066a5.319,5.319,0,0,1-1.683.347,2.6,2.6,0,0,1-1.981-.9,1.437,1.437,0,0,1-.4-.809c.033-.281.52-.668.908-.974.743-.594,1.873-1.485,1.329-2.888a2.331,2.331,0,0,0-2.385-1.5,10.042,10.042,0,0,0-2.492.446c-.239.066-.479.124-.734.182a4.735,4.735,0,0,1-1.238.165c-1.824,0-3-1.172-3.309-3.284a.983.983,0,0,1,.066-.66c.083-.091.347-.248,1.254-.248.314,0,.635.017.949.033.33.016.644.033.941.033,1.436,0,2.228-.5,2.352-1.452.371-2.294-1.353-3.383-2.855-4.052a3.457,3.457,0,0,1-2.071-2.971,3.1,3.1,0,0,1,1.857-2.707c1.543-.792,3.144-.71,4.011.2a3.269,3.269,0,0,1,.743,2.5c.041,2.352.957,3.656,2.773,3.9h.149c1.263,0,1.774-1.3,2.22-2.443.347-.875.776-1.964,1.3-1.964a1.223,1.223,0,0,1,.446.107,2.313,2.313,0,0,1,1.461,1.271,3.856,3.856,0,0,1-.561,3l-.173.322c-.7,1.263-1.5,2.69-1.139,3.9a2,2,0,0,0,1.015,1.2,1.79,1.79,0,0,0,.817.206,3.328,3.328,0,0,0,2.17-1.238c.338-.322.842-.817,1.089-.817.066,0,.206.074.446.338.9.875.586,1.981.149,3.128l-.264.718c-.487,1.287-.99,2.616.223,3.8a1.464,1.464,0,0,0,.99.388h0a2.957,2.957,0,0,0,1.345-.446c.2-.107.528-.281.578-.305a.549.549,0,0,1,.107.157c.19.322.446,1.337-1.056,3.912-.759-.718-1.741-1.626-3.037-2.814-3.623-3.218-8.046-8.285-13.146-15.06q-.569-.759-.743-.759a.278.278,0,0,0-.116.025.347.347,0,0,0-.206.248c-.116.619,6.915,11.355,13.039,16.81,1.221,1.122,2.269,2.03,3.144,2.748a5.188,5.188,0,0,1-3,1.5,1.488,1.488,0,0,1-.536-.091,1.663,1.663,0,0,1-.248-.132,2.541,2.541,0,0,1,.215-.743c.231-.6.627-1.609-.157-2.335a2.477,2.477,0,0,0-1.758-.743Z" transform="translate(-3.827 -34.226)"/>
        <path id="Path_385" data-name="Path 385" d="M9.6,174.466q.433.087.817.149c1.007.173,1.337.272,1.494.52-.083.083-.2.173-.281.248-.545.454-1.989,1.675-.66,3.416a4.2,4.2,0,0,0,3.557,1.452,11.288,11.288,0,0,0,2.616-.347c.685,1.452.916,1.469,1.089,1.469a.363.363,0,0,0,.289-.14l.132-.074c.083-.116.2-.3-.215-1.766,1.254-.71,4.019-2.418,4.077-4.7a2.019,2.019,0,0,0-.52-1.485,2.765,2.765,0,0,0-2.055-.627c-.107,0-.239,0-.355-.008.041-.215.305-.479,1.114-1.155l.553-.462c.9-.751,2.781-2.311,2.1-4.795a2.354,2.354,0,0,0-2.352-1.915,6.443,6.443,0,0,0-1.617.281,4.753,4.753,0,0,1-1.007.2c-.074,0-.107-.008-.116-.033.066-.4,1.436-1.23,2.022-1.576l.421-.256a5.436,5.436,0,0,0,2.847-3.6,4.122,4.122,0,0,0-1.131-3.367,2.461,2.461,0,0,0-2.022-1.114,5.414,5.414,0,0,0-3.111,1.568,9.408,9.408,0,0,1-1.081.792c-.314-.239-.569-.635.314-2.17a4.872,4.872,0,0,0,.281-4.894A5.518,5.518,0,0,0,12,147.44h-.231a4.952,4.952,0,0,0-4.531,2.509,5.33,5.33,0,0,0,.6,5.529c.982,1.395.842,2.063.561,2.525a7.832,7.832,0,0,1-1.147-.66,5.854,5.854,0,0,0-2.9-1.2,2.482,2.482,0,0,0-2.319,1.791,5.735,5.735,0,0,0,.124,4.638,5.789,5.789,0,0,0,3.664,2.831c.206.058.421.116.635.173,1.386.371,2.443.71,2.418,1.221a3.271,3.271,0,0,1-.974.239,3.486,3.486,0,0,0-2.525,1.2,2.921,2.921,0,0,0-.289,2.36,4.888,4.888,0,0,0,4.349,3.813l.14.033Zm-2.624-4.258c-.132-.611-.033-.817,0-.866.149-.215.784-.314,1.246-.388.891-.14,2.393-.388,2.55-1.923.19-2.2-2.113-2.822-3.8-3.276-.206-.058-.413-.107-.611-.173a3.879,3.879,0,0,1-2.492-1.865,3.809,3.809,0,0,1-.05-3.062c.248-.578.454-.578.545-.578a4.846,4.846,0,0,1,1.873.9,4.7,4.7,0,0,0,2.311.99,1.621,1.621,0,0,0,1.3-.644c1.535-2.129.058-4.233-.421-4.91a3.409,3.409,0,0,1-.479-3.548,3.038,3.038,0,0,1,2.839-1.494h.165a3.644,3.644,0,0,1,3.177,1.642,3.016,3.016,0,0,1-.256,3.02c-.462.809-1.873,3.26.347,4.77a1.52,1.52,0,0,0,.916.3h0a4.136,4.136,0,0,0,2.352-1.238c.6-.487,1.419-1.147,1.906-1.147.074,0,.239,0,.528.4a2.415,2.415,0,0,1,.734,1.882,3.75,3.75,0,0,1-1.972,2.261l-.4.248c-1.246.759-2.666,1.609-2.9,2.847a1.979,1.979,0,0,0,2,2.319,5.858,5.858,0,0,0,1.494-.264,5.064,5.064,0,0,1,1.131-.215c.215,0,.363,0,.5.512.33,1.188-.512,2.005-1.477,2.814l-.545.454c-1.1.908-2.228,1.849-1.675,3.5.363,1.023,1.452,1.04,2.1,1.048a2.862,2.862,0,0,1,.677.05v.107c-.008.47-.4,1.444-2.748,2.864-.322-.974-.751-2.212-1.329-3.8C14.317,167.46,13.08,158.8,12.543,155.1q-.289-2-.594-2l-.264.14c-.305.429.355,12.857,3.194,21.035.594,1.642,1.081,2.9,1.469,3.87a9.254,9.254,0,0,1-1.849.215,2.462,2.462,0,0,1-2.038-.7.736.736,0,0,1-.149-.264,2.26,2.26,0,0,1,.528-.528c.487-.413,1.312-1.106.949-2.129-.512-1.535-1.807-1.766-3.062-1.981-.239-.041-.5-.083-.759-.14l-.157-.033c-1.23-.239-2.467-.619-2.855-2.352Z" transform="translate(-0.287 -25.768)"/>
        <path id="Path_386" data-name="Path 386" d="M8.772,120.8l.107.091c.206.173.413.338.6.487.825.668,1.073.908,1.081,1.213-.116.033-.264.058-.38.083-.7.132-2.55.487-2.269,2.641.223,1.766,1.865,3.095,4.861,3.986-.05,1.164.116,1.378.2,1.477a.449.449,0,0,0,.347.149.414.414,0,0,0,.1.017c.215,0,.355-.025.685-1.428,1.37,0,4.646-.124,5.884-2.121a1.963,1.963,0,0,0,.289-1.551A2.674,2.674,0,0,0,18.8,124.3c-.091-.05-.2-.116-.289-.173.14-.165.5-.264,1.477-.454l.751-.149c1.065-.2,3.565-.668,4.151-3.177.6-2.517-1.626-3.086-2.69-3.359a4.412,4.412,0,0,1-1.015-.338c0-.017,0-.017.008-.025.322-.347,1.816-.4,2.624-.437l.388-.017a5.5,5.5,0,0,0,4.184-1.766,4.24,4.24,0,0,0,.743-3.466,2.6,2.6,0,0,0-2.847-2.311,10.483,10.483,0,0,0-1.865.223,8.1,8.1,0,0,1-1.221.157h-.1c-.132-.38-.14-.982,1.238-1.758a4.874,4.874,0,0,0,2.69-4.118,5.493,5.493,0,0,0-2.88-4.63,4.945,4.945,0,0,0-6.28.611,5.589,5.589,0,0,0-1.329,4.324c.14,1.708-.091,2.245-.652,2.542a9.587,9.587,0,0,1-.693-1.139c-.668-1.23-1.5-2.765-3.045-2.765a2.8,2.8,0,0,0-1.766.718,5.565,5.565,0,0,0-2.269,4.077,5.679,5.679,0,0,0,1.865,4.283c.173.182.363.363.553.545.966.933,1.741,1.741,1.378,2.162a3.6,3.6,0,0,1-.957-.272,5.276,5.276,0,0,0-1.749-.413c-.809,0-1.89.371-2.418,2.17a4.94,4.94,0,0,0,1.981,5.463Zm-.149-4.927c.231-.792.47-.792.586-.792a3.792,3.792,0,0,1,1.1.3,4.786,4.786,0,0,0,1.609.388h0a1.856,1.856,0,0,0,1.543-.751c1.428-1.783-.388-3.54-1.584-4.7-.182-.173-.355-.347-.536-.528a3.81,3.81,0,0,1-1.3-2.839,3.755,3.755,0,0,1,1.568-2.682,1.03,1.03,0,0,1,.561-.289c.4,0,1.007,1.106,1.37,1.766.586,1.081,1.2,2.2,2.311,2.2h0a1.579,1.579,0,0,0,.611-.124c2.3-.908,2.113-3.276,2.014-4.547a3.7,3.7,0,0,1,.833-2.872,3.037,3.037,0,0,1,3.879-.272,3.619,3.619,0,0,1,1.964,2.963,2.974,2.974,0,0,1-1.725,2.484c-2.707,1.535-2.4,3.392-1.956,4.4a1.779,1.779,0,0,0,1.766.933,9.122,9.122,0,0,0,1.551-.19,9.728,9.728,0,0,1,1.535-.19c.767,0,.883.223.957.7a2.461,2.461,0,0,1-.347,1.972,3.832,3.832,0,0,1-2.789,1.048l-.363.017c-1.452.058-3.1.116-3.961,1.048a1.993,1.993,0,0,0-.512,1.5c.116,1.4,1.518,1.758,2.451,2,1.469.38,1.436.52,1.3,1.073-.281,1.2-1.411,1.51-2.641,1.733l-.767.149c-1.362.264-2.773.536-3.095,2.2-.2,1.081.743,1.626,1.312,1.956a3.378,3.378,0,0,1,.553.363.763.763,0,0,1-.041.083c-.256.421-1.106,1.1-3.837,1.2.215-1.048.479-2.418.817-4.225,1.122-6.453,4.308-14.549,5.669-18q.776-1.964.569-2.162a.356.356,0,0,0-.2-.066c-.767,0-6.321,12-7.708,19.9-.355,1.865-.569,3.268-.71,4.332-2.566-.817-3.078-1.766-3.144-2.286a.671.671,0,0,1,0-.305,2.389,2.389,0,0,1,.726-.215c.627-.124,1.683-.322,1.882-1.395.314-1.617-.734-2.451-1.741-3.268-.182-.14-.363-.3-.561-.462l-.116-.1c-.966-.809-1.873-1.749-1.378-3.458Z" transform="translate(-1.154 -17.069)"/>
        <path id="Path_387" data-name="Path 387" d="M203.044,90.768s-.05.066-.083.116a2.735,2.735,0,0,1-.6.594.636.636,0,0,0-.165.883.628.628,0,0,0,.528.272.611.611,0,0,0,.363-.116,3.714,3.714,0,0,0,.908-.891c.1-.132.165-.239.231-.338a5.06,5.06,0,0,0,1.51.239,3.517,3.517,0,0,0,3.54-2.4,1.524,1.524,0,0,0-.421-1.642.619.619,0,0,0-.107-.05c.083-.2.157-.4.223-.6a5.507,5.507,0,0,0-.256-3.994,2.288,2.288,0,0,0-.858-.957.746.746,0,0,0-.5-.569.779.779,0,0,0-.767.173c-1.353-.107-3.128,1.461-3.747,3.425a5.668,5.668,0,0,0-.157.619c-.041,0-.083-.025-.124-.025a1.509,1.509,0,0,0-1.287,1.106,3.356,3.356,0,0,0,.437,2.9,4.192,4.192,0,0,0,1.353,1.246Zm1-5.463c.512-1.617,1.981-2.682,2.467-2.533a.722.722,0,0,0,.347.025.757.757,0,0,0,.3.182.914.914,0,0,1,.413.462,4.261,4.261,0,0,1,.173,3.02A4.56,4.56,0,0,1,207,87.88h-.149a5.06,5.06,0,0,1-1.51-.239,4.974,4.974,0,0,1-1.5-.759,4.638,4.638,0,0,1,.215-1.593ZM202.4,87.311a5.739,5.739,0,0,0,2.55,1.56,6.584,6.584,0,0,0,1.89.3,4.384,4.384,0,0,0,1.089-.124,2.3,2.3,0,0,1-2.212,1.221,3.789,3.789,0,0,1-1.155-.182,3.377,3.377,0,0,1-1.816-1.271,2.08,2.08,0,0,1-.355-1.5Z" transform="translate(-35.157 -14.203)"/>
        <path id="Path_388" data-name="Path 388" d="M195.407,97.709c.116-.025.231-.058.4-.107a3.936,3.936,0,0,0,1.131-.569.643.643,0,0,0,.14-.891.634.634,0,0,0-.891-.132,2.869,2.869,0,0,1-.759.388,1.377,1.377,0,0,1-.149.041,3.618,3.618,0,0,0-3.4-3.029,1.486,1.486,0,0,0-1.4.866.641.641,0,0,0-.017.132c-.215-.025-.421-.041-.644-.05-2.071-.041-4.1,1.122-4.44,2.451a.767.767,0,0,0-.413.652.758.758,0,0,0,.38.66,2.32,2.32,0,0,0,.635,1.131,5.464,5.464,0,0,0,3.7,1.518h.14q.248,0,.5-.025a.321.321,0,0,0,.016.124,1.507,1.507,0,0,0,1.419.924h.091c2.022,0,3.524-1.716,3.582-4.085Zm-5.719,1.783a4.25,4.25,0,0,1-2.806-1.131.869.869,0,0,1-.305-.536.707.707,0,0,0-.074-.338.673.673,0,0,0,.083-.33c.017-.528,1.51-1.568,3.185-1.535a4.669,4.669,0,0,1,1.584.322,5.085,5.085,0,0,1,.231,1.65,5.163,5.163,0,0,1-.314,1.667,4.523,4.523,0,0,1-1.584.231Zm2.385,1.015a6.141,6.141,0,0,0,.132-5.793,3.106,3.106,0,0,1-.132,5.8Z" transform="translate(-32.332 -16.325)"/>
        <path id="Path_389" data-name="Path 389" d="M205.238,145.338a3.25,3.25,0,0,0,1.708.487,4.235,4.235,0,0,0,3.515-2.2c.116.033.231.066.4.1a4.011,4.011,0,0,0,.825.091,3.777,3.777,0,0,0,.437-.025.64.64,0,0,0-.149-1.271,2.691,2.691,0,0,1-.85-.041c-.066-.016-.107-.025-.149-.033a4.243,4.243,0,0,0,.182-1.832,3.343,3.343,0,0,0-1.593-2.459,1.6,1.6,0,0,0-.842-.248,1.394,1.394,0,0,0-.85.272.606.606,0,0,0-.083.107c-.173-.124-.347-.248-.528-.363-1.758-1.056-4.11-1.065-5.067-.074a.756.756,0,0,0-.685.363.767.767,0,0,0,0,.767,2.291,2.291,0,0,0-.008,1.3,5.508,5.508,0,0,0,2.459,3.161c.182.107.371.206.561.3a.621.621,0,0,0-.05.107,1.512,1.512,0,0,0,.776,1.51Zm4.663-4.564a3.385,3.385,0,0,1-.52,2.162,2.712,2.712,0,0,1-3.21,1.452,5.664,5.664,0,0,0,2.121-2.1,5.868,5.868,0,0,0,.875-2.864,2.089,2.089,0,0,1,.734,1.353Zm-7.163-.817a.915.915,0,0,1,0-.619.774.774,0,0,0,.107-.33.63.63,0,0,0,.239-.248c.272-.446,2.08-.619,3.532.248a4.878,4.878,0,0,1,1.221,1.048,5.282,5.282,0,0,1-.619,1.568,4.947,4.947,0,0,1-1.106,1.287,4.539,4.539,0,0,1-1.485-.586,4.276,4.276,0,0,1-1.882-2.377Z" transform="translate(-35.205 -23.963)"/>
        <path id="Path_390" data-name="Path 390" d="M221.811,137.013a.381.381,0,0,0-.1-.083,1.408,1.408,0,0,0-.578-.124,1.559,1.559,0,0,0-1.081.454A3.3,3.3,0,0,0,219,139.6a4.226,4.226,0,0,0,.561,2.154c-.041.017-.074.033-.132.058a2.793,2.793,0,0,1-.817.223.637.637,0,0,0,.066,1.271h.066a3.731,3.731,0,0,0,1.221-.33,3.943,3.943,0,0,0,.371-.182,4.483,4.483,0,0,0,3.185,1.494,3.248,3.248,0,0,0,2.278-.908,1.523,1.523,0,0,0,.437-1.642,1.031,1.031,0,0,0-.066-.1c.165-.132.33-.264.487-.413a5.534,5.534,0,0,0,1.741-3.606,2.28,2.28,0,0,0-.281-1.254.767.767,0,0,0-.149-.743.792.792,0,0,0-.751-.223c-1.131-.767-3.441-.264-4.951,1.147-.157.149-.305.305-.446.462Zm-.578,4.885a3.261,3.261,0,0,1-.966-2.261,2.033,2.033,0,0,1,.437-1.213,6.143,6.143,0,0,0,3.978,4.217,2.729,2.729,0,0,1-3.449-.743Zm5.273-5.43a.748.748,0,0,0,.3.206.723.723,0,0,0,.173.305.9.9,0,0,1,.132.611,4.264,4.264,0,0,1-1.337,2.715,4.722,4.722,0,0,1-1.329.883,4.842,4.842,0,0,1-1.345-1.023,4.951,4.951,0,0,1-.941-1.4,4.58,4.58,0,0,1,.974-1.279c1.23-1.155,3.037-1.37,3.375-1.007Z" transform="translate(-38.112 -23.602)"/>
        <path id="Path_391" data-name="Path 391" d="M202.969,185.851a1.518,1.518,0,0,0-1.32-.809,1.221,1.221,0,0,0-.173.008c-.05,0-.083.033-.124.05-.091-.19-.182-.38-.289-.569-1.032-1.774-3.078-2.913-4.4-2.525a.742.742,0,0,0-1.139.66,2.326,2.326,0,0,0-.635,1.122,5.511,5.511,0,0,0,.619,3.953,5.964,5.964,0,0,0,.347.536.772.772,0,0,0-.1.074,1.5,1.5,0,0,0-.049,1.692,3.365,3.365,0,0,0,3.02,1.683,4.809,4.809,0,0,0,2.385-.668c.083.083.173.173.3.281a4.03,4.03,0,0,0,1.073.668.654.654,0,0,0,.239.05.632.632,0,0,0,.586-.4.647.647,0,0,0-.347-.833,2.65,2.65,0,0,1-.726-.446c-.05-.041-.083-.066-.116-.1a3.593,3.593,0,0,0,.842-4.432Zm-6.858-1.725a.926.926,0,0,1,.305-.545.749.749,0,0,0,.248-.231.66.66,0,0,0,.33-.1c.446-.256,2.121.462,2.963,1.923a4.742,4.742,0,0,1,.561,1.51,5.1,5.1,0,0,1-1.3,1.065,4.9,4.9,0,0,1-1.609.578,4.814,4.814,0,0,1-1-1.213,4.254,4.254,0,0,1-.5-2.987Zm4.374,5.826a3.609,3.609,0,0,1-1.766.512,2.136,2.136,0,0,1-1.741-.792,6.125,6.125,0,0,0,5.017-2.9A2.7,2.7,0,0,1,200.486,189.953Z" transform="translate(-34.043 -31.789)"/>
        <path id="Path_392" data-name="Path 392" d="M219.31,192.274c-.611-1.213-2.872-1.906-4.877-1.411a5.233,5.233,0,0,0-.611.19.775.775,0,0,0-.05-.124,1.565,1.565,0,0,0-1.609-.52,3.352,3.352,0,0,0-2.245,1.882,4.367,4.367,0,0,0-.363,1.807,1,1,0,0,1-.149-.008,2.43,2.43,0,0,1-.817-.206.637.637,0,0,0-.52,1.164,3.651,3.651,0,0,0,1.23.314,4.038,4.038,0,0,0,.4.025h.008a3.972,3.972,0,0,0,3.656,3.276,3.148,3.148,0,0,0,.825-.107,1.521,1.521,0,0,0,1.188-1.221.634.634,0,0,0-.017-.124c.206-.033.421-.066.627-.116a5.491,5.491,0,0,0,3.276-2.3,2.344,2.344,0,0,0,.371-1.238.752.752,0,0,0,.231-.718.774.774,0,0,0-.553-.561Zm-8.368,2.765a3.278,3.278,0,0,1,.14-2.212,2.083,2.083,0,0,1,1.1-1.081,6.141,6.141,0,0,0,1.411,5.628c-1.2.132-2.278-.833-2.649-2.327Zm7.229-.9a4.26,4.26,0,0,1-2.492,1.716,4.575,4.575,0,0,1-1.593.124,4.981,4.981,0,0,1-.677-1.551,5.1,5.1,0,0,1-.14-1.659,4.734,4.734,0,0,1,1.477-.668c1.642-.4,3.317.281,3.441.776a.746.746,0,0,0,.157.314.7.7,0,0,0,0,.347.9.9,0,0,1-.182.594Z" transform="translate(-36.305 -33.269)"/>
        <path id="Path_393" data-name="Path 393" d="M170.717,226.821c-.025-.058-.033-.1-.05-.14a3.592,3.592,0,0,0,2.9-3.458,1.494,1.494,0,0,0-.916-1.428c-.041-.016-.091,0-.132-.016q.025-.322.025-.644c-.033-2.055-1.271-4.06-2.608-4.349a.781.781,0,0,0-.644-.4.828.828,0,0,0-.668.4,2.3,2.3,0,0,0-1.106.668,5.455,5.455,0,0,0-1.386,3.755,5.361,5.361,0,0,0,.041.635.262.262,0,0,0-.116.017,1.507,1.507,0,0,0-.875,1.452c.025,2.014,1.816,3.532,4.167,3.532h.049c.033.116.066.231.124.388a3.714,3.714,0,0,0,.619,1.106.637.637,0,0,0,.5.239.64.64,0,0,0,.5-1.04,2.5,2.5,0,0,1-.413-.743Zm-2.286-8.459a.972.972,0,0,1,.528-.33.707.707,0,0,0,.338-.083.694.694,0,0,0,.305.074h.033c.528,0,1.617,1.444,1.65,3.128a4.777,4.777,0,0,1-.264,1.593,5.384,5.384,0,0,1-1.7.3,5.259,5.259,0,0,1-1.6-.248,4.7,4.7,0,0,1-.305-1.584,4.3,4.3,0,0,1,1.023-2.847Zm-1.956,5.265a5.877,5.877,0,0,0,2.9.693h0a5.726,5.726,0,0,0,2.888-.767c-.165,1.18-1.312,2.014-2.872,2.038h-.058A2.676,2.676,0,0,1,166.476,223.627Z" transform="translate(-28.875 -37.818)"/>
        <path id="Path_394" data-name="Path 394" d="M181.116,234.086a5.28,5.28,0,0,0-.627-.132c0-.041.025-.083.017-.132a1.5,1.5,0,0,0-1.147-1.238,3.3,3.3,0,0,0-.883-.124,3.723,3.723,0,0,0-3.194,2.063c-.033-.025-.066-.05-.116-.083a2.612,2.612,0,0,1-.619-.586.636.636,0,1,0-1.015.767,3.891,3.891,0,0,0,.924.875c.14.091.239.157.347.215a4.532,4.532,0,0,0,.338,3.4,3.258,3.258,0,0,0,2.022,1.56,1.786,1.786,0,0,0,.462.066,1.455,1.455,0,0,0,1.164-.553.572.572,0,0,0,.041-.107c.2.074.4.14.6.2a5.666,5.666,0,0,0,1.494.2,5.054,5.054,0,0,0,2.484-.6,2.313,2.313,0,0,0,.924-.9.77.77,0,0,0,.561-.528.787.787,0,0,0-.206-.743c.066-1.362-1.576-3.07-3.565-3.615Zm-3.92,5.265a1.99,1.99,0,0,1-.957-.866,3.276,3.276,0,0,1-.206-2.467,2.765,2.765,0,0,1,2.443-2.286,1.249,1.249,0,0,1,.248.017,6.12,6.12,0,0,0-1.527,5.6Zm6.2-1.32a.639.639,0,0,0-.165.305c-.025.1-.157.264-.454.437a4.247,4.247,0,0,1-3.012.281,4.634,4.634,0,0,1-1.452-.693,5.056,5.056,0,0,1,.173-1.667,5.361,5.361,0,0,1,.693-1.535,4.447,4.447,0,0,1,1.6.157c1.634.446,2.756,1.865,2.624,2.36a.659.659,0,0,0-.017.355Z" transform="translate(-30.312 -40.627)"/>
        <path id="Path_395" data-name="Path 395" d="M157.84,230.116a5.016,5.016,0,0,0-4.357,2.839c-.545,1.007-1.032,1.494-1.469,1.494a1.15,1.15,0,0,1-.272-.041,8.157,8.157,0,0,1,.1-1.395c.165-1.3.347-2.781-.487-3.8a2.541,2.541,0,0,0-1.807-.9c-3.218-.437-5.133,1.51-5.149,5.2v.512c0,.7.008,2.352-.355,2.616a3.336,3.336,0,0,1-.437-1.081c-.305-1.015-.809-2.715-2.616-2.715a3.3,3.3,0,0,0-.9.132c-2.509.718-2.872,3.169-3.045,4.357l-.107.718c-.157,1.131-.248,1.494-.429,1.634-.074-.1-.149-.231-.215-.33a2.492,2.492,0,0,0-2.005-1.485,2.2,2.2,0,0,0-1.172.371c-1.873,1.2-1.956,4.308-1.923,5.851-4.225.776-4.2,1.106-4.184,1.395a.123.123,0,0,0,.016.074.433.433,0,0,0,.017.14c.1.305.5.33.924.33a29.9,29.9,0,0,0,3.5-.33c1,2.946,2.41,4.547,4.217,4.737a2.613,2.613,0,0,0,.355.017c1.89,0,2.137-1.675,2.245-2.393.017-.116.041-.272.066-.4h.008c.347,0,.677.355,1.271,1.032.173.2.363.413.561.619l.1.107a5.322,5.322,0,0,0,3.945,2.047,5.177,5.177,0,0,0,1.683-.3,2.944,2.944,0,0,0,1.89-1.494,3.476,3.476,0,0,0-.3-2.822,4.423,4.423,0,0,1-.322-.957.415.415,0,0,1,.264-.1c.536,0,1.461.875,2.129,1.51.165.157.33.305.487.454a6.1,6.1,0,0,0,4.052,1.708,5.536,5.536,0,0,0,4.473-2.443,2.722,2.722,0,0,0,.545-2.286c-.338-1.279-1.675-1.923-2.855-2.484a7.385,7.385,0,0,1-1.188-.652c.264-.569.734-.916,2.005-.916.165,0,.338,0,.512.017a4.944,4.944,0,0,0,4.737-7.906,5.557,5.557,0,0,0-4.539-2.723Zm3.3,7.18a3.229,3.229,0,0,1-3,1.551,2.988,2.988,0,0,1-.38-.016c-.223-.017-.429-.025-.635-.025a3.758,3.758,0,0,0-3.87,2.319c-.569,1.543,1.04,2.319,2.22,2.88.685.33,1.716.825,1.824,1.246.058.206-.14.528-.239.668a3.716,3.716,0,0,1-2.93,1.659,4.165,4.165,0,0,1-2.756-1.2c-.157-.14-.305-.289-.462-.437-1.056-1-2.146-2.03-3.441-2.03a2.346,2.346,0,0,0-1.419.487c-1.23.941-.644,2.36-.3,3.21.2.47.437,1.065.322,1.3a1.378,1.378,0,0,1-.767.47,3.375,3.375,0,0,1-1.065.19,3.489,3.489,0,0,1-2.533-1.428l-.116-.124c-.19-.2-.363-.4-.528-.586-.759-.858-1.477-1.675-2.707-1.675a3.224,3.224,0,0,0-.619.066c-1.089.231-1.254,1.3-1.353,1.948a2.313,2.313,0,0,1-.182.743.825.825,0,0,1-.33.017c-.668-.066-1.617-.685-2.5-3.111.487-.074.982-.149,1.527-.239,8.162-1.436,19.715-6.94,19.913-7.543a.386.386,0,0,0,.017-.14.22.22,0,0,0-.025-.1.3.3,0,0,0-.058-.082.311.311,0,0,0-.239-.107,7.67,7.67,0,0,0-1.007.363c-2.938,1.164-11.867,4.687-18.923,5.925-.536.083-1.032.165-1.494.239-.008-2.781.635-3.648,1.04-3.9.058-.033.091-.058.107-.066a3.594,3.594,0,0,1,.421.586c.388.611.916,1.51,2.03,1.263,1.716-.388,1.923-1.882,2.129-3.326l.1-.7c.19-1.271.454-2.443,1.675-2.789.569-.157.734-.157,1.164,1.287.3.982.693,2.319,2.1,2.426a1.884,1.884,0,0,0,1.576-.553c.875-.883.867-2.517.867-3.961v-.5c.017-3.359,1.725-3.359,2.36-3.359a5.3,5.3,0,0,1,.66.05c.4.033.5.157.536.206.314.388.173,1.527.074,2.36-.165,1.32-.347,2.822.916,3.334a2.959,2.959,0,0,0,1.155.239c1.609,0,2.566-1.419,3.144-2.484A3.124,3.124,0,0,1,157.824,232a3.737,3.737,0,0,1,2.946,1.865,3.309,3.309,0,0,1,.363,3.4Z" transform="translate(-22.203 -39.892)"/>
        <path id="Path_396" data-name="Path 396" d="M199.878,207.494c-.347,0-.7.017-1.04.033a8.557,8.557,0,0,1-1.329,0c-.05-.553.173-1.1,1.873-1.865a5.343,5.343,0,0,0,3.1-4.671,4.994,4.994,0,0,0-2.9-4.4c-2.294-1.18-4.828-.933-6.272.578a5.019,5.019,0,0,0-1.271,3.788c-.033,1.692-.553,1.939-.891,2.005a6.86,6.86,0,0,1-.561-1.221c-.528-1.337-1.246-3.177-3.086-3.177a3.075,3.075,0,0,0-1.147.239,4.114,4.114,0,0,0-2.55,2.377,5.62,5.62,0,0,0,.677,4.6l.182.322c.281.5,1.122,2.014.924,2.443a4.677,4.677,0,0,1-.8-.685,3.674,3.674,0,0,0-2.418-1.353,2.393,2.393,0,0,0-1.782.883c-1.865,1.824-.982,4.167-.6,5.174l.264.718c.355.933.454,1.3.4,1.5-.091-.041-.2-.1-.281-.14a3.35,3.35,0,0,0-1.543-.5,1.875,1.875,0,0,0-1.683,1.073c-1.221,2.088.611,5.141,1.287,6.239-1.089,1.081-1.056,1.2-1,1.378a.378.378,0,0,0,.116.165.369.369,0,0,0,.083.107.6.6,0,0,0,.289.091,3.438,3.438,0,0,0,1.444-.718c.924.825,2.69,2.228,4.555,2.228a3.373,3.373,0,0,0,1.271-.239c2.047-.85,1.345-2.657,1.081-3.334a3.662,3.662,0,0,1-.14-.388.464.464,0,0,1,.281-.083,4.88,4.88,0,0,1,1.3.355c.215.074.446.157.7.239l.173.058a6.981,6.981,0,0,0,2.286.446,4.535,4.535,0,0,0,3.458-1.593,3,3,0,0,0,.833-2.228,3.518,3.518,0,0,0-1.617-2.269c-.264-.206-.693-.553-.726-.718.049-.124.1-.264.594-.264a8.957,8.957,0,0,1,2.014.38l.734.19a7.025,7.025,0,0,0,1.716.231c2.765,0,4.762-1.89,5.207-4.951a2.65,2.65,0,0,0-.528-2.17,3.456,3.456,0,0,0-2.69-.9Zm1.32,2.806c-.38,2.583-2.03,3.788-4.564,3.128-.231-.058-.47-.116-.71-.182a10.436,10.436,0,0,0-2.492-.446,2.321,2.321,0,0,0-2.377,1.485c-.545,1.411.578,2.3,1.329,2.9.388.314.875.7.908.974a1.352,1.352,0,0,1-.371.776,2.637,2.637,0,0,1-2.014.933,5.269,5.269,0,0,1-1.683-.347l-.19-.066c-.231-.074-.446-.157-.652-.223a6.022,6.022,0,0,0-1.948-.47,2.471,2.471,0,0,0-1.741.726,1.991,1.991,0,0,0-.173,2.352,3,3,0,0,1,.223.726.639.639,0,0,1-.231.14c-.875.338-2.088-.149-3.565-1.4q1.312-1.077,3.144-2.748c6.131-5.463,13.162-16.191,13.047-16.81a.33.33,0,0,0-.206-.248.263.263,0,0,0-.116-.025q-.173,0-.734.759c-5.1,6.775-9.523,11.85-13.154,15.069-1.3,1.188-2.278,2.1-3.037,2.814-1.5-2.575-1.246-3.59-1.048-3.936a.344.344,0,0,0,.058-.107,3.511,3.511,0,0,1,.611.281,2.991,2.991,0,0,0,1.345.446,1.423,1.423,0,0,0,1.007-.4c1.2-1.155.693-2.484.206-3.771l-.272-.718c-.437-1.147-.751-2.253.19-3.177.2-.215.338-.289.4-.289.248,0,.751.487,1.089.817a3.347,3.347,0,0,0,2.17,1.238,1.747,1.747,0,0,0,.825-.206,1.978,1.978,0,0,0,1.015-1.2c.363-1.213-.437-2.641-1.139-3.9l-.165-.3a3.937,3.937,0,0,1-.569-3.029,2.327,2.327,0,0,1,1.477-1.271,1.248,1.248,0,0,1,.429-.107c.528,0,.957,1.089,1.3,1.964.454,1.147.966,2.451,2.22,2.451h.182c1.774-.248,2.69-1.551,2.732-3.969a3.177,3.177,0,0,1,.751-2.434c.866-.908,2.467-1,4.011-.2a3.074,3.074,0,0,1,1.857,2.707,3.443,3.443,0,0,1-2.022,2.946c-1.551.693-3.284,1.783-2.913,4.035.124.982.916,1.485,2.36,1.485.289,0,.611-.017.941-.033.314-.017.635-.033.949-.033.9,0,1.172.157,1.254.248a.938.938,0,0,1,.074.644Z" transform="translate(-30.894 -34.228)"/>
        <path id="Path_397" data-name="Path 397" d="M221.56,156.166a5.854,5.854,0,0,0-2.9,1.2,8.284,8.284,0,0,1-1.147.66c-.289-.479-.4-1.155.569-2.533a5.33,5.33,0,0,0,.594-5.521,4.934,4.934,0,0,0-4.531-2.509h-.231a5.532,5.532,0,0,0-4.786,2.632,4.856,4.856,0,0,0,.281,4.885c.858,1.5.644,1.923.322,2.17a7.742,7.742,0,0,1-1.089-.784,5.393,5.393,0,0,0-3.1-1.568,2.4,2.4,0,0,0-1.981,1.065,4.2,4.2,0,0,0-1.172,3.416,5.427,5.427,0,0,0,2.855,3.6l.413.256c.586.355,1.956,1.18,2.014,1.6a.5.5,0,0,1-.107.008,4.754,4.754,0,0,1-1.007-.2,6.441,6.441,0,0,0-1.617-.281,2.346,2.346,0,0,0-2.352,1.915c-.685,2.476,1.2,4.044,2.1,4.795l.545.454c.817.677,1.081.941,1.122,1.155-.116,0-.256,0-.355.008a2.7,2.7,0,0,0-2.055.627,2.019,2.019,0,0,0-.52,1.485c.058,2.278,2.822,3.986,4.077,4.7-.413,1.469-.3,1.642-.215,1.766l.3.157.033-.017.091.066c.173,0,.4-.008,1.089-1.469a11.755,11.755,0,0,0,2.616.347,4.181,4.181,0,0,0,3.557-1.461c1.329-1.741-.116-2.954-.66-3.416-.083-.074-.2-.165-.281-.248.157-.248.479-.338,1.494-.52q.384-.062.817-.149l.149-.033a4.881,4.881,0,0,0,4.349-3.821,2.926,2.926,0,0,0-.289-2.36,3.472,3.472,0,0,0-2.525-1.2,5.506,5.506,0,0,1-.949-.2c-.05-.553,1.007-.891,2.393-1.263.215-.058.429-.116.635-.173a5.806,5.806,0,0,0,3.672-2.831,5.748,5.748,0,0,0,.107-4.687,2.449,2.449,0,0,0-2.3-1.733Zm-13.7,24.757s.033-.041.049-.058c.008.016.033.025.033.041l-.083.017Zm14.186-19.211a3.879,3.879,0,0,1-2.492,1.865c-.2.058-.4.116-.611.165-1.683.454-3.986,1.081-3.8,3.293.157,1.518,1.65,1.758,2.55,1.906.462.074,1.1.182,1.246.388.033.049.132.264,0,.866-.388,1.733-1.626,2.113-2.855,2.36l-.165.033c-.264.058-.52.1-.759.14-1.254.215-2.55.446-3.062,1.964-.363,1.04.454,1.733.941,2.146.173.14.5.413.52.52a.632.632,0,0,1-.149.272,2.437,2.437,0,0,1-2.038.7,9.254,9.254,0,0,1-1.849-.215c.4-.974.875-2.228,1.469-3.87,2.839-8.17,3.5-20.6,3.194-21.027l-.264-.14q-.305,0-.594,1.989c-.528,3.7-1.766,12.362-3.953,18.634-.586,1.6-1.015,2.839-1.337,3.813-2.344-1.419-2.74-2.393-2.748-2.864v-.107a4.191,4.191,0,0,1,.677-.05c.652-.008,1.741-.025,2.113-1.065.545-1.634-.586-2.575-1.683-3.482l-.545-.454c-.965-.8-1.807-1.626-1.477-2.814.14-.512.3-.512.5-.512a5.064,5.064,0,0,1,1.131.215,5.92,5.92,0,0,0,1.5.264,1.971,1.971,0,0,0,2-2.311c-.239-1.238-1.659-2.1-2.9-2.847l-.4-.239a3.75,3.75,0,0,1-1.972-2.261,2.451,2.451,0,0,1,.776-1.931c.256-.338.421-.338.487-.338.487,0,1.312.66,1.906,1.147a4.11,4.11,0,0,0,2.352,1.238,1.489,1.489,0,0,0,.891-.281c2.245-1.535.842-3.986.371-4.8a2.985,2.985,0,0,1-.256-3,3.665,3.665,0,0,1,3.177-1.642h.165a3.056,3.056,0,0,1,2.839,1.485,3.41,3.41,0,0,1-.479,3.54c-.487.693-1.964,2.8-.4,4.951a1.6,1.6,0,0,0,1.271.619,4.7,4.7,0,0,0,2.311-.99,4.9,4.9,0,0,1,1.873-.9c.091,0,.3,0,.528.528a3.856,3.856,0,0,1-.033,3.111Z" transform="translate(-35.369 -25.771)"/>
        <path id="Path_398" data-name="Path 398" d="M207.9,99.1a4.966,4.966,0,0,0-6.28-.611,5.483,5.483,0,0,0-2.88,4.63,4.866,4.866,0,0,0,2.7,4.118c1.411.8,1.362,1.4,1.238,1.758h-.107a8.094,8.094,0,0,1-1.221-.157,11.41,11.41,0,0,0-1.865-.223,2.6,2.6,0,0,0-2.847,2.311,4.258,4.258,0,0,0,.743,3.474,5.527,5.527,0,0,0,4.2,1.766l.371.017c.809.033,2.3.091,2.624.437a.064.064,0,0,0,.008.025,4.471,4.471,0,0,1-1.007.338c-1.065.272-3.293.842-2.69,3.359.586,2.517,3.086,2.979,4.151,3.177l.751.149c.982.19,1.337.289,1.477.454-.091.058-.206.124-.289.173a2.723,2.723,0,0,0-1.477,1.543,1.961,1.961,0,0,0,.3,1.56c1.23,1.989,4.506,2.1,5.876,2.113.338,1.419.47,1.428.693,1.428a.244.244,0,0,0,.107-.016.559.559,0,0,0,.338-.157c.083-.1.248-.305.2-1.477,3-.883,4.638-2.22,4.861-3.978.281-2.154-1.568-2.509-2.269-2.641-.116-.025-.264-.05-.38-.083.008-.3.256-.545,1.089-1.213.19-.149.388-.314.6-.5l.107-.091A4.915,4.915,0,0,0,219,115.329c-.528-1.783-1.609-2.162-2.418-2.162a5.276,5.276,0,0,0-1.749.413,2.85,2.85,0,0,1-1.007.239c-.314-.388.462-1.2,1.428-2.129.19-.182.38-.363.545-.528a5.726,5.726,0,0,0,1.882-4.3,5.592,5.592,0,0,0-2.269-4.077,2.836,2.836,0,0,0-1.766-.71c-1.543,0-2.377,1.535-3.045,2.765a9.589,9.589,0,0,1-.693,1.139c-.561-.281-.792-.809-.652-2.542a5.588,5.588,0,0,0-1.329-4.324Zm1.395,8.69a1.5,1.5,0,0,0,.652.14c1.114,0,1.725-1.114,2.311-2.2.363-.66.966-1.766,1.37-1.766a.987.987,0,0,1,.561.289,3.783,3.783,0,0,1,1.568,2.682,3.859,3.859,0,0,1-1.32,2.855c-.165.165-.338.338-.52.512-1.2,1.164-3.012,2.921-1.609,4.671a1.886,1.886,0,0,0,1.56.776,4.786,4.786,0,0,0,1.609-.388,3.86,3.86,0,0,1,1.1-.3c.116,0,.355,0,.586.784.5,1.716-.4,2.657-1.378,3.466l-.116.1c-.2.165-.388.314-.561.462-1.015.809-2.063,1.65-1.749,3.26.2,1.081,1.254,1.279,1.882,1.4a2.413,2.413,0,0,1,.726.206.7.7,0,0,1,0,.314c-.066.512-.578,1.461-3.144,2.286-.132-1.065-.355-2.459-.71-4.324-1.378-7.906-6.94-19.9-7.708-19.9a.355.355,0,0,0-.231.091q-.182.182.594,2.146c1.362,3.458,4.547,11.545,5.669,18.007.338,1.807.6,3.177.817,4.225-2.732-.091-3.573-.776-3.829-1.188a.542.542,0,0,1-.05-.1,4.277,4.277,0,0,1,.553-.363c.569-.33,1.51-.875,1.312-1.956-.314-1.667-1.725-1.939-3.095-2.2l-.767-.149c-1.23-.231-2.36-.536-2.641-1.741-.132-.545-.165-.693,1.3-1.065.924-.239,2.327-.594,2.451-2.03a2,2,0,0,0-.512-1.469c-.858-.933-2.509-1-3.961-1.048l-.347-.016a3.83,3.83,0,0,1-2.806-1.048,2.422,2.422,0,0,1-.347-1.972c.074-.479.2-.7.957-.7a9.727,9.727,0,0,1,1.535.19,9.123,9.123,0,0,0,1.551.19,1.8,1.8,0,0,0,1.783-.974c.421-.974.726-2.831-1.981-4.357a3,3,0,0,1-1.725-2.484,3.608,3.608,0,0,1,1.964-2.963,3.027,3.027,0,0,1,3.879.272,3.73,3.73,0,0,1,.833,2.872c-.1,1.271-.3,3.631,1.972,4.522Z" transform="translate(-34.357 -17.069)"/>
        <path id="Path_399" data-name="Path 399" d="M166.644,62a5.384,5.384,0,0,0-.3,5.356,4.988,4.988,0,0,0,4.39,2.377c1.675,0,1.915.52,1.964.908a7.526,7.526,0,0,1-1.23.5c-1.18.4-2.525.875-3.078,2.03a2.568,2.568,0,0,0-.033,2.055c.941,2.913,3.507,3.813,6.882,2.2l.338-.173a7.035,7.035,0,0,1,2.344-.9c.1,0,.132,0,.157.041a4.285,4.285,0,0,1-.718.792,3.692,3.692,0,0,0-1.461,2.418,2.479,2.479,0,0,0,.776,1.783,3.636,3.636,0,0,0,2.831,1.254,7.253,7.253,0,0,0,2.319-.47l.792-.264a3.522,3.522,0,0,1,1.485-.347c-.058.1-.124.223-.182.314a2.727,2.727,0,0,0-.536,2.071,2,2,0,0,0,1.007,1.221,3.466,3.466,0,0,0,1.708.413,9.676,9.676,0,0,0,4.291-1.37c.9.982,1.056,1,1.188,1a.3.3,0,0,0,.256-.1l.1-.017.083-.182c.066-.14.165-.363-.528-1.494,2.269-2.269,3.086-4.283,2.418-5.975a2.056,2.056,0,0,0-1.972-1.485,4.149,4.149,0,0,0-1.3.272c-.107.033-.239.083-.355.116-.14-.289-.05-.619.347-1.617.083-.206.165-.429.256-.66l.05-.132a4.983,4.983,0,0,0-.924-5.768,3,3,0,0,0-2.055-.966,3.359,3.359,0,0,0-2.459,1.527c-.223.256-.586.677-.751.7-.462-.19-.173-1.279.223-2.583.074-.256.157-.5.215-.726a5.538,5.538,0,0,0-.4-4.531,5.828,5.828,0,0,0-4.019-2.6,2.64,2.64,0,0,0-2.36.594c-.867.875-.85,2.286-.842,3.532a11.062,11.062,0,0,1-.05,1.337c-.6,0-1.122-.322-1.824-1.849a4.88,4.88,0,0,0-9.045-.627Zm1.659.941a3.232,3.232,0,0,1,2.74-1.791,3.266,3.266,0,0,1,2.9,2.253c.677,1.477,1.634,2.979,3.573,2.979a2.8,2.8,0,0,0,.371-.017c1.609-.149,1.593-1.939,1.584-3.243,0-.743-.017-1.865.289-2.17.025-.025.091-.091.347-.091a1.732,1.732,0,0,1,.3.025,3.932,3.932,0,0,1,2.732,1.7,3.713,3.713,0,0,1,.206,3.02c-.066.231-.132.462-.206.71-.487,1.6-1.221,4.027.85,4.894a1.9,1.9,0,0,0,.784.173,3.045,3.045,0,0,0,2.17-1.378c.33-.38.743-.858,1.007-.858.083,0,.314.041.718.429,1.254,1.263.916,2.533.47,3.722l-.058.149c-.083.223-.165.429-.239.627-.47,1.188-.957,2.426.074,3.714a1.488,1.488,0,0,0,1.2.553,3.633,3.633,0,0,0,1.122-.239,2.651,2.651,0,0,1,.718-.173.7.7,0,0,1,.157.272c.2.5.215,1.634-1.733,3.672-.635-.866-1.5-1.989-2.69-3.449-4.522-5.513-12.329-11.033-14.9-12.849-1.122-.891-1.188-.891-1.312-.891h-.132l-.2.206.017.149q.017.182,1.172,1l.083.058a107.647,107.647,0,0,1,13.979,13.443c1.139,1.4,2.022,2.459,2.7,3.26a7.408,7.408,0,0,1-3,.933,1.649,1.649,0,0,1-.759-.157.591.591,0,0,1-.091-.058,3.26,3.26,0,0,1,.314-.6c.33-.561.891-1.5.206-2.335a2.193,2.193,0,0,0-1.8-.883,6.335,6.335,0,0,0-1.972.462l-.792.264a5.535,5.535,0,0,1-1.708.371,1.746,1.746,0,0,1-1.428-.644.843.843,0,0,1-.272-.446c0-.256.52-.751.866-1.081.693-.66,1.741-1.659,1.147-2.954a2.017,2.017,0,0,0-1.906-1.172,7.784,7.784,0,0,0-3.2,1.106l-.305.157a5.475,5.475,0,0,1-2.228.611c-.619,0-1.51-.173-2.005-1.716-.149-.4-.074-.561-.05-.611.206-.437,1.23-.792,1.972-1.048,1.155-.4,2.6-.9,2.525-2.278-.091-1.3-.833-2.839-3.854-2.847a3.081,3.081,0,0,1-2.756-1.4,3.557,3.557,0,0,1,.3-3.482Z" transform="translate(-28.977 -10.302)"/>
        <path id="Path_400" data-name="Path 400" d="M57.847,172.473,62.139,161.2H59.713l-2.253,5.851c-.322.867-.652,1.882-.933,2.9H56.5c-.281-1.04-.586-2.038-.933-2.946l-2.187-5.81H50.8l4.316,11.273Z" transform="translate(-8.885 -28.173)"/>
        <path id="Path_401" data-name="Path 401" d="M74.795,170.608H70.5v-3.037h4.1v-1.783H70.5V163.04h4.291V161.2H68.16v11.273h6.635Z" transform="translate(-11.919 -28.173)"/>
        <path id="Path_402" data-name="Path 402" d="M85.213,172.473v-9.284h3.128V161.2H79.75v1.989h3.119v9.284Z" transform="translate(-13.944 -28.173)"/>
        <path id="Path_403" data-name="Path 403" d="M100.865,163.04V161.2H94.23v11.273h6.635v-1.865H96.574v-3.037h4.1v-1.783h-4.1V163.04Z" transform="translate(-16.475 -28.173)"/>
        <path id="Path_404" data-name="Path 404" d="M114.545,167.2l-3.8-6.008H107.63v11.273h2.278l-.025-5.9c0-1.04-.017-1.733-.066-2.36h.025a18.755,18.755,0,0,0,1.147,2.146l3.879,6.115h3.119V161.19h-2.278l.025,4.968c0,1.452.025,2.533.066,3.251h-.017a21.023,21.023,0,0,0-1.238-2.212Z" transform="translate(-18.817 -28.171)"/>
        <path id="Path_405" data-name="Path 405" d="M128.02,170.686a6.842,6.842,0,0,1-2.492-.437l-.091,2.1a11.013,11.013,0,0,0,2.319.281c2.888,0,4.877-1.5,4.877-3.8,0-3.532-5.026-2.69-5.026-4.621,0-.85.627-1.411,2.063-1.411a7.765,7.765,0,0,1,2.146.33l.091-2a14.2,14.2,0,0,0-2.146-.2c-2.971,0-4.621,1.411-4.621,3.532,0,3.664,4.968,2.624,4.968,4.621,0,1.106-1.015,1.584-2.08,1.584Z" transform="translate(-21.877 -28.127)"/>
        <path id="Path_406" data-name="Path 406" d="M139.19,161.2v11.273h2.344v-5.29l4.184,5.29h3.1l-4.861-5.859,4.621-5.414h-2.888l-4.159,5.026V161.2Z" transform="translate(-24.332 -28.173)"/>
        <path id="Path_407" data-name="Path 407" d="M156.269,170.286h4.7l.8,2.187h2.608l-4.25-11.273h-2.756L153.1,172.473h2.344l.825-2.187Zm1.774-4.877c.215-.586.429-1.213.569-1.758h.016c.157.52.371,1.2.586,1.782l1.172,3.169H156.83l1.213-3.185Z" transform="translate(-26.763 -28.173)"/>
        <path id="Path_408" data-name="Path 408" d="M174.549,161.118c-1.32,0-2.732.041-3.689.066v11.273H173.2v-3.714c.281.025.718.041,1,.041,2.864,0,4.836-1.56,4.836-4.035,0-2.278-1.626-3.639-4.489-3.639Zm-.347,5.81a4.324,4.324,0,0,1-1-.091v-3.813c.305-.025.718-.025,1.147-.025,1.452,0,2.187.8,2.187,1.906,0,1.32-.891,2.014-2.344,2.014Z" transform="translate(-29.867 -28.157)"/>
        <path id="Path_409" data-name="Path 409" d="M58.218,195.421a5.68,5.68,0,0,0,5.917-5.942c0-3.73-2.278-5.719-5.554-5.719A5.62,5.62,0,0,0,52.73,189.7c0,3.383,1.824,5.727,5.488,5.727Zm.215-9.63c1.931,0,3.185,1.32,3.185,3.837s-1.477,3.73-3.276,3.73c-2.212,0-3.119-1.692-3.119-3.837C55.222,187.086,56.716,185.79,58.432,185.79Z" transform="translate(-9.222 -32.115)"/>
        <path id="Path_410" data-name="Path 410" d="M75.384,195.386a9.191,9.191,0,0,0,3.037-.5l-.2-2.08a5.6,5.6,0,0,1-2.36.52c-2.236,0-3.532-1.279-3.532-3.714,0-2.236,1.2-3.837,3.4-3.837a7.833,7.833,0,0,1,2.385.388l.215-2.063A9.537,9.537,0,0,0,75.9,183.8c-4.225,0-6.074,2.839-6.074,6.024,0,3.425,1.865,5.546,5.554,5.546Z" transform="translate(-12.211 -32.122)"/>
        <path id="Path_411" data-name="Path 411" d="M94.7,195.271V183.99H92.36v4.489H87.045V183.99H84.71v11.281h2.335V190.5H92.36v4.77Z" transform="translate(-14.811 -32.156)"/>
        <path id="Path_412" data-name="Path 412" d="M111.314,189.973l4.184,5.3h3.1l-4.861-5.859,4.621-5.422h-2.88l-4.167,5.034V183.99H108.97v11.281h2.344Z" transform="translate(-19.051 -32.156)"/>
        <path id="Path_413" data-name="Path 413" d="M128.016,195.421a5.684,5.684,0,0,0,5.917-5.942c0-3.73-2.278-5.719-5.554-5.719a5.626,5.626,0,0,0-5.859,5.942c0,3.383,1.824,5.727,5.488,5.727Zm.215-9.63c1.931,0,3.185,1.32,3.185,3.837s-1.477,3.73-3.276,3.73c-2.212,0-3.119-1.692-3.119-3.837C125.02,187.086,126.514,185.79,128.231,185.79Z" transform="translate(-21.419 -32.115)"/>
        <path id="Path_414" data-name="Path 414" d="M143.907,189.156l3.879,6.115H150.9V183.99h-2.278l.025,4.968c0,1.452.025,2.533.066,3.251H148.7A21.018,21.018,0,0,0,147.464,190l-3.8-6.008H140.54v11.281h2.278l-.025-5.9c0-1.04-.016-1.733-.066-2.36h.025a18.092,18.092,0,0,0,1.147,2.146Z" transform="translate(-24.568 -32.156)"/>
        <path id="Path_415" data-name="Path 415" d="M160.8,193.486a6.841,6.841,0,0,1-2.492-.437l-.091,2.1a11.012,11.012,0,0,0,2.319.281c2.888,0,4.877-1.5,4.877-3.8,0-3.532-5.026-2.69-5.026-4.621,0-.85.627-1.411,2.063-1.411a7.765,7.765,0,0,1,2.146.33l.091-2a14.206,14.206,0,0,0-2.146-.2c-2.971,0-4.621,1.411-4.621,3.532,0,3.664,4.968,2.624,4.968,4.621,0,1.106-1.015,1.584-2.08,1.584Z" transform="translate(-27.606 -32.112)"/>
        <path id="Path_416" data-name="Path 416" d="M175.223,195.271v-9.284h3.128v-2H169.76v2h3.119v9.284Z" transform="translate(-29.675 -32.156)"/>
        <path id="Path_417" data-name="Path 417" d="M66.821,138.511l-.281-.033c-5.917-.734-5.95-1.906-6.1-6.825V123.1l9.895,10.761c3.771,4.134,5.851,6.412,11.339,6.412a27.48,27.48,0,0,0,3.458-.239l.272-.033.025-1.32-.314-.016c-3.3-.14-5.1-2.014-8.681-5.735-.5-.512-1.023-1.065-1.576-1.634L65.22,120.571,69.1,116.6l.825-.867c3.26-3.425,6.957-7.312,11.883-7.831l.289-.033v-1.32H69.041v1.32l.289.033c1.3.14,1.989.437,2.187.949.371.957-.776,2.9-3.5,5.966L60.442,122.9v-8.129c.14-4.935.173-6.115,4.811-6.841l.272-.041v-1.312H49.64v1.32l.272.041c5.488.734,5.521,1.906,5.669,6.825v16.868c-.14,4.935-.173,6.107-5.669,6.841l-.272.041v1.312H66.813V138.5Z" transform="translate(-8.682 -18.622)"/>
        <path id="Path_418" data-name="Path 418" d="M117.693,138.5l-.281-.033c-6.2-.743-6.429-2.146-6.429-7.98V108.661h2.558c5.661,0,7.972,1.758,9.515,7.229l.083.289,1.23-.264-.611-9.375H93.324l-.594,9.375,1.23.264.083-.289c1.543-5.471,3.854-7.229,9.523-7.229h2.558v21.827c0,5.834-.239,7.237-6.429,7.98l-.281.033v1.32h18.279V138.5Z" transform="translate(-16.213 -18.62)"/>
        <path id="Path_419" data-name="Path 419" d="M174.006,107.952l.272-.041v-1.32H157.1V107.9l.272.041c6.107.883,6.107,1.675,6.107,6.825V121.4h-17.33v-6.635c0-5.149,0-5.942,6.107-6.825l.272-.041V106.59H135.36v1.32l.272.041c5.488.734,5.521,1.906,5.669,6.825v16.868c-.14,4.935-.173,6.107-5.669,6.841l-.272.041v1.312h17.173v-1.312l-.272-.041c-6.107-.883-6.107-1.675-6.107-6.825v-7.592h17.33v7.592c0,5.149,0,5.942-6.107,6.825l-.272.041v1.312h17.173v-1.312l-.272-.041c-5.488-.734-5.521-1.906-5.669-6.825V114.793c.14-4.935.173-6.107,5.669-6.841Z" transform="translate(-23.663 -18.629)"/>
        <path id="Path_420" data-name="Path 420" d="M66.286,44.447a3.673,3.673,0,0,0,.256,3.639,3.593,3.593,0,0,0,3.449,1.576c1.469,1.857,3.92,4.068,5.917,3.5a78.609,78.609,0,0,1,30.121-5.876h.017a78.626,78.626,0,0,1,30.129,5.876c2.005.569,4.456-1.642,5.917-3.5a3.593,3.593,0,0,0,3.449-1.576,3.7,3.7,0,0,0,.256-3.639,18.115,18.115,0,0,1,2.657-3.2,3.749,3.749,0,0,0-2.55-6.5,4.665,4.665,0,0,0-.487.033c-.025-.107-.066-.215-.091-.314a3.137,3.137,0,0,0-1.428-5.933,3.03,3.03,0,0,0-1.584.446c-.091-.107-.173-.206-.272-.314a2.588,2.588,0,1,0-3.928-3.334c-.149-.1-.3-.2-.454-.3a2.357,2.357,0,1,0-4.118-2.187c-.239-.107-.5-.215-.743-.314a2.111,2.111,0,0,0,.305-1.081,2.133,2.133,0,0,0-4.242-.322c-.165-.05-.314-.1-.479-.149a2.978,2.978,0,0,0-2.864-2.179,2.724,2.724,0,0,0-.867.14c-.107-.091-.215-.173-.33-.264v-.14a2.523,2.523,0,0,0-2.525-2.517,2.5,2.5,0,0,0-1.461.479c-.1-.041-.2-.074-.3-.116v-.058a2.271,2.271,0,0,0-4.258-1.106c-.173-.033-.355-.066-.536-.1,0-.025.008-.058.008-.083a2.073,2.073,0,0,0-4.1-.429c-.2-.017-.4-.033-.611-.041A4.911,4.911,0,0,0,108.3,8.3a5.894,5.894,0,0,0-1.411-.462V4.093h2.1a1.454,1.454,0,0,0,.215-.883,1.42,1.42,0,0,0-.215-.875h-2.1V.215A1.476,1.476,0,0,0,106,0h0a1.476,1.476,0,0,0-.883.215v2.1h-2.1a1.442,1.442,0,0,0-.215.875,1.476,1.476,0,0,0,.215.883h2.1V7.823a5.907,5.907,0,0,0-1.4.462,4.911,4.911,0,0,0-2.245,6.264c-.206.017-.413.025-.611.041a2.073,2.073,0,0,0-4.1.429.281.281,0,0,0,.008.083c-.182.033-.363.066-.536.1a2.271,2.271,0,0,0-4.258,1.106v.058c-.1.033-.2.074-.3.116A2.5,2.5,0,0,0,90.218,16a2.523,2.523,0,0,0-2.525,2.517v.14c-.116.083-.223.173-.33.264a2.724,2.724,0,0,0-.867-.14,2.978,2.978,0,0,0-2.864,2.179c-.165.05-.314.1-.479.149a2.133,2.133,0,0,0-4.242.322,2.089,2.089,0,0,0,.305,1.081c-.248.107-.5.206-.751.314a2.357,2.357,0,1,0-4.118,2.187c-.149.1-.3.2-.454.3a2.589,2.589,0,1,0-3.928,3.334c-.1.107-.182.206-.272.314a3.132,3.132,0,1,0-3.012,5.488c-.033.107-.066.215-.091.314a4.665,4.665,0,0,0-.487-.033,3.763,3.763,0,0,0-3.755,3.755,3.719,3.719,0,0,0,1.2,2.748,18.115,18.115,0,0,1,2.657,3.2Zm3.251,3.912a2.307,2.307,0,0,1-2.311-2.311,2.359,2.359,0,0,1,.4-1.3,2.31,2.31,0,1,1,1.906,3.615ZM106.03,40.8a2.294,2.294,0,1,1,2.3-2.294A2.295,2.295,0,0,1,106.03,40.8Zm0-17.883a2.278,2.278,0,1,1-2.278,2.278,2.284,2.284,0,0,1,2.278-2.278Zm-1.774-2.525a1.778,1.778,0,1,1,1.774,1.774A1.772,1.772,0,0,1,104.255,20.391Zm1.766,7.972a2.824,2.824,0,0,1,2.129,4.687,3.525,3.525,0,0,0-2.121-.71,3.443,3.443,0,0,0-2.121.718,2.824,2.824,0,0,1,2.121-4.687Zm36.508,20a2.315,2.315,0,0,1,.008-4.63,2.283,2.283,0,0,1,2.154,1.51,2.232,2.232,0,0,1,.149.809,2.307,2.307,0,0,1-2.311,2.311ZM145.9,36.013A2.486,2.486,0,0,1,148.38,38.5a3.5,3.5,0,0,1-1.642,2.467,3.542,3.542,0,0,0-2.707-1.263,1.555,1.555,0,0,0-.281.017,2.46,2.46,0,0,1,2.146-3.705ZM143.891,29.8a1.873,1.873,0,1,1-1.882,1.873A1.87,1.87,0,0,1,143.891,29.8Zm-3.664-4.324a1.32,1.32,0,1,1-1.312,1.32A1.319,1.319,0,0,1,140.227,25.475Zm-4.473-2.938a1.085,1.085,0,1,1-1.081,1.081A1.087,1.087,0,0,1,135.754,22.537Zm-4.795-1.972a.866.866,0,1,1-.867.866A.866.866,0,0,1,130.96,20.565Zm-2.822,2.6c7.237,2.311,10.992,5.81,12.709,9.3a12.216,12.216,0,0,1,1.271,5.991,5.352,5.352,0,0,0,.363,1.609,3.356,3.356,0,0,0-1.873,2.261c-.066-.041-.132-.091-.206-.14a3.481,3.481,0,0,0-2.228-.792,3.546,3.546,0,1,0,1.4,6.8,3.477,3.477,0,0,0,.578.627,3.585,3.585,0,0,1-4.5,1.708,5.711,5.711,0,0,1-3.416-3.747,5.7,5.7,0,0,1-4.894,1.337,3.6,3.6,0,0,1-2.839-4.217c.033-.182.206-.891.289-1.147a3.481,3.481,0,1,0,4.077-4.077,3.355,3.355,0,0,0-.644,0c.058-.165.124-.347.124-.347a3.381,3.381,0,0,0,.017-1.221,4.035,4.035,0,0,0,.949-7.4,3.351,3.351,0,0,0-1.362-6.255,3.351,3.351,0,0,0,.173-.289ZM125.6,34.239a3.366,3.366,0,0,0-.858-.058,2.867,2.867,0,0,1-.182-.966,2.765,2.765,0,1,1,3.375,2.69,3.448,3.448,0,0,0-2.344-1.675Zm4.151-7.444a2.1,2.1,0,1,1-2.1-2.1A2.1,2.1,0,0,1,129.747,26.8Zm-4.242-6.75a1.708,1.708,0,1,1-1.708,1.708A1.713,1.713,0,0,1,125.505,20.045Zm-1.122,17.949a2.294,2.294,0,1,1-2.294,2.294A2.295,2.295,0,0,1,124.383,37.994Zm-2.591-20.73a1.242,1.242,0,1,1-1.246,1.246A1.25,1.25,0,0,1,121.791,17.264Zm-4.035-1.972a1.007,1.007,0,1,1-1,1.007A1.005,1.005,0,0,1,117.756,15.292Zm-4.58-1.081a.8.8,0,1,1-.8.8A.8.8,0,0,1,113.176,14.21Zm9.078,19.806.512.891a3.5,3.5,0,0,0-1.279,2.08s-.008.19-.008.363a3.2,3.2,0,0,0-.586-.231,3.489,3.489,0,1,0,2.253,5.314c-.025.272-.132.99-.165,1.172a3.606,3.606,0,0,1-4.225,2.839,5.5,5.5,0,0,1-3.912-3.062,5.492,5.492,0,0,1-4.423,2.278,3.614,3.614,0,0,1-3.606-3.6c0-.19.033-.916.058-1.188a3.488,3.488,0,1,0,3.235-4.786,3.6,3.6,0,0,0-.635.124c.025-.173.058-.371.058-.371a3.363,3.363,0,0,0-.149-1l1.246-.8s-.223-11.809-2.335-17.082c.074-.041.14-.083.206-.116,17.256.974,15.77,12.964,13.74,17.181ZM109.619,12.3c0,.074.017.149.017.223a3.493,3.493,0,0,1-.578,1.923c-.314-.008-.726-.017-1.172-.025a2.01,2.01,0,0,0,.058-.454,1.911,1.911,0,0,0-1-1.675h2.674Zm-2.74-3.243a3.683,3.683,0,0,1,2.368,1.9H106.88ZM106,13.179a.8.8,0,1,1-.8.8.8.8,0,0,1,.8-.8Zm0,2.36a1.2,1.2,0,1,1,0,2.393,1.2,1.2,0,0,1,0-2.393Zm-.875-6.478v1.9h-2.36A3.668,3.668,0,0,1,105.13,9.061ZM102.407,12.3h2.666a1.93,1.93,0,0,0-.99,1.675,2.071,2.071,0,0,0,.058.454c-.437,0-.85.008-1.164.025a3.493,3.493,0,0,1-.578-1.923,1.014,1.014,0,0,1,.017-.223ZM98.85,14.21a.8.8,0,0,1,0,1.6.8.8,0,1,1,0-1.6Zm-4.58,1.081a1.007,1.007,0,0,1,0,2.014,1.007,1.007,0,1,1,0-2.014Zm-4.035,1.972a1.242,1.242,0,1,1-1.246,1.246A1.243,1.243,0,0,1,90.235,17.264Zm13.27-.421c.066.041.14.083.206.116-2.1,5.273-2.327,17.082-2.327,17.082l1.246.8a3.6,3.6,0,0,0-.14,1s.033.2.058.371a3.328,3.328,0,0,0-.635-.124,3.491,3.491,0,1,0,3.227,4.786c.025.272.058,1,.058,1.188a3.6,3.6,0,0,1-3.6,3.6,5.492,5.492,0,0,1-4.423-2.278,5.48,5.48,0,0,1-3.912,3.062,3.608,3.608,0,0,1-4.225-2.839c-.033-.182-.14-.9-.165-1.172a3.485,3.485,0,1,0,2.253-5.314,3.926,3.926,0,0,0-.586.231c0-.173-.017-.363-.017-.363a3.5,3.5,0,0,0-1.279-2.08l.512-.891c-2.03-4.217-3.515-16.2,13.74-17.181ZM89.938,40.288a2.294,2.294,0,1,1-2.294-2.294A2.295,2.295,0,0,1,89.938,40.288Zm-5.843-4.382a2.762,2.762,0,1,1,3.375-2.69,2.711,2.711,0,0,1-.182.966,3.367,3.367,0,0,0-.858.058,3.451,3.451,0,0,0-2.335,1.675Zm2.426-15.861A1.708,1.708,0,1,1,84.8,21.753,1.712,1.712,0,0,1,86.521,20.045Zm-2.137,4.646a2.1,2.1,0,1,1-2.1,2.1A2.108,2.108,0,0,1,84.384,24.691Zm-3.309-4.126a.866.866,0,1,1-.866.866A.866.866,0,0,1,81.075,20.565ZM76.28,22.537a1.085,1.085,0,1,1-1.089,1.081A1.085,1.085,0,0,1,76.28,22.537Zm7.609.627a3.344,3.344,0,0,0,.173.289A3.351,3.351,0,0,0,82.7,29.708a4.035,4.035,0,0,0,.949,7.4,3.38,3.38,0,0,0,.017,1.221s.066.19.124.347a3.355,3.355,0,0,0-.644,0,3.489,3.489,0,1,0,4.077,4.077c.083.264.248.966.289,1.147a3.6,3.6,0,0,1-2.839,4.217,5.7,5.7,0,0,1-4.894-1.337,5.729,5.729,0,0,1-3.416,3.747,3.59,3.59,0,0,1-4.5-1.708,3.476,3.476,0,0,0,.578-.627,3.546,3.546,0,1,0,1.411-6.8,3.494,3.494,0,0,0-2.228.792,1.812,1.812,0,0,1-.206.14,3.415,3.415,0,0,0-1.873-2.261,5.548,5.548,0,0,0,.363-1.609,12.216,12.216,0,0,1,1.271-5.991c1.716-3.5,5.471-7,12.709-9.3ZM71.807,25.475a1.32,1.32,0,1,1-1.32,1.32A1.319,1.319,0,0,1,71.807,25.475Zm-5.529,6.189a1.873,1.873,0,1,1,1.873,1.873A1.877,1.877,0,0,1,66.278,31.664ZM66.138,36a2.46,2.46,0,0,1,2.146,3.705c-.091,0-.19-.016-.281-.016A3.542,3.542,0,0,0,65.3,40.956a3.52,3.52,0,0,1-1.642-2.467A2.486,2.486,0,0,1,66.138,36Z" transform="translate(-10.903)"/>
        <path id="Path_421" data-name="Path 421" d="M135.252,74.893a.814.814,0,0,0,.289-1.576A73.386,73.386,0,0,0,110,68.77h-.569A73.117,73.117,0,0,0,83.9,73.317a.815.815,0,1,0,.569,1.527A71.7,71.7,0,0,1,109.439,70.4h.569a71.555,71.555,0,0,1,24.98,4.448.838.838,0,0,0,.281.05Z" transform="translate(-14.576 -12.019)"/>
        <path id="Path_422" data-name="Path 422" d="M139.289,68.474l-1.18-3.169-.182-.479-1.527.248a76.366,76.366,0,0,0-26.127-5.059l-1.444-.825-1.436.825a76.759,76.759,0,0,0-26.127,5.059l-1.527-.248-.182.479L78.37,68.474l3.408,1.89,1.1-1.3a73.243,73.243,0,0,1,24.212-4.654l1.733.99,1.749-.99a73.624,73.624,0,0,1,24.212,4.654l1.1,1.3Zm-57.8.3c-.462-.256-1.089-.6-1.568-.875.2-.512.446-1.18.627-1.675.561.091,1.692.281,2.715.446-.668.792-1.4,1.659-1.766,2.1Zm14.359-4.077-2.732.561a1.39,1.39,0,1,1-.561-2.723l2.74-.561a1.389,1.389,0,1,1,.553,2.723Zm12.981-.767-2.855-1.634,2.864-1.634,2.872,1.634-2.872,1.634Zm17.363.248a1.393,1.393,0,0,1-1.642,1.081l-2.732-.561a1.39,1.39,0,1,1,.561-2.723l2.74.561a1.385,1.385,0,0,1,1.081,1.642Zm8.211,2.5c1.023-.173,2.146-.355,2.707-.446.182.5.437,1.164.627,1.675-.479.264-1.106.611-1.568.875C135.8,68.342,135.072,67.467,134.4,66.675Z" transform="translate(-13.703 -10.345)"/>
      </g>
    </g>
  </g>
</svg>
