<svg xmlns="http://www.w3.org/2000/svg" xmlns:xlink="http://www.w3.org/1999/xlink" width="600" height="300" viewBox="0 0 600 300"><defs><clipPath id="clip-Logo"><path d="M0 0h600v300H0z"/></clipPath></defs><g id="Logo" clip-path="url(#clip-Logo)"><path fill="#e8eff3" d="M0 0h600v300H0z"/><g id="c" transform="translate(204.992 36.646)"><g id="Group_34" transform="translate(.008)"><path id="Path_373" d="M116.28 246.16a171 171 0 0 1 5.76-6.31 9.4 9.4 0 0 1 6.15-3s-3.56-1.75-7.33 2c-1.01 1.02-3.27 3.57-5.6 6.17l-2.43-2.73c.85-.93 1.65-1.78 2.3-2.45a9.4 9.4 0 0 1 6.16-3s-3.58-1.75-7.33 2a72 72 0 0 0-2.15 2.32 79 79 0 0 0-2.16-2.31c-3.76-3.76-7.33-2-7.33-2a9.4 9.4 0 0 1 6.15 3 68 68 0 0 1 2.31 2.44l-2.43 2.73c-2.32-2.6-4.59-5.15-5.6-6.17-3.76-3.75-7.33-2-7.33-2a9.4 9.4 0 0 1 6.15 3 155 155 0 0 1 5.76 6.31c-1.93 2.16-3.77 4.2-4.83 5.26a9.3 9.3 0 0 1-5.45 2.7s3.16 1.86 7.46-2.54c.8-.82 2.22-2.44 3.82-4.26.88 1 1.7 1.93 2.4 2.7q-.79.85-1.34 1.4a9.3 9.3 0 0 1-5.45 2.7s3.16 1.86 7.46-2.54l.38-.4.38.4c4.3 4.4 7.45 2.55 7.45 2.55a9.3 9.3 0 0 1-5.44-2.71q-.55-.54-1.34-1.4l2.4-2.7c1.6 1.83 3.03 3.45 3.82 4.26 4.3 4.4 7.45 2.55 7.45 2.55a9.3 9.3 0 0 1-5.44-2.7c-1.05-1.06-2.89-3.1-4.82-5.27Zm-4.46 2.7q-1.15-1.25-2.44-2.7l2.44-2.74 2.43 2.74c-.85.95-1.67 1.88-2.43 2.7" transform="translate(-16.683 -41.323)"/><path id="Path_374" d="M19.58 89.14a3.5 3.5 0 0 0 3.54 2.4 5 5 0 0 0 1.5-.24l.24.33a4 4 0 0 0 .9.89.64.64 0 0 0 .9-.16.64.64 0 0 0-.17-.88 2 2 0 0 1-.6-.6l-.09-.12a4.3 4.3 0 0 0 1.56-1.58 3.3 3.3 0 0 0 .24-2.56 1.5 1.5 0 0 0-1.29-1.1l-.12.02q-.07-.32-.16-.62c-.62-1.97-2.4-3.54-3.74-3.43a.7.7 0 0 0-.75-.18.8.8 0 0 0-.51.58 2.4 2.4 0 0 0-.87.96 5.5 5.5 0 0 0-.25 3.99l.22.6-.1.05a1.5 1.5 0 0 0-.43 1.64Zm6.86-1.83a2 2 0 0 1-.22 1.28 3.2 3.2 0 0 1-1.95 1.5 4 4 0 0 1-1.15.18 2.3 2.3 0 0 1-2.22-1.22 4 4 0 0 0 1.1.12 6 6 0 0 0 1.9-.3 6 6 0 0 0 2.55-1.56Zm-5.16-3.87a1 1 0 0 1 .42-.47 1 1 0 0 0 .29-.17 1 1 0 0 0 .34-.03c.5-.15 1.96.92 2.47 2.53a5 5 0 0 1 .22 1.6 5 5 0 0 1-1.5.74 5 5 0 0 1-1.52.24h-.15a5 5 0 0 1-.74-1.42 4.3 4.3 0 0 1 .17-3.02" transform="translate(-3.417 -14.204)"/><path id="Path_375" d="M36.25 101.8a1.5 1.5 0 0 0 1.43-.93l.01-.12.5.02h.14a5.5 5.5 0 0 0 3.7-1.52 2.3 2.3 0 0 0 .64-1.12.8.8 0 0 0 .38-.65.8.8 0 0 0-.4-.67c-.33-1.33-2.36-2.5-4.46-2.45l-.63.05-.02-.13a1.5 1.5 0 0 0-1.45-.87 3.3 3.3 0 0 0-2.6 1.35 4 4 0 0 0-.76 1.68q-.05 0-.14-.04a3 3 0 0 1-.76-.39.64.64 0 0 0-.76 1.02 4 4 0 0 0 1.13.58l.4.1c.06 2.38 1.57 4.1 3.59 4.1h.08Zm1.96-6.18c1.68-.06 3.18 1 3.19 1.52a1 1 0 0 0 .08.34 1 1 0 0 0-.07.33 1 1 0 0 1-.3.55 4.3 4.3 0 0 1-2.82 1.13 5 5 0 0 1-1.58-.23 5 5 0 0 1-.31-1.67 5 5 0 0 1 .23-1.65 5 5 0 0 1 1.58-.32m-4.36 2.03a3.3 3.3 0 0 1 .63-2.13 2 2 0 0 1 1.31-.8 6 6 0 0 0-.66 2.9 5.7 5.7 0 0 0 .8 2.89c-1.18-.14-2.03-1.3-2.07-2.86Z" transform="translate(-5.391 -16.325)"/><path id="Path_376" d="M26.7 140.26a2.3 2.3 0 0 0-.02-1.28.8.8 0 0 0 .01-.76.8.8 0 0 0-.68-.37c-.95-1-3.31-.99-5.09.07l-.52.36-.09-.11a1.4 1.4 0 0 0-.85-.27 1.6 1.6 0 0 0-.84.24 3.3 3.3 0 0 0-1.6 2.46 4 4 0 0 0 .19 1.84l-.14.03a3 3 0 0 1-.85.04.64.64 0 0 0-.15 1.27l.44.02a4 4 0 0 0 .82-.09l.4-.1a4.2 4.2 0 0 0 3.52 2.2 3.3 3.3 0 0 0 1.7-.48 1.5 1.5 0 0 0 .78-1.5q-.01-.07-.05-.11l.56-.3a5.5 5.5 0 0 0 2.46-3.16m-5.12-1.24c1.46-.87 3.26-.7 3.52-.28a.6.6 0 0 0 .25.26.6.6 0 0 0 .1.33 1 1 0 0 1 0 .63 4.3 4.3 0 0 1-1.88 2.38 5 5 0 0 1-1.48.58 5 5 0 0 1-1.1-1.29 5 5 0 0 1-.63-1.56 5 5 0 0 1 1.21-1.05Zm-2.77 3.92a3.4 3.4 0 0 1-.52-2.16 2 2 0 0 1 .73-1.35 6 6 0 0 0 .88 2.86 6 6 0 0 0 2.12 2.1 2.7 2.7 0 0 1-3.21-1.45" transform="translate(-2.716 -23.963)"/><path id="Path_377" d="m1.74 141.23.49.42-.07.1a1.5 1.5 0 0 0 .44 1.64 3.3 3.3 0 0 0 2.28.9 4.5 4.5 0 0 0 3.18-1.49l.37.18a4 4 0 0 0 1.22.33h.06a.64.64 0 0 0 .07-1.27 3 3 0 0 1-.82-.22l-.13-.06a4 4 0 0 0 .56-2.15 3.3 3.3 0 0 0-1.05-2.34 1.5 1.5 0 0 0-1.08-.45 1.4 1.4 0 0 0-.58.12l-.1.08-.45-.46c-1.5-1.4-3.79-1.9-4.93-1.14a.8.8 0 0 0-.75.2.8.8 0 0 0-.16.76 2.3 2.3 0 0 0-.28 1.25 5.5 5.5 0 0 0 1.73 3.6m6.37-1.58a3.3 3.3 0 0 1-.96 2.26 3.2 3.2 0 0 1-2.28 1.11 2 2 0 0 1-1.17-.36 6 6 0 0 0 2.52-1.62 6 6 0 0 0 1.45-2.6 2 2 0 0 1 .43 1.22Zm-6.7-2.67a1 1 0 0 0 .17-.3 1 1 0 0 0 .28-.19c.36-.38 2.16-.16 3.4 1a5 5 0 0 1 .97 1.27 5 5 0 0 1-.94 1.4 5 5 0 0 1-1.36 1.02 5 5 0 0 1-1.32-.88 4.3 4.3 0 0 1-1.34-2.72 1 1 0 0 1 .14-.6" transform="translate(-.008 -23.605)"/><path id="Path_378" d="M33.86 183.8a2.3 2.3 0 0 0-.63-1.12.7.7 0 0 0-.36-.66.8.8 0 0 0-.78 0c-1.3-.42-3.37.74-4.4 2.52l-.3.57-.12-.05h-.17a1.5 1.5 0 0 0-1.32.8 3.6 3.6 0 0 0 .84 4.43q-.04.05-.12.1a3 3 0 0 1-.72.45.64.64 0 0 0-.35.83.6.6 0 0 0 .59.4l.24-.05a4 4 0 0 0 1.07-.66l.3-.28a5 5 0 0 0 2.38.67 3.4 3.4 0 0 0 3.02-1.68 1.5 1.5 0 0 0-.05-1.7l-.1-.08.34-.53a5.5 5.5 0 0 0 .62-3.96Zm-5.07 1.38c.85-1.46 2.5-2.19 2.94-1.94a1 1 0 0 0 .34.1 1 1 0 0 0 .25.25 1 1 0 0 1 .3.54 4.3 4.3 0 0 1-.5 2.99 5 5 0 0 1-1 1.21 5 5 0 0 1-1.6-.58 5 5 0 0 1-1.3-1.06 5 5 0 0 1 .56-1.51Zm-.53 4.78a2.7 2.7 0 0 1-1.5-3.18 6 6 0 0 0 2.14 2.08 6 6 0 0 0 2.88.82 2.7 2.7 0 0 1-3.52.28" transform="translate(-4.434 -31.792)"/><path id="Path_379" d="M20.24 194.2a.64.64 0 0 0-.84-.32 3 3 0 0 1-.82.2l-.15.01a4 4 0 0 0-.36-1.8 3.3 3.3 0 0 0-2.24-1.89 1.6 1.6 0 0 0-1.61.52l-.05.13a5 5 0 0 0-.62-.2c-1.98-.5-4.24.2-4.86 1.4a.75.75 0 0 0-.33 1.29 2.3 2.3 0 0 0 .36 1.23 5.5 5.5 0 0 0 3.27 2.3l.62.12-.01.12a1.5 1.5 0 0 0 1.18 1.23 4 4 0 0 0 .82.1 4 4 0 0 0 3.66-3.27l.4-.03a4 4 0 0 0 1.24-.31.64.64 0 0 0 .32-.84Zm-10.42-.07a1 1 0 0 1-.18-.6 1 1 0 0 0 0-.34 1 1 0 0 0 .15-.3c.14-.52 1.81-1.2 3.45-.8a5 5 0 0 1 1.47.67 5 5 0 0 1-.14 1.66 5 5 0 0 1-.67 1.55 5 5 0 0 1-1.6-.12 4.3 4.3 0 0 1-2.49-1.72Zm7.23.9a2.75 2.75 0 0 1-2.43 2.35h-.21a6 6 0 0 0 1.4-2.65 6 6 0 0 0 0-2.98 2 2 0 0 1 1.1 1.08 3.4 3.4 0 0 1 .15 2.22Z" transform="translate(-1.424 -33.267)"/><path id="Path_380" d="M59.4 226.86h.06c2.35 0 4.14-1.51 4.16-3.52a1.5 1.5 0 0 0-.87-1.45l-.12-.02.04-.63a5.5 5.5 0 0 0-1.38-3.76 2.2 2.2 0 0 0-1.1-.67.8.8 0 0 0-.66-.41.8.8 0 0 0-.66.39c-1.34.27-2.59 2.3-2.62 4.36l.03.64-.14.02a1.5 1.5 0 0 0-.91 1.42 3.3 3.3 0 0 0 1.24 2.65 4 4 0 0 0 1.65.81q-.01.06-.05.14a3 3 0 0 1-.4.74.64.64 0 0 0 .1.9.6.6 0 0 0 .4.14.6.6 0 0 0 .5-.23 4 4 0 0 0 .61-1.12q.09-.22.12-.39Zm-.24-8.83a.6.6 0 0 0 .35-.08 1 1 0 0 0 .33.1 1 1 0 0 1 .53.32 4.3 4.3 0 0 1 1.02 2.85 5 5 0 0 1-.3 1.58 5 5 0 0 1-1.65.25 5 5 0 0 1-1.64-.29 5 5 0 0 1-.27-1.59c.03-1.68 1.13-3.13 1.63-3.13Zm-2.63 5.53a6 6 0 0 0 2.97.76 5.6 5.6 0 0 0 2.83-.7 2.7 2.7 0 0 1-2.87 1.97h-.06a3.4 3.4 0 0 1-2.1-.7 2 2 0 0 1-.77-1.33" transform="translate(-9.659 -37.82)"/><path id="Path_381" d="M53.6 233.86a3 3 0 0 1-.63.58l-.12.08a3.7 3.7 0 0 0-3.2-2.06 4 4 0 0 0-.88.12 1.5 1.5 0 0 0-1.15 1.24l.01.13-.62.13c-1.99.54-3.62 2.24-3.56 3.61a.75.75 0 0 0 .35 1.28 2.3 2.3 0 0 0 .92.9 5 5 0 0 0 2.48.6 6 6 0 0 0 1.5-.2q.3-.08.6-.2l.04.11a1.5 1.5 0 0 0 1.16.55 2 2 0 0 0 .46-.06A3.3 3.3 0 0 0 53 239.1a4.5 4.5 0 0 0 .33-3.4l.35-.22a4 4 0 0 0 .92-.87.64.64 0 1 0-1.02-.77Zm-5.22 5.19a4.3 4.3 0 0 1-3.02-.29 1 1 0 0 1-.45-.42 1 1 0 0 0-.16-.3 1 1 0 0 0-.01-.35c-.14-.5.99-1.93 2.61-2.37a5 5 0 0 1 1.6-.16 5 5 0 0 1 .7 1.53 5 5 0 0 1 .18 1.66 5 5 0 0 1-1.45.7m3.52-.57a2 2 0 0 1-.96.86 6.1 6.1 0 0 0-1.52-5.6 2.7 2.7 0 0 1 2.69 2.27 3.3 3.3 0 0 1-.21 2.47" transform="translate(-7.557 -40.627)"/><path id="Path_382" d="M94.9 246.05c.43 0 .83-.03.92-.34l.02-.14.02-.07c.02-.3.04-.62-4.19-1.4.04-1.54-.05-4.64-1.92-5.85a2 2 0 0 0-1.16-.37 2.5 2.5 0 0 0-2 1.49l-.22.33c-.19-.15-.28-.51-.43-1.64l-.11-.71c-.17-1.18-.54-3.64-3.04-4.35a3 3 0 0 0-.9-.13c-1.81 0-2.32 1.7-2.62 2.71-.1.36-.29.98-.48 1.08-.32-.26-.31-1.9-.3-2.61v-.52c-.02-3.34-1.58-5.26-4.28-5.26a7 7 0 0 0-.82.06 2.6 2.6 0 0 0-1.86.9c-.83 1.01-.65 2.49-.49 3.8a8 8 0 0 1 .1 1.4l-.27.03q-.67.02-1.48-1.5a5 5 0 0 0-4.36-2.83 5.5 5.5 0 0 0-4.53 2.72 4.9 4.9 0 0 0 4.22 7.92q.26 0 .5-.02l.52-.01c1.28 0 1.75.34 2.01.91a9 9 0 0 1-1.19.66c-1.18.56-2.51 1.2-2.84 2.48a2.8 2.8 0 0 0 .56 2.32 5.5 5.5 0 0 0 4.45 2.4 6 6 0 0 0 4.05-1.7l.5-.45c.67-.64 1.6-1.51 2.12-1.51l.26.07a3 3 0 0 1-.32 1 3.5 3.5 0 0 0-.3 2.81 3 3 0 0 0 1.9 1.5 5 5 0 0 0 1.67.29 5.4 5.4 0 0 0 3.94-2.05l.1-.1.57-.64c.6-.67.93-1.03 1.27-1.03h.01l.07.4c.11.76.35 2.61 2.6 2.38 1.8-.19 3.22-1.8 4.22-4.74a30 30 0 0 0 3.5.33Zm-7.92 2.5-.32-.01a2 2 0 0 1-.19-.75c-.1-.64-.25-1.71-1.33-1.94a3 3 0 0 0-.63-.08c-1.22 0-1.94.81-2.7 1.68q-.24.28-.54.58l-.1.13a3.5 3.5 0 0 1-2.54 1.42 3 3 0 0 1-1.06-.19 1.4 1.4 0 0 1-.77-.47c-.11-.24.13-.83.32-1.3.35-.85.94-2.27-.3-3.21a2.3 2.3 0 0 0-1.41-.49c-1.3 0-2.39 1.03-3.44 2.03l-.47.44a4.2 4.2 0 0 1-2.76 1.2 3.7 3.7 0 0 1-2.9-1.63c-.12-.17-.32-.5-.26-.7.1-.42 1.14-.91 1.83-1.24 1.18-.57 2.8-1.34 2.22-2.89a3.75 3.75 0 0 0-3.86-2.3l-.65.02a3.04 3.04 0 0 1-3-4.94 3.7 3.7 0 0 1 2.95-1.87 3.1 3.1 0 0 1 2.68 1.85c.59 1.07 1.54 2.5 3.15 2.5a3 3 0 0 0 1.16-.25c1.26-.52 1.08-2.01.91-3.33-.1-.83-.24-1.97.08-2.36.03-.04.14-.17.58-.2a4 4 0 0 1 .61-.05c.65 0 2.36 0 2.37 3.37v.5c0 1.44-.01 3.08.87 3.97a2 2 0 0 0 1.57.55c1.4-.1 1.8-1.45 2.1-2.43.43-1.45.6-1.45 1.16-1.29 1.22.35 1.49 1.52 1.68 2.79l.1.7c.2 1.45.42 2.95 2.14 3.33l.3.04c.9 0 1.37-.75 1.71-1.3l.38-.6.15.08c.4.26 1.05 1.12 1.04 3.91l-1.48-.24c-7.07-1.24-16-4.77-18.93-5.92a8 8 0 0 0-1.01-.37.3.3 0 0 0-.24.11l-.06.08-.02.1.01.14c.21.6 11.76 6.1 19.92 7.55l1.52.23c-.87 2.43-1.83 3.04-2.5 3.12Z" transform="translate(-10.404 -39.894)"/><path id="Path_383" d="m32.56 84.95.12.18.02.1h.3c.14 0 .29 0 1.2-.98a10 10 0 0 0 4.3 1.37 3.5 3.5 0 0 0 1.72-.42 2 2 0 0 0 1-1.22 2.7 2.7 0 0 0-.54-2.07l-.18-.31a4 4 0 0 1 1.48.35l.8.26a7 7 0 0 0 2.31.47 3.6 3.6 0 0 0 2.81-1.23 2.5 2.5 0 0 0 .8-1.8 3.6 3.6 0 0 0-1.46-2.43 4 4 0 0 1-.72-.79q.03-.04.16-.04a7 7 0 0 1 2.34.9l.36.17c3.32 1.59 5.94.68 6.85-2.17a2.6 2.6 0 0 0-.03-2.09c-.55-1.16-1.89-1.63-3.08-2.03a7 7 0 0 1-1.23-.5c.06-.4.3-.9 2-.9a5 5 0 0 0 4.36-2.38 5.4 5.4 0 0 0-.3-5.37 4.88 4.88 0 0 0-9.04.61c-.71 1.55-1.23 1.87-1.83 1.88a8 8 0 0 1-.05-1.34c0-1.25.02-2.67-.84-3.53a2.3 2.3 0 0 0-1.7-.66 4 4 0 0 0-.69.06 5.8 5.8 0 0 0-3.98 2.6 5.5 5.5 0 0 0-.4 4.5l.22.76c.4 1.3.68 2.38.2 2.6a3 3 0 0 1-.74-.72 3.4 3.4 0 0 0-2.46-1.53 3 3 0 0 0-2.08 1 5 5 0 0 0-.9 5.75l.05.13.26.66c.4 1 .49 1.33.35 1.61l-.36-.11a4 4 0 0 0-1.3-.27 2.05 2.05 0 0 0-1.96 1.47q-1 2.56 2.41 5.97c-.7 1.13-.6 1.36-.53 1.5Zm-.1-6.77a1 1 0 0 1 .19-.27 3 3 0 0 1 .68.17 4 4 0 0 0 1.13.24 1.5 1.5 0 0 0 1.2-.56c1.02-1.28.53-2.5.06-3.7l-.24-.63-.06-.15c-.45-1.19-.78-2.46.45-3.7.43-.4.67-.45.74-.45.27 0 .68.48 1.01.86a3 3 0 0 0 2.17 1.37 2 2 0 0 0 .77-.16c2.1-.88 1.36-3.3.87-4.9l-.21-.73a3.7 3.7 0 0 1 .21-3 4 4 0 0 1 2.7-1.69l.33-.03c.26 0 .32.06.35.09.3.3.3 1.43.29 2.17-.01 1.3-.03 3.1 1.57 3.24 2.2.22 3.24-1.4 3.97-2.99a3.3 3.3 0 0 1 2.88-2.22 3.2 3.2 0 0 1 2.74 1.79 3.6 3.6 0 0 1 .3 3.48 3.1 3.1 0 0 1-2.73 1.4c-3.04.02-3.79 1.56-3.88 2.86-.07 1.37 1.37 1.87 2.53 2.26.74.26 1.76.62 1.97 1.05.02.05.1.2-.06.65-.49 1.5-1.37 1.68-2 1.68a5.4 5.4 0 0 1-2.21-.6l-.32-.16a8 8 0 0 0-3.21-1.11 2 2 0 0 0-1.92 1.19c-.58 1.28.47 2.28 1.17 2.94.34.33.85.81.86 1.08a1 1 0 0 1-.3.47 1.8 1.8 0 0 1-1.4.62 6 6 0 0 1-1.7-.38l-.79-.26a6 6 0 0 0-1.98-.46 2.2 2.2 0 0 0-1.78.86c-.7.85-.14 1.79.2 2.35a3 3 0 0 1 .31.6l-.08.06a1.6 1.6 0 0 1-.77.16 7.5 7.5 0 0 1-3-.93q1-1.18 2.7-3.26a108 108 0 0 1 13.99-13.45l.07-.05q1.16-.82 1.17-1v-.13l-.16-.22h-.16c-.12 0-.19 0-1.31.89-2.58 1.82-10.4 7.34-14.9 12.85a83 83 0 0 0-2.7 3.45c-1.94-2.04-1.92-3.17-1.72-3.67Z" transform="translate(-5.332 -10.306)"/><path id="Path_384" d="M41.05 224.72c1.86 0 3.64-1.4 4.55-2.22a3.4 3.4 0 0 0 1.44.71.4.4 0 0 0 .38-.2l.01-.04.1-.13c.05-.17.08-.3-1-1.38.67-1.1 2.5-4.16 1.3-6.22a1.9 1.9 0 0 0-1.7-1.1 3.4 3.4 0 0 0-1.54.5l-.27.14c-.06-.21.04-.58.4-1.51l.26-.72c.38-1 1.26-3.34-.56-5.12a2.5 2.5 0 0 0-1.82-.93 3.7 3.7 0 0 0-2.42 1.36c-.26.24-.69.66-.84.66-.2-.33.68-1.91.97-2.43l.19-.35a5.6 5.6 0 0 0 .67-4.58 4.1 4.1 0 0 0-2.53-2.36 3 3 0 0 0-1.17-.25c-1.83 0-2.56 1.84-3.08 3.17a7 7 0 0 1-.56 1.22c-.38-.09-.86-.37-.89-1.94a5 5 0 0 0-1.27-3.85c-1.44-1.5-3.98-1.76-6.27-.58a5 5 0 0 0-2.9 4.4 5.4 5.4 0 0 0 3.15 4.7c1.63.73 1.87 1.28 1.82 1.84a10 10 0 0 1-1.32 0l-1.04-.03a3.4 3.4 0 0 0-2.7.9 2.7 2.7 0 0 0-.52 2.18c.44 3.05 2.43 4.94 5.2 4.94a7 7 0 0 0 1.7-.23l.75-.19a9 9 0 0 1 2-.38c.5 0 .55.14.6.27a3 3 0 0 1-.74.7 3.5 3.5 0 0 0-1.62 2.27 3 3 0 0 0 .87 2.27 4.5 4.5 0 0 0 3.42 1.55 7 7 0 0 0 2.29-.44l.18-.06.7-.24a5 5 0 0 1 1.3-.35.4.4 0 0 1 .29.08l-.14.39c-.27.67-.97 2.47 1.1 3.34a4 4 0 0 0 1.26.23Zm-2.5-5.95a6 6 0 0 0-1.94.47l-.65.22-.2.06a5 5 0 0 1-1.68.35 2.6 2.6 0 0 1-1.98-.9 1.4 1.4 0 0 1-.4-.8c.03-.29.52-.68.9-.98.75-.6 1.88-1.49 1.34-2.89a2.3 2.3 0 0 0-2.39-1.5 10 10 0 0 0-2.5.45l-.73.18a5 5 0 0 1-1.23.16c-1.83 0-3-1.17-3.31-3.28a1 1 0 0 1 .06-.66c.09-.1.35-.25 1.26-.25l.95.03.94.04q2.16-.01 2.35-1.45c.37-2.3-1.35-3.39-2.86-4.06a3.5 3.5 0 0 1-2.07-2.97 3.1 3.1 0 0 1 1.86-2.7c1.54-.8 3.14-.71 4.01.2a3.3 3.3 0 0 1 .74 2.5q.06 3.53 2.78 3.9h.15c1.26 0 1.77-1.3 2.22-2.45.34-.87.77-1.96 1.3-1.96a1 1 0 0 1 .44.1 2.3 2.3 0 0 1 1.46 1.28 4 4 0 0 1-.56 3l-.17.32c-.7 1.26-1.5 2.69-1.14 3.9a2 2 0 0 0 1.01 1.2 2 2 0 0 0 .82.2 3.3 3.3 0 0 0 2.17-1.23c.34-.33.84-.82 1.1-.82.06 0 .2.07.44.34.9.87.58 1.98.15 3.12l-.27.72c-.49 1.29-.99 2.62.22 3.8a1.5 1.5 0 0 0 1 .4 3 3 0 0 0 1.34-.46l.58-.3.1.16c.2.32.45 1.33-1.05 3.9-.76-.7-1.74-1.62-3.04-2.8-3.62-3.22-8.04-8.29-13.14-15.06q-.57-.76-.75-.76l-.11.02a.4.4 0 0 0-.2.25c-.13.62 6.9 11.35 13.03 16.8a75 75 0 0 0 3.14 2.76 5.2 5.2 0 0 1-3 1.5 2 2 0 0 1-.53-.1l-.25-.13a3 3 0 0 1 .22-.74c.23-.6.62-1.6-.16-2.33a2.5 2.5 0 0 0-1.76-.75Z" transform="translate(-3.827 -34.226)"/><path id="Path_385" d="m9.6 174.47.82.15c1 .17 1.33.27 1.5.52l-.29.24c-.55.46-1.99 1.68-.66 3.42a4.2 4.2 0 0 0 3.56 1.45 11 11 0 0 0 2.61-.35c.69 1.46.92 1.47 1.1 1.47a.4.4 0 0 0 .28-.14l.13-.07c.09-.12.2-.3-.21-1.77 1.25-.7 4.02-2.41 4.08-4.7a2 2 0 0 0-.52-1.48 2.8 2.8 0 0 0-2.06-.63h-.35c.04-.22.3-.49 1.1-1.16l.56-.46c.9-.76 2.78-2.32 2.1-4.8a2.35 2.35 0 0 0-2.35-1.91 6 6 0 0 0-1.62.28 5 5 0 0 1-1 .2q-.11 0-.12-.04c.07-.4 1.44-1.23 2.02-1.57l.42-.26a5.4 5.4 0 0 0 2.85-3.6 4.1 4.1 0 0 0-1.13-3.36 2.5 2.5 0 0 0-2.02-1.12 5.4 5.4 0 0 0-3.11 1.57 9 9 0 0 1-1.08.8c-.32-.25-.57-.64.3-2.18a4.9 4.9 0 0 0 .29-4.9 5.5 5.5 0 0 0-4.8-2.63h-.23a5 5 0 0 0-4.53 2.5 5.3 5.3 0 0 0 .6 5.54c.98 1.4.84 2.06.56 2.52a8 8 0 0 1-1.15-.66 6 6 0 0 0-2.9-1.2 2.5 2.5 0 0 0-2.32 1.8 5.7 5.7 0 0 0 .13 4.63 5.8 5.8 0 0 0 3.66 2.83l.64.18c1.38.37 2.44.7 2.41 1.22a3 3 0 0 1-.97.24 3.5 3.5 0 0 0-2.52 1.2 3 3 0 0 0-.3 2.36 4.9 4.9 0 0 0 4.36 3.8l.14.04Zm-2.62-4.26c-.14-.61-.04-.82 0-.87.14-.21.78-.31 1.24-.39.9-.14 2.4-.38 2.55-1.92.2-2.2-2.11-2.82-3.8-3.28q-.3-.07-.6-.17a4 4 0 0 1-2.5-1.86 3.8 3.8 0 0 1-.05-3.07c.25-.57.45-.57.54-.57a5 5 0 0 1 1.88.9 4.7 4.7 0 0 0 2.3.99 1.6 1.6 0 0 0 1.3-.65c1.54-2.13.07-4.23-.41-4.9a3.4 3.4 0 0 1-.48-3.56 3 3 0 0 1 2.84-1.49h.16a3.6 3.6 0 0 1 3.18 1.64 3 3 0 0 1-.26 3.02c-.46.81-1.87 3.26.35 4.77a1.5 1.5 0 0 0 .92.3 4 4 0 0 0 2.35-1.24c.6-.48 1.42-1.14 1.9-1.14.08 0 .24 0 .53.4a2.4 2.4 0 0 1 .74 1.88 3.8 3.8 0 0 1-1.98 2.26l-.4.25c-1.24.76-2.66 1.6-2.9 2.85a1.98 1.98 0 0 0 2 2.31 6 6 0 0 0 1.5-.26 5 5 0 0 1 1.13-.21c.21 0 .36 0 .5.5.33 1.2-.51 2.01-1.48 2.82l-.54.46c-1.1.9-2.23 1.84-1.68 3.5.36 1.02 1.45 1.04 2.1 1.04a3 3 0 0 1 .68.05v.11c0 .47-.4 1.44-2.75 2.86-.32-.97-.75-2.2-1.33-3.8-2.2-6.28-3.43-14.94-3.97-18.64q-.29-2-.6-2l-.25.14c-.31.43.35 12.86 3.19 21.03.6 1.65 1.08 2.9 1.47 3.87a9 9 0 0 1-1.85.22 2.5 2.5 0 0 1-2.04-.7 1 1 0 0 1-.15-.26 2 2 0 0 1 .53-.53c.49-.42 1.31-1.1.95-2.13-.51-1.54-1.8-1.77-3.06-1.98l-.76-.14-.16-.03c-1.23-.24-2.47-.62-2.85-2.36Z" transform="translate(-.287 -25.768)"/><path id="Path_386" d="m8.77 120.8.1.1q.33.25.6.48c.83.67 1.08.9 1.09 1.21l-.38.08c-.7.14-2.55.5-2.27 2.64.22 1.77 1.87 3.1 4.86 4-.05 1.15.12 1.37.2 1.47a.5.5 0 0 0 .35.15l.1.01c.21 0 .35-.02.68-1.42 1.37 0 4.65-.13 5.89-2.13a2 2 0 0 0 .29-1.55 2.7 2.7 0 0 0-1.48-1.54l-.29-.17c.14-.17.5-.27 1.48-.46l.75-.15c1.06-.2 3.56-.66 4.15-3.17.6-2.52-1.63-3.09-2.69-3.36a4 4 0 0 1-1.01-.34v-.02c.32-.35 1.82-.4 2.63-.44l.38-.02a5.5 5.5 0 0 0 4.19-1.76 4.2 4.2 0 0 0 .74-3.47 2.6 2.6 0 0 0-2.85-2.31 11 11 0 0 0-1.86.22 8 8 0 0 1-1.22.16h-.1c-.13-.38-.14-.98 1.24-1.76a4.9 4.9 0 0 0 2.69-4.12 5.5 5.5 0 0 0-2.88-4.63 4.95 4.95 0 0 0-6.28.61 5.6 5.6 0 0 0-1.33 4.33c.14 1.7-.1 2.24-.65 2.54a10 10 0 0 1-.7-1.14c-.67-1.23-1.5-2.76-3.04-2.76a2.8 2.8 0 0 0-1.77.71 5.6 5.6 0 0 0-2.27 4.08 5.7 5.7 0 0 0 1.87 4.28q.26.28.55.55c.97.93 1.74 1.74 1.38 2.16a4 4 0 0 1-.96-.27 5 5 0 0 0-1.75-.41c-.8 0-1.89.37-2.42 2.17a4.9 4.9 0 0 0 1.99 5.46Zm-.15-4.93c.23-.79.47-.79.59-.79a4 4 0 0 1 1.1.3 5 5 0 0 0 1.6.39 1.9 1.9 0 0 0 1.55-.75c1.43-1.79-.39-3.54-1.58-4.7l-.54-.53a3.8 3.8 0 0 1-1.3-2.84 3.8 3.8 0 0 1 1.57-2.68 1 1 0 0 1 .56-.29c.4 0 1 1.1 1.37 1.77.59 1.08 1.2 2.2 2.31 2.2a2 2 0 0 0 .61-.13c2.3-.9 2.11-3.27 2.02-4.55a3.7 3.7 0 0 1 .83-2.87 3.04 3.04 0 0 1 3.88-.27 3.6 3.6 0 0 1 1.96 2.96 3 3 0 0 1-1.72 2.49c-2.71 1.53-2.4 3.39-1.96 4.4a1.8 1.8 0 0 0 1.77.93 9 9 0 0 0 1.55-.19 10 10 0 0 1 1.53-.19c.77 0 .89.22.96.7a2.5 2.5 0 0 1-.35 1.97 3.8 3.8 0 0 1-2.79 1.05l-.36.02c-1.45.06-3.1.11-3.96 1.05a2 2 0 0 0-.51 1.5c.11 1.4 1.52 1.75 2.45 2 1.47.38 1.43.52 1.3 1.07-.28 1.2-1.41 1.5-2.64 1.73l-.77.15c-1.36.26-2.77.54-3.1 2.2-.2 1.08.75 1.63 1.32 1.96a3 3 0 0 1 .55.36l-.04.08c-.26.42-1.1 1.1-3.84 1.2.22-1.04.48-2.41.82-4.22 1.12-6.45 4.3-14.55 5.67-18q.77-1.97.57-2.16a.4.4 0 0 0-.2-.07c-.77 0-6.32 12-7.71 19.9a77 77 0 0 0-.71 4.33c-2.57-.82-3.08-1.76-3.14-2.28a1 1 0 0 1 0-.3 2 2 0 0 1 .72-.22c.63-.13 1.68-.33 1.88-1.4.32-1.62-.73-2.45-1.74-3.27l-.56-.46-.11-.1c-.97-.8-1.88-1.75-1.38-3.46Z" transform="translate(-1.154 -17.069)"/><path id="Path_387" d="m203.04 90.77-.08.11a3 3 0 0 1-.6.6.64.64 0 0 0-.16.88.6.6 0 0 0 .52.27.6.6 0 0 0 .37-.11 4 4 0 0 0 .9-.9l.24-.33a5 5 0 0 0 1.5.24 3.5 3.5 0 0 0 3.55-2.4 1.5 1.5 0 0 0-.43-1.64l-.1-.05.22-.6a5.5 5.5 0 0 0-.25-4 2.3 2.3 0 0 0-.86-.96.8.8 0 0 0-.5-.56.8.8 0 0 0-.77.17c-1.35-.1-3.13 1.46-3.75 3.42l-.15.62-.13-.02a1.5 1.5 0 0 0-1.28 1.1 3.4 3.4 0 0 0 .43 2.9 4 4 0 0 0 1.36 1.25Zm1-5.46c.52-1.62 1.99-2.69 2.47-2.54a1 1 0 0 0 .35.03 1 1 0 0 0 .3.18 1 1 0 0 1 .41.46 4.3 4.3 0 0 1 .17 3.02 5 5 0 0 1-.74 1.42h-.15a5 5 0 0 1-1.5-.24 5 5 0 0 1-1.5-.76 5 5 0 0 1 .2-1.6Zm-1.64 2a6 6 0 0 0 2.55 1.56 7 7 0 0 0 1.89.3 4 4 0 0 0 1.09-.12 2.3 2.3 0 0 1-2.21 1.22 4 4 0 0 1-1.16-.18 3.4 3.4 0 0 1-1.81-1.27 2 2 0 0 1-.36-1.5Z" transform="translate(-35.157 -14.203)"/><path id="Path_388" d="m195.4 97.7.4-.1a4 4 0 0 0 1.14-.57.64.64 0 0 0 .14-.89.63.63 0 0 0-.9-.13 3 3 0 0 1-.75.39l-.15.04a3.6 3.6 0 0 0-3.4-3.03 1.5 1.5 0 0 0-1.4.87l-.02.13-.64-.05c-2.07-.04-4.1 1.12-4.44 2.45a.8.8 0 0 0-.41.65.8.8 0 0 0 .38.66 2.3 2.3 0 0 0 .63 1.13 5.5 5.5 0 0 0 3.7 1.52h.14l.5-.02.02.12a1.5 1.5 0 0 0 1.41.92h.1c2.02 0 3.52-1.71 3.58-4.08Zm-5.71 1.8a4.3 4.3 0 0 1-2.8-1.14 1 1 0 0 1-.31-.53 1 1 0 0 0-.08-.34 1 1 0 0 0 .09-.33c.01-.53 1.5-1.57 3.18-1.54a5 5 0 0 1 1.58.32 5 5 0 0 1 .24 1.65 5 5 0 0 1-.32 1.67 5 5 0 0 1-1.58.23m2.38 1a6.1 6.1 0 0 0 .14-5.79 3.1 3.1 0 0 1-.14 5.8Z" transform="translate(-32.332 -16.325)"/><path id="Path_389" d="M205.24 145.34a3.3 3.3 0 0 0 1.7.48 4.2 4.2 0 0 0 3.52-2.2q.16.06.4.1a4 4 0 0 0 .83.1l.43-.03a.64.64 0 0 0-.15-1.27 3 3 0 0 1-.85-.04l-.15-.03a4 4 0 0 0 .19-1.84 3.3 3.3 0 0 0-1.6-2.45 1.6 1.6 0 0 0-.84-.25 1.4 1.4 0 0 0-.85.27l-.08.1-.53-.36c-1.76-1.05-4.1-1.06-5.07-.07a.8.8 0 0 0-.68.36.8.8 0 0 0 0 .77 2.3 2.3 0 0 0 0 1.3 5.5 5.5 0 0 0 2.45 3.16l.56.3-.05.1a1.5 1.5 0 0 0 .78 1.52Zm4.66-4.57a3.4 3.4 0 0 1-.52 2.17 2.7 2.7 0 0 1-3.2 1.45 5.7 5.7 0 0 0 2.11-2.1 6 6 0 0 0 .88-2.87 2 2 0 0 1 .73 1.36Zm-7.16-.81a1 1 0 0 1 0-.62 1 1 0 0 0 .1-.33 1 1 0 0 0 .24-.25c.28-.45 2.08-.62 3.54.25a5 5 0 0 1 1.22 1.05 5 5 0 0 1-.62 1.56 5 5 0 0 1-1.1 1.3 5 5 0 0 1-1.5-.6 4.3 4.3 0 0 1-1.87-2.37Z" transform="translate(-35.205 -23.963)"/><path id="Path_390" d="m221.81 137.01-.1-.08a1.4 1.4 0 0 0-.58-.12 1.6 1.6 0 0 0-1.08.45 3.3 3.3 0 0 0-1.05 2.34 4 4 0 0 0 .56 2.15l-.13.06a3 3 0 0 1-.82.22.64.64 0 0 0 .07 1.28h.06a4 4 0 0 0 1.22-.33l.38-.19a4.5 4.5 0 0 0 3.18 1.5 3.3 3.3 0 0 0 2.28-.91 1.5 1.5 0 0 0 .44-1.64l-.07-.1.49-.41a5.5 5.5 0 0 0 1.74-3.61 2.3 2.3 0 0 0-.28-1.26.8.8 0 0 0-.15-.74.8.8 0 0 0-.75-.22c-1.13-.77-3.44-.27-4.95 1.15q-.23.22-.45.46Zm-.58 4.89a3.3 3.3 0 0 1-.96-2.26 2 2 0 0 1 .43-1.22 6.1 6.1 0 0 0 3.98 4.22 2.7 2.7 0 0 1-3.45-.74m5.28-5.43a1 1 0 0 0 .3.2 1 1 0 0 0 .17.3 1 1 0 0 1 .13.62 4.3 4.3 0 0 1-1.34 2.71 5 5 0 0 1-1.32.89 5 5 0 0 1-1.35-1.03 5 5 0 0 1-.94-1.4 5 5 0 0 1 .97-1.27c1.23-1.16 3.04-1.37 3.38-1.01Z" transform="translate(-38.112 -23.602)"/><path id="Path_391" d="M202.97 185.85a1.5 1.5 0 0 0-1.32-.8h-.17q-.07.01-.13.05-.13-.29-.29-.57c-1.03-1.77-3.07-2.91-4.4-2.52a.74.74 0 0 0-1.14.66 2.3 2.3 0 0 0-.63 1.12 5.5 5.5 0 0 0 .62 3.95l.35.54-.1.07a1.5 1.5 0 0 0-.05 1.7 3.4 3.4 0 0 0 3.02 1.68 5 5 0 0 0 2.38-.67l.3.28a4 4 0 0 0 1.07.67l.24.05a.6.6 0 0 0 .59-.4.65.65 0 0 0-.35-.84 3 3 0 0 1-.72-.44l-.12-.1a3.6 3.6 0 0 0 .84-4.43Zm-6.86-1.72a1 1 0 0 1 .3-.55 1 1 0 0 0 .25-.23 1 1 0 0 0 .33-.1c.45-.26 2.12.46 2.97 1.92a5 5 0 0 1 .56 1.51 5 5 0 0 1-1.3 1.07 5 5 0 0 1-1.61.58 5 5 0 0 1-1-1.22 4.3 4.3 0 0 1-.5-2.98m4.37 5.82a3.6 3.6 0 0 1-1.76.51 2.1 2.1 0 0 1-1.74-.79 6.1 6.1 0 0 0 5.01-2.9 2.7 2.7 0 0 1-1.5 3.18Z" transform="translate(-34.043 -31.789)"/><path id="Path_392" d="M219.31 192.27c-.61-1.2-2.87-1.9-4.88-1.4l-.6.18-.06-.12a1.6 1.6 0 0 0-1.6-.52 3.4 3.4 0 0 0-2.25 1.88 4 4 0 0 0-.37 1.8h-.14a2 2 0 0 1-.82-.2.64.64 0 0 0-.52 1.16 4 4 0 0 0 1.23.31l.4.03a4 4 0 0 0 3.66 3.27 3 3 0 0 0 .83-.1 1.5 1.5 0 0 0 1.19-1.23l-.02-.12.63-.12a5.5 5.5 0 0 0 3.27-2.3 2.3 2.3 0 0 0 .37-1.23.8.8 0 0 0 .23-.72.8.8 0 0 0-.55-.56Zm-8.37 2.77a3.3 3.3 0 0 1 .14-2.21 2 2 0 0 1 1.1-1.08 6.1 6.1 0 0 0 1.41 5.62c-1.2.14-2.28-.83-2.65-2.32Zm7.23-.9a4.3 4.3 0 0 1-2.5 1.71 5 5 0 0 1-1.58.13 5 5 0 0 1-.68-1.55 5 5 0 0 1-.14-1.66 5 5 0 0 1 1.48-.67c1.64-.4 3.31.28 3.44.78a1 1 0 0 0 .15.31 1 1 0 0 0 0 .35 1 1 0 0 1-.18.6Z" transform="translate(-36.305 -33.269)"/><path id="Path_393" d="m170.72 226.82-.05-.14a3.6 3.6 0 0 0 2.9-3.46 1.5 1.5 0 0 0-.92-1.42l-.13-.02.02-.64c-.03-2.06-1.27-4.06-2.6-4.35a.8.8 0 0 0-.65-.4.8.8 0 0 0-.67.4 2.3 2.3 0 0 0-1.1.66 5.5 5.5 0 0 0-1.39 3.76l.04.63-.11.02a1.5 1.5 0 0 0-.88 1.45c.03 2.02 1.82 3.54 4.17 3.54h.05q.04.16.12.38a4 4 0 0 0 .62 1.1.6.6 0 0 0 .5.25.64.64 0 0 0 .5-1.04 3 3 0 0 1-.41-.74Zm-2.29-8.46a1 1 0 0 1 .53-.33 1 1 0 0 0 .34-.08 1 1 0 0 0 .3.07h.04c.52 0 1.61 1.45 1.65 3.13a5 5 0 0 1-.27 1.6 5 5 0 0 1-1.7.3 5 5 0 0 1-1.6-.25 5 5 0 0 1-.3-1.59 4.3 4.3 0 0 1 1.02-2.84Zm-1.95 5.27a6 6 0 0 0 2.9.69 6 6 0 0 0 2.88-.77c-.16 1.18-1.3 2.02-2.87 2.04h-.06a2.7 2.7 0 0 1-2.85-1.96" transform="translate(-28.875 -37.818)"/><path id="Path_394" d="m181.12 234.09-.63-.14.02-.13a1.5 1.5 0 0 0-1.15-1.24 3 3 0 0 0-.88-.12 3.7 3.7 0 0 0-3.2 2.06l-.11-.08a3 3 0 0 1-.62-.59.64.64 0 1 0-1.02.77 4 4 0 0 0 .93.88l.34.21a4.5 4.5 0 0 0 .34 3.4 3.3 3.3 0 0 0 2.02 1.56 2 2 0 0 0 .47.07 1.5 1.5 0 0 0 1.16-.56l.04-.1.6.2a6 6 0 0 0 1.5.2 5 5 0 0 0 2.48-.6 2.3 2.3 0 0 0 .92-.9.8.8 0 0 0 .56-.53.8.8 0 0 0-.2-.74c.06-1.37-1.58-3.07-3.57-3.62m-3.92 5.26a2 2 0 0 1-.96-.86 3.3 3.3 0 0 1-.2-2.47 2.8 2.8 0 0 1 2.44-2.29l.24.02a6.1 6.1 0 0 0-1.52 5.6m6.2-1.32a1 1 0 0 0-.17.3q-.02.17-.45.44a4.3 4.3 0 0 1-3.01.28 5 5 0 0 1-1.46-.69 5 5 0 0 1 .18-1.67 5 5 0 0 1 .69-1.53 5 5 0 0 1 1.6.16c1.63.44 2.76 1.86 2.62 2.36a1 1 0 0 0-.01.35Z" transform="translate(-30.312 -40.627)"/><path id="Path_395" d="M157.84 230.12a5 5 0 0 0-4.36 2.84q-.81 1.5-1.47 1.49l-.27-.04a8 8 0 0 1 .1-1.4c.17-1.3.35-2.78-.48-3.8a2.5 2.5 0 0 0-1.81-.9c-3.22-.43-5.13 1.51-5.15 5.2v.51c0 .7 0 2.36-.36 2.62a3 3 0 0 1-.43-1.08c-.3-1.01-.81-2.71-2.62-2.71a3 3 0 0 0-.9.13c-2.5.72-2.87 3.17-3.04 4.35l-.11.72c-.16 1.13-.25 1.5-.43 1.64l-.21-.33a2.5 2.5 0 0 0-2.01-1.49 2 2 0 0 0-1.17.37c-1.87 1.2-1.96 4.31-1.92 5.85-4.23.78-4.2 1.1-4.19 1.4l.02.07.01.14c.1.3.5.33.93.33a30 30 0 0 0 3.5-.33q1.5 4.44 4.22 4.74l.35.02c1.89 0 2.14-1.68 2.25-2.4l.06-.4c.36 0 .69.36 1.28 1.03q.26.31.56.62l.1.11a5.3 5.3 0 0 0 3.95 2.05 5 5 0 0 0 1.68-.3 3 3 0 0 0 1.89-1.5 3.5 3.5 0 0 0-.3-2.82 4 4 0 0 1-.32-.96.4.4 0 0 1 .26-.1c.54 0 1.46.88 2.13 1.51l.49.46a6 6 0 0 0 4.05 1.7 5.5 5.5 0 0 0 4.47-2.44 2.7 2.7 0 0 0 .55-2.28c-.34-1.28-1.68-1.93-2.86-2.49a7 7 0 0 1-1.19-.65c.27-.57.74-.91 2-.91l.52.01a4.94 4.94 0 0 0 4.74-7.9 5.6 5.6 0 0 0-4.54-2.73Zm3.3 7.18a3.2 3.2 0 0 1-3 1.55l-.38-.02-.63-.02a3.8 3.8 0 0 0-3.87 2.32c-.57 1.54 1.04 2.31 2.22 2.88.68.33 1.71.82 1.82 1.24.06.2-.14.53-.24.67a3.7 3.7 0 0 1-2.93 1.66 4.2 4.2 0 0 1-2.76-1.2l-.46-.44c-1.05-1-2.14-2.03-3.44-2.03a2.4 2.4 0 0 0-1.42.49c-1.23.94-.64 2.36-.3 3.2.2.48.44 1.07.32 1.3a1.4 1.4 0 0 1-.76.48 3 3 0 0 1-1.07.19 3.5 3.5 0 0 1-2.53-1.43l-.12-.12q-.28-.3-.52-.59c-.76-.86-1.48-1.67-2.71-1.67a3 3 0 0 0-.62.06c-1.09.23-1.25 1.3-1.35 1.95a2 2 0 0 1-.19.74 1 1 0 0 1-.33.02c-.66-.07-1.61-.69-2.5-3.11l1.53-.24c8.16-1.44 19.72-6.94 19.91-7.54l.02-.14-.02-.1-.06-.09a.3.3 0 0 0-.24-.1 8 8 0 0 0-1 .36c-2.95 1.16-11.87 4.69-18.93 5.93l-1.5.23c0-2.78.64-3.64 1.04-3.9l.11-.06a4 4 0 0 1 .42.58c.4.62.92 1.51 2.03 1.27 1.72-.4 1.93-1.88 2.13-3.33l.1-.7c.2-1.27.46-2.44 1.68-2.79.57-.15.73-.15 1.16 1.29.3.98.7 2.32 2.1 2.43a1.9 1.9 0 0 0 1.58-.56c.87-.88.86-2.51.86-3.96v-.5c.02-3.36 1.73-3.36 2.36-3.36a5 5 0 0 1 .66.05c.4.04.5.16.54.2.31.4.17 1.54.07 2.37-.16 1.32-.34 2.82.92 3.33a3 3 0 0 0 1.15.24c1.61 0 2.57-1.42 3.15-2.48a3.1 3.1 0 0 1 2.68-1.85 3.7 3.7 0 0 1 2.95 1.87 3.3 3.3 0 0 1 .36 3.4Z" transform="translate(-22.203 -39.892)"/><path id="Path_396" d="M199.88 207.5q-.53 0-1.04.03a9 9 0 0 1-1.33 0c-.05-.56.17-1.1 1.87-1.87a5.3 5.3 0 0 0 3.1-4.67 5 5 0 0 0-2.9-4.4c-2.3-1.18-4.83-.93-6.27.58a5 5 0 0 0-1.27 3.79c-.03 1.69-.55 1.94-.9 2a7 7 0 0 1-.55-1.22c-.53-1.34-1.25-3.18-3.09-3.18a3 3 0 0 0-1.15.24 4.1 4.1 0 0 0-2.55 2.38 5.6 5.6 0 0 0 .68 4.6l.18.32c.28.5 1.12 2.02.93 2.45a5 5 0 0 1-.8-.69 3.7 3.7 0 0 0-2.42-1.35 2.4 2.4 0 0 0-1.78.88c-1.87 1.82-.99 4.17-.6 5.17l.26.72c.36.94.45 1.3.4 1.5l-.28-.14a3.4 3.4 0 0 0-1.54-.5 1.9 1.9 0 0 0-1.69 1.08c-1.22 2.08.61 5.14 1.3 6.23-1.1 1.09-1.07 1.2-1 1.38a.4.4 0 0 0 .1.17l.09.1a1 1 0 0 0 .29.1 3.4 3.4 0 0 0 1.44-.72c.93.82 2.7 2.23 4.56 2.23a3 3 0 0 0 1.27-.24c2.05-.85 1.34-2.66 1.08-3.34l-.14-.39a.5.5 0 0 1 .28-.08 5 5 0 0 1 1.3.36l.7.24.17.05a7 7 0 0 0 2.29.45 4.5 4.5 0 0 0 3.46-1.6 3 3 0 0 0 .83-2.22 3.5 3.5 0 0 0-1.62-2.27c-.26-.2-.69-.55-.72-.72.05-.12.1-.26.6-.26a9 9 0 0 1 2 .38l.74.19a7 7 0 0 0 1.72.23c2.76 0 4.76-1.9 5.2-4.95a2.7 2.7 0 0 0-.53-2.17 3.5 3.5 0 0 0-2.69-.9Zm1.32 2.8c-.38 2.58-2.03 3.79-4.57 3.13l-.7-.18a10 10 0 0 0-2.5-.45 2.3 2.3 0 0 0-2.38 1.49c-.54 1.4.58 2.3 1.33 2.9.4.3.88.7.91.97a1.4 1.4 0 0 1-.37.78 2.6 2.6 0 0 1-2.01.93 5 5 0 0 1-1.69-.35l-.19-.06-.65-.23a6 6 0 0 0-1.95-.47 2.5 2.5 0 0 0-1.74.73 2 2 0 0 0-.17 2.35 3 3 0 0 1 .22.73l-.23.14c-.87.33-2.09-.15-3.56-1.4q1.3-1.08 3.14-2.75c6.13-5.47 13.16-16.2 13.05-16.81a.3.3 0 0 0-.2-.25l-.12-.02q-.18 0-.74.75c-5.1 6.78-9.52 11.85-13.15 15.07-1.3 1.2-2.28 2.1-3.04 2.82-1.5-2.58-1.25-3.6-1.05-3.94l.06-.1a4 4 0 0 1 .61.27 3 3 0 0 0 1.35.45 1.4 1.4 0 0 0 1-.4c1.2-1.15.7-2.48.21-3.77l-.27-.72c-.44-1.15-.75-2.25.19-3.18q.3-.3.4-.28c.25 0 .75.48 1.09.81a3.4 3.4 0 0 0 2.17 1.24 2 2 0 0 0 .82-.2 2 2 0 0 0 1.02-1.2c.36-1.22-.44-2.65-1.14-3.9l-.17-.3a4 4 0 0 1-.57-3.03 2.3 2.3 0 0 1 1.48-1.27 1 1 0 0 1 .43-.11c.53 0 .96 1.09 1.3 1.96.45 1.15.97 2.45 2.22 2.45h.18q2.68-.35 2.73-3.97a3.2 3.2 0 0 1 .75-2.43c.87-.9 2.47-1 4.02-.2a3.1 3.1 0 0 1 1.85 2.7 3.4 3.4 0 0 1-2.02 2.95c-1.55.7-3.28 1.79-2.91 4.04q.18 1.47 2.36 1.48l.94-.03q.47-.03.95-.03c.9 0 1.17.15 1.25.25a1 1 0 0 1 .08.64Z" transform="translate(-30.894 -34.228)"/><path id="Path_397" d="M221.56 156.17a6 6 0 0 0-2.9 1.2 8 8 0 0 1-1.15.66c-.29-.48-.4-1.16.57-2.54a5.3 5.3 0 0 0 .6-5.52 4.9 4.9 0 0 0-4.54-2.5h-.23a5.5 5.5 0 0 0-4.78 2.63 4.9 4.9 0 0 0 .28 4.88c.86 1.5.64 1.92.32 2.17a8 8 0 0 1-1.09-.78 5.4 5.4 0 0 0-3.1-1.57 2.4 2.4 0 0 0-1.98 1.06 4.2 4.2 0 0 0-1.17 3.42 5.4 5.4 0 0 0 2.85 3.6l.42.25c.58.36 1.95 1.18 2.01 1.6l-.1.01a5 5 0 0 1-1.01-.2 6 6 0 0 0-1.62-.28 2.35 2.35 0 0 0-2.35 1.92c-.69 2.47 1.2 4.04 2.1 4.8l.54.45c.82.67 1.08.94 1.13 1.15H206a2.7 2.7 0 0 0-2.05.64 2 2 0 0 0-.52 1.48c.05 2.28 2.82 3.99 4.07 4.7-.41 1.47-.3 1.64-.21 1.77l.3.15.03-.01.1.06c.16 0 .4 0 1.08-1.47a12 12 0 0 0 2.62.35 4.2 4.2 0 0 0 3.55-1.46c1.33-1.74-.11-2.95-.66-3.42l-.28-.24c.16-.25.48-.34 1.5-.52l.81-.15.15-.04a4.9 4.9 0 0 0 4.35-3.82 3 3 0 0 0-.29-2.36 3.5 3.5 0 0 0-2.52-1.2 6 6 0 0 1-.95-.2c-.05-.55 1-.89 2.4-1.26l.63-.17a5.8 5.8 0 0 0 3.67-2.83 5.8 5.8 0 0 0 .1-4.7 2.45 2.45 0 0 0-2.3-1.72Zm-13.7 24.75.05-.05.03.04zm14.19-19.2a4 4 0 0 1-2.5 1.86l-.6.16c-1.69.46-4 1.08-3.8 3.3.15 1.51 1.64 1.75 2.54 1.9.47.08 1.1.18 1.25.39.03.05.13.26 0 .86-.39 1.74-1.63 2.12-2.86 2.37l-.16.03q-.4.09-.76.14c-1.25.21-2.55.44-3.06 1.96-.36 1.04.45 1.74.94 2.15.17.14.5.41.52.52a1 1 0 0 1-.15.27 2.4 2.4 0 0 1-2.04.7 9 9 0 0 1-1.85-.22c.4-.97.88-2.22 1.47-3.87 2.84-8.17 3.5-20.6 3.2-21.02l-.27-.14q-.3 0-.6 1.99c-.52 3.7-1.76 12.36-3.94 18.63-.6 1.6-1.02 2.84-1.34 3.81-2.35-1.42-2.74-2.39-2.75-2.86v-.1a4 4 0 0 1 .68-.06c.65 0 1.74-.02 2.11-1.06.55-1.64-.59-2.58-1.68-3.48l-.55-.46c-.96-.8-1.8-1.62-1.47-2.81.14-.51.3-.51.5-.51a5 5 0 0 1 1.13.21 6 6 0 0 0 1.5.26 1.97 1.97 0 0 0 2-2.3c-.24-1.24-1.66-2.1-2.9-2.85l-.4-.24a3.8 3.8 0 0 1-1.98-2.26 2.5 2.5 0 0 1 .78-1.93c.26-.34.42-.34.49-.34.48 0 1.3.66 1.9 1.14a4 4 0 0 0 2.36 1.24 1.5 1.5 0 0 0 .89-.28c2.24-1.53.84-3.98.37-4.8a3 3 0 0 1-.26-3 3.7 3.7 0 0 1 3.18-1.64h.16a3.1 3.1 0 0 1 2.84 1.48 3.4 3.4 0 0 1-.48 3.54c-.48.7-1.96 2.8-.4 4.96a1.6 1.6 0 0 0 1.27.61 4.7 4.7 0 0 0 2.32-.99 5 5 0 0 1 1.87-.9c.09 0 .3 0 .53.53a4 4 0 0 1-.04 3.11Z" transform="translate(-35.369 -25.771)"/><path id="Path_398" d="M207.9 99.1a5 5 0 0 0-6.28-.61 5.5 5.5 0 0 0-2.88 4.63 4.9 4.9 0 0 0 2.7 4.12c1.41.8 1.36 1.4 1.24 1.75h-.1a8 8 0 0 1-1.23-.15 11 11 0 0 0-1.86-.23 2.6 2.6 0 0 0-2.85 2.32 4.3 4.3 0 0 0 .74 3.47 5.5 5.5 0 0 0 4.2 1.77l.37.01c.81.04 2.3.1 2.63.44v.02a5 5 0 0 1-1 .34c-1.07.27-3.3.84-2.7 3.36s3.1 2.98 4.16 3.18l.75.15c.98.19 1.34.29 1.48.45l-.3.17a2.7 2.7 0 0 0-1.47 1.55 2 2 0 0 0 .3 1.56c1.23 1.99 4.5 2.1 5.88 2.11.33 1.42.47 1.43.69 1.43l.1-.02a.6.6 0 0 0 .34-.15c.09-.1.25-.3.2-1.48q4.51-1.33 4.87-3.98c.28-2.15-1.57-2.5-2.27-2.64l-.38-.08c0-.3.25-.55 1.09-1.22l.6-.5.1-.09a4.9 4.9 0 0 0 1.98-5.45c-.53-1.78-1.6-2.16-2.42-2.16a5 5 0 0 0-1.75.41 3 3 0 0 1-1 .24c-.32-.39.46-1.2 1.42-2.13l.55-.53a5.7 5.7 0 0 0 1.88-4.3 5.6 5.6 0 0 0-2.27-4.08 3 3 0 0 0-1.76-.7c-1.55 0-2.38 1.53-3.05 2.76a10 10 0 0 1-.7 1.14c-.55-.28-.78-.81-.64-2.54a5.6 5.6 0 0 0-1.33-4.33Zm1.4 8.69a2 2 0 0 0 .65.14c1.11 0 1.72-1.11 2.3-2.2.37-.66.97-1.77 1.38-1.77a1 1 0 0 1 .56.3 3.8 3.8 0 0 1 1.57 2.67 4 4 0 0 1-1.32 2.86l-.52.51c-1.2 1.17-3.01 2.92-1.61 4.67a1.9 1.9 0 0 0 1.56.78 5 5 0 0 0 1.6-.39 4 4 0 0 1 1.1-.3c.12 0 .36 0 .6.78.5 1.72-.4 2.66-1.38 3.47l-.12.1-.56.46c-1.02.81-2.06 1.65-1.75 3.26.2 1.08 1.25 1.28 1.88 1.4a2 2 0 0 1 .73.2 1 1 0 0 1 0 .32c-.07.52-.58 1.46-3.15 2.29a69 69 0 0 0-.7-4.33c-1.38-7.9-6.95-19.9-7.71-19.9a.4.4 0 0 0-.24.1q-.18.18.6 2.14c1.36 3.46 4.55 11.55 5.67 18 .34 1.82.6 3.19.81 4.23-2.73-.09-3.57-.77-3.82-1.18l-.05-.1a4 4 0 0 1 .55-.37c.57-.33 1.5-.87 1.31-1.95-.31-1.67-1.72-1.94-3.1-2.2l-.76-.15c-1.23-.23-2.36-.54-2.64-1.74-.13-.55-.17-.7 1.3-1.07.92-.24 2.32-.6 2.45-2.03a2 2 0 0 0-.51-1.47c-.86-.93-2.51-1-3.96-1.04l-.35-.02a3.8 3.8 0 0 1-2.8-1.05 2.4 2.4 0 0 1-.35-1.97c.07-.48.2-.7.95-.7a10 10 0 0 1 1.54.19 9 9 0 0 0 1.55.19 1.8 1.8 0 0 0 1.78-.98c.42-.97.73-2.83-1.98-4.35a3 3 0 0 1-1.73-2.49 3.6 3.6 0 0 1 1.97-2.96 3 3 0 0 1 3.88.27 3.7 3.7 0 0 1 .83 2.88c-.1 1.27-.3 3.63 1.97 4.52Z" transform="translate(-34.357 -17.069)"/><path id="Path_399" d="M166.64 62a5.4 5.4 0 0 0-.3 5.36 5 5 0 0 0 4.4 2.37c1.67 0 1.9.52 1.96.91a8 8 0 0 1-1.23.5c-1.18.4-2.53.88-3.08 2.03a2.6 2.6 0 0 0-.03 2.06c.94 2.9 3.5 3.8 6.88 2.2l.34-.18a7 7 0 0 1 2.34-.9q.13-.01.16.04a4 4 0 0 1-.72.8 3.7 3.7 0 0 0-1.46 2.41 2.5 2.5 0 0 0 .77 1.79 3.6 3.6 0 0 0 2.84 1.25 7 7 0 0 0 2.32-.47l.79-.26a3.5 3.5 0 0 1 1.48-.35l-.18.31a2.7 2.7 0 0 0-.54 2.08 2 2 0 0 0 1.01 1.22 3.5 3.5 0 0 0 1.7.4 10 10 0 0 0 4.3-1.36c.9.98 1.06 1 1.19 1a.3.3 0 0 0 .25-.1l.1-.02.09-.18c.06-.14.16-.36-.53-1.5 2.27-2.26 3.08-4.28 2.42-5.97a2.1 2.1 0 0 0-1.97-1.48 4 4 0 0 0-1.3.27l-.36.11c-.14-.28-.05-.61.35-1.61l.25-.66.05-.13a5 5 0 0 0-.92-5.77 3 3 0 0 0-2.06-.97 3.4 3.4 0 0 0-2.45 1.53c-.23.25-.6.68-.76.7-.46-.2-.17-1.28.23-2.58l.21-.73a5.5 5.5 0 0 0-.4-4.53 5.8 5.8 0 0 0-4.02-2.6 2.6 2.6 0 0 0-2.36.6c-.86.87-.85 2.28-.84 3.52a11 11 0 0 1-.05 1.34c-.6 0-1.12-.32-1.82-1.85a4.88 4.88 0 0 0-9.05-.62Zm1.66.94a3.2 3.2 0 0 1 2.74-1.79 3.3 3.3 0 0 1 2.9 2.25c.68 1.48 1.64 2.98 3.58 2.98l.37-.01c1.6-.15 1.59-1.94 1.58-3.25 0-.74-.02-1.86.29-2.17.03-.02.1-.09.35-.09l.3.03a4 4 0 0 1 2.73 1.7 3.7 3.7 0 0 1 .2 3.02l-.2.7c-.49 1.6-1.22 4.03.85 4.9a2 2 0 0 0 .78.17 3 3 0 0 0 2.17-1.37c.33-.38.75-.86 1.01-.86.08 0 .31.04.72.43 1.25 1.26.91 2.53.47 3.72l-.06.15-.24.62c-.47 1.2-.96 2.43.08 3.72a1.5 1.5 0 0 0 1.2.55 4 4 0 0 0 1.12-.24 3 3 0 0 1 .72-.17 1 1 0 0 1 .15.27c.2.5.22 1.63-1.73 3.67a87 87 0 0 0-2.7-3.45c-4.51-5.5-12.32-11.03-14.9-12.85-1.11-.89-1.18-.89-1.3-.89h-.13l-.2.21.01.15q.02.18 1.17 1l.09.06a108 108 0 0 1 13.98 13.44c1.14 1.4 2.02 2.46 2.7 3.26a7 7 0 0 1-3 .93 2 2 0 0 1-.76-.15l-.1-.06a3 3 0 0 1 .32-.6c.33-.56.9-1.5.2-2.34a2.2 2.2 0 0 0-1.8-.88 6 6 0 0 0-1.97.46l-.79.27a6 6 0 0 1-1.7.37 1.8 1.8 0 0 1-1.43-.65 1 1 0 0 1-.28-.44c0-.26.52-.75.87-1.08.7-.66 1.74-1.66 1.15-2.96a2 2 0 0 0-1.9-1.17 8 8 0 0 0-3.2 1.1l-.31.16a5.5 5.5 0 0 1-2.23.61c-.62 0-1.51-.17-2-1.71-.16-.4-.08-.56-.06-.61.2-.44 1.23-.8 1.97-1.05 1.16-.4 2.6-.9 2.53-2.28-.1-1.3-.83-2.84-3.85-2.85a3.1 3.1 0 0 1-2.76-1.4 3.6 3.6 0 0 1 .3-3.48Z" transform="translate(-28.977 -10.302)"/><path id="Path_400" d="m57.85 172.47 4.29-11.27H59.7l-2.25 5.85c-.32.87-.65 1.88-.93 2.9h-.03a31 31 0 0 0-.93-2.94l-2.19-5.81H50.8l4.32 11.27Z" transform="translate(-8.885 -28.173)"/><path id="Path_401" d="M74.8 170.6h-4.3v-3.03h4.1v-1.78h-4.1v-2.75h4.3v-1.84h-6.64v11.27h6.64Z" transform="translate(-11.919 -28.173)"/><path id="Path_402" d="M85.21 172.47v-9.28h3.13v-1.99h-8.59v1.99h3.12v9.28Z" transform="translate(-13.944 -28.173)"/><path id="Path_403" d="M100.87 163.04v-1.84h-6.64v11.27h6.64v-1.86h-4.3v-3.04h4.1v-1.78h-4.1v-2.75Z" transform="translate(-16.475 -28.173)"/><path id="Path_404" d="m114.55 167.2-3.8-6h-3.12v11.26h2.28l-.03-5.9c0-1.04-.01-1.73-.06-2.36h.02a19 19 0 0 0 1.15 2.15l3.88 6.12h3.12v-11.28h-2.28l.02 4.97q0 2.17.07 3.25h-.02a21 21 0 0 0-1.23-2.21" transform="translate(-18.817 -28.171)"/><path id="Path_405" d="M128.02 170.69a7 7 0 0 1-2.5-.44l-.08 2.1a11 11 0 0 0 2.32.28c2.88 0 4.87-1.5 4.87-3.8 0-3.53-5.02-2.69-5.02-4.62 0-.85.62-1.41 2.06-1.41a8 8 0 0 1 2.15.33l.09-2a14 14 0 0 0-2.15-.2c-2.97 0-4.62 1.4-4.62 3.53 0 3.66 4.97 2.62 4.97 4.62 0 1.1-1.02 1.59-2.08 1.59Z" transform="translate(-21.877 -28.127)"/><path id="Path_406" d="M139.19 161.2v11.27h2.34v-5.29l4.19 5.3h3.1l-4.86-5.87 4.62-5.41h-2.89l-4.16 5.03v-5.03Z" transform="translate(-24.332 -28.173)"/><path id="Path_407" d="M156.27 170.29h4.7l.8 2.18h2.6l-4.24-11.27h-2.76l-4.27 11.27h2.34zm1.77-4.88c.22-.59.43-1.21.57-1.76h.02c.15.52.37 1.2.58 1.78l1.18 3.17h-3.56z" transform="translate(-26.763 -28.173)"/><path id="Path_408" d="M174.55 161.12c-1.32 0-2.73.04-3.69.06v11.28h2.34v-3.72c.28.03.72.04 1 .04 2.86 0 4.84-1.56 4.84-4.03 0-2.28-1.63-3.64-4.5-3.64Zm-.35 5.8a4 4 0 0 1-1-.08v-3.82c.3-.02.72-.02 1.15-.02 1.45 0 2.19.8 2.19 1.9 0 1.32-.9 2.02-2.35 2.02Z" transform="translate(-29.867 -28.157)"/><path id="Path_409" d="M58.22 195.42a5.7 5.7 0 0 0 5.92-5.94c0-3.73-2.28-5.72-5.56-5.72a5.6 5.6 0 0 0-5.85 5.94c0 3.38 1.82 5.73 5.49 5.73Zm.21-9.63c1.93 0 3.19 1.32 3.19 3.84s-1.48 3.73-3.28 3.73c-2.21 0-3.12-1.7-3.12-3.84 0-2.43 1.5-3.73 3.21-3.73" transform="translate(-9.222 -32.115)"/><path id="Path_410" d="M75.38 195.39a9 9 0 0 0 3.04-.5l-.2-2.08a6 6 0 0 1-2.36.52c-2.23 0-3.53-1.28-3.53-3.72 0-2.23 1.2-3.84 3.4-3.84a8 8 0 0 1 2.38.4l.22-2.07a10 10 0 0 0-2.43-.3c-4.22 0-6.07 2.84-6.07 6.02 0 3.43 1.86 5.55 5.55 5.55Z" transform="translate(-12.211 -32.122)"/><path id="Path_411" d="M94.7 195.27V184h-2.34v4.49h-5.31V184H84.7v11.28h2.34v-4.77h5.31v4.77Z" transform="translate(-14.811 -32.156)"/><path id="Path_412" d="m111.31 189.97 4.19 5.3h3.1l-4.86-5.86 4.62-5.42h-2.88l-4.17 5.04v-5.04h-2.34v11.28h2.34Z" transform="translate(-19.051 -32.156)"/><path id="Path_413" d="M128.02 195.42a5.7 5.7 0 0 0 5.91-5.94c0-3.73-2.28-5.72-5.55-5.72a5.63 5.63 0 0 0-5.86 5.94c0 3.39 1.82 5.73 5.49 5.73Zm.21-9.63c1.93 0 3.19 1.32 3.19 3.84s-1.48 3.73-3.28 3.73c-2.21 0-3.12-1.7-3.12-3.84 0-2.43 1.5-3.73 3.21-3.73" transform="translate(-21.419 -32.115)"/><path id="Path_414" d="m143.9 189.16 3.89 6.11h3.11V184h-2.28l.03 4.97q0 2.17.06 3.25h-.01a21 21 0 0 0-1.24-2.21l-3.8-6h-3.12v11.27h2.28l-.03-5.9c0-1.04-.01-1.73-.06-2.36h.02a18 18 0 0 0 1.15 2.15Z" transform="translate(-24.568 -32.156)"/><path id="Path_415" d="M160.8 193.49a7 7 0 0 1-2.5-.44l-.08 2.1a11 11 0 0 0 2.32.28c2.88 0 4.87-1.5 4.87-3.8 0-3.53-5.02-2.69-5.02-4.62 0-.85.62-1.41 2.06-1.41a8 8 0 0 1 2.15.33l.09-2a14 14 0 0 0-2.15-.2c-2.97 0-4.62 1.4-4.62 3.53 0 3.66 4.97 2.62 4.97 4.62 0 1.1-1.02 1.59-2.08 1.59Z" transform="translate(-27.606 -32.112)"/><path id="Path_416" d="M175.22 195.27V186h3.13v-2h-8.59v2h3.12v9.28Z" transform="translate(-29.675 -32.156)"/><path id="Path_417" d="m66.82 138.51-.28-.03c-5.92-.74-5.95-1.9-6.1-6.83v-8.55l9.9 10.76c3.77 4.13 5.85 6.41 11.33 6.41a28 28 0 0 0 3.46-.24l.27-.03.03-1.32-.32-.01c-3.3-.14-5.1-2.02-8.68-5.74l-1.57-1.63-9.64-10.73 3.88-3.97.83-.87c3.25-3.42 6.95-7.3 11.88-7.83l.29-.03v-1.32H69.04v1.32l.29.03c1.3.14 1.99.44 2.19.95.37.96-.78 2.9-3.5 5.97l-7.58 8.08v-8.13c.14-4.93.18-6.11 4.81-6.84l.28-.04v-1.31H49.64v1.32l.27.04c5.49.73 5.52 1.9 5.67 6.82v16.87c-.14 4.94-.17 6.1-5.67 6.84l-.27.04v1.32h17.17z" transform="translate(-8.682 -18.622)"/><path id="Path_418" d="m117.7 138.5-.29-.03c-6.2-.75-6.43-2.15-6.43-7.98v-21.83h2.56c5.66 0 7.97 1.76 9.52 7.23l.08.29 1.23-.27-.61-9.37H93.32l-.59 9.38 1.23.26.08-.29c1.55-5.47 3.86-7.23 9.53-7.23h2.55v21.83c0 5.83-.24 7.23-6.43 7.98l-.28.03v1.32h18.28z" transform="translate(-16.213 -18.62)"/><path id="Path_419" d="m174 107.95.28-.04v-1.32H157.1v1.31l.27.04c6.1.88 6.1 1.68 6.1 6.83v6.63h-17.32v-6.63c0-5.15 0-5.95 6.1-6.83l.28-.04v-1.31h-17.17v1.32l.27.04c5.49.73 5.52 1.9 5.67 6.83v16.86c-.14 4.94-.17 6.11-5.67 6.85l-.27.04v1.3h17.17v-1.3l-.27-.04c-6.1-.89-6.1-1.68-6.1-6.83v-7.6h17.32v7.6c0 5.15 0 5.94-6.1 6.83l-.27.04v1.3h17.17v-1.3l-.27-.04c-5.5-.74-5.52-1.91-5.67-6.83v-16.87c.14-4.93.17-6.1 5.67-6.84" transform="translate(-23.663 -18.629)"/><path id="Path_420" d="M66.29 44.45a3.7 3.7 0 0 0 .25 3.64A3.6 3.6 0 0 0 70 49.66c1.47 1.86 3.92 4.07 5.92 3.5a79 79 0 0 1 30.12-5.87h.02a79 79 0 0 1 30.12 5.87c2.01.57 4.46-1.64 5.92-3.5a3.6 3.6 0 0 0 3.45-1.57 3.7 3.7 0 0 0 .26-3.64 18 18 0 0 1 2.65-3.2 3.75 3.75 0 0 0-2.55-6.5l-.48.03-.1-.31a3.14 3.14 0 0 0-1.42-5.94 3 3 0 0 0-1.59.45l-.27-.31a2.59 2.59 0 1 0-3.93-3.34l-.45-.3a2.36 2.36 0 1 0-4.12-2.19l-.74-.31a2 2 0 0 0 .3-1.08 2.13 2.13 0 0 0-4.24-.32l-.48-.15a3 3 0 0 0-2.86-2.18 3 3 0 0 0-.87.14q-.15-.14-.33-.26v-.14a2.5 2.5 0 0 0-2.52-2.52 2.5 2.5 0 0 0-1.46.48l-.3-.12v-.06a2.27 2.27 0 0 0-4.26-1.1l-.54-.1.01-.09a2.07 2.07 0 0 0-4.1-.42l-.61-.05a4.9 4.9 0 0 0-2.24-6.26 6 6 0 0 0-1.41-.46V4.09h2.1a1.5 1.5 0 0 0 .21-.88 1.4 1.4 0 0 0-.21-.87h-2.1V.21A1.5 1.5 0 0 0 106 0a1.5 1.5 0 0 0-.88.22v2.1h-2.1a1.4 1.4 0 0 0-.22.87 1.5 1.5 0 0 0 .22.88h2.1v3.75a6 6 0 0 0-1.4.47 4.9 4.9 0 0 0-2.25 6.26l-.6.04a2.07 2.07 0 0 0-4.1.43v.08l-.54.1a2.27 2.27 0 0 0-4.26 1.1v.07l-.3.11a2.5 2.5 0 0 0-1.45-.48 2.5 2.5 0 0 0-2.53 2.52v.14l-.33.26a3 3 0 0 0-.86-.14 3 3 0 0 0-2.87 2.18l-.48.15a2.13 2.13 0 0 0-4.24.32 2 2 0 0 0 .3 1.08l-.74.32A2.36 2.36 0 1 0 74.34 25l-.46.3a2.59 2.59 0 1 0-3.92 3.34l-.28.31a3.13 3.13 0 1 0-3 5.49q-.07.16-.1.31l-.49-.03a3.76 3.76 0 0 0-3.75 3.76 3.7 3.7 0 0 0 1.2 2.74 18 18 0 0 1 2.66 3.2Zm3.25 3.9a2.3 2.3 0 0 1-2.31-2.3 2.4 2.4 0 0 1 .4-1.3 2.31 2.31 0 1 1 1.9 3.61Zm36.49-7.55a2.3 2.3 0 1 1 2.3-2.3 2.3 2.3 0 0 1-2.3 2.3m0-17.88a2.28 2.28 0 1 1-2.28 2.27 2.3 2.3 0 0 1 2.28-2.27m-1.77-2.53a1.78 1.78 0 1 1 1.77 1.78 1.77 1.77 0 0 1-1.78-1.78Zm1.76 7.97a2.82 2.82 0 0 1 2.13 4.7 3.5 3.5 0 0 0-2.12-.72 3.4 3.4 0 0 0-2.12.72 2.82 2.82 0 0 1 2.12-4.69Zm36.51 20a2.32 2.32 0 0 1 0-4.63 2.3 2.3 0 0 1 2.16 1.51 2 2 0 0 1 .15.81 2.3 2.3 0 0 1-2.31 2.31m3.37-12.35a2.5 2.5 0 0 1 2.48 2.49 3.5 3.5 0 0 1-1.64 2.47 3.5 3.5 0 0 0-2.7-1.27l-.29.02a2.46 2.46 0 0 1 2.15-3.7Zm-2-6.21a1.87 1.87 0 1 1-1.9 1.87 1.87 1.87 0 0 1 1.9-1.87m-3.67-4.32a1.32 1.32 0 1 1-1.31 1.32 1.3 1.3 0 0 1 1.3-1.32m-4.48-2.94a1.09 1.09 0 1 1-1.08 1.08 1.1 1.1 0 0 1 1.08-1.08m-4.8-1.97a.87.87 0 1 1-.86.86.87.87 0 0 1 .87-.86Zm-2.81 2.6c7.23 2.3 10.99 5.8 12.7 9.3a12 12 0 0 1 1.28 5.99 5 5 0 0 0 .36 1.6 3.4 3.4 0 0 0-1.87 2.27l-.2-.14a3.5 3.5 0 0 0-2.24-.8 3.55 3.55 0 1 0 1.4 6.8 4 4 0 0 0 .58.63 3.6 3.6 0 0 1-4.5 1.71 5.7 5.7 0 0 1-3.41-3.75 5.7 5.7 0 0 1-4.9 1.34 3.6 3.6 0 0 1-2.84-4.22c.04-.18.2-.89.3-1.14a3.48 3.48 0 1 0 4.07-4.08 3 3 0 0 0-.65 0l.13-.35a3 3 0 0 0 .02-1.22 4.04 4.04 0 0 0 .94-7.4 3.35 3.35 0 0 0-1.36-6.25zm-2.54 11.07a3 3 0 0 0-.86-.06 3 3 0 0 1-.18-.97 2.77 2.77 0 1 1 3.37 2.7 3.5 3.5 0 0 0-2.34-1.68Zm4.15-7.45a2.1 2.1 0 1 1-2.1-2.1 2.1 2.1 0 0 1 2.1 2.11Zm-4.24-6.75a1.7 1.7 0 1 1-1.7 1.71 1.7 1.7 0 0 1 1.7-1.7ZM124.39 38a2.3 2.3 0 1 1-2.3 2.3 2.3 2.3 0 0 1 2.3-2.3m-2.6-20.73a1.24 1.24 0 1 1-1.24 1.25 1.25 1.25 0 0 1 1.24-1.25m-4.03-1.97a1 1 0 1 1-1 1 1 1 0 0 1 1-1m-4.58-1.08a.8.8 0 1 1-.8.8.8.8 0 0 1 .8-.8m9.08 19.8.51.9a3.5 3.5 0 0 0-1.28 2.08s0 .19 0 .36a3 3 0 0 0-.6-.23 3.49 3.49 0 1 0 2.26 5.31c-.02.28-.13 1-.16 1.18a3.6 3.6 0 0 1-4.23 2.83 5.5 5.5 0 0 1-3.91-3.06 5.5 5.5 0 0 1-4.42 2.28 3.6 3.6 0 0 1-3.61-3.6c0-.19.03-.92.06-1.19a3.49 3.49 0 1 0 3.23-4.78 4 4 0 0 0-.63.12l.06-.37a3 3 0 0 0-.15-1l1.24-.8s-.22-11.8-2.33-17.08l.2-.12c17.26.98 15.77 12.97 13.74 17.18ZM109.62 12.3l.02.22a3.5 3.5 0 0 1-.58 1.93l-1.17-.03a2 2 0 0 0 .05-.45 1.9 1.9 0 0 0-1-1.68zm-2.74-3.24a3.7 3.7 0 0 1 2.37 1.9h-2.37Zm-.88 4.12a.8.8 0 1 1-.8.8.8.8 0 0 1 .8-.8m0 2.36a1.2 1.2 0 1 1 0 2.4 1.2 1.2 0 0 1 0-2.4m-.87-6.48v1.9h-2.36a3.7 3.7 0 0 1 2.36-1.9m-2.72 3.24h2.66a1.9 1.9 0 0 0-.99 1.68 2 2 0 0 0 .06.45q-.68 0-1.16.02a3.5 3.5 0 0 1-.58-1.92zm-3.56 1.91a.8.8 0 0 1 0 1.6.8.8 0 1 1 0-1.6m-4.58 1.08a1 1 0 0 1 0 2.02 1 1 0 1 1 0-2.02m-4.03 1.97a1.24 1.24 0 1 1-1.25 1.25 1.24 1.24 0 0 1 1.25-1.25m13.27-.42.2.12c-2.1 5.27-2.33 17.08-2.33 17.08l1.25.8a4 4 0 0 0-.14 1s.03.2.06.37a3 3 0 0 0-.64-.12 3.5 3.5 0 1 0 3.23 4.78c.03.28.06 1 .06 1.2a3.6 3.6 0 0 1-3.6 3.6 5.5 5.5 0 0 1-4.42-2.29 5.5 5.5 0 0 1-3.92 3.07 3.6 3.6 0 0 1-4.22-2.84c-.03-.19-.14-.9-.17-1.18a3.49 3.49 0 1 0 2.26-5.31 4 4 0 0 0-.59.23l-.02-.36a3.5 3.5 0 0 0-1.28-2.08l.52-.9c-2.03-4.21-3.52-16.2 13.74-17.17ZM89.94 40.3a2.3 2.3 0 1 1-2.3-2.3 2.3 2.3 0 0 1 2.3 2.3m-5.84-4.4a2.76 2.76 0 1 1 3.37-2.7 3 3 0 0 1-.18.97 3 3 0 0 0-.86.06 3.5 3.5 0 0 0-2.34 1.68Zm2.42-15.86a1.7 1.7 0 1 1-1.72 1.7 1.7 1.7 0 0 1 1.72-1.7m-2.14 4.64a2.1 2.1 0 1 1-2.1 2.1 2.1 2.1 0 0 1 2.1-2.1m-3.3-4.13a.87.87 0 1 1-.87.87.87.87 0 0 1 .87-.86m-4.8 1.98a1.09 1.09 0 1 1-1.09 1.08 1.1 1.1 0 0 1 1.09-1.08m7.6.62.18.3a3.35 3.35 0 0 0-1.36 6.25 4.04 4.04 0 0 0 .95 7.4 3 3 0 0 0 .02 1.22s.06.19.12.35a3 3 0 0 0-.64 0 3.49 3.49 0 1 0 4.07 4.07c.09.27.25.97.3 1.15a3.6 3.6 0 0 1-2.85 4.22 5.7 5.7 0 0 1-4.9-1.34 5.7 5.7 0 0 1-3.4 3.75 3.6 3.6 0 0 1-4.5-1.71 4 4 0 0 0 .57-.63 3.55 3.55 0 1 0 1.41-6.8 3.5 3.5 0 0 0-2.23.8l-.2.13a3.4 3.4 0 0 0-1.88-2.26 6 6 0 0 0 .37-1.6 12 12 0 0 1 1.27-6c1.71-3.5 5.47-7 12.7-9.3m-12.07 2.32a1.32 1.32 0 1 1-1.32 1.32 1.3 1.3 0 0 1 1.32-1.32m-5.53 6.18a1.87 1.87 0 1 1 1.87 1.88 1.9 1.9 0 0 1-1.87-1.88M66.14 36a2.46 2.46 0 0 1 2.14 3.7H68a3.5 3.5 0 0 0-2.7 1.27 3.5 3.5 0 0 1-1.64-2.47 2.5 2.5 0 0 1 2.48-2.5" transform="translate(-10.903)"/><path id="Path_421" d="M135.25 74.9a.81.81 0 0 0 .3-1.58A73 73 0 0 0 110 68.77h-.57a73 73 0 0 0-25.53 4.55.82.82 0 1 0 .57 1.52 72 72 0 0 1 24.97-4.44h.57a72 72 0 0 1 24.98 4.45 1 1 0 0 0 .28.05Z" transform="translate(-14.576 -12.019)"/><path id="Path_422" d="m139.29 68.47-1.18-3.16-.18-.48-1.53.24a76 76 0 0 0-26.13-5.05l-1.44-.83-1.44.83a77 77 0 0 0-26.12 5.05l-1.53-.24-.18.48-1.19 3.16 3.4 1.9 1.1-1.3a73 73 0 0 1 24.22-4.66l1.73.99 1.75-.99a74 74 0 0 1 24.21 4.65l1.1 1.3Zm-57.8.3-1.57-.87.63-1.68 2.71.45zm14.36-4.07-2.73.56a1.39 1.39 0 1 1-.57-2.72l2.74-.57a1.39 1.39 0 1 1 .56 2.73m12.98-.77-2.86-1.63 2.87-1.64 2.87 1.64zm17.36.25a1.4 1.4 0 0 1-1.64 1.08l-2.73-.56a1.39 1.39 0 1 1 .56-2.73l2.74.57a1.4 1.4 0 0 1 1.08 1.64Zm8.21 2.5 2.71-.45.63 1.68-1.57.87z" transform="translate(-13.703 -10.345)"/></g></g></g></svg>