<svg xmlns="http://www.w3.org/2000/svg" xmlns:xlink="http://www.w3.org/1999/xlink" width="600" height="300" viewBox="0 0 600 300"><defs><clipPath id="clip-Logo"><path d="M0 0h600v300H0z"/></clipPath></defs><g id="Logo" clip-path="url(#clip-Logo)"><path fill="#e8eff3" d="M0 0h600v300H0z"/><g id="c" transform="translate(200.001 49.995)"><path id="Path_423" fill="#fff" d="M176.85 162.6c-25.5 31.32-64.61 42.26-100.46 33.95-35.32-8.05-65.41-37.88-73.3-73.76C-6.49 81.5 9.3 40.47 45.28 16.66c31.97-21.57 76.08-21.56 107.6-1.18a100.4 100.4 0 0 1 36.47 41.32c16.01 33.09 13.03 75.15-12.49 105.78Z" transform="translate(.102 .1)"/><path id="Path_424" fill="#1d1d1b" d="M190.06 56.63a100.7 100.7 0 0 0-36.84-41.33c-31.63-20.42-75.95-20.7-108.1.97A99.8 99.8 0 0 0 2.66 122.93c7.96 36.08 38.23 66.05 73.76 74.14 36.05 8.36 75.4-2.64 101.06-34.11 25.27-30.31 28.43-73.62 12.56-106.33ZM175.4 161.21c-24.95 30.64-63.23 41.37-98.38 33.22-34.52-7.84-64-37.04-71.7-72.06a97.1 97.1 0 0 1 41.3-103.83c31.22-21.06 74.39-20.81 105.11-.96a98 98 0 0 1 35.85 40.2c15.45 31.82 12.35 74-12.19 103.43ZM97.8 11.7l.62.03a.5.5 0 0 1 .37.16.5.5 0 0 1 .13.38s-.2 3.74-.26 5.7a4.1 4.1 0 0 0 1.11 3.38 5.6 5.6 0 0 0 3.58 1.1h.6c1.98 0 4.07-.53 4.46-4.5l.25-5.35a.53.53 0 0 1 .55-.51h.37a.35.35 0 0 0 .37-.34l.02-.78-.09-.26a.4.4 0 0 0-.24-.12l-4.06-.14a.4.4 0 0 0-.36.35l-.03.78a.4.4 0 0 0 .35.38l.63.03a.5.5 0 0 1 .36.16.6.6 0 0 1 .15.38l-.24 4.95c-.35 2.46-.97 3.21-2.66 3.21h-.24c-1.85-.08-2.71-1.06-2.65-3.04.08-1.88.26-5.33.26-5.33a.55.55 0 0 1 .56-.5h.38a.35.35 0 0 0 .36-.33l.03-.78a.4.4 0 0 0-.1-.26.4.4 0 0 0-.24-.12l-4.26-.13a.37.37 0 0 0-.37.35l-.02.78a.4.4 0 0 0 .35.38Zm39.4 19.8.15.04a.4.4 0 0 0 .33-.2l.35-.69a.35.35 0 0 0-.16-.48l-.48-.24a.5.5 0 0 1-.26-.32.6.6 0 0 1 .04-.4l3.6-6.88a.5.5 0 0 1 .47-.29l.25.05.41.21.17.04a.4.4 0 0 0 .31-.2l.36-.68a.3.3 0 0 0 0-.28.3.3 0 0 0-.16-.2l-3.8-1.95-.15-.04a.4.4 0 0 0-.33.2l-.35.68a.35.35 0 0 0 .16.48l.48.25a.5.5 0 0 1 .26.31.5.5 0 0 1-.04.4l-3.58 6.88a.5.5 0 0 1-.47.28l-.24-.05-.41-.2-.17-.04a.4.4 0 0 0-.33.2l-.35.68a.36.36 0 0 0 .16.48l3.8 1.95ZM72.43 21.19q.7-.01 1.45-.08.69-.07 1.29-.08c.74 0 1.62.12 1.92 1.03a1.6 1.6 0 0 1-.3 1.6 3.3 3.3 0 0 1-1.53.9 11 11 0 0 1-1.8.3.7.7 0 0 1-.63-.44l-.26-.67a.4.4 0 0 0-.41-.24h-.07l-.95.32a.3.3 0 0 0-.2.18.3.3 0 0 0-.03.27l.67 2.08a.5.5 0 0 0 .49.35 18 18 0 0 0 3.4-.5 5.7 5.7 0 0 0 3.48-2.46 3.4 3.4 0 0 0 .2-2.68 3.04 3.04 0 0 0-3.3-2.14q-.68.01-1.43.08-.66.07-1.25.07c-.71 0-1.57-.11-1.86-.97-.32-.99.33-1.84 1.72-2.3a7 7 0 0 1 1.3-.2.7.7 0 0 1 .65.42l.2.52a.4.4 0 0 0 .42.24h.07l.94-.32a.3.3 0 0 0 .21-.18.4.4 0 0 0 .03-.27l-.6-1.85a.5.5 0 0 0-.5-.35 18 18 0 0 0-3.05.38 5.4 5.4 0 0 0-3.12 2.17 3.3 3.3 0 0 0-.3 2.82 2.9 2.9 0 0 0 3.15 2M50.86 26a.4.4 0 0 0 .32.18.3.3 0 0 0 .18-.05l.46-.28.27-.06a.5.5 0 0 1 .45.26l3.82 6.76a.53.53 0 0 1-.2.71l-.4.24a.36.36 0 0 0-.12.49l.38.68a.4.4 0 0 0 .32.18.3.3 0 0 0 .18-.05l4.1-2.36c.2-.11.54-.33.73-.46a11 11 0 0 0 2.3-2.23 5.6 5.6 0 0 0-.13-5.93c-1.22-2.12-2.66-3.15-4.43-3.15a7 7 0 0 0-2.36.52 12 12 0 0 0-1.54.77l-4.54 2.61a.36.36 0 0 0-.13.5l.38.66Zm3.78-1.77.9-.5a6 6 0 0 1 .8-.38 7 7 0 0 1 1.98-.42 3 3 0 0 1 .58.07c.9.27 1.57.7 2.48 2.26a4.8 4.8 0 0 1 .56 4.08 4.3 4.3 0 0 1-1.58 1.67c-.17.16-1.32.87-1.37.9l-.26.07a.5.5 0 0 1-.46-.28l-3.82-6.75a.53.53 0 0 1 .2-.72m123.5 62.67-.07-.46a.37.37 0 0 0-.4-.32l-.76.12a.35.35 0 0 0-.3.4l.61 4.22a.36.36 0 0 0 .36.32h.06l.76-.12a.35.35 0 0 0 .3-.4l-.07-.54a.5.5 0 0 1 .1-.39.6.6 0 0 1 .35-.2l7.76-1.06a.53.53 0 0 1 .52.46l.07.47a.4.4 0 0 0 .4.3l.77-.12a.4.4 0 0 0 .23-.13.3.3 0 0 0 .07-.27l-.61-4.22a.37.37 0 0 0-.4-.32l-.76.12a.3.3 0 0 0-.24.14.4.4 0 0 0-.06.26l.08.54a.5.5 0 0 1-.1.39.5.5 0 0 1-.34.2l-7.77 1.04a.53.53 0 0 1-.52-.45ZM146.9 37.7l1.23.96a.6.6 0 0 0 .37.12l.27-.07 8.94-5.05a1 1 0 0 1 .36-.1 1 1 0 0 1 .47.15l.2.15.22.08a.4.4 0 0 0 .28-.13l.48-.6a.3.3 0 0 0 .08-.28.3.3 0 0 0-.13-.24l-3.18-2.49a.4.4 0 0 0-.22-.08.4.4 0 0 0-.29.13l-.48.61a.3.3 0 0 0-.08.26.3.3 0 0 0 .13.24l.44.35a.4.4 0 0 1 .17.32.4.4 0 0 1-.2.32l-6.56 4.11c-.33.2-.4.24-.45.24h-.02c-.07-.03-.1-.04.07-.53l2.42-7.37a.4.4 0 0 1 .35-.29.4.4 0 0 1 .26.1l.25.2a.4.4 0 0 0 .22.08.4.4 0 0 0 .29-.15l.48-.6a.37.37 0 0 0-.07-.51L149.88 25a.4.4 0 0 0-.22-.07.4.4 0 0 0-.3.13l-.47.6a.37.37 0 0 0 .05.51l.25.2a.8.8 0 0 1 .26.8l-2.76 9.9a.6.6 0 0 0 .2.6Zm31.86 36.52c.1 1.45.2 2.82-1 3.2a2 2 0 0 1-.54.09c-.85 0-1.57-.72-1.95-1.95a10 10 0 0 1-.26-1.75.7.7 0 0 1 .45-.68l.67-.25a.4.4 0 0 0 .24-.48l-.3-.95q-.06-.22-.4-.23h-.05l-2.09.65a.5.5 0 0 0-.35.5 17 17 0 0 0 .44 3.39c1.06 3.4 2.98 3.9 4.03 3.9a4 4 0 0 0 1.08-.16c2.4-.74 2.25-2.85 2.12-4.72-.1-1.4-.2-2.74.94-3.1a2 2 0 0 1 .47-.07c.8 0 1.44.66 1.8 1.82a7 7 0 0 1 .2 1.27.7.7 0 0 1-.44.68l-.52.2a.4.4 0 0 0-.23.48l.28.94q.06.23.4.24h.04l1.85-.58a.5.5 0 0 0 .35-.49 17 17 0 0 0-.35-3.05c-.72-2.33-2.13-3.65-3.87-3.65a3 3 0 0 0-1.07.17c-2.26.7-2.1 2.76-1.99 4.58Zm-14.32-34.44a.6.6 0 0 1 .13.37.5.5 0 0 1-.18.37l-5.89 5.06a.6.6 0 0 1-.35.13.5.5 0 0 1-.4-.18l-.31-.35a.4.4 0 0 0-.28-.12.3.3 0 0 0-.23.1l-.59.5a.3.3 0 0 0-.11.25.4.4 0 0 0 .09.26l5.36 6.13a.4.4 0 0 0 .3.13.4.4 0 0 0 .23-.08l2.14-1.65a.3.3 0 0 0 .13-.23.3.3 0 0 0-.1-.25l-.68-.78a.4.4 0 0 0-.31-.14l-.24.06-.85.6a.6.6 0 0 1-.33.1.6.6 0 0 1-.44-.2l-1.65-1.9a.5.5 0 0 1-.13-.37.5.5 0 0 1 .18-.35l2.05-1.78a.6.6 0 0 1 .34-.13.5.5 0 0 1 .4.18l1.7 1.93a.4.4 0 0 0 .26.13.3.3 0 0 0 .24-.1l.58-.5a.4.4 0 0 0 .12-.25.4.4 0 0 0-.1-.26l-1.67-1.9a.5.5 0 0 1-.13-.4.5.5 0 0 1 .18-.35l1.9-1.64a.6.6 0 0 1 .34-.13.5.5 0 0 1 .4.19l1.65 1.88a.6.6 0 0 1-.01.77l-.57.6a.4.4 0 0 0 0 .54l.58.67a.3.3 0 0 0 .26.11.4.4 0 0 0 .24-.09l1.82-1.69a.4.4 0 0 0 .02-.52l-5.33-6.09a.3.3 0 0 0-.27-.12.3.3 0 0 0-.24.1l-.58.5a.3.3 0 0 0-.12.25.4.4 0 0 0 .1.26l.34.4Zm10.55 13.72a.6.6 0 0 1 .05.4.5.5 0 0 1-.25.3l-6.8 3.74-.25.06a.5.5 0 0 1-.47-.27l-.24-.42a.4.4 0 0 0-.3-.18.4.4 0 0 0-.18.04l-.67.38a.4.4 0 0 0-.15.5l2.08 3.7a.4.4 0 0 0 .31.19.3.3 0 0 0 .17-.05l.68-.38a.36.36 0 0 0 .14-.48l-.26-.47a.6.6 0 0 1-.05-.4.5.5 0 0 1 .25-.31l2.22-1.22a1 1 0 0 1 .35-.1.3.3 0 0 1 .26.13l.29.63c0 .03.26.72-1.15 2.81-1.53 2.26-1.02 3.5-1.02 3.52a9 9 0 0 0 .38.78l.17.28a.4.4 0 0 0 .3.19.3.3 0 0 0 .18-.06l.75-.41c.18-.1.27-.16-.05-.85-.13-.27.06-.6.36-1.11a10 10 0 0 0 .7-1.4 9 9 0 0 0 .56-2.49v-.14h.1s.06 0 .4.31a6 6 0 0 0 .78.6 3 3 0 0 0 1.45.43 3 3 0 0 0 1.47-.43c1.65-.95 1.92-2.86.71-5L176 52.26a.4.4 0 0 0-.31-.18.3.3 0 0 0-.17.06l-.68.37a.34.34 0 0 0-.13.48l.26.47Zm.87 2.65.24-.07a.5.5 0 0 1 .47.27 4 4 0 0 1 .55 1.33 1.8 1.8 0 0 1-.82 1.94 1.4 1.4 0 0 1-.7.19 2.6 2.6 0 0 1-1.7-.9 4 4 0 0 1-.59-.76.6.6 0 0 1-.05-.4.5.5 0 0 1 .25-.31zm-60.12-32.7 3.76 1.07a.4.4 0 0 0 .35-.26l.2-.74a.4.4 0 0 0-.23-.45l-.52-.14a.5.5 0 0 1-.35-.65l1.72-5.73c.13-.45.15-.47.23-.47s.07.01.25.47l3.47 9.13a1 1 0 0 0 .53.48l.87.26.1.01a.4.4 0 0 0 .35-.26l2.66-9.03a.5.5 0 0 1 .51-.37l.15.02.54.15a.35.35 0 0 0 .34-.26l.22-.74a.4.4 0 0 0-.03-.28.3.3 0 0 0-.22-.17l-3.75-1.06a.4.4 0 0 0-.35.26l-.22.74a.35.35 0 0 0 .24.44l.52.14a.5.5 0 0 1 .31.25.6.6 0 0 1 .06.4l-1.6 5.33c-.13.41-.16.47-.24.47h-.04c-.02 0-.05-.03-.2-.46l-3.28-8.64a1 1 0 0 0-.53-.48l-2.65-.75a.4.4 0 0 0-.35.26l-.21.74a.4.4 0 0 0 .03.27.4.4 0 0 0 .2.17l.52.14a.5.5 0 0 1 .35.65l-2.2 7.45a.5.5 0 0 1-.5.38l-.15-.03-.54-.14a.4.4 0 0 0-.36.26l-.2.75a.4.4 0 0 0 .02.28.4.4 0 0 0 .22.16ZM29.06 132.28a.3.3 0 0 0-.32-.21l-.14.03-.7.3a.36.36 0 0 0-.19.48l.22.48a.5.5 0 0 1-.27.69l-2.8 1.22-.19.05a.2.2 0 0 1-.18-.08.3.3 0 0 1 0-.3l1.64-4.55c.08-.2.18-.23.23-.23s.16.03.24.2l.07.18a.4.4 0 0 0 .33.2l.14-.02.72-.31a.36.36 0 0 0 .18-.47l-1.72-3.86a.3.3 0 0 0-.32-.2l-.14.02-.72.31a.3.3 0 0 0-.18.2.3.3 0 0 0 0 .27l.08.17a1.4 1.4 0 0 1 .02.88l-1.93 5.34a.5.5 0 0 1-.47.32l-.2-.03-4.76-2.12a1.3 1.3 0 0 1-.62-.62l-.08-.17a.4.4 0 0 0-.34-.22l-.14.02-.72.31a.3.3 0 0 0-.18.2.3.3 0 0 0 0 .27l1.64 3.7a.4.4 0 0 0 .32.22l.14-.02.7-.32a.4.4 0 0 0 .2-.2.4.4 0 0 0 0-.28l-.18-.41q-.09-.23-.02-.3l.13-.08h.05l.18.04 4.61 2.01c.19.08.22.2.22.25s-.02.17-.22.25l-2.85 1.23-.21.04a.5.5 0 0 1-.48-.31l-.2-.43a.4.4 0 0 0-.32-.22l-.15.02-.71.31a.3.3 0 0 0-.18.2.3.3 0 0 0 0 .27l1.73 3.9a.3.3 0 0 0 .32.21l.14-.02.72-.32a.35.35 0 0 0 .18-.47l-.22-.49a.5.5 0 0 1 0-.4.5.5 0 0 1 .27-.29l7.12-3.09.21-.04a.5.5 0 0 1 .48.32l.2.42a.3.3 0 0 0 .32.21l.14-.02.7-.32a.37.37 0 0 0 .19-.48l-1.73-3.9Zm-5.95-11.66.06.32a.36.36 0 0 0 .35.3h.06l.76-.16a.4.4 0 0 0 .23-.14.3.3 0 0 0 .05-.28l-.74-3.87a.4.4 0 0 0-.4-.28h-.03l-.77.14a.36.36 0 0 0-.28.41l.06.32a.4.4 0 0 1-.08.33.4.4 0 0 1-.33.12H22l-1.52-.28a.8.8 0 0 1-.59-.58l-.7-3.22a.8.8 0 0 1 .35-.74l1.4-.74a.4.4 0 0 1 .21-.05.4.4 0 0 1 .38.34l.06.3a.4.4 0 0 0 .4.3h.02l.75-.15a.36.36 0 0 0 .29-.43l-.8-4.16a.36.36 0 0 0-.4-.28h-.02l-.76.14a.4.4 0 0 0-.23.16.3.3 0 0 0-.05.27l.06.31a.8.8 0 0 1-.34.76l-8.71 5.4a.6.6 0 0 0-.26.58l.32 1.73a.6.6 0 0 0 .46.45l10.14 2.1a.8.8 0 0 1 .59.58Zm-4.75-3.54a.4.4 0 0 1-.34.11h-.04l-3.82-.62c-.5-.08-.5-.1-.5-.16s-.02-.07.42-.32l3.34-1.85.22-.06a.4.4 0 0 1 .38.34l.42 2.2a.4.4 0 0 1-.08.34Zm23.49-71.85a.8.8 0 0 1-.19.8l-.23.23a.35.35 0 0 0-.01.5l.53.58a.4.4 0 0 0 .26.11.4.4 0 0 0 .25-.09l2.88-2.67a.35.35 0 0 0 .01-.5l-.53-.58a.4.4 0 0 0-.26-.12.4.4 0 0 0-.25.1l-.23.2a.4.4 0 0 1-.29.12.4.4 0 0 1-.35-.26l-.57-1.44a.8.8 0 0 1 .17-.8l2.35-2.3a.7.7 0 0 1 .48-.18 1 1 0 0 1 .33.08l1.38.8a.4.4 0 0 1 .22.3.4.4 0 0 1-.14.33l-.24.22a.4.4 0 0 0-.12.25.4.4 0 0 0 .1.26l.53.57a.4.4 0 0 0 .26.12.4.4 0 0 0 .25-.1l3.09-2.87a.4.4 0 0 0 .02-.5l-.53-.57a.3.3 0 0 0-.26-.12.4.4 0 0 0-.25.09l-.23.22a.8.8 0 0 1-.52.18 1 1 0 0 1-.3-.06l-9.21-4.51-.22-.05a.6.6 0 0 0-.4.14l-1.29 1.2a.6.6 0 0 0-.14.62l3.62 9.7Zm-1.65-9.44h.03l.02-.02c.02 0 .07 0 .44.21l3.34 1.85a.4.4 0 0 1 .22.3.4.4 0 0 1-.14.35L42.46 40a.4.4 0 0 1-.29.12.4.4 0 0 1-.35-.26l-1.5-3.58c-.2-.46-.19-.48-.14-.52Zm147.67 79.38-.84-.17a.4.4 0 0 0-.35.28l-.1.52a.54.54 0 0 1-.58.4h-.04l-7.59-1.65a.5.5 0 0 1-.32-.22.5.5 0 0 1-.08-.39l.09-.46a.3.3 0 0 0-.06-.27.4.4 0 0 0-.23-.16l-.84-.17a.36.36 0 0 0-.35.3l-1.67 7.97a.4.4 0 0 0 .27.45l2.7.73a.33.33 0 0 0 .33-.26l.22-1.01a.45.45 0 0 0-.28-.48l-1-.33a.6.6 0 0 1-.37-.66l.5-2.46a.54.54 0 0 1 .59-.4h.04l2.65.58a.5.5 0 0 1 .4.62l-.52 2.5a.3.3 0 0 0 .05.27.4.4 0 0 0 .22.15l.83.17a.4.4 0 0 0 .35-.28l.52-2.49a.54.54 0 0 1 .59-.4h.04l2.44.52a.53.53 0 0 1 .4.63l-.52 2.45a.6.6 0 0 1-.61.45l-.87-.1a.4.4 0 0 0-.4.3l-.17.86a.4.4 0 0 0 .05.26.3.3 0 0 0 .23.15l2.44.43h.07a.35.35 0 0 0 .36-.29l1.67-7.91a.4.4 0 0 0-.06-.27.4.4 0 0 0-.23-.16Zm-24.1-46.14a72 72 0 0 0-26.25-29.28c-22.14-14.3-54-14.4-76.34.75a70.8 70.8 0 0 0-30.13 76.15c5.52 25.03 27.2 46.51 51.95 52.1 26.15 6.08 54.03-1.95 72.17-24.4 17.56-21.08 19.98-52.17 8.61-75.33Zm-25.21-11.99a16.7 16.7 0 0 0 4.61-9.94 68 68 0 0 1 17.86 22.36l-.17.1c-3.72 1.96-7.32 2.06-11.64.46-1.1-.41-5.78-1.82-7.01-2.1-8.58-1.99-13.32 2.91-14.03 4.67-.5-.51-1.26-7.79 4.27-11.3.83-.54 1.78-1.04 2.76-1.65a18 18 0 0 0 3.36-2.6Zm-30.27-6.88c.46-.89 1.02-1.8 1.56-2.8a19 19 0 0 0 1.6-3.95 16.7 16.7 0 0 0-.95-10.88 65 65 0 0 1 25.58 9.43l.8.52-.56.88c-2.24 3.56-4.11 5.21-8.66 5.98-1.16.2-5.91 1.31-7.13 1.69-8.97 2.71-9.77 9.9-9.83 11.04-.67-.18-5.45-6.12-2.43-11.93ZM62.63 42.7a59 59 0 0 1 6.02-3.57l.5.94c1.97 3.73 1.92 6.18.32 10.49q-.62 1.64-1.18 3.33a26 26 0 0 0-.93 3.69 16 16 0 0 0 .91 8.54 12.7 12.7 0 0 0 4.33 5.52c-.5.48-8.08 1.63-11.6-3.9-.53-.85-1.04-1.8-1.65-2.76a18 18 0 0 0-2.6-3.36A16.7 16.7 0 0 0 46.8 57a70 70 0 0 1 15.82-14.32Zm-19.3 19.02.71.46c3.56 2.25 4.52 5.4 5.3 9.94q.29 1.73.64 3.47a25 25 0 0 0 1.05 3.65A18.5 18.5 0 0 0 56.6 87a12 12 0 0 0 5.55 2.05c-.18.67-6.17 5.46-11.98 2.43-.88-.45-1.8-1.02-2.8-1.56a20 20 0 0 0-3.94-1.62 16.7 16.7 0 0 0-10.89.97 67 67 0 0 1 10.81-27.55Zm-7.17 62.77a58 58 0 0 1-2.54-8.41 70 70 0 0 1-1.83-19.51l.92.03c4.21.16 6.17 1.77 9.11 5.3q1.12 1.37 2.29 2.7a25 25 0 0 0 2.74 2.64 16 16 0 0 0 8.21 3.75c2.4.26 5.68-1.04 6.72-1.59l.11.47c.12.53-2.74 7.35-9.29 7.64-.98.04-2.06 0-3.2.05a19 19 0 0 0-4.23.57 16.8 16.8 0 0 0-9.01 6.37ZM57 152.94a70 70 0 0 1-17.86-21.83l.92-.5c3.73-1.95 6.17-2.43 10.48-.84q1.65.62 3.33 1.19c1.2.39 7.03 2.8 13.34.2a7.7 7.7 0 0 0 4.43-4.02c.47.5 1.62 8.12-3.91 11.62-.84.54-1.78 1.04-2.75 1.64a19 19 0 0 0-3.37 2.6 16.7 16.7 0 0 0-4.61 9.91Zm34.48-3.29c-.47.88-1.03 1.8-1.56 2.8a19 19 0 0 0-1.62 3.94 16.7 16.7 0 0 0 .96 10.88q-2.86-.43-5.68-1.08a64 64 0 0 1-21.83-9.69l.25-.39c2.25-3.56 6.5-4.34 11.04-5.12q1.75-.28 3.47-.64a30 30 0 0 0 3.67-1.05c9.71-3.36 8.84-10.42 8.9-11.56.35.09 5.45 6.12 2.42 11.93Zm-2.26-95.14a13 13 0 0 0 1.14 7.24c-.7.15-7.8-2.6-8.08-9.14-.04-1 0-2.06-.05-3.2a19 19 0 0 0-.57-4.21 16.7 16.7 0 0 0-6.4-9.03 70 70 0 0 1 27.94-4.34l-.04.9c-.16 4.22-1.1 6.44-4.64 9.39-.91.75-8.45 6.14-9.32 12.42Zm7.33 113.46.03-.9c.16-4.2.98-6.56 4.51-9.51a71 71 0 0 0 5.34-5.03c1.7-2.06 5.23-5.18 4.24-10.5a18 18 0 0 0-1.29-4.01c.68-.17 7.82 2.6 8.1 9.16.03.98 0 2.06.05 3.2a19 19 0 0 0 .57 4.22 16.7 16.7 0 0 0 6.33 8.99 69 69 0 0 1-27.88 4.37Zm34.54-7.34-.48-.9c-1.96-3.74-1.91-6.18-.31-10.5.4-1.1 2.09-6.6 2.3-7.84 1.63-9.64-3.64-12.17-5.38-13.2.5-.5 6.98-1.4 10.48 4.13.54.85 1.04 1.78 1.65 2.76a19 19 0 0 0 2.6 3.36c2.21 2.24 6.3 3.72 11.06 4.37a68 68 0 0 1-21.9 17.83Zm26.24-23.71-.93-.58c-3.56-2.25-5.21-4.12-5.98-8.67-.2-1.16-1.35-5.9-1.69-7.13-2.71-9.96-9.91-9.77-11.07-9.83.19-.66 6.16-5.47 11.97-2.42.88.45 1.8 1.02 2.8 1.55a20 20 0 0 0 3.94 1.63 16.7 16.7 0 0 0 10.88-.96 67 67 0 0 1-9.9 26.41Zm9.72-33.74c-4.2-.16-6.43-1.77-9.38-5.3a44 44 0 0 0-5.64-6.05 13.2 13.2 0 0 0-13.99-1.47c-.17-.7 2.57-7.8 9.12-8.07 1-.04 2.07 0 3.21-.05a19 19 0 0 0 4.2-.57 16.8 16.8 0 0 0 9.04-6.38 69 69 0 0 1 4.35 27.92l-.9-.04Zm14.24 27.45-.16-.04a.3.3 0 0 0-.3.21l-.39.84a.4.4 0 0 0 .17.5l.73.36a.55.55 0 0 1 .26.72l-.62 1.39a.5.5 0 0 1-.48.3l-.21-.03-7.08-3.18a.55.55 0 0 1-.27-.7l.2-.43a.35.35 0 0 0-.2-.47l-.7-.3-.15-.04a.3.3 0 0 0-.32.21l-1.73 3.91a.3.3 0 0 0 0 .28.4.4 0 0 0 .2.2l.7.3.14.03a.4.4 0 0 0 .32-.22l.22-.48a.5.5 0 0 1 .49-.31l.22.05 7.06 3.2a.5.5 0 0 1 .28.69l-.61 1.37a.6.6 0 0 1-.51.33.4.4 0 0 1-.2-.04l-.76-.29-.13-.02a.4.4 0 0 0-.35.22l-.38.84a.3.3 0 0 0 0 .28.3.3 0 0 0 .2.18l2.3.92.13.03a.4.4 0 0 0 .35-.23l3.97-9a.37.37 0 0 0-.18-.48l-2.24-1.09ZM25.72 54.33l.21.07a.4.4 0 0 0 .29-.15l.53-.75a.4.4 0 0 0-.08-.52l-.65-.5a.54.54 0 0 1-.1-.76l.89-1.25a.5.5 0 0 1 .42-.22.5.5 0 0 1 .3.1l6.32 4.5a.5.5 0 0 1 .2.35.5.5 0 0 1-.08.39l-.28.39a.36.36 0 0 0 .1.5l.63.44.2.07a.4.4 0 0 0 .3-.16l2.46-3.5a.36.36 0 0 0-.09-.5l-.63-.44-.21-.07a.4.4 0 0 0-.3.16l-.3.43a.5.5 0 0 1-.43.22.5.5 0 0 1-.3-.1l-6.32-4.5a.54.54 0 0 1-.13-.73l.87-1.24a.6.6 0 0 1 .46-.23.5.5 0 0 1 .29.07l.7.45.2.05a.4.4 0 0 0 .3-.16l.54-.75a.3.3 0 0 0 .05-.26.3.3 0 0 0-.14-.22l-2.1-1.35-.2-.07a.4.4 0 0 0-.3.16l-5.65 8.04a.4.4 0 0 0 .07.52l1.98 1.5Zm-13.95 47.58v-.54a.55.55 0 0 1 .56-.5l7.76.33a.53.53 0 0 1 .5.55l-.02.47a.37.37 0 0 0 .35.38l.76.02a.4.4 0 0 0 .37-.34l.15-4.26a.4.4 0 0 0-.09-.26.3.3 0 0 0-.24-.12l-.8-.02a.4.4 0 0 0-.36.35v.53a.55.55 0 0 1-.56.5l-2.55-.1a.6.6 0 0 1-.44-.18.3.3 0 0 1-.08-.18l.08-.69c0-.02.15-.74 2.43-1.8 2.48-1.12 2.7-2.46 2.7-2.47a7 7 0 0 0 .07-.87v-.34a.35.35 0 0 0-.33-.38l-.89-.02a1 1 0 0 0-.28.05 3 3 0 0 1-.1.71c-.05.15-.24.28-.79.63q-.47.3-1.32.9a7 7 0 0 0-1.88 1.9l-.15.19-.02-.22a3.6 3.6 0 0 0-.89-2.04 3 3 0 0 0-2.11-.84 3.2 3.2 0 0 0-2.17.84 3.7 3.7 0 0 0-.95 2.27 6 6 0 0 0-.1.86l-.17 4.63a.3.3 0 0 0 .1.26.4.4 0 0 0 .25.11l.79.03a.4.4 0 0 0 .36-.35Zm.16-4.36a3 3 0 0 1 .2-.87 1.8 1.8 0 0 1 1.7-1.22 1.6 1.6 0 0 1 1.66 1.4 4 4 0 0 1 .13 1.4.53.53 0 0 1-.55.5l-2.68-.12a.53.53 0 0 1-.5-.54l.02-.56ZM19.3 69.2a3 3 0 0 0 1.2.28c1.33 0 2.23-1.07 3.03-2.17l.24-.33c.71-.99 1.4-1.9 2.27-1.9a2 2 0 0 1 .56.1 1.6 1.6 0 0 1 1 1.28 3.3 3.3 0 0 1-.31 1.74 10 10 0 0 1-.94 1.5.7.7 0 0 1-.56.28.4.4 0 0 1-.2-.04l-.68-.24-.13-.03a.4.4 0 0 0-.35.23l-.4.91a.35.35 0 0 0 .2.47l2 .86.18.04a.5.5 0 0 0 .4-.19 18 18 0 0 0 1.86-2.87c1.86-4.33-.66-5.82-1.47-6.15a3 3 0 0 0-1.3-.29c-1.37 0-2.3 1.1-3.09 2.16l-.26.36c-.7.96-1.36 1.86-2.2 1.86a2 2 0 0 1-.52-.1 1.4 1.4 0 0 1-.79-.8 2.7 2.7 0 0 1 .18-2 7 7 0 0 1 .68-1.08.7.7 0 0 1 .57-.28l.2.03.54.2.13.02a.4.4 0 0 0 .36-.23l.4-.91a.3.3 0 0 0 0-.28.4.4 0 0 0-.2-.2l-1.78-.74-.18-.04a.5.5 0 0 0-.4.18 17 17 0 0 0-1.72 2.56c-1.39 3.25-.11 5.14 1.52 5.84Zm169.84 27.87-2.5-.18a.33.33 0 0 0-.35.32l-.04.94a.4.4 0 0 0 .36.39l.81.06a.56.56 0 0 1 .51.56l-.05 1.52a.5.5 0 0 1-.53.5l-7.76-.3a.5.5 0 0 1-.36-.17.6.6 0 0 1-.15-.38v-.47a.35.35 0 0 0-.34-.37l-.78-.03a.4.4 0 0 0-.36.35l-.13 4.26a.4.4 0 0 0 .1.26.4.4 0 0 0 .24.12l.79.03a.37.37 0 0 0 .36-.36v-.53a.56.56 0 0 1 .56-.5l7.76.3a.5.5 0 0 1 .36.18.6.6 0 0 1 .15.37l-.06 1.5a.55.55 0 0 1-.53.54h-.82a.4.4 0 0 0-.37.4l-.03.91a.36.36 0 0 0 .35.36h2.5a.4.4 0 0 0 .37-.38l.31-9.84a.4.4 0 0 0-.35-.39ZM12 83.99l.83.18a.4.4 0 0 0 .35-.27l.13-.52a.5.5 0 0 1 .5-.4h.13v.01l7.54 1.82a.54.54 0 0 1 .4.64l-.1.45a.35.35 0 0 0 .27.43l.75.17h.08a.35.35 0 0 0 .35-.27l1.85-7.95a.4.4 0 0 0-.26-.47l-2.7-.8a.33.33 0 0 0-.32.27l-.23 1.01a.4.4 0 0 0 .26.48l.98.35a.6.6 0 0 1 .37.68l-.57 2.44a.5.5 0 0 1-.51.4h-.12v-.01l-7.55-1.82a.53.53 0 0 1-.39-.64l.1-.45a.35.35 0 0 0-.27-.43l-.83-.19a.4.4 0 0 0-.35.28l-.96 4.16a.4.4 0 0 0 .04.27.3.3 0 0 0 .22.15Z"/><path id="Path_425" fill="#ffd300" d="M61.46 133.5c-.84.53-1.8 1.05-2.78 1.66a16 16 0 0 0-2.82 2.17 13 13 0 0 0-3.58 7.25c3.09-3.69 7.25-4.47 11.33-5.17q1.67-.28 3.34-.61a23 23 0 0 0 3.2-.9 12 12 0 0 0 5.58-4.06 8.7 8.7 0 0 0 2.09-4.85c-1.68-.79-7.06-3.38-9.34-5.17-.17 2.05-1.43 6.13-7.03 9.68Zm59.2-19.23c8.42-10.1 9.9-26.72 3.94-38.39a37.4 37.4 0 0 0-13.76-15.04c-10.83-7.03-27.97-6.9-38.57.53a36.3 36.3 0 0 0-15.45 39.9c2.61 11.86 14.11 23.28 26 25.88 14.37 3.33 28.6-1.14 37.85-12.87Zm-33.1 17c.89 1.85 1.82 6.02-1.24 11.88-.47.9-1.04 1.82-1.58 2.83a16 16 0 0 0-1.35 3.3 13 13 0 0 0 .52 8.05c.8-4.76 4.26-7.45 7.38-10.14q1.3-1.1 2.55-2.23a25 25 0 0 0 2.34-2.4 13.6 13.6 0 0 0 3.08-6.15 6.3 6.3 0 0 0-1.73-5.2 58 58 0 0 1-9.95.06Zm8.75-78.64c-.89-1.86-1.84-6.02 1.23-11.9.47-.89 1.04-1.81 1.57-2.84a16 16 0 0 0 1.37-3.28 13 13 0 0 0-.54-8.07c-.84 4.76-4.1 7.52-7.34 10.17q-1.34 1.09-2.62 2.21a22 22 0 0 0-2.36 2.4 12 12 0 0 0-2.83 6.3 9 9 0 0 0 .8 5.19c1.8-.16 7.82-.62 10.71-.21Zm43.22 67.35q-.24-1.72-.56-3.45a22 22 0 0 0-.87-3.29 12 12 0 0 0-4-5.65 9 9 0 0 0-5.13-1.57c-.78 1.66-3.38 7.07-5.19 9.37 2.06.17 6.14 1.43 9.68 7.03.54.84 1.05 1.8 1.67 2.78a16 16 0 0 0 2.15 2.82 13 13 0 0 0 7.27 3.57c-3.7-3.12-4.4-7.4-5.03-11.6ZM44.48 63.62a39 39 0 0 0 1.4 6.94 12 12 0 0 0 4.04 5.57 10 10 0 0 0 4.97 1.7c.78-1.67 3.38-7.05 5.17-9.35-2.05-.17-6.13-1.43-9.68-7.02-.55-.84-1.05-1.8-1.66-2.78a15 15 0 0 0-2.17-2.82 13 13 0 0 0-7.25-3.58c3.7 3.1 4.6 7.24 5.17 11.33Zm102.69 29.1a66 66 0 0 0-2.2-2.58 22 22 0 0 0-2.4-2.33 12.4 12.4 0 0 0-6.3-2.8 10.6 10.6 0 0 0-5.23.6c.16 1.86.6 7.8.2 10.69 1.86-.89 6.01-1.84 11.9 1.23.9.47 1.8 1.04 2.82 1.57a16 16 0 0 0 3.28 1.37 13 13 0 0 0 8.07-.52c-4.75-.84-7.5-4.04-10.13-7.23ZM36.5 90.81q1.03 1.28 2.13 2.56a27 27 0 0 0 2.31 2.38 14.4 14.4 0 0 0 6.15 3.35 7.6 7.6 0 0 0 5.7-.84c-.15-1.85-.6-7.81-.2-10.7-1.85.89-6.02 1.84-11.9-1.23-.87-.47-1.81-1.04-2.81-1.57a16 16 0 0 0-3.29-1.35 13 13 0 0 0-8.05.52c4.73.79 7.4 3.8 9.96 6.9Zm89.94-27.53a9 9 0 0 0-3.82 3.61c1.04 1.5 4.43 6.47 5.54 9.17 1.17-1.69 4.3-4.6 10.92-4.87 1-.04 2.1 0 3.24-.05a15 15 0 0 0 3.52-.47 13 13 0 0 0 6.73-4.5c-4.56 1.64-8.66.12-12.62-1.43q-1.63-.65-3.27-1.23a21 21 0 0 0-3.3-.88 12 12 0 0 0-6.91.65Zm-69.49 56.81c1.81-.74 3.7-1.95 4.26-3.1-1.02-1.48-4.44-6.47-5.53-9.19-1.17 1.7-4.3 4.6-10.93 4.88-1 .03-2.09 0-3.23.05a15 15 0 0 0-3.52.47 13 13 0 0 0-6.72 4.5c4.54-1.65 8.51-.25 12.4 1.18q1.6.61 3.2 1.15a24 24 0 0 0 3.23.81 12 12 0 0 0 6.85-.72Zm65.43-69.71c.84-.53 1.8-1.05 2.78-1.66a16 16 0 0 0 2.82-2.17 13 13 0 0 0 3.58-7.25c-3.1 3.69-7.34 4-11.48 4.62q-1.7.24-3.4.56a23 23 0 0 0-3.24.87 12 12 0 0 0-5.61 4 12 12 0 0 0-1.82 5.52c1.66.78 7.07 3.4 9.37 5.17.17-2.05 1.43-6.13 7.01-9.67ZM66.89 61.2c1.54-1.06 6.46-4.42 9.15-5.5-1.69-1.18-4.59-4.3-4.87-10.93-.04-1 0-2.1-.06-3.24a15 15 0 0 0-.46-3.52 13 13 0 0 0-4.49-6.73c1.65 4.53.25 8.52-1.18 12.4q-.6 1.58-1.14 3.2a22 22 0 0 0-.8 3.23 12.4 12.4 0 0 0 .71 6.86 11 11 0 0 0 3.14 4.23m49.57 61.82a58 58 0 0 1-8.68 5.15c1.69 1.17 4.58 4.3 4.87 10.92.05 1 0 2.09.05 3.23a15 15 0 0 0 .47 3.52 13 13 0 0 0 4.48 6.72c-1.67-4.48-.48-8.29.9-12.06a46 46 0 0 0 2.04-6.32 15 15 0 0 0-.1-7.03c-.54-2.1-2.5-4.1-4.01-4.13Z" transform="translate(7.94 7.939)"/></g></g></svg>