<svg xmlns="http://www.w3.org/2000/svg" xmlns:xlink="http://www.w3.org/1999/xlink" width="600" height="300" viewBox="0 0 600 300"><defs><clipPath id="clip-Logo"><path d="M0 0h600v300H0z"/></clipPath></defs><g id="Logo" clip-path="url(#clip-Logo)"><path fill="#e8eff3" d="M0 0h600v300H0z"/><g id="Lunds_universitets_logotyp_länk_till_startsidan." transform="translate(50 98.355)"><path id="Path_426" fill="#93560e" d="M53.65 104.05v4.1c0 .21.94.57.94.57h-2.94s.88-.36.88-.54v-3.45l-.92.15-.01-.16z" transform="translate(-10.889 -21.889)"/><path id="Path_427" fill="#93560e" d="M75.62 106.25a1.4 1.4 0 0 0-.75.24 3 3 0 0 0-.06.7c0 .5.07 1.36.79 1.36s.71-.67.71-1.18c0-.46-.03-1.12-.7-1.12Zm1.5-2.1a2.6 2.6 0 0 0-2.17 2 2 2 0 0 1 .96-.24 1.42 1.42 0 0 1 1.6 1.37c0 .9-.77 1.53-1.87 1.53a1.87 1.87 0 0 1-2.03-1.9c0-1.42 1.39-2.85 3.5-2.85z" transform="translate(-15.534 -21.89)"/><path id="Path_428" fill="#93560e" d="M67.79 106.25a1.4 1.4 0 0 0-.75.24 4 4 0 0 0-.05.7c0 .5.06 1.36.78 1.36s.72-.67.72-1.18c0-.46-.03-1.12-.7-1.12m1.5-2.1a2.7 2.7 0 0 0-2.17 2 2 2 0 0 1 .97-.24 1.42 1.42 0 0 1 1.6 1.37c0 .9-.77 1.53-1.87 1.53a1.86 1.86 0 0 1-2.04-1.9c0-1.42 1.4-2.85 3.5-2.85z" transform="translate(-13.882 -21.89)"/><path id="Path_429" fill="#93560e" d="M59.9 106.25a1.4 1.4 0 0 0-.74.24 4 4 0 0 0-.06.7c0 .5.07 1.36.78 1.36s.72-.67.72-1.18c0-.46-.03-1.12-.7-1.12m1.51-2.1a2.6 2.6 0 0 0-2.18 2 2 2 0 0 1 .97-.24 1.42 1.42 0 0 1 1.6 1.37c0 .9-.77 1.53-1.87 1.53a1.86 1.86 0 0 1-2.03-1.9c0-1.42 1.39-2.85 3.5-2.85z" transform="translate(-12.219 -21.89)"/><path id="Path_430" fill="#93560e" d="M9.85 54.3a7 7 0 0 1 1.46.73 2 2 0 0 0-.14.48c-.06.4.02.85-.08 1.49a2.93 2.93 0 0 1-3.25 2.63 3.05 3.05 0 0 1-2.24-3.7 6 6 0 0 1 .61-1.57l-.02-.4 1.5.17s-1.51 1-1.64 1.8a2.1 2.1 0 0 0 1.91 2.42 2.3 2.3 0 0 0 2.77-1.75c.13-.78-.88-2.3-.88-2.3" transform="translate(-1.17 -11.32)"/><path id="Path_431" fill="#93560e" d="m26.8 25.68-3.2 3.31s.22-.99-.08-1.28l-2.47-2.38c-.37-.35-1.27-.05-1.27-.05l2.01-2.1s-.23 1 .07 1.29l2.54 2.45c.23.22.35.2.58-.04l.76-.78c.4-.42.42-1.91.42-1.91z" transform="translate(-4.174 -4.823)"/><path id="Path_432" fill="#93560e" d="m25.39 19.77 2.12-1.71s-.3.92 0 1.26l2.13 2.64c.26.33 1.22.25 1.22.25l-2.12 1.71s.23-.9 0-1.18l-2.16-2.67c-.28-.35-1.2-.3-1.2-.3" transform="translate(-5.357 -3.741)"/><path id="Path_433" fill="#93560e" d="M33.55 18.51c.27.44 1.26.44 1.26.44l-1.77 1.08s.33-.82.14-1.12l-2.05-3.35-.86-.1 1.5-.91 4.9 1.28-1.36-2.2C35 13.1 34 13.18 34 13.18l1.9-1.16s-.45.8-.28 1.07l2.4 3.91-.4.25-5.75-1.52z" transform="translate(-6.388 -2.469)"/><path id="Path_434" fill="#93560e" d="M73.92 10.06s.83 1.5 1.5 1.63a.9.9 0 0 0 1.15-.61c.26-1.26-2.44-1.79-2.09-3.45a1.53 1.53 0 0 1 1.99-1 6 6 0 0 1 1.23.48.2.2 0 0 0 .2-.05l.18.04-.13 1.4s-.82-1.36-1.47-1.5c-.47-.1-.87.08-.94.41-.17.77 1.2 1.21 1.94 2.35a1.5 1.5 0 0 1 .24 1.21 1.7 1.7 0 0 1-2.12 1.18 7 7 0 0 1-1.38-.57.2.2 0 0 0-.2.1l-.21-.05z" transform="translate(-15.575 -1.317)"/><path id="Path_435" fill="#93560e" d="m82.25 8.3 2.58.87s-.92.24-1.07.67l-1.08 3.22c-.14.4.45 1.16.45 1.16l-2.59-.87s.88-.28 1-.64l1.1-3.25c.15-.43-.4-1.17-.4-1.17Z" transform="translate(-16.997 -1.681)"/><path id="Path_436" fill="#93560e" d="m91.37 16.27-.57 1.14a6 6 0 0 1-2.24-.53c-1.94-.98-2.33-2.53-1.59-4a2.85 2.85 0 0 1 4.02-1.03 12 12 0 0 1 1.52 1.1.3.3 0 0 0 .28.03l.2.1-.71 1.4-.3-.16a1.76 1.76 0 0 0-.96-2.04 2.1 2.1 0 0 0-2.9 1.17 2.23 2.23 0 0 0 .74 3.13 2 2 0 0 0 .93.21l.53-1.06c.2-.38-.55-1.25-.55-1.25l2.54 1.29s-.76.14-.93.5Z" transform="translate(-18.279 -2.345)"/><path id="Path_437" fill="#93560e" d="m96.86 15.4 2.23 1.55s-.95-.02-1.21.35l-1.94 2.79c-.24.34.1 1.24.1 1.24l-2.24-1.56s.93-.02 1.14-.33l1.97-2.82c.25-.36-.06-1.23-.06-1.23Z" transform="translate(-19.796 -3.179)"/><path id="Path_438" fill="#93560e" d="m107.04 32.48-2.9-3.57s.96.33 1.29.06l2.67-2.15c.39-.32.2-1.25.2-1.25l1.83 2.26s-.96-.36-1.28-.1l-2.75 2.22c-.25.2-.25.32-.04.58l.68.85c.37.44 1.85.65 1.85.65Z" transform="translate(-21.978 -5.326)"/><path id="Path_439" fill="#93560e" d="m102.07 26.6-3.38-3.12s1 .2 1.28-.11l2.32-2.53c.35-.37.03-1.27.03-1.27l2.14 1.98s-1.01-.21-1.28.08l-2.4 2.6c-.22.24-.2.36.04.58l.8.74c.43.4 1.92.38 1.92.38z" transform="translate(-20.827 -4.061)"/><path id="Path_440" fill="#93560e" d="M112.73 32.6a3 3 0 0 0 .42-1.36l1.53 2.56s-1-.55-1.3-.08l-1.7 2.51 3.25-.27c.3-.04.35-1.15.35-1.15l1.12 1.88a4 4 0 0 0-1.6-.26l-5.02.42z" transform="translate(-23.168 -6.524)"/><path id="Path_441" fill="#93560e" d="m116.99 41.4-2.95.85c-.54.16-.87 1.06-.87 1.06l-.65-1.8a2 2 0 0 0 1.42.28l2.99-.87c.42-.12.74-.87.74-.87l.6 1.7-2.82 2.79 3.93.3.62 1.73a1.2 1.2 0 0 0-1.14-.25l-2.9 1.26a1.7 1.7 0 0 0-.87 1.11l-.91-2.54s.59.64 1.11.46q.2-.07.37-.16l2.8-1.2v-.02l-4.74-.35-.07-.2z" transform="translate(-23.746 -8.379)"/><path id="Path_442" fill="#93560e" d="M118.55 65.72c-.52-.02-1.07.8-1.07.8l.1-2.08s.49.73.84.74l3.93.16.55-.66-.07 1.77-3.8 3.34 2.59.11c.62.03 1.1-.86 1.1-.86l-.1 2.22s-.4-.81-.73-.82l-4.58-.2.01-.47 4.47-3.93Z" transform="translate(-24.756 -13.532)"/><path id="Path_443" fill="#93560e" d="m122.02 75-.53 2.68s-.36-.88-.8-.97l-3.33-.66c-.41-.08-1.1.6-1.1.6l.53-2.68s.4.84.77.91l3.36.67c.44.09 1.1-.54 1.1-.54Z" transform="translate(-24.535 -15.54)"/><path id="Path_444" fill="#93560e" d="m115.25 92.05.86-1.68-1.72-.88-.63 1.24a1.7 1.7 0 0 0 .1 1.16l-1.52-.78a1.6 1.6 0 0 0 1.06-.7l.57-1.13-1.37-.7c-.33-.17-.43-.14-.55.08l-.65 1.27c-.25.5.18 1.57.18 1.57l-1.15-.7 2.36-4.6s0 1.15.38 1.34l3.04 1.56c.42.21 1.24-.3 1.24-.3L115.3 93l-1.14-.5s.92-.1 1.1-.46Z" transform="translate(-23.305 -18.121)"/><path id="Path_445" fill="#93560e" d="M104.45 101.96s-1.7-.1-2.18.37a.9.9 0 0 0-.1 1.3c.9.9 2.81-1.08 4.02.1a1.53 1.53 0 0 1-.23 2.22 6 6 0 0 1-1.07.77l-.2.33-1.1-.86s1.58.04 2.05-.43c.33-.34.4-.78.17-1.01-.57-.56-1.67.35-3.03.36a1.5 1.5 0 0 1-1.15-.45 1.7 1.7 0 0 1 .15-2.42 8 8 0 0 1 1.22-.85.2.2 0 0 0 .03-.22l.16-.16Z" transform="translate(-21.355 -21.248)"/><path id="Path_446" fill="#93560e" d="m101.58 109.8-2.15 1.68s.3-.91.03-1.26l-2.1-2.68c-.25-.33-1.21-.27-1.21-.27l2.15-1.67s-.25.89-.02 1.18l2.11 2.71c.28.35 1.2.31 1.2.31" transform="translate(-20.29 -22.214)"/><path id="Path_447" fill="#93560e" d="m72.4 122.86-2.71.28s.74-.61.69-1.06l-.35-3.37c-.04-.42-.89-.88-.89-.88l2.71-.28s-.68.62-.64 1l.35 3.42c.04.44.84.9.84.9Z" transform="translate(-14.59 -24.738)"/><path id="Path_448" fill="#93560e" d="M65.37 119.48s-1.1-1.3-1.78-1.31a.9.9 0 0 0-1 .83c-.03 1.28 2.73 1.27 2.7 2.97 0 .82-.74 1.39-1.76 1.37a6 6 0 0 1-1.3-.24l-.37.1-.14-1.4s1.07 1.16 1.73 1.17c.48 0 .84-.24.85-.58 0-.79-1.42-.95-2.37-1.93a1.5 1.5 0 0 1-.47-1.14 1.7 1.7 0 0 1 1.85-1.57 7 7 0 0 1 1.46.3l.4-.13z" transform="translate(-12.97 -24.781)"/><path id="Path_449" fill="#93560e" d="m47.27 117.15.34-1.23a6 6 0 0 1 2.3.07c2.1.57 2.79 2 2.35 3.6a2.85 2.85 0 0 1-3.73 1.8 12 12 0 0 1-1.72-.78l-.48-.02.41-1.5s.82 1.66 1.68 1.89a2.1 2.1 0 0 0 2.6-1.73 2.23 2.23 0 0 0-1.35-2.91 2 2 0 0 0-.95-.03l-.3 1.15c-.2.74.78 1.1.78 1.1l-2.75-.74s.72-.29.82-.67" transform="translate(-9.778 -24.376)"/><path id="Path_450" fill="#93560e" d="m24.91 102.6-1.05 1.1 2.04 1.95 1.07-1.12c.31-.32.1-1.24.1-1.24l2 1.9s-.94-.16-1.24.15l-2.35 2.48c-.3.3-.1 1.23-.1 1.23l-2-1.9s.9.2 1.24-.15l.93-.97-2.05-1.96-.9.96c-.34.34-.14 1.24-.14 1.24l-1.99-1.9s.93.2 1.25-.14l2.34-2.46c.31-.32.1-1.26.1-1.26l1.99 1.9s-.92-.14-1.24.2Z" transform="translate(-4.322 -21.141)"/><path id="Path_451" fill="#93560e" d="M6.91 74.42v.02l3.06-.21c.56-.04 1.08-.86 1.08-.86l.25 1.9a2 2 0 0 0-1.33-.57l-3.1.22c-.44.04-.9.7-.9.7l-.24-1.8 3.35-2.12-3.79-1.12-.24-1.83a1.2 1.2 0 0 0 1.06.48l3.11-.62a1.7 1.7 0 0 0 1.07-.9l.36 2.68s-.44-.76-1-.68l-.4.07-2.98.6v.01l4.55 1.34.03.2Z" transform="translate(-1.066 -14.219)"/><path id="Path_452" fill="#93560e" d="M121.4 56.47a3 3 0 0 0 .96-1.04l.26 2.96s-.66-.92-1.14-.64l-2.33 1.34 2.83 1.29c.3.1.75-.8.75-.8l.2 2.16a4 4 0 0 0-1.34-.92l-4.4-1.94z" transform="translate(-24.731 -11.628)"/><path id="Path_453" fill="#93560e" d="M119.56 81.1a3 3 0 0 0 1.3-.6l-.89 2.84s-.26-1.1-.81-1.02l-2.66.36 2.12 2.26c.25.2 1-.47 1-.47l-.63 2.09a4 4 0 0 0-.89-1.36l-3.34-3.46Z" transform="translate(-24.219 -16.919)"/><path id="Path_454" fill="#93560e" d="M9.2 84.31a3 3 0 0 0-.68 1.25l-.97-2.82s.87.74 1.26.35l1.95-1.86-3.05-.57c-.32-.02-.54.96-.54.96l-.7-2.06a4 4 0 0 0 1.5.58l4.74.83-3.5 3.34Z" transform="translate(-1.364 -16.72)"/><path id="Path_455" fill="#93560e" d="M32.77 109.14c.25-.37-.23-1.35-.23-1.35l2.54 1.76s-1.08-.11-1.34.26l-2.38 3.47.84.57c.54.38 1.63-.1 1.63-.1l-.89 1.06-4.48-3.11.62-1.23s-.06 1.18.48 1.56l.83.57z" transform="translate(-6.005 -22.679)"/><path id="Path_456" fill="#93560e" d="M76.38 117.49c-.1-.43-1.15-.74-1.15-.74l3-.7s-.8.73-.7 1.17l.95 3.96.98-.23c.65-.15 1.02-1.28 1.02-1.28l.2 1.36-5.32 1.25-.5-1.3s.84.85 1.48.7l.99-.23z" transform="translate(-15.798 -24.421)"/><path id="Path_457" fill="#93560e" d="M91.42 111.5c-.23-.4-1.32-.37-1.32-.37l2.67-1.56s-.56.93-.33 1.33l2.13 3.62.87-.52c.57-.33.6-1.51.6-1.51l.58 1.25-4.72 2.74-.84-1.09s1.04.56 1.6.23l.88-.51z" transform="translate(-19.014 -23.054)"/><path id="Path_458" fill="#93560e" d="M118.78 53.28a.84.84 0 1 1 .84.85.84.84 0 0 1-.84-.85" transform="translate(-25.067 -10.998)"/><path id="Path_459" fill="#93560e" d="M56.58 120.44a.84.84 0 1 1 .83.85.84.84 0 0 1-.83-.85" transform="translate(-11.94 -25.172)"/><path id="Path_460" fill="#93560e" d="M7.53 64.68a.84.84 0 1 1 .83.85.84.84 0 0 1-.83-.85" transform="translate(-1.588 -13.404)"/><path id="Path_461" fill="#93560e" d="M16.25 34.44a2.8 2.8 0 0 0 4.02-.94 2.95 2.95 0 0 0-.44-4.31 2.8 2.8 0 0 0-4.01.87 3 3 0 0 0 .43 4.38m.41-1.28a1.87 1.87 0 0 1-.66-2.71c.77-1.06 2.21-.86 3.33-.05.96.7 1.46 1.76.76 2.72s-2.1 1-3.42.04Z" transform="translate(-3.183 -5.981)"/><path id="Path_462" fill="#93560e" d="m45.19 11.64 1.5-.57a2.7 2.7 0 0 1 1.46.03l-1.17-1.36s-.08.75-.53.91l-1.58.64-1.4-1.7 2.3-.76a3 3 0 0 1 1.3.2l-1-.93-4.86 1.67a.8.8 0 0 1 .51 1l-.07 3.66a4 4 0 0 1-.46 1.3l1.85-.7s-.8-.33-.75-.74l.09-1.05 2.03-.62 1.14 1.4 4.5-1.72-.96-1.04s.33.77-.19.96l-2.39.94zm-1.08.68-1.69.54.08-2.5z" transform="translate(-8.692 -1.641)"/><path id="Path_463" fill="#93560e" d="m12.87 40.83.14-.3c.44-.94.4-1.62-.43-2.01s-1.41.1-1.77.86l-.18.4zm1.5.7c.4.18 1.27-.45 1.27-.45l-1.27 2.73s-.04-1-.5-1.21l-3.07-1.43c-.37-.17-1.26.37-1.26.37l.4-1.03c.17-.45.4-1.02.54-1.3.53-1.14.97-1.7 1.54-1.9a1.3 1.3 0 0 1 1.06.03 1.5 1.5 0 0 1 .71 1.74c.67-.32 1.41-.3 2.22-.6a9 9 0 0 0 1.24-.67l-.21.48c-.45.97-.78 1.3-1.31 1.5-.57.2-1.6.27-2.26.57l-.29.62z" transform="translate(-2.014 -7.783)"/><path id="Path_464" fill="#93560e" d="m8.99 48.53 1.46 1.2.45-1.5ZM10.72 50l.73.6c.32.26 1.05-.54 1.05-.54l-.67 2.25a3 3 0 0 0-.65-1.23l-4.1-3.48 5.4-.84a3 3 0 0 0 1.18-.58l-.83 2.77s-.2-1.03-.6-.97l-.95.16Z" transform="translate(-1.493 -9.679)"/><path id="Path_465" fill="#93560e" d="m14.04 89.75-.16-.3c-.49-.91-1.05-1.3-1.86-.87s-.76 1.2-.37 1.93l.2.4Zm1.44-.73c.39-.2.4-1.27.4-1.27l1.42 2.65s-.82-.56-1.26-.33l-3 1.59c-.36.2-.46 1.23-.46 1.23l-.58-.94c-.26-.41-.57-.95-.71-1.22-.6-1.11-.77-1.8-.6-2.37a1.3 1.3 0 0 1 .67-.83 1.5 1.5 0 0 1 1.82.47c.15-.72.6-1.3.86-2.13a9 9 0 0 0 .21-1.4l.26.47c.5.94.57 1.4.4 1.95-.18.57-.74 1.44-.9 2.15l.32.6Z" transform="translate(-2.243 -17.759)"/><path id="Path_466" fill="#93560e" d="M20.28 95.94c-.72-.96-1.88-.8-2.83-.1-1.1.83-1.73 2.15-.96 3.2a1.87 1.87 0 0 0 2.8.17c1.31-.97 1.7-2.3.99-3.27m-4.2 3.15a2.8 2.8 0 0 1 .36-4.08 2.96 2.96 0 0 1 4.25.87 2.8 2.8 0 0 1-.32 4.12 3 3 0 0 1-4.3-.9Z" transform="translate(-3.243 -19.862)"/><path id="Path_467" fill="#93560e" d="M41.2 113.2c-1.1-.5-2.03.2-2.53 1.26-.58 1.25-.5 2.71.68 3.26a1.87 1.87 0 0 0 2.54-1.18c.69-1.48.4-2.84-.7-3.35M39 117.96a2.8 2.8 0 0 1-1.63-3.77 2.95 2.95 0 0 1 4.15-1.26 2.8 2.8 0 0 1 1.69 3.77 3 3 0 0 1-4.2 1.26" transform="translate(-7.834 -23.687)"/><path id="Path_468" fill="#93560e" d="m109.19 96.87-.2.27c-.62.83-.73 1.5 0 2.05s1.41.2 1.9-.48l.27-.35Zm-1.3-1.02c-.36-.26-1.34.17-1.34.17l1.8-2.4s-.15 1 .24 1.29l2.71 2.03c.33.25 1.31-.1 1.31-.1l-.6.93c-.26.4-.61.91-.8 1.16-.76 1-1.3 1.46-1.9 1.55a1.3 1.3 0 0 1-1.03-.26 1.5 1.5 0 0 1-.35-1.84c-.71.17-1.44 0-2.29.12a9 9 0 0 0-1.35.4l.31-.43c.64-.85 1.02-1.1 1.59-1.19.6-.08 1.62.06 2.33-.1l.4-.54-1.04-.78Z" transform="translate(-22.009 -19.687)"/><path id="Path_469" fill="#93560e" d="m85.64 117.09.04-1.9-1.45.57Zm.1-2.28.02-.95c0-.4-1.07-.49-1.07-.49l2.18-.86a3 3 0 0 0-.57 1.28l-.2 5.37-3.99-3.73a3 3 0 0 0-1.18-.57l2.67-1.06s-.68.8-.38 1.08l.71.64z" transform="translate(-17.077 -23.674)"/><path id="Path_470" fill="#93560e" d="M65.23 20.84a3 3 0 0 0-.85-1.09l2.88.2s-.99.49-.78 1l.93 2.43 1.66-2.51c.14-.28-.66-.85-.66-.85l2.11.15a4 4 0 0 0-1.09 1.13l-2.53 3.93-1.67-4.4Z" transform="translate(-13.586 -4.099)"/><path id="Path_471" fill="#93560e" d="M35.07 31.22a3 3 0 0 0-1.36-.23l2.27-1.8s-.4 1.03.09 1.27l2.32 1.18-.45-2.98c-.08-.29-1.06-.18-1.06-.18l1.66-1.3a3.5 3.5 0 0 0-.04 1.56l.76 4.61Z" transform="translate(-7.114 -5.665)"/><path id="Path_472" fill="#93560e" d="M91.42 29.92a3 3 0 0 0 0-1.38l2.14 1.94s-1.07-.23-1.23.3l-.8 2.64 2.88-1.1c.28-.12 0-1.06 0-1.06L96 32.67a4 4 0 0 0-1.56.21L90 34.4Z" transform="translate(-18.995 -5.953)"/><path id="Path_473" fill="#93560e" d="M45.68 28.3c.18.4 1.24.47 1.24.47l-2.72 1.27s.62-.85.44-1.25l-1.75-3.68-.89.41c-.58.28-.7 1.42-.7 1.42l-.47-1.25 4.8-2.26.73 1.13s-.96-.63-1.54-.36l-.89.42z" transform="translate(-8.618 -4.876)"/><path id="Path_474" fill="#93560e" d="M73.92 21.91h-.02l-1.03 2.79c-.2.52.32 1.3.32 1.3l-1.77-.53a2 2 0 0 0 1.02-.95l1.05-2.84c.15-.4-.25-1.08-.25-1.08l1.68.51.54 3.82 2.5-2.9 1.72.52s-.72.16-.86.74l-.7 3a1.7 1.7 0 0 0 .38 1.31l-2.51-.76s.84-.08 1-.6l.1-.38.67-2.89h-.01l-3.01 3.5-.2-.05z" transform="translate(-15.072 -4.277)"/><path id="Path_475" fill="#93560e" d="m98.96 37.46-1.12-1.44-1.48 1.15.83 1.07c.28.36 1.06.38 1.06.38l-1.3 1.02a1.5 1.5 0 0 0-.2-1.22l-.75-.97-1.18.93c-.29.22-.3.31-.16.5l.86 1.1c.33.43 1.46.49 1.46.49l-1.1.73-3.08-3.96s1.01.47 1.34.21l2.62-2.04c.35-.28.23-1.21.23-1.21l2.83 3.62-.9.8s.28-.86.04-1.16" transform="translate(-19.583 -7.147)"/><path id="Path_476" fill="#93560e" d="m58.57 22.84.32-.03c1-.11 1.55-.47 1.46-1.36s-.8-1.12-1.6-1.04l-.43.04Zm.14 1.6c.04.43 1 .84 1 .84l-2.9.3s.8-.54.75-1.02l-.34-3.27c-.04-.4-.93-.87-.93-.87l1.06-.17c.46-.09 1.05-.17 1.35-.2a3 3 0 0 1 2.36.33 1.3 1.3 0 0 1 .5.9 1.45 1.45 0 0 1-1.1 1.46c.6.4.96 1.02 1.6 1.55a8 8 0 0 0 1.19.7l-.52.07c-1.02.1-1.46 0-1.9-.35-.45-.37-1.02-1.2-1.6-1.6l-.66.08z" transform="translate(-11.879 -4.149)"/><path id="Path_477" fill="#93560e" d="M30.22 41.65c.46.32.56.3.94-.23a2.13 2.13 0 0 0-.5-3.24 2.4 2.4 0 0 0-1.74-.47 2.4 2.4 0 0 0-1.54 1.14 5 5 0 0 0-.34.55zm-4.55-.86.71-1.14.63-.95c.96-1.36 1.58-1.88 2.44-2.03a2.4 2.4 0 0 1 1.83.44 2.7 2.7 0 0 1 1.08 1.7 3.6 3.6 0 0 1-.93 2.8l-1.53 2.17s.1-.89-.3-1.16l-2.63-1.85c-.48-.35-1.3.02-1.3.02" transform="translate(-5.417 -7.661)"/><path id="Path_478" fill="#93560e" d="m24.01 48.37 1.29 1.3.58-1.4Zm1.53 1.6.64.65c.28.29 1.07-.42 1.07-.42l-.87 2.11a3 3 0 0 0-.51-1.26l-3.61-3.76 5.3-.27a3 3 0 0 0 1.2-.45l-1.07 2.59s-.1-1.02-.5-1l-.93.07z" transform="translate(-4.697 -9.76)"/><path id="Path_479" fill="#93560e" d="M84.12 30.05c1.01.56 1.97-.06 2.52-1.07.64-1.18.66-2.6-.45-3.2a1.8 1.8 0 0 0-2.53.98c-.77 1.4-.57 2.73.46 3.3Zm2.41-4.49a2.7 2.7 0 0 1 1.34 3.75 2.87 2.87 0 0 1-4.1.96 2.74 2.74 0 0 1-1.4-3.75 2.9 2.9 0 0 1 4.16-.96" transform="translate(-17.318 -5.225)"/><path id="Path_480" fill="#93560e" d="M87.33 34.72c-1.75-1.44-1.16-1.23-1.64-2.75s-.15-3.66-.5-3.9.77-.33 1.14 2.92 1 3.73 1 3.73" transform="translate(-17.966 -5.832)"/><path id="Path_481" fill="#93560e" d="M25.77 94.64a50.58 50.58 0 1 1 .29.17l-.81-.44-.57.82.82.54a51.5 51.5 0 1 0-.3-.18l.62.32.49-.88z"/><path id="Path_482" fill="#93560e" d="M34.35 87.56a38.21 38.21 0 0 1 10.5-69.53l.3-.88a38.99 38.99 0 0 0-11.2 71.06l.6.33.36-.63Z" transform="translate(-3.254 -3.55)"/><path id="Path_483" fill="#93560e" d="M39.14 88.14a38.98 38.98 0 1 0 12.8-71.71l-.12.82a38.19 38.19 0 1 1-12.33 70.13l-.58-.34-.6.53Z" transform="translate(-8.086 -3.254)"/><path id="Path_484" fill="#93560e" d="M63.86 11.72a2.3 2.3 0 0 1-1.76-1" transform="translate(-13.105 -2.194)"/><path id="Path_485" fill="#93560e" d="m64.3 7.54 1.32-1.25a2 2 0 0 1 .65.84 2 2 0 0 1 .2 1l-1.82.15 1.62.86a2.3 2.3 0 0 1-1.49 1.37l-.72-1.68-.32 1.84a2.3 2.3 0 0 1-1.76-1l1.38-1.23-1.76.28a2.3 2.3 0 0 1 .4-1.99l1.51.92-.8-1.53a2.3 2.3 0 0 1 2.02-.23z" transform="translate(-12.981 -1.144)"/><path id="Path_486" fill="#93560e" d="M86.92 50.75a1.1 1.1 0 0 1-.93-.71.6.6 0 0 1 .25-.68l.04.04.04.06v-.01c.08.05.19 0 .3 0 .23-.01.28-.1.26-.32a.35.35 0 0 0-.42-.34 1 1 0 0 1-.7-.02c-.06-.04-.07-.24-.02-.4.02-.1.1-.3.1-.35 0-.15-.18-.26-.34-.25a.3.3 0 0 0-.31.29c0 .2.14.3.24.4a.3.3 0 0 1 .03.36 2 2 0 0 1-.43.2v.02h-.09q-.38 0-.4.34a.34.34 0 0 0 .38.36.4.4 0 0 0 .35-.2.8.8 0 0 1 .3.6c-.04.34-.07.6-.7.8a.9.9 0 0 1-.83-.14.6.6 0 0 1-.62.4c-.7-.08-.83-.94-.83-.94a.5.5 0 0 0 .44-.37c.12-.33-.1-.52-.44-.57-.21-.03-.48.3-.77.17s.15-.7-.23-.92c-.35-.2-.56.26-.56.26a14 14 0 0 1 1.25 1.58 30 30 0 0 0 1.36 1.79l-.4.27s-.55-.85-1.42-2.03a21 21 0 0 0-1.31-1.61s-.02-.09.18-.3c.26-.27.66-.64 1.14-.43s.24.97.24.97a.8.8 0 0 1 .69-.22.9.9 0 0 1 .8.9 1 1 0 0 1-.46.72s-.06.22.38.18c.27-.03.45-.43.45-.43.02 0 .67.6 1.02.14l.08-.15-.17.02a.82.82 0 0 1-.02-1.64l.28.03a.7.7 0 0 1-.41-.61.85.85 0 0 1 .77-.77.9.9 0 0 1 .85.72.8.8 0 0 1-.23.53.6.6 0 0 1 .48-.17.82.82 0 0 1 .03 1.64h-.1l.01.01a1 1 0 0 0 .53.23c.54.1.6-.33.6-.33a.6.6 0 0 0 .52.16c.43-.14.34-.4.34-.4a.8.8 0 0 1-.73-.43.63.63 0 0 1 .2-.97 1.2 1.2 0 0 1 .85-.1s-.46-.53-.1-.93.85-.21 1.2-.07l.44.2a7 7 0 0 0-.63 1.83l-.55 2.42-.44-.11s.25-1.37.5-2.37a5 5 0 0 1 .53-1.5s-.43-.38-.67-.05c-.26.35.34.63.12.86s-.6 0-.79.11c-.3.19-.27.3-.1.55a.5.5 0 0 0 .54.15s.28.87-.33 1.23a.7.7 0 0 1-.78-.06s-.13.4-.86.38Z" transform="translate(-16.991 -9.838)"/><path id="Path_487" fill="#93560e" d="M86.66 53.4c1.02-.12 1.7-.3 1.66-.58-.03-.17-.87-.23-1.89-.12s-1.83.33-1.8.5 1.01.3 2.03.2m-2.81-.04c-.05-.43 1.27-.93 2.94-1.12s3.08.02 3.13.45-1.27.93-2.95 1.11-3.07 0-3.12-.44" transform="translate(-17.694 -10.941)"/><path id="Path_488" fill="#93560e" d="M100.15 48.84a1.1 1.1 0 0 1-.92-.72.6.6 0 0 1 .24-.68l.05.05.04.05v-.01c.08.05.19 0 .29 0 .24-.01.28-.1.27-.32a.35.35 0 0 0-.42-.35 1 1 0 0 1-.7-.01c-.06-.04-.07-.24-.02-.4.02-.1.1-.3.1-.36 0-.14-.18-.25-.35-.24a.3.3 0 0 0-.3.28c0 .21.14.3.23.4a.3.3 0 0 1 .04.37 2 2 0 0 1-.44.2v.01h-.09c-.23 0-.4.12-.39.34a.34.34 0 0 0 .38.35.4.4 0 0 0 .35-.2.8.8 0 0 1 .3.6c-.05.34-.07.61-.7.8a.9.9 0 0 1-.83-.14.6.6 0 0 1-.62.4c-.71-.08-.84-.94-.84-.94a.5.5 0 0 0 .44-.37c.13-.32-.09-.52-.43-.57-.22-.03-.48.3-.77.17s.15-.7-.24-.92c-.35-.2-.55.26-.55.26a14 14 0 0 1 1.25 1.58c.56.82 1.35 1.79 1.35 1.79l-.4.27s-.55-.85-1.41-2.02c-.74-1-1.32-1.62-1.32-1.62s-.02-.08.19-.3c.26-.27.66-.64 1.14-.42s.23.96.23.96a.8.8 0 0 1 .7-.22.9.9 0 0 1 .8.9.9.9 0 0 1-.46.72s-.06.23.39.19c.26-.03.45-.43.45-.43.02 0 .66.6 1.01.14l.09-.15-.17.02a.82.82 0 0 1-.03-1.64l.28.03a.7.7 0 0 1-.41-.61.85.85 0 0 1 .77-.78.9.9 0 0 1 .85.72.8.8 0 0 1-.23.54.6.6 0 0 1 .49-.17.82.82 0 0 1 .02 1.64l-.1-.01.02.02a1 1 0 0 0 .52.22c.54.1.6-.33.6-.33a.6.6 0 0 0 .53.17c.42-.14.33-.4.33-.4a.8.8 0 0 1-.72-.43.63.63 0 0 1 .19-.97 1.2 1.2 0 0 1 .86-.1s-.46-.54-.1-.93.84-.22 1.2-.08l.44.21a7 7 0 0 0-.64 1.83l-.55 2.42-.43-.12s.24-1.36.49-2.37a5 5 0 0 1 .53-1.49s-.43-.38-.66-.05c-.27.35.33.63.12.86s-.61 0-.79.11c-.3.19-.27.3-.1.55a.5.5 0 0 0 .54.16s.28.86-.34 1.22a.7.7 0 0 1-.78-.06s-.12.4-.86.38" transform="translate(-19.784 -9.434)"/><path id="Path_489" fill="#93560e" d="M99.9 51.47c1.02-.1 1.7-.3 1.66-.57-.03-.17-.87-.23-1.89-.12s-1.83.34-1.8.51 1 .29 2.03.18m-2.81-.02c-.05-.43 1.26-.94 2.94-1.12s3.08.01 3.13.44-1.27.93-2.95 1.12-3.08-.01-3.13-.44Z" transform="translate(-20.487 -10.537)"/><path id="Path_490" fill="#93560e" d="M94.68 57.87a1.1 1.1 0 0 1-.93-.72.6.6 0 0 1 .25-.67l.04.04.05.05c.07.05.18 0 .29 0 .23-.01.28-.1.27-.32a.35.35 0 0 0-.42-.35 1 1 0 0 1-.7-.01c-.06-.05-.07-.24-.02-.4.01-.1.1-.3.1-.36 0-.14-.19-.25-.35-.24a.3.3 0 0 0-.3.29c0 .2.14.29.23.4a.3.3 0 0 1 .04.36 2 2 0 0 1-.44.2v.02h-.1c-.23 0-.4.11-.38.33a.34.34 0 0 0 .37.36.4.4 0 0 0 .36-.2.8.8 0 0 1 .3.6c-.05.34-.08.61-.7.8a.9.9 0 0 1-.84-.14.6.6 0 0 1-.61.4c-.72-.09-.84-.95-.84-.95a.5.5 0 0 0 .44-.37c.12-.32-.09-.52-.44-.56-.2-.03-.48.3-.77.17s.15-.7-.23-.92c-.36-.2-.56.26-.56.26a14 14 0 0 1 1.25 1.58c.56.81 1.36 1.78 1.36 1.78l-.4.27s-.55-.85-1.42-2.02a21 21 0 0 0-1.31-1.61s-.02-.09.18-.3c.27-.27.66-.64 1.14-.43s.24.97.24.97a.8.8 0 0 1 .69-.23.9.9 0 0 1 .8.9 1 1 0 0 1-.46.73s-.06.22.39.18c.27-.03.45-.43.45-.43.02 0 .66.6 1.02.14l.08-.15-.17.02a.8.8 0 0 1-.82-.81.8.8 0 0 1 .8-.83l.27.03a.7.7 0 0 1-.4-.61.84.84 0 0 1 .76-.77.9.9 0 0 1 .85.71.8.8 0 0 1-.23.54.6.6 0 0 1 .49-.17.82.82 0 0 1 .02 1.64l-.1-.01.02.02a1 1 0 0 0 .52.22c.55.1.61-.32.61-.32a.6.6 0 0 0 .52.16c.42-.14.34-.4.34-.4a.8.8 0 0 1-.73-.43.63.63 0 0 1 .19-.97 1.3 1.3 0 0 1 .86-.1s-.46-.54-.11-.93.85-.22 1.2-.08l.45.2a7 7 0 0 0-.64 1.84c-.34 1.57-.55 2.42-.55 2.42l-.43-.12s.24-1.36.49-2.37a5 5 0 0 1 .53-1.5s-.43-.38-.67-.05c-.26.35.34.63.12.86s-.6 0-.78.11c-.3.19-.27.3-.1.55a.5.5 0 0 0 .53.16s.28.86-.33 1.23a.7.7 0 0 1-.78-.07s-.12.4-.85.38" transform="translate(-18.628 -11.34)"/><path id="Path_491" fill="#93560e" d="M94.42 60.5c1.02-.1 1.7-.3 1.66-.56-.03-.17-.87-.23-1.89-.12s-1.83.34-1.8.5 1.01.3 2.03.19m-2.81-.02c-.05-.43 1.27-.93 2.94-1.12s3.08.01 3.13.45-1.27.93-2.95 1.12-3.07-.02-3.12-.45" transform="translate(-19.332 -12.443)"/><path id="Path_492" fill="#93560e" d="M68.26 47.3c-1.36 1.5-.47 3.68-.78 5.6-.54 1.55-2.18 2.53-2.67 4.12-.12.92-.23 2.2.42 2.88.04-.12-.08-.19-.1-.28-.27-1.88.32-3.22 1.95-4.81 2.48-2.8-.42-5.08 1.93-7.2z" transform="translate(-13.659 -9.913)"/><path id="Path_493" fill="#93560e" d="M75.15 65.58a12 12 0 0 0 3-.47 62 62 0 0 0 3-1 18 18 0 0 1 5.71-1.23h.28a6 6 0 0 1 1.82.29 6 6 0 0 1 .98.53c1.47 1.27 1.57 1.99 3.4 3.12.84.32 1.62 1.2 2.28 1.37a14 14 0 0 1-1.15-.99 50 50 0 0 0-3.97-3.91 7 7 0 0 0-2.87-.91 12 12 0 0 0-6.06.94 23 23 0 0 1-4.44 1.05 4 4 0 0 1-1.86-.1c-.24-1.99-.95-1.6-.7-3.95a10.7 10.7 0 0 0-.48-7.4 2.7 2.7 0 0 0-.36-2.54c-.55-.55-2.02-.68-2.31.3.16.76 1.17.3 1.66.65.59.15.54.85.45 1.23-.14 1.14-1.46 1.72-2.32 1.94.33.66 1.65.23 2.07-.16a6 6 0 0 1 .93 2.48c.1 2.27-.55 2.17-1.4 3.62-.4.78-.36 1.78.23 3.34-.16-2.37.15-2.51.8-3.57a8 8 0 0 0-.21 1.89c.03 1.1.6 1.42.65 2.4a3.4 3.4 0 0 1-.77 1.88c-1.03 1.36-2.86 1.2-3.6 4.68 1.35-1.98 1.66-2.5 2.91-3.21 1.68-.71 1.94-1.27 2.32-2.27Z" transform="translate(-14.756 -10.473)"/><path id="Path_494" fill="#93560e" d="M56.27 52.31c-.16-.48-.3-.95-.81-1.06-.52-.27-.99 1.02-1.16-.01-.2-.6.5-1.05-.17-1.54-.55-.83.26-1.02.03-1.91-.04-.65-.15-1.5.76-1.54a7.6 7.6 0 0 1 4.06.07 1.4 1.4 0 0 0 .54-.73 3 3 0 0 1 1.01.09c.4.16.86.42.86.42-.4.05-1.06.12-1.02.66.26.64.87-.25 2.5.8.12.14.36.22.41.63-.77-.34-1.17-.22-1.8-.5a2 2 0 0 0-1.18-.1c-.2.04-1 .61-.96.2a3 3 0 0 0-.11-.64c-.13-.38-.3-.35-.65-.46a7 7 0 0 0-3.43-.12c-.36.09-.52.6-.37 1.01.32.63.43.53.77.5.28-.15.44-.57.93-.61.35.02.65 0 .75.4l.01.2c-.13-.28-.51-.15-.7-.06-.1.09-.17.18-.1.28.13.22.28.11.47.16-.17.3-.96.39-1.49.33-.18-.03-.2.25-.3.3-.19.25-.07.48.01.74.8.96 2.14 1.03 3.17 1.7a1.7 1.7 0 0 1 .57.81c-.49-.22-.6.53-.6.68l.22-.13a4 4 0 0 0 .6-.3c.27.26.18.68.25 1a8 8 0 0 1 .21-.95 6.8 6.8 0 0 1-.74 6.23c-.92 1.9-.8 2.28-.7 4.85-1.26-2.65-.3-3.99-.05-5.62a.5.5 0 0 0-.18-.5 2.5 2.5 0 0 1-.62 1.88 3.4 3.4 0 0 0-.51 3.53 5.5 5.5 0 0 1 .6 2.88 6.5 6.5 0 0 0-.07 3.46 5.2 5.2 0 0 1-.61-3.6 4 4 0 0 0-.72-2.55l.33.28c-.32 2.18-3.3 2.39-2.2 5.34a10 10 0 0 1 1.28 2.56c-.63-1.07-1.4-1.14-1.94-2.29-1.43-.27-2.56.77-3.95 1.2a2.55 2.55 0 0 1-2.96-.57c2.51.92 4.26-.72 5.86-1.35.9-.4.53-1.06.65-1.63.3-1.72 1.92-1.65 2.41-3.3.04-1.4-.18-2.25.25-3.17s1.1-.68 1.18-1.85c.4-1.36-1.61-1.5-1.22-3.17a3 3 0 0 0 1.08.7 7 7 0 0 1 1.93 1.44 4 4 0 0 0-.85-1.3l-.68-.51c.06-.27.38-.42.64-.6-.07.77.88 1.13 1.25 1.6a6.4 6.4 0 0 0-.3-3.18.6.6 0 0 0-.57.26 2.2 2.2 0 0 1 0-1.65c0-.29-.25-.11-.4-.08l-.35.22-.38-.64a1.5 1.5 0 0 0-.74.81m-.3-1.29a1.4 1.4 0 0 1 .3.62c.21.04.28-.32.44-.35Zm-1.07-.67c-.11.27-.42.62-.22.88l.47-.6a1 1 0 0 1-.25-.28m2.56 2.82c.62.44.75.98 1.27 1.47-.24-.06-1.72-1.16-2.51-.84-1.13.1-2.64 1.12-3.63.06a3 3 0 0 1-1.25-2.14 3.2 3.2 0 0 0 3.19 1.87 6 6 0 0 1 1.82-.23 1.8 1.8 0 0 1 1.26.41 2.6 2.6 0 0 0-1.83-.84c-1.67.04-3.4.78-4.44-1.2.96.74 2.95.82 4.6.8a2.5 2.5 0 0 1 1.52.64" transform="translate(-9.813 -9.548)"/><path id="Path_495" fill="#93560e" d="M73.24 52.55a1.4 1.4 0 0 1-.27 1c-.11.2-.33.23-.5.3.02-.29.64-.62.27-1l-.67-.51c.26-.27 1.01-.3 1.17.21" transform="translate(-15.21 -10.936)"/><path id="Path_496" fill="#93560e" d="M59.54 57.78a.6.6 0 0 1-.47-.09c-.61-.28.07-.53.11-.84.23.21.19.65.36.93" transform="translate(-12.413 -11.928)"/><path id="Path_497" fill="#93560e" d="M62.6 65.69a8 8 0 0 1-.33 2.82 7 7 0 0 1-.89 1.87 11 11 0 0 0 .8-3.31 13 13 0 0 1 .55-3.8l.4-1.14a15 15 0 0 0-.53 3.56" transform="translate(-12.954 -13.043)"/><path id="Path_498" fill="#93560e" d="M43.16 80.8c.3-.38.49-.28.66-.34.2.21.14.46.47.61.47.24 1.13-.23 1.47-.46a4 4 0 0 0 1.43.6c.52 0 .7-.52 1.18-.52s.76.59.76.59.47-.05 2.98-.45c2.48-.4 1.89 1.2 1.89 1.2a2.2 2.2 0 0 0 1.96-.9 7 7 0 0 0 1.75-3.02c.22-1.1.26-5.2.26-5.2a15 15 0 0 0-.78 2.9A7.3 7.3 0 0 1 56 79.5a3 3 0 0 1-1 .64c.08.01-.27-.62-.56-.85a2 2 0 0 0-.8-.38s-1.85 1.25-2.54 1.2.05-1.2.05-1.2-2.08.78-3.15 1.09-1.26-.23-1.26-.23a4 4 0 0 1-2.27.42c-.6-.34-.87-.66-1.14-.3l-.6.66c-.58-1.35.98-1.85 1.43-2.32l-1-.11a.8.8 0 0 1-.52-.9 10 10 0 0 0-1.5.35c.08-1.1 1.43-.63 1.97-1.34a.7.7 0 0 1 .94-.12s-1.24-.79-1.14-1.14c.32-1.19 2.32.6 2.79.87-.15-.23-.33-.33-.5-.62a2.04 2.04 0 0 0-3.76.04c.1.18.8-.38.86.09.15.24.33.48.4.56a10 10 0 0 1-1.27.45c-1.3.46-1.33 2.18-1.33 2.18a15 15 0 0 0 1.74-.41l.17-.06c.2.67.82.21.09 1.49-.4.67.34 1.93.34 1.93a1.7 1.7 0 0 0 .72-.7Z" transform="translate(-8.46 -15.315)"/><path id="Path_499" fill="#93560e" d="M65.56 68.73a12 12 0 0 0-1.6 4.54c-.39-1.73.03-3.12 1.4-5.44 1.95-2.88.92-5.68 1.04-6.55 1.53 5.25-.27 6.47-.85 7.45Z" transform="translate(-13.469 -12.862)"/><path id="Path_500" fill="#93560e" d="M57.92 73.9a7 7 0 0 0 .67 1.73 4.3 4.3 0 0 1 .29 3.16 8 8 0 0 0-1.06-3.37 4.3 4.3 0 0 1-.43-2.7 3 3 0 0 1 .67-1.17 3.6 3.6 0 0 0-.14 2.34Z" transform="translate(-12.096 -15.031)"/><path id="Path_501" fill="#93560e" d="M64.52 77.44a11 11 0 0 1-1.58 1.97c.35-2.78 2.1-3.2 2.84-6.6a10 10 0 0 1-1.26 4.63" transform="translate(-13.282 -15.297)"/><path id="Path_502" fill="#93560e" d="M76.22 83.48a6 6 0 0 1 1.01.34 9 9 0 0 0-1.67-.34 2 2 0 0 1-.55-.02c-1.28-.08-2.73-.43-3.71-.07-1.61.67-3.37 2-3.69 2.9-.85 1.8-2.98.3-4.4 2-.37-.4.17-1.03.97-1.53.6-.3 2.07.14 2.63-.54.34-.36-.44-1.2-1.42-.79-1.27.5-1.28 1.15-2 1.56a2.5 2.5 0 0 1 2.1-2.17c.65-.15 1.26.22 1.98.08a18 18 0 0 1 2.26-1.3 5 5 0 0 1 1.99-.57 20 20 0 0 1 4.5.44Z" transform="translate(-13.315 -17.447)"/><path id="Path_503" fill="#93560e" d="M60.01 58.2a3 3 0 0 1-.48-.13c-.38-.12-.82-.32-.88-.34l-.28-.09a.3.3 0 0 1 .2-.12 3 3 0 0 1 1 .3 3 3 0 0 1 .6.36z" transform="translate(-12.318 -12.07)"/><path id="Path_504" fill="#93560e" d="M73.9 49.1a1 1 0 0 0 .07.47l.21.54s-1.51.05-1.4-.17.24-.4.17-.54l-.26-.4 1.2.1Z" transform="translate(-15.34 -10.271)"/><path id="Path_505" fill="#93560e" d="M61.86 53.86c-.17-.5-.3-.78-1.32-1.32a13 13 0 0 0-2.2-.86 4 4 0 0 0-.85-.26c.07.05 2.03 1.16 2.41 1.33a5 5 0 0 1 1.11.56c.2.2.24.2.33.46s0 .59.17.92.3.33.3.33a1.7 1.7 0 0 0 .05-1.16" transform="translate(-12.13 -10.781)"/><path id="Path_506" fill="#93560e" d="M59.59 49.95a4 4 0 0 1 1.29.19c.43.15.58.82.88 1.2 0 0-1.05-1.13-1.88-1.1-.15 0-.56-.29-.3-.29" transform="translate(-12.556 -10.473)"/><path id="Path_507" fill="#93560e" d="M58.94 50.72a1.3 1.3 0 0 1 .8.11c.27.1.4.33.66.67l-.24-.12s.05 0-.3-.18a6 6 0 0 0-.7-.27c-.16-.09-.37-.17-.22-.21" transform="translate(-12.427 -10.628)"/><path id="Path_508" fill="#93560e" d="M70.36 49.06a2.6 2.6 0 0 0-.74 1.67 18 18 0 0 0 .35 3.54 4.2 4.2 0 0 1-.46 2.95 5 5 0 0 0-.67 2.52 5 5 0 0 0 .92 2.31 5 5 0 0 1-.47-2.86c.28-1.38 1.1-2.2 1.2-3.2a10 10 0 0 0-.3-3.14c-.4-1.7-.4-2.8.17-3.8Z" transform="translate(-14.526 -10.284)"/><path id="Path_509" fill="#93560e" d="M69.1 68.54a5.4 5.4 0 0 0 .78-2.3c.02-1.08-.7-2.17-.9-3.3a3.5 3.5 0 0 1-.03-2.16 2.3 2.3 0 0 1 .94-1.25 6 6 0 0 0-.59 1.77 5 5 0 0 0 .34 2.4c.42 1.28.87 2.54.56 3.47a6 6 0 0 1-1.04 1.82c-.3.4-.5.43-.07-.45Z" transform="translate(-14.518 -12.493)"/><path id="Path_510" fill="#93560e" d="M65.06 78.35q-.24.18-.58.38a2 2 0 0 1-.5.17s.28-.32.94-1.26c1.07-1.58 1-3.24 1.38-4.9a15 15 0 0 1 1.63-3.26 7 7 0 0 0 .13-2.7c-.07 3.47-1.92 3.33-2.38 6.08a8.4 8.4 0 0 1-1.9 4.67 10.5 10.5 0 0 1-4.33 3.32c1.94.38 3.27-.16 4.97-.23a9 9 0 0 1 1.7.14c.36.16.48-.26 1.52-.8a12 12 0 0 1 1.99-.84 6 6 0 0 1 2.33-.3c-.14-.08 2.75-.13 2.33-.4-.16-.65-1.18-.08-.88-.45-1.04.5-1.22.13-2.46.38a16 16 0 0 1-1.78.1 3 3 0 0 1-.87-.18 1 1 0 0 1-.61-.94 8 8 0 0 1 .04-1.05 6 6 0 0 0-.08-1.22 8.4 8.4 0 0 1-2.6 3.28Z" transform="translate(-12.548 -14.025)"/><path id="Path_511" fill="#93560e" d="M92.2 71.44a7.4 7.4 0 0 0-3.09-2.13 11 11 0 0 0-6.38 1c-1.81.92-2.52 2.24-3.48 3.94a6 6 0 0 0-.66 1.3c-.31.93-.33 1.32.2 1.57.27.13 1.56-.5 1.56-.5-.3-.41-1.36-.2-1.36-.2a4 4 0 0 1 1.04-.97 2 2 0 0 1 1.24-.14l-.6-.43a5 5 0 0 1 .57-1.77 4.5 4.5 0 0 1 3.55-3.01c2.34-.6 3.5-.75 4.93-.08a19 19 0 0 1 2.48 1.42" transform="translate(-16.539 -14.529)"/><path id="Path_512" fill="#93560e" d="M95.12 74.67s.16 2.53-.57 3.71a14 14 0 0 1-2.5 2.63c1.93.75 5.43-.29 6-2.23a3.6 3.6 0 0 0-1.14-3.97 1.9 1.9 0 0 0-1.8-.14Zm-5.14 6.64a12 12 0 0 0-1.66-.82c-.8-.32-1.86-.66-1.86-.66s2.55-.44 3.97-.76a7 7 0 0 0 1.85-.6 2 2 0 0 0 .78-.57s.32-.14.78-1.37c.37-.98-.15-2.71.07-3 .42-.57 3.2.16 4.4 2.04.89 1.38.1 3.65.1 3.65s.8-.3.9-2.38c.1-2.4-2.65-3.76-2.65-3.76a4.5 4.5 0 0 1 2.71 2.09c1.04 1.75.4 3.9-1.06 5.79s-4.76 1.85-6.08 1.56a4 4 0 0 1 .8 1.35c.3 1.28-.12 2.01-.62 2.3a17 17 0 0 1-3.57.43c-.76.02-1.06 0-2.17.09a21 21 0 0 1-2.84-.14 7 7 0 0 0-1.23.25c-1.1.26-1.09-.02-1.09-.02s.19-.55-1.23-.34a12 12 0 0 1-1.75.15 3.3 3.3 0 0 1-2.18.21c-1.4-.26-1.5-1.14-1.5-1.14a6 6 0 0 0 2.2.48 2.4 2.4 0 0 0 1.7-.67s.3.46 1.43.07a3 3 0 0 0 .93-.44s2.23.14 2.46.16c.78.1 2.48.23 2.48.23s.19 0 1.6.1c.98.07 1.73.14 1.78-.11.06-.23-.7-.53-.7-.53s1.34.17 2 .2a2 2 0 0 0 1.16-.24 1.1 1.1 0 0 0 .03-1.25c-.37-.4-.25-.37-.75-.6-1.2-.57-1.03-.82-1.03-.82s-.34-.46.43-.1c.39.17-.07-.5-.07-.5a2 2 0 0 0-.52-.32Z" transform="translate(-15.794 -15.352)"/><path id="Path_513" fill="#93560e" d="M87.27 80.76a4 4 0 0 0 .64.21c.31.08 1.7.6 1.7.6a1.1 1.1 0 0 0 .87-.26c.45-.49-1.22.05-1.14-.5.02-.16-.3-.37-.3-.37a4 4 0 0 0-.9-.08c-.76.08-.87.4-.87.4" transform="translate(-18.417 -16.889)"/><path id="Path_514" fill="#93560e" d="M71.35 81.25a14 14 0 0 0 2.74-.42 19 19 0 0 0 2.24-.89 6 6 0 0 1 1.38-.08.6.6 0 0 0-.33.47 1 1 0 0 0 .07.66 2 2 0 0 1 .88-.12.7.7 0 0 1 .48.31s-.39.62.13.78 1.18.17 2.25.53a17 17 0 0 0 2.56.64c.82.17 1.73.46 1.73.46s.13.12-.17.29.81.5.81.5.1.07-.67 0a10 10 0 0 1-1.59-.19 10 10 0 0 0-1.67-.26A9 9 0 0 0 81 83.8c-.36-.01-1.54-.07-2.77-.22a12 12 0 0 1-2.86-.6 2.7 2.7 0 0 0-1.51 0 .8.8 0 0 0-.95-.08 2 2 0 0 0-.91.93 2 2 0 0 1 .65-.17 1.4 1.4 0 0 1 .54.1.54.54 0 0 1-.12.63 4 4 0 0 1-.85.52s-.02-.16-1.32-.16-1.44-.2-1.9.45-.23-1.05-.23-1.05.3-.5 2.06-1.32a8.4 8.4 0 0 1 3.8-.76 13 13 0 0 1 2.37.2 18 18 0 0 1 1.9.56 6 6 0 0 0-1.85-1 13 13 0 0 0-5.2-.04c-1.38.3-1.9.02-1.76-.2s1.26-.35 1.26-.35" transform="translate(-14.502 -16.782)"/><path id="Path_515" fill="#93560e" d="M72.78 84.83a2 2 0 0 1 1.04-.07.7.7 0 0 1 .35.24l.4.37s-1.49.13-1.18.83a1.1 1.1 0 0 0 1.11.6 1 1 0 0 0-.54.63.6.6 0 0 0 .3.69l1.2.47-.73.26s-.5-.21-.61.1a3 3 0 0 0-.17.62 2 2 0 0 1-.57-1.17 1.6 1.6 0 0 1 .43-1.16.5.5 0 0 0-.68.03 2 2 0 0 0-.38.74 2 2 0 0 1-.62-1.15 1.4 1.4 0 0 1 .43-1.13Z" transform="translate(-15.222 -17.806)"/><path id="Path_516" fill="#93560e" d="M54.14 64.77a3.3 3.3 0 0 1 .12-1.75 4 4 0 0 1 1.02-1.42c-.74.42-1.08.02-2.96-.53a12 12 0 0 0-3.6-.44 8 8 0 0 1-2.76-1.3c-.26-.24-.21-.45-.38-1a.9.9 0 0 0-1-.47.7.7 0 0 0-.47.33s-.2.05-.57.12-.59.54-.59.54a1.4 1.4 0 0 1 .63-.11 1 1 0 0 1 .54.28c.02.83-.07.86.26 1.42a8 8 0 0 0 1.39 1.59 16 16 0 0 0 2.39 1.23c.14.06.9.42 1.56.66a3.6 3.6 0 0 1 1.35 1.06s0-.81 1.13-.44a7 7 0 0 0 1.94.23m-11.83-3.52a1.2 1.2 0 0 0-.86 1.18c.18.51.31.65.93.73.3-.07.53-.13.55-.34 0 0-.14-.13-.02-.25a1.4 1.4 0 0 1 1.06-.26 3 3 0 0 0-.97-.64c-.61-.54-.2-.83.07-1.06a2 2 0 0 1 1.16.1l-1.06-1.26c-.48-.3-1.28-.42-1.5.27-.05.17-.08.67.13.8.35.38.54.47.52.73ZM43.36 57a1.1 1.1 0 0 0-1.23.2c-.14.27-.13.82.18.94 1.02.17.87-.65 1.89-.53a3 3 0 0 1-.84-.6m11.88 5.77a19 19 0 0 1-1.56 4.65 2 2 0 0 0-.74-.84c-.5-.32-1.35.2-1.35.2a6.6 6.6 0 0 0-2.56-1.77c-1.45-.6-1.27.65-1.27.65l-1.66-1.82c-.62-.68-1.25-.4-1.82-.21a8 8 0 0 1-2.24-.08 1.26 1.26 0 0 1-.35-2.48 1.5 1.5 0 0 1-.71-1.35c.07-.89 1.03-.85 1.03-.85s-.71-.57-.68-1.03a1.9 1.9 0 0 1 1.32-1.28c.53-.07 2.42.96 3.3 1.17.8.2.43 1.23 1.85 1.8a8 8 0 0 0 2.97.5c1.32 0 1.77.5 3.26.85s1.64-.25 1.64-.25-.29 1.2-.43 2.13Z" transform="translate(-8.603 -11.869)"/><path id="Path_517" fill="#93560e" d="M71.9 55.65a5 5 0 0 1 .02 2.05c-.48 1.23-1.18 1.49-1.39 2.66a9 9 0 0 0 .43 3.78 4 4 0 0 1 .22 2.43c-.3.67-.84 1.36-1.21 2.16a11 11 0 0 0-.63 1.85 18 18 0 0 1 .96-1.85 13 13 0 0 0 1.44-2.3c.62-1.77-.3-2.9-.5-3.92a3.8 3.8 0 0 1 .78-3.17 4.4 4.4 0 0 0 .98-2.27 11 11 0 0 0 .16-1.8Z" transform="translate(-14.634 -11.595)"/><path id="Path_518" fill="#93560e" d="M35.81 101.4s28.34-.72 35.58-1.37c1.95-.18 5.39-.29 7.53-.5s5.32-.36 5.32-.36a11 11 0 0 1-3.4.68c-2.76.24-7.91.86-10.3.86-2.9 0-12.58.7-15.48.85a142 142 0 0 1-19.25-.16" transform="translate(-7.557 -20.859)"/><path id="Path_519" fill="#93560e" d="M40.61 45.43a.39.39 0 1 0-.4-.4.4.4 0 0 0 .4.4m12.53-33.04-7.27 32.38s-.04.4.17.5a4 4 0 0 1 .6.27 3 3 0 0 1 .48.37 5 5 0 0 1-1.19-.23 1 1 0 0 1-.7-.58l7.39-32.61c.23-1.4.73-4.34.8-5.07s-.1-.57-.38-.21a19 19 0 0 0-1.6 4.51s-7.1 29.77-7.24 30.6a4.5 4.5 0 0 1-.45 1.87c-.4.68-.77.81-1.24.76-.35-.03-.84-.05-.94.23-.06.2.24.33.64.38a4 4 0 0 0 1.36-.1c.52-.13.73-.2.73-.2a2 2 0 0 0 .27.4 3 3 0 0 0 .76.55 4 4 0 0 0 1.42.3.54.54 0 0 1 .62.42c.07.19.43.4.9.16a.66.66 0 0 0 .04-1c-.36-.32-.87.03-.97-.13s.37-.65 1.06-.4a1.1 1.1 0 0 1 .67 1.5c-.26.8-1.14.8-1.6.72s-.74-.42-.9-.47l-.53-.07s-3.12-1.26-3.38-1.3a5 5 0 0 0-1.16.11c-.24.05-.4.32-1 .22-.32-.05-1.38-.46-1.06-1.44a1.2 1.2 0 0 1 1.47-.88c.39.06.41.42.75.47.44.07.76.03.9-.42s7.76-30.8 7.76-30.8c1.08-3.6 1.91-5.8 2.65-6.72s1.06-1.72.94.33a33 33 0 0 1-.78 5.59Z" transform="translate(-8.311 -1.094)"/><path id="Path_520" fill="#93560e" d="M61.68 73.69a22 22 0 0 1 1.06-5.07 24 24 0 0 0 1.35-3.59 34 34 0 0 0-.1-3.69l.13-1.53h.5a13 13 0 0 0-.07 2.52 8 8 0 0 1 .11 3.1c-.43 1.52-1.26 2.54-1.58 3.81a22 22 0 0 0-.7 5Z" transform="translate(-13.016 -12.554)"/><path id="Path_521" fill="#93560e" d="M38.95 55.6a.45.45 0 1 0-.48-.45.47.47 0 0 0 .48.45" transform="translate(-8.119 -11.474)"/><path id="Path_522" fill="#93560e" d="M43.3 68.85a.6.6 0 1 0-.63-.6.6.6 0 0 0 .63.6" transform="translate(-9.005 -14.205)"/><path id="Path_523" fill="#93560e" d="M42.43 65.19s.18-.13-.02.09a1.4 1.4 0 0 0-.46 1.1 1.4 1.4 0 0 0 1.24 1.13 1.3 1.3 0 0 0 1.58-.96 1.1 1.1 0 0 0-.26-1.17c-.2-.19-1 .08-1 .08a1 1 0 0 1 .46.9.54.54 0 0 1-.66.46.56.56 0 0 1-.5-.7 1.2 1.2 0 0 1 .63-.67.4.4 0 0 1 .14-.32c.16-.1-1.15.05-1.15.05Z" transform="translate(-8.848 -13.669)"/><path id="Path_524" fill="#93560e" d="M51.98 58.64a.66.66 0 1 0-.64-.67.65.65 0 0 0 .64.66" transform="translate(-10.833 -12.026)"/><path id="Path_525" fill="#93560e" d="M48.15 83.67a18 18 0 0 0 1.52 2.64 25 25 0 0 1 1.76 2.56c.47.8 1.9 3 3.03 4.52s3.15 3.79 3.15 3.79-2.63-4.15-3.44-5.24-1.56-2.37-2.32-3.36-3.22-4.49-3.7-4.91" transform="translate(-10.161 -17.588)"/><path id="Path_526" fill="#93560e" d="M56.66 83.57s3.13 3.79 4.69 5.63 2.36 3.31 3.12 4.21l2.96 3.46a17 17 0 0 0-2.4-3.84c-1.2-1.3-2.22-2.93-3.21-4.11s-2.5-3.22-3.17-3.79-1.66-1.6-1.99-1.56" transform="translate(-11.958 -17.566)"/><path id="Path_527" fill="#93560e" d="M69.26 87.39s3.89 4.83 4.55 5.5 2.75 3.6 2.75 3.6 2.26 2.26.77.13c-.36-.52-2.3-2.98-3.14-4.07s-1.85-2.22-2.65-3.17a18 18 0 0 0-2.28-1.98Z" transform="translate(-14.617 -18.372)"/><path id="Path_528" fill="#93560e" d="M81.36 90.16a8 8 0 0 0 1.27 1.8c.66.62 1.94 2.08 2.37 2.6s2.94 2.67 2.94 2.67a22 22 0 0 0-1.71-2.1 36 36 0 0 1-2.03-2.14 40 40 0 0 0-2.84-2.83" transform="translate(-17.169 -18.957)"/><path id="Path_529" fill="#93560e" d="M90.12 89.85S92.05 91.91 93 93a37 37 0 0 0 3.16 2.94 6 6 0 0 0-1.16-1.7 35 35 0 0 1-2.59-2.78c-.55-.68-1.38-1.5-1.38-1.5Z" transform="translate(-19.019 -18.893)"/><path id="Path_530" fill="#93560e" d="M50.39 95.55s3.03-.32 4.4-.39 6.16-.14 7.94-.14 8.9-.57 11.37-.64 6.5-.57 7.46-.57 9.3-.18 9.3-.18a19 19 0 0 1-3.87.55c-.55.04-5.91.48-6.73.48s-3.24.06-3.24.06a32 32 0 0 1-3.54.16 24 24 0 0 0-3.47.27s-1.12.01-2.56.15-4.04 0-4.31.07a32 32 0 0 1-4.04.32 27 27 0 0 1-3.54-.1c-.2-.08-1.6.07-2.42.07s-2.75-.11-2.75-.11" transform="translate(-10.633 -19.689)"/><path id="Path_531" fill="#93560e" d="M67.54 89.3H62.9c-.8 0-3.58.23-3.58.23s-2.48-.08-3.75-.08-6.94.33-6.94.33a57 57 0 0 0 6.96.07c1.24-.03 3.77 0 4.3 0s2.87-.03 3.58-.07c4.01-.25 4.07-.47 4.07-.47Z" transform="translate(-10.263 -18.777)"/><path id="Path_532" fill="#93560e" d="M58.29 84.7s-3.89.05-5.45.13-4.61.07-4.61.07a14 14 0 0 1 2.41-.3c1.5-.07 2.84-.02 3.7-.07a31 31 0 0 1 3.95.17" transform="translate(-10.178 -17.764)"/><path id="Path_533" fill="#93560e" d="M29.22 67.73a.2.2 0 0 0-.2.03h-.08a.1.1 0 0 0-.06.08l-.01.05a.6.6 0 0 0-.03.67c.17.2.53.19.52.56l-.01.05.03-.15-.03.05-.1.2-.02.11a.3.3 0 0 0 .01.22l.02.02a1.4 1.4 0 0 0 .87.65 2 2 0 0 0-.26.56v.1a.3.3 0 0 0 .04.18l.04.05c.11.25.39.34.6.5q.06.08-.06.26a.7.7 0 0 0 .24.86c.17.14.4.2.49.38.13.28-.1.55-.07.86a.8.8 0 0 0 .79.75c.03 0 .08.05.07.06-.05.24-.24.42-.2.69.05.4.4.54.68.74-.05.1.06.22-.08.31a.9.9 0 0 0 .77 1.05c.05 0 .11.09.21.1a.1.1 0 0 0 .12-.04.1.1 0 0 0-.04-.12c-.2-.24-.48-.43-.52-.76a.9.9 0 0 0-.46-1.26.1.1 0 0 1-.04-.09 1.1 1.1 0 0 0 .09-.97 1 1 0 0 0-.67-.39c-.02 0-.04-.1-.03-.15a2 2 0 0 0 .06-.85 1.2 1.2 0 0 0-.75-.8l-.1.03a.94.94 0 0 0-.52-1.4l-.11-.14.05.17.02-.1c.13-.33.26-.74-.09-1.02-.19-.16-.45-.16-.63-.32l-.1-.17.04.17.03-.1v.01l.08-.15.03-.13v-.12a.84.84 0 0 0-.73-.69c-.1-.02-.09-.18-.07-.28l.05-.15-.04.06.1-.05c-.1-.12.04-.08.08-.12l.01-.03z" transform="translate(-6.065 -14.222)"/><path id="Path_534" fill="#93560e" d="M33.26 66.93c-.07-.03-.06.05-.12.09h-.08l-.06.08-.01.05a.6.6 0 0 0-.03.67c.18.2.45.12.44.49v.04l.02-.14-.02.05-.1.2-.03.1a.3.3 0 0 0 .01.22l.02.03a1.4 1.4 0 0 0 .87.64 2 2 0 0 0-.25.57l-.01.1a.3.3 0 0 0 .05.18l.03.05c.11.24.39.34.6.5q.06.08-.06.26a.7.7 0 0 0 .24.86c.17.14.4.2.49.38.13.28-.1.55-.07.85a.8.8 0 0 0 .79.76q.06.02.08.06c-.06.24-.24.42-.21.69.05.4.4.53.68.74-.05.1.06.22-.08.31a.9.9 0 0 0 .77 1.05c.05 0 .11.08.21.1a.09.09 0 1 0 .08-.16c-.2-.24-.48-.43-.51-.76a.88.88 0 0 0-.47-1.26.1.1 0 0 1-.04-.1 1.1 1.1 0 0 0 .09-.96 1 1 0 0 0-.67-.4c-.02 0-.04-.08-.03-.14a2 2 0 0 0 .06-.85 1.2 1.2 0 0 0-.75-.8l-.1.03a.94.94 0 0 0-.51-1.4l-.12-.15.05.18.02-.1c.13-.34.26-.74-.09-1.02-.19-.16-.45-.16-.63-.32l-.09-.16.03.16.03-.1v.01l.08-.15.03-.13v-.12a.7.7 0 0 0-.64-.62c-.11-.02-.1-.18-.08-.28l.04-.15-.04.06.1-.05c-.1-.12.04-.08.08-.11l.02-.04z" transform="translate(-6.934 -14.053)"/><path id="Path_535" fill="#93560e" d="M37 66.44a.82.82 0 0 0 .36 1.27c.2.23-.03.3-.1.53l-.01.05.03.14.02.02a.9.9 0 0 0 .53.59h.1l-.08-.07-.01-.02c.16.1.37.27.28.43a.9.9 0 0 0 .44 1.25l.04.02-.13-.12.12.13a.2.2 0 0 1 .13.17 1 1 0 0 1-.08.32c-.21.48.21.9.61 1.17a.2.2 0 0 1 .08.19c-.07.42-.27.88.13 1.17a1.6 1.6 0 0 1 .55.7.14.14 0 0 0 .15.14.14.14 0 0 0 .14-.15.8.8 0 0 0-.13-.87 2 2 0 0 0-.47-.31c-.05-.02-.1-.18-.06-.27a1.1 1.1 0 0 0-.11-1.1c-.15-.17-.38-.23-.5-.42-.19-.32.07-.64.04-.97a.4.4 0 0 0-.1-.24l.04.04a.3.3 0 0 0-.13-.13l-.15-.08a.7.7 0 0 1-.44-.43c-.08-.3.18-.6.02-.91l-.01-.08a.3.3 0 0 0-.16-.1l-.08-.04.06-.01c-.08-.08-.2-.06-.26-.16l-.13-.13.04.13v-.1a.06.06 0 0 1-.08-.08.7.7 0 0 0-.35-.96c-.21-.11-.16-.4-.07-.6a.15.15 0 0 0-.08-.2.14.14 0 0 0-.19.08Z" transform="translate(-7.771 -13.933)"/><path id="Path_536" fill="#93560e" d="M25.54 68.41a.82.82 0 0 0 .36 1.27c.2.23-.01.48-.08.71l-.01.06.03.13.01.02a.9.9 0 0 0 .54.59h.09l-.08-.06v-.02c.16.1.37.27.28.44a.9.9 0 0 0 .43 1.24l.05.02-.13-.12.12.13a.2.2 0 0 1 .13.17 1 1 0 0 1-.09.32c-.2.47.22.9.62 1.17a.2.2 0 0 1 .08.19c-.07.42-.28.88.13 1.17a1.6 1.6 0 0 1 .55.7.14.14 0 0 0 .28-.01.8.8 0 0 0-.13-.87 2 2 0 0 0-.46-.31c-.06-.03-.1-.19-.06-.28a1.1 1.1 0 0 0-.12-1.1c-.15-.17-.37-.22-.5-.42-.19-.31.07-.64.04-.97a.4.4 0 0 0-.1-.23l.04.03-.13-.12-.15-.08a.7.7 0 0 1-.44-.44c-.08-.3.18-.6.02-.9l-.01-.08a.3.3 0 0 0-.15-.1l-.08-.04.05-.01c-.07-.07-.2-.06-.26-.16l-.13-.13.04.13v-.1a.06.06 0 0 1-.07-.08.9.9 0 0 0-.39-1.14c-.2-.12-.15-.4-.06-.6a.15.15 0 0 0-.27-.12Z" transform="translate(-5.351 -14.349)"/><path id="Path_537" fill="#93560e" d="M29.5 78.54a.64.64 0 0 0 .3.72c.1.07.13.25.16.4l-.07-.1-.05.17-.04.1a.2.2 0 0 0 0 .15l.03.09a2 2 0 0 0 .69.73.26.26 0 0 0 .36-.02.26.26 0 0 0-.03-.36l-.46-.4-.09-.17V80l.02-.08a.72.72 0 0 0-.48-1.02c-.04 0-.11.07-.19-.06a1 1 0 0 1-.1-.3l-.03-.03z" transform="translate(-6.219 -16.498)"/><path id="Path_538" fill="#93560e" d="m32.13 83.72-.1-.02v-.07l-.07.03-.08.08c-.36.4 0 .87.17 1.26q0 .06-.18.2a.57.57 0 0 0-.06.87c.18.17.45.33.35.58-.12.3-.46.5-.44.85a1.5 1.5 0 0 0 .32.64c.2.33-.22.6-.3.94a.65.65 0 0 0 .33.73c.15.36-.3.57-.38.89l-.02.04-.04.14.02.1a1 1 0 0 0 .13.3c.1.14.32.23.3.4a1 1 0 0 1-.54.7.24.24 0 0 0-.07.34.25.25 0 0 0 .35.07 1.3 1.3 0 0 0 .8-1.1.9.9 0 0 0-.4-.72l-.05-.12-.03.15.06-.14c.15-.3.4-.55.4-.9a1.4 1.4 0 0 0-.36-.79 2 2 0 0 0 .33-1.09c-.02-.32-.37-.47-.37-.77 0-.2.24-.35.3-.57.13-.42-.17-.78-.23-1.18a.8.8 0 0 0 .15-.73c-.12-.3-.46-.5-.33-.89l.04-.08-.08.03.03-.01.07-.04a.1.1 0 0 0-.15-.16z" transform="translate(-6.631 -17.58)"/><path id="Path_539" fill="#93560e" d="M36 83.45a.3.3 0 0 0-.31.1c-.4.43-.2.97.12 1.4a.2.2 0 0 1-.01.2 1.3 1.3 0 0 0-.29 1.26 4 4 0 0 0 .4.59.2.2 0 0 1-.03.2 1 1 0 0 0-.02 1.54.44.44 0 0 1-.16.57l-.07.07-.05.13-.02.1a1.5 1.5 0 0 0 .36 1.05.2.2 0 0 1 0 .21c-.32.3-.63.66-.51 1.12a.3.3 0 0 0 .3.27.3.3 0 0 0 .26-.3c0-.09-.04-.2-.01-.26.13-.3.46-.46.52-.82a1.2 1.2 0 0 0-.34-.9.5.5 0 0 1-.03-.28v-.1l-.05.13.04-.06a.9.9 0 0 0 .3-1.01c-.08-.24-.3-.37-.37-.6-.1-.39.16-.68.26-1.03a.4.4 0 0 0 0-.2 2 2 0 0 1-.18-.88c.04-.28.27-.49.31-.78.06-.44-.24-.72-.47-1.06a.5.5 0 0 1 .08-.6.03.03 0 0 0 .02-.05z" transform="translate(-7.466 -17.539)"/><path id="Path_540" fill="#93560e" d="M39.75 82.91a.4.4 0 0 0-.33.15c-.44.58-.04 1.25.24 1.79-.08.09-.09.22-.16.3a1.26 1.26 0 0 0 .14 1.68l.02-.03.01.02c.06.08.12.15.08.27-.1.32-.4.56-.4.92a1.4 1.4 0 0 0 .25.7c.08.15.2.35.08.46-.54.51-.16 1.26.17 1.73a1.2 1.2 0 0 1-.3.85.18.18 0 0 0 .2.3 1 1 0 0 0 .46-.29 1.2 1.2 0 0 0-.07-1.5c-.3-.35.01-.7.05-1.06a1.5 1.5 0 0 0-.38-.96.5.5 0 0 1-.05-.48c.14-.35.43-.68.34-1.09l.02-.02a.3.3 0 0 0-.15-.15v-.04c-.04-.24-.2-.48-.06-.72l-.1.08a1.1 1.1 0 0 0 .48-1.3c-.2-.5-.87-.95-.5-1.54v-.05z" transform="translate(-8.278 -17.426)"/><path id="Path_541" fill="#93560e" d="M44.1 84.05c-.3-.01-.41.34-.44.6a1 1 0 0 0 .29.73.3.3 0 0 1 .05.2c-.09.3-.37.48-.4.78a1.3 1.3 0 0 0 .53 1.03l.07.04-.12-.15v.02c.04.37-.37.57-.47.9-.13.4.18.72.4 1.05a.1.1 0 0 1 0 .1 1.3 1.3 0 0 0-.39.89c.04.41.38.65.57.99a1.2 1.2 0 0 1-.54 1.05.1.1 0 0 0-.02.12.1.1 0 0 0 .11.02 3 3 0 0 0 .75-.51.9.9 0 0 0 .17-1.07c-.13-.23-.33-.38-.46-.6a.2.2 0 0 1-.01-.22 2 2 0 0 0 .34-.7c.05-.32-.22-.52-.39-.78q-.08-.1-.03-.2c.27-.38.62-.76.5-1.23l.01-.02a.3.3 0 0 0-.12-.15l-.01-.04c-.1-.13-.06-.33-.3-.38.25-.31.58-.65.5-1.1a1.5 1.5 0 0 0-.5-.76c-.16-.16-.07-.37-.03-.56a.04.04 0 0 0 0-.06.04.04 0 0 0-.06 0Z" transform="translate(-9.198 -17.665)"/><path id="Path_542" fill="#93560e" d="M26.87 93.5s2.36-.16 3.69-.32c1.46-.18 4.28-.02 6.8-.1 2.72-.1 6.26-.44 6.26-.44a20 20 0 0 0 .02-4.36 36 36 0 0 1-.1-5.4 27 27 0 0 1 .67 3.6c.1 1.37.23 3.17.33 4.02s.05.8.19 1.7a19 19 0 0 1 .17 2.1 9 9 0 0 1-2.67.48 29 29 0 0 0-5.11-.02 14 14 0 0 1-3.93.29 11 11 0 0 0-3.74.19c-.28.23-.95-.67-.95-.67a25 25 0 0 1 4.03-.28 51 51 0 0 0 5.67-.27c.94-.1 2.6.2 3.41.13 1.95-.18 2.22-.66 2.22-.66s-1.55-.1-3.58 0-3.7.21-5.26.21-4 .01-4.94.1-2.31.27-2.31.27l-.86-.56Z" transform="translate(-5.671 -17.422)"/><path id="Path_543" fill="#93560e" d="m36.18 98.18.27 1.38a5.5 5.5 0 0 0 1.93 2.68l.9.3-.26-.65a6.4 6.4 0 0 1-1.76-2.26 6 6 0 0 1-.02-1.45z" transform="translate(-7.635 -20.65)"/><path id="Path_544" fill="#93560e" d="M46.1 97.6a16 16 0 0 0 .35 1.84 5 5 0 0 0 1.93 2.35 2 2 0 0 0 .8.65l.52-.04-.21-.6a11 11 0 0 1-2.07-2.17c-.7-1.63-.15-1.63-.38-2.07-.15-.28-.94.04-.94.04" transform="translate(-9.727 -20.495)"/><path id="Path_545" fill="#93560e" d="m20.5 65.4.1.3s2.5-.56 4.04-.82 2.16-.22 4.66-.74 5.73-.8 5.73-.8 1.28 2.54 1.82 3.77 2.13 4.11 2.13 4.11a11 11 0 0 0-.78-2.82 31 31 0 0 1-1.75-3.43c-.33-.8-1.03-2.7-1.03-2.7s-1.87.51-2 .53-.16-.07-.16-.07a6 6 0 0 0-.1-1.47c-.14-.45-1.94-3.29-1.94-3.29l-.68-.45.28 1.02a14 14 0 0 1 1.37 2.32 8 8 0 0 1 .26 2.08l-7 1.28a19 19 0 0 0-1.18-2.85c-.2-.39-1.54-1-1.68-1.2l-.38-.52-.38-.26s-.27.8 0 1.16c.52.69 1.23.62 1.68 1.28a6 6 0 0 1 .97 2.5l-3.52.79z" transform="translate(-4.325 -12.07)"/><path id="Path_546" fill="#93560e" d="m34.8 65.8.19-.32s-1.46.17-2.06.21a42 42 0 0 0-4.14.76c-1.2.28-3.4.39-4.72.64s-3.67.94-3.67.94a44 44 0 0 1 1.98 4.51c.46 1.5.68 3.93 1.46 5.36a3.7 3.7 0 0 0 2.48 1.88 11 11 0 0 1 3.25-.8c1.8-.14 3.5-.82 5.18-.96a12 12 0 0 0 3.01-.67 2.4 2.4 0 0 0-1.9-.41c-1.1.25-3.86 1.03-4.49 1.15-.76.14-2.32.3-3.03.51-.54.17-1.72.4-1.72.4s-1.32-.27-2.08-2.26c-.7-1.82-.73-2.53-1.6-4.43-.67-1.46-1.73-4.04-1.73-4.04l2.32-.55c.92-.21 1.1-.03 3.62-.57s4.9-.97 6.06-1.13c.43-.07 1.52-.2 1.58-.22Z" transform="translate(-4.305 -13.748)"/><path id="Path_547" fill="#93560e" d="M28.03 83.37a19 19 0 0 0-.14 2.5c.1 2.13 1 3.46.76 4.88a11 11 0 0 1-1.02 2.88l-.5-.28a10 10 0 0 0 .62-3.03c-.1-1.09-.62-3.17-.57-4.3a20 20 0 0 1 .33-2.56Z" transform="translate(-5.727 -17.524)"/><path id="Path_548" fill="#93560e" d="M62.13 41.6c-.26-.66-1.25-2.12-1.43-2.58-.16-.4.36-.95.86-.8.47.16.55 1.07.55 1.07a1 1 0 0 1 1.27-.26.6.6 0 0 1 .13 1.03c-.32.34-1.1.1-1.1.1s-.6.91.71 1.82c.97.67 1.52-.02 1.52-.02a1 1 0 0 0 .79.87c.35.09 1.17.6 1.9-.77.16-.31.23-.85.13-.87h-.4a.61.61 0 0 1-.06-1.24.7.7 0 0 1 .44.17v-.02a.5.5 0 0 0 .83-.04c.18-.2 0-.72 0-.72l-.04-.18a.54.54 0 0 1 1.08 0 .5.5 0 0 1-.35.48 1 1 0 0 0-.3.5c-.1.54.7.57.7.57l-.02.04h.03a.6.6 0 0 1 .62.59.6.6 0 0 1-.62.59c-.42-.04-.66-.47-.89-.43 0 0-1.28 1.64.4 2.38a1.8 1.8 0 0 0 1.63-.03 1.6 1.6 0 0 0 1.22.76 2.2 2.2 0 0 0 1.8-1.26s-.81-.14-.9-.56a.62.62 0 0 1 .65-.78 1.1 1.1 0 0 1 1.1.8 1 1 0 0 1 .7-.55c.48-.08.85.6.51.85-.3.21-1.93 1.11-2.74 1.65a13 13 0 0 0-1.46 1.04c-.23.19-.39.44-.51.52l-.5-.19-.9-.38c-.92-.38-1.04-.45-1.04-.45s-.49-.24-1.55-.62-1.89-.65-1.89-.65.13.11-.82-.2l-.87-.28-.53-.13-.04-.08s-.27-.87-.6-1.74Zm7.64-1.4a1 1 0 0 0-.4-.08m0 0a1.1 1.1 0 0 0 .55-.96 1.14 1.14 0 0 0-2.27 0 1 1 0 0 0 .05.32 1.4 1.4 0 0 0-1.11-.06 1.16 1.16 0 0 0-.9 1.17c0 .72.34 1.26 1.06 1.26.08 0-.07 0 0 0-.04.05.01-.05 0 0a.9.9 0 0 1-1.09.53 1.04 1.04 0 0 1-.8-1.13s-.85.63-1.44.27c-.7-.42-.31-.7-.31-.7a1.28 1.28 0 0 0 1.29-1.64 1.4 1.4 0 0 0-1.84-.78s.12-.83-1.22-1a1.38 1.38 0 0 0-1.32 1.73c.14.3.24.38 1.1 1.86a12 12 0 0 1 1.13 2.34 1 1 0 0 1 .03.3 1 1 0 0 0 .05.3 21 21 0 0 1 4.12 1.12 34 34 0 0 1 4.8 2.07s.02-.1.04-.26l.02-.11a4 4 0 0 1 1.24-1.18c1.89-1.2 2.65-1.48 3.6-2.01.63-.36.4-1.52-.22-1.82-1.2-.58-1.6.11-1.6.11a1.5 1.5 0 0 0-2-.16 1.1 1.1 0 0 0 .24 1.9s.02.25-.75.44c-.71.17-.93-.89-.93-.89a1.7 1.7 0 0 1-1.66.34.9.9 0 0 1-.55-1.13c.23.39.5.33.9.3a1.13 1.13 0 0 0 1.12-1.19 1.4 1.4 0 0 0-.93-1.27" transform="translate(-12.654 -7.821)"/><path id="Path_549" fill="#93560e" d="M64.26 47.82a4 4 0 0 1 1.05.8 5 5 0 0 1 .6.9 2.4 2.4 0 0 0-1.58.02c-.82.27-1.14.02-1.17-.3a1 1 0 0 1 .24-.6.32.32 0 0 0 .22.5 1 1 0 0 0 .69-.05s-.5-.06-.53-.33a.5.5 0 0 1 .33-.51s-.2-.14-.77.02c-.44.13-.45.51-.53.61s-.11.04-.08-.28c.06-.56-.1-1.22 1.53-.78" transform="translate(-13.235 -9.992)"/><path id="Path_550" fill="#93560e" d="M69.76 35.8a.75.75 0 1 0-.74-.75.74.74 0 0 0 .74.74" transform="translate(-14.565 -7.169)"/><path id="Path_551" fill="#93560e" d="M64.47 36.88a.48.48 0 1 0-.52-.48.5.5 0 0 0 .52.48m-1.12-.48a1.13 1.13 0 1 1 1.12 1.11 1.1 1.1 0 0 1-1.12-1.11" transform="translate(-13.368 -7.377)"/><path id="Path_552" fill="#93560e" d="M67.32 35.8a.36.36 0 1 0-.38-.35.37.37 0 0 0 .38.36m-.93-.36a.93.93 0 1 1 .93.9.9.9 0 0 1-.93-.9" transform="translate(-14.011 -7.218)"/><path id="Path_553" fill="#93560e" d="M71.64 30.24a2 2 0 0 0-.31.52 3 3 0 0 0-.14.82s1.36-.21 1.42.1a.6.6 0 0 1-.15.53l.8.28s-.04-.55.14-.6 1.13.8 1.13.8.24-.06.48-.56a.8.8 0 0 0-.06-.79s-1.34.26-1.34-.1.95-1.26.95-1.26a1.4 1.4 0 0 0-.72-.5c-.58-.16-.7-.05-.7-.05s-.06 1.55-.27 1.58-1.23-.78-1.23-.78" transform="translate(-15.025 -6.132)"/><path id="Path_554" fill="#93560e" d="M63.86 37.97a9 9 0 0 1 2.52-1.42 16 16 0 0 1 3.12-.76c.53-.15 1-.24 1-.24s.45.82.14.92-.81-.1-1.74-.04a9 9 0 0 0-2.75.9 3 3 0 0 0-1.41 1.18Z" transform="translate(-13.476 -7.432)"/><path id="Path_555" fill="#93560e" d="M74.2 37.07a.75.75 0 1 1 1.02-.27.74.74 0 0 1-1.02.27" transform="translate(-15.583 -7.461)"/><path id="Path_556" fill="#93560e" d="M76.67 41.76a10 10 0 0 0-1.43-3.05 16 16 0 0 0-2.2-2.32c-.37-.41-.72-.75-.72-.75s-.83.44-.61.7.73.36 1.47.91a9 9 0 0 1 1.83 2.25 4 4 0 0 1 .62 2.02z" transform="translate(-15.125 -7.452)"/><path id="Path_557" fill="#93560e" d="M78 41a.48.48 0 1 0-.52-.49.5.5 0 0 0 .52.48m-.55.46a1.11 1.11 0 1 1 1.53-.38 1.1 1.1 0 0 1-1.54.39Z" transform="translate(-16.226 -8.244)"/><path id="Path_558" fill="#93560e" d="M72.47 34.82a.61.61 0 1 0-.62-.62.6.6 0 0 0 .62.62m-1.23-.62a1.23 1.23 0 1 1 1.23 1.23 1.23 1.23 0 0 1-1.23-1.23" transform="translate(-15.034 -6.89)"/><path id="Path_559" fill="#93560e" d="M76.37 38.44a.36.36 0 1 0-.38-.36.37.37 0 0 0 .38.36m-.46.43a.9.9 0 1 1 1.26-.3.9.9 0 0 1-1.26.3" transform="translate(-15.922 -7.775)"/><path id="Path_560" fill="#93560e" d="M68.94 45.95c.26 0 .4-.28.4-.5a.47.47 0 0 0-.93 0 .6.6 0 0 0 .53.5" transform="translate(-14.438 -9.436)"/><path id="Path_561" fill="#11377d" d="M154.47 73.63a2.44 2.44 0 0 0 2.57-2.45V51.5a3.1 3.1 0 0 0-2.45-3.3v-.86c1.48 0 2.92.15 4.4.15s2.95-.15 4.43-.15v.85c-1.6.43-2.1 1.37-2.1 3.43 0 1.16-.12 3.65-.12 7.15v13.46a21 21 0 0 0 4.13.23c6.69 0 7.9-1.2 8.87-3.7l1.4.7-1.68 5.49a10 10 0 0 0-3.73-.62h-12.76c-.97 0-1.98.15-2.96.15z" transform="translate(-32.599 -9.92)"/><path id="Path_562" fill="#11377d" d="M185.72 54.18c1.12 0 2.24.12 3.39.12 1.12 0 2.27-.12 3.39-.12v.68c-1.4.19-1.74 1.12-1.74 3.11l-.03 8.87c0 4.17 1.92 7.13 6.56 7.13 2.52 0 5.73-1.47 5.73-4.98v-3.67c0-3.68-.28-7.35-.28-8.9a1.7 1.7 0 0 0-1.6-1.56v-.68c1.13 0 2.25.12 3.37.12s2.27-.12 3.4-.12v.68c-1.03.03-1.47 1.25-1.47 2.3 0 1.18-.1 4.42-.1 8.53v6.78c0 1.74.35 2.65 1.72 2.74v.69c-.87 0-1.77-.12-2.65-.12s-1.74.12-2.61.12q.1-1.57.22-2.96c-2.27 2.12-4.2 3.33-7.38 3.33-4.6 0-8.24-2.64-8.24-7.31v-5.2c0-2.43-.16-4.58-.16-6.5 0-1.22-.22-2.22-1.52-2.4Z" transform="translate(-39.192 -11.364)"/><path id="Path_563" fill="#11377d" d="M222.12 75.11c1.22-.3 1.93-1.24 1.93-2.98l.1-18.43h1.3l15.22 16.75V59.74c0-3.86-.84-4.76-2.33-4.98v-.68c1.03 0 2.05.12 3.08.12s2.08-.12 3.1-.12v.68c-1.36.25-2.05 1.34-2.05 3.86l-.09 17.55h-1.05l-15.47-16.84.12 11.86c.03 2.43.78 3.55 2.27 3.92v.69c-1.02 0-2.05-.12-3.08-.12s-2.02.12-3.05.12z" transform="translate(-46.875 -11.264)"/><path id="Path_564" fill="#11377d" d="M263.63 74.4a30 30 0 0 0 3.86.25c5.94 0 8.93-3.64 8.93-9.62 0-5.63-3.92-9.61-9.43-9.61-1 0-1.96.06-3.2.12-.04 2.74-.16 5.23-.16 7.84zm-4.95.8c1.28-.3 1.62-.86 1.62-2.2v-9.05c0-2.74-.31-5.17-.31-6.7a2.26 2.26 0 0 0-1.62-2.51v-.56c1.46 0 2.9.12 4.36.12 1.43 0 2.9-.12 4.35-.12 8.5 0 13.67 3.73 13.67 10.73 0 7.13-4.05 10.99-12.8 10.99-1.55 0-3.1-.13-4.63-.13-1.56 0-3.08.13-4.64.13z" transform="translate(-54.525 -11.364)"/><path id="Path_565" fill="#11377d" d="M294.35 71.57h1.18c.84 2.36 2.77 3.3 5.1 3.3a4 4 0 0 0 4.04-3.9c0-6.56-10.6-2.52-10.6-10.95 0-4.01 3.51-6.32 7.18-6.32a12 12 0 0 1 5.54 1.43l.31 3.33h-1.12a4.9 4.9 0 0 0-4.7-3.45 3.94 3.94 0 0 0-4.2 3.95c0 5.48 10.61 2.3 10.61 10.43 0 4.14-3.33 6.78-7.28 6.78a13 13 0 0 1-6.07-1.21v-3.4Z" transform="translate(-62.058 -11.264)"/><path id="Path_566" fill="#11377d" d="M334.61 54.18c1.12 0 2.24.12 3.4.12 1.11 0 2.27-.12 3.38-.12v.68c-1.4.19-1.74 1.12-1.74 3.11l-.03 8.87c0 4.17 1.93 7.13 6.57 7.13 2.52 0 5.72-1.47 5.72-4.98v-3.67c0-3.68-.28-7.35-.28-8.9a1.7 1.7 0 0 0-1.59-1.56v-.68c1.12 0 2.25.12 3.36.12s2.28-.12 3.4-.12v.68c-1.03.03-1.47 1.25-1.47 2.3 0 1.18-.09 4.42-.09 8.53v6.78c0 1.74.34 2.65 1.71 2.74v.69c-.87 0-1.77-.12-2.64-.12s-1.74.12-2.62.12l.22-2.96c-2.27 2.12-4.2 3.33-7.37 3.33-4.6 0-8.25-2.64-8.25-7.31v-5.2c0-2.43-.16-4.58-.16-6.5 0-1.22-.21-2.22-1.52-2.4z" transform="translate(-70.614 -11.364)"/><path id="Path_567" fill="#11377d" d="M371.02 75.11c1.21-.3 1.93-1.24 1.93-2.98l.09-18.43h1.3l15.23 16.75V59.74c0-3.86-.84-4.76-2.34-4.98v-.68c1.03 0 2.06.12 3.08.12s2.08-.12 3.11-.12v.68c-1.37.25-2.05 1.34-2.05 3.86l-.1 17.55h-1.05l-15.47-16.83.13 11.85c.03 2.43.78 3.55 2.27 3.92v.69c-1.03 0-2.05-.12-3.08-.12s-2.03.12-3.05.12z" transform="translate(-78.298 -11.264)"/><path id="Path_568" fill="#11377d" d="M414.58 54.86c-1.15.19-1.27 1-1.27 2.08 0 3.02-.13 6.7-.13 10v6.03c0 1.03.34 2.21 1.53 2.24v.69c-1.06 0-2.15-.12-3.2-.12-1.1 0-2.15.12-3.21.12v-.69c1-.03 1.55-.9 1.55-2.24V68.5c0-3.73-.28-9.21-.28-11.17 0-1.28-.12-2.3-1.4-2.46v-.68c1.06 0 2.12.12 3.2.12 1.06 0 2.15-.12 3.2-.12z" transform="translate(-86.139 -11.364)"/><path id="Path_569" fill="#11377d" d="m433.08 76.27-8.59-18.89a4.6 4.6 0 0 0-2.24-2.52v-.68c1.19 0 2.37.12 3.55.12 1.15 0 2.33-.12 3.51-.12v.68c-.58.13-1.15.4-1.15 1.12a6 6 0 0 0 .57 1.93l5.69 13.6 4.85-12.7a6 6 0 0 0 .44-2.06c0-1.21-.4-1.7-1.62-1.9v-.68c1.06 0 2.12.12 3.18.12s2.1-.12 3.17-.12v.68c-1.28.2-2 1.25-2.62 2.8l-7.37 18.61Z" transform="translate(-89.109 -11.364)"/><path id="Path_570" fill="#11377d" d="M455.79 74.99a1.8 1.8 0 0 0 1.8-1.9v-5.26c0-4.23-.25-8.68-.25-11.45 0-.78-.6-1.3-1.56-1.5v-.68h12.3a9 9 0 0 0 2.45-.5c0 .8-.12 1.56-.12 2.34s.12 1.52.12 2.3h-1.18c-.53-1.5-1.28-2.65-3-2.65h-5.44v8.28h4.7c1.8 0 2.4-.15 3.14-1.68h1c0 .9-.13 1.8-.13 2.7 0 .94.13 1.85.13 2.75h-1.05c-.68-2.15-1.28-2.27-3.08-2.27h-4.7v8.7h5.3c2.3 0 3.14-.36 4.54-2.32l.96.5-1.09 3.82a8 8 0 0 0-2.92-.5h-11.92z" transform="translate(-96.186 -11.264)"/><path id="Path_571" fill="#11377d" d="M489.26 65.5c.46.03.83.1 1.2.1 2.87 0 5.33-1.94 5.33-4.9 0-2.86-1.3-5.4-4.7-5.4-.81 0-1.69.09-1.69.86zm-4.9 9.7c1.07-.24 1.56-.74 1.56-1.8v-8c0-2.67-.15-5.35-.15-8 0-1.46-.16-2.23-1.74-2.55v-.68c1 0 2.02.12 3.01.12.94 0 1.87-.12 4.2-.12 5.6 0 8.34 2.8 8.34 6.16 0 3.15-2.86 5.17-5.63 5.85l6.28 7.28a5.3 5.3 0 0 0 2.37 1.74v.7c-1.03 0-2.08-.12-3.11-.12s-2.06.12-3.08.12v-.69q.3-.04.34-.37a1.5 1.5 0 0 0-.47-1l-5.16-6.04c-.47-.53-1.12-1.34-1.87-1.34v6.17c0 1.3.15 2.24 1.74 2.58v.69c-1.12 0-2.2-.12-3.33-.12s-2.18.12-3.3.12z" transform="translate(-102.146 -11.364)"/><path id="Path_572" fill="#11377d" d="M513.3 71.57h1.18c.84 2.36 2.77 3.3 5.1 3.3a4.03 4.03 0 0 0 4.05-3.9c0-6.56-10.6-2.52-10.6-10.95 0-4.01 3.5-6.32 7.18-6.32a12 12 0 0 1 5.54 1.43l.31 3.33h-1.12a4.9 4.9 0 0 0-4.7-3.45 3.94 3.94 0 0 0-4.2 3.95c0 5.48 10.61 2.3 10.61 10.43 0 4.14-3.33 6.78-7.28 6.78a13 13 0 0 1-6.07-1.21z" transform="translate(-108.264 -11.264)"/><path id="Path_573" fill="#11377d" d="M545.9 54.86c-1.16.19-1.28 1-1.28 2.08 0 3.02-.13 6.7-.13 10v6.03c0 1.03.34 2.21 1.52 2.24v.69c-1.05 0-2.14-.12-3.2-.12-1.09 0-2.14.12-3.2.12v-.69c1-.03 1.56-.9 1.56-2.24V68.5c0-3.73-.28-9.21-.28-11.17 0-1.28-.13-2.3-1.4-2.46v-.68c1.06 0 2.11.12 3.2.12 1.06 0 2.14-.12 3.2-.12Z" transform="translate(-113.848 -11.364)"/><path id="Path_574" fill="#11377d" d="M573.57 58.09h-1.18c-.32-1.84-1.25-2.4-3.02-2.4h-3.93c0 2.68-.15 6.1-.15 9.83v6.63c0 1.93.59 2.52 1.96 2.95v.7c-1.22 0-2.4-.12-3.58-.12s-2.37.12-3.58.12v-.69c1.43-.46 1.86-1.15 1.86-2.95v-4.89c0-4.48-.24-8.9-.3-11.58h-4.2c-1.78 0-2.71.56-3.02 2.4h-1.18V53.7a14 14 0 0 0 3.6.5h13.76a9 9 0 0 0 2.95-.5Z" transform="translate(-116.754 -11.264)"/><path id="Path_575" fill="#11377d" d="M584.04 74.99a1.8 1.8 0 0 0 1.81-1.9v-5.26c0-4.23-.24-8.68-.24-11.45 0-.78-.6-1.3-1.57-1.5v-.68h12.3a9 9 0 0 0 2.46-.5c0 .8-.13 1.56-.13 2.34s.13 1.52.13 2.3h-1.19c-.52-1.5-1.27-2.65-2.98-2.65h-5.45v8.28h4.7c1.8 0 2.4-.15 3.14-1.68h1c0 .9-.12 1.8-.12 2.7 0 .94.12 1.85.12 2.75h-1.05c-.7-2.15-1.28-2.27-3.08-2.27h-4.7v8.7h5.28c2.3 0 3.15-.36 4.55-2.32l.97.5-1.1 3.82a8 8 0 0 0-2.92-.5h-11.93Z" transform="translate(-123.253 -11.264)"/><path id="Path_576" fill="#11377d" d="M629.54 58.09h-1.18c-.32-1.84-1.25-2.4-3.02-2.4h-3.93c0 2.68-.15 6.1-.15 9.83v6.63c0 1.93.59 2.52 1.96 2.95v.7c-1.21 0-2.4-.12-3.58-.12s-2.37.12-3.58.12v-.69c1.44-.46 1.87-1.15 1.87-2.95v-4.89c0-4.48-.25-8.9-.31-11.58h-4.2c-1.78 0-2.71.56-3.02 2.4h-1.18V53.7a14 14 0 0 0 3.6.5h13.76a9 9 0 0 0 2.96-.5z" transform="translate(-128.564 -11.264)"/></g></g></svg>