<svg xmlns="http://www.w3.org/2000/svg" xmlns:xlink="http://www.w3.org/1999/xlink" width="600" height="300" viewBox="0 0 600 300"><defs><clipPath id="clip-Logo"><path d="M0 0h600v300H0z"/></clipPath></defs><g id="Logo" clip-path="url(#clip-Logo)"><path fill="#e8eff3" d="M0 0h600v300H0z"/><g id="Miun_logotyp_CMYK" transform="translate(81.2 33.263)"><path id="Path_577" fill="#ffd500" d="M193.86 42.7a3.7 3.7 0 0 1-.63 2.86c-.8.95-20.17 22.39-20.17 22.39-5.4 6.35-6.66 1.58-9.05-3.5-2.38-5.24-3.49-8.1-5.55-12.54-2.23-4.76-3.5-6.99-8.42-1.43-6.03 6.51-19.05 21.43-20.16 22.23a2.03 2.03 0 0 1-2.86-.48c-5.87-7.94-8.9-12.54-10.48-23.02a3.7 3.7 0 0 1 .8-3.33C134 26.03 154.8 17.93 180.68 16.5a3.5 3.5 0 0 1 2.86 1.27c4.13 3.98 8.9 15.4 10.32 24.93" transform="translate(57.377)"/><g id="Group_35" transform="translate(186.183 56.081)"><path id="Path_578" fill="#1072b9" d="M124.34 71.55c-.16-1.27-.31-1.74.64-2.86.8-.95 20.16-22.38 20.16-22.38 5.4-6.35 6.67-1.6 8.9 3.49 2.38 5.24 3.49 8.1 5.55 12.54 2.22 4.77 3.5 6.99 8.42 1.43 6.03-6.5 18.73-20.48 19.52-21.43 1.27-1.27 2.86-1.11 3.5-.16 5.4 8.89 7.14 12.86 10.48 23.02.31.64.31 1.75-.8 3.18-16.51 20-37.15 27.94-63.03 29.37a3.5 3.5 0 0 1-2.86-1.27c-4.28-3.97-9.68-15.24-10.48-24.93" transform="translate(-124.224 -41.425)"/></g><g id="Group_38" transform="translate(18.8 127.806)"><g id="Group_36" transform="translate(.953)"><path id="Path_579" d="M52.27 108.12a298 298 0 0 1-.64-16.36h-.16a215 215 0 0 1-4.76 14.3l-6.67 18.25h-3.65l-6.19-17.94a227 227 0 0 1-4.29-14.6h-.16c-.15 4.76-.31 10.95-.79 16.66l-.96 16.2h-4.6L22.1 87h6.2l6.5 18.26c1.59 4.6 2.86 8.73 3.81 12.7h.16c.95-3.81 2.38-7.94 3.97-12.7L49.41 87h6.19l2.38 37.79h-4.76Z" transform="translate(-19.4 -86.365)"/><path id="Path_580" d="M51.92 92.95a2.96 2.96 0 0 1-3.02-3.17 3.18 3.18 0 0 1 6.35 0 3.44 3.44 0 0 1-3.33 3.17m-2.39 32.07V97.87h4.93v27.15z" transform="translate(-2.063 -86.6)"/><path id="Path_581" d="M65.1 89.6v6.51h6.98v3.81h-6.99v14.6c0 3.34.95 5.25 3.65 5.25a13 13 0 0 0 2.86-.32l.16 3.8a14 14 0 0 1-4.29.64 7 7 0 0 1-5.24-2.06q-1.9-2.38-1.9-7.15V99.92H56.2v-3.81h4.13v-4.92Z" transform="translate(2.228 -84.837)"/><path id="Path_582" d="M77.3 89.6v6.51h6.98v3.81h-6.99v14.6c0 3.34.95 5.25 3.65 5.25a13 13 0 0 0 2.86-.32l.16 3.8a14 14 0 0 1-4.29.64 7 7 0 0 1-5.24-2.06q-1.9-2.38-1.9-7.15V99.92H68.4v-3.81h4.13v-4.92Z" transform="translate(9.398 -84.837)"/><path id="Path_583" d="M105.1 113.39c0 2.86 0 5.24.16 7.46h-4.29l-.16-4.45h-.16a10.1 10.1 0 0 1-8.89 5.09c-4.28 0-9.36-2.39-9.36-11.91V93.7h4.92v14.92c0 5.08 1.59 8.74 6.03 8.74a7 7 0 0 0 6.51-4.6 6 6 0 0 0 .48-2.54V93.7h4.92v19.69Z" transform="translate(17.625 -82.427)"/><path id="Path_584" d="M102.46 101.24c0-2.86 0-5.08-.16-7.3h4.45l.31 4.45h.16a9.9 9.9 0 0 1 8.9-5.09c3.8 0 9.52 2.23 9.52 11.6v16.19h-4.92v-15.56c0-4.45-1.59-8.1-6.2-8.1a7.15 7.15 0 0 0-6.66 5.08 11 11 0 0 0-.32 2.22v16.36h-4.92v-19.85Z" transform="translate(29.321 -82.662)"/><path id="Path_585" d="M125.12 92.95a2.96 2.96 0 0 1-3.02-3.17 3.18 3.18 0 0 1 6.35 0 3.33 3.33 0 0 1-3.33 3.17m-2.39 32.07V97.87h4.93v27.15z" transform="translate(40.957 -86.6)"/><path id="Path_586" d="m134.56 93.7 5.24 15.24a87 87 0 0 1 2.22 6.99h.16c.63-2.22 1.43-4.45 2.22-6.99l5.24-15.24h5.08l-10.64 27.15h-4.76L129 93.7Z" transform="translate(45.012 -82.427)"/><path id="Path_587" d="M151.96 108.22c.16 6.67 4.29 9.37 9.21 9.37a20 20 0 0 0 7.46-1.27l.96 3.5a22 22 0 0 1-9.05 1.74c-8.26 0-13.34-5.56-13.34-13.65 0-8.26 4.92-14.61 12.7-14.61 8.9 0 11.11 7.78 11.11 12.7a11 11 0 0 1-.16 2.38Zm14.3-3.49c0-3.02-1.28-7.94-6.84-7.94-5.08 0-7.14 4.6-7.62 7.94Z" transform="translate(55.709 -82.662)"/><path id="Path_588" d="M166.66 102.35c0-3.17 0-5.87-.16-8.41h4.29l.16 5.23h.16a8.2 8.2 0 0 1 7.62-5.87 3 3 0 0 1 1.27.16v4.6c-.64 0-1.11-.16-1.75-.16-3.5 0-5.88 2.7-6.67 6.35a12 12 0 0 0-.16 2.38v14.45h-4.92Z" transform="translate(67.051 -82.662)"/><path id="Path_589" d="M178.5 115.95a14 14 0 0 0 6.5 1.9c3.5 0 5.24-1.75 5.24-3.97 0-2.38-1.43-3.65-4.92-4.92-4.92-1.75-7.14-4.45-7.14-7.62 0-4.45 3.65-7.94 9.36-7.94a13.3 13.3 0 0 1 6.67 1.74l-1.11 3.5a11 11 0 0 0-5.56-1.59c-2.85 0-4.44 1.75-4.44 3.65 0 2.23 1.59 3.34 5.08 4.6 4.6 1.75 7.14 4.13 7.14 8.1 0 4.77-3.8 8.1-10 8.1a15.4 15.4 0 0 1-7.62-1.9Z" transform="translate(73.634 -82.604)"/><path id="Path_590" d="M195.72 92.95a2.96 2.96 0 0 1-3.02-3.17 3.18 3.18 0 1 1 6.35 0 3.33 3.33 0 0 1-3.33 3.17m-2.38 32.07V97.87h4.92v27.15z" transform="translate(82.449 -86.6)"/><path id="Path_591" d="M208.9 89.6v6.51h6.98v3.81h-6.99v14.6c0 3.34.95 5.25 3.65 5.25a13 13 0 0 0 2.86-.32l.16 3.8a14 14 0 0 1-4.45.64 7 7 0 0 1-5.24-2.06q-1.9-2.38-1.9-7.15V99.92H200v-3.81h4.13v-4.92Z" transform="translate(86.739 -84.837)"/><path id="Path_592" d="M217.46 108.22c.16 6.67 4.29 9.37 9.21 9.37a20 20 0 0 0 7.46-1.27l.96 3.5a22 22 0 0 1-9.05 1.74c-8.26 0-13.34-5.56-13.34-13.65 0-8.26 4.92-14.61 12.7-14.61 8.9 0 11.11 7.78 11.11 12.7a11 11 0 0 1-.16 2.38Zm14.3-3.49c0-3.02-1.28-7.94-6.84-7.94-5.08 0-7.14 4.6-7.62 7.94Z" transform="translate(94.203 -82.662)"/><path id="Path_593" d="M239.15 89.6v6.51h6.99v3.81h-6.99v14.6c0 3.34.95 5.25 3.65 5.25a13 13 0 0 0 2.86-.32l.16 3.8a15 15 0 0 1-4.45.64 7 7 0 0 1-5.24-2.06q-1.9-2.38-1.9-7.15V99.92h-4.13v-3.81h4.13v-4.92Z" transform="translate(104.429 -84.837)"/><path id="Path_594" d="M247.56 108.22c.16 6.67 4.29 9.37 9.21 9.37a20 20 0 0 0 7.46-1.27l.96 3.5a22 22 0 0 1-9.05 1.74c-8.26 0-13.34-5.56-13.34-13.65 0-8.26 4.92-14.61 12.7-14.61 8.9 0 11.11 7.78 11.11 12.7a11 11 0 0 1-.16 2.38Zm14.45-3.49c0-3.02-1.27-7.94-6.83-7.94-5.08 0-7.14 4.6-7.62 7.94Z" transform="translate(111.893 -82.662)"/><path id="Path_595" d="M269.35 89.6v6.51h6.99v3.81h-6.99v14.6c0 3.34.95 5.25 3.65 5.25a13 13 0 0 0 2.86-.32l.16 3.8a15 15 0 0 1-4.45.64 7 7 0 0 1-5.24-2.06q-1.9-2.38-1.9-7.15V99.92h-4.13v-3.81h4.13v-4.92Z" transform="translate(122.178 -84.837)"/></g><path id="Line_1" fill="none" stroke="#000" stroke-width="0.42" d="M0 0h400.1" transform="translate(0 50.965)"/><g id="Group_37" transform="translate(23.657 62.238)"><path id="Path_596" d="M47.35 134.9a107 107 0 0 1-.31-6.84 93 93 0 0 0-1.9 6.04l-2.87 7.62H40.7l-2.54-7.46a37 37 0 0 1-1.75-6.2c0 1.9-.16 4.6-.32 6.99l-.47 6.67H33.7L34.81 126h2.54l2.7 7.62c.64 1.9 1.11 3.65 1.59 5.24a51 51 0 0 1 1.75-5.24l2.85-7.62h2.54l.96 15.72h-2.07Z" transform="translate(-33.7 -125.682)"/><path id="Path_597" d="M51.06 126.1v15.72H49V126.1Z" transform="translate(-24.708 -125.624)"/><path id="Path_598" d="M55.8 126.32a34 34 0 0 1 4.29-.32c2.86 0 4.92.64 6.35 1.9a7.3 7.3 0 0 1 2.22 5.72 9 9 0 0 1-2.22 6.2c-1.43 1.42-3.97 2.22-6.99 2.22a25 25 0 0 1-3.65-.16Zm2.06 13.97a8 8 0 0 0 2.07.16c4.28 0 6.67-2.38 6.67-6.67 0-3.81-2.07-6.03-6.35-6.03-1.12 0-1.91.16-2.39.16Z" transform="translate(-20.712 -125.682)"/><path id="Path_599" d="M74.33 139.45a6.6 6.6 0 0 0 3.66.96c2.06 0 3.33-1.11 3.33-2.7 0-1.43-.8-2.38-3.02-3.18-2.54-.95-4.12-2.22-4.12-4.44 0-2.39 2.06-4.3 5.08-4.3a6.3 6.3 0 0 1 3.49.8l-.63 1.6a6 6 0 0 0-3.02-.8c-2.22 0-3.02 1.27-3.02 2.38 0 1.43.95 2.22 3.18 3.02 2.7 1.1 3.96 2.38 3.96 4.6 0 2.38-1.74 4.6-5.55 4.6a8.6 8.6 0 0 1-3.97-.96Z" transform="translate(-10.192 -125.8)"/><path id="Path_600" d="M87.87 141.82 83.9 126.1h2.22l1.9 7.94a47 47 0 0 1 1.12 5.4c.32-1.59.8-3.5 1.27-5.4l2.06-7.94h2.07l1.9 7.94c.48 1.9.8 3.8 1.11 5.4.32-1.75.8-3.5 1.27-5.4l2.07-7.94h2.22l-4.45 15.72H96.6l-2.06-8.1a40 40 0 0 1-.96-5.08 40 40 0 0 1-1.27 5.08l-2.22 8.25h-2.22Z" transform="translate(-4.197 -125.624)"/><path id="Path_601" d="M108.5 134.36h-6.03v5.71h6.82v1.75h-8.89V126.1h8.57v1.75h-6.5v4.92h6.03z" transform="translate(5.5 -125.624)"/><path id="Path_602" d="M110.9 126.32a34 34 0 0 1 4.29-.32c2.86 0 4.92.64 6.35 1.9a7.3 7.3 0 0 1 2.22 5.72 9 9 0 0 1-2.22 6.2c-1.43 1.42-3.97 2.22-6.99 2.22a25 25 0 0 1-3.65-.16zm2.06 13.97a8 8 0 0 0 2.07.16c4.28 0 6.67-2.38 6.67-6.67 0-3.81-2.07-6.03-6.36-6.03-1.1 0-1.9.16-2.38.16Z" transform="translate(11.671 -125.682)"/><path id="Path_603" d="M132 134.36h-6.03v5.71h6.82v1.75h-8.89V126.1h8.57v1.75h-6.5v4.92H132Z" transform="translate(19.311 -125.624)"/><path id="Path_604" d="M134.4 141.88v-15.72h2.22l5.08 7.94c1.11 1.9 2.06 3.5 2.86 5.08-.16-2.06-.16-3.97-.16-6.5V126h1.9v15.72h-2.06l-4.92-7.94a29 29 0 0 1-2.86-5.24c.16 1.9.16 3.81.16 6.51v6.67h-2.22Z" transform="translate(25.482 -125.682)"/><path id="Path_605" d="M154.76 126.1v9.37c0 3.49 1.6 4.92 3.66 4.92 2.38 0 3.8-1.59 3.8-4.92v-9.37h2.07v9.2c0 4.77-2.54 6.84-5.87 6.84-3.18 0-5.72-1.75-5.72-6.67v-9.21h2.06Z" transform="translate(36.237 -125.624)"/><path id="Path_606" d="M165.5 141.88v-15.72h2.22l5.08 7.94c1.11 1.9 2.06 3.5 2.86 5.08-.16-2.06-.16-3.97-.16-6.5V126h1.9v15.72h-2.06l-4.92-7.94a29 29 0 0 1-2.86-5.24c.16 1.9.16 3.81.16 6.51v6.67h-2.22Z" transform="translate(43.759 -125.682)"/><path id="Path_607" d="M180.46 126.1v15.72h-2.06V126.1Z" transform="translate(51.341 -125.624)"/><path id="Path_608" d="m189.18 141.82-5.08-15.72h2.22l2.39 7.78c.63 2.06 1.27 4.13 1.74 5.87.48-1.74 1.11-3.8 1.75-5.87l2.7-7.78h2.22l-5.56 15.72Z" transform="translate(54.691 -125.624)"/><path id="Path_609" d="M204.7 134.36h-6.03v5.71h6.82v1.75h-8.89V126.1h8.57v1.75h-6.5v4.92h6.03Z" transform="translate(62.037 -125.624)"/><path id="Path_610" d="M207.1 126.32a27 27 0 0 1 3.97-.32 7 7 0 0 1 4.6 1.27 3.8 3.8 0 0 1 1.27 3.02 3.96 3.96 0 0 1-3.02 3.97 4.7 4.7 0 0 1 2.38 3.17 21 21 0 0 0 1.27 4.29h-2.06a12 12 0 0 1-.95-3.81c-.48-2.23-1.27-3.02-3.18-3.02h-1.9v6.83h-2.07v-15.4Zm1.9 7.14h2.07c2.22 0 3.5-1.1 3.5-3.01 0-2.07-1.44-2.86-3.66-2.86-.95 0-1.59.16-2.06.16v5.71Z" transform="translate(68.208 -125.682)"/><path id="Path_611" d="M218.24 139.45a6.6 6.6 0 0 0 3.65.96c2.06 0 3.33-1.11 3.33-2.7 0-1.43-.8-2.38-3.02-3.18-2.54-.95-4.12-2.22-4.12-4.44 0-2.39 2.06-4.3 5.08-4.3a6.7 6.7 0 0 1 3.49.8l-.63 1.6a6 6 0 0 0-3.02-.8c-2.22 0-3.02 1.27-3.02 2.38 0 1.43.95 2.22 3.18 3.02 2.7 1.1 3.97 2.38 3.97 4.6 0 2.38-1.75 4.6-5.56 4.6a8.6 8.6 0 0 1-3.97-.96Z" transform="translate(74.379 -125.8)"/><path id="Path_612" d="M230.76 126.1v15.72h-2.06V126.1Z" transform="translate(80.902 -125.624)"/><path id="Path_613" d="M239.06 127.85h-4.76v-1.75h11.59v1.75h-4.76v13.97h-2.07Z" transform="translate(84.194 -125.624)"/><path id="Path_614" d="M250.52 141.82v-6.67l-4.92-9.05h2.38l2.23 4.29c.63 1.1 1.1 2.22 1.58 3.17.48-.95.96-2.06 1.6-3.17l2.21-4.29h2.22l-5.24 9.05v6.67Z" transform="translate(90.835 -125.624)"/></g></g></g></g></svg>