<svg xmlns="http://www.w3.org/2000/svg" xmlns:xlink="http://www.w3.org/1999/xlink" width="600" height="300" viewBox="0 0 600 300">
  <defs>
    <clipPath id="clip-Logo">
      <rect width="600" height="300"/>
    </clipPath>
  </defs>
  <g id="Logo" clip-path="url(#clip-Logo)">
    <rect width="600" height="300" fill="#e8eff3"/>
    <g id="Miun_logotyp_CMYK" transform="translate(81.2 33.263)">
      <path id="Path_577" data-name="Path 577" d="M193.863,42.7a3.681,3.681,0,0,1-.635,2.858c-.794.953-20.164,22.387-20.164,22.387-5.4,6.351-6.668,1.588-9.05-3.493-2.382-5.239-3.493-8.1-5.557-12.543-2.223-4.763-3.493-6.986-8.415-1.429-6.033,6.51-19.052,21.434-20.164,22.228a2.032,2.032,0,0,1-2.858-.476c-5.875-7.939-8.891-12.543-10.479-23.022a3.739,3.739,0,0,1,.794-3.334c16.671-19.846,37.47-27.944,63.349-29.373a3.488,3.488,0,0,1,2.858,1.27C187.671,21.747,192.434,33.179,193.863,42.7Z" transform="translate(57.377 0)" fill="#ffd500"/>
      <g id="Group_35" data-name="Group 35" transform="translate(186.183 56.081)">
        <path id="Path_578" data-name="Path 578" d="M124.344,71.552c-.159-1.27-.318-1.746.635-2.858.794-.953,20.164-22.387,20.164-22.387,5.4-6.351,6.668-1.588,8.891,3.493,2.382,5.239,3.493,8.1,5.557,12.543,2.223,4.763,3.493,6.986,8.415,1.429,6.033-6.51,18.735-20.481,19.529-21.434,1.27-1.27,2.858-1.111,3.493-.159,5.4,8.891,7.145,12.86,10.479,23.022.318.635.318,1.746-.794,3.175C184.2,88.381,163.561,96.32,137.681,97.749a3.489,3.489,0,0,1-2.858-1.27C130.536,92.509,125.138,81.237,124.344,71.552Z" transform="translate(-124.224 -41.425)" fill="#1072b9"/>
      </g>
      <g id="Group_38" data-name="Group 38" transform="translate(18.8 127.806)">
        <g id="Group_36" data-name="Group 36" transform="translate(0.953)">
          <path id="Path_579" data-name="Path 579" d="M52.265,108.116c-.318-5.239-.635-11.59-.635-16.353h-.159c-1.27,4.446-2.858,9.05-4.763,14.289L40.04,124.311H36.388L30.2,106.37c-1.746-5.4-3.175-10.161-4.287-14.607h-.159c-.159,4.763-.318,10.955-.794,16.671L24,124.629H19.4L22.1,87h6.192l6.51,18.259c1.588,4.6,2.858,8.732,3.81,12.7h.159c.953-3.81,2.382-7.939,3.969-12.7L49.408,87H55.6l2.382,37.787H53.218Z" transform="translate(-19.4 -86.365)"/>
          <path id="Path_580" data-name="Path 580" d="M51.917,92.951A2.959,2.959,0,0,1,48.9,89.775a3.175,3.175,0,0,1,6.351,0,3.441,3.441,0,0,1-3.334,3.175Zm-2.382,32.072V97.873h4.922v27.15H49.535Z" transform="translate(-2.063 -86.6)"/>
          <path id="Path_581" data-name="Path 581" d="M65.091,89.6v6.51h6.986v3.81H65.091v14.607c0,3.334.953,5.239,3.652,5.239a12.955,12.955,0,0,0,2.858-.318l.159,3.81a14.389,14.389,0,0,1-4.287.635,6.915,6.915,0,0,1-5.239-2.064q-1.905-2.382-1.905-7.145V99.92H56.2V96.11h4.128V91.188Z" transform="translate(2.228 -84.837)"/>
          <path id="Path_582" data-name="Path 582" d="M77.291,89.6v6.51h6.986v3.81H77.291v14.607c0,3.334.953,5.239,3.652,5.239a12.955,12.955,0,0,0,2.858-.318l.159,3.81a14.389,14.389,0,0,1-4.287.635,6.915,6.915,0,0,1-5.239-2.064q-1.905-2.382-1.905-7.145V99.92H68.4V96.11h4.128V91.188Z" transform="translate(9.398 -84.837)"/>
          <path id="Path_583" data-name="Path 583" d="M105.1,113.388c0,2.858,0,5.239.159,7.462h-4.287l-.159-4.446h-.159a10.065,10.065,0,0,1-8.891,5.081c-4.287,0-9.367-2.382-9.367-11.908V93.7h4.922v14.924c0,5.081,1.588,8.732,6.033,8.732a6.991,6.991,0,0,0,6.51-4.6,6.046,6.046,0,0,0,.476-2.54V93.7h4.922v19.688Z" transform="translate(17.625 -82.427)"/>
          <path id="Path_584" data-name="Path 584" d="M102.459,101.239c0-2.858,0-5.081-.159-7.3h4.446l.318,4.446h.159a9.859,9.859,0,0,1,8.891-5.081c3.811,0,9.526,2.223,9.526,11.59v16.195h-4.922v-15.56c0-4.446-1.588-8.1-6.192-8.1a7.15,7.15,0,0,0-6.668,5.081,10.722,10.722,0,0,0-.318,2.223v16.353h-4.922V101.239Z" transform="translate(29.321 -82.662)"/>
          <path id="Path_585" data-name="Path 585" d="M125.117,92.951a2.959,2.959,0,0,1-3.017-3.175,3.175,3.175,0,0,1,6.351,0,3.326,3.326,0,0,1-3.334,3.175Zm-2.382,32.072V97.873h4.922v27.15h-4.922Z" transform="translate(40.957 -86.6)"/>
          <path id="Path_586" data-name="Path 586" d="M134.557,93.7l5.239,15.242c.953,2.54,1.588,4.763,2.223,6.986h.159c.635-2.223,1.429-4.446,2.223-6.986L149.64,93.7h5.081l-10.638,27.15H139.32L129,93.7Z" transform="translate(45.012 -82.427)"/>
          <path id="Path_587" data-name="Path 587" d="M151.963,108.224c.159,6.668,4.287,9.367,9.209,9.367a20.429,20.429,0,0,0,7.462-1.27l.953,3.493a21.9,21.9,0,0,1-9.05,1.746c-8.256,0-13.337-5.557-13.337-13.654,0-8.256,4.922-14.607,12.7-14.607,8.891,0,11.114,7.78,11.114,12.7a10.513,10.513,0,0,1-.159,2.382Zm14.289-3.493c0-3.017-1.27-7.939-6.827-7.939-5.081,0-7.145,4.6-7.621,7.939Z" transform="translate(55.709 -82.662)"/>
          <path id="Path_588" data-name="Path 588" d="M166.659,102.35c0-3.175,0-5.875-.159-8.415h4.287l.159,5.239h.159a8.2,8.2,0,0,1,7.621-5.874,3.1,3.1,0,0,1,1.27.159v4.6c-.635,0-1.111-.159-1.747-.159-3.493,0-5.874,2.7-6.668,6.351a12.016,12.016,0,0,0-.159,2.382v14.448H166.5Z" transform="translate(67.051 -82.662)"/>
          <path id="Path_589" data-name="Path 589" d="M178.494,115.945a13.659,13.659,0,0,0,6.51,1.905c3.493,0,5.239-1.746,5.239-3.969,0-2.382-1.429-3.652-4.922-4.922-4.922-1.746-7.145-4.446-7.145-7.621,0-4.446,3.652-7.939,9.367-7.939a13.286,13.286,0,0,1,6.668,1.746L193.1,98.639a11.026,11.026,0,0,0-5.557-1.588c-2.858,0-4.446,1.746-4.446,3.652,0,2.223,1.588,3.334,5.081,4.6,4.6,1.746,7.145,4.128,7.145,8.1,0,4.763-3.81,8.1-10,8.1A15.427,15.427,0,0,1,177.7,119.6Z" transform="translate(73.634 -82.604)"/>
          <path id="Path_590" data-name="Path 590" d="M195.717,92.951a2.959,2.959,0,0,1-3.017-3.175,3.175,3.175,0,1,1,6.351,0,3.326,3.326,0,0,1-3.334,3.175Zm-2.382,32.072V97.873h4.922v27.15h-4.922Z" transform="translate(82.449 -86.6)"/>
          <path id="Path_591" data-name="Path 591" d="M208.891,89.6v6.51h6.986v3.81h-6.986v14.607c0,3.334.953,5.239,3.652,5.239a12.955,12.955,0,0,0,2.858-.318l.159,3.81a13.908,13.908,0,0,1-4.446.635,6.915,6.915,0,0,1-5.239-2.064q-1.905-2.382-1.905-7.145V99.92H200V96.11h4.128V91.188Z" transform="translate(86.739 -84.837)"/>
          <path id="Path_592" data-name="Path 592" d="M217.463,108.224c.159,6.668,4.287,9.367,9.209,9.367a20.429,20.429,0,0,0,7.462-1.27l.953,3.493a21.9,21.9,0,0,1-9.05,1.746c-8.256,0-13.337-5.557-13.337-13.654,0-8.256,4.922-14.607,12.7-14.607,8.891,0,11.114,7.78,11.114,12.7a10.513,10.513,0,0,1-.159,2.382Zm14.289-3.493c0-3.017-1.27-7.939-6.827-7.939-5.081,0-7.145,4.6-7.621,7.939Z" transform="translate(94.203 -82.662)"/>
          <path id="Path_593" data-name="Path 593" d="M239.15,89.6v6.51h6.986v3.81H239.15v14.607c0,3.334.953,5.239,3.652,5.239a12.955,12.955,0,0,0,2.858-.318l.159,3.81a14.721,14.721,0,0,1-4.446.635,6.915,6.915,0,0,1-5.239-2.064q-1.905-2.382-1.905-7.145V99.92H230.1V96.11h4.128V91.188Z" transform="translate(104.429 -84.837)"/>
          <path id="Path_594" data-name="Path 594" d="M247.563,108.224c.159,6.668,4.287,9.367,9.209,9.367a20.429,20.429,0,0,0,7.462-1.27l.953,3.493a21.9,21.9,0,0,1-9.05,1.746c-8.256,0-13.337-5.557-13.337-13.654,0-8.256,4.922-14.607,12.7-14.607,8.891,0,11.114,7.78,11.114,12.7a10.514,10.514,0,0,1-.159,2.382Zm14.448-3.493c0-3.017-1.27-7.939-6.827-7.939-5.081,0-7.145,4.6-7.621,7.939Z" transform="translate(111.893 -82.662)"/>
          <path id="Path_595" data-name="Path 595" d="M269.35,89.6v6.51h6.986v3.81H269.35v14.607c0,3.334.953,5.239,3.652,5.239a12.955,12.955,0,0,0,2.858-.318l.159,3.81a14.721,14.721,0,0,1-4.446.635,6.915,6.915,0,0,1-5.239-2.064q-1.905-2.382-1.905-7.145V99.92H260.3V96.11h4.128V91.188Z" transform="translate(122.178 -84.837)"/>
        </g>
        <line id="Line_1" data-name="Line 1" x2="400.102" transform="translate(0 50.965)" fill="none" stroke="#000" stroke-width="0.42"/>
        <g id="Group_37" data-name="Group 37" transform="translate(23.657 62.238)">
          <path id="Path_596" data-name="Path 596" d="M47.354,134.891c-.159-2.223-.318-4.922-.318-6.827h0c-.635,1.746-1.27,3.81-1.905,6.033l-2.858,7.621H40.686l-2.54-7.462a37.041,37.041,0,0,1-1.746-6.192h0c0,1.905-.159,4.6-.318,6.986l-.476,6.668H33.7L34.811,126h2.54l2.7,7.621c.635,1.905,1.111,3.652,1.588,5.239h0a50.508,50.508,0,0,1,1.746-5.239L46.243,126h2.54l.953,15.718H47.672Z" transform="translate(-33.7 -125.682)"/>
          <path id="Path_597" data-name="Path 597" d="M51.064,126.1v15.718H49V126.1Z" transform="translate(-24.708 -125.624)"/>
          <path id="Path_598" data-name="Path 598" d="M55.8,126.318A33.819,33.819,0,0,1,60.087,126c2.858,0,4.922.635,6.351,1.905a7.289,7.289,0,0,1,2.223,5.716,8.95,8.95,0,0,1-2.223,6.192c-1.429,1.429-3.969,2.223-6.986,2.223a24.639,24.639,0,0,1-3.652-.159Zm2.064,13.972a7.761,7.761,0,0,0,2.064.159c4.287,0,6.668-2.382,6.668-6.668,0-3.811-2.064-6.033-6.351-6.033-1.111,0-1.905.159-2.382.159Z" transform="translate(-20.712 -125.682)"/>
          <path id="Path_599" data-name="Path 599" d="M74.335,139.454a6.577,6.577,0,0,0,3.652.953c2.064,0,3.334-1.111,3.334-2.7,0-1.429-.794-2.382-3.017-3.175-2.54-.953-4.128-2.223-4.128-4.446,0-2.382,2.064-4.287,5.081-4.287a6.277,6.277,0,0,1,3.493.794l-.635,1.588a5.773,5.773,0,0,0-3.017-.794c-2.223,0-3.017,1.27-3.017,2.382,0,1.429.953,2.223,3.175,3.017,2.7,1.111,3.969,2.382,3.969,4.6,0,2.382-1.746,4.6-5.557,4.6a8.564,8.564,0,0,1-3.969-.953Z" transform="translate(-10.192 -125.8)"/>
          <path id="Path_600" data-name="Path 600" d="M87.869,141.818,83.9,126.1h2.223l1.905,7.939a46.894,46.894,0,0,1,1.111,5.4h0c.318-1.588.794-3.493,1.27-5.4l2.064-7.939h2.064l1.905,7.939c.476,1.905.794,3.81,1.111,5.4h0c.318-1.746.794-3.493,1.27-5.4l2.064-7.939h2.223l-4.446,15.718H96.6l-2.064-8.1a39.515,39.515,0,0,1-.953-5.081h0a39.492,39.492,0,0,1-1.27,5.081l-2.223,8.256H87.869Z" transform="translate(-4.197 -125.624)"/>
          <path id="Path_601" data-name="Path 601" d="M108.5,134.356h-6.033v5.716h6.827v1.746H100.4V126.1h8.574v1.746h-6.51v4.922H108.5v1.588Z" transform="translate(5.5 -125.624)"/>
          <path id="Path_602" data-name="Path 602" d="M110.9,126.318a33.819,33.819,0,0,1,4.287-.318c2.858,0,4.922.635,6.351,1.905a7.289,7.289,0,0,1,2.223,5.716,8.95,8.95,0,0,1-2.223,6.192c-1.429,1.429-3.969,2.223-6.986,2.223a24.639,24.639,0,0,1-3.652-.159V126.318Zm2.064,13.972a7.761,7.761,0,0,0,2.064.159c4.287,0,6.668-2.382,6.668-6.668,0-3.811-2.064-6.033-6.351-6.033-1.111,0-1.905.159-2.382.159Z" transform="translate(11.671 -125.682)"/>
          <path id="Path_603" data-name="Path 603" d="M132,134.356h-6.033v5.716h6.827v1.746H123.9V126.1h8.574v1.746h-6.51v4.922H132Z" transform="translate(19.311 -125.624)"/>
          <path id="Path_604" data-name="Path 604" d="M134.4,141.877V126.159h2.223L141.7,134.1c1.111,1.905,2.064,3.493,2.858,5.081h0c-.159-2.064-.159-3.969-.159-6.51V126h1.905v15.718h-2.064l-4.922-7.939a28.45,28.45,0,0,1-2.858-5.239h0c.159,1.905.159,3.811.159,6.51v6.668H134.4Z" transform="translate(25.482 -125.682)"/>
          <path id="Path_605" data-name="Path 605" d="M154.764,126.1v9.367c0,3.493,1.588,4.922,3.652,4.922,2.382,0,3.811-1.588,3.811-4.922V126.1h2.064v9.209c0,4.763-2.54,6.827-5.875,6.827-3.175,0-5.716-1.746-5.716-6.668v-9.209h2.064Z" transform="translate(36.237 -125.624)"/>
          <path id="Path_606" data-name="Path 606" d="M165.5,141.877V126.159h2.223L172.8,134.1c1.111,1.905,2.064,3.493,2.858,5.081h0c-.159-2.064-.159-3.969-.159-6.51V126h1.905v15.718h-2.064l-4.922-7.939a28.451,28.451,0,0,1-2.858-5.239h0c.159,1.905.159,3.811.159,6.51v6.668H165.5Z" transform="translate(43.759 -125.682)"/>
          <path id="Path_607" data-name="Path 607" d="M180.464,126.1v15.718H178.4V126.1Z" transform="translate(51.341 -125.624)"/>
          <path id="Path_608" data-name="Path 608" d="M189.181,141.818,184.1,126.1h2.223l2.382,7.78c.635,2.064,1.27,4.128,1.746,5.874h0c.476-1.746,1.111-3.81,1.746-5.874l2.7-7.78h2.223l-5.557,15.718Z" transform="translate(54.691 -125.624)"/>
          <path id="Path_609" data-name="Path 609" d="M204.7,134.356h-6.033v5.716h6.827v1.746H196.6V126.1h8.574v1.746h-6.51v4.922H204.7Z" transform="translate(62.037 -125.624)"/>
          <path id="Path_610" data-name="Path 610" d="M207.1,126.318a26.766,26.766,0,0,1,3.969-.318,6.937,6.937,0,0,1,4.6,1.27,3.821,3.821,0,0,1,1.27,3.017,3.962,3.962,0,0,1-3.017,3.969h0a4.653,4.653,0,0,1,2.382,3.175,20.822,20.822,0,0,0,1.27,4.287h-2.064a12.286,12.286,0,0,1-.953-3.811c-.476-2.223-1.27-3.017-3.175-3.017h-1.905v6.827h-2.064v-15.4Zm1.905,7.145h2.064c2.223,0,3.493-1.111,3.493-3.017,0-2.064-1.429-2.858-3.652-2.858-.953,0-1.588.159-2.064.159v5.716Z" transform="translate(68.208 -125.682)"/>
          <path id="Path_611" data-name="Path 611" d="M218.235,139.454a6.577,6.577,0,0,0,3.652.953c2.064,0,3.334-1.111,3.334-2.7,0-1.429-.794-2.382-3.017-3.175-2.54-.953-4.128-2.223-4.128-4.446,0-2.382,2.064-4.287,5.081-4.287a6.672,6.672,0,0,1,3.493.794l-.635,1.588a5.773,5.773,0,0,0-3.017-.794c-2.223,0-3.017,1.27-3.017,2.382,0,1.429.953,2.223,3.175,3.017,2.7,1.111,3.969,2.382,3.969,4.6,0,2.382-1.746,4.6-5.557,4.6a8.565,8.565,0,0,1-3.969-.953Z" transform="translate(74.379 -125.8)"/>
          <path id="Path_612" data-name="Path 612" d="M230.764,126.1v15.718H228.7V126.1Z" transform="translate(80.902 -125.624)"/>
          <path id="Path_613" data-name="Path 613" d="M239.063,127.846H234.3V126.1h11.59v1.746h-4.763v13.972h-2.064Z" transform="translate(84.194 -125.624)"/>
          <path id="Path_614" data-name="Path 614" d="M250.522,141.818V135.15L245.6,126.1h2.382l2.223,4.287c.635,1.111,1.111,2.223,1.588,3.175h0c.476-.953.953-2.064,1.588-3.175L255.6,126.1h2.223l-5.239,9.05v6.668Z" transform="translate(90.835 -125.624)"/>
        </g>
      </g>
    </g>
  </g>
</svg>
