<svg xmlns="http://www.w3.org/2000/svg" xmlns:xlink="http://www.w3.org/1999/xlink" width="600" height="300" viewBox="0 0 600 300">
  <defs>
    <clipPath id="clip-Logo">
      <rect width="600" height="300"/>
    </clipPath>
  </defs>
  <g id="Logo" clip-path="url(#clip-Logo)">
    <rect width="600" height="300" fill="#e8eff3"/>
    <g id="g7130" transform="translate(137.188 461.505)">
      <path id="path7134" d="M450.9-367.985h0a2.251,2.251,0,0,0-2.008-1.234h-1.833a1.242,1.242,0,0,0-1.11,1.8l3.065,6.113,2.8,4.762a30.213,30.213,0,0,0,8.727,9.445l18.224,12.75a22.754,22.754,0,0,1,6.2,6.5l5.948,9.558.871-7.7-4.794-8.549a17.78,17.78,0,0,0-5.632-6.088l-19.736-13.182-1.912-1.743a34.463,34.463,0,0,1-7.532-9.907l-1.277-2.524" transform="translate(-262.602 -6.907)" fill="#8f3b1b"/>
      <path id="path7136" d="M468.029-202.123h0l-6.587-6.005-3.955-9.689.144-3.714-1.921,6.638,1.036,4.06a18.977,18.977,0,0,0,8.039,11.217l17.245,11.22a10.444,10.444,0,0,0,5.7,1.69h.71a1.747,1.747,0,0,0,.866-3.264l-21.272-12.151" transform="translate(-268.93 -101.331)" fill="#8f3b1b"/>
      <path id="path7138" d="M547.8-352.568h0l.075.142a2.7,2.7,0,0,1,.2,2.061l-.747,2.426a.936.936,0,0,1-1.634.3l-9.858-12.675a2,2,0,0,1,1.681-3.224l3.066.157a2.678,2.678,0,0,1,2.227,1.417l4.993,9.4" transform="translate(-319.884 -10.537)" fill="#8f3b1b"/>
      <path id="path7140" d="M491.928-358.625h0a1.387,1.387,0,0,1-1.368,2.03l-14.435-1.489a1.355,1.355,0,0,0-.284,0l-16.178,1.657a1.387,1.387,0,0,1-1.393-.782l-1.7-3.567a1.387,1.387,0,0,1,1.518-1.959l17.346,3.392a1.392,1.392,0,0,0,.419.018l13.53-1.5a1.928,1.928,0,0,1,1.916,1.012l.632,1.19" transform="translate(-269.391 -11.035)" fill="#85be42"/>
      <path id="path7142" d="M510.8-329.833h0a1.384,1.384,0,0,1,.194.591h0a1.387,1.387,0,0,1-1.525,1.506l-12.007-1.246a1.393,1.393,0,0,0-.257,0l-15.32,1.259a1.385,1.385,0,0,1-1.051-.36l-1.351-1.238a1.387,1.387,0,0,1,1.06-2.4l16.343,1.453a1.376,1.376,0,0,0,.431-.029l10.059-2.3a2.183,2.183,0,0,1,2.353,1l1.068,1.768" transform="translate(-283.843 -30.285)" fill="#85be42"/>
      <path id="path7144" d="M514.408-302.353l8.273,1.381a1.388,1.388,0,0,0,.7-.064l3.394-1.232a1.387,1.387,0,0,1,1.783,1.76l-.066.19a1.388,1.388,0,0,1-1.419.927l-3.741-.294a1.384,1.384,0,0,0-.572.075l-4.394,1.556a1.388,1.388,0,0,1-1.451-.334l-2.992-3.036a.551.551,0,0,1,.483-.93" transform="translate(-306.048 -49.652)" fill="#85be42"/>
      <path id="path7146" d="M464.748-191.863h0a1.387,1.387,0,0,0,1.582.931l8.591-1.661a1.393,1.393,0,0,1,.338-.023l6.373.344a1.387,1.387,0,0,0,1.312-.757l.225-.443a1.387,1.387,0,0,0-1.572-1.974l-6.241,1.552a1.385,1.385,0,0,1-.539.026l-9.914-1.477a.849.849,0,0,0-.932,1.1l.778,2.381" transform="translate(-274.185 -117.98)" fill="#85be42"/>
      <path id="path7148" d="M523.324-272.087l-2.154,1.046a1.384,1.384,0,0,1-.625.139l-8.808-.122a1.387,1.387,0,0,0-1.37,1.069l-.473,2.012a1.387,1.387,0,0,0,1.809,1.627l9.2-3.224a1.387,1.387,0,0,1,.721-.053l2.246.432a1.387,1.387,0,0,0,1.434-2.1l-.2-.316a1.388,1.388,0,0,0-1.778-.506" transform="translate(-303.549 -68.919)" fill="#85be42"/>
      <path id="path7150" d="M510.44-246.929h0a1.387,1.387,0,0,1-1.35,1.867l-10.984-.381a1.371,1.371,0,0,0-.316.025l-17.9,3.517a1.387,1.387,0,0,1-1.426-2.124l2.358-3.581a1.388,1.388,0,0,1,1.311-.616l15.611,1.719a1.385,1.385,0,0,0,.409-.016l10.46-1.976a1.408,1.408,0,0,1,1.582.9l.248.671" transform="translate(-283.328 -84.075)" fill="#85be42"/>
      <path id="path7152" d="M486.36-144.885h0a1.387,1.387,0,0,1-.914,2.52l-9.518-.682-.338.012L465.2-141.572a1.387,1.387,0,0,1-1.375-2.1l1.219-1.981a1.387,1.387,0,0,1,1.535-.614l8.85,2.333a1.392,1.392,0,0,0,.682.006l8.563-1.452a1.939,1.939,0,0,1,1.435.322l.251.175" transform="translate(-273.987 -149.42)" fill="#85be42"/>
      <path id="path7154" d="M493.549-225.591l-2.665,5.331a1.387,1.387,0,0,1-1.388.759l-14.511-1.541a1.379,1.379,0,0,0-.366.01l-14.131,2.261a1.387,1.387,0,0,1-1.419-2.066l.836-1.441a1.387,1.387,0,0,1,1.289-.688l13.434.862a1.368,1.368,0,0,0,.343-.021l18.577-3.465h0" transform="translate(-270.957 -98.735)" fill="#85be42"/>
      <path id="path7156" d="M494.24-324.467l2.995-4.569-.164,6.848a3.433,3.433,0,0,1-.715,2.017l-3.108,4.02a37.71,37.71,0,0,1-8,7.68l-18.465,13.122a18.809,18.809,0,0,0-3.148,2.82s-6.363,6.458-7.93,8.9c.248-1.265.313-1.949.313-1.949a23.16,23.16,0,0,1,4.637-10.614l1.536-1.961a19.538,19.538,0,0,1,4.263-4.017l18.109-12.53a28.354,28.354,0,0,0,4-3.357l2.64-2.665a23.874,23.874,0,0,0,3.029-3.749h0" transform="translate(-268.93 -32.598)" fill="#f47d20"/>
      <path id="path7158" d="M477.514-234.092l-12.155,8.41a36.754,36.754,0,0,0-9.9,10.187l-6.854,10.538a.706.706,0,0,0,.592,1.091h3.2a2.246,2.246,0,0,0,1.928-1.094l1.655-2.773a41.313,41.313,0,0,1,11.544-12.5l12.53-8.9a70.724,70.724,0,0,0,9.569-8.174l2.053-2.1a5.544,5.544,0,0,0,1.578-3.669l.236-6.28-.018.03A16.481,16.481,0,0,1,489.9-244.1l-.511.513a13.708,13.708,0,0,1-1.219,1.086l-10.653,8.411" transform="translate(-264.315 -83.538)" fill="#f47d20"/>
      <path id="path7160" d="M35.076,7.3v93.9H55.282V46.951L81.741,101.2h23.987V7.3H85.522V61.43L58.9,7.3Z" transform="translate(0 -387.151)" fill="#f47d20"/>
      <path id="path7162" d="M278.49-326.553v24.471h12.974q8.221,0,12.139-3.148t3.918-9.633q0-11.689-16.7-11.69H278.49Zm0-15.8h11.561q8.092,0,11.721-2.505t3.629-8.285q0-5.395-3.95-7.739t-12.492-2.345H278.49v20.874ZM258.58-379.54H287.8q19.974,0,29,5.684t9.024,18.08q0,8.415-3.95,13.809a15.777,15.777,0,0,1-10.5,6.487v.642q8.926,1.991,12.877,7.45t3.95,14.515q0,12.846-9.28,20.038t-25.21,7.194H258.58v-93.9" transform="translate(-142.897 -0.308)" fill="#f47d20"/>
      <path id="path7164" d="M634.368-312.612q0,12.394-9.152,19.528t-25.466,7.136q-15.029,0-26.59-5.508v-18.026a111.3,111.3,0,0,0,16.089,5.821,48.757,48.757,0,0,0,12.043,1.69q6.55,0,10.051-2.441a8.272,8.272,0,0,0,3.5-7.26,7.876,7.876,0,0,0-1.541-4.788,17.109,17.109,0,0,0-4.528-4.037,117.691,117.691,0,0,0-12.171-6.2q-8.608-3.944-12.91-7.574a28.525,28.525,0,0,1-6.872-8.45,23.6,23.6,0,0,1-2.569-11.266q0-12.143,8.446-19.09t23.346-6.948a38.876,38.876,0,0,1,12.137,1.907,115.769,115.769,0,0,1,12.131,3.764l.254,18.41a52.309,52.309,0,0,0-14.778-7.013c-3.405-1.063-7.218-.919-10.386-.919q-5.653,0-8.671,2.566a8.369,8.369,0,0,0-3.019,6.7,8.12,8.12,0,0,0,1.221,4.475,13.243,13.243,0,0,0,3.886,3.693,121.016,121.016,0,0,0,12.62,6.415q13.165,6.135,18.048,12.3a23.6,23.6,0,0,1,4.881,15.116" transform="translate(-344.022)" fill="#f47d20"/>
      <path id="path7166" d="M45.928-80.723H44.085L36.492-92.958h-.076q.152,2.153.152,3.948v8.286H35.076V-95.3H36.9l7.574,12.185h.076q-.019-.269-.086-1.73t-.048-2.089V-95.3h1.511v14.578" transform="translate(0 -182.035)" fill="#85be42"/>
      <path id="path7168" d="M78.873-86.992l-1.616-4.517q-.314-.858-.646-2.1a19.583,19.583,0,0,1-.6,2.1l-1.635,4.517Zm2.233,6.162-1.73-4.637H73.808L72.1-80.829H70.463l5.493-14.638h1.359l5.464,14.638H81.106" transform="translate(-22.624 -181.929)" fill="#85be42"/>
      <path id="path7170" d="M111.1-80.723h-1.616V-93.8h-4.4V-95.3H115.5V-93.8h-4.4v13.072" transform="translate(-44.761 -182.035)" fill="#85be42"/>
      <path id="path7172" d="M139.761-80.723h1.616V-95.3h-1.616v14.578Z" transform="translate(-66.93 -182.035)" fill="#85be42"/>
      <path id="path7174" d="M154.515-88.439a7.163,7.163,0,0,0,1.2,4.492,4.175,4.175,0,0,0,3.492,1.531,4.135,4.135,0,0,0,3.487-1.526,7.265,7.265,0,0,0,1.179-4.5A7.209,7.209,0,0,0,162.7-92.9a4.118,4.118,0,0,0-3.473-1.521,4.2,4.2,0,0,0-3.511,1.531A7.088,7.088,0,0,0,154.515-88.439Zm11.071,0a8.287,8.287,0,0,1-1.687,5.5,5.8,5.8,0,0,1-4.69,2,5.865,5.865,0,0,1-4.737-1.969,8.355,8.355,0,0,1-1.668-5.559,8.25,8.25,0,0,1,1.672-5.519,5.906,5.906,0,0,1,4.751-1.96,5.787,5.787,0,0,1,4.675,1.994,8.278,8.278,0,0,1,1.682,5.5" transform="translate(-75.269 -181.629)" fill="#85be42"/>
      <path id="path7176" d="M207.686-80.723h-1.843L198.25-92.958h-.076q.152,2.153.153,3.948v8.286h-1.492V-95.3h1.824l7.574,12.185h.076q-.019-.269-.086-1.73t-.047-2.089V-95.3h1.511v14.578" transform="translate(-103.419 -182.035)" fill="#85be42"/>
      <path id="path7178" d="M240.631-86.992l-1.616-4.517q-.313-.858-.646-2.1a19.481,19.481,0,0,1-.6,2.1l-1.635,4.517Zm2.233,6.162-1.729-4.637h-5.569l-1.71,4.637H232.22l5.493-14.638h1.359l5.464,14.638h-1.673" transform="translate(-126.044 -181.929)" fill="#85be42"/>
      <path id="path7180" d="M271.666-80.723V-95.3h1.615v13.042h6.129v1.536h-7.745" transform="translate(-151.263 -182.035)" fill="#85be42"/>
      <path id="path7182" d="M313.308-87.623v5.454h2.9a3.983,3.983,0,0,0,2.532-.683,2.579,2.579,0,0,0,.851-2.139,2.31,2.31,0,0,0-.87-1.995,4.479,4.479,0,0,0-2.647-.637Zm0-1.436h2.661a4.167,4.167,0,0,0,2.461-.564,2.224,2.224,0,0,0,.751-1.9,1.951,1.951,0,0,0-.837-1.769,5.018,5.018,0,0,0-2.661-.544h-2.376ZM311.693-95.3h3.925a7.12,7.12,0,0,1,4,.868,3.117,3.117,0,0,1,1.235,2.742,3.268,3.268,0,0,1-.689,2.139,3.27,3.27,0,0,1-2.01,1.092v.1q3.164.568,3.164,3.49a3.833,3.833,0,0,1-1.259,3.051,5.188,5.188,0,0,1-3.521,1.1h-4.846V-95.3" transform="translate(-176.854 -182.035)" fill="#85be42"/>
      <path id="path7184" d="M346.657-80.723h1.616V-95.3h-1.616v14.578Z" transform="translate(-199.209 -182.035)" fill="#85be42"/>
      <path id="path7186" d="M361.411-88.439a7.163,7.163,0,0,0,1.2,4.492,4.175,4.175,0,0,0,3.492,1.531,4.135,4.135,0,0,0,3.487-1.526,7.268,7.268,0,0,0,1.178-4.5A7.212,7.212,0,0,0,369.6-92.9a4.119,4.119,0,0,0-3.474-1.521,4.2,4.2,0,0,0-3.511,1.531A7.088,7.088,0,0,0,361.411-88.439Zm11.071,0a8.287,8.287,0,0,1-1.687,5.5,5.8,5.8,0,0,1-4.69,2,5.865,5.865,0,0,1-4.737-1.969,8.355,8.355,0,0,1-1.668-5.559,8.25,8.25,0,0,1,1.673-5.519,5.906,5.906,0,0,1,4.751-1.96,5.788,5.788,0,0,1,4.676,1.994,8.28,8.28,0,0,1,1.682,5.5" transform="translate(-207.547 -181.629)" fill="#85be42"/>
      <path id="path7188" d="M403.729-80.723h1.616V-95.3h-1.616v14.578Z" transform="translate(-235.697 -182.035)" fill="#85be42"/>
      <path id="path7190" d="M429.627-80.723h-1.844L420.19-92.958h-.076q.152,2.153.152,3.948v8.286h-1.492V-95.3H420.6l7.574,12.185h.076q-.019-.269-.086-1.73t-.047-2.089V-95.3h1.511v14.578" transform="translate(-245.316 -182.035)" fill="#85be42"/>
      <path id="path7192" d="M461.074-80.723h-1.616V-95.3H467.2V-93.8h-6.129v5.334h5.759v1.505h-5.759v6.232" transform="translate(-271.328 -182.035)" fill="#85be42"/>
      <path id="path7194" d="M487.018-88.439a7.166,7.166,0,0,0,1.2,4.492,4.176,4.176,0,0,0,3.492,1.531,4.134,4.134,0,0,0,3.487-1.526,7.265,7.265,0,0,0,1.179-4.5A7.209,7.209,0,0,0,495.2-92.9a4.118,4.118,0,0,0-3.473-1.521,4.2,4.2,0,0,0-3.512,1.531A7.09,7.09,0,0,0,487.018-88.439Zm11.071,0a8.287,8.287,0,0,1-1.686,5.5,5.8,5.8,0,0,1-4.69,2,5.864,5.864,0,0,1-4.737-1.969,8.355,8.355,0,0,1-1.668-5.559,8.25,8.25,0,0,1,1.673-5.519,5.906,5.906,0,0,1,4.751-1.96,5.787,5.787,0,0,1,4.675,1.994,8.278,8.278,0,0,1,1.682,5.5" transform="translate(-287.854 -181.629)" fill="#85be42"/>
      <path id="path7196" d="M530.952-88.241h2.214a3.694,3.694,0,0,0,2.509-.713,2.718,2.718,0,0,0,.8-2.139,2.49,2.49,0,0,0-.812-2.084,4.24,4.24,0,0,0-2.608-.638h-2.1Zm0,1.456v6.063h-1.616V-95.3h3.811a5.789,5.789,0,0,1,3.777,1.027,3.812,3.812,0,0,1,1.221,3.091,3.852,3.852,0,0,1-2.794,3.909l3.773,6.551h-1.911l-3.364-6.063h-2.9" transform="translate(-316.003 -182.035)" fill="#85be42"/>
      <path id="path7198" d="M568.843-80.723,564.13-93.646h-.076q.133,1.536.133,3.649v9.273h-1.492V-95.3h2.433l4.4,12.025h.076L574.041-95.3h2.414v14.578h-1.615v-9.393q0-1.616.133-3.509H574.9l-4.751,12.9h-1.3" transform="translate(-337.331 -182.035)" fill="#85be42"/>
      <path id="path7200" d="M614.528-86.992l-1.615-4.517q-.313-.858-.646-2.1a19.569,19.569,0,0,1-.6,2.1l-1.635,4.517Zm2.233,6.162-1.729-4.637h-5.569l-1.71,4.637h-1.635l5.493-14.638h1.359l5.464,14.638h-1.673" transform="translate(-365.094 -181.929)" fill="#85be42"/>
      <path id="path7202" d="M644.756-80.723h-1.615V-93.8h-4.4V-95.3h10.416V-93.8h-4.4v13.072" transform="translate(-385.951 -182.035)" fill="#85be42"/>
      <path id="path7204" d="M675.415-80.723h1.616V-95.3h-1.616v14.578Z" transform="translate(-409.399 -182.035)" fill="#85be42"/>
      <path id="path7206" d="M693.13-94.366a4.445,4.445,0,0,0-3.615,1.6,6.665,6.665,0,0,0-1.326,4.382,6.806,6.806,0,0,0,1.278,4.422,4.445,4.445,0,0,0,3.645,1.56,11.9,11.9,0,0,0,3.316-.548v1.485a9.772,9.772,0,0,1-3.563.568,5.887,5.887,0,0,1-4.737-1.954,8.312,8.312,0,0,1-1.667-5.554,9.135,9.135,0,0,1,.8-3.949,5.944,5.944,0,0,1,2.318-2.612,6.759,6.759,0,0,1,3.569-.918,8.268,8.268,0,0,1,3.82.838l-.684,1.456a7.081,7.081,0,0,0-3.155-.778" transform="translate(-416.46 -181.665)" fill="#85be42"/>
      <path id="path7208" d="M727.377-84.973a3.646,3.646,0,0,1-1.33,3,5.577,5.577,0,0,1-3.611,1.077,8.666,8.666,0,0,1-3.8-.668V-83.2a9.628,9.628,0,0,0,1.863.6,9.34,9.34,0,0,0,2,.22,3.883,3.883,0,0,0,2.433-.643,2.15,2.15,0,0,0,.817-1.79,2.386,2.386,0,0,0-.29-1.242,2.733,2.733,0,0,0-.969-.892,13.167,13.167,0,0,0-2.067-.927,6.548,6.548,0,0,1-2.77-1.725,3.925,3.925,0,0,1-.832-2.6,3.3,3.3,0,0,1,1.207-2.683,4.855,4.855,0,0,1,3.193-1,9.03,9.03,0,0,1,3.811.8l-.5,1.476a8.271,8.271,0,0,0-3.344-.758,3.131,3.131,0,0,0-2.006.578,1.941,1.941,0,0,0-.722,1.606,2.556,2.556,0,0,0,.266,1.241,2.559,2.559,0,0,0,.9.888,10.833,10.833,0,0,0,1.934.892,7.582,7.582,0,0,1,3.008,1.755,3.556,3.556,0,0,1,.822,2.433" transform="translate(-437.031 -181.665)" fill="#85be42"/>
      <path id="path7210" d="M35.076-26.4h1.709V-40.974H35.076Z" transform="translate(0 -216.77)" fill="#85be42"/>
      <path id="path7212" d="M62.475-26.4h-1.95L52.491-38.63h-.08q.161,2.153.161,3.949V-26.4H50.994V-40.974h1.93l8.013,12.185h.081q-.02-.269-.091-1.73t-.05-2.089v-8.366h1.6V-26.4" transform="translate(-10.177 -216.77)" fill="#85be42"/>
      <path id="path7214" d="M95.744-26.4H94.035V-40.974h8.194v1.506H95.744v5.335h6.093v1.505H95.744V-26.4" transform="translate(-37.695 -216.77)" fill="#85be42"/>
      <path id="path7216" d="M125.209-33.914h2.343a4.07,4.07,0,0,0,2.654-.713,2.641,2.641,0,0,0,.844-2.139,2.424,2.424,0,0,0-.859-2.084,4.687,4.687,0,0,0-2.76-.638h-2.222Zm0,1.456V-26.4H123.5V-40.974h4.031a6.385,6.385,0,0,1,4,1.027,3.709,3.709,0,0,1,1.292,3.091,3.876,3.876,0,0,1-2.956,3.909l3.991,6.551h-2.02l-3.559-6.063h-3.066" transform="translate(-56.534 -216.77)" fill="#85be42"/>
      <path id="path7218" d="M162.086-32.665l-1.709-4.517q-.332-.858-.684-2.1a18.79,18.79,0,0,1-.633,2.1l-1.73,4.517Zm2.363,6.162-1.83-4.636h-5.891l-1.81,4.636h-1.729L159-41.14h1.438L166.218-26.5h-1.77" transform="translate(-75.515 -216.663)" fill="#85be42"/>
      <path id="path7220" d="M201.52-30.647a3.564,3.564,0,0,1-1.408,3,6.139,6.139,0,0,1-3.82,1.077,9.629,9.629,0,0,1-4.021-.669v-1.635a10.611,10.611,0,0,0,1.97.6,10.442,10.442,0,0,0,2.111.219,4.285,4.285,0,0,0,2.574-.643,2.1,2.1,0,0,0,.865-1.79,2.287,2.287,0,0,0-.306-1.242,2.848,2.848,0,0,0-1.026-.892,14.428,14.428,0,0,0-2.186-.927,6.984,6.984,0,0,1-2.93-1.725,3.788,3.788,0,0,1-.88-2.6,3.227,3.227,0,0,1,1.277-2.682,5.335,5.335,0,0,1,3.378-1,10.031,10.031,0,0,1,4.032.8l-.533,1.475a9.183,9.183,0,0,0-3.539-.758,3.447,3.447,0,0,0-2.121.578,1.9,1.9,0,0,0-.764,1.605,2.435,2.435,0,0,0,.282,1.241,2.637,2.637,0,0,0,.95.888,11.84,11.84,0,0,0,2.046.892,8.125,8.125,0,0,1,3.182,1.754,3.437,3.437,0,0,1,.87,2.433" transform="translate(-100.502 -216.398)" fill="#85be42"/>
      <path id="path7222" d="M227.516-26.4h-1.709V-39.468h-4.655v-1.506h11.019v1.506h-4.655V-26.4" transform="translate(-118.967 -216.77)" fill="#85be42"/>
      <path id="path7224" d="M259.545-33.914h2.343a4.069,4.069,0,0,0,2.654-.713,2.64,2.64,0,0,0,.845-2.139,2.424,2.424,0,0,0-.86-2.084,4.686,4.686,0,0,0-2.76-.638h-2.222Zm0,1.456V-26.4h-1.709V-40.974h4.032a6.384,6.384,0,0,1,4,1.027,3.709,3.709,0,0,1,1.292,3.091,3.876,3.876,0,0,1-2.956,3.909l3.991,6.551H266.17l-3.559-6.063h-3.066" transform="translate(-142.421 -216.77)" fill="#85be42"/>
      <path id="path7226" d="M303.96-40.974v9.433a5.117,5.117,0,0,1-1.518,3.919,5.853,5.853,0,0,1-4.172,1.426,5.592,5.592,0,0,1-4.107-1.436,5.3,5.3,0,0,1-1.453-3.949v-9.392h1.709v9.512a3.728,3.728,0,0,0,1.005,2.8,4.075,4.075,0,0,0,2.955.977,3.932,3.932,0,0,0,2.865-.982,3.763,3.763,0,0,0,1.005-2.817v-9.492h1.709" transform="translate(-164.717 -216.77)" fill="#85be42"/>
      <path id="path7228" d="M339.631-40.039a4.825,4.825,0,0,0-3.826,1.6,6.421,6.421,0,0,0-1.4,4.382,6.545,6.545,0,0,0,1.352,4.422,4.825,4.825,0,0,0,3.855,1.56,13.243,13.243,0,0,0,3.509-.548v1.486a10.893,10.893,0,0,1-3.77.568,6.4,6.4,0,0,1-5.011-1.955,8,8,0,0,1-1.765-5.554,8.7,8.7,0,0,1,.85-3.948,6.069,6.069,0,0,1,2.453-2.612,7.479,7.479,0,0,1,3.775-.917,9.169,9.169,0,0,1,4.041.838l-.724,1.456a7.846,7.846,0,0,0-3.338-.778" transform="translate(-190.204 -216.398)" fill="#85be42"/>
      <path id="path7230" d="M371.97-26.4h-1.709V-39.468h-4.655v-1.506h11.019v1.506H371.97V-26.4" transform="translate(-211.323 -216.77)" fill="#85be42"/>
      <path id="path7232" d="M413.123-40.974v9.433a5.117,5.117,0,0,1-1.518,3.919,5.853,5.853,0,0,1-4.172,1.426,5.591,5.591,0,0,1-4.107-1.436,5.3,5.3,0,0,1-1.453-3.949v-9.392h1.709v9.512a3.728,3.728,0,0,0,1.005,2.8,4.075,4.075,0,0,0,2.956.977,3.932,3.932,0,0,0,2.865-.982,3.763,3.763,0,0,0,1.005-2.817v-9.492h1.709" transform="translate(-234.511 -216.77)" fill="#85be42"/>
      <path id="path7234" d="M445.564-33.914h2.342a4.068,4.068,0,0,0,2.654-.713,2.64,2.64,0,0,0,.845-2.139,2.425,2.425,0,0,0-.859-2.084,4.687,4.687,0,0,0-2.76-.638h-2.221v5.574Zm0,1.456V-26.4h-1.71V-40.974h4.031a6.385,6.385,0,0,1,4,1.027,3.709,3.709,0,0,1,1.292,3.091,3.876,3.876,0,0,1-2.956,3.909L454.21-26.4h-2.021l-3.559-6.063h-3.066" transform="translate(-261.351 -216.77)" fill="#85be42"/>
      <path id="path7236" d="M487.339-26.4h-8.194V-40.974h8.194v1.506h-6.484v4.7h6.092v1.5h-6.092v5.364h6.484V-26.4" transform="translate(-283.915 -216.77)" fill="#85be42"/>
      <path id="path7238" d="M532.329-30.647a3.565,3.565,0,0,1-1.407,3,6.141,6.141,0,0,1-3.821,1.077,9.632,9.632,0,0,1-4.021-.669v-1.635a10.626,10.626,0,0,0,1.971.6,10.442,10.442,0,0,0,2.111.219,4.286,4.286,0,0,0,2.574-.643,2.1,2.1,0,0,0,.865-1.79,2.286,2.286,0,0,0-.307-1.242,2.833,2.833,0,0,0-1.025-.892,14.428,14.428,0,0,0-2.186-.927,6.991,6.991,0,0,1-2.931-1.725,3.79,3.79,0,0,1-.88-2.6,3.228,3.228,0,0,1,1.276-2.682,5.336,5.336,0,0,1,3.379-1,10.03,10.03,0,0,1,4.031.8l-.533,1.475a9.181,9.181,0,0,0-3.539-.758,3.446,3.446,0,0,0-2.121.578A1.9,1.9,0,0,0,525-37.856a2.444,2.444,0,0,0,.281,1.241,2.643,2.643,0,0,0,.95.888,11.837,11.837,0,0,0,2.046.892,8.122,8.122,0,0,1,3.182,1.754,3.437,3.437,0,0,1,.87,2.433" transform="translate(-312.003 -216.398)" fill="#85be42"/>
      <path id="path7240" d="M566.788-26.4H565.1l-2.965-9.762q-.212-.648-.473-1.635a9.336,9.336,0,0,1-.271-1.187,22.591,22.591,0,0,1-.7,2.882l-2.875,9.7h-1.689l-3.911-14.578h1.81l2.322,9a33.224,33.224,0,0,1,.7,3.43,24.61,24.61,0,0,1,.8-3.569l2.634-8.864h1.81l2.765,8.944a26.941,26.941,0,0,1,.815,3.49,29.631,29.631,0,0,1,.724-3.45l2.312-8.984h1.81L566.788-26.4" transform="translate(-330.629 -216.77)" fill="#85be42"/>
      <path id="path7242" d="M618.108-26.4h-8.194V-40.974h8.194v1.506h-6.485v4.7h6.093v1.5h-6.093v5.364h6.485V-26.4" transform="translate(-367.521 -216.77)" fill="#85be42"/>
      <path id="path7244" d="M651.588-33.765a5.842,5.842,0,0,0-1.442-4.3,5.812,5.812,0,0,0-4.288-1.445h-2.483v11.646h2.081a6.36,6.36,0,0,0,4.595-1.491A5.873,5.873,0,0,0,651.588-33.765Zm1.81-.06a7.322,7.322,0,0,1-1.975,5.519,7.856,7.856,0,0,1-5.685,1.91h-4.072V-40.974h4.5a7.239,7.239,0,0,1,5.328,1.884,7.084,7.084,0,0,1,1.9,5.264" transform="translate(-387.82 -216.77)" fill="#85be42"/>
      <path id="path7246" d="M687.478-26.4h-8.194V-40.974h8.194v1.506h-6.485v4.7h6.093v1.5h-6.093v5.364h6.485V-26.4" transform="translate(-411.872 -216.77)" fill="#85be42"/>
      <path id="path7248" d="M722.52-26.4H720.57L712.537-38.63h-.08q.161,2.153.161,3.949V-26.4h-1.579V-40.974h1.93l8.013,12.185h.08q-.021-.269-.09-1.73t-.05-2.089v-8.366h1.6V-26.4" transform="translate(-432.175 -216.77)" fill="#85be42"/>
    </g>
  </g>
</svg>
