<svg xmlns="http://www.w3.org/2000/svg" xmlns:xlink="http://www.w3.org/1999/xlink" width="600" height="300" viewBox="0 0 600 300"><defs><clipPath id="clip-Logo"><path d="M0 0h600v300H0z"/></clipPath></defs><g id="Logo" clip-path="url(#clip-Logo)"><path fill="#e8eff3" d="M0 0h600v300H0z"/><g id="g7130" transform="translate(137.188 461.505)"><path id="path7134" fill="#8f3b1b" d="M450.9-367.98a2.3 2.3 0 0 0-2-1.24h-1.84a1.24 1.24 0 0 0-1.11 1.8l3.06 6.11 2.8 4.77a30 30 0 0 0 8.73 9.44l18.22 12.75a23 23 0 0 1 6.2 6.5l5.95 9.56.87-7.7-4.79-8.55a18 18 0 0 0-5.63-6.09l-19.74-13.18-1.91-1.74a35 35 0 0 1-7.53-9.91z" transform="translate(-262.602 -6.907)"/><path id="path7136" fill="#8f3b1b" d="m468.03-202.12-6.59-6-3.95-9.7.14-3.71-1.92 6.64 1.04 4.06a19 19 0 0 0 8.04 11.21l17.24 11.22a10.4 10.4 0 0 0 5.7 1.7h.71a1.75 1.75 0 0 0 .87-3.27z" transform="translate(-268.93 -101.331)"/><path id="path7138" fill="#8f3b1b" d="m547.8-352.57.08.14a2.7 2.7 0 0 1 .2 2.07l-.75 2.42a.94.94 0 0 1-1.64.3l-9.85-12.67a2 2 0 0 1 1.68-3.23l3.06.16a2.7 2.7 0 0 1 2.23 1.42z" transform="translate(-319.884 -10.537)"/><path id="path7140" fill="#85be42" d="M491.93-358.62a1.39 1.39 0 0 1-1.37 2.03l-14.43-1.5h-.29l-16.18 1.66a1.4 1.4 0 0 1-1.39-.78l-1.7-3.57a1.39 1.39 0 0 1 1.52-1.96l17.34 3.4a1 1 0 0 0 .42.01l13.53-1.5a1.9 1.9 0 0 1 1.92 1.02z" transform="translate(-269.391 -11.035)"/><path id="path7142" fill="#85be42" d="M510.8-329.83a1.4 1.4 0 0 1 .2.59 1.4 1.4 0 0 1-1.53 1.5l-12-1.24h-.26l-15.32 1.26a1.4 1.4 0 0 1-1.06-.36l-1.35-1.24a1.39 1.39 0 0 1 1.06-2.4l16.35 1.45a1 1 0 0 0 .43-.03l10.06-2.3a2.2 2.2 0 0 1 2.35 1z" transform="translate(-283.843 -30.285)"/><path id="path7144" fill="#85be42" d="m514.4-302.35 8.28 1.38a1.4 1.4 0 0 0 .7-.07l3.4-1.23a1.39 1.39 0 0 1 1.78 1.76l-.07.2a1.4 1.4 0 0 1-1.42.92l-3.74-.3a1.4 1.4 0 0 0-.57.08l-4.4 1.56a1.4 1.4 0 0 1-1.44-.34l-3-3.03a.55.55 0 0 1 .49-.93" transform="translate(-306.048 -49.652)"/><path id="path7146" fill="#85be42" d="M464.75-191.86a1.4 1.4 0 0 0 1.58.93l8.6-1.66.33-.03 6.37.35a1.4 1.4 0 0 0 1.31-.76l.23-.44a1.39 1.39 0 0 0-1.57-1.98l-6.24 1.56a1.4 1.4 0 0 1-.54.02l-9.92-1.47a.85.85 0 0 0-.93 1.1z" transform="translate(-274.185 -117.98)"/><path id="path7148" fill="#85be42" d="m523.32-272.09-2.15 1.05a1.4 1.4 0 0 1-.62.14l-8.81-.12a1.4 1.4 0 0 0-1.37 1.06l-.48 2.02a1.39 1.39 0 0 0 1.81 1.62l9.2-3.22a1.4 1.4 0 0 1 .72-.05l2.25.43a1.39 1.39 0 0 0 1.43-2.1l-.2-.32a1.4 1.4 0 0 0-1.77-.5" transform="translate(-303.549 -68.919)"/><path id="path7150" fill="#85be42" d="M510.44-246.93a1.4 1.4 0 0 1-1.35 1.87l-10.98-.38-.32.02-17.9 3.52a1.39 1.39 0 0 1-1.43-2.13l2.36-3.58a1.4 1.4 0 0 1 1.31-.61l15.61 1.72a1 1 0 0 0 .41-.02l10.46-1.97a1.4 1.4 0 0 1 1.58.9z" transform="translate(-283.328 -84.075)"/><path id="path7152" fill="#85be42" d="M486.36-144.88a1.39 1.39 0 0 1-.91 2.52l-9.52-.69-.34.02-10.39 1.46a1.39 1.39 0 0 1-1.37-2.1l1.21-1.98a1.4 1.4 0 0 1 1.54-.62l8.85 2.34a1.4 1.4 0 0 0 .68 0l8.56-1.45a2 2 0 0 1 1.44.32z" transform="translate(-273.987 -149.42)"/><path id="path7154" fill="#85be42" d="m493.55-225.6-2.67 5.34a1.4 1.4 0 0 1-1.38.76l-14.52-1.54a1 1 0 0 0-.36 0l-14.13 2.27a1.39 1.39 0 0 1-1.42-2.07l.83-1.44a1.4 1.4 0 0 1 1.3-.69l13.43.87a1 1 0 0 0 .34-.03z" transform="translate(-270.957 -98.735)"/><path id="path7156" fill="#f47d20" d="m494.24-324.47 3-4.57-.17 6.85a3.4 3.4 0 0 1-.71 2.02l-3.11 4.02a38 38 0 0 1-8 7.68l-18.47 13.12a19 19 0 0 0-3.14 2.82s-6.37 6.46-7.93 8.9c.24-1.26.3-1.95.3-1.95a23 23 0 0 1 4.65-10.61l1.53-1.96a20 20 0 0 1 4.26-4.02l18.11-12.53a28 28 0 0 0 4-3.36l2.64-2.66a24 24 0 0 0 3.03-3.75" transform="translate(-268.93 -32.598)"/><path id="path7158" fill="#f47d20" d="m477.51-234.1-12.15 8.42a37 37 0 0 0-9.9 10.18l-6.85 10.54a.7.7 0 0 0 .59 1.1h3.2a2.3 2.3 0 0 0 1.93-1.1l1.65-2.77a41 41 0 0 1 11.54-12.5l12.53-8.9a71 71 0 0 0 9.57-8.18l2.06-2.1a5.5 5.5 0 0 0 1.57-3.67l.24-6.28-.02.03a17 17 0 0 1-3.57 5.23l-.51.51a14 14 0 0 1-1.22 1.09z" transform="translate(-264.315 -83.538)"/><path id="path7160" fill="#f47d20" d="M35.08 7.3v93.9h20.2V46.95l26.46 54.25h23.99V7.3h-20.2v54.13L58.9 7.3Z" transform="translate(0 -387.151)"/><path id="path7162" fill="#f47d20" d="M278.49-326.55v24.47h12.97q8.23 0 12.14-3.15t3.92-9.63q0-11.7-16.7-11.7zm0-15.8h11.56q8.1 0 11.72-2.5t3.63-8.3q0-5.39-3.95-7.73t-12.5-2.35H278.5zm-19.91-37.19h29.22q19.97 0 29 5.68t9.02 18.08q0 8.42-3.95 13.81a15.8 15.8 0 0 1-10.5 6.49v.64q8.93 2 12.88 7.45t3.95 14.52q0 12.84-9.28 20.04t-25.2 7.19h-35.14z" transform="translate(-142.897 -.308)"/><path id="path7164" fill="#f47d20" d="M634.37-312.61q0 12.4-9.15 19.53t-25.47 7.13q-15.03 0-26.59-5.5v-18.03a111 111 0 0 0 16.09 5.82 49 49 0 0 0 12.04 1.69q6.55 0 10.05-2.44a8.3 8.3 0 0 0 3.5-7.26 8 8 0 0 0-1.54-4.79 17 17 0 0 0-4.53-4.04 118 118 0 0 0-12.17-6.2q-8.6-3.94-12.9-7.57a29 29 0 0 1-6.88-8.45 23.6 23.6 0 0 1-2.57-11.27q0-12.14 8.45-19.09t23.34-6.94a39 39 0 0 1 12.14 1.9 116 116 0 0 1 12.13 3.77l.26 18.4a52 52 0 0 0-14.78-7c-3.4-1.07-7.22-.93-10.39-.93q-5.65 0-8.67 2.57a8.4 8.4 0 0 0-3.02 6.7 8 8 0 0 0 1.22 4.48 13 13 0 0 0 3.89 3.69 121 121 0 0 0 12.62 6.41q13.16 6.14 18.05 12.3a23.6 23.6 0 0 1 4.88 15.12" transform="translate(-344.022)"/><path id="path7166" fill="#85be42" d="M45.93-80.72h-1.84l-7.6-12.24h-.07q.15 2.15.15 3.95v8.29h-1.5V-95.3h1.83l7.57 12.19h.08l-.09-1.73q-.07-1.46-.04-2.1v-8.36h1.5z" transform="translate(0 -182.035)"/><path id="path7168" fill="#85be42" d="m78.87-87-1.61-4.5q-.32-.87-.65-2.1a20 20 0 0 1-.6 2.1L74.38-87Zm2.24 6.17-1.73-4.64H73.8l-1.71 4.64h-1.64l5.5-14.64h1.35l5.47 14.64z" transform="translate(-22.624 -181.929)"/><path id="path7170" fill="#85be42" d="M111.1-80.72h-1.62V-93.8h-4.4v-1.5h10.42v1.5h-4.4z" transform="translate(-44.761 -182.035)"/><path id="path7172" fill="#85be42" d="M139.76-80.72h1.62V-95.3h-1.62z" transform="translate(-66.93 -182.035)"/><path id="path7174" fill="#85be42" d="M154.51-88.44a7 7 0 0 0 1.2 4.5 4.2 4.2 0 0 0 3.5 1.52 4.1 4.1 0 0 0 3.48-1.52 7.3 7.3 0 0 0 1.18-4.5 7.2 7.2 0 0 0-1.17-4.46 4.1 4.1 0 0 0-3.47-1.52 4.2 4.2 0 0 0-3.51 1.53 7 7 0 0 0-1.2 4.45m11.08 0a8.3 8.3 0 0 1-1.7 5.5 5.8 5.8 0 0 1-4.68 2 5.9 5.9 0 0 1-4.74-1.97 8.4 8.4 0 0 1-1.67-5.56 8.3 8.3 0 0 1 1.68-5.52 5.9 5.9 0 0 1 4.75-1.96 5.8 5.8 0 0 1 4.67 2 8.3 8.3 0 0 1 1.68 5.5" transform="translate(-75.269 -181.629)"/><path id="path7176" fill="#85be42" d="M207.69-80.72h-1.85l-7.59-12.24h-.08q.16 2.15.16 3.95v8.29h-1.5V-95.3h1.83l7.57 12.19h.08l-.09-1.73q-.07-1.46-.04-2.1v-8.36h1.5z" transform="translate(-103.419 -182.035)"/><path id="path7178" fill="#85be42" d="m240.63-87-1.61-4.5q-.32-.87-.65-2.1a20 20 0 0 1-.6 2.1l-1.64 4.5Zm2.23 6.17-1.73-4.64h-5.56l-1.71 4.64h-1.64l5.5-14.64h1.35l5.47 14.64z" transform="translate(-126.044 -181.929)"/><path id="path7180" fill="#85be42" d="M271.67-80.72V-95.3h1.61v13.04h6.13v1.54z" transform="translate(-151.263 -182.035)"/><path id="path7182" fill="#85be42" d="M313.3-87.62v5.45h2.9a4 4 0 0 0 2.54-.68 2.6 2.6 0 0 0 .85-2.14 2.3 2.3 0 0 0-.87-2 4.5 4.5 0 0 0-2.65-.63Zm0-1.44h2.67a4 4 0 0 0 2.46-.56 2.2 2.2 0 0 0 .75-1.9 2 2 0 0 0-.84-1.77 5 5 0 0 0-2.66-.55h-2.37Zm-1.6-6.24h3.92a7 7 0 0 1 4 .87 3.1 3.1 0 0 1 1.23 2.74 3.3 3.3 0 0 1-.69 2.14 3.3 3.3 0 0 1-2 1.1v.1q3.16.56 3.16 3.48a3.8 3.8 0 0 1-1.26 3.05 5.2 5.2 0 0 1-3.52 1.1h-4.85z" transform="translate(-176.854 -182.035)"/><path id="path7184" fill="#85be42" d="M346.66-80.72h1.61V-95.3h-1.61z" transform="translate(-199.209 -182.035)"/><path id="path7186" fill="#85be42" d="M361.41-88.44a7 7 0 0 0 1.2 4.5 4.2 4.2 0 0 0 3.5 1.52 4.1 4.1 0 0 0 3.48-1.52 7.3 7.3 0 0 0 1.18-4.5 7.2 7.2 0 0 0-1.17-4.46 4.1 4.1 0 0 0-3.47-1.52 4.2 4.2 0 0 0-3.51 1.53 7 7 0 0 0-1.2 4.45m11.07 0a8.3 8.3 0 0 1-1.68 5.5 5.8 5.8 0 0 1-4.7 2 5.9 5.9 0 0 1-4.73-1.97 8.4 8.4 0 0 1-1.67-5.56 8.3 8.3 0 0 1 1.67-5.52 5.9 5.9 0 0 1 4.75-1.96 5.8 5.8 0 0 1 4.68 2 8.3 8.3 0 0 1 1.68 5.5" transform="translate(-207.547 -181.629)"/><path id="path7188" fill="#85be42" d="M403.73-80.72h1.61V-95.3h-1.61z" transform="translate(-235.697 -182.035)"/><path id="path7190" fill="#85be42" d="M429.63-80.72h-1.85l-7.59-12.24h-.08q.16 2.15.16 3.95v8.29h-1.5V-95.3h1.83l7.57 12.19h.08l-.09-1.73q-.07-1.46-.04-2.1v-8.36h1.5z" transform="translate(-245.316 -182.035)"/><path id="path7192" fill="#85be42" d="M461.07-80.72h-1.61V-95.3h7.74v1.5h-6.13v5.33h5.76v1.5h-5.76z" transform="translate(-271.328 -182.035)"/><path id="path7194" fill="#85be42" d="M487.02-88.44a7.2 7.2 0 0 0 1.2 4.5 4.2 4.2 0 0 0 3.49 1.52 4.1 4.1 0 0 0 3.49-1.52 7.3 7.3 0 0 0 1.18-4.5 7.2 7.2 0 0 0-1.18-4.46 4.1 4.1 0 0 0-3.47-1.52 4.2 4.2 0 0 0-3.52 1.53 7 7 0 0 0-1.2 4.45m11.07 0a8.3 8.3 0 0 1-1.69 5.5 5.8 5.8 0 0 1-4.69 2 5.9 5.9 0 0 1-4.73-1.97 8.4 8.4 0 0 1-1.67-5.56 8.3 8.3 0 0 1 1.67-5.52 5.9 5.9 0 0 1 4.75-1.96 5.8 5.8 0 0 1 4.68 2 8.3 8.3 0 0 1 1.68 5.5" transform="translate(-287.854 -181.629)"/><path id="path7196" fill="#85be42" d="M530.95-88.24h2.22a3.7 3.7 0 0 0 2.5-.71 2.7 2.7 0 0 0 .8-2.14 2.5 2.5 0 0 0-.8-2.09 4.2 4.2 0 0 0-2.61-.63h-2.1Zm0 1.45v6.07h-1.61V-95.3h3.8a5.8 5.8 0 0 1 3.78 1.03 3.8 3.8 0 0 1 1.23 3.09 3.85 3.85 0 0 1-2.8 3.9l3.77 6.56h-1.9l-3.37-6.06z" transform="translate(-316.003 -182.035)"/><path id="path7198" fill="#85be42" d="m568.84-80.72-4.71-12.93h-.08q.14 1.54.14 3.65v9.28h-1.5V-95.3h2.44l4.4 12.03h.07l4.44-12.03h2.42v14.58h-1.62v-9.4q0-1.61.13-3.5h-.07l-4.75 12.9z" transform="translate(-337.331 -182.035)"/><path id="path7200" fill="#85be42" d="m614.53-87-1.62-4.5q-.31-.87-.64-2.1a20 20 0 0 1-.6 2.1l-1.64 4.5Zm2.23 6.17-1.73-4.64h-5.57l-1.7 4.64h-1.64l5.5-14.64h1.35l5.46 14.64z" transform="translate(-365.094 -181.929)"/><path id="path7202" fill="#85be42" d="M644.76-80.72h-1.62V-93.8h-4.4v-1.5h10.42v1.5h-4.4z" transform="translate(-385.951 -182.035)"/><path id="path7204" fill="#85be42" d="M675.42-80.72h1.61V-95.3h-1.62z" transform="translate(-409.399 -182.035)"/><path id="path7206" fill="#85be42" d="M693.13-94.37a4.5 4.5 0 0 0-3.61 1.6 6.7 6.7 0 0 0-1.33 4.39 6.8 6.8 0 0 0 1.28 4.42 4.5 4.5 0 0 0 3.64 1.56 12 12 0 0 0 3.32-.55v1.49a10 10 0 0 1-3.56.56 5.9 5.9 0 0 1-4.74-1.95 8.3 8.3 0 0 1-1.67-5.56 9 9 0 0 1 .8-3.94 6 6 0 0 1 2.32-2.62 7 7 0 0 1 3.57-.91 8 8 0 0 1 3.82.83l-.69 1.46a7 7 0 0 0-3.15-.78" transform="translate(-416.46 -181.665)"/><path id="path7208" fill="#85be42" d="M727.38-84.97a3.7 3.7 0 0 1-1.33 3 5.6 5.6 0 0 1-3.61 1.07 9 9 0 0 1-3.8-.66v-1.64a10 10 0 0 0 1.86.6 9 9 0 0 0 2 .22 4 4 0 0 0 2.43-.64 2.2 2.2 0 0 0 .82-1.8 2.4 2.4 0 0 0-.3-1.24 3 3 0 0 0-.96-.89 13 13 0 0 0-2.07-.92 6.6 6.6 0 0 1-2.77-1.73 4 4 0 0 1-.83-2.6 3.3 3.3 0 0 1 1.2-2.68 5 5 0 0 1 3.2-1 9 9 0 0 1 3.81.8l-.5 1.47a8 8 0 0 0-3.34-.75 3 3 0 0 0-2 .57 2 2 0 0 0-.73 1.61 2.6 2.6 0 0 0 .27 1.24 2.6 2.6 0 0 0 .9.89 11 11 0 0 0 1.93.9 7.6 7.6 0 0 1 3 1.75 3.6 3.6 0 0 1 .83 2.43" transform="translate(-437.031 -181.665)"/><path id="path7210" fill="#85be42" d="M35.08-26.4h1.7v-14.57h-1.7Z" transform="translate(0 -216.77)"/><path id="path7212" fill="#85be42" d="M62.48-26.4h-1.95l-8.04-12.23h-.08q.16 2.15.16 3.95v8.28H51v-14.57h1.93l8.02 12.18h.08l-.1-1.73q-.07-1.46-.04-2.09v-8.36h1.6z" transform="translate(-10.177 -216.77)"/><path id="path7214" fill="#85be42" d="M95.74-26.4h-1.7v-14.57h8.19v1.5h-6.49v5.34h6.1v1.5h-6.1z" transform="translate(-37.695 -216.77)"/><path id="path7216" fill="#85be42" d="M125.2-33.91h2.35a4 4 0 0 0 2.66-.72 2.6 2.6 0 0 0 .84-2.14 2.4 2.4 0 0 0-.86-2.08 4.7 4.7 0 0 0-2.76-.64h-2.22Zm0 1.45v6.06h-1.7v-14.57h4.03a6.4 6.4 0 0 1 4 1.02 3.7 3.7 0 0 1 1.3 3.1 3.9 3.9 0 0 1-2.96 3.9l3.99 6.55h-2.02l-3.56-6.06h-3.07" transform="translate(-56.534 -216.77)"/><path id="path7218" fill="#85be42" d="m162.09-32.66-1.71-4.52q-.33-.86-.69-2.1a19 19 0 0 1-.63 2.1l-1.73 4.51Zm2.36 6.16-1.83-4.64h-5.9l-1.8 4.64h-1.73L159-41.14h1.44l5.78 14.64z" transform="translate(-75.515 -216.663)"/><path id="path7220" fill="#85be42" d="M201.52-30.65a3.6 3.6 0 0 1-1.4 3 6 6 0 0 1-3.83 1.08 10 10 0 0 1-4.02-.67v-1.63a11 11 0 0 0 1.97.6 10 10 0 0 0 2.11.21 4.3 4.3 0 0 0 2.58-.64 2.1 2.1 0 0 0 .86-1.79 2.3 2.3 0 0 0-.3-1.24 3 3 0 0 0-1.03-.9 14 14 0 0 0-2.19-.92 7 7 0 0 1-2.93-1.72 3.8 3.8 0 0 1-.88-2.6 3.2 3.2 0 0 1 1.28-2.69 5.3 5.3 0 0 1 3.38-1 10 10 0 0 1 4.03.8l-.53 1.48a9 9 0 0 0-3.54-.76 3.5 3.5 0 0 0-2.12.58 1.9 1.9 0 0 0-.77 1.6 2.4 2.4 0 0 0 .29 1.24 2.6 2.6 0 0 0 .95.9 12 12 0 0 0 2.04.88 8 8 0 0 1 3.18 1.76 3.4 3.4 0 0 1 .87 2.43" transform="translate(-100.502 -216.398)"/><path id="path7222" fill="#85be42" d="M227.52-26.4h-1.71v-13.07h-4.66v-1.5h11.02v1.5h-4.65z" transform="translate(-118.967 -216.77)"/><path id="path7224" fill="#85be42" d="M259.55-33.91h2.34a4 4 0 0 0 2.65-.72 2.6 2.6 0 0 0 .85-2.14 2.4 2.4 0 0 0-.86-2.08 4.7 4.7 0 0 0-2.76-.64h-2.22Zm0 1.45v6.06h-1.71v-14.57h4.03a6.4 6.4 0 0 1 4 1.02 3.7 3.7 0 0 1 1.29 3.1 3.9 3.9 0 0 1-2.96 3.9l4 6.55h-2.03l-3.56-6.06z" transform="translate(-142.421 -216.77)"/><path id="path7226" fill="#85be42" d="M303.96-40.97v9.43a5 5 0 0 1-1.52 3.92 6 6 0 0 1-4.17 1.42 5.6 5.6 0 0 1-4.1-1.43 5.3 5.3 0 0 1-1.46-3.95v-9.4h1.7v9.52a3.7 3.7 0 0 0 1.01 2.8 4 4 0 0 0 2.96.98 4 4 0 0 0 2.86-.99 3.8 3.8 0 0 0 1-2.81v-9.5z" transform="translate(-164.717 -216.77)"/><path id="path7228" fill="#85be42" d="M339.63-40.04a4.8 4.8 0 0 0-3.83 1.6 6.4 6.4 0 0 0-1.4 4.38 6.6 6.6 0 0 0 1.36 4.43 4.8 4.8 0 0 0 3.85 1.55 13 13 0 0 0 3.51-.54v1.48a11 11 0 0 1-3.77.57 6.4 6.4 0 0 1-5.01-1.95 8 8 0 0 1-1.76-5.56 9 9 0 0 1 .85-3.95 6 6 0 0 1 2.45-2.6 7.5 7.5 0 0 1 3.77-.93 9 9 0 0 1 4.04.84l-.72 1.46a8 8 0 0 0-3.34-.78" transform="translate(-190.204 -216.398)"/><path id="path7230" fill="#85be42" d="M371.97-26.4h-1.7v-13.07h-4.66v-1.5h11.02v1.5h-4.66z" transform="translate(-211.323 -216.77)"/><path id="path7232" fill="#85be42" d="M413.12-40.97v9.43a5 5 0 0 1-1.52 3.92 6 6 0 0 1-4.17 1.42 5.6 5.6 0 0 1-4.1-1.43 5.3 5.3 0 0 1-1.46-3.95v-9.4h1.71v9.52a3.7 3.7 0 0 0 1 2.8 4 4 0 0 0 2.96.98 4 4 0 0 0 2.87-.99 3.8 3.8 0 0 0 1-2.81v-9.5z" transform="translate(-234.511 -216.77)"/><path id="path7234" fill="#85be42" d="M445.56-33.91h2.35a4 4 0 0 0 2.65-.72 2.6 2.6 0 0 0 .85-2.14 2.4 2.4 0 0 0-.86-2.08 4.7 4.7 0 0 0-2.76-.64h-2.22zm0 1.45v6.06h-1.7v-14.57h4.03a6.4 6.4 0 0 1 4 1.02 3.7 3.7 0 0 1 1.29 3.1 3.9 3.9 0 0 1-2.96 3.9l3.99 6.55h-2.02l-3.56-6.06z" transform="translate(-261.351 -216.77)"/><path id="path7236" fill="#85be42" d="M487.34-26.4h-8.2v-14.57h8.2v1.5h-6.48v4.7h6.09v1.5h-6.1v5.37h6.49z" transform="translate(-283.915 -216.77)"/><path id="path7238" fill="#85be42" d="M532.33-30.65a3.6 3.6 0 0 1-1.4 3 6 6 0 0 1-3.83 1.08 10 10 0 0 1-4.02-.67v-1.63a11 11 0 0 0 1.97.6 10 10 0 0 0 2.11.21 4.3 4.3 0 0 0 2.58-.64 2.1 2.1 0 0 0 .86-1.79 2.3 2.3 0 0 0-.3-1.24 3 3 0 0 0-1.03-.9 14 14 0 0 0-2.19-.92 7 7 0 0 1-2.93-1.72 3.8 3.8 0 0 1-.88-2.6 3.2 3.2 0 0 1 1.28-2.69 5.3 5.3 0 0 1 3.38-1 10 10 0 0 1 4.03.8l-.54 1.48a9 9 0 0 0-3.53-.76 3.5 3.5 0 0 0-2.13.58 1.9 1.9 0 0 0-.76 1.6 2.4 2.4 0 0 0 .28 1.24 2.6 2.6 0 0 0 .95.9 12 12 0 0 0 2.05.88 8 8 0 0 1 3.18 1.76 3.4 3.4 0 0 1 .87 2.43" transform="translate(-312.003 -216.398)"/><path id="path7240" fill="#85be42" d="M566.79-26.4h-1.69l-2.96-9.76q-.22-.65-.48-1.64a9 9 0 0 1-.27-1.18 23 23 0 0 1-.7 2.88l-2.87 9.7h-1.7l-3.9-14.58h1.8l2.33 9a33 33 0 0 1 .7 3.43 25 25 0 0 1 .8-3.57l2.63-8.86h1.81l2.77 8.94a27 27 0 0 1 .81 3.5 30 30 0 0 1 .73-3.46l2.3-8.98h1.82z" transform="translate(-330.629 -216.77)"/><path id="path7242" fill="#85be42" d="M618.1-26.4h-8.19v-14.57h8.2v1.5h-6.49v4.7h6.1v1.5h-6.1v5.37h6.49z" transform="translate(-367.521 -216.77)"/><path id="path7244" fill="#85be42" d="M651.59-33.76a5.8 5.8 0 0 0-1.44-4.3 5.8 5.8 0 0 0-4.3-1.45h-2.48v11.65h2.09a6.4 6.4 0 0 0 4.6-1.5 6 6 0 0 0 1.53-4.4m1.8-.07a7.3 7.3 0 0 1-1.97 5.52 8 8 0 0 1-5.68 1.91h-4.07v-14.57h4.5a7.2 7.2 0 0 1 5.32 1.88 7 7 0 0 1 1.9 5.26" transform="translate(-387.82 -216.77)"/><path id="path7246" fill="#85be42" d="M687.48-26.4h-8.2v-14.57h8.2v1.5h-6.49v4.7h6.1v1.5h-6.1v5.37h6.49z" transform="translate(-411.872 -216.77)"/><path id="path7248" fill="#85be42" d="M722.52-26.4h-1.95l-8.03-12.23h-.08q.16 2.15.16 3.95v8.28h-1.58v-14.57h1.93l8.01 12.18h.08l-.09-1.73q-.07-1.46-.05-2.09v-8.36h1.6z" transform="translate(-432.175 -216.77)"/></g></g></svg>