<svg xmlns="http://www.w3.org/2000/svg" xmlns:xlink="http://www.w3.org/1999/xlink" width="600" height="300" viewBox="0 0 600 300">
  <defs>
    <clipPath id="clip-Logo">
      <rect width="600" height="300"/>
    </clipPath>
  </defs>
  <g id="Logo" clip-path="url(#clip-Logo)">
    <rect width="600" height="300" fill="#e8eff3"/>
    <g id="layer1" transform="translate(-91.844 12.36)">
      <g id="g97" transform="translate(276.844 171.764)">
        <path id="path99" d="M0,0H4.2L14.34,22.2h.078V0h3.234V26.9h-4.2L3.318,4.857H3.24V26.9H0Z" fill="#257d9c"/>
      </g>
      <g id="g101" transform="translate(237.394 2.77)">
        <g id="g109" transform="translate(62.236 175.956)">
          <path id="path111" d="M1.5,1.394A10.449,10.449,0,0,1,7.042-.226a7.507,7.507,0,0,1,5.247,1.848c.85.853,1.7,2.047,1.7,4.819V16.693c0,1.154.078,2.311.152,3.009H11.207l-.192-2.662h-.076a5.939,5.939,0,0,1-5.512,2.928c-3.242,0-5.669-1.888-5.669-5.664,0-3.817,2.513-6.628,9.248-6.628H10.9V6.79a4.825,4.825,0,0,0-.731-3.161A4.005,4.005,0,0,0,6.89,2.391,6.962,6.962,0,0,0,1.843,4.436Zm9.4,8.666a20.49,20.49,0,0,0-2.273-.073C4.809,9.986,3,11.8,3,14.076,3,16.157,4.078,17.5,6.313,17.5c2.814,0,4.586-2.273,4.586-4.973Z" transform="translate(0.242 0.226)" fill="#257d9c"/>
        </g>
        <g id="g113" transform="translate(79.353 171.254)">
          <path id="path115" d="M8.956,20.992a8.875,8.875,0,0,1-2.736.5c-2.966,0-4.548-1.195-4.548-4.667V4.19H-1.451V1.576H1.672V-2.438L4.909-3.4V1.576H8.956V4.19H4.909v11.6c0,2.237.58,3.083,2.042,3.083a4.712,4.712,0,0,0,2-.5Z" transform="translate(1.451 3.4)" fill="#257d9c"/>
        </g>
        <g id="g117" transform="translate(93.995 176.23)">
          <path id="path119" d="M11.942,13.265c0,1.425.114,2.85.157,4.242H8.976L8.86,14.576H8.781a5.05,5.05,0,0,1-4.968,3.2c-3.437,0-5.748-1.961-5.748-6.279V-2.148h3.24V10.529C1.305,13.649,2.462,15,4.54,15c2.546,0,4.168-1.777,4.168-5.317V-2.148h3.234Z" transform="translate(1.934 2.148)" fill="#257d9c"/>
        </g>
        <g id="g121" transform="translate(113.19 175.958)">
          <path id="path123" d="M.135,3.879c0-1.425-.116-2.852-.157-4.237H3.1l.116,3.083h.078C4.334.336,5.994-.628,8.882-.628v3.2a6.45,6.45,0,0,0-1.233-.114c-2.508,0-4.277,2.156-4.277,6.436V19.3H.135Z" transform="translate(0.022 0.628)" fill="#257d9c"/>
        </g>
        <g id="g125" transform="translate(125.525 166.98)">
          <path id="path127" d="M0,0H3.237V11.948h.078A5.335,5.335,0,0,1,8.129,8.977c3.434,0,5.748,1.964,5.748,6.279V28.905H10.635V16.22c0-3.121-1.154-4.47-3.24-4.47-2.541,0-4.158,1.769-4.158,5.32V28.905H0Z" fill="#257d9c"/>
        </g>
        <path id="path129" d="M185.738-267.82h3.232v19.655h-3.232Z" transform="translate(-40.555 444.05)" fill="#257d9c"/>
        <g id="g131" transform="translate(153.16 175.956)">
          <path id="path133" d="M.161,13.864a8.972,8.972,0,0,0,4.632,1.463c2.468,0,3.738-1.268,3.738-2.774,0-1.349-.691-2.27-2.5-3.083L3.869,8.506C1.057,7.235.009,5.965.009,3.457c0-3.24,2.506-5.7,6.322-5.7a12,12,0,0,1,4.166.693L10.34,1.222A9.482,9.482,0,0,0,6.486.371c-2.118,0-3.24,1.157-3.24,2.7C3.246,4.654,4.4,5.54,6.567,6.39l1.152.458c2.394.964,3.892,2.587,3.892,5.009,0,3.391-1.81,6.092-6.32,6.092A11.7,11.7,0,0,1-.026,16.792Z" transform="translate(0.026 2.245)" fill="#257d9c"/>
        </g>
        <g id="g135" transform="translate(167.498 171.254)">
          <path id="path137" d="M8.956,20.992a8.875,8.875,0,0,1-2.736.5c-2.966,0-4.548-1.195-4.548-4.667V4.19H-1.451V1.576H1.672V-2.438L4.9-3.4V1.576H8.956V4.19H4.9v11.6c0,2.237.582,3.083,2.045,3.083a4.733,4.733,0,0,0,2.007-.5Z" transform="translate(1.451 3.4)" fill="#257d9c"/>
        </g>
        <g id="g139" transform="translate(180.444 175.957)">
          <path id="path141" d="M6.8,0c5.206,0,7.906,3.93,7.906,10.1s-2.7,10.1-7.906,10.1-7.9-3.93-7.9-10.1S1.6,0,6.8,0m0,17.572c3.085,0,4.507-2.541,4.507-7.476S9.887,2.614,6.8,2.614,2.295,5.163,2.295,10.1,3.72,17.572,6.8,17.572" transform="translate(1.102)" fill="#257d9c"/>
        </g>
        <g id="g143" transform="translate(200.604 175.958)">
          <path id="path145" d="M.135,3.879c0-1.425-.114-2.852-.157-4.237H3.1l.114,3.083h.076C4.334.336,6-.628,8.884-.628v3.2a6.5,6.5,0,0,0-1.235-.114c-2.506,0-4.277,2.156-4.277,6.436V19.3H.135Z" transform="translate(0.022 0.628)" fill="#257d9c"/>
        </g>
        <path id="path147" d="M195.226-267.82h3.232v19.655h-3.232Z" transform="translate(18.025 444.05)" fill="#257d9c"/>
        <g id="g149" transform="translate(221.228 175.956)">
          <path id="path151" d="M.161,13.864a8.961,8.961,0,0,0,4.624,1.463c2.47,0,3.746-1.268,3.746-2.774,0-1.349-.7-2.27-2.508-3.083L3.864,8.506C1.055,7.235.012,5.965.012,3.457c0-3.24,2.5-5.7,6.322-5.7a11.992,11.992,0,0,1,4.158.693l-.154,2.774A9.521,9.521,0,0,0,6.483.371c-2.113,0-3.237,1.157-3.237,2.7,0,1.587,1.159,2.473,3.315,3.323l1.159.458c2.389.964,3.89,2.587,3.89,5.009,0,3.391-1.817,6.092-6.322,6.092A11.69,11.69,0,0,1-.026,16.792Z" transform="translate(0.026 2.245)" fill="#257d9c"/>
        </g>
        <g id="g153" transform="translate(237.3 166.981)">
          <path id="path155" d="M8.586,7.959h3.781L4.653,16.741l8.41,10.873H9.054L1.925,17.705H1.849v9.908h-3.24v-28.9h3.24V15.858Z" transform="translate(1.391 1.289)" fill="#257d9c"/>
        </g>
        <g id="g157" transform="translate(254.217 175.956)">
          <path id="path159" d="M1.49,1.394A10.5,10.5,0,0,1,7.045-.226a7.466,7.466,0,0,1,5.239,1.848c.853.853,1.7,2.047,1.7,4.819V16.693a29.4,29.4,0,0,0,.154,3.009H11.211l-.192-2.662H10.94a5.94,5.94,0,0,1-5.515,2.928c-3.237,0-5.667-1.888-5.667-5.664,0-3.817,2.511-6.628,9.25-6.628h1.886V6.79a4.855,4.855,0,0,0-.726-3.161A4.008,4.008,0,0,0,6.891,2.391,6.987,6.987,0,0,0,1.839,4.436Zm9.4,8.666a20.466,20.466,0,0,0-2.273-.073C4.808,9.986,3,11.8,3,14.076,3,16.157,4.079,17.5,6.314,17.5c2.812,0,4.581-2.273,4.581-4.973Z" transform="translate(0.241 0.226)" fill="#257d9c"/>
        </g>
        <g id="g161" transform="translate(39.565 214.487)">
          <path id="path163" d="M.135,3.886c0-1.425-.116-2.852-.157-4.242H3.1L3.22,2.727H3.3C4.336.337,6-.629,8.887-.629v3.2a6.491,6.491,0,0,0-1.233-.111c-2.5,0-4.28,2.159-4.28,6.439V19.3H.135Z" transform="translate(0.022 0.629)" fill="#257d9c"/>
        </g>
        <path id="path165" d="M172.779-262.45h3.237v19.66h-3.237Z" transform="translate(-120.567 477.209)" fill="#257d9c"/>
        <g id="g167" transform="translate(61.23 205.51)">
          <path id="path169" d="M8.59,7.961h3.776l-7.709,8.79,8.405,10.87H9.056L1.927,17.715H1.846v9.906H-1.391V-1.289H1.846V15.862Z" transform="translate(1.391 1.289)" fill="#257d9c"/>
        </g>
        <g id="g171" transform="translate(78.071 214.485)">
          <path id="path173" d="M.163,13.872a8.974,8.974,0,0,0,4.629,1.46c2.465,0,3.741-1.268,3.741-2.771,0-1.354-.693-2.275-2.506-3.085L3.869,8.517C1.054,7.246.012,5.971.012,3.463c0-3.237,2.508-5.71,6.327-5.71a11.833,11.833,0,0,1,4.158.7l-.154,2.774A9.565,9.565,0,0,0,6.488.383c-2.121,0-3.237,1.154-3.237,2.7,0,1.577,1.154,2.47,3.31,3.315l1.162.463c2.389.964,3.89,2.579,3.89,5.011,0,3.391-1.81,6.089-6.317,6.089A11.7,11.7,0,0,1-.026,16.8Z" transform="translate(0.026 2.247)" fill="#257d9c"/>
        </g>
        <g id="g175" transform="translate(94.396 214.487)">
          <path id="path177" d="M.133,3.886c0-1.425-.116-2.852-.154-4.242H3.1l.114,2.928H3.3a5.006,5.006,0,0,1,4.854-3.2,4.961,4.961,0,0,1,4.621,3.09,5.193,5.193,0,0,1,4.781-3.09c3.394,0,5.707,1.972,5.707,6.287V19.3H20.026V5.814c0-2.508-1.083-3.662-3.012-3.662-2.387,0-3.7,1.463-3.7,5.011V19.3H10.077V5.814C10.077,3.306,9,2.152,7.07,2.152c-2.384,0-3.7,1.463-3.7,5.011V19.3H.133Z" transform="translate(0.022 0.629)" fill="#257d9c"/>
        </g>
        <g id="g179" transform="translate(122.334 214.762)">
          <path id="path181" d="M11.94,13.267c0,1.425.116,2.852.157,4.244H8.977l-.119-2.928H8.782a5.058,5.058,0,0,1-4.973,3.2c-3.429,0-5.743-1.969-5.743-6.279V-2.149H1.3V10.536c0,3.118,1.159,4.47,3.24,4.47,2.546,0,4.161-1.777,4.161-5.322V-2.149H11.94Z" transform="translate(1.934 2.149)" fill="#257d9c"/>
        </g>
        <g id="g183" transform="translate(140.646 214.485)">
          <path id="path185" d="M.163,13.872a8.943,8.943,0,0,0,4.624,1.46c2.468,0,3.736-1.268,3.736-2.771,0-1.354-.691-2.275-2.5-3.085L3.866,8.517C1.052,7.246.006,5.971.006,3.463c0-3.237,2.513-5.71,6.325-5.71a11.863,11.863,0,0,1,4.163.7l-.157,2.774A9.555,9.555,0,0,0,6.483.383c-2.121,0-3.237,1.154-3.237,2.7,0,1.577,1.159,2.47,3.313,3.315l1.159.463c2.392.964,3.887,2.579,3.887,5.011,0,3.391-1.8,6.089-6.317,6.089A11.672,11.672,0,0,1-.026,16.8Z" transform="translate(0.026 2.247)" fill="#257d9c"/>
        </g>
        <g id="g187" transform="translate(155.751 214.488)">
          <path id="path189" d="M2.916,9.523c0,4.551,1.777,6.671,5.358,6.671a8.389,8.389,0,0,0,4.51-1.62l.165,2.926a13.215,13.215,0,0,1-5.517,1.162c-5.206,0-7.9-3.933-7.9-10.106s2.7-10.1,7.593-10.1c4.432,0,6.9,3.551,6.9,9.331V9.523Zm7.871-2.468c0-4.082-1.273-6.127-3.86-6.127C4.85.928,3,2.469,2.916,7.055Z" transform="translate(0.472 1.542)" fill="#257d9c"/>
        </g>
        <g id="g191" transform="translate(173.634 214.488)">
          <path id="path193" d="M2.921,9.523c0,4.551,1.774,6.671,5.36,6.671a8.419,8.419,0,0,0,4.507-1.62l.157,2.926a13.208,13.208,0,0,1-5.512,1.162c-5.206,0-7.906-3.933-7.906-10.106s2.7-10.1,7.6-10.1c4.432,0,6.894,3.551,6.894,9.331V9.523Zm7.863-2.468c0-4.082-1.27-6.127-3.852-6.127C4.847.928,3,2.469,2.921,7.055Z" transform="translate(0.473 1.542)" fill="#257d9c"/>
        </g>
        <g id="g195" transform="translate(190.75 209.791)">
          <path id="path197" d="M8.952,20.992a9.04,9.04,0,0,1-2.733.506c-2.966,0-4.548-1.195-4.548-4.672V4.193H-1.45V1.571H1.671v-4L4.908-3.4V1.571H8.952V4.193H4.908V15.8c0,2.237.577,3.078,2.042,3.078a4.635,4.635,0,0,0,2-.5Z" transform="translate(1.45 3.4)" fill="#257d9c"/>
        </g>
        <g id="g199" transform="translate(145.031 168.399)">
          <path id="path201" d="M3.078,1.538A1.788,1.788,0,1,1,1.286-.249,1.787,1.787,0,0,1,3.078,1.538" transform="translate(0.498 0.249)" fill="#257d9c"/>
        </g>
        <g id="g203" transform="translate(213.064 168.399)">
          <path id="path205" d="M3.073,1.538A1.786,1.786,0,1,1,1.281-.249,1.787,1.787,0,0,1,3.073,1.538" transform="translate(0.498 0.249)" fill="#257d9c"/>
        </g>
        <g id="g207" transform="translate(52.038 206.859)">
          <path id="path209" d="M3.078,1.54A1.788,1.788,0,1,1,1.288-.249,1.789,1.789,0,0,1,3.078,1.54" transform="translate(0.498 0.249)" fill="#257d9c"/>
        </g>
        <g id="g211" transform="translate(137.37 35.87)">
          <path id="path213" d="M0,0V26.6H26.589A26.678,26.678,0,0,0,0,0" fill="#82ab28"/>
        </g>
        <g id="g215" transform="translate(72.246 89.077)">
          <path id="path217" d="M22.9,0V26.6A26.672,26.672,0,0,1-3.709,53.2V26.6A26.681,26.681,0,0,1,22.9,0" transform="translate(3.709 0)" fill="#82ab28"/>
        </g>
        <g id="g219" transform="translate(104.809 35.87)">
          <path id="path221" d="M22.892,0V26.6a26.687,26.687,0,0,1-26.6,26.6V26.6A26.68,26.68,0,0,1,22.892,0" transform="translate(3.708)" fill="#257d9c"/>
        </g>
        <g id="g223" transform="translate(72.247 35.87)">
          <path id="path225" d="M0,0V26.6a26.685,26.685,0,0,0,26.607,26.6V26.6A26.683,26.683,0,0,0,0,0" transform="translate(0)" fill="#82ab28"/>
        </g>
        <g id="g227" transform="translate(39.686 35.87)">
          <path id="path229" d="M22.9,0V26.6a26.692,26.692,0,0,1-26.607,26.6V26.6A26.69,26.69,0,0,1,22.9,0" transform="translate(3.709)" fill="#257d9c"/>
        </g>
        <g id="g231" transform="translate(104.81 89.077)">
          <path id="path233" d="M0,0V26.6A26.668,26.668,0,0,0,26.6,53.2V26.6A26.683,26.683,0,0,0,0,0" transform="translate(0 0)" fill="#257d9c"/>
        </g>
        <g id="g235" transform="translate(137.37 89.077)">
          <path id="path237" d="M22.883,0V26.6A26.666,26.666,0,0,1-3.706,53.2V26.6A26.676,26.676,0,0,1,22.883,0" transform="translate(3.706 0)" fill="#82ab28"/>
        </g>
        <g id="g239" transform="translate(169.926 89.077)">
          <path id="path241" d="M0,0V26.6A26.671,26.671,0,0,0,26.6,53.2V26.6A26.676,26.676,0,0,0,0,0" transform="translate(0 0)" fill="#257d9c"/>
        </g>
      </g>
    </g>
  </g>
</svg>
