<svg xmlns="http://www.w3.org/2000/svg" xmlns:xlink="http://www.w3.org/1999/xlink" width="600" height="300" viewBox="0 0 600 300"><defs><clipPath id="clip-Logo"><path d="M0 0h600v300H0z"/></clipPath></defs><g id="Logo" clip-path="url(#clip-Logo)"><path fill="#e8eff3" d="M0 0h600v300H0z"/><g id="layer1" transform="translate(-91.844 12.36)"><g id="g97" transform="translate(276.844 171.764)"><path id="path99" fill="#257d9c" d="M0 0h4.2l10.14 22.2h.08V0h3.23v26.9h-4.2L3.32 4.86h-.08V26.9H0Z"/></g><g id="g101" transform="translate(237.394 2.77)"><g id="g109" transform="translate(62.236 175.956)"><path id="path111" fill="#257d9c" d="M1.5 1.4A10.5 10.5 0 0 1 7.04-.24a7.5 7.5 0 0 1 5.25 1.85c.85.86 1.7 2.05 1.7 4.82V16.7c0 1.16.08 2.31.15 3.01h-2.93l-.2-2.66h-.07a5.9 5.9 0 0 1-5.51 2.93c-3.24 0-5.67-1.89-5.67-5.67 0-3.81 2.51-6.62 9.25-6.62h1.89V6.8a4.8 4.8 0 0 0-.73-3.16A4 4 0 0 0 6.89 2.4a7 7 0 0 0-5.05 2.05Zm9.4 8.66a21 21 0 0 0-2.27-.07C4.8 9.99 3 11.8 3 14.08c0 2.08 1.08 3.42 3.31 3.42 2.82 0 4.59-2.27 4.59-4.97Z" transform="translate(.242 .226)"/></g><g id="g113" transform="translate(79.353 171.254)"><path id="path115" fill="#257d9c" d="M8.96 21a9 9 0 0 1-2.74.5c-2.97 0-4.55-1.2-4.55-4.67V4.19h-3.12V1.58h3.12v-4.02l3.24-.96v4.98h4.05v2.61H4.9v11.6c0 2.24.58 3.08 2.04 3.08a5 5 0 0 0 2-.5Z" transform="translate(1.451 3.4)"/></g><g id="g117" transform="translate(93.995 176.23)"><path id="path119" fill="#257d9c" d="M11.94 13.27c0 1.42.12 2.85.16 4.24H8.98l-.12-2.93h-.08a5.05 5.05 0 0 1-4.97 3.2c-3.43 0-5.74-1.97-5.74-6.28V-2.15H1.3v12.68C1.3 13.65 2.46 15 4.54 15c2.55 0 4.17-1.78 4.17-5.32V-2.15h3.23Z" transform="translate(1.934 2.148)"/></g><g id="g121" transform="translate(113.19 175.958)"><path id="path123" fill="#257d9c" d="M.14 3.88c0-1.43-.12-2.85-.16-4.24H3.1l.12 3.09h.07C4.33.33 6-.63 8.9-.63v3.2a7 7 0 0 0-1.24-.11c-2.5 0-4.28 2.15-4.28 6.43V19.3H.13Z" transform="translate(.022 .628)"/></g><g id="g125" transform="translate(125.525 166.98)"><path id="path127" fill="#257d9c" d="M0 0h3.24v11.95h.07a5.3 5.3 0 0 1 4.82-2.97c3.43 0 5.75 1.96 5.75 6.28V28.9h-3.25V16.22c0-3.12-1.15-4.47-3.24-4.47-2.54 0-4.15 1.77-4.15 5.32v11.84H0Z"/></g><path id="path129" fill="#257d9c" d="M185.74-267.82h3.23v19.66h-3.23Z" transform="translate(-40.555 444.05)"/><g id="g131" transform="translate(153.16 175.956)"><path id="path133" fill="#257d9c" d="M.16 13.86a9 9 0 0 0 4.63 1.47c2.47 0 3.74-1.27 3.74-2.78 0-1.35-.69-2.27-2.5-3.08l-2.16-.96C1.06 7.24 0 5.97 0 3.46c0-3.24 2.5-5.7 6.32-5.7a12 12 0 0 1 4.17.69l-.16 2.77A9.5 9.5 0 0 0 6.49.37c-2.12 0-3.24 1.16-3.24 2.7 0 1.58 1.15 2.47 3.32 3.32l1.15.46c2.4.96 3.9 2.59 3.9 5 0 3.4-1.82 6.1-6.33 6.1a12 12 0 0 1-5.32-1.16Z" transform="translate(.026 2.245)"/></g><g id="g135" transform="translate(167.498 171.254)"><path id="path137" fill="#257d9c" d="M8.96 21a9 9 0 0 1-2.74.5c-2.97 0-4.55-1.2-4.55-4.67V4.19h-3.12V1.58h3.12v-4.02L4.9-3.4v4.98h4.06v2.61H4.9v11.6c0 2.24.58 3.08 2.05 3.08a5 5 0 0 0 2-.5Z" transform="translate(1.451 3.4)"/></g><g id="g139" transform="translate(180.444 175.957)"><path id="path141" fill="#257d9c" d="M6.8 0c5.2 0 7.9 3.93 7.9 10.1S12 20.2 6.8 20.2s-7.9-3.93-7.9-10.1S1.6 0 6.8 0m0 17.57c3.09 0 4.5-2.54 4.5-7.47S9.9 2.6 6.8 2.6s-4.5 2.56-4.5 7.5 1.42 7.47 4.5 7.47" transform="translate(1.102)"/></g><g id="g143" transform="translate(200.604 175.958)"><path id="path145" fill="#257d9c" d="M.14 3.88c0-1.43-.12-2.85-.16-4.24H3.1l.11 3.09h.08C4.33.33 6-.63 8.89-.63v3.2a7 7 0 0 0-1.24-.11c-2.5 0-4.28 2.15-4.28 6.43V19.3H.13Z" transform="translate(.022 .628)"/></g><path id="path147" fill="#257d9c" d="M195.23-267.82h3.23v19.66h-3.23Z" transform="translate(18.025 444.05)"/><g id="g149" transform="translate(221.228 175.956)"><path id="path151" fill="#257d9c" d="M.16 13.86a9 9 0 0 0 4.63 1.47c2.46 0 3.74-1.27 3.74-2.78 0-1.35-.7-2.27-2.5-3.08l-2.17-.96C1.06 7.24.01 5.97.01 3.46c0-3.24 2.5-5.7 6.32-5.7a12 12 0 0 1 4.16.69l-.15 2.77A9.5 9.5 0 0 0 6.48.37c-2.11 0-3.23 1.16-3.23 2.7 0 1.59 1.15 2.47 3.31 3.32l1.16.46c2.39.97 3.89 2.59 3.89 5.01 0 3.4-1.82 6.1-6.32 6.1a12 12 0 0 1-5.32-1.17Z" transform="translate(.026 2.245)"/></g><g id="g153" transform="translate(237.3 166.981)"><path id="path155" fill="#257d9c" d="M8.59 7.96h3.78l-7.72 8.78 8.41 10.87h-4l-7.14-9.9h-.07v9.9H-1.4v-28.9h3.24v17.15Z" transform="translate(1.391 1.289)"/></g><g id="g157" transform="translate(254.217 175.956)"><path id="path159" fill="#257d9c" d="M1.49 1.4A10.5 10.5 0 0 1 7.05-.24a7.5 7.5 0 0 1 5.23 1.85c.86.86 1.7 2.05 1.7 4.82V16.7a29 29 0 0 0 .16 3.01H11.2l-.2-2.66h-.07a5.9 5.9 0 0 1-5.51 2.93c-3.24 0-5.67-1.89-5.67-5.67 0-3.81 2.5-6.62 9.25-6.62h1.88V6.8a5 5 0 0 0-.72-3.16A4 4 0 0 0 6.88 2.4a7 7 0 0 0-5.05 2.05Zm9.4 8.66a21 21 0 0 0-2.27-.07C4.8 9.99 3 11.8 3 14.08c0 2.08 1.08 3.42 3.31 3.42 2.82 0 4.59-2.27 4.59-4.97Z" transform="translate(.241 .226)"/></g><g id="g161" transform="translate(39.565 214.487)"><path id="path163" fill="#257d9c" d="M.14 3.89c0-1.43-.12-2.86-.16-4.25H3.1l.12 3.09h.08C4.34.33 6-.63 8.89-.63v3.2a7 7 0 0 0-1.24-.11c-2.5 0-4.28 2.16-4.28 6.44v10.4H.13Z" transform="translate(.022 .629)"/></g><path id="path165" fill="#257d9c" d="M172.78-262.45h3.24v19.66h-3.24Z" transform="translate(-120.567 477.209)"/><g id="g167" transform="translate(61.23 205.51)"><path id="path169" fill="#257d9c" d="M8.59 7.96h3.78l-7.71 8.8 8.4 10.86h-4l-7.13-9.9h-.08v9.9H-1.4v-28.9h3.24v17.14Z" transform="translate(1.391 1.289)"/></g><g id="g171" transform="translate(78.071 214.485)"><path id="path173" fill="#257d9c" d="M.16 13.87a9 9 0 0 0 4.63 1.46c2.47 0 3.74-1.27 3.74-2.77 0-1.35-.69-2.27-2.5-3.08l-2.16-.96C1.05 7.25 0 5.97 0 3.46c0-3.23 2.51-5.7 6.33-5.7a12 12 0 0 1 4.16.7l-.16 2.77A10 10 0 0 0 6.5.38c-2.12 0-3.24 1.16-3.24 2.7 0 1.58 1.16 2.47 3.31 3.32l1.16.46c2.4.96 3.9 2.58 3.9 5.01 0 3.4-1.82 6.1-6.32 6.1A12 12 0 0 1-.03 16.8Z" transform="translate(.026 2.247)"/></g><g id="g175" transform="translate(94.396 214.487)"><path id="path177" fill="#257d9c" d="M.13 3.89c0-1.43-.11-2.86-.15-4.25H3.1l.11 2.93h.09a5 5 0 0 1 4.85-3.2 5 5 0 0 1 4.63 3.1 5.2 5.2 0 0 1 4.78-3.1c3.39 0 5.7 1.97 5.7 6.29V19.3h-3.23V5.81c0-2.5-1.09-3.66-3.02-3.66-2.38 0-3.7 1.47-3.7 5.01V19.3h-3.23V5.81c0-2.5-1.08-3.66-3.01-3.66-2.38 0-3.7 1.47-3.7 5.01V19.3H.13Z" transform="translate(.022 .629)"/></g><g id="g179" transform="translate(122.334 214.762)"><path id="path181" fill="#257d9c" d="M11.94 13.27c0 1.42.12 2.85.16 4.24H8.98l-.12-2.93h-.08a5.1 5.1 0 0 1-4.97 3.2c-3.43 0-5.74-1.97-5.74-6.28V-2.15H1.3v12.69C1.3 13.65 2.46 15 4.54 15c2.55 0 4.16-1.78 4.16-5.33V-2.15h3.24Z" transform="translate(1.934 2.149)"/></g><g id="g183" transform="translate(140.646 214.485)"><path id="path185" fill="#257d9c" d="M.16 13.87a9 9 0 0 0 4.63 1.46c2.47 0 3.73-1.27 3.73-2.77 0-1.35-.69-2.27-2.5-3.08l-2.15-.96C1.05 7.25 0 5.97 0 3.46c0-3.23 2.5-5.7 6.32-5.7a12 12 0 0 1 4.16.7l-.15 2.77A10 10 0 0 0 6.48.38c-2.12 0-3.23 1.16-3.23 2.7 0 1.58 1.15 2.47 3.3 3.32l1.17.46c2.39.96 3.88 2.58 3.88 5.01 0 3.4-1.8 6.1-6.31 6.1A12 12 0 0 1-.03 16.8Z" transform="translate(.026 2.247)"/></g><g id="g187" transform="translate(155.751 214.488)"><path id="path189" fill="#257d9c" d="M2.92 9.52c0 4.55 1.77 6.67 5.35 6.67a8.4 8.4 0 0 0 4.51-1.62l.17 2.93a13 13 0 0 1-5.52 1.16c-5.2 0-7.9-3.93-7.9-10.1s2.7-10.1 7.6-10.1c4.43 0 6.9 3.55 6.9 9.33v1.73Zm7.87-2.46q0-6.13-3.86-6.13C4.85.93 3 2.47 2.92 7.06Z" transform="translate(.472 1.542)"/></g><g id="g191" transform="translate(173.634 214.488)"><path id="path193" fill="#257d9c" d="M2.92 9.52c0 4.55 1.78 6.67 5.36 6.67a8.4 8.4 0 0 0 4.5-1.62l.17 2.93a13 13 0 0 1-5.52 1.16c-5.2 0-7.9-3.93-7.9-10.1s2.7-10.1 7.6-10.1c4.43 0 6.9 3.55 6.9 9.33v1.73Zm7.86-2.46Q10.8.92 6.93.92c-2.08 0-3.93 1.54-4 6.13Z" transform="translate(.473 1.542)"/></g><g id="g195" transform="translate(190.75 209.791)"><path id="path197" fill="#257d9c" d="M8.95 21a9 9 0 0 1-2.73.5c-2.97 0-4.55-1.2-4.55-4.67V4.19h-3.12V1.57h3.12v-4l3.24-.97v4.97h4.04V4.2H4.91v11.6c0 2.24.58 3.08 2.04 3.08a5 5 0 0 0 2-.5Z" transform="translate(1.45 3.4)"/></g><g id="g199" transform="translate(145.031 168.399)"><path id="path201" fill="#257d9c" d="M3.08 1.54a1.79 1.79 0 1 1-1.8-1.79 1.8 1.8 0 0 1 1.8 1.79" transform="translate(.498 .249)"/></g><g id="g203" transform="translate(213.064 168.399)"><path id="path205" fill="#257d9c" d="M3.07 1.54A1.79 1.79 0 1 1 1.28-.25a1.8 1.8 0 0 1 1.8 1.79" transform="translate(.498 .249)"/></g><g id="g207" transform="translate(52.038 206.859)"><path id="path209" fill="#257d9c" d="M3.08 1.54a1.79 1.79 0 1 1-1.8-1.79 1.8 1.8 0 0 1 1.8 1.79" transform="translate(.498 .249)"/></g><g id="g211" transform="translate(137.37 35.87)"><path id="path213" fill="#82ab28" d="M0 0v26.6h26.59A26.7 26.7 0 0 0 0 0"/></g><g id="g215" transform="translate(72.246 89.077)"><path id="path217" fill="#82ab28" d="M22.9 0v26.6A26.67 26.67 0 0 1-3.7 53.2V26.6A26.7 26.7 0 0 1 22.9 0" transform="translate(3.709)"/></g><g id="g219" transform="translate(104.809 35.87)"><path id="path221" fill="#257d9c" d="M22.9 0v26.6A26.7 26.7 0 0 1-3.7 53.2V26.6A26.7 26.7 0 0 1 22.9 0" transform="translate(3.708)"/></g><g id="g223" transform="translate(72.247 35.87)"><path id="path225" fill="#82ab28" d="M0 0v26.6a26.7 26.7 0 0 0 26.6 26.6V26.6A26.7 26.7 0 0 0 0 0"/></g><g id="g227" transform="translate(39.686 35.87)"><path id="path229" fill="#257d9c" d="M22.9 0v26.6A26.7 26.7 0 0 1-3.7 53.2V26.6A26.7 26.7 0 0 1 22.9 0" transform="translate(3.709)"/></g><g id="g231" transform="translate(104.81 89.077)"><path id="path233" fill="#257d9c" d="M0 0v26.6a26.67 26.67 0 0 0 26.6 26.6V26.6A26.7 26.7 0 0 0 0 0"/></g><g id="g235" transform="translate(137.37 89.077)"><path id="path237" fill="#82ab28" d="M22.88 0v26.6A26.67 26.67 0 0 1-3.7 53.2V26.6A26.7 26.7 0 0 1 22.9 0" transform="translate(3.706)"/></g><g id="g239" transform="translate(169.926 89.077)"><path id="path241" fill="#257d9c" d="M0 0v26.6a26.67 26.67 0 0 0 26.6 26.6V26.6A26.7 26.7 0 0 0 0 0"/></g></g></g></g></svg>