<svg xmlns="http://www.w3.org/2000/svg" xmlns:xlink="http://www.w3.org/1999/xlink" width="600" height="300" viewBox="0 0 600 300"><defs><clipPath id="clip-Logo"><path d="M0 0h600v300H0z"/></clipPath></defs><g id="Logo" clip-path="url(#clip-Logo)"><path fill="#e8eff3" d="M0 0h600v300H0z"/><g id="svgexport-1_1_" transform="translate(99.24 67.63)"><g id="nla-logo-green" transform="translate(.76 .37)"><g id="Group_51"><path id="Path_638" fill="#5ca361" d="M164.16 163.78H.76V.37h163.4ZM9.42 155.03h146.01V9.09H9.41Z" transform="translate(-.76 -.37)"/><path id="Path_639" fill="#5ca361" d="M22.64 56.98V21h8.52L49.1 44.4V21h8.35v35.98h-8.52L31 33.72v23.26ZM80.16 21h8.37v28.08h19.05v7.8H80.16Zm18.4 59.27 15.21 35.94h-9.15l-2.31-5.9H85.47l-2.3 5.9h-9.2l15.34-35.94ZM88.3 103.1h11.18L93.9 88.9Zm89.38-46.33V28.7h6.6l14 18.17V28.7h6.6v28.08h-6.6l-14-18.17v18.17Zm34.7-28.07h6.6v22.02h14.87v6.1h-21.47Zm45.23 0 11.87 28.09h-7.14l-1.81-4.61h-13.21l-1.8 4.6h-7.19l11.96-28.08zm-8.08 17.84h8.74l-4.38-11.1ZM204.78 72.7v28.08h-6.6V89.65h-14.04v11.1h-6.46V72.67h6.52v11.1h14.12V72.7Zm15.18 7.08a12 12 0 0 1 5.3 1.2l.6-.7h4.77l-2.36 2.92a10.72 10.72 0 0 1-8.26 18.04 12 12 0 0 1-5.25-1.16l-.56.68h-4.78l2.3-2.9a10.4 10.4 0 0 1-2.89-7.32 10.8 10.8 0 0 1 11.14-10.76Zm-4.52 13.45 6.26-7.8a5 5 0 0 0-1.74-.28 5.1 5.1 0 0 0-5.12 5.38 6 6 0 0 0 .6 2.7m9.05-5.39-6.21 7.78a6 6 0 0 0 1.65.25 5.07 5.07 0 0 0 5.17-5.33 6 6 0 0 0-.61-2.7m19.13-8.06a8 8 0 0 1 6.4 2.97v-2.47h6.43v16.71c0 8.68-4.6 11.85-10.75 11.85a17 17 0 0 1-10.46-3.59l3-4.66a12 12 0 0 0 6.9 2.86c3.3 0 4.95-2.08 4.95-5.45v-1a7.9 7.9 0 0 1-6.4 2.92c-5.57 0-9.07-4.33-9.07-10.06s3.43-10.08 9-10.08m1.93 14.6a4.5 4.5 0 1 0-4.62-4.53 4.4 4.4 0 0 0 4.62 4.53m20.96-.28c.4 1.49 1.56 2.53 4.17 2.53 1.85 0 2.92-.52 2.92-1.4 0-1.49-2.93-1.85-4.96-2.33-4.57-1-7.71-2.88-7.71-6.74s3.57-6.38 8.87-6.38 9.47 2.35 9.47 6.74v.2h-5.95c0-1.32-1.19-2.28-3.4-2.28-1.92 0-2.8.71-2.8 1.56 0 1.32 2.3 1.65 4.95 2.24 4.32 1.01 7.86 2.41 7.86 6.6s-3.77 6.38-9.22 6.38c-5.17 0-9.15-1.76-10-5.45zm26.5-.93h-3.3v7.59h-6.41V72.67h6.4v15.11h3.3l4.16-7.53h6.87l-5.61 9.91 6.32 10.5h-7.31Zm23.25-13.4A10.74 10.74 0 1 1 305.04 90a10.74 10.74 0 0 1 11.22-10.23m0 15.81a5.05 5.05 0 1 0-4.95-5.05 4.8 4.8 0 0 0 4.95 5.05m14.67-22.9h6.41v28.09h-6.4Zm30.03 25.6a13 13 0 0 1-8.62 2.95c-7.27 0-11.56-4.95-11.56-10.7a10.57 10.57 0 0 1 10.83-10.75 10.16 10.16 0 0 1 10.5 9.91 11 11 0 0 1-.36 2.61h-14.4a5.04 5.04 0 0 0 5.3 3.68 8 8 0 0 0 5.26-1.96zm-13.64-9.91h8.59a4.1 4.1 0 0 0-4.22-3.57 4.4 4.4 0 0 0-4.37 3.65Zm32.7 1.12c0-3.09-1.76-4.01-3.42-4.01a4.8 4.8 0 0 0-4.6 4.77v10.5h-6.41V80.28h6.4v2.75a7.8 7.8 0 0 1 6.74-3.3c4.37 0 7.67 2.58 7.67 8.84v12.14h-6.38z" transform="translate(13.501 13.077)"/></g></g></g></g></svg>