<svg xmlns="http://www.w3.org/2000/svg" xmlns:xlink="http://www.w3.org/1999/xlink" width="600" height="300" viewBox="0 0 600 300">
  <defs>
    <clipPath id="clip-Logo">
      <rect width="600" height="300"/>
    </clipPath>
  </defs>
  <g id="Logo" clip-path="url(#clip-Logo)">
    <rect width="600" height="300" fill="#e8eff3"/>
    <g id="svgexport-1_1_" data-name="svgexport-1 (1)" transform="translate(99.24 67.63)">
      <g id="nla-logo-green" transform="translate(0.76 0.37)">
        <g id="Group_51" data-name="Group 51">
          <path id="Path_638" data-name="Path 638" d="M164.156,163.782H.76V.37h163.4ZM9.415,155.028H155.434V9.091H9.415Z" transform="translate(-0.76 -0.37)" fill="#5ca361"/>
          <path id="Path_639" data-name="Path 639" d="M22.64,56.976V21h8.523L49.085,44.406V21h8.358V56.976H48.92L31,33.719V56.976ZM80.156,21H88.53V49.081h19.045v7.8H80.156Zm18.4,59.266L113.77,116.21h-9.151l-2.313-5.9H85.474l-2.313,5.9H73.978L89.307,80.266ZM88.3,103.111H99.482L93.9,88.889Zm89.379-46.333V28.7h6.607l13.991,18.17V28.7h6.607V56.778h-6.607l-13.991-18.17v18.17Zm34.7-28.064h6.607V50.732h14.866v6.1H212.382Zm45.226,0,11.876,28.081h-7.136l-1.817-4.609H247.317l-1.8,4.609h-7.185l11.959-28.081h7.317Zm-8.077,17.839h8.738l-4.377-11.1ZM204.784,72.685v28.081h-6.607V89.649h-14.04v11.1h-6.459V72.668H184.2v11.1h14.123V72.7Zm15.18,7.086a12.141,12.141,0,0,1,5.3,1.206l.595-.71h4.774l-2.362,2.924a10.72,10.72,0,0,1-8.259,18.038,12.273,12.273,0,0,1-5.253-1.156l-.562.677h-4.774l2.3-2.891a10.439,10.439,0,0,1-2.891-7.334,10.786,10.786,0,0,1,11.133-10.753Zm-4.526,13.446,6.26-7.8a4.955,4.955,0,0,0-1.734-.281,5.087,5.087,0,0,0-5.121,5.385,5.979,5.979,0,0,0,.595,2.692Zm9.052-5.385-6.211,7.78a5.6,5.6,0,0,0,1.652.248,5.071,5.071,0,0,0,5.17-5.335,5.93,5.93,0,0,0-.611-2.692Zm19.128-8.061a7.929,7.929,0,0,1,6.409,2.973V80.266h6.425V96.983c0,8.672-4.608,11.843-10.753,11.843a16.865,16.865,0,0,1-10.456-3.584l3.006-4.658a12.008,12.008,0,0,0,6.888,2.858c3.3,0,4.955-2.081,4.955-5.451V96.983a7.9,7.9,0,0,1-6.409,2.924c-5.567,0-9.068-4.328-9.068-10.059s3.436-10.076,9-10.076Zm1.933,14.6a4.509,4.509,0,1,0-4.625-4.526,4.394,4.394,0,0,0,4.625,4.526Zm20.961-.281c.4,1.487,1.553,2.527,4.163,2.527,1.85,0,2.924-.512,2.924-1.4,0-1.487-2.924-1.85-4.955-2.329-4.576-.991-7.714-2.874-7.714-6.739s3.568-6.376,8.87-6.376,9.465,2.346,9.465,6.739v.2h-5.946c0-1.321-1.189-2.279-3.4-2.279-1.916,0-2.808.71-2.808,1.553,0,1.321,2.3,1.652,4.955,2.246,4.328,1.008,7.863,2.412,7.863,6.607s-3.766,6.376-9.217,6.376c-5.17,0-9.151-1.767-9.993-5.451l5.8-1.668Zm26.495-.925h-3.3v7.582h-6.409V72.668H289.7V87.782h3.3l4.163-7.532h6.871l-5.616,9.911,6.326,10.505h-7.317Zm23.257-13.4A10.737,10.737,0,1,1,305.043,90a10.736,10.736,0,0,1,11.221-10.23Zm0,15.808a5.054,5.054,0,1,0-4.955-5.055,4.79,4.79,0,0,0,4.955,5.054Zm14.668-22.894h6.409v28.081h-6.409Zm30.03,25.586a13.1,13.1,0,0,1-8.622,2.957c-7.268,0-11.563-4.955-11.563-10.7a10.572,10.572,0,0,1,10.836-10.753,10.159,10.159,0,0,1,10.505,9.911,10.668,10.668,0,0,1-.363,2.61h-14.4a5.038,5.038,0,0,0,5.3,3.684,7.929,7.929,0,0,0,5.253-1.966l3.056,4.262ZM347.317,88.36h8.589a4.113,4.113,0,0,0-4.212-3.568,4.394,4.394,0,0,0-4.377,3.65Zm32.706,1.123c0-3.089-1.767-4.014-3.419-4.014a4.79,4.79,0,0,0-4.609,4.774v10.505h-6.409V80.266h6.409v2.758a7.813,7.813,0,0,1,6.739-3.3c4.361,0,7.664,2.577,7.664,8.837V100.7h-6.376V89.483Z" transform="translate(13.501 13.077)" fill="#5ca361"/>
        </g>
      </g>
    </g>
  </g>
</svg>
