<svg xmlns="http://www.w3.org/2000/svg" xmlns:xlink="http://www.w3.org/1999/xlink" width="600" height="300" viewBox="0 0 600 300">
  <defs>
    <clipPath id="clip-Logo">
      <rect width="600" height="300"/>
    </clipPath>
  </defs>
  <g id="Logo" clip-path="url(#clip-Logo)">
    <rect width="600" height="300" fill="#e8eff3"/>
    <path id="Nasjonalmuseet_logo" data-name="Nasjonalmuseet logo" d="M493.978,21.676V40.53c0,4.307.97,6.535,4.109,8.685L494.8,55.08c-5-2.822-7.693-6.533-7.693-14.551V21.676h-7.022V15.737h7.022v-9.8l6.871-2.376V15.739H501v5.939h-7.022ZM470.97,30.434c-.523-5.79-4.034-10.1-10.083-10.1-5.155,0-8.963,3.711-10.083,10.1H470.97Zm7.1,5.42H450.5c.523,7.57,4.931,12.4,11.2,12.4,4.333,0,7.842-2.523,9.862-6.681l6.048,2.673a17.2,17.2,0,0,1-15.909,9.871c-11.428,0-18-8.683-18-19.6,0-10.763,6.422-19.672,17.327-19.672,10.98,0,17.181,8.388,17.181,17.965,0,1.04-.073,2.376-.148,3.044Zm-46.239-5.42c-.523-5.79-4.034-10.1-10.085-10.1-5.153,0-8.963,3.711-10.083,10.1Zm7.1,5.42H411.361c.525,7.57,4.931,12.4,11.206,12.4,4.331,0,7.842-2.523,9.86-6.681l6.05,2.673a17.208,17.208,0,0,1-15.909,9.871c-11.43,0-18-8.683-18-19.6,0-10.763,6.424-19.672,17.327-19.672,10.982,0,17.181,8.388,17.181,17.965,0,1.04-.073,2.376-.149,3.044ZM370.578,43.13l5.675-2.376c1.5,4.456,4.333,7.794,10.085,7.794,4.63,0,7.618-2.525,7.618-5.566,0-9.725-21.587-4.01-21.587-17.965,0-5.939,5.153-10.17,13.22-10.17,7.022,0,11.953,3.786,13.969,9.279l-5.677,2.525a8.475,8.475,0,0,0-8.365-6.384c-4.408,0-6.8,1.707-6.8,4.675,0,8.166,21.737,2.079,21.737,17.816,0,6.681-5.753,11.357-14.044,11.357C377.223,54.114,372.37,48.547,370.578,43.13Zm-38.1-4.159V15.737h6.871v22.64c0,5.79,3.96,9.652,9.862,9.652,5.974,0,9.933-3.861,9.933-9.652V15.737h6.871V38.971c0,9.058-6.721,15.143-16.8,15.143-10.01,0-16.733-6.085-16.733-15.143ZM324.41,28.506V53.225h-6.871V29.694c0-5.347-2.913-8.761-7.768-8.761-3.958,0-7.469,2.228-9.784,6.458V53.225h-6.871V29.694c0-5.347-2.915-8.761-7.768-8.761-3.96,0-7.394,2.153-9.784,6.384V53.225H268.69V15.739h6.871V20.19a14.508,14.508,0,0,1,11.426-5.345,12.4,12.4,0,0,1,11.43,6.608,15.684,15.684,0,0,1,13-6.608c7.768,0,13,5.568,13,13.66ZM253.75,53.225h6.871V.743H253.75V53.225ZM238.957,42.387V35.038l-6.721.816c-7.321.816-10.757,3.192-10.757,6.978,0,3.414,2.689,5.788,6.8,5.788A13.228,13.228,0,0,0,238.957,42.387Zm6.723-13.139V53.225h-6.723v-4.38a15.946,15.946,0,0,1-11.875,5.269c-7.321,0-12.325-4.6-12.325-11.06,0-7.275,5.751-11.357,17.181-12.545l7.02-.743V28.43c0-5.121-3.509-8.091-8.664-8.091-4.182,0-7.842,1.782-8.515,7.572h-6.424c.822-9.426,8.141-13.066,14.939-13.066,8.963,0,15.386,4.753,15.386,14.4Zm-37.5-.743V53.225h-6.8V29.694c0-5.347-3.287-8.761-8.812-8.761-4.559,0-8.367,2.153-11.129,6.384V53.225H174.57V15.739h6.871V20.19a16.481,16.481,0,0,1,12.624-5.345c8.44,0,14.117,5.568,14.117,13.66Zm-46.912,6.01c0-7.941-4.555-13.584-11.277-13.584s-11.2,5.644-11.2,13.584,4.481,13.511,11.2,13.511,11.279-5.568,11.279-13.511Zm-29.426,0c0-11.432,7.616-19.672,18.149-19.672,10.606,0,18.226,8.24,18.226,19.672s-7.62,19.6-18.226,19.6c-10.533,0-18.151-8.165-18.151-19.6ZM117.422,4.751a4.781,4.781,0,0,1,9.563,0,4.782,4.782,0,0,1-9.561,0ZM114.66,61.538c3.137-2.226,4.107-4.38,4.107-8.685V15.737h6.871V52.853c0,8.018-2.687,11.656-7.691,14.476l-3.287-5.79ZM83.362,43.13l5.677-2.376c1.493,4.456,4.333,7.794,10.083,7.794,4.632,0,7.62-2.525,7.62-5.566,0-9.725-21.587-4.01-21.587-17.965,0-5.939,5.153-10.17,13.22-10.17,7.022,0,11.951,3.786,13.969,9.279l-5.677,2.525A8.475,8.475,0,0,0,98.3,20.266c-4.406,0-6.8,1.707-6.8,4.675,0,8.166,21.735,2.079,21.735,17.816,0,6.681-5.751,11.357-14.042,11.357-9.188,0-14.042-5.566-15.836-10.984Zm-11.2-.743V35.038l-6.723.816c-7.321.816-10.757,3.192-10.757,6.978,0,3.414,2.689,5.788,6.8,5.788A13.232,13.232,0,0,0,72.158,42.387Zm6.721-13.139V53.225H72.16v-4.38a15.954,15.954,0,0,1-11.877,5.269c-7.319,0-12.325-4.6-12.325-11.06,0-7.275,5.753-11.357,17.181-12.545l7.022-.743V28.43c0-5.121-3.511-8.091-8.666-8.091-4.182,0-7.842,1.782-8.515,7.572H48.555c.822-9.426,8.141-13.066,14.939-13.066,8.963,0,15.386,4.753,15.386,14.4ZM0,1.261H7.842L33.914,42.238V1.261H40.86V53.223H33.018L6.945,12.472V53.225H0V1.263Z" transform="translate(50 116.336)" fill="#383838" fill-rule="evenodd"/>
  </g>
</svg>
