<svg xmlns="http://www.w3.org/2000/svg" xmlns:xlink="http://www.w3.org/1999/xlink" width="600" height="300" viewBox="0 0 600 300"><defs><clipPath id="clip-Logo"><path d="M0 0h600v300H0z"/></clipPath></defs><g id="Logo" clip-path="url(#clip-Logo)"><path fill="#e8eff3" d="M0 0h600v300H0z"/><path id="Nasjonalmuseet_logo" fill="#383838" fill-rule="evenodd" d="M493.98 21.68v18.85c0 4.3.97 6.54 4.1 8.69l-3.28 5.86c-5-2.82-7.7-6.53-7.7-14.55V21.68h-7.01v-5.94h7.02v-9.8l6.87-2.38v12.18H501v5.94zm-23.01 8.75c-.52-5.79-4.03-10.1-10.08-10.1-5.16 0-8.97 3.72-10.09 10.1zm7.1 5.42H450.5c.52 7.57 4.93 12.4 11.2 12.4 4.33 0 7.84-2.52 9.86-6.68l6.05 2.68a17.2 17.2 0 0 1-15.9 9.87c-11.44 0-18-8.69-18-19.6 0-10.77 6.41-19.67 17.32-19.67 10.98 0 17.18 8.38 17.18 17.96 0 1.04-.07 2.38-.15 3.04Zm-46.24-5.42c-.52-5.79-4.03-10.1-10.08-10.1-5.16 0-8.97 3.71-10.09 10.1Zm7.1 5.42h-27.57c.53 7.57 4.93 12.4 11.2 12.4 4.34 0 7.85-2.52 9.87-6.68l6.05 2.68a17.2 17.2 0 0 1-15.91 9.87c-11.43 0-18-8.69-18-19.6 0-10.77 6.42-19.67 17.33-19.67 10.98 0 17.18 8.38 17.18 17.96 0 1.04-.08 2.38-.15 3.04m-68.35 7.28 5.67-2.38c1.5 4.46 4.34 7.8 10.09 7.8 4.63 0 7.62-2.53 7.62-5.57 0-9.72-21.6-4-21.6-17.96 0-5.94 5.16-10.17 13.23-10.17 7.02 0 11.95 3.78 13.97 9.28l-5.68 2.52a8.5 8.5 0 0 0-8.36-6.38c-4.41 0-6.8 1.7-6.8 4.67 0 8.17 21.73 2.08 21.73 17.82 0 6.68-5.75 11.35-14.04 11.35-9.19 0-14.04-5.56-15.83-10.98m-38.1-4.16V15.74h6.87v22.64c0 5.79 3.96 9.65 9.86 9.65 5.97 0 9.93-3.86 9.93-9.65V15.74h6.87v23.23c0 9.06-6.72 15.14-16.8 15.14-10 0-16.73-6.08-16.73-15.14m-8.07-10.46v24.72h-6.87V29.69c0-5.34-2.91-8.76-7.77-8.76-3.96 0-7.47 2.23-9.78 6.46v25.84h-6.87V29.69c0-5.34-2.92-8.76-7.77-8.76-3.96 0-7.4 2.16-9.79 6.39v25.9h-6.87V15.75h6.87v4.45A14.5 14.5 0 0 1 287 14.85a12.4 12.4 0 0 1 11.43 6.6 15.7 15.7 0 0 1 13-6.6c7.76 0 13 5.56 13 13.66Zm-70.66 24.72h6.87V.73h-6.87zm-14.8-10.84v-7.35l-6.71.81c-7.33.82-10.76 3.2-10.76 6.98 0 3.42 2.69 5.79 6.8 5.79a13.2 13.2 0 0 0 10.68-6.23m6.73-13.14v23.98h-6.72v-4.38a16 16 0 0 1-11.88 5.26c-7.32 0-12.32-4.6-12.32-11.06 0-7.27 5.75-11.35 17.18-12.54l7.02-.74v-1.34c0-5.12-3.51-8.1-8.67-8.1-4.18 0-7.84 1.8-8.51 7.58h-6.42c.82-9.43 8.14-13.07 14.93-13.07 8.97 0 15.39 4.76 15.39 14.4Zm-37.5-.74v24.72h-6.8V29.69c0-5.34-3.29-8.76-8.81-8.76-4.56 0-8.37 2.16-11.13 6.39v25.9h-6.87V15.75h6.87v4.45a16.5 16.5 0 0 1 12.63-5.34c8.44 0 14.11 5.56 14.11 13.66Zm-46.91 6c0-7.94-4.56-13.58-11.28-13.58s-11.2 5.65-11.2 13.59 4.48 13.5 11.2 13.5 11.28-5.56 11.28-13.5Zm-29.43 0c0-11.43 7.62-19.67 18.15-19.67 10.6 0 18.23 8.24 18.23 19.68s-7.62 19.6-18.23 19.6c-10.53 0-18.15-8.17-18.15-19.6ZM117.42 4.75a4.78 4.78 0 0 1 9.56 0 4.78 4.78 0 0 1-9.56 0m-2.76 56.79c3.14-2.23 4.1-4.38 4.1-8.69V15.74h6.88v37.11c0 8.02-2.69 11.66-7.7 14.48zm-31.3-18.41 5.68-2.38c1.5 4.46 4.33 7.8 10.08 7.8 4.63 0 7.62-2.53 7.62-5.57 0-9.72-21.59-4-21.59-17.96 0-5.94 5.16-10.17 13.22-10.17 7.03 0 11.96 3.78 13.97 9.28l-5.67 2.52a8.5 8.5 0 0 0-8.37-6.38c-4.4 0-6.8 1.7-6.8 4.67 0 8.17 21.74 2.08 21.74 17.82 0 6.68-5.76 11.35-14.05 11.35-9.18 0-14.04-5.56-15.83-10.98m-11.2-.74v-7.35l-6.72.81c-7.32.82-10.76 3.2-10.76 6.98 0 3.42 2.7 5.79 6.8 5.79a13.2 13.2 0 0 0 10.68-6.23m6.72-13.14v23.98h-6.72v-4.38a16 16 0 0 1-11.88 5.26c-7.32 0-12.32-4.6-12.32-11.06 0-7.27 5.75-11.35 17.18-12.54l7.02-.74v-1.34c0-5.12-3.51-8.1-8.66-8.1-4.19 0-7.85 1.8-8.52 7.58h-6.42c.82-9.43 8.14-13.07 14.93-13.07 8.97 0 15.39 4.76 15.39 14.4ZM0 1.26h7.84l26.07 40.98V1.26h6.95v51.96h-7.84L6.94 12.47v40.76H0z" transform="translate(50 116.336)"/></g></svg>