<svg xmlns="http://www.w3.org/2000/svg" xmlns:xlink="http://www.w3.org/1999/xlink" width="600" height="300" viewBox="0 0 600 300"><defs><clipPath id="clip-Logo"><path d="M0 0h600v300H0z"/></clipPath></defs><g id="Logo" clip-path="url(#clip-Logo)"><path fill="#e8eff3" d="M0 0h600v300H0z"/><g id="c" transform="translate(60.2 73.549)"><g id="Group_63" transform="translate(40.88 40.075)"><path id="Path_684" fill="#242424" d="M84.93 91.05H72.87L52.83 58.74l-.37.05v32.18H40.88V42.45h15.03l17.13 26.82.35-.02V42.44h11.55z" transform="translate(-40.88 -41.308)"/><path id="Path_685" fill="#242424" d="m314.15 90.95-13.08-17.57h-5.71v17.56h-12.62V42.66c.2-.15.31-.32.43-.32 9 .1 18.01.1 27.01.37a16 16 0 0 1 5.92 1.66c9.75 4.39 8.7 18.35 1.46 23.36-1.24.85-2.49 1.68-3.91 2.64l16 20.58zm-18.77-26.78c2.67 0 5.13.03 7.58-.02a9 9 0 0 0 2.1-.37c3.28-.87 4.93-3.2 4.84-6.71-.08-3.25-1.5-5.04-5.1-5.45a85 85 0 0 0-9.42-.07Z" transform="translate(-166.959 -41.256)"/><path id="Path_686" fill="#242424" d="M394.43 91.06v-48.5c.18-.08.38-.28.58-.28 7.97.1 15.95-.1 23.88.45 7.87.53 14.4 4.04 18.45 11.11 7.86 13.76 1.63 34.53-17.56 36.62-6.7.73-13.51.44-20.27.6-1.66.03-3.31 0-5.09 0Zm12.75-39.2V81.7c3.84.21 7.57.32 11.17-.81 4.43-1.4 7.5-4.36 8.35-8.96a29 29 0 0 0 .34-8.98c-.85-6.17-5.03-10.2-11.18-11.02a68 68 0 0 0-8.69-.06Z" transform="translate(-225.176 -41.224)"/><path id="Path_687" fill="#242424" d="M180.35 91.19a75 75 0 0 1-9.13-1.59 21 21 0 0 1-14.68-14.74 31.3 31.3 0 0 1 .18-19.27 20.9 20.9 0 0 1 14.63-14.19 31.7 31.7 0 0 1 17.67-.13 22.1 22.1 0 0 1 16.29 19.43 37 37 0 0 1-.59 12.82c-2.44 9.94-10.5 16.54-20.97 17.24-1.1.08-2.23.01-3.34.01zM168 65.73a69 69 0 0 0 2.09 8.75c1.73 4.64 5.4 7.06 10.34 7.08a10.5 10.5 0 0 0 10.37-7.06 23 23 0 0 0-.31-18.58c-1.97-4.36-5.52-6.46-10.3-6.38a10.5 10.5 0 0 0-9.95 6.57 31 31 0 0 0-2.24 9.62" transform="translate(-100.428 -40.075)"/><path id="Path_688" fill="#242424" d="M523.86 42.47V64.7c0 3.35-.1 6.7.12 10.04s1.4 6.27 4.95 7.45a12.5 12.5 0 0 0 7.99 0 6.7 6.7 0 0 0 4.65-5.3 21 21 0 0 0 .45-4.26q.04-13.75.02-27.51v-2.69h12.47c.05.77.13 1.46.13 2.15q.02 14.71 0 29.42c-.02 9.22-4.72 15.2-13.7 17.28a35 35 0 0 1-15.9.03c-9-2.04-13.63-7.56-13.88-17.16-.28-10.36-.05-20.73-.03-31.1a2 2 0 0 1 .21-.6z" transform="translate(-285.96 -41.308)"/><path id="Path_689" fill="#242424" d="M762.84 86.61h-26.78a7.26 7.26 0 0 0 4.7 7.45 17.4 17.4 0 0 0 11.94.61 63 63 0 0 0 6.6-2.7l2.52-1.06v10.1c-3.1.77-6.3 1.82-9.56 2.3a35 35 0 0 1-16.08-1.04c-7.81-2.53-12.14-8.4-12.38-16.56-.13-4.56.48-8.92 3.09-12.79a18 18 0 0 1 11.71-7.6 29 29 0 0 1 11.64-.05c6.83 1.41 10.96 5.66 11.97 12.54.41 2.81.42 5.69.64 8.8Zm-12.27-7.1c-.17-5.24-2.84-7.64-7.8-7.21-4.5.39-7.19 3.25-6.67 7.21z" transform="translate(-396.866 -52.908)"/><path id="Path_690" fill="#242424" d="M639.83 69.4c1.5-.9 2.95-1.87 4.5-2.69a15.7 15.7 0 0 1 11.13-1.35c4.8 1.1 7.5 4.25 8.55 8.92a16 16 0 0 1 .43 3.32c.04 8.28.02 16.55.02 25.04h-11.95v-2.46c-.1-6.7-.08-13.38-.36-20.07-.18-4.2-2.47-6.01-6.67-5.43a44 44 0 0 0-6.17 1.77v26.24h-11.88V66.16h11.73l.17 3.05.03.37z" transform="translate(-346.641 -53.018)"/><path id="Path_691" fill="#242424" d="M832.84 55.86h10.92v8.08h-10.6a7 7 0 0 0-.24 1.23q-.03 7.55 0 15.08c.02 4.03 2.56 5.43 6.19 5.02a41 41 0 0 0 4.71-1.09v8.24c-5.02 1.19-10.05 1.66-15.08.38-5.23-1.32-7.7-4.65-7.78-10.3-.06-5.51-.01-11.01-.01-16.52v-1.9h-4.66v-8.14h4.58V45.48h11.98v10.39Z" transform="translate(-445.092 -42.892)"/><path id="Path_692" fill="#242424" d="M646.63 164.36h3.3l-1.08 4.66 2.53 1.82-.35.68-5.06-.62a21 21 0 0 1-3.59.7c-1.82.08-3.57-.49-4.32-2.37a3.4 3.4 0 0 1 1.54-4.44 17 17 0 0 1-1.17-3.03 2.4 2.4 0 0 1 .77-1.66c1.32-1.43 5.14-1.54 6.71-.29 1.2.95 1.22 1.88.1 4.04l-1.8 1.13 2.27 1.74zm-5.06 1.56c-.71 1.26-.75 2.2.14 2.97a2.3 2.3 0 0 0 3.17.02Zm1.59-2.27c.45-1.11 1.03-2.01-.13-2.67a1.4 1.4 0 0 0-1.32.47c-.43 1.1.26 1.72 1.45 2.2" transform="translate(-352.027 -102.042)"/><path id="Path_693" fill="#242424" d="M43.74 164.37v7.44h-2.55v-11.97h3.53l4.48 6.5v-6.47H52v11.95h-2.71q-2.67-3.8-5.31-7.6l-.28-.25z" transform="translate(-41.042 -102.507)"/><path id="Path_694" fill="#242424" d="M453.35 171.78h-3.67c-1.83-1.24-2.14-4.03-4.95-4.4v4.33h-3.02v-11.94c2.36 0 4.63-.06 6.91.02a3.1 3.1 0 0 1 3.03 2.3 3.4 3.4 0 0 1-1.07 3.68l-1.08 1.01zm-8.54-6.12a22 22 0 0 0 3.43-1.39 1.9 1.9 0 0 0 .04-1.64 25 25 0 0 0-3.47-1.12z" transform="translate(-249.828 -102.458)"/><path id="Path_695" fill="#242424" d="M194.2 160.18v2.7c-2.39-1.25-4.75-2.7-7.1-.53-1.44 1.33-1.4 3.22-.74 4.91.73 1.9 2.4 2.4 4.48 2.2v-2.33l-2.11-.19v-2.08h5.37v5.75c-4.27 1.77-8.23 1.28-10.12-1.25a7.1 7.1 0 0 1 .2-8.24c2.12-2.45 6.12-2.85 10.02-.95Z" transform="translate(-114.847 -102.058)"/><path id="Path_696" fill="#242424" d="m283.78 165.78 1.9 6.06 1.63-5.93h2.89l-2.74 8.96h-3.12l-1.92-5.9-1.95 5.94h-3.07l-2.74-8.97h2.9l1.49 5.35h.35l1.82-5.38z" transform="translate(-162.747 -105.603)"/><path id="Path_697" fill="#242424" d="M118.38 158.7h2.7v12.48c-2.05.42-4.15-.5-6.17.27-.44.17-1.23-.26-1.74-.6-1.58-1.1-2.16-4.18-1.26-6.35a4.3 4.3 0 0 1 5.05-2.5l1.05.18zm-.3 5.52c-1.53-.31-2.68-.28-3.21 1.12-.46 1.23-.57 2.56.5 3.5a1.8 1.8 0 0 0 2.7-.32Z" transform="translate(-77.686 -101.913)"/><path id="Path_698" fill="#242424" d="m711.4 162.28.18-3.47h2.72v12.28c-2.06.16-4.09.4-6.12.43a3.4 3.4 0 0 1-1.93-.79c-1.56-1.23-1.97-4.32-.96-6.41a4.2 4.2 0 0 1 4.97-2.25zm0 2.05c-1.42-.36-2.57-.44-3.22.95-.57 1.24-.67 2.63.39 3.5.59.5 1.78.28 2.83.4z" transform="translate(-386.94 -101.97)"/><path id="Path_699" fill="#242424" d="M690.89 159.85v2.13h-5.39l-.12 2.18h5.22v2.35h-5.19v2.89h5.5v2.37h-8.54v-11.92z" transform="translate(-375.281 -102.512)"/><path id="Path_700" fill="#242424" d="M601.12 158.75h2.78v4.02c.49-.15.78-.22 1.06-.33q5.15-2.07 5.2 3.53v5.24l-2.96.14c0-1.65.04-3.2-.01-4.76-.08-2.29-.73-2.66-3.24-1.79v6.4h-2.84z" transform="translate(-332.921 -101.939)"/><path id="Path_701" fill="#242424" d="M782.22 168.46c-1.51-1.78-3.21-.96-5-.72l-.2-1.92a10.3 10.3 0 0 1 6.14-.32 2.7 2.7 0 0 1 2.24 2.72c.06 2.06.02 4.12.02 6.32a6 6 0 0 1-1.96.09 4.7 4.7 0 0 0-3.08.09 3.07 3.07 0 0 1-4.12-2.17c-.35-1.65.76-3.13 2.74-3.57 1.06-.23 2.15-.35 3.22-.51Zm0 1.86c-1.3.14-2.7-.16-2.86 1.5-.03.28.96.92 1.5.94 1.55.06 1.73-.96 1.36-2.44" transform="translate(-424.192 -105.288)"/><path id="Path_702" fill="#242424" d="M537.41 167.7v-1.9a10.4 10.4 0 0 1 5.83-.35 2.9 2.9 0 0 1 2.53 3c.05 1.98.02 3.95.02 6.1a5 5 0 0 1-1.94.1c-1.19-.5-2.22-.1-3.35.14-1.96.43-3.53-.5-3.87-2.18-.35-1.76.62-3.15 2.61-3.6 1.11-.25 2.25-.37 3.8-.62-2.03-1.75-3.75-.8-5.63-.68Zm5.15 2.67c-1.23.12-2.67-.36-2.88 1.48-.03.26.97.91 1.5.92 1.52.01 1.75-.97 1.38-2.4" transform="translate(-299.272 -105.294)"/><path id="Path_703" fill="#242424" d="M834.1 165.16c3.07.04 4.96 1.9 4.95 4.9 0 3.06-2.01 4.93-5.21 4.83-3.1-.1-4.9-1.96-4.84-4.98.06-2.93 2.06-4.79 5.1-4.75m1.83 4.97c.01-1.82-.62-2.8-1.84-2.85-1.24-.05-1.94.9-1.96 2.71-.03 1.87.56 2.77 1.83 2.8q1.95.08 1.96-2.66Z" transform="translate(-451.716 -105.28)"/><path id="Path_704" fill="#242424" d="M316.75 168.36c-2.04-1.7-3.74-.87-5.54-.61l-.2-1.92a10 10 0 0 1 6.12-.34 2.7 2.7 0 0 1 2.26 2.7c.07 2.06.02 4.12.02 6.33a6 6 0 0 1-1.95.1 4.8 4.8 0 0 0-3.08.08 3.07 3.07 0 0 1-4.13-2.15c-.38-1.73.79-3.18 2.94-3.62 1-.2 2-.32 3.56-.57m-.54 1.94c-1.2.2-2.68-.3-2.86 1.57-.03.26 1 .88 1.54.88 1.58.02 1.68-1.03 1.31-2.44Z" transform="translate(-181.263 -105.284)"/><path id="Path_705" fill="#242424" d="M212 165.74c2.24 0 4.12-.11 5.98.04a2.55 2.55 0 0 1 2.43 2.75c.05 2.05.01 4.1.01 6.28a6 6 0 0 1-1.97.08 4.6 4.6 0 0 0-3.06.09 3.08 3.08 0 0 1-4.12-2.13c-.4-1.72.76-3.2 2.89-3.63 1.04-.21 2.1-.33 3.57-.55-1.97-1.71-3.65-.94-5.5-.64zm5.21 4.84c-1.2.2-2.68-.3-2.86 1.56-.02.27 1 .89 1.55.9 1.58.01 1.67-1.04 1.3-2.45Z" transform="translate(-129.661 -105.562)"/><path id="Path_706" fill="#242424" d="M79.05 170.12c-.03 2.98-1.93 4.79-5.03 4.78s-5-1.8-5.02-4.8c-.02-3.04 2.02-5 5.15-4.93 3.06.07 4.93 1.95 4.9 4.94Zm-6.92-.04q-.01 2.76 1.91 2.73c1.92-.03 1.9-.91 1.89-2.75q-.04-2.76-1.92-2.78c-1.21 0-1.89 1.01-1.88 2.8" transform="translate(-55.538 -105.289)"/><path id="Path_707" fill="#242424" d="M385 169.7c.15-2.86 2.28-4.68 5.3-4.53a4.64 4.64 0 0 1 4.74 5.34c-.2 2.87-2.3 4.57-5.42 4.37a4.54 4.54 0 0 1-4.62-5.17Zm6.92.35c-.01-1.8-.68-2.77-1.91-2.78-1.21 0-1.9 1-1.9 2.8q0 2.74 1.92 2.73c1.92-.01 1.9-.91 1.89-2.75" transform="translate(-220.26 -105.281)"/><path id="Path_708" fill="#242424" d="m740.22 175.27-3.24-.39.03-.31a13 13 0 0 1-1.53.64c-2.44.67-4.16-.45-4.32-2.95-.13-1.96-.02-3.94-.02-6.08h3.15v6.6h3v-6.62h2.93z" transform="translate(-400.681 -105.801)"/><path id="Path_709" fill="#242424" d="M522.35 172.31v1.7a8.5 8.5 0 0 1-6.5.5 4.05 4.05 0 0 1-3.02-4.1c-.1-2.32.88-4.07 2.78-4.78 3.88-1.46 7.75.66 6.6 5.02h-6.37c1.08 2.4 2.3 2.7 5.64 1.59zm-3.03-3.5.32-.62c-.64-.4-1.24-1.03-1.92-1.11-1.02-.14-1.76.48-1.84 1.74z" transform="translate(-286.9 -105.287)"/><path id="Path_710" fill="#242424" d="M477.34 172.29v1.7a8.5 8.5 0 0 1-6.51.47 3.8 3.8 0 0 1-2.91-3.16c-.3-1.88-.1-3.67 1.48-5a5.9 5.9 0 0 1 6.1-.6c1.75 1 2.12 2.65 1.85 4.85h-6.59c1.2 2.48 2.36 2.76 5.7 1.66zm-6.5-3.64h3.7c-1.4-2.29-2.46-2.24-3.7 0" transform="translate(-263.428 -105.26)"/><path id="Path_711" fill="#242424" d="M261.36 172.31v1.7a8.4 8.4 0 0 1-6.5.49 4 4 0 0 1-3.02-4.09c-.1-2.32.88-4.07 2.78-4.79 3.88-1.45 7.75.67 6.6 4.98h-6.4c1.1 2.45 2.32 2.75 5.66 1.63zm-2.88-3.5c-.2-1.17-.67-1.88-1.85-1.78a1.7 1.7 0 0 0-1.74 1.78Z" transform="translate(-150.849 -105.284)"/><path id="Path_712" fill="#242424" d="M864.3 174.65h-2.94c0-1.6.03-3.17-.01-4.72-.06-2.34-.65-2.67-3.24-1.68v6.34h-2.85v-9.02a6 6 0 0 1 2.25.06 2.8 2.8 0 0 0 2.41-.1c2.54-.85 4.26.32 4.37 2.98.08 1.97.01 3.95.01 6.14" transform="translate(-465.406 -105.33)"/><path id="Path_713" fill="#242424" d="M340.49 166.01h2.99l-4.98 12.35h-3.39c2.46-3.06.72-5.67-.34-8.35-.5-1.24-.94-2.5-1.47-3.94h2.93l2.17 5.42z" transform="translate(-193.315 -105.723)"/><path id="Path_714" fill="#242424" d="M492.05 174.12v-2.26c1.75.67 3.4 1.42 5.11.58l.13-.59-1.82-.6c-.68-.2-1.57-.2-2.01-.63-.66-.66-1.49-1.7-1.38-2.45a3.8 3.8 0 0 1 1.83-2.47c1.84-.97 3.85-.65 6 .1l.19 2.11c-1.78-.2-3.42-1.3-5.54.21 1.34.37 2.18.63 3.03.84 1.93.48 2.79 1.31 2.79 2.75s-1.1 2.55-2.93 2.94a8.7 8.7 0 0 1-5.4-.54Z" transform="translate(-276.069 -105.248)"/><path id="Path_715" fill="#242424" d="m375.55 158.49.1 1.66c-.84.63-2.44-.52-2.73 1.43l2.03.5v1.55l-2 .47v6.81h-2.88v-6.4c-1.13-.94-2.6-1.65-.48-2.77.18-.1.26-.39.36-.6 1.4-2.93 2-3.23 5.6-2.66Z" transform="translate(-211.675 -101.676)"/><path id="Path_716" fill="#242424" d="M762.62 168.05c-2.8-1.06-4.26-.48-4.48 1.76a2.5 2.5 0 0 0 3.45 2.85 18 18 0 0 0 1.84-.83v2.19c-2.56 1.43-5.59 1.18-7.24-.58a5.3 5.3 0 0 1-.5-6c1.02-1.8 4.77-3.04 7.79-1.33v1.87z" transform="translate(-413.139 -105.35)"/><path id="Path_717" fill="#242424" d="M156.62 168.05c-2.8-1.06-4.26-.48-4.48 1.76a2.5 2.5 0 0 0 3.45 2.85 18 18 0 0 0 1.84-.83v2.19c-2.57 1.43-5.59 1.18-7.24-.58a5.3 5.3 0 0 1-.5-6c1.02-1.8 4.77-3.04 7.79-1.33v1.87z" transform="translate(-97.239 -105.35)"/><path id="Path_718" fill="#242424" d="m806 164.98-2.6.12v5.02l2.5.38v1.7a18 18 0 0 1-2.6.22c-2.19-.12-2.93-.92-3-3.13-.04-1.27 0-2.54 0-3.8-1.1-.77-2.4-1.4-.37-2.65.46-.27.37-1.44.57-2.36h2.59l.29 2.4 2.47.3z" transform="translate(-436.01 -102.846)"/><path id="Path_719" fill="#242424" d="M586.64 166.1v2.36c-1.68-.56-3.45-1.99-4.85.1a2.8 2.8 0 0 0 .19 3.55c1.46 1.52 3.05.6 4.64-.33v2.31c-2.61 1.39-5.64 1.13-7.24-.6a5.1 5.1 0 0 1-.44-6c1.36-2.14 4.08-2.68 7.7-1.4Z" transform="translate(-320.966 -105.407)"/><path id="Path_720" fill="#242424" d="m241.16 164.9-2.44.18v5.07l2.43.2.17 1.95c-1.18 0-2.26.07-3.33-.02a2.5 2.5 0 0 1-2.44-2.69q-.03-1.05-.01-2.14a9 9 0 0 1 0-1.43c.2-1.14-2.37-1.76-.9-2.74 1.3-.86.48-2.03 1.2-2.91h2.44l.36 2.4 2.53.36v1.76Z" transform="translate(-141.648 -102.783)"/><path id="Path_721" fill="#242424" d="m562.15 165.48 3.21.63-.11.29 3.33-.96.13 2.75-3.7.43v6.06h-2.86Z" transform="translate(-312.612 -105.426)"/><path id="Path_722" fill="#242424" d="m99.04 166.22 2.68-.75v2.78l-3.53.42v6.04l-2.84.14v-9.35l2.84.67z" transform="translate(-69.275 -105.442)"/><path id="Path_723" fill="#242424" d="m415.04 166.22 2.68-.75v2.78l-3.52.43v6.04l-2.84.13v-9.35l2.84.67z" transform="translate(-234.007 -105.442)"/><path id="Path_724" fill="#242424" d="M138.33 166.06H141v8.97l-2.67.12Z" transform="translate(-91.68 -105.749)"/><path id="Path_725" fill="#242424" d="M820.99 175.08h-2.69v-9h2.69Z" transform="translate(-446.14 -105.755)"/><path id="Path_726" fill="#242424" d="M138.12 160.77v-2h2.87l.12 2Z" transform="translate(-91.57 -101.949)"/><path id="Path_727" fill="#242424" d="M817.91 158.63h2.95l.15 2.05h-3z" transform="translate(-445.936 -101.876)"/><path id="Path_728" fill="#242424" d="m164.92 170.98.86-.07z" transform="translate(-105.541 -108.278)"/><path id="Path_729" fill="#242424" d="m770.92 170.98.86-.07z" transform="translate(-421.441 -108.278)"/><path id="Path_730" fill="#242424" d="m270.77 180.01-.87-.07Z" transform="translate(-160.265 -112.985)"/><path id="Path_731" fill="#242424" d="m486.77 180.01-.87-.07Z" transform="translate(-272.864 -112.985)"/><path id="Path_732" fill="#242424" d="m531.77 180.01-.87-.07Z" transform="translate(-296.321 -112.985)"/><path id="Path_733" fill="#242424" d="m418.13 166.97-.84-.06Z" transform="translate(-237.098 -106.192)"/><path id="Path_734" fill="#242424" d="m102.13 166.97-.84-.06Z" transform="translate(-72.371 -106.192)"/><path id="Path_735" fill="#242424" d="m652.78 74.1-.47.18q0-.2-.03-.37z" transform="translate(-359.595 -57.713)"/><path id="Path_736" fill="#242424" d="m46.46 168.87-.04-.4.28.26-.06.16z" transform="translate(-43.768 -107.006)"/></g></g></g></svg>