<svg xmlns="http://www.w3.org/2000/svg" xmlns:xlink="http://www.w3.org/1999/xlink" width="600" height="300" viewBox="0 0 600 300">
  <defs>
    <clipPath id="clip-Logo">
      <rect width="600" height="300"/>
    </clipPath>
  </defs>
  <g id="Logo" clip-path="url(#clip-Logo)">
    <rect width="600" height="300" fill="#e8eff3"/>
    <g id="c" transform="translate(60.2 73.549)">
      <g id="Group_63" data-name="Group 63" transform="translate(40.88 40.075)">
        <path id="Path_684" data-name="Path 684" d="M84.931,91.048H72.872c-6.635-10.7-13.337-21.509-20.039-32.313l-.378.057V90.967H40.88V42.45H55.907C61.556,51.291,67.3,60.277,73.035,69.267l.354-.014V42.44H84.936V91.053Z" transform="translate(-40.88 -41.308)" fill="#242424"/>
        <path id="Path_685" data-name="Path 685" d="M314.148,90.953q-6.5-8.739-13.078-17.578h-5.711V90.939H282.74V42.661c.191-.148.311-.321.431-.321,9,.091,18.009.1,27.009.373a16.3,16.3,0,0,1,5.922,1.652c9.751,4.39,8.7,18.354,1.455,23.361-1.235.852-2.485,1.68-3.911,2.647,5.275,6.779,10.532,13.533,16.013,20.58H314.153Zm-18.77-26.784c2.676,0,5.132.029,7.583-.019a9.086,9.086,0,0,0,2.106-.369c3.27-.871,4.926-3.193,4.835-6.716-.086-3.246-1.494-5.036-5.1-5.448a84.617,84.617,0,0,0-9.421-.072Z" transform="translate(-166.959 -41.256)" fill="#242424"/>
        <path id="Path_686" data-name="Path 686" d="M394.425,91.056V42.567c.182-.091.388-.287.589-.287,7.961.105,15.941-.091,23.873.445,7.87.531,14.409,4.04,18.45,11.116,7.86,13.758,1.637,34.525-17.554,36.621-6.7.732-13.514.436-20.278.589-1.652.038-3.308,0-5.084,0Zm12.753-39.192V81.7c3.839.211,7.573.316,11.173-.814,4.428-1.388,7.5-4.356,8.354-8.952a28.483,28.483,0,0,0,.335-8.985c-.852-6.166-5.031-10.2-11.178-11.015a68.042,68.042,0,0,0-8.689-.062Z" transform="translate(-225.176 -41.224)" fill="#242424"/>
        <path id="Path_687" data-name="Path 687" d="M180.353,91.189a74.982,74.982,0,0,1-9.129-1.585,20.941,20.941,0,0,1-14.682-14.744,31.3,31.3,0,0,1,.182-19.273A20.916,20.916,0,0,1,171.349,41.4a31.659,31.659,0,0,1,17.674-.129A22.12,22.12,0,0,1,205.309,60.7a36.638,36.638,0,0,1-.589,12.82c-2.441,9.938-10.493,16.539-20.968,17.243-1.111.077-2.231.01-3.346.01C180.387,90.912,180.368,91.051,180.353,91.189ZM167.988,65.731a69.325,69.325,0,0,0,2.092,8.751c1.733,4.639,5.4,7.056,10.335,7.075A10.472,10.472,0,0,0,190.794,74.5a23.142,23.142,0,0,0-.316-18.584c-1.968-4.351-5.52-6.453-10.3-6.372a10.463,10.463,0,0,0-9.943,6.563,30.55,30.55,0,0,0-2.245,9.627Z" transform="translate(-100.428 -40.075)" fill="#242424"/>
        <path id="Path_688" data-name="Path 688" d="M523.856,42.469c0,7.578-.01,14.912,0,22.241,0,3.346-.1,6.707.12,10.043s1.4,6.266,4.959,7.444a12.523,12.523,0,0,0,7.985,0,6.706,6.706,0,0,0,4.653-5.295,20.544,20.544,0,0,0,.45-4.261c.038-9.172.019-18.339.019-27.512V42.44h12.47c.048.766.129,1.455.129,2.149q.014,14.713,0,29.426c-.019,9.215-4.725,15.2-13.705,17.272a35.33,35.33,0,0,1-15.888.038c-9-2.044-13.643-7.564-13.892-17.167-.273-10.359-.043-20.733-.029-31.1a2.331,2.331,0,0,1,.215-.589h12.509Z" transform="translate(-285.96 -41.308)" fill="#242424"/>
        <path id="Path_689" data-name="Path 689" d="M762.836,86.612H736.062a7.258,7.258,0,0,0,4.7,7.449,17.384,17.384,0,0,0,11.939.613,63.251,63.251,0,0,0,6.6-2.71l2.518-1.053v10.1c-3.107.766-6.29,1.819-9.555,2.3a35.167,35.167,0,0,1-16.089-1.039c-7.808-2.532-12.14-8.4-12.375-16.563-.129-4.557.479-8.923,3.088-12.786a17.854,17.854,0,0,1,11.714-7.612,28.787,28.787,0,0,1,11.638-.043c6.826,1.417,10.958,5.663,11.968,12.547.412,2.81.421,5.682.637,8.789Zm-12.269-7.1c-.168-5.237-2.834-7.64-7.793-7.214-4.5.388-7.19,3.25-6.678,7.214h14.471Z" transform="translate(-396.866 -52.908)" fill="#242424"/>
        <path id="Path_690" data-name="Path 690" d="M639.829,69.4c1.5-.9,2.954-1.872,4.5-2.686a15.687,15.687,0,0,1,11.135-1.35c4.8,1.1,7.5,4.241,8.545,8.918a15.517,15.517,0,0,1,.436,3.313c.038,8.282.019,16.559.019,25.046H652.514c0-.78.01-1.623,0-2.465-.105-6.688-.086-13.38-.369-20.063-.177-4.2-2.47-6.017-6.664-5.438a43.594,43.594,0,0,0-6.175,1.776v26.243H627.43V66.161h11.733c.057,1.024.11,2.039.167,3.049.01.124.024.244.034.369.158-.062.316-.124.469-.187Z" transform="translate(-346.641 -53.018)" fill="#242424"/>
        <path id="Path_691" data-name="Path 691" d="M832.844,55.863h10.919v8.076H833.169a7.02,7.02,0,0,0-.249,1.235c-.014,5.026-.033,10.053,0,15.075.024,4.026,2.561,5.429,6.19,5.022a40.966,40.966,0,0,0,4.711-1.087v8.239c-5.022,1.182-10.048,1.656-15.084.378-5.223-1.326-7.7-4.648-7.774-10.307-.067-5.505-.014-11.006-.014-16.511v-1.9H816.29V55.935h4.576V45.48h11.987V55.868Z" transform="translate(-445.092 -42.892)" fill="#242424"/>
        <path id="Path_692" data-name="Path 692" d="M646.626,164.363h3.3c-.359,1.551-.661,2.872-1.072,4.658.637.455,1.58,1.139,2.528,1.819l-.349.685c-1.532-.191-3.064-.378-5.06-.627a20.753,20.753,0,0,1-3.59.7c-1.824.081-3.571-.488-4.318-2.365a3.418,3.418,0,0,1,1.532-4.438,16.915,16.915,0,0,1-1.163-3.035,2.407,2.407,0,0,1,.761-1.661c1.326-1.427,5.141-1.541,6.716-.287,1.192.953,1.216,1.877.1,4.036-.555.349-1.115.7-1.8,1.13l2.274,1.738c.062-.972.11-1.666.158-2.36Zm-5.06,1.561c-.708,1.254-.747,2.188.148,2.963a2.324,2.324,0,0,0,3.169.024Zm1.594-2.274c.445-1.115,1.029-2.011-.134-2.666a1.424,1.424,0,0,0-1.316.464C641.279,162.549,641.973,163.167,643.16,163.65Z" transform="translate(-352.027 -102.042)" fill="#242424"/>
        <path id="Path_693" data-name="Path 693" d="M43.737,164.369v7.439H41.19V159.84h3.533c1.3,1.886,2.729,3.959,4.476,6.5v-6.472h2.8v11.949h-2.71q-2.664-3.806-5.309-7.588c-.091-.086-.187-.172-.278-.259.014.134.029.263.043.4Z" transform="translate(-41.042 -102.507)" fill="#242424"/>
        <path id="Path_694" data-name="Path 694" d="M453.347,171.783h-3.667c-1.833-1.24-2.145-4.031-4.955-4.409v4.337H441.71V159.767c2.355,0,4.634-.057,6.913.019a3.1,3.1,0,0,1,3.025,2.3,3.393,3.393,0,0,1-1.063,3.681c-.345.326-.694.651-1.082,1.015,1.226,1.594,2.422,3.155,3.839,5Zm-8.535-6.123a22.123,22.123,0,0,0,3.432-1.388,1.9,1.9,0,0,0,.038-1.642,24.466,24.466,0,0,0-3.471-1.12v4.155Z" transform="translate(-249.828 -102.458)" fill="#242424"/>
        <path id="Path_695" data-name="Path 695" d="M194.2,160.181v2.7c-2.389-1.249-4.754-2.7-7.1-.531-1.436,1.326-1.393,3.217-.742,4.912.732,1.9,2.4,2.389,4.486,2.207v-2.336c-.68-.062-1.36-.124-2.116-.191v-2.082h5.376v5.749c-4.27,1.771-8.229,1.278-10.12-1.245a7.127,7.127,0,0,1,.2-8.239c2.121-2.451,6.118-2.858,10.019-.953Z" transform="translate(-114.847 -102.058)" fill="#242424"/>
        <path id="Path_696" data-name="Path 696" d="M283.779,165.78c.627,2.006,1.192,3.806,1.9,6.056.618-2.245,1.115-4.059,1.628-5.931h2.891c-.934,3.059-1.829,5.979-2.738,8.966h-3.121c-.574-1.757-1.173-3.59-1.924-5.9-.766,2.331-1.345,4.112-1.944,5.936H277.4c-.9-2.939-1.79-5.869-2.738-8.971h2.9c.493,1.776.991,3.566,1.484,5.357.12,0,.235,0,.354-.01.594-1.752,1.187-3.509,1.819-5.371l2.566-.124Z" transform="translate(-162.747 -105.603)" fill="#242424"/>
        <path id="Path_697" data-name="Path 697" d="M118.382,158.7h2.69v12.475c-2.044.421-4.141-.5-6.166.278-.44.168-1.23-.263-1.733-.608-1.585-1.087-2.159-4.179-1.264-6.343a4.268,4.268,0,0,1,5.05-2.508c.3.053.6.11,1.048.191C118.137,160.969,118.257,159.835,118.382,158.7Zm-.306,5.524c-1.522-.316-2.681-.287-3.207,1.12-.46,1.23-.57,2.556.493,3.5a1.807,1.807,0,0,0,2.714-.321Z" transform="translate(-77.686 -101.913)" fill="#242424"/>
        <path id="Path_698" data-name="Path 698" d="M711.4,162.281c.067-1.288.12-2.307.182-3.471h2.714v12.279c-2.054.158-4.083.393-6.118.431a3.358,3.358,0,0,1-1.929-.79c-1.561-1.23-1.967-4.318-.957-6.41a4.188,4.188,0,0,1,4.964-2.255c.306.057.608.115,1.144.22Zm0,2.044c-1.417-.354-2.575-.436-3.217.953-.574,1.24-.67,2.633.383,3.509.594.493,1.781.273,2.839.388V164.33Z" transform="translate(-386.94 -101.97)" fill="#242424"/>
        <path id="Path_699" data-name="Path 699" d="M690.886,159.855v2.121h-5.381c-.043.8-.077,1.374-.12,2.183H690.6v2.35h-5.189V169.4h5.491v2.374H682.37V159.85h8.512Z" transform="translate(-375.281 -102.512)" fill="#242424"/>
        <path id="Path_700" data-name="Path 700" d="M601.115,158.75H603.9v4.021c.488-.153.78-.22,1.058-.335q5.149-2.068,5.194,3.538c.014,1.666,0,3.337,0,5.232-.914.043-1.747.086-2.954.144,0-1.652.043-3.207-.01-4.758-.081-2.288-.728-2.666-3.236-1.79v6.4H601.11V158.75Z" transform="translate(-332.921 -101.939)" fill="#242424"/>
        <path id="Path_701" data-name="Path 701" d="M782.22,168.457c-1.513-1.776-3.212-.957-5.007-.713-.057-.613-.12-1.221-.187-1.92a10.307,10.307,0,0,1,6.132-.321,2.7,2.7,0,0,1,2.245,2.714c.053,2.063.014,4.126.014,6.319a5.6,5.6,0,0,1-1.958.091,4.668,4.668,0,0,0-3.083.091,3.07,3.07,0,0,1-4.117-2.173c-.349-1.642.756-3.121,2.738-3.562,1.063-.235,2.149-.349,3.227-.517Zm0,1.867c-1.293.139-2.7-.163-2.858,1.5-.029.278.962.919,1.494.938,1.556.057,1.738-.962,1.364-2.437Z" transform="translate(-424.192 -105.288)" fill="#242424"/>
        <path id="Path_702" data-name="Path 702" d="M537.412,167.7v-1.891a10.386,10.386,0,0,1,5.831-.354,2.917,2.917,0,0,1,2.528,3c.053,1.972.014,3.949.014,6.1a5.147,5.147,0,0,1-1.934.086c-1.187-.493-2.226-.1-3.351.153-1.963.431-3.528-.512-3.868-2.188-.354-1.757.622-3.15,2.609-3.6,1.111-.249,2.25-.369,3.791-.613-2.025-1.752-3.739-.8-5.62-.685Zm5.146,2.666c-1.23.12-2.671-.354-2.882,1.484-.029.263.977.914,1.513.919,1.513.014,1.742-.967,1.374-2.4Z" transform="translate(-299.272 -105.294)" fill="#242424"/>
        <path id="Path_703" data-name="Path 703" d="M834.1,165.164c3.073.038,4.955,1.9,4.95,4.888,0,3.073-2.011,4.936-5.213,4.835-3.093-.1-4.9-1.953-4.835-4.979.057-2.93,2.054-4.787,5.1-4.749Zm1.829,4.964c.014-1.814-.617-2.791-1.838-2.844-1.245-.053-1.939.9-1.963,2.71-.024,1.867.56,2.762,1.833,2.805C835.26,172.843,835.911,171.957,835.925,170.128Z" transform="translate(-451.716 -105.28)" fill="#242424"/>
        <path id="Path_704" data-name="Path 704" d="M316.753,168.357c-2.044-1.7-3.744-.862-5.539-.608-.067-.613-.134-1.221-.211-1.92a10.22,10.22,0,0,1,6.128-.34,2.7,2.7,0,0,1,2.264,2.7c.062,2.063.014,4.126.014,6.333a5.77,5.77,0,0,1-1.944.1,4.761,4.761,0,0,0-3.083.077,3.067,3.067,0,0,1-4.131-2.145c-.383-1.733.785-3.188,2.944-3.619.991-.2,2-.326,3.557-.574Zm-.546,1.948c-1.206.2-2.681-.3-2.858,1.561-.024.263,1,.881,1.541.886,1.58.019,1.675-1.029,1.312-2.446Z" transform="translate(-181.263 -105.284)" fill="#242424"/>
        <path id="Path_705" data-name="Path 705" d="M212,165.744c2.236,0,4.122-.115,5.984.034a2.549,2.549,0,0,1,2.422,2.753c.053,2.049.014,4.1.014,6.276a5.762,5.762,0,0,1-1.968.086,4.611,4.611,0,0,0-3.064.086,3.08,3.08,0,0,1-4.122-2.13c-.393-1.719.761-3.2,2.891-3.629,1.044-.211,2.106-.326,3.576-.546-1.977-1.719-3.657-.943-5.51-.646-.062-.632-.124-1.278-.225-2.288Zm5.213,4.84c-1.206.2-2.681-.3-2.858,1.561-.024.263,1,.881,1.541.886,1.58.019,1.675-1.029,1.312-2.446Z" transform="translate(-129.661 -105.562)" fill="#242424"/>
        <path id="Path_706" data-name="Path 706" d="M79.053,170.118c-.029,2.982-1.929,4.792-5.031,4.787s-5-1.814-5.022-4.8c-.024-3.045,2.02-5,5.151-4.931,3.064.067,4.926,1.944,4.9,4.94Zm-6.927-.034c0,1.848.627,2.738,1.915,2.729s1.9-.914,1.886-2.757c-.014-1.824-.67-2.772-1.92-2.772C72.8,167.284,72.121,168.294,72.126,170.085Z" transform="translate(-55.538 -105.289)" fill="#242424"/>
        <path id="Path_707" data-name="Path 707" d="M385,169.7c.148-2.863,2.279-4.682,5.309-4.533a4.635,4.635,0,0,1,4.734,5.338c-.2,2.877-2.3,4.572-5.419,4.375A4.54,4.54,0,0,1,385,169.709Zm6.922.349c-.014-1.8-.685-2.772-1.915-2.777-1.211,0-1.891,1.005-1.891,2.791,0,1.848.622,2.738,1.91,2.733s1.905-.91,1.891-2.748Z" transform="translate(-220.26 -105.281)" fill="#242424"/>
        <path id="Path_708" data-name="Path 708" d="M740.217,175.265c-1.154-.134-2.2-.258-3.241-.383.01-.105.024-.211.034-.316a12.953,12.953,0,0,1-1.532.641c-2.437.67-4.155-.445-4.318-2.944-.129-1.963-.024-3.945-.024-6.084h3.15v6.6h3V166.16h2.93v9.11Z" transform="translate(-400.681 -105.801)" fill="#242424"/>
        <path id="Path_709" data-name="Path 709" d="M522.35,172.314v1.7a8.494,8.494,0,0,1-6.5.488,4.047,4.047,0,0,1-3.021-4.088c-.1-2.322.881-4.074,2.781-4.787,3.882-1.46,7.746.665,6.6,5.022h-6.367c1.077,2.4,2.288,2.7,5.634,1.589l.871.072Zm-3.03-3.5c.105-.206.215-.416.321-.622-.637-.393-1.245-1.029-1.92-1.115-1.024-.134-1.757.479-1.843,1.743h3.447Z" transform="translate(-286.9 -105.287)" fill="#242424"/>
        <path id="Path_710" data-name="Path 710" d="M477.335,172.286v1.7a8.486,8.486,0,0,1-6.51.479,3.825,3.825,0,0,1-2.906-3.16c-.306-1.886-.1-3.672,1.484-5.007a5.9,5.9,0,0,1,6.094-.594c1.752,1.005,2.125,2.647,1.853,4.849h-6.587c1.192,2.48,2.36,2.762,5.7,1.656l.871.072Zm-6.491-3.633h3.705C473.137,166.36,472.079,166.413,470.844,168.653Z" transform="translate(-263.428 -105.26)" fill="#242424"/>
        <path id="Path_711" data-name="Path 711" d="M261.355,172.311v1.7a8.432,8.432,0,0,1-6.5.488,4.026,4.026,0,0,1-3.016-4.088c-.1-2.322.881-4.074,2.781-4.787,3.878-1.455,7.746.67,6.606,4.974h-6.4c1.1,2.456,2.312,2.748,5.658,1.637l.871.072Zm-2.877-3.5c-.2-1.173-.67-1.886-1.848-1.781a1.7,1.7,0,0,0-1.743,1.781Z" transform="translate(-150.849 -105.284)" fill="#242424"/>
        <path id="Path_712" data-name="Path 712" d="M864.308,174.65h-2.949c0-1.6.034-3.169-.01-4.725-.062-2.331-.651-2.662-3.236-1.68v6.343H855.26v-9.014a5.547,5.547,0,0,1,2.245.057,2.756,2.756,0,0,0,2.417-.1c2.542-.852,4.261.316,4.366,2.982.077,1.972.014,3.945.014,6.137Z" transform="translate(-465.406 -105.33)" fill="#242424"/>
        <path id="Path_713" data-name="Path 713" d="M340.485,166.01h2.992c-1.719,4.265-3.351,8.32-4.974,12.351H335.11c2.456-3.059.723-5.668-.34-8.349-.493-1.245-.938-2.508-1.47-3.945h2.93c.627,1.57,1.288,3.227,2.169,5.424.8-2.092,1.427-3.734,2.087-5.472Z" transform="translate(-193.315 -105.723)" fill="#242424"/>
        <path id="Path_714" data-name="Path 714" d="M492.05,174.118v-2.26c1.752.67,3.4,1.427,5.113.584l.124-.589c-.608-.2-1.211-.412-1.819-.6-.68-.211-1.565-.2-2.011-.637-.661-.661-1.484-1.7-1.379-2.451a3.838,3.838,0,0,1,1.833-2.461c1.838-.977,3.854-.656,6,.1.048.57.11,1.235.187,2.111-1.781-.211-3.413-1.3-5.534.206,1.331.369,2.178.627,3.03.838,1.929.483,2.786,1.316,2.781,2.748s-1.1,2.552-2.93,2.944a8.675,8.675,0,0,1-5.4-.536Z" transform="translate(-276.069 -105.248)" fill="#242424"/>
        <path id="Path_715" data-name="Path 715" d="M375.548,158.487c.043.627.077,1.158.11,1.661-.847.632-2.446-.517-2.738,1.436l2.03.5v1.546c-.574.134-1.216.292-2,.474v6.807h-2.882v-6.405c-1.125-.933-2.59-1.647-.474-2.767.172-.091.254-.388.354-.6,1.407-2.93,2-3.231,5.6-2.662Z" transform="translate(-211.675 -101.676)" fill="#242424"/>
        <path id="Path_716" data-name="Path 716" d="M762.619,168.049c-2.791-1.063-4.256-.483-4.481,1.762a2.5,2.5,0,0,0,3.452,2.844,17.785,17.785,0,0,0,1.838-.823v2.188c-2.561,1.431-5.587,1.182-7.238-.579a5.293,5.293,0,0,1-.5-6c1.02-1.8,4.773-3.045,7.789-1.331v1.872C763.193,168.006,762.906,168.03,762.619,168.049Z" transform="translate(-413.139 -105.35)" fill="#242424"/>
        <path id="Path_717" data-name="Path 717" d="M156.618,168.049c-2.791-1.063-4.256-.483-4.481,1.762a2.5,2.5,0,0,0,3.452,2.844,17.779,17.779,0,0,0,1.838-.823v2.188c-2.566,1.431-5.587,1.182-7.238-.579a5.294,5.294,0,0,1-.5-6c1.02-1.8,4.773-3.045,7.789-1.331v1.872c-.287.024-.574.048-.862.067Z" transform="translate(-97.239 -105.35)" fill="#242424"/>
        <path id="Path_718" data-name="Path 718" d="M806.007,164.98c-1.082.053-1.786.081-2.6.12v5.017c.89.134,1.642.249,2.5.383v1.7a18.323,18.323,0,0,1-2.6.22c-2.193-.12-2.939-.924-3.006-3.131-.038-1.269-.01-2.537-.01-3.806-1.082-.766-2.4-1.4-.359-2.638.455-.273.369-1.446.565-2.36h2.59c.091.728.182,1.484.292,2.394.728.086,1.494.177,2.47.3.048.512.1,1.072.163,1.8Z" transform="translate(-436.01 -102.846)" fill="#242424"/>
        <path id="Path_719" data-name="Path 719" d="M586.642,166.091v2.365c-1.685-.56-3.452-1.982-4.854.1a2.773,2.773,0,0,0,.191,3.552c1.46,1.527,3.049.6,4.644-.326v2.312c-2.614,1.383-5.644,1.125-7.243-.608a5.134,5.134,0,0,1-.445-5.993c1.364-2.14,4.088-2.681,7.707-1.4Z" transform="translate(-320.966 -105.407)" fill="#242424"/>
        <path id="Path_720" data-name="Path 720" d="M241.158,164.894c-.943.077-1.7.134-2.441.191v5.065c.91.077,1.6.134,2.432.206.043.488.086,1.01.168,1.939-1.178,0-2.255.072-3.322-.019a2.477,2.477,0,0,1-2.446-2.681c-.024-.713-.01-1.427-.01-2.145a8.863,8.863,0,0,1,.01-1.427c.191-1.144-2.374-1.762-.9-2.743,1.3-.862.474-2.03,1.2-2.911h2.427c.11.728.225,1.479.369,2.4l2.523.364v1.757Z" transform="translate(-141.648 -102.783)" fill="#242424"/>
        <path id="Path_721" data-name="Path 721" d="M562.15,165.483l3.212.622c-.038.1-.077.2-.115.292,1.029-.3,2.058-.589,3.332-.957.053,1.082.091,1.848.134,2.748l-3.71.436v6.051H562.15Z" transform="translate(-312.612 -105.426)" fill="#242424"/>
        <path id="Path_722" data-name="Path 722" d="M99.036,166.217c.823-.23,1.642-.46,2.681-.747v2.777c-1.091.134-2.236.273-3.523.426v6.041c-.991.048-1.829.086-2.844.134V165.5l2.839.665.843.057Z" transform="translate(-69.275 -105.442)" fill="#242424"/>
        <path id="Path_723" data-name="Path 723" d="M415.041,166.217c.823-.23,1.642-.46,2.681-.747v2.777l-3.523.431v6.041c-.991.048-1.829.086-2.839.134V165.5l2.839.665.843.057Z" transform="translate(-234.007 -105.442)" fill="#242424"/>
        <path id="Path_724" data-name="Path 724" d="M138.33,166.06H141v8.966c-.838.038-1.671.077-2.666.12Z" transform="translate(-91.68 -105.749)" fill="#242424"/>
        <path id="Path_725" data-name="Path 725" d="M820.99,175.075H818.3v-9h2.69Z" transform="translate(-446.14 -105.755)" fill="#242424"/>
        <path id="Path_726" data-name="Path 726" d="M138.12,160.766v-2h2.872c.034.618.072,1.245.115,2Z" transform="translate(-91.57 -101.949)" fill="#242424"/>
        <path id="Path_727" data-name="Path 727" d="M817.91,158.63h2.954c.048.661.091,1.288.148,2.054h-3C817.987,160.119,817.953,159.482,817.91,158.63Z" transform="translate(-445.936 -101.876)" fill="#242424"/>
        <path id="Path_728" data-name="Path 728" d="M164.92,170.977c.287-.024.574-.048.862-.067C165.494,170.934,165.207,170.958,164.92,170.977Z" transform="translate(-105.541 -108.278)" fill="#242424"/>
        <path id="Path_729" data-name="Path 729" d="M770.92,170.977c.287-.024.574-.048.862-.067C771.494,170.934,771.207,170.958,770.92,170.977Z" transform="translate(-421.441 -108.278)" fill="#242424"/>
        <path id="Path_730" data-name="Path 730" d="M270.771,180.012l-.871-.072Z" transform="translate(-160.265 -112.985)" fill="#242424"/>
        <path id="Path_731" data-name="Path 731" d="M486.771,180.012l-.871-.072Z" transform="translate(-272.864 -112.985)" fill="#242424"/>
        <path id="Path_732" data-name="Path 732" d="M531.771,180.012l-.871-.072Z" transform="translate(-296.321 -112.985)" fill="#242424"/>
        <path id="Path_733" data-name="Path 733" d="M418.133,166.967l-.843-.057Z" transform="translate(-237.098 -106.192)" fill="#242424"/>
        <path id="Path_734" data-name="Path 734" d="M102.133,166.967l-.843-.057Z" transform="translate(-72.371 -106.192)" fill="#242424"/>
        <path id="Path_735" data-name="Path 735" d="M652.783,74.092c-.158.062-.316.124-.469.187-.01-.124-.024-.244-.034-.369.168.062.335.12.507.182Z" transform="translate(-359.595 -57.713)" fill="#242424"/>
        <path id="Path_736" data-name="Path 736" d="M46.463,168.867c-.014-.134-.029-.263-.043-.4.091.086.187.172.278.259l-.062.168-.172-.024Z" transform="translate(-43.768 -107.006)" fill="#242424"/>
      </g>
    </g>
  </g>
</svg>
