<svg xmlns="http://www.w3.org/2000/svg" xmlns:xlink="http://www.w3.org/1999/xlink" width="600" height="300" viewBox="0 0 600 300"><defs><clipPath id="clip-Logo"><path d="M0 0h600v300H0z"/></clipPath></defs><g id="Logo" clip-path="url(#clip-Logo)"><path fill="#e8eff3" d="M0 0h600v300H0z"/><g id="NTNU_Hjemmeside" transform="translate(98.909 111.073)"><g id="Group_64" transform="translate(1.091 .914)"><path id="Path_737" fill="#00509e" d="M57.25.91H19.8A18.7 18.7 0 0 0 1.1 19.62v37.45a18.7 18.7 0 0 0 18.7 18.71h37.45a18.7 18.7 0 0 0 18.71-18.71V19.62A18.7 18.7 0 0 0 57.25.92M19.8 19.62h37.45v37.45H19.8z" transform="translate(-1.091 -.914)"/><path id="Path_738" fill="#00509e" d="M25.68 10.14A15.36 15.36 0 1 0 41.03 25.5a15.36 15.36 0 0 0-15.35-15.36" transform="translate(11.633 11.81)"/><path id="Path_739" d="m63.48.95 36.47 53V13.17l-.11-9.7H88.88V.95h23.5v2.53h-9.06l-.11 9.69v63.12l-1.68.53L52.63 5.7v57.1l.1 10H64v2.54H39.67v-2.53h9.7l.1-10.01V13.17l-.1-9.7h-9.7V.95z" transform="translate(52.1 -.87)"/><path id="Path_740" d="M139.04.95v23.8h-3.16a29 29 0 0 0-4.01-13.8c-3.79-6.42-8.95-6.74-14.01-6.95h-5.9l-.1 9.49v48.58l.1 10.75h11.37v2.53H88.77v-2.53h11.38l.1-10.75V13.49l-.1-9.49h-4.84c-6.12.1-10.75.1-15.18 7.17a26 26 0 0 0-4 13.59h-3.06V.95z" transform="translate(98.158 -.87)"/><path id="Path_741" d="m127.18.95 36.47 53V13.17l-.1-9.7h-10.97V.95h23.5v2.53h-9.06l-.1 9.69v63.12l-1.69.53-48.9-71.13V62.8l.1 10h11.28v2.54h-24.34v-2.53h9.7l.1-10.01V13.17l-.1-9.7h-9.7V.95z" transform="translate(139.939 -.87)"/><path id="Path_742" d="M169.34.95v2.53h-10.43l-.1 8.95v40.26c.1 10.43.3 20.33 19.91 20.33 19.81 0 21.07-8.64 21.4-18.02V12.43l-.1-8.95h-10.66V.95h23.29v2.53h-9.16l-.11 8.95v38.36c-.11 13.8-.21 25.6-27.51 25.6-3.9 0-13.17-.4-19.07-2.84-9.38-4-9.6-12.22-9.7-22.34V12.43l-.1-8.95h-9.06V.94z" transform="translate(187.601 -.87)"/></g></g></g></svg>