<svg xmlns="http://www.w3.org/2000/svg" xmlns:xlink="http://www.w3.org/1999/xlink" width="600" height="300" viewBox="0 0 600 300"><defs><clipPath id="clip-Logo"><path d="M0 0h600v300H0z"/></clipPath></defs><g id="Logo" clip-path="url(#clip-Logo)"><path fill="#e8eff3" d="M0 0h600v300H0z"/><g id="Oru_logo_cmyk_Word" transform="translate(163.01 50.919)"><path id="Path_743" fill="#d51317" fill-rule="evenodd" d="M136.67 102.84c5.1 11.9 14.4 18.7 20 22.31 7.98 5.11 30.36 10.35 30.36 10.35s22.44-5.18 30.41-10.35c5.61-3.61 14.84-10.4 20-22.31a57 57 0 0 0 4.3-21.63V0h-38.5v16.02h-16.96V0H168.2v16.02h-17.01V0h-18.82v81.21c0 1.62-.88 9.73 4.3 21.63" transform="translate(-49.857)"/><path id="Path_744" fill="#fff" fill-rule="evenodd" d="M155.7 91.22c0 21.82 11.22 31.23 30.3 31.23s30.28-9.41 30.28-31.23v-23C216.28 46.42 205.06 37 186 37s-30.29 9.41-30.29 31.23Z" transform="translate(-58.668 -13.939)"/><path id="Path_745" fill="#4a96d2" fill-rule="evenodd" d="M196.72 60.8a12.25 12.25 0 0 1 12.27 12.22v30.85a12.25 12.25 0 0 1-24.49 0V73.02a12.16 12.16 0 0 1 12.22-12.22" transform="translate(-69.518 -22.905)"/><g id="Group_65" transform="translate(-.029 56.254)"><path id="Path_746" d="M26.04 94.15a1.55 1.55 0 0 1 1.69 1.43 1.64 1.64 0 0 1-1.5 1.68 1.54 1.54 0 0 1-1.62-1.5 1.5 1.5 0 0 1 1.43-1.61m.38 6.48a1.55 1.55 0 0 1 1.68 1.43 1.64 1.64 0 0 1-1.5 1.69 1.54 1.54 0 0 1-1.62-1.5 1.5 1.5 0 0 1 1.44-1.62m-15.4-10.35c5.86-.37 11.78 3.12 12.1 8.85s-5.12 9.85-10.98 10.23S.3 106.24 0 100.56c-.37-5.79 5.17-9.9 11.03-10.28m.87 15.27c6.86-.43 10.72-1.8 10.48-6.35s-4.3-5.49-11.16-5.12C4.35 94.53.49 95.9.74 100.45c.3 4.55 4.36 5.49 11.15 5.11Z" transform="translate(.029 -90.256)"/><path id="Path_747" d="m3 132.04.75-.2.62 2.5 20.07-4.86-.62-2.5.75-.18 2.3 9.54c1.5 6.17-1.56 7.91-3 8.28-4.23 1-5.91-2.49-6.9-5.48h-.07c-.06 3.93-.81 6.8-5.92 7.73-1.56.25-3 .8-3.12 1.62-.25.68.69 1.68 1.44 2.3l-.5.5a4.3 4.3 0 0 1-2.19-2.49c-.56-2.3.32-3.86 1.75-4.67.56-.32 3.12-1.13 4.99-1.81 1.43-.5 3.8-1.37 2.8-5.49l-.5-1.93-10.53 2.56.62 2.55-.75.19Zm13.4 2.68.44 1.74c.87 3.55 1.68 5.73 6.1 4.61 3.12-.75 3.8-2.37 3-5.42l-.75-3.05Z" transform="translate(-1.112 -104.023)"/><path id="Path_748" d="m14.9 172.07.69-.3 1.24 2.61 18.64-8.85-1.25-2.62.69-.31 7.23 15.2-4.86 2.31-.31-.68c3.3-2.18 3.05-4.37 1.8-7.1l-1.87-3.93-8.66 4.11c1.43 3.06 1.93 4 5.3 2.87l.3.69-7.6 3.61-.3-.68c3.11-1.69 2.93-3.18 1.55-6.11l-9.29 4.42 1.75 3.61c1.87 4 2.99 5.05 7.79 3.74l.37.81-5.8 2.31Z" transform="translate(-5.595 -117.511)"/><path id="Path_749" d="m34.4 207.85.62-.43 1.5 2.05L53.1 197.2l-1.5-2.05.62-.44 5.11 6.92c3.87 5.23 2.06 8.23.38 9.47-2.62 1.93-5.61.5-7.48-1.5l-.06.06c2.24 3.87 1 7.23-.69 8.42-2.06 1.5-5.73 2.5-10.03-3.3Zm4.05 4.18 1.68 2.24c2.31 3.12 3.87 3.05 7.23.56s2.8-4.61.44-7.79l-.93-1.25Zm9.1-6.73 1.68 2.3c2 2.68 3.56 2.62 6.42.5 2.5-1.87 3-3.61 1-6.3l-1.55-2.05Z" transform="translate(-12.942 -129.604)"/><path id="Path_750" d="m60.6 239 .5-.57 1.87 1.75 13.9-15.27-1.87-1.75.5-.56 7.23 6.6c4.74 4.3 3.18 7.42 2.18 8.55-2.93 3.24-6.3 1.24-8.79-.63l-.06.06c2.18 3.3 3.18 6.05-.62 9.73-1.12 1.12-2 2.37-1.68 3.11.18.75 1.55 1 2.49 1.13l-.13.68a4.2 4.2 0 0 1-3.18-.87 4 4 0 0 1-1.18-4.86c.25-.56 1.93-2.68 3.12-4.3.93-1.25 2.36-3.3-.75-6.11l-1.5-1.37-7.3 7.98 1.94 1.75-.5.56Zm12.59-5.24 1.3 1.18c2.69 2.43 4.62 3.8 7.68.44 2.18-2.37 1.8-4.05-.57-6.24l-2.3-2.11Z" transform="translate(-22.812 -140.115)"/><path id="Path_751" d="M103.04 259.48c2.87-5.1 8.98-8.22 13.96-5.42s5.55 9.6 2.68 14.77c-2.87 5.11-9.04 8.3-14.02 5.49-4.99-2.87-5.49-9.72-2.62-14.84m13.28 7.48c3.36-5.98 4.3-10.03.3-12.28s-6.91.63-10.28 6.61-4.3 10.04-.3 12.28c3.98 2.3 6.97-.62 10.28-6.6" transform="translate(-38.14 -151.569)"/><path id="Path_752" d="m166.99 273.96-.19.75-2.5-.63-4.04 15.96a4.44 4.44 0 0 0 3.43 5.36c4.8 1.25 6.29-1.93 7.29-6.05l3.24-12.77-2.5-.63.2-.75 5.8 1.5-.2.75-2.49-.62-3.49 13.77c-1.3 5.05-4.11 6.92-8.97 5.68-4.18-1.06-6.24-4-5.3-7.6l3.86-15.4-2.5-.62.2-.75Z" transform="translate(-59.145 -158.687)"/><path id="Path_753" d="m199.29 281.47-2.62-.12v-.75l6.48.31 8.8 16.46h.05l.62-15.27-2.62-.13v-.75l6.17.25v.75l-2.55-.12-.87 21.87h-.88l-11.58-21.75h-.06l-.81 20 2.55.13v.75l-6.17-.25v-.75l2.62.13Z" transform="translate(-73.747 -161.965)"/><path id="Path_754" d="m247.23 301.16-8.85 1.06-.06-.74 2.8-.38-2.5-20.5-2.86.31-.06-.75 8.85-1.06.06.75-2.87.31 2.5 20.5 2.86-.3Z" transform="translate(-88.778 -161.4)"/><path id="Path_755" d="m256 275.29 8.1-2.31.19.75-2.5.75 9.98 14.4h.06l.5-17.4-2.93.82-.19-.75 6.05-1.75.19.75-2.25.69-.68 23-.81.25-13.22-19.01-2.3.68Z" transform="translate(-96.426 -157.896)"/><path id="Path_756" d="m302.12 282.69-.37-.69 2.62-1.3-9.48-18.4-2.62 1.31-.37-.68 14.96-7.73 2.5 4.8-.63.31c-2.3-3.24-4.49-2.93-7.17-1.56l-3.86 2 4.36 8.47c3-1.55 3.93-2.05 2.74-5.42l.62-.31 3.87 7.48-.63.31c-1.8-3.05-3.24-2.8-6.17-1.3l4.68 9.1 3.55-1.88c3.93-2 4.93-3.18 3.5-7.91l.74-.38 2.43 5.74Z" transform="translate(-109.951 -152.396)"/><path id="Path_757" d="m337.44 262.98-.5-.63 2-1.62-12.85-16.14-2 1.62-.5-.62 7.67-6.11c4.99-3.99 7.86-1.93 8.8-.81 2.73 3.43.24 6.42-2.06 8.6l.06.06c3.61-1.62 6.48-2.18 9.53 2.12.94 1.3 2 2.37 2.8 2.18.75-.06 1.25-1.37 1.5-2.24l.69.25a4.2 4.2 0 0 1-1.37 2.99 3.9 3.9 0 0 1-4.99.37c-.5-.37-2.3-2.37-3.74-3.74-1.06-1.12-2.86-2.86-6.17-.25l-1.56 1.25 6.74 8.48 2.05-1.62.5.62Zm-3.18-13.28 1.37-1.12c2.87-2.3 4.49-3.93 1.62-7.48-2-2.5-3.74-2.43-6.23-.44l-2.5 2Z" transform="translate(-121.893 -145.589)"/><path id="Path_758" d="m370.6 235.5-.31.38-4.3-3.74.43-.5c3.12 1 6.11 1.12 8.23-1.3 1.87-2.13 2.37-5.37.19-7.3-1.5-1.3-2.43-1.56-4.93-.31-1.18.62-5.86 3.37-6.42 3.55a5.9 5.9 0 0 1-5.6-1.3 6.3 6.3 0 0 1-2.06-3.62 6.1 6.1 0 0 1 1.62-5.42 8 8 0 0 1 3.99-2.3l.12-1.57.31-.37 3.93 3.43-.43.5c-2.75-1-5.49-1.25-7.42 1-1.5 1.68-1.8 4.67.06 6.3 4.18 3.6 9.79-8.17 16.58-2.25 3.43 2.99 3.55 6.92.69 10.16a6.4 6.4 0 0 1-4.74 2.61Z" transform="translate(-133.992 -136.008)"/><path id="Path_759" d="m395.34 203.45-4.87 7.48-.62-.43 1.56-2.37-17.33-11.28-1.56 2.37-.62-.44 4.86-7.48.63.44-1.56 2.36 17.32 11.29 1.56-2.37Z" transform="translate(-140.089 -128.323)"/><path id="Path_760" d="m405.74 180.74-.69-.31 1.12-2.5-18.82-8.53-.93 2.06c-1.31 2.86.68 4.17 3.43 6.1l-.38.81-5.67-2.99 7.04-15.58 5.92 2.43-.37.81c-3.05-1-5.73-1-7.17 2.12l-.62 1.31 18.82 8.54 1.12-2.5.69.32Z" transform="translate(-144.572 -116.456)"/><path id="Path_761" d="m418.73 148.88-.75-.19.68-2.87-20.13-4.6-.68 2.86-.75-.19 3.8-16.39 5.3 1.18-.19.69c-3.99-.31-5.1 1.5-5.8 4.49l-1 4.24 9.35 2.11c.75-3.24.94-4.3-2.37-5.54l.19-.69 8.16 1.87-.18.69c-3.5-.63-4.24.68-4.99 3.86l9.97 2.3.88-3.92c1-4.3.8-5.8-3.8-7.79l.18-.87 5.99 1.8Z" transform="translate(-149.583 -104.287)"/><path id="Path_762" d="M426.61 105.05h-.75l.07-2.74-20.63-.63-.06 2.25c-.13 3.18 2.24 3.55 5.48 4.3v.87l-6.42-.56.56-17.08 6.42-.06v.87c-3.18.25-5.67 1.31-5.8 4.74l-.06 1.43 20.63.63.06-2.74h.75Z" transform="translate(-152.295 -90.687)"/></g></g></g></svg>