<svg xmlns="http://www.w3.org/2000/svg" xmlns:xlink="http://www.w3.org/1999/xlink" width="600" height="300" viewBox="0 0 600 300">
  <defs>
    <clipPath id="clip-Logo">
      <rect width="600" height="300"/>
    </clipPath>
  </defs>
  <g id="Logo" clip-path="url(#clip-Logo)">
    <rect width="600" height="300" fill="#e8eff3"/>
    <g id="Oru_logo_cmyk_Word" transform="translate(163.01 50.919)">
      <path id="Path_743" data-name="Path 743" d="M136.667,102.839c5.111,11.9,14.4,18.7,20.007,22.313,7.978,5.111,30.353,10.346,30.353,10.346s22.438-5.173,30.415-10.346c5.609-3.615,14.834-10.409,20.007-22.313a56.66,56.66,0,0,0,4.3-21.627V0H203.232V16.018H186.279V0H168.2V16.018H151.189V0H132.366V81.212C132.366,82.832,131.494,90.935,136.667,102.839Z" transform="translate(-49.857)" fill="#d51317" fill-rule="evenodd"/>
      <path id="Path_744" data-name="Path 744" d="M155.7,91.224c0,21.814,11.219,31.226,30.291,31.226s30.291-9.411,30.291-31.226v-23C216.281,46.411,205.063,37,185.991,37S155.7,46.411,155.7,68.226Z" transform="translate(-58.668 -13.939)" fill="#fff" fill-rule="evenodd"/>
      <path id="Path_745" data-name="Path 745" d="M196.716,60.8a12.249,12.249,0,0,1,12.278,12.216v30.852a12.247,12.247,0,0,1-24.494,0V73.016A12.156,12.156,0,0,1,196.716,60.8Z" transform="translate(-69.518 -22.905)" fill="#4a96d2" fill-rule="evenodd"/>
      <g id="Group_65" data-name="Group 65" transform="translate(-0.029 56.254)">
        <path id="Path_746" data-name="Path 746" d="M26.042,94.148a1.549,1.549,0,0,1,1.683,1.434,1.643,1.643,0,0,1-1.5,1.683,1.543,1.543,0,0,1-1.62-1.5A1.493,1.493,0,0,1,26.042,94.148Zm.374,6.482a1.549,1.549,0,0,1,1.683,1.434,1.643,1.643,0,0,1-1.5,1.683,1.543,1.543,0,0,1-1.62-1.5A1.493,1.493,0,0,1,26.416,100.63ZM11.021,90.283c5.859-.374,11.78,3.116,12.091,8.85S18,108.981,12.143,109.355.3,106.239-.011,100.567C-.385,94.771,5.162,90.657,11.021,90.283Zm.873,15.27c6.856-.436,10.72-1.807,10.471-6.357s-4.3-5.485-11.156-5.111C4.352,94.522.488,95.893.737,100.443,1.049,104.993,5.1,105.927,11.894,105.554Z" transform="translate(0.029 -90.256)"/>
        <path id="Path_747" data-name="Path 747" d="M3,132.035l.748-.187.623,2.493L24.44,129.48l-.623-2.493.748-.187,2.306,9.536c1.5,6.17-1.558,7.915-2.992,8.289-4.238,1-5.921-2.493-6.918-5.485H16.9c-.062,3.927-.81,6.794-5.921,7.729-1.558.249-2.992.81-3.116,1.62-.249.686.686,1.683,1.434,2.306l-.5.5A4.342,4.342,0,0,1,6.615,148.8c-.561-2.306.312-3.864,1.745-4.674.561-.312,3.116-1.122,4.986-1.807,1.434-.5,3.8-1.371,2.8-5.485l-.5-1.932L5.119,137.458l.623,2.555-.748.187Zm13.4,2.68.436,1.745c.873,3.553,1.683,5.734,6.108,4.612,3.116-.748,3.8-2.368,2.992-5.422l-.748-3.054Z" transform="translate(-1.112 -104.023)"/>
        <path id="Path_748" data-name="Path 748" d="M14.9,172.074l.686-.312,1.247,2.618,18.636-8.85-1.247-2.618.686-.312,7.23,15.208-4.861,2.306-.312-.686c3.3-2.181,3.054-4.363,1.807-7.105L36.9,168.4l-8.663,4.114c1.434,3.054,1.932,3.989,5.3,2.867l.312.686-7.6,3.615-.312-.686c3.116-1.683,2.929-3.179,1.558-6.108L18.2,177.309l1.745,3.615c1.87,3.989,2.992,5.048,7.791,3.74l.374.81-5.8,2.306Z" transform="translate(-5.595 -117.511)"/>
        <path id="Path_749" data-name="Path 749" d="M34.4,207.851l.623-.436,1.5,2.057L53.1,197.193l-1.5-2.057.623-.436,5.111,6.918c3.864,5.235,2.057,8.227.374,9.474-2.618,1.932-5.609.5-7.479-1.5l-.062.062c2.244,3.864,1,7.23-.686,8.414-2.057,1.5-5.734,2.493-10.035-3.3Zm4.051,4.176,1.683,2.244c2.306,3.116,3.864,3.054,7.23.561s2.8-4.612.436-7.791l-.935-1.247Zm9.1-6.731,1.683,2.306c1.994,2.68,3.553,2.618,6.42.5,2.493-1.87,2.992-3.615,1-6.295l-1.558-2.057Z" transform="translate(-12.942 -129.604)"/>
        <path id="Path_750" data-name="Path 750" d="M60.6,238.992l.5-.561,1.87,1.745,13.9-15.27L75,223.161l.5-.561,7.23,6.607c4.737,4.3,3.179,7.417,2.181,8.539-2.929,3.241-6.295,1.247-8.788-.623l-.062.062c2.181,3.3,3.179,6.046-.623,9.723-1.122,1.122-1.994,2.368-1.683,3.116.187.748,1.558,1,2.493,1.122l-.125.686a4.221,4.221,0,0,1-3.179-.873,3.971,3.971,0,0,1-1.184-4.861c.249-.561,1.932-2.68,3.116-4.3.935-1.247,2.368-3.3-.748-6.108l-1.5-1.371L65.337,242.3l1.932,1.745-.5.561Zm12.59-5.235,1.309,1.184c2.68,2.431,4.612,3.8,7.666.436,2.181-2.368,1.807-4.051-.561-6.233L79.3,227.025Z" transform="translate(-22.812 -140.115)"/>
        <path id="Path_751" data-name="Path 751" d="M103.04,259.484c2.867-5.111,8.975-8.227,13.961-5.422s5.547,9.6,2.68,14.771c-2.867,5.111-9.037,8.289-14.023,5.485C100.672,271.451,100.173,264.595,103.04,259.484Zm13.276,7.479c3.366-5.983,4.3-10.035.312-12.278s-6.918.623-10.284,6.607-4.3,10.035-.312,12.278C110.021,275.876,113.013,272.947,116.316,266.963Z" transform="translate(-38.14 -151.569)"/>
        <path id="Path_752" data-name="Path 752" d="M166.988,273.957l-.187.748-2.493-.623-4.051,15.956a4.438,4.438,0,0,0,3.428,5.36c4.8,1.247,6.295-1.932,7.292-6.046l3.241-12.777-2.493-.623.187-.748,5.8,1.5-.187.748-2.493-.623-3.49,13.774c-1.309,5.048-4.114,6.918-8.975,5.672-4.176-1.06-6.233-3.989-5.3-7.6l3.864-15.395-2.493-.623.187-.748Z" transform="translate(-59.145 -158.687)"/>
        <path id="Path_753" data-name="Path 753" d="M199.29,281.473l-2.618-.125V280.6l6.482.312,8.788,16.454H212l.623-15.27-2.618-.125v-.748l6.17.249v.748l-2.555-.125-.873,21.877h-.873L200.288,282.22h-.062l-.81,20.007,2.555.125v.748l-6.17-.249V302.1l2.618.125Z" transform="translate(-73.747 -161.965)"/>
        <path id="Path_754" data-name="Path 754" d="M247.23,301.164l-8.85,1.06-.062-.748,2.8-.374L238.629,280.6l-2.867.312-.062-.748,8.85-1.06.062.748-2.867.312,2.493,20.505,2.867-.312Z" transform="translate(-88.778 -161.4)"/>
        <path id="Path_755" data-name="Path 755" d="M256,275.285l8.1-2.306.187.748-2.493.748,9.972,14.4h.062l.5-17.389-2.929.81-.187-.748,6.046-1.745.187.748-2.244.686-.686,23-.81.249-13.213-19.01-2.306.686Z" transform="translate(-96.426 -157.896)"/>
        <path id="Path_756" data-name="Path 756" d="M302.122,282.686l-.374-.686,2.618-1.309-9.474-18.386-2.618,1.309-.374-.686,14.958-7.728,2.493,4.8-.623.312c-2.306-3.241-4.488-2.929-7.168-1.558l-3.864,1.994,4.363,8.476c2.992-1.558,3.927-2.057,2.742-5.422l.623-.312,3.864,7.479-.623.312c-1.807-3.054-3.241-2.8-6.17-1.309l4.674,9.1,3.553-1.87c3.927-1.994,4.924-3.179,3.49-7.915l.748-.374,2.431,5.734Z" transform="translate(-109.951 -152.396)"/>
        <path id="Path_757" data-name="Path 757" d="M337.437,262.977l-.5-.623,1.994-1.621-12.839-16.143-1.994,1.62-.5-.623,7.666-6.108c4.986-3.989,7.853-1.932,8.788-.81,2.742,3.428.249,6.42-2.057,8.6l.062.062c3.615-1.62,6.482-2.181,9.536,2.119.935,1.309,1.994,2.368,2.8,2.181.748-.062,1.247-1.371,1.5-2.244l.686.249a4.24,4.24,0,0,1-1.371,2.992,3.911,3.911,0,0,1-4.986.374c-.5-.374-2.306-2.368-3.74-3.74-1.06-1.122-2.867-2.867-6.17-.249l-1.558,1.247,6.731,8.476,2.057-1.621.5.623ZM334.258,249.7l1.371-1.122c2.867-2.306,4.488-3.927,1.621-7.479-1.994-2.493-3.74-2.431-6.233-.436l-2.493,1.994Z" transform="translate(-121.893 -145.589)"/>
        <path id="Path_758" data-name="Path 758" d="M370.6,235.509l-.312.374-4.3-3.74.436-.5c3.116,1,6.108,1.122,8.227-1.309,1.87-2.119,2.368-5.36.187-7.292-1.5-1.309-2.431-1.558-4.924-.312-1.184.623-5.859,3.366-6.42,3.553a5.921,5.921,0,0,1-5.609-1.309,6.33,6.33,0,0,1-2.057-3.615,6.089,6.089,0,0,1,1.621-5.422,8.172,8.172,0,0,1,3.989-2.306l.125-1.558.312-.374,3.927,3.428-.436.5c-2.742-1-5.485-1.247-7.417,1-1.5,1.683-1.807,4.674.062,6.295,4.176,3.615,9.785-8.165,16.579-2.244,3.428,2.992,3.553,6.918.686,10.159a6.374,6.374,0,0,1-4.737,2.618Z" transform="translate(-133.992 -136.008)"/>
        <path id="Path_759" data-name="Path 759" d="M395.335,203.454l-4.861,7.479-.623-.436,1.558-2.368-17.327-11.281-1.558,2.368-.623-.436,4.861-7.479.623.436-1.558,2.368,17.327,11.281,1.558-2.368Z" transform="translate(-140.089 -128.323)"/>
        <path id="Path_760" data-name="Path 760" d="M405.739,180.742l-.686-.312,1.122-2.493L387.353,169.4l-.935,2.057c-1.309,2.867.686,4.176,3.428,6.108l-.374.81-5.672-2.992,7.043-15.582,5.921,2.431-.374.81c-3.054-1-5.734-1-7.168,2.119l-.623,1.309,18.823,8.539,1.122-2.493.686.312Z" transform="translate(-144.572 -116.456)"/>
        <path id="Path_761" data-name="Path 761" d="M418.727,148.878l-.748-.187.686-2.867-20.132-4.612-.686,2.867-.748-.187,3.8-16.392,5.3,1.184-.187.686c-3.989-.312-5.111,1.5-5.8,4.488l-1,4.238,9.349,2.119c.748-3.241.935-4.3-2.368-5.547l.187-.686,8.165,1.87-.187.686c-3.49-.623-4.238.686-4.986,3.864l9.972,2.306.873-3.927c1-4.3.81-5.8-3.8-7.791l.187-.873,5.983,1.807Z" transform="translate(-149.583 -104.287)"/>
        <path id="Path_762" data-name="Path 762" d="M426.613,105.05h-.748l.062-2.742-20.63-.623-.062,2.244c-.125,3.179,2.244,3.553,5.485,4.3v.873l-6.42-.561.561-17.078,6.42-.062v.873c-3.179.249-5.672,1.309-5.8,4.737l-.062,1.434,20.63.623.062-2.742h.748Z" transform="translate(-152.295 -90.687)"/>
      </g>
    </g>
  </g>
</svg>
