<svg xmlns="http://www.w3.org/2000/svg" xmlns:xlink="http://www.w3.org/1999/xlink" width="600" height="300" viewBox="0 0 600 300"><defs><clipPath id="clip-Logo"><path d="M0 0h600v300H0z"/></clipPath></defs><g id="Logo" clip-path="url(#clip-Logo)"><path fill="#e8eff3" d="M0 0h600v300H0z"/><g id="c" transform="translate(100.15 108.077)"><g id="Group_66" transform="translate(-.01)"><path id="Path_763" fill="#ffe655" d="M0 0h81.94l1.52.02v6.03l-6.78.01q-23.04 0-46.07.02L17.3 6.1 0 6.06Z" transform="translate(.01)"/><path id="Path_764" fill="#2e87cd" d="M0 11.41V8.38q.85.4 1.66.86 5.6 3.2 11.15 6.47c2.83 1.69 5.77 3.17 8.48 5.03l-.48 1.16-.93 1.17c0-.44-.4-.52-.7-.7-4.55-2.66-9.08-5.36-13.68-7.96a38 38 0 0 0-5.5-3" transform="translate(.01 -.21)"/><path id="Path_765" fill="#308cd1" d="M21.3 20.7c-2.73-1.87-5.67-3.36-8.49-5.04Q7.25 12.38 1.66 9.2.84 8.74 0 8.33V6.47l2.34.04c.02.39.35.47.61.62l5.92 3.43 13.83 8.05c-.54.65-.64 1.6-1.4 2.1Z" transform="translate(.01 -.162)"/><path id="Path_766" fill="#2c82c9" d="M0 11.49a38 38 0 0 1 5.5 3.01c4.6 2.6 9.13 5.3 13.69 7.96.29.16.68.24.69.7l-.47.93-.93 1.17c-.18-.64-.77-.82-1.26-1.1l-5.43-3.13C7.86 18.78 4 16.4 0 14.3Z" transform="translate(.01 -.288)"/><path id="Path_767" fill="#2a7dc4" d="M0 14.36c4 2.12 7.86 4.5 11.79 6.75q2.72 1.55 5.43 3.13c.48.28 1.08.45 1.25 1.1l-.7 1.4-.46.46a48 48 0 0 0-5.07-3.05c-4.09-2.33-8.07-4.83-12.24-7Z" transform="translate(.01 -.36)"/><path id="Path_768" fill="#2878c0" d="M0 17.23c4.17 2.16 8.15 4.66 12.24 6.98a46 46 0 0 1 5.06 3.05q-.46.94-.94 1.86l-.45.25a3.7 3.7 0 0 0-1.61-1.27c-2.83-1.66-5.63-3.35-8.52-4.91A44 44 0 0 0 0 20.03Z" transform="translate(.01 -.432)"/><path id="Path_769" fill="#2673bc" d="M0 20.1a43 43 0 0 1 5.77 3.16c2.88 1.57 5.69 3.26 8.52 4.91a3.7 3.7 0 0 1 1.61 1.27l-.72 1.62-.45.24c-3.22-1.87-6.4-3.79-9.65-5.61A34 34 0 0 0 0 22.9z" transform="translate(.01 -.504)"/><path id="Path_770" fill="#878787" d="M189.7 78.4c-.38-2.55 2.67-4.22 5.26-3.08a3.1 3.1 0 0 1 2.04 2.93q.1 1.8.07 3.64a4.1 4.1 0 0 1-2.65 3.76h-.47a.56.56 0 0 0-.94 0h-.7a4 4 0 0 1-2.78-3.48c.42-1.23.13-2.5.19-3.76Zm5.66 3.54a6 6 0 0 0 0-3.55 1.9 1.9 0 0 0-1.4-1.88.9.9 0 0 0-1.21 0c-1.29.28-1.4 1.34-1.6 2.35v2.84c-.07.25.13.43.18.64a2.25 2.25 0 0 0 2.07 1.9 2.3 2.3 0 0 0 1.96-2.3" transform="translate(-4.741 -1.879)"/><path id="Path_771" fill="#2064af" d="M13.05 63.93q-.67 1.04-1.34 2.12a6 6 0 0 1-.96-.4c-2.68-1.71-5.32-3.48-8.02-5.15A7 7 0 0 0 0 59.04v-3.27a7 7 0 0 1 1.81.99z" transform="translate(.01 -1.398)"/><path id="Path_772" fill="#2268b3" d="M13.05 63.88 1.81 56.7a7 7 0 0 0-1.81-1v-.46l1.17-1.64a4 4 0 0 1 .54.2c2.35 1.48 4.72 2.91 7.04 4.46a41 41 0 0 1 5.53 3.75l-1.22 1.85Z" transform="translate(.01 -1.343)"/><path id="Path_773" fill="#878787" d="M112.87 84.06a1.5 1.5 0 0 0 1.39-1.67c-.07-.9-.75-1.13-1.54-1.24a15 15 0 0 1-2.23-.44 2.5 2.5 0 0 1-1.77-2.56 2.75 2.75 0 0 1 1.47-2.74c1.65-.81 4.35-.48 5.34.74-.63.7-1.26 1.34-2.18.38a2 2 0 0 0-1.93 0c-.65.31-1.27.75-1.1 1.53a1.6 1.6 0 0 0 1.54 1.32c.33.03.64.2 1 .21a2.9 2.9 0 0 1 3.05 2.08v1.42c-.32 1.4-1.45 1.99-2.6 2.55h-.47a1.35 1.35 0 0 0-1.64 0h-.47c-.53-.39-1.3-.33-1.77-.88-.2-.24-.74-.3-.4-.73.26-.35.54-.92 1.2-.62a4 4 0 0 0 1.68.65 1.2 1.2 0 0 0 1.4 0Z" transform="translate(-2.708 -1.879)"/><path id="Path_774" fill="#878787" d="M158.67 76.52a1.4 1.4 0 0 0-1.14 1.5c0 .86.64 1.02 1.23 1.33.68.36 1.43.13 2.13.39 1.42.5 2.39 1.56 2.21 2.81a2.9 2.9 0 0 1-2.51 2.87c-.71.05-1.45-.22-2.13.22h-.7c-.56-.44-1.35-.48-1.85-1.03-.2-.22-.65-.46-.14-.79.35-.23.51-1.05 1.17-.49a2.4 2.4 0 0 0 1.53.72 1.6 1.6 0 0 0 1.64 0 1.53 1.53 0 0 0 1.25-1.65c-.03-.89-.7-1.14-1.5-1.23a11 11 0 0 1-2.1-.46 2.4 2.4 0 0 1-1.84-2.06c.37-.52.15-1.1.2-1.65.27-1.27 1.13-1.93 3-2.07a5 5 0 0 1 3.05.8c.2.13.66.37.23.68-.31.23-.4.97-1.02.59a2.4 2.4 0 0 0-1.26-.48 1.2 1.2 0 0 0-1.46 0Z" transform="translate(-3.889 -1.878)"/><path id="Path_775" fill="#878787" d="M253.95 85.65c-.55-.45-1.35-.48-1.85-1.04-.2-.22-.66-.45-.14-.79.35-.23.51-1.05 1.18-.48a2.4 2.4 0 0 0 1.53.7 1.6 1.6 0 0 0 1.63 0 1.53 1.53 0 0 0 1.26-1.64c-.02-.88-.7-1.1-1.5-1.25-.44-.08-.9-.1-1.34-.2-1.16-.29-2.25-.72-2.59-2.07a1.6 1.6 0 0 0 0-1.63c.39-1.94 2.43-2.48 4.18-2.2a4.5 4.5 0 0 1 1.94.63c.23.16.8.32.36.73-.28.26-.43 1.03-1.12.54a2 2 0 0 0-1.17-.41 1.2 1.2 0 0 0-1.46 0 1.4 1.4 0 0 0-1.15 1.5c0 .86.64 1.02 1.23 1.33.68.36 1.43.14 2.13.4a2.86 2.86 0 0 1 2.23 2.7 3.04 3.04 0 0 1-2.52 2.99c-.71.05-1.45-.22-2.12.22h-.7Z" transform="translate(-6.299 -1.879)"/><path id="Path_776" fill="#878787" d="M314.73 77c.85-2.66 4.91-2.35 6.38-1.15.25.2.4.42.05.62s-.44.9-1.09.55c-.36-.2-.77-.33-1.15-.5a1.6 1.6 0 0 0-1.68 0 1.4 1.4 0 0 0-.92 1.64c.06.77.65 1 1.25 1.16.8.2 1.65.27 2.43.5a2.2 2.2 0 0 1 1.72 2.05v1.22c-.1 1.63-1.51 1.9-2.6 2.54h-.46a1.06 1.06 0 0 0-1.4 0h-.7c-.57-.44-1.36-.48-1.86-1.04-.2-.22-.67-.46-.15-.79.35-.22.5-1.06 1.17-.48a2.4 2.4 0 0 0 1.54.71 1.6 1.6 0 0 0 1.64 0 2.6 2.6 0 0 0 1.2-.93.9.9 0 0 0 0-1.22c-.6-.78-1.53-.77-2.38-.9-1.23-.2-2.45-.38-2.8-1.87-.07-.7.2-1.44-.18-2.12Z" transform="translate(-7.868 -1.879)"/><path id="Path_777" fill="#246eb8" d="M0 22.98a34 34 0 0 1 5.09 2.79c3.25 1.82 6.43 3.73 9.65 5.61-.1.74-.85 1.14-.95 1.86h-.22c-.1-.12-.17-.29-.28-.36C8.8 30.44 4.52 27.67 0 25.32z" transform="translate(.01 -.576)"/><path id="Path_778" fill="#878787" d="M292.32 81.44a3 3 0 0 0 .47 1.95 1.97 1.97 0 0 0 3.2-.1q.3-.47.58-.96l1.62.08a4.4 4.4 0 0 1-2.79 3.23h-.47a.56.56 0 0 0-.93 0h-.7a3.7 3.7 0 0 1-2.62-3.74l.01-3.5c-.17-2.21 1.53-3.41 3.59-3.46 1.84-.04 3.7.96 3.75 3.17a1.64 1.64 0 0 1-2.15-.9c-.4-.82-1.4-.82-2.2-.6a1.7 1.7 0 0 0-1.32 1.68q-.01.42-.04.81a3 3 0 0 0 0 2.33Z" transform="translate(-7.276 -1.878)"/><path id="Path_779" fill="#878787" d="M334.6 81.44a2.27 2.27 0 0 0 1.6 2.6.9.9 0 0 0 1.17 0 4 4 0 0 0 1.42-1.63c.57.1 1.3-.44 1.66.43a5.6 5.6 0 0 1-2.6 2.8h-.47a1.35 1.35 0 0 0-1.64 0h-.24c-1.36-.8-2.54-1.71-2.53-3.5a7.6 7.6 0 0 0 0-3.73c0-1.97 1-3.04 3.23-3.48a3.8 3.8 0 0 1 3.9 2.04c.12.32.74.91.02 1.15-.49.15-1.27.38-1.59-.45a1.6 1.6 0 0 0-1.57-1.13c-1.65-.07-2.37.61-2.36 2.34v2.57Z" transform="translate(-8.336 -1.877)"/><path id="Path_780" fill="#1e5fab" d="M0 59.12a7 7 0 0 1 2.73 1.45c2.7 1.68 5.35 3.45 8.02 5.16a5 5 0 0 0 .96.39 17 17 0 0 1-1.65 2.58c-.08-.94-.96-1.03-1.54-1.41-2.8-1.84-5.6-3.72-8.52-5.37z" transform="translate(.01 -1.482)"/><path id="Path_781" fill="#226ab5" d="M0 25.37c4.52 2.36 8.81 5.12 13.28 7.59.13.06.2.23.28.35a6 6 0 0 1-1.17 1.86c-.1-.59-.64-.74-1.05-.99C9 32.81 6.7 31.38 4.3 30.13c-1.43-.74-2.62-1.95-4.31-2.2Z" transform="translate(.01 -.636)"/><path id="Path_782" fill="#2166b1" d="M0 28c1.69.23 2.88 1.45 4.3 2.2 2.4 1.24 4.7 2.68 7.04 4.05.42.24.94.4 1.05.99v.23a2.3 2.3 0 0 0-.7 1.16h-.22c-1.91-1.3-3.95-2.42-5.98-3.54-1.82-1-3.49-2.31-5.49-2.98z" transform="translate(.01 -.702)"/><path id="Path_783" fill="#1d5ca8" d="M0 61.99c2.93 1.66 5.71 3.53 8.52 5.37.58.38 1.46.48 1.54 1.42-.35.42-.36 1.09-.92 1.38L7.16 69C4.75 67.55 2.49 65.87 0 64.55Z" transform="translate(.01 -1.554)"/><path id="Path_784" fill="#1c5aa7" d="M0 37.27v-2.81c2.02 1.13 4.07 2.2 6.03 3.4 1.13.7 2.48 1.07 3.32 2.2l-.49 1.15-.68.71c-2.7-1.6-5.36-3.26-8.18-4.65" transform="translate(.01 -.864)"/><path id="Path_785" fill="#1f62ae" d="M0 30.16c2 .68 3.67 1.99 5.49 3a71 71 0 0 1 5.98 3.54l-.7 1.4h-.23c-1.77-1.03-3.52-2.1-5.32-3.07-1.75-.93-3.3-2.18-5.22-2.77Z" transform="translate(.01 -.756)"/><path id="Path_786" fill="#1e5fab" d="M0 32.31c1.91.6 3.47 1.84 5.2 2.78 1.8.96 3.57 2.04 5.33 3.06l-.49 1.15a.7.7 0 0 0-.47.7l-.22.01c-.85-1.13-2.2-1.51-3.32-2.2-1.97-1.2-4.01-2.27-6.03-3.4z" transform="translate(.01 -.81)"/><path id="Path_787" fill="#1a55a3" d="M0 37.34c2.82 1.4 5.49 3.06 8.19 4.67l-.24.7c-.48.38-.6 1.07-1.15 1.4q-2.62-1.55-5.26-3.05c-.48-.29-.89-.78-1.54-.69Z" transform="translate(.01 -.936)"/><path id="Path_788" fill="#1b58a5" d="M0 64.62c2.49 1.32 4.75 3 7.16 4.45q.98.6 1.98 1.16a7 7 0 0 1-1.17 1.86c-1.49-.97-2.93-2.02-4.48-2.89-1.18-.64-2.15-1.65-3.49-2.02Z" transform="translate(.01 -1.62)"/><path id="Path_789" fill="#1a54a2" d="M0 67.25c1.34.37 2.31 1.38 3.49 2.03 1.55.87 3 1.9 4.49 2.88a7 7 0 0 1-1.17 1.87 3 3 0 0 1-1.23-.59A57 57 0 0 0 0 70.04Z" transform="translate(.01 -1.686)"/><path id="Path_790" fill="#144696" d="M1.17 53.42 0 55.06V46.2a2 2 0 0 1 1.2.37q1.53.86 3.03 1.74l-.5 1.14a6 6 0 0 0-1.17 1.87 11 11 0 0 0-1.39 2.1" transform="translate(.01 -1.158)"/><path id="Path_791" fill="#18509f" d="M0 70.12a55 55 0 0 1 5.58 3.4 3 3 0 0 0 1.22.58 16 16 0 0 1-1.64 2.58c0-.38-.3-.52-.55-.68A51 51 0 0 0 0 73.16z" transform="translate(.01 -1.758)"/><path id="Path_792" fill="#18509e" d="M0 40.45c.65-.1 1.06.4 1.54.67q2.64 1.52 5.26 3.06l-.5 1.16-.69.7a5 5 0 0 1-1.56-.7c-1.34-.7-2.49-1.8-4.05-2.1Z" transform="translate(.01 -1.014)"/><path id="Path_793" fill="#164b9a" d="M0 73.24a49 49 0 0 1 4.6 2.84c.25.16.56.3.55.68a16 16 0 0 1-1.64 2.56 1.2 1.2 0 0 0-.72-.96L0 76.74z" transform="translate(.01 -1.836)"/><path id="Path_794" fill="#144696" d="m0 76.83 2.79 1.63a1.2 1.2 0 0 1 .72.96L0 85z" transform="translate(.01 -1.925)"/><path id="Path_795" fill="#164b9a" d="M0 43.32c1.56.3 2.71 1.4 4.06 2.09a5 5 0 0 0 1.56.7l-.72 1.4q-.33.36-.68.7L1.2 46.48A2 2 0 0 0 0 46.1v-2.8Z" transform="translate(.01 -1.086)"/><path id="Path_796" fill="#a6c38f" d="M2.34 6.5 0 6.44v-.23l17.3.03v.16l-4.68.07H2.35Z" transform="translate(.01 -.156)"/><path id="Path_797" fill="#e1e1e1" d="M218.75 85.65v-9.53c0-.4-.19-.87.25-1.18v.22q0 5.12-.03 10.23v.25h-.23Z" transform="translate(-5.472 -1.878)"/><path id="Path_798" fill="#e1e1e1" d="M324.05 85.65v-9.53c0-.4-.19-.87.25-1.18v.22q0 5.12-.03 10.23v.25z" transform="translate(-8.112 -1.878)"/><path id="Path_799" fill="#e1e1e1" d="M379.46 85.65v-9.53c0-.4-.19-.87.25-1.18v.22q0 5.12-.03 10.23v.25h-.23Z" transform="translate(-9.5 -1.878)"/><path id="Path_800" fill="#e1e1e1" d="m359.34 85.66.03.25h-7.02l.03-.25h6.95Z" transform="translate(-8.822 -2.147)"/><path id="Path_801" fill="#e1e1e1" d="m132.16 85.91.03-.25h6.95l.03.25h-7.02Z" transform="translate(-3.303 -2.147)"/><path id="Path_802" fill="#e1e1e1" d="m206.33 85.65.02.26h-6.79l.02-.26h.12l.11-.02h6.52Z" transform="translate(-4.992 -2.146)"/><path id="Path_803" fill="#e1e1e1" d="m268.45 85.65.02.26h-6.79l.02-.26h6.51l.12.02h.12Z" transform="translate(-6.549 -2.147)"/><path id="Path_804" fill="#e1e1e1" d="M324.29 85.91v-.25l6.54.03v.22z" transform="translate(-8.118 -2.147)"/><path id="Path_805" fill="#e1e1e1" d="m141.52 85.91.02-.26h.12l.11-.02 4.44.06v.2h-4.68Z" transform="translate(-3.537 -2.146)"/><path id="Path_806" fill="#e4e4e4" d="m348.52 85.9-.01-.19c.6-.16 1.28.2 1.84-.25.22.08.26.25.28.45Z" transform="translate(-8.726 -2.142)"/><path id="Path_807" fill="#e3e3e3" d="m376.34 85.9-.01-.18c.55-.17 1.18.2 1.68-.28l.2.48h-1.87Z" transform="translate(-9.423 -2.142)"/><path id="Path_808" fill="#adadad" d="M158.55 85.91c.67-.44 1.41-.16 2.13-.22a.4.4 0 0 0-.02.22Z" transform="translate(-3.964 -2.147)"/><path id="Path_809" fill="#adadad" d="M254.73 85.91c.67-.44 1.41-.16 2.13-.22a.4.4 0 0 0-.02.22z" transform="translate(-6.375 -2.147)"/><path id="Path_810" fill="#e3e3e3" d="m271.93 85.65.02.26h-1.87l.2-.48c.5.47 1.1.17 1.65.21Z" transform="translate(-6.76 -2.141)"/><path id="Path_811" fill="#dfdfdf" d="m215.39 85.9.01-.25c.56-.04 1.17.24 1.68-.22l.18.48Z" transform="translate(-5.389 -2.141)"/><path id="Path_812" fill="#e2e2e2" d="m385.45 85.91.02-.26 1.82.03.26.23z" transform="translate(-9.651 -2.147)"/><path id="Path_813" fill="#e0e0e0" d="m224.99 85.9-.01-.19c.55-.17 1.19.2 1.69-.28a.5.5 0 0 1 .2.48Z" transform="translate(-5.629 -2.141)"/><path id="Path_814" fill="#e3e3e3" d="m405.36 85.91.03-.25h1.81l.03.25z" transform="translate(-10.151 -2.147)"/><path id="Path_815" fill="#e3e3e3" d="m365.95 85.66.03.25h-1.87l.03-.25z" transform="translate(-9.117 -2.147)"/><path id="Path_816" fill="#e3e3e3" d="m209.8 85.64.03.27h-1.87l.02-.26z" transform="translate(-5.203 -2.147)"/><path id="Path_817" fill="#e2e2e2" d="m180.13 85.91.03-.25h1.59l.11.02h.12l.02.25h-1.87Z" transform="translate(-4.505 -2.147)"/><path id="Path_818" fill="#e2e2e2" d="M379.7 85.91v-.25l1.38-.01.11.02.12-.01.02.26z" transform="translate(-9.507 -2.147)"/><path id="Path_819" fill="#e1e1e1" d="m344.17 85.7-.01.21h-1.64l.02-.24h.24z" transform="translate(-8.575 -2.147)"/><path id="Path_820" fill="#afafaf" d="M335.8 85.91a1.35 1.35 0 0 1 1.64 0Z" transform="translate(-8.407 -2.146)"/><path id="Path_821" fill="#e2e2e2" d="M282.5 85.68v.24h-1.63l.02-.26.12.01.11-.02z" transform="translate(-7.03 -2.147)"/><path id="Path_822" fill="#e2e2e2" d="M234.78 85.68v.24h-1.64l.02-.26.12.01.11-.02z" transform="translate(-5.834 -2.147)"/><path id="Path_823" fill="#e2e2e2" d="M218.99 85.91v-.25l1.38-.01.11.02h.12l.02.25z" transform="translate(-5.479 -2.147)"/><path id="Path_824" fill="#e2e2e2" d="m125.93 85.91.03-.28 1.59.02.02.26z" transform="translate(-3.147 -2.146)"/><path id="Path_825" fill="#e2e2e2" d="m121.79 85.65.02.26h-1.64l.03-.28z" transform="translate(-3.002 -2.146)"/><path id="Path_826" fill="#aaa" d="M111.29 85.91a1.35 1.35 0 0 1 1.64 0Z" transform="translate(-2.78 -2.146)"/><path id="Path_827" fill="#a6a6a6" d="M317.33 85.91a1.06 1.06 0 0 1 1.4 0Z" transform="translate(-7.944 -2.147)"/><path id="Path_828" fill="#a7a7a7" d="M193.09 85.91a.56.56 0 0 1 .94 0Z" transform="translate(-4.83 -2.147)"/><path id="Path_829" fill="#a5a5a5" d="M294.07 85.91a.56.56 0 0 1 .94 0Z" transform="translate(-7.361 -2.147)"/><path id="Path_830" d="m330.4 29.13-10.3-15.5v15.45h-3.46l.01-22.35h3.22l8.61 13.1q.49.69.93 1.4c.16.26.2.68.58.6.41-.1.2-.52.2-.79V7.32q0-.3.03-.58h3.45l.01 22.35-3.27.05Z" transform="translate(-7.927 -.169)"/><path id="Path_831" d="m350.45 29.07.01-22.35h3.2l9.55 14.5c.17.24.22.67.58.6.4-.1.2-.53.2-.8V7.99l.04-1.28 3.21.01v22.33l-3.03.06q-2.11-3.1-4.21-6.24-2.95-4.45-5.86-8.94c-.04-.25-.06-.67-.39-.21-.15.21-.06.6-.06.9q0 7.22-.02 14.42h-3.24Z" transform="translate(-8.774 -.168)"/><path id="Path_832" d="m264.99 29.07-4.72-9.28c-1.29-.57-2.63-.13-3.95-.22-.45.26-.21.7-.22 1.03l-.04 8.46h-3.22l-.02-22.35 9.37-.06c4.14.59 5.77 2.3 6.24 6.07a5.9 5.9 0 0 1-3.47 6.08c-.86.34-.87.71-.47 1.45 1.53 2.85 3 5.72 4.5 8.6-1.31.52-2.67.13-4 .2Zm-8.65-12.38h5.83q.31-.1.62-.24c1.43-.7 2.46-2.2 2.15-3.5-.43-1.79-.76-2.62-2.83-3.02a37 37 0 0 0-5.77-.18c-.43.15-.24.52-.25.8q-.03 2.64 0 5.32c0 .29-.14.64.24.81Z" transform="translate(-6.327 -.167)"/><path id="Path_833" d="M179.41 38.5c.48.47 1.15.26 1.72.47a6 6 0 0 1 4.14 5.14v1.92a5.4 5.4 0 0 1-3.28 4.62c-.85.37-1.03.66-.54 1.54 1.4 2.51 2.68 5.09 3.97 7.65.15.31.4.54.56.84-.22.4-.6.23-.92.24q-1.56.03-3.1.03a152 152 0 0 1-4.67-9.33 7 7 0 0 0-4.17.01l-.05 9.26h-3.22V38.57l9.57-.07Zm-6.28 4.23-.02 4.92c0 .3-.23.7.23.88 1.76.01 3.5.05 5.26.03 1.72-.02 3.08-1.25 3.36-3.4.2-1.58-1.24-3.04-2.96-3.37a31 31 0 0 0-5.65-.18c-.5.3-.16.75-.2 1.13Z" transform="translate(-4.247 -.965)"/><path id="Path_834" d="m262.13 60.9-4.5-9.04c-.06-.13-.11-.38-.18-.38-1.4-.09-2.83-.39-4.21.15l-.03 9.3-3.27-.02.02-22.35 9.57-.06a12 12 0 0 1 3.71 1.49 6.6 6.6 0 0 1 2.31 5.8c-.39 2.38-1.47 4.34-3.99 5.13-.5.15-.3.52-.16.79l4.69 8.97c-1.3.56-2.65.12-3.98.22Zm-8.87-18.17q-.03 2.4-.03 4.77c0 .35-.25.8.24 1.03 1.4 0 2.8-.05 4.2.04 2.2.13 3.78-.59 4.45-2.81a.9.9 0 0 0 .02-1.18c-.55-1.51-1.28-2.63-3.16-2.85-1.86-.21-3.68-.09-5.52-.14-.49.3-.19.75-.23 1.14Z" transform="translate(-6.255 -.965)"/><path id="Path_835" d="M200.3 6.67c5.31.57 7.08 4.88 5.67 9.14a5.2 5.2 0 0 1-3.27 3.18c-.57.22-.66.3-.38.83 1.24 2.35 2.39 4.75 3.67 7.08a19 19 0 0 0 1.11 1.95c-1.3.53-2.66.14-3.98.21l-4.72-9.28a6.7 6.7 0 0 0-4.13 0l-.06 9.3-3.25-.03V6.72l9.35-.06Zm-5.87 10.02h5.62c.47.1.77-.24 1.1-.44 1.2-.64 2.15-2.2 1.9-3.23-.34-1.52-.8-2.67-2.75-3.08s-3.91-.13-5.86-.18c-.35.06-.24.34-.24.55v5.83c0 .2-.12.48.22.55Z" transform="translate(-4.777 -.167)"/><path id="Path_836" d="M389.33 16.99c0 2.51.16 5.02-.65 7.49a7.8 7.8 0 0 1-6.75 4.85 8.6 8.6 0 0 1-5.17-1.02 7.4 7.4 0 0 1-3.76-6c-.12-2.48 0-4.96 0-7.45a1.2 1.2 0 0 0 0-1.43c.2-4.01 3.2-6.54 7.2-7.02h1.89c.76.32 1.6.33 2.38.64 2.89 1.17 4.21 3.45 4.77 6.38a11 11 0 0 0-1.53.01 2.1 2.1 0 0 1-2.66-1.55c-.54-1.48-1.97-2.08-3.66-2.24a4.4 4.4 0 0 0-4.71 3.05 17 17 0 0 0-.22 3.66l-.03.81a.9.9 0 0 0 0 1.18c.2 1.51-.12 3.04.26 4.57a4.57 4.57 0 0 0 7.31 2.32 7 7 0 0 0 1.86-3.39 1.9 1.9 0 0 0-.03-1.87l-.02.02c-.25-.46-.69-.22-1.03-.23q-1.8-.04-3.6-.04 0-1.39-.02-2.74z" transform="translate(-9.338 -.161)"/><path id="Path_837" d="M298.03 6.73v10.8a27 27 0 0 0 3.06-3.57c2.07-2.39 3.9-4.98 6.07-7.28l4.2.06q-3.34 3.98-6.7 7.95a1.2 1.2 0 0 0-.12 1.68c2.27 3.76 4.48 7.55 6.72 11.34q.37.6.8 1.2c-1.3.51-2.65.03-3.95.25q-2.9-4.93-5.74-9.89c-.43-.74-.68-1.21-1.4-.21a35 35 0 0 1-2.66 3.13 1.4 1.4 0 0 0-.24 1.08l-.02 5.82h-3.47l.01-22.34h3.45Z" transform="translate(-7.374 -.167)"/><path id="Path_838" d="M137.46 6.42a9.6 9.6 0 0 1 5.03 2.37 6.5 6.5 0 0 1 1.94 3.87 37 37 0 0 1-.02 10.48 7.5 7.5 0 0 1-7.32 6.2 8 8 0 0 1-7.6-3.7 6.7 6.7 0 0 1-.96-3.8l-.02-1.15.02-5.87a6.9 6.9 0 0 1 1.64-5.66 8.7 8.7 0 0 1 5.4-2.75h1.87Zm-5.42 14.3c-.47.5 0 1 .05 1.49a4.2 4.2 0 0 0 3.81 4.06 4.5 4.5 0 0 0 4.62-2.63 16 16 0 0 0 .71-3.87 8.4 8.4 0 0 0-.02-3.99q-.16-.84-.25-1.68c-.26-2.83-1.14-3.83-3.95-4.38a4.3 4.3 0 0 0-4.97 5.11 17 17 0 0 0 0 5.88" transform="translate(-3.21 -.161)"/><path id="Path_839" d="M247.4 21.86c-.45 1.38-.46 2.86-1.4 4.12a7.9 7.9 0 0 1-6.25 3.37 8.4 8.4 0 0 1-6.09-1.97 7 7 0 0 1-2.42-4.93c-.07-.81-.03-1.63-.05-2.45v-4.44a17 17 0 0 1 .32-3.89 7.6 7.6 0 0 1 5.39-4.97 12 12 0 0 1 1.56-.28h1.66a23 23 0 0 1 2.98.93 6.6 6.6 0 0 1 4.04 5.7 4 4 0 0 0 .25.86v7.94Zm-12.7-6.55a14 14 0 0 0 0 5.15 15 15 0 0 0 .04 1.63 4.5 4.5 0 0 0 3.5 4.1 4.7 4.7 0 0 0 4.57-1.74 8 8 0 0 0 1.06-3.98 13 13 0 0 0 0-5.18 12 12 0 0 0-.25-2.14 4.1 4.1 0 0 0-2.93-3.38 4.7 4.7 0 0 0-4.82 1.17c-1.19 1.28-1.14 2.82-1.19 4.36Z" transform="translate(-5.785 -.161)"/><path id="Path_840" d="m151.27 49.48 8.9-10.92c1.38.07 2.79-.27 4.16.18l-4.13 5q-1.29 1.53-2.6 3.05c-.36.42-.3.75-.01 1.22q3.77 6.31 7.5 12.67c-1.3.57-2.65.13-3.97.22q-2.93-5.03-5.82-10.1c-.44-.8-.58-.7-1.09 0-.9 1.27-1.98 2.4-2.98 3.6-.33.35-.19.8-.2 1.2l-.03 5.3-3.23.02-.02.01.02-22.37 3.24.01q0 5.02.03 10.02c0 .28-.27.7.23.89" transform="translate(-3.694 -.965)"/><path id="Path_841" d="m290.4 38.56 4.46 11.94q1.9 5.1 3.77 10.18c-1.15.59-2.38.06-3.55.28q-.7-1.84-1.38-3.72a.94.94 0 0 0-1.04-.75q-3.66.07-7.33 0a.87.87 0 0 0-.98.7l-1.2 3.72h-3.68c1-3.31 2.31-6.51 3.49-9.77 1.52-4.2 3.12-8.37 4.68-12.56h2.77Zm-4.63 14.88c.14.32.44.26.7.26h5.34c.26 0 .56.07.7-.26l-3-8.66c-.08-.23-.14-.5-.34-.54s-.31.2-.39.44z" transform="translate(-6.995 -.966)"/><path id="Path_842" d="m226.22 60.9 8.17-22.34h3q1.21 3.48 2.46 6.94 2.15 5.88 4.34 11.75l1.37 3.65h-3.68c-.48-1.25-1.03-2.47-1.4-3.75-.18-.62-.5-.66-.98-.66q-3.72.02-7.44-.01c-.54 0-.67.17-.82.65-.39 1.28-.89 2.52-1.34 3.78zm6.51-7.38c1.94.41 3.9.06 5.84.17.26.01.56.06.7-.25l-3.16-9.34a43 43 0 0 0-2.19 5.48 13 13 0 0 0-1.19 3.94" transform="translate(-5.66 -.966)"/><path id="Path_843" d="M172.59 24.7a29 29 0 0 0-1.45 4.36h-3.7a28 28 0 0 1 1.64-4.85q3.23-8.78 6.52-17.54l2.8.05 4 10.7 4.25 11.44c-1.23.52-2.5.13-3.76.21l-1.43-4.37c-.16-.32-.45-.26-.71-.26h-7.44c-.26 0-.56-.04-.71.27Zm1.17-3.1c.04.06.09.17.12.17l6.26.08c.3 0 .4-.2.18-.46l-3.25-9.52c-.5 1.4-.97 2.53-1.32 3.69-.6 2.03-1.63 3.92-2 6.04" transform="translate(-4.187 -.167)"/><path id="Path_844" d="M118.04 6.67c4.05.56 6.04 2.4 6.56 6.07v1.45a6.8 6.8 0 0 1-4.87 5.9c-.43.13-.84.05-1.24.16h-6.05c-.45.3-.25.77-.25 1.17l-.03 7.64h-3.25l.02-22.34zm-5.61 10.5 5.35-.01c.34.19.59-.14.85-.22a3.5 3.5 0 0 0 2.43-3.94 3.3 3.3 0 0 0-2.76-3.07 42 42 0 0 0-5.87-.19c-.27.12-.26.35-.26.59v6.25c0 .23 0 .46.26.59" transform="translate(-2.72 -.167)"/><path id="Path_845" d="M402.73 6.43a12 12 0 0 1 4.72 1.66c1.05.75 1.08.85.15 1.77a5 5 0 0 0-.57.58c-.46.63-.95.77-1.55.2-.84-.78-2.01-.74-2.99-1.2a2 2 0 0 0-1.88 0q-.36.16-.74.28c-2.1.71-2.76 1.73-2.53 3.94.11 1.03 1.57 2.11 3.09 2.38a35 35 0 0 1 4.98.91 5 5 0 0 1 3.63 4.05c.06.3.18.56.27.86v1.65c-.6 2.74-2.12 4.74-4.92 5.4-3.56.86-7.07.8-10.22-1.5-1.2-.86-1.23-1.03-.22-2.04l.25-.24c.64-.87 1.18-1.1 2.2-.28a7.5 7.5 0 0 0 6.9 1.15 3.5 3.5 0 0 0 2.5-2.71.9.9 0 0 0 0-1.2c-.53-2.12-2.28-2.28-4-2.55a31 31 0 0 1-3.55-.63 5.6 5.6 0 0 1-4.38-4.95 2 2 0 0 0 0-1.91 7 7 0 0 1 1.43-3.22c1.37-1.57 3.19-2.03 5.08-2.4z" transform="translate(-9.846 -.161)"/><path id="Path_846" d="M273.7 12.29c.25-3.1 2-4.66 4.95-5.58a14 14 0 0 1 1.55-.28h2.12a12 12 0 0 1 5.3 1.98c.44.32.7.58.15 1.15-1.5 1.52-1.5 1.59-3.35.62a23 23 0 0 0-2.34-.73 1.6 1.6 0 0 0-1.64.01c-.66.27-1.42.23-2 .73a3.4 3.4 0 0 0-1.4 3.26c.34 1.72 1.71 2.24 3.2 2.57 1.66.37 3.37.44 5 .93a5.7 5.7 0 0 1 3.63 6.67c-.87 3.82-3.33 5.66-7.28 5.72-2.54.04-4.99-.09-7.17-1.63-1.75-1.23-1.76-1.19-.3-2.72.68-.72 1.06-.9 2.03-.16a7.5 7.5 0 0 0 7.2 1.03 3.6 3.6 0 0 0 2.2-2.39 1.03 1.03 0 0 0 .07-1.4c-.7-2.02-2.39-2.35-4.23-2.57-2.32-.27-4.65-.52-6.38-2.44a5 5 0 0 1-1.31-3.12 1.6 1.6 0 0 0 0-1.65" transform="translate(-6.835 -.161)"/><path id="Path_847" d="M115.87 58.1a3.7 3.7 0 0 0 3.52-2.76.9.9 0 0 0 0-1.2c-.73-2.1-1.59-2.63-4.27-2.8a13 13 0 0 1-4.17-.91 5.7 5.7 0 0 1-3.49-4.65 1.6 1.6 0 0 0 0-1.68c1.14-4.45 4.4-6.36 9.12-5.63a12 12 0 0 1 4.7 1.7c.58.35.9.72.17 1.3-.54.43-.93 1.2-1.53 1.37-.44.12-1.07-.53-1.65-.78a6.8 6.8 0 0 0-5.27-.36c-1.74.7-2.31 1.77-2.08 3.84.13 1.06 1.47 2.05 2.92 2.32a43 43 0 0 1 5 .92 4.9 4.9 0 0 1 3.78 4.15 4 4 0 0 0 .26.74v1.88c-.39.41-.26.99-.48 1.47-1.35 2.88-3.78 3.98-6.79 4.15h-1.88a9 9 0 0 1-6.99-3c.67-.64 1.24-1.52 2.05-1.86.91-.38 1.5.8 2.36 1.1a7 7 0 0 0 2.35.65h2.36Z" transform="translate(-2.666 -.96)"/><path id="Path_848" d="m216.29 16.49 9.08.06-.02 2.96q-4.02.01-8.04.05c-.35 0-.78-.22-1.04.23l-.03-.02c-.38.35-.2.8-.2 1.2q-.03 4.05-.02 8.1l-3.24.01.02-22.34H227l.02 2.96-10.71.05c-.37.19-.27.53-.27.82v5.1c0 .3-.1.63.27.82Z" transform="translate(-5.323 -.169)"/><path id="Path_849" d="m131.61 48.17 9.09.07v2.97l-9.09.07c-.35.07-.22.35-.22.56v5.6c0 .2-.12.49.24.55l10.72.05v2.99h-14.23q0-9.09.03-18.18h3.2q-.01 2 .06 4c.02.44-.3.97.23 1.34Z" transform="translate(-3.202 -1.074)"/><path id="Path_850" d="m323.27 48.18 9.09.07v2.96l-9.08.1c-.35.13-.25.43-.25.68v5.34c0 .23-.14.56.25.67l10.7.06.03 3-14.26-.01-.02.02.05-18.2 3.2-.01q0 2 .05 4c.02.45-.27.98.24 1.34Z" transform="translate(-8.004 -1.074)"/><path id="Path_851" d="m194.7 48.18 9.07.06v2.97l-9.07.07c-.35.14-.25.44-.25.7v5.33c0 .23-.14.56.25.67l10.03.07v3.02l-13.55-.05q0-9.08.03-18.17h3.2q-.01 1.92.06 3.84c.03.5-.31 1.07.24 1.5Z" transform="translate(-4.782 -1.074)"/><path id="Path_852" d="M164.4 26.1v2.97h-14.21l-.02-22.34q1.63 0 3.27-.03v18.15c0 .4-.23.86.25 1.16l10.72.08Z" transform="translate(-3.754 -.168)"/><path id="Path_853" fill="#878787" d="m121.72 85.39-1.59-.02-2.55-9.53c.23-.87.93-.7 1.55-.68q.74 2.8 1.42 5.61a4 4 0 0 0 .51 1.08l1.88-6.7q.78 0 1.54.02l1.88 7.03 1.9-7.08 1.62.03-2.41 9.32a7 7 0 0 0-.14.9l-1.59-.02-2-6.9a60 60 0 0 0-2.03 6.92Z" transform="translate(-2.937 -1.883)"/><path id="Path_854" d="m275 42.84.01 18.17h-3.22V42.82z" transform="translate(-6.803 -1.074)"/><path id="Path_855" d="M348.16 42.84v18.17h-3.21V42.84z" transform="translate(-8.636 -1.074)"/><path id="Path_856" d="M215.69 41.58q-3.02-.01-6.02-.04l-.02-2.99 15.64.01v2.96l-5.82.07c-.5.27-.1.77-.28 1.13h-3.2l-.07.01c-.03-.4.24-.84-.24-1.16Z" transform="translate(-5.245 -.966)"/><path id="Path_857" d="M348 42.73h-3.2c-.15-.37.18-.87-.3-1.15l-6.02-.05v-2.98h15.6v2.98c-1.63 0-3.27.11-4.9 0-1.02-.07-1.28.31-1.18 1.2" transform="translate(-8.474 -.966)"/><path id="Path_858" d="m131.32 42.72-3.2.01v-4.17l14.22-.02-.02 3-10.71.06c-.5.3-.16.76-.2 1.14l-.08-.03Z" transform="translate(-3.202 -.966)"/><path id="Path_859" d="m322.97 42.72-3.2.01q0-2.1-.03-4.17h14.22v2.98l-10.7.06c-.48.3-.18.76-.22 1.15z" transform="translate(-8.004 -.966)"/><path id="Path_860" fill="#144696" d="M84.94 84.6a28 28 0 0 1-3.91-3.16q-4.61-3.81-9.15-7.72-1.9-1.66-3.78-3.36v-.72l.25-.23q3.48 2.4 7 4.76c3.27 2.2 6.4 4.63 9.8 6.67-.07 1.25.33 2.54-.22 3.77Z" transform="translate(-1.697 -1.74)"/><path id="Path_861" d="M194.4 42.73h-3.2v-4.17l13.54.01v2.95l-10.03.07c-.5.27-.13.78-.3 1.14" transform="translate(-4.783 -.966)"/><path id="Path_862" d="m305.37 61.01.01-18.17h2.3V61z" transform="translate(-7.644 -1.074)"/><path id="Path_863" fill="#2775be" d="M67.7 69.36v.72c-1.15-.13-1.98.73-3.02.93a1.2 1.2 0 0 0-.6-.95 351 351 0 0 0-6.33-4.82c-.24-.19-.53-.81-1.04-.3a54 54 0 0 1-3.74-4.97l-1.15-1.4.46-.42c.4-.02.65.26.92.47q6.52 5.01 13.03 10.06c.43.33.76.91 1.47.67Z" transform="translate(-1.289 -1.457)"/><path id="Path_864" fill="#878787" d="m344.17 85.44-1.38-.04V75.17l4.21-.04a2.64 2.64 0 0 1 2.79 2.09 2.8 2.8 0 0 1-1.2 3.37c-.64.42-.58.7-.26 1.23q.96 1.67 1.88 3.38c-.57.46-1.24.09-1.85.25a32 32 0 0 1-2.12-4.2c-1.58-.7-2.08-.42-2.08 1.13v3.02l.02.02Zm0-8.87-.02 2.43c0 .34-.03.8.45.8a4.6 4.6 0 0 0 2.37-.18 1.4 1.4 0 0 0 1.34-1.46 1.7 1.7 0 0 0-1.35-1.64 3.8 3.8 0 0 0-2.79.06Z" transform="translate(-8.582 -1.883)"/><path id="Path_865" fill="#878787" d="M220.38 85.39H219l.03-10.22 4.2-.04a2.9 2.9 0 0 1 3.05 2.35v1.17a3.6 3.6 0 0 1-1.63 2.09.4.4 0 0 0-.2.65 26 26 0 0 0 2.08 3.8c-.5.47-1.15.1-1.7.27-1.05-1.25-1.46-2.86-2.33-4.22-.56-.5-1.22-.15-1.84-.22-.4.27-.24.7-.25 1.05q-.03 1.65-.02 3.32Zm.25-8.83a4.5 4.5 0 0 0 0 3.24c.94-.05 1.9.24 2.8-.19 1.62-.93 1.6-2.15 0-3.07a3.8 3.8 0 0 0-2.81.03Z" transform="translate(-5.479 -1.883)"/><path id="Path_866" fill="#878787" d="M381.09 85.39h-1.38l.03-10.22 4.2-.04a2.7 2.7 0 0 1 2.77 1.8 2.63 2.63 0 0 1-.87 3.37 1.18 1.18 0 0 0-.32 1.85c.62 1.04 1.1 2.17 1.64 3.26l-1.83-.02q-1.06-2.08-2.14-4.15c-.56-.52-1.22-.15-1.84-.22-.4.27-.24.7-.25 1.05zm.25-8.83a4.5 4.5 0 0 0 0 3.24c.87-.06 1.74.24 2.57-.19a1.47 1.47 0 0 0 1.38-1.42 1.6 1.6 0 0 0-1.16-1.66 3.8 3.8 0 0 0-2.81.03Z" transform="translate(-9.508 -1.883)"/><path id="Path_867" fill="#878787" d="m234.78 85.42-1.38-.03q0-4.64-.03-9.26c0-.76.24-1.03 1-.99 1.08.05 2.16 0 3.24 0a3 3 0 0 1 2.76 1.9 3.06 3.06 0 0 1-1.32 3.55c-.28.18-.66.22-.37.75.76 1.33 1.3 2.78 2.17 4.05-1.92.17-1.92.17-2.79-1.55q-.69-1.33-1.4-2.64a1.7 1.7 0 0 0-1.85.04q-.01 2.1-.04 4.18Zm.04-5.85a3.6 3.6 0 0 0 2.8.05c.57-.1.85-.56 1.17-.96a.86.86 0 0 0 0-1.19c-.25-.5-.75-.7-1.2-.96a3.6 3.6 0 0 0-2.79.06z" transform="translate(-5.84 -1.883)"/><path id="Path_868" fill="#878787" d="m282.51 85.42-1.38-.03q0-4.64-.03-9.26c0-.76.24-1.03 1-.99 1 .05 2 0 3.01 0a3 3 0 0 1 2.96 1.81 3 3 0 0 1-1.38 3.69c-.39.24-.46.39-.23.79.73 1.3 1.26 2.72 2.12 3.97a2.56 2.56 0 0 1-2.77-1.53l-1.22-2.6a1.8 1.8 0 0 0-2.04-.02zm.02-8.84.02 2.99a3.6 3.6 0 0 0 2.8.05c.57-.1.85-.56 1.17-.96a.86.86 0 0 0 0-1.19c-.25-.5-.75-.7-1.2-.96a3.6 3.6 0 0 0-2.79.06Z" transform="translate(-7.036 -1.883)"/><path id="Path_869" fill="#878787" d="m146.2 85.45-4.43-.06q0-4.64-.03-9.27c-.01-.76.24-1.02 1-.98.93.05 1.85 0 2.78 0 2.34.09 3.4 1.28 3.5 3.97v2.36c-.1 2.34-1 3.61-2.8 3.97Zm-3.03-8.88q-.02 3.25 0 6.49c0 .32-.16.7.25.93 2.51.13 3.38.17 3.97-2.07a6.3 6.3 0 0 0 0-3.5 2.5 2.5 0 0 0-1.66-1.9 3 3 0 0 0-2.56.05" transform="translate(-3.543 -1.883)"/><path id="Path_870" fill="#878787" d="m302.2 81.02-.01 2.89q0 1.58-1.64 1.5l.03-10.25h1.57l.06 4.16a7 7 0 0 0 4.16 0l.06-4.16 1.16-.03c.7.09.43.63.43 1q.02 4.63 0 9.27-1.64.1-1.64-1.5v-2.88a7 7 0 0 0-4.19 0Z" transform="translate(-7.523 -1.883)"/><path id="Path_871" fill="#878787" d="M172.99 85.4q-1.64.1-1.64-1.5l-.01-2.88a7 7 0 0 0-4.18 0l-.01 2.89q0 1.59-1.64 1.5l.03-10.25h1.57l.06 4.16a7 7 0 0 0 4.16 0l.06-4.16h1.57z" transform="translate(-4.139 -1.884)"/><path id="Path_872" fill="#164a9a" d="m51.83 57.84-.46.42a22 22 0 0 1-4.68-1.63c.3-.43.1-.66-.27-.93-1.93-1.36-3.8-2.79-5.7-4.16q-3.44-2.47-6.89-4.9a2 2 0 0 0 .94-1.4 2.4 2.4 0 0 1 1.13.54c3.8 2.76 7.6 5.48 11.37 8.28 1.55 1.15 3.3 2.05 4.56 3.55z" transform="translate(-.838 -1.134)"/><path id="Path_873" fill="#144696" d="m33.79 46.67 6.88 4.9c1.91 1.38 3.78 2.8 5.7 4.16.4.28.58.5.27.93a36 36 0 0 1-4.99-2 90 90 0 0 1-8.97-4.56 4 4 0 0 0-.53-.21c.2-.99 1.05-1.61 1.4-2.53z" transform="translate(-.796 -1.17)"/><path id="Path_874" fill="#878787" d="M402.08 85.18c-1.28.55-1.52.44-1.97-.72-.12-.31-.09-.7-.4-.92a7.5 7.5 0 0 0-4.01 0l-.19.27a2.15 2.15 0 0 1-2.37 1.59l3.77-10.24 1.39-.03q1.88 5.03 3.78 10.05m-5.89-3.3a3.7 3.7 0 0 0 3.02.02q-.68-1.96-1.38-3.91h-.25z" transform="translate(-9.844 -1.883)"/><path id="Path_875" fill="#878787" d="M271.94 85.39c-.56-.05-1.15.25-1.65-.22.63-2.37 1.69-4.6 2.46-6.92.34-1.03.75-2.06 1.13-3.08h1.54l3.77 10.23q-1.66.11-2.54-1.87a7.7 7.7 0 0 0-4.02 0zm4.21-3.5q-.45-1.47-.93-2.94c-.08-.27-.11-.68-.46-.71-.46-.04-.51.45-.6.73-.34.89-.59 1.8-.87 2.71-.1.14-.14.36.02.37a4.7 4.7 0 0 0 2.84-.17Z" transform="translate(-6.765 -1.884)"/><path id="Path_876" fill="#878787" d="m209.8 85.37-1.82.01q1.7-4.8 3.43-9.58a1.3 1.3 0 0 1 .52-.83c.34.31.76.13 1.14.2l3.54 9.4q.12.3.29.6c-.51.47-1.11.18-1.68.23l-.74-1.83a7.3 7.3 0 0 0-4.15 0l-.54 1.81Zm1.2-3.5a3.6 3.6 0 0 0 3 0l-1.58-4.34z" transform="translate(-5.203 -1.879)"/><path id="Path_877" fill="#878787" d="M377.82 85.17c-.5.48-1.13.1-1.68.28a9 9 0 0 1-.73-1.89c-1.28-.54-2.62-.14-3.94-.2a.7.7 0 0 0-.42.63c-.14 1.36-.92 1.7-2.14 1.41a56 56 0 0 1 2-5.82c.5-1.5 1.14-2.96 1.72-4.44l1.39.02 3.3 8.88q.24.58.5 1.14Zm-5.9-3.49-.1.3a6 6 0 0 0 3.04 0l-.09-.31-1.34-4.05a26 26 0 0 0-1.51 4.05Z" transform="translate(-9.237 -1.883)"/><path id="Path_878" fill="#878787" d="M250 85.4h-6.78l.03-10.24h6.7v1.14c-.96 0-1.92-.04-2.88.03-.74.05-1.53-.3-2.21.25v2.74c.27.44.7.25 1.05.25q1.56.04 3.12.03c.19.94-.23 1.16-1.14 1.18-1 .01-2.07-.36-3.04.24q-.06 3 2.98 3a6 6 0 0 0 .82 0c1.18-.22 1.53.33 1.34 1.4Z" transform="translate(-6.086 -1.884)"/><path id="Path_879" fill="#2570ba" d="M2.63 51.4a6 6 0 0 1 1.17-1.86 1.7 1.7 0 0 0 .73.72c3.03 1.93 6.03 3.92 9.1 5.78 1.08.65 2 1.6 3.29 1.91-.17.75-.87 1.26-.94 2.06l-.47.06a1.2 1.2 0 0 0-.57-.55c-2.16-1.37-4.34-2.72-6.45-4.16-1.94-1.33-4.1-2.36-5.85-3.96Z" transform="translate(-.056 -1.242)"/><path id="Path_880" fill="#236cb6" d="M2.6 51.45c1.75 1.6 3.9 2.63 5.84 3.96 2.12 1.44 4.3 2.79 6.45 4.16a1.2 1.2 0 0 1 .57.55l-1.17 1.86a41 41 0 0 0-5.54-3.75c-2.3-1.55-4.68-2.99-7.03-4.47a2 2 0 0 0-.54-.2 11 11 0 0 1 1.4-2.1Z" transform="translate(-.02 -1.29)"/><path id="Path_881" fill="#878787" d="M268.22 85.39h-6.51l.02-10.23 5.71-.01c.42 0 .8.02.8.58s-.39.59-.8.59c-.39 0-.78-.04-1.17 0-.97.13-2-.32-2.93.26v2.74c.27.44.7.25 1.05.26l3.12.02c.19.94-.23 1.16-1.14 1.18-1 .01-2.07-.36-3.04.24q-.06 3 2.92 3 .98 0 1.96.03v1.32Z" transform="translate(-6.55 -1.884)"/><path id="Path_882" fill="#878787" d="M138.92 85.4h-6.48V75.18h6.5v1.13a17 17 0 0 0-1.73.03c-1.06.1-2.14-.28-3.15.23a3.8 3.8 0 0 0 .02 3.02l4.16.05v1.12c-1.39.17-2.8-.3-4.17.25a3.8 3.8 0 0 0 .03 3.01l4.84.04v1.35Z" transform="translate(-3.31 -1.884)"/><path id="Path_883" fill="#878787" d="m330.84 85.43-6.54-.03.03-10.23h6.5v1.13a17 17 0 0 0-1.74.03c-1.06.1-2.14-.28-3.15.23a4 4 0 0 0 .02 3.02l4.16.04v1.13c-1.38.17-2.8-.3-4.17.25a3.8 3.8 0 0 0 .03 3.01l4.84.04.01 1.37z" transform="translate(-8.119 -1.884)"/><path id="Path_884" fill="#878787" d="M359.11 85.4h-6.48V75.18h6.5v1.13a17 17 0 0 0-1.73.03c-1.06.1-2.14-.28-3.15.23a4 4 0 0 0 .01 3.02l4.17.05v1.12c-1.39.17-2.81-.3-4.18.25a3.8 3.8 0 0 0 .03 3.01l4.85.04v1.35Z" transform="translate(-8.829 -1.884)"/><path id="Path_885" fill="#878787" d="M181.77 85.39h-1.36V75.16l4.21-.04a2.9 2.9 0 0 1 3 2.87 3.25 3.25 0 0 1-2.78 3.4 4 4 0 0 0-2.81.06c-.53 1.27-.09 2.62-.26 3.93Zm.25-8.83a4.7 4.7 0 0 0 0 3.26 3.8 3.8 0 0 0 2.8.02c1.64-1.36 1.58-2.25-.23-3.33a3.3 3.3 0 0 0-2.57.05" transform="translate(-4.512 -1.883)"/><path id="Path_886" fill="#1954a1" d="M28.34 54.72a18 18 0 0 1-2.34 3.5 72 72 0 0 0-5.84-4.46c.2-.94 1.26-1.36 1.4-2.34l.92-1.17z" transform="translate(-.496 -1.26)"/><path id="Path_887" d="M307.52 42.73h-2.3c.1-.88-.16-1.26-1.19-1.2-1.62.11-3.26.01-4.9 0v-2.97l8.39.01z" transform="translate(-7.488 -.966)"/><path id="Path_888" fill="#174d9c" d="M20.11 53.86a68 68 0 0 1 5.84 4.46 11 11 0 0 1-1.69 2.77 2.6 2.6 0 0 1-1.2-.64 55 55 0 0 0-4.83-3.56l.24-.69a9 9 0 0 0 1.62-2.35z" transform="translate(-.447 -1.35)"/><path id="Path_889" fill="#1c5aa7" d="m28.4 54.65-5.86-4.46.23-.7c.15-.24.52-.33.48-.7a.7.7 0 0 0 .47-.7l.46-.46 1.66 1.06c1.48 1.02 2.74 2.37 4.4 3.14l-1.83 2.82Z" transform="translate(-.555 -1.194)"/><path id="Path_890" d="M307.74 42.73v-4.16l7.25-.05-.01.02-.01 3-6.03.04c-.48.31-.2.76-.23 1.16l-.07-.02z" transform="translate(-7.703 -.965)"/><path id="Path_891" fill="#1f61ad" d="M33.37 47.28c-.33.9-1.2 1.53-1.4 2.53l-.45.06-5.87-4.47.7-1.38q.23-.48.5-.93c.72-.03 1.16.5 1.7.89 1.58 1.13 2.95 2.6 4.83 3.31Z" transform="translate(-.633 -1.08)"/><path id="Path_892" fill="#878787" d="M206.33 85.39h-6.51c0-2.99.05-5.97-.05-8.94-.04-1.15.38-1.46 1.4-1.28q-.01 3.82.04 7.65c0 .38-.23.86.24 1.16 1.19.01 2.39.12 3.56.01 1.16-.1 1.54.31 1.31 1.4Z" transform="translate(-4.997 -1.883)"/><path id="Path_893" fill="#878787" d="M365.65 85.4h-1.35l-.05-8.82c-.95-.58-2-.1-2.98-.28v-1.14l6.4-.01c.41 0 .8 0 .8.56s-.35.57-.77.6c-.6.06-1.23-.22-1.8.2l.01.02c-.42.33-.22.8-.23 1.2q-.04 3.82-.04 7.65Z" transform="translate(-9.045 -1.884)"/><path id="Path_894" fill="#878787" d="M406.9 85.4h-1.34l-.04-7.65c0-.4.18-.86-.24-1.2l.01-.01c-.52-.42-1.12-.16-1.69-.22-.41-.03-.9.06-.88-.6s.5-.56.91-.56l6.3.01v1.13c-1 .18-2.05-.3-3 .27z" transform="translate(-10.084 -1.883)"/><path id="Path_895" fill="#154898" d="M18.2 56.96a52 52 0 0 1 4.82 3.56 2.5 2.5 0 0 0 1.2.64c-.83 1.7-.9 1.7-2.62 1s-3.53-1.32-5.28-1.97c.07-.8.77-1.3.94-2.06.46-.26.6-.8.93-1.17" transform="translate(-.399 -1.428)"/><path id="Path_896" fill="#2570b9" d="M56.83 65.11c.5-.51.79.11 1.04.3q3.2 2.37 6.33 4.82a1.2 1.2 0 0 1 .6.95 1 1 0 0 1-.26.2c-.91.35-1.95 1.17-2.67.94-.76-.23-1.25-1.44-1.78-2.27a51 51 0 0 1-3.25-4.93Z" transform="translate(-1.415 -1.627)"/><path id="Path_897" fill="#1e5eaa" d="m25.62 45.45 5.87 4.47-1.22 1.86c-1.67-.77-2.92-2.12-4.4-3.14q-.81-.54-1.66-1.06.23-.48.47-.93c0-.53.79-.59.7-1.17z" transform="translate(-.597 -1.139)"/><path id="Path_898" fill="#878787" d="M153.47 85.4h-1.63l.03-10.24h1.57Z" transform="translate(-3.796 -1.884)"/><path id="Path_899" fill="#878787" d="M391.4 85.4h-1.62l.03-10.24h1.57z" transform="translate(-9.76 -1.884)"/><path id="Path_900" d="M275 42.73h-3.2l-.07.01.05-4.17h3.24z" transform="translate(-6.801 -.967)"/><path id="Path_901" fill="#9dd4f5" d="m85.85 6.45-.02 35.49h-.17L85.6 41l.01-34.5.04-.1z" transform="translate(-2.136 -.16)"/><path id="Path_902" fill="#bfbfbf" d="M108.91 6.73q0 11.18-.02 22.35v.23c-.4-.28-.23-.7-.23-1.07q-.02-10.34 0-20.67c0-.36-.16-.79.26-1.06a.4.4 0 0 0 0 .22Z" transform="translate(-2.713 -.163)"/><path id="Path_903" fill="#bfbfbf" d="M212.77 6.73q0 11.18-.02 22.35v.23c-.4-.28-.23-.7-.23-1.07q-.02-10.34 0-20.67c0-.36-.16-.79.26-1.06a.4.4 0 0 0 0 .22Z" transform="translate(-5.316 -.163)"/><path id="Path_904" fill="#7f7f7f" d="M191.2 38.56v4.17q0 9.09-.04 18.18v.22c-.32-.1-.24-.36-.24-.57q0-11 .03-21.99l.12-.02h.11Z" transform="translate(-4.775 -.966)"/><path id="Path_905" fill="#7f7f7f" d="m150.15 6.72.02 22.35-.22-.01-.03-21.98c0-.22-.09-.48.24-.58v.22Z" transform="translate(-3.748 -.163)"/><path id="Path_906" fill="#7f7f7f" d="M128.11 38.56v4.17q0 9.09-.03 18.18v.22c-.32-.1-.24-.36-.24-.57q0-11 .03-21.99l.12-.02z" transform="translate(-3.194 -.966)"/><path id="Path_907" fill="#bfbfbf" d="M319.73 38.55q0 2.09.03 4.18l-.05 18.2c-.37-.3-.22-.72-.22-1.08V39.39c0-.36-.18-.78.22-1.07z" transform="translate(-7.997 -.96)"/><path id="Path_908" fill="#bfbfbf" d="M147.75 38.55q0 11.2-.02 22.38c-.37-.3-.22-.72-.22-1.08V39.39c0-.36-.18-.78.22-1.07z" transform="translate(-3.687 -.96)"/><path id="Path_909" fill="#7f7f7f" d="m249.96 38.56-.02 22.35v.22c-.32-.1-.24-.36-.24-.57q0-11 .03-21.99l.11-.02z" transform="translate(-6.249 -.966)"/><path id="Path_910" fill="#7f7f7f" d="m252.81 6.72.02 22.36h-.23l-.02-21.88c0-.23-.15-.55.22-.7z" transform="translate(-6.32 -.163)"/><path id="Path_911" fill="#7f7f7f" d="m340.39 29.07-.02-21.88c0-.23-.15-.55.22-.69v.22l.02 22.36h-.23Z" transform="translate(-8.521 -.163)"/><path id="Path_912" fill="#7f7f7f" d="M344 6.66c.23.16.2.4.2.63q0 10.88-.03 21.77l-.23.01V6.74l.08-.08Z" transform="translate(-8.611 -.167)"/><path id="Path_913" fill="#3f3f3f" d="M190.94 6.73v22.34a.3.3 0 0 1-.22 0l.01-22.35h.1z" transform="translate(-4.771 -.168)"/><path id="Path_914" fill="#3f3f3f" d="M367.69 29.07V6.74l.21-.01.02 22.35a.4.4 0 0 1-.22 0Z" transform="translate(-9.206 -.169)"/><path id="Path_915" fill="#3f3f3f" d="M169.83 38.57V60.9l-.21.01-.02-22.35.12-.02z" transform="translate(-4.241 -.966)"/><path id="Path_916" fill="#3f3f3f" d="M344.65 41.66c.48.28.16.78.3 1.15v18.16l-.22.01-.05-17.12q0-1.1-.03-2.21Z" transform="translate(-8.629 -1.044)"/><path id="Path_917" fill="#7f7f7f" d="M153.76 26.02c-.48-.3-.24-.78-.24-1.16q-.02-9.08-.01-18.15c.45.32.22.79.22 1.18q.05 8.97.05 17.93l-.02.21Z" transform="translate(-3.837 -.168)"/><path id="Path_918" fill="#bfbfbf" d="M219.43 42.81c.19-.35-.21-.86.28-1.13l-.02 18.11c0 .41.13.86-.16 1.24l-.11-.03V42.82Z" transform="translate(-5.49 -1.045)"/><path id="Path_919" fill="#3f3f3f" d="M215.92 61.01V42.84l.17.01.06-.02V61l-.21.01Z" transform="translate(-5.402 -1.074)"/><path id="Path_920" fill="#3f3f3f" d="M271.78 42.83V61l-.21.01V42.84l.17.01.06-.02Z" transform="translate(-6.797 -1.074)"/><path id="Path_921" fill="#3f3f3f" d="M308.9 42.84q0 8.82.03 17.65c0 .22.05.47-.22.6l-.02-.12-.02-18.14.07.02z" transform="translate(-7.727 -1.074)"/><path id="Path_922" fill="#3f3f3f" d="m353.78 29.24.02-14.4c0-.32-.09-.7.06-.92.33-.45.35-.04.39.22-.47.31-.2.78-.2 1.16q-.04 6.98-.04 13.95a.4.4 0 0 1-.23 0Z" transform="translate(-8.858 -.344)"/><path id="Path_923" fill="#bfbfbf" d="M354.07 38.55h-15.84c.19-.37.54-.25.82-.25h14.4c.3 0 .64-.08.84.26a.4.4 0 0 0-.23 0Z" transform="translate(-8.468 -.96)"/><path id="Path_924" fill="#bfbfbf" d="M225.29 38.56h-15.64l-.01-.24 15.04-.02c.3 0 .64-.09.83.26a.4.4 0 0 0-.22 0" transform="translate(-5.245 -.96)"/><path id="Path_925" fill="silver" d="m314.77 38.52-7.25.05h-8.38a.4.4 0 0 0-.23 0c.2-.34.53-.26.83-.26h14.3c.26 0 .56-.05.73.22Z" transform="translate(-7.482 -.96)"/><path id="Path_926" fill="#a5a5a5" d="M237.6 75.13c-1.08 0-2.16.05-3.25 0-.76-.02-1 .24-1 .99q.06 4.62.04 9.26l-.12.02-.12-.01q0-4.78-.03-9.54c0-.7.2-1.02.92-.93 1.18.13 2.39-.26 3.55.22Z" transform="translate(-5.833 -1.877)"/><path id="Path_927" fill="#bfbfbf" d="m319.74 38.55-.01-.23 13.62-.03c.3 0 .63-.08.83.26a.4.4 0 0 0-.22 0z" transform="translate(-8.004 -.96)"/><path id="Path_928" fill="#7f7f7f" d="M212.78 6.73v-.22l13.83-.04c.23 0 .48-.04.59.25l-.21.02z" transform="translate(-5.323 -.162)"/><path id="Path_929" fill="#a5a5a5" d="M285.11 75.12c-1 0-2 .05-3.01 0-.75-.04-1.02.23-1 .99q.05 4.63.03 9.26l-.12.02-.12-.01q.01-4.78-.04-9.55c0-.72.23-1 .94-.93 1.1.12 2.23-.23 3.31.21Z" transform="translate(-7.03 -1.877)"/><path id="Path_930" fill="#bfbfbf" d="M191.2 38.55h-.12l-.12.01c.2-.34.53-.27.83-.27h12.91c.26 0 .56-.05.73.22l-.7.05z" transform="translate(-4.777 -.96)"/><path id="Path_931" fill="#bfbfbf" d="m149.95 29.64.22.01h14.22c-.19.37-.53.26-.82.26h-12.8c-.3 0-.62.08-.82-.27" transform="translate(-3.749 -.743)"/><path id="Path_932" fill="#bfbfbf" d="M128.11 38.55H128l-.12.01c.2-.34.53-.27.83-.27h12.91c.26 0 .56-.06.72.24z" transform="translate(-3.196 -.96)"/><path id="Path_933" fill="#7f7f7f" d="m128.09 61.7.01-.22h14.22v.22Z" transform="translate(-3.201 -1.541)"/><path id="Path_934" fill="#7f7f7f" d="m319.75 61.49 14.25.01c-.14.34-.45.22-.7.22h-12.86c-.24 0-.56.13-.69-.24Z" transform="translate(-8.005 -1.541)"/><path id="Path_935" fill="#a5a5a5" d="M145.52 75.12c-.93 0-1.87.06-2.78 0-.76-.04-1.02.23-1 .99q.04 4.63.03 9.26l-.12.02h-.12q.01-4.78-.04-9.55c0-.72.23-1.02.94-.92 1.02.13 2.08-.25 3.08.21Z" transform="translate(-3.537 -1.877)"/><path id="Path_936" fill="#8ca8cf" d="M85.37 84.67c.56-1.23.15-2.52.22-3.77v-7.93l.08-1.17h.17l.03 12.53c0 .23.14.58-.25.66-.2.04-.2-.2-.24-.33Z" transform="translate(-2.13 -1.8)"/><path id="Path_937" fill="#7f7f7f" d="m191.17 61.7.01-.22 13.54.05.03.17z" transform="translate(-4.782 -1.541)"/><path id="Path_938" fill="#a6a6a6" d="M263.34 76.58c.94-.59 1.96-.14 2.93-.27a8 8 0 0 1 1.17 0c.41 0 .8 0 .8-.58s-.39-.59-.8-.59l-5.7.01c.25-.44.68-.23 1.03-.23 1.63-.03 3.25 0 4.88-.02.56 0 .85.14.85.77s-.19.9-.86.89q-2.14-.03-4.3.02" transform="translate(-6.55 -1.877)"/><path id="Path_939" fill="#a5a5a5" d="M201.17 75.16c-1.01-.17-1.43.13-1.4 1.28.1 2.98.04 5.97.05 8.94l-.11.02h-.12l-.02-8.96q0-1.53 1.6-1.5v.24Z" transform="translate(-4.992 -1.879)"/><path id="Path_940" fill="#a5a5a5" d="M409.93 75.15h-6.29c-.4 0-.9-.11-.92.56s.47.56.9.6c.56.06 1.16-.2 1.68.21-.66 0-1.32-.02-1.97.03-.67.05-.86-.24-.86-.88s.28-.77.85-.77l6.03.01c.23 0 .48-.04.59.25Z" transform="translate(-10.078 -1.878)"/><path id="Path_941" fill="#a5a5a5" d="M365.9 76.53c.56-.43 1.2-.16 1.8-.2.42-.04.78-.05.77-.6 0-.58-.4-.57-.8-.57l-6.4.01c.1-.29.36-.24.58-.24l6.03-.01c.57 0 .85.13.85.77s-.17.93-.86.88c-.65-.05-1.31-.02-1.96-.03Z" transform="translate(-9.045 -1.878)"/><path id="Path_942" fill="#3f3f3f" d="M151.35 49.48c-.5-.19-.21-.6-.22-.89q-.04-5.02-.03-10.02l.12-.02.11.02.03 10.92Z" transform="translate(-3.776 -.966)"/><path id="Path_943" fill="#bfbfbf" d="m153.77 26.51.02-.21q4.77 0 9.54.04c.39 0 .86-.21 1.17.25z" transform="translate(-3.844 -.659)"/><path id="Path_944" fill="#c3c3c3" d="M352.61 75.16v10.22h-.23l-.02-9.61c0-.3-.1-.63.25-.83z" transform="translate(-8.822 -1.878)"/><path id="Path_945" fill="#c3c3c3" d="M342.78 75.16V85.4h-.24l-.01-9.5c0-.32-.15-.71.24-.94z" transform="translate(-8.575 -1.879)"/><path id="Path_946" fill="#c3c3c3" d="M180.4 75.16V85.4h-.24l-.02-9.61c0-.3-.1-.64.24-.83v.21Z" transform="translate(-4.505 -1.879)"/><path id="Path_947" fill="#c3c3c3" d="M132.42 75.16v10.22h-.23l-.02-9.61c0-.3-.1-.63.25-.83z" transform="translate(-3.303 -1.878)"/><path id="Path_948" fill="#e1e1e1" d="M389.8 75.16q0 5.13-.03 10.25h-.24v-9.29c0-.4-.19-.87.25-1.18v.22Z" transform="translate(-9.753 -1.878)"/><path id="Path_949" fill="#91b5db" d="M85.82 71.54h-.16l-.07-.47v-7.68l.07-2.11h.16z" transform="translate(-2.136 -1.536)"/><path id="Path_950" d="m205.1 61.64-.03-.18v-3.02l.67-.01.06 3.02c-.16.34-.46.19-.71.19Z" transform="translate(-5.13 -1.465)"/><path id="Path_951" fill="#bfbfbf" d="m169.83 38.56-.11-.02-.12.02c.12-.25.35-.26.59-.26h8.68a2 2 0 0 1 .53.19z" transform="translate(-4.241 -.96)"/><path id="Path_952" fill="#bfbfbf" d="M249.96 38.55h-.11l-.12.01a.6.6 0 0 1 .6-.27l8.79.01c.14 0 .27.12.4.17z" transform="translate(-6.25 -.96)"/><path id="Path_953" fill="#7f7f7f" d="m190.95 6.72-.11-.02h-.1c.07-.32.34-.24.56-.24h8.38c.22 0 .47-.03.62.2z" transform="translate(-4.771 -.162)"/><path id="Path_954" fill="#bfbfbf" d="m173.15 61.24.05-9.26.12-.02.11.02q0 4.16-.03 8.32c0 .4.19.85-.25 1.17a.4.4 0 0 0 0-.23" transform="translate(-4.33 -1.302)"/><path id="Path_955" fill="#7f7f7f" d="M256.14 29.4q0-4.22.04-8.46c0-.34-.23-.77.22-1.03l.01.22-.05 9.28z" transform="translate(-6.41 -.499)"/><path id="Path_956" fill="#7f7f7f" d="M216.36 20.1c.26-.45.7-.22 1.04-.23q4.03-.04 8.04-.05l.21.02c-.3.46-.78.23-1.16.24q-4.06.03-8.14.02Z" transform="translate(-5.413 -.497)"/><path id="Path_957" fill="#7f7f7f" d="m253.29 61.27.03-9.31h.23q.01 4.12-.04 8.26c0 .35.2.78-.22 1.05" transform="translate(-6.339 -1.302)"/><path id="Path_958" fill="#3f3f3f" d="m216.1 29.4.02-8.1c0-.4-.17-.86.2-1.2v9.31a.4.4 0 0 1-.22 0Z" transform="translate(-5.406 -.504)"/><path id="Path_959" fill="#bfbfbf" d="m194.27 29.43.06-9.3.21.01q.01 4.05-.04 8.11c0 .4.2.86-.23 1.18" transform="translate(-4.86 -.505)"/><path id="Path_960" fill="#7f7f7f" d="m252.82 6.72-.01-.22 8.87-.04c.2 0 .4 0 .5.2Z" transform="translate(-6.327 -.162)"/><path id="Path_961" fill="#bfbfbf" d="m131.68 51.5 9.09-.07h.21c-.31.45-.78.26-1.18.26q-4.06.02-8.13.02z" transform="translate(-3.291 -1.289)"/><path id="Path_962" fill="#bfbfbf" d="m194.79 51.5 9.07-.07h.21c-.31.45-.78.26-1.17.26l-8.1.03v-.21Z" transform="translate(-4.873 -1.289)"/><path id="Path_963" fill="#bfbfbf" d="m323.35 51.5 9.08-.09.1.02.12-.02c-.31.45-.78.26-1.17.26l-8.12.03z" transform="translate(-8.095 -1.289)"/><path id="Path_964" fill="#99c9eb" d="M85.66 42.85h.17v9.1h-.16l-.06-.7v-8.39h.07Z" transform="translate(-2.136 -1.074)"/><path id="Path_965" fill="#e1e1e1" d="M201.21 75.16v-.23c.44.31.25.78.25 1.18q.03 3.93.02 7.88c-.46-.3-.23-.78-.23-1.16q-.05-3.83-.05-7.66Z" transform="translate(-5.033 -1.878)"/><path id="Path_966" fill="#7f7f7f" d="M108.92 6.73v-.22l8.6-.04c.2 0 .4 0 .52.2Z" transform="translate(-2.72 -.162)"/><path id="Path_967" d="m205.08 38.57.7-.05-.02.02-.01 3-.67-.02z" transform="translate(-5.131 -.965)"/><path id="Path_968" fill="#3f3f3f" d="M112.24 29.41q0-3.8.03-7.63c0-.39-.2-.86.25-1.17a.4.4 0 0 0 0 .22l-.06 8.58a.4.4 0 0 1-.22 0" transform="translate(-2.803 -.517)"/><path id="Path_969" fill="#95c0e3" d="M85.66 52.17h.16v8.87h-.16l-.07-.92v-6.54l.07-1.39Z" transform="translate(-2.136 -1.308)"/><path id="Path_970" fill="#c3c3c3" d="m364.32 76.61.05 8.82h-.23l-.06-8.82Z" transform="translate(-9.116 -1.92)"/><path id="Path_971" fill="#c3c3c3" d="M365.76 85.43q0-3.83.04-7.65c0-.4-.19-.86.23-1.19l-.04 8.84Z" transform="translate(-9.158 -1.92)"/><path id="Path_972" fill="#c3c3c3" d="M405.35 76.59c.42.32.22.79.23 1.19q.03 3.82.04 7.65h-.23z" transform="translate(-10.15 -1.92)"/><path id="Path_973" fill="#3f3f3f" d="M172.72 25.15c.16-.3.45-.26.71-.26h7.44c.26 0 .56-.06.71.25z" transform="translate(-4.319 -.624)"/><path id="Path_974" fill="#c3c3c3" d="m407.01 85.43.05-8.82h.24l-.06 8.82Z" transform="translate(-10.192 -1.92)"/><path id="Path_975" fill="#bfbfbf" d="M389.54 17.25h-8.16v-.23l7.34-.02c.3 0 .64-.1.82.26Z" transform="translate(-9.549 -.426)"/><path id="Path_976" fill="#7e7e7e" d="m323.34 51.5.01.21v6.49c-.4-.11-.26-.43-.26-.68V52.2c0-.25-.1-.56.25-.7" transform="translate(-8.088 -1.291)"/><path id="Path_977" fill="#a5a5a5" d="M249.97 75.15h-6.71c.21-.42.61-.23.93-.23q2.42-.03 4.85 0c.31 0 .71-.19.93.23" transform="translate(-6.088 -1.877)"/><path id="Path_978" fill="#7e7e7e" d="m194.78 51.5.01.21v6.49c-.4-.11-.26-.43-.26-.68V52.2c0-.25-.1-.56.25-.7" transform="translate(-4.866 -1.291)"/><path id="Path_979" fill="#bfbfbf" d="M131.67 51.5v6.69c-.35-.06-.24-.34-.24-.55v-5.6c0-.2-.12-.48.22-.55Z" transform="translate(-3.284 -1.291)"/><path id="Path_980" fill="#3f3f3f" d="M216.37 16.57c-.37-.19-.25-.53-.26-.82v-5.1c0-.3-.1-.64.26-.82Z" transform="translate(-5.407 -.246)"/><path id="Path_981" fill="#a5a5a5" d="M352.62 75.16v-.21l6.5-.01v.21z" transform="translate(-8.828 -1.878)"/><path id="Path_982" fill="#a5a5a5" d="M330.81 75.16h-6.49a.4.4 0 0 1 0-.22h6.5z" transform="translate(-8.119 -1.878)"/><path id="Path_983" fill="#3f3f3f" d="M151.09 61.3q0-2.64.03-5.3c0-.4-.14-.84.2-1.2v6.51z" transform="translate(-3.777 -1.374)"/><path id="Path_984" fill="#a5a5a5" d="M132.43 75.16v-.21l6.5-.01v.21z" transform="translate(-3.309 -1.878)"/><path id="Path_985" fill="#7f7f7f" d="M194.49 42.81c.17-.36-.2-.87.3-1.14v6.47c-.55-.41-.21-.99-.24-1.49-.07-1.27-.04-2.56-.06-3.84" transform="translate(-4.865 -1.044)"/><path id="Path_986" fill="#fef2aa" d="m85.85 6.29-.2-.05-.04-.19V.02c.43.27.25.7.26 1.05v5.2Z" transform="translate(-2.136 -.001)"/><path id="Path_987" fill="silver" d="M112.53 20.83a.3.3 0 0 1 0-.22h6.05c-1.19.46-2.41.12-3.63.2-.8.05-1.61.01-2.42.02" transform="translate(-2.81 -.517)"/><path id="Path_988" fill="#7f7f7f" d="m128.54 15.06-.02 5.87-.17-.03-.01-4.98c0-.3-.1-.63.2-.86" transform="translate(-3.207 -.377)"/><path id="Path_989" fill="#a6a6a6" d="M244.91 81.13c.97-.6 2.03-.22 3.04-.23.9-.01 1.32-.23 1.14-1.18h.22c.26 1.12-.18 1.5-1.3 1.4-1.03-.09-2.07 0-3.1.01" transform="translate(-6.129 -1.998)"/><path id="Path_990" fill="#a6a6a6" d="M263.38 81.13c.97-.6 2.03-.22 3.04-.23.9-.01 1.32-.23 1.14-1.18h.22c.26 1.12-.18 1.5-1.3 1.4-1.03-.09-2.07 0-3.1.01" transform="translate(-6.592 -1.998)"/><path id="Path_991" fill="#bfbfbf" d="M131.7 48.17c-.52-.36-.22-.9-.24-1.33-.06-1.34-.04-2.67-.06-4.01l.08.03.16-.01.04 5.33Z" transform="translate(-3.283 -1.074)"/><path id="Path_992" fill="#7f7f7f" d="M323.35 48.18c-.52-.37-.22-.9-.24-1.34q-.06-2-.05-4l.08.03.15-.01.07 5.34Z" transform="translate(-8.087 -1.074)"/><path id="Path_993" fill="#a5a5a5" d="M244.91 76.61c.68-.53 1.47-.2 2.21-.25.96-.07 1.92-.02 2.89-.03-.68.5-1.47.19-2.2.23-.97.07-1.93.04-2.9.05" transform="translate(-6.129 -1.912)"/><path id="Path_994" fill="#a5a5a5" d="M134.09 76.58c1.01-.5 2.1-.13 3.15-.23.57-.05 1.15-.02 1.73-.03v.21z" transform="translate(-3.351 -1.913)"/><path id="Path_995" fill="#a5a5a5" d="M354.28 76.58c1.01-.5 2.1-.13 3.15-.23.57-.05 1.15-.02 1.73-.03v.21z" transform="translate(-8.87 -1.913)"/><path id="Path_996" fill="#a5a5a5" d="M325.97 76.58c1.01-.5 2.1-.13 3.15-.23.57-.05 1.15-.02 1.73-.03v.21z" transform="translate(-8.161 -1.913)"/><path id="Path_997" fill="#bfbfbf" d="M164.64 38.74c-1.36-.46-2.77-.12-4.16-.19 1.37-.55 2.79-.18 4.18-.2.25 0 .19.26-.03.4Z" transform="translate(-4.013 -.959)"/><path id="Path_998" fill="#7f7f7f" d="M381.4 20.07q1.8 0 3.6.04c.35 0 .78-.22 1.03.23l-4.62-.05z" transform="translate(-9.55 -.503)"/><path id="Path_999" fill="#3e3e3e" d="M253.55 51.95h-.23c1.38-.53 2.8-.23 4.21-.14.07 0 .12.25.19.38-1.36-.57-2.78-.15-4.17-.25Z" transform="translate(-6.34 -1.294)"/><path id="Path_1000" fill="#7f7f7f" d="M247.81 20.48v-4.7l.17.04v4.63z" transform="translate(-6.201 -.396)"/><path id="Path_1001" fill="silver" d="M308.45 29.71c1.3-.22 2.66.27 3.95-.25.33.24.12.43-.12.42-1.28-.05-2.57.25-3.84-.17Z" transform="translate(-7.721 -.738)"/><path id="Path_1002" fill="#bfbfbf" d="M265.3 29.64c1.34-.07 2.7.32 4-.21.1.12.2.36.04.37a9 9 0 0 1-4.04-.16" transform="translate(-6.64 -.738)"/><path id="Path_1003" fill="silver" d="M203.42 29.64c1.33-.07 2.68.32 3.99-.21.1.13.17.36.02.37-1.35.07-2.7.37-4.02-.17Z" transform="translate(-5.089 -.738)"/><path id="Path_1004" fill="#c4c4c4" d="M267.78 79.71h-.22q-1.55 0-3.12-.03c-.35 0-.78.19-1.04-.25q1.67-.01 3.33.04c.36 0 .78-.17 1.06.24Z" transform="translate(-6.592 -1.991)"/><path id="Path_1005" fill="#c4c4c4" d="M249.3 79.71h-.2q-1.57 0-3.13-.03c-.35 0-.78.19-1.04-.25q1.66-.01 3.33.04c.36 0 .78-.17 1.06.24Z" transform="translate(-6.129 -1.991)"/><path id="Path_1006" fill="silver" d="M231.18 15.79v4.45a10.5 10.5 0 0 1 0-4.45" transform="translate(-5.779 -.396)"/><path id="Path_1007" fill="#7f7f7f" d="M262.44 61.47c1.33-.1 2.68.33 3.98-.22.2.14.21.44.04.43-1.34-.03-2.7.34-4.02-.2" transform="translate(-6.568 -1.535)"/><path id="Path_1008" fill="gray" d="M182.27 61.52q1.55 0 3.1-.03c.31 0 .7.16.93-.24.26.22.16.46-.11.45-1.3-.05-2.63.28-3.91-.18Z" transform="translate(-4.559 -1.535)"/><path id="Path_1009" fill="#7f7f7f" d="M161.45 61.47c1.33-.1 2.68.33 3.98-.22.2.14.21.44.04.43-1.34-.03-2.7.34-4.02-.2" transform="translate(-4.037 -1.535)"/><path id="Path_1010" fill="#3e3e3e" d="m173.43 51.96-.11-.02-.12.02a7 7 0 0 1 4.17 0z" transform="translate(-4.331 -1.294)"/><path id="Path_1011" fill="#a5a5a5" d="M180.4 75.16v-.21c1.4.03 2.83-.27 4.21.17z" transform="translate(-4.512 -1.877)"/><path id="Path_1012" fill="#3f3f3f" d="M271.73 42.74h-.17l-.02-4.17.12-.02.11.02z" transform="translate(-6.796 -.966)"/><path id="Path_1013" fill="#c3c3c3" d="M171.36 79.43a7 7 0 0 1-4.16 0Z" transform="translate(-4.181 -1.991)"/><path id="Path_1014" fill="#7e7e7e" d="M194.55 20.13h-.22a7 7 0 0 1 4.13 0z" transform="translate(-4.861 -.496)"/><path id="Path_1015" fill="#a5a5a5" d="m223.23 75.12-4.2.04a.4.4 0 0 1 0-.22c1.4.07 2.83-.26 4.21.2Z" transform="translate(-5.48 -1.877)"/><path id="Path_1016" fill="#c3c3c3" d="m138.26 79.72-4.16-.05v-.24l4.16.05Z" transform="translate(-3.351 -1.991)"/><path id="Path_1017" fill="#a5a5a5" d="M134.09 81.13c1.37-.55 2.79-.07 4.17-.25v.23z" transform="translate(-3.351 -2.027)"/><path id="Path_1018" fill="#c3c3c3" d="M306.4 79.43a7 7 0 0 1-4.16 0Z" transform="translate(-7.566 -1.991)"/><path id="Path_1019" fill="#7f7f7f" d="m311.68 6.72-4.2-.06a8 8 0 0 1 4.2.06" transform="translate(-7.697 -.161)"/><path id="Path_1020" fill="silver" d="M183.27 29.64c1.25-.07 2.53.32 3.75-.21.11.13.18.36.02.37-1.26.06-2.54.39-3.78-.17Z" transform="translate(-4.584 -.738)"/><path id="Path_1021" fill="#c3c3c3" d="m330.15 79.72-4.16-.05v-.24l4.16.05Z" transform="translate(-8.161 -1.991)"/><path id="Path_1022" fill="#a5a5a5" d="M325.97 81.13c1.37-.55 2.79-.07 4.17-.25v.23z" transform="translate(-8.161 -2.027)"/><path id="Path_1023" fill="#a5a5a5" d="M342.79 75.16v-.21c1.4.03 2.83-.27 4.22.17z" transform="translate(-8.582 -1.877)"/><path id="Path_1024" fill="#a5a5a5" d="M354.28 81.13c1.37-.55 2.79-.07 4.17-.25v.23z" transform="translate(-8.87 -2.027)"/><path id="Path_1025" fill="#c3c3c3" d="m358.46 79.72-4.16-.05v-.24l4.16.05Z" transform="translate(-8.871 -1.991)"/><path id="Path_1026" fill="#a5a5a5" d="m383.93 75.12-4.2.04a.4.4 0 0 1 0-.22c1.4.07 2.83-.26 4.21.2Z" transform="translate(-9.508 -1.877)"/><path id="Path_1027" fill="#818181" d="M295.48 61.53c1.17-.21 2.4.3 3.55-.28.17.17.2.43-.03.43a10 10 0 0 1-3.52-.15" transform="translate(-7.396 -1.535)"/><path id="Path_1028" fill="#7f7f7f" d="m256.42 20.12-.01-.22c1.32.08 2.66-.35 3.95.22z" transform="translate(-6.417 -.497)"/><path id="Path_1029" fill="#a5a5a5" d="M181.8 85.55c.17-1.3-.27-2.65.25-3.93q0 1.97-.03 3.94h-.11l-.12-.02Z" transform="translate(-4.547 -2.046)"/><path id="Path_1030" fill="silver" d="M167.45 29.63h3.7a5.2 5.2 0 0 1-3.7 0" transform="translate(-4.187 -.743)"/><path id="Path_1031" fill="#c1c1c1" d="m343.84 29.65.24-.01a5.3 5.3 0 0 1-3.69.01z" transform="translate(-8.522 -.743)"/><path id="Path_1032" fill="#c1c1c1" d="m256.05 29.65.22-.01a5.3 5.3 0 0 1-3.68.01z" transform="translate(-6.321 -.743)"/><path id="Path_1033" fill="#818181" d="M279.47 61.48h3.68a5.4 5.4 0 0 1-3.68 0" transform="translate(-6.995 -1.541)"/><path id="Path_1034" fill="#a5a5a5" d="M332.96 78.5a7.6 7.6 0 0 1 0 3.73Z" transform="translate(-8.336 -1.968)"/><path id="Path_1035" fill="#7f7f7f" d="M242.29 61.48h3.69a5.4 5.4 0 0 1-3.69 0" transform="translate(-6.063 -1.541)"/><path id="Path_1036" fill="#7f7f7f" d="M226.22 61.48h3.69a5.4 5.4 0 0 1-3.69 0" transform="translate(-5.66 -1.541)"/><path id="Path_1037" fill="#c4c4c4" d="M189.7 78.49c-.06 1.26.23 2.53-.18 3.76.05-1.25-.26-2.52.18-3.76" transform="translate(-4.739 -1.967)"/><path id="Path_1038" fill="#818181" d="m344.72 61.49.21-.01 3.22.01a4.8 4.8 0 0 1-3.43 0" transform="translate(-8.631 -1.541)"/><path id="Path_1039" fill="#818181" d="m151 61.47.22.01a5 5 0 0 1-3.45 0l3.24-.02Z" transform="translate(-3.694 -1.54)"/><path id="Path_1040" fill="#818181" d="m367.81 6.71-.21.01h-3.22a4.8 4.8 0 0 1 3.43 0" transform="translate(-9.123 -.16)"/><path id="Path_1041" fill="#818181" d="M173.06 61.48v.22c-1.14-.05-2.32.34-3.43-.21l.21-.01Z" transform="translate(-4.242 -1.541)"/><path id="Path_1042" fill="#bfbfbf" d="M316.63 29.65h3.47a4.8 4.8 0 0 1-3.47 0" transform="translate(-7.926 -.743)"/><path id="Path_1043" fill="#bfbfbf" d="M294.57 29.65h3.47a4.8 4.8 0 0 1-3.47 0" transform="translate(-7.374 -.743)"/><path id="Path_1044" fill="silver" d="M216.02 29.64a.3.3 0 0 0 .22 0c-1.13.59-2.32.15-3.48.24v-.23z" transform="translate(-5.323 -.743)"/><path id="Path_1045" fill="silver" d="M190.71 29.64a.4.4 0 0 0 .22 0q1.63 0 3.25.03a5 5 0 0 1-3.48-.02Z" transform="translate(-4.77 -.743)"/><path id="Path_1046" fill="silver" d="M353.7 29.64a.3.3 0 0 0 .22 0 4.8 4.8 0 0 1-3.47 0z" transform="translate(-8.774 -.743)"/><path id="Path_1047" fill="silver" d="M112.16 29.64a.3.3 0 0 0 .22 0c-1.13.59-2.32.15-3.48.24v-.23z" transform="translate(-2.72 -.743)"/><path id="Path_1048" fill="silver" d="m151.24 38.56-.12-.02-.11.02h-3.25l-.01-.24c1.16.1 2.36-.35 3.48.24Z" transform="translate(-3.694 -.959)"/><path id="Path_1049" fill="#818181" d="m271.57 61.49.21-.01 3.22.01a4.8 4.8 0 0 1-3.43 0" transform="translate(-6.797 -1.541)"/><path id="Path_1050" fill="#7f7f7f" d="M298.03 6.72h-3.45a5 5 0 0 1 3.45 0" transform="translate(-7.374 -.161)"/><path id="Path_1051" fill="#e2e2e2" d="M290.67 78.5V82a6.3 6.3 0 0 1 0-3.5" transform="translate(-7.27 -1.968)"/><path id="Path_1052" fill="#7f7f7f" d="M334.01 6.72h-3.45a5 5 0 0 1 3.45 0" transform="translate(-8.276 -.161)"/><path id="Path_1053" fill="silver" d="m271.77 38.56-.11-.02-.12.02a4.8 4.8 0 0 1 3.47 0Z" transform="translate(-6.796 -.958)"/><path id="Path_1054" fill="#818181" d="m215.92 61.48.21-.01 3.21.02.1.03a5.4 5.4 0 0 1-3.52-.04" transform="translate(-5.402 -1.541)"/><path id="Path_1055" fill="gray" d="M319.86 6.72h-3.22a4.2 4.2 0 0 1 3.22 0" transform="translate(-7.927 -.16)"/><path id="Path_1056" fill="#7f7f7f" d="m150.16 6.72-.01-.22c1.1.05 2.2-.3 3.28.2z" transform="translate(-3.754 -.161)"/><path id="Path_1057" fill="#c1c1c1" d="M381.4 20v.22a4.3 4.3 0 0 1-.04-3.21v.23l.02 2.74Z" transform="translate(-9.542 -.426)"/><path id="Path_1058" fill="#7f7f7f" d="m249.93 61.7.01-.22q1.63 0 3.27.03c-1.07.49-2.19.15-3.28.19" transform="translate(-6.255 -1.541)"/><path id="Path_1059" fill="#bfbfbf" d="m209.63 38.32.01.23.02 3a4.4 4.4 0 0 1-.03-3.22Z" transform="translate(-5.237 -.96)"/><path id="Path_1060" fill="#7f7f7f" d="M340.61 6.72V6.5a10 10 0 0 1 3.32.16l-.08.07h-3.23Z" transform="translate(-8.528 -.161)"/><path id="Path_1061" fill="silver" d="M367.61 29.64a.3.3 0 0 0 .23 0 4.8 4.8 0 0 1-3.26.07z" transform="translate(-9.128 -.743)"/><path id="Path_1062" fill="silver" d="m330.76 29.7 3.27-.05a5 5 0 0 1-3.27.06" transform="translate(-8.281 -.743)"/><path id="Path_1063" fill="#7f7f7f" d="m305.37 61.48 2.31-.01.93-.03a.1.1 0 0 1 .02.12 5 5 0 0 1-3.26-.08" transform="translate(-7.644 -1.54)"/><path id="Path_1064" fill="#818181" d="M353.68 6.72h-3.21a4.2 4.2 0 0 1 3.2 0" transform="translate(-8.775 -.161)"/><path id="Path_1065" fill="#c1c1c1" d="m142.68 61.63.01-.23v-2.98a4 4 0 0 1 0 3.22Z" transform="translate(-3.567 -1.464)"/><path id="Path_1066" fill="#a5a5a5" d="M134.11 84.15a3.8 3.8 0 0 1-.03-3.01z" transform="translate(-3.343 -2.034)"/><path id="Path_1067" fill="#7f7f7f" d="M354.48 38.56h.22c-.04 1 .33 2.02-.21 2.97v-2.98Z" transform="translate(-8.875 -.966)"/><path id="Path_1068" fill="#a4a4a4" d="M364.25 76.6h-.24c-.9-.18-1.87.26-2.74-.27.99.17 2.04-.3 2.98.27" transform="translate(-9.045 -1.913)"/><path id="Path_1069" fill="#a4a4a4" d="M407.3 76.6h-.24c.95-.57 2-.1 2.98-.27-.86.54-1.83.09-2.74.27" transform="translate(-10.193 -1.913)"/><path id="Path_1070" fill="#a4a4a4" d="M134.1 79.36v.24a4 4 0 0 1-.02-3.01z" transform="translate(-3.344 -1.92)"/><path id="Path_1071" fill="#7f7f7f" d="m205.83 61.45-.06-3.02a4.2 4.2 0 0 1 .06 3.02" transform="translate(-5.148 -1.465)"/><path id="Path_1072" fill="#3f3f3f" d="m225.9 19.76-.22-.02.02-2.96c.5.97.16 1.98.2 2.97Z" transform="translate(-5.647 -.421)"/><path id="Path_1073" fill="#a5a5a5" d="M354.3 84.15a3.8 3.8 0 0 1-.03-3.01z" transform="translate(-8.863 -2.034)"/><path id="Path_1074" fill="#7f7f7f" d="m334.36 61.43-.03-3a4 4 0 0 1 .03 3" transform="translate(-8.37 -1.465)"/><path id="Path_1075" fill="#3f3f3f" d="m332.9 51.34-.12.02-.11-.02v-2.96c.54.96.14 1.98.22 2.96" transform="translate(-8.329 -1.213)"/><path id="Path_1076" fill="#3f3f3f" d="m227.36 6.74.21-.02c-.03 1 .32 2.02-.2 2.97z" transform="translate(-5.689 -.168)"/><path id="Path_1077" fill="#bfbfbf" d="M237.6 38.55h-3a3.7 3.7 0 0 1 3 0" transform="translate(-5.87 -.958)"/><path id="Path_1078" fill="#bfbfbf" d="m142.69 41.55.02-3.01a3.8 3.8 0 0 1-.02 3.01" transform="translate(-3.567 -.966)"/><path id="Path_1079" fill="#7f7f7f" d="m205.77 41.53.01-2.99a3.7 3.7 0 0 1-.01 3" transform="translate(-5.148 -.966)"/><path id="Path_1080" fill="#a4a4a4" d="M325.98 79.36v.24a4 4 0 0 1-.02-3.01z" transform="translate(-8.153 -1.92)"/><path id="Path_1081" fill="#3f3f3f" d="M225.69 38.57a.3.3 0 0 1 .22 0c-.08.98.32 2-.22 2.96Z" transform="translate(-5.647 -.966)"/><path id="Path_1082" fill="#7f7f7f" d="M141.22 51.34h-.21v-2.97c.54.96.17 1.98.21 2.97" transform="translate(-3.525 -1.212)"/><path id="Path_1083" fill="#a4a4a4" d="M354.3 79.36v.24a4 4 0 0 1-.03-3.01z" transform="translate(-8.863 -1.92)"/><path id="Path_1084" fill="#7f7f7f" d="M338.23 38.56h.23v2.98c-.55-.95-.14-1.99-.23-2.98" transform="translate(-8.466 -.966)"/><path id="Path_1085" fill="#7f7f7f" d="M204.31 51.34h-.21v-2.97c.54.96.17 1.98.21 2.97" transform="translate(-5.106 -1.212)"/><path id="Path_1086" fill="#7f7f7f" d="M334.33 38.56h.22c-.05 1 .33 2.02-.21 2.97v-2.98Z" transform="translate(-8.37 -.966)"/><path id="Path_1087" fill="#a5a5a5" d="M326 84.15a3.8 3.8 0 0 1-.04-3.01z" transform="translate(-8.153 -2.034)"/><path id="Path_1088" fill="#7f7f7f" d="M298.9 38.57a.4.4 0 0 1 .23 0v2.97c-.53-.95-.16-1.98-.21-2.97Z" transform="translate(-7.481 -.966)"/><path id="Path_1089" fill="#7f7f7f" d="m315.15 41.53.01-2.99a3.7 3.7 0 0 1-.01 3" transform="translate(-7.889 -.966)"/><path id="Path_1090" fill="#a5a5a5" d="M182.06 81.61a4 4 0 0 1 2.8-.05z" transform="translate(-4.554 -2.038)"/><path id="Path_1091" fill="#818181" d="m178.6 6.72-2.8-.05a3.6 3.6 0 0 1 2.8.05" transform="translate(-4.397 -.161)"/><path id="Path_1092" fill="#c1c1c1" d="M290.62 38.55h-2.77a3.1 3.1 0 0 1 2.77 0" transform="translate(-7.205 -.958)"/><path id="Path_1093" fill="#e0e0e0" d="M334.64 81.54v-2.57a3.7 3.7 0 0 1 0 2.57" transform="translate(-8.378 -1.979)"/><path id="Path_1094" fill="#a5a5a5" d="M119.13 75.15c-.62-.02-1.32-.17-1.55.68 0-1.07.31-1.2 1.55-.68" transform="translate(-2.937 -1.876)"/><path id="Path_1095" fill="#c2c2c2" d="M402.91 6.42h-2.35a3 3 0 0 1 2.35 0" transform="translate(-10.03 -.155)"/><path id="Path_1096" fill="#c4c4c4" d="M149.22 81.57V79.2a3 3 0 0 1 0 2.36" transform="translate(-3.73 -1.985)"/><path id="Path_1097" fill="#a4a4a4" d="M292.35 81.55a3 3 0 0 1 0-2.33Z" transform="translate(-7.312 -1.986)"/><path id="Path_1098" fill="#e1e1e1" d="M340.6 83.03c-.36-.88-1.1-.33-1.66-.43.43-.5 1-.27 1.5-.22.42.04.42.36.15.65Z" transform="translate(-8.486 -2.062)"/><path id="Path_1099" fill="#bdbdbd" d="M116.04 58.6h-2.36a3.2 3.2 0 0 1 2.36 0" transform="translate(-2.84 -1.463)"/><path id="Path_1100" fill="#c2c2c2" d="M282.5 6.41h-2.11a2.4 2.4 0 0 1 2.12 0" transform="translate(-7.018 -.155)"/><path id="Path_1101" fill="#aaa" d="M314.74 77.06c.38.68.11 1.41.17 2.12-.43-.68-.16-1.4-.17-2.12" transform="translate(-7.877 -1.931)"/><path id="Path_1102" fill="#c1c1c1" d="M382.3 6.42h-1.9a2 2 0 0 1 1.9 0" transform="translate(-9.525 -.155)"/><path id="Path_1103" fill="#c3c3c3" d="M123.32 55.96v-1.88a2 2 0 0 1 0 1.88" transform="translate(-3.081 -1.355)"/><path id="Path_1104" fill="#3b3b3b" d="M400.8 9.52a2 2 0 0 1 1.88 0Z" transform="translate(-10.036 -.233)"/><path id="Path_1105" fill="#7f7f7f" d="M393.88 12.18a2 2 0 0 1 0 1.91Z" transform="translate(-9.863 -.305)"/><path id="Path_1106" fill="#c3c3c3" d="M113.92 61.79h1.88a2 2 0 0 1-1.88 0" transform="translate(-2.846 -1.549)"/><path id="Path_1107" fill="#434343" d="M185.67 46.17v-1.92a1.9 1.9 0 0 1 0 1.92" transform="translate(-4.644 -1.109)"/><path id="Path_1108" fill="#c3c3c3" d="M137.64 6.41h-1.88a2 2 0 0 1 1.88 0" transform="translate(-3.393 -.155)"/><path id="Path_1109" fill="#3d3d3d" d="M386.18 20.34a1.9 1.9 0 0 1 .03 1.87z" transform="translate(-9.67 -.51)"/><path id="Path_1110" fill="#dadada" d="M111.51 76.55a2 2 0 0 1 1.93 0Z" transform="translate(-2.785 -1.913)"/><path id="Path_1111" fill="#e4e4e4" d="M358.57 79.72v-.24a1.2 1.2 0 0 1 0 1.6z" transform="translate(-8.978 -1.992)"/><path id="Path_1112" fill="#ddd" d="M317.32 76.56a1.5 1.5 0 0 1 1.69 0Z" transform="translate(-7.944 -1.913)"/><path id="Path_1113" fill="#e4e4e4" d="M138.37 81.08v-1.6a1.2 1.2 0 0 1 0 1.6" transform="translate(-3.458 -1.992)"/><path id="Path_1114" fill="#bfbfbf" d="m247.99 15.77-.17-.04-.01-1.62c.38.52.15 1.1.18 1.66" transform="translate(-6.202 -.354)"/><path id="Path_1115" fill="#3d3d3d" d="M280.63 9.53a1.6 1.6 0 0 1 1.65 0z" transform="translate(-7.024 -.233)"/><path id="Path_1116" fill="#c3c3c3" d="m247.81 20.6.18-.04c-.02.56.2 1.14-.18 1.66Z" transform="translate(-6.202 -.515)"/><path id="Path_1117" fill="#7f7f7f" d="M107.49 44.25a1.6 1.6 0 0 1 0 1.68Z" transform="translate(-2.684 -1.109)"/><path id="Path_1118" fill="#bfbfbf" d="M409.72 23.9v-1.65a1.6 1.6 0 0 1 0 1.65" transform="translate(-10.26 -.558)"/><path id="Path_1119" fill="#a9a9a9" d="M252.13 77.3a1.6 1.6 0 0 1 0 1.64Z" transform="translate(-6.31 -1.938)"/><path id="Path_1120" fill="#aeaeae" d="M156.13 77.05c-.04.56.18 1.13-.2 1.65 0-.56-.19-1.14.2-1.65" transform="translate(-3.898 -1.931)"/><path id="Path_1121" fill="#a5a5a5" d="M389.81 75.16a.4.4 0 0 1 0-.22c.53.08 1.11-.27 1.57.22Z" transform="translate(-9.76 -1.877)"/><path id="Path_1122" fill="#424242" d="M273.72 12.44a1.6 1.6 0 0 1 0 1.65z" transform="translate(-6.851 -.312)"/><path id="Path_1123" fill="#e1e1e1" d="m298.33 82.6-1.62-.08a1.3 1.3 0 0 1 1.62.08" transform="translate(-7.427 -2.062)"/><path id="Path_1124" fill="#c7c7c7" d="M359.29 76.51v-1.56a1.15 1.15 0 0 1 0 1.57Z" transform="translate(-8.996 -1.879)"/><path id="Path_1125" fill="#c7c7c7" d="M330.98 76.51v-1.56a1.15 1.15 0 0 1 0 1.57Z" transform="translate(-8.286 -1.879)"/><path id="Path_1126" fill="#a5a5a5" d="M302.15 75.15h-1.57a1.2 1.2 0 0 1 1.57 0" transform="translate(-7.524 -1.876)"/><path id="Path_1127" fill="#a8a8a8" d="M275.51 75.16h-1.54a1.1 1.1 0 0 1 1.54 0" transform="translate(-6.857 -1.876)"/><path id="Path_1128" fill="#a5a5a5" d="M173.1 75.15h-1.57a1.2 1.2 0 0 1 1.57 0" transform="translate(-4.29 -1.876)"/><path id="Path_1129" fill="#a5a5a5" d="M167.11 75.15h-1.57a1.2 1.2 0 0 1 1.57 0" transform="translate(-4.139 -1.876)"/><path id="Path_1130" fill="#e4e4e4" d="M330.25 81.08v-1.6a1.2 1.2 0 0 1 0 1.6" transform="translate(-8.268 -1.992)"/><path id="Path_1131" fill="#a5a5a5" d="M153.43 75.15h-1.57a1.2 1.2 0 0 1 1.57 0" transform="translate(-3.797 -1.876)"/><path id="Path_1132" fill="#bfbfbf" d="M240.3 6.41h-1.65a1.6 1.6 0 0 1 1.66 0" transform="translate(-5.972 -.155)"/><path id="Path_1133" fill="#aaa" d="M124.62 75.17h-1.54a1.1 1.1 0 0 1 1.54 0" transform="translate(-3.075 -1.876)"/><path id="Path_1134" fill="#a2a2a2" d="M160.19 84.28a1.6 1.6 0 0 1-1.64 0Z" transform="translate(-3.964 -2.112)"/><path id="Path_1135" fill="#a2a2a2" d="M256.37 84.28a1.6 1.6 0 0 1-1.64 0Z" transform="translate(-6.375 -2.112)"/><path id="Path_1136" fill="#a5a5a5" d="m130.17 75.15-1.63-.03a1.3 1.3 0 0 1 1.63.03" transform="translate(-3.212 -1.876)"/><path id="Path_1137" fill="#a2a2a2" d="M318.97 84.28a1.6 1.6 0 0 1-1.64 0Z" transform="translate(-7.944 -2.112)"/><path id="Path_1138" fill="#c7c7c7" d="M139.1 76.51v-1.56a1.15 1.15 0 0 1 0 1.57Z" transform="translate(-3.477 -1.879)"/><path id="Path_1139" fill="#c3c3c3" d="m330.99 85.64-.01-1.37a.94.94 0 0 1 .01 1.37" transform="translate(-8.286 -2.112)"/><path id="Path_1140" fill="#c3c3c3" d="M359.28 85.63v-1.35c.49.38.19.9.23 1.36z" transform="translate(-8.996 -2.112)"/><path id="Path_1141" fill="#ddd" d="M254.94 76.55a1.2 1.2 0 0 1 1.46 0Z" transform="translate(-6.38 -1.913)"/><path id="Path_1142" fill="#ddd" d="M158.75 76.55a1.2 1.2 0 0 1 1.46 0Z" transform="translate(-3.969 -1.913)"/><path id="Path_1143" fill="#a5a5a5" d="M268.39 85.62v-1.33c.48.38.17.89.22 1.34h-.11z" transform="translate(-6.717 -2.113)"/><path id="Path_1144" fill="#c3c3c3" d="M139.09 85.63v-1.35c.49.38.19.9.23 1.36z" transform="translate(-3.477 -2.112)"/><path id="Path_1145" fill="#454545" d="M373.03 13.63a1.25 1.25 0 0 1 0 1.42Z" transform="translate(-9.34 -.342)"/><path id="Path_1146" fill="#a5a5a5" d="M112.94 84.29a1.2 1.2 0 0 1-1.4 0Z" transform="translate(-2.786 -2.113)"/><path id="Path_1147" fill="#7f7f7f" d="M125 14.34V12.9a1.2 1.2 0 0 1 0 1.44" transform="translate(-3.123 -.323)"/><path id="Path_1148" fill="#a7a7a7" d="m374.11 75.16-1.39-.03a1.03 1.03 0 0 1 1.4.03" transform="translate(-9.332 -1.877)"/><path id="Path_1149" fill="#3a3a3a" d="M285.95 22.49a1.03 1.03 0 0 1-.07 1.4z" transform="translate(-7.156 -.564)"/><path id="Path_1150" fill="#cbcbcb" d="M116.12 83.26v-1.42a1.16 1.16 0 0 1 0 1.42" transform="translate(-2.901 -2.051)"/><path id="Path_1151" fill="#a5a5a5" d="m398.4 75.12-1.39.03a1 1 0 0 1 1.38-.03" transform="translate(-9.941 -1.877)"/><path id="Path_1152" fill="#d7d7d7" d="M320.24 82.07a.9.9 0 0 1 0 1.22Z" transform="translate(-8.017 -2.057)"/><path id="Path_1153" fill="#3f3f3f" d="m308.9 42.81-.17.01c.04-.4-.25-.86.23-1.16z" transform="translate(-7.727 -1.044)"/><path id="Path_1154" fill="#797979" d="M406.11 22.48a.9.9 0 0 1 0 1.2Z" transform="translate(-10.169 -.563)"/><path id="Path_1155" fill="#3f3f3f" d="m216.07 42.82-.16-.01-.07-1.15c.47.31.2.76.23 1.16" transform="translate(-5.4 -1.044)"/><path id="Path_1156" fill="#a6a6a6" d="M321.91 83.28v-1.22a.9.9 0 0 1 0 1.22" transform="translate(-8.059 -2.057)"/><path id="Path_1157" fill="#7f7f7f" d="m323.28 42.81-.15.01c.04-.39-.28-.85.22-1.15z" transform="translate(-8.088 -1.044)"/><path id="Path_1158" fill="#b9b9b9" d="m128.34 21.05.16.03.02 1.16c-.33-.35-.15-.8-.18-1.19" transform="translate(-3.207 -.528)"/><path id="Path_1159" fill="#e4e4e4" d="M226.46 78.71v-1.17a.9.9 0 0 1 0 1.17" transform="translate(-5.666 -1.944)"/><path id="Path_1160" fill="#a5a5a5" d="m307.74 75.12-1.16.03a.77.77 0 0 1 1.16-.03" transform="translate(-7.675 -1.877)"/><path id="Path_1161" fill="#a5a5a5" d="M213.17 75.15c-.38-.06-.8.12-1.13-.2.39.02.83-.25 1.13.2" transform="translate(-5.305 -1.877)"/><path id="Path_1162" fill="#3c3c3c" d="M376.53 18.65a.9.9 0 0 1 0-1.18Z" transform="translate(-9.422 -.438)"/><path id="Path_1163" fill="#bfbfbf" d="m131.64 42.81-.16.01c.05-.38-.28-.84.2-1.14z" transform="translate(-3.284 -1.045)"/><path id="Path_1164" fill="#a2a2a2" d="M337.45 84.28a.9.9 0 0 1-1.17 0Z" transform="translate(-8.419 -2.112)"/><path id="Path_1165" fill="#7c7c7c" d="M119.72 54.55a.9.9 0 0 1 0 1.2Z" transform="translate(-2.991 -1.367)"/><path id="Path_1166" fill="#ced77b" d="m84.25 6.21.04.19-.04.1H49.9q-1.05-.04-2.11-.04-8.18-.04-16.36-.04l-.02-.18 46.07-.02z" transform="translate(-.777 -.156)"/><path id="Path_1167" fill="#a9ca95" d="m31.07 6.24.02.18-3.76.07h-9.36q-.1-.04-.23-.06v-.17l13.32-.01Z" transform="translate(-.435 -.156)"/><path id="Path_1168" fill="#3caaeb" d="m27.42 6.5 3.76-.08 16.36.04q1.05 0 2.1.04l-.47 1.13a12 12 0 0 0-1.87 2.8 33 33 0 0 0-2.34 3.5l-2.1 3.27-1.64 2.56-1.4 2.1c-.44 1-1.3 1.75-1.65 2.79a28 28 0 0 0-2.32 3.5c-.37.78-1.16 1.26-1.43 2.1l-13.09-8.4.49-1.15c.76-.5.85-1.44 1.4-2.1a6 6 0 0 0 1.16-1.87 10 10 0 0 0 1.64-2.57c.68-.44.76-1.26 1.17-1.86a3.4 3.4 0 0 0 1.17-1.87c.32-.11.42-.43.6-.68 1-1.47.98-1.53-.6-2.35-.38-.2-.9-.3-.94-.9" transform="translate(-.525 -.161)"/><path id="Path_1169" fill="#3aa5e7" d="m21.3 22.25 13.1 8.4-.72 1.38c-.44.04-.5.43-.7.72l-13.07-8.4.46-.94z" transform="translate(-.489 -.557)"/><path id="Path_1170" fill="#3291d6" d="M23.92 16.74a5 5 0 0 1-1.17 1.86L8.92 10.56Q5.97 8.83 3 7.12c-.26-.15-.6-.23-.61-.62h5.15a3 3 0 0 0 1 .94c4.55 2.62 9.12 5.22 13.65 7.9.61.36 1.54.45 1.7 1.4Z" transform="translate(-.05 -.163)"/><path id="Path_1171" fill="#39a1e4" d="m19.87 24.41 13.08 8.4c-.2.95-1.04 1.5-1.4 2.33a3 3 0 0 1-.52-.2c-3.04-1.93-6.05-3.9-9.11-5.8a17 17 0 0 0-3.68-2.17l.7-1.39z" transform="translate(-.447 -.612)"/><path id="Path_1172" fill="#369bdf" d="M18.2 27.04a16 16 0 0 1 3.67 2.17c3.06 1.89 6.07 3.86 9.1 5.8a3 3 0 0 0 .53.2l-.22.46c-.55.57-.72 1.4-1.39 1.88a19 19 0 0 1-3.24-1.95q-4.97-3.1-9.88-6.23l.95-1.86.46-.47Z" transform="translate(-.411 -.678)"/><path id="Path_1173" fill="#3598dc" d="M16.75 29.43c3.29 2.08 6.56 4.18 9.88 6.22a19 19 0 0 0 3.24 1.95 4 4 0 0 1-.7 1.4q-.14.1-.25.23a2 2 0 0 1-1.2-.4q-4.94-3.2-9.92-6.36a6 6 0 0 0-2.23-1.18l.72-1.62z" transform="translate(-.381 -.738)"/><path id="Path_1174" fill="#3394d8" d="M15.53 31.35a7 7 0 0 1 2.24 1.18q4.98 3.16 9.92 6.37a2 2 0 0 0 1.2.39q-.37.69-.72 1.39a1.7 1.7 0 0 0-.7.71c-.33.24-.6.14-.93-.09q-1.86-1.19-3.74-2.35l-8.65-5.5c.1-.74.85-1.13.95-1.86z" transform="translate(-.345 -.786)"/><path id="Path_1175" fill="#e1e1e1" d="M195.51 82.03v-3.55a6 6 0 0 1 0 3.55" transform="translate(-4.891 -1.967)"/><path id="Path_1176" fill="#c3c3c3" d="M191.2 78.96a4.3 4.3 0 0 1 0 2.84Z" transform="translate(-4.783 -1.979)"/><path id="Path_1177" fill="#cbcbcb" d="m194.05 76.54-1.22.01a.9.9 0 0 1 1.22 0" transform="translate(-4.824 -1.913)"/><path id="Path_1178" fill="#318fd4" d="m14.1 33.5 8.65 5.5c1.25.79 2.51 1.54 3.74 2.36.34.22.6.32.94.09-.05.63-.57.96-.9 1.4q-.27.46-.5.92a4 4 0 0 1-.87-.34c-2.22-1.41-4.4-2.87-6.65-4.25a62 62 0 0 0-5.8-3.58v-.23a7 7 0 0 0 1.16-1.86z" transform="translate(-.309 -.84)"/><path id="Path_1179" fill="#308cd1" d="M12.68 35.66a62 62 0 0 1 5.81 3.58c2.25 1.37 4.44 2.83 6.65 4.25a5 5 0 0 0 .86.34q-.34.7-.7 1.38l-.23.02a5 5 0 0 1-.94-.4c-2.22-1.4-4.45-2.78-6.61-4.26a45 45 0 0 1-5.54-3.74 2.3 2.3 0 0 1 .7-1.16Z" transform="translate(-.291 -.894)"/><path id="Path_1180" fill="#2f89cf" d="M11.97 36.85a44 44 0 0 0 5.53 3.74c2.17 1.48 4.4 2.86 6.61 4.26a6 6 0 0 0 .95.4c.07.59-.7.64-.72 1.17a6 6 0 0 1-.94-.4q-4.55-2.93-9.1-5.8a20 20 0 0 0-3.26-1.96l.7-1.4h.22Z" transform="translate(-.267 -.924)"/><path id="Path_1181" fill="#2b80c8" d="m22.41 49.34-.23.7-.93 1.17a2 2 0 0 1-1.28-.46q-5.44-3.45-10.84-6.91c-.4-.26-.99-.4-.98-1.05l.24-.69.69-.71q.67.34 1.32.73 5.32 3.43 10.65 6.83c.4.26.8.68 1.37.37Z" transform="translate(-.195 -1.037)"/><path id="Path_1182" fill="#2d84cb" d="M22.44 49.3c-.57.3-.98-.11-1.38-.36L10.42 42.1c-.42-.27-.88-.48-1.33-.73l.49-1.15h.22c.2.46.64.65 1.02.9 3.11 2 6.2 4.03 9.35 5.97a9 9 0 0 0 2.72 1.53c.04.36-.33.45-.47.7Z" transform="translate(-.218 -1.008)"/><path id="Path_1183" fill="#2e87cd" d="M11.01 38.29a20 20 0 0 1 3.26 1.97c3.05 1.9 6.06 3.87 9.1 5.79a6 6 0 0 0 .95.4l-.47.93-.46.47q-1.44-.88-2.85-1.78-5.12-3.3-10.24-6.63l.49-1.15z" transform="translate(-.248 -.96)"/><path id="Path_1184" fill="#2d84cb" d="m10.3 39.48 10.24 6.63q1.42.9 2.85 1.78a.7.7 0 0 1-.46.7 8 8 0 0 1-2.72-1.52c-3.15-1.94-6.24-3.96-9.35-5.97-.4-.26-.83-.44-1.03-.91a.7.7 0 0 1 .47-.7Z" transform="translate(-.237 -.99)"/><path id="Path_1185" fill="#2a7dc5" d="M8.1 42.83c0 .65.6.79.98 1.04l10.84 6.92a2 2 0 0 0 1.3.45c-.15.98-1.2 1.4-1.4 2.34h-.02a2 2 0 0 1-.96-.4c-2.67-1.72-5.31-3.49-8.01-5.15a28 28 0 0 0-4.37-2.62l.5-1.16c.56-.33.66-1.02 1.15-1.41Z" transform="translate(-.152 -1.074)"/><path id="Path_1186" fill="#a5a5a5" d="M167.2 81.16a7 7 0 0 1 4.18 0Z" transform="translate(-4.181 -2.026)"/><path id="Path_1187" fill="#a5a5a5" d="M302.24 81.16a7 7 0 0 1 4.18 0Z" transform="translate(-7.566 -2.026)"/><path id="Path_1188" fill="#2673bd" d="M17.88 56.73c-.33.37-.47.9-.94 1.17-1.27-.32-2.2-1.26-3.28-1.91-3.07-1.87-6.07-3.86-9.1-5.79a2 2 0 0 1-.73-.72l.5-1.15.68-.7q2.56 1.7 5.16 3.37l7.95 5.05z" transform="translate(-.086 -1.194)"/><path id="Path_1189" fill="#2878c0" d="M18.14 55.98q-3.98-2.51-7.95-5.05-2.58-1.66-5.16-3.36l.71-1.4.69-.7a28 28 0 0 1 4.36 2.62c2.7 1.66 5.35 3.43 8.02 5.15a2 2 0 0 0 .95.4 9 9 0 0 1-1.62 2.34" transform="translate(-.116 -1.14)"/><path id="Path_1190" fill="#a4a4a4" d="m220.41 85.54.02-3.32c0-.36-.15-.78.25-1.05v.23l-.05 4.14h-.11l-.12-.02Z" transform="translate(-5.515 -2.035)"/><path id="Path_1191" fill="#c3c3c3" d="M220.7 81.4v-.24c.61.07 1.28-.28 1.83.22z" transform="translate(-5.522 -2.033)"/><path id="Path_1192" fill="#e1e1e1" d="m282.55 85.57.04-4.17h.21c-.18 1.4.3 2.82-.25 4.18Z" transform="translate(-7.072 -2.04)"/><path id="Path_1193" fill="#bfbfbf" d="M282.8 81.4h-.21a1.8 1.8 0 0 1 2.03.01z" transform="translate(-7.073 -2.032)"/><path id="Path_1194" fill="#a4a4a4" d="m381.12 85.54.02-3.32c0-.36-.15-.78.25-1.05v.23l-.05 4.14h-.11l-.12-.02Z" transform="translate(-9.543 -2.035)"/><path id="Path_1195" fill="#c3c3c3" d="M381.4 81.4v-.24c.61.08 1.28-.3 1.83.22h-1.82Z" transform="translate(-9.55 -2.033)"/><path id="Path_1196" fill="#e1e1e1" d="m234.81 85.57.04-4.17h.21c-.18 1.4.3 2.82-.26 4.18Z" transform="translate(-5.875 -2.04)"/><path id="Path_1197" fill="#c1c1c1" d="M235.08 81.4h-.22a1.7 1.7 0 0 1 1.85-.06z" transform="translate(-5.877 -2.033)"/><path id="Path_1198" fill="#c2c2c2" d="M344.19 85.55v-3.02c0-1.56.5-1.83 2.08-1.14a7 7 0 0 1-.81-.04c-.82-.12-1.05.24-1.07 1.03-.01 1.06.32 2.15-.2 3.16Z" transform="translate(-8.617 -2.031)"/><path id="Path_1199" fill="#e1e1e1" d="M395.75 83.74a7.7 7.7 0 0 1 4 0Z" transform="translate(-9.91 -2.092)"/><path id="Path_1200" fill="#e1e1e1" d="M371.54 83.57c1.32.06 2.65-.34 3.94.2-1.3-.13-2.64.22-3.94-.2" transform="translate(-9.303 -2.092)"/><path id="Path_1201" fill="#e1e1e1" d="M272.69 83.74a8 8 0 0 1 4.02 0Z" transform="translate(-6.825 -2.092)"/><path id="Path_1202" fill="#e1e1e1" d="M210.39 83.77a7.3 7.3 0 0 1 4.15 0Z" transform="translate(-5.264 -2.092)"/><path id="Path_1203" fill="#3496da" d="M24.05 16.74c-.17-.95-1.1-1.04-1.7-1.4q-6.8-3.99-13.66-7.9a3 3 0 0 1-1-.94h5.14c.18.6.73.75 1.2 1.01q1.35.8 2.71 1.55c3 1.68 5.87 3.57 8.96 5.1a10 10 0 0 1-1.64 2.58Z" transform="translate(-.183 -.163)"/><path id="Path_1204" fill="#369bdf" d="M25.82 14.16c-3.08-1.52-5.96-3.42-8.96-5.1q-1.38-.76-2.72-1.55c-.45-.26-1.02-.42-1.19-1.01l4.68-.07.23.07c0 .48.41.6.74.8 2.77 1.71 5.72 3.13 8.39 5-.41.61-.49 1.42-1.17 1.86" transform="translate(-.315 -.161)"/><path id="Path_1205" fill="#7e7e7e" d="m256.43 9.84.01 6.7-.02.22c-.39-.17-.24-.52-.24-.8q-.02-2.67 0-5.34c0-.27-.19-.63.25-.79Z" transform="translate(-6.41 -.246)"/><path id="Path_1206" fill="#bfbfbf" d="m256.43 16.94.02-.21q2.36 0 4.72.03c.37 0 .78-.14 1.1.18z" transform="translate(-6.418 -.419)"/><path id="Path_1207" fill="#bfbfbf" d="m173.38 42.84.04 5.8c-.46-.18-.23-.58-.23-.88q-.01-2.45.03-4.92z" transform="translate(-4.33 -1.074)"/><path id="Path_1208" fill="#bfbfbf" d="M173.38 42.81h-.17c.05-.38-.29-.83.2-1.13z" transform="translate(-4.33 -1.045)"/><path id="Path_1209" fill="#7f7f7f" d="m253.48 42.84.07 5.8c-.48-.24-.24-.68-.24-1.02q-.02-2.4.03-4.78z" transform="translate(-6.338 -1.074)"/><path id="Path_1210" fill="#7f7f7f" d="M253.48 42.81h-.15c.04-.39-.28-.84.22-1.14z" transform="translate(-6.338 -1.044)"/><path id="Path_1211" fill="#393939" d="m262.43 45.93.02-1.18a.9.9 0 0 1-.02 1.18" transform="translate(-6.568 -1.122)"/><path id="Path_1212" fill="#bfbfbf" d="M194.53 9.85v6.92c-.35-.07-.22-.35-.22-.55v-5.83c0-.2-.12-.5.24-.55Z" transform="translate(-4.86 -.247)"/><path id="Path_1213" fill="#bfbfbf" d="M194.53 16.94v-.21q2.26 0 4.51.03c.37 0 .78-.14 1.1.18z" transform="translate(-4.866 -.419)"/><path id="Path_1214" fill="#7f7f7f" d="M132.13 15.06v5.88a17 17 0 0 1 0-5.88" transform="translate(-3.296 -.377)"/><path id="Path_1215" fill="#3e3e3e" d="m141.56 20-.02-3.98a8.4 8.4 0 0 1 .02 3.99" transform="translate(-3.538 -.402)"/><path id="Path_1216" fill="#3e3e3e" d="M234.77 15.55v5.15a14 14 0 0 1 0-5.15" transform="translate(-5.869 -.39)"/><path id="Path_1217" fill="#7e7e7e" d="M244.2 20.7v-5.17a13 13 0 0 1 0 5.18" transform="translate(-6.111 -.389)"/><path id="Path_1218" fill="#3f3f3f" d="M285.93 53.82h6.75c-.14.33-.44.26-.7.26h-5.35c-.26 0-.55.06-.7-.26" transform="translate(-7.157 -1.349)"/><path id="Path_1219" fill="#3f3f3f" d="m232.89 53.9 6.54-.08c-.14.31-.45.27-.7.25-1.95-.1-3.9.25-5.84-.17" transform="translate(-5.828 -1.349)"/><path id="Path_1220" fill="#3f3f3f" d="m173.92 21.98 5.99.02c.22 0 .47.05.57-.23.22.26.13.46-.17.46q-3.14-.01-6.26-.08c-.05 0-.1-.12-.13-.17" transform="translate(-4.35 -.546)"/><path id="Path_1221" fill="#3f3f3f" d="M112.52 9.83v7.2a.4.4 0 0 0 0 .22c-.25-.12-.26-.36-.26-.6V10.4c0-.23 0-.47.26-.58Z" transform="translate(-2.804 -.246)"/><path id="Path_1222" fill="#bfbfbf" d="M112.53 17.43a.4.4 0 0 1 0-.22l4.26.02c.37 0 .77-.14 1.1.19z" transform="translate(-2.81 -.431)"/><path id="Path_1223" d="m219.35 61.02-3.21-.02V42.83l3.2.01Z" transform="translate(-5.408 -1.074)"/><path id="Path_1224" fill="#297bc3" d="M52.29 58.1v-.22a6 6 0 0 0 1.17-1.86l.22-.01c3.6 2.46 6.89 5.31 10.39 7.9a45 45 0 0 0 4.8 3.54c-.08.67-.64 1.07-.91 1.64q-.14.1-.26.23c-.7.25-1.03-.34-1.46-.67L53.21 58.59c-.27-.2-.52-.49-.92-.47Z" transform="translate(-1.301 -1.404)"/><path id="Path_1225" fill="#164c9b" d="M68.36 69.36c.27-.56.84-.96.92-1.64l.25-.23a55 55 0 0 1 5.87 3.88c3.28 2.16 6.38 4.6 9.76 6.62v2.8c-3.4-2.04-6.52-4.46-9.8-6.67q-3.51-2.36-7-4.76" transform="translate(-1.704 -1.692)"/><path id="Path_1226" d="M308.67 60.97q-.47 0-.93.03V42.84l.9-.01q0 9.07.03 18.14" transform="translate(-7.704 -1.074)"/><path id="Path_1227" fill="#c2c2c2" d="m344.46 76.61-.02.22q-.06 2.72 2.59 2.81a5 5 0 0 1-2.37.18c-.49 0-.45-.45-.45-.8l.02-2.42z" transform="translate(-8.618 -1.92)"/><path id="Path_1228" fill="#a4a4a4" d="M344.46 76.6h-.24a3.8 3.8 0 0 1 2.79-.07z" transform="translate(-8.618 -1.912)"/><path id="Path_1229" fill="#a4a4a4" d="m220.67 76.59.02 3v.23a4.5 4.5 0 0 1 0-3.23Z" transform="translate(-5.514 -1.92)"/><path id="Path_1230" fill="#a4a4a4" d="M223.48 76.55q-1.4 0-2.81.03a3.8 3.8 0 0 1 2.8-.03" transform="translate(-5.521 -1.912)"/><path id="Path_1231" fill="#c1c1c1" d="M220.69 79.9v-.23l2.8.05c-.9.44-1.86.14-2.8.18" transform="translate(-5.522 -1.997)"/><path id="Path_1232" fill="#a4a4a4" d="m381.37 76.59.02 3v.23a4.5 4.5 0 0 1 0-3.23Z" transform="translate(-9.542 -1.92)"/><path id="Path_1233" fill="#a4a4a4" d="M384.19 76.55q-1.4 0-2.81.03a3.8 3.8 0 0 1 2.8-.03" transform="translate(-9.549 -1.912)"/><path id="Path_1234" fill="#c2c2c2" d="M381.4 79.9v-.23l2.56.06c-.82.43-1.7.13-2.56.18Z" transform="translate(-9.55 -1.997)"/><path id="Path_1235" fill="#e1e1e1" d="M235.07 76.62v2.97h-.21l-.02-2.98z" transform="translate(-5.876 -1.92)"/><path id="Path_1236" fill="#c2c2c2" d="M234.86 79.68h.21l2.58.06a3.7 3.7 0 0 1-2.79-.05Z" transform="translate(-5.877 -1.997)"/><path id="Path_1237" fill="#a4a4a4" d="M235.07 76.61h-.23a3.6 3.6 0 0 1 2.79-.07z" transform="translate(-5.876 -1.912)"/><path id="Path_1238" fill="#bcbcbc" d="m238.93 78.72-.01-1.19a.86.86 0 0 1 .01 1.19" transform="translate(-5.979 -1.943)"/><path id="Path_1239" fill="#e1e1e1" d="M282.8 76.62v2.97h-.21l-.02-2.98z" transform="translate(-7.073 -1.92)"/><path id="Path_1240" fill="#c2c2c2" d="M282.59 79.68h.22l2.57.06a3.7 3.7 0 0 1-2.79-.05Z" transform="translate(-7.073 -1.997)"/><path id="Path_1241" fill="#a4a4a4" d="M282.8 76.61h-.23a3.6 3.6 0 0 1 2.78-.07z" transform="translate(-7.073 -1.912)"/><path id="Path_1242" fill="#bcbcbc" d="m286.66 78.72-.01-1.19a.86.86 0 0 1 .01 1.19" transform="translate(-7.175 -1.943)"/><path id="Path_1243" fill="#c3c3c3" d="M143.46 76.61v7.42c-.4-.23-.25-.62-.25-.94l.01-6.48Z" transform="translate(-3.579 -1.92)"/><path id="Path_1244" fill="#a4a4a4" d="M147.55 82v-3.5a6 6 0 0 1 0 3.5" transform="translate(-3.689 -1.968)"/><path id="Path_1245" fill="#a3a3a3" d="M143.46 76.6h-.24a3 3 0 0 1 2.55-.05z" transform="translate(-3.58 -1.912)"/><path id="Path_1246" fill="#174d9c" d="M53.03 55.7a6 6 0 0 1-1.17 1.85c-1.28-1.5-3.02-2.4-4.56-3.54-3.77-2.8-7.59-5.52-11.37-8.28a2.4 2.4 0 0 0-1.13-.55h-.01c.3-.55.83-.97.94-1.63l.24-.23a2.7 2.7 0 0 1 1.43.73c3.83 2.77 7.67 5.52 11.47 8.35 1.42 1.06 3.03 1.89 4.17 3.3Z" transform="translate(-.862 -1.086)"/><path id="Path_1247" fill="#2167b2" d="M26.88 43.03c.34-.44.86-.77.9-1.4a2 2 0 0 1 .7-.72c.74.54 1.45 1.13 2.22 1.61 1.32.83 2.34 2.1 3.86 2.6h.01a2 2 0 0 1-.93 1.4l-.26.7c-1.88-.72-3.23-2.19-4.83-3.32-.53-.37-.97-.9-1.7-.89Z" transform="translate(-.663 -1.025)"/><path id="Path_1248" fill="#a4a4a4" d="m396.26 82.05 3.02.02a3.7 3.7 0 0 1-3.02-.02" transform="translate(-9.922 -2.057)"/><path id="Path_1249" fill="#a5a5a5" d="M273.37 81.85c.92.49 1.9.14 2.86.2a4.7 4.7 0 0 1-2.84.17c-.16 0-.12-.23-.02-.37" transform="translate(-6.84 -2.052)"/><path id="Path_1250" fill="#a5a5a5" d="M211.09 82.05h3a3.5 3.5 0 0 1-3 0" transform="translate(-5.281 -2.057)"/><path id="Path_1251" fill="#a3a3a3" d="M372 81.85a3.7 3.7 0 0 0 2.86 0l.09.31a6 6 0 0 1-3.05 0l.1-.3Z" transform="translate(-9.312 -2.052)"/><path id="Path_1252" fill="#a5a5a5" d="M182.05 76.59v3.26a4.7 4.7 0 0 1 0-3.26" transform="translate(-4.546 -1.92)"/><path id="Path_1253" fill="#a4a4a4" d="M182.06 79.93q1.4 0 2.8.03a3.7 3.7 0 0 1-2.8-.03" transform="translate(-4.554 -2.003)"/><path id="Path_1254" fill="#a5a5a5" d="m184.62 76.53-2.57.05a3.3 3.3 0 0 1 2.57-.05" transform="translate(-4.553 -1.912)"/><path id="Path_1255" fill="#3caaeb" d="M64.28 6.5h20.8L85.07 41c-1.16.39-1.48 1.14-.9 2.1l-.24.23q-.39.13-.75.29a2.2 2.2 0 0 0-1.11 2.51l-.24.47q-.38.13-.75.28a2.2 2.2 0 0 0-1.11 2.52l-.25.46c-3.85-2.58-7.34-5.63-11.07-8.36a32 32 0 0 0-4.16-3.08l.5-1.15a4 4 0 0 0 1.18-2.1 5 5 0 0 0 1.17-1.63 9 9 0 0 0 1.4-2.1 17 17 0 0 0 1.88-3.03 9 9 0 0 0 1.64-2.57 9 9 0 0 0 1.4-2.1 7 7 0 0 0 1.17-1.87 6 6 0 0 0 1.4-2.33c.58-.37.77-1.05 1.19-1.55.6-.7.57-1.24-.27-1.85a373 373 0 0 1-9.87-7.16c-1.02-.77-2.34-1.23-2.98-2.47Z" transform="translate(-1.601 -.163)"/><path id="Path_1256" fill="#3caaeb" d="M84.66 43.99c-.57-.96-.25-1.72.91-2.1l.06.93h-.08l-.9 1.16Z" transform="translate(-2.105 -1.05)"/><path id="Path_1257" d="m340.61 6.73 3.23.01v22.34h-3.22z" transform="translate(-8.527 -.168)"/><path id="Path_1258" fill="#1953a1" d="M85.19 77.94c-3.38-2.01-6.48-4.45-9.76-6.62a55 55 0 0 0-5.87-3.88l.92-1.4.5-.7c3.55 2.48 7.08 5 10.7 7.41 1.14.76 2.08 1.88 3.52 2.17z" transform="translate(-1.734 -1.638)"/><path id="Path_1259" fill="#1c59a6" d="M85.23 74.87c-1.44-.3-2.38-1.4-3.53-2.17-3.6-2.4-7.13-4.93-10.7-7.4.12-.34.48-.54.46-.94l.47-.47c2.66 1.44 4.97 3.4 7.5 5.03a65 65 0 0 0 5.8 3.83v2.1Z" transform="translate(-1.77 -1.601)"/><path id="Path_1260" fill="#1d5daa" d="M85.25 72.74a65 65 0 0 1-5.8-3.83c-2.52-1.64-4.83-3.59-7.5-5.03l.72-1.17a5 5 0 0 1 1.8 1c3.59 2.47 7.09 5.07 10.78 7.39l.07.47z" transform="translate(-1.794 -1.572)"/><path id="Path_1261" fill="#2167b2" d="M85.29 66.12v2.8c-2.58-1.77-5.13-3.6-7.76-5.29-1.28-.83-2.31-2.06-3.89-2.4l.45-.94.72-.93c.61-.09 1 .37 1.44.65 3.05 1.98 5.9 4.26 9.04 6.1" transform="translate(-1.836 -1.488)"/><path id="Path_1262" fill="#246db8" d="M85.32 66.07c-3.14-1.84-5.98-4.13-9.04-6.1-.44-.29-.82-.74-1.44-.66.1-.33.5-.52.45-.93l.72-.94a1.7 1.7 0 0 1 1.18.4c1.1.77 2.16 1.6 3.3 2.32 1.62 1.03 3.03 2.38 4.82 3.12z" transform="translate(-1.866 -1.44)"/><path id="Path_1263" fill="#2674bd" d="M85.35 63.22c-1.8-.74-3.2-2.1-4.81-3.12-1.14-.72-2.2-1.54-3.31-2.32a1.8 1.8 0 0 0-1.18-.4l.2-.47 1.19-1.63c.97.04 1.56.79 2.29 1.26 1.9 1.19 3.53 2.76 5.62 3.64q.02.48.06.93z" transform="translate(-1.896 -1.386)"/><path id="Path_1264" fill="#1f61ad" d="M73.61 61.27c1.58.35 2.62 1.59 3.9 2.4 2.63 1.7 5.17 3.52 7.75 5.3v2.1c-3.68-2.34-7.18-4.93-10.78-7.4a4.4 4.4 0 0 0-1.8-1h-.04z" transform="translate(-1.811 -1.536)"/><path id="Path_1265" fill="#2f89cf" d="m85.53 52.1-.06 1.39q-.8-.46-1.58-.96c-1.11-.68-2.02-1.69-3.3-2.08l.93-1.39c1.4.64 2.45 1.85 3.95 2.34z" transform="translate(-2.01 -1.23)"/><path id="Path_1266" fill="#318ed3" d="M85.5 51.36c-1.5-.48-2.55-1.7-3.95-2.34.15-.5.67-.83.7-1.39.53-.1.89.25 1.24.52a5 5 0 0 0 2 1.1z" transform="translate(-2.034 -1.193)"/><path id="Path_1267" fill="#3393d7" d="M85.52 49.21a5 5 0 0 1-2-1.11c-.36-.26-.72-.62-1.24-.52l.23-.47c.57-.32.68-1.01 1.16-1.4.73.08 1.12.83 1.85.94z" transform="translate(-2.053 -1.146)"/><path id="Path_1268" fill="#359add" d="M85.55 46.57c-.72-.1-1.1-.85-1.84-.93.15-.5.65-.84.7-1.4l.23-.23.9-1.16.01 3.73Z" transform="translate(-2.088 -1.074)"/><path id="Path_1269" fill="#297bc3" d="M85.4 60.14c-2.09-.9-3.72-2.46-5.62-3.65-.74-.46-1.32-1.22-2.29-1.26V55a5 5 0 0 0 .92-1.4l.24-.23a8 8 0 0 1 1.98 1.16c1.65.91 2.97 2.35 4.77 3.04z" transform="translate(-1.933 -1.337)"/><path id="Path_1270" fill="#2b80c7" d="M85.43 57.54c-1.8-.69-3.12-2.12-4.77-3.05a8 8 0 0 0-1.98-1.16c-.03-.4.34-.6.47-.93l.47-.47a28 28 0 0 1 4.22 2.7c.5.32.9.84 1.6.8z" transform="translate(-1.962 -1.302)"/><path id="Path_1271" fill="#2d85cb" d="M85.44 55.4c-.68.03-1.1-.49-1.6-.8a28 28 0 0 0-4.22-2.7l.47-.95.24-.45h.23c1.3.39 2.19 1.4 3.3 2.07q.78.51 1.58.96z" transform="translate(-1.986 -1.266)"/><path id="Path_1272" fill="#39a3e5" d="M64.15 6.5c.65 1.24 1.96 1.7 2.99 2.47Q72 12.62 77 16.13c.85.6.88 1.13.28 1.86-.42.5-.6 1.18-1.2 1.55l-1.73-1.16L59.25 7.4c.12-.32.49-.51.47-.9h4.45Z" transform="translate(-1.475 -.163)"/><path id="Path_1273" fill="#3ba6e8" d="m49.89 7.63.47-1.13h2.11a16 16 0 0 0 3.2 2.62 2.4 2.4 0 0 0 1.7.84l-.92 1.4-.47.7c-.8.13-1.15-.58-1.63-.95a37 37 0 0 1-4.45-3.47Z" transform="translate(-1.241 -.163)"/><path id="Path_1274" fill="#3caaeb" d="M57.44 9.96c-.73.06-1.2-.43-1.71-.84a16 16 0 0 1-3.19-2.62h7.01c.02.39-.35.59-.47.9l-1.4 2.33Z" transform="translate(-1.307 -.163)"/><path id="Path_1275" fill="#38a0e3" d="M27.12 12.3c-2.68-1.87-5.62-3.29-8.39-5-.33-.2-.73-.3-.73-.8h4.22c.48.78 1.38.97 2.06 1.45 1.28.91 2.82 1.4 4.01 2.48a3.3 3.3 0 0 1-1.17 1.86Z" transform="translate(-.441 -.163)"/><path id="Path_1276" fill="#3aa5e7" d="M28.38 10.43c-1.18-1.08-2.73-1.57-4.01-2.48-.69-.48-1.58-.68-2.06-1.45h5.14c.03.6.54.7.94.9 1.57.83 1.6.89.59 2.35-.18.25-.27.56-.6.68" transform="translate(-.549 -.163)"/><path id="Path_1277" fill="#297bc3" d="m34.04 32.21.71-1.38c.26-.85 1.07-1.33 1.43-2.1a3 3 0 0 1 1.21.61c1.71 1.17 3.2 2.67 5.08 3.58v.23l-.7 1.16-1.16 1.4c-.13.32-.5.53-.47.93-2.18-1.29-3.96-3.1-6.1-4.45Z" transform="translate(-.843 -.72)"/><path id="Path_1278" fill="#2c82c9" d="M42.53 32.83c-1.9-.9-3.38-2.4-5.08-3.58a3 3 0 0 0-1.22-.61 28 28 0 0 1 2.32-3.51c1.35.6 2.32 1.72 3.56 2.48.92.56 1.56 1.6 2.77 1.73-.14.52-.66.84-.7 1.4l-1.4 1.63q-.11.24-.24.47Z" transform="translate(-.898 -.63)"/><path id="Path_1279" fill="#379cdf" d="M45.58 14.03a31 31 0 0 1 2.34-3.5c1.67.99 3.11 2.3 4.69 3.4.5.34.93.84 1.62.8l-1.17 1.87-1.18 1.63a9 9 0 0 1-2.31-1.5c-1.36-.85-2.42-2.16-4-2.7Z" transform="translate(-1.132 -.264)"/><path id="Path_1280" fill="#3496da" d="M45.53 14.12c1.58.55 2.64 1.84 4 2.7.78.49 1.37 1.26 2.3 1.5l-.46 1.16a6 6 0 0 0-1.4 2.1h-.22a5 5 0 0 1-1.9-1.07 40 40 0 0 0-4.42-3.13z" transform="translate(-1.079 -.354)"/><path id="Path_1281" fill="#2e88ce" d="M44.93 29.26c-1.2-.13-1.84-1.16-2.77-1.73-1.23-.76-2.21-1.88-3.56-2.48.35-1.05 1.2-1.8 1.66-2.79a4 4 0 0 1 1.46.88 57 57 0 0 0 4.83 3.55l-.23.7-1.4 1.63z" transform="translate(-.958 -.558)"/><path id="Path_1282" fill="#3190d5" d="M43.38 17.47a44 44 0 0 1 4.41 3.13 5 5 0 0 0 1.9 1.07c-.1.66-.65 1.07-.93 1.64l-.7.93c-.48.25-.8-.05-1.13-.32l-5.18-3.89z" transform="translate(-1.037 -.438)"/><path id="Path_1283" fill="#39a3e5" d="M54.29 14.66c-.7.05-1.12-.46-1.62-.8-1.58-1.1-3.02-2.42-4.69-3.4a12 12 0 0 1 1.87-2.8 36 36 0 0 0 4.45 3.47c.49.38.83 1.1 1.64.96L55 13.7l-.7.94Z" transform="translate(-1.193 -.192)"/><path id="Path_1284" fill="#308cd1" d="M41.7 20.11 46.88 24c.34.26.65.56 1.13.31l-.47 1.16a2.5 2.5 0 0 0-.94 1.17 55 55 0 0 1-4.83-3.55 4 4 0 0 0-1.46-.87z" transform="translate(-1.001 -.504)"/><path id="Path_1285" fill="#2774bd" d="M33.98 32.3c2.13 1.35 3.92 3.16 6.1 4.45v.23l-.94 1.4-.7.94-.47.92h-.23c-2.13-1.32-4.03-2.98-6.08-4.43l.22-.47c.36-.84 1.21-1.39 1.4-2.33.19-.29.26-.68.7-.71" transform="translate(-.784 -.81)"/><path id="Path_1286" fill="#246eb8" d="M31.6 35.9c2.05 1.45 3.95 3.11 6.09 4.44.03.4-.34.6-.47.93a9 9 0 0 1-1.4 1.87l-.23.24c-1.1-.83-2.17-1.7-3.32-2.46-.9-.6-1.56-1.6-2.76-1.74a4 4 0 0 0 .72-1.4c.66-.48.83-1.31 1.38-1.87Z" transform="translate(-.73 -.9)"/><path id="Path_1287" fill="#2269b4" d="M29.49 39.25c1.2.13 1.85 1.14 2.75 1.75 1.15.75 2.22 1.63 3.32 2.45-.12.66-.65 1.07-.95 1.63-1.53-.5-2.55-1.77-3.87-2.6-.77-.49-1.48-1.07-2.22-1.6l.71-1.4.25-.24Z" transform="translate(-.705 -.984)"/><path id="Path_1288" fill="#1953a1" d="M35.98 43.27a9 9 0 0 0 1.4-1.87 1.4 1.4 0 0 1 .95.35q4.88 3.56 9.77 7.1 3.2 2.34 6.34 4.69v.22a7 7 0 0 0-1.17 1.87l-.22.01c-1.14-1.41-2.75-2.24-4.17-3.3-3.8-2.83-7.64-5.58-11.47-8.35a2.7 2.7 0 0 0-1.43-.73Z" transform="translate(-.892 -1.038)"/><path id="Path_1289" fill="#2b80c8" d="M53.72 55.95a7 7 0 0 1 1.17-1.87 3 3 0 0 0 .38.42c3.41 2.65 6.79 5.34 10.25 7.92a33 33 0 0 0 4.56 3.32l-.92 1.4-.25.23a45 45 0 0 1-4.81-3.54c-3.5-2.58-6.8-5.44-10.39-7.9Z" transform="translate(-1.336 -1.356)"/><path id="Path_1290" fill="#2f89cf" d="m51.57 19.55.47-1.17q.58-.83 1.18-1.63a1.2 1.2 0 0 1 .77.2q5.2 3.8 10.43 7.58a57 57 0 0 0 5.88 4.11 16 16 0 0 1-1.88 3.04l-9.65-7.03c-2.4-1.72-4.67-3.57-7.19-5.11Z" transform="translate(-1.283 -.42)"/><path id="Path_1291" fill="#318fd4" d="M70.32 28.58a58 58 0 0 1-5.88-4.11q-5.23-3.77-10.43-7.59a1.2 1.2 0 0 0-.77-.2l1.17-1.86.7-.94a14 14 0 0 1 2.78 1.86l14.07 10.28a9 9 0 0 1-1.64 2.56" transform="translate(-1.325 -.348)"/><path id="Path_1292" fill="#2c82c9" d="M51.53 19.62c2.52 1.54 4.8 3.4 7.19 5.1q4.83 3.51 9.65 7.04a9 9 0 0 1-1.4 2.1 5 5 0 0 1-.62-.32L50.12 21.73a6 6 0 0 1 1.4-2.1Z" transform="translate(-1.247 -.492)"/><path id="Path_1293" fill="#379de0" d="m57.81 9.75 1.4-2.33 15.1 10.97q.86.6 1.74 1.16a6 6 0 0 1-1.4 2.33l-9.66-7.03c-2.38-1.72-4.67-3.57-7.18-5.11Z" transform="translate(-1.439 -.186)"/><path id="Path_1294" fill="#3495d9" d="M72 25.96 57.95 15.68a15 15 0 0 0-2.78-1.86q.46-.83.94-1.63l.46-.7q5.14 3.7 10.24 7.45c2.2 1.64 4.53 3.1 6.6 4.92a9 9 0 0 1-1.4 2.1Z" transform="translate(-1.373 -.288)"/><path id="Path_1295" fill="#2775be" d="M46.76 26.77a2.6 2.6 0 0 1 .94-1.17 10 10 0 0 1 2.57 1.75q7.16 5.17 14.28 10.39l-.5 1.15-.9.96c-.15-.63-.74-.85-1.19-1.19q-7.7-5.61-15.43-11.2z" transform="translate(-1.157 -.642)"/><path id="Path_1296" fill="#297bc3" d="M64.58 37.7q-7.12-5.23-14.28-10.4a10 10 0 0 0-2.57-1.74l.47-1.16.7-.93q.5.3.97.62l15.88 11.52a4 4 0 0 1-1.18 2.1Z" transform="translate(-1.187 -.588)"/><path id="Path_1297" fill="#3599dd" d="M73.45 23.81c-2.07-1.81-4.4-3.28-6.6-4.91q-5.1-3.76-10.24-7.45l.93-1.4.23-.24c2.52 1.54 4.8 3.4 7.19 5.11q4.83 3.5 9.65 7.03a7 7 0 0 1-1.17 1.86Z" transform="translate(-1.409 -.246)"/><path id="Path_1298" fill="#2a7ec6" d="M65.78 35.55 49.9 24.03q-.48-.32-.97-.62c.27-.57.82-.98.93-1.64h.22l16.24 11.82a4 4 0 0 0 .62.32 5 5 0 0 1-1.17 1.63Z" transform="translate(-1.217 -.546)"/><path id="Path_1299" fill="#3caaeb" d="m63.58 40.2.9-.96a33 33 0 0 1 4.15 3.08c3.73 2.74 7.23 5.78 11.08 8.36l-.47.93-.47.47a3 3 0 0 1-.52-.26q-5.38-4.19-10.8-8.34a21 21 0 0 0-3.9-2.84z" transform="translate(-1.583 -.984)"/><path id="Path_1300" fill="#3caaeb" d="M80.57 50.42h-.22a2.2 2.2 0 0 1 1.1-2.52 6 6 0 0 1 .76-.28c-.04.56-.56.88-.7 1.4q-.46.7-.94 1.38Z" transform="translate(-2.002 -1.194)"/><path id="Path_1301" fill="#3caaeb" d="M84.38 44.28c-.05.56-.56.89-.7 1.4-.49.38-.6 1.08-1.16 1.4a2.2 2.2 0 0 1 1.11-2.52q.37-.16.75-.28" transform="translate(-2.056 -1.11)"/><path id="Path_1302" fill="#2d85cb" d="M70.1 65.71a35 35 0 0 1-4.55-3.31c-3.46-2.58-6.84-5.27-10.25-7.93a4 4 0 0 1-.38-.42v-.22l.47-.73.46-.44a3 3 0 0 1 .61.32c3.6 2.78 7.18 5.6 10.8 8.36a27 27 0 0 0 3.8 2.77c.02.4-.35.6-.45.93l-.5.7Z" transform="translate(-1.367 -1.32)"/><path id="Path_1303" fill="#2f89cf" d="M71.09 64.03a27 27 0 0 1-3.81-2.77q-5.42-4.15-10.8-8.35a5 5 0 0 0-.61-.32l.25-.7a2 2 0 0 0 .69-1.17l.24-.24a5 5 0 0 0 .53.6q7.32 5.66 14.65 11.3h.04l-.71 1.18Z" transform="translate(-1.391 -1.265)"/><path id="Path_1304" fill="#318fd4" d="M72.27 62.35q-7.33-5.64-14.65-11.3a4 4 0 0 1-.53-.6l.5-.91.67-.72a4 4 0 0 1 .95.4c3.6 2.78 7.16 5.61 10.78 8.35 1.18.89 2.2 2.04 3.7 2.45l-.44.93-.97 1.4Z" transform="translate(-1.421 -1.224)"/><path id="Path_1305" fill="#3394d9" d="M73.71 59.97c-1.5-.42-2.52-1.56-3.7-2.44-3.62-2.74-7.18-5.57-10.78-8.35a4 4 0 0 0-.95-.4v-.22l.92-1.44.25-.2c.4-.01.65.27.92.47 4.04 3.12 8.05 6.27 12.12 9.36.72.55 1.3 1.45 2.39 1.38.04.4-.35.6-.45.93l-.72.93Z" transform="translate(-1.451 -1.176)"/><path id="Path_1306" fill="#3599dc" d="M74.91 58.08c-1.1.06-1.66-.82-2.39-1.38-4.05-3.09-8.07-6.24-12.11-9.36-.27-.2-.52-.49-.92-.47l.71-1.39h.22c1.05.01 1.6.86 2.32 1.4 3 2.3 5.93 4.66 8.97 6.9 1.34 1 2.47 2.33 4.13 2.9l-.2.47z" transform="translate(-1.481 -1.14)"/><path id="Path_1307" fill="#379de0" d="M75.86 56.62c-1.65-.57-2.78-1.9-4.13-2.9-3.03-2.24-5.98-4.61-8.97-6.9-.71-.55-1.27-1.4-2.32-1.4v-.23a7 7 0 0 0 1.17-1.86h.21a6 6 0 0 1 .8.46c3.48 2.68 6.95 5.4 10.45 8.05a27 27 0 0 0 3.97 2.94V55l-1.19 1.63Z" transform="translate(-1.505 -1.086)"/><path id="Path_1308" fill="#39a3e5" d="M77.09 54.72a28 28 0 0 1-3.98-2.93q-5.23-4.02-10.44-8.06a7 7 0 0 0-.8-.46l.71-1.39h.2q4.85 3.76 9.72 7.45a39 39 0 0 0 5.49 4 5 5 0 0 1-.92 1.4Z" transform="translate(-1.541 -1.05)"/><path id="Path_1309" fill="#3aa5e7" d="M78.03 53.29c-2.05-1.03-3.68-2.65-5.49-4-3.27-2.45-6.48-4.97-9.72-7.45a1.7 1.7 0 0 1 .71-1.16 22 22 0 0 1 3.9 2.83c3.62 2.75 7.2 5.56 10.8 8.34a3 3 0 0 0 .52.26c-.13.33-.5.53-.47.94z" transform="translate(-1.565 -1.02)"/><path id="Path_1310" fill="#1f61ad" d="m58.77 46.8-.92 1.43a2 2 0 0 0-.73-.73c-3.66-2.66-7.28-5.39-10.99-7.98a39 39 0 0 0-5.35-3.66l1.16-1.4c4 2.87 8.03 5.68 11.96 8.61a35 35 0 0 1 4.87 3.73" transform="translate(-1.012 -.864)"/><path id="Path_1311" fill="#2167b2" d="M58.8 46.77a35 35 0 0 0-4.86-3.73c-3.96-2.93-7.98-5.74-11.97-8.61l.7-1.16a4 4 0 0 1 .86.33c3.54 2.57 7.05 5.18 10.61 7.7a42 42 0 0 0 5.62 3.87l-.71 1.4z" transform="translate(-1.042 -.834)"/><path id="Path_1312" fill="#1f60ac" d="M40.77 35.9a40 40 0 0 1 5.35 3.66c3.7 2.6 7.33 5.32 10.99 7.98a2 2 0 0 1 .73.73v.23l-.67.71-8.85-6.4c-2.66-1.93-5.25-3.96-8.02-5.74v-.24c-.03-.4.34-.61.48-.92Z" transform="translate(-1 -.9)"/><path id="Path_1313" fill="#2167b2" d="M59.78 45.16a42 42 0 0 1-5.62-3.87c-3.56-2.53-7.06-5.14-10.61-7.7a4 4 0 0 0-.86-.34v-.23q.13-.23.24-.47a1.4 1.4 0 0 1 .95.35c4.15 3.03 8.37 6 12.48 9.08 1.25.94 2.76 1.57 3.65 2.94v.23h-.22Z" transform="translate(-1.06 -.816)"/><path id="Path_1314" fill="#226ab5" d="M60.01 44.88c-.89-1.37-2.4-2-3.64-2.94-4.12-3.08-8.32-6.05-12.48-9.08a1.4 1.4 0 0 0-.95-.35l1.4-1.64c.51.34 1.05.65 1.54 1.02l15.3 11.13a7 7 0 0 1-1.17 1.86" transform="translate(-1.067 -.774)"/><path id="Path_1315" fill="#246eb8" d="m61.22 42.97-15.3-11.13q-.77-.52-1.55-1.02c.05-.56.56-.89.7-1.4v-.23c.57-.1.95.3 1.34.59 4.61 3.33 9.24 6.65 13.79 10.05.67.5 1.68.72 1.93 1.71l-.71 1.4h-.22Z" transform="translate(-1.102 -.731)"/><path id="Path_1316" fill="#2572bb" d="M62.16 41.52c-.25-1-1.26-1.22-1.93-1.72-4.56-3.4-9.17-6.72-13.78-10.05-.4-.28-.78-.68-1.35-.58l1.4-1.64 15.43 11.21c.44.33 1.03.55 1.19 1.19l-.03.44a1.7 1.7 0 0 0-.72 1.16z" transform="translate(-1.121 -.69)"/><path id="Path_1317" fill="#1d5ca9" d="M40.27 37.09c2.76 1.78 5.36 3.81 8.02 5.74l8.84 6.4-.5.91-.24.25a1.3 1.3 0 0 1-.72-.34c-3.9-2.81-7.76-5.62-11.67-8.4-1.53-1.09-2.9-2.44-4.68-3.16l.93-1.4Z" transform="translate(-.976 -.93)"/><path id="Path_1318" fill="#1c5aa7" d="M39.31 38.53c1.79.72 3.15 2.07 4.68 3.16q5.84 4.19 11.67 8.4a1.2 1.2 0 0 0 .72.33 2 2 0 0 1-.68 1.17 3 3 0 0 1-1.3-.72q-7.9-5.69-15.77-11.4l.69-.94Z" transform="translate(-.959 -.966)"/><path id="Path_1319" fill="#1b57a4" d="m54.96 52.78-.47.73-6.34-4.68q-4.88-3.53-9.78-7.1a1.4 1.4 0 0 0-.94-.35c.13-.33.5-.53.47-.94h.22a1 1 0 0 1 .44.14c4.32 3.13 8.67 6.22 12.93 9.41 1.18.9 2.61 1.5 3.48 2.8Z" transform="translate(-.928 -1.014)"/><path id="Path_1320" fill="#1b57a4" d="M54.98 52.76c-.87-1.29-2.3-1.91-3.48-2.8-4.26-3.2-8.61-6.29-12.93-9.42a2 2 0 0 0-.44-.13q.23-.47.48-.93l15.77 11.4a2.7 2.7 0 0 0 1.3.73l-.25.69-.46.44Z" transform="translate(-.946 -.99)"/></g></g></g></svg>