<svg xmlns="http://www.w3.org/2000/svg" xmlns:xlink="http://www.w3.org/1999/xlink" width="600" height="300" viewBox="0 0 600 300">
  <defs>
    <clipPath id="clip-Logo">
      <rect width="600" height="300"/>
    </clipPath>
  </defs>
  <g id="Logo" clip-path="url(#clip-Logo)">
    <rect width="600" height="300" fill="#e8eff3"/>
    <g id="RISE_logo" data-name="RISE logo" transform="translate(230.665 60.376)">
      <path id="Path_1321" data-name="Path 1321" d="M48.847.624A27.477,27.477,0,0,1,59.182,2.475a23.827,23.827,0,0,1,7.883,5.076,22.126,22.126,0,0,1,5.017,7.467,23.936,23.936,0,0,1,1.73,9.137,25.65,25.65,0,0,1-3.164,13.021q-3.168,5.492-10.331,8.359v.242A14.447,14.447,0,0,1,66.049,48.7a16.225,16.225,0,0,1,3.7,4.657,21.7,21.7,0,0,1,2.091,5.913,51.756,51.756,0,0,1,.894,6.451c.078,1.356.162,2.947.24,4.779s.219,3.7.418,5.614a36.816,36.816,0,0,0,.956,5.435,12.531,12.531,0,0,0,1.969,4.36H57.569a33.086,33.086,0,0,1-1.912-9.676q-.335-5.394-1.075-10.751-.958-6.69-4.061-9.8T40.367,52.584H21.613V85.912H2.86V.624ZM42.16,39.206q6.452,0,9.676-2.866t3.225-9.319q0-6.206-3.225-9.018T42.16,15.2H21.613v24.01Zm43,46.706h18.753V.626H85.158Z" transform="translate(1.831 0)" fill-rule="evenodd"/>
      <path id="Path_1322" data-name="Path 1322" d="M67.878,59.253H89.885V37.246H67.878Z" transform="translate(48.991 26.563)" fill="#bebc00" fill-rule="evenodd"/>
      <path id="Path_1323" data-name="Path 1323" d="M20.05,118.441a13.52,13.52,0,0,0,4.122,4.838,17.755,17.755,0,0,0,6.032,2.75,28.514,28.514,0,0,0,7.167.894,36.754,36.754,0,0,0,5.374-.419,18.591,18.591,0,0,0,5.376-1.611,11.713,11.713,0,0,0,4.18-3.287,8.229,8.229,0,0,0,1.672-5.312,7.482,7.482,0,0,0-2.21-5.616,17.5,17.5,0,0,0-5.792-3.584,57.574,57.574,0,0,0-8.123-2.507q-4.624-1.1-9.2-2.391a80.7,80.7,0,0,1-9.317-2.926,31.82,31.82,0,0,1-8.123-4.479,21.044,21.044,0,0,1-5.794-6.867,20.83,20.83,0,0,1-2.21-9.972A22.337,22.337,0,0,1,6.015,66.54a25.456,25.456,0,0,1,7.346-8.062A32.052,32.052,0,0,1,23.634,53.7,43.847,43.847,0,0,1,35.1,52.147a54.357,54.357,0,0,1,12.842,1.494,32.085,32.085,0,0,1,10.93,4.836,24.517,24.517,0,0,1,7.585,8.54,26.207,26.207,0,0,1,2.807,12.6H51.108a15.133,15.133,0,0,0-1.613-6.329,10.571,10.571,0,0,0-3.644-3.941,15.449,15.449,0,0,0-5.195-2.031,31.981,31.981,0,0,0-6.391-.6,22.163,22.163,0,0,0-4.539.478A12.186,12.186,0,0,0,25.6,68.871a10.328,10.328,0,0,0-3.047,2.987A8.026,8.026,0,0,0,21.363,76.4a7.652,7.652,0,0,0,.958,4.06,8.537,8.537,0,0,0,3.761,2.868,48.082,48.082,0,0,0,7.764,2.626q6.472,1.707,12.961,3.347,2.389.476,6.63,1.73a31.836,31.836,0,0,1,8.42,4,25.47,25.47,0,0,1,7.229,7.346q3.046,4.6,3.045,11.763a26.077,26.077,0,0,1-2.269,10.871,23.619,23.619,0,0,1-6.751,8.661A32.423,32.423,0,0,1,52,139.347a52.567,52.567,0,0,1-15.35,2.029,54.027,54.027,0,0,1-13.675-1.731,34.413,34.413,0,0,1-11.708-5.435,26.845,26.845,0,0,1-8.062-9.439A28.148,28.148,0,0,1,.34,111.157H18.5a15.642,15.642,0,0,0,1.553,7.284M138.843,54.178V69.946H97.026V88.22H136.3v14.572H97.026V123.7h41.763v15.766H78.27V54.178h60.573" transform="translate(0 37.371)" fill-rule="evenodd"/>
    </g>
  </g>
</svg>
