<svg xmlns="http://www.w3.org/2000/svg" xmlns:xlink="http://www.w3.org/1999/xlink" width="600" height="300" viewBox="0 0 600 300"><defs><clipPath id="clip-Logo"><path d="M0 0h600v300H0z"/></clipPath></defs><g id="Logo" clip-path="url(#clip-Logo)"><path fill="#e8eff3" d="M0 0h600v300H0z"/><g id="RISE_logo" transform="translate(230.665 60.376)"><path id="Path_1321" fill-rule="evenodd" d="M48.85.62a28 28 0 0 1 10.33 1.86 24 24 0 0 1 7.89 5.07 22 22 0 0 1 5.01 7.47 24 24 0 0 1 1.73 9.14 25.7 25.7 0 0 1-3.16 13.02q-3.17 5.49-10.33 8.36v.24a14.5 14.5 0 0 1 5.73 2.92 16 16 0 0 1 3.7 4.66 22 22 0 0 1 2.09 5.91 52 52 0 0 1 .9 6.45q.11 2.04.23 4.78c.12 2.74.22 3.7.42 5.61a37 37 0 0 0 .96 5.44 13 13 0 0 0 1.97 4.36H57.57a33 33 0 0 1-1.91-9.68q-.34-5.4-1.08-10.75-.96-6.69-4.06-9.8t-10.15-3.1H21.6v33.33H2.86V.62Zm-6.69 38.59q6.45 0 9.68-2.87t3.22-9.32q0-6.2-3.22-9.02t-9.68-2.8H21.61v24.01Zm43 46.7h18.75V.63H85.16Z" transform="translate(1.831)"/><path id="Path_1322" fill="#bebc00" fill-rule="evenodd" d="M67.88 59.25h22v-22h-22Z" transform="translate(48.991 26.563)"/><path id="Path_1323" fill-rule="evenodd" d="M20.05 118.44a13.5 13.5 0 0 0 4.12 4.84 18 18 0 0 0 6.03 2.75 29 29 0 0 0 7.17.9 37 37 0 0 0 5.38-.43 19 19 0 0 0 5.37-1.6 12 12 0 0 0 4.18-3.3 8.2 8.2 0 0 0 1.67-5.3 7.5 7.5 0 0 0-2.2-5.62 18 18 0 0 0-5.8-3.59 58 58 0 0 0-8.12-2.5q-4.63-1.1-9.2-2.4a81 81 0 0 1-9.32-2.92 32 32 0 0 1-8.12-4.48 21 21 0 0 1-5.8-6.87 21 21 0 0 1-2.2-9.97A22.3 22.3 0 0 1 6 66.54a25.5 25.5 0 0 1 7.35-8.06 32 32 0 0 1 10.27-4.78 44 44 0 0 1 11.47-1.55 54 54 0 0 1 12.84 1.5 32 32 0 0 1 10.93 4.83 24.5 24.5 0 0 1 7.59 8.54 26 26 0 0 1 2.8 12.6H51.11a15 15 0 0 0-1.62-6.33 10.6 10.6 0 0 0-3.64-3.94 16 16 0 0 0-5.2-2.03 32 32 0 0 0-6.38-.6 22 22 0 0 0-4.54.47 12 12 0 0 0-4.13 1.68 10 10 0 0 0-3.05 2.99 8 8 0 0 0-1.19 4.54 7.7 7.7 0 0 0 .96 4.06 8.5 8.5 0 0 0 3.76 2.87 48 48 0 0 0 7.77 2.62q6.47 1.71 12.96 3.35 2.39.48 6.63 1.73a32 32 0 0 1 8.42 4 25.5 25.5 0 0 1 7.23 7.35q3.04 4.6 3.04 11.76a26 26 0 0 1-2.27 10.87 23.6 23.6 0 0 1-6.75 8.66A32 32 0 0 1 52 139.35a53 53 0 0 1-15.35 2.03 54 54 0 0 1-13.67-1.73 34 34 0 0 1-11.71-5.44 27 27 0 0 1-8.07-9.44 28 28 0 0 1-2.86-13.61H18.5a15.6 15.6 0 0 0 1.55 7.28m118.8-64.26v15.77H97.02v18.27h39.27v14.57H97.03v20.91h41.76v15.77H78.27v-85.3z" transform="translate(0 37.371)"/></g></g></svg>