<svg xmlns="http://www.w3.org/2000/svg" xmlns:xlink="http://www.w3.org/1999/xlink" width="600" height="300" viewBox="0 0 600 300"><defs><clipPath id="clip-Logo"><path d="M0 0h600v300H0z"/></clipPath></defs><g id="Logo" clip-path="url(#clip-Logo)"><path fill="#e8eff3" d="M0 0h600v300H0z"/><g id="c" transform="translate(100 97)"><g id="Group_62"><g id="Group_60"><path id="Path_677" fill="#0f0035" d="M299.79 11.97a49.6 49.6 0 0 0-36.52 15.96l22.25 22.25a16.36 16.36 0 0 1 0 23.13l-22.25 22.25a49.6 49.6 0 0 0 36.52 15.96 49.8 49.8 0 0 0 49.77-49.77 49.8 49.8 0 0 0-49.77-49.78" transform="translate(-183.502 -8.343)"/><path id="Path_678" fill="#0f0035" d="M66.51 53.4a49.6 49.6 0 0 1 13.26-33.8L64.97 4.8a16.36 16.36 0 0 0-23.13 0L4.79 41.83a16.36 16.36 0 0 0 0 23.13L41.84 102a16.36 16.36 0 0 0 23.13 0l14.8-14.8A49.6 49.6 0 0 1 66.5 53.4"/></g><g id="Group_61" transform="translate(199.283 7.844)"><path id="Path_679" fill="#0f0035" d="M657.72 89.14h11.2c1.26 13.6 10.57 20.27 22.66 20.27 11.2 0 19.14-5.8 19.14-14.48 0-23.67-50.36-11.08-50.36-42.43 0-14.1 12.22-23.29 28.96-23.29 18 0 29.33 9.44 31.47 25.18h-11.32c-1.77-9.7-9.32-15.23-20.15-15.23s-17.37 5.03-17.37 12.97c0 20.39 50.35 8.05 50.35 42.17 0 15.1-12.84 25.06-30.71 25.06s-32.36-10.45-33.87-30.22" transform="translate(-657.72 -28.204)"/><path id="Path_680" fill="#0f0035" d="M914.32 25.89a7.18 7.18 0 1 1 0 14.36 7 7 0 0 1-7.3-7.18 7.05 7.05 0 0 1 7.3-7.18m-5.29 26.69h10.83v63.45h-10.83Z" transform="translate(-831.484 -25.89)"/><path id="Path_681" fill="#0f0035" d="m1025.22 86.5-9.31 8.56v23.29h-10.83V29.22h10.83v51.87l29.58-26.19h14.48l-26.69 24.3 28.96 39.15h-12.97z" transform="translate(-899.833 -28.211)"/><path id="Path_682" fill="#0f0035" d="M1205.37 121.6V85.84h-10.83v-8.93h10.83V60.79h10.7v16.12h16.12v8.93h-16.12v34.88c0 7.43 3.78 11.08 9.32 11.08a23 23 0 0 0 7.17-1.26v9.19a21 21 0 0 1-8.43 1.63c-10.83 0-18.76-6.8-18.76-19.76" transform="translate(-1031.888 -50.216)"/></g></g></g></g></svg>