<svg xmlns="http://www.w3.org/2000/svg" xmlns:xlink="http://www.w3.org/1999/xlink" width="600" height="300" viewBox="0 0 600 300">
  <defs>
    <clipPath id="clip-Logo">
      <rect width="600" height="300"/>
    </clipPath>
  </defs>
  <g id="Logo" clip-path="url(#clip-Logo)">
    <rect width="600" height="300" fill="#e8eff3"/>
    <g id="SciLifeLab" transform="translate(97.496 105.73)">
      <path id="Path_1324" data-name="Path 1324" d="M253.55,72.97V43.9h-5.9V39.47h5.9V38.45a12.5,12.5,0,0,1,.85-4.78,9.419,9.419,0,0,1,2.43-3.51,10.411,10.411,0,0,1,3.87-2.15,17.013,17.013,0,0,1,5.14-.73,18.694,18.694,0,0,1,4.39.53l-.35,4.64c-.48-.08-1.03-.15-1.64-.2s-1.21-.08-1.81-.08a6.632,6.632,0,0,0-4.8,1.63,6.152,6.152,0,0,0-1.69,4.66v1.02h6.3v4.43h-6.3V72.98h-6.39Z"/>
      <path id="Path_1325" data-name="Path 1325" d="M143.61,61.85a6.808,6.808,0,0,0-.54-2.79,5.712,5.712,0,0,0-1.9-2.21,15.817,15.817,0,0,0-3.68-1.89,57.74,57.74,0,0,0-5.87-1.81,54.184,54.184,0,0,1-6.75-2.18,22.6,22.6,0,0,1-5.14-2.82,11.622,11.622,0,0,1-3.26-3.64,9.419,9.419,0,0,1-1.14-4.67,10.02,10.02,0,0,1,1.23-4.88,11.877,11.877,0,0,1,3.47-3.9,17.082,17.082,0,0,1,5.39-2.58,24.629,24.629,0,0,1,7.01-.93,22.918,22.918,0,0,1,7.56,1.15,17.487,17.487,0,0,1,5.58,3.03,12.89,12.89,0,0,1,3.44,4.36,11.817,11.817,0,0,1,1.17,5.11h-6.66a8.982,8.982,0,0,0-.67-3.5,7.439,7.439,0,0,0-2.05-2.79,9.929,9.929,0,0,0-3.45-1.83,16.572,16.572,0,0,0-4.9-.65,17.214,17.214,0,0,0-4.63.56,9.715,9.715,0,0,0-3.25,1.53,6.242,6.242,0,0,0-1.9,2.31,6.873,6.873,0,0,0-.62,2.91,5.114,5.114,0,0,0,.67,2.6,6.879,6.879,0,0,0,2.09,2.17,16.625,16.625,0,0,0,3.64,1.83,49.232,49.232,0,0,0,5.33,1.61,51.038,51.038,0,0,1,7.39,2.4,20.647,20.647,0,0,1,5.13,2.99,10.33,10.33,0,0,1,3.98,8.46,10,10,0,0,1-1.24,4.98,11.246,11.246,0,0,1-3.54,3.81,17.687,17.687,0,0,1-5.52,2.43,29.57,29.57,0,0,1-11.83.46,24.954,24.954,0,0,1-4.44-1.16,20.861,20.861,0,0,1-3.94-1.92,14.619,14.619,0,0,1-3.16-2.66,11.659,11.659,0,0,1-2.11-3.41,10.948,10.948,0,0,1-.76-4.15h6.66a7.456,7.456,0,0,0,1.02,3.98,8.5,8.5,0,0,0,2.73,2.74,12.526,12.526,0,0,0,3.94,1.59,20.849,20.849,0,0,0,4.68.51q5.25,0,8.04-1.92a6.022,6.022,0,0,0,2.8-5.23Z"/>
      <path id="Path_1326" data-name="Path 1326" d="M169.92,69.18a10.37,10.37,0,0,0,3.25-.5,9.364,9.364,0,0,0,2.74-1.36,7.26,7.26,0,0,0,1.93-2.06,5.969,5.969,0,0,0,.88-2.58h6.04a9.285,9.285,0,0,1-1.36,4.26,12.8,12.8,0,0,1-3.23,3.56,16.521,16.521,0,0,1-4.64,2.45,17.008,17.008,0,0,1-5.61.91,18.421,18.421,0,0,1-7.34-1.35,14.709,14.709,0,0,1-5.2-3.64,14.977,14.977,0,0,1-3.09-5.32,19.972,19.972,0,0,1-1.02-6.41v-1.3a20.016,20.016,0,0,1,1.02-6.41,14.559,14.559,0,0,1,8.27-8.96,20.082,20.082,0,0,1,13.28-.42,14.786,14.786,0,0,1,4.63,2.55,11.859,11.859,0,0,1,3.06,3.85,12.1,12.1,0,0,1,1.24,4.8h-6.04a7.882,7.882,0,0,0-.81-2.89,7.672,7.672,0,0,0-1.81-2.35,8.543,8.543,0,0,0-2.71-1.59,10,10,0,0,0-3.5-.59,10.3,10.3,0,0,0-4.92,1.05,8.88,8.88,0,0,0-3.14,2.77,11.017,11.017,0,0,0-1.67,3.87,19.725,19.725,0,0,0-.48,4.32v1.3a20,20,0,0,0,.48,4.38,10.746,10.746,0,0,0,1.66,3.85,8.781,8.781,0,0,0,3.14,2.76,10.347,10.347,0,0,0,4.95,1.05Z"/>
      <path id="Path_1327" data-name="Path 1327" d="M208.66,68.38h23.82v4.86H201.99V27.55h6.66V68.38Z"/>
      <path id="Path_1328" data-name="Path 1328" d="M283.82,73.59a19.512,19.512,0,0,1-7.06-1.21,15.787,15.787,0,0,1-5.4-3.36,14.476,14.476,0,0,1-3.45-5.12,17.017,17.017,0,0,1-1.21-6.5V56.1a18.608,18.608,0,0,1,1.36-7.31,16.2,16.2,0,0,1,3.64-5.42,15.912,15.912,0,0,1,5.21-3.36,16.543,16.543,0,0,1,6.11-1.16,17.477,17.477,0,0,1,6.91,1.25,13.022,13.022,0,0,1,4.78,3.45,14.229,14.229,0,0,1,2.78,5.2,22.654,22.654,0,0,1,.9,6.53v2.57H273.08a13.027,13.027,0,0,0,.85,4.33,10.323,10.323,0,0,0,2.21,3.5,10.5,10.5,0,0,0,3.45,2.35,11.46,11.46,0,0,0,4.57.87,12.074,12.074,0,0,0,5.73-1.24A14.14,14.14,0,0,0,294,64.38l3.9,2.72a15.083,15.083,0,0,1-2.18,2.4,14.506,14.506,0,0,1-2.99,2.07,17.187,17.187,0,0,1-3.92,1.46A19.873,19.873,0,0,1,283.82,73.59Zm-.79-30.03a9.755,9.755,0,0,0-3.56.63,8.937,8.937,0,0,0-2.9,1.84,9.816,9.816,0,0,0-2.12,3,14.2,14.2,0,0,0-1.16,4.12H292v-.43a14.589,14.589,0,0,0-.6-3.31,8.646,8.646,0,0,0-1.55-2.94,7.859,7.859,0,0,0-2.71-2.11,9.5,9.5,0,0,0-4.11-.8Z"/>
      <path id="Path_1329" data-name="Path 1329" d="M309.54,68.11h23.82v4.86H302.87V27.28h6.66V68.11Z"/>
      <path id="Path_1330" data-name="Path 1330" d="M359.65,72.97a5.763,5.763,0,0,1-.55-1.56c-.14-.63-.25-1.28-.35-1.97a15.761,15.761,0,0,1-2.02,1.59,14.726,14.726,0,0,1-2.45,1.33,15.635,15.635,0,0,1-2.88.9,15.8,15.8,0,0,1-3.28.32,16.653,16.653,0,0,1-5.2-.77,12.5,12.5,0,0,1-3.97-2.11,9.447,9.447,0,0,1-2.54-3.14,8.606,8.606,0,0,1-.9-3.88,9.424,9.424,0,0,1,1.17-4.75,9.823,9.823,0,0,1,3.37-3.45,16.926,16.926,0,0,1,5.3-2.11,31.444,31.444,0,0,1,6.94-.71h6.35V50.03a6.081,6.081,0,0,0-2-4.78c-1.34-1.19-3.3-1.78-5.9-1.78a11.628,11.628,0,0,0-3.28.43,8.9,8.9,0,0,0-2.54,1.16,5.709,5.709,0,0,0-1.64,1.69,3.812,3.812,0,0,0-.59,2.01h-6.42a6.9,6.9,0,0,1,1.05-3.56,10.753,10.753,0,0,1,2.99-3.17,16.467,16.467,0,0,1,4.68-2.29,19.9,19.9,0,0,1,6.13-.88,21.125,21.125,0,0,1,5.61.7,12.417,12.417,0,0,1,4.4,2.11A9.9,9.9,0,0,1,364,45.18a11.006,11.006,0,0,1,1.04,4.92V65.67a20.641,20.641,0,0,0,.33,3.58,12.561,12.561,0,0,0,.98,3.23v.5h-6.7Zm-10.6-4.37a11.815,11.815,0,0,0,3.25-.43,13.18,13.18,0,0,0,2.76-1.13,10.235,10.235,0,0,0,2.16-1.59,7.727,7.727,0,0,0,1.43-1.86V56.72h-5.32q-5.49,0-8.46,1.53a4.932,4.932,0,0,0-2.97,4.63,5.664,5.664,0,0,0,.45,2.26,4.712,4.712,0,0,0,1.36,1.81,6.948,6.948,0,0,0,2.24,1.21,9.79,9.79,0,0,0,3.1.44Z"/>
      <path id="Path_1331" data-name="Path 1331" d="M402.5,56.59a22.555,22.555,0,0,1-.97,6.79,15.837,15.837,0,0,1-2.83,5.39,12.78,12.78,0,0,1-4.56,3.54,14.2,14.2,0,0,1-6.15,1.27,16.168,16.168,0,0,1-6.39-1.16,12.33,12.33,0,0,1-4.56-3.33l-.31,3.87h-5.87V27.28h6.39V43.16a12.528,12.528,0,0,1,4.49-3.19,15.79,15.79,0,0,1,6.18-1.11,14.774,14.774,0,0,1,6.23,1.24,12.677,12.677,0,0,1,4.56,3.48,15.519,15.519,0,0,1,2.81,5.39,23.788,23.788,0,0,1,.97,6.98v.64Zm-6.39-.65a20.383,20.383,0,0,0-.52-4.72,11.268,11.268,0,0,0-1.67-3.88,8.328,8.328,0,0,0-3.02-2.65,9.728,9.728,0,0,0-4.56-.98,11.627,11.627,0,0,0-3.18.4,9.918,9.918,0,0,0-2.54,1.11,8.778,8.778,0,0,0-1.95,1.67,11.686,11.686,0,0,0-1.42,2.07V63.45a11.442,11.442,0,0,0,1.47,2.07,8.85,8.85,0,0,0,1.97,1.67,9.443,9.443,0,0,0,2.54,1.11,11.526,11.526,0,0,0,3.18.4,9.4,9.4,0,0,0,4.42-.96,8.48,8.48,0,0,0,3-2.6,11.3,11.3,0,0,0,1.73-3.85,19.388,19.388,0,0,0,.55-4.72Z"/>
      <path id="Path_1332" data-name="Path 1332" d="M196.09,73.24H189.7V39.74h6.39Z"/>
      <circle id="Ellipse_3" data-name="Ellipse 3" cx="3.76" cy="3.76" r="3.76" transform="translate(189.13 27.55)"/>
      <circle id="Ellipse_4" data-name="Ellipse 4" cx="3.76" cy="3.76" r="3.76" transform="translate(236.54 27.28)"/>
      <path id="Path_1333" data-name="Path 1333" d="M243.5,72.97h-6.39V39.48h6.39Z"/>
      <g id="Group_67" data-name="Group 67">
        <path id="Path_1334" data-name="Path 1334" d="M57.24,51.24a10.549,10.549,0,0,0,.96-4.47,10.278,10.278,0,0,0-.49-3.04c-.03-.08-.05-.16-.08-.24l-.03-.09c-.02-.05-.03-.1-.05-.15a.488.488,0,0,1-.03-.07c-.62-1.98-2.09-3.78-3.79-5.86-2.09-2.55-4.45-5.43-5.68-9.32-1.2-3.78-.91-7.3-.66-10.4.22-2.65.42-5.16-.31-7.47v-.01c0-.02-.01-.04-.01-.06-.01-.05-.03-.1-.04-.15L47,9.84c-.02-.08-.05-.16-.07-.25-.05-.17-.11-.34-.17-.5-.01-.02-.02-.05-.03-.07-.05-.14-.11-.28-.17-.42,0-.01,0-.01-.01-.02A10.475,10.475,0,0,0,34.83,2.49c-.15.03-.31.07-.46.11a.127.127,0,0,1-.06.01,4.913,4.913,0,0,0-.51.15,10.342,10.342,0,0,0-6.13,5.15,8.943,8.943,0,0,0-.43.95,10.383,10.383,0,0,0-.26,7.03v.01c.03.08.05.16.08.24l.03.08c.01.02.01.03.02.05s.02.05.03.07.01.03.02.05l.02.05c.61,1.97,2.08,3.77,3.79,5.85,2.09,2.55,4.45,5.44,5.68,9.33s.96,7.65.71,10.96c-.2,2.67-.37,4.97.25,6.91v.01c.01.02.01.04.02.06.01.05.03.1.04.15l.02.08c.02.08.05.16.07.25.04.14.09.28.14.41a10.461,10.461,0,0,0,13,6.41,10.342,10.342,0,0,0,6.13-5.15c.07-.15.14-.31.21-.47Z" fill="#a7c947"/>
        <path id="Path_1335" data-name="Path 1335" d="M88.66,24.93a12.406,12.406,0,0,0-22.58,3.99l-.06.3-.02.1c-.01.07-.03.14-.04.21v.01a.09.09,0,0,1-.01.05v.01c-.54,2.39-.09,5.11.42,8.26.63,3.88,1.35,8.27.3,13.02s-3.57,8.46-5.79,11.73c-1.79,2.63-3.33,4.9-3.84,7.26v.01c-.01.02-.01.04-.02.06-.02.06-.03.12-.05.18l-.03.1c-.02.1-.05.2-.07.3a12.413,12.413,0,0,0,9.43,14.8,12.5,12.5,0,0,0,2.71.3,12.3,12.3,0,0,0,6.65-1.95,12.991,12.991,0,0,0,1.93-1.51,12.312,12.312,0,0,0,3.52-6.27c.02-.1.04-.2.06-.29l.02-.1c.01-.07.03-.14.04-.21v-.01a.433.433,0,0,1,.01-.05c.54-2.4.09-5.12-.42-8.28-.63-3.87-1.35-8.26-.3-13,1.02-4.62,3.41-8.08,5.52-11.12,1.8-2.6,3.5-5.06,4.12-7.86,0-.01,0-.01.01-.02s.01-.04.02-.06c.02-.06.03-.12.05-.18l.03-.1c.02-.1.05-.2.07-.3a12.457,12.457,0,0,0-1.68-9.38Z" fill="#a7c947"/>
        <path id="Path_1336" data-name="Path 1336" d="M18.82,29.34a11.155,11.155,0,1,0,5.5,6.54,11.06,11.06,0,0,0-5.5-6.54Z" fill="#a7c947"/>
      </g>
    </g>
  </g>
</svg>
