<svg xmlns="http://www.w3.org/2000/svg" xmlns:xlink="http://www.w3.org/1999/xlink" width="600" height="300" viewBox="0 0 600 300">
  <defs>
    <clipPath id="clip-Logo">
      <rect width="600" height="300"/>
    </clipPath>
  </defs>
  <g id="Logo" clip-path="url(#clip-Logo)">
    <rect width="600" height="300" fill="#e8eff3"/>
    <g id="Symbols" transform="translate(100.185 66.059)">
      <g id="nav" transform="translate(0.223 0.48)">
        <g id="NY-LOGO">
          <g id="Group-2" transform="translate(0)">
            <g id="Group">
              <path id="Fill-4" d="M77.609,26.278a49.006,49.006,0,1,0,49.318,49A49.218,49.218,0,0,0,77.609,26.278Zm0,120.265c-39.545,0-71.717-31.967-71.717-71.261S38.064,4.022,77.609,4.022s71.717,31.967,71.717,71.261S117.155,146.544,77.609,146.544Z" transform="translate(-5.892 -4.022)" fill="#fad13d" fill-rule="evenodd"/>
              <path id="Fill-5" d="M84.961,55.029A27.736,27.736,0,1,1,57.227,27.471,27.648,27.648,0,0,1,84.961,55.029" transform="translate(14.49 16.232)" fill="#fad13d" fill-rule="evenodd"/>
            </g>
            <path id="Fill-6" d="M149.973,55.019a27.722,27.722,0,1,1-27.721-27.487,27.605,27.605,0,0,1,27.721,27.487" transform="translate(70.667 16.284)" fill="#fad13d" fill-rule="evenodd"/>
            <path id="Fill-7" d="M56.957,98.016a8.442,8.442,0,0,1-5.89-2.381l1.3-1.422a6.732,6.732,0,0,0,4.662,2.061c2.332,0,3.785-1.129,3.785-2.944,0-1.6-.977-2.5-4.185-3.632-3.785-1.325-5.064-2.527-5.064-5,0-2.749,2.206-4.392,5.489-4.392A7.964,7.964,0,0,1,62.4,82.14l-1.254,1.5a6.177,6.177,0,0,0-4.209-1.6c-2.406,0-3.409,1.178-3.409,2.527,0,1.422.651,2.233,4.161,3.459,3.884,1.374,5.087,2.65,5.087,5.2,0,2.7-2.155,4.785-5.814,4.785" transform="translate(33.126 61.861)" fill="#24292d" fill-rule="evenodd"/>
            <path id="Fill-8" d="M65.81,82.231V97.874H63.849V82.231H58.669V80.465H70.99v1.766H65.81" transform="translate(39.692 62.003)" fill="#24292d" fill-rule="evenodd"/>
            <path id="Fill-9" d="M73.944,82.043c-3.015,0-5.233,2.773-5.233,7.089S71,96.273,74.043,96.273c3.015,0,5.258-2.773,5.258-7.091S76.984,82.043,73.944,82.043Zm.025,15.972c-4.336,0-7.2-3.656-7.2-8.833s2.915-8.882,7.25-8.882,7.226,3.656,7.226,8.831S78.3,98.016,73.969,98.016Z" transform="translate(46.686 61.861)" fill="#24292d" fill-rule="evenodd"/>
            <path id="Fill-10" d="M83.5,98.016c-4.32,0-7.15-3.8-7.15-8.833,0-5.1,2.957-8.882,7.227-8.882a6.549,6.549,0,0,1,5.634,2.749L87.647,84.2a4.582,4.582,0,0,0-4.118-2.158c-3.032,0-5.2,2.92-5.2,7.089,0,4.2,2.249,7.141,5.231,7.141a5.273,5.273,0,0,0,4.37-2.257l1.364,1.152A7.018,7.018,0,0,1,83.5,98.016" transform="translate(54.965 61.861)" fill="#24292d" fill-rule="evenodd"/>
            <path id="Fill-11" d="M96.109,97.874,90.826,88.6l-3.393,4.277v5h-1.99V80.465h1.99v9.923c.459-.648,1.889-2.512,2.6-3.408l5.18-6.515h2.169L92.154,87l6.225,10.869h-2.27" transform="translate(62.816 62.003)" fill="#24292d" fill-rule="evenodd"/>
            <path id="Fill-12" d="M104.78,97.874V89.666H96.274v8.208H94.367V80.465h1.907V87.9h8.506V80.465h1.907V97.874H104.78" transform="translate(70.524 62.003)" fill="#24292d" fill-rule="evenodd"/>
            <path id="Fill-13" d="M110.3,82.043c-3.015,0-5.233,2.773-5.233,7.089s2.294,7.141,5.333,7.141c3.015,0,5.258-2.773,5.258-7.091S113.342,82.043,110.3,82.043Zm.025,15.972c-4.334,0-7.2-3.656-7.2-8.833s2.916-8.882,7.252-8.882,7.224,3.656,7.224,8.831S114.663,98.016,110.327,98.016Z" transform="translate(78.089 61.861)" fill="#24292d" fill-rule="evenodd"/>
            <path id="Fill-14" d="M112.711,97.874V80.465h1.983V96.108h8.8v1.766h-10.78" transform="translate(86.368 62.003)" fill="#24292d" fill-rule="evenodd"/>
            <path id="Fill-15" d="M133.427,97.737V84.191a30.159,30.159,0,0,1-1.028,2.862l-4.576,11.127-4.5-11.127a27.624,27.624,0,0,1-1-2.862V97.737h-1.835V80.465h2.129l4.04,10.338c.415,1.036,1.028,2.641,1.223,3.355.221-.739.833-2.343,1.223-3.355l4.088-10.338h2.08V97.737h-1.837" transform="translate(93.077 62.003)" fill="#24292d" fill-rule="evenodd"/>
            <path id="Fill-16" d="M44.457,119.128H46V62.93h-1.54Z" transform="translate(27.416 46.858)" fill="#24292d" fill-rule="evenodd"/>
            <path id="Fill-17" d="M58.456,83.43a8.327,8.327,0,0,1-6.893-3.116l2.56-2.208a5.831,5.831,0,0,0,4.535,1.963c2.1,0,3.091-.565,3.091-1.864,0-1.1-.608-1.6-3.953-2.331-3.268-.736-5.548-1.742-5.548-5.127,0-3.116,2.837-5.03,6.334-5.03a8.609,8.609,0,0,1,6.461,2.7l-2.56,2.4a5.491,5.491,0,0,0-4.029-1.767c-1.9,0-2.535.785-2.535,1.547,0,1.079.76,1.422,3.574,2.06s5.928,1.571,5.928,5.3c0,3.263-2.129,5.472-6.968,5.472" transform="translate(33.554 49.264)" fill="#24292d" fill-rule="evenodd"/>
            <path id="Fill-18" d="M70.568,67.05a1.9,1.9,0,1,1,0-3.793,1.9,1.9,0,1,1,0,3.793Zm-2.711,4.235c-2.863,0-4.054,2.374-4.054,5.432s1.191,5.434,4.054,5.434,4.052-2.374,4.052-5.434S70.718,71.285,67.857,71.285ZM65.069,67.05a1.9,1.9,0,1,1,1.976-1.885A1.974,1.974,0,0,1,65.069,67.05Zm2.788,18.5c-4.839,0-7.7-3.623-7.7-8.836s2.861-8.834,7.7-8.834,7.7,3.622,7.7,8.834S72.694,85.553,67.857,85.553Z" transform="translate(40.977 47.141)" fill="#24292d" fill-rule="evenodd"/>
            <path id="Fill-19" d="M75.207,69.425h-1.89V80.071h1.763c3.753,0,5.463-2.139,5.463-5.324C80.542,71.192,78.985,69.425,75.207,69.425Zm-.128,14.027H69.742V66.043h5.592c5.106,0,8.884,2.337,8.884,8.7C84.219,80.866,79.675,83.453,75.079,83.453Z" transform="translate(49.256 49.547)" fill="#24292d" fill-rule="evenodd"/>
            <path id="Fill-20" d="M79.328,83.453V66.043H91.278V69.45H82.77v3.009h4.942v3.383H82.77v4.2h8.878v3.408H79.328" transform="translate(57.535 49.547)" fill="#24292d" fill-rule="evenodd"/>
            <path id="Fill-21" d="M96.169,69.425H91.5V73.9h4.672c1.66,0,2.552-.746,2.552-2.263C98.721,70.072,97.751,69.425,96.169,69.425Zm2.119,14.027L95.1,77.184H91.5v6.268H87.922V66.043h8.325c3.369,0,6.152,1.816,6.152,5.52a4.96,4.96,0,0,1-3.421,5.123l3.421,6.765Z" transform="translate(64.957 49.547)" fill="#24292d" fill-rule="evenodd"/>
            <path id="Fill-22" d="M105.344,69.475V83.453h-3.421V69.475H97.011V66.043h13.244v3.431h-4.912" transform="translate(72.808 49.547)" fill="#24292d" fill-rule="evenodd"/>
            <path id="Fill-23" d="M115.685,67.05a1.9,1.9,0,1,1,0-3.793,1.9,1.9,0,1,1,0,3.793Zm-2.709,4.235c-2.863,0-4.053,2.374-4.053,5.432s1.191,5.434,4.053,5.434,4.052-2.374,4.052-5.434S115.836,71.285,112.975,71.285ZM110.19,67.05a1.9,1.9,0,1,1,1.974-1.885A1.974,1.974,0,0,1,110.19,67.05Zm2.786,18.5c-4.838,0-7.7-3.623-7.7-8.836s2.863-8.834,7.7-8.834,7.7,3.622,7.7,8.834S117.812,85.553,112.975,85.553Z" transform="translate(79.945 47.141)" fill="#24292d" fill-rule="evenodd"/>
            <path id="Fill-24" d="M123.273,69.425H118.6V73.9h4.673c1.658,0,2.552-.746,2.552-2.263C125.825,70.072,124.855,69.425,123.273,69.425Zm2.118,14.027-3.19-6.268h-3.6v6.268h-3.574V66.043h8.323c3.37,0,6.153,1.816,6.153,5.52a4.962,4.962,0,0,1-3.421,5.123l3.421,6.765Z" transform="translate(88.367 49.547)" fill="#24292d" fill-rule="evenodd"/>
            <path id="Fill-25" d="M135.9,83.453l-6.561-9.5c-.434-.646-1.022-1.517-1.251-1.965,0,.646.051,2.836.051,3.8v7.661h-3.524V66.043h3.421l6.332,9.2c.434.646,1.022,1.517,1.251,1.965,0-.648-.051-2.836-.051-3.8V66.043h3.524V83.453H135.9" transform="translate(96.646 49.547)" fill="#24292d" fill-rule="evenodd"/>
            <path id="Fill-26" d="M140.922,83.43a8.324,8.324,0,0,1-6.891-3.116l2.558-2.208a5.835,5.835,0,0,0,4.537,1.963c2.1,0,3.091-.565,3.091-1.864,0-1.1-.608-1.6-3.953-2.331-3.268-.736-5.549-1.742-5.549-5.127,0-3.116,2.839-5.03,6.334-5.03a8.61,8.61,0,0,1,6.463,2.7l-2.56,2.4a5.492,5.492,0,0,0-4.03-1.767c-1.9,0-2.533.785-2.533,1.547,0,1.079.76,1.422,3.572,2.06s5.93,1.571,5.93,5.3c0,3.263-2.129,5.472-6.969,5.472" transform="translate(104.782 49.264)" fill="#24292d" fill-rule="evenodd"/>
            <path id="Fill-27" d="M158.484,83.453V76.14h-7.327v7.313h-3.574V66.043h3.574v6.665h7.327V66.043h3.574V83.453h-3.574" transform="translate(116.487 49.547)" fill="#24292d" fill-rule="evenodd"/>
            <path id="Fill-28" d="M167.083,67.05a1.9,1.9,0,1,1,0-3.793,1.9,1.9,0,1,1,0,3.793Zm-2.711,4.235c-2.861,0-4.052,2.374-4.052,5.432s1.191,5.434,4.052,5.434,4.052-2.374,4.052-5.434S167.235,71.285,164.372,71.285Zm-2.786-4.235a1.9,1.9,0,1,1,1.976-1.885A1.975,1.975,0,0,1,161.586,67.05Zm2.786,18.5c-4.837,0-7.7-3.623-7.7-8.836s2.863-8.834,7.7-8.834,7.7,3.622,7.7,8.834S169.211,85.553,164.372,85.553Z" transform="translate(124.337 47.141)" fill="#24292d" fill-rule="evenodd"/>
            <path id="Fill-29" d="M173.964,83.43c-4.609,0-7.706-3.435-7.706-8.858,0-5.226,3.224-8.857,7.832-8.857a6.563,6.563,0,0,1,6.675,4.294l-3.35,1.349a3.422,3.422,0,0,0-3.375-2.233c-2.646,0-4.155,2.257-4.155,5.446,0,3.166,1.536,5.5,4.18,5.5,2.418,0,3.249-1.1,3.451-2.6h-2.8V74.253h6.323V76.51c0,4.417-3,6.92-7.078,6.92" transform="translate(132.616 49.264)" fill="#24292d" fill-rule="evenodd"/>
            <path id="Fill-30" d="M182.57,83.43a8.323,8.323,0,0,1-6.893-3.116l2.558-2.208a5.835,5.835,0,0,0,4.537,1.963c2.1,0,3.091-.565,3.091-1.864,0-1.1-.608-1.6-3.953-2.331-3.268-.736-5.549-1.742-5.549-5.127,0-3.116,2.839-5.03,6.335-5.03a8.61,8.61,0,0,1,6.463,2.7l-2.56,2.4a5.491,5.491,0,0,0-4.029-1.767c-1.9,0-2.535.785-2.535,1.547,0,1.079.76,1.422,3.574,2.06s5.928,1.571,5.928,5.3c0,3.263-2.129,5.472-6.968,5.472" transform="translate(140.753 49.264)" fill="#24292d" fill-rule="evenodd"/>
            <path id="Fill-31" d="M195.928,83.453l-4.8-8.407L188.3,78.329v5.123h-3.534V66.043H188.3v4.95c0,.646-.025,2.212-.05,2.76.253-.4.909-1.194,1.388-1.766l4.949-5.944h4.265l-5.174,6.019,6.487,11.39h-4.24" transform="translate(148.603 49.547)" fill="#24292d" fill-rule="evenodd"/>
            <path id="Fill-32" d="M200.9,69.126c-2.861,0-4.054,2.38-4.054,5.446s1.192,5.447,4.054,5.447,4.052-2.38,4.052-5.447S203.759,69.126,200.9,69.126Zm0,14.3c-4.839,0-7.7-3.632-7.7-8.858s2.861-8.857,7.7-8.857,7.7,3.631,7.7,8.857S205.734,83.43,200.9,83.43Z" transform="translate(155.883 49.264)" fill="#24292d" fill-rule="evenodd"/>
            <path id="Fill-33" d="M203.443,83.453V66.043h3.513V80.02h8.807v3.433h-12.32" transform="translate(164.733 49.547)" fill="#24292d" fill-rule="evenodd"/>
            <path id="Fill-34" d="M220.515,73.107c-.353-1.02-.708-2.065-.885-2.713-.177.648-.53,1.692-.885,2.713l-1.137,3.157h4.045Zm3.741,10.345-1.39-3.88h-6.472L215,83.453H211.21l6.777-17.409h3.438l6.725,17.409Z" transform="translate(171.442 49.547)" fill="#24292d" fill-rule="evenodd"/>
          </g>
        </g>
      </g>
    </g>
  </g>
</svg>
