<svg xmlns="http://www.w3.org/2000/svg" xmlns:xlink="http://www.w3.org/1999/xlink" width="600" height="300" viewBox="0 0 600 300"><defs><clipPath id="clip-Logo"><path d="M0 0h600v300H0z"/></clipPath></defs><g id="Logo" clip-path="url(#clip-Logo)"><path fill="#e8eff3" d="M0 0h600v300H0z"/><g id="Symbols" transform="translate(100.185 66.059)"><g id="nav" transform="translate(.223 .48)"><g id="NY-LOGO"><g id="Group-2"><g id="Group"><path id="Fill-4" fill="#fad13d" fill-rule="evenodd" d="M77.6 26.28a49 49 0 1 0 49.33 49 49.2 49.2 0 0 0-49.32-49m0 120.26c-39.54 0-71.7-31.96-71.7-71.26S38.05 4.02 77.6 4.02 149.34 36 149.34 75.28s-32.18 71.26-71.72 71.26Z" transform="translate(-5.892 -4.022)"/><path id="Fill-5" fill="#fad13d" fill-rule="evenodd" d="M84.96 55.03a27.74 27.74 0 1 1-27.73-27.56 27.65 27.65 0 0 1 27.73 27.56" transform="translate(14.49 16.232)"/></g><path id="Fill-6" fill="#fad13d" fill-rule="evenodd" d="M149.97 55.02a27.72 27.72 0 1 1-27.72-27.49 27.6 27.6 0 0 1 27.72 27.49" transform="translate(70.667 16.284)"/><path id="Fill-7" fill="#24292d" fill-rule="evenodd" d="M56.96 98.02a8.4 8.4 0 0 1-5.9-2.38l1.3-1.43a6.7 6.7 0 0 0 4.67 2.06c2.33 0 3.78-1.12 3.78-2.94 0-1.6-.97-2.5-4.18-3.63-3.79-1.33-5.07-2.53-5.07-5 0-2.75 2.21-4.4 5.5-4.4a8 8 0 0 1 5.34 1.84l-1.25 1.5a6.2 6.2 0 0 0-4.21-1.6c-2.4 0-3.41 1.18-3.41 2.53 0 1.42.65 2.23 4.16 3.46 3.88 1.37 5.09 2.65 5.09 5.2 0 2.7-2.16 4.78-5.82 4.78" transform="translate(33.126 61.861)"/><path id="Fill-8" fill="#24292d" fill-rule="evenodd" d="M65.81 82.23v15.64h-1.96V82.23h-5.18v-1.77h12.32v1.77z" transform="translate(39.692 62.003)"/><path id="Fill-9" fill="#24292d" fill-rule="evenodd" d="M73.94 82.04c-3.01 0-5.23 2.78-5.23 7.1s2.29 7.13 5.33 7.13c3.02 0 5.26-2.77 5.26-7.09s-2.32-7.14-5.36-7.14m.03 15.98c-4.34 0-7.2-3.66-7.2-8.84s2.91-8.88 7.25-8.88 7.23 3.66 7.23 8.83-2.95 8.89-7.28 8.89" transform="translate(46.686 61.861)"/><path id="Fill-10" fill="#24292d" fill-rule="evenodd" d="M83.5 98.02c-4.32 0-7.15-3.8-7.15-8.84 0-5.1 2.96-8.88 7.23-8.88a6.6 6.6 0 0 1 5.63 2.75l-1.56 1.15a4.6 4.6 0 0 0-4.12-2.16c-3.03 0-5.2 2.92-5.2 7.1 0 4.2 2.25 7.13 5.23 7.13a5.3 5.3 0 0 0 4.37-2.25l1.36 1.15a7 7 0 0 1-5.79 2.85" transform="translate(54.965 61.861)"/><path id="Fill-11" fill="#24292d" fill-rule="evenodd" d="m96.1 97.87-5.27-9.27-3.4 4.28v5h-1.99V80.47h2v9.92c.45-.65 1.88-2.51 2.6-3.41l5.17-6.51h2.17L92.15 87l6.23 10.87z" transform="translate(62.816 62.003)"/><path id="Fill-12" fill="#24292d" fill-rule="evenodd" d="M104.78 97.87v-8.2h-8.5v8.2h-1.91v-17.4h1.9v7.43h8.51v-7.44h1.9v17.41z" transform="translate(70.524 62.003)"/><path id="Fill-13" fill="#24292d" fill-rule="evenodd" d="M110.3 82.04c-3.01 0-5.23 2.78-5.23 7.1s2.3 7.13 5.33 7.13c3.01 0 5.26-2.77 5.26-7.09s-2.32-7.14-5.36-7.14m.03 15.98c-4.34 0-7.2-3.66-7.2-8.84s2.91-8.88 7.25-8.88 7.22 3.66 7.22 8.83-2.94 8.89-7.27 8.89" transform="translate(78.089 61.861)"/><path id="Fill-14" fill="#24292d" fill-rule="evenodd" d="M112.71 97.87v-17.4h1.98V96.1h8.8v1.76z" transform="translate(86.368 62.003)"/><path id="Fill-15" fill="#24292d" fill-rule="evenodd" d="M133.43 97.74V84.19a30 30 0 0 1-1.03 2.86l-4.58 11.13-4.5-11.13a28 28 0 0 1-1-2.86v13.55h-1.83V80.47h2.13l4.04 10.33a44 44 0 0 1 1.22 3.36c.22-.74.83-2.34 1.22-3.36l4.1-10.33h2.07v17.27z" transform="translate(93.077 62.003)"/><path id="Fill-16" fill="#24292d" fill-rule="evenodd" d="M44.46 119.13H46v-56.2h-1.54Z" transform="translate(27.416 46.858)"/><path id="Fill-17" fill="#24292d" fill-rule="evenodd" d="M58.46 83.43a8.3 8.3 0 0 1-6.9-3.12l2.56-2.2a5.8 5.8 0 0 0 4.54 1.96c2.1 0 3.09-.57 3.09-1.86 0-1.1-.6-1.6-3.95-2.34-3.27-.73-5.55-1.74-5.55-5.12 0-3.12 2.83-5.03 6.33-5.03a8.6 8.6 0 0 1 6.46 2.7l-2.56 2.4a5.5 5.5 0 0 0-4.03-1.77c-1.9 0-2.53.79-2.53 1.55 0 1.08.76 1.42 3.57 2.06s5.93 1.57 5.93 5.3c0 3.26-2.13 5.47-6.97 5.47" transform="translate(33.554 49.264)"/><path id="Fill-18" fill="#24292d" fill-rule="evenodd" d="M70.57 67.05a1.9 1.9 0 1 1 0-3.8 1.9 1.9 0 1 1 0 3.8m-2.71 4.24c-2.87 0-4.06 2.37-4.06 5.43s1.2 5.43 4.06 5.43 4.05-2.37 4.05-5.43-1.2-5.44-4.05-5.44m-2.8-4.24a1.9 1.9 0 1 1 1.99-1.88 1.97 1.97 0 0 1-1.98 1.88m2.8 18.5c-4.84 0-7.7-3.62-7.7-8.84s2.86-8.83 7.7-8.83 7.7 3.62 7.7 8.83-2.87 8.84-7.7 8.84" transform="translate(40.977 47.141)"/><path id="Fill-19" fill="#24292d" fill-rule="evenodd" d="M75.2 69.43h-1.88v10.64h1.76c3.75 0 5.46-2.14 5.46-5.32 0-3.56-1.56-5.33-5.33-5.33m-.12 14.02h-5.34v-17.4h5.6c5.1 0 8.88 2.33 8.88 8.7 0 6.12-4.55 8.7-9.14 8.7" transform="translate(49.256 49.547)"/><path id="Fill-20" fill="#24292d" fill-rule="evenodd" d="M79.33 83.45v-17.4h11.95v3.4h-8.51v3h4.94v3.4h-4.94v4.2h8.88v3.4z" transform="translate(57.535 49.547)"/><path id="Fill-21" fill="#24292d" fill-rule="evenodd" d="M96.17 69.43H91.5v4.47h4.67c1.66 0 2.55-.75 2.55-2.26 0-1.57-.97-2.22-2.55-2.22m2.12 14.02-3.19-6.27h-3.6v6.27h-3.58v-17.4h8.33c3.37 0 6.15 1.8 6.15 5.51a4.96 4.96 0 0 1-3.42 5.13l3.42 6.76Z" transform="translate(64.957 49.547)"/><path id="Fill-22" fill="#24292d" fill-rule="evenodd" d="M105.34 69.47v13.98h-3.42V69.47h-4.9v-3.43h13.24v3.43z" transform="translate(72.808 49.547)"/><path id="Fill-23" fill="#24292d" fill-rule="evenodd" d="M115.69 67.05a1.9 1.9 0 1 1 0-3.8 1.9 1.9 0 1 1 0 3.8m-2.71 4.24c-2.87 0-4.06 2.37-4.06 5.43s1.2 5.43 4.06 5.43 4.05-2.37 4.05-5.43-1.2-5.44-4.06-5.44Zm-2.79-4.24a1.9 1.9 0 1 1 1.97-1.88 1.97 1.97 0 0 1-1.97 1.88m2.79 18.5c-4.84 0-7.7-3.62-7.7-8.84s2.86-8.83 7.7-8.83 7.7 3.62 7.7 8.83-2.87 8.84-7.7 8.84" transform="translate(79.945 47.141)"/><path id="Fill-24" fill="#24292d" fill-rule="evenodd" d="M123.27 69.43h-4.67v4.47h4.67c1.66 0 2.56-.75 2.56-2.26 0-1.57-.97-2.22-2.56-2.22m2.12 14.02-3.19-6.27h-3.6v6.27h-3.57v-17.4h8.32c3.37 0 6.15 1.8 6.15 5.51a4.96 4.96 0 0 1-3.42 5.13l3.42 6.76Z" transform="translate(88.367 49.547)"/><path id="Fill-25" fill="#24292d" fill-rule="evenodd" d="m135.9 83.45-6.56-9.5a24 24 0 0 1-1.25-1.96c0 .64.05 2.83.05 3.8v7.66h-3.53v-17.4h3.43l6.33 9.2c.43.64 1.02 1.51 1.25 1.96 0-.65-.05-2.84-.05-3.8v-7.37h3.52v17.41z" transform="translate(96.646 49.547)"/><path id="Fill-26" fill="#24292d" fill-rule="evenodd" d="M140.92 83.43a8.3 8.3 0 0 1-6.89-3.12l2.56-2.2a5.8 5.8 0 0 0 4.54 1.96c2.1 0 3.09-.57 3.09-1.86 0-1.1-.61-1.6-3.96-2.34-3.26-.73-5.54-1.74-5.54-5.12 0-3.12 2.83-5.03 6.33-5.03a8.6 8.6 0 0 1 6.46 2.7l-2.56 2.4a5.5 5.5 0 0 0-4.03-1.77c-1.9 0-2.53.79-2.53 1.55 0 1.08.76 1.42 3.57 2.06s5.93 1.57 5.93 5.3c0 3.26-2.13 5.47-6.97 5.47" transform="translate(104.782 49.264)"/><path id="Fill-27" fill="#24292d" fill-rule="evenodd" d="M158.48 83.45v-7.31h-7.32v7.31h-3.58v-17.4h3.58v6.66h7.32v-6.67h3.58v17.41z" transform="translate(116.487 49.547)"/><path id="Fill-28" fill="#24292d" fill-rule="evenodd" d="M167.08 67.05a1.9 1.9 0 1 1 0-3.8 1.9 1.9 0 1 1 0 3.8m-2.7 4.24c-2.87 0-4.06 2.37-4.06 5.43s1.2 5.43 4.05 5.43 4.05-2.37 4.05-5.43-1.18-5.44-4.05-5.44m-2.8-4.24a1.9 1.9 0 1 1 1.98-1.88 2 2 0 0 1-1.97 1.88m2.8 18.5c-4.85 0-7.7-3.62-7.7-8.84s2.85-8.83 7.7-8.83 7.7 3.62 7.7 8.83-2.87 8.84-7.7 8.84" transform="translate(124.337 47.141)"/><path id="Fill-29" fill="#24292d" fill-rule="evenodd" d="M173.96 83.43c-4.6 0-7.7-3.43-7.7-8.86 0-5.22 3.22-8.85 7.83-8.85a6.56 6.56 0 0 1 6.68 4.29l-3.35 1.35a3.4 3.4 0 0 0-3.38-2.23c-2.65 0-4.15 2.25-4.15 5.44 0 3.17 1.53 5.5 4.18 5.5 2.41 0 3.24-1.1 3.45-2.6h-2.8v-3.22h6.32v2.26c0 4.42-3 6.92-7.08 6.92" transform="translate(132.616 49.264)"/><path id="Fill-30" fill="#24292d" fill-rule="evenodd" d="M182.57 83.43a8.3 8.3 0 0 1-6.9-3.12l2.57-2.2a5.8 5.8 0 0 0 4.53 1.96c2.1 0 3.1-.57 3.1-1.86 0-1.1-.62-1.6-3.96-2.34-3.27-.73-5.55-1.74-5.55-5.12 0-3.12 2.84-5.03 6.34-5.03a8.6 8.6 0 0 1 6.46 2.7l-2.56 2.4a5.5 5.5 0 0 0-4.03-1.77c-1.9 0-2.53.79-2.53 1.55 0 1.08.76 1.42 3.57 2.06s5.93 1.57 5.93 5.3c0 3.26-2.13 5.47-6.97 5.47" transform="translate(140.753 49.264)"/><path id="Fill-31" fill="#24292d" fill-rule="evenodd" d="m195.93 83.45-4.8-8.4-2.83 3.28v5.12h-3.53v-17.4h3.53v4.94c0 .65-.02 2.22-.05 2.76.25-.4.9-1.2 1.39-1.76l4.95-5.95h4.26l-5.17 6.02 6.48 11.4z" transform="translate(148.603 49.547)"/><path id="Fill-32" fill="#24292d" fill-rule="evenodd" d="M200.9 69.13c-2.86 0-4.05 2.38-4.05 5.44s1.19 5.45 4.05 5.45 4.05-2.38 4.05-5.45-1.2-5.44-4.05-5.44m0 14.3c-4.84 0-7.7-3.64-7.7-8.86s2.86-8.86 7.7-8.86 7.7 3.63 7.7 8.86-2.87 8.86-7.7 8.86" transform="translate(155.883 49.264)"/><path id="Fill-33" fill="#24292d" fill-rule="evenodd" d="M203.44 83.45v-17.4h3.52v13.97h8.8v3.43z" transform="translate(164.733 49.547)"/><path id="Fill-34" fill="#24292d" fill-rule="evenodd" d="M220.52 73.1a48 48 0 0 1-.89-2.7c-.18.64-.53 1.69-.88 2.7l-1.14 3.16h4.04Zm3.74 10.35-1.4-3.88h-6.47L215 83.45h-3.79l6.78-17.4h3.43l6.73 17.4Z" transform="translate(171.442 49.547)"/></g></g></g></g></g></svg>