<svg xmlns="http://www.w3.org/2000/svg" xmlns:xlink="http://www.w3.org/1999/xlink" width="600" height="300" viewBox="0 0 600 300"><defs><clipPath id="clip-Logo"><path d="M0 0h600v300H0z"/></clipPath></defs><g id="Logo" clip-path="url(#clip-Logo)"><path fill="#e8eff3" d="M0 0h600v300H0z"/><g id="Group_33" transform="translate(-237.756 -133.168)"><g id="Group_27" transform="translate(338.128 222.5)"><path id="Path_1187" d="M299.01 235.11c.1.1.1.19-.1.28a22 22 0 0 0-1.3 1.78c-.1.09-.1-.1-.1-.2a2.4 2.4 0 0 0-.74-2.8 1.83 1.83 0 0 0-2.6.38c-.66.93-.66 1.77 0 4.3s.36 3.44-.57 4.56a3.55 3.55 0 0 1-4.66.28c-1.87-1.3-1.87-1.58-2.15-1.68q-.28-.14 0-.56c.28-.37 1.4-1.86 1.59-2.14.09-.19.18 0 0 .28a2.5 2.5 0 0 0 .74 3.17 2.03 2.03 0 0 0 2.8-.1c0-.09.1-.09.1-.18.56-.65.84-1.3.09-4.2-.84-3.08-.28-4.1.93-5.04a3.2 3.2 0 0 1 4.1 0 8 8 0 0 1 1.3 1.22c.2.18.2.28.29.37.28.28.28.19.28.28" transform="translate(-200.367 -223.172)"/><path id="Path_1188" d="M195.82 272.8c0-.1.19-.1.28 0a15 15 0 0 0 1.96.37c.38 0-.18.28-.37.28a2.2 2.2 0 0 0-1.77 1.86 1.64 1.64 0 0 0 1.02 2.06h.1c1.3.28 2.05-.28 4-1.87a4.9 4.9 0 0 1 4.67-1.5 3.37 3.37 0 0 1 2.15 3.93 8 8 0 0 1-1.03 2.42c-.1.19-.19.28-.56.19-.47-.1-2.05-.38-2.33-.38-.56-.09-.28-.28 0-.28.84-.09 2.61-.37 2.98-2.14a1.73 1.73 0 0 0-1.21-2.15h-.19c-.84-.18-1.68-.18-4 1.78-2.53 2.05-3.55 2.05-4.95 1.49a3 3 0 0 1-1.68-3.64 8 8 0 0 1 .75-2.14c.18 0 .18-.2.18-.28" transform="translate(-194.2 -225.87)"/><path id="Path_1189" d="M277.96 350.11c-.18 0-.18-.19-.18-.28 0 0-.47-1.5-.47-1.58s.1-.2.19-.1a2.6 2.6 0 0 0 2.52.84 1.9 1.9 0 0 0 1.4-2.24c-.38-1.12-1.4-1.58-3.74-2.6-2.05-.94-2.8-1.97-2.98-3.09a3.8 3.8 0 0 1 2.7-4c1.78-.57 2.15-.48 2.52-.66.28-.19.28.37.38.46.18.47.65 1.87.74 2.15s-.09.37-.18.1a2.7 2.7 0 0 0-2.99-1.31 1.9 1.9 0 0 0-1.59 2.33c.28.84.38 1.5 3.27 2.7 2.8 1.22 3.36 2.43 3.45 3.83a3.5 3.5 0 0 1-2.8 3.17 7 7 0 0 1-1.4.19l-.46.1c-.28-.1-.28 0-.38 0" transform="translate(-199.564 -230.14)"/><path id="Path_1190" d="M301.03 238.65a8 8 0 0 0 1.22-.65.45.45 0 0 1 .56.18l3.17 3.18c.65.74 2.89 2.8 3.17 3.08s.56.46.28.65-.93.56-1.12.65-.1 0-.1-.19-.18-.56-.74-1.2l-1.5-1.5a.2.2 0 0 0-.27 0c-.19.19-2.7 2.7-3.17 3.26a32 32 0 0 0-3.83 4.2 1 1 0 0 0 .1.75c.09.1.18.56 0 .37l-1.4-1.5c-.29-.18-1.22-1.11-1.4-1.2-.2-.2 0-.2.18-.1a1.2 1.2 0 0 0 1.12 0 36 36 0 0 0 3.92-3.63l3.17-3.27c.09-.09.19-.19 0-.37a22 22 0 0 0-2.15-2.05 1 1 0 0 0-.74-.28c-.37-.2-.65-.2-.47-.38" transform="translate(-200.989 -223.537)"/><path id="Path_1191" d="M202.21 259.7c-.28-.29-.84-.76-1.12-1.04-.18-.09-.09-.28.1-.46.09-.1 1.86-3.36 2.23-4.01.56-.84 2.15-3.55 2.34-3.83.18-.37.37-.65.56-.46a8 8 0 0 1 .84.93c.18.19.09.1-.19.1s-.47.46-.93 1.2a15 15 0 0 0-.94 1.68c-.09.2 0 .28.2.38s3.16 1.96 3.82 2.33a25 25 0 0 0 5.03 2.52c.56 0 .56-.1.66-.19.18-.1.46-.19.28 0a9 9 0 0 0-1.03 1.59c-.28.46-.84 1.5-.93 1.68s-.1-.1-.1-.38.2-.56-.18-.84c-.75-.56-4.1-2.52-4.57-2.89-.47-.28-3.83-2.14-4.01-2.24s-.28-.28-.47 0a17 17 0 0 0-1.5 2.9.8.8 0 0 0 0 .65c0 .37 0 .46-.09.37" transform="translate(-194.619 -224.334)"/><path id="Path_1192" d="M218.45 238.56a9 9 0 0 0-.65-1.3c-.1-.19-.1-.19.18-.47.1-.1 3.08-2.33 3.64-2.7.84-.66 3.55-2.43 3.83-2.7s.65-.38.84-.1a11 11 0 0 1 .46 1.3c.1.28 0 .1-.28-.09-.18-.19-.46-.1-1.21.37s-1.87 1.22-1.96 1.31c-.19.1-.1.1-.1.28.2.37 2.15 3.17 2.71 3.92a57 57 0 0 0 3.64 4.66.8.8 0 0 0 .65 0c.19 0 .38 0 .1.2a12 12 0 0 0-1.4.92 13 13 0 0 0-1.31 1.03c-.28.28-.19 0-.1-.19s.29-.28 0-.74a32 32 0 0 0-2.88-4.39 99 99 0 0 0-3.08-4.1c-.1-.1-.1-.19-.38 0-.18.19-2.24 1.68-2.52 1.96-.18.19-.37.28-.37.56.28.09.28.46.19.27" transform="translate(-195.743 -223.078)"/><path id="Path_1193" d="M314.8 251.37a6.5 6.5 0 0 1-.1 9.23l-.37.38a6.44 6.44 0 0 1-8.67-9.52 6.45 6.45 0 0 1 9.05-.19Zm-7.56 1.58a4.94 4.94 0 0 0-1.11 6.9.1.1 0 0 0 .09.1 5 5 0 0 0 7-.84 5.1 5.1 0 0 0 .93-7.19c-.1-.09-.1-.18-.19-.28-1.2-1.02-4-1.4-6.71 1.3Z" transform="translate(-201.506 -224.312)"/><path id="Path_1194" d="M318.69 316.99a6.5 6.5 0 0 1-8.21 4c-.2-.08-.47-.18-.66-.27a6.7 6.7 0 0 1-3.54-8.02 6.36 6.36 0 0 1 8.2-3.83 6.5 6.5 0 0 1 4.2 8.12m-4.86-6.25a4.8 4.8 0 0 0-6.53 1.86c-.09.1-.09.2-.18.28-.56 1.68.09 4.3 3.82 5.7 3.64 1.4 6.35 0 7-2.43.28-.94.37-3.83-4.1-5.41" transform="translate(-201.663 -228.269)"/><path id="Path_1195" d="M314.22 276.5a10 10 0 0 1-1.68-.18c-.38-.1-.47-.1-.56-.28a8 8 0 0 1-1.68-4.94 6.43 6.43 0 0 1 11.57-4.38 8.3 8.3 0 0 1 1.5 4.38c.08.93.18 1.5.18 1.77.1.47.1.66.18.75s-.09.28-.28.28a9 9 0 0 0-1.3.18 6 6 0 0 0-.93.28c-.38.1-.38 0-.1-.28a2.8 2.8 0 0 0 1.3-1.77 5.8 5.8 0 0 0-1.3-4.85 5.1 5.1 0 0 0-5.97-1.02 5.6 5.6 0 0 0-3.73 5.31 4.4 4.4 0 0 0 2.7 4.3c.38.37.66.46.1.46" transform="translate(-201.952 -225.293)"/><path id="Path_1196" d="M324.72 279.06c0 .47.19 2.7.28 3.08.1.47-.1.28-.19.1a.6.6 0 0 0-.65-.47 51 51 0 0 0-5.32.37 45 45 0 0 0 4.67 3.64 3 3 0 0 0 1.21.65c.1 0 .1.1.1-.1.09-.18.27-.83.27.1v1.12c0 .19.1.65.1.75.09.56 0 .46-.38-.1a12 12 0 0 0-2.33-1.96c-.47-.28-3.17-2.42-3.17-2.42s-4.01 3.73-4.76 4.57a11 11 0 0 0-1.59 1.96c-.09.28-.28.46-.18.18 0-.18.18-1.3.18-1.77 0-.37.1-1.68.1-1.86 0-.28.1-.1.28 0a10 10 0 0 0 2.52-2.24 44 44 0 0 0 2.6-2.8c-1.3.09-2.6.28-3.82.46a4 4 0 0 0-1.4.47.5.5 0 0 0-.28.47c0 .18-.18.28-.18 0 0-.2-.1-1.31-.1-1.78 0-.37-.18-1.3-.18-1.49s.09-.28.18-.1a.7.7 0 0 0 .38.38c.46.19 1.02.19 5.4-.37a31 31 0 0 0 5.14-.75c.47-.1.75-.28.84-.65.1.28.28-.19.28.56" transform="translate(-202.102 -226.258)"/><path id="Path_1197" d="M324.67 295.06a29 29 0 0 0-.46 2.98c0 .47-.2.47-.28.19a.6.6 0 0 0-.38-.56 8 8 0 0 0-2.14-.56c-1.5-.28-2.52-.37-2.52-.37l-.75 3.17c-.37 1.5-.65 3.54-.65 3.54l2.9.84c.74.2 1.95.75 2.32.1.28-.47.47-.38.19.09-.1.19-.65 2.24-.75 2.7-.18.75-.28.29-.18.1 0-.19.18-.47-.47-.75s-2.98-1.02-4.94-1.58a25 25 0 0 0-5.23-1.22.7.7 0 0 0-.65.28c-.19.19-.47.28-.19-.09a16 16 0 0 0 .84-2.8c.1-.93.28-.28.28-.1a.8.8 0 0 0 .38.66 27 27 0 0 0 4.66 1.5s.47-1.87.75-3.27c.37-1.68.65-3.36.65-3.36s-.93-.19-1.59-.28a21 21 0 0 0-3.45-.37 1 1 0 0 0-.56.46c-.1.19-.37.47-.19-.09a15 15 0 0 0 .38-2.7c0-.75.28-.47.28-.2 0 .2.18.38.37.57a32 32 0 0 0 5.22 1.02 29 29 0 0 0 5.6.56c.47-.18.38-.28.47-.46-.1-.28.19-.56.1 0" transform="translate(-201.959 -227.236)"/><path id="Path_1198" d="M311.7 327.3a25 25 0 0 0-2.06 2.33c-.28.47-.28.1-.19-.1.2-.27.1-.36-.09-.64a31 31 0 0 0-3.64-3.36 24 24 0 0 0-4.2-3.17c-.28 0-.46 0-1.02.46a12 12 0 0 0-1.96 2.33 3 3 0 0 0-.28 1.22c0 .28-.1.28-.19 0a11 11 0 0 1-.37-1.68.7.7 0 0 1 .18-.47c.28-.37 2.9-3.26 3.27-3.64a9 9 0 0 0 1.21-1.49c.28-.37.28-.1.28.1a.9.9 0 0 0-.09.83 19 19 0 0 0 4.1 3.64 26 26 0 0 0 4.48 3.36c.18 0 .46 0 .56-.19.1.1.38.19 0 .47" transform="translate(-201.108 -228.969)"/><path id="Path_1199" d="M295.02 327.72a48 48 0 0 0 2.8 4.85c1.4 2.33 2.99 4.85 3.17 5.22.38.75.47.93-.28.56-1.02-.56-5.22-2.61-5.87-2.98s-4.1-2.06-4.1-2.06.74 5.6.84 5.88.65 4.95.65 5.23 0 .56-.38.18-7-8.77-7.37-9.14a2 2 0 0 0-.93-.56H283c-.18.1-.28-.1-.1-.19a38 38 0 0 0 2.9-1.49c.19-.1.37 0 .1.19s-.38.28-.29.56c.2.65 4.95 6.53 4.95 6.53l-.93-5.97c-.2-.66-.56-3.83-.56-3.83s0-.19.18-.1 4.85 2.53 5.32 2.71c.47.28 3.45 1.68 3.45 1.68s-2.61-4.29-3.73-5.97a1.3 1.3 0 0 0-.75-.65c-.37-.1-.46.1-.65.19-.1.09-.28-.1.1-.28.37-.28.74-.47 1.11-.75a11 11 0 0 0 1.03-.93c.1-.1.28 0 .19.18a.63.63 0 0 0-.29.94" transform="translate(-200.108 -229.483)"/><path id="Path_1200" d="M264.38 344.9c0 .19 0 2.8.1 3.08 0 .19-.1.1-.2-.19a.8.8 0 0 0-.55-.56 15 15 0 0 0-2.9-.1 10 10 0 0 0 .28 3.37c.28.28.38.28.47.28s.47.18.28.18h-3.17c-.38 0-.19-.09.1-.18a.8.8 0 0 0 .55-.66c.1-1.02.1-2.05.1-2.98a17 17 0 0 0-3.09.19.8.8 0 0 0-.37.65c0 .19-.28.37-.19.1a14 14 0 0 0 0-2.8c-.09-.38 0-.29.2-.1.18.28.08.46.36.56a17 17 0 0 0 3.08.1s0-2.53-.09-2.9a.8.8 0 0 0-.65-.65c-.19 0-.38-.19-.1-.19a16 16 0 0 0 2.99 0c.28 0 .1.19-.1.19a.9.9 0 0 0-.65.65c-.09.37-.09 2.9-.09 2.9s2.33 0 2.8-.1a.9.9 0 0 0 .65-.65c.1-.19.28-.38.19-.19" transform="translate(-198.294 -230.525)"/><path id="Path_1201" d="M241.23 350.55a15 15 0 0 0-3.45-1.22c-.38-.1 0-.18.18-.18.28 0 .56.09.84-.2a41 41 0 0 0 3.18-7.83 3.14 3.14 0 0 0-1.87-4.1.6.6 0 0 0-.37-.1c-2.7-.92-3.74.47-5.23 3.27a70 70 0 0 0-2.8 5.97.7.7 0 0 0 .28.56c.28.2.38.47.19.38a17 17 0 0 0-2.99-1.4q-.27-.17.28-.19c.28.1.38 0 .56-.19 1.4-2.24 2.7-4.57 3.92-6.9a5 5 0 0 1 3.36-2.52 6.4 6.4 0 0 1 5.69 2.52 4.8 4.8 0 0 1 .56 4.2c-.28 1.12-2.7 6.53-2.7 7.27a.5.5 0 0 0 .27.47c.28.1.38.28.1.19" transform="translate(-196.505 -230.108)"/><path id="Path_1202" d="M223.32 342.54s-.47-5.5-.66-7.37c-.18-2.24-.74-6.44-.74-6.44s-4.3 4.67-4.85 5.23-1.12 1.12-1.12 1.49a.7.7 0 0 0 .28.56c.09.1.18.47 0 .37a8 8 0 0 0-1.22-1.21 10 10 0 0 0-1.12-.93c-.28-.19.1-.19.2-.1a.6.6 0 0 0 .55.1 44 44 0 0 0 4.67-4.67c1.12-1.21 3.73-4 4-4.38.2-.28.2-.19.2.1 0 .36.46 5.96.55 6.61.1.57.38 4.39.38 4.86s.18 1.86.18 1.86 1.96-2.8 2.62-3.82a15 15 0 0 0 2.05-3.36 1 1 0 0 0-.47-.84c-.1-.1-.18-.28 0-.19a18 18 0 0 0 2.7 1.87c.38.19-.18.1-.27 0a1.3 1.3 0 0 0-.84 0 55 55 0 0 0-3.45 4.66c-.47.75-1.96 2.8-2.34 3.36s-1.12 1.77-1.3 2.05c.09.56 0 .56 0 .19" transform="translate(-195.478 -229.379)"/><path id="Path_1203" d="M217.4 319.3a14 14 0 0 0 1.03 1.49 8 8 0 0 0 1.2 1.3c.29.19-.08.19-.27 0s-.47-.28-1.12.1c-.84.46-7.84 6.34-8.12 6.71-.37.38-.28.56-.18.94.09.28 0 .46-.1.28a20 20 0 0 0-2.05-2.62c-.28-.18 0-.18.19-.09a.4.4 0 0 0 .47 0 93 93 0 0 0 8.86-7.18.6.6 0 0 0-.1-.66c0-.18 0-.56.19-.28" transform="translate(-195.067 -228.988)"/><path id="Path_1204" d="M210.57 267.65a22 22 0 0 0-1.4 3.46c-.1.28-.2 0-.2-.28.1-.38.1-.56-.46-1.03a76 76 0 0 0-9.98-3.73.6.6 0 0 0-.65.37c-.1.19-.38.28-.28 0a22 22 0 0 0 1.4-3.45c.1-.38.18 0 .18.18a.7.7 0 0 0 .2.75 62 62 0 0 0 10.44 4.01c.47-.1.37-.18.56-.37.1-.1.47-.19.19.1" transform="translate(-194.39 -225.206)"/><path id="Path_1205" d="m207.57 316.95 2.7-3.54s-4.66.28-5.68.37-3.92.19-4.2.66c-.2.28 0 .65 0 .74 0 .19 0 .56-.1.28a15 15 0 0 0-.74-1.77c-.28-.56-.56-1.3-.66-1.4-.18-.19.1-.19.28 0a1 1 0 0 0 .66.37 41 41 0 0 0 5.87-.1c.84 0 7-.46 7.56-.36.28 0 .56-.1.19.37-.19.28-3.92 5.13-4.2 5.5a56 56 0 0 0-3.83 5.41v.75c0 .18 0 .74-.1.56a25 25 0 0 0-2.04-3.36c-.28-.38.09-.1.28 0a.6.6 0 0 0 .56-.1c1.21-1.48 2.42-2.88 3.45-4.38" transform="translate(-194.474 -228.516)"/><path id="Path_1206" d="M207.74 298.3c.19.47.75 2.71 1.03 3.74.1.37.74 2.61.93 2.98.1.19-.28-.09-.37-.28q0-.25-.28-.37a.6.6 0 0 0-.37-.1 36 36 0 0 0-5.41 1.5 26 26 0 0 0-5.14 1.87.7.7 0 0 0-.18.74c0 .19-.1.84-.19.38a16 16 0 0 0-.47-2.06c-.28-.93-1.3-4.76-1.4-4.94s-.09-.28.1-.37l1.4-.56c.37-.2.18.09 0 .28s-.28.28-.28.84a23 23 0 0 0 .93 3.35s1.59-.37 2.05-.56 2.24-.65 2.24-.65a18 18 0 0 0-1.03-3.17c-.28-.37-.37-.28-.65-.28-.19 0-.46-.1-.28-.19a13 13 0 0 0 2.7-.84c.29-.19 0 .19-.18.28a.6.6 0 0 0-.37.65 11 11 0 0 0 .37 1.68l.47 1.4s2.89-.84 3.35-1.02.84-.19.75-1.22a10 10 0 0 0-1.03-3.26 3 3 0 0 0-.65-.75c-.1-.09-.47-.37-.28-.37a17 17 0 0 1 1.96.75 2 2 0 0 0 .28.56" transform="translate(-194.273 -227.499)"/><path id="Path_1207" d="M222.59 249.69c-.38.37-2.9 3.07-3.55 3.82a8 8 0 0 0-.93 1.12c-.1.19-.19-.19-.1-.37a.6.6 0 0 0 .1-.66 31 31 0 0 0-4.39-4.1 23 23 0 0 0-4.1-3.26 1 1 0 0 0-.74.1c-.19.08-.56.27-.28 0s.65-.75 1.3-1.4c.66-.75 3.36-3.46 3.46-3.65s.18-.18.37-.09a12 12 0 0 0 1.12 1.03c.37.28 0 .18-.19.18-.19-.09-.28-.09-.75.19a28 28 0 0 0-2.33 2.33l3.17 2.99s2.24-2.05 2.24-2.52a1 1 0 0 0-.09-.56c-.1-.19 0-.47.1-.28a10 10 0 0 0 1.77 1.68c.28.18-.1.18-.2.09-.27-.1-.27-.28-.74-.1a26 26 0 0 0-2.24 2.34s2.24 1.96 2.7 2.24c.57.37.94.46 1.5 0a11 11 0 0 0 2.15-2.43 3 3 0 0 0 .18-1.02c0-.2.1-.47.2-.28 0 .18.46 1.58.55 1.86 0 .47-.1.47-.28.75" transform="translate(-195.122 -223.75)"/><path id="Path_1208" d="M206.7 291.27c0 .28.1 1.58.19 2.14.09.28-.19-.09-.19-.28a.6.6 0 0 0-.37-.46 25 25 0 0 0-5.32.18 33 33 0 0 0-5.97.84 1.1 1.1 0 0 0-.28.84c0 .2-.28.75-.28.28a12 12 0 0 0-.1-1.77 21 21 0 0 1-.18-4.1 3.23 3.23 0 0 1 6.15-.74 2 2 0 0 1 .84-.75 32 32 0 0 0 5.14-3.64 1.3 1.3 0 0 0 .09-.84c0-.46.1-.84.28 0a4 4 0 0 1-.37 2.7 17 17 0 0 1-3.55 2.71c-.56.38-1.77 1.12-1.77 1.78a5 5 0 0 0 .1 1.11s1.86-.18 2.32-.28a9 9 0 0 0 2.7-.46.45.45 0 0 0 .2-.56c0-.19.28-.75.28 0a6 6 0 0 1 .09 1.3m-7.46-2.99a2.93 2.93 0 0 0-3.92.75 6 6 0 0 0-.28 2.61l2.61-.19c.37 0 2.7-.18 2.7-.18s.38-2.15-1.11-2.99" transform="translate(-194.161 -226.524)"/><path id="Path_1209" d="M256.19 246.74a10.8 10.8 0 0 1-2.52-6.8 7.2 7.2 0 0 1 1.68-4.3l.65-.74a8.2 8.2 0 0 0 2.43-5.78 12 12 0 0 0-.47-4.01 17 17 0 0 1-6.16 11c-1.49 1.3-4.1 3.55-4.1 6.35a14 14 0 0 0 3.45 8.4 13 13 0 0 1-.93-4.95 15 15 0 0 1 .37-3.45l.1-.19.1.2a9.8 9.8 0 0 0 5.4 4.27" transform="translate(-197.753 -222.674)"/><path id="Path_1210" d="M257.7 234.76c1.3-.56 6.16-2.61 6.16-5.97a9.2 9.2 0 0 0-2.62-5.7 10.6 10.6 0 0 1-3.54 11.67" transform="translate(-198.424 -222.54)"/><path id="Path_1211" d="M275.68 228.39a18 18 0 0 1-6.25 3.82l-.1-.1a15 15 0 0 0 3.55-8.11c-3.82 5.97-6.16 7-8.77 8.21l-1.21.56c-3.17 1.5-6.9 3.73-6.9 7.09a9.2 9.2 0 0 0 2.05 6.9 11 11 0 0 1-.47-2.98 8 8 0 0 1 .28-2.06l.1-.28v.28a11 11 0 0 0 4 5.32 10 10 0 0 1-.08-1.58c0-2.52.56-7 4.47-8.68 7.1-3.17 8.86-7.09 9.33-8.4" transform="translate(-198.306 -222.601)"/><path id="Path_1212" d="M270.3 243.09a12 12 0 0 1 1.4-7.09 13.15 13.15 0 0 0-8.4 12.22v.75a15 15 0 0 1 4.3-6.16h.18v.1a36 36 0 0 1-1.21 5.5c.65-.38 3.73-2.61 3.73-5.32" transform="translate(-198.8 -223.406)"/><path id="Path_1213" d="M277.3 242.32a8 8 0 0 0-.56-2.89 5.4 5.4 0 0 1-1.87 2.9l-.09-.1a4.5 4.5 0 0 0 .75-3.27 21 21 0 0 0-.19-2.42 4 4 0 0 1-.1-1.03 8 8 0 0 1 1.22-4 10.4 10.4 0 0 0-3.92 5.96c-.37 1.5-.74 2.99-1.02 4.48a10 10 0 0 1-.38 1.59 40 40 0 0 1-2.14 5.5 8 8 0 0 0 3.17-3.64l.1-.19v.19a7 7 0 0 1 .09 1.4 11 11 0 0 1-.75 3.82c1.21-.93 5.69-4.75 5.69-8.3" transform="translate(-199.183 -223.104)"/><path id="Path_1214" d="M285.98 234.7a6.4 6.4 0 0 0-5.32-1.03l-.19.1.19-.19a11 11 0 0 1 3.45-2.9 6 6 0 0 0-5.6 1.87 9.3 9.3 0 0 0-1.21 4.95v.84c1.59-2.7 1.77-2.7 1.77-2.7h.1v.09a4 4 0 0 1 .09 1.02 23 23 0 0 1-.37 3.55c2.7-5.32 6.15-5.6 7.09-5.6" transform="translate(-199.739 -223.043)"/><path id="Path_1215" d="m261.9 334.14.28-12.78.56.84c.19.47.37 1.03.56 1.5a2 2 0 0 1 .56 1.02c.1.65.37 2.7.47 3.17s.09.84.37.84c1.68 0 2.61-2.8 2.33-3.73a7 7 0 0 0-1.3-1.96s-.94-2.89-1.13-3.26-.84-.66-1.02-.84c-.1-.1-.65-.66-1.3-1.22l.09-3.54h-.56a5.8 5.8 0 0 1-4.1-1.68l.65 21.46Zm4.3-6.9c-.76 1.03-.85 1.12-1.13 1.12s-.28-1.12-.1-1.77c.2-.56.57-1.21 1.13-1.21.46 0 .84.74.1 1.86" transform="translate(-198.424 -228.539)"/><path id="Path_1216" d="M288.88 281.76a17 17 0 0 0 4.3.75 11.5 11.5 0 0 0 6.43-3.27 20 20 0 0 1 2.8-1.68s-1.77 0-4.01-.18a15 15 0 0 0-6.16.74 8 8 0 0 0-2.98 1.87 4 4 0 0 1-1.22.84 12 12 0 0 1-1.2.28 4 4 0 0 1 .83-1.5 17 17 0 0 0 3.17-2.7 34 34 0 0 0 3.92-6.06c.19-.66 1.5-3.64 1.5-3.64-1.13.74-2.24 1.5-3.46 2.14a13 13 0 0 0-4.66 4.2 10 10 0 0 0-1.21 4.95 6.7 6.7 0 0 1-1.87 4.29 28 28 0 0 1-3.45 3.17 6 6 0 0 1-1.96 1.03 7 7 0 0 1-1.4.09 4 4 0 0 1 1.12-1.03 6.7 6.7 0 0 0 3.08-1.95 14 14 0 0 0 2.8-5.88 23 23 0 0 1 .74-2.52 16 16 0 0 1-2.8 2.24 15 15 0 0 0-4.38 4.48 4.7 4.7 0 0 0-.56 3.54c0 .28-.1.47-.56.84a3 3 0 0 1-1.4.65 11 11 0 0 1-3.45.66 19 19 0 0 1-4.01-.75 6 6 0 0 0-1.5.47c-.28 0-.56-.1-.84-.1h-1.21a4 4 0 0 0 .28-1.49.7.7 0 0 1 .47-.65q.86-.42 1.58-.84a1.7 1.7 0 0 1 .93-.19 7 7 0 0 0 3.64-1.02 15 15 0 0 0 4.57-4.76 19 19 0 0 1 2.52-2.24s-1.68.46-3.54 1.02a17 17 0 0 0-5.7 2.8 9 9 0 0 0-1.86 2.34 8 8 0 0 1-1.03 1.68c-.28.18-1.2.74-1.2.56.18-.47.36-.84.55-1.22a26 26 0 0 1 1.4-2.24 6 6 0 0 0 .84-1.77 5 5 0 0 1 .84-1.68 4.4 4.4 0 0 1 3.17-1.77c1.4 0 2.7-.1 4.1-.19a12 12 0 0 0 4.95-1.96c.56-.28 2.89-1.95 2.89-1.95s-2.24.37-2.99.46a48 48 0 0 0-5.13.56 15 15 0 0 0-4.38 2.24c-.93.65-1.87 1.4-2.8 2.15a5 5 0 0 1 .1-1.22 1.8 1.8 0 0 1 .83-1.3 21 21 0 0 0 3.73-2.7 20 20 0 0 0 2.99-4.4c.19-.55 1.4-2.98 1.4-2.98a13 13 0 0 1-2.61 1.68 15 15 0 0 0-5.04 3.92 6 6 0 0 0-1.3 3.26 5 5 0 0 1-.29 1.59 4 4 0 0 0-.37 1.68 4 4 0 0 1-.47 1.87 7 7 0 0 1-.46 1.2 5 5 0 0 0-.47.75 17 17 0 0 1-1.58 2.24s-.47-.56.18-1.96a12 12 0 0 0 1.3-4.75 15 15 0 0 0-.74-4.01l-1.3-3.55a13 13 0 0 1-.56 2.61 21 21 0 0 0-1.5 5.79 10 10 0 0 0 1.4 4.57 2.3 2.3 0 0 1 .47 1.77 3.4 3.4 0 0 1-.65 1.59 5 5 0 0 0-.47 1.58 5.2 5.2 0 0 1-2.33 3.27 1 1 0 0 1-.37.28l.46-18a25 25 0 0 1 2.99-11.85 4 4 0 0 1 .46-.66 9 9 0 0 1 6.16-3.54v-1.5h-25.93v1.5a8.6 8.6 0 0 1 6.16 3.54c1.96 2.7 3.17 4.29 3.45 12.78l.65 20.62a3.6 3.6 0 0 0-1.68 2.6 1.3 1.3 0 0 1-.18-1.3 7 7 0 0 0 .56-3.92 17 17 0 0 0-2.9-5.4 29 29 0 0 1-1.77-2.53s0 1.68-.1 2.99a12 12 0 0 0 .2 5.41 7.7 7.7 0 0 0 2.8 3.64 2.7 2.7 0 0 1 .74 1.3 2 2 0 0 1-.1 1.31 7 7 0 0 1-.18 1.4c-.1.47-.56.75-.56 1.21a15 15 0 0 1-.46 1.96c-.1.38-.38.47-.66.94a1 1 0 0 0-.18.84 8 8 0 0 1-1.68-1.78 6 6 0 0 0-4.48-3.82 17 17 0 0 0-4.3-.1 15 15 0 0 1-3.54-.46 5.7 5.7 0 0 1 2.62 1.77 13 13 0 0 0 4.57 3.27 6 6 0 0 0 3.45 0c.46-.1.84-.38 1.3-.2a3 3 0 0 1 .94.85 8 8 0 0 1-1.3.65 9 9 0 0 0-4.67 3.64 23 23 0 0 0-1.3 4.48 25 25 0 0 1-.66 2.52s1.12-.94 2.05-1.59a14 14 0 0 0 3.73-3.26 11 11 0 0 0 1.78-5.32.7.7 0 0 1 .65-.75.9.9 0 0 1 .65.84 2.2 2.2 0 0 0 .47 1.3c.18.29.65.66 1.02 1.22a17 17 0 0 1 .94 2.33c.28.56.37.47.74 1.22s.38 1.12.66 1.67c.37.56.46.47.46.47l-.19-3.45c-.09-.1-.18-.1-.28-.19-.09-.19-.28-.37-.37-.56a7 7 0 0 1 1.03-.56.6.6 0 0 1 .84.1 8.4 8.4 0 0 0 4.2 1.67 25 25 0 0 0 7-2.6 23 23 0 0 1 2.7-.94 24 24 0 0 1-2.98-.47 41 41 0 0 0-4.85-.84 6 6 0 0 0-1.31.19l.1-1.03s-.85.75-1.13.94a9 9 0 0 1-2.14 1.12 8 8 0 0 1-1.59.46s-.1-.1-.19.37-.18.47-.74.56a3 3 0 0 0-1.03.38s.47-1.22.56-1.4.19-.38.84-.56a10 10 0 0 0 4.67-2.43 14 14 0 0 0 3.35-4.85 12 12 0 0 1 2.34-2.9s-1.5.57-4.39 1.6c-.1.09-.28.09-.37.18l.1-3.73v-.47l-.2.1c-.46.18-1.67.56-2.14.74s-.84.75-1.3.94a8 8 0 0 0-1.87 1.12v.65l.09 4.01a6 6 0 0 0-1.3 3.36 4 4 0 0 1-.38 1.5c-.19.46-.28.83-.47 1.3a9 9 0 0 0-1.11-1.68 1.6 1.6 0 0 1-.28-1.59 13 13 0 0 1 .65-1.68 20 20 0 0 1 .93-2.6c.19-.47.1.46.65-2.25a4.6 4.6 0 0 1 3.08-3.54c.38-.19.75-.75 1.31-.94.47-.18 1.77-.56 2.15-.74a6 6 0 0 0 2.42-1.68 4 4 0 0 1 1.4-1.3 6 6 0 0 1 2.24-.38c1.12-.1 1.3.75 1.59 1.12a2 2 0 0 1 .28 1.03 5.1 5.1 0 0 0 1.96 4.29 12 12 0 0 0 5.87 2.33c1.03.28 3.45 1.3 3.45 1.3s-.46-.18-2.14-2.8a16 16 0 0 0-4.3-4.75 19 19 0 0 0-3.26-1.12 3 3 0 0 1-1.12-.47c-.28-.37-.56-.65-.84-1.02h.47a8 8 0 0 0 3.26.65 8 8 0 0 0 3.83-.93 1.6 1.6 0 0 1 1.3.09c.47.28.94.65 1.96 1.3a9.5 9.5 0 0 0 4.86 1.68 20 20 0 0 0 6.15-1.3 13 13 0 0 1 2.52-.75s-1.68-.28-2.52-.46a26 26 0 0 0-5.97-1.31 7 7 0 0 0-3.82 1.12 1.2 1.2 0 0 1-1.3.28 1.6 1.6 0 0 1-1.04-.84 7 7 0 0 0 3.74-1.4 20 20 0 0 0 2.42-2.43c.47-.37.75-.93 1.68-1.77a2.3 2.3 0 0 1 2.51-.65m4.76-3.36a21 21 0 0 1 6.44-.28c-.56.1-3.83 1.59-6.07 2.15a29 29 0 0 1-4.94.75v-.1a11 11 0 0 1 4.57-2.52m-4.94-4.66a12 12 0 0 1 5.5-4.3s-2.8 3.74-3.74 4.95-3.17 4.57-3.17 4.57a9 9 0 0 1 1.4-5.22Zm-9.24 8.4a14 14 0 0 1 4.76-4.2s-1.96 3.26-3.08 4.76-2.7 3.36-2.7 3.36-.57-1.31 1.02-3.92m-8.58-1.68a46 46 0 0 1 5.78-2.61s-3.36 2.98-5.04 4.2a30 30 0 0 1-3.73 2.14 9 9 0 0 1 2.99-3.73m5.5-6.72a42 42 0 0 1 5.87-.65s-3.91 1.4-5.4 1.87a33 33 0 0 1-4.4.93 18 18 0 0 1 3.93-2.15m-5.23-2.8a21 21 0 0 1 5.7-4.29s-2.52 2.52-4.3 4.57-2.89 3.46-2.89 3.46v.09a11 11 0 0 1 1.5-3.83m-5.97 10.55a8.3 8.3 0 0 1-1.3-4.39 14 14 0 0 1 1.58-5.7s-.09 3.18 0 5.05a23 23 0 0 1-.28 5.04m-21.17 18.93a31 31 0 0 1-3.92-2.05 15 15 0 0 1 5.7.28 5.1 5.1 0 0 1 3.07 3.26c.1 0-3.26-.93-4.85-1.5Zm-.65 12.31a14.5 14.5 0 0 1 1.68-5.6 6.3 6.3 0 0 1 3.54-2.42Zm18.56-7.27a37 37 0 0 1 5.6.74 54 54 0 0 1-6.53 1.22 21 21 0 0 1-4.2-.1s1.12-1.5 5.13-1.86m-4.29-5.5a23 23 0 0 1 6.25-2.99s-3.73 3.17-5.32 4.57a43 43 0 0 0-3.45 3.64 7.4 7.4 0 0 1 2.52-5.22m-4.2-5.6a23 23 0 0 1-1.77-4.1c-.47-1.68-1.12-5.7-1.12-5.7a36 36 0 0 1 3.08 5.14 6.2 6.2 0 0 1-.19 4.66m16.33-4.1a17 17 0 0 1 4.1 1.49 15 15 0 0 1 4.38 5.32 41 41 0 0 1-4.76-2.99 24 24 0 0 1-3.73-3.73Zm14.55-2.34a27 27 0 0 1 6.06 1.22s-4.57.56-6.06.56c-1.3-.1-2.61-.19-3.92-.38a8.6 8.6 0 0 1 3.92-1.4" transform="translate(-197.049 -224.667)"/><path id="Path_1217" d="M280.13 270.8a1.9 1.9 0 0 0-.93 1.67.9.9 0 0 0 .75 1.03 1 1 0 0 0 .46-.1 1.45 1.45 0 0 0 1.03-1.58 1.1 1.1 0 0 0-1.03-1.12.3.3 0 0 0-.28.1" transform="translate(-199.866 -225.734)"/><path id="Path_1218" d="M297.53 276a1.9 1.9 0 0 0-.93 1.67.9.9 0 0 0 .74 1.03 1 1 0 0 0 .47-.1 1.45 1.45 0 0 0 1.03-1.58 1.1 1.1 0 0 0-1.03-1.12.3.3 0 0 1-.28.1" transform="translate(-201.034 -226.083)"/><path id="Path_1219" d="M268.03 292.6a1.9 1.9 0 0 0-.93 1.67.9.9 0 0 0 .74 1.03 1 1 0 0 0 .47-.1 1.45 1.45 0 0 0 1.03-1.58 1.1 1.1 0 0 0-1.03-1.12.3.3 0 0 1-.28.1" transform="translate(-199.054 -227.197)"/><path id="Path_1220" d="M288.7 287a.9.9 0 0 0 .37 1.21 1 1 0 0 0 .46.1 1.5 1.5 0 0 0 1.5-1.22 1.1 1.1 0 0 0-.66-1.4c-.09 0-.18-.09-.28-.09a1.8 1.8 0 0 0-1.4 1.4" transform="translate(-200.498 -226.734)"/><path id="Path_1221" d="M279.73 292.6a1.9 1.9 0 0 0-.93 1.67.9.9 0 0 0 .75 1.03 1 1 0 0 0 .46-.1 1.45 1.45 0 0 0 1.03-1.58 1.1 1.1 0 0 0-1.03-1.12c0 .1-.1.1-.28.1" transform="translate(-199.839 -227.197)"/><path id="Path_1222" d="M265.73 304.6a1.9 1.9 0 0 0-.93 1.67.9.9 0 0 0 .75 1.03 1 1 0 0 0 .46-.1 1.45 1.45 0 0 0 1.03-1.58 1.1 1.1 0 0 0-1.03-1.12.3.3 0 0 1-.28.1" transform="translate(-198.9 -228.002)"/><path id="Path_1223" d="M243.91 309.5a1.45 1.45 0 0 0 1.03-1.58 1.1 1.1 0 0 0-1.03-1.12h-.28a1.9 1.9 0 0 0-.93 1.68.9.9 0 0 0 .75 1.02.4.4 0 0 0 .46 0" transform="translate(-197.417 -228.157)"/><path id="Path_1224" d="M250.6 222.5a10 10 0 0 1 1.87 5.32c0 .74-.1 1.86-.1 1.86a13 13 0 0 1-.65 3.27 17 17 0 0 0 2.33-4.66v-.19l.1.19a6 6 0 0 1 .65 2.24 7 7 0 0 0 .65-3.08 5.4 5.4 0 0 0-4.85-4.95" transform="translate(-197.948 -222.5)"/><path id="Path_1225" d="m250.6 231.03-.28-2.43a16.4 16.4 0 0 1-4.85 5.88 7.3 7.3 0 0 0-3.17 5.69 12.7 12.7 0 0 0 4.75 8.49 20 20 0 0 1-1.3-7 4.3 4.3 0 0 1 1.68-3.17l.18-.2a25 25 0 0 0 2.06-2.32 8 8 0 0 0 .74-1.59 3 3 0 0 0 .1-.84 8 8 0 0 0 .09-2.51" transform="translate(-197.391 -222.909)"/><path id="Path_1226" d="M228.56 272.85a1.1 1.1 0 0 0-1.12 1.12 1 1 0 0 0 .28.75c-.1 0-.28-.1-.37-.1a1.4 1.4 0 0 0 0 2.8.6.6 0 0 0 .37-.09 2.3 2.3 0 0 1-2.33 1.68c-2.05 0-2.9-2.24-2.98-2.7a1.36 1.36 0 0 0 2.6-.75 1.5 1.5 0 0 0-1.3-1.03c-.19 0-.28 0-.37.1a1.39 1.39 0 1 0-1.87-2.05 1.36 1.36 0 0 0 0 2.05 1 1 0 0 0-.46-.1 1.4 1.4 0 1 0 0 2.8 1.23 1.23 0 0 0 1.3-1.02c-.1.65-1.21 2.7-2.98 2.7a2.4 2.4 0 0 1-2.34-1.68c.1 0 .28.1.38.1a1.4 1.4 0 0 0 0-2.8.6.6 0 0 0-.38.1 1 1 0 0 0 .28-.76 1.1 1.1 0 0 0-1.11-1.12 1.4 1.4 0 0 0-.66.1 36 36 0 0 1 .66 3.73l.93 6.25h10.35v-.19l.94-6.06a49 49 0 0 1 .65-3.73c0-.1-.19-.1-.47-.1" transform="translate(-195.593 -225.835)"/><path id="Path_1227" d="M249.46 272.85a1.1 1.1 0 0 0-1.12 1.12 1 1 0 0 0 .28.75c-.1 0-.28-.1-.37-.1a1.4 1.4 0 0 0 0 2.8.6.6 0 0 0 .37-.09 2.3 2.3 0 0 1-2.33 1.68c-2.05 0-2.9-2.24-2.98-2.7a1.36 1.36 0 0 0 2.6-.75 1.5 1.5 0 0 0-1.3-1.03c-.19 0-.28 0-.37.1a1.39 1.39 0 1 0-1.87-2.05 1.36 1.36 0 0 0 0 2.05 1 1 0 0 0-.46-.1 1.4 1.4 0 1 0 0 2.8 1.23 1.23 0 0 0 1.3-1.02c-.1.65-1.21 2.7-2.98 2.7a2.4 2.4 0 0 1-2.34-1.68c.1 0 .28.1.38.1a1.4 1.4 0 1 0 0-2.8.6.6 0 0 0-.38.1 1 1 0 0 0 .28-.76 1.1 1.1 0 0 0-1.11-1.12 1.4 1.4 0 0 0-.66.1 36 36 0 0 1 .66 3.73l.93 6.25h10.35v-.19l.94-6.06c.18-1.4.46-2.99.65-3.73.09-.1-.19-.1-.47-.1" transform="translate(-196.995 -225.835)"/><path id="Path_1228" d="M239.79 286.25a1.24 1.24 0 0 0-1.22 1.21 1.1 1.1 0 0 0 .38.84 1.5 1.5 0 1 0-.84 2.9c.18 0 .28.09.46.09a.6.6 0 0 0 .38-.1 2.7 2.7 0 0 1-2.52 1.87c-2.24 0-3.18-2.43-3.27-2.98a1.5 1.5 0 1 0 2.9-.84 1.5 1.5 0 0 0-1.5-1.12 1 1 0 0 0-.46.09 1.52 1.52 0 0 0-2.06-2.24 1.6 1.6 0 0 0-.46 1.12 1.3 1.3 0 0 0 .56 1.12 1 1 0 0 0-.47-.1 1.5 1.5 0 0 0 0 3 1.6 1.6 0 0 0 1.5-1.13c-.1.66-1.4 2.99-3.27 2.99a2.5 2.5 0 0 1-2.52-1.87c.1 0 .28.1.37.1a1.54 1.54 0 0 0 .1-3.08h-.1a1 1 0 0 0-.46.09 1.2 1.2 0 0 0 .37-.84 1.24 1.24 0 0 0-1.21-1.21 1 1 0 0 0-.75.18c.28 1.3.65 3.83.75 4.1l1.02 6.9h11.38v-.18l1.03-6.72a38 38 0 0 1 .75-4.1 1.3 1.3 0 0 0-.84-.09" transform="translate(-196.277 -226.732)"/></g><path id="Path_1379" d="M502.2 276.66h3.73v4.3a14 14 0 0 0 6.25 1.2c4.57 0 7.56-2.14 7.56-5.87 0-8.49-17.45-3.45-17.45-14.83 0-3.92 2.34-8.96 11.76-8.96a26 26 0 0 1 8.49 1.5v6.34h-3.55v-3.92a17 17 0 0 0-5.32-.84c-3.45 0-7.18 1.3-7.18 5.5 0 8.11 17.45 2.98 17.45 14.74 0 7-5.97 9.51-12.04 9.51a26 26 0 0 1-9.51-1.58v-7z" transform="translate(-11.01 -2.013)"/><path id="Path_1380" d="M528.4 261.48h3.73l.19-5.7 3.73-.18-.19 5.88h7.37v2.8h-7.46q-.17 5.87-.19 11.75c-.02 5.88 0 6.25 3.64 6.25a11 11 0 0 0 4.57-1.03l-.1 2.99a13 13 0 0 1-5.21 1.12c-6.53 0-6.53-4.66-6.53-7.65s.09-10.07.18-13.43h-3.73Z" transform="translate(-12.768 -2.221)"/><path id="Path_1381" d="M558.48 261.3a10.86 10.86 0 0 1 11.38 10.36v1.3c0 6.72-4.2 12.88-11.38 12.88a10.85 10.85 0 0 1-11.38-10.27v-1.4c0-6.71 4.3-12.87 11.38-12.87m0 21.36c4.94 0 7.46-4.1 7.46-9.14s-2.42-9.14-7.46-9.14-7.46 4.1-7.46 9.14c0 5.13 2.42 9.14 7.46 9.14" transform="translate(-14.022 -2.603)"/><path id="Path_1382" d="M594.34 284.62a27 27 0 0 1-6.72 1.12c-9.24 0-12.22-6.06-12.22-12.22a11.44 11.44 0 0 1 10.45-12.22h1.2a23 23 0 0 1 7.57 1.21v6.07h-3.27v-3.64a13 13 0 0 0-3.92-.56c-6.71 0-8.11 5.32-8.11 9.14a8.47 8.47 0 0 0 7.74 9.14h1.12a21 21 0 0 0 6.34-1.3Z" transform="translate(-15.919 -2.604)"/><path id="Path_1383" d="M602.67 252.4h-4.57v-2.9h8.3v21.74l8.96-7.37H612v-2.9h10.07v2.8h-2.42l-9.7 7.84 10.54 9.8h2.52v2.8h-10.08v-2.8h2.8l-9.42-9.05v9.14h3.08v2.8h-10.26v-2.8h3.35Z" transform="translate(-17.445 -1.812)"/><path id="Path_1384" d="M630.97 252.4h-4.57v-2.9h8.3v12.31a32 32 0 0 1-.47 4.3h.1a8.6 8.6 0 0 1 8.3-5.7c6.43 0 8.02 4.3 8.02 8.77s-.19 8.68-.19 12.32h3.45v2.8h-10.25v-2.8h2.98c0-3.64.2-7.47.2-11.2 0-2.33-.1-6.8-5.33-6.8-3.26 0-7 1.95-7 8.3l-.09 9.6h3.45v2.8h-10.54v-2.8h3.36Z" transform="translate(-19.344 -1.812)"/><path id="Path_1385" d="M669.78 261.3a10.86 10.86 0 0 1 11.38 10.36v1.3c0 6.72-4.2 12.88-11.38 12.88a10.85 10.85 0 0 1-11.38-10.27v-1.4c0-6.71 4.3-12.87 11.38-12.87m0 21.36c4.94 0 7.46-4.1 7.46-9.14s-2.42-9.14-7.46-9.14c-4.94 0-7.46 4.1-7.46 9.14.1 5.13 2.52 9.14 7.46 9.14" transform="translate(-21.491 -2.603)"/><path id="Path_1386" d="M688.97 252.4h-4.57v-2.9h8.3l-.19 32h3.73v2.8h-10.72v-2.8h3.36Z" transform="translate(-23.235 -1.812)"/><path id="Path_1387" d="M700.56 282.39h2.99l.18-17.63H700v-2.8h7.46c0 .93-.09 2.14-.09 2.8l-.37 2.33h.1a8.6 8.6 0 0 1 8.3-5.7 7.1 7.1 0 0 1 7.08 5.5h.1a7.9 7.9 0 0 1 7.93-5.5c6.06 0 8.02 4.3 8.02 8.78s-.19 8.67-.19 12.31h3.45v2.8h-10.16v-2.8h2.98c.1-3.82.19-7.55.19-11.38s-.75-6.72-5.04-6.72c-2.99 0-6.72 1.96-6.72 8.3v9.62h3.36v2.8h-10.26v-2.8h3.08c.1-3.82.18-7.56.18-11.38s-.74-6.72-5.03-6.72c-2.99 0-6.63 1.96-6.72 8.3v9.61h3.45v2.8h-10.26v-2.8z" transform="translate(-24.282 -2.61)"/><path id="Path_1388" d="M764.19 268.31h-3.36l-.19-3.26a8 8 0 0 0-4.1-.84c-2.33 0-5.41.74-5.41 3.63 0 2.8 2.33 3.27 5.7 3.92 5.87 1.03 8.4 2.8 8.4 6.72s-2.8 7.46-9.62 7.46a24 24 0 0 1-8.02-1.4l-.19-5.97h3.36l.19 3.45a15 15 0 0 0 5.31 1.03c2.43 0 5.42-1.03 5.42-3.92 0-2.8-2.43-3.17-4.95-3.64-6.25-1.4-9.42-2.42-9.42-7s2.52-7 9.24-7a26 26 0 0 1 7.45 1.41Z" transform="translate(-27.456 -2.617)"/><path id="Path_1389" d="M501.8 304.3h7.46c0 4.3-.18 8.49-.18 13.9 0 3.45.65 7 5.22 7 6.81 0 6.9-7.46 6.9-10.73v-7.18h-3.64v-2.9h7.47l-.2 20.53h3.27v2.8h-7c0-.93.1-2.15.1-2.8l.37-2.33a8.5 8.5 0 0 1-7.84 5.69c-6.71 0-8.3-4.3-8.3-9.6 0-4.3.1-7.85.19-11.48h-3.73z" transform="translate(-10.983 -5.489)"/><path id="Path_1390" d="M549.8 324.68h3c0-3.64.18-7.47.18-11.2 0-2.33-.1-6.8-5.32-6.8-3.26 0-7 1.95-7 8.3v9.6h3.45v2.8h-10.26v-2.8h2.99l.18-17.63h-3.82v-2.89h7.46c0 .93-.09 2.15-.09 2.8l-.37 2.33h.09a8.6 8.6 0 0 1 8.3-5.69c6.44 0 8.02 4.3 8.02 8.77s-.18 8.68-.18 12.31h3.45v2.8H549.7v-2.8z" transform="translate(-13.09 -5.435)"/><path id="Path_1391" d="M569 306.24h-4.3v-2.9h8.02l-.18 20.53h3.73v2.8h-11.2v-2.8h3.73Zm1.3-14.74a2.8 2.8 0 1 1-2.8 2.8 2.87 2.87 0 0 1 2.8-2.8" transform="translate(-15.203 -4.63)"/><path id="Path_1392" d="M577.1 304.3h9.6v2.9h-2.8l5.41 15.01.56 1.96h.1a8 8 0 0 1 .55-1.96l5.5-15.02h-3.17v-2.89h9.33v2.9h-2.52l-8.11 20.52h-3.74l-8.11-20.53H577z" transform="translate(-16.029 -5.489)"/><path id="Path_1393" d="M609.23 316.3c.09 4.75 2.23 8.86 8.86 8.86a16.5 16.5 0 0 0 7-1.78l-.1 3.18a22 22 0 0 1-7.65 1.67c-7.46 0-11.94-4-11.94-12.22 0-6.9 3.74-12.31 10.83-12.31 9.23 0 10.07 8.4 10.07 12.5Zm13.24-2.9a6.3 6.3 0 0 0-5.78-6.8h-.47a7 7 0 0 0-7 6.8Z" transform="translate(-17.934 -5.449)"/><path id="Path_1394" d="M635.31 307.07h-4.01v-2.9h7.65v1.22c-.1 2.05-.28 4-.56 6.06h.1c.93-3.45 2.14-7.65 7.92-7.65a9 9 0 0 1 2.33.37l-.37 3.36a8 8 0 0 0-2.52-.37c-4.76 0-7 4.76-7 8.86l-.18 8.77h3.91v2.8h-11v-2.8h3.27Z" transform="translate(-19.672 -5.455)"/><path id="Path_1395" d="M668.69 310.71h-3.36l-.19-3.26a8 8 0 0 0-4.1-.84c-2.33 0-5.41.74-5.41 3.63s2.33 3.27 5.7 3.92c5.87 1.03 8.4 2.8 8.4 6.72s-2.8 7.46-9.62 7.46a24 24 0 0 1-8.02-1.4l-.19-5.97h3.36l.19 3.45a15 15 0 0 0 5.31 1.03c2.43 0 5.42-1.03 5.42-3.92 0-2.8-2.43-3.17-4.95-3.64-6.25-1.4-9.42-2.42-9.42-7s2.52-7 9.24-7a26 26 0 0 1 7.46 1.4Z" transform="translate(-21.048 -5.462)"/><path id="Path_1396" d="M678.9 306.24h-4.3v-2.9h8.02l-.18 20.53h3.73v2.8h-11.2v-2.8h3.73Zm1.4-14.74a2.8 2.8 0 1 1-2.8 2.8 2.87 2.87 0 0 1 2.8-2.8" transform="translate(-22.578 -4.63)"/><path id="Path_1397" d="M688.8 303.88h3.73l.19-5.7 3.73-.18-.19 5.88h7.37v2.89h-7.46c-.1 3.92-.19 7.84-.19 11.75s0 6.25 3.64 6.25a11 11 0 0 0 4.57-1.02l-.1 2.98a13 13 0 0 1-5.21 1.12c-6.53 0-6.53-4.66-6.53-7.65s.09-10.07.18-13.43h-3.73Z" transform="translate(-23.531 -5.066)"/><path id="Path_1398" d="M710.83 316.3c.09 4.75 2.23 8.86 8.86 8.86a16.5 16.5 0 0 0 7-1.78l-.1 3.18a22 22 0 0 1-7.65 1.67c-7.46 0-11.94-4-11.94-12.22 0-6.9 3.74-12.31 10.83-12.31 9.23 0 10.07 8.4 10.07 12.5Zm13.24-2.9a6.3 6.3 0 0 0-5.78-6.8h-.47a7 7 0 0 0-7 6.8Z" transform="translate(-24.752 -5.449)"/><path id="Path_1399" d="M731.3 303.88h3.73l.19-5.7 3.73-.18-.19 5.88h7.37v2.89h-7.46c-.1 3.92-.19 7.84-.19 11.75s0 6.25 3.64 6.25a11 11 0 0 0 4.57-1.02l-.1 2.98a13 13 0 0 1-5.21 1.12c-6.53 0-6.53-4.66-6.53-7.65s.09-10.07.18-13.43h-3.73Z" transform="translate(-26.382 -5.066)"/></g></g></svg>