<svg xmlns="http://www.w3.org/2000/svg" xmlns:xlink="http://www.w3.org/1999/xlink" width="600" height="300" viewBox="0 0 600 300">
  <defs>
    <clipPath id="clip-Logo">
      <rect width="600" height="300"/>
    </clipPath>
  </defs>
  <g id="Logo" clip-path="url(#clip-Logo)">
    <rect width="600" height="300" fill="#e8eff3"/>
    <g id="Till_startsidan" data-name="Till startsidan" transform="translate(238.194 71.664)">
      <g id="Group_68" data-name="Group 68" transform="translate(2.679 128.663)">
        <path id="Path_1337" data-name="Path 1337" d="M4.068,38.854a3.693,3.693,0,0,0,.475,1.962,3.9,3.9,0,0,0,1.278,1.278,7.689,7.689,0,0,0,1.863.825q1.06.322,2.21.6,1.545.383,3.042.845A9.574,9.574,0,0,1,15.6,45.645a6.206,6.206,0,0,1,1.893,2.123,6.9,6.9,0,0,1,.724,3.36,7.788,7.788,0,0,1-.784,3.612,6.846,6.846,0,0,1-2.166,2.495A9.693,9.693,0,0,1,12,58.683a17.008,17.008,0,0,1-4.134.473,17.6,17.6,0,0,1-2.116-.131,20.777,20.777,0,0,1-2.067-.352,15.549,15.549,0,0,1-1.779-.5A6.7,6.7,0,0,1,.65,57.607v-3a12.259,12.259,0,0,0,1.61.664,17.872,17.872,0,0,0,1.848.513q.954.211,1.928.332a14.991,14.991,0,0,0,1.828.12A14.11,14.11,0,0,0,10.517,56a6.861,6.861,0,0,0,2.216-.805,4.129,4.129,0,0,0,1.51-1.539,4.88,4.88,0,0,0,.557-2.445,3.723,3.723,0,0,0-.487-1.992,4.037,4.037,0,0,0-1.3-1.3,7.7,7.7,0,0,0-1.878-.836q-1.063-.321-2.236-.6-1.55-.362-3.031-.815a9.478,9.478,0,0,1-2.643-1.257,6.07,6.07,0,0,1-1.868-2.072A6.609,6.609,0,0,1,.65,39.1a7.8,7.8,0,0,1,.741-3.532A6.934,6.934,0,0,1,3.4,33.12a8.575,8.575,0,0,1,2.915-1.429,12.97,12.97,0,0,1,3.518-.463,18.113,18.113,0,0,1,3.965.412,18.813,18.813,0,0,1,3.369,1.076v3.038a22.945,22.945,0,0,0-3.408-1.147,16.1,16.1,0,0,0-3.766-.463,9.218,9.218,0,0,0-2.623.332,5.129,5.129,0,0,0-1.848.946,3.775,3.775,0,0,0-1.093,1.489A5.088,5.088,0,0,0,4.068,38.854Z" transform="translate(-0.65 -31.228)" fill="#1d1c1a" fill-rule="evenodd"/>
        <path id="Path_1338" data-name="Path 1338" d="M16.648,55.858a8.841,8.841,0,0,0,2.574-.342,6.315,6.315,0,0,0,1.957-.966,5.624,5.624,0,0,0,1.391-1.5,7.223,7.223,0,0,0,.855-1.942A7.827,7.827,0,0,0,23.7,49.63q.079-.815.08-1.58V31.35h3.239V47.97q0,.946-.1,1.972a13.333,13.333,0,0,1-.318,1.911,10.3,10.3,0,0,1-1.132,2.757A7.716,7.716,0,0,1,23.5,56.8a9.217,9.217,0,0,1-2.912,1.449,13.6,13.6,0,0,1-3.985.523,13.693,13.693,0,0,1-3.836-.483A9.187,9.187,0,0,1,9.94,56.954,7.481,7.481,0,0,1,8,54.922,10.111,10.111,0,0,1,6.83,52.357,12.478,12.478,0,0,1,6.4,50.2a19.875,19.875,0,0,1-.129-2.234V31.35h3.24v16.7a13.854,13.854,0,0,0,.129,1.861,8.668,8.668,0,0,0,.407,1.741,6.16,6.16,0,0,0,2.315,3.078A7.357,7.357,0,0,0,16.648,55.858Z" transform="translate(16.92 -30.847)" fill="#1d1c1a" fill-rule="evenodd"/>
      </g>
      <path id="Path_1339" data-name="Path 1339" d="M26.572,46.361q2.445,3.561,4.829,7.324h.119q-.259-3.924-.258-8.008V31.35h3.259V58.272h-3.24L20.849,43.262q-2.7-3.923-4.829-7.324H15.9q.258,3.682.258,8.591V58.272h-3.24V31.35h3.22Z" transform="translate(40.36 97.816)" fill="#1d1c1a" fill-rule="evenodd"/>
      <path id="Path_1340" data-name="Path 1340" d="M23.029,55.315H36.663v2.958H19.79V31.35H35.928v2.958h-12.9V43H34.5v2.957H23.029Z" transform="translate(61.828 97.816)" fill="#1d1c1a" fill-rule="evenodd"/>
      <path id="Path_1341" data-name="Path 1341" d="M36.728,58.272h-3.24V34.308H24.6V31.35H45.611v2.958H36.728Z" transform="translate(76.868 97.816)" fill="#1d1c1a" fill-rule="evenodd"/>
      <path id="Path_1342" data-name="Path 1342" d="M13.3,63.238V14.851c0-.353.745-1.343,1.33-1.343H123.41V.041H14.628C9.166.041,0,1.966,0,14.851V63.238c0,9.135,5.6,14.811,14.628,14.811H82.184V64.584H14.628A1.518,1.518,0,0,1,13.3,63.238Z" transform="translate(0 0)" fill="#ca402b" fill-rule="evenodd"/>
      <path id="Path_1343" data-name="Path 1343" d="M110.151,22.656V71.041c0,.353-.745,1.344-1.329,1.344H.04V85.852H108.822c5.462,0,14.628-1.926,14.628-14.81V22.656c0-9.135-5.6-14.811-14.628-14.811H41.266V21.309h67.556A1.519,1.519,0,0,1,110.151,22.656Z" transform="translate(0.126 24.38)" fill="#ca402b" fill-rule="evenodd"/>
    </g>
  </g>
</svg>
