<svg xmlns="http://www.w3.org/2000/svg" xmlns:xlink="http://www.w3.org/1999/xlink" width="600" height="300" viewBox="0 0 600 300"><defs><clipPath id="clip-Logo"><path d="M0 0h600v300H0z"/></clipPath></defs><g id="Logo" clip-path="url(#clip-Logo)"><path fill="#e8eff3" d="M0 0h600v300H0z"/><g id="Till_startsidan" transform="translate(238.194 71.664)"><g id="Group_68" transform="translate(2.679 128.663)"><path id="Path_1337" fill="#1d1c1a" fill-rule="evenodd" d="M4.07 38.85a3.7 3.7 0 0 0 .47 1.97 4 4 0 0 0 1.28 1.27 8 8 0 0 0 1.86.83q1.06.32 2.21.6 1.55.38 3.05.84a10 10 0 0 1 2.66 1.29 6 6 0 0 1 1.9 2.12 7 7 0 0 1 .72 3.36 8 8 0 0 1-.79 3.61 7 7 0 0 1-2.16 2.5A10 10 0 0 1 12 58.68a17 17 0 0 1-4.13.48 18 18 0 0 1-2.12-.13 21 21 0 0 1-2.07-.36 16 16 0 0 1-1.78-.5 7 7 0 0 1-1.25-.56v-3a12 12 0 0 0 1.61.66 18 18 0 0 0 1.85.51q.95.21 1.93.34a15 15 0 0 0 1.82.12 14 14 0 0 0 2.66-.24 7 7 0 0 0 2.21-.8 4 4 0 0 0 1.51-1.54 5 5 0 0 0 .56-2.45 3.7 3.7 0 0 0-.49-2 4 4 0 0 0-1.3-1.3 8 8 0 0 0-1.87-.83q-1.07-.32-2.24-.6-1.55-.36-3.03-.81a10 10 0 0 1-2.65-1.26 6 6 0 0 1-1.86-2.07 6.6 6.6 0 0 1-.71-3.24 8 8 0 0 1 .74-3.53 7 7 0 0 1 2.01-2.45 9 9 0 0 1 2.92-1.43 13 13 0 0 1 3.51-.46 18 18 0 0 1 3.97.41 19 19 0 0 1 3.37 1.08v3.03a23 23 0 0 0-3.41-1.14 16 16 0 0 0-3.77-.47 9 9 0 0 0-2.62.34 5 5 0 0 0-1.85.94 4 4 0 0 0-1.1 1.5 5 5 0 0 0-.35 1.93" transform="translate(-.65 -31.228)"/><path id="Path_1338" fill="#1d1c1a" fill-rule="evenodd" d="M16.65 55.86a9 9 0 0 0 2.57-.34 6 6 0 0 0 1.96-.97 6 6 0 0 0 1.39-1.5 7 7 0 0 0 .86-1.94 8 8 0 0 0 .27-1.48q.08-.81.08-1.58v-16.7h3.24v16.62q0 .95-.1 1.97a13 13 0 0 1-.32 1.91 10 10 0 0 1-1.13 2.76 8 8 0 0 1-1.97 2.19 9 9 0 0 1-2.91 1.45 14 14 0 0 1-3.99.52 14 14 0 0 1-3.83-.48 9 9 0 0 1-2.83-1.34A8 8 0 0 1 8 54.92a10 10 0 0 1-1.17-2.56 13 13 0 0 1-.43-2.16 20 20 0 0 1-.13-2.23V31.35h3.24v16.7a14 14 0 0 0 .13 1.86 9 9 0 0 0 .4 1.74 6 6 0 0 0 2.32 3.08 7.4 7.4 0 0 0 4.29 1.13" transform="translate(16.92 -30.847)"/></g><path id="Path_1339" fill="#1d1c1a" fill-rule="evenodd" d="M26.57 46.36q2.45 3.56 4.83 7.32h.12q-.26-3.92-.26-8V31.35h3.26v26.92h-3.24l-10.43-15q-2.7-3.93-4.83-7.33h-.12q.26 3.68.26 8.59v13.74h-3.24V31.35h3.22Z" transform="translate(40.36 97.816)"/><path id="Path_1340" fill="#1d1c1a" fill-rule="evenodd" d="M23.03 55.32h13.63v2.95H19.8V31.35h16.14v2.96h-12.9V43H34.5v2.96H23.03Z" transform="translate(61.828 97.816)"/><path id="Path_1341" fill="#1d1c1a" fill-rule="evenodd" d="M36.73 58.27h-3.24V34.31H24.6v-2.96h21.01v2.96h-8.88Z" transform="translate(76.868 97.816)"/><path id="Path_1342" fill="#ca402b" fill-rule="evenodd" d="M13.3 63.24V14.85c0-.35.75-1.34 1.33-1.34h108.78V.04H14.63C9.17.04 0 1.97 0 14.85v48.39c0 9.13 5.6 14.8 14.63 14.8h67.55V64.59H14.63a1.5 1.5 0 0 1-1.33-1.34"/><path id="Path_1343" fill="#ca402b" fill-rule="evenodd" d="M110.15 22.66v48.38c0 .35-.74 1.34-1.33 1.34H.04v13.47h108.78c5.46 0 14.63-1.92 14.63-14.8v-48.4c0-9.13-5.6-14.8-14.63-14.8H41.27V21.3h67.55a1.5 1.5 0 0 1 1.33 1.35" transform="translate(.126 24.38)"/></g></g></svg>