<svg xmlns="http://www.w3.org/2000/svg" xmlns:xlink="http://www.w3.org/1999/xlink" width="600" height="300" viewBox="0 0 600 300">
  <defs>
    <clipPath id="clip-Logo">
      <rect width="600" height="300"/>
    </clipPath>
  </defs>
  <g id="Logo" clip-path="url(#clip-Logo)">
    <rect width="600" height="300" fill="#e8eff3"/>
    <g id="Uppsala_universitet" data-name="Uppsala universitet" transform="translate(150.4 0.4)">
      <g id="Group_69" data-name="Group 69" transform="translate(45.084 50.656)">
        <path id="Path_1344" data-name="Path 1344" d="M162.175,241.259A4.705,4.705,0,0,1,159.8,239.4c-1.135-1.754-5.055-7.428-5.674-8.46a.359.359,0,0,1,.1-.516l1.032-.31a3.96,3.96,0,0,0,2.786-2.476,7.912,7.912,0,0,0,0-4.643,4.394,4.394,0,0,0-1.96-2.579,2.906,2.906,0,0,0-1.135-.413,7.179,7.179,0,0,0-1.651-.206h-9.388a.274.274,0,0,0-.31.31c0,.206.31.206.619.31a1.827,1.827,0,0,1,.825,1.754V239.3a1.5,1.5,0,0,1-1.341,1.754c-.31,0-.413.516.1.516a32.275,32.275,0,0,1,5.468.1c.1,0,.413-.1.413-.31q0-.155-.31-.31c-.929-.31-1.341-.413-1.444-1.651v-8.15c0-.516,1.651-.31,2.373-.206.619,0,.825.516,1.135.928,2.063,2.992,3.3,4.952,4.952,7.531a4.417,4.417,0,0,0,1.857,1.548,7.881,7.881,0,0,0,3.4.825c.1,0,.309-.1.309-.206.413-.1.516-.31.206-.413ZM150.93,229.395a18.421,18.421,0,0,1-2.373-.206c-.206,0-.206-.206-.206-.516,0-3.4.1-6.4.1-6.912s.929-.413,1.444-.413c1.651,0,3.4-.206,4.436.516a3.681,3.681,0,0,1,1.238,1.651,8.483,8.483,0,0,1,.206,2.786,3.8,3.8,0,0,1-1.548,2.476,23.947,23.947,0,0,1-3.3.619Z" transform="translate(-40.54 -43.692)" fill-rule="evenodd"/>
        <path id="Path_1345" data-name="Path 1345" d="M173.1,202.991a2.848,2.848,0,0,1-1.651-1.238c-2.063-4.127-6.706-16.094-6.706-16.094-.825-1.857-1.754-4.333-2.063-4.952-.1-.413-.413-.1-.516.1-2.167,4.952-8.563,18.57-9.388,20.118a4.469,4.469,0,0,1-1.548,1.754c-.413.309-.929.206-.929.516a.329.329,0,0,0,.31.31,36.66,36.66,0,0,1,5.055-.1.329.329,0,0,0,.31-.31c0-.206-.413-.31-.619-.516a1.416,1.416,0,0,1-.413-1.341c.722-2.063,1.651-3.817,2.373-5.674a.685.685,0,0,1,.516-.413h7.738c.206,0,.206.1.206.206l1.754,4.436a5.664,5.664,0,0,1,.413,2.682c-.206.619-1.032.413-1.032.825,0,.1.1.206.31.206a37.293,37.293,0,0,1,5.881,0,.274.274,0,0,0,.31-.31c.1-.1-.1-.206-.309-.206Zm-9.182-9.595h-5.365c-.1,0-.1-.206-.1-.206,1.135-2.476,2.27-4.849,3.3-7.325.1-.1.206-.206.31-.1.413,1.032,2.579,6.6,2.786,7.015.206.619,0,.619-.929.619Z" transform="translate(-40.323 -44.937)" fill-rule="evenodd"/>
        <path id="Path_1346" data-name="Path 1346" d="M213.5,202.991a2.563,2.563,0,0,1-1.651-1.238c-2.063-4.127-6.706-16.094-6.706-16.094-.825-1.857-1.754-4.333-2.063-4.952-.1-.413-.413-.1-.516.1-2.167,4.952-8.563,18.57-9.388,20.118a5.47,5.47,0,0,1-1.548,1.754c-.413.309-.929.206-.929.516a.329.329,0,0,0,.31.31,36.66,36.66,0,0,1,5.055-.1.329.329,0,0,0,.31-.31c0-.206-.413-.31-.619-.516a1.212,1.212,0,0,1-.413-1.341c.722-2.063,1.548-3.817,2.373-5.674a.685.685,0,0,1,.516-.413h7.841c.206,0,.206.1.206.206l1.754,4.436a5.663,5.663,0,0,1,.413,2.682c-.206.619-1.032.413-1.032.825,0,.1.1.206.31.206a37.293,37.293,0,0,1,5.881,0,.274.274,0,0,0,.31-.31c0-.1-.206-.206-.413-.206Zm-9.285-9.595H198.85c-.1,0-.1-.206-.1-.206,1.135-2.476,2.27-4.849,3.3-7.325.1-.1.206-.206.31-.1.413,1.032,2.579,6.6,2.786,7.015.31.619,0,.619-.928.619Z" transform="translate(-39.043 -44.937)" fill-rule="evenodd"/>
        <path id="Path_1347" data-name="Path 1347" d="M146.623,181.513c.516.1.413.413.413.825v2.992c0,.206.1.619-.206.619-.516,0-.516-1.238-.928-1.651a5.171,5.171,0,0,0-3.611-1.651c-2.063,0-3.508,1.238-3.508,2.889,0,2.063.413,2.786,3.1,4.024,1.651.825,5.571,1.857,6.912,4.024a5.734,5.734,0,0,1,.825,3.508,7.554,7.554,0,0,1-1.651,4.436c-2.27,2.889-8.047,2.476-10.936,2.063-.413,0-.928.206-.928-.31.1-1.444,0-2.786,0-4.23,0-.413.206-.516.413-.413.206.206.206.516.31.722,1.032,1.96,2.579,2.682,5.674,2.682a4.767,4.767,0,0,0,4.643-3.1,3.321,3.321,0,0,0-.722-3.508c-1.651-2.063-4.23-2.786-6.5-3.611a5.619,5.619,0,0,1-3.611-5.674,4.967,4.967,0,0,1,2.063-3.92c2.27-1.548,5.984-1.238,8.253-.722Z" transform="translate(-40.773 -44.918)"/>
        <path id="Path_1348" data-name="Path 1348" d="M180.89,181.6c.206,0,.206.31,0,.516-.516.31-1.032.31-1.238.929a18.554,18.554,0,0,0-.31,4.127v8.253c.1,3.2-.413,4.643,1.444,6.087.722.516,4.333.413,5.262.31a3.512,3.512,0,0,0,3.1-2.063c.1-.206.206-.413.413-.413.31,0,.31.206.206.516-.1,1.032-.31,2.373-.413,3.2-.1.206-.31.516-.516.516-4.127.206-10.42-.1-13.721.1-.206,0-.413,0-.413-.31s.206-.413.413-.516c.516-.206.825-.206,1.135-.825a3.533,3.533,0,0,0,.413-1.857c.1-6.809.1-14.753-.206-16.92-.1-.619-.929-.825-1.444-1.135-.206-.1-.1-.516.206-.516.929,0,4.333.1,5.674,0Z" transform="translate(-39.55 -44.902)"/>
        <path id="Path_1349" data-name="Path 1349" d="M87.027,236.753V223.238A3.848,3.848,0,0,0,86.821,222a2.642,2.642,0,0,0-1.341-1.651c-.31-.1-.206-.516,0-.516,1.651.1,3.1,0,4.643,0,.206,0,.31.1.31.206,0,.413-.413.413-.722.722a2.52,2.52,0,0,0-.825,1.548c-.206,2.889,0,15.888,0,15.888,0,1.238,0,2.27.1,3.611,0,.413-.31.516-.413.413-.825-.825-1.754-1.651-2.786-2.786-3.611-3.3-11.452-11.142-15.063-14.444-.1-.1-.206,0-.206.1,0,0-.1,12.69.31,14.753a2.619,2.619,0,0,0,1.341,1.444.222.222,0,0,1,.206.206c0,.1-.1.206-.31.206a17.986,17.986,0,0,0-5.262,0c-.206,0-.206-.1-.206-.206,0-.516,1.135-.31,1.651-1.444.413-.929.31-19.086.31-19.086v-2.063c0-.206.206-.206.31-.1-.1-.1,16.507,16.507,18.158,17.951Z" transform="translate(-42.975 -43.726)"/>
        <path id="Path_1350" data-name="Path 1350" d="M208.286,219.7a.222.222,0,0,1,.206.206v3.611c0,.722-.516.619-.722.1a4.088,4.088,0,0,0-.619-1.341,3.351,3.351,0,0,0-2.27-1.238h-4.127c-.516,0-.722.206-.722.722-.1,6.5-.31,16.3.1,17.642a2.143,2.143,0,0,0,1.651,1.651c.31.1.413.516-.1.516h-6.19c-.516,0-.413-.516-.1-.516.619-.206,1.032-.31,1.341-.825a2.306,2.306,0,0,0,.413-1.548c0-1.032.1-12.174.1-15.888,0-1.238-.206-1.548-.413-1.651a15.473,15.473,0,0,0-5.674.206,2.234,2.234,0,0,0-1.444,2.167.274.274,0,0,1-.31.309c-.1,0-.206,0-.206-.309V219.91q0-.309.619-.31l18.467.1Z" transform="translate(-39.09 -43.698)"/>
        <path id="Path_1351" data-name="Path 1351" d="M138.389,220.116v2.476a.222.222,0,0,1-.206.206c-.31,0-.619-.928-1.135-1.238-1.651-.929-3.611-.619-5.674-.619,0,0-1.135,0-1.238.31,0,.1-.1,5.055-.1,7.531a.222.222,0,0,0,.206.206h6.6c.516,0,.722-.619.722-.722.1-.31.516-.31.516,0-.1,1.238-.1,2.476-.1,3.611,0,.1-.206.1-.31-.1a2.316,2.316,0,0,0-2.167-1.238,46.557,46.557,0,0,0-5.365.1c-.1,0-.1.1-.1.31,0,2.27-.1,4.127,0,6.5a2.515,2.515,0,0,0,.825,2.063c1.238.825,2.992.619,4.436.516,1.135,0,2.476.1,3.2-.929.413-.619.206-.928.722-1.548.1-.1.31-.1.31.1-.1,1.548-.1,1.96-.1,3.714a.2.2,0,0,1-.206.206H125.906c-.206,0-.309-.413,0-.516.722-.206,1.548-.31,1.548-1.754V232.6a76.076,76.076,0,0,0-.1-10.833c-.1-.619-.31-1.238-.929-1.444-.206-.1-.619,0-.619-.31s.1-.413.516-.413H137.77c.31,0,.619.1.619.516Z" transform="translate(-41.102 -43.698)"/>
        <path id="Path_1352" data-name="Path 1352" d="M123.168,219.7c.31,0,.413.309.206.413-.413.31-1.238.413-1.444,1.135-2.786,7.015-5.777,13.721-8.666,20.737,0,.1-.206.206-.31,0,0,0-5.571-12.174-9.8-20.737-.31-.722-1.135-.619-1.651-.929a.379.379,0,0,1-.1-.31s0-.206.31-.206c1.341,0,4.024,0,5.571-.1a.329.329,0,0,1,.31.309c-.1.516-1.238.619-.722,1.651,1.238,2.992,3.3,7.944,6.706,14.65.1.206.31-.413.413-.619,1.857-4.23,3.508-8.666,5.262-12.9.206-.413.619-1.857-.31-2.373-.206-.1-.619-.206-.619-.413,0-.1,0-.309.206-.309Z" transform="translate(-41.872 -43.695)"/>
        <path id="Path_1353" data-name="Path 1353" d="M99.392,219.7a.312.312,0,0,1,0,.619c-1.032.1-1.444.619-1.444,2.476-.1,2.27-.1,15.166-.1,15.166a5,5,0,0,0,.516,2.373c.516.722,1.341.619,1.341.928,0,.1,0,.31-.206.31a53.5,53.5,0,0,0-5.777.1c-.206,0-.206-.206-.206-.31,0-.516.722-.206,1.032-.516a1.9,1.9,0,0,0,.516-1.238c.1-8.563.206-11.658.1-17.745,0-1.238-1.548-1.444-1.96-1.651-.1-.1-.1-.516.206-.516Z" transform="translate(-42.134 -43.695)"/>
        <path id="Path_1354" data-name="Path 1354" d="M96.346,181.5c.206,0,.31.1.31.206s-.1.206-.31.309c-1.238.413-1.548,1.754-1.651,2.889v10.936A8.127,8.127,0,0,1,93.045,201a7.49,7.49,0,0,1-4.849,2.579,13.33,13.33,0,0,1-4.952.1,7.033,7.033,0,0,1-4.746-2.373c-1.341-1.341-1.651-2.889-1.754-5.262V183.98c-.1-1.135-.206-1.754-1.341-2.167-.1,0-.1-.206-.1-.31.1-.206.619-.1.929-.1h4.952a.222.222,0,0,1,.206.206c0,.206-.413.206-.619.31-1.444.722-1.032,2.167-1.135,3.611v7.531c0,2.889-.413,6.912,2.889,8.253a8.4,8.4,0,0,0,3.508.413c4.746,0,6.293-2.992,6.4-4.952.1-3.3.1-12.071-.1-12.793a3.6,3.6,0,0,0-1.857-2.167c-.1-.206,0-.413.31-.413a33.889,33.889,0,0,0,5.571.1Z" transform="translate(-42.699 -44.909)"/>
        <path id="Path_1355" data-name="Path 1355" d="M110.436,181.606c-3.3-.413-6.912,0-10.317-.1-.31,0-.619,0-.619.206,0,.413.516.309.825.413a2.467,2.467,0,0,1,1.238,2.476c0,1.238.1,11.761,0,13.825,0,1.341.206,4.024-1.444,4.539-.206.1-.516.206-.516.31s0,.206.206.206a57.261,57.261,0,0,1,5.984,0c.206,0,.206-.1.206-.31s-.516-.31-.825-.413c-.825-.413-.825-1.651-.825-2.579,0-2.579-.1-4.643-.1-6.809,0-.413.206-.516.413-.516,8.46.722,9.595-3.3,9.595-6.293,0-2.27-1.032-4.643-3.817-4.952Zm-1.754,9.8c-.722,0-2.786.1-3.817,0-.31,0-.413-.413-.413-.619a61.041,61.041,0,0,1,0-7.531c0-.413.516-.31.722-.31a19.771,19.771,0,0,1,4.333.1,2.335,2.335,0,0,1,1.548,1.032,7.4,7.4,0,0,1,.619,2.992c.206,2.476-1.444,4.23-2.992,4.333Z" transform="translate(-41.932 -44.908)" fill-rule="evenodd"/>
        <path id="Path_1356" data-name="Path 1356" d="M128.636,181.606c-3.3-.413-6.912,0-10.317-.1-.31,0-.619,0-.619.206,0,.413.516.309.825.413a2.467,2.467,0,0,1,1.238,2.476c0,1.238.1,11.761,0,13.825,0,1.341.206,4.024-1.444,4.539-.206.1-.516.206-.516.31s0,.206.206.206a57.261,57.261,0,0,1,5.984,0c.206,0,.206-.1.206-.31s-.516-.31-.825-.413c-.825-.413-.825-1.651-.825-2.579,0-2.579-.1-4.643-.1-6.809,0-.413.206-.516.413-.516,8.46.722,9.595-3.3,9.595-6.293-.1-2.27-1.032-4.643-3.817-4.952Zm-1.754,9.8c-.722,0-2.786.1-3.817,0-.31,0-.413-.413-.413-.619a61.041,61.041,0,0,1,0-7.531c0-.413.516-.31.722-.31a19.771,19.771,0,0,1,4.333.1,2.335,2.335,0,0,1,1.548,1.032,7.4,7.4,0,0,1,.619,2.992c.206,2.476-1.548,4.23-2.992,4.333Z" transform="translate(-41.356 -44.908)" fill-rule="evenodd"/>
        <path id="Path_1357" data-name="Path 1357" d="M64.746,219.907c.206,0,.31.1.31.206s-.1.206-.31.206c-1.238.413-1.548,1.754-1.651,2.889v10.936a8.127,8.127,0,0,1-1.651,5.158,7.49,7.49,0,0,1-4.849,2.579,13.33,13.33,0,0,1-4.952.1,7.033,7.033,0,0,1-4.746-2.373c-1.341-1.341-1.651-2.889-1.754-5.262V222.28c-.1-1.135-.206-1.754-1.341-2.167-.1,0-.1-.206-.1-.31.1-.206.619-.1.929-.1h4.952a.222.222,0,0,1,.206.206c0,.206-.413.206-.619.31-1.444.722-1.032,2.167-1.135,3.611v7.531c0,2.889-.413,6.912,2.889,8.253a8.4,8.4,0,0,0,3.508.413c4.746,0,6.293-2.992,6.4-4.952.1-3.3.1-12.071-.1-12.793a3.6,3.6,0,0,0-1.857-2.167c-.1-.206,0-.413.31-.413a34.774,34.774,0,0,0,5.571.206Z" transform="translate(-43.7 -43.696)"/>
        <path id="Path_1358" data-name="Path 1358" d="M174.223,219.613c.516.1.413.413.413.825v2.992c0,.206,0,.619-.206.619-.516,0-.516-1.238-.928-1.651a5.171,5.171,0,0,0-3.611-1.651c-2.063,0-3.508,1.238-3.508,2.889,0,2.063.413,2.682,3.1,4.024,1.651.825,5.571,1.857,6.912,4.024a5.734,5.734,0,0,1,.825,3.508,7.554,7.554,0,0,1-1.651,4.436c-2.27,2.889-8.047,2.476-10.936,2.063-.413,0-.928.206-.928-.31.1-1.444,0-2.786,0-4.23,0-.413.206-.516.413-.413.206.206.206.516.31.722,1.032,1.96,2.579,2.682,5.674,2.682a4.767,4.767,0,0,0,4.643-3.1,3.32,3.32,0,0,0-.722-3.508c-1.651-2.063-4.23-2.786-6.5-3.611a5.619,5.619,0,0,1-3.611-5.674,4.967,4.967,0,0,1,2.063-3.92c2.167-1.548,5.881-1.238,8.253-.722Z" transform="translate(-39.898 -43.711)"/>
        <path id="Path_1359" data-name="Path 1359" d="M185.789,219.6c.206,0,.413.516,0,.619-1.032.1-1.444.619-1.444,2.476v15.166a5,5,0,0,0,.516,2.373c.516.722,1.341.619,1.341.929,0,.1,0,.31-.206.31a53.5,53.5,0,0,0-5.777.1c-.206,0-.206-.206-.206-.31,0-.516.722-.206,1.032-.516a1.9,1.9,0,0,0,.516-1.238c.1-8.563.206-11.658.1-17.745,0-1.238-1.548-1.444-1.96-1.651-.1-.1-.1-.516.206-.516Z" transform="translate(-39.393 -43.698)"/>
        <path id="Path_1360" data-name="Path 1360" d="M224.3,220.119V222.6a.222.222,0,0,1-.206.206c-.309,0-.619-.928-1.238-1.238-1.651-.929-3.611-.619-5.674-.619,0,0-1.135,0-1.238.31,0,.1-.1,5.055-.1,7.531,0,.1.1.206.206.1h6.6c.516,0,.722-.619.722-.722.1-.309.516-.309.516,0-.1,1.238-.1,2.476-.1,3.611,0,.1-.206.1-.309-.1a2.316,2.316,0,0,0-2.167-1.238,46.557,46.557,0,0,0-5.365.1c-.1,0-.1.1-.1.31,0,2.27-.1,4.127-.1,6.5a2.515,2.515,0,0,0,.825,2.063c1.238.825,2.992.619,4.436.516,1.135,0,2.476.1,3.2-.928.413-.619.206-.929.722-1.548.1-.1.31-.1.31.1-.1,1.548-.1,1.96-.1,3.714a.2.2,0,0,1-.206.206H211.606c-.206,0-.31-.413,0-.516.722-.206,1.548-.31,1.548-1.754V232.5a76.076,76.076,0,0,0-.1-10.833c-.1-.619-.31-1.238-.929-1.444-.206-.1-.619,0-.619-.31s.1-.413.516-.413H223.47c.516.1.825.206.825.619Z" transform="translate(-38.387 -43.702)"/>
        <path id="Path_1361" data-name="Path 1361" d="M246.892,219.6a.222.222,0,0,1,.206.206v3.611c0,.722-.516.619-.722.1a4.088,4.088,0,0,0-.619-1.341,3.351,3.351,0,0,0-2.27-1.238h-4.127c-.516,0-.722.206-.722.722-.1,6.5-.31,16.3.1,17.642a2.143,2.143,0,0,0,1.651,1.651c.31.1.413.516-.206.516H234c-.516,0-.413-.516-.1-.516.619-.206,1.032-.31,1.341-.825a2.306,2.306,0,0,0,.413-1.548c0-1.032.1-12.174,0-15.888,0-1.238-.206-1.548-.413-1.651a15.473,15.473,0,0,0-5.674.206,2.234,2.234,0,0,0-1.444,2.167.274.274,0,0,1-.31.31c-.1,0-.206-.1-.206-.31V219.81q0-.309.619-.31l18.673.1Z" transform="translate(-37.874 -43.702)"/>
        <path id="Path_1362" data-name="Path 1362" d="M122.933,139.555a12.024,12.024,0,0,0-2.889-1.754c-1.135-.1-2.27,0-2.889.928a2.759,2.759,0,0,0-.206,2.682c.206.516-1.135.825-1.341,1.238-.619.722,0,1.96.516,2.373a14.763,14.763,0,0,0,1.548,1.135,10.243,10.243,0,0,0,2.786,1.444c.1,0,.413.1.516-.1.309-.413,0-.31-.31-.722-.413-.722.413-1.857.722-2.476.516-1.135.825-2.167,1.96-2.786.516-.206,1.238.206,1.444-.413-.309-.722-1.238-.825-1.857-1.548Zm-4.23,5.777c-.516.31-1.032-.516-1.444-.825a1.86,1.86,0,0,1,.206-1.032c.206-.206.722-.722,1.032-.619a4.039,4.039,0,0,0,1.032.825,4.147,4.147,0,0,1-.825,1.651Zm1.857-3.611a2.927,2.927,0,0,1-.619.929,3.245,3.245,0,0,1-1.238-.929c-.722-.825.1-1.548.206-1.96a2.841,2.841,0,0,1,2.579,0c.309.722-.825,1.341-.929,1.96Z" transform="translate(-41.43 -46.291)" fill="#bd2b30" fill-rule="evenodd"/>
        <path id="Path_1363" data-name="Path 1363" d="M139.225,105.926c-.516.206,0,1.032-.928,1.032a2.384,2.384,0,0,1-2.063-1.238c.31-.413,1.238-.516,1.238-1.651a1.877,1.877,0,0,0-1.548-2.063,8.325,8.325,0,0,0-2.786-.1c-.31.1-.929-.1-1.135.206-.1.31.31.31.516.516a23.288,23.288,0,0,1-.1,4.643c0,.413-.825.516-.413.929.31.413,1.135.1,1.548.206.206,0,.413.1.619,0,.413-.31,0-.722.1-1.032,0-.31-.413-1.341.928-.516a7.235,7.235,0,0,0,2.167,1.444c.516.1,1.548.31,1.857-.31a1.935,1.935,0,0,0,.413-1.651c-.1-.206-.206-.516-.413-.413Zm-3.714-1.032a.979.979,0,0,1-1.135.413c-.413-.206,0-1.341-.206-1.651a1.164,1.164,0,0,1,.1-.825.864.864,0,0,1,1.238.31,4.969,4.969,0,0,1,0,1.754Z" transform="translate(-40.906 -47.429)" fill="#bd2b30" fill-rule="evenodd"/>
        <path id="Path_1364" data-name="Path 1364" d="M135.3,72.9c-.31-.31-1.96.206-2.27.31-.825.619-.413,1.651-.206,2.373l-.1,2.373a8.2,8.2,0,0,1-.619,2.27c.413.413.929,0,1.444-.206.31-.206.722-.206.825-.619,0-.206-.31-.1-.413-.206a.788.788,0,0,1-.206-.516c0-.516.413-.825.825-1.135.413-.1,1.857-.929,2.27-.619a.892.892,0,0,1,.31.619c.1.413-.929.929-.1,1.135s1.96-.825,2.682-1.135v-.1c-.722-.619-.516-.1-1.135-.929a22.556,22.556,0,0,0-3.3-3.611Zm.516,3.4c-.206.1-1.651.825-1.857.619a3.991,3.991,0,0,1,0-2.682c.722-.31,1.548,1.032,1.96,1.444,0,.206,0,.516-.1.619Z" transform="translate(-40.899 -48.349)" fill="#bd2b30" fill-rule="evenodd"/>
        <path id="Path_1365" data-name="Path 1365" d="M128.38,80.443a.691.691,0,0,0-.825.31,2.856,2.856,0,0,0-.1.929,1.155,1.155,0,0,1-.722.825h-1.135a2.533,2.533,0,0,0-.413-2.682c-.516-.516-.929-.929-1.651-.722a2.291,2.291,0,0,0-2.063,1.032c-.619.619-1.548,1.135-2.167,1.754a.377.377,0,0,0,.206.516,2.1,2.1,0,0,1,1.548.619c.619.722,1.341,1.754,1.857,2.476.516.516-.206,1.135.413,1.651.1.1.413.1.516.1l1.857-1.857a.451.451,0,0,0-.516-.619.642.642,0,0,1-.619-.413c.825-.516,2.063-.206,3.1-.619A2.306,2.306,0,0,0,129,82.3a1.777,1.777,0,0,0-.619-1.857Zm-4.643,2.682c-.619,0-1.341-1.548-1.857-1.754,0-.206.516-.722.722-.825.929-.619,1.651.619,1.754,1.341.1.413-.413,1.032-.619,1.238Z" transform="translate(-41.306 -48.151)" fill="#bd2b30" fill-rule="evenodd"/>
        <path id="Path_1366" data-name="Path 1366" d="M140.685,148.3a4.409,4.409,0,0,1-1.135,2.167,5.12,5.12,0,0,1-2.27,1.341c-1.238.31-1.651-.516-2.579.516-.1.206,0,.413.206.619,1.032.516,1.341.31,2.476.31a19.066,19.066,0,0,0,2.476.1c.722-.31,1.548-.413,2.27-.722s1.857-1.238,2.682-1.135l2.27,1.135a13.948,13.948,0,0,0,4.849.413,2.306,2.306,0,0,0,1.548-1.238c0-.31.1-.619-.1-.825-.31-.31-.619,0-1.032-.1-1.238-.31-2.579-.31-3.4-1.548-.206-.31-.516-.619-.722-.928h-1.548a22.653,22.653,0,0,0,1.754,2.579c.1.206.516.31.31.516-.413.1-1.341-.619-1.754-.825-1.032-.516-2.063-2.063-3.817-1.135a5.465,5.465,0,0,0-1.032.619c-.206.1-1.135.929-1.341.825l.825-1.444a5.816,5.816,0,0,1,.413-1.238h-1.341Z" transform="translate(-40.818 -45.957)" fill="#bd2b30" fill-rule="evenodd"/>
        <path id="Path_1367" data-name="Path 1367" d="M135.7,143.4h0c1.238.206,2.579.1,3.714.413.516.516,1.444.516,1.754,1.341a1.725,1.725,0,0,1,.1,1.238c-.206.722-.413,1.341-.619,2.063H142.2a6.263,6.263,0,0,0,.516-1.857,3.163,3.163,0,0,0-.1-2.167,7.226,7.226,0,0,0-.825-1.032Zm10.936,0a5.723,5.723,0,0,0-.722,2.27,5.955,5.955,0,0,0,.929,2.682h1.548a4.1,4.1,0,0,1-.619-3.611c.413-.722,1.238-.722,1.96-.722a25.379,25.379,0,0,1,2.992-.722h-6.087Z" transform="translate(-40.785 -46.116)" fill="#bd2b30" fill-rule="evenodd"/>
        <path id="Path_1368" data-name="Path 1368" d="M116.2,133.6c0,.1.1.1,0,0,1.238,1.651,2.992,2.476,4.333,3.817,2.063,1.341,4.127,2.373,6.293,3.508a17.6,17.6,0,0,0,3.92,1.341c1.754.825,3.817.825,5.674,1.444h6.087c-.825-.825-1.96-1.651-2.373-2.063,0-.206.206-.206.413-.31.929,0,3.3,1.444,4.024.722.206-.206.413-.722.722-.619.516.825,1.651.619,2.373.516a12.511,12.511,0,0,0,1.444-.516.379.379,0,0,1,.1.31,6.05,6.05,0,0,0-1.857,2.063h6.087a17.389,17.389,0,0,0,4.643-1.444,38.288,38.288,0,0,0,5.674-2.27,45.744,45.744,0,0,0,4.746-2.992,27.427,27.427,0,0,0,3.611-3.3h-2.063a29.786,29.786,0,0,1-5.262,3.611,49.254,49.254,0,0,1-7.841,3.714c-1.548.825-3.4,1.032-5.055,1.651-.413.1-.929.1-1.135-.31-.1-.206-.206-.413,0-.619.516-.413,1.341-.309,1.651-1.135.1-.516-.413-.619-.825-.825-.722-.31-1.548.206-2.27.206a4.03,4.03,0,0,1-2.682.413,5.668,5.668,0,0,1-.929-.722v-.1a18.261,18.261,0,0,0,2.373-.1c1.444.1,2.786-.413,4.23-.413a14.763,14.763,0,0,0,6.6-1.857,28.806,28.806,0,0,0,5.984-3.4h-2.682c-1.444.825-2.889,1.754-4.436,2.476l-3.2,1.135-.929.206-7.841.825a13.779,13.779,0,0,1-2.889-.1c-1.341-.206-2.682-.31-4.024-.619-4.436-.619-8.872-1.548-12.587-3.92h-2.682A17.177,17.177,0,0,0,129.2,136.9a46.443,46.443,0,0,0,6.5,1.754,80.327,80.327,0,0,0,8.872,1.032l.1.1c-.929.31-.929,2.063-2.167,1.444-1.238-.413-2.167-.929-3.4-1.444-.619,0-1.651-.31-1.96.31a2.617,2.617,0,0,0-.206,1.238.377.377,0,0,0,.516.206c.206-.31.722-.1,1.032,0a.62.62,0,0,1,.1.413c-.928.619-2.167.1-3.3.1a29.9,29.9,0,0,1-4.333-1.238,27.559,27.559,0,0,0-2.682-.928,64.826,64.826,0,0,1-5.881-3.2,22.526,22.526,0,0,1-3.714-2.682L116.2,133.6Z" transform="translate(-41.403 -46.423)" fill="#bd2b30" fill-rule="evenodd"/>
        <path id="Path_1369" data-name="Path 1369" d="M105.7,114.109c.516,1.754,1.135,3.508,1.754,5.262.825,1.341,1.135,2.992,1.96,4.333a117.71,117.71,0,0,0,7.119,10.523h2.682a17.562,17.562,0,0,1-3.4-3.92,40.456,40.456,0,0,1-5.571-9.182c-.413-1.135-1.135-2.167-1.444-3.3-.516-1.238-.929-2.476-1.341-3.714Zm5.055,0,.619,2.167c.516,1.651,1.341,3.1,1.754,4.746.825,2.476,2.786,4.539,4.333,6.706a34.808,34.808,0,0,0,4.643,4.952c.722.516,1.444,1.135,2.167,1.651h2.682a13.44,13.44,0,0,1-1.548-1.032,27.589,27.589,0,0,1-5.777-5.158,42.48,42.48,0,0,1-3.3-4.23,19.356,19.356,0,0,1-2.167-3.714,24.341,24.341,0,0,1-1.548-5.984l-1.857-.1Zm9.079,0c.619,1.135,1.238,2.167,1.857,3.3,1.032,1.857,2.786,3.4,4.127,5.158,1.032,1.032,2.167,1.96,3.2,2.889,3.1,2.476,6.706,3.611,10.317,4.849a24.247,24.247,0,0,0,6.19.929,34.115,34.115,0,0,0,5.674-.619,4.267,4.267,0,0,0,1.96-.516c1.548-.1,2.786-1.135,4.23-1.548,1.651-.722,3.1-1.754,4.746-2.476,1.857-1.341,3.3-3.4,4.952-5.055.722-1.444,2.167-2.579,2.786-4.127.413-.929,1.032-1.857,1.444-2.786h-1.651a17.573,17.573,0,0,1-1.548,2.27c-.722.1-1.135-.619-1.651-1.032a15.44,15.44,0,0,1-1.135-1.341h-2.167c.825.825,1.651,1.651,2.579,2.476.516.722,1.341,1.548.722,2.476-.722,1.548-2.27,2.579-3.4,3.714a.8.8,0,0,1-.825.206c-1.032-1.754-1.857-3.611-2.786-5.468a18.1,18.1,0,0,1-1.135-2.476,9.077,9.077,0,0,1-.619-1.032h-1.651c.206.516.516,1.032.722,1.444.825,1.341,1.238,2.786,1.96,4.23.825,1.341,1.548,2.682,2.476,3.92a.469.469,0,0,1,0,.516,10.465,10.465,0,0,1-3.3,1.857,6.923,6.923,0,0,1-2.889.619.654.654,0,0,1-.516-.619c-.619-3.2-.619-6.6-1.238-9.8-.1-.722-.1-1.548-.206-2.27h-3.817l.413.31c.825.722,1.96,1.341,1.96,2.579.413,1.341.619,3.3-.31,4.539a6.507,6.507,0,0,1-3.1,3.714,6.228,6.228,0,0,1-5.571,0c-2.063-1.238-2.992-5.881-2.063-7.841a7.463,7.463,0,0,1,2.889-3.1h-3.508a9.017,9.017,0,0,0-2.889,6.4l-.31,2.373c-.722.825-.825,1.96-1.651,2.786-1.135.206-1.96-.619-2.786-1.238a1.865,1.865,0,0,1-.206-2.167c.619-1.548,1.857-2.889,2.476-4.539.722-1.135,1.135-2.476,1.857-3.611H135a38.476,38.476,0,0,1-2.063,4.127c-.619.825-.825,1.754-1.341,2.579-.516.516-.516,1.548-1.444,1.651a7.983,7.983,0,0,1-3.611-2.786c-.31-1.341.619-2.27,1.238-3.3.619-.722,1.135-1.444,1.651-2.167h-1.857a16.438,16.438,0,0,1-1.341,1.341c-.619.31-.929,1.135-1.651.825a7.95,7.95,0,0,1-1.444-2.167Zm58.7,0c0,.206-.1.31-.1.516a37.306,37.306,0,0,1-1.341,3.611,17.855,17.855,0,0,1-1.857,3.714,31.808,31.808,0,0,1-3.1,4.23l-1.548,1.754c-1.444.929-2.579,2.476-4.024,3.508a22.133,22.133,0,0,1-2.476,1.857l-1.548.929h2.682c1.135-.722,2.063-1.651,3.2-2.373,2.167-2.579,5.158-4.643,6.912-7.531a29.494,29.494,0,0,0,4.127-7.738,25.2,25.2,0,0,0,1.032-2.476Zm4.539,0c-.206.413-.31.929-.516,1.341a38.417,38.417,0,0,1-3.4,7.222,63.957,63.957,0,0,1-4.539,7.119,43.047,43.047,0,0,1-3.817,3.714l-.619.619h2.063c.825-.825,1.548-1.651,2.373-2.373.722-1.032,1.548-1.96,2.373-2.992a33.4,33.4,0,0,0,3.4-5.365c.619-1.135,1.238-2.167,1.754-3.3a21.7,21.7,0,0,0,2.27-6.087l-1.341.1ZM138.4,124.426c.619,1.444,2.167,1.857,3.4,2.476a27.106,27.106,0,0,0,3.1.825c.309.1.206.413.206.619-.31.825-1.444.309-2.167.413-1.238-.413-2.579-.516-3.714-1.032a6.032,6.032,0,0,1-2.889-1.238c-.206-.1-.1-.31,0-.516a7.447,7.447,0,0,1,.928-2.063c.1-.206.31-.516.31-.516l.825,1.032Zm14.34-1.341c.1,1.444.413,2.786.516,4.23a.885.885,0,0,1-.619.722,7.275,7.275,0,0,1-2.579.619c-.929,0-1.96.413-2.786,0a.939.939,0,0,1,.1-1.238c.929-.825,2.27-.825,3.2-1.857a10.864,10.864,0,0,0,1.857-2.579c0-.31.309-.1.309.1Z" transform="translate(-41.736 -47.05)" fill="#bd2b30" fill-rule="evenodd"/>
        <path id="Path_1370" data-name="Path 1370" d="M104.7,109.206a39.864,39.864,0,0,0,1.032,5.055h1.754c-.516-1.651-.929-3.4-1.341-5.055Zm4.952,0c0,.206.1.413,0,.619-.206.619.722,2.373.825,2.992l.413,1.341h1.754c0-.206,0-.31-.1-.413a26.969,26.969,0,0,1-.619-2.786c.206-.929,1.238-.413,1.857-.516.619,0,1.135-.31,1.754-.31,1.032.1,2.579-.413,2.992.825a17.461,17.461,0,0,0,1.341,3.2h3.1a9.212,9.212,0,0,1-.619-2.063c.1-.413.1-1.032.619-1.135,1.135-.516,2.889.206,4.127,0l1.032.1a2.163,2.163,0,0,1,1.135.413c0,.619-.619,1.032-.825,1.548-.413.413-.722.825-1.135,1.238h1.857c.619-.722,1.135-1.548,1.857-2.27a4.905,4.905,0,0,1,4.746-.929c.206.1.206.31.206.516-.1.619-.619,1.135-.825,1.857a3.089,3.089,0,0,1-.413.825h1.444c.1-.1.206-.31.31-.413a7.374,7.374,0,0,1,2.167-2.889,2.889,2.889,0,0,1,3.4.825c.31.206.516-.206.825-.31a2.084,2.084,0,0,1,1.754,0,.833.833,0,0,0,.928.413c.722,0,1.135-.516,1.857-.722a4.916,4.916,0,0,1,2.992.206,5.476,5.476,0,0,1,.619,1.96,1.309,1.309,0,0,1-.1.619c-.516.206-.413-.31-1.238-.619,0,0-1.341-.619-1.857-.825-.929-.413-2.167-.1-3.2-.1-1.444.413-3.1.516-4.333,1.444a1.424,1.424,0,0,1-.413.31h3.508a3.328,3.328,0,0,1,1.857-.619,8.785,8.785,0,0,1,3.714.516l.206.1h3.817c0-.413-.1-.722-.1-1.135a2.322,2.322,0,0,1,.1-1.444,1.2,1.2,0,0,1,1.754.206,17.642,17.642,0,0,1,1.341,2.373h1.651a4.193,4.193,0,0,1-.825-1.96c0-.31.309-.516.516-.619a14.49,14.49,0,0,1,2.992,0l.722.31,2.167,2.167h2.167a14.083,14.083,0,0,0-1.754-1.754c-.31-.31-.722-.722-.722-1.135l.31-.206c1.96-.1,4.024-.619,5.984-.1l.722.31.206.31a3.934,3.934,0,0,1-.413,2.682h1.651a6.311,6.311,0,0,0,.516-1.238,12.661,12.661,0,0,1,1.238-2.682,17.182,17.182,0,0,1,4.024-.413H179.6c.31.31.1.825,0,1.238-.206,1.032-.516,1.96-.825,2.992h1.96c.413-1.238.619-2.476,1.135-3.714a1.853,1.853,0,0,0,.413-1.341h-72.63Zm74.694,0v.206a23.784,23.784,0,0,1-1.135,4.849h1.548c.1-.31.1-.516.206-.825.31-1.341.516-2.786.722-4.23Z" transform="translate(-41.767 -47.202)" fill="#bd2b30" fill-rule="evenodd"/>
        <path id="Path_1371" data-name="Path 1371" d="M104,104.413c.1,1.651,0,3.3.619,4.643v.31h1.548a6.576,6.576,0,0,1-.206-.722c-.1-.413-.31-.929.1-1.341.516-.31,1.032.929,1.548.413.31-.516,1.238-1.135,1.444-.516.206.722.413,1.548.516,2.063H182a5.554,5.554,0,0,0,.1-1.135c0-.206,0-.516.206-.619.31-.206.722.31,1.135.31.413.1.825-.206,1.135-.1.206.31-.206,1.135-.31,1.548h1.341a16.02,16.02,0,0,1,.413-2.167,8.884,8.884,0,0,0,.31-2.889h-1.857c.1,0,.1.1.206.1l.1.516a.99.99,0,0,1-.206.929,1.227,1.227,0,0,1-1.135.413c-.413,0-.825-.516-1.032-.825-.1-.206.206-1.032.31-1.238h-2.373a19,19,0,0,1,.309,3.4c-.1.31-.516.413-.825.516-.619.206-1.341-.1-1.96,0a41.393,41.393,0,0,1-6.19.206,29.148,29.148,0,0,0-2.992.206,28.565,28.565,0,0,1-3.1.31c-.929-.1-1.857.1-2.786,0a23.272,23.272,0,0,0-4.643,0c-2.476-.206-5.055,0-7.634-.1-1.444-.206-2.992.1-4.539,0-2.27-.206-4.643.1-6.912,0-3.714-.1-7.531,0-11.348-.1-1.651,0-2.992-.516-4.643-.31-2.579-.206-5.262-.1-7.634-.722-1.032.1-2.063,0-3.1.1-.31,0-.31-.31-.413-.516-.206-1.032-.619-2.063-.825-3.1h-2.579a1.122,1.122,0,0,1,.1.516l-.619.825c-.31.31-.929.206-1.341.206-.31,0-.413-.31-.619-.516a1.744,1.744,0,0,1-.206-.929H104Z" transform="translate(-41.79 -47.361)" fill="#bd2b30" fill-rule="evenodd"/>
        <path id="Path_1372" data-name="Path 1372" d="M104.209,99.5a32.631,32.631,0,0,0-.31,3.3,9.44,9.44,0,0,1,.1,1.754h1.857v-.516c.1-.1.31-.619.516-.619a3.312,3.312,0,0,1,1.444.1c.31.1.619.619.825,1.032h2.579a4.681,4.681,0,0,1,.1-2.373,1.179,1.179,0,0,1,.825-.722c2.579,0,5.158-.1,7.738,0,.516-.206,1.135.1,1.651-.1,1.857-.31,3.714.1,5.674.1,1.754-.31,3.3.516,5.158.413,1.548-.516,3.508-.206,5.158-.206a8.408,8.408,0,0,1,2.786,0,9.6,9.6,0,0,0,2.992-.1,52.155,52.155,0,0,0,5.674-.206c.516-.1,1.032.1,1.548,0,1.548-.1,2.889,0,4.436-.206,2.476.206,5.055,0,7.428.206a9.125,9.125,0,0,1,2.373,0c3.508-.31,7.325-.31,10.833-.31,1.135-.206,2.373-.1,3.508-.206a1.664,1.664,0,0,1,.929.31,7.307,7.307,0,0,1,.516,2.682v.619h2.373a1.555,1.555,0,0,1,1.754,0h1.857a2.856,2.856,0,0,1,.1-.929c-.1-1.341-.1-2.786-.309-4.127h-1.444c.206,1.754.413,3.714.413,3.714a2.644,2.644,0,0,0-.928-.413c-.413,0-1.341.619-1.444.516a15.109,15.109,0,0,0-.206-2.992,1.943,1.943,0,0,1-.206-.825H178.7c-.1,0-.206.1-.31.1-.929.1-1.857.1-2.682.206a25.092,25.092,0,0,0-2.786,0l-.1-.1V99.4h-1.341v.206c-.31.413-.825.31-1.238.31-.31,0-.516-.206-.825-.31l-1.238-.1c-.1,0-.206-.1-.31-.1h-1.857a3.135,3.135,0,0,1,.722.516c.1.206-.206.206-.31.31-.929-.1-1.857-.1-2.786-.206a4.42,4.42,0,0,0-1.651-.516.36.36,0,0,1-.206-.1h-1.651a2.586,2.586,0,0,0,.722.413.773.773,0,0,1-.516.1,16.87,16.87,0,0,1-2.27-.206c-.206-.1-.516-.206-.722-.31h-2.889v.1a1.743,1.743,0,0,1-1.032.31,1.387,1.387,0,0,1-.928-.206c-.1-.1-.1-.206-.206-.206h-1.857c-.1.206-.206.413-.516.413a2.178,2.178,0,0,1-1.032-.413H147.54v.31c-.1.31-.413.206-.619.31-.31,0-.516-.31-.619-.619h-1.135a1.006,1.006,0,0,1-.413.929c-.31,0-.722.1-.825-.206a.758.758,0,0,1-.206-.619h-1.135a1.312,1.312,0,0,1-.722.929,2.7,2.7,0,0,1-1.548-.206.314.314,0,0,1,0-.413c.1-.1.1-.206.206-.31H139.08c-.1.1-.1.206-.206.31-.413.619-1.238.206-1.754.31-.206,0-.1-.31-.1-.413a.36.36,0,0,1,.1-.206h-1.444c-.1.1-.206.31-.413.413a5.614,5.614,0,0,1-3.2.31c-.206-.1-.31-.31-.1-.516.1-.1.206-.1.31-.206h-3.3a5.985,5.985,0,0,1-3.3,0h-7.634c-.206.1-.619,0-.825.1a9.045,9.045,0,0,1-2.889,0,5.023,5.023,0,0,1-1.238-.1h-3.508c-.206.929-.31,1.754-.516,2.579-.31.206-.619-.206-.929-.31-.31-.31-.619-.722-1.135-.516-.31.1-.619.1-.825.413-.1,0-.206,0-.31-.206a12.7,12.7,0,0,1,.206-2.063h-1.857Z" transform="translate(-41.793 -47.506)" fill="#bd2b30" fill-rule="evenodd"/>
        <path id="Path_1373" data-name="Path 1373" d="M105.129,94.6a11.368,11.368,0,0,0-.206,1.857,5.1,5.1,0,0,0-.516,2.476c-.1.206-.1.413-.206.619h1.754c.206-1.341.516-2.682.722-3.92.1-.31.206-.722.31-1.032Zm5.262,0c-.206,1.032-.413,2.167-.516,3.2l-.31,1.857h3.508a6.3,6.3,0,0,1-1.341-.31,1.227,1.227,0,0,1-.413-1.135,10.206,10.206,0,0,1,.619-3.611Zm9.285,0c-.619,1.548-.929,3.3-1.548,4.849,0,.1-.1.1-.206.206h7.531c-.206-.1-.1-.31,0-.516,1.651-1.341,3.714-1.754,5.571-2.682,1.135-.31,2.063-1.135,3.2-1.444a3.664,3.664,0,0,0,.929-.413h-2.27a7.163,7.163,0,0,1-1.341.516,42.316,42.316,0,0,0-4.952,2.167c-1.341.516-2.476,1.548-4.024,1.341a.377.377,0,0,1-.206-.516c1.341-1.135,3.1-1.444,4.643-2.167.516-.206,1.754-.722,3.2-1.341h-3.3a17.35,17.35,0,0,1-4.127,1.135c-.206-.1-.516-.206-.516-.516a1.309,1.309,0,0,1,.1-.619Zm17.642,0a9.073,9.073,0,0,1-1.032.619c-2.063,1.651-4.436,2.682-6.706,4.127a5.03,5.03,0,0,1-.722.31h3.3c1.857-1.238,3.508-2.992,5.365-4.333.31-.413.722-.516.928-.722Zm2.476,0h0a9.69,9.69,0,0,0-1.238,1.857,41.22,41.22,0,0,1-2.786,3.2h1.444a14.155,14.155,0,0,1,1.651-1.857c.413-.619.928-1.135,1.341-1.857a.938.938,0,0,0,.413-.825c0-.206-.1-.206-.206-.31-.1,0-.206-.1-.31-.1h-.31Zm2.27,0a5.09,5.09,0,0,0,3.714.516c.31.206.825-.1,1.032.31a7.819,7.819,0,0,0,.619,1.651c-.206.929.31,1.651.206,2.476h1.341l-.1-.1a17.062,17.062,0,0,1-.722-3.3,3.7,3.7,0,0,1-.413-1.135c.31-.206.516.1.619.31.619,1.341,2.063,2.476,1.96,4.127v.1h1.651c-1.135-1.548-1.96-3.2-2.992-4.746-.1-.1,0-.206.1-.31h-7.015Zm7.634,0c.206.1.206.516.619.619.722.619,1.548,1.444,2.27,2.167.619.619,1.135,1.341,1.754,1.96a.36.36,0,0,0,.1.206h2.889a24.685,24.685,0,0,1-2.167-1.341c-1.444-1.135-2.579-2.682-4.024-3.714l-1.444.1Zm2.579,0c1.238.516,2.063,1.548,3.3,2.167,1.135.825,2.476,1.135,3.4,2.167.31.206.619.516.929.722h1.651a25.541,25.541,0,0,1-4.024-2.786c-1.341-.206-2.27-1.341-3.4-2.063-.1,0-.1-.1-.206-.1l-1.651-.1Zm3.611,0a1.743,1.743,0,0,0,.516.206,10.188,10.188,0,0,1,2.889,1.238c.619.206,1.135.825,1.754,1.135,1.135.722,2.579.516,3.611,1.651a2.926,2.926,0,0,0,1.135.825h1.857c-.516-.31-.825-.825-1.341-1.032a2.671,2.671,0,0,1-1.135-.722c-.825-.1-1.341-.722-2.063-.929a20.621,20.621,0,0,0-2.167-1.032,10.93,10.93,0,0,0-2.063-1.238l-2.992-.1Zm4.436,0c.1,0,.206.1.31.1l.619.1c.413.516,1.238.31,1.754.619a9.082,9.082,0,0,1,2.786,1.032,34.806,34.806,0,0,1,3.508,1.032c.619.516,1.444.929,1.96,1.444a1.756,1.756,0,0,1,.1.722H172.7a6.239,6.239,0,0,0-.929-3.4l-.619-1.548H168.99c.516.413.516.929.619,1.548a.567.567,0,0,1-.516.31c-1.857-.31-3.4-1.341-5.262-1.857h-3.508Zm18.364,0,.309.619c.206,1.238,1.032,2.27,1.032,3.508-.1.722-.929.619-1.548.825H182.3a4.434,4.434,0,0,0-.206-1.238c-.31-1.238-.619-2.579-1.032-3.817h-2.373Zm5.055,0a18.581,18.581,0,0,1,.619,3.3c.1.413.206,1.032.31,1.754h1.444a25.205,25.205,0,0,0-.722-4.024c-.1-.31-.1-.619-.206-.929l-1.444-.1Zm-43.124,5.055a25.937,25.937,0,0,0,2.063-2.992c.31-.516-.206-.722-.31-1.135-.206-.1-.31-.206-.516-.206a5.473,5.473,0,0,0-.825,1.754,19.844,19.844,0,0,1-1.754,2.682l1.341-.1Zm3.3,0a1.913,1.913,0,0,1,.206-.722,16.031,16.031,0,0,0,.516-2.373.685.685,0,0,0-.413-.516c-.31,0-.722,0-.825.31-.413.516-.1,1.238-.206,1.754-.206.413-.206,1.032-.413,1.548Zm2.476,0a.1.1,0,0,0-.1-.1,7.678,7.678,0,0,1,.206-2.682.864.864,0,0,0-.619-.825c-.31,0-.516,0-.619.31-.1.516-.31,1.135.1,1.548a3.868,3.868,0,0,1-.1,1.135c0,.206.1.31.1.516l1.032.1Z" transform="translate(-41.783 -47.662)" fill="#bd2b30" fill-rule="evenodd"/>
        <path id="Path_1374" data-name="Path 1374" d="M105.925,91.6v.1c-.206,1.032-.516,1.96-.825,2.992h1.754c.1-.619.31-1.341.413-1.96l.413-1.135Zm5.158,0c-.1.413-.206.722-.31,1.135a14.607,14.607,0,0,1-.413,2.063h1.548a28.937,28.937,0,0,0,.929-3.2Zm10.214,0a13.661,13.661,0,0,1-1.238,2.063,4.311,4.311,0,0,0-.413,1.032h2.682c.1-.1.206-.31.31-.413.619-.206,1.135-.619,1.857-.825,1.96-.1,6.19-1.341,8.46-1.96H127.8a32.05,32.05,0,0,1-3.3.413c-.31-.1-.619-.1-.929-.206,0-.1,0-.206.1-.206l-2.373.1Zm14.959,0a8.4,8.4,0,0,1-.928.206,78.195,78.195,0,0,0-8.253,2.889h3.2c2.167-.929,4.849-1.96,5.571-2.27.206-.206,1.444-.619,1.857-.929l-1.444.1Zm2.786,0a3.758,3.758,0,0,0,1.651,2.373,10.31,10.31,0,0,1,1.444.825h8.872l-.1-.1a.848.848,0,0,1-.413-.619q0-.155.31-.31c.516,0,.722.619,1.238.825.1,0,.206.1.31.1H154.1a13.154,13.154,0,0,0-2.579-1.548c-.206-.1-.413-.31-.206-.619a4.82,4.82,0,0,1,.516-1.032H150.8a3.373,3.373,0,0,1-1.135,1.548,5.351,5.351,0,0,1-2.27.722,5.724,5.724,0,0,1-4.952-1.238,2.745,2.745,0,0,1-1.135-1.032l-2.27.1Zm16.713,0,.928.31c1.754.516,3.611.516,5.365,1.135,1.341.206,2.579.722,3.817.929,1.032.31,2.063.516,3.1.722l.1.1h2.167a6.178,6.178,0,0,0-.825-1.651,5.227,5.227,0,0,0-.722-1.548h-1.651a4.74,4.74,0,0,1,.722,1.651c-.1.206-.206.31-.413.31a22.406,22.406,0,0,1-2.476-.722,22.377,22.377,0,0,0-3.611-.722,10.883,10.883,0,0,1-1.96-.516Zm21.665,0c.413,1.032.722,2.167,1.135,3.1h2.373a16.155,16.155,0,0,0-1.238-3.1Zm5.365,0c.31,1.032.619,2.063.929,3.2h1.444c-.31-1.032-.722-2.063-1.135-3.1h-1.238Zm-47.664,3.1a24.678,24.678,0,0,1,2.167-1.341c.413-.206,0-.825-.31-.722-1.444.516-2.682,1.444-4.127,2.063Zm3.4,0c.1-.1.206-.206.1-.413-.206-.206-.516-.31-.619-.1a1.851,1.851,0,0,1-.722.516Zm1.548,0c-.1,0-.206-.1-.31,0Zm18.673,0c-.1,0-.1-.1-.206-.1a8.509,8.509,0,0,1-2.682-1.032,13.286,13.286,0,0,1-2.167-.619c-.206,0-.619-.1-.619.206.1.825.928.619,1.444.929a3.178,3.178,0,0,1,1.238.516l2.992.1Zm5.158,0h0c-1.548-.516-2.992-.929-4.436-1.341a13.329,13.329,0,0,1-3.611-1.032.969.969,0,0,0-.928.1c-.1.1-.206.31-.1.413.619.619,1.651.413,2.373.825,1.032.413,2.167.722,3.2,1.032Z" transform="translate(-41.755 -47.757)" fill="#bd2b30" fill-rule="evenodd"/>
        <path id="Path_1375" data-name="Path 1375" d="M107.138,88.5a17.113,17.113,0,0,0-1.238,3.2h1.754l.619-1.651c.31-.516.516-1.032.825-1.548Zm4.952,0a29,29,0,0,0-1.032,3.2h1.651a10.081,10.081,0,0,1,1.135-3.1l-1.754-.1Zm11.555,0c-.206.206-.413.516-.619.722a4.775,4.775,0,0,0-1.341,1.857,2.158,2.158,0,0,0-.413.619h2.373a4.193,4.193,0,0,1,.929-1.032c.413-.516,10.626-.413,10.833-1.341.31-.516-9.9.206-8.976-.722h0l-2.786-.1Zm15.166,0v.413a5.829,5.829,0,0,0,.206,2.682h2.167a10.742,10.742,0,0,1-.619-1.651,4.01,4.01,0,0,1,.206-1.548l-1.96.1Zm3.4,0a.536.536,0,0,0-.206.413c-.206.31-.206.929-.722.825-.413-.413-.1-.825.1-1.238h.825Zm1.548,0a.773.773,0,0,1-.516.1l-.1-.1Zm2.682,0c-.1.413-.31.722-.413,1.135a.62.62,0,0,1-.413.1,5.442,5.442,0,0,1-.31-1.238Zm2.579,0h0a1.083,1.083,0,0,1-.516.929c-.413-.1-.1-.722-.619-.825-.413-.206-.413.619-.825.1-.1-.1-.1-.1-.1-.206Zm.929,0c.1.31.1.619.31.825.206.1.722,0,.722.413a6.007,6.007,0,0,1-.31,1.96h1.032a1.913,1.913,0,0,0,.206-.722c.31-.413.722,0,.928.1a28.856,28.856,0,0,0,2.889.619h4.539c-.413-.1-.929-.206-1.444-.31a8.95,8.95,0,0,0-2.889-.516c-1.341-.31-2.992-.31-3.92-1.548a.455.455,0,0,1,.413-.619c1.238,0,2.476-.1,3.714-.206Zm9.388,0a5.883,5.883,0,0,1,1.341.1l1.444-.1h-2.786Zm5.365,0a5.178,5.178,0,0,1,1.238.206c.1.1.413.31.413.619a14.035,14.035,0,0,1-4.643.1c-.929.1-1.857,0-2.889.1-.722.206-1.651-.516-2.063.31,0,.206,0,.413.31.516a26.425,26.425,0,0,0,4.024.31,13.756,13.756,0,0,1,2.063,0c1.651,0,3.611-.619,4.746.929,0,.1.1.1.1.206h1.651c-.31-.516-.722-1.032-1.032-1.548-.516-.516-.928-1.032-1.444-1.548l-2.476-.206Zm11.452,0,.31.929a8.757,8.757,0,0,1,.928,2.27h2.27a.379.379,0,0,1-.1-.31,15.115,15.115,0,0,0-1.444-2.889Zm5.365,0c.413.929.825,1.96,1.238,2.889,0,.1,0,.1.1.206H184.1c-.413-1.032-.825-2.063-1.238-3.2l-1.341.1ZM132.93,91.7a1.122,1.122,0,0,1,.516-.1c.309-.413,4.024-.413,3.817-1.238-.1-.206-7.119.825-7.841,1.032-.516.1-1.032.206-1.651.31Zm4.643,0c0-.1.1-.1,0,0,0-.413-.722-.206-1.341,0Z" transform="translate(-41.729 -47.855)" fill="#bd2b30" fill-rule="evenodd"/>
        <path id="Path_1376" data-name="Path 1376" d="M109.163,84.8a33.384,33.384,0,0,0-2.063,3.714h1.96a18.823,18.823,0,0,1,2.063-3.714Zm5.158,0c-.31.413-.516.722-.825,1.135a13.154,13.154,0,0,0-1.548,2.579H113.7c.1-.1.1-.206.206-.413.619-1.135,1.341-2.27,2.063-3.4l-1.651.1Zm13.206,0c-.31.206-.516.413-.825.619a29.216,29.216,0,0,0-3.1,3.1h2.682c.825-.722,2.27-.413,3.4-.413l5.055.206a9.943,9.943,0,0,0,2.476,0c.206-.206.516,0,.516-.31,0-.413-1.135-.1-1.754-.413a29.046,29.046,0,0,0-4.23-.206,19.293,19.293,0,0,1-3.508-.31c-.1-.1-.413-.206-.206-.413,1.032-1.135,6.087-.1,7.119-.206.1,0,.206-.206.206-.31,0-.31-3.1-.722-4.23-1.238l-3.611-.1Zm7.428,0a9.682,9.682,0,0,0,1.548.619l.825.31c.619.413,1.444.413,2.063.825.413.722-.413,1.238-.516,1.96h1.857c.206-.619.516-1.135.722-1.651a6.9,6.9,0,0,1,2.063-2.167h-2.682c-.413.413-.825,1.032-1.444.825a10.308,10.308,0,0,1-1.444-.825l-2.992.1Zm13.515,0c.206.1.516.31.722.413a7.1,7.1,0,0,1,1.341,1.135c.206.1.1.413.1.619-.31.31-1.032.413-.928.929a6.575,6.575,0,0,1,.206.722H162.6a13.756,13.756,0,0,1,2.063,0h2.476l-1.238-1.548c-.825-.619-1.444-1.548-2.167-2.167h-2.063a27.658,27.658,0,0,0-2.786.722l-1.96.1a10.046,10.046,0,0,0-2.476.206,21.956,21.956,0,0,0-2.786.825c-.619-.206-.206-.929-.619-1.341-.1-.206,0-.31,0-.516l-2.579-.1Zm4.333,0c-.1,0-.206.1-.413.206a.379.379,0,0,0-.1.31.87.87,0,0,0,.722.206c.516-.206,1.032-.516,1.548-.722Zm21.356,0,.928,1.341c.31.825.722,1.651,1.032,2.373h2.063l-.1-.1a22.833,22.833,0,0,0-1.651-3.611Zm5.365,0a7.986,7.986,0,0,1,.722,1.651,21.832,21.832,0,0,1,1.135,2.167h1.341c-.1-.206-.1-.31-.206-.516a19.259,19.259,0,0,1-1.548-3.3ZM141.249,88.62a.782.782,0,0,0,.206-.413c.206-.1.825-.31.825.1,0,.1-.1.206-.206.31Zm1.857,0c-.31-.31-.31-.825-.722-.929-.206,0-.516.1-.619-.1a.314.314,0,0,1,0-.413,2.8,2.8,0,0,1,1.651-.31l.206.31a1.3,1.3,0,0,1,.31,1.341.1.1,0,0,1-.1.1Zm2.27,0a.379.379,0,0,0-.1-.31c-.1-.413-.619-.825-.413-1.238.1-.1.1-.206.309-.206.619-.1.929.619,1.238,1.032a1.756,1.756,0,0,1,.1.722Zm1.651,0c-.1-.206,0-.413,0-.619a1.019,1.019,0,0,1,.722-.722c.31-.1.619.1.928.31a1.325,1.325,0,0,1,.413,1.032Zm11.452-2.167c.929-.206,1.754-.413,2.579-.619.722,0,1.548-.413,2.167.1.516.31,1.135.619,1.032,1.341a2.8,2.8,0,0,1-2.063.413c-3.1-.1-5.984.206-9.079.206l-1.341.1a.412.412,0,0,1-.206-.413c.619,0,1.032-.516,1.651-.516a6.088,6.088,0,0,1,1.444-.206l2.27-.31,1.548-.1Z" transform="translate(-41.691 -47.972)" fill="#bd2b30" fill-rule="evenodd"/>
        <path id="Path_1377" data-name="Path 1377" d="M112.508,80h0c-.619,1.135-1.651,2.063-2.27,3.2L109,85.059h1.96c.1-.1.206-.31.31-.413.825-1.548,2.27-2.786,3.2-4.333.1-.1.206-.206.206-.31Zm5.674,0a36.087,36.087,0,0,0-3.817,5.055h1.754c.516-.722,1.032-1.341,1.651-2.063a20.5,20.5,0,0,1,2.27-2.786c.1-.1.206-.1.31-.206Zm17.229,0a32.474,32.474,0,0,0-5.262,2.889c-.928.619-1.754,1.444-2.682,2.167h3.611c-.31-.1-.413-.31-.31-.516.929-.929,2.579-.206,4.024.516h2.992a2.08,2.08,0,0,0-1.135-.31,13.383,13.383,0,0,0-3.3-1.444c-.206-.1-.1-.206-.1-.31.31-.516.722,0,1.135,0a8.715,8.715,0,0,0,1.754.516,28.043,28.043,0,0,0,2.579,1.135c.206,0,.31-.1.413-.31a.567.567,0,0,0-.31-.516c-.516,0-.722-.413-1.238-.516-.516-.413-1.135-.722-1.651-1.135-.1-.1-.206-.413,0-.516a1.052,1.052,0,0,1,.825-.516c.929-.206,1.238.825,1.96,1.135,1.032.516,1.341,1.754,2.167,2.373v.206l-.31.31h2.682c.1,0,.1-.1.206-.1a7.015,7.015,0,0,1,4.127-.206c.206.1.516.206.722.31h2.682c.1-.1.1-.206.206-.31,1.548-1.548,3.4-3.4,5.674-2.27l.31.31c0,.619-.825.413-1.135.722-1.135.413-2.27,1.032-3.4,1.548h1.754a21.273,21.273,0,0,0,2.682-1.238,4.913,4.913,0,0,1,4.436.929c0,.1.1.206,0,.206h1.96a5.67,5.67,0,0,0-.929-.722,26.452,26.452,0,0,0-3.611-2.27,34.147,34.147,0,0,1-3.4-1.548A3.6,3.6,0,0,0,154.188,80H148.72a12.428,12.428,0,0,1-.825,2.786c-.1.1-.1.206-.31.206-.413-1.135.31-1.857.31-2.992h-1.238a7.149,7.149,0,0,1-.31,2.063c-.31.31.1.929-.413,1.135a3.512,3.512,0,0,1-2.063,0L143.664,83a12.824,12.824,0,0,1-.1-2.786c0-.1-.1-.1-.1-.206Zm9.491,0c0,.1.1.1.1.206,0,.516-.413,1.444.31,1.754a.685.685,0,0,0,.516-.413V80.417l.206-.413H144.9Zm24.76,0a42.771,42.771,0,0,1,4.127,4.436l.1.31.206.31h2.167c-.1-.206-.206-.31-.31-.516a11.06,11.06,0,0,1-1.341-1.96c-.825-.825-1.341-1.754-2.063-2.579Zm6.809,0c.722.929,1.341,1.96,2.063,2.992a19.236,19.236,0,0,0,1.032,2.063h1.444c-.1-.1-.1-.31-.206-.413-.413-.722-.413-1.548-1.032-2.167a6.449,6.449,0,0,0-1.341-2.063c-.1-.1-.31-.206-.413-.31l-1.548-.1Zm-34.561,1.651c-.1-.413-.413-1.032-.1-1.444.1-.1.206-.1.31-.206.206,0,.413,0,.516.206A6.28,6.28,0,0,0,142.839,83c-.1.31-.516.516-.825.619-.619.1-.825-.722-1.341-.929a13.671,13.671,0,0,0-1.651-1.754c-.1-.1,0-.31,0-.516a.647.647,0,0,1,.825-.206l.31.206a8.262,8.262,0,0,0,1.548,2.167.377.377,0,0,0,.516-.206c.206-.309-.206-.413-.309-.722Zm8.769,1.032c.1,0,.31.1.413,0,.722-.722,1.135-2.373,2.476-1.96a1.03,1.03,0,0,1,.516.413c.1.413-.309.31-.619.516a41.217,41.217,0,0,1-3.2,2.786c-.31.1-.516-.1-.722-.31-.825-.929-.1-2.167.206-3.1.413-.413.516-1.238,1.238-1.135a1.112,1.112,0,0,1,.825.206v.206a11.263,11.263,0,0,0-1.341,1.754c-.1.31,0,.413.206.619Z" transform="translate(-41.631 -48.125)" fill="#bd2b30" fill-rule="evenodd"/>
        <path id="Path_1378" data-name="Path 1378" d="M117.039,75.1l-.413.413a14.66,14.66,0,0,1-2.476,2.579c-.413.722-1.341,1.238-1.651,1.96h2.27c1.341-1.444,2.889-2.682,4.127-4.23A4.04,4.04,0,0,0,119.928,75h-2.889Zm8.047,0a25.533,25.533,0,0,1-3.714,1.96,23.569,23.569,0,0,0-3.4,2.992h2.167a25.184,25.184,0,0,1,4.436-2.889c.825-.619,1.754-1.135,2.579-1.651.31-.206.722-.31,1.032-.516h-3.1Zm38.275,0c.1.1.31.206.413.31,1.96.929,3.3,2.889,5.158,4.23a4.368,4.368,0,0,0,.722.516h2.992l-.413-.413c-.928-.516-1.444-1.548-2.476-2.063-1.135-.722-2.167-1.754-3.3-2.579Zm8.047,0c.722.722,1.444,1.444,2.167,2.063a15.455,15.455,0,0,1,2.786,2.992h1.444c-.619-.619-1.032-1.444-1.754-2.063a25.206,25.206,0,0,0-2.786-2.992Zm-27.752,5.055v-.31c.1-.206.413-.206.516-.206a2.158,2.158,0,0,1,.619.413h1.135l.31-.516a.414.414,0,0,1,.619.206v.31h1.238c.1-.1.206-.31.31-.31.206,0,.413.1.413.31h5.468a13.067,13.067,0,0,1-1.857-.619,36.575,36.575,0,0,0-4.849-.825h-4.746a21.8,21.8,0,0,0-4.643.825l-1.857.206c-.413.1-.722.206-1.135.31l8.46.206Z" transform="translate(-41.52 -48.279)" fill="#bd2b30" fill-rule="evenodd"/>
        <path id="Path_1379" data-name="Path 1379" d="M135.058,65.306a16.017,16.017,0,0,0-2.167.413,17.113,17.113,0,0,0-3.2,1.238c-1.96,1.032-4.127,1.548-5.984,2.992-1.341.825-2.476,1.96-3.714,2.786a24.134,24.134,0,0,0-3.1,2.579h2.786a5.9,5.9,0,0,0,.825-.722l3.611-2.786c1.238-.825,2.476-1.444,3.714-2.27,1.032-.516,2.063-.722,3.1-1.135a1.679,1.679,0,0,1,1.238.1c.825,1.135,2.063,2.27,3.611,1.857a6,6,0,0,0,2.579-1.238,6.623,6.623,0,0,1,1.341-1.032,8.086,8.086,0,0,1,1.444.516,6.322,6.322,0,0,0,2.786-.413,8.364,8.364,0,0,0,1.857-1.032c.413,0,1.032.619,1.341.722.929.619,2.889.619,3.92.825a.1.1,0,0,1,.1.1c-.31.31-1.96-.206-2.27-.1-2.889-.516-5.777.1-8.563.619-2.373.722-4.952,1.032-7.325,2.063a45.118,45.118,0,0,0-5.055,2.373,15.994,15.994,0,0,0-2.992,1.444h3.1c1.341-.619,2.786-1.238,4.127-1.857a18.478,18.478,0,0,0,2.476-1.238c2.992-1.238,6.5-1.444,9.8-2.063a12.7,12.7,0,0,0,2.063-.206,27.936,27.936,0,0,1,7.325.929c.929.31,1.754.722,2.682,1.032,1.341.722,2.682,1.341,4.024,1.96a12.257,12.257,0,0,1,2.579,1.341h3.1a10.311,10.311,0,0,0-1.444-.825c-1.857-1.032-3.817-1.857-5.571-2.992a22.591,22.591,0,0,0-3.4-1.238c-.1-.1-.206-.31-.1-.413.413-.31,1.032-.31,1.444-.619.413-.516,1.032-.825,1.341-1.341,1.651.722,3.2,1.548,4.746,2.373a22.193,22.193,0,0,1,5.674,3.2,10.924,10.924,0,0,1,2.373,1.96h1.857c-.722-.619-1.444-1.238-2.167-1.96-.825-.413-1.548-1.238-2.476-1.754-1.032-.31-1.857-1.135-2.889-1.548a34.62,34.62,0,0,0-4.333-2.27c-.413-.31-1.032-.413-1.444-.722a18.83,18.83,0,0,0-3.3-1.444c-.619-.206-1.238.206-1.857-.1a.379.379,0,0,0-.1-.31h-1.341a8.551,8.551,0,0,0,.825,2.889.855.855,0,0,0,.825.31c.1-.1.309-.1.413-.206a9.08,9.08,0,0,0-.516-1.548c0-.1.206-.206.31-.206.619,0,.928.413,1.548.516.1.1,0,.619-.1,1.032,0,.31-.619.413-.722.619a.937.937,0,0,1-.722.31,3.765,3.765,0,0,1-2.476-1.857L152.08,65.2h-3.1a3.286,3.286,0,0,0,.619.825c.413.516,1.238,1.548.413,1.341a7.073,7.073,0,0,1-3.2-2.167h-1.238a9.949,9.949,0,0,1-3.1,2.167c-.825.31.1-.929.516-1.444.1-.206.31-.413.516-.722h-2.167c-.1,0-.1.1-.206.1a1.1,1.1,0,0,1-.825-.1H139.8a1.424,1.424,0,0,0-.31.413,3.882,3.882,0,0,1-2.373,2.992c-.619.1-1.548.413-2.167,0a1.9,1.9,0,0,1-.516-1.651c.1-.722.825-.825,1.341-.929.206,0,.619-.1.722.206.206.825-1.651.929-.619,1.754a2.337,2.337,0,0,0,1.96-1.135,3.494,3.494,0,0,0,.619-1.548h-3.4Z" transform="translate(-41.381 -48.593)" fill="#bd2b30" fill-rule="evenodd"/>
        <path id="Path_1380" data-name="Path 1380" d="M138.171,65.586a4.028,4.028,0,0,0-.413-2.889,2.649,2.649,0,0,1,2.063.825c0,.516-.1,1.238.413,1.444.309.1.722-.31.825.1,0,.206-.1.413-.31.413h2.167a6.976,6.976,0,0,0,.825-3.714c0-2.889-1.96-3.508-2.682-3.508-.825,0-1.341-.1-1.032-.413a3.961,3.961,0,0,1,2.579-.206,13.072,13.072,0,0,1,3.1,2.063s2.063-1.857,3.1-2.063c.929-.206,2.786-.31,3.1,0s-.206.31-1.032.31a3.6,3.6,0,0,0-3.2,3.714,6.224,6.224,0,0,0,.929,3.714h3.1v-.206c-.413-.31-.928-.1-1.341-.206a1.368,1.368,0,0,1-1.032-.619c-.1-.31-.1-.722.206-.825l.31-.206c0-.206.413-.206.619-.1.516,0,.619.825,1.238.619.619.1.825-1.032,1.341-1.238,1.032-.825,1.341-.619,1.96-.929v.206c-.928.619-1.96,1.238-2.063,2.373v1.238h1.341c-.1-.722.413-1.341.516-2.063.619-1.032,1.96-.413,2.786-.929a.948.948,0,0,0,.206-1.032c-.619-.722-1.238-1.341-2.167-1.238a6.545,6.545,0,0,0-3.714,1.96c-.619.516-1.238-.206-1.857-.31a1.367,1.367,0,0,1-.928-1.341c0-.619.619-1.032,1.032-1.341.929-.825,2.167-.413,3.2-.1a.977.977,0,0,0,.722-.825,1.642,1.642,0,0,0-.31-1.341,5.183,5.183,0,0,0-1.341-.516c-1.651-.1-3.4-.31-4.746.619-.619.31-1.135,1.238-1.96,1.135-.825-.619-1.754-.825-2.579-1.341l-1.341-.516a3.05,3.05,0,0,0-3.2,1.548c-.206.619-.619,1.548,0,2.167a.855.855,0,0,0,.825.31c.516-.1.619-.619.825-.825s.516-.1.722-.1a1.843,1.843,0,0,1,1.135,1.032c.206.619-.31,1.135-.722,1.548a1.7,1.7,0,0,1-1.444.206c-1.548-.929-3.3-2.373-5.365-1.548-.825.413-1.96,1.238-1.96,2.27.413.722,1.135,0,1.651,0a2.674,2.674,0,0,1,2.373.722,1.324,1.324,0,0,1-.516,1.444,6.262,6.262,0,0,1-1.857.516Zm1.651,0c-.206,0-.31-.1-.516,0Zm5.365,0q.619-.619.619-.929,0,.309.619.929Zm-4.333-2.063A1.612,1.612,0,0,1,142.4,62.7l.206.206a1.364,1.364,0,0,1-.206,1.238c-.31.31-1.032.206-1.444,0-.206-.1-.206-.413-.1-.619Z" transform="translate(-40.884 -48.873)" fill="#bd2b30" fill-rule="evenodd"/>
        <path id="Path_1381" data-name="Path 1381" d="M198.781,102.213c-.206-1.238-.206-2.579-.413-3.817a47.6,47.6,0,0,0-3.1-12.69,6.623,6.623,0,0,0-1.238-2.579,11.507,11.507,0,0,0-1.341-2.476l-.1-.31c-2.167-2.786-3.4-5.984-5.984-8.666-2.682-2.786-5.365-5.984-8.666-8.047a40.263,40.263,0,0,0-6.6-4.643c-1.238-.619-2.373-1.341-3.611-1.96s-2.579-1.032-3.817-1.548c-2.167-.929-4.746-.929-6.912-1.754-1.444-.206-2.992-.206-4.436-.413-2.373-.1-4.643-.206-6.912-.206a10.8,10.8,0,0,0-5.158.31c-1.032,0-2.063.31-3.1.413-1.754-.1-3.2.722-4.849.929-.619.1-1.032.619-1.651.619a31.342,31.342,0,0,1-4.127,1.238,27.641,27.641,0,0,0-3.1,1.238c-.722.825-1.857.722-2.579,1.444-2.992,1.238-5.468,3.508-8.46,4.849-2.373,2.063-5.158,3.508-7.015,6.19-.929.929-1.548,1.96-2.373,2.889-.722.929-1.032,1.96-1.754,2.889-.516,1.341-1.651,2.476-2.167,3.92-.413.413-.413,1.135-.825,1.548a28.859,28.859,0,0,1-1.548,3.1c-.206.929-.825,1.548-.929,2.476a13.727,13.727,0,0,0-1.341,3.611,6.9,6.9,0,0,0-.825,2.579,60.889,60.889,0,0,0-1.548,7.531c-.516,2.063-.1,4.024-.206,6.19-.413.619.1,1.341-.1,1.96a14.375,14.375,0,0,1,.413,3.611l.206.31c.31,1.135.413,2.167.619,3.3a51.014,51.014,0,0,0,1.548,5.674c.929,2.063,1.444,4.436,2.373,6.5a32.241,32.241,0,0,0,1.96,3.714c1.135,2.27,2.682,4.23,3.92,6.5a71.374,71.374,0,0,0,5.468,5.777,39.468,39.468,0,0,0,8.357,6.293c2.476,1.754,5.158,2.682,7.841,4.024,1.651.619,3.2,1.238,4.849,1.754,1.444.206,2.579,1.135,4.127,1.238,1.135,0,1.96.619,3.1.619a59.147,59.147,0,0,0,12.071.206c1.96-.206,3.92-.31,5.881-.619a40.779,40.779,0,0,0,10.007-2.579,31.361,31.361,0,0,1,5.365-2.373c2.889-1.548,5.881-2.889,8.563-5.158,1.444-.929,2.786-2.27,4.23-3.3,1.444-1.96,3.4-3.714,4.952-5.674a6.933,6.933,0,0,1,.619-1.238c1.341-1.548,2.27-3.2,3.508-4.746.516-1.135,1.548-2.167,1.754-3.4.516-.929,2.373-6.293,2.992-7.841a54.918,54.918,0,0,0,1.444-6.912c.1-2.27.619-4.539.516-6.912,0-2.167.206-3.817.1-5.571Zm-2.063,10.936c-.206.413,0,.929-.1,1.444a20.14,20.14,0,0,1-1.032,4.127,63.156,63.156,0,0,1-3.3,9.7c-.825,1.548-1.651,2.992-2.579,4.436-1.238,1.96-2.682,3.817-4.024,5.674-.516.722-1.238,1.135-1.857,1.857-.825,1.651-2.579,2.786-3.92,4.024-1.548,1.754-3.508,2.579-5.262,4.024-1.96,1.651-4.333,2.27-6.4,3.611-1.032.619-2.167.929-3.2,1.651-.825.206-1.548.722-2.476.929a44.211,44.211,0,0,1-7.531,1.444,15.351,15.351,0,0,1-4.333.825l-3.714.309a6.83,6.83,0,0,1-2.889.1,11.687,11.687,0,0,0-3.3-.1,16.045,16.045,0,0,1-6.293-.825,38.606,38.606,0,0,0-4.952-1.238c-1.96-.929-4.127-1.341-6.087-2.27a25.422,25.422,0,0,1-7.325-4.024c-1.341-1.135-2.889-1.754-4.23-3.1a18.477,18.477,0,0,1-4.746-4.643,9.452,9.452,0,0,1-1.857-2.27c-.206-.413-.722-.31-.825-.722-.929-1.651-2.063-3.3-3.1-4.952-.516-.31-.516-1.032-.825-1.444a35.41,35.41,0,0,1-2.889-5.984c-.619-1.238-.929-2.579-1.548-3.817a20.347,20.347,0,0,1-.722-3.611,9.434,9.434,0,0,0-.722-1.444c-.516-2.27-.619-4.746-.929-7.119a30.015,30.015,0,0,1-.413-3.2,16.026,16.026,0,0,1,.206-4.436c0-2.063.929-3.92,1.135-5.881a25.467,25.467,0,0,1,1.96-6.19c0-.722.619-1.238.619-2.063.929-1.96,1.444-4.127,2.579-5.984.722-1.857,2.167-3.3,2.786-5.158a24.745,24.745,0,0,1,2.579-3.817,13.684,13.684,0,0,1,2.786-2.682,13.286,13.286,0,0,0,1.754-1.651c1.96-1.135,3.508-2.992,5.468-4.127.929-.413,1.548-1.341,2.476-1.651a32.118,32.118,0,0,1,4.127-2.27c2.063-.825,3.817-2.167,6.087-2.579a42.26,42.26,0,0,1,4.952-1.032,27.1,27.1,0,0,0,3.1-.825c1.548-.206,2.992-.413,4.539-.619a45.079,45.079,0,0,1,6.6-.516c1.548.1,3.1.1,4.643.31l2.786.516a7.1,7.1,0,0,1,2.579.206,24.06,24.06,0,0,1,7.634,2.167c1.341.722,2.786,1.341,4.23,2.063a27.263,27.263,0,0,1,7.944,5.055c1.032,1.032,2.167,1.96,3.2,2.889,2.167,2.167,4.23,4.23,6.293,6.4.722,1.032,1.444,2.063,2.063,3.1a36.716,36.716,0,0,1,3.2,4.952,39.822,39.822,0,0,1,3.611,9.8c1.651,4.333,1.651,9.388,1.754,14.237-.1,1.96-.206,4.127-.309,6.4Z" transform="translate(-42.172 -48.979)" fill="#bd2b30" fill-rule="evenodd"/>
        <path id="Path_1382" data-name="Path 1382" d="M154.69,102c.206.31-.1.31-.1.722,0,.31.1.722-.206.825-.619.1-.413-.929-1.135-.619l-.929.206c-.1,1.135,0,2.786-.206,3.92,0,.516.619.206.722.722,0,.206,0,.619-.309.619s-.516.1-.722,0a2.58,2.58,0,0,1-1.96,0c-.206-.1-.206-.413-.1-.619.206-.31.825-.31.825-.722a15.744,15.744,0,0,0,0-3.817.985.985,0,0,0-1.032-.206c-.516.1-.206,1.032-.722.929l-.206-.31-.1-1.444.1-.1a46.558,46.558,0,0,0,5.365-.1c.206-.1.619-.206.722,0Z" transform="translate(-40.38 -47.428)" fill="#bd2b30"/>
        <path id="Path_1383" data-name="Path 1383" d="M170.749,102.218a3.933,3.933,0,0,1-.1,1.548c-.206.1-.516,0-.722,0-.1-.1.1-.516,0-.619-.206-.31-.516-.619-.825-.619a2.141,2.141,0,0,0-1.032.619c0,1.341,2.27,1.135,2.786,2.167a1.872,1.872,0,0,1-.31,2.373,3.019,3.019,0,0,1-3.1.31c-.516,0-1.135.619-1.548.1l.516-.825c.31-.516.206-.722.619-1.135h.206c.206.929.413,1.341,1.444,1.341.619,0,1.032-.1,1.135-.413.1-.206,0-.516,0-.722-.619-.929-2.682-.825-3.1-1.857-.206-.722-.31-1.754.413-2.27a3.952,3.952,0,0,1,3.4-.31l.206.31Z" transform="translate(-39.829 -47.435)" fill="#bd2b30"/>
        <path id="Path_1384" data-name="Path 1384" d="M128.449,102.107a3.933,3.933,0,0,1,.1,1.548c-.1.31-.413.206-.619.206-.413-.1-.206-.619-.619-.722a1.183,1.183,0,0,0-1.032.1c-.206.206-.206.825-.206,1.032.206.31.825.1,1.135.31.413.413.206.413.1.929s-.722,0-1.135.1a2.084,2.084,0,0,0,0,1.754,2.448,2.448,0,0,0,1.96-.413c.31-.31.413-.722.722-.825a.567.567,0,0,1,.516.31c-.206.516-.1,1.341-.619,1.754-1.444.619-3.3,0-4.952.1-.31-.1-.206-.413-.206-.619,1.135-1.032.722-3.2.722-4.643,0-.413-.619-.722-.413-1.032l.206-.1c1.032-.1,2.373.1,3.4,0a1.387,1.387,0,0,1,.929.206Z" transform="translate(-41.169 -47.428)" fill="#bd2b30"/>
        <path id="Path_1385" data-name="Path 1385" d="M145.321,102.312a1.308,1.308,0,0,1-.1.619,1.418,1.418,0,0,0-.825.516c.1,1.135,0,2.373,0,3.4.206.31.722.206.825.619a.54.54,0,0,1-.206.825c-.516.206-1.548-.1-2.167,0a1.328,1.328,0,0,1-1.238-.1.5.5,0,0,1-.1-.722c.206-.516.825-.206,1.032-.722.413-.929.1-2.579.206-3.611-.1-.413-.722-.1-.928-.413-.1-.1-.413-.722-.206-.722a18.764,18.764,0,0,1,3.4,0,.329.329,0,0,1,.31.309Z" transform="translate(-40.605 -47.427)" fill="#bd2b30"/>
        <path id="Path_1386" data-name="Path 1386" d="M117.588,102.215c0,.206-.1.206-.31.31a.536.536,0,0,0-.413.206,5.045,5.045,0,0,0,.825,2.373c.31.1.516-.206.619-.413l1.548-2.167c-.619-.31-.31-.619-.31-.619a7.612,7.612,0,0,1,2.167,0c.1.1.722-.206.619.31-.1.413-.619.31-.825.619-1.135,1.651-2.27,3.714-3.2,5.262-.31,0-.722.1-.825-.206v-.619l-1.96-4.23c-.1-.206-.413-.1-.619-.206-.206-.206-.206-.31-.1-.619.31-.31.825-.206,1.135-.413.516,0,1.444-.31,1.651.413Z" transform="translate(-41.45 -47.432)" fill="#bd2b30"/>
        <path id="Path_1387" data-name="Path 1387" d="M163.527,107.065a35.886,35.886,0,0,1-2.476-4.849c-.1-.206-.31-.516-.619-.516s-.929.1-.929.413c-.31,1.857-1.444,3.4-2.373,5.055-.31.206-.619.516-.929.722a.314.314,0,0,0,0,.413,23.267,23.267,0,0,1,2.682,0c.1,0,.31-.1.206-.206,0-.206-.206-.206-.31-.31s0-.206,0-.31c.413-.929,1.135-.722,1.754-.619.413.1,1.135-.206,1.238.619,0,.206-.413.1-.516.1a.567.567,0,0,0-.31.516c0,.206.206.206.413.206a19.9,19.9,0,0,1,2.579-.1c.516-.1-.206-.929-.413-1.135Zm-2.476-1.238a4.543,4.543,0,0,1-1.651.206c-.516-.1.516-1.238.31-1.651.1-.31,0-.825.413-.929.31,0,.31.516.413.929,0,.31.516,1.135.516,1.444Z" transform="translate(-40.138 -47.434)" fill="#bd2b30" fill-rule="evenodd"/>
        <path id="Path_1388" data-name="Path 1388" d="M164.106,77.613c-.1-.413-.31-.413-.825-.413a3.47,3.47,0,0,0-2.063,1.341,21.779,21.779,0,0,1-2.786,1.857c-.31.206-.722.1-1.032.31a.379.379,0,0,0,.1.31,3.814,3.814,0,0,0,1.135.516c.413.206.619.929,1.238.516,0-.31-.31-.619-.1-.825,1.032-.31,1.444.206,2.167.722.1.206.206.31,0,.516-.31.1-.722.206-.929,0a.222.222,0,0,0-.206.206c0,.516.929,1.135,1.238,1.444a2.335,2.335,0,0,0,1.548,1.032c.206-.1.31-.206.31-.413-.31-.929-.619-.206-.206-1.135.206-.31.516-4.436.722-4.746a1.942,1.942,0,0,1-.31-1.238Zm-1.96,3.1c-.1.31-1.238-.413-1.444-.722-.1-.1.825-.722.825-.929a3.705,3.705,0,0,1,1.032-.722l.1.1c-.1.619-.413,1.548-.516,2.27Z" transform="translate(-40.098 -48.21)" fill="#bd2b30" fill-rule="evenodd"/>
        <path id="Path_1389" data-name="Path 1389" d="M148.716,71.712a11.369,11.369,0,0,1-.206,1.857c0,.1-.206.206-.31.206-.31,0-.722,0-.619-1.341-.619-.619-1.444-.31-1.444.413-.1,2.063-.413,2.373-.206,3.714.309.31.309.825.722,1.135a.3.3,0,0,1-.206.413c-.516.1-.929-.206-1.444-.206-.619-.1-1.341.1-1.857-.1-.206-.1-.1-.31,0-.413,1.341-.825,1.032-2.579,1.135-4.024a.526.526,0,0,0-.413-.516c-1.135-.516-.928.413-1.444.516a.469.469,0,0,1-.516,0c-.413-.31-.1-.722-.1-1.135.1-.31.1-.722.413-.722,1.444-.206,2.992.1,4.436-.1.722,0,1.651-.31,2.063.31Z" transform="translate(-40.596 -48.396)" fill="#bd2b30"/>
        <path id="Path_1390" data-name="Path 1390" d="M156.052,73.428a1.856,1.856,0,0,1,.929.619c-.1.722-1.032.31-1.341.825-.413,1.341-2.063,2.992-.929,4.539,0,.1,0,.31-.206.31-.619,0-1.444-.722-1.96-1.032-.516-.1-1.135-.1-1.444-.619,0-.619.825-.413,1.135-.722.825-.31.929-1.444,1.238-2.167.1-.516.516-1.032.413-1.548-.206-.31-.825-.413-.619-.929.206-.413.722,0,1.135-.1.31.309,1.238.516,1.651.825Z" transform="translate(-40.298 -48.358)" fill="#bd2b30"/>
        <path id="Path_1391" data-name="Path 1391" d="M171.591,85.242a6.99,6.99,0,0,1,1.444,2.373c.1.31.413.619.1,1.032a1.2,1.2,0,0,1-1.032.413c-.206-.1-.1-.309-.1-.516.31-1.032-.1-1.651-.929-1.651-.206.516-1.032.31-.825.929.206.31.516.619.413.929,0,.413-.413.619-.619.722h-.206c-.31-.413-.722-.722-.825-1.238-.1-.1-.206-.206-.31-.1-.206.31-.825.516-.619,1.032.413.413.413,1.135,1.032,1.444.309.1.516-.1.722-.1.413.206,1.032-.1,1.341.31,0,.413-.413.413-.722.516a2.835,2.835,0,0,1-2.063.206c-.722-.619-.722-1.548-1.341-2.167v-.206a4.326,4.326,0,0,0-1.548-1.238c-.206-.1-.1-.31-.1-.516.31-.722.825,0,1.341-.1a12.864,12.864,0,0,0,2.889-1.548,1.431,1.431,0,0,0,.825-.722c0-.31-.206-.722-.1-1.032.206-.1.413-.206.516-.1a2.815,2.815,0,0,1,.722,1.341Z" transform="translate(-39.845 -47.999)" fill="#bd2b30"/>
        <path id="Path_1392" data-name="Path 1392" d="M116.99,87.115c.1.619-.619.929-.929,1.341a2.632,2.632,0,0,0-.1,2.167c.31.516.722,1.135,1.341,1.238l1.238-.1c.1-.31.516-.516.413-.929-.1-1.032-1.032.1-1.341-.413a2.966,2.966,0,0,1,.722-1.857,2.416,2.416,0,0,1,1.754.722c.206.1.619.1.619.413v.413a17.371,17.371,0,0,1-.619,2.476,3.8,3.8,0,0,1-1.96,1.238,3.06,3.06,0,0,1-1.651.206c-.722-.619-1.857-1.032-2.063-2.063-.825-1.444-.1-3.714.825-4.849.516-.413,1.444-.825,1.754,0Z" transform="translate(-41.471 -47.911)" fill="#bd2b30"/>
        <path id="Path_1393" data-name="Path 1393" d="M128.128,126.113c-.1-.206-.31-.516-.619-.413A26.859,26.859,0,0,1,124,127.351a4.74,4.74,0,0,1-1.651.722c-.516.206-.929-.1-1.444-.1-.1.1-.206.206-.206.31a14.922,14.922,0,0,1,2.167,2.27c.31-.31.1-.825.413-1.135.31-.1.722.1,1.135.206.619.413,1.444,1.032,1.341,1.857-.1.206-.516.1-.619.1,0,.206-.31.206-.1.413l1.238.722c.516.31.825,1.032,1.341,1.135.206,0,.206-.31.1-.516-1.135-2.476.825-4.746.413-7.222Zm-2.167,3.508c-.413.1-.929-.619-1.238-.928a.62.62,0,0,1-.1-.413,6.345,6.345,0,0,1,1.96-1.238l.1.1a22.407,22.407,0,0,1-.722,2.476Z" transform="translate(-41.261 -46.674)" fill="#bd2b30" fill-rule="evenodd"/>
        <path id="Path_1394" data-name="Path 1394" d="M167.2,127.756c-1.032-.206-.413.206-1.444-.1-.722-.206-2.992-1.135-3.611-1.341-.413-.206-.929-.619-1.444-.206-.206.722.206,1.341.206,2.063.31,1.135.825,2.992.413,3.4-.413.516-.722.929-.413,1.341.31.1.516-.206.722-.31a6.736,6.736,0,0,0,1.651-1.341c-.1-.413-.516-.1-.722-.413-.206-.516.619-.722.825-1.135.413-.206.619-.825,1.238-.825.619.206,0,.619,0,1.032,0,.1.1.206.206.1a14.088,14.088,0,0,0,2.373-1.96c.1,0,.1-.206,0-.31Zm-4.952,1.96a3.384,3.384,0,0,1-.516-2.167c.1-.1.516.206.619.31l1.238.516c.1.1.31.1.31.206-.413.413-1.032,1.238-1.651,1.135Z" transform="translate(-39.995 -46.666)" fill="#bd2b30" fill-rule="evenodd"/>
        <path id="Path_1395" data-name="Path 1395" d="M121.194,118.321v.31a19.012,19.012,0,0,0-1.032,4.333c.1.206.722-.516.825-.516.619-.31,1.135-1.032,1.754-1.238.413.1.516.31.722.619.206.413.722.825.619,1.341-.413.413-.619-.413-1.135-.31a8.285,8.285,0,0,0-2.476,1.341c-.413.619-1.135.825-1.651,1.341-.206-.1-.722,0-.722-.31.1-1.444.929-2.992.722-4.436-.206-.206-1.548,1.032-1.754,1.135-.722.516-.413.516-.619,1.341-.206.1-.413-.1-.619-.31-.206-.413-.31-.825-.516-1.238-.206-.206-.516-.413-.413-.722a2.838,2.838,0,0,0,1.857-.206,23.523,23.523,0,0,0,3.1-2.373c0-.206-.31-.413-.206-.619a.635.635,0,0,1,.722-.1,1.07,1.07,0,0,1,.825.619Z" transform="translate(-41.445 -46.929)" fill="#bd2b30"/>
        <path id="Path_1396" data-name="Path 1396" d="M169.568,119.021c.206.206.413.413.206.619a5.39,5.39,0,0,0-2.167.722c-.206.206-.619.413-.722.825a1.841,1.841,0,0,0,1.238.929c.619-.206-.206-1.135.619-1.135a1.039,1.039,0,0,1,1.135.619c0,.1.1.206,0,.31-.206.206-.722,0-.825.413,0,.206,0,.722.206.825a.832.832,0,0,0,.929.31c.413-.1.619-.619.825-.929.31-.619-.413-1.032-.722-1.444a.642.642,0,0,1,.413-.619c.825.206,1.341.825,2.063,1.135.1.206-.1.516-.206.619a39.082,39.082,0,0,1-3.3,3.92c-.1.1-.31.31-.516.206-.413-.31.413-.929.206-1.238a9.868,9.868,0,0,0-2.889-2.476c-.619-.206-.722.1-1.032.516a.635.635,0,0,1-.722.1c-.206-.1-.206-.31-.206-.516.206-.619.929-1.032,1.341-1.548.619-1.032,1.341-1.651,2.063-2.682.929-.516,1.444.31,2.063.516Z" transform="translate(-39.886 -46.907)" fill="#bd2b30"/>
        <path id="Path_1397" data-name="Path 1397" d="M132.949,128.9c1.548.516,3.1,1.135,4.746,1.548.206.1.413.31.619.413.1.619-.413.929-.516,1.444a.46.46,0,0,1-.516,0c-.413-.413-.31-1.548-1.238-1.341-.619.206-.722,1.032-.928,1.548a8.339,8.339,0,0,0-.722,2.27,7.227,7.227,0,0,0,.825,1.032c.1.1-.1.31-.206.413-.516,0-.825-.31-1.238-.413-.825-.31-1.754-.206-2.373-.722-.1-.1,0-.206,0-.31a4.311,4.311,0,0,0,1.032-.413c.722-.825.825-1.96,1.341-2.889.1-.31.516-.619.31-1.032a3.665,3.665,0,0,0-.928-.413c-.516.31-.722.825-1.135,1.135-.1,0-.413-.1-.413-.206a4.837,4.837,0,0,1,.619-2.167c.206,0,.516.1.722.1Z" transform="translate(-40.923 -46.575)" fill="#bd2b30"/>
        <path id="Path_1398" data-name="Path 1398" d="M145.537,131.51c-.1.206.1.413.206.516.206.1.516.1.516.413a4.834,4.834,0,0,1-.722,3.611,1.278,1.278,0,0,1-1.444.31c-1.238-.722-.413-2.063-.619-3.2,0-.413-.206-1.032.206-1.341.1-.1.31-.1.413-.31,0-.1,0-.206-.206-.31a18.215,18.215,0,0,1-2.373,0c-.206,0-.413.1-.413.206a.3.3,0,0,0,.206.413c.309,0,.413.206.516.516.413,1.651-.413,3.3.516,4.746a4.824,4.824,0,0,0,3.4.516c2.063-1.032,1.032-3.4,1.754-5.158.206-.206.722-.1.825-.31a.682.682,0,0,0,.1-.619,8.386,8.386,0,0,0-2.27-.1c-.206,0-.413-.1-.619.1Z" transform="translate(-40.615 -46.5)" fill="#bd2b30"/>
        <path id="Path_1399" data-name="Path 1399" d="M159.28,132.906a.638.638,0,0,0-.722-.206c-.413.1-.413.516-.516.722-.1.413-.619.31-.928.413-.31-.1-1.341-.722-1.135-1.032a1.857,1.857,0,0,0,.1-2.373c-.619-1.341-2.373-1.032-3.4-.619-.825.516-1.754.722-2.476,1.238-.1.206,0,.413.206.619.31.31.722-.1,1.032-.1a4.724,4.724,0,0,1,.825,1.341,23.214,23.214,0,0,1,.825,2.476c.1.516-.413,1.032,0,1.341.516-.206,1.032-.31,1.548-.516.516-.31-.413-1.548-.31-1.96a.536.536,0,0,1,.413-.206,9.1,9.1,0,0,0,2.063.928c1.238,0,2.063,0,2.579-1.238,0-.206.206-.619-.1-.825Zm-4.436-.31c-.206.206-.619.413-.825.31-.31-.206-1.238-1.96-.722-2.167a1.678,1.678,0,0,1,1.754.619,2.419,2.419,0,0,1-.206,1.238Z" transform="translate(-40.327 -46.554)" fill="#bd2b30" fill-rule="evenodd"/>
        <path id="Path_1400" data-name="Path 1400" d="M127.352,58.6c0,.929.619,1.341.31,2.167-.206.206-.1.31-.413.31-.1-.1-.31,0-.413-.1a1.259,1.259,0,0,0-.825-.929c-.413,0-1.754.516-1.96,1.032a1,1,0,0,0,.1.929c1.135,1.135,2.579,0,3.714-.1a3.2,3.2,0,0,1,1.341.619,3.255,3.255,0,0,1,.825,2.992c-.619,1.135-1.651,2.373-3.1,2.27-.516.1-.929-.516-1.341-.1,0,.31.1.619-.206.825a.906.906,0,0,1-.722-.1c-.31-.413.1-.929,0-1.341-.1-.516-.516-.825.1-1.238.825-.1,1.548,1.032,2.167.825a1.777,1.777,0,0,0,1.238-1.032.987.987,0,0,0,0-.929,1.072,1.072,0,0,0-.825-.413c-.825.1-1.341.825-2.167.722a2.8,2.8,0,0,1-2.167-1.238,2.837,2.837,0,0,1-.516-2.373,3.424,3.424,0,0,1,1.651-1.754,3.524,3.524,0,0,1,1.754-.31c.619-.1.413-1.135,1.238-.825l.206.1Z" transform="translate(-41.207 -48.804)" fill="#bd2b30"/>
        <path id="Path_1401" data-name="Path 1401" d="M168.145,61.618c.31.31.31.929.928,1.032.31,0,.722-.1.825.31-.31.619-.928.825-1.444,1.238l-.619.516c-.1.1-.31-.1-.31-.206-.413-.825.413-.929-.1-1.548a1.82,1.82,0,0,0-.928-.825.7.7,0,0,0-.619.413c-.516.929.206,1.651.516,2.476a4.259,4.259,0,0,1,.722,1.548,1.973,1.973,0,0,1-.722,2.063,3.2,3.2,0,0,1-2.889.516,5.079,5.079,0,0,1-1.548-1.032l-.619-.929c-.413-.1-.825,0-1.135-.31-.1-.206,0-.413.206-.619l1.651-1.754a.461.461,0,0,1,.516,0c.206.1.206.31.31.516,0,.516-.619.825-.516,1.444-.1.722.619,1.135,1.135,1.444a1.445,1.445,0,0,0,1.135,0,.867.867,0,0,0,.413-1.135c0-.929-1.135-1.341-1.238-2.167-.1-.722-.413-1.754.1-2.373a3.1,3.1,0,0,1,3.3-1.135c.206-.1.619.206.929.516Z" transform="translate(-40.01 -48.722)" fill="#bd2b30"/>
        <path id="Path_1402" data-name="Path 1402" d="M117.22,64.108c.1.722-.619,1.032-.1,1.651.619,1.135,1.96,1.96,2.476,3.1.31.413.516.929,1.032,1.135.516.31,1.238-.516,1.444.206-.206.619-1.032.825-1.444,1.238a6.28,6.28,0,0,0-1.651,1.651.633.633,0,0,1-.619.1c-.413-.619.413-1.444.1-2.167-.206-.516-.722-.929-.929-1.341a9.211,9.211,0,0,0-2.992-2.992c-.413-.206-1.032.413-1.238-.1,0-.413.413-.619.619-.825A14.109,14.109,0,0,0,116.4,63.9c.309-.1.722-.1.825.206Z" transform="translate(-41.495 -48.633)" fill="#bd2b30"/>
        <path id="Path_1403" data-name="Path 1403" d="M172.286,67.11a1.786,1.786,0,0,1,.413,1.754,1.531,1.531,0,0,1-1.341,1.238c-.619,0-1.444,0-1.754-.722a1.846,1.846,0,0,1,.31-1.754c.31-.31.619-.722,1.032-.825a5.119,5.119,0,0,1,1.341.31Z" transform="translate(-39.715 -48.539)" fill="#bd2b30"/>
        <path id="Path_1404" data-name="Path 1404" d="M110.706,69.923a.881.881,0,0,1,0,.722c-.206.206-.413.516-.722.413-.206-.1-.619-.516-.825-.31s-.722,1.238-.516,1.341a1.551,1.551,0,0,0,1.135.413c1.032-.1,2.373-1.341,3.508-.929a2.493,2.493,0,0,1,2.579,2.373,4.826,4.826,0,0,1-.206,1.754,3.573,3.573,0,0,1-2.167,2.063c-.206,0-.413-.1-.619,0-.31.31-.1.825-.516,1.032-.722.206-.825-.722-1.135-1.135a5.966,5.966,0,0,1-.516-1.444c0-.1.206-.1.31-.206,1.238-.516,1.135,1.341,2.992-.1a1.2,1.2,0,0,0,.413-1.032c-.31-.413-.1-1.341-1.341-1.032-1.238.206-2.167.825-3.3,1.032a2.727,2.727,0,0,1-2.167-1.032,2.637,2.637,0,0,1-.1-2.476c.413-.516,1.341-2.373,1.754-2.167a2.751,2.751,0,0,1,1.444.722Z" transform="translate(-41.687 -48.464)" fill="#bd2b30"/>
        <path id="Path_1405" data-name="Path 1405" d="M104.763,75.8c.206.413-.206.722-.1,1.238A2.572,2.572,0,0,0,106.516,79c1.444.929,2.682,1.96,4.23,2.786a.62.62,0,0,1,.1.413c-.722.722-1.548.516-2.476.516a12.494,12.494,0,0,0-4.436.619,2.894,2.894,0,0,0,1.444,1.032,2.243,2.243,0,0,0,2.063.825c.413,0,.413-.619.825-.516a.5.5,0,0,1,.206.619,38.981,38.981,0,0,0-1.754,3.611c-.1.206-.31.31-.516.1-.413-.31,0-.825-.1-1.238,0-.929-.929-1.341-1.548-1.857a7.076,7.076,0,0,0-3.714-1.341c-.516,0-.722.619-1.238.516-.31-.206,0-.619.1-.929a2.518,2.518,0,0,1,1.857-1.651,18.343,18.343,0,0,1,4.849-.825c.31,0,.413-.206.619-.413a9.308,9.308,0,0,0-2.063-1.444,2.811,2.811,0,0,0-1.238-.619c-.31.1-.516.516-.929.31-.206-.1-.413-.206-.413-.516s.31-.413.31-.619c.516-.929.619-2.063,1.548-2.682.1-.1.31,0,.516.1Z" transform="translate(-41.933 -48.259)" fill="#bd2b30"/>
        <path id="Path_1406" data-name="Path 1406" d="M98.8,90.313c.31.413,1.238.1,1.135.825-.31.413-1.238,0-1.651.206A1.611,1.611,0,0,0,97.559,93a1.072,1.072,0,0,0,.413.825c.413.1,1.341.516,1.651,0a7.829,7.829,0,0,1,.1-1.651c.413-.1.413.1.825.1s1.032,0,.929.206c-.413.825-.413,1.238-.929,1.754,0,.1.1.1.206.206.929-.1,1.857.516,2.682.619a17.133,17.133,0,0,0,.31-2.27c.1-.929-1.548-1.341-1.238-2.373a.544.544,0,0,1,.722-.206c.619.31,1.238.31,1.651.929.619.825.1,2.579-.206,3.4-.516,1.032-.619,4.024-.722,4.23a.658.658,0,0,1-.619,0c-.722-.516-.1-1.96-1.754-2.063a21.067,21.067,0,0,1-4.23-1.032c-.825-.1-.619,1.341-1.548.929-.619-.825.825-5.262,1.135-6.5.1-.206.1-.206.31-.206a6.787,6.787,0,0,1,1.548.413Z" transform="translate(-42.054 -47.807)" fill="#bd2b30"/>
        <path id="Path_1407" data-name="Path 1407" d="M95.947,102.926c1.238.31,2.786.1,4.024.31.825,0,1.754.206,2.27-.516.1-.206.206-.516.413-.619.206,0,.516-.1.722.1l.1.206a9.953,9.953,0,0,0,.1,3.508.855.855,0,0,1-.31.825c-.722.1-1.032-1.135-1.754-1.238a14.4,14.4,0,0,0-4.23-.206c-.929-.1-1.341.619-1.96,1.238-.1.1-.722,0-.722-.413a9.477,9.477,0,0,1-.1-2.992c.1-.413,0-.929.516-1.032s.413.619.929.825Z" transform="translate(-42.093 -47.422)" fill="#bd2b30"/>
        <path id="Path_1408" data-name="Path 1408" d="M103.225,110.208c.31.1.722-.1.825.31-.1.619.206,1.032.206,1.548.31,1.135,1.341,4.333,1.341,4.746a1.243,1.243,0,0,1-.516.516c-1.032.1-.413-.929-1.548-.722a25.328,25.328,0,0,1-4.849,1.032c-.206.1-.413.1-.516.31,0,.31.1.722-.31.825-.413,0-.619-.413-.825-.619-.413-1.032-1.444-2.063-1.032-3.3.1-.206.31-.206.619-.31.619,0,.516,1.032,1.135.929a18.032,18.032,0,0,1,2.476-.31c.825-.516,3.2.1,2.992-1.032-.516-3.3-1.548-2.579-2.579-3.714-.31-.31.31-.31.516-.413a4.408,4.408,0,0,1,2.063.206Z" transform="translate(-42.046 -47.173)" fill="#bd2b30"/>
        <path id="Path_1409" data-name="Path 1409" d="M185.587,111.732c1.238.825,2.889.825,4.436,1.135.619.1,1.238.619,1.754.206a2.483,2.483,0,0,1,.619-.825c.31,0,.619.1.619.413-.1.722-.516,1.341-.619,2.063a8.733,8.733,0,0,0-.928,3.3c-.1.206-.206.516-.516.619a7.372,7.372,0,0,1-2.167-.206c-.206-.1-.516-.619-.309-.619,1.754,0,2.579-2.373,2.476-2.579-.1-.31-1.651-.31-2.27-.516-.413-.1.31,1.341-.516,1.548-.619.1-.31-.1-.929-.1a1.243,1.243,0,0,1-.516-.516.592.592,0,0,1,.206-.722c.1-.1.206-.1.31-.31.1-.31-.31-.413-.516-.516-.722-.1-1.857-1.032-2.27-.413-.206.929-.722,2.063.619,3.4.1.1,0,.31-.206.31l-.413-.1-1.548-1.032c-.31-.31-.1-.825,0-1.238a27.209,27.209,0,0,1,1.032-3.1,3.017,3.017,0,0,1,.722-1.238c.619,0,.309.825.928,1.032Z" transform="translate(-39.295 -47.148)" fill="#bd2b30"/>
        <path id="Path_1410" data-name="Path 1410" d="M182.036,120.409v.619a7.689,7.689,0,0,0,3.3,2.167,16.6,16.6,0,0,0,2.889,1.754c.31.206.516.413.31.825-.929,1.032-2.682.619-4.024.619a3.013,3.013,0,0,0-.929-.206c-.206.206.31.929.413,1.135.516,1.032,1.032,1.651,1.548,2.682,0,.206-.1.309-.206.516-.929.1-1.651-.619-2.476-1.032-.516-.206-.825-.619-1.238-.722-.928-.31-2.167-1.548-3.1-.929-.31.206-.619,0-.929-.206a5.116,5.116,0,0,1,.825-2.063c.413-.206.206-1.032.825-.722s-.1,1.135.619,1.238a18.08,18.08,0,0,1,3.611,2.063c.206.1-2.063-2.992-2.063-3.714,0-.31,4.23.31,4.23.1a13.46,13.46,0,0,0-2.682-1.444c-.619,0-1.341-1.032-2.167.413-.1.206-.516,0-.619-.206.1-.31.31-.516.413-.825.413-.722.206-1.857,1.135-2.27,0-.206.1,0,.309.206Z" transform="translate(-39.458 -46.85)" fill="#bd2b30"/>
        <path id="Path_1411" data-name="Path 1411" d="M176.086,131.038c.31.825,1.341,1.032,1.96,1.651,1.032.722,1.651,2.27,2.992,2.27.516,0,1.135-.31,1.341.1.206.722-.619.722-.929,1.032-.516.619-1.135,1.135-1.651,1.754a.461.461,0,0,1-.516,0c-.206-.31.31-.825.1-1.135a8.459,8.459,0,0,0-2.063-1.754c-.929-.722-1.238-1.548-2.373-1.96-.619-.206-1.238.722-1.651,0,0-.928.929-1.341,1.341-2.063.413-.31.619-.825,1.032-1.135.516.206.206.929.413,1.238Z" transform="translate(-39.594 -46.543)" fill="#bd2b30"/>
        <path id="Path_1412" data-name="Path 1412" d="M115.463,133.363a2.209,2.209,0,0,0,1.651,1.857c.1.206-.1.413-.31.516a6.088,6.088,0,0,1-1.444.206c-.413.413-.516.206-1.032.413a.377.377,0,0,1-.516-.206v-.206c.413-.309.619-.413.722-.928.1-.825-.722-1.548-1.341-1.96a1,1,0,0,0-.929.1c-.413.31-.206.825,0,1.341a7.342,7.342,0,0,1,.413,2.167,3.207,3.207,0,0,1-.929,2.579,2.841,2.841,0,0,1-2.063.516c-.619,0-1.135-.619-1.548-1.032a21.826,21.826,0,0,1-1.238-2.063c0-.516.516-.619.825-.825l1.135-.31c.619.413-.31.722-.31,1.135a1.386,1.386,0,0,0,.722,1.444,1.543,1.543,0,0,0,1.341-.1c.31-.206.1-.619.206-1.032-.206-1.341-1.135-2.579-.722-4.127a2.026,2.026,0,0,1,.929-1.341,4,4,0,0,1,3.817.928,2.436,2.436,0,0,1,.619.929Z" transform="translate(-41.698 -46.495)" fill="#bd2b30"/>
        <path id="Path_1413" data-name="Path 1413" d="M162.694,141.512c-.1.413-.825.516-.516.928.31.722.206,1.548.825,2.167.31.825.619,2.27,1.341,2.889.413.516.929-.1,1.444,0a.735.735,0,0,1,.31.619c-.206.619-.929.413-1.341.619-1.341.516-2.889,1.135-4.127,1.651-.31.1-.413.825-.929.516-.516-.516-.516-1.341-1.032-1.96,0-.206-.1-.413.1-.516.31-.1.516.206.722.309.413,0,.413.619.825.413a6.074,6.074,0,0,1,1.444-.722l-.619-1.754a.758.758,0,0,0-.619-.206c-.413.31-.206.825-.619,1.032-.206,0-.309-.206-.413-.413a2.033,2.033,0,0,1-.31-1.548c.413-.413.825.206,1.341.1.206-.1.1-.413,0-.619-.619-.516-.413-2.27-1.651-1.754-.516.206-1.238.413-1.444,1.032-.206.31-.1.928-.619,1.032-.206,0-.413,0-.413-.206-.1-.413.1-.619.206-.929,0-.31-.31-.928.1-1.135,1.238-.516,2.579-.722,3.817-1.238.413-.206,1.341-.929,1.857-.619l.31.309Z" transform="translate(-40.13 -46.185)" fill="#bd2b30"/>
        <path id="Path_1414" data-name="Path 1414" d="M191.793,91.49a.7.7,0,0,0-.619-.413c-.825.31-1.548-.1-2.373-.1-.31-.1-3.3-.206-4.436-.722a2.3,2.3,0,0,1-1.238-1.341c-.1-.31-.722-.516-.825-.206a2.118,2.118,0,0,0,.206,1.548c.31.722.413,1.238.722,1.96a.377.377,0,0,0,.516.206c.206,0,.206-.825.1-1.032.1-.206.516.1.722.1a1.172,1.172,0,0,1,.825.31c.206.516.31,1.444.516,1.96,0,.413.206.825.1,1.238-.1.206-.619.619-.929.516-.413-.1-.516-.722-.929-.722-.309.1-.206.413-.206.619.206.516.1,2.579.413,3.1.1.206.31.516.619.413.929-.619,0-.619.825-1.341.929-.722,4.23-3.714,4.849-4.024a3.96,3.96,0,0,0,1.135-1.135,2.805,2.805,0,0,0,0-.929Zm-5.158,2.682c-.206,0-.206-.206-.31-.31l-.309-2.063c.516-.413,2.476.206,3.3.206.619,0-2.167,1.754-2.682,2.167Z" transform="translate(-39.311 -47.85)" fill="#bd2b30" fill-rule="evenodd"/>
        <path id="Path_1415" data-name="Path 1415" d="M180.586,71.509c-.1-.31-.413-.31-.722-.31-2.063.619-3.92,1.651-5.881,2.373a3.705,3.705,0,0,1-1.857-.206c-.206,0-.619-.206-.825,0a.638.638,0,0,0,.206.722c.825.516,1.341,1.857,2.167,1.857.413,0-.1-.619.516-.929.929-.413,1.754.825,2.27,1.548a1.456,1.456,0,0,1-.1.929c-.1.206-.413,0-.722,0-.206,0-.413-.31-.619,0,0,.1-.1.413,0,.516a3.983,3.983,0,0,1,1.548,1.651c.309.206.516.929.825.722.516-.413.206-.722.206-1.135.1-.929.928-2.063,1.341-3.3.31-1.651,1.444-3.1,1.651-4.436Zm-3.508,3.714c-.516,0-1.032-.722-1.341-1.135a12.356,12.356,0,0,1,2.167-1.341c.516-.1-.516,2.27-.825,2.476Z" transform="translate(-39.659 -48.4)" fill="#bd2b30" fill-rule="evenodd"/>
        <path id="Path_1416" data-name="Path 1416" d="M173.564,143.063a36.879,36.879,0,0,1-1.135-4.849,6.942,6.942,0,0,1-.1-2.063,5.558,5.558,0,0,0,.722-1.341.567.567,0,0,0-.516-.31,6.387,6.387,0,0,1-1.754,1.135c-.31.516-.619.206-.825.825.1.31.516.31.825.31.309.1.206.413.206.619a4.844,4.844,0,0,1-2.063,1.754.567.567,0,0,1-.516-.31c-.413-.413-.1-.516-.206-1.032a.536.536,0,0,0-.413-.206c-.722.619-1.651.929-2.373,1.651-.206.206-.516.206-.413.516a2.586,2.586,0,0,0,.413.722.649.649,0,0,0,.619,0c1.548-.825,2.476,1.341,3.714,2.063.929.206,2.27,1.857,2.889,1.754a2.037,2.037,0,0,0,1.238-.619c.1-.1-.206-.31-.31-.619Zm-1.651-.929c-.413-.1-1.754-1.754-2.063-1.857-.1-.1-.206,0-.31-.206v-.206c.31-.31,1.548-1.548,1.857-.619.1.413.619,2.167.722,2.579.1.206,0,.31-.206.31Z" transform="translate(-39.858 -46.394)" fill="#bd2b30" fill-rule="evenodd"/>
        <path id="Path_1417" data-name="Path 1417" d="M110.488,127.438c-.413-.825-.929-2.476-1.444-2.476-.722,0,0,1.135-.619,1.548a1,1,0,0,1-.929.1c-.722-.31-.722-.619-1.135-1.548-.206-.413-.722-.825-.31-1.341.31-.31.413-.825.929-.825.206,0,.206.31.31.413.1.206.206.619.619.516a.329.329,0,0,0,.31-.31c-.1-.929-.825-1.548-1.135-2.373-.413-.413-.206-1.341-1.032-1.444-.516.206-.1.825-.31,1.238-.619.722-1.032,1.548-1.754,2.27-.619.722-1.238,1.651-1.96,2.373l-.722,1.238c-.1.31-.413.825,0,.929,2.27.206,4.23.1,6.293.1.825,0,1.857-.206,2.476.516.206.206.31.516.619.619a.486.486,0,0,0,.619-.1c-.1-.619-.619-1.032-.825-1.444Zm-5.158-.722a13.154,13.154,0,0,0-2.063.1c-.1-.1,1.444-1.548,1.444-1.651.413-.413.722.516.722.516s.206.825.516.929a3.648,3.648,0,0,1-.619.1Z" transform="translate(-41.882 -46.863)" fill="#bd2b30" fill-rule="evenodd"/>
        <path id="Path_1418" data-name="Path 1418" d="M179.719,85.193a4.64,4.64,0,0,1-.619-1.96c0-.516.413-1.032.516-1.548a3.856,3.856,0,0,1,1.341-1.548,5.237,5.237,0,0,1,1.857-.929c.619,0,1.341-.31,1.857-.31a3.358,3.358,0,0,1,1.444.413c.516.206.722.619,1.135,1.032,1.238,1.651,1.444,3.508.825,3.817l-.206.1-.722.31c-.31.206-.516.206-.619.31a.379.379,0,0,1-.31.1h-.206a.1.1,0,0,1-.1-.1c0-.1.1-.206.31-.516.1-.1.206-.206.206-.31.31-.413.516-.413.619-.722a4.161,4.161,0,0,0,0-1.135,1.682,1.682,0,0,0-1.135-1.341,3.266,3.266,0,0,0-2.167.206,4,4,0,0,0-2.063,1.135,1.9,1.9,0,0,0-.413,2.063c.1.31.1.413.31.516.1.413,1.238,1.857,1.548,1.754.309.206-.206.619-.206.619-.413-.1-2.579-.825-3.2-1.96Z" transform="translate(-39.41 -48.156)" fill="#bd2b30"/>
        <path id="Path_1419" data-name="Path 1419" d="M129.48,150.958a1.424,1.424,0,0,1-.413-.31.193.193,0,0,1,0-.31c.1-.206.722-.206.722-.206.206,0,.413-.413.722-1.135a11.125,11.125,0,0,0,.619-1.96c0-.1.206-.928.206-1.032a1.835,1.835,0,0,0-.1-1.341,1.5,1.5,0,0,0-.929-.825,1.685,1.685,0,0,0-1.238,0c-.413.206-.722.31-.825.825a3.619,3.619,0,0,1-.516.825l-1.032,1.96c-.31.825-.516,1.444-.413,1.548,0,.1.1.1.206.206.206.206.413.516.309.619a.222.222,0,0,1-.206.206h-.31l-2.27-.928c-.1-.1-.206-.1-.31-.206a.193.193,0,0,1,0-.31.536.536,0,0,1,.413-.206s.619.1.722.1,1.444-2.682,1.444-2.682c0-.1.619-1.444.722-1.651a2.341,2.341,0,0,1,1.341-1.444,3.013,3.013,0,0,1,2.27.206,4.321,4.321,0,0,1,2.27,1.444,5.43,5.43,0,0,1,.309,3.1,9.737,9.737,0,0,1-.309.928l-.31,1.651c0,.1-.1.516-.1.619s-.1.413-.1.516.206.31.206.31a.568.568,0,0,1,.206.516.222.222,0,0,1-.206.206h-.31l-2.786-1.238Z" transform="translate(-41.168 -46.139)" fill="#bd2b30"/>
        <path id="Path_1420" data-name="Path 1420" d="M202.71,100.89c-.413-2.167-.413-4.539-1.238-6.6a61.275,61.275,0,0,0-2.992-9.9,18.875,18.875,0,0,0-1.857-3.508c-.413-.825-.929-1.651-1.341-2.476-.928-1.135-1.341-2.579-2.167-3.714-1.135-1.135-1.857-2.579-2.889-3.817-.929-1.341-2.27-2.476-3.3-3.817-.928-.413-1.238-1.548-2.167-2.063-.31-.722-1.238-.825-1.651-1.548-1.135-1.032-2.167-2.167-3.4-3.1-1.857-1.548-4.127-1.96-5.881-3.611l-1.548-.722c-1.341-1.032-2.889-1.341-4.333-2.167-1.238-.619-2.476-1.135-3.714-1.651a16.634,16.634,0,0,0-2.992-.929c-.31,0-.516-.31-.722-.206-2.476,0-4.539-.929-6.809-1.238-2.063-.1-4.127-.413-6.19-.722a22.439,22.439,0,0,0-2.682.1,40.068,40.068,0,0,0-4.952.413c-2.373.413-4.849.619-7.015,1.651l-7.119,2.476a4.558,4.558,0,0,1-1.651.619c-1.444.413-2.579,1.341-4.024,1.754-1.548.929-3.2,1.341-4.539,2.579a15.411,15.411,0,0,0-4.23,2.682,20.822,20.822,0,0,0-4.333,3.1c-1.341,1.651-3.1,2.786-4.436,4.333-.516.722-1.135,1.444-1.548,2.167a24.225,24.225,0,0,0-1.96,2.579,17.671,17.671,0,0,0-2.063,2.786c-.722,1.341-1.651,2.682-2.373,4.024a24.326,24.326,0,0,1-1.238,2.889A23.937,23.937,0,0,0,91.7,86.963c-.413,1.341-1.032,2.682-1.341,4.127-.1.516-.516.929-.413,1.444a18.123,18.123,0,0,0-.722,3.4c-.1,1.857-.722,3.508-.722,5.365,0,1.548-.1,3.2-.1,4.746.1,2.579,0,5.262.31,7.841a16.97,16.97,0,0,0,.516,3.3,63.77,63.77,0,0,0,2.476,8.666,57.715,57.715,0,0,0,2.27,5.881,12.349,12.349,0,0,1,1.857,3.2,29.359,29.359,0,0,0,2.373,3.817c.1.413.722.619.722,1.135a16.443,16.443,0,0,1,1.548,2.167c.722.722,1.238,1.548,2.063,2.27.206.619.929,1.032,1.238,1.548.619.619,1.444,1.032,1.857,1.754,1.135.413,1.857,1.548,2.889,2.373a38.2,38.2,0,0,0,8.047,5.468c1.238.516,2.476,1.341,3.714,1.857,1.651.825,3.4,1.444,5.055,2.27,1.548.206,2.786.929,4.333.929.619,0,1.032.413,1.651.413,2.063.413,4.127,1.032,6.19,1.341,3.3.1,6.809.722,10.11.1a43.09,43.09,0,0,0,12.793-1.754c1.857-.722,3.817-1.135,5.777-1.857,2.27-1.238,4.746-1.96,6.912-3.2.619-.206,1.135-.722,1.651-.825a46.416,46.416,0,0,0,4.643-3.2,57.91,57.91,0,0,0,6.4-4.849,46.511,46.511,0,0,0,4.952-6.19,37.509,37.509,0,0,0,4.333-6.5,2.586,2.586,0,0,0,.413-.722,6.925,6.925,0,0,1,.619-1.548c.516-1.754,1.651-3.2,2.167-4.952a25.352,25.352,0,0,0,.929-2.992,47.87,47.87,0,0,0,1.651-5.468c.619-3.4,1.341-6.809,1.651-10.317.722-2.579.206-4.849.206-7.119Zm-1.548,9.079a64.119,64.119,0,0,1-1.548,9.079c-.206,2.27-1.548,3.817-1.96,5.984-.516,1.238-.722,2.889-1.548,4.024-.928,1.754-1.754,3.3-2.579,5.055-1.135,2.167-5.881,9.9-10.523,12.793-1.754,1.238-3.508,2.476-5.158,3.817l-2.167,1.444c-1.135.206-1.754,1.238-2.786,1.754a11.059,11.059,0,0,1-2.27,1.032,31.023,31.023,0,0,1-7.119,3.1c-1.857.825-4.024,1.032-5.881,1.857-2.476.413-4.952.722-7.531,1.032-2.579,0-5.158.516-7.634.1a18.09,18.09,0,0,0-4.746-.31c-.722.1-1.238-.31-1.857-.413a41.487,41.487,0,0,0-5.158-1.032c-2.063-.413-4.024-1.238-5.984-1.754a7.163,7.163,0,0,0-1.341-.516c-1.96-1.238-4.23-1.857-6.19-3.2l-.413-.206c-1.548-1.238-3.2-2.167-4.746-3.2-1.754-1.444-3.714-2.579-5.468-4.23a29.819,29.819,0,0,1-2.992-3.3,22.527,22.527,0,0,1-2.167-2.27c-1.444-1.548-2.167-3.4-3.508-5.055a43.644,43.644,0,0,1-2.579-4.849,40.456,40.456,0,0,1-1.651-3.714c-.722-1.96-1.135-4.127-2.063-6.087a26.671,26.671,0,0,1-.929-4.127,27.6,27.6,0,0,1-.619-6.6,13.166,13.166,0,0,1-.1-4.024,2.654,2.654,0,0,1,.1-1.548c-.206-1.032.31-2.063,0-3.1,0-1.857.619-3.3.619-5.262.206-1.135.516-2.373.619-3.611a12.3,12.3,0,0,1,.825-2.063,19.666,19.666,0,0,1,1.032-3.508A23.95,23.95,0,0,1,95,83.042a34.644,34.644,0,0,0,2.063-4.436c1.135-1.548,1.857-3.2,3.3-4.643a19.413,19.413,0,0,1,2.786-3.714c.413-1.135,1.651-1.857,2.476-2.786a24.631,24.631,0,0,1,5.674-4.23c1.238-.722,2.373-1.754,3.714-2.476.206-.31.619-.31.929-.516a40.635,40.635,0,0,1,6.5-3.714,56.525,56.525,0,0,1,9.079-3.4,17.345,17.345,0,0,0,3.3-.929,22.063,22.063,0,0,0,2.786-.619,13.064,13.064,0,0,0,2.889-.619c2.063-.31,4.127.206,6.293.206.825.1,1.651-.206,2.476-.1a7.809,7.809,0,0,0,1.548-.1,35.156,35.156,0,0,1,4.746.516c.722.206,1.548.413,2.27.619,1.032,0,1.857.619,2.786.825,1.032.413,2.063.413,3.1.722,2.476,1.032,5.055,1.96,7.531,3.1,1.754,1.341,3.817,1.857,5.571,3.4,1.444.929,2.889,1.96,4.23,2.992a14.941,14.941,0,0,1,1.857,1.754c.929.929,1.857,1.754,2.682,2.579.825.722,1.444,1.548,2.27,2.167.722.825,1.341,1.754,2.063,2.579a46.12,46.12,0,0,1,4.127,6.19,19.148,19.148,0,0,1,2.579,4.436,61.721,61.721,0,0,1,2.476,6.912c.516,2.063,1.341,3.92,1.754,5.984a43.156,43.156,0,0,1,.619,5.262,16.735,16.735,0,0,1,.1,4.539,15.1,15.1,0,0,1-.413,4.436Z" transform="translate(-42.284 -49.1)" fill="#bd2b30" fill-rule="evenodd"/>
        <path id="Path_1421" data-name="Path 1421" d="M193.272,100.209c-.619-.929-.722.516-.929.825a7.342,7.342,0,0,1-2.167.413c-1.444-.31-2.476.31-3.92,0-.206-.1-.722.206-.825-.206-.206-.31-.413-.619-.825-.619a.222.222,0,0,0-.206.206,25.1,25.1,0,0,1,.31,3.92,6.935,6.935,0,0,0,1.96,3.1,5.05,5.05,0,0,0,2.786.619,4.23,4.23,0,0,0,2.476-1.341l.825-1.032c.206-.31.1-.619.31-.929a17.676,17.676,0,0,0,.31-2.579,18.261,18.261,0,0,0-.1-2.373Zm-1.548,5.055c-1.032,1.444-2.992,1.135-4.436.929a2.232,2.232,0,0,1-1.238-1.135c-.1-.31-.206-1.135,0-1.341a3.745,3.745,0,0,1,2.373-.1c.722.1,3.1-.31,3.4,0a9.44,9.44,0,0,1-.1,1.651Z" transform="translate(-39.243 -47.491)" fill="#bd2b30" fill-rule="evenodd"/>
      </g>
      <rect id="Rectangle_32" data-name="Rectangle 32" width="299.6" height="299.6" fill="none"/>
    </g>
  </g>
</svg>
