<svg xmlns="http://www.w3.org/2000/svg" xmlns:xlink="http://www.w3.org/1999/xlink" width="600" height="300" viewBox="0 0 600 300"><defs><clipPath id="clip-Logo"><path d="M0 0h600v300H0z"/></clipPath></defs><g id="Logo" clip-path="url(#clip-Logo)"><path fill="#e8eff3" d="M0 0h600v300H0z"/><g id="Uppsala_universitet" transform="translate(150.4 .4)"><g id="Group_69" transform="translate(45.084 50.656)"><path id="Path_1344" fill-rule="evenodd" d="M162.18 241.26a4.7 4.7 0 0 1-2.38-1.86c-1.13-1.75-5.05-7.43-5.67-8.46a.36.36 0 0 1 .1-.52l1.03-.3a4 4 0 0 0 2.78-2.48 8 8 0 0 0 0-4.64 4.4 4.4 0 0 0-1.96-2.58 3 3 0 0 0-1.13-.42 7 7 0 0 0-1.65-.2h-9.39a.27.27 0 0 0-.31.3c0 .21.31.21.62.32a1.8 1.8 0 0 1 .82 1.75v17.13a1.5 1.5 0 0 1-1.34 1.75c-.3 0-.41.52.1.52a32 32 0 0 1 5.47.1c.1 0 .41-.1.41-.31q0-.16-.3-.31c-.94-.31-1.35-.41-1.45-1.65v-8.15c0-.52 1.65-.31 2.37-.2.62 0 .83.5 1.14.92 2.06 3 3.3 4.95 4.95 7.53a4.4 4.4 0 0 0 1.86 1.55 8 8 0 0 0 3.4.82c.1 0 .3-.1.3-.2.42-.1.52-.31.21-.41Zm-11.25-11.86a18 18 0 0 1-2.37-.21c-.2 0-.2-.2-.2-.52 0-3.4.1-6.4.1-6.9s.92-.42 1.44-.42c1.65 0 3.4-.2 4.43.51a3.7 3.7 0 0 1 1.24 1.65 9 9 0 0 1 .2 2.8 3.8 3.8 0 0 1-1.54 2.47 24 24 0 0 1-3.3.62" transform="translate(-40.54 -43.692)"/><path id="Path_1345" fill-rule="evenodd" d="M173.1 203a3 3 0 0 1-1.65-1.25c-2.06-4.12-6.7-16.1-6.7-16.1-.83-1.85-1.76-4.32-2.07-4.94-.1-.42-.41-.1-.52.1a724 724 0 0 1-9.38 20.12 4.5 4.5 0 0 1-1.55 1.75c-.41.3-.93.2-.93.51a.33.33 0 0 0 .3.31 37 37 0 0 1 5.06-.1.33.33 0 0 0 .31-.3c0-.21-.4-.31-.61-.52a1.4 1.4 0 0 1-.42-1.34c.72-2.07 1.65-3.82 2.38-5.68a.7.7 0 0 1 .51-.4h7.74c.2 0 .2.1.2.2l1.76 4.43a6 6 0 0 1 .41 2.68c-.2.62-1.03.42-1.03.83 0 .1.1.2.31.2a37 37 0 0 1 5.88 0 .27.27 0 0 0 .31-.3c.1-.1-.1-.21-.3-.21Zm-9.18-9.6h-5.37c-.1 0-.1-.21-.1-.21 1.14-2.48 2.27-4.85 3.3-7.32.1-.1.2-.21.31-.1.42 1.03 2.58 6.6 2.79 7.01.2.62 0 .62-.93.62" transform="translate(-40.323 -44.937)"/><path id="Path_1346" fill-rule="evenodd" d="M213.5 203a2.6 2.6 0 0 1-1.65-1.25c-2.06-4.12-6.7-16.1-6.7-16.1-.83-1.85-1.76-4.32-2.07-4.94-.1-.42-.41-.1-.52.1a724 724 0 0 1-9.38 20.12 5.5 5.5 0 0 1-1.55 1.75c-.41.3-.93.2-.93.51a.33.33 0 0 0 .3.31 37 37 0 0 1 5.06-.1.33.33 0 0 0 .31-.3c0-.21-.4-.31-.61-.52a1.2 1.2 0 0 1-.42-1.34c.72-2.07 1.55-3.82 2.38-5.68a.7.7 0 0 1 .51-.4h7.84c.2 0 .2.1.2.2l1.76 4.43a6 6 0 0 1 .41 2.68c-.2.62-1.03.42-1.03.83 0 .1.1.2.31.2a37 37 0 0 1 5.88 0 .27.27 0 0 0 .31-.3c0-.1-.2-.21-.4-.21Zm-9.28-9.6h-5.37c-.1 0-.1-.21-.1-.21 1.14-2.48 2.27-4.85 3.3-7.32.1-.1.2-.21.31-.1.41 1.03 2.58 6.6 2.79 7.01.3.62 0 .62-.93.62" transform="translate(-39.043 -44.937)"/><path id="Path_1347" d="M146.62 181.51c.52.1.42.42.42.83v2.99c0 .2.1.62-.21.62-.52 0-.52-1.24-.93-1.65a5.2 5.2 0 0 0-3.6-1.65c-2.07 0-3.52 1.23-3.52 2.89 0 2.06.42 2.78 3.1 4.02 1.65.82 5.57 1.86 6.92 4.02a5.7 5.7 0 0 1 .82 3.51 7.6 7.6 0 0 1-1.65 4.44c-2.27 2.89-8.05 2.47-10.94 2.06-.41 0-.93.2-.93-.3.1-1.45 0-2.8 0-4.24 0-.41.21-.52.42-.41.2.2.2.51.3.72 1.04 1.96 2.59 2.68 5.68 2.68a4.8 4.8 0 0 0 4.65-3.1 3.3 3.3 0 0 0-.73-3.5c-1.65-2.07-4.23-2.8-6.5-3.62a5.6 5.6 0 0 1-3.6-5.67 5 5 0 0 1 2.06-3.92c2.27-1.55 5.98-1.24 8.25-.72Z" transform="translate(-40.773 -44.918)"/><path id="Path_1348" d="M180.89 181.6c.2 0 .2.31 0 .52-.52.3-1.03.3-1.24.92a19 19 0 0 0-.3 4.13v8.26c.1 3.2-.42 4.64 1.44 6.08.72.52 4.33.42 5.26.31a3.5 3.5 0 0 0 3.1-2.06c.1-.2.2-.41.41-.41.31 0 .31.2.2.51-.1 1.03-.3 2.37-.4 3.2-.1.2-.32.52-.52.52-4.13.2-10.42-.1-13.72.1-.2 0-.42 0-.42-.31s.21-.42.42-.52c.51-.2.82-.2 1.13-.82a3.5 3.5 0 0 0 .41-1.86c.1-6.8.1-14.75-.2-16.92-.1-.62-.93-.82-1.45-1.13-.2-.1-.1-.52.21-.52.93 0 4.33.1 5.67 0" transform="translate(-39.55 -44.902)"/><path id="Path_1349" d="M87.03 236.75v-13.51a4 4 0 0 0-.2-1.24 2.6 2.6 0 0 0-1.35-1.65c-.31-.1-.2-.52 0-.52 1.65.1 3.1 0 4.64 0 .2 0 .31.1.31.2 0 .42-.41.42-.72.73a2.5 2.5 0 0 0-.82 1.55c-.21 2.89 0 15.89 0 15.89 0 1.24 0 2.27.1 3.6 0 .42-.31.52-.42.42-.82-.82-1.75-1.65-2.78-2.78-3.61-3.3-11.45-11.15-15.07-14.45-.1-.1-.2 0-.2.1 0 0-.1 12.7.3 14.75a2.6 2.6 0 0 0 1.35 1.45.2.2 0 0 1 .2.2c0 .1-.1.21-.3.21a18 18 0 0 0-5.27 0c-.2 0-.2-.1-.2-.2 0-.52 1.13-.32 1.65-1.45.41-.93.3-19.09.3-19.09v-2.06c0-.2.21-.2.32-.1-.1-.1 16.5 16.5 18.16 17.95" transform="translate(-42.975 -43.726)"/><path id="Path_1350" d="M208.29 219.7a.2.2 0 0 1 .2.2v3.62c0 .72-.51.62-.72.1a4 4 0 0 0-.62-1.34 3.4 3.4 0 0 0-2.27-1.24h-4.13c-.51 0-.72.2-.72.72-.1 6.5-.3 16.3.1 17.64a2.1 2.1 0 0 0 1.65 1.65c.31.1.42.52-.1.52h-6.19c-.51 0-.41-.52-.1-.52.62-.2 1.03-.3 1.34-.82a2.3 2.3 0 0 0 .42-1.55c0-1.03.1-12.17.1-15.89 0-1.24-.2-1.55-.42-1.65a16 16 0 0 0-5.67.2 2.2 2.2 0 0 0-1.44 2.17.27.27 0 0 1-.31.31c-.1 0-.21 0-.21-.3v-3.61q0-.3.62-.31z" transform="translate(-39.09 -43.698)"/><path id="Path_1351" d="M138.39 220.12v2.47a.2.2 0 0 1-.2.2c-.32 0-.63-.92-1.14-1.23-1.65-.93-3.61-.62-5.68-.62 0 0-1.13 0-1.23.31 0 .1-.1 5.06-.1 7.53a.2.2 0 0 0 .2.2h6.6c.52 0 .72-.61.72-.71.1-.31.52-.31.52 0-.1 1.23-.1 2.47-.1 3.6 0 .1-.2.1-.31-.1a2.3 2.3 0 0 0-2.17-1.23 47 47 0 0 0-5.36.1c-.1 0-.1.1-.1.3 0 2.28-.1 4.14 0 6.5a2.5 2.5 0 0 0 .82 2.07c1.24.83 3 .62 4.44.52 1.13 0 2.47.1 3.2-.93.41-.62.2-.93.72-1.55.1-.1.31-.1.31.1-.1 1.55-.1 1.96-.1 3.71a.2.2 0 0 1-.2.21H125.9c-.21 0-.31-.41 0-.52.72-.2 1.54-.3 1.54-1.75v-6.7a76 76 0 0 0-.1-10.83c-.1-.62-.3-1.24-.92-1.45-.21-.1-.62 0-.62-.3s.1-.42.51-.42h11.45c.31 0 .62.1.62.52" transform="translate(-41.102 -43.698)"/><path id="Path_1352" d="M123.17 219.7c.3 0 .41.3.2.41-.4.31-1.23.42-1.44 1.14-2.79 7.01-5.78 13.72-8.67 20.73 0 .1-.2.21-.3 0 0 0-5.58-12.17-9.8-20.73-.32-.72-1.14-.62-1.66-.93a.4.4 0 0 1-.1-.31s0-.2.31-.2c1.34 0 4.03 0 5.57-.1a.33.33 0 0 1 .31.3c-.1.52-1.23.62-.72 1.65 1.24 3 3.3 7.95 6.7 14.65.1.2.32-.41.42-.62 1.86-4.23 3.5-8.66 5.26-12.9.2-.4.62-1.85-.3-2.37-.21-.1-.63-.2-.63-.41 0-.1 0-.31.21-.31Z" transform="translate(-41.872 -43.695)"/><path id="Path_1353" d="M99.4 219.7a.31.31 0 0 1 0 .62c-1.04.1-1.45.62-1.45 2.47-.1 2.27-.1 15.17-.1 15.17a5 5 0 0 0 .51 2.37c.52.73 1.35.62 1.35.93 0 .1 0 .31-.21.31a54 54 0 0 0-5.78.1c-.2 0-.2-.2-.2-.3 0-.52.72-.21 1.03-.52a2 2 0 0 0 .51-1.24c.1-8.57.21-11.66.1-17.75 0-1.24-1.54-1.44-1.96-1.65-.1-.1-.1-.51.21-.51Z" transform="translate(-42.134 -43.695)"/><path id="Path_1354" d="M96.35 181.5c.2 0 .3.1.3.2s-.1.21-.3.32c-1.24.4-1.55 1.75-1.65 2.88v10.94a8 8 0 0 1-1.66 5.16 7.5 7.5 0 0 1-4.84 2.58 13 13 0 0 1-4.96.1 7 7 0 0 1-4.74-2.37c-1.34-1.34-1.65-2.9-1.76-5.27v-12.06c-.1-1.13-.2-1.75-1.34-2.17-.1 0-.1-.2-.1-.3.1-.21.62-.1.93-.1h4.95a.2.2 0 0 1 .21.2c0 .2-.41.2-.62.3-1.44.73-1.03 2.18-1.13 3.62v7.53c0 2.89-.42 6.91 2.89 8.25a8 8 0 0 0 3.5.42c4.75 0 6.3-3 6.4-4.96.1-3.3.1-12.07-.1-12.79a3.6 3.6 0 0 0-1.85-2.17c-.1-.2 0-.4.3-.4a34 34 0 0 0 5.58.1Z" transform="translate(-42.699 -44.909)"/><path id="Path_1355" fill-rule="evenodd" d="M110.44 181.6c-3.3-.4-6.92 0-10.32-.1-.31 0-.62 0-.62.21 0 .41.52.31.83.41a2.5 2.5 0 0 1 1.23 2.48c0 1.24.1 11.76 0 13.83 0 1.34.2 4.02-1.44 4.53-.2.1-.52.21-.52.31s0 .21.2.21a57 57 0 0 1 6 0c.2 0 .2-.1.2-.3s-.52-.32-.83-.42c-.82-.42-.82-1.65-.82-2.58 0-2.58-.1-4.64-.1-6.81 0-.41.2-.52.41-.52 8.46.73 9.6-3.3 9.6-6.29 0-2.27-1.04-4.64-3.82-4.95Zm-1.76 9.8c-.72 0-2.78.1-3.82 0-.3 0-.4-.4-.4-.61a61 61 0 0 1 0-7.53c0-.42.5-.31.71-.31a20 20 0 0 1 4.34.1 2.3 2.3 0 0 1 1.55 1.03 7 7 0 0 1 .61 2.99c.21 2.48-1.44 4.23-2.99 4.33" transform="translate(-41.932 -44.908)"/><path id="Path_1356" fill-rule="evenodd" d="M128.64 181.6c-3.3-.4-6.92 0-10.32-.1-.31 0-.62 0-.62.21 0 .41.52.31.82.41a2.5 2.5 0 0 1 1.24 2.48c0 1.24.1 11.76 0 13.83 0 1.34.2 4.02-1.44 4.53-.2.1-.52.21-.52.31s0 .21.2.21a57 57 0 0 1 6 0c.2 0 .2-.1.2-.3s-.52-.32-.83-.42c-.82-.42-.82-1.65-.82-2.58 0-2.58-.1-4.64-.1-6.81 0-.41.2-.52.41-.52 8.46.73 9.6-3.3 9.6-6.29-.1-2.27-1.04-4.64-3.82-4.95Zm-1.76 9.8c-.72 0-2.78.1-3.82 0-.3 0-.4-.4-.4-.61a61 61 0 0 1 0-7.53c0-.42.5-.31.71-.31a20 20 0 0 1 4.34.1 2.3 2.3 0 0 1 1.55 1.03 7 7 0 0 1 .61 2.99c.21 2.48-1.54 4.23-2.99 4.33" transform="translate(-41.356 -44.908)"/><path id="Path_1357" d="M64.75 219.9c.2 0 .3.1.3.21s-.1.2-.3.2c-1.24.42-1.55 1.76-1.66 2.9v10.93a8 8 0 0 1-1.65 5.16 7.5 7.5 0 0 1-4.85 2.58 13 13 0 0 1-4.95.1 7 7 0 0 1-4.74-2.37c-1.34-1.34-1.65-2.9-1.76-5.26v-12.07c-.1-1.13-.2-1.75-1.34-2.17-.1 0-.1-.2-.1-.3.1-.21.62-.1.93-.1h4.95a.2.2 0 0 1 .2.2c0 .2-.4.2-.61.3-1.44.73-1.03 2.18-1.14 3.62v7.53c0 2.89-.4 6.91 2.9 8.25a8 8 0 0 0 3.5.42c4.75 0 6.3-3 6.4-4.96.1-3.3.1-12.07-.1-12.79a3.6 3.6 0 0 0-1.86-2.17c-.1-.2 0-.4.31-.4a35 35 0 0 0 5.58.2Z" transform="translate(-43.7 -43.696)"/><path id="Path_1358" d="M174.22 219.61c.52.1.42.42.42.83v2.99c0 .2 0 .62-.21.62-.52 0-.52-1.24-.93-1.65a5.2 5.2 0 0 0-3.6-1.65c-2.07 0-3.52 1.23-3.52 2.89 0 2.06.42 2.68 3.1 4.02 1.65.82 5.57 1.86 6.92 4.02a5.7 5.7 0 0 1 .82 3.51 7.6 7.6 0 0 1-1.65 4.44c-2.27 2.89-8.05 2.47-10.94 2.06-.41 0-.92.2-.92-.3.1-1.45 0-2.8 0-4.24 0-.41.2-.52.4-.41.21.2.21.51.32.72 1.03 1.96 2.58 2.68 5.67 2.68a4.8 4.8 0 0 0 4.65-3.1 3.3 3.3 0 0 0-.73-3.5c-1.65-2.07-4.23-2.8-6.5-3.62a5.6 5.6 0 0 1-3.6-5.67 5 5 0 0 1 2.06-3.92c2.16-1.55 5.88-1.24 8.25-.72Z" transform="translate(-39.898 -43.711)"/><path id="Path_1359" d="M185.79 219.6c.2 0 .41.52 0 .62-1.03.1-1.45.62-1.45 2.47v15.17a5 5 0 0 0 .52 2.37c.52.73 1.34.62 1.34.93 0 .1 0 .31-.2.31a54 54 0 0 0-5.78.1c-.2 0-.2-.2-.2-.3 0-.52.72-.21 1.03-.52a2 2 0 0 0 .51-1.24c.1-8.56.2-11.66.1-17.75 0-1.23-1.55-1.44-1.96-1.65-.1-.1-.1-.51.2-.51Z" transform="translate(-39.393 -43.698)"/><path id="Path_1360" d="M224.3 220.12v2.48a.2.2 0 0 1-.2.2c-.31 0-.62-.92-1.24-1.23-1.65-.93-3.61-.62-5.68-.62 0 0-1.13 0-1.24.3 0 .1-.1 5.06-.1 7.54 0 .1.1.2.21.1h6.6c.52 0 .72-.62.72-.72.1-.31.52-.31.52 0-.1 1.24-.1 2.47-.1 3.6 0 .1-.2.1-.31-.1a2.3 2.3 0 0 0-2.17-1.23 47 47 0 0 0-5.36.1c-.1 0-.1.1-.1.31 0 2.27-.1 4.13-.1 6.5a2.5 2.5 0 0 0 .82 2.06c1.24.83 3 .62 4.44.52 1.13 0 2.47.1 3.2-.93.41-.62.2-.93.72-1.55.1-.1.31-.1.31.1-.1 1.55-.1 1.96-.1 3.72a.2.2 0 0 1-.2.2H211.6c-.21 0-.31-.4 0-.51.72-.2 1.54-.31 1.54-1.76v-6.7a76 76 0 0 0-.1-10.83c-.1-.62-.3-1.24-.93-1.45-.2-.1-.61 0-.61-.3s.1-.42.51-.42h11.45c.52.1.83.2.83.62Z" transform="translate(-38.387 -43.702)"/><path id="Path_1361" d="M246.9 219.6a.2.2 0 0 1 .2.2v3.62c0 .72-.52.62-.72.1a4 4 0 0 0-.62-1.34 3.4 3.4 0 0 0-2.27-1.24h-4.13c-.52 0-.72.2-.72.72-.1 6.5-.31 16.3.1 17.64a2.1 2.1 0 0 0 1.65 1.65c.3.1.41.52-.2.52H234c-.52 0-.41-.52-.1-.52.62-.2 1.03-.3 1.34-.82a2.3 2.3 0 0 0 .41-1.55c0-1.03.1-12.17 0-15.89 0-1.24-.2-1.55-.4-1.65a16 16 0 0 0-5.68.2 2.2 2.2 0 0 0-1.45 2.17.27.27 0 0 1-.3.31c-.1 0-.21-.1-.21-.3v-3.61q0-.3.62-.31z" transform="translate(-37.874 -43.702)"/><path id="Path_1362" fill="#bd2b30" fill-rule="evenodd" d="M122.93 139.56a12 12 0 0 0-2.89-1.76c-1.13-.1-2.27 0-2.88.93a2.8 2.8 0 0 0-.21 2.68c.2.52-1.14.83-1.34 1.24-.62.72 0 1.96.51 2.37a15 15 0 0 0 1.55 1.14 10 10 0 0 0 2.79 1.44c.1 0 .41.1.51-.1.31-.41 0-.3-.3-.72-.42-.72.4-1.86.72-2.48.51-1.13.82-2.16 1.96-2.78.51-.2 1.23.2 1.44-.42-.3-.72-1.24-.82-1.86-1.54m-4.23 5.77c-.51.31-1.03-.51-1.44-.82a2 2 0 0 1 .2-1.03c.21-.21.73-.73 1.04-.62a4 4 0 0 0 1.03.82 4 4 0 0 1-.83 1.65m1.86-3.6a3 3 0 0 1-.62.92 3 3 0 0 1-1.24-.93c-.72-.82.1-1.55.2-1.96a2.8 2.8 0 0 1 2.59 0c.3.72-.83 1.34-.93 1.96Z" transform="translate(-41.43 -46.291)"/><path id="Path_1363" fill="#bd2b30" fill-rule="evenodd" d="M139.23 105.93c-.52.2 0 1.03-.93 1.03a2.4 2.4 0 0 1-2.07-1.24c.31-.41 1.24-.52 1.24-1.65a1.9 1.9 0 0 0-1.55-2.06 8 8 0 0 0-2.78-.1c-.31.1-.93-.1-1.14.2-.1.31.31.31.52.52a23 23 0 0 1-.1 4.64c0 .41-.83.52-.41.93.3.41 1.13.1 1.54.2.21 0 .42.1.62 0 .42-.3 0-.72.1-1.03 0-.3-.41-1.34.93-.51a7 7 0 0 0 2.17 1.44c.51.1 1.55.31 1.85-.3a2 2 0 0 0 .42-1.66c-.1-.2-.2-.51-.41-.41m-3.72-1.04a1 1 0 0 1-1.13.42c-.42-.2 0-1.34-.21-1.65a1.2 1.2 0 0 1 .1-.83.86.86 0 0 1 1.24.31 5 5 0 0 1 0 1.76Z" transform="translate(-40.906 -47.429)"/><path id="Path_1364" fill="#bd2b30" fill-rule="evenodd" d="M135.3 72.9c-.31-.31-1.96.2-2.27.31-.82.62-.41 1.65-.2 2.37l-.1 2.38a8 8 0 0 1-.62 2.27c.4.4.92 0 1.44-.21.3-.2.72-.2.82-.62 0-.2-.3-.1-.4-.2a.8.8 0 0 1-.22-.52c0-.52.42-.83.83-1.14.41-.1 1.86-.93 2.27-.62a1 1 0 0 1 .31.62c.1.42-.93.93-.1 1.14s1.96-.83 2.68-1.14v-.1c-.72-.61-.51-.1-1.13-.92a23 23 0 0 0-3.3-3.62Zm.52 3.4c-.21.1-1.65.83-1.86.62a4 4 0 0 1 0-2.68c.72-.31 1.55 1.03 1.96 1.44 0 .2 0 .52-.1.62" transform="translate(-40.899 -48.349)"/><path id="Path_1365" fill="#bd2b30" fill-rule="evenodd" d="M128.38 80.44a.7.7 0 0 0-.82.31 3 3 0 0 0-.1.93 1.2 1.2 0 0 1-.73.83h-1.13a2.5 2.5 0 0 0-.41-2.68c-.52-.52-.93-.93-1.66-.73a2.3 2.3 0 0 0-2.06 1.04c-.62.61-1.55 1.13-2.17 1.75a.4.4 0 0 0 .21.52 2 2 0 0 1 1.55.61c.62.73 1.34 1.76 1.86 2.48.51.52-.21 1.14.4 1.65.1.1.42.1.52.1l1.86-1.86a.45.45 0 0 0-.51-.61.64.64 0 0 1-.62-.42c.82-.51 2.06-.2 3.1-.62A2.3 2.3 0 0 0 129 82.3a1.8 1.8 0 0 0-.62-1.86m-4.64 2.69c-.62 0-1.34-1.55-1.86-1.76 0-.2.52-.72.72-.82.93-.62 1.65.61 1.76 1.34.1.41-.42 1.03-.62 1.23" transform="translate(-41.306 -48.151)"/><path id="Path_1366" fill="#bd2b30" fill-rule="evenodd" d="M140.69 148.3a4.4 4.4 0 0 1-1.14 2.17 5 5 0 0 1-2.27 1.34c-1.24.3-1.65-.52-2.58.51-.1.21 0 .42.2.62 1.04.52 1.35.31 2.48.31a19 19 0 0 0 2.48.1c.72-.3 1.55-.41 2.27-.72s1.86-1.24 2.68-1.13l2.27 1.13a14 14 0 0 0 4.85.41 2.3 2.3 0 0 0 1.55-1.23c0-.31.1-.62-.1-.83-.31-.3-.62 0-1.03-.1-1.24-.3-2.58-.3-3.4-1.55-.21-.3-.52-.62-.73-.92h-1.54a23 23 0 0 0 1.75 2.57c.1.21.52.31.31.52-.41.1-1.34-.62-1.75-.82-1.04-.52-2.07-2.07-3.82-1.14a6 6 0 0 0-1.03.62c-.2.1-1.14.93-1.34.82l.82-1.44a6 6 0 0 1 .41-1.24z" transform="translate(-40.818 -45.957)"/><path id="Path_1367" fill="#bd2b30" fill-rule="evenodd" d="M135.7 143.4c1.24.2 2.58.1 3.71.41.52.52 1.45.52 1.76 1.34a1.7 1.7 0 0 1 .1 1.24c-.2.72-.42 1.34-.62 2.07h1.55a6 6 0 0 0 .52-1.86 3.2 3.2 0 0 0-.1-2.17 7 7 0 0 0-.83-1.03Zm10.94 0a6 6 0 0 0-.73 2.27 6 6 0 0 0 .93 2.68h1.55a4.1 4.1 0 0 1-.62-3.6c.41-.73 1.24-.73 1.96-.73a25 25 0 0 1 3-.72h-6.1Z" transform="translate(-40.785 -46.116)"/><path id="Path_1368" fill="#bd2b30" fill-rule="evenodd" d="M116.2 133.6c0 .1.1.1 0 0 1.24 1.65 3 2.48 4.33 3.82 2.07 1.34 4.13 2.37 6.3 3.5a18 18 0 0 0 3.92 1.35c1.75.82 3.81.82 5.67 1.44h6.09c-.83-.82-1.96-1.65-2.38-2.06 0-.2.21-.2.42-.31.93 0 3.3 1.44 4.02.72.2-.2.41-.72.72-.62.52.83 1.65.62 2.38.52a13 13 0 0 0 1.44-.52.4.4 0 0 1 .1.31 6 6 0 0 0-1.86 2.06h6.09a17 17 0 0 0 4.64-1.44 38 38 0 0 0 5.68-2.27 46 46 0 0 0 4.74-3 27 27 0 0 0 3.61-3.3h-2.06a30 30 0 0 1-5.26 3.62 49 49 0 0 1-7.84 3.71c-1.55.83-3.4 1.03-5.06 1.65-.41.1-.93.1-1.13-.3-.1-.21-.2-.42 0-.63.51-.4 1.34-.3 1.65-1.13.1-.52-.41-.62-.83-.83-.72-.3-1.54.21-2.27.21a4 4 0 0 1-2.68.41 6 6 0 0 1-.93-.72v-.1a18 18 0 0 0 2.38-.1c1.44.1 2.78-.41 4.23-.41a15 15 0 0 0 6.6-1.86 29 29 0 0 0 5.98-3.4h-2.68c-1.45.83-2.9 1.76-4.44 2.48l-3.2 1.13-.93.2-7.84.83a14 14 0 0 1-2.89-.1c-1.34-.2-2.68-.3-4.02-.62-4.44-.62-8.87-1.54-12.59-3.92h-2.68a17 17 0 0 0 5.58 2.98 46 46 0 0 0 6.5 1.75 80 80 0 0 0 8.87 1.04l.1.1c-.93.3-.93 2.06-2.16 1.44-1.24-.41-2.17-.93-3.4-1.44-.62 0-1.66-.31-1.97.3a3 3 0 0 0-.2 1.24.4.4 0 0 0 .51.21c.21-.31.73-.1 1.04 0a.6.6 0 0 1 .1.41c-.93.62-2.17.1-3.3.1a30 30 0 0 1-4.34-1.24 28 28 0 0 0-2.68-.92 65 65 0 0 1-5.88-3.2 23 23 0 0 1-3.71-2.68z" transform="translate(-41.403 -46.423)"/><path id="Path_1369" fill="#bd2b30" fill-rule="evenodd" d="M105.7 114.1c.52 1.76 1.14 3.52 1.75 5.27.83 1.34 1.14 3 1.96 4.33a118 118 0 0 0 7.12 10.53h2.69a18 18 0 0 1-3.4-3.92 41 41 0 0 1-5.58-9.18c-.4-1.14-1.13-2.17-1.44-3.3a53 53 0 0 1-1.34-3.72Zm5.06 0 .61 2.18c.52 1.65 1.34 3.1 1.76 4.74.82 2.48 2.78 4.54 4.33 6.7a35 35 0 0 0 4.64 4.96c.73.52 1.45 1.14 2.17 1.65h2.68a13 13 0 0 1-1.54-1.03 28 28 0 0 1-5.78-5.16 43 43 0 0 1-3.3-4.23 19 19 0 0 1-2.17-3.71 24 24 0 0 1-1.55-5.99l-1.85-.1Zm9.07 0c.62 1.14 1.24 2.18 1.86 3.3 1.03 1.87 2.79 3.4 4.13 5.17 1.03 1.03 2.17 1.96 3.2 2.89 3.1 2.47 6.7 3.6 10.31 4.84a24 24 0 0 0 6.2.93 34 34 0 0 0 5.67-.62 4 4 0 0 0 1.96-.51c1.55-.1 2.79-1.14 4.23-1.55 1.65-.72 3.1-1.75 4.75-2.48 1.85-1.34 3.3-3.4 4.95-5.05.72-1.44 2.16-2.58 2.78-4.13.42-.93 1.04-1.85 1.45-2.78h-1.65a18 18 0 0 1-1.55 2.27c-.72.1-1.14-.62-1.65-1.04a15 15 0 0 1-1.14-1.34h-2.17c.83.83 1.66 1.65 2.58 2.48.52.72 1.34 1.55.73 2.48-.73 1.54-2.27 2.57-3.4 3.71a.8.8 0 0 1-.83.2c-1.03-1.75-1.86-3.6-2.78-5.46a18 18 0 0 1-1.14-2.48 9 9 0 0 1-.62-1.03h-1.65c.2.52.52 1.03.72 1.44.83 1.34 1.24 2.79 1.96 4.23.83 1.35 1.55 2.69 2.48 3.92a.5.5 0 0 1 0 .52 11 11 0 0 1-3.3 1.86 7 7 0 0 1-2.9.62.65.65 0 0 1-.5-.62c-.63-3.2-.63-6.6-1.24-9.8-.1-.72-.1-1.55-.21-2.27h-3.82l.42.3c.82.73 1.96 1.35 1.96 2.59.4 1.34.61 3.3-.31 4.54a6.5 6.5 0 0 1-3.1 3.7 6.2 6.2 0 0 1-5.58 0c-2.06-1.23-2.99-5.87-2.06-7.83a7.5 7.5 0 0 1 2.89-3.1h-3.5a9 9 0 0 0-2.9 6.4l-.3 2.37c-.73.83-.83 1.96-1.66 2.79-1.13.2-1.96-.62-2.78-1.24a1.9 1.9 0 0 1-.21-2.17c.62-1.55 1.86-2.89 2.48-4.54.72-1.13 1.13-2.47 1.85-3.6H135a39 39 0 0 1-2.06 4.12c-.62.82-.83 1.75-1.34 2.58-.52.51-.52 1.55-1.45 1.65a8 8 0 0 1-3.6-2.79c-.32-1.34.61-2.27 1.23-3.3.62-.72 1.13-1.44 1.65-2.16h-1.86a16 16 0 0 1-1.34 1.34c-.62.3-.93 1.13-1.65.82a8 8 0 0 1-1.44-2.16Zm58.7 0c0 .22-.1.32-.1.53a37 37 0 0 1-1.34 3.6 18 18 0 0 1-1.85 3.72 32 32 0 0 1-3.1 4.23l-1.55 1.75c-1.45.93-2.58 2.48-4.03 3.51a22 22 0 0 1-2.47 1.86l-1.55.93h2.68c1.14-.72 2.06-1.65 3.2-2.37 2.17-2.58 5.16-4.65 6.91-7.54a30 30 0 0 0 4.13-7.73 25 25 0 0 0 1.03-2.48Zm4.54 0c-.2.42-.3.94-.51 1.35a38 38 0 0 1-3.4 7.22 64 64 0 0 1-4.54 7.12 43 43 0 0 1-3.82 3.72l-.62.61h2.06c.83-.82 1.55-1.65 2.38-2.37.72-1.03 1.55-1.96 2.37-3a33 33 0 0 0 3.4-5.36c.62-1.13 1.24-2.16 1.75-3.3a22 22 0 0 0 2.27-6.08zm-44.67 10.33c.62 1.44 2.17 1.85 3.4 2.47a27 27 0 0 0 3.1.83c.3.1.2.41.2.62-.3.82-1.44.3-2.16.4-1.24-.4-2.58-.5-3.72-1.02a6 6 0 0 1-2.88-1.24c-.21-.1-.1-.31 0-.52a8 8 0 0 1 .92-2.06c.1-.2.31-.52.31-.52zm14.34-1.35c.1 1.45.41 2.8.52 4.24a.9.9 0 0 1-.62.72 7 7 0 0 1-2.58.62c-.93 0-1.96.4-2.79 0a.94.94 0 0 1 .1-1.24c.93-.83 2.27-.83 3.2-1.86a11 11 0 0 0 1.86-2.58c0-.3.3-.1.3.1Z" transform="translate(-41.736 -47.05)"/><path id="Path_1370" fill="#bd2b30" fill-rule="evenodd" d="M104.7 109.2a40 40 0 0 0 1.03 5.06h1.76c-.52-1.65-.93-3.4-1.34-5.05Zm4.95 0c0 .21.1.42 0 .63-.2.61.72 2.37.83 2.99l.41 1.34h1.75c0-.2 0-.31-.1-.41a27 27 0 0 1-.61-2.8c.2-.92 1.23-.4 1.85-.5.62 0 1.14-.32 1.76-.32 1.03.1 2.58-.41 2.99.83a18 18 0 0 0 1.34 3.2h3.1a9 9 0 0 1-.62-2.06c.1-.42.1-1.04.62-1.14 1.13-.52 2.89.2 4.13 0l1.03.1a2 2 0 0 1 1.13.41c0 .62-.62 1.03-.82 1.55-.41.41-.72.83-1.14 1.24h1.86c.62-.72 1.14-1.55 1.86-2.27a4.9 4.9 0 0 1 4.74-.93c.2.1.2.31.2.52-.1.61-.61 1.13-.82 1.85a3 3 0 0 1-.4.83h1.44c.1-.1.2-.31.3-.42a7.4 7.4 0 0 1 2.17-2.88 2.9 2.9 0 0 1 3.4.82c.31.2.52-.2.83-.3a2 2 0 0 1 1.75 0 .8.8 0 0 0 .93.4c.72 0 1.13-.51 1.86-.72a5 5 0 0 1 2.99.2 6 6 0 0 1 .62 1.97 1.3 1.3 0 0 1-.1.62c-.52.2-.42-.31-1.24-.62 0 0-1.34-.62-1.86-.83-.93-.41-2.17-.1-3.2-.1-1.44.42-3.1.52-4.33 1.45a1 1 0 0 1-.41.3h3.5a3.3 3.3 0 0 1 1.86-.61 9 9 0 0 1 3.72.51l.2.1H153c0-.4-.1-.72-.1-1.13a2.3 2.3 0 0 1 .1-1.44 1.2 1.2 0 0 1 1.75.2 18 18 0 0 1 1.34 2.37h1.65a4 4 0 0 1-.82-1.96c0-.3.3-.51.52-.61a15 15 0 0 1 2.99 0l.72.3 2.17 2.17h2.16a14 14 0 0 0-1.75-1.75c-.31-.31-.72-.72-.72-1.14l.3-.2c1.97-.1 4.03-.62 6-.1l.71.3.2.32a4 4 0 0 1-.4 2.68h1.65a6 6 0 0 0 .51-1.24 13 13 0 0 1 1.24-2.68 17 17 0 0 1 4.03-.41h2.36c.31.3.1.82 0 1.23-.2 1.04-.52 1.96-.82 3h1.96c.4-1.24.61-2.48 1.13-3.72a2 2 0 0 0 .41-1.34h-72.63Zm74.7 0v.21a24 24 0 0 1-1.14 4.85h1.55c.1-.3.1-.51.2-.82.31-1.34.52-2.79.73-4.23Z" transform="translate(-41.767 -47.202)"/><path id="Path_1371" fill="#bd2b30" fill-rule="evenodd" d="M104 104.41c.1 1.65 0 3.3.62 4.65v.3h1.55l-.2-.72c-.1-.4-.32-.92.1-1.34.5-.3 1.02.93 1.54.42.3-.52 1.24-1.14 1.44-.52.2.72.42 1.55.52 2.06H182a6 6 0 0 0 .1-1.13c0-.2 0-.52.2-.62.32-.2.73.3 1.14.3.41.1.83-.2 1.14-.1.2.32-.21 1.14-.31 1.56h1.34a16 16 0 0 1 .41-2.17 9 9 0 0 0 .31-2.89h-1.86c.1 0 .1.1.2.1l.1.52a1 1 0 0 1-.2.93 1.2 1.2 0 0 1-1.13.4c-.42 0-.83-.5-1.03-.82-.1-.2.2-1.03.3-1.23h-2.37a19 19 0 0 1 .31 3.4c-.1.3-.51.4-.82.51-.62.2-1.34-.1-1.96 0a41 41 0 0 1-6.2.2 29 29 0 0 0-2.98.21 29 29 0 0 1-3.1.31c-.93-.1-1.86.1-2.8 0a23 23 0 0 0-4.63 0c-2.48-.2-5.06 0-7.64-.1-1.44-.2-2.99.1-4.54 0-2.27-.2-4.64.1-6.9 0-3.72-.1-7.54 0-11.36-.1-1.65 0-2.99-.51-4.64-.3-2.58-.21-5.26-.1-7.63-.73-1.04.1-2.07 0-3.1.1-.31 0-.31-.3-.42-.51-.2-1.04-.62-2.07-.82-3.1h-2.58a1 1 0 0 1 .1.51l-.62.83c-.31.3-.93.2-1.34.2-.31 0-.41-.3-.62-.51a2 2 0 0 1-.2-.93H104Z" transform="translate(-41.79 -47.361)"/><path id="Path_1372" fill="#bd2b30" fill-rule="evenodd" d="M104.2 99.5a33 33 0 0 0-.3 3.3 9 9 0 0 1 .1 1.75h1.86v-.51c.1-.1.3-.62.51-.62a3 3 0 0 1 1.45.1c.3.1.62.62.82 1.03h2.58a5 5 0 0 1 .1-2.37 1.2 1.2 0 0 1 .83-.72c2.57 0 5.15-.1 7.73 0 .52-.21 1.14.1 1.65-.1 1.86-.31 3.72.1 5.68.1 1.75-.31 3.3.51 5.16.4 1.54-.5 3.5-.2 5.15-.2a8 8 0 0 1 2.79 0 10 10 0 0 0 3-.1 52 52 0 0 0 5.67-.2c.51-.1 1.03.1 1.54 0 1.55-.1 2.9 0 4.44-.2 2.48.2 5.05 0 7.43.2a9 9 0 0 1 2.37 0c3.5-.31 7.33-.31 10.83-.31 1.14-.2 2.38-.1 3.51-.2a1.7 1.7 0 0 1 .93.3 7 7 0 0 1 .52 2.68v.62h2.37a1.6 1.6 0 0 1 1.75 0h1.86a3 3 0 0 1 .1-.93c-.1-1.34-.1-2.78-.3-4.12h-1.45l.41 3.71a3 3 0 0 0-.93-.41c-.41 0-1.34.62-1.44.51a15 15 0 0 0-.2-2.99 2 2 0 0 1-.21-.82h-3.81c-.1 0-.2.1-.31.1-.93.1-1.86.1-2.68.2a25 25 0 0 0-2.79 0l-.1-.1v-.2h-1.34v.2c-.3.42-.82.32-1.24.32-.3 0-.51-.21-.82-.31l-1.24-.1c-.1 0-.2-.1-.31-.1h-1.86a3 3 0 0 1 .73.51c.1.2-.21.2-.31.31-.93-.1-1.86-.1-2.8-.2a4 4 0 0 0-1.64-.52.4.4 0 0 1-.2-.1h-1.66a3 3 0 0 0 .72.41 1 1 0 0 1-.51.1 17 17 0 0 1-2.27-.2c-.2-.1-.52-.2-.72-.31h-2.9v.1a1.7 1.7 0 0 1-1.03.3 1.4 1.4 0 0 1-.92-.2c-.1-.1-.1-.2-.21-.2h-1.86c-.1.2-.2.4-.51.4a2 2 0 0 1-1.03-.4h-1.35v.3c-.1.32-.41.21-.62.32-.3 0-.51-.31-.62-.62h-1.13a1 1 0 0 1-.42.93c-.3 0-.72.1-.82-.21a.8.8 0 0 1-.2-.62h-1.14a1.3 1.3 0 0 1-.72.93 2.7 2.7 0 0 1-1.55-.2.3.3 0 0 1 0-.42c.1-.1.1-.2.2-.31h-1.44c-.1.1-.1.2-.2.31-.42.62-1.24.2-1.76.31-.2 0-.1-.31-.1-.41a.4.4 0 0 1 .1-.2h-1.44c-.1.1-.21.3-.42.4a5.6 5.6 0 0 1-3.2.31c-.2-.1-.3-.3-.1-.51.1-.1.2-.1.31-.2h-3.3a6 6 0 0 1-3.3 0h-7.63c-.2.1-.62 0-.83.1a9 9 0 0 1-2.88 0 5 5 0 0 1-1.24-.1h-3.51c-.2.92-.31 1.75-.52 2.57-.3.2-.62-.2-.93-.3-.3-.32-.61-.73-1.13-.53-.31.1-.62.1-.83.42-.1 0-.2 0-.3-.2a13 13 0 0 1 .2-2.07h-1.86Z" transform="translate(-41.793 -47.506)"/><path id="Path_1373" fill="#bd2b30" fill-rule="evenodd" d="M105.13 94.6a11 11 0 0 0-.2 1.86 5 5 0 0 0-.52 2.47c-.1.2-.1.42-.2.62h1.74c.21-1.34.52-2.68.73-3.92.1-.3.2-.72.3-1.03Zm5.26 0a34 34 0 0 0-.51 3.2l-.31 1.86h3.5a6 6 0 0 1-1.34-.31 1.2 1.2 0 0 1-.41-1.14 10 10 0 0 1 .62-3.6Zm9.29 0c-.62 1.55-.93 3.3-1.55 4.85 0 .1-.1.1-.2.2h7.52c-.2-.1-.1-.3 0-.51 1.65-1.34 3.72-1.76 5.57-2.68 1.14-.31 2.07-1.14 3.2-1.45a4 4 0 0 0 .93-.41h-2.27a7 7 0 0 1-1.34.52 42 42 0 0 0-4.95 2.16c-1.34.52-2.48 1.55-4.02 1.34a.4.4 0 0 1-.21-.51c1.34-1.14 3.1-1.45 4.64-2.17.52-.2 1.76-.72 3.2-1.34h-3.3a17 17 0 0 1-4.12 1.14c-.21-.1-.52-.21-.52-.52a1.3 1.3 0 0 1 .1-.62Zm17.64 0a9 9 0 0 1-1.03.62c-2.07 1.65-4.44 2.68-6.71 4.13a5 5 0 0 1-.72.3h3.3c1.86-1.23 3.5-2.99 5.36-4.33.31-.41.73-.51.93-.72Zm2.47 0a10 10 0 0 0-1.23 1.86 41 41 0 0 1-2.79 3.2h1.44a14 14 0 0 1 1.65-1.86c.42-.62.93-1.13 1.35-1.86a1 1 0 0 0 .4-.82c0-.2-.1-.2-.2-.31-.1 0-.2-.1-.3-.1h-.32Zm2.27 0a5 5 0 0 0 3.72.52c.3.2.82-.1 1.03.3a8 8 0 0 0 .62 1.66c-.2.93.3 1.65.2 2.47h1.35l-.1-.1a17 17 0 0 1-.73-3.3 4 4 0 0 1-.4-1.13c.3-.2.5.1.61.3.62 1.35 2.06 2.48 1.96 4.14v.1h1.65c-1.13-1.55-1.96-3.2-3-4.75-.1-.1 0-.2.1-.31h-7Zm7.64 0c.2.1.2.52.62.62.72.62 1.55 1.44 2.27 2.17.62.61 1.13 1.34 1.75 1.96a.4.4 0 0 0 .1.2h2.89a25 25 0 0 1-2.17-1.34c-1.44-1.13-2.58-2.68-4.02-3.71zm2.58 0c1.24.52 2.06 1.55 3.3 2.17 1.13.82 2.47 1.13 3.4 2.16.3.21.62.52.93.73h1.65a26 26 0 0 1-4.03-2.79c-1.34-.2-2.27-1.34-3.4-2.06-.1 0-.1-.1-.2-.1zm3.6 0a2 2 0 0 0 .52.2 10 10 0 0 1 2.9 1.24c.61.21 1.13.83 1.75 1.14 1.13.72 2.58.51 3.6 1.65a3 3 0 0 0 1.14.83h1.86c-.52-.31-.82-.83-1.34-1.04a3 3 0 0 1-1.14-.72c-.82-.1-1.34-.72-2.06-.93a21 21 0 0 0-2.17-1.03 11 11 0 0 0-2.06-1.24zm4.44 0c.1 0 .21.1.31.1l.62.1c.42.52 1.24.31 1.76.62a9 9 0 0 1 2.78 1.03 35 35 0 0 1 3.51 1.03c.62.52 1.45.93 1.96 1.45a2 2 0 0 1 .1.72h1.34a6 6 0 0 0-.93-3.4l-.62-1.55H169c.52.41.52.93.62 1.55a.6.6 0 0 1-.52.3c-1.85-.3-3.4-1.33-5.26-1.85h-3.5Zm18.37 0 .3.62c.21 1.24 1.04 2.27 1.04 3.5-.1.73-.93.63-1.55.83h3.82a4 4 0 0 0-.2-1.24c-.32-1.23-.62-2.58-1.04-3.81h-2.37Zm5.05 0a19 19 0 0 1 .62 3.3c.1.41.2 1.03.31 1.75h1.45a25 25 0 0 0-.73-4.02c-.1-.31-.1-.62-.2-.93zm-43.12 5.06a26 26 0 0 0 2.06-3c.31-.51-.2-.72-.3-1.13-.21-.1-.32-.2-.52-.2a6 6 0 0 0-.83 1.75 20 20 0 0 1-1.75 2.68zm3.3 0a2 2 0 0 1 .2-.73 16 16 0 0 0 .52-2.37.7.7 0 0 0-.41-.52c-.31 0-.72 0-.83.31-.41.52-.1 1.24-.2 1.76-.2.41-.2 1.03-.42 1.55Zm2.48 0a.1.1 0 0 0-.1-.1 8 8 0 0 1 .2-2.69.9.9 0 0 0-.62-.82c-.3 0-.51 0-.62.3-.1.52-.3 1.14.1 1.56a4 4 0 0 1-.1 1.13c0 .2.1.31.1.52z" transform="translate(-41.783 -47.662)"/><path id="Path_1374" fill="#bd2b30" fill-rule="evenodd" d="M105.93 91.6v.1c-.21 1.03-.52 1.96-.83 3h1.75c.1-.63.31-1.35.42-1.97l.41-1.13Zm5.15 0c-.1.41-.2.72-.3 1.14a15 15 0 0 1-.42 2.06h1.55a29 29 0 0 0 .93-3.2Zm10.22 0a14 14 0 0 1-1.24 2.06 4 4 0 0 0-.41 1.04h2.68c.1-.1.2-.32.3-.42.63-.2 1.14-.62 1.87-.82 1.96-.1 6.19-1.34 8.46-1.96h-5.16a32 32 0 0 1-3.3.41c-.31-.1-.62-.1-.93-.2 0-.1 0-.21.1-.21zm14.96 0a8 8 0 0 1-.93.2 78 78 0 0 0-8.26 2.9h3.2c2.17-.93 4.85-1.97 5.58-2.28.2-.2 1.44-.61 1.85-.92zm2.78 0a3.8 3.8 0 0 0 1.65 2.37 10 10 0 0 1 1.45.83H151l-.1-.1a1 1 0 0 1-.41-.62q0-.16.3-.31c.52 0 .73.62 1.24.82.1 0 .21.1.31.1h1.75a13 13 0 0 0-2.58-1.54c-.2-.1-.41-.31-.2-.62a5 5 0 0 1 .51-1.04h-1.03a3.4 3.4 0 0 1-1.13 1.55 5 5 0 0 1-2.27.73 5.7 5.7 0 0 1-4.96-1.24 3 3 0 0 1-1.13-1.04zm16.72 0 .92.31c1.76.52 3.61.52 5.37 1.14 1.34.2 2.58.72 3.81.92a33 33 0 0 0 3.1.73l.1.1h2.17a6 6 0 0 0-.82-1.66 5 5 0 0 0-.72-1.54h-1.66a5 5 0 0 1 .73 1.65c-.1.2-.21.3-.42.3a22 22 0 0 1-2.47-.71 22 22 0 0 0-3.61-.73 11 11 0 0 1-1.96-.51Zm21.66 0c.41 1.03.72 2.17 1.14 3.1h2.37a16 16 0 0 0-1.24-3.1Zm5.37 0c.3 1.03.61 2.06.92 3.2h1.45a37 37 0 0 0-1.14-3.1h-1.24Zm-47.67 3.1a25 25 0 0 1 2.17-1.34c.41-.2 0-.83-.31-.72-1.45.51-2.68 1.44-4.13 2.06Zm3.4 0c.1-.1.2-.2.1-.41-.2-.2-.52-.31-.62-.1a2 2 0 0 1-.72.51Zm1.55 0c-.1 0-.2-.1-.31 0Zm18.67 0c-.1 0-.1-.1-.2-.1a9 9 0 0 1-2.69-1.03 13 13 0 0 1-2.16-.62c-.2 0-.62-.1-.62.2.1.83.93.62 1.44.93a3 3 0 0 1 1.24.52zm5.16 0c-1.55-.52-3-.93-4.44-1.34a13 13 0 0 1-3.6-1.03 1 1 0 0 0-.94.1c-.1.1-.2.3-.1.41.62.62 1.66.41 2.38.82 1.03.42 2.16.73 3.2 1.04Z" transform="translate(-41.755 -47.757)"/><path id="Path_1375" fill="#bd2b30" fill-rule="evenodd" d="M107.14 88.5a17 17 0 0 0-1.24 3.2h1.75l.62-1.65c.31-.52.52-1.03.83-1.55Zm4.95 0a29 29 0 0 0-1.03 3.2h1.65a10 10 0 0 1 1.13-3.1zm11.56 0c-.21.2-.42.52-.62.72a5 5 0 0 0-1.34 1.86 2 2 0 0 0-.42.62h2.38a4 4 0 0 1 .92-1.03c.42-.52 10.63-.42 10.84-1.35.3-.51-9.9.21-8.98-.72zm15.16 0v.41a6 6 0 0 0 .2 2.69h2.17a11 11 0 0 1-.62-1.66 4 4 0 0 1 .21-1.54zm3.4 0a.5.5 0 0 0-.2.41c-.21.31-.21.93-.73.83-.41-.41-.1-.83.1-1.24zm1.55 0a1 1 0 0 1-.52.1l-.1-.1Zm2.68 0c-.1.41-.3.72-.41 1.14a.6.6 0 0 1-.42.1 5 5 0 0 1-.3-1.24Zm2.58 0a1.1 1.1 0 0 1-.52.93c-.4-.1-.1-.72-.61-.83-.42-.2-.42.62-.83.1-.1-.1-.1-.1-.1-.2Zm.93 0c.1.31.1.62.3.83.22.1.73 0 .73.4a6 6 0 0 1-.3 1.97h1.02a2 2 0 0 0 .2-.72c.32-.42.73 0 .94.1a29 29 0 0 0 2.89.61h4.54c-.42-.1-.93-.2-1.45-.3a9 9 0 0 0-2.89-.52c-1.34-.31-2.99-.31-3.92-1.55a.46.46 0 0 1 .42-.62c1.23 0 2.47-.1 3.7-.2Zm9.39 0a6 6 0 0 1 1.34.1l1.44-.1zm5.36 0a5 5 0 0 1 1.24.2c.1.1.41.32.41.63a14 14 0 0 1-4.64.1c-.93.1-1.86 0-2.89.1-.72.2-1.65-.52-2.06.3 0 .21 0 .42.3.52a26 26 0 0 0 4.03.31 14 14 0 0 1 2.07 0c1.65 0 3.6-.62 4.74.93 0 .1.1.1.1.2h1.65c-.3-.51-.72-1.03-1.03-1.54-.52-.52-.93-1.03-1.44-1.55zm11.45 0 .31.93a9 9 0 0 1 .93 2.27h2.27a.4.4 0 0 1-.1-.31 15 15 0 0 0-1.44-2.89Zm5.37 0c.41.93.82 1.96 1.24 2.89 0 .1 0 .1.1.2h1.24c-.41-1.03-.82-2.06-1.24-3.2zm-48.59 3.2a1 1 0 0 1 .52-.1c.3-.41 4.02-.41 3.81-1.24-.1-.2-7.12.83-7.84 1.03-.51.1-1.03.21-1.65.31Zm4.64 0c0-.1.1-.1 0 0 0-.41-.72-.2-1.34 0Z" transform="translate(-41.729 -47.855)"/><path id="Path_1376" fill="#bd2b30" fill-rule="evenodd" d="M109.16 84.8a33 33 0 0 0-2.06 3.71h1.96a19 19 0 0 1 2.06-3.71Zm5.16 0-.82 1.14a13 13 0 0 0-1.55 2.57h1.75c.1-.1.1-.2.2-.4a58 58 0 0 1 2.07-3.4zm13.2 0c-.3.2-.5.41-.82.62a29 29 0 0 0-3.1 3.1h2.68c.83-.72 2.27-.41 3.4-.41l5.06.2a10 10 0 0 0 2.47 0c.21-.2.52 0 .52-.3 0-.42-1.13-.1-1.75-.42a29 29 0 0 0-4.23-.2 19 19 0 0 1-3.51-.32c-.1-.1-.41-.2-.2-.41 1.03-1.13 6.08-.1 7.11-.2.1 0 .2-.21.2-.32 0-.3-3.1-.72-4.22-1.23zm7.44 0a10 10 0 0 0 1.54.62l.83.3c.62.42 1.44.42 2.06.83.41.73-.41 1.24-.51 1.96h1.85c.2-.62.52-1.13.72-1.65a7 7 0 0 1 2.07-2.16h-2.69c-.4.4-.82 1.03-1.44.82a10 10 0 0 1-1.44-.82zm13.51 0c.2.1.52.31.72.41a7 7 0 0 1 1.34 1.14c.2.1.1.41.1.62-.3.3-1.03.41-.92.93l.2.72h12.69a14 14 0 0 1 2.06 0h2.48l-1.24-1.55c-.82-.62-1.44-1.55-2.17-2.17h-2.06a28 28 0 0 0-2.78.72l-1.96.1a10 10 0 0 0-2.48.21 22 22 0 0 0-2.79.83c-.62-.21-.2-.93-.62-1.35-.1-.2 0-.3 0-.51zm4.33 0c-.1 0-.2.1-.41.2a.4.4 0 0 0-.1.32 1 1 0 0 0 .72.2c.52-.2 1.03-.51 1.55-.72Zm21.36 0 .93 1.34c.3.83.72 1.65 1.03 2.37h2.06l-.1-.1a23 23 0 0 0-1.65-3.6Zm5.36 0a8 8 0 0 1 .73 1.65 22 22 0 0 1 1.13 2.17h1.34c-.1-.2-.1-.31-.2-.52a19 19 0 0 1-1.55-3.3Zm-38.27 3.82a1 1 0 0 0 .2-.41c.21-.1.83-.31.83.1 0 .1-.1.2-.2.3Zm1.86 0c-.31-.31-.31-.82-.73-.93-.2 0-.51.1-.62-.1a.3.3 0 0 1 0-.41 3 3 0 0 1 1.66-.31l.2.3a1.3 1.3 0 0 1 .31 1.35.1.1 0 0 1-.1.1Zm2.27 0a.4.4 0 0 0-.1-.31c-.1-.41-.62-.82-.42-1.24.1-.1.1-.2.31-.2.62-.1.93.61 1.24 1.03a2 2 0 0 1 .1.72Zm1.65 0c-.1-.2 0-.41 0-.62a1 1 0 0 1 .72-.72c.3-.1.62.1.93.3a1.3 1.3 0 0 1 .41 1.04Zm11.45-2.17c.93-.2 1.75-.41 2.58-.62.72 0 1.55-.4 2.17.1.51.31 1.13.62 1.03 1.34a2.8 2.8 0 0 1-2.07.42c-3.1-.1-5.98.2-9.07.2l-1.35.1a.4.4 0 0 1-.2-.4c.62 0 1.03-.53 1.65-.53a6 6 0 0 1 1.44-.2l2.27-.31z" transform="translate(-41.691 -47.972)"/><path id="Path_1377" fill="#bd2b30" fill-rule="evenodd" d="M112.5 80c-.61 1.14-1.64 2.06-2.26 3.2L109 85.06h1.96c.1-.1.2-.31.31-.41.83-1.55 2.27-2.79 3.2-4.34.1-.1.2-.2.2-.3Zm5.68 0a36 36 0 0 0-3.82 5.06h1.76c.52-.73 1.03-1.35 1.65-2.07a21 21 0 0 1 2.27-2.78c.1-.1.2-.1.31-.21Zm17.23 0a33 33 0 0 0-5.26 2.89c-.93.62-1.76 1.44-2.68 2.17h3.6c-.3-.1-.4-.31-.3-.52.93-.93 2.58-.2 4.02.52h3a2 2 0 0 0-1.14-.31 13 13 0 0 0-3.3-1.45c-.2-.1-.1-.2-.1-.3.3-.52.72 0 1.13 0a9 9 0 0 0 1.76.5 28 28 0 0 0 2.58 1.14c.2 0 .3-.1.41-.3a.6.6 0 0 0-.31-.52c-.52 0-.72-.42-1.24-.52-.51-.41-1.13-.72-1.65-1.13-.1-.1-.2-.42 0-.52a1 1 0 0 1 .83-.52c.92-.2 1.23.83 1.96 1.14 1.03.51 1.34 1.75 2.16 2.37v.2l-.3.32h2.67c.1 0 .1-.1.21-.1a7 7 0 0 1 4.13-.2c.2.1.51.2.72.3h2.68c.1-.1.1-.2.2-.3 1.56-1.56 3.4-3.4 5.68-2.28l.31.31c0 .62-.82.41-1.13.72-1.14.42-2.27 1.04-3.4 1.55h1.75a21 21 0 0 0 2.68-1.24 4.9 4.9 0 0 1 4.44.93c0 .1.1.2 0 .2h1.96a6 6 0 0 0-.93-.71 27 27 0 0 0-3.61-2.27 34 34 0 0 1-3.4-1.55 4 4 0 0 0-1.35-.52h-5.47a12 12 0 0 1-.82 2.79c-.1.1-.1.2-.31.2-.42-1.13.3-1.85.3-2.99h-1.23a7 7 0 0 1-.31 2.06c-.31.31.1.93-.42 1.14a3.5 3.5 0 0 1-2.06 0l-.2-.2a13 13 0 0 1-.1-2.79c0-.1-.1-.1-.1-.2Zm9.5 0c0 .1.1.1.1.2 0 .52-.42 1.45.3 1.76a.7.7 0 0 0 .52-.41v-1.13l.2-.42zm24.75 0a43 43 0 0 1 4.13 4.44l.1.3.2.32h2.17c-.1-.21-.2-.31-.3-.52a11 11 0 0 1-1.35-1.96c-.82-.82-1.34-1.75-2.06-2.58Zm6.81 0c.72.93 1.34 1.96 2.06 3a19 19 0 0 0 1.04 2.06H181c-.1-.1-.1-.31-.2-.42-.42-.72-.42-1.55-1.04-2.16a7 7 0 0 0-1.34-2.07c-.1-.1-.3-.2-.41-.3zm-34.56 1.65c-.1-.41-.41-1.03-.1-1.44.1-.1.2-.1.31-.2.2 0 .41 0 .52.2a6 6 0 0 0 .2 2.79c-.1.31-.52.52-.83.62-.61.1-.82-.72-1.34-.93a14 14 0 0 0-1.65-1.75c-.1-.1 0-.31 0-.52a.65.65 0 0 1 .83-.2l.3.2a8 8 0 0 0 1.55 2.17.4.4 0 0 0 .52-.2c.2-.32-.2-.42-.3-.73Zm8.77 1.03c.1 0 .3.1.41 0 .72-.72 1.14-2.37 2.48-1.96a1 1 0 0 1 .51.42c.1.4-.3.3-.62.51a41 41 0 0 1-3.2 2.79c-.3.1-.51-.1-.72-.31-.82-.93-.1-2.17.2-3.1.42-.41.52-1.24 1.25-1.14a1 1 0 0 1 .82.2v.22a11 11 0 0 0-1.34 1.75c-.1.3 0 .41.2.62Z" transform="translate(-41.631 -48.125)"/><path id="Path_1378" fill="#bd2b30" fill-rule="evenodd" d="m117.04 75.1-.41.41a15 15 0 0 1-2.48 2.58c-.41.72-1.34 1.24-1.65 1.96h2.27c1.34-1.44 2.89-2.68 4.13-4.23a4 4 0 0 0 1.03-.82h-2.9Zm8.05 0a26 26 0 0 1-3.72 1.96 24 24 0 0 0-3.4 3h2.17a25 25 0 0 1 4.43-2.9c.83-.62 1.76-1.13 2.58-1.65.31-.2.73-.3 1.04-.51h-3.1Zm38.27 0c.1.1.31.2.41.31 1.96.93 3.3 2.89 5.16 4.23a4 4 0 0 0 .72.52h3l-.42-.42c-.93-.51-1.44-1.54-2.47-2.06-1.14-.72-2.17-1.75-3.3-2.58Zm8.05 0c.72.72 1.44 1.44 2.16 2.06a16 16 0 0 1 2.8 3h1.43c-.61-.62-1.03-1.45-1.75-2.07a25 25 0 0 0-2.79-2.99Zm-27.75 5.06v-.31c.1-.21.4-.21.51-.21a2 2 0 0 1 .62.41h1.14l.3-.51a.4.4 0 0 1 .62.2v.31h1.24c.1-.1.2-.3.31-.3.2 0 .42.1.42.3h5.46a13 13 0 0 1-1.85-.62 37 37 0 0 0-4.85-.82h-4.75a22 22 0 0 0-4.64.82l-1.86.2c-.41.1-.72.22-1.13.32z" transform="translate(-41.52 -48.279)"/><path id="Path_1379" fill="#bd2b30" fill-rule="evenodd" d="M135.06 65.3a16 16 0 0 0-2.17.42 17 17 0 0 0-3.2 1.24c-1.96 1.03-4.13 1.55-5.98 2.99-1.34.82-2.48 1.96-3.72 2.78a24 24 0 0 0-3.1 2.58h2.79a6 6 0 0 0 .82-.72l3.62-2.78c1.23-.83 2.47-1.45 3.7-2.27 1.04-.52 2.07-.73 3.1-1.14a1.7 1.7 0 0 1 1.25.1c.82 1.14 2.06 2.27 3.6 1.86a6 6 0 0 0 2.59-1.24 7 7 0 0 1 1.34-1.03 8 8 0 0 1 1.44.51 6 6 0 0 0 2.79-.4 8 8 0 0 0 1.86-1.04c.4 0 1.03.62 1.34.72.93.62 2.89.62 3.92.83a.1.1 0 0 1 .1.1c-.31.3-1.96-.21-2.27-.1-2.9-.52-5.78.1-8.57.62-2.37.72-4.95 1.03-7.32 2.06a45 45 0 0 0-5.06 2.37 16 16 0 0 0-2.99 1.45h3.1c1.34-.62 2.79-1.24 4.13-1.86a19 19 0 0 0 2.47-1.24c3-1.24 6.5-1.44 9.8-2.06a13 13 0 0 0 2.07-.2 28 28 0 0 1 7.32.92c.93.31 1.76.72 2.68 1.03a72 72 0 0 0 4.03 1.96 12 12 0 0 1 2.58 1.34h3.1a10 10 0 0 0-1.45-.82c-1.85-1.03-3.81-1.86-5.57-3a23 23 0 0 0-3.4-1.23c-.1-.1-.2-.31-.1-.42.42-.3 1.03-.3 1.45-.61.4-.52 1.03-.83 1.34-1.35a68 68 0 0 1 4.74 2.38 22 22 0 0 1 5.68 3.2 11 11 0 0 1 2.37 1.96h1.86c-.72-.62-1.45-1.24-2.17-1.96-.82-.41-1.55-1.24-2.48-1.76-1.03-.3-1.85-1.13-2.88-1.54a35 35 0 0 0-4.34-2.27c-.41-.31-1.03-.42-1.44-.73a19 19 0 0 0-3.3-1.44c-.62-.2-1.24.2-1.86-.1a.4.4 0 0 0-.1-.31h-1.34a9 9 0 0 0 .83 2.89.9.9 0 0 0 .82.3c.1-.1.3-.1.41-.2a9 9 0 0 0-.51-1.54c0-.1.2-.21.3-.21.63 0 .94.41 1.56.51.1.1 0 .62-.1 1.04 0 .3-.62.41-.73.62a1 1 0 0 1-.72.3 3.8 3.8 0 0 1-2.47-1.85l-.54-1.76h-3.1a3 3 0 0 0 .62.83c.41.51 1.24 1.54.41 1.34a7 7 0 0 1-3.2-2.17h-1.24a10 10 0 0 1-3.1 2.17c-.82.3.1-.93.52-1.45.1-.2.31-.41.52-.72h-2.17c-.1 0-.1.1-.2.1a1 1 0 0 1-.83-.1h-.51a1 1 0 0 0-.31.41 3.9 3.9 0 0 1-2.37 3c-.62.1-1.55.4-2.17 0a1.9 1.9 0 0 1-.52-1.66c.1-.72.83-.82 1.35-.92.2 0 .61-.1.72.2.2.83-1.65.93-.62 1.76a2.3 2.3 0 0 0 1.96-1.14 3.5 3.5 0 0 0 .62-1.55z" transform="translate(-41.381 -48.593)"/><path id="Path_1380" fill="#bd2b30" fill-rule="evenodd" d="M138.17 65.59a4 4 0 0 0-.41-2.9 2.7 2.7 0 0 1 2.06.83c0 .52-.1 1.24.41 1.45.31.1.73-.31.83.1 0 .2-.1.4-.31.4h2.17a7 7 0 0 0 .82-3.7c0-2.9-1.96-3.51-2.68-3.51-.83 0-1.34-.1-1.03-.42a4 4 0 0 1 2.58-.2 13 13 0 0 1 3.1 2.06s2.06-1.86 3.1-2.06c.92-.2 2.78-.31 3.1 0s-.21.3-1.04.3a3.6 3.6 0 0 0-3.2 3.72 6.2 6.2 0 0 0 .93 3.72h3.1v-.21c-.41-.31-.93-.1-1.34-.2a1.4 1.4 0 0 1-1.03-.63c-.1-.3-.1-.72.2-.82l.32-.2c0-.21.4-.21.61-.1.52 0 .62.82 1.24.61.62.1.83-1.03 1.34-1.24 1.04-.82 1.34-.61 1.96-.92v.2c-.92.62-1.96 1.24-2.06 2.37v1.24h1.34c-.1-.72.41-1.34.52-2.06.62-1.03 1.96-.41 2.78-.93a1 1 0 0 0 .21-1.03c-.62-.72-1.24-1.34-2.17-1.24a6.6 6.6 0 0 0-3.71 1.96c-.62.52-1.24-.2-1.86-.3a1.4 1.4 0 0 1-.93-1.35c0-.62.62-1.03 1.04-1.34.92-.83 2.16-.41 3.2-.1a1 1 0 0 0 .72-.83 1.6 1.6 0 0 0-.31-1.34 5 5 0 0 0-1.34-.51c-1.65-.1-3.4-.31-4.75.62-.62.3-1.13 1.23-1.96 1.13-.82-.62-1.75-.82-2.58-1.34l-1.34-.52a3.05 3.05 0 0 0-3.2 1.55c-.2.62-.62 1.55 0 2.17a.9.9 0 0 0 .83.3c.51-.1.61-.61.82-.82s.52-.1.72-.1a1.8 1.8 0 0 1 1.14 1.04c.2.61-.31 1.13-.72 1.54a1.7 1.7 0 0 1-1.45.21c-1.55-.93-3.3-2.37-5.36-1.55-.83.41-1.96 1.24-1.96 2.27.41.72 1.13 0 1.65 0a2.7 2.7 0 0 1 2.37.72 1.3 1.3 0 0 1-.52 1.45 6 6 0 0 1-1.85.51Zm1.65 0c-.2 0-.3-.1-.51 0Zm5.37 0q.62-.62.62-.93 0 .3.62.93Zm-4.34-2.07a1.6 1.6 0 0 1 1.55-.82l.2.2a1.4 1.4 0 0 1-.2 1.24c-.31.31-1.03.21-1.44 0-.21-.1-.21-.4-.1-.61Z" transform="translate(-40.884 -48.873)"/><path id="Path_1381" fill="#bd2b30" fill-rule="evenodd" d="M198.78 102.21c-.2-1.23-.2-2.58-.41-3.81a48 48 0 0 0-3.1-12.7 7 7 0 0 0-1.24-2.57 12 12 0 0 0-1.34-2.48l-.1-.3c-2.17-2.8-3.4-6-5.99-8.68-2.68-2.78-5.36-5.98-8.66-8.04a40 40 0 0 0-6.6-4.65c-1.24-.61-2.37-1.34-3.61-1.95s-2.58-1.04-3.82-1.55c-2.17-.93-4.74-.93-6.91-1.76-1.45-.2-3-.2-4.44-.41-2.37-.1-4.64-.2-6.9-.2a11 11 0 0 0-5.17.3c-1.03 0-2.06.31-3.1.42-1.75-.1-3.2.72-4.85.93-.61.1-1.03.62-1.65.62a31 31 0 0 1-4.12 1.23 28 28 0 0 0-3.1 1.24c-.73.83-1.86.72-2.58 1.44-3 1.24-5.47 3.51-8.46 4.85-2.38 2.07-5.16 3.51-7.02 6.2-.93.92-1.55 1.95-2.37 2.88-.72.93-1.03 1.96-1.75 2.9-.52 1.33-1.66 2.47-2.17 3.91-.41.41-.41 1.14-.83 1.55a29 29 0 0 1-1.54 3.1c-.21.93-.83 1.55-.93 2.48a14 14 0 0 0-1.35 3.6 7 7 0 0 0-.82 2.59 61 61 0 0 0-1.55 7.53c-.51 2.06-.1 4.02-.2 6.19-.42.62.1 1.34-.1 1.96a14 14 0 0 1 .4 3.6l.21.32c.31 1.13.42 2.16.62 3.3a51 51 0 0 0 1.55 5.67c.93 2.06 1.45 4.44 2.37 6.5a32 32 0 0 0 1.96 3.72c1.14 2.27 2.69 4.23 3.92 6.5a71 71 0 0 0 5.47 5.77 40 40 0 0 0 8.36 6.3c2.48 1.75 5.16 2.68 7.84 4.02 1.65.62 3.2 1.24 4.85 1.75 1.44.21 2.58 1.14 4.13 1.24 1.13 0 1.96.62 3.1.62a59 59 0 0 0 12.07.2c1.96-.2 3.92-.3 5.88-.61a41 41 0 0 0 10-2.58 31 31 0 0 1 5.37-2.37c2.89-1.55 5.88-2.9 8.56-5.16 1.45-.93 2.79-2.27 4.23-3.3 1.45-1.96 3.4-3.72 4.96-5.68a7 7 0 0 1 .61-1.23c1.35-1.55 2.27-3.2 3.51-4.75.52-1.14 1.55-2.17 1.76-3.4.51-.93 2.37-6.3 2.99-7.84a55 55 0 0 0 1.44-6.91c.1-2.27.62-4.54.52-6.92 0-2.16.2-3.81.1-5.57Zm-2.06 10.94c-.2.41 0 .93-.1 1.44a20 20 0 0 1-1.03 4.13 63 63 0 0 1-3.3 9.7c-.83 1.55-1.65 3-2.58 4.44-1.24 1.96-2.69 3.81-4.03 5.67-.51.72-1.24 1.14-1.85 1.86-.83 1.65-2.58 2.78-3.92 4.02-1.55 1.76-3.51 2.58-5.27 4.03-1.96 1.65-4.33 2.27-6.4 3.6-1.03.63-2.16.94-3.2 1.66-.82.2-1.54.72-2.47.93a44 44 0 0 1-7.53 1.44 15 15 0 0 1-4.34.83l-3.71.3a7 7 0 0 1-2.89.1 12 12 0 0 0-3.3-.1 16 16 0 0 1-6.3-.82 39 39 0 0 0-4.94-1.24c-1.96-.93-4.13-1.34-6.1-2.27a25 25 0 0 1-7.32-4.02c-1.34-1.14-2.89-1.76-4.23-3.1a19 19 0 0 1-4.74-4.65 10 10 0 0 1-1.86-2.27c-.2-.4-.72-.3-.82-.72-.93-1.65-2.07-3.3-3.1-4.95-.52-.31-.52-1.03-.83-1.44a35 35 0 0 1-2.89-5.99c-.62-1.24-.93-2.58-1.55-3.82a20 20 0 0 1-.72-3.6 9 9 0 0 0-.72-1.45c-.52-2.27-.62-4.75-.93-7.12a30 30 0 0 1-.41-3.2 16 16 0 0 1 .2-4.44c0-2.06.93-3.92 1.14-5.88a26 26 0 0 1 1.96-6.19c0-.72.62-1.23.62-2.06.93-1.96 1.44-4.13 2.58-5.98.72-1.86 2.16-3.3 2.78-5.16A25 25 0 0 1 105.2 73a14 14 0 0 1 2.79-2.68 13 13 0 0 0 1.75-1.65c1.96-1.14 3.51-3 5.47-4.13.93-.41 1.55-1.34 2.48-1.65a32 32 0 0 1 4.12-2.27c2.07-.82 3.82-2.17 6.09-2.58a42 42 0 0 1 4.95-1.03 27 27 0 0 0 3.1-.83l4.54-.61a45 45 0 0 1 6.6-.52c1.55.1 3.1.1 4.64.31l2.79.52a7 7 0 0 1 2.58.2 24 24 0 0 1 7.63 2.17c1.34.72 2.79 1.34 4.23 2.06a27 27 0 0 1 7.95 5.06c1.03 1.03 2.16 1.96 3.2 2.89 2.16 2.16 4.23 4.23 6.29 6.4.72 1.03 1.44 2.06 2.06 3.1a37 37 0 0 1 3.2 4.95 40 40 0 0 1 3.61 9.8c1.65 4.33 1.65 9.39 1.76 14.24z" transform="translate(-42.172 -48.979)"/><path id="Path_1382" fill="#bd2b30" d="M154.69 102c.2.31-.1.31-.1.72 0 .31.1.72-.2.83-.62.1-.42-.93-1.14-.62l-.93.2c-.1 1.14 0 2.79-.2 3.92 0 .52.61.21.72.73 0 .2 0 .61-.31.61s-.52.1-.72 0a2.6 2.6 0 0 1-1.96 0c-.21-.1-.21-.4-.1-.61.2-.31.82-.31.82-.73a16 16 0 0 0 0-3.81 1 1 0 0 0-1.03-.2c-.52.1-.2 1.02-.72.92l-.21-.31-.1-1.44.1-.1a47 47 0 0 0 5.37-.1c.2-.1.61-.21.72 0Z" transform="translate(-40.38 -47.428)"/><path id="Path_1383" fill="#bd2b30" d="M170.75 102.22a4 4 0 0 1-.1 1.55c-.2.1-.52 0-.72 0-.1-.1.1-.52 0-.62-.2-.31-.52-.62-.83-.62a2 2 0 0 0-1.03.62c0 1.34 2.27 1.13 2.79 2.16a1.9 1.9 0 0 1-.31 2.38 3 3 0 0 1-3.1.3c-.52 0-1.14.63-1.55.1l.51-.82c.31-.51.21-.72.62-1.13h.2c.21.93.42 1.34 1.45 1.34.62 0 1.03-.1 1.14-.42.1-.2 0-.51 0-.72-.62-.93-2.68-.82-3.1-1.85-.2-.73-.31-1.76.41-2.27a4 4 0 0 1 3.4-.31l.2.3Z" transform="translate(-39.829 -47.435)"/><path id="Path_1384" fill="#bd2b30" d="M128.45 102.1a4 4 0 0 1 .1 1.56c-.1.3-.41.2-.62.2-.41-.1-.2-.62-.62-.72a1.2 1.2 0 0 0-1.03.1c-.2.2-.2.82-.2 1.03.2.31.82.1 1.13.31.41.41.2.41.1.93s-.72 0-1.14.1a2 2 0 0 0 0 1.75 2.5 2.5 0 0 0 1.96-.4c.31-.32.42-.73.73-.83a.6.6 0 0 1 .51.3c-.2.52-.1 1.35-.62 1.76-1.44.62-3.3 0-4.95.1-.31-.1-.2-.41-.2-.62 1.13-1.03.72-3.2.72-4.64 0-.41-.62-.72-.42-1.03l.2-.1c1.04-.1 2.38.1 3.4 0a1.4 1.4 0 0 1 .94.2Z" transform="translate(-41.169 -47.428)"/><path id="Path_1385" fill="#bd2b30" d="M145.32 102.31a1.3 1.3 0 0 1-.1.62 1.4 1.4 0 0 0-.82.52c.1 1.13 0 2.37 0 3.4.2.3.72.2.82.62a.54.54 0 0 1-.2.82c-.52.2-1.55-.1-2.17 0a1.3 1.3 0 0 1-1.24-.1.5.5 0 0 1-.1-.72c.2-.52.83-.2 1.03-.72.42-.93.1-2.58.2-3.61-.1-.42-.71-.1-.92-.42-.1-.1-.41-.72-.2-.72a19 19 0 0 1 3.4 0 .33.33 0 0 1 .3.31" transform="translate(-40.605 -47.427)"/><path id="Path_1386" fill="#bd2b30" d="M117.59 102.22c0 .2-.1.2-.31.3a.5.5 0 0 0-.42.21 5 5 0 0 0 .83 2.37c.31.1.52-.2.62-.4l1.55-2.18c-.62-.3-.31-.61-.31-.61a8 8 0 0 1 2.16 0c.1.1.73-.21.62.3-.1.42-.62.32-.82.62-1.14 1.66-2.27 3.72-3.2 5.27-.31 0-.72.1-.83-.21v-.62l-1.96-4.23c-.1-.2-.41-.1-.62-.2-.2-.21-.2-.31-.1-.62.31-.31.83-.21 1.14-.42.52 0 1.44-.3 1.65.42" transform="translate(-41.45 -47.432)"/><path id="Path_1387" fill="#bd2b30" fill-rule="evenodd" d="M163.53 107.07a36 36 0 0 1-2.48-4.85c-.1-.21-.3-.52-.62-.52s-.93.1-.93.41c-.3 1.86-1.44 3.4-2.37 5.06-.31.2-.62.51-.93.72a.3.3 0 0 0 0 .41 23 23 0 0 1 2.68 0c.1 0 .31-.1.2-.2 0-.2-.2-.2-.3-.31s0-.2 0-.31c.41-.93 1.13-.73 1.75-.62.42.1 1.14-.2 1.24.62 0 .2-.41.1-.52.1a.6.6 0 0 0-.3.51c0 .2.2.2.4.2a20 20 0 0 1 2.59-.1c.51-.1-.2-.92-.42-1.13Zm-2.48-1.24a5 5 0 0 1-1.65.2c-.52-.1.52-1.23.31-1.65.1-.3 0-.82.41-.93.31 0 .31.52.42.93 0 .31.51 1.14.51 1.45" transform="translate(-40.138 -47.434)"/><path id="Path_1388" fill="#bd2b30" fill-rule="evenodd" d="M164.1 77.61c-.1-.41-.3-.41-.82-.41a3.5 3.5 0 0 0-2.06 1.34 22 22 0 0 1-2.79 1.86c-.3.2-.72.1-1.03.3a.4.4 0 0 0 .1.32 4 4 0 0 0 1.14.51c.4.21.61.93 1.23.52 0-.31-.3-.62-.1-.82 1.03-.31 1.45.2 2.17.72.1.2.2.3 0 .51-.31.1-.72.2-.93 0a.2.2 0 0 0-.2.2c0 .53.92 1.14 1.23 1.45a2.3 2.3 0 0 0 1.55 1.04c.2-.1.31-.21.31-.42-.3-.93-.62-.2-.2-1.13.2-.31.51-4.44.72-4.75a2 2 0 0 1-.31-1.24Zm-1.95 3.1c-.1.31-1.24-.41-1.45-.72-.1-.1.83-.72.83-.93a4 4 0 0 1 1.03-.72l.1.1c-.1.62-.41 1.55-.52 2.27Z" transform="translate(-40.098 -48.21)"/><path id="Path_1389" fill="#bd2b30" d="M148.72 71.71a11 11 0 0 1-.21 1.86c0 .1-.2.2-.31.2-.31 0-.72 0-.62-1.34-.62-.61-1.44-.3-1.44.42-.1 2.06-.42 2.37-.2 3.71.3.31.3.83.71 1.14a.3.3 0 0 1-.2.4c-.52.1-.93-.2-1.45-.2-.62-.1-1.34.1-1.85-.1-.21-.1-.1-.3 0-.41 1.34-.82 1.03-2.58 1.13-4.02a.5.5 0 0 0-.41-.52c-1.14-.52-.93.41-1.45.52a.5.5 0 0 1-.51 0c-.41-.31-.1-.73-.1-1.14.1-.3.1-.72.41-.72 1.45-.2 3 .1 4.44-.1.72 0 1.65-.31 2.06.3" transform="translate(-40.596 -48.396)"/><path id="Path_1390" fill="#bd2b30" d="M156.05 73.43a2 2 0 0 1 .93.62c-.1.72-1.03.3-1.34.82-.41 1.34-2.06 3-.93 4.54 0 .1 0 .31-.2.31-.62 0-1.45-.72-1.96-1.03-.52-.1-1.14-.1-1.45-.62 0-.62.83-.41 1.14-.72.82-.31.92-1.45 1.23-2.17.1-.51.52-1.03.42-1.55-.2-.3-.83-.41-.62-.93.2-.4.72 0 1.13-.1.31.31 1.24.52 1.65.83" transform="translate(-40.298 -48.358)"/><path id="Path_1391" fill="#bd2b30" d="M171.6 85.24a7 7 0 0 1 1.44 2.38c.1.3.4.61.1 1.03a1.2 1.2 0 0 1-1.04.41c-.2-.1-.1-.3-.1-.52.31-1.03-.1-1.65-.93-1.65-.2.52-1.03.31-.82.93.2.31.51.62.41.93 0 .41-.41.62-.62.72h-.2c-.31-.41-.72-.72-.83-1.23-.1-.1-.2-.21-.3-.1-.21.3-.83.51-.63 1.03.42.41.42 1.13 1.04 1.44.3.1.51-.1.72-.1.41.2 1.03-.1 1.34.31 0 .41-.41.41-.72.52a2.8 2.8 0 0 1-2.07.2c-.72-.62-.72-1.54-1.34-2.16v-.21a4 4 0 0 0-1.55-1.24c-.2-.1-.1-.3-.1-.51.31-.73.83 0 1.35-.1a13 13 0 0 0 2.88-1.55 1.4 1.4 0 0 0 .83-.72c0-.31-.2-.73-.1-1.04.2-.1.41-.2.52-.1a3 3 0 0 1 .72 1.35Z" transform="translate(-39.845 -47.999)"/><path id="Path_1392" fill="#bd2b30" d="M116.99 87.12c.1.61-.62.92-.93 1.34a2.6 2.6 0 0 0-.1 2.16c.31.52.72 1.14 1.34 1.24l1.24-.1c.1-.3.52-.52.41-.93-.1-1.03-1.03.1-1.34-.41a3 3 0 0 1 .72-1.86 2.4 2.4 0 0 1 1.76.72c.2.1.62.1.62.42v.41a17 17 0 0 1-.62 2.48 4 4 0 0 1-1.96 1.23 3 3 0 0 1-1.65.21c-.73-.62-1.86-1.03-2.07-2.06-.82-1.45-.1-3.72.83-4.85.52-.42 1.44-.83 1.75 0" transform="translate(-41.471 -47.911)"/><path id="Path_1393" fill="#bd2b30" fill-rule="evenodd" d="M128.13 126.11c-.1-.2-.31-.51-.62-.41a27 27 0 0 1-3.51 1.65 5 5 0 0 1-1.65.72c-.52.2-.93-.1-1.44-.1-.1.1-.21.2-.21.31a15 15 0 0 1 2.17 2.27c.3-.3.1-.82.4-1.13.32-.1.73.1 1.14.2.62.42 1.45 1.04 1.35 1.86-.1.2-.52.1-.62.1 0 .2-.31.2-.1.41l1.23.73c.52.3.83 1.03 1.35 1.13.2 0 .2-.3.1-.51-1.14-2.48.82-4.75.4-7.23m-2.17 3.51c-.41.1-.93-.62-1.24-.93a.6.6 0 0 1-.1-.41 6 6 0 0 1 1.96-1.24l.1.1a22 22 0 0 1-.72 2.48" transform="translate(-41.261 -46.674)"/><path id="Path_1394" fill="#bd2b30" fill-rule="evenodd" d="M167.2 127.76c-1.03-.21-.41.2-1.44-.1-.73-.21-3-1.14-3.61-1.34-.42-.21-.93-.62-1.45-.21-.2.72.2 1.34.2 2.06.32 1.14.83 3 .42 3.4-.41.52-.72.93-.41 1.34.3.1.51-.2.72-.3a7 7 0 0 0 1.65-1.35c-.1-.41-.52-.1-.72-.41-.2-.52.62-.72.82-1.14.42-.2.62-.82 1.24-.82.62.2 0 .62 0 1.03 0 .1.1.2.2.1a14 14 0 0 0 2.38-1.96c.1 0 .1-.2 0-.3m-4.95 1.96a3.4 3.4 0 0 1-.52-2.17c.1-.1.52.2.62.3l1.24.53c.1.1.3.1.3.2-.4.41-1.02 1.24-1.64 1.14" transform="translate(-39.995 -46.666)"/><path id="Path_1395" fill="#bd2b30" d="M121.2 118.32v.31a19 19 0 0 0-1.04 4.33c.1.21.72-.51.83-.51.62-.31 1.13-1.03 1.75-1.24.41.1.52.31.72.62.2.41.73.82.62 1.34-.41.41-.62-.41-1.13-.31a8 8 0 0 0-2.48 1.34c-.41.62-1.13.83-1.65 1.34-.2-.1-.72 0-.72-.3.1-1.45.93-3 .72-4.44-.2-.21-1.55 1.03-1.75 1.13-.73.52-.42.52-.62 1.34-.2.1-.42-.1-.62-.3-.2-.42-.31-.83-.52-1.25-.2-.2-.51-.4-.41-.72a3 3 0 0 0 1.86-.2 24 24 0 0 0 3.1-2.38c0-.2-.31-.41-.21-.62a.6.6 0 0 1 .72-.1 1.1 1.1 0 0 1 .83.62" transform="translate(-41.445 -46.929)"/><path id="Path_1396" fill="#bd2b30" d="M169.57 119.02c.2.2.41.41.2.62a5 5 0 0 0-2.16.72c-.2.2-.62.41-.73.83a1.8 1.8 0 0 0 1.24.93c.62-.21-.2-1.14.62-1.14a1.04 1.04 0 0 1 1.14.62c0 .1.1.2 0 .31-.2.2-.73 0-.83.41 0 .2 0 .73.2.83a.8.8 0 0 0 .94.3c.41-.1.62-.61.82-.92.31-.62-.41-1.03-.72-1.45a.6.6 0 0 1 .41-.61c.83.2 1.34.82 2.07 1.13.1.2-.1.52-.21.62a39 39 0 0 1-3.3 3.92c-.1.1-.31.31-.52.2-.4-.3.42-.92.21-1.23a10 10 0 0 0-2.89-2.48c-.62-.2-.72.1-1.03.52a.6.6 0 0 1-.72.1c-.2-.1-.2-.31-.2-.52.2-.62.92-1.03 1.33-1.55.62-1.03 1.34-1.65 2.06-2.68.93-.51 1.45.31 2.07.52" transform="translate(-39.886 -46.907)"/><path id="Path_1397" fill="#bd2b30" d="M132.95 128.9c1.55.52 3.1 1.14 4.75 1.55.2.1.4.3.61.41.1.62-.4.93-.51 1.45a.5.5 0 0 1-.52 0c-.41-.42-.3-1.55-1.24-1.35-.61.21-.72 1.04-.92 1.55a8 8 0 0 0-.73 2.27 7 7 0 0 0 .83 1.03c.1.1-.1.31-.2.42-.52 0-.83-.31-1.24-.42-.83-.3-1.76-.2-2.38-.72-.1-.1 0-.2 0-.3a4 4 0 0 0 1.03-.42c.73-.83.83-1.96 1.35-2.89.1-.31.51-.62.3-1.03a4 4 0 0 0-.92-.42c-.52.31-.72.83-1.14 1.14-.1 0-.41-.1-.41-.2a5 5 0 0 1 .62-2.17c.2 0 .51.1.72.1" transform="translate(-40.923 -46.575)"/><path id="Path_1398" fill="#bd2b30" d="M145.54 131.51c-.1.2.1.41.2.52.2.1.52.1.52.4a4.8 4.8 0 0 1-.72 3.62 1.3 1.3 0 0 1-1.45.31c-1.24-.72-.41-2.06-.62-3.2 0-.41-.2-1.03.21-1.34.1-.1.31-.1.41-.31 0-.1 0-.2-.2-.31a18 18 0 0 1-2.38 0c-.2 0-.4.1-.4.2a.3.3 0 0 0 .2.42c.3 0 .41.2.51.51.42 1.65-.41 3.3.52 4.75a4.8 4.8 0 0 0 3.4.52c2.06-1.04 1.03-3.4 1.75-5.16.2-.2.72-.1.83-.31a.7.7 0 0 0 .1-.62 8 8 0 0 0-2.27-.1c-.2 0-.42-.1-.62.1Z" transform="translate(-40.615 -46.5)"/><path id="Path_1399" fill="#bd2b30" fill-rule="evenodd" d="M159.28 132.9a.64.64 0 0 0-.72-.2c-.42.1-.42.52-.52.72-.1.42-.62.31-.93.42-.3-.1-1.34-.73-1.13-1.04a1.86 1.86 0 0 0 .1-2.37c-.62-1.34-2.37-1.03-3.4-.62-.83.52-1.76.72-2.48 1.24-.1.2 0 .41.2.62.32.3.73-.1 1.04-.1a5 5 0 0 1 .83 1.34 23 23 0 0 1 .82 2.48c.1.51-.41 1.03 0 1.34.52-.21 1.03-.31 1.55-.52.51-.31-.41-1.55-.31-1.96a.5.5 0 0 1 .41-.2 9 9 0 0 0 2.06.92c1.24 0 2.07 0 2.58-1.24 0-.2.21-.61-.1-.82Zm-4.44-.3c-.2.2-.62.4-.82.3-.31-.2-1.24-1.95-.72-2.16a1.7 1.7 0 0 1 1.75.62 2.4 2.4 0 0 1-.2 1.24Z" transform="translate(-40.327 -46.554)"/><path id="Path_1400" fill="#bd2b30" d="M127.35 58.6c0 .93.62 1.34.31 2.17-.2.2-.1.3-.41.3-.1-.1-.31 0-.41-.1a1.3 1.3 0 0 0-.83-.92c-.41 0-1.75.51-1.96 1.03a1 1 0 0 0 .1.93c1.14 1.13 2.58 0 3.72-.1a3 3 0 0 1 1.34.62 3.3 3.3 0 0 1 .82 2.99c-.62 1.14-1.65 2.37-3.1 2.27-.51.1-.93-.52-1.34-.1 0 .31.1.62-.2.83a1 1 0 0 1-.73-.1c-.3-.42.1-.93 0-1.35-.1-.51-.51-.82.1-1.23.83-.1 1.55 1.03 2.17.82a1.8 1.8 0 0 0 1.24-1.03 1 1 0 0 0 0-.93 1 1 0 0 0-.83-.41c-.82.1-1.34.82-2.16.72a2.8 2.8 0 0 1-2.17-1.24 2.8 2.8 0 0 1-.52-2.37 3.4 3.4 0 0 1 1.65-1.76 3.5 3.5 0 0 1 1.76-.3c.62-.1.41-1.14 1.24-.83z" transform="translate(-41.207 -48.804)"/><path id="Path_1401" fill="#bd2b30" d="M168.15 61.62c.3.3.3.93.92 1.03.31 0 .73-.1.83.31-.31.62-.93.83-1.45 1.24l-.61.51c-.1.1-.31-.1-.31-.2-.42-.83.4-.93-.1-1.55a1.8 1.8 0 0 0-.93-.82.7.7 0 0 0-.62.4c-.52.94.2 1.66.51 2.48a4 4 0 0 1 .73 1.55 2 2 0 0 1-.73 2.07 3.2 3.2 0 0 1-2.88.51 5 5 0 0 1-1.55-1.03l-.62-.93c-.42-.1-.83 0-1.14-.31-.1-.2 0-.41.2-.62l1.66-1.75a.5.5 0 0 1 .52 0c.2.1.2.3.3.51 0 .52-.61.83-.51 1.45-.1.72.62 1.13 1.14 1.44a1.5 1.5 0 0 0 1.13 0 .87.87 0 0 0 .41-1.13c0-.93-1.13-1.34-1.24-2.17-.1-.72-.4-1.75.1-2.37a3.1 3.1 0 0 1 3.3-1.14c.21-.1.62.2.93.52Z" transform="translate(-40.01 -48.722)"/><path id="Path_1402" fill="#bd2b30" d="M117.22 64.1c.1.73-.62 1.04-.1 1.66.62 1.13 1.96 1.96 2.48 3.1.3.41.51.93 1.03 1.13.51.31 1.24-.51 1.44.21-.2.62-1.03.83-1.44 1.24a6 6 0 0 0-1.65 1.65.6.6 0 0 1-.62.1c-.41-.62.41-1.45.1-2.17-.2-.51-.72-.93-.93-1.34a9 9 0 0 0-3-3c-.4-.2-1.03.42-1.23-.1 0-.4.41-.61.62-.82a14 14 0 0 0 2.48-1.86c.3-.1.72-.1.83.2Z" transform="translate(-41.495 -48.633)"/><path id="Path_1403" fill="#bd2b30" d="M172.29 67.11a1.8 1.8 0 0 1 .4 1.75 1.5 1.5 0 0 1-1.33 1.24c-.62 0-1.45 0-1.76-.72a1.9 1.9 0 0 1 .31-1.75c.31-.31.62-.73 1.04-.83a5 5 0 0 1 1.34.31" transform="translate(-39.715 -48.539)"/><path id="Path_1404" fill="#bd2b30" d="M110.7 69.92a1 1 0 0 1 0 .73c-.2.2-.4.51-.72.4-.2-.1-.61-.5-.82-.3s-.72 1.24-.52 1.34a1.6 1.6 0 0 0 1.14.41c1.03-.1 2.37-1.34 3.5-.93a2.5 2.5 0 0 1 2.59 2.38 5 5 0 0 1-.21 1.75 3.6 3.6 0 0 1-2.17 2.06c-.2 0-.41-.1-.62 0-.3.31-.1.83-.51 1.03-.73.21-.83-.72-1.14-1.13a6 6 0 0 1-.51-1.44c0-.1.2-.1.3-.21 1.24-.52 1.14 1.34 3-.1a1.2 1.2 0 0 0 .41-1.03c-.3-.42-.1-1.34-1.34-1.03-1.24.2-2.17.82-3.3 1.03a2.7 2.7 0 0 1-2.17-1.03 2.6 2.6 0 0 1-.1-2.48c.42-.52 1.34-2.37 1.76-2.17a3 3 0 0 1 1.44.72Z" transform="translate(-41.687 -48.464)"/><path id="Path_1405" fill="#bd2b30" d="M104.76 75.8c.2.41-.2.72-.1 1.24a2.6 2.6 0 0 0 1.86 1.96c1.44.93 2.68 1.96 4.23 2.79a.6.6 0 0 1 .1.4c-.73.73-1.55.53-2.48.53a13 13 0 0 0-4.44.61 3 3 0 0 0 1.45 1.04 2.2 2.2 0 0 0 2.06.82c.41 0 .41-.62.83-.51a.5.5 0 0 1 .2.61 39 39 0 0 0-1.75 3.61c-.1.21-.31.31-.52.1-.41-.3 0-.82-.1-1.23 0-.93-.93-1.34-1.55-1.86a7 7 0 0 0-3.71-1.34c-.52 0-.72.62-1.24.52-.3-.21 0-.62.1-.93a2.5 2.5 0 0 1 1.86-1.65 18 18 0 0 1 4.85-.83c.3 0 .41-.2.62-.41a9 9 0 0 0-2.07-1.45 3 3 0 0 0-1.23-.62c-.31.1-.52.52-.93.31-.2-.1-.42-.2-.42-.51s.31-.41.31-.62c.52-.93.62-2.06 1.55-2.68.1-.1.31 0 .52.1" transform="translate(-41.933 -48.259)"/><path id="Path_1406" fill="#bd2b30" d="M98.8 90.31c.31.42 1.24.1 1.14.83-.31.41-1.24 0-1.66.2a1.6 1.6 0 0 0-.72 1.66 1 1 0 0 0 .41.83c.41.1 1.34.51 1.65 0a8 8 0 0 1 .1-1.66c.42-.1.42.1.83.1s1.03 0 .93.21c-.42.83-.42 1.24-.93 1.75 0 .1.1.1.2.21.93-.1 1.86.52 2.69.62a17 17 0 0 0 .3-2.27c.1-.93-1.54-1.34-1.23-2.37a.54.54 0 0 1 .72-.21c.62.31 1.24.31 1.65.93.62.82.1 2.58-.2 3.4-.52 1.03-.62 4.02-.73 4.23a.7.7 0 0 1-.62 0c-.72-.52-.1-1.96-1.75-2.06a21 21 0 0 1-4.23-1.04c-.83-.1-.62 1.35-1.55.93-.62-.82.83-5.26 1.14-6.5.1-.2.1-.2.3-.2a7 7 0 0 1 1.55.41Z" transform="translate(-42.054 -47.807)"/><path id="Path_1407" fill="#bd2b30" d="M95.95 102.93c1.23.3 2.78.1 4.02.3.83 0 1.76.21 2.27-.51.1-.2.2-.52.41-.62.21 0 .52-.1.73.1l.1.2a10 10 0 0 0 .1 3.51.9.9 0 0 1-.31.83c-.73.1-1.04-1.13-1.76-1.24a14 14 0 0 0-4.23-.2c-.93-.1-1.34.61-1.96 1.23-.1.1-.72 0-.72-.4a10 10 0 0 1-.1-3c.1-.41 0-.93.52-1.03s.4.62.92.82Z" transform="translate(-42.093 -47.422)"/><path id="Path_1408" fill="#bd2b30" d="M103.23 110.2c.3.1.72-.1.82.32-.1.62.2 1.03.2 1.55.32 1.13 1.35 4.33 1.35 4.74a1.2 1.2 0 0 1-.52.52c-1.03.1-.41-.93-1.55-.72a25 25 0 0 1-4.85 1.03c-.2.1-.4.1-.51.3 0 .32.1.73-.31.83-.42 0-.62-.41-.83-.62-.41-1.03-1.44-2.06-1.03-3.3.1-.2.31-.2.62-.3.62 0 .52 1.03 1.13.92a18 18 0 0 1 2.48-.3c.83-.52 3.2.1 3-1.04-.52-3.3-1.56-2.58-2.59-3.71-.3-.31.31-.31.52-.42a4.4 4.4 0 0 1 2.06.21Z" transform="translate(-42.046 -47.173)"/><path id="Path_1409" fill="#bd2b30" d="M185.59 111.73c1.23.83 2.89.83 4.43 1.14.62.1 1.24.62 1.76.2a3 3 0 0 1 .62-.82c.3 0 .61.1.61.41-.1.72-.51 1.34-.61 2.06a9 9 0 0 0-.93 3.3c-.1.21-.2.52-.52.62a7 7 0 0 1-2.16-.2c-.21-.1-.52-.62-.31-.62 1.75 0 2.58-2.37 2.47-2.58-.1-.31-1.65-.31-2.27-.52-.41-.1.31 1.34-.51 1.55-.62.1-.31-.1-.93-.1a1.2 1.2 0 0 1-.52-.51.6.6 0 0 1 .2-.73c.1-.1.21-.1.32-.3.1-.32-.31-.42-.52-.52-.72-.1-1.86-1.04-2.27-.42-.2.93-.72 2.07.62 3.4.1.1 0 .31-.2.31l-.42-.1-1.55-1.03c-.3-.3-.1-.82 0-1.24a27 27 0 0 1 1.03-3.1 3 3 0 0 1 .73-1.23c.62 0 .3.82.93 1.03" transform="translate(-39.295 -47.148)"/><path id="Path_1410" fill="#bd2b30" d="M182.04 120.4v.63a8 8 0 0 0 3.3 2.17 17 17 0 0 0 2.89 1.75c.3.2.51.41.3.82-.92 1.04-2.68.62-4.02.62a3 3 0 0 0-.93-.2c-.2.2.31.93.42 1.13.51 1.03 1.03 1.65 1.54 2.68 0 .21-.1.31-.2.52-.93.1-1.65-.62-2.48-1.03-.51-.2-.82-.62-1.24-.72-.92-.31-2.16-1.55-3.1-.93-.3.2-.62 0-.93-.2a5 5 0 0 1 .83-2.07c.41-.2.2-1.03.82-.72s-.1 1.13.62 1.23a18 18 0 0 1 3.61 2.07c.21.1-2.06-3-2.06-3.72 0-.3 4.23.31 4.23.1a14 14 0 0 0-2.68-1.44c-.62 0-1.34-1.03-2.17.41-.1.2-.51 0-.62-.2.1-.31.31-.52.42-.83.4-.72.2-1.86 1.13-2.27 0-.2.1 0 .31.2Z" transform="translate(-39.458 -46.85)"/><path id="Path_1411" fill="#bd2b30" d="M176.09 131.04c.3.82 1.34 1.03 1.96 1.65 1.03.72 1.65 2.27 2.99 2.27.51 0 1.13-.31 1.34.1.2.72-.62.72-.93 1.03-.52.62-1.13 1.14-1.65 1.76a.5.5 0 0 1-.52 0c-.2-.31.31-.83.1-1.14a9 9 0 0 0-2.06-1.75c-.93-.73-1.24-1.55-2.37-1.96-.62-.21-1.24.72-1.65 0 0-.93.93-1.34 1.34-2.07.41-.3.62-.82 1.03-1.13.52.2.2.93.41 1.24Z" transform="translate(-39.594 -46.543)"/><path id="Path_1412" fill="#bd2b30" d="M115.46 133.36a2.2 2.2 0 0 0 1.65 1.86c.1.2-.1.41-.3.52a6 6 0 0 1-1.45.2c-.41.41-.52.2-1.03.41a.4.4 0 0 1-.52-.2v-.2c.41-.32.62-.42.72-.93.1-.83-.72-1.55-1.34-1.96a1 1 0 0 0-.93.1c-.4.3-.2.82 0 1.34a7 7 0 0 1 .42 2.16 3.2 3.2 0 0 1-.93 2.58 2.8 2.8 0 0 1-2.07.52c-.61 0-1.13-.62-1.54-1.03a22 22 0 0 1-1.24-2.07c0-.51.51-.62.82-.82l1.14-.31c.62.41-.31.72-.31 1.13a1.4 1.4 0 0 0 .72 1.45 1.5 1.5 0 0 0 1.34-.1c.31-.2.1-.62.2-1.03-.2-1.35-1.13-2.58-.71-4.13a2 2 0 0 1 .92-1.34 4 4 0 0 1 3.82.92 2.4 2.4 0 0 1 .62.93" transform="translate(-41.698 -46.495)"/><path id="Path_1413" fill="#bd2b30" d="M162.7 141.51c-.1.42-.83.52-.52.93.3.72.2 1.55.82 2.17.31.82.62 2.27 1.34 2.89.42.51.93-.1 1.45 0a.7.7 0 0 1 .3.62c-.2.61-.92.4-1.33.61-1.34.52-2.9 1.14-4.13 1.66-.31.1-.41.82-.93.51-.52-.51-.52-1.34-1.03-1.96 0-.2-.1-.41.1-.51.3-.1.51.2.72.3.41 0 .41.62.83.42a6 6 0 0 1 1.44-.72l-.62-1.76a.8.8 0 0 0-.62-.2c-.41.3-.2.82-.62 1.03-.2 0-.3-.2-.41-.42a2 2 0 0 1-.31-1.54c.41-.42.82.2 1.34.1.2-.1.1-.42 0-.62-.62-.52-.41-2.27-1.65-1.76-.52.2-1.24.42-1.44 1.04-.21.3-.1.92-.62 1.03-.2 0-.42 0-.42-.2-.1-.42.1-.63.21-.94 0-.3-.31-.93.1-1.13 1.24-.52 2.58-.72 3.82-1.24.41-.2 1.34-.93 1.85-.62l.31.3Z" transform="translate(-40.13 -46.185)"/><path id="Path_1414" fill="#bd2b30" fill-rule="evenodd" d="M191.8 91.49a.7.7 0 0 0-.63-.41c-.82.3-1.54-.1-2.37-.1-.3-.1-3.3-.2-4.43-.73a2.3 2.3 0 0 1-1.24-1.34c-.1-.3-.72-.51-.83-.2a2 2 0 0 0 .2 1.55c.32.72.42 1.23.73 1.96a.4.4 0 0 0 .52.2c.2 0 .2-.82.1-1.03.1-.2.51.1.72.1a1.2 1.2 0 0 1 .82.31c.2.52.31 1.44.52 1.96 0 .41.2.83.1 1.24-.1.2-.62.62-.93.51-.41-.1-.52-.72-.93-.72-.3.1-.2.42-.2.62.2.52.1 2.58.4 3.1.1.2.32.52.63.41.93-.61 0-.61.82-1.34.93-.72 4.23-3.71 4.85-4.02a4 4 0 0 0 1.14-1.14 3 3 0 0 0 0-.92Zm-5.17 2.68c-.2 0-.2-.2-.3-.3l-.31-2.07c.51-.41 2.47.2 3.3.2.62 0-2.17 1.76-2.69 2.17" transform="translate(-39.311 -47.85)"/><path id="Path_1415" fill="#bd2b30" fill-rule="evenodd" d="M180.59 71.5c-.1-.3-.42-.3-.73-.3-2.06.62-3.92 1.65-5.88 2.37a4 4 0 0 1-1.85-.2c-.21 0-.62-.21-.83 0a.64.64 0 0 0 .2.72c.83.51 1.35 1.85 2.17 1.85.42 0-.1-.61.52-.92.93-.42 1.75.82 2.27 1.54a1.5 1.5 0 0 1-.1.93c-.1.2-.41 0-.72 0-.2 0-.41-.3-.62 0 0 .1-.1.42 0 .52a4 4 0 0 1 1.55 1.65c.3.2.51.93.82.72.52-.41.2-.72.2-1.13.1-.93.94-2.07 1.35-3.3.3-1.65 1.44-3.1 1.65-4.44Zm-3.51 3.72c-.52 0-1.03-.72-1.34-1.13a12 12 0 0 1 2.16-1.34c.52-.1-.51 2.27-.82 2.47" transform="translate(-39.659 -48.4)"/><path id="Path_1416" fill="#bd2b30" fill-rule="evenodd" d="M173.56 143.06a37 37 0 0 1-1.13-4.85 7 7 0 0 1-.1-2.06 6 6 0 0 0 .72-1.34.6.6 0 0 0-.51-.31 6 6 0 0 1-1.76 1.14c-.3.51-.62.2-.82.82.1.31.51.31.82.31.31.1.2.41.2.62a5 5 0 0 1-2.06 1.75.6.6 0 0 1-.51-.3c-.41-.42-.1-.52-.2-1.04a.5.5 0 0 0-.42-.2c-.72.61-1.65.92-2.37 1.65-.21.2-.52.2-.42.51a3 3 0 0 0 .42.72.7.7 0 0 0 .62 0c1.54-.82 2.47 1.34 3.7 2.07.94.2 2.28 1.85 2.9 1.75a2 2 0 0 0 1.24-.62c.1-.1-.21-.3-.31-.62Zm-1.65-.93c-.41-.1-1.75-1.75-2.06-1.85-.1-.1-.2 0-.31-.2v-.22c.31-.3 1.55-1.54 1.86-.61.1.4.62 2.16.72 2.58.1.2 0 .3-.2.3Z" transform="translate(-39.858 -46.394)"/><path id="Path_1417" fill="#bd2b30" fill-rule="evenodd" d="M110.49 127.44c-.41-.83-.93-2.48-1.45-2.48-.72 0 0 1.14-.62 1.55a1 1 0 0 1-.92.1c-.73-.31-.73-.62-1.14-1.55-.2-.41-.72-.82-.3-1.34.3-.3.4-.82.92-.82.2 0 .2.3.31.4.1.22.2.63.62.53a.33.33 0 0 0 .3-.31c-.1-.93-.82-1.55-1.13-2.38-.4-.41-.2-1.34-1.03-1.44-.51.2-.1.82-.3 1.24-.63.72-1.04 1.54-1.76 2.27-.62.72-1.24 1.65-1.96 2.37l-.72 1.24c-.1.3-.42.82 0 .93 2.27.2 4.23.1 6.29.1.82 0 1.86-.21 2.48.51.2.2.3.52.61.62a.5.5 0 0 0 .62-.1c-.1-.62-.62-1.03-.82-1.44m-5.16-.72a13 13 0 0 0-2.06.1c-.1-.1 1.44-1.55 1.44-1.65.41-.42.72.51.72.51s.2.83.52.93a4 4 0 0 1-.62.1Z" transform="translate(-41.882 -46.863)"/><path id="Path_1418" fill="#bd2b30" d="M179.72 85.2a5 5 0 0 1-.62-1.97c0-.51.41-1.03.52-1.54a4 4 0 0 1 1.34-1.55 5 5 0 0 1 1.85-.93c.62 0 1.34-.31 1.86-.31a3.4 3.4 0 0 1 1.45.41c.51.2.72.62 1.13 1.03 1.24 1.65 1.44 3.51.82 3.82l-.2.1-.72.31c-.31.2-.52.2-.62.31a.4.4 0 0 1-.31.1h-.2a.1.1 0 0 1-.1-.1c0-.1.1-.2.3-.52.1-.1.2-.2.2-.3.32-.42.52-.42.63-.73a4 4 0 0 0 0-1.13 1.7 1.7 0 0 0-1.14-1.34 3.3 3.3 0 0 0-2.17.2 4 4 0 0 0-2.06 1.14 1.9 1.9 0 0 0-.41 2.06c.1.31.1.41.3.52.1.4 1.25 1.85 1.56 1.75.3.2-.2.62-.2.62-.42-.1-2.59-.83-3.2-1.96Z" transform="translate(-39.41 -48.156)"/><path id="Path_1419" fill="#bd2b30" d="M129.48 150.96a1 1 0 0 1-.41-.31.2.2 0 0 1 0-.31c.1-.2.72-.2.72-.2.2 0 .41-.42.72-1.14a11 11 0 0 0 .62-1.96c0-.1.2-.93.2-1.03a1.8 1.8 0 0 0-.1-1.35 1.5 1.5 0 0 0-.92-.82 1.7 1.7 0 0 0-1.24 0c-.41.2-.72.3-.83.82a4 4 0 0 1-.51.83l-1.03 1.96c-.31.82-.52 1.44-.42 1.55 0 .1.1.1.2.2.22.2.42.52.32.62a.2.2 0 0 1-.2.2h-.32l-2.27-.92c-.1-.1-.2-.1-.3-.2a.2.2 0 0 1 0-.32.5.5 0 0 1 .4-.2s.62.1.73.1 1.44-2.68 1.44-2.68c0-.1.62-1.45.72-1.66a2.3 2.3 0 0 1 1.34-1.44 3 3 0 0 1 2.27.2 4.3 4.3 0 0 1 2.27 1.45 5.4 5.4 0 0 1 .31 3.1 10 10 0 0 1-.3.93l-.32 1.65c0 .1-.1.52-.1.62s-.1.41-.1.51.21.31.21.31a.6.6 0 0 1 .2.52.2.2 0 0 1-.2.2h-.31z" transform="translate(-41.168 -46.139)"/><path id="Path_1420" fill="#bd2b30" fill-rule="evenodd" d="M202.71 100.89c-.41-2.17-.41-4.54-1.24-6.6a61 61 0 0 0-2.99-9.9 19 19 0 0 0-1.86-3.5c-.41-.83-.93-1.66-1.34-2.48-.93-1.14-1.34-2.58-2.16-3.72-1.14-1.13-1.86-2.58-2.9-3.81-.92-1.35-2.26-2.48-3.3-3.82-.92-.42-1.23-1.55-2.16-2.07-.31-.72-1.24-.82-1.65-1.54-1.14-1.04-2.17-2.17-3.4-3.1-1.86-1.55-4.13-1.96-5.88-3.61l-1.55-.73c-1.34-1.03-2.89-1.34-4.33-2.16a55 55 0 0 0-3.72-1.65 17 17 0 0 0-2.99-.93c-.31 0-.52-.31-.72-.2-2.48 0-4.54-.94-6.81-1.25-2.06-.1-4.13-.41-6.2-.72a22 22 0 0 0-2.67.1 40 40 0 0 0-4.96.41c-2.37.42-4.84.62-7.01 1.65l-7.12 2.48a5 5 0 0 1-1.65.62c-1.44.41-2.58 1.34-4.02 1.75-1.55.93-3.2 1.34-4.54 2.58a15 15 0 0 0-4.23 2.68 21 21 0 0 0-4.34 3.1c-1.34 1.66-3.1 2.8-4.43 4.34-.52.72-1.14 1.44-1.55 2.16a24 24 0 0 0-1.96 2.58 18 18 0 0 0-2.06 2.79c-.72 1.34-1.65 2.68-2.38 4.02a24 24 0 0 1-1.23 2.9 24 24 0 0 0-1.66 3.7c-.41 1.34-1.03 2.69-1.34 4.13-.1.52-.52.93-.41 1.44a18 18 0 0 0-.73 3.4c-.1 1.86-.72 3.51-.72 5.37 0 1.55-.1 3.2-.1 4.74.1 2.58 0 5.27.31 7.85a17 17 0 0 0 .52 3.3 64 64 0 0 0 2.47 8.66 58 58 0 0 0 2.27 5.88 12 12 0 0 1 1.86 3.2 29 29 0 0 0 2.37 3.82c.1.41.73.62.73 1.13a16 16 0 0 1 1.54 2.17c.73.72 1.24 1.55 2.07 2.27.2.62.93 1.03 1.24 1.55.61.62 1.44 1.03 1.85 1.75 1.14.42 1.86 1.55 2.9 2.38a38 38 0 0 0 8.04 5.46c1.24.52 2.47 1.35 3.71 1.86 1.65.83 3.4 1.45 5.06 2.27 1.55.2 2.78.93 4.33.93.62 0 1.03.41 1.65.41 2.06.42 4.13 1.04 6.2 1.34 3.3.1 6.8.73 10.1.1a43 43 0 0 0 12.8-1.75c1.85-.72 3.81-1.13 5.77-1.86 2.27-1.23 4.75-1.96 6.91-3.2.62-.2 1.14-.72 1.65-.82a46 46 0 0 0 4.65-3.2 58 58 0 0 0 6.4-4.85 47 47 0 0 0 4.95-6.19 38 38 0 0 0 4.33-6.5 3 3 0 0 0 .42-.72 7 7 0 0 1 .61-1.55c.52-1.75 1.66-3.2 2.17-4.95a25 25 0 0 0 .93-3 48 48 0 0 0 1.65-5.46c.62-3.4 1.34-6.81 1.65-10.32.72-2.58.2-4.85.2-7.12Zm-1.55 9.08a64 64 0 0 1-1.55 9.08c-.2 2.27-1.54 3.82-1.96 5.98-.51 1.24-.72 2.9-1.54 4.03-.93 1.75-1.76 3.3-2.58 5.05-1.14 2.17-5.88 9.9-10.53 12.8a93 93 0 0 0-5.15 3.81l-2.17 1.45c-1.14.2-1.76 1.23-2.79 1.75a11 11 0 0 1-2.27 1.03 31 31 0 0 1-7.12 3.1c-1.85.83-4.02 1.03-5.88 1.86a166 166 0 0 1-7.53 1.03c-2.58 0-5.16.52-7.63.1a18 18 0 0 0-4.75-.31c-.72.1-1.24-.31-1.86-.41a42 42 0 0 0-5.15-1.04c-2.07-.4-4.03-1.23-5.99-1.75a7 7 0 0 0-1.34-.52c-1.96-1.23-4.23-1.85-6.19-3.2l-.41-.2c-1.55-1.24-3.2-2.17-4.75-3.2-1.75-1.44-3.71-2.58-5.46-4.23a30 30 0 0 1-3-3.3 23 23 0 0 1-2.16-2.27c-1.45-1.55-2.17-3.4-3.51-5.06a44 44 0 0 1-2.58-4.85 41 41 0 0 1-1.65-3.7c-.72-1.97-1.14-4.14-2.06-6.1a27 27 0 0 1-.93-4.12 28 28 0 0 1-.62-6.6 13 13 0 0 1-.1-4.03 2.7 2.7 0 0 1 .1-1.54c-.2-1.04.3-2.07 0-3.1 0-1.86.62-3.3.62-5.27.2-1.13.51-2.37.61-3.6a12 12 0 0 1 .83-2.07 20 20 0 0 1 1.03-3.5A24 24 0 0 1 95 83.03a35 35 0 0 0 2.06-4.43c1.14-1.55 1.86-3.2 3.3-4.65a19 19 0 0 1 2.79-3.71c.41-1.14 1.65-1.86 2.47-2.79a25 25 0 0 1 5.68-4.23c1.24-.72 2.37-1.75 3.71-2.47.2-.31.62-.31.93-.52a41 41 0 0 1 6.5-3.71 57 57 0 0 1 9.08-3.4 17 17 0 0 0 3.3-.93 22 22 0 0 0 2.79-.62 13 13 0 0 0 2.89-.62c2.06-.31 4.12.2 6.29.2.82.1 1.65-.2 2.48-.1a8 8 0 0 0 1.54-.1 35 35 0 0 1 4.75.52c.72.2 1.55.41 2.27.62 1.03 0 1.86.62 2.79.83 1.03.4 2.06.4 3.1.72 2.47 1.03 5.05 1.96 7.53 3.1 1.75 1.34 3.81 1.85 5.57 3.4a64 64 0 0 1 4.23 2.99 15 15 0 0 1 1.85 1.75c.93.93 1.86 1.76 2.69 2.58.82.72 1.44 1.55 2.27 2.17.72.82 1.34 1.75 2.06 2.58a46 46 0 0 1 4.13 6.19 19 19 0 0 1 2.58 4.43 62 62 0 0 1 2.47 6.92c.52 2.06 1.34 3.92 1.76 5.98a43 43 0 0 1 .61 5.26 17 17 0 0 1 .1 4.54 15 15 0 0 1-.4 4.44Z" transform="translate(-42.284 -49.1)"/><path id="Path_1421" fill="#bd2b30" fill-rule="evenodd" d="M193.27 100.2c-.62-.92-.72.53-.93.83a7 7 0 0 1-2.16.42c-1.45-.31-2.48.3-3.92 0-.21-.1-.73.2-.83-.2-.2-.32-.41-.63-.82-.63a.2.2 0 0 0-.21.2 25 25 0 0 1 .31 3.93 7 7 0 0 0 1.96 3.1 5 5 0 0 0 2.79.62 4.2 4.2 0 0 0 2.47-1.34l.83-1.04c.2-.3.1-.61.3-.92a18 18 0 0 0 .32-2.58 18 18 0 0 0-.1-2.38Zm-1.55 5.06c-1.03 1.45-2.99 1.14-4.43.93a2.2 2.2 0 0 1-1.24-1.13c-.1-.31-.2-1.14 0-1.34a4 4 0 0 1 2.37-.1c.72.1 3.1-.31 3.4 0a9 9 0 0 1-.1 1.65Z" transform="translate(-39.243 -47.491)"/></g><path id="Rectangle_32" fill="none" d="M0 0h299.6v299.6H0z"/></g></g></svg>