<svg xmlns="http://www.w3.org/2000/svg" xmlns:xlink="http://www.w3.org/1999/xlink" width="600" height="300" viewBox="0 0 600 300"><defs><clipPath id="clip-Logo"><path d="M0 0h600v300H0z"/></clipPath></defs><g id="Logo" clip-path="url(#clip-Logo)"><path fill="#e8eff3" d="M0 0h600v300H0z"/><g id="Gå_till_startsidan" transform="translate(200 50)"><path id="path44" fill="#fff" d="M100.5 1A99.5 99.5 0 1 1 1 100.5 99.5 99.5 0 0 1 100.5 1"/><path id="path46" fill="#fff" d="M62.59 74.12a.84.84 0 0 1-1.04-.55.85.85 0 0 1 .7-.94.77.77 0 1 1 .34 1.5Zm-7.71-13.68c1.42.1 1.66.47 1.8.86s.04.68-.9 2.45c-.06.14.3.32.4.22 4.77-5.53 12.48-3.1 14.06-2.5 1.8.66 1.5 1.6 1.22 1.91-1.1 1.28-5.19 3.6-6.04 3.95s-1.14.3-1.66-.23a7 7 0 0 1-.98-2.36c-.07-.2.01-1.77 0-1.96-.02-.16-.42-.2-.47-.03s-.37 1.39-.44 1.59a.6.6 0 0 1-.52.33c-.2-.03-2.1-.63-2.24-.67-.13-.01-.28.3-.16.39.1.08 2.04 1.32 2.44 1.57a2.7 2.7 0 0 1 .82 1.77.67.67 0 0 1-.54.79 11 11 0 0 1-2.94-.67c-.43-.17-.85-1.27-.92-1.45s-.5-.12-.5.1a5 5 0 0 1-.08 1.33q-.3.6-2.06.84c-.2.03-.17.55.03.55 1 .02 1.3.45 1.39.74s0 .37-.54 1.7c-.1.26.37.4.47.29a5.1 5.1 0 0 1 4.75-2.04c.44.02.64.07.44.32a57 57 0 0 1-6.5 6.85.9.9 0 0 0-.12 1.17l1.25 1.8a.3.3 0 0 0 .38.08 56 56 0 0 1 5.92-2.21c2.06 3.43 3.67 5.62 5.02 5.23s1.8-2.32 1.8-2.32a5.6 5.6 0 0 0 2.44 1.97c.13.05.2-.05.2-.17V72.28h-4.16a.6.6 0 0 1-.37-.12c-3.1-2.07-3.54-2.4-2.69-2.86l.6-.26c5.17-2.36 8.1-4.59 8.1-6.16 0-1.7-1.81-4.7-3.65-6.08-.1-.09-.39.26-.32.35s1.27 1.74.94 2.27c-.32.55-2.4-.08-3.15-.52s-1.63-2.22-2.1-2.94a5 5 0 0 0-1.42-1.39c-.1-.05-.34.25-.24.35.46.46 1.6 2.34 1.14 3.18s-2.24.97-3 .23a14 14 0 0 1-1.8-3.42c-.06-.17-.46-.02-.45.08.05.25.35 1.87-.4 2.36s-2.24-.15-3.04-.59c-.17-.08-.44.22-.34.3.12.1 1.73 1.6 1.73 1.94s-.92.59-2.63 1.02c-.15.04-.1.42.03.42" transform="translate(36.138 36.011)"/><path id="path48" fill="#fff" d="M49.94 74.12a.83.83 0 0 1-1.03-.55.85.85 0 0 1 .7-.94.77.77 0 1 1 .33 1.5Zm-7.72-13.68c1.42.1 1.65.47 1.8.86s.05.68-.9 2.45c-.06.14.3.32.39.22 4.78-5.53 12.49-3.1 14.06-2.5 1.8.66 1.5 1.6 1.22 1.92-1.1 1.27-5.18 3.6-6.02 3.94-.85.35-1.14.3-1.66-.23a7 7 0 0 1-.98-2.36c-.05-.2.01-1.77 0-1.96-.02-.16-.42-.2-.47-.03s-.37 1.39-.44 1.59a.6.6 0 0 1-.51.33c-.2-.03-2.11-.63-2.24-.67-.14-.01-.27.3-.17.39s2.04 1.32 2.44 1.57a2.7 2.7 0 0 1 .82 1.77.66.66 0 0 1-.54.79 11 11 0 0 1-2.94-.67c-.43-.17-.85-1.27-.92-1.45s-.5-.12-.5.1a5 5 0 0 1-.08 1.33c-.17.39-.9.69-2.06.84-.2.03-.17.55.03.55 1 .02 1.3.45 1.4.74s0 .37-.54 1.7c-.1.26.36.4.46.29a5.1 5.1 0 0 1 4.75-2.04c.44.02.64.07.46.32a57 57 0 0 1-6.5 6.85.9.9 0 0 0-.14 1.17l1.25 1.8a.3.3 0 0 0 .39.08A58 58 0 0 1 50 77.92c2.05 3.43 3.66 5.62 5.01 5.23s1.8-2.32 1.8-2.32a5.5 5.5 0 0 0 2.45 1.97c.13.05.2-.05.2-.17V72.28h-4.17a.6.6 0 0 1-.36-.12c-3.11-2.07-3.55-2.4-2.7-2.86l.6-.26c5.17-2.36 8.1-4.59 8.1-6.16 0-1.7-1.8-4.7-3.65-6.08-.1-.09-.38.26-.31.35s1.27 1.74.93 2.27c-.32.55-2.39-.08-3.14-.52s-1.64-2.22-2.1-2.94a5 5 0 0 0-1.43-1.39c-.1-.05-.33.25-.23.35.45.46 1.6 2.34 1.15 3.18s-2.24.97-3.01.23a13 13 0 0 1-1.77-3.42c-.07-.17-.47-.02-.45.08.05.25.35 1.87-.4 2.36s-2.25-.15-3.06-.59c-.17-.08-.44.22-.32.3.11.1 1.72 1.6 1.72 1.94s-.92.59-2.63 1.02c-.2.04-.15.42-.01.42" transform="translate(27.63 36.011)"/><path id="path50" fill="#fff" d="M75.24 74.12a.84.84 0 0 1-1.04-.55.85.85 0 0 1 .7-.94.77.77 0 1 1 .33 1.5Zm-7.71-13.68c1.42.1 1.65.47 1.8.86s.04.68-.92 2.45c-.06.14.3.32.39.22 4.78-5.53 12.5-3.1 14.06-2.5 1.81.66 1.5 1.6 1.23 1.91-1.1 1.28-5.19 3.6-6.02 3.95-.86.35-1.14.3-1.66-.23a7 7 0 0 1-.99-2.36c-.06-.2.02-1.77 0-1.96-.01-.16-.42-.2-.47-.03s-.36 1.39-.43 1.59a.6.6 0 0 1-.52.33c-.2-.03-2.1-.63-2.24-.67-.13-.01-.28.3-.17.39.1.08 2.04 1.32 2.45 1.57a2.7 2.7 0 0 1 .81 1.77.66.66 0 0 1-.53.79 11 11 0 0 1-2.94-.67c-.44-.17-.86-1.27-.92-1.45s-.5-.12-.5.1a5 5 0 0 1-.09 1.33c-.18.39-.9.69-2.06.84-.2.03-.16.55.04.55 1 .02 1.3.45 1.39.74s0 .37-.54 1.7c-.1.26.37.4.47.29a5.1 5.1 0 0 1 4.75-2.04c.43.02.63.07.45.32a57 57 0 0 1-6.49 6.85.9.9 0 0 0-.13 1.17l1.25 1.8a.3.3 0 0 0 .39.08 56 56 0 0 1 5.92-2.21c2.05 3.43 3.66 5.62 5.01 5.23s1.81-2.32 1.81-2.32a5.5 5.5 0 0 0 2.44 1.97c.13.05.2-.05.2-.17V72.28h-4.16a.6.6 0 0 1-.37-.12c-3.11-2.07-3.55-2.4-2.7-2.86l.6-.26c5.17-2.36 8.1-4.59 8.1-6.16 0-1.7-1.8-4.7-3.65-6.08-.1-.09-.38.26-.31.35s1.27 1.74.93 2.27c-.33.55-2.39-.08-3.14-.52s-1.64-2.22-2.1-2.94a5 5 0 0 0-1.43-1.39c-.1-.05-.33.25-.23.35.45.45 1.6 2.34 1.13 3.18-.45.84-2.24.97-3 .23a13 13 0 0 1-1.78-3.42c-.07-.17-.47-.02-.45.08.05.25.35 1.87-.4 2.36s-2.24-.15-3.06-.59c-.17-.08-.44.22-.34.3.12.1 1.73 1.6 1.73 1.94s-.92.59-2.63 1.02c-.17.04-.12.42.02.42" transform="translate(44.643 36.011)"/><path id="path52" d="M44.62 64.83c1.7-.43 2.63-.66 2.63-1.02s-1.61-1.83-1.73-1.94c-.11-.08.17-.4.32-.3.8.44 2.3 1.07 3.06.59s.45-2.1.4-2.36c-.02-.11.39-.27.45-.08a14 14 0 0 0 1.78 3.43c.76.73 2.55.6 3-.24s-.7-2.72-1.15-3.18c-.1-.1.14-.4.24-.35a6 6 0 0 1 1.42 1.4c.46.71 1.35 2.52 2.1 2.93.76.44 2.83 1.06 3.15.52.33-.53-.87-2.2-.94-2.27-.07-.09.22-.44.32-.35 1.84 1.4 3.65 4.4 3.65 6.08 0 1.58-2.93 3.8-8.1 6.16l-.6.27c-.85.43-.42.78 2.7 2.86a.6.6 0 0 0 .36.11h4.17v10.35c0 .12-.07.22-.2.17a5.5 5.5 0 0 1-2.45-1.97s-.47 1.96-1.8 2.32c-1.36.39-2.97-1.8-5.02-5.23a52 52 0 0 0-5.92 2.2.3.3 0 0 1-.39-.08l-1.25-1.79a.9.9 0 0 1 .15-1.17 56 56 0 0 0 6.49-6.86c.18-.25 0-.3-.45-.31a5.1 5.1 0 0 0-4.75 2.04c-.1.11-.57-.04-.47-.29.53-1.33.62-1.4.53-1.7-.08-.29-.38-.72-1.38-.74-.2 0-.24-.52-.04-.55 1.16-.15 1.9-.45 2.06-.84a6 6 0 0 0 .08-1.34c.02-.21.44-.28.5-.1s.49 1.3.92 1.46a11 11 0 0 0 2.95.67.66.66 0 0 0 .53-.79 2.8 2.8 0 0 0-.82-1.77c-.4-.25-2.34-1.49-2.44-1.57s.03-.42.17-.39 2.04.64 2.24.67a.5.5 0 0 0 .52-.33l.43-1.6c.05-.17.45-.13.47.04s-.05 1.76 0 1.96a7 7 0 0 0 .99 2.36c.51.53.8.58 1.65.23s4.92-2.68 6.02-3.95c.29-.31.59-1.23-1.22-1.92-1.57-.58-9.28-3.03-14.06 2.5-.09.1-.47-.08-.39-.2.96-1.78 1.06-2.08.9-2.47s-.38-.75-1.8-.85c-.1 0-.15-.38.01-.42Zm21.15 0c1.71-.43 2.63-.66 2.63-1.02s-1.6-1.83-1.72-1.94c-.12-.08.16-.4.33-.3.8.44 2.3 1.07 3.05.59s.45-2.1.4-2.36c-.02-.11.38-.27.45-.08a13 13 0 0 0 1.79 3.43c.77.73 2.56.6 3.01-.24s-.69-2.72-1.14-3.17c-.1-.1.14-.4.24-.36a6 6 0 0 1 1.42 1.4c.47.71 1.35 2.52 2.1 2.93.76.44 2.83 1.06 3.15.52.33-.53-.87-2.2-.94-2.27-.06-.09.22-.44.32-.35 1.84 1.4 3.65 4.4 3.65 6.08 0 1.58-2.93 3.8-8.1 6.16l-.6.27c-.85.43-.41.78 2.7 2.86a.6.6 0 0 0 .36.11h4.17v10.35c0 .12-.07.22-.2.17a5.5 5.5 0 0 1-2.44-1.97s-.47 1.96-1.81 2.32c-1.36.39-2.96-1.8-5.02-5.23a52 52 0 0 0-5.92 2.2.3.3 0 0 1-.38-.08L66 83.06a.9.9 0 0 1 .14-1.17 56 56 0 0 0 6.49-6.86c.18-.25 0-.3-.44-.31a5.1 5.1 0 0 0-4.75 2.04c-.1.11-.57-.04-.47-.29.54-1.33.62-1.4.54-1.7-.09-.29-.39-.72-1.39-.74-.22 0-.23-.52-.03-.55 1.15-.15 1.89-.45 2.05-.84a6 6 0 0 0 .09-1.34c.02-.21.43-.28.5-.1s.48 1.3.92 1.46a11 11 0 0 0 2.94.67.66.66 0 0 0 .54-.79 2.8 2.8 0 0 0-.82-1.77l-2.45-1.57c-.1-.08.04-.42.17-.39s2.04.64 2.24.67a.5.5 0 0 0 .52-.33c.07-.2.39-1.42.44-1.6s.45-.13.46.04-.05 1.76 0 1.96a7 7 0 0 0 1 2.36c.5.53.8.58 1.65.23s4.93-2.68 6.03-3.95c.27-.31.59-1.23-1.22-1.92-1.57-.58-9.28-3.03-14.06 2.5-.08.1-.47-.08-.39-.2.96-1.78 1.06-2.08.9-2.47s-.38-.75-1.8-.85c-.14 0-.19-.38-.03-.42m21.18 0c1.7-.43 2.62-.66 2.62-1.02s-1.6-1.83-1.72-1.94c-.12-.08.17-.4.33-.3.8.44 2.31 1.07 3.06.59s.45-2.1.4-2.36c-.01-.11.39-.27.45-.08a14 14 0 0 0 1.78 3.43c.77.73 2.56.6 3-.24s-.7-2.72-1.13-3.18c-.1-.1.13-.4.23-.35a6 6 0 0 1 1.43 1.4c.47.71 1.36 2.52 2.1 2.93.76.44 2.83 1.06 3.15.52.34-.53-.87-2.2-.93-2.27-.07-.09.21-.44.31-.35 1.84 1.4 3.65 4.4 3.65 6.08 0 1.58-2.93 3.8-8.1 6.16l-.6.27c-.85.43-.41.78 2.7 2.86a.6.6 0 0 0 .37.11h4.15v10.35c0 .12-.07.22-.2.17a5.5 5.5 0 0 1-2.44-1.97s-.47 1.96-1.8 2.32c-1.36.39-2.97-1.8-5.03-5.23a52 52 0 0 0-5.92 2.2.3.3 0 0 1-.38-.08l-1.25-1.79a.9.9 0 0 1 .13-1.17 56 56 0 0 0 6.49-6.85c.18-.26 0-.3-.45-.32a5.1 5.1 0 0 0-4.75 2.04c-.1.12-.57-.03-.47-.29.54-1.33.62-1.4.54-1.7-.09-.29-.39-.72-1.4-.74-.2 0-.23-.52-.03-.55 1.16-.15 1.9-.45 2.06-.84a6 6 0 0 0 .09-1.33c.01-.22.43-.29.5-.1s.48 1.28.92 1.45a11 11 0 0 0 2.94.67.66.66 0 0 0 .53-.79 2.8 2.8 0 0 0-.82-1.77c-.4-.25-2.34-1.49-2.44-1.57s.05-.42.17-.39c.13.04 2.04.64 2.24.67a.5.5 0 0 0 .52-.33c.07-.2.38-1.42.43-1.59s.46-.13.47.03-.05 1.76 0 1.96a7 7 0 0 0 .99 2.36c.52.53.8.58 1.65.23s4.92-2.67 6.03-3.95c.26-.31.58-1.23-1.23-1.92-1.57-.58-9.28-3.03-14.06 2.51-.08.1-.47-.08-.39-.22.96-1.77 1.06-2.07.92-2.46-.15-.38-.38-.75-1.8-.85-.14 0-.19-.38-.02-.42Zm-48.45 38h72.48V47.4H38.5z" transform="translate(25.21 31.2)"/><path id="path54" d="M46.88 65.38a.8.8 0 0 0-.7.94.83.83 0 0 0 1.04.55.8.8 0 0 0 .7-.94.83.83 0 0 0-1.04-.55" transform="translate(30.359 43.265)"/><path id="path56" d="M59.54 65.38a.8.8 0 0 0-.7.94.83.83 0 0 0 1.04.55.8.8 0 0 0 .7-.94.85.85 0 0 0-1.04-.55" transform="translate(38.87 43.265)"/><path id="path58" d="M72.19 65.38a.8.8 0 0 0-.7.94.84.84 0 0 0 1.04.55.8.8 0 0 0 .7-.94.85.85 0 0 0-1.04-.55" transform="translate(47.374 43.265)"/><path id="path60" d="m110.98 50.17-36.2-15.82L38.5 50.22v2.74h72.48z" transform="translate(25.21 22.42)"/><path id="path62" d="M97.78 42.07a3.58 3.58 0 1 0-3.58-3.58 3.6 3.6 0 0 0 3.58 3.58" transform="translate(62.655 22.797)"/><path id="path64" d="M25.68 42.06a3.58 3.58 0 1 0-3.58-3.58 3.6 3.6 0 0 0 3.58 3.58" transform="translate(14.185 22.79)"/><path id="path66" d="m20.45 64.82 3.54.61c1.49.25 4.58.79 5.37 1.3a1.4 1.4 0 0 1 .3 1.06l-.02.77v.08l.04.07c.05.13.13.25.77.52l.16.06.65-.3.05-.15a26 26 0 0 0 .29-3.2l.43-3.32-.01-.05c-.02-.13-.07-.25-.54-.6l-.12-.08-.82.08-.1.15a3 3 0 0 0-.25.94c-.13.67-.33.92-.43.95-.27.1-1.36.25-5.69-.5l-3.3-.57c-4.7-.82-6.81-3-6.21-6.45a5 5 0 0 1 1.89-3.41c1.32-.94 3.34-1.16 6.17-.66l6.19 1.07c2.92.5 2.92.54 2.74 1.8l-.12.78.02.08a.8.8 0 0 0 .68.57 1 1 0 0 0 .9-.28l.04-.09c.02-.05.03-.08.75-3.66l.9-3.63-.01-.08a.96.96 0 0 0-1.54-.49l-.07.09a6 6 0 0 0-.28.83c-.37 1.17-.4 1.3-3.5.76l-6.76-1.17c-3.54-.62-5.88-.26-7.56 1.17a8.6 8.6 0 0 0-2.67 5.38 8.2 8.2 0 0 0 1.23 6.24c1.34 1.66 3.58 2.76 6.88 3.33" transform="translate(7.526 31.572)"/><path id="path68" d="M34.28 83.49a4 4 0 0 1 .79 1.14l.23.46.09.05a1 1 0 0 0 .97.09 1 1 0 0 0 .51-.59l.02-.06v-.07c0-.07-.02-.12-1.09-3l-1.05-3.3-.05-.12a.9.9 0 0 0-.85-.35 1 1 0 0 0-.76.55l-.05.13a2 2 0 0 0 .1.67c.26 1.16.17 1.4.16 1.44-.1.12-.8.74-5.36 1.96l-6.03 1.62-.12.03c.55-.82 1.54-2.32 3.31-5.11l2.33-3.55.35-.52c.92-1.37 3.36-5.01 4.46-5.8l.15-.11.02-.19a6 6 0 0 0-.33-1.47l-.57-3.18-.07-.15a.8.8 0 0 0-.77-.37 1.1 1.1 0 0 0-.84.47l-.05.12a2 2 0 0 0 .02.68 2.6 2.6 0 0 1-.22 1.58 2.4 2.4 0 0 1-1.63.95l-8.2 2.17-.47.14a25 25 0 0 1-5.12 1.05c-.05 0-.25-.15-.43-.74l-.25-.72-.07-.11c-.08-.12-.2-.2-.8-.24l-.15-.01-.65.53-.02.17a27 27 0 0 0 .7 3.04l.6 3.3.05.13c.07.1.17.22.65.37l.15.05.64-.34.17-.15.05-.16a9 9 0 0 0-.07-1.06 4 4 0 0 1-.03-.72 1 1 0 0 1 .1-.4c.58-.5 3.6-1.43 5.5-1.94l6.12-1.64.72-.18-2.31 3.38-5.67 8.51a66 66 0 0 1-3.24 4.68l-.12.13.04.19c.08.58.41.95.9.97h.08l.08-.04c.29-.1 1.3-.43 4.8-1.37l7.18-1.92c1.22-.35 4.4-1.2 5.4-1.07" transform="translate(7.254 42.144)"/><path id="path70" d="M38.72 86.95a.9.9 0 0 0 .92-.13 1 1 0 0 0 .42-.82l-.04-.1c-.01-.05-.03-.1-2.15-3.04l-2-3.08-.11-.12a.9.9 0 0 0-.99.04.8.8 0 0 0-.47.71l.02.1a6 6 0 0 0 .42.79c.62 1.07.65 1.14-1.9 2.9l-8.55 5.85c-2.51 1.72-2.54 1.67-3.38.71l-.57-.63-.12-.03a1 1 0 0 0-.97.26 1 1 0 0 0-.3.72l.04.1c.01.05.03.1 2.19 3.1l1.95 3.02.12.12a1 1 0 0 0 .44.13 1 1 0 0 0 .55-.17.8.8 0 0 0 .46-.71l-.01-.1-.39-.77c-.6-1.14-.62-1.2 1.88-2.9l8.54-5.85c2.56-1.76 2.61-1.7 3.38-.74l.47.57z" transform="translate(12.065 52.796)"/><path id="path72" d="M51.43 99.61a1.1 1.1 0 0 0 .84-.58 1 1 0 0 0 .05-.76l-.07-.1c-.05-.05-.09-.08-2.44-1.57l-2.48-1.79-.1-.01a1 1 0 0 0-.88.35 1 1 0 0 0-.26.58l.02.24.05.11c.03.05.07.12.5.49a3 3 0 0 1 .55.57l-.65.57-11.34 6.47 2.43-9.33c.5-1.88.97-3.28 1.19-3.85a4 4 0 0 1 .75.42l.45.28h.1a.9.9 0 0 0 .82-.42 1 1 0 0 0 .13-.87l-.05-.1c-.03-.05-.06-.1-2.86-2.32l-2.34-2.09-.1-.02a.9.9 0 0 0-.88.27 1 1 0 0 0-.25.84l.03.1c.02.05.05.11.47.53.67.72.72 1.24.27 2.94l-3.6 13.33a30 30 0 0 1-1.24 3.82l-.03.08v.1c0 .08.01.23.43.7l.12.13.6.2.17-.11c1.45-.99 4.71-2.93 7.02-4.23l3.41-1.91c2.98-1.66 5.47-2.9 6.8-3.51a1.4 1.4 0 0 1 1.4-.03l.85.48z" transform="translate(19.839 57.044)"/><path id="path74" d="M61.72 98.19a46 46 0 0 1-3.53-1.02l-.08-.04-5.25-1.62-3.33-1.12h-.09a.9.9 0 0 0-.73.64.9.9 0 0 0 .07.87l.06.06.55.27c1.18.52 1.23.54.34 3.41l-3.1 10c-.88 2.88-1.02 2.85-2.2 2.6l-1.06-.22-.11.05a1 1 0 0 0-.6.8.8.8 0 0 0 .21.75l.09.07c.05.03.08.05 3.91 1.13L57 118.05l.17-.16a20 20 0 0 0 2.66-3.63l.05-.1v-.1a1 1 0 0 0-.46-.8 1 1 0 0 0-.83-.14l-.1.04-.07.06a7.5 7.5 0 0 1-2.57 1.98 9 9 0 0 1-3.45-.67c-2.5-.79-2.74-1.22-2.86-1.42-.22-.46 0-1.4.4-2.68l1.2-3.91.08-.25c.1.01.29.08.44.11l1.6.5a10 10 0 0 1 1.98.76c.27.15.33.36.3.85l-.1 1.25.03.09a1 1 0 0 0 .77.62.9.9 0 0 0 .8-.19l.07-.08a6 6 0 0 0 .35-1.2l.43-1.64 1-2.86-.01-.1a.9.9 0 0 0-.56-.69 1 1 0 0 0-.93.04l-.09.06-.67 1.19c-.26.48-.36.5-.53.5a10 10 0 0 1-2.26-.54l-1.6-.5-.42-.13.08-.28 1.73-5.56c.06-.23.15-.48.2-.61l.33.1 2 .61a14 14 0 0 1 2.53.96c1.04.63 1.04 1.4 1.06 2.69v.17l.01.13a.9.9 0 0 0 .65.55 1 1 0 0 0 .87-.13l.09-.1a1.4 1.4 0 0 0 .17-.57 26 26 0 0 0 .63-3.58l-.02-.47-.45-.03" transform="translate(27.994 62.783)"/><path id="path76" d="M69.81 105.55a4.4 4.4 0 0 1-2.6.9c-.93.08-1.36.07-1.58.12l-.07-.56-.67-6.79-.05-.31a6 6 0 0 1 1.34-.17c3.18-.15 4.42 1.69 4.55 3.46a4 4 0 0 1-.92 3.35m10.08 8.76-.05-.02h-.06a3.2 3.2 0 0 1-1.88-.46c-2.17-1.4-4.04-3.6-6.65-6.83l-.03-.03a5.8 5.8 0 0 0 3.09-5.52 4.8 4.8 0 0 0-3.11-4.23 10 10 0 0 0-4.61-.4l-.49.03c-2.64.14-4.68.32-6.42.57l-.14.03a.8.8 0 0 0-.45.76 1 1 0 0 0 .42.87l.08.05a7 7 0 0 0 1.1.1c.71.05.84.06 1.11 2.9l1 10.5c.29 2.87.29 2.87-.95 3.1l-.85.15-.1.1a1 1 0 0 0-.24.97 1 1 0 0 0 .47.6l.1.04h.05l3.68-.27 3.44-.1.17-.05a.9.9 0 0 0 .45-.76 1 1 0 0 0-.33-.87l-.1-.05a4 4 0 0 0-.77-.1c-1.3-.11-1.32-.11-1.62-3.12l-.35-3.65-.02-.12.85-.1a1.8 1.8 0 0 1 1.8.57l3.44 3.98c2.45 2.7 4.03 3.4 6.82 3.05l1.39-.34.08-.06a.8.8 0 0 0 .24-.79 1 1 0 0 0-.56-.5" transform="translate(39.051 64.368)"/><path id="path78" d="m82.72 101.18-2.73-.08q-2.65-.14-3.51-1.59a3.5 3.5 0 0 1-.45-1.44 2.7 2.7 0 0 1 1.64-2.39c2.04-1.19 3.4-.27 4.44.79l.12.08a.9.9 0 0 0 .84-.08 1 1 0 0 0 .5-.77v-.12l-.05-.1a13 13 0 0 0-2.38-3l-.1-.1-.13-.01a3 3 0 0 0-1.19.35 10 10 0 0 0-2.66 1.09 7 7 0 0 0-3.24 3.63 5.1 5.1 0 0 0 .45 4.38 6.6 6.6 0 0 0 5.64 3l3.29.16c2.36.11 3.14 1.12 3.7 2.07a3 3 0 0 1 .33 2.1 3.2 3.2 0 0 1-1.6 1.91q-2.9 1.67-5.89-1.17l-.08-.06a.8.8 0 0 0-.77.01 1 1 0 0 0-.55.79l-.02.13.07.12a13 13 0 0 0 2.9 3.36l.1.05h.2a9.4 9.4 0 0 0 4.69-1.4 7 7 0 0 0 3.5-4.18 6 6 0 0 0 .18-1.5 6 6 0 0 0-.82-2.78c-1.27-2.07-3.34-3.14-6.42-3.24" transform="translate(48.753 61.425)"/><path id="path80" d="m101.27 100.18-.08.02a4 4 0 0 0-.74.48c-1.07.76-1.09.77-3.11-1.48l-6.92-7.7c-2.08-2.3-2.03-2.36-1.19-3.26l.57-.6.03-.08a.9.9 0 0 0-.27-.9 1 1 0 0 0-.87-.3l-.08.04c-.07.04-.1.05-2.74 2.56l-2.78 2.38-.1.13a.9.9 0 0 0 .17.97.8.8 0 0 0 .78.37l.1-.03c.05-.02.1-.04.72-.52.99-.76 1.06-.79 3.13 1.52l6.92 7.7c2.03 2.25 2 2.28 1.14 3.25l-.55.64-.02.11a1 1 0 0 0 .39.92 1 1 0 0 0 .57.22l.16-.02.1-.03c.05-.03.1-.05 2.8-2.6h-.02c.28-.22.95-.8 2.74-2.33l.1-.14a.9.9 0 0 0-.17-.95.9.9 0 0 0-.78-.37" transform="translate(55.067 57.376)"/><path id="path82" d="M113.01 88.24a.9.9 0 0 0-.87-.12l-.1.07a10 10 0 0 0-.62.85c-.73 1.02-.77 1.06-3.36-.43l-11.24-6.42-.4-.24.15-.28 1.02-1.79a5.5 5.5 0 0 1 2.08-2.36 3.3 3.3 0 0 1 1.8.44l.1.03.1-.02a.9.9 0 0 0 .79-.62.9.9 0 0 0-.03-.85l-.07-.08-.1-.05a19 19 0 0 1-3.53-2.51l-.1-.1-.13-.02a.94.94 0 0 0-.97.82l-.02.14.07.11c.33.6.35.64-.4 1.94l-5.86 10.22c-.77 1.36-1 1.6-1.4 1.47l-.1-.03-.1.02a1.1 1.1 0 0 0-.73 1.02l.01.16.12.1a35 35 0 0 1 3.2 3.15l.08.1.13.03a1 1 0 0 0 .96-.3.9.9 0 0 0 .26-.79l-.05-.15-.05-.08a5 5 0 0 1-1-1.96c-.2-.85.7-2.42 1.09-3.1l.8-1.38.18-.3.37.2 11.29 6.46c2.6 1.48 2.56 1.6 2.06 2.7l-.45.96-.04.16a.9.9 0 0 0 .54.84 1 1 0 0 0 .48.12 1 1 0 0 0 .4-.12l.07-.07c.05-.05.07-.08 2.02-3.66l-.03-.02c.25-.33.75-1.17 1.99-3.22l.05-.15a.9.9 0 0 0-.45-.89" transform="translate(59.145 48.898)"/><path id="path84" d="M118.15 65.8a20 20 0 0 0-3.9-2.24l-.1-.03-.1.01a.9.9 0 0 0-.76.56 1 1 0 0 0-.03.83l.03.08.09.07a8 8 0 0 1 2.24 2.34 9 9 0 0 1-.29 3.5c-.5 2.6-.9 2.88-1.1 3-.41.26-1.38.15-2.69-.1l-3.96-.76-.32-.11.07-.39.31-1.66a10 10 0 0 1 .52-2.04c.14-.26.34-.36.82-.38l1.17-.05.17-.03a1 1 0 0 0 .54-.82 1 1 0 0 0-.27-.79l-.1-.07a5 5 0 0 0-1.22-.21l-1.68-.25-2.96-.69-.1.02a.8.8 0 0 0-.61.63 1 1 0 0 0 .13.92l.07.07a9 9 0 0 0 1.25.53c.52.22.54.32.55.47a11 11 0 0 1-.28 2.31l-.32 1.66-.1.43-.28-.05-5.7-1.1-.64-.13.05-.34.4-2.05a15 15 0 0 1 .67-2.63c.5-1.09 1.27-1.19 2.54-1.34l.19-.01.13-.04a.9.9 0 0 0 .49-.7 1 1 0 0 0-.24-.85l-.1-.08a2 2 0 0 0-.6-.1 26 26 0 0 0-3.61-.24l-.46.05.03.47c.02.28-.33 2.14-.61 3.63l-1.06 5.47-.75 3.43.02.08a.9.9 0 0 0 .72.67.9.9 0 0 0 .85-.16l.05-.07c.03-.03.05-.08.22-.59.38-1.22.4-1.27 3.34-.7l10.28 1.97c2.96.57 2.95.7 2.81 1.9l-.1 1.1.07.1a1 1 0 0 0 .87.5h.03a.8.8 0 0 0 .69-.3l.05-.1c.02-.04.03-.07.7-4l2.09-10.44z" transform="translate(63.644 41.627)"/><path id="path86" d="m98.93 55.04-.08-.31-.44-2.03a5.4 5.4 0 0 1-.03-3.12c.07-.14.47-.47 1.62-.84l.1-.03.07-.07a1 1 0 0 0 .2-.97.9.9 0 0 0-.59-.62l-.13-.05-.1.03a18 18 0 0 1-4.31.39l-.14-.02-.12.07a1 1 0 0 0-.33.48 1 1 0 0 0 .15.77l.07.1.11.05c.64.23.69.25 1 1.74l2.5 11.54c.33 1.52.31 1.85-.06 2l-.1.04-.06.08a1.1 1.1 0 0 0 .12 1.26l.11.11h.17a37 37 0 0 1 4.48.3l.14.02.11-.07a1 1 0 0 0 .52-.83 1 1 0 0 0-.32-.77l-.06-.07-.19-.05a5 5 0 0 1-2.02-.82c-.64-.46-1.02-1.87-1.27-3.06l-.34-1.57-.06-.33.38-.09 12.74-2.42c2.96-.57 3-.44 3.33.73l.29 1 .06.15a.9.9 0 0 0 .96.29.9.9 0 0 0 .67-.57l.01-.08c0-.07 0-.1-.83-4.08l-.64-3.77-.07-.15a.9.9 0 0 0-.9-.35.9.9 0 0 0-.71.47l-.04.08a5 5 0 0 0 .07 1.09c.1 1.24.12 1.29-2.83 1.84L99.4 54.96z" transform="translate(62.943 30.924)"/><path id="path88" d="m28.74 31.04.1-.01a4 4 0 0 0 .74-.47c1.05-.7 1.05-.7 2.69 1.59l4.1 5.53c2.12 2.91 4.06 4.26 6.25 4.4l.45.02a9 9 0 0 0 5.15-1.98 7.6 7.6 0 0 0 3.47-5.01c.33-2.13-.4-4.5-2.26-7.28l-1.84-2.72a23 23 0 0 1-2.73-4.94c-.01-.1.14-.45.64-.8l.57-.4.1-.11c.08-.14.11-.29-.1-.9l-.05-.15-.67-.32-.15.05a31 31 0 0 0-2.7 1.68v.02c-.27.13-.94.51-2.84 1.6l-.1.09c-.09.1-.17.21-.12.75l.02.15.62.58.16-.01c.07 0 .17-.02.87-.37.74-.37 1.04-.27 1.12-.23.7.36 2.31 2.77 3.16 4.06l2.2 3.28a10 10 0 0 1 1.93 4.75 4.4 4.4 0 0 1-2.17 4.03c-3.08 2.15-5.65 1.33-8.63-2.71L35 30.14l-.1-.15c-1.64-2.3-1.64-2.3-.78-3.13l.5-.48.1-.14a.98.98 0 0 0-1-1.25l-.1.03c-.05.04-.1.05-2.8 2.36L28 29.54l-.12.13a1 1 0 0 0 .12.99 1 1 0 0 0 .74.38" transform="translate(18.014 11.079)"/><path id="path90" d="m72.22 32.05.09-.05a.8.8 0 0 0 .42-.72 1.1 1.1 0 0 0-.37-.87l-.12-.07a5 5 0 0 0-1.12-.07c-.88-.03-.97-.28-1.27-1.64L67.3 15.94c-.33-1.87-.25-2.05 1.14-2.3l.7-.12.08-.07a.8.8 0 0 0 .27-.82 1 1 0 0 0-.45-.77l-.12-.05a25 25 0 0 0-2.69.25l-2.7.09.04.55.02.35a20 20 0 0 1-1.26 5.37l-1.92 6.44-1.05 3.32c-.32-.46-.84-1.2-1.7-2.35l-4.76-6.8c-.57-.76-2.1-2.84-2.19-4.07l-.05-.62-2.87.78-2.33.46-.15.06a.9.9 0 0 0-.4.79 1 1 0 0 0 .33.79l.15.06a2 2 0 0 0 .67-.01c1.46-.1 1.58-.07 1.8 1.5l.76 6.4.52 5.9.07.9c.15 1.8-.1 1.9-1.06 2.26l-.62.25-.15.1a1 1 0 0 0-.21.82 1 1 0 0 0 .5.7l.15.03h.03a30 30 0 0 0 3.08-.83l3.17-.74.14-.05a.9.9 0 0 0 .38-.82 1 1 0 0 0-.48-.78l-.13-.03a6 6 0 0 0-1.3.19 1 1 0 0 1-.58-.02c-.27-.18-.47-1.32-.56-1.86l-.87-6.42-.43-3.81 1.44 2.19.01-.02c.22.35.96 1.42 3.5 5.12l.5.72a54 54 0 0 1 2.96 4.53l.05.08a.9.9 0 0 0 .77.27.9.9 0 0 0 .65-.45l.04-.08c.28-1.34 1.05-4.1 1.99-7.04l2.37-7.63 1.86 10.1a9 9 0 0 1 .16 1.32c.02.37.02.49-.76.62l-.82.15-.14.05c-.11.07-.23.19-.33.75l-.03.16.46.71.17.04a32 32 0 0 0 3.63-.32l3.5-.18" transform="translate(29.513 7.265)"/><path id="path92" d="m81.96 31.74.05-.1-.02-.1a1 1 0 0 0-.5-.79 1 1 0 0 0-.85-.08l-.08.03-.07.07a7.4 7.4 0 0 1-2.46 2.1 8.5 8.5 0 0 1-3.47-.5c-2.56-.65-2.81-1.06-2.93-1.26a5 5 0 0 1 .25-2.7l.99-3.91.13-.32.39.09 1.63.41a10 10 0 0 1 2.03.66c.26.13.35.35.33.83l-.03 1.17v.09l.03.08a1 1 0 0 0 .8.59 1 1 0 0 0 .79-.22l.08-.12a9 9 0 0 0 .27-1.18l.35-1.66.85-2.91-.01-.1a.9.9 0 0 0-.6-.67 1 1 0 0 0-.92.08l-.07.07a11 11 0 0 0-.6 1.22c-.23.5-.33.52-.5.52a10 10 0 0 1-2.27-.42l-1.65-.42-.43-.11.06-.29 1.44-5.65.17-.6.33.08 2.02.52a13 13 0 0 1 2.58.82c1.07.57 1.1 1.34 1.19 2.63l.01.18.04.12a1 1 0 0 0 .69.53 1 1 0 0 0 .85-.18l.09-.1a3 3 0 0 0 .15-.59 24 24 0 0 0 .43-3.6l-.05-.45H83c-.3 0-2.14-.47-3.63-.84l-5.35-1.35-3.38-.96-.08.02a.9.9 0 0 0-.7.67.9.9 0 0 0 .11.87l.09.07.55.23c1.2.47 1.24.49.52 3.4l-2.6 10.1c-.73 2.92-.86 2.89-2.05 2.7l-1.07-.16-.12.05a1 1 0 0 0-.57.83.8.8 0 0 0 .27.74l.07.05c.07.03.1.05 4 .95l2.52.64 7.52 1.99.23.07.17-.17a21 21 0 0 0 2.46-3.76" transform="translate(42.836 7.704)"/><path id="path94" d="M87.42 30.18c.01-.02.01-.02 4.96-3.5l.52-.33-1.86 6.1-.06.21-.19-.13-.01.03c-.32-.26-1.12-.83-3.25-2.32zm8.6-9.23a1.4 1.4 0 0 1 1.15-.67 1 1 0 0 1 .58.19 1.26 1.26 0 0 1 .12 1.8 1.6 1.6 0 0 1-.95.67 1 1 0 0 1-.79-.18 1 1 0 0 1-.43-.67 1.6 1.6 0 0 1 .31-1.14M76.36 33.7c.03.05.1.1.75.47l1.78 1.02 2.47 1.62.14.07a.9.9 0 0 0 .92-.34 1 1 0 0 0 .18-.9l-.07-.1a5 5 0 0 0-.87-.7l-.25-.21a12 12 0 0 1 1.82-1.56l2-1.35c.3-.22.3-.22.71.06l3.92 2.76a2 2 0 0 1 .45.37 1 1 0 0 1-.07.28l-.95 3.3a10 10 0 0 1-.47 1.25 2 2 0 0 1-.47-.23l-.78-.5-.1-.02a.9.9 0 0 0-.84.42 1 1 0 0 0-.1.92l.05.08a5 5 0 0 0 .6.49l2.12 1.62 2.78 2.34.11.01h.09a1 1 0 0 0 .77-.43 1 1 0 0 0 .16-.8l-.05-.1a9 9 0 0 0-.63-.67c-.7-.7-.77-1.09-.03-3.5L96 27.44l.8-2.66a3.2 3.2 0 0 0 2.84-1.27 3.32 3.32 0 0 0-5.42-3.81 3.2 3.2 0 0 0-.17 3.31l-1.32.92-6.94 4.7-.92.65h.07c-.94.62-2.4 1.57-3.04 1.95l-.02-.01L80 32.46a1.55 1.55 0 0 1-1.77.23l-.94-.47h-.1a1 1 0 0 0-.78.5 1 1 0 0 0-.1.84z" transform="translate(50.577 11.688)"/></g></g></svg>