<svg xmlns="http://www.w3.org/2000/svg" xmlns:xlink="http://www.w3.org/1999/xlink" width="600" height="300" viewBox="0 0 600 300">
  <defs>
    <clipPath id="clip-Logo">
      <rect width="600" height="300"/>
    </clipPath>
  </defs>
  <g id="Logo" clip-path="url(#clip-Logo)">
    <rect width="600" height="300" fill="#e8eff3"/>
    <g id="Gå_till_startsidan" data-name="Gå till startsidan" transform="translate(200 50)">
      <path id="path44" d="M100.5,1A99.5,99.5,0,1,1,1,100.5,99.5,99.5,0,0,1,100.5,1" transform="translate(0 0)" fill="#fff"/>
      <path id="path46" d="M62.59,74.121a.838.838,0,0,1-1.037-.552.849.849,0,0,1,.7-.936.772.772,0,1,1,.334,1.488ZM54.88,60.442c1.421.1,1.656.468,1.806.853s.033.686-.9,2.458c-.067.134.3.318.385.217,4.783-5.535,12.492-3.094,14.064-2.508,1.806.669,1.505,1.605,1.221,1.923-1.1,1.271-5.184,3.6-6.037,3.947s-1.137.3-1.656-.234a7.244,7.244,0,0,1-.987-2.358c-.067-.2.017-1.773,0-1.957-.017-.167-.418-.2-.468-.033s-.368,1.388-.435,1.589a.545.545,0,0,1-.518.334c-.2-.033-2.107-.635-2.241-.669-.134-.017-.284.3-.167.385.1.084,2.04,1.321,2.442,1.572a2.671,2.671,0,0,1,.819,1.773.669.669,0,0,1-.535.786,11.213,11.213,0,0,1-2.943-.669c-.435-.167-.853-1.271-.92-1.455s-.5-.117-.5.1a5.418,5.418,0,0,1-.084,1.338c-.184.385-.9.686-2.057.836-.2.033-.167.552.033.552,1,.017,1.3.452,1.388.736s0,.368-.535,1.706c-.1.251.368.4.468.284a5.107,5.107,0,0,1,4.749-2.04c.435.017.635.067.435.318a56.989,56.989,0,0,1-6.488,6.856.9.9,0,0,0-.134,1.171c.067.1,1.187,1.689,1.254,1.789a.292.292,0,0,0,.385.084,56.246,56.246,0,0,1,5.92-2.207c2.057,3.428,3.662,5.619,5.017,5.234s1.806-2.324,1.806-2.324A5.641,5.641,0,0,0,71.9,82.8c.134.05.2-.05.2-.167V72.282H67.941a.57.57,0,0,1-.368-.117c-3.11-2.074-3.545-2.408-2.692-2.86.2-.084.4-.184.6-.268,5.167-2.358,8.094-4.582,8.094-6.154,0-1.706-1.806-4.7-3.646-6.087-.1-.084-.385.268-.318.351s1.271,1.739.936,2.274c-.318.552-2.391-.084-3.144-.518S65.767,56.679,65.3,55.96a5.243,5.243,0,0,0-1.421-1.388c-.1-.05-.334.251-.234.351.452.452,1.589,2.341,1.137,3.177s-2.241.97-3.01.234a13.866,13.866,0,0,1-1.789-3.428c-.067-.167-.468-.017-.452.084.05.251.351,1.873-.4,2.358s-2.241-.151-3.044-.585c-.167-.084-.435.217-.334.3.117.1,1.722,1.589,1.722,1.94s-.92.585-2.625,1.02c-.151.033-.1.418.033.418" transform="translate(36.138 36.011)" fill="#fff"/>
      <path id="path48" d="M49.943,74.121a.83.83,0,0,1-1.037-.552.849.849,0,0,1,.7-.936.772.772,0,1,1,.334,1.488ZM42.217,60.442c1.421.1,1.656.468,1.806.853s.05.686-.9,2.458c-.067.134.3.318.385.217C48.288,58.435,56,60.877,57.569,61.462c1.806.669,1.505,1.605,1.221,1.923-1.1,1.271-5.184,3.6-6.02,3.947-.853.351-1.137.3-1.656-.234a7.244,7.244,0,0,1-.987-2.358c-.05-.2.017-1.773,0-1.957-.017-.167-.418-.2-.468-.033s-.368,1.388-.435,1.589a.545.545,0,0,1-.518.334c-.2-.033-2.107-.635-2.241-.669-.134-.017-.268.3-.167.385s2.04,1.321,2.442,1.572a2.671,2.671,0,0,1,.819,1.773.656.656,0,0,1-.535.786,11.213,11.213,0,0,1-2.943-.669c-.435-.167-.853-1.271-.92-1.455s-.5-.117-.5.1a4.713,4.713,0,0,1-.084,1.338c-.167.385-.9.686-2.057.836-.2.033-.167.552.033.552,1,.017,1.3.452,1.388.736s0,.368-.535,1.706c-.1.251.368.4.468.284a5.107,5.107,0,0,1,4.749-2.04c.435.017.635.067.452.318a56.989,56.989,0,0,1-6.488,6.856.923.923,0,0,0-.151,1.171c.067.1,1.187,1.689,1.254,1.789a.292.292,0,0,0,.385.084,57.931,57.931,0,0,1,5.92-2.207c2.057,3.428,3.662,5.619,5.017,5.234s1.806-2.324,1.806-2.324A5.522,5.522,0,0,0,59.258,82.8c.134.05.2-.05.2-.167V72.282H55.294a.57.57,0,0,1-.368-.117c-3.11-2.074-3.545-2.408-2.692-2.86.2-.084.4-.184.6-.268C58,66.679,60.93,64.455,60.93,62.883c0-1.706-1.806-4.7-3.646-6.087-.1-.084-.385.268-.318.351s1.271,1.739.936,2.274c-.318.552-2.391-.084-3.144-.518s-1.639-2.224-2.107-2.943a5.243,5.243,0,0,0-1.421-1.388c-.1-.05-.334.251-.234.351.452.452,1.605,2.341,1.154,3.177s-2.241.97-3.01.234a13.142,13.142,0,0,1-1.773-3.428c-.067-.167-.468-.017-.452.084.05.251.351,1.873-.4,2.358s-2.241-.151-3.06-.585c-.167-.084-.435.217-.318.3.117.1,1.722,1.589,1.722,1.94s-.92.585-2.625,1.02c-.2.033-.151.418-.017.418" transform="translate(27.63 36.011)" fill="#fff"/>
      <path id="path50" d="M75.238,74.121a.838.838,0,0,1-1.037-.552.849.849,0,0,1,.7-.936.772.772,0,1,1,.334,1.488ZM67.529,60.442c1.421.1,1.656.468,1.806.853s.033.686-.92,2.458c-.067.134.3.318.385.217,4.783-5.535,12.492-3.094,14.064-2.508,1.806.669,1.505,1.605,1.221,1.923-1.1,1.271-5.184,3.6-6.02,3.947-.853.351-1.137.3-1.656-.234a7.245,7.245,0,0,1-.987-2.358c-.067-.2.017-1.773,0-1.957-.017-.167-.418-.2-.468-.033s-.368,1.388-.435,1.589a.545.545,0,0,1-.518.334c-.2-.033-2.107-.635-2.241-.669-.134-.017-.284.3-.167.385.1.084,2.04,1.321,2.442,1.572a2.671,2.671,0,0,1,.819,1.773.656.656,0,0,1-.535.786,11.213,11.213,0,0,1-2.943-.669c-.435-.167-.853-1.271-.92-1.455s-.5-.117-.5.1a5.417,5.417,0,0,1-.084,1.338c-.184.385-.9.686-2.057.836-.2.033-.167.552.033.552,1,.017,1.3.452,1.388.736s0,.368-.535,1.706c-.1.251.368.4.468.284a5.107,5.107,0,0,1,4.749-2.04c.435.017.635.067.452.318a56.989,56.989,0,0,1-6.488,6.856.9.9,0,0,0-.134,1.171c.067.1,1.187,1.689,1.254,1.789a.292.292,0,0,0,.385.084,56.247,56.247,0,0,1,5.92-2.207c2.057,3.428,3.662,5.619,5.017,5.234s1.806-2.324,1.806-2.324A5.522,5.522,0,0,0,84.57,82.8c.134.05.2-.05.2-.167V72.282H80.606a.57.57,0,0,1-.368-.117c-3.11-2.074-3.545-2.408-2.692-2.86.2-.084.4-.184.6-.268,5.167-2.358,8.094-4.582,8.094-6.154,0-1.706-1.806-4.7-3.646-6.087-.1-.084-.385.268-.318.351s1.271,1.739.936,2.274c-.334.552-2.391-.084-3.144-.518s-1.639-2.224-2.107-2.943a5.243,5.243,0,0,0-1.421-1.388c-.1-.05-.334.251-.234.351.452.452,1.605,2.341,1.137,3.177-.452.836-2.241.97-3.01.234a13.142,13.142,0,0,1-1.773-3.428c-.067-.167-.468-.017-.452.084.05.251.351,1.873-.4,2.358s-2.241-.151-3.06-.585c-.167-.084-.435.217-.334.3.117.1,1.722,1.589,1.722,1.94s-.92.585-2.625,1.02c-.167.033-.117.418.017.418" transform="translate(44.643 36.011)" fill="#fff"/>
      <path id="path52" d="M44.62,64.835c1.706-.435,2.625-.669,2.625-1.02s-1.605-1.839-1.722-1.94c-.117-.084.167-.4.318-.3.8.435,2.308,1.07,3.06.585s.452-2.107.4-2.358c-.017-.117.385-.268.452-.084a13.692,13.692,0,0,0,1.773,3.428c.769.736,2.559.6,3.01-.234s-.7-2.726-1.154-3.177c-.1-.1.134-.4.234-.351a5.535,5.535,0,0,1,1.421,1.388c.468.719,1.355,2.525,2.107,2.943.753.435,2.826,1.054,3.144.518.334-.535-.87-2.207-.936-2.274-.067-.084.217-.435.318-.351,1.839,1.4,3.646,4.4,3.646,6.087,0,1.572-2.926,3.8-8.094,6.154-.2.084-.4.184-.6.268-.853.435-.418.786,2.692,2.86a.57.57,0,0,0,.368.117h4.164V87.444c0,.117-.067.217-.2.167A5.522,5.522,0,0,1,59.2,85.638s-.468,1.957-1.806,2.324c-1.355.385-2.96-1.806-5.017-5.234a51.874,51.874,0,0,0-5.92,2.207.311.311,0,0,1-.385-.084c-.067-.1-1.187-1.689-1.254-1.789a.905.905,0,0,1,.151-1.171,55.621,55.621,0,0,0,6.488-6.856c.184-.251,0-.3-.452-.318a5.129,5.129,0,0,0-4.749,2.04c-.1.117-.569-.033-.468-.284.535-1.338.619-1.4.535-1.706-.084-.284-.385-.719-1.388-.736-.2,0-.234-.518-.033-.552,1.154-.151,1.89-.452,2.057-.836a6.438,6.438,0,0,0,.084-1.338c.017-.217.435-.284.5-.1s.485,1.288.92,1.455a11.214,11.214,0,0,0,2.943.669.656.656,0,0,0,.535-.786,2.75,2.75,0,0,0-.819-1.773c-.4-.251-2.341-1.488-2.442-1.572s.033-.418.167-.385,2.04.635,2.241.669a.522.522,0,0,0,.518-.334c.067-.2.385-1.421.435-1.589s.452-.134.468.033-.05,1.756,0,1.957a7.328,7.328,0,0,0,.987,2.358c.518.535.8.585,1.656.234s4.916-2.676,6.02-3.947c.284-.318.585-1.237-1.221-1.923-1.572-.585-9.281-3.027-14.064,2.508-.084.1-.468-.084-.385-.217.953-1.773,1.054-2.074.9-2.458s-.385-.753-1.806-.853c-.1,0-.15-.385.017-.418Zm21.154,0c1.706-.435,2.625-.669,2.625-1.02s-1.605-1.839-1.722-1.94c-.117-.084.167-.4.334-.3.8.435,2.308,1.07,3.044.585.753-.485.452-2.107.4-2.358-.017-.117.385-.268.452-.084A13.305,13.305,0,0,0,72.7,63.146c.769.736,2.559.6,3.01-.234s-.686-2.726-1.137-3.177c-.1-.1.134-.4.234-.351a5.535,5.535,0,0,1,1.421,1.388c.468.719,1.355,2.525,2.107,2.943.753.435,2.826,1.054,3.144.518.334-.535-.87-2.207-.936-2.274-.067-.084.217-.435.318-.351,1.839,1.4,3.646,4.4,3.646,6.087,0,1.572-2.926,3.8-8.094,6.154-.2.084-.385.184-.6.268-.853.435-.418.786,2.692,2.86a.57.57,0,0,0,.368.117h4.164V87.444c0,.117-.067.217-.2.167a5.522,5.522,0,0,1-2.442-1.973s-.468,1.957-1.806,2.324c-1.355.385-2.96-1.806-5.017-5.234a51.874,51.874,0,0,0-5.92,2.207.311.311,0,0,1-.385-.084c-.067-.1-1.187-1.689-1.254-1.789a.9.9,0,0,1,.134-1.171,55.621,55.621,0,0,0,6.488-6.856c.184-.251,0-.3-.435-.318a5.129,5.129,0,0,0-4.749,2.04c-.1.117-.569-.033-.468-.284.535-1.338.619-1.4.535-1.706-.084-.284-.385-.719-1.388-.736-.217,0-.234-.518-.033-.552,1.154-.151,1.89-.452,2.057-.836a6.438,6.438,0,0,0,.084-1.338c.017-.217.435-.284.5-.1s.485,1.288.92,1.455a11.214,11.214,0,0,0,2.943.669.656.656,0,0,0,.535-.786,2.834,2.834,0,0,0-.819-1.773c-.4-.251-2.341-1.488-2.442-1.572s.033-.418.167-.385,2.04.635,2.241.669a.522.522,0,0,0,.518-.334c.067-.2.385-1.421.435-1.589s.452-.134.468.033-.05,1.756,0,1.957a7.328,7.328,0,0,0,.987,2.358c.518.535.8.585,1.656.234s4.933-2.676,6.037-3.947c.268-.318.585-1.237-1.221-1.923-1.572-.585-9.281-3.027-14.064,2.508-.084.1-.468-.084-.385-.217.953-1.773,1.054-2.074.9-2.458s-.385-.753-1.806-.853c-.134,0-.184-.385-.033-.418Zm21.171,0c1.706-.435,2.625-.669,2.625-1.02s-1.605-1.839-1.722-1.94c-.117-.084.167-.4.334-.3.8.435,2.308,1.07,3.06.585s.452-2.107.4-2.358c-.017-.117.385-.268.452-.084a13.692,13.692,0,0,0,1.773,3.428c.769.736,2.559.6,3.01-.234s-.7-2.726-1.137-3.177c-.1-.1.134-.4.234-.351A5.535,5.535,0,0,1,97.4,60.771c.468.719,1.355,2.525,2.107,2.943.753.435,2.826,1.054,3.144.518.334-.535-.87-2.207-.936-2.274-.067-.084.217-.435.318-.351,1.84,1.4,3.646,4.4,3.646,6.087,0,1.572-2.926,3.8-8.094,6.154-.2.084-.4.184-.6.268-.853.435-.418.786,2.692,2.86a.57.57,0,0,0,.368.117H104.2V87.444c0,.117-.067.217-.2.167a5.522,5.522,0,0,1-2.442-1.973s-.468,1.957-1.806,2.324c-1.355.385-2.96-1.806-5.017-5.234a51.874,51.874,0,0,0-5.92,2.207.311.311,0,0,1-.385-.084c-.067-.1-1.187-1.689-1.254-1.789a.9.9,0,0,1,.134-1.171A55.621,55.621,0,0,0,93.8,75.036c.184-.251,0-.3-.452-.318a5.129,5.129,0,0,0-4.749,2.04c-.1.117-.569-.033-.468-.284.535-1.338.619-1.4.535-1.706-.084-.284-.385-.719-1.388-.736-.217,0-.234-.518-.033-.552,1.154-.151,1.89-.452,2.057-.836a6.439,6.439,0,0,0,.084-1.338c.017-.217.435-.284.5-.1s.485,1.288.92,1.455a11.214,11.214,0,0,0,2.943.669.656.656,0,0,0,.535-.786,2.75,2.75,0,0,0-.819-1.773c-.4-.251-2.341-1.488-2.442-1.572s.05-.418.167-.385c.134.033,2.04.635,2.241.669a.522.522,0,0,0,.518-.334c.067-.2.385-1.421.435-1.589s.452-.134.468.033-.05,1.756,0,1.957a7.328,7.328,0,0,0,.987,2.358c.518.535.8.585,1.656.234s4.916-2.676,6.02-3.947c.268-.318.585-1.237-1.221-1.923-1.572-.585-9.281-3.027-14.064,2.508-.084.1-.468-.084-.385-.217.953-1.773,1.054-2.074.92-2.458-.15-.385-.385-.753-1.806-.853-.134,0-.184-.385-.017-.418ZM38.5,102.829h72.476V47.41H38.5v55.419" transform="translate(25.21 31.2)"/>
      <path id="path54" d="M46.88,65.379a.815.815,0,0,0-.7.936.83.83,0,0,0,1.037.552.815.815,0,0,0,.7-.936.83.83,0,0,0-1.037-.552" transform="translate(30.359 43.265)"/>
      <path id="path56" d="M59.54,65.379a.815.815,0,0,0-.7.936.83.83,0,0,0,1.037.552.815.815,0,0,0,.7-.936.846.846,0,0,0-1.037-.552" transform="translate(38.87 43.265)"/>
      <path id="path58" d="M72.19,65.379a.815.815,0,0,0-.7.936.838.838,0,0,0,1.037.552.815.815,0,0,0,.7-.936.846.846,0,0,0-1.037-.552" transform="translate(47.374 43.265)"/>
      <path id="path60" d="M110.976,50.17,74.788,34.35,38.5,50.22v2.743h72.476V50.17" transform="translate(25.21 22.42)"/>
      <path id="path62" d="M97.779,42.067A3.579,3.579,0,1,0,94.2,38.489a3.583,3.583,0,0,0,3.579,3.579" transform="translate(62.655 22.797)"/>
      <path id="path64" d="M25.679,42.057A3.579,3.579,0,1,0,22.1,38.479a3.583,3.583,0,0,0,3.579,3.579" transform="translate(14.185 22.79)"/>
      <path id="path66" d="M20.447,64.815l3.545.619c1.488.251,4.582.786,5.368,1.3a1.422,1.422,0,0,1,.3,1.054c0,.033,0,.033-.017.769v.084l.033.067c.05.134.134.251.769.518l.167.067.652-.3.05-.151a25.749,25.749,0,0,0,.284-3.194l.435-3.328-.017-.05c-.017-.134-.067-.251-.535-.6l-.117-.084-.819.084-.1.151a2.969,2.969,0,0,0-.251.936c-.134.669-.334.92-.435.953-.268.1-1.355.251-5.686-.5l-3.294-.569c-4.716-.819-6.823-2.993-6.221-6.455a4.958,4.958,0,0,1,1.89-3.411c1.321-.936,3.345-1.154,6.171-.652l6.187,1.07c2.926.5,2.926.535,2.743,1.789l-.117.786.017.084a.8.8,0,0,0,.686.569,1,1,0,0,0,.886-.284l.05-.084c.017-.05.033-.084.753-3.662l.9-3.629-.017-.084a.962.962,0,0,0-1.538-.485l-.067.084a6.027,6.027,0,0,0-.284.836c-.368,1.171-.4,1.288-3.5.753l-6.756-1.171c-3.545-.619-5.886-.251-7.559,1.171a8.643,8.643,0,0,0-2.676,5.385,8.233,8.233,0,0,0,1.237,6.238c1.338,1.656,3.579,2.759,6.873,3.328" transform="translate(7.526 31.572)"/>
      <path id="path68" d="M34.282,83.49a3.545,3.545,0,0,1,.786,1.137l.234.468.084.05a.965.965,0,0,0,.97.084.9.9,0,0,0,.518-.585l.017-.067V84.51c0-.067-.017-.117-1.087-2.993L34.75,78.206l-.05-.117a.873.873,0,0,0-.853-.351.947.947,0,0,0-.753.552l-.05.134a2.439,2.439,0,0,0,.1.669c.251,1.154.167,1.4.151,1.438-.1.117-.8.736-5.351,1.957l-6.037,1.622c-.033.017-.084.017-.117.033.552-.819,1.538-2.324,3.311-5.117h0c.084-.134,2.324-3.545,2.324-3.545l.351-.518c.92-1.371,3.361-5.017,4.465-5.8l.151-.117.017-.184a5.51,5.51,0,0,0-.334-1.472l-.569-3.177-.067-.151a.83.83,0,0,0-.769-.368,1.075,1.075,0,0,0-.836.468l-.05.117a2.02,2.02,0,0,0,.017.686,2.635,2.635,0,0,1-.217,1.572,2.379,2.379,0,0,1-1.639.953L19.75,69.661l-.468.134a25.115,25.115,0,0,1-5.117,1.054c-.05,0-.251-.15-.435-.736l-.251-.719-.067-.117c-.084-.117-.2-.2-.8-.234l-.151-.017-.652.535-.017.167a26.745,26.745,0,0,0,.7,3.044l.6,3.294.05.134c.067.1.167.217.652.368l.151.05.635-.334.167-.15.05-.167a9.281,9.281,0,0,0-.067-1.054,3.664,3.664,0,0,1-.033-.719,1,1,0,0,1,.1-.4h0c.585-.5,3.612-1.438,5.5-1.94l6.121-1.639c.268-.067.5-.134.719-.184-.819,1.2-2.308,3.378-2.308,3.378-.05.067-5.669,8.512-5.669,8.512C16.84,85.4,16.238,86.233,15.921,86.6l-.117.134.033.184c.084.585.418.953.9.97h.084l.084-.033c.284-.1,1.3-.435,4.8-1.371l7.174-1.923c1.221-.351,4.4-1.2,5.4-1.07" transform="translate(7.254 42.144)"/>
      <path id="path70" d="M38.718,86.953a.888.888,0,0,0,.92-.134A.967.967,0,0,0,40.056,86l-.033-.1c-.017-.05-.033-.1-2.157-3.044l-1.99-3.077-.117-.117a.919.919,0,0,0-.987.033.808.808,0,0,0-.468.719l.017.1a6.2,6.2,0,0,0,.418.786c.619,1.07.652,1.137-1.906,2.893l-8.545,5.853c-2.508,1.722-2.542,1.672-3.378.719l-.569-.635-.117-.033a.975.975,0,0,0-.97.268.892.892,0,0,0-.3.719l.033.1c.017.05.033.1,2.191,3.094L23.133,97.3l.117.117a.829.829,0,0,0,.435.134,1.05,1.05,0,0,0,.552-.167.84.84,0,0,0,.468-.719l-.017-.1c-.017-.05-.033-.084-.385-.769-.6-1.137-.619-1.187,1.873-2.893l8.545-5.853c2.559-1.756,2.609-1.706,3.378-.736l.468.569.151.067" transform="translate(12.065 52.796)"/>
      <path id="path72" d="M51.43,99.611a1.077,1.077,0,0,0,.836-.585h0a.863.863,0,0,0,.05-.753l-.067-.1c-.05-.05-.084-.084-2.442-1.572l-2.475-1.789-.1-.017a.936.936,0,0,0-.886.351,1.018,1.018,0,0,0-.251.585,1.029,1.029,0,0,0,.017.234l.05.117c.033.05.067.117.5.485a2.993,2.993,0,0,1,.552.569l-.652.569-11.338,6.472c.652-2.525,2.425-9.331,2.425-9.331.5-1.873.97-3.278,1.187-3.846a4.269,4.269,0,0,1,.753.418l.452.284h.1a.868.868,0,0,0,.819-.418.977.977,0,0,0,.134-.87l-.05-.1c-.033-.05-.067-.1-2.86-2.324L35.845,85.9l-.1-.017a.884.884,0,0,0-.886.268.939.939,0,0,0-.251.836l.033.1c.017.05.05.117.468.535.669.719.719,1.237.268,2.943l-3.6,13.328a29.9,29.9,0,0,1-1.237,3.813l-.033.084v.1c0,.084.017.234.435.7l.117.134.6.2.167-.117c1.455-.987,4.716-2.926,7.024-4.231l3.411-1.906c2.977-1.656,5.468-2.893,6.806-3.512a1.44,1.44,0,0,1,1.388-.033l.853.485h.117" transform="translate(19.839 57.044)"/>
      <path id="path74" d="M61.72,98.186c-.284-.017-2.09-.569-3.528-1.02l-.084-.033c-.017,0-5.251-1.622-5.251-1.622h0l-3.328-1.12h-.084a.89.89,0,0,0-.736.635.914.914,0,0,0,.067.87l.067.067c.033.017.084.05.552.268,1.171.518,1.221.535.334,3.411l-3.094,10c-.886,2.876-1.02,2.843-2.207,2.592l-1.054-.217-.117.05a.981.981,0,0,0-.6.8.827.827,0,0,0,.217.753l.084.067c.05.033.084.05,3.913,1.137L57,118.053l.167-.167a20.234,20.234,0,0,0,2.659-3.629l.05-.1v-.1a.956.956,0,0,0-.452-.8,1.01,1.01,0,0,0-.836-.134l-.1.033-.067.067a7.515,7.515,0,0,1-2.575,1.973,8.56,8.56,0,0,1-3.445-.669c-2.508-.786-2.743-1.221-2.86-1.421-.217-.452,0-1.388.4-2.676l1.2-3.913c.033-.084.05-.184.084-.251.1.017.284.084.435.117l1.605.5a9.987,9.987,0,0,1,1.973.753c.268.15.334.368.3.853l-.1,1.254.033.084a1.019,1.019,0,0,0,.769.619.884.884,0,0,0,.8-.184l.067-.084a6.313,6.313,0,0,0,.351-1.2l.435-1.639,1-2.86-.017-.1a.889.889,0,0,0-.552-.686.984.984,0,0,0-.936.033l-.084.067c-.033.05-.067.084-.669,1.187-.268.485-.368.5-.535.5a10.138,10.138,0,0,1-2.258-.535c-.05-.017-1.605-.5-1.605-.5-.167-.05-.334-.1-.418-.134a2.58,2.58,0,0,1,.084-.284l1.722-5.552c.067-.234.151-.485.2-.619a1.586,1.586,0,0,1,.334.1l2.007.619a13.563,13.563,0,0,1,2.525.953c1.037.635,1.037,1.4,1.054,2.692v.167l.017.134a.866.866,0,0,0,.652.552,1.037,1.037,0,0,0,.87-.134l.084-.1a1.36,1.36,0,0,0,.167-.569,25.789,25.789,0,0,0,.635-3.579l-.017-.468-.451-.033" transform="translate(27.994 62.783)"/>
      <path id="path76" d="M69.81,105.548a4.441,4.441,0,0,1-2.609.9c-.92.084-1.355.067-1.572.117-.017-.167-.05-.4-.067-.552l-.669-6.789a1.406,1.406,0,0,0-.05-.318,5.819,5.819,0,0,1,1.338-.167c3.177-.15,4.415,1.689,4.549,3.462a3.928,3.928,0,0,1-.92,3.345Zm10.084,8.763-.05-.017h-.067a3.224,3.224,0,0,1-1.873-.468c-2.174-1.388-4.047-3.6-6.656-6.823l-.033-.033a5.82,5.82,0,0,0,3.094-5.518A4.781,4.781,0,0,0,71.2,97.22a10.185,10.185,0,0,0-4.615-.4l-.485.033c-2.642.134-4.682.318-6.422.569l-.134.033a.822.822,0,0,0-.452.753,1,1,0,0,0,.418.87l.084.05a6.456,6.456,0,0,0,1.087.1c.719.05.853.067,1.12,2.91l1,10.485c.284,2.876.284,2.876-.953,3.11l-.853.15-.1.1a1.027,1.027,0,0,0-.234.97.925.925,0,0,0,.468.6l.1.033h.05c.134,0,.669-.033,3.679-.268l3.445-.1.167-.05a.877.877,0,0,0,.452-.753,1.017,1.017,0,0,0-.334-.87l-.1-.05a4.258,4.258,0,0,0-.769-.1c-1.3-.117-1.321-.117-1.622-3.127l-.351-3.646a.285.285,0,0,0-.017-.117c.167-.033.485-.067.853-.1a1.768,1.768,0,0,1,1.789.569l3.445,3.98c2.458,2.692,4.03,3.395,6.823,3.044l1.388-.334.084-.067a.823.823,0,0,0,.234-.786.9.9,0,0,0-.552-.5" transform="translate(39.051 64.368)"/>
      <path id="path78" d="M82.851,96.116Zm-.134,5.067-2.726-.084c-1.773-.084-2.943-.619-3.512-1.589a3.457,3.457,0,0,1-.452-1.438,2.7,2.7,0,0,1,1.639-2.391c2.04-1.187,3.395-.268,4.448.786l.117.084a.863.863,0,0,0,.836-.084,1.047,1.047,0,0,0,.5-.769v-.117l-.05-.1a12.712,12.712,0,0,0-2.375-3.01l-.1-.084-.134-.017a3.393,3.393,0,0,0-1.187.351,9.914,9.914,0,0,0-2.659,1.087,6.951,6.951,0,0,0-3.244,3.629,5.09,5.09,0,0,0,.452,4.381,6.616,6.616,0,0,0,5.636,2.993l3.294.167c2.358.117,3.144,1.12,3.7,2.074a2.871,2.871,0,0,1,.334,2.107,3.2,3.2,0,0,1-1.605,1.906c-1.923,1.12-3.9.719-5.886-1.171l-.084-.067a.788.788,0,0,0-.769.017,1.05,1.05,0,0,0-.552.786l-.017.134.067.117a12.989,12.989,0,0,0,2.91,3.361l.1.05h.2a9.427,9.427,0,0,0,4.682-1.4,7.071,7.071,0,0,0,3.5-4.181,5.8,5.8,0,0,0,.184-1.505,5.858,5.858,0,0,0-.819-2.776c-1.271-2.074-3.345-3.144-6.422-3.244" transform="translate(48.753 61.425)"/>
      <path id="path80" d="M101.27,100.182l-.084.017a3.914,3.914,0,0,0-.736.485c-1.07.753-1.087.769-3.11-1.488L90.417,91.5c-2.074-2.308-2.023-2.358-1.187-3.261l.569-.6.033-.084a.848.848,0,0,0-.268-.886.973.973,0,0,0-.87-.3l-.084.033c-.067.033-.1.05-2.743,2.559l-2.776,2.375-.1.134a.893.893,0,0,0,.167.97.82.82,0,0,0,.786.368l.1-.033c.05-.017.1-.033.719-.518.987-.753,1.054-.786,3.127,1.522l6.923,7.692c2.023,2.258,1.99,2.291,1.137,3.261l-.552.635-.017.117a.966.966,0,0,0,.385.92.9.9,0,0,0,.569.217.569.569,0,0,0,.167-.017l.1-.033c.05-.033.1-.05,2.793-2.592l-.017-.017c.284-.217.953-.786,2.743-2.324l.1-.134a.893.893,0,0,0-.167-.953.905.905,0,0,0-.786-.368" transform="translate(55.067 57.376)"/>
      <path id="path82" d="M113.012,88.241a.859.859,0,0,0-.87-.117l-.1.067a9.587,9.587,0,0,0-.619.853c-.736,1.02-.769,1.054-3.361-.435L96.824,82.187c-.15-.084-.3-.167-.4-.234a2.336,2.336,0,0,0,.15-.284l1.02-1.789a5.5,5.5,0,0,1,2.074-2.358,3.293,3.293,0,0,1,1.806.435l.1.033.1-.017a.94.94,0,0,0,.786-.619.9.9,0,0,0-.033-.853l-.067-.084-.1-.05A18.669,18.669,0,0,1,98.73,73.86l-.1-.1-.134-.017a.938.938,0,0,0-.97.819l-.017.134.067.117c.334.6.351.635-.4,1.94L91.322,86.97c-.769,1.355-1,1.605-1.4,1.472l-.1-.033-.1.017a1.076,1.076,0,0,0-.736,1.02l.017.167.117.1a35.23,35.23,0,0,1,3.194,3.144l.084.1.134.033a1.007,1.007,0,0,0,.953-.3.887.887,0,0,0,.268-.786l-.05-.151-.05-.084a5.294,5.294,0,0,1-1-1.957c-.2-.853.7-2.425,1.087-3.094l.8-1.388a2.906,2.906,0,0,1,.184-.3c.1.05.251.134.368.2l11.288,6.455c2.609,1.488,2.559,1.605,2.057,2.709l-.452.953-.033.167a.923.923,0,0,0,.535.836,1.035,1.035,0,0,0,.485.117.667.667,0,0,0,.4-.117l.067-.067c.05-.05.067-.084,2.023-3.662l-.033-.017c.251-.334.753-1.171,1.99-3.227l.05-.15a.921.921,0,0,0-.452-.886" transform="translate(59.145 48.898)"/>
      <path id="path84" d="M118.145,65.8a20.107,20.107,0,0,0-3.9-2.241l-.1-.033-.1.017a.931.931,0,0,0-.753.552.982.982,0,0,0-.033.836l.033.084.084.067a7.655,7.655,0,0,1,2.241,2.341,8.6,8.6,0,0,1-.284,3.5c-.5,2.592-.9,2.876-1.1,2.993-.418.268-1.388.15-2.692-.1l-3.963-.753-.318-.117c.017-.117.05-.284.067-.385l.318-1.656a10.071,10.071,0,0,1,.518-2.04c.134-.268.334-.368.819-.385l1.171-.05.167-.033a1.031,1.031,0,0,0,.535-.819.916.916,0,0,0-.268-.786l-.1-.067a5.3,5.3,0,0,0-1.221-.217l-1.672-.251-2.96-.686-.1.017a.815.815,0,0,0-.619.635,1.021,1.021,0,0,0,.134.92l.067.067a8.8,8.8,0,0,0,1.254.535c.518.217.535.318.552.468a10.753,10.753,0,0,1-.284,2.308l-.318,1.656a4.363,4.363,0,0,1-.1.435c-.084-.017-.184-.033-.284-.05l-5.7-1.1c-.268-.05-.518-.1-.635-.134a3.275,3.275,0,0,1,.05-.334l.4-2.057a14.763,14.763,0,0,1,.669-2.625c.5-1.087,1.271-1.187,2.542-1.338l.184-.017.134-.033a.906.906,0,0,0,.485-.7,1.054,1.054,0,0,0-.234-.853l-.1-.084a1.775,1.775,0,0,0-.6-.1,26.293,26.293,0,0,0-3.612-.234L98.061,63l.033.468c.017.284-.334,2.141-.619,3.629l-1.054,5.468L95.67,76l.017.084a.923.923,0,0,0,.719.669.871.871,0,0,0,.853-.167l.05-.067c.033-.033.05-.084.217-.585.385-1.221.4-1.271,3.345-.7L111.155,77.2c2.96.569,2.943.7,2.809,1.906l-.1,1.087.067.1a.947.947,0,0,0,.87.5h.033a.788.788,0,0,0,.686-.3l.05-.084c.017-.05.033-.084.7-4.013l2.09-10.435-.217-.167" transform="translate(63.644 41.627)"/>
      <path id="path86" d="M98.93,55.044c-.017-.084-.05-.2-.084-.318h0c-.033-.151-.117-.569-.435-2.023a5.407,5.407,0,0,1-.033-3.127c.067-.134.468-.468,1.622-.836l.1-.033.067-.067a.966.966,0,0,0,.2-.97.875.875,0,0,0-.585-.619L99.649,47l-.1.033a18.164,18.164,0,0,1-4.314.385L95.1,47.4l-.117.067a.831.831,0,0,0-.334.485,1.024,1.024,0,0,0,.15.769l.067.1.117.05c.635.234.686.251,1,1.739l2.492,11.539c.334,1.522.318,1.856-.05,2.007l-.1.033-.067.084a1.083,1.083,0,0,0,.117,1.254l.117.117h.167a36.9,36.9,0,0,1,4.482.3l.134.017.117-.067a1,1,0,0,0,.518-.836.933.933,0,0,0-.318-.769l-.067-.067-.184-.05a5.387,5.387,0,0,1-2.023-.819c-.635-.468-1.02-1.873-1.271-3.06l-.334-1.572c-.017-.084-.05-.234-.067-.334.1-.033.251-.05.385-.084l12.743-2.425c2.96-.569,2.993-.435,3.328.736l.284,1,.067.151a.869.869,0,0,0,.953.284.848.848,0,0,0,.669-.569l.017-.084c0-.067,0-.1-.836-4.08l-.635-3.763-.067-.151a.884.884,0,0,0-.9-.351.856.856,0,0,0-.719.468l-.033.084a5.4,5.4,0,0,0,.067,1.087c.1,1.237.117,1.288-2.826,1.839L99.4,54.96c-.184.033-.368.067-.468.084" transform="translate(62.943 30.924)"/>
      <path id="path88" d="M28.74,31.042l.1-.017a4.092,4.092,0,0,0,.736-.468c1.054-.7,1.054-.7,2.692,1.589.067.084,4.1,5.535,4.1,5.535,2.124,2.91,4.064,4.264,6.254,4.4a4.076,4.076,0,0,0,.452.017,9.09,9.09,0,0,0,5.151-1.973,7.58,7.58,0,0,0,3.462-5.017c.334-2.124-.4-4.5-2.258-7.274l-1.839-2.726a22.446,22.446,0,0,1-2.726-4.933c-.017-.1.134-.452.635-.8l.569-.4.1-.117c.084-.134.117-.284-.1-.9l-.05-.151-.669-.318-.151.05A30.515,30.515,0,0,0,42.5,19.219v.017c-.268.134-.936.518-2.843,1.605l-.1.084c-.084.1-.167.217-.117.753l.017.151.619.585.167-.017c.067,0,.167-.017.87-.368.736-.368,1.037-.268,1.12-.234.7.368,2.308,2.776,3.161,4.064l2.191,3.278a10.138,10.138,0,0,1,1.94,4.749,4.4,4.4,0,0,1-2.174,4.03c-3.077,2.157-5.652,1.338-8.629-2.709l-3.729-5.067-.1-.151c-1.639-2.291-1.639-2.291-.786-3.127l.5-.485.1-.134a.98.98,0,0,0-1-1.254l-.1.033c-.05.033-.1.05-2.793,2.358L28,29.537l-.117.134a.936.936,0,0,0,.117.987.951.951,0,0,0,.736.385" transform="translate(18.014 11.079)"/>
      <path id="path90" d="M72.225,32.047l.084-.05a.818.818,0,0,0,.418-.719,1.129,1.129,0,0,0-.368-.87l-.117-.067a4.8,4.8,0,0,0-1.12-.067c-.886-.033-.97-.284-1.271-1.639L67.292,15.943c-.334-1.873-.251-2.057,1.137-2.308l.7-.117.084-.067a.828.828,0,0,0,.268-.819,1.055,1.055,0,0,0-.452-.769l-.117-.05a24.7,24.7,0,0,0-2.692.251l-2.692.084.033.552a2.471,2.471,0,0,1,.017.351,20.014,20.014,0,0,1-1.254,5.368c-.033.084-1.923,6.438-1.923,6.438s-.669,2.107-1.054,3.328c-.318-.468-.836-1.2-1.689-2.358l-4.766-6.789c-.569-.769-2.107-2.843-2.191-4.08l-.05-.619-2.876.786c-.1.017-2.324.452-2.324.452l-.151.067a.924.924,0,0,0-.4.786,1.042,1.042,0,0,0,.334.786l.15.067a1.681,1.681,0,0,0,.669-.017h0c1.455-.1,1.572-.067,1.789,1.505,0,.017,0,.017.769,6.4l.518,5.9.067.9c.151,1.806-.1,1.906-1.054,2.258h0c-.1.033-.268.1-.619.251l-.151.1a.92.92,0,0,0-.217.819,1.015,1.015,0,0,0,.5.7l.151.033h.033a30.4,30.4,0,0,0,3.077-.836l3.177-.736.134-.05a.875.875,0,0,0,.385-.819.937.937,0,0,0-.485-.786L54,32.883a5.618,5.618,0,0,0-1.3.184.9.9,0,0,1-.585-.017c-.268-.184-.468-1.321-.552-1.856l-.87-6.422-.435-3.813,1.438,2.191.017-.017c.217.351.953,1.421,3.5,5.117l.5.719a53.492,53.492,0,0,1,2.96,4.532l.05.084a.855.855,0,0,0,.769.268.866.866,0,0,0,.652-.452l.033-.084c.284-1.338,1.054-4.1,1.99-7.04l2.375-7.626,1.856,10.1a9.017,9.017,0,0,1,.167,1.321c.017.368.017.485-.769.619l-.819.151-.134.05c-.117.067-.234.184-.334.753l-.033.151.468.719.167.033a32.189,32.189,0,0,0,3.629-.318l3.5-.184" transform="translate(29.513 7.265)"/>
      <path id="path92" d="M81.962,31.741l.05-.1-.017-.1a.954.954,0,0,0-.5-.786,1.027,1.027,0,0,0-.853-.084l-.084.033-.067.067a7.375,7.375,0,0,1-2.458,2.09,8.5,8.5,0,0,1-3.478-.485c-2.559-.652-2.809-1.07-2.926-1.271a4.962,4.962,0,0,1,.251-2.692l.987-3.913L73,24.183c.117.017.284.067.385.084l1.639.418a10.152,10.152,0,0,1,2.023.652c.268.134.351.351.334.836h0c0,.134-.017.418-.033,1.171v.084l.033.084a1.037,1.037,0,0,0,.8.585.91.91,0,0,0,.786-.217l.084-.117a8.871,8.871,0,0,0,.268-1.187l.351-1.656.853-2.91-.017-.1a.872.872,0,0,0-.6-.669,1,1,0,0,0-.92.084l-.067.067a11.34,11.34,0,0,0-.6,1.221c-.234.5-.334.518-.5.518a10.2,10.2,0,0,1-2.274-.418L73.9,22.293c-.167-.05-.334-.084-.435-.117.017-.084.05-.184.067-.284l1.438-5.652a4.786,4.786,0,0,1,.167-.6,3.221,3.221,0,0,1,.334.084l2.023.518a12.629,12.629,0,0,1,2.575.819c1.07.569,1.1,1.338,1.187,2.625l.017.184.033.117A.917.917,0,0,0,82,20.52a1.056,1.056,0,0,0,.853-.184l.084-.1a2.6,2.6,0,0,0,.15-.585,23.488,23.488,0,0,0,.435-3.6l-.05-.452H83c-.3,0-2.141-.468-3.629-.836l-5.351-1.355-3.378-.953-.084.017a.9.9,0,0,0-.7.669.873.873,0,0,0,.117.87l.084.067a5,5,0,0,0,.552.234c1.2.468,1.237.485.518,3.395l-2.592,10.1c-.736,2.926-.87,2.893-2.057,2.709l-1.07-.167-.117.05a1.031,1.031,0,0,0-.569.836.826.826,0,0,0,.268.736l.067.05c.067.033.1.05,4,.953l2.525.635L79.1,35.6l.234.067L79.5,35.5a20.5,20.5,0,0,0,2.458-3.763" transform="translate(42.836 7.704)"/>
      <path id="path94" d="M87.415,30.182h0c.017-.017.017-.017,4.967-3.5l.518-.334-1.856,6.1c-.033.1-.05.167-.067.217a.994.994,0,0,1-.184-.134l-.017.033c-.318-.268-1.12-.836-3.244-2.324a.956.956,0,0,0-.117-.067Zm8.6-9.231h0a1.44,1.44,0,0,1,1.154-.669,1.054,1.054,0,0,1,.585.184,1.256,1.256,0,0,1,.117,1.806,1.584,1.584,0,0,1-.953.669,1.015,1.015,0,0,1-.786-.184,1.054,1.054,0,0,1-.435-.669,1.609,1.609,0,0,1,.318-1.137ZM76.361,33.694c.033.05.1.1.753.468l1.773,1.02L81.361,36.8l.134.067a.932.932,0,0,0,.92-.334.958.958,0,0,0,.184-.9l-.067-.1c-.033-.05-.067-.1-.87-.7a2.447,2.447,0,0,1-.251-.217,11.659,11.659,0,0,1,1.823-1.555l1.99-1.355c.3-.217.3-.217.719.067l3.913,2.759a1.846,1.846,0,0,1,.452.368.788.788,0,0,1-.067.284c-.017.033-.017.033-.953,3.294a9.543,9.543,0,0,1-.468,1.254,1.621,1.621,0,0,1-.468-.234l-.786-.5-.1-.017a.864.864,0,0,0-.836.418.927.927,0,0,0-.1.92l.05.084a4.5,4.5,0,0,0,.6.485L89.3,42.506l2.776,2.341.117.017h.084a.931.931,0,0,0,.769-.435.968.968,0,0,0,.167-.8l-.05-.1a8.49,8.49,0,0,0-.635-.669c-.7-.7-.769-1.087-.033-3.5.017-.033.017-.033,3.512-11.923L96.8,24.78a3.148,3.148,0,0,0,2.843-1.271A3.317,3.317,0,0,0,94.221,19.7a3.151,3.151,0,0,0-.167,3.311l-1.321.92h0c-.15.1-6.94,4.7-6.94,4.7l-.92.652h.067C84,29.9,82.532,30.851,81.9,31.235l-.017-.017-1.89,1.237a1.552,1.552,0,0,1-1.773.234l-.936-.468h-.1a.928.928,0,0,0-.786.5.94.94,0,0,0-.1.836l.067.134" transform="translate(50.577 11.688)"/>
    </g>
  </g>
</svg>
