<svg xmlns="http://www.w3.org/2000/svg" xmlns:xlink="http://www.w3.org/1999/xlink" width="600" height="300" viewBox="0 0 600 300"><defs><clipPath id="clip-Logo"><path d="M0 0h600v300H0z"/></clipPath></defs><g id="Logo" clip-path="url(#clip-Logo)"><path fill="#e8eff3" d="M0 0h600v300H0z"/><g id="Layer_2" transform="translate(234.066 173.429)"><g id="Layer_1" transform="translate(0 -.009)"><path id="Path_1422" fill="#1d1d1b" d="M0 1.93h2.7l7.84 21.5a32 32 0 0 1 1.06 3.58h.06a34 34 0 0 1 1.12-3.53l7.84-21.55h2.58l-10.13 27.6H10.2Z" transform="translate(0 .568)"/><path id="Path_1423" fill="#1d1d1b" d="M26.14 28.17c-5.78 0-8.42-3.87-8.42-9.78s2.94-10.07 8.3-10.07c5.6 0 7.58 4.47 7.58 8.94v1.55H20.25c.15 4.59 1.95 7.37 5.92 7.37a4.6 4.6 0 0 0 4.8-3.22h2.38a7.1 7.1 0 0 1-7.22 5.2Zm4.93-11.45c0-2.96-1.04-6.44-5.05-6.44-3.53-.01-5.36 2.78-5.73 6.65h10.78Z" transform="translate(5.117 2.414)"/><path id="Path_1424" fill="#1d1d1b" d="M37.45 4.28v5.67h4.83v1.95h-4.83v12.23c0 2.02.86 2.89 3.03 2.89a13 13 0 0 0 2.16-.2v2.08a12 12 0 0 1-2.73.28c-3.65 0-4.91-1.94-4.91-4.75V11.9h-3.61v-1.87h.79c2.42 0 2.92-.54 2.92-4.01V4.28Z" transform="translate(9.064 1.247)"/><path id="Path_1425" fill="#1d1d1b" d="M49.97 28.17c-5.78 0-8.42-3.87-8.42-9.78s2.93-10.07 8.31-10.07c5.6 0 7.58 4.47 7.58 8.94v1.55H44.08c.14 4.56 1.92 7.37 5.91 7.37a4.6 4.6 0 0 0 4.77-3.22h2.38a7.1 7.1 0 0 1-7.17 5.2m4.93-11.45c0-2.96-1.04-6.44-5.05-6.44-3.53 0-5.42 2.74-5.74 6.64H54.9Z" transform="translate(11.998 2.414)"/><path id="Path_1426" fill="#1d1d1b" d="M69.33 15.76a7 7 0 0 0-.79-3.97 3.6 3.6 0 0 0-3.18-1.29c-3.86 0-5.6 2.85-5.6 6.1v11.14H57.2V8.8h2.33v3.35h.08a6.7 6.7 0 0 1 6.28-3.87c4.08 0 5.91 2.2 5.91 6.53v12.88h-2.46Z" transform="translate(16.514 2.401)"/><path id="Path_1427" fill="#1d1d1b" d="M83.37 13.33c-.29-1.84-1.85-3.06-4.4-3.06s-4.27 1.5-4.27 3.39 1.04 2.7 2.96 2.96l3.4.46c3.6.5 5.15 2.35 5.15 5.24 0 3.56-2.93 5.85-7.22 5.85-3.86 0-6.93-1.56-7.43-5.78H74c.4 2.23 1.8 3.8 5.03 3.8 2.89 0 4.7-1.53 4.7-3.66 0-1.7-.55-2.78-3.28-3.18l-3.1-.42c-3.2-.44-5-1.95-5-5.06 0-3.32 2.71-5.55 6.68-5.55s6.45 1.83 6.75 5.01Z" transform="translate(20.663 2.414)"/><path id="Path_1428" fill="#1d1d1b" d="M88.78 29.72H86.2V1.29h2.58v19.16l8.62-9.64h2.99l-6.44 7.12 7.56 11.79h-2.99l-6.31-9.92-3.43 3.79Z" transform="translate(24.891 .384)"/><path id="Path_1429" fill="#1d1d1b" d="M100.23 13.8c0-2.95 2.58-5.48 6.86-5.48 5.23 0 6.71 2.89 6.71 6.96v8.22c0 1.74.5 2.35 1.85 2.38v1.99h-.34c-2.7 0-3.67-1.19-3.86-3.71h-.08a6.7 6.7 0 0 1-6.36 3.86c-3.53 0-5.8-1.95-5.8-5.3a4.9 4.9 0 0 1 2.57-4.62c1.88-1.06 4.98-1.38 9.56-1.62v-1.2c0-2.95-1.04-5.02-4.4-5.02-2.9 0-4.26 1.63-4.4 3.57Zm11.15 5.37v-.78c-4.69.28-7.07.58-8.26 1.44a3.2 3.2 0 0 0-1.29 2.75c0 2.23 1.48 3.39 3.75 3.39 2.64-.02 5.75-2.13 5.75-6.8Z" transform="translate(28.643 2.414)"/><path id="Path_1430" fill="#1d1d1b" d="M115.14 8.8h2.42v3.35a6.8 6.8 0 0 1 6.3-3.87c3.95 0 7.62 2.42 7.62 9.7 0 6.86-3.67 10.15-8 10.15a6.2 6.2 0 0 1-5.77-3.61h-.08v9.92h-2.58Zm8.2 17.36c3.75 0 5.62-3.14 5.62-8.12 0-4.26-1.37-7.73-5.56-7.73-3.79 0-5.8 3.1-5.8 6.44v2.77c-.03 3.35 1.8 6.64 5.74 6.64" transform="translate(33.221 2.401)"/><path id="Path_1431" fill="#1d1d1b" d="M141.8 13.33c-.28-1.84-1.82-3.06-4.39-3.06s-4.23 1.48-4.23 3.39 1.05 2.7 2.97 2.96l3.39.46c3.6.5 5.15 2.35 5.15 5.24 0 3.56-2.92 5.85-7.21 5.85-3.87 0-6.94-1.56-7.44-5.78h2.45c.4 2.23 1.8 3.8 5.02 3.8 2.92 0 4.72-1.53 4.72-3.66 0-1.7-.54-2.78-3.28-3.18l-3.1-.42c-3.18-.44-4.98-1.95-4.98-5.06 0-3.32 2.7-5.55 6.67-5.55s6.45 1.83 6.75 5.01Z" transform="translate(37.55 2.414)"/><path id="Path_1432" fill="#1d1d1b" d="M144.84 8.76h2.35v3.93h.08a6.5 6.5 0 0 1 5.94-4.29h.33v2.49h-.51c-2.95 0-5.66 1.94-5.66 6.44v10.31h-2.58Z" transform="translate(41.809 2.437)"/><path id="Path_1433" fill="#1d1d1b" d="M153.87 16.2c0-2.95 2.57-5.48 6.85-5.48 5.23 0 6.72 2.89 6.72 6.96v8.22c0 1.74.5 2.35 1.83 2.39v1.98h-.33c-2.7 0-3.67-1.18-3.86-3.7a6.7 6.7 0 0 1-6.36 3.86c-3.53 0-5.8-1.96-5.8-5.31a4.9 4.9 0 0 1 2.57-4.62c1.87-1.05 4.97-1.38 9.56-1.62v-1.2c0-2.95-1.04-5.01-4.4-5.01-2.9 0-4.26 1.62-4.4 3.57ZM165 21.57v-.78c-4.69.28-7.07.58-8.26 1.44a3.2 3.2 0 0 0-1.29 2.75c0 2.23 1.49 3.39 3.75 3.39 2.7-.02 5.8-2.13 5.8-6.8m-7.73-17.92A3.5 3.5 0 0 1 161 0a3.45 3.45 0 0 1 3.73 3.65 3.5 3.5 0 0 1-3.72 3.65 3.45 3.45 0 0 1-3.68-3.65Zm1.73 0c0 1.29.68 2.23 1.94 2.23a2 2 0 0 0 1.99-2.23 1.99 1.99 0 1 0-3.87 0Z" transform="translate(44.151 .009)"/><path id="Path_1434" fill="#1d1d1b" d="M184.16 29.72h-2.39v-3.29h-.1a6.5 6.5 0 0 1-5.99 3.77c-3.79 0-7.94-2.28-7.94-9.82 0-6.45 3.25-10.03 8.12-10.03a5.9 5.9 0 0 1 5.7 3.57h.08V1.29h2.58Zm-2.46-10.86c0-3.53-2.09-6.45-5.55-6.45-3.97 0-5.82 3.29-5.82 7.88s1.6 7.94 5.6 7.94 5.77-3.15 5.77-6.36Z" transform="translate(48.436 .384)"/><path id="Path_1435" fill="#1d1d1b" d="M192.21 28.17c-5.77 0-8.4-3.87-8.4-9.78s2.93-10.07 8.3-10.07c5.6 0 7.58 4.47 7.58 8.94v1.55h-13.35c.14 4.59 1.94 7.37 5.91 7.37a4.6 4.6 0 0 0 4.77-3.22h2.38a7.14 7.14 0 0 1-7.2 5.2Zm4.95-11.45c0-2.96-1.04-6.44-5.05-6.44-3.53 0-5.41 2.74-5.73 6.64h10.78Z" transform="translate(53.076 2.414)"/><path id="Path_1436" fill="#1d1d1b" d="M203.69 4.28v5.67h4.83v1.95h-4.83v12.23c0 2.02.86 2.89 3.03 2.89a13 13 0 0 0 2.16-.2v2.08a12 12 0 0 1-2.78.28c-3.64 0-4.91-1.94-4.91-4.75V11.9h-3.6v-1.87h.82c2.42 0 2.93-.54 2.93-4.01V4.28Z" transform="translate(57.055 1.247)"/></g></g><g id="Layer_2-2" transform="translate(100.002 89)"><g id="Lager_1" transform="translate(-.002)"><path id="Path_1437" fill="#1d1d1b" d="M.84 50.92A3.2 3.2 0 0 1 0 48.6v-.23a3.4 3.4 0 0 1 2.13-2.88 59 59 0 0 1 9.8-3.36c1.64-.37 9.86-2.1 11.5-2.36s11.06-1.29 12.32-1.43 16.47-1.38 17.82-1.5l11.32-.57a57 57 0 0 0 9.1-1.18 30 30 0 0 1 4.03-1.12 5.3 5.3 0 0 1 5.75 2.87s2.44 4.11 1.14 6.38a2 2 0 0 1-.2.35 10 10 0 0 1-3.76 3.39 5 5 0 0 1-2.36.74 42 42 0 0 1-6.95 0l-1.9-.14-9.4-.37c-4.65-.2-8.62-.5-10.83-.44s-6.38 0-10 .3l-14.37 1.23c-2.01.18-9.02.86-11.23 1.23s-6.07 1.21-6.96 1.44a14 14 0 0 1-5.31.52 2 2 0 0 1-.8-.4" transform="translate(.002 63.468)"/><path id="Path_1438" fill="#1d1d1b" d="M42.32 73.56c-1.63 0-2.1-1.92-3.04-3.59s-4.97-9.57-5.92-11.35-6.47-12.44-7.3-13.76c-.58-.9-3.76-6.76-5.75-10.26-.97-1.67-2.87-4.45-4.1-6.3l-4.6-6.17c-1.39-1.78-4.17-5.55-6.5-8.62a4.4 4.4 0 0 1 .69-5.75 9 9 0 0 1 4.45-1.32 5 5 0 0 1 1.7.29 12 12 0 0 1 3.14 1.63 47 47 0 0 1 8.87 9.54c2.19 2.88 5.75 10 7.13 12.27s4.83 10.9 5.57 12.6 3.42 9.4 4.55 12.37 2.55 7.36 3.5 10.92a11 11 0 0 1 .7 4.43 3 3 0 0 1-.24 1.15 3.5 3.5 0 0 1-2.87 1.92" transform="translate(8.167 12.064)"/><path id="Path_1439" fill="#1d1d1b" d="M20.51 47.24s-.57.23-1.15-.92a2.4 2.4 0 0 1 0-1.2 92 92 0 0 1 5.4-17.88 107 107 0 0 1 6.64-13.73c2.73-3.97 6.67-9.6 9.17-11.15A11 11 0 0 1 47.37 0a5.6 5.6 0 0 1 4.29 2.87 5.8 5.8 0 0 1-.52 4.83 11 11 0 0 1-3.65 3.8 68 68 0 0 0-6.98 4.56 51 51 0 0 0-3.82 4.05l-2.73 3.3c-.49.58-1.61 2.1-1.9 2.45a67 67 0 0 0-5.29 8.99c-2.53 5.26-2.87 6.26-4.57 10.03 0 0-.74 2.27-1.7 2.44" transform="translate(36.131)"/><path id="Path_1440" fill="#1d1d1b" d="M22.64 47.62s-1.5-.31-1.4-1.5A9 9 0 0 1 21.8 44a84 84 0 0 1 4.5-11 71 71 0 0 1 14.8-18.97A19.5 19.5 0 0 1 50 9.12a5 5 0 0 1 2.62 0 4.3 4.3 0 0 1 3.24 2.87 6.1 6.1 0 0 1-3.01 5.75S42.3 24.98 40.48 26.5a60 60 0 0 0-6.26 5.4 100 100 0 0 0-6.7 8.3s-1.64 2.87-3.1 5.35a7 7 0 0 1-1.12 1.67 1 1 0 0 1-.66.37" transform="translate(39.776 16.742)"/></g></g></g></svg>