<svg xmlns="http://www.w3.org/2000/svg" xmlns:xlink="http://www.w3.org/1999/xlink" width="350" height="250" viewBox="0 0 350 250"><defs><radialGradient id="a" cx="0.5" cy="0.5" r="0.5" gradientUnits="objectBoundingBox"><stop offset="0" stop-color="#fff"/><stop offset="1" stop-color="#e7eff3"/></radialGradient><clipPath id="c"><rect width="350" height="250"/></clipPath></defs><g id="b" clip-path="url(#c)"><rect width="350" height="250" fill="url(#a)"/><g transform="translate(206.044 82.995)"><rect width="38.148" height="24.35" rx="3" fill="#195f8c"/><path d="M2,24.35H-2V0H2Z" transform="translate(14.204)" fill="#ffe26a"/><path d="M38.148,2H0V-2H38.148Z" transform="translate(0 12.175)" fill="#ffe26a"/></g><path d="M15.228-23.4v2.484a8.038,8.038,0,0,0-2.268-.972,10.056,10.056,0,0,0-2.736-.4A6.056,6.056,0,0,0,6.372-21.15a3.636,3.636,0,0,0-1.44,3.006,3.813,3.813,0,0,0,.378,1.728A3.829,3.829,0,0,0,6.588-15.03a13.893,13.893,0,0,0,1.566.972q.666.342,2.034.918,1.26.54,1.908.846a15.423,15.423,0,0,1,1.656.954,6.65,6.65,0,0,1,1.53,1.278,6.4,6.4,0,0,1,.936,1.62,5.591,5.591,0,0,1,.414,2.178,5.8,5.8,0,0,1-2.124,4.842A8.516,8.516,0,0,1,9.072.252,12.126,12.126,0,0,1,2.7-1.332V-3.816A9.031,9.031,0,0,0,5.49-2.448a11.472,11.472,0,0,0,3.474.54,6.3,6.3,0,0,0,3.978-1.116,3.832,3.832,0,0,0,1.422-3.2A3.33,3.33,0,0,0,13.284-8.8a11.491,11.491,0,0,0-3.132-1.89q-.288-.144-1.26-.558t-1.368-.594q-.4-.18-1.224-.612a6.724,6.724,0,0,1-1.206-.756q-.378-.324-.954-.864a3.615,3.615,0,0,1-.828-1.08,9.066,9.066,0,0,1-.468-1.278A5.548,5.548,0,0,1,2.628-18a5.7,5.7,0,0,1,2.2-4.77,8.466,8.466,0,0,1,5.364-1.71A10.586,10.586,0,0,1,15.228-23.4ZM26.352,0l-6.3-18.252h2.3l2.556,7.668,2.916,8.82q.36-1.332,2.988-8.82l2.664-7.668h2.3L29.3,0Zm25.2-10.152v-.828a5.551,5.551,0,0,0-1.386-3.96,4.867,4.867,0,0,0-3.726-1.476,5.111,5.111,0,0,0-3.852,1.62,7.4,7.4,0,0,0-1.8,4.644Zm1.116,7.02V-.9A11.135,11.135,0,0,1,47.628.18a8.936,8.936,0,0,1-6.606-2.538,9.029,9.029,0,0,1-2.538-6.678,10.058,10.058,0,0,1,2.232-6.912,7.381,7.381,0,0,1,5.8-2.52,6.818,6.818,0,0,1,5.328,2.2,8.926,8.926,0,0,1,1.98,6.192,10.362,10.362,0,0,1-.144,1.944H40.788A6.579,6.579,0,0,0,42.876-3.51a7.128,7.128,0,0,0,4.86,1.6A8.774,8.774,0,0,0,52.668-3.132Zm7.812-15.12v3.1a5.228,5.228,0,0,1,5.112-3.312q.252,0,.9.072v2.232a4.989,4.989,0,0,0-1.44-.216,3.857,3.857,0,0,0-3.258,1.926,7.4,7.4,0,0,0-1.314,4.266V0h-2.2V-18.252ZM69.732,0V-18.252h2.2V0Zm0-23a1.465,1.465,0,0,1-.432-1.08,1.526,1.526,0,0,1,.432-1.1,1.435,1.435,0,0,1,1.08-.45,1.494,1.494,0,0,1,1.1.45,1.494,1.494,0,0,1,.45,1.1A1.435,1.435,0,0,1,71.91-23a1.526,1.526,0,0,1-1.1.432A1.465,1.465,0,0,1,69.732-23ZM84.06-2.52a5.331,5.331,0,0,0,3.744-1.6A6.472,6.472,0,0,0,89.5-9.036q0-3.78-1.62-5.6a4.8,4.8,0,0,0-3.636-1.818,4.73,4.73,0,0,0-4.032,2.016,8.619,8.619,0,0,0-1.476,5.22A6.889,6.889,0,0,0,80.388-4.23,5.022,5.022,0,0,0,84.06-2.52ZM89.5-18.252h2.2V-1.4q0,4.14-2.232,6.21a8.135,8.135,0,0,1-5.76,2.07,12.335,12.335,0,0,1-5.328-1.044V3.672A11.365,11.365,0,0,0,83.52,4.788a6.174,6.174,0,0,0,4.356-1.494A6.107,6.107,0,0,0,89.5-1.4V-3.78A5.9,5.9,0,0,1,84.024-.432a7.132,7.132,0,0,1-5.382-2.34,8.843,8.843,0,0,1-2.214-6.336,10.834,10.834,0,0,1,2.034-6.768,6.407,6.407,0,0,1,5.346-2.664A5.938,5.938,0,0,1,89.5-15.048Zm19.4,8.1v-.828a5.551,5.551,0,0,0-1.386-3.96,4.867,4.867,0,0,0-3.726-1.476,5.111,5.111,0,0,0-3.852,1.62,7.4,7.4,0,0,0-1.8,4.644Zm1.116,7.02V-.9a11.135,11.135,0,0,1-5.04,1.08A8.936,8.936,0,0,1,98.37-2.358a9.029,9.029,0,0,1-2.538-6.678,10.058,10.058,0,0,1,2.232-6.912,7.381,7.381,0,0,1,5.8-2.52,6.818,6.818,0,0,1,5.328,2.2,8.926,8.926,0,0,1,1.98,6.192,10.362,10.362,0,0,1-.144,1.944H98.136a6.579,6.579,0,0,0,2.088,4.626,7.128,7.128,0,0,0,4.86,1.6A8.774,8.774,0,0,0,110.016-3.132ZM125.172-17.6v2.2a9.177,9.177,0,0,0-4.572-.972,3.884,3.884,0,0,0-2.5.738,2.354,2.354,0,0,0-.918,1.926,2.784,2.784,0,0,0,.27,1.26,2.684,2.684,0,0,0,.936.99,8.429,8.429,0,0,0,1.134.666q.468.216,1.512.648a13.159,13.159,0,0,1,3.87,2.214,4.15,4.15,0,0,1,1.35,3.258A4.429,4.429,0,0,1,124.686-1.1a6.489,6.489,0,0,1-4.3,1.314,11.291,11.291,0,0,1-5.328-1.08V-3.132a10.337,10.337,0,0,0,5.184,1.368,4.418,4.418,0,0,0,2.79-.756,2.406,2.406,0,0,0,.954-1.98,2.7,2.7,0,0,0-.99-2.232,13.374,13.374,0,0,0-3.258-1.692,11.639,11.639,0,0,1-3.492-2.016,4.021,4.021,0,0,1-1.3-3.168,4.289,4.289,0,0,1,1.62-3.51,6.249,6.249,0,0,1,4.068-1.314A9.995,9.995,0,0,1,125.172-17.6ZM3.06,36V11.736H5.292V36ZM14.472,19.62V30.96q0,3.132,2.916,3.132a3.731,3.731,0,0,0,2.448-.828V35.5a4.3,4.3,0,0,1-2.412.684q-5.184,0-5.184-5.328V19.62H9.252V17.748H12.24V13.176h2.232v4.572h5.22V19.62Zm9.144,7.632v-1.98h8.1v1.98Zm15.7,4.968A4.745,4.745,0,0,0,43.2,34.2a5.477,5.477,0,0,0,4.032-1.71q1.692-1.71,1.692-5.706a10.02,10.02,0,0,0-.558-3.51,5.52,5.52,0,0,0-1.44-2.268,6,6,0,0,0-1.764-1.116,4.8,4.8,0,0,0-1.746-.342,4.96,4.96,0,0,0-4.032,1.962,8.712,8.712,0,0,0-1.584,5.6A8.19,8.19,0,0,0,39.312,32.22Zm9.612-21.672h2.2V36h-2.2V33.336a6.3,6.3,0,0,1-5.652,2.952,6.8,6.8,0,0,1-5.724-2.682A10.436,10.436,0,0,1,35.5,27.072a10.585,10.585,0,0,1,2.2-6.93,6.974,6.974,0,0,1,5.652-2.682,6.355,6.355,0,0,1,5.58,3.024Zm9.864,7.2v3.1A5.228,5.228,0,0,1,63.9,17.532q.252,0,.9.072v2.232a4.989,4.989,0,0,0-1.44-.216A3.857,3.857,0,0,0,60.1,21.546a7.4,7.4,0,0,0-1.314,4.266V36h-2.2V17.748ZM68.04,36V17.748h2.2V36Zm0-23a1.465,1.465,0,0,1-.432-1.08,1.526,1.526,0,0,1,.432-1.1,1.435,1.435,0,0,1,1.08-.45,1.537,1.537,0,0,1,1.548,1.548,1.435,1.435,0,0,1-.45,1.08,1.526,1.526,0,0,1-1.1.432A1.465,1.465,0,0,1,68.04,13Zm15.912-2.412v2.16a4.412,4.412,0,0,0-1.584-.288,2.427,2.427,0,0,0-1.854.846,3.649,3.649,0,0,0-.774,2.538v1.908h4.176V19.62H79.74V36h-2.2V19.62H74.2V17.748h3.348V15.8a5.788,5.788,0,0,1,1.3-3.96,4.583,4.583,0,0,1,3.636-1.476A5.63,5.63,0,0,1,83.952,10.584Zm6.984,9.036V30.96q0,3.132,2.916,3.132a3.731,3.731,0,0,0,2.448-.828V35.5a4.3,4.3,0,0,1-2.412.684q-5.184,0-5.184-5.328V19.62H85.716V17.748H88.7V13.176h2.232v4.572h5.22V19.62Zm11.916-1.872V20.88a5.947,5.947,0,0,1,5.8-3.42,5.623,5.623,0,0,1,4.212,1.62,5.722,5.722,0,0,1,1.584,4.176V36h-2.2V23.94a4.477,4.477,0,0,0-1.08-3.24,3.778,3.778,0,0,0-2.844-1.116,5.129,5.129,0,0,0-3.852,1.71,6.451,6.451,0,0,0-1.62,4.626V36h-2.2V17.748Zm26.388-3.024a1.537,1.537,0,0,1-1.548-1.548,1.478,1.478,0,0,1,.45-1.116,1.526,1.526,0,0,1,1.1-.432,1.48,1.48,0,0,1,1.548,1.548,1.526,1.526,0,0,1-.432,1.1A1.478,1.478,0,0,1,129.24,14.724Zm-6.624,0a1.478,1.478,0,0,1-1.116-.45,1.526,1.526,0,0,1-.432-1.1,1.48,1.48,0,0,1,1.548-1.548,1.526,1.526,0,0,1,1.1.432,1.478,1.478,0,0,1,.45,1.116,1.537,1.537,0,0,1-1.548,1.548Zm7.128,12.6H126.18a6.121,6.121,0,0,0-3.816.99,3.021,3.021,0,0,0-1.26,2.466,3.214,3.214,0,0,0,.99,2.448,4.067,4.067,0,0,0,2.9.936,4.915,4.915,0,0,0,3.456-1.188,3.922,3.922,0,0,0,1.3-3.024ZM120.1,21.1V18.72a9.8,9.8,0,0,1,5.148-1.26q6.7,0,6.7,7.02V36h-2.2V33.876q-1.512,2.3-5.256,2.3a5.8,5.8,0,0,1-4.122-1.494,5.008,5.008,0,0,1-1.6-3.834,4.739,4.739,0,0,1,2.034-4.086,9.044,9.044,0,0,1,5.382-1.458h3.564V24.48a5.615,5.615,0,0,0-1.044-3.69,4.335,4.335,0,0,0-3.492-1.242A8.858,8.858,0,0,0,120.1,21.1ZM140.58,19.62V30.96q0,3.132,2.916,3.132a3.731,3.731,0,0,0,2.448-.828V35.5a4.3,4.3,0,0,1-2.412.684q-5.184,0-5.184-5.328V19.62H135.36V17.748h2.988V13.176h2.232v4.572h5.22V19.62ZM154.944,36l-6.3-18.252h2.3l2.556,7.668,2.916,8.82q.36-1.332,2.988-8.82l2.664-7.668h2.3L157.9,36Zm25.2-10.152V25.02a5.551,5.551,0,0,0-1.386-3.96,4.867,4.867,0,0,0-3.726-1.476,5.111,5.111,0,0,0-3.852,1.62,7.4,7.4,0,0,0-1.8,4.644Zm1.116,7.02V35.1a11.135,11.135,0,0,1-5.04,1.08,8.936,8.936,0,0,1-6.606-2.538,9.029,9.029,0,0,1-2.538-6.678,10.058,10.058,0,0,1,2.232-6.912,7.381,7.381,0,0,1,5.8-2.52,6.818,6.818,0,0,1,5.328,2.2,8.926,8.926,0,0,1,1.98,6.192,10.363,10.363,0,0,1-.144,1.944H169.38a6.579,6.579,0,0,0,2.088,4.626,7.128,7.128,0,0,0,4.86,1.6A8.774,8.774,0,0,0,181.26,32.868Zm7.812-15.12v3.1a5.228,5.228,0,0,1,5.112-3.312q.252,0,.9.072v2.232a4.989,4.989,0,0,0-1.44-.216,3.857,3.857,0,0,0-3.258,1.926,7.4,7.4,0,0,0-1.314,4.266V36h-2.2V17.748ZM198.18,36V10.548h2.2V36Zm5.4-9.576,7.7,9.576h-2.736l-7.632-9.576,7.416-8.676h2.7Z" transform="translate(68.044 106.672)" fill="#3c9bcd"/><circle cx="59" cy="59" r="59" transform="translate(40 207.83)" fill="#d3e3e9"/><circle cx="59" cy="59" r="59" transform="translate(-38 164.83)" fill="#d3e3e9"/><circle cx="59" cy="59" r="59" transform="matrix(0.545, -0.839, 0.839, 0.545, 259.657, 210.963)" fill="#d3e3e9"/><circle cx="59" cy="59" r="59" transform="matrix(0.545, -0.839, 0.839, 0.545, 181.112, 252.96)" fill="#d3e3e9"/></g></svg>