<svg xmlns="http://www.w3.org/2000/svg" viewBox="0 0 1320.24 352.53"><g id="Lager_2" data-name="Lager 2"><g id="Lager_1-2" data-name="Lager 1"><path d="M0,173.61c.45-2.35.94-4.68,1.36-7a52.46,52.46,0,0,1,14.81-28.46Q77.4,76.88,138.68,15.7C150.13,4.28,164.17-.85,180.26.12A52.39,52.39,0,0,1,215,15.94q23.27,23.22,46.49,46.46c.67.67,1.37,1.32,2.05,2,37.24-38,82.18-56.17,135.28-51.69,43.7,3.68,80.21,22.68,109.17,55.59,57.06,64.84,53.4,164.12-8.36,224.54-33,32.25-72.81,48-119,47.38-43.78-.55-87.84-20.27-117.33-52.77a21.66,21.66,0,0,1-1.75,2.32q-23.13,23.16-46.3,46.31a54.07,54.07,0,0,1-28.52,15.25l-6.33,1.21h-7.68c-1.39-.31-2.77-.69-4.17-.9a51.91,51.91,0,0,1-29.52-14.7Q77.4,275.4,15.84,213.76A51.83,51.83,0,0,1,1.4,185.91c-.47-2.5-.93-5-1.4-7.51ZM263.76,64.75c-59.5,63.23-57.2,162.65,0,222.65.41-.36.85-.69,1.24-1.08l8-8q31.89-31.87,63.76-63.76c12.07-12.1,17.42-26.79,15.89-43.77a52.35,52.35,0,0,0-15.75-33.07L265.48,66.39C264.92,65.83,264.34,65.3,263.76,64.75Z"/><path d="M1320.24,321.35c-4,1.19-7.85,2.69-11.88,3.53a73.77,73.77,0,0,1-36.77-1.29c-19.35-5.82-31.74-18.72-37.68-37.91a86.16,86.16,0,0,1-3.39-25.8q0-56.59,0-113.19v-3.3H1195V113.91h35.44V61.28c1.9-.58,31.42-.77,35.42-.26v52.81h52.66c.58,2,.78,24.59.29,29.5-2.86.11-5.78,0-8.69,0h-44c-.07.85-.17,1.53-.17,2.22q0,56.84,0,113.67a50.37,50.37,0,0,0,1.86,14c3.74,13,12.26,20.37,25.69,21.51a61.45,61.45,0,0,0,26.79-4.1Z"/><path d="M658.14,227H695c.46,3,.84,6,1.4,9,2.53,13.38,7.72,25.51,17,35.63a64.92,64.92,0,0,0,33.12,19.2c18,4.4,35.83,4.06,53.37-2.12,10.08-3.55,18.78-9.23,25.16-18,6.09-8.35,8.47-17.76,7.84-28-.83-13.44-7.08-23.81-17.74-31.75-7.64-5.68-16.21-9.57-25.06-12.9-11.44-4.32-23.23-7.58-35-11-13.34-3.9-26.67-7.86-39.44-13.43-9.49-4.15-18.49-9.11-26.41-15.88-12.6-10.78-19.78-24.43-21.79-40.87-1.44-11.75-.71-23.3,3.18-34.53,5.44-15.73,15.65-27.68,29.5-36.66a97.62,97.62,0,0,1,35-13.81c22.34-4.3,44.56-3.67,66.45,2.74,16.7,4.88,31.18,13.48,42.71,26.7,10.21,11.71,16.52,25.37,19.95,40.41.77,3.34,1.32,6.73,2,10.08-1.89.55-32.35.75-37.38.28-.23-1-.48-2.08-.74-3.14-5.38-22.16-18.92-36.83-40.75-43.34a86.49,86.49,0,0,0-54,1.14c-8.24,2.85-15.43,7.45-20.69,14.55-7.42,10-9.39,21.16-6.31,33.17,1.49,5.82,4.85,10.56,9.21,14.62a60.21,60.21,0,0,0,15.64,10.1c9.58,4.5,19.67,7.55,29.8,10.51,13.11,3.83,26.26,7.51,39.3,11.55a152.92,152.92,0,0,1,31.21,13.42A85.19,85.19,0,0,1,854,192.74a69.57,69.57,0,0,1,16,35.6,90.47,90.47,0,0,1-.28,31c-3.6,18.62-13.17,33.59-28,45.23-11.85,9.29-25.36,15.11-40,18.37-24.27,5.41-48.43,4.92-72.31-2.16-18.09-5.36-33.73-14.81-46.23-29.12-11.08-12.67-18-27.43-21.89-43.71A126.22,126.22,0,0,1,658.14,227Z"/><path d="M1194,323.18h-2.69c-12.64,0-25.27,0-37.91,0a4,4,0,0,1-3.58-1.78q-37.83-50.16-75.71-100.28l-2.24-2.93c-.73.62-1.35,1.12-1.93,1.66-9,8.27-18,16.57-27,24.8a5,5,0,0,0-1.82,4.12q.09,35.49,0,71V323h-35.56V29.57c1.74-.49,32.91-.57,35.54,0V200c1-.79,1.62-1.2,2.17-1.68L1090,157q23.44-20.74,46.86-41.51a6.2,6.2,0,0,1,4.51-1.67c14,.06,28,0,42,0h2.52l.14.52L1098.47,194Z"/><path d="M949.62,323.05h-35a1.34,1.34,0,0,1-.29-.21.45.45,0,0,1-.1-.21,6.28,6.28,0,0,1-.14-.94V115.23a8.16,8.16,0,0,1,.12-.9c1.8-.6,33-.69,35.45-.1Z"/><path d="M907.4,49.84c0-13.71,9.94-23.73,23.25-24A26.8,26.8,0,0,1,942.09,28c10.62,4.65,14.93,14.87,13.67,24.75C954,66.73,941.87,74.27,929,73.07c-8.75-.82-15.36-5-19.35-13A21.64,21.64,0,0,1,907.4,49.84Z"/></g></g></svg>