<svg xmlns="http://www.w3.org/2000/svg" width="1200.000000pt" height="1200.000000pt" version="1.0" viewBox="0 0 1200.000000 1200.000000"><path d="M581.8 220.5c-.2.1-3.7.5-7.8.9-4.1.3-8.6.8-10 1-1.4.3-4.1.7-6 1s-4.7.8-6.2 1.1c-1.6.3-3.8.7-5 .9-4.8.8-19.6 4.8-27.3 7.2-25.3 8.1-54.1 22.8-74.5 37.8-38 28.2-68.6 66.1-86 106.6-1.8 4.1-3.8 8.8-4.5 10.5-3 6.7-9.7 28.8-11.2 36.4-.2 1.4-.6 2.7-.8 3-.4.7-3.4 18.2-3.8 22.6-.5 4.6-1.2 5.2-7.4 5.9-7.2.8-10.6 1.3-16.3 2.6a149 149 0 0 1-6.5 1.4c-9.3 1.9-23.2 6.1-36 11.1-67.2 25.9-120.8 78.2-148.7 145-6.8 16.2-13.1 37-15.3 50.5-.3 1.9-.8 4.2-1 5s-.7 3.9-1 6.9-.8 5.7-1 6c-.6 1.1-1.8 22.1-1.8 32.1 0 9.7 1 26.7 1.9 33 3.1 21.5 7.2 38.8 12.4 53.1 1.7 4.6 3.2 8.8 3.4 9.4.1.5 1 2.7 1.9 4.9.9 2.1 1.7 4 1.7 4.3 0 1.1 11.8 23.8 16.3 31.3 37 61.6 98.1 105.8 168.2 121.5 28.6 6.4 25.2 6.3 174.5 6.1l135.5-.2 9.5-2.2c29.8-6.8 53.5-19.5 73.7-39.3 22.8-22.4 38.8-53.5 43-83.7 1-7.5 1-36.2 0-43.2-3.3-21.7-13.1-45.7-26.4-64.3-13.3-18.5-37.7-38.9-56.3-46.9-14.1-6.2-22.3-8.8-34.5-11.4-7.4-1.6-15.3-2.3-29-2.9-14.3-.6-20.1-1.7-30.5-5.7-28.5-11.2-50.1-38.3-53.7-67.8-4.1-33 9.2-63.3 36.5-82.8 8.5-6.1 25.2-12.6 35.7-13.9 12.3-1.6 26.4-.5 37 2.7 9.4 2.9 23.7 10.2 27.5 14 .3.3 3.5 3.1 7.2 6.3 9.1 7.8 14.4 10.1 23.4 10 16.9-.2 29.8-12.6 30.3-29.1.3-10.2-2.5-16.8-10.5-24.7-21.7-21.4-51.2-35.9-82.1-40.4-6.7-1-37.8-.8-41.9.2-1.2.3-3.9.8-6 1.1-10.9 1.8-33.1 9.6-40.6 14.3-2.1 1.2-4 2.3-4.3 2.3-1.3 0-14.7 9.3-20.5 14.1-17.9 14.8-29.7 30-39.5 50.4-11.1 23.3-14.6 39.9-14 66.5.4 18.5.6 20.7 4.1 33.8 10.7 41.1 38.6 75.8 76.1 94.5 12.9 6.4 27.7 11.5 38.8 13.3 2.1.3 4.7.8 5.9 1 2.3.4 12.6 1.2 25.1 1.8 35.9 1.9 65.9 24.4 77.6 58.3 1.1 3.2 2.2 7.1 2.5 8.8.3 1.6.9 4.6 1.3 6.5 1.1 5.3.5 21.6-1.2 29.6-4.5 21.2-18.1 41.2-36.3 53.3-6.9 4.6-19.4 10.5-24.4 11.5-1.4.2-5 1-8 1.7-4.3 1-33.1 1.3-130 1.3-113.3 0-138.6-.4-146-1.9-1.3-.2-4.2-.7-6.5-1.1-2.2-.3-6.7-1.2-10-2s-7.1-1.7-8.3-2c-13.6-2.9-43.5-16.6-58.9-27-33.8-22.9-57.1-51.2-74.6-90.5-5.5-12.2-11.9-36-14.2-52.9-1.3-9-1.2-37.6.1-48.5 8.5-69.2 51.4-128.6 114.8-158.9 12-5.7 30.2-11.9 42.6-14.5 14.4-3 21.2-3.9 37.9-4.6 9.3-.4 13.7-1.1 16.9-2.5 9.3-4.2 15.8-11.5 18-20.5.6-2.2 1.3-9.9 1.6-17 .3-7.2.8-14.1 1.1-15.5s.7-4.4 1-6.8 1.4-8.3 2.5-13.2c12.9-58.1 53.4-109.6 106.8-136 23.4-11.6 46.7-18.2 72.2-20.7 12.8-1.2 38-.6 47.1 1.2 2.2.5 6.8 1.3 11.3 2.1 4.3.8 21.5 5.5 26.6 7.3 39.2 13.9 74.3 40.7 98.4 75.1 7.3 10.3 18.1 29.7 21 37.5.8 2.2 2.4 6.5 3.6 9.5 4.1 10.9 7 22.4 10.5 42.5.3 1.6.7 8.4 1 15s.8 13.8 1.1 15.9c1.5 11.6 11.2 22.2 22.9 25 1.7.4 7.9 1 14 1.2 6 .2 12.3.6 14 .8 1.6.3 5.5.8 8.5 1.1s7.5 1.1 10 1.6c2.5.6 5.4 1.2 6.4 1.5 5 1 20.1 5.7 27.5 8.5 13.4 5.1 35.6 17.1 44.6 24.1.6.5 3.9 3.1 7.5 5.9 8.7 6.7 23.7 21.4 31.1 30.5 24.1 29.5 40.6 68.8 44.6 105.9 1.4 13.3.8 42.4-1.1 52-.2 1.1-.7 4-1.1 6.5s-1.3 6.6-2 9.3c-.8 2.6-1.2 4.7-1 4.7 1.1 0-9.2 27.6-13.8 37-19.7 40.5-51.4 72.7-91.2 92.7-15.6 7.8-37.3 15.4-51 17.9-12.4 2.2-21.5 3.2-36.3 3.8-13.7.7-20.7 3.6-27.1 11.3-12.6 15.2-7.3 38.6 10.7 47.4 4.3 2.1 6 2.4 18.7 2.3 12.4 0 22.9-.7 30.5-1.9 1.4-.2 4.5-.7 7-1 11.2-1.5 33.9-7.6 49-13.2 87.1-32.3 152.6-111.4 167.5-202.3 2.2-13.6 2.4-15.3 3.1-24.6 7.3-96.2-38.7-188.7-120.1-241.5-11.9-7.8-31.3-17.9-42-22-2.7-1.1-5.9-2.4-7-2.9-8.4-3.8-29.5-9.7-45-12.6-4.9-.9-9.7-1.8-10.5-1.9-.8-.2-3-.4-4.8-.4-3.7-.1-4.6-1.6-5.5-9.6-2-17.8-8.4-41.2-17.1-62.3-29.3-71.6-90.7-127.9-164.9-151.1-7.9-2.5-10.8-3.3-16.2-4.7-1.8-.4-6.4-1.4-9.2-1.9-1.6-.3-3.9-.8-5.3-1-6.4-1.3-7.8-1.5-12-2-14.6-1.8-22.2-2.2-37.2-2.2-9.2 0-16.9.1-17 .2"/></svg>