<svg xmlns="http://www.w3.org/2000/svg" xmlns:xlink="http://www.w3.org/1999/xlink" width="1920" height="701" viewBox="0 0 1920 701"><defs><linearGradient id="a" x1="3.14" y1="-1.956" x2="-0.03" y2="1.026" gradientUnits="objectBoundingBox"><stop offset="0" stop-color="#195f8c" stop-opacity="0.392"/><stop offset="1" stop-color="#195f8c" stop-opacity="0"/></linearGradient><radialGradient id="b" cx="0.5" cy="0.5" r="0.5" gradientUnits="objectBoundingBox"><stop offset="0" stop-color="#195f8c" stop-opacity="0.306"/><stop offset="1" stop-color="#195f8c" stop-opacity="0"/></radialGradient><clipPath id="d"><rect width="559.771" height="559.771" fill="#fff" style="mix-blend-mode:color-burn;isolation:isolate"/></clipPath><clipPath id="e"><rect width="512.692" height="445.296" fill="#fff"/></clipPath><clipPath id="g"><rect width="1920" height="701"/></clipPath></defs><g id="f" clip-path="url(#g)"><rect width="1920" height="701" fill="#fff"/><g transform="translate(-190 -242)"><rect width="1920" height="701" transform="translate(190 242)" fill="url(#a)"/><ellipse cx="1149" cy="924.5" rx="1149" ry="924.5" transform="translate(-1091 -332)" fill="url(#b)"/><ellipse cx="713" cy="573.5" rx="713" ry="573.5" transform="translate(1360 370)" fill="url(#b)"/></g><g transform="translate(1028.622 -357)" style="mix-blend-mode:color-burn;isolation:isolate"><path d="M506.4,119.307c-3.173-10.154-10.788-18.4-20.308-23.481L292.54,3.173C287.463.635,281.751,0,276.675,0s-10.788,0-15.865,1.269L67.253,94.557a34.1,34.1,0,0,0-19.038,23.481L.618,326.825A40.037,40.037,0,0,0,7.6,357.287L141.5,522.92a46.2,46.2,0,0,0,29.192,13.327h213.23c11.423,1.269,22.211-3.808,29.192-13.327l133.9-165.634a43.337,43.337,0,0,0,7.615-30.461L506.4,119.307Z" transform="translate(0)" fill="#898989"/><path d="M420.639,261.474h0c-.635,0-1.269,0-1.269-.635s-1.269-.635-2.538-.635a30.9,30.9,0,0,0-7.615-.635,8.049,8.049,0,0,1-3.808-.635h-.635a128.254,128.254,0,0,1-21.577-3.808,7.666,7.666,0,0,1-4.442-4.442h0l-5.077-1.269c2.538-18.4,1.269-37.442-2.538-55.846a171.921,171.921,0,0,0-22.211-52.038l3.808-3.808h0v-.635c0-1.9.635-4.442,1.9-5.712a113.653,113.653,0,0,1,17.769-12.692h0l3.808-1.9c2.538-1.269,4.442-2.538,6.981-3.808.635-.635,1.269-.635,1.9-1.269s0-.635,0-1.269h0c5.712-4.442,6.981-12.058,2.538-17.769a12.121,12.121,0,0,0-8.885-4.442A15.163,15.163,0,0,0,369.87,91.4h0l-.635.635c-.635.635-1.269,1.269-1.9,1.269a41.055,41.055,0,0,0-5.077,5.712c-.635,1.269-1.9,1.9-2.538,2.538h0a83.446,83.446,0,0,1-15.865,13.961,9.02,9.02,0,0,1-3.808,1.269,3.815,3.815,0,0,1-2.538-.635h-.635l-5.077,3.173c-5.077-5.077-10.788-10.154-15.865-15.231-23.481-18.4-52.673-29.827-82.5-33l-.635-5.077h0v.635c-1.9-1.269-2.538-3.173-3.173-5.077,0-6.981,0-13.961,1.269-21.577V39.36c0-1.269.635-2.538.635-3.808.635-2.538.635-5.077,1.269-7.615V24.129h0c.635-6.346-4.442-12.692-10.788-13.327-3.808-.635-7.615,1.269-10.788,4.442a12.529,12.529,0,0,0-3.808,8.885h0V27.3a31.853,31.853,0,0,0,1.269,7.615,8.049,8.049,0,0,1,.635,3.808v.635c1.269,6.981,1.269,13.961,1.269,21.577-.635,1.9-1.269,3.808-3.173,5.077v1.269h0l-.635,5.077c-6.981.635-13.961,1.9-21.577,3.173-29.827,6.346-57.115,22.211-78.057,44.423l-3.808-2.538H102.7c-.635,0-1.269.635-2.538.635a9.02,9.02,0,0,1-3.808-1.269,117.011,117.011,0,0,1-15.865-14.6h0c-.635-1.269-1.9-1.9-2.538-2.538-1.9-1.9-3.173-3.808-5.077-5.712-.635-.635-1.269-.635-1.9-1.269l-.635-.635h0a15.163,15.163,0,0,0-8.885-3.173c-3.808,0-6.981,1.269-8.885,4.442A13.649,13.649,0,0,0,55.1,111.071h0a.622.622,0,0,1,.635.635s1.269,1.269,1.9,1.269a69.22,69.22,0,0,0,6.981,3.808l3.808,1.9h0c6.346,3.808,12.692,7.615,17.769,12.692,1.269,1.269,2.538,3.808,1.9,5.712v-.635h0l3.808,3.808c-.635,1.269-1.269,1.9-1.9,3.173-19.673,31.1-27.923,67.9-22.211,104.076l-5.077,1.269h0a.622.622,0,0,1-.635.635c-.635,1.9-2.538,3.173-4.442,4.442a117.876,117.876,0,0,1-21.577,3.808h0a8.049,8.049,0,0,0-3.808.635c-2.538,0-5.077.635-7.615.635-.635,0-1.269.635-2.538.635-.635,0-.635,0-1.269.635h0a12.384,12.384,0,0,0-10.154,14.6h0a11.781,11.781,0,0,0,12.692,8.885,5.721,5.721,0,0,0,3.173-.635h0c.635,0,.635,0,.635-.635s1.9,0,2.538,0c2.538-.635,5.077-1.9,6.981-2.538a9.02,9.02,0,0,1,3.808-1.269h.635A113.127,113.127,0,0,1,62.083,272.9h.635a7.206,7.206,0,0,1,5.077,1.9.622.622,0,0,1,.635.635h0l5.712-.635a153.174,153.174,0,0,0,52.038,74.25c5.711,4.442,10.788,8.25,17.135,11.423l-3.173,4.442h0a.622.622,0,0,0,.635.635,7.509,7.509,0,0,1,.635,6.346,104.127,104.127,0,0,1-10.154,18.4v.635a11.141,11.141,0,0,1-2.538,3.173c-1.269,1.269-2.538,3.808-4.442,6.346-.635.635-.635,1.269-1.269,1.9a.622.622,0,0,1-.635.635h0a13.063,13.063,0,0,0,5.077,17.134,11.765,11.765,0,0,0,4.442,1.269c5.077,0,9.519-3.173,12.058-7.615h0a.622.622,0,0,1,.635-.635c0-.635.635-1.269,1.269-1.9.635-2.538,1.9-4.442,2.538-6.981l1.269-3.808h0c1.9-6.981,5.077-13.327,8.25-19.673a9.869,9.869,0,0,1,5.077-3.808c.635,0,.635,0,.635-.635h0l2.538-5.077a149.383,149.383,0,0,0,55.211,10.154,127.073,127.073,0,0,0,34.269-4.442c6.981-1.269,13.961-3.808,20.308-5.712l2.538,4.442h0c.635,0,.635,0,.635.635a9.869,9.869,0,0,1,5.077,3.808c3.173,6.346,6.346,12.692,8.25,19.673v.635l1.269,3.808a22.734,22.734,0,0,0,2.538,6.981c.635.635.635,1.269,1.269,1.9a.622.622,0,0,0,.635.635h0c2.538,4.442,6.981,7.615,12.058,7.615,1.9,0,3.173-.635,5.077-1.269A10.619,10.619,0,0,0,321,413.146a16.325,16.325,0,0,0-.635-9.519h0a.622.622,0,0,0-.635-.635c0-.635-.635-1.269-1.269-1.9a22.792,22.792,0,0,0-4.442-6.346,11.142,11.142,0,0,0-2.538-3.173V390.3a74.977,74.977,0,0,1-10.154-18.4,7.509,7.509,0,0,1,.635-6.346.622.622,0,0,1,.635-.635h0l-1.9-5.077c32.365-19.673,57.115-50.134,68.538-86.307l5.077.635h0a.622.622,0,0,0,.635-.635,7.206,7.206,0,0,1,5.077-1.9h.635a106.689,106.689,0,0,1,20.308,5.712h.635a9.021,9.021,0,0,0,3.808,1.269c2.538,1.269,4.442,2.538,6.981,3.173.635,0,1.269.635,2.538.635.635,0,.635,0,1.269.635h0a5.721,5.721,0,0,0,3.173.635,13.8,13.8,0,0,0,12.692-8.885,14.962,14.962,0,0,0-11.423-13.327ZM237.236,241.8l-17.135,8.25-17.135-8.25-4.442-18.4,12.058-15.231h19.038L241.678,223.4Zm103.442-41.25a121.5,121.5,0,0,1,2.538,39.981L282.928,223.4h0c-5.711-1.269-8.885-6.981-7.615-12.692a10.228,10.228,0,0,1,2.538-4.442l47.6-43.154a129.108,129.108,0,0,1,15.231,37.442Zm-34.269-60.923L254.37,176.436c-4.442,2.538-10.788,1.9-13.961-2.538a5.761,5.761,0,0,1-1.9-4.442l-3.808-64.1a119.429,119.429,0,0,1,71.711,34.269h0ZM191.544,107.263l12.692-2.538-3.173,63.461h0c0,5.712-5.077,10.154-10.788,10.154-1.9,0-3.173-.635-5.077-1.269l-52.673-37.442a126.021,126.021,0,0,1,59.019-32.365Zm-77.423,55.846,46.961,41.884h0a10.2,10.2,0,0,1,1.269,14.6c-1.269,1.9-2.538,2.538-5.077,3.173L95.717,240.532a133.586,133.586,0,0,1,18.4-77.423ZM103.333,270.359l62.827-10.788c5.077,0,10.154,3.173,10.788,8.25a7.509,7.509,0,0,1-.635,6.346h0L152.2,332.551a124.84,124.84,0,0,1-48.865-62.192ZM247.39,349.051a128.417,128.417,0,0,1-27.288,3.173c-13.327,0-27.288-2.538-39.981-6.346l31.1-56.48a9.843,9.843,0,0,1,12.692-2.538,31.783,31.783,0,0,1,5.077,4.442h0l30.461,55.211A103.1,103.1,0,0,0,247.39,349.051Zm77.423-55.211a121.177,121.177,0,0,1-38.077,38.077l-24.75-59.654A10.319,10.319,0,0,1,267.7,260.2a18.531,18.531,0,0,1,5.712-1.269l63.461,10.788C333.7,278.609,329.889,286.859,324.812,293.839Z" transform="translate(55.939 57.101)" fill="#fff"/></g><g transform="matrix(0.899, -0.438, 0.438, 0.899, 1188.021, 251.571)" style="mix-blend-mode:color-burn;isolation:isolate"><path d="M829.237,195.365c-5.2-16.627-17.666-30.136-33.254-38.45L479.034,5.2C470.721,1.039,461.368,0,453.055,0s-17.666,0-25.979,2.078L110.126,154.837a55.838,55.838,0,0,0-31.175,38.45L1.013,535.176a65.56,65.56,0,0,0,11.431,49.88L231.71,856.282c12.47,12.47,30.136,20.784,47.8,21.823H628.676c18.705,2.078,36.371-6.235,47.8-21.823L895.744,585.057a70.964,70.964,0,0,0,12.47-49.88L829.237,195.365Z" transform="translate(0 0)" fill="#898989"/><g transform="translate(287.087 80.477) rotate(20)" clip-path="url(#d)" style="isolation:isolate"><g transform="translate(25.935 34.449)" clip-path="url(#e)"><path d="M20.045,97.691V95.92L41.3,88.649C55.654,83.709,63.67,77.836,63.67,63.108c0-12.025-9.322-20.228-24.609-20.228C20.418,42.88,8.3,53.041,6.249,66.93L2.52,93.4a55.93,55.93,0,0,0,0,6.339c0,12.491,8.11,20.135,25.821,20.135h23.77l2.237-15.754H30.112c-6.8,0-10.067-2.144-10.067-6.525m3.915-29.55c.932-6.712,5.873-9.322,13.33-9.322,4.94,0,9.322,1.864,9.322,6.059s-1.4,6.246-6.432,7.923L22.748,78.768Z" transform="translate(-1.961 297.641)" fill="#fff"/><path d="M51.873,33.46H22.6l-2.33,15.66H31.365L21.111,123.414H8.247L6.01,139.168H49.729l2.33-15.754H39.288Z" transform="translate(50.013 278.443)" fill="#fff"/><path d="M53.6,33.23H35.426l-2.8,19.762H50.807Z" transform="translate(271.536 276.529)" fill="#fff"/><path d="M71.784,36.54H42.328L40.091,52.2H51.277L44.938,97.783H32.167L29.93,113.537H73.742l2.33-15.754H63.115Z" transform="translate(249.068 304.074)" fill="#fff"/><path d="M75.746,42.88h0C58.314,42.88,44.332,50.8,44.332,66,44.332,88.37,75,85.573,75,96.946c0,6.525-6.525,7.271-12.025,7.271H39.857L37.62,119.97H61.483c20.321,0,32.346-10.254,32.346-25.355,0-22.931-30.855-20.881-30.855-30.762,0-3.356,3.542-5.407,11.279-5.407h20.6L97.092,42.88Z" transform="translate(290.876 297.641)" fill="#fff"/><path d="M58.7,42.963h0c-17.338,0-31.414,7.923-31.414,23.118,0,22.372,30.668,19.576,30.668,30.948,0,6.525-6.432,7.271-12.025,7.271H22.717L20.48,119.96H43.971c20.321,0,32.346-10.254,32.346-25.355,0-22.931-30.855-20.881-30.855-30.761,0-3.356,3.542-5.407,11.279-5.407h20.6L79.579,42.87Z" transform="translate(148.242 297.558)" fill="#fff"/><path d="M89.126,42.88h0C71.787,42.88,57.712,50.8,57.712,66c0,22.372,30.668,19.576,30.668,30.948,0,6.525-6.432,7.271-12.025,7.271H53.144L51,119.877H74.957c20.321,0,32.346-10.254,32.346-25.355,0-22.931-30.762-20.881-30.762-30.761,0-3.356,3.542-5.407,11.186-5.407h20.6l2.33-15.474Z" transform="translate(402.22 297.641)" fill="#fff"/><path d="M94.055,36.54,70.844,85.2l-9.6-48.659H42.04l16.313,72.523-16.126,32.16H60.5L113.351,36.54Z" transform="translate(349.843 304.074)" fill="#fff"/><path d="M62.827,42.891,61.242,48.95a21.16,21.16,0,0,0-15.567-6.059A27.965,27.965,0,0,0,17.71,67.873L13.888,95a32.532,32.532,0,0,0,0,4.1A20.042,20.042,0,0,0,35.7,119.888a24.889,24.889,0,0,0,17.152-6.246v6.246H69.165l11-77ZM57.234,69.738,53.6,95.559a12.025,12.025,0,0,1-12.677,8.669c-5.686,0-9.322-2.8-9.322-7.551a37.287,37.287,0,0,1,.653-6.152l3.542-23.3a11.372,11.372,0,0,1,12.4-8.762c5.593,0,9.322,2.983,9.322,7.551a27.13,27.13,0,0,1,0,3.729" transform="translate(92.845 297.629)" fill="#fff"/><path d="M53.634,115.241a37.934,37.934,0,0,1,.466-4.568l5.22-37.287H73.768l2.237-15.567H61.557l2.33-16.779H45.8L43.566,57.819H29.49L27.16,73.386H41.236l-5.407,38.685c0,2.33-.653,4.94-.653,6.432,0,11.093,6.525,16.406,22.186,16.406h12.4l2.517-15.381H62.955c-7.271,0-9.322-1.212-9.322-4.195" transform="translate(203.831 282.329)" fill="#fff"/><path d="M16.64,156.366c4.474-29.829,25.355-134.605,97.5-134.605A77.371,77.371,0,0,1,127.1,22.786c22.838,4.941,37.287,20.787,36.634,40.456-.839,31.6-40.083,74.573-147.1,93.217" transform="translate(116.287 121.886)" fill="#fff"/><path d="M107.8,184.176c36.448-21.347,51.642-47.168,52.295-69.726.652-25.635-17.432-46.142-46.142-52.388h0A93.221,93.221,0,0,0,98.946,60.85c-38.5,0-63.853,24.516-80.446,53.972C39.381,64.392,75.362,15.64,135.021,15.64a127.329,127.329,0,0,1,19.389,1.585c34.3,7.457,55.93,31.507,55.184,61.337-.932,33.092-29.829,74.573-102.538,105.615" transform="translate(131.765 70.958)" fill="#fff"/><path d="M313.106,99.194c-1.4,49.685-45.769,111.86-157.257,157.63a250.407,250.407,0,0,0,21.533-13.7c35.609-25.541,55.93-56.4,56.489-86.971.932-35.8-24.423-64.506-64.692-73.175h0a139.824,139.824,0,0,0-22.092-1.864c-55.93,0-100.954,38.405-130.037,110.835,3.729-11.652,7.923-23.677,12.771-35.609C70.184,56.78,128.444,6.35,203.483,6.35a184.757,184.757,0,0,1,27.965,2.237c50.617,11,82.59,46.608,81.378,90.607" transform="translate(119.699 -6.35)" fill="#fff"/></g></g></g><g transform="translate(928 470.492)" style="mix-blend-mode:color-burn;isolation:isolate"><path d="M412.482,97.179c-2.585-8.271-8.787-14.99-16.541-19.126L238.283,2.585A28.919,28.919,0,0,0,225.36,0c-4.135,0-8.788,0-12.923,1.034L54.779,77.02A27.775,27.775,0,0,0,39.272,96.146L.5,266.21A32.611,32.611,0,0,0,6.19,291.021L115.258,425.935a37.634,37.634,0,0,0,23.778,10.855H312.718c9.3,1.034,18.092-3.1,23.778-10.855L445.565,291.021a35.3,35.3,0,0,0,6.2-24.812L412.482,97.179Z" transform="translate(0 0)" fill="#898989"/><path d="M344.564,214.96h0c-.517,0-1.034,0-1.034-.517s-1.034-.517-2.068-.517a25.168,25.168,0,0,0-6.2-.517,6.556,6.556,0,0,1-3.1-.517h-.517a104.467,104.467,0,0,1-17.575-3.1,6.244,6.244,0,0,1-3.618-3.618h0l-4.135-1.034c2.068-14.99,1.034-30.5-2.068-45.488a140.035,140.035,0,0,0-18.092-42.387l3.1-3.1h0v-.517a7.216,7.216,0,0,1,1.551-4.652,92.573,92.573,0,0,1,14.474-10.338h0l3.1-1.551c2.068-1.034,3.618-2.068,5.686-3.1.517-.517,1.034-.517,1.551-1.034s0-.517,0-1.034h0c4.652-3.618,5.686-9.821,2.068-14.474a9.873,9.873,0,0,0-7.237-3.618,12.351,12.351,0,0,0-7.237,2.585h0l-.517.517c-.517.517-1.034,1.034-1.551,1.034a33.44,33.44,0,0,0-4.135,4.652c-.517,1.034-1.551,1.551-2.068,2.068h0A67.969,67.969,0,0,1,282.018,96.07a7.347,7.347,0,0,1-3.1,1.034,3.108,3.108,0,0,1-2.068-.517h-.517L272.2,99.172c-4.135-4.135-8.788-8.271-12.923-12.406a132.45,132.45,0,0,0-67.2-26.879l-.517-4.135h0v.517c-1.551-1.034-2.068-2.585-2.585-4.135a103.268,103.268,0,0,1,1.034-17.575v-.517c0-1.034.517-2.068.517-3.1.517-2.068.517-4.135,1.034-6.2v-3.1h0a10.228,10.228,0,0,0-8.788-10.855c-3.1-.517-6.2,1.034-8.787,3.618a10.206,10.206,0,0,0-3.1,7.237h0V24.22a25.944,25.944,0,0,0,1.034,6.2,6.556,6.556,0,0,1,.517,3.1v.517c1.034,5.686,1.034,11.372,1.034,17.575-.517,1.551-1.034,3.1-2.585,4.135v1.034h0l-.517,4.135c-5.686.517-11.372,1.551-17.575,2.585A123.223,123.223,0,0,0,89.21,99.689l-3.1-2.068h-.517c-.517,0-1.034.517-2.068.517a7.347,7.347,0,0,1-3.1-1.034A95.309,95.309,0,0,1,67.5,85.215h0c-.517-1.034-1.551-1.551-2.068-2.068-1.551-1.551-2.585-3.1-4.135-4.652-.517-.517-1.034-.517-1.551-1.034l-.517-.517h0a12.351,12.351,0,0,0-7.237-2.585c-3.1,0-5.686,1.034-7.237,3.618a11.118,11.118,0,0,0,2.068,14.474h0a.506.506,0,0,1,.517.517S48.374,94,48.891,94a56.382,56.382,0,0,0,5.686,3.1l3.1,1.551h0c5.169,3.1,10.338,6.2,14.474,10.338,1.034,1.034,2.068,3.1,1.551,4.652v-.517h0l3.1,3.1c-.517,1.034-1.034,1.551-1.551,2.585-16.024,25.329-22.744,55.31-18.092,84.774l-4.135,1.034h0a.506.506,0,0,1-.517.517c-.517,1.551-2.068,2.585-3.618,3.618a96.014,96.014,0,0,1-17.575,3.1h0a6.556,6.556,0,0,0-3.1.517c-2.068,0-4.135.517-6.2.517-.517,0-1.034.517-2.068.517-.517,0-.517,0-1.034.517h0a10.087,10.087,0,0,0-8.271,11.889h0a9.6,9.6,0,0,0,10.338,7.237,4.66,4.66,0,0,0,2.585-.517h0c.517,0,.517,0,.517-.517s1.551,0,2.068,0c2.068-.517,4.135-1.551,5.686-2.068a7.347,7.347,0,0,1,3.1-1.034h.517a92.147,92.147,0,0,1,17.058-4.652h.517a5.87,5.87,0,0,1,4.135,1.551.506.506,0,0,1,.517.517h0l4.652-.517a124.765,124.765,0,0,0,42.387,60.479,81.982,81.982,0,0,0,13.957,9.3l-2.585,3.618h0a.506.506,0,0,0,.517.517,6.117,6.117,0,0,1,.517,5.169,84.816,84.816,0,0,1-8.271,14.99v.517a9.074,9.074,0,0,1-2.068,2.585c-1.034,1.034-2.068,3.1-3.618,5.169-.517.517-.517,1.034-1.034,1.551a.506.506,0,0,1-.517.517h0a10.641,10.641,0,0,0,4.135,13.957,9.583,9.583,0,0,0,3.618,1.034,11.583,11.583,0,0,0,9.821-6.2h0a.506.506,0,0,1,.517-.517c0-.517.517-1.034,1.034-1.551.517-2.068,1.551-3.618,2.068-5.686l1.034-3.1h0c1.551-5.686,4.135-10.855,6.72-16.024a8.038,8.038,0,0,1,4.135-3.1c.517,0,.517,0,.517-.517h0l2.068-4.135a121.677,121.677,0,0,0,44.971,8.271,103.5,103.5,0,0,0,27.913-3.618c5.686-1.034,11.372-3.1,16.541-4.652L228.776,308h0c.517,0,.517,0,.517.517a8.039,8.039,0,0,1,4.135,3.1c2.585,5.169,5.169,10.338,6.72,16.024v.517l1.034,3.1a18.517,18.517,0,0,0,2.068,5.686c.517.517.517,1.034,1.034,1.551a.506.506,0,0,0,.517.517h0a11.583,11.583,0,0,0,9.821,6.2,12.166,12.166,0,0,0,4.135-1.034,8.65,8.65,0,0,0,4.652-5.686,13.3,13.3,0,0,0-.517-7.754h0a.506.506,0,0,0-.517-.517c0-.517-.517-1.034-1.034-1.551a18.564,18.564,0,0,0-3.618-5.169,9.075,9.075,0,0,0-2.068-2.585v-1.034a61.071,61.071,0,0,1-8.271-14.99,6.116,6.116,0,0,1,.517-5.169.506.506,0,0,1,.517-.517h0l-1.551-4.135c26.362-16.024,46.522-40.836,55.826-70.3l4.135.517h0a.506.506,0,0,0,.517-.517,5.87,5.87,0,0,1,4.135-1.551H312a86.9,86.9,0,0,1,16.541,4.652h.517a7.347,7.347,0,0,0,3.1,1.034,27.7,27.7,0,0,0,5.686,2.585c.517,0,1.034.517,2.068.517.517,0,.517,0,1.034.517h0a4.66,4.66,0,0,0,2.585.517,11.243,11.243,0,0,0,10.338-7.237,12.187,12.187,0,0,0-9.3-10.855ZM195.177,198.936l-13.957,6.72-13.957-6.72-3.618-14.99,9.821-12.406h15.507l9.821,12.406Zm84.257-33.6A98.96,98.96,0,0,1,281.5,197.9l-49.107-13.957h0a8.454,8.454,0,0,1-6.2-10.338,8.331,8.331,0,0,1,2.068-3.618l38.768-35.15a105.163,105.163,0,0,1,12.406,30.5ZM251.52,115.713l-42.387,29.981c-3.618,2.068-8.788,1.551-11.372-2.068a4.693,4.693,0,0,1-1.551-3.618l-3.1-52.208a97.279,97.279,0,0,1,58.411,27.913h0ZM157.959,89.35,168.3,87.283l-2.585,51.691h0c0,4.652-4.135,8.271-8.788,8.271a12.166,12.166,0,0,1-4.135-1.034l-42.9-30.5A102.648,102.648,0,0,1,157.959,89.35ZM94.9,134.839l38.251,34.116h0a8.308,8.308,0,0,1,1.034,11.889c-1.034,1.551-2.068,2.068-4.135,2.585L79.906,197.9A108.81,108.81,0,0,1,94.9,134.839ZM86.108,222.2l51.174-8.788c4.135,0,8.271,2.585,8.788,6.72a6.117,6.117,0,0,1-.517,5.169h0l-19.643,47.556a101.686,101.686,0,0,1-39.8-50.657Zm117.339,64.1a104.6,104.6,0,0,1-22.227,2.585,115.855,115.855,0,0,1-32.565-5.169L173.983,237.7a8.017,8.017,0,0,1,10.338-2.068,25.889,25.889,0,0,1,4.135,3.618h0l24.812,44.971A83.987,83.987,0,0,0,203.447,286.294Zm63.063-44.971A98.7,98.7,0,0,1,235.5,272.337l-20.16-48.59a8.4,8.4,0,0,1,4.652-9.821,15.094,15.094,0,0,1,4.652-1.034l51.691,8.788A77.617,77.617,0,0,1,266.511,241.323Z" transform="translate(43.623 44.53)" fill="#fff"/></g></g></svg>