<svg xmlns="http://www.w3.org/2000/svg" xmlns:xlink="http://www.w3.org/1999/xlink" width="506" height="484" viewBox="0 0 506 484">
  <defs>
    <filter id="Rectangle_1" x="0" y="0" width="506" height="484" filterUnits="userSpaceOnUse">
      <feOffset dy="3" input="SourceAlpha"/>
      <feGaussianBlur stdDeviation="3" result="blur"/>
      <feFlood flood-opacity="0.161"/>
      <feComposite operator="in" in2="blur"/>
      <feComposite in="SourceGraphic"/>
    </filter>
  </defs>
  <g id="Group_105" data-name="Group 105" transform="translate(-839.673 -168.768)">
    <g transform="matrix(1, 0, 0, 1, 839.67, 168.77)" filter="url(#Rectangle_1)">
      <rect id="Rectangle_1-2" data-name="Rectangle 1" width="488" height="466" rx="8" transform="translate(9 6)" fill="#fff"/>
    </g>
    <g id="Group_1" data-name="Group 1">
      <path id="Path_1" data-name="Path 1" d="M1016.673,295.768a17,17,0,0,1,17-17h116a17,17,0,0,1,0,34h-116A17,17,0,0,1,1016.673,295.768Z" fill="#fd7e0d"/>
    </g>
    <g id="Group_2" data-name="Group 2">
      <path id="Path_2" data-name="Path 2" d="M1060.894,297.75a2.923,2.923,0,0,0,2.118.9c.78,0,1.16-.37,1.16-.75,0-.5-.58-.67-1.35-.85-1.09-.25-2.488-.549-2.488-2.039,0-1.109.959-2.009,2.528-2.009a3.712,3.712,0,0,1,2.6.93l-.79,1.04a2.841,2.841,0,0,0-1.908-.73c-.64,0-.98.28-.98.679,0,.451.56.59,1.329.77,1.1.25,2.5.58,2.5,2.06,0,1.218-.869,2.138-2.668,2.138a3.846,3.846,0,0,1-2.829-1.059Z" fill="#fafefe"/>
      <path id="Path_3" data-name="Path 3" d="M1066.573,293.1h1.44v3.957a1.539,1.539,0,1,0,3.078,0V293.1h1.439v4c0,1.659-.949,2.789-2.968,2.789-2.04,0-2.989-1.139-2.989-2.778Z" fill="#fafefe"/>
      <path id="Path_4" data-name="Path 4" d="M1075.243,295.291v4.477h-1.42V293.1h1.459l3.089,4.317V293.1h1.419v6.666h-1.369Z" fill="#fafefe"/>
      <path id="Path_5" data-name="Path 5" d="M1081.083,293.1h4.718v1.219h-3.3v1.449h3.227v1.22H1082.5v1.549h3.3v1.229h-4.718Z" fill="#fafefe"/>
      <path id="Path_6" data-name="Path 6" d="M1088.492,294.351h-1.948V293.1h5.316v1.249h-1.938v5.417h-1.43Z" fill="#fafefe"/>
      <path id="Path_7" data-name="Path 7" d="M1095.333,293.1h2.628a3.339,3.339,0,1,1,0,6.666h-2.628Zm2.628,5.417a2,2,0,0,0,2.089-2.079,1.951,1.951,0,0,0-2.089-2.089h-1.209v4.168Z" fill="#fafefe"/>
      <path id="Path_8" data-name="Path 8" d="M1104.921,297.379h-1.039v2.389h-1.419V293.1h3.118a2.075,2.075,0,0,1,2.238,2.148,1.912,1.912,0,0,1-1.459,1.979l1.5,2.539h-1.629Zm.45-3.058h-1.489v1.839h1.489a.923.923,0,1,0,0-1.839Z" fill="#fafefe"/>
      <path id="Path_9" data-name="Path 9" d="M1108.843,293.1h1.419v6.666h-1.419Z" fill="#fafefe"/>
      <path id="Path_10" data-name="Path 10" d="M1110.883,293.1h1.619l1.849,5.127,1.839-5.127h1.62l-2.57,6.666h-1.778Z" fill="#fafefe"/>
      <path id="Path_11" data-name="Path 11" d="M1118.463,293.1h4.717v1.219h-3.3v1.449h3.228v1.22h-3.228v1.549h3.3v1.229h-4.717Z" fill="#fafefe"/>
    </g>
    <g id="Group_3" data-name="Group 3" opacity="0.102">
      <path id="Path_12" data-name="Path 12" d="M940.173,353.268a16,16,0,0,1,16-16h59a16,16,0,0,1,16,16h0a16,16,0,0,1-16,16h-59a16,16,0,0,1-16-16Z" fill="#fd7e0d"/>
    </g>
    <g id="Group_4" data-name="Group 4" opacity="0.502">
      <path id="Path_13" data-name="Path 13" d="M1015.173,369.768h-59a16.5,16.5,0,0,1,0-33h59a16.5,16.5,0,0,1,0,33Zm-59-32a15.5,15.5,0,0,0,0,31h59a15.5,15.5,0,0,0,0-31Z" fill="#fd7e0d"/>
    </g>
    <g id="Group_6" data-name="Group 6">
      <g id="Group_5" data-name="Group 5">
        <path id="Path_14" data-name="Path 14" d="M973.66,350.1h1.44v3.957a1.539,1.539,0,1,0,3.078,0V350.1h1.439v4c0,1.659-.949,2.789-2.969,2.789-2.039,0-2.988-1.139-2.988-2.778Z" fill="#c65e02"/>
        <path id="Path_15" data-name="Path 15" d="M982.33,352.291v4.477h-1.42V350.1h1.459l3.089,4.317V350.1h1.419v6.666h-1.369Z" fill="#c65e02"/>
        <path id="Path_16" data-name="Path 16" d="M988.17,350.1h1.42v6.666h-1.42Z" fill="#c65e02"/>
        <path id="Path_17" data-name="Path 17" d="M994.8,351.931l-1.11,1.129-.808-.85,2.1-2.108h1.24v6.666H994.8Z" fill="#c65e02"/>
      </g>
    </g>
    <g id="Group_7" data-name="Group 7" opacity="0.102">
      <path id="Path_18" data-name="Path 18" d="M1047.173,353.268a16,16,0,0,1,16-16h59a16,16,0,0,1,16,16h0a16,16,0,0,1-16,16h-59a16,16,0,0,1-16-16Z" fill="#1c739d"/>
    </g>
    <g id="Group_8" data-name="Group 8" opacity="0.502">
      <path id="Path_19" data-name="Path 19" d="M1122.173,369.768h-59a16.5,16.5,0,0,1,0-33h59a16.5,16.5,0,0,1,0,33Zm-59-32a15.5,15.5,0,0,0,0,31h59a15.5,15.5,0,0,0,0-31Z" fill="#1c739d"/>
    </g>
    <g id="Group_10" data-name="Group 10">
      <g id="Group_9" data-name="Group 9">
        <path id="Path_20" data-name="Path 20" d="M1079.957,350.1h1.439v3.957a1.54,1.54,0,1,0,3.079,0V350.1h1.439v4c0,1.659-.949,2.789-2.969,2.789-2.039,0-2.988-1.139-2.988-2.778Z" fill="#1c739d"/>
        <path id="Path_21" data-name="Path 21" d="M1088.627,352.291v4.477h-1.42V350.1h1.459l3.088,4.317V350.1h1.42v6.666h-1.369Z" fill="#1c739d"/>
        <path id="Path_22" data-name="Path 22" d="M1094.467,350.1h1.42v6.666h-1.42Z" fill="#1c739d"/>
        <path id="Path_23" data-name="Path 23" d="M1099.537,355.649c2.729-2.009,3.527-2.7,3.527-3.519,0-.579-.529-.869-1.089-.869a2.378,2.378,0,0,0-1.779.77l-.809-.94a3.392,3.392,0,0,1,2.568-1.09c1.42,0,2.549.8,2.549,2.129,0,1.14-.94,2.129-2.729,3.389h2.779v1.249h-5.017Z" fill="#1c739d"/>
      </g>
    </g>
    <g id="Group_11" data-name="Group 11" opacity="0.102">
      <path id="Path_24" data-name="Path 24" d="M1155.173,353.268a16,16,0,0,1,16-16h59a16,16,0,0,1,16,16h0a16,16,0,0,1-16,16h-59a16,16,0,0,1-16-16Z" fill="#35d140"/>
    </g>
    <g id="Group_12" data-name="Group 12" opacity="0.502">
      <path id="Path_25" data-name="Path 25" d="M1230.173,369.768h-59a16.5,16.5,0,0,1,0-33h59a16.5,16.5,0,0,1,0,33Zm-59-32a15.5,15.5,0,0,0,0,31h59a15.5,15.5,0,0,0,0-31Z" fill="#35d140"/>
    </g>
    <g id="Group_14" data-name="Group 14">
      <g id="Group_13" data-name="Group 13">
        <path id="Path_26" data-name="Path 26" d="M1188.316,350.1h1.44v3.957a1.539,1.539,0,1,0,3.078,0V350.1h1.439v4c0,1.659-.949,2.789-2.968,2.789-2.039,0-2.989-1.139-2.989-2.778Z" fill="#24a02d"/>
        <path id="Path_27" data-name="Path 27" d="M1196.986,352.291v4.477h-1.42V350.1h1.459l3.089,4.317V350.1h1.419v6.666h-1.369Z" fill="#24a02d"/>
        <path id="Path_28" data-name="Path 28" d="M1202.826,350.1h1.42v6.666h-1.42Z" fill="#24a02d"/>
        <path id="Path_29" data-name="Path 29" d="M1208.366,354.889a2.656,2.656,0,0,0,1.839.76c.81,0,1.26-.35,1.26-.859,0-.54-.41-.79-1.34-.79-.279,0-.729,0-.829.009V352.77c.12.01.579.01.829.01.74,0,1.229-.239,1.229-.739,0-.53-.54-.8-1.239-.8a2.432,2.432,0,0,0-1.7.7l-.7-.88a3.282,3.282,0,0,1,2.549-1.06c1.558,0,2.517.7,2.517,1.81a1.635,1.635,0,0,1-1.459,1.519,1.673,1.673,0,0,1,1.56,1.6c0,1.15-1.03,1.959-2.628,1.959a3.331,3.331,0,0,1-2.629-1.069Z" fill="#24a02d"/>
      </g>
    </g>
    <g id="Group_15" data-name="Group 15">
      <path id="Path_30" data-name="Path 30" d="M1096.545,328.182l-3.988,8.317-4.261-8.181Zm-3-14.937.27,16.357-2.75.045-.27-16.356Z" fill="#b3b3b3"/>
    </g>
    <g id="Group_16" data-name="Group 16">
      <path id="Path_31" data-name="Path 31" d="M981.048,328.62l4.125,8.25,4.125-8.25Zm36.3-33.727H985.173a1.375,1.375,0,0,0-1.375,1.375v33.727h2.75V296.268l-1.375,1.375h32.171Z" fill="#b3b3b3"/>
    </g>
    <g id="Group_17" data-name="Group 17">
      <path id="Path_32" data-name="Path 32" d="M1205.3,328.62l-4.125,8.25-4.125-8.25Zm-38.126-33.727h34a1.374,1.374,0,0,1,1.375,1.375v33.727h-2.75V296.268l1.375,1.375h-34Z" fill="#b3b3b3"/>
    </g>
    <g id="Group_18" data-name="Group 18">
      <path id="Path_33" data-name="Path 33" d="M989.3,386.35l-4.125,8.25-4.125-8.25Zm-2.75-17.082v18.457H983.8V369.268Z" fill="#b3b3b3"/>
    </g>
    <g id="Group_19" data-name="Group 19">
      <path id="Path_34" data-name="Path 34" d="M1096.3,386.146l-4.125,8.25-4.125-8.25Zm-2.75-16.878v18.253h-2.75V369.268Z" fill="#b3b3b3"/>
    </g>
    <g id="Group_20" data-name="Group 20">
      <path id="Path_35" data-name="Path 35" d="M1205.3,385.943l-4.125,8.25-4.125-8.25Zm-2.75-16.675v18.05h-2.75v-18.05Z" fill="#b3b3b3"/>
    </g>
    <g id="Group_21" data-name="Group 21" opacity="0.102">
      <rect id="Rectangle_2" data-name="Rectangle 2" width="91" height="142" rx="5.171" transform="translate(1047.173 395.268)" fill="#1c739d"/>
    </g>
    <g id="Group_22" data-name="Group 22" opacity="0.502">
      <path id="Path_36" data-name="Path 36" d="M1133,537.768h-80.659a5.677,5.677,0,0,1-5.671-5.67V400.438a5.677,5.677,0,0,1,5.671-5.67H1133a5.677,5.677,0,0,1,5.67,5.67V532.1A5.677,5.677,0,0,1,1133,537.768Zm-80.659-142a4.676,4.676,0,0,0-4.671,4.67V532.1a4.676,4.676,0,0,0,4.671,4.67H1133a4.675,4.675,0,0,0,4.67-4.67V400.438a4.675,4.675,0,0,0-4.67-4.67Z" fill="#1c739d"/>
    </g>
    <g id="Group_24" data-name="Group 24">
      <g id="Group_23" data-name="Group 23">
        <path id="Path_37" data-name="Path 37" d="M1064.377,417.29v4.478h-1.42V415.1h1.459l3.088,4.317V415.1h1.42v6.666h-1.369Z" fill="#3b9bcc"/>
        <path id="Path_38" data-name="Path 38" d="M1070.217,415.1h4.717v1.218h-3.3v1.45h3.227v1.219h-3.227v1.549h3.3v1.23h-4.717Z" fill="#3b9bcc"/>
        <path id="Path_39" data-name="Path 39" d="M1078.766,419.329l-1.68,2.439H1075.4l2.419-3.418-2.269-3.248h1.689l1.53,2.278,1.508-2.278h1.71l-2.269,3.238,2.419,3.428h-1.7Z" fill="#3b9bcc"/>
        <path id="Path_40" data-name="Path 40" d="M1084.246,416.351H1082.3V415.1h5.317v1.249h-1.938v5.417h-1.43Z" fill="#3b9bcc"/>
        <path id="Path_41" data-name="Path 41" d="M1088.268,418.439a3.374,3.374,0,0,1,3.5-3.448,3.078,3.078,0,0,1,2.838,1.629l-1.219.6a1.829,1.829,0,0,0-1.619-.969,2.194,2.194,0,0,0,0,4.377,1.81,1.81,0,0,0,1.619-.969l1.219.589a3.1,3.1,0,0,1-2.838,1.64A3.374,3.374,0,0,1,1088.268,418.439Z" fill="#3b9bcc"/>
        <path id="Path_42" data-name="Path 42" d="M1095.457,415.1h1.418v5.417h2.819v1.249h-4.237Z" fill="#3b9bcc"/>
        <path id="Path_43" data-name="Path 43" d="M1103.865,414.991a3.449,3.449,0,1,1-3.478,3.448A3.351,3.351,0,0,1,1103.865,414.991Zm0,1.26a2.195,2.195,0,1,0,2.029,2.188A2.015,2.015,0,0,0,1103.865,416.251Z" fill="#3b9bcc"/>
        <path id="Path_44" data-name="Path 44" d="M1108.336,415.1h1.439v3.957a1.54,1.54,0,1,0,3.079,0V415.1h1.439v4c0,1.659-.949,2.789-2.969,2.789-2.039,0-2.988-1.14-2.988-2.779Z" fill="#3b9bcc"/>
        <path id="Path_45" data-name="Path 45" d="M1115.6,415.1h2.628a3.339,3.339,0,1,1,0,6.666H1115.6Zm2.628,5.417a2,2,0,0,0,2.089-2.08,1.951,1.951,0,0,0-2.089-2.088h-1.209v4.168Z" fill="#3b9bcc"/>
      </g>
    </g>
    <g id="Group_25" data-name="Group 25" opacity="0.102">
      <rect id="Rectangle_3" data-name="Rectangle 3" width="38" height="27" rx="3.161" transform="translate(1053.173 442.268)" fill="#1c739d"/>
    </g>
    <g id="Group_26" data-name="Group 26" opacity="0.502">
      <path id="Path_46" data-name="Path 46" d="M1088.012,469.768h-31.678a3.666,3.666,0,0,1-3.661-3.662V445.429a3.665,3.665,0,0,1,3.661-3.661h31.678a3.665,3.665,0,0,1,3.661,3.661v20.677A3.666,3.666,0,0,1,1088.012,469.768Zm-31.678-27a2.663,2.663,0,0,0-2.661,2.661v20.677a2.664,2.664,0,0,0,2.661,2.662h31.678a2.665,2.665,0,0,0,2.661-2.662V445.429a2.664,2.664,0,0,0-2.661-2.661Z" fill="#1c739d"/>
    </g>
    <g id="Group_28" data-name="Group 28">
      <g id="Group_27" data-name="Group 27">
        <path id="Path_47" data-name="Path 47" d="M1066.384,456.749a2.924,2.924,0,0,0,2.118.9c.78,0,1.16-.37,1.16-.75,0-.5-.58-.669-1.349-.849-1.09-.25-2.489-.55-2.489-2.039,0-1.11.959-2.009,2.529-2.009a3.707,3.707,0,0,1,2.6.93l-.79,1.04a2.842,2.842,0,0,0-1.908-.731c-.64,0-.98.281-.98.68,0,.45.56.59,1.33.769,1.1.25,2.5.581,2.5,2.06,0,1.219-.87,2.139-2.668,2.139a3.839,3.839,0,0,1-2.829-1.06Z" fill="#3b9bcc"/>
        <path id="Path_48" data-name="Path 48" d="M1072.344,456.889a2.657,2.657,0,0,0,1.839.759c.809,0,1.258-.349,1.258-.859,0-.54-.409-.79-1.338-.79-.281,0-.73,0-.83.01V454.77c.12.009.58.009.83.009.739,0,1.229-.239,1.229-.739,0-.529-.54-.8-1.239-.8a2.429,2.429,0,0,0-1.7.7l-.7-.879a3.278,3.278,0,0,1,2.548-1.06c1.56,0,2.519.7,2.519,1.81a1.635,1.635,0,0,1-1.459,1.518,1.673,1.673,0,0,1,1.559,1.6c0,1.149-1.029,1.959-2.629,1.959a3.33,3.33,0,0,1-2.628-1.07Z" fill="#3b9bcc"/>
      </g>
    </g>
    <g id="Group_29" data-name="Group 29" opacity="0.102">
      <rect id="Rectangle_4" data-name="Rectangle 4" width="38" height="27" rx="3.161" transform="translate(1053.173 473.268)" fill="#1c739d"/>
    </g>
    <g id="Group_30" data-name="Group 30" opacity="0.502">
      <path id="Path_49" data-name="Path 49" d="M1088.012,500.768h-31.678a3.666,3.666,0,0,1-3.661-3.662V476.429a3.665,3.665,0,0,1,3.661-3.661h31.678a3.665,3.665,0,0,1,3.661,3.661v20.677A3.666,3.666,0,0,1,1088.012,500.768Zm-31.678-27a2.663,2.663,0,0,0-2.661,2.661v20.677a2.664,2.664,0,0,0,2.661,2.662h31.678a2.665,2.665,0,0,0,2.661-2.662V476.429a2.664,2.664,0,0,0-2.661-2.661Z" fill="#1c739d"/>
    </g>
    <g id="Group_32" data-name="Group 32">
      <g id="Group_31" data-name="Group 31">
        <path id="Path_50" data-name="Path 50" d="M1066.384,488.749a2.924,2.924,0,0,0,2.118.9c.78,0,1.16-.37,1.16-.75,0-.5-.58-.669-1.349-.849-1.09-.25-2.489-.55-2.489-2.039,0-1.11.959-2.009,2.529-2.009a3.707,3.707,0,0,1,2.6.93l-.79,1.04a2.842,2.842,0,0,0-1.908-.731c-.64,0-.98.281-.98.68,0,.45.56.59,1.33.769,1.1.25,2.5.581,2.5,2.06,0,1.219-.87,2.139-2.668,2.139a3.839,3.839,0,0,1-2.829-1.06Z" fill="#3b9bcc"/>
        <path id="Path_51" data-name="Path 51" d="M1072.344,488.889a2.657,2.657,0,0,0,1.839.759c.809,0,1.258-.349,1.258-.859,0-.54-.409-.79-1.338-.79-.281,0-.73,0-.83.01V486.77c.12.009.58.009.83.009.739,0,1.229-.239,1.229-.739,0-.529-.54-.8-1.239-.8a2.429,2.429,0,0,0-1.7.7l-.7-.879a3.278,3.278,0,0,1,2.548-1.06c1.56,0,2.519.7,2.519,1.81a1.635,1.635,0,0,1-1.459,1.518,1.673,1.673,0,0,1,1.559,1.6c0,1.149-1.029,1.959-2.629,1.959a3.33,3.33,0,0,1-2.628-1.07Z" fill="#3b9bcc"/>
      </g>
    </g>
    <g id="Group_33" data-name="Group 33" opacity="0.102">
      <rect id="Rectangle_5" data-name="Rectangle 5" width="38" height="28" rx="3.278" transform="translate(1053.173 504.268)" fill="#1c739d"/>
    </g>
    <g id="Group_34" data-name="Group 34" opacity="0.502">
      <path id="Path_52" data-name="Path 52" d="M1087.9,532.768h-31.444a3.783,3.783,0,0,1-3.778-3.779V507.546a3.783,3.783,0,0,1,3.778-3.778H1087.9a3.782,3.782,0,0,1,3.778,3.778v21.443A3.783,3.783,0,0,1,1087.9,532.768Zm-31.444-28a2.781,2.781,0,0,0-2.778,2.778v21.443a2.782,2.782,0,0,0,2.778,2.779H1087.9a2.782,2.782,0,0,0,2.778-2.779V507.546a2.781,2.781,0,0,0-2.778-2.778Z" fill="#1c739d"/>
    </g>
    <g id="Group_36" data-name="Group 36">
      <g id="Group_35" data-name="Group 35">
        <path id="Path_53" data-name="Path 53" d="M1066.384,519.749a2.925,2.925,0,0,0,2.118.9c.78,0,1.16-.37,1.16-.75,0-.5-.58-.669-1.349-.849-1.09-.25-2.489-.55-2.489-2.039,0-1.11.959-2.009,2.529-2.009a3.707,3.707,0,0,1,2.6.93l-.79,1.04a2.842,2.842,0,0,0-1.908-.731c-.64,0-.98.281-.98.68,0,.45.56.59,1.33.769,1.1.25,2.5.581,2.5,2.06,0,1.219-.87,2.139-2.668,2.139a3.839,3.839,0,0,1-2.829-1.06Z" fill="#3b9bcc"/>
        <path id="Path_54" data-name="Path 54" d="M1072.344,519.889a2.657,2.657,0,0,0,1.839.759c.809,0,1.258-.349,1.258-.859,0-.54-.409-.79-1.338-.79-.281,0-.73,0-.83.01V517.77c.12.009.58.009.83.009.739,0,1.229-.239,1.229-.739,0-.529-.54-.8-1.239-.8a2.429,2.429,0,0,0-1.7.7l-.7-.879a3.278,3.278,0,0,1,2.548-1.06c1.56,0,2.519.7,2.519,1.81a1.635,1.635,0,0,1-1.459,1.518,1.674,1.674,0,0,1,1.559,1.6c0,1.149-1.029,1.959-2.629,1.959a3.33,3.33,0,0,1-2.628-1.07Z" fill="#3b9bcc"/>
      </g>
    </g>
    <g id="Group_37" data-name="Group 37" opacity="0.102">
      <rect id="Rectangle_6" data-name="Rectangle 6" width="38" height="27" rx="3.161" transform="translate(1094.173 442.268)" fill="#1c739d"/>
    </g>
    <g id="Group_38" data-name="Group 38" opacity="0.502">
      <path id="Path_55" data-name="Path 55" d="M1129.012,469.768h-31.678a3.666,3.666,0,0,1-3.661-3.662V445.429a3.665,3.665,0,0,1,3.661-3.661h31.678a3.665,3.665,0,0,1,3.661,3.661v20.677A3.666,3.666,0,0,1,1129.012,469.768Zm-31.678-27a2.663,2.663,0,0,0-2.661,2.661v20.677a2.664,2.664,0,0,0,2.661,2.662h31.678a2.665,2.665,0,0,0,2.661-2.662V445.429a2.664,2.664,0,0,0-2.661-2.661Z" fill="#1c739d"/>
    </g>
    <g id="Group_40" data-name="Group 40">
      <g id="Group_39" data-name="Group 39">
        <path id="Path_56" data-name="Path 56" d="M1108.045,456.749a2.925,2.925,0,0,0,2.119.9c.779,0,1.159-.37,1.159-.75,0-.5-.58-.669-1.349-.849-1.089-.25-2.489-.55-2.489-2.039,0-1.11.96-2.009,2.529-2.009a3.705,3.705,0,0,1,2.6.93l-.789,1.04a2.846,2.846,0,0,0-1.909-.731c-.64,0-.979.281-.979.68,0,.45.559.59,1.329.769,1.1.25,2.5.581,2.5,2.06,0,1.219-.87,2.139-2.669,2.139a3.838,3.838,0,0,1-2.828-1.06Z" fill="#3b9bcc"/>
        <path id="Path_57" data-name="Path 57" d="M1114.005,456.889a2.657,2.657,0,0,0,1.839.759c.809,0,1.26-.349,1.26-.859,0-.54-.411-.79-1.339-.79-.281,0-.731,0-.83.01V454.77c.12.009.58.009.83.009.739,0,1.228-.239,1.228-.739,0-.529-.539-.8-1.239-.8a2.429,2.429,0,0,0-1.7.7l-.7-.879A3.282,3.282,0,0,1,1115.9,452c1.559,0,2.519.7,2.519,1.81a1.636,1.636,0,0,1-1.459,1.518,1.672,1.672,0,0,1,1.558,1.6c0,1.149-1.029,1.959-2.627,1.959a3.33,3.33,0,0,1-2.629-1.07Z" fill="#3b9bcc"/>
      </g>
    </g>
    <g id="Group_41" data-name="Group 41" opacity="0.102">
      <rect id="Rectangle_7" data-name="Rectangle 7" width="38" height="27" rx="3.161" transform="translate(1094.173 473.268)" fill="#1c739d"/>
    </g>
    <g id="Group_42" data-name="Group 42" opacity="0.502">
      <path id="Path_58" data-name="Path 58" d="M1129.012,500.768h-31.678a3.666,3.666,0,0,1-3.661-3.662V476.429a3.665,3.665,0,0,1,3.661-3.661h31.678a3.665,3.665,0,0,1,3.661,3.661v20.677A3.666,3.666,0,0,1,1129.012,500.768Zm-31.678-27a2.663,2.663,0,0,0-2.661,2.661v20.677a2.664,2.664,0,0,0,2.661,2.662h31.678a2.665,2.665,0,0,0,2.661-2.662V476.429a2.664,2.664,0,0,0-2.661-2.661Z" fill="#1c739d"/>
    </g>
    <g id="Group_44" data-name="Group 44">
      <g id="Group_43" data-name="Group 43">
        <path id="Path_59" data-name="Path 59" d="M1108.045,488.749a2.925,2.925,0,0,0,2.119.9c.779,0,1.159-.37,1.159-.75,0-.5-.58-.669-1.349-.849-1.089-.25-2.489-.55-2.489-2.039,0-1.11.96-2.009,2.529-2.009a3.705,3.705,0,0,1,2.6.93l-.789,1.04a2.846,2.846,0,0,0-1.909-.731c-.64,0-.979.281-.979.68,0,.45.559.59,1.329.769,1.1.25,2.5.581,2.5,2.06,0,1.219-.87,2.139-2.669,2.139a3.838,3.838,0,0,1-2.828-1.06Z" fill="#3b9bcc"/>
        <path id="Path_60" data-name="Path 60" d="M1114.005,488.889a2.657,2.657,0,0,0,1.839.759c.809,0,1.26-.349,1.26-.859,0-.54-.411-.79-1.339-.79-.281,0-.731,0-.83.01V486.77c.12.009.58.009.83.009.739,0,1.228-.239,1.228-.739,0-.529-.539-.8-1.239-.8a2.429,2.429,0,0,0-1.7.7l-.7-.879A3.282,3.282,0,0,1,1115.9,484c1.559,0,2.519.7,2.519,1.81a1.636,1.636,0,0,1-1.459,1.518,1.672,1.672,0,0,1,1.558,1.6c0,1.149-1.029,1.959-2.627,1.959a3.33,3.33,0,0,1-2.629-1.07Z" fill="#3b9bcc"/>
      </g>
    </g>
    <g id="Group_45" data-name="Group 45" opacity="0.102">
      <rect id="Rectangle_8" data-name="Rectangle 8" width="38" height="28" rx="3.278" transform="translate(1094.173 504.268)" fill="#1c739d"/>
    </g>
    <g id="Group_46" data-name="Group 46" opacity="0.502">
      <path id="Path_61" data-name="Path 61" d="M1128.9,532.768h-31.444a3.783,3.783,0,0,1-3.778-3.779V507.546a3.783,3.783,0,0,1,3.778-3.778H1128.9a3.782,3.782,0,0,1,3.778,3.778v21.443A3.783,3.783,0,0,1,1128.9,532.768Zm-31.444-28a2.781,2.781,0,0,0-2.778,2.778v21.443a2.782,2.782,0,0,0,2.778,2.779H1128.9a2.782,2.782,0,0,0,2.778-2.779V507.546a2.781,2.781,0,0,0-2.778-2.778Z" fill="#1c739d"/>
    </g>
    <g id="Group_48" data-name="Group 48">
      <g id="Group_47" data-name="Group 47">
        <path id="Path_62" data-name="Path 62" d="M1108.045,519.749a2.925,2.925,0,0,0,2.119.9c.779,0,1.159-.37,1.159-.75,0-.5-.58-.669-1.349-.849-1.089-.25-2.489-.55-2.489-2.039,0-1.11.96-2.009,2.529-2.009a3.705,3.705,0,0,1,2.6.93l-.789,1.04a2.846,2.846,0,0,0-1.909-.731c-.64,0-.979.281-.979.68,0,.45.559.59,1.329.769,1.1.25,2.5.581,2.5,2.06,0,1.219-.87,2.139-2.669,2.139a3.838,3.838,0,0,1-2.828-1.06Z" fill="#3b9bcc"/>
        <path id="Path_63" data-name="Path 63" d="M1114.005,519.889a2.657,2.657,0,0,0,1.839.759c.809,0,1.26-.349,1.26-.859,0-.54-.411-.79-1.339-.79-.281,0-.731,0-.83.01V517.77c.12.009.58.009.83.009.739,0,1.228-.239,1.228-.739,0-.529-.539-.8-1.239-.8a2.429,2.429,0,0,0-1.7.7l-.7-.879A3.282,3.282,0,0,1,1115.9,515c1.559,0,2.519.7,2.519,1.81a1.636,1.636,0,0,1-1.459,1.518,1.672,1.672,0,0,1,1.558,1.6c0,1.149-1.029,1.959-2.627,1.959a3.329,3.329,0,0,1-2.629-1.07Z" fill="#3b9bcc"/>
      </g>
    </g>
    <g id="Group_49" data-name="Group 49" opacity="0.102">
      <rect id="Rectangle_9" data-name="Rectangle 9" width="91" height="143" rx="5.171" transform="translate(1155.173 394.268)" fill="#35d140"/>
    </g>
    <g id="Group_50" data-name="Group 50" opacity="0.502">
      <path id="Path_64" data-name="Path 64" d="M1241,537.768h-80.659a5.677,5.677,0,0,1-5.671-5.67V399.438a5.677,5.677,0,0,1,5.671-5.67H1241a5.677,5.677,0,0,1,5.67,5.67V532.1A5.677,5.677,0,0,1,1241,537.768Zm-80.659-143a4.676,4.676,0,0,0-4.671,4.67V532.1a4.676,4.676,0,0,0,4.671,4.67H1241a4.675,4.675,0,0,0,4.67-4.67V399.438a4.675,4.675,0,0,0-4.67-4.67Z" fill="#35d140"/>
    </g>
    <g id="Group_52" data-name="Group 52">
      <g id="Group_51" data-name="Group 51">
        <path id="Path_65" data-name="Path 65" d="M1172.674,416.29v4.478h-1.419V414.1h1.459l3.088,4.317V414.1h1.42v6.666h-1.369Z" fill="#24a02d"/>
        <path id="Path_66" data-name="Path 66" d="M1178.515,414.1h4.716v1.218h-3.3v1.45h3.228v1.219h-3.228v1.549h3.3v1.23h-4.716Z" fill="#24a02d"/>
        <path id="Path_67" data-name="Path 67" d="M1187.063,418.329l-1.679,2.439h-1.689l2.418-3.418-2.268-3.248h1.689l1.529,2.278,1.509-2.278h1.709l-2.268,3.238,2.419,3.428h-1.7Z" fill="#24a02d"/>
        <path id="Path_68" data-name="Path 68" d="M1192.544,415.351h-1.949V414.1h5.317v1.249h-1.939v5.417h-1.429Z" fill="#24a02d"/>
        <path id="Path_69" data-name="Path 69" d="M1196.564,417.439a3.376,3.376,0,0,1,3.5-3.448,3.076,3.076,0,0,1,2.838,1.629l-1.219.6a1.826,1.826,0,0,0-1.619-.969,2.194,2.194,0,0,0,0,4.377,1.808,1.808,0,0,0,1.619-.969l1.219.589a3.092,3.092,0,0,1-2.838,1.64A3.376,3.376,0,0,1,1196.564,417.439Z" fill="#24a02d"/>
        <path id="Path_70" data-name="Path 70" d="M1203.754,414.1h1.419v5.417h2.819v1.249h-4.238Z" fill="#24a02d"/>
        <path id="Path_71" data-name="Path 71" d="M1212.162,413.991a3.449,3.449,0,1,1-3.477,3.448A3.349,3.349,0,0,1,1212.162,413.991Zm0,1.26a2.195,2.195,0,1,0,2.029,2.188A2.015,2.015,0,0,0,1212.162,415.251Z" fill="#24a02d"/>
        <path id="Path_72" data-name="Path 72" d="M1216.634,414.1h1.439v3.957a1.539,1.539,0,1,0,3.078,0V414.1h1.44v4c0,1.659-.949,2.789-2.969,2.789-2.039,0-2.988-1.14-2.988-2.779Z" fill="#24a02d"/>
        <path id="Path_73" data-name="Path 73" d="M1223.9,414.1h2.627a3.339,3.339,0,1,1,0,6.666H1223.9Zm2.627,5.417a2,2,0,0,0,2.089-2.08,1.95,1.95,0,0,0-2.089-2.088h-1.209v4.168Z" fill="#24a02d"/>
      </g>
    </g>
    <g id="Group_53" data-name="Group 53" opacity="0.102">
      <rect id="Rectangle_10" data-name="Rectangle 10" width="38" height="27" rx="3.161" transform="translate(1161.173 442.268)" fill="#35d140"/>
    </g>
    <g id="Group_54" data-name="Group 54" opacity="0.502">
      <path id="Path_74" data-name="Path 74" d="M1196.012,469.768h-31.678a3.666,3.666,0,0,1-3.661-3.662V445.429a3.665,3.665,0,0,1,3.661-3.661h31.678a3.665,3.665,0,0,1,3.661,3.661v20.677A3.666,3.666,0,0,1,1196.012,469.768Zm-31.678-27a2.663,2.663,0,0,0-2.661,2.661v20.677a2.664,2.664,0,0,0,2.661,2.662h31.678a2.665,2.665,0,0,0,2.661-2.662V445.429a2.664,2.664,0,0,0-2.661-2.661Z" fill="#35d140"/>
    </g>
    <g id="Group_56" data-name="Group 56">
      <g id="Group_55" data-name="Group 55">
        <path id="Path_75" data-name="Path 75" d="M1174.681,456.749a2.923,2.923,0,0,0,2.119.9c.779,0,1.159-.37,1.159-.75,0-.5-.58-.669-1.35-.849-1.088-.25-2.488-.55-2.488-2.039,0-1.11.96-2.009,2.528-2.009a3.706,3.706,0,0,1,2.6.93l-.789,1.04a2.846,2.846,0,0,0-1.909-.731c-.64,0-.98.281-.98.68,0,.45.56.59,1.329.769,1.1.25,2.5.581,2.5,2.06,0,1.219-.87,2.139-2.669,2.139a3.84,3.84,0,0,1-2.828-1.06Z" fill="#24a02d"/>
        <path id="Path_76" data-name="Path 76" d="M1180.641,456.889a2.656,2.656,0,0,0,1.838.759c.81,0,1.26-.349,1.26-.859,0-.54-.41-.79-1.339-.79-.28,0-.73,0-.83.01V454.77c.12.009.58.009.83.009.74,0,1.229-.239,1.229-.739,0-.529-.539-.8-1.239-.8a2.434,2.434,0,0,0-1.7.7l-.7-.879a3.281,3.281,0,0,1,2.549-1.06c1.559,0,2.519.7,2.519,1.81a1.636,1.636,0,0,1-1.459,1.518,1.673,1.673,0,0,1,1.558,1.6c0,1.149-1.029,1.959-2.628,1.959a3.333,3.333,0,0,1-2.629-1.07Z" fill="#24a02d"/>
      </g>
    </g>
    <g id="Group_57" data-name="Group 57" opacity="0.102">
      <rect id="Rectangle_11" data-name="Rectangle 11" width="38" height="27" rx="3.161" transform="translate(1161.173 473.268)" fill="#35d140"/>
    </g>
    <g id="Group_58" data-name="Group 58" opacity="0.502">
      <path id="Path_77" data-name="Path 77" d="M1196.012,500.768h-31.678a3.666,3.666,0,0,1-3.661-3.662V476.429a3.665,3.665,0,0,1,3.661-3.661h31.678a3.665,3.665,0,0,1,3.661,3.661v20.677A3.666,3.666,0,0,1,1196.012,500.768Zm-31.678-27a2.663,2.663,0,0,0-2.661,2.661v20.677a2.664,2.664,0,0,0,2.661,2.662h31.678a2.665,2.665,0,0,0,2.661-2.662V476.429a2.664,2.664,0,0,0-2.661-2.661Z" fill="#35d140"/>
    </g>
    <g id="Group_60" data-name="Group 60">
      <g id="Group_59" data-name="Group 59">
        <path id="Path_78" data-name="Path 78" d="M1174.681,488.749a2.923,2.923,0,0,0,2.119.9c.779,0,1.159-.37,1.159-.75,0-.5-.58-.669-1.35-.849-1.088-.25-2.488-.55-2.488-2.039,0-1.11.96-2.009,2.528-2.009a3.706,3.706,0,0,1,2.6.93l-.789,1.04a2.846,2.846,0,0,0-1.909-.731c-.64,0-.98.281-.98.68,0,.45.56.59,1.329.769,1.1.25,2.5.581,2.5,2.06,0,1.219-.87,2.139-2.669,2.139a3.84,3.84,0,0,1-2.828-1.06Z" fill="#24a02d"/>
        <path id="Path_79" data-name="Path 79" d="M1180.641,488.889a2.656,2.656,0,0,0,1.838.759c.81,0,1.26-.349,1.26-.859,0-.54-.41-.79-1.339-.79-.28,0-.73,0-.83.01V486.77c.12.009.58.009.83.009.74,0,1.229-.239,1.229-.739,0-.529-.539-.8-1.239-.8a2.434,2.434,0,0,0-1.7.7l-.7-.879a3.281,3.281,0,0,1,2.549-1.06c1.559,0,2.519.7,2.519,1.81a1.636,1.636,0,0,1-1.459,1.518,1.673,1.673,0,0,1,1.558,1.6c0,1.149-1.029,1.959-2.628,1.959a3.333,3.333,0,0,1-2.629-1.07Z" fill="#24a02d"/>
      </g>
    </g>
    <g id="Group_61" data-name="Group 61" opacity="0.102">
      <rect id="Rectangle_12" data-name="Rectangle 12" width="38" height="28" rx="3.278" transform="translate(1161.173 504.268)" fill="#35d140"/>
    </g>
    <g id="Group_62" data-name="Group 62" opacity="0.502">
      <path id="Path_80" data-name="Path 80" d="M1195.9,532.768h-31.444a3.783,3.783,0,0,1-3.778-3.779V507.546a3.783,3.783,0,0,1,3.778-3.778H1195.9a3.782,3.782,0,0,1,3.778,3.778v21.443A3.783,3.783,0,0,1,1195.9,532.768Zm-31.444-28a2.781,2.781,0,0,0-2.778,2.778v21.443a2.782,2.782,0,0,0,2.778,2.779H1195.9a2.782,2.782,0,0,0,2.778-2.779V507.546a2.781,2.781,0,0,0-2.778-2.778Z" fill="#35d140"/>
    </g>
    <g id="Group_64" data-name="Group 64">
      <g id="Group_63" data-name="Group 63">
        <path id="Path_81" data-name="Path 81" d="M1174.681,519.749a2.924,2.924,0,0,0,2.119.9c.779,0,1.159-.37,1.159-.75,0-.5-.58-.669-1.35-.849-1.088-.25-2.488-.55-2.488-2.039,0-1.11.96-2.009,2.528-2.009a3.706,3.706,0,0,1,2.6.93l-.789,1.04a2.846,2.846,0,0,0-1.909-.731c-.64,0-.98.281-.98.68,0,.45.56.59,1.329.769,1.1.25,2.5.581,2.5,2.06,0,1.219-.87,2.139-2.669,2.139a3.84,3.84,0,0,1-2.828-1.06Z" fill="#24a02d"/>
        <path id="Path_82" data-name="Path 82" d="M1180.641,519.889a2.656,2.656,0,0,0,1.838.759c.81,0,1.26-.349,1.26-.859,0-.54-.41-.79-1.339-.79-.28,0-.73,0-.83.01V517.77c.12.009.58.009.83.009.74,0,1.229-.239,1.229-.739,0-.529-.539-.8-1.239-.8a2.434,2.434,0,0,0-1.7.7l-.7-.879a3.281,3.281,0,0,1,2.549-1.06c1.559,0,2.519.7,2.519,1.81a1.636,1.636,0,0,1-1.459,1.518,1.673,1.673,0,0,1,1.558,1.6c0,1.149-1.029,1.959-2.628,1.959a3.332,3.332,0,0,1-2.629-1.07Z" fill="#24a02d"/>
      </g>
    </g>
    <g id="Group_65" data-name="Group 65" opacity="0.102">
      <rect id="Rectangle_13" data-name="Rectangle 13" width="38" height="27" rx="3.161" transform="translate(1203.173 442.268)" fill="#35d140"/>
    </g>
    <g id="Group_66" data-name="Group 66" opacity="0.502">
      <path id="Path_83" data-name="Path 83" d="M1238.012,469.768h-31.678a3.666,3.666,0,0,1-3.661-3.662V445.429a3.665,3.665,0,0,1,3.661-3.661h31.678a3.665,3.665,0,0,1,3.661,3.661v20.677A3.666,3.666,0,0,1,1238.012,469.768Zm-31.678-27a2.663,2.663,0,0,0-2.661,2.661v20.677a2.664,2.664,0,0,0,2.661,2.662h31.678a2.665,2.665,0,0,0,2.661-2.662V445.429a2.664,2.664,0,0,0-2.661-2.661Z" fill="#35d140"/>
    </g>
    <g id="Group_68" data-name="Group 68">
      <g id="Group_67" data-name="Group 67">
        <path id="Path_84" data-name="Path 84" d="M1216.343,456.749a2.925,2.925,0,0,0,2.118.9c.78,0,1.16-.37,1.16-.75,0-.5-.58-.669-1.35-.849-1.089-.25-2.488-.55-2.488-2.039,0-1.11.959-2.009,2.529-2.009a3.707,3.707,0,0,1,2.6.93l-.79,1.04a2.842,2.842,0,0,0-1.908-.731c-.64,0-.98.281-.98.68,0,.45.56.59,1.33.769,1.1.25,2.5.581,2.5,2.06,0,1.219-.87,2.139-2.668,2.139a3.839,3.839,0,0,1-2.829-1.06Z" fill="#24a02d"/>
        <path id="Path_85" data-name="Path 85" d="M1222.3,456.889a2.657,2.657,0,0,0,1.839.759c.809,0,1.258-.349,1.258-.859,0-.54-.409-.79-1.338-.79-.281,0-.73,0-.83.01V454.77c.12.009.58.009.83.009.739,0,1.229-.239,1.229-.739,0-.529-.54-.8-1.239-.8a2.429,2.429,0,0,0-1.7.7l-.7-.879A3.278,3.278,0,0,1,1224.2,452c1.56,0,2.519.7,2.519,1.81a1.635,1.635,0,0,1-1.459,1.518,1.673,1.673,0,0,1,1.559,1.6c0,1.149-1.029,1.959-2.629,1.959a3.33,3.33,0,0,1-2.628-1.07Z" fill="#24a02d"/>
      </g>
    </g>
    <g id="Group_69" data-name="Group 69" opacity="0.102">
      <rect id="Rectangle_14" data-name="Rectangle 14" width="38" height="27" rx="3.161" transform="translate(1203.173 473.268)" fill="#35d140"/>
    </g>
    <g id="Group_70" data-name="Group 70" opacity="0.502">
      <path id="Path_86" data-name="Path 86" d="M1238.012,500.768h-31.678a3.666,3.666,0,0,1-3.661-3.662V476.429a3.665,3.665,0,0,1,3.661-3.661h31.678a3.665,3.665,0,0,1,3.661,3.661v20.677A3.666,3.666,0,0,1,1238.012,500.768Zm-31.678-27a2.663,2.663,0,0,0-2.661,2.661v20.677a2.664,2.664,0,0,0,2.661,2.662h31.678a2.665,2.665,0,0,0,2.661-2.662V476.429a2.664,2.664,0,0,0-2.661-2.661Z" fill="#35d140"/>
    </g>
    <g id="Group_72" data-name="Group 72">
      <g id="Group_71" data-name="Group 71">
        <path id="Path_87" data-name="Path 87" d="M1216.343,488.749a2.925,2.925,0,0,0,2.118.9c.78,0,1.16-.37,1.16-.75,0-.5-.58-.669-1.35-.849-1.089-.25-2.488-.55-2.488-2.039,0-1.11.959-2.009,2.529-2.009a3.707,3.707,0,0,1,2.6.93l-.79,1.04a2.842,2.842,0,0,0-1.908-.731c-.64,0-.98.281-.98.68,0,.45.56.59,1.33.769,1.1.25,2.5.581,2.5,2.06,0,1.219-.87,2.139-2.668,2.139a3.839,3.839,0,0,1-2.829-1.06Z" fill="#24a02d"/>
        <path id="Path_88" data-name="Path 88" d="M1222.3,488.889a2.657,2.657,0,0,0,1.839.759c.809,0,1.258-.349,1.258-.859,0-.54-.409-.79-1.338-.79-.281,0-.73,0-.83.01V486.77c.12.009.58.009.83.009.739,0,1.229-.239,1.229-.739,0-.529-.54-.8-1.239-.8a2.429,2.429,0,0,0-1.7.7l-.7-.879A3.278,3.278,0,0,1,1224.2,484c1.56,0,2.519.7,2.519,1.81a1.635,1.635,0,0,1-1.459,1.518,1.673,1.673,0,0,1,1.559,1.6c0,1.149-1.029,1.959-2.629,1.959a3.33,3.33,0,0,1-2.628-1.07Z" fill="#24a02d"/>
      </g>
    </g>
    <g id="Group_73" data-name="Group 73" opacity="0.102">
      <rect id="Rectangle_15" data-name="Rectangle 15" width="38" height="28" rx="3.278" transform="translate(1203.173 504.268)" fill="#35d140"/>
    </g>
    <g id="Group_74" data-name="Group 74" opacity="0.502">
      <path id="Path_89" data-name="Path 89" d="M1237.9,532.768h-31.444a3.783,3.783,0,0,1-3.778-3.779V507.546a3.783,3.783,0,0,1,3.778-3.778H1237.9a3.782,3.782,0,0,1,3.778,3.778v21.443A3.783,3.783,0,0,1,1237.9,532.768Zm-31.444-28a2.781,2.781,0,0,0-2.778,2.778v21.443a2.782,2.782,0,0,0,2.778,2.779H1237.9a2.782,2.782,0,0,0,2.778-2.779V507.546a2.781,2.781,0,0,0-2.778-2.778Z" fill="#35d140"/>
    </g>
    <g id="Group_76" data-name="Group 76">
      <g id="Group_75" data-name="Group 75">
        <path id="Path_90" data-name="Path 90" d="M1216.343,519.749a2.925,2.925,0,0,0,2.118.9c.78,0,1.16-.37,1.16-.75,0-.5-.58-.669-1.35-.849-1.089-.25-2.488-.55-2.488-2.039,0-1.11.959-2.009,2.529-2.009a3.707,3.707,0,0,1,2.6.93l-.79,1.04a2.842,2.842,0,0,0-1.908-.731c-.64,0-.98.281-.98.68,0,.45.56.59,1.33.769,1.1.25,2.5.581,2.5,2.06,0,1.219-.87,2.139-2.668,2.139a3.839,3.839,0,0,1-2.829-1.06Z" fill="#24a02d"/>
        <path id="Path_91" data-name="Path 91" d="M1222.3,519.889a2.657,2.657,0,0,0,1.839.759c.809,0,1.258-.349,1.258-.859,0-.54-.409-.79-1.338-.79-.281,0-.73,0-.83.01V517.77c.12.009.58.009.83.009.739,0,1.229-.239,1.229-.739,0-.529-.54-.8-1.239-.8a2.429,2.429,0,0,0-1.7.7l-.7-.879A3.279,3.279,0,0,1,1224.2,515c1.56,0,2.519.7,2.519,1.81a1.635,1.635,0,0,1-1.459,1.518,1.674,1.674,0,0,1,1.559,1.6c0,1.149-1.029,1.959-2.629,1.959a3.33,3.33,0,0,1-2.628-1.07Z" fill="#24a02d"/>
      </g>
    </g>
    <g id="Group_77" data-name="Group 77" opacity="0.102">
      <rect id="Rectangle_16" data-name="Rectangle 16" width="91" height="142" rx="5.171" transform="translate(940.173 395.268)" fill="#fd7e0d"/>
    </g>
    <g id="Group_78" data-name="Group 78" opacity="0.502">
      <path id="Path_92" data-name="Path 92" d="M1026,537.768H945.344a5.677,5.677,0,0,1-5.671-5.67V400.438a5.677,5.677,0,0,1,5.671-5.67H1026a5.677,5.677,0,0,1,5.67,5.67V532.1A5.677,5.677,0,0,1,1026,537.768Zm-80.659-142a4.676,4.676,0,0,0-4.671,4.67V532.1a4.676,4.676,0,0,0,4.671,4.67H1026a4.675,4.675,0,0,0,4.67-4.67V400.438a4.675,4.675,0,0,0-4.67-4.67Z" fill="#fd7e0d"/>
    </g>
    <g id="Group_80" data-name="Group 80">
      <g id="Group_79" data-name="Group 79">
        <path id="Path_93" data-name="Path 93" d="M957.143,417.29v4.478h-1.42V415.1h1.459l3.089,4.317V415.1h1.418v6.666H960.32Z" fill="#c65e02"/>
        <path id="Path_94" data-name="Path 94" d="M962.982,415.1H967.7v1.218h-3.3v1.45h3.229v1.219H964.4v1.549h3.3v1.23h-4.718Z" fill="#c65e02"/>
        <path id="Path_95" data-name="Path 95" d="M971.531,419.329l-1.678,2.439h-1.689l2.418-3.418-2.269-3.248H970l1.529,2.278,1.51-2.278h1.709l-2.27,3.238,2.42,3.428h-1.7Z" fill="#c65e02"/>
        <path id="Path_96" data-name="Path 96" d="M977.012,416.351h-1.949V415.1h5.318v1.249h-1.94v5.417h-1.429Z" fill="#c65e02"/>
        <path id="Path_97" data-name="Path 97" d="M981.033,418.439a3.375,3.375,0,0,1,3.5-3.448,3.074,3.074,0,0,1,2.838,1.629l-1.219.6a1.825,1.825,0,0,0-1.619-.969,2.194,2.194,0,0,0,0,4.377,1.806,1.806,0,0,0,1.619-.969l1.219.589a3.09,3.09,0,0,1-2.838,1.64A3.375,3.375,0,0,1,981.033,418.439Z" fill="#c65e02"/>
        <path id="Path_98" data-name="Path 98" d="M988.223,415.1h1.419v5.417h2.819v1.249h-4.238Z" fill="#c65e02"/>
        <path id="Path_99" data-name="Path 99" d="M996.631,414.991a3.449,3.449,0,1,1-3.479,3.448A3.35,3.35,0,0,1,996.631,414.991Zm0,1.26a2.195,2.195,0,1,0,2.029,2.188A2.016,2.016,0,0,0,996.631,416.251Z" fill="#c65e02"/>
        <path id="Path_100" data-name="Path 100" d="M1001.1,415.1h1.438v3.957a1.54,1.54,0,1,0,3.079,0V415.1h1.439v4c0,1.659-.95,2.789-2.968,2.789-2.039,0-2.988-1.14-2.988-2.779Z" fill="#c65e02"/>
        <path id="Path_101" data-name="Path 101" d="M1008.363,415.1h2.628a3.339,3.339,0,1,1,0,6.666h-2.628Zm2.628,5.417a2,2,0,0,0,2.089-2.08,1.951,1.951,0,0,0-2.089-2.088h-1.209v4.168Z" fill="#c65e02"/>
      </g>
    </g>
    <g id="Group_81" data-name="Group 81" opacity="0.102">
      <rect id="Rectangle_17" data-name="Rectangle 17" width="39" height="27" rx="3.161" transform="translate(945.173 442.268)" fill="#fd7e0d"/>
    </g>
    <g id="Group_82" data-name="Group 82" opacity="0.502">
      <path id="Path_102" data-name="Path 102" d="M981.012,469.768H948.334a3.666,3.666,0,0,1-3.661-3.662V445.429a3.665,3.665,0,0,1,3.661-3.661h32.678a3.665,3.665,0,0,1,3.661,3.661v20.677A3.666,3.666,0,0,1,981.012,469.768Zm-32.678-27a2.663,2.663,0,0,0-2.661,2.661v20.677a2.664,2.664,0,0,0,2.661,2.662h32.678a2.665,2.665,0,0,0,2.661-2.662V445.429a2.664,2.664,0,0,0-2.661-2.661Z" fill="#fd7e0d"/>
    </g>
    <g id="Group_84" data-name="Group 84">
      <g id="Group_83" data-name="Group 83">
        <path id="Path_103" data-name="Path 103" d="M959.149,456.749a2.928,2.928,0,0,0,2.12.9c.779,0,1.159-.37,1.159-.75,0-.5-.58-.669-1.35-.849-1.089-.25-2.488-.55-2.488-2.039,0-1.11.96-2.009,2.528-2.009a3.706,3.706,0,0,1,2.6.93l-.789,1.04a2.846,2.846,0,0,0-1.909-.731c-.64,0-.98.281-.98.68,0,.45.56.59,1.329.769,1.1.25,2.5.581,2.5,2.06,0,1.219-.87,2.139-2.669,2.139a3.84,3.84,0,0,1-2.828-1.06Z" fill="#c65e02"/>
        <path id="Path_104" data-name="Path 104" d="M965.109,456.889a2.659,2.659,0,0,0,1.839.759c.81,0,1.26-.349,1.26-.859,0-.54-.41-.79-1.339-.79-.28,0-.73,0-.83.01V454.77c.12.009.58.009.83.009.739,0,1.229-.239,1.229-.739,0-.529-.539-.8-1.24-.8a2.433,2.433,0,0,0-1.7.7l-.7-.879a3.28,3.28,0,0,1,2.549-1.06c1.558,0,2.518.7,2.518,1.81a1.635,1.635,0,0,1-1.459,1.518,1.673,1.673,0,0,1,1.559,1.6c0,1.149-1.029,1.959-2.628,1.959a3.331,3.331,0,0,1-2.629-1.07Z" fill="#c65e02"/>
      </g>
    </g>
    <g id="Group_85" data-name="Group 85" opacity="0.102">
      <rect id="Rectangle_18" data-name="Rectangle 18" width="39" height="27" rx="3.161" transform="translate(945.173 473.268)" fill="#fd7e0d"/>
    </g>
    <g id="Group_86" data-name="Group 86" opacity="0.502">
      <path id="Path_105" data-name="Path 105" d="M981.012,500.768H948.334a3.666,3.666,0,0,1-3.661-3.662V476.429a3.665,3.665,0,0,1,3.661-3.661h32.678a3.665,3.665,0,0,1,3.661,3.661v20.677A3.666,3.666,0,0,1,981.012,500.768Zm-32.678-27a2.663,2.663,0,0,0-2.661,2.661v20.677a2.664,2.664,0,0,0,2.661,2.662h32.678a2.665,2.665,0,0,0,2.661-2.662V476.429a2.664,2.664,0,0,0-2.661-2.661Z" fill="#fd7e0d"/>
    </g>
    <g id="Group_88" data-name="Group 88">
      <g id="Group_87" data-name="Group 87">
        <path id="Path_106" data-name="Path 106" d="M959.149,488.749a2.928,2.928,0,0,0,2.12.9c.779,0,1.159-.37,1.159-.75,0-.5-.58-.669-1.35-.849-1.089-.25-2.488-.55-2.488-2.039,0-1.11.96-2.009,2.528-2.009a3.706,3.706,0,0,1,2.6.93l-.789,1.04a2.846,2.846,0,0,0-1.909-.731c-.64,0-.98.281-.98.68,0,.45.56.59,1.329.769,1.1.25,2.5.581,2.5,2.06,0,1.219-.87,2.139-2.669,2.139a3.84,3.84,0,0,1-2.828-1.06Z" fill="#c65e02"/>
        <path id="Path_107" data-name="Path 107" d="M965.109,488.889a2.659,2.659,0,0,0,1.839.759c.81,0,1.26-.349,1.26-.859,0-.54-.41-.79-1.339-.79-.28,0-.73,0-.83.01V486.77c.12.009.58.009.83.009.739,0,1.229-.239,1.229-.739,0-.529-.539-.8-1.24-.8a2.433,2.433,0,0,0-1.7.7l-.7-.879a3.28,3.28,0,0,1,2.549-1.06c1.558,0,2.518.7,2.518,1.81a1.635,1.635,0,0,1-1.459,1.518,1.673,1.673,0,0,1,1.559,1.6c0,1.149-1.029,1.959-2.628,1.959a3.331,3.331,0,0,1-2.629-1.07Z" fill="#c65e02"/>
      </g>
    </g>
    <g id="Group_89" data-name="Group 89" opacity="0.102">
      <rect id="Rectangle_19" data-name="Rectangle 19" width="39" height="28" rx="3.278" transform="translate(945.173 504.268)" fill="#fd7e0d"/>
    </g>
    <g id="Group_90" data-name="Group 90" opacity="0.502">
      <path id="Path_108" data-name="Path 108" d="M980.9,532.768H948.451a3.783,3.783,0,0,1-3.778-3.779V507.546a3.783,3.783,0,0,1,3.778-3.778H980.9a3.782,3.782,0,0,1,3.778,3.778v21.443A3.783,3.783,0,0,1,980.9,532.768Zm-32.444-28a2.781,2.781,0,0,0-2.778,2.778v21.443a2.782,2.782,0,0,0,2.778,2.779H980.9a2.782,2.782,0,0,0,2.778-2.779V507.546a2.781,2.781,0,0,0-2.778-2.778Z" fill="#fd7e0d"/>
    </g>
    <g id="Group_92" data-name="Group 92">
      <g id="Group_91" data-name="Group 91">
        <path id="Path_109" data-name="Path 109" d="M959.149,519.749a2.928,2.928,0,0,0,2.12.9c.779,0,1.159-.37,1.159-.75,0-.5-.58-.669-1.35-.849-1.089-.25-2.488-.55-2.488-2.039,0-1.11.96-2.009,2.528-2.009a3.706,3.706,0,0,1,2.6.93l-.789,1.04a2.846,2.846,0,0,0-1.909-.731c-.64,0-.98.281-.98.68,0,.45.56.59,1.329.769,1.1.25,2.5.581,2.5,2.06,0,1.219-.87,2.139-2.669,2.139a3.84,3.84,0,0,1-2.828-1.06Z" fill="#c65e02"/>
        <path id="Path_110" data-name="Path 110" d="M965.109,519.889a2.659,2.659,0,0,0,1.839.759c.81,0,1.26-.349,1.26-.859,0-.54-.41-.79-1.339-.79-.28,0-.73,0-.83.01V517.77c.12.009.58.009.83.009.739,0,1.229-.239,1.229-.739,0-.529-.539-.8-1.24-.8a2.433,2.433,0,0,0-1.7.7l-.7-.879a3.28,3.28,0,0,1,2.549-1.06c1.558,0,2.518.7,2.518,1.81a1.635,1.635,0,0,1-1.459,1.518,1.673,1.673,0,0,1,1.559,1.6c0,1.149-1.029,1.959-2.628,1.959a3.331,3.331,0,0,1-2.629-1.07Z" fill="#c65e02"/>
      </g>
    </g>
    <g id="Group_93" data-name="Group 93" opacity="0.102">
      <rect id="Rectangle_20" data-name="Rectangle 20" width="38" height="27" rx="3.161" transform="translate(987.173 442.268)" fill="#fd7e0d"/>
    </g>
    <g id="Group_94" data-name="Group 94" opacity="0.502">
      <path id="Path_111" data-name="Path 111" d="M1022.012,469.768H990.334a3.666,3.666,0,0,1-3.661-3.662V445.429a3.665,3.665,0,0,1,3.661-3.661h31.678a3.665,3.665,0,0,1,3.661,3.661v20.677A3.666,3.666,0,0,1,1022.012,469.768Zm-31.678-27a2.663,2.663,0,0,0-2.661,2.661v20.677a2.664,2.664,0,0,0,2.661,2.662h31.678a2.665,2.665,0,0,0,2.661-2.662V445.429a2.664,2.664,0,0,0-2.661-2.661Z" fill="#fd7e0d"/>
    </g>
    <g id="Group_96" data-name="Group 96">
      <g id="Group_95" data-name="Group 95">
        <path id="Path_112" data-name="Path 112" d="M1000.812,456.749a2.923,2.923,0,0,0,2.118.9c.78,0,1.16-.37,1.16-.75,0-.5-.58-.669-1.35-.849-1.09-.25-2.488-.55-2.488-2.039,0-1.11.959-2.009,2.528-2.009a3.708,3.708,0,0,1,2.6.93l-.79,1.04a2.842,2.842,0,0,0-1.908-.731c-.64,0-.98.281-.98.68,0,.45.56.59,1.329.769,1.1.25,2.5.581,2.5,2.06,0,1.219-.869,2.139-2.668,2.139a3.842,3.842,0,0,1-2.829-1.06Z" fill="#c65e02"/>
        <path id="Path_113" data-name="Path 113" d="M1006.771,456.889a2.659,2.659,0,0,0,1.839.759c.81,0,1.259-.349,1.259-.859,0-.54-.409-.79-1.339-.79-.28,0-.729,0-.829.01V454.77c.119.009.579.009.829.009.74,0,1.23-.239,1.23-.739,0-.529-.54-.8-1.239-.8a2.433,2.433,0,0,0-1.7.7l-.7-.879a3.278,3.278,0,0,1,2.548-1.06c1.559,0,2.518.7,2.518,1.81a1.634,1.634,0,0,1-1.459,1.518,1.674,1.674,0,0,1,1.56,1.6c0,1.149-1.029,1.959-2.629,1.959a3.332,3.332,0,0,1-2.629-1.07Z" fill="#c65e02"/>
      </g>
    </g>
    <g id="Group_97" data-name="Group 97" opacity="0.102">
      <rect id="Rectangle_21" data-name="Rectangle 21" width="38" height="27" rx="3.161" transform="translate(987.173 473.268)" fill="#fd7e0d"/>
    </g>
    <g id="Group_98" data-name="Group 98" opacity="0.502">
      <path id="Path_114" data-name="Path 114" d="M1022.012,500.768H990.334a3.666,3.666,0,0,1-3.661-3.662V476.429a3.665,3.665,0,0,1,3.661-3.661h31.678a3.665,3.665,0,0,1,3.661,3.661v20.677A3.666,3.666,0,0,1,1022.012,500.768Zm-31.678-27a2.663,2.663,0,0,0-2.661,2.661v20.677a2.664,2.664,0,0,0,2.661,2.662h31.678a2.665,2.665,0,0,0,2.661-2.662V476.429a2.664,2.664,0,0,0-2.661-2.661Z" fill="#fd7e0d"/>
    </g>
    <g id="Group_100" data-name="Group 100">
      <g id="Group_99" data-name="Group 99">
        <path id="Path_115" data-name="Path 115" d="M1000.812,488.749a2.923,2.923,0,0,0,2.118.9c.78,0,1.16-.37,1.16-.75,0-.5-.58-.669-1.35-.849-1.09-.25-2.488-.55-2.488-2.039,0-1.11.959-2.009,2.528-2.009a3.708,3.708,0,0,1,2.6.93l-.79,1.04a2.842,2.842,0,0,0-1.908-.731c-.64,0-.98.281-.98.68,0,.45.56.59,1.329.769,1.1.25,2.5.581,2.5,2.06,0,1.219-.869,2.139-2.668,2.139a3.842,3.842,0,0,1-2.829-1.06Z" fill="#c65e02"/>
        <path id="Path_116" data-name="Path 116" d="M1006.771,488.889a2.659,2.659,0,0,0,1.839.759c.81,0,1.259-.349,1.259-.859,0-.54-.409-.79-1.339-.79-.28,0-.729,0-.829.01V486.77c.119.009.579.009.829.009.74,0,1.23-.239,1.23-.739,0-.529-.54-.8-1.239-.8a2.433,2.433,0,0,0-1.7.7l-.7-.879a3.278,3.278,0,0,1,2.548-1.06c1.559,0,2.518.7,2.518,1.81a1.634,1.634,0,0,1-1.459,1.518,1.674,1.674,0,0,1,1.56,1.6c0,1.149-1.029,1.959-2.629,1.959a3.332,3.332,0,0,1-2.629-1.07Z" fill="#c65e02"/>
      </g>
    </g>
    <g id="Group_101" data-name="Group 101" opacity="0.102">
      <rect id="Rectangle_22" data-name="Rectangle 22" width="38" height="28" rx="3.278" transform="translate(987.173 504.268)" fill="#fd7e0d"/>
    </g>
    <g id="Group_102" data-name="Group 102" opacity="0.502">
      <path id="Path_117" data-name="Path 117" d="M1021.9,532.768H990.451a3.783,3.783,0,0,1-3.778-3.779V507.546a3.783,3.783,0,0,1,3.778-3.778H1021.9a3.782,3.782,0,0,1,3.778,3.778v21.443A3.783,3.783,0,0,1,1021.9,532.768Zm-31.444-28a2.781,2.781,0,0,0-2.778,2.778v21.443a2.782,2.782,0,0,0,2.778,2.779H1021.9a2.782,2.782,0,0,0,2.778-2.779V507.546a2.781,2.781,0,0,0-2.778-2.778Z" fill="#fd7e0d"/>
    </g>
    <g id="Group_104" data-name="Group 104">
      <g id="Group_103" data-name="Group 103">
        <path id="Path_118" data-name="Path 118" d="M1000.812,519.749a2.923,2.923,0,0,0,2.118.9c.78,0,1.16-.37,1.16-.75,0-.5-.58-.669-1.35-.849-1.09-.25-2.488-.55-2.488-2.039,0-1.11.959-2.009,2.528-2.009a3.708,3.708,0,0,1,2.6.93l-.79,1.04a2.842,2.842,0,0,0-1.908-.731c-.64,0-.98.281-.98.68,0,.45.56.59,1.329.769,1.1.25,2.5.581,2.5,2.06,0,1.219-.869,2.139-2.668,2.139a3.842,3.842,0,0,1-2.829-1.06Z" fill="#c65e02"/>
        <path id="Path_119" data-name="Path 119" d="M1006.771,519.889a2.659,2.659,0,0,0,1.839.759c.81,0,1.259-.349,1.259-.859,0-.54-.409-.79-1.339-.79-.28,0-.729,0-.829.01V517.77c.119.009.579.009.829.009.74,0,1.23-.239,1.23-.739,0-.529-.54-.8-1.239-.8a2.433,2.433,0,0,0-1.7.7l-.7-.879a3.278,3.278,0,0,1,2.548-1.06c1.559,0,2.518.7,2.518,1.81a1.634,1.634,0,0,1-1.459,1.518,1.674,1.674,0,0,1,1.56,1.6c0,1.149-1.029,1.959-2.629,1.959a3.332,3.332,0,0,1-2.629-1.07Z" fill="#c65e02"/>
      </g>
    </g>
  </g>
</svg>
