<svg xmlns="http://www.w3.org/2000/svg" xmlns:xlink="http://www.w3.org/1999/xlink" width="506" height="484" viewBox="0 0 506 484"><defs><filter id="Rectangle_1" width="506" height="484" x="0" y="0" filterUnits="userSpaceOnUse"><feOffset dy="3"/><feGaussianBlur result="blur" stdDeviation="3"/><feFlood flood-opacity="0.161"/><feComposite in2="blur" operator="in"/><feComposite in="SourceGraphic"/></filter></defs><g id="Group_105" transform="translate(-839.673 -168.768)"><g filter="url(#Rectangle_1)" transform="translate(839.67 168.77)"><rect id="Rectangle_1-2" width="488" height="466" fill="#fff" rx="8" transform="translate(9 6)"/></g><g id="Group_1"><path id="Path_1" fill="#fd7e0d" d="M1016.67 295.77a17 17 0 0 1 17-17h116a17 17 0 0 1 0 34h-116a17 17 0 0 1-17-17"/></g><g id="Group_2"><path id="Path_2" fill="#fafefe" d="M1060.9 297.75a3 3 0 0 0 2.11.9c.78 0 1.16-.37 1.16-.75 0-.5-.58-.67-1.35-.85-1.09-.25-2.49-.55-2.49-2.04 0-1.1.96-2 2.53-2a3.7 3.7 0 0 1 2.6.92l-.79 1.04a2.8 2.8 0 0 0-1.9-.73c-.65 0-.99.28-.99.68 0 .45.56.6 1.33.77 1.1.25 2.5.58 2.5 2.06 0 1.22-.87 2.14-2.66 2.14a4 4 0 0 1-2.83-1.06Z"/><path id="Path_3" fill="#fafefe" d="M1066.57 293.1h1.44v3.96a1.54 1.54 0 1 0 3.08 0v-3.96h1.44v4c0 1.66-.95 2.79-2.97 2.79-2.04 0-2.99-1.14-2.99-2.78Z"/><path id="Path_4" fill="#fafefe" d="M1075.24 295.3v4.47h-1.42v-6.67h1.46l3.1 4.32v-4.32h1.41v6.67h-1.37Z"/><path id="Path_5" fill="#fafefe" d="M1081.08 293.1h4.72v1.22h-3.3v1.45h3.23v1.22h-3.23v1.55h3.3v1.23h-4.72Z"/><path id="Path_6" fill="#fafefe" d="M1088.5 294.35h-1.96v-1.25h5.32v1.25h-1.94v5.42h-1.43Z"/><path id="Path_7" fill="#fafefe" d="M1095.33 293.1h2.63a3.34 3.34 0 1 1 0 6.67h-2.63Zm2.63 5.42a2 2 0 0 0 2.09-2.08 1.95 1.95 0 0 0-2.09-2.1h-1.2v4.18Z"/><path id="Path_8" fill="#fafefe" d="M1104.92 297.38h-1.04v2.39h-1.42v-6.67h3.12a2.1 2.1 0 0 1 2.24 2.15 1.9 1.9 0 0 1-1.46 1.98l1.5 2.54h-1.63Zm.45-3.06h-1.49v1.84h1.5a.92.92 0 1 0 0-1.84"/><path id="Path_9" fill="#fafefe" d="M1108.84 293.1h1.42v6.67h-1.42Z"/><path id="Path_10" fill="#fafefe" d="M1110.88 293.1h1.62l1.85 5.13 1.84-5.13h1.62l-2.57 6.67h-1.78Z"/><path id="Path_11" fill="#fafefe" d="M1118.46 293.1h4.72v1.22h-3.3v1.45h3.23v1.22h-3.23v1.55h3.3v1.23h-4.72Z"/></g><g id="Group_3" opacity="0.102"><path id="Path_12" fill="#fd7e0d" d="M940.17 353.27a16 16 0 0 1 16-16h59a16 16 0 0 1 16 16 16 16 0 0 1-16 16h-59a16 16 0 0 1-16-16"/></g><g id="Group_4" opacity="0.502"><path id="Path_13" fill="#fd7e0d" d="M1015.17 369.77h-59a16.5 16.5 0 0 1 0-33h59a16.5 16.5 0 0 1 0 33m-59-32a15.5 15.5 0 0 0 0 31h59a15.5 15.5 0 0 0 0-31Z"/></g><g id="Group_6"><g id="Group_5"><path id="Path_14" fill="#c65e02" d="M973.66 350.1h1.44v3.96a1.54 1.54 0 1 0 3.08 0v-3.96h1.44v4c0 1.66-.95 2.79-2.97 2.79-2.04 0-2.99-1.14-2.99-2.78Z"/><path id="Path_15" fill="#c65e02" d="M982.33 352.3v4.47h-1.42v-6.67h1.46l3.09 4.32v-4.32h1.42v6.67h-1.37Z"/><path id="Path_16" fill="#c65e02" d="M988.17 350.1h1.42v6.67h-1.42Z"/><path id="Path_17" fill="#c65e02" d="m994.8 351.93-1.11 1.13-.8-.85 2.1-2.1h1.23v6.66h-1.42Z"/></g></g><g id="Group_7" opacity="0.102"><path id="Path_18" fill="#1c739d" d="M1047.17 353.27a16 16 0 0 1 16-16h59a16 16 0 0 1 16 16 16 16 0 0 1-16 16h-59a16 16 0 0 1-16-16"/></g><g id="Group_8" opacity="0.502"><path id="Path_19" fill="#1c739d" d="M1122.17 369.77h-59a16.5 16.5 0 0 1 0-33h59a16.5 16.5 0 0 1 0 33m-59-32a15.5 15.5 0 0 0 0 31h59a15.5 15.5 0 0 0 0-31Z"/></g><g id="Group_10"><g id="Group_9"><path id="Path_20" fill="#1c739d" d="M1079.96 350.1h1.44v3.96a1.54 1.54 0 1 0 3.08 0v-3.96h1.43v4c0 1.66-.94 2.79-2.96 2.79-2.04 0-3-1.14-3-2.78Z"/><path id="Path_21" fill="#1c739d" d="M1088.63 352.3v4.47h-1.42v-6.67h1.46l3.08 4.32v-4.32h1.42v6.67h-1.37Z"/><path id="Path_22" fill="#1c739d" d="M1094.47 350.1h1.42v6.67h-1.42Z"/><path id="Path_23" fill="#1c739d" d="M1099.54 355.65c2.73-2.01 3.52-2.7 3.52-3.52 0-.58-.52-.87-1.08-.87a2.4 2.4 0 0 0-1.78.77l-.81-.94a3.4 3.4 0 0 1 2.57-1.09c1.42 0 2.54.8 2.54 2.13 0 1.14-.94 2.13-2.72 3.39h2.77v1.25h-5.01Z"/></g></g><g id="Group_11" opacity="0.102"><path id="Path_24" fill="#35d140" d="M1155.17 353.27a16 16 0 0 1 16-16h59a16 16 0 0 1 16 16 16 16 0 0 1-16 16h-59a16 16 0 0 1-16-16"/></g><g id="Group_12" opacity="0.502"><path id="Path_25" fill="#35d140" d="M1230.17 369.77h-59a16.5 16.5 0 0 1 0-33h59a16.5 16.5 0 0 1 0 33m-59-32a15.5 15.5 0 0 0 0 31h59a15.5 15.5 0 0 0 0-31Z"/></g><g id="Group_14"><g id="Group_13"><path id="Path_26" fill="#24a02d" d="M1188.32 350.1h1.44v3.96a1.54 1.54 0 1 0 3.07 0v-3.96h1.44v4c0 1.66-.95 2.79-2.96 2.79-2.04 0-3-1.14-3-2.78Z"/><path id="Path_27" fill="#24a02d" d="M1196.99 352.3v4.47h-1.42v-6.67h1.46l3.08 4.32v-4.32h1.42v6.67h-1.37Z"/><path id="Path_28" fill="#24a02d" d="M1202.83 350.1h1.42v6.67h-1.42Z"/><path id="Path_29" fill="#24a02d" d="M1208.37 354.89a2.7 2.7 0 0 0 1.84.76c.8 0 1.25-.35 1.25-.86 0-.54-.4-.79-1.34-.79h-.82v-1.23l.83.01c.73 0 1.22-.24 1.22-.74 0-.53-.54-.8-1.23-.8a2.4 2.4 0 0 0-1.7.7l-.7-.88a3.3 3.3 0 0 1 2.54-1.06c1.56 0 2.52.7 2.52 1.81a1.64 1.64 0 0 1-1.46 1.52 1.67 1.67 0 0 1 1.56 1.6c0 1.15-1.03 1.96-2.63 1.96a3.3 3.3 0 0 1-2.63-1.07Z"/></g></g><g id="Group_15"><path id="Path_30" fill="#b3b3b3" d="m1096.55 328.18-4 8.32-4.25-8.18Zm-3-14.93.27 16.35-2.75.05-.27-16.36Z"/></g><g id="Group_16"><path id="Path_31" fill="#b3b3b3" d="m981.05 328.62 4.12 8.25 4.13-8.25Zm36.3-33.73h-32.18a1.4 1.4 0 0 0-1.37 1.38V330h2.75v-33.73l-1.38 1.37h32.17Z"/></g><g id="Group_17"><path id="Path_32" fill="#b3b3b3" d="m1205.3 328.62-4.12 8.25-4.13-8.25Zm-38.13-33.73h34a1.37 1.37 0 0 1 1.38 1.38V330h-2.75v-33.73l1.37 1.37h-34Z"/></g><g id="Group_18"><path id="Path_33" fill="#b3b3b3" d="m989.3 386.35-4.12 8.25-4.13-8.25Zm-2.75-17.08v18.46h-2.75v-18.46Z"/></g><g id="Group_19"><path id="Path_34" fill="#b3b3b3" d="m1096.3 386.15-4.12 8.25-4.13-8.25Zm-2.75-16.88v18.25h-2.75v-18.25Z"/></g><g id="Group_20"><path id="Path_35" fill="#b3b3b3" d="m1205.3 385.94-4.12 8.25-4.13-8.25Zm-2.75-16.67v18.05h-2.75v-18.05Z"/></g><g id="Group_21" opacity="0.102"><rect id="Rectangle_2" width="91" height="142" fill="#1c739d" rx="5.171" transform="translate(1047.173 395.268)"/></g><g id="Group_22" opacity="0.502"><path id="Path_36" fill="#1c739d" d="M1133 537.77h-80.66a5.7 5.7 0 0 1-5.67-5.67V400.44a5.7 5.7 0 0 1 5.67-5.67H1133a5.7 5.7 0 0 1 5.67 5.67V532.1a5.7 5.7 0 0 1-5.67 5.67m-80.66-142a4.7 4.7 0 0 0-4.67 4.67V532.1a4.7 4.7 0 0 0 4.67 4.67H1133a4.7 4.7 0 0 0 4.67-4.67V400.44a4.7 4.7 0 0 0-4.67-4.67Z"/></g><g id="Group_24"><g id="Group_23"><path id="Path_37" fill="#3b9bcc" d="M1064.38 417.29v4.48h-1.42v-6.67h1.46l3.08 4.32v-4.32h1.42v6.67h-1.37Z"/><path id="Path_38" fill="#3b9bcc" d="M1070.22 415.1h4.71v1.22h-3.3v1.45h3.23v1.22h-3.23v1.55h3.3v1.23h-4.71Z"/><path id="Path_39" fill="#3b9bcc" d="m1078.77 419.33-1.68 2.44h-1.69l2.42-3.42-2.27-3.25h1.69l1.53 2.28 1.5-2.28h1.72l-2.27 3.24 2.42 3.43h-1.7Z"/><path id="Path_40" fill="#3b9bcc" d="M1084.25 416.35h-1.95v-1.25h5.32v1.25h-1.94v5.42h-1.43Z"/><path id="Path_41" fill="#3b9bcc" d="M1088.27 418.44a3.37 3.37 0 0 1 3.5-3.45 3.1 3.1 0 0 1 2.84 1.63l-1.22.6a1.8 1.8 0 0 0-1.62-.97 2.2 2.2 0 0 0 0 4.38 1.8 1.8 0 0 0 1.62-.97l1.22.59a3.1 3.1 0 0 1-2.84 1.64 3.37 3.37 0 0 1-3.5-3.45"/><path id="Path_42" fill="#3b9bcc" d="M1095.46 415.1h1.42v5.42h2.81v1.25h-4.23Z"/><path id="Path_43" fill="#3b9bcc" d="M1103.87 415a3.45 3.45 0 1 1-3.48 3.44 3.35 3.35 0 0 1 3.47-3.45m0 1.25a2.2 2.2 0 1 0 2.02 2.19 2 2 0 0 0-2.03-2.19"/><path id="Path_44" fill="#3b9bcc" d="M1108.34 415.1h1.44v3.96a1.54 1.54 0 1 0 3.07 0v-3.96h1.44v4c0 1.66-.95 2.79-2.97 2.79s-2.98-1.14-2.98-2.78Z"/><path id="Path_45" fill="#3b9bcc" d="M1115.6 415.1h2.63a3.34 3.34 0 1 1 0 6.67h-2.63Zm2.63 5.42a2 2 0 0 0 2.09-2.08 1.95 1.95 0 0 0-2.1-2.1h-1.2v4.18Z"/></g></g><g id="Group_25" opacity="0.102"><rect id="Rectangle_3" width="38" height="27" fill="#1c739d" rx="3.161" transform="translate(1053.173 442.268)"/></g><g id="Group_26" opacity="0.502"><path id="Path_46" fill="#1c739d" d="M1088.01 469.77h-31.68a3.67 3.67 0 0 1-3.66-3.66v-20.68a3.67 3.67 0 0 1 3.66-3.66h31.68a3.67 3.67 0 0 1 3.66 3.66v20.68a3.67 3.67 0 0 1-3.66 3.66m-31.68-27a2.66 2.66 0 0 0-2.66 2.66v20.68a2.66 2.66 0 0 0 2.66 2.66h31.68a2.67 2.67 0 0 0 2.66-2.66v-20.68a2.66 2.66 0 0 0-2.66-2.66Z"/></g><g id="Group_28"><g id="Group_27"><path id="Path_47" fill="#3b9bcc" d="M1066.38 456.75a3 3 0 0 0 2.12.9c.78 0 1.16-.37 1.16-.75 0-.5-.58-.67-1.35-.85-1.09-.25-2.49-.55-2.49-2.04 0-1.1.96-2 2.53-2a3.7 3.7 0 0 1 2.6.92l-.79 1.04a2.8 2.8 0 0 0-1.9-.73c-.64 0-.98.28-.98.68 0 .45.56.6 1.33.77 1.1.25 2.5.58 2.5 2.06 0 1.22-.87 2.14-2.67 2.14a3.8 3.8 0 0 1-2.83-1.06Z"/><path id="Path_48" fill="#3b9bcc" d="M1072.34 456.89a2.7 2.7 0 0 0 1.84.76c.81 0 1.26-.35 1.26-.86 0-.54-.4-.8-1.34-.8-.28 0-.73 0-.83.02v-1.24h.83c.74 0 1.23-.23 1.23-.73 0-.53-.54-.8-1.24-.8a2.4 2.4 0 0 0-1.7.7l-.7-.88a3.3 3.3 0 0 1 2.55-1.06c1.56 0 2.52.7 2.52 1.81a1.64 1.64 0 0 1-1.46 1.52 1.67 1.67 0 0 1 1.56 1.6c0 1.15-1.03 1.96-2.63 1.96a3.3 3.3 0 0 1-2.63-1.07Z"/></g></g><g id="Group_29" opacity="0.102"><rect id="Rectangle_4" width="38" height="27" fill="#1c739d" rx="3.161" transform="translate(1053.173 473.268)"/></g><g id="Group_30" opacity="0.502"><path id="Path_49" fill="#1c739d" d="M1088.01 500.77h-31.68a3.67 3.67 0 0 1-3.66-3.66v-20.68a3.67 3.67 0 0 1 3.66-3.66h31.68a3.67 3.67 0 0 1 3.66 3.66v20.68a3.67 3.67 0 0 1-3.66 3.66m-31.68-27a2.66 2.66 0 0 0-2.66 2.66v20.68a2.66 2.66 0 0 0 2.66 2.66h31.68a2.67 2.67 0 0 0 2.66-2.66v-20.68a2.66 2.66 0 0 0-2.66-2.66Z"/></g><g id="Group_32"><g id="Group_31"><path id="Path_50" fill="#3b9bcc" d="M1066.38 488.75a3 3 0 0 0 2.12.9c.78 0 1.16-.37 1.16-.75 0-.5-.58-.67-1.35-.85-1.09-.25-2.49-.55-2.49-2.04 0-1.1.96-2 2.53-2a3.7 3.7 0 0 1 2.6.92l-.79 1.04a2.8 2.8 0 0 0-1.9-.73c-.64 0-.98.28-.98.68 0 .45.56.6 1.33.77 1.1.25 2.5.58 2.5 2.06 0 1.22-.87 2.14-2.67 2.14a3.8 3.8 0 0 1-2.83-1.06Z"/><path id="Path_51" fill="#3b9bcc" d="M1072.34 488.89a2.7 2.7 0 0 0 1.84.76c.81 0 1.26-.35 1.26-.86 0-.54-.4-.8-1.34-.8-.28 0-.73 0-.83.02v-1.24h.83c.74 0 1.23-.23 1.23-.73 0-.53-.54-.8-1.24-.8a2.4 2.4 0 0 0-1.7.7l-.7-.88a3.3 3.3 0 0 1 2.55-1.06c1.56 0 2.52.7 2.52 1.81a1.64 1.64 0 0 1-1.46 1.52 1.67 1.67 0 0 1 1.56 1.6c0 1.15-1.03 1.96-2.63 1.96a3.3 3.3 0 0 1-2.63-1.07Z"/></g></g><g id="Group_33" opacity="0.102"><rect id="Rectangle_5" width="38" height="28" fill="#1c739d" rx="3.278" transform="translate(1053.173 504.268)"/></g><g id="Group_34" opacity="0.502"><path id="Path_52" fill="#1c739d" d="M1087.9 532.77h-31.44a3.8 3.8 0 0 1-3.78-3.78v-21.44a3.8 3.8 0 0 1 3.78-3.78h31.44a3.8 3.8 0 0 1 3.78 3.78v21.44a3.8 3.8 0 0 1-3.78 3.78m-31.44-28a2.8 2.8 0 0 0-2.78 2.78v21.44a2.8 2.8 0 0 0 2.78 2.78h31.44a2.8 2.8 0 0 0 2.78-2.78v-21.44a2.8 2.8 0 0 0-2.78-2.78Z"/></g><g id="Group_36"><g id="Group_35"><path id="Path_53" fill="#3b9bcc" d="M1066.38 519.75a3 3 0 0 0 2.12.9c.78 0 1.16-.37 1.16-.75 0-.5-.58-.67-1.35-.85-1.09-.25-2.49-.55-2.49-2.04 0-1.1.96-2 2.53-2a3.7 3.7 0 0 1 2.6.92l-.79 1.04a2.8 2.8 0 0 0-1.9-.73c-.64 0-.98.28-.98.68 0 .45.56.6 1.33.77 1.1.25 2.5.58 2.5 2.06 0 1.22-.87 2.14-2.67 2.14a3.8 3.8 0 0 1-2.83-1.06Z"/><path id="Path_54" fill="#3b9bcc" d="M1072.34 519.89a2.7 2.7 0 0 0 1.84.76c.81 0 1.26-.35 1.26-.86 0-.54-.4-.8-1.34-.8-.28 0-.73 0-.83.02v-1.24h.83c.74 0 1.23-.23 1.23-.73 0-.53-.54-.8-1.24-.8a2.4 2.4 0 0 0-1.7.7l-.7-.88a3.3 3.3 0 0 1 2.55-1.06c1.56 0 2.52.7 2.52 1.81a1.64 1.64 0 0 1-1.46 1.52 1.67 1.67 0 0 1 1.56 1.6c0 1.15-1.03 1.96-2.63 1.96a3.3 3.3 0 0 1-2.63-1.07Z"/></g></g><g id="Group_37" opacity="0.102"><rect id="Rectangle_6" width="38" height="27" fill="#1c739d" rx="3.161" transform="translate(1094.173 442.268)"/></g><g id="Group_38" opacity="0.502"><path id="Path_55" fill="#1c739d" d="M1129.01 469.77h-31.68a3.67 3.67 0 0 1-3.66-3.66v-20.68a3.67 3.67 0 0 1 3.66-3.66h31.68a3.67 3.67 0 0 1 3.66 3.66v20.68a3.67 3.67 0 0 1-3.66 3.66m-31.68-27a2.66 2.66 0 0 0-2.66 2.66v20.68a2.66 2.66 0 0 0 2.66 2.66h31.68a2.67 2.67 0 0 0 2.66-2.66v-20.68a2.66 2.66 0 0 0-2.66-2.66Z"/></g><g id="Group_40"><g id="Group_39"><path id="Path_56" fill="#3b9bcc" d="M1108.05 456.75a3 3 0 0 0 2.11.9c.78 0 1.16-.37 1.16-.75 0-.5-.58-.67-1.35-.85-1.08-.25-2.48-.55-2.48-2.04 0-1.1.96-2 2.52-2a3.7 3.7 0 0 1 2.6.92l-.78 1.04a3 3 0 0 0-1.91-.73c-.64 0-.98.28-.98.68 0 .45.56.6 1.33.77 1.1.25 2.5.58 2.5 2.06 0 1.22-.87 2.14-2.67 2.14a3.8 3.8 0 0 1-2.83-1.06Z"/><path id="Path_57" fill="#3b9bcc" d="M1114 456.89a2.7 2.7 0 0 0 1.84.76c.81 0 1.26-.35 1.26-.86 0-.54-.4-.8-1.33-.8-.29 0-.74 0-.83.02v-1.24h.83c.73 0 1.22-.23 1.22-.73 0-.53-.54-.8-1.24-.8a2.4 2.4 0 0 0-1.7.7l-.7-.88a3.3 3.3 0 0 1 2.55-1.06c1.56 0 2.52.7 2.52 1.81a1.64 1.64 0 0 1-1.46 1.52 1.67 1.67 0 0 1 1.56 1.6c0 1.15-1.03 1.96-2.63 1.96a3.3 3.3 0 0 1-2.63-1.07Z"/></g></g><g id="Group_41" opacity="0.102"><rect id="Rectangle_7" width="38" height="27" fill="#1c739d" rx="3.161" transform="translate(1094.173 473.268)"/></g><g id="Group_42" opacity="0.502"><path id="Path_58" fill="#1c739d" d="M1129.01 500.77h-31.68a3.67 3.67 0 0 1-3.66-3.66v-20.68a3.67 3.67 0 0 1 3.66-3.66h31.68a3.67 3.67 0 0 1 3.66 3.66v20.68a3.67 3.67 0 0 1-3.66 3.66m-31.68-27a2.66 2.66 0 0 0-2.66 2.66v20.68a2.66 2.66 0 0 0 2.66 2.66h31.68a2.67 2.67 0 0 0 2.66-2.66v-20.68a2.66 2.66 0 0 0-2.66-2.66Z"/></g><g id="Group_44"><g id="Group_43"><path id="Path_59" fill="#3b9bcc" d="M1108.05 488.75a3 3 0 0 0 2.11.9c.78 0 1.16-.37 1.16-.75 0-.5-.58-.67-1.35-.85-1.08-.25-2.48-.55-2.48-2.04 0-1.1.96-2 2.52-2a3.7 3.7 0 0 1 2.6.92l-.78 1.04a3 3 0 0 0-1.91-.73c-.64 0-.98.28-.98.68 0 .45.56.6 1.33.77 1.1.25 2.5.58 2.5 2.06 0 1.22-.87 2.14-2.67 2.14a3.8 3.8 0 0 1-2.83-1.06Z"/><path id="Path_60" fill="#3b9bcc" d="M1114 488.89a2.7 2.7 0 0 0 1.84.76c.81 0 1.26-.35 1.26-.86 0-.54-.4-.8-1.33-.8-.29 0-.74 0-.83.02v-1.24h.83c.73 0 1.22-.23 1.22-.73 0-.53-.54-.8-1.24-.8a2.4 2.4 0 0 0-1.7.7l-.7-.88a3.3 3.3 0 0 1 2.55-1.06c1.56 0 2.52.7 2.52 1.81a1.64 1.64 0 0 1-1.46 1.52 1.67 1.67 0 0 1 1.56 1.6c0 1.15-1.03 1.96-2.63 1.96a3.3 3.3 0 0 1-2.63-1.07Z"/></g></g><g id="Group_45" opacity="0.102"><rect id="Rectangle_8" width="38" height="28" fill="#1c739d" rx="3.278" transform="translate(1094.173 504.268)"/></g><g id="Group_46" opacity="0.502"><path id="Path_61" fill="#1c739d" d="M1128.9 532.77h-31.44a3.8 3.8 0 0 1-3.78-3.78v-21.44a3.8 3.8 0 0 1 3.78-3.78h31.44a3.8 3.8 0 0 1 3.78 3.78v21.44a3.8 3.8 0 0 1-3.78 3.78m-31.44-28a2.8 2.8 0 0 0-2.78 2.78v21.44a2.8 2.8 0 0 0 2.78 2.78h31.44a2.8 2.8 0 0 0 2.78-2.78v-21.44a2.8 2.8 0 0 0-2.78-2.78Z"/></g><g id="Group_48"><g id="Group_47"><path id="Path_62" fill="#3b9bcc" d="M1108.05 519.75a3 3 0 0 0 2.11.9c.78 0 1.16-.37 1.16-.75 0-.5-.58-.67-1.35-.85-1.08-.25-2.48-.55-2.48-2.04 0-1.1.96-2 2.52-2a3.7 3.7 0 0 1 2.6.92l-.78 1.04a3 3 0 0 0-1.91-.73c-.64 0-.98.28-.98.68 0 .45.56.6 1.33.77 1.1.25 2.5.58 2.5 2.06 0 1.22-.87 2.14-2.67 2.14a3.8 3.8 0 0 1-2.83-1.06Z"/><path id="Path_63" fill="#3b9bcc" d="M1114 519.89a2.7 2.7 0 0 0 1.84.76c.81 0 1.26-.35 1.26-.86 0-.54-.4-.8-1.33-.8-.29 0-.74 0-.83.02v-1.24h.83c.73 0 1.22-.23 1.22-.73 0-.53-.54-.8-1.24-.8a2.4 2.4 0 0 0-1.7.7l-.7-.88a3.3 3.3 0 0 1 2.55-1.06c1.56 0 2.52.7 2.52 1.81a1.64 1.64 0 0 1-1.46 1.52 1.67 1.67 0 0 1 1.56 1.6c0 1.15-1.03 1.96-2.63 1.96a3.3 3.3 0 0 1-2.63-1.07Z"/></g></g><g id="Group_49" opacity="0.102"><rect id="Rectangle_9" width="91" height="143" fill="#35d140" rx="5.171" transform="translate(1155.173 394.268)"/></g><g id="Group_50" opacity="0.502"><path id="Path_64" fill="#35d140" d="M1241 537.77h-80.66a5.7 5.7 0 0 1-5.67-5.67V399.44a5.7 5.7 0 0 1 5.67-5.67H1241a5.7 5.7 0 0 1 5.67 5.67V532.1a5.7 5.7 0 0 1-5.67 5.67m-80.66-143a4.7 4.7 0 0 0-4.67 4.67V532.1a4.7 4.7 0 0 0 4.67 4.67H1241a4.7 4.7 0 0 0 4.67-4.67V399.44a4.7 4.7 0 0 0-4.67-4.67Z"/></g><g id="Group_52"><g id="Group_51"><path id="Path_65" fill="#24a02d" d="M1172.67 416.29v4.48h-1.42v-6.67h1.46l3.1 4.32v-4.32h1.41v6.67h-1.37Z"/><path id="Path_66" fill="#24a02d" d="M1178.52 414.1h4.71v1.22h-3.3v1.45h3.23v1.22h-3.23v1.55h3.3v1.23h-4.72Z"/><path id="Path_67" fill="#24a02d" d="m1187.06 418.33-1.68 2.44h-1.69l2.42-3.42-2.27-3.25h1.7l1.52 2.28 1.51-2.28h1.71l-2.27 3.24 2.42 3.43h-1.7Z"/><path id="Path_68" fill="#24a02d" d="M1192.54 415.35h-1.94v-1.25h5.31v1.25h-1.94v5.42h-1.43Z"/><path id="Path_69" fill="#24a02d" d="M1196.56 417.44a3.4 3.4 0 0 1 3.5-3.45 3.1 3.1 0 0 1 2.84 1.63l-1.22.6a1.8 1.8 0 0 0-1.62-.97 2.2 2.2 0 0 0 0 4.38 1.8 1.8 0 0 0 1.62-.97l1.22.59a3.1 3.1 0 0 1-2.84 1.64 3.4 3.4 0 0 1-3.5-3.45"/><path id="Path_70" fill="#24a02d" d="M1203.75 414.1h1.42v5.42h2.82v1.25h-4.24Z"/><path id="Path_71" fill="#24a02d" d="M1212.16 414a3.45 3.45 0 1 1-3.48 3.44 3.35 3.35 0 0 1 3.48-3.45m0 1.25a2.2 2.2 0 1 0 2.03 2.19 2 2 0 0 0-2.03-2.19"/><path id="Path_72" fill="#24a02d" d="M1216.63 414.1h1.44v3.96a1.54 1.54 0 1 0 3.08 0v-3.96h1.44v4c0 1.66-.95 2.79-2.97 2.79-2.04 0-2.99-1.14-2.99-2.78Z"/><path id="Path_73" fill="#24a02d" d="M1223.9 414.1h2.63a3.34 3.34 0 1 1 0 6.67h-2.63Zm2.63 5.42a2 2 0 0 0 2.09-2.08 1.95 1.95 0 0 0-2.1-2.1h-1.2v4.18Z"/></g></g><g id="Group_53" opacity="0.102"><rect id="Rectangle_10" width="38" height="27" fill="#35d140" rx="3.161" transform="translate(1161.173 442.268)"/></g><g id="Group_54" opacity="0.502"><path id="Path_74" fill="#35d140" d="M1196.01 469.77h-31.68a3.67 3.67 0 0 1-3.66-3.66v-20.68a3.67 3.67 0 0 1 3.66-3.66h31.68a3.67 3.67 0 0 1 3.66 3.66v20.68a3.67 3.67 0 0 1-3.66 3.66m-31.68-27a2.66 2.66 0 0 0-2.66 2.66v20.68a2.66 2.66 0 0 0 2.66 2.66h31.68a2.67 2.67 0 0 0 2.66-2.66v-20.68a2.66 2.66 0 0 0-2.66-2.66Z"/></g><g id="Group_56"><g id="Group_55"><path id="Path_75" fill="#24a02d" d="M1174.68 456.75a3 3 0 0 0 2.12.9c.78 0 1.16-.37 1.16-.75 0-.5-.58-.67-1.35-.85-1.09-.25-2.49-.55-2.49-2.04 0-1.1.96-2 2.53-2a3.7 3.7 0 0 1 2.6.92l-.79 1.04a3 3 0 0 0-1.9-.73c-.65 0-.99.28-.99.68 0 .45.56.6 1.33.77 1.1.25 2.5.58 2.5 2.06 0 1.22-.87 2.14-2.67 2.14a3.8 3.8 0 0 1-2.83-1.06Z"/><path id="Path_76" fill="#24a02d" d="M1180.64 456.89a2.7 2.7 0 0 0 1.84.76c.8 0 1.26-.35 1.26-.86 0-.54-.41-.8-1.34-.8-.28 0-.73 0-.83.02v-1.24h.83c.74 0 1.23-.23 1.23-.73 0-.53-.54-.8-1.24-.8a2.4 2.4 0 0 0-1.7.7l-.7-.88a3.3 3.3 0 0 1 2.55-1.06c1.56 0 2.52.7 2.52 1.81a1.64 1.64 0 0 1-1.46 1.52 1.67 1.67 0 0 1 1.56 1.6c0 1.15-1.03 1.96-2.63 1.96a3.3 3.3 0 0 1-2.63-1.07Z"/></g></g><g id="Group_57" opacity="0.102"><rect id="Rectangle_11" width="38" height="27" fill="#35d140" rx="3.161" transform="translate(1161.173 473.268)"/></g><g id="Group_58" opacity="0.502"><path id="Path_77" fill="#35d140" d="M1196.01 500.77h-31.68a3.67 3.67 0 0 1-3.66-3.66v-20.68a3.67 3.67 0 0 1 3.66-3.66h31.68a3.67 3.67 0 0 1 3.66 3.66v20.68a3.67 3.67 0 0 1-3.66 3.66m-31.68-27a2.66 2.66 0 0 0-2.66 2.66v20.68a2.66 2.66 0 0 0 2.66 2.66h31.68a2.67 2.67 0 0 0 2.66-2.66v-20.68a2.66 2.66 0 0 0-2.66-2.66Z"/></g><g id="Group_60"><g id="Group_59"><path id="Path_78" fill="#24a02d" d="M1174.68 488.75a3 3 0 0 0 2.12.9c.78 0 1.16-.37 1.16-.75 0-.5-.58-.67-1.35-.85-1.09-.25-2.49-.55-2.49-2.04 0-1.1.96-2 2.53-2a3.7 3.7 0 0 1 2.6.92l-.79 1.04a3 3 0 0 0-1.9-.73c-.65 0-.99.28-.99.68 0 .45.56.6 1.33.77 1.1.25 2.5.58 2.5 2.06 0 1.22-.87 2.14-2.67 2.14a3.8 3.8 0 0 1-2.83-1.06Z"/><path id="Path_79" fill="#24a02d" d="M1180.64 488.89a2.7 2.7 0 0 0 1.84.76c.8 0 1.26-.35 1.26-.86 0-.54-.41-.8-1.34-.8-.28 0-.73 0-.83.02v-1.24h.83c.74 0 1.23-.23 1.23-.73 0-.53-.54-.8-1.24-.8a2.4 2.4 0 0 0-1.7.7l-.7-.88a3.3 3.3 0 0 1 2.55-1.06c1.56 0 2.52.7 2.52 1.81a1.64 1.64 0 0 1-1.46 1.52 1.67 1.67 0 0 1 1.56 1.6c0 1.15-1.03 1.96-2.63 1.96a3.3 3.3 0 0 1-2.63-1.07Z"/></g></g><g id="Group_61" opacity="0.102"><rect id="Rectangle_12" width="38" height="28" fill="#35d140" rx="3.278" transform="translate(1161.173 504.268)"/></g><g id="Group_62" opacity="0.502"><path id="Path_80" fill="#35d140" d="M1195.9 532.77h-31.44a3.8 3.8 0 0 1-3.78-3.78v-21.44a3.8 3.8 0 0 1 3.78-3.78h31.44a3.8 3.8 0 0 1 3.78 3.78v21.44a3.8 3.8 0 0 1-3.78 3.78m-31.44-28a2.8 2.8 0 0 0-2.78 2.78v21.44a2.8 2.8 0 0 0 2.78 2.78h31.44a2.8 2.8 0 0 0 2.78-2.78v-21.44a2.8 2.8 0 0 0-2.78-2.78Z"/></g><g id="Group_64"><g id="Group_63"><path id="Path_81" fill="#24a02d" d="M1174.68 519.75a3 3 0 0 0 2.12.9c.78 0 1.16-.37 1.16-.75 0-.5-.58-.67-1.35-.85-1.09-.25-2.49-.55-2.49-2.04 0-1.1.96-2 2.53-2a3.7 3.7 0 0 1 2.6.92l-.79 1.04a3 3 0 0 0-1.9-.73c-.65 0-.99.28-.99.68 0 .45.56.6 1.33.77 1.1.25 2.5.58 2.5 2.06 0 1.22-.87 2.14-2.67 2.14a3.8 3.8 0 0 1-2.83-1.06Z"/><path id="Path_82" fill="#24a02d" d="M1180.64 519.89a2.7 2.7 0 0 0 1.84.76c.8 0 1.26-.35 1.26-.86 0-.54-.41-.8-1.34-.8-.28 0-.73 0-.83.02v-1.24h.83c.74 0 1.23-.23 1.23-.73 0-.53-.54-.8-1.24-.8a2.4 2.4 0 0 0-1.7.7l-.7-.88a3.3 3.3 0 0 1 2.55-1.06c1.56 0 2.52.7 2.52 1.81a1.64 1.64 0 0 1-1.46 1.52 1.67 1.67 0 0 1 1.56 1.6c0 1.15-1.03 1.96-2.63 1.96a3.3 3.3 0 0 1-2.63-1.07Z"/></g></g><g id="Group_65" opacity="0.102"><rect id="Rectangle_13" width="38" height="27" fill="#35d140" rx="3.161" transform="translate(1203.173 442.268)"/></g><g id="Group_66" opacity="0.502"><path id="Path_83" fill="#35d140" d="M1238.01 469.77h-31.68a3.67 3.67 0 0 1-3.66-3.66v-20.68a3.67 3.67 0 0 1 3.66-3.66h31.68a3.67 3.67 0 0 1 3.66 3.66v20.68a3.67 3.67 0 0 1-3.66 3.66m-31.68-27a2.66 2.66 0 0 0-2.66 2.66v20.68a2.66 2.66 0 0 0 2.66 2.66h31.68a2.67 2.67 0 0 0 2.66-2.66v-20.68a2.66 2.66 0 0 0-2.66-2.66Z"/></g><g id="Group_68"><g id="Group_67"><path id="Path_84" fill="#24a02d" d="M1216.34 456.75a3 3 0 0 0 2.12.9c.78 0 1.16-.37 1.16-.75 0-.5-.58-.67-1.35-.85-1.09-.25-2.49-.55-2.49-2.04 0-1.1.96-2 2.53-2a3.7 3.7 0 0 1 2.6.92l-.79 1.04a2.8 2.8 0 0 0-1.9-.73c-.65 0-.99.28-.99.68 0 .45.56.6 1.33.77 1.1.25 2.5.58 2.5 2.06 0 1.22-.87 2.14-2.66 2.14a3.8 3.8 0 0 1-2.83-1.06Z"/><path id="Path_85" fill="#24a02d" d="M1222.3 456.89a2.7 2.7 0 0 0 1.84.76c.8 0 1.26-.35 1.26-.86 0-.54-.41-.8-1.34-.8-.28 0-.73 0-.83.02v-1.24h.83c.74 0 1.23-.23 1.23-.73 0-.53-.54-.8-1.24-.8a2.4 2.4 0 0 0-1.7.7l-.7-.88a3.3 3.3 0 0 1 2.55-1.06c1.56 0 2.52.7 2.52 1.81a1.64 1.64 0 0 1-1.46 1.52 1.67 1.67 0 0 1 1.56 1.6c0 1.15-1.03 1.96-2.63 1.96a3.3 3.3 0 0 1-2.63-1.07Z"/></g></g><g id="Group_69" opacity="0.102"><rect id="Rectangle_14" width="38" height="27" fill="#35d140" rx="3.161" transform="translate(1203.173 473.268)"/></g><g id="Group_70" opacity="0.502"><path id="Path_86" fill="#35d140" d="M1238.01 500.77h-31.68a3.67 3.67 0 0 1-3.66-3.66v-20.68a3.67 3.67 0 0 1 3.66-3.66h31.68a3.67 3.67 0 0 1 3.66 3.66v20.68a3.67 3.67 0 0 1-3.66 3.66m-31.68-27a2.66 2.66 0 0 0-2.66 2.66v20.68a2.66 2.66 0 0 0 2.66 2.66h31.68a2.67 2.67 0 0 0 2.66-2.66v-20.68a2.66 2.66 0 0 0-2.66-2.66Z"/></g><g id="Group_72"><g id="Group_71"><path id="Path_87" fill="#24a02d" d="M1216.34 488.75a3 3 0 0 0 2.12.9c.78 0 1.16-.37 1.16-.75 0-.5-.58-.67-1.35-.85-1.09-.25-2.49-.55-2.49-2.04 0-1.1.96-2 2.53-2a3.7 3.7 0 0 1 2.6.92l-.79 1.04a2.8 2.8 0 0 0-1.9-.73c-.65 0-.99.28-.99.68 0 .45.56.6 1.33.77 1.1.25 2.5.58 2.5 2.06 0 1.22-.87 2.14-2.66 2.14a3.8 3.8 0 0 1-2.83-1.06Z"/><path id="Path_88" fill="#24a02d" d="M1222.3 488.89a2.7 2.7 0 0 0 1.84.76c.8 0 1.26-.35 1.26-.86 0-.54-.41-.8-1.34-.8-.28 0-.73 0-.83.02v-1.24h.83c.74 0 1.23-.23 1.23-.73 0-.53-.54-.8-1.24-.8a2.4 2.4 0 0 0-1.7.7l-.7-.88a3.3 3.3 0 0 1 2.55-1.06c1.56 0 2.52.7 2.52 1.81a1.64 1.64 0 0 1-1.46 1.52 1.67 1.67 0 0 1 1.56 1.6c0 1.15-1.03 1.96-2.63 1.96a3.3 3.3 0 0 1-2.63-1.07Z"/></g></g><g id="Group_73" opacity="0.102"><rect id="Rectangle_15" width="38" height="28" fill="#35d140" rx="3.278" transform="translate(1203.173 504.268)"/></g><g id="Group_74" opacity="0.502"><path id="Path_89" fill="#35d140" d="M1237.9 532.77h-31.44a3.8 3.8 0 0 1-3.78-3.78v-21.44a3.8 3.8 0 0 1 3.78-3.78h31.44a3.8 3.8 0 0 1 3.78 3.78v21.44a3.8 3.8 0 0 1-3.78 3.78m-31.44-28a2.8 2.8 0 0 0-2.78 2.78v21.44a2.8 2.8 0 0 0 2.78 2.78h31.44a2.8 2.8 0 0 0 2.78-2.78v-21.44a2.8 2.8 0 0 0-2.78-2.78Z"/></g><g id="Group_76"><g id="Group_75"><path id="Path_90" fill="#24a02d" d="M1216.34 519.75a3 3 0 0 0 2.12.9c.78 0 1.16-.37 1.16-.75 0-.5-.58-.67-1.35-.85-1.09-.25-2.49-.55-2.49-2.04 0-1.1.96-2 2.53-2a3.7 3.7 0 0 1 2.6.92l-.79 1.04a2.8 2.8 0 0 0-1.9-.73c-.65 0-.99.28-.99.68 0 .45.56.6 1.33.77 1.1.25 2.5.58 2.5 2.06 0 1.22-.87 2.14-2.66 2.14a3.8 3.8 0 0 1-2.83-1.06Z"/><path id="Path_91" fill="#24a02d" d="M1222.3 519.89a2.7 2.7 0 0 0 1.84.76c.8 0 1.26-.35 1.26-.86 0-.54-.41-.8-1.34-.8-.28 0-.73 0-.83.02v-1.24h.83c.74 0 1.23-.23 1.23-.73 0-.53-.54-.8-1.24-.8a2.4 2.4 0 0 0-1.7.7l-.7-.88a3.3 3.3 0 0 1 2.55-1.06c1.56 0 2.52.7 2.52 1.81a1.64 1.64 0 0 1-1.46 1.52 1.67 1.67 0 0 1 1.56 1.6c0 1.15-1.03 1.96-2.63 1.96a3.3 3.3 0 0 1-2.63-1.07Z"/></g></g><g id="Group_77" opacity="0.102"><rect id="Rectangle_16" width="91" height="142" fill="#fd7e0d" rx="5.171" transform="translate(940.173 395.268)"/></g><g id="Group_78" opacity="0.502"><path id="Path_92" fill="#fd7e0d" d="M1026 537.77h-80.66a5.7 5.7 0 0 1-5.67-5.67V400.44a5.7 5.7 0 0 1 5.67-5.67H1026a5.7 5.7 0 0 1 5.67 5.67V532.1a5.7 5.7 0 0 1-5.67 5.67m-80.66-142a4.7 4.7 0 0 0-4.67 4.67V532.1a4.7 4.7 0 0 0 4.67 4.67H1026a4.7 4.7 0 0 0 4.67-4.67V400.44a4.7 4.7 0 0 0-4.67-4.67Z"/></g><g id="Group_80"><g id="Group_79"><path id="Path_93" fill="#c65e02" d="M957.14 417.29v4.48h-1.42v-6.67h1.46l3.1 4.32v-4.32h1.4v6.67h-1.36Z"/><path id="Path_94" fill="#c65e02" d="M962.98 415.1h4.72v1.22h-3.3v1.45h3.23v1.22h-3.23v1.55h3.3v1.23h-4.72Z"/><path id="Path_95" fill="#c65e02" d="m971.53 419.33-1.68 2.44h-1.69l2.42-3.42-2.27-3.25H970l1.53 2.28 1.5-2.28h1.72l-2.27 3.24 2.42 3.43h-1.7Z"/><path id="Path_96" fill="#c65e02" d="M977.01 416.35h-1.95v-1.25h5.32v1.25h-1.94v5.42h-1.43Z"/><path id="Path_97" fill="#c65e02" d="M981.03 418.44a3.4 3.4 0 0 1 3.5-3.45 3.1 3.1 0 0 1 2.84 1.63l-1.22.6a1.8 1.8 0 0 0-1.62-.97 2.2 2.2 0 0 0 0 4.38 1.8 1.8 0 0 0 1.62-.97l1.22.59a3.1 3.1 0 0 1-2.84 1.64 3.4 3.4 0 0 1-3.5-3.45"/><path id="Path_98" fill="#c65e02" d="M988.22 415.1h1.42v5.42h2.82v1.25h-4.24Z"/><path id="Path_99" fill="#c65e02" d="M996.63 415a3.45 3.45 0 1 1-3.48 3.44 3.35 3.35 0 0 1 3.48-3.45m0 1.25a2.2 2.2 0 1 0 2.03 2.19 2 2 0 0 0-2.03-2.19"/><path id="Path_100" fill="#c65e02" d="M1001.1 415.1h1.44v3.96a1.54 1.54 0 1 0 3.08 0v-3.96h1.44v4c0 1.66-.95 2.79-2.97 2.79-2.04 0-2.99-1.14-2.99-2.78Z"/><path id="Path_101" fill="#c65e02" d="M1008.36 415.1h2.63a3.34 3.34 0 1 1 0 6.67h-2.63Zm2.63 5.42a2 2 0 0 0 2.09-2.08 1.95 1.95 0 0 0-2.09-2.1h-1.2v4.18Z"/></g></g><g id="Group_81" opacity="0.102"><rect id="Rectangle_17" width="39" height="27" fill="#fd7e0d" rx="3.161" transform="translate(945.173 442.268)"/></g><g id="Group_82" opacity="0.502"><path id="Path_102" fill="#fd7e0d" d="M981.01 469.77h-32.68a3.67 3.67 0 0 1-3.66-3.66v-20.68a3.67 3.67 0 0 1 3.66-3.66h32.68a3.67 3.67 0 0 1 3.66 3.66v20.68a3.67 3.67 0 0 1-3.66 3.66m-32.68-27a2.66 2.66 0 0 0-2.66 2.66v20.68a2.66 2.66 0 0 0 2.66 2.66h32.68a2.67 2.67 0 0 0 2.66-2.66v-20.68a2.66 2.66 0 0 0-2.66-2.66Z"/></g><g id="Group_84"><g id="Group_83"><path id="Path_103" fill="#c65e02" d="M959.15 456.75a3 3 0 0 0 2.12.9c.78 0 1.16-.37 1.16-.75 0-.5-.58-.67-1.35-.85-1.1-.25-2.49-.55-2.49-2.04 0-1.1.96-2 2.53-2a3.7 3.7 0 0 1 2.6.92l-.8 1.04a3 3 0 0 0-1.9-.73c-.64 0-.98.28-.98.68 0 .45.56.6 1.33.77 1.1.25 2.5.58 2.5 2.06 0 1.22-.87 2.14-2.67 2.14a3.8 3.8 0 0 1-2.83-1.06Z"/><path id="Path_104" fill="#c65e02" d="M965.1 456.89a2.7 2.7 0 0 0 1.85.76c.8 0 1.26-.35 1.26-.86 0-.54-.41-.8-1.34-.8-.28 0-.73 0-.83.02v-1.24h.83c.74 0 1.23-.23 1.23-.73 0-.53-.54-.8-1.24-.8a2.4 2.4 0 0 0-1.7.7l-.7-.88A3.3 3.3 0 0 1 967 452c1.55 0 2.51.7 2.51 1.81a1.64 1.64 0 0 1-1.45 1.52 1.7 1.7 0 0 1 1.55 1.6c0 1.15-1.02 1.96-2.62 1.96a3.3 3.3 0 0 1-2.63-1.07Z"/></g></g><g id="Group_85" opacity="0.102"><rect id="Rectangle_18" width="39" height="27" fill="#fd7e0d" rx="3.161" transform="translate(945.173 473.268)"/></g><g id="Group_86" opacity="0.502"><path id="Path_105" fill="#fd7e0d" d="M981.01 500.77h-32.68a3.67 3.67 0 0 1-3.66-3.66v-20.68a3.67 3.67 0 0 1 3.66-3.66h32.68a3.67 3.67 0 0 1 3.66 3.66v20.68a3.67 3.67 0 0 1-3.66 3.66m-32.68-27a2.66 2.66 0 0 0-2.66 2.66v20.68a2.66 2.66 0 0 0 2.66 2.66h32.68a2.67 2.67 0 0 0 2.66-2.66v-20.68a2.66 2.66 0 0 0-2.66-2.66Z"/></g><g id="Group_88"><g id="Group_87"><path id="Path_106" fill="#c65e02" d="M959.15 488.75a3 3 0 0 0 2.12.9c.78 0 1.16-.37 1.16-.75 0-.5-.58-.67-1.35-.85-1.1-.25-2.49-.55-2.49-2.04 0-1.1.96-2 2.53-2a3.7 3.7 0 0 1 2.6.92l-.8 1.04a3 3 0 0 0-1.9-.73c-.64 0-.98.28-.98.68 0 .45.56.6 1.33.77 1.1.25 2.5.58 2.5 2.06 0 1.22-.87 2.14-2.67 2.14a3.8 3.8 0 0 1-2.83-1.06Z"/><path id="Path_107" fill="#c65e02" d="M965.1 488.89a2.7 2.7 0 0 0 1.85.76c.8 0 1.26-.35 1.26-.86 0-.54-.41-.8-1.34-.8-.28 0-.73 0-.83.02v-1.24h.83c.74 0 1.23-.23 1.23-.73 0-.53-.54-.8-1.24-.8a2.4 2.4 0 0 0-1.7.7l-.7-.88A3.3 3.3 0 0 1 967 484c1.55 0 2.51.7 2.51 1.81a1.64 1.64 0 0 1-1.45 1.52 1.7 1.7 0 0 1 1.55 1.6c0 1.15-1.02 1.96-2.62 1.96a3.3 3.3 0 0 1-2.63-1.07Z"/></g></g><g id="Group_89" opacity="0.102"><rect id="Rectangle_19" width="39" height="28" fill="#fd7e0d" rx="3.278" transform="translate(945.173 504.268)"/></g><g id="Group_90" opacity="0.502"><path id="Path_108" fill="#fd7e0d" d="M980.9 532.77h-32.45a3.8 3.8 0 0 1-3.78-3.78v-21.44a3.8 3.8 0 0 1 3.78-3.78h32.45a3.8 3.8 0 0 1 3.78 3.78v21.44a3.8 3.8 0 0 1-3.78 3.78m-32.44-28a2.8 2.8 0 0 0-2.78 2.78v21.44a2.8 2.8 0 0 0 2.78 2.78h32.44a2.8 2.8 0 0 0 2.78-2.78v-21.44a2.8 2.8 0 0 0-2.78-2.78Z"/></g><g id="Group_92"><g id="Group_91"><path id="Path_109" fill="#c65e02" d="M959.15 519.75a3 3 0 0 0 2.12.9c.78 0 1.16-.37 1.16-.75 0-.5-.58-.67-1.35-.85-1.1-.25-2.49-.55-2.49-2.04 0-1.1.96-2 2.53-2a3.7 3.7 0 0 1 2.6.92l-.8 1.04a3 3 0 0 0-1.9-.73c-.64 0-.98.28-.98.68 0 .45.56.6 1.33.77 1.1.25 2.5.58 2.5 2.06 0 1.22-.87 2.14-2.67 2.14a3.8 3.8 0 0 1-2.83-1.06Z"/><path id="Path_110" fill="#c65e02" d="M965.1 519.89a2.7 2.7 0 0 0 1.85.76c.8 0 1.26-.35 1.26-.86 0-.54-.41-.8-1.34-.8-.28 0-.73 0-.83.02v-1.24h.83c.74 0 1.23-.23 1.23-.73 0-.53-.54-.8-1.24-.8a2.4 2.4 0 0 0-1.7.7l-.7-.88A3.3 3.3 0 0 1 967 515c1.55 0 2.51.7 2.51 1.81a1.64 1.64 0 0 1-1.45 1.52 1.7 1.7 0 0 1 1.55 1.6c0 1.15-1.02 1.96-2.62 1.96a3.3 3.3 0 0 1-2.63-1.07Z"/></g></g><g id="Group_93" opacity="0.102"><rect id="Rectangle_20" width="38" height="27" fill="#fd7e0d" rx="3.161" transform="translate(987.173 442.268)"/></g><g id="Group_94" opacity="0.502"><path id="Path_111" fill="#fd7e0d" d="M1022.01 469.77h-31.68a3.67 3.67 0 0 1-3.66-3.66v-20.68a3.67 3.67 0 0 1 3.66-3.66h31.68a3.67 3.67 0 0 1 3.66 3.66v20.68a3.67 3.67 0 0 1-3.66 3.66m-31.68-27a2.66 2.66 0 0 0-2.66 2.66v20.68a2.66 2.66 0 0 0 2.66 2.66h31.68a2.67 2.67 0 0 0 2.66-2.66v-20.68a2.66 2.66 0 0 0-2.66-2.66Z"/></g><g id="Group_96"><g id="Group_95"><path id="Path_112" fill="#c65e02" d="M1000.81 456.75a3 3 0 0 0 2.12.9c.78 0 1.16-.37 1.16-.75 0-.5-.58-.67-1.35-.85-1.09-.25-2.49-.55-2.49-2.04 0-1.1.96-2 2.53-2a3.7 3.7 0 0 1 2.6.92l-.79 1.04a2.8 2.8 0 0 0-1.9-.73c-.65 0-.99.28-.99.68 0 .45.56.6 1.33.77 1.1.25 2.5.58 2.5 2.06 0 1.22-.87 2.14-2.67 2.14a3.8 3.8 0 0 1-2.83-1.06Z"/><path id="Path_113" fill="#c65e02" d="M1006.77 456.89a2.7 2.7 0 0 0 1.84.76c.81 0 1.26-.35 1.26-.86 0-.54-.41-.8-1.34-.8-.28 0-.73 0-.83.02v-1.24h.83c.74 0 1.23-.23 1.23-.73 0-.53-.54-.8-1.24-.8a2.4 2.4 0 0 0-1.7.7l-.7-.88a3.3 3.3 0 0 1 2.55-1.06c1.56 0 2.52.7 2.52 1.81a1.6 1.6 0 0 1-1.46 1.52 1.67 1.67 0 0 1 1.56 1.6c0 1.15-1.03 1.96-2.63 1.96a3.3 3.3 0 0 1-2.63-1.07Z"/></g></g><g id="Group_97" opacity="0.102"><rect id="Rectangle_21" width="38" height="27" fill="#fd7e0d" rx="3.161" transform="translate(987.173 473.268)"/></g><g id="Group_98" opacity="0.502"><path id="Path_114" fill="#fd7e0d" d="M1022.01 500.77h-31.68a3.67 3.67 0 0 1-3.66-3.66v-20.68a3.67 3.67 0 0 1 3.66-3.66h31.68a3.67 3.67 0 0 1 3.66 3.66v20.68a3.67 3.67 0 0 1-3.66 3.66m-31.68-27a2.66 2.66 0 0 0-2.66 2.66v20.68a2.66 2.66 0 0 0 2.66 2.66h31.68a2.67 2.67 0 0 0 2.66-2.66v-20.68a2.66 2.66 0 0 0-2.66-2.66Z"/></g><g id="Group_100"><g id="Group_99"><path id="Path_115" fill="#c65e02" d="M1000.81 488.75a3 3 0 0 0 2.12.9c.78 0 1.16-.37 1.16-.75 0-.5-.58-.67-1.35-.85-1.09-.25-2.49-.55-2.49-2.04 0-1.1.96-2 2.53-2a3.7 3.7 0 0 1 2.6.92l-.79 1.04a2.8 2.8 0 0 0-1.9-.73c-.65 0-.99.28-.99.68 0 .45.56.6 1.33.77 1.1.25 2.5.58 2.5 2.06 0 1.22-.87 2.14-2.67 2.14a3.8 3.8 0 0 1-2.83-1.06Z"/><path id="Path_116" fill="#c65e02" d="M1006.77 488.89a2.7 2.7 0 0 0 1.84.76c.81 0 1.26-.35 1.26-.86 0-.54-.41-.8-1.34-.8-.28 0-.73 0-.83.02v-1.24h.83c.74 0 1.23-.23 1.23-.73 0-.53-.54-.8-1.24-.8a2.4 2.4 0 0 0-1.7.7l-.7-.88a3.3 3.3 0 0 1 2.55-1.06c1.56 0 2.52.7 2.52 1.81a1.6 1.6 0 0 1-1.46 1.52 1.67 1.67 0 0 1 1.56 1.6c0 1.15-1.03 1.96-2.63 1.96a3.3 3.3 0 0 1-2.63-1.07Z"/></g></g><g id="Group_101" opacity="0.102"><rect id="Rectangle_22" width="38" height="28" fill="#fd7e0d" rx="3.278" transform="translate(987.173 504.268)"/></g><g id="Group_102" opacity="0.502"><path id="Path_117" fill="#fd7e0d" d="M1021.9 532.77h-31.45a3.8 3.8 0 0 1-3.78-3.78v-21.44a3.8 3.8 0 0 1 3.78-3.78h31.45a3.8 3.8 0 0 1 3.78 3.78v21.44a3.8 3.8 0 0 1-3.78 3.78m-31.44-28a2.8 2.8 0 0 0-2.78 2.78v21.44a2.8 2.8 0 0 0 2.78 2.78h31.44a2.8 2.8 0 0 0 2.78-2.78v-21.44a2.8 2.8 0 0 0-2.78-2.78Z"/></g><g id="Group_104"><g id="Group_103"><path id="Path_118" fill="#c65e02" d="M1000.81 519.75a3 3 0 0 0 2.12.9c.78 0 1.16-.37 1.16-.75 0-.5-.58-.67-1.35-.85-1.09-.25-2.49-.55-2.49-2.04 0-1.1.96-2 2.53-2a3.7 3.7 0 0 1 2.6.92l-.79 1.04a2.8 2.8 0 0 0-1.9-.73c-.65 0-.99.28-.99.68 0 .45.56.6 1.33.77 1.1.25 2.5.58 2.5 2.06 0 1.22-.87 2.14-2.67 2.14a3.8 3.8 0 0 1-2.83-1.06Z"/><path id="Path_119" fill="#c65e02" d="M1006.77 519.89a2.7 2.7 0 0 0 1.84.76c.81 0 1.26-.35 1.26-.86 0-.54-.41-.8-1.34-.8-.28 0-.73 0-.83.02v-1.24h.83c.74 0 1.23-.23 1.23-.73 0-.53-.54-.8-1.24-.8a2.4 2.4 0 0 0-1.7.7l-.7-.88a3.3 3.3 0 0 1 2.55-1.06c1.56 0 2.52.7 2.52 1.81a1.6 1.6 0 0 1-1.46 1.52 1.67 1.67 0 0 1 1.56 1.6c0 1.15-1.03 1.96-2.63 1.96a3.3 3.3 0 0 1-2.63-1.07Z"/></g></g></g></svg>