<svg xmlns="http://www.w3.org/2000/svg" viewBox="0 0 307 259"><defs><style>.a{fill:#fd7e0d}.b{fill:#fafefe}.c{opacity:.1}.d{opacity:.5}.e{fill:#c65e02}.f{fill:#1c739d}.g{fill:#35d140}.h{fill:#24a02d}.i{fill:#b3b3b3}.j{fill:#3b9bcc}</style></defs><path d="M77 17A17 17 0 0 1 94 0h116a17 17 0 0 1 0 34H94a17 17 0 0 1-17-17" class="a"/><path d="M121.22 19a3 3 0 0 0 2.12.9c.78 0 1.16-.37 1.16-.75s-.58-.67-1.35-.85c-1.09-.25-2.49-.55-2.49-2 0-1.11 1-2 2.53-2a3.7 3.7 0 0 1 2.6.93l-.79 1a3 3 0 0 0-1.91-.73c-.64 0-1 .28-1 .68s.56.59 1.33.77c1.1.25 2.5.58 2.5 2.06 0 1.22-.87 2.14-2.67 2.14a3.8 3.8 0 0 1-2.83-1.06Zm5.68-4.67h1.44v4a1.54 1.54 0 1 0 3.08 0v-4h1.44v4c0 1.66-1 2.79-3 2.79s-3-1.14-3-2.78Zm8.67 2.19V21h-1.42v-6.67h1.46l3.09 4.32v-4.32h1.42V21h-1.37Zm5.84-2.19h4.72v1.22h-3.3V17h3.23v1.22h-3.23v1.55h3.3V21h-4.72Zm7.41 1.25h-1.95v-1.25h5.32v1.25h-1.94V21h-1.43Zm6.84-1.25h2.63a3.34 3.34 0 1 1 0 6.67h-2.63Zm2.63 5.42a2 2 0 0 0 2.09-2.08 2 2 0 0 0-2.09-2.09h-1.21v4.17Zm6.96-1.14h-1V21h-1.42v-6.67h3.12a2.1 2.1 0 0 1 2.24 2.15 1.9 1.9 0 0 1-1.46 2l1.5 2.54h-1.63Zm.45-3.06h-1.49v1.84h1.49a.92.92 0 1 0 0-1.84m3.47-1.22h1.42V21h-1.42Zm2.04 0h1.62l1.85 5.13 1.84-5.13h1.62L175.57 21h-1.78Zm7.58 0h4.72v1.22h-3.3V17h3.23v1.22h-3.23v1.55h3.3V21h-4.72Z" class="b"/><g class="c"><path d="M.5 74.5a16 16 0 0 1 16-16h59a16 16 0 0 1 16 16 16 16 0 0 1-16 16h-59a16 16 0 0 1-16-16" class="a"/></g><g class="d"><path d="M75.5 91h-59a16.5 16.5 0 0 1 0-33h59a16.5 16.5 0 0 1 0 33m-59-32a15.5 15.5 0 0 0 0 31h59a15.5 15.5 0 0 0 0-31Z" class="a"/></g><path d="M34 71.33h1.44v4a1.54 1.54 0 1 0 3.07 0v-4h1.44v4c0 1.66-.94 2.79-3 2.79S34 77 34 75.34Zm8.66 2.19V78h-1.42v-6.67h1.46l3.09 4.32v-4.32h1.41V78h-1.37Zm5.84-2.19h1.42V78H48.5Zm6.63 1.83L54 74.29l-.81-.85 2.1-2.11h1.24V78h-1.4Z" class="e"/><g class="c"><path d="M107.5 74.5a16 16 0 0 1 16-16h59a16 16 0 0 1 16 16 16 16 0 0 1-16 16h-59a16 16 0 0 1-16-16" class="f"/></g><g class="d"><path d="M182.5 91h-59a16.5 16.5 0 0 1 0-33h59a16.5 16.5 0 0 1 0 33m-59-32a15.5 15.5 0 0 0 0 31h59a15.5 15.5 0 0 0 0-31Z" class="f"/></g><path d="M140.28 71.33h1.44v4a1.54 1.54 0 1 0 3.08 0v-4h1.44v4c0 1.66-1 2.79-3 2.79s-3-1.14-3-2.78Zm8.72 2.19V78h-1.42v-6.67H149l3.09 4.32v-4.32h1.42V78h-1.37Zm5.79-2.19h1.42V78h-1.42Zm5.07 5.55c2.73-2 3.53-2.7 3.53-3.52 0-.58-.53-.87-1.09-.87a2.4 2.4 0 0 0-1.78.77l-.81-.94a3.4 3.4 0 0 1 2.57-1.09c1.42 0 2.55.8 2.55 2.13 0 1.14-.94 2.13-2.73 3.39h2.78V78h-5Z" class="f"/><g class="c"><path d="M215.5 74.5a16 16 0 0 1 16-16h59a16 16 0 0 1 16 16 16 16 0 0 1-16 16h-59a16 16 0 0 1-16-16" class="g"/></g><g class="d"><path d="M290.5 91h-59a16.5 16.5 0 0 1 0-33h59a16.5 16.5 0 0 1 0 33m-59-32a15.5 15.5 0 0 0 0 31h59a15.5 15.5 0 0 0 0-31Z" class="g"/></g><path d="M248.64 71.33h1.44v4a1.54 1.54 0 1 0 3.08 0v-4h1.44v4c0 1.66-.95 2.79-3 2.79s-3-1.14-3-2.78Zm8.67 2.19V78h-1.42v-6.67h1.46l3.09 4.32v-4.32h1.42V78h-1.37Zm5.84-2.19h1.42V78h-1.42Zm5.54 4.79a2.7 2.7 0 0 0 1.84.76c.81 0 1.26-.35 1.26-.86s-.41-.79-1.34-.79h-.83V74h.83c.74 0 1.23-.24 1.23-.74s-.54-.8-1.24-.8a2.4 2.4 0 0 0-1.7.7l-.7-.88a3.3 3.3 0 0 1 2.55-1.06c1.56 0 2.52.7 2.52 1.81a1.64 1.64 0 0 1-1.46 1.52 1.67 1.67 0 0 1 1.56 1.6c0 1.15-1 2-2.63 2a3.3 3.3 0 0 1-2.58-1.1Z" class="h"/><path d="m156.87 49.41-4 8.32-4.26-8.18Zm-3-14.93.27 16.35-2.75.05-.27-16.36ZM41.38 49.85l4.12 8.25 4.13-8.25Zm36.29-33.73H45.5a1.37 1.37 0 0 0-1.37 1.38v33.73h2.75V17.5l-1.38 1.38h32.17Zm187.96 33.73-4.13 8.25-4.12-8.25ZM227.5 16.12h34a1.4 1.4 0 0 1 1.38 1.38v33.73h-2.75V17.5l1.37 1.38h-34ZM49.63 107.58l-4.13 8.25-4.12-8.25ZM46.88 90.5V109h-2.75V90.5Zm109.75 16.88-4.13 8.25-4.12-8.25Zm-2.75-16.88v18.25h-2.75V90.5Zm111.75 16.68-4.13 8.25-4.12-8.25Zm-2.75-16.68v18h-2.75v-18Z" class="i"/><g class="c"><rect width="91" height="142" x="107.5" y="116.5" class="f" rx="5.17"/></g><g class="d"><path d="M193.33 259h-80.66a5.67 5.67 0 0 1-5.67-5.67V121.67a5.67 5.67 0 0 1 5.67-5.67h80.66a5.67 5.67 0 0 1 5.67 5.67v131.66a5.67 5.67 0 0 1-5.67 5.67m-80.66-142a4.7 4.7 0 0 0-4.67 4.67v131.66a4.7 4.7 0 0 0 4.67 4.67h80.66a4.7 4.7 0 0 0 4.67-4.67V121.67a4.7 4.7 0 0 0-4.67-4.67Z" class="f"/></g><path d="M124.7 138.52V143h-1.42v-6.67h1.46l3.09 4.32v-4.32h1.42V143h-1.37Zm5.84-2.19h4.72v1.22H132V139h3.23v1.22H132v1.55h3.3V143h-4.72Zm8.55 4.23-1.68 2.44h-1.69l2.42-3.42-2.27-3.25h1.69l1.53 2.28 1.51-2.28h1.71l-2.31 3.24 2.42 3.43h-1.7Zm5.48-2.98h-1.95v-1.25h5.32v1.25H146V143h-1.43Zm4.02 2.09a3.4 3.4 0 0 1 3.5-3.45 3.1 3.1 0 0 1 2.84 1.63l-1.22.6a1.8 1.8 0 0 0-1.62-1 2.2 2.2 0 0 0 0 4.38 1.8 1.8 0 0 0 1.62-1l1.22.59a3.1 3.1 0 0 1-2.84 1.64 3.4 3.4 0 0 1-3.5-3.39m7.19-3.34h1.42v5.42h2.8V143h-4.24Zm8.41-.11a3.45 3.45 0 1 1-3.48 3.45 3.35 3.35 0 0 1 3.48-3.45m0 1.26a2.2 2.2 0 1 0 2 2.19 2 2 0 0 0-2-2.19m4.47-1.15h1.44v4a1.54 1.54 0 1 0 3.08 0v-4h1.44v4c0 1.66-1 2.79-3 2.79s-3-1.14-3-2.78Zm7.26 0h2.63a3.34 3.34 0 1 1 0 6.67h-2.63Zm2.63 5.42a2 2 0 0 0 2.09-2.08 2 2 0 0 0-2.09-2.09h-1.21v4.17Z" class="j"/><g class="c"><rect width="38" height="27" x="113.5" y="163.5" class="f" rx="3.16"/></g><g class="d"><path d="M148.34 191h-31.68a3.66 3.66 0 0 1-3.66-3.66v-20.68a3.66 3.66 0 0 1 3.66-3.66h31.68a3.66 3.66 0 0 1 3.66 3.66v20.68a3.66 3.66 0 0 1-3.66 3.66m-31.68-27a2.66 2.66 0 0 0-2.66 2.66v20.68a2.66 2.66 0 0 0 2.66 2.66h31.68a2.66 2.66 0 0 0 2.66-2.66v-20.68a2.66 2.66 0 0 0-2.66-2.66Z" class="f"/></g><path d="M126.71 178a3 3 0 0 0 2.12.9c.78 0 1.16-.37 1.16-.75s-.58-.67-1.35-.85c-1.09-.25-2.49-.55-2.49-2 0-1.11 1-2 2.53-2a3.7 3.7 0 0 1 2.6.93l-.79 1a3 3 0 0 0-1.91-.73c-.64 0-1 .28-1 .68s.56.59 1.33.77c1.1.25 2.5.58 2.5 2.06 0 1.22-.87 2.14-2.67 2.14a3.8 3.8 0 0 1-2.83-1.06Zm5.96.12a2.7 2.7 0 0 0 1.84.76c.81 0 1.26-.35 1.26-.86s-.41-.79-1.34-.79h-.83V176h.83c.74 0 1.23-.24 1.23-.74s-.54-.8-1.24-.8a2.4 2.4 0 0 0-1.7.7l-.7-.88a3.3 3.3 0 0 1 2.55-1.06c1.56 0 2.52.7 2.52 1.81a1.64 1.64 0 0 1-1.46 1.52 1.67 1.67 0 0 1 1.56 1.6c0 1.15-1 2-2.63 2a3.3 3.3 0 0 1-2.63-1.07Z" class="j"/><g class="c"><rect width="38" height="27" x="113.5" y="194.5" class="f" rx="3.16"/></g><g class="d"><path d="M148.34 222h-31.68a3.66 3.66 0 0 1-3.66-3.66v-20.68a3.66 3.66 0 0 1 3.66-3.66h31.68a3.66 3.66 0 0 1 3.66 3.66v20.68a3.66 3.66 0 0 1-3.66 3.66m-31.68-27a2.66 2.66 0 0 0-2.66 2.66v20.68a2.66 2.66 0 0 0 2.66 2.66h31.68a2.66 2.66 0 0 0 2.66-2.66v-20.68a2.66 2.66 0 0 0-2.66-2.66Z" class="f"/></g><path d="M126.71 210a3 3 0 0 0 2.12.9c.78 0 1.16-.37 1.16-.75s-.58-.67-1.35-.85c-1.09-.25-2.49-.55-2.49-2 0-1.11 1-2 2.53-2a3.7 3.7 0 0 1 2.6.93l-.79 1a3 3 0 0 0-1.91-.73c-.64 0-1 .28-1 .68s.56.59 1.33.77c1.1.25 2.5.58 2.5 2.06 0 1.22-.87 2.14-2.67 2.14a3.8 3.8 0 0 1-2.83-1.06Zm5.96.12a2.7 2.7 0 0 0 1.84.76c.81 0 1.26-.35 1.26-.86s-.41-.79-1.34-.79h-.83V208h.83c.74 0 1.23-.24 1.23-.74s-.54-.8-1.24-.8a2.4 2.4 0 0 0-1.7.7l-.7-.88a3.3 3.3 0 0 1 2.55-1.06c1.56 0 2.52.7 2.52 1.81a1.64 1.64 0 0 1-1.46 1.52 1.67 1.67 0 0 1 1.56 1.6c0 1.15-1 2-2.63 2a3.3 3.3 0 0 1-2.63-1.07Z" class="j"/><g class="c"><rect width="38" height="28" x="113.5" y="225.5" class="f" rx="3.28"/></g><g class="d"><path d="M148.22 254h-31.44a3.8 3.8 0 0 1-3.78-3.78v-21.44a3.8 3.8 0 0 1 3.78-3.78h31.44a3.8 3.8 0 0 1 3.78 3.78v21.44a3.8 3.8 0 0 1-3.78 3.78m-31.44-28a2.8 2.8 0 0 0-2.78 2.78v21.44a2.8 2.8 0 0 0 2.78 2.78h31.44a2.8 2.8 0 0 0 2.78-2.78v-21.44a2.8 2.8 0 0 0-2.78-2.78Z" class="f"/></g><path d="M126.71 241a3 3 0 0 0 2.12.9c.78 0 1.16-.37 1.16-.75s-.58-.67-1.35-.85c-1.09-.25-2.49-.55-2.49-2 0-1.11 1-2 2.53-2a3.7 3.7 0 0 1 2.6.93l-.79 1a3 3 0 0 0-1.91-.73c-.64 0-1 .28-1 .68s.56.59 1.33.77c1.1.25 2.5.58 2.5 2.06 0 1.22-.87 2.14-2.67 2.14a3.8 3.8 0 0 1-2.83-1.06Zm5.96.12a2.7 2.7 0 0 0 1.84.76c.81 0 1.26-.35 1.26-.86s-.41-.79-1.34-.79h-.83V239h.83c.74 0 1.23-.24 1.23-.74s-.54-.8-1.24-.8a2.4 2.4 0 0 0-1.7.7l-.7-.88a3.3 3.3 0 0 1 2.55-1.06c1.56 0 2.52.7 2.52 1.81a1.64 1.64 0 0 1-1.46 1.52 1.67 1.67 0 0 1 1.56 1.6c0 1.15-1 2-2.63 2a3.3 3.3 0 0 1-2.63-1.07Z" class="j"/><g class="c"><rect width="38" height="27" x="154.5" y="163.5" class="f" rx="3.16"/></g><g class="d"><path d="M189.34 191h-31.68a3.66 3.66 0 0 1-3.66-3.66v-20.68a3.66 3.66 0 0 1 3.66-3.66h31.68a3.66 3.66 0 0 1 3.66 3.66v20.68a3.66 3.66 0 0 1-3.66 3.66m-31.68-27a2.66 2.66 0 0 0-2.66 2.66v20.68a2.66 2.66 0 0 0 2.66 2.66h31.68a2.66 2.66 0 0 0 2.66-2.66v-20.68a2.66 2.66 0 0 0-2.66-2.66Z" class="f"/></g><path d="M168.37 178a3 3 0 0 0 2.12.9c.78 0 1.16-.37 1.16-.75s-.58-.67-1.35-.85c-1.09-.25-2.49-.55-2.49-2 0-1.11 1-2 2.53-2a3.7 3.7 0 0 1 2.6.93l-.79 1a3 3 0 0 0-1.91-.73c-.64 0-1 .28-1 .68s.56.59 1.33.77c1.1.25 2.5.58 2.5 2.06 0 1.22-.87 2.14-2.67 2.14a3.8 3.8 0 0 1-2.83-1.06Zm5.96.12a2.7 2.7 0 0 0 1.84.76c.81 0 1.26-.35 1.26-.86s-.41-.79-1.34-.79h-.83V176h.83c.74 0 1.23-.24 1.23-.74s-.54-.8-1.24-.8a2.4 2.4 0 0 0-1.7.7l-.7-.88a3.3 3.3 0 0 1 2.55-1.06c1.56 0 2.52.7 2.52 1.81a1.64 1.64 0 0 1-1.46 1.52 1.67 1.67 0 0 1 1.56 1.6c0 1.15-1 2-2.63 2a3.3 3.3 0 0 1-2.63-1.07Z" class="j"/><g class="c"><rect width="38" height="27" x="154.5" y="194.5" class="f" rx="3.16"/></g><g class="d"><path d="M189.34 222h-31.68a3.66 3.66 0 0 1-3.66-3.66v-20.68a3.66 3.66 0 0 1 3.66-3.66h31.68a3.66 3.66 0 0 1 3.66 3.66v20.68a3.66 3.66 0 0 1-3.66 3.66m-31.68-27a2.66 2.66 0 0 0-2.66 2.66v20.68a2.66 2.66 0 0 0 2.66 2.66h31.68a2.66 2.66 0 0 0 2.66-2.66v-20.68a2.66 2.66 0 0 0-2.66-2.66Z" class="f"/></g><path d="M168.37 210a3 3 0 0 0 2.12.9c.78 0 1.16-.37 1.16-.75s-.58-.67-1.35-.85c-1.09-.25-2.49-.55-2.49-2 0-1.11 1-2 2.53-2a3.7 3.7 0 0 1 2.6.93l-.79 1a3 3 0 0 0-1.91-.73c-.64 0-1 .28-1 .68s.56.59 1.33.77c1.1.25 2.5.58 2.5 2.06 0 1.22-.87 2.14-2.67 2.14a3.8 3.8 0 0 1-2.83-1.06Zm5.96.12a2.7 2.7 0 0 0 1.84.76c.81 0 1.26-.35 1.26-.86s-.41-.79-1.34-.79h-.83V208h.83c.74 0 1.23-.24 1.23-.74s-.54-.8-1.24-.8a2.4 2.4 0 0 0-1.7.7l-.7-.88a3.3 3.3 0 0 1 2.55-1.06c1.56 0 2.52.7 2.52 1.81a1.64 1.64 0 0 1-1.46 1.52 1.67 1.67 0 0 1 1.56 1.6c0 1.15-1 2-2.63 2a3.3 3.3 0 0 1-2.63-1.07Z" class="j"/><g class="c"><rect width="38" height="28" x="154.5" y="225.5" class="f" rx="3.28"/></g><g class="d"><path d="M189.22 254h-31.44a3.8 3.8 0 0 1-3.78-3.78v-21.44a3.8 3.8 0 0 1 3.78-3.78h31.44a3.8 3.8 0 0 1 3.78 3.78v21.44a3.8 3.8 0 0 1-3.78 3.78m-31.44-28a2.8 2.8 0 0 0-2.78 2.78v21.44a2.8 2.8 0 0 0 2.78 2.78h31.44a2.8 2.8 0 0 0 2.78-2.78v-21.44a2.8 2.8 0 0 0-2.78-2.78Z" class="f"/></g><path d="M168.37 241a3 3 0 0 0 2.12.9c.78 0 1.16-.37 1.16-.75s-.58-.67-1.35-.85c-1.09-.25-2.49-.55-2.49-2 0-1.11 1-2 2.53-2a3.7 3.7 0 0 1 2.6.93l-.79 1a3 3 0 0 0-1.91-.73c-.64 0-1 .28-1 .68s.56.59 1.33.77c1.1.25 2.5.58 2.5 2.06 0 1.22-.87 2.14-2.67 2.14a3.8 3.8 0 0 1-2.83-1.06Zm5.96.12a2.7 2.7 0 0 0 1.84.76c.81 0 1.26-.35 1.26-.86s-.41-.79-1.34-.79h-.83V239h.83c.74 0 1.23-.24 1.23-.74s-.54-.8-1.24-.8a2.4 2.4 0 0 0-1.7.7l-.7-.88a3.3 3.3 0 0 1 2.55-1.06c1.56 0 2.52.7 2.52 1.81a1.64 1.64 0 0 1-1.46 1.52 1.67 1.67 0 0 1 1.56 1.6c0 1.15-1 2-2.63 2a3.3 3.3 0 0 1-2.63-1.07Z" class="j"/><g class="c"><rect width="91" height="143" x="215.5" y="115.5" class="g" rx="5.17"/></g><g class="d"><path d="M301.33 259h-80.66a5.67 5.67 0 0 1-5.67-5.67V120.67a5.67 5.67 0 0 1 5.67-5.67h80.66a5.67 5.67 0 0 1 5.67 5.67v132.66a5.67 5.67 0 0 1-5.67 5.67m-80.66-143a4.7 4.7 0 0 0-4.67 4.67v132.66a4.7 4.7 0 0 0 4.67 4.67h80.66a4.7 4.7 0 0 0 4.67-4.67V120.67a4.7 4.7 0 0 0-4.67-4.67Z" class="g"/></g><path d="M233 137.52V142h-1.42v-6.67H233l3.09 4.32v-4.32h1.42V142h-1.37Zm5.84-2.19h4.72v1.22h-3.3V138h3.23v1.22h-3.23v1.55h3.3V142h-4.72Zm8.55 4.23-1.68 2.44H244l2.42-3.42-2.27-3.25h1.69l1.53 2.28 1.51-2.28h1.71l-2.27 3.24 2.42 3.43h-1.7Zm5.48-2.98h-2v-1.25h5.32v1.25h-1.89V142h-1.43Zm4.02 2.09a3.4 3.4 0 0 1 3.5-3.45 3.1 3.1 0 0 1 2.84 1.63l-1.22.6a1.8 1.8 0 0 0-1.62-1 2.2 2.2 0 0 0 0 4.38 1.8 1.8 0 0 0 1.62-1l1.22.59a3.1 3.1 0 0 1-2.84 1.64 3.4 3.4 0 0 1-3.5-3.39m7.19-3.34h1.42v5.42h2.82V142h-4.24Zm8.41-.11a3.45 3.45 0 1 1-3.48 3.45 3.35 3.35 0 0 1 3.48-3.45m0 1.26a2.2 2.2 0 1 0 2 2.19 2 2 0 0 0-2-2.19m4.51-1.15h1.44v4a1.54 1.54 0 1 0 3.08 0v-4h1.44v4c0 1.66-.95 2.79-3 2.79s-3-1.14-3-2.78Zm7.22 0h2.63a3.34 3.34 0 1 1 0 6.67h-2.63Zm2.63 5.42a2 2 0 0 0 2.09-2.08 2 2 0 0 0-2.09-2.09h-1.21v4.17Z" class="h"/><g class="c"><rect width="38" height="27" x="221.5" y="163.5" class="g" rx="3.16"/></g><g class="d"><path d="M256.34 191h-31.68a3.66 3.66 0 0 1-3.66-3.66v-20.68a3.66 3.66 0 0 1 3.66-3.66h31.68a3.66 3.66 0 0 1 3.66 3.66v20.68a3.66 3.66 0 0 1-3.66 3.66m-31.68-27a2.66 2.66 0 0 0-2.66 2.66v20.68a2.66 2.66 0 0 0 2.66 2.66h31.68a2.66 2.66 0 0 0 2.66-2.66v-20.68a2.66 2.66 0 0 0-2.66-2.66Z" class="g"/></g><path d="M235 178a3 3 0 0 0 2.12.9c.78 0 1.16-.37 1.16-.75s-.58-.67-1.35-.85c-1.09-.25-2.49-.55-2.49-2 0-1.11 1-2 2.53-2a3.7 3.7 0 0 1 2.6.93l-.79 1a3 3 0 0 0-1.91-.73c-.64 0-1 .28-1 .68s.56.59 1.33.77c1.1.25 2.5.58 2.5 2.06 0 1.22-.87 2.14-2.67 2.14a3.8 3.8 0 0 1-2.83-1.06Zm6 .12a2.7 2.7 0 0 0 1.84.76c.81 0 1.26-.35 1.26-.86s-.41-.79-1.34-.79h-.83V176h.83c.74 0 1.23-.24 1.23-.74s-.54-.8-1.24-.8a2.4 2.4 0 0 0-1.7.7l-.7-.88a3.3 3.3 0 0 1 2.55-1.06c1.56 0 2.52.7 2.52 1.81a1.64 1.64 0 0 1-1.46 1.52 1.67 1.67 0 0 1 1.56 1.6c0 1.15-1 2-2.63 2a3.3 3.3 0 0 1-2.63-1.07Z" class="h"/><g class="c"><rect width="38" height="27" x="221.5" y="194.5" class="g" rx="3.16"/></g><g class="d"><path d="M256.34 222h-31.68a3.66 3.66 0 0 1-3.66-3.66v-20.68a3.66 3.66 0 0 1 3.66-3.66h31.68a3.66 3.66 0 0 1 3.66 3.66v20.68a3.66 3.66 0 0 1-3.66 3.66m-31.68-27a2.66 2.66 0 0 0-2.66 2.66v20.68a2.66 2.66 0 0 0 2.66 2.66h31.68a2.66 2.66 0 0 0 2.66-2.66v-20.68a2.66 2.66 0 0 0-2.66-2.66Z" class="g"/></g><path d="M235 210a3 3 0 0 0 2.12.9c.78 0 1.16-.37 1.16-.75s-.58-.67-1.35-.85c-1.09-.25-2.49-.55-2.49-2 0-1.11 1-2 2.53-2a3.7 3.7 0 0 1 2.6.93l-.79 1a3 3 0 0 0-1.91-.73c-.64 0-1 .28-1 .68s.56.59 1.33.77c1.1.25 2.5.58 2.5 2.06 0 1.22-.87 2.14-2.67 2.14a3.8 3.8 0 0 1-2.83-1.06Zm6 .12a2.7 2.7 0 0 0 1.84.76c.81 0 1.26-.35 1.26-.86s-.41-.79-1.34-.79h-.83V208h.83c.74 0 1.23-.24 1.23-.74s-.54-.8-1.24-.8a2.4 2.4 0 0 0-1.7.7l-.7-.88a3.3 3.3 0 0 1 2.55-1.06c1.56 0 2.52.7 2.52 1.81a1.64 1.64 0 0 1-1.46 1.52 1.67 1.67 0 0 1 1.56 1.6c0 1.15-1 2-2.63 2a3.3 3.3 0 0 1-2.63-1.07Z" class="h"/><g class="c"><rect width="38" height="28" x="221.5" y="225.5" class="g" rx="3.28"/></g><g class="d"><path d="M256.22 254h-31.44a3.8 3.8 0 0 1-3.78-3.78v-21.44a3.8 3.8 0 0 1 3.78-3.78h31.44a3.8 3.8 0 0 1 3.78 3.78v21.44a3.8 3.8 0 0 1-3.78 3.78m-31.44-28a2.8 2.8 0 0 0-2.78 2.78v21.44a2.8 2.8 0 0 0 2.78 2.78h31.44a2.8 2.8 0 0 0 2.78-2.78v-21.44a2.8 2.8 0 0 0-2.78-2.78Z" class="g"/></g><path d="M235 241a3 3 0 0 0 2.12.9c.78 0 1.16-.37 1.16-.75s-.58-.67-1.35-.85c-1.09-.25-2.49-.55-2.49-2 0-1.11 1-2 2.53-2a3.7 3.7 0 0 1 2.6.93l-.79 1a3 3 0 0 0-1.91-.73c-.64 0-1 .28-1 .68s.56.59 1.33.77c1.1.25 2.5.58 2.5 2.06 0 1.22-.87 2.14-2.67 2.14a3.8 3.8 0 0 1-2.83-1.06Zm6 .12a2.7 2.7 0 0 0 1.84.76c.81 0 1.26-.35 1.26-.86s-.41-.79-1.34-.79h-.83V239h.83c.74 0 1.23-.24 1.23-.74s-.54-.8-1.24-.8a2.4 2.4 0 0 0-1.7.7l-.7-.88a3.3 3.3 0 0 1 2.55-1.06c1.56 0 2.52.7 2.52 1.81a1.64 1.64 0 0 1-1.46 1.52 1.67 1.67 0 0 1 1.56 1.6c0 1.15-1 2-2.63 2a3.3 3.3 0 0 1-2.63-1.07Z" class="h"/><g class="c"><rect width="38" height="27" x="263.5" y="163.5" class="g" rx="3.16"/></g><g class="d"><path d="M298.34 191h-31.68a3.66 3.66 0 0 1-3.66-3.66v-20.68a3.66 3.66 0 0 1 3.66-3.66h31.68a3.66 3.66 0 0 1 3.66 3.66v20.68a3.66 3.66 0 0 1-3.66 3.66m-31.68-27a2.66 2.66 0 0 0-2.66 2.66v20.68a2.66 2.66 0 0 0 2.66 2.66h31.68a2.66 2.66 0 0 0 2.66-2.66v-20.68a2.66 2.66 0 0 0-2.66-2.66Z" class="g"/></g><path d="M276.67 178a3 3 0 0 0 2.12.9c.78 0 1.16-.37 1.16-.75s-.58-.67-1.35-.85c-1.09-.25-2.49-.55-2.49-2 0-1.11 1-2 2.53-2a3.7 3.7 0 0 1 2.6.93l-.79 1a3 3 0 0 0-1.91-.73c-.64 0-1 .28-1 .68s.56.59 1.33.77c1.1.25 2.5.58 2.5 2.06 0 1.22-.87 2.14-2.67 2.14a3.8 3.8 0 0 1-2.83-1.06Zm5.96.12a2.7 2.7 0 0 0 1.84.76c.81 0 1.26-.35 1.26-.86s-.41-.79-1.34-.79h-.83V176h.83c.74 0 1.23-.24 1.23-.74s-.54-.8-1.24-.8a2.4 2.4 0 0 0-1.7.7l-.7-.88a3.3 3.3 0 0 1 2.55-1.06c1.56 0 2.52.7 2.52 1.81a1.64 1.64 0 0 1-1.46 1.52 1.67 1.67 0 0 1 1.56 1.6c0 1.15-1 2-2.63 2a3.3 3.3 0 0 1-2.63-1.07Z" class="h"/><g class="c"><rect width="38" height="27" x="263.5" y="194.5" class="g" rx="3.16"/></g><g class="d"><path d="M298.34 222h-31.68a3.66 3.66 0 0 1-3.66-3.66v-20.68a3.66 3.66 0 0 1 3.66-3.66h31.68a3.66 3.66 0 0 1 3.66 3.66v20.68a3.66 3.66 0 0 1-3.66 3.66m-31.68-27a2.66 2.66 0 0 0-2.66 2.66v20.68a2.66 2.66 0 0 0 2.66 2.66h31.68a2.66 2.66 0 0 0 2.66-2.66v-20.68a2.66 2.66 0 0 0-2.66-2.66Z" class="g"/></g><path d="M276.67 210a3 3 0 0 0 2.12.9c.78 0 1.16-.37 1.16-.75s-.58-.67-1.35-.85c-1.09-.25-2.49-.55-2.49-2 0-1.11 1-2 2.53-2a3.7 3.7 0 0 1 2.6.93l-.79 1a3 3 0 0 0-1.91-.73c-.64 0-1 .28-1 .68s.56.59 1.33.77c1.1.25 2.5.58 2.5 2.06 0 1.22-.87 2.14-2.67 2.14a3.8 3.8 0 0 1-2.83-1.06Zm5.96.12a2.7 2.7 0 0 0 1.84.76c.81 0 1.26-.35 1.26-.86s-.41-.79-1.34-.79h-.83V208h.83c.74 0 1.23-.24 1.23-.74s-.54-.8-1.24-.8a2.4 2.4 0 0 0-1.7.7l-.7-.88a3.3 3.3 0 0 1 2.55-1.06c1.56 0 2.52.7 2.52 1.81a1.64 1.64 0 0 1-1.46 1.52 1.67 1.67 0 0 1 1.56 1.6c0 1.15-1 2-2.63 2a3.3 3.3 0 0 1-2.63-1.07Z" class="h"/><g class="c"><rect width="38" height="28" x="263.5" y="225.5" class="g" rx="3.28"/></g><g class="d"><path d="M298.22 254h-31.44a3.8 3.8 0 0 1-3.78-3.78v-21.44a3.8 3.8 0 0 1 3.78-3.78h31.44a3.8 3.8 0 0 1 3.78 3.78v21.44a3.8 3.8 0 0 1-3.78 3.78m-31.44-28a2.8 2.8 0 0 0-2.78 2.78v21.44a2.8 2.8 0 0 0 2.78 2.78h31.44a2.8 2.8 0 0 0 2.78-2.78v-21.44a2.8 2.8 0 0 0-2.78-2.78Z" class="g"/></g><path d="M276.67 241a3 3 0 0 0 2.12.9c.78 0 1.16-.37 1.16-.75s-.58-.67-1.35-.85c-1.09-.25-2.49-.55-2.49-2 0-1.11 1-2 2.53-2a3.7 3.7 0 0 1 2.6.93l-.79 1a3 3 0 0 0-1.91-.73c-.64 0-1 .28-1 .68s.56.59 1.33.77c1.1.25 2.5.58 2.5 2.06 0 1.22-.87 2.14-2.67 2.14a3.8 3.8 0 0 1-2.83-1.06Zm5.96.12a2.7 2.7 0 0 0 1.84.76c.81 0 1.26-.35 1.26-.86s-.41-.79-1.34-.79h-.83V239h.83c.74 0 1.23-.24 1.23-.74s-.54-.8-1.24-.8a2.4 2.4 0 0 0-1.7.7l-.7-.88a3.3 3.3 0 0 1 2.55-1.06c1.56 0 2.52.7 2.52 1.81a1.64 1.64 0 0 1-1.46 1.52 1.67 1.67 0 0 1 1.56 1.6c0 1.15-1 2-2.63 2a3.3 3.3 0 0 1-2.63-1.07Z" class="h"/><g class="c"><rect width="91" height="142" x="0.5" y="116.5" class="a" rx="5.17"/></g><g class="d"><path d="M86.33 259H5.67A5.67 5.67 0 0 1 0 253.33V121.67A5.67 5.67 0 0 1 5.67 116h80.66a5.67 5.67 0 0 1 5.67 5.67v131.66a5.67 5.67 0 0 1-5.67 5.67M5.67 117A4.7 4.7 0 0 0 1 121.67v131.66A4.7 4.7 0 0 0 5.67 258h80.66a4.7 4.7 0 0 0 4.67-4.67V121.67a4.7 4.7 0 0 0-4.67-4.67Z" class="a"/></g><path d="M17.47 138.52V143h-1.42v-6.67h1.46l3.09 4.32v-4.32H22V143h-1.35Zm5.84-2.19H28v1.22h-3.3V139H28v1.22h-3.27v1.55H28V143h-4.69Zm8.55 4.23L30.18 143h-1.69l2.42-3.42-2.27-3.25h1.69l1.53 2.28 1.51-2.28h1.71l-2.27 3.24 2.42 3.43h-1.7Zm5.48-2.98h-2v-1.25h5.32v1.25h-1.89V143h-1.43Zm4.02 2.09a3.4 3.4 0 0 1 3.5-3.45 3.1 3.1 0 0 1 2.84 1.63l-1.22.6a1.8 1.8 0 0 0-1.62-1 2.2 2.2 0 0 0 0 4.38 1.8 1.8 0 0 0 1.62-1l1.22.59a3.1 3.1 0 0 1-2.84 1.64 3.4 3.4 0 0 1-3.5-3.39m7.19-3.34H50v5.42h2.82V143h-4.27Zm8.45-.11a3.45 3.45 0 1 1-3.48 3.45 3.35 3.35 0 0 1 3.48-3.45m0 1.26a2.2 2.2 0 1 0 2 2.19 2 2 0 0 0-2-2.19m4.43-1.15h1.44v4a1.54 1.54 0 1 0 3.08 0v-4h1.44v4c0 1.66-1 2.79-3 2.79s-3-1.14-3-2.78Zm7.26 0h2.63a3.34 3.34 0 1 1 0 6.67h-2.63Zm2.63 5.42a2 2 0 0 0 2.09-2.08 2 2 0 0 0-2.09-2.09h-1.21v4.17Z" class="e"/><g class="c"><rect width="39" height="27" x="5.5" y="163.5" class="a" rx="3.16"/></g><g class="d"><path d="M41.34 191H8.66A3.66 3.66 0 0 1 5 187.34v-20.68A3.66 3.66 0 0 1 8.66 163h32.68a3.66 3.66 0 0 1 3.66 3.66v20.68a3.66 3.66 0 0 1-3.66 3.66M8.66 164A2.66 2.66 0 0 0 6 166.66v20.68A2.66 2.66 0 0 0 8.66 190h32.68a2.66 2.66 0 0 0 2.66-2.66v-20.68a2.66 2.66 0 0 0-2.66-2.66Z" class="a"/></g><path d="M19.48 178a3 3 0 0 0 2.12.9c.78 0 1.15-.37 1.15-.75s-.58-.67-1.34-.85c-1.09-.25-2.49-.55-2.49-2 0-1.11 1-2 2.53-2a3.7 3.7 0 0 1 2.59.93l-.79 1a2.8 2.8 0 0 0-1.9-.73c-.64 0-1 .28-1 .68s.56.59 1.33.77c1.09.25 2.49.58 2.49 2.06 0 1.22-.87 2.14-2.66 2.14a3.8 3.8 0 0 1-2.83-1.06Zm5.96.12a2.7 2.7 0 0 0 1.84.76c.8 0 1.26-.35 1.26-.86s-.42-.79-1.34-.79h-.83V176h.83c.74 0 1.22-.24 1.22-.74s-.53-.8-1.23-.8a2.4 2.4 0 0 0-1.7.7l-.7-.88a3.3 3.3 0 0 1 2.55-1.06c1.55 0 2.51.7 2.51 1.81a1.64 1.64 0 0 1-1.45 1.52 1.7 1.7 0 0 1 1.55 1.6c0 1.15-1 2-2.62 2a3.3 3.3 0 0 1-2.63-1.07Z" class="e"/><g class="c"><rect width="39" height="27" x="5.5" y="194.5" class="a" rx="3.16"/></g><g class="d"><path d="M41.34 222H8.66A3.66 3.66 0 0 1 5 218.34v-20.68A3.66 3.66 0 0 1 8.66 194h32.68a3.66 3.66 0 0 1 3.66 3.66v20.68a3.66 3.66 0 0 1-3.66 3.66M8.66 195A2.66 2.66 0 0 0 6 197.66v20.68A2.66 2.66 0 0 0 8.66 221h32.68a2.66 2.66 0 0 0 2.66-2.66v-20.68a2.66 2.66 0 0 0-2.66-2.66Z" class="a"/></g><path d="M19.48 210a3 3 0 0 0 2.12.9c.78 0 1.15-.37 1.15-.75s-.58-.67-1.34-.85c-1.09-.25-2.49-.55-2.49-2 0-1.11 1-2 2.53-2a3.7 3.7 0 0 1 2.59.93l-.79 1a2.8 2.8 0 0 0-1.9-.73c-.64 0-1 .28-1 .68s.56.59 1.33.77c1.09.25 2.49.58 2.49 2.06 0 1.22-.87 2.14-2.66 2.14a3.8 3.8 0 0 1-2.83-1.06Zm5.96.12a2.7 2.7 0 0 0 1.84.76c.8 0 1.26-.35 1.26-.86s-.42-.79-1.34-.79h-.83V208h.83c.74 0 1.22-.24 1.22-.74s-.53-.8-1.23-.8a2.4 2.4 0 0 0-1.7.7l-.7-.88a3.3 3.3 0 0 1 2.55-1.06c1.55 0 2.51.7 2.51 1.81a1.64 1.64 0 0 1-1.45 1.52 1.7 1.7 0 0 1 1.55 1.6c0 1.15-1 2-2.62 2a3.3 3.3 0 0 1-2.63-1.07Z" class="e"/><g class="c"><rect width="39" height="28" x="5.5" y="225.5" class="a" rx="3.28"/></g><g class="d"><path d="M41.22 254H8.78A3.8 3.8 0 0 1 5 250.22v-21.44A3.8 3.8 0 0 1 8.78 225h32.44a3.8 3.8 0 0 1 3.78 3.78v21.44a3.8 3.8 0 0 1-3.78 3.78M8.78 226A2.8 2.8 0 0 0 6 228.78v21.44A2.8 2.8 0 0 0 8.78 253h32.44a2.8 2.8 0 0 0 2.78-2.78v-21.44a2.8 2.8 0 0 0-2.78-2.78Z" class="a"/></g><path d="M19.48 241a3 3 0 0 0 2.12.9c.78 0 1.15-.37 1.15-.75s-.58-.67-1.34-.85c-1.09-.25-2.49-.55-2.49-2 0-1.11 1-2 2.53-2a3.7 3.7 0 0 1 2.59.93l-.79 1a2.8 2.8 0 0 0-1.9-.73c-.64 0-1 .28-1 .68s.56.59 1.33.77c1.09.25 2.49.58 2.49 2.06 0 1.22-.87 2.14-2.66 2.14a3.8 3.8 0 0 1-2.83-1.06Zm5.96.12a2.7 2.7 0 0 0 1.84.76c.8 0 1.26-.35 1.26-.86s-.42-.79-1.34-.79h-.83V239h.83c.74 0 1.22-.24 1.22-.74s-.53-.8-1.23-.8a2.4 2.4 0 0 0-1.7.7l-.7-.88a3.3 3.3 0 0 1 2.55-1.06c1.55 0 2.51.7 2.51 1.81a1.64 1.64 0 0 1-1.45 1.52 1.7 1.7 0 0 1 1.55 1.6c0 1.15-1 2-2.62 2a3.3 3.3 0 0 1-2.63-1.07Z" class="e"/><g class="c"><rect width="38" height="27" x="47.5" y="163.5" class="a" rx="3.16"/></g><g class="d"><path d="M82.34 191H50.66a3.66 3.66 0 0 1-3.66-3.66v-20.68a3.66 3.66 0 0 1 3.66-3.66h31.68a3.66 3.66 0 0 1 3.66 3.66v20.68a3.66 3.66 0 0 1-3.66 3.66m-31.68-27a2.66 2.66 0 0 0-2.66 2.66v20.68a2.66 2.66 0 0 0 2.66 2.66h31.68a2.66 2.66 0 0 0 2.66-2.66v-20.68a2.66 2.66 0 0 0-2.66-2.66Z" class="a"/></g><path d="M61.14 178a3 3 0 0 0 2.12.9c.78 0 1.16-.37 1.16-.75s-.58-.67-1.35-.85c-1.09-.25-2.49-.55-2.49-2 0-1.11 1-2 2.53-2a3.7 3.7 0 0 1 2.6.93l-.79 1a3 3 0 0 0-1.91-.73c-.64 0-1 .28-1 .68s.56.59 1.33.77c1.1.25 2.5.58 2.5 2.06 0 1.22-.87 2.14-2.67 2.14a3.8 3.8 0 0 1-2.83-1.06Zm5.96.12a2.7 2.7 0 0 0 1.84.76c.81 0 1.26-.35 1.26-.86s-.41-.79-1.34-.79H68V176h.83c.74 0 1.23-.24 1.23-.74s-.54-.8-1.24-.8a2.4 2.4 0 0 0-1.7.7l-.7-.88a3.3 3.3 0 0 1 2.58-1.05c1.56 0 2.52.7 2.52 1.81a1.64 1.64 0 0 1-1.46 1.52 1.67 1.67 0 0 1 1.56 1.6c0 1.15-1 2-2.63 2a3.3 3.3 0 0 1-2.63-1.07Z" class="e"/><g class="c"><rect width="38" height="27" x="47.5" y="194.5" class="a" rx="3.16"/></g><g class="d"><path d="M82.34 222H50.66a3.66 3.66 0 0 1-3.66-3.66v-20.68a3.66 3.66 0 0 1 3.66-3.66h31.68a3.66 3.66 0 0 1 3.66 3.66v20.68a3.66 3.66 0 0 1-3.66 3.66m-31.68-27a2.66 2.66 0 0 0-2.66 2.66v20.68a2.66 2.66 0 0 0 2.66 2.66h31.68a2.66 2.66 0 0 0 2.66-2.66v-20.68a2.66 2.66 0 0 0-2.66-2.66Z" class="a"/></g><path d="M61.14 210a3 3 0 0 0 2.12.9c.78 0 1.16-.37 1.16-.75s-.58-.67-1.35-.85c-1.09-.25-2.49-.55-2.49-2 0-1.11 1-2 2.53-2a3.7 3.7 0 0 1 2.6.93l-.79 1a3 3 0 0 0-1.91-.73c-.64 0-1 .28-1 .68s.56.59 1.33.77c1.1.25 2.5.58 2.5 2.06 0 1.22-.87 2.14-2.67 2.14a3.8 3.8 0 0 1-2.83-1.06Zm5.96.12a2.7 2.7 0 0 0 1.84.76c.81 0 1.26-.35 1.26-.86s-.41-.79-1.34-.79H68V208h.83c.74 0 1.23-.24 1.23-.74s-.54-.8-1.24-.8a2.4 2.4 0 0 0-1.7.7l-.7-.88a3.3 3.3 0 0 1 2.58-1.05c1.56 0 2.52.7 2.52 1.81a1.64 1.64 0 0 1-1.46 1.52 1.67 1.67 0 0 1 1.56 1.6c0 1.15-1 2-2.63 2a3.3 3.3 0 0 1-2.63-1.07Z" class="e"/><g class="c"><rect width="38" height="28" x="47.5" y="225.5" class="a" rx="3.28"/></g><g class="d"><path d="M82.22 254H50.78a3.8 3.8 0 0 1-3.78-3.78v-21.44a3.8 3.8 0 0 1 3.78-3.78h31.44a3.8 3.8 0 0 1 3.78 3.78v21.44a3.8 3.8 0 0 1-3.78 3.78m-31.44-28a2.8 2.8 0 0 0-2.78 2.78v21.44a2.8 2.8 0 0 0 2.78 2.78h31.44a2.8 2.8 0 0 0 2.78-2.78v-21.44a2.8 2.8 0 0 0-2.78-2.78Z" class="a"/></g><path d="M61.14 241a3 3 0 0 0 2.12.9c.78 0 1.16-.37 1.16-.75s-.58-.67-1.35-.85c-1.09-.25-2.49-.55-2.49-2 0-1.11 1-2 2.53-2a3.7 3.7 0 0 1 2.6.93l-.79 1a3 3 0 0 0-1.91-.73c-.64 0-1 .28-1 .68s.56.59 1.33.77c1.1.25 2.5.58 2.5 2.06 0 1.22-.87 2.14-2.67 2.14a3.8 3.8 0 0 1-2.83-1.06Zm5.96.12a2.7 2.7 0 0 0 1.84.76c.81 0 1.26-.35 1.26-.86s-.41-.79-1.34-.79H68V239h.83c.74 0 1.23-.24 1.23-.74s-.54-.8-1.24-.8a2.4 2.4 0 0 0-1.7.7l-.7-.88a3.3 3.3 0 0 1 2.58-1.05c1.56 0 2.52.7 2.52 1.81a1.64 1.64 0 0 1-1.46 1.52 1.67 1.67 0 0 1 1.56 1.6c0 1.15-1 2-2.63 2a3.3 3.3 0 0 1-2.63-1.07Z" class="e"/></svg>