<svg xmlns="http://www.w3.org/2000/svg" viewBox="0 0 307 259"><defs><style>.a{fill:#fd7e0d;}.b{fill:#fafefe;}.c{opacity:0.1;}.d{opacity:0.5;}.e{fill:#c65e02;}.f{fill:#1c739d;}.g{fill:#35d140;}.h{fill:#24a02d;}.i{fill:#b3b3b3;}.j{fill:#3b9bcc;}</style></defs><path class="a" d="M77,17A17,17,0,0,1,94,0H210a17,17,0,0,1,0,34H94A17,17,0,0,1,77,17Z"/><path class="b" d="M121.22,19a2.92,2.92,0,0,0,2.12.9c.78,0,1.16-.37,1.16-.75s-.58-.67-1.35-.85c-1.09-.25-2.49-.55-2.49-2,0-1.11,1-2,2.53-2a3.71,3.71,0,0,1,2.6.93l-.79,1a2.85,2.85,0,0,0-1.91-.73c-.64,0-1,.28-1,.68s.56.59,1.33.77c1.1.25,2.5.58,2.5,2.06,0,1.22-.87,2.14-2.67,2.14a3.84,3.84,0,0,1-2.83-1.06Z"/><path class="b" d="M126.9,14.33h1.44v4a1.54,1.54,0,1,0,3.08,0v-4h1.44v4c0,1.66-1,2.79-3,2.79s-3-1.14-3-2.78Z"/><path class="b" d="M135.57,16.52V21h-1.42V14.33h1.46l3.09,4.32V14.33h1.42V21h-1.37Z"/><path class="b" d="M141.41,14.33h4.72v1.22h-3.3V17h3.23v1.22h-3.23v1.55h3.3V21h-4.72Z"/><path class="b" d="M148.82,15.58h-1.95V14.33h5.32v1.25h-1.94V21h-1.43Z"/><path class="b" d="M155.66,14.33h2.63a3.34,3.34,0,1,1,0,6.67h-2.63Zm2.63,5.42a2,2,0,0,0,2.09-2.08,2,2,0,0,0-2.09-2.09h-1.21v4.17Z"/><path class="b" d="M165.25,18.61h-1V21h-1.42V14.33h3.12a2.08,2.08,0,0,1,2.24,2.15,1.91,1.91,0,0,1-1.46,2l1.5,2.54h-1.63Zm.45-3.06h-1.49v1.84h1.49a.92.92,0,1,0,0-1.84Z"/><path class="b" d="M169.17,14.33h1.42V21h-1.42Z"/><path class="b" d="M171.21,14.33h1.62l1.85,5.13,1.84-5.13h1.62L175.57,21h-1.78Z"/><path class="b" d="M178.79,14.33h4.72v1.22h-3.3V17h3.23v1.22h-3.23v1.55h3.3V21h-4.72Z"/><g class="c"><path class="a" d="M.5,74.5a16,16,0,0,1,16-16h59a16,16,0,0,1,16,16h0a16,16,0,0,1-16,16h-59a16,16,0,0,1-16-16Z"/></g><g class="d"><path class="a" d="M75.5,91h-59a16.5,16.5,0,0,1,0-33h59a16.5,16.5,0,0,1,0,33Zm-59-32a15.5,15.5,0,0,0,0,31h59a15.5,15.5,0,0,0,0-31Z"/></g><path class="e" d="M34,71.33h1.44v4a1.54,1.54,0,1,0,3.07,0v-4h1.44v4c0,1.66-.94,2.79-3,2.79S34,77,34,75.34Z"/><path class="e" d="M42.66,73.52V78H41.24V71.33H42.7l3.09,4.32V71.33H47.2V78H45.83Z"/><path class="e" d="M48.5,71.33h1.42V78H48.5Z"/><path class="e" d="M55.13,73.16,54,74.29l-.81-.85,2.1-2.11h1.24V78H55.13Z"/><g class="c"><path class="f" d="M107.5,74.5a16,16,0,0,1,16-16h59a16,16,0,0,1,16,16h0a16,16,0,0,1-16,16h-59a16,16,0,0,1-16-16Z"/></g><g class="d"><path class="f" d="M182.5,91h-59a16.5,16.5,0,0,1,0-33h59a16.5,16.5,0,0,1,0,33Zm-59-32a15.5,15.5,0,0,0,0,31h59a15.5,15.5,0,0,0,0-31Z"/></g><path class="f" d="M140.28,71.33h1.44v4a1.54,1.54,0,1,0,3.08,0v-4h1.44v4c0,1.66-1,2.79-3,2.79s-3-1.14-3-2.78Z"/><path class="f" d="M149,73.52V78h-1.42V71.33H149l3.09,4.32V71.33h1.42V78h-1.37Z"/><path class="f" d="M154.79,71.33h1.42V78h-1.42Z"/><path class="f" d="M159.86,76.88c2.73-2,3.53-2.7,3.53-3.52,0-.58-.53-.87-1.09-.87a2.38,2.38,0,0,0-1.78.77l-.81-.94a3.4,3.4,0,0,1,2.57-1.09c1.42,0,2.55.8,2.55,2.13,0,1.14-.94,2.13-2.73,3.39h2.78V78h-5Z"/><g class="c"><path class="g" d="M215.5,74.5a16,16,0,0,1,16-16h59a16,16,0,0,1,16,16h0a16,16,0,0,1-16,16h-59a16,16,0,0,1-16-16Z"/></g><g class="d"><path class="g" d="M290.5,91h-59a16.5,16.5,0,0,1,0-33h59a16.5,16.5,0,0,1,0,33Zm-59-32a15.5,15.5,0,0,0,0,31h59a15.5,15.5,0,0,0,0-31Z"/></g><path class="h" d="M248.64,71.33h1.44v4a1.54,1.54,0,1,0,3.08,0v-4h1.44v4c0,1.66-.95,2.79-3,2.79s-3-1.14-3-2.78Z"/><path class="h" d="M257.31,73.52V78h-1.42V71.33h1.46l3.09,4.32V71.33h1.42V78h-1.37Z"/><path class="h" d="M263.15,71.33h1.42V78h-1.42Z"/><path class="h" d="M268.69,76.12a2.66,2.66,0,0,0,1.84.76c.81,0,1.26-.35,1.26-.86s-.41-.79-1.34-.79h-.83V74h.83c.74,0,1.23-.24,1.23-.74s-.54-.8-1.24-.8a2.43,2.43,0,0,0-1.7.7l-.7-.88a3.28,3.28,0,0,1,2.55-1.06c1.56,0,2.52.7,2.52,1.81a1.64,1.64,0,0,1-1.46,1.52,1.67,1.67,0,0,1,1.56,1.6c0,1.15-1,2-2.63,2A3.33,3.33,0,0,1,268,77.05Z"/><path class="i" d="M156.87,49.41l-4,8.32-4.26-8.18Zm-3-14.93.27,16.35-2.75.05-.27-16.36Z"/><path class="i" d="M41.38,49.85,45.5,58.1l4.13-8.25ZM77.67,16.12H45.5a1.37,1.37,0,0,0-1.37,1.38V51.23h2.75V17.5L45.5,18.88H77.67Z"/><path class="i" d="M265.63,49.85,261.5,58.1l-4.12-8.25ZM227.5,16.12h34a1.38,1.38,0,0,1,1.38,1.38V51.23h-2.75V17.5l1.37,1.38h-34Z"/><path class="i" d="M49.63,107.58l-4.13,8.25-4.12-8.25ZM46.88,90.5V109H44.13V90.5Z"/><path class="i" d="M156.63,107.38l-4.13,8.25-4.12-8.25ZM153.88,90.5v18.25h-2.75V90.5Z"/><path class="i" d="M265.63,107.18l-4.13,8.25-4.12-8.25ZM262.88,90.5v18h-2.75v-18Z"/><g class="c"><rect class="f" x="107.5" y="116.5" width="91" height="142" rx="5.17"/></g><g class="d"><path class="f" d="M193.33,259H112.67a5.67,5.67,0,0,1-5.67-5.67V121.67a5.67,5.67,0,0,1,5.67-5.67h80.66a5.67,5.67,0,0,1,5.67,5.67V253.33A5.67,5.67,0,0,1,193.33,259ZM112.67,117a4.68,4.68,0,0,0-4.67,4.67V253.33a4.68,4.68,0,0,0,4.67,4.67h80.66a4.68,4.68,0,0,0,4.67-4.67V121.67a4.68,4.68,0,0,0-4.67-4.67Z"/></g><path class="j" d="M124.7,138.52V143h-1.42v-6.67h1.46l3.09,4.32v-4.32h1.42V143h-1.37Z"/><path class="j" d="M130.54,136.33h4.72v1.22H132V139h3.23v1.22H132v1.55h3.3V143h-4.72Z"/><path class="j" d="M139.09,140.56,137.41,143h-1.69l2.42-3.42-2.27-3.25h1.69l1.53,2.28,1.51-2.28h1.71L140,139.57l2.42,3.43h-1.7Z"/><path class="j" d="M144.57,137.58h-1.95v-1.25h5.32v1.25H146V143h-1.43Z"/><path class="j" d="M148.59,139.67a3.38,3.38,0,0,1,3.5-3.45,3.08,3.08,0,0,1,2.84,1.63l-1.22.6a1.83,1.83,0,0,0-1.62-1,2.2,2.2,0,0,0,0,4.38,1.81,1.81,0,0,0,1.62-1l1.22.59a3.1,3.1,0,0,1-2.84,1.64A3.38,3.38,0,0,1,148.59,139.67Z"/><path class="j" d="M155.78,136.33h1.42v5.42H160V143h-4.24Z"/><path class="j" d="M164.19,136.22a3.45,3.45,0,1,1-3.48,3.45A3.35,3.35,0,0,1,164.19,136.22Zm0,1.26a2.2,2.2,0,1,0,2,2.19A2,2,0,0,0,164.19,137.48Z"/><path class="j" d="M168.66,136.33h1.44v4a1.54,1.54,0,1,0,3.08,0v-4h1.44v4c0,1.66-1,2.79-3,2.79s-3-1.14-3-2.78Z"/><path class="j" d="M175.92,136.33h2.63a3.34,3.34,0,1,1,0,6.67h-2.63Zm2.63,5.42a2,2,0,0,0,2.09-2.08,2,2,0,0,0-2.09-2.09h-1.21v4.17Z"/><g class="c"><rect class="f" x="113.5" y="163.5" width="38" height="27" rx="3.16"/></g><g class="d"><path class="f" d="M148.34,191H116.66a3.66,3.66,0,0,1-3.66-3.66V166.66a3.66,3.66,0,0,1,3.66-3.66h31.68a3.66,3.66,0,0,1,3.66,3.66v20.68A3.66,3.66,0,0,1,148.34,191Zm-31.68-27a2.66,2.66,0,0,0-2.66,2.66v20.68a2.66,2.66,0,0,0,2.66,2.66h31.68a2.66,2.66,0,0,0,2.66-2.66V166.66a2.66,2.66,0,0,0-2.66-2.66Z"/></g><path class="j" d="M126.71,178a2.92,2.92,0,0,0,2.12.9c.78,0,1.16-.37,1.16-.75s-.58-.67-1.35-.85c-1.09-.25-2.49-.55-2.49-2,0-1.11,1-2,2.53-2a3.71,3.71,0,0,1,2.6.93l-.79,1a2.85,2.85,0,0,0-1.91-.73c-.64,0-1,.28-1,.68s.56.59,1.33.77c1.1.25,2.5.58,2.5,2.06,0,1.22-.87,2.14-2.67,2.14a3.84,3.84,0,0,1-2.83-1.06Z"/><path class="j" d="M132.67,178.12a2.66,2.66,0,0,0,1.84.76c.81,0,1.26-.35,1.26-.86s-.41-.79-1.34-.79h-.83V176h.83c.74,0,1.23-.24,1.23-.74s-.54-.8-1.24-.8a2.43,2.43,0,0,0-1.7.7l-.7-.88a3.28,3.28,0,0,1,2.55-1.06c1.56,0,2.52.7,2.52,1.81a1.64,1.64,0,0,1-1.46,1.52,1.67,1.67,0,0,1,1.56,1.6c0,1.15-1,2-2.63,2a3.33,3.33,0,0,1-2.63-1.07Z"/><g class="c"><rect class="f" x="113.5" y="194.5" width="38" height="27" rx="3.16"/></g><g class="d"><path class="f" d="M148.34,222H116.66a3.66,3.66,0,0,1-3.66-3.66V197.66a3.66,3.66,0,0,1,3.66-3.66h31.68a3.66,3.66,0,0,1,3.66,3.66v20.68A3.66,3.66,0,0,1,148.34,222Zm-31.68-27a2.66,2.66,0,0,0-2.66,2.66v20.68a2.66,2.66,0,0,0,2.66,2.66h31.68a2.66,2.66,0,0,0,2.66-2.66V197.66a2.66,2.66,0,0,0-2.66-2.66Z"/></g><path class="j" d="M126.71,210a2.92,2.92,0,0,0,2.12.9c.78,0,1.16-.37,1.16-.75s-.58-.67-1.35-.85c-1.09-.25-2.49-.55-2.49-2,0-1.11,1-2,2.53-2a3.71,3.71,0,0,1,2.6.93l-.79,1a2.85,2.85,0,0,0-1.91-.73c-.64,0-1,.28-1,.68s.56.59,1.33.77c1.1.25,2.5.58,2.5,2.06,0,1.22-.87,2.14-2.67,2.14a3.84,3.84,0,0,1-2.83-1.06Z"/><path class="j" d="M132.67,210.12a2.66,2.66,0,0,0,1.84.76c.81,0,1.26-.35,1.26-.86s-.41-.79-1.34-.79h-.83V208h.83c.74,0,1.23-.24,1.23-.74s-.54-.8-1.24-.8a2.43,2.43,0,0,0-1.7.7l-.7-.88a3.28,3.28,0,0,1,2.55-1.06c1.56,0,2.52.7,2.52,1.81a1.64,1.64,0,0,1-1.46,1.52,1.67,1.67,0,0,1,1.56,1.6c0,1.15-1,2-2.63,2a3.33,3.33,0,0,1-2.63-1.07Z"/><g class="c"><rect class="f" x="113.5" y="225.5" width="38" height="28" rx="3.28"/></g><g class="d"><path class="f" d="M148.22,254H116.78a3.79,3.79,0,0,1-3.78-3.78V228.78a3.79,3.79,0,0,1,3.78-3.78h31.44a3.79,3.79,0,0,1,3.78,3.78v21.44A3.79,3.79,0,0,1,148.22,254Zm-31.44-28a2.79,2.79,0,0,0-2.78,2.78v21.44a2.79,2.79,0,0,0,2.78,2.78h31.44a2.79,2.79,0,0,0,2.78-2.78V228.78a2.79,2.79,0,0,0-2.78-2.78Z"/></g><path class="j" d="M126.71,241a2.92,2.92,0,0,0,2.12.9c.78,0,1.16-.37,1.16-.75s-.58-.67-1.35-.85c-1.09-.25-2.49-.55-2.49-2,0-1.11,1-2,2.53-2a3.71,3.71,0,0,1,2.6.93l-.79,1a2.85,2.85,0,0,0-1.91-.73c-.64,0-1,.28-1,.68s.56.59,1.33.77c1.1.25,2.5.58,2.5,2.06,0,1.22-.87,2.14-2.67,2.14a3.84,3.84,0,0,1-2.83-1.06Z"/><path class="j" d="M132.67,241.12a2.66,2.66,0,0,0,1.84.76c.81,0,1.26-.35,1.26-.86s-.41-.79-1.34-.79h-.83V239h.83c.74,0,1.23-.24,1.23-.74s-.54-.8-1.24-.8a2.43,2.43,0,0,0-1.7.7l-.7-.88a3.28,3.28,0,0,1,2.55-1.06c1.56,0,2.52.7,2.52,1.81a1.64,1.64,0,0,1-1.46,1.52,1.67,1.67,0,0,1,1.56,1.6c0,1.15-1,2-2.63,2a3.33,3.33,0,0,1-2.63-1.07Z"/><g class="c"><rect class="f" x="154.5" y="163.5" width="38" height="27" rx="3.16"/></g><g class="d"><path class="f" d="M189.34,191H157.66a3.66,3.66,0,0,1-3.66-3.66V166.66a3.66,3.66,0,0,1,3.66-3.66h31.68a3.66,3.66,0,0,1,3.66,3.66v20.68A3.66,3.66,0,0,1,189.34,191Zm-31.68-27a2.66,2.66,0,0,0-2.66,2.66v20.68a2.66,2.66,0,0,0,2.66,2.66h31.68a2.66,2.66,0,0,0,2.66-2.66V166.66a2.66,2.66,0,0,0-2.66-2.66Z"/></g><path class="j" d="M168.37,178a2.92,2.92,0,0,0,2.12.9c.78,0,1.16-.37,1.16-.75s-.58-.67-1.35-.85c-1.09-.25-2.49-.55-2.49-2,0-1.11,1-2,2.53-2a3.71,3.71,0,0,1,2.6.93l-.79,1a2.85,2.85,0,0,0-1.91-.73c-.64,0-1,.28-1,.68s.56.59,1.33.77c1.1.25,2.5.58,2.5,2.06,0,1.22-.87,2.14-2.67,2.14a3.84,3.84,0,0,1-2.83-1.06Z"/><path class="j" d="M174.33,178.12a2.66,2.66,0,0,0,1.84.76c.81,0,1.26-.35,1.26-.86s-.41-.79-1.34-.79h-.83V176h.83c.74,0,1.23-.24,1.23-.74s-.54-.8-1.24-.8a2.43,2.43,0,0,0-1.7.7l-.7-.88a3.28,3.28,0,0,1,2.55-1.06c1.56,0,2.52.7,2.52,1.81a1.64,1.64,0,0,1-1.46,1.52,1.67,1.67,0,0,1,1.56,1.6c0,1.15-1,2-2.63,2a3.33,3.33,0,0,1-2.63-1.07Z"/><g class="c"><rect class="f" x="154.5" y="194.5" width="38" height="27" rx="3.16"/></g><g class="d"><path class="f" d="M189.34,222H157.66a3.66,3.66,0,0,1-3.66-3.66V197.66a3.66,3.66,0,0,1,3.66-3.66h31.68a3.66,3.66,0,0,1,3.66,3.66v20.68A3.66,3.66,0,0,1,189.34,222Zm-31.68-27a2.66,2.66,0,0,0-2.66,2.66v20.68a2.66,2.66,0,0,0,2.66,2.66h31.68a2.66,2.66,0,0,0,2.66-2.66V197.66a2.66,2.66,0,0,0-2.66-2.66Z"/></g><path class="j" d="M168.37,210a2.92,2.92,0,0,0,2.12.9c.78,0,1.16-.37,1.16-.75s-.58-.67-1.35-.85c-1.09-.25-2.49-.55-2.49-2,0-1.11,1-2,2.53-2a3.71,3.71,0,0,1,2.6.93l-.79,1a2.85,2.85,0,0,0-1.91-.73c-.64,0-1,.28-1,.68s.56.59,1.33.77c1.1.25,2.5.58,2.5,2.06,0,1.22-.87,2.14-2.67,2.14a3.84,3.84,0,0,1-2.83-1.06Z"/><path class="j" d="M174.33,210.12a2.66,2.66,0,0,0,1.84.76c.81,0,1.26-.35,1.26-.86s-.41-.79-1.34-.79h-.83V208h.83c.74,0,1.23-.24,1.23-.74s-.54-.8-1.24-.8a2.43,2.43,0,0,0-1.7.7l-.7-.88a3.28,3.28,0,0,1,2.55-1.06c1.56,0,2.52.7,2.52,1.81a1.64,1.64,0,0,1-1.46,1.52,1.67,1.67,0,0,1,1.56,1.6c0,1.15-1,2-2.63,2a3.33,3.33,0,0,1-2.63-1.07Z"/><g class="c"><rect class="f" x="154.5" y="225.5" width="38" height="28" rx="3.28"/></g><g class="d"><path class="f" d="M189.22,254H157.78a3.79,3.79,0,0,1-3.78-3.78V228.78a3.79,3.79,0,0,1,3.78-3.78h31.44a3.79,3.79,0,0,1,3.78,3.78v21.44A3.79,3.79,0,0,1,189.22,254Zm-31.44-28a2.79,2.79,0,0,0-2.78,2.78v21.44a2.79,2.79,0,0,0,2.78,2.78h31.44a2.79,2.79,0,0,0,2.78-2.78V228.78a2.79,2.79,0,0,0-2.78-2.78Z"/></g><path class="j" d="M168.37,241a2.92,2.92,0,0,0,2.12.9c.78,0,1.16-.37,1.16-.75s-.58-.67-1.35-.85c-1.09-.25-2.49-.55-2.49-2,0-1.11,1-2,2.53-2a3.71,3.71,0,0,1,2.6.93l-.79,1a2.85,2.85,0,0,0-1.91-.73c-.64,0-1,.28-1,.68s.56.59,1.33.77c1.1.25,2.5.58,2.5,2.06,0,1.22-.87,2.14-2.67,2.14a3.84,3.84,0,0,1-2.83-1.06Z"/><path class="j" d="M174.33,241.12a2.66,2.66,0,0,0,1.84.76c.81,0,1.26-.35,1.26-.86s-.41-.79-1.34-.79h-.83V239h.83c.74,0,1.23-.24,1.23-.74s-.54-.8-1.24-.8a2.43,2.43,0,0,0-1.7.7l-.7-.88a3.28,3.28,0,0,1,2.55-1.06c1.56,0,2.52.7,2.52,1.81a1.64,1.64,0,0,1-1.46,1.52,1.67,1.67,0,0,1,1.56,1.6c0,1.15-1,2-2.63,2a3.33,3.33,0,0,1-2.63-1.07Z"/><g class="c"><rect class="g" x="215.5" y="115.5" width="91" height="143" rx="5.17"/></g><g class="d"><path class="g" d="M301.33,259H220.67a5.67,5.67,0,0,1-5.67-5.67V120.67a5.67,5.67,0,0,1,5.67-5.67h80.66a5.67,5.67,0,0,1,5.67,5.67V253.33A5.67,5.67,0,0,1,301.33,259ZM220.67,116a4.68,4.68,0,0,0-4.67,4.67V253.33a4.68,4.68,0,0,0,4.67,4.67h80.66a4.68,4.68,0,0,0,4.67-4.67V120.67a4.68,4.68,0,0,0-4.67-4.67Z"/></g><path class="h" d="M233,137.52V142h-1.42v-6.67H233l3.09,4.32v-4.32h1.42V142h-1.37Z"/><path class="h" d="M238.84,135.33h4.72v1.22h-3.3V138h3.23v1.22h-3.23v1.55h3.3V142h-4.72Z"/><path class="h" d="M247.39,139.56,245.71,142H244l2.42-3.42-2.27-3.25h1.69l1.53,2.28,1.51-2.28h1.71l-2.27,3.24,2.42,3.43h-1.7Z"/><path class="h" d="M252.87,136.58h-2v-1.25h5.32v1.25H254.3V142h-1.43Z"/><path class="h" d="M256.89,138.67a3.38,3.38,0,0,1,3.5-3.45,3.08,3.08,0,0,1,2.84,1.63l-1.22.6a1.83,1.83,0,0,0-1.62-1,2.2,2.2,0,0,0,0,4.38,1.81,1.81,0,0,0,1.62-1l1.22.59a3.1,3.1,0,0,1-2.84,1.64A3.38,3.38,0,0,1,256.89,138.67Z"/><path class="h" d="M264.08,135.33h1.42v5.42h2.82V142h-4.24Z"/><path class="h" d="M272.49,135.22a3.45,3.45,0,1,1-3.48,3.45A3.35,3.35,0,0,1,272.49,135.22Zm0,1.26a2.2,2.2,0,1,0,2,2.19A2,2,0,0,0,272.49,136.48Z"/><path class="h" d="M277,135.33h1.44v4a1.54,1.54,0,1,0,3.08,0v-4h1.44v4c0,1.66-.95,2.79-3,2.79s-3-1.14-3-2.78Z"/><path class="h" d="M284.22,135.33h2.63a3.34,3.34,0,1,1,0,6.67h-2.63Zm2.63,5.42a2,2,0,0,0,2.09-2.08,2,2,0,0,0-2.09-2.09h-1.21v4.17Z"/><g class="c"><rect class="g" x="221.5" y="163.5" width="38" height="27" rx="3.16"/></g><g class="d"><path class="g" d="M256.34,191H224.66a3.66,3.66,0,0,1-3.66-3.66V166.66a3.66,3.66,0,0,1,3.66-3.66h31.68a3.66,3.66,0,0,1,3.66,3.66v20.68A3.66,3.66,0,0,1,256.34,191Zm-31.68-27a2.66,2.66,0,0,0-2.66,2.66v20.68a2.66,2.66,0,0,0,2.66,2.66h31.68a2.66,2.66,0,0,0,2.66-2.66V166.66a2.66,2.66,0,0,0-2.66-2.66Z"/></g><path class="h" d="M235,178a2.92,2.92,0,0,0,2.12.9c.78,0,1.16-.37,1.16-.75s-.58-.67-1.35-.85c-1.09-.25-2.49-.55-2.49-2,0-1.11,1-2,2.53-2a3.71,3.71,0,0,1,2.6.93l-.79,1a2.85,2.85,0,0,0-1.91-.73c-.64,0-1,.28-1,.68s.56.59,1.33.77c1.1.25,2.5.58,2.5,2.06,0,1.22-.87,2.14-2.67,2.14a3.84,3.84,0,0,1-2.83-1.06Z"/><path class="h" d="M241,178.12a2.66,2.66,0,0,0,1.84.76c.81,0,1.26-.35,1.26-.86s-.41-.79-1.34-.79h-.83V176h.83c.74,0,1.23-.24,1.23-.74s-.54-.8-1.24-.8a2.43,2.43,0,0,0-1.7.7l-.7-.88a3.28,3.28,0,0,1,2.55-1.06c1.56,0,2.52.7,2.52,1.81a1.64,1.64,0,0,1-1.46,1.52,1.67,1.67,0,0,1,1.56,1.6c0,1.15-1,2-2.63,2a3.33,3.33,0,0,1-2.63-1.07Z"/><g class="c"><rect class="g" x="221.5" y="194.5" width="38" height="27" rx="3.16"/></g><g class="d"><path class="g" d="M256.34,222H224.66a3.66,3.66,0,0,1-3.66-3.66V197.66a3.66,3.66,0,0,1,3.66-3.66h31.68a3.66,3.66,0,0,1,3.66,3.66v20.68A3.66,3.66,0,0,1,256.34,222Zm-31.68-27a2.66,2.66,0,0,0-2.66,2.66v20.68a2.66,2.66,0,0,0,2.66,2.66h31.68a2.66,2.66,0,0,0,2.66-2.66V197.66a2.66,2.66,0,0,0-2.66-2.66Z"/></g><path class="h" d="M235,210a2.92,2.92,0,0,0,2.12.9c.78,0,1.16-.37,1.16-.75s-.58-.67-1.35-.85c-1.09-.25-2.49-.55-2.49-2,0-1.11,1-2,2.53-2a3.71,3.71,0,0,1,2.6.93l-.79,1a2.85,2.85,0,0,0-1.91-.73c-.64,0-1,.28-1,.68s.56.59,1.33.77c1.1.25,2.5.58,2.5,2.06,0,1.22-.87,2.14-2.67,2.14a3.84,3.84,0,0,1-2.83-1.06Z"/><path class="h" d="M241,210.12a2.66,2.66,0,0,0,1.84.76c.81,0,1.26-.35,1.26-.86s-.41-.79-1.34-.79h-.83V208h.83c.74,0,1.23-.24,1.23-.74s-.54-.8-1.24-.8a2.43,2.43,0,0,0-1.7.7l-.7-.88a3.28,3.28,0,0,1,2.55-1.06c1.56,0,2.52.7,2.52,1.81a1.64,1.64,0,0,1-1.46,1.52,1.67,1.67,0,0,1,1.56,1.6c0,1.15-1,2-2.63,2a3.33,3.33,0,0,1-2.63-1.07Z"/><g class="c"><rect class="g" x="221.5" y="225.5" width="38" height="28" rx="3.28"/></g><g class="d"><path class="g" d="M256.22,254H224.78a3.79,3.79,0,0,1-3.78-3.78V228.78a3.79,3.79,0,0,1,3.78-3.78h31.44a3.79,3.79,0,0,1,3.78,3.78v21.44A3.79,3.79,0,0,1,256.22,254Zm-31.44-28a2.79,2.79,0,0,0-2.78,2.78v21.44a2.79,2.79,0,0,0,2.78,2.78h31.44a2.79,2.79,0,0,0,2.78-2.78V228.78a2.79,2.79,0,0,0-2.78-2.78Z"/></g><path class="h" d="M235,241a2.92,2.92,0,0,0,2.12.9c.78,0,1.16-.37,1.16-.75s-.58-.67-1.35-.85c-1.09-.25-2.49-.55-2.49-2,0-1.11,1-2,2.53-2a3.71,3.71,0,0,1,2.6.93l-.79,1a2.85,2.85,0,0,0-1.91-.73c-.64,0-1,.28-1,.68s.56.59,1.33.77c1.1.25,2.5.58,2.5,2.06,0,1.22-.87,2.14-2.67,2.14a3.84,3.84,0,0,1-2.83-1.06Z"/><path class="h" d="M241,241.12a2.66,2.66,0,0,0,1.84.76c.81,0,1.26-.35,1.26-.86s-.41-.79-1.34-.79h-.83V239h.83c.74,0,1.23-.24,1.23-.74s-.54-.8-1.24-.8a2.43,2.43,0,0,0-1.7.7l-.7-.88a3.28,3.28,0,0,1,2.55-1.06c1.56,0,2.52.7,2.52,1.81a1.64,1.64,0,0,1-1.46,1.52,1.67,1.67,0,0,1,1.56,1.6c0,1.15-1,2-2.63,2a3.33,3.33,0,0,1-2.63-1.07Z"/><g class="c"><rect class="g" x="263.5" y="163.5" width="38" height="27" rx="3.16"/></g><g class="d"><path class="g" d="M298.34,191H266.66a3.66,3.66,0,0,1-3.66-3.66V166.66a3.66,3.66,0,0,1,3.66-3.66h31.68a3.66,3.66,0,0,1,3.66,3.66v20.68A3.66,3.66,0,0,1,298.34,191Zm-31.68-27a2.66,2.66,0,0,0-2.66,2.66v20.68a2.66,2.66,0,0,0,2.66,2.66h31.68a2.66,2.66,0,0,0,2.66-2.66V166.66a2.66,2.66,0,0,0-2.66-2.66Z"/></g><path class="h" d="M276.67,178a2.92,2.92,0,0,0,2.12.9c.78,0,1.16-.37,1.16-.75s-.58-.67-1.35-.85c-1.09-.25-2.49-.55-2.49-2,0-1.11,1-2,2.53-2a3.71,3.71,0,0,1,2.6.93l-.79,1a2.85,2.85,0,0,0-1.91-.73c-.64,0-1,.28-1,.68s.56.59,1.33.77c1.1.25,2.5.58,2.5,2.06,0,1.22-.87,2.14-2.67,2.14a3.84,3.84,0,0,1-2.83-1.06Z"/><path class="h" d="M282.63,178.12a2.66,2.66,0,0,0,1.84.76c.81,0,1.26-.35,1.26-.86s-.41-.79-1.34-.79h-.83V176h.83c.74,0,1.23-.24,1.23-.74s-.54-.8-1.24-.8a2.43,2.43,0,0,0-1.7.7l-.7-.88a3.28,3.28,0,0,1,2.55-1.06c1.56,0,2.52.7,2.52,1.81a1.64,1.64,0,0,1-1.46,1.52,1.67,1.67,0,0,1,1.56,1.6c0,1.15-1,2-2.63,2a3.33,3.33,0,0,1-2.63-1.07Z"/><g class="c"><rect class="g" x="263.5" y="194.5" width="38" height="27" rx="3.16"/></g><g class="d"><path class="g" d="M298.34,222H266.66a3.66,3.66,0,0,1-3.66-3.66V197.66a3.66,3.66,0,0,1,3.66-3.66h31.68a3.66,3.66,0,0,1,3.66,3.66v20.68A3.66,3.66,0,0,1,298.34,222Zm-31.68-27a2.66,2.66,0,0,0-2.66,2.66v20.68a2.66,2.66,0,0,0,2.66,2.66h31.68a2.66,2.66,0,0,0,2.66-2.66V197.66a2.66,2.66,0,0,0-2.66-2.66Z"/></g><path class="h" d="M276.67,210a2.92,2.92,0,0,0,2.12.9c.78,0,1.16-.37,1.16-.75s-.58-.67-1.35-.85c-1.09-.25-2.49-.55-2.49-2,0-1.11,1-2,2.53-2a3.71,3.71,0,0,1,2.6.93l-.79,1a2.85,2.85,0,0,0-1.91-.73c-.64,0-1,.28-1,.68s.56.59,1.33.77c1.1.25,2.5.58,2.5,2.06,0,1.22-.87,2.14-2.67,2.14a3.84,3.84,0,0,1-2.83-1.06Z"/><path class="h" d="M282.63,210.12a2.66,2.66,0,0,0,1.84.76c.81,0,1.26-.35,1.26-.86s-.41-.79-1.34-.79h-.83V208h.83c.74,0,1.23-.24,1.23-.74s-.54-.8-1.24-.8a2.43,2.43,0,0,0-1.7.7l-.7-.88a3.28,3.28,0,0,1,2.55-1.06c1.56,0,2.52.7,2.52,1.81a1.64,1.64,0,0,1-1.46,1.52,1.67,1.67,0,0,1,1.56,1.6c0,1.15-1,2-2.63,2a3.33,3.33,0,0,1-2.63-1.07Z"/><g class="c"><rect class="g" x="263.5" y="225.5" width="38" height="28" rx="3.28"/></g><g class="d"><path class="g" d="M298.22,254H266.78a3.79,3.79,0,0,1-3.78-3.78V228.78a3.79,3.79,0,0,1,3.78-3.78h31.44a3.79,3.79,0,0,1,3.78,3.78v21.44A3.79,3.79,0,0,1,298.22,254Zm-31.44-28a2.79,2.79,0,0,0-2.78,2.78v21.44a2.79,2.79,0,0,0,2.78,2.78h31.44a2.79,2.79,0,0,0,2.78-2.78V228.78a2.79,2.79,0,0,0-2.78-2.78Z"/></g><path class="h" d="M276.67,241a2.92,2.92,0,0,0,2.12.9c.78,0,1.16-.37,1.16-.75s-.58-.67-1.35-.85c-1.09-.25-2.49-.55-2.49-2,0-1.11,1-2,2.53-2a3.71,3.71,0,0,1,2.6.93l-.79,1a2.85,2.85,0,0,0-1.91-.73c-.64,0-1,.28-1,.68s.56.59,1.33.77c1.1.25,2.5.58,2.5,2.06,0,1.22-.87,2.14-2.67,2.14a3.84,3.84,0,0,1-2.83-1.06Z"/><path class="h" d="M282.63,241.12a2.66,2.66,0,0,0,1.84.76c.81,0,1.26-.35,1.26-.86s-.41-.79-1.34-.79h-.83V239h.83c.74,0,1.23-.24,1.23-.74s-.54-.8-1.24-.8a2.43,2.43,0,0,0-1.7.7l-.7-.88a3.28,3.28,0,0,1,2.55-1.06c1.56,0,2.52.7,2.52,1.81a1.64,1.64,0,0,1-1.46,1.52,1.67,1.67,0,0,1,1.56,1.6c0,1.15-1,2-2.63,2a3.33,3.33,0,0,1-2.63-1.07Z"/><g class="c"><rect class="a" x="0.5" y="116.5" width="91" height="142" rx="5.17"/></g><g class="d"><path class="a" d="M86.33,259H5.67A5.67,5.67,0,0,1,0,253.33V121.67A5.67,5.67,0,0,1,5.67,116H86.33A5.67,5.67,0,0,1,92,121.67V253.33A5.67,5.67,0,0,1,86.33,259ZM5.67,117A4.68,4.68,0,0,0,1,121.67V253.33A4.68,4.68,0,0,0,5.67,258H86.33A4.68,4.68,0,0,0,91,253.33V121.67A4.68,4.68,0,0,0,86.33,117Z"/></g><path class="e" d="M17.47,138.52V143H16.05v-6.67h1.46l3.09,4.32v-4.32H22V143H20.65Z"/><path class="e" d="M23.31,136.33H28v1.22h-3.3V139H28v1.22H24.73v1.55H28V143H23.31Z"/><path class="e" d="M31.86,140.56,30.18,143H28.49l2.42-3.42-2.27-3.25h1.69l1.53,2.28,1.51-2.28h1.71l-2.27,3.24L35.23,143h-1.7Z"/><path class="e" d="M37.34,137.58h-2v-1.25h5.32v1.25H38.77V143H37.34Z"/><path class="e" d="M41.36,139.67a3.38,3.38,0,0,1,3.5-3.45,3.08,3.08,0,0,1,2.84,1.63l-1.22.6a1.83,1.83,0,0,0-1.62-1,2.2,2.2,0,0,0,0,4.38,1.81,1.81,0,0,0,1.62-1l1.22.59a3.1,3.1,0,0,1-2.84,1.64A3.38,3.38,0,0,1,41.36,139.67Z"/><path class="e" d="M48.55,136.33H50v5.42h2.82V143H48.55Z"/><path class="e" d="M57,136.22a3.45,3.45,0,1,1-3.48,3.45A3.35,3.35,0,0,1,57,136.22Zm0,1.26a2.2,2.2,0,1,0,2,2.19A2,2,0,0,0,57,137.48Z"/><path class="e" d="M61.43,136.33h1.44v4a1.54,1.54,0,1,0,3.08,0v-4h1.44v4c0,1.66-1,2.79-3,2.79s-3-1.14-3-2.78Z"/><path class="e" d="M68.69,136.33h2.63a3.34,3.34,0,1,1,0,6.67H68.69Zm2.63,5.42a2,2,0,0,0,2.09-2.08,2,2,0,0,0-2.09-2.09H70.11v4.17Z"/><g class="c"><rect class="a" x="5.5" y="163.5" width="39" height="27" rx="3.16"/></g><g class="d"><path class="a" d="M41.34,191H8.66A3.66,3.66,0,0,1,5,187.34V166.66A3.66,3.66,0,0,1,8.66,163H41.34A3.66,3.66,0,0,1,45,166.66v20.68A3.66,3.66,0,0,1,41.34,191ZM8.66,164A2.66,2.66,0,0,0,6,166.66v20.68A2.66,2.66,0,0,0,8.66,190H41.34A2.66,2.66,0,0,0,44,187.34V166.66A2.66,2.66,0,0,0,41.34,164Z"/></g><path class="e" d="M19.48,178a2.92,2.92,0,0,0,2.12.9c.78,0,1.15-.37,1.15-.75s-.58-.67-1.34-.85c-1.09-.25-2.49-.55-2.49-2,0-1.11,1-2,2.53-2a3.7,3.7,0,0,1,2.59.93l-.79,1a2.82,2.82,0,0,0-1.9-.73c-.64,0-1,.28-1,.68s.56.59,1.33.77c1.09.25,2.49.58,2.49,2.06,0,1.22-.87,2.14-2.66,2.14a3.84,3.84,0,0,1-2.83-1.06Z"/><path class="e" d="M25.44,178.12a2.66,2.66,0,0,0,1.84.76c.8,0,1.26-.35,1.26-.86s-.42-.79-1.34-.79h-.83V176h.83c.74,0,1.22-.24,1.22-.74s-.53-.8-1.23-.8a2.43,2.43,0,0,0-1.7.7l-.7-.88a3.28,3.28,0,0,1,2.55-1.06c1.55,0,2.51.7,2.51,1.81a1.64,1.64,0,0,1-1.45,1.52,1.67,1.67,0,0,1,1.55,1.6c0,1.15-1,2-2.62,2a3.33,3.33,0,0,1-2.63-1.07Z"/><g class="c"><rect class="a" x="5.5" y="194.5" width="39" height="27" rx="3.16"/></g><g class="d"><path class="a" d="M41.34,222H8.66A3.66,3.66,0,0,1,5,218.34V197.66A3.66,3.66,0,0,1,8.66,194H41.34A3.66,3.66,0,0,1,45,197.66v20.68A3.66,3.66,0,0,1,41.34,222ZM8.66,195A2.66,2.66,0,0,0,6,197.66v20.68A2.66,2.66,0,0,0,8.66,221H41.34A2.66,2.66,0,0,0,44,218.34V197.66A2.66,2.66,0,0,0,41.34,195Z"/></g><path class="e" d="M19.48,210a2.92,2.92,0,0,0,2.12.9c.78,0,1.15-.37,1.15-.75s-.58-.67-1.34-.85c-1.09-.25-2.49-.55-2.49-2,0-1.11,1-2,2.53-2a3.7,3.7,0,0,1,2.59.93l-.79,1a2.82,2.82,0,0,0-1.9-.73c-.64,0-1,.28-1,.68s.56.59,1.33.77c1.09.25,2.49.58,2.49,2.06,0,1.22-.87,2.14-2.66,2.14a3.84,3.84,0,0,1-2.83-1.06Z"/><path class="e" d="M25.44,210.12a2.66,2.66,0,0,0,1.84.76c.8,0,1.26-.35,1.26-.86s-.42-.79-1.34-.79h-.83V208h.83c.74,0,1.22-.24,1.22-.74s-.53-.8-1.23-.8a2.43,2.43,0,0,0-1.7.7l-.7-.88a3.28,3.28,0,0,1,2.55-1.06c1.55,0,2.51.7,2.51,1.81a1.64,1.64,0,0,1-1.45,1.52,1.67,1.67,0,0,1,1.55,1.6c0,1.15-1,2-2.62,2a3.33,3.33,0,0,1-2.63-1.07Z"/><g class="c"><rect class="a" x="5.5" y="225.5" width="39" height="28" rx="3.28"/></g><g class="d"><path class="a" d="M41.22,254H8.78A3.79,3.79,0,0,1,5,250.22V228.78A3.79,3.79,0,0,1,8.78,225H41.22A3.79,3.79,0,0,1,45,228.78v21.44A3.79,3.79,0,0,1,41.22,254ZM8.78,226A2.79,2.79,0,0,0,6,228.78v21.44A2.79,2.79,0,0,0,8.78,253H41.22A2.79,2.79,0,0,0,44,250.22V228.78A2.79,2.79,0,0,0,41.22,226Z"/></g><path class="e" d="M19.48,241a2.92,2.92,0,0,0,2.12.9c.78,0,1.15-.37,1.15-.75s-.58-.67-1.34-.85c-1.09-.25-2.49-.55-2.49-2,0-1.11,1-2,2.53-2a3.7,3.7,0,0,1,2.59.93l-.79,1a2.82,2.82,0,0,0-1.9-.73c-.64,0-1,.28-1,.68s.56.59,1.33.77c1.09.25,2.49.58,2.49,2.06,0,1.22-.87,2.14-2.66,2.14a3.84,3.84,0,0,1-2.83-1.06Z"/><path class="e" d="M25.44,241.12a2.66,2.66,0,0,0,1.84.76c.8,0,1.26-.35,1.26-.86s-.42-.79-1.34-.79h-.83V239h.83c.74,0,1.22-.24,1.22-.74s-.53-.8-1.23-.8a2.43,2.43,0,0,0-1.7.7l-.7-.88a3.28,3.28,0,0,1,2.55-1.06c1.55,0,2.51.7,2.51,1.81a1.64,1.64,0,0,1-1.45,1.52,1.67,1.67,0,0,1,1.55,1.6c0,1.15-1,2-2.62,2a3.33,3.33,0,0,1-2.63-1.07Z"/><g class="c"><rect class="a" x="47.5" y="163.5" width="38" height="27" rx="3.16"/></g><g class="d"><path class="a" d="M82.34,191H50.66A3.66,3.66,0,0,1,47,187.34V166.66A3.66,3.66,0,0,1,50.66,163H82.34A3.66,3.66,0,0,1,86,166.66v20.68A3.66,3.66,0,0,1,82.34,191ZM50.66,164A2.66,2.66,0,0,0,48,166.66v20.68A2.66,2.66,0,0,0,50.66,190H82.34A2.66,2.66,0,0,0,85,187.34V166.66A2.66,2.66,0,0,0,82.34,164Z"/></g><path class="e" d="M61.14,178a2.92,2.92,0,0,0,2.12.9c.78,0,1.16-.37,1.16-.75s-.58-.67-1.35-.85c-1.09-.25-2.49-.55-2.49-2,0-1.11,1-2,2.53-2a3.71,3.71,0,0,1,2.6.93l-.79,1a2.85,2.85,0,0,0-1.91-.73c-.64,0-1,.28-1,.68s.56.59,1.33.77c1.1.25,2.5.58,2.5,2.06,0,1.22-.87,2.14-2.67,2.14a3.84,3.84,0,0,1-2.83-1.06Z"/><path class="e" d="M67.1,178.12a2.66,2.66,0,0,0,1.84.76c.81,0,1.26-.35,1.26-.86s-.41-.79-1.34-.79H68V176h.83c.74,0,1.23-.24,1.23-.74s-.54-.8-1.24-.8a2.43,2.43,0,0,0-1.7.7l-.7-.88A3.28,3.28,0,0,1,69,173.23c1.56,0,2.52.7,2.52,1.81a1.64,1.64,0,0,1-1.46,1.52,1.67,1.67,0,0,1,1.56,1.6c0,1.15-1,2-2.63,2a3.33,3.33,0,0,1-2.63-1.07Z"/><g class="c"><rect class="a" x="47.5" y="194.5" width="38" height="27" rx="3.16"/></g><g class="d"><path class="a" d="M82.34,222H50.66A3.66,3.66,0,0,1,47,218.34V197.66A3.66,3.66,0,0,1,50.66,194H82.34A3.66,3.66,0,0,1,86,197.66v20.68A3.66,3.66,0,0,1,82.34,222ZM50.66,195A2.66,2.66,0,0,0,48,197.66v20.68A2.66,2.66,0,0,0,50.66,221H82.34A2.66,2.66,0,0,0,85,218.34V197.66A2.66,2.66,0,0,0,82.34,195Z"/></g><path class="e" d="M61.14,210a2.92,2.92,0,0,0,2.12.9c.78,0,1.16-.37,1.16-.75s-.58-.67-1.35-.85c-1.09-.25-2.49-.55-2.49-2,0-1.11,1-2,2.53-2a3.71,3.71,0,0,1,2.6.93l-.79,1a2.85,2.85,0,0,0-1.91-.73c-.64,0-1,.28-1,.68s.56.59,1.33.77c1.1.25,2.5.58,2.5,2.06,0,1.22-.87,2.14-2.67,2.14a3.84,3.84,0,0,1-2.83-1.06Z"/><path class="e" d="M67.1,210.12a2.66,2.66,0,0,0,1.84.76c.81,0,1.26-.35,1.26-.86s-.41-.79-1.34-.79H68V208h.83c.74,0,1.23-.24,1.23-.74s-.54-.8-1.24-.8a2.43,2.43,0,0,0-1.7.7l-.7-.88A3.28,3.28,0,0,1,69,205.23c1.56,0,2.52.7,2.52,1.81a1.64,1.64,0,0,1-1.46,1.52,1.67,1.67,0,0,1,1.56,1.6c0,1.15-1,2-2.63,2a3.33,3.33,0,0,1-2.63-1.07Z"/><g class="c"><rect class="a" x="47.5" y="225.5" width="38" height="28" rx="3.28"/></g><g class="d"><path class="a" d="M82.22,254H50.78A3.79,3.79,0,0,1,47,250.22V228.78A3.79,3.79,0,0,1,50.78,225H82.22A3.79,3.79,0,0,1,86,228.78v21.44A3.79,3.79,0,0,1,82.22,254ZM50.78,226A2.79,2.79,0,0,0,48,228.78v21.44A2.79,2.79,0,0,0,50.78,253H82.22A2.79,2.79,0,0,0,85,250.22V228.78A2.79,2.79,0,0,0,82.22,226Z"/></g><path class="e" d="M61.14,241a2.92,2.92,0,0,0,2.12.9c.78,0,1.16-.37,1.16-.75s-.58-.67-1.35-.85c-1.09-.25-2.49-.55-2.49-2,0-1.11,1-2,2.53-2a3.71,3.71,0,0,1,2.6.93l-.79,1a2.85,2.85,0,0,0-1.91-.73c-.64,0-1,.28-1,.68s.56.59,1.33.77c1.1.25,2.5.58,2.5,2.06,0,1.22-.87,2.14-2.67,2.14a3.84,3.84,0,0,1-2.83-1.06Z"/><path class="e" d="M67.1,241.12a2.66,2.66,0,0,0,1.84.76c.81,0,1.26-.35,1.26-.86s-.41-.79-1.34-.79H68V239h.83c.74,0,1.23-.24,1.23-.74s-.54-.8-1.24-.8a2.43,2.43,0,0,0-1.7.7l-.7-.88A3.28,3.28,0,0,1,69,236.23c1.56,0,2.52.7,2.52,1.81a1.64,1.64,0,0,1-1.46,1.52,1.67,1.67,0,0,1,1.56,1.6c0,1.15-1,2-2.63,2a3.33,3.33,0,0,1-2.63-1.07Z"/></svg>