<svg id="Lager_1" data-name="Lager 1" xmlns="http://www.w3.org/2000/svg" viewBox="0 0 600 300"><defs><style>.cls-1{fill:#e8eff3;}.cls-2{fill:#535352;}.cls-3{fill:#05688a;}</style></defs><rect class="cls-1" width="600" height="300"/><g id="e-avrol"><path class="cls-2" d="M121.8,117.22a35.58,35.58,0,0,0-9.9,6.2,35.15,35.15,0,0,0-7.16,9.39,38.93,38.93,0,0,0-4,11.63,37,37,0,0,0-.26,13.7,22.32,22.32,0,0,0,4.14,10,19.88,19.88,0,0,0,7.92,6.12,28,28,0,0,0,11,2.07,43.21,43.21,0,0,0,6.64-.52,48.51,48.51,0,0,0,6.71-1.63,41.47,41.47,0,0,0,6.29-2.85,22.71,22.71,0,0,0,5.34-4.13l-2.23-3.79a1.86,1.86,0,0,0-1.81-1,5.69,5.69,0,0,0-2.59.95c-1,.6-2.32,1.29-3.79,2a39.11,39.11,0,0,1-5.25,2,23.8,23.8,0,0,1-7,.95,17.73,17.73,0,0,1-7.41-1.38,11.78,11.78,0,0,1-5.17-4.22,16.88,16.88,0,0,1-2.67-7,34.46,34.46,0,0,1,.17-9.82h39.72a2.52,2.52,0,0,0,2.15-.86,7.4,7.4,0,0,0,1.12-3.27,31.51,31.51,0,0,0,.17-11.38,19.05,19.05,0,0,0-3.7-8.35,18.08,18.08,0,0,0-6.89-5.17,24.22,24.22,0,0,0-9.57-1.81A32.78,32.78,0,0,0,121.8,117.22ZM139,123.85a10.11,10.11,0,0,1,4.13,3.45,11.31,11.31,0,0,1,2,5.25,19.71,19.71,0,0,1-.17,6.72H112.41A25.66,25.66,0,0,1,120,127.13a19,19,0,0,1,12.75-4.4A14,14,0,0,1,139,123.85Z"/><path class="cls-2" d="M167.38,145.65H191.5v-9.13H167.38Z"/><path class="cls-2" d="M287.81,177.52h9.82l25.07-61.59h-8.44a3.47,3.47,0,0,0-2.07.6,3.94,3.94,0,0,0-1.2,1.64L295.22,157.8a29.64,29.64,0,0,0-1.38,4.39c-.34,1.46-.69,2.93-1,4.31-.26-1.38-.6-2.85-.95-4.31a27.45,27.45,0,0,0-1.38-4.39l-15.59-39.63a4.14,4.14,0,0,0-1.21-1.55,3.56,3.56,0,0,0-2.15-.69h-8.87Z"/><path class="cls-2" d="M343.55,177.52V138.33a25,25,0,0,1,6.38-9.57,14.08,14.08,0,0,1,9.47-3.27,14.88,14.88,0,0,1,4.91.6,12.39,12.39,0,0,0,2.59.61,1.84,1.84,0,0,0,1.89-1.55l1.38-8.1a18.39,18.39,0,0,0-3.79-1.64,19.28,19.28,0,0,0-4.65-.6,17.36,17.36,0,0,0-10.94,3.62A28.64,28.64,0,0,0,343,128.51l-.69-9.57a3.61,3.61,0,0,0-.95-2.32,3.5,3.5,0,0,0-2.41-.69h-6.2v61.59Z"/><path class="cls-2" d="M394.47,117.22a26,26,0,0,0-9.31,6.38,28.11,28.11,0,0,0-5.86,10,42.65,42.65,0,0,0,0,26.19,29.54,29.54,0,0,0,5.86,10,26.1,26.1,0,0,0,9.31,6.38,34,34,0,0,0,24.29,0,25,25,0,0,0,9.22-6.38,29.54,29.54,0,0,0,5.86-10,42.65,42.65,0,0,0,0-26.19,28.11,28.11,0,0,0-5.86-10,24.87,24.87,0,0,0-9.22-6.38,34,34,0,0,0-24.29,0Zm4.22,51.09a15.46,15.46,0,0,1-5.69-4.57,20,20,0,0,1-3.44-7.24,37.31,37.31,0,0,1-1.12-9.82,37.83,37.83,0,0,1,1.12-9.82,19.81,19.81,0,0,1,3.44-7.32,15.46,15.46,0,0,1,5.69-4.57,19,19,0,0,1,8-1.55c6.12,0,10.6,2.07,13.61,6.12s4.48,9.82,4.48,17.14-1.46,13-4.48,17.06-7.58,6.12-13.61,6.12A17.88,17.88,0,0,1,398.69,168.31Z"/><path class="cls-2" d="M445.73,115v83.39h10.85V171.15a21.36,21.36,0,0,0,7.15,5.34,22.36,22.36,0,0,0,9.74,1.9,24.47,24.47,0,0,0,19.47-9.22A30.69,30.69,0,0,0,498.19,159,42.29,42.29,0,0,0,500,146.34a49.36,49.36,0,0,0-1.64-13.53,30.21,30.21,0,0,0-4.65-9.9,20.35,20.35,0,0,0-7.32-6,21.88,21.88,0,0,0-9.56-2.07,22.77,22.77,0,0,0-11.72,2.93,33.38,33.38,0,0,0-9.05,7.75l-.34-8.44a2.18,2.18,0,0,0-2.15-2.07Zm34,9.91a11.77,11.77,0,0,1,4.92,4,20.85,20.85,0,0,1,3.1,7.06,44.48,44.48,0,0,1,1,10.34c0,7.58-1.55,13.44-4.65,17.49s-7.5,6.11-13.18,6.11a18.15,18.15,0,0,1-7.93-1.63,17.57,17.57,0,0,1-6.55-5.69V132.9a27.35,27.35,0,0,1,7.33-6.89,17.38,17.38,0,0,1,9.3-2.41A16.27,16.27,0,0,1,479.75,124.89Z"/><g id="new_copy" data-name="new copy"><path class="cls-3" d="M190.64,177.52l33.77-82.61h14l44.88,110.18h-11.2a6.74,6.74,0,0,1-6.29-4.22l-35.06-86.06-24.29,59.27a6,6,0,0,1-5.34,3.44Z"/></g></g></svg>