<svg id="Lager_1" data-name="Lager 1" xmlns="http://www.w3.org/2000/svg" viewBox="0 0 600 300"><defs><style>.cls-1{fill:#e8eff3;}.cls-2{fill:#3d8bb3;}.cls-3{fill:#eef4f8;}.cls-4{fill:#438fb6;}.cls-5{fill:#1475a6;}.cls-6{fill:#e5edf4;}.cls-7{fill:#e0f3fc;}.cls-8{fill:#b4cedf;}.cls-9{fill:#b2e2fb;}.cls-10{fill:#61c7f2;}.cls-11{fill:#1f659f;}.cls-12{fill:#a5dcf8;}.cls-13{fill:#0c5897;}.cls-14{fill:#e7f6fc;}.cls-15{fill:#6fa9c6;}.cls-16{fill:#568ab6;}.cls-17{fill:#94b4d0;}.cls-18{fill:#7fb1cb;}.cls-19{fill:#bfe6fb;}</style></defs><rect class="cls-1" width="600" height="300"/><g id="_9GoYMf.tif" data-name="9GoYMf.tif"><path class="cls-2" d="M341.8,218.82c-2.84-3.61-.5-8.28-2.52-12.16,1.51-.82,2.66-.76,2.87,1.22s.22,4.09.35,6.14c.1,1.61.44,3,2.51,3.08s3.5-.89,3.65-3c.19-2.61.65-5.36-1.67-7.35,1.15-1.24,2.2-.91,3.33-.59a3.9,3.9,0,0,1,.44,1.08c.07,1.23,0,2.46.06,3.69,0,2.76-.45,5.63,1.74,7.91Z"/><path class="cls-3" d="M386.1,207.24l-.06,0c1.55,1.46,3.64.11,5.3,1,1.61,3.4.47,7,1,10.54h-5c-1.88-2.69-1.4-5.77-1.46-8.76C385.84,209.12,386.49,208.22,386.1,207.24Z"/><path class="cls-4" d="M413.81,218.82a9.36,9.36,0,0,1-2-6.82c.06-1.71.52-3.63-1.78-4.67l2.9-4.25c1.77,1.17,2.21,3.92,4.87,2.95-.26,2.59-2.15,1.5-3,2.41-.58.79-.57,4.21.07,7.93.87,1.26,2.36.27,3.5,1l-.41,1.46Z"/><path class="cls-3" d="M377.4,209.31h0a2.35,2.35,0,0,0,1.67-1.18c4.71-.33,4.69-.19,5,4.42.14,2.39-.75,4.28-1.66,6.27h-3.31c-1.9-2.37-1.47-5.18-1.52-7.9C377.52,210.38,377.44,209.85,377.4,209.31Z"/><path class="cls-2" d="M363.6,207a5.34,5.34,0,0,1,2,5.54c-2.91,1-6-.12-8.91.72,1,4.29,1.17,4.34,8.71,2.44.44,1.8-1.84,1.77-2.08,3.08h-5.79c-4.22-4.47-4.55-6.41-1.83-10.85a1.61,1.61,0,0,1,1.19,1.16,2,2,0,0,0,.15,2,21.93,21.93,0,0,0,6.11-.09,2.5,2.5,0,0,0-.76-2.82A1.69,1.69,0,0,1,363.6,207Z"/><path class="cls-4" d="M309.52,218.82l-3.11-8.25,1.86-.12c1.37,1.06,1,3,2.4,4.35,2.26-2.3,1.88-5.86,4.1-8.05l1.05,1c-.81,2.55-1.66,5.1-2.43,7.67-.33,1.1-1.32,2.13-.56,3.41Z"/><path class="cls-5" d="M422.09,218.82a14.22,14.22,0,0,1-1.57-7.69c.09-1.15.41-2.45-.69-3.4l-.4-1.38c1.49-.28.7-2.39,2.4-2.73.78,1.38,1.56,3,4.44,2.86-6,2.59-2.78,6.74-3.53,9.68,1.23,1.61,2.66.57,3.81,1.18-.11.47-.22,1-.33,1.48Z"/><path class="cls-2" d="M332.68,217.16c.37-.16,1-.23,1.09-.49.84-2.4.1-13.11-1.07-15.86,2.29-1,3.34-.25,3.33,2.19s0,4.66,0,7c0,3-.5,6.17,1.62,8.82h-5C332.69,218.27,332.68,217.72,332.68,217.16Z"/><path class="cls-5" d="M399.74,206.47c6-1.32,8.08.16,8.16,5.94,0,2.31-.37,4.7,1.77,6.41h-2.48l-.94-1.43-.6-1.61c.67-2.78.67-2.78-2.55-3l-.06-1.33c1-.33,2.73.38,2.75-1.52s-1.33-2.13-2.8-2.12c-1.07,0-2.14.08-3.22.12Z"/><path class="cls-2" d="M382.36,218.82c.91-2,1.8-3.88,1.66-6.27-.28-4.61-.26-4.75-5-4.42l0-1.7c2.6-1.89,4.73.42,7.07.81.39,1-.26,1.88-.24,2.82.06,3-.42,6.07,1.46,8.76Z"/><path class="cls-5" d="M320.09,212.86c2.05-2.06,4.89-1.18,7.14-1.69a2.79,2.79,0,0,0,.07-2.63l.93-.94c2.06,1.91.76,4.38,1.12,6.58.2,1.2-.63,2.9,1.57,3.08l.12,1.56h-3.31c.37-1.22.18-1.85-1.25-1.15l-.73-.88c1.11-.95,2.62-1.72,1.65-3.67a9.73,9.73,0,0,0-6.45.58Z"/><path class="cls-2" d="M441.12,218.82c2.24-3.66,2.15-3.66,2.21-7.7a4.89,4.89,0,0,0-1.83-4.31c1.91-.93,3.1-1,3.67,1a1.58,1.58,0,0,0,1.22,1.26c-2.13,3.37-1.59,6.61.53,9.76Z"/><path class="cls-2" d="M461.23,213.85c1.24,2-.42,3.38-1.07,5h-8.28c.23-1.68-.94-3.6.85-5,.65,1,.85,2.28,2.1,2.85a4.35,4.35,0,0,0,3.89.16c1.24-.64.77-1.82.4-2.85Z"/><path class="cls-2" d="M431.19,218.82c-.54-1.3-2.6-1.5-2.43-3.31l.94-1c2.62,3.88,6,2.51,9.24,1,.74,2.29-1.71,2.09-2,3.39Z"/><path class="cls-5" d="M392.29,218.82c-.48-3.5.66-7.14-1-10.54a1.68,1.68,0,0,1,1.1-1.1c1.34,1.17,1.5,2.71,1.5,4.35,0,2.55-.45,5.22,1.66,7.29Z"/><path class="cls-2" d="M377.4,209.31c0,.54.12,1.07.13,1.61.05,2.72-.38,5.53,1.52,7.9h-5.8a7.9,7.9,0,0,0,2.35-6.95C375.51,210.75,375.07,208.94,377.4,209.31Z"/><path class="cls-2" d="M398.08,218.82c-.52-1.92-2.26-3.83-.08-5.79a1.52,1.52,0,0,1,1,1.08c.43,3.06.43,3.06,4.45,2.9a1.58,1.58,0,0,1,1.17.81l-.77,1Z"/><path class="cls-5" d="M320.28,218.82c.18-.54-.3-.83-.5-1.23l1.09-1c1.59.94,3.24.65,4.88.2l.73.88-1.24,1.15h-5Z"/><path class="cls-4" d="M464.3,218.82c.17-.83-.24-2.08,1.05-2.22,1.67-.17,1.21,1.31,1.43,2.22Z"/><path class="cls-6" d="M403.88,218.82l.77-1,1.6-.43.94,1.43Z"/><path class="cls-6" d="M325.24,218.82l1.24-1.15c1.43-.7,1.62-.07,1.25,1.15Z"/><path class="cls-7" d="M519.75,135.58H519c0-1.12-.07-2.24-.1-3.35l.88,0Z"/><path class="cls-8" d="M331,218.82l-.12-1.56,1.76-.1c0,.56,0,1.11,0,1.66Z"/><path class="cls-9" d="M519.75,132.28l-.88,0a3.78,3.78,0,0,1-.1-.57l1-.22Z"/><path class="cls-3" d="M325.24,218.82Z"/><path class="cls-10" d="M211.28,185.71V142.15c1-1.1,2.16-.74,3.21-.74,5.78,0,11.58-.27,17.34.05,9.63.53,17.06,5.24,19.86,14.44,2.73,8.95,1.36,17.34-5.68,24.16a19.59,19.59,0,0,1-12.53,5.54C226.23,186,219,185.71,211.28,185.71Zm11-9.72c2.76,0,5.49.13,8.19,0,5.74-.33,9.62-3.22,10.81-8.41,1.13-4.93.53-11.39-4.71-14.59-4-2.46-8.32-2.5-12.73-2.35-1.93.07-2,1.51-2,2.95,0,5.48,0,11,0,16.45C221.94,171.89,221.61,173.82,222.32,176Z"/><path class="cls-10" d="M467.56,163.66c.26,12.23-9.26,22.79-23.51,22.74-13.51-.05-23.5-9.32-23.53-22.74s10-22.84,23.78-23S468,151.37,467.56,163.66Zm-11.42.16c.72-7-4.4-13-12-13.21-6.48-.2-12.81,6.34-12.81,13,0,7.16,5.28,12.16,12.56,12.52C450.86,176.47,456.81,170.84,456.14,163.82Z"/><path class="cls-10" d="M160.51,163.37c-.51-12.27,10.35-22.9,23.65-22.66,13.61.24,23.64,9.56,23.43,23.27-.2,13.44-10.17,22.31-23.42,22.42C170.21,186.51,159.92,176,160.51,163.37ZM184,176.07c8.59.21,12.83-6.24,12.68-12.2-.22-8.16-4.91-13-12.44-13.13s-12.37,5.13-12.71,13.26C171.2,170.81,176.85,176,184,176.07Z"/><path class="cls-10" d="M149.64,172l9.05,13.71c-4.24,0-7.61,0-11,0-1.44,0-2.11-1.13-2.82-2.15-1.87-2.7-3.92-5.29-5.55-8.13-1.17-2-2.78-2.08-4.56-1.73-2.13.42-1.57,2.27-1.6,3.69-.06,2.59,0,5.18,0,7.91-3.62.84-7,.29-10.55.4V141.35c8.1.62,16.2-1.39,24.08,1.38a15.93,15.93,0,0,1,7.24,25C152.74,169.23,150.68,169.79,149.64,172Zm-16.32-7.85a22.91,22.91,0,0,0,6.78.17,7.18,7.18,0,0,0,6.22-6.16c.22-2.62-2.08-5.86-4.89-6.86a13.11,13.11,0,0,0-8.11-.36Z"/><path class="cls-10" d="M296.3,185.77c-3.26,0-6-.15-8.73,0-2.38.18-3.47-.89-4.26-2.94-1.77-4.65-1.83-4.63-6.66-4.63-2.89,0-5.8.18-8.67-.05-2.52-.2-3.87.8-4.6,3.07-1.7,5.37-1.77,4.46-6.74,4.48a23.39,23.39,0,0,1-6.53-.33c1.62-3.68,3.14-7.28,4.79-10.82,4.67-10,9.35-20.06,13.52-30.31.8-2,1.85-3.08,4.26-3s4.09.25,5.21,2.84c4.92,11.44,10.05,22.79,15.11,34.17C294,180.65,295.07,183,296.3,185.77Zm-18.49-17.39c-1.5-3.62-2.54-7.22-4.82-11-1.57,3.93-3.32,7.1-4.11,11Z"/><path class="cls-10" d="M352.86,141.53h6.73c6.41,14.43,12.87,29,19.49,43.91-3.61.6-6.86.25-10.09.3-1.3,0-1.89-.83-2.3-2-.64-1.78-1-3.69-2.47-5.51-4.74,0-9.68,0-14.61,0a2.6,2.6,0,0,0-2.9,2.3c-1,4.37-3.67,6-8,5.27a39.64,39.64,0,0,0-5.53,0C339.44,170.45,346.23,156,352.86,141.53Zm3.49,15.62a54,54,0,0,0-4.65,11.2,31.11,31.11,0,0,0,9.19-.1Z"/><path class="cls-10" d="M94,185.55H83.7V141.47c7.5.22,14.91-1.05,22.19.79,6.81,1.71,10.75,6.35,12,13.16,1.06,5.92-1.1,10.78-5.67,14.52-3,2.41-6.62,3.26-10.35,3.59-2.3.21-4.64,0-7.16,0C93.72,177.58,94.63,181.44,94,185.55Zm.58-34.72v13.42c3.08.22,5.78.44,8.41-.76,2.47-1.13,4.2-2.94,4.19-5.58a6.53,6.53,0,0,0-4.18-6.06A13.62,13.62,0,0,0,94.57,150.83Z"/><path class="cls-10" d="M394.07,174c-.73,3.84.3,7.59-.7,11.39-3.31.79-6.54.36-9.71.3-.73-3.29-1-38-.27-44.26,5,0,10,.09,15.08,0a22.84,22.84,0,0,1,8.85,1.57c6.53,2.47,9.85,7.5,10.28,14.08A14.24,14.24,0,0,1,410,171a21.79,21.79,0,0,1-9.43,2.57C398.51,173.71,396.44,173.35,394.07,174Zm-.78-9.76c3.32.24,6.16.64,8.91-.59,2.54-1.14,4.3-2.65,4.25-5.82s-1.77-5-4.34-6.34c-2-1-4.25-.91-6.45-.88-1.77,0-2.4.94-2.38,2.59C393.31,156.69,393.29,160.23,393.29,164.2Z"/><path class="cls-10" d="M331.83,145.45a48.43,48.43,0,0,1-4.59,8.26,22.9,22.9,0,0,0-6.65-2.31c-5-.88-9.71-.1-13.18,4-3.34,3.9-3.51,8.43-2,13.15,1.88,5.86,9,8.1,14.22,7.3a28.67,28.67,0,0,0,7.54-2.28c2.2,2.46,3.16,5.45,4.65,8.08-8.15,7.37-25.08,6-32.52-2.42s-7.77-23.14.29-31.6C307,139.8,323.46,138.19,331.83,145.45Z"/><path class="cls-6" d="M514.11,120.77l.7.66c-2.44.59-3.8,2.07-3.33,4.62.5,2.72,2.59,3.08,4.93,2.83,0,.36,0,.71,0,1.06-2.45.14-4.35,1.33-4.59,3.74s1.63,3.5,3.84,3.89v1.12c-3.73.56-4.55,1.48-4.22,4.32s2.47,2.37,4.22,2.74l-.25,1.66c-5.4-1.43-7,.4-5.56,6.49-4.57,2.49-5.46,3.41-2.49,8l0,.06c-5.78-.17-6.77.82-5.75,5.77-5.25.17-5.25.17-6.35,5.71-1.51.51-2.79-1.13-4.31-.53l-.16-1.19,1.26-4.61c4.66.88,6.23-.84,5-5.25-.15-.52-.26-1.05-.39-1.57.66.18,1.32.33,2,.55a3.26,3.26,0,0,0,3.75-.9,3.83,3.83,0,0,0,.6-4.22,10,10,0,0,0-1.34-2,11.35,11.35,0,0,1,1.65,0c2.24.3,3.27-1.07,3.9-2.87.7-2.06-1-3-2.2-4-1.36-1.15-2.71-.27-3.7.61-1.54,1.38-1.57,3.08-.4,4.8a14.29,14.29,0,0,1,.77,1.45c-4.27.07-5.67,1.12-5.6,4.31a9.58,9.58,0,0,0,.63,2.28c-2,.25-4.58-.92-5.07,2.39-1,.25-2.16.45-.74,1.73-.08.63.07,1.47-.93,1.45-5.06-.09-5.39.2-5.67,5.12l0,0c-1.62-1.85-4-1.46-6.05-2.08a7.31,7.31,0,0,0,1.14-5.4l-.08.07c.66-.08.87.51,1.26.84a3.36,3.36,0,0,0,4.78.08c1.54-1.31,1.93-2.9.53-4.62a5.42,5.42,0,0,1,1.21,0c1.77.39,3.5.68,4.84-1s1-3.52-.15-5.23v-1c1.92.85,3.81,1,5.21-.84,1.69-2.25.14-4.09-1.41-6.09,2.41-.19,4.52-.32,5.16-2.84.6-2.36-1.23-3.59-2.81-5.24,2.56-.55,3.88-1.77,3.86-4,0-2.59-2.19-3.23-4.13-4,3.24-2.68,3.78-4.75,2-6.82-1.29-1.49-3-1-4.62-1.19,1.37-1.57,3.3-2.91,2.18-5.44-1.24-2.8-3.65-2.14-5.9-1.93a2.91,2.91,0,0,1-.4,0c2-2,1.86-4.14.68-6.43a8.73,8.73,0,0,1,4.78.11c-.62,4.53.6,5.95,5.35,6.27-2.67,4-2.25,5.34,2.41,7.44a3.94,3.94,0,0,1-.18,1.14c-.24.48-.71.85-.93,1.33-.9,1.9-.42,3.64,1.33,4.52s3.47.28,4.7-1.21a2.7,2.7,0,0,0-.43-4.26c-.91-.75-1.8-1.52-2.64-2.23.21-1.68,1.87-2.74,1-4.69-1.21-2.57-3.27-2-5.24-2,.1-.24.18-.5.3-.74,2.38-4.7,1.65-6.06-3.68-6.84-.22,0-.4-.33-.63-.52-.23-1.69.21-3.53-1-5.07a1.51,1.51,0,0,1,1.08-1c1.66.29,3.08-1.07,4.75-.71-2.48,4.88-1.38,6.62,4.14,6.53a7.56,7.56,0,0,1,.82.07c-2.87,4.43-1.94,6.53,3.25,7.41l.06.08C507.91,118.61,508.74,120.4,514.11,120.77Zm-7.53,9.83c-2.14,0-3.31,1.13-3.36,3.2a3.42,3.42,0,0,0,3.75,3.43,3.56,3.56,0,0,0,3.49-3.3C510.47,132.06,508.76,130.59,506.58,130.6Zm3.06,11.6a3.64,3.64,0,0,0-3.39-3.36,3.35,3.35,0,1,0-.08,6.63A3.6,3.6,0,0,0,509.64,142.2Z"/><path class="cls-10" d="M474.91,140.41c.48-2,2.58-1.72,4.13-2.8a3.82,3.82,0,0,1-2.38-3.7c.06-1.68.62-2.92,3.26-4-5,.06-5.45-2.87-6-6-2.81.34-4.86-.72-5.88-3.26-4.61,1.27-6.84.79-7.69-1.58a4,4,0,0,1,1.85-4.58c2.12-1.11,4.07-.27,6.54,3,1.7-.36,3.17-2.43,5.47-.86,2.1,1.43,1.33,3.38,1.77,5.49,2-.66,4.07-.72,5.19,1.46s.55,4-1,5.71c1.52,1.35,3.82,2,3.91,4.44.1,2.61-2.07,3.23-4.2,4.19,1.31,1.83,2.74,3.67,1.27,5.92-1.05,1.59-2.6,1.88-4.36,1.48A5.84,5.84,0,0,1,474.91,140.41Z"/><path class="cls-11" d="M494.87,121.61c1.6.15,3.33-.3,4.62,1.19,1.78,2.07,1.24,4.14-2,6.82,1.94.82,4.09,1.46,4.13,4,0,2.27-1.3,3.49-3.86,4,1.58,1.65,3.41,2.88,2.81,5.24-.64,2.52-2.75,2.65-5.16,2.84,1.55,2,3.1,3.84,1.41,6.09-1.4,1.86-3.29,1.69-5.21.84a2.64,2.64,0,0,0-1.39-1.64c-.94-3.4,1.37-4.66,3.93-5.6-1.74-4.65-1.61-5,3.43-8.1-3,.35-2.66-3.13-4.91-3.47V134c2.25-.55,1.84-3.52,4.74-4-3.24-1.66-5.55-3.15-4.06-6.55.73-.45,1.51-.85,1.61-1.84Z"/><path class="cls-10" d="M502.4,99.29c-1.67-.36-3.09,1-4.75.71-2.18-1.52-2-3.93-2.09-6.64-2.32,1.21-4.4,1.49-6.37.08-1-1.25-.67-2.85-1-4.56-1.82,1.8-3.68,2.59-5.75.87-1.24-1-2-2.33-1.29-4s2.16-2.18,4-2.19c2.9,0,3.09,2.13,3.49,4.18,1.93.13,3.64-1.24,5.6,0s1.09,3.29,2.24,4.57c5.67.54,6.1.9,6.28,5.22a1.58,1.58,0,0,0-.42,1.74Z"/><path class="cls-11" d="M471.05,100.55c1-1.85,2.37-3,4.61-2.4,1.6.44,2.34,1.84,2.82,5.08,1.75-.21,2.89-2.63,5-1.47.57.78,1.21,1.39,2.3.94h-.06l.09,4.91.07-.08c-.66,0-.85.36-.91.9l.07-.07a1.05,1.05,0,0,0-1.08.74c-4.38.1-4.89-.31-5.89-4.75-4,2.2-4.41,2.13-7-1.2Z"/><path class="cls-10" d="M490.9,172.92c1.52-.6,2.8,1,4.31.53,1.1-5.54,1.1-5.54,6.35-5.71l0,0c0,.58.31.84.86.86l0,0a1.66,1.66,0,0,0,.69,1.89c-.78,4.13-1.27,4.53-5.63,4.64-.27-.43-.63-.83-1.17-.61-.78.32-.5,1-.34,1.54-.74,4.85-2.39,5.77-6.63,3.7C487.55,176.9,488.66,174.78,490.9,172.92Z"/><path class="cls-10" d="M507.35,161.91c-3-4.6-2.08-5.52,2.49-8-1.41-6.09.16-7.92,5.56-6.49,1.81,4.47,1.36,5.59-3.14,7.58.42,1.82,1.66,3.71,0,5.64C510.89,162.27,509.08,161.81,507.35,161.91Z"/><path class="cls-12" d="M478.09,169c2,.62,4.43.23,6.05,2.08-.22,4.27-.56,4.63-5,5.1l-2.59-1-1.83,4.25,0,0c-4.64-.43-5.93-1.62-5.54-5,.18-1.58.87-2.5,2.54-2.53.55.94,1.1.93,1.64,0l2.29.17c.31.54-.19,1.46,1.05,1.89v-2.06l.85-1.61a1,1,0,0,0,.68-1.06Z"/><path class="cls-11" d="M469.24,143.76c-3.82,1.13-6,.32-6.4-2.41-.18-1.39-.07-2.79,1.32-3.58a4.3,4.3,0,0,1,4.65,0,3.24,3.24,0,0,1,1.47,3.88,15.48,15.48,0,0,1-1.07,2.16Z"/><path class="cls-10" d="M466.78,188.38a3.67,3.67,0,0,1-3.81-3.45,4.48,4.48,0,0,1,4.46-3.92,3.47,3.47,0,0,1,3.37,3.81C470.73,187.14,469.24,188.46,466.78,188.38Z"/><path class="cls-12" d="M486.44,153.84c-1.37-.05-2.75,0-4.09-.16a3.72,3.72,0,0,1-.52-7.24,3.32,3.32,0,0,1,4.31,2.09c.64,1.51.3,3.27,1.33,4.65C487.31,153.68,486.9,153.8,486.44,153.84Z"/><path class="cls-11" d="M469.22,102.5a3.45,3.45,0,0,1-3.9,1.54,3.61,3.61,0,0,1-2.86-3.09A3.39,3.39,0,0,1,464,97.41a3.59,3.59,0,0,1,4.22-.22,3,3,0,0,1,1.74,3C469,100.75,469.31,101.69,469.22,102.5Z"/><path class="cls-11" d="M486.44,153.84c.46,0,.87-.16,1-.66a3.64,3.64,0,0,1,2.49-.25c.32.74,1,.81,1.66.77,1.13,1.71,1.58,3.43.15,5.23s-3.07,1.4-4.84,1a5.42,5.42,0,0,0-1.21,0c-.47-.47-1.34-.44-1.54-1.24C485.91,157.52,484.77,155,486.44,153.84Z"/><path class="cls-11" d="M490.75,114.19a2.91,2.91,0,0,0,.4,0c2.25-.21,4.66-.87,5.9,1.93,1.12,2.53-.81,3.87-2.18,5.44l.09-.07-1.67-.07c-3.91-.78-3.2-3.87-3.3-6.54l-.08,0c.79.21,1.07-.09.9-.86Z"/><path class="cls-10" d="M469.21,143.79c1.62.59,3.4-.36,5,.52.07.86.63,1.16,1.41,1.18a7.87,7.87,0,0,1-.6,5.73l0,0a25.07,25.07,0,0,1-2.87.08c-2.82-.23-4.07-2-3.33-4.78.24-.91.83-1.74.4-2.74Z"/><path class="cls-13" d="M479.23,163.56a7.31,7.31,0,0,1-1.14,5.4l.18.23a.65.65,0,0,0-.59-.18,4.7,4.7,0,0,1-2.79.26,3.63,3.63,0,0,1-2.47-4.75,3.42,3.42,0,0,1,4.81-2.21A14.85,14.85,0,0,1,479.23,163.56Z"/><path class="cls-10" d="M474.76,179.39l0,0a4.18,4.18,0,0,1,3.27,1.47c1.26,1.29,2.71,2.51,1.13,4.53-1.18,1.52-2.5,2.61-4.54,1.76-1.67-.69-2.48-2.86-2-4.9C472.86,181,474,180.31,474.76,179.39Z"/><path class="cls-12" d="M485,121.58c1.75.14,3.55-.34,5.25.38.85,1.11.62,2.38.59,3.57-.06,2.86-.95,3.63-3.76,3.43-2.35-.16-3.17-1.18-2.89-3.89a24.36,24.36,0,0,1,.85-3.52Z"/><path class="cls-14" d="M479.15,176.14c4.43-.47,4.77-.83,5-5.1l0,0c2.05,1.42,4.2,2.07,6.56.73l.16,1.19c-2.24,1.86-3.35,4-1.62,6.77-.15.95-.19,2-1.53,2.08-.69-4.63-2.23-5.35-6.82-3.2C480.61,177.56,479,177.47,479.15,176.14Z"/><path class="cls-12" d="M487.35,138.84a3.76,3.76,0,0,1,4.16,3.52c.07,1.46-2.1,3.6-3.8,3.74s-4.1-2.16-4.15-3.85C483.51,140.39,485.18,138.89,487.35,138.84Z"/><path class="cls-12" d="M492.67,134v-.06c-1.06,3.56-3,4.71-5.38,3.22A3.9,3.9,0,0,1,485.2,133a4.07,4.07,0,0,1,3.66-2.93,3.31,3.31,0,0,1,3.53,2.27A8.47,8.47,0,0,1,492.67,134Z"/><path class="cls-13" d="M491.43,107.76c1.18,2.29,1.31,4.47-.68,6.43l.06-.09c-.49.09-1.16,0-.9.86l.08,0a2.65,2.65,0,0,0-3.05-.18l-.13.06c.15-1.34-1.18-1.63-1.75-2.46l0-3.16c.05-.1.16-.21.15-.29a3.62,3.62,0,0,0-.2-.55l-.07.07c.85.26,1-.23.91-.9l-.07.08a17.71,17.71,0,0,1,5.72.07Z"/><path class="cls-10" d="M514.11,120.77c-5.37-.37-6.2-2.16-3.44-7.39.14,0,.27,0,.41,0,2.12-.18,4.19,0,5.11,2.27S515.86,119.49,514.11,120.77Z"/><path class="cls-10" d="M515.64,137.57c-2.21-.39-4.08-1.5-3.84-3.89s2.14-3.6,4.59-3.74c1.2,0,1.69,1,2.38,1.73a3.78,3.78,0,0,0,.1.57c0,1.11.06,2.23.1,3.35C518.31,137,516.94,137.22,515.64,137.57Z"/><path class="cls-12" d="M485,121.55c-1.07-.06-2.27.35-3.17-.38-1.22-1-2.94-1.9-2.44-3.83s1.51-3.53,4-3.19c.53.07,1.08.07,1.62.11.41.8,1.07.81,1.82.55l.13-.06c-.53,2.32.15,5-2,6.83Z"/><path class="cls-10" d="M510.61,113.3c-5.19-.88-6.12-3-3.25-7.41l0,0,.86-.1c2-.11,3.89.27,4.7,2.36C513.79,110.53,512,111.85,510.61,113.3Z"/><path class="cls-10" d="M507.36,105.89a7.56,7.56,0,0,0-.82-.07c-5.52.09-6.62-1.65-4.14-6.53l0,0c.65,0,1.32,0,1.69-.73,3.94.79,4.13,1.05,4.06,5.56a1.51,1.51,0,0,0-.79,1.76Z"/><path class="cls-10" d="M501.56,167.74c-1-5,0-5.94,5.75-5.77.32,1.38,1.66,2.38,1.14,4.1-.86,2.83-3,2.63-5.23,2.59l-.86-.13,0,0a.93.93,0,0,0-.86-.86Z"/><path class="cls-12" d="M485.09,101.77c-1.84-4.56-.69-6.63,4-7.26,1.11,2.33,2.86,4.58.8,7.25-1.25.95-2.76.73-4.18.93h.06A.89.89,0,0,0,485.09,101.77Z"/><path class="cls-10" d="M516.41,128.88c-2.34.25-4.43-.11-4.93-2.83-.47-2.55.89-4,3.33-4.62C518.81,122.9,519.29,125.17,516.41,128.88Z"/><path class="cls-10" d="M480.93,178.57c4.59-2.15,6.13-1.43,6.82,3.2-1.07,1.5-1.93,3.4-4.32,2.73a3.14,3.14,0,0,1-2.63-3.13C480.79,180.43,480.88,179.5,480.93,178.57Z"/><path class="cls-10" d="M515.65,145.75c-1.75-.37-3.9,0-4.22-2.74s.49-3.76,4.22-4.32C519.3,140.88,519.3,143.51,515.65,145.75Z"/><path class="cls-12" d="M478.31,152.91c1.16,1.2,2.3,2.37,1.09,4.22-1.51,2.33-3.72,3-5.51,1.56s-1.82-3.4.25-5.86Z"/><path class="cls-7" d="M489.89,101.76c2.06-2.67.31-4.92-.8-7.25l.1-1.07c2,1.41,4.05,1.13,6.37-.08.08,2.71-.09,5.12,2.09,6.64a1.51,1.51,0,0,0-1.08,1c-2.11-1.15-3.94-.27-5.73.83Z"/><path class="cls-13" d="M484.18,158.69c.2.8,1.07.77,1.54,1.24,1.4,1.72,1,3.31-.53,4.62a3.36,3.36,0,0,1-4.78-.08c-.39-.33-.6-.92-1.26-.84C479.41,159.13,480.22,158.34,484.18,158.69Z"/><path class="cls-2" d="M308.27,210.45l-1.86.12-1.05-2.63c-1-2.52-1.55-5.3-4.71-7,2.54-1.17,4.38-.58,6.81-.16-1.91,1.72-1.68,3.42-.78,5.09A15.3,15.3,0,0,1,308.27,210.45Z"/><path class="cls-4" d="M461.23,213.85l-2.11.11-5-1.16c-3.08-3.1-3-4.13.25-6.44l.07,1.89c-.41,2,.95,2.5,2.44,3.07S460.47,211.81,461.23,213.85Z"/><path class="cls-5" d="M429.7,214.48l-.94,1a6.62,6.62,0,0,1-.28-5.88l1.34.18c0,.26-.1.68,0,.78,1.86,1.41,6,1.08,7.74-.58.34-.35.68-.71,1-1.06,1,1.05.58,2.26.54,4-2.7,0-5.27.07-7.84,0C430.07,212.85,429.5,213.2,429.7,214.48Z"/><path class="cls-2" d="M454.41,208.25l-.07-1.89c2.21-1.23,4.42-.07,6.54-.23a4.06,4.06,0,0,1,0,4.38C459,208.87,457.18,206.94,454.41,208.25Z"/><path class="cls-3" d="M454.09,212.8l5,1.16c.37,1,.84,2.21-.4,2.85a4.35,4.35,0,0,1-3.89-.16c-1.25-.57-1.45-1.86-2.1-2.85A1.9,1.9,0,0,1,454.09,212.8Z"/><path class="cls-4" d="M314.77,206.75c.21-1.93,1.52-3.9-.67-5.79a8.85,8.85,0,0,1,6.86,0c-3.66,1.39-3.36,4.73-5.14,6.79Z"/><path class="cls-15" d="M356.89,209.13A1.61,1.61,0,0,0,355.7,208c2.72-2.9,4.69-3.13,7.9-.93a1.69,1.69,0,0,0-1.21,1.21C360.47,208,358.54,207.68,356.89,209.13Z"/><path class="cls-2" d="M429.82,209.81l-1.34-.18c2-3.68,3.54-4.3,7.68-3.18,0,.59,0,1.18,0,1.77C433.73,207.61,431.52,207.68,429.82,209.81Z"/><path class="cls-5" d="M321.13,206.48c2.54-.71,5.06-1.33,7.1,1.12l-.93.94c-1.68-1.12-3.56-.64-5.38-.64Z"/><path class="cls-4" d="M446.39,209.06a1.58,1.58,0,0,1-1.22-1.26c1.76-1,3.34-2.86,5.9-1.2C449.94,208.73,447.55,207.72,446.39,209.06Z"/><path class="cls-4" d="M392.44,207.18a1.68,1.68,0,0,0-1.1,1.1c-1.66-.9-3.75.45-5.3-1C388.7,205.24,389.88,205.22,392.44,207.18Z"/><path class="cls-4" d="M399,214.11a1.52,1.52,0,0,0-1-1.08,4.48,4.48,0,0,1,5-1.56l.06,1.33A10.81,10.81,0,0,0,399,214.11Z"/><path class="cls-9" d="M475.61,145.49c-.78,0-1.34-.32-1.41-1.18.2-1.31-2.17-3.07.71-3.9a5.84,5.84,0,0,0,1.89,4.93Z"/><path class="cls-15" d="M321.13,206.48l.79,1.42a1.79,1.79,0,0,1-2.81.51C319,206.94,319.86,206.49,321.13,206.48Z"/><path class="cls-4" d="M436.12,208.22c0-.59,0-1.18,0-1.77a2.73,2.73,0,0,1,2.46,2.5c-.35.35-.69.71-1,1.06Z"/><path class="cls-15" d="M379,206.43l0,1.7a2.35,2.35,0,0,1-1.67,1.18l0-.31a.74.74,0,0,0-.85-.82v0c0-.62.09-1.23.14-1.85Z"/><path class="cls-9" d="M478.31,152.91l-4.17-.08.9-1.63,0,0C476.37,151.28,477.77,151.26,478.31,152.91Z"/><path class="cls-5" d="M319.78,217.59l-.68-1c.3-.72.44-1.41-.36-1.93a1.93,1.93,0,0,1,1.35-1.85l.86.84a2.72,2.72,0,0,0-.08,2.89Z"/><path class="cls-16" d="M469.22,102.5c.09-.81-.21-1.75.69-2.32l1.14.37,0,2.59Z"/><path class="cls-2" d="M376.62,206.35c-.05.62-.09,1.23-.14,1.85-1.36.57-1.82-.42-2.47-1.14C374.8,205.89,375.71,206.1,376.62,206.35Z"/><path class="cls-6" d="M486.81,114.81c-.75.26-1.41.25-1.82-.55l.07-1.91C485.63,113.18,487,113.47,486.81,114.81Z"/><path class="cls-17" d="M491.62,153.7c-.7,0-1.34,0-1.66-.77l.26-1.85a2.64,2.64,0,0,1,1.39,1.64Z"/><path class="cls-6" d="M504.05,98.6c-.37.68-1,.69-1.69.73a1.58,1.58,0,0,1,.42-1.74A1.4,1.4,0,0,1,504.05,98.6Z"/><path class="cls-6" d="M495.91,176c-.16-.57-.44-1.22.34-1.54.54-.22.9.18,1.17.61C497.2,175.81,496.59,176,495.91,176Z"/><path class="cls-15" d="M318.74,214.71c.8.52.66,1.21.36,1.93C318.28,216.13,317.51,215.61,318.74,214.71Z"/><path class="cls-9" d="M473.4,171.86c-.54.94-1.09.95-1.64,0C472.3,170.92,472.85,170.92,473.4,171.86Z"/><path class="cls-6" d="M485.09,101.77a.89.89,0,0,1,.68.93c-1.09.45-1.73-.16-2.3-.94Z"/><path class="cls-2" d="M399.74,206.47l0,1.48c-.57.37-1.38.76-1.57-.1S398.87,206.55,399.74,206.47Z"/><path class="cls-6" d="M476.74,171.86v2.06c-1.24-.43-.74-1.35-1.05-1.89Z"/><path class="cls-6" d="M493.29,121.47l1.67.07c-.1,1-.88,1.39-1.61,1.84Z"/><path class="cls-18" d="M419.43,206.35l.4,1.38a.65.65,0,0,1-.91-.26C418.67,207,418.91,206.56,419.43,206.35Z"/><path class="cls-6" d="M507.32,105.92a1.51,1.51,0,0,1,.79-1.76c0,.56.05,1.11.07,1.66Z"/><path class="cls-6" d="M502.36,168.53l.86.13-.17,1.76A1.66,1.66,0,0,1,502.36,168.53Z"/><path class="cls-2" d="M376.49,208.18a.74.74,0,0,1,.85.82C376.57,209.23,376.29,209,376.49,208.18Z"/><path class="cls-6" d="M477.68,169a.65.65,0,0,1,.59.18,1,1,0,0,1-.68,1.06Z"/><path class="cls-6" d="M485,108.35a3.62,3.62,0,0,1,.2.55c0,.08-.1.19-.15.29l-1.13-.1A1.05,1.05,0,0,1,485,108.35Z"/><path class="cls-3" d="M356.89,209.13c1.65-1.45,3.58-1.16,5.5-.88a2.5,2.5,0,0,1,.76,2.82,21.93,21.93,0,0,1-6.11.09A2,2,0,0,1,356.89,209.13Z"/><path class="cls-3" d="M399,214.11a10.81,10.81,0,0,1,4.07-1.31c3.22.2,3.22.2,2.55,3L403.48,217C399.46,217.17,399.46,217.17,399,214.11Z"/><path class="cls-4" d="M403.48,217l2.17-1.23.6,1.61-1.6.43A1.58,1.58,0,0,0,403.48,217Z"/><path class="cls-3" d="M320.87,216.59a2.72,2.72,0,0,1,.08-2.89,9.73,9.73,0,0,1,6.45-.58c1,1.95-.54,2.72-1.65,3.67C324.11,217.24,322.46,217.53,320.87,216.59Z"/><path class="cls-12" d="M490.84,101.81c1.79-1.1,3.62-2,5.73-.83,1.17,1.54.73,3.38,1,5.07.23.19.41.48.63.52,5.33.78,6.06,2.14,3.68,6.84-.12.24-.2.5-.3.74h0c-4.75-.32-6-1.74-5.35-6.27a8.73,8.73,0,0,0-4.78-.11l.09-.09C491.27,105.72,490.41,103.83,490.84,101.81Z"/><path class="cls-12" d="M501.54,114.15c2,.07,4-.54,5.24,2,.91,1.95-.75,3-1,4.69.84.71,1.73,1.48,2.64,2.23a2.7,2.7,0,0,1,.43,4.26c-1.23,1.49-2.83,2.16-4.7,1.21s-2.23-2.62-1.33-4.52c.22-.48.69-.85.93-1.33a3.94,3.94,0,0,0,.18-1.14c-4.66-2.1-5.08-3.42-2.41-7.44Z"/><path class="cls-12" d="M490.74,171.73c-2.36,1.34-4.51.69-6.56-.73.28-4.92.61-5.21,5.67-5.12,1,0,.85-.82.93-1.45.84-.33.83-1,.74-1.73.49-3.31,3.11-2.14,5.07-2.39h0c.13.52.24,1,.39,1.57,1.27,4.41-.3,6.13-5,5.25Z"/><path class="cls-12" d="M496.59,160.31A9.58,9.58,0,0,1,496,158c-.07-3.19,1.33-4.24,5.6-4.31l0,0a10,10,0,0,1,1.34,2,3.83,3.83,0,0,1-.6,4.22,3.26,3.26,0,0,1-3.75.9c-.64-.22-1.3-.37-2-.55Z"/><path class="cls-12" d="M501.56,153.72a14.29,14.29,0,0,0-.77-1.45c-1.17-1.72-1.14-3.42.4-4.8,1-.88,2.34-1.76,3.7-.61,1.2,1,2.9,1.92,2.2,4-.63,1.8-1.66,3.17-3.9,2.87a11.35,11.35,0,0,0-1.65,0Z"/><path class="cls-12" d="M506.58,130.6c2.18,0,3.89,1.46,3.88,3.33a3.56,3.56,0,0,1-3.49,3.3,3.42,3.42,0,0,1-3.75-3.43C503.27,131.73,504.44,130.61,506.58,130.6Z"/><path class="cls-12" d="M509.64,142.2a3.6,3.6,0,0,1-3.47,3.27,3.35,3.35,0,1,1,.08-6.63A3.64,3.64,0,0,1,509.64,142.2Z"/><path class="cls-19" d="M491.52,162.7c.09.72.1,1.4-.74,1.73C489.36,163.15,490.49,163,491.52,162.7Z"/><path class="cls-6" d="M490.84,101.81c-.43,2,.43,3.91.68,5.86a17.71,17.71,0,0,0-5.72-.07l-.09-4.91c1.42-.2,2.93,0,4.18-.93Z"/><path class="cls-6" d="M485.87,107.52c.06.67-.06,1.16-.91.9C485,107.88,485.21,107.47,485.87,107.52Z"/><path class="cls-6" d="M501.53,167.7a.93.93,0,0,1,.86.86C501.84,168.54,501.52,168.28,501.53,167.7Z"/><path class="cls-6" d="M489.91,115c-.26-.86.41-.77.9-.86C491,114.87,490.7,115.17,489.91,115Z"/><path class="cls-6" d="M436.12,208.22l1.47,1.79c-1.72,1.66-5.88,2-7.74.58-.13-.1,0-.52,0-.78C431.52,207.68,433.73,207.61,436.12,208.22Z"/></g></svg>