<svg id="Lager_1" data-name="Lager 1" xmlns="http://www.w3.org/2000/svg" viewBox="0 0 600 300"><defs><style>.cls-1{fill:#e8eff3;}.cls-2{fill:none;}.cls-3{fill:#802528;}.cls-4{fill:#5b7f71;}</style></defs><rect class="cls-1" width="600" height="300"/><g id="Scandidos"><rect class="cls-2" x="101" y="86.81" width="398" height="126.39"/><path class="cls-3" d="M188.89,170.63a21.91,21.91,0,0,0,11.52,3.27c6.62,0,10.49-3.42,10.49-8.55,0-4.61-2.68-7.36-9.45-9.89-8.18-3-13.23-7.28-13.23-14.28,0-7.8,6.47-13.61,16.21-13.61a22.37,22.37,0,0,1,11,2.46l-1.79,5.28a18.48,18.48,0,0,0-9.44-2.38c-6.84,0-9.44,4.09-9.44,7.51,0,4.68,3.05,7,10,9.66,8.48,3.35,12.72,7.37,12.72,14.73,0,7.73-5.65,14.5-17.47,14.5-4.83,0-10.11-1.49-12.79-3.27Z"/><path class="cls-3" d="M250.51,177.24a25.23,25.23,0,0,1-10.34,2.09c-10.85,0-17.91-7.36-17.91-18.44s7.58-19.19,19.33-19.19a20.54,20.54,0,0,1,9.07,1.94l-1.49,5a16.09,16.09,0,0,0-7.58-1.71c-8.25,0-12.71,6.17-12.71,13.68,0,8.33,5.35,13.46,12.49,13.46a18.79,18.79,0,0,0,8-1.71Z"/><path class="cls-3" d="M283.27,169.89a60.56,60.56,0,0,0,.52,8.62h-5.87l-.6-4.54h-.22a13.28,13.28,0,0,1-11,5.36c-7.28,0-11-5.13-11-10.34,0-8.7,7.73-13.46,21.64-13.38v-.75c0-3-.82-8.4-8.18-8.32a17.23,17.23,0,0,0-9.44,2.68l-1.49-4.39a23.27,23.27,0,0,1,11.89-3.13c11.08,0,13.76,7.52,13.76,14.73v13.46Zm-6.39-9.75c-7.14-.14-15.25,1.12-15.25,8.11,0,4.31,2.83,6.24,6.1,6.24a9.08,9.08,0,0,0,8.85-6,7.1,7.1,0,0,0,.3-2.07Z"/><path class="cls-3" d="M289.47,152.26c0-3.79-.08-6.76-.3-9.74H295l.37,5.88h.15a13.32,13.32,0,0,1,11.9-6.7c5,0,12.71,3,12.71,15.32v21.49h-6.54V157.76c0-5.79-2.16-10.7-8.33-10.7a9.45,9.45,0,0,0-8.78,6.69,10,10,0,0,0-.44,3.05v21.71h-6.55Z"/><path class="cls-3" d="M359.06,125.72v43.49c0,3.2.08,6.85.3,9.3h-5.88l-.29-6.24H353c-2,4-6.33,7.06-12.2,7.06-8.7,0-15.47-7.36-15.47-18.29-.08-12,7.44-19.34,16.14-19.34,5.58,0,9.29,2.61,10.86,5.43h.15V125.72Zm-6.54,31.45a12.29,12.29,0,0,0-.3-2.82,9.64,9.64,0,0,0-9.45-7.51c-6.76,0-10.78,5.95-10.78,13.83,0,7.36,3.64,13.38,10.64,13.38a9.91,9.91,0,0,0,9.59-7.8,11.6,11.6,0,0,0,.29-2.83v-6.25Z"/><path class="cls-3" d="M368.78,135.9a4.28,4.28,0,1,1,.07,0Zm-3.12,42.61v-36h6.54v36Z"/><path class="cls-4" d="M378.75,129.06a93.68,93.68,0,0,1,13.83-1c9.29,0,15.91,2.08,20.3,6.17,4.54,4.09,7.14,10,7.14,18.07s-2.6,14.87-7.22,19.48S400.31,179,390.56,179a91.58,91.58,0,0,1-11.82-.6v-49.3Zm6.54,44.39a41.67,41.67,0,0,0,6.54.3c13.84.07,21.35-7.74,21.35-21.27.07-12-6.62-19.33-20.31-19.33a36.87,36.87,0,0,0-7.58.67v39.63Z"/><path class="cls-4" d="M441.46,179.33c-9.67,0-17.25-7.14-17.25-18.51,0-12,8-19.12,17.84-19.12,10.34,0,17.32,7.52,17.32,18.44,0,13.39-9.29,19.19-17.84,19.19Zm.22-4.91c6.24,0,10.93-5.87,10.93-14,0-6.1-3.05-13.76-10.78-13.76s-11,7.14-11,14c0,7.88,4.46,13.83,10.78,13.83Z"/><path class="cls-4" d="M464.25,171.89a18.5,18.5,0,0,0,8.7,2.53c4.68,0,6.91-2.31,6.91-5.35s-1.85-4.84-6.62-6.62c-6.54-2.38-9.59-5.87-9.59-10.19,0-5.8,4.76-10.56,12.42-10.56a16.73,16.73,0,0,1,8.77,2.23l-1.56,4.69a14.68,14.68,0,0,0-7.36-2.08c-3.86,0-5.94,2.23-5.94,4.91,0,3.05,2.07,4.38,6.76,6.17,6.17,2.3,9.44,5.43,9.44,10.85,0,6.4-5,10.86-13.38,10.86a20.59,20.59,0,0,1-10.11-2.53Z"/><polygon class="cls-4" points="119.08 102.77 145.12 153.77 147.25 152.72 121.21 101.72 119.08 102.77"/><path class="cls-4" d="M146.54,133.3a20,20,0,1,1-16.68,7l-2.26-1.92h0l-2.27-1.92a26,26,0,1,0,21.63-9.1l-.21,3h0Z"/><polygon class="cls-4" points="171.09 181.84 119.03 181.84 119.03 184.81 119.03 184.81 119.03 184.81 119.03 187.78 171.09 187.78 171.09 184.81 171.09 184.81 171.09 184.81 171.09 181.84"/></g></svg>