<svg xmlns="http://www.w3.org/2000/svg" xmlns:xlink="http://www.w3.org/1999/xlink" width="600" height="300" viewBox="0 0 600 300">
  <defs>
    <clipPath id="clip-Logo">
      <rect width="600" height="300"/>
    </clipPath>
  </defs>
  <g id="Logo" clip-path="url(#clip-Logo)">
    <rect width="600" height="300" fill="#e8eff3"/>
    <g id="_6415d71c62883958aa17d864_logo_navbar" data-name="6415d71c62883958aa17d864_logo navbar" transform="translate(107.285 122.001)">
      <path id="Path_1441" data-name="Path 1441" d="M66.469,45.463A19.539,19.539,0,0,1,55.652,42.7,11.671,11.671,0,0,1,50.4,35l4.131-.7a8.748,8.748,0,0,0,4.131,5.356,15,15,0,0,0,7.981,2,12.5,12.5,0,0,0,7.456-2,6.374,6.374,0,0,0,2.766-5.461,5.071,5.071,0,0,0-.875-3.08A7.331,7.331,0,0,0,72.63,28.87a73.94,73.94,0,0,0-7.491-2.38,50.8,50.8,0,0,1-8.226-2.8A10.255,10.255,0,0,1,52.747,20.5a7.711,7.711,0,0,1-1.19-4.376,8.765,8.765,0,0,1,1.785-5.461,11.651,11.651,0,0,1,4.971-3.711,19.317,19.317,0,0,1,7.421-1.33,19.492,19.492,0,0,1,7.561,1.4,13.5,13.5,0,0,1,5.426,3.851,10.168,10.168,0,0,1,2.38,5.706l-4.131.77A8.313,8.313,0,0,0,73.3,11.612a13.386,13.386,0,0,0-7.7-2.17,12.39,12.39,0,0,0-7.141,1.75,5.413,5.413,0,0,0-2.765,4.726,4.473,4.473,0,0,0,.945,2.87,8.76,8.76,0,0,0,3.43,2.136,56.669,56.669,0,0,0,6.931,2.1A47.4,47.4,0,0,1,75.5,25.895a10.078,10.078,0,0,1,4.341,3.465,8.825,8.825,0,0,1,1.26,4.866,9.846,9.846,0,0,1-3.921,8.261Q73.3,45.463,66.469,45.463Z" transform="translate(62.494 6.976)" fill="#151515"/>
      <path id="Path_1442" data-name="Path 1442" d="M84.178,45.533a17.2,17.2,0,0,1-9.557-2.521,16.219,16.219,0,0,1-5.916-7.036,26.3,26.3,0,0,1-2.065-10.4,25.9,25.9,0,0,1,2.1-10.467,15.956,15.956,0,0,1,5.951-7,17.316,17.316,0,0,1,9.522-2.485,17.558,17.558,0,0,1,9.661,2.66,13.6,13.6,0,0,1,5.811,7.246l-3.921,1.435a11.229,11.229,0,0,0-4.516-5.461,12.885,12.885,0,0,0-7.071-1.96,12.443,12.443,0,0,0-7.386,2.065,12.16,12.16,0,0,0-4.341,5.636,23.363,23.363,0,0,0-1.505,8.331q.1,7.246,3.4,11.657,3.326,4.376,9.837,4.376a12.78,12.78,0,0,0,6.966-1.855A11.814,11.814,0,0,0,95.7,34.366l3.991,1.365a16.647,16.647,0,0,1-6.161,7.316A17.2,17.2,0,0,1,84.178,45.533Z" transform="translate(82.629 6.976)" fill="#151515"/>
      <path id="Path_1443" data-name="Path 1443" d="M96.695,45.533a15.434,15.434,0,0,1-7.281-1.54,10.519,10.519,0,0,1-4.306-4.061A11.111,11.111,0,0,1,83.672,34.4,10.143,10.143,0,0,1,85,29.01a10.566,10.566,0,0,1,3.606-3.5,18.561,18.561,0,0,1,5.006-2q3.116-.7,6.721-1.19,3.606-.525,6.861-.91,3.291-.385,5.356-.665l-1.47.875q.14-6.126-2.31-9.1-2.415-3.011-8.542-3.011a12.106,12.106,0,0,0-7.106,1.96,10.3,10.3,0,0,0-3.886,5.986L85.107,16.3a13.248,13.248,0,0,1,5.216-7.911A17.033,17.033,0,0,1,100.37,5.626a17.342,17.342,0,0,1,8.752,2.03,10.877,10.877,0,0,1,4.971,5.706A13.378,13.378,0,0,1,114.9,16.9a38.439,38.439,0,0,1,.21,4.026V44.483h-3.676V34.541l1.365.35a14.6,14.6,0,0,1-5.986,7.876A18.2,18.2,0,0,1,96.695,45.533Zm.21-3.711a15.731,15.731,0,0,0,6.756-1.365,12.157,12.157,0,0,0,4.691-3.886,13.136,13.136,0,0,0,2.31-5.916,24.662,24.662,0,0,0,.385-4.1q.035-2.205.035-3.256l1.75,1.12q-2.275.28-5.461.595-3.151.315-6.441.77a50.847,50.847,0,0,0-5.951,1.155,17.039,17.039,0,0,0-3.326,1.33,7.865,7.865,0,0,0-2.765,2.345A6.361,6.361,0,0,0,87.8,34.436a7.739,7.739,0,0,0,.84,3.431,6.86,6.86,0,0,0,2.87,2.836A11.03,11.03,0,0,0,96.9,41.822Z" transform="translate(103.748 6.976)" fill="#151515"/>
      <path id="Path_1444" data-name="Path 1444" d="M102.077,51.459V0H106.1V51.459Z" transform="translate(126.569)" fill="#151515"/>
      <path id="Path_1445" data-name="Path 1445" d="M125.313,45.533a17.659,17.659,0,0,1-9.383-2.416,16.329,16.329,0,0,1-6.126-6.9,24.012,24.012,0,0,1-2.17-10.572,24.6,24.6,0,0,1,2.137-10.677,16.087,16.087,0,0,1,6.09-6.931,17.651,17.651,0,0,1,9.381-2.415,16.873,16.873,0,0,1,9.383,2.52,15.514,15.514,0,0,1,5.951,7.211,27.252,27.252,0,0,1,1.96,11.377h-4.2v-1.4q-.175-7.771-3.5-11.832t-9.522-4.061q-6.407,0-9.907,4.236-3.467,4.2-3.465,11.9,0,7.631,3.465,11.832,3.5,4.2,9.836,4.2a14.119,14.119,0,0,0,7.631-2.03,14.409,14.409,0,0,0,5.217-5.881l3.64,1.61a17.093,17.093,0,0,1-6.581,7.561A18.323,18.323,0,0,1,125.313,45.533ZM110.4,26.735V23.094H140.26v3.641Z" transform="translate(133.458 6.976)" fill="#151515"/>
      <path id="Path_1446" data-name="Path 1446" d="M143.342,45.533a17.12,17.12,0,0,1-9.556-2.556,16.336,16.336,0,0,1-5.987-7.071,24.743,24.743,0,0,1-2.065-10.4,24.255,24.255,0,0,1,2.1-10.4,16.1,16.1,0,0,1,6.021-7,17.466,17.466,0,0,1,9.486-2.485A17.134,17.134,0,0,1,152.9,8.182a15.837,15.837,0,0,1,5.985,7,24.414,24.414,0,0,1,2.065,10.327,25.013,25.013,0,0,1-2.065,10.5,16.068,16.068,0,0,1-6.021,7A17.346,17.346,0,0,1,143.342,45.533Zm0-3.921q6.686,0,9.977-4.481,3.326-4.481,3.326-11.622,0-7.281-3.326-11.622t-9.977-4.341a12.671,12.671,0,0,0-7.457,2.065,12.3,12.3,0,0,0-4.41,5.636,22.044,22.044,0,0,0-1.436,8.261q0,7.281,3.362,11.692Q136.795,41.612,143.342,41.612Z" transform="translate(155.902 6.976)" fill="#151515"/>
      <path id="Path_1447" data-name="Path 1447" d="M159.809,44.777a16.194,16.194,0,0,1-5.6-.91,13.085,13.085,0,0,1-4.272-2.556,14.612,14.612,0,0,1-3.01-3.921,19.961,19.961,0,0,1-1.785-4.971,27.6,27.6,0,0,1-.56-5.636V6.095h4.061V25.768a26.4,26.4,0,0,0,.7,6.371,14,14,0,0,0,2.171,4.761,9.568,9.568,0,0,0,3.642,2.976,12.284,12.284,0,0,0,5.181,1.015,12.439,12.439,0,0,0,5.32-1.05,9.824,9.824,0,0,0,3.712-3.01,12.914,12.914,0,0,0,2.17-4.551,21.7,21.7,0,0,0,.735-5.776l3.185.385a21.613,21.613,0,0,1-2.1,10.117,13.669,13.669,0,0,1-5.6,5.881A16.592,16.592,0,0,1,159.809,44.777Zm12.848-.875V35.4h-.385V6.095h4.061V43.9Z" transform="translate(179.272 7.557)" fill="#151515"/>
      <path id="Path_1448" data-name="Path 1448" d="M185.5,49.715a21.54,21.54,0,0,1-5.952.49,13,13,0,0,1-5.25-1.3,7.664,7.664,0,0,1-3.432-3.641,10.627,10.627,0,0,1-1.048-4.026q-.107-2.03-.105-4.656V1.407h4.061V36.518q0,2.38.034,3.956a6.812,6.812,0,0,0,.735,2.836,5.435,5.435,0,0,0,3.992,2.94,21.616,21.616,0,0,0,6.966-.175ZM161.242,15.584V11.908H185.5v3.676Z" transform="translate(199.929 1.744)" fill="#151515"/>
      <path id="Path_1449" data-name="Path 1449" d="M65.861,40.93a17.415,17.415,0,0,1-12.338-5.095l2.149-2.148a14.35,14.35,0,0,0,10.19,4.235,14.1,14.1,0,0,0,10.19-4.235A14.35,14.35,0,0,0,80.286,23.5a14.1,14.1,0,0,0-4.235-10.19,14.35,14.35,0,0,0-10.19-4.236,14.1,14.1,0,0,0-10.19,4.236L33.142,35.835a17.487,17.487,0,0,1-24.677,0,17.487,17.487,0,0,1,0-24.677,17.487,17.487,0,0,1,24.677,0l-2.149,2.148A14.35,14.35,0,0,0,20.8,9.071a14.1,14.1,0,0,0-10.19,4.236A14.35,14.35,0,0,0,6.378,23.5a14.1,14.1,0,0,0,4.236,10.19A14.35,14.35,0,0,0,20.8,37.922a14.1,14.1,0,0,0,10.19-4.235L53.522,11.158A17.449,17.449,0,1,1,65.861,40.93Z" transform="translate(4.179 7.518)" fill="#151515"/>
      <path id="Path_1450" data-name="Path 1450" d="M61.681,52.66A25.011,25.011,0,0,1,44,45.355l2.149-2.149A21.963,21.963,0,1,0,77.212,12.146a21.933,21.933,0,0,0-31.061,0L23.623,34.674a9.883,9.883,0,1,1,0-14l-2.148,2.149a6.875,6.875,0,1,0,0,9.7L44,10A24.984,24.984,0,0,1,86.665,27.676,24.94,24.94,0,0,1,61.681,52.66Z" transform="translate(8.359 3.338)" fill="#151515"/>
      <path id="Path_1451" data-name="Path 1451" d="M24.984,52.66A24.94,24.94,0,0,1,0,27.676,24.94,24.94,0,0,1,24.984,2.692,24.789,24.789,0,0,1,42.663,10l-2.149,2.148A21.963,21.963,0,0,0,9.453,43.207a21.933,21.933,0,0,0,31.061,0L63.042,20.678a9.883,9.883,0,1,1,0,14l2.149-2.149a6.875,6.875,0,1,0,0-9.7L42.663,45.355A24.789,24.789,0,0,1,24.984,52.66Z" transform="translate(0 3.338)" fill="#151515"/>
    </g>
  </g>
</svg>
