<svg id="Lager_1" data-name="Lager 1" xmlns="http://www.w3.org/2000/svg" viewBox="0 0 600 300"><defs><style>.cls-1{fill:#e8eff3;}.cls-2{fill:#7ac042;}.cls-3{fill:#7ac143;}</style></defs><rect class="cls-1" width="600" height="300"/><path class="cls-2" d="M430,126.41V79.65h10.63v.83q0,34.58,0,69.14a32.64,32.64,0,0,1-3,14.66c-5.06,10.36-13.29,16.63-24.71,18.52a29.68,29.68,0,0,1-7.47.36,32.83,32.83,0,0,1-29.76-27.53,26.31,26.31,0,0,1-.41-6.74c1.06-12.08,6.75-21.25,17.41-27.19A30.06,30.06,0,0,1,405,118a32.37,32.37,0,0,1,24.51,8Zm0,24.24a22,22,0,1,0-21.2,21.94A22,22,0,0,0,430,150.65Z"/><path class="cls-2" d="M171.82,174.84v45.51H161v-.85c0-23.11-.07-46.22,0-69.33A32.77,32.77,0,0,1,188,118.36a31.84,31.84,0,0,1,26.09,6.58,31.3,31.3,0,0,1,11.73,19.22,32.71,32.71,0,0,1-26.92,38.59,30.24,30.24,0,0,1-6.22.43A32.53,32.53,0,0,1,172.16,175l-.21-.15S171.91,174.82,171.82,174.84Zm0-23.23c.1,10.71,9.53,20.84,21.66,20.93a22.11,22.11,0,0,0,22.27-23.74,22,22,0,0,0-21.61-20.34,22,22,0,0,0-22.32,23.15Z"/><path class="cls-2" d="M294.13,154.73h-51.8c2,8.27,6.8,14.1,14.86,16.68,9.15,2.93,17,.36,23.69-6.53l8,6.85c-.21.24-.39.47-.59.69a32.58,32.58,0,0,1-19.75,10.44,29.93,29.93,0,0,1-7.79.19,33,33,0,0,1-28.94-26.9,28.87,28.87,0,0,1-.4-8,32.38,32.38,0,0,1,10.38-21.52,31.2,31.2,0,0,1,15.09-7.94,44.17,44.17,0,0,1,4.87-.66,28.34,28.34,0,0,1,3.57-.13c6.39.19,12.28,1.87,17.33,6A28.08,28.08,0,0,1,291,135.68a40.39,40.39,0,0,1,2.75,11.87c.16,2.26.26,4.52.38,6.78A2.19,2.19,0,0,1,294.13,154.73Zm-11.56-10.79c-.33-1.13-.6-2.2-1-3.24-1.55-4.44-4.07-8.12-8.39-10.28a20.09,20.09,0,0,0-11.79-1.81,21.71,21.71,0,0,0-15.9,9.89,19.93,19.93,0,0,0-2.55,5.44Z"/><path class="cls-2" d="M152.48,181.2H141.87v-6.55c-.66.51-1.24.94-1.79,1.39a31.85,31.85,0,0,1-8.65,5,29.63,29.63,0,0,1-8.56,2,34.46,34.46,0,0,1-7.66-.2,32.17,32.17,0,0,1-16.51-7.43,32.66,32.66,0,0,1-10-14.87A26.36,26.36,0,0,1,87.27,153a43.74,43.74,0,0,1,0-6,32,32,0,0,1,4-12.47,33.24,33.24,0,0,1,6.36-8.09,32.68,32.68,0,0,1,10.61-6.55,32.07,32.07,0,0,1,7.93-1.9,33.28,33.28,0,0,1,8.4.18,32.94,32.94,0,0,1,10,3.18,31.15,31.15,0,0,1,6.32,4.26,32.7,32.7,0,0,1,7.5,9.14,29.72,29.72,0,0,1,3.28,9,30.4,30.4,0,0,1,.64,5.36c.09,10.56.1,21.12.14,31.68A3.51,3.51,0,0,1,152.48,181.2Zm-32.69-8.66a22,22,0,0,0,22.06-21.41A22.08,22.08,0,0,0,118,128.54a22,22,0,0,0,1.81,44Z"/><path class="cls-3" d="M512.81,150.51a32.67,32.67,0,1,1-31.55-32.67A32.65,32.65,0,0,1,512.81,150.51Zm-32.63,22a22,22,0,1,0-22.08-22.1A22,22,0,0,0,480.18,172.54Z"/><path class="cls-2" d="M367.27,181.21H356.71c0-.71-.09-1.41-.09-2.12,0-8.54,0-17.09,0-25.63a49.19,49.19,0,0,0-.31-6.43,20.78,20.78,0,0,0-5.46-11.38A21.68,21.68,0,0,0,339.6,129a22.06,22.06,0,0,0-26.66,17,23.08,23.08,0,0,0-.49,4.83c0,3.17,0,6.35,0,9.52l.06,20v.79h-10.6c0-.22,0-.41,0-.6,0-10.35-.11-20.7,0-31.05a31.07,31.07,0,0,1,7.82-20.28,32.15,32.15,0,0,1,18.41-10.82,30.75,30.75,0,0,1,7.83-.59,32.74,32.74,0,0,1,30.47,25.42,33.88,33.88,0,0,1,.82,7.51q0,14.8,0,29.61Z"/></svg>